<?xml version="1.0" encoding="UTF-8"?><svg id="Layer_2" xmlns="http://www.w3.org/2000/svg" width="134.6" height="44.49" xmlns:xlink="http://www.w3.org/1999/xlink" viewBox="0 0 134.6 44.49"><defs><linearGradient id="linear-gradient" x1="67.07" y1="-4.99" x2="67.48" y2="43.66" gradientUnits="userSpaceOnUse"><stop offset=".12" stop-color="#4c6596"/><stop offset=".44" stop-color="#3d4e88"/><stop offset=".61" stop-color="#35417b"/><stop offset=".91" stop-color="#2a3069"/></linearGradient><linearGradient id="linear-gradient-2" x1="65.66" y1="-4.98" x2="66.07" y2="43.67" xlink:href="#linear-gradient"/><linearGradient id="linear-gradient-3" x1="65.66" y1="-4.98" x2="66.07" y2="43.67" xlink:href="#linear-gradient"/></defs><g id="_כפתורים"><path d="m84.19,44.49c-8.25,0-52.97-.4-64.53-1.48-6.21-.58-10.56-2.27-13.67-5.31-2.77-2.71-4.6-6.36-5.58-11.17l-.05-.25-.03-.17c-.43-3.22-.43-4.98,0-8.17C1.97,8.24,9.01,2.09,19.64,1.03c10.39-1.03,20.75-1.03,30.77-1.03,4.66,0,14.63.15,22.65.26h.08c5.21.08,9.7.14,11.06.14,10.23,0,20.8,0,30.78,1.03,10.63,1.1,17.66,7.22,19.29,16.8.45,3.33.45,5.01.02,8.24l-.02.15c-.65,3.32-1.68,6.06-3.14,8.36-.22.35-.45.69-.69,1.01-3.06,4.18-8.11,6.6-15.43,7.4-9.9,1.08-20.52,1.08-30.8,1.08Z" fill="#03072d"/><path d="m84.19,42.87c-8.24,0-52.9-.4-64.42-1.48-5.92-.55-10.04-2.13-12.94-4.97-2.6-2.54-4.31-5.99-5.24-10.55l-.05-.26v-.09c-.43-3.1-.43-4.78-.02-7.85C3.06,8.57,9.7,2.8,19.76,1.8c10.33-1.02,20.66-1.02,30.65-1.02,4.64,0,14.62.15,22.63.26,5.25.08,9.78.14,11.15.14,10.2,0,20.74,0,30.66,1.03,10.05,1.04,16.7,6.8,18.23,15.81.43,3.17.43,4.78,0,7.88v.08c-.64,3.18-1.61,5.77-2.99,7.95-.21.33-.43.65-.64.95-2.85,3.89-7.62,6.16-14.59,6.92-9.83,1.07-20.42,1.07-30.67,1.07Z" fill="#6d7eb2"/><path d="m131.89,18.22c-1.43-8.43-7.69-13.83-17.17-14.81-9.85-1.02-20.37-1.02-30.53-1.02-3.44,0-26.06-.41-33.78-.41-9.96,0-20.26,0-30.53,1.02-9.47.94-15.73,6.34-17.18,14.84-.4,2.98-.4,4.52,0,7.5v.05c.02.09.04.17.06.25.88,4.31,2.49,7.57,4.91,9.93,2.7,2.64,6.58,4.11,12.22,4.63,11.43,1.07,56.58,1.47,64.31,1.47,10.21,0,20.77,0,30.54-1.07,6.62-.72,11.12-2.83,13.76-6.43.21-.28.41-.58.6-.88,1.3-2.05,2.22-4.51,2.81-7.5v-.05c.41-2.98.41-4.52,0-7.52Z" fill="url(#linear-gradient)"/><path d="m78.66,38.15c-43.9.07-66.15-.87-75.9-12.51,1.21,4.31,3.42,7.57,6.75,9.93,3.71,2.64,9.06,4.11,16.81,4.63,4.15.28,8.06.56,11.85.81,17.59.47,40.69.66,46.02.66,10.21,0,20.77,0,30.54-1.07,6.62-.72,11.12-2.83,13.76-6.43.21-.28.41-.58.6-.88.02-.03.04-.07.06-.1-18.83,5.98-32.08,4.93-50.48,4.96Z" fill="url(#linear-gradient-2)"/><path d="m129.14,33.19h0s-.04.07-.06.1c.02-.03.04-.07.06-.1Z" fill="#0b1a42" opacity=".37"/><path d="m78.66,38.15c-43.9.07-66.15-.87-75.9-12.51.88,4.31,2.49,7.57,4.91,9.93,2.7,2.64,6.58,4.11,12.22,4.63,11.43,1.07,56.58,1.47,64.31,1.47,10.21,0,20.77,0,30.54-1.07,6.62-.72,11.12-2.83,13.76-6.43.21-.28.41-.58.6-.88.02-.03.04-.07.06-.1-18.83,5.98-32.08,4.93-50.48,4.96Z" fill="url(#linear-gradient-3)"/><path d="m78.66,38.15c-43.9.07-66.15-.87-75.9-12.51.88,4.31,2.49,7.57,4.91,9.93,2.7,2.64,6.58,4.11,12.22,4.63,11.43,1.07,56.58,1.47,64.31,1.47,10.21,0,20.77,0,30.54-1.07,6.62-.72,11.12-2.83,13.76-6.43.21-.28.41-.58.6-.88.02-.03.04-.07.06-.1-18.83,5.98-32.08,4.93-50.48,4.96Z" fill="#0b1a42" opacity=".37"/><path d="m17.12,6.84c-.16.63-1.31.26-3.3.96-3.07,1.07-2.77,2.7-3.67,2.17-.56-.33.74-2.14,2.66-3s4.47-.74,4.31-.12Z" fill="#fff"/><ellipse cx="9.3" cy="11.28" rx=".62" ry=".63" transform="translate(-2.78 19.52) rotate(-84.8)" fill="#fff"/><path d="m125.82,7.58c-2.87-2.28-6.62-3.72-11.09-4.19-9.85-1.02-20.37-1.02-30.53-1.02-3.44,0-26.06-.41-33.78-.41-9.96,0-20.26,0-30.53,1.02-9.04.9-15.14,5.85-16.94,13.68C10.15,10.56,35.71-.15,125.82,7.58Z" fill="#fff" opacity=".07"/><g opacity=".63"><path d="m19.67,27.28c-.42,0-.71-.08-.85-.24-.15-.16-.22-.43-.22-.81,0-.23.03-.43.08-.59.05-.16.16-.29.31-.38.15-.09.37-.13.67-.13.43,0,.72.08.86.24.14.16.21.43.21.81,0,.23-.03.42-.08.58-.05.16-.16.28-.31.38-.15.09-.37.14-.67.14Zm0-4.03c-.27,0-.47-.03-.6-.09-.13-.06-.21-.16-.25-.28-.04-.13-.06-.29-.06-.48v-8.48c0-.18.02-.33.06-.46.04-.13.13-.23.25-.31.13-.07.32-.11.58-.11.27,0,.47.03.6.1.13.07.21.17.25.3.04.13.06.29.06.48v8.46c0,.18-.02.33-.06.47-.04.14-.12.24-.24.31s-.32.1-.59.1Z" fill="#cbe9f4"/><path d="m31.41,30.11c-.24,0-.43-.04-.57-.11-.14-.07-.23-.17-.27-.29s-.07-.25-.07-.39v-7.83c0-.73-.08-1.38-.23-1.93-.16-.56-.39-1.02-.71-1.39-.32-.37-.71-.65-1.18-.83-.47-.18-1.01-.27-1.64-.27h-2.83c-.18,0-.34-.02-.48-.07-.14-.05-.25-.14-.34-.27s-.12-.33-.12-.57c0-.26.04-.45.12-.57s.19-.21.34-.26c.14-.05.3-.08.46-.08h2.79c.92,0,1.74.13,2.44.4.7.26,1.29.66,1.76,1.18.47.52.82,1.17,1.06,1.94.24.77.36,1.68.36,2.71v7.73c0,.18-.02.33-.06.47-.04.14-.13.25-.25.34-.13.09-.32.13-.56.13Z" fill="#cbe9f4"/><path d="m35.91,21.51c-.24,0-.43-.04-.55-.13-.12-.09-.21-.2-.25-.34-.05-.14-.07-.28-.07-.45v-4.48c0-.16.02-.31.07-.45.05-.14.14-.24.26-.33.13-.08.32-.12.56-.12.26,0,.45.04.58.13.13.09.21.2.25.33.04.13.06.28.06.46v4.48c0,.16-.02.31-.07.45-.05.14-.14.24-.26.33-.13.08-.32.12-.58.12Z" fill="#cbe9f4"/><path d="m45.79,27.34c-.98,0-1.84-.16-2.6-.49-.76-.33-1.4-.78-1.92-1.35-.52-.58-.92-1.25-1.18-2.02s-.4-1.62-.4-2.54v-4.8c0-.16.02-.32.07-.46.05-.14.14-.25.27-.34.14-.08.33-.12.57-.12s.43.04.56.12c.13.08.22.19.27.34.05.14.08.3.08.48v4.78c0,.94.04,3.87.38,4.56.34.69,2.04-1.13,1.61-.51-.91,1.34,1.05,2.14,1.96,2.14.96,0,3.41-.68,4.06-1.07.65-.39.63-2.01.96-2.7s-.24-1.53-.24-2.44v-4.9c0-.14.03-.26.08-.39.05-.12.15-.22.27-.3.13-.07.32-.11.56-.11s.43.04.56.13c.13.09.22.2.26.34.05.14.07.29.07.47v4.82c0,.91-.14,1.75-.41,2.52-.27.77-.68,1.45-1.22,2.02-.54.58-1.2,1.02-1.97,1.34-.77.32-1.66.48-2.67.48Zm-3.8-2.48l-.47-.95.45,1.41c.37,0,.92-1.83,1.23-2.09.31-.26.6-.63.85-1.09.26-.46.46-.99.61-1.58.15-.59.23-1.2.24-1.84l.08-2.67c.01-.15.05-.29.1-.42.05-.13.15-.23.27-.31s.32-.11.56-.11c.26,0,.45.04.59.12.14.08.22.19.26.32.04.13.05.27.04.44l-.12,2.58c-.05.87-.19,1.68-.4,2.42-.21.75-.5,1.4-.87,1.97-.37.57-.81,1.01-1.3,1.32-.5.31-1.05.47-1.66.47h-.49Z" fill="#cbe9f4"/><path d="m62.33,25.43h1.32v-4.66c0-.88-.11-1.61-.34-2.18-.22-.57-.55-.99-.98-1.26-.43-.27-.95-.41-1.56-.41-.45,0-.85.1-1.22.3-.37.2-.69.47-.96.82-.27.35-.51.77-.7,1.25-.2.48-.36,1.01-.5,1.6l-1.1,5.39c-.03.18-.07.34-.12.49-.05.15-.15.27-.27.36-.13.09-.31.13-.54.13-.35,0-.6-.08-.75-.23-.15-.16-.2-.38-.14-.68l1.44-7.16.65.43c.14-.5.3-.98.49-1.43.19-.45.4-.87.64-1.24.24-.37.52-.69.84-.97.33-.27.69-.48,1.11-.63.41-.15.9-.22,1.45-.22.92,0,1.71.21,2.35.62.64.41,1.14,1.04,1.48,1.87.34.83.51,1.87.51,3.1v5.64c0,.26-.02.45-.06.58-.04.13-.12.22-.24.26s-.31.07-.57.07h-2.21m-6.48-5.98l-1.3-4.86c-.05-.19-.08-.36-.08-.51s.05-.28.15-.4c.1-.12.28-.21.54-.27.31-.07.54-.07.69,0,.15.07.25.17.31.32.05.14.09.27.12.4l.96,3.72-1.38,1.61Z" fill="#cbe9f4"/><path d="m71.82,25.43h2.3l-.02,1.83h-2.28m2.22,0c-.24,0-.43-.03-.56-.1-.13-.07-.22-.17-.27-.3-.05-.13-.08-.26-.08-.4v-5.57c0-.85-.1-1.57-.31-2.14-.2-.57-.51-1-.92-1.28-.41-.28-.92-.43-1.55-.43h-.71c-.18,0-.34-.02-.48-.07-.14-.05-.25-.14-.34-.27-.08-.14-.12-.33-.12-.57,0-.26.04-.45.12-.57.08-.12.19-.21.34-.26.14-.05.29-.08.46-.08h.69c1.02,0,1.87.21,2.55.63.69.42,1.2,1.04,1.55,1.87.35.83.52,1.87.52,3.11v5.49c0,.18-.02.34-.06.48s-.13.25-.26.34c-.14.08-.33.12-.57.12Z" fill="#cbe9f4"/><path d="m83.66,27.26c-.24,0-.43-.04-.55-.12-.12-.08-.21-.19-.25-.34s-.07-.3-.07-.46v-10.23c0-.16.02-.31.07-.45.05-.14.14-.24.26-.33.13-.08.32-.12.56-.12.26,0,.45.04.58.13.13.09.21.2.25.33.04.13.06.28.06.46v10.23c0,.16-.02.31-.07.45-.05.14-.14.24-.26.33-.13.08-.32.12-.58.12Z" fill="#cbe9f4"/><path d="m87.79,27.24c-.26-.07-.43-.16-.53-.28-.1-.12-.14-.27-.13-.46,0-.18.04-.38.09-.58l2.38-8.14,1.49.61-2.12,7.89c-.07.27-.14.49-.21.65-.07.16-.18.27-.33.32-.14.05-.36.04-.64-.01Zm7.84-1.52l-7.08-8.61c-.16-.2-.3-.39-.4-.56-.1-.17-.14-.34-.1-.5s.17-.34.42-.53c.23-.18.42-.25.58-.23.16.02.31.1.45.23.14.14.3.31.46.53l6.75,8.19m-1.36-.52l-.69-.59,1.75-6.84c.07-.22.14-.41.21-.57.07-.16.19-.28.35-.35.16-.07.38-.05.68.04.26.08.43.19.51.32.08.13.11.28.08.46-.03.18-.07.38-.14.61l-1.36,5.13c-.08.28-.18.53-.28.72-.11.2-.25.38-.43.54s-.4.34-.67.53Z" fill="#cbe9f4"/><path d="m101.83,27.26c-.24,0-.43-.04-.55-.12-.12-.08-.21-.19-.25-.34s-.07-.3-.07-.46v-10.23c0-.16.02-.31.07-.45.05-.14.14-.24.26-.33.13-.08.32-.12.56-.12.26,0,.45.04.58.13.13.09.21.2.25.33.04.13.06.28.06.46v10.23c0,.16-.02.31-.07.45-.05.14-.14.24-.26.33-.13.08-.32.12-.58.12Z" fill="#cbe9f4"/><path d="m106.55,27.26c-.18,0-.34-.02-.48-.07s-.25-.14-.34-.26c-.08-.13-.12-.32-.12-.56,0-.26.04-.45.12-.58.08-.13.19-.22.34-.26.14-.05.3-.07.46-.07h8.83c.18,0,.33.02.47.07.14.05.24.14.33.26.08.13.12.32.12.58,0,.24-.04.43-.12.56-.08.13-.19.22-.33.26-.14.05-.3.07-.49.07h-8.79Zm7.14,0c-.24,0-.43-.03-.56-.1-.13-.07-.22-.16-.27-.28-.05-.12-.08-.25-.08-.39v-5.01c0-.73-.08-1.38-.23-1.93-.16-.56-.39-1.02-.7-1.39-.31-.37-.7-.65-1.17-.83-.47-.18-1.02-.27-1.66-.27h-2.26c-.18,0-.34-.02-.48-.07-.14-.05-.25-.14-.34-.27-.08-.14-.12-.33-.12-.57,0-.26.04-.45.12-.57.08-.12.19-.21.33-.26.14-.05.29-.08.47-.08h2.22c.94,0,1.76.13,2.46.4.7.26,1.29.66,1.76,1.18.47.52.82,1.17,1.06,1.94s.36,1.68.36,2.71v4.9c0,.18-.02.33-.06.47-.04.14-.13.24-.26.33-.14.08-.33.12-.57.12Z" fill="#cbe9f4"/></g><path d="m18.82,30.24c-.67,0-1.16-.17-1.47-.52-.3-.32-.44-.78-.44-1.38,0-.32.04-.6.12-.86.12-.35.35-.64.67-.83.29-.17.65-.25,1.1-.25.69,0,1.18.17,1.5.53.28.32.42.77.42,1.37,0,.33-.04.61-.13.85-.12.34-.34.62-.65.81-.29.19-.66.27-1.12.27Zm0-4.03c-.41,0-.71-.06-.96-.17-.34-.16-.58-.44-.69-.79-.07-.21-.1-.45-.1-.73v-8.48c0-.26.03-.5.1-.71.11-.33.33-.6.64-.78.26-.15.59-.22,1-.22s.74.06.99.2c.33.17.56.44.66.79.07.21.1.45.1.73v8.46c0,.26-.03.5-.1.71-.1.35-.33.62-.64.8-.25.14-.57.21-1,.21Z" fill="#03072d"/><path d="m30.56,33.07c-.39,0-.71-.07-.98-.22-.31-.17-.53-.42-.65-.73-.09-.22-.13-.45-.13-.69v-7.83c0-.65-.07-1.23-.2-1.71-.12-.43-.3-.8-.54-1.07-.23-.27-.51-.46-.85-.6-.37-.14-.82-.22-1.33-.22h-2.83c-.27,0-.52-.04-.74-.11-.33-.11-.61-.33-.79-.64-.16-.27-.24-.6-.24-1,0-.43.09-.77.26-1.04.18-.27.43-.47.74-.58.24-.09.49-.14.76-.14h2.79c1.02,0,1.94.15,2.74.45.83.31,1.53.78,2.09,1.41.55.61.96,1.37,1.24,2.26.26.85.39,1.84.39,2.95v7.73c0,.26-.03.5-.1.71-.1.32-.3.59-.58.79-.27.19-.62.28-1.03.28Z" fill="#03072d"/><path d="m35.06,24.47c-.43,0-.77-.1-1.04-.29-.26-.19-.45-.44-.55-.74-.08-.22-.12-.47-.12-.73v-4.48c0-.26.04-.5.12-.73.11-.32.32-.58.61-.76.27-.17.6-.25,1.01-.25.44,0,.78.09,1.05.28.29.2.49.46.58.77.07.21.1.45.1.71v4.48c0,.26-.04.5-.12.72-.11.32-.32.58-.61.76-.27.17-.61.25-1.03.25Z" fill="#03072d"/><path d="m44.95,30.3c-1.09,0-2.08-.19-2.94-.56-.87-.37-1.61-.9-2.21-1.56-.6-.66-1.05-1.44-1.35-2.32-.29-.86-.44-1.81-.44-2.82v-4.8c0-.25.04-.5.11-.72.11-.33.33-.61.64-.79.27-.16.6-.24,1-.24s.74.08,1.01.25c.28.18.49.44.61.75.09.24.14.5.14.78v4.78c0,.63.09,1.19.26,1.68.01-.01.03-.02.04-.04.23-.2.46-.49.66-.86.22-.39.4-.86.53-1.37.13-.52.21-1.08.22-1.65l.08-2.72c.02-.23.08-.46.16-.67.12-.3.34-.54.63-.71.26-.15.58-.22.98-.22s.75.08,1.02.24c.31.19.53.46.63.78.07.23.1.49.08.76l-.12,2.56c-.06.94-.2,1.81-.43,2.61-.23.82-.56,1.57-.98,2.21-.29.44-.61.82-.97,1.13.22.03.45.05.68.05.8,0,1.47-.16,1.99-.47.51-.31.89-.73,1.15-1.28.28-.58.42-1.27.42-2.05v-4.9c0-.25.05-.5.15-.73.12-.28.34-.52.62-.68.26-.15.58-.22.98-.22.42,0,.76.09,1.03.28.28.19.48.45.58.75.08.23.12.48.12.75v4.82c0,1-.15,1.94-.45,2.8-.31.88-.78,1.66-1.4,2.32-.62.66-1.39,1.18-2.27,1.54-.87.36-1.88.54-2.99.54Z" fill="#03072d"/><path d="m58.78,30.22c-.26,0-.52-.05-.76-.14-.31-.12-.57-.33-.75-.61-.17-.27-.25-.6-.25-1.01s.08-.76.25-1.03c.19-.29.46-.51.78-.61.23-.08.48-.11.74-.11h3.17v-3.82c0-.77-.09-1.4-.28-1.87-.16-.4-.37-.68-.64-.86-.29-.19-.65-.28-1.11-.28-.31,0-.58.06-.82.19-.26.14-.49.34-.69.6-.23.29-.42.65-.59,1.06-.18.44-.33.93-.46,1.47l-1.09,5.37c-.03.19-.08.41-.16.61-.11.31-.32.58-.59.76-.27.19-.61.28-1.01.28-.59,0-1.05-.17-1.36-.49-.24-.25-.49-.69-.36-1.41l1.15-5.7-1.03-3.86c-.07-.25-.11-.5-.11-.73,0-.35.13-.68.36-.95.22-.25.53-.42.96-.53.25-.06.44-.08.62-.08.24,0,.45.04.63.13.35.16.61.43.74.78.07.18.12.35.16.51l.1.38c.23-.31.49-.58.78-.82.4-.33.86-.59,1.36-.78.5-.18,1.09-.27,1.74-.27,1.08,0,2.03.25,2.8.75.79.51,1.4,1.27,1.8,2.26.38.93.57,2.08.57,3.42v5.64c0,.35-.03.62-.1.83-.12.37-.38.66-.74.8-.23.09-.5.13-.88.13h-4.94Z" fill="#03072d"/><path d="m68.4,30.22c-.29,0-.56-.05-.8-.14-.3-.12-.55-.33-.73-.61-.17-.27-.25-.6-.25-1.01s.08-.76.25-1.03c.18-.29.44-.5.76-.61.22-.08.47-.12.75-.12h3.04v-3.7c0-.75-.09-1.38-.26-1.85-.14-.41-.34-.69-.61-.88-.26-.18-.62-.27-1.06-.27h-.71c-.27,0-.52-.04-.74-.11-.33-.11-.61-.33-.79-.64-.16-.27-.24-.6-.24-1,0-.43.09-.77.26-1.04.18-.27.43-.47.74-.58.24-.09.49-.14.76-.14h.69c1.17,0,2.18.25,2.99.75.84.51,1.47,1.27,1.88,2.26.39.93.58,2.08.58,3.44v5.49c0,.25-.03.49-.09.71-.1.35-.32.63-.64.83-.04.02-.07.04-.11.06v.18s-.83,0-.83,0h-4.84Z" fill="#03072d"/><path d="m82.81,30.22c-.42,0-.75-.09-1.01-.26-.28-.19-.48-.45-.59-.77-.08-.23-.11-.47-.11-.72v-10.23c0-.26.04-.5.12-.73.11-.32.32-.58.61-.76.27-.17.6-.25,1.01-.25.44,0,.78.09,1.05.28.29.2.49.46.58.77.07.21.1.45.1.71v10.23c0,.26-.04.5-.12.72-.11.32-.32.58-.61.76-.27.17-.61.25-1.03.25Z" fill="#03072d"/><path d="m96.44,30.36c-.3,0-.58-.09-.81-.27-.17-.13-.32-.28-.48-.47l-4.89-5.95-1.33,4.95c-.08.31-.16.57-.26.78-.22.48-.57.68-.82.76-.16.05-.32.08-.51.08-.17,0-.35-.02-.55-.06h-.06c-.45-.13-.77-.32-.98-.6-.22-.28-.32-.63-.31-1.01,0-.24.05-.5.12-.77l2.13-7.28-.64-.78c-.19-.24-.35-.46-.47-.66-.21-.35-.28-.73-.2-1.1.08-.37.31-.7.72-1.02.37-.28.71-.41,1.05-.41.05,0,.11,0,.16.01.33.04.64.2.92.46.18.17.36.38.55.63l3.89,4.72,1.08-4.22c.08-.25.16-.47.25-.67.16-.35.43-.62.78-.77.17-.07.36-.11.57-.11s.44.04.7.12c.46.14.77.36.97.67.19.3.26.66.2,1.03-.03.22-.09.46-.17.72l-1.36,5.11c-.1.36-.22.66-.36.91-.05.09-.1.17-.16.25l1.69,2.06c.17.19.31.41.39.64.12.32.11.66-.01,1-.12.3-.34.57-.66.8-.32.24-.63.38-.94.42-.07,0-.13.01-.2.01Z" fill="#03072d"/><path d="m100.98,30.22c-.42,0-.75-.09-1.01-.26-.28-.19-.48-.45-.59-.77-.08-.23-.11-.47-.11-.72v-10.23c0-.26.04-.5.12-.73.11-.32.32-.58.61-.76.27-.17.6-.25,1.01-.25.44,0,.78.09,1.05.28.29.2.49.46.58.77.07.21.1.45.1.71v10.23c0,.26-.04.5-.12.72-.11.32-.32.58-.61.76-.27.17-.61.25-1.03.25Z" fill="#03072d"/><path d="m105.7,30.22c-.27,0-.52-.04-.74-.12-.33-.11-.6-.32-.78-.61-.17-.27-.25-.6-.25-1.01s.08-.76.25-1.03c.19-.29.46-.51.78-.61.23-.08.47-.11.72-.11h5.41v-3.13c0-.65-.07-1.23-.2-1.71-.12-.44-.3-.8-.54-1.08-.22-.26-.49-.46-.83-.59-.37-.14-.82-.22-1.35-.22h-2.26c-.27,0-.52-.04-.74-.11-.33-.11-.61-.33-.79-.64-.16-.27-.24-.6-.24-1,0-.43.09-.77.26-1.04.17-.26.42-.46.71-.58.24-.09.5-.14.78-.14h2.22c1.03,0,1.96.15,2.76.45.83.31,1.53.78,2.09,1.41.55.61.96,1.37,1.24,2.26.26.85.39,1.84.39,2.95v3.17c.24,0,.47.05.68.12.32.11.58.32.76.61.17.27.25.6.25,1.03s-.08.74-.25,1.01c-.18.29-.44.5-.76.61-.23.08-.48.12-.77.12h-8.79Z" fill="#03072d"/><path d="m19.67,28.55c-.42,0-.71-.08-.85-.24-.15-.16-.22-.43-.22-.81,0-.23.03-.43.08-.59.05-.16.16-.29.31-.38.15-.09.37-.13.67-.13.43,0,.72.08.86.24.14.16.21.43.21.81,0,.23-.03.42-.08.58-.05.16-.16.28-.31.38-.15.09-.37.14-.67.14Zm0-4.03c-.27,0-.47-.03-.6-.09-.13-.06-.21-.16-.25-.28-.04-.13-.06-.29-.06-.48v-8.48c0-.18.02-.33.06-.46.04-.13.13-.23.25-.31.13-.07.32-.11.58-.11.27,0,.47.03.6.1.13.07.21.17.25.3.04.13.06.29.06.48v8.46c0,.18-.02.33-.06.47-.04.14-.12.24-.24.31s-.32.1-.59.1Z" fill="#fff"/><path d="m31.41,31.38c-.24,0-.43-.04-.57-.11-.14-.07-.23-.17-.27-.29s-.07-.25-.07-.39v-7.83c0-.73-.08-1.38-.23-1.93-.16-.56-.39-1.02-.71-1.39-.32-.37-.71-.65-1.18-.83-.47-.18-1.01-.27-1.64-.27h-2.83c-.18,0-.34-.02-.48-.07-.14-.05-.25-.14-.34-.27s-.12-.33-.12-.57c0-.26.04-.45.12-.57s.19-.21.34-.26c.14-.05.3-.08.46-.08h2.79c.92,0,1.74.13,2.44.4.7.26,1.29.66,1.76,1.18.47.52.82,1.17,1.06,1.94.24.77.36,1.68.36,2.71v7.73c0,.18-.02.33-.06.47-.04.14-.13.25-.25.34-.13.09-.32.13-.56.13Z" fill="#fff"/><path d="m35.91,22.78c-.24,0-.43-.04-.55-.13-.12-.09-.21-.2-.25-.34-.05-.14-.07-.28-.07-.45v-4.48c0-.16.02-.31.07-.45.05-.14.14-.24.26-.33.13-.08.32-.12.56-.12.26,0,.45.04.58.13.13.09.21.2.25.33.04.13.06.28.06.46v4.48c0,.16-.02.31-.07.45-.05.14-.14.24-.26.33-.13.08-.32.12-.58.12Z" fill="#fff"/><path d="m45.79,28.62c-.98,0-1.84-.16-2.6-.49-.76-.33-1.4-.78-1.92-1.35-.52-.58-.92-1.25-1.18-2.02s-.4-1.62-.4-2.54v-4.8c0-.16.02-.32.07-.46.05-.14.14-.25.27-.34.14-.08.33-.12.57-.12s.43.04.56.12c.13.08.22.19.27.34.05.14.08.3.08.48v4.78c0,.94.17,1.75.51,2.44.34.69.83,1.23,1.49,1.61.65.38,1.43.57,2.34.57.96,0,1.77-.2,2.42-.59.65-.39,1.14-.94,1.47-1.64s.5-1.5.5-2.41v-4.9c0-.14.03-.26.08-.39.05-.12.15-.22.27-.3.13-.07.32-.11.56-.11s.43.04.56.13c.13.09.22.2.26.34.05.14.07.29.07.47v4.82c0,.91-.14,1.75-.41,2.52-.27.77-.68,1.45-1.22,2.02-.54.58-1.2,1.02-1.97,1.34-.77.32-1.66.48-2.67.48Zm-3.8-2.48l-.31-1.24h.51c.37,0,.71-.13,1.02-.4.31-.26.6-.63.85-1.09.26-.46.46-.99.61-1.58.15-.59.23-1.2.24-1.84l.08-2.67c.01-.15.05-.29.1-.42.05-.13.15-.23.27-.31s.32-.11.56-.11c.26,0,.45.04.59.12.14.08.22.19.26.32.04.13.05.27.04.44l-.12,2.58c-.05.87-.19,1.68-.4,2.42-.21.75-.5,1.4-.87,1.97-.37.57-.81,1.01-1.3,1.32-.5.31-1.05.47-1.66.47h-.49Z" fill="#fff"/><path d="m65.45,21.98v5.64c0,.26-.02.45-.06.58-.04.13-.12.22-.24.26s-.31.07-.57.07h-4.94c-.16,0-.32-.03-.46-.08-.14-.05-.25-.15-.34-.27-.08-.13-.12-.32-.12-.56,0-.26.04-.45.12-.58.08-.13.19-.22.34-.26s.3-.07.48-.07h4.01v-4.66c0-.88-.11-1.61-.34-2.18-.22-.57-.55-.99-.98-1.26-.43-.27-.95-.41-1.56-.41-.45,0-.85.1-1.22.3-.37.2-.69.47-.96.82-.27.35-.51.77-.7,1.25-.2.48-.36,1.01-.5,1.6l-1.1,5.39c-.03.18-.07.34-.12.49-.05.15-.15.27-.27.36-.13.09-.31.13-.54.13-.35,0-.6-.08-.75-.23-.15-.16-.2-.38-.14-.68l1.44-7.16.65.43c.14-.5.3-.98.49-1.43.19-.45.4-.87.64-1.24.24-.37.52-.69.84-.97.33-.27.69-.48,1.11-.63.41-.15.9-.22,1.45-.22.92,0,1.71.21,2.35.62.64.41,1.14,1.04,1.48,1.87.34.83.51,1.87.51,3.1Zm-9.56.57l-1.3-4.86c-.05-.19-.08-.36-.08-.51s.05-.28.15-.4c.1-.12.28-.21.54-.27.31-.07.54-.07.69,0,.15.07.25.17.31.32.05.14.09.27.12.4l.96,3.72-1.38,1.61Z" fill="#fff"/><path d="m69.25,28.53c-.19,0-.35-.03-.49-.08-.14-.05-.24-.15-.33-.27-.08-.13-.12-.32-.12-.56,0-.26.04-.45.12-.58.08-.13.19-.22.33-.26.14-.05.29-.07.47-.07h4.88l-.02,1.83h-4.84Zm4.78,0c-.24,0-.43-.03-.56-.1-.13-.07-.22-.17-.27-.3-.05-.13-.08-.26-.08-.4v-5.57c0-.85-.1-1.57-.31-2.14-.2-.57-.51-1-.92-1.28-.41-.28-.92-.43-1.55-.43h-.71c-.18,0-.34-.02-.48-.07-.14-.05-.25-.14-.34-.27-.08-.14-.12-.33-.12-.57,0-.26.04-.45.12-.57.08-.12.19-.21.34-.26.14-.05.29-.08.46-.08h.69c1.02,0,1.87.21,2.55.63.69.42,1.2,1.04,1.55,1.87.35.83.52,1.87.52,3.11v5.49c0,.18-.02.34-.06.48s-.13.25-.26.34c-.14.08-.33.12-.57.12Z" fill="#fff"/><path d="m83.66,28.53c-.24,0-.43-.04-.55-.12-.12-.08-.21-.19-.25-.34s-.07-.3-.07-.46v-10.23c0-.16.02-.31.07-.45.05-.14.14-.24.26-.33.13-.08.32-.12.56-.12.26,0,.45.04.58.13.13.09.21.2.25.33.04.13.06.28.06.46v10.23c0,.16-.02.31-.07.45-.05.14-.14.24-.26.33-.13.08-.32.12-.58.12Z" fill="#fff"/><path d="m87.79,28.51c-.26-.07-.43-.16-.53-.28-.1-.12-.14-.27-.13-.46,0-.18.04-.38.09-.58l2.38-8.14,1.49.61-2.12,7.89c-.07.27-.14.49-.21.65-.07.16-.18.27-.33.32-.14.05-.36.04-.64-.01Zm10.15-.12c-.22.16-.4.25-.56.27-.16.02-.29-.01-.4-.09-.11-.08-.22-.19-.33-.33l-8.12-9.87c-.16-.2-.3-.39-.4-.56-.1-.17-.14-.34-.1-.5s.17-.34.42-.53c.23-.18.42-.25.58-.23.16.02.31.1.45.23.14.14.3.31.46.53l8.12,9.85c.12.14.21.27.25.4.05.13.04.26,0,.41-.05.14-.18.28-.37.42Zm-2.6-3.4l-.69-.59,1.75-6.84c.07-.22.14-.41.21-.57.07-.16.19-.28.35-.35.16-.07.38-.05.68.04.26.08.43.19.51.32.08.13.11.28.08.46-.03.18-.07.38-.14.61l-1.36,5.13c-.08.28-.18.53-.28.72-.11.2-.25.38-.43.54s-.4.34-.67.53Z" fill="#fff"/><path d="m101.83,28.53c-.24,0-.43-.04-.55-.12-.12-.08-.21-.19-.25-.34s-.07-.3-.07-.46v-10.23c0-.16.02-.31.07-.45.05-.14.14-.24.26-.33.13-.08.32-.12.56-.12.26,0,.45.04.58.13.13.09.21.2.25.33.04.13.06.28.06.46v10.23c0,.16-.02.31-.07.45-.05.14-.14.24-.26.33-.13.08-.32.12-.58.12Z" fill="#fff"/><path d="m106.55,28.53c-.18,0-.34-.02-.48-.07s-.25-.14-.34-.26c-.08-.13-.12-.32-.12-.56,0-.26.04-.45.12-.58.08-.13.19-.22.34-.26.14-.05.3-.07.46-.07h8.83c.18,0,.33.02.47.07.14.05.24.14.33.26.08.13.12.32.12.58,0,.24-.04.43-.12.56-.08.13-.19.22-.33.26-.14.05-.3.07-.49.07h-8.79Zm7.14,0c-.24,0-.43-.03-.56-.1-.13-.07-.22-.16-.27-.28-.05-.12-.08-.25-.08-.39v-5.01c0-.73-.08-1.38-.23-1.93-.16-.56-.39-1.02-.7-1.39-.31-.37-.7-.65-1.17-.83-.47-.18-1.02-.27-1.66-.27h-2.26c-.18,0-.34-.02-.48-.07-.14-.05-.25-.14-.34-.27-.08-.14-.12-.33-.12-.57,0-.26.04-.45.12-.57.08-.12.19-.21.33-.26.14-.05.29-.08.47-.08h2.22c.94,0,1.76.13,2.46.4.7.26,1.29.66,1.76,1.18.47.52.82,1.17,1.06,1.94s.36,1.68.36,2.71v4.9c0,.18-.02.33-.06.47-.04.14-.13.24-.26.33-.14.08-.33.12-.57.12Z" fill="#fff"/><g opacity=".63"><path d="m19.67,28.55c-.42,0-.71-.08-.85-.24-.15-.16-.22-.43-.22-.81,0-.23.03-.43.08-.59.05-.16.16-.29.31-.38.15-.09.37-.13.67-.13.43,0,.72.08.86.24.14.16.21.43.21.81,0,.23-.03.42-.08.58-.05.16-.16.28-.31.38-.15.09-.37.14-.67.14Zm0-4.03c-.27,0-.47-.03-.6-.09-.13-.06-.21-.16-.25-.28-.04-.13-.06-.29-.06-.48v-8.48c0-.18.02-.33.06-.46.04-.13.13-.23.25-.31.13-.07.32-.11.58-.11.27,0,.47.03.6.1.13.07.21.17.25.3.04.13.06.29.06.48v8.46c0,.18-.02.33-.06.47-.04.14-.12.24-.24.31s-.32.1-.59.1Z" fill="#cbe9f4"/><path d="m31.41,31.38c-.24,0-.43-.04-.57-.11-.14-.07-.23-.17-.27-.29s-.07-.25-.07-.39v-7.83c0-.73-.08-1.38-.23-1.93-.16-.56-.39-1.02-.71-1.39-.32-.37-.71-.65-1.18-.83-.47-.18-1.01-.27-1.64-.27h-2.83c-.18,0-.34-.02-.48-.07-.14-.05-.25-.14-.34-.27s-.12-.33-.12-.57c0-.26.04-.45.12-.57s.19-.21.34-.26c.14-.05.3-.08.46-.08h2.79c.92,0,1.74.13,2.44.4.7.26,1.29.66,1.76,1.18.47.52.82,1.17,1.06,1.94.24.77.36,1.68.36,2.71v7.73c0,.18-.02.33-.06.47-.04.14-.13.25-.25.34-.13.09-.32.13-.56.13Z" fill="#cbe9f4"/><path d="m35.91,22.78c-.24,0-.43-.04-.55-.13-.12-.09-.21-.2-.25-.34-.05-.14-.07-.28-.07-.45v-4.48c0-.16.02-.31.07-.45.05-.14.14-.24.26-.33.13-.08.32-.12.56-.12.26,0,.45.04.58.13.13.09.21.2.25.33.04.13.06.28.06.46v4.48c0,.16-.02.31-.07.45-.05.14-.14.24-.26.33-.13.08-.32.12-.58.12Z" fill="#cbe9f4"/><path d="m45.79,28.62c-.98,0-1.84-.16-2.6-.49-.76-.33-1.4-.78-1.92-1.35-.52-.58-.92-1.25-1.18-2.02s-.4-1.62-.4-2.54v-4.8c0-.16.02-.32.07-.46.05-.14.14-.25.27-.34.14-.08.33-.12.57-.12s.43.04.56.12c.13.08.22.19.27.34.05.14.08.3.08.48v4.78c0,.94.17,1.75.51,2.44.34.69.83,1.23,1.49,1.61.65.38,1.43.57,2.34.57.96,0,1.77-.2,2.42-.59.65-.39,1.14-.94,1.47-1.64s.5-1.5.5-2.41v-4.9c0-.14.03-.26.08-.39.05-.12.15-.22.27-.3.13-.07.32-.11.56-.11s.43.04.56.13c.13.09.22.2.26.34.05.14.07.29.07.47v4.82c0,.91-.14,1.75-.41,2.52-.27.77-.68,1.45-1.22,2.02-.54.58-1.2,1.02-1.97,1.34-.77.32-1.66.48-2.67.48Zm-3.8-2.48l-.31-1.24h.51c.37,0,.71-.13,1.02-.4.31-.26.6-.63.85-1.09.26-.46.46-.99.61-1.58.15-.59.23-1.2.24-1.84l.08-2.67c.01-.15.05-.29.1-.42.05-.13.15-.23.27-.31s.32-.11.56-.11c.26,0,.45.04.59.12.14.08.22.19.26.32.04.13.05.27.04.44l-.12,2.58c-.05.87-.19,1.68-.4,2.42-.21.75-.5,1.4-.87,1.97-.37.57-.81,1.01-1.3,1.32-.5.31-1.05.47-1.66.47h-.49Z" fill="#cbe9f4"/><path d="m65.45,21.98v5.64c0,.26-.02.45-.06.58-.04.13-.12.22-.24.26s-.31.07-.57.07h-4.94c-.16,0-.32-.03-.46-.08-.14-.05-.25-.15-.34-.27-.08-.13-.12-.32-.12-.56,0-.26.04-.45.12-.58.08-.13.19-.22.34-.26s.3-.07.48-.07h4.01v-4.66c0-.88-.11-1.61-.34-2.18-.22-.57-.55-.99-.98-1.26-.43-.27-.95-.41-1.56-.41-.45,0-.85.1-1.22.3-.37.2-.69.47-.96.82-.27.35-.51.77-.7,1.25-.2.48-.36,1.01-.5,1.6l-1.1,5.39c-.03.18-.07.34-.12.49-.05.15-.15.27-.27.36-.13.09-.31.13-.54.13-.35,0-.6-.08-.75-.23-.15-.16-.2-.38-.14-.68l1.44-7.16.65.43c.14-.5.3-.98.49-1.43.19-.45.4-.87.64-1.24.24-.37.52-.69.84-.97.33-.27.69-.48,1.11-.63.41-.15.9-.22,1.45-.22.92,0,1.71.21,2.35.62.64.41,1.14,1.04,1.48,1.87.34.83.51,1.87.51,3.1Zm-9.56.57l-1.3-4.86c-.05-.19-.08-.36-.08-.51s.05-.28.15-.4c.1-.12.28-.21.54-.27.31-.07.54-.07.69,0,.15.07.25.17.31.32.05.14.09.27.12.4l.96,3.72-1.38,1.61Z" fill="#cbe9f4"/><path d="m69.25,28.53c-.19,0-.35-.03-.49-.08-.14-.05-.24-.15-.33-.27-.08-.13-.12-.32-.12-.56,0-.26.04-.45.12-.58.08-.13.19-.22.33-.26.14-.05.29-.07.47-.07h4.88l-.02,1.83h-4.84Zm4.78,0c-.24,0-.43-.03-.56-.1-.13-.07-.22-.17-.27-.3-.05-.13-.08-.26-.08-.4v-5.57c0-.85-.1-1.57-.31-2.14-.2-.57-.51-1-.92-1.28-.41-.28-.92-.43-1.55-.43h-.71c-.18,0-.34-.02-.48-.07-.14-.05-.25-.14-.34-.27-.08-.14-.12-.33-.12-.57,0-.26.04-.45.12-.57.08-.12.19-.21.34-.26.14-.05.29-.08.46-.08h.69c1.02,0,1.87.21,2.55.63.69.42,1.2,1.04,1.55,1.87.35.83.52,1.87.52,3.11v5.49c0,.18-.02.34-.06.48s-.13.25-.26.34c-.14.08-.33.12-.57.12Z" fill="#cbe9f4"/><path d="m83.66,28.53c-.24,0-.43-.04-.55-.12-.12-.08-.21-.19-.25-.34s-.07-.3-.07-.46v-10.23c0-.16.02-.31.07-.45.05-.14.14-.24.26-.33.13-.08.32-.12.56-.12.26,0,.45.04.58.13.13.09.21.2.25.33.04.13.06.28.06.46v10.23c0,.16-.02.31-.07.45-.05.14-.14.24-.26.33-.13.08-.32.12-.58.12Z" fill="#cbe9f4"/><path d="m87.79,28.51c-.26-.07-.43-.16-.53-.28-.1-.12-.14-.27-.13-.46,0-.18.04-.38.09-.58l2.38-8.14,1.49.61-2.12,7.89c-.07.27-.14.49-.21.65-.07.16-.18.27-.33.32-.14.05-.36.04-.64-.01Zm10.15-.12c-.22.16-.4.25-.56.27-.16.02-.29-.01-.4-.09-.11-.08-.22-.19-.33-.33l-8.12-9.87c-.16-.2-.3-.39-.4-.56-.1-.17-.14-.34-.1-.5s.17-.34.42-.53c.23-.18.42-.25.58-.23.16.02.31.1.45.23.14.14.3.31.46.53l8.12,9.85c.12.14.21.27.25.4.05.13.04.26,0,.41-.05.14-.18.28-.37.42Zm-2.6-3.4l-.69-.59,1.75-6.84c.07-.22.14-.41.21-.57.07-.16.19-.28.35-.35.16-.07.38-.05.68.04.26.08.43.19.51.32.08.13.11.28.08.46-.03.18-.07.38-.14.61l-1.36,5.13c-.08.28-.18.53-.28.72-.11.2-.25.38-.43.54s-.4.34-.67.53Z" fill="#cbe9f4"/><path d="m101.83,28.53c-.24,0-.43-.04-.55-.12-.12-.08-.21-.19-.25-.34s-.07-.3-.07-.46v-10.23c0-.16.02-.31.07-.45.05-.14.14-.24.26-.33.13-.08.32-.12.56-.12.26,0,.45.04.58.13.13.09.21.2.25.33.04.13.06.28.06.46v10.23c0,.16-.02.31-.07.45-.05.14-.14.24-.26.33-.13.08-.32.12-.58.12Z" fill="#cbe9f4"/><path d="m106.55,28.53c-.18,0-.34-.02-.48-.07s-.25-.14-.34-.26c-.08-.13-.12-.32-.12-.56,0-.26.04-.45.12-.58.08-.13.19-.22.34-.26.14-.05.3-.07.46-.07h8.83c.18,0,.33.02.47.07.14.05.24.14.33.26.08.13.12.32.12.58,0,.24-.04.43-.12.56-.08.13-.19.22-.33.26-.14.05-.3.07-.49.07h-8.79Zm7.14,0c-.24,0-.43-.03-.56-.1-.13-.07-.22-.16-.27-.28-.05-.12-.08-.25-.08-.39v-5.01c0-.73-.08-1.38-.23-1.93-.16-.56-.39-1.02-.7-1.39-.31-.37-.7-.65-1.17-.83-.47-.18-1.02-.27-1.66-.27h-2.26c-.18,0-.34-.02-.48-.07-.14-.05-.25-.14-.34-.27-.08-.14-.12-.33-.12-.57,0-.26.04-.45.12-.57.08-.12.19-.21.33-.26.14-.05.29-.08.47-.08h2.22c.94,0,1.76.13,2.46.4.7.26,1.29.66,1.76,1.18.47.52.82,1.17,1.06,1.94s.36,1.68.36,2.71v4.9c0,.18-.02.33-.06.47-.04.14-.13.24-.26.33-.14.08-.33.12-.57.12Z" fill="#cbe9f4"/></g><path d="m19.67,28.13c-.42,0-.71-.08-.85-.24-.15-.16-.22-.43-.22-.81,0-.23.03-.43.08-.59.05-.16.16-.29.31-.38.15-.09.37-.13.67-.13.43,0,.72.08.86.24.14.16.21.43.21.81,0,.23-.03.42-.08.58-.05.16-.16.28-.31.38-.15.09-.37.14-.67.14Zm0-4.03c-.27,0-.47-.03-.6-.09-.13-.06-.21-.16-.25-.28-.04-.13-.06-.29-.06-.48v-8.48c0-.18.02-.33.06-.46.04-.13.13-.23.25-.31.13-.07.32-.11.58-.11.27,0,.47.03.6.1.13.07.21.17.25.3.04.13.06.29.06.48v8.46c0,.18-.02.33-.06.47-.04.14-.12.24-.24.31s-.32.1-.59.1Z" fill="#fff"/><path d="m31.41,30.96c-.24,0-.43-.04-.57-.11-.14-.07-.23-.17-.27-.29s-.07-.25-.07-.39v-7.83c0-.73-.08-1.38-.23-1.93-.16-.56-.39-1.02-.71-1.39-.32-.37-.71-.65-1.18-.83-.47-.18-1.01-.27-1.64-.27h-2.83c-.18,0-.34-.02-.48-.07-.14-.05-.25-.14-.34-.27s-.12-.33-.12-.57c0-.26.04-.45.12-.57s.19-.21.34-.26c.14-.05.3-.08.46-.08h2.79c.92,0,1.74.13,2.44.4.7.26,1.29.66,1.76,1.18.47.52.82,1.17,1.06,1.94.24.77.36,1.68.36,2.71v7.73c0,.18-.02.33-.06.47-.04.14-.13.25-.25.34-.13.09-.32.13-.56.13Z" fill="#fff"/><path d="m35.91,22.35c-.24,0-.43-.04-.55-.13-.12-.09-.21-.2-.25-.34-.05-.14-.07-.28-.07-.45v-4.48c0-.16.02-.31.07-.45.05-.14.14-.24.26-.33.13-.08.32-.12.56-.12.26,0,.45.04.58.13.13.09.21.2.25.33.04.13.06.28.06.46v4.48c0,.16-.02.31-.07.45-.05.14-.14.24-.26.33-.13.08-.32.12-.58.12Z" fill="#fff"/><path d="m45.79,28.19c-.98,0-1.84-.16-2.6-.49-.76-.33-1.4-.78-1.92-1.35-.52-.58-.92-1.25-1.18-2.02s-.4-1.62-.4-2.54v-4.8c0-.16.02-.32.07-.46.05-.14.14-.25.27-.34.14-.08.33-.12.57-.12s.43.04.56.12c.13.08.22.19.27.34.05.14.08.3.08.48v4.78c0,.94.17,1.75.51,2.44.34.69.83,1.23,1.49,1.61.65.38,1.43.57,2.34.57.96,0,1.77-.2,2.42-.59.65-.39,1.14-.94,1.47-1.64s.5-1.5.5-2.41v-4.9c0-.14.03-.26.08-.39.05-.12.15-.22.27-.3.13-.07.32-.11.56-.11s.43.04.56.13c.13.09.22.2.26.34.05.14.07.29.07.47v4.82c0,.91-.14,1.75-.41,2.52-.27.77-.68,1.45-1.22,2.02-.54.58-1.2,1.02-1.97,1.34-.77.32-1.66.48-2.67.48Zm-3.8-2.48l-.31-1.24h.51c.37,0,.71-.13,1.02-.4.31-.26.6-.63.85-1.09.26-.46.46-.99.61-1.58.15-.59.23-1.2.24-1.84l.08-2.67c.01-.15.05-.29.1-.42.05-.13.15-.23.27-.31s.32-.11.56-.11c.26,0,.45.04.59.12.14.08.22.19.26.32.04.13.05.27.04.44l-.12,2.58c-.05.87-.19,1.68-.4,2.42-.21.75-.5,1.4-.87,1.97-.37.57-.81,1.01-1.3,1.32-.5.31-1.05.47-1.66.47h-.49Z" fill="#fff"/><path d="m65.45,21.56v5.64c0,.26-.02.45-.06.58-.04.13-.12.22-.24.26s-.31.07-.57.07h-4.94c-.16,0-.32-.03-.46-.08-.14-.05-.25-.15-.34-.27-.08-.13-.12-.32-.12-.56,0-.26.04-.45.12-.58.08-.13.19-.22.34-.26s.3-.07.48-.07h4.01v-4.66c0-.88-.11-1.61-.34-2.18-.22-.57-.55-.99-.98-1.26-.43-.27-.95-.41-1.56-.41-.45,0-.85.1-1.22.3-.37.2-.69.47-.96.82-.27.35-.51.77-.7,1.25-.2.48-.36,1.01-.5,1.6l-1.1,5.39c-.03.18-.07.34-.12.49-.05.15-.15.27-.27.36-.13.09-.31.13-.54.13-.35,0-.6-.08-.75-.23-.15-.16-.2-.38-.14-.68l1.44-7.16.65.43c.14-.5.3-.98.49-1.43.19-.45.4-.87.64-1.24.24-.37.52-.69.84-.97.33-.27.69-.48,1.11-.63.41-.15.9-.22,1.45-.22.92,0,1.71.21,2.35.62.64.41,1.14,1.04,1.48,1.87.34.83.51,1.87.51,3.1Zm-9.56.57l-1.3-4.86c-.05-.19-.08-.36-.08-.51s.05-.28.15-.4c.1-.12.28-.21.54-.27.31-.07.54-.07.69,0,.15.07.25.17.31.32.05.14.09.27.12.4l.96,3.72-1.38,1.61Z" fill="#fff"/><path d="m69.25,28.11c-.19,0-.35-.03-.49-.08-.14-.05-.24-.15-.33-.27-.08-.13-.12-.32-.12-.56,0-.26.04-.45.12-.58.08-.13.19-.22.33-.26.14-.05.29-.07.47-.07h4.88l-.02,1.83h-4.84Zm4.78,0c-.24,0-.43-.03-.56-.1-.13-.07-.22-.17-.27-.3-.05-.13-.08-.26-.08-.4v-5.57c0-.85-.1-1.57-.31-2.14-.2-.57-.51-1-.92-1.28-.41-.28-.92-.43-1.55-.43h-.71c-.18,0-.34-.02-.48-.07-.14-.05-.25-.14-.34-.27-.08-.14-.12-.33-.12-.57,0-.26.04-.45.12-.57.08-.12.19-.21.34-.26.14-.05.29-.08.46-.08h.69c1.02,0,1.87.21,2.55.63.69.42,1.2,1.04,1.55,1.87.35.83.52,1.87.52,3.11v5.49c0,.18-.02.34-.06.48s-.13.25-.26.34c-.14.08-.33.12-.57.12Z" fill="#fff"/><path d="m83.66,28.11c-.24,0-.43-.04-.55-.12-.12-.08-.21-.19-.25-.34s-.07-.3-.07-.46v-10.23c0-.16.02-.31.07-.45.05-.14.14-.24.26-.33.13-.08.32-.12.56-.12.26,0,.45.04.58.13.13.09.21.2.25.33.04.13.06.28.06.46v10.23c0,.16-.02.31-.07.45-.05.14-.14.24-.26.33-.13.08-.32.12-.58.12Z" fill="#fff"/><path d="m87.79,28.09c-.26-.07-.43-.16-.53-.28-.1-.12-.14-.27-.13-.46,0-.18.04-.38.09-.58l2.38-8.14,1.49.61-2.12,7.89c-.07.27-.14.49-.21.65-.07.16-.18.27-.33.32-.14.05-.36.04-.64-.01Zm10.15-.12c-.22.16-.4.25-.56.27-.16.02-.29-.01-.4-.09-.11-.08-.22-.19-.33-.33l-8.12-9.87c-.16-.2-.3-.39-.4-.56-.1-.17-.14-.34-.1-.5s.17-.34.42-.53c.23-.18.42-.25.58-.23.16.02.31.1.45.23.14.14.3.31.46.53l8.12,9.85c.12.14.21.27.25.4.05.13.04.26,0,.41-.05.14-.18.28-.37.42Zm-2.6-3.4l-.69-.59,1.75-6.84c.07-.22.14-.41.21-.57.07-.16.19-.28.35-.35.16-.07.38-.05.68.04.26.08.43.19.51.32.08.13.11.28.08.46-.03.18-.07.38-.14.61l-1.36,5.13c-.08.28-.18.53-.28.72-.11.2-.25.38-.43.54s-.4.34-.67.53Z" fill="#fff"/><path d="m101.83,28.11c-.24,0-.43-.04-.55-.12-.12-.08-.21-.19-.25-.34s-.07-.3-.07-.46v-10.23c0-.16.02-.31.07-.45.05-.14.14-.24.26-.33.13-.08.32-.12.56-.12.26,0,.45.04.58.13.13.09.21.2.25.33.04.13.06.28.06.46v10.23c0,.16-.02.31-.07.45-.05.14-.14.24-.26.33-.13.08-.32.12-.58.12Z" fill="#fff"/><path d="m106.55,28.11c-.18,0-.34-.02-.48-.07s-.25-.14-.34-.26c-.08-.13-.12-.32-.12-.56,0-.26.04-.45.12-.58.08-.13.19-.22.34-.26.14-.05.3-.07.46-.07h8.83c.18,0,.33.02.47.07.14.05.24.14.33.26.08.13.12.32.12.58,0,.24-.04.43-.12.56-.08.13-.19.22-.33.26-.14.05-.3.07-.49.07h-8.79Zm7.14,0c-.24,0-.43-.03-.56-.1-.13-.07-.22-.16-.27-.28-.05-.12-.08-.25-.08-.39v-5.01c0-.73-.08-1.38-.23-1.93-.16-.56-.39-1.02-.7-1.39-.31-.37-.7-.65-1.17-.83-.47-.18-1.02-.27-1.66-.27h-2.26c-.18,0-.34-.02-.48-.07-.14-.05-.25-.14-.34-.27-.08-.14-.12-.33-.12-.57,0-.26.04-.45.12-.57.08-.12.19-.21.33-.26.14-.05.29-.08.47-.08h2.22c.94,0,1.76.13,2.46.4.7.26,1.29.66,1.76,1.18.47.52.82,1.17,1.06,1.94s.36,1.68.36,2.71v4.9c0,.18-.02.33-.06.47-.04.14-.13.24-.26.33-.14.08-.33.12-.57.12Z" fill="#fff"/></g></svg>