<svg viewBox="0 0 84 89" fill="none" xmlns="http://www.w3.org/2000/svg">
<path d="M44.3116 84.045C43.4449 84.0684 42.5783 84.1035 41.7117 84.1035C42.5783 84.1035 43.4449 84.0801 44.3116 84.045Z" fill="#14C197"/>
<path d="M41.7254 84.1035C40.8588 84.1035 39.9921 84.0684 39.1255 84.045C39.9921 84.0801 40.8588 84.1035 41.7254 84.1035Z" fill="#14C197"/>
<path d="M41.7249 88.0144C41.0815 88.0144 40.425 87.9867 39.7685 87.9728L38.9937 87.9451C33.0718 87.6678 27.1235 86.4892 21.2803 84.4649C13.5857 81.7889 7.4142 75.7297 4.34159 67.8404C4.10524 67.2303 3.88202 66.6064 3.67192 65.9686C1.42656 58.8418 0.28418 51.618 0.28418 44.4912C0.28418 37.3644 1.34777 30.6259 3.4487 23.7209C6.25869 14.4866 13.1786 7.22122 21.9631 4.28178C28.5285 2.07719 35.1727 0.954102 41.7118 0.954102C48.251 0.954102 55.3678 2.14652 62.1565 4.50362C70.442 7.38761 77.0205 14.2925 79.7648 22.9999C82.0102 30.1267 83.1526 37.3644 83.1526 44.4773C83.1526 51.5902 82.0102 58.8279 79.7648 65.9547C79.5548 66.6341 79.3053 67.2996 79.0427 67.9652C75.9569 75.7852 69.7986 81.7889 62.1565 84.451C56.3133 86.4754 50.3781 87.6539 44.5087 87.9312L43.6552 87.9589C43.0118 87.9867 42.3552 88.0005 41.7118 88.0005L41.7249 88.0144Z" fill="#892E60"/>
<path d="M41.7251 85.6572C41.0949 85.6572 40.4777 85.6295 39.8474 85.6156L39.0727 85.5879C33.374 85.3106 27.6358 84.1875 21.9764 82.2186C14.8989 79.7645 9.22643 74.1906 6.40331 66.9391C6.18009 66.3706 5.97 65.8021 5.78617 65.2198C3.61959 58.3287 2.5166 51.3545 2.5166 44.4773C2.5166 37.6001 3.5408 31.0972 5.57608 24.428C8.16284 15.9286 14.5444 9.23164 22.6461 6.51404C28.9883 4.37879 35.4092 3.31116 41.7251 3.31116C48.041 3.31116 54.9084 4.46198 61.4738 6.74975C69.0897 9.39803 75.143 15.7483 77.6641 23.7486C79.8307 30.6397 80.9337 37.6139 80.9337 44.4911C80.9337 51.3683 79.8307 58.3426 77.6641 65.2336C77.4671 65.8576 77.2439 66.4676 77.0076 67.0777C74.1713 74.2738 68.5119 79.7922 61.487 82.2325C55.8407 84.2014 50.1026 85.3245 44.4432 85.6018L43.6291 85.6295C42.9988 85.6572 42.3817 85.6711 41.7514 85.6711L41.7251 85.6572Z" fill="#F8D68D"/>
<path d="M75.5366 25.1615C73.2256 17.8234 67.7369 12.0558 60.7645 9.62366C54.4223 7.4139 48.0407 6.30206 41.7117 6.30206C35.3827 6.30206 29.4476 7.34441 23.3155 9.4013C15.8703 11.9029 10.0796 17.9902 7.70296 25.8286C5.74648 32.2912 4.74854 38.7676 4.74854 45.2023C4.74854 51.8594 5.81213 58.5721 7.91306 65.2431C8.08376 65.7712 8.26759 66.2993 8.46455 66.8136C11.0251 73.4012 16.2117 78.5295 22.6721 80.781C28.1476 82.685 33.6494 83.7829 39.1249 84.0331C39.9916 84.0609 40.8582 84.1026 41.7248 84.1026C42.5915 84.1026 43.4581 84.0609 44.3247 84.0331C49.8003 83.769 55.3021 82.685 60.7776 80.781C67.1986 78.5434 72.359 73.4568 74.9457 66.9247C75.169 66.3688 75.3659 65.8129 75.5497 65.2431C77.6507 58.5721 78.7143 51.8594 78.7143 45.2023C78.7143 38.5452 77.6507 31.8325 75.5497 25.1615H75.5366Z" fill="url(#paint0_linear_2264_13837)"/>
<path d="M28.5612 11.7468C28.5612 13.0814 25.8431 12.9088 21.8645 15.2789C15.7455 18.926 17.3475 21.9864 15.0627 21.3881C13.6577 21.02 15.4435 16.8091 19.1727 14.1398C22.9018 11.4706 28.548 10.4582 28.5612 11.7352V11.7468Z" fill="white"/>
<path d="M13.9606 25.6566C14.751 25.6566 15.3918 25.0951 15.3918 24.4025C15.3918 23.7099 14.751 23.1484 13.9606 23.1484C13.1701 23.1484 12.5293 23.7099 12.5293 24.4025C12.5293 25.0951 13.1701 25.6566 13.9606 25.6566Z" fill="white"/>
<path opacity="0.18" d="M59.1438 9.05182C53.1094 7.22248 47.0375 6.30206 41.0156 6.30206C34.9937 6.30206 28.7271 7.53588 23.0297 9.46947C17.4967 11.475 12.5297 15.279 9.0236 22.4734C8.47389 24.0381 7.58481 25.8746 7.19751 27.4393C13.3318 22.5151 38.8418 4.1966 70.0881 16.3922C67.402 12.9981 63.5915 10.4094 59.1438 9.06332V9.05182Z" fill="white"/>
<path opacity="0.13" d="M8.46455 69.7786C11.0251 75.232 16.2117 79.4775 22.6721 81.3413C28.1476 82.9176 33.6494 83.8265 39.1249 84.0336C39.9916 84.0566 40.8582 84.0911 41.7248 84.0911C42.5915 84.0911 43.4581 84.0566 44.3247 84.0336C49.8003 83.815 55.3021 82.9176 60.7776 81.3413C67.1986 79.489 72.359 75.2781 74.9457 69.8706C75.1689 69.4104 75.3659 68.9502 75.5497 68.4785C77.6113 63.0365 78.6617 57.583 78.7011 52.164C78.5961 54.8102 76.7184 76.0604 44.3247 79.1093C9.75137 82.3538 4.74854 51.8994 4.74854 51.8994C4.74854 57.4104 5.81213 62.9675 7.91305 68.49C8.08375 68.9272 8.26759 69.3644 8.46455 69.7901V69.7786Z" fill="#44393E"/>
<path d="M18.7115 53.3702C18.1615 53.3702 17.7782 53.2619 17.5615 53.0452C17.3449 52.8119 17.2365 52.4119 17.2365 51.8452V37.3452C17.2365 36.7952 17.3449 36.4119 17.5615 36.1952C17.7782 35.9785 18.1699 35.8702 18.7365 35.8702C19.2865 35.8702 19.6699 35.9869 19.8865 36.2202C20.1032 36.4369 20.2115 36.8285 20.2115 37.3952V51.8702C20.2115 52.4202 20.1032 52.8119 19.8865 53.0452C19.6699 53.2619 19.2782 53.3702 18.7115 53.3702ZM14.8615 42.3952C14.4782 42.7452 14.1365 42.9202 13.8365 42.9202C13.5365 42.9035 13.2032 42.6952 12.8365 42.2952C12.4865 41.9119 12.3199 41.5535 12.3365 41.2202C12.3699 40.8869 12.6032 40.5285 13.0365 40.1452L17.3115 36.3702C17.6949 36.0369 18.0365 35.8869 18.3365 35.9202C18.6532 35.9369 18.9865 36.1369 19.3365 36.5202C19.7032 36.9035 19.8699 37.2619 19.8365 37.5952C19.8032 37.9285 19.5615 38.2869 19.1115 38.6702L14.8615 42.3952ZM31.3289 53.3202C30.8622 53.3202 30.5206 53.2535 30.3039 53.1202C30.1039 52.9869 29.9706 52.8035 29.9039 52.5702C29.8539 52.3369 29.8289 52.0785 29.8289 51.7952V47.9952H22.5289C22.0622 47.9952 21.7206 47.9285 21.5039 47.7952C21.2872 47.6452 21.1456 47.4535 21.0789 47.2202C21.0289 46.9869 21.0039 46.7369 21.0039 46.4702C21.0039 46.3369 21.0122 46.2285 21.0289 46.1452C21.0456 46.0452 21.0622 45.9452 21.0789 45.8452L23.5539 36.9702C23.7039 36.3369 23.9122 35.9619 24.1789 35.8452C24.4456 35.7285 24.8539 35.7285 25.4039 35.8452C25.8372 35.9452 26.1622 36.1119 26.3789 36.3452C26.6122 36.5619 26.6872 36.8452 26.6039 37.1952L24.3789 45.1702H29.8289V37.2452C29.8289 36.9785 29.8539 36.7452 29.9039 36.5452C29.9706 36.3452 30.1122 36.1785 30.3289 36.0452C30.5622 35.9119 30.9122 35.8452 31.3789 35.8452C31.8456 35.8452 32.1872 35.9202 32.4039 36.0702C32.6206 36.2035 32.7539 36.3869 32.8039 36.6202C32.8539 36.8369 32.8789 37.0869 32.8789 37.3702V51.8452C32.8789 52.1119 32.8456 52.3619 32.7789 52.5952C32.7289 52.8285 32.5956 53.0035 32.3789 53.1202C32.1622 53.2535 31.8122 53.3202 31.3289 53.3202ZM39.702 48.0952C39.4853 48.0952 39.2686 48.0702 39.052 48.0202C38.852 47.9702 38.6853 47.8452 38.552 47.6452C38.4353 47.4452 38.377 47.1202 38.377 46.6702C38.377 46.2369 38.4353 45.9285 38.552 45.7452C38.6853 45.5452 38.852 45.4202 39.052 45.3702C39.2686 45.3035 39.477 45.2702 39.677 45.2702H45.902C46.1186 45.2702 46.327 45.3035 46.527 45.3702C46.727 45.4202 46.8853 45.5452 47.002 45.7452C47.1353 45.9285 47.202 46.2452 47.202 46.6952C47.202 47.1285 47.1353 47.4452 47.002 47.6452C46.8853 47.8452 46.727 47.9702 46.527 48.0202C46.327 48.0702 46.1103 48.0952 45.877 48.0952H39.702ZM54.7262 53.3702C54.1762 53.3702 53.7928 53.2619 53.5762 53.0452C53.3595 52.8119 53.2512 52.4119 53.2512 51.8452V37.3452C53.2512 36.7952 53.3595 36.4119 53.5762 36.1952C53.7928 35.9785 54.1845 35.8702 54.7512 35.8702C55.3012 35.8702 55.6845 35.9869 55.9012 36.2202C56.1178 36.4369 56.2262 36.8285 56.2262 37.3952V51.8702C56.2262 52.4202 56.1178 52.8119 55.9012 53.0452C55.6845 53.2619 55.2928 53.3702 54.7262 53.3702ZM50.8762 42.3952C50.4928 42.7452 50.1512 42.9202 49.8512 42.9202C49.5512 42.9035 49.2178 42.6952 48.8512 42.2952C48.5012 41.9119 48.3345 41.5535 48.3512 41.2202C48.3845 40.8869 48.6178 40.5285 49.0512 40.1452L53.3262 36.3702C53.7095 36.0369 54.0512 35.8869 54.3512 35.9202C54.6678 35.9369 55.0012 36.1369 55.3512 36.5202C55.7178 36.9035 55.8845 37.2619 55.8512 37.5952C55.8178 37.9285 55.5762 38.2869 55.1262 38.6702L50.8762 42.3952ZM63.0936 53.4952C61.8436 53.4952 60.7769 53.2285 59.8936 52.6952C59.0102 52.1452 58.3269 51.3452 57.8436 50.2952C57.3769 49.2452 57.1436 47.9785 57.1436 46.4952C57.1436 45.2119 57.2852 44.0202 57.5686 42.9202C57.8686 41.8202 58.2936 40.8369 58.8436 39.9702C59.4102 39.0869 60.0852 38.3369 60.8686 37.7202C61.6686 37.1035 62.5602 36.6285 63.5436 36.2952C64.5269 35.9619 65.5936 35.7952 66.7436 35.7952C67.0102 35.7952 67.2436 35.8285 67.4436 35.8952C67.6602 35.9452 67.8352 36.0785 67.9686 36.2952C68.1019 36.5119 68.1686 36.8535 68.1686 37.3202C68.1686 37.7869 68.0936 38.1285 67.9436 38.3452C67.8102 38.5619 67.6269 38.6952 67.3936 38.7452C67.1769 38.7952 66.9269 38.8202 66.6436 38.8202C65.8102 38.8202 65.0686 38.9285 64.4186 39.1452C63.7686 39.3619 63.1936 39.6535 62.6936 40.0202C62.1936 40.3869 61.7769 40.8119 61.4436 41.2952C61.1102 41.7619 60.8602 42.2619 60.6936 42.7952C60.5269 43.3119 60.4352 43.8285 60.4186 44.3452L60.0686 44.4952C60.1686 44.2119 60.3686 43.9452 60.6686 43.6952C60.9686 43.4452 61.3436 43.2452 61.7936 43.0952C62.2602 42.9285 62.7602 42.8452 63.2936 42.8452C64.3436 42.8452 65.2686 43.0702 66.0686 43.5202C66.8852 43.9702 67.5269 44.5869 67.9936 45.3702C68.4602 46.1369 68.6936 47.0035 68.6936 47.9702C68.6936 49.0369 68.4519 49.9869 67.9686 50.8202C67.5019 51.6535 66.8436 52.3119 65.9936 52.7952C65.1602 53.2619 64.1936 53.4952 63.0936 53.4952ZM62.9936 50.6702C63.5769 50.6702 64.0686 50.5702 64.4686 50.3702C64.8852 50.1535 65.1936 49.8535 65.3936 49.4702C65.6102 49.0869 65.7186 48.6285 65.7186 48.0952C65.7186 47.5952 65.6186 47.1619 65.4186 46.7952C65.2186 46.4119 64.9186 46.1202 64.5186 45.9202C64.1352 45.7035 63.6769 45.5952 63.1436 45.5952C62.5602 45.5952 62.0519 45.7035 61.6186 45.9202C61.1852 46.1202 60.8519 46.4035 60.6186 46.7702C60.4019 47.1369 60.2936 47.5619 60.2936 48.0452C60.2936 48.5785 60.3936 49.0452 60.5936 49.4452C60.8102 49.8452 61.1186 50.1535 61.5186 50.3702C61.9186 50.5702 62.4102 50.6702 62.9936 50.6702Z" fill="#491735"/>
<path d="M19.458 53.3702C18.908 53.3702 18.5247 53.2619 18.308 53.0452C18.0913 52.8119 17.983 52.4119 17.983 51.8452V37.3452C17.983 36.7952 18.0913 36.4119 18.308 36.1952C18.5247 35.9785 18.9163 35.8702 19.483 35.8702C20.033 35.8702 20.4163 35.9869 20.633 36.2202C20.8497 36.4369 20.958 36.8285 20.958 37.3952V51.8702C20.958 52.4202 20.8497 52.8119 20.633 53.0452C20.4163 53.2619 20.0247 53.3702 19.458 53.3702ZM15.608 42.3952C15.2247 42.7452 14.883 42.9202 14.583 42.9202C14.283 42.9035 13.9497 42.6952 13.583 42.2952C13.233 41.9119 13.0663 41.5535 13.083 41.2202C13.1163 40.8869 13.3497 40.5285 13.783 40.1452L18.058 36.3702C18.4413 36.0369 18.783 35.8869 19.083 35.9202C19.3997 35.9369 19.733 36.1369 20.083 36.5202C20.4497 36.9035 20.6163 37.2619 20.583 37.5952C20.5497 37.9285 20.308 38.2869 19.858 38.6702L15.608 42.3952ZM32.0754 53.3202C31.6087 53.3202 31.267 53.2535 31.0504 53.1202C30.8504 52.9869 30.717 52.8035 30.6504 52.5702C30.6004 52.3369 30.5754 52.0785 30.5754 51.7952V47.9952H23.2754C22.8087 47.9952 22.467 47.9285 22.2504 47.7952C22.0337 47.6452 21.892 47.4535 21.8254 47.2202C21.7754 46.9869 21.7504 46.7369 21.7504 46.4702C21.7504 46.3369 21.7587 46.2285 21.7754 46.1452C21.792 46.0452 21.8087 45.9452 21.8254 45.8452L24.3004 36.9702C24.4504 36.3369 24.6587 35.9619 24.9254 35.8452C25.192 35.7285 25.6004 35.7285 26.1504 35.8452C26.5837 35.9452 26.9087 36.1119 27.1254 36.3452C27.3587 36.5619 27.4337 36.8452 27.3504 37.1952L25.1254 45.1702H30.5754V37.2452C30.5754 36.9785 30.6004 36.7452 30.6504 36.5452C30.717 36.3452 30.8587 36.1785 31.0754 36.0452C31.3087 35.9119 31.6587 35.8452 32.1254 35.8452C32.592 35.8452 32.9337 35.9202 33.1504 36.0702C33.367 36.2035 33.5004 36.3869 33.5504 36.6202C33.6004 36.8369 33.6254 37.0869 33.6254 37.3702V51.8452C33.6254 52.1119 33.592 52.3619 33.5254 52.5952C33.4754 52.8285 33.342 53.0035 33.1254 53.1202C32.9087 53.2535 32.5587 53.3202 32.0754 53.3202ZM40.4484 48.0952C40.2317 48.0952 40.0151 48.0702 39.7984 48.0202C39.5984 47.9702 39.4317 47.8452 39.2984 47.6452C39.1817 47.4452 39.1234 47.1202 39.1234 46.6702C39.1234 46.2369 39.1817 45.9285 39.2984 45.7452C39.4317 45.5452 39.5984 45.4202 39.7984 45.3702C40.0151 45.3035 40.2234 45.2702 40.4234 45.2702H46.6484C46.8651 45.2702 47.0734 45.3035 47.2734 45.3702C47.4734 45.4202 47.6317 45.5452 47.7484 45.7452C47.8817 45.9285 47.9484 46.2452 47.9484 46.6952C47.9484 47.1285 47.8817 47.4452 47.7484 47.6452C47.6317 47.8452 47.4734 47.9702 47.2734 48.0202C47.0734 48.0702 46.8567 48.0952 46.6234 48.0952H40.4484ZM55.4726 53.3702C54.9226 53.3702 54.5393 53.2619 54.3226 53.0452C54.106 52.8119 53.9976 52.4119 53.9976 51.8452V37.3452C53.9976 36.7952 54.106 36.4119 54.3226 36.1952C54.5393 35.9785 54.931 35.8702 55.4976 35.8702C56.0476 35.8702 56.431 35.9869 56.6476 36.2202C56.8643 36.4369 56.9726 36.8285 56.9726 37.3952V51.8702C56.9726 52.4202 56.8643 52.8119 56.6476 53.0452C56.431 53.2619 56.0393 53.3702 55.4726 53.3702ZM51.6226 42.3952C51.2393 42.7452 50.8976 42.9202 50.5976 42.9202C50.2976 42.9035 49.9643 42.6952 49.5976 42.2952C49.2476 41.9119 49.081 41.5535 49.0976 41.2202C49.131 40.8869 49.3643 40.5285 49.7976 40.1452L54.0726 36.3702C54.456 36.0369 54.7976 35.8869 55.0976 35.9202C55.4143 35.9369 55.7476 36.1369 56.0976 36.5202C56.4643 36.9035 56.631 37.2619 56.5976 37.5952C56.5643 37.9285 56.3226 38.2869 55.8726 38.6702L51.6226 42.3952ZM63.84 53.4952C62.59 53.4952 61.5233 53.2285 60.64 52.6952C59.7567 52.1452 59.0733 51.3452 58.59 50.2952C58.1233 49.2452 57.89 47.9785 57.89 46.4952C57.89 45.2119 58.0317 44.0202 58.315 42.9202C58.615 41.8202 59.04 40.8369 59.59 39.9702C60.1567 39.0869 60.8317 38.3369 61.615 37.7202C62.415 37.1035 63.3067 36.6285 64.29 36.2952C65.2733 35.9619 66.34 35.7952 67.49 35.7952C67.7567 35.7952 67.99 35.8285 68.19 35.8952C68.4067 35.9452 68.5817 36.0785 68.715 36.2952C68.8483 36.5119 68.915 36.8535 68.915 37.3202C68.915 37.7869 68.84 38.1285 68.69 38.3452C68.5567 38.5619 68.3733 38.6952 68.14 38.7452C67.9233 38.7952 67.6733 38.8202 67.39 38.8202C66.5567 38.8202 65.815 38.9285 65.165 39.1452C64.515 39.3619 63.94 39.6535 63.44 40.0202C62.94 40.3869 62.5233 40.8119 62.19 41.2952C61.8567 41.7619 61.6067 42.2619 61.44 42.7952C61.2733 43.3119 61.1817 43.8285 61.165 44.3452L60.815 44.4952C60.915 44.2119 61.115 43.9452 61.415 43.6952C61.715 43.4452 62.09 43.2452 62.54 43.0952C63.0067 42.9285 63.5067 42.8452 64.04 42.8452C65.09 42.8452 66.015 43.0702 66.815 43.5202C67.6317 43.9702 68.2733 44.5869 68.74 45.3702C69.2067 46.1369 69.44 47.0035 69.44 47.9702C69.44 49.0369 69.1983 49.9869 68.715 50.8202C68.2483 51.6535 67.59 52.3119 66.74 52.7952C65.9067 53.2619 64.94 53.4952 63.84 53.4952ZM63.74 50.6702C64.3233 50.6702 64.815 50.5702 65.215 50.3702C65.6317 50.1535 65.94 49.8535 66.14 49.4702C66.3567 49.0869 66.465 48.6285 66.465 48.0952C66.465 47.5952 66.365 47.1619 66.165 46.7952C65.965 46.4119 65.665 46.1202 65.265 45.9202C64.8817 45.7035 64.4233 45.5952 63.89 45.5952C63.3067 45.5952 62.7983 45.7035 62.365 45.9202C61.9317 46.1202 61.5983 46.4035 61.365 46.7702C61.1483 47.1369 61.04 47.5619 61.04 48.0452C61.04 48.5785 61.14 49.0452 61.34 49.4452C61.5567 49.8452 61.865 50.1535 62.265 50.3702C62.665 50.5702 63.1567 50.6702 63.74 50.6702Z" fill="#892E60"/>
<defs>
<linearGradient id="paint0_linear_2264_13837" x1="39.5451" y1="-21.2297" x2="44.3398" y2="109.461" gradientUnits="userSpaceOnUse">
<stop offset="0.23" stop-color="#FFDA40"/>
<stop offset="0.95" stop-color="#E93C83"/>
</linearGradient>
</defs>
</svg>
