<svg viewBox="0 0 84 89" fill="none" xmlns="http://www.w3.org/2000/svg">
<path d="M44.3182 84.045C43.4515 84.0684 42.5849 84.1035 41.7183 84.1035C42.5849 84.1035 43.4515 84.0801 44.3182 84.045Z" fill="#14C197"/>
<path d="M41.732 84.1035C40.8653 84.1035 39.9987 84.0684 39.1321 84.045C39.9987 84.0801 40.8653 84.1035 41.732 84.1035Z" fill="#14C197"/>
<path d="M41.7315 88.0144C41.0881 88.0144 40.4316 87.9867 39.7751 87.9728L39.0003 87.9451C33.0784 87.6678 27.1301 86.4892 21.2869 84.4649C13.5923 81.7889 7.42079 75.7297 4.34819 67.8404C4.11183 67.2303 3.88861 66.6064 3.67851 65.9686C1.43315 58.8418 0.290771 51.618 0.290771 44.4912C0.290771 37.3644 1.35437 30.6259 3.45529 23.7209C6.26528 14.4866 13.1852 7.22122 21.9697 4.28178C28.5351 2.07719 35.1793 0.954102 41.7184 0.954102C48.2575 0.954102 55.3744 2.14652 62.163 4.50362C70.4486 7.38761 77.0271 14.2925 79.7714 22.9999C82.0168 30.1267 83.1592 37.3644 83.1592 44.4773C83.1592 51.5902 82.0168 58.8279 79.7714 65.9547C79.5613 66.6341 79.3119 67.2996 79.0492 67.9652C75.9635 75.7852 69.8052 81.7889 62.163 84.451C56.3198 86.4754 50.3847 87.6539 44.5153 87.9312L43.6618 87.9589C43.0184 87.9867 42.3618 88.0005 41.7184 88.0005L41.7315 88.0144Z" fill="#892E60"/>
<path d="M41.7317 85.6572C41.1014 85.6572 40.4843 85.6295 39.854 85.6156L39.0793 85.5879C33.3805 85.3106 27.6424 84.1875 21.983 82.2186C14.9055 79.7645 9.23303 74.1906 6.40991 66.9391C6.18668 66.3706 5.97659 65.8021 5.79276 65.2198C3.62618 58.3287 2.52319 51.3545 2.52319 44.4773C2.52319 37.6001 3.5474 31.0972 5.58267 24.428C8.16943 15.9286 14.551 9.23164 22.6527 6.51404C28.9949 4.37879 35.4158 3.31116 41.7317 3.31116C48.0476 3.31116 54.915 4.46198 61.4804 6.74975C69.0963 9.39803 75.1496 15.7483 77.6707 23.7486C79.8373 30.6397 80.9403 37.6139 80.9403 44.4911C80.9403 51.3683 79.8373 58.3426 77.6707 65.2336C77.4737 65.8576 77.2505 66.4676 77.0142 67.0777C74.1779 74.2738 68.5185 79.7922 61.4936 82.2325C55.8473 84.2014 50.1092 85.3245 44.4498 85.6018L43.6357 85.6295C43.0054 85.6572 42.3883 85.6711 41.758 85.6711L41.7317 85.6572Z" fill="#F8D68D"/>
<path d="M75.5432 25.1615C73.2322 17.8234 67.7435 12.0558 60.7711 9.62366C54.4289 7.4139 48.0473 6.30206 41.7183 6.30206C35.3893 6.30206 29.4541 7.34441 23.3221 9.4013C15.8769 11.9029 10.0862 17.9902 7.70955 25.8286C5.75307 32.2912 4.75513 38.7676 4.75513 45.2023C4.75513 51.8594 5.81872 58.5721 7.91965 65.2431C8.09035 65.7712 8.27418 66.2993 8.47114 66.8136C11.0316 73.4012 16.2183 78.5295 22.6787 80.781C28.1542 82.685 33.656 83.7829 39.1315 84.0331C39.9982 84.0609 40.8648 84.1026 41.7314 84.1026C42.5981 84.1026 43.4647 84.0609 44.3313 84.0331C49.8069 83.769 55.3087 82.685 60.7842 80.781C67.2052 78.5434 72.3656 73.4568 74.9523 66.9247C75.1755 66.3688 75.3725 65.8129 75.5563 65.2431C77.6573 58.5721 78.7209 51.8594 78.7209 45.2023C78.7209 38.5452 77.6573 31.8325 75.5563 25.1615H75.5432Z" fill="url(#paint0_linear_2264_13836)"/>
<path d="M28.5678 11.7468C28.5678 13.0814 25.8497 12.9088 21.8711 15.2789C15.7521 18.926 17.3541 21.9864 15.0693 21.3881C13.6643 21.02 15.4501 16.8091 19.1793 14.1398C22.9084 11.4706 28.5546 10.4582 28.5678 11.7352V11.7468Z" fill="white"/>
<path d="M13.9669 25.6566C14.7574 25.6566 15.3982 25.0951 15.3982 24.4025C15.3982 23.7099 14.7574 23.1484 13.9669 23.1484C13.1764 23.1484 12.5356 23.7099 12.5356 24.4025C12.5356 25.0951 13.1764 25.6566 13.9669 25.6566Z" fill="white"/>
<path opacity="0.18" d="M59.1504 9.05182C53.116 7.22248 47.0441 6.30206 41.0222 6.30206C35.0003 6.30206 28.7337 7.53588 23.0363 9.46947C17.5033 11.475 12.5363 15.279 9.03019 22.4734C8.48048 24.0381 7.5914 25.8746 7.2041 27.4393C13.3384 22.5151 38.8483 4.1966 70.0947 16.3922C67.4086 12.9981 63.5981 10.4094 59.1504 9.06332V9.05182Z" fill="white"/>
<path opacity="0.13" d="M8.47114 69.7786C11.0316 75.232 16.2183 79.4775 22.6786 81.3413C28.1542 82.9176 33.656 83.8265 39.1315 84.0336C39.9982 84.0566 40.8648 84.0911 41.7314 84.0911C42.5981 84.0911 43.4647 84.0566 44.3313 84.0336C49.8069 83.815 55.3087 82.9176 60.7842 81.3413C67.2051 79.489 72.3655 75.2781 74.9523 69.8706C75.1755 69.4104 75.3725 68.9502 75.5563 68.4785C77.6179 63.0365 78.6683 57.583 78.7077 52.164C78.6027 54.8102 76.725 76.0604 44.3313 79.1093C9.75796 82.3538 4.75513 51.8994 4.75513 51.8994C4.75513 57.4104 5.81872 62.9675 7.91965 68.49C8.09035 68.9272 8.27418 69.3644 8.47114 69.7901V69.7786Z" fill="#44393E"/>
<path d="M19.0909 53.3702C18.5409 53.3702 18.1576 53.2619 17.9409 53.0452C17.7243 52.8119 17.6159 52.4119 17.6159 51.8452V37.3452C17.6159 36.7952 17.7243 36.4119 17.9409 36.1952C18.1576 35.9785 18.5493 35.8702 19.1159 35.8702C19.6659 35.8702 20.0493 35.9869 20.2659 36.2202C20.4826 36.4369 20.5909 36.8285 20.5909 37.3952V51.8702C20.5909 52.4202 20.4826 52.8119 20.2659 53.0452C20.0493 53.2619 19.6576 53.3702 19.0909 53.3702ZM15.2409 42.3952C14.8576 42.7452 14.5159 42.9202 14.2159 42.9202C13.9159 42.9035 13.5826 42.6952 13.2159 42.2952C12.8659 41.9119 12.6993 41.5535 12.7159 41.2202C12.7493 40.8869 12.9826 40.5285 13.4159 40.1452L17.6909 36.3702C18.0743 36.0369 18.4159 35.8869 18.7159 35.9202C19.0326 35.9369 19.3659 36.1369 19.7159 36.5202C20.0826 36.9035 20.2493 37.2619 20.2159 37.5952C20.1826 37.9285 19.9409 38.2869 19.4909 38.6702L15.2409 42.3952ZM27.8583 53.4952C26.975 53.4952 26.1583 53.3619 25.4083 53.0952C24.6583 52.8119 23.9916 52.4369 23.4083 51.9702C22.825 51.4869 22.3666 50.9369 22.0333 50.3202C21.7166 49.7035 21.5416 49.0619 21.5083 48.3952C21.5083 47.6619 22.05 47.2952 23.1333 47.2952C23.4666 47.2952 23.7166 47.3285 23.8833 47.3952C24.05 47.4619 24.1833 47.5869 24.2833 47.7702C24.3833 47.9535 24.4833 48.2035 24.5833 48.5202C24.7 48.8535 24.8916 49.1785 25.1583 49.4952C25.4416 49.8119 25.8083 50.0785 26.2583 50.2952C26.7083 50.4952 27.25 50.5952 27.8833 50.5952C28.5666 50.5952 29.1583 50.4869 29.6583 50.2702C30.1583 50.0369 30.5416 49.7202 30.8083 49.3202C31.0916 48.9202 31.2333 48.4619 31.2333 47.9452C31.2333 47.4285 31.0916 46.9869 30.8083 46.6202C30.5416 46.2369 30.175 45.9452 29.7083 45.7452C29.2416 45.5285 28.7083 45.4202 28.1083 45.4202C27.7916 45.4202 27.5083 45.3952 27.2583 45.3452C27.025 45.2952 26.8333 45.1702 26.6833 44.9702C26.55 44.7702 26.4833 44.4369 26.4833 43.9702C26.4833 43.4869 26.55 43.1535 26.6833 42.9702C26.8333 42.7702 27.0333 42.6452 27.2833 42.5952C27.5333 42.5452 27.8166 42.5202 28.1333 42.5202C28.7 42.5202 29.1666 42.4452 29.5333 42.2952C29.9166 42.1452 30.2083 41.9369 30.4083 41.6702C30.6083 41.4035 30.7083 41.1035 30.7083 40.7702C30.7083 40.3202 30.6 39.9285 30.3833 39.5952C30.1666 39.2452 29.8583 38.9785 29.4583 38.7952C29.075 38.5952 28.6166 38.4952 28.0833 38.4952C27.6 38.4952 27.1833 38.5619 26.8333 38.6952C26.4833 38.8119 26.175 38.9869 25.9083 39.2202C25.6583 39.4535 25.425 39.7369 25.2083 40.0702C24.9583 40.5535 24.6666 40.8369 24.3333 40.9202C24.0166 41.0035 23.6 40.8952 23.0833 40.5952C22.6666 40.3452 22.4166 40.0785 22.3333 39.7952C22.25 39.4952 22.3083 39.1535 22.5083 38.7702C22.5583 38.6535 22.65 38.4785 22.7833 38.2452C22.9333 37.9952 23.1416 37.7285 23.4083 37.4452C23.6916 37.1452 24.0333 36.8619 24.4333 36.5952C24.8333 36.3119 25.325 36.0785 25.9083 35.8952C26.4916 35.7119 27.1666 35.6202 27.9333 35.6202C28.8666 35.6202 29.6916 35.7702 30.4083 36.0702C31.125 36.3535 31.7333 36.7369 32.2333 37.2202C32.7333 37.6869 33.1083 38.2202 33.3583 38.8202C33.625 39.4035 33.7583 40.0119 33.7583 40.6452C33.7583 41.2119 33.65 41.7202 33.4333 42.1702C33.2166 42.6202 32.95 42.9952 32.6333 43.2952C32.3166 43.5952 32 43.8202 31.6833 43.9702C32.0333 44.1202 32.3583 44.3285 32.6583 44.5952C32.975 44.8619 33.25 45.1785 33.4833 45.5452C33.7333 45.8952 33.925 46.2702 34.0583 46.6702C34.1916 47.0702 34.2583 47.4785 34.2583 47.8952C34.2583 48.9619 33.9833 49.9202 33.4333 50.7702C32.9 51.6202 32.15 52.2869 31.1833 52.7702C30.2166 53.2535 29.1083 53.4952 27.8583 53.4952ZM40.9114 48.0952C40.6948 48.0952 40.4781 48.0702 40.2614 48.0202C40.0614 47.9702 39.8948 47.8452 39.7614 47.6452C39.6448 47.4452 39.5864 47.1202 39.5864 46.6702C39.5864 46.2369 39.6448 45.9285 39.7614 45.7452C39.8948 45.5452 40.0614 45.4202 40.2614 45.3702C40.4781 45.3035 40.6864 45.2702 40.8864 45.2702H47.1114C47.3281 45.2702 47.5364 45.3035 47.7364 45.3702C47.9364 45.4202 48.0948 45.5452 48.2114 45.7452C48.3448 45.9285 48.4114 46.2452 48.4114 46.6952C48.4114 47.1285 48.3448 47.4452 48.2114 47.6452C48.0948 47.8452 47.9364 47.9702 47.7364 48.0202C47.5364 48.0702 47.3198 48.0952 47.0864 48.0952H40.9114ZM55.9356 53.3702C55.3856 53.3702 55.0023 53.2619 54.7856 53.0452C54.569 52.8119 54.4606 52.4119 54.4606 51.8452V37.3452C54.4606 36.7952 54.569 36.4119 54.7856 36.1952C55.0023 35.9785 55.394 35.8702 55.9606 35.8702C56.5106 35.8702 56.894 35.9869 57.1106 36.2202C57.3273 36.4369 57.4356 36.8285 57.4356 37.3952V51.8702C57.4356 52.4202 57.3273 52.8119 57.1106 53.0452C56.894 53.2619 56.5023 53.3702 55.9356 53.3702ZM52.0856 42.3952C51.7023 42.7452 51.3606 42.9202 51.0606 42.9202C50.7606 42.9035 50.4273 42.6952 50.0606 42.2952C49.7106 41.9119 49.544 41.5535 49.5606 41.2202C49.594 40.8869 49.8273 40.5285 50.2606 40.1452L54.5356 36.3702C54.919 36.0369 55.2606 35.8869 55.5606 35.9202C55.8773 35.9369 56.2106 36.1369 56.5606 36.5202C56.9273 36.9035 57.094 37.2619 57.0606 37.5952C57.0273 37.9285 56.7856 38.2869 56.3356 38.6702L52.0856 42.3952ZM64.628 53.3702C64.078 53.3702 63.6947 53.2619 63.478 53.0452C63.2614 52.8119 63.153 52.4119 63.153 51.8452V37.3452C63.153 36.7952 63.2614 36.4119 63.478 36.1952C63.6947 35.9785 64.0864 35.8702 64.653 35.8702C65.203 35.8702 65.5864 35.9869 65.803 36.2202C66.0197 36.4369 66.128 36.8285 66.128 37.3952V51.8702C66.128 52.4202 66.0197 52.8119 65.803 53.0452C65.5864 53.2619 65.1947 53.3702 64.628 53.3702ZM60.778 42.3952C60.3947 42.7452 60.053 42.9202 59.753 42.9202C59.453 42.9035 59.1197 42.6952 58.753 42.2952C58.403 41.9119 58.2364 41.5535 58.253 41.2202C58.2864 40.8869 58.5197 40.5285 58.953 40.1452L63.228 36.3702C63.6114 36.0369 63.953 35.8869 64.253 35.9202C64.5697 35.9369 64.903 36.1369 65.253 36.5202C65.6197 36.9035 65.7864 37.2619 65.753 37.5952C65.7197 37.9285 65.478 38.2869 65.028 38.6702L60.778 42.3952Z" fill="#491735"/>
<path d="M19.6655 53.3702C19.1155 53.3702 18.7322 53.2619 18.5155 53.0452C18.2988 52.8119 18.1905 52.4119 18.1905 51.8452V37.3452C18.1905 36.7952 18.2988 36.4119 18.5155 36.1952C18.7322 35.9785 19.1238 35.8702 19.6905 35.8702C20.2405 35.8702 20.6238 35.9869 20.8405 36.2202C21.0572 36.4369 21.1655 36.8285 21.1655 37.3952V51.8702C21.1655 52.4202 21.0572 52.8119 20.8405 53.0452C20.6238 53.2619 20.2322 53.3702 19.6655 53.3702ZM15.8155 42.3952C15.4322 42.7452 15.0905 42.9202 14.7905 42.9202C14.4905 42.9035 14.1572 42.6952 13.7905 42.2952C13.4405 41.9119 13.2738 41.5535 13.2905 41.2202C13.3238 40.8869 13.5572 40.5285 13.9905 40.1452L18.2655 36.3702C18.6488 36.0369 18.9905 35.8869 19.2905 35.9202C19.6072 35.9369 19.9405 36.1369 20.2905 36.5202C20.6572 36.9035 20.8238 37.2619 20.7905 37.5952C20.7572 37.9285 20.5155 38.2869 20.0655 38.6702L15.8155 42.3952ZM28.4329 53.4952C27.5496 53.4952 26.7329 53.3619 25.9829 53.0952C25.2329 52.8119 24.5662 52.4369 23.9829 51.9702C23.3996 51.4869 22.9412 50.9369 22.6079 50.3202C22.2912 49.7035 22.1162 49.0619 22.0829 48.3952C22.0829 47.6619 22.6246 47.2952 23.7079 47.2952C24.0412 47.2952 24.2912 47.3285 24.4579 47.3952C24.6246 47.4619 24.7579 47.5869 24.8579 47.7702C24.9579 47.9535 25.0579 48.2035 25.1579 48.5202C25.2746 48.8535 25.4662 49.1785 25.7329 49.4952C26.0162 49.8119 26.3829 50.0785 26.8329 50.2952C27.2829 50.4952 27.8246 50.5952 28.4579 50.5952C29.1412 50.5952 29.7329 50.4869 30.2329 50.2702C30.7329 50.0369 31.1162 49.7202 31.3829 49.3202C31.6662 48.9202 31.8079 48.4619 31.8079 47.9452C31.8079 47.4285 31.6662 46.9869 31.3829 46.6202C31.1162 46.2369 30.7496 45.9452 30.2829 45.7452C29.8162 45.5285 29.2829 45.4202 28.6829 45.4202C28.3662 45.4202 28.0829 45.3952 27.8329 45.3452C27.5996 45.2952 27.4079 45.1702 27.2579 44.9702C27.1246 44.7702 27.0579 44.4369 27.0579 43.9702C27.0579 43.4869 27.1246 43.1535 27.2579 42.9702C27.4079 42.7702 27.6079 42.6452 27.8579 42.5952C28.1079 42.5452 28.3912 42.5202 28.7079 42.5202C29.2746 42.5202 29.7412 42.4452 30.1079 42.2952C30.4912 42.1452 30.7829 41.9369 30.9829 41.6702C31.1829 41.4035 31.2829 41.1035 31.2829 40.7702C31.2829 40.3202 31.1746 39.9285 30.9579 39.5952C30.7412 39.2452 30.4329 38.9785 30.0329 38.7952C29.6496 38.5952 29.1912 38.4952 28.6579 38.4952C28.1746 38.4952 27.7579 38.5619 27.4079 38.6952C27.0579 38.8119 26.7496 38.9869 26.4829 39.2202C26.2329 39.4535 25.9996 39.7369 25.7829 40.0702C25.5329 40.5535 25.2412 40.8369 24.9079 40.9202C24.5912 41.0035 24.1746 40.8952 23.6579 40.5952C23.2412 40.3452 22.9912 40.0785 22.9079 39.7952C22.8246 39.4952 22.8829 39.1535 23.0829 38.7702C23.1329 38.6535 23.2246 38.4785 23.3579 38.2452C23.5079 37.9952 23.7162 37.7285 23.9829 37.4452C24.2662 37.1452 24.6079 36.8619 25.0079 36.5952C25.4079 36.3119 25.8996 36.0785 26.4829 35.8952C27.0662 35.7119 27.7412 35.6202 28.5079 35.6202C29.4412 35.6202 30.2662 35.7702 30.9829 36.0702C31.6996 36.3535 32.3079 36.7369 32.8079 37.2202C33.3079 37.6869 33.6829 38.2202 33.9329 38.8202C34.1996 39.4035 34.3329 40.0119 34.3329 40.6452C34.3329 41.2119 34.2246 41.7202 34.0079 42.1702C33.7912 42.6202 33.5246 42.9952 33.2079 43.2952C32.8912 43.5952 32.5746 43.8202 32.2579 43.9702C32.6079 44.1202 32.9329 44.3285 33.2329 44.5952C33.5496 44.8619 33.8246 45.1785 34.0579 45.5452C34.3079 45.8952 34.4996 46.2702 34.6329 46.6702C34.7662 47.0702 34.8329 47.4785 34.8329 47.8952C34.8329 48.9619 34.5579 49.9202 34.0079 50.7702C33.4746 51.6202 32.7246 52.2869 31.7579 52.7702C30.7912 53.2535 29.6829 53.4952 28.4329 53.4952ZM41.486 48.0952C41.2693 48.0952 41.0527 48.0702 40.836 48.0202C40.636 47.9702 40.4693 47.8452 40.336 47.6452C40.2193 47.4452 40.161 47.1202 40.161 46.6702C40.161 46.2369 40.2193 45.9285 40.336 45.7452C40.4693 45.5452 40.636 45.4202 40.836 45.3702C41.0527 45.3035 41.261 45.2702 41.461 45.2702H47.686C47.9027 45.2702 48.111 45.3035 48.311 45.3702C48.511 45.4202 48.6693 45.5452 48.786 45.7452C48.9193 45.9285 48.986 46.2452 48.986 46.6952C48.986 47.1285 48.9193 47.4452 48.786 47.6452C48.6693 47.8452 48.511 47.9702 48.311 48.0202C48.111 48.0702 47.8943 48.0952 47.661 48.0952H41.486ZM56.5102 53.3702C55.9602 53.3702 55.5769 53.2619 55.3602 53.0452C55.1436 52.8119 55.0352 52.4119 55.0352 51.8452V37.3452C55.0352 36.7952 55.1436 36.4119 55.3602 36.1952C55.5769 35.9785 55.9686 35.8702 56.5352 35.8702C57.0852 35.8702 57.4686 35.9869 57.6852 36.2202C57.9019 36.4369 58.0102 36.8285 58.0102 37.3952V51.8702C58.0102 52.4202 57.9019 52.8119 57.6852 53.0452C57.4686 53.2619 57.0769 53.3702 56.5102 53.3702ZM52.6602 42.3952C52.2769 42.7452 51.9352 42.9202 51.6352 42.9202C51.3352 42.9035 51.0019 42.6952 50.6352 42.2952C50.2852 41.9119 50.1186 41.5535 50.1352 41.2202C50.1686 40.8869 50.4019 40.5285 50.8352 40.1452L55.1102 36.3702C55.4936 36.0369 55.8352 35.8869 56.1352 35.9202C56.4519 35.9369 56.7852 36.1369 57.1352 36.5202C57.5019 36.9035 57.6686 37.2619 57.6352 37.5952C57.6019 37.9285 57.3602 38.2869 56.9102 38.6702L52.6602 42.3952ZM65.2026 53.3702C64.6526 53.3702 64.2693 53.2619 64.0526 53.0452C63.8359 52.8119 63.7276 52.4119 63.7276 51.8452V37.3452C63.7276 36.7952 63.8359 36.4119 64.0526 36.1952C64.2693 35.9785 64.6609 35.8702 65.2276 35.8702C65.7776 35.8702 66.1609 35.9869 66.3776 36.2202C66.5943 36.4369 66.7026 36.8285 66.7026 37.3952V51.8702C66.7026 52.4202 66.5943 52.8119 66.3776 53.0452C66.1609 53.2619 65.7693 53.3702 65.2026 53.3702ZM61.3526 42.3952C60.9693 42.7452 60.6276 42.9202 60.3276 42.9202C60.0276 42.9035 59.6943 42.6952 59.3276 42.2952C58.9776 41.9119 58.8109 41.5535 58.8276 41.2202C58.8609 40.8869 59.0943 40.5285 59.5276 40.1452L63.8026 36.3702C64.1859 36.0369 64.5276 35.8869 64.8276 35.9202C65.1443 35.9369 65.4776 36.1369 65.8276 36.5202C66.1943 36.9035 66.3609 37.2619 66.3276 37.5952C66.2943 37.9285 66.0526 38.2869 65.6026 38.6702L61.3526 42.3952Z" fill="#892E60"/>
<defs>
<linearGradient id="paint0_linear_2264_13836" x1="39.5517" y1="-21.2297" x2="44.3464" y2="109.461" gradientUnits="userSpaceOnUse">
<stop offset="0.23" stop-color="#FFDA40"/>
<stop offset="0.95" stop-color="#E93C83"/>
</linearGradient>
</defs>
</svg>
