<svg viewBox="0 0 84 89" fill="none" xmlns="http://www.w3.org/2000/svg">
<path d="M44.3682 84.045C43.5016 84.0684 42.6349 84.1035 41.7683 84.1035C42.6349 84.1035 43.5016 84.0801 44.3682 84.045Z" fill="#14C197"/>
<path d="M41.782 84.1035C40.9154 84.1035 40.0488 84.0684 39.1821 84.045C40.0488 84.0801 40.9154 84.1035 41.782 84.1035Z" fill="#14C197"/>
<path d="M41.7816 88.0144C41.1382 88.0144 40.4816 87.9867 39.8251 87.9728L39.0504 87.9451C33.1284 87.6678 27.1802 86.4892 21.337 84.4649C13.6423 81.7889 7.47084 75.7297 4.39823 67.8404C4.16188 67.2303 3.93866 66.6064 3.72856 65.9686C1.4832 58.8418 0.34082 51.618 0.34082 44.4912C0.34082 37.3644 1.40441 30.6259 3.50534 23.7209C6.31533 14.4866 13.2353 7.22122 22.0198 4.28178C28.5851 2.07719 35.2293 0.954102 41.7685 0.954102C48.3076 0.954102 55.4245 2.14652 62.2131 4.50362C70.4986 7.38761 77.0771 14.2925 79.8215 22.9999C82.0668 30.1267 83.2092 37.3644 83.2092 44.4773C83.2092 51.5902 82.0668 58.8279 79.8215 65.9547C79.6114 66.6341 79.3619 67.2996 79.0993 67.9652C76.0136 75.7852 69.8552 81.7889 62.2131 84.451C56.3699 86.4754 50.4348 87.6539 44.5653 87.9312L43.7118 87.9589C43.0684 87.9867 42.4119 88.0005 41.7685 88.0005L41.7816 88.0144Z" fill="#892E60"/>
<path d="M41.7818 85.6572C41.1515 85.6572 40.5344 85.6295 39.9041 85.6156L39.1294 85.5879C33.4306 85.3106 27.6924 84.1875 22.0331 82.2186C14.9556 79.7645 9.28308 74.1906 6.45996 66.9391C6.23673 66.3706 6.02664 65.8021 5.84281 65.2198C3.67623 58.3287 2.57324 51.3545 2.57324 44.4773C2.57324 37.6001 3.59744 31.0972 5.63272 24.428C8.21948 15.9286 14.601 9.23164 22.7027 6.51404C29.0449 4.37879 35.4659 3.31116 41.7818 3.31116C48.0977 3.31116 54.9651 4.46198 61.5305 6.74975C69.1463 9.39803 75.1996 15.7483 77.7207 23.7486C79.8873 30.6397 80.9903 37.6139 80.9903 44.4911C80.9903 51.3683 79.8873 58.3426 77.7207 65.2336C77.5238 65.8576 77.3006 66.4676 77.0642 67.0777C74.228 74.2738 68.5686 79.7922 61.5436 82.2325C55.8974 84.2014 50.1592 85.3245 44.4999 85.6018L43.6857 85.6295C43.0555 85.6572 42.4383 85.6711 41.808 85.6711L41.7818 85.6572Z" fill="#F8D68D"/>
<path d="M75.5933 25.1615C73.2822 17.8234 67.7936 12.0558 60.8211 9.62366C54.4789 7.4139 48.0974 6.30206 41.7683 6.30206C35.4393 6.30206 29.5042 7.34441 23.3721 9.4013C15.927 11.9029 10.1363 17.9902 7.7596 25.8286C5.80312 32.2912 4.80518 38.7676 4.80518 45.2023C4.80518 51.8594 5.86877 58.5721 7.9697 65.2431C8.1404 65.7712 8.32423 66.2993 8.52119 66.8136C11.0817 73.4012 16.2684 78.5295 22.7287 80.781C28.2042 82.685 33.706 83.7829 39.1816 84.0331C40.0482 84.0609 40.9148 84.1026 41.7815 84.1026C42.6481 84.1026 43.5147 84.0609 44.3814 84.0331C49.8569 83.769 55.3587 82.685 60.8342 80.781C67.2552 78.5434 72.4156 73.4568 75.0024 66.9247C75.2256 66.3688 75.4226 65.8129 75.6064 65.2431C77.7073 58.5721 78.7709 51.8594 78.7709 45.2023C78.7709 38.5452 77.7073 31.8325 75.6064 25.1615H75.5933Z" fill="url(#paint0_linear_2264_13835)"/>
<path d="M28.6178 11.7468C28.6178 13.0814 25.8997 12.9088 21.9211 15.2789C15.8022 18.926 17.4041 21.9864 15.1194 21.3881C13.7144 21.02 15.5002 16.8091 19.2293 14.1398C22.9584 11.4706 28.6047 10.4582 28.6178 11.7352V11.7468Z" fill="white"/>
<path d="M14.0172 25.6566C14.8077 25.6566 15.4484 25.0951 15.4484 24.4025C15.4484 23.7099 14.8077 23.1484 14.0172 23.1484C13.2267 23.1484 12.5859 23.7099 12.5859 24.4025C12.5859 25.0951 13.2267 25.6566 14.0172 25.6566Z" fill="white"/>
<path opacity="0.18" d="M59.2004 9.05182C53.166 7.22248 47.0942 6.30206 41.0723 6.30206C35.0504 6.30206 28.7838 7.53588 23.0864 9.46947C17.5533 11.475 12.5863 15.279 9.08024 22.4734C8.53053 24.0381 7.64145 25.8746 7.25415 27.4393C13.3885 22.5151 38.8984 4.1966 70.1448 16.3922C67.4586 12.9981 63.6481 10.4094 59.2004 9.06332V9.05182Z" fill="white"/>
<path opacity="0.13" d="M8.52119 69.7786C11.0817 75.232 16.2684 79.4775 22.7287 81.3413C28.2042 82.9176 33.706 83.8265 39.1816 84.0336C40.0482 84.0566 40.9148 84.0911 41.7815 84.0911C42.6481 84.0911 43.5147 84.0566 44.3814 84.0336C49.8569 83.815 55.3587 82.9176 60.8342 81.3413C67.2552 79.489 72.4156 75.2781 75.0024 69.8706C75.2256 69.4104 75.4225 68.9502 75.6064 68.4785C77.6679 63.0365 78.7184 57.583 78.7578 52.164C78.6527 54.8102 76.775 76.0604 44.3814 79.1093C9.80801 82.3538 4.80518 51.8994 4.80518 51.8994C4.80518 57.4104 5.86877 62.9675 7.9697 68.49C8.1404 68.9272 8.32423 69.3644 8.52119 69.7901V69.7786Z" fill="#44393E"/>
<path d="M24.5847 53.5202C23.9513 53.5202 23.3763 53.4619 22.8597 53.3452C22.3597 53.2285 21.9097 53.0785 21.5097 52.8952C21.1263 52.7119 20.8013 52.5369 20.5347 52.3702C20.268 52.1869 20.0513 52.0285 19.8847 51.8952C19.6847 51.7285 19.5097 51.5702 19.3597 51.4202C19.2263 51.2535 19.1597 51.0619 19.1597 50.8452C19.1597 50.6785 19.2013 50.5119 19.2847 50.3452C19.3847 50.1619 19.543 49.9535 19.7597 49.7202C19.943 49.4869 20.118 49.3202 20.2847 49.2202C20.468 49.1202 20.643 49.0702 20.8097 49.0702C20.9597 49.0702 21.118 49.1119 21.2847 49.1952C21.468 49.2785 21.693 49.4285 21.9597 49.6452C22.093 49.7619 22.2513 49.8869 22.4347 50.0202C22.6347 50.1369 22.893 50.2452 23.2097 50.3452C23.5263 50.4285 23.9347 50.4702 24.4347 50.4702C25.0013 50.4702 25.493 50.3619 25.9097 50.1452C26.3263 49.9285 26.643 49.6202 26.8597 49.2202C27.093 48.8202 27.2097 48.3369 27.2097 47.7702C27.2097 47.2369 27.093 46.7702 26.8597 46.3702C26.6263 45.9535 26.3013 45.6285 25.8847 45.3952C25.4847 45.1619 25.0263 45.0452 24.5097 45.0452C24.2597 45.0452 24.018 45.0785 23.7847 45.1452C23.5513 45.2119 23.343 45.2952 23.1597 45.3952C22.993 45.4952 22.8513 45.6035 22.7347 45.7202C22.6013 45.8369 22.468 45.9369 22.3347 46.0202C22.218 46.1035 22.0597 46.1535 21.8597 46.1702C21.6763 46.2035 21.4847 46.2035 21.2847 46.1702C21.1013 46.1202 20.868 46.0369 20.5847 45.9202C20.218 45.7369 19.9513 45.5702 19.7847 45.4202C19.618 45.2702 19.5347 45.0785 19.5347 44.8452L20.5597 37.3702C20.593 37.1702 20.643 36.9535 20.7097 36.7202C20.793 36.4702 20.9347 36.2619 21.1347 36.0952C21.3513 35.9119 21.668 35.8285 22.0847 35.8452H28.3347C28.6013 35.8452 28.843 35.8785 29.0597 35.9452C29.2763 35.9952 29.4513 36.1285 29.5847 36.3452C29.718 36.5619 29.7847 36.9119 29.7847 37.3952C29.7847 37.8452 29.718 38.1702 29.5847 38.3702C29.468 38.5702 29.3013 38.6952 29.0847 38.7452C28.8847 38.7952 28.6513 38.8202 28.3847 38.8202H23.4347L22.8847 42.5702C23.0513 42.4535 23.2263 42.3619 23.4097 42.2952C23.593 42.2119 23.7763 42.1535 23.9597 42.1202C24.1597 42.0702 24.3513 42.0452 24.5347 42.0452H24.7097C25.443 42.0452 26.143 42.1952 26.8097 42.4952C27.4763 42.7785 28.068 43.1785 28.5847 43.6952C29.1013 44.2119 29.5097 44.8035 29.8097 45.4702C30.1097 46.1369 30.2597 46.8452 30.2597 47.5952C30.2597 48.7285 30.0097 49.7452 29.5097 50.6452C29.0097 51.5285 28.3347 52.2285 27.4847 52.7452C26.6347 53.2619 25.668 53.5202 24.5847 53.5202ZM36.9056 48.0952C36.6889 48.0952 36.4722 48.0702 36.2556 48.0202C36.0556 47.9702 35.8889 47.8452 35.7556 47.6452C35.6389 47.4452 35.5806 47.1202 35.5806 46.6702C35.5806 46.2369 35.6389 45.9285 35.7556 45.7452C35.8889 45.5452 36.0556 45.4202 36.2556 45.3702C36.4722 45.3035 36.6806 45.2702 36.8806 45.2702H43.1056C43.3222 45.2702 43.5306 45.3035 43.7306 45.3702C43.9306 45.4202 44.0889 45.5452 44.2056 45.7452C44.3389 45.9285 44.4056 46.2452 44.4056 46.6952C44.4056 47.1285 44.3389 47.4452 44.2056 47.6452C44.0889 47.8452 43.9306 47.9702 43.7306 48.0202C43.5306 48.0702 43.3139 48.0952 43.0806 48.0952H36.9056ZM57.206 53.4952C56.3226 53.4952 55.506 53.3619 54.756 53.0952C54.006 52.8119 53.3393 52.4369 52.756 51.9702C52.1726 51.4869 51.7143 50.9369 51.381 50.3202C51.0643 49.7035 50.8893 49.0619 50.856 48.3952C50.856 47.6619 51.3976 47.2952 52.481 47.2952C52.8143 47.2952 53.0643 47.3285 53.231 47.3952C53.3976 47.4619 53.531 47.5869 53.631 47.7702C53.731 47.9535 53.831 48.2035 53.931 48.5202C54.0476 48.8535 54.2393 49.1785 54.506 49.4952C54.7893 49.8119 55.156 50.0785 55.606 50.2952C56.056 50.4952 56.5976 50.5952 57.231 50.5952C57.9143 50.5952 58.506 50.4869 59.006 50.2702C59.506 50.0369 59.8893 49.7202 60.156 49.3202C60.4393 48.9202 60.581 48.4619 60.581 47.9452C60.581 47.4285 60.4393 46.9869 60.156 46.6202C59.8893 46.2369 59.5226 45.9452 59.056 45.7452C58.5893 45.5285 58.056 45.4202 57.456 45.4202C57.1393 45.4202 56.856 45.3952 56.606 45.3452C56.3726 45.2952 56.181 45.1702 56.031 44.9702C55.8976 44.7702 55.831 44.4369 55.831 43.9702C55.831 43.4869 55.8976 43.1535 56.031 42.9702C56.181 42.7702 56.381 42.6452 56.631 42.5952C56.881 42.5452 57.1643 42.5202 57.481 42.5202C58.0476 42.5202 58.5143 42.4452 58.881 42.2952C59.2643 42.1452 59.556 41.9369 59.756 41.6702C59.956 41.4035 60.056 41.1035 60.056 40.7702C60.056 40.3202 59.9476 39.9285 59.731 39.5952C59.5143 39.2452 59.206 38.9785 58.806 38.7952C58.4226 38.5952 57.9643 38.4952 57.431 38.4952C56.9476 38.4952 56.531 38.5619 56.181 38.6952C55.831 38.8119 55.5226 38.9869 55.256 39.2202C55.006 39.4535 54.7726 39.7369 54.556 40.0702C54.306 40.5535 54.0143 40.8369 53.681 40.9202C53.3643 41.0035 52.9476 40.8952 52.431 40.5952C52.0143 40.3452 51.7643 40.0785 51.681 39.7952C51.5976 39.4952 51.656 39.1535 51.856 38.7702C51.906 38.6535 51.9976 38.4785 52.131 38.2452C52.281 37.9952 52.4893 37.7285 52.756 37.4452C53.0393 37.1452 53.381 36.8619 53.781 36.5952C54.181 36.3119 54.6726 36.0785 55.256 35.8952C55.8393 35.7119 56.5143 35.6202 57.281 35.6202C58.2143 35.6202 59.0393 35.7702 59.756 36.0702C60.4726 36.3535 61.081 36.7369 61.581 37.2202C62.081 37.6869 62.456 38.2202 62.706 38.8202C62.9726 39.4035 63.106 40.0119 63.106 40.6452C63.106 41.2119 62.9976 41.7202 62.781 42.1702C62.5643 42.6202 62.2976 42.9952 61.981 43.2952C61.6643 43.5952 61.3476 43.8202 61.031 43.9702C61.381 44.1202 61.706 44.3285 62.006 44.5952C62.3226 44.8619 62.5976 45.1785 62.831 45.5452C63.081 45.8952 63.2726 46.2702 63.406 46.6702C63.5393 47.0702 63.606 47.4785 63.606 47.8952C63.606 48.9619 63.331 49.9202 62.781 50.7702C62.2476 51.6202 61.4976 52.2869 60.531 52.7702C59.5643 53.2535 58.456 53.4952 57.206 53.4952Z" fill="#491735"/>
<path d="M25.1527 53.5202C24.5193 53.5202 23.9443 53.4619 23.4277 53.3452C22.9277 53.2285 22.4777 53.0785 22.0777 52.8952C21.6943 52.7119 21.3693 52.5369 21.1027 52.3702C20.836 52.1869 20.6193 52.0285 20.4527 51.8952C20.2527 51.7285 20.0777 51.5702 19.9277 51.4202C19.7943 51.2535 19.7277 51.0619 19.7277 50.8452C19.7277 50.6785 19.7693 50.5119 19.8527 50.3452C19.9527 50.1619 20.111 49.9535 20.3277 49.7202C20.511 49.4869 20.686 49.3202 20.8527 49.2202C21.036 49.1202 21.211 49.0702 21.3777 49.0702C21.5277 49.0702 21.686 49.1119 21.8527 49.1952C22.036 49.2785 22.261 49.4285 22.5277 49.6452C22.661 49.7619 22.8193 49.8869 23.0027 50.0202C23.2027 50.1369 23.461 50.2452 23.7777 50.3452C24.0943 50.4285 24.5027 50.4702 25.0027 50.4702C25.5693 50.4702 26.061 50.3619 26.4777 50.1452C26.8943 49.9285 27.211 49.6202 27.4277 49.2202C27.661 48.8202 27.7777 48.3369 27.7777 47.7702C27.7777 47.2369 27.661 46.7702 27.4277 46.3702C27.1943 45.9535 26.8693 45.6285 26.4527 45.3952C26.0527 45.1619 25.5943 45.0452 25.0777 45.0452C24.8277 45.0452 24.586 45.0785 24.3527 45.1452C24.1193 45.2119 23.911 45.2952 23.7277 45.3952C23.561 45.4952 23.4193 45.6035 23.3027 45.7202C23.1693 45.8369 23.036 45.9369 22.9027 46.0202C22.786 46.1035 22.6277 46.1535 22.4277 46.1702C22.2443 46.2035 22.0527 46.2035 21.8527 46.1702C21.6693 46.1202 21.436 46.0369 21.1527 45.9202C20.786 45.7369 20.5193 45.5702 20.3527 45.4202C20.186 45.2702 20.1027 45.0785 20.1027 44.8452L21.1277 37.3702C21.161 37.1702 21.211 36.9535 21.2777 36.7202C21.361 36.4702 21.5027 36.2619 21.7027 36.0952C21.9193 35.9119 22.236 35.8285 22.6527 35.8452H28.9027C29.1693 35.8452 29.411 35.8785 29.6277 35.9452C29.8443 35.9952 30.0193 36.1285 30.1527 36.3452C30.286 36.5619 30.3527 36.9119 30.3527 37.3952C30.3527 37.8452 30.286 38.1702 30.1527 38.3702C30.036 38.5702 29.8693 38.6952 29.6527 38.7452C29.4527 38.7952 29.2193 38.8202 28.9527 38.8202H24.0027L23.4527 42.5702C23.6193 42.4535 23.7943 42.3619 23.9777 42.2952C24.161 42.2119 24.3443 42.1535 24.5277 42.1202C24.7277 42.0702 24.9193 42.0452 25.1027 42.0452H25.2777C26.011 42.0452 26.711 42.1952 27.3777 42.4952C28.0443 42.7785 28.636 43.1785 29.1527 43.6952C29.6693 44.2119 30.0777 44.8035 30.3777 45.4702C30.6777 46.1369 30.8277 46.8452 30.8277 47.5952C30.8277 48.7285 30.5777 49.7452 30.0777 50.6452C29.5777 51.5285 28.9027 52.2285 28.0527 52.7452C27.2027 53.2619 26.236 53.5202 25.1527 53.5202ZM37.4736 48.0952C37.2569 48.0952 37.0402 48.0702 36.8236 48.0202C36.6236 47.9702 36.4569 47.8452 36.3236 47.6452C36.2069 47.4452 36.1486 47.1202 36.1486 46.6702C36.1486 46.2369 36.2069 45.9285 36.3236 45.7452C36.4569 45.5452 36.6236 45.4202 36.8236 45.3702C37.0402 45.3035 37.2486 45.2702 37.4486 45.2702H43.6736C43.8902 45.2702 44.0986 45.3035 44.2986 45.3702C44.4986 45.4202 44.6569 45.5452 44.7736 45.7452C44.9069 45.9285 44.9736 46.2452 44.9736 46.6952C44.9736 47.1285 44.9069 47.4452 44.7736 47.6452C44.6569 47.8452 44.4986 47.9702 44.2986 48.0202C44.0986 48.0702 43.8819 48.0952 43.6486 48.0952H37.4736ZM57.774 53.4952C56.8906 53.4952 56.074 53.3619 55.324 53.0952C54.574 52.8119 53.9073 52.4369 53.324 51.9702C52.7406 51.4869 52.2823 50.9369 51.949 50.3202C51.6323 49.7035 51.4573 49.0619 51.424 48.3952C51.424 47.6619 51.9656 47.2952 53.049 47.2952C53.3823 47.2952 53.6323 47.3285 53.799 47.3952C53.9656 47.4619 54.099 47.5869 54.199 47.7702C54.299 47.9535 54.399 48.2035 54.499 48.5202C54.6156 48.8535 54.8073 49.1785 55.074 49.4952C55.3573 49.8119 55.724 50.0785 56.174 50.2952C56.624 50.4952 57.1656 50.5952 57.799 50.5952C58.4823 50.5952 59.074 50.4869 59.574 50.2702C60.074 50.0369 60.4573 49.7202 60.724 49.3202C61.0073 48.9202 61.149 48.4619 61.149 47.9452C61.149 47.4285 61.0073 46.9869 60.724 46.6202C60.4573 46.2369 60.0906 45.9452 59.624 45.7452C59.1573 45.5285 58.624 45.4202 58.024 45.4202C57.7073 45.4202 57.424 45.3952 57.174 45.3452C56.9406 45.2952 56.749 45.1702 56.599 44.9702C56.4656 44.7702 56.399 44.4369 56.399 43.9702C56.399 43.4869 56.4656 43.1535 56.599 42.9702C56.749 42.7702 56.949 42.6452 57.199 42.5952C57.449 42.5452 57.7323 42.5202 58.049 42.5202C58.6156 42.5202 59.0823 42.4452 59.449 42.2952C59.8323 42.1452 60.124 41.9369 60.324 41.6702C60.524 41.4035 60.624 41.1035 60.624 40.7702C60.624 40.3202 60.5156 39.9285 60.299 39.5952C60.0823 39.2452 59.774 38.9785 59.374 38.7952C58.9906 38.5952 58.5323 38.4952 57.999 38.4952C57.5156 38.4952 57.099 38.5619 56.749 38.6952C56.399 38.8119 56.0906 38.9869 55.824 39.2202C55.574 39.4535 55.3406 39.7369 55.124 40.0702C54.874 40.5535 54.5823 40.8369 54.249 40.9202C53.9323 41.0035 53.5156 40.8952 52.999 40.5952C52.5823 40.3452 52.3323 40.0785 52.249 39.7952C52.1656 39.4952 52.224 39.1535 52.424 38.7702C52.474 38.6535 52.5656 38.4785 52.699 38.2452C52.849 37.9952 53.0573 37.7285 53.324 37.4452C53.6073 37.1452 53.949 36.8619 54.349 36.5952C54.749 36.3119 55.2406 36.0785 55.824 35.8952C56.4073 35.7119 57.0823 35.6202 57.849 35.6202C58.7823 35.6202 59.6073 35.7702 60.324 36.0702C61.0406 36.3535 61.649 36.7369 62.149 37.2202C62.649 37.6869 63.024 38.2202 63.274 38.8202C63.5406 39.4035 63.674 40.0119 63.674 40.6452C63.674 41.2119 63.5656 41.7202 63.349 42.1702C63.1323 42.6202 62.8656 42.9952 62.549 43.2952C62.2323 43.5952 61.9156 43.8202 61.599 43.9702C61.949 44.1202 62.274 44.3285 62.574 44.5952C62.8906 44.8619 63.1656 45.1785 63.399 45.5452C63.649 45.8952 63.8406 46.2702 63.974 46.6702C64.1073 47.0702 64.174 47.4785 64.174 47.8952C64.174 48.9619 63.899 49.9202 63.349 50.7702C62.8156 51.6202 62.0656 52.2869 61.099 52.7702C60.1323 53.2535 59.024 53.4952 57.774 53.4952Z" fill="#892E60"/>
<defs>
<linearGradient id="paint0_linear_2264_13835" x1="39.6018" y1="-21.2297" x2="44.3965" y2="109.461" gradientUnits="userSpaceOnUse">
<stop offset="0.23" stop-color="#FFDA40"/>
<stop offset="0.95" stop-color="#E93C83"/>
</linearGradient>
</defs>
</svg>
