<svg viewBox="0 0 84 89" fill="none" xmlns="http://www.w3.org/2000/svg">
<path d="M44.3492 84.045C43.4825 84.0684 42.6159 84.1035 41.7493 84.1035C42.6159 84.1035 43.4825 84.0801 44.3492 84.045Z" fill="#14C197"/>
<path d="M41.7632 84.1035C40.8966 84.1035 40.03 84.0684 39.1633 84.045C40.03 84.0801 40.8966 84.1035 41.7632 84.1035Z" fill="#14C197"/>
<path d="M41.7625 88.0144C41.1191 88.0144 40.4626 87.9867 39.8061 87.9728L39.0313 87.9451C33.1094 87.6678 27.1611 86.4892 21.3179 84.4649C13.6233 81.7889 7.4518 75.7297 4.37919 67.8404C4.14284 67.2303 3.91961 66.6064 3.70952 65.9686C1.46416 58.8418 0.321777 51.618 0.321777 44.4912C0.321777 37.3644 1.38537 30.6259 3.4863 23.7209C6.29629 14.4866 13.2162 7.22122 22.0007 4.28178C28.5661 2.07719 35.2103 0.954102 41.7494 0.954102C48.2885 0.954102 55.4054 2.14652 62.1941 4.50362C70.4796 7.38761 77.0581 14.2925 79.8024 22.9999C82.0478 30.1267 83.1902 37.3644 83.1902 44.4773C83.1902 51.5902 82.0478 58.8279 79.8024 65.9547C79.5923 66.6341 79.3429 67.2996 79.0802 67.9652C75.9945 75.7852 69.8362 81.7889 62.1941 84.451C56.3509 86.4754 50.4157 87.6539 44.5463 87.9312L43.6928 87.9589C43.0494 87.9867 42.3928 88.0005 41.7494 88.0005L41.7625 88.0144Z" fill="#892E60"/>
<path d="M41.7627 85.6572C41.1325 85.6572 40.5153 85.6295 39.885 85.6156L39.1103 85.5879C33.4116 85.3106 27.6734 84.1875 22.014 82.2186C14.9365 79.7645 9.26403 74.1906 6.44091 66.9391C6.21769 66.3706 6.0076 65.8021 5.82377 65.2198C3.65719 58.3287 2.5542 51.3545 2.5542 44.4773C2.5542 37.6001 3.5784 31.0972 5.61367 24.428C8.20044 15.9286 14.582 9.23164 22.6837 6.51404C29.0259 4.37879 35.4468 3.31116 41.7627 3.31116C48.0786 3.31116 54.946 4.46198 61.5114 6.74975C69.1273 9.39803 75.1806 15.7483 77.7017 23.7486C79.8683 30.6397 80.9713 37.6139 80.9713 44.4911C80.9713 51.3683 79.8683 58.3426 77.7017 65.2336C77.5047 65.8576 77.2815 66.4676 77.0452 67.0777C74.2089 74.2738 68.5495 79.7922 61.5246 82.2325C55.8783 84.2014 50.1402 85.3245 44.4808 85.6018L43.6667 85.6295C43.0364 85.6572 42.4193 85.6711 41.789 85.6711L41.7627 85.6572Z" fill="#F8D68D"/>
<path d="M75.5742 25.1615C73.2632 17.8234 67.7745 12.0558 60.8021 9.62366C54.4599 7.4139 48.0783 6.30206 41.7493 6.30206C35.4203 6.30206 29.4851 7.34441 23.3531 9.4013C15.9079 11.9029 10.1172 17.9902 7.74056 25.8286C5.78407 32.2912 4.78613 38.7676 4.78613 45.2023C4.78613 51.8594 5.84973 58.5721 7.95065 65.2431C8.12135 65.7712 8.30518 66.2993 8.50215 66.8136C11.0626 73.4012 16.2493 78.5295 22.7097 80.781C28.1852 82.685 33.687 83.7829 39.1625 84.0331C40.0292 84.0609 40.8958 84.1026 41.7624 84.1026C42.6291 84.1026 43.4957 84.0609 44.3623 84.0331C49.8379 83.769 55.3397 82.685 60.8152 80.781C67.2362 78.5434 72.3966 73.4568 74.9833 66.9247C75.2066 66.3688 75.4035 65.8129 75.5873 65.2431C77.6883 58.5721 78.7519 51.8594 78.7519 45.2023C78.7519 38.5452 77.6883 31.8325 75.5873 25.1615H75.5742Z" fill="url(#paint0_linear_2264_13834)"/>
<path d="M28.599 11.7468C28.599 13.0814 25.8809 12.9088 21.9023 15.2789C15.7834 18.926 17.3853 21.9864 15.1006 21.3881C13.6956 21.02 15.4814 16.8091 19.2105 14.1398C22.9396 11.4706 28.5859 10.4582 28.599 11.7352V11.7468Z" fill="white"/>
<path d="M13.9982 25.6566C14.7886 25.6566 15.4294 25.0951 15.4294 24.4025C15.4294 23.7099 14.7886 23.1484 13.9982 23.1484C13.2077 23.1484 12.5669 23.7099 12.5669 24.4025C12.5669 25.0951 13.2077 25.6566 13.9982 25.6566Z" fill="white"/>
<path opacity="0.18" d="M59.1816 9.05182C53.1472 7.22248 47.0754 6.30206 41.0535 6.30206C35.0316 6.30206 28.765 7.53588 23.0676 9.46947C17.5345 11.475 12.5675 15.279 9.06144 22.4734C8.51173 24.0381 7.62265 25.8746 7.23535 27.4393C13.3697 22.5151 38.8796 4.1966 70.126 16.3922C67.4398 12.9981 63.6293 10.4094 59.1816 9.06332V9.05182Z" fill="white"/>
<path opacity="0.13" d="M8.50215 69.7786C11.0626 75.232 16.2493 79.4775 22.7097 81.3413C28.1852 82.9176 33.687 83.8265 39.1625 84.0336C40.0292 84.0566 40.8958 84.0911 41.7624 84.0911C42.6291 84.0911 43.4957 84.0566 44.3623 84.0336C49.8379 83.815 55.3397 82.9176 60.8152 81.3413C67.2362 79.489 72.3966 75.2781 74.9833 69.8706C75.2065 69.4104 75.4035 68.9502 75.5873 68.4785C77.6489 63.0365 78.6993 57.583 78.7387 52.164C78.6337 54.8102 76.756 76.0604 44.3623 79.1093C9.78896 82.3538 4.78613 51.8994 4.78613 51.8994C4.78613 57.4104 5.84973 62.9675 7.95065 68.49C8.12135 68.9272 8.30518 69.3644 8.50215 69.7901V69.7786Z" fill="#44393E"/>
<path d="M18.9225 53.3702C18.3725 53.3702 17.9891 53.2619 17.7725 53.0452C17.5558 52.8119 17.4475 52.4119 17.4475 51.8452V37.3452C17.4475 36.7952 17.5558 36.4119 17.7725 36.1952C17.9891 35.9785 18.3808 35.8702 18.9475 35.8702C19.4975 35.8702 19.8808 35.9869 20.0975 36.2202C20.3141 36.4369 20.4225 36.8285 20.4225 37.3952V51.8702C20.4225 52.4202 20.3141 52.8119 20.0975 53.0452C19.8808 53.2619 19.4891 53.3702 18.9225 53.3702ZM15.0725 42.3952C14.6891 42.7452 14.3475 42.9202 14.0475 42.9202C13.7475 42.9035 13.4141 42.6952 13.0475 42.2952C12.6975 41.9119 12.5308 41.5535 12.5475 41.2202C12.5808 40.8869 12.8141 40.5285 13.2475 40.1452L17.5225 36.3702C17.9058 36.0369 18.2475 35.8869 18.5475 35.9202C18.8641 35.9369 19.1975 36.1369 19.5475 36.5202C19.9141 36.9035 20.0808 37.2619 20.0475 37.5952C20.0141 37.9285 19.7725 38.2869 19.3225 38.6702L15.0725 42.3952ZM27.8148 53.5202C26.8315 53.5202 25.9732 53.3619 25.2398 53.0452C24.5065 52.7119 23.8898 52.2619 23.3898 51.6952C22.8898 51.1119 22.4898 50.4452 22.1898 49.6952C21.8898 48.9285 21.6732 48.1119 21.5398 47.2452C21.4065 46.3785 21.3398 45.4869 21.3398 44.5702C21.3398 43.7035 21.4065 42.8452 21.5398 41.9952C21.6732 41.1452 21.8815 40.3452 22.1648 39.5952C22.4648 38.8285 22.8648 38.1535 23.3648 37.5702C23.8648 36.9702 24.4732 36.5035 25.1898 36.1702C25.9232 35.8202 26.7815 35.6452 27.7648 35.6452C28.7148 35.6452 29.5398 35.8119 30.2398 36.1452C30.9565 36.4785 31.5565 36.9369 32.0398 37.5202C32.5398 38.1035 32.9398 38.7785 33.2398 39.5452C33.5398 40.3119 33.7565 41.1285 33.8898 41.9952C34.0232 42.8452 34.0898 43.7119 34.0898 44.5952C34.0898 45.4952 34.0232 46.3785 33.8898 47.2452C33.7565 48.1119 33.5398 48.9285 33.2398 49.6952C32.9398 50.4452 32.5398 51.1119 32.0398 51.6952C31.5565 52.2619 30.9648 52.7119 30.2648 53.0452C29.5648 53.3619 28.7482 53.5202 27.8148 53.5202ZM27.6898 50.4702C28.3732 50.4702 28.9232 50.3285 29.3398 50.0452C29.7565 49.7452 30.0815 49.3619 30.3148 48.8952C30.5648 48.4285 30.7398 47.9285 30.8398 47.3952C30.9398 46.8619 30.9982 46.3619 31.0148 45.8952C31.0482 45.4119 31.0648 45.0202 31.0648 44.7202V44.5702C31.0648 43.3202 30.9398 42.2535 30.6898 41.3702C30.4398 40.4869 30.0648 39.8202 29.5648 39.3702C29.0815 38.9035 28.4732 38.6702 27.7398 38.6702C26.9732 38.6702 26.3398 38.9035 25.8398 39.3702C25.3398 39.8202 24.9648 40.4869 24.7148 41.3702C24.4815 42.2369 24.3648 43.3119 24.3648 44.5952C24.3648 45.8452 24.4898 46.9119 24.7398 47.7952C24.9898 48.6619 25.3565 49.3285 25.8398 49.7952C26.3398 50.2452 26.9565 50.4702 27.6898 50.4702ZM40.743 48.0952C40.5263 48.0952 40.3096 48.0702 40.093 48.0202C39.893 47.9702 39.7263 47.8452 39.593 47.6452C39.4763 47.4452 39.418 47.1202 39.418 46.6702C39.418 46.2369 39.4763 45.9285 39.593 45.7452C39.7263 45.5452 39.893 45.4202 40.093 45.3702C40.3096 45.3035 40.518 45.2702 40.718 45.2702H46.943C47.1596 45.2702 47.368 45.3035 47.568 45.3702C47.768 45.4202 47.9263 45.5452 48.043 45.7452C48.1763 45.9285 48.243 46.2452 48.243 46.6952C48.243 47.1285 48.1763 47.4452 48.043 47.6452C47.9263 47.8452 47.768 47.9702 47.568 48.0202C47.368 48.0702 47.1513 48.0952 46.918 48.0952H40.743ZM60.6434 53.4952C59.3934 53.4952 58.3267 53.2285 57.4434 52.6952C56.56 52.1452 55.8767 51.3452 55.3934 50.2952C54.9267 49.2452 54.6934 47.9785 54.6934 46.4952C54.6934 45.2119 54.835 44.0202 55.1184 42.9202C55.4184 41.8202 55.8434 40.8369 56.3934 39.9702C56.96 39.0869 57.635 38.3369 58.4184 37.7202C59.2184 37.1035 60.11 36.6285 61.0934 36.2952C62.0767 35.9619 63.1434 35.7952 64.2934 35.7952C64.56 35.7952 64.7934 35.8285 64.9934 35.8952C65.21 35.9452 65.385 36.0785 65.5184 36.2952C65.6517 36.5119 65.7184 36.8535 65.7184 37.3202C65.7184 37.7869 65.6434 38.1285 65.4934 38.3452C65.36 38.5619 65.1767 38.6952 64.9434 38.7452C64.7267 38.7952 64.4767 38.8202 64.1934 38.8202C63.36 38.8202 62.6184 38.9285 61.9684 39.1452C61.3184 39.3619 60.7434 39.6535 60.2434 40.0202C59.7434 40.3869 59.3267 40.8119 58.9934 41.2952C58.66 41.7619 58.41 42.2619 58.2434 42.7952C58.0767 43.3119 57.985 43.8285 57.9684 44.3452L57.6184 44.4952C57.7184 44.2119 57.9184 43.9452 58.2184 43.6952C58.5184 43.4452 58.8934 43.2452 59.3434 43.0952C59.81 42.9285 60.31 42.8452 60.8434 42.8452C61.8934 42.8452 62.8184 43.0702 63.6184 43.5202C64.435 43.9702 65.0767 44.5869 65.5434 45.3702C66.01 46.1369 66.2434 47.0035 66.2434 47.9702C66.2434 49.0369 66.0017 49.9869 65.5184 50.8202C65.0517 51.6535 64.3934 52.3119 63.5434 52.7952C62.71 53.2619 61.7434 53.4952 60.6434 53.4952ZM60.5434 50.6702C61.1267 50.6702 61.6184 50.5702 62.0184 50.3702C62.435 50.1535 62.7434 49.8535 62.9434 49.4702C63.16 49.0869 63.2684 48.6285 63.2684 48.0952C63.2684 47.5952 63.1684 47.1619 62.9684 46.7952C62.7684 46.4119 62.4684 46.1202 62.0684 45.9202C61.685 45.7035 61.2267 45.5952 60.6934 45.5952C60.11 45.5952 59.6017 45.7035 59.1684 45.9202C58.735 46.1202 58.4017 46.4035 58.1684 46.7702C57.9517 47.1369 57.8434 47.5619 57.8434 48.0452C57.8434 48.5785 57.9434 49.0452 58.1434 49.4452C58.36 49.8452 58.6684 50.1535 59.0684 50.3702C59.4684 50.5702 59.96 50.6702 60.5434 50.6702Z" fill="#491735"/>
<path d="M19.5093 53.3702C18.9593 53.3702 18.5759 53.2619 18.3593 53.0452C18.1426 52.8119 18.0343 52.4119 18.0343 51.8452V37.3452C18.0343 36.7952 18.1426 36.4119 18.3593 36.1952C18.5759 35.9785 18.9676 35.8702 19.5343 35.8702C20.0843 35.8702 20.4676 35.9869 20.6843 36.2202C20.9009 36.4369 21.0093 36.8285 21.0093 37.3952V51.8702C21.0093 52.4202 20.9009 52.8119 20.6843 53.0452C20.4676 53.2619 20.0759 53.3702 19.5093 53.3702ZM15.6593 42.3952C15.2759 42.7452 14.9343 42.9202 14.6343 42.9202C14.3343 42.9035 14.0009 42.6952 13.6343 42.2952C13.2843 41.9119 13.1176 41.5535 13.1343 41.2202C13.1676 40.8869 13.4009 40.5285 13.8343 40.1452L18.1093 36.3702C18.4926 36.0369 18.8343 35.8869 19.1343 35.9202C19.4509 35.9369 19.7843 36.1369 20.1343 36.5202C20.5009 36.9035 20.6676 37.2619 20.6343 37.5952C20.6009 37.9285 20.3593 38.2869 19.9093 38.6702L15.6593 42.3952ZM28.4016 53.5202C27.4183 53.5202 26.56 53.3619 25.8266 53.0452C25.0933 52.7119 24.4766 52.2619 23.9766 51.6952C23.4766 51.1119 23.0766 50.4452 22.7766 49.6952C22.4766 48.9285 22.26 48.1119 22.1266 47.2452C21.9933 46.3785 21.9266 45.4869 21.9266 44.5702C21.9266 43.7035 21.9933 42.8452 22.1266 41.9952C22.26 41.1452 22.4683 40.3452 22.7516 39.5952C23.0516 38.8285 23.4516 38.1535 23.9516 37.5702C24.4516 36.9702 25.06 36.5035 25.7766 36.1702C26.51 35.8202 27.3683 35.6452 28.3516 35.6452C29.3016 35.6452 30.1266 35.8119 30.8266 36.1452C31.5433 36.4785 32.1433 36.9369 32.6266 37.5202C33.1266 38.1035 33.5266 38.7785 33.8266 39.5452C34.1266 40.3119 34.3433 41.1285 34.4766 41.9952C34.61 42.8452 34.6766 43.7119 34.6766 44.5952C34.6766 45.4952 34.61 46.3785 34.4766 47.2452C34.3433 48.1119 34.1266 48.9285 33.8266 49.6952C33.5266 50.4452 33.1266 51.1119 32.6266 51.6952C32.1433 52.2619 31.5516 52.7119 30.8516 53.0452C30.1516 53.3619 29.335 53.5202 28.4016 53.5202ZM28.2766 50.4702C28.96 50.4702 29.51 50.3285 29.9266 50.0452C30.3433 49.7452 30.6683 49.3619 30.9016 48.8952C31.1516 48.4285 31.3266 47.9285 31.4266 47.3952C31.5266 46.8619 31.585 46.3619 31.6016 45.8952C31.635 45.4119 31.6516 45.0202 31.6516 44.7202V44.5702C31.6516 43.3202 31.5266 42.2535 31.2766 41.3702C31.0266 40.4869 30.6516 39.8202 30.1516 39.3702C29.6683 38.9035 29.06 38.6702 28.3266 38.6702C27.56 38.6702 26.9266 38.9035 26.4266 39.3702C25.9266 39.8202 25.5516 40.4869 25.3016 41.3702C25.0683 42.2369 24.9516 43.3119 24.9516 44.5952C24.9516 45.8452 25.0766 46.9119 25.3266 47.7952C25.5766 48.6619 25.9433 49.3285 26.4266 49.7952C26.9266 50.2452 27.5433 50.4702 28.2766 50.4702ZM41.3298 48.0952C41.1131 48.0952 40.8964 48.0702 40.6798 48.0202C40.4798 47.9702 40.3131 47.8452 40.1798 47.6452C40.0631 47.4452 40.0048 47.1202 40.0048 46.6702C40.0048 46.2369 40.0631 45.9285 40.1798 45.7452C40.3131 45.5452 40.4798 45.4202 40.6798 45.3702C40.8964 45.3035 41.1048 45.2702 41.3048 45.2702H47.5298C47.7464 45.2702 47.9548 45.3035 48.1548 45.3702C48.3548 45.4202 48.5131 45.5452 48.6298 45.7452C48.7631 45.9285 48.8298 46.2452 48.8298 46.6952C48.8298 47.1285 48.7631 47.4452 48.6298 47.6452C48.5131 47.8452 48.3548 47.9702 48.1548 48.0202C47.9548 48.0702 47.7381 48.0952 47.5048 48.0952H41.3298ZM61.2302 53.4952C59.9802 53.4952 58.9135 53.2285 58.0302 52.6952C57.1468 52.1452 56.4635 51.3452 55.9802 50.2952C55.5135 49.2452 55.2802 47.9785 55.2802 46.4952C55.2802 45.2119 55.4218 44.0202 55.7052 42.9202C56.0052 41.8202 56.4302 40.8369 56.9802 39.9702C57.5468 39.0869 58.2218 38.3369 59.0052 37.7202C59.8052 37.1035 60.6968 36.6285 61.6802 36.2952C62.6635 35.9619 63.7302 35.7952 64.8802 35.7952C65.1468 35.7952 65.3802 35.8285 65.5802 35.8952C65.7968 35.9452 65.9718 36.0785 66.1052 36.2952C66.2385 36.5119 66.3052 36.8535 66.3052 37.3202C66.3052 37.7869 66.2302 38.1285 66.0802 38.3452C65.9468 38.5619 65.7635 38.6952 65.5302 38.7452C65.3135 38.7952 65.0635 38.8202 64.7802 38.8202C63.9468 38.8202 63.2052 38.9285 62.5552 39.1452C61.9052 39.3619 61.3302 39.6535 60.8302 40.0202C60.3302 40.3869 59.9135 40.8119 59.5802 41.2952C59.2468 41.7619 58.9968 42.2619 58.8302 42.7952C58.6635 43.3119 58.5718 43.8285 58.5552 44.3452L58.2052 44.4952C58.3052 44.2119 58.5052 43.9452 58.8052 43.6952C59.1052 43.4452 59.4802 43.2452 59.9302 43.0952C60.3968 42.9285 60.8968 42.8452 61.4302 42.8452C62.4802 42.8452 63.4052 43.0702 64.2052 43.5202C65.0218 43.9702 65.6635 44.5869 66.1302 45.3702C66.5968 46.1369 66.8302 47.0035 66.8302 47.9702C66.8302 49.0369 66.5885 49.9869 66.1052 50.8202C65.6385 51.6535 64.9802 52.3119 64.1302 52.7952C63.2968 53.2619 62.3302 53.4952 61.2302 53.4952ZM61.1302 50.6702C61.7135 50.6702 62.2052 50.5702 62.6052 50.3702C63.0218 50.1535 63.3302 49.8535 63.5302 49.4702C63.7468 49.0869 63.8552 48.6285 63.8552 48.0952C63.8552 47.5952 63.7552 47.1619 63.5552 46.7952C63.3552 46.4119 63.0552 46.1202 62.6552 45.9202C62.2718 45.7035 61.8135 45.5952 61.2802 45.5952C60.6968 45.5952 60.1885 45.7035 59.7552 45.9202C59.3218 46.1202 58.9885 46.4035 58.7552 46.7702C58.5385 47.1369 58.4302 47.5619 58.4302 48.0452C58.4302 48.5785 58.5302 49.0452 58.7302 49.4452C58.9468 49.8452 59.2552 50.1535 59.6552 50.3702C60.0552 50.5702 60.5468 50.6702 61.1302 50.6702Z" fill="#892E60"/>
<defs>
<linearGradient id="paint0_linear_2264_13834" x1="39.5827" y1="-21.2297" x2="44.3774" y2="109.461" gradientUnits="userSpaceOnUse">
<stop offset="0.23" stop-color="#FFDA40"/>
<stop offset="0.95" stop-color="#E93C83"/>
</linearGradient>
</defs>
</svg>
