<?xml version="1.0" encoding="UTF-8"?>
<svg id="blue"
    xmlns="http://www.w3.org/2000/svg" viewBox="-4 -4 40.73 40.73">
    <defs>
        <style>.blueCls-1{fill:#e9fdff;}.blueCls-2{fill:#241a8a;}.blueCls-3{fill:#12105b;}.blueCls-4{fill:#18166d;}.blueCls-5{fill:#3432a5;}.blueCls-6{fill:#504dc4;}</style>
    </defs>
    <g id="blue-1">
        <g>
            <path class="blueCls-3" d="m16.36,32.73c-6.91,0-13.11-4.39-15.42-10.92-.63-1.78-.95-3.61-.95-5.45s.3-3.56.89-5.29l.05-.12C3.24,4.41,9.44,0,16.36,0c1.8,0,3.59.3,5.33.91,1.24.43,2.44,1.02,3.58,1.75,4.67,3.04,7.45,8.16,7.45,13.7,0,.5-.03,1.02-.08,1.59-.82,8.42-7.82,14.77-16.29,14.77Z"/>
            <path class="blueCls-6" d="m16.36,31.88c-6.55,0-12.43-4.16-14.62-10.35-.6-1.68-.9-3.42-.9-5.17s.28-3.38.84-5.01l.04-.1C3.92,5.02,9.8.85,16.36.85c1.7,0,3.4.29,5.06.86,1.17.41,2.32.96,3.39,1.66,4.42,2.88,7.07,7.73,7.07,12.99,0,.48-.03.98-.08,1.51-.77,7.98-7.41,14-15.44,14Z"/>
            <path class="blueCls-2" d="m24.35,4.09c-.99-.65-2.07-1.18-3.2-1.57-1.5-.52-3.1-.81-4.78-.81C9.97,1.7,4.55,5.8,2.54,11.51c-.01.04-.03.08-.05.12-.51,1.49-.8,3.08-.8,4.74s.31,3.35.85,4.88c2.01,5.69,7.43,9.78,13.81,9.78,7.62,0,13.87-5.81,14.59-13.23.05-.47.07-.95.07-1.43,0-5.15-2.66-9.67-6.68-12.28Z"/>
            <path class="blueCls-4" d="m16.36,31.03c7.62,0,13.87-5.81,14.59-13.23-11.35,14.06-22.85,7.98-28.4,3.45,2.01,5.69,7.43,9.78,13.81,9.78Z"/>
            <path class="blueCls-5" d="m24.35,4.09c-.99-.65-2.07-1.18-3.2-1.57-1.5-.52-3.1-.81-4.78-.81C9.97,1.7,4.55,5.8,2.54,11.51c3.82-3.94,11.02-9.03,21.8-7.42Z"/>
            <path class="blueCls-1" d="m11.62,5.11c-.78-.29-2.38.51-2.49,1.07-.14.73.88.72,2.03.28.91-.35.97-1.16.46-1.35Z"/>
            <path class="blueCls-1" d="m7.58,6.99c-.58-.02-1.06.38-1.01.77.07.52.62.5,1.08.14.54-.42.31-.9-.07-.92Z"/>
        </g>
    </g>
</svg>