<svg width="104" height="189" viewBox="0 0 104 189" fill="none" xmlns="http://www.w3.org/2000/svg">
<path d="M70.0115 61.9131C70.0115 61.9131 85.0464 53.3158 92.3757 40.5661C89.8536 40.5661 87.443 38.1694 87.7078 36.9014C87.9586 35.6334 92.6265 37.6678 92.6265 37.6678C92.6265 37.6678 88.711 31.8573 90.3552 30.4638C91.9995 29.0704 94.7724 36.5252 94.7724 36.5252C94.7724 36.5252 95.1486 29.0704 96.6674 29.3213C98.1862 29.5721 97.169 36.9014 97.169 36.9014C97.169 36.9014 101.084 32.3589 102.729 33.1113C104.373 33.8638 99.1895 38.2809 99.1895 38.2809C99.1895 38.2809 103.857 38.1555 103.983 39.2981C104.108 40.4407 99.3149 40.6915 99.3149 40.6915C99.3149 40.6915 97.169 43.0881 94.8978 42.3357C88.5856 50.9191 79.2358 61.6623 71.2795 65.5778L70.0115 61.9131Z" fill="#F4D9BF"/>
<path d="M21.0748 56.9526C21.0748 56.9526 12.8537 46.0561 10.6939 25.6845C12.6307 25.141 16.5183 22.1173 15.8774 20.7239C15.2225 19.3305 11.1259 22.3403 11.1259 22.3403C11.1259 22.3403 14.0381 14.8995 12.4217 13.8266C10.8054 12.7536 9.71851 20.4034 9.71851 20.4034C9.71851 20.4034 9.28655 12.7536 7.55873 12.7536C5.8309 12.7536 7.0153 20.083 7.0153 20.083C7.0153 20.083 3.4621 14.8019 2.16623 15.9863C0.870361 17.1707 4.96698 22.1313 4.96698 22.1313C4.96698 22.1313 0.870361 19.7625 0.229393 20.6264C-0.425509 21.4903 4.43749 25.3779 7.34971 25.9074C8.64558 38.8522 14.679 55.1272 18.9986 60.4222C20.0715 58.5829 21.0748 56.9665 21.0748 56.9665V56.9526Z" fill="#F4D9BF"/>
<path d="M22.7746 121.44L18.2739 119.475C18.2739 119.475 16.5182 140.78 20.5173 161.5C21.8271 161.277 23.6385 160.943 25.1573 160.553C22.7049 147.914 20.6427 130.525 22.7746 121.44Z" fill="#F4D9BF"/>
<path d="M24.5025 171.574C25.6451 172.299 26.8713 171.574 27.4844 170.738C26.7459 168.105 25.9377 164.566 25.1574 160.553C23.6386 160.943 21.8271 161.277 20.5173 161.5C21.1722 164.858 21.9665 168.202 22.9558 171.449C23.5689 171.351 24.1402 171.351 24.5164 171.588L24.5025 171.574Z" fill="#036BB1"/>
<path d="M30.8704 173.107C29.7417 170.627 28.3901 170.07 27.4844 170.738C26.8713 171.574 25.6451 172.299 24.5025 171.574C24.1402 171.338 23.5689 171.338 22.9419 171.435C22.9419 171.463 22.9558 171.491 22.9697 171.533C14.7765 176.702 8.71517 180.854 8.99385 183.781C13.6339 183.404 24.3632 182.053 31.5949 177.385C32.0408 175.866 31.4695 174.473 30.8564 173.121L30.8704 173.107Z" fill="#FFCC2B"/>
<path d="M9.00781 183.781C9.00781 183.781 9.00781 183.809 9.00781 183.822C9.34223 186.749 22.6493 184.728 27.8328 181.454C30.1737 179.977 31.2466 178.639 31.6228 177.385C24.391 182.053 13.6618 183.404 9.02175 183.781H9.00781Z" fill="#E8EBCA"/>
<path d="M59.1568 168.035L56.4396 157.515L53.3044 158.908C54.5585 163.27 55.7011 167.241 56.6068 170.195C56.6068 170.195 57.7773 168.495 59.1568 168.021V168.035Z" fill="#036BB1"/>
<path d="M47.7864 124.171H43.6201C43.6201 124.171 48.9987 143.901 53.2904 158.894L56.4255 157.501L47.7864 124.157V124.171Z" fill="#F4D9BF"/>
<path d="M59.4216 181.691C61.6232 182.318 65.5526 181.858 72.1713 177.329C77.8286 173.455 81.7719 168.955 81.1449 166.307C75.3483 168.634 63.7691 178.054 59.4216 181.691Z" fill="#B2B568"/>
<path d="M61.1631 168.648C60.3828 167.645 59.1566 168.035 59.1566 168.035C57.7771 168.509 56.6067 170.209 56.6067 170.209C55.4223 171.602 56.105 178.681 57.4567 180.478C60.8148 177.496 70.0949 169.665 80.0578 164.858C76.6996 162.782 67.9351 166.767 61.1631 168.662V168.648Z" fill="#FFCC2B"/>
<path d="M80.0716 164.858C80.0716 164.858 80.0577 164.858 80.0437 164.858C70.0948 169.679 60.8147 177.496 57.4426 180.478C57.4844 180.548 57.5402 180.618 57.582 180.673C57.9721 181.063 58.5713 181.454 59.4073 181.704C63.7548 178.068 75.334 168.648 81.1306 166.321C80.9912 165.75 80.6568 165.262 80.0577 164.886L80.0716 164.858Z" fill="#E8EBCA"/>
<g style="mix-blend-mode:multiply">
<path d="M22.7747 121.44L18.274 119.475C18.274 119.475 18.1486 121.008 18.0371 123.627L22.2034 124.895C22.3427 123.655 22.5239 122.485 22.7747 121.44Z" fill="#F4D9BF"/>
</g>
<g style="mix-blend-mode:multiply">
<path d="M47.7864 124.171H43.6201C43.6201 124.171 43.9685 125.439 44.5537 127.557L48.5807 127.18L47.8003 124.171H47.7864Z" fill="#F4D9BF"/>
</g>
<path d="M19.7232 98.3229C19.7232 98.3229 15.2643 109.303 13.4946 118.513C22.9977 122.568 29.4213 124.547 29.4213 124.547L32.2917 115.936L33.6712 125.132L53.165 124.644L51.883 108.216L19.7232 98.3229Z" fill="#029B9B"/>
<g style="mix-blend-mode:multiply" opacity="0.5">
<path d="M26.8714 123.697C28.5156 124.254 29.4213 124.547 29.4213 124.547L32.2917 115.936L32.445 116.981V111.881L26.8574 123.697H26.8714Z" fill="#029B9B"/>
<path d="M51.8832 108.216L44.6096 105.973C45.0276 109.735 45.8219 117.287 46.3792 124.812L53.1652 124.644L51.8832 108.216Z" fill="#029B9B"/>
</g>
<path d="M55.2831 64.6024C53.4438 64.9507 51.4651 65.1458 49.3471 65.1319C48.539 69.1728 46.6161 73.2276 41.8785 72.5309C37.336 71.862 37.0991 66.79 37.6146 62.9303C36.0401 62.3451 34.4237 61.6344 32.7656 60.7705C29.1984 65.522 26.328 71.458 26.328 71.458C26.328 71.458 18.0233 91.6903 16.4348 97.445C26.4952 103.91 42.603 109.233 53.5274 109.233C57.6937 90.5477 57.9863 77.8816 57.9863 77.8816C57.5822 72.294 56.1052 67.1523 55.2691 64.6024H55.2831Z" fill="#F2F2EC"/>
<path d="M69.3567 58.1787C69.3567 58.1787 64.0338 62.9721 55.2693 64.6024C56.1053 67.1523 57.5823 72.294 57.9864 77.8815L73.8016 70.5522L69.3427 58.1927L69.3567 58.1787Z" fill="#F2F2EC"/>
<path d="M25.9241 56.4231L22.8307 53.2321L16.1423 65.2712L26.3421 71.444C26.3421 71.444 29.2125 65.5081 32.7796 60.7566C30.5641 59.5861 28.2789 58.1648 25.938 56.4231H25.9241Z" fill="#F2F2EC"/>
<path d="M57.9724 63.9614L62.0133 76.0004L66.9042 73.7292L63.0166 62.1082C61.5535 62.7909 59.8814 63.4319 57.9863 63.9475L57.9724 63.9614Z" fill="#E21E26"/>
<path d="M73.8155 70.5383L69.3566 58.1787C69.3566 58.1787 68.5345 58.9172 67.0017 59.9205L71.0008 71.8481L73.8155 70.5383Z" fill="#E21E26"/>
<path d="M22.8307 53.2321L16.1423 65.2712L17.8702 66.3163L24.2938 54.737L22.8307 53.2321Z" fill="#E21E26"/>
<path d="M26.4952 56.8271L20.3782 67.849L23.4158 69.6883L29.4353 58.8337C28.4599 58.2206 27.4846 57.5517 26.4952 56.8271Z" fill="#E21E26"/>
<path d="M16.449 97.4311C26.5094 103.897 42.6172 109.219 53.5415 109.219C53.8202 108.007 54.071 106.823 54.3079 105.666C39.8164 104.872 22.8865 97.1942 17.3826 94.5189C16.9785 95.6754 16.658 96.6786 16.449 97.4311Z" fill="#E21E26"/>
<path d="M55.2831 64.6024C53.4438 64.9507 51.4652 65.1458 49.3472 65.1319C49.0825 66.4138 48.7202 67.6818 48.1907 68.8105L56.9831 70.9284C56.4118 68.2531 55.743 66.0236 55.2692 64.6024H55.2831Z" fill="#E21E26"/>
<path d="M18.9849 90.0739C24.5446 92.8886 41.9064 101.165 55.0463 101.904C55.4225 99.8974 55.7569 97.9884 56.0356 96.1909C38.8967 94.7418 24.7396 87.2174 20.9217 85.0019C20.2529 86.7297 19.584 88.4575 18.9849 90.0739Z" fill="#E21E26"/>
<path d="M37.6146 62.9163C36.04 62.3311 34.4237 61.6205 32.7655 60.7566C31.8598 61.9549 31.0098 63.2368 30.2295 64.477L37.4334 66.2187C37.3916 65.104 37.4752 63.9753 37.6146 62.9163Z" fill="#E21E26"/>
<path d="M24.614 75.68C24.0287 77.1431 23.332 78.8709 22.5935 80.7381C27.2893 82.9257 43.5504 90.1436 56.746 91.4116C57.0246 89.3354 57.2476 87.4682 57.4148 85.8101C47.2708 84.4445 30.8286 78.1463 24.614 75.666V75.68Z" fill="#E21E26"/>
<path d="M58.0002 77.8676C57.9445 77.1291 57.8748 76.4045 57.7912 75.68L45.1669 72.0989C44.2612 72.5169 43.1743 72.6841 41.8924 72.503C40.1924 72.2522 39.0916 71.3743 38.4089 70.1899L28.5017 67.3892C27.3731 69.3818 26.6067 70.9145 26.4116 71.3186L57.8748 80.7938C58.0002 78.8987 58.0281 77.8676 58.0281 77.8676H58.0002Z" fill="#E21E26"/>
<path d="M46.4626 64.9786C45.9191 68.9359 44.4421 71.1514 41.5299 70.1481C39.3144 69.3818 39.0775 66.3163 39.3562 63.5155C38.7709 63.3344 38.1997 63.1393 37.6005 62.9164C37.0849 66.7761 37.3218 71.8481 41.8643 72.5169C46.6019 73.2136 48.5248 69.1588 49.333 65.1179C48.3994 65.1179 47.438 65.0622 46.4626 64.9647V64.9786Z" fill="#085E76"/>
<path d="M41.53 70.1481C44.4422 71.1514 45.9192 68.9359 46.4627 64.9786C44.2193 64.7696 41.8365 64.3097 39.3563 63.5155C39.0776 66.3163 39.3145 69.3818 41.53 70.1481Z" fill="#D5A980"/>
<g style="mix-blend-mode:multiply">
<path d="M69.3566 58.1788C69.3566 58.1788 64.0337 62.9721 55.2692 64.6024C53.4299 64.9507 51.4513 65.1458 49.3333 65.1319C48.5251 69.1728 46.6022 73.2276 41.8646 72.5309C37.3221 71.862 37.0852 66.79 37.6008 62.9303C36.0262 62.3451 34.4099 61.6344 32.7517 60.7705C30.5362 59.6 28.251 58.1788 25.9101 56.437L22.8167 53.2461L22.2175 54.319C23.8896 57.4542 28.042 63.4877 35.8172 65.0483C35.8172 71.0399 38.604 74.0915 42.8679 74.0915C47.1317 74.0915 49.5144 69.7023 50.0439 67.4449L54.5168 67.4031C54.5168 67.4031 55.7151 91.6485 48.9013 108.969C50.5037 109.136 52.0504 109.247 53.5135 109.247C57.6798 90.5616 57.9724 77.8955 57.9724 77.8955L73.7876 70.5662L69.3287 58.2066L69.3566 58.1788Z" fill="#C1C0C0"/>
</g>
<path d="M73.8293 33.822C71.2097 33.5154 64.8 27.2033 64.8 27.2033C64.8 27.2033 65.1205 32.345 62.8074 32.2474C60.4944 32.1359 58.9198 26.8967 58.9198 26.8967C58.9198 26.8967 53.6667 30.1573 51.6741 29.8368C49.6815 29.5163 51.3536 26.8967 51.3536 26.8967C51.3536 26.8967 42.0038 28.7918 38.7572 28.6803C35.4966 28.5688 34.563 27.4262 37.9211 25.4197C30.1459 28.0393 25.8403 26.7853 25.8403 26.7853L22.7608 41.0956C21.256 56.855 27.5124 62.2893 43.1464 65.4245C64.8 68.8941 72.6867 57.7747 74.5399 47.5889L76.6719 31.5089C76.6719 31.5089 75.5153 33.9195 73.8432 33.822H73.8293Z" fill="#F4D9BF"/>
<path d="M81.7161 17.2543C76.7277 9.49305 67.6984 8.33652 67.6984 8.33652C67.6984 8.33652 71.0565 7.17999 68.8549 6.48328C66.6534 5.78658 63.2952 8.5734 63.2952 8.5734L60.8707 5.21528L60.4109 7.65375C43.258 -4.873 20.4479 17.9371 19.2914 21.6436C18.1348 25.35 21.2561 23.6083 21.2561 23.6083C20.3364 24.5419 17.7865 30.213 18.7061 30.9097C19.6258 31.6064 21.2561 29.8647 21.2561 29.8647C21.2561 29.8647 20.5594 35.6613 22.761 41.0956L25.8404 26.7853C25.8404 26.7853 30.146 28.0533 37.9213 25.4197C34.5631 27.4123 35.5107 28.5688 38.7573 28.6803C42.0039 28.7778 51.3537 26.8967 51.3537 26.8967C51.3537 26.8967 49.6677 29.5303 51.6742 29.8368C53.6668 30.1573 58.9199 26.8967 58.9199 26.8967C58.9199 26.8967 60.4945 32.1499 62.8075 32.2474C65.1206 32.3589 64.8001 27.2033 64.8001 27.2033C64.8001 27.2033 71.2098 33.5015 73.8294 33.822C75.5154 33.9334 76.658 31.5089 76.658 31.5089L74.5261 47.5889C87.1504 40.5243 83.0956 30.3384 83.0956 30.3384L84.489 32.4286C84.489 32.4286 86.6906 25.0156 81.7161 17.2543Z" fill="#93602C"/>
<path d="M36.333 40.9702C36.2772 42.1267 35.8174 43.0464 35.3158 43.0185C34.8142 42.9906 34.4519 42.0431 34.5076 40.8866C34.5633 39.73 35.0232 38.8104 35.5248 38.8383C36.0264 38.8661 36.3887 39.8136 36.333 40.9702Z" fill="#3C1C10"/>
<path d="M35.3296 40.0505C35.2878 40.3989 35.1206 40.6636 34.9673 40.6497C34.814 40.6358 34.7304 40.3292 34.7722 39.9809C34.814 39.6325 34.9812 39.3678 35.1345 39.3956C35.2878 39.4235 35.3714 39.7161 35.3296 40.0645V40.0505Z" fill="white"/>
<path d="M57.0249 42.6283C56.9691 43.7848 56.5093 44.7045 56.0077 44.6766C55.5061 44.6488 55.1438 43.7012 55.1995 42.5447C55.2552 41.3882 55.7151 40.4685 56.2167 40.4964C56.7183 40.5243 57.0806 41.4718 57.0249 42.6283Z" fill="#3C1C10"/>
<path d="M56.0215 41.7087C55.9797 42.057 55.8124 42.3218 55.6592 42.2939C55.5059 42.266 55.4223 41.9734 55.4641 41.6251C55.5059 41.2767 55.6731 41.012 55.8264 41.0398C55.9797 41.0538 56.0633 41.3603 56.0215 41.7087Z" fill="white"/>
<path d="M44.3309 46.4184C44.3309 46.4184 43.9407 46.279 43.4112 46.1676C43.1465 46.1118 42.8399 46.0979 42.6588 46.1676C42.5752 46.2094 42.5334 46.279 42.4637 46.3626C42.4637 46.3626 42.3662 46.5438 42.3801 46.5577C42.3801 46.5995 42.3522 46.6553 42.3522 46.7249C42.2686 47.3102 42.4916 48.0208 42.7145 48.4806C42.8399 48.7175 42.9653 48.8986 43.0907 48.9962C43.2022 49.1077 43.2998 49.1495 43.2998 49.1495C43.2998 49.1495 43.2022 49.1773 43.0071 49.1495C42.826 49.1216 42.5612 49.0101 42.3244 48.7872C42.0875 48.5642 41.8506 48.2716 41.6834 47.8954C41.5162 47.5192 41.4187 47.0733 41.4883 46.5995C41.4883 46.4881 41.5441 46.3487 41.5998 46.2094C41.6555 46.0422 41.6695 46.0561 41.767 45.8889C41.9203 45.6659 42.185 45.4848 42.4498 45.4291C42.9793 45.3455 43.3416 45.5405 43.6063 45.6938C44.1358 46.0422 44.3309 46.4044 44.3309 46.4044V46.4184Z" fill="#C39368"/>
<path d="M33.2256 35.076C33.2256 35.076 33.1699 34.6023 33.4625 33.9335C33.6158 33.613 33.8805 33.2228 34.3125 32.972C34.5354 32.8466 34.7723 32.7491 35.0371 32.7073C35.1625 32.7073 35.3018 32.6794 35.4272 32.6794H35.6223L35.7198 32.7073H35.7756H35.8452L35.8592 32.7351C36.0682 32.8048 36.2772 32.8745 36.4862 32.9441C36.7231 33.0695 36.946 33.2367 37.1411 33.39C37.2944 33.5712 37.4477 33.7523 37.5591 33.9335C37.6567 34.1285 37.7403 34.3097 37.796 34.4769C38.005 35.1736 37.8796 35.6473 37.8796 35.6473C37.8796 35.6473 37.8239 35.5359 37.7403 35.3687C37.6567 35.2015 37.5173 34.9506 37.3501 34.6998C37.2665 34.5744 37.1411 34.4629 37.0436 34.3236C36.9321 34.1982 36.7788 34.1007 36.6534 33.9753C36.5141 33.9056 36.3747 33.8359 36.2354 33.7384C36.0264 33.6826 35.8174 33.613 35.6084 33.5572H35.5944C35.5944 33.5572 35.6641 33.5572 35.6502 33.5572H35.5944H35.5248H35.3854C35.3018 33.5294 35.2043 33.5572 35.1207 33.5433C34.9535 33.5572 34.7863 33.5851 34.633 33.6548C34.4797 33.7244 34.3404 33.7941 34.201 33.9056C34.0756 34.0031 33.9502 34.1146 33.8387 34.2261C33.4207 34.6859 33.1838 35.09 33.1838 35.09L33.2256 35.076Z" fill="#93602C"/>
<path d="M54.3076 36.9571C54.3076 36.9571 54.3355 36.8457 54.433 36.6366C54.5306 36.4416 54.6978 36.1768 54.9486 35.8842C55.0879 35.7588 55.2273 35.6055 55.4084 35.4662C55.6035 35.3547 55.7846 35.2014 56.0215 35.1178C56.2584 35.0482 56.4953 34.9088 56.76 34.9088L57.1641 34.8809C57.2477 34.8809 57.2616 34.867 57.401 34.8809H57.5821L57.7633 34.9367L57.9862 35.0064C58.1395 35.0482 58.2649 35.1178 58.3903 35.1875C58.6411 35.3129 58.8223 35.508 59.0034 35.7031C59.3378 36.0932 59.505 36.5112 59.6165 36.8735C59.8255 37.5981 59.7558 38.0997 59.7558 38.0997C59.7558 38.0997 59.5329 37.6538 59.1706 37.0825C58.9755 36.8039 58.7526 36.4834 58.46 36.2326C58.3206 36.1071 58.1534 35.9957 57.9862 35.926C57.9026 35.8842 57.819 35.8424 57.7493 35.8285L57.6379 35.7867L57.4567 35.7588L57.2895 35.7309C57.2895 35.7309 57.2059 35.7309 57.178 35.7309H56.8715C56.6625 35.7309 56.4813 35.8145 56.2863 35.8424C56.0912 35.8842 55.924 35.9817 55.7428 36.0375C55.5756 36.1211 55.4084 36.2047 55.2691 36.2744C54.9904 36.4555 54.7396 36.6227 54.5863 36.7481C54.4191 36.8735 54.3216 36.9571 54.3216 36.9571H54.3076Z" fill="#93602C"/>
<path d="M35.8171 53.3854C35.8171 53.3854 40.7777 59.5304 53.4995 54.7928C49.8348 64.6024 40.2342 66.3302 35.8171 53.3854Z" fill="white"/>
<path d="M34.2567 45.861C34.0756 46.7667 32.1666 47.1569 30.0068 46.7249C27.8331 46.293 26.2167 45.2201 26.384 44.3143C26.5651 43.4086 28.4601 43.0185 30.6478 43.4504C32.8215 43.8824 34.4379 44.9553 34.2567 45.861Z" fill="#F8CBC1"/>
<path d="M64.7027 49.0798C64.5773 49.9995 62.6962 50.4871 60.5085 50.1945C58.3208 49.9019 56.6348 48.9265 56.7602 48.0069C56.8856 47.0872 58.7667 46.5995 60.9544 46.8922C63.156 47.1848 64.8281 48.1741 64.7027 49.0798Z" fill="#F8CBC1"/>
<g style="mix-blend-mode:multiply" opacity="0.5">
<path d="M55.1578 21.8665C52.8726 24.514 50.6571 26.2697 49.0408 27.3426C50.4202 27.0918 51.3538 26.8967 51.3538 26.8967C51.3538 26.8967 49.6678 29.5303 51.6743 29.8368C51.7997 29.8647 51.953 29.8647 52.1063 29.8508C51.8833 27.9 53.5136 25.0017 55.1578 21.8526V21.8665Z" fill="#93602C"/>
<path d="M42.1014 22.9673C32.8631 26.5762 25.6313 25.4755 24.0289 22.9673C24.2379 28.8475 22.8724 35.6473 22.0642 39.0612C22.2593 39.744 22.4822 40.4267 22.7609 41.1095L25.8403 26.7992C25.8403 26.7992 30.146 28.0672 37.9212 25.4336C34.9254 27.2172 35.3573 28.318 37.7819 28.6106C37.7679 27.3287 39.3425 25.3779 42.1014 22.9673Z" fill="#93602C"/>
<path d="M79.0686 28.9869C72.5335 37.1244 63.1001 21.8526 63.1001 21.8526L64.7861 28.736C64.8419 27.8721 64.8001 27.2033 64.8001 27.2033C64.8001 27.2033 71.2097 33.5015 73.8293 33.822C75.5154 33.9335 76.658 31.5089 76.658 31.5089L74.5261 47.5889C75.0137 47.3102 75.4875 47.0315 75.9195 46.7389C75.6965 42.5587 77.1178 36.4416 79.0546 28.9869H79.0686Z" fill="#93602C"/>
<path d="M57.4014 27.7746C58.2931 27.2869 58.9202 26.8967 58.9202 26.8967C58.9202 26.8967 60.4111 31.8573 62.6267 32.2195C60.857 30.1016 59.5612 26.2279 58.9759 21.2534C58.8366 23.9288 58.1259 26.1304 57.4014 27.7746Z" fill="#93602C"/>
</g>
<path d="M75.1811 42.071L74.3171 49.0798C74.3171 49.0798 78.7482 49.8322 79.2777 46.1676C79.8211 42.5029 75.1811 42.071 75.1811 42.071Z" fill="#EFCAA7"/>
<path d="M77.6337 45.4848C77.6337 45.4848 77.4525 45.3455 77.1181 45.2479C76.9509 45.2061 76.7558 45.1643 76.5329 45.1783C76.3099 45.1783 76.073 45.234 75.8501 45.3315C75.7386 45.3873 75.6272 45.443 75.5296 45.5266C75.4321 45.5963 75.3485 45.6938 75.2788 45.7774C75.1952 45.861 75.1534 45.9725 75.1116 46.0561C75.0559 46.1397 75.0419 46.2373 75.0141 46.3348C74.9583 46.502 74.9723 46.6414 74.9723 46.7389C74.9723 46.8364 74.9723 46.8922 74.9723 46.8922C74.9723 46.8922 75.0141 46.8504 75.0698 46.7668C75.0977 46.725 75.1255 46.6832 75.1673 46.6274C75.1952 46.5717 75.2509 46.5159 75.2927 46.4602C75.3345 46.4045 75.3763 46.3348 75.446 46.2791C75.5017 46.2233 75.5575 46.1537 75.6272 46.0979C75.7526 45.9864 75.9058 45.875 76.073 45.8053C76.1567 45.7635 76.2403 45.7356 76.3239 45.7078C76.4214 45.6938 76.505 45.652 76.5886 45.6381C76.7697 45.5963 76.937 45.5824 77.1042 45.5545C77.4247 45.5266 77.6337 45.4988 77.6337 45.4988V45.4848Z" fill="#C39368"/>
<path d="M23.4158 37.9743C23.4158 37.9743 20.1831 35.926 18.5667 39.7022C17.4799 42.9349 20.9355 45.0946 22.4544 44.7742C22.6634 41.3185 23.4158 37.9743 23.4158 37.9743Z" fill="#EFCAA7"/>
<path d="M20.2388 39.9669C20.2388 39.9669 20.4617 39.8833 20.7961 39.8972C20.9633 39.8972 21.1724 39.9251 21.3814 40.0087C21.5904 40.0784 21.7994 40.2038 21.9945 40.371C22.0781 40.4546 22.1617 40.5382 22.2313 40.6497C22.3149 40.7472 22.3428 40.8587 22.3846 40.9701C22.4404 41.0677 22.4404 41.1931 22.4682 41.2906C22.4961 41.3882 22.4682 41.4857 22.4682 41.5833C22.4682 41.7644 22.4125 41.8898 22.3846 41.9873C22.3568 42.0849 22.3289 42.1267 22.3289 42.1267C22.3289 42.1267 22.3149 42.0709 22.2871 41.9734C22.2871 41.9316 22.2592 41.8759 22.2453 41.8062C22.2453 41.7505 22.2035 41.6808 22.1756 41.6111C22.1477 41.5414 22.1338 41.4578 22.092 41.3882C22.0502 41.3185 22.0223 41.2349 21.9805 41.1652C21.883 41.012 21.7855 40.8726 21.6461 40.7472C21.5904 40.6775 21.5068 40.6357 21.4371 40.5661C21.3535 40.5243 21.2838 40.4685 21.2002 40.4267C21.0469 40.3292 20.8797 40.2595 20.7404 40.1898C20.4478 40.0644 20.2388 39.9808 20.2388 39.9808V39.9669Z" fill="#C39368"/>
</svg>
