<svg width="105" height="189" viewBox="0 0 105 189" fill="none" xmlns="http://www.w3.org/2000/svg">
<path d="M57.3968 77.8979C57.3968 77.8979 56.8517 80.8214 56.3066 81.639C56.3066 81.639 67.5299 85.9004 69.611 84.6864C71.6921 83.4476 75.8048 77.9475 75.8048 77.9475C75.8048 77.9475 77.8364 77.5263 78.4062 75.5938C78.9761 73.6613 80.413 71.7041 81.2554 71.1343C82.0978 70.5892 82.618 69.8459 82.073 69.7716C81.5279 69.6973 79.5954 70.2671 78.654 71.7784C78.654 71.7784 78.7779 70.7131 79.7441 69.4991C80.7103 68.2851 81.6766 66.3774 80.6856 66.3774C79.6946 66.3774 77.6134 69.0779 76.8454 70.4158C76.8454 70.4653 76.7958 70.4901 76.7711 70.5149C76.0774 71.828 77.217 67.2198 78.3815 65.4359C79.5211 63.6521 77.7869 63.4539 77.0436 64.4945C76.3003 65.535 75.1111 68.409 75.1359 69.6973C75.1359 69.6973 74.4422 67.0711 74.1697 65.2377C73.8971 63.3796 72.807 63.8008 72.7327 64.9157C72.6584 66.0305 72.9309 69.0036 73.0052 70.1185C73.0795 71.2581 72.807 72.9924 72.807 72.9924C72.807 72.9924 72.1133 72.5465 71.2214 72.15C70.3295 71.7536 70.379 70.4405 69.2641 70.7874C68.1492 71.159 69.7596 72.7447 69.9578 73.81C70.1561 74.8753 70.0817 76.5601 72.4354 76.3123C72.4354 76.3123 70.1808 80.8957 68.397 81.639C66.6132 82.3823 57.3224 77.8979 57.3224 77.8979H57.3968Z" fill="#F4D9BF"/>
<path d="M75.1364 76.8823C75.1364 76.8823 75.0125 76.6097 74.8391 76.2133C74.74 76.0151 74.6409 75.7922 74.5418 75.5444C74.4179 75.2966 74.3188 75.0489 74.1949 74.8011C74.071 74.5534 73.9224 74.3056 73.7985 74.1074C73.7242 74.0083 73.6499 73.9092 73.5755 73.8101C73.5012 73.711 73.4269 73.6367 73.3526 73.5624C73.2782 73.4881 73.2039 73.4385 73.1544 73.3642C73.1048 73.2898 73.0305 73.2651 72.9809 73.2155C72.8818 73.1412 72.8323 73.0916 72.8323 73.0916C72.8323 73.0916 72.9066 73.0916 73.0305 73.1412C73.1048 73.1412 73.1791 73.166 73.2535 73.2155C73.3278 73.2651 73.4269 73.2898 73.526 73.3642C73.7242 73.4881 73.9224 73.6615 74.0958 73.8845C74.1701 74.0083 74.294 74.1074 74.3683 74.2313C74.4427 74.3552 74.517 74.4791 74.5913 74.6277C74.8639 75.148 75.0373 75.7178 75.0868 76.1638C75.1612 76.6097 75.1364 76.907 75.1364 76.907V76.8823Z" fill="#C39368"/>
<path d="M91.6616 101.038C91.29 100.419 90.4724 99.8737 89.7539 99.8242C88.9363 99.7746 88.5647 100.146 88.094 100.79C88.094 100.79 88.094 100.815 88.094 100.84C87.2021 101.658 86.5579 102.649 87.2516 103.838C87.5985 104.432 88.5399 106.068 89.3327 106.191C90.1751 106.315 90.7449 105.696 91.3148 105.126C91.8103 104.606 92.1076 103.739 92.2315 103.045C92.4049 102.203 92.1324 101.707 91.7112 100.989L91.6616 101.038Z" fill="#7F461D"/>
<path d="M91.1661 97.1237C90.398 96.2813 89.5805 96.1822 88.9611 96.7273C88.9611 96.6777 88.8867 96.653 88.8372 96.7273C88.2921 97.4706 87.7719 97.9413 87.4993 98.8828C87.3011 99.5765 87.648 100.344 88.0196 100.89C88.2178 101.187 89.0354 102.475 89.407 102.475C89.9769 102.475 90.7697 101.583 91.1165 101.236C92.2562 100.047 92.2314 98.3129 91.1661 97.1485V97.1237Z" fill="#9E5725"/>
<path d="M91.265 107.728C90.7942 106.935 89.7537 105.77 88.6883 105.993C88.1928 106.092 87.7717 106.266 87.4 106.489C86.3099 106.96 85.3932 107.752 84.6252 108.719C83.8324 109.734 82.9652 111.37 82.9405 112.683C82.9405 112.782 83.0643 112.881 83.1387 112.831C83.6342 112.633 84.1049 112.336 84.5756 112.038C84.1049 112.435 83.6837 112.831 83.3616 113.376C82.8909 114.169 81.999 114.888 81.8999 115.854C81.8999 115.978 81.9495 116.052 82.0733 116.077C82.6679 116.151 83.5103 115.581 84.0306 115.358C83.5846 116.126 83.3616 117.018 83.2378 117.885C82.9652 119.793 83.758 122.295 84.8729 123.856C84.9473 123.955 85.0711 123.856 85.0959 123.782C85.4675 123.088 85.6162 122.147 85.8392 121.404C86.0126 120.908 86.2851 120.388 86.5577 119.892C86.2851 120.759 85.9878 121.602 85.7153 122.444C85.6658 122.593 85.7649 122.717 85.9135 122.642C86.8054 122.246 87.4248 121.404 88.069 120.735C88.9609 119.818 89.605 118.753 90.1996 117.638C90.7695 116.548 91.2154 115.507 91.2898 114.268C91.4384 114.838 91.5871 115.408 91.81 115.928C91.8596 116.077 92.033 116.002 92.0826 115.903C92.7267 114.739 92.7267 113.153 92.6276 111.865C92.5285 110.378 91.9587 109.016 91.2154 107.728H91.265Z" fill="#7F461D"/>
<path d="M91.9089 93.8285C91.1657 92.5898 90.0012 91.6731 89.0102 92.4411C88.4156 92.6889 87.9944 93.5808 87.6724 94.0515C87.276 94.6461 86.9787 95.4637 87.1769 96.1822C87.4246 97.1236 88.2917 97.8421 88.9359 98.5358C89.5305 99.18 89.9517 98.4863 90.4968 98.1147C91.8098 97.198 92.8504 95.3646 91.9337 93.8285H91.9089Z" fill="#7F461D"/>
<path d="M91.0915 87.8577C89.9766 86.6437 88.9608 87.7338 88.3662 88.8983C88.0441 89.2947 87.8211 89.815 87.6229 90.1866C87.2018 91.0289 86.8549 91.5245 87.4247 92.3668C87.9202 93.1101 88.6883 94.225 89.605 94.4975C90.3482 94.6957 91.0419 93.5313 91.5127 93.0605C92.1816 92.3916 92.9744 91.6236 92.8753 90.6078C92.801 89.592 91.7109 88.5514 91.0667 87.8825L91.0915 87.8577Z" fill="#9E5725"/>
<path d="M90.5962 83.8192C88.9363 82.3823 87.5984 83.4724 86.9295 85.058C86.1119 86.1977 85.6164 87.6842 86.8056 88.6752C87.5489 89.2946 88.4656 89.914 89.407 90.2361C89.9025 90.4095 92.1819 87.5108 92.1571 86.5693C92.1075 85.4296 91.4634 84.5377 90.621 83.8192H90.5962Z" fill="#7F461D"/>
<path d="M89.2088 79.9296C88.6885 79.5579 87.648 79.5084 87.0534 79.7561C86.7313 79.9048 86.5083 80.103 86.3349 80.3755C86.3349 80.3755 86.3349 80.3755 86.3101 80.3755C86.3101 80.4003 86.2853 80.4498 86.2605 80.4994C86.1862 80.648 86.1119 80.7967 86.0376 80.9701C85.5173 82.0602 84.774 83.6458 85.6412 84.513C86.4588 85.3058 87.648 85.8261 88.7629 86.0243C89.3327 86.1234 89.7043 85.2315 89.9025 84.8351C90.4228 83.8441 91.0422 83.1751 90.8935 81.9859C90.7697 81.094 89.9025 80.4251 89.2088 79.9296Z" fill="#9E5725"/>
<path d="M86.9538 75.8911C85.0461 75.2965 83.7082 76.0646 83.3861 77.9227C82.9897 79.3597 82.742 81.5647 84.4515 81.8124C85.4672 81.9363 86.8299 82.3079 87.8457 82.1593C88.4403 82.0602 88.4898 81.0692 88.6633 80.6232C89.4809 78.5916 89.2083 76.6344 86.9538 75.9159V75.8911Z" fill="#7F461D"/>
<path d="M85.6163 73.2897C85.1456 72.596 83.3618 72.6456 82.668 72.7695C81.8752 72.9181 80.909 73.0915 80.5374 73.9339C80.4878 74.0578 80.4383 74.2064 80.3887 74.3303V74.1816H80.3639C80.3144 74.7019 80.141 75.2718 80.1657 75.792C80.1905 76.6096 80.3639 77.3529 80.4878 78.1457C80.6117 78.9633 80.909 79.2606 81.7514 79.2358C82.4203 79.211 85.096 79.0872 85.6411 78.8642C86.3348 78.5917 86.31 74.256 85.6411 73.265L85.6163 73.2897Z" fill="#9E5725"/>
<path d="M82.94 74.2561C82.8657 73.5376 82.7418 72.3236 82.0729 71.8529C81.2305 71.2583 80.2147 71.6547 79.2981 71.7042C78.6787 71.7538 77.8859 72.2741 77.6133 72.8439C77.4151 73.2898 77.3656 73.7358 77.4151 74.1818C77.3904 74.157 77.3656 74.1322 77.3408 74.1074C77.3408 74.0827 77.2913 74.1074 77.2913 74.1322C77.3408 74.6773 77.5142 75.1728 77.5886 75.6931C77.6381 76.0895 77.6877 76.6841 77.9106 77.0061C78.4309 77.6999 79.4467 77.5264 80.1652 77.4026C80.6855 77.3035 81.181 77.2291 81.6765 77.0061C81.9738 76.8823 82.5189 76.8575 82.7666 76.6593C83.3612 76.1638 83.0144 74.9002 82.94 74.2561Z" fill="#7F461D"/>
<path d="M78.7283 70.7875C78.1337 69.6973 77.3657 69.7221 76.2508 69.8708C75.458 69.9946 73.9467 70.1928 73.5503 71.0352C73.1787 71.8528 73.3521 72.6456 73.7733 73.3889C73.798 73.4632 73.8228 73.5623 73.8476 73.6366C74.021 74.1321 74.3679 74.9249 74.9129 75.0984C76.3499 75.5939 78.1089 74.7267 79.3229 74.0082C79.3973 73.9835 79.4468 73.8844 79.422 73.81C79.2734 72.7943 79.2238 71.7041 78.7283 70.7875Z" fill="#9E5725"/>
<path d="M74.9873 70.5645C74.7395 68.8798 73.7485 68.2109 72.0886 68.5082C70.9489 68.7064 70.2304 69.4744 70.0322 70.3911C70.0322 70.3911 70.0322 70.3663 70.0074 70.3416C70.0074 70.292 69.9331 70.3416 69.9331 70.3416C69.9331 71.4069 70.1313 72.5713 70.7259 73.4633C70.9489 73.7853 71.4444 73.7853 71.7913 73.7606C72.2868 73.7606 72.8566 73.7606 73.3521 73.6862C73.6494 73.6367 75.0864 73.4633 75.1607 73.0173C75.2846 72.274 75.0864 71.283 74.9873 70.5398V70.5645Z" fill="#7F461D"/>
<path d="M71.1969 66.7738C70.5032 66.3527 69.4379 66.3527 68.6946 66.5756C67.1833 67.0216 66.2419 68.1117 66.663 69.5239C66.7869 70.9856 67.3072 72.4722 69.1406 72.1996C69.8343 72.1005 71.296 72.051 71.742 71.4068C72.1879 70.7627 71.9897 69.5982 72.0145 68.855C72.0145 68.1117 71.9154 67.1702 71.2217 66.7491L71.1969 66.7738Z" fill="#9E5725"/>
<path d="M68.7688 66.3774C68.4715 64.544 65.7462 64.4697 64.334 64.8413C63.6403 65.0395 62.8723 65.6341 62.7236 66.3774C62.5502 67.1949 62.897 67.7896 63.3678 68.3594C63.5164 68.8053 63.7146 69.2265 63.9872 69.5734C64.5322 70.2671 65.7462 69.9202 66.4399 69.8211C66.8363 69.7468 68.6945 69.6229 68.8431 69.2017C69.1404 68.3842 68.8431 67.2197 68.7192 66.4021L68.7688 66.3774Z" fill="#7F461D"/>
<path d="M63.1947 61.2985C61.8073 61.5462 59.6022 62.6364 59.2058 64.1229C59.2058 64.1229 59.1563 64.1229 59.1563 64.1477C59.1563 64.1724 59.1563 64.222 59.1563 64.2468C59.082 64.6927 59.1563 65.1387 59.4288 65.6342C59.6766 66.427 60.073 67.2198 60.6676 67.4923C62.055 68.1365 64.1857 67.641 65.5483 67.0959C65.7218 67.0464 65.8209 66.8977 65.8209 66.7243C65.8209 64.6432 66.5393 60.7039 63.1699 61.2985H63.1947Z" fill="#9E5725"/>
<path d="M89.0103 105.721C89.0103 105.721 86.5824 102.624 85.1702 102.772C83.758 102.896 82.6183 107.529 84.3526 107.901C86.1116 108.273 89.0103 106.514 89.0103 106.514C89.0103 106.514 91.9091 110.577 92.7019 109.784C93.4947 108.991 94.6591 104.928 93.569 104.705C92.5037 104.482 89.0103 105.721 89.0103 105.721Z" fill="#E31C3C"/>
<path d="M18.6236 114.491C18.3015 113.946 17.3601 112.881 16.6416 113.252C16.5673 113.302 16.4929 113.351 16.4186 113.376C16.4186 113.376 16.4186 113.327 16.4186 113.351C14.6843 114.64 13.1235 115.854 12.0334 117.786C11.2653 119.149 10.6955 121.403 11.3149 122.915C11.3892 123.063 11.5874 122.989 11.6122 122.84C11.6617 122.171 11.9095 121.478 12.3059 120.834C12.3059 120.883 12.2811 120.933 12.2564 120.982C12.0086 121.825 12.0086 122.915 12.2564 123.732C12.8014 125.516 13.6933 127.127 11.9343 128.613C11.8847 128.663 11.8847 128.737 11.9591 128.762C13.6933 128.96 14.9569 128.316 15.824 126.78C15.9479 126.557 16.047 126.334 16.1213 126.111C16.0718 126.656 15.9479 127.201 15.7497 127.672C15.7001 127.795 15.824 127.895 15.9231 127.795C17.2857 126.507 18.1281 125.566 18.4502 123.658C18.7227 121.998 18.6484 120.412 17.8308 119.05C17.9051 119.124 17.9795 119.198 18.0538 119.273C18.6484 119.867 18.8714 120.635 19.1934 121.379C19.2182 121.453 19.3173 121.428 19.3421 121.379C19.466 121.205 19.4412 121.032 19.466 120.834C19.466 120.066 19.5403 119.322 19.5155 118.53C19.466 117.117 19.3917 115.779 18.6732 114.516L18.6236 114.491Z" fill="#7F461D"/>
<path d="M17.6572 107.678C16.691 106.39 15.7743 107.827 15.2788 108.892C14.7833 109.586 14.4612 110.577 14.7089 111.097C15.0062 111.766 15.9229 112.41 16.5423 112.757C17.0626 113.054 19.119 110.577 19.0446 109.957C18.9208 108.966 18.2518 108.421 17.682 107.678H17.6572Z" fill="#9E5725"/>
<path d="M18.5743 105.374C17.7567 104.061 16.0472 103.293 15.3535 105.101C15.3535 105.101 15.3535 105.151 15.3535 105.176C14.7341 105.968 14.0651 106.737 14.1395 107.802C14.1642 108.223 14.7341 108.644 15.0066 108.917C15.5764 109.462 16.1215 110.056 16.84 110.378C16.9639 110.428 17.0877 110.304 17.1373 110.205C17.9053 108.595 19.7387 107.232 18.5743 105.374Z" fill="#7F461D"/>
<path d="M17.1869 100.89C16.1958 99.9976 15.3535 100.79 14.9571 101.757C14.6102 102.153 14.3129 103.293 14.2386 103.788C14.1147 104.532 14.3129 104.903 14.9075 105.349C15.3039 105.622 16.1711 106.315 16.6666 106.216C16.9391 106.167 16.9639 106.117 17.1373 105.919C17.6328 105.349 18.1035 104.804 18.6238 104.234C19.7387 103.02 18.1035 101.707 17.2116 100.914L17.1869 100.89Z" fill="#9E5725"/>
<path d="M17.3603 96.6282C16.9639 95.9592 16.4188 95.6372 15.5269 95.7858C14.6102 95.9345 14.3872 96.8264 14.189 97.5944C13.6687 98.5854 13.0493 99.7994 13.3467 100.766C13.5696 101.459 14.0899 101.806 14.6597 102.227C15.1305 102.574 15.849 103.342 16.4931 103.342C16.8895 103.342 17.3355 102.376 17.5337 102.128C18.0787 101.385 18.4751 100.79 18.7725 99.9233C19.1193 98.9323 18.2026 97.3714 17.3603 96.6282Z" fill="#7F461D"/>
<path d="M17.3846 93.2092C16.0715 91.8217 14.9071 92.788 14.139 94.002C13.371 94.9682 12.7268 95.9097 13.5692 97.1732C13.817 97.5696 15.353 98.9075 15.7494 99.0314C16.2945 99.2048 17.1616 98.2138 17.5085 97.966C18.227 97.4457 18.8216 96.8511 18.8463 95.9592C18.8711 94.9682 18.004 93.9029 17.3598 93.2339L17.3846 93.2092Z" fill="#9E5725"/>
<path d="M17.781 88.8239C17.2855 88.1549 16.6661 87.8329 15.799 87.9815C15.1053 88.1054 14.6345 88.4275 14.2629 88.8734C13.6931 89.2698 13.2471 90.1865 12.9746 90.7563C12.5286 91.7226 12.6773 92.4411 13.2223 93.3082C13.7426 94.1258 14.7089 95.1911 15.6503 95.4637C16.2449 95.6371 17.1121 94.4231 17.4837 94.101C18.2022 93.4321 18.6977 92.7136 18.772 91.7226C18.8463 90.905 18.227 89.468 17.7562 88.8239H17.781Z" fill="#7F461D"/>
<path d="M18.4504 87.0896C18.1778 86.3959 17.7814 85.1572 17.0134 84.8598C16.2701 84.5625 15.0066 84.3643 14.2633 84.7607C13.6192 85.0828 13.3466 85.6031 13.198 86.1977C12.4795 87.4117 12.0088 89.0221 13.421 89.691C14.0899 90.0131 15.3039 90.905 16.0472 90.6077C16.2701 90.5086 16.3692 90.2856 16.5427 90.1122C17.0134 89.6663 17.4593 89.2203 17.9301 88.7743C18.4999 88.2045 18.7477 87.8577 18.4256 87.0896H18.4504Z" fill="#9E5725"/>
<path d="M17.806 81.4904C16.9388 80.3755 15.5762 80.2021 14.5356 80.8215C14.5356 80.8215 14.5356 80.7719 14.5108 80.8215C13.718 81.3665 13.0491 82.2832 12.6031 83.1256C12.2067 83.8193 12.2811 84.29 12.7518 84.9342C13.3464 85.727 14.387 86.6189 15.3284 86.941C15.4771 86.9905 15.6505 87.0401 15.7991 86.941C16.369 86.6437 16.8645 86.1482 17.4095 85.8013C18.1033 85.3553 18.574 85.1076 18.6731 84.2405C18.7474 83.3733 18.3262 82.1593 17.806 81.4656V81.4904Z" fill="#7F461D"/>
<path d="M19.1194 79.7562C18.8716 79.0377 18.6239 78.2944 18.3761 77.576C18.0788 76.7832 17.3108 76.3372 16.4932 76.2876C15.7499 76.2629 15.304 76.7336 14.9076 77.2539C13.644 78.3192 11.8354 80.2022 12.876 81.2427C13.6688 82.0355 14.4616 82.8779 15.4031 83.522C15.9729 83.9185 16.6914 82.8779 17.1126 82.6054C17.509 82.3576 17.8806 81.9612 18.277 81.6887C18.6239 81.4409 19.1689 81.1188 19.3423 80.6977C19.4662 80.4004 19.2185 80.0039 19.1441 79.7562H19.1194Z" fill="#9E5725"/>
<path d="M18.3509 73.042C17.5581 71.2086 15.3779 72.0014 14.5851 73.364C14.5603 73.4136 14.5851 73.4631 14.5851 73.4879C13.6684 74.578 12.4792 75.6434 13.8666 76.8326C14.6594 77.5263 15.4522 78.443 16.3937 78.9633C16.5671 79.0624 16.6414 78.988 16.8148 78.8889C17.3351 78.5916 17.7811 77.997 18.3261 77.675C18.8216 77.3529 19.5897 76.8821 19.5649 76.1884C19.5401 75.024 18.8216 74.0825 18.3757 73.0667L18.3509 73.042Z" fill="#7F461D"/>
<path d="M18.3509 68.6816C18.0288 68.2356 16.8396 68.186 16.3689 68.3347C15.4026 68.6072 14.9567 69.1523 14.6098 70.069C14.2382 70.5397 13.9161 71.0352 13.6684 71.6298C13.2472 72.7199 13.8418 73.1411 14.4612 73.9339C14.9071 74.4542 15.7247 75.5939 16.5423 75.3709C16.9883 75.247 17.4342 74.7515 17.8306 74.5285C18.3013 74.256 18.7473 73.8596 19.1685 73.5127C20.878 72.1501 19.218 69.9946 18.3261 68.7063L18.3509 68.6816Z" fill="#9E5725"/>
<path d="M19.7136 65.981C19.3915 64.8413 19.0199 64.4945 17.8802 64.2467C16.6414 63.999 15.7495 65.2378 15.2045 66.1049C14.9567 66.3526 14.7337 66.6252 14.5355 66.9225C14.263 67.3189 13.817 67.8639 13.8666 68.3842C13.9161 69.0532 14.7585 69.6478 15.1549 70.1185C15.6009 70.5892 16.0468 71.2829 16.6662 71.5307C16.7158 71.5307 16.7901 71.5307 16.8149 71.4811C17.8059 70.5397 18.9208 69.7221 19.9861 68.9045C20.7789 68.2603 19.9613 66.6995 19.7384 65.9562L19.7136 65.981Z" fill="#7F461D"/>
<path d="M20.2835 61.1498C19.1933 59.8615 17.5334 59.6137 16.4185 60.5056C15.8487 60.7286 15.1797 61.5214 14.932 62.0417C14.4365 63.0327 14.0401 63.8751 14.6347 64.9156C15.1302 65.8075 15.9478 67.0215 16.8892 67.4923C17.5334 67.8143 19.0695 66.526 19.5154 66.2287C20.1844 65.7828 21.2745 64.8413 21.324 63.9742C21.3983 62.8593 21.0019 62.0169 20.2835 61.1498Z" fill="#9E5725"/>
<path d="M21.1012 57.1362C20.7791 56.3434 20.4075 55.625 19.4412 55.6497C18.8714 55.6497 18.3511 56.17 17.9051 56.7151C17.2858 57.161 16.4682 57.4831 16.1461 58.1768C15.6754 59.1678 15.9974 60.1341 16.4682 61.0755C16.6912 61.5215 16.9637 61.9674 17.2114 62.3886C17.3849 62.6859 17.5831 63.3549 17.9795 63.454C18.1777 63.5035 18.6732 63.2062 18.7723 63.1567C19.3917 62.8098 20.0606 62.5868 20.7048 62.2647C21.4976 61.8683 22.0426 61.6949 22.0922 60.7782C22.1417 59.6386 21.5967 58.1768 21.1507 57.1362H21.1012Z" fill="#7F461D"/>
<path d="M22.8851 54.6339C22.5135 54.0641 21.7702 52.4537 21.0022 52.2802C20.2094 52.1068 19.813 52.4289 19.367 53.0483C19.1688 53.1474 18.9954 53.2465 18.8219 53.3456C18.2273 53.6676 17.7814 54.0888 17.3106 54.5843C16.6169 55.3028 16.5674 56.0709 16.8895 56.9875C17.1868 57.8795 17.8309 59.143 18.4751 59.8119C19.0449 60.3818 20.5562 59.5394 21.1261 59.2916C21.9932 58.92 22.9099 58.4493 23.3311 57.5574C23.7027 56.7646 23.3311 55.3276 22.8851 54.6587V54.6339Z" fill="#9E5725"/>
<path d="M16.468 112.707C16.468 112.707 13.1481 110.626 11.8598 111.221C10.5714 111.815 11.0669 116.547 12.826 116.324C14.585 116.102 16.7157 113.451 16.7157 113.451C16.7157 113.451 20.8037 116.3 21.2992 115.284C21.7699 114.293 21.4974 110.081 20.4072 110.23C19.3171 110.378 16.468 112.732 16.468 112.732V112.707Z" fill="#E31C3C"/>
<path d="M35.1981 128.093C35.1981 128.093 34.4301 135.079 33.885 143.676C33.34 152.273 32.4976 172.812 32.4976 172.812C32.4976 172.812 31.8782 174.992 33.8603 175.067C35.8423 175.141 36.4617 173.754 36.4617 171.747C36.4617 169.74 38.8649 137.953 40.946 129.753L35.2229 128.118L35.1981 128.093Z" fill="#F4D9BF"/>
<path d="M55.8857 127.102C55.8857 127.102 61.1629 167.089 62.4017 171.202C62.4017 171.202 63.3431 172.218 64.6562 171.821C65.9693 171.425 65.672 169.269 65.672 168.947C65.672 168.625 61.0886 126.235 61.0886 126.235L55.8857 127.077V127.102Z" fill="#F4D9BF"/>
<path d="M32.7703 165.727C32.5968 169.864 32.473 172.812 32.473 172.812C32.473 172.812 31.8536 174.992 33.8356 175.067C35.8176 175.141 36.437 173.754 36.437 171.747C36.437 171.301 36.5361 169.468 36.7591 166.767C35.3965 166.569 34.0586 166.247 32.7951 165.751L32.7703 165.727Z" fill="#DFEFE7"/>
<path d="M65.0771 163.447C63.7888 163.844 62.4757 164.19 61.1626 164.488C61.6829 167.832 62.1288 170.31 62.4014 171.177C62.4014 171.177 63.3428 172.193 64.6559 171.796C65.969 171.4 65.6717 169.245 65.6717 168.923C65.6717 168.848 65.4487 166.718 65.1019 163.447H65.0771Z" fill="#DFEFE7"/>
<g style="mix-blend-mode:multiply" opacity="0.5">
<path d="M38.7905 144.023C39.0135 141.992 39.2365 140.431 39.5338 139.242L34.4301 137.483C34.4301 137.483 34.0832 139.787 33.885 143.33C35.545 143.924 37.0563 144.023 38.7905 144.023Z" fill="#E3BB94"/>
</g>
<g style="mix-blend-mode:multiply" opacity="0.5">
<path d="M62.6991 141.348C62.3275 137.929 62.4018 135.6 62.4018 135.6L57.199 136.442C57.199 136.442 57.4715 138.821 57.9422 142.438C59.627 142.091 61.0392 141.794 62.6743 141.323L62.6991 141.348Z" fill="#E3BB94"/>
</g>
<path d="M34.8764 173.977C34.8764 173.977 33.0926 171.499 30.6894 172.738C28.2862 173.977 27.1961 176.058 24.4956 176.603C21.7951 177.148 18.054 176.38 16.1958 178.065C15.0314 179.13 14.6846 180.74 14.5854 181.806C15.6012 182.425 17.4098 183.094 20.4572 183.342C25.2141 183.713 32.6714 182.078 36.6603 180.071V173.729C36.6603 173.729 35.9418 172.887 34.8764 173.952V173.977Z" fill="#5BB353"/>
<path d="M20.4568 183.367C17.4094 183.119 15.6256 182.45 14.585 181.831C14.5355 182.45 14.585 182.896 14.585 182.896C14.585 182.896 16.7405 185.448 25.833 184.283C34.9008 183.119 36.6846 181.112 36.6846 181.112V180.072C32.7206 182.078 25.2632 183.713 20.4815 183.342L20.4568 183.367Z" fill="#FFD219"/>
<path d="M70.1313 180.096C66.0929 179.824 62.5748 178.808 60.7415 178.189C60.7415 178.882 60.7662 179.303 60.7662 179.303C60.7662 179.303 60.5928 179.997 68.9669 180.914C77.3409 181.831 83.1384 179.303 83.1384 179.303C83.1879 178.957 83.1879 178.61 83.1879 178.288C79.9671 179.254 74.9873 180.418 70.1313 180.071V180.096Z" fill="#FFD219"/>
<path d="M83.1882 178.312C83.0643 176.652 81.9742 175.265 79.9674 175.067C77.5642 174.844 70.8997 171.97 69.7352 171.673C68.5708 171.375 68.1 169.641 66.1676 169.096C64.2351 168.551 63.0459 171.673 63.0459 171.673C63.0459 171.673 61.931 169.22 61.1877 170.186C60.6179 170.929 60.6674 175.934 60.717 178.213C62.5504 178.833 66.0685 179.824 70.1068 180.121C74.9876 180.468 79.9427 179.303 83.1634 178.337L83.1882 178.312Z" fill="#5BB353"/>
<path d="M32.1015 107.95C32.1015 107.95 31.4078 127.597 28.856 140.53C28.856 140.53 34.48 144.494 51.6493 142.041C70.3794 139.366 70.1069 135.649 70.1069 135.649C70.1069 135.649 62.377 105.894 57.8679 102.772L32.1263 107.95H32.1015Z" fill="#E21E26"/>
<g style="mix-blend-mode:multiply" opacity="0.3">
<path d="M70.1069 135.649C70.1069 135.649 61.9558 104.11 57.5954 102.772L51.1042 104.482C55.0435 108.074 58.19 127.077 59.6022 140.629C69.8839 138.449 70.1069 135.649 70.1069 135.649Z" fill="#8C191B"/>
</g>
<g style="mix-blend-mode:multiply" opacity="0.7">
<path d="M59.6021 104.878C58.9332 104.061 58.6854 103.144 58.1651 102.772L31.7546 107.232C31.7546 107.232 32.0519 108.52 32.0024 110.155C35.5948 110.552 50.237 111.617 59.5773 104.903L59.6021 104.878Z" fill="#8C191B"/>
</g>
<path d="M37.1309 67.6906C37.1309 67.6906 32.8695 69.0533 29.1532 73.6367C25.4369 78.2201 23.2815 81.9364 23.2815 81.9364C23.2815 81.9364 25.0405 86.1235 28.3109 87.5109L30.2186 84.1662C30.2186 84.1662 28.633 99.8985 29.0789 108.57C29.0789 108.57 45.3563 112.534 61.0887 102.847C61.0887 102.847 54.7462 85.182 52.0209 81.2179L55.2665 83.1504C55.2665 83.1504 57.7688 80.2022 57.9174 77.1796C57.9174 77.1796 46.05 69.6726 41.4914 68.5082L37.1557 67.6658L37.1309 67.6906Z" fill="#11B1C8"/>
<path d="M49.4191 77.0556C49.4191 77.0556 49.5182 77.229 49.5677 77.3281C49.6173 77.4272 49.6668 77.5015 49.7164 77.6007C49.8898 77.898 50.0384 78.1953 50.2119 78.5173C50.2862 78.6412 50.3605 78.7651 50.4348 78.889C50.4844 78.9881 50.5587 79.0872 50.6083 79.1615C50.9551 79.7066 51.302 80.2516 51.6736 80.7967C51.847 81.0444 51.9957 81.2426 52.0948 81.3665C52.2187 81.5152 52.293 81.6143 52.293 81.6143C52.293 81.6143 52.2435 81.5152 52.1691 81.317C52.0948 81.1435 51.9957 80.871 51.847 80.5737C51.5497 79.9543 51.1533 79.1615 50.6826 78.3935C50.2366 77.6254 49.7411 76.8574 49.3695 76.3123C49.1713 76.0398 48.9979 75.8168 48.874 75.6434C48.8245 75.5939 48.7997 75.5443 48.7749 75.4948C48.9731 76.0398 49.1961 76.5601 49.4438 77.0556H49.4191Z" fill="#177D8A"/>
<path d="M30.4908 83.4229C30.6394 82.531 30.8129 81.6143 31.0358 80.7224C31.1597 80.1773 31.2588 79.6075 31.3827 79.0624C31.3332 79.1615 31.3084 79.2854 31.2588 79.3845C31.1102 79.7809 31.0111 80.2269 30.8624 80.6481C30.7385 81.0692 30.6394 81.5152 30.5403 81.9116C30.466 82.3328 30.3917 82.7044 30.3421 83.0513C30.2926 83.3733 30.2678 83.6707 30.243 83.8689C30.243 84.0671 30.2183 84.1909 30.2183 84.1909C30.2183 84.1909 30.2678 84.0918 30.3421 83.8936C30.3917 83.7697 30.4412 83.6211 30.5156 83.4229H30.4908Z" fill="#177D8A"/>
<path d="M35.8923 75.9408C38.8405 77.5759 39.5342 73.1411 39.5342 73.1411C39.5342 73.1411 41.4667 76.9318 43.7213 75.2223C45.2326 74.0826 45.3317 71.1591 45.2573 69.3753C43.7956 68.6816 42.4577 68.1365 41.4667 67.864L37.131 67.0216C37.131 67.0216 35.372 67.5915 33.1174 69.2266C33.3156 71.3821 33.935 74.8259 35.8923 75.916V75.9408Z" fill="#FFD219"/>
<path d="M23.5044 118.009C23.5044 118.009 23.108 98.1146 27.2455 86.9162C26.1554 86.272 25.2387 85.1819 24.5202 84.1413C24.3963 84.513 18.8466 101.558 20.68 118.678C20.68 118.678 20.0854 120.239 20.3332 120.66C20.3332 120.66 17.3849 125.194 18.029 125.615C18.6732 126.061 18.7971 125.813 19.3669 124.822C19.9367 123.831 20.8782 121.75 20.7543 122.37C20.6305 123.014 20.4818 127.895 21.4976 127.3C22.5134 126.73 21.9188 121.651 22.2161 122.072C22.5134 122.469 23.0832 127.994 24.1238 126.953C25.1643 125.913 23.6035 120.685 24.2477 121.602C24.8918 122.543 26.5022 126.656 27.0473 125.194C27.5676 123.732 24.5945 119.669 25.536 119.669C26.4774 119.669 28.4595 120.487 28.6081 119.496C28.732 118.505 26.3536 117.266 23.5044 117.935V118.009Z" fill="#F4D9BF"/>
<path d="M36.5118 63.9247V69.1276C36.5118 69.1276 36.3136 72.5466 38.1222 72.9925C39.9308 73.4632 42.0119 72.2245 41.9376 70.1929C41.8632 68.1861 41.9376 65.436 41.9376 65.436L36.5118 63.9247Z" fill="#EFCAA7"/>
<g style="mix-blend-mode:multiply" opacity="0.3">
<path d="M36.5118 63.9247V69.1276C36.5118 69.1276 36.3136 72.5466 38.1222 72.9925C39.9308 73.4632 42.0119 72.2245 41.9376 70.1929C41.8632 68.1861 41.9376 65.436 41.9376 65.436L36.5118 63.9247Z" fill="#EFCAA7"/>
</g>
<g style="mix-blend-mode:multiply" opacity="0.3">
<g style="mix-blend-mode:multiply">
<path d="M26.2051 86.0986C26.7997 86.6685 27.5182 87.164 28.2862 87.5108L30.1939 84.1662C30.4912 81.0692 32.5723 75.5196 32.5723 75.5196C29.525 78.9881 26.9979 84.29 26.2051 86.0986Z" fill="#11B1C8"/>
</g>
<g style="mix-blend-mode:multiply">
<path d="M52.0705 81.1436L52.343 81.4161L55.2665 83.1504C55.2665 83.1504 55.9602 82.308 56.6539 81.0692C53.9038 79.1615 47.9082 74.1074 47.9082 74.1074L52.0952 81.1436H52.0705Z" fill="#11B1C8"/>
</g>
</g>
<path d="M59.5773 9.49328C59.5773 9.49328 51.5996 -1.40787 30.9618 9.2703C10.4478 19.8741 5.17063 47.7712 24.7431 60.2827C16.6416 50.6699 19.3669 44.5999 22.2161 39.2485C25.0652 33.8722 24.1485 27.7527 24.1485 27.7527C32.9686 29.9329 43.7706 24.4824 43.7706 24.4824C40.9214 27.6536 35.6691 28.9171 35.6691 28.9171C47.6851 29.7099 52.0208 21.3607 52.0208 21.3607C52.1199 25.3495 45.9013 32.3609 45.9013 32.3609C52.8631 31.1221 55.5637 23.7391 55.5637 23.7391C55.638 32.46 61.485 36.1515 61.485 36.1515C59.4782 32.7325 60.4692 27.4802 60.4692 27.4802C61.485 33.5997 70.0077 40.8341 70.0077 40.8341C67.4806 43.6337 64.8049 55.6745 64.1855 58.8705C63.5661 62.0665 57.9669 65.1882 57.9669 65.1882C57.9669 65.1882 69.5122 64.6679 76.4245 52.3794C83.3616 40.0908 81.5034 14.3988 59.5525 9.51805L59.5773 9.49328Z" fill="#F2A01F"/>
<path d="M59.5773 9.49328C59.5773 9.49328 51.5996 -1.40787 30.9618 9.2703C10.4478 19.8741 5.17063 47.7712 24.7431 60.2827C16.6416 50.6699 19.3669 44.5999 22.2161 39.2485C25.0652 33.8722 24.1485 27.7527 24.1485 27.7527C32.9686 29.9329 43.7706 24.4824 43.7706 24.4824C40.9214 27.6536 35.6691 28.9171 35.6691 28.9171C47.6851 29.7099 52.0208 21.3607 52.0208 21.3607C52.1199 25.3495 45.9013 32.3609 45.9013 32.3609C52.8631 31.1221 55.5637 23.7391 55.5637 23.7391C55.638 32.46 61.485 36.1515 61.485 36.1515C59.4782 32.7325 60.4692 27.4802 60.4692 27.4802C61.485 33.5997 70.0077 40.8341 70.0077 40.8341C67.4806 43.6337 64.8049 55.6745 64.1855 58.8705C63.5661 62.0665 57.9669 65.1882 57.9669 65.1882C57.9669 65.1882 69.5122 64.6679 76.4245 52.3794C83.3616 40.0908 81.5034 14.3988 59.5525 9.51805L59.5773 9.49328Z" fill="#7F461D"/>
<path d="M20.4077 43.0886C20.3333 43.262 20.2838 43.4354 20.2095 43.6089C20.2095 43.6089 20.2838 43.4107 20.4077 43.0886Z" fill="#CB6A28"/>
<path d="M66.1177 50.868C66.2168 50.4964 66.3159 50.1 66.4398 49.7284C66.3159 50.1 66.2168 50.4716 66.1177 50.868Z" fill="#CB6A28"/>
<path d="M65.8455 51.9086C65.9446 51.5866 66.0189 51.2397 66.118 50.8681C66.0189 51.2149 65.9198 51.5618 65.8455 51.9086Z" fill="#CB6A28"/>
<g style="mix-blend-mode:multiply" opacity="0.5">
<path d="M21.6213 25.5477C23.9502 32.1131 21.1754 40.8836 20.3826 43.0886C20.9029 41.7507 21.547 40.4872 22.1912 39.2484C25.0403 33.8722 24.1236 27.7527 24.1236 27.7527C31.6553 29.6108 40.6736 25.8945 43.1015 24.7796C45.3809 23.0206 47.239 20.9642 47.239 20.9642C34.9257 28.9171 21.5966 25.5477 21.5966 25.5477H21.6213Z" fill="#7F461D"/>
</g>
<g style="mix-blend-mode:multiply" opacity="0.5">
<path d="M52.1945 18.6602C47.7349 28.1243 35.6941 28.9171 35.6941 28.9171C47.7101 29.7099 52.0458 21.3607 52.0458 21.3607C52.3183 19.8494 52.1945 18.6354 52.1945 18.6354V18.6602Z" fill="#7F461D"/>
</g>
<g style="mix-blend-mode:multiply" opacity="0.5">
<path d="M72.6338 40.8341C60.1718 32.3609 59.8249 19.6016 59.8249 19.6016C56.1086 29.5861 61.5097 36.1763 61.5097 36.1763C59.5028 32.7573 60.4939 27.505 60.4939 27.505C61.5097 33.6245 70.0324 40.8589 70.0324 40.8589C68.7688 42.2463 67.4805 45.9626 66.4152 49.7284C68.2981 43.6337 72.609 40.8589 72.609 40.8589L72.6338 40.8341Z" fill="#7F461D"/>
</g>
<g style="mix-blend-mode:multiply" opacity="0.5">
<path d="M45.926 32.3857C52.4419 31.2213 55.2168 24.6806 55.5636 23.863C55.6627 22.203 55.6627 20.8404 55.6627 20.8404C53.7798 28.8428 45.9508 32.3857 45.9508 32.3857H45.926Z" fill="#7F461D"/>
</g>
<path d="M23.2317 37.4894C23.2317 37.4894 22.6371 34.2191 19.6889 34.9871C16.7654 35.7551 16.5424 43.2373 20.5065 43.3859C20.5065 43.3859 21.2002 41.3791 23.2317 37.4894Z" fill="#EFCAA7"/>
<path d="M19.2429 37.8116C19.2429 37.8116 19.5154 37.8116 19.8623 37.9602C20.0357 38.0346 20.2587 38.1337 20.4569 38.2575C20.6551 38.3814 20.8781 38.5548 21.0515 38.7283C21.1506 38.8274 21.2249 38.9265 21.324 39.0256C21.3984 39.1247 21.4727 39.2485 21.547 39.3477C21.6709 39.5706 21.7205 39.8184 21.7452 40.0166C21.7452 40.1157 21.7452 40.2148 21.7452 40.2891C21.7452 40.3634 21.7205 40.4378 21.6957 40.4873C21.6709 40.5864 21.6461 40.6607 21.6461 40.6607C21.6461 40.6607 21.6461 40.6112 21.5966 40.4873C21.5966 40.4378 21.5966 40.3634 21.547 40.2891C21.5223 40.2148 21.4975 40.1405 21.4727 40.0661C21.4231 39.9918 21.3736 39.9175 21.3488 39.8184C21.2993 39.7441 21.2249 39.645 21.1754 39.5706C21.0267 39.3972 20.9029 39.2238 20.7294 39.0751C20.5808 38.9017 20.3826 38.753 20.2092 38.6044C20.0357 38.4557 19.8623 38.3319 19.7384 38.208C19.4659 37.985 19.2677 37.7868 19.2677 37.7868L19.2429 37.8116Z" fill="#C39368"/>
<path d="M66.3162 48.5393C66.3162 48.5393 67.9266 46.4086 69.8591 47.9199C71.8163 49.4312 71.3208 52.5776 69.2645 54.0642C67.2081 55.5507 64.7058 54.7579 64.7058 54.7579C64.7058 54.7579 66.0685 49.4064 66.3162 48.5393Z" fill="#EFCAA7"/>
<path d="M65.3501 52.2555C65.3501 52.2555 65.5235 52.0077 65.8704 51.7104C66.0438 51.5618 66.242 51.4131 66.4898 51.2645C66.7375 51.1158 67.01 50.9919 67.3073 50.8928C67.6047 50.8185 67.902 50.7194 68.1993 50.7194C68.3479 50.7194 68.4718 50.7194 68.6204 50.7194C68.7443 50.7194 68.8682 50.7194 68.9921 50.769C69.215 50.8185 69.4133 50.8681 69.5124 50.9424C69.6362 50.9919 69.7106 51.0415 69.7106 51.0415C69.7106 51.0415 69.6362 51.0415 69.5124 51.0415C69.3885 51.0415 69.215 51.0415 68.9921 51.0663C68.893 51.0663 68.7691 51.0911 68.6452 51.1158C68.5213 51.1158 68.3975 51.1654 68.2736 51.1901C68.1497 51.1901 68.0258 51.2645 67.8772 51.2893C67.7533 51.314 67.6047 51.3636 67.4808 51.4131C66.9605 51.5866 66.4402 51.8095 66.019 51.983C65.5979 52.1564 65.3501 52.2803 65.3501 52.2803V52.2555Z" fill="#C39368"/>
<path d="M64.2353 58.8706C64.8547 55.6993 67.5304 43.6337 70.0575 40.8341C70.0575 40.8341 61.51 33.5997 60.519 27.4802C60.519 27.4802 59.528 32.7078 61.5348 36.1516C61.5348 36.1516 55.6878 32.4848 55.6135 23.7391C55.6135 23.7391 52.913 31.1222 45.9511 32.361C45.9511 32.361 52.1697 25.3248 52.0706 21.3607C52.0706 21.3607 47.7102 29.71 35.7189 28.9172C35.7189 28.9172 40.9713 27.6289 43.8205 24.4824C43.8205 24.4824 33.0184 29.933 24.1984 27.7528C24.1984 27.7528 25.1151 33.8723 22.2659 39.2485C19.4167 44.6 16.6915 50.6947 24.793 60.2828C24.9169 60.3571 25.0407 60.4562 25.1894 60.5305C25.1894 60.5305 31.408 67.864 42.3835 68.4091C53.359 68.9294 58.0663 65.1883 58.0663 65.1883C58.0663 65.1883 63.6655 62.0666 64.2849 58.8706H64.2353Z" fill="#F4D9BF"/>
<path d="M54.523 55.179C54.4239 55.0304 54.3496 54.8569 54.3248 54.6835C54.2009 54.3119 54.1514 53.9403 54.1514 53.5439C54.077 53.643 54.0275 53.7173 53.9779 53.8412C53.9036 54.0889 53.8045 54.3367 53.7549 54.6092C53.7054 54.9065 53.8045 55.2286 53.9532 55.5011C52.2684 56.9133 50.1625 58.0034 48.0814 58.6971C45.7277 59.5147 43.2998 59.5147 40.847 59.4404C38.5924 59.3908 36.2883 59.1431 34.1577 58.3998C32.1261 57.6813 29.4751 56.0462 29.4751 53.643C29.3512 55.5011 30.7634 56.839 32.2004 57.8052C34.3806 59.2917 36.9077 59.5395 39.4596 59.7872C44.5881 60.2827 50.2616 59.4899 54.077 55.6745C54.1018 55.7241 54.1266 55.7489 54.1514 55.7984C54.5725 56.3435 55.291 56.5664 55.96 56.5169C55.3406 56.3187 54.8451 55.8232 54.523 55.179Z" fill="#C39368"/>
<path d="M42.6559 46.1855C42.6559 46.1855 42.6559 46.3342 42.5568 46.5819C42.4825 46.8049 42.3091 47.1765 41.9127 47.4491C41.7145 47.5977 41.4915 47.6968 41.219 47.7464C40.9464 47.7959 40.6739 47.7959 40.3766 47.7464C40.327 47.7464 40.2032 47.7216 40.1784 47.7216H40.0793C40.0793 47.7216 40.0545 47.7216 40.0297 47.7216C39.9802 47.7216 39.9059 47.7711 39.8563 47.8455C39.7324 47.9941 39.6829 48.2666 39.6829 48.5144C39.6829 49.0347 39.8315 49.555 40.1041 49.9514C40.3766 50.3478 40.773 50.5955 41.1694 50.7194C41.5658 50.8185 41.9127 50.8433 42.1604 50.8185C42.4082 50.8185 42.5568 50.7689 42.5568 50.7689C42.5568 50.7689 42.5321 50.769 42.4577 50.8185C42.3834 50.8185 42.3091 50.8928 42.1852 50.9176C41.9374 50.9919 41.5658 51.0663 41.1199 51.0167C40.6739 50.9672 40.1288 50.6946 39.782 50.2239C39.4104 49.7532 39.2122 49.1586 39.2122 48.5144C39.2122 48.1923 39.2865 47.8702 39.4847 47.5729C39.5838 47.4243 39.782 47.3004 39.9802 47.2756C40.0297 47.2756 40.1041 47.2756 40.1536 47.2756H40.2527L40.4509 47.35C40.6987 47.4243 40.9217 47.4243 41.1446 47.4243C41.3676 47.3995 41.5658 47.35 41.7392 47.2509C42.0861 47.0774 42.3091 46.7801 42.433 46.5819C42.5568 46.3837 42.6064 46.2351 42.6064 46.2351L42.6559 46.1855Z" fill="#C39368"/>
<path d="M37.5022 34.6898C37.4031 34.4173 37.4774 34.12 37.4031 33.8227C37.3535 33.5997 37.2544 33.4263 37.1305 33.2281C36.8828 32.8564 36.3873 32.683 35.9661 32.6087C35.0742 32.46 34.3062 33.0546 33.7611 33.7483C33.6372 33.8474 33.5629 33.9713 33.4886 34.12C33.4142 34.2191 33.3647 34.2934 33.3151 34.3925C33.2904 34.4421 33.3151 34.4916 33.3647 34.4421C33.3647 34.4421 33.4142 34.3925 33.439 34.3677C33.439 34.4421 33.5629 34.4421 33.6124 34.3677C34.0336 33.8474 34.9255 33.6245 35.5449 33.6245C36.2139 33.6245 36.635 33.8474 36.9076 34.3182C36.9571 34.5164 37.0314 34.7394 37.1553 34.9128C37.2792 35.111 37.5517 34.8385 37.4774 34.6898H37.5022Z" fill="#B16527"/>
<path d="M55.6134 35.9781C54.6471 35.879 53.6313 36.2258 53.0863 37.0434C53.0615 37.0434 53.0119 37.093 52.9872 37.1178C52.9376 37.1673 52.9128 37.2416 52.9376 37.316C52.9376 37.316 52.9376 37.3407 52.9128 37.3655C52.9128 37.4151 52.9376 37.4398 52.9872 37.4151C52.9872 37.4151 53.0367 37.4151 53.0615 37.4151C54.5232 36.9196 56.7778 36.8452 57.2237 38.6786C57.2733 38.852 57.4715 38.6786 57.4715 38.5795C57.4963 37.3903 56.9264 36.1515 55.6134 36.0029V35.9781Z" fill="#B16527"/>
<path d="M36.1896 40.735C35.7684 42.3206 34.8517 43.4603 34.158 43.2868C33.4643 43.0886 33.2413 41.6517 33.6625 40.0661C34.0837 38.4804 35.0004 37.3408 35.6941 37.539C36.3878 37.7124 36.6108 39.1741 36.1896 40.7598V40.735Z" fill="#3B1B0F"/>
<path d="M35.0741 39.1494C34.9007 39.6201 34.6034 39.9422 34.4052 39.8679C34.207 39.7936 34.1575 39.3476 34.3309 38.8769C34.5043 38.4062 34.8016 38.0841 34.9998 38.1584C35.198 38.2327 35.2228 38.6787 35.0741 39.1494Z" fill="white"/>
<path d="M55.2912 44.4761C54.87 46.0617 53.9533 47.2014 53.2596 47.0279C52.5659 46.8297 52.3429 45.3928 52.7641 43.8071C53.1852 42.2215 54.1019 41.0819 54.7956 41.2553C55.4894 41.4535 55.7123 42.8905 55.2912 44.4761Z" fill="#3B1B0F"/>
<path d="M54.1762 42.8657C54.0028 43.3365 53.7055 43.6585 53.5073 43.5842C53.3091 43.5099 53.2843 43.0639 53.433 42.5932C53.6064 42.1225 53.9037 41.8004 54.1019 41.8747C54.3001 41.949 54.3497 42.395 54.1762 42.8657Z" fill="white"/>
<path d="M60.2958 48.1923C60.494 49.109 58.8341 50.2487 56.629 50.7442C54.3993 51.2149 52.442 50.8433 52.2438 49.9266C52.0456 49.0099 53.6808 47.8702 55.9106 47.3995C58.1403 46.9288 60.0976 47.3004 60.2958 48.2171V48.1923Z" fill="#F8CBC1"/>
<path d="M32.4731 45.5415C31.829 46.2352 29.946 45.5167 28.3109 43.9311C26.6509 42.3454 25.8581 40.5121 26.5023 39.8431C27.1464 39.1494 29.0293 39.8927 30.6645 41.4535C32.3245 43.0391 33.1173 44.8478 32.4731 45.5415Z" fill="#F8CBC1"/>
<g style="mix-blend-mode:multiply" opacity="0.3">
<path d="M51.996 81.2179L52.2189 81.3418L52.0703 81.1436C52.0703 81.1436 48.131 73.9835 45.8765 71.6794C45.8765 71.6794 52.4172 91.6979 55.1177 105.894C57.0749 105.077 59.0817 104.061 61.0637 102.847C61.0637 102.847 54.7213 85.182 51.996 81.2179Z" fill="#11B1C8"/>
</g>
</svg>
