<?xml version="1.0" encoding="UTF-8"?><svg id="Layer_2" xmlns="http://www.w3.org/2000/svg" width="134.6" height="44.49" xmlns:xlink="http://www.w3.org/1999/xlink" viewBox="0 0 134.6 44.49"><defs><linearGradient id="linear-gradient" x1="67.07" y1="-4.99" x2="67.48" y2="43.66" gradientUnits="userSpaceOnUse"><stop offset=".12" stop-color="#4c6596"/><stop offset=".44" stop-color="#3d4e88"/><stop offset=".61" stop-color="#35417b"/><stop offset=".91" stop-color="#2a3069"/></linearGradient><linearGradient id="linear-gradient-2" x1="65.66" y1="-4.98" x2="66.07" y2="43.67" xlink:href="#linear-gradient"/><linearGradient id="linear-gradient-3" x1="65.66" y1="-4.98" x2="66.07" y2="43.67" xlink:href="#linear-gradient"/></defs><g id="_כפתורים"><path d="m84.19,44.49c-8.25,0-52.97-.4-64.53-1.48-6.21-.58-10.56-2.27-13.67-5.31-2.77-2.71-4.6-6.36-5.58-11.17l-.05-.25-.03-.17c-.43-3.22-.43-4.98,0-8.17C1.97,8.24,9.01,2.09,19.64,1.03c10.39-1.03,20.75-1.03,30.77-1.03,4.66,0,14.63.15,22.65.26h.08c5.21.08,9.7.14,11.06.14,10.23,0,20.8,0,30.78,1.03,10.63,1.1,17.66,7.22,19.29,16.8.45,3.33.45,5.01.02,8.24l-.02.15c-.65,3.32-1.68,6.06-3.14,8.36-.22.35-.45.69-.69,1.01-3.06,4.18-8.11,6.6-15.43,7.4-9.9,1.08-20.52,1.08-30.8,1.08Z" fill="#03072d"/><path d="m84.19,42.87c-8.24,0-52.9-.4-64.42-1.48-5.92-.55-10.04-2.13-12.94-4.97-2.6-2.54-4.31-5.99-5.24-10.55l-.05-.26v-.09c-.43-3.1-.43-4.78-.02-7.85C3.06,8.57,9.7,2.8,19.76,1.8c10.33-1.02,20.66-1.02,30.65-1.02,4.64,0,14.62.15,22.63.26,5.25.08,9.78.14,11.15.14,10.2,0,20.74,0,30.66,1.03,10.05,1.04,16.7,6.8,18.23,15.81.43,3.17.43,4.78,0,7.88v.08c-.64,3.18-1.61,5.77-2.99,7.95-.21.33-.43.65-.64.95-2.85,3.89-7.62,6.16-14.59,6.92-9.83,1.07-20.42,1.07-30.67,1.07Z" fill="#6d7eb2"/><path d="m131.89,18.22c-1.43-8.43-7.69-13.83-17.17-14.81-9.85-1.02-20.37-1.02-30.53-1.02-3.44,0-26.06-.41-33.78-.41-9.96,0-20.26,0-30.53,1.02-9.47.94-15.73,6.34-17.18,14.84-.4,2.98-.4,4.52,0,7.5v.05c.02.09.04.17.06.25.88,4.31,2.49,7.57,4.91,9.93,2.7,2.64,6.58,4.11,12.22,4.63,11.43,1.07,56.58,1.47,64.31,1.47,10.21,0,20.77,0,30.54-1.07,6.62-.72,11.12-2.83,13.76-6.43.21-.28.41-.58.6-.88,1.3-2.05,2.22-4.51,2.81-7.5v-.05c.41-2.98.41-4.52,0-7.52Z" fill="url(#linear-gradient)"/><path d="m78.66,38.15c-43.9.07-66.15-.87-75.9-12.51,1.21,4.31,3.42,7.57,6.75,9.93,3.71,2.64,9.06,4.11,16.81,4.63,4.15.28,8.06.56,11.85.81,17.59.47,40.69.66,46.02.66,10.21,0,20.77,0,30.54-1.07,6.62-.72,11.12-2.83,13.76-6.43.21-.28.41-.58.6-.88.02-.03.04-.07.06-.1-18.83,5.98-32.08,4.93-50.48,4.96Z" fill="url(#linear-gradient-2)"/><path d="m129.14,33.19h0s-.04.07-.06.1c.02-.03.04-.07.06-.1Z" fill="#0b1a42" opacity=".37"/><path d="m78.66,38.15c-43.9.07-66.15-.87-75.9-12.51.88,4.31,2.49,7.57,4.91,9.93,2.7,2.64,6.58,4.11,12.22,4.63,11.43,1.07,56.58,1.47,64.31,1.47,10.21,0,20.77,0,30.54-1.07,6.62-.72,11.12-2.83,13.76-6.43.21-.28.41-.58.6-.88.02-.03.04-.07.06-.1-18.83,5.98-32.08,4.93-50.48,4.96Z" fill="url(#linear-gradient-3)"/><path d="m78.66,38.15c-43.9.07-66.15-.87-75.9-12.51.88,4.31,2.49,7.57,4.91,9.93,2.7,2.64,6.58,4.11,12.22,4.63,11.43,1.07,56.58,1.47,64.31,1.47,10.21,0,20.77,0,30.54-1.07,6.62-.72,11.12-2.83,13.76-6.43.21-.28.41-.58.6-.88.02-.03.04-.07.06-.1-18.83,5.98-32.08,4.93-50.48,4.96Z" fill="#0b1a42" opacity=".37"/><path d="m17.12,6.84c-.16.63-1.31.26-3.3.96-3.07,1.07-2.77,2.7-3.67,2.17-.56-.33.74-2.14,2.66-3s4.47-.74,4.31-.12Z" fill="#fff"/><ellipse cx="9.3" cy="11.28" rx=".62" ry=".63" transform="translate(-2.78 19.52) rotate(-84.8)" fill="#fff"/><g opacity=".63"><path d="m21.22,28.54c-.42,0-.71-.08-.85-.24-.15-.16-.22-.43-.22-.81,0-.23.03-.43.08-.59.05-.16.16-.29.31-.38.15-.09.37-.13.67-.13.43,0,.72.08.86.24.14.16.21.43.21.81,0,.23-.03.42-.08.58-.05.16-.16.28-.31.38-.15.09-.37.14-.67.14Zm0-4.03c-.27,0-.47-.03-.6-.09-.13-.06-.21-.16-.25-.28-.04-.13-.06-.29-.06-.48v-8.48c0-.18.02-.33.06-.46.04-.13.13-.23.25-.31.13-.07.32-.11.58-.11.27,0,.47.03.6.1.13.07.21.17.25.3.04.13.06.29.06.48v8.46c0,.18-.02.33-.06.47-.04.14-.12.24-.24.31s-.32.1-.59.1Z" fill="#cbe9f4"/><path d="m33.16,18.75l-1.24-.45h-6.1c-.34,0-.59-.07-.75-.22s-.26-.39-.28-.73l-.16-3.17c0-.18.02-.33.07-.46.05-.13.15-.23.3-.31.15-.07.35-.11.61-.11.24,0,.42.04.53.12.11.08.19.19.23.34s.07.31.07.5l.12,2.22h5.17c.43,0,.78.09,1.04.28.26.19.42.46.5.8.07.35.04.74-.09,1.19Zm-5.6,9.7c-.33-.16-.54-.34-.63-.53-.09-.19-.06-.41.1-.65.62-.96,1.18-1.86,1.68-2.7.5-.83.94-1.63,1.32-2.38.39-.75.73-1.5,1.03-2.25.3-.75.56-1.51.77-2.3l1.36,1.04c-.31,1.02-.68,1.99-1.1,2.93-.42.94-.9,1.91-1.44,2.93-.54,1.02-1.18,2.16-1.91,3.42-.08.16-.18.3-.3.41-.12.11-.24.18-.39.2-.14.03-.31-.01-.5-.12Z" fill="#cbe9f4"/><path d="m36.68,22.76c-.24,0-.43-.04-.55-.13-.12-.09-.21-.2-.25-.34-.05-.14-.07-.28-.07-.45v-4.48c0-.16.02-.31.07-.45.05-.14.14-.24.26-.33.13-.08.32-.12.56-.12.26,0,.45.04.58.13.13.09.21.2.25.33.04.13.06.28.06.46v4.48c0,.16-.02.31-.07.45-.05.14-.14.24-.26.33-.13.08-.32.12-.58.12Z" fill="#cbe9f4"/><path d="m41.56,28.52c-.24,0-.43-.04-.56-.12-.13-.08-.22-.19-.27-.34s-.08-.3-.08-.46v-10.21c0-.16.03-.31.08-.45.05-.14.15-.24.27-.33.13-.08.32-.12.56-.12l3.99-.02c.92,0,1.74.13,2.44.39.7.26,1.29.65,1.76,1.17.47.52.82,1.17,1.06,1.94.24.77.36,1.68.36,2.73v4.88c0,.18-.02.34-.06.48s-.13.25-.25.34c-.13.08-.32.12-.58.12-.24,0-.43-.03-.56-.1-.13-.07-.22-.17-.26-.3-.05-.13-.07-.26-.07-.4v-4.99c0-.73-.08-1.38-.24-1.93-.16-.56-.4-1.02-.71-1.39-.31-.37-.7-.65-1.17-.83-.47-.18-1.01-.27-1.64-.27h-3.13v9.28c0,.18-.02.34-.07.48s-.14.25-.26.34c-.13.08-.32.12-.58.12Z" fill="#cbe9f4"/><path d="m56.19,26.69v-8.91l.75.57c-.39.01-.73.02-1.01.02s-.5-.03-.67-.08c-.17-.05-.29-.14-.37-.25-.07-.12-.11-.27-.11-.48,0-.38.09-.64.26-.79.18-.15.53-.23,1.06-.24l3.54-.04c1.27-.01,2.34.21,3.2.67s1.51,1.15,1.95,2.08c.44.92.66,2.08.66,3.48v4.88c0,.18-.02.34-.07.48s-.14.25-.26.34c-.13.08-.32.12-.56.12s-.43-.03-.56-.1c-.13-.07-.22-.17-.27-.3-.05-.13-.08-.26-.08-.4v-4.99c0-.99-.14-1.81-.42-2.46s-.69-1.14-1.25-1.48c-.56-.33-1.25-.5-2.1-.5h-1.87v8.89c0,.43-.08.76-.23.99-.16.22-.39.34-.7.34" fill="#cbe9f4"/><path d="m73.99,26.69l-.02,1.83m-.06,0c-.24,0-.43-.03-.56-.1-.13-.07-.22-.17-.27-.3-.05-.13-.08-.26-.08-.4v-5.57c0-.85-.1-1.57-.31-2.14-.2-.57-.51-1-.92-1.28-.41-.28-.92-.43-1.55-.43h-.71c-.18,0-.34-.02-.48-.07-.14-.05-.25-.14-.34-.27-.08-.14-.12-.33-.12-.57,0-.26.04-.45.12-.57.08-.12.19-.21.34-.26.14-.05.29-.08.46-.08h.69c1.02,0,1.87.21,2.55.63.69.42,1.2,1.04,1.55,1.87.35.83.52,1.87.52,3.11v5.49c0,.18-.02.34-.06.48s-.13.25-.26.34c-.14.08-.33.12-.57.12Z" fill="#cbe9f4"/><path d="m83.53,28.52c-.24,0-.43-.04-.55-.12-.12-.08-.21-.19-.25-.34s-.07-.3-.07-.46v-10.23c0-.16.02-.31.07-.45.05-.14.14-.24.26-.33.13-.08.32-.12.56-.12.26,0,.45.04.58.13.13.09.21.2.25.33.04.13.06.28.06.46v10.23c0,.16-.02.31-.07.45-.05.14-.14.24-.26.33-.13.08-.32.12-.58.12Z" fill="#cbe9f4"/><path d="m87.67,28.5c-.26-.07-.43-.16-.53-.28-.1-.12-.14-.27-.13-.46,0-.18.04-.38.09-.58l2.38-8.14,1.49.61-2.12,7.89c-.07.27-.14.49-.21.65-.07.16-.18.27-.33.32-.14.05-.36.04-.64-.01Zm7.17-2.33l-6.42-7.81c-.16-.2-.3-.39-.4-.56-.1-.17-.14-.34-.1-.5s.17-.34.42-.53c.23-.18.42-.25.58-.23.16.02.31.1.45.23.14.14.3.31.46.53l6.2,7.52m-.81.15l-.69-.59,1.75-6.84c.07-.22.14-.41.21-.57.07-.16.19-.28.35-.35.16-.07.38-.05.68.04.26.08.43.19.51.32.08.13.11.28.08.46-.03.18-.07.38-.14.61l-1.36,5.13c-.08.28-.18.53-.28.72-.11.2-.25.38-.43.54s-.4.34-.67.53Z" fill="#cbe9f4"/><path d="m101.7,28.52c-.24,0-.43-.04-.55-.12-.12-.08-.21-.19-.25-.34s-.07-.3-.07-.46v-10.23c0-.16.02-.31.07-.45.05-.14.14-.24.26-.33.13-.08.32-.12.56-.12.26,0,.45.04.58.13.13.09.21.2.25.33.04.13.06.28.06.46v10.23c0,.16-.02.31-.07.45-.05.14-.14.24-.26.33-.13.08-.32.12-.58.12Z" fill="#cbe9f4"/><path d="m111.1,26.71h4.14c.18,0,.33.02.47.07.14.05.24.14.33.26.08.13.12.32.12.58,0,.24-.04.43-.12.56-.08.13-.19.22-.33.26-.14.05-.3.07-.49.07h-4.02m2.37,0c-.24,0-.43-.03-.56-.1-.13-.07-.22-.16-.27-.28-.05-.12-.08-.25-.08-.39v-5.01c0-.73-.08-1.38-.23-1.93-.16-.56-.39-1.02-.7-1.39-.31-.37-.7-.65-1.17-.83-.47-.18-1.02-.27-1.66-.27h-2.26c-.18,0-.34-.02-.48-.07-.14-.05-.25-.14-.34-.27-.08-.14-.12-.33-.12-.57,0-.26.04-.45.12-.57.08-.12.19-.21.33-.26.14-.05.29-.08.47-.08h2.22c.94,0,1.76.13,2.46.4.7.26,1.29.66,1.76,1.18.47.52.82,1.17,1.06,1.94s.36,1.68.36,2.71v4.9c0,.18-.02.33-.06.47-.04.14-.13.24-.26.33-.14.08-.33.12-.57.12Z" fill="#cbe9f4"/></g><path d="m20.37,31.5c-.67,0-1.16-.17-1.47-.52-.3-.32-.44-.78-.44-1.38,0-.32.04-.6.12-.86.12-.35.35-.64.67-.83.29-.17.65-.25,1.1-.25.69,0,1.18.17,1.5.53.28.32.42.77.42,1.37,0,.33-.04.61-.13.85-.12.34-.34.62-.65.81-.29.19-.66.27-1.12.27Zm0-4.03c-.41,0-.71-.06-.96-.17-.34-.16-.58-.44-.69-.79-.07-.21-.1-.45-.1-.73v-8.48c0-.26.03-.5.1-.71.11-.33.33-.6.64-.78.26-.15.59-.22,1-.22s.74.06.99.2c.33.17.56.44.66.79.07.21.1.45.1.73v8.46c0,.26-.03.5-.1.71-.1.35-.33.62-.64.8-.25.14-.57.21-1,.21Z" fill="#03072d"/><path d="m27.13,31.55c-.26,0-.53-.08-.81-.23-.49-.25-.81-.54-.99-.9-.13-.27-.29-.82.15-1.49.6-.93,1.16-1.83,1.66-2.66.48-.82.92-1.6,1.3-2.34.37-.73.71-1.46.99-2.18.06-.16.13-.33.19-.49h-4.66c-.56,0-1-.15-1.32-.45-.32-.3-.51-.73-.55-1.29l-.17-3.24c0-.28.04-.53.12-.75.08-.23.28-.55.71-.77.27-.14.59-.2.99-.2.43,0,.77.09,1.03.29.24.18.43.44.53.74.07.22.11.47.11.74l.08,1.4h4.37c.62,0,1.13.15,1.54.45.42.31.7.76.82,1.3.06.29.07.61.04.94l.05.04-.15.57c-.32,1.04-.7,2.06-1.14,3.03-.42.95-.92,1.95-1.47,2.98-.54,1.02-1.19,2.17-1.92,3.42-.12.24-.28.45-.46.62-.23.22-.5.36-.8.42-.08.02-.16.02-.25.02Z" fill="#03072d"/><path d="m35.83,25.72c-.43,0-.77-.1-1.04-.29-.26-.19-.45-.44-.55-.74-.08-.22-.12-.47-.12-.73v-4.48c0-.26.04-.5.12-.73.11-.32.32-.58.61-.76.27-.17.6-.25,1.01-.25.44,0,.78.09,1.05.28.29.2.49.46.58.77.07.21.1.45.1.71v4.48c0,.26-.04.5-.12.72-.11.32-.32.58-.61.76-.27.17-.61.25-1.03.25Z" fill="#03072d"/><path d="m49.42,31.48c-.39,0-.7-.06-.95-.2-.32-.17-.55-.43-.66-.75-.08-.22-.12-.45-.12-.69v-4.99c0-.65-.07-1.22-.21-1.7-.13-.44-.31-.81-.55-1.09-.22-.26-.49-.46-.83-.59-.37-.14-.82-.22-1.33-.22h-2.29v8.44c0,.27-.04.52-.11.74-.11.33-.32.6-.61.78-.27.17-.61.25-1.03.25s-.74-.08-1.01-.25c-.28-.18-.49-.44-.61-.75-.09-.24-.14-.49-.14-.76v-10.21c0-.27.05-.52.14-.76.12-.3.33-.55.61-.73.27-.17.6-.25,1.01-.25l3.98-.02c1.02,0,1.94.15,2.73.44.83.31,1.54.78,2.1,1.4.55.61.96,1.37,1.24,2.26.26.85.39,1.85.39,2.97v4.88c0,.25-.03.49-.09.71-.1.34-.31.62-.61.82-.27.17-.61.25-1.03.25Z" fill="#03072d"/><path d="m63.72,31.48c-.38,0-.7-.06-.95-.2-.3-.16-.53-.41-.66-.72-.1-.23-.15-.47-.15-.72v-4.99c0-.87-.12-1.59-.35-2.13-.21-.49-.51-.84-.91-1.08-.42-.25-.98-.38-1.66-.38h-1.03v8.05c0,.62-.13,1.09-.38,1.47-.32.45-.81.7-1.39.7h-2.62c-.28,0-.54-.05-.78-.14-.3-.12-.55-.33-.73-.61-.17-.27-.25-.6-.25-1.01s.08-.76.25-1.03c.18-.29.45-.5.76-.61.22-.08.47-.12.73-.12h.91v-6.68c-.12-.02-.24-.05-.34-.08-.45-.14-.69-.4-.82-.6-.16-.25-.25-.57-.25-.94,0-.64.19-1.12.56-1.44.33-.28.83-.42,1.58-.44l3.67-.04c1.36,0,2.54.26,3.49.77,1.02.55,1.8,1.37,2.32,2.45.49,1.03.74,2.33.74,3.84v4.88c0,.27-.04.52-.11.74-.11.33-.32.59-.61.78-.27.17-.6.25-1.01.25Z" fill="#03072d"/><path d="m68.28,31.48c-.29,0-.56-.05-.8-.14-.3-.12-.55-.33-.73-.61-.17-.27-.25-.6-.25-1.01s.08-.76.25-1.03c.18-.29.44-.5.76-.61.22-.08.47-.12.75-.12h3.04v-3.7c0-.75-.09-1.38-.26-1.85-.14-.41-.34-.69-.61-.88-.26-.18-.62-.27-1.06-.27h-.71c-.27,0-.52-.04-.74-.11-.33-.11-.61-.33-.79-.64-.16-.27-.24-.6-.24-1,0-.43.09-.77.26-1.04.18-.27.43-.47.74-.58.24-.09.49-.14.76-.14h.69c1.17,0,2.18.25,2.99.75.84.51,1.47,1.27,1.88,2.26.39.93.58,2.08.58,3.44v5.49c0,.25-.03.49-.09.71-.1.35-.32.63-.64.83-.04.02-.07.04-.11.06v.18s-.83,0-.83,0h-4.84Z" fill="#03072d"/><path d="m82.69,31.48c-.42,0-.75-.09-1.01-.26-.28-.19-.48-.45-.59-.77-.08-.23-.11-.47-.11-.72v-10.23c0-.26.04-.5.12-.73.11-.32.32-.58.61-.76.27-.17.6-.25,1.01-.25.44,0,.78.09,1.05.28.29.2.49.46.58.77.07.21.1.45.1.71v10.23c0,.26-.04.5-.12.72-.11.32-.32.58-.61.76-.27.17-.61.25-1.03.25Z" fill="#03072d"/><path d="m96.32,31.62c-.3,0-.58-.09-.81-.27-.17-.13-.32-.28-.48-.47l-4.89-5.95-1.33,4.95c-.08.31-.16.57-.26.78-.22.48-.57.68-.82.76-.16.05-.32.08-.51.08-.17,0-.35-.02-.55-.06h-.06c-.45-.13-.77-.32-.98-.6-.22-.28-.32-.63-.31-1.01,0-.24.05-.5.12-.77l2.13-7.28-.64-.78c-.19-.24-.35-.46-.47-.66-.21-.35-.28-.73-.2-1.1.08-.37.31-.7.72-1.02.37-.28.71-.41,1.05-.41.05,0,.11,0,.16.01.33.04.64.2.92.46.18.17.36.38.55.63l3.89,4.72,1.08-4.22c.08-.25.16-.47.25-.67.16-.35.43-.62.78-.77.17-.07.36-.11.57-.11s.44.04.7.12c.46.14.77.36.97.67.19.3.26.66.2,1.03-.03.22-.09.46-.17.72l-1.36,5.11c-.1.36-.22.66-.36.91-.05.09-.1.17-.16.25l1.69,2.06c.17.19.31.41.39.64.12.32.11.66-.01,1-.12.3-.34.57-.66.8-.32.24-.63.38-.94.42-.07,0-.13.01-.2.01Z" fill="#03072d"/><path d="m100.86,31.48c-.42,0-.75-.09-1.01-.26-.28-.19-.48-.45-.59-.77-.08-.23-.11-.47-.11-.72v-10.23c0-.26.04-.5.12-.73.11-.32.32-.58.61-.76.27-.17.6-.25,1.01-.25.44,0,.78.09,1.05.28.29.2.49.46.58.77.07.21.1.45.1.71v10.23c0,.26-.04.5-.12.72-.11.32-.32.58-.61.76-.27.17-.61.25-1.03.25Z" fill="#03072d"/><path d="m105.58,31.48c-.27,0-.52-.04-.74-.12-.33-.11-.6-.32-.78-.61-.17-.27-.25-.6-.25-1.01s.08-.76.25-1.03c.19-.29.46-.51.78-.61.23-.08.47-.11.72-.11h5.41v-3.13c0-.65-.07-1.23-.2-1.71-.12-.44-.3-.8-.54-1.08-.22-.26-.49-.46-.83-.59-.37-.14-.82-.22-1.35-.22h-2.26c-.27,0-.52-.04-.74-.11-.33-.11-.61-.33-.79-.64-.16-.27-.24-.6-.24-1,0-.43.09-.77.26-1.04.17-.26.42-.46.71-.58.24-.09.5-.14.78-.14h2.22c1.03,0,1.96.15,2.76.45.83.31,1.53.78,2.09,1.41.55.61.96,1.37,1.24,2.26.26.85.39,1.84.39,2.95v3.17c.24,0,.47.05.68.12.32.11.58.32.76.61.17.27.25.6.25,1.03s-.08.74-.25,1.01c-.18.29-.44.5-.76.61-.23.08-.48.12-.77.12h-8.79Z" fill="#03072d"/><path d="m21.22,29.39c-.42,0-.71-.08-.85-.24-.15-.16-.22-.43-.22-.81,0-.23.03-.43.08-.59.05-.16.16-.29.31-.38.15-.09.37-.13.67-.13.43,0,.72.08.86.24.14.16.21.43.21.81,0,.23-.03.42-.08.58-.05.16-.16.28-.31.38-.15.09-.37.14-.67.14Zm0-4.03c-.27,0-.47-.03-.6-.09-.13-.06-.21-.16-.25-.28-.04-.13-.06-.29-.06-.48v-8.48c0-.18.02-.33.06-.46.04-.13.13-.23.25-.31.13-.07.32-.11.58-.11.27,0,.47.03.6.1.13.07.21.17.25.3.04.13.06.29.06.48v8.46c0,.18-.02.33-.06.47-.04.14-.12.24-.24.31s-.32.1-.59.1Z" fill="#fff"/><path d="m33.16,19.6l-1.24-.45h-6.1c-.34,0-.59-.07-.75-.22s-.26-.39-.28-.73l-.16-3.17c0-.18.02-.33.07-.46.05-.13.15-.23.3-.31.15-.07.35-.11.61-.11.24,0,.42.04.53.12.11.08.19.19.23.34s.07.31.07.5l.12,2.22h5.17c.43,0,.78.09,1.04.28.26.19.42.46.5.8.07.35.04.74-.09,1.19Zm-5.6,9.7c-.33-.16-.54-.34-.63-.53-.09-.19-.06-.41.1-.65.62-.96,1.18-1.86,1.68-2.7.5-.83.94-1.63,1.32-2.38.39-.75.73-1.5,1.03-2.25.3-.75.56-1.51.77-2.3l1.36,1.04c-.31,1.02-.68,1.99-1.1,2.93-.42.94-.9,1.91-1.44,2.93-.54,1.02-1.18,2.16-1.91,3.42-.08.16-.18.3-.3.41-.12.11-.24.18-.39.2-.14.03-.31-.01-.5-.12Z" fill="#fff"/><path d="m36.68,23.61c-.24,0-.43-.04-.55-.13-.12-.09-.21-.2-.25-.34-.05-.14-.07-.28-.07-.45v-4.48c0-.16.02-.31.07-.45.05-.14.14-.24.26-.33.13-.08.32-.12.56-.12.26,0,.45.04.58.13.13.09.21.2.25.33.04.13.06.28.06.46v4.48c0,.16-.02.31-.07.45-.05.14-.14.24-.26.33-.13.08-.32.12-.58.12Z" fill="#fff"/><path d="m41.56,29.37c-.24,0-.43-.04-.56-.12-.13-.08-.22-.19-.27-.34s-.08-.3-.08-.46v-10.21c0-.16.03-.31.08-.45.05-.14.15-.24.27-.33.13-.08.32-.12.56-.12l3.99-.02c.92,0,1.74.13,2.44.39.7.26,1.29.65,1.76,1.17.47.52.82,1.17,1.06,1.94.24.77.36,1.68.36,2.73v4.88c0,.18-.02.34-.06.48s-.13.25-.25.34c-.13.08-.32.12-.58.12-.24,0-.43-.03-.56-.1-.13-.07-.22-.17-.26-.3-.05-.13-.07-.26-.07-.4v-4.99c0-.73-.08-1.38-.24-1.93-.16-.56-.4-1.02-.71-1.39-.31-.37-.7-.65-1.17-.83-.47-.18-1.01-.27-1.64-.27h-3.13v9.28c0,.18-.02.34-.07.48s-.14.25-.26.34c-.13.08-.32.12-.58.12Z" fill="#fff"/><path d="m54.46,29.37c-.18,0-.33-.03-.47-.08-.14-.05-.24-.15-.33-.27-.08-.13-.12-.32-.12-.56,0-.26.04-.45.12-.58.08-.13.19-.22.33-.26.14-.05.28-.07.45-.07h1.75v-8.91l.75.57c-.39.01-.73.02-1.01.02s-.5-.03-.67-.08c-.17-.05-.29-.14-.37-.25-.07-.12-.11-.27-.11-.48,0-.38.09-.64.26-.79.18-.15.53-.23,1.06-.24l3.54-.04c1.27-.01,2.34.21,3.2.67s1.51,1.15,1.95,2.08c.44.92.66,2.08.66,3.48v4.88c0,.18-.02.34-.07.48s-.14.25-.26.34c-.13.08-.32.12-.56.12s-.43-.03-.56-.1c-.13-.07-.22-.17-.27-.3-.05-.13-.08-.26-.08-.4v-4.99c0-.99-.14-1.81-.42-2.46s-.69-1.14-1.25-1.48c-.56-.33-1.25-.5-2.1-.5h-1.87v8.89c0,.43-.08.76-.23.99-.16.22-.39.34-.7.34h-2.62Z" fill="#fff"/><path d="m69.13,29.37c-.19,0-.35-.03-.49-.08-.14-.05-.24-.15-.33-.27-.08-.13-.12-.32-.12-.56,0-.26.04-.45.12-.58.08-.13.19-.22.33-.26.14-.05.29-.07.47-.07h4.88l-.02,1.83h-4.84Zm4.78,0c-.24,0-.43-.03-.56-.1-.13-.07-.22-.17-.27-.3-.05-.13-.08-.26-.08-.4v-5.57c0-.85-.1-1.57-.31-2.14-.2-.57-.51-1-.92-1.28-.41-.28-.92-.43-1.55-.43h-.71c-.18,0-.34-.02-.48-.07-.14-.05-.25-.14-.34-.27-.08-.14-.12-.33-.12-.57,0-.26.04-.45.12-.57.08-.12.19-.21.34-.26.14-.05.29-.08.46-.08h.69c1.02,0,1.87.21,2.55.63.69.42,1.2,1.04,1.55,1.87.35.83.52,1.87.52,3.11v5.49c0,.18-.02.34-.06.48s-.13.25-.26.34c-.14.08-.33.12-.57.12Z" fill="#fff"/><path d="m83.53,29.37c-.24,0-.43-.04-.55-.12-.12-.08-.21-.19-.25-.34s-.07-.3-.07-.46v-10.23c0-.16.02-.31.07-.45.05-.14.14-.24.26-.33.13-.08.32-.12.56-.12.26,0,.45.04.58.13.13.09.21.2.25.33.04.13.06.28.06.46v10.23c0,.16-.02.31-.07.45-.05.14-.14.24-.26.33-.13.08-.32.12-.58.12Z" fill="#fff"/><path d="m87.67,29.35c-.26-.07-.43-.16-.53-.28-.1-.12-.14-.27-.13-.46,0-.18.04-.38.09-.58l2.38-8.14,1.49.61-2.12,7.89c-.07.27-.14.49-.21.65-.07.16-.18.27-.33.32-.14.05-.36.04-.64-.01Zm10.15-.12c-.22.16-.4.25-.56.27-.16.02-.29-.01-.4-.09-.11-.08-.22-.19-.33-.33l-8.12-9.87c-.16-.2-.3-.39-.4-.56-.1-.17-.14-.34-.1-.5s.17-.34.42-.53c.23-.18.42-.25.58-.23.16.02.31.1.45.23.14.14.3.31.46.53l8.12,9.85c.12.14.21.27.25.4.05.13.04.26,0,.41-.05.14-.18.28-.37.42Zm-2.6-3.4l-.69-.59,1.75-6.84c.07-.22.14-.41.21-.57.07-.16.19-.28.35-.35.16-.07.38-.05.68.04.26.08.43.19.51.32.08.13.11.28.08.46-.03.18-.07.38-.14.61l-1.36,5.13c-.08.28-.18.53-.28.72-.11.2-.25.38-.43.54s-.4.34-.67.53Z" fill="#fff"/><path d="m101.7,29.37c-.24,0-.43-.04-.55-.12-.12-.08-.21-.19-.25-.34s-.07-.3-.07-.46v-10.23c0-.16.02-.31.07-.45.05-.14.14-.24.26-.33.13-.08.32-.12.56-.12.26,0,.45.04.58.13.13.09.21.2.25.33.04.13.06.28.06.46v10.23c0,.16-.02.31-.07.45-.05.14-.14.24-.26.33-.13.08-.32.12-.58.12Z" fill="#fff"/><path d="m106.42,29.37c-.18,0-.34-.02-.48-.07s-.25-.14-.34-.26c-.08-.13-.12-.32-.12-.56,0-.26.04-.45.12-.58.08-.13.19-.22.34-.26.14-.05.3-.07.46-.07h8.83c.18,0,.33.02.47.07.14.05.24.14.33.26.08.13.12.32.12.58,0,.24-.04.43-.12.56-.08.13-.19.22-.33.26-.14.05-.3.07-.49.07h-8.79Zm7.14,0c-.24,0-.43-.03-.56-.1-.13-.07-.22-.16-.27-.28-.05-.12-.08-.25-.08-.39v-5.01c0-.73-.08-1.38-.23-1.93-.16-.56-.39-1.02-.7-1.39-.31-.37-.7-.65-1.17-.83-.47-.18-1.02-.27-1.66-.27h-2.26c-.18,0-.34-.02-.48-.07-.14-.05-.25-.14-.34-.27-.08-.14-.12-.33-.12-.57,0-.26.04-.45.12-.57.08-.12.19-.21.33-.26.14-.05.29-.08.47-.08h2.22c.94,0,1.76.13,2.46.4.7.26,1.29.66,1.76,1.18.47.52.82,1.17,1.06,1.94s.36,1.68.36,2.71v4.9c0,.18-.02.33-.06.47-.04.14-.13.24-.26.33-.14.08-.33.12-.57.12Z" fill="#fff"/></g></svg>