<svg width="168" height="24" viewBox="0 0 168 24" fill="none" xmlns="http://www.w3.org/2000/svg">
<path d="M159.054 5.43921H8.14643C4.45764 5.43921 1.46729 8.42956 1.46729 12.1184V12.3189C1.46729 16.0076 4.45764 18.998 8.14643 18.998H159.054C162.742 18.998 165.733 16.0076 165.733 12.3189V12.1184C165.733 8.42956 162.742 5.43921 159.054 5.43921Z" fill="url(#paint0_linear_923_14746)"/>
<path opacity="0.2" d="M159.154 5.43921H8.05204C4.41798 5.43921 1.47314 8.47177 1.47314 12.2186C1.47314 12.3439 1.48568 12.4692 1.49194 12.5883C1.67991 9.01687 4.54329 6.17855 8.05204 6.17855H159.16C162.669 6.17855 165.532 9.01687 165.72 12.5883C165.726 12.463 165.739 12.3439 165.739 12.2186C165.739 8.47177 162.794 5.43921 159.16 5.43921H159.154Z" fill="white"/>
<path d="M158.947 6.86792H8.25912C5.34893 6.86792 2.98975 9.2271 2.98975 12.1373V12.3002C2.98975 15.2104 5.34893 17.5696 8.25912 17.5696H158.947C161.857 17.5696 164.216 15.2104 164.216 12.3002V12.1373C164.216 9.2271 161.857 6.86792 158.947 6.86792Z" fill="url(#paint1_linear_923_14746)"/>
<path opacity="0.1" d="M159.022 6.86792H8.17759C5.30794 6.86792 2.9834 9.26138 2.9834 12.2188C2.9834 12.3942 2.98966 12.5696 3.00846 12.7451C3.26535 10.0383 5.47711 7.92054 8.17759 7.92054H159.022C161.716 7.92054 163.934 10.0383 164.191 12.7451C164.21 12.5696 164.216 12.3942 164.216 12.2188C164.216 9.26138 161.892 6.86792 159.022 6.86792Z" fill="black"/>
<path d="M159.154 5.42678C162.788 5.42678 165.733 8.45933 165.733 12.2062C165.733 15.953 162.788 18.9856 159.154 18.9856H8.0523C4.41825 18.9856 1.47341 15.953 1.47341 12.2062C1.47341 8.45933 4.41825 5.42678 8.0523 5.42678H159.16M159.16 4.06714H8.0523C3.6977 4.06714 0.151367 7.71999 0.151367 12.2062C0.151367 16.6923 3.6977 20.3452 8.0523 20.3452H159.16C163.515 20.3452 167.061 16.6923 167.061 12.2062C167.061 7.71999 163.515 4.06714 159.16 4.06714Z" fill="#513147"/>
<path d="M159.11 6.94946H83.603V17.4694H159.11C161.998 17.4694 164.342 15.1261 164.342 12.2376V12.1812C164.342 9.2928 161.998 6.94946 159.11 6.94946Z" fill="url(#paint2_linear_923_14746)"/>
<g opacity="0.5">
<mask id="mask0_923_14746" style="mask-type:luminance" maskUnits="userSpaceOnUse" x="2" y="6" width="163" height="12">
<path d="M8.09653 17.4631C5.20809 17.4631 2.86475 15.1197 2.86475 12.2313V12.1749C2.86475 9.28645 5.20809 6.94312 8.09653 6.94312H159.11C161.999 6.94312 164.342 9.28645 164.342 12.1749V12.2313C164.342 15.1197 161.999 17.4631 159.11 17.4631" fill="white"/>
</mask>
<g mask="url(#mask0_923_14746)">
<path d="M84.2734 20.7525V16.5483L103.246 -3.08813L106.065 -0.237282L84.2734 20.7525Z" fill="#FBE280"/>
<path d="M95.2448 24.4994L92.4253 21.6485L116.886 -3.08813L119.706 -0.237281L95.2448 24.4994Z" fill="#FBE280"/>
<path d="M108.885 24.4994L106.065 21.6485L130.526 -3.08813L133.346 -0.237281L108.885 24.4994Z" fill="#FBE280"/>
<path d="M122.525 24.4994L119.706 21.6485L144.167 -3.08813L146.986 -0.237281L122.525 24.4994Z" fill="#FBE280"/>
<path d="M136.165 24.4994L133.346 21.6485L157.807 -3.08813L160.626 -0.237281L136.165 24.4994Z" fill="#FBE280"/>
<path d="M149.806 24.4994L146.986 21.6485L171.447 -3.08813L174.267 -0.237281L149.806 24.4994Z" fill="#FBE280"/>
</g>
</g>
<path opacity="0.3" d="M164.317 11.7488C164.085 14.4367 161.861 16.5482 159.141 16.5482H83.6157V17.4693H159.141C162.011 17.4693 164.342 15.1134 164.342 12.2124C164.342 12.0558 164.329 11.9054 164.317 11.755V11.7488Z" fill="#B13C42"/>
<path opacity="0.3" d="M159.135 6.94946H83.6157V7.81412H159.135C161.861 7.81412 164.097 9.93816 164.317 12.6449C164.329 12.5008 164.336 12.3567 164.336 12.2126C164.336 9.30533 162.005 6.95573 159.135 6.95573V6.94946Z" fill="white"/>
<path d="M83.6061 22.4995C89.1233 22.4995 93.5959 17.8909 93.5959 12.206C93.5959 6.52112 89.1233 1.9126 83.6061 1.9126C78.0888 1.9126 73.6162 6.52112 73.6162 12.206C73.6162 17.8909 78.0888 22.4995 83.6061 22.4995Z" fill="url(#paint3_linear_923_14746)"/>
<path opacity="0.3" d="M83.6066 21.4922C78.2529 21.4922 73.8996 17.1527 73.6375 11.7024C73.6306 11.8749 73.6099 12.0404 73.6099 12.206C73.6099 17.8909 78.0805 22.4995 83.5997 22.4995C89.119 22.4995 93.5896 17.8909 93.5896 12.206C93.5896 12.0335 93.5758 11.868 93.562 11.7024C93.3067 17.1527 88.9465 21.4922 83.5928 21.4922H83.6066Z" fill="#EEB92E"/>
<path opacity="0.3" d="M83.6061 2.87847C88.9667 2.87847 93.3269 7.23179 93.5752 12.689C93.5821 12.5303 93.5959 12.3716 93.5959 12.206C93.5959 6.52118 89.1253 1.9126 83.6061 1.9126C78.0868 1.9126 73.6162 6.52118 73.6162 12.206C73.6162 12.3716 73.63 12.5303 73.6369 12.689C73.8853 7.22489 78.2455 2.87847 83.6061 2.87847Z" fill="#F8EFC9" fill-opacity="0.6"/>
<path d="M83.6062 1.91263C89.1255 1.91263 93.5961 6.52121 93.5961 12.2061C93.5961 17.8909 89.1255 22.4995 83.6062 22.4995C78.087 22.4995 73.6164 17.8909 73.6164 12.2061C73.6164 6.52121 78.087 1.91263 83.6062 1.91263ZM83.6062 0.415527C77.2936 0.415527 72.1606 5.70712 72.1606 12.2061C72.1606 18.705 77.2936 23.9966 83.6062 23.9966C89.9189 23.9966 95.0518 18.705 95.0518 12.2061C95.0518 5.70712 89.912 0.415527 83.6062 0.415527Z" fill="#513147"/>
<path d="M83.3647 19.3258C87.1902 19.3258 90.2913 16.1288 90.2913 12.1852C90.2913 8.24161 87.1902 5.04468 83.3647 5.04468C79.5392 5.04468 76.438 8.24161 76.438 12.1852C76.438 16.1288 79.5392 19.3258 83.3647 19.3258Z" fill="url(#paint4_linear_923_14746)"/>
<path opacity="0.3" d="M83.3715 18.3599C79.6943 18.3599 76.7001 15.4071 76.4655 11.6816C76.4586 11.8334 76.4448 11.9852 76.4448 12.137C76.4448 16.0764 79.5494 19.2775 83.3715 19.2775C87.1936 19.2775 90.2982 16.0833 90.2982 12.137C90.2982 11.9852 90.2844 11.8334 90.2775 11.6816C90.0498 15.4071 87.0487 18.3599 83.3715 18.3599Z" fill="#F8EFC9" fill-opacity="0.6"/>
<path opacity="0.3" d="M87.3387 4.54113C87.3387 4.96197 87.0076 5.30002 86.6005 5.30002C86.1935 5.30002 85.8623 4.96197 85.8623 4.54113C85.8623 4.12028 86.1935 3.78223 86.6005 3.78223C87.0076 3.78223 87.3387 4.12028 87.3387 4.54113Z" fill="white"/>
<path opacity="0.3" d="M88.9045 5.30686C88.9045 5.58282 88.6837 5.81049 88.4146 5.81049C88.1456 5.81049 87.9248 5.58282 87.9248 5.30686C87.9248 5.03089 88.1456 4.80322 88.4146 4.80322C88.6837 4.80322 88.9045 5.03089 88.9045 5.30686Z" fill="white"/>
<path fill-rule="evenodd" clip-rule="evenodd" d="M86.525 9.41893C86.2008 9.16366 85.7316 9.21886 85.4764 9.55001L82.5443 13.31L81.1299 12.2062C80.8057 11.9509 80.3365 12.0061 80.0813 12.3372C79.826 12.6615 79.8812 13.1306 80.2124 13.3859L82.1786 14.9175C82.1786 14.9175 82.2062 14.9382 82.22 14.952C82.5443 15.2073 83.0203 15.1452 83.2756 14.8209L86.663 10.4676C86.9183 10.1433 86.8631 9.6742 86.5319 9.41893H86.525Z" fill="#513147"/>
<defs>
<linearGradient id="paint0_linear_923_14746" x1="83.6032" y1="18.998" x2="83.6032" y2="5.43921" gradientUnits="userSpaceOnUse">
<stop stop-color="#763A5C"/>
<stop offset="0.43" stop-color="#814869"/>
<stop offset="1" stop-color="#956181"/>
</linearGradient>
<linearGradient id="paint1_linear_923_14746" x1="83.6031" y1="17.5696" x2="83.6031" y2="6.86792" gradientUnits="userSpaceOnUse">
<stop stop-color="#8F5D7C"/>
<stop offset="0.24" stop-color="#804869"/>
<stop offset="0.46" stop-color="#763A5C"/>
</linearGradient>
<linearGradient id="paint2_linear_923_14746" x1="123.972" y1="6.94946" x2="123.972" y2="17.4694" gradientUnits="userSpaceOnUse">
<stop offset="0.145833" stop-color="#FFDA40"/>
<stop offset="0.953125" stop-color="#E93C83"/>
</linearGradient>
<linearGradient id="paint3_linear_923_14746" x1="83.6061" y1="22.5064" x2="83.6061" y2="1.9126" gradientUnits="userSpaceOnUse">
<stop stop-color="#FFA01E"/>
<stop offset="1" stop-color="#FED83F"/>
</linearGradient>
<linearGradient id="paint4_linear_923_14746" x1="83.3647" y1="19.3258" x2="83.3647" y2="5.04468" gradientUnits="userSpaceOnUse">
<stop stop-color="#FED83F"/>
<stop offset="1" stop-color="#FF9300"/>
</linearGradient>
</defs>
</svg>
