<svg width="168" height="25" viewBox="0 0 168 25" fill="none" xmlns="http://www.w3.org/2000/svg">
<path d="M159.053 6.00146H8.14594C4.45715 6.00146 1.4668 8.99182 1.4668 12.6806V12.8811C1.4668 16.5699 4.45715 19.5602 8.14594 19.5602H159.053C162.742 19.5602 165.732 16.5699 165.732 12.8811V12.6806C165.732 8.99182 162.742 6.00146 159.053 6.00146Z" fill="url(#paint0_linear_923_14728)"/>
<path opacity="0.2" d="M159.154 6.00146H8.05252C4.41847 6.00146 1.47363 9.03402 1.47363 12.7809C1.47363 12.9062 1.48616 13.0315 1.49243 13.1505C1.6804 9.57913 4.54378 6.74081 8.05252 6.74081H159.16C162.669 6.74081 165.532 9.57913 165.72 13.1505C165.727 13.0252 165.739 12.9062 165.739 12.7809C165.739 9.03402 162.794 6.00146 159.16 6.00146H159.154Z" fill="white"/>
<path d="M158.947 7.42993H8.25912C5.34893 7.42993 2.98975 9.78911 2.98975 12.6993V12.8622C2.98975 15.7724 5.34893 18.1316 8.25912 18.1316H158.947C161.857 18.1316 164.216 15.7724 164.216 12.8622V12.6993C164.216 9.78911 161.857 7.42993 158.947 7.42993Z" fill="url(#paint1_linear_923_14728)"/>
<path opacity="0.1" d="M159.022 7.42993H8.1771C5.30745 7.42993 2.98291 9.8234 2.98291 12.7808C2.98291 12.9562 2.98918 13.1316 3.00797 13.3071C3.26486 10.6003 5.47662 8.48255 8.1771 8.48255H159.022C161.716 8.48255 163.934 10.6003 164.191 13.3071C164.21 13.1316 164.216 12.9562 164.216 12.7808C164.216 9.8234 161.891 7.42993 159.022 7.42993Z" fill="black"/>
<path d="M159.154 6.00148C162.788 6.00148 165.733 9.03404 165.733 12.7809C165.733 16.5277 162.788 19.5603 159.154 19.5603H8.0523C4.41825 19.5603 1.47341 16.5277 1.47341 12.7809C1.47341 9.03404 4.41825 6.00148 8.0523 6.00148H159.16M159.16 4.64185H8.0523C3.6977 4.64185 0.151367 8.2947 0.151367 12.7809C0.151367 17.2671 3.6977 20.9199 8.0523 20.9199H159.16C163.515 20.9199 167.061 17.2671 167.061 12.7809C167.061 8.2947 163.515 4.64185 159.16 4.64185Z" fill="#513147"/>
<path d="M155.615 23.0742C161.133 23.0742 165.605 18.4656 165.605 12.7807C165.605 7.09583 161.133 2.4873 155.615 2.4873C150.098 2.4873 145.625 7.09583 145.625 12.7807C145.625 18.4656 150.098 23.0742 155.615 23.0742Z" fill="url(#paint2_linear_923_14728)"/>
<path opacity="0.3" d="M155.616 22.0669C150.262 22.0669 145.909 17.7274 145.647 12.2771C145.64 12.4496 145.619 12.6152 145.619 12.7807C145.619 18.4656 150.09 23.0742 155.609 23.0742C161.128 23.0742 165.599 18.4656 165.599 12.7807C165.599 12.6083 165.585 12.4427 165.571 12.2771C165.316 17.7274 160.956 22.0669 155.602 22.0669H155.616Z" fill="#EEB92E"/>
<path opacity="0.3" d="M155.615 3.45318C160.976 3.45318 165.336 7.80649 165.585 13.2637C165.591 13.105 165.605 12.9463 165.605 12.7807C165.605 7.09589 161.135 2.4873 155.615 2.4873C150.096 2.4873 145.625 7.09589 145.625 12.7807C145.625 12.9463 145.639 13.105 145.646 13.2637C145.895 7.7996 150.255 3.45318 155.615 3.45318Z" fill="#F8EFC9" fill-opacity="0.6"/>
<path d="M155.615 2.48734C161.135 2.48734 165.605 7.09592 165.605 12.7808C165.605 18.4656 161.135 23.0742 155.615 23.0742C150.096 23.0742 145.626 18.4656 145.626 12.7808C145.626 7.09592 150.096 2.48734 155.615 2.48734ZM155.615 0.990234C149.303 0.990234 144.17 6.28183 144.17 12.7808C144.17 19.2797 149.303 24.5713 155.615 24.5713C161.928 24.5713 167.061 19.2797 167.061 12.7808C167.061 6.28183 161.921 0.990234 155.615 0.990234Z" fill="#513147"/>
<path d="M155.374 19.9005C159.199 19.9005 162.301 16.7035 162.301 12.7599C162.301 8.81632 159.199 5.61938 155.374 5.61938C151.548 5.61938 148.447 8.81632 148.447 12.7599C148.447 16.7035 151.548 19.9005 155.374 19.9005Z" fill="url(#paint3_linear_923_14728)"/>
<path opacity="0.3" d="M155.381 18.9347C151.704 18.9347 148.709 15.9819 148.475 12.2563C148.468 12.4081 148.454 12.5599 148.454 12.7117C148.454 16.6511 151.559 19.8522 155.381 19.8522C159.203 19.8522 162.307 16.658 162.307 12.7117C162.307 12.5599 162.294 12.4081 162.287 12.2563C162.059 15.9819 159.058 18.9347 155.381 18.9347Z" fill="#F8EFC9" fill-opacity="0.6"/>
<path opacity="0.3" d="M159.347 5.11583C159.347 5.53668 159.016 5.87473 158.609 5.87473C158.202 5.87473 157.871 5.53668 157.871 5.11583C157.871 4.69499 158.202 4.35693 158.609 4.35693C159.016 4.35693 159.347 4.69499 159.347 5.11583Z" fill="white"/>
<path opacity="0.3" d="M160.913 5.88156C160.913 6.15753 160.692 6.3852 160.423 6.3852C160.154 6.3852 159.934 6.15753 159.934 5.88156C159.934 5.6056 160.154 5.37793 160.423 5.37793C160.692 5.37793 160.913 5.6056 160.913 5.88156Z" fill="white"/>
<path fill-rule="evenodd" clip-rule="evenodd" d="M158.534 9.99364C158.21 9.73837 157.74 9.79356 157.485 10.1247L154.553 13.8847L153.139 12.7809C152.814 12.5256 152.345 12.5808 152.09 12.9119C151.835 13.2362 151.89 13.7053 152.221 13.9606L154.187 15.4922C154.187 15.4922 154.215 15.5129 154.229 15.5267C154.553 15.782 155.029 15.7199 155.284 15.3956L158.672 11.0423C158.927 10.718 158.872 10.2489 158.541 9.99364H158.534Z" fill="#513147"/>
<defs>
<linearGradient id="paint0_linear_923_14728" x1="83.6027" y1="19.5602" x2="83.6027" y2="6.00146" gradientUnits="userSpaceOnUse">
<stop stop-color="#763A5C"/>
<stop offset="0.43" stop-color="#814869"/>
<stop offset="1" stop-color="#956181"/>
</linearGradient>
<linearGradient id="paint1_linear_923_14728" x1="83.6031" y1="18.1316" x2="83.6031" y2="7.42993" gradientUnits="userSpaceOnUse">
<stop stop-color="#8F5D7C"/>
<stop offset="0.24" stop-color="#804869"/>
<stop offset="0.46" stop-color="#763A5C"/>
</linearGradient>
<linearGradient id="paint2_linear_923_14728" x1="155.615" y1="23.0811" x2="155.615" y2="2.4873" gradientUnits="userSpaceOnUse">
<stop stop-color="#FFA01E"/>
<stop offset="1" stop-color="#FED83F"/>
</linearGradient>
<linearGradient id="paint3_linear_923_14728" x1="155.374" y1="19.9005" x2="155.374" y2="5.61938" gradientUnits="userSpaceOnUse">
<stop stop-color="#FED83F"/>
<stop offset="1" stop-color="#FF9300"/>
</linearGradient>
</defs>
</svg>
