<svg width="168" height="25" viewBox="0 0 168 25" fill="none" xmlns="http://www.w3.org/2000/svg">
<path d="M159.06 5.85205H8.15229C4.4635 5.85205 1.47314 8.8424 1.47314 12.5312V12.7317C1.47314 16.4205 4.4635 19.4108 8.15229 19.4108H159.06C162.748 19.4108 165.739 16.4205 165.739 12.7317V12.5312C165.739 8.8424 162.748 5.85205 159.06 5.85205Z" fill="url(#paint0_linear_923_14786)"/>
<path opacity="0.2" d="M159.16 5.66406H8.05204C4.41798 5.66406 1.47314 8.69662 1.47314 12.4435C1.47314 12.5688 1.48568 12.6941 1.49194 12.8131C1.67991 9.24173 4.54329 6.4034 8.05204 6.4034H159.16C162.669 6.4034 165.532 9.24173 165.72 12.8131C165.726 12.6878 165.739 12.5688 165.739 12.4435C165.739 8.69662 162.794 5.66406 159.16 5.66406Z" fill="white"/>
<path d="M158.947 7.09253H8.25864C5.34844 7.09253 2.98926 9.45171 2.98926 12.3619V12.5248C2.98926 15.435 5.34844 17.7942 8.25864 17.7942H158.947C161.857 17.7942 164.216 15.435 164.216 12.5248V12.3619C164.216 9.45171 161.857 7.09253 158.947 7.09253Z" fill="url(#paint1_linear_923_14786)"/>
<path opacity="0.1" d="M159.028 7.09253H8.18345C5.3138 7.09253 2.98926 9.48599 2.98926 12.4434C2.98926 12.6188 2.99552 12.7942 3.01432 12.9697C3.27121 10.2629 5.48297 8.14515 8.18345 8.14515H159.028C161.722 8.14515 163.94 10.2629 164.197 12.9697C164.216 12.7942 164.222 12.6188 164.222 12.4434C164.222 9.48599 161.898 7.09253 159.028 7.09253Z" fill="black"/>
<path d="M159.16 5.85207C162.794 5.85207 165.739 8.88462 165.739 12.6315C165.739 16.3783 162.794 19.4109 159.16 19.4109H8.0523C4.41825 19.4109 1.47341 16.3783 1.47341 12.6315C1.47341 8.88462 4.41825 5.85207 8.0523 5.85207H159.16ZM159.16 4.49243H8.0523C3.6977 4.49243 0.151367 8.14528 0.151367 12.6315C0.151367 17.1176 3.6977 20.7705 8.0523 20.7705H159.16C163.515 20.7705 167.061 17.1176 167.061 12.6315C167.061 8.14528 163.515 4.49243 159.16 4.49243Z" fill="#513147"/>
<path d="M159.11 7.37451H8.10239C5.21296 7.37451 2.87061 9.71686 2.87061 12.6063V12.6627C2.87061 15.5521 5.21296 17.8945 8.10239 17.8945H159.11C161.999 17.8945 164.342 15.5521 164.342 12.6627V12.6063C164.342 9.71686 161.999 7.37451 159.11 7.37451Z" fill="url(#paint2_linear_923_14786)"/>
<g opacity="0.5">
<mask id="mask0_923_14786" style="mask-type:luminance" maskUnits="userSpaceOnUse" x="2" y="7" width="163" height="11">
<path d="M159.11 7.37451H8.10239C5.21296 7.37451 2.87061 9.71686 2.87061 12.6063V12.6627C2.87061 15.5521 5.21296 17.8945 8.10239 17.8945H159.11C161.999 17.8945 164.342 15.5521 164.342 12.6627V12.6063C164.342 9.71686 161.999 7.37451 159.11 7.37451Z" fill="white"/>
</mask>
<g mask="url(#mask0_923_14786)">
<path d="M-1.30206 25.4508L-4.12158 22.5999L20.3394 -2.13672L23.1589 0.714134L-1.30206 25.4508Z" fill="#FBE280"/>
<path d="M13.403 24.9244L10.5835 22.0735L35.0444 -2.66309L37.864 0.187767L13.403 24.9244Z" fill="#FBE280"/>
<path d="M27.0432 24.9244L24.2236 22.0735L48.6908 -2.66309L51.5041 0.187767L27.0432 24.9244Z" fill="#FBE280"/>
<path d="M40.6833 24.9244L37.8638 22.0735L62.331 -2.66309L65.1442 0.187767L40.6833 24.9244Z" fill="#FBE280"/>
<path d="M54.3239 24.9244L51.5044 22.0735L75.9716 -2.66309L78.7849 0.187767L54.3239 24.9244Z" fill="#FBE280"/>
<path d="M67.9641 24.9244L65.1445 22.0735L89.6117 -2.66309L92.4313 0.187767L67.9641 24.9244Z" fill="#FBE280"/>
<path d="M81.6042 24.9244L78.7847 22.0735L103.252 -2.66309L106.071 0.187767L81.6042 24.9244Z" fill="#FBE280"/>
<path d="M95.2444 24.9244L92.4312 22.0735L116.892 -2.66309L119.712 0.187767L95.2444 24.9244Z" fill="#FBE280"/>
<path d="M108.885 24.9244L106.071 22.0735L130.532 -2.66309L133.352 0.187767L108.885 24.9244Z" fill="#FBE280"/>
<path d="M122.525 24.9244L119.712 22.0735L144.173 -2.66309L146.992 0.187767L122.525 24.9244Z" fill="#FBE280"/>
<path d="M136.171 24.9244L133.352 22.0735L157.813 -2.66309L160.632 0.187767L136.171 24.9244Z" fill="#FBE280"/>
<path d="M149.812 24.9244L146.992 22.0735L171.453 -2.66309L174.273 0.187767L149.812 24.9244Z" fill="#FBE280"/>
</g>
</g>
<path opacity="0.3" d="M159.141 16.9735H8.07106C5.35179 16.9735 3.12123 14.862 2.89567 12.1741C2.88314 12.3244 2.87061 12.4811 2.87061 12.6315C2.87061 15.5387 5.20141 17.8883 8.07106 17.8883H159.141C162.011 17.8883 164.342 15.5324 164.342 12.6315C164.342 12.4748 164.329 12.3244 164.317 12.1741C164.085 14.862 161.861 16.9735 159.141 16.9735Z" fill="#B13C42"/>
<path opacity="0.3" d="M159.141 7.37451H8.07106C5.20141 7.37451 2.87061 9.73038 2.87061 12.6314C2.87061 12.7755 2.88314 12.9196 2.8894 13.0637C3.1087 10.3632 5.33926 8.2329 8.07106 8.2329H159.141C161.867 8.2329 164.104 10.3569 164.323 13.0637C164.335 12.9196 164.342 12.7755 164.342 12.6314C164.342 9.72412 162.011 7.37451 159.141 7.37451Z" fill="white"/>
<path d="M11.6027 22.9247C17.1199 22.9247 21.5925 18.3162 21.5925 12.6313C21.5925 6.94642 17.1199 2.33789 11.6027 2.33789C6.08541 2.33789 1.61279 6.94642 1.61279 12.6313C1.61279 18.3162 6.08541 22.9247 11.6027 22.9247Z" fill="url(#paint3_linear_923_14786)"/>
<path opacity="0.3" d="M11.6027 21.9175C6.24904 21.9175 1.89572 17.578 1.63355 12.1277C1.62665 12.3002 1.60596 12.4657 1.60596 12.6313C1.60596 18.3162 6.07656 22.9247 11.5958 22.9247C17.1151 22.9247 21.5857 18.3162 21.5857 12.6313C21.5857 12.4588 21.5719 12.2933 21.5581 12.1277C21.3028 17.578 16.9426 21.9175 11.5889 21.9175H11.6027Z" fill="#EEB92E"/>
<path opacity="0.3" d="M11.6027 3.30376C16.9632 3.30376 21.3235 7.65708 21.5718 13.1143C21.5787 12.9556 21.5925 12.7969 21.5925 12.6313C21.5925 6.94648 17.1219 2.33789 11.6027 2.33789C6.0834 2.33789 1.61279 6.94648 1.61279 12.6313C1.61279 12.7969 1.62659 12.9556 1.63349 13.1143C1.88186 7.65018 6.24208 3.30376 11.6027 3.30376Z" fill="#F8EFC9" fill-opacity="0.6"/>
<path d="M11.6028 2.33792C17.1221 2.33792 21.5927 6.94651 21.5927 12.6313C21.5927 18.3162 17.1221 22.9248 11.6028 22.9248C6.08354 22.9248 1.61293 18.3162 1.61293 12.6313C1.61293 6.94651 6.08354 2.33792 11.6028 2.33792ZM11.6028 0.84082C5.29014 0.84082 0.157227 6.13241 0.157227 12.6313C0.157227 19.1303 5.29014 24.4219 11.6028 24.4219C17.9155 24.4219 23.0484 19.1303 23.0484 12.6313C23.0484 6.13241 17.9086 0.84082 11.6028 0.84082Z" fill="#513147"/>
<path d="M11.3612 19.7511C15.1867 19.7511 18.2879 16.5541 18.2879 12.6105C18.2879 8.6669 15.1867 5.46997 11.3612 5.46997C7.53575 5.46997 4.43457 8.6669 4.43457 12.6105C4.43457 16.5541 7.53575 19.7511 11.3612 19.7511Z" fill="url(#paint4_linear_923_14786)"/>
<path opacity="0.3" d="M11.3676 18.7852C7.69038 18.7852 4.69618 15.8324 4.46162 12.1069C4.45472 12.2587 4.44092 12.4105 4.44092 12.5623C4.44092 16.5016 7.5455 19.7028 11.3676 19.7028C15.1897 19.7028 18.2943 16.5085 18.2943 12.5623C18.2943 12.4105 18.2805 12.2587 18.2736 12.1069C18.0459 15.8324 15.0448 18.7852 11.3676 18.7852Z" fill="#F8EFC9" fill-opacity="0.6"/>
<path opacity="0.3" d="M15.3353 4.96642C15.3353 5.38726 15.0041 5.72532 14.5971 5.72532C14.19 5.72532 13.8589 5.38726 13.8589 4.96642C13.8589 4.54557 14.19 4.20752 14.5971 4.20752C15.0041 4.20752 15.3353 4.54557 15.3353 4.96642Z" fill="white"/>
<path opacity="0.3" d="M16.9011 5.73215C16.9011 6.00811 16.6803 6.23578 16.4112 6.23578C16.1422 6.23578 15.9214 6.00811 15.9214 5.73215C15.9214 5.45618 16.1422 5.22852 16.4112 5.22852C16.6803 5.22852 16.9011 5.45618 16.9011 5.73215Z" fill="white"/>
<path fill-rule="evenodd" clip-rule="evenodd" d="M14.5216 9.84422C14.1974 9.58896 13.7282 9.64415 13.4729 9.97531L10.5408 13.7353L9.12653 12.6315C8.80227 12.3762 8.33313 12.4314 8.07787 12.7625C7.8226 13.0868 7.87779 13.5559 8.20895 13.8112L10.1752 15.3428C10.1752 15.3428 10.2028 15.3635 10.2166 15.3773C10.5408 15.6326 11.0169 15.5705 11.2721 15.2462L14.6596 10.8929C14.9149 10.5686 14.8597 10.0995 14.5285 9.84422H14.5216Z" fill="#513147"/>
<defs>
<linearGradient id="paint0_linear_923_14786" x1="83.609" y1="19.4108" x2="83.609" y2="5.85205" gradientUnits="userSpaceOnUse">
<stop stop-color="#763A5C"/>
<stop offset="0.43" stop-color="#814869"/>
<stop offset="1" stop-color="#956181"/>
</linearGradient>
<linearGradient id="paint1_linear_923_14786" x1="83.6089" y1="17.7942" x2="83.6089" y2="7.09253" gradientUnits="userSpaceOnUse">
<stop stop-color="#8F5D7C"/>
<stop offset="0.24" stop-color="#804869"/>
<stop offset="0.46" stop-color="#763A5C"/>
</linearGradient>
<linearGradient id="paint2_linear_923_14786" x1="83.6061" y1="7.37451" x2="83.6061" y2="17.8945" gradientUnits="userSpaceOnUse">
<stop offset="0.15625" stop-color="#FFDA40"/>
<stop offset="0.916667" stop-color="#E93C83"/>
</linearGradient>
<linearGradient id="paint3_linear_923_14786" x1="11.6027" y1="22.9316" x2="11.6027" y2="2.33789" gradientUnits="userSpaceOnUse">
<stop stop-color="#FFA01E"/>
<stop offset="1" stop-color="#FED83F"/>
</linearGradient>
<linearGradient id="paint4_linear_923_14786" x1="11.3612" y1="19.7511" x2="11.3612" y2="5.46997" gradientUnits="userSpaceOnUse">
<stop stop-color="#FED83F"/>
<stop offset="1" stop-color="#FF9300"/>
</linearGradient>
</defs>
</svg>
