<svg id="yellow"
    xmlns="http://www.w3.org/2000/svg" viewBox="-4 -4 40.73 40.73">
    <defs>
        <style>.yellowCls-1{fill:#f9db00;}.yellowCls-2{fill:#e9fdff;}.yellowCls-3{fill:#eace00;}.yellowCls-4{fill:#fff18f;}.yellowCls-5{fill:#ffe600;}.yellowCls-6{fill:#fcec7a;}</style>
    </defs>
    <g id="yellow-1">
        <g>
            <path class="yellowCls-3" d="m16.36,32.73c-6.91,0-13.11-4.39-15.42-10.92-.63-1.78-.95-3.61-.95-5.45s.3-3.56.89-5.29l.05-.13C3.24,4.41,9.44,0,16.36,0c1.8,0,3.59.3,5.33.91,1.24.43,2.44,1.02,3.58,1.75,4.67,3.03,7.45,8.16,7.45,13.7,0,.52-.03,1.05-.08,1.6-.82,8.42-7.82,14.77-16.29,14.77Z"/>
            <path class="yellowCls-4" d="m16.36,31.88c-6.55,0-12.43-4.16-14.61-10.35-.6-1.69-.9-3.42-.9-5.17s.28-3.38.84-5.01l.04-.1C3.92,5.02,9.8.85,16.36.85c1.7,0,3.41.29,5.06.86,1.17.41,2.32.96,3.39,1.66,4.42,2.88,7.07,7.73,7.07,12.99,0,.49-.03,1-.08,1.51-.77,7.98-7.41,14-15.44,14Z"/>
            <path class="yellowCls-5" d="m24.35,4.09c-.99-.65-2.07-1.18-3.2-1.57-1.5-.52-3.1-.81-4.78-.81C9.97,1.7,4.55,5.8,2.54,11.51c-.01.04-.03.08-.05.12-.51,1.49-.8,3.08-.8,4.74s.31,3.35.85,4.88c2.01,5.69,7.43,9.78,13.81,9.78,7.62,0,13.87-5.81,14.59-13.23.05-.47.07-.95.07-1.43,0-5.15-2.66-9.67-6.68-12.28Z"/>
            <path class="yellowCls-1" d="m16.36,31.03c7.62,0,13.87-5.81,14.59-13.23-11.35,14.06-22.85,7.98-28.4,3.45,2.01,5.69,7.43,9.78,13.81,9.78Z"/>
            <path class="yellowCls-6" d="m24.35,4.09c-.99-.65-2.07-1.18-3.2-1.57-1.5-.52-3.1-.81-4.78-.81C9.97,1.7,4.55,5.8,2.54,11.51c3.82-3.94,11.02-9.03,21.8-7.42Z"/>
            <path class="yellowCls-2" d="m11.15,5.13c-.8-.23-2.33.69-2.4,1.26-.09.74.93.65,2.04.12.88-.42.87-1.23.36-1.38Z"/>
            <path class="yellowCls-2" d="m7.27,7.32c-.58.02-1.03.46-.95.85.11.51.66.45,1.09.06.51-.46.24-.92-.14-.91Z"/>
        </g>
    </g>
</svg>
