<svg width="110" height="110" viewBox="0 0 110 110" fill="none" xmlns="http://www.w3.org/2000/svg">
<path d="M54.7433 107.42C32.4848 107.42 12.5133 93.2786 5.07235 72.2431C3.04299 66.5091 2.01221 60.614 2.01221 54.6867C2.01221 48.7594 2.97857 43.2187 4.87907 37.6458L5.04014 37.1948C12.4811 16.1915 32.4525 1.98535 54.7433 1.98535C60.5414 1.98535 66.3074 2.98397 71.9122 4.91678C75.9065 6.30197 79.8042 8.20257 83.4441 10.5542C98.4871 20.3471 107.442 36.8404 107.442 54.6867C107.442 56.3296 107.345 58.0369 107.184 59.8409C104.543 86.9647 81.9946 107.42 54.711 107.42H54.7433Z" fill="#68254A"/>
<path d="M54.743 104.682C33.6442 104.682 14.7035 91.2814 7.64908 71.3412C5.71636 65.8972 4.75 60.292 4.75 54.6868C4.75 49.0817 5.65194 43.8309 7.45581 38.5479L7.58466 38.1935C14.6713 18.1567 33.612 4.72363 54.743 4.72363C60.2513 4.72363 65.7273 5.65783 71.0423 7.494C74.8433 8.81475 78.5155 10.6187 81.9622 12.8414C96.1999 22.1189 104.736 37.7425 104.736 54.6868C104.736 56.2653 104.639 57.876 104.478 59.5511C101.998 85.2575 80.6093 104.65 54.743 104.65V104.682Z" fill="#B94987"/>
<path d="M80.4802 15.161C77.2912 13.0671 73.8123 11.3598 70.1723 10.1035C65.3405 8.42839 60.1866 7.4942 54.775 7.4942C34.1593 7.46199 16.7004 20.6695 10.2258 39.0635C10.1936 39.1923 10.1292 39.3212 10.0648 39.45C8.42194 44.2499 7.48779 49.3718 7.48779 54.7193C7.48779 60.0667 8.48636 65.5108 10.2258 70.4395C16.7004 88.769 34.1593 101.944 54.7106 101.944C79.2561 101.944 99.3886 83.2283 101.708 59.3258C101.869 57.8118 101.933 56.2655 101.933 54.7193C101.933 38.1293 93.365 23.5688 80.4158 15.161H80.4802Z" fill="url(#paint0_linear_1436_13694)"/>
<path d="M54.904 105.078C80.9305 105.078 102.278 85.2323 104.737 59.8877C65.9704 107.913 26.6916 87.1451 7.73535 71.6719C14.6006 91.1073 33.1129 105.078 54.904 105.078Z" fill="#70264F" fill-opacity="0.6"/>
<path opacity="0.7" d="M81.7366 12.9214C78.365 10.7076 74.6869 8.90252 70.8384 7.57423C65.7299 5.80319 60.2808 4.81549 54.5592 4.81549C32.7628 4.78143 14.3039 18.7454 7.4585 38.1929C20.4682 24.7738 44.9892 7.438 81.7026 12.9214H81.7366Z" fill="#CD76A6" fill-opacity="0.5"/>
<path d="M37.056 15.9046C35.1314 15.189 31.1836 17.1629 30.9122 18.5446C30.5668 20.3458 33.0835 20.3211 35.921 19.2355C38.1663 18.3719 38.3143 16.3734 37.056 15.9046Z" fill="#E7F5F9"/>
<path d="M27.0873 20.5676C25.6563 20.5183 24.4719 21.5052 24.5953 22.4675C24.768 23.7505 26.125 23.7012 27.26 22.8129C28.5924 21.7767 28.0249 20.5923 27.0873 20.543V20.5676Z" fill="#E7F5F9"/>
<path d="M15.4019 60.1652C15.2056 60.1652 15.0059 60.1449 14.8027 60.1043C14.6064 60.0637 14.3965 60.0027 14.173 59.9215V58.1441C14.4913 58.1983 14.8095 58.2254 15.1277 58.2254C15.5746 58.2254 15.903 58.09 16.1129 57.8191C16.3296 57.5483 16.4379 57.1217 16.4379 56.5395V48.8512C16.1941 48.8647 15.9504 48.8816 15.7066 48.902C15.4697 48.9223 15.2293 48.9392 14.9855 48.9527V47.0434C15.6965 46.9757 16.3634 46.9215 16.9863 46.8809C17.616 46.8402 18.2051 46.8098 18.7535 46.7895C19.3087 46.7691 19.8233 46.759 20.2973 46.759C20.9337 46.759 21.4788 46.7827 21.9324 46.8301C22.3928 46.8707 22.7923 46.9418 23.1309 47.0434C23.4694 47.1382 23.7775 47.2634 24.0551 47.4191C24.4139 47.6155 24.7051 47.8457 24.9285 48.1098C25.1587 48.3671 25.3449 48.6954 25.4871 49.0949C25.5751 49.3454 25.6394 49.6298 25.6801 49.948C25.7207 50.2595 25.741 50.6048 25.741 50.984V60.084H23.3543V51.0652C23.3543 50.3611 23.1986 49.8296 22.8871 49.4707C22.5756 49.1118 22.1152 48.8783 21.5059 48.7699C21.2079 48.7022 20.8152 48.6684 20.3277 48.6684C20.1043 48.6684 19.8673 48.6717 19.6168 48.6785C19.3663 48.6853 19.1022 48.6954 18.8246 48.709V56.5395C18.8246 56.9525 18.7941 57.3283 18.7332 57.6668C18.679 58.0053 18.5809 58.3202 18.4387 58.6113C18.2626 58.9905 18.0223 59.2986 17.7176 59.5355C17.44 59.7454 17.1082 59.9046 16.7223 60.0129C16.3431 60.1145 15.903 60.1652 15.4019 60.1652ZM29.2043 60.084V46.9621H31.591V60.084H29.2043ZM35.3488 60.084L34.2418 46.9621H36.5473L37.1363 54.0207C37.4749 53.9462 37.8032 53.8345 38.1215 53.6855C38.4465 53.5366 38.7139 53.3402 38.9238 53.0965C39.1676 52.7986 39.3572 52.4296 39.4926 51.9895C39.628 51.5426 39.7194 51.0585 39.7668 50.5371L40.0816 46.9621H42.3566L42.0316 50.5168C41.9572 51.3564 41.8116 52.091 41.5949 52.7207C41.3782 53.3436 41.0532 53.8819 40.6199 54.3355C40.234 54.7553 39.7769 55.0803 39.2488 55.3105C38.7275 55.534 38.1079 55.6931 37.3902 55.7879C37.3699 55.7879 37.3496 55.7913 37.3293 55.798C37.3157 55.798 37.3022 55.798 37.2887 55.798L37.4918 58.1949H40.2746C41.0939 58.1949 41.8454 57.9783 42.5293 57.5449C43.2199 57.1116 43.7887 56.4853 44.2355 55.666C44.6824 54.8264 44.96 53.8447 45.0684 52.7207L45.5965 46.9621H47.8816L47.3332 52.7613C47.2587 53.5332 47.1165 54.2543 46.9066 54.9246C46.7035 55.5949 46.4428 56.2077 46.1246 56.7629C45.8064 57.3113 45.434 57.7988 45.0074 58.2254C44.5876 58.6452 44.09 58.9939 43.5144 59.2715C43.0066 59.5694 42.4616 59.7793 41.8793 59.9012C41.3038 60.023 40.6978 60.084 40.0613 60.084H35.3488ZM50.7457 60.1957C50.5629 60.1957 50.3598 60.1822 50.1363 60.1551C49.9197 60.128 49.6861 60.0908 49.4355 60.0434L49.6894 57.9105C49.8926 57.9579 50.0991 57.9952 50.309 58.0223C50.5189 58.0426 50.7322 58.0527 50.9488 58.0527C51.4431 58.0527 51.89 57.9478 52.2894 57.7379C52.6957 57.528 53.0309 57.2267 53.2949 56.834C53.4777 56.5564 53.6199 56.2415 53.7215 55.8895C53.823 55.5374 53.8738 55.1447 53.8738 54.7113V50.3949C53.8738 49.8668 53.7892 49.4504 53.6199 49.1457C53.4574 48.841 53.1392 48.6887 52.6652 48.6887C52.3944 48.6887 52.1202 48.709 51.8426 48.7496C51.565 48.7835 51.2569 48.841 50.9184 48.9223V46.9824C51.6022 46.8335 52.2657 46.759 52.909 46.759C53.471 46.759 53.9483 46.8199 54.341 46.9418C54.7337 47.0569 55.0519 47.2194 55.2957 47.4293C55.6613 47.734 55.9118 48.1368 56.0473 48.6379C56.1894 49.1322 56.2605 49.6874 56.2605 50.3035V60.084H54.4121L54.0769 58.0629H53.9449C53.8163 58.2931 53.6605 58.5267 53.4777 58.7637C53.3017 58.9939 53.129 59.1835 52.9598 59.3324C52.6889 59.5965 52.3605 59.8064 51.9746 59.9621C51.5887 60.1178 51.179 60.1957 50.7457 60.1957ZM64.6394 60.084V51.0652C64.6394 50.3746 64.4871 49.8533 64.1824 49.5012C63.8845 49.1423 63.4376 48.9053 62.8418 48.7902C62.6861 48.7428 62.5134 48.709 62.3238 48.6887C62.1342 48.6684 61.9311 48.6582 61.7144 48.6582C61.4301 48.6582 61.0915 48.665 60.6988 48.6785C60.3061 48.6921 59.9032 48.7124 59.4902 48.7395C59.0772 48.7665 58.6913 48.7936 58.3324 48.8207V46.9012C58.9621 46.8538 59.5444 46.8199 60.0793 46.7996C60.6142 46.7725 61.1051 46.759 61.5519 46.759C62.4389 46.759 63.1397 46.7962 63.6543 46.8707C64.1689 46.9452 64.6327 47.0772 65.0457 47.2668C65.4655 47.4564 65.8108 47.6866 66.0816 47.9574C66.3525 48.2215 66.5691 48.5668 66.7316 48.9934C66.84 49.3048 66.9144 49.623 66.9551 49.948C67.0025 50.273 67.0262 50.6454 67.0262 51.0652V60.084H64.6394ZM70.3879 60.1652C70.1915 60.1652 69.9918 60.1449 69.7887 60.1043C69.5923 60.0637 69.3824 60.0027 69.159 59.9215V58.1441C69.4772 58.1983 69.7954 58.2254 70.1137 58.2254C70.5605 58.2254 70.8889 58.09 71.0988 57.8191C71.3155 57.5483 71.4238 57.1217 71.4238 56.5395V48.8512C71.1801 48.8647 70.9363 48.8816 70.6926 48.902C70.4556 48.9223 70.2152 48.9392 69.9715 48.9527V47.0434C70.6824 46.9757 71.3493 46.9215 71.9723 46.8809C72.6019 46.8402 73.191 46.8098 73.7394 46.7895C74.2947 46.7691 74.8092 46.759 75.2832 46.759C75.9197 46.759 76.4647 46.7827 76.9183 46.8301C77.3788 46.8707 77.7782 46.9418 78.1168 47.0434C78.4553 47.1382 78.7634 47.2634 79.041 47.4191C79.3999 47.6155 79.691 47.8457 79.9144 48.1098C80.1447 48.3671 80.3308 48.6954 80.473 49.0949C80.5611 49.3454 80.6254 49.6298 80.666 49.948C80.7066 50.2595 80.7269 50.6048 80.7269 50.984V60.084H78.3402V51.0652C78.3402 50.3611 78.1845 49.8296 77.873 49.4707C77.5616 49.1118 77.1012 48.8783 76.4918 48.7699C76.1939 48.7022 75.8012 48.6684 75.3137 48.6684C75.0902 48.6684 74.8532 48.6717 74.6027 48.6785C74.3522 48.6853 74.0881 48.6954 73.8105 48.709V56.5395C73.8105 56.9525 73.7801 57.3283 73.7191 57.6668C73.665 58.0053 73.5668 58.3202 73.4246 58.6113C73.2486 58.9905 73.0082 59.2986 72.7035 59.5355C72.4259 59.7454 72.0941 59.9046 71.7082 60.0129C71.329 60.1145 70.8889 60.1652 70.3879 60.1652ZM91.8176 60.084V51.0652C91.8176 50.3882 91.6754 49.877 91.391 49.5316C91.1066 49.1796 90.6801 48.946 90.1113 48.8309C89.9488 48.7767 89.7457 48.7361 89.5019 48.709C89.265 48.6751 88.9941 48.6582 88.6894 48.6582C88.1952 48.6582 87.5892 48.6819 86.8715 48.7293C86.1538 48.7767 85.26 48.8512 84.1902 48.9527V47.0434C84.5288 46.996 84.8639 46.9587 85.1957 46.9316C85.5275 46.9046 85.8559 46.8809 86.1809 46.8605C86.7022 46.8267 87.1897 46.803 87.6434 46.7895C88.1038 46.7691 88.5269 46.759 88.9129 46.759C89.6915 46.759 90.3381 46.7996 90.8527 46.8809C91.3673 46.9553 91.8311 47.084 92.2441 47.2668C92.6572 47.4564 92.9991 47.6866 93.2699 47.9574C93.5475 48.2283 93.7642 48.5736 93.9199 48.9934C94.0282 49.3048 94.1061 49.623 94.1535 49.948C94.2009 50.273 94.2246 50.6454 94.2246 51.0652V60.084H91.8176ZM84.1902 60.084V52.1012H86.5769V60.084H84.1902Z" fill="white"/>
<defs>
<linearGradient id="paint0_linear_1436_13694" x1="54.7106" y1="16.1806" x2="54.7106" y2="81.1826" gradientUnits="userSpaceOnUse">
<stop stop-color="#E93C83"/>
<stop offset="1" stop-color="#892E60"/>
</linearGradient>
</defs>
</svg>
