<svg width="109" height="110" viewBox="0 0 109 110" fill="none" xmlns="http://www.w3.org/2000/svg">
<path d="M54.4933 107.42C32.2338 107.42 12.2614 93.2786 4.82005 72.2431C2.7906 66.5091 1.75977 60.614 1.75977 54.6867C1.75977 48.7594 2.72617 43.2187 4.62677 37.6458L4.78784 37.1948C12.2292 16.1915 32.2016 1.98535 54.4933 1.98535C60.2918 1.98535 66.058 2.98397 71.6632 4.91678C75.6576 6.30197 79.5555 8.20257 83.1956 10.5542C98.2393 20.3471 107.195 36.8404 107.195 54.6867C107.195 56.3296 107.098 58.0369 106.937 59.8409C104.295 86.9647 81.746 107.42 54.4611 107.42H54.4933Z" fill="#68254A"/>
<path d="M54.4935 104.682C33.3936 104.682 14.452 91.2814 7.39727 71.3412C5.46445 65.8972 4.49805 60.292 4.49805 54.6868C4.49805 49.0817 5.40003 43.8309 7.20398 38.5479L7.33284 38.1935C14.4198 18.1567 33.3614 4.72363 54.4935 4.72363C60.002 4.72363 65.4783 5.65783 70.7935 7.494C74.5947 8.81475 78.2671 10.6187 81.7139 12.8414C95.9523 22.1189 104.489 37.7425 104.489 54.6868C104.489 56.2653 104.392 57.876 104.231 59.5511C101.751 85.2575 80.361 104.65 54.4935 104.65V104.682Z" fill="#B94987"/>
<path d="M80.2312 15.161C77.0421 13.0671 73.563 11.3598 69.9229 10.1035C65.0909 8.42839 59.9367 7.4942 54.5248 7.4942C33.9082 7.46199 16.4484 20.6695 9.9735 39.0635C9.94129 39.1923 9.87686 39.3212 9.81244 39.45C8.16954 44.2499 7.23535 49.3718 7.23535 54.7193C7.23535 60.0667 8.23397 65.5108 9.9735 70.4395C16.4484 88.769 33.9082 101.944 54.4604 101.944C79.0071 101.944 99.1406 83.2283 101.46 59.3258C101.621 57.8118 101.685 56.2655 101.685 54.7193C101.685 38.1293 93.1167 23.5688 80.1668 15.161H80.2312Z" fill="url(#paint0_linear_1436_13674)"/>
<path d="M54.6529 105.078C80.6806 105.078 102.029 85.2323 104.488 59.8877C65.7198 107.913 26.4391 87.1451 7.48193 71.6719C14.3475 91.1073 32.8607 105.078 54.6529 105.078Z" fill="#70264F" fill-opacity="0.6"/>
<path opacity="0.7" d="M81.4873 12.9214C78.1155 10.7076 74.4371 8.90252 70.5885 7.57423C65.4798 5.80319 60.0304 4.81549 54.3085 4.81549C32.5111 4.78143 14.0513 18.7454 7.20557 38.1929C20.2159 24.7738 44.7381 7.438 81.4532 12.9214H81.4873Z" fill="#CD76A6" fill-opacity="0.5"/>
<path d="M36.8045 15.9046C34.88 15.189 30.9322 17.1629 30.6608 18.5446C30.3153 20.3458 32.8321 20.3211 35.6695 19.2355C37.9148 18.3719 38.0629 16.3734 36.8045 15.9046Z" fill="#E7F5F9"/>
<path d="M26.8359 20.5676C25.4048 20.5183 24.2204 21.5052 24.3438 22.4675C24.5165 23.7505 25.8736 23.7012 27.0086 22.8129C28.3409 21.7767 27.7735 20.5923 26.8359 20.543V20.5676Z" fill="#E7F5F9"/>
<path d="M35.095 60.084V50.6892C35.095 49.9839 34.9468 49.4513 34.6506 49.0916C34.3544 48.7249 33.91 48.4815 33.3176 48.3616C33.1483 48.3052 32.9367 48.2629 32.6828 48.2347C32.4359 48.1994 32.1538 48.1818 31.8364 48.1818C31.3215 48.1818 30.6903 48.2065 29.9426 48.2558C29.195 48.3052 28.264 48.3828 27.1496 48.4886V46.4996C27.5022 46.4502 27.8514 46.4114 28.197 46.3832C28.5426 46.355 28.8846 46.3303 29.2232 46.3092C29.7663 46.2739 30.2741 46.2492 30.7467 46.2351C31.2263 46.2139 31.6671 46.2034 32.0692 46.2034C32.8803 46.2034 33.5538 46.2457 34.0899 46.3303C34.6259 46.4079 35.1091 46.5419 35.5393 46.7323C35.9695 46.9298 36.3257 47.1696 36.6079 47.4518C36.897 47.7339 37.1227 48.0936 37.285 48.5309C37.3978 48.8554 37.4789 49.1868 37.5283 49.5254C37.5777 49.864 37.6024 50.2519 37.6024 50.6892V60.084H35.095ZM27.1496 60.084V51.7683H29.6358V60.084H27.1496ZM41.0725 60.084V46.4996C41.2277 46.4714 41.4216 46.4467 41.6544 46.4255C41.8872 46.4044 42.1622 46.3797 42.4796 46.3515C43.1144 46.3021 43.721 46.2668 44.2993 46.2457C44.8847 46.2175 45.4419 46.2034 45.9709 46.2034C46.7962 46.2034 47.4768 46.2422 48.0128 46.3197C48.5489 46.3973 49.032 46.5313 49.4622 46.7218C49.8925 46.9122 50.2487 47.145 50.5308 47.42C50.82 47.6951 51.0457 48.0548 51.2079 48.4992C51.3208 48.8166 51.4019 49.1481 51.4512 49.4937C51.5006 49.8393 51.5253 50.2378 51.5253 50.6892V60.084H49.0179V50.6892C49.0179 49.9415 48.8522 49.3808 48.5207 49.007C48.1962 48.6261 47.7095 48.3828 47.0606 48.277C46.9055 48.2488 46.7186 48.2276 46.4999 48.2135C46.2883 48.1924 46.045 48.1818 45.7699 48.1818C45.4878 48.1818 45.1633 48.1924 44.7966 48.2135C44.4298 48.2276 44.0172 48.2523 43.5588 48.2876V60.084H41.0725ZM54.2866 60.084L55.1859 50.3718C55.207 50.1955 55.2212 50.0403 55.2282 49.9063C55.2353 49.7723 55.2388 49.6383 55.2388 49.5042C55.2388 49.2644 55.2247 49.0352 55.1965 48.8166C55.1753 48.5979 55.1365 48.3652 55.0801 48.1183C55.0589 48.0196 55.0237 47.8891 54.9743 47.7268C54.9249 47.5646 54.8755 47.4059 54.8262 47.2508C54.7839 47.0885 54.7486 46.9686 54.7204 46.891C54.6922 46.7994 54.6604 46.7147 54.6252 46.6371C54.5969 46.5525 54.5687 46.4643 54.5405 46.3726H56.8363C56.9562 46.6336 57.0585 46.884 57.1431 47.1238C57.2278 47.3636 57.2913 47.5964 57.3336 47.8221H57.4711C57.5699 47.681 57.7568 47.5047 58.0318 47.2931C58.314 47.0815 58.589 46.9052 58.8571 46.7641C59.1392 46.623 59.5024 46.4961 59.9468 46.3832C60.3911 46.2633 60.8707 46.2034 61.3856 46.2034C61.9146 46.2034 62.3907 46.2774 62.8139 46.4255C63.2441 46.5666 63.6179 46.7641 63.9353 47.018C64.1399 47.1873 64.3197 47.3742 64.4749 47.5787C64.6371 47.7762 64.7782 47.9913 64.8981 48.2241C65.1026 48.6473 65.2543 49.1304 65.353 49.6735C65.4588 50.2166 65.5117 50.8197 65.5117 51.4827V60.084H60.2536V58.1056H63.0043V51.4827C63.0043 50.996 62.9585 50.5657 62.8668 50.1919C62.7751 49.8181 62.6411 49.5078 62.4648 49.2609C62.3519 49.0634 62.2144 48.8871 62.0521 48.7319C61.8899 48.5697 61.6924 48.4463 61.4597 48.3616C61.2269 48.2699 60.9483 48.2241 60.6239 48.2241C60.2218 48.2241 59.848 48.284 59.5024 48.4039C59.1568 48.5239 58.8712 48.6684 58.6455 48.8377C58.4339 48.9999 58.2434 49.1798 58.0742 49.3773C57.9049 49.5677 57.7673 49.7652 57.6615 49.9697L56.7411 60.084H54.2866ZM69.5426 60.084L68.3894 46.415H70.791L71.4046 53.7679C71.7573 53.6903 72.0994 53.5739 72.4309 53.4187C72.7694 53.2636 73.048 53.059 73.2667 52.8051C73.5206 52.4948 73.7181 52.1104 73.8591 51.6519C74.0002 51.1864 74.0954 50.6821 74.1448 50.139L74.4728 46.415H76.8426L76.5041 50.1179C76.4265 50.9925 76.2748 51.7577 76.0491 52.4137C75.8234 53.0626 75.4849 53.6233 75.0335 54.0958C74.6315 54.5331 74.1554 54.8717 73.6052 55.1115C73.0621 55.3443 72.4168 55.51 71.6691 55.6088C71.648 55.6088 71.6268 55.6123 71.6057 55.6193C71.5915 55.6193 71.5774 55.6193 71.5633 55.6193L71.7749 58.1162H74.6738C75.5272 58.1162 76.3101 57.8905 77.0225 57.439C77.7419 56.9876 78.3344 56.3352 78.7999 55.4818C79.2654 54.6072 79.5546 53.5845 79.6674 52.4137L80.2176 46.415H82.598L82.0267 52.456C81.9491 53.26 81.801 54.0112 81.5823 54.7095C81.3708 55.4077 81.0992 56.046 80.7677 56.6244C80.4362 57.1957 80.0483 57.7035 79.6039 58.1479C79.1666 58.5852 78.6482 58.9484 78.0487 59.2376C77.5197 59.5479 76.9519 59.7666 76.3454 59.8935C75.7459 60.0205 75.1146 60.084 74.4516 60.084H69.5426Z" fill="white"/>
<defs>
<linearGradient id="paint0_linear_1436_13674" x1="54.4604" y1="16.1806" x2="54.4604" y2="81.1826" gradientUnits="userSpaceOnUse">
<stop stop-color="#E93C83"/>
<stop offset="1" stop-color="#892E60"/>
</linearGradient>
</defs>
</svg>
