<svg width="110" height="110" viewBox="0 0 110 110" fill="none" xmlns="http://www.w3.org/2000/svg">
<path d="M54.9933 107.42C32.7338 107.42 12.7614 93.2786 5.32005 72.2431C3.2906 66.5091 2.25977 60.614 2.25977 54.6867C2.25977 48.7594 3.22617 43.2187 5.12677 37.6458L5.28784 37.1948C12.7292 16.1915 32.7016 1.98535 54.9933 1.98535C60.7918 1.98535 66.558 2.98397 72.1632 4.91678C76.1576 6.30197 80.0555 8.20257 83.6956 10.5542C98.7393 20.3471 107.695 36.8404 107.695 54.6867C107.695 56.3296 107.598 58.0369 107.437 59.8409C104.795 86.9647 82.246 107.42 54.9611 107.42H54.9933Z" fill="#68254A"/>
<path d="M54.9935 104.682C33.8936 104.682 14.952 91.2814 7.89727 71.3412C5.96445 65.8972 4.99805 60.292 4.99805 54.6868C4.99805 49.0817 5.90003 43.8309 7.70398 38.5479L7.83284 38.1935C14.9198 18.1567 33.8614 4.72363 54.9935 4.72363C60.502 4.72363 65.9783 5.65783 71.2935 7.494C75.0947 8.81475 78.7671 10.6187 82.2139 12.8414C96.4523 22.1189 104.989 37.7425 104.989 54.6868C104.989 56.2653 104.892 57.876 104.731 59.5511C102.251 85.2575 80.861 104.65 54.9935 104.65V104.682Z" fill="#B94987"/>
<path d="M80.7312 15.161C77.5421 13.0671 74.063 11.3598 70.4229 10.1035C65.5909 8.42839 60.4367 7.4942 55.0248 7.4942C34.4082 7.46199 16.9484 20.6695 10.4735 39.0635C10.4413 39.1923 10.3769 39.3212 10.3124 39.45C8.66954 44.2499 7.73535 49.3718 7.73535 54.7193C7.73535 60.0667 8.73397 65.5108 10.4735 70.4395C16.9484 88.769 34.4082 101.944 54.9604 101.944C79.5071 101.944 99.6406 83.2283 101.96 59.3258C102.121 57.8118 102.185 56.2655 102.185 54.7193C102.185 38.1293 93.6167 23.5688 80.6668 15.161H80.7312Z" fill="url(#paint0_linear_1436_13654)"/>
<path d="M55.1529 105.078C81.1806 105.078 102.529 85.2323 104.988 59.8877C66.2198 107.913 26.9391 87.1451 7.98193 71.6719C14.8475 91.1073 33.3607 105.078 55.1529 105.078Z" fill="#70264F" fill-opacity="0.6"/>
<path opacity="0.7" d="M81.9873 12.9214C78.6155 10.7076 74.9371 8.90252 71.0885 7.57423C65.9798 5.80319 60.5304 4.81549 54.8085 4.81549C33.0111 4.78143 14.5513 18.7454 7.70557 38.1929C20.7159 24.7738 45.2381 7.438 81.9532 12.9214H81.9873Z" fill="#CD76A6" fill-opacity="0.5"/>
<path d="M37.3045 15.9046C35.38 15.189 31.4322 17.1629 31.1608 18.5446C30.8153 20.3458 33.3321 20.3211 36.1695 19.2355C38.4148 18.3719 38.5629 16.3734 37.3045 15.9046Z" fill="#E7F5F9"/>
<path d="M27.3359 20.5676C25.9048 20.5183 24.7204 21.5052 24.8438 22.4675C25.0165 23.7505 26.3736 23.7012 27.5086 22.8129C28.8409 21.7767 28.2735 20.5923 27.3359 20.543V20.5676Z" fill="#E7F5F9"/>
<path d="M42.9267 60.285C41.9393 60.285 41.0894 60.1016 40.377 59.7349C39.8269 59.4598 39.3508 59.0895 38.9487 58.624C38.5538 58.1514 38.2293 57.5801 37.9754 56.9101C37.792 56.4093 37.651 55.8521 37.5522 55.2385C37.4535 54.6178 37.4041 53.9477 37.4041 53.2283C37.4041 52.4948 37.464 51.8283 37.5839 51.2287C37.7039 50.6222 37.8837 50.0826 38.1235 49.61C38.3633 49.1304 38.6631 48.7178 39.0228 48.3722L39.0545 48.351L37.5839 48.4251V46.3938C38.2399 46.3515 38.8712 46.3162 39.4777 46.288C40.0913 46.2598 40.6873 46.2386 41.2657 46.2245C41.8441 46.2104 42.4013 46.2034 42.9373 46.2034C43.5016 46.2034 44.027 46.2668 44.5137 46.3938C45.0074 46.5208 45.4553 46.7147 45.8573 46.9757C46.2946 47.2366 46.679 47.5717 47.0105 47.9808C47.3491 48.3828 47.6277 48.8589 47.8463 49.409C48.0579 49.9169 48.2166 50.4917 48.3224 51.1335C48.4282 51.7683 48.4811 52.463 48.4811 53.2177C48.4811 53.8384 48.4458 54.4203 48.3753 54.9634C48.3048 55.4994 48.199 55.9967 48.0579 56.4551C47.8251 57.1887 47.5113 57.8234 47.1163 58.3595C46.7213 58.8885 46.2488 59.3081 45.6986 59.6185C44.9157 60.0628 43.9917 60.285 42.9267 60.285ZM42.9373 58.2643C43.424 58.2643 43.8472 58.1691 44.2069 57.9786C44.5736 57.7882 44.8699 57.5202 45.0956 57.1746C45.3072 56.8713 45.4729 56.5116 45.5928 56.0954C45.7127 55.6722 45.7974 55.2173 45.8467 54.7306C45.9032 54.2369 45.9314 53.7361 45.9314 53.2283C45.9314 52.0786 45.8256 51.1582 45.614 50.467C45.4094 49.7758 45.1238 49.2503 44.757 48.8906C44.5384 48.6649 44.2774 48.4921 43.9741 48.3722C43.6708 48.2523 43.3429 48.1924 42.9902 48.1924C42.694 48.1924 42.4295 48.1959 42.1967 48.2029C41.964 48.21 41.7312 48.2241 41.4985 48.2453C40.9695 48.8307 40.578 49.5289 40.3241 50.34C40.0772 51.1512 39.9538 52.1139 39.9538 53.2283C39.9538 54.1452 40.0208 54.9316 40.1548 55.5876C40.2959 56.2435 40.5075 56.7725 40.7896 57.1746C41.0153 57.5202 41.308 57.7882 41.6677 57.9786C42.0274 58.1691 42.4506 58.2643 42.9373 58.2643ZM50.2267 60.7082V58.6875L52.8928 58.296C53.0833 58.2607 53.2737 58.2255 53.4641 58.1902C53.6616 58.1479 53.8591 58.102 54.0566 58.0527L50.9462 46.415H53.4218L55.0511 52.4771L56.1408 57.2698C56.6557 56.9806 57.1106 56.6032 57.5056 56.1377C57.9076 55.6722 58.2356 55.1291 58.4895 54.5085C58.7434 53.8807 58.9092 53.193 58.9868 52.4454L59.5475 46.415H61.9703L61.4095 52.3502C61.3602 52.8862 61.272 53.3976 61.145 53.8843C61.0251 54.3639 60.8664 54.8188 60.6689 55.249C60.4715 55.6793 60.2387 56.0813 59.9707 56.4551C59.4135 57.4355 58.6341 58.2396 57.6326 58.8673C56.6381 59.488 55.4355 59.9077 54.0249 60.1263C53.3407 60.2321 52.6812 60.3308 52.0465 60.4225C51.4187 60.5213 50.8122 60.6165 50.2267 60.7082ZM67.1543 60.2956C66.4208 60.2956 65.7543 60.2674 65.1548 60.2109C64.5623 60.1545 64.0121 60.0699 63.5043 59.957V57.8517C63.7794 57.9222 64.1038 57.9892 64.4777 58.0527C64.8515 58.1091 65.2465 58.1549 65.6626 58.1902C66.0858 58.2255 66.509 58.2431 66.9322 58.2431C67.3412 58.2431 67.7045 58.1867 68.0219 58.0738C68.3463 57.961 68.6214 57.8093 68.8471 57.6189C69.0446 57.4426 69.2209 57.238 69.3761 57.0053C69.5312 56.7725 69.6512 56.5327 69.7358 56.2859C69.8275 56.0249 69.9051 55.7216 69.9685 55.376C70.032 55.0233 70.0638 54.653 70.0638 54.2651V52.4243C70.0638 51.7683 69.9968 51.1653 69.8627 50.6151C69.7358 50.0579 69.5242 49.5959 69.228 49.2292C68.9388 48.8695 68.5685 48.6085 68.1171 48.4463C67.6727 48.277 67.179 48.1924 66.6359 48.1924C66.2057 48.1924 65.7684 48.217 65.324 48.2664C64.8867 48.3158 64.4389 48.3898 63.9804 48.4886C63.8746 48.5168 63.7794 48.538 63.6948 48.5521C63.6172 48.5662 63.5537 48.5803 63.5043 48.5944V46.5525C63.73 46.489 63.9487 46.4396 64.1603 46.4044C64.3789 46.3691 64.6222 46.3374 64.8903 46.3092C65.2218 46.2668 65.5744 46.2386 65.9482 46.2245C66.3291 46.2104 66.7276 46.2034 67.1438 46.2034C67.9125 46.2034 68.6214 46.3233 69.2703 46.5631C69.9262 46.8029 70.4552 47.1167 70.8572 47.5047C71.0618 47.7092 71.2452 47.9279 71.4074 48.1606C71.5767 48.3934 71.7283 48.6473 71.8623 48.9224C72.0175 49.2539 72.148 49.6065 72.2538 49.9803C72.3596 50.3471 72.4371 50.735 72.4865 51.1441C72.5359 51.5532 72.5606 51.9834 72.5606 52.4348V54.2651C72.5606 54.8929 72.5147 55.4712 72.423 56.0002C72.3314 56.5221 72.1797 57.0229 71.9681 57.5025C71.7777 57.9328 71.5379 58.3101 71.2487 58.6346C70.9666 58.952 70.6033 59.22 70.159 59.4386C69.7146 59.7772 69.2244 60.0029 68.6884 60.1157C68.1594 60.2356 67.6481 60.2956 67.1543 60.2956Z" fill="white"/>
<defs>
<linearGradient id="paint0_linear_1436_13654" x1="54.9604" y1="16.1806" x2="54.9604" y2="81.1826" gradientUnits="userSpaceOnUse">
<stop stop-color="#E93C83"/>
<stop offset="1" stop-color="#892E60"/>
</linearGradient>
</defs>
</svg>
