<svg width="110" height="110" viewBox="0 0 110 110" fill="none" xmlns="http://www.w3.org/2000/svg">
<path d="M54.7433 107.42C32.4838 107.42 12.5114 93.2786 5.07005 72.2431C3.0406 66.5091 2.00977 60.614 2.00977 54.6867C2.00977 48.7594 2.97617 43.2187 4.87677 37.6458L5.03784 37.1948C12.4792 16.1915 32.4516 1.98535 54.7433 1.98535C60.5418 1.98535 66.308 2.98397 71.9132 4.91678C75.9076 6.30197 79.8055 8.20257 83.4456 10.5542C98.4893 20.3471 107.445 36.8404 107.445 54.6867C107.445 56.3296 107.348 58.0369 107.187 59.8409C104.545 86.9647 81.996 107.42 54.7111 107.42H54.7433Z" fill="#68254A"/>
<path d="M54.7427 104.682C33.6429 104.682 14.7013 91.2814 7.64653 71.3412C5.71372 65.8972 4.74731 60.292 4.74731 54.6868C4.74731 49.0817 5.64929 43.8309 7.45325 38.5479L7.58211 38.1935C14.6691 18.1567 33.6107 4.72363 54.7427 4.72363C60.2513 4.72363 65.7276 5.65783 71.0428 7.494C74.844 8.81475 78.5163 10.6187 81.9632 12.8414C96.2016 22.1189 104.738 37.7425 104.738 54.6868C104.738 56.2653 104.642 57.876 104.48 59.5511C102 85.2575 80.6102 104.65 54.7427 104.65V104.682Z" fill="#B94987"/>
<path d="M80.481 15.161C77.2919 13.0671 73.8128 11.3598 70.1727 10.1035C65.3406 8.42839 60.1865 7.4942 54.7746 7.4942C34.1579 7.46199 16.6982 20.6695 10.2233 39.0635C10.191 39.1923 10.1266 39.3212 10.0622 39.45C8.4193 44.2499 7.48511 49.3718 7.48511 54.7193C7.48511 60.0667 8.48373 65.5108 10.2233 70.4395C16.6982 88.769 34.1579 101.944 54.7102 101.944C79.2569 101.944 99.3904 83.2283 101.71 59.3258C101.871 57.8118 101.935 56.2655 101.935 54.7193C101.935 38.1293 93.3664 23.5688 80.4166 15.161H80.481Z" fill="url(#paint0_linear_1436_13684)"/>
<path d="M54.9036 105.078C80.9313 105.078 102.279 85.2323 104.739 59.8877C65.9705 107.913 26.6899 87.1451 7.73267 71.6719C14.5982 91.1073 33.1114 105.078 54.9036 105.078Z" fill="#70264F" fill-opacity="0.6"/>
<path opacity="0.7" d="M81.738 12.9214C78.3662 10.7076 74.6879 8.90252 70.8393 7.57423C65.7305 5.80319 60.2811 4.81549 54.5593 4.81549C32.7618 4.78143 14.3021 18.7454 7.4563 38.1929C20.4667 24.7738 44.9888 7.438 81.7039 12.9214H81.738Z" fill="#CD76A6" fill-opacity="0.5"/>
<path d="M37.054 15.9046C35.1295 15.189 31.1817 17.1629 30.9103 18.5446C30.5648 20.3458 33.0816 20.3211 35.9191 19.2355C38.1644 18.3719 38.3124 16.3734 37.054 15.9046Z" fill="#E7F5F9"/>
<path d="M27.0856 20.5676C25.6546 20.5183 24.4702 21.5052 24.5936 22.4675C24.7663 23.7505 26.1233 23.7012 27.2583 22.8129C28.5907 21.7767 28.0232 20.5923 27.0856 20.543V20.5676Z" fill="#E7F5F9"/>
<path d="M36.7308 60.084V58.1056H43.1421V50.6892C43.1421 49.9697 42.987 49.4302 42.6766 49.0705C42.3733 48.7037 41.9184 48.4604 41.3118 48.3405C41.1426 48.2911 40.9486 48.2523 40.7299 48.2241C40.5113 48.1959 40.2644 48.1818 39.9894 48.1818C39.6155 48.1818 39.1677 48.1994 38.6457 48.2347C38.1238 48.2629 37.482 48.3052 36.7202 48.3616V46.3832C37.2139 46.3197 37.7465 46.2739 38.3178 46.2457C38.8891 46.2175 39.4992 46.2034 40.1481 46.2034C40.8322 46.2034 41.4176 46.2351 41.9043 46.2986C42.391 46.355 42.8424 46.4537 43.2585 46.5948C43.6887 46.7429 44.0449 46.9298 44.3271 47.1555C44.6162 47.3812 44.849 47.6634 45.0253 48.0019C45.1875 48.2276 45.311 48.4745 45.3956 48.7425C45.4873 49.0035 45.5508 49.2891 45.586 49.5995C45.6213 49.9027 45.6389 50.2378 45.6389 50.6045V58.1056H47.1836V60.084H36.7308ZM48.5695 60.084V58.1056H54.8116L56.1975 58.1585L53.1823 53.916L48.4426 46.415H51.1722L54.5894 52.0222L55.1819 52.9427C55.6051 52.463 55.9401 51.9235 56.187 51.324C56.4409 50.7174 56.6031 50.0473 56.6736 49.3138L56.9381 46.415H59.3503L59.0964 49.1234C59.0682 49.4408 59.0294 49.737 58.98 50.0121C58.9377 50.2871 58.8848 50.5516 58.8213 50.8055C58.7649 51.0524 58.6908 51.2957 58.5991 51.5356C58.5074 51.8106 58.3946 52.0786 58.2606 52.3396C58.1336 52.6006 57.9855 52.8651 57.8162 53.1331C57.6328 53.4364 57.4283 53.7256 57.2026 54.0006C56.9769 54.2757 56.7336 54.5331 56.4726 54.773L59.2762 58.6346V60.084H48.5695ZM61.1488 60.7082V58.6875L63.8149 58.296C64.0054 58.2607 64.1958 58.2255 64.3863 58.1902C64.5837 58.1479 64.7812 58.102 64.9787 58.0527L61.8683 46.415H64.3439L65.9732 52.4771L67.0629 57.2698C67.5778 56.9806 68.0327 56.6032 68.4277 56.1377C68.8297 55.6722 69.1577 55.1291 69.4116 54.5085C69.6655 53.8807 69.8313 53.193 69.9089 52.4454L70.4696 46.415H72.8924L72.3316 52.3502C72.2823 52.8862 72.1941 53.3976 72.0671 53.8843C71.9472 54.3639 71.7885 54.8188 71.5911 55.249C71.3936 55.6793 71.1608 56.0813 70.8928 56.4551C70.3356 57.4355 69.5562 58.2396 68.5547 58.8673C67.5602 59.488 66.3576 59.9077 64.947 60.1263C64.2628 60.2321 63.6034 60.3308 62.9686 60.4225C62.3408 60.5213 61.7343 60.6165 61.1488 60.7082Z" fill="white"/>
<defs>
<linearGradient id="paint0_linear_1436_13684" x1="54.7102" y1="16.1806" x2="54.7102" y2="81.1826" gradientUnits="userSpaceOnUse">
<stop stop-color="#E93C83"/>
<stop offset="1" stop-color="#892E60"/>
</linearGradient>
</defs>
</svg>
