<svg width="110" height="110" viewBox="0 0 110 110" fill="none" xmlns="http://www.w3.org/2000/svg">
<path d="M55.2433 107.42C32.9838 107.42 13.0114 93.2786 5.57005 72.2431C3.5406 66.5091 2.50977 60.614 2.50977 54.6867C2.50977 48.7594 3.47617 43.2187 5.37677 37.6458L5.53784 37.1948C12.9792 16.1915 32.9516 1.98535 55.2433 1.98535C61.0418 1.98535 66.808 2.98397 72.4132 4.91678C76.4076 6.30197 80.3055 8.20257 83.9456 10.5542C98.9893 20.3471 107.945 36.8404 107.945 54.6867C107.945 56.3296 107.848 58.0369 107.687 59.8409C105.045 86.9647 82.496 107.42 55.2111 107.42H55.2433Z" fill="#68254A"/>
<path d="M55.2435 104.682C34.1436 104.682 15.202 91.2814 8.14727 71.3412C6.21445 65.8972 5.24805 60.292 5.24805 54.6868C5.24805 49.0817 6.15003 43.8309 7.95398 38.5479L8.08284 38.1935C15.1698 18.1567 34.1114 4.72363 55.2435 4.72363C60.752 4.72363 66.2283 5.65783 71.5435 7.494C75.3447 8.81475 79.0171 10.6187 82.4639 12.8414C96.7023 22.1189 105.239 37.7425 105.239 54.6868C105.239 56.2653 105.142 57.876 104.981 59.5511C102.501 85.2575 81.111 104.65 55.2435 104.65V104.682Z" fill="#B94987"/>
<path d="M80.9812 15.161C77.7921 13.0671 74.313 11.3598 70.6729 10.1035C65.8409 8.42839 60.6867 7.4942 55.2748 7.4942C34.6582 7.46199 17.1984 20.6695 10.7235 39.0635C10.6913 39.1923 10.6269 39.3212 10.5624 39.45C8.91954 44.2499 7.98535 49.3718 7.98535 54.7193C7.98535 60.0667 8.98397 65.5108 10.7235 70.4395C17.1984 88.769 34.6582 101.944 55.2104 101.944C79.7571 101.944 99.8906 83.2283 102.21 59.3258C102.371 57.8118 102.435 56.2655 102.435 54.7193C102.435 38.1293 93.8667 23.5688 80.9168 15.161H80.9812Z" fill="url(#paint0_linear_1436_13664)"/>
<path d="M55.4029 105.078C81.4306 105.078 102.779 85.2323 105.238 59.8877C66.4698 107.913 27.1891 87.1451 8.23193 71.6719C15.0975 91.1073 33.6107 105.078 55.4029 105.078Z" fill="#70264F" fill-opacity="0.6"/>
<path opacity="0.7" d="M82.2373 12.9214C78.8655 10.7076 75.1871 8.90252 71.3385 7.57423C66.2298 5.80319 60.7804 4.81549 55.0585 4.81549C33.2611 4.78143 14.8013 18.7454 7.95557 38.1929C20.9659 24.7738 45.4881 7.438 82.2032 12.9214H82.2373Z" fill="#CD76A6" fill-opacity="0.5"/>
<path d="M37.5545 15.9046C35.63 15.189 31.6822 17.1629 31.4108 18.5446C31.0653 20.3458 33.5821 20.3211 36.4195 19.2355C38.6648 18.3719 38.8129 16.3734 37.5545 15.9046Z" fill="#E7F5F9"/>
<path d="M27.5859 20.5676C26.1548 20.5183 24.9704 21.5052 25.0938 22.4675C25.2665 23.7505 26.6236 23.7012 27.7586 22.8129C29.0909 21.7767 28.5235 20.5923 27.5859 20.543V20.5676Z" fill="#E7F5F9"/>
<path d="M30.5868 60.084V50.6892C30.5868 49.9839 30.4387 49.4513 30.1425 49.0916C29.8462 48.7249 29.4019 48.4815 28.8094 48.3616C28.6402 48.3052 28.4286 48.2629 28.1746 48.2347C27.9278 48.1994 27.6457 48.1818 27.3283 48.1818C26.8134 48.1818 26.1821 48.2065 25.4345 48.2558C24.6869 48.3052 23.7558 48.3828 22.6414 48.4886V46.4996C22.9941 46.4502 23.3432 46.4114 23.6888 46.3832C24.0344 46.355 24.3765 46.3303 24.7151 46.3092C25.2582 46.2739 25.766 46.2492 26.2386 46.2351C26.7182 46.2139 27.159 46.2034 27.561 46.2034C28.3721 46.2034 29.0457 46.2457 29.5818 46.3303C30.1178 46.4079 30.6009 46.5419 31.0312 46.7323C31.4614 46.9298 31.8176 47.1696 32.0997 47.4518C32.3889 47.7339 32.6146 48.0936 32.7768 48.5309C32.8897 48.8554 32.9708 49.1868 33.0202 49.5254C33.0695 49.864 33.0942 50.2519 33.0942 50.6892V60.084H30.5868ZM22.6414 60.084V51.7683H25.1277V60.084H22.6414ZM35.4747 60.7082V58.6875L38.1408 58.296C38.3312 58.2607 38.5216 58.2255 38.7121 58.1902C38.9096 58.1479 39.107 58.102 39.3045 58.0527L36.1941 46.415H38.6698L40.299 52.4771L41.3887 57.2698C41.9036 56.9806 42.3586 56.6032 42.7535 56.1377C43.1556 55.6722 43.4835 55.1291 43.7375 54.5085C43.9914 53.8807 44.1571 53.193 44.2347 52.4454L44.7954 46.415H47.2182L46.6575 52.3502C46.6081 52.8862 46.5199 53.3976 46.393 53.8843C46.2731 54.3639 46.1144 54.8188 45.9169 55.249C45.7194 55.6793 45.4866 56.0813 45.2186 56.4551C44.6614 57.4355 43.882 58.2396 42.8805 58.8673C41.886 59.488 40.6834 59.9077 39.2728 60.1263C38.5886 60.2321 37.9292 60.3308 37.2944 60.4225C36.6667 60.5213 36.0601 60.6165 35.4747 60.7082ZM49.9054 60.1686C49.7009 60.1686 49.4928 60.1475 49.2812 60.1051C49.0767 60.0628 48.858 59.9993 48.6253 59.9147V58.0633C48.9568 58.1197 49.2883 58.1479 49.6198 58.1479C50.0853 58.1479 50.4274 58.0068 50.646 57.7247C50.8717 57.4426 50.9846 56.9982 50.9846 56.3917V48.3828C50.7307 48.3969 50.4767 48.4145 50.2228 48.4357C49.976 48.4568 49.7256 48.4745 49.4717 48.4886V46.4996C50.2123 46.4291 50.907 46.3726 51.5559 46.3303C52.2118 46.288 52.8254 46.2563 53.3968 46.2351C53.9751 46.2139 54.5112 46.2034 55.0049 46.2034C55.6679 46.2034 56.2357 46.228 56.7082 46.2774C57.1878 46.3197 57.604 46.3938 57.9566 46.4996C58.3093 46.5983 58.6302 46.7288 58.9194 46.891C59.2932 47.0956 59.5965 47.3354 59.8292 47.6105C60.069 47.8785 60.263 48.2206 60.4111 48.6367C60.5028 48.8977 60.5698 49.1939 60.6121 49.5254C60.6545 49.8498 60.6756 50.2096 60.6756 50.6045V60.084H58.1894V50.6892C58.1894 49.9556 58.0272 49.402 57.7027 49.0282C57.3783 48.6543 56.8987 48.411 56.2639 48.2982C55.9535 48.2276 55.5444 48.1924 55.0366 48.1924C54.8039 48.1924 54.557 48.1959 54.296 48.2029C54.0351 48.21 53.76 48.2206 53.4708 48.2347V56.3917C53.4708 56.8219 53.4391 57.2133 53.3756 57.566C53.3192 57.9187 53.2169 58.2466 53.0688 58.5499C52.8854 58.9449 52.635 59.2658 52.3176 59.5127C52.0284 59.7313 51.6828 59.8971 51.2808 60.0099C50.8858 60.1157 50.4274 60.1686 49.9054 60.1686ZM68.949 60.2956C68.4905 60.2956 68.0356 60.285 67.5842 60.2638C67.1398 60.2497 66.7272 60.225 66.3464 60.1898C65.9725 60.1616 65.6587 60.1298 65.4048 60.0946L64.9393 60.0417V58.0844C65.6234 58.1549 66.304 58.2114 66.9811 58.2537C67.6653 58.289 68.3459 58.3066 69.023 58.3066C69.4603 58.3066 69.8447 58.2361 70.1762 58.095C70.5148 57.9469 70.7934 57.7494 71.012 57.5025C71.273 57.2275 71.474 56.8713 71.6151 56.434C71.7632 55.9967 71.8619 55.5523 71.9113 55.1009C71.9466 54.7553 71.9713 54.445 71.9854 54.1699C71.9995 53.8948 72.0065 53.5845 72.0065 53.2389C72.0065 52.7029 71.9854 52.2303 71.943 51.8212C71.9007 51.4121 71.8231 50.996 71.7103 50.5728C71.5974 50.1355 71.4387 49.744 71.2342 49.3984C71.0297 49.0528 70.7581 48.7813 70.4196 48.5838C70.2221 48.471 70.0105 48.3863 69.7848 48.3299C69.5661 48.2664 69.3298 48.2347 69.0759 48.2347C68.5822 48.2347 68.1484 48.3017 67.7746 48.4357C67.4079 48.5626 67.1187 48.7249 66.9071 48.9224C66.632 49.1692 66.4134 49.4796 66.2511 49.8534C66.0889 50.2272 66.0078 50.6151 66.0078 51.0171C66.0078 51.4544 66.0783 51.8529 66.2194 52.2127C66.3675 52.5724 66.565 52.8651 66.8119 53.0908C67.0094 53.26 67.2245 53.3976 67.4572 53.5034C67.697 53.6021 67.951 53.6586 68.219 53.6727L68.7056 53.7573L68.3142 55.577L67.8064 55.5453C67.4043 55.5312 67.027 55.4818 66.6743 55.3972C66.3287 55.3125 66.0043 55.1926 65.701 55.0374C65.4118 54.8823 65.1473 54.6989 64.9075 54.4873C64.6677 54.2687 64.4632 54.0253 64.2939 53.7573C64.0611 53.4046 63.8813 52.9991 63.7543 52.5406C63.6344 52.0822 63.5745 51.5849 63.5745 51.0489C63.5745 50.2942 63.7085 49.6171 63.9765 49.0176C64.2516 48.411 64.6078 47.9208 65.0451 47.547C65.574 47.0885 66.1841 46.75 66.8753 46.5313C67.5666 46.3127 68.2825 46.2034 69.023 46.2034C69.6437 46.2034 70.215 46.2739 70.737 46.415C71.2589 46.549 71.7279 46.7535 72.1441 47.0286C72.4685 47.2472 72.7683 47.5188 73.0433 47.8432C73.3255 48.1677 73.5653 48.5415 73.7628 48.9647C74.0237 49.5148 74.2212 50.1461 74.3552 50.8584C74.4892 51.5638 74.5562 52.3572 74.5562 53.2389C74.5562 54.2757 74.4681 55.1891 74.2917 55.979C74.1154 56.769 73.8721 57.432 73.5617 57.968C73.2937 58.4124 72.9658 58.7897 72.5778 59.1001C72.197 59.4034 71.7949 59.6361 71.3717 59.7983C71.0402 59.9606 70.6699 60.084 70.2609 60.1686C69.8588 60.2533 69.4215 60.2956 68.949 60.2956ZM85.3899 60.084V50.6892C85.3899 49.9839 85.2418 49.4513 84.9455 49.0916C84.6493 48.7249 84.205 48.4815 83.6125 48.3616C83.4432 48.3052 83.2316 48.2629 82.9777 48.2347C82.7309 48.1994 82.4487 48.1818 82.1313 48.1818C81.6165 48.1818 80.9852 48.2065 80.2376 48.2558C79.4899 48.3052 78.5589 48.3828 77.4445 48.4886V46.4996C77.7972 46.4502 78.1463 46.4114 78.4919 46.3832C78.8375 46.355 79.1796 46.3303 79.5181 46.3092C80.0612 46.2739 80.5691 46.2492 81.0416 46.2351C81.5212 46.2139 81.9621 46.2034 82.3641 46.2034C83.1752 46.2034 83.8488 46.2457 84.3848 46.3303C84.9209 46.4079 85.404 46.5419 85.8342 46.7323C86.2645 46.9298 86.6207 47.1696 86.9028 47.4518C87.192 47.7339 87.4177 48.0936 87.5799 48.5309C87.6928 48.8554 87.7739 49.1868 87.8232 49.5254C87.8726 49.864 87.8973 50.2519 87.8973 50.6892V60.084H85.3899ZM77.4445 60.084V51.7683H79.9308V60.084H77.4445Z" fill="white"/>
<defs>
<linearGradient id="paint0_linear_1436_13664" x1="55.2104" y1="16.1806" x2="55.2104" y2="81.1826" gradientUnits="userSpaceOnUse">
<stop stop-color="#E93C83"/>
<stop offset="1" stop-color="#892E60"/>
</linearGradient>
</defs>
</svg>
