<?xml version="1.0" encoding="UTF-8"?><svg id="Layer_2" xmlns="http://www.w3.org/2000/svg" width="39.71" height="39.51" xmlns:xlink="http://www.w3.org/1999/xlink" viewBox="0 0 39.71 39.51"><defs><linearGradient id="linear-gradient" x1="18.82" y1="-10.32" x2="20.86" y2="48.86" gradientUnits="userSpaceOnUse"><stop offset=".12" stop-color="#4c6596"/><stop offset=".44" stop-color="#3d4e88"/><stop offset=".61" stop-color="#35417b"/><stop offset=".91" stop-color="#2a3069"/></linearGradient></defs><g id="_אייקונים"><path d="m13.43,33.64s.1-.62.69-.92" fill="none" stroke="#fff" stroke-linecap="round" stroke-miterlimit="10" stroke-width=".3"/><path d="m21.1,37.34c-.41.01-.83.03-1.24.03.41,0,.83-.01,1.24-.03Z" fill="#14c197"/><path d="m19.86,37.37h0c-.41,0-.83-.02-1.24-.03.41.02.83.03,1.24.03Z" fill="#14c197"/><path d="m19.86,39.51c-.31,0-.62-.01-.94-.02h-.37c-2.84-.14-5.69-.67-8.49-1.59-3.69-1.21-6.65-3.96-8.12-7.54-.11-.28-.22-.56-.32-.85-1.08-3.24-1.62-6.52-1.62-9.75s.51-6.29,1.52-9.42C2.86,6.14,6.18,2.84,10.39,1.51c3.14-1,6.33-1.51,9.47-1.51s6.55.54,9.8,1.61c3.97,1.31,7.12,4.44,8.44,8.39,1.08,3.24,1.62,6.52,1.62,9.75s-.55,6.51-1.62,9.75c-.1.31-.22.61-.35.91-1.48,3.55-4.43,6.28-8.09,7.48-2.8.92-5.64,1.45-8.45,1.58h-.41c-.31.02-.62.03-.93.03Z" fill="#0b1a42"/><path d="m19.86,38.44c-.3,0-.6,0-.9-.02h-.37c-2.73-.14-5.48-.65-8.19-1.54-3.39-1.11-6.11-3.64-7.46-6.93-.11-.26-.2-.51-.29-.78-1.04-3.13-1.57-6.29-1.57-9.41s.49-6.07,1.47-9.1C3.78,6.8,6.83,3.76,10.71,2.53c3.04-.97,6.11-1.46,9.14-1.46s6.32.52,9.46,1.56c3.65,1.2,6.55,4.08,7.76,7.71,1.04,3.13,1.57,6.29,1.57,9.41s-.53,6.28-1.57,9.41c-.09.28-.2.56-.32.84-1.36,3.26-4.07,5.77-7.44,6.88-2.71.89-5.46,1.41-8.17,1.53h-.39c-.3.02-.6.03-.9.03Z" fill="#6d7eb2"/><path d="m36.06,10.68c-1.11-3.32-3.74-5.94-7.08-7.04-3.04-1-6.1-1.51-9.13-1.51s-5.88.47-8.82,1.41c-3.57,1.14-6.34,3.89-7.48,7.44-.94,2.92-1.41,5.86-1.41,8.77,0,3.01.51,6.05,1.51,9.07.08.24.17.48.27.71,1.23,2.98,3.71,5.31,6.81,6.32,2.63.86,5.26,1.36,7.88,1.48.41.01.83.03,1.24.03h0c.41,0,.83-.02,1.24-.03,2.62-.12,5.26-.61,7.88-1.48,3.08-1.01,5.55-3.32,6.79-6.27.1-.25.2-.5.29-.76,1.01-3.02,1.51-6.06,1.51-9.07s-.51-6.05-1.51-9.07Z" fill="url(#linear-gradient)"/><path d="m11.82,5.9c0,.73-1.3.64-3.21,1.93-2.93,2-2.16,3.67-3.26,3.34-.67-.2.18-2.51,1.97-3.96s4.49-2.01,4.5-1.31Z" fill="#fff"/><circle cx="4.82" cy="12.82" r=".69" fill="#fff"/><path d="m28.98,3.65c-3.04-1-6.1-1.51-9.13-1.51s-5.88.47-8.82,1.41c-3.57,1.14-6.34,3.89-7.48,7.44-.27.85-.5,1.71-.7,2.56,3.09-2.7,15.9-12.56,31.64-5.89-1.36-1.85-3.27-3.27-5.51-4.01Z" fill="#fff" opacity=".07"/><path d="m37.57,19.75s0,.1,0,.15c0-.1,0-.15,0-.15Z" fill="none"/><path d="m3.92,29.54c1.23,2.98,3.71,5.31,6.81,6.32,2.63.86,5.26,1.36,7.88,1.48.41.01.83.03,1.24.03h0c.41,0,.83-.02,1.24-.03,2.62-.12,5.26-.61,7.88-1.48,3.08-1.01,5.55-3.32,6.79-6.27.1-.25.2-.5.29-.76.99-2.97,1.49-5.96,1.51-8.92-.05,1.45-.95,13.07-16.47,14.73C4.54,36.42,2.14,19.75,2.14,19.75c0,3.01.51,6.05,1.51,9.07.08.24.17.48.27.71Z" fill="#0b1a42" opacity=".67"/><path d="m26.14,27.02c-.25,0-.49-.1-.68-.28-.19-.18-.29-.42-.3-.68,0-.26.1-.51.28-.7.64-.65,1.12-1.35,1.47-2.13,1.14-2.54.62-5.61-1.29-7.64l-.19-.2c-.37-.41-.36-1,.02-1.37.18-.18.42-.28.67-.28s.51.11.7.3c.53.53.99,1.11,1.37,1.74.4.67.71,1.39.92,2.12.2.7.26,1.28.3,1.66v.1c.06.43.07,1.46-.11,2.36v.07c-.07.33-.24,1.19-.79,2.29-.42.85-1,1.64-1.71,2.34-.19.18-.43.29-.69.29Z" fill="#0b1a42"/><path d="m21.09,29.38c-.23,0-.45-.09-.68-.27l-3.33-2.67c-.83-.66-1.65-1.32-2.48-1.98-.01,0-.05-.02-.07-.02-.45,0-.91,0-1.36,0h-1.24c-1.02,0-1.68-.66-1.68-1.69v-4.73c0-1.02.66-1.69,1.68-1.69h1.29c.43,0,.86,0,1.29,0,.04,0,.09-.02.11-.03,1.92-1.53,3.84-3.06,5.76-4.6.17-.14.41-.3.72-.3.1,0,.19.02.29.05.39.12.65.46.68.86,0,.07,0,.13,0,.2,0,0,0,13.76,0,15.81,0,.6-.32.86-.6.98-.12.05-.25.08-.38.08Z" fill="#0b1a42"/><path d="m24.39,25.28c-.15,0-.3-.04-.44-.11-.4-.21-.6-.65-.49-1.08.05-.18.16-.37.31-.53.7-.74,1.12-1.6,1.24-2.56.18-1.46-.22-2.69-1.21-3.77-.17-.18-.28-.36-.33-.54-.13-.42.07-.87.47-1.09.14-.08.3-.12.46-.12.26,0,.51.11.71.3.61.6,1.08,1.31,1.41,2.1.33.79.49,1.62.49,2.59-.03,1.7-.68,3.25-1.88,4.48-.21.21-.47.33-.73.33Z" fill="#0b1a42"/><g opacity=".63"><path d="m28.96,20.7c-.05.24-.18,1.12-.75,2.27-.41.82-.96,1.57-1.64,2.25-.25.25-.62.24-.86,0-.24-.23.52-.37.77-.62.64-.66,1.16-1.39,1.54-2.23,1.2-2.69-.11-6.14-2.13-8.28-.06-.07-.13-.13-.19-.2-.24-.26-.24-.64,0-.88.25-.24.62-.24.88.02.51.5.95,1.06,1.31,1.67.39.65.68,1.32.88,2.03.21.73.26,1.33.3,1.7.05.43.05,1.43-.12,2.26Z" fill="#cbe9f4"/><path d="m21.7,19.12c0,2.64,0,5.29,0,7.93,0,.3-.1.53-.38.65-.26.11-.48.03-.69-.14-.87-.7-1.74-1.39-2.61-2.09-1.07-.85-2.13-1.71-3.21-2.56-.08-.06-.19-.1-.29-.1-.87,0-1.73,0-2.6,0-.82,0-1.33-.51-1.33-1.33,0-1.58,0-3.16,0-4.73,0-.82.51-1.33,1.33-1.33.86,0,1.72,0,2.58,0,.11,0,.24-.04.32-.11,1.92-1.53,3.84-3.07,5.76-4.6.2-.16.41-.28.68-.19.25.08.41.29.43.55,0,.07,0,.14,0,.22,0,2.61,0,5.23,0,7.84Z" fill="#cbe9f4"/><path d="m26.64,19.22c-.02,1.57-.6,3.02-1.78,4.22-.22.23-.51.28-.76.15-.24-.13.39-.34.46-.61.04-.14.13-.27.23-.38.74-.78.59-1.78.72-2.85.19-1.55-.4-2.87-1.46-4.02-.11-.12-.21-.26-.25-.4-.08-.27.06-.54.3-.67.24-.13.53-.09.75.12.57.57,1.02,1.23,1.33,1.98.31.75.46,1.54.47,2.46Z" fill="#cbe9f4"/></g><path d="m28.96,21.33c-.05.24-.18,1.12-.75,2.27-.41.82-.96,1.57-1.64,2.25-.25.25-.62.24-.86,0-.24-.23-.25-.62,0-.88.64-.66,1.16-1.39,1.54-2.23,1.2-2.69.67-5.89-1.35-8.03-.06-.07-.13-.13-.19-.2-.24-.26-.24-.64,0-.88.25-.24.62-.24.88.02.51.5.95,1.06,1.31,1.67.39.65.68,1.32.88,2.03.21.73.26,1.33.3,1.7.05.43.05,1.43-.12,2.26Z" fill="#fff"/><path d="m21.7,19.75c0,2.64,0,5.29,0,7.93,0,.3-.1.53-.38.65-.26.11-.48.03-.69-.14-.87-.7-1.74-1.39-2.61-2.09-1.07-.85-2.13-1.71-3.21-2.56-.08-.06-.19-.1-.29-.1-.87,0-1.73,0-2.6,0-.82,0-1.33-.51-1.33-1.33,0-1.58,0-3.16,0-4.73,0-.82.51-1.33,1.33-1.33.86,0,1.72,0,2.58,0,.11,0,.24-.04.32-.11,1.92-1.53,3.84-3.07,5.76-4.6.2-.16.41-.28.68-.19.25.08.41.29.43.55,0,.07,0,.14,0,.22,0,2.61,0,5.23,0,7.84Z" fill="#fff"/><path d="m26.64,19.85c-.02,1.57-.6,3.02-1.78,4.22-.22.23-.51.28-.76.15-.24-.13-.38-.39-.31-.67.04-.14.13-.27.23-.38.74-.78,1.2-1.69,1.33-2.76.19-1.55-.24-2.9-1.3-4.05-.11-.12-.21-.26-.25-.4-.08-.27.06-.54.3-.67.24-.13.53-.09.75.12.57.57,1.02,1.23,1.33,1.98.31.75.46,1.54.47,2.46Z" fill="#fff"/></g></svg>