<?xml version="1.0" encoding="UTF-8"?><svg id="Layer_2" xmlns="http://www.w3.org/2000/svg" width="61.6" height="61.27" xmlns:xlink="http://www.w3.org/1999/xlink" viewBox="0 0 61.6 61.27"><defs><linearGradient id="linear-gradient" x1="29.2" y1="78.55" x2="32.38" y2="-13.22" gradientTransform="translate(0 62.55) scale(1 -1)" gradientUnits="userSpaceOnUse"><stop offset=".23" stop-color="#ffd800"/><stop offset=".95" stop-color="#fd1a84"/></linearGradient></defs><g id="Layer_2-2"><g id="Layer_1-2"><path d="m32.73,57.9c-.64.02-1.29.05-1.93.05.64,0,1.28-.02,1.93-.05Z" fill="#00c392"/><path d="m30.8,57.95h0c-.64,0-1.29-.03-1.93-.05.64.03,1.29.05,1.93.05Z" fill="#00c392"/><path d="m30.8,61.27c-.48,0-.97-.02-1.45-.03l-.58-.02c-4.4-.2-8.83-1.02-13.17-2.45-5.72-1.88-10.31-6.14-12.59-11.7-.18-.43-.35-.87-.49-1.32-1.67-5.02-2.52-10.1-2.52-15.12s.79-9.76,2.35-14.61c2.09-6.49,7.23-11.61,13.76-13.69C21,.79,25.94,0,30.8,0s10.15.84,15.19,2.5c6.16,2.02,11.05,6.89,13.09,13.02,1.67,5.02,2.52,10.11,2.52,15.12s-.85,10.1-2.52,15.12c-.16.48-.34.95-.54,1.41-2.3,5.51-6.87,9.73-12.55,11.6-4.34,1.43-8.75,2.25-13.11,2.45l-.63.02c-.48.02-.97.03-1.45.03Z" fill="#952362"/><path d="m30.8,59.61c-.47,0-.93-.02-1.4-.03l-.58-.02c-4.24-.19-8.5-.99-12.7-2.37-5.26-1.73-9.47-5.65-11.57-10.75-.16-.4-.32-.8-.45-1.21-1.61-4.85-2.43-9.76-2.43-14.59s.76-9.42,2.27-14.11c1.92-5.98,6.67-10.7,12.68-12.61,4.71-1.5,9.48-2.26,14.18-2.26s9.8.81,14.68,2.42c5.66,1.86,10.16,6.34,12.03,11.96,1.61,4.85,2.43,9.76,2.43,14.6s-.82,9.74-2.43,14.59c-.15.44-.31.87-.49,1.3-2.11,5.06-6.32,8.95-11.54,10.66-4.2,1.38-8.46,2.18-12.67,2.37l-.61.02c-.47.02-.93.03-1.4.03Z" fill="#f8f47c"/><path d="m55.93,16.56c-1.71-5.15-5.79-9.21-10.97-10.91-4.72-1.55-9.45-2.33-14.16-2.33s-9.12.73-13.67,2.18c-5.54,1.76-9.83,6.03-11.6,11.54-1.46,4.53-2.19,9.08-2.19,13.6s.79,9.38,2.35,14.07c.12.37.26.74.41,1.1,1.9,4.62,5.76,8.23,10.56,9.81,4.07,1.34,8.16,2.1,12.23,2.29.64.02,1.29.05,1.93.05h0c.64,0,1.29-.03,1.93-.05,4.07-.18,8.15-.95,12.23-2.29,4.78-1.57,8.61-5.14,10.52-9.73.16-.39.32-.78.45-1.18,1.56-4.69,2.35-9.4,2.35-14.07s-.79-9.38-2.35-14.07h-.02Z" fill="url(#linear-gradient)"/><path d="m44.96,5.65c-4.72-1.55-9.45-2.33-14.16-2.33s-9.12.73-13.67,2.18c-5.54,1.76-9.83,6.03-11.6,11.54-.43,1.32-.78,2.65-1.08,3.97C9.23,16.82,29.1,1.54,53.5,11.87c-2.1-2.87-5.07-5.08-8.55-6.22h0Z" fill="#fff" isolation="isolate" opacity=".26"/><path d="m6.09,45.81c1.9,4.62,5.76,8.23,10.56,9.81,4.07,1.34,8.16,2.1,12.23,2.29.64.02,1.29.05,1.93.05h0c.64,0,1.29-.03,1.93-.05,4.07-.18,8.15-.95,12.23-2.29,4.78-1.57,8.61-5.14,10.52-9.73.16-.39.32-.78.45-1.18,1.53-4.61,2.32-9.24,2.34-13.84-.08,2.25-1.47,20.26-25.54,22.85C7.05,56.47,3.33,30.64,3.33,30.64c0,4.67.79,9.38,2.35,14.07.12.37.26.74.41,1.1Z" fill="#6d0033" isolation="isolate" opacity=".37"/><circle cx="7.48" cy="19.88" r="1.07" fill="#fff"/><path d="m18.33,9.14c0,1.13-2.02.99-4.97,3-4.54,3.1-3.36,5.69-5.06,5.18-1.04-.31.28-3.89,3.05-6.15,2.77-2.26,6.97-3.12,6.97-2.04h0Z" fill="#fff"/><g opacity=".26"><path d="m46.45,22.18v16.64c0,.3-.06.6-.19.86h0c-.48.93-1.25,1.32-2.29,1.32h-26.5c-1.31,0-2.31-.99-2.31-2.3v-16.51c0-1.25.96-2.23,2.2-2.29.24-.01.43-.21.45-.45.05-.82.45-1.14,1.36-1.07.77.05,1.54.05,2.32,0,1.15-.07,1.55.19,1.58,1.18,0,.19.16.34.35.34.66-.01,1.32-.01,1.97,0,.2,0,.39-.1.49-.28.46-.79.94-1.57,1.4-2.36.33-.58.84-.73,1.69-.52,1.23.29,2.51.25,3.74-.02.83-.18,1.32-.01,1.64.56.45.78.92,1.54,1.37,2.31.13.24.3.31.56.31,2.51,0,5.03.02,7.54-.02.89-.01,1.62.28,2.1.84.35.4.52.93.52,1.47h0Zm-15.59,15.27c3.55,0,6.53-3.1,6.54-6.65.02-3.56-2.99-6.78-6.55-6.79-3.57-.01-6.65,3.21-6.66,6.76,0,3.56,3.09,6.66,6.67,6.68Zm10.49-14.6h-1.4c-.53,0-.88.35-.89.84,0,.48.35.88.86.88.95.02,1.89.02,2.84,0,.5,0,.88-.41.87-.88,0-.48-.38-.83-.9-.84h-1.38Z" fill="#fff"/><path d="m35.38,30.88c0,2.51-2.02,4.56-4.52,4.57-2.54,0-4.58-2-4.61-4.55-.02-2.49,2.05-4.58,4.56-4.58s4.56,2.04,4.57,4.56Z" fill="#fff"/></g><path d="m46.45,24.28v17.08c0,.31-.06.61-.19.88h0c-.48.96-1.25,1.36-2.29,1.36h-26.5c-1.31,0-2.31-1.02-2.31-2.36v-16.95c0-1.28.96-2.29,2.2-2.36.24-.01.43-.21.45-.46.05-.85.45-1.17,1.36-1.1.77.06,1.54.05,2.32,0,1.15-.08,1.55.2,1.58,1.21,0,.2.16.35.35.35.66-.01,1.32-.01,1.97,0,.2,0,.39-.1.49-.28.46-.81.94-1.61,1.4-2.43.33-.59.84-.75,1.69-.54,1.23.3,2.51.26,3.74-.02.83-.19,1.32-.01,1.64.57.45.8.92,1.58,1.37,2.37.13.24.3.32.56.32,2.51,0,5.03.02,7.54-.02.89-.01,1.62.29,2.1.86.35.41.52.96.52,1.5v.02Zm-15.65,15.09c3.55,0,6.45-4.27,6.46-7.91.02-3.66-2.93-5.87-6.49-5.89-3.57-.01-6.49,2.6-6.49,6.25s2.95,7.54,6.52,7.55Zm10.54-14.4h-1.4c-.53,0-.88.36-.89.86,0,.49.35.9.86.91.95.02,1.89.02,2.84,0,.5,0,.88-.42.87-.91,0-.49-.38-.86-.9-.86h-1.38Z" fill="#501136"/><path d="m35.37,32.35c0,2.35-2.02,4.28-4.52,4.29-2.54,0-4.58-1.88-4.61-4.27-.02-2.33,2.05-4.29,4.56-4.29s4.56,1.91,4.57,4.28h0Z" fill="#501136"/><path d="m46.45,23.16v16.64c0,.3-.06.6-.19.86h0c-.48.93-1.25,1.32-2.29,1.32h-26.5c-1.31,0-2.31-.99-2.31-2.3v-16.51c0-1.25.96-2.23,2.2-2.29.24-.01.43-.21.45-.45.05-.82.45-1.14,1.36-1.07.77.05,1.54.05,2.32,0,1.15-.07,1.55.19,1.58,1.18,0,.19.16.34.35.34.66-.01,1.32-.01,1.97,0,.2,0,.39-.1.49-.28.46-.79.94-1.57,1.4-2.36.33-.58.84-.73,1.69-.52,1.23.29,2.51.25,3.74-.02.83-.18,1.32-.01,1.64.56.45.78.92,1.54,1.37,2.31.13.24.3.31.56.31,2.51,0,5.03.02,7.54-.02.89-.01,1.62.28,2.1.84.35.4.52.93.52,1.47h0Zm-15.65,14.7c3.55,0,6.45-2.85,6.46-6.4.02-3.56-2.86-6.46-6.42-6.47-3.57-.01-6.47,2.86-6.48,6.41,0,3.56,2.86,6.44,6.44,6.46Zm10.54-14.03h-1.4c-.53,0-.88.35-.89.84,0,.48.35.88.86.88.95.02,1.89.02,2.84,0,.5,0,.88-.41.87-.88,0-.48-.38-.83-.9-.84h-1.38Z" fill="#952362"/><path d="m35.37,31.41c0,2.51-2.02,4.56-4.52,4.57-2.54,0-4.58-2-4.61-4.55-.02-2.49,2.05-4.58,4.56-4.58s4.56,2.04,4.57,4.56Z" fill="#952362"/></g></g></svg>