<?xml version="1.0" encoding="UTF-8"?><svg id="Layer_2" xmlns="http://www.w3.org/2000/svg" width="100.81" height="43.88" xmlns:xlink="http://www.w3.org/1999/xlink" viewBox="0 0 100.81 43.88"><defs><linearGradient id="linear-gradient" x1="50.18" y1="-4.82" x2="50.59" y2="43" gradientUnits="userSpaceOnUse"><stop offset=".12" stop-color="#4c6596"/><stop offset=".44" stop-color="#3d4e88"/><stop offset=".61" stop-color="#35417b"/><stop offset=".91" stop-color="#2a3069"/></linearGradient></defs><g id="_כפתורים"><path d="m50.4,43.88c-10.31,0-19.21,0-30.76-1.08-6.23-.58-10.58-2.27-13.7-5.31-2.81-2.74-4.64-6.46-5.6-11.37l-.02-.11c-.44-3.24-.44-4.98-.01-8.15C1.95,8.21,8.99,2.09,19.63,1.03c10.39-1.03,20.75-1.03,30.78-1.03s20.81,0,30.79,1.03c10.64,1.1,17.66,7.2,19.28,16.73.44,3.3.45,4.97.02,8.18l-.02.14c-.74,3.78-1.98,6.83-3.8,9.31-3.06,4.18-8.11,6.6-15.45,7.4-9.9,1.08-20.53,1.08-30.81,1.08Z" fill="#03072d"/><path d="m50.4,42.33c-10.28,0-19.16,0-30.64-1.07-5.93-.55-10.05-2.13-12.96-4.97-2.64-2.58-4.37-6.1-5.28-10.77v-.08c-.43-3.09-.43-4.76-.02-7.82C3.05,8.53,9.7,2.77,19.75,1.77c10.33-1.03,20.66-1.03,30.65-1.03s20.74,0,30.66,1.03c10.06,1.04,16.7,6.79,18.22,15.77.42,3.15.43,4.76,0,7.85v.08c-.72,3.63-1.9,6.52-3.62,8.86-2.85,3.89-7.62,6.15-14.6,6.92-9.83,1.07-20.43,1.07-30.67,1.07Z" fill="#6d7eb2"/><path d="m98.1,17.73c-1.43-8.43-7.69-13.83-17.17-14.81-9.85-1.02-20.37-1.02-30.53-1.02s-20.26,0-30.53,1.02c-9.47.94-15.73,6.34-17.18,14.84-.4,2.98-.4,4.52,0,7.5v.05c.02.09.04.17.06.25.88,4.31,2.49,7.57,4.91,9.93,2.7,2.64,6.58,4.11,12.22,4.63,11.43,1.07,20.28,1.07,30.52,1.07s20.77,0,30.54-1.07c6.62-.72,11.12-2.83,13.76-6.43.21-.28.41-.58.6-.88,1.3-2.05,2.22-4.51,2.81-7.5v-.05c.41-2.98.41-4.52,0-7.52Z" fill="url(#linear-gradient)"/><path d="m19.88,40.11c11.43,1.07,20.28,1.07,30.52,1.07s20.77,0,30.54-1.07c6.62-.72,11.12-2.83,13.76-6.43.21-.28.41-.58.6-.88-14.06,6.32-23.79,4.69-37.38,5.26-33.3,1.4-48.07-.87-55.15-12.51.88,4.31,2.49,7.57,4.91,9.93,2.7,2.64,6.58,4.11,12.22,4.63Z" fill="#0b1a42" opacity=".37"/><path d="m17.12,6.75c-.16.63-1.31.26-3.3.96-3.07,1.07-2.77,2.7-3.67,2.17-.56-.33.74-2.14,2.66-3s4.47-.74,4.31-.12Z" fill="#fff"/><ellipse cx="9.3" cy="11.19" rx=".62" ry=".63" transform="translate(-2.69 19.44) rotate(-84.8)" fill="#fff"/><g opacity=".63"><path d="m34.26,24.95c-.24,0-.43-.03-.56-.1-.13-.07-.22-.17-.27-.3-.05-.13-.08-.26-.08-.4v-4.99c0-.99-.14-1.81-.42-2.46s-.69-1.14-1.25-1.48c-.56-.33-1.25-.5-2.1-.5h-3.83c-.18,0-.33-.02-.47-.07-.14-.05-.24-.14-.33-.27-.08-.14-.12-.33-.12-.57,0-.26.04-.45.12-.57.08-.12.19-.21.33-.26.14-.05.28-.08.45-.08h3.78c1.25,0,2.29.23,3.12.7.83.47,1.46,1.16,1.88,2.08.42.92.63,2.07.63,3.45v4.88c0,.18-.02.34-.07.48s-.14.25-.26.34c-.13.08-.32.12-.56.12Zm-8.34,0c-.24,0-.43-.04-.55-.12-.12-.08-.21-.19-.25-.34-.05-.14-.07-.3-.07-.46v-5.03c0-.18.02-.33.07-.47.05-.14.14-.24.26-.32.13-.07.32-.11.56-.11.26,0,.45.04.58.12.13.08.21.19.25.33.04.14.06.29.06.47v5.03c0,.16-.02.31-.07.45-.05.14-.14.24-.26.33-.13.08-.32.12-.58.12Z" fill="#cbe9f4"/><path d="m47.3,15.2l-1.4-.47h-7.59c-.18,0-.34-.03-.48-.08s-.25-.15-.34-.29c-.08-.14-.12-.33-.12-.57,0-.26.04-.45.12-.57.08-.12.19-.21.34-.25s.3-.07.46-.07h7.45c.49,0,.87.1,1.16.31.28.2.46.48.54.82.07.35.03.74-.13,1.17Zm-8.71,12.82c-.24,0-.43-.04-.55-.12-.12-.08-.21-.19-.25-.33-.05-.14-.07-.29-.07-.47v-8.75c0-.16.02-.31.07-.45.05-.14.14-.24.26-.32.13-.07.32-.11.56-.11.26,0,.45.04.58.12.13.08.21.19.25.32.04.13.06.28.06.46v8.75c0,.18-.02.33-.07.46-.05.13-.14.23-.26.32-.13.08-.32.12-.58.12Zm4.5-3.11c-.35-.12-.59-.27-.72-.44-.13-.17-.15-.38-.05-.64.18-.45.38-.99.61-1.62.23-.63.48-1.31.74-2.03.26-.73.53-1.46.79-2.21.26-.75.51-1.46.74-2.14.23-.68.43-1.28.61-1.81l1.53,1.06c-.15.52-.33,1.1-.55,1.76-.22.66-.45,1.34-.69,2.06-.24.71-.49,1.41-.72,2.09-.24.68-.46,1.3-.66,1.86-.2.56-.37,1.02-.51,1.37-.07.16-.15.31-.25.44s-.22.22-.35.26c-.13.05-.3.04-.52-.01Z" fill="#cbe9f4"/><path d="m50.82,19.19c-.24,0-.43-.04-.55-.13-.12-.09-.21-.2-.25-.34-.05-.14-.07-.28-.07-.45v-4.48c0-.16.02-.31.07-.45.05-.14.14-.24.26-.33.13-.08.32-.12.56-.12.26,0,.45.04.58.13.13.09.21.2.25.33.04.13.06.28.06.46v4.48c0,.16-.02.31-.07.45-.05.14-.14.24-.26.33-.13.08-.32.12-.58.12Z" fill="#cbe9f4"/><path d="m55.24,14.73c-.18,0-.34-.02-.48-.07-.14-.05-.25-.14-.34-.27s-.12-.33-.12-.57c0-.26.04-.45.12-.57s.19-.21.34-.26c.14-.05.3-.08.46-.08h8.5c.18,0,.33.03.46.08.13.05.23.14.32.26.08.12.12.31.12.57,0,.24-.04.43-.12.57-.08.14-.19.23-.33.27-.14.05-.29.07-.47.07h-8.46Zm6.16,10.21c-.24,0-.43-.04-.55-.12-.12-.08-.21-.19-.26-.34s-.08-.3-.08-.48v-9.54l1.81.08v9.6c0,.14-.02.27-.07.4-.05.13-.14.23-.26.3-.13.07-.32.1-.58.1Z" fill="#cbe9f4"/><path d="m72.74,23.14h4.01c.18,0,.33.02.47.07.14.05.24.14.33.26.08.13.12.32.12.58,0,.24-.04.43-.12.56-.08.13-.19.22-.33.26-.14.05-.3.07-.49.07h-4.02m2.37,0c-.24,0-.43-.03-.56-.1-.13-.07-.22-.16-.27-.28-.05-.12-.08-.25-.08-.39v-5.01c0-.73-.08-1.38-.23-1.93-.16-.56-.39-1.02-.7-1.39-.31-.37-.7-.65-1.17-.83-.47-.18-1.02-.27-1.66-.27h-2.26c-.18,0-.34-.02-.48-.07-.14-.05-.25-.14-.34-.27-.08-.14-.12-.33-.12-.57,0-.26.04-.45.12-.57.08-.12.19-.21.33-.26.14-.05.29-.08.47-.08h2.22c.94,0,1.76.13,2.46.4.7.26,1.29.66,1.76,1.18.47.52.82,1.17,1.06,1.94s.36,1.68.36,2.71v4.9c0,.18-.02.33-.06.47-.04.14-.13.24-.26.33-.14.08-.33.12-.57.12Z" fill="#cbe9f4"/></g><path d="m33.41,27.91c-.38,0-.7-.06-.95-.2-.3-.16-.53-.41-.66-.72-.1-.23-.15-.47-.15-.72v-4.99c0-.87-.12-1.59-.35-2.13-.21-.49-.51-.84-.91-1.08-.42-.25-.98-.38-1.66-.38h-3.83c-.27,0-.52-.04-.75-.12-.32-.11-.58-.33-.77-.63-.16-.27-.24-.6-.24-1,0-.43.09-.77.26-1.03.18-.26.42-.46.71-.58.24-.09.49-.14.76-.14h3.78c1.39,0,2.58.27,3.53.81.99.56,1.74,1.38,2.23,2.46.47,1.02.71,2.3.71,3.8v4.88c0,.27-.04.52-.11.74-.11.33-.32.59-.61.78-.27.17-.6.25-1.01.25Zm-8.34,0c-.42,0-.75-.09-1.01-.26-.28-.19-.48-.45-.59-.77-.08-.23-.11-.47-.11-.72v-5.03c0-.27.04-.52.12-.75.11-.32.33-.59.64-.77.26-.15.58-.22.98-.22.42,0,.76.08,1.03.25.3.19.51.46.61.79.06.22.1.45.1.71v5.03c0,.26-.04.5-.12.73-.11.31-.32.57-.61.76-.27.17-.61.25-1.03.25Z" fill="#03072d"/><path d="m37.75,30.98c-.42,0-.75-.09-1.01-.26-.28-.18-.48-.44-.58-.75-.08-.22-.12-.47-.12-.74v-8.75c0-.26.04-.5.12-.73.11-.32.33-.59.64-.76.26-.15.58-.23.98-.23.42,0,.76.08,1.03.25.3.19.51.45.61.77.07.21.1.45.1.71v8.75c0,.28-.04.53-.12.75-.11.3-.32.56-.6.73-.27.17-.61.25-1.03.25Zm4.81-3.07c-.16,0-.33-.02-.51-.07h-.04s-.04-.02-.04-.02c-.52-.18-.88-.42-1.12-.72-.17-.23-.43-.72-.17-1.44.18-.46.38-.99.61-1.62l.74-2.03c.26-.72.53-1.46.79-2.2.26-.74.51-1.44.73-2.11h-6.1c-.28,0-.54-.05-.78-.14-.32-.12-.58-.34-.76-.64-.16-.27-.24-.6-.24-1,0-.43.09-.77.26-1.03.19-.28.45-.48.77-.59.23-.08.47-.11.72-.11h7.45c.66,0,1.22.16,1.65.46.45.32.75.78.87,1.33.1.47.06.99-.13,1.53-.15.51-.33,1.09-.54,1.72-.22.66-.45,1.35-.69,2.06-.24.71-.49,1.41-.72,2.09-.24.68-.46,1.31-.66,1.87-.21.57-.38,1.03-.51,1.39-.11.26-.23.47-.38.66-.2.25-.44.43-.71.53-.16.06-.32.09-.5.09Z" fill="#03072d"/><path d="m49.98,22.15c-.43,0-.77-.1-1.04-.29-.26-.19-.45-.44-.55-.74-.08-.22-.12-.47-.12-.73v-4.48c0-.26.04-.5.12-.73.11-.32.32-.58.61-.76.27-.17.6-.25,1.01-.25.44,0,.78.09,1.05.28.29.2.49.46.58.77.07.21.1.45.1.71v4.48c0,.26-.04.5-.12.72-.11.32-.32.58-.61.76-.27.17-.61.25-1.03.25Z" fill="#03072d"/><path d="m60.56,27.91c-.42,0-.75-.09-1.01-.26-.27-.18-.47-.43-.59-.74-.09-.24-.14-.5-.14-.78v-8.44h-4.43c-.27,0-.52-.04-.74-.11-.33-.11-.61-.33-.79-.64-.16-.27-.24-.6-.24-1,0-.43.09-.77.26-1.04.18-.27.43-.47.74-.58.24-.09.49-.14.76-.14h8.5c.29,0,.55.05.78.15.28.12.52.32.69.58.18.26.26.6.26,1.03,0,.4-.08.73-.24,1-.18.3-.45.52-.77.64-.22.08-.47.12-.75.12h-.54v8.58c0,.23-.04.46-.12.69-.12.32-.35.58-.66.75-.26.14-.58.2-.97.2Z" fill="#03072d"/><path d="m67.09,27.91c-.27,0-.52-.04-.74-.12-.33-.11-.6-.32-.78-.61-.17-.27-.25-.6-.25-1.01s.08-.76.25-1.03c.19-.29.46-.51.78-.61.23-.08.47-.11.72-.11h5.41v-3.13c0-.65-.07-1.23-.2-1.71-.12-.44-.3-.8-.54-1.08-.22-.26-.49-.46-.83-.59-.37-.14-.82-.22-1.35-.22h-2.26c-.27,0-.52-.04-.74-.11-.33-.11-.61-.33-.79-.64-.16-.27-.24-.6-.24-1,0-.43.09-.77.26-1.04.17-.26.42-.46.71-.58.24-.09.5-.14.78-.14h2.22c1.03,0,1.96.15,2.76.45.83.31,1.53.78,2.09,1.41.55.61.96,1.37,1.24,2.26.26.85.39,1.84.39,2.95v3.17c.24,0,.47.05.68.12.32.11.58.32.76.61.17.27.25.6.25,1.03s-.08.74-.25,1.01c-.18.29-.44.5-.76.61-.23.08-.48.12-.77.12h-8.79Z" fill="#03072d"/><path d="m34.26,25.79c-.24,0-.43-.03-.56-.1-.13-.07-.22-.17-.27-.3-.05-.13-.08-.26-.08-.4v-4.99c0-.99-.14-1.81-.42-2.46s-.69-1.14-1.25-1.48c-.56-.33-1.25-.5-2.1-.5h-3.83c-.18,0-.33-.02-.47-.07-.14-.05-.24-.14-.33-.27-.08-.14-.12-.33-.12-.57,0-.26.04-.45.12-.57.08-.12.19-.21.33-.26.14-.05.28-.08.45-.08h3.78c1.25,0,2.29.23,3.12.7.83.47,1.46,1.16,1.88,2.08.42.92.63,2.07.63,3.45v4.88c0,.18-.02.34-.07.48s-.14.25-.26.34c-.13.08-.32.12-.56.12Zm-8.34,0c-.24,0-.43-.04-.55-.12-.12-.08-.21-.19-.25-.34-.05-.14-.07-.3-.07-.46v-5.03c0-.18.02-.33.07-.47.05-.14.14-.24.26-.32.13-.07.32-.11.56-.11.26,0,.45.04.58.12.13.08.21.19.25.33.04.14.06.29.06.47v5.03c0,.16-.02.31-.07.45-.05.14-.14.24-.26.33-.13.08-.32.12-.58.12Z" fill="#fff"/><path d="m47.3,16.05l-1.4-.47h-7.59c-.18,0-.34-.03-.48-.08s-.25-.15-.34-.29c-.08-.14-.12-.33-.12-.57,0-.26.04-.45.12-.57.08-.12.19-.21.34-.25s.3-.07.46-.07h7.45c.49,0,.87.1,1.16.31.28.2.46.48.54.82.07.35.03.74-.13,1.17Zm-8.71,12.82c-.24,0-.43-.04-.55-.12-.12-.08-.21-.19-.25-.33-.05-.14-.07-.29-.07-.47v-8.75c0-.16.02-.31.07-.45.05-.14.14-.24.26-.32.13-.07.32-.11.56-.11.26,0,.45.04.58.12.13.08.21.19.25.32.04.13.06.28.06.46v8.75c0,.18-.02.33-.07.46-.05.13-.14.23-.26.32-.13.08-.32.12-.58.12Zm4.5-3.11c-.35-.12-.59-.27-.72-.44-.13-.17-.15-.38-.05-.64.18-.45.38-.99.61-1.62.23-.63.48-1.31.74-2.03.26-.73.53-1.46.79-2.21.26-.75.51-1.46.74-2.14.23-.68.43-1.28.61-1.81l1.53,1.06c-.15.52-.33,1.1-.55,1.76-.22.66-.45,1.34-.69,2.06-.24.71-.49,1.41-.72,2.09-.24.68-.46,1.3-.66,1.86-.2.56-.37,1.02-.51,1.37-.07.16-.15.31-.25.44s-.22.22-.35.26c-.13.05-.3.04-.52-.01Z" fill="#fff"/><path d="m50.82,20.04c-.24,0-.43-.04-.55-.13-.12-.09-.21-.2-.25-.34-.05-.14-.07-.28-.07-.45v-4.48c0-.16.02-.31.07-.45.05-.14.14-.24.26-.33.13-.08.32-.12.56-.12.26,0,.45.04.58.13.13.09.21.2.25.33.04.13.06.28.06.46v4.48c0,.16-.02.31-.07.45-.05.14-.14.24-.26.33-.13.08-.32.12-.58.12Z" fill="#fff"/><path d="m55.24,15.58c-.18,0-.34-.02-.48-.07-.14-.05-.25-.14-.34-.27s-.12-.33-.12-.57c0-.26.04-.45.12-.57s.19-.21.34-.26c.14-.05.3-.08.46-.08h8.5c.18,0,.33.03.46.08.13.05.23.14.32.26.08.12.12.31.12.57,0,.24-.04.43-.12.57-.08.14-.19.23-.33.27-.14.05-.29.07-.47.07h-8.46Zm6.16,10.21c-.24,0-.43-.04-.55-.12-.12-.08-.21-.19-.26-.34s-.08-.3-.08-.48v-9.54l1.81.08v9.6c0,.14-.02.27-.07.4-.05.13-.14.23-.26.3-.13.07-.32.1-.58.1Z" fill="#fff"/><path d="m67.93,25.79c-.18,0-.34-.02-.48-.07s-.25-.14-.34-.26c-.08-.13-.12-.32-.12-.56,0-.26.04-.45.12-.58.08-.13.19-.22.34-.26.14-.05.3-.07.46-.07h8.83c.18,0,.33.02.47.07.14.05.24.14.33.26.08.13.12.32.12.58,0,.24-.04.43-.12.56-.08.13-.19.22-.33.26-.14.05-.3.07-.49.07h-8.79Zm7.14,0c-.24,0-.43-.03-.56-.1-.13-.07-.22-.16-.27-.28-.05-.12-.08-.25-.08-.39v-5.01c0-.73-.08-1.38-.23-1.93-.16-.56-.39-1.02-.7-1.39-.31-.37-.7-.65-1.17-.83-.47-.18-1.02-.27-1.66-.27h-2.26c-.18,0-.34-.02-.48-.07-.14-.05-.25-.14-.34-.27-.08-.14-.12-.33-.12-.57,0-.26.04-.45.12-.57.08-.12.19-.21.33-.26.14-.05.29-.08.47-.08h2.22c.94,0,1.76.13,2.46.4.7.26,1.29.66,1.76,1.18.47.52.82,1.17,1.06,1.94s.36,1.68.36,2.71v4.9c0,.18-.02.33-.06.47-.04.14-.13.24-.26.33-.14.08-.33.12-.57.12Z" fill="#fff"/><path d="m34.26,25.79c-.24,0-.43-.03-.56-.1-.13-.07-.22-.17-.27-.3-.05-.13-.08-.26-.08-.4v-4.99c0-.99-.14-1.81-.42-2.46s-.69-1.14-1.25-1.48c-.56-.33-1.25-.5-2.1-.5h-3.83c-.18,0-.33-.02-.47-.07-.14-.05-.24-.14-.33-.27-.08-.14-.12-.33-.12-.57,0-.26.04-.45.12-.57.08-.12.19-.21.33-.26.14-.05.28-.08.45-.08h3.78c1.25,0,2.29.23,3.12.7.83.47,1.46,1.16,1.88,2.08.42.92.63,2.07.63,3.45v4.88c0,.18-.02.34-.07.48s-.14.25-.26.34c-.13.08-.32.12-.56.12Zm-8.34,0c-.24,0-.43-.04-.55-.12-.12-.08-.21-.19-.25-.34-.05-.14-.07-.3-.07-.46v-5.03c0-.18.02-.33.07-.47.05-.14.14-.24.26-.32.13-.07.32-.11.56-.11.26,0,.45.04.58.12.13.08.21.19.25.33.04.14.06.29.06.47v5.03c0,.16-.02.31-.07.45-.05.14-.14.24-.26.33-.13.08-.32.12-.58.12Z" fill="#fff"/><path d="m47.3,16.05l-1.4-.47h-7.59c-.18,0-.34-.03-.48-.08s-.25-.15-.34-.29c-.08-.14-.12-.33-.12-.57,0-.26.04-.45.12-.57.08-.12.19-.21.34-.25s.3-.07.46-.07h7.45c.49,0,.87.1,1.16.31.28.2.46.48.54.82.07.35.03.74-.13,1.17Zm-8.71,12.82c-.24,0-.43-.04-.55-.12-.12-.08-.21-.19-.25-.33-.05-.14-.07-.29-.07-.47v-8.75c0-.16.02-.31.07-.45.05-.14.14-.24.26-.32.13-.07.32-.11.56-.11.26,0,.45.04.58.12.13.08.21.19.25.32.04.13.06.28.06.46v8.75c0,.18-.02.33-.07.46-.05.13-.14.23-.26.32-.13.08-.32.12-.58.12Zm4.5-3.11c-.35-.12-.59-.27-.72-.44-.13-.17-.15-.38-.05-.64.18-.45.38-.99.61-1.62.23-.63.48-1.31.74-2.03.26-.73.53-1.46.79-2.21.26-.75.51-1.46.74-2.14.23-.68.43-1.28.61-1.81l1.53,1.06c-.15.52-.33,1.1-.55,1.76-.22.66-.45,1.34-.69,2.06-.24.71-.49,1.41-.72,2.09-.24.68-.46,1.3-.66,1.86-.2.56-.37,1.02-.51,1.37-.07.16-.15.31-.25.44s-.22.22-.35.26c-.13.05-.3.04-.52-.01Z" fill="#fff"/><path d="m50.82,20.04c-.24,0-.43-.04-.55-.13-.12-.09-.21-.2-.25-.34-.05-.14-.07-.28-.07-.45v-4.48c0-.16.02-.31.07-.45.05-.14.14-.24.26-.33.13-.08.32-.12.56-.12.26,0,.45.04.58.13.13.09.21.2.25.33.04.13.06.28.06.46v4.48c0,.16-.02.31-.07.45-.05.14-.14.24-.26.33-.13.08-.32.12-.58.12Z" fill="#fff"/><path d="m55.24,15.58c-.18,0-.34-.02-.48-.07-.14-.05-.25-.14-.34-.27s-.12-.33-.12-.57c0-.26.04-.45.12-.57s.19-.21.34-.26c.14-.05.3-.08.46-.08h8.5c.18,0,.33.03.46.08.13.05.23.14.32.26.08.12.12.31.12.57,0,.24-.04.43-.12.57-.08.14-.19.23-.33.27-.14.05-.29.07-.47.07h-8.46Zm6.16,10.21c-.24,0-.43-.04-.55-.12-.12-.08-.21-.19-.26-.34s-.08-.3-.08-.48v-9.54l1.81.08v9.6c0,.14-.02.27-.07.4-.05.13-.14.23-.26.3-.13.07-.32.1-.58.1Z" fill="#fff"/><path d="m67.93,25.79c-.18,0-.34-.02-.48-.07s-.25-.14-.34-.26c-.08-.13-.12-.32-.12-.56,0-.26.04-.45.12-.58.08-.13.19-.22.34-.26.14-.05.3-.07.46-.07h8.83c.18,0,.33.02.47.07.14.05.24.14.33.26.08.13.12.32.12.58,0,.24-.04.43-.12.56-.08.13-.19.22-.33.26-.14.05-.3.07-.49.07h-8.79Zm7.14,0c-.24,0-.43-.03-.56-.1-.13-.07-.22-.16-.27-.28-.05-.12-.08-.25-.08-.39v-5.01c0-.73-.08-1.38-.23-1.93-.16-.56-.39-1.02-.7-1.39-.31-.37-.7-.65-1.17-.83-.47-.18-1.02-.27-1.66-.27h-2.26c-.18,0-.34-.02-.48-.07-.14-.05-.25-.14-.34-.27-.08-.14-.12-.33-.12-.57,0-.26.04-.45.12-.57.08-.12.19-.21.33-.26.14-.05.29-.08.47-.08h2.22c.94,0,1.76.13,2.46.4.7.26,1.29.66,1.76,1.18.47.52.82,1.17,1.06,1.94s.36,1.68.36,2.71v4.9c0,.18-.02.33-.06.47-.04.14-.13.24-.26.33-.14.08-.33.12-.57.12Z" fill="#fff"/><path d="m92.53,7.52c-2.93-2.52-6.86-4.12-11.59-4.61-9.85-1.02-20.37-1.02-30.53-1.02s-20.26,0-30.53,1.02c-9.11.9-15.24,5.93-16.99,13.88C7.9,10.71,26.2-.32,92.53,7.52Z" fill="#fff" opacity=".07"/></g></svg>