<?xml version="1.0" encoding="UTF-8"?><svg id="Layer_2" xmlns="http://www.w3.org/2000/svg" width="118.07" height="51.39" xmlns:xlink="http://www.w3.org/1999/xlink" viewBox="0 0 118.07 51.39"><defs><linearGradient id="linear-gradient" x1="58.77" y1="-5.64" x2="59.25" y2="50.36" gradientUnits="userSpaceOnUse"><stop offset=".12" stop-color="#4c6596"/><stop offset=".44" stop-color="#3d4e88"/><stop offset=".61" stop-color="#35417b"/><stop offset=".91" stop-color="#2a3069"/></linearGradient></defs><g id="_כפתורים"><path d="m59.03,51.39c-12.07,0-22.5,0-36.02-1.26-7.3-.68-12.39-2.66-16.04-6.22-3.29-3.21-5.44-7.57-6.56-13.31l-.02-.12c-.51-3.79-.51-5.83-.01-9.55C2.29,9.61,10.53,2.44,22.99,1.21c12.17-1.21,24.31-1.21,36.04-1.21s24.37,0,36.06,1.21c12.46,1.29,20.69,8.43,22.58,19.6.52,3.86.52,5.82.02,9.58l-.03.17c-.87,4.43-2.32,8-4.45,10.9-3.58,4.89-9.5,7.73-18.1,8.67-11.6,1.27-24.05,1.27-36.08,1.27Z" fill="#03072d"/><path d="m59.03,49.57c-12.04,0-22.43,0-35.88-1.25-6.95-.65-11.77-2.5-15.18-5.83-3.09-3.02-5.11-7.15-6.18-12.62l-.02-.09c-.49-3.62-.49-5.58,0-9.16C3.57,9.99,11.36,3.24,23.13,2.07c12.1-1.2,24.2-1.2,35.9-1.2s24.29,0,35.91,1.2c11.78,1.22,19.56,7.95,21.34,18.47.5,3.69.5,5.57.01,9.2v.09c-.85,4.25-2.22,7.63-4.24,10.38-3.33,4.56-8.93,7.21-17.1,8.1-11.52,1.26-23.93,1.26-35.92,1.26Z" fill="#6d7eb2"/><path d="m114.9,20.76c-1.68-9.88-9.01-16.2-20.11-17.35-11.54-1.19-23.85-1.19-35.76-1.19s-23.73,0-35.75,1.19C12.18,4.51,4.85,10.84,3.16,20.79c-.47,3.49-.47,5.29,0,8.78v.05c.03.1.05.2.07.29,1.03,5.05,2.91,8.86,5.75,11.63,3.16,3.09,7.71,4.81,14.31,5.43,13.38,1.25,23.75,1.25,35.75,1.25s24.33,0,35.76-1.25c7.75-.85,13.02-3.31,16.11-7.54.24-.33.48-.68.7-1.03,1.52-2.4,2.6-5.29,3.29-8.79v-.05c.48-3.49.48-5.29,0-8.81Z" fill="url(#linear-gradient)"/><path d="m23.29,46.98c13.38,1.25,23.75,1.25,35.75,1.25s24.33,0,35.76-1.25c7.75-.85,13.02-3.31,16.11-7.54.24-.33.48-.68.7-1.03-16.46,7.4-27.86,5.5-43.78,6.16-39,1.64-56.3-1.02-64.6-14.66,1.03,5.05,2.91,8.86,5.75,11.63,3.16,3.09,7.71,4.81,14.31,5.43Z" fill="#0b1a42" opacity=".37"/><path d="m20.05,7.91c-.19.74-1.53.3-3.87,1.12-3.6,1.26-3.24,3.16-4.3,2.54-.65-.38.86-2.51,3.12-3.52s5.24-.86,5.05-.15Z" fill="#fff"/><ellipse cx="10.89" cy="13.11" rx=".72" ry=".74" transform="translate(-3.15 22.77) rotate(-84.8)" fill="#fff"/><g opacity=".63"><path d="m41.61,30.94c-.29,0-.5-.04-.66-.12-.15-.08-.26-.19-.32-.35-.06-.15-.1-.31-.1-.46v-5.84c0-.86-.09-1.61-.27-2.26-.18-.65-.46-1.2-.83-1.63-.37-.44-.83-.76-1.38-.98-.55-.21-1.19-.32-1.92-.32h-2.88c-.22,0-.41-.03-.57-.08-.16-.06-.29-.16-.38-.32-.1-.16-.14-.38-.14-.67,0-.3.05-.52.14-.67.1-.14.22-.25.38-.31.16-.06.34-.1.55-.1h2.84c1.1,0,2.05.15,2.87.46s1.51.77,2.06,1.38c.56.61.97,1.37,1.25,2.28s.42,1.96.42,3.17v5.72c0,.21-.03.39-.08.56-.06.17-.16.3-.31.39-.15.1-.37.14-.66.14Z" fill="#cbe9f4"/><path d="m47.36,30.94c-.29,0-.5-.05-.64-.14-.14-.1-.24-.23-.3-.39s-.08-.35-.08-.54v-11.99c0-.19.03-.37.08-.52.06-.16.16-.29.31-.38.15-.1.37-.14.66-.14.3,0,.53.05.68.15.15.1.25.23.3.38.05.15.07.33.07.54v11.99c0,.19-.03.37-.08.52-.06.16-.16.29-.31.38-.15.1-.38.14-.68.14Z" fill="#cbe9f4"/><path d="m58.94,31.03c-1.14,0-2.16-.19-3.05-.57-.89-.38-1.64-.91-2.25-1.58-.61-.68-1.07-1.47-1.38-2.37s-.46-1.9-.46-2.98v-5.62c0-.19.03-.37.08-.54.06-.17.16-.3.32-.39.16-.1.38-.14.67-.14s.5.05.66.14c.15.1.26.23.32.39.06.17.1.35.1.56v5.6c0,1.1.15,3.79.55,4.6.4.81,1.02-.3,1.79.14.76.45-.12,2.11.95,2.11,1.13,0,3.88.56,4.63-2.13.24-.86,1.34-1.1,1.73-1.92.39-.82.58-1.76.58-2.82v-5.74c0-.16.03-.31.1-.45.06-.14.17-.26.32-.35.15-.09.37-.13.66-.13s.5.05.66.15c.15.1.25.23.31.39.06.16.08.34.08.55v5.65c0,1.06-.16,2.05-.48,2.95-.32.91-.79,1.7-1.43,2.37-.64.68-1.41,1.2-2.31,1.57-.91.37-1.95.56-3.12.56Zm-4.46-2.91l-.36-1.45.36,1.45c.43,0,1.06-1.61,1.43-1.92.37-.31.7-.73,1-1.28.3-.54.54-1.16.72-1.85.17-.69.27-1.41.29-2.16l.1-3.12c.02-.17.06-.34.12-.49.06-.15.17-.27.32-.36s.37-.13.66-.13c.3,0,.53.05.69.14.16.1.26.22.31.37.05.15.06.32.05.51l-.14,3.03c-.06,1.02-.22,1.96-.46,2.84-.25.87-.59,1.64-1.02,2.31-.44.67-.95,1.18-1.53,1.55-.58.37-1.23.55-1.94.55h-.57Z" fill="#cbe9f4"/><path d="m70.69,24.19c-.29,0-.5-.05-.64-.16-.14-.1-.24-.23-.3-.39-.06-.16-.08-.33-.08-.52v-5.24c0-.19.03-.37.08-.52.06-.16.16-.29.31-.38.15-.1.37-.14.66-.14.3,0,.53.05.68.15.15.1.25.23.3.38.05.15.07.33.07.54v5.24c0,.19-.03.37-.08.52-.06.16-.16.29-.31.38-.15.1-.38.14-.68.14Z" fill="#cbe9f4"/><path d="m75.52,30.91c-.3-.08-.51-.19-.62-.33-.11-.14-.16-.32-.15-.54,0-.21.04-.44.11-.68l2.79-9.53,1.74.71-2.48,9.25c-.08.32-.16.57-.25.76-.09.19-.21.31-.38.37-.17.06-.42.05-.75-.01Zm8.48-2.63l-7.6-9.23c-.19-.24-.35-.46-.46-.66-.12-.2-.16-.39-.12-.58s.2-.4.49-.62c.27-.21.5-.3.68-.27.18.02.36.12.52.27.17.16.35.37.54.62l7.6,9.22m-1.29-.24l-.81-.69,2.05-8.01c.08-.25.16-.48.25-.67.09-.19.22-.33.41-.4.18-.08.45-.06.8.05.3.1.5.22.6.37.1.15.13.33.1.54-.03.21-.09.45-.17.71l-1.6,6.01c-.1.33-.21.62-.33.85-.13.23-.29.44-.5.63s-.47.4-.79.62Z" fill="#cbe9f4"/></g><path d="m40.62,34.4c-.45,0-.81-.08-1.11-.23-.36-.19-.62-.48-.77-.84-.11-.27-.17-.55-.17-.84v-5.84c0-.76-.08-1.43-.24-2-.14-.51-.36-.93-.63-1.26-.27-.31-.59-.54-.99-.7-.43-.17-.96-.25-1.56-.25h-2.88c-.34,0-.63-.05-.9-.14-.37-.13-.69-.39-.9-.74-.19-.32-.28-.7-.28-1.17,0-.5.1-.9.31-1.21.21-.31.49-.54.84-.68.28-.11.58-.17.91-.17h2.84c1.21,0,2.29.18,3.22.53.96.36,1.78.92,2.44,1.64.65.72,1.14,1.61,1.46,2.65.31,1,.46,2.16.46,3.46v5.72c0,.31-.05.6-.13.87-.13.38-.38.7-.72.92-.32.2-.7.3-1.18.3Z" fill="#03072d"/><path d="m46.36,34.4c-.49,0-.88-.1-1.19-.31-.33-.22-.56-.53-.69-.9-.09-.27-.13-.55-.13-.85v-11.99c0-.3.05-.59.14-.85.13-.37.38-.68.71-.89.32-.2.7-.29,1.18-.29.51,0,.91.11,1.23.33.33.23.57.54.68.9.08.25.12.53.12.83v11.99c0,.3-.05.59-.14.85-.13.37-.38.68-.71.89-.32.2-.71.3-1.21.3Z" fill="#03072d"/><path d="m57.94,34.5c-1.27,0-2.43-.22-3.44-.65-1.02-.43-1.89-1.05-2.59-1.83-.7-.77-1.23-1.68-1.58-2.71-.34-1-.52-2.11-.52-3.3v-5.62c0-.3.05-.58.13-.85.13-.39.39-.71.75-.93.32-.19.7-.28,1.17-.28s.86.1,1.18.29c.33.21.58.51.72.88.11.28.16.59.16.91v5.6c0,.74.1,1.4.3,1.97.02-.01.03-.03.05-.04.27-.23.54-.57.78-1,.26-.46.47-1,.62-1.61.16-.61.24-1.27.26-1.94l.1-3.19c.02-.27.09-.54.19-.78.14-.35.4-.63.74-.83.31-.18.68-.26,1.15-.26s.88.09,1.2.28c.37.22.62.54.74.92.09.27.12.57.09.89l-.14,2.99c-.07,1.1-.24,2.12-.5,3.06-.27.97-.66,1.84-1.15,2.58-.34.52-.72.96-1.14,1.33.25.04.52.05.8.05.94,0,1.72-.18,2.33-.55.6-.36,1.04-.85,1.35-1.5.32-.68.49-1.49.49-2.4v-5.74c0-.3.06-.58.18-.85.14-.33.4-.61.73-.8.31-.18.68-.26,1.15-.26.49,0,.89.11,1.21.33.32.22.56.53.68.88.09.27.14.56.14.88v5.65c0,1.17-.18,2.27-.53,3.28-.36,1.03-.91,1.95-1.64,2.72-.73.78-1.62,1.38-2.65,1.81-1.02.42-2.2.63-3.5.63Z" fill="#03072d"/><path d="m69.69,27.66c-.5,0-.9-.11-1.22-.34-.3-.22-.53-.52-.65-.86-.09-.26-.14-.55-.14-.85v-5.24c0-.3.05-.59.14-.85.13-.37.38-.68.71-.89.32-.2.7-.29,1.18-.29.51,0,.91.11,1.23.33.33.23.57.54.68.9.08.25.12.53.12.83v5.24c0,.3-.05.59-.14.85-.13.37-.38.68-.71.89-.32.2-.71.3-1.21.3Z" fill="#03072d"/><path d="m85.66,34.56c-.35,0-.68-.11-.95-.31-.2-.15-.38-.33-.56-.56l-5.73-6.97-1.55,5.8c-.09.36-.19.67-.31.92-.26.56-.67.8-.97.9-.18.06-.38.09-.6.09-.19,0-.41-.02-.65-.07l-.07-.02c-.52-.14-.9-.36-1.15-.68-.25-.32-.38-.73-.36-1.18.01-.29.06-.59.14-.9l2.49-8.52-.75-.91c-.23-.29-.41-.54-.55-.77-.25-.41-.33-.86-.24-1.29.09-.43.37-.82.85-1.2.43-.33.83-.49,1.23-.49.06,0,.13,0,.19.01.39.05.75.23,1.07.54.21.2.42.44.65.74l4.56,5.53,1.27-4.94c.09-.29.19-.56.29-.78.19-.41.5-.72.91-.9.2-.09.42-.13.66-.13s.52.05.82.14c.54.17.91.43,1.13.78.22.35.3.77.24,1.21-.04.25-.11.54-.2.85l-1.59,5.98c-.12.42-.26.77-.42,1.07-.06.1-.12.2-.18.29l1.98,2.41c.2.22.36.48.46.75.14.37.13.78-.01,1.17-.14.35-.4.67-.78.94-.38.28-.74.45-1.1.5-.08.01-.16.02-.23.02Z" fill="#03072d"/><path d="m41.61,32.42c-.29,0-.5-.04-.66-.12-.15-.08-.26-.19-.32-.35-.06-.15-.1-.31-.1-.46v-5.84c0-.86-.09-1.61-.27-2.26-.18-.65-.46-1.2-.83-1.63-.37-.44-.83-.76-1.38-.98-.55-.21-1.19-.32-1.92-.32h-2.88c-.22,0-.41-.03-.57-.08-.16-.06-.29-.16-.38-.32-.1-.16-.14-.38-.14-.67,0-.3.05-.52.14-.67.1-.14.22-.25.38-.31.16-.06.34-.1.55-.1h2.84c1.1,0,2.05.15,2.87.46s1.51.77,2.06,1.38c.56.61.97,1.37,1.25,2.28s.42,1.96.42,3.17v5.72c0,.21-.03.39-.08.56-.06.17-.16.3-.31.39-.15.1-.37.14-.66.14Z" fill="#fff"/><path d="m47.36,32.42c-.29,0-.5-.05-.64-.14-.14-.1-.24-.23-.3-.39s-.08-.35-.08-.54v-11.99c0-.19.03-.37.08-.52.06-.16.16-.29.31-.38.15-.1.37-.14.66-.14.3,0,.53.05.68.15.15.1.25.23.3.38.05.15.07.33.07.54v11.99c0,.19-.03.37-.08.52-.06.16-.16.29-.31.38-.15.1-.38.14-.68.14Z" fill="#fff"/><path d="m58.94,32.52c-1.14,0-2.16-.19-3.05-.57-.89-.38-1.64-.91-2.25-1.58-.61-.68-1.07-1.47-1.38-2.37s-.46-1.9-.46-2.98v-5.62c0-.19.03-.37.08-.54.06-.17.16-.3.32-.39.16-.1.38-.14.67-.14s.5.05.66.14c.15.1.26.23.32.39.06.17.1.35.1.56v5.6c0,1.1.2,2.05.6,2.86.4.81.98,1.44,1.74,1.88.76.45,1.68.67,2.74.67,1.13,0,2.07-.23,2.84-.69.76-.46,1.34-1.1,1.73-1.92s.58-1.76.58-2.82v-5.74c0-.16.03-.31.1-.45.06-.14.17-.26.32-.35.15-.09.37-.13.66-.13s.5.05.66.15c.15.1.25.23.31.39.06.16.08.34.08.55v5.65c0,1.06-.16,2.05-.48,2.95-.32.91-.79,1.7-1.43,2.37-.64.68-1.41,1.2-2.31,1.57-.91.37-1.95.56-3.12.56Zm-4.46-2.91l-.36-1.45h.6c.43,0,.83-.15,1.19-.46.37-.31.7-.73,1-1.28.3-.54.54-1.16.72-1.85.17-.69.27-1.41.29-2.16l.1-3.12c.02-.17.06-.34.12-.49.06-.15.17-.27.32-.36s.37-.13.66-.13c.3,0,.53.05.69.14.16.1.26.22.31.37.05.15.06.32.05.51l-.14,3.03c-.06,1.02-.22,1.96-.46,2.84-.25.87-.59,1.64-1.02,2.31-.44.67-.95,1.18-1.53,1.55-.58.37-1.23.55-1.94.55h-.57Z" fill="#fff"/><path d="m70.69,25.68c-.29,0-.5-.05-.64-.16-.14-.1-.24-.23-.3-.39-.06-.16-.08-.33-.08-.52v-5.24c0-.19.03-.37.08-.52.06-.16.16-.29.31-.38.15-.1.37-.14.66-.14.3,0,.53.05.68.15.15.1.25.23.3.38.05.15.07.33.07.54v5.24c0,.19-.03.37-.08.52-.06.16-.16.29-.31.38-.15.1-.38.14-.68.14Z" fill="#fff"/><path d="m75.52,32.4c-.3-.08-.51-.19-.62-.33-.11-.14-.16-.32-.15-.54,0-.21.04-.44.11-.68l2.79-9.53,1.74.71-2.48,9.25c-.08.32-.16.57-.25.76-.09.19-.21.31-.38.37-.17.06-.42.05-.75-.01Zm11.89-.14c-.25.19-.47.3-.66.32-.18.02-.34-.01-.46-.11-.13-.1-.25-.22-.38-.38l-9.51-11.56c-.19-.24-.35-.46-.46-.66-.12-.2-.16-.39-.12-.58s.2-.4.49-.62c.27-.21.5-.3.68-.27.18.02.36.12.52.27.17.16.35.37.54.62l9.51,11.53c.14.16.24.31.3.46.06.15.05.31-.01.48-.06.17-.21.33-.43.49Zm-3.05-3.98l-.81-.69,2.05-8.01c.08-.25.16-.48.25-.67.09-.19.22-.33.41-.4.18-.08.45-.06.8.05.3.1.5.22.6.37.1.15.13.33.1.54-.03.21-.09.45-.17.71l-1.6,6.01c-.1.33-.21.62-.33.85-.13.23-.29.44-.5.63s-.47.4-.79.62Z" fill="#fff"/><path d="m108.42,8.81c-3.43-2.95-8.03-4.82-13.58-5.39-11.54-1.19-23.85-1.19-35.76-1.19s-23.73,0-35.75,1.19C12.66,4.47,5.48,10.36,3.44,19.66,9.31,12.54,30.75-.37,108.42,8.81Z" fill="#fff" opacity=".07"/></g></svg>