<?xml version="1.0" encoding="UTF-8"?><svg id="Layer_2" xmlns="http://www.w3.org/2000/svg" width="42.34" height="42.12" xmlns:xlink="http://www.w3.org/1999/xlink" viewBox="0 0 42.34 42.12"><defs><linearGradient id="linear-gradient" x1="20.06" y1="-11" x2="22.24" y2="52.08" gradientUnits="userSpaceOnUse"><stop offset=".23" stop-color="#ffd800"/><stop offset=".95" stop-color="#fd1a84"/></linearGradient></defs><g id="Layer_2-2"><path d="m22.49,39.81c-.44.01-.88.03-1.33.03.44,0,.88-.01,1.33-.03Z" fill="#00c392"/><path d="m21.17,39.84h0c-.44,0-.88-.02-1.33-.03.44.02.88.03,1.33.03Z" fill="#00c392"/><path d="m21.17,42.12c-.33,0-.66-.01-1-.02h-.4c-3.03-.15-6.07-.72-9.05-1.7-3.93-1.29-7.08-4.22-8.66-8.04-.12-.3-.24-.6-.34-.91-1.15-3.45-1.73-6.95-1.73-10.39s.54-6.71,1.62-10.05C3.05,6.55,6.59,3.03,11.07,1.61c3.35-1.07,6.75-1.61,10.09-1.61s6.98.58,10.44,1.72c4.23,1.39,7.6,4.74,9,8.95,1.15,3.45,1.73,6.95,1.73,10.39s-.58,6.94-1.73,10.39c-.11.33-.24.65-.37.97-1.58,3.78-4.72,6.69-8.63,7.97-2.98.98-6.02,1.55-9.01,1.69h-.43c-.33.02-.66.04-.99.04Z" fill="#952362"/><path d="m21.17,40.98c-.32,0-.64-.01-.96-.02h-.4c-2.91-.14-5.84-.69-8.73-1.64-3.61-1.19-6.51-3.88-7.96-7.39-.11-.27-.22-.55-.31-.83-1.11-3.33-1.67-6.71-1.67-10.03s.53-6.47,1.56-9.7c1.32-4.11,4.58-7.35,8.72-8.67,3.24-1.03,6.52-1.55,9.75-1.55s6.74.56,10.09,1.66c3.89,1.28,6.98,4.35,8.27,8.22,1.11,3.33,1.67,6.71,1.67,10.03s-.56,6.7-1.67,10.03c-.1.3-.22.6-.34.89-1.45,3.48-4.34,6.15-7.93,7.33-2.89.95-5.82,1.5-8.71,1.63h-.42c-.32.02-.64.03-.96.03Z" fill="#f8f47c"/><path d="m38.44,11.39c-1.18-3.54-3.98-6.33-7.54-7.5-3.24-1.07-6.5-1.6-9.73-1.6s-6.27.5-9.4,1.5c-3.81,1.21-6.76,4.15-7.98,7.93-1,3.12-1.51,6.24-1.51,9.35,0,3.21.54,6.45,1.61,9.67.09.26.18.51.28.76,1.31,3.18,3.96,5.66,7.26,6.74,2.8.92,5.61,1.45,8.4,1.57.44.01.88.03,1.33.03h0c.44,0,.88-.02,1.33-.03,2.79-.13,5.6-.65,8.4-1.57,3.28-1.08,5.92-3.54,7.24-6.69.11-.27.22-.54.31-.81,1.07-3.22,1.61-6.46,1.61-9.67s-.54-6.45-1.61-9.67Z" fill="url(#linear-gradient)"/><path d="m30.9,3.89c-3.24-1.07-6.5-1.6-9.73-1.6s-6.27.5-9.4,1.5c-3.81,1.21-6.76,4.15-7.98,7.93-.29.91-.54,1.82-.75,2.73,3.3-2.88,16.95-13.39,33.73-6.28-1.45-1.98-3.49-3.49-5.87-4.27Z" fill="#fff" opacity=".26"/><path d="m40.06,21.06c0,.05,0,.11,0,.16,0-.1,0-.16,0-.16Z" fill="none"/><path d="m4.18,31.49c1.31,3.18,3.96,5.66,7.26,6.74,2.8.92,5.61,1.45,8.4,1.57.44.01.88.03,1.33.03h0c.44,0,.88-.02,1.33-.03,2.79-.13,5.6-.65,8.4-1.57,3.28-1.08,5.92-3.54,7.24-6.69.11-.27.22-.54.31-.81,1.05-3.17,1.59-6.35,1.61-9.51-.05,1.55-1.01,13.93-17.56,15.71C4.84,38.82,2.28,21.06,2.28,21.06c0,3.21.54,6.45,1.61,9.67.09.26.18.51.28.76Z" fill="#6d0033" opacity=".37"/><circle cx="5.14" cy="13.66" r=".73" fill="#fff"/><path d="m12.6,6.29c0,.78-1.39.68-3.42,2.06-3.12,2.13-2.31,3.91-3.47,3.56-.72-.21.2-2.67,2.1-4.23s4.79-2.15,4.79-1.4Z" fill="#fff"/><g opacity=".26"><path d="m15.16,31.21c-.59-.21-.74-.69-.78-1.25-.11-1.34-.25-2.67-.38-4-.11-1.13-.21-2.26-.31-3.39-.12-1.27-.25-2.54-.37-3.81-.06-.62-.12-1.24-.18-1.85-.03-.31-.01-.32.29-.32,4.89,0,9.77,0,14.66,0,.21,0,.27.05.25.26-.08.82-.16,1.65-.23,2.47-.08.84-.16,1.68-.24,2.51-.1.99-.19,1.97-.28,2.96-.08.81-.15,1.62-.23,2.43-.1,1.05-.19,2.1-.31,3.15-.05.43-.34.69-.73.84h-11.14Zm9.9-12.6s0-.26.02-.38c.02-.25-.1-.41-.31-.42-.22-.01-.36.12-.37.37-.06,1.15-.12,2.31-.17,3.46-.06,1.15-.11,2.29-.17,3.44-.07,1.47-.14,2.95-.22,4.42-.02.32.1.5.31.52.23.02.37-.15.38-.49.08-1.62.15-3.23.22-4.85.03-.65.06-1.3.09-1.94.07-1.37.14-2.75.21-4.12Zm-8.65-.11c.04.8.09,1.6.13,2.39.07,1.48.15,2.95.22,4.43.05,1.05.09,2.11.14,3.17.02.4.05.8.07,1.2,0,.14.06.25.19.31.24.11.49-.06.48-.36-.03-.79-.08-1.58-.12-2.37-.07-1.48-.15-2.95-.22-4.43-.06-1.34-.12-2.68-.18-4.02-.01-.23-.02-.46-.04-.68-.02-.21-.15-.33-.35-.33-.19,0-.31.12-.32.33,0,.12,0,.24,0,.36Zm3.99,5.4c0,1.86,0,3.71,0,5.57,0,.09,0,.17,0,.26.02.17.18.3.34.3.16,0,.3-.14.32-.32,0-.07,0-.14,0-.21,0-3.72,0-7.44,0-11.16,0-.09,0-.17,0-.26-.03-.18-.16-.29-.35-.28-.22.01-.32.15-.32.44,0,1.88,0,3.77,0,5.65Z" fill="#fff"/><path d="m25.2,11.93c.01.15-.02.33-.07.5-.07.27-.07.27.22.34,1.04.24,2.09.48,3.13.72.76.18,1.1.73.93,1.49-.06.26-.13.51-.17.77-.03.18-.1.23-.29.18-1.9-.44-3.8-.87-5.69-1.31-3.35-.77-6.7-1.54-10.05-2.31-.06-.01-.11-.03-.17-.04-.12-.02-.17-.09-.14-.21.08-.35.15-.7.25-1.04.17-.55.73-.88,1.3-.76,1.07.24,2.14.49,3.21.73.3.07.3.07.38-.24.19-.81.69-1.32,1.5-1.49.39-.08.76.01,1.14.1,1.02.24,2.05.46,3.07.71.89.21,1.47.94,1.47,1.84Zm-.78,0c0-.56-.31-.96-.91-1.1-1.08-.25-2.17-.5-3.25-.75-.78-.18-1.29.13-1.47.9q-.07.26.2.32c1.61.37,3.23.74,4.84,1.11.54.12.6.08.6-.49Z" fill="#fff"/></g><path d="m15.16,32.88c-.59-.21-.74-.7-.78-1.27-.11-1.36-.25-2.71-.38-4.06-.11-1.15-.21-2.29-.31-3.44-.12-1.29-.25-2.58-.37-3.87-.06-.63-.12-1.25-.18-1.88-.03-.31-.01-.32.29-.32,4.89,0,9.77,0,14.66,0,.21,0,.27.06.25.27-.08.84-.16,1.67-.23,2.51-.08.85-.16,1.7-.24,2.55-.1,1-.19,2-.28,3-.08.82-.15,1.64-.23,2.46-.1,1.07-.19,2.13-.31,3.2-.05.44-.34.7-.73.85h-11.14Zm9.9-12.78s0-.26.02-.39c.02-.25-.1-.42-.31-.43-.22-.01-.36.12-.37.38-.06,1.17-.12,2.34-.17,3.51-.06,1.16-.11,2.33-.17,3.49-.07,1.5-.14,2.99-.22,4.49-.02.33.1.51.31.53.23.02.37-.16.38-.5.08-1.64.15-3.28.22-4.92.03-.66.06-1.32.09-1.97.07-1.4.14-2.79.21-4.18Zm-8.65-.12c.04.81.09,1.62.13,2.43.07,1.5.15,2.99.22,4.49.05,1.07.09,2.14.14,3.21.02.4.05.81.07,1.21,0,.14.06.25.19.31.24.12.49-.06.48-.36-.03-.8-.08-1.61-.12-2.41-.07-1.5-.15-2.99-.22-4.49-.06-1.36-.12-2.72-.18-4.08-.01-.23-.02-.46-.04-.69-.02-.21-.15-.33-.35-.33-.19,0-.31.13-.32.34,0,.12,0,.25,0,.37Zm3.99,5.48c0,1.88,0,3.77,0,5.65,0,.09,0,.17,0,.26.02.18.18.31.34.3.16,0,.3-.14.32-.32,0-.07,0-.14,0-.22,0-3.77,0-7.55,0-11.32,0-.09,0-.17,0-.26-.03-.19-.16-.29-.35-.28-.22.01-.32.15-.32.45,0,1.91,0,3.83,0,5.74Z" fill="#501136"/><path d="m25.2,13.31c.01.16-.02.33-.07.51-.07.28-.07.28.22.34,1.04.24,2.09.48,3.13.73.76.18,1.1.74.93,1.51-.06.26-.13.52-.17.78-.03.18-.1.23-.29.19-1.9-.45-3.8-.89-5.69-1.33-3.35-.78-6.7-1.56-10.05-2.34-.06-.01-.11-.03-.17-.04-.12-.02-.17-.09-.14-.21.08-.35.15-.71.25-1.05.17-.56.73-.9,1.3-.77,1.07.24,2.14.5,3.21.74.3.07.3.07.38-.24.19-.82.69-1.34,1.5-1.51.39-.08.76.01,1.14.1,1.02.24,2.05.47,3.07.72.89.22,1.47.95,1.47,1.87Zm-.78,0c0-.57-.31-.97-.91-1.12-1.08-.26-2.17-.5-3.25-.76-.78-.18-1.29.13-1.47.91q-.07.27.2.33c1.61.38,3.23.75,4.84,1.13.54.13.6.08.6-.5Z" fill="#501136"/><path d="m15.16,31.88c-.59-.21-.74-.69-.78-1.25-.11-1.34-.25-2.67-.38-4-.11-1.13-.21-2.26-.31-3.39-.12-1.27-.25-2.54-.37-3.81-.06-.62-.12-1.24-.18-1.85-.03-.31-.01-.32.29-.32,4.89,0,9.77,0,14.66,0,.21,0,.27.05.25.26-.08.82-.16,1.65-.23,2.47-.08.84-.16,1.68-.24,2.51-.1.99-.19,1.97-.28,2.96-.08.81-.15,1.62-.23,2.43-.1,1.05-.19,2.1-.31,3.15-.05.43-.34.69-.73.84h-11.14Zm9.9-12.6s0-.26.02-.38c.02-.25-.1-.41-.31-.42-.22-.01-.36.12-.37.37-.06,1.15-.12,2.31-.17,3.46-.06,1.15-.11,2.29-.17,3.44-.07,1.47-.14,2.95-.22,4.42-.02.32.1.5.31.52.23.02.37-.15.38-.49.08-1.62.15-3.23.22-4.85.03-.65.06-1.3.09-1.94.07-1.37.14-2.75.21-4.12Zm-8.65-.11c.04.8.09,1.6.13,2.39.07,1.48.15,2.95.22,4.43.05,1.05.09,2.11.14,3.17.02.4.05.8.07,1.2,0,.14.06.25.19.31.24.11.49-.06.48-.36-.03-.79-.08-1.58-.12-2.37-.07-1.48-.15-2.95-.22-4.43-.06-1.34-.12-2.68-.18-4.02-.01-.23-.02-.46-.04-.68-.02-.21-.15-.33-.35-.33-.19,0-.31.12-.32.33,0,.12,0,.24,0,.36Zm3.99,5.4c0,1.86,0,3.71,0,5.57,0,.09,0,.17,0,.26.02.17.18.3.34.3.16,0,.3-.14.32-.32,0-.07,0-.14,0-.21,0-3.72,0-7.44,0-11.16,0-.09,0-.17,0-.26-.03-.18-.16-.29-.35-.28-.22.01-.32.15-.32.44,0,1.88,0,3.77,0,5.65Z" fill="#952362"/><path d="m25.2,12.6c.01.15-.02.33-.07.5-.07.27-.07.27.22.34,1.04.24,2.09.48,3.13.72.76.18,1.1.73.93,1.49-.06.26-.13.51-.17.77-.03.18-.1.23-.29.18-1.9-.44-3.8-.87-5.69-1.31-3.35-.77-6.7-1.54-10.05-2.31-.06-.01-.11-.03-.17-.04-.12-.02-.17-.09-.14-.21.08-.35.15-.7.25-1.04.17-.55.73-.88,1.3-.76,1.07.24,2.14.49,3.21.73.3.07.3.07.38-.24.19-.81.69-1.32,1.5-1.49.39-.08.76.01,1.14.1,1.02.24,2.05.46,3.07.71.89.21,1.47.94,1.47,1.84Zm-.78,0c0-.56-.31-.96-.91-1.1-1.08-.25-2.17-.5-3.25-.75-.78-.18-1.29.13-1.47.9q-.07.26.2.32c1.61.37,3.23.74,4.84,1.11.54.12.6.08.6-.49Z" fill="#952362"/></g></svg>