<?xml version="1.0" encoding="UTF-8"?><svg id="Layer_2" xmlns="http://www.w3.org/2000/svg" width="61.59" height="61.27" xmlns:xlink="http://www.w3.org/1999/xlink" viewBox="0 0 61.59 61.27"><defs><linearGradient id="linear-gradient" x1="29.18" y1="-16" x2="32.36" y2="75.77" gradientUnits="userSpaceOnUse"><stop offset=".23" stop-color="#ffd800"/><stop offset=".95" stop-color="#fd1a84"/></linearGradient></defs><g id="Layer_1-2"><path d="m32.72,57.9c-.64.02-1.29.05-1.93.05.64,0,1.28-.02,1.93-.05Z" fill="#00c392"/><path d="m30.79,57.95h0c-.64,0-1.29-.03-1.93-.05.64.03,1.29.05,1.93.05Z" fill="#00c392"/><path d="m30.79,61.27c-.48,0-.97-.02-1.45-.03l-.58-.02c-4.4-.2-8.83-1.02-13.17-2.45-5.72-1.88-10.31-6.14-12.59-11.7-.18-.43-.35-.87-.49-1.32-1.67-5.02-2.52-10.1-2.52-15.12s.79-9.76,2.35-14.61c2.09-6.49,7.23-11.61,13.76-13.69C20.99.79,25.93,0,30.79,0s10.15.84,15.19,2.5c6.16,2.02,11.05,6.89,13.09,13.02,1.67,5.02,2.52,10.11,2.52,15.12s-.85,10.1-2.52,15.12c-.16.48-.34.95-.54,1.41-2.3,5.51-6.87,9.73-12.55,11.6-4.34,1.43-8.75,2.25-13.11,2.45l-.63.02c-.48.02-.97.03-1.45.03Z" fill="#952362"/><path d="m30.79,59.61c-.47,0-.93-.02-1.4-.03l-.58-.02c-4.24-.19-8.5-.99-12.7-2.37-5.26-1.73-9.47-5.65-11.57-10.75-.16-.4-.32-.8-.45-1.21-1.61-4.85-2.43-9.76-2.43-14.59s.76-9.42,2.27-14.11c1.92-5.98,6.67-10.7,12.68-12.61,4.71-1.5,9.48-2.26,14.18-2.26s9.8.81,14.68,2.42c5.66,1.86,10.16,6.34,12.03,11.96,1.61,4.85,2.43,9.76,2.43,14.6s-.82,9.74-2.43,14.59c-.15.44-.31.87-.49,1.3-2.11,5.06-6.32,8.95-11.54,10.66-4.2,1.38-8.46,2.18-12.67,2.37l-.61.02c-.47.02-.93.03-1.4.03Z" fill="#f8f47c"/><path d="m55.92,16.56c-1.71-5.15-5.79-9.21-10.97-10.91-4.72-1.55-9.45-2.33-14.16-2.33s-9.12.73-13.67,2.18c-5.54,1.76-9.83,6.03-11.6,11.54-1.46,4.53-2.19,9.08-2.19,13.6,0,4.67.79,9.38,2.35,14.07.12.37.26.74.41,1.1,1.9,4.62,5.76,8.23,10.56,9.81,4.07,1.34,8.16,2.1,12.23,2.29.64.02,1.29.05,1.93.05h0c.64,0,1.29-.03,1.93-.05,4.07-.18,8.15-.95,12.23-2.29,4.78-1.57,8.61-5.14,10.52-9.73.16-.39.32-.78.45-1.18,1.56-4.69,2.35-9.4,2.35-14.07s-.79-9.38-2.35-14.07Z" fill="url(#linear-gradient)"/><path d="m44.95,5.65c-4.72-1.55-9.45-2.33-14.16-2.33s-9.12.73-13.67,2.18c-5.54,1.76-9.83,6.03-11.6,11.54-.43,1.32-.78,2.65-1.08,3.97C9.22,16.82,29.09,1.54,53.49,11.87c-2.1-2.87-5.07-5.08-8.55-6.22Z" fill="#fff" opacity=".26"/><path d="m58.27,30.64c0,.08,0,.15,0,.23,0-.15,0-.23,0-.23Z" fill="none"/><path d="m6.08,45.81c1.9,4.62,5.76,8.23,10.56,9.81,4.07,1.34,8.16,2.1,12.23,2.29.64.02,1.29.05,1.93.05h0c.64,0,1.29-.03,1.93-.05,4.07-.18,8.15-.95,12.23-2.29,4.78-1.57,8.61-5.14,10.52-9.73.16-.39.32-.78.45-1.18,1.53-4.61,2.32-9.24,2.34-13.84-.08,2.25-1.47,20.26-25.54,22.85C7.04,56.47,3.32,30.64,3.32,30.64c0,4.67.79,9.38,2.35,14.07.12.37.26.74.41,1.1Z" fill="#6d0033" opacity=".37"/><circle cx="7.47" cy="19.88" r="1.07" fill="#fff"/><path d="m18.32,9.14c0,1.13-2.02.99-4.97,3-4.54,3.1-3.36,5.69-5.06,5.18-1.04-.31.28-3.89,3.05-6.15,2.77-2.26,6.97-3.12,6.97-2.04Z" fill="#fff"/><g opacity=".26"><path d="m47.43,19.41s.07,15.52-.05,15.79c0,0,0,0,0,0-.4,1.87-1.7,2.93-3.62,2.93-6.81,0-13.62,0-20.43,0-.26,0-.52,0-.78-.05-1.76-.32-2.89-1.73-2.89-3.59,0-4.97,0-9.93,0-14.9,0-2.17,1.49-3.66,3.65-3.66,2.58,0,5.16,0,7.74,0,4.27,0,8.54,0,12.82,0,1.59,0,2.9.94,3.38,2.41h0c.11.35.17.71.17,1.08Zm-3,9.57l.22-.08h0c0-3.11,0-6.22,0-9.34,0-.63-.23-.86-.86-.86-6.82,0-13.64,0-20.46,0-.65,0-.88.23-.88.88,0,4.19,0,8.37,0,12.56v.15c0,.07.09.11.14.06.06-.06.11-.11.16-.16,1.12-1.12,2.24-2.24,3.36-3.36,1.19-1.19,2.59-1.19,3.77,0,.48.48.94.96,1.43,1.46.03.04.09.03.13,0,.56-.67,1.09-1.31,1.62-1.94,1.15-1.37,2.29-2.75,3.44-4.12.64-.76,1.44-1.09,2.43-.89.57.12,1.03.42,1.41.86,1.14,1.34,2.28,2.67,3.43,4,.22.26.44.52.67.78Z" fill="#fff"/><path d="m14.14,37.64c-.02-.32.02-.63.11-.94.54-1.81,1.08-3.63,1.63-5.44.52-1.73,1.04-3.46,1.56-5.19.03-.09.06-.17.15-.25,0,.11,0,.23,0,.34,0,2.91-.02,5.81,0,8.72.02,2.08.94,3.68,2.76,4.72.82.46,1.72.62,2.66.62,6.48,0,12.96,0,19.45,0h.48c-.04.13-.06.22-.09.32-.38,1.23-.77,2.46-1.16,3.69-.53,1.69-2.15,2.58-3.87,2.12-5.26-1.4-10.52-2.82-15.77-4.22-1.8-.48-3.59-.97-5.39-1.44-1.34-.35-2.24-1.17-2.48-2.55-.02-.14-.02-.24-.03-.48Z" fill="#fff"/><path d="m26.61,25.63c-1.53,0-2.77-1.24-2.77-2.77,0-1.53,1.26-2.79,2.8-2.78,1.52,0,2.77,1.27,2.76,2.79-.01,1.53-1.25,2.76-2.78,2.76Z" fill="#fff"/></g><path d="m47.43,21.36s.07,15.52-.05,15.79c0,0,0,0,0,0-.4,1.87-1.7,2.93-3.62,2.93-6.81,0-13.62,0-20.43,0-.26,0-.52,0-.78-.05-1.76-.32-2.89-1.73-2.89-3.59,0-4.97,0-9.93,0-14.9,0-2.17,1.49-3.66,3.65-3.66,2.58,0,5.16,0,7.74,0,4.27,0,8.54,0,12.82,0,1.59,0,2.9.94,3.38,2.41h0c.11.35.17.71.17,1.08Zm-3,9.57l.22-.08h0c0-3.11,0-6.22,0-9.34,0-.63-.23-.86-.86-.86-6.82,0-13.64,0-20.46,0-.65,0-.88.23-.88.88,0,4.19,0,8.37,0,12.56v.15c0,.07.09.11.14.06.06-.06.11-.11.16-.16,1.12-1.12,2.24-2.24,3.36-3.36,1.19-1.19,2.59-1.19,3.77,0,.48.48.94.96,1.43,1.46.03.04.09.03.13,0,.56-.67,1.09-1.31,1.62-1.94,1.15-1.37,2.29-2.75,3.44-4.12.64-.76,1.44-1.09,2.43-.89.57.12,1.03.42,1.41.86,1.14,1.34,2.28,2.67,3.43,4,.22.26.44.52.67.78Z" fill="#501136"/><path d="m14.14,39.59c-.02-.32.02-.63.11-.94.54-1.81,1.08-3.63,1.63-5.44.52-1.73,1.04-3.46,1.56-5.19.03-.09.06-.17.15-.25,0,.11,0,.23,0,.34,0,2.91-.02,5.81,0,8.72.02,2.08.94,3.68,2.76,4.72.82.46,1.72.62,2.66.62,6.48,0,13.27-.99,19.76-.99h.48c-.04.13-.37,1.21-.4,1.3-.38,1.23-.77,2.46-1.16,3.69-.53,1.69-2.15,2.58-3.87,2.12-5.26-1.4-10.52-2.82-15.77-4.22-1.8-.48-3.59-.97-5.39-1.44-1.34-.35-2.24-1.17-2.48-2.55-.02-.14-.02-.24-.03-.48Z" fill="#501136"/><path d="m26.61,27.58c-1.53,0-2.77-1.24-2.77-2.77,0-1.53,1.26-2.79,2.8-2.78,1.52,0,2.77,1.27,2.76,2.79-.01,1.53-1.25,2.76-2.78,2.76Z" fill="#501136"/><path d="m47.43,20.39s.07,15.52-.05,15.79c0,0,0,0,0,0-.4,1.87-1.7,2.93-3.62,2.93-6.81,0-13.62,0-20.43,0-.26,0-.52,0-.78-.05-1.76-.32-2.89-1.73-2.89-3.59,0-4.97,0-9.93,0-14.9,0-2.17,1.49-3.66,3.65-3.66,2.58,0,5.16,0,7.74,0,4.27,0,8.54,0,12.82,0,1.59,0,2.9.94,3.38,2.41h0c.11.35.17.71.17,1.08Zm-3,9.57l.22-.08h0c0-3.11,0-6.22,0-9.34,0-.63-.23-.86-.86-.86-6.82,0-13.64,0-20.46,0-.65,0-.88.23-.88.88,0,4.19,0,8.37,0,12.56v.15c0,.07.09.11.14.06.06-.06.11-.11.16-.16,1.12-1.12,2.24-2.24,3.36-3.36,1.19-1.19,2.59-1.19,3.77,0,.48.48.94.96,1.43,1.46.03.04.09.03.13,0,.56-.67,1.09-1.31,1.62-1.94,1.15-1.37,2.29-2.75,3.44-4.12.64-.76,1.44-1.09,2.43-.89.57.12,1.03.42,1.41.86,1.14,1.34,2.28,2.67,3.43,4,.22.26.44.52.67.78Z" fill="#952362"/><path d="m14.14,38.61c-.02-.32.02-.63.11-.94.54-1.81,1.08-3.63,1.63-5.44.52-1.73,1.04-3.46,1.56-5.19.03-.09.06-.17.15-.25,0,.11,0,.23,0,.34,0,2.91-.02,5.81,0,8.72.02,2.08.94,3.68,2.76,4.72.82.46,1.72.62,2.66.62,6.48,0,12.96,0,19.45,0h.48c-.04.13-.06.22-.09.32-.38,1.23-.77,2.46-1.16,3.69-.53,1.69-2.15,2.58-3.87,2.12-5.26-1.4-10.52-2.82-15.77-4.22-1.8-.48-3.59-.97-5.39-1.44-1.34-.35-2.24-1.17-2.48-2.55-.02-.14-.02-.24-.03-.48Z" fill="#952362"/><path d="m26.61,26.6c-1.53,0-2.77-1.24-2.77-2.77,0-1.53,1.26-2.79,2.8-2.78,1.52,0,2.77,1.27,2.76,2.79-.01,1.53-1.25,2.76-2.78,2.76Z" fill="#952362"/></g></svg>