<?xml version="1.0" encoding="UTF-8"?><svg id="Layer_2" xmlns="http://www.w3.org/2000/svg" width="39.71" height="39.51" xmlns:xlink="http://www.w3.org/1999/xlink" viewBox="0 0 39.71 39.51"><defs><linearGradient id="linear-gradient" x1="18.82" y1="-10.32" x2="20.86" y2="48.86" gradientUnits="userSpaceOnUse"><stop offset=".12" stop-color="#4c6596"/><stop offset=".44" stop-color="#3d4e88"/><stop offset=".61" stop-color="#35417b"/><stop offset=".91" stop-color="#2a3069"/></linearGradient></defs><g id="_אייקונים"><path d="m13.43,33.64s.1-.62.69-.92" fill="none" stroke="#fff" stroke-linecap="round" stroke-miterlimit="10" stroke-width=".3"/><path d="m21.1,37.34c-.41.01-.83.03-1.24.03.41,0,.83-.01,1.24-.03Z" fill="#14c096"/><path d="m19.86,37.37h0c-.41,0-.83-.02-1.24-.03.41.02.83.03,1.24.03Z" fill="#14c096"/><path d="m19.86,39.51c-.31,0-.62-.01-.94-.02h-.37c-2.84-.14-5.69-.67-8.49-1.59-3.69-1.21-6.65-3.96-8.12-7.54-.11-.28-.22-.56-.32-.85-1.08-3.24-1.62-6.52-1.62-9.75s.51-6.29,1.52-9.42C2.86,6.14,6.18,2.84,10.39,1.51c3.14-1,6.33-1.51,9.47-1.51s6.55.54,9.8,1.61c3.97,1.31,7.12,4.44,8.44,8.39,1.08,3.24,1.62,6.52,1.62,9.75s-.55,6.51-1.62,9.75c-.1.31-.22.61-.35.91-1.48,3.55-4.43,6.28-8.09,7.48-2.8.92-5.64,1.45-8.45,1.58h-.41c-.31.02-.62.03-.93.03Z" fill="#0b1a42"/><path d="m19.86,38.44c-.3,0-.6,0-.9-.02h-.37c-2.73-.14-5.48-.65-8.19-1.54-3.39-1.11-6.11-3.64-7.46-6.93-.11-.26-.2-.51-.29-.78-1.04-3.13-1.57-6.29-1.57-9.41s.49-6.07,1.47-9.1C3.78,6.8,6.83,3.76,10.71,2.53c3.04-.97,6.11-1.46,9.14-1.46s6.32.52,9.46,1.56c3.65,1.2,6.55,4.08,7.76,7.71,1.04,3.13,1.57,6.29,1.57,9.41s-.53,6.28-1.57,9.41c-.09.28-.2.56-.32.84-1.36,3.26-4.07,5.77-7.44,6.88-2.71.89-5.46,1.41-8.17,1.53h-.39c-.3.02-.6.03-.9.03Z" fill="#6d7eb1"/><path d="m36.06,10.68c-1.11-3.32-3.74-5.94-7.08-7.04-3.04-1-6.1-1.51-9.13-1.51s-5.88.47-8.82,1.41c-3.57,1.14-6.34,3.89-7.48,7.44-.94,2.92-1.41,5.86-1.41,8.77,0,3.01.51,6.05,1.51,9.07.08.24.17.48.27.71,1.23,2.98,3.71,5.31,6.81,6.32,2.63.86,5.26,1.36,7.88,1.48.41.01.83.03,1.24.03h0c.41,0,.83-.02,1.24-.03,2.62-.12,5.26-.61,7.88-1.48,3.08-1.01,5.55-3.32,6.79-6.27.1-.25.2-.5.29-.76,1.01-3.02,1.51-6.06,1.51-9.07s-.51-6.05-1.51-9.07Z" fill="url(#linear-gradient)"/><path d="m11.82,5.9c0,.73-1.3.64-3.21,1.93-2.93,2-2.16,3.67-3.26,3.34-.67-.2.18-2.51,1.97-3.96,1.79-1.46,4.49-2.01,4.5-1.31Z" fill="#fff"/><circle cx="4.82" cy="12.82" r=".69" fill="#fff"/><path d="m28.98,3.65c-3.04-1-6.1-1.51-9.13-1.51s-5.88.47-8.82,1.41c-3.57,1.14-6.34,3.89-7.48,7.44-.27.85-.5,1.71-.7,2.56,3.09-2.7,15.9-12.56,31.64-5.89-1.36-1.85-3.27-3.27-5.51-4.01Z" fill="#fff" opacity=".07"/><path d="m37.57,19.75s0,.1,0,.15c0-.1,0-.15,0-.15Z" fill="none"/><path d="m3.92,29.54c1.23,2.98,3.71,5.31,6.81,6.32,2.63.86,5.26,1.36,7.88,1.48.41.01.83.03,1.24.03h0c.41,0,.83-.02,1.24-.03,2.62-.12,5.26-.61,7.88-1.48,3.08-1.01,5.55-3.32,6.79-6.27.1-.25.2-.5.29-.76.99-2.97,1.49-5.96,1.51-8.92-.05,1.45-.95,13.07-16.47,14.73C4.54,36.42,2.14,19.75,2.14,19.75c0,3.01.51,6.05,1.51,9.07.08.24.17.48.27.71Z" fill="#0b1a42" opacity=".67"/><path d="m22.92,29c-.35,0-.79-.03-1.34-.1-.5-.06-1.01-.09-1.53-.09-.55,0-1.1.03-1.63.09-.57.06-1.12.1-1.65.1-.28,0-.53-.14-.69-.37-.12-.18-.18-.37-.18-.57,0-.22.06-.42.18-.6.14-.21.35-.35.62-.39.55-.06.83-.15.97-.21.15-.06.25-.14.3-.22.07-.11.11-.26.12-.44.02-.27.02-.6.02-1v-4.36c0-.76-.02-1.38-.05-1.82-.04-.49-.12-.73-.18-.85-.06-.12-.14-.19-.26-.23-.21-.08-.52-.14-.91-.19h0c-.24,0-.5-.15-.65-.41-.11-.18-.16-.37-.16-.56s.05-.38.16-.56c.16-.26.42-.41.73-.41.13-.02.36-.03.62-.05.26-.02.53-.04.81-.07.28-.03.56-.06.85-.1.28-.04.53-.09.76-.14.18-.03.31-.06.4-.1.19-.07.34-.1.49-.1.59,0,.83.32.93.5.1.2.16.4.16.6v8.69c0,.44,0,.81.03,1.1.01.22.05.4.12.52.03.06.09.15.25.22.12.06.35.14.79.19.29.05.5.19.64.4.12.17.17.38.17.6,0,.2-.06.4-.18.57-.16.24-.42.38-.72.38Zm-3.11-15.4c-.59,0-1.11-.19-1.53-.56-.45-.39-.68-.9-.68-1.47s.22-1.08.64-1.47c.41-.39.93-.59,1.52-.59s1.09.21,1.48.62c.38.41.57.9.57,1.46s-.19,1.02-.57,1.41c-.37.39-.87.59-1.44.59Z" fill="#0b1a42"/><path d="m18.71,23.62v-4.36c0-.78-.02-1.4-.05-1.87-.04-.47-.12-.83-.24-1.07-.13-.24-.31-.41-.57-.5s-.6-.16-1.03-.22c-.11,0-.19-.05-.24-.14-.05-.09-.08-.18-.08-.27s.03-.18.08-.27.14-.14.24-.14c.18-.02.4-.04.66-.05.26-.02.54-.04.83-.07.29-.03.58-.06.88-.11.3-.04.56-.09.8-.15.2-.04.36-.08.47-.12.12-.04.21-.07.28-.07.22,0,.36.06.42.19.06.13.1.24.1.35v8.69m-1.43-11.99c-.45,0-.84-.14-1.16-.42-.32-.28-.49-.63-.49-1.04s.15-.77.46-1.06c.31-.29.68-.43,1.14-.43s.79.15,1.07.45c.28.3.42.65.42,1.07s-.14.74-.41,1.02-.61.42-1.03.42Z" fill="#cae8f3" opacity=".63"/><path d="m21.24,24.02c0,.45,0,.83.03,1.14s.08.56.19.76c.11.2.27.35.5.46.23.11.55.19.96.24.11.02.19.07.24.15s.08.18.08.28c0,.09-.03.18-.08.26-.05.08-.14.12-.24.12-.32,0-.75-.03-1.27-.09s-1.06-.1-1.6-.1c-.58,0-1.14.03-1.69.1-.55.06-1.08.09-1.58.09-.09,0-.16-.04-.22-.12-.05-.08-.08-.17-.08-.26,0-.11.03-.2.08-.28s.14-.13.24-.15c.47-.05.83-.14,1.1-.24.26-.11.45-.26.57-.45.12-.19.18-.42.2-.7.02-.28.03-.63.03-1.04v-4.36c0-.78-.02-1.4-.05-1.87-.04-.47-.12-.83-.24-1.07-.13-.24-.31-.41-.57-.5s-.6-.16-1.03-.22c-.11,0-.19-.05-.24-.14-.05-.09-.08-.18-.08-.27s.03-.18.08-.27.14-.14.24-.14c.18-.02.4-.04.66-.05.26-.02.54-.04.83-.07.29-.03.58-.06.88-.11.3-.04.56-.09.8-.15.2-.04.36-.08.47-.12.12-.04.21-.07.28-.07.22,0,.36.06.42.19.06.13.1.24.1.35v8.69Zm-1.43-11.99c-.45,0-.84-.14-1.16-.42-.32-.28-.49-.63-.49-1.04s.15-.77.46-1.06c.31-.29.68-.43,1.14-.43s.79.15,1.07.45c.28.3.42.65.42,1.07s-.14.74-.41,1.02-.61.42-1.03.42Z" fill="#fff"/></g></svg>