<?xml version="1.0" encoding="UTF-8"?><svg id="Layer_2" xmlns="http://www.w3.org/2000/svg" width="182.12" height="44.48" xmlns:xlink="http://www.w3.org/1999/xlink" viewBox="0 0 182.12 44.48"><defs><linearGradient id="linear-gradient" x1="1.2" y1="21.82" x2="180.93" y2="21.82" gradientUnits="userSpaceOnUse"><stop offset=".44" stop-color="#a04e7f"/><stop offset=".53" stop-color="#964071"/><stop offset=".7" stop-color="#892e60"/></linearGradient><linearGradient id="linear-gradient-2" x1="90.83" y1="-5.27" x2="91.25" y2="43.87" xlink:href="#linear-gradient"/></defs><g id="_כפתורים"><path d="m131.87,44.48c-1.66,0-100.75-.52-112.27-1.6-6.19-.58-10.52-2.26-13.63-5.29-2.76-2.7-4.58-6.34-5.56-11.13l-.06-.29-.02-.13c-.43-3.21-.43-4.96,0-8.14C1.96,8.21,8.98,2.08,19.58,1.03c10.35-1.03,20.68-1.03,30.67-1.03,2.95,0,13.15.03,23.01.06,0,0,39.41.21,47.35.32,0,0,31.99.14,41.94,1.17,10.6,1.1,17.61,7.2,19.23,16.75.45,3.32.45,5,.02,8.22l-.02.15c-.65,3.31-1.67,6.04-3.13,8.34-.23.35-.46.69-.69,1.01-3.05,4.17-8.08,6.58-15.39,7.38-9.87,1.08-20.46,1.08-30.7,1.08Z" fill="#491735"/><path d="m131.87,42.86c-1.69,0-10.22-.02-19.68-.05-11.71-.03-24.99-.07-28.26-.07-8.22,0-52.74-.4-64.22-1.47-5.91-.55-10.01-2.12-12.9-4.96-2.59-2.53-4.3-5.97-5.23-10.52l-.05-.26v-.09c-.43-3.09-.43-4.77-.02-7.83C3.05,8.55,9.68,2.79,19.7,1.8c10.3-1.02,20.59-1.02,30.55-1.02,3.04,0,13.64.03,23.9.06,10.31.03,20.97.06,24.04.06,4.63,0,14.57.15,22.56.26,5.23.08,9.75.14,11.12.14,10.16,0,20.68,0,30.56,1.02,10.02,1.04,16.65,6.78,18.17,15.76.42,3.16.43,4.76,0,7.86v.08c-.63,3.17-1.6,5.76-2.98,7.93-.21.33-.43.65-.64.94-2.84,3.88-7.6,6.14-14.55,6.9-9.8,1.07-20.36,1.07-30.57,1.07Z" fill="url(#linear-gradient)"/><path d="m179.42,18.28c-1.43-8.41-7.67-13.79-17.12-14.77-9.82-1.02-20.3-1.02-30.44-1.02-3.43,0-25.98-.4-33.68-.4-6.12,0-41.86-.12-47.94-.12-9.93,0-20.2,0-30.43,1.02-9.45.94-15.68,6.32-17.12,14.8-.4,2.97-.4,4.5,0,7.47v.05c.02.09.04.17.06.25.88,4.3,2.48,7.54,4.89,9.9,2.69,2.63,6.56,4.1,12.18,4.62,11.39,1.06,56.4,1.47,64.11,1.47,5.89,0,44.14.12,47.94.12,10.18,0,20.71,0,30.44-1.06,6.6-.72,11.08-2.82,13.71-6.41.21-.28.41-.57.6-.88,1.29-2.04,2.21-4.5,2.8-7.48v-.05c.41-2.97.41-4.5,0-7.5Z" fill="url(#linear-gradient-2)"/><path d="m19.82,40.07c11.39,1.06,56.4,1.47,64.11,1.47,5.89,0,44.14.12,47.94.12,10.18,0,20.71,0,30.44-1.06,6.6-.72,11.08-2.82,13.71-6.41,0,0,0-.01.01-.02-24.26,4.87-42.33,3.95-66.84,3.97-60.3.07-91.75-.82-106.19-11.5.92,3.76,2.44,6.66,4.64,8.81,2.69,2.63,6.56,4.1,12.18,4.62Z" fill="#491735" opacity=".26"/><g opacity=".63"><path d="m25.41,26.23c.32,0,.55-.11.71-.34.16-.23.24-.56.24-1v-8.98h1.89c.85,0,1.55.17,2.12.5.56.34.98.83,1.26,1.49s.42,1.49.42,2.49v5.03c0,.14.03.27.08.4.05.13.15.23.28.3s.32.1.57.1.43-.04.56-.12.22-.19.27-.34c.05-.14.07-.3.07-.48v-4.93c0-1.41-.22-2.58-.67-3.51-.45-.93-1.1-1.63-1.97-2.09-.87-.47-1.95-.69-3.24-.68l-3.57.04c-.53.01-.89.1-1.07.25-.18.15-.27.42-.27.8,0,.21.04.37.11.48.08.12.2.2.37.26.17.06.4.08.68.08.08,0,.17,0,.26,0v8.4" fill="#cae8f3"/><path d="m42.59,25.92c.66-.28,1.25-.69,1.75-1.22s.89-1.18,1.18-1.95c.29-.77.43-1.62.43-2.57,0-1.2-.21-2.26-.63-3.17-.42-.91-1-1.63-1.75-2.15-.75-.52-1.61-.78-2.6-.78h-3.12c-.16,0-.32.03-.46.08-.14.05-.26.15-.34.28-.08.13-.12.32-.12.56,0,.23.03.42.09.56.06.14.15.24.27.29.12.05.24.07.38.07h3.06c1.08,0,1.92.39,2.53,1.17.6.78.9,1.81.9,3.08,0,.88-.16,1.64-.47,2.29-.32.65-.76,1.15-1.33,1.51" fill="#cae8f3"/><path d="m55.25,15.67c-.48-.53-1.07-.92-1.78-1.19s-1.53-.4-2.47-.4h-2.44c-.18,0-.33.03-.47.08-.14.05-.25.14-.33.27-.08.12-.12.31-.12.57s.04.44.12.58c.08.14.19.23.33.28.14.05.3.07.49.07h2.49c.63,0,1.18.09,1.65.28.47.19.87.47,1.19.84.32.38.56.85.72,1.41s.24,1.21.24,1.95v5.03c0,.14.03.27.08.4.05.13.15.23.28.3s.32.1.56.1.43-.04.57-.12c.13-.08.22-.19.27-.34.05-.14.07-.3.07-.48v-4.93c0-1.04-.12-1.95-.36-2.73-.24-.78-.6-1.43-1.08-1.96Z" fill="#cae8f3"/><path d="m64.39,25.62c.77-.25,1.43-.55,1.99-.92s1.03-.81,1.4-1.31c.37-.51.65-1.1.84-1.79.19-.68.29-1.47.29-2.34l.02-4.23c0-.18-.03-.34-.08-.48s-.15-.26-.29-.34c-.14-.08-.34-.12-.6-.12s-.43.04-.55.11-.21.17-.26.29-.07.25-.07.4v4.95c0,.7-.09,1.31-.28,1.83-.19.52-.48.96-.88,1.3-.4.35-.74,1.56-1.37,1.78l-.36.1-2.87-9.9c-.05-.19-.12-.36-.21-.51-.08-.15-.2-.25-.36-.31s-.37-.04-.65.04c-.26.07-.44.16-.53.29-.1.12-.14.26-.12.4s.05.3.1.48l2.44,7.99c.11.31.26.56.44.75.08.08.16.14.23.21" fill="#cae8f3"/><path d="m79.7,26.23h2.11c.26,0,.45-.02.58-.07s.21-.14.25-.27c.04-.13.06-.33.06-.59v-5.69c0-1.25-.17-2.29-.51-3.13-.34-.84-.84-1.47-1.49-1.89-.65-.42-1.44-.63-2.37-.63-.56,0-1.05.08-1.47.23-.42.15-.79.36-1.12.64-.33.27-.61.6-.85.98-.24.38-.46.79-.65,1.25-.04.1-.07.21-.1.31l-.66-2.55c-.03-.12-.07-.26-.12-.4-.05-.14-.16-.25-.31-.32-.15-.07-.38-.07-.7,0-.26.07-.44.16-.54.28-.1.12-.15.25-.15.4s.03.32.08.51l1.09,4.09-1.2,5.94c-.05.3,0,.53.14.69s.4.24.76.24c.23,0,.41-.04.54-.13.13-.09.22-.21.28-.36.05-.15.1-.31.12-.49l1.11-5.44c.14-.59.3-1.13.5-1.61.2-.49.43-.91.71-1.26.27-.36.6-.63.97-.83.37-.2.78-.3,1.23-.3.62,0,1.14.14,1.57.41.43.27.76.7.99,1.27s.34,1.31.34,2.2v4.7h-1.31" fill="#cae8f3"/><path d="m87.08,19.46c-.13-.08-.33-.12-.59-.12-.25,0-.43.04-.56.11s-.22.18-.27.32c-.05.14-.07.29-.07.47v5.07c0,.16.02.32.07.46.05.14.13.26.26.34.12.08.31.12.55.12.26,0,.46-.04.59-.12.13-.08.22-.19.27-.33.05-.14.07-.29.07-.45v-5.07c0-.18-.02-.33-.06-.47-.04-.14-.13-.25-.26-.33Z" fill="#cae8f3"/><path d="m93.26,14.78c-.84-.47-1.89-.71-3.15-.71h-3.82c-.16,0-.32.03-.45.08s-.25.14-.33.27c-.08.12-.12.31-.12.57s.04.44.12.58c.08.14.19.23.33.28.14.05.29.07.47.07h3.86c.85,0,1.55.17,2.12.5s.98.83,1.26,1.49c.28.66.42,1.49.42,2.49v5.03c0,.14.03.27.08.4.05.13.15.23.28.3.13.07.32.1.56.1s.43-.04.57-.12c.13-.08.22-.19.27-.34.05-.14.07-.3.07-.48v-4.93c0-1.4-.21-2.56-.64-3.48-.42-.92-1.06-1.62-1.9-2.09Z" fill="#cae8f3"/><path d="m105.92,26.23h2.2c.26,0,.45-.02.58-.07s.21-.14.25-.27c.04-.13.06-.33.06-.59v-5.69c0-1.25-.17-2.29-.51-3.13-.34-.84-.84-1.47-1.49-1.89-.65-.42-1.44-.63-2.37-.63-.56,0-1.05.08-1.47.23-.42.15-.79.36-1.12.64-.33.27-.61.6-.85.98-.24.38-.46.79-.65,1.25-.04.1-.07.21-.1.31l-.66-2.55c-.03-.12-.07-.26-.12-.4-.05-.14-.16-.25-.31-.32-.15-.07-.38-.07-.7,0-.26.07-.44.16-.54.28-.1.12-.15.25-.15.4s.03.32.08.51l1.09,4.09-1.2,5.94c-.05.3,0,.53.14.69s.4.24.76.24c.23,0,.41-.04.54-.13.13-.09.22-.21.28-.36.05-.15.1-.31.12-.49l1.11-5.44c.14-.59.3-1.13.5-1.61.2-.49.43-.91.71-1.26.27-.36.6-.63.97-.83.37-.2.78-.3,1.23-.3.62,0,1.14.14,1.57.41.43.27.76.7.99,1.27s.34,1.31.34,2.2v4.7h-1.3" fill="#cae8f3"/><path d="m124.79,14.78c-.84-.47-1.89-.71-3.15-.71h-3.82c-.16,0-.32.03-.45.08s-.25.14-.33.27c-.08.12-.12.31-.12.57s.04.44.12.58c.08.14.19.23.33.28.14.05.29.07.47.07h3.86c.85,0,1.55.17,2.12.5s.98.83,1.26,1.49c.28.66.42,1.49.42,2.49v5.03c0,.14.03.27.08.4.05.13.15.23.28.3.13.07.32.1.56.1s.43-.04.57-.12c.13-.08.22-.19.27-.34.05-.14.07-.3.07-.48v-4.93c0-1.4-.21-2.56-.64-3.48-.42-.92-1.06-1.62-1.9-2.09Z" fill="#cae8f3"/><path d="m118.6,19.46c-.13-.08-.33-.12-.59-.12-.25,0-.43.04-.56.11s-.22.18-.27.32c-.05.14-.07.29-.07.47v5.07c0,.16.02.32.07.46.05.14.13.26.26.34.12.08.31.12.55.12.26,0,.46-.04.59-.12.13-.08.22-.19.27-.33.05-.14.07-.29.07-.45v-5.07c0-.18-.02-.33-.06-.47-.04-.14-.13-.25-.26-.33Z" fill="#cae8f3"/><path d="m138.4,22.58l-.3-.36s.07-.06.1-.09c.18-.16.32-.35.43-.54.11-.2.21-.44.29-.73l1.38-5.18c.07-.23.12-.44.14-.62s0-.33-.08-.46c-.08-.13-.25-.24-.51-.32-.3-.1-.53-.11-.69-.04-.16.07-.27.19-.35.35-.08.16-.15.36-.22.58l-1.49,5.84-5.02-6.09c-.16-.22-.32-.4-.46-.53-.14-.14-.29-.22-.45-.24s-.35.06-.59.24c-.25.19-.39.37-.42.53-.03.16,0,.33.1.5.1.17.24.36.4.56l.93,1.14-2.27,7.76c-.06.21-.09.4-.09.58,0,.19.04.34.13.46.1.12.27.22.53.29.29.05.5.06.65.01.14-.05.25-.15.33-.32.08-.16.15-.38.22-.66l1.77-6.59,4.22,5.13" fill="#cae8f3"/><path d="m144.69,14.21c-.13-.09-.33-.13-.58-.13s-.43.04-.56.12c-.13.08-.22.19-.27.33-.05.14-.07.29-.07.45v4.52c0,.16.02.32.07.45s.13.25.26.34c.12.09.31.13.55.13.26,0,.46-.04.58-.12.13-.08.22-.19.27-.33.05-.14.07-.29.07-.45v-4.52c0-.18-.02-.33-.06-.46-.04-.13-.13-.24-.26-.33Z" fill="#cae8f3"/><path d="m154.15,26.23h1.88c.17-.03.31-.08.42-.2.13-.13.23-.29.3-.47.07-.19.1-.38.08-.59-.01-.21-.06-.38-.14-.53-.07-.12-.17-.28-.31-.48-.14-.2-.28-.41-.43-.63l-1.57-2.22,2.74-5.5c.1-.16.16-.32.2-.47.03-.15.02-.29-.04-.42-.06-.13-.2-.26-.4-.38-.22-.12-.41-.19-.57-.19s-.29.03-.39.1c-.1.08-.2.18-.28.32l-2.28,5.1-3.57-5.06c-.11-.15-.23-.27-.35-.36-.12-.09-.26-.13-.41-.12-.15,0-.34.09-.55.26-.23.19-.37.38-.42.57-.05.19,0,.4.17.64l6.18,8.5.21.29h-.47" fill="#cae8f3"/><path d="m162.07,14.54c-.04-.13-.13-.24-.26-.33-.13-.09-.33-.13-.58-.13s-.43.04-.56.12c-.13.08-.22.19-.27.33-.05.14-.07.29-.07.45v4.52c0,.16.02.32.07.45s.13.25.26.34c.12.09.31.13.55.13.26,0,.46-.04.58-.12.13-.08.22-.19.27-.33.05-.14.07-.29.07-.45v-4.52c0-.18-.02-.33-.06-.46Z" fill="#cae8f3"/></g><path d="m31.97,29.08c-.39,0-.71-.07-.96-.2-.3-.16-.53-.41-.67-.72-.1-.23-.15-.48-.15-.73v-5.03c0-.88-.12-1.6-.35-2.15-.21-.49-.51-.85-.92-1.09-.42-.25-.99-.38-1.68-.38h-1.04v8.12c0,.62-.13,1.11-.39,1.48-.32.46-.82.7-1.41.7h-2.65c-.29,0-.55-.05-.79-.14-.3-.12-.55-.33-.73-.61-.17-.27-.25-.61-.25-1.02s.08-.77.25-1.04c.18-.29.45-.5.76-.62.23-.08.48-.12.74-.12h.92v-6.74c-.12-.02-.24-.05-.35-.08-.45-.14-.7-.41-.82-.61-.16-.25-.25-.57-.25-.94,0-.64.19-1.13.57-1.45.34-.29.84-.43,1.6-.45l3.7-.04c1.37,0,2.56.26,3.53.78,1.03.55,1.81,1.38,2.34,2.48.5,1.04.75,2.35.75,3.88v4.93c0,.27-.04.52-.12.75-.11.33-.32.6-.62.79-.27.17-.6.25-1.02.25Z" fill="#491735"/><path d="m39.44,29.19c-.77,0-1.5-.09-2.15-.28-.65-.18-1.22-.42-1.71-.7-.3-.19-.55-.39-.74-.6-.29-.32-.44-.65-.44-1,0-.2.04-.41.11-.62.05-.16.12-.31.19-.46l.03-.06.04-.06c.16-.21.31-.38.48-.51.32-.26.63-.31.83-.31.23,0,.47.06.7.18.12.07.24.14.37.21.35.23.68.4,1.02.51.33.11.75.16,1.25.16.58,0,1.08-.13,1.51-.4.43-.27.76-.65,1.01-1.16.26-.53.39-1.18.39-1.92,0-1.08-.24-1.94-.73-2.56-.44-.57-1.03-.84-1.85-.84h-3.06c-.25,0-.49-.05-.71-.14-.22-.09-.53-.29-.72-.74-.11-.25-.16-.55-.16-.9,0-.41.08-.75.25-1.02.18-.29.44-.5.76-.62.24-.09.5-.14.76-.14h3.12c1.16,0,2.2.31,3.08.93.87.61,1.55,1.44,2.03,2.49.47,1.02.7,2.21.7,3.53,0,1.04-.16,2.01-.49,2.87-.33.87-.78,1.62-1.36,2.23-.58.62-1.26,1.1-2.04,1.42-.77.32-1.6.49-2.48.49Z" fill="#491735"/><path d="m54.79,29.08c-.39,0-.7-.07-.96-.2-.3-.16-.53-.41-.67-.72-.1-.23-.15-.48-.15-.73v-5.03c0-.66-.07-1.24-.21-1.72-.12-.44-.31-.8-.55-1.08-.23-.27-.51-.47-.85-.6-.37-.15-.82-.22-1.34-.22h-2.49c-.29,0-.55-.04-.78-.12-.32-.11-.59-.33-.78-.64-.16-.27-.24-.6-.24-1.01,0-.44.09-.78.27-1.05.18-.27.43-.47.72-.59.23-.09.5-.14.79-.14h2.44c1.04,0,1.98.15,2.78.46.83.31,1.54.79,2.11,1.41.56.62.99,1.39,1.26,2.28.26.86.4,1.86.4,2.98v4.93c0,.27-.04.52-.12.75-.11.33-.32.6-.62.79-.27.17-.61.25-1.02.25Z" fill="#491735"/><path d="m58.97,29.66c-.41,0-.77-.15-1.04-.44-.21-.23-.36-.53-.47-.93-.11-.46-.08-.83.06-1.14.14-.3.37-.56.69-.73.21-.11.45-.21.72-.28l1.33-.36c-.02-.06-.05-.12-.07-.18l-2.45-8.02c-.07-.23-.12-.45-.14-.65-.03-.36.07-.71.3-1,.21-.28.54-.47.99-.59.22-.07.44-.1.65-.1.18,0,.34.03.5.08.36.12.64.37.83.71.11.2.2.43.28.69l2.44,8.11c.3-.14.58-.31.8-.5.29-.25.5-.56.64-.95.15-.42.23-.94.23-1.54v-4.95c0-.26.05-.5.14-.72.12-.28.32-.52.6-.69.26-.16.59-.24,1-.24s.76.08,1.03.24c.3.18.52.45.65.77.09.24.14.5.14.79l-.02,4.23c0,.95-.11,1.81-.32,2.57-.22.78-.55,1.47-.97,2.06-.43.59-.97,1.1-1.62,1.52-.62.41-1.36.75-2.2,1.02l-3.91,1.12c-.27.08-.53.11-.78.11Z" fill="#491735"/><path d="m75.82,29.08c-.27,0-.52-.05-.76-.14-.31-.12-.57-.33-.75-.61-.17-.28-.26-.61-.26-1.02s.08-.77.25-1.04c.19-.3.46-.51.79-.62.23-.08.49-.12.75-.12h3.2v-3.85c0-.78-.09-1.41-.28-1.89-.16-.41-.37-.69-.65-.87-.29-.18-.67-.28-1.12-.28-.31,0-.58.06-.83.2-.27.14-.49.34-.69.6-.23.29-.43.65-.6,1.07-.18.44-.34.94-.46,1.48l-1.1,5.42c-.03.2-.09.42-.16.61-.11.32-.32.58-.6.77-.27.19-.62.28-1.02.28-.6,0-1.06-.17-1.37-.5-.24-.25-.5-.7-.37-1.43l1.16-5.76-1.04-3.89c-.07-.26-.11-.5-.11-.73,0-.36.13-.69.37-.97.22-.25.53-.42.96-.53.25-.06.45-.08.63-.08.24,0,.45.04.64.13.36.16.62.44.75.79.07.18.12.35.16.51l.1.39c.23-.31.5-.58.79-.83.4-.34.87-.6,1.38-.78.51-.18,1.1-.28,1.76-.28,1.09,0,2.04.26,2.83.76.8.51,1.41,1.28,1.82,2.29.38.94.58,2.1.58,3.45v5.69c0,.35-.03.62-.1.84-.12.38-.39.66-.75.8-.23.09-.51.13-.88.13h-4.99Z" fill="#491735"/><path d="m85.47,29.08c-.42,0-.76-.09-1.03-.27-.28-.18-.48-.45-.59-.78-.08-.22-.12-.47-.12-.73v-5.07c0-.28.04-.53.12-.76.11-.32.34-.59.64-.77.26-.15.59-.23.99-.23.43,0,.77.08,1.04.25.31.19.52.47.62.81.06.22.1.46.1.72v5.07c0,.26-.04.5-.12.73-.11.32-.32.58-.62.77-.27.17-.61.25-1.04.25Z" fill="#491735"/><path d="m93.89,29.08c-.39,0-.7-.07-.96-.2-.3-.16-.53-.41-.67-.72-.1-.23-.15-.48-.15-.73v-5.03c0-.88-.12-1.6-.35-2.15-.21-.49-.51-.85-.92-1.09-.42-.25-.99-.38-1.68-.38h-3.86c-.28,0-.53-.04-.76-.12-.32-.11-.59-.34-.77-.64-.16-.27-.24-.6-.24-1.01,0-.44.09-.78.27-1.05.18-.26.42-.47.72-.58.24-.09.5-.14.77-.14h3.82c1.4,0,2.6.28,3.57.82,1,.56,1.76,1.4,2.26,2.48.47,1.03.71,2.32.71,3.84v4.93c0,.27-.04.52-.12.75-.11.33-.32.6-.62.79-.27.17-.61.25-1.02.25Z" fill="#491735"/><path d="m102.13,29.08c-.27,0-.52-.05-.76-.14-.31-.12-.57-.33-.75-.61-.17-.28-.26-.61-.26-1.02s.08-.77.25-1.04c.19-.3.46-.51.79-.62.23-.08.49-.12.75-.12h3.2v-3.85c0-.78-.09-1.41-.28-1.89-.16-.41-.37-.69-.65-.87-.29-.18-.67-.28-1.12-.28-.31,0-.58.06-.83.2-.27.14-.49.34-.69.6-.23.29-.43.65-.6,1.07-.18.44-.34.94-.46,1.48l-1.1,5.42c-.03.2-.09.42-.16.61-.11.32-.32.58-.6.77-.27.19-.62.28-1.02.28-.6,0-1.06-.17-1.37-.5-.24-.25-.5-.7-.37-1.43l1.16-5.76-1.04-3.89c-.07-.26-.11-.5-.11-.73,0-.36.13-.69.37-.97.22-.25.53-.42.96-.53.25-.06.45-.08.63-.08.24,0,.45.04.64.13.36.16.62.44.75.79.07.18.12.35.16.51l.1.39c.23-.31.5-.58.79-.83.4-.34.87-.6,1.38-.78.51-.18,1.1-.28,1.76-.28,1.09,0,2.04.26,2.83.76.8.51,1.41,1.28,1.82,2.29.38.94.58,2.1.58,3.45v5.69c0,.35-.03.62-.1.84-.12.38-.39.66-.75.8-.23.09-.51.13-.88.13h-4.99Z" fill="#491735"/><path d="m125.42,29.08c-.39,0-.7-.07-.96-.2-.3-.16-.53-.41-.67-.72-.1-.23-.15-.48-.15-.73v-5.03c0-.88-.12-1.6-.35-2.15-.21-.49-.51-.85-.92-1.09-.42-.25-.99-.38-1.68-.38h-3.86c-.28,0-.53-.04-.76-.12-.32-.11-.59-.34-.77-.64-.16-.27-.24-.6-.24-1.01,0-.44.09-.78.27-1.05.18-.26.42-.47.72-.58.24-.09.5-.14.77-.14h3.82c1.4,0,2.6.28,3.57.82,1,.56,1.76,1.4,2.26,2.48.47,1.03.71,2.32.71,3.84v4.93c0,.27-.04.52-.12.75-.11.33-.32.6-.62.79-.27.17-.61.25-1.02.25Z" fill="#491735"/><path d="m117,29.08c-.42,0-.76-.09-1.03-.27-.28-.18-.48-.45-.59-.78-.08-.22-.12-.47-.12-.73v-5.07c0-.28.04-.53.12-.76.11-.32.34-.59.64-.77.26-.15.59-.23.99-.23.43,0,.77.08,1.04.25.31.19.52.47.62.81.06.22.1.46.1.72v5.07c0,.26-.04.5-.12.73-.11.32-.32.58-.62.77-.27.17-.61.25-1.04.25Z" fill="#491735"/><path d="m138.5,29.22c-.3,0-.58-.09-.82-.27-.17-.13-.33-.28-.48-.48l-4.94-6-1.34,4.99c-.08.31-.17.57-.26.79-.22.48-.57.68-.83.77-.16.05-.33.08-.52.08-.16,0-.34-.02-.56-.06-.51-.13-.83-.33-1.05-.6-.22-.28-.33-.63-.31-1.02,0-.25.05-.51.12-.78l2.15-7.34-.65-.79c-.2-.25-.35-.47-.47-.67-.21-.35-.28-.74-.21-1.11.08-.37.32-.71.73-1.03.37-.28.71-.42,1.06-.42h.16c.34.05.65.21.93.47.18.17.36.38.56.64l3.93,4.76,1.08-4.22c.09-.3.18-.53.27-.72.16-.35.43-.62.78-.77.17-.08.37-.11.58-.11s.45.04.71.12c.46.15.78.37.97.67.19.3.26.67.2,1.05-.03.21-.09.45-.17.73l-1.37,5.15c-.11.37-.22.66-.37.92-.05.09-.1.17-.16.25l1.71,2.07c.17.19.31.42.4.65.12.32.11.67-.01,1-.12.31-.35.58-.67.82-.32.24-.64.39-.95.43h-.05s-.15.01-.15.01Z" fill="#491735"/><path d="m143.08,23.27c-.43,0-.78-.1-1.05-.29-.26-.19-.46-.45-.56-.75-.08-.23-.12-.47-.12-.73v-4.52c0-.26.04-.5.12-.73.11-.32.33-.59.62-.77.27-.17.6-.25,1.02-.25.44,0,.79.09,1.07.28.29.2.49.46.59.77.07.21.1.46.1.72v4.52c0,.26-.04.51-.12.73-.11.32-.33.58-.61.77-.27.17-.61.26-1.04.26Z" fill="#491735"/><path d="m147.64,29.08c-.28,0-.54-.05-.79-.14-.31-.12-.58-.33-.75-.62-.17-.27-.25-.61-.25-1.02s.08-.77.25-1.04c.19-.3.46-.51.79-.62.23-.08.48-.12.73-.12h4.33l-5.41-7.44c-.4-.56-.39-1.04-.31-1.35.09-.37.33-.71.71-1.02.39-.29.73-.43,1.06-.45h0c.38,0,.68.1.94.28.2.14.38.32.54.55l2.72,3.85,1.69-3.78.03-.04c.14-.23.31-.43.5-.57.24-.17.53-.27.85-.27.37.01.68.11,1.02.3.38.23.62.47.75.76.14.3.18.64.1.97-.05.23-.15.47-.29.71l-2.49,4.99,1.28,1.81.44.63c.16.23.27.41.35.55.14.26.23.56.25.89.02.33-.03.65-.13.94-.11.3-.28.57-.5.78-.04.05-.1.1-.17.14v.28h-.85s-7.39.01-7.39.01Z" fill="#491735"/><path d="m160.21,23.27c-.43,0-.78-.1-1.05-.29-.26-.19-.46-.45-.56-.75-.08-.23-.12-.47-.12-.73v-4.52c0-.26.04-.5.12-.73.11-.32.33-.59.62-.77.27-.17.6-.25,1.02-.25.44,0,.79.09,1.07.28.29.2.49.46.59.77.07.21.1.46.1.72v4.52c0,.26-.04.51-.12.73-.11.32-.33.58-.61.77-.27.17-.61.26-1.04.26Z" fill="#491735"/><path d="m31.23,15.75c-.87-.47-1.95-.69-3.24-.68l-3.57.04c-.53.01-.89.1-1.07.25-.18.15-.27.42-.27.8,0,.21.04.37.11.48.08.12.2.2.37.26.17.06.4.08.68.08.08,0,.17,0,.26,0v8.4h-1.77c-.16,0-.32.02-.45.07-.14.05-.25.14-.33.27-.08.13-.12.33-.12.59,0,.25.04.43.12.56.08.13.19.22.33.28s.29.08.47.08h2.65c.32,0,.55-.11.71-.34.16-.23.24-.56.24-1v-8.98h1.89c.85,0,1.55.17,2.12.5.56.34.98.83,1.26,1.49s.42,1.49.42,2.49v5.03c0,.14.03.27.08.4.05.13.15.23.28.3s.32.1.57.1.43-.04.56-.12.22-.19.27-.34c.05-.14.07-.3.07-.48v-4.93c0-1.41-.22-2.58-.67-3.51-.45-.93-1.1-1.63-1.97-2.09Z" fill="#fff"/><path d="m43.58,15.86c-.75-.52-1.61-.78-2.6-.78h-3.12c-.16,0-.32.03-.46.08-.14.05-.26.15-.34.28-.08.13-.12.32-.12.56,0,.23.03.42.09.56.06.14.15.24.27.29.12.05.24.07.38.07h3.06c1.08,0,1.92.39,2.53,1.17.6.78.9,1.81.9,3.08,0,.88-.16,1.64-.47,2.29-.32.65-.76,1.15-1.33,1.51s-1.22.53-1.96.53c-.59,0-1.09-.07-1.51-.21s-.82-.34-1.2-.6c-.11-.07-.22-.13-.32-.19-.1-.05-.2-.08-.3-.08s-.2.04-.3.12c-.1.08-.21.2-.32.35-.05.11-.1.23-.14.35-.04.12-.06.24-.06.35,0,.12.07.26.22.42.14.16.33.3.54.44.42.25.93.45,1.51.62.58.16,1.22.25,1.92.25.77,0,1.48-.14,2.15-.42.66-.28,1.25-.69,1.75-1.22s.89-1.18,1.18-1.95c.29-.77.43-1.62.43-2.57,0-1.2-.21-2.26-.63-3.17-.42-.91-1-1.63-1.75-2.15Z" fill="#fff"/><path d="m55.25,16.67c-.48-.53-1.07-.92-1.78-1.19s-1.53-.4-2.47-.4h-2.44c-.18,0-.33.03-.47.08-.14.05-.25.14-.33.27-.08.12-.12.31-.12.57s.04.44.12.58c.08.14.19.23.33.28.14.05.3.07.49.07h2.49c.63,0,1.18.09,1.65.28.47.19.87.47,1.19.84.32.38.56.85.72,1.41s.24,1.21.24,1.95v5.03c0,.14.03.27.08.4.05.13.15.23.28.3s.32.1.56.1.43-.04.57-.12c.13-.08.22-.19.27-.34.05-.14.07-.3.07-.48v-4.93c0-1.04-.12-1.95-.36-2.73-.24-.78-.6-1.43-1.08-1.96Z" fill="#fff"/><path d="m68.56,15.2c-.14-.08-.34-.12-.6-.12s-.43.04-.55.11-.21.17-.26.29-.07.25-.07.4v4.95c0,.7-.09,1.31-.28,1.83-.19.52-.48.96-.88,1.3-.4.35-.92.63-1.55.85l-.36.1-2.7-8.97c-.05-.19-.12-.36-.21-.51-.08-.15-.2-.25-.36-.31s-.37-.04-.65.04c-.26.07-.44.16-.53.29-.1.12-.14.26-.12.4s.05.3.1.48l2.44,7.99c.11.31.26.56.44.75.08.08.16.14.23.21l-2.52.69c-.21.05-.38.12-.53.21-.15.08-.26.19-.32.33-.06.14-.07.33,0,.58.07.26.16.45.27.56.11.12.25.17.42.17s.35-.03.54-.08l3.88-1.11c.77-.25,1.43-.55,1.99-.92s1.03-.81,1.4-1.31c.37-.51.65-1.1.84-1.79.19-.68.29-1.47.29-2.34l.02-4.23c0-.18-.03-.34-.08-.48s-.15-.26-.29-.34Z" fill="#fff"/><path d="m80.69,15.6c-.65-.42-1.44-.63-2.37-.63-.56,0-1.05.08-1.47.23-.42.15-.79.36-1.12.64-.33.27-.61.6-.85.98-.24.38-.46.79-.65,1.25-.04.1-.07.21-.1.31l-.66-2.55c-.03-.12-.07-.26-.12-.4-.05-.14-.16-.25-.31-.32-.15-.07-.38-.07-.7,0-.26.07-.44.16-.54.28-.1.12-.15.25-.15.4s.03.32.08.51l1.09,4.09-1.2,5.94c-.05.3,0,.53.14.69s.4.24.76.24c.23,0,.41-.04.54-.13.13-.09.22-.21.28-.36.05-.15.1-.31.12-.49l1.11-5.44c.14-.59.3-1.13.5-1.61.2-.49.43-.91.71-1.26.27-.36.6-.63.97-.83.37-.2.78-.3,1.23-.3.62,0,1.14.14,1.57.41.43.27.76.7.99,1.27s.34,1.31.34,2.2v4.7h-4.05c-.18,0-.34.02-.48.07-.14.05-.26.14-.34.27-.08.13-.12.33-.12.59,0,.25.04.43.12.56.08.13.2.22.34.28.14.05.3.08.46.08h4.99c.26,0,.45-.02.58-.07s.21-.14.25-.27c.04-.13.06-.33.06-.59v-5.69c0-1.25-.17-2.29-.51-3.13-.34-.84-.84-1.47-1.49-1.89Z" fill="#fff"/><path d="m87.08,20.46c-.13-.08-.33-.12-.59-.12-.25,0-.43.04-.56.11s-.22.18-.27.32c-.05.14-.07.29-.07.47v5.07c0,.16.02.32.07.46.05.14.13.26.26.34.12.08.31.12.55.12.26,0,.46-.04.59-.12.13-.08.22-.19.27-.33.05-.14.07-.29.07-.45v-5.07c0-.18-.02-.33-.06-.47-.04-.14-.13-.25-.26-.33Z" fill="#fff"/><path d="m93.26,15.78c-.84-.47-1.89-.71-3.15-.71h-3.82c-.16,0-.32.03-.45.08s-.25.14-.33.27c-.08.12-.12.31-.12.57s.04.44.12.58c.08.14.19.23.33.28.14.05.29.07.47.07h3.86c.85,0,1.55.17,2.12.5s.98.83,1.26,1.49c.28.66.42,1.49.42,2.49v5.03c0,.14.03.27.08.4.05.13.15.23.28.3.13.07.32.1.56.1s.43-.04.57-.12c.13-.08.22-.19.27-.34.05-.14.07-.3.07-.48v-4.93c0-1.4-.21-2.56-.64-3.48-.42-.92-1.06-1.62-1.9-2.09Z" fill="#fff"/><path d="m107,15.6c-.65-.42-1.44-.63-2.37-.63-.56,0-1.05.08-1.47.23-.42.15-.79.36-1.12.64-.33.27-.61.6-.85.98-.24.38-.46.79-.65,1.25-.04.1-.07.21-.1.31l-.66-2.55c-.03-.12-.07-.26-.12-.4-.05-.14-.16-.25-.31-.32-.15-.07-.38-.07-.7,0-.26.07-.44.16-.54.28-.1.12-.15.25-.15.4s.03.32.08.51l1.09,4.09-1.2,5.94c-.05.3,0,.53.14.69s.4.24.76.24c.23,0,.41-.04.54-.13.13-.09.22-.21.28-.36.05-.15.1-.31.12-.49l1.11-5.44c.14-.59.3-1.13.5-1.61.2-.49.43-.91.71-1.26.27-.36.6-.63.97-.83.37-.2.78-.3,1.23-.3.62,0,1.14.14,1.57.41.43.27.76.7.99,1.27s.34,1.31.34,2.2v4.7h-4.05c-.18,0-.34.02-.48.07-.14.05-.26.14-.34.27-.08.13-.12.33-.12.59,0,.25.04.43.12.56.08.13.2.22.34.28.14.05.3.08.46.08h4.99c.26,0,.45-.02.58-.07s.21-.14.25-.27c.04-.13.06-.33.06-.59v-5.69c0-1.25-.17-2.29-.51-3.13-.34-.84-.84-1.47-1.49-1.89Z" fill="#fff"/><path d="m124.79,15.78c-.84-.47-1.89-.71-3.15-.71h-3.82c-.16,0-.32.03-.45.08s-.25.14-.33.27c-.08.12-.12.31-.12.57s.04.44.12.58c.08.14.19.23.33.28.14.05.29.07.47.07h3.86c.85,0,1.55.17,2.12.5s.98.83,1.26,1.49c.28.66.42,1.49.42,2.49v5.03c0,.14.03.27.08.4.05.13.15.23.28.3.13.07.32.1.56.1s.43-.04.57-.12c.13-.08.22-.19.27-.34.05-.14.07-.3.07-.48v-4.93c0-1.4-.21-2.56-.64-3.48-.42-.92-1.06-1.62-1.9-2.09Z" fill="#fff"/><path d="m118.6,20.46c-.13-.08-.33-.12-.59-.12-.25,0-.43.04-.56.11s-.22.18-.27.32c-.05.14-.07.29-.07.47v5.07c0,.16.02.32.07.46.05.14.13.26.26.34.12.08.31.12.55.12.26,0,.46-.04.59-.12.13-.08.22-.19.27-.33.05-.14.07-.29.07-.45v-5.07c0-.18-.02-.33-.06-.47-.04-.14-.13-.25-.26-.33Z" fill="#fff"/><path d="m140.28,25.86l-2.18-2.64s.07-.06.1-.09c.18-.16.32-.35.43-.54.11-.2.21-.44.29-.73l1.38-5.18c.07-.23.12-.44.14-.62s0-.33-.08-.46c-.08-.13-.25-.24-.51-.32-.3-.1-.53-.11-.69-.04-.16.07-.27.19-.35.35-.08.16-.15.36-.22.58l-1.49,5.84-5.02-6.09c-.16-.22-.32-.4-.46-.53-.14-.14-.29-.22-.45-.24s-.35.06-.59.24c-.25.19-.39.37-.42.53-.03.16,0,.33.1.5.1.17.24.36.4.56l.93,1.14-2.27,7.76c-.06.21-.09.4-.09.58,0,.19.04.34.13.46.1.12.27.22.53.29.29.05.5.06.65.01.14-.05.25-.15.33-.32.08-.16.15-.38.22-.66l1.77-6.59,6,7.29c.11.14.22.25.33.33.11.08.24.11.4.09.16-.02.35-.11.56-.28.19-.14.31-.28.37-.42.05-.14.06-.28,0-.41-.05-.13-.13-.26-.26-.4Z" fill="#fff"/><path d="m144.69,15.21c-.13-.09-.33-.13-.58-.13s-.43.04-.56.12c-.13.08-.22.19-.27.33-.05.14-.07.29-.07.45v4.52c0,.16.02.32.07.45s.13.25.26.34c.12.09.31.13.55.13.26,0,.46-.04.58-.12.13-.08.22-.19.27-.33.05-.14.07-.29.07-.45v-4.52c0-.18-.02-.33-.06-.46-.04-.13-.13-.24-.26-.33Z" fill="#fff"/><path d="m156.88,15.34c-.22-.12-.41-.19-.57-.19s-.29.03-.39.1c-.1.08-.2.18-.28.32l-2.28,5.1-3.57-5.06c-.11-.15-.23-.27-.35-.36-.12-.09-.26-.13-.41-.12-.15,0-.34.09-.55.26-.23.19-.37.38-.42.57-.05.19,0,.4.17.64l6.18,8.5.21.29h-6c-.16,0-.32.02-.46.07-.14.05-.26.14-.34.27-.08.13-.12.33-.12.59,0,.25.04.43.12.56.08.13.2.22.34.28s.3.08.48.08h7.39c.17-.03.31-.08.42-.2.13-.13.23-.29.3-.47.07-.19.1-.38.08-.59-.01-.21-.06-.38-.14-.53-.07-.12-.17-.28-.31-.48-.14-.2-.28-.41-.43-.63l-1.57-2.22,2.74-5.5c.1-.16.16-.32.2-.47.03-.15.02-.29-.04-.42-.06-.13-.2-.26-.4-.38Z" fill="#fff"/><path d="m162.07,15.54c-.04-.13-.13-.24-.26-.33-.13-.09-.33-.13-.58-.13s-.43.04-.56.12c-.13.08-.22.19-.27.33-.05.14-.07.29-.07.45v4.52c0,.16.02.32.07.45s.13.25.26.34c.12.09.31.13.55.13.26,0,.46-.04.58-.12.13-.08.22-.19.27-.33.05-.14.07-.29.07-.45v-4.52c0-.18-.02-.33-.06-.46Z" fill="#fff"/><path d="m173.79,8.05c-2.91-2.48-6.8-4.05-11.49-4.53-7.52-.78-15.42-.96-23.26-1-2.4-.01-4.8-.01-7.18-.01h0c-.14,0-.32,0-.51,0-.05,0-.09,0-.14,0-.19,0-.39,0-.62,0-.04,0-.07,0-.1,0-.25,0-.53,0-.83,0-.11,0-.23,0-.35,0-.26,0-.53,0-.82-.01-.03,0-.06,0-.1,0-.75,0-1.58-.02-2.48-.03-.16,0-.31,0-.47,0-.22,0-.45,0-.67,0-.49,0-.99-.01-1.5-.02-.21,0-.43,0-.65,0-.03,0-.06,0-.09,0-1.84,0-3.68,0-5.51,0-1.4,0-5.05-.09-9.78-.21,0,0,0,0,0,0-.43,0-.86-.01-1.28-.02-.08,0-.16,0-.23,0-.34,0-.67,0-1-.01-.12,0-.24,0-.36,0-.28,0-.55,0-.81,0-.16,0-.32,0-.48,0-.21,0-.41,0-.61,0-.18,0-.36,0-.54,0-.21,0-.42,0-.62,0-.14,0-.27,0-.41,0-.21,0-.41,0-.61,0-.13,0-.26,0-.39,0-.21,0-.4,0-.6,0-.1,0-.21,0-.3,0-.28,0-.56,0-.81,0-6.12,0-41.86-.12-47.94-.12h0c-1.58,0-3.17,0-4.77,0-.41,0-.81,0-1.22,0-1.72,0-3.44.02-5.17.04h0c-2.15.06-4.3.11-6.45.15-.93.03-1.86.07-2.79.11-.29.01-.58.03-.88.04-.76.04-1.53.08-2.29.12-.56.03-1.13.07-1.69.11-.56.04-1.12.07-1.68.12-1.17.09-2.34.19-3.5.31-.57.06-1.12.13-1.66.22-.19.03-.37.07-.56.11-.35.06-.69.13-1.03.2-.23.05-.44.11-.66.17-.28.07-.57.15-.84.23-.24.07-.47.15-.7.23-.24.08-.49.17-.72.26-.25.09-.48.19-.72.3-.21.09-.41.18-.62.27-.25.12-.49.24-.73.36-.18.09-.35.19-.52.28-.25.14-.5.29-.75.44-.14.09-.27.18-.41.27-.26.17-.52.35-.76.54-.1.07-.19.15-.29.23-.27.22-.54.43-.8.66-.04.03-.07.07-.11.1-2.24,2.05-3.85,4.67-4.75,7.8,0,0,0,0,0,0C13.09,6.7,61.29.59,173.79,8.05Z" fill="#fff" opacity=".06"/><path d="m16.82,7.85c-.17.63-1.4.26-3.53.96-3.28,1.07-2.95,2.7-3.92,2.17-.59-.33.78-2.14,2.84-3,2.06-.86,4.77-.74,4.61-.12Z" fill="#fff"/><ellipse cx="8.47" cy="12.29" rx=".62" ry=".68" transform="translate(-4.03 20.45) rotate(-88.56)" fill="#fff"/></g></svg>