<?xml version="1.0" encoding="UTF-8"?><svg id="Layer_2" xmlns="http://www.w3.org/2000/svg" width="39.71" height="39.51" xmlns:xlink="http://www.w3.org/1999/xlink" viewBox="0 0 39.71 39.51"><defs><linearGradient id="linear-gradient" x1="18.82" y1="-10.32" x2="20.86" y2="48.86" gradientUnits="userSpaceOnUse"><stop offset=".12" stop-color="#4c6596"/><stop offset=".44" stop-color="#3d4e88"/><stop offset=".61" stop-color="#35417b"/><stop offset=".91" stop-color="#2a3069"/></linearGradient></defs><g id="_אייקונים"><path d="m13.43,33.64s.1-.62.69-.92" fill="none" stroke="#fff" stroke-linecap="round" stroke-miterlimit="10" stroke-width=".3"/><path d="m21.1,37.34c-.41.01-.83.03-1.24.03.41,0,.83-.01,1.24-.03Z" fill="#14c197"/><path d="m19.86,37.37h0c-.41,0-.83-.02-1.24-.03.41.02.83.03,1.24.03Z" fill="#14c197"/><path d="m19.86,39.51c-.31,0-.62-.01-.94-.02h-.37c-2.84-.14-5.69-.67-8.49-1.59-3.69-1.21-6.65-3.96-8.12-7.54-.11-.28-.22-.56-.32-.85-1.08-3.24-1.62-6.52-1.62-9.75s.51-6.29,1.52-9.42C2.86,6.14,6.18,2.84,10.39,1.51c3.14-1,6.33-1.51,9.47-1.51s6.55.54,9.8,1.61c3.97,1.31,7.12,4.44,8.44,8.39,1.08,3.24,1.62,6.52,1.62,9.75s-.55,6.51-1.62,9.75c-.1.31-.22.61-.35.91-1.48,3.55-4.43,6.28-8.09,7.48-2.8.92-5.64,1.45-8.45,1.58h-.41c-.31.02-.62.03-.93.03Z" fill="#0b1a42"/><path d="m19.86,38.44c-.3,0-.6,0-.9-.02h-.37c-2.73-.14-5.48-.65-8.19-1.54-3.39-1.11-6.11-3.64-7.46-6.93-.11-.26-.2-.51-.29-.78-1.04-3.13-1.57-6.29-1.57-9.41s.49-6.07,1.47-9.1C3.78,6.8,6.83,3.76,10.71,2.53c3.04-.97,6.11-1.46,9.14-1.46s6.32.52,9.46,1.56c3.65,1.2,6.55,4.08,7.76,7.71,1.04,3.13,1.57,6.29,1.57,9.41s-.53,6.28-1.57,9.41c-.09.28-.2.56-.32.84-1.36,3.26-4.07,5.77-7.44,6.88-2.71.89-5.46,1.41-8.17,1.53h-.39c-.3.02-.6.03-.9.03Z" fill="#6d7eb2"/><path d="m36.06,10.68c-1.11-3.32-3.74-5.94-7.08-7.04-3.04-1-6.1-1.51-9.13-1.51s-5.88.47-8.82,1.41c-3.57,1.14-6.34,3.89-7.48,7.44-.94,2.92-1.41,5.86-1.41,8.77,0,3.01.51,6.05,1.51,9.07.08.24.17.48.27.71,1.23,2.98,3.71,5.31,6.81,6.32,2.63.86,5.26,1.36,7.88,1.48.41.01.83.03,1.24.03h0c.41,0,.83-.02,1.24-.03,2.62-.12,5.26-.61,7.88-1.48,3.08-1.01,5.55-3.32,6.79-6.27.1-.25.2-.5.29-.76,1.01-3.02,1.51-6.06,1.51-9.07s-.51-6.05-1.51-9.07Z" fill="url(#linear-gradient)"/><path d="m11.82,5.9c0,.73-1.3.64-3.21,1.93-2.93,2-2.16,3.67-3.26,3.34-.67-.2.18-2.51,1.97-3.96,1.79-1.46,4.49-2.01,4.5-1.31Z" fill="#fff"/><circle cx="4.82" cy="12.82" r=".69" fill="#fff"/><path d="m28.98,3.65c-3.04-1-6.1-1.51-9.13-1.51s-5.88.47-8.82,1.41c-3.57,1.14-6.34,3.89-7.48,7.44-.27.85-.5,1.71-.7,2.56,3.09-2.7,15.9-12.56,31.64-5.89-1.36-1.85-3.27-3.27-5.51-4.01Z" fill="#fff" opacity=".07"/><path d="m37.57,19.75s0,.1,0,.15c0-.1,0-.15,0-.15Z" fill="none"/><path d="m3.92,29.54c1.23,2.98,3.71,5.31,6.81,6.32,2.63.86,5.26,1.36,7.88,1.48.41.01.83.03,1.24.03h0c.41,0,.83-.02,1.24-.03,2.62-.12,5.26-.61,7.88-1.48,3.08-1.01,5.55-3.32,6.79-6.27.1-.25.2-.5.29-.76.99-2.97,1.49-5.96,1.51-8.92-.05,1.45-.95,13.07-16.47,14.73C4.54,36.42,2.14,19.75,2.14,19.75c0,3.01.51,6.05,1.51,9.07.08.24.17.48.27.71Z" fill="#0b1a42" opacity=".67"/><path d="m30.51,11.83s0,0-.01,0c-.88-.18-1.77-.35-2.65-.53-1.07-.21-2.13-.43-3.2-.64-.38-.08-.78-.13-1.14-.02-.79.24-1.56.56-2.33.84-.36.12-.72.23-1.07.36-.78.28-1.56.58-2.35.86-.6.21-1.18.46-1.79.62-.27.07-.51-.03-.76-.08-.92-.17-1.83-.36-2.74-.55-.91-.18-1.83-.37-2.74-.55-.54-.11-.83-.02-.99.39-.04.1-.04.17-.04.22,0,1.19,0,2.29.01,3.47v.75c0,.49,0,.99,0,1.48,0,.07,0,.13,0,.2,0,2.6,0,5.21,0,7.81,0,.61.27.69.61.76.9.19,1.8.35,2.69.53.99.2,1.98.4,2.96.6.46.09.92.17,1.38,0,.37-.14.75-.26,1.11-.41.31-.13.65-.19.94-.37.38-.07.73-.24,1.08-.37,1.28-.46,2.55-.92,3.82-1.39.45-.17.88-.13,1.32,0,.09.02.17.04.27.06.52.1,1.04.21,1.56.31,1.15.23,2.3.46,3.45.69.38.08.69.04,1-.25.04-.04.07-.06.13-.16,0,0,.02-.04.02-.07v-13.86c0-.33-.21-.62-.52-.71Zm-20.35,4.75h0c0,.11.03.19.09.25-.06-.06-.09-.14-.09-.25Z" fill="#cbe9f4" opacity=".63"/><path d="m30.51,13.18s0,0-.01,0c-.88-.18-1.77-.36-2.65-.54-1.07-.22-2.13-.44-3.2-.66-.38-.08-.78-.13-1.14-.02-.79.24-1.56.57-2.33.86-.36.12-.72.24-1.07.37-.78.29-1.56.6-2.35.88-.6.22-1.18.47-1.79.64-.27.07-.51-.03-.76-.08-.92-.17-1.83-.37-2.74-.56-.91-.19-1.83-.38-2.74-.57-.54-.11-.83-.03-.99.4-.04.1-.04.18-.04.23,0,1.21,0,2.34.01,3.56v.77c0,.5,0,1.01,0,1.51,0,.07,0,.13,0,.2,0,2.67,0,5.33,0,8,0,.62.27.71.61.78.9.19,1.8.36,2.69.55.99.2,1.98.41,2.96.61.46.09.92.18,1.38,0,.37-.14.75-.26,1.11-.42.31-.13.65-.19.94-.38.38-.07.73-.25,1.08-.38,1.28-.47,2.55-.94,3.82-1.42.45-.17.88-.13,1.32,0,.09.03.17.04.27.06.52.11,1.04.21,1.56.32,1.15.24,2.3.47,3.45.71.38.08.69.04,1-.25.04-.04.07-.06.13-.16,0,0,.02-.04.02-.07v-14.19c0-.33-.21-.63-.52-.73Zm-20.35,4.86h0c0,.11.03.2.09.26-.06-.06-.09-.15-.09-.26Z" fill="#0b1a42"/><path d="m31.04,22.94v3.19c-.18-.3-.34-.61-.6-.85-.57-.52-1.43-.76-2.18-.26-.36.24-.75.41-1.21.36-.24-.03-.46-.1-.69-.16-.51-.13-.9,0-1.21.43-.19.27-.3.57-.27.9-.1-.02-.18-.03-.27-.06-.44-.12-.88-.16-1.32,0-1.27.47-2.55.93-3.82,1.39-.36.13-.7.3-1.08.37-.03-.06.05-.1.02-.16-.15-.39-.35-.76-.7-.99-.54-.35-1.14-.45-1.78-.39-.31.03-.61.03-.91.01-.43-.03-.61-.34-.61-.67,0-.28.07-.56.09-.83.04-.58-.08-1.14-.36-1.64-.49-.89-1.24-1.42-2.3-1.2-.74.16-1.17-.25-1.4-.77-.22-.5-.27-1.05-.5-1.55-.21-.45-.7-.93-1.23-.93,0-.49,0-.99,0-1.48.16.02.31-.06.45-.11.19-.07.27-.21.23-.4-.04-.19-.17-.29-.37-.28-.11,0-.21.03-.31.05,0-1.19,0-2.29-.01-3.47,0-.05,0-.12.04-.22.16-.42.45-.5.99-.39.91.19,1.83.37,2.74.55.91.18,1.83.38,2.74.55.25.05.49.15.76.08.61-.16,1.2-.41,1.79-.62.79-.28,1.56-.58,2.35-.86.35-.13.71-.24,1.07-.36-.02.05-.03.11-.05.16-.11.24-.18.5-.15.75.08.81.51,1.42,1.24,1.78.51.25,1.05.46,1.57.7.49.22.98.45,1.43.75,1.05.69,1.33,1.38,1.08,2.57-.07.36-.13.74-.1,1.12.02.33.15.59.46.74.24.12.5.17.76.2.45.06.87.18,1.21.49.3.27.55.59.79.91.52.7.9.85,1.62.61Zm-14.61-7.29c-.13-.02-.32.03-.5.04-.69.07-1.25.34-1.6.96-.38.67-.26,1.26.28,1.69.52.41,1.14.41,1.75.34.34-.04.68-.17,1.02-.26.29-.07.41-.04.57.21.19.3.46.48.79.58.34.09,1.01-.16,1.05-.7.04-.52-.11-.97-.4-1.37-.71-.98-1.69-1.47-2.96-1.49Zm2.12,7.37c.19.02.37,0,.55-.08.34-.14.64-.32.65-.74,0-.29-.09-.56-.27-.8-.36-.49-1.18-.53-1.5.03-.07.12-.13.26-.2.38-.3.5-.07,1.07.49,1.2.09.02.19,0,.28,0Zm3.7-1.34c.13.02.22-.04.27-.18.1-.25.07-.51.13-.76.04-.18.01-.33-.13-.45-.12-.1-.26-.07-.39-.03-.18.06-.2.22-.21.38-.02.18-.02.36-.06.53-.06.28.09.5.39.5Zm-.31.78c-.18-.02-.29.06-.34.24-.06.22-.14.44-.2.67-.06.24.04.42.26.49.18.06.34-.03.44-.26.1-.24.16-.49.22-.74.05-.19-.14-.47-.38-.41Zm-4.85,2.08c.08-.08.01-.18-.02-.21-.24-.25-.47-.52-.8-.67-.15-.07-.28.02-.37.14-.08.11-.09.27-.01.36.19.25.39.49.66.66.23.14.53-.02.54-.28Zm2.87.53c0,.27.17.46.37.4.33-.09.65-.23.89-.49.09-.09.18-.25.12-.34-.1-.13-.22-.3-.46-.22-.3.1-.55.28-.82.42-.09.05-.11.15-.09.23Zm-7.95-6.56c-.02.08.03.15.08.21.17.19.35.39.53.57.16.16.33.16.49.01.15-.13.16-.35.02-.51-.16-.19-.33-.36-.47-.56-.13-.19-.3-.12-.44-.07-.13.05-.22.18-.21.35Zm6.69,7.19c.27,0,.46-.13.48-.32.03-.23-.06-.37-.33-.41-.24-.03-.48-.07-.72-.1-.18-.02-.33.05-.39.23-.06.21.05.39.27.47.24.09.49.07.69.13Zm-8.52-8.43c-.02.22.14.32.31.39.18.07.36.13.53.21.2.09.41.04.5-.12.12-.2.05-.4-.16-.53-.23-.13-.48-.22-.73-.3-.27-.08-.46.07-.46.35Zm11.97,1.67c0,.31.14.5.34.51.17,0,.32-.15.37-.39.04-.21.09-.42.13-.63.03-.17-.08-.38-.22-.43-.21-.06-.39.01-.47.2-.1.25-.1.53-.14.73Zm-6.88,4.23c.3,0,.47-.26.34-.52-.12-.23-.26-.46-.4-.68-.1-.15-.38-.19-.53-.08-.14.1-.17.31-.07.48.11.19.22.38.34.57.08.12.16.25.33.23Zm8.01-7.3c-.16-.03-.25.07-.32.21-.1.21-.2.42-.28.63-.1.25-.01.46.21.55.16.06.36-.05.45-.26.1-.22.19-.43.27-.65.08-.23-.06-.46-.33-.47Zm-8.77,5c.02-.09-.02-.17-.06-.24-.12-.2-.24-.4-.39-.58-.14-.17-.33-.22-.49-.11-.15.1-.22.33-.11.49.15.23.28.48.46.69.09.1.19.17.34.1.15-.07.28-.15.26-.35Z" fill="#fff"/><path d="m21.17,12.16c.78-.28,1.54-.6,2.33-.84.36-.11.76-.06,1.14.02,1.07.22,2.13.43,3.2.64.88.18,1.77.35,2.65.53,0,0,0,0,.01,0,.31.1.52.39.52.71v9.71c-.72.24-1.1.08-1.62-.61-.24-.32-.49-.64-.79-.91-.34-.31-.76-.43-1.21-.49-.26-.03-.52-.08-.76-.2-.32-.15-.44-.41-.46-.74-.03-.38.03-.75.1-1.12.24-1.19-.04-1.88-1.08-2.57-.45-.3-.94-.52-1.43-.75-.52-.24-1.06-.44-1.57-.7-.73-.36-1.16-.97-1.24-1.78-.02-.25.05-.51.15-.75.02-.05.04-.11.05-.16Z" fill="#dcdcdc"/><path d="m31.02,27.16c-.06.1-.1.12-.13.16-.31.29-.62.32-1,.25-1.15-.24-2.3-.46-3.45-.69-.52-.1-1.04-.21-1.56-.31-.03-.34.08-.63.27-.9.3-.42.69-.55,1.21-.43.23.06.45.13.69.16.46.05.85-.12,1.21-.36.75-.5,1.61-.27,2.18.26.27.25.42.55.6.85v.96s-.01.06-.02.07Z" fill="#dcdcdc"/><path d="m18.38,28.26c-.29.19-.63.25-.94.37-.37.15-.74.27-1.11.41-.46.17-.92.09-1.38,0-.99-.2-1.98-.4-2.96-.6-.9-.18-1.8-.35-2.69-.53-.34-.07-.61-.15-.61-.76,0-2.6,0-5.21,0-7.81,0-.07,0-.13,0-.2.53,0,1.03.48,1.23.93.23.5.28,1.05.5,1.55.23.52.67.93,1.4.77,1.06-.22,1.8.3,2.3,1.2.28.5.4,1.06.36,1.64-.02.28-.09.55-.09.83,0,.33.17.64.61.67.3.02.61.02.91-.01.63-.06,1.24.04,1.78.39.35.23.55.6.7.99.03.06-.05.11-.02.16Z" fill="#dcdcdc"/><path d="m16.43,15.65c1.27.02,2.25.51,2.96,1.49.29.4.44.85.4,1.37-.05.54-.71.8-1.05.7-.34-.09-.6-.28-.79-.58-.16-.24-.28-.28-.57-.21-.34.09-.67.21-1.02.26-.61.07-1.23.08-1.75-.34-.55-.43-.66-1.02-.28-1.69.35-.62.91-.9,1.6-.96.19-.02.37-.06.5-.04Z" fill="#dcdcdc"/><path d="m18.55,23.02c-.09,0-.19.02-.28,0-.56-.13-.79-.7-.49-1.2.07-.12.13-.25.2-.38.31-.56,1.14-.52,1.5-.03.17.24.27.5.27.8,0,.43-.31.6-.65.74-.18.07-.36.1-.55.08Z" fill="#dcdcdc"/><path d="m22.24,21.68c-.3,0-.45-.21-.39-.5.04-.17.04-.35.06-.53.02-.16.03-.32.21-.38.13-.05.27-.07.39.03.15.12.18.27.13.45-.06.25-.03.51-.13.76-.06.15-.14.2-.27.18Z" fill="#babbbb"/><path d="m21.93,22.46c.24-.06.42.22.38.41-.06.25-.11.5-.22.74-.1.23-.26.32-.44.26-.21-.07-.32-.25-.26-.49.06-.22.14-.44.2-.67.05-.18.15-.27.34-.24Z" fill="#babbbb"/><path d="m17.07,24.54c0,.26-.31.41-.54.28-.28-.16-.47-.41-.66-.66-.07-.1-.07-.25.01-.36.09-.12.22-.21.37-.14.32.15.56.42.8.67.03.03.1.14.02.21Z" fill="#babbbb"/><path d="m19.95,25.07c-.02-.09,0-.18.09-.23.28-.14.53-.32.82-.42.24-.08.36.1.46.22.07.08-.03.25-.12.34-.24.26-.56.4-.89.49-.2.06-.37-.13-.37-.4Z" fill="#babbbb"/><path d="m12,18.51c-.02-.18.08-.31.21-.35.14-.05.3-.12.44.07.14.2.32.37.47.56.14.16.13.38-.02.51-.16.15-.33.15-.49-.01-.18-.18-.36-.38-.53-.57-.05-.06-.09-.13-.08-.21Z" fill="#babbbb"/><path d="m18.69,25.7c-.2-.06-.46-.04-.69-.13-.21-.08-.33-.26-.27-.47.05-.19.21-.25.39-.23.24.03.48.07.72.1.27.04.36.18.33.41-.02.19-.2.32-.48.32Z" fill="#babbbb"/><path d="m10.16,17.27c0-.27.19-.42.46-.35.25.08.5.16.73.3.21.13.27.33.16.53-.09.16-.31.21-.5.12-.17-.08-.35-.14-.53-.21-.17-.06-.32-.16-.31-.39Z" fill="#babbbb"/><path d="m22.13,18.94c.04-.2.04-.47.14-.73.07-.19.26-.26.47-.2.14.04.26.26.22.43-.04.21-.08.42-.13.63-.05.24-.2.4-.37.39-.19-.01-.34-.2-.34-.51Z" fill="#babbbb"/><path d="m15.25,23.17c-.17.02-.25-.1-.33-.23-.12-.19-.23-.38-.34-.57-.1-.17-.07-.39.07-.48.16-.11.43-.08.53.08.14.22.28.44.4.68.13.27-.03.52-.34.52Z" fill="#babbbb"/><path d="m23.26,15.87c.27,0,.41.24.33.47-.08.22-.17.44-.27.65-.09.21-.29.32-.45.26-.23-.09-.31-.3-.21-.55.09-.21.18-.42.28-.63.07-.14.16-.24.32-.21Z" fill="#babbbb"/><path d="m14.49,20.87c.02.2-.1.28-.26.35-.15.07-.25,0-.34-.1-.19-.21-.31-.46-.46-.69-.11-.16-.04-.39.11-.49.16-.1.35-.06.49.11.15.18.27.38.39.58.05.07.08.15.06.24Z" fill="#babbbb"/><path d="m8.7,17.67c0-.25,0-.5,0-.75.1-.02.21-.04.31-.05.2,0,.33.09.37.28.04.19-.04.34-.23.4-.15.05-.29.12-.45.11Z" fill="#babbbb"/><path d="m24.91,14.28c.22.16.2.43,0,.57-.19.14-.39.26-.59.39-.2.12-.42.1-.52-.04-.13-.2-.09-.42.14-.57.19-.13.39-.24.59-.36.13-.08.27-.1.38.01Z" fill="#babbbb"/><path d="m26.99,14.2c.09.26-.08.47-.33.47-.24,0-.47,0-.71-.02-.23-.01-.4-.16-.4-.33,0-.24.17-.4.44-.39.23,0,.46.03.69.05.15.01.28.07.3.23Z" fill="#babbbb"/><rect x="28.03" y="13.43" width=".62" height="2.56" rx=".3" ry=".3" transform="translate(37.97 45.14) rotate(-135)" fill="#babbbb"/><rect x="28.07" y="13.43" width=".62" height="2.56" rx=".3" ry=".3" transform="translate(-2.09 24.37) rotate(-45)" fill="#babbbb"/></g></svg>