<?xml version="1.0" encoding="UTF-8"?><svg id="Layer_2" xmlns="http://www.w3.org/2000/svg" width="39.71" height="39.51" viewBox="0 0 39.71 39.51"><g id="_אייקונים"><g opacity="0"><path d="m13.43,33.64s.1-.62.69-.92" fill="none" stroke="#fff" stroke-linecap="round" stroke-miterlimit="10" stroke-width=".3"/><path d="m21.1,37.34c-.41.01-.83.03-1.24.03.41,0,.83-.01,1.24-.03Z" fill="#14c096"/><path d="m19.86,37.37h0c-.41,0-.83-.02-1.24-.03.41.02.83.03,1.24.03Z" fill="#14c096"/><path d="m19.86,39.51c-.31,0-.62-.01-.94-.02h-.37c-2.84-.14-5.69-.67-8.49-1.59-3.69-1.21-6.65-3.96-8.12-7.54-.11-.28-.22-.56-.32-.85-1.08-3.24-1.62-6.52-1.62-9.75s.51-6.29,1.52-9.42C2.86,6.14,6.18,2.84,10.39,1.51c3.14-1,6.33-1.51,9.47-1.51s6.55.54,9.8,1.61c3.97,1.31,7.12,4.44,8.44,8.39,1.08,3.24,1.62,6.52,1.62,9.75s-.55,6.51-1.62,9.75c-.1.31-.22.61-.35.91-1.48,3.55-4.43,6.28-8.09,7.48-2.8.92-5.64,1.45-8.45,1.58h-.41c-.31.02-.62.03-.93.03Z" fill="#0b1a42"/><path d="m37.57,19.75s0,.1,0,.15c0-.1,0-.15,0-.15Z" fill="none"/></g></g></svg>