<?xml version="1.0" encoding="UTF-8"?><svg id="Layer_2" xmlns="http://www.w3.org/2000/svg" width="167.58" height="52.11" xmlns:xlink="http://www.w3.org/1999/xlink" viewBox="0 0 167.58 52.11"><defs><linearGradient id="linear-gradient" x1="83.53" y1="-5.87" x2="84.01" y2="51.15" gradientUnits="userSpaceOnUse"><stop offset=".12" stop-color="#4c6596"/><stop offset=".44" stop-color="#3d4e88"/><stop offset=".61" stop-color="#35417b"/><stop offset=".91" stop-color="#2a3069"/></linearGradient><linearGradient id="linear-gradient-2" x1="81.77" y1="-5.97" x2="82.26" y2="51.17" xlink:href="#linear-gradient"/><linearGradient id="linear-gradient-3" x1="83.53" y1="-5.87" x2="84.01" y2="51.16" xlink:href="#linear-gradient"/><linearGradient id="linear-gradient-4" x1="81.77" y1="-5.97" x2="82.26" y2="51.17" xlink:href="#linear-gradient"/></defs><g id="_כפתורים"><path d="m104.82,52.11c-10.27,0-65.95-.47-80.35-1.74-7.73-.68-13.14-2.65-17.02-6.22-3.45-3.17-5.73-7.45-6.95-13.08l-.07-.3-.04-.2c-.54-3.77-.54-5.83,0-9.57C2.45,9.65,11.21,2.44,24.45,1.21c12.93-1.21,25.83-1.21,38.31-1.21,5.8,0,18.22.17,28.2.31h.1c6.48.09,12.08.17,13.77.17,12.73,0,25.9,0,38.32,1.21,13.24,1.29,21.99,8.46,24.02,19.68.56,3.9.56,5.87.02,9.66l-.03.18c-.81,3.89-2.09,7.09-3.91,9.8-.28.41-.56.81-.86,1.18-3.81,4.89-10.09,7.73-19.22,8.67-12.32,1.27-25.55,1.27-38.35,1.27Z" fill="#03072d"/><path d="m104.82,50.21c-10.26,0-65.86-.47-80.21-1.73-7.37-.65-12.5-2.5-16.12-5.82-3.23-2.97-5.37-7.01-6.53-12.35l-.07-.3-.02-.1c-.52-3.63-.52-5.6,0-9.19C3.8,10.04,12.08,3.28,24.6,2.11c12.86-1.2,25.72-1.2,38.16-1.2,5.78,0,18.2.17,28.18.31,6.54.09,12.18.17,13.88.17,12.69,0,25.82,0,38.17,1.2,12.52,1.22,20.79,7.97,22.7,18.51.53,3.71.53,5.6.01,9.23l-.02.09c-.78,3.73-1.98,6.76-3.71,9.31-.26.39-.53.76-.8,1.11-3.55,4.56-9.49,7.21-18.17,8.1-12.24,1.26-25.43,1.26-38.18,1.26Z" fill="#6d7eb2"/><path d="m164.21,21.34c-1.78-9.88-9.57-16.2-21.38-17.35-12.27-1.19-25.36-1.19-38.01-1.19-4.29,0-32.44-.47-42.06-.47-12.4,0-25.22,0-38.01,1.19C12.95,4.61,5.16,10.94,3.36,20.89c-.5,3.49-.5,5.29,0,8.78v.05c.03.1.05.2.07.29,1.1,5.05,3.1,8.86,6.11,11.63,3.36,3.09,8.19,4.81,15.21,5.43,14.23,1.25,70.44,1.72,80.07,1.72,12.71,0,25.86,0,38.02-1.25,8.24-.85,13.84-3.31,17.13-7.54.26-.33.51-.68.74-1.03,1.62-2.4,2.76-5.29,3.49-8.79v-.05c.51-3.49.51-5.29,0-8.81Z" fill="url(#linear-gradient)"/><path d="m97.93,44.68c-54.66.08-82.36-1.02-94.5-14.66,1.51,5.05,4.26,8.86,8.4,11.63,4.62,3.09,11.27,4.81,20.93,5.43,5.16.33,10.04.65,14.75.95,21.9.55,50.67.77,57.3.77,12.71,0,25.86,0,38.02-1.25,8.24-.85,13.84-3.31,17.13-7.54.26-.33.51-.68.74-1.03.03-.04.05-.08.08-.12-23.45,7-39.95,5.78-62.86,5.81Z" fill="url(#linear-gradient-2)"/><path d="m164.21,21.34c-1.78-9.88-9.57-16.2-21.38-17.35-12.27-1.19-25.36-1.19-38.01-1.19-4.29,0-32.44-.47-42.06-.47-12.4,0-25.22,0-38.01,1.19C12.95,4.61,5.16,10.94,3.36,20.89c-.5,3.49-.5,5.29,0,8.78v.05c.03.1.05.2.07.29,12.14,13.64,39.84,14.73,94.5,14.66,22.91-.03,39.41,1.19,62.86-5.81,1.58-2.37,2.7-5.22,3.42-8.67v-.05c.51-3.49.51-5.29,0-8.81Z" fill="url(#linear-gradient-3)"/><path d="m160.79,38.87h0s-.05.08-.08.12c.03-.04.05-.08.08-.12Z" fill="#0b1a42" opacity=".37"/><path d="m97.93,44.68c-54.66.08-82.36-1.02-94.5-14.66,1.1,5.05,3.1,8.86,6.11,11.63,3.36,3.09,8.19,4.81,15.21,5.43,14.23,1.25,70.44,1.72,80.07,1.72,12.71,0,25.86,0,38.02-1.25,8.24-.85,13.84-3.31,17.13-7.54.26-.33.51-.68.74-1.03.03-.04.05-.08.08-.12-23.45,7-39.95,5.78-62.86,5.81Z" fill="url(#linear-gradient-4)"/><path d="m97.93,44.68c-54.66.08-82.36-1.02-94.5-14.66,1.1,5.05,3.1,8.86,6.11,11.63,3.36,3.09,8.19,4.81,15.21,5.43,14.23,1.25,70.44,1.72,80.07,1.72,12.71,0,25.86,0,38.02-1.25,8.24-.85,13.84-3.31,17.13-7.54.26-.33.51-.68.74-1.03.03-.04.05-.08.08-.12-23.45,7-39.95,5.78-62.86,5.81Z" fill="#0b1a42" opacity=".37"/><path d="m21.32,8.01c-.2.74-1.63.3-4.11,1.12-3.82,1.26-3.45,3.16-4.57,2.54-.69-.38.92-2.51,3.31-3.52s5.57-.86,5.37-.15Z" fill="#fff"/><ellipse cx="11.58" cy="13.21" rx=".72" ry=".79" transform="translate(-1.93 24.44) rotate(-88.5)" fill="#fff"/><path d="m157.92,9.71c-3.7-3.13-8.74-5.11-14.86-5.7-12.32-1.19-25.46-1.19-38.17-1.19-4.31,0-32.58-.47-42.24-.47-12.45,0-25.33,0-38.17,1.19C12.82,4.61,5.07,10.76,3.1,20.44,7.91,8.76,50.02-.01,157.92,9.71Z" fill="#fff" opacity=".07"/><g opacity=".63"><path d="m44.36,29.19h4.49c.21,0,.39.03.55.08.16.06.29.16.38.31.1.15.14.38.14.68,0,.29-.05.5-.14.66-.1.15-.22.25-.38.31-.16.06-.35.08-.57.08h-4.47m2.54,0c-.29,0-.5-.04-.66-.12-.15-.08-.26-.19-.32-.33-.06-.14-.1-.29-.1-.45v-5.86c0-.86-.09-1.61-.27-2.26-.18-.65-.46-1.2-.82-1.63-.37-.44-.82-.76-1.37-.98-.55-.21-1.2-.32-1.94-.32h-2.65c-.21,0-.39-.03-.56-.08-.17-.06-.3-.16-.39-.32-.1-.16-.14-.38-.14-.67,0-.3.05-.52.14-.67.1-.14.22-.25.38-.31.16-.06.34-.1.55-.1h2.6c1.1,0,2.06.15,2.88.46.83.31,1.51.77,2.06,1.38.55.61.96,1.37,1.24,2.28s.42,1.96.42,3.17v5.74c0,.21-.02.39-.07.55-.05.16-.15.29-.31.38-.16.1-.38.14-.67.14Z" fill="#cbe9f4"/><path d="m54.04,31.31c-.29,0-.5-.05-.64-.14-.14-.1-.24-.23-.3-.39s-.08-.35-.08-.54v-11.99c0-.19.03-.37.08-.52.06-.16.16-.29.31-.38.15-.1.37-.14.66-.14.3,0,.53.05.68.15.15.1.25.23.3.38.05.15.07.33.07.54v11.99c0,.19-.03.37-.08.52-.06.16-.16.29-.31.38-.15.1-.38.14-.68.14Z" fill="#cbe9f4"/><path d="m65.62,31.41c-1.14,0-2.16-.19-3.05-.57-.89-.38-1.64-.91-2.25-1.58-.61-.68-1.07-1.47-1.38-2.37s-.46-1.9-.46-2.98v-5.62c0-.19.03-.37.08-.54.06-.17.16-.3.32-.39.16-.1.38-.14.67-.14s.5.05.66.14c.15.1.26.23.32.39.06.17.1.35.1.56v5.6c0,1.1-.54,3.24-.14,4.05.4.81,1.72.25,2.48.69.76.45.5,2.2,1.56,2.2,1.13,0,3.43-1.35,4.02-2.22.5-.74,1.34-1.1,1.73-1.92s.58-1.76.58-2.82v-5.74c0-.16.03-.31.1-.45.06-.14.17-.26.32-.35.15-.09.37-.13.66-.13s.5.05.66.15c.15.1.25.23.31.39.06.16.08.34.08.55v5.65c0,1.06-.16,2.05-.48,2.95-.32.91-.79,1.7-1.43,2.37-.64.68-1.41,1.2-2.31,1.57-.91.37-1.95.56-3.12.56Zm-4.46-2.91l-.3.07.88-.95c.43,0,.48-.72.84-1.03.37-.31.7-.73,1-1.28.3-.54.54-1.16.72-1.85.17-.69.27-1.41.29-2.16l.1-3.12c.02-.17.06-.34.12-.49.06-.15.17-.27.32-.36s.37-.13.66-.13c.3,0,.53.05.69.14.16.1.26.22.31.37.05.15.06.32.05.51l-.14,3.03c-.06,1.02-.22,1.96-.46,2.84-.25.87-.59,1.64-1.02,2.31-.44.67-.95,1.18-1.53,1.55-.58.37-1.23.55-1.94.55h-.57Z" fill="#cbe9f4"/><path d="m83.42,31.31c-.29,0-.5-.05-.64-.14-.14-.1-.24-.23-.3-.39s-.08-.35-.08-.54v-11.99c0-.19.03-.37.08-.52.06-.16.16-.29.31-.38.15-.1.37-.14.66-.14.3,0,.53.05.68.15.15.1.25.23.3.38.05.15.07.33.07.54v11.99c0,.19-.03.37-.08.52-.06.16-.16.29-.31.38-.15.1-.38.14-.68.14Z" fill="#cbe9f4"/><path d="m99.48,19.9l-1.64-.55h-8.89c-.21,0-.39-.03-.56-.1s-.3-.18-.39-.33c-.1-.16-.14-.38-.14-.67,0-.3.05-.52.14-.67.1-.14.23-.24.39-.3s.35-.08.54-.08h8.72c.57,0,1.02.12,1.36.36.33.24.54.56.63.96.09.41.04.86-.15,1.37Zm-10.2,15.01c-.29,0-.5-.05-.64-.14-.14-.1-.24-.22-.3-.38-.06-.16-.08-.34-.08-.55v-10.25c0-.19.03-.37.08-.52.06-.16.16-.28.31-.37.15-.09.37-.13.66-.13.3,0,.53.05.68.14.15.1.25.22.3.37.05.15.07.33.07.54v10.25c0,.21-.03.38-.08.54-.06.15-.16.27-.31.37-.15.1-.38.14-.68.14Zm5.27-3.65c-.41-.14-.7-.31-.85-.51-.15-.2-.17-.45-.06-.75.21-.52.44-1.16.72-1.89.27-.74.56-1.53.87-2.38.31-.85.62-1.71.93-2.59.31-.87.6-1.71.87-2.5.27-.79.51-1.5.72-2.12l1.79,1.24c-.18.6-.39,1.29-.64,2.06-.25.77-.52,1.57-.81,2.41-.29.83-.57,1.65-.85,2.44-.28.79-.54,1.52-.77,2.18-.24.66-.44,1.2-.6,1.61-.08.19-.18.36-.3.51s-.25.25-.4.31c-.15.06-.35.05-.61-.01Z" fill="#cbe9f4"/><path d="m103.44,31.31c-.29,0-.5-.05-.66-.14-.15-.1-.26-.23-.32-.39s-.1-.35-.1-.54v-11.96c0-.19.03-.37.1-.52.06-.16.17-.29.32-.38.15-.1.37-.14.66-.14l4.67-.02c1.08,0,2.03.15,2.86.45.83.3,1.51.76,2.06,1.37.55.61.96,1.37,1.24,2.28.28.91.42,1.97.42,3.19v5.72c0,.21-.02.39-.07.56s-.15.3-.3.39c-.15.1-.38.14-.68.14-.29,0-.5-.04-.66-.12-.15-.08-.25-.19-.31-.35-.06-.15-.08-.31-.08-.46v-5.84c0-.86-.1-1.61-.29-2.26-.19-.65-.47-1.2-.83-1.63-.37-.44-.82-.76-1.37-.98-.55-.21-1.19-.32-1.92-.32h-3.67v10.87c0,.21-.03.39-.08.56s-.16.3-.31.39c-.15.1-.38.14-.68.14Z" fill="#cbe9f4"/><path d="m124.79,31.41c-1.14,0-2.16-.19-3.05-.57-.89-.38-1.64-.91-2.25-1.58-.61-.68-1.07-1.47-1.38-2.37s-.46-1.9-.46-2.98v-5.62c0-.19.03-.37.08-.54.06-.17.16-.3.32-.39.16-.1.38-.14.67-.14s.5.05.66.14c.15.1.26.23.32.39.06.17.1.35.1.56v5.6c0,1.1-.06,3.47.34,4.28.4.81,1.24.02,2,.46.76.45.82,2.37,1.89,2.37,1.13,0,2.93-1.94,3.69-2.4.76-.46,1.34-1.1,1.73-1.92s.58-1.76.58-2.82v-5.74c0-.16.03-.31.1-.45.06-.14.17-.26.32-.35.15-.09.37-.13.66-.13s.5.05.66.15c.15.1.25.23.31.39.06.16.08.34.08.55v5.65c0,1.06-.16,2.05-.48,2.95-.32.91-.79,1.7-1.43,2.37-.64.68-1.41,1.2-2.31,1.57-.91.37-1.95.56-3.12.56Zm-4.46-2.91l-.27-.12.66-.84c.43,0,.68-.65,1.04-.96.37-.31.7-.73,1-1.28.3-.54.54-1.16.72-1.85.17-.69.27-1.41.29-2.16l.1-3.12c.02-.17.06-.34.12-.49.06-.15.17-.27.32-.36s.37-.13.66-.13c.3,0,.53.05.69.14.16.1.26.22.31.37.05.15.06.32.05.51l-.14,3.03c-.06,1.02-.22,1.96-.46,2.84-.25.87-.59,1.64-1.02,2.31-.44.67-.95,1.18-1.53,1.55-.58.37-1.23.55-1.94.55h-.57Z" fill="#cbe9f4"/></g><path d="m37.54,34.29c-.31,0-.61-.05-.87-.13-.38-.13-.7-.38-.91-.72-.2-.32-.3-.7-.3-1.18s.1-.89.29-1.2c.22-.34.53-.59.92-.72.27-.09.55-.13.85-.13h6.33v-3.66c0-.76-.08-1.43-.24-2-.14-.51-.36-.94-.63-1.27-.26-.31-.58-.54-.97-.69-.43-.17-.96-.25-1.58-.25h-2.65c-.31,0-.61-.05-.87-.13-.39-.13-.71-.39-.93-.75-.19-.32-.28-.7-.28-1.17,0-.51.1-.9.31-1.21.2-.31.49-.54.83-.68.28-.11.58-.17.91-.17h2.6c1.21,0,2.3.18,3.23.53.97.36,1.8.92,2.45,1.65.64.72,1.13,1.61,1.45,2.64.3,1,.46,2.16.46,3.46v3.71c.29,0,.55.05.79.14.37.13.68.38.89.72.2.31.29.71.29,1.2s-.1.87-.3,1.18c-.21.34-.52.58-.89.71-.26.09-.57.14-.9.14h-10.29Z" fill="#03072d"/><path d="m53.05,34.29c-.49,0-.88-.1-1.19-.31-.33-.22-.56-.53-.69-.9-.09-.27-.13-.55-.13-.85v-11.99c0-.3.05-.59.14-.85.13-.37.38-.68.71-.89.32-.2.7-.29,1.18-.29.51,0,.91.11,1.23.33.33.23.57.54.68.9.08.25.12.53.12.83v11.99c0,.3-.05.59-.14.85-.13.37-.38.68-.71.89-.32.2-.71.3-1.21.3Z" fill="#03072d"/><path d="m64.63,34.38c-1.27,0-2.43-.22-3.44-.65-1.02-.43-1.89-1.05-2.59-1.83-.7-.77-1.23-1.68-1.58-2.71-.34-1-.52-2.11-.52-3.3v-5.62c0-.3.05-.58.13-.85.13-.39.39-.71.75-.93.32-.19.7-.28,1.17-.28s.86.1,1.18.29c.33.21.58.51.72.88.11.28.16.59.16.91v5.6c0,.74.1,1.4.3,1.97.02-.01.03-.03.05-.04.27-.23.54-.57.78-1,.26-.46.47-1,.62-1.61.16-.61.24-1.27.26-1.94l.1-3.19c.02-.27.09-.54.19-.78.14-.35.4-.63.74-.83.31-.18.68-.26,1.15-.26s.88.09,1.2.28c.37.22.62.54.74.92.09.27.12.57.09.89l-.14,2.99c-.07,1.1-.24,2.12-.5,3.06-.27.97-.66,1.84-1.15,2.58-.34.52-.72.96-1.14,1.33.25.04.52.05.8.05.94,0,1.72-.18,2.33-.55.6-.36,1.04-.85,1.35-1.5.32-.68.49-1.49.49-2.4v-5.74c0-.3.06-.58.18-.85.14-.33.4-.61.73-.8.31-.18.68-.26,1.15-.26.49,0,.89.11,1.21.33.32.22.56.53.68.88.09.27.14.56.14.88v5.65c0,1.17-.18,2.27-.53,3.28-.36,1.03-.91,1.95-1.64,2.72-.73.78-1.62,1.38-2.65,1.81-1.02.42-2.2.63-3.5.63Z" fill="#03072d"/><path d="m82.43,34.29c-.49,0-.88-.1-1.19-.31-.33-.22-.56-.53-.69-.9-.09-.27-.13-.55-.13-.85v-11.99c0-.3.05-.59.14-.85.13-.37.38-.68.71-.89.32-.2.7-.29,1.18-.29.51,0,.91.11,1.23.33.33.23.57.54.68.9.08.25.12.53.12.83v11.99c0,.3-.05.59-.14.85-.13.37-.38.68-.71.89-.32.2-.71.3-1.21.3Z" fill="#03072d"/><path d="m88.29,37.88c-.49,0-.88-.1-1.19-.31-.32-.22-.56-.52-.68-.88-.09-.26-.14-.56-.14-.87v-10.25c0-.3.05-.59.14-.85.13-.38.39-.69.74-.9.31-.18.68-.26,1.15-.26.5,0,.89.1,1.21.3.35.22.59.53.71.91.08.25.12.53.12.83v10.25c0,.32-.05.62-.14.88-.13.35-.38.65-.71.86-.32.2-.71.3-1.21.3Zm5.63-3.59c-.19,0-.39-.03-.6-.08h-.04s-.04-.02-.04-.02c-.61-.21-1.04-.49-1.31-.85-.2-.27-.51-.85-.2-1.68.21-.54.45-1.16.71-1.89l.87-2.38c.31-.85.62-1.71.93-2.58.31-.86.59-1.69.86-2.47h-7.14c-.33,0-.63-.05-.91-.16-.37-.14-.68-.4-.89-.75-.19-.32-.28-.7-.28-1.17,0-.5.1-.9.31-1.21.22-.33.53-.56.9-.69.27-.09.55-.13.85-.13h8.72c.78,0,1.43.18,1.93.54.53.38.88.92,1.02,1.56.12.55.07,1.16-.15,1.79-.17.6-.39,1.27-.63,2.01-.26.77-.53,1.58-.81,2.42-.29.84-.57,1.65-.85,2.45-.28.8-.54,1.53-.78,2.19-.24.67-.44,1.21-.6,1.63-.12.3-.27.55-.44.77-.23.29-.51.5-.84.62-.18.07-.38.1-.59.1Z" fill="#03072d"/><path d="m112.64,34.29c-.45,0-.81-.08-1.11-.23-.37-.2-.64-.5-.78-.88-.1-.26-.14-.53-.14-.8v-5.84c0-.76-.08-1.43-.25-1.99-.15-.52-.37-.95-.64-1.28-.26-.31-.58-.54-.97-.69-.43-.17-.96-.25-1.56-.25h-2.68v9.88c0,.31-.05.61-.13.87-.13.38-.38.7-.72.91-.32.2-.71.3-1.2.3s-.87-.1-1.18-.29c-.33-.21-.58-.51-.72-.88-.11-.28-.16-.58-.16-.89v-11.96c0-.32.06-.61.17-.89.14-.35.39-.65.71-.85.31-.2.7-.29,1.18-.29l4.67-.02c1.2,0,2.27.17,3.2.51.98.36,1.8.91,2.46,1.64.64.72,1.13,1.61,1.45,2.64.3,1,.46,2.17.46,3.48v5.72c0,.3-.04.58-.11.83-.11.4-.36.73-.72.96-.32.2-.71.3-1.21.3Z" fill="#03072d"/><path d="m123.8,34.38c-1.27,0-2.43-.22-3.44-.65-1.02-.43-1.89-1.05-2.59-1.83-.7-.77-1.23-1.68-1.58-2.71-.34-1-.52-2.11-.52-3.3v-5.62c0-.3.05-.58.13-.85.13-.39.39-.71.75-.93.32-.19.7-.28,1.17-.28s.86.1,1.18.29c.33.21.58.51.72.88.11.28.16.59.16.91v5.6c0,.74.1,1.4.3,1.97.02-.01.03-.03.05-.04.27-.23.54-.57.78-1,.26-.46.47-1,.62-1.61.16-.61.24-1.27.26-1.94l.1-3.19c.02-.27.09-.54.19-.78.14-.35.4-.63.74-.83.31-.18.68-.26,1.15-.26s.88.09,1.2.28c.37.22.62.54.74.92.09.27.12.57.09.89l-.14,2.99c-.07,1.1-.24,2.12-.5,3.06-.27.97-.66,1.84-1.15,2.58-.34.52-.72.96-1.14,1.33.25.04.52.05.8.05.94,0,1.72-.18,2.33-.55.6-.36,1.04-.85,1.35-1.5.32-.68.49-1.49.49-2.4v-5.74c0-.3.06-.58.18-.85.14-.33.4-.61.73-.8.31-.18.68-.26,1.15-.26.49,0,.89.11,1.21.33.32.22.56.53.68.88.09.27.14.56.14.88v5.65c0,1.17-.18,2.27-.53,3.28-.36,1.03-.91,1.95-1.64,2.72-.73.78-1.62,1.38-2.65,1.81-1.02.42-2.2.63-3.5.63Z" fill="#03072d"/><path d="m38.53,32.31c-.21,0-.39-.03-.56-.08s-.3-.16-.39-.31c-.1-.15-.14-.37-.14-.66,0-.3.05-.53.14-.68.1-.15.23-.25.39-.31.17-.06.35-.08.54-.08h10.34c.21,0,.39.03.55.08.16.06.29.16.38.31.1.15.14.38.14.68,0,.29-.05.5-.14.66-.1.15-.22.25-.38.31-.16.06-.35.08-.57.08h-10.29Zm8.36,0c-.29,0-.5-.04-.66-.12-.15-.08-.26-.19-.32-.33-.06-.14-.1-.29-.1-.45v-5.86c0-.86-.09-1.61-.27-2.26-.18-.65-.46-1.2-.82-1.63-.37-.44-.82-.76-1.37-.98-.55-.21-1.2-.32-1.94-.32h-2.65c-.21,0-.39-.03-.56-.08-.17-.06-.3-.16-.39-.32-.1-.16-.14-.38-.14-.67,0-.3.05-.52.14-.67.1-.14.22-.25.38-.31.16-.06.34-.1.55-.1h2.6c1.1,0,2.06.15,2.88.46.83.31,1.51.77,2.06,1.38.55.61.96,1.37,1.24,2.28s.42,1.96.42,3.17v5.74c0,.21-.02.39-.07.55-.05.16-.15.29-.31.38-.16.1-.38.14-.67.14Z" fill="#fff"/><path d="m54.04,32.31c-.29,0-.5-.05-.64-.14-.14-.1-.24-.23-.3-.39s-.08-.35-.08-.54v-11.99c0-.19.03-.37.08-.52.06-.16.16-.29.31-.38.15-.1.37-.14.66-.14.3,0,.53.05.68.15.15.1.25.23.3.38.05.15.07.33.07.54v11.99c0,.19-.03.37-.08.52-.06.16-.16.29-.31.38-.15.1-.38.14-.68.14Z" fill="#fff"/><path d="m65.62,32.4c-1.14,0-2.16-.19-3.05-.57-.89-.38-1.64-.91-2.25-1.58-.61-.68-1.07-1.47-1.38-2.37s-.46-1.9-.46-2.98v-5.62c0-.19.03-.37.08-.54.06-.17.16-.3.32-.39.16-.1.38-.14.67-.14s.5.05.66.14c.15.1.26.23.32.39.06.17.1.35.1.56v5.6c0,1.1.2,2.05.6,2.86.4.81.98,1.44,1.74,1.88.76.45,1.68.67,2.74.67,1.13,0,2.07-.23,2.84-.69.76-.46,1.34-1.1,1.73-1.92s.58-1.76.58-2.82v-5.74c0-.16.03-.31.1-.45.06-.14.17-.26.32-.35.15-.09.37-.13.66-.13s.5.05.66.15c.15.1.25.23.31.39.06.16.08.34.08.55v5.65c0,1.06-.16,2.05-.48,2.95-.32.91-.79,1.7-1.43,2.37-.64.68-1.41,1.2-2.31,1.57-.91.37-1.95.56-3.12.56Zm-4.46-2.91l-.36-1.45h.6c.43,0,.83-.15,1.19-.46.37-.31.7-.73,1-1.28.3-.54.54-1.16.72-1.85.17-.69.27-1.41.29-2.16l.1-3.12c.02-.17.06-.34.12-.49.06-.15.17-.27.32-.36s.37-.13.66-.13c.3,0,.53.05.69.14.16.1.26.22.31.37.05.15.06.32.05.51l-.14,3.03c-.06,1.02-.22,1.96-.46,2.84-.25.87-.59,1.64-1.02,2.31-.44.67-.95,1.18-1.53,1.55-.58.37-1.23.55-1.94.55h-.57Z" fill="#fff"/><path d="m83.42,32.31c-.29,0-.5-.05-.64-.14-.14-.1-.24-.23-.3-.39s-.08-.35-.08-.54v-11.99c0-.19.03-.37.08-.52.06-.16.16-.29.31-.38.15-.1.37-.14.66-.14.3,0,.53.05.68.15.15.1.25.23.3.38.05.15.07.33.07.54v11.99c0,.19-.03.37-.08.52-.06.16-.16.29-.31.38-.15.1-.38.14-.68.14Z" fill="#fff"/><path d="m99.48,20.89l-1.64-.55h-8.89c-.21,0-.39-.03-.56-.1s-.3-.18-.39-.33c-.1-.16-.14-.38-.14-.67,0-.3.05-.52.14-.67.1-.14.23-.24.39-.3s.35-.08.54-.08h8.72c.57,0,1.02.12,1.36.36.33.24.54.56.63.96.09.41.04.86-.15,1.37Zm-10.2,15.01c-.29,0-.5-.05-.64-.14-.14-.1-.24-.22-.3-.38-.06-.16-.08-.34-.08-.55v-10.25c0-.19.03-.37.08-.52.06-.16.16-.28.31-.37.15-.09.37-.13.66-.13.3,0,.53.05.68.14.15.1.25.22.3.37.05.15.07.33.07.54v10.25c0,.21-.03.38-.08.54-.06.15-.16.27-.31.37-.15.1-.38.14-.68.14Zm5.27-3.65c-.41-.14-.7-.31-.85-.51-.15-.2-.17-.45-.06-.75.21-.52.44-1.16.72-1.89.27-.74.56-1.53.87-2.38.31-.85.62-1.71.93-2.59.31-.87.6-1.71.87-2.5.27-.79.51-1.5.72-2.12l1.79,1.24c-.18.6-.39,1.29-.64,2.06-.25.77-.52,1.57-.81,2.41-.29.83-.57,1.65-.85,2.44-.28.79-.54,1.52-.77,2.18-.24.66-.44,1.2-.6,1.61-.08.19-.18.36-.3.51s-.25.25-.4.31c-.15.06-.35.05-.61-.01Z" fill="#fff"/><path d="m103.44,32.31c-.29,0-.5-.05-.66-.14-.15-.1-.26-.23-.32-.39s-.1-.35-.1-.54v-11.96c0-.19.03-.37.1-.52.06-.16.17-.29.32-.38.15-.1.37-.14.66-.14l4.67-.02c1.08,0,2.03.15,2.86.45.83.3,1.51.76,2.06,1.37.55.61.96,1.37,1.24,2.28.28.91.42,1.97.42,3.19v5.72c0,.21-.02.39-.07.56s-.15.3-.3.39c-.15.1-.38.14-.68.14-.29,0-.5-.04-.66-.12-.15-.08-.25-.19-.31-.35-.06-.15-.08-.31-.08-.46v-5.84c0-.86-.1-1.61-.29-2.26-.19-.65-.47-1.2-.83-1.63-.37-.44-.82-.76-1.37-.98-.55-.21-1.19-.32-1.92-.32h-3.67v10.87c0,.21-.03.39-.08.56s-.16.3-.31.39c-.15.1-.38.14-.68.14Z" fill="#fff"/><path d="m124.79,32.4c-1.14,0-2.16-.19-3.05-.57-.89-.38-1.64-.91-2.25-1.58-.61-.68-1.07-1.47-1.38-2.37s-.46-1.9-.46-2.98v-5.62c0-.19.03-.37.08-.54.06-.17.16-.3.32-.39.16-.1.38-.14.67-.14s.5.05.66.14c.15.1.26.23.32.39.06.17.1.35.1.56v5.6c0,1.1.2,2.05.6,2.86.4.81.98,1.44,1.74,1.88.76.45,1.68.67,2.74.67,1.13,0,2.07-.23,2.84-.69.76-.46,1.34-1.1,1.73-1.92s.58-1.76.58-2.82v-5.74c0-.16.03-.31.1-.45.06-.14.17-.26.32-.35.15-.09.37-.13.66-.13s.5.05.66.15c.15.1.25.23.31.39.06.16.08.34.08.55v5.65c0,1.06-.16,2.05-.48,2.95-.32.91-.79,1.7-1.43,2.37-.64.68-1.41,1.2-2.31,1.57-.91.37-1.95.56-3.12.56Zm-4.46-2.91l-.36-1.45h.6c.43,0,.83-.15,1.19-.46.37-.31.7-.73,1-1.28.3-.54.54-1.16.72-1.85.17-.69.27-1.41.29-2.16l.1-3.12c.02-.17.06-.34.12-.49.06-.15.17-.27.32-.36s.37-.13.66-.13c.3,0,.53.05.69.14.16.1.26.22.31.37.05.15.06.32.05.51l-.14,3.03c-.06,1.02-.22,1.96-.46,2.84-.25.87-.59,1.64-1.02,2.31-.44.67-.95,1.18-1.53,1.55-.58.37-1.23.55-1.94.55h-.57Z" fill="#fff"/></g></svg>