<?xml version="1.0" encoding="UTF-8"?><svg id="Layer_2" xmlns="http://www.w3.org/2000/svg" width="61.59" height="61.27" xmlns:xlink="http://www.w3.org/1999/xlink" viewBox="0 0 61.59 61.27"><defs><linearGradient id="linear-gradient" x1="29.18" y1="-16" x2="32.36" y2="75.77" gradientUnits="userSpaceOnUse"><stop offset=".23" stop-color="#ffd800"/><stop offset=".95" stop-color="#fd1a84"/></linearGradient></defs><g id="Layer_1-2"><path d="m32.72,57.9c-.64.02-1.29.05-1.93.05.64,0,1.28-.02,1.93-.05Z" fill="#00c392"/><path d="m30.79,57.95h0c-.64,0-1.29-.03-1.93-.05.64.03,1.29.05,1.93.05Z" fill="#00c392"/><path d="m30.79,61.27c-.48,0-.97-.02-1.45-.03l-.58-.02c-4.4-.2-8.83-1.02-13.17-2.45-5.72-1.88-10.31-6.14-12.59-11.7-.18-.43-.35-.87-.49-1.32-1.67-5.02-2.52-10.1-2.52-15.12s.79-9.76,2.35-14.61c2.09-6.49,7.23-11.61,13.76-13.69C20.99.79,25.93,0,30.79,0s10.15.84,15.19,2.5c6.16,2.02,11.05,6.89,13.09,13.02,1.67,5.02,2.52,10.11,2.52,15.12s-.85,10.1-2.52,15.12c-.16.48-.34.95-.54,1.41-2.3,5.51-6.87,9.73-12.55,11.6-4.34,1.43-8.75,2.25-13.11,2.45l-.63.02c-.48.02-.97.03-1.45.03Z" fill="#952362"/><path d="m30.79,59.61c-.47,0-.93-.02-1.4-.03l-.58-.02c-4.24-.19-8.5-.99-12.7-2.37-5.26-1.73-9.47-5.65-11.57-10.75-.16-.4-.32-.8-.45-1.21-1.61-4.85-2.43-9.76-2.43-14.59s.76-9.42,2.27-14.11c1.92-5.98,6.67-10.7,12.68-12.61,4.71-1.5,9.48-2.26,14.18-2.26s9.8.81,14.68,2.42c5.66,1.86,10.16,6.34,12.03,11.96,1.61,4.85,2.43,9.76,2.43,14.6s-.82,9.74-2.43,14.59c-.15.44-.31.87-.49,1.3-2.11,5.06-6.32,8.95-11.54,10.66-4.2,1.38-8.46,2.18-12.67,2.37l-.61.02c-.47.02-.93.03-1.4.03Z" fill="#f8f47c"/><path d="m55.92,16.56c-1.71-5.15-5.79-9.21-10.97-10.91-4.72-1.55-9.45-2.33-14.16-2.33s-9.12.73-13.67,2.18c-5.54,1.76-9.83,6.03-11.6,11.54-1.46,4.53-2.19,9.08-2.19,13.6,0,4.67.79,9.38,2.35,14.07.12.37.26.74.41,1.1,1.9,4.62,5.76,8.23,10.56,9.81,4.07,1.34,8.16,2.1,12.23,2.29.64.02,1.29.05,1.93.05h0c.64,0,1.29-.03,1.93-.05,4.07-.18,8.15-.95,12.23-2.29,4.78-1.57,8.61-5.14,10.52-9.73.16-.39.32-.78.45-1.18,1.56-4.69,2.35-9.4,2.35-14.07s-.79-9.38-2.35-14.07Z" fill="url(#linear-gradient)"/><path d="m44.95,5.65c-4.72-1.55-9.45-2.33-14.16-2.33s-9.12.73-13.67,2.18c-5.54,1.76-9.83,6.03-11.6,11.54-.43,1.32-.78,2.65-1.08,3.97C9.22,16.82,29.09,1.54,53.49,11.87c-2.1-2.87-5.07-5.08-8.55-6.22Z" fill="#fff" opacity=".26"/><path d="m58.27,30.64c0,.08,0,.15,0,.23,0-.15,0-.23,0-.23Z" fill="none"/><path d="m6.08,45.81c1.9,4.62,5.76,8.23,10.56,9.81,4.07,1.34,8.16,2.1,12.23,2.29.64.02,1.29.05,1.93.05h0c.64,0,1.29-.03,1.93-.05,4.07-.18,8.15-.95,12.23-2.29,4.78-1.57,8.61-5.14,10.52-9.73.16-.39.32-.78.45-1.18,1.53-4.61,2.32-9.24,2.34-13.84-.08,2.25-1.47,20.26-25.54,22.85C7.04,56.47,3.32,30.64,3.32,30.64c0,4.67.79,9.38,2.35,14.07.12.37.26.74.41,1.1Z" fill="#6d0033" opacity=".37"/><circle cx="7.47" cy="19.88" r="1.07" fill="#fff"/><path d="m18.32,9.14c0,1.13-2.02.99-4.97,3-4.54,3.1-3.36,5.69-5.06,5.18-1.04-.31.28-3.89,3.05-6.15,2.77-2.26,6.97-3.12,6.97-2.04Z" fill="#fff"/><path d="m30.5,37.21c-.24,0-.44-.07-.6-.22-.16-.15-.24-.35-.24-.62v-1.59c.05-1.14.3-2.15.76-3.02.45-.87,1-1.67,1.65-2.39.65-.72,1.3-1.4,1.97-2.05.66-.65,1.23-1.31,1.69-1.97.46-.66.75-1.36.85-2.11.11-.95-.08-1.76-.56-2.41-.48-.65-1.13-1.15-1.95-1.49-.82-.34-1.67-.52-2.54-.52-1.41,0-2.61.36-3.6,1.09-.99.73-1.65,1.96-1.97,3.68-.08.32-.21.54-.4.68-.19.13-.4.2-.64.2h-1.91c-.24,0-.44-.08-.62-.24s-.26-.37-.26-.64c.03-1.09.26-2.12.72-3.1.45-.98,1.09-1.84,1.93-2.58.83-.74,1.83-1.33,2.98-1.77,1.15-.44,2.45-.66,3.88-.66,1.62,0,3,.22,4.16.66,1.15.44,2.08,1.02,2.78,1.75s1.21,1.53,1.53,2.41c.32.87.45,1.75.4,2.62-.08,1.06-.34,2.01-.79,2.84-.45.83-.99,1.6-1.63,2.31s-1.28,1.39-1.93,2.07c-.65.68-1.21,1.38-1.67,2.11-.46.73-.72,1.52-.78,2.37-.03.29-.05.58-.06.85-.01.28-.02.55-.02.82-.05.29-.16.52-.32.68s-.38.24-.68.24h-2.15Zm-.32,7.16c-.27,0-.48-.09-.66-.26-.17-.17-.26-.39-.26-.66v-2.43c0-.26.09-.48.26-.66s.39-.26.66-.26h2.58c.29,0,.52.09.7.26s.26.39.26.66v2.43c0,.26-.09.48-.26.66-.17.17-.4.26-.7.26h-2.58Z" fill="#fff" opacity=".34"/><path d="m29.42,45.78c-.36,0-.66-.12-.89-.36-.23-.23-.35-.53-.35-.89v-2.43c0-.35.12-.65.36-.89.24-.24.54-.36.89-.36h2.58c.38,0,.69.12.93.36.24.24.36.54.36.89v2.43c0,.36-.12.66-.36.89-.23.24-.55.36-.93.36h-2.58Zm.32-6.52c-.32,0-.6-.1-.82-.31-.23-.21-.34-.5-.34-.86v-1.59c.05-1.2.32-2.26.79-3.17.46-.9,1.03-1.72,1.7-2.46.65-.71,1.31-1.41,1.98-2.06.64-.63,1.2-1.28,1.65-1.92.43-.62.7-1.28.8-1.96.1-.87-.07-1.58-.5-2.16-.44-.6-1.05-1.06-1.81-1.38-.78-.33-1.59-.49-2.42-.49-1.33,0-2.47.35-3.4,1.03-.92.67-1.54,1.84-1.84,3.47-.1.41-.28.71-.53.89-.24.17-.52.26-.83.26h-1.91c-.32,0-.61-.11-.84-.33-.24-.22-.36-.52-.36-.88.03-1.14.28-2.22.75-3.24.47-1.02,1.14-1.92,2.01-2.69.86-.77,1.9-1.38,3.09-1.83,1.19-.45,2.53-.68,4-.68,1.65,0,3.09.23,4.27.68,1.19.45,2.17,1.07,2.9,1.83.73.76,1.27,1.61,1.6,2.52.33.91.47,1.84.42,2.76-.08,1.11-.36,2.11-.83,2.98-.46.86-1.03,1.66-1.68,2.37-.64.7-1.28,1.4-1.93,2.07-.63.66-1.18,1.35-1.63,2.06-.43.68-.68,1.42-.72,2.21-.03.3-.05.58-.06.85-.01.27-.02.54-.02.8-.07.42-.21.7-.42.91-.22.22-.53.34-.91.34h-2.15Z" fill="#501136"/><path d="m30.5,38.38c-.24,0-.44-.07-.6-.22-.16-.15-.24-.35-.24-.62v-1.59c.05-1.14.3-2.15.76-3.02.45-.87,1-1.67,1.65-2.39.65-.72,1.3-1.4,1.97-2.05.66-.65,1.23-1.31,1.69-1.97.46-.66.75-1.36.85-2.11.11-.95-.08-1.76-.56-2.41-.48-.65-1.13-1.15-1.95-1.49-.82-.34-1.67-.52-2.54-.52-1.41,0-2.61.36-3.6,1.09-.99.73-1.65,1.96-1.97,3.68-.08.32-.21.54-.4.68-.19.13-.4.2-.64.2h-1.91c-.24,0-.44-.08-.62-.24s-.26-.37-.26-.64c.03-1.09.26-2.12.72-3.1.45-.98,1.09-1.84,1.93-2.58.83-.74,1.83-1.33,2.98-1.77,1.15-.44,2.45-.66,3.88-.66,1.62,0,3,.22,4.16.66,1.15.44,2.08,1.02,2.78,1.75s1.21,1.53,1.53,2.41c.32.87.45,1.75.4,2.62-.08,1.06-.34,2.01-.79,2.84-.45.83-.99,1.6-1.63,2.31s-1.28,1.39-1.93,2.07c-.65.68-1.21,1.38-1.67,2.11-.46.73-.72,1.52-.78,2.37-.03.29-.05.58-.06.85-.01.28-.02.55-.02.82-.05.29-.16.52-.32.68s-.38.24-.68.24h-2.15Zm-.32,6.52c-.27,0-.48-.09-.66-.26-.17-.17-.26-.39-.26-.66v-2.43c0-.26.09-.48.26-.66s.39-.26.66-.26h2.58c.29,0,.52.09.7.26s.26.39.26.66v2.43c0,.26-.09.48-.26.66-.17.17-.4.26-.7.26h-2.58Z" fill="#952362"/></g></svg>