<?xml version="1.0" encoding="UTF-8"?><svg id="Layer_2" xmlns="http://www.w3.org/2000/svg" width="182.12" height="44.48" xmlns:xlink="http://www.w3.org/1999/xlink" viewBox="0 0 182.12 44.48"><defs><linearGradient id="linear-gradient" x1="90.83" y1="-5.27" x2="91.25" y2="43.87" gradientUnits="userSpaceOnUse"><stop offset=".12" stop-color="#4c6596"/><stop offset=".44" stop-color="#3d4e88"/><stop offset=".61" stop-color="#35417b"/><stop offset=".91" stop-color="#2a3069"/></linearGradient></defs><g id="_כפתורים"><path d="m131.87,44.48c-1.66,0-9.91-.02-19.15-.05h-.53c-11.11-.03-24.93-.07-28.25-.07-8.23,0-52.81-.4-64.33-1.48-6.19-.58-10.52-2.26-13.63-5.29-2.76-2.7-4.58-6.34-5.56-11.13l-.06-.29-.02-.13c-.43-3.21-.43-4.96,0-8.14C1.96,8.21,8.98,2.08,19.58,1.03c10.35-1.03,20.68-1.03,30.67-1.03,2.95,0,13.15.03,23.01.06h1.7c9.95.03,20.24.06,23.22.06,4.61,0,14.49.14,22.43.26h.22c5.2.08,9.69.14,11.04.14,10.2,0,20.74,0,30.69,1.03,10.6,1.1,17.61,7.2,19.23,16.75.45,3.32.45,5,.02,8.22l-.02.15c-.65,3.31-1.67,6.04-3.13,8.34-.23.35-.46.69-.69,1.01-3.05,4.17-8.08,6.58-15.39,7.38-9.87,1.08-20.46,1.08-30.7,1.08Z" fill="#03072d"/><path d="m131.87,42.86c-1.69,0-10.22-.02-19.68-.05-11.71-.03-24.99-.07-28.26-.07-8.22,0-52.74-.4-64.22-1.47-5.91-.55-10.01-2.12-12.9-4.96-2.59-2.53-4.3-5.97-5.23-10.52l-.05-.26v-.09c-.43-3.09-.43-4.77-.02-7.83C3.05,8.55,9.68,2.79,19.7,1.8c10.3-1.02,20.59-1.02,30.55-1.02,3.04,0,13.64.03,23.9.06,10.31.03,20.97.06,24.04.06,4.63,0,14.57.15,22.56.26,5.23.08,9.75.14,11.12.14,10.16,0,20.68,0,30.56,1.02,10.02,1.04,16.65,6.78,18.17,15.76.42,3.16.43,4.76,0,7.86v.08c-.63,3.17-1.6,5.76-2.98,7.93-.21.33-.43.65-.64.94-2.84,3.88-7.6,6.14-14.55,6.9-9.8,1.07-20.36,1.07-30.57,1.07Z" fill="#6d7eb1"/><path d="m179.42,18.28c-1.43-8.41-7.67-13.79-17.12-14.77-9.82-1.02-20.3-1.02-30.44-1.02-3.43,0-25.98-.4-33.68-.4-6.12,0-41.86-.12-47.94-.12-9.93,0-20.2,0-30.43,1.02-9.45.94-15.68,6.32-17.12,14.8-.4,2.97-.4,4.5,0,7.47v.05c.02.09.04.17.06.25.88,4.3,2.48,7.54,4.89,9.9,2.69,2.63,6.56,4.1,12.18,4.62,11.39,1.06,56.4,1.47,64.11,1.47,5.89,0,44.14.12,47.94.12,10.18,0,20.71,0,30.44-1.06,6.6-.72,11.08-2.82,13.71-6.41.21-.28.41-.57.6-.88,1.29-2.04,2.21-4.5,2.8-7.48v-.05c.41-2.97.41-4.5,0-7.5Z" fill="url(#linear-gradient)"/><path d="m19.82,40.07c11.39,1.06,56.4,1.47,64.11,1.47,5.89,0,44.14.12,47.94.12,10.18,0,20.71,0,30.44-1.06,6.6-.72,11.08-2.82,13.71-6.41,0,0,0-.01.01-.02-24.26,4.87-42.33,3.95-66.84,3.97-60.3.07-91.75-.82-106.19-11.5.92,3.76,2.44,6.66,4.64,8.81,2.69,2.63,6.56,4.1,12.18,4.62Z" fill="#0b1a42" opacity=".37"/><path d="m173.79,8.05c-2.91-2.48-6.8-4.05-11.49-4.53-7.52-.78-15.42-.96-23.26-1-2.4-.01-4.8-.01-7.18-.01h0c-.14,0-.32,0-.51,0-.05,0-.09,0-.14,0-.19,0-.39,0-.62,0-.04,0-.07,0-.1,0-.25,0-.53,0-.83,0-.11,0-.23,0-.35,0-.26,0-.53,0-.82-.01-.03,0-.06,0-.1,0-.75,0-1.58-.02-2.48-.03-.16,0-.31,0-.47,0-.22,0-.45,0-.67,0-.49,0-.99-.01-1.5-.02-.21,0-.43,0-.65,0-.03,0-.06,0-.09,0-1.84,0-3.68,0-5.51,0-1.4,0-5.05-.09-9.78-.21,0,0,0,0,0,0-.43,0-.86-.01-1.28-.02-.08,0-.16,0-.23,0-.34,0-.67,0-1-.01-.12,0-.24,0-.36,0-.28,0-.55,0-.81,0-.16,0-.32,0-.48,0-.21,0-.41,0-.61,0-.18,0-.36,0-.54,0-.21,0-.42,0-.62,0-.14,0-.27,0-.41,0-.21,0-.41,0-.61,0-.13,0-.26,0-.39,0-.21,0-.4,0-.6,0-.1,0-.21,0-.3,0-.28,0-.56,0-.81,0-6.12,0-41.86-.12-47.94-.12h0c-1.58,0-3.17,0-4.77,0-.41,0-.81,0-1.22,0-1.72,0-3.44.02-5.17.04h0c-2.15.06-4.3.11-6.45.15-.93.03-1.86.07-2.79.11-.29.01-.58.03-.88.04-.76.04-1.53.08-2.29.12-.56.03-1.13.07-1.69.11-.56.04-1.12.07-1.68.12-1.17.09-2.34.19-3.5.31-.57.06-1.12.13-1.66.22-.19.03-.37.07-.56.11-.35.06-.69.13-1.03.2-.23.05-.44.11-.66.17-.28.07-.57.15-.84.23-.24.07-.47.15-.7.23-.24.08-.49.17-.72.26-.25.09-.48.19-.72.3-.21.09-.41.18-.62.27-.25.12-.49.24-.73.36-.18.09-.35.19-.52.28-.25.14-.5.29-.75.44-.14.09-.27.18-.41.27-.26.17-.52.35-.76.54-.1.07-.19.15-.29.23-.27.22-.54.43-.8.66-.04.03-.07.07-.11.1-2.24,2.05-3.85,4.67-4.75,7.8,0,0,0,0,0,0C13.09,6.7,61.29.59,173.79,8.05Z" fill="#fff" opacity=".07"/><path d="m19.58,6.33c-.17.63-1.4.26-3.53.96-3.28,1.07-2.95,2.7-3.92,2.17-.59-.33.78-2.14,2.84-3,2.06-.86,4.77-.74,4.61-.12Z" fill="#fff"/><ellipse cx="11.23" cy="10.77" rx=".62" ry=".68" transform="translate(.18 21.72) rotate(-88.56)" fill="#fff"/><path d="m22.33,30.03c-.68,0-1.17-.17-1.49-.52-.3-.33-.45-.79-.45-1.4,0-.32.04-.61.13-.86.12-.36.36-.65.68-.84.29-.17.65-.25,1.11-.25.7,0,1.2.18,1.51.54.29.32.43.78.43,1.38,0,.33-.04.61-.13.86-.12.34-.34.62-.65.82-.3.19-.67.28-1.13.28Z" fill="#03072d"/><path d="m22.33,25.97c-.41,0-.72-.06-.97-.17-.34-.16-.59-.45-.7-.8-.07-.21-.1-.46-.1-.74v-8.56c0-.26.03-.51.1-.72.11-.33.33-.6.64-.79.27-.15.6-.23,1.01-.23s.74.06,1,.2c.33.18.56.45.67.79.07.22.1.46.1.74v8.54c0,.26-.03.5-.1.72-.1.35-.33.63-.65.81-.26.14-.58.21-1.01.21Z" fill="#03072d"/><path d="m32.05,30.02c-.16,0-.33-.02-.52-.07-.6-.2-.96-.44-1.2-.75-.18-.23-.44-.74-.17-1.46.18-.46.38-1,.61-1.63l.75-2.05c.27-.73.53-1.47.8-2.22.26-.74.51-1.46.74-2.13h-6.15c-.28,0-.54-.05-.79-.14-.32-.12-.59-.35-.77-.65-.16-.27-.24-.6-.24-1.01,0-.44.09-.78.27-1.05.19-.28.46-.48.78-.59.23-.08.48-.12.73-.12h7.52c.67,0,1.23.16,1.67.47.46.33.76.79.88,1.34.06.27.07.55.03.85l.03.02-.16.6c-.15.53-.34,1.13-.56,1.81-.22.67-.45,1.36-.7,2.08-.25.72-.49,1.42-.73,2.11-.24.69-.46,1.32-.67,1.89-.21.57-.38,1.04-.52,1.4-.11.26-.23.47-.38.66-.2.25-.44.43-.72.54-.16.06-.33.09-.51.09h0Z" fill="#03072d"/><path d="m27.19,33.11c-.42,0-.76-.09-1.03-.27-.28-.19-.48-.45-.59-.76-.08-.23-.12-.48-.12-.75v-8.83c0-.26.04-.5.12-.73.12-.33.34-.6.64-.77.27-.15.59-.23.99-.23.43,0,.77.08,1.04.25.3.19.51.46.61.78.07.21.1.46.1.72v8.83c0,.28-.04.53-.12.76-.12.31-.33.56-.61.74-.27.17-.61.26-1.04.26Z" fill="#03072d"/><path d="m48.18,30.01c-.39,0-.7-.07-.96-.2-.32-.17-.55-.43-.67-.76-.08-.22-.12-.46-.12-.69v-5.03c0-.65-.07-1.23-.21-1.71-.13-.45-.32-.82-.55-1.1-.23-.27-.5-.46-.84-.6-.37-.15-.82-.22-1.34-.22h-2.31v8.52c0,.27-.04.52-.12.75-.11.33-.32.6-.62.79-.27.17-.61.25-1.04.25s-.75-.08-1.02-.26c-.29-.18-.5-.44-.62-.76-.09-.24-.14-.5-.14-.76v-10.31c0-.27.05-.53.14-.77.12-.3.33-.56.61-.73.27-.17.6-.25,1.02-.25l4.02-.02c1.03,0,1.96.15,2.76.44.84.31,1.55.78,2.12,1.41.55.62.97,1.39,1.25,2.28.26.86.4,1.87.4,3v4.93c0,.26-.03.5-.09.72-.1.34-.31.63-.62.82-.27.17-.61.25-1.04.25Z" fill="#03072d"/><path d="m57.79,30.1c-1.1,0-2.09-.19-2.96-.56-.88-.38-1.63-.91-2.24-1.58-.6-.66-1.06-1.45-1.37-2.34-.3-.87-.45-1.82-.45-2.84v-4.85c0-.26.04-.51.12-.74.11-.33.33-.61.64-.79.27-.16.61-.24,1.01-.24s.75.08,1.02.25c.28.18.5.44.62.75.09.25.14.51.14.79v4.83c0,.63.09,1.2.26,1.7.01-.01.03-.02.04-.03.24-.2.46-.49.67-.87.22-.4.4-.86.53-1.39.13-.53.21-1.09.22-1.67l.08-2.7c.02-.29.08-.51.17-.72.13-.3.35-.55.64-.71.26-.15.59-.23.99-.23s.76.08,1.03.24c.32.19.54.46.64.79.08.24.1.49.08.77l-.12,2.58c-.06.94-.2,1.83-.43,2.63-.24.84-.57,1.58-.99,2.23-.29.44-.62.83-.98,1.14.22.03.45.05.69.05.81,0,1.49-.16,2-.47.52-.31.9-.73,1.16-1.29.28-.59.42-1.28.42-2.07v-4.95c0-.26.05-.5.16-.74.13-.29.34-.52.63-.69.26-.15.59-.23.99-.23s.77.09,1.04.28c.28.19.48.46.59.76.08.23.12.48.12.75v4.87c0,1.01-.15,1.96-.46,2.83-.31.89-.79,1.68-1.42,2.34-.63.67-1.4,1.19-2.29,1.56-.88.36-1.89.55-3.01.55Z" fill="#03072d"/><path d="m71.76,30.01c-.27,0-.52-.05-.76-.14-.31-.12-.57-.33-.75-.61-.17-.28-.26-.61-.26-1.02s.08-.77.25-1.04c.19-.3.46-.51.79-.62.23-.08.49-.12.75-.12h3.2v-3.85c0-.78-.09-1.41-.28-1.89-.16-.41-.37-.69-.65-.87-.29-.18-.67-.28-1.12-.28-.31,0-.58.06-.83.2-.27.14-.49.34-.69.6-.23.29-.43.65-.6,1.07-.18.44-.34.94-.46,1.48l-1.1,5.42c-.03.2-.09.42-.16.61-.11.32-.32.58-.6.77-.27.19-.62.28-1.02.28-.6,0-1.06-.17-1.37-.5-.24-.25-.5-.7-.37-1.43l1.16-5.76-1.04-3.89c-.07-.26-.11-.5-.11-.73,0-.36.13-.69.37-.97.22-.25.53-.42.96-.53.25-.06.45-.08.63-.08.24,0,.45.04.64.13.36.16.62.44.75.79.07.18.12.35.16.51l.1.39c.23-.31.5-.58.79-.83.4-.34.87-.6,1.38-.78.51-.18,1.1-.28,1.76-.28,1.09,0,2.04.26,2.83.76.8.51,1.41,1.28,1.82,2.29.38.94.58,2.1.58,3.45v5.69c0,.35-.03.62-.1.84-.12.38-.39.66-.75.8-.23.09-.51.13-.88.13h-4.99Z" fill="#03072d"/><path d="m83.66,30.08c-.27,0-.55-.08-.84-.24-.46-.23-.79-.53-.97-.89-.14-.27-.3-.83.16-1.51.62-.95,1.18-1.85,1.67-2.68.49-.83.93-1.62,1.31-2.36.38-.73.71-1.47,1.01-2.2.06-.16.13-.32.19-.5h-4.7c-.56,0-1.01-.15-1.33-.45-.33-.3-.52-.74-.56-1.3l-.17-3.23c0-.32.04-.58.12-.8.08-.23.28-.56.71-.77.27-.14.6-.2,1-.2.44,0,.78.1,1.04.29.25.19.43.45.53.75.08.23.12.49.12.77l.08,1.39h4.41c.62,0,1.14.15,1.55.45.42.31.71.77.83,1.32.06.29.07.61.03.95l.05.04-.15.58c-.33,1.06-.71,2.09-1.15,3.06-.43.97-.93,1.98-1.48,3.01-.55,1.03-1.2,2.2-1.95,3.48-.1.21-.26.43-.45.6-.24.22-.51.36-.81.42l-.08.02h-.17Z" fill="#03072d"/><path d="m105.77,30.01c-.39,0-.7-.07-.96-.2-.3-.16-.53-.41-.67-.72-.1-.23-.15-.48-.15-.73v-5.03c0-.88-.12-1.6-.35-2.15-.21-.49-.51-.85-.92-1.09-.42-.25-.99-.38-1.68-.38h-3.86c-.28,0-.53-.04-.76-.12-.32-.11-.59-.34-.77-.64-.16-.27-.24-.6-.24-1.01,0-.44.09-.78.27-1.05.18-.26.42-.47.72-.58.24-.09.5-.14.77-.14h3.82c1.4,0,2.6.28,3.57.82,1,.56,1.76,1.4,2.26,2.48.47,1.03.71,2.32.71,3.84v4.93c0,.27-.04.52-.12.75-.11.33-.32.6-.62.79-.27.17-.61.25-1.02.25Z" fill="#03072d"/><path d="m97.35,30.01c-.42,0-.76-.09-1.03-.27-.28-.18-.48-.45-.59-.78-.08-.22-.12-.47-.12-.73v-5.07c0-.28.04-.53.12-.76.11-.32.34-.59.64-.77.26-.15.59-.23.99-.23.43,0,.77.08,1.04.25.31.19.52.47.62.81.06.22.1.46.1.72v5.07c0,.26-.04.5-.12.73-.11.32-.32.58-.62.77-.27.17-.61.25-1.04.25Z" fill="#03072d"/><path d="m114.01,30.01c-.27,0-.52-.05-.76-.14-.31-.12-.57-.33-.75-.61-.17-.28-.26-.61-.26-1.02s.08-.77.25-1.04c.19-.3.46-.51.79-.62.23-.08.49-.12.75-.12h3.2v-3.85c0-.78-.09-1.41-.28-1.89-.16-.41-.37-.69-.65-.87-.29-.18-.67-.28-1.12-.28-.31,0-.58.06-.83.2-.27.14-.49.34-.69.6-.23.29-.43.65-.6,1.07-.18.44-.34.94-.46,1.48l-1.1,5.42c-.03.2-.09.42-.16.61-.11.32-.32.58-.6.77-.27.19-.62.28-1.02.28-.6,0-1.06-.17-1.37-.5-.24-.25-.5-.7-.37-1.43l1.16-5.76-1.04-3.89c-.07-.26-.11-.5-.11-.73,0-.36.13-.69.37-.97.22-.25.53-.42.96-.53.25-.06.45-.08.63-.08.24,0,.45.04.64.13.36.16.62.44.75.79.07.18.12.35.16.51l.1.39c.23-.31.5-.58.79-.83.4-.34.87-.6,1.38-.78.51-.18,1.1-.28,1.76-.28,1.09,0,2.04.26,2.83.76.8.51,1.41,1.28,1.82,2.29.38.94.58,2.1.58,3.45v5.69c0,.35-.03.62-.1.84-.12.38-.39.66-.75.8-.23.09-.51.13-.88.13h-4.99Z" fill="#03072d"/><path d="m128.88,30.1c-1.1,0-2.09-.19-2.96-.56-.88-.38-1.63-.91-2.24-1.58-.6-.66-1.06-1.45-1.37-2.34-.3-.87-.45-1.82-.45-2.84v-4.85c0-.26.04-.51.12-.74.11-.33.33-.61.64-.79.27-.16.61-.24,1.01-.24s.75.08,1.02.25c.28.18.5.44.62.75.09.25.14.51.14.79v4.83c0,.63.09,1.2.26,1.7.01-.01.03-.02.04-.03.24-.2.46-.49.67-.87.22-.4.4-.86.53-1.39.13-.53.21-1.09.22-1.67l.08-2.7c.02-.29.08-.51.17-.72.13-.3.35-.55.64-.71.26-.15.59-.23.99-.23s.76.08,1.03.24c.32.19.54.46.64.79.08.24.1.49.08.77l-.12,2.58c-.06.94-.2,1.83-.43,2.63-.24.84-.57,1.58-.99,2.23-.29.44-.62.83-.98,1.14.22.03.45.05.69.05.81,0,1.49-.16,2-.47.52-.31.9-.73,1.16-1.29.28-.59.42-1.28.42-2.07v-4.95c0-.26.05-.5.16-.74.13-.29.34-.52.63-.69.26-.15.59-.23.99-.23s.77.09,1.04.28c.28.19.48.46.59.76.08.23.12.48.12.75v4.87c0,1.01-.15,1.96-.46,2.83-.31.89-.79,1.68-1.42,2.34-.63.67-1.4,1.19-2.29,1.56-.88.36-1.89.55-3.01.55Z" fill="#03072d"/><path d="m145.25,30.01c-.39,0-.7-.07-.96-.2-.3-.16-.53-.41-.67-.72-.1-.23-.15-.48-.15-.73v-5.03c0-.66-.07-1.24-.21-1.72-.12-.44-.31-.8-.55-1.08-.23-.27-.51-.47-.85-.6-.37-.15-.82-.22-1.34-.22h-2.49c-.29,0-.55-.04-.78-.12-.32-.11-.59-.33-.78-.64-.16-.27-.24-.6-.24-1.01,0-.44.09-.78.27-1.05.18-.27.43-.47.72-.59.23-.09.5-.14.79-.14h2.44c1.04,0,1.98.15,2.78.46.83.31,1.54.79,2.11,1.41.56.62.99,1.39,1.26,2.28.26.86.4,1.86.4,2.98v4.93c0,.27-.04.52-.12.75-.11.33-.32.6-.62.79-.27.17-.61.25-1.02.25Z" fill="#03072d"/><path d="m149.89,30.01c-.42,0-.76-.09-1.03-.27-.28-.18-.48-.45-.59-.78-.08-.22-.12-.47-.12-.73v-5.07c0-.28.04-.53.12-.76.11-.32.34-.59.64-.77.26-.15.59-.23.99-.23.43,0,.77.08,1.04.25.31.19.52.47.62.81.06.22.1.46.1.72v5.07c0,.26-.04.5-.12.73-.11.32-.32.58-.62.77-.27.17-.61.25-1.04.25Z" fill="#03072d"/><path d="m158.31,30.01c-.39,0-.7-.07-.96-.2-.3-.16-.53-.41-.67-.72-.1-.23-.15-.48-.15-.73v-5.03c0-.88-.12-1.6-.35-2.15-.21-.49-.51-.85-.92-1.09-.42-.25-.99-.38-1.68-.38h-3.86c-.28,0-.53-.04-.76-.12-.32-.11-.59-.34-.77-.64-.16-.27-.24-.6-.24-1.01,0-.44.09-.78.27-1.05.18-.26.42-.47.72-.58.24-.09.5-.14.77-.14h3.82c1.4,0,2.6.28,3.57.82,1,.56,1.76,1.4,2.26,2.48.47,1.03.71,2.32.71,3.84v4.93c0,.27-.04.52-.12.75-.11.33-.32.6-.62.79-.27.17-.61.25-1.02.25Z" fill="#03072d"/><path d="m23.31,26.01c-.3,0-.53.04-.68.13-.15.09-.25.22-.31.38-.05.16-.08.36-.08.6,0,.38.08.66.23.82.15.16.44.25.86.25.3,0,.53-.05.68-.14.15-.1.25-.22.31-.38.05-.16.08-.35.08-.59,0-.38-.07-.66-.22-.82-.14-.16-.43-.25-.87-.25Z" fill="#fff"/><path d="m22.72,24.02c.13.06.33.09.61.09s.47-.03.6-.1c.12-.07.21-.17.25-.31.04-.14.06-.29.06-.47v-8.54c0-.19-.02-.35-.06-.48-.04-.13-.13-.23-.26-.3-.13-.07-.33-.1-.61-.1s-.46.04-.59.11c-.13.08-.22.18-.26.31-.04.13-.06.28-.06.46v8.56c0,.19.02.35.06.48.04.13.13.23.26.29Z" fill="#fff"/><path d="m37.12,17.14c-.08-.35-.26-.63-.54-.83-.29-.21-.68-.31-1.17-.31h-7.52c-.16,0-.32.02-.46.07s-.26.13-.34.26c-.08.12-.12.31-.12.57s.04.44.12.58c.08.14.2.23.34.29s.3.08.48.08h7.34c-.12.35-.24.71-.38,1.11-.23.68-.48,1.4-.75,2.16-.27.75-.53,1.5-.8,2.23-.27.73-.52,1.42-.75,2.05-.23.64-.44,1.18-.62,1.63-.1.26-.08.48.05.65.13.17.37.32.73.44.22.05.39.06.52.01.13-.05.25-.14.35-.27.1-.13.19-.28.26-.44.14-.36.31-.82.51-1.39.21-.57.43-1.19.67-1.88.24-.68.48-1.39.73-2.1.25-.72.48-1.41.7-2.07.22-.66.4-1.26.55-1.78h0c.12-.39.17-.74.1-1.06Z" fill="#fff"/><path d="m28.8,20.75c-.13-.08-.33-.12-.58-.12s-.43.04-.57.11c-.13.08-.22.18-.27.32-.05.14-.07.29-.07.45v8.83c0,.18.02.34.07.47.05.14.13.25.26.33.12.08.31.12.55.12.26,0,.46-.04.58-.12.13-.08.22-.19.27-.32.05-.13.07-.28.07-.46v-8.83c0-.18-.02-.33-.06-.46-.04-.13-.13-.24-.26-.32Z" fill="#fff"/><path d="m48.66,17.57c-.47-.53-1.07-.92-1.78-1.18s-1.53-.39-2.46-.39l-4.03.02c-.25,0-.44.04-.57.12s-.22.19-.28.33c-.05.14-.08.29-.08.45v10.31c0,.16.03.32.08.46.05.14.15.26.28.34s.32.12.57.12c.26,0,.46-.04.58-.12s.22-.19.27-.34c.05-.14.07-.3.07-.48v-9.37h3.16c.63,0,1.18.09,1.65.28.47.19.87.47,1.18.84s.55.85.72,1.41.25,1.21.25,1.95v5.03c0,.14.02.27.07.4.05.13.14.23.27.3.13.07.32.1.56.1.26,0,.46-.04.58-.12s.22-.19.26-.34c.04-.14.06-.3.06-.48v-4.93c0-1.05-.12-1.97-.36-2.75-.24-.78-.6-1.43-1.07-1.96Z" fill="#fff"/><path d="m64.78,16.14c-.13-.09-.32-.13-.56-.13s-.44.04-.57.11-.22.17-.28.3-.08.25-.08.39v4.95c0,.92-.17,1.73-.5,2.43-.34.71-.83,1.26-1.49,1.65s-1.47.6-2.44.6c-.92,0-1.7-.19-2.36-.57-.11-.06-.21-.14-.31-.21.33-.08.64-.2.94-.38.5-.31.94-.76,1.31-1.33s.67-1.24.88-1.99c.21-.75.35-1.57.4-2.44l.12-2.61c.01-.16,0-.31-.04-.44-.04-.13-.13-.24-.27-.32s-.33-.12-.59-.12-.44.04-.57.11-.22.18-.28.31c-.05.13-.09.27-.1.42l-.08,2.69c-.01.64-.1,1.26-.25,1.86-.15.6-.36,1.13-.62,1.59-.26.47-.55.83-.86,1.1-.31.27-.66.4-1.03.4h-.02c-.05-.08-.1-.16-.14-.25-.34-.7-.51-1.52-.51-2.46v-4.83c0-.18-.03-.34-.08-.48-.06-.14-.15-.26-.28-.34-.13-.08-.32-.12-.57-.12s-.44.04-.58.12-.23.2-.28.34c-.05.14-.07.3-.07.46v4.85c0,.93.13,1.79.4,2.57s.66,1.46,1.19,2.04c.53.58,1.17,1.04,1.94,1.37s1.64.49,2.63.49,1.91-.16,2.69-.48c.78-.32,1.44-.77,1.99-1.36.55-.58.96-1.26,1.23-2.04.27-.78.41-1.63.41-2.55v-4.87c0-.18-.02-.34-.07-.47-.05-.14-.14-.25-.27-.34Z" fill="#fff"/><path d="m76.63,16.53c-.65-.42-1.44-.63-2.37-.63-.56,0-1.05.08-1.47.23-.42.15-.79.36-1.12.64-.33.27-.61.6-.85.98-.24.38-.46.79-.65,1.25-.04.1-.07.21-.1.31l-.66-2.55c-.03-.12-.07-.26-.12-.4-.05-.14-.16-.25-.31-.32-.15-.07-.38-.07-.7,0-.26.07-.44.16-.54.28-.1.12-.15.25-.15.4s.03.32.08.51l1.09,4.09-1.2,5.94c-.05.3,0,.53.14.69s.4.24.76.24c.23,0,.41-.04.54-.13.13-.09.22-.21.28-.36.05-.15.1-.31.12-.49l1.11-5.44c.14-.59.3-1.13.5-1.61.2-.49.43-.91.71-1.26.27-.36.6-.63.97-.83.37-.2.78-.3,1.23-.3.62,0,1.14.14,1.57.41.43.27.76.7.99,1.27s.34,1.31.34,2.2v4.7h-4.05c-.18,0-.34.02-.48.07-.14.05-.26.14-.34.27-.08.13-.12.33-.12.59,0,.25.04.43.12.56.08.13.2.22.34.28.14.05.3.08.46.08h4.99c.26,0,.45-.02.58-.07s.21-.14.25-.27c.04-.13.06-.33.06-.59v-5.69c0-1.25-.17-2.29-.51-3.13-.34-.84-.84-1.47-1.49-1.89Z" fill="#fff"/><path d="m89.98,17.1c-.08-.35-.24-.62-.5-.81s-.61-.29-1.05-.29h-5.22l-.12-2.24c0-.19-.02-.36-.07-.5-.05-.14-.13-.26-.24-.34-.11-.08-.29-.12-.53-.12-.26,0-.47.04-.62.11-.15.08-.25.18-.3.31-.05.13-.07.28-.07.46l.16,3.2c.03.34.12.59.29.74.17.15.42.23.76.23h5.88c-.17.56-.36,1.12-.58,1.66-.3.75-.65,1.51-1.04,2.27-.39.76-.83,1.56-1.33,2.4-.5.84-1.06,1.75-1.69,2.72-.16.25-.2.47-.1.66s.31.37.64.53c.19.11.36.15.5.12.14-.03.27-.1.39-.21s.22-.25.3-.41c.74-1.27,1.38-2.42,1.93-3.45.55-1.03,1.03-2.01,1.46-2.96.42-.94.79-1.93,1.11-2.96l-.02-.02c.12-.42.15-.79.08-1.12Z" fill="#fff"/><path d="m105.14,16.71c-.84-.47-1.89-.71-3.15-.71h-3.82c-.16,0-.32.03-.45.08s-.25.14-.33.27c-.08.12-.12.31-.12.57s.04.44.12.58c.08.14.19.23.33.28.14.05.29.07.47.07h3.86c.85,0,1.55.17,2.12.5s.98.83,1.26,1.49c.28.66.42,1.49.42,2.49v5.03c0,.14.03.27.08.4.05.13.15.23.28.3.13.07.32.1.56.1s.43-.04.57-.12c.13-.08.22-.19.27-.34.05-.14.07-.3.07-.48v-4.93c0-1.4-.21-2.56-.64-3.48-.42-.92-1.06-1.62-1.9-2.09Z" fill="#fff"/><path d="m98.96,21.38c-.13-.08-.33-.12-.59-.12-.25,0-.43.04-.56.11s-.22.18-.27.32c-.05.14-.07.29-.07.47v5.07c0,.16.02.32.07.46.05.14.13.26.26.34.12.08.31.12.55.12.26,0,.46-.04.59-.12.13-.08.22-.19.27-.33.05-.14.07-.29.07-.45v-5.07c0-.18-.02-.33-.06-.47-.04-.14-.13-.25-.26-.33Z" fill="#fff"/><path d="m118.88,16.53c-.65-.42-1.44-.63-2.37-.63-.56,0-1.05.08-1.47.23-.42.15-.79.36-1.12.64-.33.27-.61.6-.85.98-.24.38-.46.79-.65,1.25-.04.1-.07.21-.1.31l-.66-2.55c-.03-.12-.07-.26-.12-.4-.05-.14-.16-.25-.31-.32-.15-.07-.38-.07-.7,0-.26.07-.44.16-.54.28-.1.12-.15.25-.15.4s.03.32.08.51l1.09,4.09-1.2,5.94c-.05.3,0,.53.14.69s.4.24.76.24c.23,0,.41-.04.54-.13.13-.09.22-.21.28-.36.05-.15.1-.31.12-.49l1.11-5.44c.14-.59.3-1.13.5-1.61.2-.49.43-.91.71-1.26.27-.36.6-.63.97-.83.37-.2.78-.3,1.23-.3.62,0,1.14.14,1.57.41.43.27.76.7.99,1.27s.34,1.31.34,2.2v4.7h-4.05c-.18,0-.34.02-.48.07-.14.05-.26.14-.34.27-.08.13-.12.33-.12.59,0,.25.04.43.12.56.08.13.2.22.34.28.14.05.3.08.46.08h4.99c.26,0,.45-.02.58-.07s.21-.14.25-.27c.04-.13.06-.33.06-.59v-5.69c0-1.25-.17-2.29-.51-3.13-.34-.84-.84-1.47-1.49-1.89Z" fill="#fff"/><path d="m135.86,16.14c-.13-.09-.32-.13-.56-.13s-.44.04-.57.11-.22.17-.28.3-.08.25-.08.39v4.95c0,.92-.17,1.73-.5,2.43-.34.71-.83,1.26-1.49,1.65s-1.47.6-2.44.6c-.92,0-1.7-.19-2.36-.57-.11-.06-.21-.14-.31-.21.33-.08.64-.2.94-.38.5-.31.94-.76,1.31-1.33s.67-1.24.88-1.99c.21-.75.35-1.57.4-2.44l.12-2.61c.01-.16,0-.31-.04-.44-.04-.13-.13-.24-.27-.32s-.33-.12-.59-.12-.44.04-.57.11-.22.18-.28.31c-.05.13-.09.27-.1.42l-.08,2.69c-.01.64-.1,1.26-.25,1.86-.15.6-.36,1.13-.62,1.59-.26.47-.55.83-.86,1.1-.31.27-.66.4-1.03.4h-.02c-.05-.08-.1-.16-.14-.25-.34-.7-.51-1.52-.51-2.46v-4.83c0-.18-.03-.34-.08-.48-.06-.14-.15-.26-.28-.34-.13-.08-.32-.12-.57-.12s-.44.04-.58.12-.23.2-.28.34c-.05.14-.07.3-.07.46v4.85c0,.93.13,1.79.4,2.57s.66,1.46,1.19,2.04c.53.58,1.17,1.04,1.94,1.37s1.64.49,2.63.49,1.91-.16,2.69-.48c.78-.32,1.44-.77,1.99-1.36.55-.58.96-1.26,1.23-2.04.27-.78.41-1.63.41-2.55v-4.87c0-.18-.02-.34-.07-.47-.05-.14-.14-.25-.27-.34Z" fill="#fff"/><path d="m145.71,17.6c-.48-.53-1.07-.92-1.78-1.19s-1.53-.4-2.47-.4h-2.44c-.18,0-.33.03-.47.08-.14.05-.25.14-.33.27-.08.12-.12.31-.12.57s.04.44.12.58c.08.14.19.23.33.28.14.05.3.07.49.07h2.49c.63,0,1.18.09,1.65.28.47.19.87.47,1.19.84.32.38.56.85.72,1.41s.24,1.21.24,1.95v5.03c0,.14.03.27.08.4.05.13.15.23.28.3s.32.1.56.1.43-.04.57-.12c.13-.08.22-.19.27-.34.05-.14.07-.3.07-.48v-4.93c0-1.04-.12-1.95-.36-2.73-.24-.78-.6-1.43-1.08-1.96Z" fill="#fff"/><path d="m151.49,21.38c-.13-.08-.33-.12-.59-.12-.25,0-.43.04-.56.11s-.22.18-.27.32c-.05.14-.07.29-.07.47v5.07c0,.16.02.32.07.46.05.14.13.26.26.34.12.08.31.12.55.12.26,0,.46-.04.59-.12.13-.08.22-.19.27-.33.05-.14.07-.29.07-.45v-5.07c0-.18-.02-.33-.06-.47-.04-.14-.13-.25-.26-.33Z" fill="#fff"/><path d="m159.58,18.81c-.42-.92-1.06-1.62-1.9-2.09-.84-.47-1.89-.71-3.15-.71h-3.82c-.16,0-.32.03-.45.08s-.25.14-.33.27c-.08.12-.12.31-.12.57s.04.44.12.58c.08.14.19.23.33.28.14.05.29.07.47.07h3.86c.85,0,1.55.17,2.12.5s.98.83,1.26,1.49c.28.66.42,1.49.42,2.49v5.03c0,.14.03.27.08.4.05.13.15.23.28.3.13.07.32.1.56.1s.43-.04.57-.12c.13-.08.22-.19.27-.34.05-.14.07-.3.07-.48v-4.93c0-1.4-.21-2.56-.64-3.48Z" fill="#fff"/><g opacity=".63"><path d="m23.31,25.01c-.3,0-.53.04-.68.13-.15.09-.25.22-.31.38-.05.16-.08.36-.08.6,0,.38.08.66.23.82.15.16.44.25.86.25.3,0,.53-.05.68-.14.15-.1.25-.22.31-.38.05-.16.08-.35.08-.59,0-.38-.07-.66-.22-.82-.14-.16-.43-.25-.87-.25Z" fill="#cae8f3"/><path d="m22.72,23.02c.13.06.33.09.61.09s.47-.03.6-.1c.12-.07.21-.17.25-.31.04-.14.06-.29.06-.47v-8.54c0-.19-.02-.35-.06-.48-.04-.13-.13-.23-.26-.3-.13-.07-.33-.1-.61-.1s-.46.04-.59.11c-.13.08-.22.18-.26.31-.04.13-.06.28-.06.46v8.56c0,.19.02.35.06.48.04.13.13.23.26.29Z" fill="#cae8f3"/><path d="m37.12,16.14c-.08-.35-.26-.63-.54-.83-.29-.21-.68-.31-1.17-.31h-7.52c-.16,0-.32.02-.46.07s-.26.13-.34.26c-.08.12-.12.31-.12.57s.04.44.12.58c.08.14.2.23.34.29s.3.08.48.08h7.34c-.12.35-.24.71-.38,1.11-.23.68-.48,1.4-.75,2.16-.27.75-.53,1.5-.8,2.23-.27.73-.52,1.42-.75,2.05-.23.64-.44,1.18-.62,1.63-.1.26-.08.48.05.65.13.17.37.32.73.44.22.05.39.06.52.01.13-.05.25-.14.35-.27.1-.13.19-.28.26-.44.14-.36.31-.82.51-1.39.21-.57.43-1.19.67-1.88.24-.68.48-1.39.73-2.1.25-.72.48-1.41.7-2.07.22-.66.4-1.26.55-1.78h0c.12-.39.17-.74.1-1.06Z" fill="#cae8f3"/><path d="m28.8,19.75c-.13-.08-.33-.12-.58-.12s-.43.04-.57.11c-.13.08-.22.18-.27.32-.05.14-.07.29-.07.45v8.83c0,.18.02.34.07.47.05.14.13.25.26.33.12.08.31.12.55.12.26,0,.46-.04.58-.12.13-.08.22-.19.27-.32.05-.13.07-.28.07-.46v-8.83c0-.18-.02-.33-.06-.46-.04-.13-.13-.24-.26-.32Z" fill="#cae8f3"/><path d="m48.66,16.57c-.47-.53-1.07-.92-1.78-1.18s-1.53-.39-2.46-.39l-4.03.02c-.25,0-.44.04-.57.12s-.22.19-.28.33c-.05.14-.08.29-.08.45v10.31c0,.16.03.32.08.46.05.14.15.26.28.34s.32.12.57.12c.26,0,.46-.04.58-.12s.22-.19.27-.34c.05-.14.07-.3.07-.48v-9.37h3.16c.63,0,1.18.09,1.65.28.47.19.87.47,1.18.84s.55.85.72,1.41.25,1.21.25,1.95v5.03c0,.14.02.27.07.4.05.13.14.23.27.3.13.07.32.1.56.1.26,0,.46-.04.58-.12s.22-.19.26-.34c.04-.14.06-.3.06-.48v-4.93c0-1.05-.12-1.97-.36-2.75-.24-.78-.6-1.43-1.07-1.96Z" fill="#cae8f3"/><path d="m64.78,15.14c-.13-.09-.32-.13-.56-.13s-.44.04-.57.11-.22.17-.28.3-.08.25-.08.39v4.95c0,.92-.17,1.73-.5,2.43-.34.71-.1,2.11-.76,2.5s-3.2.89-4.18.89c-.92,0-.7-1.34-1.36-1.72-.11-.06-.21-.14-.31-.21.33-.08.64-.2.94-.38.5-.31.94-.76,1.31-1.33s.67-1.24.88-1.99c.21-.75.35-1.57.4-2.44l.12-2.61c.01-.16,0-.31-.04-.44-.04-.13-.13-.24-.27-.32s-.33-.12-.59-.12-.44.04-.57.11-.22.18-.28.31c-.05.13-.09.27-.1.42l-.08,2.69c-.01.64-.1,1.26-.25,1.86-.15.6-.36,1.13-.62,1.59-.26.47-.55.83-.86,1.1-.31.27.35.46-.02.46l-1.2,1.72c-.05-.08-2.45-1.12-1.27-2,.62-.47.79-1.55.79-2.5v-4.83c0-.18-.03-.34-.08-.48-.06-.14-.15-.26-.28-.34-.13-.08-.32-.12-.57-.12s-.44.04-.58.12-.23.2-.28.34c-.05.14-.07.3-.07.46v4.85c0,.93.13,1.79.4,2.57s.66,1.46,1.19,2.04c.53.58,1.17,1.04,1.94,1.37s1.64.49,2.63.49,1.91-.16,2.69-.48c.78-.32,1.44-.77,1.99-1.36.55-.58.96-1.26,1.23-2.04.27-.78.41-1.63.41-2.55v-4.87c0-.18-.02-.34-.07-.47-.05-.14-.14-.25-.27-.34Z" fill="#cae8f3"/><path d="m76.63,15.53c-.65-.42-1.44-.63-2.37-.63-.56,0-1.05.08-1.47.23-.42.15-.79.36-1.12.64-.33.27-.61.6-.85.98-.24.38-.46.79-.65,1.25-.04.1-.07.21-.1.31l-.66-2.55c-.03-.12-.07-.26-.12-.4-.05-.14-.16-.25-.31-.32-.15-.07-.38-.07-.7,0-.26.07-.44.16-.54.28-.1.12-.15.25-.15.4s.03.32.08.51l1.09,4.09-1.2,5.94c-.05.3,0,.53.14.69s.4.24.76.24c.23,0,.41-.04.54-.13.13-.09.22-.21.28-.36.05-.15.1-.31.12-.49l1.11-5.44c.14-.59.3-1.13.5-1.61.2-.49.43-.91.71-1.26.27-.36.6-.63.97-.83.37-.2.78-.3,1.23-.3.62,0,1.14.14,1.57.41.43.27.76.7.99,1.27s.34,1.31.34,2.2v4.7h-1.08l-.03,1.85h2.04c.26,0,.45-.02.58-.07s.21-.14.25-.27c.04-.13.06-.33.06-.59v-5.69c0-1.25-.17-2.29-.51-3.13-.34-.84-.84-1.47-1.49-1.89Z" fill="#cae8f3"/><path d="m89.98,16.1c-.08-.35-.24-.62-.5-.81s-.61-.29-1.05-.29h-5.22l-.12-2.24c0-.19-.02-.36-.07-.5-.05-.14-.13-.26-.24-.34-.11-.08-.29-.12-.53-.12-.26,0-.47.04-.62.11-.15.08-.25.18-.3.31-.05.13-.07.28-.07.46l.16,3.2c.03.34.12.59.29.74.17.15.42.23.76.23h5.88c-.17.56-.36,1.12-.58,1.66-.3.75-.65,1.51-1.04,2.27-.39.76-.83,1.56-1.33,2.4-.5.84-1.06,1.75-1.69,2.72-.16.25-.2.47-.1.66s.31.37.64.53c.19.11.36.15.5.12.14-.03.27-.1.39-.21s.22-.25.3-.41c.74-1.27,1.38-2.42,1.93-3.45.55-1.03,1.03-2.01,1.46-2.96.42-.94.79-1.93,1.11-2.96l-.02-.02c.12-.42.15-.79.08-1.12Z" fill="#cae8f3"/><path d="m105.14,15.71c-.84-.47-1.89-.71-3.15-.71h-3.82c-.16,0-.32.03-.45.08s-.25.14-.33.27c-.08.12-.12.31-.12.57s.04.44.12.58c.08.14.19.23.33.28.14.05.29.07.47.07h3.86c.85,0,1.55.17,2.12.5s.98.83,1.26,1.49c.28.66.42,1.49.42,2.49v5.03c0,.14.03.27.08.4.05.13.15.23.28.3.13.07.32.1.56.1s.43-.04.57-.12c.13-.08.22-.19.27-.34.05-.14.07-.3.07-.48v-4.93c0-1.4-.21-2.56-.64-3.48-.42-.92-1.06-1.62-1.9-2.09Z" fill="#cae8f3"/><path d="m98.96,20.38c-.13-.08-.33-.12-.59-.12-.25,0-.43.04-.56.11s-.22.18-.27.32c-.05.14-.07.29-.07.47v5.07c0,.16.02.32.07.46.05.14.13.26.26.34.12.08.31.12.55.12.26,0,.46-.04.59-.12.13-.08.22-.19.27-.33.05-.14.07-.29.07-.45v-5.07c0-.18-.02-.33-.06-.47-.04-.14-.13-.25-.26-.33Z" fill="#cae8f3"/><path d="m118.88,15.53c-.65-.42-1.44-.63-2.37-.63-.56,0-1.05.08-1.47.23-.42.15-.79.36-1.12.64-.33.27-.61.6-.85.98-.24.38-.46.79-.65,1.25-.04.1-.07.21-.1.31l-.66-2.55c-.03-.12-.07-.26-.12-.4-.05-.14-.16-.25-.31-.32-.15-.07-.38-.07-.7,0-.26.07-.44.16-.54.28-.1.12-.15.25-.15.4s.03.32.08.51l1.09,4.09-1.2,5.94c-.05.3,0,.53.14.69s.4.24.76.24c.23,0,.41-.04.54-.13.13-.09.22-.21.28-.36.05-.15.1-.31.12-.49l1.11-5.44c.14-.59.3-1.13.5-1.61.2-.49.43-.91.71-1.26.27-.36.6-.63.97-.83.37-.2.78-.3,1.23-.3.62,0,1.14.14,1.57.41.43.27.76.7.99,1.27s.34,1.31.34,2.2v4.7h-.62l.09,1.85h1.45c.26,0,.45-.02.58-.07s.21-.14.25-.27c.04-.13.06-.33.06-.59v-5.69c0-1.25-.17-2.29-.51-3.13-.34-.84-.84-1.47-1.49-1.89Z" fill="#cae8f3"/><path d="m135.86,15.14c-.13-.09-.32-.13-.56-.13s-.44.04-.57.11-.22.17-.28.3-.08.25-.08.39v4.95c0,.92-.17,1.73-.5,2.43-.34.71-.41,1.42-1.07,1.82s-2.44,2.43-3.41,2.43c-.92,0-1.16-2.19-1.82-2.57-.11-.06-.21-.14-.31-.21.33-.08.64-.2.94-.38.5-.31.94-.76,1.31-1.33s.67-1.24.88-1.99c.21-.75.35-1.57.4-2.44l.12-2.61c.01-.16,0-.31-.04-.44-.04-.13-.13-.24-.27-.32s-.33-.12-.59-.12-.44.04-.57.11-.22.18-.28.31c-.05.13-.09.27-.1.42l-.08,2.69c-.01.64-.1,1.26-.25,1.86-.15.6-.36,1.13-.62,1.59-.26.47-.55.83-.86,1.1-.31.27-.85,2.04-1.22,2.04l-.65-.95c-.05-.08-1.63-.99-.77-1.09.77-.09.94-1.36.94-2.31v-4.83c0-.18-.03-.34-.08-.48-.06-.14-.15-.26-.28-.34-.13-.08-.32-.12-.57-.12s-.44.04-.58.12-.23.2-.28.34c-.05.14-.07.3-.07.46v4.85c0,.93.13,1.79.4,2.57s.66,1.46,1.19,2.04c.53.58,1.17,1.04,1.94,1.37s1.64.49,2.63.49,1.91-.16,2.69-.48c.78-.32,1.44-.77,1.99-1.36.55-.58.96-1.26,1.23-2.04.27-.78.41-1.63.41-2.55v-4.87c0-.18-.02-.34-.07-.47-.05-.14-.14-.25-.27-.34Z" fill="#cae8f3"/><path d="m145.71,16.6c-.48-.53-1.07-.92-1.78-1.19s-1.53-.4-2.47-.4h-2.44c-.18,0-.33.03-.47.08-.14.05-.25.14-.33.27-.08.12-.12.31-.12.57s.04.44.12.58c.08.14.19.23.33.28.14.05.3.07.49.07h2.49c.63,0,1.18.09,1.65.28.47.19.87.47,1.19.84.32.38.56.85.72,1.41s.24,1.21.24,1.95v5.03c0,.14.03.27.08.4.05.13.15.23.28.3s.32.1.56.1.43-.04.57-.12c.13-.08.22-.19.27-.34.05-.14.07-.3.07-.48v-4.93c0-1.04-.12-1.95-.36-2.73-.24-.78-.6-1.43-1.08-1.96Z" fill="#cae8f3"/><path d="m151.49,20.38c-.13-.08-.33-.12-.59-.12-.25,0-.43.04-.56.11s-.22.18-.27.32c-.05.14-.07.29-.07.47v5.07c0,.16.02.32.07.46.05.14.13.26.26.34.12.08.31.12.55.12.26,0,.46-.04.59-.12.13-.08.22-.19.27-.33.05-.14.07-.29.07-.45v-5.07c0-.18-.02-.33-.06-.47-.04-.14-.13-.25-.26-.33Z" fill="#cae8f3"/><path d="m159.58,17.81c-.42-.92-1.06-1.62-1.9-2.09-.84-.47-1.89-.71-3.15-.71h-3.82c-.16,0-.32.03-.45.08s-.25.14-.33.27c-.08.12-.12.31-.12.57s.04.44.12.58c.08.14.19.23.33.28.14.05.29.07.47.07h3.86c.85,0,1.55.17,2.12.5s.98.83,1.26,1.49c.28.66.42,1.49.42,2.49v5.03c0,.14.03.27.08.4.05.13.15.23.28.3.13.07.32.1.56.1s.43-.04.57-.12c.13-.08.22-.19.27-.34.05-.14.07-.3.07-.48v-4.93c0-1.4-.21-2.56-.64-3.48Z" fill="#cae8f3"/></g><path d="m22.33,30.03c-.68,0-1.17-.17-1.49-.52-.3-.33-.45-.79-.45-1.4,0-.32.04-.61.13-.86.12-.36.36-.65.68-.84.29-.17.65-.25,1.11-.25.7,0,1.2.18,1.51.54.29.32.43.78.43,1.38,0,.33-.04.61-.13.86-.12.34-.34.62-.65.82-.3.19-.67.28-1.13.28Z" fill="#03072d"/><path d="m22.33,25.97c-.41,0-.72-.06-.97-.17-.34-.16-.59-.45-.7-.8-.07-.21-.1-.46-.1-.74v-8.56c0-.26.03-.51.1-.72.11-.33.33-.6.64-.79.27-.15.6-.23,1.01-.23s.74.06,1,.2c.33.18.56.45.67.79.07.22.1.46.1.74v8.54c0,.26-.03.5-.1.72-.1.35-.33.63-.65.81-.26.14-.58.21-1.01.21Z" fill="#03072d"/><path d="m32.05,30.02c-.16,0-.33-.02-.52-.07-.6-.2-.96-.44-1.2-.75-.18-.23-.44-.74-.17-1.46.18-.46.38-1,.61-1.63l.75-2.05c.27-.73.53-1.47.8-2.22.26-.74.51-1.46.74-2.13h-6.15c-.28,0-.54-.05-.79-.14-.32-.12-.59-.35-.77-.65-.16-.27-.24-.6-.24-1.01,0-.44.09-.78.27-1.05.19-.28.46-.48.78-.59.23-.08.48-.12.73-.12h7.52c.67,0,1.23.16,1.67.47.46.33.76.79.88,1.34.06.27.07.55.03.85l.03.02-.16.6c-.15.53-.34,1.13-.56,1.81-.22.67-.45,1.36-.7,2.08-.25.72-.49,1.42-.73,2.11-.24.69-.46,1.32-.67,1.89-.21.57-.38,1.04-.52,1.4-.11.26-.23.47-.38.66-.2.25-.44.43-.72.54-.16.06-.33.09-.51.09h0Z" fill="#03072d"/><path d="m27.19,33.11c-.42,0-.76-.09-1.03-.27-.28-.19-.48-.45-.59-.76-.08-.23-.12-.48-.12-.75v-8.83c0-.26.04-.5.12-.73.12-.33.34-.6.64-.77.27-.15.59-.23.99-.23.43,0,.77.08,1.04.25.3.19.51.46.61.78.07.21.1.46.1.72v8.83c0,.28-.04.53-.12.76-.12.31-.33.56-.61.74-.27.17-.61.26-1.04.26Z" fill="#03072d"/><path d="m48.18,30.01c-.39,0-.7-.07-.96-.2-.32-.17-.55-.43-.67-.76-.08-.22-.12-.46-.12-.69v-5.03c0-.65-.07-1.23-.21-1.71-.13-.45-.32-.82-.55-1.1-.23-.27-.5-.46-.84-.6-.37-.15-.82-.22-1.34-.22h-2.31v8.52c0,.27-.04.52-.12.75-.11.33-.32.6-.62.79-.27.17-.61.25-1.04.25s-.75-.08-1.02-.26c-.29-.18-.5-.44-.62-.76-.09-.24-.14-.5-.14-.76v-10.31c0-.27.05-.53.14-.77.12-.3.33-.56.61-.73.27-.17.6-.25,1.02-.25l4.02-.02c1.03,0,1.96.15,2.76.44.84.31,1.55.78,2.12,1.41.55.62.97,1.39,1.25,2.28.26.86.4,1.87.4,3v4.93c0,.26-.03.5-.09.72-.1.34-.31.63-.62.82-.27.17-.61.25-1.04.25Z" fill="#03072d"/><path d="m57.79,30.1c-1.1,0-2.09-.19-2.96-.56-.88-.38-1.63-.91-2.24-1.58-.6-.66-1.06-1.45-1.37-2.34-.3-.87-.45-1.82-.45-2.84v-4.85c0-.26.04-.51.12-.74.11-.33.33-.61.64-.79.27-.16.61-.24,1.01-.24s.75.08,1.02.25c.28.18.5.44.62.75.09.25.14.51.14.79v4.83c0,.63.09,1.2.26,1.7.01-.01.03-.02.04-.03.24-.2.46-.49.67-.87.22-.4.4-.86.53-1.39.13-.53.21-1.09.22-1.67l.08-2.7c.02-.29.08-.51.17-.72.13-.3.35-.55.64-.71.26-.15.59-.23.99-.23s.76.08,1.03.24c.32.19.54.46.64.79.08.24.1.49.08.77l-.12,2.58c-.06.94-.2,1.83-.43,2.63-.24.84-.57,1.58-.99,2.23-.29.44-.62.83-.98,1.14.22.03.45.05.69.05.81,0,1.49-.16,2-.47.52-.31.9-.73,1.16-1.29.28-.59.42-1.28.42-2.07v-4.95c0-.26.05-.5.16-.74.13-.29.34-.52.63-.69.26-.15.59-.23.99-.23s.77.09,1.04.28c.28.19.48.46.59.76.08.23.12.48.12.75v4.87c0,1.01-.15,1.96-.46,2.83-.31.89-.79,1.68-1.42,2.34-.63.67-1.4,1.19-2.29,1.56-.88.36-1.89.55-3.01.55Z" fill="#03072d"/><path d="m71.76,30.01c-.27,0-.52-.05-.76-.14-.31-.12-.57-.33-.75-.61-.17-.28-.26-.61-.26-1.02s.08-.77.25-1.04c.19-.3.46-.51.79-.62.23-.08.49-.12.75-.12h3.2v-3.85c0-.78-.09-1.41-.28-1.89-.16-.41-.37-.69-.65-.87-.29-.18-.67-.28-1.12-.28-.31,0-.58.06-.83.2-.27.14-.49.34-.69.6-.23.29-.43.65-.6,1.07-.18.44-.34.94-.46,1.48l-1.1,5.42c-.03.2-.09.42-.16.61-.11.32-.32.58-.6.77-.27.19-.62.28-1.02.28-.6,0-1.06-.17-1.37-.5-.24-.25-.5-.7-.37-1.43l1.16-5.76-1.04-3.89c-.07-.26-.11-.5-.11-.73,0-.36.13-.69.37-.97.22-.25.53-.42.96-.53.25-.06.45-.08.63-.08.24,0,.45.04.64.13.36.16.62.44.75.79.07.18.12.35.16.51l.1.39c.23-.31.5-.58.79-.83.4-.34.87-.6,1.38-.78.51-.18,1.1-.28,1.76-.28,1.09,0,2.04.26,2.83.76.8.51,1.41,1.28,1.82,2.29.38.94.58,2.1.58,3.45v5.69c0,.35-.03.62-.1.84-.12.38-.39.66-.75.8-.23.09-.51.13-.88.13h-4.99Z" fill="#03072d"/><path d="m83.66,30.08c-.27,0-.55-.08-.84-.24-.46-.23-.79-.53-.97-.89-.14-.27-.3-.83.16-1.51.62-.95,1.18-1.85,1.67-2.68.49-.83.93-1.62,1.31-2.36.38-.73.71-1.47,1.01-2.2.06-.16.13-.32.19-.5h-4.7c-.56,0-1.01-.15-1.33-.45-.33-.3-.52-.74-.56-1.3l-.17-3.23c0-.32.04-.58.12-.8.08-.23.28-.56.71-.77.27-.14.6-.2,1-.2.44,0,.78.1,1.04.29.25.19.43.45.53.75.08.23.12.49.12.77l.08,1.39h4.41c.62,0,1.14.15,1.55.45.42.31.71.77.83,1.32.06.29.07.61.03.95l.05.04-.15.58c-.33,1.06-.71,2.09-1.15,3.06-.43.97-.93,1.98-1.48,3.01-.55,1.03-1.2,2.2-1.95,3.48-.1.21-.26.43-.45.6-.24.22-.51.36-.81.42l-.08.02h-.17Z" fill="#03072d"/><path d="m105.77,30.01c-.39,0-.7-.07-.96-.2-.3-.16-.53-.41-.67-.72-.1-.23-.15-.48-.15-.73v-5.03c0-.88-.12-1.6-.35-2.15-.21-.49-.51-.85-.92-1.09-.42-.25-.99-.38-1.68-.38h-3.86c-.28,0-.53-.04-.76-.12-.32-.11-.59-.34-.77-.64-.16-.27-.24-.6-.24-1.01,0-.44.09-.78.27-1.05.18-.26.42-.47.72-.58.24-.09.5-.14.77-.14h3.82c1.4,0,2.6.28,3.57.82,1,.56,1.76,1.4,2.26,2.48.47,1.03.71,2.32.71,3.84v4.93c0,.27-.04.52-.12.75-.11.33-.32.6-.62.79-.27.17-.61.25-1.02.25Z" fill="#03072d"/><path d="m97.35,30.01c-.42,0-.76-.09-1.03-.27-.28-.18-.48-.45-.59-.78-.08-.22-.12-.47-.12-.73v-5.07c0-.28.04-.53.12-.76.11-.32.34-.59.64-.77.26-.15.59-.23.99-.23.43,0,.77.08,1.04.25.31.19.52.47.62.81.06.22.1.46.1.72v5.07c0,.26-.04.5-.12.73-.11.32-.32.58-.62.77-.27.17-.61.25-1.04.25Z" fill="#03072d"/><path d="m114.01,30.01c-.27,0-.52-.05-.76-.14-.31-.12-.57-.33-.75-.61-.17-.28-.26-.61-.26-1.02s.08-.77.25-1.04c.19-.3.46-.51.79-.62.23-.08.49-.12.75-.12h3.2v-3.85c0-.78-.09-1.41-.28-1.89-.16-.41-.37-.69-.65-.87-.29-.18-.67-.28-1.12-.28-.31,0-.58.06-.83.2-.27.14-.49.34-.69.6-.23.29-.43.65-.6,1.07-.18.44-.34.94-.46,1.48l-1.1,5.42c-.03.2-.09.42-.16.61-.11.32-.32.58-.6.77-.27.19-.62.28-1.02.28-.6,0-1.06-.17-1.37-.5-.24-.25-.5-.7-.37-1.43l1.16-5.76-1.04-3.89c-.07-.26-.11-.5-.11-.73,0-.36.13-.69.37-.97.22-.25.53-.42.96-.53.25-.06.45-.08.63-.08.24,0,.45.04.64.13.36.16.62.44.75.79.07.18.12.35.16.51l.1.39c.23-.31.5-.58.79-.83.4-.34.87-.6,1.38-.78.51-.18,1.1-.28,1.76-.28,1.09,0,2.04.26,2.83.76.8.51,1.41,1.28,1.82,2.29.38.94.58,2.1.58,3.45v5.69c0,.35-.03.62-.1.84-.12.38-.39.66-.75.8-.23.09-.51.13-.88.13h-4.99Z" fill="#03072d"/><path d="m128.88,30.1c-1.1,0-2.09-.19-2.96-.56-.88-.38-1.63-.91-2.24-1.58-.6-.66-1.06-1.45-1.37-2.34-.3-.87-.45-1.82-.45-2.84v-4.85c0-.26.04-.51.12-.74.11-.33.33-.61.64-.79.27-.16.61-.24,1.01-.24s.75.08,1.02.25c.28.18.5.44.62.75.09.25.14.51.14.79v4.83c0,.63.09,1.2.26,1.7.01-.01.03-.02.04-.03.24-.2.46-.49.67-.87.22-.4.4-.86.53-1.39.13-.53.21-1.09.22-1.67l.08-2.7c.02-.29.08-.51.17-.72.13-.3.35-.55.64-.71.26-.15.59-.23.99-.23s.76.08,1.03.24c.32.19.54.46.64.79.08.24.1.49.08.77l-.12,2.58c-.06.94-.2,1.83-.43,2.63-.24.84-.57,1.58-.99,2.23-.29.44-.62.83-.98,1.14.22.03.45.05.69.05.81,0,1.49-.16,2-.47.52-.31.9-.73,1.16-1.29.28-.59.42-1.28.42-2.07v-4.95c0-.26.05-.5.16-.74.13-.29.34-.52.63-.69.26-.15.59-.23.99-.23s.77.09,1.04.28c.28.19.48.46.59.76.08.23.12.48.12.75v4.87c0,1.01-.15,1.96-.46,2.83-.31.89-.79,1.68-1.42,2.34-.63.67-1.4,1.19-2.29,1.56-.88.36-1.89.55-3.01.55Z" fill="#03072d"/><path d="m145.25,30.01c-.39,0-.7-.07-.96-.2-.3-.16-.53-.41-.67-.72-.1-.23-.15-.48-.15-.73v-5.03c0-.66-.07-1.24-.21-1.72-.12-.44-.31-.8-.55-1.08-.23-.27-.51-.47-.85-.6-.37-.15-.82-.22-1.34-.22h-2.49c-.29,0-.55-.04-.78-.12-.32-.11-.59-.33-.78-.64-.16-.27-.24-.6-.24-1.01,0-.44.09-.78.27-1.05.18-.27.43-.47.72-.59.23-.09.5-.14.79-.14h2.44c1.04,0,1.98.15,2.78.46.83.31,1.54.79,2.11,1.41.56.62.99,1.39,1.26,2.28.26.86.4,1.86.4,2.98v4.93c0,.27-.04.52-.12.75-.11.33-.32.6-.62.79-.27.17-.61.25-1.02.25Z" fill="#03072d"/><path d="m149.89,30.01c-.42,0-.76-.09-1.03-.27-.28-.18-.48-.45-.59-.78-.08-.22-.12-.47-.12-.73v-5.07c0-.28.04-.53.12-.76.11-.32.34-.59.64-.77.26-.15.59-.23.99-.23.43,0,.77.08,1.04.25.31.19.52.47.62.81.06.22.1.46.1.72v5.07c0,.26-.04.5-.12.73-.11.32-.32.58-.62.77-.27.17-.61.25-1.04.25Z" fill="#03072d"/><path d="m158.31,30.01c-.39,0-.7-.07-.96-.2-.3-.16-.53-.41-.67-.72-.1-.23-.15-.48-.15-.73v-5.03c0-.88-.12-1.6-.35-2.15-.21-.49-.51-.85-.92-1.09-.42-.25-.99-.38-1.68-.38h-3.86c-.28,0-.53-.04-.76-.12-.32-.11-.59-.34-.77-.64-.16-.27-.24-.6-.24-1.01,0-.44.09-.78.27-1.05.18-.26.42-.47.72-.58.24-.09.5-.14.77-.14h3.82c1.4,0,2.6.28,3.57.82,1,.56,1.76,1.4,2.26,2.48.47,1.03.71,2.32.71,3.84v4.93c0,.27-.04.52-.12.75-.11.33-.32.6-.62.79-.27.17-.61.25-1.02.25Z" fill="#03072d"/><path d="m23.31,26.01c-.3,0-.53.04-.68.13-.15.09-.25.22-.31.38-.05.16-.08.36-.08.6,0,.38.08.66.23.82.15.16.44.25.86.25.3,0,.53-.05.68-.14.15-.1.25-.22.31-.38.05-.16.08-.35.08-.59,0-.38-.07-.66-.22-.82-.14-.16-.43-.25-.87-.25Z" fill="#fff"/><path d="m22.72,24.02c.13.06.33.09.61.09s.47-.03.6-.1c.12-.07.21-.17.25-.31.04-.14.06-.29.06-.47v-8.54c0-.19-.02-.35-.06-.48-.04-.13-.13-.23-.26-.3-.13-.07-.33-.1-.61-.1s-.46.04-.59.11c-.13.08-.22.18-.26.31-.04.13-.06.28-.06.46v8.56c0,.19.02.35.06.48.04.13.13.23.26.29Z" fill="#fff"/><path d="m37.12,17.14c-.08-.35-.26-.63-.54-.83-.29-.21-.68-.31-1.17-.31h-7.52c-.16,0-.32.02-.46.07s-.26.13-.34.26c-.08.12-.12.31-.12.57s.04.44.12.58c.08.14.2.23.34.29s.3.08.48.08h7.34c-.12.35-.24.71-.38,1.11-.23.68-.48,1.4-.75,2.16-.27.75-.53,1.5-.8,2.23-.27.73-.52,1.42-.75,2.05-.23.64-.44,1.18-.62,1.63-.1.26-.08.48.05.65.13.17.37.32.73.44.22.05.39.06.52.01.13-.05.25-.14.35-.27.1-.13.19-.28.26-.44.14-.36.31-.82.51-1.39.21-.57.43-1.19.67-1.88.24-.68.48-1.39.73-2.1.25-.72.48-1.41.7-2.07.22-.66.4-1.26.55-1.78h0c.12-.39.17-.74.1-1.06Z" fill="#fff"/><path d="m28.8,20.75c-.13-.08-.33-.12-.58-.12s-.43.04-.57.11c-.13.08-.22.18-.27.32-.05.14-.07.29-.07.45v8.83c0,.18.02.34.07.47.05.14.13.25.26.33.12.08.31.12.55.12.26,0,.46-.04.58-.12.13-.08.22-.19.27-.32.05-.13.07-.28.07-.46v-8.83c0-.18-.02-.33-.06-.46-.04-.13-.13-.24-.26-.32Z" fill="#fff"/><path d="m48.66,17.57c-.47-.53-1.07-.92-1.78-1.18s-1.53-.39-2.46-.39l-4.03.02c-.25,0-.44.04-.57.12s-.22.19-.28.33c-.05.14-.08.29-.08.45v10.31c0,.16.03.32.08.46.05.14.15.26.28.34s.32.12.57.12c.26,0,.46-.04.58-.12s.22-.19.27-.34c.05-.14.07-.3.07-.48v-9.37h3.16c.63,0,1.18.09,1.65.28.47.19.87.47,1.18.84s.55.85.72,1.41.25,1.21.25,1.95v5.03c0,.14.02.27.07.4.05.13.14.23.27.3.13.07.32.1.56.1.26,0,.46-.04.58-.12s.22-.19.26-.34c.04-.14.06-.3.06-.48v-4.93c0-1.05-.12-1.97-.36-2.75-.24-.78-.6-1.43-1.07-1.96Z" fill="#fff"/><path d="m64.78,16.14c-.13-.09-.32-.13-.56-.13s-.44.04-.57.11-.22.17-.28.3-.08.25-.08.39v4.95c0,.92-.17,1.73-.5,2.43-.34.71-.83,1.26-1.49,1.65s-1.47.6-2.44.6c-.92,0-1.7-.19-2.36-.57-.11-.06-.21-.14-.31-.21.33-.08.64-.2.94-.38.5-.31.94-.76,1.31-1.33s.67-1.24.88-1.99c.21-.75.35-1.57.4-2.44l.12-2.61c.01-.16,0-.31-.04-.44-.04-.13-.13-.24-.27-.32s-.33-.12-.59-.12-.44.04-.57.11-.22.18-.28.31c-.05.13-.09.27-.1.42l-.08,2.69c-.01.64-.1,1.26-.25,1.86-.15.6-.36,1.13-.62,1.59-.26.47-.55.83-.86,1.1-.31.27-.66.4-1.03.4h-.02c-.05-.08-.1-.16-.14-.25-.34-.7-.51-1.52-.51-2.46v-4.83c0-.18-.03-.34-.08-.48-.06-.14-.15-.26-.28-.34-.13-.08-.32-.12-.57-.12s-.44.04-.58.12-.23.2-.28.34c-.05.14-.07.3-.07.46v4.85c0,.93.13,1.79.4,2.57s.66,1.46,1.19,2.04c.53.58,1.17,1.04,1.94,1.37s1.64.49,2.63.49,1.91-.16,2.69-.48c.78-.32,1.44-.77,1.99-1.36.55-.58.96-1.26,1.23-2.04.27-.78.41-1.63.41-2.55v-4.87c0-.18-.02-.34-.07-.47-.05-.14-.14-.25-.27-.34Z" fill="#fff"/><path d="m76.63,16.53c-.65-.42-1.44-.63-2.37-.63-.56,0-1.05.08-1.47.23-.42.15-.79.36-1.12.64-.33.27-.61.6-.85.98-.24.38-.46.79-.65,1.25-.04.1-.07.21-.1.31l-.66-2.55c-.03-.12-.07-.26-.12-.4-.05-.14-.16-.25-.31-.32-.15-.07-.38-.07-.7,0-.26.07-.44.16-.54.28-.1.12-.15.25-.15.4s.03.32.08.51l1.09,4.09-1.2,5.94c-.05.3,0,.53.14.69s.4.24.76.24c.23,0,.41-.04.54-.13.13-.09.22-.21.28-.36.05-.15.1-.31.12-.49l1.11-5.44c.14-.59.3-1.13.5-1.61.2-.49.43-.91.71-1.26.27-.36.6-.63.97-.83.37-.2.78-.3,1.23-.3.62,0,1.14.14,1.57.41.43.27.76.7.99,1.27s.34,1.31.34,2.2v4.7h-4.05c-.18,0-.34.02-.48.07-.14.05-.26.14-.34.27-.08.13-.12.33-.12.59,0,.25.04.43.12.56.08.13.2.22.34.28.14.05.3.08.46.08h4.99c.26,0,.45-.02.58-.07s.21-.14.25-.27c.04-.13.06-.33.06-.59v-5.69c0-1.25-.17-2.29-.51-3.13-.34-.84-.84-1.47-1.49-1.89Z" fill="#fff"/><path d="m89.98,17.1c-.08-.35-.24-.62-.5-.81s-.61-.29-1.05-.29h-5.22l-.12-2.24c0-.19-.02-.36-.07-.5-.05-.14-.13-.26-.24-.34-.11-.08-.29-.12-.53-.12-.26,0-.47.04-.62.11-.15.08-.25.18-.3.31-.05.13-.07.28-.07.46l.16,3.2c.03.34.12.59.29.74.17.15.42.23.76.23h5.88c-.17.56-.36,1.12-.58,1.66-.3.75-.65,1.51-1.04,2.27-.39.76-.83,1.56-1.33,2.4-.5.84-1.06,1.75-1.69,2.72-.16.25-.2.47-.1.66s.31.37.64.53c.19.11.36.15.5.12.14-.03.27-.1.39-.21s.22-.25.3-.41c.74-1.27,1.38-2.42,1.93-3.45.55-1.03,1.03-2.01,1.46-2.96.42-.94.79-1.93,1.11-2.96l-.02-.02c.12-.42.15-.79.08-1.12Z" fill="#fff"/><path d="m105.14,16.71c-.84-.47-1.89-.71-3.15-.71h-3.82c-.16,0-.32.03-.45.08s-.25.14-.33.27c-.08.12-.12.31-.12.57s.04.44.12.58c.08.14.19.23.33.28.14.05.29.07.47.07h3.86c.85,0,1.55.17,2.12.5s.98.83,1.26,1.49c.28.66.42,1.49.42,2.49v5.03c0,.14.03.27.08.4.05.13.15.23.28.3.13.07.32.1.56.1s.43-.04.57-.12c.13-.08.22-.19.27-.34.05-.14.07-.3.07-.48v-4.93c0-1.4-.21-2.56-.64-3.48-.42-.92-1.06-1.62-1.9-2.09Z" fill="#fff"/><path d="m98.96,21.38c-.13-.08-.33-.12-.59-.12-.25,0-.43.04-.56.11s-.22.18-.27.32c-.05.14-.07.29-.07.47v5.07c0,.16.02.32.07.46.05.14.13.26.26.34.12.08.31.12.55.12.26,0,.46-.04.59-.12.13-.08.22-.19.27-.33.05-.14.07-.29.07-.45v-5.07c0-.18-.02-.33-.06-.47-.04-.14-.13-.25-.26-.33Z" fill="#fff"/><path d="m118.88,16.53c-.65-.42-1.44-.63-2.37-.63-.56,0-1.05.08-1.47.23-.42.15-.79.36-1.12.64-.33.27-.61.6-.85.98-.24.38-.46.79-.65,1.25-.04.1-.07.21-.1.31l-.66-2.55c-.03-.12-.07-.26-.12-.4-.05-.14-.16-.25-.31-.32-.15-.07-.38-.07-.7,0-.26.07-.44.16-.54.28-.1.12-.15.25-.15.4s.03.32.08.51l1.09,4.09-1.2,5.94c-.05.3,0,.53.14.69s.4.24.76.24c.23,0,.41-.04.54-.13.13-.09.22-.21.28-.36.05-.15.1-.31.12-.49l1.11-5.44c.14-.59.3-1.13.5-1.61.2-.49.43-.91.71-1.26.27-.36.6-.63.97-.83.37-.2.78-.3,1.23-.3.62,0,1.14.14,1.57.41.43.27.76.7.99,1.27s.34,1.31.34,2.2v4.7h-4.05c-.18,0-.34.02-.48.07-.14.05-.26.14-.34.27-.08.13-.12.33-.12.59,0,.25.04.43.12.56.08.13.2.22.34.28.14.05.3.08.46.08h4.99c.26,0,.45-.02.58-.07s.21-.14.25-.27c.04-.13.06-.33.06-.59v-5.69c0-1.25-.17-2.29-.51-3.13-.34-.84-.84-1.47-1.49-1.89Z" fill="#fff"/><path d="m135.86,16.14c-.13-.09-.32-.13-.56-.13s-.44.04-.57.11-.22.17-.28.3-.08.25-.08.39v4.95c0,.92-.17,1.73-.5,2.43-.34.71-.83,1.26-1.49,1.65s-1.47.6-2.44.6c-.92,0-1.7-.19-2.36-.57-.11-.06-.21-.14-.31-.21.33-.08.64-.2.94-.38.5-.31.94-.76,1.31-1.33s.67-1.24.88-1.99c.21-.75.35-1.57.4-2.44l.12-2.61c.01-.16,0-.31-.04-.44-.04-.13-.13-.24-.27-.32s-.33-.12-.59-.12-.44.04-.57.11-.22.18-.28.31c-.05.13-.09.27-.1.42l-.08,2.69c-.01.64-.1,1.26-.25,1.86-.15.6-.36,1.13-.62,1.59-.26.47-.55.83-.86,1.1-.31.27-.66.4-1.03.4h-.02c-.05-.08-.1-.16-.14-.25-.34-.7-.51-1.52-.51-2.46v-4.83c0-.18-.03-.34-.08-.48-.06-.14-.15-.26-.28-.34-.13-.08-.32-.12-.57-.12s-.44.04-.58.12-.23.2-.28.34c-.05.14-.07.3-.07.46v4.85c0,.93.13,1.79.4,2.57s.66,1.46,1.19,2.04c.53.58,1.17,1.04,1.94,1.37s1.64.49,2.63.49,1.91-.16,2.69-.48c.78-.32,1.44-.77,1.99-1.36.55-.58.96-1.26,1.23-2.04.27-.78.41-1.63.41-2.55v-4.87c0-.18-.02-.34-.07-.47-.05-.14-.14-.25-.27-.34Z" fill="#fff"/><path d="m145.71,17.6c-.48-.53-1.07-.92-1.78-1.19s-1.53-.4-2.47-.4h-2.44c-.18,0-.33.03-.47.08-.14.05-.25.14-.33.27-.08.12-.12.31-.12.57s.04.44.12.58c.08.14.19.23.33.28.14.05.3.07.49.07h2.49c.63,0,1.18.09,1.65.28.47.19.87.47,1.19.84.32.38.56.85.72,1.41s.24,1.21.24,1.95v5.03c0,.14.03.27.08.4.05.13.15.23.28.3s.32.1.56.1.43-.04.57-.12c.13-.08.22-.19.27-.34.05-.14.07-.3.07-.48v-4.93c0-1.04-.12-1.95-.36-2.73-.24-.78-.6-1.43-1.08-1.96Z" fill="#fff"/><path d="m151.49,21.38c-.13-.08-.33-.12-.59-.12-.25,0-.43.04-.56.11s-.22.18-.27.32c-.05.14-.07.29-.07.47v5.07c0,.16.02.32.07.46.05.14.13.26.26.34.12.08.31.12.55.12.26,0,.46-.04.59-.12.13-.08.22-.19.27-.33.05-.14.07-.29.07-.45v-5.07c0-.18-.02-.33-.06-.47-.04-.14-.13-.25-.26-.33Z" fill="#fff"/><path d="m159.58,18.81c-.42-.92-1.06-1.62-1.9-2.09-.84-.47-1.89-.71-3.15-.71h-3.82c-.16,0-.32.03-.45.08s-.25.14-.33.27c-.08.12-.12.31-.12.57s.04.44.12.58c.08.14.19.23.33.28.14.05.29.07.47.07h3.86c.85,0,1.55.17,2.12.5s.98.83,1.26,1.49c.28.66.42,1.49.42,2.49v5.03c0,.14.03.27.08.4.05.13.15.23.28.3.13.07.32.1.56.1s.43-.04.57-.12c.13-.08.22-.19.27-.34.05-.14.07-.3.07-.48v-4.93c0-1.4-.21-2.56-.64-3.48Z" fill="#fff"/></g></svg>