<?xml version="1.0" encoding="UTF-8"?><svg id="Layer_2" xmlns="http://www.w3.org/2000/svg" width="182.12" height="44.43" xmlns:xlink="http://www.w3.org/1999/xlink" viewBox="0 0 182.12 44.43"><defs><linearGradient id="linear-gradient" x1="90.83" y1="-5.27" x2="91.25" y2="43.87" gradientUnits="userSpaceOnUse"><stop offset=".12" stop-color="#4c6596"/><stop offset=".44" stop-color="#3d4e88"/><stop offset=".61" stop-color="#35417b"/><stop offset=".91" stop-color="#2a3069"/></linearGradient><linearGradient id="linear-gradient-2" x1="88.35" y1="-5.25" x2="88.76" y2="43.89" xlink:href="#linear-gradient"/></defs><g id="_כפתורים"><path d="m112.19,44.43c-11.11-.03-81.06-.47-92.59-1.55-6.19-.58-10.52-2.26-13.63-5.29-2.76-2.7-4.58-6.34-5.56-11.13l-.06-.29-.02-.13c-.43-3.21-.43-4.96,0-8.14C1.96,8.21,8.98,2.08,19.58,1.03c10.35-1.03,20.68-1.03,30.67-1.03,2.95,0,13.15.03,23.01.06l47.57.32c5.2.08,31.78.14,41.72,1.17,10.6,1.1,17.61,7.2,19.23,16.75.45,3.32.45,5,.02,8.22l-.02.15c-.65,3.31-1.67,6.04-3.13,8.34-.23.35-.46.69-.69,1.01-3.05,4.17-8.08,6.58-15.39,7.38-9.87,1.08-50.39,1.03-50.39,1.03Z" fill="#03072d"/><path d="m131.87,42.86c-1.69,0-10.22-.02-19.68-.05-11.71-.03-24.99-.07-28.26-.07-8.22,0-52.74-.4-64.22-1.47-5.91-.55-10.01-2.12-12.9-4.96-2.59-2.53-4.3-5.97-5.23-10.52l-.05-.26v-.09c-.43-3.09-.43-4.77-.02-7.83C3.05,8.55,9.68,2.79,19.7,1.8c10.3-1.02,20.59-1.02,30.55-1.02,3.04,0,13.64.03,23.9.06,10.31.03,20.97.06,24.04.06,4.63,0,14.57.15,22.56.26,5.23.08,9.75.14,11.12.14,10.16,0,20.68,0,30.56,1.02,10.02,1.04,16.65,6.78,18.17,15.76.42,3.16.43,4.76,0,7.86v.08c-.63,3.17-1.6,5.76-2.98,7.93-.21.33-.43.65-.64.94-2.84,3.88-7.6,6.14-14.55,6.9-9.8,1.07-20.36,1.07-30.57,1.07Z" fill="#6d7eb1"/><path d="m179.42,18.28c-1.43-8.41-7.67-13.79-17.12-14.77-9.82-1.02-20.3-1.02-30.44-1.02-3.43,0-25.98-.4-33.68-.4-6.12,0-41.86-.12-47.94-.12-9.93,0-20.2,0-30.43,1.02-9.45.94-15.68,6.32-17.12,14.8-.4,2.97-.4,4.5,0,7.47v.05c.02.09.04.17.06.25.88,4.3,2.48,7.54,4.89,9.9,2.69,2.63,6.56,4.1,12.18,4.62,11.39,1.06,56.4,1.47,64.11,1.47,5.89,0,44.14.12,47.94.12,10.18,0,20.71,0,30.44-1.06,6.6-.72,11.08-2.82,13.71-6.41.21-.28.41-.57.6-.88,1.29-2.04,2.21-4.5,2.8-7.48v-.05c.41-2.97.41-4.5,0-7.5Z" fill="url(#linear-gradient)"/><path d="m19.82,40.07c11.39,1.06,56.4,1.47,64.11,1.47,5.89,0,44.14.12,47.94.12,10.18,0,20.71,0,30.44-1.06,6.6-.72,11.08-2.82,13.71-6.41,0,0,0-.01.01-.02-24.26,4.87-42.33,3.95-66.84,3.97-60.3.07-91.75-.82-106.19-11.5.92,3.76,2.44,6.66,4.64,8.81,2.69,2.63,6.56,4.1,12.18,4.62Z" fill="#0b1a42" opacity=".37"/><path d="m173.79,8.05c-2.91-2.48-6.8-4.05-11.49-4.53-7.52-.78-15.42-.96-23.26-1-2.4-.01-4.8-.01-7.18-.01h0c-.14,0-.32,0-.51,0-.05,0-.09,0-.14,0-.19,0-.39,0-.62,0-.04,0-.07,0-.1,0-.25,0-.53,0-.83,0-.11,0-.23,0-.35,0-.26,0-.53,0-.82-.01-.03,0-.06,0-.1,0-.75,0-1.58-.02-2.48-.03-.16,0-.31,0-.47,0-.22,0-.45,0-.67,0-.49,0-.99-.01-1.5-.02-.21,0-.43,0-.65,0-.03,0-.06,0-.09,0-1.84,0-3.68,0-5.51,0-1.4,0-5.05-.09-9.78-.21,0,0,0,0,0,0-.43,0-.86-.01-1.28-.02-.08,0-.16,0-.23,0-.34,0-.67,0-1-.01-.12,0-.24,0-.36,0-.28,0-.55,0-.81,0-.16,0-.32,0-.48,0-.21,0-.41,0-.61,0-.18,0-.36,0-.54,0-.21,0-.42,0-.62,0-.14,0-.27,0-.41,0-.21,0-.41,0-.61,0-.13,0-.26,0-.39,0-.21,0-.4,0-.6,0-.1,0-.21,0-.3,0-.28,0-.56,0-.81,0-6.12,0-41.86-.12-47.94-.12h0c-1.58,0-3.17,0-4.77,0-.41,0-.81,0-1.22,0-1.72,0-3.44.02-5.17.04h0c-2.15.06-4.3.11-6.45.15-.93.03-1.86.07-2.79.11-.29.01-.58.03-.88.04-.76.04-1.53.08-2.29.12-.56.03-1.13.07-1.69.11-.56.04-1.12.07-1.68.12-1.17.09-2.34.19-3.5.31-.57.06-1.12.13-1.66.22-.19.03-.37.07-.56.11-.35.06-.69.13-1.03.2-.23.05-.44.11-.66.17-.28.07-.57.15-.84.23-.24.07-.47.15-.7.23-.24.08-.49.17-.72.26-.25.09-.48.19-.72.3-.21.09-.41.18-.62.27-.25.12-.49.24-.73.36-.18.09-.35.19-.52.28-.25.14-.5.29-.75.44-.14.09-.27.18-.41.27-.26.17-.52.35-.76.54-.1.07-.19.15-.29.23-.27.22-.54.43-.8.66-.04.03-.07.07-.11.1-2.24,2.05-3.85,4.67-4.75,7.8,0,0,0,0,0,0C13.09,6.7,61.29.59,173.79,8.05Z" fill="url(#linear-gradient-2)"/><path d="m173.79,8.05c-2.91-2.48-6.8-4.05-11.49-4.53-7.52-.78-15.42-.96-23.26-1-2.4-.01-4.8-.01-7.18-.01h0c-.14,0-.32,0-.51,0-.05,0-.09,0-.14,0-.19,0-.39,0-.62,0-.04,0-.07,0-.1,0-.25,0-.53,0-.83,0-.11,0-.23,0-.35,0-.26,0-.53,0-.82-.01-.03,0-.06,0-.1,0-.75,0-1.58-.02-2.48-.03-.16,0-.31,0-.47,0-.22,0-.45,0-.67,0-.49,0-.99-.01-1.5-.02-.21,0-.43,0-.65,0-.03,0-.06,0-.09,0-1.84,0-3.68,0-5.51,0-1.4,0-5.05-.09-9.78-.21,0,0,0,0,0,0-.43,0-.86-.01-1.28-.02-.08,0-.16,0-.23,0-.34,0-.67,0-1-.01-.12,0-.24,0-.36,0-.28,0-.55,0-.81,0-.16,0-.32,0-.48,0-.21,0-.41,0-.61,0-.18,0-.36,0-.54,0-.21,0-.42,0-.62,0-.14,0-.27,0-.41,0-.21,0-.41,0-.61,0-.13,0-.26,0-.39,0-.21,0-.4,0-.6,0-.1,0-.21,0-.3,0-.28,0-.56,0-.81,0-6.12,0-41.86-.12-47.94-.12h0c-1.58,0-3.17,0-4.77,0-.41,0-.81,0-1.22,0-1.72,0-3.44.02-5.17.04h0c-2.15.06-4.3.11-6.45.15-.93.03-1.86.07-2.79.11-.29.01-.58.03-.88.04-.76.04-1.53.08-2.29.12-.56.03-1.13.07-1.69.11-.56.04-1.12.07-1.68.12-1.17.09-2.34.19-3.5.31-.57.06-1.12.13-1.66.22-.19.03-.37.07-.56.11-.35.06-.69.13-1.03.2-.23.05-.44.11-.66.17-.28.07-.57.15-.84.23-.24.07-.47.15-.7.23-.24.08-.49.17-.72.26-.25.09-.48.19-.72.3-.21.09-.41.18-.62.27-.25.12-.49.24-.73.36-.18.09-.35.19-.52.28-.25.14-.5.29-.75.44-.14.09-.27.18-.41.27-.26.17-.52.35-.76.54-.1.07-.19.15-.29.23-.27.22-.54.43-.8.66-.04.03-.07.07-.11.1-2.24,2.05-3.85,4.67-4.75,7.8,0,0,0,0,0,0C13.09,6.7,61.29.59,173.79,8.05Z" fill="#fff" opacity=".07"/><g opacity=".63"><path d="m40.61,14.99c-.79-.44-1.75-.67-2.89-.67h-4.07c-.37,0-.65.09-.84.27-.19.18-.29.45-.29.8v10.17c0,.16.02.32.07.46.05.14.14.26.27.34.12.08.3.11.52.12h0s8.75,0,8.75,0h0c.24,0,.42-.05.54-.12.13-.08.22-.19.26-.34.04-.14.06-.3.06-.48v-5.55c0-1.22-.2-2.25-.61-3.08-.4-.84-1-1.48-1.79-1.92Zm.57,11.49h-6.84v-10.31h3.44c.77,0,1.4.14,1.9.43.5.29.88.72,1.13,1.29.25.57.38,1.29.38,2.16v6.43Z" fill="#cae8f3"/><path d="m47.16,14.45c-.13-.09-.33-.13-.58-.13s-.43.04-.56.12c-.13.08-.22.19-.27.33-.05.14-.07.29-.07.45v4.52c0,.16.02.32.07.45s.13.25.26.34c.12.09.31.13.55.13.26,0,.46-.04.58-.12.13-.08.22-.19.27-.33.05-.14.07-.29.07-.45v-4.52c0-.18-.02-.33-.06-.46-.04-.13-.13-.24-.26-.33Z" fill="#cae8f3"/><path d="m52.23,14.45c-.13-.09-.33-.13-.58-.13s-.43.04-.56.12c-.13.08-.22.19-.27.33-.05.14-.07.29-.07.45v4.52c0,.16.02.32.07.45s.13.25.26.34c.12.09.31.13.55.13.26,0,.46-.04.58-.12.13-.08.22-.19.27-.33.05-.14.07-.29.07-.45v-4.52c0-.18-.02-.33-.06-.46-.04-.13-.13-.24-.26-.33Z" fill="#cae8f3"/><path d="m57.31,14.45c-.13-.09-.33-.13-.58-.13s-.43.04-.56.12c-.13.08-.22.19-.27.33-.05.14-.07.29-.07.45v10.33c0,.16.02.32.07.46.05.14.13.26.26.34s.31.12.55.12c.26,0,.46-.04.58-.12s.22-.19.27-.33c.05-.14.07-.29.07-.45v-10.33c0-.18-.02-.33-.06-.46-.04-.13-.13-.24-.26-.33Z" fill="#cae8f3"/><path d="m64.35,26.48h2.07c.21-.01.39-.05.51-.12.14-.08.23-.19.27-.34.04-.14.06-.3.06-.48v-5.55c0-1.26-.17-2.31-.52-3.14-.35-.83-.87-1.46-1.56-1.89-.69-.42-1.55-.64-2.58-.64h-.7c-.16,0-.32.03-.46.08s-.26.14-.34.27c-.08.12-.12.31-.12.57s.04.44.12.58c.08.14.2.23.34.28.14.05.3.07.48.07h.72c.63,0,1.15.14,1.56.43.41.29.72.72.92,1.29.21.57.31,1.29.31,2.16v4.58h-1.01" fill="#cae8f3"/><path d="m71.46,14.45c-.13-.09-.33-.13-.58-.13s-.43.04-.56.12c-.13.08-.22.19-.27.33-.05.14-.07.29-.07.45v4.52c0,.16.02.32.07.45s.13.25.26.34c.12.09.31.13.55.13.26,0,.46-.04.58-.12.13-.08.22-.19.27-.33.05-.14.07-.29.07-.45v-4.52c0-.18-.02-.33-.06-.46-.04-.13-.13-.24-.26-.33Z" fill="#cae8f3"/><path d="m86.82,14.45c-.13-.09-.32-.13-.56-.13s-.44.04-.57.11-.22.17-.28.3-.08.25-.08.39v4.95c0,.92-.17,1.73-.5,2.43-.34.71-.53,1.54-1.19,1.94s-2.03,1.63-3,1.63c-.92,0-3.82-1.05-2.11-1.89.11-.06-.21-.14-.31-.21.33-.08.64-.2.94-.38.5-.31.94-.76,1.31-1.33s.67-1.24.88-1.99c.21-.75.35-1.57.4-2.44l.12-2.61c.01-.16,0-.31-.04-.44-.04-.13-.13-.24-.27-.32s-.33-.12-.59-.12-.44.04-.57.11-.22.18-.28.31c-.05.13-.09.27-.1.42l-.08,2.69c-.01.64-.1,1.26-.25,1.86-.15.6-.36,1.13-.62,1.59-.26.47-.55.83-.86,1.1-.31.27-1.01,1.77-1.38,1.77h-.02c-.05-.08-.1-.16-.14-.25-.34-.7-.16-2.89-.16-3.83v-4.83c0-.18-.03-.34-.08-.48-.06-.14-.15-.26-.28-.34-.13-.08-.32-.12-.57-.12s-.44.04-.58.12-.23.2-.28.34c-.05.14-.07.3-.07.46v4.85c0,.93.13,1.79.4,2.57s.66,1.46,1.19,2.04c.53.58,1.17,1.04,1.94,1.37s1.64.49,2.63.49,1.91-.16,2.69-.48c.78-.32,1.44-.77,1.99-1.36.55-.58.96-1.26,1.23-2.04.27-.78.41-1.63.41-2.55v-4.87c0-.18-.02-.34-.07-.47-.05-.14-.14-.25-.27-.34Z" fill="#cae8f3"/><path d="m96.74,26.48h1.61c.32,0,.55-.11.71-.34.16-.23.24-.56.24-1v-8.98h1.89c.85,0,1.55.17,2.12.5.56.34.98.83,1.26,1.49s.42,1.49.42,2.49v5.03c0,.14.03.27.08.4.05.13.15.23.28.3s.32.1.57.1.43-.04.56-.12.22-.19.27-.34c.05-.14.07-.3.07-.48v-4.93c0-1.41-.22-2.58-.67-3.51-.45-.93-1.1-1.63-1.97-2.09-.87-.47-1.95-.69-3.24-.68l-3.57.04c-.53.01-.89.1-1.07.25-.18.15-.27.42-.27.8,0,.21.04.37.11.48.08.12.2.2.37.26.17.06.4.08.68.08.08,0,.17,0,.26,0v8.4h-.41" fill="#cae8f3"/><path d="m115.85,15.91c-.48-.53-1.07-.92-1.78-1.19s-1.53-.4-2.47-.4h-2.44c-.18,0-.33.03-.47.08-.14.05-.25.14-.33.27-.08.12-.12.31-.12.57s.04.44.12.58c.08.14.19.23.33.28.14.05.3.07.49.07h2.49c.63,0,1.18.09,1.65.28.47.19.87.47,1.19.84.32.38.56.85.72,1.41s.24,1.21.24,1.95v5.03c0,.14.03.27.08.4.05.13.15.23.28.3s.32.1.56.1.43-.04.57-.12c.13-.08.22-.19.27-.34.05-.14.07-.3.07-.48v-4.93c0-1.04-.12-1.95-.36-2.73-.24-.78-.6-1.43-1.08-1.96Z" fill="#cae8f3"/><path d="m121.94,14.45c-.13-.09-.33-.13-.58-.13s-.43.04-.56.12c-.13.08-.22.19-.27.33-.05.14-.07.29-.07.45v4.52c0,.16.02.32.07.45s.13.25.26.34c.12.09.31.13.55.13.26,0,.46-.04.58-.12.13-.08.22-.19.27-.33.05-.14.07-.29.07-.45v-4.52c0-.18-.02-.33-.06-.46-.04-.13-.13-.24-.26-.33Z" fill="#cae8f3"/><path d="m133.77,26.48h1.47c.26,0,.45-.02.58-.07s.21-.14.25-.27c.04-.13.06-.33.06-.59v-5.69c0-1.25-.17-2.29-.51-3.13-.34-.84-.84-1.47-1.49-1.89-.65-.42-1.44-.63-2.37-.63-.56,0-1.05.08-1.47.23-.42.15-.79.36-1.12.64-.33.27-.61.6-.85.98-.24.38-.46.79-.65,1.25-.04.1-.07.21-.1.31l-.66-2.55c-.03-.12-.07-.26-.12-.4-.05-.14-.16-.25-.31-.32-.15-.07-.38-.07-.7,0-.26.07-.44.16-.54.28-.1.12-.15.25-.15.4s.03.32.08.51l1.09,4.09-1.2,5.94c-.05.3,0,.53.14.69s.4.24.76.24c.23,0,.41-.04.54-.13.13-.09.22-.21.28-.36.05-.15.1-.31.12-.49l1.11-5.44c.14-.59.3-1.13.5-1.61.2-.49.43-.91.71-1.26.27-.36.6-.63.97-.83.37-.2.78-.3,1.23-.3.62,0,1.14.14,1.57.41.43.27.76.7.99,1.27s.34,1.31.34,2.2v4.7h-.95" fill="#cae8f3"/><path d="m151.37,14.79c-.05-.14-.14-.25-.27-.34-.13-.09-.32-.13-.56-.13s-.44.04-.57.11-.22.17-.28.3-.08.25-.08.39v4.95c0,.92-.17,1.73-.5,2.43-.34.71-1.2,2.46-1.86,2.86s-1.47.6-2.44.6c-.92,0-1.95-.3-1.99-1.78,0-.13-.21-.14-.31-.21.33-.08.64-.2.94-.38.5-.31.94-.76,1.31-1.33s.67-1.24.88-1.99c.21-.75.35-1.57.4-2.44l.12-2.61c.01-.16,0-.31-.04-.44-.04-.13-.13-.24-.27-.32s-.33-.12-.59-.12-.44.04-.57.11-.22.18-.28.31c-.05.13-.09.27-.1.42l-.08,2.69c-.01.64-.1,1.26-.25,1.86-.15.6-.36,1.13-.62,1.59-.26.47-.55.83-.86,1.1-.31.27-.97,1.49-1.34,1.49h-.02c-.05-.08-.1-.16-.14-.25-.34-.7-.2-2.61-.2-3.55v-4.83c0-.18-.03-.34-.08-.48-.06-.14-.15-.26-.28-.34-.13-.08-.32-.12-.57-.12s-.44.04-.58.12-.23.2-.28.34c-.05.14-.07.3-.07.46v4.85c0,.93.13,1.79.4,2.57s.66,1.46,1.19,2.04c.53.58,1.17,1.04,1.94,1.37s1.64.49,2.63.49,1.91-.16,2.69-.48c.78-.32,1.44-.77,1.99-1.36.55-.58.96-1.26,1.23-2.04.27-.78.41-1.63.41-2.55v-4.87c0-.18-.02-.34-.07-.47Z" fill="#cae8f3"/></g><path d="m40.03,16.25c-.91-.52-2.03-.78-3.3-.78h-4.07c-.59,0-1.07.17-1.42.49-.25.24-.56.68-.56,1.42v10.17c0,.26.04.5.12.73.11.33.33.6.62.79.26.16.57.25,1.02.25h8.72c.4,0,.72-.09.98-.25.31-.19.52-.48.62-.82.06-.22.09-.46.09-.72v-5.55c0-1.34-.23-2.5-.69-3.45-.48-.99-1.2-1.76-2.13-2.29Zm-.68,9.53h-5.14v-6.76h2.58c.61,0,1.11.11,1.48.32.34.2.59.49.78.9.2.46.31,1.07.31,1.81v3.73Z" fill="#03072d"/><path d="m46.64,15.75c-.28-.19-.63-.28-1.07-.28-.41,0-.75.08-1.02.25-.29.18-.51.45-.62.77-.08.23-.12.47-.12.73v4.52c0,.26.04.51.12.73.1.3.3.56.56.75.27.2.62.29,1.05.29s.77-.08,1.04-.26c.29-.18.5-.45.61-.77.08-.23.12-.47.12-.73v-4.52c0-.26-.03-.5-.1-.72-.1-.31-.3-.58-.59-.77Z" fill="#03072d"/><path d="m51.71,15.75c-.28-.19-.63-.28-1.07-.28-.41,0-.75.08-1.02.25-.29.18-.51.45-.62.77-.08.23-.12.47-.12.73v4.52c0,.26.04.51.12.73.1.3.3.56.56.75.27.2.62.29,1.05.29s.77-.08,1.04-.26c.29-.18.5-.45.61-.77.08-.23.12-.47.12-.73v-4.52c0-.26-.03-.5-.1-.72-.1-.31-.3-.58-.59-.77Z" fill="#03072d"/><path d="m56.79,15.75c-.28-.19-.63-.28-1.07-.28-.41,0-.75.08-1.02.25-.29.18-.51.45-.62.77-.08.23-.12.47-.12.73v10.33c0,.25.04.5.12.73.11.32.31.59.59.78.27.18.6.27,1.03.27s.77-.08,1.04-.25c.29-.18.5-.45.62-.77.08-.23.12-.47.12-.73v-10.33c0-.26-.03-.5-.1-.72-.1-.31-.3-.58-.59-.77Z" fill="#03072d"/><path d="m64.62,16.23c-.83-.51-1.84-.76-3.02-.76h-.7c-.27,0-.52.05-.76.14-.31.12-.57.32-.74.59-.18.27-.27.61-.27,1.05,0,.41.08.74.24,1.01.19.31.46.54.8.65.23.08.48.12.75.12h.72c.45,0,.81.09,1.07.28.26.19.46.47.61.88.17.48.26,1.11.26,1.87v3.73h-3.07c-.27,0-.53.04-.75.12-.32.11-.58.32-.77.62-.17.27-.25.61-.25,1.04s.08.75.25,1.02c.18.28.43.49.73.61.24.1.51.14.81.14h4.91c.36-.01.67-.09.93-.25.32-.19.55-.48.65-.83.06-.22.09-.46.09-.72v-5.55c0-1.37-.2-2.53-.59-3.47-.42-1-1.06-1.77-1.9-2.29Z" fill="#03072d"/><path d="m70.94,15.75c-.28-.19-.63-.28-1.07-.28-.41,0-.75.08-1.02.25-.29.18-.51.45-.62.77-.08.23-.12.47-.12.73v4.52c0,.26.04.51.12.73.1.3.3.56.56.75.27.2.62.29,1.05.29s.77-.08,1.04-.26c.29-.18.5-.45.61-.77.08-.23.12-.47.12-.73v-4.52c0-.26-.03-.5-.1-.72-.1-.31-.3-.58-.59-.77Z" fill="#03072d"/><path d="m86.3,15.75c-.27-.19-.62-.28-1.04-.28s-.73.07-.99.23c-.28.16-.5.4-.63.69-.1.23-.16.48-.16.74v4.95c0,.79-.14,1.48-.42,2.07-.27.56-.65.98-1.16,1.29-.52.31-1.19.47-2,.47-.24,0-.47-.02-.69-.05.36-.32.69-.7.98-1.14.42-.64.75-1.39.99-2.23.23-.81.37-1.69.43-2.63l.12-2.58c.02-.27,0-.53-.08-.77-.1-.33-.33-.6-.64-.79-.27-.16-.61-.24-1.03-.24s-.73.07-.99.23c-.29.17-.51.41-.64.71-.09.21-.14.44-.17.72l-.08,2.7c-.01.58-.09,1.14-.22,1.67-.13.52-.31.99-.53,1.39-.21.38-.44.67-.67.87-.01.01-.03.02-.04.03-.17-.49-.26-1.06-.26-1.7v-4.83c0-.28-.05-.54-.14-.79-.12-.31-.33-.57-.62-.75-.27-.17-.6-.25-1.02-.25s-.74.08-1.01.24c-.31.19-.53.46-.64.79-.08.23-.12.48-.12.74v4.85c0,1.02.15,1.98.45,2.84.3.89.76,1.67,1.37,2.34.61.67,1.36,1.2,2.24,1.58.87.37,1.87.56,2.96.56s2.13-.18,3.01-.55c.89-.37,1.66-.89,2.29-1.56.63-.67,1.1-1.46,1.42-2.34.31-.87.46-1.82.46-2.83v-4.87c0-.27-.04-.52-.12-.75-.11-.31-.31-.57-.59-.76Z" fill="#03072d"/><path d="m103.58,16.25c-.97-.52-2.15-.78-3.53-.78l-3.7.04c-.75.02-1.26.16-1.6.45-.38.32-.57.81-.57,1.45,0,.37.08.69.25.94.13.2.37.46.82.61.11.03.22.06.35.08v6.74h-.92c-.26,0-.51.04-.74.12-.32.11-.58.32-.76.62-.17.27-.25.61-.25,1.04s.08.75.25,1.02c.18.28.43.49.73.61.24.1.5.14.79.14h2.65c.59,0,1.09-.25,1.41-.7.26-.38.39-.86.39-1.48v-8.12h1.04c.69,0,1.25.13,1.68.38.41.24.71.6.92,1.09.23.55.35,1.27.35,2.15v5.03c0,.25.05.5.15.73.13.31.36.56.67.72.26.14.57.2.96.2.41,0,.75-.08,1.02-.25.3-.19.51-.46.62-.79.08-.23.12-.48.12-.75v-4.93c0-1.53-.25-2.84-.75-3.88-.52-1.09-1.31-1.93-2.34-2.48Z" fill="#03072d"/><path d="m115.48,17.34c-.57-.62-1.28-1.1-2.11-1.41-.8-.3-1.73-.46-2.78-.46h-2.44c-.29,0-.55.05-.79.14-.3.12-.55.32-.72.59-.18.27-.27.61-.27,1.05,0,.41.08.74.24,1.01.18.31.45.53.78.64.23.08.48.12.78.12h2.49c.52,0,.97.07,1.34.22.34.13.62.33.85.6.24.28.42.65.55,1.08.14.49.21,1.06.21,1.72v5.03c0,.25.05.5.15.73.13.31.36.56.67.72.26.14.57.2.96.2.41,0,.75-.08,1.02-.25.3-.19.51-.46.62-.79.08-.23.12-.48.12-.75v-4.93c0-1.12-.13-2.12-.4-2.98-.28-.9-.7-1.66-1.26-2.28Z" fill="#03072d"/><path d="m121.42,15.75c-.28-.19-.63-.28-1.07-.28-.41,0-.75.08-1.02.25-.29.18-.51.45-.62.77-.08.23-.12.47-.12.73v4.52c0,.26.04.51.12.73.1.3.3.56.56.75.27.2.62.29,1.05.29s.77-.08,1.04-.26c.29-.18.5-.45.61-.77.08-.23.12-.47.12-.73v-4.52c0-.26-.03-.5-.1-.72-.1-.31-.3-.58-.59-.77Z" fill="#03072d"/><path d="m133.58,16.13c-.79-.5-1.74-.76-2.83-.76-.66,0-1.25.09-1.76.28-.51.18-.97.45-1.38.78-.29.24-.55.52-.79.83l-.1-.39c-.04-.16-.09-.33-.16-.51-.13-.36-.39-.63-.75-.79-.19-.08-.4-.13-.64-.13-.18,0-.37.02-.63.08-.43.11-.75.29-.96.53-.24.27-.37.61-.37.97,0,.23.04.48.11.73l1.04,3.9-1.16,5.76c-.13.73.13,1.18.37,1.43.32.33.78.5,1.37.5.41,0,.75-.1,1.02-.28.28-.19.48-.46.6-.77.07-.2.13-.42.16-.61l1.1-5.42c.13-.54.28-1.04.46-1.48.17-.41.37-.77.6-1.07.2-.26.43-.46.69-.6.25-.13.52-.2.83-.2.45,0,.83.09,1.12.28.28.18.49.46.65.87.19.47.28,1.11.28,1.89v3.85h-3.2c-.27,0-.52.04-.75.12-.33.11-.6.32-.79.62-.17.27-.25.61-.25,1.04s.08.75.26,1.02c.18.28.44.49.75.61.24.09.5.14.76.14h4.99c.38,0,.66-.04.88-.13.36-.14.63-.42.75-.8.07-.22.1-.49.1-.84v-5.69c0-1.35-.19-2.51-.58-3.45-.41-1-1.02-1.77-1.82-2.29Z" fill="#03072d"/><path d="m151.17,16.51c-.11-.31-.31-.57-.59-.76-.27-.19-.62-.28-1.04-.28s-.73.07-.99.23c-.28.16-.5.4-.63.69-.1.23-.16.48-.16.74v4.95c0,.79-.14,1.48-.42,2.07-.27.56-.65.98-1.16,1.29-.52.31-1.19.47-2,.47-.24,0-.47-.02-.69-.05.36-.32.69-.7.98-1.14.42-.64.75-1.39.99-2.23.23-.81.37-1.69.43-2.63l.12-2.58c.02-.27,0-.53-.08-.77-.1-.33-.33-.6-.64-.79-.27-.16-.61-.24-1.03-.24s-.73.07-.99.23c-.29.17-.51.41-.64.71-.09.21-.14.44-.17.72l-.08,2.7c-.01.58-.09,1.14-.22,1.67-.13.52-.31.99-.53,1.39-.21.38-.44.67-.67.87-.01.01-.03.02-.04.03-.17-.49-.26-1.06-.26-1.7v-4.83c0-.28-.05-.54-.14-.79-.12-.31-.33-.57-.62-.75-.27-.17-.6-.25-1.02-.25s-.74.08-1.01.24c-.31.19-.53.46-.64.79-.08.23-.12.48-.12.74v4.85c0,1.02.15,1.98.45,2.84.3.89.76,1.67,1.37,2.34.61.67,1.36,1.2,2.24,1.58.87.37,1.87.56,2.96.56s2.13-.18,3.01-.55c.89-.37,1.66-.89,2.29-1.56.63-.67,1.1-1.46,1.42-2.34.31-.87.46-1.82.46-2.83v-4.87c0-.27-.04-.52-.12-.75Z" fill="#03072d"/><path d="m40.61,15.99c-.79-.44-1.75-.67-2.89-.67h-4.07c-.37,0-.65.09-.84.27-.19.18-.29.45-.29.8v10.17c0,.16.02.32.07.46.05.14.14.26.27.34.12.08.3.11.52.12h0s8.75,0,8.75,0h0c.24,0,.42-.05.54-.12.13-.08.22-.19.26-.34.04-.14.06-.3.06-.48v-5.55c0-1.22-.2-2.25-.61-3.08-.4-.84-1-1.48-1.79-1.92Zm.58,9.64h-6.84v-8.46h3.43c.77,0,1.4.14,1.9.43.5.29.88.72,1.13,1.29.25.57.38,1.29.38,2.16v4.58Z" fill="#fff"/><path d="m47.16,15.45c-.13-.09-.33-.13-.58-.13s-.43.04-.56.12c-.13.08-.22.19-.27.33-.05.14-.07.29-.07.45v4.52c0,.16.02.32.07.45s.13.25.26.34c.12.09.31.13.55.13.26,0,.46-.04.58-.12.13-.08.22-.19.27-.33.05-.14.07-.29.07-.45v-4.52c0-.18-.02-.33-.06-.46-.04-.13-.13-.24-.26-.33Z" fill="#fff"/><path d="m52.23,15.45c-.13-.09-.33-.13-.58-.13s-.43.04-.56.12c-.13.08-.22.19-.27.33-.05.14-.07.29-.07.45v4.52c0,.16.02.32.07.45s.13.25.26.34c.12.09.31.13.55.13.26,0,.46-.04.58-.12.13-.08.22-.19.27-.33.05-.14.07-.29.07-.45v-4.52c0-.18-.02-.33-.06-.46-.04-.13-.13-.24-.26-.33Z" fill="#fff"/><path d="m57.31,15.45c-.13-.09-.33-.13-.58-.13s-.43.04-.56.12c-.13.08-.22.19-.27.33-.05.14-.07.29-.07.45v10.33c0,.16.02.32.07.46.05.14.13.26.26.34s.31.12.55.12c.26,0,.46-.04.58-.12s.22-.19.27-.33c.05-.14.07-.29.07-.45v-10.33c0-.18-.02-.33-.06-.46-.04-.13-.13-.24-.26-.33Z" fill="#fff"/><path d="m65.17,15.96c-.69-.42-1.55-.64-2.58-.64h-.7c-.16,0-.32.03-.46.08s-.26.14-.34.27c-.08.12-.12.31-.12.57s.04.44.12.58c.08.14.2.23.34.28.14.05.3.07.48.07h.72c.63,0,1.15.14,1.56.43.41.29.72.72.92,1.29.21.57.31,1.29.31,2.16v4.58h-3.92c-.18,0-.33.02-.47.07-.14.05-.25.14-.33.27-.08.13-.12.33-.12.59,0,.25.04.43.12.56.08.13.19.22.33.28.14.05.3.08.49.08h4.89c.21-.01.39-.05.51-.12.14-.08.23-.19.27-.34.04-.14.06-.3.06-.48v-5.55c0-1.26-.17-2.31-.52-3.14-.35-.83-.87-1.46-1.56-1.89Z" fill="#fff"/><path d="m71.46,15.45c-.13-.09-.33-.13-.58-.13s-.43.04-.56.12c-.13.08-.22.19-.27.33-.05.14-.07.29-.07.45v4.52c0,.16.02.32.07.45s.13.25.26.34c.12.09.31.13.55.13.26,0,.46-.04.58-.12.13-.08.22-.19.27-.33.05-.14.07-.29.07-.45v-4.52c0-.18-.02-.33-.06-.46-.04-.13-.13-.24-.26-.33Z" fill="#fff"/><path d="m86.82,15.45c-.13-.09-.32-.13-.56-.13s-.44.04-.57.11-.22.17-.28.3-.08.25-.08.39v4.95c0,.92-.17,1.73-.5,2.43-.34.71-.83,1.26-1.49,1.65s-1.47.6-2.44.6c-.92,0-1.7-.19-2.36-.57-.11-.06-.21-.14-.31-.21.33-.08.64-.2.94-.38.5-.31.94-.76,1.31-1.33s.67-1.24.88-1.99c.21-.75.35-1.57.4-2.44l.12-2.61c.01-.16,0-.31-.04-.44-.04-.13-.13-.24-.27-.32s-.33-.12-.59-.12-.44.04-.57.11-.22.18-.28.31c-.05.13-.09.27-.1.42l-.08,2.69c-.01.64-.1,1.26-.25,1.86-.15.6-.36,1.13-.62,1.59-.26.47-.55.83-.86,1.1-.31.27-.66.4-1.03.4h-.02c-.05-.08-.1-.16-.14-.25-.34-.7-.51-1.52-.51-2.46v-4.83c0-.18-.03-.34-.08-.48-.06-.14-.15-.26-.28-.34-.13-.08-.32-.12-.57-.12s-.44.04-.58.12-.23.2-.28.34c-.05.14-.07.3-.07.46v4.85c0,.93.13,1.79.4,2.57s.66,1.46,1.19,2.04c.53.58,1.17,1.04,1.94,1.37s1.64.49,2.63.49,1.91-.16,2.69-.48c.78-.32,1.44-.77,1.99-1.36.55-.58.96-1.26,1.23-2.04.27-.78.41-1.63.41-2.55v-4.87c0-.18-.02-.34-.07-.47-.05-.14-.14-.25-.27-.34Z" fill="#fff"/><path d="m104.18,16c-.87-.47-1.95-.69-3.24-.68l-3.57.04c-.53.01-.89.1-1.07.25-.18.15-.27.42-.27.8,0,.21.04.37.11.48.08.12.2.2.37.26.17.06.4.08.68.08.08,0,.17,0,.26,0v8.4h-1.77c-.16,0-.32.02-.45.07-.14.05-.25.14-.33.27-.08.13-.12.33-.12.59,0,.25.04.43.12.56.08.13.19.22.33.28s.29.08.47.08h2.65c.32,0,.55-.11.71-.34.16-.23.24-.56.24-1v-8.98h1.89c.85,0,1.55.17,2.12.5.56.34.98.83,1.26,1.49s.42,1.49.42,2.49v5.03c0,.14.03.27.08.4.05.13.15.23.28.3s.32.1.57.1.43-.04.56-.12.22-.19.27-.34c.05-.14.07-.3.07-.48v-4.93c0-1.41-.22-2.58-.67-3.51-.45-.93-1.1-1.63-1.97-2.09Z" fill="#fff"/><path d="m115.85,16.91c-.48-.53-1.07-.92-1.78-1.19s-1.53-.4-2.47-.4h-2.44c-.18,0-.33.03-.47.08-.14.05-.25.14-.33.27-.08.12-.12.31-.12.57s.04.44.12.58c.08.14.19.23.33.28.14.05.3.07.49.07h2.49c.63,0,1.18.09,1.65.28.47.19.87.47,1.19.84.32.38.56.85.72,1.41s.24,1.21.24,1.95v5.03c0,.14.03.27.08.4.05.13.15.23.28.3s.32.1.56.1.43-.04.57-.12c.13-.08.22-.19.27-.34.05-.14.07-.3.07-.48v-4.93c0-1.04-.12-1.95-.36-2.73-.24-.78-.6-1.43-1.08-1.96Z" fill="#fff"/><path d="m121.94,15.45c-.13-.09-.33-.13-.58-.13s-.43.04-.56.12c-.13.08-.22.19-.27.33-.05.14-.07.29-.07.45v4.52c0,.16.02.32.07.45s.13.25.26.34c.12.09.31.13.55.13.26,0,.46-.04.58-.12.13-.08.22-.19.27-.33.05-.14.07-.29.07-.45v-4.52c0-.18-.02-.33-.06-.46-.04-.13-.13-.24-.26-.33Z" fill="#fff"/><path d="m134.12,15.85c-.65-.42-1.44-.63-2.37-.63-.56,0-1.05.08-1.47.23-.42.15-.79.36-1.12.64-.33.27-.61.6-.85.98-.24.38-.46.79-.65,1.25-.04.1-.07.21-.1.31l-.66-2.55c-.03-.12-.07-.26-.12-.4-.05-.14-.16-.25-.31-.32-.15-.07-.38-.07-.7,0-.26.07-.44.16-.54.28-.1.12-.15.25-.15.4s.03.32.08.51l1.09,4.09-1.2,5.94c-.05.3,0,.53.14.69s.4.24.76.24c.23,0,.41-.04.54-.13.13-.09.22-.21.28-.36.05-.15.1-.31.12-.49l1.11-5.44c.14-.59.3-1.13.5-1.61.2-.49.43-.91.71-1.26.27-.36.6-.63.97-.83.37-.2.78-.3,1.23-.3.62,0,1.14.14,1.57.41.43.27.76.7.99,1.27s.34,1.31.34,2.2v4.7h-4.05c-.18,0-.34.02-.48.07-.14.05-.26.14-.34.27-.08.13-.12.33-.12.59,0,.25.04.43.12.56.08.13.2.22.34.28.14.05.3.08.46.08h4.99c.26,0,.45-.02.58-.07s.21-.14.25-.27c.04-.13.06-.33.06-.59v-5.69c0-1.25-.17-2.29-.51-3.13-.34-.84-.84-1.47-1.49-1.89Z" fill="#fff"/><path d="m151.37,15.79c-.05-.14-.14-.25-.27-.34-.13-.09-.32-.13-.56-.13s-.44.04-.57.11-.22.17-.28.3-.08.25-.08.39v4.95c0,.92-.17,1.73-.5,2.43-.34.71-.83,1.26-1.49,1.65s-1.47.6-2.44.6c-.92,0-1.7-.19-2.36-.57-.11-.06-.21-.14-.31-.21.33-.08.64-.2.94-.38.5-.31.94-.76,1.31-1.33s.67-1.24.88-1.99c.21-.75.35-1.57.4-2.44l.12-2.61c.01-.16,0-.31-.04-.44-.04-.13-.13-.24-.27-.32s-.33-.12-.59-.12-.44.04-.57.11-.22.18-.28.31c-.05.13-.09.27-.1.42l-.08,2.69c-.01.64-.1,1.26-.25,1.86-.15.6-.36,1.13-.62,1.59-.26.47-.55.83-.86,1.1-.31.27-.66.4-1.03.4h-.02c-.05-.08-.1-.16-.14-.25-.34-.7-.51-1.52-.51-2.46v-4.83c0-.18-.03-.34-.08-.48-.06-.14-.15-.26-.28-.34-.13-.08-.32-.12-.57-.12s-.44.04-.58.12-.23.2-.28.34c-.05.14-.07.3-.07.46v4.85c0,.93.13,1.79.4,2.57s.66,1.46,1.19,2.04c.53.58,1.17,1.04,1.94,1.37s1.64.49,2.63.49,1.91-.16,2.69-.48c.78-.32,1.44-.77,1.99-1.36.55-.58.96-1.26,1.23-2.04.27-.78.41-1.63.41-2.55v-4.87c0-.18-.02-.34-.07-.47Z" fill="#fff"/><path d="m18.51,7.36c-.17.63-1.4.26-3.53.96-3.28,1.07-2.95,2.7-3.92,2.17-.59-.33.78-2.14,2.84-3,2.06-.86,4.77-.74,4.61-.12Z" fill="#fff"/><ellipse cx="10.16" cy="11.8" rx=".62" ry=".68" transform="translate(-1.89 21.66) rotate(-88.56)" fill="#fff"/></g></svg>