<?xml version="1.0" encoding="UTF-8"?><svg id="Layer_2" xmlns="http://www.w3.org/2000/svg" width="299.55" height="81.05" xmlns:xlink="http://www.w3.org/1999/xlink" viewBox="0 0 299.55 81.05"><defs><linearGradient id="linear-gradient" x1="152.45" y1="-55.37" x2="148.19" y2="96.96" gradientUnits="userSpaceOnUse"><stop offset=".44" stop-color="#3d4e88"/><stop offset=".53" stop-color="#35417b"/><stop offset=".7" stop-color="#2a3069"/></linearGradient></defs><g id="Layer_1-2"><g><g><g><g><path d="m139.48,81.02c-29.84-.08-58.02-.16-94.04-2.05C16.45,77.44,3.13,60.97.53,47.32.05,44.83,0,42.25,0,40.53c0-1.72.05-4.3.53-6.8C3.27,19.33,19.95,3.34,45.47,2.08,82.81.24,120.83,0,149.78,0c32.18,0,67.25.7,104.23,2.08,24.07.9,42.59,13.98,45.04,31.81.34,2.47.5,4.64.5,6.64s-.16,4.17-.5,6.64c-2.43,17.69-21.39,31.07-45.08,31.81-28.68.9-66.44,1.95-104.17,2.08h0l-10.31-.03Z" fill="#21284f"/><path d="m139.49,79.04c-29.8-.08-57.95-.16-93.87-2.05-27.45-1.45-40.07-17.04-42.52-29.95-.45-2.36-.5-4.85-.5-6.51,0-1.66.05-4.15.5-6.51C5.69,20.39,21.48,5.26,45.63,4.06c37.27-1.84,75.23-2.08,104.14-2.08,32.14,0,67.17.7,104.1,2.08,22.76.85,40.28,13.2,42.59,30.03.33,2.39.49,4.5.49,6.43s-.16,4.04-.49,6.43c-2.29,16.7-20.22,29.33-42.61,30.03-28.67.9-66.4,1.95-104.07,2.08h-.01l-10.28-.03Z" fill="#424e89"/><path d="m149.78,77.09c-34.69-.12-64.16.02-103.98-2.07-23.88-1.26-37.49-14.38-40.14-28.26-.38-2.01-.47-4.15-.47-6.22,0-2.07.09-4.21.47-6.22C8.31,20.42,24.09,7.12,45.8,6.04c34.41-1.7,69.44-2.07,103.98-2.07,34.54,0,70.36.82,103.98,2.07,22.53.84,38.09,13.35,40.13,28.26.28,2.06.47,4.15.47,6.22s-.19,4.16-.47,6.22c-2.05,14.91-17.96,27.56-40.14,28.26-33.62,1.06-69.28,1.96-103.98,2.07Z" fill="url(#linear-gradient)"/><path d="m45.8,6.04C24.23,7.06,8.31,20.42,5.66,34.3c-.38,2.01-.47,4.15-.47,6.22,0,2.07.16,4.14.47,6.22.55,3.65,2.12,7.1,4.4,10.28,1.47-27.12,51.03-34.3,78-38.25,52.17-7.62,106-8.87,158.76-12.99-32.35-1.09-64.81-1.83-97.04-1.83-34.54,0-69.56.44-103.98,2.07Z" fill="#fff" opacity=".04"/></g><path d="m45.8,75.01c34.3,2.48,69.44,2.07,103.98,2.07,34.54,0,70.22-.72,103.98-2.07,19.89-.8,33.25-10.26,38.44-22.6-34.6,24.11-101.32,20.81-143.8,21.33-36.53.45-116.59,4.6-141.85-23.5,3.62,11.05,14.49,22.98,39.26,24.77Z" fill="#20294f"/></g><g opacity=".92"><path d="m33.58,14.98c.64.59.64,1.55,0,2.14s-1.67.59-2.3,0-.64-1.55,0-2.14,1.67-.59,2.3,0Z" fill="#e8eaef"/><path d="m40.76,12.24c.33.62-1.89,2.25-3.75,2.81-.72.22-1.19.21-1.53,0-.42-.26-.64-.82-.56-1.22.31-1.54,5.4-2.43,5.84-1.59Z" fill="#e8eaef"/></g></g><g><g><g><path d="m29.33,34.19c-.33,0-.63-.04-.89-.13-.27-.09-.48-.26-.63-.51-.15-.25-.23-.61-.23-1.06,0-.48.08-.84.23-1.06.15-.23.36-.39.63-.49.27-.1.55-.15.85-.15h15.88c.33,0,.61.05.85.15.24.1.44.27.59.49.15.23.23.58.23,1.06,0,.46-.08.81-.23,1.06-.15.25-.36.42-.61.51-.25.09-.54.13-.87.13h-15.81Zm11.51,19.08c-.46,0-.8-.08-1.03-.23-.23-.15-.39-.36-.49-.63-.1-.27-.15-.56-.15-.89v-17.82l3.38.15v17.94c0,.25-.04.5-.13.74-.09.24-.25.42-.49.55-.24.13-.6.19-1.08.19Z" fill="#1f272b"/><path d="m53.61,53.27c-.46,0-.8-.08-1.03-.23-.23-.15-.39-.36-.48-.63-.09-.27-.13-.55-.13-.85v-19.11c0-.3.04-.58.13-.84.09-.25.25-.46.49-.61.24-.15.59-.23,1.04-.23.48,0,.84.08,1.08.25.24.17.4.37.48.61.08.24.11.53.11.86v19.11c0,.3-.04.58-.13.84-.09.25-.25.46-.49.61-.24.15-.6.23-1.08.23Z" fill="#1f272b"/><path d="m79.22,35.07l-2.62-.87h-14.17c-.33,0-.63-.05-.89-.15-.27-.1-.48-.28-.63-.53-.15-.25-.23-.61-.23-1.06,0-.48.08-.84.23-1.06s.36-.39.63-.48c.27-.09.55-.13.85-.13h13.91c.91,0,1.63.19,2.17.57.53.38.87.89,1.01,1.54.14.65.06,1.37-.25,2.19Zm-16.26,23.94c-.46,0-.8-.08-1.03-.23-.23-.15-.39-.35-.48-.61-.09-.25-.13-.55-.13-.87v-16.34c0-.3.04-.58.13-.84.09-.25.25-.45.49-.59.24-.14.59-.21,1.04-.21.48,0,.84.08,1.08.23.24.15.4.35.48.59.08.24.11.53.11.85v16.34c0,.33-.04.61-.13.85-.09.24-.25.44-.49.59-.24.15-.6.23-1.08.23Zm8.4-5.81c-.66-.23-1.11-.5-1.35-.82-.24-.32-.27-.72-.1-1.2.33-.84.71-1.84,1.14-3.02.43-1.18.89-2.44,1.39-3.8.49-1.35.99-2.73,1.48-4.12.49-1.39.96-2.72,1.39-3.99.43-1.27.81-2.39,1.14-3.38l2.85,1.98c-.28.96-.62,2.06-1.03,3.29-.41,1.23-.84,2.51-1.29,3.84-.46,1.33-.91,2.63-1.35,3.9-.44,1.27-.85,2.43-1.23,3.48-.38,1.05-.7,1.91-.95,2.57-.13.3-.29.58-.48.82-.19.24-.41.4-.65.49-.24.09-.56.08-.97-.02Z" fill="#1f272b"/><path d="m97.35,53.27c-.46,0-.8-.06-1.04-.19-.24-.13-.41-.31-.51-.55-.1-.24-.15-.49-.15-.74v-9.31c0-1.37-.15-2.57-.44-3.61-.29-1.04-.74-1.91-1.33-2.6-.6-.7-1.33-1.22-2.2-1.56-.87-.34-1.89-.51-3.06-.51h-4.6c-.36,0-.66-.04-.91-.13-.25-.09-.46-.26-.61-.51-.15-.25-.23-.61-.23-1.06,0-.48.08-.84.23-1.06.15-.23.35-.39.61-.49.25-.1.54-.15.87-.15h4.52c1.75,0,3.27.25,4.58.74,1.3.49,2.4,1.23,3.29,2.2.89.98,1.55,2.19,2,3.63.44,1.44.67,3.13.67,5.05v9.12c0,.33-.04.63-.13.89-.09.27-.25.48-.49.63-.24.15-.59.23-1.04.23Z" fill="#1f272b"/><path d="m105.94,53.27c-.33,0-.63-.04-.89-.13-.27-.09-.48-.25-.63-.49-.15-.24-.23-.59-.23-1.04,0-.48.08-.84.23-1.08.15-.24.36-.4.63-.49.27-.09.55-.13.85-.13h16.49c.33,0,.62.04.87.13.25.09.46.25.61.49.15.24.23.6.23,1.08,0,.46-.08.8-.23,1.04-.15.24-.35.4-.61.49-.25.09-.56.13-.91.13h-16.42Zm13.34,0c-.46,0-.8-.06-1.04-.19-.24-.13-.41-.3-.51-.53-.1-.23-.15-.47-.15-.72v-9.35c0-1.37-.15-2.57-.44-3.61-.29-1.04-.73-1.91-1.31-2.6-.58-.7-1.31-1.22-2.19-1.56-.87-.34-1.91-.51-3.1-.51h-4.22c-.33,0-.63-.04-.89-.13-.27-.09-.47-.26-.63-.51-.15-.25-.23-.61-.23-1.06,0-.48.08-.84.23-1.06.15-.23.35-.39.61-.49.25-.1.54-.15.87-.15h4.14c1.75,0,3.28.25,4.6.74,1.32.49,2.41,1.23,3.29,2.2.87.98,1.53,2.19,1.98,3.63.44,1.44.66,3.13.66,5.05v9.16c0,.33-.04.62-.11.87-.08.25-.24.46-.49.61-.25.15-.61.23-1.06.23Z" fill="#1f272b"/><path d="m139.45,53.27c-.33,0-.62-.05-.87-.15-.25-.1-.46-.27-.61-.51-.15-.24-.23-.59-.23-1.04,0-.48.08-.84.23-1.08.15-.24.35-.4.61-.49.25-.09.53-.13.84-.13h3.27v-16.64l1.41,1.06c-.73.03-1.36.04-1.88.04s-.94-.05-1.25-.15c-.32-.1-.54-.26-.68-.48-.14-.21-.21-.51-.21-.89,0-.71.16-1.2.49-1.48.33-.28.99-.43,1.98-.46l6.61-.08c2.38-.02,4.38.39,5.98,1.25,1.61.86,2.82,2.15,3.65,3.88.82,1.72,1.23,3.89,1.23,6.5v9.12c0,.33-.04.63-.13.89-.09.27-.25.48-.49.63-.24.15-.59.23-1.04.23s-.8-.06-1.04-.19c-.24-.13-.41-.31-.51-.55-.1-.24-.15-.49-.15-.74v-9.31c0-1.85-.26-3.38-.78-4.6-.52-1.22-1.3-2.13-2.34-2.76-1.04-.62-2.34-.93-3.91-.93h-3.5v16.61c0,.81-.15,1.42-.44,1.84-.29.42-.73.63-1.31.63h-4.9Z" fill="#1f272b"/><path d="m183.53,35.07l-2.62-.87h-14.17c-.33,0-.63-.05-.89-.15-.27-.1-.48-.28-.63-.53-.15-.25-.23-.61-.23-1.06,0-.48.08-.84.23-1.06s.36-.39.63-.48c.27-.09.55-.13.85-.13h13.91c.91,0,1.63.19,2.17.57.53.38.87.89,1.01,1.54.14.65.06,1.37-.25,2.19Zm-16.26,23.94c-.46,0-.8-.08-1.03-.23-.23-.15-.39-.35-.48-.61-.09-.25-.13-.55-.13-.87v-16.34c0-.3.04-.58.13-.84.09-.25.25-.45.49-.59.24-.14.59-.21,1.04-.21.48,0,.84.08,1.08.23.24.15.4.35.48.59.08.24.11.53.11.85v16.34c0,.33-.04.61-.13.85-.09.24-.25.44-.49.59-.24.15-.6.23-1.08.23Zm8.4-5.81c-.66-.23-1.11-.5-1.35-.82-.24-.32-.27-.72-.1-1.2.33-.84.71-1.84,1.14-3.02.43-1.18.89-2.44,1.39-3.8.49-1.35.99-2.73,1.48-4.12.49-1.39.96-2.72,1.39-3.99.43-1.27.81-2.39,1.14-3.38l2.85,1.98c-.28.96-.62,2.06-1.03,3.29-.41,1.23-.84,2.51-1.29,3.84-.46,1.33-.91,2.63-1.35,3.9-.44,1.27-.85,2.43-1.23,3.48-.38,1.05-.7,1.91-.95,2.57-.13.3-.29.58-.48.82-.19.24-.41.4-.65.49-.24.09-.56.08-.97-.02Z" fill="#1f272b"/><path d="m190.11,42.51c-.46,0-.8-.08-1.03-.25-.23-.16-.39-.37-.48-.63-.09-.25-.13-.53-.13-.84v-8.36c0-.3.04-.58.13-.84.09-.25.25-.46.49-.61.24-.15.59-.23,1.04-.23.48,0,.84.08,1.08.25.24.17.4.37.48.61.08.24.11.53.11.86v8.36c0,.3-.04.58-.13.84-.09.25-.25.46-.49.61s-.6.23-1.08.23Z" fill="#1f272b"/><path d="m211.05,53.27c-.46,0-.8-.06-1.04-.19-.24-.13-.41-.31-.51-.55-.1-.24-.15-.49-.15-.74v-9.31c0-1.37-.15-2.57-.44-3.61-.29-1.04-.74-1.91-1.33-2.6-.6-.7-1.33-1.22-2.2-1.56-.87-.34-1.89-.51-3.06-.51h-4.6c-.36,0-.66-.04-.91-.13-.25-.09-.46-.26-.61-.51-.15-.25-.23-.61-.23-1.06,0-.48.08-.84.23-1.06.15-.23.35-.39.61-.49.25-.1.54-.15.87-.15h4.52c1.75,0,3.27.25,4.58.74,1.3.49,2.4,1.23,3.29,2.2.89.98,1.55,2.19,2,3.63.44,1.44.67,3.13.67,5.05v9.12c0,.33-.04.63-.13.89-.09.27-.25.48-.49.63-.24.15-.59.23-1.04.23Z" fill="#1f272b"/><path d="m228.34,53.31c-2.13,0-3.98-.45-5.57-1.35-1.58-.9-2.79-2.19-3.63-3.88-.84-1.68-1.25-3.68-1.25-5.98v-9.35c0-.61.18-1.09.53-1.44.35-.35.82-.53,1.41-.53h8.25c2.18,0,4.04.45,5.59,1.35,1.54.9,2.74,2.2,3.57,3.9.84,1.7,1.25,3.71,1.25,6.04s-.41,4.34-1.22,6.02c-.81,1.69-1.98,2.98-3.5,3.88-1.52.9-3.33,1.35-5.43,1.35Zm-.15-3.42c2.15,0,3.84-.69,5.05-2.07,1.22-1.38,1.82-3.3,1.82-5.76,0-1.65-.27-3.06-.8-4.24-.53-1.18-1.31-2.08-2.34-2.7-1.03-.62-2.26-.93-3.71-.93h-6.92v7.87c0,2.46.61,4.38,1.82,5.76,1.22,1.38,2.9,2.07,5.05,2.07Z" fill="#1f272b"/></g><g><path d="m27.33,32.19c-.33,0-.63-.04-.89-.13-.27-.09-.48-.26-.63-.51-.15-.25-.23-.61-.23-1.06,0-.48.08-.84.23-1.06.15-.23.36-.39.63-.49.27-.1.55-.15.85-.15h15.88c.33,0,.61.05.85.15.24.1.44.27.59.49.15.23.23.58.23,1.06,0,.46-.08.81-.23,1.06-.15.25-.36.42-.61.51-.25.09-.54.13-.87.13h-15.81Zm11.51,19.08c-.46,0-.8-.08-1.03-.23-.23-.15-.39-.36-.49-.63-.1-.27-.15-.56-.15-.89v-17.82l3.38.15v17.94c0,.25-.04.5-.13.74-.09.24-.25.42-.49.55-.24.13-.6.19-1.08.19Z" fill="#fff"/><path d="m51.61,51.27c-.46,0-.8-.08-1.03-.23-.23-.15-.39-.36-.48-.63-.09-.27-.13-.55-.13-.85v-19.11c0-.3.04-.58.13-.84.09-.25.25-.46.49-.61.24-.15.59-.23,1.04-.23.48,0,.84.08,1.08.25.24.17.4.37.48.61.08.24.11.53.11.86v19.11c0,.3-.04.58-.13.84-.09.25-.25.46-.49.61-.24.15-.6.23-1.08.23Z" fill="#fff"/><path d="m77.22,33.07l-2.62-.87h-14.17c-.33,0-.63-.05-.89-.15-.27-.1-.48-.28-.63-.53-.15-.25-.23-.61-.23-1.06,0-.48.08-.84.23-1.06s.36-.39.63-.48c.27-.09.55-.13.85-.13h13.91c.91,0,1.63.19,2.17.57.53.38.87.89,1.01,1.54.14.65.06,1.37-.25,2.19Zm-16.26,23.94c-.46,0-.8-.08-1.03-.23-.23-.15-.39-.35-.48-.61-.09-.25-.13-.55-.13-.87v-16.34c0-.3.04-.58.13-.84.09-.25.25-.45.49-.59.24-.14.59-.21,1.04-.21.48,0,.84.08,1.08.23.24.15.4.35.48.59.08.24.11.53.11.85v16.34c0,.33-.04.61-.13.85-.09.24-.25.44-.49.59-.24.15-.6.23-1.08.23Zm8.4-5.81c-.66-.23-1.11-.5-1.35-.82-.24-.32-.27-.72-.1-1.2.33-.84.71-1.84,1.14-3.02.43-1.18.89-2.44,1.39-3.8.49-1.35.99-2.73,1.48-4.12.49-1.39.96-2.72,1.39-3.99.43-1.27.81-2.39,1.14-3.38l2.85,1.98c-.28.96-.62,2.06-1.03,3.29-.41,1.23-.84,2.51-1.29,3.84-.46,1.33-.91,2.63-1.35,3.9-.44,1.27-.85,2.43-1.23,3.48-.38,1.05-.7,1.91-.95,2.57-.13.3-.29.58-.48.82-.19.24-.41.4-.65.49-.24.09-.56.08-.97-.02Z" fill="#fff"/><path d="m95.35,51.27c-.46,0-.8-.06-1.04-.19-.24-.13-.41-.31-.51-.55-.1-.24-.15-.49-.15-.74v-9.31c0-1.37-.15-2.57-.44-3.61-.29-1.04-.74-1.91-1.33-2.6-.6-.7-1.33-1.22-2.2-1.56-.87-.34-1.89-.51-3.06-.51h-4.6c-.36,0-.66-.04-.91-.13-.25-.09-.46-.26-.61-.51-.15-.25-.23-.61-.23-1.06,0-.48.08-.84.23-1.06.15-.23.35-.39.61-.49.25-.1.54-.15.87-.15h4.52c1.75,0,3.27.25,4.58.74,1.3.49,2.4,1.23,3.29,2.2.89.98,1.55,2.19,2,3.63.44,1.44.67,3.13.67,5.05v9.12c0,.33-.04.63-.13.89-.09.27-.25.48-.49.63-.24.15-.59.23-1.04.23Z" fill="#fff"/><path d="m103.94,51.27c-.33,0-.63-.04-.89-.13-.27-.09-.48-.25-.63-.49-.15-.24-.23-.59-.23-1.04,0-.48.08-.84.23-1.08.15-.24.36-.4.63-.49.27-.09.55-.13.85-.13h16.49c.33,0,.62.04.87.13.25.09.46.25.61.49.15.24.23.6.23,1.08,0,.46-.08.8-.23,1.04-.15.24-.35.4-.61.49-.25.09-.56.13-.91.13h-16.42Zm13.34,0c-.46,0-.8-.06-1.04-.19-.24-.13-.41-.3-.51-.53-.1-.23-.15-.47-.15-.72v-9.35c0-1.37-.15-2.57-.44-3.61-.29-1.04-.73-1.91-1.31-2.6-.58-.7-1.31-1.22-2.19-1.56-.87-.34-1.91-.51-3.1-.51h-4.22c-.33,0-.63-.04-.89-.13-.27-.09-.47-.26-.63-.51-.15-.25-.23-.61-.23-1.06,0-.48.08-.84.23-1.06.15-.23.35-.39.61-.49.25-.1.54-.15.87-.15h4.14c1.75,0,3.28.25,4.6.74,1.32.49,2.41,1.23,3.29,2.2.87.98,1.53,2.19,1.98,3.63.44,1.44.66,3.13.66,5.05v9.16c0,.33-.04.62-.11.87-.08.25-.24.46-.49.61-.25.15-.61.23-1.06.23Z" fill="#fff"/><path d="m137.45,51.27c-.33,0-.62-.05-.87-.15-.25-.1-.46-.27-.61-.51-.15-.24-.23-.59-.23-1.04,0-.48.08-.84.23-1.08.15-.24.35-.4.61-.49.25-.09.53-.13.84-.13h3.27v-16.64l1.41,1.06c-.73.03-1.36.04-1.88.04s-.94-.05-1.25-.15c-.32-.1-.54-.26-.68-.48-.14-.21-.21-.51-.21-.89,0-.71.16-1.2.49-1.48.33-.28.99-.43,1.98-.46l6.61-.08c2.38-.02,4.38.39,5.98,1.25,1.61.86,2.82,2.15,3.65,3.88.82,1.72,1.23,3.89,1.23,6.5v9.12c0,.33-.04.63-.13.89-.09.27-.25.48-.49.63-.24.15-.59.23-1.04.23s-.8-.06-1.04-.19c-.24-.13-.41-.31-.51-.55-.1-.24-.15-.49-.15-.74v-9.31c0-1.85-.26-3.38-.78-4.6-.52-1.22-1.3-2.13-2.34-2.76-1.04-.62-2.34-.93-3.91-.93h-3.5v16.61c0,.81-.15,1.42-.44,1.84-.29.42-.73.63-1.31.63h-4.9Z" fill="#fff"/><path d="m181.53,33.07l-2.62-.87h-14.17c-.33,0-.63-.05-.89-.15-.27-.1-.48-.28-.63-.53-.15-.25-.23-.61-.23-1.06,0-.48.08-.84.23-1.06s.36-.39.63-.48c.27-.09.55-.13.85-.13h13.91c.91,0,1.63.19,2.17.57.53.38.87.89,1.01,1.54.14.65.06,1.37-.25,2.19Zm-16.26,23.94c-.46,0-.8-.08-1.03-.23-.23-.15-.39-.35-.48-.61-.09-.25-.13-.55-.13-.87v-16.34c0-.3.04-.58.13-.84.09-.25.25-.45.49-.59.24-.14.59-.21,1.04-.21.48,0,.84.08,1.08.23.24.15.4.35.48.59.08.24.11.53.11.85v16.34c0,.33-.04.61-.13.85-.09.24-.25.44-.49.59-.24.15-.6.23-1.08.23Zm8.4-5.81c-.66-.23-1.11-.5-1.35-.82-.24-.32-.27-.72-.1-1.2.33-.84.71-1.84,1.14-3.02.43-1.18.89-2.44,1.39-3.8.49-1.35.99-2.73,1.48-4.12.49-1.39.96-2.72,1.39-3.99.43-1.27.81-2.39,1.14-3.38l2.85,1.98c-.28.96-.62,2.06-1.03,3.29-.41,1.23-.84,2.51-1.29,3.84-.46,1.33-.91,2.63-1.35,3.9-.44,1.27-.85,2.43-1.23,3.48-.38,1.05-.7,1.91-.95,2.57-.13.3-.29.58-.48.82-.19.24-.41.4-.65.49-.24.09-.56.08-.97-.02Z" fill="#fff"/><path d="m188.11,40.51c-.46,0-.8-.08-1.03-.25-.23-.16-.39-.37-.48-.63-.09-.25-.13-.53-.13-.84v-8.36c0-.3.04-.58.13-.84.09-.25.25-.46.49-.61.24-.15.59-.23,1.04-.23.48,0,.84.08,1.08.25.24.17.4.37.48.61.08.24.11.53.11.86v8.36c0,.3-.04.58-.13.84-.09.25-.25.46-.49.61s-.6.23-1.08.23Z" fill="#fff"/><path d="m209.05,51.27c-.46,0-.8-.06-1.04-.19-.24-.13-.41-.31-.51-.55-.1-.24-.15-.49-.15-.74v-9.31c0-1.37-.15-2.57-.44-3.61-.29-1.04-.74-1.91-1.33-2.6-.6-.7-1.33-1.22-2.2-1.56-.87-.34-1.89-.51-3.06-.51h-4.6c-.36,0-.66-.04-.91-.13-.25-.09-.46-.26-.61-.51-.15-.25-.23-.61-.23-1.06,0-.48.08-.84.23-1.06.15-.23.35-.39.61-.49.25-.1.54-.15.87-.15h4.52c1.75,0,3.27.25,4.58.74,1.3.49,2.4,1.23,3.29,2.2.89.98,1.55,2.19,2,3.63.44,1.44.67,3.13.67,5.05v9.12c0,.33-.04.63-.13.89-.09.27-.25.48-.49.63-.24.15-.59.23-1.04.23Z" fill="#fff"/><path d="m226.34,51.31c-2.13,0-3.98-.45-5.57-1.35-1.58-.9-2.79-2.19-3.63-3.88-.84-1.68-1.25-3.68-1.25-5.98v-9.35c0-.61.18-1.09.53-1.44.35-.35.82-.53,1.41-.53h8.25c2.18,0,4.04.45,5.59,1.35,1.54.9,2.74,2.2,3.57,3.9.84,1.7,1.25,3.71,1.25,6.04s-.41,4.34-1.22,6.02c-.81,1.69-1.98,2.98-3.5,3.88-1.52.9-3.33,1.35-5.43,1.35Zm-.15-3.42c2.15,0,3.84-.69,5.05-2.07,1.22-1.38,1.82-3.3,1.82-5.76,0-1.65-.27-3.06-.8-4.24-.53-1.18-1.31-2.08-2.34-2.7-1.03-.62-2.26-.93-3.71-.93h-6.92v7.87c0,2.46.61,4.38,1.82,5.76,1.22,1.38,2.9,2.07,5.05,2.07Z" fill="#fff"/></g></g><g><g><path d="m251.64,38.83h8.3c.58,0,1.05-.5,1.05-1.11v-8.71c0-.61-.47-1.11-1.05-1.11h-8.3c-.58,0-1.05.5-1.05,1.11v8.71c0,.61.47,1.11,1.05,1.11Zm1.05-8.71h6.19v6.5h-6.19v-6.5Z" fill="#162836"/><path d="m251.64,38.83h8.3c.58,0,1.05-.5,1.05-1.11v-8.71c0-.61-.47-1.11-1.05-1.11h-8.3c-.58,0-1.05.5-1.05,1.11v8.71c0,.61.47,1.11,1.05,1.11Zm1.05-8.71h6.19v6.5h-6.19v-6.5Z" fill="#162836"/><path d="m251.64,54.34h8.3c.58,0,1.05-.5,1.05-1.11v-8.71c0-.61-.47-1.11-1.05-1.11h-8.3c-.58,0-1.05.5-1.05,1.11v8.71c0,.61.47,1.11,1.05,1.11Zm1.05-8.71h6.19v6.5h-6.19v-6.5Z" fill="#162836"/><path d="m251.64,54.34h8.3c.58,0,1.05-.5,1.05-1.11v-8.71c0-.61-.47-1.11-1.05-1.11h-8.3c-.58,0-1.05.5-1.05,1.11v8.71c0,.61.47,1.11,1.05,1.11Zm1.05-8.71h6.19v6.5h-6.19v-6.5Z" fill="#162836"/><path d="m266.4,38.83h8.3c.58,0,1.05-.5,1.05-1.11v-8.71c0-.61-.47-1.11-1.05-1.11h-8.3c-.58,0-1.05.5-1.05,1.11v8.71c0,.61.47,1.11,1.05,1.11Zm1.05-8.71h6.19v6.5h-6.19v-6.5Z" fill="#162836"/><path d="m266.4,38.83h8.3c.58,0,1.05-.5,1.05-1.11v-8.71c0-.61-.47-1.11-1.05-1.11h-8.3c-.58,0-1.05.5-1.05,1.11v8.71c0,.61.47,1.11,1.05,1.11Zm1.05-8.71h6.19v6.5h-6.19v-6.5Z" fill="#162836"/><path d="m266.97,54.34h8.06c.4,0,.73-.34.73-.77v-4.81c-.02-1.01-1.45-1.01-1.46,0v4.04h-6.6v-1.86c-.02-1.01-1.45-1.01-1.46,0v2.63c0,.42.33.77.73.77Z" fill="#162836"/><path d="m266.97,54.34h8.06c.4,0,.73-.34.73-.77v-4.81c-.02-1.01-1.45-1.01-1.46,0v4.04h-6.6v-1.86c-.02-1.01-1.45-1.01-1.46,0v2.63c0,.42.33.77.73.77Z" fill="#162836"/><path d="m275.76,46.22v-1.75c0-.42-.33-.77-.73-.77s-.73.34-.73.77v1.75c.02,1.01,1.45,1.01,1.46,0Z" fill="#162836"/><path d="m275.76,46.22v-1.75c0-.42-.33-.77-.73-.77s-.73.34-.73.77v1.75c.02,1.01,1.45,1.01,1.46,0Z" fill="#162836"/><path d="m275.76,44.26v-1.75c0-.42-.33-.77-.73-.77s-.73.34-.73.77v1.75c.02,1.01,1.45,1.01,1.46,0Z" fill="#162836"/><path d="m275.76,44.26v-1.75c0-.42-.33-.77-.73-.77s-.73.34-.73.77v1.75c.02,1.01,1.45,1.01,1.46,0Z" fill="#162836"/><path d="m275.76,42.36v-1.75c0-.42-.33-.77-.73-.77s-.73.34-.73.77v1.75c.02,1.01,1.45,1.01,1.46,0Z" fill="#162836"/><path d="m275.76,42.36v-1.75c0-.42-.33-.77-.73-.77s-.73.34-.73.77v1.75c.02,1.01,1.45,1.01,1.46,0Z" fill="#162836"/><path d="m270.13,40.71h-7.4c-.41,0-.74.35-.74.78v1.37c0,.43.33.78.74.78s.74-.35.74-.78v-.59h5.92v6.28c0,.43.33.78.74.78s.74-.35.74-.78v-1.15c.65-.03,1.59.21,1.66-.78,0-.43-.33-.78-.74-.78h-.92v-4.35c0-.43-.33-.78-.74-.78Z" fill="#162836"/><path d="m270.13,40.71h-7.4c-.41,0-.74.35-.74.78v1.37c0,.43.33.78.74.78s.74-.35.74-.78v-.59h5.92v6.28c0,.43.33.78.74.78s.74-.35.74-.78v-1.15c.65-.03,1.59.21,1.66-.78,0-.43-.33-.78-.74-.78h-.92v-4.35c0-.43-.33-.78-.74-.78Z" fill="#162836"/><path d="m265.73,46.66c.7-.01.7-1.1,0-1.11-.7.01-.7,1.1,0,1.11Z" fill="#162836"/><path d="m265.73,46.66c.7-.01.7-1.1,0-1.11-.7.01-.7,1.1,0,1.11Z" fill="#162836"/><path d="m258.15,42.06c.7-.01.7-1.1,0-1.11-.7.01-.7,1.1,0,1.11Z" fill="#162836"/><path d="m258.15,42.06c.7-.01.7-1.1,0-1.11-.7.01-.7,1.1,0,1.11Z" fill="#162836"/><path d="m263.17,38.18c.7-.01.7-1.1,0-1.11-.7.01-.7,1.1,0,1.11Z" fill="#162836"/><path d="m263.17,38.18c.7-.01.7-1.1,0-1.11-.7.01-.7,1.1,0,1.11Z" fill="#162836"/><path d="m271.08,51.51c.7-.01.7-1.1,0-1.11-.7.01-.7,1.1,0,1.11Z" fill="#162836"/><path d="m271.08,51.51c.7-.01.7-1.1,0-1.11-.7.01-.7,1.1,0,1.11Z" fill="#162836"/><path d="m263.61,52.07c.7-.01.7-1.1,0-1.11-.7.01-.7,1.1,0,1.11Z" fill="#162836"/><path d="m263.61,52.07c.7-.01.7-1.1,0-1.11-.7.01-.7,1.1,0,1.11Z" fill="#162836"/><path d="m255.79,32.26c-1.39.02-1.39,2.19,0,2.21,1.39-.02,1.39-2.19,0-2.21Z" fill="#162836"/><path d="m255.79,32.26c-1.39.02-1.39,2.19,0,2.21,1.39-.02,1.39-2.19,0-2.21Z" fill="#162836"/><path d="m255.76,47.49c-1.38.06-1.33,2.23.06,2.21,1.38-.07,1.33-2.23-.06-2.21Z" fill="#162836"/><path d="m255.76,47.49c-1.38.06-1.33,2.23.06,2.21,1.38-.07,1.33-2.23-.06-2.21Z" fill="#162836"/><path d="m270.55,32.26c-1.39.02-1.39,2.19,0,2.21,1.39-.02,1.39-2.19,0-2.21Z" fill="#162836"/><path d="m270.55,32.26c-1.39.02-1.39,2.19,0,2.21,1.39-.02,1.39-2.19,0-2.21Z" fill="#162836"/></g><g><path d="m250.45,37.65h8.3c.58,0,1.05-.5,1.05-1.11v-8.71c0-.61-.47-1.11-1.05-1.11h-8.3c-.58,0-1.05.5-1.05,1.11v8.71c0,.61.47,1.11,1.05,1.11Zm1.05-8.71h6.19v6.5h-6.19v-6.5Z" fill="#fff"/><path d="m250.45,37.65h8.3c.58,0,1.05-.5,1.05-1.11v-8.71c0-.61-.47-1.11-1.05-1.11h-8.3c-.58,0-1.05.5-1.05,1.11v8.71c0,.61.47,1.11,1.05,1.11Zm1.05-8.71h6.19v6.5h-6.19v-6.5Z" fill="#fff"/><path d="m250.45,53.15h8.3c.58,0,1.05-.5,1.05-1.11v-8.71c0-.61-.47-1.11-1.05-1.11h-8.3c-.58,0-1.05.5-1.05,1.11v8.71c0,.61.47,1.11,1.05,1.11Zm1.05-8.71h6.19v6.5h-6.19v-6.5Z" fill="#fff"/><path d="m250.45,53.15h8.3c.58,0,1.05-.5,1.05-1.11v-8.71c0-.61-.47-1.11-1.05-1.11h-8.3c-.58,0-1.05.5-1.05,1.11v8.71c0,.61.47,1.11,1.05,1.11Zm1.05-8.71h6.19v6.5h-6.19v-6.5Z" fill="#fff"/><path d="m265.22,37.65h8.3c.58,0,1.05-.5,1.05-1.11v-8.71c0-.61-.47-1.11-1.05-1.11h-8.3c-.58,0-1.05.5-1.05,1.11v8.71c0,.61.47,1.11,1.05,1.11Zm1.05-8.71h6.19v6.5h-6.19v-6.5Z" fill="#fff"/><path d="m265.22,37.65h8.3c.58,0,1.05-.5,1.05-1.11v-8.71c0-.61-.47-1.11-1.05-1.11h-8.3c-.58,0-1.05.5-1.05,1.11v8.71c0,.61.47,1.11,1.05,1.11Zm1.05-8.71h6.19v6.5h-6.19v-6.5Z" fill="#fff"/><path d="m265.78,53.15h8.06c.4,0,.73-.34.73-.77v-4.81c-.02-1.01-1.45-1.01-1.46,0v4.04h-6.6v-1.86c-.02-1.01-1.45-1.01-1.46,0v2.63c0,.42.33.77.73.77Z" fill="#fff"/><path d="m265.78,53.15h8.06c.4,0,.73-.34.73-.77v-4.81c-.02-1.01-1.45-1.01-1.46,0v4.04h-6.6v-1.86c-.02-1.01-1.45-1.01-1.46,0v2.63c0,.42.33.77.73.77Z" fill="#fff"/><path d="m274.57,45.03v-1.75c0-.42-.33-.77-.73-.77s-.73.34-.73.77v1.75c.02,1.01,1.45,1.01,1.46,0Z" fill="#fff"/><path d="m274.57,45.03v-1.75c0-.42-.33-.77-.73-.77s-.73.34-.73.77v1.75c.02,1.01,1.45,1.01,1.46,0Z" fill="#fff"/><path d="m274.57,43.07v-1.75c0-.42-.33-.77-.73-.77s-.73.34-.73.77v1.75c.02,1.01,1.45,1.01,1.46,0Z" fill="#fff"/><path d="m274.57,43.07v-1.75c0-.42-.33-.77-.73-.77s-.73.34-.73.77v1.75c.02,1.01,1.45,1.01,1.46,0Z" fill="#fff"/><path d="m274.57,41.18v-1.75c0-.42-.33-.77-.73-.77s-.73.34-.73.77v1.75c.02,1.01,1.45,1.01,1.46,0Z" fill="#fff"/><path d="m274.57,41.18v-1.75c0-.42-.33-.77-.73-.77s-.73.34-.73.77v1.75c.02,1.01,1.45,1.01,1.46,0Z" fill="#fff"/><path d="m268.94,39.52h-7.4c-.41,0-.74.35-.74.78v1.37c0,.43.33.78.74.78s.74-.35.74-.78v-.59h5.92v6.28c0,.43.33.78.74.78s.74-.35.74-.78v-1.15c.65-.03,1.59.21,1.66-.78,0-.43-.33-.78-.74-.78h-.92v-4.35c0-.43-.33-.78-.74-.78Z" fill="#fff"/><path d="m268.94,39.52h-7.4c-.41,0-.74.35-.74.78v1.37c0,.43.33.78.74.78s.74-.35.74-.78v-.59h5.92v6.28c0,.43.33.78.74.78s.74-.35.74-.78v-1.15c.65-.03,1.59.21,1.66-.78,0-.43-.33-.78-.74-.78h-.92v-4.35c0-.43-.33-.78-.74-.78Z" fill="#fff"/><path d="m264.55,45.48c.7-.01.7-1.1,0-1.11-.7.01-.7,1.1,0,1.11Z" fill="#fff"/><path d="m264.55,45.48c.7-.01.7-1.1,0-1.11-.7.01-.7,1.1,0,1.11Z" fill="#fff"/><path d="m256.96,40.88c.7-.01.7-1.1,0-1.11-.7.01-.7,1.1,0,1.11Z" fill="#fff"/><path d="m256.96,40.88c.7-.01.7-1.1,0-1.11-.7.01-.7,1.1,0,1.11Z" fill="#fff"/><path d="m261.98,36.99c.7-.01.7-1.1,0-1.11-.7.01-.7,1.1,0,1.11Z" fill="#fff"/><path d="m261.98,36.99c.7-.01.7-1.1,0-1.11-.7.01-.7,1.1,0,1.11Z" fill="#fff"/><path d="m269.89,50.33c.7-.01.7-1.1,0-1.11-.7.01-.7,1.1,0,1.11Z" fill="#fff"/><path d="m269.89,50.33c.7-.01.7-1.1,0-1.11-.7.01-.7,1.1,0,1.11Z" fill="#fff"/><path d="m262.43,50.88c.7-.01.7-1.1,0-1.11-.7.01-.7,1.1,0,1.11Z" fill="#fff"/><path d="m262.43,50.88c.7-.01.7-1.1,0-1.11-.7.01-.7,1.1,0,1.11Z" fill="#fff"/><path d="m254.6,31.07c-1.39.02-1.39,2.19,0,2.21,1.39-.02,1.39-2.19,0-2.21Z" fill="#fff"/><path d="m254.6,31.07c-1.39.02-1.39,2.19,0,2.21,1.39-.02,1.39-2.19,0-2.21Z" fill="#fff"/><path d="m254.57,46.3c-1.38.06-1.33,2.23.06,2.21,1.38-.07,1.33-2.23-.06-2.21Z" fill="#fff"/><path d="m254.57,46.3c-1.38.06-1.33,2.23.06,2.21,1.38-.07,1.33-2.23-.06-2.21Z" fill="#fff"/><path d="m269.37,31.07c-1.39.02-1.39,2.19,0,2.21,1.39-.02,1.39-2.19,0-2.21Z" fill="#fff"/><path d="m269.37,31.07c-1.39.02-1.39,2.19,0,2.21,1.39-.02,1.39-2.19,0-2.21Z" fill="#fff"/></g></g></g></g></g></svg>