<?xml version="1.0" encoding="UTF-8"?><svg id="Layer_2" xmlns="http://www.w3.org/2000/svg" width="118.07" height="51.39" xmlns:xlink="http://www.w3.org/1999/xlink" viewBox="0 0 118.07 51.39"><defs><linearGradient id="linear-gradient" x1="58.77" y1="-5.64" x2="59.25" y2="50.36" gradientUnits="userSpaceOnUse"><stop offset=".12" stop-color="#4c6596"/><stop offset=".44" stop-color="#3d4e88"/><stop offset=".61" stop-color="#35417b"/><stop offset=".91" stop-color="#2a3069"/></linearGradient></defs><g id="_כפתורים"><path d="m59.03,51.39c-12.07,0-22.5,0-36.02-1.26-7.3-.68-12.39-2.66-16.04-6.22-3.29-3.21-5.44-7.57-6.56-13.31l-.02-.12c-.51-3.79-.51-5.83-.01-9.55C2.29,9.61,10.53,2.44,22.99,1.21c12.17-1.21,24.31-1.21,36.04-1.21s24.37,0,36.06,1.21c12.46,1.29,20.69,8.43,22.58,19.6.52,3.86.52,5.82.02,9.58l-.03.17c-.87,4.43-2.32,8-4.45,10.9-3.58,4.89-9.5,7.73-18.1,8.67-11.6,1.27-24.05,1.27-36.08,1.27Z" fill="#03072d"/><path d="m59.03,49.57c-12.04,0-22.43,0-35.88-1.25-6.95-.65-11.77-2.5-15.18-5.83-3.09-3.02-5.11-7.15-6.18-12.62l-.02-.09c-.49-3.62-.49-5.58,0-9.16C3.57,9.99,11.36,3.24,23.13,2.07c12.1-1.2,24.2-1.2,35.9-1.2s24.29,0,35.91,1.2c11.78,1.22,19.56,7.95,21.34,18.47.5,3.69.5,5.57.01,9.2v.09c-.85,4.25-2.22,7.63-4.24,10.38-3.33,4.56-8.93,7.21-17.1,8.1-11.52,1.26-23.93,1.26-35.92,1.26Z" fill="#6d7eb2"/><path d="m114.9,20.76c-1.68-9.88-9.01-16.2-20.11-17.35-11.54-1.19-23.85-1.19-35.76-1.19s-23.73,0-35.75,1.19C12.18,4.51,4.85,10.84,3.16,20.79c-.47,3.49-.47,5.29,0,8.78v.05c.03.1.05.2.07.29,1.03,5.05,2.91,8.86,5.75,11.63,3.16,3.09,7.71,4.81,14.31,5.43,13.38,1.25,23.75,1.25,35.75,1.25s24.33,0,35.76-1.25c7.75-.85,13.02-3.31,16.11-7.54.24-.33.48-.68.7-1.03,1.52-2.4,2.6-5.29,3.29-8.79v-.05c.48-3.49.48-5.29,0-8.81Z" fill="url(#linear-gradient)"/><path d="m23.29,46.98c13.38,1.25,23.75,1.25,35.75,1.25s24.33,0,35.76-1.25c7.75-.85,13.02-3.31,16.11-7.54.24-.33.48-.68.7-1.03-16.46,7.4-27.86,5.5-43.78,6.16-39,1.64-56.3-1.02-64.6-14.66,1.03,5.05,2.91,8.86,5.75,11.63,3.16,3.09,7.71,4.81,14.31,5.43Z" fill="#0b1a42" opacity=".37"/><path d="m20.05,7.91c-.19.74-1.53.3-3.87,1.12-3.6,1.26-3.24,3.16-4.3,2.54-.65-.38.86-2.51,3.12-3.52s5.24-.86,5.05-.15Z" fill="#fff"/><ellipse cx="10.89" cy="13.11" rx=".72" ry=".74" transform="translate(-3.15 22.77) rotate(-84.8)" fill="#fff"/><g opacity=".63"><path d="m39.57,31.34c-.29,0-.5-.04-.66-.12-.15-.08-.26-.19-.32-.35-.06-.15-.1-.31-.1-.46v-5.84c0-1.16-.16-2.12-.49-2.88s-.81-1.34-1.47-1.73c-.65-.39-1.47-.58-2.45-.58h-4.48c-.21,0-.39-.03-.55-.08-.16-.06-.29-.16-.38-.32-.1-.16-.14-.38-.14-.67,0-.3.05-.52.14-.67.1-.14.22-.25.38-.31.16-.06.33-.1.52-.1h4.43c1.46,0,2.68.27,3.66.82.98.55,1.71,1.36,2.2,2.43.49,1.07.74,2.42.74,4.04v5.72c0,.21-.03.39-.08.56s-.16.3-.31.39c-.15.1-.37.14-.65.14Zm-9.77,0c-.29,0-.5-.05-.64-.14-.14-.1-.24-.23-.3-.39-.06-.17-.08-.35-.08-.54v-5.89c0-.21.03-.39.08-.55.06-.16.16-.28.31-.37.15-.09.37-.13.66-.13.3,0,.53.05.68.14.15.1.25.22.3.38.05.16.07.34.07.55v5.89c0,.19-.03.37-.08.52-.06.16-.16.29-.31.38-.15.1-.38.14-.68.14Z" fill="#cbe9f4"/><path d="m44.5,31.34c-.29,0-.5-.05-.66-.14-.15-.1-.26-.23-.32-.39s-.1-.35-.1-.54v-11.96c0-.19.03-.37.1-.52.06-.16.17-.29.32-.38.15-.1.37-.14.66-.14l4.67-.02c1.08,0,2.03.15,2.86.45.83.3,1.51.76,2.06,1.37.55.61.96,1.37,1.24,2.28.28.91.42,1.97.42,3.19v5.72c0,.21-.02.39-.07.56s-.15.3-.3.39c-.15.1-.38.14-.68.14-.29,0-.5-.04-.66-.12-.15-.08-.25-.19-.31-.35-.06-.15-.08-.31-.08-.46v-5.84c0-.86-.1-1.61-.29-2.26-.19-.65-.47-1.2-.83-1.63-.37-.44-.82-.76-1.37-.98-.55-.21-1.19-.32-1.92-.32h-3.67v10.87c0,.21-.03.39-.08.56s-.16.3-.31.39c-.15.1-.38.14-.68.14Z" fill="#cbe9f4"/><path d="m60.15,24.59c-.29,0-.5-.05-.64-.16-.14-.1-.24-.23-.3-.39-.06-.16-.08-.33-.08-.52v-5.24c0-.19.03-.37.08-.52.06-.16.16-.29.31-.38.15-.1.37-.14.66-.14.3,0,.53.05.68.15.15.1.25.23.3.38.05.15.07.33.07.54v5.24c0,.19-.03.37-.08.52-.06.16-.16.29-.31.38-.15.1-.38.14-.68.14Z" fill="#cbe9f4"/><path d="m74.36,19.9l-1.45-.52h-7.15c-.4,0-.69-.09-.88-.26s-.3-.46-.33-.86l-.19-3.72c0-.21.03-.38.08-.54.06-.15.17-.27.35-.36.17-.09.41-.13.71-.13.29,0,.49.05.62.14.13.1.22.23.27.39s.08.36.08.58l.14,2.6h6.05c.51,0,.91.11,1.22.33.3.22.5.54.58.94.09.41.05.87-.11,1.39Zm-6.55,11.37c-.38-.19-.63-.4-.74-.62-.11-.22-.07-.48.12-.76.73-1.13,1.39-2.18,1.97-3.16.58-.98,1.1-1.91,1.55-2.79.45-.88.85-1.76,1.2-2.63.35-.87.65-1.77.91-2.69l1.6,1.22c-.37,1.19-.79,2.34-1.29,3.43-.49,1.1-1.06,2.24-1.69,3.43-.64,1.19-1.38,2.53-2.24,4-.1.19-.21.35-.35.48-.14.13-.29.21-.45.24-.17.03-.36-.02-.58-.14Z" fill="#cbe9f4"/><path d="m84.17,31.43c-1.14,0-2.16-.19-3.05-.57-.89-.38-1.64-.91-2.25-1.58-.61-.68-1.07-1.47-1.38-2.37s-.46-1.9-.46-2.98v-5.62c0-.19.03-.37.08-.54.06-.17.16-.3.32-.39.16-.1.38-.14.67-.14s.5.05.66.14c.15.1.26.23.32.39.06.17.1.35.1.56v5.6c0,1.1-.21,3.33.19,4.14.4.81,2.04-.27,2.14.6.18,1.43,1.7,2.08,2.76,2.08,1.13,0,2.86-.87,3.19-1.87.28-.85.96-1.34,1.35-2.15s.58-1.76.58-2.82v-5.74c0-.16.03-.31.1-.45.06-.14.17-.26.32-.35.15-.09.37-.13.66-.13s.5.05.66.15c.15.1.25.23.31.39.06.16.08.34.08.55v5.65c0,1.06-.16,2.05-.48,2.95-.32.91-.79,1.7-1.43,2.37-.64.68-1.41,1.2-2.31,1.57-.91.37-1.95.56-3.12.56Zm-4.46-2.91l-.36-1.45.6.99c.43,0,.83-1.15,1.19-1.46.37-.31.7-.73,1-1.28.3-.54.54-1.16.72-1.85.17-.69.27-1.41.29-2.16l.1-3.12c.02-.17.06-.34.12-.49.06-.15.17-.27.32-.36s.37-.13.66-.13c.3,0,.53.05.69.14.16.1.26.22.31.37.05.15.06.32.05.51l-.14,3.03c-.06,1.02-.22,1.96-.46,2.84-.25.87-.59,1.64-1.02,2.31-.44.67-.95,1.18-1.53,1.55-.58.37-1.23.55-1.94.55h-.57Z" fill="#cbe9f4"/></g><path d="m38.57,34.81c-.45,0-.81-.08-1.11-.23-.36-.19-.62-.48-.77-.84-.11-.27-.17-.55-.17-.84v-5.84c0-1.02-.14-1.86-.41-2.5-.24-.57-.59-.99-1.07-1.27-.49-.29-1.15-.44-1.95-.44h-4.48c-.32,0-.61-.05-.87-.14-.37-.13-.69-.39-.9-.74-.19-.32-.28-.7-.28-1.17,0-.5.1-.9.31-1.21.21-.31.49-.54.84-.68.28-.11.58-.17.89-.17h4.43c1.63,0,3.02.32,4.14.95,1.16.65,2.04,1.62,2.62,2.88.55,1.2.83,2.69.83,4.45v5.72c0,.31-.05.61-.13.87-.13.38-.38.7-.72.91-.32.2-.7.3-1.18.3Zm-9.77,0c-.49,0-.88-.1-1.19-.31-.33-.22-.56-.53-.69-.9-.09-.26-.13-.55-.13-.85v-5.89c0-.32.05-.61.14-.87.13-.38.39-.69.75-.9.31-.18.68-.26,1.15-.26.5,0,.89.1,1.2.29.35.22.6.54.72.93.08.25.11.53.11.83v5.89c0,.3-.05.59-.14.85-.13.37-.37.67-.71.89-.32.2-.71.3-1.21.3Z" fill="#03072d"/><path d="m53.71,34.81c-.45,0-.81-.08-1.11-.23-.37-.2-.64-.5-.78-.88-.1-.26-.14-.53-.14-.8v-5.84c0-.76-.08-1.43-.25-1.99-.15-.52-.37-.95-.64-1.28-.26-.31-.58-.54-.97-.69-.43-.17-.96-.25-1.56-.25h-2.68v9.88c0,.31-.05.61-.13.87-.13.38-.38.7-.72.91-.32.2-.71.3-1.2.3s-.87-.1-1.18-.29c-.33-.21-.58-.51-.72-.88-.11-.28-.16-.58-.16-.89v-11.96c0-.32.06-.61.17-.89.14-.35.39-.65.71-.85.31-.2.7-.29,1.18-.29l4.67-.02c1.2,0,2.27.17,3.2.51.98.36,1.8.91,2.46,1.64.64.72,1.13,1.61,1.45,2.64.3,1,.46,2.17.46,3.48v5.72c0,.3-.04.58-.11.83-.11.4-.36.73-.72.96-.32.2-.71.3-1.21.3Z" fill="#03072d"/><path d="m59.16,28.06c-.5,0-.9-.11-1.22-.34-.3-.22-.53-.52-.65-.86-.09-.26-.14-.55-.14-.85v-5.24c0-.3.05-.59.14-.85.13-.37.38-.68.71-.89.32-.2.7-.29,1.18-.29.51,0,.91.11,1.23.33.33.23.57.54.68.9.08.25.12.53.12.83v5.24c0,.3-.05.59-.14.85-.13.37-.38.68-.71.89-.32.2-.71.3-1.21.3Z" fill="#03072d"/><path d="m67.29,34.89c-.31,0-.62-.09-.94-.27-.57-.29-.95-.63-1.16-1.05-.16-.31-.34-.96.18-1.75.71-1.09,1.36-2.14,1.94-3.11.57-.96,1.08-1.88,1.52-2.74.44-.85.83-1.71,1.16-2.55.08-.19.15-.38.22-.58h-5.46c-.65,0-1.17-.18-1.55-.52-.38-.35-.6-.85-.65-1.51l-.19-3.8c0-.32.05-.62.14-.88.1-.27.32-.64.83-.9.32-.16.7-.24,1.16-.24.51,0,.91.11,1.21.34.29.21.5.51.62.87.09.26.13.55.13.87l.09,1.64h5.12c.72,0,1.33.18,1.8.53.49.36.82.89.96,1.53.07.34.09.71.04,1.1l.06.04-.18.67c-.38,1.22-.82,2.42-1.33,3.55-.5,1.11-1.08,2.28-1.72,3.49-.64,1.19-1.39,2.54-2.24,4.01-.14.28-.33.53-.54.72-.27.26-.59.42-.94.49-.1.02-.19.03-.29.03Z" fill="#03072d"/><path d="m83.18,34.9c-1.27,0-2.43-.22-3.44-.65-1.02-.43-1.89-1.05-2.59-1.83-.7-.77-1.23-1.68-1.58-2.71-.34-1-.52-2.11-.52-3.3v-5.62c0-.3.05-.58.13-.85.13-.39.39-.71.75-.93.32-.19.7-.28,1.17-.28s.86.1,1.18.29c.33.21.58.51.72.88.11.28.16.59.16.91v5.6c0,.74.1,1.4.3,1.97.02-.01.03-.03.05-.04.27-.23.54-.57.78-1,.26-.46.47-1,.62-1.61.16-.61.24-1.27.26-1.94l.1-3.19c.02-.27.09-.54.19-.78.14-.35.4-.63.74-.83.31-.18.68-.26,1.15-.26s.88.09,1.2.28c.37.22.62.54.74.92.09.27.12.57.09.89l-.14,2.99c-.07,1.1-.24,2.12-.5,3.06-.27.97-.66,1.84-1.15,2.58-.34.52-.72.96-1.14,1.33.25.04.52.05.8.05.94,0,1.72-.18,2.33-.55.6-.36,1.04-.85,1.35-1.5.32-.68.49-1.49.49-2.4v-5.74c0-.3.06-.58.18-.85.14-.33.4-.61.73-.8.31-.18.68-.26,1.15-.26.49,0,.89.11,1.21.33.32.22.56.53.68.88.09.27.14.56.14.88v5.65c0,1.17-.18,2.27-.53,3.28-.36,1.03-.91,1.95-1.64,2.72-.73.78-1.62,1.38-2.65,1.81-1.02.42-2.2.63-3.5.63Z" fill="#03072d"/><path d="m39.57,32.33c-.29,0-.5-.04-.66-.12-.15-.08-.26-.19-.32-.35-.06-.15-.1-.31-.1-.46v-5.84c0-1.16-.16-2.12-.49-2.88s-.81-1.34-1.47-1.73c-.65-.39-1.47-.58-2.45-.58h-4.48c-.21,0-.39-.03-.55-.08-.16-.06-.29-.16-.38-.32-.1-.16-.14-.38-.14-.67,0-.3.05-.52.14-.67.1-.14.22-.25.38-.31.16-.06.33-.1.52-.1h4.43c1.46,0,2.68.27,3.66.82.98.55,1.71,1.36,2.2,2.43.49,1.07.74,2.42.74,4.04v5.72c0,.21-.03.39-.08.56s-.16.3-.31.39c-.15.1-.37.14-.65.14Zm-9.77,0c-.29,0-.5-.05-.64-.14-.14-.1-.24-.23-.3-.39-.06-.17-.08-.35-.08-.54v-5.89c0-.21.03-.39.08-.55.06-.16.16-.28.31-.37.15-.09.37-.13.66-.13.3,0,.53.05.68.14.15.1.25.22.3.38.05.16.07.34.07.55v5.89c0,.19-.03.37-.08.52-.06.16-.16.29-.31.38-.15.1-.38.14-.68.14Z" fill="#fff"/><path d="m44.5,32.33c-.29,0-.5-.05-.66-.14-.15-.1-.26-.23-.32-.39s-.1-.35-.1-.54v-11.96c0-.19.03-.37.1-.52.06-.16.17-.29.32-.38.15-.1.37-.14.66-.14l4.67-.02c1.08,0,2.03.15,2.86.45.83.3,1.51.76,2.06,1.37.55.61.96,1.37,1.24,2.28.28.91.42,1.97.42,3.19v5.72c0,.21-.02.39-.07.56s-.15.3-.3.39c-.15.1-.38.14-.68.14-.29,0-.5-.04-.66-.12-.15-.08-.25-.19-.31-.35-.06-.15-.08-.31-.08-.46v-5.84c0-.86-.1-1.61-.29-2.26-.19-.65-.47-1.2-.83-1.63-.37-.44-.82-.76-1.37-.98-.55-.21-1.19-.32-1.92-.32h-3.67v10.87c0,.21-.03.39-.08.56s-.16.3-.31.39c-.15.1-.38.14-.68.14Z" fill="#fff"/><path d="m60.15,25.59c-.29,0-.5-.05-.64-.16-.14-.1-.24-.23-.3-.39-.06-.16-.08-.33-.08-.52v-5.24c0-.19.03-.37.08-.52.06-.16.16-.29.31-.38.15-.1.37-.14.66-.14.3,0,.53.05.68.15.15.1.25.23.3.38.05.15.07.33.07.54v5.24c0,.19-.03.37-.08.52-.06.16-.16.29-.31.38-.15.1-.38.14-.68.14Z" fill="#fff"/><path d="m74.36,20.89l-1.45-.52h-7.15c-.4,0-.69-.09-.88-.26s-.3-.46-.33-.86l-.19-3.72c0-.21.03-.38.08-.54.06-.15.17-.27.35-.36.17-.09.41-.13.71-.13.29,0,.49.05.62.14.13.1.22.23.27.39s.08.36.08.58l.14,2.6h6.05c.51,0,.91.11,1.22.33.3.22.5.54.58.94.09.41.05.87-.11,1.39Zm-6.55,11.37c-.38-.19-.63-.4-.74-.62-.11-.22-.07-.48.12-.76.73-1.13,1.39-2.18,1.97-3.16.58-.98,1.1-1.91,1.55-2.79.45-.88.85-1.76,1.2-2.63.35-.87.65-1.77.91-2.69l1.6,1.22c-.37,1.19-.79,2.34-1.29,3.43-.49,1.1-1.06,2.24-1.69,3.43-.64,1.19-1.38,2.53-2.24,4-.1.19-.21.35-.35.48-.14.13-.29.21-.45.24-.17.03-.36-.02-.58-.14Z" fill="#fff"/><path d="m84.17,32.43c-1.14,0-2.16-.19-3.05-.57-.89-.38-1.64-.91-2.25-1.58-.61-.68-1.07-1.47-1.38-2.37s-.46-1.9-.46-2.98v-5.62c0-.19.03-.37.08-.54.06-.17.16-.3.32-.39.16-.1.38-.14.67-.14s.5.05.66.14c.15.1.26.23.32.39.06.17.1.35.1.56v5.6c0,1.1.2,2.05.6,2.86.4.81.98,1.44,1.74,1.88.76.45,1.68.67,2.74.67,1.13,0,2.07-.23,2.84-.69.76-.46,1.34-1.1,1.73-1.92s.58-1.76.58-2.82v-5.74c0-.16.03-.31.1-.45.06-.14.17-.26.32-.35.15-.09.37-.13.66-.13s.5.05.66.15c.15.1.25.23.31.39.06.16.08.34.08.55v5.65c0,1.06-.16,2.05-.48,2.95-.32.91-.79,1.7-1.43,2.37-.64.68-1.41,1.2-2.31,1.57-.91.37-1.95.56-3.12.56Zm-4.46-2.91l-.36-1.45h.6c.43,0,.83-.15,1.19-.46.37-.31.7-.73,1-1.28.3-.54.54-1.16.72-1.85.17-.69.27-1.41.29-2.16l.1-3.12c.02-.17.06-.34.12-.49.06-.15.17-.27.32-.36s.37-.13.66-.13c.3,0,.53.05.69.14.16.1.26.22.31.37.05.15.06.32.05.51l-.14,3.03c-.06,1.02-.22,1.96-.46,2.84-.25.87-.59,1.64-1.02,2.31-.44.67-.95,1.18-1.53,1.55-.58.37-1.23.55-1.94.55h-.57Z" fill="#fff"/><path d="m108.46,8.81c-3.43-2.95-8.03-4.82-13.58-5.39-11.54-1.19-23.85-1.19-35.76-1.19s-23.73,0-35.75,1.19C12.7,4.47,5.51,10.36,3.47,19.66,9.34,12.54,30.78-.37,108.46,8.81Z" fill="#fff" opacity=".07"/></g></svg>