<?xml version="1.0" encoding="UTF-8"?><svg id="Layer_2" xmlns="http://www.w3.org/2000/svg" width="48.84" height="48.59" xmlns:xlink="http://www.w3.org/1999/xlink" viewBox="0 0 48.84 48.59"><defs><linearGradient id="linear-gradient" x1="23.14" y1="-12.69" x2="25.66" y2="60.08" gradientUnits="userSpaceOnUse"><stop offset=".23" stop-color="#ffd800"/><stop offset=".95" stop-color="#fd1a84"/></linearGradient></defs><g id="Layer_1-2"><path d="m25.95,45.92c-.51.01-1.02.04-1.53.04.51,0,1.02-.01,1.53-.04Z" fill="#00c392"/><path d="m24.42,45.96h0c-.51,0-1.02-.02-1.53-.04.51.02,1.02.04,1.53.04Z" fill="#00c392"/><path d="m24.42,48.59c-.38,0-.77-.01-1.15-.02h-.46c-3.49-.17-7-.83-10.44-1.96-4.53-1.49-8.17-4.87-9.98-9.28-.14-.34-.27-.69-.39-1.05-1.32-3.98-2-8.01-2-11.99s.63-7.74,1.87-11.59C3.52,7.56,7.6,3.5,12.78,1.85c3.87-1.23,7.78-1.85,11.64-1.85s8.05.67,12.05,1.98c4.88,1.61,8.76,5.46,10.38,10.32,1.32,3.98,2,8.01,2,11.99s-.67,8.01-2,11.99c-.13.38-.27.75-.43,1.12-1.82,4.37-5.45,7.72-9.95,9.2-3.44,1.13-6.94,1.79-10.4,1.94l-.5.02c-.38.01-.77.02-1.15.02Z" fill="#952362"/><path d="m24.42,47.27c-.37,0-.74-.01-1.11-.02h-.46c-3.36-.17-6.74-.8-10.07-1.89-4.17-1.37-7.51-4.48-9.18-8.53-.13-.31-.25-.63-.36-.96-1.28-3.84-1.93-7.74-1.93-11.57s.61-7.47,1.8-11.19c1.53-4.75,5.29-8.48,10.06-10,3.74-1.19,7.52-1.79,11.24-1.79s7.77.65,11.64,1.92c4.49,1.48,8.06,5.02,9.54,9.49,1.28,3.85,1.93,7.74,1.93,11.57s-.65,7.73-1.93,11.57c-.12.35-.25.69-.39,1.03-1.67,4.01-5.01,7.1-9.15,8.46-3.33,1.1-6.71,1.73-10.05,1.88l-.48.02c-.37.01-.74.02-1.11.02Z" fill="#f8f47c"/><path d="m44.35,13.14c-1.36-4.08-4.59-7.3-8.7-8.65-3.74-1.23-7.5-1.85-11.23-1.85s-7.23.58-10.84,1.73c-4.39,1.4-7.8,4.78-9.2,9.15-1.16,3.59-1.74,7.2-1.74,10.78,0,3.71.62,7.44,1.86,11.16.1.3.21.59.33.87,1.51,3.67,4.56,6.52,8.37,7.78,3.23,1.06,6.47,1.67,9.7,1.81.51.01,1.02.04,1.53.04h0c.51,0,1.02-.02,1.53-.04,3.22-.15,6.47-.75,9.69-1.81,3.79-1.25,6.83-4.08,8.35-7.71.13-.31.25-.62.36-.94,1.24-3.72,1.86-7.45,1.86-11.16s-.62-7.44-1.86-11.16Z" fill="url(#linear-gradient)"/><path d="m35.64,4.48c-3.74-1.23-7.5-1.85-11.23-1.85s-7.23.58-10.84,1.73c-4.39,1.4-7.8,4.78-9.2,9.15-.34,1.05-.62,2.1-.86,3.15,3.8-3.33,19.56-15.44,38.91-7.25-1.67-2.28-4.02-4.03-6.78-4.93Z" fill="#fff" opacity=".26"/><path d="m46.21,24.29c0,.06,0,.12,0,.18,0-.12,0-.18,0-.18Z" fill="none"/><path d="m4.82,36.33c1.51,3.67,4.56,6.52,8.37,7.78,3.23,1.06,6.47,1.67,9.7,1.81.51.01,1.02.04,1.53.04h0c.51,0,1.02-.02,1.53-.04,3.22-.15,6.47-.75,9.69-1.81,3.79-1.25,6.83-4.08,8.35-7.71.13-.31.25-.62.36-.94,1.22-3.66,1.84-7.33,1.86-10.98-.06,1.78-1.17,16.07-20.25,18.12C5.58,44.78,2.63,24.29,2.63,24.29c0,3.71.62,7.44,1.86,11.16.1.3.21.59.33.87Z" fill="#6d0033" opacity=".37"/><circle cx="5.93" cy="15.76" r=".85" fill="#fff"/><path d="m14.53,7.25c0,.89-1.6.78-3.94,2.38-3.6,2.46-2.66,4.51-4.01,4.11-.83-.24.23-3.08,2.42-4.88,2.2-1.79,5.53-2.48,5.53-1.61Z" fill="#fff"/><path d="m30.36,19.25c-.01,3.8-2.82,6.76-6.4,6.75-3.53-.01-6.27-3.04-6.26-6.89.01-3.8,2.82-6.76,6.4-6.75,3.53.01,6.27,3.04,6.26,6.89Z" fill="#fff" opacity=".32"/><path d="m30.22,20c-.01,3.36-2.69,6.35-6.19,6.34-3.45-.01-6.2-3.06-6.19-6.47.01-3.36,2.76-5.98,6.26-5.97,3.45.01,6.14,2.69,6.13,6.1Z" fill="#501136"/><path d="m24.42,27.46c-6.29,0-11.4,1.23-11.4,5.12,0,2.25,3.03,4.47,11.4,4.47s11.4-2.22,11.4-4.47c0-4.24-5.1-5.12-11.4-5.12Z" fill="#501136"/><path d="m30.06,19.23c-.01,3.36-2.69,5.98-6.1,5.97-3.36-.01-5.98-2.69-5.97-6.1.01-3.36,2.69-5.98,6.1-5.97,3.36.01,5.98,2.69,5.97,6.1Z" fill="#952362"/><path d="m24.42,26.69c-6.29,0-11.4,1.23-11.4,5.12,0,2.25,3.03,4.07,11.4,4.07s11.4-1.82,11.4-4.07c0-4.24-5.1-5.12-11.4-5.12Z" fill="#952362"/></g></svg>