<?xml version="1.0" encoding="UTF-8"?><svg id="Layer_2" xmlns="http://www.w3.org/2000/svg" width="42.34" height="42.12" xmlns:xlink="http://www.w3.org/1999/xlink" viewBox="0 0 42.34 42.12"><defs><linearGradient id="linear-gradient" x1="20.06" y1="-11" x2="22.24" y2="52.08" gradientUnits="userSpaceOnUse"><stop offset=".23" stop-color="#ffd800"/><stop offset=".95" stop-color="#fd1a84"/></linearGradient></defs><g id="Layer_1-2"><path d="m22.49,39.81c-.44.01-.88.03-1.33.03.44,0,.88-.01,1.33-.03Z" fill="#00c392"/><path d="m21.17,39.84h0c-.44,0-.88-.02-1.33-.03.44.02.88.03,1.33.03Z" fill="#00c392"/><path d="m21.17,42.12c-.33,0-.66-.01-1-.02h-.4c-3.03-.15-6.07-.72-9.05-1.7-3.93-1.29-7.08-4.22-8.66-8.04-.12-.3-.24-.6-.34-.91-1.15-3.45-1.73-6.95-1.73-10.39s.54-6.71,1.62-10.05C3.05,6.55,6.59,3.03,11.07,1.61c3.35-1.07,6.75-1.61,10.09-1.61s6.98.58,10.44,1.72c4.23,1.39,7.6,4.74,9,8.95,1.15,3.45,1.73,6.95,1.73,10.39s-.58,6.94-1.73,10.39c-.11.33-.24.65-.37.97-1.58,3.78-4.72,6.69-8.63,7.97-2.98.98-6.02,1.55-9.01,1.69h-.43c-.33.02-.66.04-.99.04Z" fill="#952362"/><path d="m21.17,40.98c-.32,0-.64-.01-.96-.02h-.4c-2.91-.14-5.84-.69-8.73-1.64-3.61-1.19-6.51-3.88-7.96-7.39-.11-.27-.22-.55-.31-.83-1.11-3.33-1.67-6.71-1.67-10.03s.53-6.47,1.56-9.7c1.32-4.11,4.58-7.35,8.72-8.67,3.24-1.03,6.52-1.55,9.75-1.55s6.74.56,10.09,1.66c3.89,1.28,6.98,4.35,8.27,8.22,1.11,3.33,1.67,6.71,1.67,10.03s-.56,6.7-1.67,10.03c-.1.3-.22.6-.34.89-1.45,3.48-4.34,6.15-7.93,7.33-2.89.95-5.82,1.5-8.71,1.63h-.42c-.32.02-.64.03-.96.03Z" fill="#f8f47c"/><path d="m38.44,11.39c-1.18-3.54-3.98-6.33-7.54-7.5-3.24-1.07-6.5-1.6-9.73-1.6s-6.27.5-9.4,1.5c-3.81,1.21-6.76,4.15-7.98,7.93-1,3.12-1.51,6.24-1.51,9.35,0,3.21.54,6.45,1.61,9.67.09.26.18.51.28.76,1.31,3.18,3.96,5.66,7.26,6.74,2.8.92,5.61,1.45,8.4,1.57.44.01.88.03,1.33.03h0c.44,0,.88-.02,1.33-.03,2.79-.13,5.6-.65,8.4-1.57,3.28-1.08,5.92-3.54,7.24-6.69.11-.27.22-.54.31-.81,1.07-3.22,1.61-6.46,1.61-9.67s-.54-6.45-1.61-9.67Z" fill="url(#linear-gradient)"/><path d="m30.9,3.89c-3.24-1.07-6.5-1.6-9.73-1.6s-6.27.5-9.4,1.5c-3.81,1.21-6.76,4.15-7.98,7.93-.29.91-.54,1.82-.75,2.73,3.3-2.88,16.95-13.39,33.73-6.28-1.45-1.98-3.49-3.49-5.87-4.27Z" fill="#fff" opacity=".26"/><path d="m40.06,21.06c0,.05,0,.11,0,.16,0-.1,0-.16,0-.16Z" fill="none"/><path d="m4.18,31.49c1.31,3.18,3.96,5.66,7.26,6.74,2.8.92,5.61,1.45,8.4,1.57.44.01.88.03,1.33.03h0c.44,0,.88-.02,1.33-.03,2.79-.13,5.6-.65,8.4-1.57,3.28-1.08,5.92-3.54,7.24-6.69.11-.27.22-.54.31-.81,1.05-3.17,1.59-6.35,1.61-9.51-.05,1.55-1.01,13.93-17.56,15.71C4.84,38.82,2.28,21.06,2.28,21.06c0,3.21.54,6.45,1.61,9.67.09.26.18.51.28.76Z" fill="#6d0033" opacity=".37"/><circle cx="5.14" cy="13.66" r=".73" fill="#fff"/><path d="m12.6,6.29c0,.78-1.39.68-3.42,2.06-3.12,2.13-2.31,3.91-3.47,3.56-.72-.21.2-2.67,2.1-4.23,1.9-1.55,4.79-2.15,4.79-1.4Z" fill="#fff"/><g opacity=".26"><path d="m12.18,24.89c.04-.31.07-.61.11-.92.3-2.21,1.21-4.14,2.71-5.78,1.72-1.89,3.86-3.03,6.39-3.44.35-.06.7-.08,1.07-.12v-4.59c3.05,2.49,7.03,5.8,10.07,8.28-3.04,2.48-7.01,4.1-10.06,6.59v-4.6c-.37.04-.72.06-1.07.12-2.3.37-4.28,1.38-5.91,3.05-.85.87-1.54,1.86-2.02,2.99-.38.91-.78,1.81-1.16,2.71-.03.07-.08.14-.11.21,0-1.5-.17-2.41,0-4.51Z" fill="#fff"/></g><path d="m12.18,26.7c.04-.32.07-.63.11-.95.3-2.28,1.21-4.27,2.71-5.97,1.72-1.95,3.86-3.13,6.39-3.55.35-.06.7-.08,1.07-.13v-4.73c3.05,2.57,6.66,4.66,9.71,7.22-3.04,2.56-6.64,5.55-9.7,8.12v-4.74c-.37.04-.72.06-1.07.12-2.3.39-4.28,1.42-5.91,3.14-.85.9-1.54,1.92-2.02,3.09-.38.93-.78,1.86-1.16,2.79-.03.08-.08.15-.11.22,0-1.55-.17-2.49,0-4.65Z" fill="#501136"/><path d="m12.18,25.56c.04-.31.07-.61.11-.92.3-2.21,1.21-4.14,2.71-5.78,1.72-1.89,3.86-3.03,6.39-3.44.35-.06.7-.08,1.07-.12v-4.59c3.05,2.49,6.08,4.95,9.12,7.43-3.04,2.48-6.06,4.95-9.11,7.45v-4.6c-.37.04-.72.06-1.07.12-2.3.37-4.28,1.38-5.91,3.05-.85.87-1.54,1.86-2.02,2.99-.38.91-.78,1.81-1.16,2.71-.03.07-.08.14-.11.21,0-1.5-.17-2.41,0-4.51Z" fill="#952362"/></g></svg>