<?xml version="1.0" encoding="UTF-8"?><svg id="Layer_2" xmlns="http://www.w3.org/2000/svg" width="100.81" height="43.88" xmlns:xlink="http://www.w3.org/1999/xlink" viewBox="0 0 100.81 43.88"><defs><linearGradient id="linear-gradient" x1="50.25" y1="53.86" x2="50.57" y2="-14.18" gradientUnits="userSpaceOnUse"><stop offset=".44" stop-color="#a04e7f"/><stop offset=".53" stop-color="#964071"/><stop offset=".7" stop-color="#892e60"/></linearGradient><linearGradient id="linear-gradient-2" x1="50.18" y1="-4.82" x2="50.59" y2="43" xlink:href="#linear-gradient"/></defs><g id="_כפתורים"><path d="m50.4,43.88c-10.31,0-19.21,0-30.76-1.08-6.23-.58-10.58-2.27-13.7-5.31-2.81-2.74-4.64-6.46-5.6-11.37l-.02-.11c-.44-3.24-.44-4.98-.01-8.15C1.95,8.21,8.99,2.09,19.63,1.03c10.39-1.03,20.75-1.03,30.78-1.03s20.81,0,30.79,1.03c10.64,1.1,17.66,7.2,19.28,16.73.44,3.3.45,4.97.02,8.18l-.02.14c-.74,3.78-1.98,6.83-3.8,9.31-3.06,4.18-8.11,6.6-15.45,7.4-9.9,1.08-20.53,1.08-30.81,1.08Z" fill="#491735"/><path d="m50.4,42.33c-10.28,0-19.16,0-30.64-1.07-5.93-.55-10.05-2.13-12.96-4.97-2.64-2.58-4.37-6.1-5.28-10.77v-.08c-.43-3.09-.43-4.76-.02-7.82C3.05,8.53,9.7,2.77,19.75,1.77c10.33-1.03,20.66-1.03,30.65-1.03s20.74,0,30.66,1.03c10.06,1.04,16.7,6.79,18.22,15.77.42,3.15.43,4.76,0,7.85v.08c-.72,3.63-1.9,6.52-3.62,8.86-2.85,3.89-7.62,6.15-14.6,6.92-9.83,1.07-20.43,1.07-30.67,1.07Z" fill="url(#linear-gradient)"/><path d="m98.1,17.73c-1.43-8.43-7.69-13.83-17.17-14.81-9.85-1.02-20.37-1.02-30.53-1.02s-20.26,0-30.53,1.02c-9.47.94-15.73,6.34-17.18,14.84-.4,2.98-.4,4.52,0,7.5v.05c.02.09.04.17.06.25.88,4.31,2.49,7.57,4.91,9.93,2.7,2.64,6.58,4.11,12.22,4.63,11.43,1.07,20.28,1.07,30.52,1.07s20.77,0,30.54-1.07c6.62-.72,11.12-2.83,13.76-6.43.21-.28.41-.58.6-.88,1.3-2.05,2.22-4.51,2.81-7.5v-.05c.41-2.98.41-4.52,0-7.52Z" fill="url(#linear-gradient-2)"/><path d="m19.88,40.11c11.43,1.07,20.28,1.07,30.52,1.07s20.77,0,30.54-1.07c6.62-.72,11.12-2.83,13.76-6.43.21-.28.41-.58.6-.88-14.06,6.32-23.79,4.69-37.38,5.26-33.3,1.4-48.07-.87-55.15-12.51.88,4.31,2.49,7.57,4.91,9.93,2.7,2.64,6.58,4.11,12.22,4.63Z" fill="#491735" opacity=".26"/><path d="m17.12,6.75c-.16.63-1.31.26-3.3.96-3.07,1.07-2.77,2.7-3.67,2.17-.56-.33.74-2.14,2.66-3s4.47-.74,4.31-.12Z" fill="#fff"/><ellipse cx="9.3" cy="11.19" rx=".62" ry=".63" transform="translate(-2.69 19.44) rotate(-84.8)" fill="#fff"/><path d="m92.58,7.52c-2.93-2.52-6.86-4.12-11.59-4.61-9.85-1.02-20.37-1.02-30.53-1.02s-20.26,0-30.53,1.02c-9.11.9-15.24,5.93-16.99,13.88C7.95,10.71,26.25-.32,92.58,7.52Z" fill="#fff" opacity=".07"/><path d="m42.56,18.63c-.12-.51-.28-.95-.49-1.31-.21-.36-.49-.65-.84-.86-.35-.21-.8-.35-1.35-.4-.26-.03-.49-.04-.68-.04h-.37c-.32-.01-.52.03-.63.12-.1.1-.16.25-.17.47l-.02.47c-.01.15,0,.28.06.38s.14.17.25.22c.11.05.27.09.49.09.22,0,.5.02.84.03.33.03.58.12.76.27.18.15.31.37.41.65.1.28.17.61.23,1s.11.81.16,1.29l.43,3.5c-.11.09-.21.2-.32.29-.31.25-3.84,3.33-3.62,3.32.38-.03.75-.1,1.1-.21s.68-.25,1.01-.42c.32-.17.63-.37.92-.59.29-.22.57-.46.82-.73.09-.1.17-.21.26-.31l.18,1.47c.03.16.06.31.1.43.04.12.12.22.25.29s.31.1.55.1c.36,0,.61-.08.76-.23.15-.15.21-.36.16-.64l-.94-6.9c-.1-.66-.2-1.24-.32-1.76Z" fill="#cae8f3"/><path d="m53.75,17.11c-.08-.35-.24-.62-.5-.81s-.61-.29-1.05-.29h-5.22l-.12-2.24c0-.19-.02-.36-.07-.5-.05-.14-.13-.26-.24-.34-.11-.08-.29-.12-.53-.12-.26,0-.47.04-.62.11-.15.08-.25.18-.3.31-.05.13-.07.28-.07.46l.16,3.2c.03.34.12.59.29.74.17.15.42.23.76.23h5.88c-.17.56-.36,1.12-.58,1.66-.3.75-.65,1.51-1.04,2.27-.39.76-.83,1.56-1.33,2.4-.5.84-1.06,1.75-1.69,2.72-.16.25-.2.47-.1.66s.31.37.64.53c.19.11.36.15.5.12.14-.03.27-.1.39-.21s.22-.25.3-.41c.74-1.27,1.38-2.42,1.93-3.45.55-1.03,1.03-2.01,1.46-2.96.42-.94.79-1.93,1.11-2.96l-.02-.02c.12-.42.15-.79.08-1.12Z" fill="#cae8f3"/><path d="m65.94,16.36c-.08-.12-.19-.21-.32-.27s-.28-.08-.46-.08h-8.58c-.16,0-.32.03-.46.08-.14.05-.26.14-.34.27-.08.12-.12.31-.12.57s.04.44.12.58c.08.14.19.23.34.28.14.05.3.07.48.07h5.32v9.37c0,.18.03.34.08.48.05.14.14.26.27.34.12.08.31.12.55.12.26,0,.46-.03.59-.1.13-.07.22-.17.27-.3.05-.13.07-.26.07-.4v-9.51h1.4c.18,0,.33-.02.47-.07.14-.05.25-.14.33-.28.08-.14.12-.33.12-.58,0-.26-.04-.45-.12-.57Z" fill="#cae8f3"/><path d="m41.86,30.99c-.4,0-.71-.07-.97-.21-.31-.17-.53-.44-.64-.76-.04-.12-.08-.25-.11-.41-.31.23-.64.43-.98.61-.37.2-.76.36-1.15.48-.41.13-.85.21-1.29.24-.11,0-.21.01-.31.01-.16,0-.3,0-.43-.03-.39-.05-.72-.24-.94-.55-.18-.26-.28-.58-.3-.99-.02-.41,0-.98.37-1.38.29-.32.7-.48,1.24-.48.24-.01.52-.05.81-.11.29-.07.58-.16.87-.27.29-.11.58-.26.87-.43.28-.16.54-.35.8-.56l-.38-3.06c-.05-.48-.11-.9-.16-1.28-.05-.33-.11-.61-.19-.84-.04-.13-.1-.22-.16-.27h0s-.07-.05-.28-.07l-.8-.03c-.35-.01-.62-.07-.85-.18-.22-.08-.46-.29-.62-.58-.13-.25-.19-.54-.16-.86l.02-.43c.03-.46.18-.81.44-1.06.26-.24.62-.36,1.1-.36h.48c.22,0,.47.02.77.05.67.07,1.24.24,1.7.52.47.29.85.68,1.13,1.16.25.44.45.96.59,1.56.12.53.23,1.13.33,1.82l.95,6.91c.08.53-.06,1.01-.41,1.35-.32.32-.78.48-1.36.48Z" fill="#491735"/><path d="m42.52,19.62c-.12-.51-.28-.95-.49-1.31-.21-.36-.49-.65-.84-.86-.35-.21-.8-.35-1.35-.4-.26-.03-.49-.04-.68-.04h-.37c-.32-.01-.52.03-.63.12-.1.1-.16.25-.17.47l-.02.47c-.01.15,0,.28.06.38s.14.17.25.22c.11.05.27.09.49.09.22,0,.5.02.84.03.33.03.58.12.76.27.18.15.31.37.41.65.1.28.17.61.23,1s.11.81.16,1.29l.43,3.5c-.11.09-.21.2-.32.29-.31.25-.63.48-.96.67-.33.19-.66.35-.99.48-.33.13-.66.23-1,.31-.33.08-.67.12-1,.13-.29,0-.49.07-.61.2-.12.13-.17.39-.15.77.01.25.06.43.14.54.08.12.2.18.36.21.16.02.35.02.57.01.38-.03.75-.1,1.1-.21s.68-.25,1.01-.42c.32-.17.63-.37.92-.59.29-.22.57-.46.82-.73.09-.1.17-.21.26-.31l.18,1.47c.03.16.06.31.1.43.04.12.12.22.25.29s.31.1.55.1c.36,0,.61-.08.76-.23.15-.15.21-.36.16-.64l-.94-6.9c-.1-.66-.2-1.24-.32-1.76Z" fill="#fff"/><path d="m47.39,31.08c-.27,0-.55-.08-.84-.24-.46-.23-.79-.53-.97-.89-.14-.27-.3-.83.16-1.51.62-.95,1.18-1.85,1.67-2.68.49-.83.93-1.62,1.31-2.36.38-.73.71-1.47,1.01-2.2.06-.16.13-.32.19-.5h-4.7c-.56,0-1.01-.15-1.33-.45-.33-.3-.52-.74-.56-1.3l-.17-3.23c0-.32.04-.58.12-.8.09-.23.28-.56.71-.77.27-.14.6-.2,1-.2.44,0,.78.1,1.04.29.25.19.43.45.53.75.08.23.12.49.12.77l.08,1.39h4.41c.62,0,1.14.15,1.55.45.42.31.71.77.83,1.32.06.29.07.6.03.94l.05.04-.15.59c-.33,1.06-.71,2.09-1.15,3.06-.43.97-.93,1.98-1.48,3.01-.55,1.03-1.2,2.2-1.95,3.48-.1.21-.26.43-.45.6-.24.22-.51.36-.81.42l-.08.02h-.17Z" fill="#491735"/><path d="m53.71,18.1c-.08-.35-.24-.62-.5-.81s-.61-.29-1.05-.29h-5.22l-.12-2.24c0-.19-.02-.36-.07-.5-.05-.14-.13-.26-.24-.34-.11-.08-.29-.12-.53-.12-.26,0-.47.04-.62.11-.15.08-.25.18-.3.31-.05.13-.07.28-.07.46l.16,3.2c.03.34.12.59.29.74.17.15.42.23.76.23h5.88c-.17.56-.36,1.12-.58,1.66-.3.75-.65,1.51-1.04,2.27-.39.76-.83,1.56-1.33,2.4-.5.84-1.06,1.75-1.69,2.72-.16.25-.2.47-.1.66s.31.37.64.53c.19.11.36.15.5.12.14-.03.27-.1.39-.21s.22-.25.3-.41c.74-1.27,1.38-2.42,1.93-3.45.55-1.03,1.03-2.01,1.46-2.96.42-.94.79-1.93,1.11-2.96l-.02-.02c.12-.42.15-.79.08-1.12Z" fill="#fff"/><path d="m61.78,31.01c-.42,0-.76-.09-1.03-.27-.27-.18-.47-.44-.59-.74-.09-.24-.14-.5-.14-.78v-8.52h-4.47c-.27,0-.52-.04-.75-.12-.33-.11-.61-.33-.8-.65-.16-.27-.25-.61-.25-1.01,0-.43.09-.78.27-1.05.18-.27.44-.47.75-.59.24-.09.5-.14.76-.14h8.58c.29,0,.56.05.79.15.28.12.52.32.7.58.18.27.27.61.27,1.04,0,.41-.08.74-.24,1.01-.18.31-.45.53-.78.64-.23.08-.48.12-.75.12h-.55v8.66c0,.24-.04.47-.12.69-.12.33-.35.59-.67.76-.26.14-.58.2-.98.2Z" fill="#491735"/><path d="m65.9,17.35c-.08-.12-.19-.21-.32-.27s-.28-.08-.46-.08h-8.58c-.16,0-.32.03-.46.08-.14.05-.26.14-.34.27-.08.12-.12.31-.12.57s.04.44.12.58c.08.14.19.23.34.28.14.05.3.07.48.07h5.32v9.37c0,.18.03.34.08.48.05.14.14.26.27.34.12.08.31.12.55.12.26,0,.46-.03.59-.1.13-.07.22-.17.27-.3.05-.13.07-.26.07-.4v-9.51h1.4c.18,0,.33-.02.47-.07.14-.05.25-.14.33-.28.08-.14.12-.33.12-.58,0-.26-.04-.45-.12-.57Z" fill="#fff"/></g></svg>