<?xml version="1.0" encoding="UTF-8"?><svg id="Layer_2" xmlns="http://www.w3.org/2000/svg" width="182.12" height="44.48" xmlns:xlink="http://www.w3.org/1999/xlink" viewBox="0 0 182.12 44.48"><defs><linearGradient id="linear-gradient" x1="90.83" y1="-5.27" x2="91.25" y2="43.87" gradientUnits="userSpaceOnUse"><stop offset=".12" stop-color="#4c6596"/><stop offset=".44" stop-color="#3d4e88"/><stop offset=".61" stop-color="#35417b"/><stop offset=".91" stop-color="#2a3069"/></linearGradient></defs><g id="_כפתורים"><path d="m131.87,44.48c-1.66,0-9.91-.02-19.15-.05h-.53c-11.11-.03-24.93-.07-28.25-.07-8.23,0-52.81-.4-64.33-1.48-6.19-.58-10.52-2.26-13.63-5.29-2.76-2.7-4.58-6.34-5.56-11.13l-.06-.29-.02-.13c-.43-3.21-.43-4.96,0-8.14C1.96,8.21,8.98,2.08,19.58,1.03c10.35-1.03,20.68-1.03,30.67-1.03,2.95,0,13.15.03,23.01.06h1.7c9.95.03,20.24.06,23.22.06,4.61,0,14.49.14,22.43.26h.22c5.2.08,9.69.14,11.04.14,10.2,0,20.74,0,30.69,1.03,10.6,1.1,17.61,7.2,19.23,16.75.45,3.32.45,5,.02,8.22l-.02.15c-.65,3.31-1.67,6.04-3.13,8.34-.23.35-.46.69-.69,1.01-3.05,4.17-8.08,6.58-15.39,7.38-9.87,1.08-20.46,1.08-30.7,1.08Z" fill="#03072d"/><path d="m131.87,42.86c-1.69,0-10.22-.02-19.68-.05-11.71-.03-24.99-.07-28.26-.07-8.22,0-52.74-.4-64.22-1.47-5.91-.55-10.01-2.12-12.9-4.96-2.59-2.53-4.3-5.97-5.23-10.52l-.05-.26v-.09c-.43-3.09-.43-4.77-.02-7.83C3.05,8.55,9.68,2.79,19.7,1.8c10.3-1.02,20.59-1.02,30.55-1.02,3.04,0,13.64.03,23.9.06,10.31.03,20.97.06,24.04.06,4.63,0,14.57.15,22.56.26,5.23.08,9.75.14,11.12.14,10.16,0,20.68,0,30.56,1.02,10.02,1.04,16.65,6.78,18.17,15.76.42,3.16.43,4.76,0,7.86v.08c-.63,3.17-1.6,5.76-2.98,7.93-.21.33-.43.65-.64.94-2.84,3.88-7.6,6.14-14.55,6.9-9.8,1.07-20.36,1.07-30.57,1.07Z" fill="#6d7eb1"/><path d="m179.43,18.28c-1.43-8.41-7.67-13.79-17.12-14.77-9.82-1.02-20.3-1.02-30.44-1.02-3.43,0-25.98-.4-33.68-.4-6.12,0-41.86-.12-47.94-.12-9.93,0-20.2,0-30.43,1.02-9.45.94-15.68,6.32-17.12,14.8-.4,2.97-.4,4.5,0,7.47v.05c.02.09.04.17.06.25.88,4.3,2.48,7.54,4.89,9.9,2.69,2.63,6.56,4.1,12.18,4.62,11.39,1.06,56.4,1.47,64.11,1.47,5.89,0,44.14.12,47.94.12,10.18,0,20.71,0,30.44-1.06,6.6-.72,11.08-2.82,13.71-6.41.21-.28.41-.57.6-.88,1.29-2.04,2.21-4.5,2.8-7.48v-.05c.41-2.97.41-4.5,0-7.5Z" fill="url(#linear-gradient)"/><path d="m19.82,40.07c11.39,1.06,56.4,1.47,64.11,1.47,5.89,0,44.14.12,47.94.12,10.18,0,20.71,0,30.44-1.06,6.6-.72,11.08-2.82,13.71-6.41,0,0,0-.01.01-.02-24.26,4.87-42.33,3.95-66.84,3.97-60.3.07-91.75-.82-106.19-11.5.92,3.76,2.44,6.66,4.64,8.81,2.69,2.63,6.56,4.1,12.18,4.62Z" fill="#0b1a42" opacity=".37"/><path d="m173.79,8.05c-2.91-2.48-6.8-4.05-11.49-4.53-7.52-.78-15.42-.96-23.26-1-2.4-.01-4.8-.01-7.18-.01h0c-.14,0-.32,0-.51,0-.05,0-.09,0-.14,0-.19,0-.39,0-.62,0-.04,0-.07,0-.1,0-.25,0-.53,0-.83,0-.11,0-.23,0-.35,0-.26,0-.53,0-.82-.01-.03,0-.06,0-.1,0-.75,0-1.58-.02-2.48-.03-.16,0-.31,0-.47,0-.22,0-.45,0-.67,0-.49,0-.99-.01-1.5-.02-.21,0-.43,0-.65,0-.03,0-.06,0-.09,0-1.84,0-3.68,0-5.51,0-1.4,0-5.05-.09-9.78-.21,0,0,0,0,0,0-.43,0-.86-.01-1.28-.02-.08,0-.16,0-.23,0-.34,0-.67,0-1-.01-.12,0-.24,0-.36,0-.28,0-.55,0-.81,0-.16,0-.32,0-.48,0-.21,0-.41,0-.61,0-.18,0-.36,0-.54,0-.21,0-.42,0-.62,0-.14,0-.27,0-.41,0-.21,0-.41,0-.61,0-.13,0-.26,0-.39,0-.21,0-.4,0-.6,0-.1,0-.21,0-.3,0-.28,0-.56,0-.81,0-6.12,0-41.86-.12-47.94-.12h0c-1.58,0-3.17,0-4.77,0-.41,0-.81,0-1.22,0-1.72,0-3.44.02-5.17.04h0c-2.15.06-4.3.11-6.45.15-.93.03-1.86.07-2.79.11-.29.01-.58.03-.88.04-.76.04-1.53.08-2.29.12-.56.03-1.13.07-1.69.11-.56.04-1.12.07-1.68.12-1.17.09-2.34.19-3.5.31-.57.06-1.12.13-1.66.22-.19.03-.37.07-.56.11-.35.06-.69.13-1.03.2-.23.05-.44.11-.66.17-.28.07-.57.15-.84.23-.24.07-.47.15-.7.23-.24.08-.49.17-.72.26-.25.09-.48.19-.72.3-.21.09-.41.18-.62.27-.25.12-.49.24-.73.36-.18.09-.35.19-.52.28-.25.14-.5.29-.75.44-.14.09-.27.18-.41.27-.26.17-.52.35-.76.54-.1.07-.19.15-.29.23-.27.22-.54.43-.8.66-.04.03-.07.07-.11.1-2.24,2.05-3.85,4.67-4.75,7.8,0,0,0,0,0,0C13.09,6.7,61.29.59,173.79,8.05Z" fill="#fff" opacity=".07"/><path d="m19.58,6.33c-.17.63-1.4.26-3.53.96-3.28,1.07-2.95,2.7-3.92,2.17-.59-.33.78-2.14,2.84-3,2.06-.86,4.77-.74,4.61-.12Z" fill="#fff"/><ellipse cx="11.23" cy="10.77" rx=".62" ry=".68" transform="translate(.18 21.72) rotate(-88.56)" fill="#fff"/><g opacity=".63"><path d="m30.34,26.54c-.42,0-.71-.08-.86-.25-.15-.16-.23-.44-.23-.82,0-.23.03-.43.08-.6.05-.16.16-.29.31-.38.15-.09.38-.13.68-.13.44,0,.73.08.87.25.14.16.22.44.22.82,0,.23-.03.43-.08.59-.05.16-.16.28-.31.38-.15.1-.38.14-.68.14Zm0-4.07c-.27,0-.48-.03-.61-.09s-.22-.16-.26-.29c-.04-.13-.06-.29-.06-.48v-8.56c0-.18.02-.33.06-.46.04-.13.13-.23.26-.31.13-.07.33-.11.59-.11s.48.03.61.1c.13.07.22.17.26.3.04.13.06.29.06.48v8.54c0,.18-.02.34-.06.47-.04.14-.12.24-.25.31-.12.07-.32.1-.6.1Z" fill="#cae8f3"/><path d="m42.4,16.66l-1.25-.45h-6.16c-.34,0-.59-.08-.76-.23-.16-.15-.26-.4-.29-.74l-.16-3.2c0-.18.02-.33.07-.46.05-.13.15-.23.3-.31.15-.08.36-.11.62-.11.25,0,.42.04.53.12.11.08.19.2.24.34.05.14.07.31.07.5l.12,2.24h5.22c.44,0,.79.1,1.05.29s.43.46.5.81.04.75-.09,1.2Zm-5.65,9.8c-.33-.16-.54-.34-.64-.53s-.06-.41.1-.66c.63-.97,1.19-1.88,1.69-2.72.5-.84.95-1.64,1.33-2.4.39-.76.74-1.52,1.04-2.27.3-.75.56-1.53.78-2.32l1.38,1.05c-.32,1.03-.68,2.01-1.11,2.96-.42.94-.91,1.93-1.46,2.96-.55,1.03-1.19,2.18-1.93,3.45-.08.16-.18.3-.3.41s-.25.18-.39.21c-.14.03-.31-.01-.5-.12Z" fill="#cae8f3"/><path d="m45.95,26.52c-.25,0-.43-.04-.55-.12s-.21-.19-.26-.34c-.05-.14-.07-.3-.07-.46v-10.33c0-.16.02-.31.07-.45.05-.14.14-.25.27-.33.13-.08.32-.12.56-.12.26,0,.46.04.58.13.13.09.22.2.26.33.04.13.06.28.06.46v10.33c0,.16-.02.31-.07.45-.05.14-.14.25-.27.33s-.33.12-.58.12Z" fill="#cae8f3"/><path d="m53.99,23.14c.31-.25.61-.53.91-.83l.02,1.36c-.22.3-.46.59-.71.85m1.35,1.98c-.25,0-.43-.03-.55-.1s-.21-.16-.25-.29c-.04-.12-.08-.27-.1-.43l-.78-6.33c-.05-.48-.11-.91-.16-1.29s-.13-.72-.23-1c-.1-.28-.23-.5-.41-.65-.18-.15-.43-.24-.76-.27-.34-.01-.62-.02-.84-.03-.22,0-.38-.04-.49-.09-.11-.04-.19-.11-.25-.22s-.08-.23-.06-.38l.02-.47c.01-.22.07-.38.17-.47.1-.1.31-.14.63-.12h.37c.19,0,.42.01.68.04.55.05,1,.19,1.35.4.35.21.63.5.84.86.21.36.38.8.49,1.31.12.51.22,1.1.32,1.76l.94,6.9c.04.27-.01.49-.16.64-.15.15-.4.23-.76.23Z" fill="#cae8f3"/><path d="m66.43,26.52c-.25,0-.43-.03-.56-.1s-.22-.17-.28-.3c-.05-.13-.08-.26-.08-.4v-5.03c0-.74-.08-1.39-.24-1.95s-.4-1.03-.72-1.41c-.32-.38-.72-.66-1.19-.84-.47-.18-1.02-.28-1.65-.28h-2.49c-.19,0-.36-.02-.49-.07-.14-.05-.25-.14-.33-.28-.08-.14-.12-.33-.12-.58,0-.26.04-.45.12-.57.08-.12.19-.21.33-.27.14-.05.29-.08.47-.08h2.44c.94,0,1.77.13,2.47.4s1.3.66,1.78,1.19c.48.53.84,1.18,1.08,1.96.24.78.36,1.69.36,2.73v4.93c0,.18-.02.34-.07.48-.05.14-.14.26-.27.34-.13.08-.32.12-.57.12Z" fill="#cae8f3"/><path d="m72.65,24.67v-9l.76.57c-.4.01-.74.02-1.02.02s-.51-.03-.68-.08c-.17-.05-.29-.14-.37-.26-.08-.12-.11-.28-.11-.48,0-.38.09-.65.27-.8.18-.15.53-.23,1.07-.25l3.57-.04c1.29-.01,2.37.21,3.24.68.87.47,1.53,1.16,1.97,2.09.44.93.67,2.1.67,3.51v4.93c0,.18-.02.34-.07.48-.05.14-.14.26-.27.34s-.32.12-.56.12-.44-.03-.57-.1-.22-.17-.28-.3c-.05-.13-.08-.26-.08-.4v-5.03c0-1-.14-1.83-.42-2.49s-.7-1.15-1.26-1.49c-.56-.34-1.27-.5-2.12-.5h-1.89v8.98c0,.44-.08.77-.24,1-.16.23-.39.34-.71.34" fill="#cae8f3"/><path d="m93.13,16.66l-1.25-.45h-6.16c-.34,0-.59-.08-.76-.23-.16-.15-.26-.4-.29-.74l-.16-3.2c0-.18.02-.33.07-.46.05-.13.15-.23.3-.31.15-.08.36-.11.62-.11.25,0,.42.04.53.12.11.08.19.2.24.34.05.14.07.31.07.5l.12,2.24h5.22c.44,0,.79.1,1.05.29s.43.46.5.81.04.75-.09,1.2Zm-5.65,9.8c-.33-.16-.54-.34-.64-.53s-.06-.41.1-.66c.63-.97,1.19-1.88,1.69-2.72.5-.84.95-1.64,1.33-2.4.39-.76.74-1.52,1.04-2.27.3-.75.56-1.53.78-2.32l1.38,1.05c-.32,1.03-.68,2.01-1.11,2.96-.42.94-.91,1.93-1.46,2.96-.55,1.03-1.19,2.18-1.93,3.45-.08.16-.18.3-.3.41s-.25.18-.39.21c-.14.03-.31-.01-.5-.12Z" fill="#cae8f3"/><path d="m110.01,26.52c-.25,0-.43-.03-.56-.1-.13-.07-.22-.17-.28-.3-.05-.13-.08-.26-.08-.4v-5.03c0-1-.14-1.83-.42-2.49-.28-.66-.7-1.15-1.26-1.49s-1.27-.5-2.12-.5h-3.86c-.18,0-.34-.02-.47-.07-.14-.05-.25-.14-.33-.28-.08-.14-.12-.33-.12-.58,0-.26.04-.45.12-.57.08-.12.19-.21.33-.27s.29-.08.45-.08h3.82c1.26,0,2.31.24,3.15.71.84.47,1.48,1.17,1.9,2.09.42.92.64,2.08.64,3.48v4.93c0,.18-.02.34-.07.48-.05.14-.14.26-.27.34-.13.08-.32.12-.57.12Zm-8.42,0c-.25,0-.43-.04-.55-.12-.12-.08-.21-.19-.26-.34-.05-.14-.07-.3-.07-.46v-5.07c0-.18.02-.33.07-.47.05-.14.14-.24.27-.32s.32-.11.56-.11c.26,0,.46.04.59.12.13.08.22.19.26.33.04.14.06.29.06.47v5.07c0,.16-.02.31-.07.45-.05.14-.14.25-.27.33-.13.08-.33.12-.59.12Z" fill="#cae8f3"/><path d="m122.31,24.67v-4.7c0-.89-.11-1.62-.34-2.2s-.55-1-.99-1.27c-.43-.27-.96-.41-1.57-.41-.45,0-.86.1-1.23.3-.37.2-.69.48-.97.83-.27.36-.51.78-.71,1.26-.2.49-.37,1.02-.5,1.61l-1.11,5.44c-.03.18-.07.34-.12.49-.05.15-.15.27-.28.36-.13.09-.31.13-.54.13-.36,0-.61-.08-.76-.24s-.2-.39-.14-.69l1.46-7.23.66.43c.14-.51.3-.99.49-1.45.19-.46.41-.88.65-1.25.24-.38.52-.7.85-.98.33-.27.7-.49,1.12-.64.42-.15.91-.23,1.47-.23.93,0,1.72.21,2.37.63.65.42,1.15,1.05,1.49,1.89.34.84.51,1.89.51,3.13v5.69c0,.26-.02.46-.06.59-.04.13-.12.22-.25.27s-.32.07-.58.07m-8.77-6.04l-1.31-4.91c-.05-.19-.08-.36-.08-.51s.05-.28.15-.4c.1-.12.28-.21.54-.28.31-.07.55-.07.7,0,.15.07.25.17.31.32.05.14.1.28.12.4l.96,3.76-1.4,1.62Z" fill="#cae8f3"/><path d="m128.21,20.71c-.25,0-.43-.04-.55-.13-.12-.09-.21-.2-.26-.34s-.07-.29-.07-.45v-4.52c0-.16.02-.31.07-.45.05-.14.14-.25.27-.33.13-.08.32-.12.56-.12.26,0,.46.04.58.13.13.09.22.2.26.33.04.13.06.28.06.46v4.52c0,.16-.02.32-.07.45-.05.14-.14.25-.27.33-.13.08-.33.12-.58.12Z" fill="#cae8f3"/><path d="m132.66,16.21c-.18,0-.34-.02-.48-.07-.14-.05-.26-.14-.34-.28-.08-.14-.12-.33-.12-.58,0-.26.04-.45.12-.57.08-.12.19-.21.34-.27.14-.05.3-.08.46-.08h8.58c.18,0,.33.03.46.08s.24.14.32.27c.08.12.12.31.12.57s-.04.44-.12.58c-.08.14-.19.23-.33.28-.14.05-.29.07-.47.07h-8.54Zm6.22,10.31c-.25,0-.43-.04-.55-.12-.12-.08-.21-.19-.27-.34-.05-.14-.08-.3-.08-.48v-9.63l1.83.08v9.69c0,.14-.02.27-.07.4-.05.13-.14.23-.27.3-.13.07-.33.1-.59.1Z" fill="#cae8f3"/><path d="m154.56,16.68l-1.42-.47h-7.66c-.18,0-.34-.03-.48-.08s-.26-.15-.34-.29c-.08-.14-.12-.33-.12-.58,0-.26.04-.45.12-.57.08-.12.2-.21.34-.26s.3-.07.46-.07h7.52c.49,0,.88.1,1.17.31.29.21.47.48.54.83s.03.74-.13,1.18Zm-8.79,12.94c-.25,0-.43-.04-.55-.12-.12-.08-.21-.19-.26-.33-.05-.14-.07-.29-.07-.47v-8.83c0-.16.02-.31.07-.45.05-.14.14-.24.27-.32.13-.08.32-.11.57-.11.26,0,.46.04.58.12s.22.19.26.32c.04.13.06.28.06.46v8.83c0,.18-.02.33-.07.46-.05.13-.14.24-.27.32-.13.08-.33.12-.58.12Zm4.54-3.14c-.36-.12-.6-.27-.73-.44-.13-.17-.15-.39-.05-.65.18-.45.38-1,.62-1.63.23-.64.48-1.32.75-2.05.27-.73.53-1.48.8-2.23.27-.75.52-1.47.75-2.16.23-.68.44-1.29.62-1.83l1.54,1.07c-.15.52-.33,1.11-.55,1.78-.22.66-.45,1.36-.7,2.07-.25.72-.49,1.42-.73,2.1-.24.69-.46,1.31-.67,1.88-.21.57-.38,1.03-.51,1.39-.07.16-.15.31-.26.44-.1.13-.22.22-.35.27-.13.05-.3.04-.52-.01Z" fill="#cae8f3"/></g><path d="m29.34,29.39c-.68,0-1.17-.17-1.49-.52-.3-.33-.45-.79-.45-1.4,0-.32.04-.61.13-.86.12-.36.36-.65.68-.84.29-.17.65-.25,1.11-.25.7,0,1.2.18,1.51.54.29.32.43.78.43,1.38,0,.33-.04.61-.13.86-.12.34-.34.62-.65.82-.3.19-.67.28-1.13.28Zm0-4.07c-.41,0-.72-.06-.97-.17-.34-.16-.59-.45-.7-.8-.07-.21-.1-.46-.1-.74v-8.56c0-.26.03-.51.1-.72.11-.33.33-.6.64-.79.27-.15.6-.23,1.01-.23s.74.06,1,.2c.33.18.56.45.67.79.07.22.1.46.1.74v8.54c0,.26-.03.5-.1.72-.1.35-.33.63-.65.81-.26.14-.58.21-1.01.21Z" fill="#03072d"/><path d="m36.16,29.44c-.27,0-.55-.08-.84-.24-.46-.23-.79-.53-.97-.89-.14-.27-.3-.83.16-1.51.62-.95,1.18-1.85,1.67-2.68.49-.83.93-1.62,1.31-2.36.38-.73.71-1.47,1.01-2.2.07-.16.13-.33.19-.5h-4.7c-.56,0-1.01-.15-1.33-.45-.33-.3-.52-.74-.56-1.3l-.17-3.23c0-.32.04-.58.12-.8.09-.23.28-.56.71-.77.27-.14.6-.2,1-.2.44,0,.78.1,1.04.29.25.19.43.45.53.75.08.23.12.49.12.77l.08,1.39h4.41c.62,0,1.14.15,1.55.45.42.31.71.77.83,1.32.06.3.08.61.04.95l.05.04-.16.58c-.33,1.06-.71,2.09-1.15,3.06-.43.97-.93,1.98-1.48,3.01-.55,1.03-1.2,2.2-1.95,3.48-.1.21-.26.43-.45.6-.24.22-.51.36-.81.42l-.08.02h-.17Z" fill="#03072d"/><path d="m44.95,29.37c-.42,0-.76-.09-1.03-.27-.28-.19-.49-.46-.59-.78-.08-.23-.12-.48-.12-.73v-10.33c0-.26.04-.5.12-.73.11-.32.33-.58.62-.77.27-.17.6-.25,1.02-.25.44,0,.79.09,1.07.28.29.2.49.46.59.77.07.21.1.45.1.72v10.33c0,.26-.04.51-.12.73-.11.32-.33.58-.62.77-.27.17-.61.25-1.04.25Z" fill="#03072d"/><path d="m54.56,29.35c-.4,0-.71-.07-.97-.21-.31-.17-.53-.44-.64-.76-.04-.12-.08-.25-.11-.41-.31.23-.64.43-.98.61-.37.2-.76.36-1.15.48-.41.13-.85.21-1.29.24-.11,0-.21.01-.31.01-.16,0-.3,0-.43-.03-.39-.05-.72-.24-.94-.55-.18-.26-.28-.58-.3-.99-.02-.41,0-.98.37-1.38.29-.32.7-.48,1.24-.48.24-.01.52-.05.81-.11.29-.07.58-.16.87-.27.29-.11.58-.26.87-.43.28-.16.54-.35.8-.56l-.38-3.06c-.05-.48-.11-.9-.16-1.28-.05-.33-.11-.61-.19-.84-.04-.13-.1-.22-.16-.27h0s-.07-.05-.28-.07l-.8-.03c-.35-.01-.62-.07-.85-.18-.22-.08-.46-.29-.62-.58-.13-.25-.19-.54-.16-.86l.02-.43c.03-.46.18-.81.44-1.06.26-.24.62-.36,1.1-.36h.48c.22,0,.47.02.77.05.67.07,1.24.24,1.7.52.47.29.85.68,1.13,1.16.25.44.45.96.59,1.56.12.53.23,1.13.33,1.82l.95,6.91c.08.53-.06,1.01-.41,1.35-.32.32-.78.48-1.36.48Z" fill="#03072d"/><path d="m65.43,29.37c-.39,0-.7-.07-.96-.2-.3-.16-.53-.41-.67-.72-.1-.23-.15-.48-.15-.73v-5.03c0-.66-.07-1.24-.21-1.72-.12-.44-.31-.8-.55-1.08-.23-.27-.51-.47-.85-.6-.37-.15-.82-.22-1.34-.22h-2.49c-.29,0-.55-.04-.78-.12-.32-.11-.59-.33-.78-.64-.16-.27-.24-.6-.24-1.01,0-.44.09-.78.27-1.05.18-.27.43-.47.72-.59.23-.09.5-.14.79-.14h2.44c1.04,0,1.98.15,2.78.46.83.31,1.54.79,2.11,1.41.56.62.99,1.39,1.26,2.28.26.86.4,1.86.4,2.98v4.93c0,.27-.04.52-.12.75-.11.33-.32.6-.62.79-.27.17-.61.25-1.02.25Z" fill="#03072d"/><path d="m80.11,29.37c-.39,0-.71-.07-.96-.2-.3-.16-.53-.41-.67-.72-.1-.23-.15-.48-.15-.73v-5.03c0-.88-.12-1.6-.35-2.15-.21-.49-.51-.85-.92-1.09-.42-.25-.99-.38-1.68-.38h-1.04v8.12c0,.62-.13,1.11-.39,1.48-.32.46-.82.7-1.41.7h-2.65c-.29,0-.55-.05-.79-.14-.3-.12-.55-.33-.73-.61-.17-.27-.25-.61-.25-1.02s.08-.77.25-1.04c.18-.29.45-.5.76-.62.23-.08.48-.12.74-.12h.92v-6.74c-.12-.02-.24-.05-.35-.08-.45-.14-.7-.41-.82-.61-.16-.25-.25-.57-.25-.94,0-.64.19-1.13.57-1.45.34-.29.84-.43,1.6-.45l3.7-.04c1.37,0,2.56.26,3.53.78,1.03.55,1.81,1.38,2.34,2.48.5,1.04.75,2.35.75,3.88v4.93c0,.27-.04.52-.12.75-.11.33-.32.6-.62.79-.27.17-.6.25-1.02.25Z" fill="#03072d"/><path d="m86.89,29.44c-.27,0-.55-.08-.84-.24-.46-.23-.79-.53-.97-.89-.14-.27-.3-.83.16-1.51.62-.95,1.18-1.85,1.67-2.68.49-.83.93-1.62,1.31-2.36.38-.73.71-1.47,1.01-2.2.07-.16.13-.33.19-.5h-4.7c-.56,0-1.01-.15-1.33-.45-.33-.3-.52-.74-.56-1.3l-.17-3.23c0-.32.04-.58.12-.8.09-.23.28-.56.71-.77.27-.14.6-.2,1-.2.44,0,.78.1,1.04.29.25.19.43.45.53.75.08.23.12.49.12.77l.08,1.39h4.41c.62,0,1.14.15,1.55.45.42.31.71.77.83,1.32.06.3.08.61.04.95l.05.04-.16.58c-.33,1.06-.71,2.09-1.15,3.06-.43.97-.93,1.98-1.48,3.01-.55,1.03-1.2,2.2-1.95,3.48-.1.21-.26.43-.45.6-.24.22-.51.36-.81.42l-.08.02h-.17Z" fill="#03072d"/><path d="m109.01,29.37c-.39,0-.7-.07-.96-.2-.3-.16-.53-.41-.67-.72-.1-.23-.15-.48-.15-.73v-5.03c0-.88-.12-1.6-.35-2.15-.21-.49-.51-.85-.92-1.09-.42-.25-.99-.38-1.68-.38h-3.86c-.28,0-.53-.04-.76-.12-.32-.11-.59-.34-.77-.64-.16-.27-.24-.6-.24-1.01,0-.44.09-.78.27-1.05.18-.26.42-.47.72-.58.24-.09.5-.14.77-.14h3.82c1.4,0,2.6.28,3.57.82,1,.56,1.76,1.4,2.26,2.48.47,1.03.71,2.32.71,3.84v4.93c0,.27-.04.52-.12.75-.11.33-.32.6-.62.79-.27.17-.61.25-1.02.25Zm-8.42,0c-.42,0-.76-.09-1.03-.27-.28-.18-.48-.45-.59-.78-.08-.22-.12-.47-.12-.73v-5.07c0-.28.04-.53.12-.76.11-.32.34-.59.64-.77.26-.15.59-.23.99-.23.43,0,.77.08,1.04.25.31.19.52.47.62.81.06.22.1.46.1.72v5.07c0,.26-.04.5-.12.73-.11.32-.32.58-.62.77-.27.17-.61.25-1.04.25Z" fill="#03072d"/><path d="m117.24,29.37c-.27,0-.52-.05-.76-.14-.31-.12-.57-.33-.75-.61-.17-.28-.26-.61-.26-1.02s.08-.77.25-1.04c.19-.3.46-.51.79-.62.23-.08.49-.12.75-.12h3.2v-3.85c0-.78-.09-1.41-.28-1.89-.16-.41-.37-.69-.65-.87-.29-.18-.67-.28-1.12-.28-.31,0-.58.06-.83.2-.27.14-.49.34-.69.6-.23.29-.43.65-.6,1.07-.18.44-.34.94-.46,1.48l-1.1,5.42c-.03.2-.09.42-.16.61-.11.32-.32.58-.6.77-.27.19-.62.28-1.02.28-.6,0-1.06-.17-1.37-.5-.24-.25-.5-.7-.37-1.43l1.16-5.76-1.04-3.9c-.07-.26-.11-.5-.11-.73,0-.36.13-.69.37-.97.22-.25.53-.42.96-.53.25-.06.45-.08.63-.08.24,0,.45.04.64.13.36.16.62.44.75.79.07.18.12.35.16.51l.1.39c.23-.31.5-.58.79-.83.4-.34.87-.6,1.38-.78.51-.18,1.1-.28,1.76-.28,1.09,0,2.04.26,2.83.76.8.51,1.41,1.28,1.82,2.29.38.94.58,2.1.58,3.45v5.69c0,.35-.03.62-.1.84-.12.38-.39.66-.75.8-.23.09-.51.13-.88.13h-4.99Z" fill="#03072d"/><path d="m127.21,23.56c-.43,0-.78-.1-1.05-.29-.26-.19-.46-.45-.56-.75-.08-.23-.12-.47-.12-.73v-4.52c0-.26.04-.5.12-.73.11-.32.33-.59.62-.77.27-.17.6-.25,1.02-.25.44,0,.79.09,1.07.28.29.2.49.46.59.77.07.21.1.46.1.72v4.52c0,.26-.04.51-.12.73-.11.32-.33.58-.61.77-.27.17-.61.26-1.04.26Z" fill="#03072d"/><path d="m137.88,29.37c-.42,0-.76-.09-1.03-.27-.27-.18-.47-.44-.59-.74-.09-.24-.14-.5-.14-.78v-8.52h-4.47c-.27,0-.52-.04-.75-.12-.33-.11-.61-.33-.8-.65-.16-.27-.25-.61-.25-1.01,0-.43.09-.78.27-1.05.18-.27.44-.47.75-.59.24-.09.5-.14.76-.14h8.58c.29,0,.56.05.79.15.28.12.52.32.7.58.18.27.27.61.27,1.04,0,.41-.08.74-.24,1.01-.18.31-.45.53-.78.64-.23.08-.48.12-.75.12h-.55v8.66c0,.24-.04.47-.12.69-.12.33-.35.59-.67.76-.26.14-.58.2-.98.2Z" fill="#03072d"/><path d="m144.76,32.47c-.42,0-.76-.09-1.03-.27-.28-.19-.48-.45-.59-.76-.08-.23-.12-.48-.12-.75v-8.83c0-.26.04-.5.12-.73.12-.33.34-.6.64-.77.27-.15.59-.23.99-.23.43,0,.77.08,1.04.25.3.19.51.46.61.78.07.21.1.45.1.72v8.83c0,.28-.04.53-.12.76-.12.31-.33.56-.61.74-.27.17-.61.26-1.04.26Zm4.85-3.1c-.16,0-.33-.02-.52-.07-.6-.2-.96-.44-1.2-.75-.18-.23-.44-.74-.17-1.46.18-.46.38-1,.61-1.63l.75-2.05c.27-.73.53-1.47.8-2.22.26-.74.51-1.46.74-2.13h-6.15c-.28,0-.54-.05-.79-.14-.32-.12-.59-.35-.77-.65-.16-.27-.24-.6-.24-1.01,0-.44.09-.78.27-1.05.19-.28.46-.48.78-.59.23-.08.48-.12.73-.12h7.52c.67,0,1.23.16,1.67.47.46.33.76.79.88,1.34.1.48.06,1.01-.14,1.57-.14.47-.32,1.06-.54,1.71-.22.67-.45,1.36-.7,2.08-.25.72-.49,1.42-.73,2.11-.24.69-.46,1.32-.67,1.89-.21.57-.38,1.04-.52,1.4-.11.26-.23.47-.38.66-.2.25-.44.43-.72.54-.16.06-.33.09-.51.09Z" fill="#03072d"/><path d="m30.34,27.54c-.42,0-.71-.08-.86-.25-.15-.16-.23-.44-.23-.82,0-.23.03-.43.08-.6.05-.16.16-.29.31-.38.15-.09.38-.13.68-.13.44,0,.73.08.87.25.14.16.22.44.22.82,0,.23-.03.43-.08.59-.05.16-.16.28-.31.38-.15.1-.38.14-.68.14Zm0-4.07c-.27,0-.48-.03-.61-.09s-.22-.16-.26-.29c-.04-.13-.06-.29-.06-.48v-8.56c0-.18.02-.33.06-.46.04-.13.13-.23.26-.31.13-.07.33-.11.59-.11s.48.03.61.1c.13.07.22.17.26.3.04.13.06.29.06.48v8.54c0,.18-.02.34-.06.47-.04.14-.12.24-.25.31-.12.07-.32.1-.6.1Z" fill="#fff"/><path d="m42.4,17.66l-1.25-.45h-6.16c-.34,0-.59-.08-.76-.23-.16-.15-.26-.4-.29-.74l-.16-3.2c0-.18.02-.33.07-.46.05-.13.15-.23.3-.31.15-.08.36-.11.62-.11.25,0,.42.04.53.12.11.08.19.2.24.34.05.14.07.31.07.5l.12,2.24h5.22c.44,0,.79.1,1.05.29s.43.46.5.81.04.75-.09,1.2Zm-5.65,9.8c-.33-.16-.54-.34-.64-.53s-.06-.41.1-.66c.63-.97,1.19-1.88,1.69-2.72.5-.84.95-1.64,1.33-2.4.39-.76.74-1.52,1.04-2.27.3-.75.56-1.53.78-2.32l1.38,1.05c-.32,1.03-.68,2.01-1.11,2.96-.42.94-.91,1.93-1.46,2.96-.55,1.03-1.19,2.18-1.93,3.45-.08.16-.18.3-.3.41s-.25.18-.39.21c-.14.03-.31-.01-.5-.12Z" fill="#fff"/><path d="m45.95,27.52c-.25,0-.43-.04-.55-.12s-.21-.19-.26-.34c-.05-.14-.07-.3-.07-.46v-10.33c0-.16.02-.31.07-.45.05-.14.14-.25.27-.33.13-.08.32-.12.56-.12.26,0,.46.04.58.13.13.09.22.2.26.33.04.13.06.28.06.46v10.33c0,.16-.02.31-.07.45-.05.14-.14.25-.27.33s-.33.12-.58.12Z" fill="#fff"/><path d="m50.36,27.46c-.22.01-.41.01-.57-.01-.16-.02-.28-.09-.36-.21-.08-.12-.13-.3-.14-.54-.01-.38.04-.64.15-.77.12-.13.32-.2.61-.2.33-.01.66-.06,1-.13.34-.08.67-.18,1-.31.33-.13.66-.29.99-.48.33-.19.65-.41.96-.67.31-.25.61-.53.91-.83l.02,1.36c-.22.3-.46.59-.71.85-.25.27-.53.51-.82.73-.29.22-.6.41-.92.59-.32.17-.66.31-1.01.42s-.72.18-1.1.21Zm5.2.04c-.25,0-.43-.03-.55-.1s-.21-.16-.25-.29c-.04-.12-.08-.27-.1-.43l-.78-6.33c-.05-.48-.11-.91-.16-1.29s-.13-.72-.23-1c-.1-.28-.23-.5-.41-.65-.18-.15-.43-.24-.76-.27-.34-.01-.62-.02-.84-.03-.22,0-.38-.04-.49-.09-.11-.04-.19-.11-.25-.22s-.08-.23-.06-.38l.02-.47c.01-.22.07-.38.17-.47.1-.1.31-.14.63-.12h.37c.19,0,.42.01.68.04.55.05,1,.19,1.35.4.35.21.63.5.84.86.21.36.38.8.49,1.31.12.51.22,1.1.32,1.76l.94,6.9c.04.27-.01.49-.16.64-.15.15-.4.23-.76.23Z" fill="#fff"/><path d="m66.43,27.52c-.25,0-.43-.03-.56-.1s-.22-.17-.28-.3c-.05-.13-.08-.26-.08-.4v-5.03c0-.74-.08-1.39-.24-1.95s-.4-1.03-.72-1.41c-.32-.38-.72-.66-1.19-.84-.47-.18-1.02-.28-1.65-.28h-2.49c-.19,0-.36-.02-.49-.07-.14-.05-.25-.14-.33-.28-.08-.14-.12-.33-.12-.58,0-.26.04-.45.12-.57.08-.12.19-.21.33-.27.14-.05.29-.08.47-.08h2.44c.94,0,1.77.13,2.47.4s1.3.66,1.78,1.19c.48.53.84,1.18,1.08,1.96.24.78.36,1.69.36,2.73v4.93c0,.18-.02.34-.07.48-.05.14-.14.26-.27.34-.13.08-.32.12-.57.12Z" fill="#fff"/><path d="m70.9,27.52c-.18,0-.34-.03-.47-.08s-.25-.15-.33-.28c-.08-.13-.12-.32-.12-.56,0-.26.04-.46.12-.59.08-.13.19-.22.33-.27.14-.05.29-.07.45-.07h1.77v-9l.76.57c-.4.01-.74.02-1.02.02s-.51-.03-.68-.08c-.17-.05-.29-.14-.37-.26-.08-.12-.11-.28-.11-.48,0-.38.09-.65.27-.8.18-.15.53-.23,1.07-.25l3.57-.04c1.29-.01,2.37.21,3.24.68.87.47,1.53,1.16,1.97,2.09.44.93.67,2.1.67,3.51v4.93c0,.18-.02.34-.07.48-.05.14-.14.26-.27.34s-.32.12-.56.12-.44-.03-.57-.1-.22-.17-.28-.3c-.05-.13-.08-.26-.08-.4v-5.03c0-1-.14-1.83-.42-2.49s-.7-1.15-1.26-1.49c-.56-.34-1.27-.5-2.12-.5h-1.89v8.98c0,.44-.08.77-.24,1-.16.23-.39.34-.71.34h-2.65Z" fill="#fff"/><path d="m93.13,17.66l-1.25-.45h-6.16c-.34,0-.59-.08-.76-.23-.16-.15-.26-.4-.29-.74l-.16-3.2c0-.18.02-.33.07-.46.05-.13.15-.23.3-.31.15-.08.36-.11.62-.11.25,0,.42.04.53.12.11.08.19.2.24.34.05.14.07.31.07.5l.12,2.24h5.22c.44,0,.79.1,1.05.29s.43.46.5.81.04.75-.09,1.2Zm-5.65,9.8c-.33-.16-.54-.34-.64-.53s-.06-.41.1-.66c.63-.97,1.19-1.88,1.69-2.72.5-.84.95-1.64,1.33-2.4.39-.76.74-1.52,1.04-2.27.3-.75.56-1.53.78-2.32l1.38,1.05c-.32,1.03-.68,2.01-1.11,2.96-.42.94-.91,1.93-1.46,2.96-.55,1.03-1.19,2.18-1.93,3.45-.08.16-.18.3-.3.41s-.25.18-.39.21c-.14.03-.31-.01-.5-.12Z" fill="#fff"/><path d="m110.01,27.52c-.25,0-.43-.03-.56-.1-.13-.07-.22-.17-.28-.3-.05-.13-.08-.26-.08-.4v-5.03c0-1-.14-1.83-.42-2.49-.28-.66-.7-1.15-1.26-1.49s-1.27-.5-2.12-.5h-3.86c-.18,0-.34-.02-.47-.07-.14-.05-.25-.14-.33-.28-.08-.14-.12-.33-.12-.58,0-.26.04-.45.12-.57.08-.12.19-.21.33-.27s.29-.08.45-.08h3.82c1.26,0,2.31.24,3.15.71.84.47,1.48,1.17,1.9,2.09.42.92.64,2.08.64,3.48v4.93c0,.18-.02.34-.07.48-.05.14-.14.26-.27.34-.13.08-.32.12-.57.12Zm-8.42,0c-.25,0-.43-.04-.55-.12-.12-.08-.21-.19-.26-.34-.05-.14-.07-.3-.07-.46v-5.07c0-.18.02-.33.07-.47.05-.14.14-.24.27-.32s.32-.11.56-.11c.26,0,.46.04.59.12.13.08.22.19.26.33.04.14.06.29.06.47v5.07c0,.16-.02.31-.07.45-.05.14-.14.25-.27.33-.13.08-.33.12-.59.12Z" fill="#fff"/><path d="m124.12,20.91v5.69c0,.26-.02.46-.06.59-.04.13-.12.22-.25.27s-.32.07-.58.07h-4.99c-.17,0-.32-.03-.46-.08-.14-.05-.26-.15-.34-.28-.08-.13-.12-.32-.12-.56,0-.26.04-.46.12-.59.08-.13.2-.22.34-.27.14-.05.3-.07.48-.07h4.05v-4.7c0-.89-.11-1.62-.34-2.2s-.55-1-.99-1.27c-.43-.27-.96-.41-1.57-.41-.45,0-.86.1-1.23.3-.37.2-.69.48-.97.83-.27.36-.51.78-.71,1.26-.2.49-.37,1.02-.5,1.61l-1.11,5.44c-.03.18-.07.34-.12.49-.05.15-.15.27-.28.36-.13.09-.31.13-.54.13-.36,0-.61-.08-.76-.24s-.2-.39-.14-.69l1.46-7.23.66.43c.14-.51.3-.99.49-1.45.19-.46.41-.88.65-1.25.24-.38.52-.7.85-.98.33-.27.7-.49,1.12-.64.42-.15.91-.23,1.47-.23.93,0,1.72.21,2.37.63.65.42,1.15,1.05,1.49,1.89.34.84.51,1.89.51,3.13Zm-9.65.57l-1.31-4.91c-.05-.19-.08-.36-.08-.51s.05-.28.15-.4c.1-.12.28-.21.54-.28.31-.07.55-.07.7,0,.15.07.25.17.31.32.05.14.1.28.12.4l.96,3.76-1.4,1.62Z" fill="#fff"/><path d="m128.21,21.71c-.25,0-.43-.04-.55-.13-.12-.09-.21-.2-.26-.34s-.07-.29-.07-.45v-4.52c0-.16.02-.31.07-.45.05-.14.14-.25.27-.33.13-.08.32-.12.56-.12.26,0,.46.04.58.13.13.09.22.2.26.33.04.13.06.28.06.46v4.52c0,.16-.02.32-.07.45-.05.14-.14.25-.27.33-.13.08-.33.12-.58.12Z" fill="#fff"/><path d="m132.66,17.21c-.18,0-.34-.02-.48-.07-.14-.05-.26-.14-.34-.28-.08-.14-.12-.33-.12-.58,0-.26.04-.45.12-.57.08-.12.19-.21.34-.27.14-.05.3-.08.46-.08h8.58c.18,0,.33.03.46.08s.24.14.32.27c.08.12.12.31.12.57s-.04.44-.12.58c-.08.14-.19.23-.33.28-.14.05-.29.07-.47.07h-8.54Zm6.22,10.31c-.25,0-.43-.04-.55-.12-.12-.08-.21-.19-.27-.34-.05-.14-.08-.3-.08-.48v-9.63l1.83.08v9.69c0,.14-.02.27-.07.4-.05.13-.14.23-.27.3-.13.07-.33.1-.59.1Z" fill="#fff"/><path d="m154.56,17.68l-1.42-.47h-7.66c-.18,0-.34-.03-.48-.08s-.26-.15-.34-.29c-.08-.14-.12-.33-.12-.58,0-.26.04-.45.12-.57.08-.12.2-.21.34-.26s.3-.07.46-.07h7.52c.49,0,.88.1,1.17.31.29.21.47.48.54.83s.03.74-.13,1.18Zm-8.79,12.94c-.25,0-.43-.04-.55-.12-.12-.08-.21-.19-.26-.33-.05-.14-.07-.29-.07-.47v-8.83c0-.16.02-.31.07-.45.05-.14.14-.24.27-.32.13-.08.32-.11.57-.11.26,0,.46.04.58.12s.22.19.26.32c.04.13.06.28.06.46v8.83c0,.18-.02.33-.07.46-.05.13-.14.24-.27.32-.13.08-.33.12-.58.12Zm4.54-3.14c-.36-.12-.6-.27-.73-.44-.13-.17-.15-.39-.05-.65.18-.45.38-1,.62-1.63.23-.64.48-1.32.75-2.05.27-.73.53-1.48.8-2.23.27-.75.52-1.47.75-2.16.23-.68.44-1.29.62-1.83l1.54,1.07c-.15.52-.33,1.11-.55,1.78-.22.66-.45,1.36-.7,2.07-.25.72-.49,1.42-.73,2.1-.24.69-.46,1.31-.67,1.88-.21.57-.38,1.03-.51,1.39-.07.16-.15.31-.26.44-.1.13-.22.22-.35.27-.13.05-.3.04-.52-.01Z" fill="#fff"/></g></svg>