<?xml version="1.0" encoding="UTF-8"?><svg id="Layer_2" xmlns="http://www.w3.org/2000/svg" width="182.12" height="44.48" xmlns:xlink="http://www.w3.org/1999/xlink" viewBox="0 0 182.12 44.48"><defs><linearGradient id="linear-gradient" x1="90.83" y1="-5.27" x2="91.25" y2="43.87" gradientUnits="userSpaceOnUse"><stop offset=".12" stop-color="#4c6596"/><stop offset=".44" stop-color="#3d4e88"/><stop offset=".61" stop-color="#35417b"/><stop offset=".91" stop-color="#2a3069"/></linearGradient></defs><g id="_כפתורים"><path d="m131.87,44.48c-1.66,0-9.91-.02-19.15-.05h-.53c-11.11-.03-24.93-.07-28.25-.07-8.23,0-52.81-.4-64.33-1.48-6.19-.58-10.52-2.26-13.63-5.29-2.76-2.7-4.58-6.34-5.56-11.13l-.06-.29-.02-.13c-.43-3.21-.43-4.96,0-8.14C1.96,8.21,8.98,2.08,19.58,1.03c10.35-1.03,20.68-1.03,30.67-1.03,2.95,0,13.15.03,23.01.06h1.7c9.95.03,20.24.06,23.22.06,4.61,0,14.49.14,22.43.26h.22c5.2.08,9.69.14,11.04.14,10.2,0,20.74,0,30.69,1.03,10.6,1.1,17.61,7.2,19.23,16.75.45,3.32.45,5,.02,8.22l-.02.15c-.65,3.31-1.67,6.04-3.13,8.34-.23.35-.46.69-.69,1.01-3.05,4.17-8.08,6.58-15.39,7.38-9.87,1.08-20.46,1.08-30.7,1.08Z" fill="#03072d"/><path d="m131.87,42.86c-1.69,0-10.22-.02-19.68-.05-11.71-.03-24.99-.07-28.26-.07-8.22,0-52.74-.4-64.22-1.47-5.91-.55-10.01-2.12-12.9-4.96-2.59-2.53-4.3-5.97-5.23-10.52l-.05-.26v-.09c-.43-3.09-.43-4.77-.02-7.83C3.05,8.55,9.68,2.79,19.7,1.8c10.3-1.02,20.59-1.02,30.55-1.02,3.04,0,13.64.03,23.9.06,10.31.03,20.97.06,24.04.06,4.63,0,14.57.15,22.56.26,5.23.08,9.75.14,11.12.14,10.16,0,20.68,0,30.56,1.02,10.02,1.04,16.65,6.78,18.17,15.76.42,3.16.43,4.76,0,7.86v.08c-.63,3.17-1.6,5.76-2.98,7.93-.21.33-.43.65-.64.94-2.84,3.88-7.6,6.14-14.55,6.9-9.8,1.07-20.36,1.07-30.57,1.07Z" fill="#6d7eb1"/><path d="m179.42,18.28c-1.43-8.41-7.67-13.79-17.12-14.77-9.82-1.02-20.3-1.02-30.44-1.02-3.43,0-25.98-.4-33.68-.4-6.12,0-41.86-.12-47.94-.12-9.93,0-20.2,0-30.43,1.02-9.45.94-15.68,6.32-17.12,14.8-.4,2.97-.4,4.5,0,7.47v.05c.02.09.04.17.06.25.88,4.3,2.48,7.54,4.89,9.9,2.69,2.63,6.56,4.1,12.18,4.62,11.39,1.06,56.4,1.47,64.11,1.47,5.89,0,44.14.12,47.94.12,10.18,0,20.71,0,30.44-1.06,6.6-.72,11.08-2.82,13.71-6.41.21-.28.41-.57.6-.88,1.29-2.04,2.21-4.5,2.8-7.48v-.05c.41-2.97.41-4.5,0-7.5Z" fill="url(#linear-gradient)"/><path d="m19.82,40.07c11.39,1.06,56.4,1.47,64.11,1.47,5.89,0,44.14.12,47.94.12,10.18,0,20.71,0,30.44-1.06,6.6-.72,11.08-2.82,13.71-6.41,0,0,0-.01.01-.02-24.26,4.87-42.33,3.95-66.84,3.97-60.3.07-91.75-.82-106.19-11.5.92,3.76,2.44,6.66,4.64,8.81,2.69,2.63,6.56,4.1,12.18,4.62Z" fill="#0b1a42" opacity=".37"/><path d="m173.79,8.05c-2.91-2.48-6.8-4.05-11.49-4.53-7.52-.78-15.42-.96-23.26-1-2.4-.01-4.8-.01-7.18-.01h0c-.14,0-.32,0-.51,0-.05,0-.09,0-.14,0-.19,0-.39,0-.62,0-.04,0-.07,0-.1,0-.25,0-.53,0-.83,0-.11,0-.23,0-.35,0-.26,0-.53,0-.82-.01-.03,0-.06,0-.1,0-.75,0-1.58-.02-2.48-.03-.16,0-.31,0-.47,0-.22,0-.45,0-.67,0-.49,0-.99-.01-1.5-.02-.21,0-.43,0-.65,0-.03,0-.06,0-.09,0-1.84,0-3.68,0-5.51,0-1.4,0-5.05-.09-9.78-.21,0,0,0,0,0,0-.43,0-.86-.01-1.28-.02-.08,0-.16,0-.23,0-.34,0-.67,0-1-.01-.12,0-.24,0-.36,0-.28,0-.55,0-.81,0-.16,0-.32,0-.48,0-.21,0-.41,0-.61,0-.18,0-.36,0-.54,0-.21,0-.42,0-.62,0-.14,0-.27,0-.41,0-.21,0-.41,0-.61,0-.13,0-.26,0-.39,0-.21,0-.4,0-.6,0-.1,0-.21,0-.3,0-.28,0-.56,0-.81,0-6.12,0-41.86-.12-47.94-.12h0c-1.58,0-3.17,0-4.77,0-.41,0-.81,0-1.22,0-1.72,0-3.44.02-5.17.04h0c-2.15.06-4.3.11-6.45.15-.93.03-1.86.07-2.79.11-.29.01-.58.03-.88.04-.76.04-1.53.08-2.29.12-.56.03-1.13.07-1.69.11-.56.04-1.12.07-1.68.12-1.17.09-2.34.19-3.5.31-.57.06-1.12.13-1.66.22-.19.03-.37.07-.56.11-.35.06-.69.13-1.03.2-.23.05-.44.11-.66.17-.28.07-.57.15-.84.23-.24.07-.47.15-.7.23-.24.08-.49.17-.72.26-.25.09-.48.19-.72.3-.21.09-.41.18-.62.27-.25.12-.49.24-.73.36-.18.09-.35.19-.52.28-.25.14-.5.29-.75.44-.14.09-.27.18-.41.27-.26.17-.52.35-.76.54-.1.07-.19.15-.29.23-.27.22-.54.43-.8.66-.04.03-.07.07-.11.1-2.24,2.05-3.85,4.67-4.75,7.8,0,0,0,0,0,0C13.09,6.7,61.29.59,173.79,8.05Z" fill="#fff" opacity=".07"/><path d="m28.51,22.38c.13.06.33.09.6.09s.47-.03.59-.1c.12-.07.2-.17.24-.3.04-.14.06-.29.06-.47v-8.45c0-.19-.02-.35-.06-.48-.04-.13-.13-.23-.25-.29-.13-.07-.33-.1-.6-.1s-.45.04-.58.11c-.13.07-.21.18-.25.3-.04.13-.06.28-.06.46v8.47c0,.19.02.35.06.48.04.13.13.22.25.28Z" fill="#cae8f3"/><path d="m29.09,24.34c-.3,0-.52.04-.67.13-.15.09-.25.21-.31.38-.05.16-.08.36-.08.59,0,.38.07.65.22.81.15.16.43.24.85.24.3,0,.52-.05.67-.14.15-.09.25-.22.3-.38.05-.16.08-.35.08-.58,0-.38-.07-.65-.21-.81-.14-.16-.43-.24-.86-.24Z" fill="#cae8f3"/><path d="m34.52,19.14c-.13-.08-.32-.12-.58-.12s-.43.04-.56.11c-.13.07-.22.18-.26.32-.05.14-.07.28-.07.45v8.74c0,.18.02.33.07.47.05.14.13.24.25.33.12.08.3.12.55.12.26,0,.45-.04.58-.12.13-.08.22-.19.26-.32.05-.13.07-.28.07-.46v-8.74c0-.18-.02-.33-.06-.46-.04-.13-.13-.23-.25-.32Z" fill="#cae8f3"/><path d="m42.75,15.57c-.07-.35-.25-.62-.54-.82-.29-.2-.67-.3-1.16-.3h-7.44c-.16,0-.32.02-.46.07s-.25.13-.34.25c-.08.12-.12.31-.12.57s.04.43.12.57c.08.14.19.23.34.28s.3.08.48.08h7.26c-.12.34-.24.7-.37,1.1-.23.68-.48,1.39-.74,2.13-.26.75-.53,1.48-.79,2.21-.26.72-.51,1.4-.74,2.03-.23.63-.43,1.17-.61,1.62-.1.26-.08.47.05.64.13.17.37.32.72.44.22.05.39.06.52.01.13-.05.24-.14.35-.26.1-.13.19-.27.25-.44.14-.35.31-.81.51-1.37.2-.56.42-1.18.66-1.86.24-.68.48-1.37.72-2.08.24-.71.47-1.4.69-2.05.22-.66.4-1.24.55-1.76h0c.12-.39.17-.74.1-1.05Z" fill="#cae8f3"/><path d="m54.18,16c-.47-.52-1.05-.91-1.76-1.17s-1.52-.39-2.44-.39l-3.98.02c-.24,0-.43.04-.56.12s-.22.19-.27.33c-.05.14-.08.28-.08.45v10.2c0,.16.03.32.08.46.05.14.15.25.27.34s.32.12.56.12c.26,0,.45-.04.58-.12s.22-.19.26-.34c.05-.14.07-.3.07-.48v-9.27h3.13c.62,0,1.17.09,1.64.27.47.18.86.46,1.17.83s.55.84.71,1.39.24,1.2.24,1.93v4.98c0,.14.02.27.07.4.05.13.14.23.26.29.13.07.32.1.56.1.26,0,.45-.04.58-.12s.21-.19.25-.34c.04-.14.06-.3.06-.48v-4.88c0-1.04-.12-1.95-.36-2.72-.24-.77-.59-1.42-1.06-1.94Z" fill="#cae8f3"/><path d="m70.13,14.57c-.13-.09-.32-.13-.56-.13s-.43.04-.56.11-.22.17-.27.29-.08.25-.08.39v4.9c0,.91-.17,1.71-.5,2.41-.33.7-.99,2.46-1.64,2.85s-1.46.59-2.42.59c-.91,0-3.74-.64-2.17-1.78.1-.07-.21-.14-.31-.21.33-.08.64-.2.93-.38.49-.31.93-.75,1.3-1.32s.66-1.23.87-1.97c.21-.75.34-1.55.4-2.42l.12-2.58c.01-.16,0-.31-.04-.44-.04-.13-.13-.23-.26-.32s-.33-.12-.59-.12-.43.04-.56.11-.22.18-.27.3c-.05.13-.09.27-.1.42l-.08,2.66c-.01.64-.09,1.25-.24,1.84-.15.59-.35,1.11-.61,1.58-.26.46-.54.82-.85,1.09-.31.26-1.13,1.63-1.5,1.63h-.02c-.05-.08-.1-.16-.14-.24-.34-.69-.03-2.74-.03-3.67v-4.78c0-.18-.03-.34-.08-.48-.06-.14-.15-.25-.27-.34-.13-.08-.32-.12-.56-.12s-.43.04-.57.12-.23.19-.27.34c-.05.14-.07.29-.07.46v4.8c0,.92.13,1.77.4,2.54s.66,1.45,1.18,2.02c.52.58,1.16,1.03,1.92,1.35s1.63.49,2.6.49,1.89-.16,2.66-.48c.77-.32,1.43-.77,1.97-1.34.54-.58.95-1.25,1.22-2.02.27-.77.41-1.61.41-2.52v-4.82c0-.18-.02-.33-.07-.47-.05-.14-.14-.25-.26-.34Z" fill="#cae8f3"/><path d="m81.18,26.47h1.78c.26,0,.45-.02.57-.07s.2-.14.24-.26c.04-.13.06-.32.06-.58v-5.63c0-1.23-.17-2.27-.51-3.1-.34-.83-.83-1.46-1.47-1.87-.64-.41-1.43-.62-2.35-.62-.56,0-1.04.07-1.45.22-.41.15-.78.36-1.11.63-.32.27-.61.59-.84.97-.24.37-.45.79-.64,1.24-.04.1-.07.2-.1.3l-.65-2.53c-.03-.12-.07-.25-.12-.4-.05-.14-.16-.25-.3-.32-.15-.07-.38-.07-.69,0-.26.07-.44.16-.54.27-.1.11-.15.25-.15.4s.03.32.08.51l1.08,4.04-1.18,5.87c-.05.3,0,.53.14.68s.4.23.75.23c.23,0,.41-.04.54-.13.13-.09.22-.21.27-.36.05-.15.09-.31.12-.49l1.1-5.39c.14-.58.3-1.11.5-1.6.2-.48.43-.9.7-1.25.27-.35.59-.63.96-.82.37-.2.77-.29,1.22-.29.61,0,1.13.14,1.55.41.43.27.75.69.98,1.26s.34,1.29.34,2.17v4.65h-.81" fill="#cae8f3"/><path d="m95.06,15.53c-.07-.35-.24-.61-.5-.8s-.6-.28-1.04-.28h-5.16l-.12-2.22c0-.19-.02-.36-.07-.5-.05-.14-.13-.25-.23-.34-.11-.08-.29-.12-.53-.12-.26,0-.46.04-.61.11-.15.07-.25.18-.29.3-.05.13-.07.28-.07.46l.16,3.17c.03.34.12.58.28.73.16.15.41.22.75.22h5.82c-.17.56-.36,1.11-.57,1.65-.3.75-.64,1.49-1.03,2.25-.39.75-.83,1.54-1.32,2.38-.49.83-1.05,1.73-1.68,2.69-.16.24-.2.46-.1.65s.31.37.63.53c.19.11.36.15.5.12.14-.03.27-.1.39-.2s.21-.24.29-.41c.73-1.26,1.37-2.4,1.91-3.41.54-1.02,1.02-1.99,1.44-2.93.42-.93.79-1.91,1.1-2.93l-.02-.02c.11-.41.14-.79.07-1.11Z" fill="#cae8f3"/><path d="m110.06,15.14c-.83-.47-1.87-.7-3.12-.7h-3.78c-.16,0-.31.03-.45.08s-.24.14-.32.26c-.08.12-.12.31-.12.57s.04.43.12.57c.08.14.19.23.32.27.14.05.29.07.47.07h3.82c.84,0,1.54.17,2.09.5s.97.82,1.25,1.47c.28.65.42,1.47.42,2.46v4.98c0,.14.03.27.08.4.05.13.14.23.27.29.13.07.32.1.56.1s.43-.04.56-.12c.13-.08.22-.19.26-.34.05-.14.07-.3.07-.48v-4.88c0-1.38-.21-2.53-.63-3.44-.42-.91-1.05-1.61-1.88-2.07Z" fill="#cae8f3"/><path d="m103.95,19.77c-.13-.08-.32-.12-.58-.12-.24,0-.43.04-.56.11s-.22.18-.26.32c-.05.14-.07.29-.07.47v5.02c0,.16.02.32.07.46.05.14.13.25.25.34.12.08.3.12.55.12.26,0,.45-.04.58-.12.13-.08.22-.19.26-.33.05-.14.07-.28.07-.45v-5.02c0-.18-.02-.33-.06-.47-.04-.14-.13-.24-.25-.33Z" fill="#cae8f3"/><path d="m123.07,26.47h1.69c.26,0,.45-.02.57-.07s.2-.14.24-.26c.04-.13.06-.32.06-.58v-5.63c0-1.23-.17-2.27-.51-3.1-.34-.83-.83-1.46-1.47-1.87-.64-.41-1.43-.62-2.35-.62-.56,0-1.04.07-1.45.22-.41.15-.78.36-1.11.63-.32.27-.61.59-.84.97-.24.37-.45.79-.64,1.24-.04.1-.07.2-.1.3l-.65-2.53c-.03-.12-.07-.25-.12-.4-.05-.14-.16-.25-.3-.32-.15-.07-.38-.07-.69,0-.26.07-.44.16-.54.27-.1.11-.15.25-.15.4s.03.32.08.51l1.08,4.04-1.18,5.87c-.05.3,0,.53.14.68s.4.23.75.23c.23,0,.41-.04.54-.13.13-.09.22-.21.27-.36.05-.15.09-.31.12-.49l1.1-5.39c.14-.58.3-1.11.5-1.6.2-.48.43-.9.7-1.25.27-.35.59-.63.96-.82.37-.2.77-.29,1.22-.29.61,0,1.13.14,1.55.41.43.27.75.69.98,1.26s.34,1.29.34,2.17v4.65h-.78" fill="#cae8f3"/><path d="m130.28,14.57c-.13-.09-.32-.13-.58-.13s-.43.04-.56.12c-.13.08-.22.19-.26.33-.05.14-.07.28-.07.45v4.47c0,.16.02.31.07.45s.13.25.25.34c.12.09.3.13.55.13.26,0,.45-.04.58-.12.13-.08.22-.19.26-.33.05-.14.07-.28.07-.45v-4.47c0-.18-.02-.33-.06-.46-.04-.13-.13-.24-.25-.33Z" fill="#cae8f3"/><path d="m143.03,14.52c-.13-.05-.28-.08-.46-.08h-8.49c-.16,0-.32.03-.46.08-.14.05-.25.14-.34.26-.08.12-.12.31-.12.57s.04.43.12.57c.08.14.19.23.34.27.14.05.3.07.48.07h5.26v9.27c0,.18.03.34.08.48.05.14.14.25.26.34.12.08.3.12.55.12.26,0,.45-.03.58-.1.13-.07.22-.17.26-.29.05-.13.07-.26.07-.4v-9.41h1.38c.18,0,.33-.02.47-.07.14-.05.24-.14.32-.27.08-.14.12-.33.12-.57,0-.26-.04-.45-.12-.57-.08-.12-.19-.21-.32-.26Z" fill="#cae8f3"/><path d="m155.89,15.57c-.07-.35-.25-.62-.54-.82-.29-.2-.67-.3-1.16-.3h-7.44c-.16,0-.32.02-.46.07s-.25.13-.34.25c-.08.12-.12.31-.12.57s.04.43.12.57c.08.14.19.23.34.28s.3.08.48.08h7.26c-.12.34-.24.7-.37,1.1-.23.68-.48,1.39-.74,2.13-.26.75-.53,1.48-.79,2.21-.26.72-.51,1.4-.74,2.03-.23.63-.43,1.17-.61,1.62-.1.26-.08.47.05.64.13.17.37.32.72.44.22.05.39.06.52.01.13-.05.24-.14.35-.26.1-.13.19-.27.25-.44.14-.35.31-.81.51-1.37.2-.56.42-1.18.66-1.86.24-.68.48-1.37.72-2.08.24-.71.47-1.4.69-2.05.22-.66.4-1.24.55-1.76h0c.12-.39.17-.74.1-1.05Z" fill="#cae8f3"/><path d="m147.66,19.14c-.13-.08-.32-.12-.58-.12s-.43.04-.56.11c-.13.07-.22.18-.26.32-.05.14-.07.28-.07.45v8.74c0,.18.02.33.07.47.05.14.13.24.25.33.12.08.3.12.55.12.26,0,.45-.04.58-.12.13-.08.22-.19.26-.32.05-.13.07-.28.07-.46v-8.74c0-.18-.02-.33-.06-.46-.04-.13-.13-.23-.25-.32Z" fill="#cae8f3"/><path d="m28.12,25.29c-.41,0-.71-.06-.96-.17-.34-.16-.59-.44-.7-.79-.07-.21-.1-.45-.1-.73v-8.47c0-.26.03-.5.1-.71.1-.33.32-.6.63-.78.27-.15.59-.23,1-.23s.73.06.99.2c.33.17.56.44.66.79.07.21.1.45.1.73v8.45c0,.26-.03.5-.1.71-.1.35-.33.62-.64.8-.26.14-.57.21-1,.21Z" fill="#03072d"/><path d="m28.12,29.31c-.67,0-1.16-.17-1.47-.52-.3-.33-.44-.78-.44-1.38,0-.32.04-.61.12-.86.12-.35.35-.64.68-.83.28-.17.64-.25,1.1-.25.69,0,1.18.17,1.5.53.28.32.42.77.42,1.37,0,.33-.04.61-.13.86-.11.33-.34.61-.65.81-.29.19-.66.27-1.12.27Z" fill="#03072d"/><path d="m32.93,32.36c-.42,0-.75-.09-1.02-.26-.27-.18-.47-.44-.58-.75-.08-.23-.12-.48-.12-.75v-8.74c0-.26.04-.5.12-.72.11-.33.33-.59.64-.77.26-.15.58-.23.98-.23.42,0,.76.08,1.03.25.3.19.51.46.61.77.07.21.1.45.1.71v8.74c0,.28-.04.53-.12.75-.11.3-.32.56-.6.74-.27.17-.61.25-1.03.25Z" fill="#03072d"/><path d="m37.74,29.29c-.16,0-.33-.02-.51-.07-.59-.2-.95-.44-1.19-.75-.18-.23-.43-.73-.17-1.44.18-.46.38-.99.61-1.61l.74-2.03c.26-.72.53-1.46.79-2.2.26-.74.51-1.44.73-2.11h-6.09c-.28,0-.54-.05-.78-.14-.32-.12-.58-.34-.76-.64-.16-.27-.24-.6-.24-1,0-.43.09-.77.26-1.04.18-.28.45-.48.77-.59.23-.08.47-.11.72-.11h7.44c.66,0,1.22.16,1.65.46.45.32.75.78.87,1.33.06.26.07.54.03.84l.03.02-.16.6c-.15.52-.34,1.12-.56,1.79-.22.66-.45,1.35-.69,2.06-.24.71-.49,1.41-.72,2.09-.24.68-.46,1.3-.66,1.87-.2.57-.38,1.03-.51,1.39-.11.26-.23.47-.38.66-.2.25-.44.43-.71.53-.16.06-.32.09-.5.09h0Z" fill="#03072d"/><path d="m53.7,29.29c-.39,0-.7-.07-.95-.2-.31-.16-.54-.42-.66-.75-.08-.22-.12-.45-.12-.69v-4.98c0-.65-.07-1.22-.21-1.69-.13-.44-.31-.81-.55-1.09-.22-.27-.49-.46-.83-.59-.37-.14-.82-.22-1.33-.22h-2.29v8.43c0,.27-.04.52-.11.74-.11.33-.32.6-.61.78-.27.17-.6.25-1.03.25s-.74-.08-1.01-.25c-.28-.18-.49-.44-.61-.75-.09-.24-.14-.49-.14-.76v-10.2c0-.27.05-.52.14-.76.12-.3.33-.55.61-.73.27-.17.6-.25,1.01-.25l3.98-.02c1.02,0,1.94.15,2.73.44.83.3,1.54.77,2.1,1.4.55.61.96,1.37,1.23,2.26.26.85.39,1.85.39,2.97v4.88c0,.25-.03.49-.09.71-.1.34-.31.62-.61.82-.27.17-.6.25-1.03.25Z" fill="#03072d"/><path d="m63.22,29.37c-1.09,0-2.07-.19-2.93-.56-.87-.37-1.61-.9-2.21-1.56-.6-.66-1.05-1.44-1.35-2.31-.29-.86-.44-1.8-.44-2.81v-4.8c0-.26.04-.5.12-.73.11-.33.33-.6.64-.79.27-.16.6-.24,1-.24s.74.08,1.01.25c.28.18.49.43.61.74.09.25.14.51.14.78v4.78c0,.63.09,1.19.26,1.68.01-.01.03-.02.04-.03.23-.2.46-.49.66-.86.22-.39.4-.85.53-1.37.13-.52.21-1.08.22-1.65l.08-2.67c.02-.28.08-.51.17-.72.13-.3.34-.54.63-.71.26-.15.58-.23.98-.23s.75.08,1.02.24c.31.19.53.46.63.78.07.23.1.49.08.76l-.12,2.55c-.06.93-.2,1.81-.43,2.61-.23.83-.56,1.57-.98,2.2-.29.44-.61.82-.97,1.13.22.03.44.05.68.05.8,0,1.47-.16,1.98-.47.51-.31.89-.73,1.15-1.28.28-.58.42-1.27.42-2.05v-4.9c0-.25.05-.5.15-.73.13-.28.34-.52.62-.68.26-.15.58-.23.98-.23s.76.09,1.03.28c.28.19.48.45.59.75.08.23.12.48.12.75v4.82c0,1-.15,1.94-.46,2.8-.31.88-.78,1.66-1.4,2.32-.62.66-1.38,1.18-2.26,1.54-.87.36-1.87.54-2.98.54Z" fill="#03072d"/><path d="m77.04,29.29c-.26,0-.52-.05-.76-.14-.31-.12-.57-.33-.75-.61-.17-.27-.25-.6-.25-1.01s.08-.76.25-1.03c.19-.29.46-.5.78-.61.23-.08.48-.11.75-.11h3.16v-3.81c0-.77-.09-1.4-.28-1.87-.16-.4-.37-.68-.64-.86-.29-.18-.66-.27-1.1-.27-.31,0-.58.06-.82.19-.26.14-.49.34-.69.59-.22.29-.42.65-.59,1.06-.18.44-.33.93-.46,1.47l-1.09,5.36c-.03.2-.09.41-.16.61-.11.31-.32.58-.59.76-.27.18-.61.28-1.01.28-.59,0-1.05-.17-1.36-.49-.24-.25-.49-.69-.36-1.41l1.15-5.7-1.03-3.85c-.07-.25-.11-.5-.11-.73,0-.36.13-.69.37-.96.21-.24.53-.42.95-.53.25-.06.44-.08.62-.08.23,0,.45.04.63.13.35.16.61.43.75.78.07.18.12.35.16.51l.1.38c.23-.3.49-.58.78-.82.4-.33.86-.59,1.36-.78.51-.18,1.09-.27,1.74-.27,1.08,0,2.02.25,2.8.75.79.51,1.39,1.27,1.8,2.26.38.93.57,2.08.57,3.42v5.63c0,.35-.03.62-.1.83-.12.38-.38.66-.74.8-.23.09-.5.13-.87.13h-4.94Z" fill="#03072d"/><path d="m88.8,29.36c-.27,0-.55-.08-.83-.24-.46-.23-.78-.52-.96-.88-.13-.27-.29-.82.15-1.49.61-.94,1.16-1.83,1.65-2.66.49-.82.92-1.61,1.3-2.33.37-.72.71-1.46,1-2.18.06-.16.12-.32.19-.49h-4.65c-.55,0-1-.15-1.32-.44-.33-.3-.51-.73-.56-1.29l-.16-3.19c0-.32.04-.57.12-.79.09-.23.28-.55.71-.77.27-.14.59-.2.99-.2.43,0,.77.1,1.03.29.25.19.43.44.53.74.08.23.11.48.11.76l.08,1.37h4.37c.62,0,1.13.15,1.54.45.42.31.7.76.82,1.3.06.29.07.6.03.93l.05.04-.15.58c-.32,1.05-.7,2.07-1.13,3.02-.43.96-.92,1.96-1.47,2.98-.54,1.02-1.19,2.17-1.92,3.44-.1.2-.26.42-.45.6-.23.22-.5.36-.8.42l-.08.02h-.17Z" fill="#03072d"/><path d="m110.69,29.29c-.39,0-.7-.07-.95-.2-.3-.16-.53-.4-.66-.71-.1-.23-.15-.47-.15-.72v-4.98c0-.87-.12-1.59-.35-2.13-.21-.49-.51-.84-.91-1.08-.42-.25-.98-.38-1.66-.38h-3.82c-.27,0-.52-.04-.75-.12-.32-.11-.58-.33-.77-.64-.16-.27-.24-.6-.24-1,0-.43.09-.77.26-1.04.17-.26.42-.46.71-.58.23-.09.49-.14.76-.14h3.78c1.39,0,2.58.27,3.53.81.99.55,1.74,1.38,2.23,2.46.47,1.02.71,2.3.71,3.8v4.88c0,.27-.04.52-.11.74-.11.33-.32.6-.61.78-.27.17-.6.25-1.01.25Z" fill="#03072d"/><path d="m102.36,29.29c-.42,0-.75-.09-1.01-.26-.28-.18-.48-.45-.59-.77-.08-.22-.11-.47-.11-.72v-5.02c0-.27.04-.53.12-.75.11-.32.33-.59.63-.76.26-.15.58-.23.98-.23.42,0,.76.08,1.03.25.3.19.51.47.61.8.06.21.1.45.1.71v5.02c0,.26-.04.5-.12.72-.11.31-.32.58-.61.76-.27.17-.61.25-1.03.25Z" fill="#03072d"/><path d="m118.84,29.29c-.26,0-.52-.05-.76-.14-.31-.12-.57-.33-.75-.61-.17-.27-.25-.6-.25-1.01s.08-.76.25-1.03c.19-.29.46-.5.78-.61.23-.08.48-.11.75-.11h3.16v-3.81c0-.77-.09-1.4-.28-1.87-.16-.4-.37-.68-.64-.86-.29-.18-.66-.27-1.1-.27-.31,0-.58.06-.82.19-.26.14-.49.34-.69.59-.22.29-.42.65-.59,1.06-.18.44-.33.93-.46,1.47l-1.09,5.36c-.03.2-.09.41-.16.61-.11.31-.32.58-.59.76-.27.18-.61.28-1.01.28-.59,0-1.05-.17-1.36-.49-.24-.25-.49-.69-.36-1.41l1.15-5.7-1.03-3.85c-.07-.25-.11-.5-.11-.73,0-.36.13-.69.37-.96.21-.24.53-.42.95-.53.25-.06.44-.08.62-.08.23,0,.45.04.63.13.35.16.61.43.75.78.07.18.12.35.16.51l.1.38c.23-.3.49-.58.78-.82.4-.33.86-.59,1.36-.78.51-.18,1.09-.27,1.74-.27,1.08,0,2.02.25,2.8.75.79.51,1.39,1.27,1.8,2.26.38.93.57,2.08.57,3.42v5.63c0,.35-.03.62-.1.83-.12.38-.38.66-.74.8-.23.09-.5.13-.87.13h-4.94Z" fill="#03072d"/><path d="m128.69,23.54c-.43,0-.77-.1-1.04-.29-.26-.19-.45-.44-.56-.74-.08-.23-.12-.47-.12-.73v-4.47c0-.26.04-.5.12-.72.11-.32.32-.58.61-.76.27-.17.6-.25,1.01-.25.43,0,.78.09,1.05.28.28.2.48.46.58.77.07.21.1.45.1.71v4.47c0,.26-.04.5-.12.73-.11.32-.32.58-.61.76-.27.17-.61.25-1.03.25Z" fill="#03072d"/><path d="m139.26,29.29c-.42,0-.75-.09-1.01-.26-.27-.18-.47-.43-.58-.74-.09-.24-.14-.5-.14-.78v-8.43h-4.42c-.27,0-.52-.04-.75-.11-.33-.11-.6-.33-.79-.64-.16-.27-.24-.6-.24-1,0-.43.09-.77.26-1.04.18-.27.43-.47.74-.58.24-.09.49-.14.75-.14h8.49c.29,0,.55.05.78.15.28.12.52.32.69.57.18.26.26.6.26,1.03,0,.4-.08.73-.24,1-.18.3-.45.52-.77.64-.22.08-.47.12-.75.12h-.54v8.57c0,.23-.04.46-.12.69-.12.32-.35.58-.66.75-.26.13-.57.2-.97.2Z" fill="#03072d"/><path d="m150.87,29.29c-.16,0-.33-.02-.51-.07-.59-.2-.95-.44-1.19-.75-.18-.23-.43-.73-.17-1.44.18-.46.38-.99.61-1.61l.74-2.03c.26-.72.53-1.46.79-2.2.26-.74.51-1.44.73-2.11h-6.09c-.28,0-.54-.05-.78-.14-.32-.12-.58-.34-.76-.64-.16-.27-.24-.6-.24-1,0-.43.09-.77.26-1.04.18-.28.45-.48.77-.59.23-.08.47-.11.72-.11h7.44c.66,0,1.22.16,1.65.46.45.32.75.78.87,1.33.06.26.07.54.03.84l.03.02-.16.6c-.15.52-.34,1.12-.56,1.79-.22.66-.45,1.35-.69,2.06-.24.71-.49,1.41-.72,2.09-.24.68-.46,1.3-.66,1.87-.2.57-.38,1.03-.51,1.39-.11.26-.23.47-.38.66-.2.25-.44.43-.71.53-.16.06-.32.09-.5.09h0Z" fill="#03072d"/><path d="m146.07,32.36c-.42,0-.75-.09-1.02-.26-.27-.18-.47-.44-.58-.75-.08-.23-.12-.48-.12-.75v-8.74c0-.26.04-.5.12-.72.11-.33.33-.59.64-.77.26-.15.58-.23.98-.23.42,0,.76.08,1.03.25.3.19.51.46.61.77.07.21.1.45.1.71v8.74c0,.28-.04.53-.12.75-.11.3-.32.56-.6.74-.27.17-.61.25-1.03.25Z" fill="#03072d"/><path d="m28.51,23.37c.13.06.33.09.6.09s.47-.03.59-.1c.12-.07.2-.17.24-.3.04-.14.06-.29.06-.47v-8.45c0-.19-.02-.35-.06-.48-.04-.13-.13-.23-.25-.29-.13-.07-.33-.1-.6-.1s-.45.04-.58.11c-.13.07-.21.18-.25.3-.04.13-.06.28-.06.46v8.47c0,.19.02.35.06.48.04.13.13.22.25.28Z" fill="#fff"/><path d="m29.09,25.33c-.3,0-.52.04-.67.13-.15.09-.25.21-.31.38-.05.16-.08.36-.08.59,0,.38.07.65.22.81.15.16.43.24.85.24.3,0,.52-.05.67-.14.15-.09.25-.22.3-.38.05-.16.08-.35.08-.58,0-.38-.07-.65-.21-.81-.14-.16-.43-.24-.86-.24Z" fill="#fff"/><path d="m34.52,20.12c-.13-.08-.32-.12-.58-.12s-.43.04-.56.11c-.13.07-.22.18-.26.32-.05.14-.07.28-.07.45v8.74c0,.18.02.33.07.47.05.14.13.24.25.33.12.08.3.12.55.12.26,0,.45-.04.58-.12.13-.08.22-.19.26-.32.05-.13.07-.28.07-.46v-8.74c0-.18-.02-.33-.06-.46-.04-.13-.13-.23-.25-.32Z" fill="#fff"/><path d="m42.75,16.56c-.07-.35-.25-.62-.54-.82-.29-.2-.67-.3-1.16-.3h-7.44c-.16,0-.32.02-.46.07s-.25.13-.34.25c-.08.12-.12.31-.12.57s.04.43.12.57c.08.14.19.23.34.28s.3.08.48.08h7.26c-.12.34-.24.7-.37,1.1-.23.68-.48,1.39-.74,2.13-.26.75-.53,1.48-.79,2.21-.26.72-.51,1.4-.74,2.03-.23.63-.43,1.17-.61,1.62-.1.26-.08.47.05.64.13.17.37.32.72.44.22.05.39.06.52.01.13-.05.24-.14.35-.26.1-.13.19-.27.25-.44.14-.35.31-.81.51-1.37.2-.56.42-1.18.66-1.86.24-.68.48-1.37.72-2.08.24-.71.47-1.4.69-2.05.22-.66.4-1.24.55-1.76h0c.12-.39.17-.74.1-1.05Z" fill="#fff"/><path d="m54.18,16.98c-.47-.52-1.05-.91-1.76-1.17s-1.52-.39-2.44-.39l-3.98.02c-.24,0-.43.04-.56.12s-.22.19-.27.33c-.05.14-.08.28-.08.45v10.2c0,.16.03.32.08.46.05.14.15.25.27.34s.32.12.56.12c.26,0,.45-.04.58-.12s.22-.19.26-.34c.05-.14.07-.3.07-.48v-9.27h3.13c.62,0,1.17.09,1.64.27.47.18.86.46,1.17.83s.55.84.71,1.39.24,1.2.24,1.93v4.98c0,.14.02.27.07.4.05.13.14.23.26.29.13.07.32.1.56.1.26,0,.45-.04.58-.12s.21-.19.25-.34c.04-.14.06-.3.06-.48v-4.88c0-1.04-.12-1.95-.36-2.72-.24-.77-.59-1.42-1.06-1.94Z" fill="#fff"/><path d="m70.13,15.56c-.13-.09-.32-.13-.56-.13s-.43.04-.56.11-.22.17-.27.29-.08.25-.08.39v4.9c0,.91-.17,1.71-.5,2.41-.33.7-.82,1.24-1.47,1.64s-1.46.59-2.42.59c-.91,0-1.69-.19-2.34-.57-.11-.06-.21-.14-.31-.21.33-.08.64-.2.93-.38.49-.31.93-.75,1.3-1.32s.66-1.23.87-1.97c.21-.75.34-1.55.4-2.42l.12-2.58c.01-.16,0-.31-.04-.44-.04-.13-.13-.23-.26-.32s-.33-.12-.59-.12-.43.04-.56.11-.22.18-.27.3c-.05.13-.09.27-.1.42l-.08,2.66c-.01.64-.09,1.25-.24,1.84-.15.59-.35,1.11-.61,1.58-.26.46-.54.82-.85,1.09-.31.26-.65.4-1.02.4h-.02c-.05-.08-.1-.16-.14-.24-.34-.69-.51-1.5-.51-2.44v-4.78c0-.18-.03-.34-.08-.48-.06-.14-.15-.25-.27-.34-.13-.08-.32-.12-.56-.12s-.43.04-.57.12-.23.19-.27.34c-.05.14-.07.29-.07.46v4.8c0,.92.13,1.77.4,2.54s.66,1.45,1.18,2.02c.52.58,1.16,1.03,1.92,1.35s1.63.49,2.6.49,1.89-.16,2.66-.48c.77-.32,1.43-.77,1.97-1.34.54-.58.95-1.25,1.22-2.02.27-.77.41-1.61.41-2.52v-4.82c0-.18-.02-.33-.07-.47-.05-.14-.14-.25-.26-.34Z" fill="#fff"/><path d="m81.86,15.95c-.64-.41-1.43-.62-2.35-.62-.56,0-1.04.07-1.45.22-.41.15-.78.36-1.11.63-.32.27-.61.59-.84.97-.24.37-.45.79-.64,1.24-.04.1-.07.2-.1.3l-.65-2.53c-.03-.12-.07-.25-.12-.4-.05-.14-.16-.25-.3-.32-.15-.07-.38-.07-.69,0-.26.07-.44.16-.54.27-.1.11-.15.25-.15.4s.03.32.08.51l1.08,4.04-1.18,5.87c-.05.3,0,.53.14.68s.4.23.75.23c.23,0,.41-.04.54-.13.13-.09.22-.21.27-.36.05-.15.09-.31.12-.49l1.1-5.39c.14-.58.3-1.11.5-1.6.2-.48.43-.9.7-1.25.27-.35.59-.63.96-.82.37-.2.77-.29,1.22-.29.61,0,1.13.14,1.55.41.43.27.75.69.98,1.26s.34,1.29.34,2.17v4.65h-4c-.18,0-.34.02-.48.07-.14.05-.25.14-.34.26-.08.13-.12.32-.12.58,0,.24.04.43.12.56.08.13.19.22.34.27.14.05.29.08.46.08h4.94c.26,0,.45-.02.57-.07s.2-.14.24-.26c.04-.13.06-.32.06-.58v-5.63c0-1.23-.17-2.27-.51-3.1-.34-.83-.83-1.46-1.47-1.87Z" fill="#fff"/><path d="m95.06,16.52c-.07-.35-.24-.61-.5-.8s-.6-.28-1.04-.28h-5.16l-.12-2.22c0-.19-.02-.36-.07-.5-.05-.14-.13-.25-.23-.34-.11-.08-.29-.12-.53-.12-.26,0-.46.04-.61.11-.15.07-.25.18-.29.3-.05.13-.07.28-.07.46l.16,3.17c.03.34.12.58.28.73.16.15.41.22.75.22h5.82c-.17.56-.36,1.11-.57,1.65-.3.75-.64,1.49-1.03,2.25-.39.75-.83,1.54-1.32,2.38-.49.83-1.05,1.73-1.68,2.69-.16.24-.2.46-.1.65s.31.37.63.53c.19.11.36.15.5.12.14-.03.27-.1.39-.2s.21-.24.29-.41c.73-1.26,1.37-2.4,1.91-3.41.54-1.02,1.02-1.99,1.44-2.93.42-.93.79-1.91,1.1-2.93l-.02-.02c.11-.41.14-.79.07-1.11Z" fill="#fff"/><path d="m110.06,16.13c-.83-.47-1.87-.7-3.12-.7h-3.78c-.16,0-.31.03-.45.08s-.24.14-.32.26c-.08.12-.12.31-.12.57s.04.43.12.57c.08.14.19.23.32.27.14.05.29.07.47.07h3.82c.84,0,1.54.17,2.09.5s.97.82,1.25,1.47c.28.65.42,1.47.42,2.46v4.98c0,.14.03.27.08.4.05.13.14.23.27.29.13.07.32.1.56.1s.43-.04.56-.12c.13-.08.22-.19.26-.34.05-.14.07-.3.07-.48v-4.88c0-1.38-.21-2.53-.63-3.44-.42-.91-1.05-1.61-1.88-2.07Z" fill="#fff"/><path d="m103.95,20.75c-.13-.08-.32-.12-.58-.12-.24,0-.43.04-.56.11s-.22.18-.26.32c-.05.14-.07.29-.07.47v5.02c0,.16.02.32.07.46.05.14.13.25.25.34.12.08.3.12.55.12.26,0,.45-.04.58-.12.13-.08.22-.19.26-.33.05-.14.07-.28.07-.45v-5.02c0-.18-.02-.33-.06-.47-.04-.14-.13-.24-.25-.33Z" fill="#fff"/><path d="m123.66,15.95c-.64-.41-1.43-.62-2.35-.62-.56,0-1.04.07-1.45.22-.41.15-.78.36-1.11.63-.32.27-.61.59-.84.97-.24.37-.45.79-.64,1.24-.04.1-.07.2-.1.3l-.65-2.53c-.03-.12-.07-.25-.12-.4-.05-.14-.16-.25-.3-.32-.15-.07-.38-.07-.69,0-.26.07-.44.16-.54.27-.1.11-.15.25-.15.4s.03.32.08.51l1.08,4.04-1.18,5.87c-.05.3,0,.53.14.68s.4.23.75.23c.23,0,.41-.04.54-.13.13-.09.22-.21.27-.36.05-.15.09-.31.12-.49l1.1-5.39c.14-.58.3-1.11.5-1.6.2-.48.43-.9.7-1.25.27-.35.59-.63.96-.82.37-.2.77-.29,1.22-.29.61,0,1.13.14,1.55.41.43.27.75.69.98,1.26s.34,1.29.34,2.17v4.65h-4c-.18,0-.34.02-.48.07-.14.05-.25.14-.34.26-.08.13-.12.32-.12.58,0,.24.04.43.12.56.08.13.19.22.34.27.14.05.29.08.46.08h4.94c.26,0,.45-.02.57-.07s.2-.14.24-.26c.04-.13.06-.32.06-.58v-5.63c0-1.23-.17-2.27-.51-3.1-.34-.83-.83-1.46-1.47-1.87Z" fill="#fff"/><path d="m130.28,15.56c-.13-.09-.32-.13-.58-.13s-.43.04-.56.12c-.13.08-.22.19-.26.33-.05.14-.07.28-.07.45v4.47c0,.16.02.31.07.45s.13.25.25.34c.12.09.3.13.55.13.26,0,.45-.04.58-.12.13-.08.22-.19.26-.33.05-.14.07-.28.07-.45v-4.47c0-.18-.02-.33-.06-.46-.04-.13-.13-.24-.25-.33Z" fill="#fff"/><path d="m143.03,15.51c-.13-.05-.28-.08-.46-.08h-8.49c-.16,0-.32.03-.46.08-.14.05-.25.14-.34.26-.08.12-.12.31-.12.57s.04.43.12.57c.08.14.19.23.34.27.14.05.3.07.48.07h5.26v9.27c0,.18.03.34.08.48.05.14.14.25.26.34.12.08.3.12.55.12.26,0,.45-.03.58-.1.13-.07.22-.17.26-.29.05-.13.07-.26.07-.4v-9.41h1.38c.18,0,.33-.02.47-.07.14-.05.24-.14.32-.27.08-.14.12-.33.12-.57,0-.26-.04-.45-.12-.57-.08-.12-.19-.21-.32-.26Z" fill="#fff"/><path d="m155.89,16.56c-.07-.35-.25-.62-.54-.82-.29-.2-.67-.3-1.16-.3h-7.44c-.16,0-.32.02-.46.07s-.25.13-.34.25c-.08.12-.12.31-.12.57s.04.43.12.57c.08.14.19.23.34.28s.3.08.48.08h7.26c-.12.34-.24.7-.37,1.1-.23.68-.48,1.39-.74,2.13-.26.75-.53,1.48-.79,2.21-.26.72-.51,1.4-.74,2.03-.23.63-.43,1.17-.61,1.62-.1.26-.08.47.05.64.13.17.37.32.72.44.22.05.39.06.52.01.13-.05.24-.14.35-.26.1-.13.19-.27.25-.44.14-.35.31-.81.51-1.37.2-.56.42-1.18.66-1.86.24-.68.48-1.37.72-2.08.24-.71.47-1.4.69-2.05.22-.66.4-1.24.55-1.76h0c.12-.39.17-.74.1-1.05Z" fill="#fff"/><path d="m147.66,20.12c-.13-.08-.32-.12-.58-.12s-.43.04-.56.11c-.13.07-.22.18-.26.32-.05.14-.07.28-.07.45v8.74c0,.18.02.33.07.47.05.14.13.24.25.33.12.08.3.12.55.12.26,0,.45-.04.58-.12.13-.08.22-.19.26-.32.05-.13.07-.28.07-.46v-8.74c0-.18-.02-.33-.06-.46-.04-.13-.13-.23-.25-.32Z" fill="#fff"/><path d="m19.58,6.33c-.17.63-1.4.26-3.53.96-3.28,1.07-2.95,2.7-3.92,2.17-.59-.33.78-2.14,2.84-3,2.06-.86,4.77-.74,4.61-.12Z" fill="#fff"/><ellipse cx="11.23" cy="10.77" rx=".62" ry=".68" transform="translate(.18 21.72) rotate(-88.56)" fill="#fff"/></g></svg>