<?xml version="1.0" encoding="UTF-8"?><svg id="Layer_2" xmlns="http://www.w3.org/2000/svg" width="168.27" height="52.11" xmlns:xlink="http://www.w3.org/1999/xlink" viewBox="0 0 168.27 52.11"><defs><linearGradient id="linear-gradient" x1="83.87" y1="-5.87" x2="84.35" y2="51.15" gradientUnits="userSpaceOnUse"><stop offset=".12" stop-color="#4c6596"/><stop offset=".44" stop-color="#3d4e88"/><stop offset=".61" stop-color="#35417b"/><stop offset=".91" stop-color="#2a3069"/></linearGradient><linearGradient id="linear-gradient-2" x1="82.11" y1="-5.98" x2="82.59" y2="51.17" xlink:href="#linear-gradient"/><linearGradient id="linear-gradient-3" x1="82.11" y1="-5.98" x2="82.59" y2="51.17" xlink:href="#linear-gradient"/></defs><g id="_כפתורים"><path d="m105.25,52.11c-10.32,0-66.22-.47-80.68-1.74-7.77-.68-13.2-2.65-17.09-6.22-3.47-3.17-5.75-7.45-6.98-13.08l-.07-.3-.04-.2c-.54-3.77-.54-5.83,0-9.57C2.46,9.65,11.26,2.44,24.55,1.21c12.99-1.21,25.94-1.21,38.46-1.21,5.82,0,18.3.17,28.32.31h.1c6.51.09,12.13.17,13.82.17,12.79,0,26.01,0,38.48,1.21,13.29,1.29,22.08,8.46,24.12,19.68.56,3.9.56,5.87.02,9.66l-.03.18c-.81,3.89-2.1,7.09-3.93,9.8-.28.41-.57.81-.86,1.18-3.82,4.89-10.14,7.73-19.29,8.67-12.37,1.27-25.66,1.27-38.5,1.27Z" fill="#03072d"/><path d="m105.25,50.21c-10.31,0-66.14-.47-80.54-1.73-7.41-.65-12.55-2.5-16.18-5.82-3.25-2.97-5.39-7.01-6.56-12.35l-.07-.3-.02-.1c-.52-3.63-.52-5.6,0-9.19C3.82,10.04,12.13,3.28,24.7,2.11c12.91-1.2,25.83-1.2,38.31-1.2,5.8,0,18.28.17,28.3.31,6.56.09,12.23.17,13.94.17,12.75,0,25.93,0,38.33,1.2,12.57,1.22,20.88,7.97,22.79,18.51.53,3.71.53,5.6.01,9.23l-.02.09c-.78,3.73-1.99,6.76-3.72,9.31-.26.39-.53.76-.8,1.11-3.56,4.56-9.53,7.21-18.25,8.1-12.29,1.26-25.53,1.26-38.34,1.26Z" fill="#6d7eb2"/><path d="m164.89,21.34c-1.79-9.88-9.61-16.2-21.46-17.35-12.32-1.19-25.46-1.19-38.17-1.19-4.31,0-32.58-.47-42.24-.47-12.45,0-25.33,0-38.17,1.19C13.01,4.61,5.18,10.94,3.38,20.89c-.5,3.49-.5,5.29,0,8.78v.05c.03.1.05.2.08.29,1.1,5.05,3.11,8.86,6.13,11.63,3.37,3.09,8.23,4.81,15.27,5.43,14.28,1.25,70.73,1.72,80.4,1.72,12.77,0,25.97,0,38.18-1.25,8.27-.85,13.9-3.31,17.2-7.54.26-.33.51-.68.75-1.03,1.62-2.4,2.77-5.29,3.51-8.79v-.05c.51-3.49.51-5.29,0-8.81Z" fill="url(#linear-gradient)"/><path d="m98.34,44.68c-54.88.08-82.7-1.02-94.88-14.66,1.52,5.05,4.28,8.86,8.44,11.63,4.64,3.09,11.32,4.81,21.01,5.43,5.18.33,10.08.65,14.81.95,21.99.55,50.87.77,57.54.77,12.77,0,25.97,0,38.18-1.25,8.27-.85,13.9-3.31,17.2-7.54.26-.33.51-.68.75-1.03.03-.04.05-.08.08-.12-23.54,7-40.11,5.78-63.12,5.81Z" fill="url(#linear-gradient-2)"/><path d="m161.45,38.87h0s-.05.08-.08.12c.03-.04.05-.08.08-.12Z" fill="#0b1a42" opacity=".37"/><path d="m98.34,44.68c-54.88.08-82.7-1.02-94.88-14.66,1.1,5.05,3.11,8.86,6.13,11.63,3.37,3.09,8.23,4.81,15.27,5.43,14.28,1.25,70.73,1.72,80.4,1.72,12.77,0,25.97,0,38.18-1.25,8.27-.85,13.9-3.31,17.2-7.54.26-.33.51-.68.75-1.03.03-.04.05-.08.08-.12-23.54,7-40.11,5.78-63.12,5.81Z" fill="url(#linear-gradient-3)"/><path d="m98.34,44.68c-54.88.08-82.7-1.02-94.88-14.66,1.1,5.05,3.11,8.86,6.13,11.63,3.37,3.09,8.23,4.81,15.27,5.43,14.28,1.25,70.73,1.72,80.4,1.72,12.77,0,25.97,0,38.18-1.25,8.27-.85,13.9-3.31,17.2-7.54.26-.33.51-.68.75-1.03.03-.04.05-.08.08-.12-23.54,7-40.11,5.78-63.12,5.81Z" fill="#0b1a42" opacity=".37"/><path d="m21.41,8.01c-.2.74-1.63.3-4.13,1.12-3.84,1.26-3.46,3.16-4.59,2.54-.69-.38.92-2.51,3.33-3.52,2.41-1.01,5.59-.86,5.39-.15Z" fill="#fff"/><ellipse cx="11.62" cy="13.21" rx=".72" ry=".79" transform="translate(-1.87 24.5) rotate(-88.56)" fill="#fff"/><path d="m158.29,9.69c-3.7-3.13-8.74-5.11-14.86-5.7-12.32-1.19-25.46-1.19-38.17-1.19-4.31,0-32.58-.47-42.24-.47-12.45,0-25.33,0-38.17,1.19C13.19,4.6,5.44,10.74,3.47,20.42,8.28,8.74,50.39-.03,158.29,9.69Z" fill="#fff" opacity=".07"/><g opacity=".63"><path d="m18.32,31.71c-.49,0-.83-.1-1-.29-.18-.19-.26-.51-.26-.95,0-.27.03-.5.1-.69.06-.19.18-.34.36-.44.18-.1.44-.15.79-.15.51,0,.85.1,1.01.29.17.19.25.51.25.95,0,.27-.03.5-.1.68-.06.18-.18.33-.36.44-.18.11-.44.17-.79.17Zm0-4.72c-.32,0-.55-.04-.7-.11-.15-.07-.25-.18-.3-.33-.05-.15-.07-.34-.07-.56v-9.94c0-.21.02-.38.07-.54.05-.15.15-.27.3-.36.15-.09.38-.13.68-.13.32,0,.55.04.7.12.15.08.25.19.3.35.05.15.07.34.07.56v9.91c0,.21-.02.39-.07.55-.05.16-.14.28-.29.36s-.37.12-.69.12Z" fill="#cbe9f4"/><path d="m33.4,31.68c-.29,0-.5-.04-.66-.12-.15-.08-.26-.19-.32-.35-.06-.15-.1-.31-.1-.46v-5.84c0-1.16-.16-2.12-.49-2.88s-.81-1.34-1.47-1.73c-.65-.39-1.47-.58-2.45-.58h-4.48c-.21,0-.39-.03-.55-.08-.16-.06-.29-.16-.38-.32-.1-.16-.14-.38-.14-.67,0-.3.05-.52.14-.67.1-.14.22-.25.38-.31.16-.06.33-.1.52-.1h4.43c1.46,0,2.68.27,3.66.82.98.55,1.71,1.36,2.2,2.43.49,1.07.74,2.42.74,4.04v5.72c0,.21-.03.39-.08.56s-.16.3-.31.39c-.15.1-.37.14-.65.14Zm-9.77,0c-.29,0-.5-.05-.64-.14-.14-.1-.24-.23-.3-.39-.06-.17-.08-.35-.08-.54v-5.89c0-.21.03-.39.08-.55.06-.16.16-.28.31-.37.15-.09.37-.13.66-.13.3,0,.53.05.68.14.15.1.25.22.3.38.05.16.07.34.07.55v5.89c0,.19-.03.37-.08.52-.06.16-.16.29-.31.38-.15.1-.38.14-.68.14Z" fill="#cbe9f4"/><path d="m37.9,25.56c-.33-.33-.62-.75-.85-1.25s-.35-1.06-.37-1.68c-.02-.73.11-1.41.37-2.03s.63-1.16,1.11-1.63c.48-.47,1.04-.83,1.68-1.1s1.35-.39,2.11-.39h.38c1.3,0,2.41.26,3.32.79.91.52,1.61,1.29,2.1,2.3.48,1.01.73,2.24.73,3.71v.45c0,1.51-.28,2.78-.85,3.81-.56,1.03-1.35,1.82-2.35,2.35l-.98-1.89c.65-.37,1.16-.91,1.53-1.63.37-.72.55-1.62.55-2.7v-.31c0-1.54-.35-2.72-1.04-3.53-.69-.81-1.67-1.22-2.94-1.22h-.64c-.57,0-1.09.14-1.56.42-.47.28-.83.62-1.1,1.02-.26.41-.37.82-.32,1.25" fill="#cbe9f4"/><path d="m61.71,29.54v-5.46c0-1.03-.13-1.88-.39-2.55-.26-.67-.64-1.16-1.14-1.48-.5-.32-1.11-.48-1.82-.48-.52,0-1,.12-1.43.35-.43.23-.8.55-1.12.97-.32.41-.59.9-.82,1.47-.23.56-.43,1.19-.58,1.87l-1.29,6.31c-.03.21-.08.4-.14.57-.06.18-.17.31-.32.42-.15.1-.36.16-.63.16-.41,0-.71-.09-.88-.27-.18-.18-.23-.45-.17-.8l1.69-8.39.76.5c.16-.59.35-1.15.57-1.68.22-.53.47-1.02.75-1.45.28-.44.61-.81.99-1.13.38-.32.81-.56,1.3-.74.48-.17,1.05-.26,1.7-.26,1.08,0,2,.24,2.75.73.75.48,1.33,1.22,1.73,2.19.4.98.6,2.19.6,3.63v6.6c0,.3-.02.53-.07.68-.05.15-.14.25-.29.31s-.37.08-.67.08m-10.17-7.01l-1.53-5.69c-.06-.22-.1-.42-.1-.6s.06-.33.18-.46c.12-.13.33-.24.63-.32.37-.08.64-.08.81,0,.17.08.29.2.36.37.06.17.11.32.14.46l1.12,4.36-1.62,1.88Z" fill="#cbe9f4"/><path d="m76.86,20.25l-1.45-.52h-7.15c-.4,0-.69-.09-.88-.26s-.3-.46-.33-.86l-.19-3.72c0-.21.03-.38.08-.54.06-.15.17-.27.35-.36.17-.09.41-.13.71-.13.29,0,.49.05.62.14.13.1.22.23.27.39s.08.36.08.58l.14,2.6h6.05c.51,0,.91.11,1.22.33.3.22.5.54.58.94.09.41.05.87-.11,1.39Zm-6.55,11.37c-.38-.19-.63-.4-.74-.62-.11-.22-.07-.48.12-.76.73-1.13,1.39-2.18,1.97-3.16.58-.98,1.1-1.91,1.55-2.79.45-.88.85-1.76,1.2-2.63.35-.87.65-1.77.91-2.69l1.6,1.22c-.37,1.19-.79,2.34-1.29,3.43-.49,1.1-1.06,2.24-1.69,3.43-.64,1.19-1.38,2.53-2.24,4-.1.19-.21.35-.35.48-.14.13-.29.21-.45.24-.17.03-.36-.02-.58-.14Z" fill="#cbe9f4"/><path d="m85.8,33.59c-.1-.03-.17-.08-.21-.16-.05-.07-.07-.19-.07-.37,0-.25.04-.41.11-.48.07-.06.12-.1.16-.1,0-.02.09-.09.26-.23.18-.14.28-.38.31-.73-.13-.02-.24-.05-.33-.1-.1-.05-.18-.11-.26-.19-.13-.11-.2-.26-.21-.44-.02-.18-.02-.35-.02-.51,0-.21.02-.41.05-.6s.13-.35.31-.46c.17-.12.48-.18.91-.18.48,0,.81.1,1,.29.11.11.18.25.2.43.02.18.04.36.04.55v.26c0,.08-.02.17-.05.26-.03.48-.15.93-.36,1.35s-.47.76-.79,1.01c-.32.25-.66.38-1.02.38Z" fill="#cbe9f4"/><path d="m101.81,31.68c-.29,0-.5-.04-.66-.12-.15-.08-.26-.19-.32-.35-.06-.15-.1-.31-.1-.46v-5.84c0-1.16-.16-2.12-.49-2.88s-.81-1.34-1.47-1.73c-.65-.39-1.47-.58-2.45-.58h-4.48c-.21,0-.39-.03-.55-.08-.16-.06-.29-.16-.38-.32-.1-.16-.14-.38-.14-.67,0-.3.05-.52.14-.67.1-.14.22-.25.38-.31.16-.06.33-.1.52-.1h4.43c1.46,0,2.68.27,3.66.82.98.55,1.71,1.36,2.2,2.43.49,1.07.74,2.42.74,4.04v5.72c0,.21-.03.39-.08.56s-.16.3-.31.39c-.15.1-.37.14-.65.14Zm-9.77,0c-.29,0-.5-.05-.64-.14-.14-.1-.24-.23-.3-.39-.06-.17-.08-.35-.08-.54v-5.89c0-.21.03-.39.08-.55.06-.16.16-.28.31-.37.15-.09.37-.13.66-.13.3,0,.53.05.68.14.15.1.25.22.3.38.05.16.07.34.07.55v5.89c0,.19-.03.37-.08.52-.06.16-.16.29-.31.38-.15.1-.38.14-.68.14Z" fill="#cbe9f4"/><path d="m114.91,29.54h1.18v-5.46c0-1.03-.13-1.88-.39-2.55-.26-.67-.64-1.16-1.14-1.48-.5-.32-1.11-.48-1.82-.48-.52,0-1,.12-1.43.35-.43.23-.8.55-1.12.97-.32.41-.59.9-.82,1.47-.23.56-.43,1.19-.58,1.87l-1.29,6.31c-.03.21-.08.4-.14.57-.06.18-.17.31-.32.42-.15.1-.36.16-.63.16-.41,0-.71-.09-.88-.27-.18-.18-.23-.45-.17-.8l1.69-8.39.76.5c.16-.59.35-1.15.57-1.68.22-.53.47-1.02.75-1.45.28-.44.61-.81.99-1.13.38-.32.81-.56,1.3-.74.48-.17,1.05-.26,1.7-.26,1.08,0,2,.24,2.75.73.75.48,1.33,1.22,1.73,2.19.4.98.6,2.19.6,3.63v6.6c0,.3-.02.53-.07.68-.05.15-.14.25-.29.31s-.37.08-.67.08h-2.25m-7.93-7.01l-1.53-5.69c-.06-.22-.1-.42-.1-.6s.06-.33.18-.46c.12-.13.33-.24.63-.32.37-.08.64-.08.81,0,.17.08.29.2.36.37.06.17.11.32.14.46l1.12,4.36-1.62,1.88Z" fill="#cbe9f4"/><path d="m122.93,24.94c-.29,0-.5-.05-.64-.16-.14-.1-.24-.23-.3-.39-.06-.16-.08-.33-.08-.52v-5.24c0-.19.03-.37.08-.52.06-.16.16-.29.31-.38.15-.1.37-.14.66-.14.3,0,.53.05.68.15.15.1.25.23.3.38.05.15.07.33.07.54v5.24c0,.19-.03.37-.08.52-.06.16-.16.29-.31.38-.15.1-.38.14-.68.14Z" fill="#cbe9f4"/><path d="m128.1,19.72c-.21,0-.39-.03-.56-.08-.17-.06-.3-.16-.39-.32s-.14-.38-.14-.67c0-.3.05-.52.14-.67s.23-.25.39-.31c.17-.06.35-.1.54-.1h9.96c.21,0,.38.03.54.1.15.06.27.17.37.31.1.14.14.37.14.67,0,.29-.05.51-.14.67-.1.16-.22.27-.38.32-.16.06-.34.08-.55.08h-9.91Zm7.22,11.96c-.29,0-.5-.05-.64-.14-.14-.1-.25-.23-.31-.39s-.1-.35-.1-.56v-11.18l2.12.1v11.25c0,.16-.03.31-.08.46-.06.15-.16.27-.31.35-.15.08-.38.12-.68.12Z" fill="#cbe9f4"/><path d="m153.5,20.27l-1.64-.55h-8.89c-.21,0-.39-.03-.56-.1s-.3-.18-.39-.33c-.1-.16-.14-.38-.14-.67,0-.3.05-.52.14-.67.1-.14.23-.24.39-.3s.35-.08.54-.08h8.72c.57,0,1.02.12,1.36.36.33.24.54.56.63.96.09.41.04.86-.15,1.37Zm-10.2,15.01c-.29,0-.5-.05-.64-.14-.14-.1-.24-.22-.3-.38-.06-.16-.08-.34-.08-.55v-10.25c0-.19.03-.37.08-.52.06-.16.16-.28.31-.37.15-.09.37-.13.66-.13.3,0,.53.05.68.14.15.1.25.22.3.37.05.15.07.33.07.54v10.25c0,.21-.03.38-.08.54-.06.15-.16.27-.31.37-.15.1-.38.14-.68.14Zm5.27-3.65c-.41-.14-.7-.31-.85-.51-.15-.2-.17-.45-.06-.75.21-.52.44-1.16.72-1.89.27-.74.56-1.53.87-2.38.31-.85.62-1.71.93-2.59.31-.87.6-1.71.87-2.5.27-.79.51-1.5.72-2.12l1.79,1.24c-.18.6-.39,1.29-.64,2.06-.25.77-.52,1.57-.81,2.41-.29.83-.57,1.65-.85,2.44-.28.79-.54,1.52-.77,2.18-.24.66-.44,1.2-.6,1.61-.08.19-.18.36-.3.51s-.25.25-.4.31c-.15.06-.35.05-.61-.01Z" fill="#cbe9f4"/></g><path d="m16.83,34.68c-.79,0-1.35-.2-1.73-.61-.35-.38-.52-.91-.52-1.62,0-.38.05-.71.15-1,.14-.41.41-.75.79-.98.33-.2.76-.29,1.29-.29.81,0,1.39.2,1.75.62.33.38.49.9.49,1.6,0,.38-.05.71-.15,1-.14.39-.4.72-.76.95-.34.22-.77.32-1.32.32Zm0-4.72c-.48,0-.83-.06-1.13-.2-.39-.19-.68-.51-.81-.92-.08-.25-.12-.53-.12-.86v-9.94c0-.31.04-.58.12-.83.12-.39.38-.71.75-.92.31-.18.69-.26,1.17-.26s.86.07,1.16.23c.38.2.65.52.78.92.08.25.12.53.12.86v9.91c0,.3-.04.58-.11.83-.12.41-.38.73-.75.94-.3.17-.67.24-1.17.24Z" fill="#03072d"/><path d="m31.91,34.65c-.45,0-.81-.08-1.11-.23-.36-.19-.62-.48-.77-.84-.11-.27-.17-.55-.17-.84v-5.84c0-1.02-.14-1.86-.41-2.5-.24-.57-.59-.99-1.07-1.27-.49-.29-1.15-.44-1.95-.44h-4.48c-.32,0-.61-.05-.87-.14-.37-.13-.69-.39-.9-.74-.19-.32-.28-.7-.28-1.17,0-.5.1-.9.31-1.21.21-.31.49-.54.84-.68.28-.11.58-.17.89-.17h4.43c1.63,0,3.02.32,4.14.95,1.16.65,2.04,1.62,2.62,2.88.55,1.2.83,2.69.83,4.45v5.72c0,.31-.05.61-.13.87-.13.38-.38.7-.72.91-.32.2-.7.3-1.18.3Zm-9.77,0c-.49,0-.88-.1-1.19-.31-.33-.22-.56-.53-.69-.9-.09-.26-.13-.55-.13-.85v-5.89c0-.32.05-.61.14-.87.13-.38.39-.69.75-.9.31-.18.68-.26,1.15-.26.5,0,.89.1,1.2.29.35.22.6.54.72.93.08.25.11.53.11.83v5.89c0,.3-.05.59-.14.85-.13.37-.37.67-.71.89-.32.2-.71.3-1.21.3Z" fill="#03072d"/><path d="m36.73,34.65c-.31,0-.61-.05-.88-.16-.37-.14-.67-.39-.88-.72-.2-.31-.3-.7-.3-1.18s.1-.89.3-1.21c.22-.34.53-.59.91-.72.27-.09.56-.13.87-.13h3.79c.71,0,1.3-.14,1.81-.42.48-.27.85-.67,1.13-1.22.29-.58.44-1.34.44-2.26v-.31c0-1.29-.27-2.26-.8-2.89-.5-.58-1.22-.87-2.19-.87h-.64c-.4,0-.74.09-1.06.28-.34.2-.59.43-.77.71-.18.28-.18.48-.17.61v.04s0,.04,0,.04c.01.39.08.71.22.95.12.22.33.41.63.57.42.25.68.6.78,1.02.08.36.06.72-.07,1.08-.11.29-.27.56-.48.8-.23.26-.51.45-.82.55-.2.08-.41.12-.63.12-.28,0-.58-.07-.89-.19-.44-.18-.88-.49-1.31-.92s-.77-.93-1.04-1.53c-.29-.62-.44-1.32-.46-2.07-.02-.87.13-1.69.45-2.43.31-.74.76-1.39,1.32-1.95.57-.56,1.24-1,2-1.31.76-.31,1.59-.47,2.48-.47h.38c1.47,0,2.75.31,3.81.92,1.08.62,1.92,1.54,2.49,2.73.55,1.14.82,2.53.82,4.13v.45c0,1.67-.33,3.11-.97,4.28-.65,1.2-1.58,2.12-2.75,2.74-1.14.61-2.47.91-3.97.91h-3.57Z" fill="#03072d"/><path d="m55.5,34.65c-.31,0-.61-.05-.88-.16-.37-.14-.67-.39-.88-.72-.2-.32-.3-.7-.3-1.18s.1-.89.29-1.2c.22-.34.53-.59.92-.72.27-.09.56-.13.87-.13h3.71v-4.47c0-.9-.11-1.64-.32-2.19-.19-.47-.43-.8-.76-1.01-.34-.22-.77-.32-1.29-.32-.36,0-.68.07-.96.23-.31.17-.57.39-.81.7-.26.34-.5.76-.69,1.24-.21.51-.39,1.09-.54,1.72l-1.28,6.29c-.03.22-.1.48-.18.71-.13.37-.37.67-.69.89-.32.22-.72.33-1.19.33-.69,0-1.23-.19-1.59-.58-.28-.29-.58-.81-.42-1.66l1.35-6.68-1.21-4.52c-.08-.3-.13-.58-.13-.85,0-.41.15-.8.42-1.12.26-.29.62-.49,1.12-.62.29-.06.52-.09.73-.09.28,0,.53.05.74.15.41.19.71.51.87.92.08.21.14.41.18.6l.11.45c.27-.36.58-.68.91-.96.47-.39,1-.7,1.6-.91.59-.21,1.28-.32,2.04-.32,1.27,0,2.37.3,3.28.88.92.59,1.63,1.49,2.11,2.65.44,1.09.67,2.44.67,4.01v6.6c0,.41-.04.72-.12.97-.14.44-.45.77-.87.93-.26.1-.59.15-1.02.15h-5.79Z" fill="#03072d"/><path d="m69.3,34.74c-.31,0-.62-.09-.94-.27-.57-.29-.95-.63-1.16-1.05-.16-.31-.34-.96.18-1.75.71-1.09,1.36-2.14,1.94-3.11.57-.96,1.08-1.88,1.52-2.74.44-.85.83-1.71,1.16-2.55.08-.19.15-.38.22-.58h-5.46c-.65,0-1.17-.18-1.55-.52-.38-.35-.6-.85-.65-1.51l-.19-3.8c0-.32.05-.62.14-.88.1-.27.32-.64.83-.9.32-.16.7-.24,1.16-.24.51,0,.91.11,1.21.34.29.21.5.51.62.87.09.26.13.55.13.87l.09,1.64h5.12c.72,0,1.33.18,1.8.53.49.36.82.89.96,1.53.07.34.09.71.04,1.1l.06.04-.18.67c-.38,1.22-.82,2.42-1.33,3.55-.5,1.11-1.08,2.28-1.72,3.49-.64,1.19-1.39,2.54-2.24,4.01-.14.28-.33.53-.54.72-.27.26-.59.42-.94.49-.1.02-.19.03-.29.03Z" fill="#03072d"/><path d="m84.15,36.56l-.15-.05c-.3-.1-.55-.29-.72-.54-.16-.24-.24-.53-.24-.92,0-.35.05-.86.43-1.21-.24-.26-.37-.59-.41-.96-.02-.21-.03-.41-.03-.59,0-.26.02-.52.06-.76.08-.46.33-.84.73-1.12.35-.24.81-.35,1.46-.35.76,0,1.31.19,1.7.58.26.26.43.61.48.99.03.22.05.45.05.68v.26c0,.14-.02.29-.06.44-.05.56-.2,1.1-.45,1.6-.27.55-.62,1-1.06,1.35-.5.4-1.05.6-1.64.6h-.16Z" fill="#03072d"/><path d="m100.32,34.65c-.45,0-.81-.08-1.11-.23-.36-.19-.62-.48-.77-.84-.11-.27-.17-.55-.17-.84v-5.84c0-1.02-.14-1.86-.41-2.5-.24-.57-.59-.99-1.07-1.27-.49-.29-1.15-.44-1.95-.44h-4.48c-.32,0-.61-.05-.87-.14-.37-.13-.69-.39-.9-.74-.19-.32-.28-.7-.28-1.17,0-.5.1-.9.31-1.21.21-.31.49-.54.84-.68.28-.11.58-.17.89-.17h4.43c1.63,0,3.02.32,4.14.95,1.16.65,2.04,1.62,2.62,2.88.55,1.2.83,2.69.83,4.45v5.72c0,.31-.05.61-.13.87-.13.38-.38.7-.72.91-.32.2-.7.3-1.18.3Zm-9.77,0c-.49,0-.88-.1-1.19-.31-.33-.22-.56-.53-.69-.9-.09-.26-.13-.55-.13-.85v-5.89c0-.32.05-.61.14-.87.13-.38.39-.69.75-.9.31-.18.68-.26,1.15-.26.5,0,.89.1,1.2.29.35.22.6.54.72.93.08.25.11.53.11.83v5.89c0,.3-.05.59-.14.85-.13.37-.37.67-.71.89-.32.2-.71.3-1.21.3Z" fill="#03072d"/><path d="m109.88,34.65c-.31,0-.61-.05-.88-.16-.37-.14-.67-.39-.88-.72-.2-.32-.3-.7-.3-1.18s.1-.89.29-1.2c.22-.34.53-.59.92-.72.27-.09.56-.13.87-.13h3.71v-4.47c0-.9-.11-1.64-.32-2.19-.19-.47-.43-.8-.76-1.01-.34-.22-.77-.32-1.29-.32-.36,0-.68.07-.96.23-.31.17-.57.39-.81.7-.26.34-.5.76-.69,1.24-.21.51-.39,1.09-.54,1.72l-1.28,6.29c-.03.22-.1.48-.18.71-.13.37-.37.67-.69.89-.32.22-.72.33-1.19.33-.69,0-1.23-.19-1.59-.58-.28-.29-.58-.81-.42-1.66l1.35-6.68-1.21-4.52c-.08-.3-.13-.58-.13-.85,0-.41.15-.8.42-1.12.26-.29.62-.49,1.12-.62.29-.06.52-.09.73-.09.28,0,.53.05.74.15.41.19.71.51.87.92.08.21.14.41.18.6l.11.45c.27-.36.58-.68.91-.96.47-.39,1-.7,1.6-.91.59-.21,1.28-.32,2.04-.32,1.27,0,2.37.3,3.28.88.92.59,1.63,1.49,2.11,2.65.44,1.09.67,2.44.67,4.01v6.6c0,.41-.04.72-.12.97-.14.44-.45.77-.87.93-.26.1-.59.15-1.02.15h-5.79Z" fill="#03072d"/><path d="m121.44,27.91c-.5,0-.9-.11-1.22-.34-.3-.22-.53-.52-.65-.86-.09-.26-.14-.55-.14-.85v-5.24c0-.3.05-.59.14-.85.13-.37.38-.68.71-.89.32-.2.7-.29,1.18-.29.51,0,.91.11,1.23.33.33.23.57.54.68.9.08.25.12.53.12.83v5.24c0,.3-.05.59-.14.85-.13.37-.38.68-.71.89-.32.2-.71.3-1.21.3Z" fill="#03072d"/><path d="m133.83,34.65c-.49,0-.88-.1-1.19-.31-.31-.21-.55-.51-.69-.86-.11-.28-.16-.58-.16-.91v-9.88h-5.19c-.31,0-.61-.05-.87-.13-.39-.13-.71-.39-.93-.75-.19-.32-.28-.7-.28-1.17,0-.51.1-.9.31-1.21.21-.31.51-.55.86-.68.28-.11.58-.16.89-.16h9.96c.34,0,.64.06.92.17.33.14.61.37.81.67.21.31.31.71.31,1.21,0,.47-.09.86-.28,1.17-.21.35-.52.61-.9.74-.26.09-.56.14-.87.14h-.64v10.05c0,.27-.05.54-.14.8-.14.38-.41.68-.77.88-.3.16-.67.23-1.14.23Z" fill="#03072d"/><path d="m141.81,38.25c-.49,0-.88-.1-1.19-.31-.32-.22-.56-.52-.68-.88-.09-.26-.14-.56-.14-.87v-10.25c0-.3.05-.59.14-.85.13-.38.39-.69.74-.9.31-.18.68-.26,1.15-.26.5,0,.89.1,1.21.3.35.22.59.53.71.91.08.25.12.53.12.83v10.25c0,.32-.05.62-.14.88-.13.35-.38.65-.71.86-.32.2-.71.3-1.21.3Zm5.63-3.59c-.19,0-.39-.03-.6-.08h-.04s-.04-.02-.04-.02c-.61-.21-1.04-.49-1.31-.85-.2-.27-.51-.85-.2-1.68.21-.54.45-1.16.71-1.89l.87-2.38c.31-.85.62-1.71.93-2.58.31-.86.59-1.69.86-2.47h-7.14c-.33,0-.63-.05-.91-.16-.37-.14-.68-.4-.89-.75-.19-.32-.28-.7-.28-1.17,0-.5.1-.9.31-1.21.22-.33.53-.56.9-.69.27-.09.55-.13.85-.13h8.72c.78,0,1.43.18,1.93.54.53.38.88.92,1.02,1.56.12.55.07,1.16-.15,1.79-.17.6-.39,1.27-.63,2.01-.26.77-.53,1.58-.81,2.42-.29.84-.57,1.65-.85,2.45-.28.8-.54,1.53-.78,2.19-.24.67-.44,1.21-.6,1.63-.12.3-.27.55-.44.77-.23.29-.51.5-.84.62-.18.07-.38.1-.59.1Z" fill="#03072d"/><path d="m18.32,32.7c-.49,0-.83-.1-1-.29-.18-.19-.26-.51-.26-.95,0-.27.03-.5.1-.69.06-.19.18-.34.36-.44.18-.1.44-.15.79-.15.51,0,.85.1,1.01.29.17.19.25.51.25.95,0,.27-.03.5-.1.68-.06.18-.18.33-.36.44-.18.11-.44.17-.79.17Zm0-4.72c-.32,0-.55-.04-.7-.11-.15-.07-.25-.18-.3-.33-.05-.15-.07-.34-.07-.56v-9.94c0-.21.02-.38.07-.54.05-.15.15-.27.3-.36.15-.09.38-.13.68-.13.32,0,.55.04.7.12.15.08.25.19.3.35.05.15.07.34.07.56v9.91c0,.21-.02.39-.07.55-.05.16-.14.28-.29.36s-.37.12-.69.12Z" fill="#fff"/><path d="m33.4,32.68c-.29,0-.5-.04-.66-.12-.15-.08-.26-.19-.32-.35-.06-.15-.1-.31-.1-.46v-5.84c0-1.16-.16-2.12-.49-2.88s-.81-1.34-1.47-1.73c-.65-.39-1.47-.58-2.45-.58h-4.48c-.21,0-.39-.03-.55-.08-.16-.06-.29-.16-.38-.32-.1-.16-.14-.38-.14-.67,0-.3.05-.52.14-.67.1-.14.22-.25.38-.31.16-.06.33-.1.52-.1h4.43c1.46,0,2.68.27,3.66.82.98.55,1.71,1.36,2.2,2.43.49,1.07.74,2.42.74,4.04v5.72c0,.21-.03.39-.08.56s-.16.3-.31.39c-.15.1-.37.14-.65.14Zm-9.77,0c-.29,0-.5-.05-.64-.14-.14-.1-.24-.23-.3-.39-.06-.17-.08-.35-.08-.54v-5.89c0-.21.03-.39.08-.55.06-.16.16-.28.31-.37.15-.09.37-.13.66-.13.3,0,.53.05.68.14.15.1.25.22.3.38.05.16.07.34.07.55v5.89c0,.19-.03.37-.08.52-.06.16-.16.29-.31.38-.15.1-.38.14-.68.14Z" fill="#fff"/><path d="m38.21,32.68c-.19,0-.37-.03-.54-.1-.17-.06-.3-.17-.39-.32-.1-.15-.14-.37-.14-.65,0-.3.05-.53.14-.68.1-.15.23-.25.39-.31s.35-.08.56-.08h3.79c.87,0,1.64-.18,2.29-.55.65-.37,1.16-.91,1.53-1.63.37-.72.55-1.62.55-2.7v-.31c0-1.54-.35-2.72-1.04-3.53-.69-.81-1.67-1.22-2.94-1.22h-.64c-.57,0-1.09.14-1.56.42-.47.28-.83.62-1.1,1.02-.26.41-.37.82-.32,1.25.02.56.13,1.02.35,1.41.21.38.55.7,1.01.95.16.1.26.23.3.39.04.17.03.34-.04.51-.06.18-.16.33-.29.48-.13.14-.27.24-.43.29-.21.1-.47.08-.8-.06-.33-.13-.66-.37-.99-.7-.33-.33-.62-.75-.85-1.25s-.35-1.06-.37-1.68c-.02-.73.11-1.41.37-2.03s.63-1.16,1.11-1.63c.48-.47,1.04-.83,1.68-1.1s1.35-.39,2.11-.39h.38c1.3,0,2.41.26,3.32.79.91.52,1.61,1.29,2.1,2.3.48,1.01.73,2.24.73,3.71v.45c0,1.51-.28,2.78-.85,3.81-.56,1.03-1.35,1.82-2.35,2.35s-2.17.8-3.5.8h-3.57Z" fill="#fff"/><path d="m63.81,25v6.6c0,.3-.02.53-.07.68-.05.15-.14.25-.29.31s-.37.08-.67.08h-5.79c-.19,0-.37-.03-.54-.1-.17-.06-.3-.17-.39-.32-.1-.15-.14-.37-.14-.65,0-.3.05-.53.14-.68.1-.15.23-.25.39-.31s.35-.08.56-.08h4.69v-5.46c0-1.03-.13-1.88-.39-2.55-.26-.67-.64-1.16-1.14-1.48-.5-.32-1.11-.48-1.82-.48-.52,0-1,.12-1.43.35-.43.23-.8.55-1.12.97-.32.41-.59.9-.82,1.47-.23.56-.43,1.19-.58,1.87l-1.29,6.31c-.03.21-.08.4-.14.57-.06.18-.17.31-.32.42-.15.1-.36.16-.63.16-.41,0-.71-.09-.88-.27-.18-.18-.23-.45-.17-.8l1.69-8.39.76.5c.16-.59.35-1.15.57-1.68.22-.53.47-1.02.75-1.45.28-.44.61-.81.99-1.13.38-.32.81-.56,1.3-.74.48-.17,1.05-.26,1.7-.26,1.08,0,2,.24,2.75.73.75.48,1.33,1.22,1.73,2.19.4.98.6,2.19.6,3.63Zm-11.2.67l-1.53-5.69c-.06-.22-.1-.42-.1-.6s.06-.33.18-.46c.12-.13.33-.24.63-.32.37-.08.64-.08.81,0,.17.08.29.2.36.37.06.17.11.32.14.46l1.12,4.36-1.62,1.88Z" fill="#fff"/><path d="m76.86,21.24l-1.45-.52h-7.15c-.4,0-.69-.09-.88-.26s-.3-.46-.33-.86l-.19-3.72c0-.21.03-.38.08-.54.06-.15.17-.27.35-.36.17-.09.41-.13.71-.13.29,0,.49.05.62.14.13.1.22.23.27.39s.08.36.08.58l.14,2.6h6.05c.51,0,.91.11,1.22.33.3.22.5.54.58.94.09.41.05.87-.11,1.39Zm-6.55,11.37c-.38-.19-.63-.4-.74-.62-.11-.22-.07-.48.12-.76.73-1.13,1.39-2.18,1.97-3.16.58-.98,1.1-1.91,1.55-2.79.45-.88.85-1.76,1.2-2.63.35-.87.65-1.77.91-2.69l1.6,1.22c-.37,1.19-.79,2.34-1.29,3.43-.49,1.1-1.06,2.24-1.69,3.43-.64,1.19-1.38,2.53-2.24,4-.1.19-.21.35-.35.48-.14.13-.29.21-.45.24-.17.03-.36-.02-.58-.14Z" fill="#fff"/><path d="m85.8,34.58c-.1-.03-.17-.08-.21-.16-.05-.07-.07-.19-.07-.37,0-.25.04-.41.11-.48.07-.06.12-.1.16-.1,0-.02.09-.09.26-.23.18-.14.28-.38.31-.73-.13-.02-.24-.05-.33-.1-.1-.05-.18-.11-.26-.19-.13-.11-.2-.26-.21-.44-.02-.18-.02-.35-.02-.51,0-.21.02-.41.05-.6s.13-.35.31-.46c.17-.12.48-.18.91-.18.48,0,.81.1,1,.29.11.11.18.25.2.43.02.18.04.36.04.55v.26c0,.08-.02.17-.05.26-.03.48-.15.93-.36,1.35s-.47.76-.79,1.01c-.32.25-.66.38-1.02.38Z" fill="#fff"/><path d="m101.81,32.68c-.29,0-.5-.04-.66-.12-.15-.08-.26-.19-.32-.35-.06-.15-.1-.31-.1-.46v-5.84c0-1.16-.16-2.12-.49-2.88s-.81-1.34-1.47-1.73c-.65-.39-1.47-.58-2.45-.58h-4.48c-.21,0-.39-.03-.55-.08-.16-.06-.29-.16-.38-.32-.1-.16-.14-.38-.14-.67,0-.3.05-.52.14-.67.1-.14.22-.25.38-.31.16-.06.33-.1.52-.1h4.43c1.46,0,2.68.27,3.66.82.98.55,1.71,1.36,2.2,2.43.49,1.07.74,2.42.74,4.04v5.72c0,.21-.03.39-.08.56s-.16.3-.31.39c-.15.1-.37.14-.65.14Zm-9.77,0c-.29,0-.5-.05-.64-.14-.14-.1-.24-.23-.3-.39-.06-.17-.08-.35-.08-.54v-5.89c0-.21.03-.39.08-.55.06-.16.16-.28.31-.37.15-.09.37-.13.66-.13.3,0,.53.05.68.14.15.1.25.22.3.38.05.16.07.34.07.55v5.89c0,.19-.03.37-.08.52-.06.16-.16.29-.31.38-.15.1-.38.14-.68.14Z" fill="#fff"/><path d="m118.18,25v6.6c0,.3-.02.53-.07.68-.05.15-.14.25-.29.31s-.37.08-.67.08h-5.79c-.19,0-.37-.03-.54-.1-.17-.06-.3-.17-.39-.32-.1-.15-.14-.37-.14-.65,0-.3.05-.53.14-.68.1-.15.23-.25.39-.31s.35-.08.56-.08h4.69v-5.46c0-1.03-.13-1.88-.39-2.55-.26-.67-.64-1.16-1.14-1.48-.5-.32-1.11-.48-1.82-.48-.52,0-1,.12-1.43.35-.43.23-.8.55-1.12.97-.32.41-.59.9-.82,1.47-.23.56-.43,1.19-.58,1.87l-1.29,6.31c-.03.21-.08.4-.14.57-.06.18-.17.31-.32.42-.15.1-.36.16-.63.16-.41,0-.71-.09-.88-.27-.18-.18-.23-.45-.17-.8l1.69-8.39.76.5c.16-.59.35-1.15.57-1.68.22-.53.47-1.02.75-1.45.28-.44.61-.81.99-1.13.38-.32.81-.56,1.3-.74.48-.17,1.05-.26,1.7-.26,1.08,0,2,.24,2.75.73.75.48,1.33,1.22,1.73,2.19.4.98.6,2.19.6,3.63Zm-11.2.67l-1.53-5.69c-.06-.22-.1-.42-.1-.6s.06-.33.18-.46c.12-.13.33-.24.63-.32.37-.08.64-.08.81,0,.17.08.29.2.36.37.06.17.11.32.14.46l1.12,4.36-1.62,1.88Z" fill="#fff"/><path d="m122.93,25.93c-.29,0-.5-.05-.64-.16-.14-.1-.24-.23-.3-.39-.06-.16-.08-.33-.08-.52v-5.24c0-.19.03-.37.08-.52.06-.16.16-.29.31-.38.15-.1.37-.14.66-.14.3,0,.53.05.68.15.15.1.25.23.3.38.05.15.07.33.07.54v5.24c0,.19-.03.37-.08.52-.06.16-.16.29-.31.38-.15.1-.38.14-.68.14Z" fill="#fff"/><path d="m128.1,20.71c-.21,0-.39-.03-.56-.08-.17-.06-.3-.16-.39-.32s-.14-.38-.14-.67c0-.3.05-.52.14-.67s.23-.25.39-.31c.17-.06.35-.1.54-.1h9.96c.21,0,.38.03.54.1.15.06.27.17.37.31.1.14.14.37.14.67,0,.29-.05.51-.14.67-.1.16-.22.27-.38.32-.16.06-.34.08-.55.08h-9.91Zm7.22,11.96c-.29,0-.5-.05-.64-.14-.14-.1-.25-.23-.31-.39s-.1-.35-.1-.56v-11.18l2.12.1v11.25c0,.16-.03.31-.08.46-.06.15-.16.27-.31.35-.15.08-.38.12-.68.12Z" fill="#fff"/><path d="m153.5,21.26l-1.64-.55h-8.89c-.21,0-.39-.03-.56-.1s-.3-.18-.39-.33c-.1-.16-.14-.38-.14-.67,0-.3.05-.52.14-.67.1-.14.23-.24.39-.3s.35-.08.54-.08h8.72c.57,0,1.02.12,1.36.36.33.24.54.56.63.96.09.41.04.86-.15,1.37Zm-10.2,15.01c-.29,0-.5-.05-.64-.14-.14-.1-.24-.22-.3-.38-.06-.16-.08-.34-.08-.55v-10.25c0-.19.03-.37.08-.52.06-.16.16-.28.31-.37.15-.09.37-.13.66-.13.3,0,.53.05.68.14.15.1.25.22.3.37.05.15.07.33.07.54v10.25c0,.21-.03.38-.08.54-.06.15-.16.27-.31.37-.15.1-.38.14-.68.14Zm5.27-3.65c-.41-.14-.7-.31-.85-.51-.15-.2-.17-.45-.06-.75.21-.52.44-1.16.72-1.89.27-.74.56-1.53.87-2.38.31-.85.62-1.71.93-2.59.31-.87.6-1.71.87-2.5.27-.79.51-1.5.72-2.12l1.79,1.24c-.18.6-.39,1.29-.64,2.06-.25.77-.52,1.57-.81,2.41-.29.83-.57,1.65-.85,2.44-.28.79-.54,1.52-.77,2.18-.24.66-.44,1.2-.6,1.61-.08.19-.18.36-.3.51s-.25.25-.4.31c-.15.06-.35.05-.61-.01Z" fill="#fff"/></g></svg>