<?xml version="1.0" encoding="UTF-8"?><svg id="Layer_2" xmlns="http://www.w3.org/2000/svg" width="43.69" height="43.47" xmlns:xlink="http://www.w3.org/1999/xlink" viewBox="0 0 43.69 43.47"><defs><linearGradient id="linear-gradient" x1="20.7" y1="-11.35" x2="22.95" y2="53.75" gradientUnits="userSpaceOnUse"><stop offset=".23" stop-color="#ffd940"/><stop offset=".95" stop-color="#e93c83"/></linearGradient></defs><g id="_אייקונים"><path d="m23.21,41.08c-.46.01-.91.03-1.37.03.46,0,.91-.01,1.37-.03Z" fill="#14c096"/><path d="m21.85,41.11h0c-.46,0-.91-.02-1.37-.03.46.02.91.03,1.37.03Z" fill="#14c096"/><path d="m21.85,43.47c-.34,0-.69-.01-1.03-.02h-.41c-3.12-.15-6.26-.74-9.34-1.75-4.06-1.33-7.31-4.36-8.93-8.3-.13-.31-.25-.62-.35-.94-1.18-3.56-1.79-7.17-1.79-10.72s.56-6.92,1.67-10.37C3.15,6.76,6.8,3.13,11.43,1.66c3.46-1.1,6.96-1.66,10.41-1.66s7.2.6,10.78,1.77c4.37,1.44,7.84,4.89,9.28,9.23,1.18,3.56,1.79,7.17,1.79,10.73s-.6,7.16-1.79,10.72c-.11.34-.24.67-.38,1-1.63,3.91-4.88,6.9-8.9,8.23-3.08,1.01-6.21,1.6-9.3,1.74h-.45c-.34.03-.68.04-1.03.04Z" fill="#892e60"/><path d="m21.85,42.29c-.33,0-.66-.01-.99-.02h-.41c-3.01-.15-6.03-.71-9.01-1.69-3.73-1.23-6.72-4.01-8.21-7.63-.12-.28-.23-.57-.32-.86-1.14-3.44-1.73-6.92-1.73-10.35s.54-6.68,1.61-10.01c1.37-4.25,4.73-7.59,9-8.95,3.34-1.06,6.73-1.6,10.06-1.6s6.95.58,10.41,1.72c4.02,1.32,7.21,4.49,8.53,8.49,1.14,3.44,1.73,6.92,1.73,10.35s-.58,6.91-1.73,10.35c-.1.31-.22.62-.35.92-1.5,3.59-4.48,6.35-8.18,7.57-2.98.98-6,1.55-8.99,1.68h-.43c-.33.02-.66.04-.99.04Z" fill="#f8f38d"/><path d="m39.67,11.75c-1.22-3.65-4.11-6.53-7.79-7.74-3.35-1.1-6.71-1.66-10.04-1.66s-6.47.52-9.7,1.55c-3.93,1.25-6.98,4.28-8.23,8.18-1.03,3.22-1.56,6.44-1.56,9.65,0,3.32.56,6.66,1.67,9.98.09.27.19.52.29.78,1.35,3.28,4.08,5.84,7.49,6.96,2.89.95,5.79,1.49,8.67,1.62.46.01.91.03,1.37.03h0c.46,0,.91-.02,1.37-.03,2.88-.13,5.78-.67,8.67-1.62,3.39-1.11,6.11-3.65,7.47-6.9.11-.28.22-.55.32-.84,1.11-3.33,1.67-6.67,1.67-9.98s-.56-6.66-1.67-9.98Z" fill="url(#linear-gradient)"/><path d="m31.89,4.01c-3.35-1.1-6.71-1.66-10.04-1.66s-6.47.52-9.7,1.55c-3.93,1.25-6.98,4.28-8.23,8.18-.3.94-.55,1.88-.77,2.82,3.4-2.98,17.49-13.82,34.81-6.48-1.49-2.04-3.6-3.6-6.06-4.41Z" fill="#fff" opacity=".26"/><path d="m41.34,21.73c0,.05,0,.11,0,.16,0-.11,0-.16,0-.16Z" fill="none"/><path d="m4.31,32.5c1.35,3.28,4.08,5.84,7.49,6.96,2.89.95,5.79,1.49,8.67,1.62.46.01.91.03,1.37.03h0c.46,0,.91-.02,1.37-.03,2.88-.13,5.78-.67,8.67-1.62,3.39-1.11,6.11-3.65,7.47-6.9.11-.28.22-.55.32-.84,1.09-3.27,1.64-6.56,1.66-9.82-.06,1.6-1.04,14.37-18.12,16.21C4.99,40.06,2.35,21.73,2.35,21.73c0,3.32.56,6.66,1.67,9.98.09.27.19.52.29.78Z" fill="#630032" opacity=".37"/><circle cx="5.3" cy="14.1" r=".76" fill="#fff"/><path d="m13,6.49c0,.8-1.43.7-3.53,2.13-3.22,2.2-2.38,4.03-3.59,3.68-.74-.22.2-2.76,2.17-4.36,1.96-1.6,4.94-2.22,4.95-1.44Z" fill="#fff"/><path d="m25.64,20.71l5.07-5.07c1.05-1.05,1.05-2.74,0-3.79s-2.74-1.05-3.79,0l-5.07,5.07-5.07-5.07c-1.05-1.05-2.74-1.05-3.79,0s-1.05,2.74,0,3.79l5.07,5.07-5.07,5.07c-1.05,1.05-1.05,2.75,0,3.79,1.05,1.05,2.74,1.05,3.79,0l5.07-5.07,5.07,5.07c1.05,1.05,2.75,1.05,3.79,0,1.05-1.05,1.05-2.75,0-3.79l-5.07-5.07Z" fill="#cae8f3" opacity=".63"/><path d="m25.64,22.75l5.07-5.07c1.05-1.05,1.05-2.74,0-3.79s-2.74-1.05-3.79,0l-5.07,5.07-5.07-5.07c-1.05-1.05-2.74-1.05-3.79,0s-1.05,2.74,0,3.79l5.07,5.07-5.07,5.07c-1.05,1.05-1.05,2.75,0,3.79,1.05,1.05,2.74,1.05,3.79,0l5.07-5.07,5.07,5.07c1.05,1.05,2.75,1.05,3.79,0,1.05-1.05,1.05-2.75,0-3.79l-5.07-5.07Z" fill="#491735"/><path d="m25.64,21.37l5.07-5.07c1.05-1.05,1.05-2.74,0-3.79s-2.74-1.05-3.79,0l-5.07,5.07-5.07-5.07c-1.05-1.05-2.74-1.05-3.79,0s-1.05,2.74,0,3.79l5.07,5.07-5.07,5.07c-1.05,1.05-1.05,2.75,0,3.79,1.05,1.05,2.74,1.05,3.79,0l5.07-5.07,5.07,5.07c1.05,1.05,2.75,1.05,3.79,0,1.05-1.05,1.05-2.75,0-3.79l-5.07-5.07Z" fill="#892e60"/></g></svg>