<?xml version="1.0" encoding="UTF-8"?><svg id="Layer_2" xmlns="http://www.w3.org/2000/svg" width="55.4" height="55.12" xmlns:xlink="http://www.w3.org/1999/xlink" viewBox="0 0 55.4 55.12"><defs><linearGradient id="New_Gradient_Swatch_copy" x1="26.25" y1="-14.4" x2="29.11" y2="68.16" gradientUnits="userSpaceOnUse"><stop offset=".44" stop-color="#62ab86"/><stop offset=".55" stop-color="#46a07a"/><stop offset=".76" stop-color="#168f67"/><stop offset=".87" stop-color="#048960"/></linearGradient></defs><g id="_כפתורים"><path d="m18.73,46.93s.14-.86.97-1.29" fill="none" stroke="#fff" stroke-linecap="round" stroke-miterlimit="10" stroke-width=".3"/><path d="m29.44,52.09c-.58.02-1.16.04-1.73.04.58,0,1.16-.02,1.73-.04Z" fill="#14c197"/><path d="m27.7,52.13h0c-.58,0-1.16-.03-1.74-.04.58.03,1.16.04,1.74.04Z" fill="#14c197"/><path d="m27.7,55.12c-.43,0-.87-.01-1.3-.03l-.52-.02c-3.96-.18-7.94-.92-11.85-2.21-5.14-1.69-9.27-5.53-11.33-10.52-.16-.39-.31-.78-.44-1.19-1.5-4.51-2.26-9.09-2.26-13.6s.71-8.78,2.12-13.15C3.99,8.57,8.62,3.97,14.49,2.1,18.88.71,23.32,0,27.7,0s9.13.76,13.67,2.25c5.54,1.82,9.94,6.2,11.77,11.71,1.5,4.52,2.26,9.09,2.26,13.6s-.76,9.09-2.26,13.6c-.14.43-.31.86-.48,1.27-2.07,4.95-6.18,8.76-11.29,10.44-3.9,1.29-7.87,2.03-11.8,2.21l-.57.02c-.43.01-.87.03-1.3.03Z" fill="#347850"/><path d="m27.7,53.63c-.42,0-.84-.01-1.26-.03l-.52-.02c-3.81-.17-7.65-.89-11.43-2.13-4.73-1.56-8.52-5.08-10.41-9.67-.15-.36-.29-.72-.41-1.09-1.45-4.36-2.19-8.78-2.19-13.13s.69-8.47,2.04-12.69c1.73-5.38,6-9.62,11.41-11.34,4.24-1.35,8.53-2.03,12.75-2.03s8.82.73,13.2,2.17c5.09,1.68,9.14,5.7,10.82,10.76,1.45,4.36,2.19,8.78,2.19,13.13s-.74,8.77-2.19,13.13c-.13.4-.28.79-.44,1.17-1.9,4.55-5.68,8.05-10.38,9.59-3.78,1.24-7.61,1.96-11.4,2.13l-.55.02c-.42.01-.84.03-1.25.03Z" fill="#9ad5c4"/><path d="m50.31,14.9c-1.54-4.63-5.21-8.28-9.87-9.81-4.24-1.4-8.5-2.1-12.74-2.1s-8.2.66-12.3,1.96c-4.98,1.58-8.85,5.43-10.44,10.38-1.31,4.08-1.97,8.17-1.97,12.23,0,4.2.71,8.44,2.11,12.66.11.34.24.67.37.99,1.71,4.16,5.18,7.4,9.5,8.82,3.66,1.21,7.34,1.89,11,2.06.58.02,1.16.04,1.74.04h0c.58,0,1.16-.03,1.73-.04,3.66-.17,7.33-.85,11-2.06,4.3-1.41,7.75-4.63,9.47-8.75.15-.35.28-.7.4-1.06,1.4-4.22,2.11-8.45,2.11-12.66s-.71-8.44-2.11-12.66Z" fill="url(#New_Gradient_Swatch_copy)"/><path d="m16.48,8.23c0,1.01-1.82.89-4.47,2.7-4.09,2.79-3.02,5.11-4.55,4.66-.94-.28.26-3.5,2.75-5.53,2.49-2.03,6.27-2.81,6.27-1.83Z" fill="#fff"/><circle cx="6.72" cy="17.88" r=".96" fill="#fff"/><path d="m40.43,5.09c-4.24-1.4-8.5-2.1-12.74-2.1s-8.2.66-12.3,1.96c-4.98,1.58-8.85,5.43-10.44,10.38-.38,1.19-.7,2.38-.98,3.58C8.3,15.13,26.17,1.38,48.12,10.68c-1.89-2.59-4.57-4.57-7.69-5.59Z" fill="#fff" opacity=".07"/><path d="m52.42,27.56c0,.07,0,.14,0,.21,0-.14,0-.21,0-.21Z" fill="none"/><path d="m5.47,41.21c1.71,4.16,5.18,7.4,9.5,8.82,3.66,1.21,7.34,1.89,11,2.06.58.02,1.16.04,1.74.04h0c.58,0,1.16-.03,1.73-.04,3.66-.17,7.33-.85,11-2.06,4.3-1.41,7.75-4.63,9.47-8.75.15-.35.28-.7.4-1.06,1.38-4.15,2.08-8.31,2.11-12.45-.07,2.02-1.32,18.23-22.98,20.55C6.33,50.8,2.99,27.56,2.99,27.56c0,4.2.71,8.44,2.11,12.66.11.34.24.67.37.99Z" fill="#00844e"/><path d="m41.33,19.47c-1.15-1.19-3.04-1.23-4.23-.08l-13.72,13.25-4.99-5.17c-1.15-1.19-3.04-1.23-4.23-.08-1.19,1.15-1.23,3.04-.08,4.23l6.93,7.17c.05.06.1.11.15.16,1.15,1.19,3.05,1.22,4.24.07h0s15.87-15.33,15.87-15.33h0c1.19-1.15,1.23-3.04.08-4.23Z" fill="#2d6644" fill-rule="evenodd"/><path d="m41.33,16.17c-1.15-1.19-3.04-1.23-4.23-.08l-13.72,13.25-4.99-5.17c-1.15-1.19-3.04-1.23-4.23-.08-1.19,1.15-1.23,3.04-.08,4.23l6.93,7.17c.05.06.1.11.15.16,1.15,1.19,3.05,1.22,4.24.07h0s15.87-15.33,15.87-15.33h0c1.19-1.15,1.23-3.04.08-4.23Z" fill="#cbe9f4" fill-rule="evenodd" opacity=".63"/><path d="m41.33,17.44c-1.15-1.19-3.04-1.23-4.23-.08l-13.72,13.25-4.99-5.17c-1.15-1.19-3.04-1.23-4.23-.08-1.19,1.15-1.23,3.04-.08,4.23l6.93,7.17c.05.06.1.11.15.16,1.15,1.19,3.05,1.22,4.24.07h0s15.87-15.33,15.87-15.33h0c1.19-1.15,1.23-3.04.08-4.23Z" fill="#fff" fill-rule="evenodd"/></g></svg>