<svg width="115" height="162" viewBox="0 0 115 162" fill="none" xmlns="http://www.w3.org/2000/svg">
<path d="M57.969 134.052C34.7933 134.052 13.9988 119.328 6.25119 97.4269C4.1382 91.4569 3.06494 85.3192 3.06494 79.1479C3.06494 72.9766 4.07113 67.2078 6.04995 61.4055L6.21765 60.936C13.9653 39.0682 34.7597 24.2773 57.969 24.2773C64.0061 24.2773 70.0097 25.3171 75.8456 27.3294C80.0045 28.7716 84.0627 30.7505 87.8527 33.1988C103.516 43.3948 112.84 60.567 112.84 79.1479C112.84 80.8584 112.739 82.636 112.571 84.5142C109.821 112.754 86.3434 134.052 57.9355 134.052H57.969Z" fill="#181C36"/>
<path d="M57.9688 131.201C36.0004 131.201 16.2792 117.248 8.93408 96.4875C6.92171 90.8194 5.91553 84.9835 5.91553 79.1476C5.91553 73.3118 6.85463 67.8448 8.73284 62.3444L8.867 61.9754C16.2457 41.1139 35.9669 27.1279 57.9688 27.1279C63.704 27.1279 69.4057 28.1006 74.9397 30.0123C78.8974 31.3874 82.7209 33.2656 86.3096 35.5799C101.134 45.2392 110.022 61.5059 110.022 79.1476C110.022 80.7911 109.921 82.468 109.754 84.2121C107.171 110.977 84.9009 131.167 57.9688 131.167V131.201Z" fill="#3D4787"/>
<path d="M84.766 37.9951C81.4456 35.8151 77.8234 34.0375 74.0334 32.7295C69.0025 30.9854 63.6362 30.0128 58.0015 30.0128C36.5363 29.9792 18.3579 43.7304 11.6165 62.8814C11.5829 63.0156 11.5159 63.1497 11.4488 63.2839C9.73827 68.2813 8.76562 73.6141 8.76562 79.1816C8.76562 84.7491 9.80535 90.4173 11.6165 95.5489C18.3579 114.633 36.5363 128.35 57.9345 128.35C83.4915 128.35 104.454 108.864 106.869 83.9777C107.036 82.4014 107.103 80.7915 107.103 79.1816C107.103 61.9088 98.1818 46.7489 84.699 37.9951H84.766Z" fill="#2A3069"/>
<path d="M103.377 137.365L98.4598 137.167C69.615 135.993 40.7284 135.877 11.8707 136.803C6.53081 136.77 2.22768 132.394 2.26062 127.03L2.31166 118.72C2.34049 114.026 4.0615 111.24 9.49025 109.667C10.8716 109.27 12.287 109.049 13.7194 108.926C15.9602 108.745 20.2397 108.392 25.2924 107.982C46.9445 106.218 68.7079 106.352 90.3367 108.382L101.985 109.477C103.416 109.609 104.837 109.838 106.214 110.235C111.799 111.831 113.195 114.707 113.166 119.409L113.115 127.72C113.082 133.084 108.726 137.407 103.386 137.374L103.377 137.365Z" fill="#2A3069"/>
<path fill-rule="evenodd" clip-rule="evenodd" d="M103.605 135.116C107.596 135.031 110.834 131.764 110.859 127.706L110.91 119.395C110.924 117.226 110.596 115.887 109.941 114.942C109.304 114.023 108.109 113.123 105.594 112.404L105.589 112.403C104.385 112.056 103.11 111.846 101.777 111.723L101.774 111.723L90.1259 110.628C90.1258 110.628 90.1261 110.628 90.1259 110.628C68.6282 108.61 46.9964 108.478 25.4756 110.231C22.9048 110.439 20.5301 110.634 18.5234 110.798C16.5949 110.956 15.0057 111.085 13.907 111.174C12.5772 111.289 11.316 111.49 10.1157 111.835C7.66153 112.546 6.38883 113.435 5.67919 114.379C4.97187 115.32 4.5804 116.638 4.56753 118.733L4.51649 127.044C4.49122 131.158 7.77841 134.5 11.8443 134.547C40.7406 133.621 69.6662 133.737 98.5505 134.913C98.5502 134.913 98.5509 134.913 98.5505 134.913L103.605 135.116ZM13.7194 108.926C12.287 109.049 10.8716 109.27 9.49025 109.667C4.0615 111.24 2.34049 114.026 2.31166 118.72L2.26062 127.03C2.22768 132.394 6.53081 136.77 11.8707 136.803C40.7284 135.877 69.615 135.993 98.4598 137.167L103.377 137.365L103.386 137.374C108.726 137.407 113.082 133.084 113.115 127.72L113.166 119.409C113.195 114.707 111.799 111.831 106.214 110.235C104.837 109.838 103.416 109.609 101.985 109.477L90.3367 108.382C68.7079 106.352 46.9445 106.218 25.2924 107.982C22.7174 108.191 20.3433 108.385 18.3374 108.55C16.4073 108.707 14.8182 108.837 13.7194 108.926Z" fill="#181C36"/>
<path d="M23.0162 127.52V116.178C23.0867 116.167 23.2042 116.155 23.3687 116.143C23.5332 116.131 23.7388 116.117 23.9855 116.099C24.5378 116.052 25.0489 116.02 25.5189 116.002C25.9888 115.979 26.4206 115.967 26.8142 115.967C27.5016 115.967 28.0568 115.999 28.4797 116.064C28.9027 116.122 29.3022 116.231 29.6782 116.39C30.0189 116.537 30.3039 116.722 30.533 116.945C30.7621 117.162 30.9501 117.447 31.097 117.8C31.1851 118.011 31.2497 118.243 31.2908 118.496C31.3319 118.743 31.3525 119.016 31.3525 119.315V127.52H23.0162ZM24.5055 126.312H29.8544V119.289C29.8544 118.907 29.8045 118.59 29.7046 118.337C29.6048 118.079 29.452 117.87 29.2464 117.712C29.0937 117.582 28.9086 117.482 28.6912 117.412C28.4797 117.336 28.2389 117.283 27.9686 117.253C27.8276 117.23 27.6514 117.215 27.4399 117.209C27.2343 117.198 26.9934 117.192 26.7173 117.192C26.4471 117.192 26.1269 117.2 25.7568 117.218C25.3867 117.236 24.9696 117.262 24.5055 117.297V126.312ZM38.2612 127.52V119.633C38.2612 119.315 38.2994 119.025 38.3758 118.76C38.4522 118.49 38.5462 118.273 38.6578 118.108C38.7812 117.92 38.8987 117.77 39.0103 117.659C39.1219 117.541 39.2541 117.438 39.4068 117.35H33.2031V116.143H41.5394V117.227C41.2456 117.333 40.9754 117.459 40.7286 117.606C40.4819 117.753 40.2851 117.938 40.1382 118.161C39.8797 118.525 39.7505 119.022 39.7505 119.65V127.52H38.2612ZM47.796 127.555C47.6785 127.555 47.5522 127.543 47.4171 127.52C47.282 127.496 47.1322 127.461 46.9677 127.414V126.268C47.1909 126.303 47.4288 126.321 47.6814 126.321C48.1044 126.321 48.4246 126.183 48.642 125.907C48.8593 125.631 48.968 125.205 48.968 124.629V117.324C48.7565 117.336 48.545 117.35 48.3335 117.368C48.1221 117.386 47.9106 117.4 47.6991 117.412V116.178C48.2924 116.131 48.8417 116.093 49.3469 116.064C49.8522 116.028 50.3163 116.005 50.7393 115.993C51.1622 115.976 51.5441 115.967 51.8848 115.967C52.4253 115.967 52.8777 115.981 53.2419 116.011C53.6062 116.04 53.9205 116.09 54.1848 116.161C54.4551 116.231 54.7136 116.322 54.9603 116.434C55.301 116.592 55.5801 116.786 55.7974 117.015C56.0207 117.245 56.1999 117.541 56.335 117.905C56.4114 118.111 56.4672 118.34 56.5024 118.593C56.5377 118.84 56.5553 119.11 56.5553 119.404V127.52H55.0748V119.439C55.0748 118.74 54.9133 118.226 54.5902 117.897C54.2671 117.562 53.7883 117.35 53.1538 117.262C52.8836 117.215 52.5193 117.192 52.0611 117.192C51.8437 117.192 51.5999 117.198 51.3297 117.209C51.0653 117.215 50.7745 117.227 50.4573 117.245V124.629C50.4573 124.952 50.4338 125.249 50.3868 125.519C50.3457 125.789 50.2722 126.036 50.1665 126.259C50.0137 126.6 49.8081 126.87 49.5496 127.07C49.3381 127.235 49.0855 127.358 48.7918 127.44C48.5039 127.517 48.172 127.555 47.796 127.555ZM64.0633 127.52C64.0633 127.478 64.0633 127.44 64.0633 127.405C64.0633 127.364 64.0633 127.323 64.0633 127.282C64.0633 126.982 64.1132 126.591 64.2131 126.11C64.3188 125.622 64.4334 125.126 64.5567 124.62C64.5861 124.491 64.6331 124.306 64.6977 124.065C64.7624 123.818 64.8358 123.551 64.918 123.263C65.0003 122.975 65.0796 122.699 65.156 122.435L66.6893 117.35H59.6131V116.143H68.249V117.2L66.6628 122.453C66.6276 122.547 66.5747 122.717 66.5042 122.964C66.4337 123.21 66.3603 123.466 66.2839 123.73C66.2134 123.989 66.1576 124.194 66.1165 124.347C66.0695 124.5 66.0137 124.711 65.9491 124.982C65.8844 125.246 65.8198 125.528 65.7552 125.828C65.6906 126.127 65.6377 126.409 65.5966 126.674C65.5554 126.938 65.5349 127.141 65.5349 127.282V127.52H64.0633ZM59.6131 131.855V120.787H61.1024V131.855H59.6131ZM70.2494 123.404V116.143H71.7386V122.074L70.6724 123.404H70.2494ZM78.6033 127.52V119.633C78.6033 119.315 78.6415 119.025 78.7179 118.76C78.7943 118.49 78.8883 118.273 78.9999 118.108C79.1232 117.92 79.2407 117.77 79.3524 117.659C79.464 117.541 79.5962 117.438 79.7489 117.35H73.5451V116.143H81.8815V117.227C81.5877 117.333 81.3175 117.459 81.0707 117.606C80.824 117.753 80.6272 117.938 80.4803 118.161C80.2218 118.525 80.0926 119.022 80.0926 119.65V127.52H78.6033ZM83.0006 127.52V126.312H88.5346V119.439C88.5346 118.746 88.376 118.234 88.0588 117.905C87.7415 117.576 87.2745 117.368 86.6576 117.28C86.5108 117.25 86.3433 117.23 86.1553 117.218C85.9674 117.2 85.7529 117.192 85.5121 117.192C85.2359 117.192 84.8923 117.203 84.481 117.227C84.0698 117.245 83.5734 117.274 82.9918 117.315V116.09C83.4265 116.049 83.8554 116.02 84.2784 116.002C84.7072 115.979 85.1331 115.967 85.5561 115.967C86.1436 115.967 86.6341 115.993 87.0277 116.046C87.4272 116.093 87.8062 116.181 88.1645 116.31C88.5288 116.446 88.8313 116.619 89.0722 116.83C89.313 117.042 89.5069 117.312 89.6538 117.641C89.7478 117.8 89.8212 117.97 89.8741 118.152C89.9269 118.334 89.9651 118.528 89.9886 118.734C90.0121 118.939 90.0239 119.163 90.0239 119.404V126.312H91.3281V127.52H83.0006Z" fill="white"/>
<path fill-rule="evenodd" clip-rule="evenodd" d="M33.9141 49.4372C34.7015 48.5347 37.0088 47.9526 41.0347 48.3019C44.4576 47.9526 46.4194 48.5347 47.0888 49.4372C47.0791 52.0471 47.0655 57.4124 47.0888 57.9946C47.1121 58.5767 46.2641 58.9163 45.8372 59.0133C45.8361 60.3146 45.8349 61.7613 45.8335 63.3077C45.8228 75.4817 45.8068 93.8437 45.8274 96.2404C45.8507 98.9415 43.0676 101.189 41.0347 101.189C38.2293 101.338 35.3588 99.7277 35.3862 97.0266C35.4136 94.3255 35.3976 70.5589 35.3862 59.0133C34.8841 58.9163 33.8867 58.5767 33.9141 57.9946C33.9415 57.4124 33.9255 52.0471 33.9141 49.4372Z" fill="black"/>
<path fill-rule="evenodd" clip-rule="evenodd" d="M71.0342 49.4372C71.8216 48.5347 74.1289 47.9526 78.1548 48.3019C81.5778 47.9526 83.5395 48.5347 84.2089 49.4372C84.1992 52.0471 84.1856 57.4124 84.2089 57.9946C84.2322 58.5767 83.3842 58.9163 82.9573 59.0133C82.9562 60.3146 82.955 61.7613 82.9536 63.3077C82.943 75.4817 82.9269 93.8437 82.9475 96.2404C82.9708 98.9415 80.1877 101.189 78.1548 101.189C75.3494 101.338 72.4789 99.7277 72.5063 97.0266C72.5337 94.3255 72.5177 70.5589 72.5063 59.0133C72.0042 58.9163 71.0069 58.5767 71.0342 57.9946C71.0616 57.4124 71.0457 52.0471 71.0342 49.4372Z" fill="black"/>
<path fill-rule="evenodd" clip-rule="evenodd" d="M52.3604 49.4372C53.1478 48.5347 55.455 47.9526 59.481 48.3019C62.9039 47.9526 64.8656 48.5347 65.5351 49.4372C65.5254 52.0471 65.5118 57.4124 65.5351 57.9946C65.5584 58.5767 64.7104 58.9163 64.2835 59.0133C64.2824 60.3146 64.2812 61.7613 64.2798 63.3077C64.2691 75.4817 64.253 93.8437 64.2737 96.2404C64.297 98.9415 61.5139 101.189 59.481 101.189C56.6756 101.338 53.8051 99.7277 53.8325 97.0266C53.8598 94.3255 53.8439 70.5589 53.8325 59.0133C53.3304 58.9163 52.333 58.5767 52.3604 57.9946C52.3878 57.4124 52.3718 52.0471 52.3604 49.4372Z" fill="black"/>
<path d="M39.2727 100.064C36.351 100.064 33.9824 97.8903 33.9824 95.2083V55.9824H44.5596V95.2083C44.5596 97.8903 42.191 100.064 39.2693 100.064H39.2727Z" fill="#BCF3EC"/>
<path d="M35.0142 55.7705H43.5281V95.2238C43.5281 97.3793 41.6211 99.1299 39.2728 99.1299C36.9246 99.1299 35.0176 97.3793 35.0176 95.2238V55.7705H35.0142Z" fill="url(#paint0_linear_1350_14000)"/>
<path d="M39.2729 57.1382C41.623 57.1382 43.5282 56.526 43.5282 55.7708C43.5282 55.0155 41.623 54.4033 39.2729 54.4033C36.9227 54.4033 35.0176 55.0155 35.0176 55.7708C35.0176 56.526 36.9227 57.1382 39.2729 57.1382Z" fill="#F96B6B"/>
<path opacity="0.4" d="M42.5373 95.8405C42.2896 95.8405 42.0894 95.6567 42.0894 95.4293V58.8604C42.0894 58.633 42.2896 58.4492 42.5373 58.4492C42.785 58.4492 42.9852 58.633 42.9852 58.8604V95.4262C42.9852 95.6536 42.785 95.8373 42.5373 95.8373V95.8405Z" fill="white"/>
<path opacity="0.4" d="M41.2578 84.2254C41.1119 84.2254 40.9932 84.1164 40.9932 83.9824V62.2498C40.9932 62.1159 41.1119 62.0068 41.2578 62.0068C41.4038 62.0068 41.5225 62.1159 41.5225 62.2498V83.9824C41.5225 84.1164 41.4038 84.2254 41.2578 84.2254Z" fill="white"/>
<path d="M45.771 48.1855V57.2156C45.771 57.8355 42.8595 58.3401 39.2693 58.3401C35.6791 58.3401 32.771 57.8355 32.771 57.2156V48.1855H45.771Z" fill="url(#paint1_linear_1350_14000)"/>
<path d="M39.2727 49.3072C42.8635 49.3072 45.7744 48.8051 45.7744 48.1858C45.7744 47.5665 42.8635 47.0645 39.2727 47.0645C35.6819 47.0645 32.771 47.5665 32.771 48.1858C32.771 48.8051 35.6819 49.3072 39.2727 49.3072Z" fill="#236358"/>
<g opacity="0.2">
<path d="M39.2761 57.7828C39.1437 57.7828 39.0352 57.6831 39.0352 57.5616V49.9301C39.0352 49.8087 39.1437 49.709 39.2761 49.709C39.4084 49.709 39.517 49.8087 39.517 49.9301V57.5616C39.517 57.6831 39.4084 57.7828 39.2761 57.7828Z" fill="#5BCCBD"/>
<path d="M38.2683 57.7545C38.1359 57.7545 38.0273 57.6548 38.0273 57.5333V49.9018C38.0273 49.7803 38.1359 49.6807 38.2683 49.6807C38.4006 49.6807 38.5092 49.7803 38.5092 49.9018V57.5333C38.5092 57.6548 38.4006 57.7545 38.2683 57.7545Z" fill="#5BCCBD"/>
<path d="M37.2605 57.693C37.1281 57.693 37.0195 57.5933 37.0195 57.4718V49.8403C37.0195 49.7188 37.1281 49.6191 37.2605 49.6191C37.3928 49.6191 37.5014 49.7188 37.5014 49.8403V57.4718C37.5014 57.5933 37.3928 57.693 37.2605 57.693Z" fill="#5BCCBD"/>
<path d="M36.2561 57.6305C36.1237 57.6305 36.0151 57.5308 36.0151 57.4093V49.7778C36.0151 49.6563 36.1237 49.5566 36.2561 49.5566C36.3884 49.5566 36.497 49.6563 36.497 49.7778V57.4093C36.497 57.5308 36.3884 57.6305 36.2561 57.6305Z" fill="#5BCCBD"/>
<path d="M35.2483 57.5123C35.1159 57.5123 35.0073 57.4126 35.0073 57.2911V49.6596C35.0073 49.5382 35.1159 49.4385 35.2483 49.4385C35.3806 49.4385 35.4892 49.5382 35.4892 49.6596V57.2911C35.4892 57.4126 35.3806 57.5123 35.2483 57.5123Z" fill="#5BCCBD"/>
<path d="M34.2404 57.3316C34.1081 57.3316 33.9995 57.232 33.9995 57.1105V49.479C33.9995 49.3575 34.1081 49.2578 34.2404 49.2578C34.3728 49.2578 34.4814 49.3575 34.4814 49.479V57.1105C34.4814 57.232 34.3728 57.3316 34.2404 57.3316Z" fill="#5BCCBD"/>
<path d="M33.2766 57.107C33.1442 57.107 33.0356 57.0073 33.0356 56.8859V49.2544C33.0356 49.1329 33.1442 49.0332 33.2766 49.0332C33.4089 49.0332 33.5175 49.1329 33.5175 49.2544V56.8859C33.5175 57.0073 33.4089 57.107 33.2766 57.107Z" fill="#5BCCBD"/>
<path d="M40.2805 57.7545C40.4128 57.7545 40.5214 57.6548 40.5214 57.5333V49.9018C40.5214 49.7803 40.4128 49.6807 40.2805 49.6807C40.1481 49.6807 40.0396 49.7803 40.0396 49.9018V57.5333C40.0396 57.6548 40.1481 57.7545 40.2805 57.7545Z" fill="#5BCCBD"/>
<path d="M41.2883 57.693C41.4206 57.693 41.5292 57.5933 41.5292 57.4718V49.8403C41.5292 49.7188 41.4206 49.6191 41.2883 49.6191C41.156 49.6191 41.0474 49.7188 41.0474 49.8403V57.4718C41.0474 57.5933 41.156 57.693 41.2883 57.693Z" fill="#5BCCBD"/>
<path d="M42.2961 57.6305C42.4284 57.6305 42.537 57.5308 42.537 57.4093V49.7778C42.537 49.6563 42.4284 49.5566 42.2961 49.5566C42.1638 49.5566 42.0552 49.6563 42.0552 49.7778V57.4093C42.0552 57.5308 42.1638 57.6305 42.2961 57.6305Z" fill="#5BCCBD"/>
<path d="M43.3005 57.5123C43.4328 57.5123 43.5414 57.4126 43.5414 57.2911V49.6596C43.5414 49.5382 43.4328 49.4385 43.3005 49.4385C43.1682 49.4385 43.0596 49.5382 43.0596 49.6596V57.2911C43.0596 57.4126 43.1682 57.5123 43.3005 57.5123Z" fill="#5BCCBD"/>
<path d="M44.3083 57.3316C44.4407 57.3316 44.5492 57.232 44.5492 57.1105V49.479C44.5492 49.3575 44.4407 49.2578 44.3083 49.2578C44.176 49.2578 44.0674 49.3575 44.0674 49.479V57.1105C44.0674 57.232 44.176 57.3316 44.3083 57.3316Z" fill="#5BCCBD"/>
<path d="M45.2722 57.107C45.4045 57.107 45.5131 57.0073 45.5131 56.8859V49.2544C45.5131 49.1329 45.4045 49.0332 45.2722 49.0332C45.1398 49.0332 45.0312 49.1329 45.0312 49.2544V56.8859C45.0312 57.0073 45.1398 57.107 45.2722 57.107Z" fill="#5BCCBD"/>
</g>
<path d="M42.9818 92.0372C40.0533 92.682 38.4856 92.682 35.5571 92.0372V70.9961C38.4856 71.6409 40.0533 71.6409 42.9818 70.9961V92.0372Z" fill="white"/>
<path d="M38.0139 92.3951C37.0231 92.3235 36.5276 92.2519 35.5571 92.0369V70.1797C36.5276 70.3946 37.0231 70.4663 38.0139 70.5379V92.3951Z" fill="#5BCCBD"/>
<path d="M42.9818 70.9996C40.0533 71.6444 38.4856 71.6444 35.5571 70.9996V68.4111C38.4856 69.0559 40.0533 69.0559 42.9818 68.4111V70.9996Z" fill="#DA5555"/>
<path d="M42.432 91.3837C40.905 91.6671 40.1211 91.7232 38.5703 91.6609V91.4491C40.1211 91.5114 40.905 91.4553 42.432 91.1719V91.3837Z" fill="#297166"/>
<path d="M42.432 90.9784C40.905 91.2619 40.1211 91.3179 38.5703 91.2556V91.0438C40.1211 91.1061 40.905 91.0501 42.432 90.7666V90.9784Z" fill="#297166"/>
<path d="M42.432 89.7636C40.905 90.047 40.1211 90.1031 38.5703 90.0408V89.829C40.1211 89.8913 40.905 89.8352 42.432 89.5518V89.7636Z" fill="#297166"/>
<path d="M42.432 88.1464C40.905 88.4298 40.1211 88.4859 38.5703 88.4236V88.2118C40.1211 88.2741 40.905 88.218 42.432 87.9346V88.1464Z" fill="#297166"/>
<path d="M42.432 87.4433C40.905 87.7267 40.1211 87.7828 38.5703 87.7205V87.5087C40.1211 87.571 40.905 87.5149 42.432 87.2314V87.4433Z" fill="#297166"/>
<path d="M42.432 86.5272C40.905 86.8107 40.1211 86.8668 38.5703 86.8045V86.5927C40.1211 86.655 40.905 86.5989 42.432 86.3154V86.5272Z" fill="#297166"/>
<path d="M42.432 85.7362C40.905 86.0197 40.1211 86.0758 38.5703 86.0135V85.8016C40.1211 85.8639 40.905 85.8079 42.432 85.5244V85.7362Z" fill="#297166"/>
<path d="M42.432 84.1757C40.905 84.4591 40.1211 84.5152 38.5703 84.4529V84.2411C40.1211 84.3034 40.905 84.2473 42.432 83.9639V84.1757Z" fill="#297166"/>
<path d="M42.432 83.7548C40.905 84.0382 40.1211 84.0943 38.5703 84.032V83.8202C40.1211 83.8825 40.905 83.8264 42.432 83.543V83.7548Z" fill="#297166"/>
<path d="M42.432 82.1942C40.905 82.4777 40.1211 82.5338 38.5703 82.4715V82.2596C40.1211 82.3219 40.905 82.2659 42.432 81.9824V82.1942Z" fill="#297166"/>
<path d="M42.432 81.7586C40.905 82.0421 40.1211 82.0981 38.5703 82.0358V81.6776C40.1211 81.7399 40.905 81.6838 42.432 81.4004V81.7586Z" fill="#297166"/>
<path d="M42.432 82.8113C40.905 83.0948 40.1211 83.1509 38.5703 83.0886V82.7304C40.1211 82.7926 40.905 82.7366 42.432 82.4531V82.8113Z" fill="#297166"/>
<path d="M42.432 85.2215C40.905 85.505 40.1211 85.561 38.5703 85.4987V85.1405C40.1211 85.2028 40.905 85.1467 42.432 84.8633V85.2215Z" fill="#297166"/>
<path d="M42.432 89.3026C40.905 89.586 40.1211 89.6421 38.5703 89.5798V89.2216C40.1211 89.2839 40.905 89.2278 42.432 88.9443V89.3026Z" fill="#297166"/>
<path d="M42.432 88.7703C40.905 89.0538 40.1211 89.1098 38.5703 89.0475V88.6893C40.1211 88.7516 40.905 88.6956 42.432 88.4121V88.7703Z" fill="#297166"/>
<path d="M42.432 87.0691C40.905 87.3526 40.1211 87.4087 38.5703 87.3464V86.9882C40.1211 87.0505 40.905 86.9944 42.432 86.7109V87.0691Z" fill="#297166"/>
<path d="M42.432 81.2563C40.905 81.5398 40.1211 81.5958 38.5703 81.5335V81.4276C40.1211 81.4899 40.905 81.4338 42.432 81.1504V81.2563Z" fill="#297166"/>
<path d="M42.432 83.0668C40.905 83.3503 40.1211 83.4064 38.5703 83.3441V83.2382C40.1211 83.3005 40.905 83.2444 42.432 82.9609V83.0668Z" fill="#297166"/>
<path d="M42.432 83.3745C40.905 83.6579 40.1211 83.714 38.5703 83.6517V83.5458C40.1211 83.6081 40.905 83.552 42.432 83.2686V83.3745Z" fill="#297166"/>
<path d="M42.432 84.5581C40.905 84.8415 40.1211 84.8976 38.5703 84.8353V84.7294C40.1211 84.7917 40.905 84.7356 42.432 84.4521V84.5581Z" fill="#297166"/>
<path d="M42.432 86.0786C40.905 86.362 40.1211 86.4181 38.5703 86.3558V86.2499C40.1211 86.3122 40.905 86.2561 42.432 85.9727V86.0786Z" fill="#297166"/>
<path d="M42.432 87.7387C40.905 88.0222 40.1211 88.0782 38.5703 88.0159V87.91C40.1211 87.9723 40.905 87.9163 42.432 87.6328V87.7387Z" fill="#297166"/>
<path d="M42.432 90.0561C40.905 90.3396 40.1211 90.3956 38.5703 90.3333V90.2274C40.1211 90.2897 40.905 90.2337 42.432 89.9502V90.0561Z" fill="#297166"/>
<path d="M42.432 90.3178C40.905 90.6013 40.1211 90.6573 38.5703 90.595V90.4891C40.1211 90.5514 40.905 90.4954 42.432 90.2119V90.3178Z" fill="#297166"/>
<path d="M42.432 90.5795C40.905 90.863 40.1211 90.9191 38.5703 90.8568V90.7509C40.1211 90.8132 40.905 90.7571 42.432 90.4736V90.5795Z" fill="#297166"/>
<path d="M42.432 80.8612C40.905 81.1447 40.1211 81.2008 38.5703 81.1385V80.9266C40.1211 80.9889 40.905 80.9329 42.432 80.6494V80.8612Z" fill="#297166"/>
<path d="M41.8754 79.9672C40.7861 80.1323 40.2364 80.1727 39.1369 80.1634C38.8926 80.1634 38.6924 79.9734 38.6924 79.7491V72.7344C38.6924 72.5101 38.8926 72.3357 39.1369 72.3388C40.2364 72.3481 40.7861 72.3076 41.8754 72.1425C42.1197 72.1052 42.3131 72.2516 42.3131 72.4758V79.4906C42.3131 79.7149 42.1163 79.9298 41.8754 79.9672Z" stroke="#297166" stroke-width="0.41" stroke-miterlimit="10"/>
<path d="M42.2587 75.9893C40.8674 76.2353 40.1548 76.2852 38.7466 76.2416" stroke="#297166" stroke-width="0.41" stroke-miterlimit="10"/>
<path d="M39.4082 72.6787V73.4356" stroke="#297166" stroke-width="0.41" stroke-miterlimit="10"/>
<path d="M38.9946 73.0548C39.3272 73.0608 39.4935 73.0578 39.8226 73.0488" stroke="#297166" stroke-width="0.41" stroke-miterlimit="10"/>
<path d="M38.9946 76.7931C39.3272 76.7991 39.4935 76.7961 39.8226 76.7871" stroke="#297166" stroke-width="0.41" stroke-miterlimit="10"/>
<path d="M36.5988 84.758C36.799 84.7892 36.9008 84.8047 37.101 84.8296C37.1145 84.8296 37.2299 84.867 37.2876 84.8857V85.7485C36.989 85.7143 36.8397 85.6925 36.5411 85.6457C36.4461 85.6302 36.3816 85.6146 36.3409 85.599C36.3409 85.652 36.3375 85.7143 36.3273 85.7361C36.2526 85.7112 36.2153 85.6987 36.144 85.6707C36.1542 85.6239 36.1542 85.5149 36.1542 85.409V85.0228C36.1542 84.7424 36.2391 84.7082 36.5954 84.7611L36.5988 84.758ZM36.3443 85.0601V85.4682C36.6463 85.5212 36.7956 85.543 37.0976 85.5803V84.976C36.9177 84.9542 36.8261 84.9418 36.6463 84.9137C36.4393 84.8826 36.3443 84.8857 36.3443 85.0633V85.0601Z" fill="white"/>
<path d="M36.3341 84.5776C36.2595 84.5527 36.2221 84.5402 36.1509 84.5122C36.1577 84.4748 36.1577 84.3782 36.1577 84.2474V83.6836C36.2323 83.7116 36.2696 83.7241 36.3477 83.7521V83.8238C36.3477 83.8798 36.3918 83.911 36.5411 83.9328C36.7888 83.9733 37.0874 84.0044 37.2911 84.02V84.1695C37.1553 84.1571 36.8058 84.1228 36.5784 84.0854C36.4359 84.0636 36.3884 84.0387 36.3477 84.0075V84.3626C36.3477 84.4748 36.3443 84.5464 36.3341 84.5745V84.5776Z" fill="white"/>
<path d="M37.1078 83.2873C37.101 83.2562 37.0976 83.2312 37.0976 83.1285V83.1004C36.894 83.0755 36.4766 83.0288 36.3443 83.0194V83.0257C36.3443 83.0599 36.3443 83.1409 36.3307 83.1689C36.2594 83.144 36.2221 83.1285 36.1475 83.1035C36.161 83.0475 36.1542 82.9198 36.1542 82.8045V82.4899C36.1542 82.2096 36.2255 82.1722 36.5818 82.2282C36.8635 82.2719 37.0026 82.2905 37.2876 82.3248V82.4743C37.0297 82.4432 36.9008 82.4276 36.6429 82.3871C36.4359 82.356 36.3443 82.3591 36.3443 82.5366V82.873C36.4766 82.8855 36.9551 82.9353 37.101 82.9571C37.1757 82.9758 37.213 82.9883 37.2876 83.007V83.1596C37.2876 83.2375 37.2876 83.306 37.2944 83.3496C37.2198 83.3278 37.1824 83.3153 37.1078 83.2904V83.2873Z" fill="white"/>
<path d="M37.0807 81.7333C37.006 81.4935 36.8397 81.2817 36.5275 81.2318C36.3952 81.21 36.3477 81.2474 36.3477 81.3907V81.6523C36.3477 81.7832 36.3477 81.9046 36.3341 81.9327C36.2629 81.9078 36.2255 81.8953 36.1509 81.8673C36.1611 81.8143 36.1577 81.7115 36.1577 81.5869V81.319C36.1577 81.073 36.2493 81.0356 36.48 81.073C36.928 81.1477 37.2164 81.453 37.3046 81.7863C37.213 81.7645 37.1689 81.752 37.0807 81.7302V81.7333ZM36.6599 81.9514V81.8018C37.0705 81.8641 37.2775 81.8891 37.6915 81.9264V82.076C37.2775 82.0386 37.0705 82.0137 36.6599 81.9514Z" fill="white"/>
<path d="M36.7921 80.8612C36.6597 80.7647 36.5579 80.7055 36.4731 80.693C36.4052 80.6806 36.3815 80.7148 36.3543 80.7989C36.3408 80.8425 36.3272 80.8799 36.3136 80.9079C36.239 80.883 36.205 80.8706 36.1304 80.8425C36.1406 80.8176 36.1541 80.7802 36.1643 80.7366C36.2084 80.5622 36.2695 80.5123 36.4222 80.5373C36.5545 80.5591 36.6971 80.6401 36.8498 80.7553C36.826 80.7989 36.8124 80.8207 36.7887 80.8643L36.7921 80.8612Z" fill="white"/>
<path d="M36.3341 80.3881C36.2595 80.3632 36.2221 80.3507 36.1509 80.3227C36.1577 80.2853 36.1577 80.1888 36.1577 80.0579V79.4941C36.2323 79.5222 36.2696 79.5346 36.3477 79.5627V79.6343C36.3477 79.6904 36.3918 79.7215 36.5411 79.7433C36.7888 79.7838 37.0874 79.8119 37.2911 79.8306V79.9801C37.1553 79.9676 36.8058 79.9333 36.5784 79.896C36.4359 79.8742 36.3884 79.8492 36.3477 79.8181V80.1732C36.3477 80.2853 36.3443 80.357 36.3341 80.385V80.3881Z" fill="white"/>
<path d="M37.1078 79.503C37.0976 79.4438 37.0976 79.3068 37.0976 79.1978V78.9081C36.9551 78.8894 36.7549 78.8614 36.6531 78.8489C36.4325 78.8209 36.3443 78.8271 36.3443 79.0078V79.176C36.3443 79.2881 36.3409 79.3597 36.3307 79.3878C36.256 79.3629 36.2187 79.3473 36.1475 79.3193C36.1542 79.2819 36.1542 79.1978 36.1542 79.0763V78.9237C36.1542 78.6495 36.29 78.6464 36.575 78.69C36.7108 78.7118 36.782 78.7212 36.9178 78.7399C36.9619 78.7461 37.0603 78.7617 37.0942 78.771V78.6309C37.1689 78.6527 37.2096 78.6651 37.2842 78.6869V79.3099C37.2842 79.3909 37.2842 79.5124 37.291 79.556C37.2164 79.5342 37.179 79.5248 37.1044 79.4999L37.1078 79.503Z" fill="white"/>
<path d="M76.4451 100.018C73.6474 100.018 71.3794 97.8479 71.3794 95.1708V56.0156H81.5075V95.1708C81.5075 97.8479 79.2395 100.018 76.4418 100.018H76.4451Z" fill="#BCF3EC"/>
<path d="M72.3672 67.0293H80.5197V95.4854C80.5197 97.4723 78.8333 99.086 76.757 99.086H76.1331C74.0568 99.086 72.3704 97.4723 72.3704 95.4854V67.0293H72.3672Z" fill="#F96B6B"/>
<path d="M76.4452 68.0396C78.6956 68.0396 80.5199 67.5872 80.5199 67.0291C80.5199 66.471 78.6956 66.0186 76.4452 66.0186C74.1949 66.0186 72.3706 66.471 72.3706 67.0291C72.3706 67.5872 74.1949 68.0396 76.4452 68.0396Z" fill="#F26161"/>
<path opacity="0.4" d="M79.5705 95.8023C79.3333 95.8023 79.1416 95.6189 79.1416 95.3919V58.8889C79.1416 58.662 79.3333 58.4785 79.5705 58.4785C79.8077 58.4785 79.9994 58.662 79.9994 58.8889V95.3888C79.9994 95.6157 79.8077 95.7992 79.5705 95.7992V95.8023Z" fill="white"/>
<path opacity="0.4" d="M78.3457 84.2078C78.206 84.2078 78.0923 84.099 78.0923 83.9653V62.2718C78.0923 62.1381 78.206 62.0293 78.3457 62.0293C78.4855 62.0293 78.5992 62.1381 78.5992 62.2718V83.9653C78.5992 84.099 78.4855 84.2078 78.3457 84.2078Z" fill="white"/>
<path d="M82.6673 48.2334V57.2472C82.6673 57.8659 79.8794 58.3696 76.4417 58.3696C73.0039 58.3696 70.2192 57.8659 70.2192 57.2472V48.2334H82.6673Z" fill="url(#paint2_linear_1350_14000)"/>
<path d="M76.4449 49.3529C79.8833 49.3529 82.6706 48.8518 82.6706 48.2336C82.6706 47.6154 79.8833 47.1143 76.4449 47.1143C73.0066 47.1143 70.2192 47.6154 70.2192 48.2336C70.2192 48.8518 73.0066 49.3529 76.4449 49.3529Z" fill="#236358"/>
<g opacity="0.2">
<path d="M76.4485 57.8141C76.3218 57.8141 76.2178 57.7146 76.2178 57.5934V49.9756C76.2178 49.8544 76.3218 49.7549 76.4485 49.7549C76.5752 49.7549 76.6792 49.8544 76.6792 49.9756V57.5934C76.6792 57.7146 76.5752 57.8141 76.4485 57.8141Z" fill="#5BCCBD"/>
<path d="M75.4831 57.7858C75.3564 57.7858 75.2524 57.6863 75.2524 57.5651V49.9473C75.2524 49.8261 75.3564 49.7266 75.4831 49.7266C75.6099 49.7266 75.7138 49.8261 75.7138 49.9473V57.5651C75.7138 57.6863 75.6099 57.7858 75.4831 57.7858Z" fill="#5BCCBD"/>
<path d="M74.5183 57.7243C74.3916 57.7243 74.2876 57.6248 74.2876 57.5035V49.8858C74.2876 49.7645 74.3916 49.665 74.5183 49.665C74.645 49.665 74.749 49.7645 74.749 49.8858V57.5035C74.749 57.6248 74.645 57.7243 74.5183 57.7243Z" fill="#5BCCBD"/>
<path d="M73.5564 57.6618C73.4297 57.6618 73.3257 57.5623 73.3257 57.441V49.8233C73.3257 49.702 73.4297 49.6025 73.5564 49.6025C73.6831 49.6025 73.7871 49.702 73.7871 49.8233V57.441C73.7871 57.5623 73.6831 57.6618 73.5564 57.6618Z" fill="#5BCCBD"/>
<path d="M72.5911 57.5436C72.4643 57.5436 72.3604 57.4441 72.3604 57.3229V49.7051C72.3604 49.5839 72.4643 49.4844 72.5911 49.4844C72.7178 49.4844 72.8218 49.5839 72.8218 49.7051V57.3229C72.8218 57.4441 72.7178 57.5436 72.5911 57.5436Z" fill="#5BCCBD"/>
<path d="M71.6262 57.363C71.4995 57.363 71.3955 57.2635 71.3955 57.1422V49.5245C71.3955 49.4032 71.4995 49.3037 71.6262 49.3037C71.7529 49.3037 71.8569 49.4032 71.8569 49.5245V57.1422C71.8569 57.2635 71.7529 57.363 71.6262 57.363Z" fill="#5BCCBD"/>
<path d="M70.7034 57.1393C70.5766 57.1393 70.4727 57.0398 70.4727 56.9186V49.3008C70.4727 49.1796 70.5766 49.0801 70.7034 49.0801C70.8301 49.0801 70.9341 49.1796 70.9341 49.3008V56.9186C70.9341 57.0398 70.8301 57.1393 70.7034 57.1393Z" fill="#5BCCBD"/>
<path d="M77.4099 57.7858C77.5366 57.7858 77.6406 57.6863 77.6406 57.5651V49.9473C77.6406 49.8261 77.5366 49.7266 77.4099 49.7266C77.2832 49.7266 77.1792 49.8261 77.1792 49.9473V57.5651C77.1792 57.6863 77.2832 57.7858 77.4099 57.7858Z" fill="#5BCCBD"/>
<path d="M78.3752 57.7243C78.502 57.7243 78.6059 57.6248 78.6059 57.5035V49.8858C78.6059 49.7645 78.502 49.665 78.3752 49.665C78.2485 49.665 78.1445 49.7645 78.1445 49.8858V57.5035C78.1445 57.6248 78.2485 57.7243 78.3752 57.7243Z" fill="#5BCCBD"/>
<path d="M79.3401 57.6618C79.4668 57.6618 79.5708 57.5623 79.5708 57.441V49.8233C79.5708 49.702 79.4668 49.6025 79.3401 49.6025C79.2134 49.6025 79.1094 49.702 79.1094 49.8233V57.441C79.1094 57.5623 79.2134 57.6618 79.3401 57.6618Z" fill="#5BCCBD"/>
<path d="M80.302 57.5436C80.4287 57.5436 80.5327 57.4441 80.5327 57.3229V49.7051C80.5327 49.5839 80.4287 49.4844 80.302 49.4844C80.1753 49.4844 80.0713 49.5839 80.0713 49.7051V57.3229C80.0713 57.4441 80.1753 57.5436 80.302 57.5436Z" fill="#5BCCBD"/>
<path d="M81.2668 57.363C81.3936 57.363 81.4975 57.2635 81.4975 57.1422V49.5245C81.4975 49.4032 81.3936 49.3037 81.2668 49.3037C81.1401 49.3037 81.0361 49.4032 81.0361 49.5245V57.1422C81.0361 57.2635 81.1401 57.363 81.2668 57.363Z" fill="#5BCCBD"/>
<path d="M82.1897 57.1393C82.3164 57.1393 82.4204 57.0398 82.4204 56.9186V49.3008C82.4204 49.1796 82.3164 49.0801 82.1897 49.0801C82.063 49.0801 81.959 49.1796 81.959 49.3008V56.9186C81.959 57.0398 82.063 57.1393 82.1897 57.1393Z" fill="#5BCCBD"/>
</g>
<path d="M79.9962 92.0061C77.192 92.6497 75.6909 92.6497 72.8867 92.0061V71.0029C75.6909 71.6466 77.192 71.6466 79.9962 71.0029V92.0061Z" fill="white"/>
<path d="M75.2392 92.3639C74.2904 92.2923 73.816 92.2208 72.8867 92.0063V70.1885C73.8193 70.403 74.2904 70.4745 75.2392 70.546V92.3639Z" fill="#5BCCBD"/>
<path d="M79.9962 71.0057C77.192 71.6493 75.6909 71.6493 72.8867 71.0057V68.4219C75.6909 69.0655 77.192 69.0655 79.9962 68.4219V71.0057Z" fill="#DA5555"/>
<path d="M79.4702 91.353C78.008 91.636 77.2574 91.6919 75.7725 91.6298V91.4183C77.2574 91.4805 78.008 91.4245 79.4702 91.1416V91.353Z" fill="#297166"/>
<path d="M79.4702 90.9487C78.008 91.2317 77.2574 91.2876 75.7725 91.2255V91.014C77.2574 91.0762 78.008 91.0202 79.4702 90.7373V90.9487Z" fill="#297166"/>
<path d="M79.4702 89.7358C78.008 90.0188 77.2574 90.0748 75.7725 90.0126V89.8011C77.2574 89.8633 78.008 89.8074 79.4702 89.5244V89.7358Z" fill="#297166"/>
<path d="M79.4702 88.1226C78.008 88.4055 77.2574 88.4615 75.7725 88.3993V88.1879C77.2574 88.25 78.008 88.1941 79.4702 87.9111V88.1226Z" fill="#297166"/>
<path d="M79.4702 87.4204C78.008 87.7034 77.2574 87.7593 75.7725 87.6971V87.4857C77.2574 87.5479 78.008 87.4919 79.4702 87.209V87.4204Z" fill="#297166"/>
<path d="M79.4702 86.5054C78.008 86.7883 77.2574 86.8443 75.7725 86.7821V86.5707C77.2574 86.6329 78.008 86.5769 79.4702 86.2939V86.5054Z" fill="#297166"/>
<path d="M79.4702 85.7163C78.008 85.9993 77.2574 86.0552 75.7725 85.993V85.7816C77.2574 85.8438 78.008 85.7878 79.4702 85.5049V85.7163Z" fill="#297166"/>
<path d="M79.4702 84.1587C78.008 84.4416 77.2574 84.4976 75.7725 84.4354V84.224C77.2574 84.2862 78.008 84.2302 79.4702 83.9473V84.1587Z" fill="#297166"/>
<path d="M79.4702 83.7378C78.008 84.0207 77.2574 84.0767 75.7725 84.0145V83.8031C77.2574 83.8653 78.008 83.8093 79.4702 83.5264V83.7378Z" fill="#297166"/>
<path d="M79.4702 82.1812C78.008 82.4641 77.2574 82.5201 75.7725 82.4579V82.2465C77.2574 82.3086 78.008 82.2527 79.4702 81.9697V82.1812Z" fill="#297166"/>
<path d="M79.4702 81.7453C78.008 82.0282 77.2574 82.0842 75.7725 82.022V81.6644C77.2574 81.7266 78.008 81.6706 79.4702 81.3877V81.7453Z" fill="#297166"/>
<path d="M79.4702 82.796C78.008 83.079 77.2574 83.135 75.7725 83.0728V82.7152C77.2574 82.7774 78.008 82.7214 79.4702 82.4385V82.796Z" fill="#297166"/>
<path d="M79.4702 85.2033C78.008 85.4862 77.2574 85.5422 75.7725 85.48V85.1224C77.2574 85.1846 78.008 85.1286 79.4702 84.8457V85.2033Z" fill="#297166"/>
<path d="M79.4702 89.2765C78.008 89.5595 77.2574 89.6154 75.7725 89.5532V89.1957C77.2574 89.2579 78.008 89.2019 79.4702 88.9189C79.4702 89.062 79.4702 89.1335 79.4702 89.2765Z" fill="#297166"/>
<path d="M79.4702 88.7443C78.008 89.0272 77.2574 89.0832 75.7725 89.021V88.6634C77.2574 88.7256 78.008 88.6697 79.4702 88.3867V88.7443Z" fill="#297166"/>
<path d="M79.4702 87.047C78.008 87.33 77.2574 87.3859 75.7725 87.3237V86.9662C77.2574 87.0284 78.008 86.9724 79.4702 86.6895V87.047Z" fill="#297166"/>
<path d="M79.4702 81.2444C78.008 81.5273 77.2574 81.5833 75.7725 81.5211V81.4154C77.2574 81.4776 78.008 81.4216 79.4702 81.1387V81.2444Z" fill="#297166"/>
<path d="M79.4702 83.052C78.008 83.335 77.2574 83.3909 75.7725 83.3287V83.223C77.2574 83.2852 78.008 83.2292 79.4702 82.9463V83.052Z" fill="#297166"/>
<path d="M79.4702 83.3586C78.008 83.6416 77.2574 83.6976 75.7725 83.6354V83.5297C77.2574 83.5918 78.008 83.5359 79.4702 83.2529V83.3586Z" fill="#297166"/>
<path d="M79.4702 84.5413C78.008 84.8242 77.2574 84.8802 75.7725 84.818V84.7123C77.2574 84.7745 78.008 84.7185 79.4702 84.4355V84.5413Z" fill="#297166"/>
<path d="M79.4702 86.0588C78.008 86.3418 77.2574 86.3978 75.7725 86.3356V86.2299C77.2574 86.292 78.008 86.2361 79.4702 85.9531V86.0588Z" fill="#297166"/>
<path d="M79.4702 87.7151C78.008 87.998 77.2574 88.054 75.7725 87.9918V87.8861C77.2574 87.9483 78.008 87.8923 79.4702 87.6094V87.7151Z" fill="#297166"/>
<path d="M79.4702 90.0286C78.008 90.3115 77.2574 90.3675 75.7725 90.3053V90.1996C77.2574 90.2618 78.008 90.2058 79.4702 89.9229V90.0286Z" fill="#297166"/>
<path d="M79.4702 90.2903C78.008 90.5732 77.2574 90.6292 75.7725 90.567V90.4613C77.2574 90.5235 78.008 90.4675 79.4702 90.1846V90.2903Z" fill="#297166"/>
<path d="M79.4702 90.551C78.008 90.834 77.2574 90.8899 75.7725 90.8278V90.722C77.2574 90.7842 78.008 90.7283 79.4702 90.4453V90.551Z" fill="#297166"/>
<path d="M79.4702 80.8501C78.008 81.133 77.2574 81.189 75.7725 81.1268V80.9154C77.2574 80.9776 78.008 80.9216 79.4702 80.6387V80.8501Z" fill="#297166"/>
<path d="M78.937 79.9579C77.894 80.1227 77.3676 80.1631 76.3148 80.1538C76.0809 80.1538 75.8892 79.9641 75.8892 79.7403V72.7382C75.8892 72.5143 76.0809 72.3402 76.3148 72.3433C77.3676 72.3526 77.894 72.3122 78.937 72.1474C79.171 72.1101 79.3562 72.2562 79.3562 72.4801V79.4822C79.3562 79.7061 79.1677 79.9206 78.937 79.9579Z" stroke="#297166" stroke-width="0.41" stroke-miterlimit="10"/>
<path d="M79.3044 75.9863C77.9722 76.232 77.2899 76.2817 75.9414 76.2382" stroke="#297166" stroke-width="0.41" stroke-miterlimit="10"/>
<path d="M76.5752 72.6816V73.4372" stroke="#297166" stroke-width="0.41" stroke-miterlimit="10"/>
<path d="M76.1782 73.0577C76.4967 73.0637 76.6559 73.0607 76.9711 73.0518" stroke="#297166" stroke-width="0.41" stroke-miterlimit="10"/>
<path d="M76.1782 76.7892C76.4967 76.7952 76.6559 76.7922 76.9711 76.7832" stroke="#297166" stroke-width="0.41" stroke-miterlimit="10"/>
<path d="M73.8846 84.7391C74.0763 84.7702 74.1738 84.7857 74.3655 84.8106C74.3785 84.8106 74.489 84.8479 74.5442 84.8666V85.7278C74.2583 85.6936 74.1153 85.6719 73.8294 85.6252C73.7384 85.6097 73.6767 85.5941 73.6377 85.5786C73.6377 85.6314 73.6344 85.6936 73.6247 85.7154C73.5532 85.6905 73.5175 85.6781 73.4492 85.6501C73.459 85.6035 73.459 85.4946 73.459 85.3889V85.0034C73.459 84.7235 73.5402 84.6893 73.8814 84.7453L73.8846 84.7391ZM73.6409 85.0407V85.448C73.9301 85.5009 74.0731 85.5226 74.3623 85.5599V84.9567C74.1901 84.935 74.1023 84.9225 73.9301 84.8945C73.7319 84.8635 73.6409 84.8666 73.6409 85.0438V85.0407Z" fill="white"/>
<path d="M73.631 84.5594C73.5595 84.5345 73.5238 84.522 73.4556 84.4941C73.4621 84.4568 73.4621 84.3604 73.4621 84.2298V83.667C73.5335 83.695 73.5693 83.7074 73.644 83.7354V83.8069C73.644 83.8629 73.6863 83.894 73.8292 83.9157C74.0697 83.9562 74.3524 83.9872 74.5473 84.0028V84.152C74.4174 84.1396 74.0827 84.1054 73.865 84.0681C73.7285 84.0463 73.683 84.0215 73.644 83.9904V84.3448C73.644 84.4567 73.6408 84.5283 73.631 84.5562V84.5594Z" fill="white"/>
<path d="M74.3717 83.2717C74.3652 83.2406 74.362 83.2157 74.362 83.1131V83.0851C74.167 83.0603 73.7673 83.0136 73.6406 83.0043V83.0105C73.6406 83.0447 73.6406 83.1256 73.6276 83.1535C73.5561 83.1287 73.5236 83.1131 73.4521 83.0882C73.4651 83.0323 73.4586 82.9048 73.4586 82.7898V82.4757C73.4586 82.1959 73.5269 82.1586 73.8681 82.2145C74.1378 82.2581 74.271 82.2767 74.5439 82.3109V82.4602C74.297 82.4291 74.1735 82.4135 73.9265 82.3731C73.7283 82.342 73.6406 82.3451 73.6406 82.5224V82.8582C73.7673 82.8706 74.2255 82.9203 74.3652 82.9421C74.4367 82.9608 74.4724 82.9732 74.5439 82.9919V83.1442C74.5439 83.2219 74.5439 83.2903 74.5504 83.3339C74.4789 83.3121 74.4432 83.2997 74.3717 83.2748V83.2717Z" fill="white"/>
<path d="M74.3459 81.7204C74.2744 81.481 74.1152 81.2695 73.8162 81.2198C73.6895 81.198 73.644 81.2322 73.644 81.3784V81.6395C73.644 81.7701 73.644 81.8914 73.631 81.9194C73.5595 81.8945 73.5271 81.8821 73.4556 81.8541C73.4653 81.8012 73.4621 81.6986 73.4621 81.5743V81.3069C73.4621 81.0612 73.5498 81.0239 73.7707 81.0612C74.1997 81.1358 74.4758 81.4406 74.5603 81.7732C74.4726 81.7515 74.4304 81.739 74.3459 81.7173V81.7204ZM73.943 81.938V81.7888C74.3361 81.851 74.5343 81.8759 74.9308 81.9132V82.0624C74.5343 82.0251 74.3361 82.0002 73.943 81.938Z" fill="white"/>
<path d="M74.0696 80.8499C73.9429 80.7535 73.8454 80.6944 73.7642 80.682C73.6992 80.6695 73.6765 80.7037 73.6505 80.7877C73.6375 80.8312 73.6245 80.8685 73.6115 80.8965C73.5433 80.8716 73.5075 80.8592 73.436 80.8312C73.4458 80.8063 73.4588 80.769 73.4685 80.7255C73.5108 80.5514 73.5693 80.5016 73.7155 80.5265C73.8422 80.5483 73.9787 80.6291 74.1249 80.7442C74.1021 80.7877 74.0891 80.8095 74.0664 80.853L74.0696 80.8499Z" fill="white"/>
<path d="M73.631 80.3767C73.5595 80.3519 73.5238 80.3394 73.4556 80.3114C73.4621 80.2741 73.4621 80.1777 73.4621 80.0472V79.4844C73.5335 79.5124 73.5693 79.5248 73.644 79.5528V79.6243C73.644 79.6803 73.6863 79.7114 73.8292 79.7331C74.0697 79.7735 74.3524 79.8015 74.5473 79.8202V79.9694C74.4174 79.957 74.0827 79.9228 73.865 79.8855C73.7285 79.8637 73.683 79.8388 73.644 79.8077V80.1622C73.644 80.2741 73.6408 80.3456 73.631 80.3736V80.3767Z" fill="white"/>
<path d="M74.3717 79.4936C74.362 79.4346 74.362 79.2978 74.362 79.1889V78.8998C74.2255 78.8811 74.0338 78.8531 73.9363 78.8407C73.7251 78.8127 73.6406 78.8189 73.6406 78.9993V79.1672C73.6406 79.2791 73.6374 79.3506 73.6276 79.3786C73.5561 79.3537 73.5204 79.3382 73.4521 79.3102C73.4586 79.2729 73.4586 79.1889 73.4586 79.0677V78.9153C73.4586 78.6417 73.5886 78.6386 73.8616 78.6821C73.9915 78.7039 74.0598 78.7132 74.1897 78.7319C74.232 78.7381 74.3262 78.7536 74.3587 78.763V78.623C74.4302 78.6448 74.4692 78.6572 74.5407 78.679V79.3009C74.5407 79.3817 74.5407 79.503 74.5472 79.5496C74.4757 79.5278 74.4399 79.5185 74.3685 79.4936H74.3717Z" fill="white"/>
<path d="M57.7712 100.016C54.9736 100.016 52.7056 97.8459 52.7056 95.1688V56.0137H62.8337V95.1688C62.8337 97.8459 60.5656 100.016 57.768 100.016H57.7712Z" fill="#BCF3EC"/>
<path d="M53.6934 62.8818H61.8459V95.2556C61.8459 97.3669 60.0522 99.0832 57.846 99.0832H57.6933C55.487 99.0832 53.6934 97.3669 53.6934 95.2556V62.8818Z" fill="#F96B6B"/>
<path d="M57.7714 64.0234C60.0218 64.0234 61.846 63.5125 61.846 62.8823C61.846 62.2521 60.0218 61.7412 57.7714 61.7412C55.5211 61.7412 53.6968 62.2521 53.6968 62.8823C53.6968 63.5125 55.5211 64.0234 57.7714 64.0234Z" fill="#F26161"/>
<path opacity="0.4" d="M60.8967 95.8003C60.6595 95.8003 60.4678 95.6169 60.4678 95.3899V58.887C60.4678 58.66 60.6595 58.4766 60.8967 58.4766C61.1339 58.4766 61.3256 58.66 61.3256 58.887V95.3868C61.3256 95.6138 61.1339 95.7972 60.8967 95.7972V95.8003Z" fill="white"/>
<path opacity="0.4" d="M59.6719 84.2058C59.5322 84.2058 59.4185 84.097 59.4185 83.9633V62.2699C59.4185 62.1362 59.5322 62.0273 59.6719 62.0273C59.8116 62.0273 59.9253 62.1362 59.9253 62.2699V83.9633C59.9253 84.097 59.8116 84.2058 59.6719 84.2058Z" fill="white"/>
<path d="M63.9935 48.2314V57.2452C63.9935 57.864 61.2056 58.3677 57.7678 58.3677C54.3301 58.3677 51.5454 57.864 51.5454 57.2452V48.2314H63.9935Z" fill="url(#paint3_linear_1350_14000)"/>
<path d="M57.7711 49.351C61.2094 49.351 63.9967 48.8498 63.9967 48.2316C63.9967 47.6135 61.2094 47.1123 57.7711 47.1123C54.3327 47.1123 51.5454 47.6135 51.5454 48.2316C51.5454 48.8498 54.3327 49.351 57.7711 49.351Z" fill="#236358"/>
<g opacity="0.2">
<path d="M57.7746 57.8122C57.6479 57.8122 57.5439 57.7127 57.5439 57.5914V49.9737C57.5439 49.8524 57.6479 49.7529 57.7746 49.7529C57.9014 49.7529 58.0053 49.8524 58.0053 49.9737V57.5914C58.0053 57.7127 57.9014 57.8122 57.7746 57.8122Z" fill="#5BCCBD"/>
<path d="M56.8093 57.7839C56.6826 57.7839 56.5786 57.6844 56.5786 57.5631V49.9454C56.5786 49.8241 56.6826 49.7246 56.8093 49.7246C56.936 49.7246 57.04 49.8241 57.04 49.9454V57.5631C57.04 57.6844 56.936 57.7839 56.8093 57.7839Z" fill="#5BCCBD"/>
<path d="M55.8445 57.7223C55.7177 57.7223 55.6138 57.6228 55.6138 57.5016V49.8838C55.6138 49.7626 55.7177 49.6631 55.8445 49.6631C55.9712 49.6631 56.0752 49.7626 56.0752 49.8838V57.5016C56.0752 57.6228 55.9712 57.7223 55.8445 57.7223Z" fill="#5BCCBD"/>
<path d="M54.8826 57.6598C54.7558 57.6598 54.6519 57.5603 54.6519 57.4391V49.8213C54.6519 49.7001 54.7558 49.6006 54.8826 49.6006C55.0093 49.6006 55.1133 49.7001 55.1133 49.8213V57.4391C55.1133 57.5603 55.0093 57.6598 54.8826 57.6598Z" fill="#5BCCBD"/>
<path d="M53.9172 57.5417C53.7905 57.5417 53.6865 57.4422 53.6865 57.3209V49.7032C53.6865 49.5819 53.7905 49.4824 53.9172 49.4824C54.0439 49.4824 54.1479 49.5819 54.1479 49.7032V57.3209C54.1479 57.4422 54.0439 57.5417 53.9172 57.5417Z" fill="#5BCCBD"/>
<path d="M52.9524 57.361C52.8257 57.361 52.7217 57.2615 52.7217 57.1402V49.5225C52.7217 49.4013 52.8257 49.3018 52.9524 49.3018C53.0791 49.3018 53.1831 49.4013 53.1831 49.5225V57.1402C53.1831 57.2615 53.0791 57.361 52.9524 57.361Z" fill="#5BCCBD"/>
<path d="M52.0295 57.1374C51.9028 57.1374 51.7988 57.0379 51.7988 56.9166V49.2989C51.7988 49.1776 51.9028 49.0781 52.0295 49.0781C52.1563 49.0781 52.2602 49.1776 52.2602 49.2989V56.9166C52.2602 57.0379 52.1563 57.1374 52.0295 57.1374Z" fill="#5BCCBD"/>
<path d="M58.7361 57.7839C58.8628 57.7839 58.9668 57.6844 58.9668 57.5631V49.9454C58.9668 49.8241 58.8628 49.7246 58.7361 49.7246C58.6093 49.7246 58.5054 49.8241 58.5054 49.9454V57.5631C58.5054 57.6844 58.6093 57.7839 58.7361 57.7839Z" fill="#5BCCBD"/>
<path d="M59.7014 57.7223C59.8281 57.7223 59.9321 57.6228 59.9321 57.5016V49.8838C59.9321 49.7626 59.8281 49.6631 59.7014 49.6631C59.5747 49.6631 59.4707 49.7626 59.4707 49.8838V57.5016C59.4707 57.6228 59.5747 57.7223 59.7014 57.7223Z" fill="#5BCCBD"/>
<path d="M60.6662 57.6598C60.793 57.6598 60.8969 57.5603 60.8969 57.4391V49.8213C60.8969 49.7001 60.793 49.6006 60.6662 49.6006C60.5395 49.6006 60.4355 49.7001 60.4355 49.8213V57.4391C60.4355 57.5603 60.5395 57.6598 60.6662 57.6598Z" fill="#5BCCBD"/>
<path d="M61.6282 57.5417C61.7549 57.5417 61.8589 57.4422 61.8589 57.3209V49.7032C61.8589 49.5819 61.7549 49.4824 61.6282 49.4824C61.5014 49.4824 61.3975 49.5819 61.3975 49.7032V57.3209C61.3975 57.4422 61.5014 57.5417 61.6282 57.5417Z" fill="#5BCCBD"/>
<path d="M62.593 57.361C62.7197 57.361 62.8237 57.2615 62.8237 57.1402V49.5225C62.8237 49.4013 62.7197 49.3018 62.593 49.3018C62.4663 49.3018 62.3623 49.4013 62.3623 49.5225V57.1402C62.3623 57.2615 62.4663 57.361 62.593 57.361Z" fill="#5BCCBD"/>
<path d="M63.5159 57.1374C63.6426 57.1374 63.7466 57.0379 63.7466 56.9166V49.2989C63.7466 49.1776 63.6426 49.0781 63.5159 49.0781C63.3891 49.0781 63.2852 49.1776 63.2852 49.2989V56.9166C63.2852 57.0379 63.3891 57.1374 63.5159 57.1374Z" fill="#5BCCBD"/>
</g>
<path d="M61.3224 92.0042C58.5182 92.6478 57.017 92.6478 54.2129 92.0042V71.001C57.017 71.6446 58.5182 71.6446 61.3224 71.001V92.0042Z" fill="white"/>
<path d="M56.5654 92.3619C55.6166 92.2904 55.1422 92.2189 54.2129 92.0043V70.1865C55.1454 70.4011 55.6166 70.4726 56.5654 70.5441V92.3619Z" fill="#5BCCBD"/>
<path d="M61.3224 71.0037C58.5182 71.6474 57.017 71.6474 54.2129 71.0037V68.4199C57.017 69.0635 58.5182 69.0635 61.3224 68.4199V71.0037Z" fill="#DA5555"/>
<path d="M60.7963 91.3511C59.3342 91.634 58.5836 91.69 57.0986 91.6278V91.4164C58.5836 91.4786 59.3342 91.4226 60.7963 91.1396V91.3511Z" fill="#297166"/>
<path d="M60.7963 90.9468C59.3342 91.2297 58.5836 91.2857 57.0986 91.2235V91.0121C58.5836 91.0743 59.3342 91.0183 60.7963 90.7354V90.9468Z" fill="#297166"/>
<path d="M60.7963 89.7339C59.3342 90.0168 58.5836 90.0728 57.0986 90.0106V89.7992C58.5836 89.8614 59.3342 89.8054 60.7963 89.5225V89.7339Z" fill="#297166"/>
<path d="M60.7963 88.1206C59.3342 88.4036 58.5836 88.4595 57.0986 88.3973V88.1859C58.5836 88.2481 59.3342 88.1921 60.7963 87.9092V88.1206Z" fill="#297166"/>
<path d="M60.7963 87.4185C59.3342 87.7014 58.5836 87.7574 57.0986 87.6952V87.4838C58.5836 87.5459 59.3342 87.49 60.7963 87.207V87.4185Z" fill="#297166"/>
<path d="M60.7963 86.5034C59.3342 86.7864 58.5836 86.8423 57.0986 86.7801V86.5687C58.5836 86.6309 59.3342 86.5749 60.7963 86.292V86.5034Z" fill="#297166"/>
<path d="M60.7963 85.7144C59.3342 85.9973 58.5836 86.0533 57.0986 85.9911V85.7797C58.5836 85.8418 59.3342 85.7859 60.7963 85.5029V85.7144Z" fill="#297166"/>
<path d="M60.7963 84.1567C59.3342 84.4397 58.5836 84.4957 57.0986 84.4335V84.222C58.5836 84.2842 59.3342 84.2283 60.7963 83.9453V84.1567Z" fill="#297166"/>
<path d="M60.7963 83.7358C59.3342 84.0188 58.5836 84.0748 57.0986 84.0126V83.8011C58.5836 83.8633 59.3342 83.8074 60.7963 83.5244V83.7358Z" fill="#297166"/>
<path d="M60.7963 82.1792C59.3342 82.4621 58.5836 82.5181 57.0986 82.4559V82.2445C58.5836 82.3067 59.3342 82.2507 60.7963 81.9678V82.1792Z" fill="#297166"/>
<path d="M60.7963 81.7433C59.3342 82.0263 58.5836 82.0822 57.0986 82.02V81.6625C58.5836 81.7247 59.3342 81.6687 60.7963 81.3857V81.7433Z" fill="#297166"/>
<path d="M60.7963 82.7941C59.3342 83.077 58.5836 83.133 57.0986 83.0708V82.7132C58.5836 82.7754 59.3342 82.7195 60.7963 82.4365V82.7941Z" fill="#297166"/>
<path d="M60.7963 85.2013C59.3342 85.4843 58.5836 85.5402 57.0986 85.478V85.1205C58.5836 85.1827 59.3342 85.1267 60.7963 84.8438V85.2013Z" fill="#297166"/>
<path d="M60.7963 89.2746C59.3342 89.5575 58.5836 89.6135 57.0986 89.5513V89.1937C58.5836 89.2559 59.3342 89.1999 60.7963 88.917V89.2746Z" fill="#297166"/>
<path d="M60.7963 88.7423C59.3342 89.0253 58.5836 89.0812 57.0986 89.0191V88.6615C58.5836 88.7237 59.3342 88.6677 60.7963 88.3848V88.7423Z" fill="#297166"/>
<path d="M60.7963 87.0451C59.3342 87.328 58.5836 87.384 57.0986 87.3218V86.9642C58.5836 87.0264 59.3342 86.9704 60.7963 86.6875V87.0451Z" fill="#297166"/>
<path d="M60.7963 81.2424C59.3342 81.5254 58.5836 81.5813 57.0986 81.5192V81.4134C58.5836 81.4756 59.3342 81.4197 60.7963 81.1367V81.2424Z" fill="#297166"/>
<path d="M60.7963 83.0501C59.3342 83.333 58.5836 83.389 57.0986 83.3268V83.2211C58.5836 83.2832 59.3342 83.2273 60.7963 82.9443V83.0501Z" fill="#297166"/>
<path d="M60.7963 83.3567C59.3342 83.6396 58.5836 83.6956 57.0986 83.6334V83.5277C58.5836 83.5899 59.3342 83.5339 60.7963 83.251V83.3567Z" fill="#297166"/>
<path d="M60.7963 84.5393C59.3342 84.8223 58.5836 84.8782 57.0986 84.816V84.7103C58.5836 84.7725 59.3342 84.7165 60.7963 84.4336V84.5393Z" fill="#297166"/>
<path d="M60.7963 86.0569C59.3342 86.3398 58.5836 86.3958 57.0986 86.3336V86.2279C58.5836 86.2901 59.3342 86.2341 60.7963 85.9512V86.0569Z" fill="#297166"/>
<path d="M60.7963 87.7131C59.3342 87.9961 58.5836 88.052 57.0986 87.9899V87.8841C58.5836 87.9463 59.3342 87.8904 60.7963 87.6074V87.7131Z" fill="#297166"/>
<path d="M60.7963 90.0266C59.3342 90.3096 58.5836 90.3655 57.0986 90.3033V90.1976C58.5836 90.2598 59.3342 90.2038 60.7963 89.9209V90.0266Z" fill="#297166"/>
<path d="M60.7963 90.2883C59.3342 90.5713 58.5836 90.6272 57.0986 90.5651V90.4593C58.5836 90.5215 59.3342 90.4656 60.7963 90.1826V90.2883Z" fill="#297166"/>
<path d="M60.7963 90.5491C59.3342 90.832 58.5836 90.888 57.0986 90.8258V90.7201C58.5836 90.7823 59.3342 90.7263 60.7963 90.4434V90.5491Z" fill="#297166"/>
<path d="M60.7963 80.8481C59.3342 81.1311 58.5836 81.1871 57.0986 81.1249V80.9134C58.5836 80.9756 59.3342 80.9197 60.7963 80.6367V80.8481Z" fill="#297166"/>
<path d="M60.2632 79.956C59.2202 80.1208 58.6938 80.1612 57.641 80.1518C57.407 80.1518 57.2153 79.9622 57.2153 79.7383V72.7362C57.2153 72.5124 57.407 72.3382 57.641 72.3413C58.6938 72.3507 59.2202 72.3102 60.2632 72.1455C60.4971 72.1081 60.6823 72.2543 60.6823 72.4781V79.4802C60.6823 79.7041 60.4939 79.9187 60.2632 79.956Z" stroke="#297166" stroke-width="0.41" stroke-miterlimit="10"/>
<path d="M60.6306 75.9844C59.2984 76.23 58.616 76.2798 57.2676 76.2362" stroke="#297166" stroke-width="0.41" stroke-miterlimit="10"/>
<path d="M57.9014 72.6797V73.4352" stroke="#297166" stroke-width="0.41" stroke-miterlimit="10"/>
<path d="M57.5044 73.0558C57.8228 73.0618 57.982 73.0588 58.2972 73.0498" stroke="#297166" stroke-width="0.41" stroke-miterlimit="10"/>
<path d="M57.5044 76.7872C57.8228 76.7932 57.982 76.7902 58.2972 76.7812" stroke="#297166" stroke-width="0.41" stroke-miterlimit="10"/>
<path d="M55.2108 84.7371C55.4025 84.7682 55.5 84.7838 55.6917 84.8086C55.7047 84.8086 55.8152 84.846 55.8704 84.8646V85.7259C55.5845 85.6917 55.4415 85.6699 55.1556 85.6233C55.0646 85.6077 55.0028 85.5922 54.9639 85.5766C54.9639 85.6295 54.9606 85.6917 54.9509 85.7134C54.8794 85.6886 54.8436 85.6761 54.7754 85.6482C54.7851 85.6015 54.7851 85.4927 54.7851 85.387V85.0014C54.7851 84.7216 54.8664 84.6874 55.2075 84.7434L55.2108 84.7371ZM54.9671 85.0387V85.446C55.2563 85.4989 55.3993 85.5207 55.6884 85.558V84.9548C55.5162 84.933 55.4285 84.9206 55.2563 84.8926C55.0581 84.8615 54.9671 84.8646 54.9671 85.0418V85.0387Z" fill="white"/>
<path d="M54.9572 84.5574C54.8857 84.5325 54.85 84.5201 54.7817 84.4921C54.7882 84.4548 54.7882 84.3584 54.7882 84.2278V83.665C54.8597 83.693 54.8955 83.7055 54.9702 83.7334V83.805C54.9702 83.8609 55.0124 83.892 55.1554 83.9138C55.3959 83.9542 55.6785 83.9853 55.8735 84.0008V84.1501C55.7435 84.1377 55.4089 84.1034 55.1912 84.0661C55.0547 84.0444 55.0092 84.0195 54.9702 83.9884V84.3429C54.9702 84.4548 54.9669 84.5263 54.9572 84.5543V84.5574Z" fill="white"/>
<path d="M55.6979 83.2697C55.6914 83.2386 55.6881 83.2138 55.6881 83.1112V83.0832C55.4932 83.0583 55.0935 83.0117 54.9668 83.0023V83.0086C54.9668 83.0428 54.9668 83.1236 54.9538 83.1516C54.8823 83.1267 54.8498 83.1112 54.7783 83.0863C54.7913 83.0303 54.7848 82.9028 54.7848 82.7878V82.4738C54.7848 82.1939 54.8531 82.1566 55.1942 82.2126C55.4639 82.2561 55.5971 82.2748 55.8701 82.309V82.4582C55.6231 82.4271 55.4997 82.4116 55.2527 82.3712C55.0545 82.3401 54.9668 82.3432 54.9668 82.5204V82.8562C55.0935 82.8686 55.5517 82.9184 55.6914 82.9402C55.7629 82.9588 55.7986 82.9712 55.8701 82.9899V83.1423C55.8701 83.22 55.8701 83.2884 55.8766 83.3319C55.8051 83.3102 55.7694 83.2977 55.6979 83.2728V83.2697Z" fill="white"/>
<path d="M55.672 81.7184C55.6006 81.479 55.4413 81.2676 55.1424 81.2178C55.0157 81.1961 54.9702 81.2334 54.9702 81.3764V81.6376C54.9702 81.7682 54.9702 81.8894 54.9572 81.9174C54.8857 81.8926 54.8532 81.8801 54.7817 81.8521C54.7915 81.7993 54.7882 81.6967 54.7882 81.5723V81.3049C54.7882 81.0593 54.876 81.022 55.0969 81.0593C55.5258 81.1339 55.802 81.4386 55.8865 81.7713C55.7988 81.7495 55.7565 81.7371 55.672 81.7153V81.7184ZM55.2691 81.9361V81.7868C55.6623 81.849 55.8605 81.8739 56.2569 81.9112V82.0605C55.8605 82.0231 55.6623 81.9983 55.2691 81.9361Z" fill="white"/>
<path d="M55.3958 80.8479C55.2691 80.7515 55.1716 80.6925 55.0904 80.68C55.0254 80.6676 55.0027 80.7018 54.9767 80.7857C54.9637 80.8293 54.9507 80.8666 54.9377 80.8946C54.8694 80.8697 54.8337 80.8573 54.7622 80.8293C54.772 80.8044 54.785 80.7671 54.7947 80.7236C54.8369 80.5494 54.8954 80.4997 55.0416 80.5246C55.1684 80.5463 55.3048 80.6272 55.4511 80.7422C55.4283 80.7857 55.4153 80.8075 55.3926 80.851L55.3958 80.8479Z" fill="white"/>
<path d="M54.9572 80.3748C54.8857 80.3499 54.85 80.3375 54.7817 80.3095C54.7882 80.2722 54.7882 80.1758 54.7882 80.0452V79.4824C54.8597 79.5104 54.8955 79.5228 54.9702 79.5508V79.6223C54.9702 79.6783 55.0124 79.7094 55.1554 79.7312C55.3959 79.7716 55.6785 79.7996 55.8735 79.8182V79.9675C55.7435 79.955 55.4089 79.9208 55.1912 79.8835C55.0547 79.8618 55.0092 79.8369 54.9702 79.8058V80.1602C54.9702 80.2722 54.9669 80.3437 54.9572 80.3717V80.3748Z" fill="white"/>
<path d="M55.6979 79.4917C55.6881 79.4326 55.6881 79.2958 55.6881 79.187V78.8978C55.5517 78.8792 55.3599 78.8512 55.2625 78.8387C55.0513 78.8108 54.9668 78.817 54.9668 78.9973V79.1652C54.9668 79.2772 54.9635 79.3487 54.9538 79.3766C54.8823 79.3518 54.8466 79.3362 54.7783 79.3082C54.7848 79.2709 54.7848 79.187 54.7848 79.0657V78.9134C54.7848 78.6398 54.9148 78.6366 55.1877 78.6802C55.3177 78.7019 55.3859 78.7113 55.5159 78.7299C55.5582 78.7361 55.6524 78.7517 55.6849 78.761V78.6211C55.7564 78.6429 55.7954 78.6553 55.8668 78.6771V79.2989C55.8668 79.3798 55.8668 79.501 55.8733 79.5446C55.8019 79.5228 55.7661 79.5135 55.6946 79.4886L55.6979 79.4917Z" fill="white"/>
<defs>
<linearGradient id="paint0_linear_1350_14000" x1="44.0591" y1="98.2633" x2="39.2711" y2="99.1299" gradientUnits="userSpaceOnUse">
<stop stop-color="#F96B6B"/>
<stop offset="1" stop-color="#DA5555"/>
</linearGradient>
<linearGradient id="paint1_linear_1350_14000" x1="32.771" y1="53.2628" x2="45.771" y2="53.2628" gradientUnits="userSpaceOnUse">
<stop stop-color="#266F64"/>
<stop offset="0.58" stop-color="#256B60"/>
<stop offset="1" stop-color="#236358"/>
</linearGradient>
<linearGradient id="paint2_linear_1350_14000" x1="76.6496" y1="45.9854" x2="76.2182" y2="61.4552" gradientUnits="userSpaceOnUse">
<stop stop-color="#266F64"/>
<stop offset="0.58" stop-color="#256B60"/>
<stop offset="1" stop-color="#236358"/>
</linearGradient>
<linearGradient id="paint3_linear_1350_14000" x1="51.5454" y1="53.2996" x2="63.9935" y2="53.2996" gradientUnits="userSpaceOnUse">
<stop stop-color="#266F64"/>
<stop offset="0.58" stop-color="#256B60"/>
<stop offset="1" stop-color="#236358"/>
</linearGradient>
</defs>
</svg>
