<?xml version="1.0" encoding="UTF-8"?><svg id="Layer_2" xmlns="http://www.w3.org/2000/svg" width="346.85" height="341.05" viewBox="0 0 346.85 341.05"><g id="Layer_2-2"><path d="m276.55,321.3c-3.77,5.32-6.36,11.36-10.59,16.46-2.23,2.7-4.8,3.67-7.6,3.17-15.71-2.78-31.53-5.19-46.99-9.03-16.86-4.19-33.68-8.72-50.15-14.42-14.75-5.11-29.34-10.57-43.44-17.23-20.25-9.58-39.87-20.25-57.49-34.31-15.83-12.63-30-26.69-41.03-43.86C6.15,201.66-1.51,179.76.25,155.27c1.38-19.21,7.83-36.9,19.4-52.24,13.42-17.8,30.34-30.95,52.58-36.48,11.87-2.95,23.82-5.92,35.95-4.46,10.57,1.27,21.08,3.94,31.1,7.88,6.88,2.71,6.84,2.91,9.31-3.77,9.22-24.95,25.33-43.83,49.21-55.84,2.15-1.08,4.54-1.67,6.82-2.49,2.32-.06,4.71.22,6.95-.23,8.3-1.67,16.62-1.09,24.64.78,26.08,6.06,46.39,20.78,61.44,42.77,17.9,26.16,24.35,55.81,25.7,86.85.71,16.39-.59,32.71-2.84,48.99-2.91,21.06-8.26,41.52-14.89,61.61-7.69,23.29-16.54,46.17-28.66,67.62-.92,1.62-1.77,3.23-.42,5.04Z" fill="#ff5440"/><path d="m276.55,321.3c-1.35-1.8-.5-3.41.42-5.04,12.12-21.45,20.97-44.33,28.66-67.62,6.63-20.09,11.98-40.55,14.89-61.61,2.25-16.28,3.54-32.6,2.84-48.99-1.34-31.04-7.8-60.7-25.7-86.85-15.05-21.99-35.36-36.71-61.44-42.77-8.03-1.87-16.34-2.45-24.64-.78-2.24.45-4.63.17-6.95.23C221.84-.22,239.59-1.57,258.38,1.54c12.89,2.13,24.78,5.9,35.97,12.36,7.63,4.4,14.09,10.18,20.42,16.3,10.41,10.07,16.79,22.53,22.86,35.32,4.85,10.21,5.85,21.32,7.63,32.21,2.28,13.94,1.65,28.07.97,42.1-.53,11.04-2.58,21.95-4.76,32.83-3.22,16.08-8.31,31.58-13.77,46.97-5.95,16.81-13.34,33.01-21.11,49.07-6.77,14-14.41,27.49-22.26,40.88-2.35,4.01-4.42,8.33-7.78,11.72Z" fill="#e0230d"/></g></svg>