<svg width="116" height="163" viewBox="0 0 116 163" fill="none" xmlns="http://www.w3.org/2000/svg">
<path d="M57.8072 134.986C34.6072 134.986 13.8072 120.286 6.10723 98.3855C4.00723 92.3855 2.90723 86.2855 2.90723 80.0855C2.90723 73.8855 3.90723 68.1855 5.90723 62.3855L6.00723 61.8855C13.7072 39.9855 34.5072 25.1855 57.8072 25.1855C63.8072 25.1855 69.8072 26.1855 75.7072 28.2855C79.9072 29.6855 83.9072 31.6855 87.7072 34.1855C103.407 44.3855 112.707 61.5855 112.707 80.0855C112.707 81.7855 112.607 83.5855 112.407 85.4855C109.607 113.686 86.1072 134.986 57.8072 134.986Z" fill="#181C36"/>
<path d="M57.8071 132.086C35.8071 132.086 16.1071 118.086 8.80713 97.3859C6.80713 91.6859 5.80713 85.8859 5.80713 80.0859C5.80713 74.2859 6.70713 68.7859 8.60713 63.2859L8.70713 62.8859C16.0071 41.9859 35.8071 28.0859 57.8071 28.0859C63.5071 28.0859 69.2071 29.0859 74.8071 30.9859C78.8071 32.3859 82.6071 34.2859 86.2071 36.5859C101.007 46.2859 109.907 62.4859 109.907 80.1859C109.907 81.7859 109.807 83.4859 109.607 85.2859C107.007 111.886 84.7071 132.086 57.8071 132.086Z" fill="#3D4787"/>
<path d="M84.6074 38.8857C81.3074 36.6857 77.7074 34.8857 73.9074 33.5857C68.9074 31.8857 63.5074 30.8857 57.9074 30.8857C36.4074 30.8857 18.3074 44.5857 11.5074 63.7857C11.5074 63.8857 11.4074 64.0857 11.3074 64.1857C9.60742 69.1857 8.60742 74.4857 8.60742 80.0857C8.60742 85.6857 9.60742 91.2857 11.5074 96.4857C18.2074 115.586 36.4074 129.286 57.8074 129.286C83.4074 129.286 104.307 109.786 106.707 84.8857C106.907 83.2857 106.907 81.6857 106.907 80.0857C106.907 62.7857 98.0074 47.6857 84.6074 38.8857Z" fill="#2A3069"/>
<path d="M103.207 138.286L98.3074 138.086C69.5074 136.886 40.6074 136.786 11.7074 137.686C6.40742 137.686 2.10742 133.286 2.10742 127.886L2.20742 119.586C2.20742 114.886 3.90742 112.086 9.40742 110.486C10.8074 110.086 12.2074 109.886 13.6074 109.786C15.8074 109.586 20.1074 109.286 25.2074 108.886C46.9074 107.086 68.6074 107.286 90.2074 109.286L101.807 110.386C103.207 110.486 104.707 110.786 106.007 111.186C111.607 112.786 113.007 115.686 113.007 120.386L112.907 128.686C112.907 133.986 108.507 138.286 103.207 138.286Z" fill="#2A3069"/>
<path fill-rule="evenodd" clip-rule="evenodd" d="M103.407 135.986C107.407 135.886 110.607 132.586 110.707 128.586L110.807 120.286C110.807 118.086 110.507 116.786 109.807 115.786C109.207 114.886 108.007 113.986 105.507 113.286C104.307 112.986 103.007 112.686 101.707 112.586L90.1073 111.486C68.6073 109.486 47.0073 109.386 25.4073 111.086C22.8073 111.286 20.5073 111.486 18.4073 111.686C16.5073 111.886 14.9073 111.986 13.8073 112.086C12.5073 112.186 11.2073 112.386 10.0073 112.786C7.50732 113.486 6.30732 114.386 5.60732 115.286C4.90732 116.186 4.50732 117.586 4.50732 119.686L4.40732 127.986C4.40732 132.086 7.70732 135.486 11.7073 135.486C40.6073 134.586 69.5073 134.686 98.4073 135.886L103.407 135.986ZM13.5073 109.886C12.1073 109.986 10.7073 110.186 9.30732 110.586C3.90732 112.186 2.20732 114.986 2.10732 119.686L2.00732 127.986C2.00732 133.386 6.30732 137.686 11.6073 137.786C40.5073 136.886 69.3073 136.986 98.2073 138.186L103.107 138.386C108.407 138.386 112.807 134.086 112.807 128.686L112.907 120.386C112.907 115.686 111.507 112.786 105.907 111.186C104.507 110.786 103.107 110.586 101.707 110.386L90.1073 109.286C68.5073 107.286 46.7073 107.086 25.1073 108.886C22.5073 109.086 20.2073 109.286 18.1073 109.486C16.2073 109.586 14.6073 109.786 13.5073 109.886Z" fill="#181C36"/>
<path d="M43.5073 125.986V118.686H45.0073V124.586L43.9073 125.886H43.5073V125.986ZM48.0073 130.086V118.686H49.5073V130.086H48.0073ZM57.1073 130.086V121.986C57.1073 121.286 56.9073 120.786 56.6073 120.486C56.3073 120.186 55.8073 119.986 55.2073 119.886C55.1073 119.886 54.9073 119.786 54.7073 119.786C54.5073 119.786 54.4073 119.786 54.2073 119.786C54.0073 119.786 53.7073 119.786 53.3073 119.786C53.0073 119.786 52.6073 119.786 52.3073 119.786C51.9073 119.786 51.6073 119.786 51.4073 119.886V118.686C51.9073 118.686 52.4073 118.586 52.8073 118.586C53.2073 118.586 53.6073 118.586 54.0073 118.586C54.7073 118.586 55.3073 118.586 55.7073 118.686C56.1073 118.786 56.5073 118.886 56.9073 118.986C57.3073 119.186 57.6073 119.286 57.8073 119.586C58.0073 119.786 58.2073 120.086 58.4073 120.486C58.5073 120.686 58.5073 120.986 58.6073 121.186C58.6073 121.486 58.7073 121.686 58.7073 121.986V130.086H57.1073ZM61.5073 125.986V118.686H63.0073V124.586L61.9073 125.886H61.5073V125.986ZM64.9073 130.586V129.386L67.3073 128.986C67.5073 128.986 67.6073 128.886 67.8073 128.886C68.0073 128.886 68.1073 128.786 68.3073 128.786L65.6073 118.786H67.1073L68.4073 123.886L69.5073 128.386C70.1073 128.086 70.5073 127.786 71.0073 127.286C71.4073 126.786 71.8073 126.286 72.0073 125.686C72.3073 125.086 72.4073 124.386 72.5073 123.686L73.0073 118.686H74.4073L73.9073 123.586C73.9073 124.086 73.8073 124.586 73.6073 124.986C73.5073 125.386 73.3073 125.886 73.1073 126.286C72.9073 126.686 72.7073 127.086 72.4073 127.386C71.9073 128.086 71.3073 128.686 70.5073 129.186C69.7073 129.686 68.8073 129.986 67.7073 130.086C67.2073 130.186 66.7073 130.286 66.2073 130.286C65.8073 130.486 65.3073 130.486 64.9073 130.586Z" fill="white"/>
<mask id="mask0_2375_14601" style="mask-type:luminance" maskUnits="userSpaceOnUse" x="34" y="46" width="50" height="56">
<path d="M83.0075 46.7861H34.2075V101.286H83.0075V46.7861Z" fill="white"/>
</mask>
<g mask="url(#mask0_2375_14601)">
<path d="M59.4076 75.4857L58.1076 55.5857C57.8076 50.3857 53.3076 46.4857 48.1076 46.7857L43.0076 47.0857C37.8076 47.3857 33.9076 51.8857 34.2076 57.0857L35.5076 76.9857C35.8076 82.0857 40.1076 85.8857 45.1076 85.7857L45.3076 88.5857H44.7076C44.4076 88.5857 44.1076 88.8857 44.2076 89.1857L44.4076 91.3857C44.4076 91.6857 44.7076 91.9857 45.0076 91.8857L45.9076 91.7857L46.6076 91.6857L46.7076 92.9857C46.8076 93.8857 47.6076 94.5857 48.4076 94.4857H49.0076C49.9076 94.3857 50.6076 93.5857 50.5076 92.7857L50.4076 91.3857L51.5076 91.2857H52.1076C52.4076 91.2857 52.7076 90.9857 52.6076 90.6857L52.4076 88.4857C52.4076 88.1857 52.1076 87.8857 51.8076 87.9857H51.2076L51.0076 85.2857C56.1076 84.7857 59.7076 80.4857 59.4076 75.4857Z" fill="#1D1D1B"/>
<path d="M81.7076 65.8857L80.2076 65.9857C79.7076 65.9857 79.3076 66.4857 79.3076 66.9857L79.5076 70.5857C79.5076 71.0857 80.0076 71.4857 80.5076 71.4857L82.0076 71.3857C82.5076 71.3857 82.9076 70.8857 82.9076 70.3857L82.7076 66.7857C82.7076 66.1857 82.3076 65.8857 81.7076 65.8857Z" fill="#1D1D1B"/>
<path d="M81.6076 74.6856L80.8076 62.7856C80.8076 62.7856 80.5076 55.7856 74.1076 55.6856C70.2076 55.5856 68.7076 57.9856 68.0076 59.9856C67.7076 61.0856 67.6076 62.1856 67.7076 63.2856L69.8076 92.2856C69.8076 92.2856 71.4076 98.8856 64.3076 99.5856C57.2076 100.286 55.6076 100.286 55.6076 100.286C55.6076 100.286 49.0076 101.286 49.2076 94.6856" stroke="#1D1D1B" stroke-width="1.957" stroke-linecap="round" stroke-linejoin="round"/>
</g>
<path d="M57.1072 75.4857L55.8072 55.5857C55.5072 50.3857 51.0072 46.4857 45.8072 46.7857L45.0072 46.8857L40.6072 47.1857C35.4072 47.4857 31.5072 51.9857 31.8072 57.1857L33.1072 77.0857C33.4072 82.1857 37.7072 85.9857 42.7072 85.8857L42.9072 88.6857L49.0072 88.1857L48.8072 85.4857C53.7072 84.7857 57.4072 80.4857 57.1072 75.4857Z" fill="#E3EFFA"/>
<path d="M52.5075 73.5855L36.5075 74.6856C36.0075 74.6856 35.6075 74.3855 35.6075 73.8855L34.7075 59.1855C34.7075 58.6855 35.0075 58.2855 35.5075 58.2855L51.5075 57.1855C52.0075 57.1855 52.4075 57.4855 52.4075 57.9855L53.3075 72.6856C53.3075 73.1856 52.9075 73.5855 52.5075 73.5855Z" fill="#E86D54"/>
<path d="M53.1967 70.5755L35.409 71.6854L34.7075 61.1854L52.5462 59.9854L53.1967 70.5755Z" fill="white"/>
<path d="M79.3073 74.7862L78.5073 62.8862C78.5073 62.8862 78.2073 55.8862 71.8073 55.7862C67.9073 55.6862 66.4073 58.0862 65.7073 60.0862C65.4073 61.1862 65.3073 62.2862 65.4073 63.3862L67.5073 92.3862C67.5073 92.3862 69.1073 98.9862 62.0073 99.6862C54.9073 100.386 53.3073 100.386 53.3073 100.386C53.3073 100.386 46.7073 101.386 46.9073 94.7862" stroke="#A6AFB3" stroke-width="1.957" stroke-linecap="round" stroke-linejoin="round"/>
<path d="M77.9073 65.9857C77.4073 65.9857 77.0073 66.4857 77.0073 66.9857L77.2073 70.5857C77.2073 71.0857 77.7073 71.4857 78.2073 71.4857L79.0073 71.3857L78.6073 65.8857L77.9073 65.9857Z" fill="#E86D54"/>
<path d="M79.4074 65.8857H78.6074L79.0074 71.2857L79.8074 71.1857C80.3074 71.1857 80.7074 70.6857 80.7074 70.1857L80.5074 66.5857C80.4074 66.1857 79.9074 65.8857 79.4074 65.8857Z" fill="#E86D54"/>
<path d="M44.4071 93.1859C44.5071 94.0859 45.3071 94.7859 46.1071 94.6859H46.7071C47.6071 94.5859 48.3071 93.7859 48.2071 92.9859L48.1071 91.5859L44.3071 91.8859L44.4071 93.1859Z" fill="#E86D54"/>
<path opacity="0.06" d="M49.0071 88.0861L48.8071 85.3861C53.7071 84.7861 57.3071 80.3861 57.0071 75.3861L55.7071 55.4861C55.4071 50.2861 50.9071 46.3861 45.7071 46.6861L45.0071 46.8861L47.5071 48.8861C47.5071 48.8861 49.4071 50.0861 49.6071 52.1861C49.9071 54.2861 50.0071 57.1861 50.0071 57.1861L47.1071 57.3861L48.2071 73.8861L51.3071 73.6861C51.3071 73.6861 54.3071 83.1861 42.8071 85.7861L43.0071 88.5861L49.0071 88.0861Z" fill="#232323"/>
<path d="M50.0071 91.3857L42.5071 91.9857C42.2071 91.9857 42.0071 91.7857 42.0071 91.4857L41.8071 88.9857C41.8071 88.6857 42.0071 88.4857 42.3071 88.4857L49.8071 87.8857C50.1071 87.8857 50.3071 88.0857 50.3071 88.3857L50.5071 90.8857C50.5071 91.1857 50.3071 91.3857 50.0071 91.3857Z" fill="#E3EFFA"/>
</svg>
