<svg width="42" height="52" viewBox="0 0 42 52" fill="none" xmlns="http://www.w3.org/2000/svg">
<path d="M9.03093 46.0141C13.6727 48.7797 17.2064 48.8371 18.0578 48.7983L18.0753 48.7996C18.1879 48.7939 18.2549 48.7883 18.2549 48.7883L40.0913 12.1381C40.0913 12.1381 37.5553 8.63384 32.9405 5.88428C28.8495 3.4469 25.118 2.74368 24.2379 2.60157C24.1131 2.58184 24.0366 2.57269 24.0366 2.57269L2.20029 39.2229C2.20029 39.2229 3.41517 42.6682 9.03093 46.0141ZM12.4439 45.1896C12.3296 45.0759 12.2902 44.8977 12.3782 44.7499C12.4663 44.6021 12.6418 44.552 12.7961 44.5984C12.8163 44.6104 12.8444 44.609 12.8713 44.625C13.046 44.7291 13.0963 44.9502 12.9962 45.1181C12.8961 45.2861 12.671 45.3431 12.5031 45.243C12.4762 45.227 12.4601 45.2083 12.4439 45.1896ZM8.32487 42.7536C8.32487 42.7536 8.28184 42.7189 8.26569 42.7002C8.14464 42.5825 8.11192 42.4083 8.19997 42.2605C8.28802 42.1127 8.46082 42.0519 8.61789 42.109C8.63804 42.121 8.67293 42.1236 8.69308 42.1356C8.86102 42.2357 8.91802 42.4608 8.81796 42.6287C8.71791 42.7967 8.4928 42.8537 8.32487 42.7536ZM16.6289 47.683C16.5078 47.5654 16.4751 47.3911 16.5631 47.2433C16.6512 47.0956 16.8267 47.0454 16.9811 47.0919C17.0012 47.1039 17.0294 47.1024 17.0563 47.1184C17.2242 47.2185 17.2812 47.4436 17.1812 47.6115C17.0811 47.7795 16.856 47.8365 16.6881 47.7364C16.6612 47.7204 16.645 47.7017 16.6289 47.683ZM10.603 38.7772C10.482 38.6596 10.4492 38.4853 10.5373 38.3376C10.6253 38.1898 10.8009 38.1396 10.9552 38.1861C10.9754 38.1981 11.0035 38.1966 11.0304 38.2126C11.1983 38.3127 11.2553 38.5378 11.1553 38.7058C11.0552 38.8737 10.8301 38.9307 10.6622 38.8307C10.6353 38.8146 10.6192 38.7959 10.603 38.7772ZM6.48395 36.3412C6.48395 36.3412 6.44093 36.3065 6.42478 36.2878C6.30372 36.1702 6.27101 35.9959 6.35906 35.8481C6.44711 35.7004 6.62262 35.6502 6.77698 35.6967C6.79713 35.7087 6.8253 35.7072 6.85217 35.7232C7.02682 35.8273 7.07711 36.0484 6.97705 36.2163C6.87699 36.3843 6.65189 36.4413 6.48395 36.3412ZM14.788 41.2706C14.6736 41.157 14.6342 40.9788 14.7223 40.831C14.8103 40.6832 14.9858 40.633 15.1402 40.6795C15.1603 40.6915 15.1885 40.69 15.2154 40.7061C15.39 40.8101 15.4403 41.0312 15.3402 41.1992C15.2402 41.3671 15.0151 41.4241 14.8471 41.3241C14.8203 41.3081 14.8041 41.2893 14.788 41.2706ZM18.9662 43.76C18.8451 43.6424 18.8124 43.4682 18.9005 43.3204C18.9885 43.1726 19.164 43.1224 19.3184 43.1689C19.3386 43.1809 19.3667 43.1795 19.3936 43.1955C19.5615 43.2955 19.6185 43.5206 19.5185 43.6886C19.4184 43.8565 19.1933 43.9135 19.0254 43.8135C18.9985 43.7975 18.9824 43.7787 18.9662 43.76ZM17.0501 37.321C16.9695 37.273 16.9156 37.1954 16.8899 37.1164L13.2625 34.9552C13.1767 34.9769 13.0868 34.9597 13.0062 34.9117C12.9794 34.8957 12.9632 34.8769 12.9471 34.8582C12.9269 34.8462 12.8987 34.8476 12.8719 34.8316C12.7913 34.7836 12.7374 34.706 12.7117 34.627L10.4277 33.2662C10.2128 33.1381 10.1328 32.8447 10.2688 32.6163L21.7433 13.3575C21.8754 13.1358 22.1688 13.0558 22.3905 13.1878L24.6812 14.5526C24.7629 14.5376 24.8568 14.548 24.9374 14.5961C24.9643 14.6121 24.9805 14.6308 24.9966 14.6495C25.0168 14.6615 25.0449 14.6601 25.0718 14.6761C25.1524 14.7241 25.2063 14.8018 25.232 14.8808L28.8594 17.042C28.9452 17.0203 29.035 17.0375 29.1157 17.0855C29.1425 17.1015 29.1587 17.1202 29.1748 17.1389C29.195 17.1509 29.2231 17.1495 29.25 17.1655C29.3306 17.2135 29.3845 17.2912 29.4102 17.3702L31.5598 18.6509C31.7815 18.783 31.8575 19.0832 31.7254 19.3048L20.2509 38.5637C20.1189 38.7853 19.8187 38.8614 19.597 38.7293L17.4542 37.4526C17.3684 37.4743 17.2785 37.4571 17.1979 37.4091C17.171 37.3931 17.1549 37.3744 17.1387 37.3556C17.1186 37.3436 17.0904 37.3451 17.0636 37.3291L17.0501 37.321ZM8.82128 32.4183C8.82128 32.4183 8.77826 32.3835 8.76211 32.3648C8.64106 32.2472 8.60833 32.073 8.69638 31.9252C8.78443 31.7774 8.95994 31.7272 9.1143 31.7737C9.13445 31.7857 9.16262 31.7843 9.18949 31.8003C9.36414 31.9043 9.41843 32.1187 9.31437 32.2934C9.21031 32.468 8.99593 32.5223 8.82128 32.4183ZM11.1586 28.4953C11.1586 28.4953 11.1156 28.4606 11.0994 28.4418C10.9811 28.3349 10.9457 28.15 11.0337 28.0022C11.1218 27.8544 11.2973 27.8042 11.4516 27.8507C11.4718 27.8627 11.4999 27.8613 11.5268 27.8773C11.6947 27.9774 11.7518 28.2025 11.6517 28.3704C11.5516 28.5383 11.3265 28.5954 11.1586 28.4953ZM13.4959 24.5723C13.4959 24.5723 13.4529 24.5376 13.4368 24.5189C13.3157 24.4012 13.283 24.227 13.371 24.0792C13.4591 23.9314 13.6346 23.8813 13.789 23.9277C13.8091 23.9397 13.8373 23.9383 13.8641 23.9543C14.0388 24.0584 14.0891 24.2795 13.989 24.4474C13.889 24.6154 13.6639 24.6724 13.4959 24.5723ZM15.8332 20.6494C15.8332 20.6494 15.7902 20.6146 15.7741 20.5959C15.653 20.4783 15.6203 20.304 15.7084 20.1563C15.7964 20.0085 15.9719 19.9583 16.1263 20.0048C16.1464 20.0168 16.1746 20.0154 16.2015 20.0314C16.3761 20.1354 16.4264 20.3565 16.3263 20.5245C16.2263 20.6924 16.0012 20.7494 15.8332 20.6494ZM18.1706 16.7264C18.1706 16.7264 18.1275 16.6917 18.1114 16.6729C17.9903 16.5553 17.9576 16.3811 18.0457 16.2333C18.1337 16.0855 18.3092 16.0353 18.4636 16.0818C18.4837 16.0938 18.5119 16.0924 18.5388 16.1084C18.7134 16.2125 18.7637 16.4336 18.6637 16.6015C18.5636 16.7694 18.3385 16.8264 18.1706 16.7264ZM20.5079 12.8034C20.5079 12.8034 20.4649 12.7687 20.4487 12.75C20.3277 12.6323 20.2949 12.4581 20.383 12.3103C20.471 12.1625 20.6466 12.1124 20.8009 12.1588C20.8211 12.1708 20.8492 12.1694 20.8761 12.1854C21.0507 12.2895 21.101 12.5106 21.001 12.6785C20.9009 12.8465 20.6825 12.9075 20.5079 12.8034ZM33.4175 19.6577C33.5855 19.7577 33.6425 19.9828 33.5424 20.1508C33.4424 20.3187 33.2172 20.3757 33.0493 20.2756C33.0224 20.2596 33.0063 20.2409 32.9901 20.2222C32.8691 20.1046 32.8363 19.9303 32.9244 19.7825C33.0124 19.6348 33.1813 19.5806 33.3423 19.6311C33.3625 19.6431 33.3906 19.6416 33.4175 19.6577ZM31.0802 23.5806C31.2481 23.6807 31.3051 23.9058 31.2051 24.0737C31.105 24.2417 30.8799 24.2987 30.712 24.1986C30.6851 24.1826 30.669 24.1639 30.6528 24.1452C30.5318 24.0275 30.499 23.8533 30.5871 23.7055C30.6751 23.5577 30.8507 23.5076 31.005 23.554C31.0252 23.566 31.0533 23.5646 31.0802 23.5806ZM28.7429 27.5036C28.9108 27.6037 28.9678 27.8288 28.8678 27.9967C28.7677 28.1646 28.5426 28.2216 28.3747 28.1216C28.3478 28.1056 28.3316 28.0869 28.3155 28.0681C28.1944 27.9505 28.1617 27.7763 28.2498 27.6285C28.3378 27.4807 28.5133 27.4305 28.6677 27.477C28.6878 27.489 28.716 27.4876 28.7429 27.5036ZM26.4056 31.4266C26.5735 31.5266 26.6305 31.7517 26.5304 31.9197C26.4304 32.0876 26.2053 32.1446 26.0373 32.0446C26.0105 32.0286 25.9943 32.0098 25.9782 31.9911C25.8571 31.8735 25.8244 31.6992 25.9124 31.5514C26.0005 31.4037 26.1693 31.3495 26.3304 31.4C26.3505 31.412 26.3787 31.4106 26.4056 31.4266ZM24.0682 35.3495C24.2362 35.4496 24.2932 35.6747 24.1931 35.8426C24.0931 36.0106 23.868 36.0676 23.7 35.9675C23.6732 35.9515 23.657 35.9328 23.6409 35.9141C23.5198 35.7964 23.4871 35.6222 23.5751 35.4744C23.6632 35.3266 23.8387 35.2765 23.9931 35.3229C24.0132 35.3349 24.0414 35.3335 24.0682 35.3495ZM21.3035 39.837C21.1825 39.7194 21.1497 39.5452 21.2378 39.3974C21.3258 39.2496 21.4946 39.1955 21.6557 39.2459C21.6759 39.2579 21.704 39.2565 21.7309 39.2725C21.8988 39.3726 21.9599 39.591 21.8558 39.7656C21.7557 39.9335 21.5306 39.9906 21.3627 39.8905C21.3358 39.8745 21.3197 39.8558 21.3035 39.837ZM26.9683 11.3097C26.8472 11.192 26.8145 11.0178 26.9026 10.87C26.9906 10.7223 27.1594 10.6681 27.3205 10.7185C27.3406 10.7306 27.3755 10.7331 27.3957 10.7451C27.5636 10.8452 27.6206 11.0703 27.5205 11.2382C27.4205 11.4062 27.1954 11.4632 27.0275 11.3631C27.0006 11.3471 26.9844 11.3284 26.9683 11.3097ZM22.8492 8.87372C22.8492 8.87372 22.8062 8.839 22.79 8.82027C22.669 8.70264 22.6363 8.52841 22.7243 8.38063C22.8124 8.23285 22.9919 8.17596 23.1422 8.22914C23.1624 8.24114 23.1905 8.23972 23.2174 8.25573C23.3921 8.35979 23.4424 8.58089 23.3423 8.74883C23.2423 8.91677 23.0172 8.97378 22.8492 8.87372ZM31.1532 13.8031C31.0389 13.6895 30.9995 13.5112 31.0875 13.3635C31.1756 13.2157 31.3511 13.1655 31.5054 13.212C31.5256 13.224 31.5537 13.2225 31.5806 13.2386C31.7553 13.3426 31.8056 13.5637 31.7055 13.7317C31.6054 13.8996 31.3803 13.9566 31.2124 13.8565C31.1855 13.8405 31.1694 13.8218 31.1532 13.8031ZM35.3315 16.2925C35.2104 16.1749 35.1777 16.0006 35.2657 15.8528C35.3538 15.7051 35.5293 15.6549 35.6837 15.7014C35.7038 15.7134 35.732 15.712 35.7588 15.728C35.9268 15.828 35.9838 16.0531 35.8837 16.2211C35.7837 16.389 35.5586 16.446 35.3906 16.346C35.3638 16.3299 35.3476 16.3112 35.3315 16.2925ZM33.4906 9.88013C33.3762 9.7665 33.3368 9.58827 33.4248 9.44048C33.5129 9.2927 33.6924 9.23582 33.8428 9.28899C33.8629 9.301 33.8911 9.29958 33.9179 9.31559C34.0859 9.41565 34.1429 9.64075 34.0428 9.80869C33.9428 9.97662 33.7177 10.0336 33.5497 9.93358C33.5229 9.91757 33.5067 9.89885 33.4906 9.88013ZM29.3715 7.44417C29.3715 7.44417 29.3285 7.40944 29.3123 7.39072C29.1913 7.27308 29.1586 7.09886 29.2466 6.95108C29.3347 6.80329 29.5102 6.75313 29.6645 6.79958C29.6847 6.81159 29.7128 6.81017 29.7397 6.82618C29.9076 6.92624 29.9646 7.15134 29.8646 7.31928C29.7645 7.48721 29.5394 7.54423 29.3715 7.44417ZM37.6755 12.3735C37.5545 12.2559 37.5217 12.0817 37.6098 11.9339C37.6978 11.7861 37.8774 11.7292 38.0277 11.7824C38.0479 11.7944 38.076 11.793 38.1029 11.809C38.2708 11.909 38.3278 12.1342 38.2278 12.3021C38.1277 12.47 37.9026 12.527 37.7347 12.427C37.7078 12.411 37.6917 12.3923 37.6755 12.3735ZM25.6864 4.82987C25.5863 4.9978 25.3612 5.05482 25.1933 4.95476C25.1664 4.93875 25.1502 4.92003 25.1341 4.90131C25.013 4.78368 24.9803 4.60945 25.0684 4.46167C25.1564 4.31388 25.3319 4.26372 25.4863 4.31017C25.5064 4.32218 25.5346 4.32076 25.5615 4.33677C25.7361 4.44083 25.7864 4.66193 25.6864 4.82987ZM4.02447 39.7818C4.11252 39.634 4.29202 39.5772 4.44238 39.6304C4.46253 39.6424 4.4907 39.6409 4.51757 39.6569C4.69222 39.761 4.74252 39.9821 4.64246 40.15C4.5424 40.318 4.31729 40.375 4.14935 40.2749C4.12248 40.2589 4.10634 40.2402 4.09019 40.2215C3.96913 40.1038 3.93642 39.9296 4.02447 39.7818Z" fill="#E5B884"/>
<path style="mix-blend-mode:screen" d="M9.03093 46.0141C13.6727 48.7797 17.2064 48.8371 18.0578 48.7983L18.0753 48.7996C18.1879 48.7939 18.2549 48.7883 18.2549 48.7883L40.0913 12.1381C40.0913 12.1381 37.5553 8.63384 32.9405 5.88428C28.8495 3.4469 25.118 2.74368 24.2379 2.60157C24.1131 2.58184 24.0366 2.57269 24.0366 2.57269L2.20029 39.2229C2.20029 39.2229 3.41517 42.6682 9.03093 46.0141ZM12.4439 45.1896C12.3296 45.0759 12.2902 44.8977 12.3782 44.7499C12.4663 44.6021 12.6418 44.552 12.7961 44.5984C12.8163 44.6104 12.8444 44.609 12.8713 44.625C13.046 44.7291 13.0963 44.9502 12.9962 45.1181C12.8961 45.2861 12.671 45.3431 12.5031 45.243C12.4762 45.227 12.4601 45.2083 12.4439 45.1896ZM8.32487 42.7536C8.32487 42.7536 8.28184 42.7189 8.26569 42.7002C8.14464 42.5825 8.11192 42.4083 8.19997 42.2605C8.28802 42.1127 8.46082 42.0519 8.61789 42.109C8.63804 42.121 8.67293 42.1236 8.69308 42.1356C8.86102 42.2357 8.91802 42.4608 8.81796 42.6287C8.71791 42.7967 8.4928 42.8537 8.32487 42.7536ZM16.6289 47.683C16.5078 47.5654 16.4751 47.3911 16.5631 47.2433C16.6512 47.0956 16.8267 47.0454 16.9811 47.0919C17.0012 47.1039 17.0294 47.1024 17.0563 47.1184C17.2242 47.2185 17.2812 47.4436 17.1812 47.6115C17.0811 47.7795 16.856 47.8365 16.6881 47.7364C16.6612 47.7204 16.645 47.7017 16.6289 47.683ZM10.603 38.7772C10.482 38.6596 10.4492 38.4853 10.5373 38.3376C10.6253 38.1898 10.8009 38.1396 10.9552 38.1861C10.9754 38.1981 11.0035 38.1966 11.0304 38.2126C11.1983 38.3127 11.2553 38.5378 11.1553 38.7058C11.0552 38.8737 10.8301 38.9307 10.6622 38.8307C10.6353 38.8146 10.6192 38.7959 10.603 38.7772ZM6.48395 36.3412C6.48395 36.3412 6.44093 36.3065 6.42478 36.2878C6.30372 36.1702 6.27101 35.9959 6.35906 35.8481C6.44711 35.7004 6.62262 35.6502 6.77698 35.6967C6.79713 35.7087 6.8253 35.7072 6.85217 35.7232C7.02682 35.8273 7.07711 36.0484 6.97705 36.2163C6.87699 36.3843 6.65189 36.4413 6.48395 36.3412ZM14.788 41.2706C14.6736 41.157 14.6342 40.9788 14.7223 40.831C14.8103 40.6832 14.9858 40.633 15.1402 40.6795C15.1603 40.6915 15.1885 40.69 15.2154 40.7061C15.39 40.8101 15.4403 41.0312 15.3402 41.1992C15.2402 41.3671 15.0151 41.4241 14.8471 41.3241C14.8203 41.3081 14.8041 41.2893 14.788 41.2706ZM18.9662 43.76C18.8451 43.6424 18.8124 43.4682 18.9005 43.3204C18.9885 43.1726 19.164 43.1224 19.3184 43.1689C19.3386 43.1809 19.3667 43.1795 19.3936 43.1955C19.5615 43.2955 19.6185 43.5206 19.5185 43.6886C19.4184 43.8565 19.1933 43.9135 19.0254 43.8135C18.9985 43.7975 18.9824 43.7787 18.9662 43.76ZM17.0501 37.321C16.9695 37.273 16.9156 37.1954 16.8899 37.1164L13.2625 34.9552C13.1767 34.9769 13.0868 34.9597 13.0062 34.9117C12.9794 34.8957 12.9632 34.8769 12.9471 34.8582C12.9269 34.8462 12.8987 34.8476 12.8719 34.8316C12.7913 34.7836 12.7374 34.706 12.7117 34.627L10.4277 33.2662C10.2128 33.1381 10.1328 32.8447 10.2688 32.6163L21.7433 13.3575C21.8754 13.1358 22.1688 13.0558 22.3905 13.1878L24.6812 14.5526C24.7629 14.5376 24.8568 14.548 24.9374 14.5961C24.9643 14.6121 24.9805 14.6308 24.9966 14.6495C25.0168 14.6615 25.0449 14.6601 25.0718 14.6761C25.1524 14.7241 25.2063 14.8018 25.232 14.8808L28.8594 17.042C28.9452 17.0203 29.035 17.0375 29.1157 17.0855C29.1425 17.1015 29.1587 17.1202 29.1748 17.1389C29.195 17.1509 29.2231 17.1495 29.25 17.1655C29.3306 17.2135 29.3845 17.2912 29.4102 17.3702L31.5598 18.6509C31.7815 18.783 31.8575 19.0832 31.7254 19.3048L20.2509 38.5637C20.1189 38.7853 19.8187 38.8614 19.597 38.7293L17.4542 37.4526C17.3684 37.4743 17.2785 37.4571 17.1979 37.4091C17.171 37.3931 17.1549 37.3744 17.1387 37.3556C17.1186 37.3436 17.0904 37.3451 17.0636 37.3291L17.0501 37.321ZM8.82128 32.4183C8.82128 32.4183 8.77826 32.3835 8.76211 32.3648C8.64106 32.2472 8.60833 32.073 8.69638 31.9252C8.78443 31.7774 8.95994 31.7272 9.1143 31.7737C9.13445 31.7857 9.16262 31.7843 9.18949 31.8003C9.36414 31.9043 9.41843 32.1187 9.31437 32.2934C9.21031 32.468 8.99593 32.5223 8.82128 32.4183ZM11.1586 28.4953C11.1586 28.4953 11.1156 28.4606 11.0994 28.4418C10.9811 28.3349 10.9457 28.15 11.0337 28.0022C11.1218 27.8544 11.2973 27.8042 11.4516 27.8507C11.4718 27.8627 11.4999 27.8613 11.5268 27.8773C11.6947 27.9774 11.7518 28.2025 11.6517 28.3704C11.5516 28.5383 11.3265 28.5954 11.1586 28.4953ZM13.4959 24.5723C13.4959 24.5723 13.4529 24.5376 13.4368 24.5189C13.3157 24.4012 13.283 24.227 13.371 24.0792C13.4591 23.9314 13.6346 23.8813 13.789 23.9277C13.8091 23.9397 13.8373 23.9383 13.8641 23.9543C14.0388 24.0584 14.0891 24.2795 13.989 24.4474C13.889 24.6154 13.6639 24.6724 13.4959 24.5723ZM15.8332 20.6494C15.8332 20.6494 15.7902 20.6146 15.7741 20.5959C15.653 20.4783 15.6203 20.304 15.7084 20.1563C15.7964 20.0085 15.9719 19.9583 16.1263 20.0048C16.1464 20.0168 16.1746 20.0154 16.2015 20.0314C16.3761 20.1354 16.4264 20.3565 16.3263 20.5245C16.2263 20.6924 16.0012 20.7494 15.8332 20.6494ZM18.1706 16.7264C18.1706 16.7264 18.1275 16.6917 18.1114 16.6729C17.9903 16.5553 17.9576 16.3811 18.0457 16.2333C18.1337 16.0855 18.3092 16.0353 18.4636 16.0818C18.4837 16.0938 18.5119 16.0924 18.5388 16.1084C18.7134 16.2125 18.7637 16.4336 18.6637 16.6015C18.5636 16.7694 18.3385 16.8264 18.1706 16.7264ZM20.5079 12.8034C20.5079 12.8034 20.4649 12.7687 20.4487 12.75C20.3277 12.6323 20.2949 12.4581 20.383 12.3103C20.471 12.1625 20.6466 12.1124 20.8009 12.1588C20.8211 12.1708 20.8492 12.1694 20.8761 12.1854C21.0507 12.2895 21.101 12.5106 21.001 12.6785C20.9009 12.8465 20.6825 12.9075 20.5079 12.8034ZM33.4175 19.6577C33.5855 19.7577 33.6425 19.9828 33.5424 20.1508C33.4424 20.3187 33.2172 20.3757 33.0493 20.2756C33.0224 20.2596 33.0063 20.2409 32.9901 20.2222C32.8691 20.1046 32.8363 19.9303 32.9244 19.7825C33.0124 19.6348 33.1813 19.5806 33.3423 19.6311C33.3625 19.6431 33.3906 19.6416 33.4175 19.6577ZM31.0802 23.5806C31.2481 23.6807 31.3051 23.9058 31.2051 24.0737C31.105 24.2417 30.8799 24.2987 30.712 24.1986C30.6851 24.1826 30.669 24.1639 30.6528 24.1452C30.5318 24.0275 30.499 23.8533 30.5871 23.7055C30.6751 23.5577 30.8507 23.5076 31.005 23.554C31.0252 23.566 31.0533 23.5646 31.0802 23.5806ZM28.7429 27.5036C28.9108 27.6037 28.9678 27.8288 28.8678 27.9967C28.7677 28.1646 28.5426 28.2216 28.3747 28.1216C28.3478 28.1056 28.3316 28.0869 28.3155 28.0681C28.1944 27.9505 28.1617 27.7763 28.2498 27.6285C28.3378 27.4807 28.5133 27.4305 28.6677 27.477C28.6878 27.489 28.716 27.4876 28.7429 27.5036ZM26.4056 31.4266C26.5735 31.5266 26.6305 31.7517 26.5304 31.9197C26.4304 32.0876 26.2053 32.1446 26.0373 32.0446C26.0105 32.0286 25.9943 32.0098 25.9782 31.9911C25.8571 31.8735 25.8244 31.6992 25.9124 31.5514C26.0005 31.4037 26.1693 31.3495 26.3304 31.4C26.3505 31.412 26.3787 31.4106 26.4056 31.4266ZM24.0682 35.3495C24.2362 35.4496 24.2932 35.6747 24.1931 35.8426C24.0931 36.0106 23.868 36.0676 23.7 35.9675C23.6732 35.9515 23.657 35.9328 23.6409 35.9141C23.5198 35.7964 23.4871 35.6222 23.5751 35.4744C23.6632 35.3266 23.8387 35.2765 23.9931 35.3229C24.0132 35.3349 24.0414 35.3335 24.0682 35.3495ZM21.3035 39.837C21.1825 39.7194 21.1497 39.5452 21.2378 39.3974C21.3258 39.2496 21.4946 39.1955 21.6557 39.2459C21.6759 39.2579 21.704 39.2565 21.7309 39.2725C21.8988 39.3726 21.9599 39.591 21.8558 39.7656C21.7557 39.9335 21.5306 39.9906 21.3627 39.8905C21.3358 39.8745 21.3197 39.8558 21.3035 39.837ZM26.9683 11.3097C26.8472 11.192 26.8145 11.0178 26.9026 10.87C26.9906 10.7223 27.1594 10.6681 27.3205 10.7185C27.3406 10.7306 27.3755 10.7331 27.3957 10.7451C27.5636 10.8452 27.6206 11.0703 27.5205 11.2382C27.4205 11.4062 27.1954 11.4632 27.0275 11.3631C27.0006 11.3471 26.9844 11.3284 26.9683 11.3097ZM22.8492 8.87372C22.8492 8.87372 22.8062 8.839 22.79 8.82027C22.669 8.70264 22.6363 8.52841 22.7243 8.38063C22.8124 8.23285 22.9919 8.17596 23.1422 8.22914C23.1624 8.24114 23.1905 8.23972 23.2174 8.25573C23.3921 8.35979 23.4424 8.58089 23.3423 8.74883C23.2423 8.91677 23.0172 8.97378 22.8492 8.87372ZM31.1532 13.8031C31.0389 13.6895 30.9995 13.5112 31.0875 13.3635C31.1756 13.2157 31.3511 13.1655 31.5054 13.212C31.5256 13.224 31.5537 13.2225 31.5806 13.2386C31.7553 13.3426 31.8056 13.5637 31.7055 13.7317C31.6054 13.8996 31.3803 13.9566 31.2124 13.8565C31.1855 13.8405 31.1694 13.8218 31.1532 13.8031ZM35.3315 16.2925C35.2104 16.1749 35.1777 16.0006 35.2657 15.8528C35.3538 15.7051 35.5293 15.6549 35.6837 15.7014C35.7038 15.7134 35.732 15.712 35.7588 15.728C35.9268 15.828 35.9838 16.0531 35.8837 16.2211C35.7837 16.389 35.5586 16.446 35.3906 16.346C35.3638 16.3299 35.3476 16.3112 35.3315 16.2925ZM33.4906 9.88013C33.3762 9.7665 33.3368 9.58827 33.4248 9.44048C33.5129 9.2927 33.6924 9.23582 33.8428 9.28899C33.8629 9.301 33.8911 9.29958 33.9179 9.31559C34.0859 9.41565 34.1429 9.64075 34.0428 9.80869C33.9428 9.97662 33.7177 10.0336 33.5497 9.93358C33.5229 9.91757 33.5067 9.89885 33.4906 9.88013ZM29.3715 7.44417C29.3715 7.44417 29.3285 7.40944 29.3123 7.39072C29.1913 7.27308 29.1586 7.09886 29.2466 6.95108C29.3347 6.80329 29.5102 6.75313 29.6645 6.79958C29.6847 6.81159 29.7128 6.81017 29.7397 6.82618C29.9076 6.92624 29.9646 7.15134 29.8646 7.31928C29.7645 7.48721 29.5394 7.54423 29.3715 7.44417ZM37.6755 12.3735C37.5545 12.2559 37.5217 12.0817 37.6098 11.9339C37.6978 11.7861 37.8774 11.7292 38.0277 11.7824C38.0479 11.7944 38.076 11.793 38.1029 11.809C38.2708 11.909 38.3278 12.1342 38.2278 12.3021C38.1277 12.47 37.9026 12.527 37.7347 12.427C37.7078 12.411 37.6917 12.3923 37.6755 12.3735ZM25.6864 4.82987C25.5863 4.9978 25.3612 5.05482 25.1933 4.95476C25.1664 4.93875 25.1502 4.92003 25.1341 4.90131C25.013 4.78368 24.9803 4.60945 25.0684 4.46167C25.1564 4.31388 25.3319 4.26372 25.4863 4.31017C25.5064 4.32218 25.5346 4.32076 25.5615 4.33677C25.7361 4.44083 25.7864 4.66193 25.6864 4.82987ZM4.02447 39.7818C4.11252 39.634 4.29202 39.5772 4.44238 39.6304C4.46253 39.6424 4.4907 39.6409 4.51757 39.6569C4.69222 39.761 4.74252 39.9821 4.64246 40.15C4.5424 40.318 4.31729 40.375 4.14935 40.2749C4.12248 40.2589 4.10634 40.2402 4.09019 40.2215C3.96913 40.1038 3.93642 39.9296 4.02447 39.7818Z" fill="url(#paint0_linear_1354_15188)"/>
<path d="M10.0269 32.3083L21.0732 13.7682C21.4574 13.1233 21.7509 13.0889 22.3488 13.4451L30.8732 18.524C31.3165 18.7881 31.382 19.1366 31.1218 19.5732L19.9996 38.2409C19.6273 38.8656 19.2949 38.9042 18.7239 38.564L10.354 33.5772C9.78975 33.241 9.69872 32.8591 10.0309 32.3016L10.0269 32.3083Z" fill="#D59F70"/>
<path d="M10.8248 32.1735L21.871 13.6335C22.2552 12.9886 22.5488 12.9541 23.1466 13.3103L31.6711 18.3892C32.1144 18.6534 32.1838 18.9951 31.9197 19.4385L20.7974 38.1062C20.4252 38.7309 20.0927 38.7695 19.5218 38.4293L11.1519 33.4424C10.7085 33.1783 10.5646 32.6101 10.8288 32.1668L10.8248 32.1735Z" fill="#FFDAB0"/>
<path d="M17.0579 36.8965C17.1459 36.7487 17.3214 36.6985 17.4758 36.745C17.4959 36.757 17.5241 36.7556 17.5509 36.7716C17.7189 36.8716 17.7799 37.09 17.6758 37.2647C17.6238 37.352 17.5355 37.4086 17.439 37.433L19.5819 38.7097C19.8035 38.8418 20.0997 38.7725 20.2358 38.5441L31.7103 19.2853C31.8423 19.0636 31.7663 18.7635 31.5446 18.6314L29.3951 17.3507C29.4235 17.4404 29.4158 17.5451 29.3598 17.6391C29.2597 17.807 29.0346 17.864 28.8666 17.764C28.8398 17.748 28.8236 17.7293 28.8075 17.7105C28.6824 17.5996 28.6537 17.4187 28.7417 17.2709C28.8298 17.1231 29.0053 17.073 29.1597 17.1194C29.1328 17.1034 29.1207 17.0779 29.1005 17.0659C29.0199 17.0179 28.926 17.0075 28.8402 17.0292L25.2128 14.868C25.2413 14.9577 25.2336 15.0624 25.1775 15.1564C25.0775 15.3243 24.8523 15.3814 24.6844 15.2813C24.6575 15.2653 24.6414 15.2466 24.6253 15.2278C24.5002 15.1169 24.4715 14.936 24.5595 14.7882C24.6476 14.6404 24.8164 14.5862 24.9775 14.6367C24.9573 14.6247 24.9451 14.5993 24.9183 14.5833C24.8377 14.5352 24.7438 14.5248 24.662 14.5398L22.3714 13.175C22.1564 13.0469 21.8563 13.123 21.7242 13.3447L10.2497 32.6035C10.1176 32.8251 10.1869 33.1213 10.4086 33.2534L12.6925 34.6142C12.7142 34.6999 12.7721 34.7708 12.8527 34.8188C12.8796 34.8348 12.9038 34.8401 12.9279 34.8454C12.8069 34.7278 12.7741 34.5536 12.8622 34.4058C12.9502 34.258 13.119 34.2038 13.2801 34.2543C13.3003 34.2663 13.3284 34.2649 13.3553 34.2809C13.5232 34.3809 13.5842 34.5993 13.4802 34.774C13.4281 34.8613 13.3398 34.9179 13.2433 34.9423L16.8707 37.1036C16.8925 37.1893 16.9503 37.2602 17.031 37.3082C17.0578 37.3242 17.082 37.3295 17.1061 37.3348C16.9918 37.2212 16.9523 37.043 17.0404 36.8952L17.0579 36.8965ZM22.2986 19.1481C22.1776 19.0305 22.1449 18.8562 22.2329 18.7085C22.321 18.5607 22.4898 18.5065 22.6508 18.557C22.671 18.569 22.7059 18.5715 22.726 18.5835C22.894 18.6836 22.951 18.9087 22.8509 19.0767C22.7508 19.2446 22.5257 19.3016 22.3578 19.2016C22.3309 19.1855 22.3148 19.1668 22.2986 19.1481ZM26.4769 21.6375C26.3625 21.5239 26.3231 21.3457 26.4111 21.1979C26.4992 21.0501 26.6747 20.9999 26.8291 21.0464C26.8492 21.0584 26.8774 21.0569 26.9043 21.073C27.0789 21.177 27.1292 21.3981 27.0291 21.5661C26.9291 21.734 26.704 21.791 26.536 21.691C26.5092 21.675 26.493 21.6562 26.4769 21.6375ZM19.9613 23.0711C19.8403 22.9534 19.8075 22.7792 19.8956 22.6314C19.9836 22.4836 20.1564 22.4228 20.3135 22.4799C20.3337 22.4919 20.3618 22.4905 20.3887 22.5065C20.5566 22.6066 20.6136 22.8317 20.5136 22.9996C20.4135 23.1676 20.1884 23.2246 20.0205 23.1245C19.9936 23.1085 19.9775 23.0898 19.9613 23.0711ZM24.1395 25.5605C24.0252 25.4468 23.9858 25.2686 24.0738 25.1208C24.1619 24.9731 24.3374 24.9229 24.4917 24.9693C24.5119 24.9814 24.54 24.9799 24.5669 24.9959C24.7416 25.1 24.7919 25.3211 24.6918 25.489C24.5918 25.657 24.3667 25.714 24.1987 25.6139C24.1718 25.5979 24.1557 25.5792 24.1395 25.5605ZM17.624 26.994C17.5029 26.8764 17.4702 26.7022 17.5583 26.5544C17.6463 26.4066 17.8218 26.3564 17.9762 26.4029C17.9963 26.4149 18.0245 26.4135 18.0514 26.4295C18.2193 26.5296 18.2763 26.7547 18.1763 26.9226C18.0762 27.0905 17.8511 27.1475 17.6832 27.0475C17.6563 27.0315 17.6401 27.0128 17.624 26.994ZM21.8022 29.4834C21.6879 29.3698 21.6485 29.1916 21.7365 29.0438C21.8246 28.896 22.0001 28.8459 22.1544 28.8923C22.1746 28.9043 22.2027 28.9029 22.2296 28.9189C22.3975 29.019 22.4545 29.2441 22.3545 29.412C22.2544 29.5799 22.0293 29.637 21.8614 29.5369C21.8345 29.5209 21.8184 29.5022 21.8022 29.4834ZM15.2867 30.917C15.1656 30.7994 15.1329 30.6251 15.2209 30.4774C15.309 30.3296 15.4778 30.2754 15.6389 30.3259C15.659 30.3379 15.6939 30.3405 15.714 30.3525C15.882 30.4525 15.939 30.6776 15.8389 30.8456C15.7389 31.0135 15.5138 31.0705 15.3458 30.9705C15.319 30.9545 15.3028 30.9357 15.2867 30.917ZM19.4649 33.4064C19.3506 33.2928 19.3111 33.1146 19.3992 32.9668C19.4872 32.819 19.6627 32.7688 19.8171 32.8153C19.8373 32.8273 19.8654 32.8259 19.8923 32.8419C20.0669 32.9459 20.1172 33.167 20.0172 33.335C19.9171 33.5029 19.692 33.5599 19.5241 33.4599C19.4972 33.4439 19.481 33.4251 19.4649 33.4064Z" fill="#EDBE88"/>
<path style="mix-blend-mode:screen" d="M17.0579 36.8965C17.1459 36.7487 17.3214 36.6985 17.4758 36.745C17.4959 36.757 17.5241 36.7556 17.5509 36.7716C17.7189 36.8716 17.7799 37.09 17.6758 37.2647C17.6238 37.352 17.5355 37.4086 17.439 37.433L19.5819 38.7097C19.8035 38.8418 20.0997 38.7725 20.2358 38.5441L31.7103 19.2853C31.8423 19.0636 31.7663 18.7635 31.5446 18.6314L29.3951 17.3507C29.4235 17.4404 29.4158 17.5451 29.3598 17.6391C29.2597 17.807 29.0346 17.864 28.8666 17.764C28.8398 17.748 28.8236 17.7293 28.8075 17.7105C28.6824 17.5996 28.6537 17.4187 28.7417 17.2709C28.8298 17.1231 29.0053 17.073 29.1597 17.1194C29.1328 17.1034 29.1207 17.0779 29.1005 17.0659C29.0199 17.0179 28.926 17.0075 28.8402 17.0292L25.2128 14.868C25.2413 14.9577 25.2336 15.0624 25.1775 15.1564C25.0775 15.3243 24.8523 15.3814 24.6844 15.2813C24.6575 15.2653 24.6414 15.2466 24.6253 15.2278C24.5002 15.1169 24.4715 14.936 24.5595 14.7882C24.6476 14.6404 24.8164 14.5862 24.9775 14.6367C24.9573 14.6247 24.9451 14.5993 24.9183 14.5833C24.8377 14.5352 24.7438 14.5248 24.662 14.5398L22.3714 13.175C22.1564 13.0469 21.8563 13.123 21.7242 13.3447L10.2497 32.6035C10.1176 32.8251 10.1869 33.1213 10.4086 33.2534L12.6925 34.6142C12.7142 34.6999 12.7721 34.7708 12.8527 34.8188C12.8796 34.8348 12.9038 34.8401 12.9279 34.8454C12.8069 34.7278 12.7741 34.5536 12.8622 34.4058C12.9502 34.258 13.119 34.2038 13.2801 34.2543C13.3003 34.2663 13.3284 34.2649 13.3553 34.2809C13.5232 34.3809 13.5842 34.5993 13.4802 34.774C13.4281 34.8613 13.3398 34.9179 13.2433 34.9423L16.8707 37.1036C16.8925 37.1893 16.9503 37.2602 17.031 37.3082C17.0578 37.3242 17.082 37.3295 17.1061 37.3348C16.9918 37.2212 16.9523 37.043 17.0404 36.8952L17.0579 36.8965ZM22.2986 19.1481C22.1776 19.0305 22.1449 18.8562 22.2329 18.7085C22.321 18.5607 22.4898 18.5065 22.6508 18.557C22.671 18.569 22.7059 18.5715 22.726 18.5835C22.894 18.6836 22.951 18.9087 22.8509 19.0767C22.7508 19.2446 22.5257 19.3016 22.3578 19.2016C22.3309 19.1855 22.3148 19.1668 22.2986 19.1481ZM26.4769 21.6375C26.3625 21.5239 26.3231 21.3457 26.4111 21.1979C26.4992 21.0501 26.6747 20.9999 26.8291 21.0464C26.8492 21.0584 26.8774 21.0569 26.9043 21.073C27.0789 21.177 27.1292 21.3981 27.0291 21.5661C26.9291 21.734 26.704 21.791 26.536 21.691C26.5092 21.675 26.493 21.6562 26.4769 21.6375ZM19.9613 23.0711C19.8403 22.9534 19.8075 22.7792 19.8956 22.6314C19.9836 22.4836 20.1564 22.4228 20.3135 22.4799C20.3337 22.4919 20.3618 22.4905 20.3887 22.5065C20.5566 22.6066 20.6136 22.8317 20.5136 22.9996C20.4135 23.1676 20.1884 23.2246 20.0205 23.1245C19.9936 23.1085 19.9775 23.0898 19.9613 23.0711ZM24.1395 25.5605C24.0252 25.4468 23.9858 25.2686 24.0738 25.1208C24.1619 24.9731 24.3374 24.9229 24.4917 24.9693C24.5119 24.9814 24.54 24.9799 24.5669 24.9959C24.7416 25.1 24.7919 25.3211 24.6918 25.489C24.5918 25.657 24.3667 25.714 24.1987 25.6139C24.1718 25.5979 24.1557 25.5792 24.1395 25.5605ZM17.624 26.994C17.5029 26.8764 17.4702 26.7022 17.5583 26.5544C17.6463 26.4066 17.8218 26.3564 17.9762 26.4029C17.9963 26.4149 18.0245 26.4135 18.0514 26.4295C18.2193 26.5296 18.2763 26.7547 18.1763 26.9226C18.0762 27.0905 17.8511 27.1475 17.6832 27.0475C17.6563 27.0315 17.6401 27.0128 17.624 26.994ZM21.8022 29.4834C21.6879 29.3698 21.6485 29.1916 21.7365 29.0438C21.8246 28.896 22.0001 28.8459 22.1544 28.8923C22.1746 28.9043 22.2027 28.9029 22.2296 28.9189C22.3975 29.019 22.4545 29.2441 22.3545 29.412C22.2544 29.5799 22.0293 29.637 21.8614 29.5369C21.8345 29.5209 21.8184 29.5022 21.8022 29.4834ZM15.2867 30.917C15.1656 30.7994 15.1329 30.6251 15.2209 30.4774C15.309 30.3296 15.4778 30.2754 15.6389 30.3259C15.659 30.3379 15.6939 30.3405 15.714 30.3525C15.882 30.4525 15.939 30.6776 15.8389 30.8456C15.7389 31.0135 15.5138 31.0705 15.3458 30.9705C15.319 30.9545 15.3028 30.9357 15.2867 30.917ZM19.4649 33.4064C19.3506 33.2928 19.3111 33.1146 19.3992 32.9668C19.4872 32.819 19.6627 32.7688 19.8171 32.8153C19.8373 32.8273 19.8654 32.8259 19.8923 32.8419C20.0669 32.9459 20.1172 33.167 20.0172 33.335C19.9171 33.5029 19.692 33.5599 19.5241 33.4599C19.4972 33.4439 19.481 33.4251 19.4649 33.4064Z" fill="url(#paint1_linear_1354_15188)"/>
<path d="M18.0413 48.8231L18.0573 48.7962C17.2099 48.8283 13.6722 48.7776 9.03043 46.012C3.41467 42.6661 2.19978 39.2208 2.19978 39.2208L23.9961 2.63777C23.8888 2.61933 23.819 2.61418 23.819 2.61418L1.98268 39.2644C1.98268 39.2644 3.19757 42.7097 8.81333 46.0556C14.1604 49.2414 18.0373 48.8298 18.0373 48.8298L18.0413 48.8231Z" fill="#B3817F"/>
<path d="M40.0916 12.1371L18.2552 48.7873C18.2552 48.7873 18.1949 48.7968 18.0756 48.7986C18.3317 48.7964 18.4698 48.7786 18.4698 48.7786L40.3061 12.1283C40.3061 12.1283 37.7702 8.62408 33.1553 5.87453C28.5405 3.12497 24.2515 2.56293 24.2515 2.56293L24.2315 2.59651C25.1116 2.73862 28.8499 3.44585 32.9341 5.87922C37.5489 8.62878 40.0849 12.133 40.0849 12.133L40.0916 12.1371Z" fill="#FFDAB0"/>
<path d="M38.2182 12.2856C38.3183 12.1176 38.2613 11.8925 38.0933 11.7925C38.0665 11.7765 38.0423 11.7712 38.0182 11.7659C38.0773 11.8193 38.1138 11.8957 38.1261 11.9667C38.1261 11.9667 38.1221 11.9734 38.1248 11.9841C38.1331 12.0619 38.1239 12.1383 38.0839 12.2055C38.0439 12.2727 37.977 12.3239 37.9087 12.3469C37.9087 12.3469 37.9087 12.3469 37.8939 12.3563C37.8256 12.3793 37.7411 12.3836 37.666 12.357C37.6861 12.369 37.6983 12.3945 37.7251 12.4105C37.8931 12.5105 38.1182 12.4535 38.2182 12.2856Z" fill="#B3817F"/>
<path d="M34.042 9.79825C34.142 9.63032 34.085 9.40521 33.9171 9.30516C33.8902 9.28915 33.8661 9.28385 33.8419 9.27856C33.9011 9.33202 33.9375 9.40836 33.9498 9.47939C33.9498 9.47939 33.9458 9.48611 33.9485 9.49683C33.9568 9.57458 33.9477 9.65104 33.9076 9.71822C33.8676 9.78539 33.8007 9.83657 33.7324 9.85957C33.7324 9.85957 33.7284 9.86628 33.7177 9.86899C33.6493 9.892 33.5649 9.89628 33.4897 9.8697C33.4897 9.8697 33.522 9.90716 33.5489 9.92317C33.7235 10.0272 33.9419 9.96619 34.042 9.79825Z" fill="#B3817F"/>
<path d="M29.8569 7.30411C29.957 7.13618 29.8999 6.91106 29.732 6.811C29.7051 6.795 29.681 6.78971 29.6568 6.78442C29.716 6.83788 29.7524 6.91422 29.7647 6.98525C29.7647 6.98525 29.7607 6.99195 29.7634 7.00267C29.7717 7.08043 29.7626 7.15689 29.7226 7.22406C29.6825 7.29124 29.6156 7.34241 29.5473 7.36542C29.5473 7.36542 29.5433 7.37214 29.5326 7.37485C29.4643 7.39786 29.3798 7.40214 29.3046 7.37555C29.3248 7.38756 29.3369 7.41301 29.3638 7.42902C29.5317 7.52907 29.7569 7.47205 29.8569 7.30411Z" fill="#B3817F"/>
<path d="M25.4781 4.29614C25.5373 4.3496 25.5737 4.42594 25.586 4.49697C25.586 4.49697 25.582 4.50367 25.5847 4.51439C25.593 4.59215 25.5839 4.66861 25.5438 4.73578C25.5038 4.80296 25.4369 4.85413 25.3686 4.87714C25.3686 4.87714 25.3646 4.88386 25.3539 4.88657C25.2856 4.90958 25.2011 4.91386 25.1259 4.88727C25.1259 4.88727 25.1582 4.92474 25.1851 4.94075C25.3597 5.04481 25.5781 4.98377 25.6782 4.81583C25.7783 4.6479 25.7212 4.42279 25.5533 4.32274C25.5264 4.30673 25.5023 4.30143 25.4781 4.29614Z" fill="#B3817F"/>
<path d="M35.8838 16.2113C35.9838 16.0434 35.9268 15.8183 35.7589 15.7182C35.732 15.7022 35.7078 15.697 35.6837 15.6917C35.7429 15.7451 35.7793 15.8214 35.7916 15.8925C35.7916 15.8925 35.7876 15.8992 35.7903 15.9099C35.7986 15.9877 35.7895 16.0641 35.7494 16.1313C35.7094 16.1985 35.6425 16.2497 35.5742 16.2727C35.5742 16.2727 35.5702 16.2794 35.5595 16.2821C35.4911 16.3051 35.4067 16.3094 35.3315 16.2828C35.3516 16.2948 35.3638 16.3202 35.3907 16.3363C35.5586 16.4363 35.7837 16.3793 35.8838 16.2113Z" fill="#B3817F"/>
<path d="M31.7031 13.7201C31.8032 13.5522 31.7461 13.3271 31.5782 13.227C31.5513 13.211 31.5272 13.2057 31.503 13.2005C31.5622 13.2539 31.5919 13.3262 31.6109 13.4013C31.6109 13.4013 31.6069 13.408 31.6096 13.4187C31.6219 13.4897 31.6088 13.5729 31.5688 13.6401C31.5287 13.7073 31.4618 13.7584 31.3935 13.7814C31.3935 13.7814 31.3895 13.7882 31.3788 13.7909C31.3105 13.8139 31.226 13.8182 31.1508 13.7916C31.1508 13.7916 31.1831 13.829 31.21 13.845C31.3847 13.9491 31.603 13.8881 31.7031 13.7201Z" fill="#B3817F"/>
<path d="M27.5254 11.2299C27.6254 11.062 27.5684 10.8369 27.4005 10.7368C27.3736 10.7208 27.3494 10.7155 27.3253 10.7102C27.3845 10.7637 27.4209 10.84 27.4332 10.911C27.4332 10.911 27.4292 10.9177 27.4252 10.9245C27.4335 11.0022 27.4243 11.0787 27.3843 11.1458C27.3403 11.2197 27.2774 11.2642 27.2091 11.2872C27.2091 11.2872 27.2051 11.2939 27.1944 11.2966C27.126 11.3196 27.0416 11.3239 26.9664 11.2973C26.9865 11.3093 27.0054 11.3388 27.0255 11.3508C27.1935 11.4509 27.4186 11.3938 27.5187 11.2259L27.5254 11.2299Z" fill="#B3817F"/>
<path d="M23.3403 8.73673C23.4404 8.56879 23.3834 8.34369 23.2154 8.24363C23.1885 8.22762 23.1644 8.22235 23.1402 8.21706C23.1994 8.27051 23.2358 8.34683 23.2481 8.41787C23.2481 8.41787 23.2441 8.42457 23.2468 8.43529C23.2551 8.51304 23.246 8.58951 23.206 8.65668C23.1619 8.73057 23.099 8.77503 23.0307 8.79804C23.0307 8.79804 23.0267 8.80476 23.016 8.80747C22.9477 8.83048 22.8632 8.83476 22.788 8.80817C22.788 8.80817 22.8203 8.84564 22.8472 8.86164C23.0219 8.9657 23.2403 8.90467 23.3403 8.73673Z" fill="#B3817F"/>
<path d="M33.4491 19.8297C33.4574 19.9075 33.4482 19.984 33.4082 20.0511C33.3682 20.1183 33.3013 20.1695 33.233 20.1925C33.233 20.1925 33.229 20.1992 33.225 20.2059C33.1567 20.2289 33.0722 20.2332 32.997 20.2066C33.0172 20.2186 33.0293 20.2441 33.0562 20.2601C33.2241 20.3601 33.4492 20.3031 33.5493 20.1352C33.6493 19.9673 33.5923 19.7421 33.4244 19.6421C33.3975 19.6261 33.3734 19.6208 33.3492 19.6155C33.4084 19.669 33.4448 19.7453 33.4571 19.8163C33.4571 19.8163 33.4531 19.823 33.4491 19.8297Z" fill="#B3817F"/>
<path d="M29.2745 17.3261C29.2745 17.3261 29.2705 17.3328 29.2732 17.3435C29.2815 17.4213 29.2724 17.4977 29.2323 17.5649C29.1923 17.6321 29.1254 17.6832 29.0571 17.7063C29.0571 17.7063 29.0531 17.713 29.0424 17.7157C28.9741 17.7387 28.8896 17.743 28.8144 17.7164C28.8144 17.7164 28.8467 17.7538 28.8736 17.7698C29.0415 17.8699 29.2666 17.8129 29.3667 17.645C29.4187 17.5576 29.4264 17.453 29.402 17.3565C29.3763 17.2775 29.3224 17.1999 29.2418 17.1518C29.2149 17.1358 29.1907 17.1305 29.1666 17.1253C29.2258 17.1787 29.2622 17.255 29.2745 17.3261Z" fill="#B3817F"/>
<path d="M25.093 14.8492C25.1012 14.927 25.0921 15.0035 25.0521 15.0706C25.012 15.1378 24.9452 15.189 24.8768 15.212C24.8768 15.212 24.8768 15.212 24.8661 15.2147C24.7978 15.2377 24.7133 15.242 24.6381 15.2154C24.6583 15.2274 24.6704 15.2528 24.6973 15.2689C24.8653 15.3689 25.0904 15.3119 25.1904 15.144C25.2424 15.0566 25.2502 14.952 25.2257 14.8555C25.204 14.7698 25.1461 14.6989 25.0655 14.6509C25.0386 14.6349 25.0145 14.6296 24.9903 14.6243C25.0495 14.6777 25.086 14.754 25.0982 14.8251C25.0982 14.8251 25.0942 14.8318 25.097 14.8425L25.093 14.8492Z" fill="#B3817F"/>
<path d="M20.877 12.1645C20.877 12.1645 20.826 12.1432 20.8018 12.138C20.861 12.1914 20.8975 12.2677 20.9098 12.3388C20.9098 12.3388 20.9057 12.3455 20.9085 12.3562C20.9167 12.4339 20.9076 12.5104 20.8676 12.5776C20.8275 12.6448 20.7607 12.6959 20.6923 12.7189C20.6923 12.7189 20.6883 12.7257 20.6776 12.7284C20.6093 12.7514 20.5248 12.7557 20.4497 12.7291C20.4497 12.7291 20.482 12.7665 20.5088 12.7825C20.6835 12.8866 20.9019 12.8256 21.0019 12.6576C21.102 12.4897 21.0517 12.2686 20.877 12.1645Z" fill="#B3817F"/>
<path d="M31.1145 23.7527C31.1228 23.8304 31.1137 23.9069 31.0736 23.9741C31.0336 24.0413 30.9667 24.0924 30.8984 24.1154C30.8984 24.1154 30.8984 24.1154 30.8837 24.1249C30.8154 24.1479 30.7309 24.1522 30.6557 24.1256C30.6759 24.1376 30.688 24.163 30.7149 24.179C30.8828 24.2791 31.1079 24.2221 31.208 24.0541C31.308 23.8862 31.251 23.6611 31.0831 23.561C31.0562 23.545 31.0321 23.5397 31.0079 23.5344C31.0671 23.5879 31.1035 23.6642 31.1158 23.7353C31.1158 23.7353 31.1118 23.742 31.1145 23.7527Z" fill="#B3817F"/>
<path d="M27.0278 21.5649C27.1279 21.3969 27.0709 21.1718 26.9029 21.0718C26.876 21.0557 26.8519 21.0505 26.8277 21.0452C26.8869 21.0986 26.9233 21.175 26.9356 21.246C26.9356 21.246 26.9316 21.2527 26.9344 21.2634C26.9426 21.3412 26.9335 21.4177 26.8935 21.4848C26.8534 21.552 26.7866 21.6032 26.7182 21.6262C26.7182 21.6262 26.7142 21.6329 26.7035 21.6356C26.6352 21.6586 26.5507 21.6629 26.4755 21.6363C26.4755 21.6363 26.5078 21.6738 26.5347 21.6898C26.7094 21.7938 26.9277 21.7328 27.0278 21.5649Z" fill="#B3817F"/>
<path d="M22.8432 19.0717C22.9433 18.9038 22.8863 18.6786 22.7183 18.5786C22.6915 18.5626 22.6673 18.5573 22.6432 18.552C22.7023 18.6055 22.7388 18.6818 22.7511 18.7528C22.7511 18.7528 22.747 18.7595 22.7498 18.7703C22.7581 18.848 22.7489 18.9245 22.7089 18.9917C22.6648 19.0656 22.602 19.11 22.5336 19.133C22.5336 19.133 22.5297 19.1397 22.5189 19.1424C22.4506 19.1654 22.3661 19.1697 22.291 19.1432C22.3111 19.1552 22.33 19.1846 22.3501 19.1966C22.518 19.2967 22.7432 19.2396 22.8432 19.0717Z" fill="#B3817F"/>
<path d="M18.5406 16.0913C18.5406 16.0913 18.4896 16.07 18.4654 16.0647C18.5246 16.1182 18.561 16.1945 18.5733 16.2655C18.5733 16.2655 18.5693 16.2722 18.572 16.2829C18.5803 16.3607 18.5712 16.4372 18.5311 16.5044C18.4871 16.5782 18.4242 16.6227 18.3559 16.6457C18.3559 16.6457 18.3519 16.6524 18.3412 16.6551C18.2729 16.6781 18.1884 16.6824 18.1132 16.6558C18.1132 16.6558 18.1455 16.6933 18.1724 16.7093C18.3471 16.8134 18.5654 16.7523 18.6655 16.5844C18.7656 16.4165 18.7085 16.1913 18.5406 16.0913Z" fill="#B3817F"/>
<path d="M28.7752 27.6794C28.7875 27.7505 28.7743 27.8337 28.7343 27.9008C28.6943 27.968 28.6274 28.0192 28.5591 28.0422C28.5591 28.0422 28.555 28.0489 28.5443 28.0516C28.476 28.0746 28.3915 28.0789 28.3164 28.0523C28.3365 28.0643 28.3487 28.0898 28.3755 28.1058C28.5435 28.2058 28.7686 28.1488 28.8686 27.9809C28.9687 27.8129 28.9117 27.5878 28.7437 27.4878C28.7169 27.4718 28.6927 27.4665 28.6686 27.4612C28.7277 27.5146 28.7642 27.591 28.7765 27.662C28.7765 27.662 28.7725 27.6687 28.7752 27.6794Z" fill="#B3817F"/>
<path d="M24.686 25.4955C24.7861 25.3276 24.7291 25.1025 24.5611 25.0024C24.5343 24.9864 24.5101 24.9811 24.4859 24.9758C24.5451 25.0293 24.5815 25.1056 24.5938 25.1767C24.5938 25.1767 24.5898 25.1834 24.5926 25.1941C24.6008 25.2718 24.5917 25.3483 24.5517 25.4155C24.5117 25.4827 24.4448 25.5338 24.3764 25.5568C24.3764 25.5568 24.3724 25.5635 24.3617 25.5663C24.2934 25.5893 24.2089 25.5935 24.1337 25.567C24.1337 25.567 24.166 25.6044 24.1929 25.6204C24.3676 25.7245 24.586 25.6635 24.686 25.4955Z" fill="#B3817F"/>
<path d="M20.501 23.0024C20.605 22.8277 20.544 22.6093 20.376 22.5092C20.3492 22.4932 20.325 22.488 20.3009 22.4827C20.36 22.5361 20.3965 22.6125 20.4088 22.6835C20.4088 22.6835 20.4048 22.6902 20.4075 22.7009C20.4158 22.7787 20.4066 22.8551 20.3666 22.9223C20.3266 22.9895 20.2597 23.0407 20.1914 23.0637C20.1914 23.0637 20.1874 23.0704 20.1767 23.0731C20.1083 23.0961 20.0239 23.1004 19.9487 23.0738C19.9688 23.0858 19.981 23.1112 20.0078 23.1273C20.1758 23.2273 20.4009 23.1703 20.501 23.0024Z" fill="#B3817F"/>
<path d="M16.1983 20.021C16.1983 20.021 16.1473 19.9997 16.1231 19.9944C16.1823 20.0479 16.2188 20.1242 16.231 20.1952C16.231 20.1952 16.227 20.2019 16.2297 20.2126C16.238 20.2904 16.2289 20.3668 16.1889 20.434C16.1488 20.5012 16.0819 20.5524 16.0136 20.5754C16.0136 20.5754 16.0096 20.5821 15.9989 20.5848C15.9306 20.6078 15.8461 20.6121 15.7709 20.5855C15.7709 20.5855 15.8032 20.623 15.8301 20.639C16.0048 20.743 16.2232 20.682 16.3232 20.5141C16.4233 20.3461 16.3663 20.121 16.1983 20.021Z" fill="#B3817F"/>
<path d="M26.4373 31.5994C26.4456 31.6771 26.4364 31.7536 26.3964 31.8208C26.3564 31.8879 26.2895 31.9391 26.2212 31.9621C26.2212 31.9621 26.2172 31.9688 26.2064 31.9715C26.1381 31.9945 26.0536 31.9988 25.9785 31.9722C25.9986 31.9842 26.0108 32.0097 26.0376 32.0257C26.2056 32.1257 26.4307 32.0687 26.5307 31.9008C26.6308 31.7329 26.5738 31.5078 26.4058 31.4077C26.379 31.3917 26.3548 31.3864 26.3307 31.3811C26.3898 31.4346 26.4263 31.5109 26.4386 31.5819C26.4386 31.5819 26.4346 31.5886 26.4306 31.5954L26.4373 31.5994Z" fill="#B3817F"/>
<path d="M22.3496 29.4203C22.4496 29.2524 22.3926 29.0273 22.2247 28.9272C22.1978 28.9112 22.1737 28.9059 22.1495 28.9007C22.2087 28.9541 22.2451 29.0304 22.2574 29.1015C22.2574 29.1015 22.2534 29.1082 22.2561 29.1189C22.2644 29.1967 22.2553 29.2731 22.2152 29.3403C22.1752 29.4075 22.1083 29.4586 22.04 29.4816C22.04 29.4816 22.036 29.4883 22.0253 29.4911C21.957 29.5141 21.8725 29.5184 21.7973 29.4918C21.7973 29.4918 21.8296 29.5292 21.8565 29.5452C22.0244 29.6453 22.2495 29.5883 22.3496 29.4203Z" fill="#B3817F"/>
<path d="M18.164 26.9272C18.2641 26.7592 18.2071 26.5341 18.0391 26.4341C18.0123 26.418 17.9881 26.4128 17.964 26.4075C18.0231 26.4609 18.0596 26.5373 18.0719 26.6083C18.0719 26.6083 18.0679 26.615 18.0706 26.6257C18.0789 26.7035 18.0697 26.78 18.0297 26.8471C17.9857 26.921 17.9228 26.9655 17.8544 26.9885C17.8544 26.9885 17.8505 26.9952 17.8397 26.9979C17.7714 27.0209 17.6869 27.0252 17.6118 26.9986C17.6319 27.0106 17.644 27.0361 17.6709 27.0521C17.8389 27.1521 18.064 27.0951 18.164 26.9272Z" fill="#B3817F"/>
<path d="M13.8595 23.9409C13.8595 23.9409 13.8084 23.9196 13.7843 23.9143C13.8434 23.9678 13.8799 24.0441 13.8922 24.1151C13.8922 24.1151 13.8882 24.1218 13.8909 24.1326C13.8992 24.2103 13.89 24.2868 13.85 24.354C13.806 24.4279 13.7431 24.4723 13.6748 24.4953C13.6748 24.4953 13.6708 24.502 13.66 24.5047C13.5917 24.5277 13.5072 24.532 13.4321 24.5055C13.4321 24.5055 13.4644 24.5429 13.4912 24.5589C13.6659 24.663 13.8843 24.602 13.9843 24.434C14.0844 24.2661 14.0341 24.045 13.8595 23.9409Z" fill="#B3817F"/>
<path d="M24.0945 35.5291C24.1028 35.6068 24.0936 35.6833 24.0536 35.7505C24.0136 35.8176 23.9467 35.8688 23.8784 35.8918C23.8784 35.8918 23.8744 35.8985 23.8637 35.9012C23.7953 35.9242 23.7109 35.9285 23.6357 35.9019C23.6558 35.9139 23.668 35.9394 23.6949 35.9554C23.8628 36.0555 24.0879 35.9984 24.188 35.8305C24.288 35.6626 24.231 35.4374 24.0631 35.3374C24.0362 35.3214 24.012 35.3161 23.9879 35.3108C24.0471 35.3643 24.0835 35.4406 24.0958 35.5116C24.0958 35.5116 24.0918 35.5183 24.0945 35.5291Z" fill="#B3817F"/>
<path d="M20.0102 33.3422C20.1103 33.1743 20.0533 32.9492 19.8853 32.8491C19.8585 32.8331 19.8343 32.8278 19.8101 32.8225C19.8693 32.876 19.9058 32.9523 19.9181 33.0233C19.9181 33.0233 19.9141 33.0301 19.9168 33.0408C19.9251 33.1185 19.9159 33.195 19.8759 33.2622C19.8359 33.3294 19.769 33.3805 19.7007 33.4035C19.7007 33.4035 19.6966 33.4102 19.6859 33.4129C19.6176 33.4359 19.5331 33.4402 19.4579 33.4137C19.4579 33.4137 19.4903 33.4511 19.5171 33.4671C19.6918 33.5712 19.9102 33.5102 20.0102 33.3422Z" fill="#B3817F"/>
<path d="M15.8344 30.8549C15.9345 30.687 15.8775 30.4619 15.7096 30.3618C15.6827 30.3458 15.6585 30.3405 15.6344 30.3352C15.6935 30.3887 15.73 30.465 15.7423 30.536C15.7423 30.536 15.7383 30.5427 15.741 30.5535C15.7493 30.6312 15.7401 30.7077 15.7001 30.7749C15.6601 30.8421 15.5932 30.8932 15.5249 30.9162C15.5249 30.9162 15.5209 30.9229 15.5101 30.9256C15.4418 30.9486 15.3573 30.9529 15.2822 30.9264C15.3023 30.9384 15.3212 30.9678 15.3413 30.9798C15.5093 31.0799 15.7344 31.0228 15.8344 30.8549Z" fill="#B3817F"/>
<path d="M11.523 27.8667C11.523 27.8667 11.472 27.8454 11.4478 27.8401C11.507 27.8936 11.5435 27.9699 11.5557 28.0409C11.5557 28.0409 11.5517 28.0476 11.5545 28.0583C11.5627 28.1361 11.5536 28.2126 11.5136 28.2797C11.4735 28.3469 11.4066 28.3981 11.3383 28.4211C11.3383 28.4211 11.3343 28.4278 11.3236 28.4305C11.2553 28.4535 11.1708 28.4578 11.0956 28.4312C11.0956 28.4312 11.128 28.4687 11.1548 28.4847C11.3228 28.5847 11.5479 28.5277 11.6479 28.3598C11.748 28.1919 11.691 27.9667 11.523 27.8667Z" fill="#B3817F"/>
<path d="M21.8526 39.7552C21.9527 39.5872 21.8957 39.3621 21.7277 39.2621C21.7009 39.2461 21.6767 39.2408 21.6526 39.2355C21.7117 39.2889 21.7482 39.3653 21.7605 39.4363C21.7605 39.4363 21.7565 39.443 21.7592 39.4537C21.7715 39.5248 21.7583 39.608 21.7183 39.6751C21.6783 39.7423 21.6114 39.7935 21.5431 39.8165C21.5431 39.8165 21.5391 39.8232 21.535 39.8299C21.4667 39.8529 21.3823 39.8572 21.3071 39.8306C21.3272 39.8426 21.3394 39.8681 21.3663 39.8841C21.5342 39.9841 21.7593 39.9271 21.8594 39.7592L21.8526 39.7552Z" fill="#B3817F"/>
<path d="M17.437 37.4363C17.5295 37.4186 17.6178 37.362 17.6738 37.268C17.7739 37.1 17.7169 36.8749 17.5489 36.7749C17.522 36.7589 17.4979 36.7536 17.4737 36.7483C17.5329 36.8017 17.5694 36.8781 17.5816 36.9491C17.5816 36.9491 17.5776 36.9558 17.5804 36.9665C17.5887 37.0443 17.5795 37.1208 17.5395 37.1879C17.4995 37.2551 17.4326 37.3063 17.3642 37.3293C17.3642 37.3293 17.3602 37.336 17.3495 37.3387C17.2812 37.3617 17.1967 37.366 17.1215 37.3394C17.1215 37.3394 17.1538 37.3769 17.1807 37.3929C17.2613 37.4409 17.3552 37.4513 17.437 37.4363Z" fill="#B3817F"/>
<path d="M13.3658 34.2817C13.3658 34.2817 13.3148 34.2604 13.2906 34.2551C13.3498 34.3086 13.3862 34.3849 13.3985 34.4559C13.3985 34.4559 13.3945 34.4626 13.3972 34.4734C13.4055 34.5511 13.3964 34.6276 13.3563 34.6948C13.3123 34.7687 13.2494 34.8131 13.1811 34.8361C13.1811 34.8361 13.1771 34.8428 13.1664 34.8456C13.0981 34.8686 13.0136 34.8728 12.9384 34.8463C12.9586 34.8583 12.9707 34.8837 12.9976 34.8997C13.0782 34.9477 13.1721 34.9582 13.2539 34.9432C13.3463 34.9255 13.4347 34.8689 13.4907 34.7748C13.5908 34.6069 13.5337 34.3818 13.3658 34.2817Z" fill="#B3817F"/>
<path d="M9.31053 32.2826C9.41058 32.1147 9.35357 31.8896 9.18563 31.7895C9.15876 31.7735 9.13461 31.7682 9.11046 31.7629C9.16962 31.8164 9.20607 31.8927 9.21836 31.9637C9.21836 31.9637 9.21435 31.9704 9.21706 31.9812C9.22535 32.0589 9.21619 32.1354 9.17617 32.2026C9.13215 32.2765 9.06926 32.3209 9.00094 32.3439C9.00094 32.3439 8.99694 32.3507 8.98622 32.3534C8.9179 32.3764 8.83343 32.3807 8.75825 32.3541C8.75825 32.3541 8.79056 32.3915 8.81743 32.4075C8.99208 32.5116 9.20647 32.4573 9.31053 32.2826Z" fill="#B3817F"/>
<path d="M19.5112 43.686C19.6113 43.518 19.5543 43.2929 19.3863 43.1929C19.3594 43.1768 19.3353 43.1716 19.3111 43.1663C19.3703 43.2197 19.4067 43.2961 19.419 43.3671C19.419 43.3671 19.415 43.3738 19.4178 43.3845C19.426 43.4623 19.4169 43.5388 19.3769 43.6059C19.3368 43.6731 19.2699 43.7243 19.2016 43.7473C19.2016 43.7473 19.1976 43.754 19.1869 43.7567C19.1186 43.7797 19.0341 43.784 18.9589 43.7574C18.9791 43.7694 18.9912 43.7949 19.0181 43.8109C19.186 43.9109 19.4111 43.8539 19.5112 43.686Z" fill="#B3817F"/>
<path d="M15.333 41.1967C15.433 41.0288 15.376 40.8037 15.2081 40.7036C15.1812 40.6876 15.1571 40.6823 15.1329 40.677C15.1921 40.7305 15.2285 40.8068 15.2408 40.8778C15.2408 40.8778 15.2368 40.8845 15.2395 40.8953C15.2478 40.973 15.2387 41.0495 15.1986 41.1167C15.1586 41.1838 15.0917 41.235 15.0234 41.258C15.0234 41.258 15.0194 41.2647 15.0087 41.2674C14.9404 41.2904 14.8559 41.2947 14.7807 41.2682C14.7807 41.2682 14.813 41.3056 14.8399 41.3216C15.0145 41.4257 15.2329 41.3646 15.333 41.1967Z" fill="#B3817F"/>
<path d="M11.1479 38.7045C11.248 38.5366 11.191 38.3115 11.023 38.2114C10.9961 38.1954 10.972 38.1901 10.9478 38.1848C11.007 38.2383 11.0435 38.3146 11.0557 38.3856C11.0557 38.3856 11.0517 38.3923 11.0545 38.4031C11.0627 38.4808 11.0536 38.5573 11.0136 38.6245C10.9735 38.6916 10.9066 38.7428 10.8383 38.7658C10.8383 38.7658 10.8343 38.7725 10.8236 38.7752C10.7553 38.7983 10.6708 38.8026 10.5956 38.776C10.6158 38.788 10.6279 38.8134 10.6548 38.8294C10.8227 38.9295 11.0479 38.8725 11.1479 38.7045Z" fill="#B3817F"/>
<path d="M6.96823 36.2114C7.06829 36.0434 7.01128 35.8183 6.84335 35.7182C6.81648 35.7022 6.79231 35.697 6.76816 35.6917C6.82733 35.7451 6.86377 35.8214 6.87606 35.8925C6.87606 35.8925 6.87205 35.8992 6.87476 35.9099C6.88305 35.9877 6.8739 36.0641 6.83387 36.1313C6.79385 36.1985 6.72696 36.2496 6.65864 36.2726C6.65864 36.2726 6.65466 36.2794 6.64394 36.2821C6.57562 36.3051 6.49114 36.3094 6.41596 36.2828C6.41596 36.2828 6.44827 36.3202 6.47513 36.3363C6.64979 36.4403 6.86817 36.3793 6.96823 36.2114Z" fill="#B3817F"/>
<path d="M17.1743 47.6118C17.2743 47.4438 17.2173 47.2187 17.0494 47.1186C17.0225 47.1026 16.9984 47.0973 16.9742 47.0921C17.0334 47.1455 17.0698 47.2218 17.0821 47.2929C17.0821 47.2929 17.0781 47.2996 17.0808 47.3103C17.0891 47.3881 17.08 47.4645 17.0399 47.5317C16.9999 47.5989 16.933 47.65 16.8647 47.6731C16.8647 47.6731 16.8607 47.6798 16.85 47.6825C16.7817 47.7055 16.6972 47.7098 16.622 47.6832C16.6422 47.6952 16.6543 47.7206 16.6812 47.7366C16.8491 47.8367 17.0742 47.7797 17.1743 47.6118Z" fill="#B3817F"/>
<path d="M12.9941 45.1196C13.0942 44.9516 13.0372 44.7265 12.8692 44.6264C12.8424 44.6104 12.8182 44.6052 12.794 44.5999C12.8532 44.6533 12.8829 44.7256 12.9019 44.8007C12.9019 44.8007 12.8979 44.8074 12.9007 44.8181C12.913 44.8892 12.8998 44.9724 12.8598 45.0395C12.8198 45.1067 12.7529 45.1579 12.6845 45.1809C12.6845 45.1809 12.6805 45.1876 12.6698 45.1903C12.6015 45.2133 12.517 45.2176 12.4418 45.191C12.4418 45.191 12.4741 45.2284 12.501 45.2445C12.6757 45.3485 12.8941 45.2875 12.9941 45.1196Z" fill="#B3817F"/>
<path d="M8.80905 42.6244C8.91311 42.4498 8.85208 42.2314 8.68415 42.1313C8.65728 42.1153 8.63313 42.11 8.60898 42.1048C8.66815 42.1582 8.70459 42.2345 8.71688 42.3056C8.71688 42.3056 8.71286 42.3123 8.71958 42.3163C8.72787 42.394 8.71872 42.4705 8.6787 42.5377C8.63468 42.6116 8.57179 42.656 8.50347 42.679C8.50347 42.679 8.49947 42.6857 8.48875 42.6885C8.42043 42.7115 8.33596 42.7158 8.26078 42.6892C8.28094 42.7012 8.29307 42.7266 8.31994 42.7426C8.48788 42.8427 8.713 42.7857 8.81306 42.6177L8.80905 42.6244Z" fill="#B3817F"/>
<path d="M4.53866 39.8163C4.53866 39.8163 4.53465 39.823 4.53736 39.8337C4.54565 39.9115 4.53649 39.988 4.49647 40.0551C4.45645 40.1223 4.38956 40.1735 4.32124 40.1965C4.32124 40.1965 4.31725 40.2032 4.30653 40.2059C4.23821 40.2289 4.15373 40.2332 4.07855 40.2066C4.07855 40.2066 4.11086 40.2441 4.13773 40.2601C4.31239 40.3641 4.53077 40.3031 4.63083 40.1352C4.73489 39.9605 4.67388 39.7421 4.50595 39.6421C4.47908 39.6261 4.45491 39.6208 4.43076 39.6155C4.48993 39.669 4.52637 39.7453 4.53866 39.8163Z" fill="#B3817F"/>
<defs>
<linearGradient id="paint0_linear_1354_15188" x1="50.1675" y1="30.3018" x2="14.4405" y2="24.7438" gradientUnits="userSpaceOnUse">
<stop stop-color="#756A62"/>
<stop offset="1"/>
</linearGradient>
<linearGradient id="paint1_linear_1354_15188" x1="33.678" y1="32.0081" x2="22.9851" y2="26.9024" gradientUnits="userSpaceOnUse">
<stop stop-color="#8F8177"/>
<stop offset="1"/>
</linearGradient>
</defs>
</svg>
