<svg viewBox="0 0 35 16" fill="none" xmlns="http://www.w3.org/2000/svg">
<path d="M7.74263 8.1865C7.71747 8.49685 7.61681 8.61427 7.43227 8.63943C7.36517 8.76525 7.29807 8.88268 7.16386 8.93301C6.95416 9.01688 6.68575 9.02527 6.45928 9.08399C6.42572 9.09237 6.40056 9.10076 6.36701 9.11753C6.21603 9.26851 6.05665 9.40272 5.8889 9.53692C5.79663 9.65435 5.70436 9.78016 5.6037 9.8892C5.57015 9.92276 5.52821 9.9647 5.49466 9.99825C5.4695 10.057 5.44434 10.1157 5.41917 10.1828C5.35207 10.3673 5.30174 10.577 5.17592 10.7112C5.06688 10.837 4.94106 10.9125 4.75653 10.9293C4.62232 10.9377 4.42939 10.9293 4.32874 11.0132C4.24486 11.097 4.19453 11.2145 4.1442 11.3319C4.05194 11.5584 3.94289 11.7848 3.79191 11.9526C3.72481 12.0281 3.65771 12.1036 3.5906 12.1791C3.5235 12.2713 3.44801 12.3468 3.37251 12.4223L3.35574 12.4475C3.35574 12.4475 3.32219 12.4978 3.30541 12.5146C3.1712 12.6991 3.02022 12.8752 2.86924 13.043C2.79375 13.1269 2.70986 13.2107 2.63437 13.2862L2.39951 13.5379C2.17304 13.7811 1.95495 14.0411 1.70332 14.2592C1.42651 14.4857 1.17487 14.7205 0.990337 15.0309C0.85613 15.249 0.738699 15.4754 0.604492 15.6851C0.965174 15.4167 1.49362 15.3244 1.8543 15.0728C2.25692 14.8044 3.00345 15.0309 3.19637 14.536C3.23831 14.427 3.21314 14.276 3.19637 14.125C3.38929 13.9489 3.58221 13.7727 3.77513 13.5966C3.85901 13.5714 3.94289 13.5379 3.99322 13.4708C4.06032 13.3953 4.13582 13.3198 4.20292 13.2527C4.29519 12.9675 4.42939 12.6991 4.73975 12.7075C5.04171 12.7075 5.48628 12.9843 5.89729 13.2024C5.83857 13.0514 5.80501 12.9256 5.78824 12.8165C5.58693 12.4055 5.69597 12.33 5.83018 12.1539C5.99794 11.9274 6.14892 11.6842 6.33346 11.4913C6.55154 11.2564 6.81157 11.0551 7.03804 10.8286C7.18063 10.8286 7.33162 10.8286 7.49099 10.8454C7.65036 10.8622 7.80974 10.8957 7.96072 10.9377C8.00266 10.9461 8.05298 10.9461 8.10331 10.9377C8.12848 10.9377 8.15364 10.9209 8.1788 10.9125C8.44721 10.8035 8.36334 10.2918 8.56465 10.0989C8.70725 9.95631 8.93372 9.95631 9.16019 9.94792C9.31956 9.88082 9.47054 9.80533 9.62153 9.73823C9.76412 9.67951 9.93188 9.65435 10.0829 9.60402C10.1584 9.52015 10.2255 9.42788 10.2926 9.31884C10.3093 9.29368 10.3597 9.33562 10.3932 9.39433C10.41 9.37755 10.4268 9.35239 10.4352 9.32723C10.5358 9.13431 10.6449 8.94978 10.7539 8.77364C10.8713 8.60588 10.9888 8.45491 11.123 8.31231C11.3914 8.02713 11.6933 7.80905 12.0624 7.66646C12.3224 7.56581 12.5741 7.44838 12.8089 7.30579C13.0522 7.1632 13.2787 7.01222 13.5135 6.86124C13.7316 6.82769 13.9413 6.80252 14.1594 6.76897C14.6711 6.70187 15.2079 6.67671 15.6944 6.56767C15.9125 6.51734 16.1054 6.41669 16.2983 6.30765C16.4912 6.19861 16.6842 6.09796 16.8855 6.02247C17.2462 5.88826 17.5397 5.61147 17.8333 5.29274C18.0011 5.24241 18.1688 5.17531 18.345 5.13337C18.5211 5.09143 18.6889 5.04949 18.865 5.00755C19.2341 4.93207 19.6283 4.91529 19.9722 4.7727C20.1232 4.70559 20.2658 4.58817 20.4084 4.51268C20.6181 4.40364 20.9033 4.52945 21.113 4.42041C21.4401 4.26105 21.7002 3.98425 22.0357 3.85844C22.195 3.84166 22.3544 3.83327 22.5222 3.8165C22.6899 3.80811 22.8493 3.79972 23.0087 3.78295C23.3358 3.7494 23.6462 3.69907 23.9397 3.58164C24.1243 3.51454 24.2669 3.36356 24.4179 3.22097C24.5688 3.08677 24.7282 2.94418 24.9211 2.93579C25.3154 2.89385 25.6677 3.0616 26.0535 2.91901C26.4226 2.78481 26.7916 2.62544 27.1523 2.4493L27.3452 2.41575C28.0498 2.28155 28.7209 2.00475 29.4087 1.69441C29.5345 1.66924 29.6519 1.66085 29.7777 1.64408L30.1468 1.60214L30.885 1.52665L31.6315 1.44278L32.0005 1.40084L32.1851 1.38406H32.3696C32.6129 1.33373 32.8561 1.2918 33.091 1.22469C33.5188 1.11565 33.9549 0.981451 34.3911 0.931124C33.2839 0.880798 32.1599 0.645942 31.0359 0.780145C30.5746 0.830471 30.1133 0.905961 29.6519 0.998226L29.4842 1.03178L29.3164 1.07372L28.9725 1.14921C28.746 1.19953 28.5196 1.24986 28.2847 1.2918C27.8485 1.36729 27.4123 1.426 26.9678 1.45955C26.5316 1.50988 26.0871 1.53504 25.6341 1.51826C24.4346 1.71118 23.2687 2.01314 22.086 2.28993L20.3413 2.7932L19.9051 2.91901C19.7625 2.96095 19.6199 3.01967 19.4774 3.0616L18.6134 3.35517C18.5211 3.35517 18.4289 3.35517 18.3282 3.35517C17.5649 3.29646 16.961 3.80811 16.3403 4.14362C16.2061 4.21911 16.0719 4.2946 15.946 4.37848C15.5602 4.52945 15.1911 4.7056 14.8137 4.87335L13.6897 5.39339C13.3206 5.56953 12.9599 5.77083 12.5909 5.95536L12.0456 6.24055C11.8611 6.33281 11.6766 6.42508 11.5004 6.53412C11.4501 6.54251 11.3914 6.55089 11.3327 6.55928C10.9552 6.58444 10.6281 6.73542 10.3261 6.91157C10.1751 7.00383 10.0242 7.0961 9.88156 7.19675C9.73057 7.28901 9.58797 7.38967 9.43699 7.47354C9.18535 7.7755 8.88339 7.99358 8.44721 7.98519C8.33817 7.98519 8.22074 7.95164 8.10331 7.91809C7.95233 7.98519 7.81812 8.07746 7.6923 8.1865H7.74263Z" fill="#B62427"/>
<g style="mix-blend-mode:multiply">
<path d="M8.22924 8.92528C8.12858 9.10981 8.01115 9.21046 7.86017 9.27757C7.77629 9.36983 7.68402 9.46209 7.56659 9.52081C7.37367 9.62146 7.16397 9.69695 6.96266 9.7976C6.93749 9.81438 6.90394 9.82277 6.87878 9.83954C6.71941 9.97375 6.55165 10.0996 6.39228 10.2254C6.29162 10.326 6.18258 10.4267 6.07354 10.5189L5.95611 10.6112C5.91417 10.6532 5.88061 10.6951 5.84706 10.7454C5.7464 10.8712 5.64575 11.0222 5.51154 11.1396C5.39411 11.2487 5.26829 11.3326 5.1257 11.3997C5.01665 11.45 4.87406 11.4919 4.7734 11.5758C4.68114 11.6513 4.61404 11.7436 4.54693 11.8274C4.41272 11.9952 4.26174 12.1713 4.09398 12.3223L3.87589 12.5236C3.8004 12.5991 3.72491 12.6746 3.64103 12.7417L3.62425 12.7585C3.62425 12.7585 3.58231 12.8004 3.56554 12.8172C3.40617 12.9765 3.2468 13.1359 3.08743 13.2869L2.83579 13.5134L2.59254 13.7482C2.35768 13.9831 2.12281 14.2179 1.87118 14.436C1.61115 14.6625 1.37629 14.8889 1.1582 15.149C1.3679 15.0483 1.5776 14.956 1.77891 14.8554C1.98861 14.7547 2.18153 14.6541 2.36606 14.5199C2.57576 14.3689 2.76869 14.2012 2.96161 14.0334C2.97839 13.9915 2.99516 13.9495 3.01194 13.9076C3.20486 13.7314 3.40617 13.5553 3.60748 13.3875C3.68297 13.3456 3.75007 13.2953 3.80879 13.245C3.85073 13.203 3.89267 13.1695 3.93461 13.1275C3.93461 13.1275 3.93461 13.1275 3.93461 13.1191C4.10237 12.8172 4.354 12.6327 4.64758 12.4733C4.99149 12.2888 5.25991 12.0623 5.50316 11.7519C5.73802 11.45 6.04837 11.2403 6.35872 11.0306C6.67746 10.8293 6.99621 10.6364 7.30656 10.4267C7.63369 10.2086 7.95244 9.98213 8.26279 9.73889C8.42216 9.62146 8.58992 9.5292 8.75767 9.43693C8.93382 9.35306 9.10997 9.27757 9.28611 9.1853C9.52936 9.05949 9.77261 8.91689 10.0075 8.7743C10.1249 8.69881 10.2423 8.63171 10.3598 8.55622C10.4772 8.48073 10.5862 8.40524 10.7037 8.32975C11.0895 8.01102 11.5005 7.72584 11.9703 7.49937C12.2219 7.37355 12.4651 7.24774 12.7084 7.12192C12.9516 6.98772 13.1949 6.85352 13.4381 6.71092L14.0253 6.50123C14.5034 6.34187 14.9899 6.21605 15.4513 6.04829C15.661 5.9728 15.8623 5.87215 16.0552 5.77989C16.2565 5.67923 16.4578 5.59536 16.6675 5.51148C17.0282 5.36889 17.3637 5.16758 17.6992 4.95789C17.867 4.89918 18.0347 4.83207 18.2025 4.77336L18.7142 4.614C19.0748 4.50496 19.4523 4.42946 19.8046 4.29526C19.964 4.23655 20.1149 4.15267 20.2659 4.09396C20.484 4.01008 20.7357 4.01847 20.9537 3.93459C21.2893 3.80877 21.5912 3.64102 21.9351 3.52359C22.0945 3.49004 22.2539 3.45649 22.4132 3.42294C22.5726 3.39778 22.732 3.36423 22.8914 3.33906C23.2101 3.28035 23.5288 3.21325 23.8308 3.12098C23.8644 3.1126 23.8979 3.09582 23.9398 3.08743C24.0908 3.01194 24.2418 2.94484 24.4012 2.87774C24.5354 2.81902 24.6612 2.75192 24.8122 2.72676C25.2903 2.58417 25.7768 2.47513 26.2717 2.37448C26.733 2.28221 27.1944 2.18995 27.6641 2.08929C28.1338 1.98025 28.5868 1.82089 29.0481 1.66152C29.2075 1.60281 29.3752 1.55248 29.543 1.50215C29.7107 1.46022 29.8701 1.42666 30.0379 1.38472C30.3734 1.31762 30.7089 1.25052 31.0444 1.2002C30.8599 1.22536 30.667 1.25052 30.4824 1.28407H30.4237C30.1218 1.31762 29.8282 1.35117 29.5346 1.38472C29.241 1.43505 28.9474 1.48538 28.6539 1.52732C28.6119 1.52732 28.5952 1.54409 28.5868 1.55248C25.2735 1.98025 21.9855 2.75192 18.8232 3.87588C18.7393 3.89265 18.6471 3.90943 18.5632 3.9262C17.867 4.02686 17.2211 4.4043 16.6004 4.69787L16.1894 4.89079C16.1894 4.89079 16.1223 4.91595 15.9965 4.96628C15.8706 5.01661 15.6945 5.09209 15.4932 5.19275C15.0738 5.38566 14.5202 5.6373 13.9666 5.89732C13.4214 6.16572 12.8845 6.4509 12.4735 6.6606C12.2722 6.76964 12.1045 6.85352 11.9786 6.91223C11.8612 6.97933 11.7941 7.01288 11.7941 7.01288C11.7438 7.02966 11.6935 7.04643 11.6515 7.06321C11.3244 7.17225 11.014 7.33162 10.7121 7.50776L10.2675 7.77616C10.1165 7.86843 9.97393 7.96069 9.82295 8.05296C9.53776 8.28781 9.23579 8.49751 8.87511 8.59816C8.79123 8.62332 8.69896 8.6401 8.60669 8.64849C8.4641 8.72398 8.32989 8.81624 8.20407 8.91689L8.22924 8.92528Z" fill="#721011"/>
</g>
</svg>
