<svg viewBox="0 0 261 337" fill="none" xmlns="http://www.w3.org/2000/svg">
<path d="M199.089 139.153C197.41 135.783 194.249 133.373 190.529 132.673C157.02 126.413 98.7095 129.403 74.8895 131.013C68.0895 131.473 62.1495 135.833 59.7495 142.203C54.1695 156.993 49.5495 171.613 45.9795 184.963C59.8995 198.883 78.5695 206.503 97.8895 210.453C98.9095 209.613 100.019 208.803 101.119 207.593C104.239 204.133 101.699 186.203 91.0895 182.053C102.729 181.013 108.289 187.023 108.289 187.023C108.289 187.023 108.459 175.463 98.5595 171.653C111.429 171.143 127.399 190.603 127.399 190.603C127.399 190.603 143.039 199.033 146.859 192.453C150.679 185.863 160.409 179.453 170.149 177.543C160.419 185.183 162.329 204.763 162.329 204.763C162.329 204.763 182.839 196.443 185.439 190.553C185.679 197.913 181.359 206.093 176.819 212.583C186.919 211.243 196.929 209.183 206.749 206.263C209.499 185.753 209.549 160.193 199.069 139.173H199.079L199.089 139.153Z" fill="#5D507F"/>
<path d="M185.45 190.533C182.84 196.433 162.34 204.743 162.34 204.743C162.34 204.743 160.43 185.143 170.16 177.523C160.43 179.433 150.7 185.843 146.87 192.433C143.05 199.023 127.41 190.583 127.41 190.583C127.41 190.583 111.42 171.103 98.5696 171.633C108.48 175.443 108.3 187.003 108.3 187.003C108.3 187.003 102.74 180.993 91.0996 182.033C101.7 186.193 104.25 204.113 101.13 207.573C100.03 208.793 98.9096 209.603 97.8996 210.433C78.5796 206.483 59.9296 198.843 45.9896 184.943C38.1996 214.063 35.3696 237.283 38.5096 243.763C39.0496 244.883 67.6596 245.163 68.8996 245.143L162.22 243.663C166.62 244.563 169.29 245.143 169.29 245.143C169.29 245.143 169.81 244.543 170.68 243.533L196 243.133C197.37 243.103 198.57 242.233 198.99 240.933C200.62 235.923 204.55 222.703 206.76 206.243C196.94 209.163 186.94 211.223 176.83 212.563C181.37 206.073 185.7 197.893 185.45 190.533Z" fill="#4D4669"/>
<path d="M26.2599 298.883L22.6299 336.213H30.2699L35.4099 307.343C33.1099 303.673 30.0699 300.663 26.2499 298.893H26.2599V298.883Z" fill="#C5C5D8"/>
<path d="M26.2598 298.873C30.0798 300.653 33.1298 303.653 35.4198 307.323L38.4898 290.043H27.1098L26.2598 298.863V298.873Z" fill="#C5C5D8"/>
<path d="M228.6 307.673L233.74 336.543H241.38L237.75 299.213C233.93 300.993 230.88 303.993 228.59 307.663H228.6V307.673Z" fill="#C5C5D8"/>
<path d="M228.6 307.673C230.9 304.003 233.94 300.993 237.76 299.223L236.87 290.053H225.46L228.6 307.663V307.673Z" fill="#C5C5D8"/>
<path d="M10.8799 278.733V290.063H251V278.733H10.8799Z" fill="#DADAEA"/>
<path d="M241.96 225.673H241.93L240.03 225.703L240.24 226.273C240.81 226.083 241.39 225.883 241.96 225.683V225.673Z" fill="#5D507F"/>
<path d="M241.98 225.673C241.52 225.843 240.8 226.093 240.24 226.283V226.263L240.03 225.703L230.07 225.813C230.56 226.943 231.05 228.063 231.52 229.173C221.9 232.223 212.06 234.883 201.99 237.113C200 237.553 198.02 237.973 196.04 238.393H196.03C201.81 245.213 207.39 250.273 211.68 251.123C212.69 251.323 213.68 251.483 214.66 251.613C213.67 251.483 212.67 251.323 211.66 251.123C207.36 250.283 201.79 245.213 196.01 238.393C192.91 234.733 189.75 230.573 186.71 226.303L176.8 226.423L185.61 239.593C185.78 239.853 185.92 240.093 186.05 240.353C149.44 247.093 113.66 248.963 77.43 246.753C78.41 249.293 80.97 251.263 84.25 251.223L179.66 250.043C180.32 250.043 180.95 249.943 181.54 249.793C180.95 249.953 180.31 250.043 179.65 250.053L84.24 251.233C80.95 251.273 78.39 249.303 77.41 246.753C76.69 244.873 76.8 242.703 78.11 240.753L87.09 227.443C83.64 227.543 81.79 227.543 78.11 227.543C74.21 232.613 66.48 242.283 62.83 245.633C62.83 245.633 62.81 245.643 62.81 245.653C56.85 245.113 50.89 244.473 44.9 243.723C39.7 243.083 34.52 242.113 29.49 240.773H29.48C29.09 241.773 28.73 242.713 28.41 243.583C27.6 245.713 28.13 248.023 29.5 249.463C28.12 248.023 27.58 245.693 28.39 243.553C28.71 242.693 29.07 241.753 29.46 240.743L34.66 227.983L26.04 228.083L22.54 238.623C17.1 236.723 11.87 234.283 6.99003 231.203C5.39003 232.633 4.55003 234.443 4.87003 236.363L8.64003 259.423H253.61C254.02 259.423 254.44 259.473 254.82 259.573L258.24 237.323C259.21 231.013 251.61 225.573 242.01 225.663L241.98 225.673Z" fill="#4D4669"/>
<path d="M240.39 225.693H240.04L240.39 225.813C240.69 226.053 240.41 225.693 240.39 225.693Z" fill="#4D4669"/>
<path d="M240.03 225.693V225.703H240.04L240.03 225.693Z" fill="#4D4669"/>
<path d="M176.78 226.413L87.0797 227.413C83.6297 227.513 81.7797 227.513 78.0997 227.513L34.6597 228.003C34.3797 228.633 34.1097 229.273 33.8397 229.903L34.6297 227.963L26.0097 228.063L15.6397 228.193C12.0497 228.253 8.92973 229.433 6.96973 231.183C11.8497 234.253 17.0897 236.703 22.5197 238.603L29.4397 240.723L30.2697 238.693C29.9897 239.403 29.7197 240.093 29.4697 240.743C34.5197 242.083 39.6797 243.033 44.8797 243.693C50.8897 244.443 56.8697 245.083 62.8397 245.623L62.8597 245.603L77.3997 246.723C77.3997 246.723 77.3997 246.723 77.3997 246.733C113.64 248.953 149.44 247.083 186.04 240.333L196 238.373C192.9 234.713 189.74 230.553 186.7 226.283L176.79 226.403L176.78 226.413ZM76.9697 244.203C76.9697 244.313 76.9597 244.413 76.9597 244.523C76.9597 244.423 76.9597 244.313 76.9697 244.203ZM78.0997 240.743C77.4497 241.713 77.0897 242.743 76.9897 243.763C77.0897 242.743 77.4497 241.703 78.0997 240.733L86.9697 227.583L82.7297 233.873H82.7397L78.0897 240.753L78.0997 240.743Z" fill="#5D507F"/>
<path d="M240.23 226.263L240.04 225.733C240.07 225.793 240.13 225.893 240.03 225.693L230.07 225.813L186.72 226.303C189.77 230.593 192.93 234.753 196.02 238.393C198.01 237.983 199.98 237.553 201.97 237.123C212.06 234.893 221.9 232.233 231.52 229.183L240.23 226.273V226.263Z" fill="#5D507F"/>
<path d="M257.709 274.103C257.889 274.103 258.059 274.123 258.229 274.163C258.459 273.583 258.6 272.943 258.6 272.283V264.433C258.6 262.093 256.989 260.133 254.809 259.593C254.419 259.503 254.019 259.443 253.599 259.443H8.23949C5.47949 259.443 3.22949 261.683 3.22949 264.433V272.283C3.22949 272.923 3.35949 273.543 3.57949 274.113H257.709V274.103Z" fill="#DADAEA"/>
<path d="M258.21 274.153C258.04 274.113 257.87 274.093 257.69 274.093H3.02996C1.74996 274.093 0.709961 275.133 0.709961 276.413C0.709961 277.693 1.75996 278.733 3.02996 278.733H257.69C258.97 278.733 260.01 277.693 260.01 276.413C260.01 275.313 259.24 274.393 258.2 274.163L258.21 274.153Z" fill="white"/>
<path d="M158.556 125.741C160.544 126.127 177.731 149.177 190.48 155.116C201.804 160.391 223.847 166.632 214.151 182.653C205.31 197.264 181.388 195.847 160.67 167.622C139.952 139.397 144.179 122.965 158.556 125.741Z" fill="#C86328"/>
<g style="mix-blend-mode:screen">
<path d="M212.414 184.305C222.11 168.284 200.067 162.044 188.744 156.768C175.994 150.829 158.807 127.78 156.82 127.394C153.389 126.731 150.545 127.176 148.474 128.593C150.529 125.892 154.043 124.869 158.564 125.741C160.552 126.127 177.739 149.177 190.488 155.115C201.812 160.391 223.855 166.632 214.159 182.653C213.01 184.557 211.6 186.176 209.982 187.509C210.879 186.545 211.701 185.479 212.414 184.305Z" fill="#C86328"/>
</g>
<g style="mix-blend-mode:screen">
<path d="M184.097 172.554C183.368 177.285 186.622 181.714 191.353 182.435C196.084 183.156 200.512 179.91 201.234 175.179C201.955 170.449 198.709 166.02 193.978 165.299C189.248 164.577 184.819 167.823 184.097 172.554ZM209.462 167.756C212.18 168.176 214.143 170.105 213.841 172.076C213.539 174.047 211.089 175.305 208.372 174.886C205.654 174.466 203.691 172.537 203.993 170.566C204.295 168.595 206.745 167.337 209.462 167.756ZM208.162 179.122C210.074 180.179 211.006 182.158 210.242 183.55C209.479 184.934 207.307 185.203 205.386 184.146C203.473 183.089 202.542 181.11 203.306 179.717C204.069 178.333 206.25 178.065 208.162 179.122ZM200.361 184.809C201.771 186.478 201.93 188.667 200.722 189.69C199.514 190.714 197.384 190.185 195.975 188.516C194.565 186.847 194.406 184.658 195.614 183.643C196.822 182.619 198.952 183.148 200.361 184.817V184.809Z" fill="#C86328"/>
</g>
<g style="mix-blend-mode:multiply" opacity="0.2">
<path d="M206.216 168.109C205.025 168.595 204.169 169.459 204.002 170.566C203.7 172.537 205.663 174.467 208.38 174.886C210.477 175.205 212.398 174.525 213.312 173.301C212.381 173.678 211.257 173.838 210.058 173.653C207.34 173.234 205.386 171.304 205.679 169.333C205.746 168.88 205.939 168.478 206.208 168.109H206.216ZM203.314 179.717C203.641 179.122 204.245 178.744 204.966 178.577C204.287 179.961 205.21 181.873 207.08 182.905C208.17 183.509 209.336 183.668 210.284 183.442C210.267 183.475 210.267 183.509 210.242 183.542C209.479 184.926 207.307 185.195 205.386 184.138C203.473 183.081 202.542 181.101 203.306 179.709L203.314 179.717ZM196.755 183.14C196.218 184.272 196.537 185.933 197.661 187.267C198.701 188.491 200.118 189.095 201.276 188.927C201.141 189.212 200.974 189.473 200.73 189.674C199.523 190.697 197.392 190.169 195.983 188.5C194.574 186.83 194.414 184.641 195.622 183.626C195.949 183.349 196.335 183.198 196.763 183.14H196.755ZM188.442 166.339C187.075 167.622 186.094 169.317 185.783 171.313C185.054 176.044 188.308 180.472 193.039 181.194C195.035 181.496 196.956 181.068 198.583 180.154C196.713 181.915 194.096 182.855 191.353 182.435C186.622 181.714 183.376 177.285 184.097 172.554C184.517 169.82 186.194 167.605 188.434 166.347L188.442 166.339Z" fill="#C86328"/>
</g>
<path d="M196.033 161.658C200.059 161.423 200.126 170.255 197.283 172.1C190.631 176.487 185.682 166.053 185.02 161.112" fill="#C86328"/>
<path d="M185.011 161.104C184.751 161.104 185.229 165.273 187.368 168.88C188.391 170.675 189.808 172.336 191.31 173.149C191.704 173.325 192.056 173.485 192.375 173.627C192.711 173.728 193.021 173.778 193.264 173.837C193.759 173.971 194.061 173.896 194.061 173.913C194.061 173.913 194.355 173.896 194.866 173.862C195.118 173.845 195.403 173.72 195.739 173.627C196.083 173.535 196.443 173.409 196.796 173.183C197.156 172.94 197.542 172.839 197.953 172.436C198.163 172.26 198.356 172.067 198.498 171.841C198.658 171.623 198.817 171.405 198.918 171.161C199.396 170.213 199.647 169.157 199.731 168.1C199.891 166.011 199.488 163.822 198.414 162.547C197.92 161.876 197.198 161.641 196.745 161.549C196.267 161.557 196.024 161.599 196.024 161.65C196.024 161.7 196.284 161.784 196.678 161.859C197.047 162.035 197.576 162.287 197.92 162.916C198.683 164.074 198.901 166.103 198.616 167.966C198.481 168.905 198.18 169.819 197.76 170.524C197.349 171.262 196.821 171.556 196.141 171.858C195.848 172.034 195.554 172.109 195.302 172.159C195.042 172.21 194.833 172.31 194.64 172.31C194.279 172.31 194.061 172.31 194.061 172.31C194.061 172.294 193.851 172.378 193.482 172.277C193.306 172.243 193.08 172.218 192.82 172.168C192.568 172.067 192.291 171.958 191.981 171.841C190.765 171.279 189.381 169.886 188.299 168.268C187.2 166.649 186.369 164.837 185.849 163.453C185.321 162.061 185.111 161.079 184.985 161.096L185.011 161.104Z" fill="#90431F"/>
<g style="mix-blend-mode:multiply" opacity="0.3">
<path d="M160.678 167.622C139.96 139.397 144.187 122.965 158.564 125.741C159.948 126.01 168.696 137.249 178.183 146.065C177.252 146.392 176.447 146.812 175.876 147.399C172.588 150.737 185.053 180.824 200.838 183.676C211.273 185.555 214.611 177.276 215.886 171.623C217.069 174.701 216.784 178.316 214.158 182.661C205.318 197.273 181.395 195.855 160.678 167.63V167.622Z" fill="#C86328"/>
</g>
<path d="M162.062 178.257C162.062 178.257 175.172 167.655 191.1 177.091C207.029 186.528 202.357 199.462 202.357 199.462C202.357 199.462 208.723 188.256 223.435 189.581C238.148 190.906 244.153 215.994 228.149 236.98C214.452 254.939 177.436 247.599 154.84 219.928C154.84 219.928 150.428 187.484 162.07 178.266L162.062 178.257Z" fill="#C86328"/>
<g style="mix-blend-mode:screen">
<path d="M200.822 201.307C200.822 201.307 205.503 188.381 189.566 178.936C173.637 169.5 160.527 180.111 160.527 180.111C160.108 180.438 159.713 180.815 159.336 181.201C160.124 180.06 161.022 179.062 162.054 178.248C162.054 178.248 175.164 167.646 191.092 177.083C205.477 185.605 203.062 196.978 202.458 199.101C201.367 200.384 200.822 201.315 200.822 201.315V201.307Z" fill="#C86328"/>
<path d="M221.901 191.434C212.011 190.545 205.905 195.318 202.961 198.539C204.848 195.905 211.298 188.482 223.427 189.572C238.14 190.898 244.145 215.986 228.141 236.972C227.73 237.5 227.302 238.004 226.858 238.49C242.552 217.579 236.529 192.743 221.901 191.426V191.434Z" fill="#C86328"/>
</g>
<g style="mix-blend-mode:multiply" opacity="0.3">
<path d="M210.51 246.417C204.052 238.868 201.116 227.15 203.649 214.971C206.065 203.354 212.859 194.085 221.221 189.48C221.934 189.48 222.664 189.497 223.419 189.573C238.131 190.898 244.137 215.986 228.133 236.972C224.023 242.366 217.799 245.461 210.502 246.417H210.51Z" fill="#C86328"/>
</g>
<g style="mix-blend-mode:screen">
<path d="M210.493 223.368C207.449 231.085 208.715 238.819 213.32 240.63C217.925 242.442 224.124 237.661 227.168 229.936C230.205 222.219 228.938 214.494 224.333 212.682C219.728 210.87 213.53 215.651 210.493 223.368ZM232.016 201.887C234.147 202.365 235.279 205.334 234.558 208.505C233.837 211.676 231.522 213.856 229.399 213.378C227.269 212.892 226.137 209.923 226.858 206.752C227.579 203.581 229.886 201.401 232.016 201.887ZM223.268 193.961C225.449 193.944 227.235 196.569 227.252 199.824C227.269 203.078 225.516 205.729 223.343 205.737C221.154 205.754 219.376 203.12 219.351 199.866C219.334 196.611 221.087 193.961 223.26 193.952L223.268 193.961ZM213.278 199.614C215.459 199.597 217.246 202.223 217.271 205.477C217.287 208.732 215.534 211.382 213.362 211.39C211.181 211.407 209.395 208.773 209.378 205.519C209.353 202.264 211.106 199.622 213.286 199.606L213.278 199.614Z" fill="#C86328"/>
</g>
<g style="mix-blend-mode:multiply" opacity="0.2">
<path d="M212.255 199.839C210.577 200.527 209.344 202.8 209.361 205.518C209.378 208.772 211.164 211.398 213.345 211.389C214.536 211.389 215.593 210.567 216.306 209.309C215.979 209.443 215.643 209.535 215.291 209.544C213.102 209.552 211.324 206.927 211.307 203.672C211.299 202.204 211.668 200.871 212.255 199.839ZM221.305 198.011C221.322 201.265 223.109 203.89 225.289 203.882C225.642 203.882 225.986 203.781 226.313 203.647C225.6 204.905 224.543 205.719 223.343 205.727C221.154 205.744 219.376 203.11 219.351 199.856C219.334 197.13 220.567 194.857 222.245 194.169C221.658 195.201 221.288 196.534 221.297 198.002L221.305 198.011ZM216.642 214.61C214.989 216.439 213.513 218.787 212.439 221.513C209.395 229.238 210.669 236.964 215.266 238.775C217.631 239.707 220.408 238.893 222.966 236.846C219.938 240.201 216.298 241.803 213.32 240.629C208.715 238.817 207.449 231.084 210.493 223.367C211.97 219.601 214.209 216.556 216.642 214.61ZM229.408 213.377C229.307 213.352 229.223 213.302 229.131 213.268C228.603 212.438 227.948 211.767 227.168 211.289C226.632 210.064 226.472 208.445 226.858 206.759C227.344 204.62 228.561 202.959 229.945 202.23C229.441 202.993 229.039 203.89 228.804 204.905C228.083 208.076 229.223 211.045 231.354 211.532C232.042 211.691 232.755 211.54 233.426 211.188C232.369 212.79 230.851 213.713 229.408 213.385V213.377Z" fill="#C86328"/>
</g>
<path d="M196.964 217.822C197.216 217.831 197.434 214.87 198.013 212.001C198.13 211.28 198.356 210.584 198.507 209.921C198.658 209.258 198.826 208.646 199.019 208.134C199.371 207.111 199.598 206.423 199.598 206.423C199.598 206.423 200.495 203.697 201.879 201.131C203.289 198.581 205.092 196.241 204.899 196.073C204.765 195.947 202.643 198.052 200.923 200.543C199.237 203.051 198.105 205.895 198.105 205.895C198.105 205.895 197.904 206.633 197.61 207.732C197.442 208.277 197.316 208.931 197.216 209.636C197.115 210.34 196.956 211.079 196.897 211.833C196.595 214.836 196.78 217.822 196.956 217.822H196.964Z" fill="#90431F"/>
<path d="M195.05 209.963C195.252 210.047 196.166 208.663 197.013 207.295C197.986 206.004 198.951 204.704 198.951 204.704C198.951 204.704 199.848 203.353 200.754 202.003C201.719 200.686 202.658 199.319 202.499 199.176C202.339 199.025 201.098 200.132 199.89 201.281C198.758 202.498 197.659 203.781 197.659 203.781C197.659 203.781 196.812 205.249 196.04 206.733C195.411 208.31 194.849 209.879 195.05 209.963Z" fill="#90431F"/>
<g style="mix-blend-mode:multiply" opacity="0.3">
<path d="M166.381 175.699C171.07 173.51 179.131 171.354 188.408 175.674C190.236 184.003 193.734 196.853 198.146 196.115C200.83 195.662 201.786 192.601 201.971 189.128C204.018 194.849 202.348 199.462 202.348 199.462C202.348 199.462 206.207 192.752 214.788 190.344C212.682 192.156 210.795 194.27 209.218 196.686C202.29 207.246 198.071 218.544 199.278 231.353C199.765 236.528 200.629 241.636 201.946 246.61C186.361 245.402 168.109 236.192 154.823 219.928C154.823 219.928 154.689 218.93 154.529 217.244C157.448 206.701 162.54 189.011 166.373 175.708L166.381 175.699Z" fill="#C86328"/>
</g>
<path d="M155.922 120.96C155.922 120.96 164.519 148.195 174.392 158.571C184.256 168.955 203.724 220.708 153.908 234.045C87.6026 251.793 37.4517 198.178 73.1 123.938L155.913 120.96H155.922Z" fill="#C86328"/>
<g style="mix-blend-mode:multiply" opacity="0.3">
<path d="M73.1088 123.929L76.9169 123.795C62.7582 184.154 108.589 223.811 166.952 208.193C175.222 205.979 181.564 202.708 186.378 198.74C185.187 213.461 176.975 227.863 153.917 234.036C87.6114 251.785 37.4605 198.17 73.1088 123.929Z" fill="#C86328"/>
</g>
<g style="mix-blend-mode:screen">
<path d="M172.06 161.892C162.187 151.508 153.59 124.273 153.59 124.273L71.582 127.217C72.0769 126.126 72.5802 125.028 73.1086 123.929L155.922 120.951C155.922 120.951 164.519 148.186 174.392 158.562C181.932 166.497 195.084 198.614 178.602 219.265C191.385 198.656 179.206 169.408 172.052 161.884L172.06 161.892Z" fill="#C86328"/>
</g>
<g style="mix-blend-mode:screen">
<path d="M146.763 124.198C146.763 124.198 151.686 144.195 157.415 151.794C163.144 159.394 174.317 197.374 145.161 207.372C106.35 220.675 77.2526 181.445 98.3648 126.706L146.763 124.198Z" fill="#C86328"/>
</g>
<g style="mix-blend-mode:multiply" opacity="0.3">
<path d="M159.68 131.461C146.218 139.388 129.115 143.917 110.611 143.447C95.2196 143.061 80.9938 139.253 69.125 133.055C70.3077 130.052 71.633 127.007 73.1092 123.929L155.922 120.951C155.922 120.951 157.34 125.439 159.68 131.461Z" fill="#C86328"/>
</g>
<path d="M66.4244 180.119C66.4244 180.119 80.6501 168.611 97.9375 178.853C115.225 189.094 110.15 203.127 110.15 203.127C110.15 203.127 117.062 190.973 133.024 192.407C148.986 193.842 155.512 221.077 138.14 243.85C128.721 256.197 110.972 256.029 97.4426 251.986C88.325 249.26 79.803 244.605 72.3042 238.767C62.0375 230.773 57.9862 221.253 57.3403 208.529C56.8622 199.185 58.1372 186.175 66.4244 180.119Z" fill="#C86328"/>
<g style="mix-blend-mode:screen">
<path d="M108.497 205.14C108.497 205.14 113.572 191.107 96.2843 180.866C78.997 170.624 64.7712 182.132 64.7712 182.132C64.3099 182.493 63.8905 182.895 63.4795 183.323C64.3434 182.09 65.3164 181 66.432 180.119C66.432 180.119 80.6578 168.611 97.9451 178.853C113.563 188.104 110.938 200.443 110.275 202.749C109.093 204.142 108.505 205.148 108.505 205.148L108.497 205.14Z" fill="#C86328"/>
<path d="M131.37 194.412C120.634 193.447 114.007 198.622 110.812 202.12C112.867 199.26 119.862 191.208 133.023 192.399C148.985 193.833 155.51 221.068 138.139 243.841C137.695 244.412 137.233 244.965 136.755 245.494C153.782 222.796 147.248 195.846 131.37 194.42V194.412Z" fill="#C86328"/>
</g>
<g style="mix-blend-mode:multiply" opacity="0.3">
<path d="M119.007 254.092C112.003 245.897 108.816 233.181 111.567 219.97C114.184 207.363 121.557 197.306 130.641 192.299C131.421 192.299 132.201 192.324 133.032 192.399C148.994 193.834 155.519 221.069 138.148 243.842C133.686 249.688 126.934 253.052 119.015 254.1L119.007 254.092Z" fill="#C86328"/>
</g>
<g style="mix-blend-mode:screen">
<path d="M118.99 229.079C115.685 237.451 117.069 245.847 122.06 247.809C127.059 249.781 133.786 244.58 137.091 236.209C140.396 227.83 139.012 219.45 134.012 217.479C129.013 215.508 122.286 220.7 118.99 229.079ZM142.35 205.761C144.657 206.29 145.89 209.502 145.11 212.95C144.33 216.389 141.822 218.754 139.515 218.234C137.208 217.706 135.967 214.493 136.747 211.046C137.527 207.607 140.035 205.241 142.35 205.761ZM132.855 197.155C135.229 197.139 137.166 199.99 137.183 203.522C137.2 207.053 135.296 209.93 132.939 209.947C130.565 209.955 128.628 207.103 128.611 203.58C128.586 200.049 130.49 197.172 132.855 197.164V197.155ZM122.01 203.295C124.375 203.278 126.312 206.13 126.338 209.662C126.363 213.193 124.459 216.07 122.093 216.087C119.728 216.095 117.79 213.243 117.765 209.72C117.74 206.189 119.644 203.32 122.01 203.304V203.295Z" fill="#C86328"/>
</g>
<g style="mix-blend-mode:multiply" opacity="0.2">
<path d="M120.894 203.547C119.074 204.285 117.741 206.76 117.757 209.712C117.783 213.243 119.72 216.095 122.086 216.079C123.386 216.079 124.526 215.181 125.306 213.822C124.954 213.965 124.585 214.074 124.199 214.074C121.834 214.091 119.896 211.239 119.871 207.707C119.863 206.114 120.257 204.671 120.894 203.556V203.547ZM130.717 201.559C130.742 205.09 132.679 207.942 135.045 207.926C135.431 207.926 135.8 207.817 136.152 207.674C135.372 209.041 134.231 209.922 132.931 209.939C130.557 209.947 128.62 207.095 128.603 203.572C128.578 200.62 129.92 198.145 131.74 197.407C131.102 198.531 130.7 199.974 130.708 201.568L130.717 201.559ZM125.65 219.568C123.864 221.556 122.262 224.106 121.096 227.067C117.791 235.446 119.175 243.834 124.166 245.805C126.724 246.812 129.744 245.931 132.52 243.708C129.232 247.348 125.281 249.085 122.052 247.81C117.061 245.839 115.677 237.451 118.982 229.08C120.593 224.995 123.008 221.682 125.65 219.576V219.568ZM139.507 218.226C139.398 218.201 139.306 218.142 139.205 218.108C138.626 217.211 137.922 216.481 137.075 215.953C136.496 214.619 136.328 212.866 136.739 211.029C137.268 208.714 138.584 206.911 140.086 206.122C139.541 206.944 139.104 207.917 138.853 209.024C138.073 212.463 139.306 215.684 141.612 216.213C142.359 216.381 143.131 216.221 143.86 215.844C142.711 217.588 141.067 218.578 139.499 218.226H139.507Z" fill="#C86328"/>
</g>
<path d="M104.303 223.056C104.58 223.065 104.815 219.852 105.444 216.74C105.578 215.96 105.813 215.197 105.981 214.476C106.149 213.763 106.325 213.092 106.535 212.538C106.912 211.422 107.172 210.684 107.172 210.684C107.172 210.684 108.145 207.715 109.646 204.939C111.173 202.179 113.127 199.629 112.918 199.453C112.767 199.319 110.46 201.6 108.606 204.309C106.769 207.027 105.545 210.122 105.545 210.122C105.545 210.122 105.327 210.919 105.008 212.119C104.823 212.714 104.689 213.419 104.58 214.182C104.471 214.945 104.295 215.75 104.236 216.564C103.909 219.827 104.102 223.065 104.303 223.065V223.056Z" fill="#90431F"/>
<path d="M102.223 214.527C102.441 214.619 103.439 213.118 104.354 211.633C105.411 210.224 106.459 208.815 106.459 208.815C106.459 208.815 107.44 207.355 108.413 205.887C109.462 204.462 110.477 202.985 110.301 202.818C110.125 202.65 108.782 203.849 107.474 205.099C106.241 206.424 105.05 207.808 105.05 207.808C105.05 207.808 104.127 209.402 103.288 211.021C102.609 212.732 101.997 214.426 102.215 214.519L102.223 214.527Z" fill="#90431F"/>
<g style="mix-blend-mode:multiply" opacity="0.3">
<path d="M64.629 181.663C60.6532 196.962 61.2404 221.438 75.5752 226.999C93.4161 233.919 96.4357 214.577 103.456 203.781C106.216 199.537 107.701 194.127 108.489 189.128C112.515 196.551 110.15 203.119 110.15 203.119C110.15 203.119 111.374 200.988 113.958 198.614C105.26 211.121 101.393 237.5 110.846 245.62C118.831 252.473 137.142 238.65 145.404 230.941C143.735 235.261 141.344 239.623 138.132 243.833C128.712 256.18 110.963 256.012 97.4339 251.969C88.3163 249.243 79.7942 244.588 72.2955 238.75C62.0288 230.757 57.9775 221.236 57.3316 208.512C56.8955 199.889 57.9523 188.172 64.6207 181.654L64.629 181.663Z" fill="#C86328"/>
</g>
<path d="M85.8081 130.237C86.8314 131.991 80.8257 160.107 84.768 173.611C88.2658 185.606 98.1047 206.29 79.6598 209.561C62.8422 212.547 48.1384 193.624 55.7042 159.436C63.27 125.247 78.4101 117.597 85.7997 130.237H85.8081Z" fill="#C86328"/>
<g style="mix-blend-mode:screen">
<path d="M77.2697 209.334C95.7146 206.063 85.8673 185.37 82.3779 173.375C78.4356 159.871 84.4413 131.755 83.418 130.002C81.6566 126.991 79.4506 125.145 77.0097 124.525C80.39 124.29 83.4851 126.253 85.8085 130.228C86.8319 131.981 80.8262 160.098 84.7684 173.602C88.2662 185.597 98.1051 206.281 79.6603 209.552C77.471 209.938 75.3237 209.946 73.252 209.611C74.5688 209.653 75.9109 209.577 77.2697 209.334Z" fill="#C86328"/>
</g>
<g style="mix-blend-mode:multiply" opacity="0.3">
<path d="M55.712 159.436C63.2778 125.247 78.4179 117.597 85.8075 130.237C86.5205 131.454 83.8364 145.445 83.459 158.395C82.6034 157.909 81.7478 157.582 80.9426 157.54C76.2622 157.271 61.8519 186.478 70.1223 200.226C75.5828 209.318 84.0126 206.365 89.104 203.589C87.569 206.516 84.6668 208.681 79.6677 209.57C62.85 212.556 48.1462 193.633 55.712 159.444V159.436Z" fill="#C86328"/>
</g>
<path d="M157.909 53.7318C169.275 63.9649 190.63 57.6825 200.855 46.3169C211.088 34.9514 210.166 17.446 198.809 7.21286C187.443 -3.0203 169.938 -2.09764 159.704 9.25949C149.471 20.625 146.544 43.4902 157.901 53.7234L157.909 53.7318Z" fill="#C86328"/>
<g style="mix-blend-mode:screen">
<path d="M198.49 46.737C208.723 35.3715 207.8 17.8661 196.443 7.6413C190.177 2.00468 182.058 -0.226482 174.308 0.788446C182.737 -1.06527 191.905 1.00653 198.808 7.22191C210.166 17.4551 211.088 34.9605 200.855 46.326C195.252 52.5498 186.311 57.2386 177.503 58.5387C185.514 56.8192 193.382 52.4156 198.481 46.7538L198.49 46.737Z" fill="#C86328"/>
</g>
<g style="mix-blend-mode:screen">
<path d="M168.185 48.0612C173.646 52.9764 185.372 48.3212 191.478 41.5438C197.584 34.7665 198.105 25.2882 192.652 20.3729C187.192 15.4577 177.814 16.9675 171.716 23.7448C165.61 30.5222 162.733 43.1459 168.194 48.0612H168.185Z" fill="#C86328"/>
</g>
<g style="mix-blend-mode:screen">
<path d="M184.466 35.3617C188.659 29.5489 189.238 22.4528 186.403 17.5879C188.735 17.8815 190.891 18.7874 192.652 20.3643C198.104 25.2795 197.584 34.7578 191.478 41.5352C185.371 48.3125 173.645 52.9678 168.185 48.0525C167.472 47.415 166.91 46.635 166.474 45.7626C172.504 46.0143 180.28 41.1577 184.474 35.3617H184.466Z" fill="#C86328"/>
</g>
<g style="mix-blend-mode:multiply" opacity="0.3">
<path d="M159.714 9.26756C165.049 3.33737 172.38 0.284195 179.778 0.141602C163.724 7.43902 165.267 36.4022 182.957 43.6661C191.731 47.2644 198.692 45.5114 203.608 42.6595C202.794 43.9345 201.897 45.1591 200.857 46.3166C190.623 57.6821 169.268 63.9562 157.911 53.7315C146.554 43.4983 149.481 20.6331 159.714 9.26756Z" fill="#C86328"/>
</g>
<g style="mix-blend-mode:screen">
<path d="M197.258 15.8688C196.125 16.565 196.084 18.5781 197.182 20.3731C198.273 22.1681 200.085 23.0572 201.225 22.361C202.358 21.6648 202.4 19.6517 201.301 17.8567C200.21 16.0617 198.399 15.1726 197.258 15.8604V15.8688Z" fill="#C86328"/>
</g>
<g style="mix-blend-mode:screen">
<path d="M186.865 6.97865C185.859 8.42136 186.89 10.879 189.164 12.4643C191.437 14.0496 194.096 14.167 195.11 12.7243C196.117 11.2816 195.085 8.82397 192.812 7.23867C190.539 5.65337 187.88 5.53594 186.865 6.97865Z" fill="#C86328"/>
</g>
<path d="M40.69 73.8458C37.8046 105.845 69.7203 134.867 111.97 138.675C154.219 142.483 190.807 119.627 193.684 87.6354C196.57 55.6358 161.181 15.9949 118.932 12.1868C76.6822 8.37873 43.5754 41.8462 40.69 73.8458Z" fill="#C86328"/>
<g style="mix-blend-mode:screen">
<path d="M191.395 91.1001C194.272 59.1005 158.892 19.4596 116.642 15.6516C88.0145 13.0681 63.5975 27.6126 49.917 47.215C63.044 25.9015 88.6352 9.45295 118.932 12.1874C161.182 15.9955 196.57 55.6364 193.684 87.6359C192.93 95.9986 189.86 103.724 185.003 110.518C188.534 104.596 190.766 98.0704 191.395 91.1001Z" fill="#C86328"/>
</g>
<g style="mix-blend-mode:multiply" opacity="0.3">
<path d="M112.868 11.9188C81.7742 18.6962 59.3871 44.992 57.0972 70.3904C54.2956 101.534 86.2617 129.869 128.511 133.677C138.124 134.541 147.426 134.054 156.107 132.435C143.232 137.72 128.008 140.135 111.962 138.684C69.7125 134.876 37.8052 105.854 40.6822 73.8546C43.4334 43.3983 73.5541 11.642 112.868 11.9188Z" fill="#C86328"/>
</g>
<g style="mix-blend-mode:screen">
<path d="M156.25 37.7359C155.293 38.6586 155.704 40.6381 157.164 42.1479C158.623 43.6577 160.586 44.1274 161.542 43.2048C162.498 42.2821 162.087 40.3026 160.628 38.7928C159.168 37.283 157.206 36.8133 156.25 37.7359Z" fill="#C86328"/>
</g>
<g style="mix-blend-mode:screen">
<path d="M144.155 31.3365C143.492 32.9637 145.035 35.1362 147.602 36.1846C150.169 37.2331 152.794 36.7634 153.457 35.1278C154.119 33.5005 152.576 31.3281 150.009 30.2796C147.443 29.2311 144.817 29.7009 144.155 31.3281V31.3365Z" fill="#C86328"/>
</g>
<path d="M157.935 92.1231C157.734 97.634 162.037 102.272 167.548 102.474C173.059 102.675 177.697 98.3721 177.899 92.8613C178.1 87.3505 173.797 82.712 168.286 82.5107C162.767 82.3094 158.137 86.6123 157.935 92.1231Z" fill="#DE3E4B"/>
<path d="M79.4091 91.4689C79.2078 96.9797 83.5108 101.618 89.0216 101.819C94.5324 102.021 99.1709 97.7178 99.3722 92.207C99.5735 86.6962 95.2705 82.0577 89.7597 81.8564C84.2489 81.6551 79.6188 85.958 79.4091 91.4689Z" fill="#DE3E4B"/>
<g style="mix-blend-mode:screen">
<path d="M120.349 22.0606C120.551 21.9851 120.299 20.8863 119.98 19.7959C119.586 18.739 119.142 17.6905 119.142 17.6905C119.142 17.6905 118.462 16.7678 117.749 15.9039C116.952 15.0819 116.122 14.327 115.963 14.4696C115.795 14.6122 116.298 15.6103 116.826 16.5414C117.279 17.5311 117.766 18.479 117.766 18.479C117.766 18.479 118.345 19.3849 118.974 20.2823C119.536 21.2134 120.156 22.1444 120.358 22.0606H120.349Z" fill="#C86328"/>
<path d="M126.481 38.719C126.699 38.7022 126.775 37.8131 126.758 36.9156C126.707 36.471 126.666 36.0265 126.624 35.6909C126.582 35.3554 126.54 35.1374 126.54 35.1374C126.54 35.1374 126.171 34.3153 125.734 33.5521C125.248 32.7971 124.72 32.0926 124.527 32.1932C124.334 32.2939 124.493 33.1494 124.694 33.9631C124.862 34.7851 125.021 35.5987 125.021 35.5987C125.021 35.5987 125.105 35.7832 125.214 36.0768C125.34 36.3704 125.5 36.7562 125.659 37.142C125.944 37.9305 126.254 38.7441 126.481 38.719Z" fill="#C86328"/>
<path d="M129.668 55.1C130.104 55.0916 130.155 50.9228 130.155 50.9228C130.155 50.9228 130.104 50.6628 129.995 50.2854C129.886 49.9079 129.744 49.3963 129.593 48.893C129.274 47.8864 128.913 46.9135 128.704 46.9638C128.485 47.0141 128.46 48.0626 128.485 49.0775C128.502 49.5808 128.527 50.0841 128.544 50.4615C128.569 50.839 128.578 51.0906 128.578 51.0906C128.578 51.0906 129.232 55.1168 129.668 55.1Z" fill="#C86328"/>
<path d="M132.469 75.6924C132.905 75.7427 133.493 72.547 133.493 72.547C133.493 72.547 133.056 69.2757 132.62 69.3428C132.184 69.4183 131.907 72.4799 131.907 72.4799C131.907 72.4799 132.033 75.6337 132.469 75.684V75.6924Z" fill="#C86328"/>
<path d="M130.222 133.543C130.381 133.685 130.909 133.283 131.379 132.788C131.58 132.528 131.765 132.243 131.908 132.033C132.05 131.823 132.126 131.672 132.126 131.672C132.126 131.672 132.235 131.01 132.26 130.355C132.218 129.684 132.109 129.047 131.891 129.038C131.673 129.022 131.388 129.592 131.161 130.12C130.867 130.641 130.633 131.144 130.633 131.144C130.633 131.144 130.607 131.278 130.557 131.479C130.515 131.689 130.456 131.974 130.389 132.259C130.222 132.796 130.045 133.4 130.222 133.551V133.543Z" fill="#C86328"/>
<path d="M125.944 138.669C126.078 138.837 126.489 138.702 126.866 138.501C127.261 138.3 127.621 138.04 127.621 138.04C127.655 138.04 128.225 136.505 127.848 136.295C127.462 136.077 126.371 137.1 126.363 137.067C126.363 137.067 126.195 137.36 126.061 137.721C125.927 138.073 125.801 138.493 125.935 138.669H125.944Z" fill="#C86328"/>
</g>
<path d="M161.643 59.7964C161.853 60.1822 163.337 59.9222 164.629 60.2745C165.275 60.4506 165.87 60.6687 166.265 60.9119C166.659 61.1384 166.894 61.3145 166.894 61.3145C166.894 61.3145 167.162 61.4068 167.556 61.5997C167.959 61.7843 168.42 62.1282 168.848 62.5727C169.276 63.0173 169.569 63.6128 169.813 64.1077C170.022 64.6026 170.207 65.0052 170.433 65.022C170.635 65.0471 170.886 64.6613 171.046 64.007C171.171 63.3528 171.171 62.3966 170.811 61.4907C170.467 60.5932 169.88 59.7712 169.335 59.2763C168.798 58.773 168.378 58.5046 168.378 58.5046C168.378 58.5046 167.925 58.3033 167.221 58.1439C166.525 57.9594 165.577 57.9175 164.671 58.0181C162.8 58.253 161.408 59.4189 161.635 59.7796L161.643 59.7964Z" fill="#451814"/>
<path d="M86.1606 63.0009C86.3871 63.0344 86.6639 62.6738 87.0078 62.204C87.3769 61.7427 87.8466 61.1891 88.4086 60.7697C88.9706 60.3671 89.5409 60.0316 90.0106 59.9058C90.4636 59.7464 90.7655 59.7213 90.7572 59.7045C90.7572 59.7045 91.0256 59.5703 91.4617 59.4193C91.8895 59.2599 92.4934 59.1844 93.1309 59.2348C93.7768 59.2767 94.4059 59.5787 94.9427 59.8135C95.4376 60.0903 95.857 60.3 96.0415 60.1742C96.2176 60.0568 96.1505 59.5954 95.8318 58.9496C95.4795 58.3456 94.8085 57.5572 93.8607 57.1042C92.938 56.6513 91.8476 56.4584 91.0591 56.5171C90.2707 56.559 89.7506 56.6849 89.7506 56.6849C89.7506 56.6849 89.6332 56.7436 89.4235 56.8442C89.2222 56.9533 88.9202 57.0875 88.6099 57.3223C87.9556 57.7333 87.2343 58.4799 86.6975 59.3019C86.1606 60.1323 85.8922 61.0801 85.8419 61.7847C85.8167 62.4976 85.9509 62.959 86.1606 62.9925V63.0009Z" fill="#451814"/>
<g style="mix-blend-mode:screen">
<path d="M104.748 107.104C104.53 118.52 116.407 125.683 130.968 125.96C145.53 126.236 157.273 119.526 157.491 108.11C157.709 96.6944 146.075 87.2078 131.514 86.931C116.952 86.6542 104.966 95.6879 104.748 107.104Z" fill="#C86328"/>
</g>
<g style="mix-blend-mode:multiply" opacity="0.2">
<path d="M109.915 95.1846C108.732 97.4744 108.036 99.9656 107.986 102.591C107.768 114.007 119.645 121.17 134.206 121.447C143.265 121.615 151.242 119.082 156.015 114.384C152.425 121.925 142.602 126.178 130.968 125.96C116.407 125.683 104.53 118.52 104.748 107.104C104.84 102.625 106.753 98.5145 109.915 95.1846Z" fill="#C86328"/>
</g>
<path d="M132.873 123.862C129.627 123.627 126.632 121.262 125.341 118.284L121.6 109.661L126.095 113.335C130.105 115.851 133.519 117.185 137.872 115.331L143.483 112.27L141.588 117.151C140.422 121.102 136.983 124.155 132.873 123.853V123.862Z" fill="#6D3521"/>
<path d="M128.644 121.74C130.012 120.742 131.421 119.853 133.191 120.105C134.717 120.323 136.017 121.245 136.94 122.445C137.074 122.621 137.661 122.403 137.502 122.202C136.453 120.826 134.927 119.87 133.182 119.71C131.286 119.543 129.735 120.457 128.258 121.539C127.923 121.782 128.443 121.891 128.644 121.74Z" fill="#BE1E2D"/>
<path d="M131.873 121.673C131.882 122.092 132.091 122.47 132.419 122.73C132.721 122.973 133.35 122.855 133.685 122.763C134.021 122.671 134.658 122.486 134.767 122.109C135.128 120.8 133.106 120.758 132.335 120.96C131.882 121.077 130.783 121.463 131.068 122.142C131.236 122.545 131.731 122.897 132.058 123.166C132.553 123.568 134.843 122.864 134.331 122.285C133.786 121.673 133.014 121.497 132.226 121.48C131.79 121.48 131.253 121.639 130.884 121.874C130.724 121.975 130.313 122.268 130.582 122.486C130.9 122.738 131.211 122.998 131.53 123.25C131.915 123.56 132.704 123.342 133.115 123.174C133.333 123.082 134.163 122.713 133.811 122.369C133.35 121.916 132.788 121.589 132.184 121.379C131.697 121.211 131.06 121.396 130.615 121.597C130.38 121.706 129.768 122.017 130.062 122.335L130.565 122.889L132.687 121.933C132.175 121.69 131.672 121.438 131.16 121.195C130.724 120.985 129.986 121.228 129.592 121.413C129.424 121.488 128.678 121.891 129.038 122.151L129.214 122.277L131.337 121.32L130.582 120.96L130.548 121.58C130.833 121.362 131.026 121.228 131.362 121.086C131.186 121.161 131.706 120.968 131.446 121.052C131.538 121.018 131.639 121.002 131.739 120.968C131.949 120.909 131.454 121.018 131.831 120.951L130.917 120.456C130.708 120.683 130.498 120.918 130.28 121.144C130.003 121.446 130.347 121.631 130.624 121.664C131.119 121.723 131.689 121.572 132.117 121.346C132.393 121.195 132.653 121.027 132.872 120.8C133.224 120.532 132.93 120.591 131.991 120.977C132.041 120.977 132.083 120.977 132.125 121.002C132.234 121.052 132.36 121.077 132.469 121.128C132.964 121.337 133.434 121.622 133.836 121.983C134.239 122.344 134.574 122.797 135.044 123.09C135.413 123.317 135.816 123.367 136.243 123.292C136.722 123.208 137.384 123.057 137.669 122.629C137.955 122.201 137.418 122.084 137.065 122.101C136.537 122.126 135.816 122.293 135.447 122.713C135.304 122.881 135.564 122.713 135.673 122.679C135.438 122.746 135.799 122.662 135.64 122.688C135.447 122.713 135.908 122.688 135.572 122.688C135.447 122.688 135.354 122.738 135.27 122.688C135.245 122.671 135.187 122.621 135.17 122.595C135.145 122.553 135.153 122.402 135.103 122.478L134.709 122.763L134.784 122.721L133.559 123.048H133.652C133.492 123.023 133.333 123.006 133.174 122.99C133.215 123.006 133.207 123.149 133.207 123.183C133.19 123.3 133.19 123.283 133.106 123.325L133.61 123.057L134.281 122.956C134.239 122.956 134.197 122.956 134.155 122.939C134.096 122.914 134.037 122.906 133.979 122.889C133.794 122.83 133.618 122.763 133.442 122.696C133.073 122.545 132.712 122.377 132.36 122.193C131.798 121.899 130.968 121.589 130.632 121.018C130.389 120.616 129.659 120.767 129.29 120.876C129.097 120.935 128.007 121.287 128.2 121.673C128.501 122.268 129.022 122.587 129.6 122.872C130.238 123.183 130.884 123.51 131.546 123.778C133.207 124.449 135.052 124.315 136.579 123.359C136.688 123.292 136.889 123.09 136.847 122.931C136.805 122.763 136.537 122.713 136.403 122.696C135.807 122.621 135.178 122.847 134.683 123.157C134.717 123.132 135.002 123.04 134.851 123.082C134.641 123.132 135.245 123.048 134.876 123.073C134.75 123.082 134.574 123.073 134.356 123.023C133.861 122.923 133.383 122.696 132.922 122.486C132.461 122.277 131.974 122.059 131.521 121.815C131.169 121.631 130.808 121.388 130.624 121.027L128.191 121.681C128.527 122.235 129.03 122.52 129.584 122.822C130.137 123.124 130.741 123.443 131.345 123.703C132.091 124.013 132.83 124.197 133.643 124.063C134.356 123.946 135.547 123.543 135.623 122.671C135.723 121.522 133.861 121.991 133.333 122.26C133.014 122.428 132.62 122.704 132.687 123.124C132.737 123.417 132.989 123.61 133.241 123.719C133.87 123.988 134.734 123.879 135.388 123.761C136.218 123.61 137.099 123.3 137.669 122.646L135.447 122.738L135.413 122.797L136.403 122.285L136.336 122.302L137.233 122.21C137.367 122.251 137.376 122.235 137.233 122.168C137.166 122.126 137.107 122.075 137.049 122.025C136.956 121.95 136.873 121.874 136.789 121.79C136.587 121.597 136.411 121.396 136.21 121.203C135.774 120.792 135.262 120.498 134.725 120.238C134.071 119.911 133.4 119.794 132.679 119.903C132.184 119.978 131.697 120.146 131.269 120.415C131.135 120.498 131.018 120.591 130.892 120.691C130.959 120.633 130.531 120.96 130.674 120.884L132.511 121.077C132.721 120.851 132.93 120.616 133.148 120.389C133.643 119.853 132.461 119.853 132.234 119.894C130.942 120.121 129.701 120.599 128.652 121.396C128.384 121.597 128.267 121.849 128.619 122.017L129.374 122.377C129.81 122.587 130.54 122.344 130.942 122.159C131.11 122.084 131.857 121.681 131.496 121.421L131.32 121.295L129.198 122.251C129.709 122.495 130.213 122.746 130.724 122.99C131.16 123.199 131.899 122.956 132.293 122.772C132.528 122.662 133.14 122.352 132.846 122.033L132.343 121.48L130.221 122.436C130.733 122.612 131.16 122.889 131.546 123.266L133.819 122.386C133.501 122.134 133.19 121.874 132.872 121.622L131.228 122.629C131.102 122.629 131.286 122.646 131.295 122.654C131.379 122.679 131.471 122.704 131.555 122.746C131.756 122.847 131.924 123.006 132.066 123.174L134.339 122.293C134.155 122.142 133.97 121.975 133.794 121.807C133.71 121.723 133.61 121.639 133.543 121.547C133.501 121.48 133.501 121.371 133.434 121.455L133.039 121.74L133.106 121.698L132.511 121.924C131.68 122.159 131.974 121.866 132.234 122.109C132.343 122.21 132.402 122.352 132.36 122.495L134.7 121.866C134.432 121.648 134.323 121.371 134.314 121.035C134.297 120.482 131.857 120.893 131.882 121.689L131.873 121.673Z" fill="#BE1E2D"/>
<path d="M133.216 119.727C132.737 120.322 132.888 121.111 133.048 121.79C133.073 121.916 133.442 121.824 133.408 121.689C133.266 121.052 133.098 120.289 133.551 119.727C133.61 119.66 133.501 119.626 133.45 119.626C133.367 119.626 133.266 119.66 133.207 119.727H133.216Z" fill="#9C1C25"/>
<path d="M119.637 107.515C120.979 110.761 122.195 114.082 123.714 117.253C125.014 119.962 126.901 122.118 129.619 123.46C131.976 124.626 134.593 124.777 136.941 123.519C139.164 122.327 140.749 120.172 141.815 117.932C143.316 114.762 144.054 111.256 146.201 108.412C146.52 107.993 145.304 108.085 145.069 108.395C143.09 111.021 142.268 114.2 141.001 117.186C139.818 119.97 137.629 123.468 134.282 123.753C130.516 124.072 126.96 120.809 125.324 117.714C123.554 114.367 122.296 110.685 120.853 107.187C120.686 106.776 119.486 107.145 119.637 107.515Z" fill="#90431F"/>
<path d="M115.443 99.6885C115.678 99.6298 116.215 100.947 117.473 102.641C118.706 104.344 120.593 106.449 122.74 108.236C124.879 110.031 127.236 111.515 129.073 112.312C129.979 112.757 130.767 112.958 131.304 113.126C131.841 113.243 132.151 113.319 132.151 113.319C132.151 113.319 132.453 113.428 132.973 113.487C133.2 113.528 133.443 113.562 133.72 113.579C133.821 112.799 133.963 111.801 133.98 110.802C133.955 109.771 133.98 108.773 133.854 108.018C133.77 107.263 133.728 106.776 133.728 106.776C133.728 106.776 133.728 106.273 133.72 105.526C133.762 104.755 133.603 103.782 133.535 102.75C133.267 100.737 132.512 98.7827 132.881 98.5142C133.217 98.2542 134.785 99.9821 135.691 102.138C136.077 103.211 136.505 104.319 136.622 105.174C136.79 106.03 136.899 106.6 136.899 106.6C136.899 106.6 136.865 107.187 136.782 108.051C136.748 108.924 136.471 110.073 136.194 111.18C135.951 112.035 135.591 112.841 135.221 113.487C137.125 113.26 139.533 112.262 141.672 110.668C143.878 109.075 145.698 106.885 146.964 105.191C148.273 103.513 149.036 102.28 149.263 102.398C149.422 102.473 149.036 103.899 148.004 105.854C147.015 107.816 145.387 110.349 143.106 112.396C140.866 114.46 137.989 115.961 135.616 116.389C134.45 116.691 133.267 116.666 132.579 116.573C131.841 116.523 131.455 116.414 131.455 116.414C131.455 116.414 131.061 116.296 130.382 116.095C129.736 115.844 128.78 115.508 127.781 114.929C125.726 113.839 123.294 112.002 121.214 109.863C119.125 107.732 117.389 105.275 116.416 103.262C115.409 101.249 115.258 99.7137 115.451 99.6802L115.443 99.6885Z" fill="#90431F"/>
<path d="M135.547 99.9819C135.95 99.8309 136.336 99.6632 136.722 99.4703C140.396 97.583 148.767 89.6313 142.585 85.84C137.669 82.8288 126.363 82.9211 121.582 86.2091C113.689 91.6528 129.189 102.322 135.547 99.9819Z" fill="#451814"/>
<g style="mix-blend-mode:screen">
<path d="M131.522 90.8643C126.791 90.4366 122.706 89.1029 120.282 87.4086C120.618 86.9892 121.037 86.5866 121.582 86.2091C126.355 82.9211 137.67 82.8288 142.585 85.84C143.844 86.6117 144.481 87.5595 144.691 88.5912C142.317 90.4114 137.259 91.3844 131.522 90.8643Z" fill="#451814"/>
</g>
<g style="mix-blend-mode:screen">
<path d="M125.584 87.8614C125.508 88.7505 127.102 89.6228 129.148 89.8074C131.203 89.9919 132.923 89.4215 133.007 88.5324C133.091 87.6433 131.489 86.771 129.442 86.5864C127.395 86.4019 125.668 86.9723 125.584 87.8614Z" fill="#451814"/>
</g>
<path d="M155.302 79.4997C155.117 84.3898 157.802 88.4579 161.299 88.5921C164.797 88.7179 167.775 84.8595 167.951 79.9694C168.135 75.0793 165.443 71.0112 161.953 70.877C158.456 70.7512 155.478 74.6096 155.302 79.4997Z" fill="#451814"/>
<path d="M163.379 71.1787C166.147 72.1936 168.11 75.7669 167.959 79.9692C167.942 80.3885 167.875 80.7912 167.825 81.1938C166.936 83.3578 165.266 84.8173 163.379 84.7502C160.687 84.6496 158.623 81.5209 158.766 77.7548C158.892 74.2319 160.913 71.4387 163.379 71.1787Z" fill="#341716"/>
<g style="mix-blend-mode:screen">
<path d="M163.111 76.4456C163.363 77.7457 164.185 78.6767 164.948 78.5257C165.711 78.3748 166.122 77.2089 165.871 75.9087C165.619 74.6086 164.797 73.6776 164.034 73.8286C163.27 73.9795 162.859 75.1454 163.111 76.4456Z" fill="#D3D3D3"/>
</g>
<path d="M87.5363 79.1886C87.3518 84.0787 90.0359 88.1468 93.5336 88.281C97.0313 88.4068 100.009 84.5484 100.185 79.6583C100.37 74.7682 97.6772 70.7001 94.1879 70.5659C90.6901 70.4317 87.7125 74.2985 87.5363 79.1886Z" fill="#451814"/>
<path d="M95.6056 70.8604C98.3736 71.8753 100.336 75.4485 100.185 79.6508C100.169 80.0702 100.11 80.4728 100.051 80.8754C99.1621 83.0395 97.4929 84.499 95.6056 84.4319C92.9131 84.3312 90.8497 81.2025 90.9923 77.4448C91.1181 73.9219 93.1396 71.1288 95.6056 70.8687V70.8604Z" fill="#341716"/>
<g style="mix-blend-mode:screen">
<path d="M95.3454 76.1272C95.5971 77.4189 96.4191 78.3584 97.1824 78.2074C97.9457 78.0564 98.3567 76.8905 98.105 75.5904C97.8534 74.2903 97.0314 73.3592 96.2681 73.5102C95.5048 73.6612 95.0938 74.8271 95.3454 76.1272Z" fill="#D3D3D3"/>
</g>
<path d="M34.8018 7.97661C47.2996 -0.830611 64.5702 2.15546 73.3774 14.6533C75.8434 18.1427 77.5965 22.4708 78.6198 27.0757C73.0838 31.2696 68.3028 36.4365 64.6876 42.719C64.3102 43.3733 63.9663 44.0527 63.6056 44.7153C59.7136 50.2429 56.3837 56.1144 53.8338 62.2878C43.911 60.8619 33.6946 54.462 28.1251 46.569C19.3178 34.0628 22.3039 16.7838 34.8018 7.97661Z" fill="#C86328"/>
<g style="mix-blend-mode:screen">
<path d="M30.4317 47.2563C21.6245 34.7585 24.6105 17.4879 37.1 8.6723C43.9864 3.81574 52.3156 2.56596 59.8898 4.48677C51.7452 1.64329 42.3928 2.61628 34.8018 7.96772C22.3039 16.7833 19.3178 34.0623 28.1251 46.5601C32.9481 53.4046 41.2688 59.1251 49.8579 61.4569C42.1076 58.798 34.8102 53.4969 30.4233 47.2647L30.4317 47.2563Z" fill="#C86328"/>
</g>
<g style="mix-blend-mode:screen">
<path d="M39.3568 21.7659C45.3624 17.53 54.4884 20.147 59.7476 27.6038C62.8343 31.9906 64.5622 38.2312 64.2602 43.5071C64.0422 43.9097 63.8241 44.3123 63.606 44.7066C61.6852 47.441 59.8986 50.2593 58.2713 53.1615C52.0475 55.0823 42.7035 49.5967 37.9979 42.9367C32.7388 35.48 33.3511 26.0101 39.3484 21.7742L39.3568 21.7659Z" fill="#C86328"/>
</g>
<g style="mix-blend-mode:screen">
<path d="M39.3568 21.7656C41.286 20.4068 43.5423 19.7609 45.8825 19.7441C42.4938 24.2316 42.217 31.3445 45.698 37.6186C48.7847 43.1797 54.7652 48.3215 60.2844 49.7306C59.5882 50.8546 58.9172 51.9954 58.2713 53.1529C52.0475 55.0737 42.7035 49.5881 37.9979 42.9281C32.7388 35.4713 33.3511 26.0015 39.3484 21.7656H39.3568Z" fill="#C86328"/>
</g>
<g style="mix-blend-mode:multiply" opacity="0.3">
<path d="M46.217 46.0398C64.6451 40.9316 69.619 12.3543 54.5377 3.20312C61.8687 4.21805 68.7803 8.11839 73.3768 14.6441C75.8428 18.1335 77.5959 22.4616 78.6192 27.0665C73.0832 31.2604 68.3022 36.4273 64.687 42.7098C64.3095 43.3641 63.9656 44.0435 63.605 44.7061C59.713 50.2337 56.383 56.1052 53.8331 62.2786C43.9103 60.8527 33.694 54.4528 28.1244 46.5598C27.2269 45.2849 26.4888 43.9596 25.8262 42.6008C30.364 46.0146 37.0826 48.5813 46.217 46.0482V46.0398Z" fill="#C86328"/>
</g>
<g style="mix-blend-mode:screen">
<path d="M35.3134 16.7498C36.3619 17.5718 36.1522 19.5849 34.8521 21.2373C33.5519 22.8897 31.6563 23.5607 30.6078 22.7387C29.5593 21.9167 29.7606 19.9036 31.0608 18.2596C32.3609 16.6072 34.2565 15.9362 35.3134 16.7582V16.7498Z" fill="#C86328"/>
</g>
<g style="mix-blend-mode:screen">
<path d="M46.6957 9.15129C47.5261 10.703 46.2092 13.0181 43.76 14.3266C41.3191 15.6351 38.6602 15.4338 37.8298 13.882C36.9994 12.3303 38.3163 10.0068 40.7655 8.70673C43.2064 7.39823 45.8653 7.59954 46.6957 9.15129Z" fill="#C86328"/>
</g>
</svg>
