<svg width="96" height="29" viewBox="0 0 96 29" fill="none" xmlns="http://www.w3.org/2000/svg">
<path d="M95.2402 9.62051C95.2606 13.2401 93.0035 14.6084 91.8174 15.0537C91.8164 15.0537 91.8154 15.0546 91.8144 15.0546C91.6024 15.1458 91.4707 15.1856 91.4707 15.1856C91.3157 15.2371 91.1597 15.2806 90.9969 15.3159L78.3661 17.9763L77.4688 18.1649C77.8735 17.9933 78.1678 17.7821 78.3814 17.5587C79.0264 16.8968 78.9581 16.1463 78.9581 16.1463L78.7028 14.9323L78.5676 14.2878L76.8788 6.26729L76.7454 5.63197L76.4902 4.41898L89.3556 1.70801C91.6916 1.21552 93.9856 2.70925 94.478 5.04824L95.0771 7.8971C95.1864 8.52102 95.2377 9.09478 95.2402 9.62051Z" fill="#C2172F"/>
<path d="M95.2401 9.62105C95.2605 13.2406 93.0034 14.6089 91.8173 15.0542C91.8163 15.0542 91.8153 15.0552 91.8133 15.0552C91.6012 15.1474 91.4686 15.1861 91.4686 15.1861C91.3146 15.2366 91.1586 15.2801 90.9957 15.3154L78.365 17.9758L77.4677 18.1644C77.8724 17.9928 78.1677 17.7816 78.3813 17.5583C79.0263 16.8963 78.958 16.1448 78.958 16.1448L91.8244 13.4348C93.7203 13.0357 95.0629 11.4512 95.2402 9.61903L95.2401 9.62105Z" fill="#570416"/>
<path d="M95.2417 9.62134C95.0644 11.4525 93.7229 13.037 91.826 13.4371L78.9595 16.1471L78.7043 14.9331L78.568 14.2876L76.8792 6.26811L88.5741 3.80486C89.9379 3.51717 91.2859 3.91945 92.257 4.7741C92.257 4.7741 92.256 4.77409 92.257 4.77511C92.6084 5.0822 92.9085 5.45121 93.1444 5.86685C93.3527 6.23572 93.5101 6.64431 93.6025 7.08338L94.1635 9.74711L95.0786 7.89893C95.1868 8.52385 95.2382 9.0966 95.2417 9.62234L95.2417 9.62134Z" fill="#570416"/>
<path d="M78.9581 16.1477L78.7028 14.9336L78.5666 14.2881L76.8777 6.26821L76.6237 6.32155L75.9408 6.46539L47.0126 12.5571C43.4594 13.3048 40.005 14.4665 36.7223 16.0188L36.0189 16.3501C29.3794 19.4881 21.7288 20.9384 14.6349 22.8074C13.09 23.216 11.5354 23.5931 9.97407 23.9379C9.87388 23.9608 9.77372 23.9818 9.67355 24.0037C9.37505 24.0696 9.07758 24.1345 8.77913 24.1964L5.34027 24.9214C4.97099 24.9995 4.67225 25.246 4.51885 25.571L1.10264 26.6646C1.29549 27.0585 1.75545 27.9613 5.74326 27.2351C5.77055 27.2314 5.79782 27.2287 5.82514 27.223L5.94553 27.1983C6.30561 27.1301 6.69411 27.0482 7.11205 26.9525L9.265 26.4991C9.66362 26.4153 10.0642 26.3325 10.4628 26.2537C19.2303 24.4995 28.168 23.7322 37.1105 23.966L37.8862 23.9868C41.5156 24.0826 45.3101 24.5285 48.8643 23.7808L77.4687 18.1664C77.8648 17.9615 78.162 17.7563 78.3824 17.5603C79.0274 16.8983 78.9591 16.1467 78.9591 16.1467L78.9581 16.1477Z" fill="#B2B2B2"/>
<path d="M1.10311 26.6638C1.10311 26.6638 1.62469 28.1243 9.26404 26.4984L1.10311 26.6638Z" fill="#B2B2B2"/>
<path d="M95.242 9.62062C95.0647 11.4519 93.7231 13.0365 91.8261 13.4366L78.959 16.1467L49.4905 22.3517C45.8695 23.1148 42.1742 23.451 38.4761 23.3544L37.6853 23.3334C28.5764 23.0945 19.472 23.8769 10.5407 25.6634C10.133 25.7431 9.72632 25.8268 9.31961 25.9125L2.45001 27.3585C2.30129 27.3899 2.15091 27.3921 2.00994 27.3681C1.98679 27.3638 1.96564 27.3605 1.94451 27.3552C1.93645 27.3541 1.92638 27.3529 1.91836 27.3488C1.90025 27.3445 1.88214 27.3403 1.86606 27.335C1.84192 27.3287 1.81982 27.3203 1.79673 27.311C1.7947 27.3119 1.79169 27.3109 1.7897 27.3089C1.76055 27.2994 1.73345 27.288 1.70636 27.2755C1.70434 27.2755 1.70133 27.2745 1.69932 27.2734C1.64315 27.2465 1.59006 27.2155 1.53901 27.1826C1.532 27.1785 1.52598 27.1754 1.52 27.1693C1.49499 27.1518 1.47099 27.1343 1.44902 27.1159C1.42305 27.0954 1.3981 27.0729 1.37416 27.0504C1.35024 27.0269 1.32632 27.0034 1.30443 26.9779C1.28355 26.9534 1.26168 26.9269 1.24183 26.9004C1.20213 26.8474 1.16653 26.7895 1.135 26.7285C1.12416 26.7072 1.11435 26.6849 1.10454 26.6626C1.10061 26.6545 1.0967 26.6443 1.09277 26.6352C1.08006 26.6027 1.06836 26.5703 1.05768 26.5369C1.04698 26.5044 1.03834 26.469 1.03171 26.4346C0.963112 26.1099 1.0327 25.7898 1.20039 25.5326C1.36808 25.2754 1.63385 25.0829 1.9576 25.0143L8.82822 23.5674C9.23393 23.4816 9.64067 23.3939 10.0454 23.3031C18.9387 21.3355 27.5859 18.3799 35.8241 14.4879L36.5387 14.1497C39.8823 12.5699 43.4015 11.3869 47.0214 10.6248L76.4889 4.41778L89.3571 1.70771C91.6931 1.2152 93.9862 2.71 94.4787 5.04709L95.0789 7.89611L95.1675 8.31194C95.2599 8.75305 95.2826 9.19328 95.242 9.61961L95.242 9.62062Z" fill="#D9D9D9"/>
<path d="M93.108 5.68974L93.5176 7.63428C93.9082 9.48776 92.5004 11.3531 90.3748 11.8008C87.6391 12.3771 84.9044 12.9524 82.1687 13.5288C77.6979 14.4699 73.2271 15.412 68.7553 16.3531C66.4587 16.837 64.2268 17.4711 61.8935 17.8183C59.532 18.1693 57.1554 18.4272 54.8173 18.9187C53.145 19.2701 51.4994 19.74 49.8337 20.1188C48.3391 20.4583 46.8282 20.724 45.3184 20.9897C42.8084 21.4316 40.2953 21.8724 37.762 22.1617C35.4277 22.4282 33.0729 22.5663 30.7242 22.4482C28.4038 22.3314 26.0169 22.6144 23.6985 22.8266C18.808 23.2761 13.9432 24.0105 9.13748 25.0231L2.88704 26.3396C2.29822 26.4634 1.73204 26.1476 1.62444 25.6336C1.51582 25.1197 2.04197 25.2473 2.6318 25.1235L8.88224 23.807C17.3635 22.021 25.6325 19.3755 33.5221 15.9262L34.1775 15.6397C37.2406 14.3006 40.4512 13.2731 43.7453 12.5797L88.5516 3.14449C90.6772 2.69678 92.7174 3.83626 93.108 5.68974Z" fill="white"/>
<path d="M10.0431 23.3038L10.5404 25.663C10.1337 25.7437 9.72605 25.8274 9.32038 25.9122L2.45112 27.3591C1.88357 27.4791 1.32433 27.1755 1.10371 26.6622C1.07233 26.5901 1.04806 26.5131 1.0309 26.4332C0.962293 26.1095 1.03189 25.7885 1.19956 25.5323C1.36724 25.275 1.63299 25.0826 1.95673 25.014L8.82599 23.5671C9.23168 23.4814 9.63839 23.3936 10.0431 23.3038Z" fill="#919191"/>
<path d="M10.3408 24.7166L10.5398 25.6625C10.1332 25.7432 9.72552 25.8269 9.31984 25.9116L2.45059 27.3585C1.88303 27.4786 1.3238 27.175 1.10318 26.6616L10.3408 24.7166Z" fill="#515050"/>
<path d="M10.0926 23.5472L10.4869 25.4209C10.0813 25.5016 9.67461 25.5843 9.27094 25.67L3.02184 26.9864C2.43204 27.1102 1.8669 26.7944 1.75929 26.2815C1.70498 26.0246 1.7758 25.7671 1.93279 25.5582C2.09079 25.3493 2.33495 25.1889 2.63036 25.127L8.87946 23.8106C9.28413 23.7258 9.68883 23.6381 10.0926 23.5472Z" fill="#ADACAC"/>
<path d="M95.2413 9.62048C95.064 11.4516 93.7224 13.0362 91.8255 13.4363L78.9591 16.1462L78.7038 14.9322L78.5676 14.2868L76.8788 6.26725L76.7454 5.63192L76.4902 4.41893L89.3566 1.70797C91.6926 1.21549 93.9856 2.71022 94.478 5.04718L95.0781 7.89606L95.1668 8.31187C95.2592 8.75295 95.2819 9.19316 95.2413 9.61947L95.2413 9.62048Z" fill="#8A021A"/>
<path d="M93.329 8.19123C93.3471 8.27521 93.3643 8.35816 93.3804 8.44211C93.4542 8.83554 93.4782 9.25558 93.3915 9.64903C93.214 10.451 92.6458 11.1068 92.0021 11.5881C91.6151 11.8769 91.1893 12.1148 90.7431 12.2989C89.1487 12.9591 87.4074 13.0998 85.7331 13.4522C83.39 13.9456 81.048 14.439 78.705 14.9324L76.7456 5.63111C78.4209 5.2787 80.0963 4.92528 81.7706 4.57286C83.7019 4.16613 85.6258 3.77747 87.5713 3.45063C88.3145 3.32571 89.0667 3.20091 89.8166 3.26375C90.3952 3.31235 91.0114 3.4946 91.4978 3.81448C92.0973 4.20943 92.4193 5.00956 92.5176 5.69691C92.5409 5.85663 92.5519 6.02023 92.6065 6.17226C92.6884 6.40132 92.8607 6.58711 92.9761 6.80145C93.1082 7.04627 93.1623 7.3214 93.2063 7.59337C93.2391 7.79559 93.2851 7.99292 93.328 8.19122L93.329 8.19123Z" fill="#C2172F"/>
<path d="M10.3506 24.7765L10.4869 25.4219C10.0813 25.5026 9.6746 25.5853 9.27093 25.6711L3.02183 26.9875C2.54938 27.0865 2.09155 26.9042 1.87384 26.5625L10.3516 24.7775L10.3506 24.7765Z" fill="white"/>
<path d="M71.0923 8.50016L58.5007 11.1524C57.7684 11.3066 57.2998 12.0253 57.4541 12.7575L58.1759 16.1844C58.3301 16.9166 59.0488 17.3852 59.7811 17.231L72.3727 14.5788C73.105 14.4245 73.5736 13.7059 73.4193 12.9736L72.6975 9.54678C72.5433 8.8145 71.8246 8.34591 71.0923 8.50016Z" fill="#D9D9D9"/>
<path d="M72.1059 14.36L59.9355 16.9233C59.2496 17.0681 58.577 16.6289 58.4322 15.9429L57.7873 12.8816C57.6425 12.1957 58.0818 11.5231 58.7677 11.3783L70.9381 8.81507C71.624 8.67027 72.2966 9.10951 72.4414 9.79543L73.0863 12.8568C73.2311 13.5427 72.7918 14.2152 72.1059 14.36Z" fill="#A3A2A2"/>
<path d="M66.033 14.3716C66.0082 14.2541 65.8929 14.1789 65.7764 14.2037C65.6588 14.2285 65.5836 14.3438 65.6085 14.4603C65.6333 14.5768 65.7485 14.6531 65.8651 14.6282C65.9826 14.6034 66.0578 14.4882 66.033 14.3716Z" fill="black"/>
<path d="M62.133 15.0265L60.856 15.2962L60.7831 15.7232L62.3727 15.3888L62.133 15.0265Z" fill="black"/>
<path d="M61.6085 11.8068L60.028 12.1393C60.028 12.1393 60.0249 12.1413 60.0239 12.1423L60.2748 12.4997L61.5386 12.2339L61.6085 11.8079L61.6085 11.8068Z" fill="black"/>
<path d="M60.4189 15.5238L60.1284 14.1416L60.2096 14.0215L60.5723 14.2349L60.7942 15.2903L60.7243 15.7163C60.5821 15.7115 60.4809 15.6477 60.4189 15.5238Z" fill="#A3A2A2"/>
<path d="M59.7736 12.4648L60.0642 13.847L60.1863 13.9242L60.4318 13.5832L60.2098 12.5278L59.9741 12.1656C59.8462 12.2265 59.7784 12.3266 59.7726 12.4648L59.7736 12.4648Z" fill="#A3A2A2"/>
<path d="M62.6119 15.062L62.3213 13.6798L62.1992 13.6026L61.9537 13.9437L62.1757 14.9991L62.4113 15.3613C62.5393 15.3003 62.6071 15.2003 62.6129 15.0621L62.6119 15.062Z" fill="black"/>
<path d="M61.9686 12.0029L62.2592 13.3851L62.1779 13.5052L61.8153 13.2918L61.5933 12.2364L61.6632 11.8104C61.8054 11.8152 61.9066 11.879 61.9686 12.0029Z" fill="black"/>
<path d="M61.8932 13.4064L61.0817 13.577L60.4027 13.7199L60.2281 13.968L60.4885 14.1236L61.1665 13.9807L61.979 13.8102L62.1537 13.5621L61.8932 13.4064Z" fill="black"/>
<path d="M64.6545 14.4963L63.3766 14.7649L63.3036 15.1919L64.8933 14.8575L64.6545 14.4963Z" fill="black"/>
<path d="M64.131 11.2775L62.5504 11.61C62.5504 11.61 62.5474 11.612 62.5463 11.613L62.7972 11.9704L64.061 11.7046L64.1309 11.2786L64.131 11.2775Z" fill="black"/>
<path d="M62.9385 14.9945L62.6479 13.6123L62.7291 13.4922L63.0918 13.7056L63.3138 14.761L63.2439 15.187C63.1016 15.1822 63.0005 15.1184 62.9385 14.9945Z" fill="black"/>
<path d="M62.2961 11.9336L62.5866 13.3158L62.7088 13.393L62.9542 13.0519L62.7323 11.9965L62.4966 11.6343C62.3687 11.6953 62.3008 11.7954 62.2951 11.9335L62.2961 11.9336Z" fill="black"/>
<path d="M65.1324 14.5318L64.8418 13.1496L64.7197 13.0723L64.4742 13.4134L64.6962 14.4688L64.9319 14.831C65.0598 14.7701 65.1276 14.67 65.1334 14.5318L65.1324 14.5318Z" fill="black"/>
<path d="M64.4881 11.4736L64.7787 12.8558L64.6975 12.9759L64.3348 12.7625L64.1128 11.7071L64.1827 11.2811C64.325 11.2859 64.4261 11.3497 64.4881 11.4736Z" fill="black"/>
<path d="M64.4137 12.8772L63.6012 13.0477L62.9233 13.1906L62.7486 13.4377L63.008 13.5943L63.687 13.4514L64.4985 13.2799L64.6732 13.0328L64.4137 12.8772Z" fill="black"/>
<path d="M68.1076 13.7648L66.8307 14.0334L66.7577 14.4604L68.3474 14.1261L68.1076 13.7648Z" fill="black"/>
<path d="M67.5821 10.5461L66.0016 10.8786C66.0016 10.8786 65.9985 10.8806 65.9975 10.8816L66.2484 11.2389L67.5122 10.9731L67.5821 10.5471L67.5821 10.5461Z" fill="black"/>
<path d="M66.3906 14.2611L66.1001 12.8789L66.1813 12.7588L66.544 12.9722L66.7659 14.0276L66.696 14.4536C66.5538 14.4488 66.4526 14.385 66.3906 14.2611Z" fill="#A3A2A2"/>
<path d="M65.7463 11.2021L66.0368 12.5843L66.159 12.6615L66.4044 12.3205L66.1825 11.2651L65.9468 10.9029C65.8189 10.9638 65.751 11.0639 65.7453 11.2021L65.7463 11.2021Z" fill="black"/>
<path d="M68.5845 13.7994L68.294 12.4171L68.1718 12.3399L67.9264 12.681L68.1483 13.7364L68.384 14.0986C68.5119 14.0376 68.5798 13.9376 68.5855 13.7994L68.5845 13.7994Z" fill="black"/>
<path d="M67.9403 10.7383L68.2308 12.1205L68.1496 12.2406L67.7869 12.0271L67.565 10.9718L67.6349 10.5457C67.7771 10.5505 67.8783 10.6144 67.9403 10.7383Z" fill="#A3A2A2"/>
<path d="M67.8649 12.1457L67.0534 12.3172L66.3744 12.4601L66.1998 12.7072L66.4592 12.8639L67.1382 12.721L67.9497 12.5494L68.1243 12.3023L67.8649 12.1457Z" fill="black"/>
<path d="M70.6194 13.2394L69.3424 13.5081L69.2694 13.935L70.8591 13.6007L70.6194 13.2394Z" fill="black"/>
<path d="M70.0958 10.0207L68.5153 10.3532C68.5153 10.3532 68.5122 10.3552 68.5112 10.3562L68.7621 10.7135L70.0259 10.4477L70.0958 10.0217L70.0958 10.0207Z" fill="black"/>
<path d="M68.9072 13.7357L68.6167 12.3535L68.6979 12.2334L69.0605 12.4469L69.2825 13.5022L69.2126 13.9283C69.0704 13.9235 68.9692 13.8596 68.9072 13.7357Z" fill="black"/>
<path d="M68.2599 10.6777L68.5505 12.0599L68.6726 12.1371L68.9181 11.796L68.6961 10.7407L68.4605 10.3784C68.3326 10.4394 68.2647 10.5395 68.2589 10.6777L68.2599 10.6777Z" fill="black"/>
<path d="M71.0982 13.274L70.8077 11.8918L70.6855 11.8145L70.44 12.1556L70.662 13.211L70.8977 13.5732C71.0256 13.5122 71.0935 13.4122 71.0992 13.274L71.0982 13.274Z" fill="black"/>
<path d="M70.4549 10.2148L70.7455 11.597L70.6643 11.7171L70.3016 11.5037L70.0796 10.4483L70.1495 10.0223C70.2918 10.0271 70.3929 10.0909 70.4549 10.2148Z" fill="black"/>
<path d="M70.3815 11.6193L69.57 11.7909L68.891 11.9338L68.7164 12.1809L68.9758 12.3375L69.6548 12.1946L70.4663 12.0231L70.642 11.776L70.3815 11.6193Z" fill="#A3A2A2"/>
<path opacity="0.15" d="M59.0387 11.6372C58.6127 11.7338 58.1262 11.9063 58.0374 12.3915C57.9974 12.61 58.0329 12.8334 58.0685 13.0518C58.1435 13.5149 58.2174 13.9779 58.2924 14.441C58.3261 14.6513 58.3654 14.8939 58.5157 15.0573C58.685 15.241 58.9123 15.1359 58.9838 14.9057C59.0206 14.7881 59.007 14.6618 58.9924 14.5395C58.9587 14.2495 58.926 13.9585 58.8923 13.6685C58.8659 13.4412 58.7776 13.1555 58.8822 12.9389C58.992 12.7132 59.3002 12.596 59.5367 12.5677C60.053 12.5075 60.576 12.3193 61.0801 12.1894C62.1451 11.9131 63.2101 11.6298 64.2537 11.2806C64.3773 11.2387 64.503 11.1959 64.6099 11.1215C64.7422 11.0283 64.9965 10.7803 64.8207 10.6388C64.7168 10.5558 64.5127 10.5775 64.3916 10.584C64.0887 10.6004 63.7971 10.6785 63.4988 10.7273C62.2805 10.9229 61.0725 11.1813 59.8684 11.4508C59.5922 11.5129 59.316 11.5751 59.0387 11.6382L59.0387 11.6372Z" fill="white"/>
<path d="M10.2884 26.2865C9.9475 26.3539 9.60556 26.4253 9.26463 26.4967C9.16853 26.5167 9.07241 26.5377 8.97833 26.5567L7.11181 26.9491C6.69388 27.0458 6.30542 27.1257 5.94535 27.1949L5.82495 27.2206C5.79865 27.2263 5.77138 27.228 5.74307 27.2327C3.74574 27.5962 2.63235 27.551 1.99596 27.3655C2.14193 27.3926 2.29533 27.3904 2.4491 27.3581L2.95595 27.2514L6.25198 26.557L6.25299 26.557L9.31835 25.9122C9.72302 25.8264 10.1317 25.7427 10.5383 25.663C10.5383 25.663 10.6021 26.0483 10.2874 26.2865L10.2884 26.2865Z" fill="#303030"/>
<path d="M95.2401 9.62105C95.2605 13.2406 93.0034 14.6089 91.8173 15.0542C91.8163 15.0542 91.8153 15.0552 91.8133 15.0552C91.6012 15.1474 91.4686 15.1861 91.4686 15.1861C91.3146 15.2366 91.1586 15.2801 90.9957 15.3154L78.365 17.9758L77.4677 18.1644C77.8724 17.9928 78.1677 17.7816 78.3813 17.5583C79.0263 16.8963 78.958 16.1448 78.958 16.1448L91.8244 13.4348C93.7203 13.0357 95.0629 11.4512 95.2402 9.61903L95.2401 9.62105Z" fill="#570416"/>
<path d="M95.2417 9.62134C95.0644 11.4525 93.7229 13.037 91.826 13.4371L78.9595 16.1471L78.7043 14.9331L78.568 14.2876L76.8792 6.26811L88.5741 3.80486C89.9379 3.51717 91.2859 3.91945 92.257 4.7741C92.257 4.7741 92.256 4.77409 92.257 4.77511C92.6084 5.0822 92.9085 5.45121 93.1444 5.86685C93.3527 6.23572 93.5101 6.64431 93.6025 7.08338L94.1635 9.74711L95.0786 7.89893C95.1868 8.52385 95.2382 9.0966 95.2417 9.62234L95.2417 9.62134Z" fill="#570416"/>
<path d="M78.9581 16.1477L78.7028 14.9336L78.5666 14.2881L76.8777 6.26821L76.6237 6.32155L75.9408 6.46539L47.0126 12.5571C43.4594 13.3048 40.005 14.4665 36.7223 16.0188L36.0189 16.3501C29.3794 19.4881 21.7288 20.9384 14.6349 22.8074C13.09 23.216 11.5354 23.5931 9.97407 23.9379C9.87388 23.9608 9.77372 23.9818 9.67355 24.0037C9.37505 24.0696 9.07758 24.1345 8.77913 24.1964L5.34027 24.9214C4.97099 24.9995 4.67225 25.246 4.51885 25.571L1.10264 26.6646C1.29549 27.0585 1.75545 27.9613 5.74326 27.2351C5.77055 27.2314 5.79782 27.2287 5.82514 27.223L5.94553 27.1983C6.30561 27.1301 6.69411 27.0482 7.11205 26.9525L9.265 26.4991C9.66362 26.4153 10.0642 26.3325 10.4628 26.2537C19.2303 24.4995 28.168 23.7322 37.1105 23.966L37.8862 23.9868C41.5156 24.0826 45.3101 24.5285 48.8643 23.7808L77.4687 18.1664C77.8648 17.9615 78.162 17.7563 78.3824 17.5603C79.0274 16.8983 78.9591 16.1467 78.9591 16.1467L78.9581 16.1477Z" fill="#B2B2B2"/>
<path d="M1.10311 26.6638C1.10311 26.6638 1.62469 28.1243 9.26404 26.4984L1.10311 26.6638Z" fill="#B2B2B2"/>
<path d="M95.242 9.62062C95.0647 11.4519 93.7231 13.0365 91.8261 13.4366L78.959 16.1467L49.4905 22.3517C45.8695 23.1148 42.1742 23.451 38.4761 23.3544L37.6853 23.3334C28.5764 23.0945 19.472 23.8769 10.5407 25.6634C10.133 25.7431 9.72632 25.8268 9.31961 25.9125L2.45001 27.3585C2.30129 27.3899 2.15091 27.3921 2.00994 27.3681C1.98679 27.3638 1.96564 27.3605 1.94451 27.3552C1.93645 27.3541 1.92638 27.3529 1.91836 27.3488C1.90025 27.3445 1.88214 27.3403 1.86606 27.335C1.84192 27.3287 1.81982 27.3203 1.79673 27.311C1.7947 27.3119 1.79169 27.3109 1.7897 27.3089C1.76055 27.2994 1.73345 27.288 1.70636 27.2755C1.70434 27.2755 1.70133 27.2745 1.69932 27.2734C1.64315 27.2465 1.59006 27.2155 1.53901 27.1826C1.532 27.1785 1.52598 27.1754 1.52 27.1693C1.49499 27.1518 1.47099 27.1343 1.44902 27.1159C1.42305 27.0954 1.3981 27.0729 1.37416 27.0504C1.35024 27.0269 1.32632 27.0034 1.30443 26.9779C1.28355 26.9534 1.26168 26.9269 1.24183 26.9004C1.20213 26.8474 1.16653 26.7895 1.135 26.7285C1.12416 26.7072 1.11435 26.6849 1.10454 26.6626C1.10061 26.6545 1.0967 26.6443 1.09277 26.6352C1.08006 26.6027 1.06836 26.5703 1.05768 26.5369C1.04698 26.5044 1.03834 26.469 1.03171 26.4346C0.963112 26.1099 1.0327 25.7898 1.20039 25.5326C1.36808 25.2754 1.63385 25.0829 1.9576 25.0143L8.82822 23.5674C9.23393 23.4816 9.64067 23.3939 10.0454 23.3031C18.9387 21.3355 27.5859 18.3799 35.8241 14.4879L36.5387 14.1497C39.8823 12.5699 43.4015 11.3869 47.0214 10.6248L76.4889 4.41778L89.3571 1.70771C91.6931 1.2152 93.9862 2.71 94.4787 5.04709L95.0789 7.89611L95.1675 8.31194C95.2599 8.75305 95.2826 9.19328 95.242 9.61961L95.242 9.62062Z" fill="#D9D9D9"/>
<path d="M93.108 5.68974L93.5176 7.63428C93.9082 9.48776 92.5004 11.3531 90.3748 11.8008C87.6391 12.3771 84.9044 12.9524 82.1687 13.5288C77.6979 14.4699 73.2271 15.412 68.7553 16.3531C66.4587 16.837 64.2268 17.4711 61.8935 17.8183C59.532 18.1693 57.1554 18.4272 54.8173 18.9187C53.145 19.2701 51.4994 19.74 49.8337 20.1188C48.3391 20.4583 46.8282 20.724 45.3184 20.9897C42.8084 21.4316 40.2953 21.8724 37.762 22.1617C35.4277 22.4282 33.0729 22.5663 30.7242 22.4482C28.4038 22.3314 26.0169 22.6144 23.6985 22.8266C18.808 23.2761 13.9432 24.0105 9.13748 25.0231L2.88704 26.3396C2.29822 26.4634 1.73204 26.1476 1.62444 25.6336C1.51582 25.1197 2.04197 25.2473 2.6318 25.1235L8.88224 23.807C17.3635 22.021 25.6325 19.3755 33.5221 15.9262L34.1775 15.6397C37.2406 14.3006 40.4512 13.2731 43.7453 12.5797L88.5516 3.14449C90.6772 2.69678 92.7174 3.83626 93.108 5.68974Z" fill="white"/>
<path d="M10.0431 23.3038L10.5404 25.663C10.1337 25.7437 9.72605 25.8274 9.32038 25.9122L2.45112 27.3591C1.88357 27.4791 1.32433 27.1755 1.10371 26.6622C1.07233 26.5901 1.04806 26.5131 1.0309 26.4332C0.962293 26.1095 1.03189 25.7885 1.19956 25.5323C1.36724 25.275 1.63299 25.0826 1.95673 25.014L8.82599 23.5671C9.23168 23.4814 9.63839 23.3936 10.0431 23.3038Z" fill="#919191"/>
<path d="M10.3408 24.7166L10.5398 25.6625C10.1332 25.7432 9.72552 25.8269 9.31984 25.9116L2.45059 27.3585C1.88303 27.4786 1.3238 27.175 1.10318 26.6616L10.3408 24.7166Z" fill="#515050"/>
<path d="M10.0926 23.5472L10.4869 25.4209C10.0813 25.5016 9.67461 25.5843 9.27094 25.67L3.02184 26.9864C2.43204 27.1102 1.8669 26.7944 1.75929 26.2815C1.70498 26.0246 1.7758 25.7671 1.93279 25.5582C2.09079 25.3493 2.33495 25.1889 2.63036 25.127L8.87946 23.8106C9.28413 23.7258 9.68883 23.6381 10.0926 23.5472Z" fill="#ADACAC"/>
<path d="M95.2413 9.62048C95.064 11.4516 93.7224 13.0362 91.8255 13.4363L78.9591 16.1462L78.7038 14.9322L78.5676 14.2868L76.8788 6.26725L76.7454 5.63192L76.4902 4.41893L89.3566 1.70797C91.6926 1.21549 93.9856 2.71022 94.478 5.04718L95.0781 7.89606L95.1668 8.31187C95.2592 8.75295 95.2819 9.19316 95.2413 9.61947L95.2413 9.62048Z" fill="#8A021A"/>
<path d="M93.329 8.19123C93.3471 8.27521 93.3643 8.35816 93.3804 8.44211C93.4542 8.83554 93.4782 9.25558 93.3915 9.64903C93.214 10.451 92.6458 11.1068 92.0021 11.5881C91.6151 11.8769 91.1893 12.1148 90.7431 12.2989C89.1487 12.9591 87.4074 13.0998 85.7331 13.4522C83.39 13.9456 81.048 14.439 78.705 14.9324L76.7456 5.63111C78.4209 5.2787 80.0963 4.92528 81.7706 4.57286C83.7019 4.16613 85.6258 3.77747 87.5713 3.45063C88.3145 3.32571 89.0667 3.20091 89.8166 3.26375C90.3952 3.31235 91.0114 3.4946 91.4978 3.81448C92.0973 4.20943 92.4193 5.00956 92.5176 5.69691C92.5409 5.85663 92.5519 6.02023 92.6065 6.17226C92.6884 6.40132 92.8607 6.58711 92.9761 6.80145C93.1082 7.04627 93.1623 7.3214 93.2063 7.59337C93.2391 7.79559 93.2851 7.99292 93.328 8.19122L93.329 8.19123Z" fill="#C2172F"/>
<path d="M93.329 8.19123C93.3471 8.27521 93.3643 8.35816 93.3804 8.44211C93.4542 8.83554 93.4782 9.25558 93.3915 9.64903C93.214 10.451 92.6458 11.1068 92.0021 11.5881C91.6151 11.8769 91.1893 12.1148 90.7431 12.2989C89.1487 12.9591 87.4074 13.0998 85.7331 13.4522C83.39 13.9456 81.048 14.439 78.705 14.9324L76.7456 5.63111C78.4209 5.2787 80.0963 4.92528 81.7706 4.57286C83.7019 4.16613 85.6258 3.77747 87.5713 3.45063C88.3145 3.32571 89.0667 3.20091 89.8166 3.26375C90.3952 3.31235 91.0114 3.4946 91.4978 3.81448C92.0973 4.20943 92.4193 5.00956 92.5176 5.69691C92.5409 5.85663 92.5519 6.02023 92.6065 6.17226C92.6884 6.40132 92.8607 6.58711 92.9761 6.80145C93.1082 7.04627 93.1623 7.3214 93.2063 7.59337C93.2391 7.79559 93.2851 7.99292 93.328 8.19122L93.329 8.19123Z" fill="#C2172F"/>
<path d="M10.3506 24.7765L10.4869 25.4219C10.0813 25.5026 9.6746 25.5853 9.27093 25.6711L3.02183 26.9875C2.54938 27.0865 2.09155 26.9042 1.87384 26.5625L10.3516 24.7775L10.3506 24.7765Z" fill="white"/>
<path d="M71.0923 8.50016L58.5007 11.1524C57.7684 11.3066 57.2998 12.0253 57.4541 12.7575L58.1759 16.1844C58.3301 16.9166 59.0488 17.3852 59.7811 17.231L72.3727 14.5788C73.105 14.4245 73.5736 13.7059 73.4193 12.9736L72.6975 9.54678C72.5433 8.8145 71.8246 8.34591 71.0923 8.50016Z" fill="#D9D9D9"/>
<path d="M72.1059 14.36L59.9355 16.9233C59.2496 17.0681 58.577 16.6289 58.4322 15.9429L57.7873 12.8816C57.6425 12.1957 58.0818 11.5231 58.7677 11.3783L70.9381 8.81507C71.624 8.67027 72.2966 9.10951 72.4414 9.79543L73.0863 12.8568C73.2311 13.5427 72.7918 14.2152 72.1059 14.36Z" fill="#A3A2A2"/>
<path d="M66.033 14.3716C66.0082 14.2541 65.8929 14.1789 65.7764 14.2037C65.6588 14.2285 65.5836 14.3438 65.6085 14.4603C65.6333 14.5768 65.7485 14.6531 65.8651 14.6282C65.9826 14.6034 66.0578 14.4882 66.033 14.3716Z" fill="black"/>
<path opacity="0.15" d="M59.0387 11.6372C58.6127 11.7338 58.1262 11.9063 58.0374 12.3915C57.9974 12.61 58.0329 12.8334 58.0685 13.0518C58.1435 13.5149 58.2174 13.9779 58.2924 14.441C58.3261 14.6513 58.3654 14.8939 58.5157 15.0573C58.685 15.241 58.9123 15.1359 58.9838 14.9057C59.0206 14.7881 59.007 14.6618 58.9924 14.5395C58.9587 14.2495 58.926 13.9585 58.8923 13.6685C58.8659 13.4412 58.7776 13.1555 58.8822 12.9389C58.992 12.7132 59.3002 12.596 59.5367 12.5677C60.053 12.5075 60.576 12.3193 61.0801 12.1894C62.1451 11.9131 63.2101 11.6298 64.2537 11.2806C64.3773 11.2387 64.503 11.1959 64.6099 11.1215C64.7422 11.0283 64.9965 10.7803 64.8207 10.6388C64.7168 10.5558 64.5127 10.5775 64.3916 10.584C64.0887 10.6004 63.7971 10.6785 63.4988 10.7273C62.2805 10.9229 61.0725 11.1813 59.8684 11.4508C59.5922 11.5129 59.316 11.5751 59.0387 11.6382L59.0387 11.6372Z" fill="white"/>
<path d="M62.133 15.0265L60.856 15.2962L60.7831 15.7232L62.3727 15.3888L62.133 15.0265Z" fill="black"/>
<path d="M61.6085 11.8068L60.028 12.1393C60.028 12.1393 60.0249 12.1413 60.0239 12.1423L60.2748 12.4997L61.5386 12.2339L61.6085 11.8079L61.6085 11.8068Z" fill="black"/>
<path d="M61.9464 13.5022L60.3659 13.8346C60.3659 13.8346 60.3628 13.8366 60.3618 13.8376L60.6126 14.195L61.8765 13.9292L61.9464 13.5032L61.9464 13.5022Z" fill="black"/>
<path d="M60.4189 15.5238L60.1284 14.1416L60.2096 14.0215L60.5723 14.2349L60.7942 15.2903L60.7243 15.7163C60.5821 15.7115 60.4809 15.6477 60.4189 15.5238Z" fill="#A3A2A2"/>
<path d="M59.7736 12.4648L60.0642 13.847L60.1863 13.9242L60.4318 13.5832L60.2098 12.5278L59.9741 12.1656C59.8462 12.2265 59.7784 12.3266 59.7726 12.4648L59.7736 12.4648Z" fill="#A3A2A2"/>
<path d="M62.6119 15.062L62.3213 13.6798L62.1992 13.6026L61.9537 13.9437L62.1757 14.9991L62.4113 15.3613C62.5393 15.3003 62.6071 15.2003 62.6129 15.0621L62.6119 15.062Z" fill="black"/>
<path d="M64.6545 14.4963L63.3766 14.7649L63.3036 15.1919L64.8933 14.8575L64.6545 14.4963Z" fill="black"/>
<path d="M64.131 11.2775L62.5504 11.61C62.5504 11.61 62.5474 11.612 62.5463 11.613L62.7972 11.9704L64.061 11.7046L64.1309 11.2786L64.131 11.2775Z" fill="black"/>
<path d="M64.4649 12.9768L62.8844 13.3092C62.8844 13.3092 62.8814 13.3112 62.8803 13.3122L63.1312 13.6696L64.395 13.4038L64.4649 12.9778L64.4649 12.9768Z" fill="black"/>
<path d="M62.2961 11.9336L62.5866 13.3158L62.7088 13.393L62.9542 13.0519L62.7323 11.9965L62.4966 11.6343C62.3687 11.6953 62.3008 11.7954 62.2951 11.9335L62.2961 11.9336Z" fill="black"/>
<path d="M65.1324 14.5318L64.8418 13.1496L64.7197 13.0723L64.4742 13.4134L64.6962 14.4688L64.9319 14.831C65.0598 14.7701 65.1276 14.67 65.1334 14.5318L65.1324 14.5318Z" fill="black"/>
<path d="M61.995 12.0117L62.2855 13.3939L62.2043 13.514L61.8416 13.3006L61.6197 12.2452L61.6896 11.8192C61.8318 11.824 61.933 11.8878 61.995 12.0117Z" fill="black"/>
<path d="M68.1076 13.7648L66.8307 14.0334L66.7577 14.4604L68.3474 14.1261L68.1076 13.7648Z" fill="black"/>
<path d="M67.5821 10.5461L66.0016 10.8786C66.0016 10.8786 65.9985 10.8806 65.9975 10.8816L66.2484 11.2389L67.5122 10.9731L67.5821 10.5471L67.5821 10.5461Z" fill="black"/>
<path d="M67.9642 12.2417L66.3772 12.5416C66.3772 12.5416 66.3741 12.5435 66.373 12.5445L66.6165 12.9069L67.8855 12.6672L67.9642 12.2427L67.9642 12.2417Z" fill="black"/>
<path d="M66.3906 14.2611L66.1001 12.8789L66.1813 12.7588L66.544 12.9722L66.7659 14.0276L66.696 14.4536C66.5538 14.4488 66.4526 14.385 66.3906 14.2611Z" fill="#A3A2A2"/>
<path d="M65.7463 11.2021L66.0368 12.5843L66.159 12.6615L66.4044 12.3205L66.1825 11.2651L65.9468 10.9029C65.8189 10.9638 65.751 11.0639 65.7453 11.2021L65.7463 11.2021Z" fill="black"/>
<path d="M68.5845 13.7994L68.294 12.4171L68.1718 12.3399L67.9264 12.681L68.1483 13.7364L68.384 14.0986C68.5119 14.0376 68.5798 13.9376 68.5855 13.7994L68.5845 13.7994Z" fill="black"/>
<path d="M67.9403 10.7383L68.2308 12.1205L68.1496 12.2406L67.7869 12.0271L67.565 10.9718L67.6349 10.5457C67.7771 10.5505 67.8783 10.6144 67.9403 10.7383Z" fill="#A3A2A2"/>
<path d="M70.6194 13.2394L69.3424 13.5081L69.2694 13.935L70.8591 13.6007L70.6194 13.2394Z" fill="black"/>
<path d="M70.0958 10.0207L68.5153 10.3532C68.5153 10.3532 68.5122 10.3552 68.5112 10.3562L68.7621 10.7135L70.0259 10.4477L70.0958 10.0217L70.0958 10.0207Z" fill="black"/>
<path d="M68.9072 13.7357L68.6167 12.3535L68.6979 12.2334L69.0605 12.4469L69.2825 13.5022L69.2126 13.9283C69.0704 13.9235 68.9692 13.8596 68.9072 13.7357Z" fill="black"/>
<path d="M66.3877 14.222L66.0971 12.8398L66.1783 12.7197L66.541 12.9332L66.763 13.9886L66.6931 14.4146C66.5508 14.4098 66.4497 14.3459 66.3877 14.222Z" fill="black"/>
<path d="M62.9121 14.9857L62.6215 13.6035L62.7028 13.4834L63.0654 13.6969L63.2874 14.7522L63.2175 15.1783C63.0752 15.1735 62.9741 15.1096 62.9121 14.9857Z" fill="black"/>
<path d="M68.2599 10.6777L68.5505 12.0599L68.6726 12.1371L68.9181 11.796L68.6961 10.7407L68.4605 10.3784C68.3326 10.4394 68.2647 10.5395 68.2589 10.6777L68.2599 10.6777Z" fill="black"/>
<path d="M71.0982 13.274L70.8077 11.8918L70.6855 11.8145L70.44 12.1556L70.662 13.211L70.8977 13.5732C71.0256 13.5122 71.0935 13.4122 71.0992 13.274L71.0982 13.274Z" fill="black"/>
<path d="M70.4549 10.2148L70.7455 11.597L70.6643 11.7171L70.3016 11.5037L70.0796 10.4483L70.1495 10.0223C70.2918 10.0271 70.3929 10.0909 70.4549 10.2148Z" fill="black"/>
<path d="M70.3815 11.6193L69.57 11.7909L68.891 11.9338L68.7164 12.1809L68.9758 12.3375L69.6548 12.1946L70.4663 12.0231L70.642 11.776L70.3815 11.6193Z" fill="#A3A2A2"/>
<path d="M10.2884 26.2865C9.9475 26.3539 9.60556 26.4253 9.26463 26.4967C9.16853 26.5167 9.07241 26.5377 8.97833 26.5567L7.11181 26.9491C6.69388 27.0458 6.30542 27.1257 5.94535 27.1949L5.82495 27.2206C5.79865 27.2263 5.77138 27.228 5.74307 27.2327C3.74574 27.5962 2.63235 27.551 1.99596 27.3655C2.14193 27.3926 2.29533 27.3904 2.4491 27.3581L2.95595 27.2514L6.25198 26.557L6.25299 26.557L9.31835 25.9122C9.72302 25.8264 10.1317 25.7427 10.5383 25.663C10.5383 25.663 10.6021 26.0483 10.2874 26.2865L10.2884 26.2865Z" fill="#303030"/>
</svg>
