<svg width="99" height="105" viewBox="0 0 99 105" fill="none" xmlns="http://www.w3.org/2000/svg">
<path d="M49.2875 97.4821C28.7408 97.4821 10.3053 84.4285 3.43661 65.0118C1.56333 59.719 0.611816 54.2775 0.611816 48.8064C0.611816 43.3352 1.50386 38.2208 3.2582 33.0767L3.40688 32.6604C10.2756 13.2734 28.7111 0.1604 49.2875 0.1604C54.6398 0.1604 59.9623 1.08218 65.1361 2.86626C68.8232 4.14485 72.4211 5.8992 75.7811 8.06983C89.6672 17.1092 97.9335 32.3333 97.9335 48.8064C97.9335 50.3228 97.8443 51.8988 97.6956 53.5639C95.2573 78.6005 74.4431 97.4821 49.2578 97.4821H49.2875Z" fill="#68254A"/>
<path d="M49.2874 94.9545C29.8112 94.9545 12.3272 82.5849 5.81528 64.1791C4.0312 59.1539 3.13916 53.9801 3.13916 48.8063C3.13916 43.6324 3.97173 38.7857 5.63687 33.9092L5.75581 33.5821C12.2974 15.0871 29.7814 2.68774 49.2874 2.68774C54.372 2.68774 59.4269 3.55005 64.3332 5.24493C67.8419 6.46405 71.2316 8.12919 74.4132 10.1809C87.556 18.7445 95.4356 33.1658 95.4356 48.8063C95.4356 50.2633 95.3464 51.75 95.1978 53.2962C92.9082 77.0245 73.1644 94.9248 49.2874 94.9248V94.9545Z" fill="#B94987"/>
<path d="M73.0448 12.322C70.1011 10.3893 66.8898 8.81333 63.5297 7.65368C59.0695 6.10748 54.312 5.24517 49.3166 5.24517C30.2863 5.21544 14.1701 17.4067 8.19346 34.3852C8.16373 34.5041 8.10426 34.6231 8.04479 34.742C6.52832 39.1725 5.66602 43.9003 5.66602 48.8362C5.66602 53.7722 6.58779 58.7974 8.19346 63.3468C14.1701 80.2658 30.2863 92.4273 49.2571 92.4273C71.9149 92.4273 90.4991 75.1514 92.64 53.0883C92.7887 51.6908 92.8481 50.2635 92.8481 48.8362C92.8481 33.5229 84.9387 20.0828 72.9854 12.322H73.0448Z" fill="url(#paint0_linear_2375_14463)"/>
<path d="M49.4352 95.3191C73.46 95.3191 93.1654 77.001 95.4355 53.6067C59.6504 97.936 23.3925 78.7666 5.89404 64.4841C12.2313 82.4239 29.3199 95.3191 49.4352 95.3191Z" fill="#70264F" fill-opacity="0.6"/>
<path opacity="0.7" d="M74.2048 10.2547C71.0925 8.21124 67.6972 6.54504 64.1448 5.31897C59.4291 3.68421 54.3991 2.77252 49.1175 2.77252C28.9974 2.74108 11.9581 15.6305 5.63916 33.5815C17.6484 21.195 40.2835 5.19322 74.1734 10.2547H74.2048Z" fill="#CD76A6" fill-opacity="0.5"/>
<path d="M32.9602 13.0091C31.1837 12.3486 27.5397 14.1706 27.2892 15.446C26.9703 17.1086 29.2934 17.0858 31.9125 16.0837C33.985 15.2866 34.1217 13.4418 32.9602 13.0091Z" fill="#E7F5F9"/>
<path d="M23.7587 17.3138C22.4377 17.2682 21.3445 18.1792 21.4584 19.0675C21.6178 20.2518 22.8704 20.2062 23.9181 19.3863C25.1479 18.4298 24.6241 17.3366 23.7587 17.291V17.3138Z" fill="#E7F5F9"/>
<path d="M97.3822 95.9154C97.3567 100.063 94.0369 103.41 89.9408 103.479L89.789 103.473L85.43 103.298C85.4299 103.298 85.4297 103.298 85.4296 103.298C59.8392 102.256 34.2121 102.154 8.61062 102.974C4.44159 102.939 1.07728 99.5176 1.10309 95.3163L1.14834 87.9484C1.16043 85.9794 1.52788 84.566 2.33454 83.4929C3.14223 82.4185 4.49873 81.5416 6.78996 80.8778C7.93428 80.5487 9.12068 80.3619 10.3451 80.2561C11.3192 80.1777 12.7281 80.0625 14.4385 79.9226C16.2172 79.7771 18.322 79.605 20.603 79.4198L20.6033 79.4198C39.741 77.8607 58.9771 77.9789 78.0941 79.7729C78.0942 79.7729 78.0942 79.7729 78.0943 79.7729L88.421 80.7436L88.4226 80.7438C89.6475 80.857 90.8428 81.0515 91.9868 81.3812L91.9889 81.3818C94.3418 82.0541 95.6452 82.9488 96.3899 84.0237C97.1428 85.1103 97.4398 86.5437 97.4275 88.5476L97.3822 95.9154Z" fill="#B94987" stroke="#68254A" stroke-width="2"/>
<path d="M66.066 18.4C65.766 18.3 65.466 18.2 65.166 18.1C65.066 18.1 64.966 18.1 64.866 18.1C64.766 18 64.466 18 64.266 18C64.166 18 64.066 18 63.966 18C63.766 18 63.566 18 63.366 18C63.266 18 63.166 18 63.066 18.1C62.866 18.1 62.666 18.2 62.466 18.3C62.366 18.3 62.266 18.3 62.266 18.4C61.366 18.7 60.666 19.3 60.166 20.1C56.966 26.7 55.266 33.9 51.566 40.4C51.366 40.4 51.366 40.5 51.366 40.6C47.066 39 42.366 41 39.966 45.1L38.566 47.1L37.366 48.8L36.266 50.3C36.166 50.4 36.066 50.6 35.966 50.7C35.966 50.8 35.866 50.8 35.866 50.9C33.666 53.5 25.766 59.6 25.766 59.6H25.866C25.566 59.8 25.466 59.9 25.366 60C24.066 62.2 28.566 67.2 35.266 71.3C42.066 75.3 48.566 76.8 49.866 74.6C49.966 74.5 49.966 74.4 50.066 74.2H50.166C50.166 74.2 51.666 64.7 52.866 61.3C52.966 61.1 52.966 61 53.066 60.9V60.8C53.166 60.7 53.166 60.6 53.166 60.5L53.466 59.8L55.866 54.7C58.266 50.6 57.766 45.6 54.466 42.6L54.366 42.5C54.366 42.5 54.366 42.5 54.366 42.4C54.366 42.3 54.466 42.3 54.466 42.2C58.366 35.8 63.766 30.9 68.066 24.9C68.166 24.7 68.366 24.5 68.366 24.2C69.266 22.1 68.066 19.4 66.066 18.4Z" fill="black"/>
<path d="M66.2174 22.8442C61.9683 28.8909 56.4981 33.8158 52.6318 40.1801C52.0684 41.1603 50.8438 41.3957 49.9362 40.7426C49.1441 40.1713 48.9526 39.1277 49.4557 38.2977C53.1668 31.8405 54.8472 24.6706 58.0959 18.03C59.1799 15.9995 62.1544 15.5113 64.0919 16.4261C66.0815 17.3649 67.2982 20.0784 66.5566 22.1734C66.4734 22.4075 66.349 22.6453 66.2174 22.8442Z" fill="#884F13"/>
<path d="M66.5551 22.1731C67.2964 20.0796 66.0801 17.3646 64.0904 16.4258C62.9318 15.8799 61.4024 15.8346 60.1289 16.3201C60.7337 16.3623 61.3196 16.5059 61.8332 16.7476C63.8229 17.6864 65.0395 20.3999 64.2979 22.4949C64.2147 22.729 64.0903 22.9669 63.9588 23.1657C59.7081 29.2122 54.2394 34.1374 50.3731 40.5017C50.297 40.6336 50.2089 40.7511 50.1113 40.8561C50.9957 41.3633 52.1036 41.0968 52.6303 40.1799C56.4966 33.8156 61.9656 28.889 66.216 22.8439C66.3461 22.6448 66.4719 22.4072 66.5551 22.1731Z" fill="#60350F"/>
<path d="M61.8459 20.9627C61.3542 22.2863 58.5813 25.2413 57.5676 24.7501C56.5528 24.2572 57.5452 20.144 58.6394 18.8442C60.067 17.1474 62.842 18.282 61.8473 20.9629L61.8459 20.9627Z" fill="#A8662A"/>
<path d="M51.1946 58.4561L53.9494 52.622C56.7373 47.9032 55.6949 42.1226 50.9879 39.3321C46.2791 36.5428 40.7173 38.4101 37.9283 43.1271L34.1459 48.3531C32.9151 50.4351 23.5762 57.6436 23.5762 57.6436L35.8614 64.9238L48.1467 72.204C48.1467 72.204 49.9641 60.5367 51.1932 58.4558L51.1946 58.4561Z" fill="#F9BE62"/>
<path d="M51.1947 58.4563L53.9495 52.6222C56.7374 47.9034 55.695 42.1227 50.988 39.3323C50.7147 39.1706 50.4381 39.0247 50.1602 38.8936C54.1932 41.8366 54.9655 47.2233 52.3396 51.6667L49.5848 57.5009C48.354 59.5829 46.5383 71.249 46.5383 71.249L48.1499 72.2033C48.1499 72.2033 49.9673 60.536 51.1965 58.4552L51.1947 58.4563Z" fill="#D88A0E"/>
<path d="M47.9415 72.5543C49.2385 70.3595 44.7892 65.3211 38.0036 61.3007C31.2181 57.2803 24.666 55.8003 23.369 57.995C22.0719 60.1898 26.5212 65.2282 33.3068 69.2486C40.0923 73.2691 46.6444 74.7491 47.9415 72.5543Z" fill="#D88A0E"/>
<path d="M25.343 57.0113C26.4158 59.538 30.1606 63.078 35.192 66.06C40.2222 69.0402 45.1243 70.6245 47.8517 70.3509C46.7788 67.8242 43.0341 64.2842 38.0027 61.3022C32.9725 58.322 28.0704 56.7376 25.343 57.0113Z" fill="#BC740D"/>
<path d="M50.8078 59.3577C50.942 58.9746 51.0717 58.6657 51.1949 58.4562L52.9011 54.8414C48.3279 50.2181 42.7379 46.9057 36.4885 45.116L34.1462 48.3531C34.0215 48.5624 33.814 48.8255 33.5433 49.127C40.2855 50.6886 46.1956 54.1917 50.8078 59.3577Z" fill="#D88A0E"/>
<path d="M51.4824 53.4798L49.5835 57.5004C49.5239 57.6026 49.4611 57.7281 49.3989 57.8733C49.8798 58.3518 50.35 58.8462 50.8063 59.3573C50.8695 59.1778 50.9306 59.0158 50.9911 58.8718C50.9966 58.8594 51.0021 58.8469 51.0059 58.8357C51.0166 58.8123 51.0256 58.7901 51.0363 58.7667C51.0447 58.7474 51.0548 58.7269 51.0629 58.709C51.071 58.6911 51.0791 58.6732 51.0887 58.6556C51.0994 58.6322 51.1113 58.6105 51.1217 58.5886C51.1286 58.5765 51.1344 58.5626 51.1414 58.5505C51.1587 58.5164 51.1769 58.4856 51.1934 58.4558L52.8996 54.8411C52.4374 54.3739 51.9637 53.9194 51.481 53.4795L51.4824 53.4798Z" fill="#BC740D"/>
<path d="M41.0723 41.246C38.8534 43.5285 37 48.3199 33.9825 51.2167C32.8018 52.3504 28.8328 54.9608 28.597 55.729C28.3612 56.4972 29.5506 56.8752 31.0242 56.2227C32.4978 55.5702 36.2495 51.7983 38.0517 49.4859C39.8535 47.1749 41.5744 43.3978 42.9724 42.2644C44.3705 41.131 46.2538 40.9381 46.9401 39.6012C47.3278 38.8455 43.291 38.9649 41.072 41.2474L41.0723 41.246Z" fill="#FFD9A6"/>
<path d="M38.0659 45.6053C37.253 46.9528 36.3933 48.3615 35.4116 49.6164C36.0885 49.8144 36.7552 50.0329 37.4122 50.2704C37.6445 49.9957 37.8594 49.7326 38.0516 49.4859C38.7553 48.5836 39.4455 47.4578 40.1104 46.3538C39.4385 46.0862 38.7571 45.8362 38.0659 45.6053Z" fill="#E5AE6C"/>
<path d="M31.8271 58.2983L30.2089 60.107C29.7268 60.6468 29.1122 61.0623 28.4161 61.257C28.0887 61.3488 27.7848 61.5399 27.551 61.8293C27.0133 62.4962 27.0611 63.4793 27.6608 64.0899C28.3552 64.7962 29.4886 64.7602 30.1392 64.032C30.3562 63.7888 30.4905 63.5019 30.5461 63.2036C30.6768 62.4878 30.999 61.8196 31.4846 61.2775L33.5268 58.9939C32.9484 58.7391 32.3788 58.5072 31.8253 58.2995L31.8271 58.2983Z" fill="#F9BE62"/>
<path d="M32.9197 58.7333L31.3192 60.5215C30.8335 61.0636 30.5114 61.7319 30.3807 62.4476C30.3265 62.7462 30.1922 63.0331 29.9752 63.2763C29.3249 64.0031 28.1915 64.0391 27.4968 63.3342C27.3636 63.1992 27.2598 63.0446 27.1805 62.8799C27.176 63.3191 27.3375 63.7603 27.6624 64.0902C28.3568 64.7965 29.4902 64.7605 30.1408 64.0323C30.3578 63.7891 30.4921 63.5022 30.5477 63.2039C30.6784 62.4881 31.0005 61.8199 31.4862 61.2778L33.5284 58.9942C33.323 58.9047 33.1213 58.819 32.9194 58.7348L32.9197 58.7333Z" fill="#A5630C"/>
<path d="M29.1241 61.9707C29.2916 62.3155 29.0654 62.5598 28.7194 62.729C28.3734 62.8981 28.0424 62.926 27.8749 62.5813C27.7075 62.2366 27.8501 61.8191 28.1958 61.6514C28.54 61.4835 28.9567 61.626 29.1238 61.9722L29.1241 61.9707Z" fill="#FFD9A6"/>
<path d="M31.0769 99.5586V89.0195C31.0769 88.6602 31.0587 88.3008 31.0222 87.9414C30.9858 87.582 30.9363 87.2409 30.8738 86.918C30.8113 86.5898 30.741 86.2982 30.6628 86.043C30.642 85.9805 30.6238 85.9206 30.6082 85.8633C30.5925 85.806 30.5743 85.7487 30.5535 85.6914H32.3972C32.4181 85.7487 32.4415 85.8164 32.4675 85.8945C32.4936 85.9727 32.5196 86.0612 32.5457 86.1602C32.5873 86.2956 32.6368 86.5221 32.6941 86.8398C32.7514 87.1576 32.8009 87.5117 32.8425 87.9023C32.8894 88.293 32.9128 88.6654 32.9128 89.0195V99.5586H31.0769ZM35.53 95.7852V85.6914H37.366V95.7852H35.53ZM39.4753 95.7852L40.1394 88.6133C40.155 88.4831 40.1654 88.3685 40.1707 88.2695C40.1759 88.1706 40.1785 88.0716 40.1785 87.9727C40.1785 87.7956 40.1681 87.6263 40.1472 87.4648C40.1316 87.3034 40.1029 87.1315 40.0613 86.9492C40.0457 86.8763 40.0196 86.7799 39.9832 86.6602C39.9467 86.5404 39.9102 86.4232 39.8738 86.3086C39.8425 86.1888 39.8165 86.1003 39.7957 86.043C39.7748 85.9753 39.7514 85.9128 39.7253 85.8555C39.7045 85.793 39.6837 85.7279 39.6628 85.6602H41.3582C41.4467 85.8529 41.5222 86.0378 41.5847 86.2148C41.6472 86.3919 41.6941 86.5638 41.7253 86.7305H41.8269C41.8998 86.6263 42.0378 86.4961 42.241 86.3398C42.4493 86.1836 42.6524 86.0534 42.8503 85.9492C43.0587 85.8451 43.3269 85.7513 43.655 85.668C43.9832 85.5794 44.3373 85.5352 44.7175 85.5352C45.1082 85.5352 45.4597 85.5898 45.7722 85.6992C46.0899 85.8034 46.366 85.9492 46.6003 86.1367C46.7514 86.2617 46.8842 86.3997 46.9988 86.5508C47.1186 86.6966 47.2227 86.8555 47.3113 87.0273C47.4623 87.3398 47.5743 87.6966 47.6472 88.0977C47.7253 88.4987 47.7644 88.944 47.7644 89.4336V95.7852H43.8816V94.3242H45.9128V89.4336C45.9128 89.0742 45.879 88.7565 45.8113 88.4805C45.7436 88.2044 45.6446 87.9753 45.5144 87.793C45.4311 87.6471 45.3295 87.5169 45.2097 87.4023C45.0899 87.2826 44.9441 87.1914 44.7722 87.1289C44.6003 87.0612 44.3946 87.0273 44.155 87.0273C43.8582 87.0273 43.5821 87.0716 43.3269 87.1602C43.0717 87.2487 42.8608 87.3555 42.6941 87.4805C42.5378 87.6003 42.3972 87.7331 42.2722 87.8789C42.1472 88.0195 42.0457 88.1654 41.9675 88.3164L41.2878 95.7852H39.4753ZM49.6785 96.2461V94.7539L51.6472 94.4648C51.7878 94.4388 51.9285 94.4128 52.0691 94.3867C52.2149 94.3555 52.3608 94.3216 52.5066 94.2852L50.2097 85.6914H52.0378L53.241 90.168L54.0457 93.707C54.4259 93.4935 54.7618 93.2148 55.0535 92.8711C55.3503 92.5273 55.5925 92.1263 55.78 91.668C55.9675 91.2044 56.0899 90.6966 56.1472 90.1445L56.5613 85.6914H58.3503L57.9363 90.0742C57.8998 90.4701 57.8347 90.8477 57.741 91.207C57.6524 91.5612 57.5352 91.8971 57.3894 92.2148C57.2436 92.5326 57.0717 92.8294 56.8738 93.1055C56.4623 93.8294 55.8868 94.4232 55.1472 94.8867C54.4128 95.3451 53.5248 95.6549 52.4832 95.8164C51.9779 95.8945 51.491 95.9674 51.0222 96.0352C50.5587 96.1081 50.1108 96.1784 49.6785 96.2461ZM63.7097 95.9414C63.3712 95.9414 63.0352 95.9336 62.7019 95.918C62.3738 95.9076 62.0691 95.8893 61.7878 95.8633C61.5118 95.8424 61.28 95.819 61.0925 95.793L60.7488 95.7539V94.3086C61.254 94.3607 61.7566 94.4023 62.2566 94.4336C62.7618 94.4596 63.2644 94.4727 63.7644 94.4727C64.0873 94.4727 64.3712 94.4206 64.616 94.3164C64.866 94.207 65.0717 94.0612 65.2332 93.8789C65.4259 93.6758 65.5743 93.4128 65.6785 93.0898C65.7878 92.7669 65.8608 92.4388 65.8972 92.1055C65.9233 91.8503 65.9415 91.6211 65.9519 91.418C65.9623 91.2148 65.9675 90.9857 65.9675 90.7305C65.9675 90.3346 65.9519 89.9857 65.9207 89.6836C65.8894 89.3815 65.8321 89.0742 65.7488 88.7617C65.6654 88.4388 65.5483 88.1497 65.3972 87.8945C65.2462 87.6393 65.0457 87.4388 64.7957 87.293C64.6498 87.2096 64.4936 87.1471 64.3269 87.1055C64.1654 87.0586 63.991 87.0352 63.8035 87.0352C63.4389 87.0352 63.1186 87.0846 62.8425 87.1836C62.5717 87.2773 62.3582 87.3971 62.2019 87.543C61.9988 87.7253 61.8373 87.9544 61.7175 88.2305C61.5977 88.5065 61.5378 88.793 61.5378 89.0898C61.5378 89.4128 61.5899 89.707 61.6941 89.9727C61.8035 90.2383 61.9493 90.4544 62.1316 90.6211C62.2774 90.7461 62.4363 90.8477 62.6082 90.9258C62.7852 90.9987 62.9727 91.0404 63.1707 91.0508L63.53 91.1133L63.241 92.457L62.866 92.4336C62.5691 92.4232 62.2904 92.3867 62.03 92.3242C61.7748 92.2617 61.5352 92.1732 61.3113 92.0586C61.0977 91.944 60.9024 91.8086 60.7253 91.6523C60.5483 91.4909 60.3972 91.3112 60.2722 91.1133C60.1003 90.8529 59.9675 90.5534 59.8738 90.2148C59.7852 89.8763 59.741 89.5091 59.741 89.1133C59.741 88.556 59.8399 88.056 60.0378 87.6133C60.241 87.1654 60.504 86.8034 60.8269 86.5273C61.2175 86.1888 61.6681 85.9388 62.1785 85.7773C62.6889 85.6159 63.2175 85.5352 63.7644 85.5352C64.2227 85.5352 64.6446 85.5872 65.03 85.6914C65.4154 85.7904 65.7618 85.9414 66.0691 86.1445C66.3087 86.306 66.53 86.5065 66.7332 86.7461C66.9415 86.9857 67.1186 87.2617 67.2644 87.5742C67.4571 87.9805 67.6029 88.4466 67.7019 88.9727C67.8009 89.4935 67.8503 90.0794 67.8503 90.7305C67.8503 91.4961 67.7852 92.1706 67.655 92.7539C67.5248 93.3372 67.3451 93.8268 67.116 94.2227C66.9181 94.5508 66.6759 94.8294 66.3894 95.0586C66.1082 95.2826 65.8113 95.4544 65.4988 95.5742C65.254 95.694 64.9806 95.7852 64.6785 95.8477C64.3816 95.9102 64.0587 95.9414 63.7097 95.9414Z" fill="white"/>
<defs>
<linearGradient id="paint0_linear_2375_14463" x1="49.2571" y1="13.2632" x2="49.2571" y2="73.2632" gradientUnits="userSpaceOnUse">
<stop stop-color="#E93C83"/>
<stop offset="1" stop-color="#892E60"/>
</linearGradient>
</defs>
</svg>
