<svg width="100" height="105" viewBox="0 0 100 105" fill="none" xmlns="http://www.w3.org/2000/svg">
<path d="M49.35 97.4821C28.8033 97.4821 10.3678 84.4285 3.49911 65.0118C1.62583 59.719 0.674316 54.2775 0.674316 48.8064C0.674316 43.3352 1.56636 38.2208 3.3207 33.0767L3.46938 32.6604C10.3381 13.2734 28.7736 0.1604 49.35 0.1604C54.7023 0.1604 60.0248 1.08218 65.1986 2.86626C68.8857 4.14485 72.4836 5.8992 75.8436 8.06983C89.7297 17.1092 97.996 32.3333 97.996 48.8064C97.996 50.3228 97.9068 51.8988 97.7581 53.5639C95.3198 78.6005 74.5056 97.4821 49.3203 97.4821H49.35Z" fill="#68254A"/>
<path d="M49.3499 94.9545C29.8737 94.9545 12.3897 82.5849 5.87778 64.1791C4.0937 59.1539 3.20166 53.9801 3.20166 48.8063C3.20166 43.6324 4.03423 38.7857 5.69937 33.9092L5.81831 33.5821C12.3599 15.0871 29.8439 2.68774 49.3499 2.68774C54.4345 2.68774 59.4894 3.55005 64.3957 5.24493C67.9044 6.46405 71.2941 8.12919 74.4757 10.1809C87.6185 18.7445 95.4981 33.1658 95.4981 48.8063C95.4981 50.2633 95.4089 51.75 95.2603 53.2962C92.9707 77.0245 73.2269 94.9248 49.3499 94.9248V94.9545Z" fill="#B94987"/>
<path d="M73.1073 12.322C70.1636 10.3893 66.9523 8.81333 63.5922 7.65368C59.132 6.10748 54.3745 5.24517 49.3791 5.24517C30.3488 5.21544 14.2326 17.4067 8.25596 34.3852C8.22623 34.5041 8.16676 34.6231 8.10729 34.742C6.59082 39.1725 5.72852 43.9003 5.72852 48.8362C5.72852 53.7722 6.65029 58.7974 8.25596 63.3468C14.2326 80.2658 30.3488 92.4273 49.3196 92.4273C71.9774 92.4273 90.5616 75.1514 92.7025 53.0883C92.8512 51.6908 92.9106 50.2635 92.9106 48.8362C92.9106 33.5229 85.0012 20.0828 73.0479 12.322H73.1073Z" fill="url(#paint0_linear_737_11037)"/>
<path d="M49.4977 95.3191C73.5225 95.3191 93.2279 77.001 95.498 53.6067C59.7129 97.936 23.455 78.7666 5.95654 64.4841C12.2938 82.4239 29.3824 95.3191 49.4977 95.3191Z" fill="#70264F" fill-opacity="0.6"/>
<path opacity="0.7" d="M74.2673 10.2547C71.155 8.21125 67.7597 6.54504 64.2073 5.31897C59.4916 3.68421 54.4616 2.77252 49.18 2.77252C29.0599 2.74108 12.0206 15.6305 5.70166 33.5815C17.7109 21.195 40.346 5.19322 74.2359 10.2547H74.2673Z" fill="#CD76A6" fill-opacity="0.5"/>
<path d="M33.0227 13.0091C31.2462 12.3486 27.6022 14.1706 27.3517 15.446C27.0328 17.1086 29.3559 17.0858 31.975 16.0837C34.0475 15.2866 34.1842 13.4418 33.0227 13.0091Z" fill="#E7F5F9"/>
<path d="M23.8212 17.3138C22.5002 17.2682 21.407 18.1792 21.5209 19.0675C21.6803 20.2518 22.9329 20.2062 23.9806 19.3863C25.2104 18.4298 24.6866 17.3366 23.8212 17.291V17.3138Z" fill="#E7F5F9"/>
<path d="M98.2889 95.9154C98.2635 100.063 94.9437 103.409 90.8476 103.479L90.6957 103.473L86.3368 103.298C86.3366 103.298 86.3365 103.298 86.3363 103.298C60.7459 102.256 35.1188 102.154 9.51736 102.974C5.34833 102.939 1.98402 99.5176 2.00983 95.3163L2.05508 87.9484C2.06717 85.9794 2.43461 84.566 3.24128 83.4929C4.04897 82.4185 5.40547 81.5416 7.69669 80.8778C8.84102 80.5487 10.0274 80.3619 11.2518 80.2561C12.2259 80.1777 13.6348 80.0625 15.3452 79.9226C17.1239 79.7771 19.2287 79.605 21.5098 79.4198L21.5101 79.4198C40.6478 77.8607 59.8839 77.9789 79.001 79.7729L89.3278 80.7436L89.3293 80.7438C90.5543 80.857 91.7495 81.0515 92.8935 81.3812L92.8956 81.3818C95.2486 82.0541 96.5519 82.9488 97.2967 84.0237C98.0495 85.1103 98.3465 86.5437 98.3342 88.5476L98.2889 95.9154Z" fill="#B94987" stroke="#68254A" stroke-width="2"/>
<g clip-path="url(#clip0_737_11037)">
<path d="M77.4268 31.7632C77.2268 31.0632 76.6268 30.6632 75.7268 30.5632C75.4268 30.5632 75.1268 30.5632 74.8268 30.6632L67.1268 32.4632C65.2268 31.8632 63.1268 31.3632 60.7268 30.9632L69.4268 28.3632C69.5268 28.3632 69.7268 28.2632 69.8268 28.1632C70.0268 28.1632 70.2268 28.0632 70.3268 28.0632C70.3268 28.0632 70.3268 28.0632 70.4268 28.0632C70.5268 27.9632 70.6268 27.9632 70.7268 27.8632C70.7268 27.8632 70.8268 27.8632 70.8268 27.7632C70.9268 27.6632 70.9268 27.6632 71.0268 27.5632C71.0268 27.5632 71.0268 27.4632 71.1268 27.4632C71.1268 27.3632 71.2268 27.3632 71.2268 27.2632C71.2268 27.2632 71.2268 27.1632 71.3268 27.1632C71.3268 27.0632 71.4268 27.0632 71.4268 26.9632V26.8632C71.4268 26.7632 71.4268 26.7632 71.4268 26.6632V26.5632C71.4268 26.4632 71.4268 26.3632 71.4268 26.2632C71.1268 25.4632 70.0268 25.1632 68.8268 25.4632L54.0268 30.3632C53.0268 30.3632 52.1268 30.2632 51.1268 30.2632C50.7268 30.2632 50.3268 30.2632 49.9268 30.2632C49.4268 30.2632 48.9268 30.2632 48.3268 30.2632C48.2268 30.2632 48.1268 30.2632 48.0268 30.2632C38.3268 30.7632 31.3268 33.0632 28.1268 35.8632C27.8268 36.0632 27.6268 36.3632 27.3268 36.6632C27.2268 36.7632 27.1268 36.8632 27.1268 36.9632C27.0268 37.0632 26.9268 37.2632 26.8268 37.3632C26.7268 37.5632 26.6268 37.6632 26.6268 37.8632C26.6268 37.9632 26.5268 38.0632 26.5268 38.1632C26.4268 38.3632 26.4268 38.5632 26.4268 38.7632C26.4268 38.8632 26.4268 38.8632 26.4268 38.9632C26.4268 38.9632 26.4268 39.1632 26.4268 39.5632L19.7268 41.7632C19.3268 41.8632 19.0268 42.1632 18.9268 42.4632C18.9268 42.5632 18.9268 42.6632 18.9268 42.7632C19.0268 43.0632 19.5268 43.2632 20.0268 43.0632L26.3268 41.1632C26.3268 41.3632 26.3268 41.6632 26.3268 41.8632L24.5268 42.2632C24.0268 42.3632 23.6268 42.7632 23.7268 43.1632C23.8268 43.4632 24.3268 43.6632 24.8268 43.5632L26.3268 43.2632V43.3632C26.3268 43.3632 26.3268 43.4632 26.4268 43.4632C26.4268 43.5632 26.5268 43.6632 26.6268 43.7632C26.6268 43.7632 26.6268 43.7632 26.6268 43.8632C26.6268 43.9632 26.7268 43.9632 26.7268 43.9632C26.8268 44.0632 26.9268 44.1632 27.0268 44.2632C27.1268 44.2632 27.1268 44.3632 27.2268 44.3632V59.4632C26.7268 59.3632 26.2268 59.7632 26.2268 60.2632V63.2632C26.2268 63.2632 26.2268 63.2632 26.2268 63.3632C26.2268 63.4632 26.2268 63.4632 26.3268 63.5632V63.6632C26.4268 63.7632 26.4268 63.8632 26.5268 63.9632C26.5268 63.9632 26.5268 63.9632 26.6268 63.9632C31.0268 67.0632 40.3268 69.2632 51.0268 69.2632C61.8268 69.2632 71.1268 67.0632 75.5268 63.9632C75.7268 63.7632 75.8268 63.5632 75.8268 63.2632V60.2632C75.8268 60.1632 75.8268 59.9632 75.7268 59.8632C75.6268 59.7632 75.6268 59.6632 75.5268 59.5632C75.4268 59.4632 75.3268 59.4632 75.2268 59.4632C75.2268 59.4632 75.2268 59.4632 75.1268 59.4632C75.0268 59.4632 74.9268 59.4632 74.8268 59.4632V44.6632C74.9268 44.5632 75.0268 44.5632 75.0268 44.5632C75.5268 44.2632 75.8268 43.6632 75.8268 43.0632C75.8268 41.6632 75.8268 39.0632 75.8268 39.0632C75.8268 37.5632 74.3268 35.8632 71.7268 34.4632L75.4268 33.7632C75.6268 33.7632 75.8268 33.6632 75.9268 33.5632C76.0268 33.5632 76.1268 33.4632 76.2268 33.4632L76.3268 33.3632C76.4268 33.3632 76.4268 33.2632 76.5268 33.2632C76.7268 33.0632 76.7268 33.0632 76.7268 33.0632C76.8268 33.0632 76.8268 32.9632 76.9268 32.9632L77.0268 32.8632L77.1268 32.7632L77.2268 32.6632C77.2268 32.5632 77.3268 32.5632 77.3268 32.4632C77.3268 32.4632 77.3268 32.3632 77.4268 32.3632C77.4268 32.2632 77.4268 32.2632 77.4268 32.1632V32.0632C77.4268 31.8632 77.4268 31.7632 77.4268 31.7632Z" fill="black"/>
</g>
<path d="M73.1653 60.2476V38.657H25.5649V60.2476C25.5649 64.1366 36.2207 67.2903 49.3644 67.2903C62.508 67.2903 73.1638 64.1366 73.1638 60.2476H73.1653Z" fill="#3D317F"/>
<path d="M65.4337 38.657C65.4337 38.657 68.0911 62.9481 41.6343 62.3362C35.4502 62.1928 29.8148 61.6379 25.582 60.4926C26.0198 64.2691 36.4999 67.2903 49.366 67.2903C62.2322 67.2903 73.1655 64.1366 73.1655 60.2476V38.657H65.4337Z" fill="#292058"/>
<path d="M74.2228 37.92C74.2228 43.1408 64.3778 48.1087 49.3659 48.1087C34.3541 48.1087 24.3411 43.1346 24.5723 37.92C24.7603 33.7027 34.3526 29.2048 49.3644 29.2048C64.3762 29.2048 74.2212 33.9246 74.2212 37.92H74.2228Z" fill="#281F1F"/>
<path d="M27.9817 51.1008C27.9817 55.3381 27.7675 59.13 27.2002 59.13C26.633 59.13 26.5312 55.3366 26.5312 51.1008C26.5312 46.865 26.633 43.7883 27.2002 43.7883C27.7675 43.7883 27.9817 46.865 27.9817 51.1008Z" fill="#231B4D"/>
<path d="M49.3644 46.9328C62.5084 46.9328 73.1638 43.2276 73.1638 38.657C73.1638 34.0863 62.5084 30.3811 49.3644 30.3811C36.2203 30.3811 25.5649 34.0863 25.5649 38.657C25.5649 43.2276 36.2203 46.9328 49.3644 46.9328Z" fill="#E8DCBA"/>
<path d="M26.1244 40.4449L58.0763 30.9529C55.8921 30.6538 53.5492 30.4642 51.1045 30.4026L25.5771 38.905C25.6218 39.4322 25.8084 39.947 26.1244 40.4449Z" fill="#BFAF88"/>
<path d="M64.609 32.3018L26.6655 41.151C27.054 41.5795 27.5411 41.9926 28.116 42.3872L69.3781 34.1761C68.0679 33.4701 66.4571 32.8382 64.609 32.3018Z" fill="#BFAF88"/>
<path d="M68.4311 33.7027C67.9116 38.1127 57.4655 41.6333 44.6532 41.6333C36.8521 41.6333 29.9281 40.3277 25.5875 38.3115C25.5736 38.4256 25.5659 38.5397 25.5659 38.6553C25.5659 43.2256 36.2217 46.9311 49.3653 46.9311C62.509 46.9311 73.1648 43.2256 73.1648 38.6553C73.1648 36.7979 71.4045 35.0823 68.4311 33.7012V33.7027Z" fill="#BFAF88"/>
<path d="M49.3949 43.5201C38.3276 43.5201 28.8094 41.2203 24.5674 37.9202C24.5674 37.9202 24.5674 40.5267 24.5674 41.9602C24.5674 42.5629 24.8726 43.124 25.3782 43.4538C29.9454 46.4411 38.9858 48.4758 49.3949 48.4758C59.8041 48.4758 68.8445 46.4411 73.4117 43.4538C73.9157 43.124 74.2225 42.5644 74.2225 41.9602C74.2225 40.5282 74.2225 37.9202 74.2225 37.9202C69.9821 41.2203 60.4623 43.5201 49.3949 43.5201Z" fill="#281F1F"/>
<path d="M73.6586 38.3317C73.6586 39.2211 73.6586 40.5252 73.6586 41.3961C73.6586 41.9987 73.3534 42.5598 72.8478 42.8897C68.2806 45.8769 59.2402 47.9116 48.8311 47.9116C38.4219 47.9116 29.4247 45.8862 24.8467 42.9113C24.9823 43.124 25.1596 43.312 25.3785 43.4538C29.9457 46.4411 38.9861 48.4758 49.3952 48.4758C59.8044 48.4758 68.8448 46.4411 73.412 43.4538C73.9161 43.124 74.2228 42.5644 74.2228 41.9602C74.2228 40.5282 74.2228 37.9202 74.2228 37.9202C74.044 38.0589 73.8559 38.1961 73.6586 38.3317Z" fill="#110D0D"/>
<path d="M24.8479 42.5506C24.8479 41.5517 24.8479 39.9841 24.8479 39.124C24.8479 38.8743 25.1285 38.7248 25.3335 38.8681C29.7866 41.9756 39.012 44.1105 49.6755 44.1105C60.339 44.1105 69.8541 41.9078 74.2225 38.7202C74.2225 38.2423 74.2225 37.9202 74.2225 37.9202C69.9821 41.2203 60.4623 43.5201 49.3949 43.5201C38.3276 43.5201 28.8094 41.2203 24.5674 37.9202C24.5674 37.9202 24.5674 40.5267 24.5674 41.9602C24.5674 42.3409 24.6892 42.7032 24.9065 43.0022C24.868 42.8558 24.8479 42.7047 24.8479 42.5506Z" fill="#5B4C4C"/>
<path d="M49.3949 63.4953C39.3156 63.4953 30.5202 61.5871 25.8282 58.7539C25.2748 58.4195 24.5688 58.8094 24.5688 59.4553V62.4348C24.5688 62.7015 24.6968 62.9512 24.9126 63.1069C29.3102 66.2683 38.6204 68.4479 49.3964 68.4479C60.1724 68.4479 69.4826 66.2668 73.8802 63.1069C74.096 62.9512 74.224 62.7015 74.224 62.4348V59.4553C74.224 58.8094 73.518 58.4195 72.9646 58.7539C68.271 61.5871 59.4757 63.4953 49.3979 63.4953H49.3949Z" fill="#281F1F"/>
<path d="M49.3949 63.4953C39.3156 63.4953 30.5202 61.5871 25.8282 58.7539C25.2748 58.4195 24.5688 58.8094 24.5688 59.4553V62.4348C24.5688 62.7015 24.6968 62.9512 24.9126 63.1069C29.3102 66.2683 38.6204 68.4479 49.3964 68.4479C60.1724 68.4479 69.4826 66.2668 73.8802 63.1069C74.096 62.9512 74.224 62.7015 74.224 62.4348V59.4553C74.224 58.8094 73.518 58.4195 72.9646 58.7539C68.271 61.5871 59.4757 63.4953 49.3979 63.4953H49.3949Z" fill="#281F1F"/>
<path d="M73.0898 58.6923V61.3034C73.0898 61.5701 72.9619 61.8198 72.7461 61.9755C68.3484 65.1369 59.0383 67.3165 48.2623 67.3165C38.0951 67.3165 29.2335 65.3743 24.5723 62.4996C24.5908 62.7416 24.7125 62.9651 24.9114 63.1069C29.309 66.2683 38.6192 68.4479 49.3952 68.4479C60.1712 68.4479 69.4814 66.2668 73.879 63.1069C74.0948 62.9512 74.2227 62.7015 74.2227 62.4348V59.4553C74.2227 58.8572 73.6185 58.4795 73.0898 58.6907V58.6923Z" fill="#110D0D"/>
<path d="M24.9712 60.2616C24.9712 59.6158 25.6771 59.2258 26.2305 59.5603C30.9241 62.3934 39.7194 64.3017 49.7972 64.3017C59.8749 64.3017 68.6718 62.3934 73.3638 59.5603C73.6475 59.3892 73.9727 59.4092 74.2209 59.5556V59.457C74.2209 58.8111 73.5149 58.4212 72.9615 58.7557C68.2679 61.5888 59.4726 63.497 49.3949 63.497C39.3171 63.497 30.5202 61.5888 25.8282 58.7557C25.2748 58.4212 24.5688 58.8111 24.5688 59.457V62.4366C24.5688 62.7032 24.6968 62.9529 24.9126 63.1086C24.9311 63.1225 24.9527 63.1364 24.9712 63.1487V60.2616Z" fill="#5B4C4C"/>
<path d="M74.2225 37.92C74.2225 33.9246 64.3775 29.2048 49.3657 29.2048C34.3539 29.2048 24.7801 33.6934 24.5736 37.9077L24.569 37.92C24.569 37.92 24.5705 37.9215 24.5721 37.9231C24.5659 38.0664 24.569 38.2113 24.5782 38.3547C24.5875 38.2298 24.6044 38.105 24.6291 37.9786C24.7724 38.1157 25.1393 38.4502 25.3304 38.4641C25.3304 38.4641 24.7185 36.824 26.5281 35.2549C30.0256 32.2214 38.1427 29.7104 49.3657 29.7104C60.5887 29.7104 68.974 32.4279 72.4175 35.4583C73.0033 35.9747 73.4811 36.6406 73.5705 37.4159C73.6106 37.7628 73.6383 38.2129 73.3763 38.5658C73.3763 38.5658 74.204 38.1219 74.2117 38.2051C74.2179 38.1096 74.2225 38.014 74.2225 37.9184V37.92Z" fill="#5B4C4C"/>
<path d="M28.7659 35.4247C28.4561 34.7002 36.1693 31.0717 41.33 31.7068C43.1673 31.9334 39.2244 32.6409 35.2691 33.8864C32.1955 34.8544 29.1189 36.254 28.7659 35.4247Z" fill="#F9EED4"/>
<path d="M17.0717 41.7074C17.1827 42.0604 17.696 42.2176 18.2278 42.0588L67.7811 27.3383C68.985 26.9591 69.7557 25.9988 69.5029 25.1942C69.2501 24.3896 68.0678 24.0443 66.8624 24.4235L17.8177 40.7563C17.2921 40.9321 16.9607 41.3529 17.0717 41.7074Z" fill="#F9BE69"/>
<path d="M17.8177 40.7565C17.2921 40.9322 16.9607 41.353 17.0717 41.7076C17.0748 41.7183 17.0794 41.7291 17.084 41.7384L65.637 25.5705C66.8409 25.1913 68.0231 25.5366 68.2775 26.3412C68.3622 26.6109 68.3299 26.8961 68.2081 27.1736C69.1607 26.725 69.7248 25.9004 69.5029 25.1959C69.2501 24.3913 68.0678 24.046 66.8624 24.4252L17.8177 40.7565Z" fill="#D69A4C"/>
<path d="M42.4585 33.6334C55.6962 29.4639 66.2241 25.4408 66.7219 27.0239C66.9824 27.8501 55.986 30.3857 42.7483 34.5552C38.642 35.8484 34.7253 36.9012 31.3342 37.9294C23.7966 40.2153 18.6822 41.7983 18.5959 41.5239C18.542 41.3513 29.2193 37.8045 42.457 33.635L42.4585 33.6334Z" fill="#FFDCAE"/>
<path d="M21.9501 42.2038C22.0287 42.5661 22.5251 42.7695 23.0692 42.6601L73.7694 32.5715C75.0041 32.3049 75.8595 31.4201 75.6823 30.5954C75.5035 29.7708 74.3597 29.3176 73.1251 29.5843L22.7809 41.3252C22.2415 41.4516 21.8731 41.8401 21.9501 42.2038Z" fill="#F9BE69"/>
<path d="M22.7809 41.3252C22.2415 41.4516 21.8731 41.8401 21.9501 42.2038C21.9532 42.2146 21.9563 42.2254 21.9594 42.2362L71.7979 30.6124C73.0326 30.3457 74.1779 30.7989 74.3551 31.6236C74.4152 31.8995 74.3551 32.1816 74.2087 32.4451C75.1998 32.086 75.8364 31.3184 75.6807 30.5954C75.5019 29.7708 74.3582 29.3176 73.1235 29.5843L22.7809 41.3252Z" fill="#D69A4C"/>
<path d="M47.9737 36.5036C61.5397 33.5733 72.3928 30.5383 72.7443 32.1583C72.9277 33.0046 61.7432 34.5151 48.1787 37.4469C43.9707 38.3563 39.9738 39.0438 36.5025 39.7544C28.7862 41.3359 23.5485 42.4396 23.4884 42.159C23.4498 41.9818 34.4093 39.4353 47.9753 36.5036H47.9737Z" fill="#FFDCAE"/>
<path d="M44.4758 99.6289V90.7305C44.4758 90.0273 44.4264 89.4336 44.3274 88.9492C44.2284 88.4648 44.0826 88.0872 43.8899 87.8164C43.6972 87.5195 43.4602 87.3164 43.179 87.207C42.8977 87.0924 42.5878 87.0352 42.2493 87.0352C41.9055 87.0352 41.58 87.0898 41.2727 87.1992C40.9706 87.3086 40.731 87.4674 40.554 87.6758C40.3925 87.8581 40.2623 88.0716 40.1633 88.3164C40.0696 88.556 40.0227 88.8138 40.0227 89.0898C40.0227 89.4388 40.0774 89.7461 40.1868 90.0117C40.2961 90.2721 40.4524 90.4805 40.6555 90.6367C40.7909 90.7357 40.942 90.819 41.1086 90.8867C41.2753 90.9544 41.4602 91.0065 41.6633 91.043L42.0149 91.1133L41.7258 92.4492L41.3508 92.4336C40.8665 92.4284 40.4237 92.3424 40.0227 92.1758C39.6217 92.0039 39.2805 91.7591 38.9993 91.4414C38.7545 91.1602 38.5644 90.8216 38.429 90.4258C38.2935 90.0247 38.2258 89.569 38.2258 89.0586C38.2258 88.5794 38.3092 88.1315 38.4758 87.7148C38.6477 87.293 38.8743 86.944 39.1555 86.668C39.2961 86.5273 39.4602 86.3945 39.6477 86.2695C39.8404 86.1393 40.0279 86.0326 40.2102 85.9492C40.5227 85.8086 40.8456 85.7044 41.179 85.6367C41.5175 85.569 41.8743 85.5352 42.2493 85.5352C42.692 85.5352 43.0982 85.582 43.468 85.6758C43.843 85.7695 44.1816 85.9128 44.4836 86.1055C44.7389 86.2669 44.9758 86.4727 45.1946 86.7227C45.4133 86.9727 45.6008 87.2617 45.7571 87.5898C45.9498 87.9909 46.093 88.4544 46.1868 88.9805C46.2857 89.5065 46.3352 90.0898 46.3352 90.7305V99.6289H44.4758ZM48.9133 95.7852V85.6914H50.7493V95.7852H48.9133ZM53.4524 95.8477C53.3014 95.8477 53.1477 95.832 52.9915 95.8008C52.8404 95.7695 52.679 95.7227 52.5071 95.6602V94.293C52.7519 94.3346 52.9967 94.3555 53.2415 94.3555C53.5852 94.3555 53.8378 94.2513 53.9993 94.043C54.1659 93.8346 54.2493 93.5065 54.2493 93.0586V87.1445C54.0618 87.1549 53.8743 87.168 53.6868 87.1836C53.5045 87.1992 53.3196 87.2122 53.1321 87.2227V85.7539C53.679 85.7018 54.192 85.6602 54.6711 85.6289C55.1555 85.5977 55.6086 85.5742 56.0305 85.5586C56.4576 85.543 56.8534 85.5352 57.218 85.5352C57.7076 85.5352 58.1269 85.5534 58.4758 85.5898C58.83 85.6211 59.1373 85.6758 59.3977 85.7539C59.6581 85.8268 59.8951 85.9232 60.1086 86.043C60.3847 86.194 60.6086 86.3711 60.7805 86.5742C60.9576 86.7721 61.1008 87.0247 61.2102 87.332C61.2779 87.5247 61.3274 87.7435 61.3586 87.9883C61.3899 88.2279 61.4055 88.4935 61.4055 88.7852V95.7852H59.5696V88.8477C59.5696 88.306 59.4498 87.8971 59.2102 87.6211C58.9706 87.3451 58.6165 87.1654 58.1477 87.082C57.9185 87.0299 57.6165 87.0039 57.2415 87.0039C57.0696 87.0039 56.8873 87.0065 56.6946 87.0117C56.5019 87.0169 56.2987 87.0247 56.0852 87.0352V93.0586C56.0852 93.3763 56.0618 93.6654 56.0149 93.9258C55.9732 94.1862 55.8977 94.4284 55.7883 94.6523C55.6529 94.944 55.468 95.181 55.2336 95.3633C55.0201 95.5247 54.7649 95.6471 54.468 95.7305C54.1764 95.8086 53.8378 95.8477 53.4524 95.8477Z" fill="white"/>
<defs>
<linearGradient id="paint0_linear_737_11037" x1="49.3196" y1="13.2632" x2="49.3196" y2="73.2632" gradientUnits="userSpaceOnUse">
<stop stop-color="#E93C83"/>
<stop offset="1" stop-color="#892E60"/>
</linearGradient>
<clipPath id="clip0_737_11037">
<rect width="59" height="45" fill="white" transform="translate(18.7266 25.0632)"/>
</clipPath>
</defs>
</svg>
