<svg width="100" height="105" viewBox="0 0 100 105" fill="none" xmlns="http://www.w3.org/2000/svg">
<path d="M49.0771 97.4821C28.5304 97.4821 10.0949 84.4285 3.22616 65.0118C1.35288 59.719 0.401367 54.2775 0.401367 48.8064C0.401367 43.3352 1.29341 38.2208 3.04776 33.0767L3.19643 32.6604C10.0651 13.2734 28.5007 0.1604 49.0771 0.1604C54.4293 0.1604 59.7518 1.08218 64.9257 2.86626C68.6128 4.14485 72.2107 5.8992 75.5707 8.06983C89.4568 17.1092 97.723 32.3333 97.723 48.8064C97.723 50.3228 97.6338 51.8988 97.4851 53.5639C95.0469 78.6005 74.2326 97.4821 49.0473 97.4821H49.0771Z" fill="#68254A"/>
<path d="M49.077 94.9545C29.6007 94.9545 12.1167 82.5849 5.60483 64.1791C3.82075 59.1539 2.92871 53.9801 2.92871 48.8063C2.92871 43.6324 3.76128 38.7857 5.42642 33.9092L5.54536 33.5821C12.087 15.0871 29.571 2.68774 49.077 2.68774C54.1616 2.68774 59.2165 3.55005 64.1227 5.24493C67.6314 6.46405 71.0212 8.12919 74.2028 10.1809C87.3455 18.7445 95.2252 33.1658 95.2252 48.8063C95.2252 50.2633 95.136 51.75 94.9873 53.2962C92.6977 77.0245 72.9539 94.9248 49.077 94.9248V94.9545Z" fill="#B94987"/>
<path d="M72.8344 12.322C69.8907 10.3893 66.6793 8.81333 63.3193 7.65368C58.8591 6.10748 54.1015 5.24517 49.1061 5.24517C30.0759 5.21544 13.9597 17.4067 7.98302 34.3852C7.95328 34.5041 7.89381 34.6231 7.83434 34.742C6.31787 39.1725 5.45557 43.9003 5.45557 48.8362C5.45557 53.7722 6.37734 58.7974 7.98302 63.3468C13.9597 80.2658 30.0759 92.4273 49.0466 92.4273C71.7045 92.4273 90.2887 75.1514 92.4296 53.0883C92.5782 51.6908 92.6377 50.2635 92.6377 48.8362C92.6377 33.5229 84.7283 20.0828 72.7749 12.322H72.8344Z" fill="url(#paint0_linear_737_10486)"/>
<path d="M49.2247 95.3191C73.2496 95.3191 92.955 77.001 95.2251 53.6067C59.44 97.936 23.182 78.7666 5.68359 64.4841C12.0209 82.4239 29.1094 95.3191 49.2247 95.3191Z" fill="#70264F" fill-opacity="0.6"/>
<path opacity="0.7" d="M73.9944 10.2547C70.8821 8.21125 67.4868 6.54504 63.9343 5.31897C59.2187 3.68421 54.1886 2.77252 48.9071 2.77252C28.7869 2.74108 11.7477 15.6305 5.42871 33.5815C17.4379 21.195 40.0731 5.19322 73.9629 10.2547H73.9944Z" fill="#CD76A6" fill-opacity="0.5"/>
<path d="M32.7497 13.0091C30.9733 12.3486 27.3292 14.1706 27.0787 15.446C26.7599 17.1086 29.0829 17.0858 31.7021 16.0837C33.7746 15.2866 33.9112 13.4418 32.7497 13.0091Z" fill="#E7F5F9"/>
<path d="M23.5482 17.3138C22.2273 17.2682 21.134 18.1792 21.2479 19.0675C21.4073 20.2518 22.66 20.2062 23.7076 19.3863C24.9375 18.4298 24.4137 17.3366 23.5482 17.291V17.3138Z" fill="#E7F5F9"/>
<path d="M98.016 95.9154C97.9905 100.063 94.6707 103.409 90.5746 103.479L90.4228 103.473L86.0638 103.298C86.0637 103.298 86.0635 103.298 86.0634 103.298C60.473 102.256 34.8458 102.154 9.24441 102.974C5.07538 102.939 1.71107 99.5176 1.73688 95.3163L1.78213 87.9484C1.79422 85.9794 2.16166 84.566 2.96833 83.4929C3.77602 82.4185 5.13252 81.5416 7.42374 80.8778C8.56807 80.5487 9.75447 80.3619 10.9789 80.2561C11.953 80.1777 13.3618 80.0625 15.0723 79.9226C16.851 79.7771 18.9558 79.605 21.2368 79.4198L21.2371 79.4198C40.3748 77.8607 59.611 77.9789 78.7281 79.7729L89.0548 80.7436L89.0563 80.7438C90.2813 80.857 91.4766 81.0515 92.6206 81.3812L92.6227 81.3818C94.9756 82.0541 96.279 82.9488 97.0237 84.0237C97.7766 85.1103 98.0735 86.5437 98.0612 88.5476L98.016 95.9154Z" fill="#B94987" stroke="#68254A" stroke-width="2"/>
<path d="M37.1252 95.7852V88.8477C37.1252 88.3268 37.0159 87.9336 36.7971 87.668C36.5784 87.3971 36.2502 87.2174 35.8127 87.1289C35.6877 87.0872 35.5315 87.056 35.344 87.0352C35.1617 87.0091 34.9534 86.9961 34.719 86.9961C34.3388 86.9961 33.8726 87.0143 33.3206 87.0508C32.7685 87.0872 32.081 87.1445 31.2581 87.2227V85.7539C31.5185 85.7174 31.7763 85.6888 32.0315 85.668C32.2867 85.6471 32.5393 85.6289 32.7893 85.6133C33.1903 85.5872 33.5653 85.569 33.9143 85.5586C34.2685 85.543 34.594 85.5352 34.8909 85.5352C35.4898 85.5352 35.9872 85.5664 36.3831 85.6289C36.7789 85.6862 37.1357 85.7852 37.4534 85.9258C37.7711 86.0716 38.0341 86.2487 38.2424 86.457C38.456 86.6654 38.6226 86.931 38.7424 87.2539C38.8258 87.4935 38.8857 87.7383 38.9221 87.9883C38.9586 88.2383 38.9768 88.5247 38.9768 88.8477V95.7852H37.1252ZM31.2581 95.7852V89.6445H33.094V95.7852H31.2581ZM45.4221 95.7852V88.8477C45.4221 88.3164 45.3049 87.9154 45.0706 87.6445C44.8414 87.3685 44.4976 87.1862 44.0393 87.0977C43.9195 87.0612 43.7867 87.0352 43.6409 87.0195C43.495 87.0039 43.3388 86.9961 43.1721 86.9961C42.9534 86.9961 42.693 87.0013 42.3909 87.0117C42.0888 87.0221 41.7789 87.0378 41.4612 87.0586C41.1435 87.0794 40.8466 87.1003 40.5706 87.1211V85.6445C41.0549 85.6081 41.5028 85.582 41.9143 85.5664C42.3258 85.5456 42.7034 85.5352 43.0471 85.5352C43.7294 85.5352 44.2685 85.5638 44.6643 85.6211C45.0601 85.6784 45.4169 85.7799 45.7346 85.9258C46.0575 86.0716 46.3232 86.2487 46.5315 86.457C46.7398 86.6602 46.9065 86.9258 47.0315 87.2539C47.1148 87.4935 47.1721 87.7383 47.2034 87.9883C47.2398 88.2383 47.2581 88.5247 47.2581 88.8477V95.7852H45.4221ZM53.7502 95.9336C53.3909 95.9336 53.0341 95.8997 52.6799 95.832C52.331 95.7643 52.0185 95.6497 51.7424 95.4883C51.482 95.3424 51.2346 95.1549 51.0002 94.9258C50.7659 94.6966 50.5601 94.4128 50.3831 94.0742C50.1487 93.6367 49.9768 93.1419 49.8674 92.5898C49.7633 92.0326 49.7112 91.3919 49.7112 90.668V85.6914H51.5549V90.668C51.5549 91.3867 51.6122 92.0013 51.7268 92.5117C51.8466 93.0221 52.0237 93.4284 52.2581 93.7305C52.4299 93.9544 52.6435 94.1263 52.8987 94.2461C53.1539 94.3659 53.4482 94.4258 53.7815 94.4258C54.1357 94.4258 54.4456 94.3607 54.7112 94.2305C54.982 94.0951 55.2008 93.9049 55.3674 93.6602C55.6174 93.3216 55.7867 92.8919 55.8752 92.3711C55.969 91.8451 56.0159 91.2799 56.0159 90.6758C56.0159 90.0872 55.9716 89.543 55.8831 89.043C55.7997 88.5378 55.6487 88.1211 55.4299 87.793C55.2476 87.5273 55.0159 87.332 54.7346 87.207C54.4534 87.082 54.1461 87.0195 53.8127 87.0195C53.719 87.0195 53.6252 87.0273 53.5315 87.043C53.4377 87.0534 53.344 87.0664 53.2502 87.082V85.6133C53.4169 85.582 53.581 85.5612 53.7424 85.5508C53.9091 85.5404 54.0706 85.5352 54.2268 85.5352C54.6018 85.5352 54.9586 85.5768 55.2971 85.6602C55.6357 85.7383 55.9456 85.8711 56.2268 86.0586C56.4716 86.2044 56.6877 86.3919 56.8752 86.6211C57.0627 86.8451 57.2216 87.1133 57.3518 87.4258C57.5289 87.8216 57.6617 88.2904 57.7502 88.832C57.8388 89.3685 57.8831 89.9805 57.8831 90.668C57.8831 91.1888 57.8492 91.6732 57.7815 92.1211C57.719 92.5638 57.6226 92.9701 57.4924 93.3398C57.3206 93.819 57.0992 94.2331 56.8284 94.582C56.5575 94.9258 56.2346 95.207 55.8596 95.4258C55.568 95.5924 55.245 95.7174 54.8909 95.8008C54.5367 95.8893 54.1565 95.9336 53.7502 95.9336ZM59.8752 92.2461V85.6914H61.7112V90.7852L60.5471 92.2461H59.8752ZM64.3752 95.8711C64.2346 95.8711 64.0784 95.8607 63.9065 95.8398C63.7398 95.819 63.5601 95.7904 63.3674 95.7539L63.5627 94.1133C63.719 94.1497 63.8778 94.1784 64.0393 94.1992C64.2008 94.2148 64.3648 94.2227 64.5315 94.2227C64.9117 94.2227 65.2555 94.1419 65.5627 93.9805C65.8752 93.819 66.1331 93.5872 66.3362 93.2852C66.4768 93.0716 66.5862 92.8294 66.6643 92.5586C66.7424 92.2878 66.7815 91.9857 66.7815 91.6523V88.332C66.7815 87.9258 66.7164 87.6055 66.5862 87.3711C66.4612 87.1367 66.2164 87.0195 65.8518 87.0195C65.6435 87.0195 65.4325 87.0352 65.219 87.0664C65.0055 87.0924 64.7685 87.1367 64.5081 87.1992V85.707C65.0341 85.5924 65.5445 85.5352 66.0393 85.5352C66.4716 85.5352 66.8388 85.582 67.1409 85.6758C67.443 85.7643 67.6877 85.8893 67.8752 86.0508C68.1565 86.2852 68.3492 86.5951 68.4534 86.9805C68.5627 87.3607 68.6174 87.7878 68.6174 88.2617V95.7852H67.1956L66.9377 94.2305H66.8362C66.7372 94.4076 66.6174 94.5872 66.4768 94.7695C66.3414 94.9466 66.2086 95.0924 66.0784 95.207C65.87 95.4102 65.6174 95.5716 65.3206 95.6914C65.0237 95.8112 64.7086 95.8711 64.3752 95.8711Z" fill="white"/>
<path d="M67.4999 17.7997C67.1999 17.6997 66.8999 17.7997 66.7999 17.9997L66.6999 18.1997L66.0999 17.9997L66.6999 16.9997L67.0999 14.9997L66.2999 14.5997L65.9999 16.7997L66.2999 14.6997L62.8999 12.8997L61.3999 14.1997L60.8999 15.3997L60.3999 14.9997L60.5999 14.5997C60.6999 14.2997 60.5999 13.9997 60.3999 13.8997C60.0999 13.7997 59.7999 13.8997 59.6999 14.0997L59.2999 14.8997C59.1999 15.1997 59.2999 15.4997 59.4999 15.5997C59.7999 15.6997 60.0999 15.5997 60.1999 15.3997L60.2999 15.2997L60.7999 15.5997L59.7999 17.6997L59.3999 17.4997L59.5999 17.1997C59.6999 16.8997 59.5999 16.5997 59.3999 16.4997C59.1999 16.3997 58.7999 16.4997 58.6999 16.6997L58.2999 17.4997C58.1999 17.7997 58.2999 18.0997 58.4999 18.1997C58.7999 18.2997 59.0999 18.1997 59.1999 17.9997L59.2999 17.7997L59.5999 17.9997L58.5999 20.0997L57.9999 19.7997L58.0999 19.5997C58.1999 19.2997 58.0999 18.9997 57.8999 18.8997C57.5999 18.7997 57.2999 18.8997 57.1999 19.0997L56.7999 19.8997C56.6999 20.1997 56.7999 20.4997 56.9999 20.5997C57.2999 20.6997 57.5999 20.5997 57.6999 20.3997L57.9999 20.0997L58.5999 20.3997L57.3999 23.0997L57.5999 23.1997L50.7999 34.6997C48.3999 34.2997 44.7999 34.1997 42.4999 36.3997C38.8999 39.6997 39.9999 42.8997 39.9999 44.5997C39.9999 46.1997 38.1999 48.8997 35.2999 49.4997C33.0999 49.8997 29.2999 49.4997 25.6999 57.4997C21.5999 66.4997 33.0999 72.2997 33.0999 72.2997C33.0999 72.2997 33.4999 72.4997 34.1999 72.8997C34.8999 73.2997 35.3999 73.5997 35.3999 73.5997C35.3999 73.5997 47.1999 80.4997 52.5999 72.2997C57.3999 64.9997 54.7999 61.8997 53.8999 59.7997C52.6999 56.9997 53.8999 53.9997 55.3999 53.1997C56.8999 52.3997 60.2999 51.5997 60.9999 46.7997C61.7999 41.5997 55.4999 36.7997 55.4999 36.7997L61.1999 25.4997L61.3999 25.5997L62.9999 23.0997L63.6999 23.4997L63.5999 23.6997C63.4999 23.9997 63.5999 24.2997 63.7999 24.3997C64.0999 24.4997 64.3999 24.3997 64.4999 24.1997L64.8999 23.3997C64.9999 23.0997 64.8999 22.7997 64.6999 22.6997C64.3999 22.5997 64.0999 22.6997 63.9999 22.8997L63.8999 23.0997L63.2999 22.7997L64.5999 20.7997L65.2999 21.1997L65.1999 21.3997C65.0999 21.6997 65.1999 21.9997 65.3999 22.0997C65.6999 22.1997 65.9999 22.0997 66.0999 21.8997L66.4999 21.0997C66.5999 20.7997 66.4999 20.4997 66.2999 20.3997C65.9999 20.2997 65.6999 20.3997 65.5999 20.5997L65.4999 20.7997L64.7999 20.3997L66.0999 18.3997L66.5999 18.6997L66.4999 18.8997C66.3999 19.1997 66.4999 19.4997 66.6999 19.5997C66.9999 19.6997 67.2999 19.5997 67.3999 19.3997L67.7999 18.5997C67.7999 18.2997 67.6999 17.8997 67.4999 17.7997Z" fill="black"/>
<path d="M55.6579 18.5428L55.5068 18.8196L56.6685 19.4538L56.8196 19.1771L55.6579 18.5428Z" fill="#635144"/>
<path d="M56.676 16.0892L56.5249 16.366L57.6866 17.0002L57.8377 16.7235L56.676 16.0892Z" fill="#635144"/>
<path d="M57.9392 13.7714L57.7881 14.0481L58.9498 14.6823L59.1009 14.4056L57.9392 13.7714Z" fill="#635144"/>
<path d="M51.839 58.5423C50.6056 55.7579 51.8843 52.7585 53.335 51.9339C54.7856 51.1093 58.2023 50.3479 58.9558 45.5064C59.7586 40.3488 53.4962 35.5557 53.4962 35.5557C53.4962 35.5557 46.0773 32.8802 42.173 36.3452C38.5078 39.5979 39.7153 42.8833 39.8059 44.549C39.8966 46.2147 38.0656 48.9127 35.0562 49.3811C32.7516 49.7402 28.8125 49.2366 25.2304 57.2003C21.1806 66.203 33.3993 72.3684 33.3993 72.3684C33.3993 72.3684 45.1933 79.3116 50.5752 71.0366C55.3362 63.7164 52.7828 60.6753 51.8384 58.5426L51.839 58.5423Z" fill="#AA6933"/>
<path d="M49.0944 57.044C47.9818 54.3255 49.2765 51.3345 50.6829 50.4861C52.0894 49.6378 55.3745 48.804 56.211 44.0075C57.1024 38.898 51.229 34.3177 51.229 34.3177C51.229 34.3177 44.1999 31.8546 40.3842 35.3678C36.802 38.6656 37.8775 41.8794 37.9246 43.5211C37.9718 45.1627 36.1561 47.8694 33.2674 48.4037C31.0551 48.8127 27.3013 48.4109 23.6853 56.3562C19.5977 65.338 31.1328 71.1301 31.1328 71.1301C31.1328 71.1301 42.2426 77.7002 47.5874 69.4042C52.3151 62.0653 49.9467 59.1253 49.0942 57.0434L49.0944 57.044Z" fill="#D38240"/>
<path d="M46.569 49.2767L41.8644 46.7082L57.4316 20.4533L60.3219 22.0311L46.569 49.2767Z" fill="#42362E"/>
<path d="M45.9269 48.9261L41.2223 46.3576L56.7895 20.1028L59.6798 21.6805L45.9269 48.9261Z" fill="#635144"/>
<path d="M45.0667 54.4467C43.858 56.6603 41.214 57.5464 39.1608 56.4252C37.1076 55.304 36.4224 52.6006 37.6305 50.3872C38.8392 48.1736 41.4832 47.2875 43.5364 48.4087C45.5896 49.5299 46.2748 52.2333 45.0667 54.4467Z" fill="#E8B128"/>
<path d="M44.2724 54.0186C43.2948 55.8093 41.1849 56.5423 39.5597 55.6557C37.935 54.7683 37.41 52.5978 38.3879 50.8062C39.3654 49.0156 41.4754 48.2826 43.1006 49.1691C44.7253 50.0566 45.2503 52.2271 44.2724 54.0186Z" fill="#42362E"/>
<path d="M40.3648 62.9362L34.0982 59.5154L33.9296 58.6821L40.215 61.2039L40.7506 61.9515L40.3648 62.9362Z" fill="#42362E"/>
<path d="M39.8681 61.8399L33.9297 58.682L34.3119 57.9817L40.2151 61.2038L39.8681 61.8399Z" fill="#635144"/>
<path d="M64.3379 13.6351L60.9189 11.8054L59.3796 13.098L55.2859 22.1228L58.8975 24.0947L64.0373 15.7524L64.3379 13.6351Z" fill="#D38240"/>
<path d="M65.0929 14.0463L64.3381 13.635L64.0375 15.7523L58.8977 24.0946L59.4413 24.3909L64.7272 16.0169L65.0929 14.0463Z" fill="#AA6933"/>
<path d="M61.0036 21.4606L60.8525 21.7373L62.0142 22.3715L62.1653 22.0948L61.0036 21.4606Z" fill="#635144"/>
<path d="M62.4558 19.1551L62.3047 19.4319L63.4664 20.0661L63.6175 19.7894L62.4558 19.1551Z" fill="#635144"/>
<path d="M63.7566 16.7672L63.6055 17.0439L64.7672 17.6782L64.9183 17.4014L63.7566 16.7672Z" fill="#635144"/>
<path d="M62.4818 22.9357C62.3452 23.1867 62.031 23.2786 61.7801 23.142C61.5292 23.0054 61.437 22.6905 61.5738 22.4403L61.9845 21.688C62.1211 21.4371 62.436 21.3449 62.6862 21.4817C62.9371 21.6183 63.0293 21.9332 62.8925 22.1834L62.4818 22.9357Z" fill="#42362E"/>
<path d="M63.9672 20.6479C63.8306 20.8988 63.5157 20.991 63.2654 20.8542C63.0145 20.7176 62.9224 20.4027 63.0592 20.1525L63.4699 19.4001C63.6065 19.1492 63.9213 19.057 64.1716 19.1939C64.4225 19.3305 64.5147 19.6453 64.3778 19.8956L63.9672 20.6479Z" fill="#42362E"/>
<path d="M65.2699 18.2614C65.1333 18.5123 64.8184 18.6045 64.5682 18.4677C64.3173 18.3311 64.2251 18.0162 64.3619 17.766L64.7726 17.0137C64.9092 16.7628 65.2241 16.6706 65.4743 16.8074C65.7252 16.944 65.8174 17.2589 65.6806 17.5091L65.2699 18.2614Z" fill="#42362E"/>
<path d="M55.8275 19.3024C55.6909 19.5534 55.3767 19.6453 55.1258 19.5087C54.8749 19.3721 54.7827 19.0572 54.9195 18.807L55.3302 18.0547C55.4668 17.8038 55.7817 17.7116 56.0319 17.8484C56.2828 17.985 56.375 18.2999 56.2382 18.5501L55.8275 19.3024Z" fill="#42362E"/>
<path d="M57.0956 16.8967C56.959 17.1476 56.6441 17.2398 56.3939 17.1029C56.143 16.9663 56.0508 16.6515 56.1876 16.4012L56.5983 15.6489C56.7349 15.398 57.0491 15.3061 57.3 15.4427C57.5509 15.5793 57.6431 15.8941 57.5063 16.1444L57.0956 16.8967Z" fill="#42362E"/>
<path d="M58.1844 14.3933C58.0478 14.6442 57.7336 14.7361 57.4827 14.5995C57.2318 14.4629 57.1396 14.1481 57.2765 13.8978L57.6872 13.1455C57.8238 12.8946 58.1386 12.8024 58.3889 12.9392C58.6398 13.0758 58.732 13.3907 58.5951 13.641L58.1844 14.3933Z" fill="#42362E"/>
<path d="M47.5674 45.6913C47.5149 45.7868 47.3952 45.8225 47.2997 45.77L43.3711 43.6254C43.2756 43.5729 43.2399 43.4531 43.2924 43.3576C43.3449 43.2621 43.4647 43.2265 43.5602 43.279L47.4888 45.4236C47.5843 45.476 47.6199 45.5958 47.5674 45.6913Z" fill="#897062"/>
<path d="M49.9326 41.0778C49.8801 41.1733 49.7678 41.213 49.6819 41.1661L46.146 39.2359C46.0601 39.1889 46.0326 39.0729 46.0844 38.9777C46.1369 38.8822 46.2492 38.8425 46.3351 38.8894L49.871 40.8196C49.9569 40.8666 49.9844 40.9826 49.9326 41.0778Z" fill="#897062"/>
<path d="M52.2017 36.4122C52.1492 36.5077 52.0415 36.5495 51.9601 36.5046L48.6213 34.6817C48.5402 34.6375 48.5166 34.5239 48.5691 34.4284C48.6216 34.3329 48.7293 34.2911 48.8107 34.3359L52.1495 36.1589C52.2306 36.203 52.2542 36.3167 52.2017 36.4122Z" fill="#897062"/>
<path d="M54.5582 31.7936C54.5057 31.8891 54.4001 31.9324 54.3217 31.8895L51.0998 30.13C51.0214 30.0871 50.9999 29.975 51.0524 29.8795C51.1049 29.784 51.2105 29.7407 51.2889 29.7836L54.5108 31.543C54.5892 31.586 54.6107 31.6981 54.5582 31.7936Z" fill="#897062"/>
<path d="M56.8546 27.1428C56.8021 27.2384 56.7019 27.2842 56.6303 27.2455L53.6872 25.6389C53.6154 25.5996 53.5996 25.4907 53.6521 25.3952C53.7046 25.2997 53.8047 25.2539 53.8763 25.2925L56.8194 26.8991C56.8912 26.9384 56.9071 27.0473 56.8546 27.1428Z" fill="#897062"/>
<path d="M34.5622 59.2234C34.5622 59.2234 34.5603 59.2226 34.5601 59.2219C34.5035 59.1891 34.4839 59.1171 34.5167 59.0605L57.1016 19.6642C57.1344 19.6076 57.2062 19.5873 57.2628 19.6201C57.3194 19.653 57.339 19.725 57.3062 19.7816L34.7215 59.1785C34.6894 59.2349 34.6187 59.254 34.5622 59.2234Z" fill="#EED2A0"/>
<path d="M35.7373 59.6633C35.7373 59.6633 35.7373 59.6633 35.7371 59.6626C35.6801 59.6307 35.6598 59.5589 35.6917 59.5019L58.6497 18.2659C58.6809 18.2092 58.7527 18.1888 58.8092 18.2194C58.8092 18.2194 58.8092 18.2194 58.8095 18.2201C58.8665 18.252 58.8868 18.3238 58.8549 18.3808L35.8969 59.6168C35.8656 59.6735 35.7938 59.6939 35.7373 59.6633Z" fill="#EED2A0"/>
<path d="M36.6203 60.1446C36.5633 60.1127 36.5423 60.0411 36.5742 59.9841L60.2633 17.0819C60.2946 17.0252 60.3661 17.0042 60.4235 17.0352C60.4805 17.0671 60.5015 17.1386 60.4696 17.1956L36.7796 60.0974C36.7484 60.1542 36.6768 60.1752 36.6194 60.1442L36.6203 60.1446Z" fill="#EED2A0"/>
<path d="M37.6859 60.6589C37.6285 60.6279 37.6075 60.5564 37.6385 60.499L61.6731 16.1015C61.7041 16.0441 61.7763 16.0229 61.8337 16.0539C61.8911 16.0849 61.9121 16.1564 61.8811 16.2138L37.8463 60.6106C37.8153 60.668 37.7431 60.6893 37.6856 60.6583L37.6859 60.6589Z" fill="#EED2A0"/>
<path d="M38.6713 61.197C38.6146 61.1657 38.5929 61.0944 38.6239 61.037L63.0183 15.4893C63.0493 15.4319 63.1206 15.4103 63.1787 15.441C63.1787 15.441 63.1787 15.441 63.1789 15.4417C63.2357 15.4729 63.2573 15.5442 63.2263 15.6016L38.8322 61.15C38.8012 61.2074 38.7299 61.2291 38.6718 61.1983C38.6718 61.1983 38.6718 61.1983 38.6716 61.1977L38.6713 61.197Z" fill="#EED2A0"/>
<path d="M57.5246 19.9974C57.4335 20.1645 57.2237 20.2264 57.0567 20.1352C56.8896 20.0441 56.8278 19.8343 56.9196 19.667C57.0107 19.5 57.2204 19.4381 57.3875 19.5292C57.5546 19.6204 57.6164 19.8301 57.5253 19.9972L57.5246 19.9974Z" fill="#7C4028"/>
<path d="M57.3543 19.8941C57.2993 19.9951 57.172 20.0328 57.0708 19.9771C56.9698 19.9221 56.9324 19.7954 56.9878 19.6936C57.0433 19.5917 57.1695 19.5552 57.2714 19.6106C57.3723 19.6656 57.41 19.7929 57.3543 19.8941Z" fill="#E8B128"/>
<path d="M59.1067 18.5267C59.0155 18.6938 58.8058 18.7557 58.6387 18.6645C58.4717 18.5734 58.4098 18.3636 58.5016 18.1963C58.5927 18.0293 58.8025 17.9674 58.9695 18.0585C59.1366 18.1497 59.1985 18.3594 59.1067 18.5267Z" fill="#7C4028"/>
<path d="M58.936 18.4237C58.881 18.5247 58.7537 18.5624 58.6527 18.5073C58.5518 18.4523 58.5141 18.325 58.5698 18.2238C58.6248 18.1228 58.7514 18.0854 58.8533 18.1409C58.9543 18.1959 58.992 18.3232 58.9363 18.4244L58.936 18.4237Z" fill="#E8B128"/>
<path d="M60.7161 17.2274C60.625 17.3944 60.4152 17.4563 60.2482 17.3652C60.0811 17.274 60.0192 17.0643 60.1104 16.8972C60.2015 16.7302 60.4113 16.6683 60.5783 16.7594C60.7454 16.8506 60.8073 17.0603 60.7155 17.2276L60.7161 17.2274Z" fill="#7C4028"/>
<path d="M60.5454 17.1242C60.4904 17.2251 60.3637 17.2626 60.2621 17.2078C60.1611 17.1528 60.1237 17.0261 60.1792 16.9242C60.2342 16.8233 60.3608 16.7859 60.4627 16.8413C60.5636 16.8963 60.6011 17.023 60.5456 17.1248L60.5454 17.1242Z" fill="#E8B128"/>
<path d="M62.1263 16.2469C62.0351 16.414 61.8254 16.4759 61.6583 16.3847C61.4913 16.2936 61.4294 16.0838 61.5205 15.9168C61.6117 15.7497 61.8214 15.6878 61.9885 15.779C62.1555 15.8701 62.2174 16.0798 62.1263 16.2469Z" fill="#7C4028"/>
<path d="M61.9556 16.1439C61.9005 16.2449 61.7732 16.2826 61.6723 16.2276C61.5713 16.1725 61.5336 16.0452 61.5893 15.944C61.6443 15.8431 61.771 15.8056 61.8728 15.8611C61.9738 15.9161 62.0112 16.0427 61.9558 16.1446L61.9556 16.1439Z" fill="#E8B128"/>
<path d="M63.4417 15.7298C63.3506 15.8969 63.1408 15.9588 62.9738 15.8676C62.8067 15.7765 62.7448 15.5667 62.8359 15.3997C62.9271 15.2326 63.1368 15.1707 63.3039 15.2619C63.4709 15.353 63.5328 15.5628 63.4417 15.7298Z" fill="#7C4028"/>
<path d="M63.2702 15.6258C63.2152 15.7268 63.0886 15.7642 62.9867 15.7088C62.8858 15.6537 62.8481 15.5264 62.9038 15.4252C62.9588 15.3243 63.0854 15.2868 63.1873 15.3423C63.2883 15.3973 63.3259 15.5246 63.2702 15.6258Z" fill="#E8B128"/>
<path opacity="0.3" d="M35.7635 67.0179C36.1978 64.9338 32.397 62.8412 31.1704 61.6135C29.3485 59.7901 29.3794 58.0647 29.8744 55.7205C30.1293 54.5129 31.4844 53.9234 32.3149 53.3483C33.0199 52.8593 34.5482 52.9844 34.7964 52.0094C34.9237 51.5091 34.761 51.0473 34.6272 50.839C33.5003 49.0789 29.9141 50.2195 28.3617 51.4596C26.7713 52.7302 24.711 55.704 24.2723 57.7165C23.4063 61.6883 26.6618 66.1896 29.6815 68.4119C32.5163 70.4983 35.2152 69.6488 35.7635 67.0179Z" fill="#E8B128"/>
<defs>
<linearGradient id="paint0_linear_737_10486" x1="49.0466" y1="13.2632" x2="49.0466" y2="73.2632" gradientUnits="userSpaceOnUse">
<stop stop-color="#E93C83"/>
<stop offset="1" stop-color="#892E60"/>
</linearGradient>
</defs>
</svg>
