<svg width="100" height="105" viewBox="0 0 100 105" fill="none" xmlns="http://www.w3.org/2000/svg">
<path d="M49.35 97.4821C28.8033 97.4821 10.3678 84.4285 3.49911 65.0118C1.62583 59.719 0.674316 54.2775 0.674316 48.8064C0.674316 43.3352 1.56636 38.2208 3.3207 33.0767L3.46938 32.6604C10.3381 13.2734 28.7736 0.1604 49.35 0.1604C54.7023 0.1604 60.0248 1.08218 65.1986 2.86626C68.8857 4.14485 72.4836 5.8992 75.8436 8.06983C89.7297 17.1092 97.996 32.3333 97.996 48.8064C97.996 50.3228 97.9068 51.8988 97.7581 53.5639C95.3198 78.6005 74.5056 97.4821 49.3203 97.4821H49.35Z" fill="#68254A"/>
<path d="M49.3499 94.9545C29.8737 94.9545 12.3897 82.5849 5.87778 64.1791C4.0937 59.1539 3.20166 53.9801 3.20166 48.8063C3.20166 43.6324 4.03423 38.7857 5.69937 33.9092L5.81831 33.5821C12.3599 15.0871 29.8439 2.68774 49.3499 2.68774C54.4345 2.68774 59.4894 3.55005 64.3957 5.24493C67.9044 6.46405 71.2941 8.12919 74.4757 10.1809C87.6185 18.7445 95.4981 33.1658 95.4981 48.8063C95.4981 50.2633 95.4089 51.75 95.2603 53.2962C92.9707 77.0245 73.2269 94.9248 49.3499 94.9248V94.9545Z" fill="#B94987"/>
<path d="M73.1073 12.322C70.1636 10.3893 66.9523 8.81333 63.5922 7.65368C59.132 6.10748 54.3745 5.24517 49.3791 5.24517C30.3488 5.21544 14.2326 17.4067 8.25596 34.3852C8.22623 34.5041 8.16676 34.6231 8.10729 34.742C6.59082 39.1725 5.72852 43.9003 5.72852 48.8362C5.72852 53.7722 6.65029 58.7974 8.25596 63.3468C14.2326 80.2658 30.3488 92.4273 49.3196 92.4273C71.9774 92.4273 90.5616 75.1514 92.7025 53.0883C92.8512 51.6908 92.9106 50.2635 92.9106 48.8362C92.9106 33.5229 85.0012 20.0828 73.0479 12.322H73.1073Z" fill="url(#paint0_linear_730_10534)"/>
<path d="M49.4977 95.3191C73.5225 95.3191 93.2279 77.001 95.498 53.6067C59.7129 97.936 23.455 78.7666 5.95654 64.4841C12.2938 82.4239 29.3824 95.3191 49.4977 95.3191Z" fill="#70264F" fill-opacity="0.6"/>
<path opacity="0.7" d="M74.2673 10.2547C71.155 8.21125 67.7597 6.54504 64.2073 5.31897C59.4916 3.68421 54.4616 2.77252 49.18 2.77252C29.0599 2.74108 12.0206 15.6305 5.70166 33.5815C17.7109 21.195 40.346 5.19322 74.2359 10.2547H74.2673Z" fill="#CD76A6" fill-opacity="0.5"/>
<path d="M33.0227 13.0091C31.2462 12.3486 27.6022 14.1706 27.3517 15.446C27.0328 17.1086 29.3559 17.0858 31.975 16.0837C34.0475 15.2866 34.1842 13.4418 33.0227 13.0091Z" fill="#E7F5F9"/>
<path d="M23.8212 17.3138C22.5002 17.2682 21.407 18.1792 21.5209 19.0675C21.6803 20.2518 22.9329 20.2062 23.9806 19.3863C25.2104 18.4298 24.6866 17.3366 23.8212 17.291V17.3138Z" fill="#E7F5F9"/>
<g clip-path="url(#clip0_730_10534)">
<path d="M86.7961 36.9536C86.6961 36.8536 86.6961 36.7536 86.5961 36.7536L86.4961 36.6536C86.3961 36.5536 86.3961 36.5536 86.2961 36.4536L86.1961 36.3536C85.9961 36.2536 85.6961 36.1536 85.3961 36.1536H85.1961H81.8961H59.9961H14.7961H14.5961C13.6961 36.1536 12.9961 36.8536 12.9961 37.7536V37.9536V56.8536V57.0536C12.9961 57.2536 13.0961 57.5536 13.1961 57.7536C13.1961 57.7536 13.1961 57.7536 13.1961 57.8536C13.1961 57.9536 13.2961 58.0536 13.2961 58.0536L13.3961 58.1536C13.4961 58.2536 13.4961 58.2536 13.5961 58.3536L13.6961 58.4536C13.8961 58.6536 14.1961 58.6536 14.5961 58.6536H85.2961C86.1961 58.6536 86.8961 57.9536 86.8961 57.0536V37.7536C86.9961 37.4536 86.8961 37.2536 86.7961 36.9536Z" fill="black"/>
</g>
<path d="M83.9321 34.4368H13.6414C12.6127 34.4368 11.7788 35.2707 11.7788 36.2994V55.1989C11.7788 56.2276 12.6127 57.0615 13.6414 57.0615H83.9321C84.9608 57.0615 85.7947 56.2276 85.7947 55.1989V36.2994C85.7947 35.2707 84.9608 34.4368 83.9321 34.4368Z" fill="#232323"/>
<path d="M58.8197 34.4368L33.7378 57.0615H59.1691L80.6164 34.4368H58.8197Z" fill="#2D2D2D"/>
<path d="M84.9662 34.6543C85.0592 34.8602 85.1121 35.0883 85.1121 35.3287V54.6684C85.1121 55.5755 84.3771 56.3105 83.47 56.3105H12.7392C12.4427 56.3105 12.1654 56.2306 11.9258 56.0939C12.1831 56.6639 12.7553 57.0617 13.422 57.0617H84.1536C85.0607 57.0617 85.7957 56.3267 85.7957 55.4196V36.0791C85.7957 35.4685 85.4616 34.937 84.967 34.6536L84.9662 34.6543Z" fill="black"/>
<path d="M12.3902 56.0753V36.7357C12.3902 35.8285 13.1253 35.0935 14.0324 35.0935H84.7639C85.0758 35.0935 85.3661 35.1818 85.6142 35.3324C85.3415 34.8008 84.79 34.4368 84.1525 34.4368H13.421C12.5139 34.4368 11.7788 35.1718 11.7788 36.0789V55.4186C11.7788 56.0139 12.0968 56.5338 12.5707 56.8219C12.4563 56.5976 12.3902 56.3441 12.3902 56.0753Z" fill="#727272"/>
<path d="M82.741 41.8418H14.8329C14.1924 41.8418 13.6724 42.361 13.6724 43.0024H83.9008C83.9008 42.3618 83.3816 41.8418 82.7402 41.8418H82.741Z" fill="black"/>
<path d="M80.5566 43.002H83.9009V54.1584C83.9009 54.6592 83.4946 55.0655 82.9938 55.0655H81.463C80.9622 55.0655 80.5566 54.6592 80.5566 54.1592V43.002Z" fill="white"/>
<path d="M80.5566 43.002H83.9009V54.1584C83.9009 54.6592 83.4946 55.0655 82.9938 55.0655H81.463C80.9622 55.0655 80.5566 54.6592 80.5566 54.1592V43.002Z" fill="#EDEDED"/>
<path d="M83.9009 43.002H80.5566V47.9292H83.9009V43.002Z" fill="#D1D1D1"/>
<path d="M83.69 43.002V53.9917C83.69 54.4841 83.369 54.8835 82.9734 54.8835H81.1269C81.0209 54.8835 80.9188 54.8566 80.8281 54.8051C80.9579 54.9664 81.1392 55.064 81.3374 55.064H83.1838C83.5794 55.064 83.9005 54.6646 83.9005 54.1722V43.002H83.69Z" fill="#9B9B9B"/>
<path d="M80.6678 43.6846C80.6648 45.0871 80.6678 52.5467 80.6686 53.9462C80.6686 54.0722 80.7439 54.1728 80.8368 54.1728C80.9298 54.1728 81.005 54.0706 81.005 53.9454V43.6861C81.005 43.5601 80.9298 43.4587 80.8368 43.4587H80.8361C80.7431 43.4587 80.6678 43.5594 80.6678 43.6846Z" fill="white"/>
<path d="M77.2124 43.002H80.5566V54.1584C80.5566 54.6592 80.1503 55.0655 79.6495 55.0655H78.1187C77.618 55.0655 77.2124 54.6592 77.2124 54.1592V43.002Z" fill="white"/>
<path d="M77.2124 43.002H80.5566V54.1584C80.5566 54.6592 80.1503 55.0655 79.6495 55.0655H78.1187C77.618 55.0655 77.2124 54.6592 77.2124 54.1592V43.002Z" fill="#EDEDED"/>
<path d="M80.5566 43.002H77.2124V47.9292H80.5566V43.002Z" fill="#D1D1D1"/>
<path d="M80.3458 43.002V53.9917C80.3458 54.4841 80.0247 54.8835 79.6292 54.8835H77.7827C77.6767 54.8835 77.5745 54.8566 77.4839 54.8051C77.6137 54.9664 77.795 55.064 77.9931 55.064H79.8396C80.2352 55.064 80.5562 54.6646 80.5562 54.1722V43.002H80.3458Z" fill="#9B9B9B"/>
<path d="M77.3231 43.6846C77.32 45.0871 77.3231 52.5467 77.3239 53.9462C77.3239 54.0722 77.3992 54.1728 77.4921 54.1728C77.585 54.1728 77.6603 54.0706 77.6603 53.9454V43.6861C77.6603 43.5601 77.585 43.4587 77.4921 43.4587H77.4913C77.3984 43.4587 77.3231 43.5594 77.3231 43.6846Z" fill="white"/>
<path d="M73.8682 43.002H77.2124V54.1584C77.2124 54.6592 76.8061 55.0655 76.3053 55.0655H74.7745C74.2737 55.0655 73.8682 54.6592 73.8682 54.1592V43.002Z" fill="white"/>
<path d="M73.8682 43.002H77.2124V54.1584C77.2124 54.6592 76.8061 55.0655 76.3053 55.0655H74.7745C74.2737 55.0655 73.8682 54.6592 73.8682 54.1592V43.002Z" fill="#EDEDED"/>
<path d="M77.2124 43.002H73.8682V47.9292H77.2124V43.002Z" fill="#D1D1D1"/>
<path d="M77.001 43.002V53.9917C77.001 54.4841 76.68 54.8835 76.2844 54.8835H74.4379C74.3319 54.8835 74.2298 54.8566 74.1392 54.8051C74.269 54.9664 74.4502 55.064 74.6484 55.064H76.4949C76.8904 55.064 77.2115 54.6646 77.2115 54.1722V43.002H77.001Z" fill="#9B9B9B"/>
<path d="M73.9789 43.6846C73.9758 45.0871 73.9789 52.5467 73.9796 53.9462C73.9796 54.0722 74.0549 54.1728 74.1479 54.1728C74.2408 54.1728 74.3161 54.0706 74.3161 53.9454V43.6861C74.3161 43.5601 74.2408 43.4587 74.1479 43.4587H74.1471C74.0542 43.4587 73.9789 43.5594 73.9789 43.6846Z" fill="white"/>
<path d="M70.5239 43.002H73.8682V54.1584C73.8682 54.6592 73.4619 55.0655 72.9611 55.0655H71.4303C70.9295 55.0655 70.5239 54.6592 70.5239 54.1592V43.002Z" fill="white"/>
<path d="M70.5239 43.002H73.8682V54.1584C73.8682 54.6592 73.4619 55.0655 72.9611 55.0655H71.4303C70.9295 55.0655 70.5239 54.6592 70.5239 54.1592V43.002Z" fill="#EDEDED"/>
<path d="M73.8682 43.002H70.5239V47.9292H73.8682V43.002Z" fill="#D1D1D1"/>
<path d="M73.6573 43.002V53.9917C73.6573 54.4841 73.3362 54.8835 72.9407 54.8835H71.0942C70.9882 54.8835 70.886 54.8566 70.7954 54.8051C70.9252 54.9664 71.1065 55.064 71.3047 55.064H73.1511C73.5467 55.064 73.8678 54.6646 73.8678 54.1722V43.002H73.6573Z" fill="#9B9B9B"/>
<path d="M70.6351 43.6846C70.6321 45.0871 70.6351 52.5467 70.6359 53.9462C70.6359 54.0722 70.7112 54.1728 70.8041 54.1728C70.897 54.1728 70.9723 54.0706 70.9723 53.9454V43.6861C70.9723 43.5601 70.897 43.4587 70.8041 43.4587H70.8033C70.7104 43.4587 70.6351 43.5594 70.6351 43.6846Z" fill="white"/>
<path d="M67.1797 43.002H70.5239V54.1584C70.5239 54.6592 70.1176 55.0655 69.6168 55.0655H68.086C67.5852 55.0655 67.1797 54.6592 67.1797 54.1592V43.002Z" fill="white"/>
<path d="M67.1797 43.002H70.5239V54.1584C70.5239 54.6592 70.1176 55.0655 69.6168 55.0655H68.086C67.5852 55.0655 67.1797 54.6592 67.1797 54.1592V43.002Z" fill="#EDEDED"/>
<path d="M70.5239 43.002H67.1797V47.9292H70.5239V43.002Z" fill="#D1D1D1"/>
<path d="M70.3131 43.002V53.9917C70.3131 54.4841 69.992 54.8835 69.5964 54.8835H67.75C67.644 54.8835 67.5418 54.8566 67.4512 54.8051C67.581 54.9664 67.7622 55.064 67.9604 55.064H69.8069C70.2025 55.064 70.5235 54.6646 70.5235 54.1722V43.002H70.3131Z" fill="#9B9B9B"/>
<path d="M67.2909 43.6846C67.2878 45.0871 67.2909 52.5467 67.2917 53.9462C67.2917 54.0722 67.3669 54.1728 67.4599 54.1728C67.5528 54.1728 67.6281 54.0706 67.6281 53.9454V43.6861C67.6281 43.5601 67.5528 43.4587 67.4599 43.4587H67.4591C67.3662 43.4587 67.2909 43.5594 67.2909 43.6846Z" fill="white"/>
<path d="M63.8359 43.002H67.1802V54.1584C67.1802 54.6592 66.7739 55.0655 66.2731 55.0655H64.7423C64.2415 55.0655 63.8359 54.6592 63.8359 54.1592V43.002Z" fill="white"/>
<path d="M63.8359 43.002H67.1802V54.1584C67.1802 54.6592 66.7739 55.0655 66.2731 55.0655H64.7423C64.2415 55.0655 63.8359 54.6592 63.8359 54.1592V43.002Z" fill="#EDEDED"/>
<path d="M67.1802 43.002H63.8359V47.9292H67.1802V43.002Z" fill="#D1D1D1"/>
<path d="M66.9688 43.002V53.9917C66.9688 54.4841 66.6478 54.8835 66.2522 54.8835H64.4057C64.2997 54.8835 64.1976 54.8566 64.1069 54.8051C64.2367 54.9664 64.418 55.064 64.6162 55.064H66.4627C66.8582 55.064 67.1793 54.6646 67.1793 54.1722V43.002H66.9688Z" fill="#9B9B9B"/>
<path d="M63.9467 43.6846C63.9436 45.0871 63.9467 52.5467 63.9474 53.9462C63.9474 54.0722 64.0227 54.1728 64.1156 54.1728C64.2086 54.1728 64.2838 54.0706 64.2838 53.9454V43.6861C64.2838 43.5601 64.2086 43.4587 64.1156 43.4587H64.1149C64.0219 43.4587 63.9467 43.5594 63.9467 43.6846Z" fill="white"/>
<path d="M60.4917 43.002H63.8359V54.1584C63.8359 54.6592 63.4296 55.0655 62.9288 55.0655H61.398C60.8972 55.0655 60.4917 54.6592 60.4917 54.1592V43.002Z" fill="white"/>
<path d="M60.4917 43.002H63.8359V54.1584C63.8359 54.6592 63.4296 55.0655 62.9288 55.0655H61.398C60.8972 55.0655 60.4917 54.6592 60.4917 54.1592V43.002Z" fill="#EDEDED"/>
<path d="M63.8359 43.002H60.4917V47.9292H63.8359V43.002Z" fill="#D1D1D1"/>
<path d="M63.6246 43.002V53.9917C63.6246 54.4841 63.3035 54.8835 62.908 54.8835H61.0615C60.9555 54.8835 60.8533 54.8566 60.7627 54.8051C60.8925 54.9664 61.0738 55.064 61.2719 55.064H63.1184C63.514 55.064 63.835 54.6646 63.835 54.1722V43.002H63.6246Z" fill="#9B9B9B"/>
<path d="M60.6029 43.6846C60.5998 45.0871 60.6029 52.5467 60.6037 53.9462C60.6037 54.0722 60.6789 54.1728 60.7719 54.1728C60.8648 54.1728 60.9401 54.0706 60.9401 53.9454V43.6861C60.9401 43.5601 60.8648 43.4587 60.7719 43.4587H60.7711C60.6782 43.4587 60.6029 43.5594 60.6029 43.6846Z" fill="white"/>
<path d="M57.1475 43.002H60.4917V54.1584C60.4917 54.6592 60.0854 55.0655 59.5846 55.0655H58.0538C57.553 55.0655 57.1475 54.6592 57.1475 54.1592V43.002Z" fill="white"/>
<path d="M57.1475 43.002H60.4917V54.1584C60.4917 54.6592 60.0854 55.0655 59.5846 55.0655H58.0538C57.553 55.0655 57.1475 54.6592 57.1475 54.1592V43.002Z" fill="#EDEDED"/>
<path d="M60.4917 43.002H57.1475V47.9292H60.4917V43.002Z" fill="#D1D1D1"/>
<path d="M60.2803 43.002V53.9917C60.2803 54.4841 59.9593 54.8835 59.5637 54.8835H57.7172C57.6112 54.8835 57.5091 54.8566 57.4185 54.8051C57.5483 54.9664 57.7295 55.064 57.9277 55.064H59.7742C60.1697 55.064 60.4908 54.6646 60.4908 54.1722V43.002H60.2803Z" fill="#9B9B9B"/>
<path d="M57.2582 43.6846C57.2551 45.0871 57.2582 52.5467 57.2589 53.9462C57.2589 54.0722 57.3342 54.1728 57.4272 54.1728C57.5201 54.1728 57.5954 54.0706 57.5954 53.9454V43.6861C57.5954 43.5601 57.5201 43.4587 57.4272 43.4587H57.4264C57.3334 43.4587 57.2582 43.5594 57.2582 43.6846Z" fill="white"/>
<path d="M53.8037 43.002H57.148V54.1584C57.148 54.6592 56.7416 55.0655 56.2408 55.0655H54.7101C54.2093 55.0655 53.8037 54.6592 53.8037 54.1592V43.002Z" fill="white"/>
<path d="M53.8037 43.002H57.148V54.1584C57.148 54.6592 56.7416 55.0655 56.2408 55.0655H54.7101C54.2093 55.0655 53.8037 54.6592 53.8037 54.1592V43.002Z" fill="#EDEDED"/>
<path d="M57.148 43.002H53.8037V47.9292H57.148V43.002Z" fill="#D1D1D1"/>
<path d="M56.9366 43.002V53.9917C56.9366 54.4841 56.6155 54.8835 56.22 54.8835H54.3735C54.2675 54.8835 54.1653 54.8566 54.0747 54.8051C54.2045 54.9664 54.3858 55.064 54.5839 55.064H56.4304C56.826 55.064 57.1471 54.6646 57.1471 54.1722V43.002H56.9366Z" fill="#9B9B9B"/>
<path d="M53.9139 43.6846C53.9109 45.0871 53.9139 52.5467 53.9147 53.9462C53.9147 54.0722 53.99 54.1728 54.0829 54.1728C54.1759 54.1728 54.2511 54.0706 54.2511 53.9454V43.6861C54.2511 43.5601 54.1759 43.4587 54.0829 43.4587H54.0821C53.9892 43.4587 53.9139 43.5594 53.9139 43.6846Z" fill="white"/>
<path d="M50.4595 43.002H53.8037V54.1584C53.8037 54.6592 53.3974 55.0655 52.8966 55.0655H51.3658C50.865 55.0655 50.4595 54.6592 50.4595 54.1592V43.002Z" fill="white"/>
<path d="M50.4595 43.002H53.8037V54.1584C53.8037 54.6592 53.3974 55.0655 52.8966 55.0655H51.3658C50.865 55.0655 50.4595 54.6592 50.4595 54.1592V43.002Z" fill="#EDEDED"/>
<path d="M53.8037 43.002H50.4595V47.9292H53.8037V43.002Z" fill="#D1D1D1"/>
<path d="M53.5928 43.002V53.9917C53.5928 54.4841 53.2718 54.8835 52.8762 54.8835H51.0297C50.9237 54.8835 50.8216 54.8566 50.731 54.8051C50.8608 54.9664 51.042 55.064 51.2402 55.064H53.0867C53.4822 55.064 53.8033 54.6646 53.8033 54.1722V43.002H53.5928Z" fill="#9B9B9B"/>
<path d="M50.5697 43.6846C50.5666 45.0871 50.5697 52.5467 50.5705 53.9462C50.5705 54.0722 50.6457 54.1728 50.7387 54.1728C50.8316 54.1728 50.9069 54.0706 50.9069 53.9454V43.6861C50.9069 43.5601 50.8316 43.4587 50.7387 43.4587H50.7379C50.645 43.4587 50.5697 43.5594 50.5697 43.6846Z" fill="white"/>
<path d="M47.1147 43.002H50.459V54.1584C50.459 54.6592 50.0527 55.0655 49.5519 55.0655H48.0211C47.5203 55.0655 47.1147 54.6592 47.1147 54.1592V43.002Z" fill="white"/>
<path d="M47.1147 43.002H50.459V54.1584C50.459 54.6592 50.0527 55.0655 49.5519 55.0655H48.0211C47.5203 55.0655 47.1147 54.6592 47.1147 54.1592V43.002Z" fill="#EDEDED"/>
<path d="M50.459 43.002H47.1147V47.9292H50.459V43.002Z" fill="#D1D1D1"/>
<path d="M50.2486 43.002V53.9917C50.2486 54.4841 49.9275 54.8835 49.532 54.8835H47.6855C47.5795 54.8835 47.4774 54.8566 47.3867 54.8051C47.5165 54.9664 47.6978 55.064 47.896 55.064H49.7424C50.138 55.064 50.4591 54.6646 50.4591 54.1722V43.002H50.2486Z" fill="#9B9B9B"/>
<path d="M47.2255 43.6846C47.2224 45.0871 47.2255 52.5467 47.2262 53.9462C47.2262 54.0722 47.3015 54.1728 47.3944 54.1728C47.4874 54.1728 47.5627 54.0706 47.5627 53.9454V43.6861C47.5627 43.5601 47.4874 43.4587 47.3944 43.4587H47.3937C47.3007 43.4587 47.2255 43.5594 47.2255 43.6846Z" fill="white"/>
<path d="M43.7705 43.002H47.1148V54.1584C47.1148 54.6592 46.7084 55.0655 46.2076 55.0655H44.6768C44.1761 55.0655 43.7705 54.6592 43.7705 54.1592V43.002Z" fill="white"/>
<path d="M43.7705 43.002H47.1148V54.1584C47.1148 54.6592 46.7084 55.0655 46.2076 55.0655H44.6768C44.1761 55.0655 43.7705 54.6592 43.7705 54.1592V43.002Z" fill="#EDEDED"/>
<path d="M47.1148 43.002H43.7705V47.9292H47.1148V43.002Z" fill="#D1D1D1"/>
<path d="M46.9039 43.002V53.9917C46.9039 54.4841 46.5828 54.8835 46.1873 54.8835H44.3408C44.2348 54.8835 44.1326 54.8566 44.042 54.8051C44.1718 54.9664 44.3531 55.064 44.5512 55.064H46.3977C46.7933 55.064 47.1143 54.6646 47.1143 54.1722V43.002H46.9039Z" fill="#9B9B9B"/>
<path d="M43.8812 43.6846C43.8781 45.0871 43.8812 52.5467 43.882 53.9462C43.882 54.0722 43.9573 54.1728 44.0502 54.1728C44.1431 54.1728 44.2184 54.0706 44.2184 53.9454V43.6861C44.2184 43.5601 44.1431 43.4587 44.0502 43.4587H44.0494C43.9565 43.4587 43.8812 43.5594 43.8812 43.6846Z" fill="white"/>
<path d="M40.4268 43.002H43.771V54.1584C43.771 54.6592 43.3647 55.0655 42.8639 55.0655H41.3331C40.8323 55.0655 40.4268 54.6592 40.4268 54.1592V43.002Z" fill="white"/>
<path d="M40.4268 43.002H43.771V54.1584C43.771 54.6592 43.3647 55.0655 42.8639 55.0655H41.3331C40.8323 55.0655 40.4268 54.6592 40.4268 54.1592V43.002Z" fill="#EDEDED"/>
<path d="M43.771 43.002H40.4268V47.9292H43.771V43.002Z" fill="#D1D1D1"/>
<path d="M43.5596 43.002V53.9917C43.5596 54.4841 43.2386 54.8835 42.843 54.8835H40.9965C40.8905 54.8835 40.7884 54.8566 40.6978 54.8051C40.8276 54.9664 41.0088 55.064 41.207 55.064H43.0535C43.449 55.064 43.7701 54.6646 43.7701 54.1722V43.002H43.5596Z" fill="#9B9B9B"/>
<path d="M40.5375 43.6846C40.5344 45.0871 40.5375 52.5467 40.5382 53.9462C40.5382 54.0722 40.6135 54.1728 40.7064 54.1728C40.7994 54.1728 40.8747 54.0706 40.8747 53.9454V43.6861C40.8747 43.5601 40.7994 43.4587 40.7064 43.4587H40.7057C40.6127 43.4587 40.5375 43.5594 40.5375 43.6846Z" fill="white"/>
<path d="M37.082 43.002H40.4263V54.1584C40.4263 54.6592 40.02 55.0655 39.5192 55.0655H37.9884C37.4876 55.0655 37.082 54.6592 37.082 54.1592V43.002Z" fill="white"/>
<path d="M37.082 43.002H40.4263V54.1584C40.4263 54.6592 40.02 55.0655 39.5192 55.0655H37.9884C37.4876 55.0655 37.082 54.6592 37.082 54.1592V43.002Z" fill="#EDEDED"/>
<path d="M40.4263 43.002H37.082V47.9292H40.4263V43.002Z" fill="#D1D1D1"/>
<path d="M40.2159 43.002V53.9917C40.2159 54.4841 39.8948 54.8835 39.4993 54.8835H37.6528C37.5468 54.8835 37.4446 54.8566 37.354 54.8051C37.4838 54.9664 37.6651 55.064 37.8632 55.064H39.7097C40.1053 55.064 40.4264 54.6646 40.4264 54.1722V43.002H40.2159Z" fill="#9B9B9B"/>
<path d="M37.1937 43.6846C37.1906 45.0871 37.1937 52.5467 37.1945 53.9462C37.1945 54.0722 37.2698 54.1728 37.3627 54.1728C37.4556 54.1728 37.5309 54.0706 37.5309 53.9454V43.6861C37.5309 43.5601 37.4556 43.4587 37.3627 43.4587H37.3619C37.269 43.4587 37.1937 43.5594 37.1937 43.6846Z" fill="white"/>
<path d="M33.7378 43.002H37.082V54.1584C37.082 54.6592 36.6757 55.0655 36.1749 55.0655H34.6441C34.1433 55.0655 33.7378 54.6592 33.7378 54.1592V43.002Z" fill="white"/>
<path d="M33.7378 43.002H37.082V54.1584C37.082 54.6592 36.6757 55.0655 36.1749 55.0655H34.6441C34.1433 55.0655 33.7378 54.6592 33.7378 54.1592V43.002Z" fill="#EDEDED"/>
<path d="M37.082 43.002H33.7378V47.9292H37.082V43.002Z" fill="#D1D1D1"/>
<path d="M36.8712 43.002V53.9917C36.8712 54.4841 36.5501 54.8835 36.1545 54.8835H34.3081C34.2021 54.8835 34.0999 54.8566 34.0093 54.8051C34.1391 54.9664 34.3204 55.064 34.5185 55.064H36.365C36.7606 55.064 37.0816 54.6646 37.0816 54.1722V43.002H36.8712Z" fill="#9B9B9B"/>
<path d="M33.8495 43.6846C33.8464 45.0871 33.8495 52.5467 33.8503 53.9462C33.8503 54.0722 33.9255 54.1728 34.0185 54.1728C34.1114 54.1728 34.1867 54.0706 34.1867 53.9454V43.6861C34.1867 43.5601 34.1114 43.4587 34.0185 43.4587H34.0177C33.9248 43.4587 33.8495 43.5594 33.8495 43.6846Z" fill="white"/>
<path d="M30.3936 43.002H33.7378V54.1584C33.7378 54.6592 33.3315 55.0655 32.8307 55.0655H31.2999C30.7991 55.0655 30.3936 54.6592 30.3936 54.1592V43.002Z" fill="white"/>
<path d="M30.3936 43.002H33.7378V54.1584C33.7378 54.6592 33.3315 55.0655 32.8307 55.0655H31.2999C30.7991 55.0655 30.3936 54.6592 30.3936 54.1592V43.002Z" fill="#EDEDED"/>
<path d="M33.7378 43.002H30.3936V47.9292H33.7378V43.002Z" fill="#D1D1D1"/>
<path d="M33.5269 43.002V53.9917C33.5269 54.4841 33.2059 54.8835 32.8103 54.8835H30.9638C30.8578 54.8835 30.7557 54.8566 30.665 54.8051C30.7948 54.9664 30.9761 55.064 31.1743 55.064H33.0208C33.4163 55.064 33.7374 54.6646 33.7374 54.1722V43.002H33.5269Z" fill="#9B9B9B"/>
<path d="M30.5052 43.6846C30.5022 45.0871 30.5052 52.5467 30.506 53.9462C30.506 54.0722 30.5813 54.1728 30.6742 54.1728C30.7672 54.1728 30.8424 54.0706 30.8424 53.9454V43.6861C30.8424 43.5601 30.7672 43.4587 30.6742 43.4587H30.6735C30.5805 43.4587 30.5052 43.5594 30.5052 43.6846Z" fill="white"/>
<path d="M27.0493 43.002H30.3936V54.1584C30.3936 54.6592 29.9872 55.0655 29.4865 55.0655H27.9557C27.4549 55.0655 27.0493 54.6592 27.0493 54.1592V43.002Z" fill="white"/>
<path d="M27.0493 43.002H30.3936V54.1584C30.3936 54.6592 29.9872 55.0655 29.4865 55.0655H27.9557C27.4549 55.0655 27.0493 54.6592 27.0493 54.1592V43.002Z" fill="#EDEDED"/>
<path d="M30.3936 43.002H27.0493V47.9292H30.3936V43.002Z" fill="#D1D1D1"/>
<path d="M30.1827 43.002V53.9917C30.1827 54.4841 29.8616 54.8835 29.4661 54.8835H27.6196C27.5136 54.8835 27.4114 54.8566 27.3208 54.8051C27.4506 54.9664 27.6319 55.064 27.83 55.064H29.6765C30.0721 55.064 30.3931 54.6646 30.3931 54.1722V43.002H30.1827Z" fill="#9B9B9B"/>
<path d="M27.1605 43.6846C27.1574 45.0871 27.1605 52.5467 27.1613 53.9462C27.1613 54.0722 27.2366 54.1728 27.3295 54.1728C27.4224 54.1728 27.4977 54.0706 27.4977 53.9454V43.6861C27.4977 43.5601 27.4224 43.4587 27.3295 43.4587H27.3287C27.2358 43.4587 27.1605 43.5594 27.1605 43.6846Z" fill="white"/>
<path d="M23.7061 43.002H27.0503V54.1584C27.0503 54.6592 26.644 55.0655 26.1432 55.0655H24.6124C24.1116 55.0655 23.7061 54.6592 23.7061 54.1592V43.002Z" fill="white"/>
<path d="M23.7061 43.002H27.0503V54.1584C27.0503 54.6592 26.644 55.0655 26.1432 55.0655H24.6124C24.1116 55.0655 23.7061 54.6592 23.7061 54.1592V43.002Z" fill="#EDEDED"/>
<path d="M27.0503 43.002H23.7061V47.9292H27.0503V43.002Z" fill="#D1D1D1"/>
<path d="M26.8389 43.002V53.9917C26.8389 54.4841 26.5179 54.8835 26.1223 54.8835H24.2758C24.1698 54.8835 24.0677 54.8566 23.9771 54.8051C24.1069 54.9664 24.2881 55.064 24.4863 55.064H26.3328C26.7283 55.064 27.0494 54.6646 27.0494 54.1722V43.002H26.8389Z" fill="#9B9B9B"/>
<path d="M23.8168 43.6846C23.8137 45.0871 23.8168 52.5467 23.8175 53.9462C23.8175 54.0722 23.8928 54.1728 23.9857 54.1728C24.0787 54.1728 24.154 54.0706 24.154 53.9454V43.6861C24.154 43.5601 24.0787 43.4587 23.9857 43.4587H23.985C23.892 43.4587 23.8168 43.5594 23.8168 43.6846Z" fill="white"/>
<path d="M20.3623 43.002H23.7066V54.1584C23.7066 54.6592 23.3002 55.0655 22.7994 55.0655H21.2686C20.7679 55.0655 20.3623 54.6592 20.3623 54.1592V43.002Z" fill="white"/>
<path d="M20.3623 43.002H23.7066V54.1584C23.7066 54.6592 23.3002 55.0655 22.7994 55.0655H21.2686C20.7679 55.0655 20.3623 54.6592 20.3623 54.1592V43.002Z" fill="#EDEDED"/>
<path d="M23.7066 43.002H20.3623V47.9292H23.7066V43.002Z" fill="#D1D1D1"/>
<path d="M23.4947 43.002V53.9917C23.4947 54.4841 23.1736 54.8835 22.7781 54.8835H20.9316C20.8256 54.8835 20.7234 54.8566 20.6328 54.8051C20.7626 54.9664 20.9439 55.064 21.1421 55.064H22.9885C23.3841 55.064 23.7052 54.6646 23.7052 54.1722V43.002H23.4947Z" fill="#9B9B9B"/>
<path d="M20.4725 43.6846C20.4695 45.0871 20.4725 52.5467 20.4733 53.9462C20.4733 54.0722 20.5486 54.1728 20.6415 54.1728C20.7344 54.1728 20.8097 54.0706 20.8097 53.9454V43.6861C20.8097 43.5601 20.7344 43.4587 20.6415 43.4587H20.6407C20.5478 43.4587 20.4725 43.5594 20.4725 43.6846Z" fill="white"/>
<path d="M17.0176 43.002H20.3618V54.1584C20.3618 54.6592 19.9555 55.0655 19.4547 55.0655H17.9239C17.4231 55.0655 17.0176 54.6592 17.0176 54.1592V43.002Z" fill="white"/>
<path d="M17.0176 43.002H20.3618V54.1584C20.3618 54.6592 19.9555 55.0655 19.4547 55.0655H17.9239C17.4231 55.0655 17.0176 54.6592 17.0176 54.1592V43.002Z" fill="#EDEDED"/>
<path d="M20.3618 43.002H17.0176V47.9292H20.3618V43.002Z" fill="#D1D1D1"/>
<path d="M20.1505 43.002V53.9917C20.1505 54.4841 19.8294 54.8835 19.4338 54.8835H17.5874C17.4814 54.8835 17.3792 54.8566 17.2886 54.8051C17.4184 54.9664 17.5996 55.064 17.7978 55.064H19.6443C20.0399 55.064 20.3609 54.6646 20.3609 54.1722V43.002H20.1505Z" fill="#9B9B9B"/>
<path d="M17.1278 43.6846C17.1247 45.0871 17.1278 52.5467 17.1286 53.9462C17.1286 54.0722 17.2038 54.1728 17.2968 54.1728C17.3897 54.1728 17.465 54.0706 17.465 53.9454V43.6861C17.465 43.5601 17.3897 43.4587 17.2968 43.4587H17.296C17.2031 43.4587 17.1278 43.5594 17.1278 43.6846Z" fill="white"/>
<path d="M13.6733 43.002H17.0176V54.1584C17.0176 54.6592 16.6113 55.0655 16.1105 55.0655H14.5797C14.0789 55.0655 13.6733 54.6592 13.6733 54.1592V43.002Z" fill="white"/>
<path d="M13.6733 43.002H17.0176V54.1584C17.0176 54.6592 16.6113 55.0655 16.1105 55.0655H14.5797C14.0789 55.0655 13.6733 54.6592 13.6733 54.1592V43.002Z" fill="#EDEDED"/>
<path d="M17.0176 43.002H13.6733V47.9292H17.0176V43.002Z" fill="#D1D1D1"/>
<path d="M16.8057 43.002V53.9917C16.8057 54.4841 16.4847 54.8835 16.0891 54.8835H14.2426C14.1366 54.8835 14.0345 54.8566 13.9438 54.8051C14.0737 54.9664 14.2549 55.064 14.4531 55.064H16.2996C16.6951 55.064 17.0162 54.6646 17.0162 54.1722V43.002H16.8057Z" fill="#9B9B9B"/>
<path d="M13.7836 43.6846C13.7805 45.0871 13.7836 52.5467 13.7843 53.9462C13.7843 54.0722 13.8596 54.1728 13.9525 54.1728C14.0455 54.1728 14.1208 54.0706 14.1208 53.9454V43.6861C14.1208 43.5601 14.0455 43.4587 13.9525 43.4587H13.9518C13.8588 43.4587 13.7836 43.5594 13.7836 43.6846Z" fill="white"/>
<path d="M79.3359 42.9932H81.538V49.2638C81.538 49.5695 81.29 49.8168 80.985 49.8168H79.8897C79.584 49.8168 79.3367 49.5688 79.3367 49.2638V42.9932H79.3359Z" fill="white"/>
<path d="M79.3359 42.9932H81.538V49.2638C81.538 49.5695 81.29 49.8168 80.985 49.8168H79.8897C79.584 49.8168 79.3367 49.5688 79.3367 49.2638V42.9932H79.3359Z" fill="#232323"/>
<path d="M81.538 42.9932H79.3359V45.7806H81.538V42.9932Z" fill="black"/>
<path d="M81.3986 42.9932V49.2101C81.3986 49.4889 81.1874 49.7147 80.927 49.7147H79.7058C79.6359 49.7147 79.5721 49.6978 79.5122 49.6694C79.5975 49.7608 79.7134 49.8168 79.844 49.8168H81.0653C81.3257 49.8168 81.5369 49.591 81.5369 49.3122V42.9932H81.3979H81.3986Z" fill="black"/>
<path d="M79.4087 43.3797C79.4064 44.1732 79.4087 48.393 79.4087 49.1849C79.4087 49.2564 79.4587 49.3132 79.5193 49.3132C79.5808 49.3132 79.6299 49.2556 79.6299 49.1842V43.3805C79.6299 43.3091 79.58 43.2515 79.5193 43.2515C79.4587 43.2515 79.4087 43.3083 79.4087 43.379V43.3797Z" fill="#727272"/>
<path d="M75.9692 42.9932H78.1713V49.2638C78.1713 49.5695 77.9233 49.8168 77.6183 49.8168H76.523C76.2173 49.8168 75.97 49.5688 75.97 49.2638V42.9932H75.9692Z" fill="white"/>
<path d="M75.9692 42.9932H78.1713V49.2638C78.1713 49.5695 77.9233 49.8168 77.6183 49.8168H76.523C76.2173 49.8168 75.97 49.5688 75.97 49.2638V42.9932H75.9692Z" fill="#232323"/>
<path d="M78.1713 42.9932H75.9692V45.7806H78.1713V42.9932Z" fill="black"/>
<path d="M78.0329 42.9932V49.2101C78.0329 49.4889 77.8217 49.7147 77.5613 49.7147H76.34C76.2701 49.7147 76.2064 49.6978 76.1465 49.6694C76.2317 49.7608 76.3477 49.8168 76.4783 49.8168H77.6996C77.9599 49.8168 78.1712 49.591 78.1712 49.3122V42.9932H78.0321H78.0329Z" fill="black"/>
<path d="M76.042 43.3797C76.0397 44.1732 76.042 48.393 76.042 49.1849C76.042 49.2564 76.092 49.3132 76.1526 49.3132C76.2141 49.3132 76.2632 49.2556 76.2632 49.1842V43.3805C76.2632 43.3091 76.2133 43.2515 76.1526 43.2515C76.092 43.2515 76.042 43.3083 76.042 43.379V43.3797Z" fill="#727272"/>
<path d="M72.6689 42.9932H74.871V49.2638C74.871 49.5695 74.623 49.8168 74.318 49.8168H73.2227C72.917 49.8168 72.6697 49.5688 72.6697 49.2638V42.9932H72.6689Z" fill="white"/>
<path d="M72.6689 42.9932H74.871V49.2638C74.871 49.5695 74.623 49.8168 74.318 49.8168H73.2227C72.917 49.8168 72.6697 49.5688 72.6697 49.2638V42.9932H72.6689Z" fill="#232323"/>
<path d="M74.871 42.9932H72.6689V45.7806H74.871V42.9932Z" fill="black"/>
<path d="M74.7326 42.9932V49.2101C74.7326 49.4889 74.5214 49.7147 74.261 49.7147H73.0398C72.9699 49.7147 72.9061 49.6978 72.8462 49.6694C72.9314 49.7608 73.0474 49.8168 73.178 49.8168H74.3993C74.6596 49.8168 74.8709 49.591 74.8709 49.3122V42.9932H74.7318H74.7326Z" fill="black"/>
<path d="M72.7427 43.3797C72.7404 44.1732 72.7427 48.393 72.7427 49.1849C72.7427 49.2564 72.7926 49.3132 72.8533 49.3132C72.9148 49.3132 72.9639 49.2556 72.9639 49.1842V43.3805C72.9639 43.3091 72.914 43.2515 72.8533 43.2515C72.7926 43.2515 72.7427 43.3083 72.7427 43.379V43.3797Z" fill="#727272"/>
<path d="M65.9585 42.9932H68.1606V49.2638C68.1606 49.5695 67.9125 49.8168 67.6076 49.8168H66.5123C66.2066 49.8168 65.9593 49.5688 65.9593 49.2638V42.9932H65.9585Z" fill="white"/>
<path d="M65.9585 42.9932H68.1606V49.2638C68.1606 49.5695 67.9125 49.8168 67.6076 49.8168H66.5123C66.2066 49.8168 65.9593 49.5688 65.9593 49.2638V42.9932H65.9585Z" fill="#232323"/>
<path d="M68.1606 42.9932H65.9585V45.7806H68.1606V42.9932Z" fill="black"/>
<path d="M68.0217 42.9932V49.2101C68.0217 49.4889 67.8104 49.7147 67.5501 49.7147H66.3288C66.2589 49.7147 66.1952 49.6978 66.1353 49.6694C66.2205 49.7608 66.3365 49.8168 66.4671 49.8168H67.6883C67.9487 49.8168 68.1599 49.591 68.1599 49.3122V42.9932H68.0209H68.0217Z" fill="black"/>
<path d="M66.0318 43.3797C66.0295 44.1732 66.0318 48.393 66.0318 49.1849C66.0318 49.2564 66.0817 49.3132 66.1424 49.3132C66.2038 49.3132 66.253 49.2556 66.253 49.1842V43.3805C66.253 43.3091 66.2031 43.2515 66.1424 43.2515C66.0817 43.2515 66.0318 43.3083 66.0318 43.379V43.3797Z" fill="#727272"/>
<path d="M62.6587 42.9932H64.8608V49.2638C64.8608 49.5695 64.6127 49.8168 64.3078 49.8168H63.2125C62.9068 49.8168 62.6595 49.5688 62.6595 49.2638V42.9932H62.6587Z" fill="white"/>
<path d="M62.6587 42.9932H64.8608V49.2638C64.8608 49.5695 64.6127 49.8168 64.3078 49.8168H63.2125C62.9068 49.8168 62.6595 49.5688 62.6595 49.2638V42.9932H62.6587Z" fill="#232323"/>
<path d="M64.8608 42.9932H62.6587V45.7806H64.8608V42.9932Z" fill="black"/>
<path d="M64.7224 42.9932V49.2101C64.7224 49.4889 64.5111 49.7147 64.2508 49.7147H63.0295C62.9596 49.7147 62.8958 49.6978 62.8359 49.6694C62.9212 49.7608 63.0372 49.8168 63.1678 49.8168H64.389C64.6494 49.8168 64.8606 49.591 64.8606 49.3122V42.9932H64.7216H64.7224Z" fill="black"/>
<path d="M62.7315 43.3797C62.7292 44.1732 62.7315 48.393 62.7315 49.1849C62.7315 49.2564 62.7814 49.3132 62.8421 49.3132C62.9035 49.3132 62.9527 49.2556 62.9527 49.1842V43.3805C62.9527 43.3091 62.9028 43.2515 62.8421 43.2515C62.7814 43.2515 62.7315 43.3083 62.7315 43.379V43.3797Z" fill="#727272"/>
<path d="M55.9263 42.9932H58.1284V49.2638C58.1284 49.5695 57.8803 49.8168 57.5753 49.8168H56.4801C56.1744 49.8168 55.927 49.5688 55.927 49.2638V42.9932H55.9263Z" fill="white"/>
<path d="M55.9263 42.9932H58.1284V49.2638C58.1284 49.5695 57.8803 49.8168 57.5753 49.8168H56.4801C56.1744 49.8168 55.927 49.5688 55.927 49.2638V42.9932H55.9263Z" fill="#232323"/>
<path d="M58.1284 42.9932H55.9263V45.7806H58.1284V42.9932Z" fill="black"/>
<path d="M57.9894 42.9932V49.2101C57.9894 49.4889 57.7782 49.7147 57.5178 49.7147H56.2966C56.2267 49.7147 56.1629 49.6978 56.103 49.6694C56.1883 49.7608 56.3043 49.8168 56.4348 49.8168H57.6561C57.9165 49.8168 58.1277 49.591 58.1277 49.3122V42.9932H57.9887H57.9894Z" fill="black"/>
<path d="M55.9991 43.3797C55.9968 44.1732 55.9991 48.393 55.9991 49.1849C55.9991 49.2564 56.049 49.3132 56.1097 49.3132C56.1711 49.3132 56.2203 49.2556 56.2203 49.1842V43.3805C56.2203 43.3091 56.1704 43.2515 56.1097 43.2515C56.049 43.2515 55.9991 43.3083 55.9991 43.379V43.3797Z" fill="#727272"/>
<path d="M52.5596 42.9932H54.7617V49.2638C54.7617 49.5695 54.5136 49.8168 54.2086 49.8168H53.1134C52.8077 49.8168 52.5603 49.5688 52.5603 49.2638V42.9932H52.5596Z" fill="white"/>
<path d="M52.5596 42.9932H54.7617V49.2638C54.7617 49.5695 54.5136 49.8168 54.2086 49.8168H53.1134C52.8077 49.8168 52.5603 49.5688 52.5603 49.2638V42.9932H52.5596Z" fill="#232323"/>
<path d="M54.7617 42.9932H52.5596V45.7806H54.7617V42.9932Z" fill="black"/>
<path d="M54.6242 42.9932V49.2101C54.6242 49.4889 54.413 49.7147 54.1526 49.7147H52.9314C52.8615 49.7147 52.7977 49.6978 52.7378 49.6694C52.8231 49.7608 52.939 49.8168 53.0696 49.8168H54.2909C54.5512 49.8168 54.7625 49.591 54.7625 49.3122V42.9932H54.6234H54.6242Z" fill="black"/>
<path d="M52.6324 43.3797C52.6301 44.1732 52.6324 48.393 52.6324 49.1849C52.6324 49.2564 52.6823 49.3132 52.743 49.3132C52.8044 49.3132 52.8536 49.2556 52.8536 49.1842V43.3805C52.8536 43.3091 52.8037 43.2515 52.743 43.2515C52.6823 43.2515 52.6324 43.3083 52.6324 43.379V43.3797Z" fill="#727272"/>
<path d="M49.2603 42.9932H51.4624V49.2638C51.4624 49.5695 51.2143 49.8168 50.9093 49.8168H49.814C49.5083 49.8168 49.261 49.5688 49.261 49.2638V42.9932H49.2603Z" fill="white"/>
<path d="M49.2603 42.9932H51.4624V49.2638C51.4624 49.5695 51.2143 49.8168 50.9093 49.8168H49.814C49.5083 49.8168 49.261 49.5688 49.261 49.2638V42.9932H49.2603Z" fill="#232323"/>
<path d="M51.4624 42.9932H49.2603V45.7806H51.4624V42.9932Z" fill="black"/>
<path d="M51.3229 42.9932V49.2101C51.3229 49.4889 51.1117 49.7147 50.8513 49.7147H49.6301C49.5602 49.7147 49.4964 49.6978 49.4365 49.6694C49.5218 49.7608 49.6378 49.8168 49.7683 49.8168H50.9896C51.25 49.8168 51.4612 49.591 51.4612 49.3122V42.9932H51.3222H51.3229Z" fill="black"/>
<path d="M49.3331 43.3797C49.3308 44.1732 49.3331 48.393 49.3331 49.1849C49.3331 49.2564 49.383 49.3132 49.4437 49.3132C49.5051 49.3132 49.5543 49.2556 49.5543 49.1842V43.3805C49.5543 43.3091 49.5043 43.2515 49.4437 43.2515C49.383 43.2515 49.3331 43.3083 49.3331 43.379V43.3797Z" fill="#727272"/>
<path d="M42.5493 42.9932H44.7514V49.2638C44.7514 49.5695 44.5033 49.8168 44.1984 49.8168H43.1031C42.7974 49.8168 42.5501 49.5688 42.5501 49.2638V42.9932H42.5493Z" fill="white"/>
<path d="M42.5493 42.9932H44.7514V49.2638C44.7514 49.5695 44.5033 49.8168 44.1984 49.8168H43.1031C42.7974 49.8168 42.5501 49.5688 42.5501 49.2638V42.9932H42.5493Z" fill="#232323"/>
<path d="M44.7514 42.9932H42.5493V45.7806H44.7514V42.9932Z" fill="black"/>
<path d="M44.6135 42.9932V49.2101C44.6135 49.4889 44.4022 49.7147 44.1419 49.7147H42.9206C42.8507 49.7147 42.787 49.6978 42.7271 49.6694C42.8123 49.7608 42.9283 49.8168 43.0589 49.8168H44.2801C44.5405 49.8168 44.7517 49.591 44.7517 49.3122V42.9932H44.6127H44.6135Z" fill="black"/>
<path d="M42.6221 43.3797C42.6198 44.1732 42.6221 48.393 42.6221 49.1849C42.6221 49.2564 42.672 49.3132 42.7327 49.3132C42.7942 49.3132 42.8433 49.2556 42.8433 49.1842V43.3805C42.8433 43.3091 42.7934 43.2515 42.7327 43.2515C42.672 43.2515 42.6221 43.3083 42.6221 43.379V43.3797Z" fill="#727272"/>
<path d="M39.3252 42.9932H41.5273V49.2638C41.5273 49.5695 41.2792 49.8168 40.9743 49.8168H39.879C39.5733 49.8168 39.326 49.5688 39.326 49.2638V42.9932H39.3252Z" fill="white"/>
<path d="M39.3252 42.9932H41.5273V49.2638C41.5273 49.5695 41.2792 49.8168 40.9743 49.8168H39.879C39.5733 49.8168 39.326 49.5688 39.326 49.2638V42.9932H39.3252Z" fill="#232323"/>
<path d="M41.5273 42.9932H39.3252V45.7806H41.5273V42.9932Z" fill="black"/>
<path d="M41.3884 42.9932V49.2101C41.3884 49.4889 41.1771 49.7147 40.9168 49.7147H39.6955C39.6256 49.7147 39.5619 49.6978 39.502 49.6694C39.5872 49.7608 39.7032 49.8168 39.8338 49.8168H41.055C41.3154 49.8168 41.5266 49.591 41.5266 49.3122V42.9932H41.3876H41.3884Z" fill="black"/>
<path d="M39.3985 43.3797C39.3962 44.1732 39.3985 48.393 39.3985 49.1849C39.3985 49.2564 39.4484 49.3132 39.5091 49.3132C39.5705 49.3132 39.6197 49.2556 39.6197 49.1842V43.3805C39.6197 43.3091 39.5698 43.2515 39.5091 43.2515C39.4484 43.2515 39.3985 43.3083 39.3985 43.379V43.3797Z" fill="#727272"/>
<path d="M32.5386 42.9932H34.7407V49.2638C34.7407 49.5695 34.4926 49.8168 34.1877 49.8168H33.0924C32.7867 49.8168 32.5393 49.5688 32.5393 49.2638V42.9932H32.5386Z" fill="white"/>
<path d="M32.5386 42.9932H34.7407V49.2638C34.7407 49.5695 34.4926 49.8168 34.1877 49.8168H33.0924C32.7867 49.8168 32.5393 49.5688 32.5393 49.2638V42.9932H32.5386Z" fill="#232323"/>
<path d="M34.7407 42.9932H32.5386V45.7806H34.7407V42.9932Z" fill="black"/>
<path d="M34.6022 42.9932V49.2101C34.6022 49.4889 34.391 49.7147 34.1306 49.7147H32.9094C32.8395 49.7147 32.7757 49.6978 32.7158 49.6694C32.8011 49.7608 32.9171 49.8168 33.0476 49.8168H34.2689C34.5293 49.8168 34.7405 49.591 34.7405 49.3122V42.9932H34.6015H34.6022Z" fill="black"/>
<path d="M32.6119 43.3797C32.6096 44.1732 32.6119 48.393 32.6119 49.1849C32.6119 49.2564 32.6618 49.3132 32.7225 49.3132C32.7839 49.3132 32.8331 49.2556 32.8331 49.1842V43.3805C32.8331 43.3091 32.7831 43.2515 32.7225 43.2515C32.6618 43.2515 32.6119 43.3083 32.6119 43.379V43.3797Z" fill="#727272"/>
<path d="M29.1729 42.9932H31.375V49.2638C31.375 49.5695 31.1269 49.8168 30.8219 49.8168H29.7266C29.4209 49.8168 29.1736 49.5688 29.1736 49.2638V42.9932H29.1729Z" fill="white"/>
<path d="M29.1729 42.9932H31.375V49.2638C31.375 49.5695 31.1269 49.8168 30.8219 49.8168H29.7266C29.4209 49.8168 29.1736 49.5688 29.1736 49.2638V42.9932H29.1729Z" fill="#232323"/>
<path d="M31.375 42.9932H29.1729V45.7806H31.375V42.9932Z" fill="black"/>
<path d="M31.2365 42.9932V49.2101C31.2365 49.4889 31.0253 49.7147 30.7649 49.7147H29.5437C29.4738 49.7147 29.41 49.6978 29.3501 49.6694C29.4354 49.7608 29.5513 49.8168 29.6819 49.8168H30.9032C31.1636 49.8168 31.3748 49.591 31.3748 49.3122V42.9932H31.2358H31.2365Z" fill="black"/>
<path d="M29.2457 43.3797C29.2433 44.1732 29.2457 48.393 29.2457 49.1849C29.2457 49.2564 29.2956 49.3132 29.3563 49.3132C29.4177 49.3132 29.4669 49.2556 29.4669 49.1842V43.3805C29.4669 43.3091 29.4169 43.2515 29.3563 43.2515C29.2956 43.2515 29.2457 43.3083 29.2457 43.379V43.3797Z" fill="#727272"/>
<path d="M25.8726 42.9932H28.0747V49.2638C28.0747 49.5695 27.8266 49.8168 27.5216 49.8168H26.4263C26.1206 49.8168 25.8733 49.5688 25.8733 49.2638V42.9932H25.8726Z" fill="white"/>
<path d="M25.8726 42.9932H28.0747V49.2638C28.0747 49.5695 27.8266 49.8168 27.5216 49.8168H26.4263C26.1206 49.8168 25.8733 49.5688 25.8733 49.2638V42.9932H25.8726Z" fill="#232323"/>
<path d="M28.0747 42.9932H25.8726V45.7806H28.0747V42.9932Z" fill="black"/>
<path d="M27.9362 42.9932V49.2101C27.9362 49.4889 27.725 49.7147 27.4646 49.7147H26.2434C26.1735 49.7147 26.1097 49.6978 26.0498 49.6694C26.1351 49.7608 26.251 49.8168 26.3816 49.8168H27.6029C27.8633 49.8168 28.0745 49.591 28.0745 49.3122V42.9932H27.9355H27.9362Z" fill="black"/>
<path d="M25.9454 43.3797C25.9431 44.1732 25.9454 48.393 25.9454 49.1849C25.9454 49.2564 25.9953 49.3132 26.056 49.3132C26.1174 49.3132 26.1666 49.2556 26.1666 49.1842V43.3805C26.1666 43.3091 26.1166 43.2515 26.056 43.2515C25.9953 43.2515 25.9454 43.3083 25.9454 43.379V43.3797Z" fill="#727272"/>
<path d="M19.1621 42.9932H21.3642V49.2638C21.3642 49.5695 21.1161 49.8168 20.8112 49.8168H19.7159C19.4102 49.8168 19.1629 49.5688 19.1629 49.2638V42.9932H19.1621Z" fill="white"/>
<path d="M19.1621 42.9932H21.3642V49.2638C21.3642 49.5695 21.1161 49.8168 20.8112 49.8168H19.7159C19.4102 49.8168 19.1629 49.5688 19.1629 49.2638V42.9932H19.1621Z" fill="#232323"/>
<path d="M21.3642 42.9932H19.1621V45.7806H21.3642V42.9932Z" fill="black"/>
<path d="M21.2258 42.9932V49.2101C21.2258 49.4889 21.0146 49.7147 20.7542 49.7147H19.5329C19.463 49.7147 19.3993 49.6978 19.3394 49.6694C19.4246 49.7608 19.5406 49.8168 19.6712 49.8168H20.8924C21.1528 49.8168 21.364 49.591 21.364 49.3122V42.9932H21.225H21.2258Z" fill="black"/>
<path d="M19.2349 43.3797C19.2326 44.1732 19.2349 48.393 19.2349 49.1849C19.2349 49.2564 19.2848 49.3132 19.3455 49.3132C19.407 49.3132 19.4561 49.2556 19.4561 49.1842V43.3805C19.4561 43.3091 19.4062 43.2515 19.3455 43.2515C19.2848 43.2515 19.2349 43.3083 19.2349 43.379V43.3797Z" fill="#727272"/>
<path d="M15.8623 42.9932H18.0644V49.2638C18.0644 49.5695 17.8163 49.8168 17.5114 49.8168H16.4161C16.1104 49.8168 15.8631 49.5688 15.8631 49.2638V42.9932H15.8623Z" fill="white"/>
<path d="M15.8623 42.9932H18.0644V49.2638C18.0644 49.5695 17.8163 49.8168 17.5114 49.8168H16.4161C16.1104 49.8168 15.8631 49.5688 15.8631 49.2638V42.9932H15.8623Z" fill="#232323"/>
<path d="M18.0644 42.9932H15.8623V45.7806H18.0644V42.9932Z" fill="black"/>
<path d="M17.9255 42.9932V49.2101C17.9255 49.4889 17.7143 49.7147 17.4539 49.7147H16.2326C16.1627 49.7147 16.099 49.6978 16.0391 49.6694C16.1243 49.7608 16.2403 49.8168 16.3709 49.8168H17.5921C17.8525 49.8168 18.0637 49.591 18.0637 49.3122V42.9932H17.9247H17.9255Z" fill="black"/>
<path d="M15.9356 43.3797C15.9333 44.1732 15.9356 48.393 15.9356 49.1849C15.9356 49.2564 15.9855 49.3132 16.0462 49.3132C16.1076 49.3132 16.1568 49.2556 16.1568 49.1842V43.3805C16.1568 43.3091 16.1069 43.2515 16.0462 43.2515C15.9855 43.2515 15.9356 43.3083 15.9356 43.379V43.3797Z" fill="#727272"/>
<path d="M56.8488 36.0054H40.7251V41.468H56.8488V36.0054Z" fill="black"/>
<path d="M55.7368 36.3818H41.8359V41.091H55.7368V36.3818Z" fill="#D0D2D6"/>
<path d="M41.8359 41.091H55.7368C46.8792 39.965 41.8359 36.3818 41.8359 36.3818V41.091Z" fill="#A8A8A8"/>
<path d="M98.2889 95.9154C98.2635 100.063 94.9437 103.409 90.8476 103.479L90.6957 103.473L86.3368 103.298C86.3366 103.298 86.3365 103.298 86.3363 103.298C60.7459 102.256 35.1188 102.154 9.51736 102.974C5.34833 102.939 1.98402 99.5176 2.00983 95.3163L2.05508 87.9484C2.06717 85.9794 2.43461 84.566 3.24128 83.4929C4.04897 82.4185 5.40547 81.5416 7.69669 80.8778C8.84102 80.5487 10.0274 80.3619 11.2518 80.2561C12.2259 80.1777 13.6348 80.0625 15.3452 79.9226C17.1239 79.7771 19.2287 79.605 21.5098 79.4198L21.5101 79.4198C40.6478 77.8607 59.8839 77.9789 79.001 79.7729L89.3278 80.7436L89.3293 80.7438C90.5543 80.857 91.7495 81.0515 92.8935 81.3812L92.8956 81.3818C95.2486 82.0541 96.5519 82.9488 97.2967 84.0237C98.0495 85.1103 98.3465 86.5437 98.3342 88.5476L98.2889 95.9154Z" fill="#B94987" stroke="#68254A" stroke-width="2"/>
<path d="M32.7341 95.7852V88.8477C32.7341 88.3164 32.6169 87.9154 32.3826 87.6445C32.1534 87.3685 31.8097 87.1862 31.3513 87.0977C31.2315 87.0612 31.0987 87.0352 30.9529 87.0195C30.807 87.0039 30.6508 86.9961 30.4841 86.9961C30.2654 86.9961 30.005 87.0013 29.7029 87.0117C29.4008 87.0221 29.0909 87.0378 28.7732 87.0586C28.4555 87.0794 28.1586 87.1003 27.8826 87.1211V85.6445C28.3669 85.6081 28.8149 85.582 29.2263 85.5664C29.6378 85.5456 30.0154 85.5352 30.3591 85.5352C31.0414 85.5352 31.5805 85.5638 31.9763 85.6211C32.3722 85.6784 32.7289 85.7799 33.0466 85.9258C33.3695 86.0716 33.6352 86.2487 33.8435 86.457C34.0518 86.6602 34.2185 86.9258 34.3435 87.2539C34.4268 87.4935 34.4841 87.7383 34.5154 87.9883C34.5518 88.2383 34.5701 88.5247 34.5701 88.8477V95.7852H32.7341ZM37.156 95.8477C37.005 95.8477 36.8513 95.832 36.6951 95.8008C36.544 95.7695 36.3826 95.7227 36.2107 95.6602V94.293C36.4555 94.3346 36.7003 94.3555 36.9451 94.3555C37.2888 94.3555 37.5414 94.2513 37.7029 94.043C37.8695 93.8346 37.9529 93.5065 37.9529 93.0586V87.1445C37.7654 87.1549 37.5779 87.168 37.3904 87.1836C37.2081 87.1992 37.0232 87.2122 36.8357 87.2227V85.7539C37.3826 85.7018 37.8956 85.6602 38.3748 85.6289C38.8591 85.5977 39.3123 85.5742 39.7341 85.5586C40.1612 85.543 40.557 85.5352 40.9216 85.5352C41.4112 85.5352 41.8305 85.5534 42.1794 85.5898C42.5336 85.6211 42.8409 85.6758 43.1013 85.7539C43.3617 85.8268 43.5987 85.9232 43.8123 86.043C44.0883 86.194 44.3123 86.3711 44.4841 86.5742C44.6612 86.7721 44.8044 87.0247 44.9138 87.332C44.9815 87.5247 45.031 87.7435 45.0623 87.9883C45.0935 88.2279 45.1091 88.4935 45.1091 88.7852V95.7852H43.2732V88.8477C43.2732 88.306 43.1534 87.8971 42.9138 87.6211C42.6742 87.3451 42.3201 87.1654 41.8513 87.082C41.6222 87.0299 41.3201 87.0039 40.9451 87.0039C40.7732 87.0039 40.5909 87.0065 40.3982 87.0117C40.2055 87.0169 40.0024 87.0247 39.7888 87.0352V93.0586C39.7888 93.3763 39.7654 93.6654 39.7185 93.9258C39.6768 94.1862 39.6013 94.4284 39.4919 94.6523C39.3565 94.944 39.1716 95.181 38.9373 95.3633C38.7237 95.5247 38.4685 95.6471 38.1716 95.7305C37.88 95.8086 37.5414 95.8477 37.156 95.8477ZM47.281 95.7852V94.3242H50.281C50.3331 94.0898 50.3722 93.8555 50.3982 93.6211C50.4242 93.3867 50.4373 93.1523 50.4373 92.918V88.332C50.4373 88.1133 50.4086 87.9154 50.3513 87.7383C50.2992 87.556 50.2185 87.4076 50.1091 87.293C50.0206 87.2096 49.919 87.1445 49.8044 87.0977C49.6899 87.0456 49.557 87.0195 49.406 87.0195C49.2029 87.0195 48.9945 87.0299 48.781 87.0508C48.5727 87.0716 48.3461 87.1029 48.1013 87.1445V85.6523C48.2992 85.6107 48.518 85.582 48.7576 85.5664C49.0024 85.5456 49.268 85.5352 49.5544 85.5352C49.9607 85.5352 50.3018 85.5742 50.5779 85.6523C50.8539 85.7253 51.0857 85.8268 51.2732 85.957C51.4555 86.0872 51.6091 86.2487 51.7341 86.4414C51.8591 86.6341 51.9581 86.8372 52.031 87.0508C52.1091 87.2227 52.169 87.418 52.2107 87.6367C52.2576 87.8503 52.281 88.082 52.281 88.332V92.918C52.281 93.1992 52.2654 93.4961 52.2341 93.8086C52.2081 94.1159 52.1768 94.4102 52.1404 94.6914C52.1039 94.9727 52.0675 95.2018 52.031 95.3789L51.9529 95.7852H47.281ZM58.2185 95.9336C57.4893 95.9336 56.8617 95.7982 56.3357 95.5273C55.9294 95.3242 55.5779 95.0508 55.281 94.707C54.9893 94.3581 54.7498 93.9362 54.5623 93.4414C54.4268 93.0716 54.3227 92.6602 54.2498 92.207C54.1768 91.7487 54.1404 91.2539 54.1404 90.7227C54.1404 90.181 54.1847 89.6888 54.2732 89.2461C54.3617 88.7982 54.4945 88.3997 54.6716 88.0508C54.8487 87.6966 55.0701 87.3919 55.3357 87.1367L55.3591 87.1211L54.2732 87.1758V85.6758C54.7576 85.6445 55.2237 85.6185 55.6716 85.5977C56.1248 85.5768 56.5649 85.5612 56.9919 85.5508C57.419 85.5404 57.8305 85.5352 58.2263 85.5352C58.643 85.5352 59.031 85.582 59.3904 85.6758C59.755 85.7695 60.0857 85.9128 60.3826 86.1055C60.7055 86.2982 60.9893 86.5456 61.2341 86.8477C61.4841 87.1445 61.6899 87.4961 61.8513 87.9023C62.0076 88.2773 62.1248 88.7018 62.2029 89.1758C62.281 89.6445 62.3201 90.1576 62.3201 90.7148C62.3201 91.1732 62.294 91.6029 62.2419 92.0039C62.1899 92.3997 62.1117 92.7669 62.0076 93.1055C61.8357 93.6471 61.6039 94.1159 61.3123 94.5117C61.0206 94.9023 60.6716 95.2122 60.2654 95.4414C59.6873 95.7695 59.005 95.9336 58.2185 95.9336ZM58.2263 94.4414C58.5857 94.4414 58.8982 94.3711 59.1638 94.2305C59.4347 94.0898 59.6534 93.8919 59.8201 93.6367C59.9763 93.4128 60.0987 93.1471 60.1873 92.8398C60.2758 92.5273 60.3383 92.1914 60.3748 91.832C60.4164 91.4674 60.4373 91.0977 60.4373 90.7227C60.4373 89.8737 60.3591 89.194 60.2029 88.6836C60.0518 88.1732 59.8409 87.7852 59.5701 87.5195C59.4086 87.3529 59.2159 87.2253 58.9919 87.1367C58.768 87.0482 58.5258 87.0039 58.2654 87.0039C58.0466 87.0039 57.8513 87.0065 57.6794 87.0117C57.5076 87.0169 57.3357 87.0273 57.1638 87.043C56.7732 87.4753 56.4841 87.9909 56.2966 88.5898C56.1143 89.1888 56.0232 89.8997 56.0232 90.7227C56.0232 91.3997 56.0727 91.9805 56.1716 92.4648C56.2758 92.9492 56.432 93.3398 56.6404 93.6367C56.807 93.8919 57.0232 94.0898 57.2888 94.2305C57.5544 94.3711 57.8669 94.4414 58.2263 94.4414ZM67.8591 95.9414C67.5206 95.9414 67.1847 95.9336 66.8513 95.918C66.5232 95.9076 66.2185 95.8893 65.9373 95.8633C65.6612 95.8424 65.4294 95.819 65.2419 95.793L64.8982 95.7539V94.3086C65.4034 94.3607 65.906 94.4023 66.406 94.4336C66.9112 94.4596 67.4138 94.4727 67.9138 94.4727C68.2367 94.4727 68.5206 94.4206 68.7654 94.3164C69.0154 94.207 69.2211 94.0612 69.3826 93.8789C69.5753 93.6758 69.7237 93.4128 69.8279 93.0898C69.9373 92.7669 70.0102 92.4388 70.0466 92.1055C70.0727 91.8503 70.0909 91.6211 70.1013 91.418C70.1117 91.2148 70.1169 90.9857 70.1169 90.7305C70.1169 90.3346 70.1013 89.9857 70.0701 89.6836C70.0388 89.3815 69.9815 89.0742 69.8982 88.7617C69.8149 88.4388 69.6977 88.1497 69.5466 87.8945C69.3956 87.6393 69.1951 87.4388 68.9451 87.293C68.7992 87.2096 68.643 87.1471 68.4763 87.1055C68.3149 87.0586 68.1404 87.0352 67.9529 87.0352C67.5883 87.0352 67.268 87.0846 66.9919 87.1836C66.7211 87.2773 66.5076 87.3971 66.3513 87.543C66.1482 87.7253 65.9867 87.9544 65.8669 88.2305C65.7472 88.5065 65.6873 88.793 65.6873 89.0898C65.6873 89.4128 65.7393 89.707 65.8435 89.9727C65.9529 90.2383 66.0987 90.4544 66.281 90.6211C66.4268 90.7461 66.5857 90.8477 66.7576 90.9258C66.9347 90.9987 67.1222 91.0404 67.3201 91.0508L67.6794 91.1133L67.3904 92.457L67.0154 92.4336C66.7185 92.4232 66.4399 92.3867 66.1794 92.3242C65.9242 92.2617 65.6847 92.1732 65.4607 92.0586C65.2472 91.944 65.0518 91.8086 64.8748 91.6523C64.6977 91.4909 64.5466 91.3112 64.4216 91.1133C64.2498 90.8529 64.1169 90.5534 64.0232 90.2148C63.9347 89.8763 63.8904 89.5091 63.8904 89.1133C63.8904 88.556 63.9893 88.056 64.1873 87.6133C64.3904 87.1654 64.6534 86.8034 64.9763 86.5273C65.3669 86.1888 65.8175 85.9388 66.3279 85.7773C66.8383 85.6159 67.3669 85.5352 67.9138 85.5352C68.3722 85.5352 68.794 85.5872 69.1794 85.6914C69.5649 85.7904 69.9112 85.9414 70.2185 86.1445C70.4581 86.306 70.6794 86.5065 70.8826 86.7461C71.0909 86.9857 71.268 87.2617 71.4138 87.5742C71.6065 87.9805 71.7524 88.4466 71.8513 88.9727C71.9503 89.4935 71.9998 90.0794 71.9998 90.7305C71.9998 91.4961 71.9347 92.1706 71.8044 92.7539C71.6742 93.3372 71.4945 93.8268 71.2654 94.2227C71.0675 94.5508 70.8253 94.8294 70.5388 95.0586C70.2576 95.2826 69.9607 95.4544 69.6482 95.5742C69.4034 95.694 69.13 95.7852 68.8279 95.8477C68.531 95.9102 68.2081 95.9414 67.8591 95.9414Z" fill="white"/>
<defs>
<linearGradient id="paint0_linear_730_10534" x1="49.3196" y1="13.2632" x2="49.3196" y2="73.2632" gradientUnits="userSpaceOnUse">
<stop stop-color="#E93C83"/>
<stop offset="1" stop-color="#892E60"/>
</linearGradient>
<clipPath id="clip0_730_10534">
<rect width="75" height="24" fill="white" transform="translate(12.1963 35.6536)"/>
</clipPath>
</defs>
</svg>
