<svg width="100" height="105" viewBox="0 0 100 105" fill="none" xmlns="http://www.w3.org/2000/svg">
<path d="M49.35 97.4821C28.8033 97.4821 10.3678 84.4285 3.49911 65.0118C1.62583 59.719 0.674316 54.2775 0.674316 48.8064C0.674316 43.3352 1.56636 38.2208 3.3207 33.0767L3.46938 32.6604C10.3381 13.2734 28.7736 0.1604 49.35 0.1604C54.7023 0.1604 60.0248 1.08218 65.1986 2.86626C68.8857 4.14485 72.4836 5.8992 75.8436 8.06983C89.7297 17.1092 97.996 32.3333 97.996 48.8064C97.996 50.3228 97.9068 51.8988 97.7581 53.5639C95.3198 78.6005 74.5056 97.4821 49.3203 97.4821H49.35Z" fill="#68254A"/>
<path d="M49.3499 94.9545C29.8737 94.9545 12.3897 82.5849 5.87778 64.1791C4.0937 59.1539 3.20166 53.9801 3.20166 48.8063C3.20166 43.6324 4.03423 38.7857 5.69937 33.9092L5.81831 33.5821C12.3599 15.0871 29.8439 2.68774 49.3499 2.68774C54.4345 2.68774 59.4894 3.55005 64.3957 5.24493C67.9044 6.46405 71.2941 8.12919 74.4757 10.1809C87.6185 18.7445 95.4981 33.1658 95.4981 48.8063C95.4981 50.2633 95.4089 51.75 95.2603 53.2962C92.9707 77.0245 73.2269 94.9248 49.3499 94.9248V94.9545Z" fill="#B94987"/>
<path d="M73.1073 12.322C70.1636 10.3893 66.9523 8.81333 63.5922 7.65368C59.132 6.10748 54.3745 5.24517 49.3791 5.24517C30.3488 5.21544 14.2326 17.4067 8.25596 34.3852C8.22623 34.5041 8.16676 34.6231 8.10729 34.742C6.59082 39.1725 5.72852 43.9003 5.72852 48.8362C5.72852 53.7722 6.65029 58.7974 8.25596 63.3468C14.2326 80.2658 30.3488 92.4273 49.3196 92.4273C71.9774 92.4273 90.5616 75.1514 92.7025 53.0883C92.8512 51.6908 92.9106 50.2635 92.9106 48.8362C92.9106 33.5229 85.0012 20.0828 73.0479 12.322H73.1073Z" fill="url(#paint0_linear_737_10974)"/>
<path d="M49.4977 95.3191C73.5225 95.3191 93.2279 77.001 95.498 53.6067C59.7129 97.936 23.455 78.7666 5.95654 64.4841C12.2938 82.4239 29.3824 95.3191 49.4977 95.3191Z" fill="#70264F" fill-opacity="0.6"/>
<path opacity="0.7" d="M74.2673 10.2547C71.155 8.21125 67.7597 6.54504 64.2073 5.31897C59.4916 3.68421 54.4616 2.77252 49.18 2.77252C29.0599 2.74108 12.0206 15.6305 5.70166 33.5815C17.7109 21.195 40.346 5.19322 74.2359 10.2547H74.2673Z" fill="#CD76A6" fill-opacity="0.5"/>
<path d="M33.0227 13.0091C31.2462 12.3486 27.6022 14.1706 27.3517 15.446C27.0328 17.1086 29.3559 17.0858 31.975 16.0837C34.0475 15.2866 34.1842 13.4418 33.0227 13.0091Z" fill="#E7F5F9"/>
<path d="M23.8212 17.3138C22.5002 17.2682 21.407 18.1792 21.5209 19.0675C21.6803 20.2518 22.9329 20.2062 23.9806 19.3863C25.2104 18.4298 24.6866 17.3366 23.8212 17.291V17.3138Z" fill="#E7F5F9"/>
<path d="M98.2889 95.9154C98.2635 100.063 94.9437 103.409 90.8476 103.479L90.6957 103.473L86.3368 103.298C86.3366 103.298 86.3365 103.298 86.3363 103.298C60.7459 102.256 35.1188 102.154 9.51736 102.974C5.34833 102.939 1.98402 99.5176 2.00983 95.3163L2.05508 87.9484C2.06717 85.9794 2.43461 84.566 3.24128 83.4929C4.04897 82.4185 5.40547 81.5416 7.69669 80.8778C8.84102 80.5487 10.0274 80.3619 11.2518 80.2561C12.2259 80.1777 13.6348 80.0625 15.3452 79.9226C17.1239 79.7771 19.2287 79.605 21.5098 79.4198L21.5101 79.4198C40.6478 77.8607 59.8839 77.9789 79.001 79.7729L89.3278 80.7436L89.3293 80.7438C90.5543 80.857 91.7495 81.0515 92.8935 81.3812L92.8956 81.3818C95.2486 82.0541 96.5519 82.9488 97.2967 84.0237C98.0495 85.1103 98.3465 86.5437 98.3342 88.5476L98.2889 95.9154Z" fill="#B94987" stroke="#68254A" stroke-width="2"/>
<path d="M31.2888 95.7852V88.8477C31.2888 88.3268 31.1794 87.9336 30.9607 87.668C30.7419 87.3971 30.4138 87.2174 29.9763 87.1289C29.8513 87.0872 29.6951 87.056 29.5076 87.0352C29.3253 87.0091 29.1169 86.9961 28.8826 86.9961C28.5024 86.9961 28.0362 87.0143 27.4841 87.0508C26.932 87.0872 26.2445 87.1445 25.4216 87.2227V85.7539C25.682 85.7174 25.9399 85.6888 26.1951 85.668C26.4503 85.6471 26.7029 85.6289 26.9529 85.6133C27.3539 85.5872 27.7289 85.569 28.0779 85.5586C28.432 85.543 28.7576 85.5352 29.0544 85.5352C29.6534 85.5352 30.1508 85.5664 30.5466 85.6289C30.9425 85.6862 31.2992 85.7852 31.6169 85.9258C31.9347 86.0716 32.1977 86.2487 32.406 86.457C32.6195 86.6654 32.7862 86.931 32.906 87.2539C32.9893 87.4935 33.0492 87.7383 33.0857 87.9883C33.1222 88.2383 33.1404 88.5247 33.1404 88.8477V95.7852H31.2888ZM25.4216 95.7852V89.6445H27.2576V95.7852H25.4216ZM39.5857 95.7852V88.8477C39.5857 88.3164 39.4685 87.9154 39.2341 87.6445C39.005 87.3685 38.6612 87.1862 38.2029 87.0977C38.0831 87.0612 37.9503 87.0352 37.8044 87.0195C37.6586 87.0039 37.5024 86.9961 37.3357 86.9961C37.1169 86.9961 36.8565 87.0013 36.5544 87.0117C36.2524 87.0221 35.9425 87.0378 35.6248 87.0586C35.307 87.0794 35.0102 87.1003 34.7341 87.1211V85.6445C35.2185 85.6081 35.6664 85.582 36.0779 85.5664C36.4893 85.5456 36.8669 85.5352 37.2107 85.5352C37.893 85.5352 38.432 85.5638 38.8279 85.6211C39.2237 85.6784 39.5805 85.7799 39.8982 85.9258C40.2211 86.0716 40.4867 86.2487 40.6951 86.457C40.9034 86.6602 41.0701 86.9258 41.1951 87.2539C41.2784 87.4935 41.3357 87.7383 41.3669 87.9883C41.4034 88.2383 41.4216 88.5247 41.4216 88.8477V95.7852H39.5857ZM43.281 95.7852V94.3242H47.8904L48.9138 94.3633L46.6873 91.2305L43.1873 85.6914H45.2029L47.7263 89.832L48.1638 90.5117C48.4763 90.1576 48.7237 89.7591 48.906 89.3164C49.0935 88.8685 49.2133 88.3737 49.2654 87.832L49.4607 85.6914H51.2419L51.0544 87.6914C51.0336 87.9258 51.005 88.1445 50.9685 88.3477C50.9373 88.5508 50.8982 88.7461 50.8513 88.9336C50.8097 89.1159 50.755 89.2956 50.6873 89.4727C50.6195 89.6758 50.5362 89.8737 50.4373 90.0664C50.3435 90.2591 50.2341 90.4544 50.1091 90.6523C49.9737 90.8763 49.8227 91.0898 49.656 91.293C49.4893 91.4961 49.3097 91.6862 49.1169 91.8633L51.1873 94.7148V95.7852H43.281ZM53.3748 95.7852V85.6914H55.2107V95.7852H53.3748ZM57.1873 95.7852V94.3242H61.7966L62.8201 94.3633L60.5935 91.2305L57.0935 85.6914H59.1091L61.6326 89.832L62.0701 90.5117C62.3826 90.1576 62.63 89.7591 62.8123 89.3164C62.9998 88.8685 63.1195 88.3737 63.1716 87.832L63.3669 85.6914H65.1482L64.9607 87.6914C64.9399 87.9258 64.9112 88.1445 64.8748 88.3477C64.8435 88.5508 64.8044 88.7461 64.7576 88.9336C64.7159 89.1159 64.6612 89.2956 64.5935 89.4727C64.5258 89.6758 64.4425 89.8737 64.3435 90.0664C64.2498 90.2591 64.1404 90.4544 64.0154 90.6523C63.88 90.8763 63.7289 91.0898 63.5623 91.293C63.3956 91.4961 63.2159 91.6862 63.0232 91.8633L65.0935 94.7148V95.7852H57.1873ZM67.281 95.7852V85.7539C67.3956 85.7331 67.5388 85.7148 67.7107 85.6992C67.8826 85.6836 68.0857 85.6654 68.3201 85.6445C68.7888 85.6081 69.2367 85.582 69.6638 85.5664C70.0961 85.5456 70.5076 85.5352 70.8982 85.5352C71.5076 85.5352 72.0102 85.5638 72.406 85.6211C72.8018 85.6784 73.1586 85.7773 73.4763 85.918C73.794 86.0586 74.057 86.2305 74.2654 86.4336C74.4789 86.6367 74.6456 86.9023 74.7654 87.2305C74.8487 87.4648 74.9086 87.7096 74.9451 87.9648C74.9815 88.2201 74.9998 88.5143 74.9998 88.8477V95.7852H73.1482V88.8477C73.1482 88.2956 73.0258 87.8815 72.781 87.6055C72.5414 87.3242 72.182 87.1445 71.7029 87.0664C71.5883 87.0456 71.4503 87.0299 71.2888 87.0195C71.1326 87.0039 70.9529 86.9961 70.7498 86.9961C70.5414 86.9961 70.3018 87.0039 70.031 87.0195C69.7602 87.0299 69.4555 87.0482 69.1169 87.0742V95.7852H67.281Z" fill="white"/>
<g clip-path="url(#clip0_737_10974)">
<path d="M72.9999 67.3999C72.5999 67.1999 72.2999 66.6999 72.0999 66.3999L72.1999 66.2999C72.3999 66.0999 72.2999 65.6999 71.9999 65.5999L71.6999 65.3999C71.4999 65.1999 71.0999 65.2999 70.9999 65.5999L70.7999 65.8999L70.4999 65.6999L66.0999 62.9999C66.0999 62.0999 66.0999 61.0999 65.7999 60.3999C65.3999 59.0999 64.4999 57.7999 62.5999 56.0999L63.4999 54.5999C63.4999 54.5999 65.7999 54.4999 65.8999 54.4999L66.3999 53.8999C66.3999 53.8999 66.5999 52.6999 64.8999 51.6999C62.8999 50.3999 62.2999 51.3999 62.2999 51.3999L62.1999 51.9999L62.8999 54.0999L61.9999 55.3999C60.9999 54.5999 59.7999 53.6999 58.2999 52.7999C58.2999 52.7999 58.1999 52.7999 58.1999 52.6999L58.9999 51.4999C58.9999 51.4999 61.2999 51.3999 61.3999 51.3999L61.8999 50.7999C61.8999 50.7999 62.0999 49.5999 60.3999 48.5999C58.3999 47.2999 57.7999 48.2999 57.7999 48.2999L57.4999 48.8999L58.1999 50.9999L57.4999 52.0999C56.4999 51.3999 55.2999 50.5999 54.0999 49.7999L54.6999 48.7999C54.6999 48.7999 56.9999 48.6999 57.0999 48.6999L57.5999 48.0999C57.5999 48.0999 57.7999 46.8999 56.0999 45.8999C54.0999 44.5999 53.4999 45.5999 53.4999 45.5999L53.1999 46.1999L53.8999 48.3999L53.2999 49.2999C48.6999 45.9999 43.5999 42.0999 42.1999 40.7999C39.4999 38.0999 38.2999 36.3999 38.7999 34.2999C39.8999 29.2999 39.2999 26.6999 38.4999 25.9999C37.0999 24.5999 33.2999 26.2999 28.0999 33.9999C21.8999 43.1999 19.7999 48.8999 22.6999 50.0999C24.9999 51.0999 26.8999 49.1999 29.2999 47.2999C31.4999 45.4999 34.3999 45.1999 37.0999 45.6999C42.3999 46.5999 46.8999 48.3999 51.3999 51.2999C51.4999 51.3999 51.6999 51.4999 51.7999 51.5999L50.5999 53.3999L43.3999 48.8999C43.3999 48.8999 38.6999 45.7999 35.0999 50.2999C31.8999 54.2999 33.2999 57.3999 35.6999 59.4999C38.0999 61.5999 55.5999 72.7999 57.2999 73.0999C60.7999 73.6999 63.1999 71.3999 64.2999 69.2999C64.8999 68.0999 65.1999 66.7999 65.2999 65.8999C65.2999 65.8999 65.4999 65.1999 65.5999 64.1999C67.4999 65.3999 68.9999 66.2999 69.6999 66.6999L69.4999 66.8999C69.2999 67.0999 69.3999 67.4999 69.6999 67.5999L69.9999 67.7999C70.1999 67.9999 70.5999 67.8999 70.6999 67.5999V67.4999C70.9999 67.4999 71.3999 67.4999 71.8999 67.7999C72.5999 68.1999 72.8999 68.6999 72.8999 68.6999L73.7999 67.2999C74.2999 67.7999 73.3999 67.6999 72.9999 67.3999ZM64.0999 61.6999L63.8999 61.5999L60.4999 59.4999L61.2999 58.1999L61.4999 57.9999C62.4999 58.6999 63.1999 59.2999 63.5999 59.7999C64.2999 60.5999 64.5999 61.4999 64.7999 62.1999L64.0999 61.6999ZM56.7999 55.2999L57.0999 54.8999C58.4999 55.7999 59.7999 56.6999 60.8999 57.3999L59.8999 58.9999L55.9999 56.5999L56.7999 55.2999ZM52.5999 52.7999L52.8999 52.2999C53.9999 52.9999 55.1999 53.7999 56.3999 54.4999L55.2999 56.2999L51.7999 54.0999L52.5999 52.7999ZM64.5999 64.5999C64.5999 64.5999 64.3999 67.6999 63.2999 69.0999C62.1999 70.4999 60.4999 72.0999 58.1999 71.1999C55.8999 70.3999 40.7999 60.5999 38.6999 58.9999C35.0999 56.2999 35.8999 53.9999 36.8999 52.2999C37.8999 50.5999 39.9999 49.6999 42.3999 50.5999C44.0999 51.1999 57.0999 59.0999 64.7999 63.7999C64.6999 64.2999 64.5999 64.5999 64.5999 64.5999Z" fill="black"/>
</g>
<path d="M71.3448 63.2325L43.8433 46.1533C43.8433 46.1533 39.1137 43.0233 35.495 47.5445C32.3033 51.5332 33.7176 54.6936 36.1282 56.754C38.5388 58.8145 56.0257 70.0874 57.7559 70.3865C61.3011 70.9979 63.7028 68.7015 64.7516 66.5758C65.8012 64.4506 65.8261 62.067 65.8261 62.067L64.5977 61.6481C64.5977 61.6481 64.3546 64.768 63.2672 66.1432C62.1792 67.5193 60.4422 69.1004 58.1756 68.272C55.9091 67.4436 40.8401 57.6377 38.6798 56.0038C35.1197 53.3117 35.8752 50.9985 36.8827 49.2607C37.8903 47.5229 39.9806 46.6856 42.3946 47.6082C44.8086 48.5308 70.5656 64.2879 70.5656 64.2879L71.3448 63.2325Z" fill="#FCA61B"/>
<path d="M65.7289 63.2115C65.7289 63.2115 66.5886 59.3843 65.8868 57.3563C65.1957 55.3605 63.5084 53.1414 58.4372 49.8959C53.3663 46.6516 44.4129 39.8884 42.5803 38.0924C39.843 35.409 38.7185 33.6792 39.1899 31.5729C40.3068 26.5899 39.6939 23.9963 38.9366 23.228C37.5546 21.8259 33.7277 23.522 28.51 31.2657C22.3174 40.4587 20.2218 46.1608 23.1499 47.413C25.4191 48.383 27.3215 46.5599 29.7285 44.5784C31.9145 42.7796 34.82 42.4497 37.5157 42.9314C42.8133 43.8787 47.2722 45.6522 51.8293 48.5681C56.4147 51.5027 62.2225 55.0764 63.6003 56.7217C65.6555 59.1758 64.5996 61.6473 64.5996 61.6473L65.7302 63.2111L65.7289 63.2115Z" fill="#FCA61B"/>
<path d="M71.9921 62.6123L71.7166 62.436C71.4735 62.2805 71.1489 62.3518 70.9933 62.5948L69.9355 64.2481C69.7799 64.4911 69.8512 64.8157 70.0943 64.9713L70.3698 65.1476C70.6129 65.3031 70.9375 65.2319 71.093 64.9888L72.1509 63.3355C72.3064 63.0925 72.2352 62.7679 71.9921 62.6123Z" fill="#FCA61B"/>
<path d="M70.664 64.9078C70.9456 64.9375 71.559 64.7922 72.387 65.2288C73.0702 65.5891 73.3979 66.1051 73.3979 66.1051L74.3139 64.752C74.3139 64.752 73.4173 64.6679 72.9645 64.4445C72.3211 64.128 71.8975 63.1663 71.8975 63.1663L70.664 64.9078Z" fill="#FCA61B"/>
<path d="M63.1563 50.8738L63.8174 51.2969L59.8671 57.4703L59.206 57.0473L63.1563 50.8738Z" fill="#FCA61B"/>
<path d="M38.782 25.2821C38.9185 26.1523 36.8134 33.8275 33.3209 38.3089C29.8463 42.767 25.2567 47.3903 23.4922 46.2619C22.1411 45.397 24.7274 38.3649 28.1669 33.2497C34.5475 23.7626 38.3073 22.259 38.7812 25.2816L38.782 25.2821Z" fill="#D88A19"/>
<path d="M29.6329 40.1716C30.5347 37.563 31.5323 35.638 33.6692 33.2717C34.4975 32.3546 35.8004 31.2694 37.1259 31.2002C36.1846 33.6989 34.7686 36.5104 33.1088 38.6404C31.805 40.314 30.2649 41.9658 28.8549 43.3725C28.9877 42.3151 29.3022 41.1317 29.6337 40.1721L29.6329 40.1716Z" fill="#B77116"/>
<path d="M66.0995 51.5192C66.0103 51.4968 63.6722 51.5885 63.6722 51.5885L62.955 51.1988L62.2287 49.0424L62.5402 48.4472C62.5402 48.4472 63.1178 47.4359 65.127 48.7213C66.769 49.7723 66.6042 50.9447 66.6042 50.9447L66.0987 51.5187L66.0995 51.5192Z" fill="#FCA61B"/>
<path d="M66.6044 50.9451C66.3049 51.3061 65.1127 51.1679 64.1832 50.466C62.391 49.1118 62.5403 48.4475 62.5403 48.4475L62.2289 49.0428C62.2289 49.0428 62.6841 50.0586 63.9505 50.9385C64.6677 51.4369 66.0997 51.5195 66.0997 51.5195L66.6052 50.9456L66.6044 50.9451Z" fill="#D88A19"/>
<path d="M58.6392 47.95L59.3003 48.373L55.35 54.5465L54.6889 54.1235L58.6392 47.95Z" fill="#FCA61B"/>
<path d="M61.5824 48.5954C61.4933 48.573 59.1551 48.6647 59.1551 48.6647L58.4379 48.2749L57.7116 46.1186L58.0231 45.5234C58.0231 45.5234 58.6007 44.5121 60.6099 45.7975C62.2519 46.8484 62.0872 48.0209 62.0872 48.0209L61.5816 48.5949L61.5824 48.5954Z" fill="#FCA61B"/>
<path d="M62.0878 48.0203C61.7883 48.3812 60.5961 48.2431 59.6666 47.5412C57.8744 46.187 58.0237 45.5227 58.0237 45.5227L57.7123 46.118C57.7123 46.118 58.1675 47.1338 59.4339 48.0137C60.1511 48.5121 61.5831 48.5947 61.5831 48.5947L62.0886 48.0208L62.0878 48.0203Z" fill="#D88A19"/>
<path d="M54.4365 45.399L55.0977 45.822L51.1474 51.9955L50.4862 51.5724L54.4365 45.399Z" fill="#FCA61B"/>
<path d="M57.3798 46.0434C57.2906 46.021 54.9524 46.1127 54.9524 46.1127L54.2353 45.7229L53.509 43.5666L53.8204 42.9714C53.8204 42.9714 54.3981 41.96 56.4072 43.2455C58.0493 44.2964 57.8845 45.4689 57.8845 45.4689L57.379 46.0429L57.3798 46.0434Z" fill="#FCA61B"/>
<path d="M57.8856 45.4693C57.5854 45.8297 56.3939 45.692 55.4644 44.9901C53.6722 43.636 53.8216 42.9717 53.8216 42.9717L53.5101 43.567C53.5101 43.567 53.9654 44.5828 55.2318 45.4626C55.949 45.961 57.3809 46.0437 57.3809 46.0437L57.8865 45.4697L57.8856 45.4693Z" fill="#D88A19"/>
<path d="M61.5402 54.9203L60.8697 54.4576L60.3931 55.257L61.1936 55.355L61.5402 54.9203Z" fill="#D88A19"/>
<path d="M57.087 51.8976L56.4103 51.4999L55.9245 52.2591L56.7806 52.323L57.087 51.8976Z" fill="#D88A19"/>
<path d="M52.9228 49.234L52.2612 48.8102L51.7214 49.7076L52.618 49.7635L52.9228 49.234Z" fill="#D88A19"/>
<path d="M64.8292 60.793L64.7911 59.1758L63.9099 58.6117L63.6877 60.1007L64.8292 60.793Z" fill="#D88A19"/>
<path d="M70.8015 62.8947L70.0951 63.9987L69.4058 63.5795L70.5082 62.7127L70.8015 62.8947Z" fill="#D88A19"/>
<path opacity="0.4" d="M64.1514 55.2109C64.1514 55.2109 63.2788 54.128 62.4593 53.403C60.3429 51.5305 52.6892 46.7366 49.9406 44.7193C47.1921 42.702 44.5283 41.0239 43.2777 39.8338C41.2816 37.9355 40.3711 36.5242 40.3711 36.5242L39.9584 38.3831C39.9584 38.3831 40.3608 39.2107 44.2224 41.8364C48.0835 44.4629 58.9978 51.446 58.9978 51.446C61.7536 53.209 63.8059 55.5071 63.8059 55.5071L64.1511 55.2096L64.1514 55.2109Z" fill="#F9E130"/>
<path opacity="0.4" d="M70.4954 64.398C70.4171 64.52 70.4526 64.6818 70.575 64.7593C70.6969 64.8376 70.8587 64.8021 70.9362 64.6797L71.9 63.1729C71.9783 63.051 71.9428 62.8892 71.8204 62.8117C71.6985 62.7334 71.5367 62.7689 71.4592 62.8913L70.4954 64.398Z" fill="#F9E130"/>
<path opacity="0.4" d="M39.079 27.6175C39.079 27.6175 37.946 32.3304 36.4542 34.7947C32.8153 40.8048 28.627 44.5992 28.627 44.5992C28.627 44.5992 32.9303 41.7592 34.3721 40.5579C35.814 39.3565 37.538 36.4206 37.9844 34.4269C38.4315 32.4337 39.079 27.6175 39.079 27.6175Z" fill="#F9E130"/>
<path opacity="0.4" d="M38.4998 57.0041L56.7678 68.8376L55.947 67.6184L37.5719 55.7653L38.4998 57.0041Z" fill="#F9E130"/>
<defs>
<linearGradient id="paint0_linear_737_10974" x1="49.3196" y1="13.2632" x2="49.3196" y2="73.2632" gradientUnits="userSpaceOnUse">
<stop stop-color="#E93C83"/>
<stop offset="1" stop-color="#892E60"/>
</linearGradient>
<clipPath id="clip0_737_10974">
<rect width="66" height="57" fill="white" transform="translate(18 23)"/>
</clipPath>
</defs>
</svg>
