<svg width="100" height="105" viewBox="0 0 100 105" fill="none" xmlns="http://www.w3.org/2000/svg">
<path d="M49.35 97.4821C28.8033 97.4821 10.3678 84.4285 3.49911 65.0118C1.62583 59.719 0.674316 54.2775 0.674316 48.8064C0.674316 43.3352 1.56636 38.2208 3.3207 33.0767L3.46938 32.6604C10.3381 13.2734 28.7736 0.1604 49.35 0.1604C54.7023 0.1604 60.0248 1.08218 65.1986 2.86626C68.8857 4.14485 72.4836 5.8992 75.8436 8.06983C89.7297 17.1092 97.996 32.3333 97.996 48.8064C97.996 50.3228 97.9068 51.8988 97.7581 53.5639C95.3198 78.6005 74.5056 97.4821 49.3203 97.4821H49.35Z" fill="#68254A"/>
<path d="M49.3499 94.9545C29.8737 94.9545 12.3897 82.5849 5.87778 64.1791C4.0937 59.1539 3.20166 53.9801 3.20166 48.8063C3.20166 43.6324 4.03423 38.7857 5.69937 33.9092L5.81831 33.5821C12.3599 15.0871 29.8439 2.68774 49.3499 2.68774C54.4345 2.68774 59.4894 3.55005 64.3957 5.24493C67.9044 6.46405 71.2941 8.12919 74.4757 10.1809C87.6185 18.7445 95.4981 33.1658 95.4981 48.8063C95.4981 50.2633 95.4089 51.75 95.2603 53.2962C92.9707 77.0245 73.2269 94.9248 49.3499 94.9248V94.9545Z" fill="#B94987"/>
<path d="M73.1073 12.322C70.1636 10.3893 66.9523 8.81333 63.5922 7.65368C59.132 6.10748 54.3745 5.24517 49.3791 5.24517C30.3488 5.21544 14.2326 17.4067 8.25596 34.3852C8.22623 34.5041 8.16676 34.6231 8.10729 34.742C6.59082 39.1725 5.72852 43.9003 5.72852 48.8362C5.72852 53.7722 6.65029 58.7974 8.25596 63.3468C14.2326 80.2658 30.3488 92.4273 49.3196 92.4273C71.9774 92.4273 90.5616 75.1514 92.7025 53.0883C92.8512 51.6908 92.9106 50.2635 92.9106 48.8362C92.9106 33.5229 85.0012 20.0828 73.0479 12.322H73.1073Z" fill="url(#paint0_linear_737_10730)"/>
<path d="M49.4977 95.3191C73.5225 95.3191 93.2279 77.001 95.498 53.6067C59.7129 97.936 23.455 78.7666 5.95654 64.4841C12.2938 82.4239 29.3824 95.3191 49.4977 95.3191Z" fill="#70264F" fill-opacity="0.6"/>
<path opacity="0.7" d="M74.2673 10.2547C71.155 8.21125 67.7597 6.54504 64.2073 5.31897C59.4916 3.68421 54.4616 2.77252 49.18 2.77252C29.0599 2.74108 12.0206 15.6305 5.70166 33.5815C17.7109 21.195 40.346 5.19322 74.2359 10.2547H74.2673Z" fill="#CD76A6" fill-opacity="0.5"/>
<path d="M33.0227 13.0091C31.2462 12.3486 27.6022 14.1706 27.3517 15.446C27.0328 17.1086 29.3559 17.0858 31.975 16.0837C34.0475 15.2866 34.1842 13.4418 33.0227 13.0091Z" fill="#E7F5F9"/>
<path d="M23.8212 17.3138C22.5002 17.2682 21.407 18.1792 21.5209 19.0675C21.6803 20.2518 22.9329 20.2062 23.9806 19.3863C25.2104 18.4298 24.6866 17.3366 23.8212 17.291V17.3138Z" fill="#E7F5F9"/>
<path d="M98.2889 95.9154C98.2635 100.063 94.9437 103.409 90.8476 103.479L90.6957 103.473L86.3368 103.298C86.3366 103.298 86.3365 103.298 86.3363 103.298C60.7459 102.256 35.1188 102.154 9.51736 102.974C5.34833 102.939 1.98402 99.5176 2.00983 95.3163L2.05508 87.9484C2.06717 85.9794 2.43461 84.566 3.24128 83.4929C4.04897 82.4185 5.40547 81.5416 7.69669 80.8778C8.84102 80.5487 10.0274 80.3619 11.2518 80.2561C12.2259 80.1777 13.6348 80.0625 15.3452 79.9226C17.1239 79.7771 19.2287 79.605 21.5098 79.4198L21.5101 79.4198C40.6478 77.8607 59.8839 77.9789 79.001 79.7729L89.3278 80.7436L89.3293 80.7438C90.5543 80.857 91.7495 81.0515 92.8935 81.3812L92.8956 81.3818C95.2486 82.0541 96.5519 82.9488 97.2967 84.0237C98.0495 85.1103 98.3465 86.5437 98.3342 88.5476L98.2889 95.9154Z" fill="#B94987" stroke="#68254A" stroke-width="2"/>
<g clip-path="url(#clip0_737_10730)">
<path d="M75.7515 52.1395L74.2515 52.1395L74.1515 34.8396L76.1515 34.3396C76.6515 34.2396 76.9515 33.7396 76.8515 33.3396L76.7515 32.9396C76.6515 32.4396 76.1515 32.2396 75.6515 32.3396L74.1515 32.7396L74.1515 28.2396C74.1515 28.1396 74.1515 28.0396 74.0515 27.9396C74.0515 27.8396 74.0515 27.8396 73.9515 27.8396C73.9515 27.8396 73.9515 27.7396 73.8515 27.7396L73.7515 27.6396L73.6515 27.5396C73.6515 27.5396 73.5515 27.5396 73.5515 27.4396C73.4515 27.4396 73.3515 27.3396 73.2515 27.3396L69.1515 27.3396C68.6515 27.3396 68.3515 27.7396 68.3515 28.2396L68.3515 34.0396L66.6515 34.4396L66.6515 29.9396C66.6515 29.8396 66.6515 29.7396 66.5515 29.6396C66.5515 29.5396 66.4515 29.5396 66.4515 29.5396C66.4515 29.5396 66.4515 29.4396 66.3515 29.4396L66.2515 29.3396L66.1515 29.2396C66.1515 29.2396 66.0515 29.2396 66.0515 29.1396C65.9515 29.1396 65.8515 29.1396 65.7515 29.1396L61.6515 29.1396C61.1515 29.1396 60.8515 29.5396 60.8515 29.9396L60.8515 35.7396L58.4515 36.3396L58.4515 32.8396C58.4515 32.7396 58.4515 32.6396 58.3515 32.6396C58.3515 32.6396 58.3515 32.5396 58.2515 32.5396C58.2515 32.5396 58.2515 32.4396 58.1515 32.4396L58.0515 32.3396C58.0515 32.3396 57.9515 32.3396 57.9515 32.2396C57.9515 32.2396 57.8515 32.2396 57.8515 32.1396C57.7515 32.1396 57.7515 32.1396 57.6515 32.1396C57.6515 32.1396 57.6515 32.1396 57.5515 32.1396L53.4515 32.1396C53.3515 32.1396 53.2515 32.1396 53.1515 32.2396C52.8515 32.3396 52.6515 32.6396 52.6515 32.9396L52.6515 37.7396L50.7515 38.1396L50.7515 35.2396C50.7515 35.1396 50.7515 35.1396 50.6515 35.0396C50.6515 35.0396 50.6515 34.9396 50.5515 34.9396C50.5515 34.9396 50.5515 34.8396 50.4515 34.8396L50.3515 34.7396L50.2515 34.6396L50.1515 34.6396C50.0515 34.6396 49.9515 34.6396 49.8515 34.6396L45.7515 34.6396C45.2515 34.6396 44.9515 34.9396 44.9515 35.3396L44.9515 39.5396L42.9515 40.0396L42.9515 37.2396C42.9515 37.1396 42.9515 37.1396 42.8515 37.0396L42.7515 36.9396C42.7515 36.9396 42.7515 36.9396 42.6515 36.8396L42.5515 36.7396C42.5515 36.7396 42.4515 36.7396 42.4515 36.6396L42.3515 36.6396C42.2515 36.6396 42.1515 36.6396 42.0515 36.6396L41.3515 36.6396L55.9515 18.7396L55.0515 18.0396L39.9515 36.5396L38.0515 36.5396C37.5515 36.5396 37.2515 36.8396 37.2515 37.1396L37.2515 39.9396L35.9515 41.5396L35.3515 41.7396L35.3515 39.6396C35.3515 39.5396 35.3515 39.5396 35.2515 39.4396C35.2515 39.4396 35.2515 39.3396 35.1515 39.3396C35.1515 39.3396 35.1515 39.3396 35.0515 39.2396C35.0515 39.2396 34.9515 39.2396 34.9515 39.1396C34.9515 39.1396 34.8515 39.1396 34.8515 39.0396L34.7515 39.0396C34.6515 39.0396 34.5515 39.0396 34.4515 39.0396L30.3515 39.0396C29.8515 39.0396 29.5515 39.2396 29.5515 39.5396L29.5515 42.9396L27.8515 43.3396L27.8515 41.6396C27.8515 41.5396 27.8515 41.5396 27.7515 41.4396C27.7515 41.4396 27.7515 41.3396 27.6515 41.3396C27.6515 41.3396 27.6515 41.3396 27.5515 41.2396C27.5515 41.2396 27.4515 41.2396 27.4515 41.1396C27.4515 41.1396 27.3515 41.1396 27.3515 41.0396L27.2515 41.0396C27.1515 41.0396 27.0515 41.0396 26.9515 41.0396L22.8515 41.0396C22.3515 41.0396 22.0515 41.2396 22.0515 41.5396L22.0515 44.5396L20.3515 45.2396C19.8515 45.3396 19.5515 45.8396 19.6515 46.2396L19.7515 46.6396C19.8515 47.1396 20.3515 47.3396 20.8515 47.2396L22.0515 46.9396L22.0515 52.5396L20.5515 52.5396C20.0515 52.5396 19.6515 52.9396 19.6515 53.4396L19.6515 53.8396C19.6515 54.3396 20.0515 54.6395 20.5515 54.6395L22.0515 54.6395L22.0515 58.0396C22.0515 58.2396 22.2515 58.4396 22.5515 58.4396C22.6515 58.4396 22.7515 58.4396 22.8515 58.4396L26.9515 58.4396C27.4515 58.4396 27.7515 58.2396 27.7515 57.9396L27.7515 54.5396L29.5515 54.5396L29.5515 57.8396C29.5515 58.1396 29.9515 58.3396 30.3515 58.3396L30.8515 58.3396L34.4515 58.3396C34.9515 58.3396 35.2515 58.1396 35.2515 57.8396L35.2515 54.5396L37.1515 54.5396L37.1515 57.7396C37.1515 58.0396 37.5515 58.3396 37.9515 58.3396L42.0515 58.3396C42.5515 58.3396 42.8515 58.0396 42.8515 57.7396L42.8515 54.5396L44.8515 54.5396L44.8515 57.6395C44.8515 57.9395 45.0515 58.1396 45.3515 58.2396C45.4515 58.2396 45.5515 58.3396 45.6515 58.2396L49.7515 58.2396C50.2515 58.2396 50.5515 57.9396 50.5515 57.5396L50.5515 54.4396L52.4515 54.4396L52.4515 57.3396C52.4515 57.7396 52.8515 58.0396 53.2515 58.0396L53.7515 58.0396L57.3515 58.0396L57.4515 58.0396L72.4515 73.6395L73.2515 72.8396L58.2515 57.2396L58.2515 54.4396L60.6515 54.4396L60.6515 57.2396C60.6515 57.6396 61.0515 58.0396 61.4515 58.0396L61.9515 58.0396L65.5515 58.0396C66.0515 58.0396 66.3515 57.6396 66.3515 57.2396L66.3515 54.4396L68.1515 54.4396L68.1515 57.1395C68.1515 57.6395 68.5515 57.9396 69.0515 57.9396L73.1515 57.9396C73.6515 57.9396 73.9515 57.5396 73.9515 57.0396L73.9515 54.3396L75.4515 54.3396C75.9515 54.3396 76.3515 53.9396 76.3515 53.4396L76.3515 53.0396C76.6515 52.5396 76.2515 52.1395 75.7515 52.1395ZM27.9515 52.5396L27.8515 45.6396L29.5515 45.2396L29.5515 46.3396C29.5515 46.5396 29.5515 46.8396 29.5515 47.0396L29.5515 52.5396L27.9515 52.5396ZM35.4515 52.4396L35.4515 47.5396C35.6515 46.8396 35.6515 46.1396 35.4515 45.5396L35.4515 44.0396L35.6515 43.8396L37.3515 43.4396L37.4515 52.4396L35.4515 52.4396ZM43.1515 52.3396L43.0515 42.0396L45.0515 41.5396L45.0515 46.4396C44.9515 46.7396 44.9515 47.1396 45.0515 47.4396L45.0515 52.2396L43.1515 52.3396ZM50.9515 52.3396L50.9515 50.7396L52.4515 52.3396L50.9515 52.3396ZM50.8515 49.1395L50.8515 47.8396C51.0515 47.2396 51.0515 46.6396 50.8515 45.9396L50.8515 40.2396L52.7515 39.8396L52.8515 51.1395L50.8515 49.1395ZM58.5515 52.2396L58.4515 38.4396L60.8515 37.8396L60.9515 52.1395L58.5515 52.2396ZM66.7515 52.2396L66.6515 36.6396L68.3515 36.2396L68.4515 52.2396L66.7515 52.2396Z" fill="black"/>
</g>
<path d="M19.3737 51.3653C19.3702 50.8995 19.7688 50.5184 20.2639 50.5147L75.3776 50.1C75.8727 50.0963 76.277 50.4713 76.2805 50.9372L76.2837 51.3585C76.2872 51.8243 75.8886 52.2054 75.3935 52.2091L20.2797 52.6238C19.7846 52.6275 19.3803 52.2525 19.3768 51.7866L19.3737 51.3653Z" fill="#7C4028"/>
<path d="M19.328 44.1884C19.2111 43.7363 19.5178 43.2763 20.0144 43.1602L75.2511 30.3059C75.7465 30.191 76.2437 30.4635 76.3618 30.9156L76.4679 31.3257C76.5848 31.7778 76.2781 32.2377 75.7815 32.3538L20.5448 45.2081C20.0494 45.323 19.5522 45.0505 19.4341 44.5984L19.328 44.1884Z" fill="#7C4028"/>
<path d="M69.0117 55.7572L73.0883 55.7266C73.5543 55.7231 73.9293 55.3424 73.9258 54.8763L73.71 26.1976C73.7065 25.7316 73.3259 25.3566 72.8598 25.3601L68.7832 25.3908C68.3172 25.3943 67.9422 25.7749 67.9457 26.241L68.1615 54.9197C68.165 55.3858 68.5456 55.7607 69.0117 55.7572Z" fill="#2E2E82"/>
<path d="M69.0057 55.7572L69.4762 55.7536C69.4439 55.6661 69.4256 55.5714 69.4249 55.4731L69.2091 26.7932C69.2056 26.3274 69.5808 25.9465 70.0467 25.943L73.6527 25.9158C73.5344 25.589 73.2213 25.3572 72.8538 25.36L68.7772 25.3907C68.3114 25.3942 67.9362 25.7751 67.9397 26.2409L68.1555 54.9208C68.159 55.3866 68.5399 55.7618 69.0057 55.7583L69.0057 55.7572Z" fill="#2A276C"/>
<path opacity="0.4" d="M72.1718 27.2157C72.1682 26.737 72.2788 26.3487 72.4181 26.3477L72.5445 26.3467C72.6837 26.3457 72.8002 26.7334 72.8038 27.2109L73.0086 54.4383C73.0122 54.917 72.9016 55.3053 72.7623 55.3063L72.6359 55.3073C72.4966 55.3083 72.3802 54.9206 72.3766 54.4431L72.1718 27.2157Z" fill="white"/>
<path d="M60.437 27.9393C60.4337 27.4981 60.8091 27.1382 61.2749 27.1347L65.3515 27.1041C65.8173 27.1006 66.198 27.4547 66.2013 27.8959L66.4056 55.0485C66.4089 55.4897 66.0336 55.8495 65.5677 55.853L61.4912 55.8837C61.0254 55.8872 60.6446 55.5319 60.6413 55.0918L60.437 27.9393Z" fill="#00A46B"/>
<path d="M61.4852 55.8838L61.9557 55.8803C61.9234 55.7974 61.9052 55.7074 61.9045 55.615L61.7003 28.4624C61.6969 28.0212 62.0723 27.6614 62.5381 27.6579L66.1442 27.6308C66.026 27.3215 65.713 27.1014 65.3454 27.1042L61.2689 27.1349C60.8031 27.1384 60.4277 27.4982 60.431 27.9394L60.6353 55.0919C60.6386 55.5332 61.0193 55.8873 61.4852 55.8838Z" fill="#008B58"/>
<path opacity="0.4" d="M64.663 28.8614C64.6596 28.4085 64.7703 28.0401 64.9096 28.0391L65.036 28.0381C65.1753 28.0371 65.2916 28.4037 65.295 28.8567L65.4889 54.6351C65.4924 55.0881 65.3816 55.4564 65.2423 55.4575L65.1159 55.4584C64.9766 55.4595 64.8603 55.0928 64.8569 54.6399L64.663 28.8614Z" fill="white"/>
<path d="M52.3038 30.8038C52.3008 30.4059 52.6764 30.08 53.1422 30.0765L57.2188 30.0458C57.6846 30.0423 58.0651 30.3625 58.0681 30.7605L58.2524 55.2573C58.2554 55.6552 57.8798 55.9811 57.4139 55.9846L53.3374 56.0153C52.8716 56.0188 52.4911 55.6986 52.4881 55.3007L52.3038 30.8038Z" fill="#E81C35"/>
<path d="M53.3318 56.0155L53.8024 56.0119C53.7702 55.9372 53.752 55.8566 53.7514 55.7724L53.5671 31.2755C53.5641 30.8776 53.9397 30.5517 54.4055 30.5482L58.0116 30.5211C57.8936 30.2422 57.5808 30.0444 57.2133 30.0472L53.1367 30.0778C52.6709 30.0813 52.2953 30.4072 52.2983 30.8052L52.4826 55.302C52.4855 55.6999 52.866 56.0201 53.3318 56.0166L53.3318 56.0155Z" fill="#CA0019"/>
<path opacity="0.4" d="M56.5283 31.6334C56.5252 31.225 56.6362 30.8917 56.7755 30.8907L56.9019 30.8897C57.0412 30.8887 57.1572 31.219 57.1603 31.6287L57.3353 54.886C57.3383 55.2945 57.2273 55.6266 57.088 55.6276L56.9616 55.6286C56.8223 55.6296 56.7063 55.2993 56.7032 54.8908L56.5283 31.6334Z" fill="white"/>
<path d="M44.6606 33.2563C44.6579 32.8946 45.0337 32.5992 45.4996 32.5957L49.5761 32.565C50.042 32.5615 50.4222 32.8512 50.4249 33.2129L50.5922 55.4532C50.595 55.8148 50.2191 56.1103 49.7533 56.1138L45.6767 56.1444C45.2109 56.1479 44.8307 55.8582 44.8279 55.4965L44.6606 33.2563Z" fill="#E8B128"/>
<path d="M45.6707 56.1433L46.1412 56.1398C46.1091 56.0722 46.091 55.9985 46.0904 55.9225L45.9231 33.6822C45.9204 33.3205 46.2962 33.0251 46.7621 33.0216L50.3681 32.9945C50.2503 32.7413 49.9376 32.5611 49.5701 32.5639L45.4936 32.5945C45.0277 32.598 44.6519 32.8935 44.6546 33.2552L44.8219 55.4954C44.8246 55.8571 45.2049 56.1468 45.6707 56.1433Z" fill="#D8992B"/>
<path opacity="0.4" d="M48.8852 34.0052C48.8824 33.6342 48.9937 33.3326 49.133 33.3315L49.2594 33.3306C49.3987 33.3295 49.5145 33.6295 49.5173 34.0005L49.6761 55.1148C49.6789 55.4858 49.5676 55.7875 49.4283 55.7885L49.3019 55.7895C49.1627 55.7905 49.0469 55.4906 49.0441 55.1196L48.8852 34.0052Z" fill="white"/>
<path d="M36.8722 35.1619C36.8697 34.8283 37.2457 34.5551 37.7116 34.5516L41.7881 34.5209C42.254 34.5174 42.634 34.7849 42.6365 35.1185L42.7909 55.6324C42.7934 55.966 42.4174 56.2392 41.9515 56.2427L37.875 56.2733C37.4091 56.2768 37.0291 56.0093 37.0266 55.6758L36.8722 35.1619Z" fill="#946EB0"/>
<path d="M37.868 56.2723L38.3385 56.2688C38.3064 56.2058 38.2883 56.1392 38.2878 56.0678L38.1335 35.5539C38.131 35.2203 38.507 34.9483 38.9728 34.9448L42.5789 34.9177C42.4612 34.6845 42.1486 34.5183 41.7811 34.521L37.7046 34.5517C37.2387 34.5552 36.8627 34.8284 36.8652 35.162L37.0196 55.6759C37.0221 56.0094 37.4022 56.277 37.868 56.2735L37.868 56.2723Z" fill="#8658A4"/>
<path opacity="0.4" d="M41.0947 35.8501C41.0921 35.5083 41.2036 35.2289 41.3429 35.2279L41.4693 35.2269C41.6085 35.2259 41.7242 35.5024 41.7267 35.8453L41.8733 55.3211C41.8758 55.664 41.7644 55.9423 41.6251 55.9433L41.4987 55.9443C41.3594 55.9453 41.2438 55.6688 41.2412 55.3258L41.0947 35.8501Z" fill="white"/>
<path d="M29.2276 37.613C29.2254 37.3169 29.6016 37.073 30.0674 37.0694L34.144 37.0388C34.6098 37.0353 34.9897 37.2724 34.9919 37.5696L35.1293 55.8258C35.1315 56.1219 34.7553 56.3659 34.2894 56.3694L30.2129 56.4001C29.747 56.4036 29.3672 56.1665 29.365 55.8692L29.2276 37.613Z" fill="#2E2E82"/>
<path d="M30.2073 56.4002L30.6778 56.3966C30.6458 56.3407 30.6278 56.2811 30.6273 56.2179L30.49 37.9618C30.4878 37.6657 30.864 37.4217 31.3298 37.4182L34.9359 37.3911C34.8184 37.1836 34.506 37.0361 34.1385 37.0389L30.0619 37.0696C29.5961 37.0731 29.2198 37.3158 29.2221 37.6131L29.3594 55.8693C29.3617 56.1654 29.7415 56.4037 30.2073 56.4002Z" fill="#2A276C"/>
<path opacity="0.4" d="M33.4507 38.2226C33.4484 37.9183 33.5601 37.6705 33.6994 37.6694L33.8258 37.6685C33.9651 37.6674 34.0805 37.9135 34.0827 38.2178L34.2131 55.5505C34.2154 55.8548 34.1038 56.1027 33.9645 56.1037L33.8381 56.1047C33.6988 56.1057 33.5834 55.8596 33.5811 55.5553L33.4507 38.2226Z" fill="white"/>
<path d="M21.722 39.72C21.72 39.4555 22.0965 39.2385 22.5623 39.235L26.6389 39.2043C27.1047 39.2008 27.4843 39.4122 27.4863 39.6767L27.6087 55.942C27.6107 56.2065 27.2343 56.4235 26.7684 56.427L22.6919 56.4577C22.226 56.4612 21.8464 56.2498 21.8444 55.9853L21.722 39.72Z" fill="#00A46B"/>
<path d="M22.6859 56.4566L23.1564 56.453C23.1244 56.4029 23.1064 56.3504 23.106 56.2942L22.9836 40.0289C22.9816 39.7644 23.3581 39.5474 23.8239 39.5439L27.43 39.5168C27.3127 39.3315 27.0004 39.2005 26.6328 39.2032L22.5563 39.2339C22.0905 39.2374 21.714 39.4544 21.716 39.7189L21.8384 55.9842C21.8404 56.2487 22.22 56.4601 22.6859 56.4566Z" fill="#008B58"/>
<path opacity="0.4" d="M25.9444 40.2594C25.9424 39.9878 26.0542 39.7669 26.1935 39.7659L26.3199 39.7649C26.4592 39.7639 26.5744 39.9831 26.5764 40.2546L26.6926 55.6959C26.6946 55.9675 26.5828 56.1884 26.4435 56.1894L26.3171 56.1904C26.1778 56.1914 26.0626 55.9722 26.0606 55.7007L25.9444 40.2594Z" fill="white"/>
<path d="M70.2794 32.6726C70.2767 32.3039 70.5729 32.0032 70.9427 32.0004C71.3126 31.9976 71.6133 32.2938 71.6161 32.6625C71.6188 33.0312 71.3226 33.3331 70.9528 33.3358C70.5829 33.3386 70.2822 33.0424 70.2794 32.6726Z" fill="#7C4028"/>
<path d="M70.6669 32.6872C70.6652 32.4637 70.8453 32.2821 71.0677 32.2804C71.29 32.2787 71.4728 32.4588 71.4745 32.6812C71.4762 32.9035 71.2961 33.0863 71.0737 33.088C70.8514 33.0897 70.6686 32.9096 70.6669 32.6872Z" fill="#E8B128"/>
<path d="M62.7174 34.3295C62.7147 33.9609 63.0109 33.659 63.3807 33.6562C63.7506 33.6534 64.0513 33.9496 64.0541 34.3195C64.0568 34.6893 63.7606 34.99 63.3908 34.9928C63.0209 34.9956 62.7202 34.6994 62.7174 34.3295Z" fill="#7C4028"/>
<path d="M63.1044 34.3442C63.1027 34.1207 63.2828 33.9391 63.5052 33.9374C63.7275 33.9357 63.9103 34.1158 63.912 34.3381C63.9137 34.5605 63.7336 34.7433 63.5112 34.745C63.2889 34.7467 63.1061 34.5666 63.1044 34.3442Z" fill="#E8B128"/>
<path d="M54.6466 36.0241C54.6439 35.6554 54.9401 35.3536 55.3099 35.3508C55.6798 35.348 55.9805 35.6442 55.9833 36.0141C55.986 36.3839 55.6898 36.6846 55.32 36.6874C54.9501 36.6902 54.6494 36.394 54.6466 36.0241Z" fill="#7C4028"/>
<path d="M55.0331 36.0388C55.0314 35.8153 55.2115 35.6336 55.4339 35.632C55.6563 35.6303 55.839 35.8103 55.8407 36.0327C55.8424 36.2551 55.6623 36.4379 55.44 36.4396C55.2176 36.4412 55.0348 36.2612 55.0331 36.0388Z" fill="#E8B128"/>
<path d="M46.8566 37.8398C46.8538 37.4711 47.15 37.1692 47.5199 37.1665C47.8897 37.1637 48.1904 37.4599 48.1932 37.8297C48.196 38.1996 47.8998 38.5003 47.5299 38.5031C47.1601 38.5059 46.8594 38.2096 46.8566 37.8398Z" fill="#7C4028"/>
<path d="M47.2431 37.8545C47.2414 37.6309 47.4215 37.4493 47.6438 37.4476C47.8662 37.446 48.049 37.626 48.0507 37.8484C48.0523 38.0708 47.8723 38.2536 47.6499 38.2552C47.4275 38.2569 47.2448 38.0769 47.2431 37.8545Z" fill="#E8B128"/>
<path d="M39.2087 39.6552C39.2059 39.2865 39.5021 38.9847 39.8719 38.9819C40.2418 38.9791 40.5425 39.2753 40.5453 39.6452C40.548 40.015 40.2518 40.3157 39.882 40.3185C39.5121 40.3213 39.2114 40.0251 39.2087 39.6552Z" fill="#7C4028"/>
<path d="M39.5946 39.6699C39.593 39.4464 39.773 39.2648 39.9954 39.2631C40.2178 39.2614 40.4006 39.4415 40.4022 39.6638C40.4039 39.8862 40.2239 40.069 40.0015 40.0707C39.7791 40.0723 39.5963 39.8923 39.5946 39.6699Z" fill="#E8B128"/>
<path d="M31.4191 41.541C31.4163 41.1723 31.7125 40.8704 32.0824 40.8676C32.4522 40.8648 32.7529 41.1611 32.7557 41.5309C32.7585 41.9008 32.4623 42.2015 32.0924 42.2042C31.7226 42.207 31.4219 41.9108 31.4191 41.541Z" fill="#7C4028"/>
<path d="M31.8056 41.5556C31.8039 41.3321 31.984 41.1505 32.2063 41.1488C32.4287 41.1471 32.6115 41.3272 32.6132 41.5496C32.6148 41.772 32.4348 41.9547 32.2124 41.9564C31.99 41.9581 31.8073 41.778 31.8056 41.5556Z" fill="#E8B128"/>
<path d="M23.9108 43.3556C23.908 42.9869 24.2042 42.6851 24.5741 42.6823C24.9439 42.6795 25.2446 42.9757 25.2474 43.3456C25.2502 43.7154 24.954 44.0149 24.5841 44.0177C24.2143 44.0205 23.9136 43.7243 23.9108 43.3556Z" fill="#7C4028"/>
<path d="M24.2978 43.3701C24.2961 43.1466 24.4761 42.9649 24.6985 42.9633C24.9209 42.9616 25.1037 43.1417 25.1054 43.364C25.107 43.5864 24.927 43.7692 24.7046 43.7709C24.4822 43.7725 24.2994 43.5925 24.2978 43.3701Z" fill="#E8B128"/>
<path d="M70.4928 51.7216C70.4901 51.3529 70.7863 51.0523 71.1561 51.0495C71.526 51.0467 71.8267 51.3429 71.8294 51.7116C71.8322 52.0803 71.536 52.3821 71.1662 52.3849C70.7963 52.3877 70.4956 52.0915 70.4928 51.7216Z" fill="#7C4028"/>
<path d="M70.8798 51.7363C70.8781 51.5128 71.0582 51.3312 71.2806 51.3295C71.5029 51.3278 71.6857 51.5079 71.6874 51.7302C71.6891 51.9526 71.509 52.1354 71.2866 52.1371C71.0643 52.1387 70.8815 51.9587 70.8798 51.7363Z" fill="#E8B128"/>
<path d="M62.9162 51.3574C62.9134 50.9887 63.2096 50.688 63.5795 50.6852C63.9493 50.6824 64.25 50.9786 64.2528 51.3473C64.2556 51.716 63.9594 52.0179 63.5895 52.0207C63.2197 52.0234 62.9189 51.7272 62.9162 51.3574Z" fill="#7C4028"/>
<path d="M63.3027 51.3721C63.301 51.1485 63.481 50.9669 63.7034 50.9652C63.9258 50.9636 64.1086 51.1436 64.1102 51.366C64.1119 51.5884 63.9319 51.7711 63.7095 51.7728C63.4871 51.7745 63.3043 51.5944 63.3027 51.3721Z" fill="#E8B128"/>
<path d="M54.4801 51.3505C54.4774 50.9819 54.7736 50.6812 55.1434 50.6784C55.5133 50.6756 55.814 50.9718 55.8167 51.3405C55.8195 51.7092 55.5233 52.011 55.1535 52.0138C54.7836 52.0166 54.4829 51.7204 54.4801 51.3505Z" fill="#7C4028"/>
<path d="M54.8666 51.3652C54.8649 51.1417 55.045 50.9601 55.2674 50.9584C55.4898 50.9567 55.6725 51.1368 55.6742 51.3591C55.6759 51.5815 55.4958 51.7643 55.2735 51.766C55.0511 51.7677 54.8683 51.5876 54.8666 51.3652Z" fill="#E8B128"/>
<path d="M47.0373 51.3515C47.0345 50.9828 47.3307 50.681 47.7005 50.6782C48.0704 50.6754 48.3711 50.9716 48.3739 51.3415C48.3767 51.7113 48.0805 52.012 47.7106 52.0148C47.3407 52.0176 47.04 51.7214 47.0373 51.3515Z" fill="#7C4028"/>
<path d="M47.4247 51.3662C47.423 51.1426 47.6031 50.961 47.8255 50.9594C48.0479 50.9577 48.2306 51.1377 48.2323 51.3601C48.234 51.5825 48.0539 51.7653 47.8316 51.767C47.6092 51.7686 47.4264 51.5886 47.4247 51.3662Z" fill="#E8B128"/>
<path d="M39.0856 51.4665C39.0828 51.0978 39.379 50.7971 39.7489 50.7943C40.1187 50.7916 40.4194 51.0878 40.4222 51.4565C40.425 51.8251 40.1288 52.127 39.7589 52.1298C39.3891 52.1326 39.0884 51.8364 39.0856 51.4665Z" fill="#7C4028"/>
<path d="M39.4736 51.4809C39.4719 51.2574 39.6519 51.0758 39.8743 51.0741C40.0967 51.0724 40.2795 51.2525 40.2811 51.4749C40.2828 51.6972 40.1028 51.88 39.8804 51.8817C39.658 51.8834 39.4752 51.7033 39.4736 51.4809Z" fill="#E8B128"/>
<path d="M31.6354 51.5927C31.6326 51.224 31.9288 50.9233 32.2987 50.9206C32.6685 50.9178 32.9692 51.214 32.972 51.5827C32.9748 51.9513 32.6786 52.2532 32.3087 52.256C31.9389 52.2588 31.6382 51.9626 31.6354 51.5927Z" fill="#7C4028"/>
<path d="M32.4231 51.2006C32.2001 51.2023 32.0207 51.3844 32.0224 51.6074C32.0241 51.8304 32.2062 52.0098 32.4292 52.0082C32.6522 52.0065 32.8316 51.8243 32.83 51.6013C32.8283 51.3783 32.6461 51.1989 32.4231 51.2006Z" fill="#E8B128"/>
<path d="M24.0441 51.6499C24.0413 51.2812 24.3375 50.9805 24.7074 50.9777C25.0772 50.9749 25.3779 51.2711 25.3807 51.6398C25.3835 52.0085 25.0873 52.3104 24.7174 52.3131C24.3476 52.3159 24.0469 52.0197 24.0441 51.6499Z" fill="#7C4028"/>
<path d="M24.4306 51.6645C24.4289 51.441 24.609 51.2594 24.8313 51.2577C25.0537 51.256 25.2365 51.4361 25.2382 51.6585C25.2398 51.8808 25.0598 52.0636 24.8374 52.0653C24.615 52.067 24.4323 51.8869 24.4306 51.6645Z" fill="#E8B128"/>
<path d="M32.6746 44.9099L55.5576 16.6536L54.6862 15.9479L31.8032 44.2042L32.6746 44.9099Z" fill="#B2684A"/>
<path d="M30.3577 46.8804C29.0743 45.8411 28.8764 43.9578 29.9158 42.6744C30.9551 41.391 32.8384 41.1931 34.1218 42.2324C35.4052 43.2718 35.6031 45.1551 34.5637 46.4385C33.5244 47.7219 31.6411 47.9198 30.3577 46.8804Z" fill="#D80702"/>
<path d="M32.7886 46.6163C33.2862 46.956 34.3084 45.9449 34.3084 45.9449C35.0802 45.109 34.762 42.4369 33.1738 42.8527C32.2853 43.085 33.0302 44.2425 33.0753 44.782C33.1227 45.3446 32.1951 46.211 32.7886 46.6163Z" fill="#F44022"/>
<path d="M72.4547 71.5491L73.2637 70.7727L48.0867 44.5397L47.2777 45.3161L72.4547 71.5491Z" fill="#B2684A"/>
<path d="M45.6102 42.7701C46.802 41.6263 48.6942 41.6657 49.8381 42.8575C50.9819 44.0492 50.9435 45.942 49.7518 47.0859C48.56 48.2297 46.6672 48.1914 45.5234 46.9996C44.3795 45.8078 44.4179 43.915 45.6096 42.7712L45.6102 42.7701Z" fill="#D80702"/>
<path d="M45.5684 45.2159C45.1703 45.6672 46.0444 46.8074 46.0444 46.8074C46.7763 47.6777 49.4683 47.6953 49.2542 46.0681C49.1349 45.1568 47.8937 45.7517 47.3524 45.7292C46.7886 45.7062 46.0445 44.6768 45.5684 45.2159Z" fill="#F44022"/>
<path d="M25.7964 99.5586V89.0195C25.7964 88.6602 25.7782 88.3008 25.7417 87.9414C25.7052 87.582 25.6558 87.2409 25.5933 86.918C25.5308 86.5898 25.4604 86.2982 25.3823 86.043C25.3615 85.9805 25.3433 85.9206 25.3276 85.8633C25.312 85.806 25.2938 85.7487 25.2729 85.6914H27.1167C27.1375 85.7487 27.161 85.8164 27.187 85.8945C27.2131 85.9727 27.2391 86.0612 27.2651 86.1602C27.3068 86.2956 27.3563 86.5221 27.4136 86.8398C27.4709 87.1576 27.5203 87.5117 27.562 87.9023C27.6089 88.293 27.6323 88.6654 27.6323 89.0195V99.5586H25.7964ZM30.2495 95.7852V85.6914H32.0854V95.7852H30.2495ZM38.1636 95.9414C37.825 95.9414 37.4891 95.9336 37.1558 95.918C36.8276 95.9076 36.5229 95.8893 36.2417 95.8633C35.9657 95.8424 35.7339 95.819 35.5464 95.793L35.2026 95.7539V94.3086C35.7078 94.3607 36.2104 94.4023 36.7104 94.4336C37.2157 94.4596 37.7183 94.4727 38.2183 94.4727C38.5412 94.4727 38.825 94.4206 39.0698 94.3164C39.3198 94.207 39.5256 94.0612 39.687 93.8789C39.8797 93.6758 40.0282 93.4128 40.1323 93.0898C40.2417 92.7669 40.3146 92.4388 40.3511 92.1055C40.3771 91.8503 40.3953 91.6211 40.4058 91.418C40.4162 91.2148 40.4214 90.9857 40.4214 90.7305C40.4214 90.3346 40.4058 89.9857 40.3745 89.6836C40.3433 89.3815 40.286 89.0742 40.2026 88.7617C40.1193 88.4388 40.0021 88.1497 39.8511 87.8945C39.7 87.6393 39.4995 87.4388 39.2495 87.293C39.1037 87.2096 38.9474 87.1471 38.7808 87.1055C38.6193 87.0586 38.4448 87.0352 38.2573 87.0352C37.8927 87.0352 37.5724 87.0846 37.2964 87.1836C37.0256 87.2773 36.812 87.3971 36.6558 87.543C36.4526 87.7253 36.2912 87.9544 36.1714 88.2305C36.0516 88.5065 35.9917 88.793 35.9917 89.0898C35.9917 89.4128 36.0438 89.707 36.1479 89.9727C36.2573 90.2383 36.4032 90.4544 36.5854 90.6211C36.7313 90.7461 36.8901 90.8477 37.062 90.9258C37.2391 90.9987 37.4266 91.0404 37.6245 91.0508L37.9839 91.1133L37.6948 92.457L37.3198 92.4336C37.0229 92.4232 36.7443 92.3867 36.4839 92.3242C36.2287 92.2617 35.9891 92.1732 35.7651 92.0586C35.5516 91.944 35.3563 91.8086 35.1792 91.6523C35.0021 91.4909 34.8511 91.3112 34.7261 91.1133C34.5542 90.8529 34.4214 90.5534 34.3276 90.2148C34.2391 89.8763 34.1948 89.5091 34.1948 89.1133C34.1948 88.556 34.2938 88.056 34.4917 87.6133C34.6948 87.1654 34.9578 86.8034 35.2808 86.5273C35.6714 86.1888 36.1219 85.9388 36.6323 85.7773C37.1427 85.6159 37.6714 85.5352 38.2183 85.5352C38.6766 85.5352 39.0985 85.5872 39.4839 85.6914C39.8693 85.7904 40.2157 85.9414 40.5229 86.1445C40.7625 86.306 40.9839 86.5065 41.187 86.7461C41.3953 86.9857 41.5724 87.2617 41.7183 87.5742C41.911 87.9805 42.0568 88.4466 42.1558 88.9727C42.2547 89.4935 42.3042 90.0794 42.3042 90.7305C42.3042 91.4961 42.2391 92.1706 42.1089 92.7539C41.9787 93.3372 41.799 93.8268 41.5698 94.2227C41.3719 94.5508 41.1297 94.8294 40.8433 95.0586C40.562 95.2826 40.2651 95.4544 39.9526 95.5742C39.7078 95.694 39.4344 95.7852 39.1323 95.8477C38.8354 95.9102 38.5125 95.9414 38.1636 95.9414ZM44.437 95.7852V85.6914H46.2729V95.7852H44.437ZM51.1948 95.7852L51.9839 91.918L53.3667 87.1523H48.0854V83.5898H49.9214V85.6602H55.2183V87.0039L53.7964 91.918L53.0229 95.7852H51.1948ZM57.0386 92.2461V85.6914H58.8745V90.7852L57.7104 92.2461H57.0386ZM64.9292 95.9336C64.2 95.9336 63.5724 95.7982 63.0464 95.5273C62.6401 95.3242 62.2886 95.0508 61.9917 94.707C61.7 94.3581 61.4604 93.9362 61.2729 93.4414C61.1375 93.0716 61.0334 92.6602 60.9604 92.207C60.8875 91.7487 60.8511 91.2539 60.8511 90.7227C60.8511 90.181 60.8953 89.6888 60.9839 89.2461C61.0724 88.7982 61.2052 88.3997 61.3823 88.0508C61.5594 87.6966 61.7808 87.3919 62.0464 87.1367L62.0698 87.1211L60.9839 87.1758V85.6758C61.4683 85.6445 61.9344 85.6185 62.3823 85.5977C62.8354 85.5768 63.2756 85.5612 63.7026 85.5508C64.1297 85.5404 64.5412 85.5352 64.937 85.5352C65.3537 85.5352 65.7417 85.582 66.1011 85.6758C66.4657 85.7695 66.7964 85.9128 67.0933 86.1055C67.4162 86.2982 67.7 86.5456 67.9448 86.8477C68.1948 87.1445 68.4006 87.4961 68.562 87.9023C68.7183 88.2773 68.8354 88.7018 68.9136 89.1758C68.9917 89.6445 69.0308 90.1576 69.0308 90.7148C69.0308 91.1732 69.0047 91.6029 68.9526 92.0039C68.9006 92.3997 68.8224 92.7669 68.7183 93.1055C68.5464 93.6471 68.3146 94.1159 68.0229 94.5117C67.7313 94.9023 67.3823 95.2122 66.9761 95.4414C66.3979 95.7695 65.7157 95.9336 64.9292 95.9336ZM64.937 94.4414C65.2964 94.4414 65.6089 94.3711 65.8745 94.2305C66.1453 94.0898 66.3641 93.8919 66.5308 93.6367C66.687 93.4128 66.8094 93.1471 66.8979 92.8398C66.9865 92.5273 67.049 92.1914 67.0854 91.832C67.1271 91.4674 67.1479 91.0977 67.1479 90.7227C67.1479 89.8737 67.0698 89.194 66.9136 88.6836C66.7625 88.1732 66.5516 87.7852 66.2808 87.5195C66.1193 87.3529 65.9266 87.2253 65.7026 87.1367C65.4787 87.0482 65.2365 87.0039 64.9761 87.0039C64.7573 87.0039 64.562 87.0065 64.3901 87.0117C64.2183 87.0169 64.0464 87.0273 63.8745 87.043C63.4839 87.4753 63.1948 87.9909 63.0073 88.5898C62.825 89.1888 62.7339 89.8997 62.7339 90.7227C62.7339 91.3997 62.7834 91.9805 62.8823 92.4648C62.9865 92.9492 63.1427 93.3398 63.3511 93.6367C63.5177 93.8919 63.7339 94.0898 63.9995 94.2305C64.2651 94.3711 64.5776 94.4414 64.937 94.4414ZM75.1011 95.7852C75.1011 95.7331 75.1011 95.6836 75.1011 95.6367C75.1011 95.5898 75.1011 95.5404 75.1011 95.4883C75.1011 95.2383 75.1401 94.9102 75.2183 94.5039C75.2964 94.0977 75.3849 93.6784 75.4839 93.2461C75.5151 93.1055 75.5568 92.931 75.6089 92.7227C75.6662 92.5143 75.7261 92.2956 75.7886 92.0664C75.8563 91.832 75.924 91.6107 75.9917 91.4023L77.3589 87.1445H71.1245V85.6914H79.3354V86.8711L77.8589 91.4336C77.812 91.5586 77.7547 91.7305 77.687 91.9492C77.6245 92.168 77.562 92.3893 77.4995 92.6133C77.437 92.832 77.3849 93.0195 77.3433 93.1758C77.3068 93.3164 77.2651 93.4909 77.2183 93.6992C77.1714 93.9076 77.1245 94.1263 77.0776 94.3555C77.036 94.5794 76.9995 94.793 76.9683 94.9961C76.9422 95.1992 76.9292 95.3633 76.9292 95.4883V95.7852H75.1011ZM71.1245 99.6289V89.7773H72.9683V99.6289H71.1245Z" fill="white"/>
<defs>
<linearGradient id="paint0_linear_737_10730" x1="49.3196" y1="13.2632" x2="49.3196" y2="73.2632" gradientUnits="userSpaceOnUse">
<stop stop-color="#E93C83"/>
<stop offset="1" stop-color="#892E60"/>
</linearGradient>
<clipPath id="clip0_737_10730">
<rect width="61" height="59" fill="white" transform="translate(19.3516 16.0396)"/>
</clipPath>
</defs>
</svg>
