<svg width="102" height="144" viewBox="0 0 102 144" fill="none" xmlns="http://www.w3.org/2000/svg">
<path d="M51.0978 119.623C30.5511 119.623 12.1156 106.569 5.24692 87.1526C3.37363 81.8599 2.42212 76.4184 2.42212 70.9472C2.42212 65.476 3.31416 60.3617 5.06851 55.2176L5.21718 54.8013C12.0859 35.4143 30.5214 22.3013 51.0978 22.3013C56.4501 22.3013 61.7726 23.223 66.9464 25.0071C70.6335 26.2857 74.2314 28.0401 77.5914 30.2107C91.4775 39.25 99.7438 54.4742 99.7438 70.9472C99.7438 72.4637 99.6546 74.0396 99.5059 75.7048C97.0676 100.741 76.2534 119.623 51.0681 119.623H51.0978Z" fill="#181C36"/>
<path d="M51.0977 117.095C31.6215 117.095 14.1375 104.726 7.62559 86.32C5.8415 81.2948 4.94946 76.121 4.94946 70.9471C4.94946 65.7733 5.78203 60.9265 7.44718 56.05L7.56612 55.723C14.1077 37.228 31.5917 24.8286 51.0977 24.8286C56.1823 24.8286 61.2372 25.6909 66.1435 27.3858C69.6522 28.6049 73.0419 30.2701 76.2235 32.3218C89.3663 40.8853 97.2459 55.3067 97.2459 70.9471C97.2459 72.4041 97.1567 73.8909 97.0081 75.4371C94.7185 99.1654 74.9747 117.066 51.0977 117.066V117.095Z" fill="#3D4787"/>
<path d="M74.8551 34.4631C71.9114 32.5304 68.7001 30.9544 65.34 29.7948C60.8798 28.2486 56.1223 27.3863 51.1269 27.3863C32.0966 27.3566 15.9804 39.5478 10.0038 56.5263C9.97403 56.6452 9.91456 56.7642 9.85509 56.8831C8.33862 61.3136 7.47632 66.0414 7.47632 70.9774C7.47632 75.9133 8.39809 80.9385 10.0038 85.4879C15.9804 102.407 32.0966 114.568 51.0674 114.568C73.7252 114.568 92.3094 97.2926 94.4503 75.2294C94.599 73.8319 94.6584 72.4046 94.6584 70.9774C94.6584 55.664 86.749 42.2239 74.7957 34.4631H74.8551Z" fill="#2A3069"/>
<g clip-path="url(#clip0_1172_15834)">
<path d="M49.6695 93.2486C51.2695 92.9486 51.9695 91.4486 52.1695 90.2486C50.9695 89.9486 49.6695 89.8486 48.3695 89.9486C48.3695 89.9486 47.6695 89.9486 46.4695 90.1486C46.6695 91.4486 47.4695 93.6486 49.6695 93.2486Z" fill="#419495"/>
<path d="M47.7695 89.049V90.749C47.7695 90.749 47.7695 92.249 49.0695 92.349C49.0695 92.349 50.6695 92.449 50.8695 90.749C51.0695 89.049 50.9695 88.749 50.9695 88.749L47.7695 89.049Z" fill="#E6C7A7"/>
<path d="M47.7695 89.049V90.749C47.7695 90.749 47.7695 92.249 49.0695 92.349C49.0695 92.349 50.6695 92.449 50.8695 90.749C51.0695 89.049 50.9695 88.749 50.9695 88.749L47.7695 89.049Z" fill="#ECD6BF"/>
<path d="M50.2697 88.1487C49.8697 88.3487 49.3697 88.5487 48.9697 88.5487C48.5697 88.5487 48.2697 88.3487 48.0697 87.9487C48.0697 87.9487 47.8697 87.9487 47.9697 87.9487C48.1697 88.3487 48.5697 88.5487 48.9697 88.5487C49.3697 88.6487 49.8697 88.3487 50.2697 88.1487C50.4697 88.0487 50.2697 88.0487 50.2697 88.1487Z" fill="#BB9972"/>
<path d="M63.1696 97.8485C63.1696 97.8485 63.0696 97.7485 63.0696 97.6485C62.9696 97.5485 62.9696 97.4485 62.8696 97.4485C62.8696 97.3485 62.7696 97.3485 62.6696 97.2485C62.5696 97.1485 62.4696 97.0485 62.3696 96.9485C62.2696 96.8485 62.2696 96.7485 62.1696 96.7485C62.0696 96.6485 61.9696 96.5485 61.8696 96.3485C61.7696 96.2485 61.6696 96.1485 61.5696 96.0485C61.4696 95.9485 61.3696 95.7485 61.1696 95.6485C61.0696 95.5485 60.9696 95.4485 60.8696 95.3485C60.7696 95.2485 60.5696 95.0485 60.4696 94.9485C60.3696 94.8485 60.2696 94.7485 60.0696 94.6485C59.8696 94.5485 59.7696 94.3485 59.5696 94.2485C59.4696 94.1485 59.2696 94.0485 59.1696 93.9485C58.9696 93.8485 58.7696 93.6485 58.5696 93.5485C58.4696 93.4485 58.2696 93.3485 58.1696 93.2485C57.9696 93.1485 57.7696 92.9485 57.4696 92.8485C57.3696 92.7485 57.1696 92.6485 56.9696 92.5485C56.7696 92.4485 56.4696 92.2485 56.1696 92.1485C56.0696 92.0485 55.8696 91.9485 55.7696 91.9485C55.4696 91.7485 55.1696 91.6485 54.7696 91.5485C54.6696 91.5485 54.5696 91.4485 54.4696 91.4485C53.9696 91.2485 53.5696 91.1485 53.0696 90.9485C52.5696 90.8485 52.0696 90.7485 51.5696 90.6485C51.4696 90.6485 51.2696 90.6485 51.0696 90.5485C50.7696 90.5485 50.4696 90.4485 50.0696 90.4485H50.1696C49.4696 90.3485 48.7696 90.3485 48.0696 90.4485C48.0696 90.4485 41.5696 90.2485 37.0696 97.6485L40.7696 100.349L42.9696 97.5485L42.0696 108.349C42.0696 108.349 48.7696 110.649 54.7696 109.349C54.8696 109.349 55.0696 109.249 55.1696 109.249C55.2696 109.249 55.3696 109.249 55.3696 109.149C55.7696 109.049 56.0696 108.949 56.4696 108.749C56.5696 108.749 56.6696 108.649 56.6696 108.649C57.0696 108.549 57.4696 108.349 57.7696 108.149L56.5696 97.5485V97.4485L59.7696 101.249L63.3696 97.9485C63.3696 97.9485 63.2696 97.8485 63.2696 97.7485C63.2696 97.9485 63.2696 97.8485 63.1696 97.8485Z" fill="black"/>
<path d="M73.7696 58.7487C73.7696 58.7487 76.1696 58.7487 74.9696 57.0487C73.7696 55.3487 70.6696 54.0487 70.6696 54.0487C70.6696 54.0487 73.2696 54.2487 73.3696 53.3487C73.4696 52.5487 71.7696 50.7487 69.6696 50.1487C71.8696 48.8487 72.1696 48.3487 71.7696 47.6487C71.2696 46.9487 68.9696 46.1487 65.9696 47.2487C66.9696 45.1487 65.9696 44.0487 62.4696 45.6487C64.0696 42.8487 62.8696 41.4487 57.1696 44.6487C57.1696 44.6487 58.1696 41.9487 56.7696 41.7487C55.3696 41.5487 53.4696 44.7487 53.4696 44.7487C53.4696 44.7487 52.4696 41.8487 51.2696 41.7487C49.8696 41.6487 49.0696 44.9487 49.0696 44.9487C49.0696 44.9487 47.4696 42.2487 46.3696 42.4487C45.2696 42.6487 43.8696 44.8487 43.7696 46.3487C43.7696 46.3487 42.9696 44.9487 41.7696 44.9487C40.4696 45.0487 39.4696 47.6487 39.6696 49.5487C38.0696 47.0487 33.3696 46.2487 35.4696 53.4487C32.6696 51.4487 29.9696 51.2487 32.3696 55.7487C27.9696 55.7487 27.4696 58.0487 31.2696 58.8487C31.2696 58.8487 26.6696 59.5487 26.3696 61.6487C26.2696 63.1487 27.9696 63.1487 29.2696 63.4487C25.6696 65.4487 25.9696 67.9487 27.9696 67.7487C27.9696 67.7487 24.9696 70.8487 26.0696 72.6487C26.8696 73.6487 28.3696 72.6487 28.3696 72.6487C28.3696 72.6487 26.1696 76.9487 27.6696 78.0487C27.9696 78.2487 28.1696 78.1487 28.3696 78.0487C28.6696 77.8487 28.9696 77.4487 28.9696 77.3487C28.9696 77.4487 28.7696 80.2487 29.6696 80.5487C29.7696 80.5487 29.7696 80.5487 29.8696 80.4487C30.2696 80.1487 30.6696 78.7487 30.7696 78.6487C30.7696 78.8487 31.3696 81.4487 32.4696 81.8487C32.5696 81.8487 32.6696 81.8487 32.7696 81.7487C32.9696 81.5487 33.1696 80.8487 33.1696 80.8487C33.1696 80.9487 34.2696 83.0487 36.3696 83.1487C36.3696 83.1487 40.5696 90.5487 50.8696 89.6487C61.1696 88.8487 65.8696 81.3487 65.8696 81.3487C66.8696 79.7487 67.6696 77.4487 68.0696 75.0487C68.0696 75.1487 68.0696 75.1487 68.0696 75.2487C67.6696 77.4487 66.8696 79.7487 65.8696 81.2487C65.8696 81.2487 66.4696 81.4487 67.1696 80.9487C67.5696 80.6487 67.9696 80.0487 68.2696 79.0487C68.4696 80.2487 69.1696 80.5487 69.7696 80.1487C70.2696 79.8487 70.6696 79.2487 70.9696 78.4487C71.0696 79.1487 71.4696 79.5487 71.9696 79.3487C72.3696 79.0487 72.8696 78.1487 73.0696 76.1487C73.1696 76.1487 73.3696 76.1487 73.4696 76.0487C74.2696 75.5487 74.5696 72.2487 73.4696 70.1487C74.1696 70.8487 74.5696 71.0487 74.7696 70.8487C75.0696 70.5487 74.9696 69.7487 74.5696 68.8487C74.9696 69.1487 75.2696 69.2487 75.5696 69.1487C76.4696 68.7487 76.6696 66.4487 74.3696 62.7487C77.1696 63.2487 77.9696 61.3487 73.7696 58.7487ZM39.5696 75.5487C39.1696 75.4487 38.9696 75.3487 38.9696 75.1487C39.0696 75.4487 39.2696 75.5487 39.5696 75.5487C39.6696 75.5487 39.7696 75.5487 39.9696 75.5487C39.8696 75.6487 39.6696 75.6487 39.5696 75.5487ZM43.8696 74.1487C44.4696 73.8487 45.0696 73.4487 45.6696 73.0487C45.0696 73.3487 44.4696 73.7487 43.8696 74.1487ZM51.1696 71.4487C51.1696 71.4487 47.1696 74.3487 46.4696 74.1487C47.1696 74.2487 51.1696 71.4487 51.1696 71.4487ZM51.9696 74.6487C51.8696 74.6487 51.7696 74.6487 51.6696 74.5487C51.7696 74.6487 51.7696 74.6487 51.9696 74.6487C52.0696 74.6487 52.0696 74.6487 52.1696 74.6487C52.0696 74.6487 51.9696 74.6487 51.9696 74.6487ZM57.1696 74.1487C57.2696 74.1487 57.2696 74.0487 57.3696 74.0487C57.2696 74.1487 57.2696 74.1487 57.1696 74.1487ZM68.2696 71.0487C68.2696 70.9487 68.2696 70.7487 68.2696 70.6487V70.7487C68.2696 70.9487 68.2696 71.0487 68.2696 71.0487Z" fill="black"/>
<path d="M36.5695 88.9491C37.1695 88.8491 37.4695 87.8491 37.2695 87.3491C37.0695 86.8491 36.1695 86.6491 35.6695 86.9491C34.0695 87.9491 34.5695 89.6491 35.9695 90.5491C37.7695 91.7491 40.0695 90.2491 41.6695 89.3491C42.5695 88.8491 43.3695 88.0491 44.2695 87.7491C45.4695 87.3491 46.5695 87.1491 47.8695 87.1491" stroke="black" stroke-width="0.2" stroke-linecap="round"/>
<path d="M23.5696 83.4487C23.5696 84.1487 23.7696 84.8487 24.4696 85.2487C25.0696 85.5487 25.6696 84.5487 25.8696 84.1487C26.6696 82.6487 25.3696 80.9487 23.7696 80.9487C22.1696 80.9487 20.8696 82.1487 20.7696 83.7487C20.6696 85.8487 21.9696 87.2487 23.1696 88.7487C23.8696 89.5487 24.7696 90.1487 25.6696 90.6487C26.5696 91.2487 27.7696 91.9487 28.7696 92.2487C30.8696 92.9487 33.1696 93.4487 35.3696 93.2487C37.5696 93.0487 39.7696 91.7487 41.6696 90.7487C42.4696 90.3487 43.1696 89.7487 43.8696 89.2487C44.9696 88.4487 45.6696 88.1487 47.0696 87.9487" stroke="black" stroke-width="0.2" stroke-linecap="round"/>
<path d="M33.7697 86.8486C32.5697 87.6486 32.6697 89.2486 33.2697 90.3486" stroke="black" stroke-width="0.2" stroke-linecap="round"/>
<path d="M20.6696 91.5489C19.4696 91.5489 19.2696 89.6489 20.4696 89.6489C21.2696 89.6489 21.7696 89.8489 22.3696 90.3489C23.0696 90.8489 23.7696 91.3489 24.3696 91.8489C25.6696 92.7489 26.7696 93.0489 28.3696 93.2489" stroke="black" stroke-width="0.2" stroke-linecap="round"/>
<path d="M19.6696 82.5488C19.0696 84.4488 19.5696 85.8488 20.5696 87.4488" stroke="black" stroke-width="0.2" stroke-linecap="round"/>
<path d="M31.9697 87.4487C31.8697 87.6487 31.7697 87.7487 31.7697 87.9487C31.6697 88.2487 31.7697 88.6487 31.8697 89.0487" stroke="black" stroke-width="0.2" stroke-linecap="round"/>
</g>
<path d="M47.3163 88.9791C47.3163 88.9791 40.8166 88.8209 36.3616 96.1813L40.0889 98.8649L42.3285 96.0508L40.9694 107.343C40.9694 107.343 50.2716 110.6 56.7391 107.254L55.5449 96.6263L58.7575 100.38L62.3541 97.1049C62.3541 97.1049 56.6707 88.4096 47.3163 88.9811V88.9791Z" fill="#DEEBE4"/>
<path d="M47.3163 88.9791C47.3163 88.9791 40.8166 88.8209 36.3616 96.1813L40.0889 98.8649L42.3285 96.0508L40.9694 107.343C40.9694 107.343 50.2716 110.6 56.7391 107.254L55.5449 96.6263L58.7575 100.38L62.3541 97.1049C62.3541 97.1049 56.6707 88.4096 47.3163 88.9811V88.9791Z" fill="#DEEBE4"/>
<path d="M48.6412 92.2303C50.2898 91.9772 50.909 90.3833 51.1402 89.258C49.946 89.0069 48.6694 88.8942 47.3144 88.9792C47.3144 88.9792 46.5685 88.9614 45.4065 89.2244C45.6317 90.3595 46.3655 92.5803 48.6412 92.2303Z" fill="#419495"/>
<path d="M46.6911 87.9905L46.6428 89.6753C46.6428 89.6753 46.6388 91.2159 47.9797 91.2534C47.9797 91.2534 49.578 91.3503 49.7931 89.6892C50.0062 88.0261 49.8796 87.6938 49.8796 87.6938L46.6911 87.9925V87.9905Z" fill="#E6C7A7"/>
<g style="mix-blend-mode:multiply">
<path d="M46.6911 87.9905L46.6428 89.6753C46.6428 89.6753 46.6388 91.2159 47.9797 91.2534C47.9797 91.2534 49.578 91.3503 49.7931 89.6892C50.0062 88.0261 49.8796 87.6938 49.8796 87.6938L46.6911 87.9925V87.9905Z" fill="#ECD6BF"/>
</g>
<g style="mix-blend-mode:multiply">
<path d="M52.7947 92.7085C53.826 97.7176 53.7516 104.73 53.623 108.359C54.6985 108.12 55.754 107.764 56.7411 107.253L55.553 96.6834C54.3427 94.1798 52.7947 92.7085 52.7947 92.7085Z" fill="#E6E6E6"/>
<path d="M38.9893 98.0716L40.091 98.8626L42.3306 96.0486L42.3105 96.2147C43.0523 93.9781 43.9067 92.7065 43.9067 92.7065C41.5445 94.5556 39.7934 96.891 38.9893 98.0697V98.0716Z" fill="#E6E6E6"/>
<path d="M49.2847 88.9946C55.8667 90.197 59.8654 96.5073 60.9269 98.3999L62.3523 97.1026C62.3523 97.1026 57.461 89.6195 49.2847 88.9946Z" fill="#E6E6E6"/>
</g>
<path d="M67.2174 69.6542C63.3775 69.7234 61.9843 68.5527 61.9843 68.5527C61.9843 68.5527 64.4892 71.2422 63.287 71.9917C62.0828 72.7372 56.7632 69.6345 56.7632 69.6345C56.7632 69.6345 57.0648 73.3048 55.9309 73.1486C54.8071 72.9963 53.3576 70.1723 53.3576 70.1723C53.3576 70.1723 51.894 73.7359 50.8547 73.6212C49.1599 73.3938 50.1349 70.3859 50.1349 70.3859C50.1349 70.3859 46.1021 73.2455 45.4467 73.0675C44.7973 72.8915 46.088 70.6845 46.088 70.6845C43.772 73.0259 39.5381 74.7484 38.5429 74.5408C37.5417 74.341 37.7468 74.1373 38.7983 71.4123C37.1658 73.1525 34.5161 74.5328 34.309 73.9851C33.5571 79.6329 35.2358 82.0258 35.2358 82.0258C35.2358 82.0258 39.4154 89.3823 49.7168 88.5378C60.0141 87.6895 64.6762 80.242 64.6762 80.242C66.4313 77.6119 67.4104 72.5988 67.2073 69.6503L67.2174 69.6542Z" fill="#E9D6C1"/>
<path d="M72.6693 57.7434C72.6693 57.7434 75.0939 57.7493 73.8555 56.017C72.6231 54.2807 69.5874 53.0091 69.5874 53.0091C69.5874 53.0091 72.1888 53.1713 72.3034 52.3368C72.42 51.5042 70.7092 49.7778 68.5802 49.0916C70.7353 47.7686 71.0992 47.3276 70.6368 46.6394C70.1704 45.9453 67.8082 45.1523 64.8147 46.2657C65.8018 44.1497 64.8428 43.0937 61.3367 44.6362C62.945 41.8637 61.7267 40.4596 55.999 43.6494C55.999 43.6494 57.0103 40.9678 55.5668 40.7701C54.1273 40.5703 52.2335 43.8195 52.2335 43.8195C52.2335 43.8195 51.2685 40.9639 50.0603 40.7839C48.842 40.6 47.9996 43.9322 47.9996 43.9322C47.9996 43.9322 46.4476 41.2803 45.3217 41.4424C44.1919 41.6086 42.8329 43.859 42.7102 45.3639C42.7102 45.3639 41.9483 43.952 40.6737 44.0113C39.3991 44.0627 38.3617 46.7561 38.5849 48.613C37.0268 45.9651 32.2702 45.2393 34.3771 52.3902C31.6248 50.3948 28.8485 50.1773 31.267 54.7316C26.8622 54.7513 26.3596 56.9899 30.1572 57.7908C30.1572 57.7908 25.5695 58.5186 25.2076 60.5772C25.085 62.0623 26.7938 62.1059 28.0785 62.3313C24.5261 64.293 24.8257 66.8085 26.7456 66.589C26.7456 66.589 23.6998 69.7095 24.8819 71.4913C25.658 72.4544 27.1939 71.519 27.1939 71.519C27.1939 71.519 25.1192 75.9388 26.6431 76.9909C27.3387 77.4536 27.976 76.2275 27.976 76.2275C27.976 76.2275 27.7347 79.1681 28.6595 79.4628C29.1621 79.532 29.7009 77.5822 29.7009 77.5822C29.7009 77.5822 30.2316 80.4002 31.3675 80.7996C31.8339 80.9578 32.0551 79.7614 32.0551 79.7614C32.0551 79.7614 33.1528 81.9684 35.2355 82.0257C35.2355 82.0257 33.5589 79.6329 34.3087 73.985C34.5158 74.5348 37.1655 73.1564 38.798 71.4122C37.7445 74.1333 37.5415 74.337 38.5427 74.5407C39.5398 74.7483 43.7677 73.0259 46.0877 70.6845C46.0877 70.6845 44.797 72.8914 45.4464 73.0674C46.0998 73.2434 50.1347 70.3859 50.1347 70.3859C50.1347 70.3859 49.1596 73.3937 50.8544 73.6211C51.8938 73.7358 53.3573 70.1723 53.3573 70.1723C53.3573 70.1723 54.8028 73.0002 55.9307 73.1485C57.0605 73.3047 56.763 69.6344 56.763 69.6344C56.763 69.6344 62.0845 72.7372 63.2867 71.9916C64.491 71.2421 61.984 68.5527 61.984 68.5527C61.984 68.5527 63.3772 69.7234 67.2171 69.6542C67.4201 72.6027 66.4411 77.6158 64.686 80.2459C64.686 80.2459 66.3285 80.7917 67.0824 78.0291C67.5026 80.2598 69.1853 79.2097 69.7221 77.3666C69.9955 78.8537 71.2902 79.0277 71.7888 75.0944C72.8905 75.4642 73.4353 71.4616 72.1567 69.0708C73.6806 70.8308 74.1329 69.3674 73.2624 67.8012C74.8707 69.1024 76.1694 66.585 73.1036 61.6668C76.1433 62.2364 76.8731 60.2865 72.6613 57.7493L72.6693 57.7434Z" fill="#D9A154"/>
<g opacity="0.5">
<path d="M70.7738 64.6059C70.7738 64.6059 71.7429 66.7397 71.1699 66.6942C70.5969 66.6487 68.7051 64.2539 68.7051 64.2539C68.7051 64.2539 70.0079 68.0963 69.1535 68.0271C68.3011 67.9579 65.9067 65.8972 65.9067 65.8972C65.9067 65.8972 67.9452 68.8655 65.1306 68.4562C62.308 68.0449 59.6945 66.3402 59.6945 66.3402C59.6945 66.3402 62.3261 70.1964 60.2393 70.1233C58.1545 70.0501 55.5953 66.4806 55.5953 66.4806C55.5953 66.4806 55.5571 70.4021 54.7469 69.8701C53.9367 69.3382 53.5467 65.9408 53.5467 65.9408C53.5467 65.9408 51.8057 70.9459 51.3392 70.8154C50.8789 70.6849 51.5363 67.2776 51.5363 67.2776C51.5363 67.2776 48.1186 70.7482 47.5677 70.5168C47.0129 70.2854 48.2734 67.6711 48.2734 67.6711C48.2734 67.6711 41.9728 72.5932 40.3805 72.3737C38.7843 72.1522 41.43 67.6889 41.43 67.6889C38.3842 71.1852 35.8068 72.4766 35.2238 71.4937C34.6368 70.5128 36.3215 67.3745 36.3215 67.3745C36.3215 67.3745 34.4337 69.4707 34.1804 71.4107C33.9251 73.3546 31.3277 72.5873 30.7627 71.3276C30.4511 74.0131 29.265 75.698 29.1866 73.1647C27.8316 75.4231 26.8324 75.9986 26.1086 75.8364C26.1468 76.3328 26.3097 76.7441 26.6535 76.9834C27.3491 77.4461 27.9864 76.2201 27.9864 76.2201C27.9864 76.2201 27.7451 79.1607 28.6699 79.4553C29.1725 79.5245 29.7113 77.5747 29.7113 77.5747C29.7113 77.5747 30.242 80.3927 31.3779 80.7921C31.8443 80.9504 32.0655 79.7539 32.0655 79.7539C32.0655 79.7539 33.1632 81.9609 35.2459 82.0182C35.2459 82.0182 33.5693 79.6254 34.3191 73.9775C34.5262 74.5273 37.1759 73.1489 38.8084 71.4047C37.7549 74.1258 37.5519 74.3295 38.5531 74.5332C39.5502 74.7408 43.7781 73.0184 46.0981 70.677C46.0981 70.677 44.8074 72.8839 45.4568 73.0599C46.1102 73.2359 50.1451 70.3784 50.1451 70.3784C50.1451 70.3784 49.17 73.3862 50.8648 73.6136C51.9042 73.7283 53.3677 70.1648 53.3677 70.1648C53.3677 70.1648 54.8132 72.9927 55.9411 73.141C57.0709 73.2972 56.7734 69.6269 56.7734 69.6269C56.7734 69.6269 62.0949 72.7297 63.2971 71.9841C64.5014 71.2347 61.9944 68.5452 61.9944 68.5452C61.9944 68.5452 63.3876 69.7159 67.2275 69.6467C67.4305 72.5952 66.4515 77.6083 64.6964 80.2384C64.6964 80.2384 66.3389 80.7842 67.0928 78.0216C67.513 80.2523 69.1957 79.2022 69.7325 77.3591C70.0059 78.8462 71.3006 79.0203 71.7992 75.0869C72.9009 75.4567 73.4457 71.4542 72.1671 69.0633C73.691 70.8233 74.1433 69.3599 73.2728 67.7937C73.6548 68.1081 74.0247 68.1952 74.3182 68.0904C72.346 67.4279 70.7779 64.6079 70.7779 64.6079L70.7718 64.6118L70.7738 64.6059Z" fill="#DF823C"/>
</g>
<path d="M67.2174 69.6544C67.2174 69.6544 68.7896 68.6874 70.4502 69.6643C72.1168 70.6373 72.0826 74.8771 69.075 76.0676C67.2456 76.6727 66.5439 75.9608 66.5439 75.9608C66.5439 75.9608 67.1993 72.9925 67.2215 69.6524H67.2174V69.6544Z" fill="#E9D6C1"/>
<path d="M67.7943 73.6769C67.7943 73.6769 67.6254 72.2135 68.7593 71.8892C69.8932 71.5648 69.9414 72.6387 69.9414 72.6387C69.9414 72.6387 69.5172 71.8832 68.6708 72.4528C67.8245 73.0223 67.7943 73.6808 67.7943 73.6808V73.6769Z" fill="#B19073"/>
<path d="M34.3071 74.0624C34.3071 74.0624 33.7281 76.0854 34.482 80.1216C32.8596 80.2284 30.4813 78.2409 30.9276 75.0947C31.384 72.7434 33.2536 73.0301 34.3031 74.0624H34.3071Z" fill="#E9D6C1"/>
<path d="M33.724 77.5488C33.724 77.5488 34.1321 76.1269 33.0686 75.6286C32.0011 75.1322 31.7739 76.1803 31.7739 76.1803C31.7739 76.1803 32.3187 75.5 33.0586 76.1981C33.8064 76.8962 33.726 77.5488 33.726 77.5488H33.724Z" fill="#B19073"/>
<path d="M41.9366 62.9246C41.8904 62.5963 41.8984 62.2661 41.9507 61.9299C41.9788 61.7638 42.0271 61.5957 42.1055 61.4355C42.1397 61.3525 42.196 61.2793 42.2502 61.2041C42.3166 61.1389 42.3809 61.0657 42.4674 61.0183C42.5518 60.957 42.6322 60.9352 42.7488 60.9016C42.8333 60.8877 42.9076 60.868 43.0222 60.8779C43.0785 60.8779 43.1268 60.8838 43.177 60.8976C43.2253 60.9075 43.2755 60.9214 43.3218 60.9431C43.4163 60.9807 43.4967 61.0361 43.5711 61.0993C43.7178 61.2239 43.8304 61.3782 43.9108 61.5384C43.9913 61.7005 44.0516 61.8587 44.0978 62.0426L43.75 62.0664C43.7782 61.655 43.8485 61.2575 43.9752 60.862C44.0073 60.7651 44.0415 60.6643 44.0878 60.5694C44.13 60.4725 44.1863 60.3795 44.2486 60.2866L44.3511 60.1521L44.4818 60.0315C44.5803 59.9622 44.6929 59.897 44.8216 59.8831C44.8839 59.8653 44.9442 59.8733 45.0085 59.8831L45.099 59.893C45.1593 59.9029 45.1553 59.9108 45.1874 59.9207C45.2357 59.9405 45.2779 59.9524 45.3322 59.98L45.491 60.0769C45.5795 60.1521 45.6559 60.2351 45.7122 60.332C45.7685 60.4289 45.8107 60.5258 45.8388 60.6287C45.8951 60.8324 45.9052 61.04 45.8951 61.2397C45.8851 61.4395 45.8529 61.6412 45.7966 61.831C45.8207 61.4375 45.8026 61.0341 45.6599 60.6841C45.6257 60.597 45.5795 60.5179 45.5272 60.4467C45.4991 60.4151 45.4709 60.3775 45.4387 60.3498L45.3402 60.2707C45.3061 60.2529 45.2699 60.2371 45.2377 60.2154C45.2035 60.1976 45.1432 60.1877 45.101 60.1699C45.0829 60.1659 45.0387 60.1462 45.0447 60.156H44.9844C44.9462 60.156 44.908 60.1501 44.8718 60.162C44.7974 60.1719 44.7351 60.2134 44.6748 60.2628L44.5863 60.3498L44.5119 60.4566C44.4657 60.5318 44.4235 60.6129 44.3933 60.6979C44.3592 60.7849 44.327 60.8699 44.2988 60.9609C44.1903 61.3208 44.13 61.7104 44.0958 62.0861L43.9872 63.2074L43.748 62.1099C43.7158 61.9714 43.6636 61.8192 43.6012 61.6886C43.5349 61.5581 43.4545 61.4296 43.3519 61.3366C43.3037 61.2912 43.2474 61.2496 43.1871 61.2219C43.1308 61.1943 43.0604 61.1745 43.0001 61.1705C42.9519 61.1567 42.8594 61.1666 42.775 61.1745C42.7368 61.1923 42.6483 61.2022 42.596 61.2397C42.5337 61.2674 42.4834 61.3188 42.4272 61.3643C42.3809 61.4197 42.3286 61.4711 42.2905 61.5403C42.206 61.6689 42.1497 61.8172 42.1015 61.9675C41.9989 62.272 41.9567 62.5963 41.9326 62.9246L41.9386 62.9286L41.9366 62.9246Z" fill="#DF823C"/>
<path d="M47.3425 53.749C47.1636 53.5631 47.0168 53.3476 46.8942 53.1142C46.8419 52.9936 46.7896 52.8651 46.7756 52.7168C46.7695 52.6436 46.7695 52.5645 46.7937 52.4854C46.8118 52.4063 46.864 52.3272 46.9243 52.2639C46.9625 52.2323 46.9806 52.2125 47.0369 52.1769L47.1214 52.1314C47.1957 52.1037 47.2943 52.08 47.3666 52.076C47.5254 52.0661 47.6762 52.0998 47.8129 52.1492C47.9496 52.2006 48.0683 52.2698 48.1849 52.347C48.3015 52.4261 48.406 52.5032 48.5105 52.606L48.213 52.6812C48.2512 52.5526 48.2974 52.4439 48.3497 52.3252C48.402 52.2105 48.4583 52.0978 48.5286 51.991C48.6694 51.7814 48.8403 51.5559 49.1318 51.4551C49.2021 51.4373 49.2785 51.4175 49.3569 51.4234C49.3991 51.4274 49.4233 51.4234 49.4755 51.4373L49.564 51.465C49.6243 51.4887 49.7047 51.5203 49.757 51.5619C49.8173 51.5994 49.8656 51.6509 49.9038 51.7062C49.9842 51.817 50.0224 51.9435 50.0364 52.0681C50.0505 52.1927 50.0364 52.3173 50.0083 52.434C49.9942 52.1986 49.9339 51.9534 49.7771 51.813C49.7389 51.7794 49.7007 51.7478 49.6505 51.726C49.6022 51.7023 49.566 51.6944 49.5097 51.6805L49.4193 51.6667C49.4193 51.6667 49.377 51.6706 49.3569 51.6706C49.3107 51.6706 49.2685 51.6884 49.2263 51.7023C49.0574 51.7814 48.9207 51.9574 48.8161 52.1512C48.7116 52.345 48.6151 52.5586 48.5568 52.7682L48.4764 53.0411L48.2633 52.8413C48.1829 52.7682 48.0884 52.6851 47.9939 52.6199C47.8954 52.5546 47.7928 52.4913 47.6923 52.4498C47.5898 52.4043 47.4852 52.3766 47.3867 52.3766C47.3304 52.3766 47.3023 52.3825 47.254 52.3905L47.1656 52.4241L47.1234 52.4518C47.0912 52.4755 47.0631 52.5071 47.049 52.5487C47.0289 52.5862 47.0249 52.6377 47.0208 52.691C47.0108 52.7978 47.0389 52.9185 47.0691 53.0332C47.1294 53.2705 47.242 53.4999 47.3505 53.7312L47.3465 53.7451L47.3425 53.749Z" fill="#DF823C"/>
<path d="M57.0368 52.8751C57.0368 52.8751 57.085 52.7051 57.2499 52.5014C57.2921 52.4539 57.3404 52.3986 57.4007 52.3452C57.461 52.2977 57.5273 52.2443 57.6078 52.2067C57.6882 52.1692 57.7827 52.1276 57.8852 52.1197C57.9897 52.1059 58.0983 52.1257 58.2048 52.1573C58.2953 52.2087 58.4019 52.2581 58.4582 52.3333C58.5325 52.3986 58.5848 52.4757 58.623 52.5508C58.7135 52.6991 58.7456 52.8475 58.7778 52.972C58.8019 53.0966 58.806 53.2034 58.81 53.2786V53.3952C58.81 53.3952 58.7054 53.2529 58.5888 53.0432C58.5547 52.9958 58.5185 52.9404 58.4843 52.885C58.4521 52.8257 58.4039 52.7782 58.3657 52.7229C58.3275 52.6635 58.2752 52.622 58.229 52.5785C58.1867 52.5231 58.1264 52.5133 58.0782 52.4816C58.0259 52.4678 57.9736 52.448 57.9133 52.4579C57.857 52.4579 57.7947 52.4678 57.7304 52.4895C57.6701 52.5093 57.6077 52.535 57.5474 52.5627C57.4871 52.5904 57.4349 52.622 57.3826 52.6517C57.1795 52.7763 57.0308 52.8732 57.0308 52.8732H57.0368V52.8751Z" fill="#DF823C"/>
<path d="M55.909 58.5347C55.8989 58.4062 55.909 58.2796 55.9291 58.1511C55.9492 58.0226 55.9854 57.896 56.0477 57.7754C56.0819 57.7141 56.1241 57.6587 56.1744 57.6033C56.2306 57.5519 56.291 57.5064 56.3633 57.4728C56.4337 57.4451 56.5141 57.4214 56.5905 57.4214H56.6649L56.7111 57.4273C56.7453 57.4333 56.7674 57.4273 56.8137 57.4471C56.8559 57.4609 56.8981 57.4787 56.9403 57.4946C56.9745 57.5143 57.0067 57.5361 57.0388 57.5559C57.0991 57.6013 57.1554 57.6528 57.1997 57.7081C57.2982 57.8189 57.3605 57.9395 57.4208 58.0641C57.4771 58.1887 57.5193 58.3133 57.5535 58.4398C57.5877 58.5684 57.6198 58.691 57.6339 58.8294L57.3504 58.7127C57.463 58.6336 57.5635 58.5703 57.6842 58.515C57.8008 58.4596 57.9294 58.4141 58.0742 58.4003C58.1486 58.4003 58.2209 58.3904 58.3014 58.4141C58.3818 58.424 58.4521 58.4695 58.5225 58.5169C58.5848 58.5644 58.627 58.6336 58.6693 58.6969L58.7396 58.8947C58.7537 59.0232 58.7818 59.1498 58.7638 59.2704C58.7597 59.391 58.7497 59.5117 58.7215 59.6264C58.6974 59.743 58.6753 59.8577 58.6411 59.9724C58.609 60.0871 58.5748 60.1959 58.5366 60.3066C58.5366 60.19 58.5426 60.0713 58.5507 59.9586C58.5607 59.8439 58.5547 59.7272 58.5507 59.6125C58.5507 59.4978 58.5466 59.389 58.5326 59.2783C58.5285 59.1636 58.4944 59.0687 58.4722 58.9678L58.4099 58.8432C58.3778 58.8156 58.3577 58.7819 58.3295 58.7602C58.2973 58.7463 58.2692 58.7266 58.231 58.7266C58.1968 58.7167 58.1506 58.7266 58.1084 58.7266C57.9335 58.7602 57.7224 58.869 57.5615 58.9896L57.3223 59.1735L57.2761 58.8769C57.2419 58.6534 57.1856 58.4102 57.0971 58.2005C57.0549 58.0977 57.0067 57.9909 56.9423 57.9079C56.9102 57.8624 56.876 57.8288 56.8398 57.7932L56.7835 57.7477C56.7835 57.7477 56.7513 57.7299 56.7353 57.72C56.7252 57.7062 56.679 57.7022 56.6548 57.6923L56.6086 57.6824C56.6267 57.6864 56.5905 57.6824 56.5885 57.6824C56.5402 57.6765 56.49 57.6864 56.4437 57.6963C56.3975 57.7101 56.3533 57.7299 56.3111 57.7615C56.2688 57.7932 56.2306 57.8307 56.1945 57.8762C56.0477 58.0562 55.9673 58.2974 55.8989 58.5387L55.905 58.5347H55.909Z" fill="#DF823C"/>
<path d="M66.7732 59.1893C66.8617 59.0726 66.928 58.9382 66.9803 58.7958C67.0044 58.7226 67.0225 58.6514 67.0225 58.5723C67.0265 58.5347 67.0225 58.4932 67.0165 58.4517C67.0064 58.4102 66.9964 58.3726 66.9702 58.335C66.9501 58.2935 66.922 58.2698 66.8858 58.2322C66.8576 58.2124 66.8295 58.1867 66.7833 58.1669C66.7632 58.157 66.741 58.1491 66.7209 58.1432C66.7008 58.1373 66.6787 58.1333 66.6546 58.1333C66.6084 58.1293 66.5661 58.1333 66.5239 58.1432C66.4395 58.161 66.3631 58.1986 66.2967 58.244C66.2304 58.2915 66.1741 58.3409 66.1178 58.4023L66.2485 58.4814C66.3249 58.3113 66.3812 58.1432 66.4174 57.9632C66.4234 57.9178 66.4314 57.8703 66.4355 57.8248C66.4395 57.7793 66.4355 57.7279 66.4355 57.6804L66.4254 57.6073L66.4013 57.5341C66.3772 57.4866 66.349 57.4372 66.2987 57.4056C66.2786 57.3858 66.2525 57.3779 66.2244 57.368L66.1862 57.3542C66.162 57.3482 66.162 57.3502 66.148 57.3482C66.1238 57.3482 66.1057 57.3423 66.0776 57.3423L65.9972 57.3482C65.9489 57.3581 65.8987 57.3759 65.8565 57.4036C65.8142 57.4313 65.776 57.459 65.7439 57.4926C65.6775 57.5618 65.6313 57.6409 65.5931 57.72C65.5549 57.8031 65.5227 57.8861 65.5046 57.9711C65.579 57.8129 65.6695 57.6567 65.8002 57.5499C65.8323 57.5222 65.8665 57.5025 65.9027 57.4847C65.9208 57.4787 65.9369 57.4708 65.959 57.4649L66.0153 57.455H66.0676C66.0856 57.455 66.1098 57.4609 66.1299 57.4649C66.1359 57.4649 66.162 57.4688 66.154 57.4708L66.1781 57.4807C66.1781 57.4807 66.2103 57.4946 66.2203 57.5084C66.2445 57.5282 66.2626 57.5559 66.2766 57.5875L66.2907 57.6389L66.2967 57.6943C66.2967 57.7319 66.2967 57.7734 66.2927 57.8149C66.2887 57.8564 66.2827 57.898 66.2746 57.9355C66.2425 58.0977 66.1801 58.2638 66.1158 58.4181L65.9188 58.8808L66.2445 58.4972C66.2867 58.4497 66.339 58.4003 66.3912 58.3627C66.4435 58.3251 66.5038 58.2895 66.5641 58.2757C66.5923 58.2698 66.6244 58.2618 66.6526 58.2658C66.6807 58.2658 66.7129 58.2717 66.737 58.2836C66.7571 58.2876 66.7933 58.3113 66.8255 58.3311C66.8355 58.3449 66.8717 58.3686 66.8818 58.3924C66.8999 58.4161 66.9099 58.4477 66.92 58.4754C66.926 58.5071 66.9381 58.5367 66.9381 58.5723C66.9441 58.6376 66.934 58.7107 66.924 58.78C66.8999 58.9184 66.8476 59.0568 66.7873 59.1913L66.7732 59.1873V59.1893Z" fill="#DF823C"/>
<path d="M35.9012 59.1557C35.7967 59.045 35.7082 58.9204 35.6379 58.782C35.6057 58.7088 35.5755 58.6376 35.5675 58.5506C35.5635 58.5091 35.5635 58.4616 35.5776 58.4161C35.5876 58.3706 35.6198 58.3232 35.6539 58.2876C35.6741 58.2698 35.6861 58.2559 35.7203 58.2362L35.7685 58.2085C35.8108 58.1907 35.8711 58.1768 35.9133 58.1768C36.0038 58.1709 36.0962 58.1907 36.1767 58.2184C36.2571 58.25 36.3274 58.2915 36.3938 58.335C36.4601 58.3786 36.5245 58.428 36.5828 58.4873L36.4078 58.5328C36.432 58.4577 36.4561 58.3904 36.4883 58.3252C36.5204 58.2599 36.5506 58.1907 36.5928 58.1274C36.6732 58.0028 36.7758 57.8723 36.9466 57.813C36.9889 57.8031 37.0351 57.7932 37.0773 57.7952C37.1014 57.7952 37.1155 57.7952 37.1477 57.8011L37.1959 57.8189C37.2301 57.8328 37.2804 57.8505 37.3085 57.8782C37.3427 57.902 37.3708 57.9296 37.397 57.9652C37.4452 58.0305 37.4673 58.1076 37.4734 58.1788C37.4834 58.252 37.4734 58.3232 37.4553 58.3924C37.4492 58.254 37.409 58.1096 37.3186 58.0305C37.2944 58.0107 37.2723 57.9929 37.2442 57.9791C37.216 57.9652 37.1959 57.9613 37.1638 57.9514L37.1115 57.9455H37.0773C37.0532 57.9455 37.025 57.9554 37.0009 57.9652C36.9024 58.0127 36.822 58.1175 36.7597 58.2283C36.6973 58.343 36.6431 58.4656 36.6049 58.5902L36.5566 58.7523L36.43 58.6356C36.3837 58.5941 36.3274 58.5466 36.2711 58.5051C36.2148 58.4675 36.1545 58.43 36.0962 58.4043C36.0379 58.3786 35.9736 58.3627 35.9173 58.3627C35.8851 58.3627 35.8691 58.3667 35.8409 58.3687L35.7886 58.3884L35.7645 58.4062C35.7464 58.4201 35.7303 58.4379 35.7223 58.4616C35.7122 58.4814 35.7082 58.513 35.7042 58.5447C35.7002 58.606 35.7143 58.6791 35.7324 58.7444C35.7665 58.8868 35.8349 59.0173 35.8972 59.1557L35.9012 59.1518V59.1557Z" fill="#DF823C"/>
<path d="M64.1516 63.2057C64.1516 63.2057 64.1617 63.091 64.228 62.9368C64.2461 62.8992 64.2622 62.8577 64.2883 62.8162C64.3145 62.7746 64.3406 62.7331 64.3788 62.6995C64.413 62.6659 64.4552 62.6263 64.5095 62.6065C64.5577 62.5828 64.614 62.5828 64.6683 62.5887C64.7165 62.6085 64.7708 62.6303 64.805 62.6678C64.8432 62.7015 64.8794 62.743 64.8995 62.7885C64.9558 62.8715 64.9799 62.9645 65.008 63.0436C65.0282 63.1227 65.0402 63.1919 65.0462 63.2413C65.0523 63.2888 65.0563 63.3165 65.0563 63.3165C65.0563 63.3165 64.996 63.2374 64.9236 63.1168C64.9035 63.0891 64.8814 63.0574 64.8613 63.0278C64.8412 62.9941 64.815 62.9684 64.7909 62.9388C64.7668 62.9052 64.7387 62.8834 64.7145 62.8636C64.6904 62.8359 64.6623 62.8359 64.6341 62.8181C64.606 62.8181 64.5818 62.8122 64.5537 62.8221C64.5255 62.828 64.4974 62.8458 64.4693 62.8676C64.4411 62.8874 64.413 62.9131 64.3888 62.9407C64.3647 62.9684 64.3406 62.9961 64.3145 63.0199C64.226 63.1266 64.1637 63.2097 64.1637 63.2097H64.1536L64.1516 63.2057Z" fill="#DF823C"/>
<path d="M32.1841 65.4619C32.1841 65.4619 32.1701 65.3056 32.2545 65.0782C32.2786 65.0229 32.3007 64.9616 32.3389 64.8983C32.3771 64.835 32.4194 64.7697 32.4837 64.7124C32.544 64.6531 32.6164 64.5917 32.7109 64.5502C32.8013 64.5028 32.9119 64.4889 33.0205 64.4771C33.123 64.4909 33.2376 64.4968 33.318 64.5423C33.4085 64.574 33.4869 64.6214 33.5452 64.6728C33.6819 64.7658 33.7623 64.8824 33.8367 64.9774C33.903 65.0743 33.9412 65.1633 33.9734 65.2265C34.0015 65.2878 34.0156 65.3234 34.0156 65.3234C34.0156 65.3234 33.8689 65.2364 33.6899 65.1C33.6417 65.0683 33.5874 65.0387 33.5351 64.9991C33.4869 64.9576 33.4225 64.9339 33.3663 64.9022C33.31 64.8647 33.2476 64.8469 33.1873 64.8271C33.127 64.7954 33.0707 64.8073 33.0144 64.7935C32.9581 64.7994 32.9059 64.7994 32.8536 64.8251C32.8013 64.8449 32.745 64.8726 32.6948 64.9121C32.6465 64.9497 32.5963 64.9873 32.55 65.0327C32.5038 65.0743 32.4656 65.1198 32.4274 65.1613C32.2826 65.3314 32.1821 65.4579 32.1821 65.4579V65.4638L32.1841 65.4619Z" fill="#DF823C"/>
<path d="M53.0039 80.3017C52.9516 80.7051 53.7477 81.1402 54.7791 81.2687C55.8104 81.3973 56.689 81.1718 56.7412 80.7684C56.7935 80.365 56.0014 79.9299 54.9681 79.8014C53.9367 79.6709 53.0582 79.8943 53.0059 80.3017H53.0019H53.0039Z" fill="#EEC1B3"/>
<path d="M47.8128 79.9158C47.8128 79.9158 47.6862 79.9435 47.4711 79.902C47.3665 79.8822 47.2399 79.8822 47.1655 79.9119C47.1333 79.9316 47.1172 79.9573 47.0911 79.991C47.0951 79.991 47.0569 80.0602 47.063 80.0701C47.063 80.0879 47.0529 80.1037 47.0529 80.1353C47.0248 80.3627 47.1273 80.6436 47.2258 80.8196C47.2781 80.9085 47.3344 80.9817 47.3846 81.0193C47.4329 81.0648 47.4731 81.0747 47.4731 81.0786C47.4731 81.0786 47.4309 81.0925 47.3565 81.0786C47.2821 81.0687 47.1735 81.0272 47.079 80.9441C46.9765 80.8611 46.882 80.7444 46.8117 80.602C46.7373 80.4577 46.6951 80.2836 46.7132 80.0938C46.7172 80.0483 46.7312 79.9929 46.7514 79.9376C46.7715 79.8723 46.7755 79.8782 46.8117 79.809C46.872 79.7161 46.9725 79.6469 47.075 79.6152C47.2861 79.5737 47.4369 79.6469 47.5414 79.7042C47.7586 79.8347 47.843 79.8822 47.843 79.8822L47.8128 79.9119V79.9158Z" fill="#B19073"/>
<path d="M40.467 80.2363C40.467 80.6101 41.239 80.9166 42.194 80.9226C43.1489 80.9265 43.9249 80.6259 43.9249 80.2522C43.9249 79.8784 43.157 79.5719 42.202 79.566C41.2471 79.562 40.4711 79.8626 40.4711 80.2363H40.467Z" fill="#EEC1B3"/>
<path d="M55.9872 76.115C55.9872 76.115 55.7681 76.0082 55.4243 75.9053C55.2534 75.852 55.0524 75.8025 54.8373 75.761C54.7287 75.7412 54.6161 75.7234 54.5015 75.7115C54.3889 75.6918 54.2683 75.6937 54.1537 75.6839C54.0351 75.676 53.9205 75.6839 53.8019 75.6839C53.6853 75.6918 53.5747 75.6997 53.4621 75.7076L53.1465 75.7491C53.046 75.763 52.9535 75.7887 52.863 75.8005C52.7766 75.8183 52.6942 75.8302 52.6218 75.85C52.5494 75.8697 52.4891 75.8856 52.4368 75.8994C52.3303 75.9231 52.272 75.935 52.272 75.935C52.272 75.935 52.3242 75.9034 52.4167 75.85C52.5132 75.7986 52.6439 75.7195 52.8188 75.6562C52.9073 75.6265 52.9997 75.5791 53.1023 75.5553C53.2048 75.5276 53.3134 75.496 53.428 75.4762C53.5425 75.4604 53.6632 75.4386 53.7858 75.4288C53.9084 75.4268 54.0351 75.4169 54.1597 75.4208C54.2844 75.4327 54.409 75.4367 54.5297 75.4584C54.6523 75.4742 54.7689 75.5039 54.8835 75.5336C55.0001 75.5573 55.1026 75.6048 55.2052 75.6364C55.3037 75.6799 55.3961 75.7155 55.4766 75.761C55.8083 75.9291 55.9812 76.111 55.9812 76.111H55.9852L55.9872 76.115Z" fill="#D38549"/>
<path d="M41.6912 75.7413C41.6912 75.7413 41.8741 75.5673 42.2159 75.4051C42.3848 75.3181 42.5918 75.2449 42.819 75.1816C42.9356 75.1579 43.0522 75.1223 43.1789 75.1104C43.3015 75.0946 43.4282 75.0828 43.5568 75.0768C43.6855 75.0689 43.8121 75.0808 43.9348 75.0887C44.0614 75.0887 44.1821 75.1263 44.2987 75.1441C44.4153 75.1619 44.5238 75.2054 44.6284 75.2331C44.7329 75.2607 44.8274 75.3042 44.9118 75.3458C45.0847 75.417 45.2174 75.504 45.3079 75.5673C45.3984 75.6305 45.4486 75.6661 45.4486 75.6661C45.4486 75.6661 45.3863 75.6503 45.2817 75.6226C45.2315 75.6088 45.1692 75.591 45.0988 75.5712C45.0284 75.5514 44.944 75.5376 44.8596 75.5139C44.7711 75.4941 44.6786 75.4684 44.5741 75.4565C44.4736 75.4407 44.367 75.4189 44.2585 75.4091C44.0373 75.3853 43.8041 75.3675 43.5709 75.3814C43.3337 75.3814 43.1005 75.415 42.8793 75.4447C42.6602 75.4822 42.4551 75.5238 42.2802 75.5712C41.9284 75.6582 41.6952 75.7452 41.6952 75.7452H41.6912V75.7413Z" fill="#D38549"/>
<path d="M49.188 87.0568C48.7839 87.2823 48.3275 87.4978 47.849 87.4523C47.4711 87.4148 47.1012 87.219 46.9303 86.8749C46.9082 86.8314 46.7674 86.8788 46.7855 86.9125C46.9765 87.3001 47.4007 87.5018 47.8249 87.5275C48.3416 87.5571 48.8362 87.3357 49.2744 87.0904C49.3589 87.043 49.2282 87.0351 49.186 87.0588L49.188 87.0568Z" fill="#BB9972"/>
<path d="M43.4483 77.8789C43.4222 78.6086 43.6795 79.2335 44.0172 79.275C44.357 79.3166 44.6545 78.7609 44.6746 78.0331C44.7008 77.3034 44.4435 76.6785 44.1057 76.633C43.7659 76.5915 43.4684 77.1472 43.4463 77.8789H43.4483Z" fill="#5B382A"/>
<path d="M44.1882 77.7171C44.1882 77.9405 44.2727 78.1304 44.3752 78.1403C44.4777 78.1502 44.5622 77.9761 44.5602 77.7547C44.5602 77.5312 44.4757 77.3413 44.3732 77.3315C44.2707 77.3216 44.1882 77.4956 44.1882 77.7171Z" fill="white"/>
<path d="M53.0059 77.9028C52.9657 78.6207 53.1908 79.2297 53.5125 79.2594C53.8301 79.2891 54.1237 78.7294 54.1659 78.0076C54.2061 77.2858 53.9769 76.6767 53.6592 76.651C53.3376 76.6214 53.0481 77.183 53.0059 77.9028Z" fill="#5B382A"/>
<path d="M53.1527 77.5903C53.1225 77.8078 53.1788 77.9977 53.2733 78.0135C53.3698 78.0273 53.4683 77.8652 53.4985 77.6496C53.5266 77.4321 53.4683 77.2422 53.3738 77.2264C53.2773 77.2126 53.1788 77.3747 53.1507 77.5923L53.1527 77.5903Z" fill="white"/>
<path d="M48.7984 85.9092C48.7984 86.368 48.738 86.4984 48.3922 86.5498C47.8775 86.625 47.4314 86.2391 47.4314 85.7803C47.3386 85.7168 47.3844 84.9561 47.3844 84.9561C47.3844 84.9561 48.7984 85.2334 48.7984 85.9092Z" fill="#7B2A20"/>
<path d="M46.3995 83.8199C46.1161 84.0236 45.6356 84.2569 45.6275 84.6504C45.6175 85.1646 46.4136 85.0855 46.7433 85.0519C47.0348 85.0222 47.3294 84.9722 47.6189 85.0335C47.8802 85.0909 48.1989 85.1884 48.408 85.3545C48.617 85.5206 48.7787 85.7751 48.7908 86.0381C48.8028 86.3011 48.5331 86.5383 48.2556 86.5225C47.9601 86.5047 47.6701 86.3302 47.5595 86.085C47.4268 85.7883 47.3625 85.3545 47.4318 85.0082C47.4484 84.9252 47.3746 84.9471 47.3625 85.0163C47.268 85.5126 47.3746 86.1395 47.8128 86.4599C48.1285 86.6893 48.6974 86.6754 48.8784 86.2819C49.1075 85.7836 48.5688 85.3208 48.1707 85.1191C47.9355 84.9985 47.6741 84.9293 47.4088 84.9095C47.1072 84.8877 46.8076 84.949 46.5081 84.9668C46.3231 84.9767 46.0638 84.9866 45.917 84.8521C45.7843 84.7315 45.8145 84.5298 45.909 84.3953C46.0598 84.1798 46.3372 84.0334 46.5503 83.8812C46.6428 83.8139 46.4558 83.7823 46.3995 83.8238V83.8199Z" fill="#B19073"/>
<path d="M52.1655 85.7398C51.5382 85.4135 50.9029 85.0141 50.5169 84.4109C50.1551 83.8473 50.0425 83.0879 50.4124 82.5026C50.4446 82.4531 50.2998 82.4709 50.2777 82.5065C49.9018 83.1057 50.0023 83.8711 50.3722 84.4505C50.7662 85.0655 51.4096 85.4689 52.0489 85.8031C52.0851 85.8209 52.2198 85.7675 52.1655 85.7398Z" fill="#BB9972"/>
<path d="M47.6762 78.8716C47.7184 79.1485 47.7245 79.4293 47.6923 79.7062C47.6903 79.7319 47.6863 79.7576 47.6802 79.7833C47.6762 79.7951 47.6742 79.809 47.6662 79.8209C47.6662 79.8189 47.636 79.8565 47.636 79.8505C47.636 79.8505 47.7064 79.8703 47.6481 79.8485C47.634 79.8426 47.6199 79.8367 47.6079 79.8327C47.5757 79.8189 47.5435 79.805 47.5094 79.7951C47.3887 79.7536 47.242 79.7259 47.1214 79.7872C47.0912 79.8031 47.1776 79.8327 47.1837 79.8347C47.2199 79.8446 47.2721 79.8584 47.3083 79.8406C47.3606 79.8149 47.3968 79.8209 47.4491 79.8406C47.5134 79.8663 47.5757 79.896 47.6441 79.9098C47.7004 79.9217 47.7828 79.9356 47.833 79.898C47.8753 79.8644 47.8793 79.805 47.8853 79.7556C47.9175 79.4748 47.9114 79.192 47.8692 78.9112C47.8612 78.8578 47.6682 78.8499 47.6722 78.8716H47.6762Z" fill="#B19073"/>
<path d="M35.4696 87.9121C36.0706 87.8454 36.3584 86.8133 36.1474 86.3121C35.9222 85.7772 35.0195 85.6035 34.5474 85.9121C32.9576 86.9516 33.412 88.5684 34.8252 89.4677C36.6358 90.6199 38.9637 89.1866 40.5252 88.3121C41.3834 87.8316 42.1798 87.0096 43.1141 86.6732C44.3205 86.2389 45.3758 86.1121 46.6696 86.1121" stroke="white" stroke-width="0.2" stroke-linecap="round"/>
<path d="M22.4696 82.4125C22.4696 83.0695 22.6952 83.8165 23.3251 84.1681C23.944 84.5134 24.565 83.4481 24.764 83.0625C25.5481 81.5434 24.2549 79.8125 22.6585 79.8125C21.1003 79.8125 19.778 80.9794 19.6751 82.5736C19.5423 84.6319 20.8473 86.0624 22.0696 87.5625C22.7359 88.3803 23.6957 88.9371 24.5696 89.5069C25.5073 90.1185 26.6209 90.7818 27.6918 91.1125C29.8386 91.7755 32.0548 92.3225 34.3251 92.0903C36.5652 91.8612 38.703 90.5736 40.6696 89.5903C41.4514 89.1994 42.1946 88.593 42.8807 88.0569C43.9483 87.2228 44.7266 86.9274 46.0696 86.7125" stroke="white" stroke-width="0.2" stroke-linecap="round"/>
<path d="M32.6697 85.8125C31.4975 86.5661 31.55 88.2108 32.1697 89.3125" stroke="white" stroke-width="0.2" stroke-linecap="round"/>
<path d="M19.5697 90.5123C18.4142 90.5123 18.1649 88.6123 19.3864 88.6123C20.2234 88.6123 20.6455 88.7966 21.3253 89.3123C21.9981 89.8227 22.6811 90.3317 23.3753 90.8123C24.7189 91.7425 25.7375 92.0449 27.3697 92.2123" stroke="white" stroke-width="0.2" stroke-linecap="round"/>
<path d="M18.5696 81.5122C17.9765 83.3655 18.4556 84.8067 19.4696 86.4122" stroke="white" stroke-width="0.2" stroke-linecap="round"/>
<path d="M30.8728 86.4497C30.7887 86.6086 30.6978 86.7432 30.6436 86.9198C30.5384 87.2632 30.6549 87.6526 30.7728 87.9747" stroke="white" stroke-width="0.2" stroke-linecap="round"/>
<path d="M91.6655 121.96L87.3061 121.784C61.7334 120.744 36.1238 120.641 10.5397 121.462C5.80563 121.433 1.99065 117.553 2.01985 112.797L2.0651 105.43C2.09066 101.269 3.61644 98.7984 8.42935 97.4044C9.65401 97.0521 10.9089 96.8564 12.1788 96.7469C14.1653 96.587 17.9593 96.274 22.4389 95.9104C41.6347 94.3466 60.9293 94.4651 80.1045 96.2646L90.4314 97.2353C91.6999 97.3526 92.9601 97.5559 94.1804 97.9076C99.1318 99.3224 100.37 101.872 100.344 106.041L100.299 113.409C100.27 118.164 96.4074 121.997 91.6733 121.968L91.6655 121.96Z" fill="#2A3069"/>
<path fill-rule="evenodd" clip-rule="evenodd" d="M91.868 119.966C95.4058 119.891 98.2769 116.994 98.299 113.397L98.3442 106.029C98.356 104.105 98.0651 102.918 97.4847 102.081C96.9204 101.266 95.8611 100.468 93.6309 99.8306L93.6266 99.8294C92.559 99.5217 91.4287 99.3361 90.2472 99.2268L90.2442 99.2265L79.9176 98.2558C79.9175 98.2558 79.9177 98.2558 79.9176 98.2558C60.8587 96.4673 41.6808 96.3495 22.6013 97.9038C20.3221 98.0888 18.2168 98.261 16.4377 98.4065C14.728 98.5463 13.3191 98.6616 12.3451 98.74C11.1661 98.8419 10.048 99.02 8.98384 99.326C6.80807 99.9564 5.67975 100.744 5.05062 101.581C4.42353 102.415 4.07647 103.584 4.06507 105.442L4.01982 112.81C3.99742 116.457 6.9117 119.42 10.5163 119.461C36.1346 118.641 61.7788 118.744 87.3865 119.786C87.3862 119.786 87.3868 119.786 87.3865 119.786L91.868 119.966ZM12.1788 96.7469C10.9089 96.8564 9.65401 97.0521 8.42935 97.4044C3.61644 98.7984 2.09066 101.269 2.0651 105.43L2.01985 112.797C1.99065 117.553 5.80563 121.433 10.5397 121.462C36.1238 120.641 61.7334 120.744 87.3061 121.784L91.6655 121.96L91.6733 121.968C96.4074 121.997 100.27 118.164 100.299 113.409L100.344 106.041C100.37 101.872 99.1318 99.3224 94.1804 97.9076C92.9601 97.5559 91.6999 97.3526 90.4314 97.2353L80.1045 96.2646C60.9293 94.4651 41.6347 94.3466 22.4389 95.9104C20.156 96.0957 18.0512 96.2679 16.2729 96.4133C14.5617 96.5533 13.1529 96.6685 12.1788 96.7469Z" fill="#181C36"/>
<path d="M32.6755 113.762V103.708C32.738 103.697 32.8422 103.687 32.988 103.676C33.1339 103.666 33.3162 103.653 33.5349 103.637C34.0245 103.596 34.4776 103.567 34.8943 103.551C35.311 103.53 35.6938 103.52 36.0427 103.52C36.6521 103.52 37.1443 103.549 37.5193 103.606C37.8943 103.658 38.2485 103.754 38.5818 103.895C38.8839 104.025 39.1365 104.189 39.3396 104.387C39.5427 104.58 39.7094 104.833 39.8396 105.145C39.9177 105.333 39.975 105.538 40.0115 105.762C40.0479 105.981 40.0662 106.223 40.0662 106.489V113.762H32.6755ZM33.9958 112.692H38.738V106.465C38.738 106.127 38.6938 105.846 38.6052 105.622C38.5167 105.392 38.3813 105.208 38.199 105.067C38.0636 104.952 37.8995 104.864 37.7068 104.801C37.5193 104.734 37.3057 104.687 37.0662 104.661C36.9412 104.64 36.7849 104.627 36.5974 104.622C36.4151 104.611 36.2016 104.606 35.9568 104.606C35.7172 104.606 35.4333 104.614 35.1052 104.629C34.7771 104.645 34.4073 104.668 33.9958 104.7V112.692ZM42.7302 113.762V103.676H44.0427V113.762H42.7302ZM46.9177 113.762L46.0662 103.676H47.324L47.8005 109.434C48.1495 109.351 48.4828 109.236 48.8005 109.09C49.1182 108.939 49.3813 108.741 49.5896 108.497C49.8344 108.2 50.0167 107.838 50.1365 107.411C50.2615 106.984 50.3474 106.528 50.3943 106.043L50.613 103.676H51.8396L51.6208 106.036C51.5531 106.734 51.4412 107.333 51.2849 107.833C51.1287 108.327 50.8917 108.76 50.574 109.129C50.2823 109.484 49.9229 109.765 49.4958 109.973C49.074 110.181 48.5583 110.338 47.949 110.442C47.9386 110.442 47.9281 110.444 47.9177 110.45C47.9073 110.45 47.8995 110.45 47.8943 110.45L48.0818 112.7H50.2615C50.9802 112.7 51.6469 112.507 52.2615 112.122C52.8761 111.731 53.3839 111.184 53.7849 110.481C54.1807 109.767 54.4229 108.96 54.5115 108.059L54.9255 103.676H56.1599L55.738 108.075C55.6807 108.674 55.5662 109.236 55.3943 109.762C55.2224 110.283 54.9985 110.77 54.7224 111.223C54.4412 111.681 54.1156 112.085 53.7458 112.434C53.3761 112.783 52.936 113.067 52.4255 113.286C52.0922 113.458 51.7354 113.58 51.3552 113.653C50.9802 113.726 50.5896 113.762 50.1833 113.762H46.9177ZM57.6521 113.762V112.692H60.9333C60.9958 112.405 61.0401 112.124 61.0662 111.848C61.0974 111.572 61.113 111.299 61.113 111.028V106.075C61.113 105.825 61.0818 105.601 61.0193 105.403C60.9568 105.2 60.863 105.033 60.738 104.903C60.6391 104.814 60.5245 104.744 60.3943 104.692C60.2693 104.64 60.1235 104.614 59.9568 104.614C59.7485 104.614 59.5349 104.627 59.3162 104.653C59.0974 104.674 58.8708 104.705 58.6365 104.747V103.637C58.8344 103.596 59.0479 103.567 59.2771 103.551C59.5115 103.53 59.7641 103.52 60.0349 103.52C60.337 103.52 60.6 103.549 60.824 103.606C61.0479 103.663 61.2432 103.744 61.4099 103.848C61.5662 103.947 61.7016 104.069 61.8162 104.215C61.936 104.361 62.0349 104.517 62.113 104.684C62.2172 104.866 62.2953 105.075 62.3474 105.309C62.4047 105.543 62.4333 105.799 62.4333 106.075V111.028C62.4333 111.288 62.4203 111.567 62.3943 111.864C62.3682 112.155 62.337 112.437 62.3005 112.708C62.2641 112.973 62.2276 113.192 62.1912 113.364L62.1208 113.762H57.6521ZM67.2302 113.762L67.9724 109.903L69.4568 104.762H64.0505V101.536H65.363V103.637H70.7537V104.754L69.2927 109.848L68.5505 113.762H67.2302Z" fill="white"/>
<defs>
<clipPath id="clip0_1172_15834">
<rect width="58" height="69" fill="white" transform="translate(19.0696 41.0488)"/>
</clipPath>
</defs>
</svg>
