<svg width="102" height="144" viewBox="0 0 102 144" fill="none" xmlns="http://www.w3.org/2000/svg">
<path d="M50.675 119.285C30.1283 119.285 11.6928 106.232 4.82406 86.8148C2.95078 81.522 1.99927 76.0805 1.99927 70.6093C1.99927 65.1382 2.89131 60.0238 4.64566 54.8797L4.79433 54.4634C11.663 35.0764 30.0986 21.9634 50.675 21.9634C56.0272 21.9634 61.3497 22.8852 66.5236 24.6692C70.2107 25.9478 73.8086 27.7022 77.1686 29.8728C91.0547 38.9122 99.3209 54.1363 99.3209 70.6093C99.3209 72.1258 99.2317 73.7017 99.083 75.3669C96.6448 100.404 75.8305 119.285 50.6452 119.285H50.675Z" fill="#181C36"/>
<path d="M50.6749 116.757C31.1986 116.757 13.7146 104.388 7.20273 85.9821C5.41865 80.9569 4.52661 75.7831 4.52661 70.6092C4.52661 65.4354 5.35918 60.5886 7.02433 55.7122L7.14326 55.3851C13.6849 36.8901 31.1689 24.4907 50.6749 24.4907C55.7595 24.4907 60.8144 25.353 65.7206 27.0479C69.2293 28.267 72.6191 29.9322 75.8007 31.9839C88.9434 40.5475 96.8231 54.9688 96.8231 70.6092C96.8231 72.0662 96.7339 73.553 96.5852 75.0992C94.2956 98.8275 74.5518 116.728 50.6749 116.728V116.757Z" fill="#3D4787"/>
<path d="M74.4323 34.1253C71.4886 32.1925 68.2772 30.6166 64.9172 29.4569C60.457 27.9107 55.6994 27.0484 50.704 27.0484C31.6738 27.0187 15.5576 39.2099 9.58092 56.1884C9.55118 56.3073 9.49171 56.4263 9.43224 56.5452C7.91577 60.9757 7.05347 65.7035 7.05347 70.6395C7.05347 75.5754 7.97524 80.6006 9.58092 85.15C15.5576 102.069 31.6738 114.231 50.6445 114.231C73.3024 114.231 91.8866 96.9547 94.0275 74.8915C94.1761 73.494 94.2356 72.0667 94.2356 70.6395C94.2356 55.3261 86.3262 41.886 74.3728 34.1253H74.4323Z" fill="#2A3069"/>
<g clip-path="url(#clip0_1172_15778)">
<path d="M53.9 100.1C53.6 99.1002 52.7 97.6002 50.8 98.3002H50.7C50.5 98.4002 50.4 98.5002 50.2 98.7002C50.4 98.5002 50.6 98.4002 50.7 98.3002L48.6 98.8002C48.6 98.8002 48.5 98.3002 48 98.3002V98.0002C48.8 91.6002 46 88.2002 44.3 86.7002C44.1 86.6002 44 86.4002 43.9 86.3002C44.1 86.0002 44.2 85.8002 44.2 85.8002C42.8 84.3002 40.8 83.2002 39.6 82.6002C39.5 82.6002 39.5 82.6002 39.5 82.5002C39.5 82.5002 39.4 82.5002 39.4 82.4002C40 82.1002 40.3 81.9002 40.3 81.9002C39.2 79.3002 36.5 75.1002 36.5 75.1002L38.1 75.4002L39.3 75.6002C39.4 75.3002 39.4 75.0002 39.5 74.7002C39.6 74.7002 39.7 74.7002 39.8 74.8002C39.9 74.8002 39.9 74.9002 40 74.9002C40.2 75.0002 40.3 75.0002 40.5 75.1002C43.2 76.3002 44.4 79.9002 44.4 79.9002C44.4 79.9002 43.8 80.3002 43.6 81.2002C43.4 82.0002 44 82.2002 44 82.2002C44.3 83.3002 45.2 83.0002 45.2 83.0002C45.7 83.2002 46.1 82.8002 46.1 82.8002C46.5 82.9002 46.8 82.6002 46.8 82.6002C46.8 82.6002 47.4 82.6002 47.4 81.4002C47.4 80.2002 45.8 79.2002 45.8 79.2002C45.8 79.2002 45 76.7002 42.8 75.0002C42 74.4002 41.3 74.0002 40.7 73.7002H40.6C40.5 73.7002 40.5 73.7002 40.4 73.6002C40.3 73.6002 40.2 73.5002 40 73.5002C39.9 73.5002 39.9 73.5002 39.8 73.4002C39.7 73.4002 39.6 73.3002 39.5 73.3002C39.5 73.0002 39.5 72.8002 39.5 72.7002V72.6002C39.5 72.6002 37.6 72.4002 36.3 72.1002C35.8 72.0002 35.2 71.8002 34.6 71.7002C36 71.6002 37.4 71.2002 38.6 70.6002C41.4 69.0002 42.2 66.6002 42.2 64.5002C44.1 64.2002 43.9 61.9002 42.8 61.4002C42.4 61.2002 42.1 61.3002 41.9 61.4002L42.6 58.0002C42.6 58.0002 43 58.6002 43.6 58.7002C43.9 58.8002 43.9 58.5002 43.9 58.2002C43.9 57.9002 43.8 57.6002 43.8 57.6002C43.8 57.6002 44.9 58.9002 45.8 58.4002C46 58.3002 46.1 58.1002 46.1 57.8002C46.1 57.1002 45.2 56.2002 45.2 56.2002C46.3 56.5002 47.7 56.2002 47.7 55.6002C47.7 55.5002 47.6 55.3002 47.4 55.1002C46.4 54.1002 44.7 54.6002 44.7 54.6002C44.7 54.6002 45.9 53.6002 46 52.9002C46 52.8002 46 52.7002 46 52.6002L45.9 52.5002C45.9 52.5002 45.8 52.5002 45.7 52.5002C45.7 52.5002 45.7 52.5002 45.6 52.5002C44.9 52.6002 43.5 53.4002 43.5 53.4002C43.5 53.4002 44.4 51.9002 44.2 51.7002C44 51.5002 43.2 52.1002 43.2 52.1002C41.8 50.6002 39 47.6002 32.4 47.7002C28.9 47.8002 26.7 48.6002 25.5 49.3002C25.5 49.3002 25.4 49.3002 25.4 49.4002L25.3 49.5002C25.2 49.6002 25.1 49.6002 25 49.7002C25 49.7002 24.9 49.7002 24.9 49.8002C24.8 49.8002 24.8 49.8002 24.7 49.9002C24.7 49.9002 24.7 49.9002 24.6 49.9002C24.6 50.0002 24.5 50.1002 24.4 50.1002C24.3 50.2002 24.3 50.2002 24.2 50.3002L24.1 50.4002C24.1 50.4002 24.1 50.5002 24 50.5002C24 50.5002 24 50.3002 23.4 50.3002C23.1 50.4002 23 50.6002 23 50.8002C23 51.0002 23.1 51.2002 23.1 51.2002C23.1 51.2002 22 50.5002 21.6 50.9002C21.5 50.8002 21.5 50.9002 21.5 51.0002C21.4 51.6002 22.3 53.1002 22.3 53.1002C22.3 53.1002 21.1 52.8002 21.1 53.3002C21.1 53.8002 22.1 53.9002 22.1 53.9002C22.1 53.9002 20.9 54.6002 21 55.2002C21 55.3002 21 55.4002 21.1 55.5002C21.6 56.2002 23.5 55.5002 23.5 55.5002V59.9002C23.3 59.8002 23.2 59.8002 22.9 59.8002C22 59.9002 21.6 61.3002 22.2 62.3002C22.5 63.0002 23.6 63.4002 24 63.5002C24.1 64.8002 24.3 66.2002 24.9 67.5002C25.6 69.1002 27.5 70.4002 29.9 71.1002C27.3 71.9002 24 74.9002 24 74.9002C24 75.0002 24.1 75.1002 24.1 75.2002C24 75.3002 23.8 75.3002 23.6 75.4002C22.8 75.7002 21.8 76.1002 21.4 75.8002C20.8 75.3002 19.2 73.0002 19.2 73.0002C19.2 73.0002 20 73.0002 19.7 71.7002C19.4 70.4002 18.7 68.9002 18 69.3002C17.3 69.6002 17.4 70.1002 17.4 70.1002C17.4 70.1002 16.8 69.9002 16.6 70.3002C16.6 70.4002 16.5 70.5002 16.5 70.6002C16.5 70.6002 15.9 70.8002 15.9 71.4002C15.9 71.5002 15.9 71.6002 15.9 71.7002C15.8 71.8002 15.7 72.2002 16.1 72.5002C16.2 72.6002 16.3 72.7002 16.4 72.7002C16.4 72.7002 16.4 72.7002 16.5 72.7002C16.5 72.7002 16.7 74.1002 18.1 73.6002C18.1 73.6002 19.9 77.3002 21.4 77.5002C22.6 77.7002 24.2 76.9002 24.9 76.5002C25.2 76.9002 25.4 77.3002 25.4 77.3002L26.6 76.5002L27.6 75.8002C27.7 76.8002 29.2 85.6002 29.2 85.6002H29.3C29.5 85.6002 29.6 85.6002 29.8 85.5002C30.2 86.7002 31.3 91.5002 31.3 91.5002H31.4C31.7 91.5002 32 91.5002 32.4 91.5002C32.5 91.5002 32.5 91.5002 32.6 91.5002C32.9 91.5002 33.2 91.5002 33.5 91.4002H33.6H33.7C33.7 91.5002 33.8 91.7002 33.8 91.8002V91.9002C33.8 92.1002 33.8 92.3002 33.7 92.4002C33.2 94.9002 30.2 97.8002 29 98.9002C28.9 98.8002 28.7 98.7002 28.5 98.7002C28.1 98.7002 27.4 100.1 27 100.9C26.8 101.2 26.8 101.4 26.8 101.4C28.9 103.6 33.1 104.2 33.1 104.2L33.2 103.9V103.8C33.7 102.1 32.9 100.9 32.1 100.3C31.4 99.8002 30.8 99.5002 30.8 99.5002C30.8 99.3002 30.7 99.2002 30.6 99.1002C31.8 97.8002 34.7 94.7002 35.2 93.3002C35.4 92.8002 35.5 92.3002 35.5 91.9002V91.8002C35.5 91.6002 35.5 91.4002 35.5 91.2002V91.1002C35.5 91.0002 35.5 90.9002 35.5 90.8002C36.6 90.6002 37.3 90.3002 37.3 90.3002L37.1 86.8002C38.3 87.2002 40.6 89.4002 40.6 89.4002L40.7 89.3002C40.8 89.2002 40.9 89.1002 41 89.1002C41.1 89.0002 41.2 89.0002 41.2 88.9002C41.3 88.8002 41.4 88.7002 41.5 88.6002L41.6 88.5002C41.9 88.1002 42.3 87.7002 42.6 87.3002C42.6 87.3002 42.7 87.3002 42.7 87.4002C42.8 87.4002 42.8 87.5002 42.9 87.5002C46.4 90.0002 46.7 96.3002 46.7 98.1002H46.3L46.1 100.9C46.4 101 46.6 101 46.9 101C46.7 101 46.4 100.9 46.2 100.9V101.2C46.2 101.2 48.9 102.6 54 100.3C54.1 100.8 54 100.5 53.9 100.1ZM53.2 100.5C53.5 100.4 53.7 100.2 53.8 100.2C53.7 100.2 53.5 100.3 53.2 100.5Z" fill="black"/>
<path d="M21.5 67.1002C21.7 67.3002 21.9 67.6002 22.2 67.9002C22.5 68.2002 22.7 68.5002 23 68.8002C23.3 69.1002 23.6 69.4002 23.8 69.7002C24.1 70.0002 24.3 70.2002 24.5 70.4002C24.7 70.6002 24.9 70.8002 25 70.9002C24.9 70.8002 24.7 70.6002 24.5 70.3002C24.5 70.0002 24.2 69.7002 24 69.4002C23.7 69.1002 23.5 68.8002 23.2 68.5002C22.9 68.2002 22.6 67.9002 22.4 67.6002C22.1 67.3002 21.9 67.1002 21.7 66.9002C21.5 66.7002 21.3 66.5002 21.2 66.4002C21.2 66.6002 21.3 66.8002 21.5 67.1002Z" fill="black"/>
<path d="M21.1 69.3999C21.4 69.6999 21.9 69.9999 22.3 70.2999C22.8 70.5999 23.2 70.8999 23.6 71.0999C23.8 71.1999 23.9 71.2999 24 71.2999C24.1 71.3999 24.2 71.3999 24.2 71.3999C24.2 71.3999 24.1 71.3999 24.1 71.2999C24 71.1999 23.9 70.9999 23.7 70.8999C23.4 70.5999 22.9 70.2999 22.5 69.9999C22 69.6999 21.6 69.3999 21.2 69.1999C21 69.0999 20.8 69.0999 20.7 68.9999C20.6 68.8999 20.5 68.8999 20.5 68.8999C20.5 68.8999 20.6 68.8999 20.6 68.9999C20.8 69.0999 20.9 69.1999 21.1 69.3999Z" fill="black"/>
<path d="M45.7999 66.3C45.3999 66.6 45.2 66.8 45 67C44.8 67.2 44.7 67.3 44.7 67.3C44.7 67.3 44.8 67.2 45 67.1C45.2 67 45.5 66.7 45.9 66.5C46.3 66.2 46.7 65.9 47.2 65.6C47.7 65.3 48.0999 64.9 48.5999 64.6C49.0999 64.2 49.6 63.9 50 63.5C50.4 63.2 50.9 62.8 51.2 62.5C51.6 62.2 51.8 62 52 61.8C52.2 61.6 52.2999 61.6 52.2999 61.5C52.2999 61.5 52.2 61.6 52 61.7C51.8 61.8 51.4999 62.1 51.0999 62.3C50.6999 62.6 50.2999 62.9 49.7999 63.2C49.2999 63.5 48.9 63.9 48.4 64.2C47.9 64.6 47.4 64.9 47 65.3C46.6 65.7 46.0999 66.1 45.7999 66.3Z" fill="black"/>
<path d="M49.2001 65.8998C48.6001 66.0998 48 66.2998 47.5 66.4998C47.3 66.5998 47.1 66.6998 47 66.6998C46.9 66.7998 46.8 66.7998 46.8 66.7998C46.8 66.7998 46.9 66.7998 47 66.7998C47.1 66.7998 47.3 66.6998 47.6 66.6998C48.1 66.5998 48.7 66.3998 49.3 66.1998C49.9 65.9998 50.5 65.7998 51 65.5998C51.2 65.4998 51.4 65.3998 51.5 65.3998C51.6 65.2998 51.7001 65.2998 51.7001 65.2998C51.7001 65.2998 51.6 65.2998 51.5 65.2998C51.4 65.2998 51.2001 65.3998 50.9001 65.3998C50.4001 65.4998 49.8001 65.6998 49.2001 65.8998Z" fill="black"/>
<path d="M77.9 104.1C78.8 104.5 79.5 104.6 79.8 104.4C79.3 104.1 78.2 103.4 76.4 102C75 100.9 74.2 100.4 73.7 100.2C73.7 101 75.1 102.7 77.9 104.1Z" fill="black"/>
<path d="M81.1 50.9001C80 50.8001 79.3 51.0001 78.8 51.3001C78.8 51.3001 78.8001 51.3001 78.7001 51.3001C78.6001 51.4001 78.5 51.4001 78.5 51.5001L78.4001 51.6001L78.3 51.7001C76.2 49.3001 73.1 47.9001 70.3 48.0001C65.6 48.3001 62.3 50.3001 59.3 54.9001C60.2 54.6001 61.1 54.5001 61.1 54.5001L59.5 55.6001L59.4001 55.7001L61.6 55.4001C61.6 55.4001 58.4001 60.1001 61.4001 64.9001C63.3001 67.4001 67.2001 68.9001 70.7001 67.8001C70.7001 67.8001 70.7 67.8001 70.6 67.9001C70.4 68.0001 70.2001 68.2001 69.9001 68.5001C69.9001 68.5001 69.9 68.5001 69.8 68.6001C69.7 68.7001 69.6 68.8001 69.5 68.9001C68.7 69.8001 67.6001 71.3001 66.9001 73.3001C67.3001 73.4001 67.6001 73.5001 67.9001 73.6001C67.8001 73.8001 67 77.2001 67.1 77.8001C67.2 78.4001 69 78.6001 71.5 78.4001C71.4 80.7001 70.7001 83.7001 68.9001 87.5001H69C69 87.6001 69.2 87.8001 70.1 88.0001C69.2 89.5001 67.3 93.3001 66.6 99.3001C66.4 99.0001 66.3 98.7001 66.1 98.5001L66 98.6001C65 97.0001 64.1 95.8001 63 96.6001L62.9001 96.7001C62.5001 97.4001 63.2 99.3001 64.6 101C65.4 102 66.1 102.5 66.6 102.7C67 102.8 67.4 102.8 67.6 102.6C67.7 102.5 67.8 102.3 67.8 102C67.9 100.9 67.7001 98.6001 68.7001 95.0001C69.5001 92.1001 70.6001 89.7001 71.4001 88.3001C72.5001 88.4001 74.1 88.5001 76.5 88.5001C77 88.5001 77.4001 88.5001 77.9001 88.6001V88.7001C77.9001 88.7001 77.9001 88.7001 77.9001 88.8001C77.2001 91.0001 76.2 96.0001 78.5 101.9C78.2 101.7 77.9 101.4 77.6 101.2C75.7 99.8001 74.1 99.5001 73.8 100.2C73.8 100.3 73.8 100.3 73.8 100.4C74.3 100.6 75.1 101.1 76.5 102.2C78.3 103.6 79.4001 104.3 79.9001 104.6C80.4001 104.4 80.5 103.7 80 102.3C80 102.2 79.9001 102 79.9001 101.8C79.0001 99.2001 77.9 92.8001 79.2 88.7001V88.6001C81.2 88.7001 82.5 88.9001 83 89.0001C83.1 89.0001 83.2001 89.1001 83.3001 89.1001C83.9001 85.2001 83.3 80.9001 82.1 77.1001C82.5 76.1001 83.1 74.8001 83.2 74.1001C83.3 73.0001 81 70.6001 81 70.6001L80.4001 71.2001C81.3001 70.2001 81.4001 69.8001 81.4001 69.8001C81.4001 69.8001 77.9 67.1001 74 67.2001C73.5 67.2001 73 67.3001 72.6 67.4001C72.5 67.4001 72.4 67.4001 72.3 67.5001C73.2 67.0001 74.1001 66.3001 74.9001 65.3001C76.1001 65.9001 79.7 64.4001 80.6 60.2001C80.6 60.8001 80.6 61.3001 80.5 61.8001C80 64.1001 79 65.7001 79 65.7001L80.4001 66.3001L81.2 64.7001L80.9001 67.0001L82.2 67.4001C82.2 67.4001 83.3 65.0001 83.7 62.7001C84.1 64.3001 83.5 67.3001 83.5 67.3001L85.6 67.7001L86.1 65.7001L86.3001 67.4001H87C89 54.9001 83.4 51.1001 81.1 50.9001ZM80 71.3001L79.9001 71.5001C79.9001 71.5001 81.6 73.4001 81.7 73.7001C81.6 74.2001 81.4001 74.7001 81.3001 75.1001C80.8001 73.9001 80.2 72.8001 79.6 71.8001C79.7 71.6001 79.9 71.5001 80 71.3001ZM68.5 77.3001L69.3 74.0001C69.8 74.2001 69.9001 74.2001 69.9001 74.2001L70.6 72.7001C70.6 72.7001 71.7001 74.1001 71.7001 77.3001H68.5ZM76.9001 62.3001C76.3001 62.3001 75.9001 61.6001 75.9001 61.6001C75.9001 61.6001 76.3001 62.4001 76.9001 62.3001Z" fill="black"/>
<path d="M64.4001 71.2001C64.6001 71.0001 64.7 70.9001 64.8 70.8001C64.9 70.7001 64.9001 70.6001 64.9001 70.6001C64.9001 70.6001 64.8001 70.6001 64.7001 70.7001C64.7001 70.8001 64.5001 71.0001 64.4001 71.2001C64.0001 71.4001 63.5 71.8001 63 72.3001C62.5 72.7001 62.1 73.2001 61.8 73.5001C61.6 73.7001 61.5001 73.8001 61.4001 73.9001C61.4001 74.0001 61.3 74.0001 61.3 74.0001C61.3 74.0001 61.4 74.0001 61.5 73.9001C61.6 73.8001 61.8001 73.7001 61.9001 73.5001C62.3001 73.2001 62.7001 72.8001 63.2001 72.4001C63.7001 72.0001 64.1001 71.5001 64.4001 71.2001Z" fill="black"/>
<path d="M61.3999 70.5H61.2999C61.1999 70.5 61.0999 70.6 60.8999 70.6C60.5999 70.7 60.1999 70.9 59.7999 71.1C59.3999 71.3 58.9999 71.5 58.7999 71.6C58.6999 71.7 58.4999 71.8 58.4999 71.8C58.3999 71.8 58.3999 71.9 58.3999 71.9H58.4999C58.5999 71.9 58.6999 71.8 58.8999 71.8C59.1999 71.7 59.5999 71.5 59.9999 71.3C60.3999 71.1 60.7999 70.9 60.9999 70.8C61.0999 70.7 61.2999 70.6 61.2999 70.6C61.3999 70.5 61.3999 70.5 61.3999 70.5Z" fill="black"/>
<path d="M60 67.6C60.2 67.6 60.4 67.5 60.4 67.5C60.3 67.5 60.2 67.5 60 67.6C59.7 67.6 59.4 67.6 59 67.6C58.6 67.6 58.1 67.7 57.5 67.7C57 67.8 56.3999 67.8 55.7999 67.9C55.1999 68 54.6999 68 54.0999 68.1C53.5999 68.2 53.0999 68.2 52.5999 68.3C52.1999 68.4 51.7999 68.4 51.5999 68.4C51.3999 68.4 51.2 68.5 51.2 68.5C51.2 68.5 51.2999 68.5 51.5999 68.5C51.8999 68.5 52.1999 68.5 52.5999 68.4C52.9999 68.4 53.4999 68.3 54.0999 68.3C54.5999 68.2 55.1999 68.2 55.7999 68.1C56.3999 68 56.9 68 57.5 67.9C58 67.8 58.5 67.8 59 67.7C59.4 67.7 59.7 67.6 60 67.6Z" fill="black"/>
<path d="M55.4 63.5998C55.7 63.6998 56.1 63.8998 56.4 64.0998C56.8 64.2998 57.2 64.3998 57.5 64.4998C57.6 64.4998 57.8 64.5998 57.9 64.5998C58 64.5998 58 64.5998 58 64.5998C58 64.5998 58 64.5998 57.9 64.4998C57.8 64.4998 57.7 64.3998 57.6 64.2998C57.3 64.1998 56.9 63.9998 56.6 63.7998C56.2 63.5998 55.8 63.4998 55.5 63.3998C55.4 63.3998 55.2 63.2998 55.1 63.2998C55 63.2998 55 63.2998 55 63.2998C55 63.2998 55 63.2998 55.1 63.3998C55.2 63.4998 55.3 63.4998 55.4 63.5998Z" fill="black"/>
</g>
<path d="M41.1302 85.7119C41.1302 85.7119 47.1219 88.7848 46.0463 97.9115L45.9219 98.9574H44.9085C44.9085 98.9574 45.276 89.5226 40.114 87.2497L41.1275 85.7146L41.1302 85.7119Z" fill="#F8DBC0"/>
<path d="M41.1302 85.7119C41.1302 85.7119 47.1219 88.7848 46.0463 97.9115L45.9219 98.9574H44.9085C44.9085 98.9574 45.276 89.5226 40.114 87.2497L41.1275 85.7146L41.1302 85.7119Z" fill="#F8DBC0"/>
<path d="M41.4137 88.0524C41.0245 87.7308 40.5948 87.4578 40.1165 87.247L41.1299 85.7119C41.1299 85.7119 41.6651 85.9903 42.3867 86.6173C42.0894 87.1146 41.7488 87.5821 41.4137 88.0524Z" fill="#E3C2A3"/>
<path d="M33.3274 90.29C33.3274 90.29 34.0355 92.0116 33.3274 93.7305C32.622 95.452 28.1951 100.03 28.1951 100.03L26.5654 99.6006C26.5654 99.6006 32.6193 94.4683 31.7274 91.3035L33.3247 90.29H33.3274Z" fill="#F8DBC0"/>
<path d="M33.3274 90.29C33.3274 90.29 34.0355 92.0116 33.3274 93.7305C32.622 95.452 28.1951 100.03 28.1951 100.03L26.5654 99.6006C26.5654 99.6006 32.6193 94.4683 31.7274 91.3035L33.3247 90.29H33.3274Z" fill="#F8DBC0"/>
<path d="M33.3274 90.29C33.3274 90.29 34.0355 92.0116 33.3274 93.7305C32.622 95.452 28.1951 100.03 28.1951 100.03L26.5654 99.6006C26.5654 99.6006 32.6193 94.4683 31.7274 91.3035L33.3247 90.29H33.3274Z" fill="#F8DBC0"/>
<path d="M31.744 92.6467C31.8386 92.1765 31.8467 91.7224 31.7278 91.3035L33.325 90.29C33.325 90.29 33.6926 91.19 33.6304 92.3359C33.0142 92.5224 32.3818 92.6008 31.744 92.6467Z" fill="#E3C2A3"/>
<path d="M51.9082 100.058C52.0487 100.463 52.1028 100.769 52.1028 100.769C47.0029 103.042 44.2976 101.628 44.2976 101.628L44.3192 101.282C48.1461 102.182 51.9325 100.134 51.9109 100.055L51.9082 100.058Z" fill="#3B8BC0"/>
<path d="M48.6756 98.2415L48.8108 98.2091C50.7161 97.5523 51.5675 99.0901 51.9053 100.058C51.9215 100.114 49.9162 101.214 47.346 101.463C47.1649 99.3928 48.073 98.5631 48.6756 98.2415Z" fill="#2C6DA6"/>
<path d="M44.3164 101.284L44.4813 98.4733L45.4947 98.4003C46.3245 97.8165 46.5704 98.7381 46.5704 98.7381L48.6784 98.2381C48.0757 98.5597 47.1704 99.3894 47.3487 101.46C46.392 101.552 45.3542 101.527 44.3164 101.281V101.284Z" fill="#D02E26"/>
<path d="M31.2548 104.238L31.1143 104.516C31.1143 104.516 26.936 103.87 24.8469 101.689C24.8469 101.689 24.9442 101.476 25.0956 101.165C26.8631 102.827 29.6954 103.8 31.2548 104.235V104.238Z" fill="#3B8BC0"/>
<path d="M30.1849 100.628C31.0119 101.298 31.8308 102.433 31.2984 104.149L31.2552 104.238C30.2038 103.944 28.5715 103.406 27.0769 102.576C27.7445 100.844 29.1849 100.576 30.1876 100.63L30.1849 100.628Z" fill="#2C6DA6"/>
<path d="M26.5655 98.9573C27.0574 98.9249 27.333 99.4789 27.333 99.4789C27.333 99.4789 28.5303 98.6762 28.8681 99.86C28.8681 99.86 29.5275 100.098 30.1816 100.628C29.1789 100.573 27.7384 100.841 27.0709 102.573C26.352 102.173 25.6628 101.706 25.0898 101.165C25.4763 100.379 26.2087 98.9762 26.5628 98.9546L26.5655 98.9573Z" fill="#D02E26"/>
<path d="M36.7057 82.0549C36.7057 82.0549 40.1461 83.5927 42.1434 85.7116C42.1434 85.7116 40.4542 88.5683 38.7624 89.8601C38.7624 89.8601 36.4273 87.6467 35.2598 87.2467L35.4139 90.7493C35.4139 90.7493 32.0329 91.8249 29.36 91.6709C29.36 91.6709 27.8844 85.4332 27.7627 85.3711C27.6384 85.3089 36.703 82.0522 36.703 82.0522L36.7057 82.0549Z" fill="#784F30"/>
<g style="mix-blend-mode:multiply" opacity="0.4">
<path d="M36.3789 85.2012L35.8059 86.4309C36.768 86.7525 38.7815 88.0903 39.8571 88.8362C39.5058 89.2227 39.1355 89.5794 38.7653 89.8632C38.7653 89.8632 36.4302 87.6497 35.2627 87.2498L34.9546 86.3065L36.3789 85.2012Z" fill="#634126"/>
<path d="M36.7057 82.0552C36.7057 82.0552 37.0354 82.2038 37.5516 82.4687C36.7219 83.1903 34.649 84.7227 31.0545 85.7118C31.0545 85.7118 31.8302 88.2496 31.6815 90.8117C31.6653 91.0765 31.6626 91.3252 31.6626 91.5657C30.9005 91.663 30.1032 91.717 29.36 91.6738C29.36 91.6738 27.8844 85.4362 27.7627 85.374C27.6384 85.3118 36.703 82.0552 36.703 82.0552H36.7057Z" fill="#634126"/>
</g>
<path d="M41.1303 52.2504C41.1303 52.2504 41.9302 51.6044 42.0816 51.8207C42.2356 52.0369 41.3438 53.5422 41.3438 53.5422C41.3438 53.5422 43.5869 52.1909 43.8032 52.8044C44.0194 53.4179 42.4681 54.7719 42.4681 54.7719C42.4681 54.7719 44.2031 54.3098 45.2193 55.2935C46.2328 56.2773 44.4194 56.7691 43.0383 56.4313C43.0383 56.4313 44.5139 58.061 43.6518 58.5826C42.7924 59.1042 41.6546 57.7826 41.6546 57.7826C41.6546 57.7826 41.9924 58.9799 41.4384 58.8583C40.8843 58.7367 40.487 58.1205 40.487 58.1205L39.7357 61.696L21.4039 60.6096V55.4773C21.4039 55.4773 19.4985 56.1827 18.9769 55.507C18.4553 54.8314 20.0228 53.9098 20.0228 53.9098C20.0228 53.9098 19.0391 53.7882 19.0391 53.2639C19.0391 52.7395 20.2688 53.0801 20.2688 53.0801C20.2688 53.0801 19.131 51.1747 19.5634 50.7747C19.9931 50.3748 21.0985 51.1126 21.0985 51.1126C21.0985 51.1126 20.7904 50.4072 21.3741 50.3748C21.9579 50.345 22.0038 50.5585 22.0038 50.5585C22.0038 50.5612 23.9254 47.8262 30.4387 47.7316C36.952 47.6397 39.8411 50.5883 41.1303 52.2477V52.2504Z" fill="#AC4827"/>
<g opacity="0.6">
<g style="mix-blend-mode:multiply">
<path d="M20.0228 53.9103C20.0228 53.9103 19.0391 53.7886 19.0391 53.2643C19.0391 52.74 20.2688 53.0806 20.2688 53.0806C20.2688 53.0806 19.131 51.1752 19.5634 50.7752C19.9931 50.3752 21.0985 51.1131 21.0985 51.1131C21.0985 51.1131 20.7904 50.4077 21.3741 50.3752C21.9579 50.3455 22.0038 50.559 22.0038 50.559C22.0038 50.559 22.4173 49.9698 23.5092 49.332C23.2065 49.7239 22.9362 50.1104 22.8173 50.3996C22.4606 51.259 23.247 51.7293 23.247 51.7293C23.247 51.7293 20.6877 51.5644 21.0822 52.4671C21.4795 53.367 23.247 52.7535 23.247 52.7535C23.247 52.7535 22.2444 53.9427 23.2957 54.8832C24.347 55.8264 25.274 53.3265 25.274 53.3265C25.274 53.3265 25.2335 54.8021 25.847 55.0075C26.4605 55.2129 27.0361 52.3455 27.0361 52.3455C27.0361 52.3455 27.7334 54.4346 28.7712 54.7156C29.809 54.9967 29.3928 52.0671 29.3928 52.0671C29.3928 52.0671 31.0117 54.6805 32.1197 54.7156C33.2278 54.7508 32.19 52.4563 32.19 52.4563C32.19 52.4563 33.1008 54.3103 34.4602 54.9265C35.8223 55.5399 36.0088 53.1643 36.0088 53.1643C36.0088 53.1643 36.5818 56.348 37.9358 56.4426C39.2871 56.5372 39.379 55.5426 39.379 55.5426C39.379 55.5426 41.5411 56.7723 41.9086 55.7075C42.2762 54.6427 40.033 54.7183 40.033 54.7183C40.033 54.7183 42.4005 54.1103 43.1383 53.2076C43.3572 52.94 43.4248 52.7671 43.4167 52.6563C43.6113 52.6373 43.7572 52.6752 43.8032 52.8076C44.0194 53.4211 42.4681 54.7751 42.4681 54.7751C42.4681 54.7751 44.2031 54.313 45.2193 55.2967C46.2328 56.2805 44.4194 56.7723 43.0383 56.4345C43.0383 56.4345 44.5139 58.0642 43.6518 58.5858C42.7924 59.1074 41.6546 57.7858 41.6546 57.7858C41.6546 57.7858 41.9924 58.9831 41.4384 58.8615C40.8843 58.7398 40.487 58.1236 40.487 58.1236L39.7357 61.6992L21.4039 60.6128V55.4805C21.4039 55.4805 19.4985 56.1859 18.9769 55.5102C18.4553 54.8346 20.0228 53.913 20.0228 53.913V53.9103Z" fill="#AC4827"/>
</g>
</g>
<path d="M36.7058 73.1765C36.7058 73.1765 38.4868 73.1144 40.7624 74.8981C43.0353 76.6818 43.8056 79.1385 43.8056 79.1385C43.8056 79.1385 45.465 80.1223 45.4353 81.352C45.4055 82.5816 44.8218 82.5816 44.8218 82.5816C44.8218 82.5816 44.4839 82.8573 44.084 82.7654C44.084 82.7654 43.6542 83.133 43.1624 82.9816C43.1624 82.9816 42.2408 83.3195 41.9651 82.1817C41.9651 82.1817 41.3813 81.9654 41.503 81.0763C41.6246 80.1844 42.2705 79.7547 42.2705 79.7547C42.2705 79.7547 40.6111 74.9927 36.9247 74.5927L36.7085 73.1792L36.7058 73.1765Z" fill="#F8DBC0"/>
<path d="M38.622 73.6278C38.5058 74.0818 38.4436 74.5439 38.3922 75.0115C37.9436 74.798 37.4544 74.6493 36.922 74.5899L36.7058 73.1764C36.7058 73.1764 37.4652 73.1548 38.622 73.6278Z" fill="#E3C2A3"/>
<path d="M41.7654 81.9899C42.0221 82.1223 42.3437 82.325 42.6275 82.1467C42.6572 82.1277 42.6816 82.1034 42.7005 82.0764C42.7221 82.0277 42.741 81.9737 42.7464 81.9088C42.7464 81.898 42.7464 81.8845 42.7491 81.8737C42.7356 81.644 42.5653 81.3602 42.4816 81.2278C42.5626 81.3413 42.6978 81.5359 42.7653 81.7305C42.7816 81.6034 42.7978 81.4791 42.7843 81.3494C42.7843 81.344 42.7897 81.3467 42.7924 81.3494C42.8762 81.7088 42.9221 82.2358 42.541 82.4358C42.5167 82.4493 42.4924 82.4115 42.5032 82.3899C42.5383 82.3277 42.5735 82.2791 42.6086 82.2277C42.3383 82.3683 41.9681 82.1926 41.7492 82.025C41.7329 82.0115 41.7411 81.9791 41.7654 81.9899Z" fill="#BB936E"/>
<path d="M42.6384 82.9276C43.66 83.1141 43.7545 81.7952 43.5248 81.1168C43.5248 81.1114 43.5302 81.1114 43.5302 81.1168C43.7275 81.5709 43.7572 81.9709 43.6221 82.4519C43.4924 82.906 43.0654 83.1303 42.633 82.9654C42.614 82.9573 42.614 82.9249 42.6384 82.9303V82.9276Z" fill="#BB936E"/>
<path d="M43.7977 82.8579C44.3788 82.6011 44.4436 81.5255 44.1707 81.0417C44.5355 81.5444 44.5058 82.6633 43.8058 82.8822C43.7923 82.8876 43.7788 82.866 43.795 82.8579H43.7977Z" fill="#BB936E"/>
<path d="M44.4868 82.655C45.0516 82.4091 44.9759 81.4469 44.83 80.9821C44.83 80.9767 44.8354 80.9767 44.8354 80.9821C45.0543 81.4226 45.1867 82.5712 44.4976 82.6901C44.4814 82.6928 44.4678 82.6658 44.4868 82.6577V82.655Z" fill="#BB936E"/>
<path d="M22.3875 75.0501C22.3875 75.0501 19.9903 76.3392 19.3768 75.8176C18.7633 75.296 17.2255 73.0528 17.2255 73.0528C17.2255 73.0528 18.0255 73.0501 17.7174 71.7772C17.4093 70.5043 16.7336 68.9989 16.058 69.3367C15.3823 69.6746 15.4445 70.1043 15.4445 70.1043C15.4445 70.1043 14.6148 69.8286 14.5229 70.6881C14.5229 70.6881 13.7553 70.8989 13.9391 71.7772C13.9391 71.7772 13.5094 72.4394 14.5229 72.9312C14.5229 72.9312 14.7634 74.3798 16.0904 73.8528C16.0904 73.8528 17.8714 77.5392 19.4389 77.7554C21.0065 77.9716 23.2496 76.5581 23.2496 76.5581L22.3902 75.0528L22.3875 75.0501Z" fill="#F8DBC0"/>
<path d="M21.6389 76.5962C21.5038 76.2827 21.3876 75.9232 21.2498 75.5773C21.8687 75.3314 22.3876 75.0503 22.3876 75.0503L23.247 76.5557C23.247 76.5557 22.6767 76.9151 21.9092 77.2448C21.8227 77.0286 21.7308 76.8124 21.6389 76.5962Z" fill="#E3C2A3"/>
<path d="M13.8823 71.5397C13.9202 71.7073 13.9039 71.8802 14.0039 72.0316C14.1093 72.191 14.285 72.2694 14.4526 72.3532C14.5499 72.4018 14.685 72.4343 14.8039 72.4207C14.8391 72.6072 14.7877 72.864 14.531 72.8099C14.385 72.7802 14.2796 72.6694 14.1364 72.6315C14.1012 72.6207 14.0958 72.6721 14.1202 72.6883C14.3201 72.8261 14.5039 73.0126 14.7634 72.8856C14.858 72.8396 14.9012 72.7478 14.9174 72.6505C14.9336 72.5505 14.8985 72.4883 14.8553 72.4126C14.9688 72.3883 15.0553 72.3126 15.0472 72.1586C15.2607 72.3126 15.5525 72.437 15.685 72.2072C15.685 72.2072 15.685 72.2072 15.6877 72.2099C15.8471 72.3856 16.0796 72.4694 16.312 72.4234C16.4904 72.3883 16.5552 72.2045 16.5255 72.0424C16.5039 71.9262 16.4633 71.8235 16.4012 71.7235C16.3282 71.61 16.2795 71.4937 16.2255 71.3721C16.2741 71.3586 16.3201 71.3505 16.3633 71.3424C16.4363 71.3316 16.3958 71.237 16.339 71.2316C16.1147 71.2208 15.9877 71.2721 15.7823 71.3451C15.4147 71.537 15.2985 71.3532 15.4363 70.7857C15.4769 70.7532 15.5174 70.7208 15.5579 70.6884C15.6742 70.5911 15.8012 70.51 15.939 70.4451C16.8579 70.1749 17.4498 71.0046 17.6768 71.7775C17.6768 71.7856 17.6903 71.7856 17.6903 71.7775C17.6065 71.0992 17.0822 70.3532 16.4444 70.2586C16.4579 70.1749 16.4309 70.0803 16.4201 69.9992C16.4174 69.9722 16.3525 69.7965 16.3552 69.7938V69.7911C16.3471 69.783 16.3471 69.783 16.3363 69.7776C16.3228 69.7695 16.312 69.7857 16.3174 69.7965C16.3822 69.9262 16.3768 70.0992 16.3714 70.2505C16.1309 70.2343 15.8769 70.31 15.6228 70.5208C15.6012 70.537 15.5742 70.5613 15.5444 70.5884C15.5552 70.4776 15.5174 70.3613 15.5282 70.2505C15.5417 70.0992 15.5471 69.9451 15.5579 69.7938C15.5579 69.7884 15.5498 69.7857 15.5498 69.7911C15.4904 70.0614 15.3931 70.3613 15.4904 70.6343C15.2715 70.8316 14.9526 71.1721 15.1796 71.3883C15.2607 71.4667 15.3525 71.5046 15.4525 71.5208C15.4255 71.5451 15.4174 71.5748 15.4309 71.6127C15.4309 71.637 15.4363 71.6586 15.4417 71.6802C15.4498 71.7586 15.4661 71.8316 15.4904 71.9072C15.5174 71.991 15.5715 72.0694 15.6282 72.137C15.2958 72.4829 14.8174 71.7694 14.7364 71.4559C14.6418 71.0802 14.6418 70.71 14.6337 70.3262C14.6337 70.3235 14.6282 70.3208 14.6282 70.3262C14.5553 70.883 14.4418 71.5883 14.8985 72.0316C14.9363 72.0667 14.985 72.1072 15.0363 72.1451C14.9661 72.5505 14.4499 72.264 14.2553 72.1532C14.058 72.0397 14.0202 71.8829 13.9823 71.6748C13.9661 71.5802 13.9823 71.5856 13.9364 71.5181C13.9202 71.4964 13.885 71.5073 13.8904 71.5343L13.8823 71.5397ZM15.4661 71.5262C15.6769 71.5478 15.9174 71.464 16.1309 71.4019C16.1633 71.4856 16.1877 71.5721 16.2363 71.6505C16.2768 71.7181 16.3282 71.7856 16.3579 71.8586C16.4201 72.0126 16.4768 72.2937 16.2309 72.318C16.012 72.3397 15.8417 72.2505 15.7174 72.1099C15.7147 72.0964 15.7039 72.0856 15.6931 72.0829C15.5688 71.9289 15.4958 71.7208 15.4661 71.5235V71.5262Z" fill="#BB936E"/>
<path d="M30.8385 71.485C30.8385 71.485 32.8979 71.7607 34.1871 72.0985C35.4789 72.4363 37.414 72.5904 37.414 72.5904C37.414 72.5904 37.5681 74.2795 37.2302 75.5714L34.4033 74.9876C34.4033 74.9876 37.1086 79.1983 38.1816 81.809C38.1816 81.809 32.5574 85.2494 27.2414 85.7116C27.2414 85.7116 25.6738 76.9848 25.6117 75.9389L23.4307 77.5064C23.4307 77.5064 22.3226 75.9714 22.001 74.8957C22.001 74.8957 25.3117 71.8688 27.9035 71.2175C30.4953 70.5634 30.8358 71.4877 30.8358 71.4877L30.8385 71.485Z" fill="#F6CB4F"/>
<path d="M36.0386 75.3283C36.1521 74.3797 36.1899 73.4229 36.3548 72.4824C36.9629 72.5554 37.4142 72.5932 37.4142 72.5932C37.4142 72.5932 37.5683 74.2824 37.2304 75.5742L36.0413 75.3283H36.0386Z" fill="#2C6DA6"/>
<path d="M29.4737 72.9579C28.9008 72.4309 28.59 71.7985 28.417 71.1012C30.5412 70.6877 30.8358 71.4823 30.8358 71.4823C30.8358 71.4823 31.5953 71.585 32.479 71.739C32.6601 73.4903 30.6521 74.0416 29.471 72.9552L29.4737 72.9579Z" fill="#2C6DA6"/>
<path d="M22.955 74.0903C23.3577 74.7146 23.8144 75.3011 24.1874 75.9524C24.3252 76.193 24.4577 76.4362 24.5901 76.6767L23.4307 77.5091C23.4307 77.5091 22.3226 75.9741 22.001 74.8984C22.001 74.8984 22.3685 74.5633 22.955 74.0903Z" fill="#2C6DA6"/>
<path d="M31.6684 71.3013C31.6684 71.3013 31.8846 72.8688 30.7171 72.7445C29.5496 72.6229 29.3955 71.0229 29.3955 71.0229L31.6684 71.2986V71.3013Z" fill="#E3C2A3"/>
<path d="M18.8713 66.2583C18.8713 66.2583 18.9335 66.3394 19.0443 66.4799C19.1578 66.6177 19.3146 66.8204 19.5119 67.0502C19.7119 67.2799 19.9389 67.5556 20.1929 67.8393C20.4443 68.1258 20.7199 68.4258 20.9956 68.7258C21.274 69.0231 21.5523 69.3177 21.8199 69.5906C22.0848 69.8636 22.3415 70.1122 22.5577 70.3284C22.7739 70.5447 22.9631 70.7149 23.0928 70.8365C23.2226 70.9582 23.3009 71.0257 23.3009 71.0257C23.3009 71.0257 23.2388 70.9446 23.128 70.8041C23.0145 70.6663 22.8577 70.4636 22.6604 70.2339C22.4604 70.0041 22.2334 69.7285 21.9793 69.4447C21.728 69.1582 21.4523 68.8582 21.1767 68.5609C20.8983 68.2636 20.6199 67.9691 20.3524 67.6961C20.0875 67.4231 19.8308 67.1745 19.6146 66.9583C19.3983 66.7421 19.2092 66.5718 19.0794 66.4502C18.9497 66.3286 18.8713 66.261 18.8713 66.261V66.2583Z" fill="white"/>
<path d="M18.5471 68.9097C18.5471 68.9097 18.5985 68.9556 18.6931 69.034C18.7877 69.1097 18.9201 69.2232 19.0849 69.3502C19.412 69.6042 19.8633 69.9286 20.3227 70.234C20.7849 70.5393 21.2551 70.8285 21.62 71.0312C21.8011 71.1339 21.9578 71.2123 22.0632 71.2691C22.1713 71.3258 22.2335 71.3555 22.2335 71.3555C22.2335 71.3555 22.1821 71.3069 22.0875 71.2312C21.993 71.1555 21.8605 71.042 21.6957 70.915C21.366 70.661 20.9173 70.3367 20.4579 70.0313C19.9957 69.7259 19.5255 69.4394 19.1606 69.234C18.9795 69.1313 18.8228 69.0529 18.7174 68.9962C18.6093 68.9394 18.5471 68.9124 18.5471 68.9124V68.9097Z" fill="white"/>
<path d="M50.3489 61.5259C50.3489 61.5259 50.2218 61.6097 50.0029 61.7556C49.7867 61.9042 49.4678 62.1123 49.1003 62.3745C48.7327 62.6367 48.2976 62.9366 47.8381 63.2664C47.3787 63.5961 46.8949 63.9555 46.4112 64.315C45.9301 64.6771 45.4463 65.0393 45.0004 65.3852C44.5518 65.7284 44.141 66.0609 43.7869 66.3419C43.4302 66.6203 43.1437 66.8663 42.9383 67.0311C42.7356 67.2014 42.6194 67.2987 42.6194 67.2987C42.6194 67.2987 42.7464 67.2149 42.9653 67.0689C43.1815 66.9203 43.5004 66.7122 43.868 66.45C44.2356 66.1879 44.6734 65.8906 45.1301 65.5582C45.5896 65.2285 46.0733 64.869 46.5571 64.5096C47.0382 64.1474 47.5219 63.7853 47.9679 63.4393C48.4165 63.0961 48.8273 62.7637 49.1813 62.4826C49.5381 62.2042 49.8246 61.9583 50.03 61.7934C50.2327 61.6232 50.3462 61.5259 50.3462 61.5259H50.3489Z" fill="white"/>
<path d="M49.6543 65.2075C49.6543 65.2075 49.5732 65.221 49.4354 65.2508C49.2975 65.2832 49.1002 65.3237 48.8651 65.3832C48.3949 65.4994 47.776 65.6751 47.1625 65.8697C46.549 66.0642 45.9409 66.2805 45.4922 66.4561C45.2652 66.5426 45.0814 66.6237 44.9517 66.6777C44.822 66.7318 44.749 66.7669 44.749 66.7669C44.749 66.7669 44.8301 66.7534 44.9679 66.7237C45.1058 66.6913 45.3031 66.6507 45.5382 66.5913C46.0084 66.475 46.6273 66.2994 47.2408 66.1048C47.8543 65.9102 48.4597 65.694 48.9111 65.5183C49.1354 65.4318 49.3219 65.3508 49.4516 65.2967C49.5813 65.2427 49.6543 65.2075 49.6543 65.2075Z" fill="white"/>
<g style="mix-blend-mode:multiply">
<path d="M37.3897 74.6664C37.3572 74.9717 37.3059 75.2825 37.2302 75.5717L34.4033 74.988L33.0195 73.5312L37.3897 74.6664Z" fill="#F6CB4F"/>
</g>
<g style="mix-blend-mode:multiply">
<path d="M30.7252 85.0467C29.5901 85.3683 28.409 85.6115 27.2415 85.7142C27.2415 85.7142 25.674 76.9875 25.6118 75.9415V74.374C25.6118 74.374 29.3063 79.9306 30.7225 85.0467H30.7252Z" fill="#F6CB4F"/>
</g>
<g style="mix-blend-mode:multiply">
<path d="M27.9062 71.2175C30.498 70.5634 30.8385 71.4877 30.8385 71.4877C30.8385 71.4877 32.8979 71.7634 34.1871 72.1012C34.2763 72.1255 34.3681 72.1472 34.4627 72.1688C34.4627 72.1688 29.4926 71.112 27.3521 72.2526C25.7117 73.1255 23.4415 75.1011 22.4739 75.9741C22.2793 75.6119 22.1037 75.2335 22.0037 74.8984C22.0037 74.8984 25.3144 71.8715 27.9062 71.2202V71.2175Z" fill="#F6CB4F"/>
</g>
<path d="M39.3792 62.1742C39.3792 62.1742 39.6251 60.9769 40.7007 61.4661C41.7764 61.9579 42.0223 64.3227 40.0413 64.5389L39.3819 62.1742H39.3792Z" fill="#E3C2A3"/>
<path d="M22.2335 60.7312C22.2335 60.7312 21.7416 59.7177 20.8497 59.8096C19.9579 59.9015 19.5579 61.3447 20.1119 62.2987C20.666 63.25 22.2308 63.5906 22.2308 63.5906V60.7339L22.2335 60.7312Z" fill="#E3C2A3"/>
<path d="M39.5329 56.6452C39.5329 56.6452 38.8573 59.2262 39.5329 61.0694C40.2086 62.9126 41.1923 67.8908 36.4601 70.5934C31.7278 73.2988 24.355 70.961 22.9389 67.5827C21.5254 64.2018 21.9551 60.3938 22.6308 58.7344C23.3064 57.0749 23.6767 56.3588 23.6767 56.3588C23.6767 56.3588 24.8145 56.0615 24.9064 55.2318C24.9064 55.2318 24.6604 56.4912 25.3685 56.7669C26.0739 57.0425 26.9658 54.3696 26.9658 54.3696C26.9658 54.3696 27.8576 56.1831 29.0846 56.0588C30.3143 55.9344 29.9765 54.3696 29.9765 54.3696C29.9765 54.3696 31.3278 56.1209 32.4953 56.1831C33.6629 56.2452 33.1088 54.9534 33.1088 54.9534C33.1088 54.9534 34.3682 56.4885 35.0142 56.3371C35.6601 56.1831 35.8141 54.9534 35.8141 54.9534C35.8141 54.9534 37.1357 58.7019 39.5329 56.6425V56.6452Z" fill="#F8DBC0"/>
<path d="M31.8817 66.7236C31.8817 66.7236 30.3764 66.3857 29.0845 65.4641C27.7927 64.5425 26.1657 63.9588 25.336 65.0641C24.5063 66.1695 25.9198 69.6721 29.1467 70.5342C30.7142 70.9531 32.2952 70.8856 33.7952 70.2964C34.5573 69.9964 35.4384 69.564 35.8465 68.8154C36.1924 68.1803 36.2708 66.7722 35.1681 66.8479C33.8168 66.9398 32.8844 67.0452 31.879 66.7263L31.8817 66.7236Z" fill="#D14448"/>
<path d="M29.6495 67.1991C28.8144 66.8667 27.809 66.4613 27.1793 65.7965C26.7982 65.3938 26.7577 64.9397 26.8199 64.4722C27.5496 64.5424 28.3712 64.9505 29.0901 65.464C30.3819 66.3856 31.8873 66.7234 31.8873 66.7234C32.8926 67.0424 33.8196 66.9397 35.171 66.8478C34.4683 68.9558 31.036 67.7504 29.6549 67.2018L29.6495 67.1991Z" fill="white"/>
<path d="M31.5522 70.7878C30.7549 70.8337 29.9495 70.7473 29.1468 70.5337C28.4658 70.3527 27.8685 70.0527 27.3523 69.6824C28.7793 68.9149 31.2657 69.1041 31.5522 70.7878Z" fill="#C32A24"/>
<path d="M31.4519 63.075C31.4519 63.075 31.5033 63.0561 31.5898 63.0291C31.6789 63.0047 31.806 62.9696 31.9546 62.9561C32.0276 62.9561 32.1087 62.9507 32.1843 62.9696C32.26 62.9831 32.3303 63.0183 32.3816 63.0723C32.4411 63.121 32.4708 63.202 32.5032 63.2831C32.5113 63.3128 32.5276 63.3804 32.5384 63.4237C32.5384 63.4669 32.5492 63.5047 32.5438 63.5507C32.5438 63.6399 32.5222 63.7263 32.4897 63.8101C32.4492 63.8885 32.4086 63.9696 32.3465 64.0317C32.2303 64.1642 32.0816 64.2588 31.9465 64.3236C31.8087 64.3858 31.6843 64.4209 31.5952 64.4398C31.5033 64.4561 31.4519 64.4642 31.4519 64.4642C31.4519 64.4642 31.5033 64.4777 31.5979 64.4885C31.6925 64.4966 31.8303 64.4966 31.9924 64.4561C32.0735 64.4344 32.16 64.4047 32.2465 64.3615C32.333 64.3155 32.4222 64.2615 32.5005 64.1831C32.6654 64.0371 32.7816 63.802 32.787 63.5561C32.7924 63.4966 32.7762 63.4291 32.7708 63.3669C32.7573 63.3074 32.7492 63.275 32.7249 63.2047C32.6816 63.0939 32.6195 62.9858 32.5195 62.9102C32.4276 62.8291 32.3087 62.7939 32.206 62.7885C32.1006 62.7777 32.0087 62.7993 31.9276 62.8183C31.7654 62.8642 31.6465 62.9345 31.5681 62.9858C31.4898 63.0372 31.4492 63.075 31.4492 63.075H31.4519Z" fill="#BB936E"/>
<path d="M40.9167 62.7286C40.9167 62.7286 40.841 62.6745 40.7113 62.6637C40.5843 62.6475 40.3924 62.6853 40.2492 62.8096C40.2113 62.8394 40.187 62.8772 40.1546 62.9123C40.1248 62.9475 40.1086 62.9907 40.0897 63.0259C40.0573 63.1042 40.041 63.1799 40.041 63.2475C40.0329 63.3123 40.0492 63.3664 40.0546 63.4042C40.0627 63.4421 40.0708 63.461 40.0708 63.461C40.0708 63.461 40.0843 63.4421 40.1032 63.4123C40.1248 63.3826 40.1437 63.3367 40.1762 63.288C40.2059 63.2394 40.241 63.188 40.2789 63.134C40.3221 63.0853 40.36 63.034 40.4113 62.9961C40.4573 62.9502 40.514 62.9205 40.5681 62.8826C40.6248 62.8529 40.6816 62.8232 40.7329 62.8015C40.8356 62.7556 40.9194 62.7259 40.9194 62.7259L40.9167 62.7286Z" fill="#BB936E"/>
<path d="M20.3904 60.9505C20.3904 60.9505 20.5093 60.9776 20.6498 61.0451C20.685 61.064 20.7228 61.083 20.7579 61.1073C20.7958 61.1289 20.8309 61.1586 20.8687 61.1884C20.939 61.2505 21.0147 61.3181 21.0741 61.3992C21.1066 61.437 21.139 61.4776 21.166 61.5208C21.1931 61.564 21.2255 61.6046 21.2471 61.6478C21.2687 61.6911 21.3012 61.7316 21.3201 61.7721C21.3417 61.8127 21.3633 61.8532 21.3849 61.8883C21.4255 61.9613 21.4552 62.0262 21.4822 62.0694C21.5066 62.1127 21.5255 62.1397 21.5255 62.1397C21.5255 62.1397 21.5282 62.11 21.5309 62.0586C21.5309 62.0073 21.5363 61.9316 21.5201 61.8451C21.5066 61.7586 21.4876 61.6559 21.4444 61.5505C21.4066 61.4451 21.3444 61.337 21.2687 61.2397C21.1904 61.1424 21.0931 61.0586 20.9904 61.0019C20.8877 60.9424 20.7796 60.9154 20.6877 60.9046C20.5012 60.8857 20.3904 60.9451 20.3904 60.9451V60.9505Z" fill="#BB936E"/>
<path d="M36.706 59.0095C36.706 59.0095 36.7006 58.8338 36.6033 58.5852C36.5763 58.5257 36.5492 58.4581 36.5087 58.3906C36.4682 58.323 36.4249 58.2527 36.3628 58.1906C36.3357 58.1554 36.3033 58.1257 36.2682 58.096C36.233 58.069 36.2006 58.0311 36.1547 58.0122L36.0249 57.9446C35.979 57.9284 35.9276 57.9176 35.879 57.9068C35.8303 57.8933 35.7817 57.896 35.7303 57.8987C35.6817 57.9041 35.6304 57.8987 35.5844 57.9122C35.4952 57.9419 35.4006 57.9609 35.3304 58.0095C35.2574 58.0554 35.1817 58.0933 35.125 58.1446C35.0682 58.196 35.0142 58.2446 34.9682 58.2906C34.9169 58.3338 34.8871 58.3852 34.852 58.4284C34.8223 58.4716 34.7952 58.5095 34.7709 58.5392C34.7277 58.6014 34.7061 58.6392 34.7061 58.6392C34.7061 58.6392 34.7412 58.6149 34.8061 58.5743C34.8358 58.5527 34.8736 58.5257 34.9169 58.496C34.9601 58.4662 35.0033 58.4284 35.0574 58.3987C35.1114 58.3662 35.1682 58.3338 35.2277 58.296C35.2871 58.2581 35.3574 58.2392 35.4195 58.2068C35.4844 58.1662 35.5601 58.1717 35.6276 58.1473C35.6628 58.1365 35.6979 58.1473 35.7331 58.1419C35.7682 58.1419 35.8033 58.1365 35.8357 58.15C36.1141 58.1906 36.3357 58.4554 36.4763 58.6527C36.6168 58.8581 36.7033 59.0095 36.7033 59.0095H36.706Z" fill="#6B2311"/>
<path d="M30.5899 58.0154C30.5899 58.0154 30.5547 57.8182 30.4196 57.5506C30.3872 57.483 30.3439 57.4128 30.3007 57.3398C30.2493 57.2695 30.2034 57.1884 30.1358 57.1209C30.0737 57.0479 30.0034 56.9749 29.9223 56.9128C29.8466 56.8425 29.7466 56.7966 29.6575 56.7425C29.5548 56.7074 29.4548 56.6614 29.3467 56.656C29.2926 56.6506 29.2413 56.6398 29.1872 56.6425C29.1359 56.6506 29.0845 56.656 29.0332 56.6614C28.9305 56.6641 28.8467 56.7209 28.7602 56.7479C28.6737 56.7749 28.6115 56.8371 28.5467 56.8776C28.4845 56.9209 28.4278 56.9614 28.3872 57.0074C28.3467 57.0533 28.3089 57.0912 28.2791 57.1236C28.2224 57.1884 28.1899 57.2263 28.1899 57.2263C28.1899 57.2263 28.2332 57.202 28.3089 57.1614C28.344 57.1398 28.3899 57.1128 28.4386 57.083C28.4872 57.0479 28.5494 57.0263 28.6116 56.9993C28.6764 56.9749 28.7413 56.9317 28.8197 56.9209C28.8953 56.9074 28.971 56.8695 29.0548 56.8776C29.0953 56.8776 29.1359 56.8749 29.1791 56.8722C29.2196 56.8722 29.2602 56.8858 29.3034 56.8912C29.3872 56.8939 29.4656 56.9398 29.5467 56.9668C29.6223 57.0101 29.7061 57.0425 29.771 57.102L29.8764 57.1803C29.9088 57.2101 29.9412 57.2398 29.9737 57.2695C30.1007 57.3884 30.2061 57.5155 30.298 57.6263C30.4737 57.8506 30.5845 58.0181 30.5845 58.0181L30.5899 58.0154Z" fill="#6B2311"/>
<path d="M36.4356 61.7506C36.4032 61.6912 36.3789 61.629 36.3383 61.5723L36.2167 61.4074C36.1789 61.348 36.1275 61.302 36.0708 61.2588C36.014 61.2182 35.9708 61.1588 35.9032 61.1317C35.8383 61.0993 35.7762 61.0642 35.7086 61.0372L35.4951 60.9885C35.4221 60.9858 35.3492 60.9885 35.2762 60.9885C35.2032 60.9966 35.133 61.0128 35.0627 61.0263C34.9924 61.0426 34.9276 61.0723 34.86 61.0939C34.7924 61.1155 34.733 61.1561 34.6708 61.1858C34.606 61.2155 34.5519 61.2588 34.4924 61.2966C34.433 61.3317 34.3816 61.3777 34.3249 61.4182C34.2681 61.4588 34.2195 61.5074 34.1681 61.5534C34.0681 61.6479 33.9735 61.7425 33.8817 61.856L33.5627 62.2452L34.0276 62.0344L34.1411 61.9831C34.1789 61.9669 34.2141 61.9425 34.2546 61.9344C34.333 61.9128 34.4114 61.8804 34.4897 61.875C34.5303 61.8723 34.5708 61.8587 34.6087 61.8615H34.7303C34.8087 61.8723 34.8924 61.8804 34.9681 61.9101C35.0086 61.9209 35.0465 61.9344 35.0843 61.9533C35.1222 61.9696 35.16 61.9858 35.1951 62.0101C35.2681 62.0533 35.3384 62.102 35.4032 62.156C35.5357 62.2668 35.6519 62.3993 35.7519 62.5452C35.6897 62.3777 35.5897 62.2236 35.4708 62.0858C35.4438 62.0506 35.4086 62.0182 35.3762 61.9858C35.3438 61.9506 35.3059 61.9263 35.2681 61.8966C35.233 61.8669 35.1924 61.8425 35.1519 61.8182C35.1113 61.7912 35.0708 61.7696 35.0249 61.7533C34.9384 61.7128 34.8438 61.6912 34.7492 61.6723L34.6033 61.6588C34.5546 61.6533 34.5087 61.6642 34.46 61.6669C34.4384 61.6669 34.4168 61.6723 34.3979 61.675C34.4708 61.6128 34.5465 61.5507 34.6249 61.4966C34.6789 61.4642 34.7276 61.4209 34.7843 61.3939C34.8384 61.3669 34.8924 61.329 34.9492 61.3074C35.0059 61.2858 35.0627 61.2561 35.1195 61.2398C35.1789 61.2263 35.2357 61.2074 35.2951 61.1966L35.4735 61.1831L35.6519 61.2074C35.7086 61.2236 35.7627 61.2507 35.8221 61.2696C35.8843 61.2831 35.9275 61.3317 35.9816 61.3642C36.0356 61.3966 36.087 61.4317 36.1329 61.4804L36.2735 61.6155C36.3194 61.6615 36.3545 61.7182 36.3951 61.7696L36.5194 61.9263L36.4329 61.7452L36.4356 61.7506Z" fill="#9E7F5E"/>
<path d="M29.8848 60.8995L29.8523 60.8103L29.8037 60.7265C29.7685 60.6725 29.7415 60.613 29.701 60.5644L29.5713 60.4211C29.5253 60.3752 29.4713 60.3428 29.4199 60.3022C29.3713 60.2617 29.3118 60.2374 29.255 60.2076C29.1983 60.1779 29.1415 60.1509 29.0821 60.1347C29.0226 60.1157 28.9632 60.0914 28.9037 60.0833C28.7821 60.0563 28.6632 60.0428 28.5416 60.0347C28.4199 60.0347 28.301 60.0347 28.1821 60.0455C28.0632 60.059 27.947 60.0779 27.8308 60.1022C27.7146 60.1266 27.601 60.1563 27.4902 60.1995C27.7227 60.1725 27.9551 60.1563 28.1848 60.1698C28.301 60.1698 28.4145 60.1833 28.5253 60.1995C28.6361 60.2184 28.747 60.2374 28.8524 60.2725C28.9064 60.2833 28.9551 60.3103 29.0064 60.3293C29.0578 60.3482 29.1064 60.3698 29.1523 60.3995C29.1983 60.4265 29.2496 60.4482 29.2875 60.486C29.328 60.5211 29.3713 60.5509 29.4091 60.5887L29.5118 60.7076C29.5469 60.7482 29.5658 60.7968 29.5929 60.8428L29.5983 60.8509C29.501 60.8049 29.401 60.7671 29.2983 60.7373C29.1956 60.7049 29.0875 60.6779 28.9821 60.659C28.874 60.6374 28.7659 60.6319 28.6551 60.6265C28.5443 60.6265 28.4362 60.6292 28.328 60.6509C28.274 60.6563 28.2199 60.6725 28.1686 60.6887C28.1172 60.7049 28.0632 60.713 28.0145 60.7401L27.8686 60.8103C27.8227 60.8373 27.7767 60.8698 27.7335 60.8995C27.6389 60.9509 27.5713 61.04 27.4956 61.1076C27.5902 61.0563 27.6686 60.9887 27.7659 60.9509C27.8118 60.9292 27.8578 60.9076 27.9064 60.8887L28.0524 60.8482C28.101 60.8319 28.1524 60.8292 28.201 60.8211C28.2497 60.813 28.2983 60.8049 28.3497 60.8049C28.4497 60.7995 28.5497 60.8049 28.6497 60.8103C28.7497 60.8238 28.8469 60.84 28.9442 60.8644C29.0415 60.886 29.1388 60.9157 29.2307 60.9509C29.3253 60.986 29.4172 61.0238 29.5091 61.0671C29.5983 61.1103 29.6902 61.159 29.7685 61.2076L30.0631 61.3941L29.955 61.0752L29.8929 60.8941L29.8848 60.8995Z" fill="#9E7F5E"/>
<path d="M24.8739 61.3555C24.7956 61.6392 25.2874 62.0203 25.9685 62.2095C26.6495 62.3987 27.2684 62.3203 27.3441 62.0365C27.4225 61.7527 26.9333 61.369 26.2496 61.1825C25.5685 60.996 24.9496 61.0717 24.8712 61.3582L24.8739 61.3555Z" fill="#F1CCC1"/>
<path d="M36.0114 63.7935C36.0465 64.0854 36.6465 64.2529 37.3465 64.1665C38.0492 64.0827 38.5897 63.7746 38.5546 63.4827C38.5194 63.1908 37.9222 63.0232 37.2168 63.107C36.5141 63.1935 35.9736 63.4989 36.0087 63.7908L36.0114 63.7935Z" fill="#F1CCC1"/>
<path d="M67.0505 87.4741C67.0505 87.4741 67.4046 88.4227 74.5584 88.374C78.7502 88.5389 81.1204 88.8956 81.1204 88.8956C81.1204 88.8956 74.5827 84.8687 67.0505 87.4741Z" fill="#833EC4"/>
<path d="M64.5509 99.4522C64.3807 99.1901 64.1915 98.8712 63.9834 98.4982L64.1564 98.3955C64.3158 98.6577 64.478 98.9306 64.6401 99.209L64.7212 99.3441L64.5509 99.4495V99.4522Z" fill="#EFD9C1"/>
<path d="M70.2695 86.887L68.6371 87.1572C68.6371 87.1572 65.5075 91.2436 64.6345 99.3947C65.2102 100.281 65.7534 101.092 65.9345 101.822C66.0615 100.749 65.848 98.4623 66.8155 94.8327C68.056 90.1707 70.2695 86.8843 70.2695 86.8843V86.887Z" fill="#EFD9C1"/>
<path d="M60.959 96.5894C60.5293 97.292 61.2887 99.2244 62.6238 100.87C63.4292 101.865 64.121 102.397 64.6724 102.584C64.4697 101.589 62.8914 99.1406 61.9535 97.6164C61.5373 96.9407 61.2076 96.6677 60.959 96.5894Z" fill="#F6CB4F"/>
<path d="M64.0724 98.4496C63.0859 96.8281 62.1535 95.6281 61.0806 96.447C61.032 96.4875 60.9914 96.5362 60.959 96.5929C61.2076 96.674 61.5373 96.9443 61.9535 97.6199C62.8914 99.1442 64.4724 101.593 64.6724 102.587C65.1075 102.736 65.4561 102.671 65.7075 102.45C65.8345 102.339 65.8967 102.131 65.9345 101.825C65.7561 101.095 65.2102 100.285 64.6345 99.3982C64.4508 99.1172 64.2589 98.7902 64.0697 98.4496H64.0724Z" fill="#71AF5F"/>
<path d="M71.6887 100.235C71.6833 101.006 73.113 102.727 75.8589 104.103C76.7643 104.465 77.421 104.6 77.8075 104.43C77.2723 104.116 76.2075 103.43 74.3805 102.019C72.9563 100.919 72.1428 100.441 71.686 100.238L71.6887 100.235Z" fill="#F6CB4F"/>
<path d="M77.9589 102.168C77.9156 102.025 77.867 101.874 77.8129 101.714C76.8562 98.8928 75.5995 91.5957 77.4643 87.6013L76.3346 87.3418C76.3346 87.3418 73.3834 93.6389 76.4643 101.671C76.1562 101.417 75.8535 101.185 75.559 100.977C76.0265 101.466 76.8751 102.158 77.9535 102.171L77.9589 102.168Z" fill="#EFD9C1"/>
<path d="M77.9585 102.168C76.8802 102.157 76.0316 101.465 75.564 100.973C73.6506 99.614 72.075 99.2302 71.7344 100.019C71.702 100.079 71.6885 100.152 71.6885 100.236C72.1452 100.438 72.9587 100.917 74.383 102.017C76.2073 103.427 77.2748 104.114 77.8099 104.427C78.2991 104.214 78.3612 103.511 77.9585 102.165V102.168Z" fill="#71AF5F"/>
<path d="M68.6372 87.1604C68.6372 87.1604 68.4075 87.4604 68.0588 88.055C68.4372 88.0117 68.9804 87.9847 69.5723 88.055C69.9885 87.309 70.2696 86.8901 70.2696 86.8901L68.6372 87.1604Z" fill="#E8CAAA"/>
<path d="M77.4639 87.6013L76.3342 87.3418C76.3342 87.3418 76.1234 87.7931 75.8748 88.6012C76.1991 88.6445 76.618 88.7066 77.0261 88.7769C77.1477 88.3607 77.2909 87.9688 77.4612 87.6013H77.4639Z" fill="#E8CAAA"/>
<path d="M76.0181 52.0344C76.0181 52.0344 76.7586 50.6993 79.0801 50.8993C81.4017 51.0966 87.0339 54.9019 85.0583 67.3502L84.3178 67.3988L84.0719 65.7178L83.5773 67.6934L81.453 67.2988C81.453 67.2988 82.1449 64.2854 81.699 62.7044C81.3044 65.0746 80.2179 67.4475 80.2179 67.4475L78.9342 67.0529L79.2315 64.7313L78.391 66.3124L77.0072 65.7205C77.0072 65.7205 80.8612 59.545 76.0181 52.0344Z" fill="#734B2D"/>
<g style="mix-blend-mode:multiply" opacity="0.5">
<path d="M76.8237 51.3047C76.2426 51.6344 76.0156 52.0344 76.0156 52.0344C78.4155 55.7559 78.6777 59.1504 78.3345 61.6287C80.7263 56.4829 77.8291 52.4749 76.8237 51.3047Z" fill="#943D2B"/>
</g>
<path d="M77.5291 71.8153C79.0371 70.3073 79.2398 69.7019 79.2398 69.7019C79.2398 69.7019 75.7724 66.9776 71.8455 67.0722C72.059 68.3398 71.8914 70.3505 71.8914 70.3505L69.9374 69.5397L68.9996 71.4424C68.4456 70.4721 68.1267 69.2289 67.9834 68.5398C67.1105 69.4046 65.8376 70.9694 65.0403 73.3396C67.6564 74.0774 67.824 74.2125 67.824 74.2125L68.4942 72.7369C68.4942 72.7369 71.8968 77.1962 66.9673 87.5094C70.5888 86.5041 76.0724 86.9067 81.2019 88.9688C82.056 83.0825 80.3479 76.0422 77.5291 71.818V71.8153Z" fill="#C688F5"/>
<path d="M69.9374 69.2881C70.7131 69.2205 70.5807 68.0314 70.405 67.2422C69.9158 67.3476 69.4266 67.5043 68.9402 67.7233C68.9402 67.7233 68.8239 67.8016 68.6348 67.9557C68.7834 68.5043 69.1402 69.3583 69.9374 69.2881Z" fill="#CCA884"/>
<path d="M71.8425 67.0747C71.3668 67.0855 70.8858 67.1396 70.402 67.2423C70.5777 68.0314 70.7128 69.2206 69.9345 69.2882C69.1372 69.3584 68.7777 68.5017 68.6318 67.9558C68.4642 68.0909 68.2426 68.2855 67.9805 68.5422C68.1264 69.2314 68.4426 70.4746 68.9967 71.4448L69.9345 69.5422L71.8885 70.353C71.8885 70.353 72.0533 68.3395 71.8425 67.0747Z" fill="#F6CB4F"/>
<path d="M71.7749 73.6014C71.7749 73.8474 71.5776 74.0447 71.3317 74.0447C71.0857 74.0447 70.8884 73.8474 70.8884 73.6014C70.8884 73.3555 71.0857 73.1582 71.3317 73.1582C71.5776 73.1582 71.7749 73.3555 71.7749 73.6014Z" fill="#F6CB4F"/>
<path d="M71.0722 71.3583C71.0722 71.6042 70.875 71.8015 70.629 71.8015C70.3831 71.8015 70.1858 71.6042 70.1858 71.3583C70.1858 71.1123 70.3831 70.915 70.629 70.915C70.875 70.915 71.0722 71.1123 71.0722 71.3583Z" fill="#F6CB4F"/>
<path d="M74.9399 62.3286C76.5183 62.2908 76.4777 59.9044 75.3642 59.5963C74.2481 59.2882 73.2859 60.7124 73.2859 60.7124C73.2859 60.7124 73.2859 60.3287 73.2103 59.1341C71.7103 58.5179 68.632 54.7856 67.8996 52.8613C65.7456 54.1694 61.5133 55.0937 59.5512 55.4018C59.5512 55.4018 56.3189 60.1341 59.3972 64.9447C62.0511 68.523 68.978 69.9851 72.7103 65.1366C73.9156 63.1043 73.94 61.634 73.94 61.634C73.94 61.634 74.3237 62.3637 74.9399 62.3259V62.3286Z" fill="#EFD9C1"/>
<path d="M78.672 57.7507C78.5558 51.7481 73.0154 47.7456 68.2831 48.0158C63.5508 48.2861 60.2428 50.3617 57.3186 54.9021C58.2429 54.6318 59.1645 54.5183 59.1645 54.5183L57.3943 55.7507L59.5483 55.4048C61.5104 55.0967 65.7427 54.1724 67.8966 52.8643C68.6264 54.7886 71.7046 58.5209 73.2073 59.1371C73.283 60.329 73.283 60.7154 73.283 60.7154C73.283 60.7154 74.2451 59.2911 75.3613 59.5992C76.4775 59.9073 76.5153 62.2911 74.937 62.3316C74.3208 62.3694 73.937 61.6397 73.937 61.6397C73.937 61.6397 73.91 63.1072 72.7073 65.1423C74.0532 65.8747 78.7855 63.7586 78.672 57.7561V57.7507Z" fill="#734B2D"/>
<path d="M74.3504 61.4639C74.3504 61.4639 74.0558 60.8099 74.5261 60.4964C74.9936 60.1829 75.1747 60.6694 75.1747 60.6694C75.1747 60.6694 74.8693 60.3829 74.5693 60.7694C74.2666 61.1558 74.3477 61.4639 74.3477 61.4639H74.3504Z" fill="#BB936E"/>
<path d="M65.9996 60.1668C65.9482 60.1344 65.8996 60.1046 65.8455 60.0776C65.7942 60.0506 65.7428 60.0236 65.6888 60.0019C65.6374 59.9776 65.5834 59.956 65.5266 59.9425C65.4725 59.9263 65.4212 59.9047 65.3644 59.8965L65.1996 59.8641L65.032 59.856C65.005 59.856 64.978 59.8506 64.9482 59.856L64.8672 59.8668L64.7023 59.8857L64.2915 59.9317L64.6212 59.7101C64.678 59.6722 64.7374 59.6344 64.7969 59.5993C64.8266 59.583 64.8536 59.5614 64.8861 59.5479L64.9807 59.5074C65.0428 59.483 65.105 59.4533 65.1699 59.4371C65.2347 59.4209 65.2996 59.402 65.3644 59.3857C65.4969 59.3614 65.6266 59.3425 65.759 59.3398C65.8915 59.3344 66.0239 59.3398 66.1536 59.3641C66.0239 59.3885 65.8969 59.4101 65.7725 59.4425C65.7104 59.456 65.6482 59.4695 65.5861 59.4884C65.5239 59.5074 65.4644 59.5209 65.405 59.5425C65.3455 59.5668 65.2861 59.5857 65.2266 59.6074C65.1672 59.6263 65.1131 59.6614 65.0563 59.683L64.9726 59.7209C64.9428 59.7317 64.9212 59.7533 64.8942 59.7695C64.8428 59.802 64.7915 59.8371 64.7401 59.8668L64.6591 59.6911L64.8482 59.6749L64.9428 59.6668C64.9753 59.6668 65.005 59.6722 65.0374 59.6749L65.2239 59.6993C65.2834 59.7155 65.3428 59.7371 65.4023 59.756C65.4617 59.7722 65.5158 59.802 65.5725 59.8317C65.6293 59.8587 65.6806 59.8884 65.7293 59.9263C65.832 59.9938 65.9212 60.0803 65.9942 60.1722L65.9996 60.1668Z" fill="#BB936E"/>
<path d="M59.6674 60.2556C59.7404 60.1961 59.8215 60.1421 59.9053 60.0989C59.9891 60.0529 60.0809 60.0205 60.1728 59.988C60.2215 59.9772 60.2674 59.9664 60.3161 59.9583C60.3647 59.9448 60.4161 59.9448 60.4647 59.9448C60.5161 59.9448 60.5674 59.9394 60.6188 59.9529C60.6701 59.9637 60.7215 59.9745 60.7728 59.9853L60.6539 60.1232L60.5431 59.9718C60.5242 59.9475 60.508 59.9205 60.489 59.8962L60.4242 59.8313C60.3782 59.7908 60.3404 59.7367 60.2863 59.7043C60.235 59.6691 60.1863 59.6286 60.135 59.5962C60.0782 59.5691 60.0242 59.5367 59.9674 59.507L59.7891 59.4367C59.7269 59.4232 59.6647 59.3989 59.5999 59.3881C59.535 59.3746 59.4702 59.3637 59.4026 59.3637C59.435 59.3556 59.4675 59.3421 59.5026 59.334L59.6053 59.3232C59.6404 59.3178 59.6756 59.3232 59.708 59.3232C59.7431 59.3232 59.7783 59.3232 59.8134 59.3286C59.881 59.3421 59.9512 59.3529 60.0188 59.3691L60.2161 59.4448C60.2782 59.4773 60.3377 59.5178 60.3999 59.5529C60.4647 59.5854 60.508 59.6448 60.562 59.6908L60.6404 59.7637C60.6647 59.7908 60.6836 59.8205 60.7052 59.8502L60.8242 60.0286L60.9566 60.2232L60.7052 60.1664C60.6647 60.1583 60.6269 60.1475 60.5863 60.134C60.5485 60.1178 60.5053 60.1205 60.462 60.1178C60.4188 60.1178 60.3782 60.107 60.3323 60.1151C60.289 60.1178 60.2458 60.1205 60.1999 60.1259L60.0674 60.1475C60.0215 60.1556 59.9782 60.1691 59.935 60.1772C59.8458 60.1989 59.7566 60.2259 59.6674 60.2556Z" fill="#BB936E"/>
<path d="M62.3862 61.561C62.3862 61.561 62.3511 61.5529 62.2889 61.534C62.2268 61.5177 62.1376 61.4961 62.0349 61.4799C61.9835 61.4718 61.9268 61.4664 61.8727 61.4691C61.8187 61.4691 61.7646 61.4853 61.7349 61.5069C61.7322 61.5123 61.716 61.5286 61.7214 61.5205L61.6943 61.5637C61.6916 61.5799 61.6835 61.5988 61.6781 61.6286C61.67 61.6853 61.6673 61.7475 61.6781 61.8096C61.6862 61.8718 61.7052 61.9367 61.7268 61.9988C61.7511 62.0583 61.7781 62.1177 61.8106 62.1745C61.843 62.2285 61.8781 62.2799 61.9133 62.3285C61.9511 62.3718 61.9862 62.4204 62.0241 62.4556C62.097 62.5312 62.1673 62.5907 62.2159 62.6312C62.2673 62.6718 62.2943 62.6961 62.2943 62.6961C62.2943 62.6961 62.2592 62.688 62.1943 62.6664C62.1322 62.6447 62.043 62.6096 61.9484 62.5447C61.8997 62.515 61.8511 62.4745 61.7997 62.4312C61.7511 62.3853 61.7025 62.3339 61.6592 62.2745C61.5727 62.1556 61.5025 62.0069 61.4781 61.8448C61.4646 61.7637 61.4673 61.6772 61.4835 61.5934C61.4889 61.5718 61.4944 61.5502 61.5025 61.5286C61.5133 61.5042 61.5268 61.4799 61.5376 61.4583L61.57 61.4178C61.5998 61.3853 61.6133 61.3826 61.6349 61.3637C61.7214 61.3123 61.8079 61.3178 61.8781 61.3232C61.9484 61.3313 62.0105 61.3502 62.0646 61.3718C62.1727 61.4123 62.2511 61.4637 62.3078 61.5015C62.3619 61.5394 62.3889 61.5637 62.3889 61.5637L62.3862 61.561Z" fill="#BB936E"/>
<path d="M61.3159 64.0181C61.3159 64.0181 65.7752 64.7883 68.9265 62.0073C69.6967 65.2261 67.7563 67.2207 64.4672 66.7018C62.5564 66.3991 61.3159 64.0181 61.3159 64.0181Z" fill="#892530"/>
<path d="M63.9969 64.8589C65.005 64.9534 67.7292 64.5751 67.5535 62.9697C65.886 63.8913 64.0969 64.1048 62.8645 64.1156C62.9834 64.3805 63.2807 64.7886 63.9969 64.8562V64.8589Z" fill="white"/>
<path d="M66.3455 66.707C67.24 66.5476 67.9508 66.1314 68.4238 65.5152C67.059 65.1666 66.5346 66.1179 66.3455 66.707Z" fill="#DD7D73"/>
<path d="M59.8076 57.2885C59.8076 57.2885 60.2967 56.9939 60.721 57.3047C60.8994 57.3858 60.7697 56.8804 60.3454 56.8804C59.9211 56.8804 59.6103 57.2885 59.8076 57.2885Z" fill="#B5412E"/>
<path d="M64.9345 57.3051C64.9345 57.3051 65.4237 57.0105 65.848 57.3213C66.0264 57.4024 65.8966 56.897 65.4723 56.897C65.048 56.897 64.7372 57.3051 64.9345 57.3051Z" fill="#B5412E"/>
<path d="M60.1673 63.3833C60.1673 63.3833 60.2564 63.4292 60.3808 63.4941C60.4456 63.5238 60.5159 63.5671 60.5943 63.6049C60.6726 63.6428 60.751 63.6914 60.8348 63.7292C60.9159 63.7752 60.997 63.8157 61.078 63.8536C61.1564 63.8941 61.2267 63.9346 61.2915 63.9644C61.4186 64.0265 61.5023 64.0887 61.5023 64.0887C61.5023 64.0887 61.4024 64.0941 61.2564 64.0752C61.1807 64.0698 61.0997 64.0454 61.0105 64.0184C60.9672 64.0022 60.9213 63.9914 60.8753 63.9725C60.8321 63.9509 60.7862 63.9292 60.7429 63.9103C60.6537 63.8671 60.5726 63.813 60.497 63.7563C60.4213 63.7022 60.3591 63.64 60.3078 63.5887C60.2078 63.4779 60.1646 63.386 60.1646 63.386L60.1673 63.3833Z" fill="#BB936E"/>
<g style="mix-blend-mode:multiply">
<path d="M74.894 70.4312C75.0481 70.5879 75.1967 70.7501 75.34 70.9149C75.4832 71.0798 75.6237 71.2473 75.7616 71.4176C76.0373 71.7581 76.3021 72.1041 76.5562 72.4608L76.4345 72.4419C76.6129 72.3311 76.7913 72.223 76.9724 72.1176C77.1534 72.0122 77.3399 71.9122 77.5264 71.8176C77.3669 71.9554 77.2021 72.0879 77.0372 72.2149C76.8724 72.3419 76.7021 72.4689 76.5318 72.5878L76.4643 72.6338L76.4102 72.5662C76.1345 72.2284 75.8697 71.8798 75.6156 71.5257C75.4886 71.35 75.3643 71.169 75.2427 70.9879C75.1211 70.8068 75.0049 70.6203 74.894 70.4312Z" fill="#C688F5"/>
<path d="M68.0049 71.8823C68.0049 71.8823 68.0643 71.9202 68.1319 71.9877C68.1995 72.0553 68.2751 72.1553 68.3373 72.2607C68.3968 72.3688 68.4454 72.4823 68.467 72.5769C68.4914 72.6688 68.4941 72.7391 68.4941 72.7391C68.4941 72.7391 68.4346 72.7012 68.367 72.6337C68.2995 72.5661 68.2238 72.4661 68.1616 72.3607C68.1022 72.2526 68.0562 72.1391 68.0319 72.0445C68.0076 71.9526 68.0049 71.8823 68.0049 71.8823Z" fill="#C688F5"/>
</g>
<path d="M67.2535 73.9905L66.4643 77.3229H70.2534C70.2534 77.3229 70.1615 75.7175 70.6155 75.7175C71.0696 75.7175 70.9479 76.9905 70.9479 76.9905C70.9479 76.9905 71.8263 75.3851 72.2803 75.5959C72.7344 75.8067 71.6128 77.1121 71.6128 77.1121C71.6128 77.1121 73.2181 76.3851 73.3695 76.7472C73.5208 77.1121 71.8236 77.5364 71.8236 77.5364C71.8236 77.5364 73.3398 77.4769 73.4911 77.7499C73.6425 78.0229 71.7641 78.0823 71.7641 78.0823C71.7641 78.0823 73.3695 78.4769 73.2479 78.9607C73.1263 79.4444 71.2182 78.4445 71.2182 78.4445C71.2182 78.4445 71.0966 78.7472 70.1263 78.3526C67.3697 78.685 65.3697 78.5039 65.2184 77.8364C65.067 77.1688 66.0076 73.5933 66.0076 73.5933L67.2508 73.9878L67.2535 73.9905Z" fill="#EFD9C1"/>
<path d="M62.9777 70.623C62.9777 70.623 62.9264 70.6825 62.8345 70.7825C62.7399 70.8825 62.6102 71.0284 62.4453 71.196C62.1183 71.5338 61.6724 71.9717 61.2156 72.3987C60.7562 72.823 60.2886 73.2365 59.9265 73.5392C59.7481 73.6905 59.5913 73.8094 59.4859 73.8959C59.3778 73.9824 59.3157 74.0283 59.3157 74.0283C59.3157 74.0283 59.367 73.9689 59.4589 73.8689C59.5535 73.7689 59.6832 73.623 59.8481 73.4554C60.1751 73.1176 60.621 72.6797 61.0778 72.2527C61.5372 71.8284 62.0048 71.4149 62.3669 71.1122C62.5453 70.9609 62.7021 70.842 62.8075 70.7555C62.9156 70.669 62.9777 70.623 62.9777 70.623Z" fill="white"/>
<path d="M59.4431 70.4937C59.4431 70.4937 59.3998 70.5234 59.3187 70.5747C59.2377 70.6234 59.1242 70.6963 58.9863 70.7774C58.708 70.9396 58.3296 71.1396 57.9431 71.3234C57.5566 71.5071 57.1648 71.6774 56.8648 71.7936C56.7161 71.8531 56.5864 71.8936 56.4999 71.926C56.4107 71.9558 56.3594 71.972 56.3594 71.972C56.3594 71.972 56.4026 71.9396 56.4837 71.8909C56.5648 71.8423 56.6783 71.7693 56.8161 71.6882C57.0945 71.5261 57.4729 71.3261 57.8593 71.1423C58.2458 70.9585 58.6377 70.7882 58.9377 70.672C59.0863 70.6126 59.216 70.572 59.3025 70.5396C59.3917 70.5099 59.4431 70.4937 59.4431 70.4937Z" fill="white"/>
<path d="M58.3511 67.5366C58.3511 67.5366 58.2106 67.5582 57.9619 67.5988C57.7133 67.6339 57.3593 67.6907 56.9322 67.7447C56.5052 67.7988 56.008 67.869 55.4728 67.9285C54.9377 67.988 54.3675 68.0528 53.7972 68.1177C53.227 68.1744 52.654 68.2285 52.1189 68.2825C51.5838 68.3366 51.0838 68.369 50.6541 68.4069C50.2244 68.442 49.8676 68.4609 49.6163 68.4798C49.3649 68.4933 49.2217 68.5015 49.2217 68.5015C49.2217 68.5015 49.3649 68.4798 49.6109 68.4393C49.8595 68.4042 50.2135 68.3474 50.6406 68.2934C51.0676 68.2393 51.5648 68.169 52.1 68.1096C52.6351 68.0501 53.2053 67.9853 53.7729 67.9204C54.3431 67.8636 54.9161 67.8096 55.4512 67.7555C55.9863 67.7042 56.4863 67.669 56.916 67.6312C57.3457 67.5961 57.7025 67.5772 57.9538 67.5582C58.2052 67.5447 58.3484 67.5366 58.3484 67.5366H58.3511Z" fill="white"/>
<path d="M56.038 64.5802C56.038 64.5802 55.9867 64.5694 55.8975 64.5451C55.811 64.5208 55.684 64.4883 55.5353 64.4424C55.2381 64.3505 54.8462 64.2154 54.4597 64.064C54.0732 63.91 53.6949 63.7424 53.4138 63.6046C53.2733 63.537 53.1597 63.4721 53.0787 63.4316C52.9976 63.3884 52.9543 63.3613 52.9543 63.3613C52.9543 63.3613 53.0057 63.3721 53.0949 63.3965C53.1814 63.4208 53.3111 63.4532 53.4597 63.4992C53.757 63.5911 54.1489 63.7262 54.5354 63.8802C54.9219 64.0343 55.3002 64.2018 55.5813 64.3397C55.7218 64.4072 55.8353 64.4721 55.9164 64.5126C55.9975 64.5559 56.0407 64.5829 56.0407 64.5829L56.038 64.5802Z" fill="white"/>
<g style="mix-blend-mode:multiply">
<path d="M76.1991 59.7992C75.2829 58.756 74.0316 59.3397 74.0316 59.3397L74.0721 56.9614C74.0721 56.9614 74.0316 57.2128 73.6965 58.3803C71.1533 57.5452 68.5912 54.2588 68.5264 51.5103C66.4102 53.6264 60.5077 55.0561 57.5105 55.6669L57.3943 55.748L59.5483 55.402C61.5104 55.0939 65.7427 54.1696 67.8967 52.8616C68.6264 54.7858 71.7046 58.5181 73.2073 59.1343C73.283 60.3262 73.283 60.7127 73.283 60.7127C73.283 60.7127 74.2451 59.2884 75.3613 59.5965C76.4775 59.9046 76.5153 62.2883 74.937 62.3288C74.3208 62.3667 73.937 61.637 73.937 61.637C73.937 61.637 73.91 63.1045 72.7073 65.1396C72.7965 65.1882 72.9046 65.2233 73.0235 65.2477C73.8397 63.9558 74.237 62.5559 74.237 62.5559C76.2396 63.1802 77.1153 60.8451 76.1964 59.8046L76.1991 59.7992Z" fill="#B5412E"/>
</g>
<g style="mix-blend-mode:multiply" opacity="0.5">
<path d="M77.5288 71.8153C79.0369 70.3073 79.2396 69.7019 79.2396 69.7019C79.2396 69.7019 75.7721 66.9776 71.8452 67.0722C72.0587 68.3398 71.8912 70.3505 71.8912 70.3505L69.9372 69.5397L68.9994 71.4424C68.4453 70.4721 68.1264 69.2289 67.9832 68.5398C67.8589 68.6614 67.7291 68.7992 67.5913 68.9478C67.794 69.6749 68.2805 71.2262 68.9183 71.864C69.321 72.2207 70.0804 70.1235 70.0804 70.1235C70.0804 70.1235 71.3317 70.7046 72.0452 70.8829C72.7587 71.0613 72.5803 68.0236 72.5803 68.0236C72.5803 68.0236 79.7774 74.8369 76.6478 87.5743C78.1585 87.9013 79.6963 88.3581 81.2044 88.9634C82.0584 83.0771 80.3504 76.0368 77.5315 71.8126L77.5288 71.8153Z" fill="#C688F5"/>
</g>
<path d="M77.8802 71.4634C77.8802 71.4634 79.5558 73.3417 79.6909 73.6444C79.0531 76.193 78.1477 77.501 78.1477 77.501C78.1477 77.501 76.3694 77.701 76.3694 78.1389C76.3694 78.5767 77.6099 78.2388 77.6099 78.2388C77.6099 78.2388 76.0343 79.7145 76.3018 79.982C76.5694 80.2496 77.7775 78.8415 77.7775 78.8415C77.7775 78.8415 76.8045 80.3847 77.2072 80.5523C77.6099 80.7199 78.2801 79.0442 78.2801 79.0442C78.2801 79.0442 77.9099 80.6874 78.2801 80.7874C78.6504 80.8874 78.8828 79.1118 78.8828 79.1118C78.8828 79.1118 78.9504 80.4874 79.2531 80.5199C79.5558 80.5523 79.4207 78.2388 79.4207 78.2388C79.4207 78.2388 80.8638 75.22 81.0314 73.9795C81.1665 72.9066 78.7855 70.458 78.7855 70.458L77.8802 71.4634Z" fill="#EFD9C1"/>
<path d="M91.1365 122.223L86.7771 122.047C61.2044 121.006 35.5948 120.904 10.0107 121.724C5.27658 121.695 1.46159 117.816 1.4908 113.06L1.53605 105.692C1.56161 101.531 3.08738 99.0611 7.9003 97.6671C9.12496 97.3148 10.3798 97.1191 11.6497 97.0096C13.6363 96.8497 17.4303 96.5367 21.9098 96.1731C41.1057 94.6093 60.4002 94.7278 79.5754 96.5273L89.9023 97.498C91.1708 97.6153 92.431 97.8186 93.6514 98.1702C98.6028 99.5851 99.8407 102.135 99.8151 106.304L99.7699 113.672C99.7407 118.427 95.8783 122.26 91.1442 122.23L91.1365 122.223Z" fill="#2A3069"/>
<path fill-rule="evenodd" clip-rule="evenodd" d="M91.3389 120.229C94.8768 120.154 97.7478 117.257 97.7699 113.659L97.8152 106.291C97.827 104.368 97.5361 103.181 96.9556 102.343C96.3913 101.529 95.332 100.731 93.1018 100.093L93.0976 100.092C92.0299 99.7844 90.8997 99.5988 89.7182 99.4895L89.7151 99.4892L79.3886 98.5185C79.3885 98.5185 79.3887 98.5185 79.3886 98.5185C60.3296 96.73 41.1517 96.6122 22.0722 98.1665C19.7931 98.3515 17.6878 98.5237 15.9087 98.6692C14.199 98.809 12.79 98.9243 11.816 99.0027C10.6371 99.1046 9.51896 99.2827 8.45478 99.5887C6.27902 100.219 5.1507 101.007 4.52156 101.844C3.89448 102.678 3.54742 103.847 3.53601 105.705L3.49076 113.072C3.46836 116.72 6.38264 119.683 9.98726 119.724C35.6056 118.903 61.2498 119.006 86.8575 120.049C86.8571 120.049 86.8578 120.049 86.8575 120.049L91.3389 120.229ZM11.6497 97.0096C10.3798 97.1191 9.12496 97.3148 7.9003 97.6671C3.08738 99.0611 1.56161 101.531 1.53605 105.692L1.4908 113.06C1.46159 117.816 5.27658 121.695 10.0107 121.724C35.5948 120.904 61.2044 121.006 86.7771 122.047L91.1365 122.223L91.1442 122.23C95.8783 122.26 99.7407 118.427 99.7699 113.672L99.8151 106.304C99.8407 102.135 98.6028 99.5851 93.6514 98.1702C92.431 97.8186 91.1708 97.6153 89.9023 97.498L79.5754 96.5273C60.4002 94.7278 41.1057 94.6093 21.9098 96.1731C19.627 96.3584 17.5221 96.5305 15.7438 96.676C14.0327 96.816 12.6239 96.9312 11.6497 97.0096Z" fill="#181C36"/>
<path d="M35.8838 114.025C35.8838 113.988 35.8838 113.955 35.8838 113.923C35.8838 113.887 35.8838 113.85 35.8838 113.814C35.8838 113.548 35.9281 113.202 36.0166 112.775C36.1104 112.343 36.2119 111.903 36.3213 111.455C36.3473 111.34 36.389 111.176 36.4463 110.962C36.5036 110.744 36.5687 110.507 36.6416 110.251C36.7145 109.996 36.7848 109.751 36.8525 109.517L38.2119 105.009H31.9385V103.939H39.5947V104.876L38.1885 109.533C38.1572 109.616 38.1104 109.767 38.0479 109.986C37.9854 110.205 37.9202 110.431 37.8525 110.666C37.79 110.895 37.7406 111.077 37.7041 111.212C37.6624 111.348 37.613 111.535 37.5557 111.775C37.4984 112.009 37.4411 112.259 37.3838 112.525C37.3265 112.791 37.2796 113.041 37.2432 113.275C37.2067 113.509 37.1885 113.689 37.1885 113.814V114.025H35.8838ZM31.9385 117.869V108.056H33.2588V117.869H31.9385ZM41.4697 114.025V103.939H42.7822V114.025H41.4697ZM45.5322 114.025V103.97C45.5999 103.96 45.7067 103.949 45.8525 103.939C45.9984 103.929 46.1833 103.913 46.4072 103.892C46.8916 103.856 47.3421 103.83 47.7588 103.814C48.1755 103.793 48.5557 103.783 48.8994 103.783C49.4984 103.783 49.9827 103.809 50.3525 103.861C50.7223 103.913 51.0687 104.004 51.3916 104.134C51.7145 104.27 51.9827 104.442 52.1963 104.65C52.4098 104.853 52.5791 105.121 52.7041 105.455C52.7822 105.658 52.8369 105.874 52.8682 106.103C52.9046 106.327 52.9229 106.58 52.9229 106.861V114.025H51.5947V106.861C51.5947 106.236 51.4515 105.775 51.165 105.478C50.8786 105.181 50.4515 104.996 49.8838 104.923C49.764 104.908 49.613 104.895 49.4307 104.884C49.2536 104.874 49.0479 104.869 48.8135 104.869C48.5739 104.869 48.29 104.876 47.9619 104.892C47.6338 104.908 47.2614 104.931 46.8447 104.962V114.025H45.5322ZM54.8604 114.025V112.955H59.6807L60.6729 112.97L58.2744 109.486L54.8291 103.939H56.2588L59.0244 108.509L59.4541 109.173C59.8708 108.757 60.1989 108.285 60.4385 107.759C60.6833 107.228 60.8369 106.642 60.8994 106.001L61.0947 103.939H62.3369L62.1494 105.931C62.1286 106.139 62.1025 106.34 62.0713 106.533C62.04 106.725 62.001 106.913 61.9541 107.095C61.9072 107.272 61.8525 107.447 61.79 107.619C61.7223 107.827 61.639 108.028 61.54 108.22C61.4463 108.413 61.3421 108.606 61.2275 108.798C61.0765 109.048 60.9098 109.288 60.7275 109.517C60.5452 109.741 60.3473 109.949 60.1338 110.142L62.2822 113.244V114.025H54.8604ZM66.7354 114.025L67.4775 110.166L68.9619 105.025H63.5557V101.798H64.8682V103.9H70.2588V105.017L68.7979 110.111L68.0557 114.025H66.7354Z" fill="white"/>
<defs>
<clipPath id="clip0_1172_15778">
<rect width="73" height="58" fill="white" transform="translate(15 47)"/>
</clipPath>
</defs>
</svg>
