<svg width="102" height="144" viewBox="0 0 102 144" fill="none" xmlns="http://www.w3.org/2000/svg">
<path d="M50.9089 119.508C30.3622 119.508 11.9267 106.455 5.05795 87.0379C3.18466 81.7451 2.23315 76.3037 2.23315 70.8325C2.23315 65.3613 3.1252 60.2469 4.87954 55.1028L5.02822 54.6865C11.8969 35.2995 30.3324 22.1865 50.9089 22.1865C56.2611 22.1865 61.5836 23.1083 66.7574 24.8924C70.4445 26.171 74.0424 27.9253 77.4025 30.096C91.2886 39.1353 99.5548 54.3595 99.5548 70.8325C99.5548 72.349 99.4656 73.9249 99.3169 75.59C96.8787 100.627 76.0644 119.508 50.8791 119.508H50.9089Z" fill="#181C36"/>
<path d="M50.9087 116.981C31.4325 116.981 13.9485 104.611 7.43662 86.2052C5.65254 81.1801 4.7605 76.0062 4.7605 70.8324C4.7605 65.6585 5.59307 60.8118 7.25821 55.9353L7.37715 55.6082C13.9188 37.1132 31.4028 24.7139 50.9087 24.7139C55.9934 24.7139 61.0483 25.5762 65.9545 27.2711C69.4632 28.4902 72.8529 30.1553 76.0346 32.207C89.1773 40.7706 97.057 55.1919 97.057 70.8324C97.057 72.2894 96.9678 73.7761 96.8191 75.3223C94.5295 99.0506 74.7857 116.951 50.9087 116.951V116.981Z" fill="#3D4787"/>
<path d="M74.6662 34.3484C71.7224 32.4156 68.5111 30.8397 65.1511 29.68C60.6909 28.1338 55.9333 27.2715 50.9379 27.2715C31.9077 27.2418 15.7915 39.433 9.8148 56.4115C9.78507 56.5305 9.7256 56.6494 9.66613 56.7684C8.14966 61.1988 7.28735 65.9266 7.28735 70.8626C7.28735 75.7986 8.20913 80.8237 9.8148 85.3731C15.7915 102.292 31.9077 114.454 50.8784 114.454C73.5363 114.454 92.1204 97.1778 94.2613 75.1147C94.41 73.7171 94.4695 72.2899 94.4695 70.8626C94.4695 55.5492 86.5601 42.1092 74.6067 34.3484H74.6662Z" fill="#2A3069"/>
<g clip-path="url(#clip0_1172_15235)">
<path d="M75.5126 67.357C75.5126 67.357 75.5326 67.417 75.5626 67.387C76.2926 66.647 76.0526 65.297 75.2326 64.717C75.2126 64.707 75.1926 64.727 75.2026 64.747C75.5226 65.077 75.7826 65.437 75.8526 65.907C75.9226 66.417 75.7526 66.907 75.5226 67.347L75.5126 67.357Z" fill="black"/>
<path d="M76.4126 66.9767C76.4126 66.9767 76.4126 67.0067 76.4326 66.9967C76.7826 66.6567 76.8326 66.0467 76.8526 65.5967C76.8726 65.1767 76.6126 64.6567 76.3226 64.3667C76.3226 64.3667 76.2626 64.3867 76.2826 64.4067C76.7726 65.0167 76.9426 66.3467 76.4226 66.9867L76.4126 66.9767Z" fill="black"/>
<path d="M31.1926 67.4671C31.1926 67.4671 31.2526 67.4471 31.2426 67.4171C30.6626 66.4071 30.5126 64.8471 31.4726 64.0471C31.5026 64.0171 31.4726 63.9771 31.4326 63.9971C30.9626 64.3471 30.7026 64.7971 30.5926 65.4071C30.4726 66.0871 30.6426 67.0371 31.1926 67.4571V67.4671Z" fill="black"/>
<path d="M30.3726 63.9271C29.2926 64.6671 29.1226 66.5871 30.0626 67.5271C30.0826 67.5471 30.1126 67.5271 30.1026 67.4871C29.5526 66.4071 29.4826 64.8271 30.3926 63.9571C30.4126 63.9371 30.3926 63.8971 30.3626 63.9171L30.3726 63.9271Z" fill="black"/>
<path d="M77.8326 51.8571C77.5026 52.1171 77.3926 52.7271 77.7026 53.0471C77.9826 53.3371 78.5426 53.2971 78.8326 53.0471C79.0426 52.8671 79.1226 52.6071 79.0326 52.3471C78.8426 51.7871 78.7326 51.2271 78.4926 50.6871C78.6226 50.6771 78.7526 50.6371 78.8426 50.6071C79.1426 50.5071 79.4626 50.4471 79.7626 50.3671C79.8026 50.5071 79.8426 50.6471 79.8726 50.7971C79.8826 50.8471 79.8926 50.8871 79.8926 50.9271C79.7926 50.9071 79.6926 50.9171 79.5926 50.9571C79.1226 51.1571 79.1126 51.9971 79.6926 52.0571C79.9426 52.0871 80.1826 51.9071 80.2926 51.6971C80.5526 51.3071 80.3926 50.7471 80.2826 50.3271C80.1726 49.8871 79.9826 49.2171 79.5426 48.9771C79.1426 48.7571 78.4326 49.0671 78.0226 49.1971C76.8926 49.5471 77.9626 50.7571 78.3726 51.7671C78.1826 51.7171 77.9826 51.7371 77.8026 51.8671L77.8326 51.8571ZM78.3326 50.3271C78.2426 50.1371 78.1426 49.9471 78.0526 49.7571C78.0426 49.7271 78.9626 49.4971 79.0826 49.4671C79.3526 49.3971 79.5026 49.6171 79.6026 49.8571C79.1626 49.9471 78.7226 50.0971 78.3326 50.3271Z" fill="black"/>
<path d="M84.5526 56.9469C85.0026 56.6869 84.8426 56.0569 84.7726 55.6469C84.7126 55.3169 84.5926 55.0269 84.4526 54.7269C84.3626 54.5269 84.1126 54.2269 83.9926 53.9769C84.3726 53.8269 84.7627 53.7169 85.1427 53.5669C85.2227 53.5369 85.2026 53.4169 85.1226 53.4069C84.6326 53.3169 84.0727 53.4369 83.6127 53.6269C83.5127 53.6669 83.4627 53.7769 83.4727 53.8769C83.5227 54.1969 83.7926 54.4469 83.9126 54.7369C84.0226 54.9769 84.1227 55.2069 84.1827 55.4669C84.1627 55.3769 83.6726 55.5369 83.6226 55.5669C83.4526 55.6769 83.3426 55.8769 83.3126 56.0769C83.1826 56.7969 83.8926 57.3269 84.5526 56.9569V56.9469Z" fill="black"/>
<path d="M21.1527 55.557C20.9427 55.797 20.8527 56.167 21.0027 56.467C21.1927 56.827 21.7027 56.947 22.0527 56.747C22.4027 56.537 22.4527 56.177 22.3527 55.817C22.3127 55.687 21.9727 54.677 21.9127 54.697C22.0627 54.667 22.2027 54.617 22.3027 54.607C22.4927 54.577 22.8027 54.557 23.0227 54.477C23.0527 54.547 23.1927 54.897 23.2427 54.997C22.8727 55.027 22.5427 55.387 22.8527 55.777C23.1027 56.087 23.6327 56.157 23.9427 55.907C24.3327 55.597 23.8527 54.937 23.7127 54.637C23.5527 54.317 23.4427 53.987 23.2727 53.667C23.1927 53.517 23.0827 53.157 22.8827 53.097C22.4627 52.967 21.7527 53.247 21.3527 53.387C20.5827 53.657 21.3927 54.597 21.7527 55.397C21.7027 55.397 21.6627 55.397 21.6127 55.407C21.4327 55.387 21.2727 55.407 21.1427 55.557H21.1527ZM21.7427 54.297C21.5927 53.977 21.4127 53.867 21.8727 53.777C21.9827 53.757 22.6127 53.557 22.6727 53.677C22.7227 53.767 22.7627 53.857 22.8027 53.947C22.7727 53.957 22.7327 53.977 22.7027 53.977C22.5327 54.027 22.3527 54.077 22.1827 54.137C22.0627 54.177 21.8827 54.217 21.7427 54.287V54.297Z" fill="black"/>
<path d="M28.5426 53.257C28.7126 53.347 28.9126 53.397 29.1126 53.387C29.4926 53.367 29.9126 53.247 30.0926 52.877C30.3426 52.357 30.0826 51.907 29.9026 51.397C29.8126 51.137 29.0226 49.577 29.8126 49.597C30.2626 49.597 30.8026 49.487 31.0626 49.087C31.1126 49.007 31.0626 48.887 30.9526 48.907C30.4126 49.027 29.9426 49.077 29.4026 49.147C29.1226 49.177 28.7526 49.297 28.7626 49.647C28.7626 50.237 29.1226 50.877 29.3126 51.447C29.3426 51.527 29.3626 51.607 29.3926 51.687C29.3426 51.677 29.2826 51.667 29.2326 51.657C28.7526 51.607 28.3126 51.937 28.2226 52.417C28.1926 52.577 28.1826 52.767 28.2526 52.927C28.3026 53.057 28.4326 53.197 28.5526 53.267L28.5426 53.257Z" fill="black"/>
<path d="M83.4526 62.8769C83.4526 62.8769 86.0126 60.2469 85.0926 59.9269C84.1726 59.6069 82.2926 62.2369 82.2926 62.2369C82.2926 62.2369 82.4626 58.2669 81.6326 58.2069C80.8026 58.1469 80.9826 62.1569 80.9826 62.1569C80.9826 62.1569 79.1026 58.3069 78.2926 59.1369C77.4826 59.9669 79.8826 62.8769 79.8826 62.8769C79.8826 62.8769 77.2626 62.0369 77.1926 62.7269C77.1226 63.4169 78.5326 64.5769 79.8926 64.4469C76.8126 71.1969 69.9026 76.3369 69.0426 76.9669L67.0326 73.7169C67.0326 73.7169 66.6826 74.1969 65.9826 74.8869C65.5126 75.3569 64.8826 75.9169 64.1026 76.4869C63.4026 76.9969 62.5826 77.5269 61.6426 78.0069C61.2126 78.2269 60.7626 78.4369 60.2826 78.6369C59.3526 79.0169 58.3226 79.3369 57.1926 79.5669C57.1926 79.5669 57.1926 79.5669 57.1926 79.5769C57.1926 79.7369 57.1826 79.9069 57.1726 80.0669C57.1726 79.8869 57.1926 79.7169 57.1926 79.5369C56.6926 79.6369 56.1626 79.7169 55.6326 79.7769C55.3826 79.8069 55.1226 79.8269 54.8626 79.8469C54.8626 79.6269 54.8626 79.4069 54.8526 79.1869C54.8526 79.1169 54.8526 79.0269 54.8426 78.9369C60.9726 78.5069 64.7626 74.6569 66.5426 71.8669C66.6326 71.9869 66.7226 72.1069 66.8126 72.2169C66.8526 72.2569 66.8926 72.2969 66.9326 72.3369C66.9726 72.3769 67.0026 72.4069 67.0426 72.4469C67.0526 72.4569 67.0626 72.4669 67.0726 72.4769C67.1326 72.5369 67.2026 72.5869 67.2726 72.6369C67.3126 72.6669 67.3526 72.6969 67.3926 72.7269C67.3926 72.7269 67.3926 72.7269 67.4126 72.7369C67.4226 72.7369 67.4326 72.7569 67.4526 72.7669C67.5726 72.8469 67.7026 72.9169 67.8326 72.9869C67.8326 72.9869 67.8426 72.9869 67.8526 72.9869C67.8626 72.9869 67.8726 72.9969 67.8826 73.0069C67.8826 73.0069 67.8826 73.0069 67.8926 73.0069C68.2626 73.1769 68.6526 73.2869 69.0626 73.3269C69.0626 73.3269 69.0626 73.3269 69.0726 73.3269C70.5626 73.4769 72.1526 72.7869 72.9326 71.5869C74.0426 69.8669 73.9826 67.5969 73.8926 65.6269C73.8626 65.0069 73.8126 64.3269 73.6926 63.6569C73.6326 63.3369 73.5526 63.0169 73.4526 62.7169C73.4526 62.7469 73.4726 62.7669 73.4826 62.7869C73.4726 62.7469 73.4526 62.7069 73.4426 62.6669C73.4426 62.6569 73.4326 62.6369 73.4226 62.6269C73.3526 62.4269 73.2726 62.2269 73.1826 62.0469C73.1526 61.9869 73.1226 61.9269 73.0926 61.8669C72.9626 61.6169 72.8126 61.3769 72.6326 61.1669C72.4726 60.9769 72.2726 60.8269 72.0726 60.6969C72.0526 60.2169 72.0126 59.7269 71.9726 59.2169L72.0826 59.3769C72.0826 59.3769 73.2726 55.3869 70.5826 51.2169C67.8826 47.0469 63.0026 46.4169 63.0026 46.4169C63.0026 46.4169 64.8226 45.7969 63.6326 45.4169C62.4926 45.0569 60.7926 46.3969 60.6526 46.5169C60.6326 46.5169 60.6226 46.5169 60.6026 46.5069L59.3126 44.7369L59.0626 46.0469C53.3326 41.8869 46.4326 44.9869 41.8426 48.4369C39.0726 49.8969 37.5726 51.7469 36.9126 53.3769C36.8726 53.4569 36.8426 53.5269 36.8226 53.5869C36.8026 53.6369 36.7926 53.6869 36.7826 53.7369C36.7626 53.8069 36.7326 53.8769 36.7126 53.9469C36.1226 55.9069 36.0026 58.5669 36.0026 60.4569C35.8526 60.5169 35.7026 60.5669 35.5826 60.6269C33.9826 61.3769 33.5326 63.0969 33.1826 64.6569C32.7826 66.4869 32.5926 68.3269 33.4826 70.0469C33.9626 70.9769 34.7326 71.6069 35.6326 71.9569C35.5926 72.2469 35.6726 72.5169 35.8226 72.7369C37.4626 74.9569 39.1826 77.1069 40.9726 79.1969L40.8026 79.7269C30.9126 78.0569 25.1826 73.9269 24.3226 73.2669C24.3226 73.2269 24.3426 73.1969 24.3526 73.1669C24.4426 72.5769 24.2626 71.9769 24.2326 71.3869C25.5826 71.0069 27.2326 70.2369 27.5726 69.7969C28.1026 69.1069 25.7526 61.4969 25.1926 61.0769C24.6826 60.6969 22.1526 61.4969 21.0826 61.8269C20.7226 61.9369 19.4326 62.3069 19.4326 63.1669C19.4326 63.4069 19.6126 64.1369 19.8826 65.0569C19.3526 65.8169 19.0226 66.7569 18.9326 67.5569C18.8026 68.6269 19.1626 70.0369 19.8126 71.0069C19.8126 71.0069 19.8326 71.0069 19.8426 71.0169C20.8526 72.0369 21.7326 73.1569 22.6626 74.2469C22.6626 74.2469 22.6826 74.2469 22.6926 74.2569C22.7226 74.2669 22.7426 74.2769 22.7726 74.2869C25.5826 76.6969 33.5626 80.2669 40.2626 81.4469L39.6826 83.2869L40.7126 83.6469L42.2126 84.1669L44.0226 84.8069L45.7726 85.4169C45.7726 85.4169 45.5926 86.3869 45.3326 87.8369C45.2026 88.5469 45.0526 89.3869 44.9026 90.2869C44.7426 91.1969 44.5726 92.1669 44.4126 93.1469C44.3026 93.8169 44.1926 94.4869 44.0826 95.1369C44.0526 95.3069 44.0326 95.4669 44.0026 95.6269C43.9826 95.7569 43.9626 95.8969 43.9426 96.0269C43.8026 96.9469 43.6726 97.8069 43.5826 98.5469C43.4926 99.2069 43.4426 99.7669 43.4126 100.177C48.6526 102.177 56.2026 103.217 61.8926 102.667H61.9126C62.3326 102.627 62.7326 102.577 63.1226 102.517C63.1326 102.517 63.1526 102.517 63.1626 102.517C63.5726 102.457 63.9726 102.387 64.3526 102.307C64.3726 100.897 64.3626 99.5569 64.3426 98.2869C64.3426 98.0669 64.3326 97.8569 64.3226 97.6469C64.3226 97.3569 64.3126 97.0669 64.3026 96.7869C64.3026 96.5569 64.2826 96.3269 64.2726 96.0969C64.1026 91.8369 63.7426 88.6369 63.4926 86.8769C63.4826 86.7769 63.4626 86.6969 63.4526 86.6069C63.4526 86.5469 63.4326 86.4969 63.4326 86.4369C63.4126 86.2869 63.3926 86.1469 63.3726 86.0269C63.3726 85.9969 63.3726 85.9669 63.3626 85.9369C63.3426 85.8169 63.3226 85.7169 63.3126 85.6369C63.3126 85.6069 63.3126 85.5869 63.3026 85.5569C63.2926 85.4969 63.2826 85.4369 63.2726 85.4069C63.2726 85.3569 63.2626 85.3269 63.2626 85.3269L70.8326 79.7269L70.2026 78.7069C74.2026 76.0869 78.5326 70.0569 81.4126 65.2569C82.6826 65.5469 83.7126 64.1469 83.7126 64.1469C83.7126 64.1469 86.2926 63.7669 86.1626 63.1669C86.0326 62.5669 83.5226 62.8769 83.5226 62.8769H83.4526ZM20.8826 68.2969C20.8726 68.2369 20.8626 68.1869 20.8426 68.1369C20.8626 68.1769 20.8726 68.2169 20.8826 68.2669C20.8826 68.2769 20.8826 68.2869 20.8826 68.3069V68.2969ZM38.6826 63.9069C38.6826 63.9069 38.6926 63.9869 38.7026 64.0269C38.7426 64.2369 38.7426 64.4769 38.7126 64.7269C38.7126 64.5869 38.7126 64.4469 38.7026 64.3069C38.6926 64.1869 38.6826 64.0569 38.6726 63.9369V63.9069H38.6826ZM37.9226 68.0969C37.9626 67.9469 38.0026 67.7969 38.0426 67.6369C37.9026 68.2469 37.8026 68.8669 37.8026 69.4669C37.7926 69.0169 37.8126 68.5569 37.9226 68.1069V68.0969ZM51.6426 79.7969C51.3126 79.7669 50.9826 79.7169 50.6426 79.6769C49.7726 79.5469 48.8726 79.3569 47.9426 79.0869C47.2926 78.9069 46.6326 78.6869 45.9526 78.4369C45.3826 78.2269 44.7926 77.9769 44.1926 77.7169C44.0726 77.6669 43.9626 77.6169 43.8426 77.5669L42.7926 76.8569L42.7526 76.8269L41.8626 76.2269L41.7226 76.6769C41.3726 76.2569 41.0026 75.8369 40.6526 75.4169C39.7726 74.3269 38.9226 73.2169 38.0726 72.0969C38.0726 72.0969 38.0726 72.0969 38.0826 72.0969C38.2226 72.0269 38.3526 71.9369 38.4626 71.8369C39.7026 74.3269 43.0526 77.6669 51.2026 78.8269C51.4426 78.8569 51.6726 78.8869 51.9126 78.9069C51.9326 79.0169 51.9626 79.1269 51.9826 79.2269C52.0326 79.4269 52.0826 79.6369 52.1326 79.8469C51.9726 79.8369 51.8126 79.8269 51.6526 79.8069C51.7626 80.8169 52.0026 81.8469 52.5226 82.4969C52.0026 81.8569 51.7526 80.8169 51.6426 79.8069V79.7969ZM57.0226 81.4569C56.9326 81.9069 56.7926 82.3269 56.6026 82.7069C56.8126 82.3069 56.9426 81.8469 57.0426 81.3769C57.0426 81.4069 57.0426 81.4369 57.0326 81.4569H57.0226ZM57.1626 80.5269C57.1626 80.6069 57.1426 80.6769 57.1326 80.7569C57.1326 80.8169 57.1126 80.8669 57.1026 80.9269C57.1226 80.7669 57.1426 80.6069 57.1626 80.4369C57.1626 80.4669 57.1626 80.4969 57.1626 80.5269Z" fill="black"/>
</g>
<path d="M53.7684 79.1188C53.7654 79.0519 53.701 78.9732 53.6394 78.9528C53.531 78.9208 53.4226 78.8916 53.3142 78.8654C53.3201 78.6411 53.3083 78.4139 53.3025 78.1926C53.2966 77.9683 53.2878 77.6857 53.2439 77.4236C53.2907 77.3653 53.3083 77.2925 53.3025 77.2168C53.323 77.0624 53.2585 76.9109 53.0651 76.9022C53.0534 76.9022 53.0417 76.9022 53.03 76.8993C52.9303 76.8935 52.8102 76.8294 52.7135 76.809C52.5142 76.7653 52.2359 76.8265 52.0337 76.8381C51.5502 76.8672 50.9378 76.9983 50.4601 76.9138C50.2609 76.8789 50.1876 77.1061 50.2814 77.243C50.2755 77.5576 50.3605 77.9217 50.4338 78.2101C50.5217 78.5596 50.592 78.9295 50.7004 79.2791C50.6623 79.2965 50.6213 79.314 50.5774 79.3402C50.5012 79.3868 50.4543 79.5121 50.4748 79.5936C50.7004 80.4995 50.803 82.4919 52.3296 82.3928C53.6775 82.3055 53.8094 79.9985 53.7684 79.113V79.1188Z" fill="#CDA985"/>
<path d="M67.3468 63.0232L67.7453 52.2254L37.6079 53.0177C38.2497 45.5813 36.9604 60.5036 36.9574 60.5357C36.9486 60.958 36.9545 62.0271 37.1538 63.0232C37.4116 64.299 36.1926 66.5914 36.2571 68.5663C36.3216 70.5412 38.5017 76.2125 49.6541 77.8058C60.8066 79.3991 65.8729 70.1596 66.1923 68.31C66.1923 68.31 69.8463 69.0761 70.2946 65.9535C70.743 62.831 68.4369 62.0037 67.3468 63.0232Z" fill="#EFD9C1"/>
<path d="M52.4381 71.9888C52.4469 72.2946 52.6696 72.6005 52.904 72.8306C52.6227 73.3141 52.3033 73.8268 51.9048 74.2142C51.2836 74.8171 50.3108 74.9715 49.4815 74.9773C48.0516 74.989 47.1813 74.252 46.3345 73.2821C47.574 75.5074 50.6771 75.9793 52.6227 74.3569C52.9363 73.9986 53.2059 73.5355 53.3172 73.1306C53.5956 73.2588 53.9589 73.3024 54.1816 73.1189C53.4989 73.0665 52.781 72.583 52.4381 71.9888Z" fill="#BB936E"/>
<path d="M44.1131 65.5306C44.1249 66.4394 43.8201 67.1909 43.4304 67.2084C43.0377 67.2259 42.7125 66.5064 42.6978 65.5976C42.6861 64.6859 42.9909 63.9344 43.3776 63.9199C43.7703 63.8995 44.0956 64.6218 44.1131 65.5306Z" fill="#411C06"/>
<path d="M43.2929 64.8814C43.2753 65.1552 43.1669 65.3765 43.0468 65.3707C42.9266 65.3649 42.8504 65.1406 42.8651 64.8639C42.8827 64.5901 42.9911 64.3716 43.1112 64.3745C43.2255 64.3745 43.3105 64.6017 43.29 64.8814H43.2929Z" fill="white"/>
<path d="M55.9895 65.077C56.0013 65.9858 55.6965 66.7373 55.3068 66.7577C54.9141 66.7752 54.5889 66.0557 54.5742 65.1469C54.5596 64.2382 54.8643 63.4866 55.2511 63.4692C55.6438 63.4488 55.969 64.1712 55.9866 65.08L55.9895 65.077Z" fill="#411C06"/>
<path d="M55.1691 64.4268C55.1515 64.7006 55.0431 64.922 54.923 64.9161C54.8028 64.9132 54.7266 64.686 54.7413 64.4093C54.7589 64.1326 54.8673 63.917 54.9874 63.92C55.1017 63.92 55.1867 64.1472 55.1662 64.4268H55.1691Z" fill="white"/>
<path d="M69.3691 64.5757C68.9735 63.9815 68.2644 64.0805 67.7955 64.5378C67.5435 64.7825 67.3853 65.1087 67.2945 65.4437C67.1773 65.8748 67.271 66.2156 67.2681 66.6467C67.2681 66.7341 67.4029 66.7894 67.4322 66.6904C67.5582 66.2768 67.5846 65.8632 67.7692 65.4728C67.8688 65.4641 67.9684 65.4292 68.0739 65.4262C68.2175 65.4233 68.3728 65.4961 68.4695 65.601C68.5633 65.703 68.7742 65.6447 68.7391 65.4845C68.6834 65.2282 68.4871 65.0505 68.238 64.9718C68.2116 64.9631 68.1823 64.9573 68.153 64.9514C68.2234 64.8903 68.2995 64.832 68.3845 64.7883C68.6629 64.6543 68.8563 64.8233 69.0966 64.9369C69.3251 65.0447 69.4892 64.7563 69.3691 64.5757Z" fill="#BB936E"/>
<path d="M68.9966 50.2244C66.3008 46.0503 61.4131 45.427 61.4131 45.427C61.4131 45.427 63.2299 44.8036 62.0402 44.4308C60.8505 44.0579 59.0309 45.5522 59.0309 45.5522L57.7152 43.7463L57.4632 45.0541C48.189 38.3255 35.844 50.5972 35.2169 52.5925C34.5898 54.5878 36.2806 53.6527 36.2806 53.6527C35.7795 54.1508 34.3994 57.2035 34.9034 57.5763C35.4044 57.9491 36.2806 57.0141 36.2806 57.0141C36.2806 57.0141 35.9055 60.1279 37.0952 63.0553L38.7625 55.3567C38.7625 55.3567 41.092 56.0354 45.2969 54.6227C43.4802 55.6946 43.99 56.318 45.7511 56.3733C47.5121 56.4287 52.5668 55.4121 52.5668 55.4121C52.5668 55.4121 51.6584 56.8248 52.7367 56.9937C53.8151 57.1627 56.6574 55.4121 56.6574 55.4121C56.6574 55.4121 57.5072 58.2375 58.7584 58.2929C60.0096 58.3482 59.8367 55.581 59.8367 55.581C59.8367 55.581 63.3031 58.9686 64.7243 59.1376C65.6327 59.1958 66.2597 57.8967 66.2597 57.8967L65.1082 66.5419C71.9385 62.7407 69.7438 57.2617 69.7438 57.2617L70.4968 58.3832C70.4968 58.3832 71.6894 54.3955 68.9936 50.2244H68.9966Z" fill="#8B6236"/>
<g style="mix-blend-mode:multiply" opacity="0.5">
<path d="M54.6298 52.7036C53.3961 54.1251 52.1947 55.0688 51.3186 55.6514C52.0658 55.5145 52.5727 55.4125 52.5727 55.4125C52.5727 55.4125 51.6644 56.8252 52.7427 56.9942C52.813 57.0058 52.8921 57.0058 52.9771 57.0029C52.8599 55.9543 53.7419 54.393 54.6268 52.7036H54.6298Z" fill="#8B6236"/>
<path d="M47.5652 53.3003C42.5663 55.2431 38.6544 54.6489 37.7841 53.3003C37.9013 56.4636 37.16 60.1192 36.7234 61.9513C36.8259 62.3184 36.9519 62.6854 37.1014 63.0553L38.7687 55.3567C38.7687 55.3567 41.0982 56.0354 45.3031 54.6227C43.6827 55.5781 43.9142 56.1752 45.2298 56.3325C45.2181 55.6422 46.0737 54.5936 47.5652 53.3003Z" fill="#8B6236"/>
<path d="M67.5638 56.5393C64.03 60.9173 58.9226 52.7061 58.9226 52.7061L59.8368 56.4112C59.8691 55.948 59.8456 55.5839 59.8456 55.5839C59.8456 55.5839 63.3121 58.9715 64.7332 59.1405C65.6416 59.1987 66.2687 57.8996 66.2687 57.8996L65.1171 66.5448C65.3838 66.3963 65.6328 66.2448 65.8731 66.0904C65.753 63.8447 66.5178 60.5561 67.5668 56.5422L67.5638 56.5393Z" fill="#8B6236"/>
<path d="M55.8398 55.8835C56.3233 55.6184 56.6632 55.4116 56.6632 55.4116C56.6632 55.4116 57.469 58.0798 58.6646 58.2749C57.7064 57.136 57.0031 55.0534 56.6925 52.3794C56.6193 53.8154 56.2354 55.0038 55.8398 55.8835Z" fill="#8B6236"/>
</g>
<path d="M48.4939 67.5147C48.4939 67.5147 48.28 67.4419 47.9958 67.3749C47.8551 67.3429 47.6852 67.3341 47.5856 67.3749C47.5387 67.3982 47.5182 67.4361 47.483 67.4798C47.4889 67.4798 47.4303 67.573 47.4391 67.5875C47.4332 67.6108 47.4244 67.6371 47.4215 67.6778C47.3746 67.9895 47.4947 68.374 47.6207 68.6187C47.6852 68.7439 47.7584 68.843 47.8229 68.8983C47.8844 68.9595 47.9401 68.9799 47.9401 68.9828C47.9401 68.9799 47.8844 69.0003 47.7848 68.9828C47.6852 68.9682 47.5416 68.9041 47.4156 68.7876C47.2837 68.6711 47.1577 68.508 47.0728 68.3099C46.9819 68.1119 46.9292 67.8701 46.9644 67.6108C46.9702 67.5497 46.9907 67.4769 47.023 67.4011C47.0552 67.3137 47.0611 67.3225 47.1109 67.2322C47.1958 67.1098 47.3336 67.0166 47.4771 66.9817C47.7643 66.9351 47.9606 67.0399 48.1042 67.1273C48.3884 67.3137 48.4998 67.5089 48.4998 67.5089L48.4939 67.5147Z" fill="#BB936E"/>
<path d="M42.1323 62.5482C42.1323 62.5482 42.1001 62.2919 42.2613 61.9336C42.3433 61.7588 42.4869 61.5549 42.7213 61.4122C42.8414 61.3481 42.9733 61.2928 43.1169 61.2724C43.1872 61.2695 43.2605 61.2578 43.3308 61.2607L43.4363 61.2695H43.489L43.5154 61.2753H43.5242L43.5564 61.284H43.5681C43.6824 61.3277 43.7967 61.3627 43.908 61.4005C44.034 61.4675 44.16 61.5607 44.2655 61.6452C44.3505 61.7442 44.4326 61.8404 44.4882 61.9365C44.538 62.0384 44.5879 62.1346 44.6142 62.2278C44.7256 62.6035 44.6582 62.854 44.6582 62.854C44.6582 62.854 44.6318 62.7958 44.5849 62.7026C44.538 62.6093 44.4648 62.4812 44.371 62.3414C44.3241 62.2744 44.2567 62.2103 44.204 62.1375C44.1395 62.0705 44.0604 62.021 43.9959 61.9511C43.9168 61.9103 43.8465 61.8782 43.7733 61.8258C43.659 61.7938 43.5447 61.7617 43.4304 61.7268H43.4187C43.3894 61.718 43.4539 61.7326 43.448 61.7297H43.4216L43.3835 61.7239L43.3103 61.7151C43.2634 61.7093 43.2165 61.7151 43.1696 61.7151C43.0788 61.7268 42.988 61.7384 42.9059 61.7734C42.8268 61.8112 42.7447 61.852 42.6744 61.9044C42.6041 61.9598 42.5367 62.0151 42.481 62.0763C42.2554 62.321 42.1265 62.5453 42.1265 62.5453L42.1323 62.5482Z" fill="#8B6236"/>
<path d="M53.8123 62.3208C53.8123 62.3208 53.8298 62.2596 53.8797 62.1518C53.9324 62.047 54.0203 61.9043 54.1551 61.7499C54.2283 61.68 54.3075 61.5984 54.4042 61.5285C54.5067 61.4702 54.6093 61.3829 54.7353 61.3392C54.8642 61.3042 54.9902 61.2256 55.1367 61.2256L55.3536 61.211C55.3975 61.211 55.4063 61.2023 55.4796 61.2052L55.5763 61.2168L55.673 61.2343L55.7931 61.2722C55.8781 61.2984 55.9455 61.3333 56.0099 61.3712C56.1447 61.4411 56.2473 61.546 56.3381 61.6479C56.5169 61.8577 56.6136 62.0819 56.6692 62.2771C56.7806 62.6674 56.7425 62.9354 56.7425 62.9354C56.7425 62.9354 56.6253 62.6965 56.426 62.3878C56.3235 62.2363 56.2004 62.0674 56.0451 61.9305C55.9689 61.8635 55.881 61.8081 55.7931 61.7615C55.7491 61.7382 55.7052 61.7149 55.6642 61.7091L55.6056 61.6887L55.5118 61.6771L55.418 61.6596C55.418 61.6596 55.3711 61.6625 55.3565 61.6654L55.1924 61.6712C55.081 61.6654 54.9814 61.7091 54.8759 61.7237C54.7734 61.747 54.6796 61.7965 54.5829 61.8256C54.4921 61.8722 54.4042 61.9159 54.325 61.9567C54.1697 62.0528 54.0408 62.1431 53.9529 62.2101C53.865 62.2771 53.8123 62.3237 53.8123 62.3237V62.3208Z" fill="#8B6236"/>
<path d="M44.1367 69.2102C44.0869 69.7024 43.0789 70.0054 41.8863 69.8859C40.6937 69.7665 39.7678 69.2713 39.8176 68.7761C39.8674 68.281 40.8725 67.978 42.068 68.1004C43.2606 68.2198 44.1866 68.715 44.1367 69.2072V69.2102Z" fill="#F0CCC2"/>
<path d="M58.1403 69.3238C58.0729 69.8161 57.0561 70.0841 55.8694 69.9268C54.6826 69.7666 53.7713 69.2423 53.8387 68.75C53.9032 68.2577 54.92 67.9898 56.1096 68.147C57.2993 68.3073 58.2048 68.8345 58.1403 69.3238Z" fill="#F0CCC2"/>
<path d="M34.4612 61.8022C34.4612 61.8022 34.0774 56.3232 35.1029 52.9443C36.1285 49.5683 40.7436 44.7884 53.4374 44.9166C66.1311 45.0448 69.2694 52.053 69.9756 55.3037C70.6788 58.5544 70.5528 63.2673 70.5528 63.2673L68.7566 62.9498C68.7566 62.9498 69.3338 55.0473 66.5765 51.7355C63.8192 48.4236 59.4619 46.0642 50.2932 46.574C41.1275 47.0837 36.7028 50.9694 36.2545 54.4764C35.8062 57.9806 36.1256 62.7605 36.1256 62.7605L34.4583 61.8051L34.4612 61.8022Z" fill="#3C3C3B"/>
<path d="M35.2111 61.8637C35.2111 61.8637 34.8419 56.6119 35.8265 53.3758C36.811 50.1397 41.2327 45.5578 53.3961 45.6801C65.5595 45.8025 68.5688 52.5194 69.2457 55.6332C69.9226 58.747 69.7995 63.2677 69.7995 63.2677L68.4633 62.9619C68.4633 62.9619 69.0142 55.3885 66.3741 52.2136C63.734 49.0386 59.1716 46.3967 50.3868 46.886C41.602 47.3754 36.981 51.4825 36.5502 54.8409C36.1195 58.1994 36.4272 62.7783 36.4272 62.7783L35.2141 61.8637H35.2111Z" fill="#1D1D1B"/>
<path d="M73.6869 63.724C73.6698 63.7106 73.6431 63.7355 73.6583 63.7528C73.98 64.0861 74.2407 64.4463 74.3035 64.9176C74.372 65.4234 74.2007 65.9196 73.9704 66.3565C73.9571 66.3814 73.9952 66.412 74.0161 66.391C74.7431 65.6495 74.5033 64.3045 73.6869 63.724Z" fill="white"/>
<path d="M74.7738 63.3542C74.751 63.3312 74.7148 63.3696 74.7358 63.3945C75.2306 64.0076 75.3942 65.3295 74.8728 65.9733C74.8652 65.9828 74.8804 66.0001 74.8899 65.9905C75.2382 65.6552 75.2915 65.0402 75.3086 64.5881C75.3257 64.1666 75.0707 63.6455 74.7757 63.3542H74.7738Z" fill="white"/>
<path d="M29.8945 63.0022C29.4282 63.3556 29.1639 63.8049 29.0565 64.4157C28.9362 65.0966 29.108 66.0444 29.656 66.4679C29.6882 66.4913 29.7204 66.4516 29.7011 66.4188C29.1188 65.4055 28.9727 63.847 29.931 63.0537C29.9611 63.028 29.9246 62.9788 29.8945 63.0022Z" fill="white"/>
<path d="M28.8373 62.9324C27.7544 63.6743 27.5847 65.5885 28.5301 66.5362C28.5494 66.5549 28.5838 66.5268 28.5709 66.5011C28.023 65.4247 27.9542 63.8451 28.8653 62.9722C28.8868 62.9512 28.861 62.9161 28.8373 62.9324Z" fill="white"/>
<path d="M23.3965 65.2046C23.3965 65.2046 23.1299 65.2832 22.7724 65.4755C22.5907 65.5658 22.3915 65.6939 22.1893 65.8425C21.9871 65.9911 21.7849 66.1687 21.6032 66.361C21.4157 66.5532 21.2575 66.7659 21.1139 66.9727C21.0494 67.0804 20.985 67.1824 20.9234 67.2814C20.859 67.3775 20.8209 67.4824 20.774 67.5698C20.6773 67.7504 20.6187 67.9077 20.5718 68.0184C20.5249 68.1291 20.4985 68.1902 20.4985 68.1902C20.4985 68.1902 20.5132 68.1232 20.5366 68.0067C20.5689 67.8902 20.5923 67.7183 20.6743 67.529C20.7124 67.4329 20.7447 67.3222 20.8003 67.2173C20.8531 67.1096 20.9058 66.996 20.9732 66.8824C21.108 66.6581 21.275 66.4309 21.4655 66.2299C21.6618 66.0289 21.8728 65.8454 22.0955 65.7056C22.3153 65.56 22.535 65.4551 22.7284 65.3794C23.1182 65.225 23.3965 65.2046 23.3965 65.2046Z" fill="#BB936E"/>
<path d="M78.7662 49.3066C78.6578 48.8697 78.4673 48.2026 78.0307 47.9667C77.6292 47.7482 76.9201 48.057 76.5099 48.1851C75.3788 48.5318 76.4484 49.7406 76.8615 50.7572C76.6711 50.7047 76.4689 50.7251 76.296 50.8591C75.9649 51.1213 75.8565 51.7329 76.17 52.0475C76.4513 52.333 77.0051 52.298 77.2981 52.0504C77.5091 51.8728 77.5911 51.6135 77.5003 51.3514C77.3069 50.795 77.2014 50.2358 76.9612 49.6882C77.093 49.6765 77.2249 49.6415 77.3128 49.6124C77.6146 49.5105 77.9281 49.4522 78.2329 49.3707C78.2768 49.5105 78.3178 49.6503 78.3471 49.7959C78.3589 49.8454 78.3647 49.8862 78.3706 49.9212C78.2739 49.9037 78.1713 49.9095 78.0746 49.9503C77.6029 50.1513 77.5912 50.9873 78.1743 51.0484C78.4263 51.0746 78.6636 50.9028 78.775 50.6843C79.0328 50.2911 78.8717 49.7377 78.7632 49.3124L78.7662 49.3066ZM76.8 49.3299C76.7092 49.1376 76.6066 48.9483 76.5158 48.7561C76.5011 48.7211 77.4241 48.4997 77.5472 48.4677C77.8197 48.3978 77.9692 48.6191 78.0658 48.8609C77.6234 48.9512 77.1809 49.0998 76.7971 49.3299H76.8Z" fill="white"/>
<path d="M83.5833 52.412C83.0968 52.3188 82.5284 52.447 82.0713 52.6334C81.9746 52.6742 81.9189 52.779 81.9335 52.881C81.9804 53.2043 82.25 53.4461 82.376 53.7374C82.4815 53.982 82.587 54.2063 82.6485 54.4626C82.6251 54.3694 82.1387 54.5355 82.0888 54.5675C81.916 54.6811 81.8134 54.8734 81.7753 55.0743C81.6405 55.7909 82.3555 56.3268 83.0177 55.9511C83.466 55.6948 83.3049 55.0569 83.2346 54.6549C83.1789 54.3257 83.0529 54.0345 82.9122 53.7344C82.8185 53.5335 82.5723 53.2305 82.4551 52.9829C82.836 52.8373 83.2287 52.7237 83.6096 52.5751C83.6946 52.5431 83.6653 52.4266 83.5862 52.412H83.5833Z" fill="white"/>
<path d="M22.1775 53.6352C22.0222 53.3147 21.905 52.9827 21.738 52.6652C21.6618 52.5195 21.5446 52.1525 21.3483 52.0914C20.9292 51.9632 20.2231 52.2428 19.8187 52.3826C19.0451 52.6506 19.8568 53.5973 20.2201 54.3954C20.1732 54.3954 20.1264 54.3954 20.0795 54.407C19.9007 54.3837 19.7396 54.4129 19.6106 54.5614C19.3967 54.8061 19.3118 55.176 19.4641 55.4702C19.6517 55.8285 20.1645 55.9537 20.5161 55.7469C20.8648 55.5401 20.9205 55.1819 20.8179 54.8148C20.7827 54.6896 20.437 53.6788 20.3784 53.6905C20.5249 53.6643 20.6714 53.6148 20.7652 53.5973C20.9556 53.5623 21.2662 53.5478 21.4889 53.4633C21.5182 53.5303 21.6589 53.8827 21.7116 53.9876C21.3453 54.0167 21.0142 54.3779 21.3219 54.7682C21.568 55.077 22.1013 55.1469 22.4149 54.9022C22.8075 54.5935 22.327 53.9352 22.1805 53.6322L22.1775 53.6352ZM21.1519 52.9856C20.9791 53.0351 20.8062 53.0905 20.6333 53.1429C20.5102 53.1808 20.3373 53.2215 20.1967 53.2973C20.1967 53.2944 20.1967 53.2914 20.1908 53.2885C20.0385 52.9681 19.8568 52.8603 20.3168 52.773C20.4311 52.7497 21.0552 52.5574 21.1168 52.6768C21.1637 52.7671 21.2076 52.8603 21.2516 52.9506C21.2193 52.9623 21.1842 52.9769 21.1519 52.9856Z" fill="white"/>
<path d="M29.4066 47.8936C28.8674 48.0159 28.4015 48.0683 27.8565 48.1382C27.5752 48.1732 27.206 48.2897 27.2118 48.6392C27.2206 49.2334 27.5752 49.8684 27.7598 50.4394C27.7862 50.518 27.8096 50.5996 27.836 50.6782C27.7832 50.6666 27.7305 50.6549 27.6777 50.6491C27.1972 50.6025 26.7606 50.9316 26.6698 51.4064C26.6375 51.5695 26.6346 51.7559 26.6961 51.9132C26.7489 52.0414 26.8749 52.187 27.0009 52.254C27.1738 52.3443 27.373 52.3909 27.5693 52.3793C27.9473 52.3589 28.3693 52.2395 28.5451 51.8695C28.8 51.3452 28.5334 50.8996 28.3546 50.3869C28.2638 50.1277 27.4697 48.5664 28.2638 48.5839C28.718 48.5926 29.2513 48.4732 29.5091 48.0741C29.559 47.9984 29.5091 47.8732 29.4037 47.8965L29.4066 47.8936Z" fill="white"/>
<path d="M67.4145 76.0259C67.4145 76.0259 75.0683 70.6547 78.356 63.4455C76.9964 63.5736 75.5782 62.4143 75.6514 61.7269C75.7217 61.0366 78.3414 61.8813 78.3414 61.8813C78.3414 61.8813 75.9327 58.9685 76.7473 58.1412C77.559 57.314 79.4402 61.1618 79.4402 61.1618C79.4402 61.1618 79.2585 57.1509 80.0878 57.2091C80.917 57.2674 80.75 61.2405 80.75 61.2405C80.75 61.2405 82.6254 58.6044 83.5484 58.9277C84.4714 59.2481 81.9104 61.8813 81.9104 61.8813C81.9104 61.8813 84.4216 61.5754 84.5476 62.1755C84.6765 62.7784 82.1009 63.16 82.1009 63.16C82.1009 63.16 81.0694 64.5552 79.8035 64.2669C76.844 69.1895 72.3637 75.4171 68.279 77.9221L67.4087 76.0259H67.4145Z" fill="#EFD9C1"/>
<path d="M39.4747 78.7665L39.2579 80.555C32.3074 79.4685 23.7113 75.6107 20.9892 73.1348C22.0118 72.6134 22.5934 72.1553 22.5934 72.1553C22.5934 72.1553 28.5333 76.9897 39.4777 78.7694L39.4747 78.7665Z" fill="#EFD9C1"/>
<path d="M58.7438 77.6392C57.8091 78.0207 56.7806 78.3411 55.6583 78.5683C55.6759 80.785 55.1045 83.1298 52.52 83.2813C50.0381 83.4269 49.3554 80.785 49.2001 78.6936C48.3005 78.5596 47.3658 78.3615 46.3959 78.0877C45.0333 80.9831 44.1689 84.4231 44.1689 84.4231C44.1689 84.4231 42.0035 95.987 41.8013 99.1881C47.8463 101.489 56.9623 102.523 62.7495 101.323C62.896 91.0235 61.6506 84.3299 61.6506 84.3299C60.8184 81.4346 59.4676 78.8888 58.7438 77.6392Z" fill="#F1F1EC"/>
<path d="M65.492 72.7104C65.492 72.7104 63.2005 75.8213 58.7437 77.6389C59.4674 78.8885 60.8183 81.4343 61.6504 84.3297L69.2192 78.7312L65.492 72.7104Z" fill="#F1F1EC"/>
<path d="M42.2908 76.5533L40.3041 75.2134L38.0889 82.2886L44.1691 84.4237C44.1691 84.4237 45.0335 80.9807 46.3961 78.0883C45.0921 77.7184 43.7237 77.2174 42.2908 76.5562V76.5533Z" fill="#F1F1EC"/>
<path d="M60.1035 77.0112L63.57 82.9096L65.9054 81.1794L62.559 75.4849C61.8617 76.0004 61.0412 76.5247 60.1006 77.0083L60.1035 77.0112Z" fill="#CF3632"/>
<path d="M69.2162 78.7312L65.489 72.7104C65.489 72.7104 65.1344 73.1911 64.437 73.8814L67.8712 79.7245L69.2133 78.7312H69.2162Z" fill="#CF3632"/>
<path d="M40.3009 75.2134L38.0857 82.2886L39.1171 82.6527L41.2415 75.8455L40.3009 75.2134Z" fill="#CF3632"/>
<path d="M42.6366 76.7046L40.6147 83.1769L42.4227 83.8119L44.4123 77.4386C43.8321 77.2231 43.2373 76.9755 42.6366 76.7075V76.7046Z" fill="#CF3632"/>
<path d="M41.7983 99.1888C47.8434 101.49 56.9593 102.524 62.7465 101.324C62.7583 100.657 62.7612 100.007 62.7583 99.3694C54.9932 100.54 45.1828 98.3586 41.9654 97.5547C41.8804 98.2101 41.8218 98.7722 41.7954 99.1888H41.7983Z" fill="#CF3632"/>
<path d="M58.7438 77.6392C57.809 78.0207 56.7805 78.3411 55.6582 78.5683C55.6612 79.2703 55.6084 79.9811 55.4531 80.6335L60.3466 80.785C59.7488 79.4422 59.1481 78.3382 58.7438 77.6392Z" fill="#CF3632"/>
<path d="M42.3315 95.035C45.59 95.906 55.6992 98.3615 62.7376 97.3041C62.7171 96.206 62.679 95.1661 62.6322 94.1845C53.3902 95.303 45.0654 92.8912 42.7975 92.1484C42.6334 93.1301 42.4722 94.1146 42.3315 95.035Z" fill="#CF3632"/>
<path d="M49.2002 78.6942C48.3006 78.5603 47.3658 78.3622 46.3959 78.0884C46.0502 78.8195 45.7366 79.5856 45.4641 80.3254L49.4727 80.4507C49.3262 79.8681 49.2441 79.2622 49.2031 78.6942H49.2002Z" fill="#CF3632"/>
<path d="M43.7237 86.8413C43.5743 87.6715 43.3955 88.6647 43.2139 89.7279C45.9448 90.3658 55.3479 92.3786 62.4772 91.6008C62.3951 90.4765 62.3043 89.4687 62.2135 88.5803C56.69 88.9735 47.2898 87.4647 43.7237 86.8413Z" fill="#CF3632"/>
<path d="M61.6507 84.3306C61.5393 83.9461 61.4221 83.5733 61.2961 83.2062L54.2108 82.7111C53.7772 83.0315 53.2233 83.2412 52.5201 83.282C51.5883 83.3373 50.9114 82.9994 50.4191 82.446L44.8634 82.0586C44.4854 83.2295 44.2481 84.1238 44.1865 84.3597L61.8939 85.8919C61.7532 84.8782 61.6507 84.3306 61.6507 84.3306Z" fill="#CF3632"/>
<path d="M54.0878 78.7872C54.2373 80.966 53.6952 82.3204 52.0132 82.1049C50.7327 81.9417 50.261 80.3281 50.0998 78.7988C49.7687 78.7668 49.4317 78.7231 49.0889 78.6736C49.2471 80.797 49.9386 83.4855 52.4616 83.337C55.09 83.1826 55.6702 80.797 55.6526 78.5454C55.1486 78.6474 54.627 78.726 54.0878 78.7872Z" fill="#285D74"/>
<path d="M52.0133 82.1024C53.6952 82.3179 54.2403 80.9635 54.0879 78.7847C52.8543 78.9216 51.5239 78.939 50.0999 78.7963C50.261 80.3255 50.7328 81.9392 52.0133 82.1024Z" fill="#CDA985"/>
<g style="mix-blend-mode:multiply">
<path d="M65.492 72.7104C65.492 72.7104 63.2005 75.8213 58.7437 77.6389C57.8089 78.0205 56.7804 78.3409 55.6581 78.5681C55.6757 80.7848 55.1043 83.1296 52.5199 83.281C50.038 83.4267 49.3552 80.7848 49.1999 78.6934C48.3003 78.5594 47.3656 78.3613 46.3957 78.0875C45.0917 77.7176 43.7233 77.2166 42.2904 76.5554L40.3037 75.2155L40.1074 75.8446C41.3381 77.3098 44.2039 80.0333 48.4967 79.9983C49.1589 83.15 50.9727 84.4549 53.229 83.9859C55.4853 83.517 56.2647 80.945 56.2969 79.6954L58.6616 79.1827C58.6616 79.1827 61.9728 91.8185 60.2791 101.684C61.1494 101.6 61.9816 101.483 62.7493 101.323C62.8958 91.0233 61.6504 84.3297 61.6504 84.3297L69.2192 78.7312L65.492 72.7104Z" fill="#C0BFBF"/>
</g>
<path d="M66.8753 71.6887L66.6942 71.5657C66.6909 71.5695 66.6878 71.5736 66.6848 71.578C66.6157 71.6787 66.5463 71.7791 66.4766 71.8794C66.5114 71.9249 66.5519 71.9572 66.5881 71.9782C66.6082 71.9899 66.6305 72.0002 66.6545 72.0085C66.7253 71.9066 66.7958 71.8046 66.8659 71.7023C66.8661 71.702 66.8663 71.7017 66.8665 71.7014C66.8695 71.6972 66.8724 71.6929 66.8753 71.6887ZM66.8753 71.6887C66.9512 71.5768 66.7788 71.4704 66.6949 71.565L66.8753 71.6887Z" fill="#3C3C3B" stroke="#3C3C3B"/>
<mask id="path-61-inside-1_1172_15235" fill="white">
<path d="M35.0208 71.1439C36.6676 73.3605 38.3935 75.5218 40.1927 77.6162C41.1186 78.6939 42.0651 79.7571 43.0321 80.8028C43.9258 81.7698 44.8898 82.6874 45.722 83.7068C46.7007 84.9069 47.4626 86.4362 47.067 88.0149C47.0318 88.1518 47.2457 88.2101 47.278 88.0732C47.9431 85.4196 45.7279 83.3427 44.0811 81.6038C42.0768 79.4862 40.1546 77.2928 38.3173 75.0325C37.2537 73.7217 36.2164 72.3877 35.2113 71.0332C35.1292 70.9225 34.9388 71.0303 35.0208 71.1439Z"/>
</mask>
<path d="M35.0208 71.1439C36.6676 73.3605 38.3935 75.5218 40.1927 77.6162C41.1186 78.6939 42.0651 79.7571 43.0321 80.8028C43.9258 81.7698 44.8898 82.6874 45.722 83.7068C46.7007 84.9069 47.4626 86.4362 47.067 88.0149C47.0318 88.1518 47.2457 88.2101 47.278 88.0732C47.9431 85.4196 45.7279 83.3427 44.0811 81.6038C42.0768 79.4862 40.1546 77.2928 38.3173 75.0325C37.2537 73.7217 36.2164 72.3877 35.2113 71.0332C35.1292 70.9225 34.9388 71.0303 35.0208 71.1439Z" fill="#3C3C3B"/>
<path d="M35.0208 71.1439L34.2101 71.7294L34.2181 71.7402L35.0208 71.1439ZM40.1927 77.6162L39.4341 78.2678L39.4342 78.2678L40.1927 77.6162ZM43.0321 80.8028L43.7665 80.1241L43.7663 80.1238L43.0321 80.8028ZM45.722 83.7068L46.497 83.0748L46.4967 83.0745L45.722 83.7068ZM47.067 88.0149L48.0356 88.2637L48.037 88.258L47.067 88.0149ZM47.278 88.0732L46.308 87.83L46.3062 87.837L46.3046 87.844L47.278 88.0732ZM44.0811 81.6038L43.3548 82.2912L43.355 82.2914L44.0811 81.6038ZM38.3173 75.0325L37.5408 75.6626L37.5413 75.6632L38.3173 75.0325ZM35.2113 71.0332L34.4079 71.6287L34.4082 71.6291L35.2113 71.0332ZM34.2181 71.7402C35.8788 73.9756 37.6194 76.1553 39.4341 78.2678L40.9512 76.9645C39.1676 74.8884 37.4565 72.7455 35.8235 70.5475L34.2181 71.7402ZM39.4342 78.2678C40.3678 79.3545 41.3223 80.4268 42.2979 81.4817L43.7663 80.1238C42.8078 79.0874 41.8695 78.0333 40.9512 76.9645L39.4342 78.2678ZM42.2977 81.4815C43.2541 82.5164 44.1371 83.3466 44.9473 84.3392L46.4967 83.0745C45.6426 82.0281 44.5974 81.0232 43.7665 80.1241L42.2977 81.4815ZM44.947 84.3389C45.8609 85.4594 46.3757 86.6593 46.097 87.7718L48.037 88.258C48.5494 86.213 47.5405 84.3544 46.497 83.0748L44.947 84.3389ZM46.0984 87.7661C46.0183 88.0782 46.0758 88.4063 46.2581 88.6698C46.425 88.9111 46.6611 89.0503 46.8827 89.1111C47.1033 89.1716 47.3862 89.1749 47.6626 89.0409C47.9676 88.8931 48.1769 88.6186 48.2513 88.3023L46.3046 87.844C46.3629 87.5962 46.5334 87.3657 46.7903 87.2412C47.0186 87.1305 47.2442 87.1364 47.4117 87.1823C47.5801 87.2285 47.7674 87.336 47.903 87.5322C48.0541 87.7506 48.0981 88.0201 48.0355 88.2637L46.0984 87.7661ZM48.248 88.3163C48.6702 86.6319 48.1544 85.1653 47.3913 83.9605C46.6488 82.788 45.5919 81.7448 44.8072 80.9162L43.355 82.2914C44.2171 83.2017 45.0912 84.0665 45.7017 85.0305C46.2917 85.9622 46.5509 86.8608 46.308 87.83L48.248 88.3163ZM44.8074 80.9164C42.8206 78.8173 40.915 76.6429 39.0933 74.4017L37.5413 75.6632C39.3942 77.9428 41.333 80.1551 43.3548 82.2912L44.8074 80.9164ZM39.0938 74.4024C38.0389 73.1024 37.0105 71.7797 36.0143 70.4373L34.4082 71.6291C35.4222 72.9956 36.4684 74.3411 37.5408 75.6626L39.0938 74.4024ZM36.0146 70.4377C35.5947 69.8712 34.9224 69.9274 34.557 70.137C34.3639 70.2477 34.148 70.4508 34.0499 70.7651C33.94 71.1169 34.0222 71.4692 34.2101 71.7294L35.8315 70.5584C35.9784 70.7618 36.0536 71.058 35.959 71.3611C35.8761 71.6267 35.6976 71.7884 35.552 71.8719C35.2818 72.0269 34.7458 72.0845 34.4079 71.6287L36.0146 70.4377Z" fill="#3C3C3B" mask="url(#path-61-inside-1_1172_15235)"/>
<path d="M36.3774 67.0983C36.6529 65.9419 37.2711 64.503 37.1539 63.3087C37.0514 62.2456 37.0572 61.063 36.814 59.9998C36.7144 59.8192 36.6001 59.659 36.4653 59.5367C36.3833 59.4464 36.2807 59.3677 36.1459 59.3124C35.4866 59.0444 34.5695 59.3502 33.9688 59.6299C32.3689 60.3755 31.9176 62.0999 31.5718 63.6612C31.1704 65.4934 30.9829 67.3313 31.8678 69.047C32.615 70.4917 34.0332 71.2141 35.6068 71.2753C36.1752 71.2957 36.5943 71.1122 36.9107 70.8092C36.2573 69.7169 36.0668 68.3858 36.3745 67.1041L36.3774 67.0983Z" fill="#575756"/>
<path d="M36.3774 67.0984C36.6528 65.942 37.2711 64.5031 37.1539 63.3089C37.0514 62.2457 37.0572 61.0631 36.814 59.9999C36.7144 59.8193 36.6001 59.6591 36.4653 59.5368C36.3833 59.4465 36.2807 59.3678 36.1459 59.3125C35.7298 59.1435 35.2112 59.2018 34.7336 59.3416C34.546 59.4581 34.3702 59.595 34.212 59.764C33.2274 60.833 32.7146 62.269 32.5476 63.6817C32.3776 65.1235 32.2282 66.6965 32.5535 68.1237C32.7322 68.9131 33.0809 69.8248 33.5703 70.4802C33.6787 70.6288 33.7929 70.7715 33.9102 70.9113C34.4347 71.1298 35.0119 71.2492 35.6126 71.2725C36.1811 71.2929 36.6001 71.1094 36.9166 70.8064C36.2631 69.7141 36.0727 68.383 36.3803 67.1013L36.3774 67.0984Z" fill="#3C3C3B"/>
<path d="M36.3776 67.0985C36.6531 65.9421 37.2714 64.5032 37.1542 63.3089C37.0516 62.2457 37.0575 61.0631 36.8143 60C36.7146 59.8194 36.6003 59.6592 36.4656 59.5368C36.3835 59.4465 36.2839 59.3708 36.155 59.3184C34.8686 59.6329 34.2679 64.1828 34.2444 64.7478C34.1888 66.1518 34.5697 69.9297 35.9645 71.2551C36.3601 71.2055 36.6677 71.0395 36.9139 70.8036C36.2604 69.7113 36.0729 68.383 36.3776 67.1014V67.0985Z" fill="#1D1D1B"/>
<path d="M72.1147 62.668C71.9477 61.7504 71.643 60.8562 71.0569 60.1717C70.6467 59.6911 70.0606 59.4085 69.4482 59.2979C66.4828 58.7502 64.921 61.5291 64.2881 63.938C63.6845 66.2362 63.5585 68.6334 64.88 70.7277C66.4535 73.2182 70.0577 72.6094 71.3558 70.5908C72.4634 68.8664 72.4078 66.6032 72.314 64.6341C72.2847 64.0108 72.2378 63.3321 72.1147 62.668Z" fill="#575756"/>
<path d="M66.7346 66.1046C66.9045 64.7618 67.139 63.518 67.6986 62.2888C68.0825 61.4441 68.8473 59.9702 69.9344 59.8595C70.8779 59.7634 71.5812 60.9344 71.8625 61.68C71.8771 61.7208 71.8889 61.7616 71.9035 61.7995C71.7218 61.1994 71.4523 60.6343 71.0537 60.1683C70.6435 59.6877 70.0575 59.4051 69.4451 59.2944C66.4797 58.7468 64.9179 61.5257 64.2849 63.9345C63.6813 66.2328 63.5553 68.63 64.8768 70.7243C65.8965 72.3351 67.7602 72.6439 69.3044 72.1196C68.9879 72.0904 68.6363 71.9593 68.2437 71.703C66.4591 70.535 66.4972 67.9338 66.7317 66.1046H66.7346Z" fill="#3C3C3B"/>
<path d="M65.9788 70.3978C64.965 68.5336 65.088 66.2471 65.5569 64.2402C65.7327 63.4916 65.97 62.7605 66.3158 62.073C66.562 61.5837 66.852 61.1118 67.192 60.6807C67.7135 60.0195 68.4373 59.3204 69.3398 59.2796C66.4477 58.8194 64.9122 61.5545 64.2881 63.9343C63.6845 66.2325 63.5585 68.6298 64.88 70.7241C65.6243 71.9009 66.8169 72.3786 68.0066 72.3494C67.1451 72.1135 66.3832 71.1377 65.9818 70.3978H65.9788Z" fill="#1D1D1B"/>
<path d="M19.4905 60.8126C20.563 60.4863 23.0859 59.6824 23.5987 60.064C24.1584 60.4805 26.5055 68.0917 25.9751 68.7849C25.4448 69.4782 21.7292 70.9521 20.9176 70.5355C20.1059 70.119 17.8438 63.0088 17.8438 62.1495C17.8438 61.2903 19.1301 60.9262 19.4905 60.8155V60.8126Z" fill="#575756"/>
<path d="M18.7932 62.2862C18.9631 61.7385 22.3973 60.9521 22.8164 61.2317C23.2354 61.5084 24.4632 65.9243 24.3254 66.3146C24.1848 66.7049 20.6392 67.8438 20.3872 67.5088C20.1352 67.1768 18.5705 63.0085 18.7961 62.2862H18.7932Z" fill="#B1B1B1"/>
<path d="M20.6217 67.7566C20.4986 67.7566 20.3257 67.7421 20.232 67.6197C20.0063 67.3197 18.3566 63.0466 18.6086 62.2281C18.8137 61.5698 21.6678 60.9814 22.4677 60.9814C22.6846 60.9814 22.8282 61.0106 22.9219 61.0717C23.4406 61.4155 24.6683 65.9245 24.5042 66.376C24.3196 66.8945 21.3425 67.7566 20.6188 67.7566H20.6217ZM20.5221 67.3663C20.5396 67.3692 20.5689 67.3751 20.6217 67.3751C21.4187 67.3751 23.9475 66.51 24.1526 66.2303C24.2229 65.8429 23.086 61.7096 22.7051 61.3863C22.7051 61.3863 22.6494 61.363 22.4677 61.363C21.3572 61.363 19.1068 62.0388 18.9749 62.3446C18.7932 62.9359 20.1968 66.8653 20.5221 67.3692V67.3663Z" fill="#868686"/>
<path d="M24.5677 67.2021C24.1428 66.7739 23.381 67.2283 22.9649 67.47C22.4404 67.7788 21.9569 68.2507 21.6199 68.7925C21.7283 68.4021 21.866 68.0206 22.1122 67.6623C22.5458 67.0273 23.1495 66.5175 23.7062 66.0049C24.0022 65.734 24.0578 65.4602 23.7912 65.1427C23.6828 65.0145 23.5451 64.9708 23.4015 64.9738C23.4689 64.6737 23.2403 64.3446 22.9033 64.2339C22.1708 63.9921 21.1511 64.5747 20.6119 64.9912C19.85 65.5825 19.4955 66.3981 19.3343 67.3011C19.1644 66.6166 19.0413 66.0136 19.4457 65.2592C19.8383 64.5252 20.65 64.2485 21.0456 63.561C21.1921 63.3047 20.9811 62.929 20.7584 62.7833C20.3833 62.5416 19.8676 62.7425 19.516 62.9202C18.2648 63.5523 17.4941 65.2388 17.3388 66.5438C17.2128 67.6099 17.5645 69.0255 18.215 69.9984C18.2238 70.0042 18.2384 70.0042 18.2443 70.0129C19.2493 71.0324 20.1313 72.1568 21.0602 73.2432C21.069 73.2461 21.0778 73.252 21.0895 73.2549C21.8514 73.6685 22.6191 73.016 22.748 72.1509C22.8945 71.1577 22.2792 70.1236 22.9385 69.2294C23.3927 68.6148 24.386 68.2099 24.6204 67.4642C24.6468 67.3739 24.6322 67.2661 24.5618 67.1991L24.5677 67.2021Z" fill="#EFD9C1"/>
<path d="M91.1655 122.445L86.8061 122.27C61.2334 121.229 35.6238 121.126 10.0397 121.947C5.30563 121.918 1.49065 118.038 1.51985 113.283L1.5651 105.915C1.59066 101.754 3.11644 99.2837 7.92935 97.8897C9.15401 97.5374 10.4089 97.3418 11.6788 97.2322C13.6653 97.0724 17.4593 96.7593 21.9389 96.3958C41.1347 94.832 60.4293 94.9505 79.6045 96.7499L89.9314 97.7207C91.1999 97.838 92.4601 98.0412 93.6804 98.3929C98.6318 99.8078 99.8698 102.357 99.8442 106.526L99.7989 113.894C99.7697 118.65 95.9074 122.482 91.1733 122.453L91.1655 122.445Z" fill="#2A3069"/>
<path fill-rule="evenodd" clip-rule="evenodd" d="M91.368 120.452C94.9058 120.376 97.7769 117.48 97.799 113.882L97.8442 106.514C97.856 104.591 97.5651 103.404 96.9847 102.566C96.4204 101.751 95.3611 100.953 93.1309 100.316L93.1266 100.315C92.059 100.007 90.9287 99.8214 89.7472 99.7122L89.7442 99.7119L79.4176 98.7412C79.4175 98.7412 79.4177 98.7412 79.4176 98.7412C60.3587 96.9526 41.1808 96.8348 22.1013 98.3891C19.8221 98.5741 17.7168 98.7463 15.9377 98.8919C14.228 99.0317 12.8191 99.1469 11.8451 99.2253C10.6661 99.3273 9.54802 99.5053 8.48384 99.8113C6.30807 100.442 5.17975 101.23 4.55062 102.066C3.92353 102.901 3.57647 104.07 3.56507 105.927L3.51982 113.295C3.49742 116.943 6.4117 119.905 10.0163 119.947C35.6346 119.126 61.2788 119.229 86.8865 120.271C86.8862 120.271 86.8868 120.271 86.8865 120.271L91.368 120.452ZM11.6788 97.2322C10.4089 97.3418 9.15401 97.5374 7.92935 97.8897C3.11644 99.2837 1.59066 101.754 1.5651 105.915L1.51985 113.283C1.49065 118.038 5.30563 121.918 10.0397 121.947C35.6238 121.126 61.2334 121.229 86.8061 122.27L91.1655 122.445L91.1733 122.453C95.9074 122.482 99.7697 118.65 99.7989 113.894L99.8442 106.526C99.8698 102.357 98.6318 99.8078 93.6804 98.3929C92.4601 98.0412 91.1999 97.838 89.9314 97.7207L79.6045 96.7499C60.4293 94.9505 41.1347 94.832 21.9389 96.3958C19.656 96.581 17.5512 96.7532 15.7729 96.8987C14.0617 97.0386 12.6529 97.1538 11.6788 97.2322Z" fill="#181C36"/>
<path d="M10.097 114.758V104.703C10.1595 104.693 10.2637 104.682 10.4095 104.672C10.5554 104.661 10.7377 104.648 10.9564 104.633C11.446 104.591 11.8991 104.562 12.3158 104.547C12.7325 104.526 13.1153 104.516 13.4642 104.516C14.0736 104.516 14.5658 104.544 14.9408 104.602C15.3158 104.654 15.67 104.75 16.0033 104.891C16.3054 105.021 16.558 105.185 16.7611 105.383C16.9642 105.576 17.1309 105.828 17.2611 106.141C17.3392 106.328 17.3965 106.534 17.433 106.758C17.4694 106.977 17.4877 107.219 17.4877 107.484V114.758H10.097ZM11.4174 113.688H16.1595V107.461C16.1595 107.122 16.1153 106.841 16.0267 106.617C15.9382 106.388 15.8028 106.203 15.6205 106.062C15.4851 105.948 15.321 105.859 15.1283 105.797C14.9408 105.729 14.7273 105.682 14.4877 105.656C14.3627 105.635 14.2064 105.622 14.0189 105.617C13.8366 105.607 13.6231 105.602 13.3783 105.602C13.1387 105.602 12.8549 105.609 12.5267 105.625C12.1986 105.641 11.8288 105.664 11.4174 105.695V113.688ZM20.0502 111.109V104.672H21.3705V109.93L20.4252 111.109H20.0502ZM28.0424 114.758V107.594C28.0424 106.979 27.9017 106.526 27.6205 106.234C27.3392 105.938 26.92 105.75 26.3627 105.672C26.2377 105.646 26.0997 105.628 25.9486 105.617C25.8028 105.607 25.6465 105.602 25.4799 105.602C25.2767 105.602 25.0241 105.607 24.722 105.617C24.42 105.622 24.1127 105.635 23.8002 105.656C23.4877 105.672 23.2116 105.688 22.972 105.703V104.609C23.4356 104.578 23.8601 104.555 24.2455 104.539C24.6309 104.523 24.9825 104.516 25.3002 104.516C25.9252 104.516 26.4226 104.542 26.7924 104.594C27.1622 104.646 27.5085 104.74 27.8314 104.875C28.1543 105.01 28.4226 105.182 28.6361 105.391C28.8497 105.594 29.0215 105.862 29.1517 106.195C29.2247 106.404 29.2767 106.62 29.308 106.844C29.3444 107.068 29.3627 107.318 29.3627 107.594V114.758H28.0424ZM31.8939 111.109V104.672H33.2142V109.93L32.2689 111.109H31.8939ZM35.9642 114.758L35.1127 104.672H36.3705L36.847 110.43C37.196 110.346 37.5293 110.232 37.847 110.086C38.1648 109.935 38.4278 109.737 38.6361 109.492C38.8809 109.195 39.0632 108.833 39.183 108.406C39.308 107.979 39.3939 107.523 39.4408 107.039L39.6595 104.672H40.8861L40.6674 107.031C40.5997 107.729 40.4877 108.328 40.3314 108.828C40.1752 109.323 39.9382 109.755 39.6205 110.125C39.3288 110.479 38.9694 110.76 38.5424 110.969C38.1205 111.177 37.6049 111.333 36.9955 111.438C36.9851 111.438 36.9747 111.44 36.9642 111.445C36.9538 111.445 36.946 111.445 36.9408 111.445L37.1283 113.695H39.308C40.0267 113.695 40.6934 113.503 41.308 113.117C41.9226 112.727 42.4304 112.18 42.8314 111.477C43.2273 110.763 43.4694 109.956 43.558 109.055L43.972 104.672H45.2064L44.7845 109.07C44.7273 109.669 44.6127 110.232 44.4408 110.758C44.2689 111.279 44.045 111.766 43.7689 112.219C43.4877 112.677 43.1622 113.081 42.7924 113.43C42.4226 113.779 41.9825 114.062 41.472 114.281C41.1387 114.453 40.7819 114.576 40.4017 114.648C40.0267 114.721 39.6361 114.758 39.2299 114.758H35.9642ZM50.4095 115.18V114.094L52.5033 113.781C52.6491 113.755 52.7976 113.727 52.9486 113.695C53.1049 113.664 53.2585 113.625 53.4095 113.578L51.0502 104.672H52.347L53.5424 109.195L54.4799 113.172C54.9694 112.932 55.4043 112.615 55.7845 112.219C56.1648 111.818 56.4747 111.352 56.7142 110.82C56.9538 110.289 57.1075 109.706 57.1752 109.07L57.597 104.672H58.847L58.4252 109.031C58.3835 109.469 58.3054 109.885 58.1908 110.281C58.0814 110.677 57.933 111.055 57.7455 111.414C57.5632 111.768 57.347 112.104 57.097 112.422C56.6648 113.047 56.097 113.565 55.3939 113.977C54.6908 114.388 53.8627 114.664 52.9095 114.805C52.4408 114.878 51.9981 114.943 51.5814 115C51.1648 115.062 50.7741 115.122 50.4095 115.18ZM60.7299 114.758V104.672H62.0424V114.758H60.7299ZM64.1986 114.758L64.9017 107.25C64.9122 107.151 64.9174 107.065 64.9174 106.992C64.9226 106.914 64.9252 106.839 64.9252 106.766C64.9252 106.609 64.9148 106.464 64.8939 106.328C64.8783 106.188 64.8497 106.029 64.808 105.852C64.7976 105.799 64.7715 105.714 64.7299 105.594C64.6882 105.469 64.6465 105.349 64.6049 105.234C64.5684 105.115 64.545 105.036 64.5345 105C64.5137 104.938 64.4903 104.878 64.4642 104.82C64.4434 104.758 64.4226 104.695 64.4017 104.633H65.6752C65.7689 104.841 65.847 105.036 65.9095 105.219C65.972 105.396 66.0189 105.562 66.0502 105.719H66.1517C66.2194 105.615 66.3523 105.484 66.5502 105.328C66.7533 105.172 66.9564 105.042 67.1595 104.938C67.3627 104.828 67.6309 104.732 67.9642 104.648C68.2976 104.56 68.6543 104.516 69.0345 104.516C69.3835 104.516 69.7012 104.56 69.9877 104.648C70.2741 104.737 70.5293 104.859 70.7533 105.016C70.9095 105.13 71.0502 105.26 71.1752 105.406C71.3054 105.547 71.4174 105.701 71.5111 105.867C71.6674 106.159 71.7845 106.495 71.8627 106.875C71.946 107.25 71.9877 107.667 71.9877 108.125V114.758H68.5424V113.688H70.6674V108.125C70.6674 107.724 70.6231 107.37 70.5345 107.062C70.446 106.75 70.3132 106.492 70.1361 106.289C70.0319 106.154 69.9095 106.036 69.7689 105.938C69.6335 105.833 69.4747 105.755 69.2924 105.703C69.1153 105.646 68.9122 105.617 68.683 105.617C68.3497 105.617 68.0345 105.667 67.7377 105.766C67.4408 105.865 67.2012 105.979 67.0189 106.109C66.847 106.234 66.6908 106.375 66.5502 106.531C66.4148 106.682 66.3054 106.844 66.222 107.016L65.5033 114.758H64.1986ZM74.8549 114.758L74.0033 104.672H75.2611L75.7377 110.43C76.0866 110.346 76.42 110.232 76.7377 110.086C77.0554 109.935 77.3184 109.737 77.5267 109.492C77.7715 109.195 77.9538 108.833 78.0736 108.406C78.1986 107.979 78.2845 107.523 78.3314 107.039L78.5502 104.672H79.7767L79.558 107.031C79.4903 107.729 79.3783 108.328 79.222 108.828C79.0658 109.323 78.8288 109.755 78.5111 110.125C78.2194 110.479 77.8601 110.76 77.433 110.969C77.0111 111.177 76.4955 111.333 75.8861 111.438C75.8757 111.438 75.8653 111.44 75.8549 111.445C75.8444 111.445 75.8366 111.445 75.8314 111.445L76.0189 113.695H78.1986C78.9174 113.695 79.584 113.503 80.1986 113.117C80.8132 112.727 81.321 112.18 81.722 111.477C82.1179 110.763 82.3601 109.956 82.4486 109.055L82.8627 104.672H84.097L83.6752 109.07C83.6179 109.669 83.5033 110.232 83.3314 110.758C83.1595 111.279 82.9356 111.766 82.6595 112.219C82.3783 112.677 82.0528 113.081 81.683 113.43C81.3132 113.779 80.8731 114.062 80.3627 114.281C80.0293 114.453 79.6726 114.576 79.2924 114.648C78.9174 114.721 78.5267 114.758 78.1205 114.758H74.8549ZM88.2767 114.758L89.0189 110.898L90.5033 105.758H85.097V102.531H86.4095V104.633H91.8002V105.75L90.3392 110.844L89.597 114.758H88.2767Z" fill="white"/>
<defs>
<clipPath id="clip0_1172_15235">
<rect width="67.24" height="58.77" fill="white" transform="translate(18.8525 44.0571)"/>
</clipPath>
</defs>
</svg>
