<svg width="110" height="223" viewBox="0 0 110 223" fill="none" xmlns="http://www.w3.org/2000/svg">
<path d="M45.5364 197.552C45.5364 197.552 43.9128 202.65 45.5364 206.992C46.9002 210.629 50.9996 216.603 45.5364 219.347C40.0731 222.091 30.5834 219.988 33.2135 210.459C35.8437 200.929 36.5581 196.018 36.5581 196.018L45.5364 197.552Z" fill="#8E5E48"/>
<g style="mix-blend-mode:screen">
<path d="M43.9531 212.918C44.5133 212.398 44.9354 211.733 45.2358 211.035C45.3494 210.75 45.4468 210.466 45.5199 210.166C45.804 211.132 45.9177 212.212 45.5199 213.129C44.9922 214.347 43.669 214.517 42.4919 214.347C42.841 213.762 43.4742 213.372 43.9613 212.918H43.9531Z" fill="#8E5E48"/>
</g>
<g style="mix-blend-mode:multiply">
<path d="M33.2137 210.459C35.8438 200.929 36.5582 196.018 36.5582 196.018L39.3589 196.497C39.1884 197.341 38.9692 198.177 38.75 199.013C38.5146 199.898 38.2711 200.774 38.0519 201.659C37.8408 202.52 37.6216 203.396 37.6541 204.281C37.6785 205.02 37.8408 205.742 37.8814 206.473C37.922 207.155 37.8084 207.772 37.508 208.389C37.0047 209.452 36.2254 210.385 35.9413 211.546C35.6571 212.723 35.99 214.038 36.7368 214.988C37.4836 215.93 38.6201 216.498 39.7729 216.774C41.8754 217.277 44.465 217.107 46.2509 215.784C47.152 215.118 47.7202 214.241 48.0287 213.267C48.6213 215.646 48.3534 217.927 45.5284 219.347C40.0651 222.091 30.5754 219.988 33.2056 210.459H33.2137Z" fill="#8E5E48"/>
</g>
<g style="mix-blend-mode:multiply" opacity="0.38">
<path d="M33.2135 210.459C35.8437 200.929 36.558 196.018 36.558 196.018L37.8975 196.245C37.7351 198.713 37.3698 201.164 36.8909 203.591C36.623 204.979 36.3307 206.359 35.9898 207.731C35.6651 209.046 35.3322 210.361 35.2186 211.717C35.1131 212.951 35.2186 214.217 35.795 215.329C36.3226 216.344 37.1425 217.188 38.0679 217.854C39.9837 219.242 42.484 219.859 44.8301 219.656C39.3019 221.896 30.6889 219.583 33.2135 210.45V210.459Z" fill="#8E5E48"/>
</g>
<g style="mix-blend-mode:multiply">
<path d="M43.093 200.994C41.0879 200.458 39.026 200.109 36.9559 199.995C36.5744 199.971 36.1847 199.963 35.8032 199.963C36.3552 197.357 36.55 196.018 36.55 196.018L45.5283 197.552C45.5283 197.552 44.9844 199.256 44.8383 201.529C44.2619 201.335 43.6775 201.148 43.0849 200.994H43.093Z" fill="#8E5E48"/>
</g>
<path d="M37.5401 218.69C39.4559 219.152 41.4853 219.104 43.393 218.633C45.2114 218.186 46.8756 217.147 47.6873 215.402C47.9228 214.899 48.0608 214.379 48.1582 213.852C48.5641 216.019 48.1257 218.048 45.528 219.347C41.5422 221.352 35.4132 220.768 33.4162 216.603C34.5203 217.691 36.0708 218.341 37.5401 218.698V218.69Z" fill="#6F4938"/>
<path d="M70.2468 199.501C70.2468 199.501 71.5781 202.358 75.7425 204.834C79.8989 207.31 90.1354 209.445 90.2978 212.197C90.452 214.948 84.664 214.859 78.3078 214.445C71.9515 214.031 68.0387 213.09 63.4359 211.71C58.8331 210.33 60.2456 207.943 60.5298 204.526C60.8139 201.108 62.0965 197.918 62.0965 197.918L70.2468 199.501Z" fill="#8E5E48"/>
<g style="mix-blend-mode:screen">
<path d="M87.8877 210.735C87.1733 210.898 86.3778 210.76 85.6797 210.589C84.8273 210.378 83.9911 210.062 83.22 209.623C82.6761 209.315 81.9536 208.844 81.7344 208.211C81.6532 207.967 81.8237 207.846 82.0429 207.797C83.155 208.105 84.2509 208.471 85.29 208.958C86.2154 209.388 87.2139 209.924 87.8715 210.735H87.8877Z" fill="#8E5E48"/>
</g>
<g style="mix-blend-mode:multiply">
<path d="M60.5214 204.526C60.8055 201.108 62.0881 197.918 62.0881 197.918L69.865 199.428C69.2074 199.891 68.3632 200.077 67.6001 200.248C66.8452 200.418 66.0659 200.548 65.3271 200.8C64.6696 201.019 64.1095 201.352 63.8253 202.009C63.4032 202.999 63.3951 204.185 63.4519 205.24C63.5087 206.352 63.6955 207.456 64.3855 208.365C65.181 209.412 66.3581 210.029 67.454 210.703C68.8665 211.563 70.2952 212.375 71.7646 213.122C72.3572 213.422 72.9579 213.706 73.5586 213.991C69.7432 213.487 66.764 212.716 63.4195 211.718C58.8167 210.338 60.2292 207.951 60.5133 204.534L60.5214 204.526Z" fill="#8E5E48"/>
</g>
<g style="mix-blend-mode:multiply">
<path d="M69.5083 201.749C67.6168 202.253 65.5549 202.204 63.6635 201.774C62.8354 201.587 61.9506 201.311 61.155 200.897C61.6015 199.144 62.0967 197.918 62.0967 197.918L70.247 199.501C70.247 199.501 70.5392 200.118 71.2617 201.027C70.7178 201.352 70.1171 201.587 69.5083 201.749Z" fill="#8E5E48"/>
</g>
<path d="M62.6566 208.867C66.6668 210.555 71.0586 211.043 75.3123 211.773C78.7786 212.374 82.3423 213.007 85.8736 212.715C87.1481 212.609 88.7554 212.447 89.6808 211.44C89.7376 211.375 89.7945 211.31 89.8351 211.245C90.1111 211.554 90.2734 211.879 90.2978 212.203C90.452 214.955 84.664 214.866 78.3078 214.452C71.9515 214.038 68.0387 213.096 63.4359 211.716C60.3187 210.783 59.9615 209.387 60.1401 207.52C60.9275 208.088 61.8286 208.518 62.6566 208.867Z" fill="#6F4938"/>
<path d="M40.0322 100.004C39.9916 100.174 39.7887 100.264 37.6294 99.874C35.47 99.4843 31.8089 98.5833 30.0798 97.5199C28.3588 96.4484 27.3279 95.4256 27.7419 95.3607C28.1559 95.2957 32.9779 96.213 35.5106 97.1465C38.0434 98.0881 40.0241 100.004 40.0241 100.004H40.0322Z" fill="#0A4E66"/>
<path d="M48.9384 73.2754H59.8975V90.2247H48.9384V73.2754Z" fill="#F2B890"/>
<path d="M77.9344 90.3213C80.8812 85.6538 81.6199 86.6847 81.6199 86.6847C81.8797 86.8551 81.8391 87.3584 81.2708 88.9251C80.7026 90.4918 77.6259 97.6027 75.3854 98.804C75.3692 98.804 75.3611 98.8203 75.3448 98.8284C75.3123 98.2602 75.2312 94.6073 77.9344 90.3213Z" fill="#0A4E66"/>
<path d="M75.3447 98.8281C75.3447 98.8768 75.3447 98.9093 75.3447 98.9093C75.3447 98.9093 73.161 99.9889 75.3447 98.8281Z" fill="#05524A"/>
<path d="M33.0595 202.244C33.5547 201.433 33.9606 200.759 34.0905 199.793C34.2203 198.811 34.1798 197.796 34.2285 196.806C34.4233 192.487 34.4558 188.169 34.5532 183.842C34.6425 179.71 34.6019 175.505 35.1133 171.398C35.3325 169.62 35.7384 167.899 36.3959 166.227C37.021 164.636 37.7272 163.061 38.0114 161.365C38.052 161.137 38.0844 160.902 38.1088 160.675C38.1088 160.634 38.1412 160.61 38.1737 160.61C38.0195 160.163 37.7191 159.717 37.6623 159.238C37.6055 158.767 37.8247 158.394 38.0925 158.02C38.5634 157.387 38.8881 156.811 39.0586 156.023C39.3589 154.619 39.1154 153.117 39.0261 151.705C38.9124 149.943 38.9936 148.158 38.9936 146.388C38.9936 142.93 38.953 139.472 38.9936 136.014C39.0342 132.897 39.2696 129.796 40.3168 126.841C40.2032 126.882 40.0733 126.768 40.1463 126.646C40.5847 125.932 42.0946 126.224 42.7603 126.281C44.3514 126.411 45.9425 126.435 47.5417 126.484C51.5762 126.598 55.627 126.809 59.6616 126.792C63.3633 126.776 67.0569 126.703 70.7505 126.906C71.9194 126.971 73.1046 127.044 74.2655 127.263C74.5171 127.312 75.061 127.409 75.3614 127.645C75.4507 127.572 75.6212 127.604 75.6212 127.758C75.6212 128.513 75.6212 129.26 75.6536 130.015C75.6861 130.916 75.9621 131.622 76.3112 132.45C76.644 133.23 76.4573 133.822 76.1082 134.374C76.1407 134.39 76.1651 134.431 76.1488 134.48C75.1503 138.279 75.9865 142.102 76.0676 145.95C76.1488 150.211 75.7023 154.457 75.5319 158.71C75.1828 167.242 74.0625 175.7 73.4618 184.215C73.1046 189.281 73.1696 194.346 73.0803 199.411C73.3401 199.785 73.5836 200.182 73.819 200.572C74.022 200.913 74.3223 201.408 74.2817 201.814C74.2817 201.879 74.233 201.911 74.1843 201.92C74.0625 202.666 73.0722 203.259 72.5202 203.624C71.2132 204.509 69.6952 205.24 68.169 205.645C67.5277 205.93 66.8052 205.637 66.1964 205.394C65.1167 204.964 64.0371 204.623 62.9168 204.282C62.381 204.119 61.8452 203.941 61.2932 203.811C60.7575 203.681 60.2217 203.608 59.7103 203.405C58.9634 203.105 59.004 202.415 58.7037 201.798C58.6631 201.79 58.6225 201.765 58.6144 201.717C58.6062 201.676 58.6144 201.635 58.6062 201.595C58.5819 201.108 59.0446 200.621 59.3044 200.264C59.7671 199.63 60.1162 198.916 60.449 198.202C60.4165 196.343 60.3678 194.484 60.1649 192.625C59.8564 189.776 59.3044 186.951 59.0121 184.102C58.8822 182.77 58.8254 181.431 58.866 180.092C58.9147 178.671 59.1664 177.259 59.3044 175.846C59.4424 174.434 59.4992 173.013 59.5641 171.593C59.621 170.286 59.5804 168.971 59.6859 167.672C59.4992 167.29 59.3206 166.901 59.1988 166.487C58.9228 165.545 59.6453 164.79 60.0756 164.027C59.8401 162.664 59.7427 161.259 59.6372 159.895C59.4586 157.655 59.3125 155.423 59.1501 153.182C58.9878 151.064 58.8173 148.945 58.6793 146.818C58.6062 145.698 58.5169 144.602 58.3708 143.49C58.2653 142.735 58.1841 141.923 58.3384 141.168C57.9731 141.453 57.6077 141.737 57.2587 142.029C56.7554 143.563 56.658 145.122 56.4631 146.713C56.2683 148.377 55.7731 150.017 55.4078 151.648C54.6123 155.212 53.9141 158.783 53.3297 162.388C53.0374 164.181 52.6965 165.951 52.1607 167.688C51.633 169.401 51.0404 171.098 50.6751 172.859C49.9445 176.325 50.391 179.946 49.2139 183.322C49.2139 183.339 49.1977 183.347 49.1896 183.363C48.946 184.735 48.8568 186.147 48.7756 187.535C48.6619 189.394 48.4996 191.245 48.2966 193.104C48.0856 195.044 47.8826 196.984 47.8177 198.932C47.7933 199.712 47.7933 200.515 47.769 201.311C47.7852 201.319 47.7933 201.335 47.7933 201.351C47.8826 202.106 48.321 202.748 48.6538 203.421C48.8405 203.811 49.0516 204.306 48.9461 204.744C48.7999 205.792 47.2657 206.157 46.4376 206.441C44.8709 206.977 43.2961 208.292 41.5832 208.211C40.0002 208.138 38.6608 207.107 37.2077 206.611C36.5096 206.376 35.6085 206.279 34.8698 205.962C34.8535 205.946 34.8373 205.938 34.8129 205.93C34.8129 205.93 34.8048 205.93 34.7967 205.93C33.7982 205.654 33.441 204.119 33.092 203.3C32.9215 202.894 32.8241 202.601 33.0595 202.212V202.244Z" fill="#3078A0"/>
<g style="mix-blend-mode:multiply" opacity="0.5">
<path d="M43.6533 196.492C43.7913 194.016 43.8887 191.541 44.0673 189.065C44.4082 184.243 45.6178 179.51 45.8126 174.681C45.8126 174.648 45.8532 174.648 45.8613 174.681C45.9262 176.97 45.6421 179.243 45.2931 181.499C44.9034 184.016 44.5543 186.516 44.3757 189.057C44.2053 191.532 44.1322 194.008 43.9699 196.484C43.8968 197.645 43.7913 198.806 43.7263 199.966C43.6533 201.135 43.6451 202.329 43.4341 203.481C43.4178 203.579 43.2717 203.554 43.2717 203.457C43.2961 201.135 43.5315 198.789 43.6614 196.476L43.6533 196.492Z" fill="#2D2849"/>
<path d="M36.6878 203.682C38.0273 204.161 39.3099 204.753 40.7143 205.037C42.3135 205.362 43.6773 204.859 45.1791 204.363C45.2034 204.355 45.2278 204.396 45.1953 204.412C43.8153 205.021 42.6301 205.581 41.0796 205.37C39.5453 205.159 38.0354 204.453 36.6472 203.779C36.5904 203.755 36.631 203.657 36.6878 203.682Z" fill="#2D2849"/>
<path d="M64.3372 202.148C64.2804 202.124 64.2967 202.043 64.3616 202.059C66.5453 202.603 70.6285 202.44 70.9451 202.221C70.9614 202.205 70.9857 202.237 70.9614 202.254" fill="#2D2849"/>
<path d="M33.0595 202.246C33.5547 201.434 33.9606 200.761 34.0905 199.795C34.2203 198.813 34.1798 197.798 34.2285 196.808C34.4233 192.489 34.4558 188.171 34.5532 183.844C34.6425 179.712 34.6019 175.507 35.1133 171.4C35.3325 169.622 35.7384 167.901 36.3959 166.229C37.021 164.638 37.7272 163.063 38.0114 161.367C38.052 161.139 38.0844 160.904 38.1088 160.677C38.1088 160.636 38.1412 160.612 38.1737 160.612C38.0195 160.165 37.7191 159.719 37.6623 159.24C37.6055 158.769 37.8247 158.396 38.0925 158.022C38.5634 157.389 38.8881 156.813 39.0586 156.025C39.3589 154.621 39.1154 153.119 39.0261 151.707C38.9124 149.945 38.9936 148.16 38.9936 146.39C38.9936 142.932 38.953 139.474 38.9936 136.016C39.0342 132.899 39.2696 129.798 40.3168 126.843C40.2032 126.884 40.0733 126.77 40.1463 126.648C40.5847 125.934 42.0946 126.226 42.7603 126.283C44.3514 126.413 45.9425 126.437 47.5417 126.486C51.5762 126.6 55.627 126.811 59.6616 126.794C63.3633 126.778 67.0569 126.705 70.7505 126.908C71.9194 126.973 73.1046 127.046 74.2655 127.265C74.5171 127.314 75.061 127.411 75.3614 127.647C75.4507 127.574 75.6212 127.606 75.6212 127.76C75.6212 128.515 75.6212 129.262 75.6536 130.017C75.6861 130.918 75.9621 131.624 76.3112 132.452C76.644 133.232 76.4573 133.824 76.1082 134.376C76.1407 134.392 76.1651 134.433 76.1488 134.482C75.1503 138.281 75.9865 142.104 76.0676 145.952C76.1488 150.213 75.7023 154.459 75.5319 158.712C75.1828 167.244 74.0625 175.702 73.4618 184.217C73.1046 189.283 73.1696 194.348 73.0803 199.413C73.3401 199.787 73.5836 200.184 73.819 200.574C74.022 200.915 74.3223 201.41 74.2817 201.816C74.2817 201.881 74.233 201.913 74.1843 201.922C74.0625 202.668 73.0722 203.261 72.5202 203.626C71.2132 204.511 69.6952 205.242 68.169 205.647C67.5277 205.932 66.8052 205.639 66.1964 205.396C65.1167 204.966 64.0371 204.625 62.9168 204.284C62.381 204.121 61.8452 203.943 61.2932 203.813C60.7575 203.683 60.2217 203.61 59.7103 203.407C58.9634 203.107 59.004 202.417 58.7037 201.8C58.6631 201.792 58.6225 201.767 58.6144 201.719C58.6062 201.678 58.6144 201.637 58.6062 201.597C58.5819 201.11 59.0446 200.623 59.3044 200.266C59.7671 199.632 60.1162 198.918 60.449 198.204C60.4165 196.345 60.3678 194.486 60.1649 192.627C59.8564 189.778 59.3044 186.953 59.0121 184.104C58.8822 182.772 58.8254 181.433 58.866 180.094C58.9147 178.673 59.1664 177.261 59.3044 175.848C59.4424 174.436 59.4992 173.015 59.5641 171.595C59.621 170.288 59.5804 168.973 59.6859 167.674C59.4992 167.292 59.3206 166.903 59.1988 166.489C58.9228 165.547 59.6453 164.792 60.0756 164.029C59.8401 162.665 59.7427 161.261 59.6372 159.897C59.4586 157.657 59.3125 155.425 59.1501 153.184C58.9878 151.066 58.8173 148.947 58.6793 146.82C58.6062 145.7 58.5169 144.604 58.3708 143.492C58.2653 142.737 58.1841 141.925 58.3384 141.17C57.9731 141.455 57.6077 141.739 57.2587 142.031C56.7554 143.565 56.658 145.124 56.4631 146.715C56.2683 148.379 55.7731 150.018 55.4078 151.65C54.6123 155.214 53.9141 158.785 53.3297 162.389C53.0374 164.183 52.6965 165.953 52.1607 167.69C51.633 169.403 51.0404 171.1 50.6751 172.861C49.9445 176.327 50.391 179.948 49.2139 183.324C49.2139 183.341 49.1977 183.349 49.1896 183.365C48.946 184.737 48.8568 186.149 48.7756 187.537C48.6619 189.396 48.4996 191.247 48.2966 193.106C48.0856 195.046 47.8826 196.986 47.8177 198.934C47.7933 199.714 47.7933 200.517 47.769 201.313C47.7852 201.321 47.7933 201.337 47.7933 201.353C47.8826 202.108 48.321 202.75 48.6538 203.423C48.8405 203.813 49.0516 204.308 48.9461 204.746C48.7999 205.794 47.2657 206.159 46.4376 206.443C44.8709 206.979 43.2961 208.294 41.5832 208.213C40.0002 208.139 38.6608 207.109 37.2077 206.613C36.5096 206.378 35.6085 206.281 34.8698 205.964C34.8535 205.948 34.8373 205.94 34.8129 205.932C34.8129 205.932 34.8048 205.932 34.7967 205.932C33.7982 205.656 33.441 204.121 33.092 203.301C32.9215 202.896 32.8241 202.603 33.0595 202.214V202.246ZM33.2787 202.969C33.5222 203.707 33.9687 204.341 34.1473 205.104C35.0727 205.883 36.1361 205.996 37.2808 206.37C38.5715 206.8 39.6918 207.612 41.0312 207.912C42.6791 208.277 44.3838 206.995 45.8207 206.378C46.8517 205.94 47.9151 205.761 48.6619 204.909C48.597 204.633 48.597 204.357 48.5239 204.081C48.4184 203.691 48.1911 203.326 48.0125 202.969C47.8907 202.725 47.7852 202.473 47.7203 202.222C47.6634 202.961 47.5579 203.699 47.355 204.414C47.3225 204.511 47.1926 204.47 47.2007 204.373C47.4605 202.465 47.493 200.623 47.5254 198.707C47.5579 196.759 47.769 194.811 47.9719 192.879C48.1749 191.028 48.321 189.185 48.4427 187.326C48.532 185.979 48.6782 184.648 49.0029 183.349C49.0029 183.333 49.0029 183.308 49.0029 183.292C49.9202 179.931 49.7497 176.449 50.3748 173.056C50.6995 171.294 51.3002 169.59 51.836 167.877C52.3961 166.059 52.7533 164.208 53.0537 162.333C53.63 158.728 54.3444 155.157 55.1318 151.593C55.5215 149.84 56.0248 148.095 56.2277 146.301C56.382 144.978 56.3982 143.516 56.9827 142.283C56.796 142.445 56.6093 142.607 56.4226 142.778C56.3738 142.818 56.317 142.753 56.3495 142.705C57.3155 141.503 58.5332 140.643 59.7671 139.742C60.4165 139.263 61.0497 138.768 61.6261 138.199C62.1213 137.712 62.6083 137.12 63.2172 136.779C63.2496 136.763 63.2821 136.803 63.2577 136.828C62.2836 137.81 61.3825 138.857 60.2785 139.701C59.694 140.148 59.1095 140.578 58.5332 141.024C58.4195 142.875 58.8498 144.718 58.9959 146.56C59.1583 148.679 59.3125 150.798 59.483 152.916C59.8158 157.194 59.9538 161.505 60.6195 165.742C60.6357 165.823 60.522 165.856 60.4977 165.774C60.3516 165.312 60.2379 164.833 60.1486 164.346C59.7752 165.133 59.2719 165.75 59.6047 166.724C59.9294 167.658 60.4733 168.51 60.7412 169.468C60.7575 169.525 60.66 169.573 60.6357 169.508C60.4165 168.997 60.1324 168.502 59.8726 168.007C60.0512 170.507 59.8564 173.105 59.6453 175.58C59.5236 177.001 59.2881 178.405 59.2232 179.826C59.1583 181.246 59.2394 182.675 59.3774 184.087C59.9294 189.721 61.3176 195.314 60.725 201.02C60.7088 201.158 60.5139 201.167 60.5058 201.02C60.4815 200.241 60.4733 199.462 60.4571 198.691C60.2866 199.145 60.0837 199.592 59.832 200.022C59.5154 200.574 59.1501 201.045 58.8741 201.613C59.004 201.824 59.069 202.035 59.1339 202.287C59.28 202.863 59.5804 203.09 60.1405 203.269C61.0578 203.569 62.0401 203.74 62.9736 204.016C63.8503 204.284 64.7595 204.503 65.6038 204.86C66.3912 205.193 67.2436 205.647 68.1203 205.477C68.6804 205.152 69.338 204.957 69.9225 204.698C70.5557 204.414 71.1645 204.081 71.7571 203.715C72.5364 203.237 73.5836 202.636 74.0057 201.767C73.7784 201.41 73.6485 200.956 73.4537 200.574C73.3238 200.314 73.1858 200.063 73.0641 199.795C73.0559 200.371 73.0397 200.947 73.0235 201.516C73.0235 201.662 72.8043 201.662 72.8043 201.516C72.5608 193 72.9991 184.501 73.8434 176.027C74.2655 171.789 74.712 167.552 74.988 163.299C75.126 161.164 75.1747 159.029 75.2883 156.894C75.402 154.767 75.5562 152.649 75.6618 150.522C75.7998 147.681 75.7348 144.872 75.5075 142.039C75.3127 139.636 75.1097 137.055 75.8566 134.717C75.6374 135.025 75.3857 135.334 75.1666 135.675C75.1422 135.715 75.0854 135.675 75.1016 135.642C75.337 135.115 75.7023 134.668 75.9702 134.157C76.4005 133.321 76.092 132.753 75.7592 131.949C75.2234 130.658 75.2965 129.286 75.3046 127.906C75.0854 127.695 74.4441 127.63 74.2493 127.598C73.4212 127.436 72.5689 127.363 71.7327 127.306C69.5328 127.143 67.3248 127.119 65.1248 127.111C63.4282 127.111 61.7397 127.119 60.0431 127.143C56.5687 127.184 53.078 127.022 49.6036 126.916C47.6878 126.859 45.7476 126.876 43.8318 126.746C43.223 126.705 42.6223 126.632 42.0134 126.608C41.6157 126.591 40.8688 126.494 40.4711 126.729C39.4969 129.855 39.3427 133.207 39.3102 136.454C39.2777 139.928 39.3102 143.411 39.3102 146.885C39.3102 148.549 39.2534 150.221 39.3589 151.885C39.4482 153.29 39.6268 154.694 39.3752 156.09C39.2696 156.659 39.0423 157.194 38.7338 157.681C38.3767 158.25 37.8084 158.664 38.0276 159.402C38.1981 160.003 38.466 160.539 38.5634 161.164C38.6608 161.797 38.5958 162.463 38.4822 163.096C38.4741 163.161 38.3685 163.136 38.3848 163.071C38.4984 162.316 38.4578 161.586 38.2549 160.863C38.3036 162.398 37.6136 163.948 37.0616 165.336C36.3878 167.025 35.8358 168.672 35.5436 170.474C35.2107 172.512 35.1295 174.582 35.0808 176.644C35.0321 178.779 34.9591 180.914 34.9185 183.057C34.8454 187.375 34.8129 191.702 34.6425 196.02C34.5775 197.733 34.7805 199.73 34.0255 201.321C33.782 201.832 33.0839 202.368 33.2787 202.969Z" fill="#0A4E66"/>
<path d="M69.2407 189.925C69.3787 186.499 69.4761 183.074 69.6547 179.656C69.9956 172.992 71.2052 166.449 71.4 159.777C71.4 159.736 71.4406 159.736 71.4487 159.777C71.5136 162.942 71.2295 166.084 70.8805 169.201C70.4908 172.675 70.1417 176.141 69.9631 179.656C69.7927 183.074 69.7196 186.507 69.5573 189.925C69.4842 191.532 69.3787 193.131 69.3137 194.738C69.2407 196.354 69.2325 198.01 69.0215 199.601C69.0052 199.731 68.8591 199.698 68.8591 199.568C68.8835 196.362 69.1189 193.123 69.2488 189.917L69.2407 189.925Z" fill="#2D2849"/>
</g>
<path d="M33.0514 96.7174C34.0662 97.0259 35.089 97.3262 36.1281 97.5291C36.5421 97.6509 36.948 97.7402 37.3701 97.7808C37.2565 98.4302 37.1347 99.0877 37.0211 99.7452C34.9023 99.2338 32.8079 98.6088 30.681 98.1298C30.8678 97.3587 31.0463 96.693 31.1925 96.1816C31.7932 96.4008 32.4183 96.5632 33.0514 96.7093V96.7174Z" fill="#E7BB93"/>
<path d="M27.7182 95.2961C27.775 95.2474 29.3661 92.2358 30.1129 90.7909C30.9409 89.1837 31.6796 87.5277 32.4021 85.8636C33.1165 84.2239 33.8227 82.576 34.5777 80.9444C34.9511 80.1327 36.2256 76.9912 36.25 76.9425C36.9887 75.4895 39.0831 74.7914 40.4794 74.2232C41.5184 73.8011 42.5819 73.452 43.6453 73.103C44.6113 72.7864 45.5773 72.3967 46.5596 72.137C46.8194 71.5363 47.3064 70.9356 47.899 71.1467C47.9234 71.1385 47.9477 71.1223 47.9721 71.1142C49.1086 71.9665 49.9285 73.2247 50.8052 74.3206C51.893 75.6924 52.9077 77.1211 53.8819 78.5741C54.8641 80.0353 55.8139 81.5127 56.6419 83.055C57.1127 83.9398 57.7053 84.7434 58.0788 85.6526C58.0788 85.2629 58.2168 84.8652 58.3061 84.4836C58.4684 83.7693 58.5658 83.0306 58.6714 82.3C58.9068 80.6684 59.0042 79.0206 59.0204 77.3727C59.0204 76.6341 59.0529 75.9035 59.0204 75.1648C59.0042 74.767 59.0204 74.1826 58.9068 73.6712C58.8256 73.655 58.7363 73.6387 58.6795 73.6062C58.4765 73.5088 58.371 73.4926 58.2168 73.2978L58.2979 71.9503C58.5252 71.8772 58.7607 71.8853 59.0123 72.0233C59.3533 72.21 59.6049 72.4942 59.8079 72.8026C60.6846 72.689 61.6019 72.8676 62.4786 72.9C63.4609 72.9325 64.4431 73.0056 65.4173 73.1436C66.3102 73.2653 67.26 73.4439 68.0231 73.9553C68.4533 74.2394 68.7943 74.6128 69.1677 74.9537C69.4112 75.1323 69.6548 75.319 69.8902 75.522C69.9226 75.5382 69.9551 75.5626 69.9876 75.5869C70.0038 75.595 70.0038 75.6113 70.0038 75.6275C70.6208 76.1551 71.2053 76.7233 71.7816 77.251C72.9425 78.3144 74.0627 79.4183 75.1749 80.5304C77.2774 82.641 79.3393 84.7515 81.596 86.6916C81.6285 86.6916 81.661 86.7078 81.7016 86.716C81.7503 86.7322 81.7584 86.8134 81.7016 86.8296C80.8492 87.0406 80.2323 87.9579 79.664 88.583C78.7873 89.5408 78.0729 90.6123 77.529 91.7812C77.0257 92.869 76.6604 94.0217 76.3195 95.1662C76.1409 95.775 75.9785 96.3838 75.8568 97.0008C75.735 97.6177 75.6863 98.2833 75.459 98.8759C75.4346 98.9327 75.3616 98.949 75.321 98.9084C75.045 98.9977 74.6147 98.5187 74.4686 98.3726C73.8192 97.7232 73.1454 97.0738 72.5366 96.3838C72.8207 98.535 73.0318 100.702 73.1941 102.853C73.3971 105.589 73.5026 108.333 73.5026 111.068C73.5107 111.068 73.5188 111.085 73.5269 111.109C73.7461 112.716 73.7948 114.34 74.0384 115.947C74.2819 117.579 74.631 119.194 74.9882 120.801C75.3372 122.384 75.7106 123.967 76.0516 125.55C76.3519 126.979 76.904 128.497 76.904 129.974C76.9608 129.998 76.977 130.088 76.9202 130.12C76.9202 130.12 76.9121 130.12 76.904 130.128C76.8877 130.193 76.8147 130.217 76.7578 130.201C74.4524 131.419 71.7654 132.003 69.2164 132.45C66.367 132.953 63.469 133.205 60.5872 133.424C57.5186 133.659 54.4339 133.781 51.3491 133.757C48.5322 133.732 45.4312 133.765 42.7523 132.783C42.663 132.88 42.4439 132.839 42.4276 132.661C42.314 131.338 42.3221 130.006 42.1922 128.675C42.1273 128.026 42.1029 127.368 42.0623 126.719C42.0542 126.556 42.0299 126.386 42.0055 126.224C41.9324 127.068 41.7863 127.904 41.6646 128.74C41.5671 129.381 41.4778 130.015 41.4129 130.664C41.3561 131.175 41.3723 131.703 41.2181 132.198C41.1937 132.279 41.1125 132.296 41.0557 132.263C40.5849 132.32 40.1303 132.093 39.6919 131.922C38.9857 131.638 38.2145 131.565 37.5082 131.305C37.4839 131.297 37.4676 131.281 37.4514 131.265C37.3865 131.305 37.2809 131.273 37.2972 131.183C37.5488 128.984 37.9547 126.768 38.3687 124.592C38.5717 123.529 38.8152 122.457 39.1724 121.434C39.5133 120.46 39.903 119.511 40.0085 118.48C39.7406 117.928 39.489 117.343 39.5133 116.742C39.5458 116.028 40.1709 115.249 40.6904 114.754C40.5199 113.593 40.3901 112.424 40.3008 111.247C40.1546 109.153 40.1546 107.042 40.1546 104.94C40.1546 103.186 40.1059 101.433 40.1384 99.6877C40.1059 99.8094 40.0816 99.9393 40.0491 100.061C40.0329 100.142 39.9436 100.15 39.8949 100.102C39.8705 100.102 39.8543 100.085 39.838 100.061C39.4159 99.3954 38.4743 99.0951 37.7761 98.8434C37.0293 98.5756 36.2662 98.3726 35.5194 98.0966C32.946 97.1631 30.3321 96.392 27.7506 95.4909C27.6695 95.4585 27.6207 95.3448 27.6938 95.2799L27.7182 95.2961Z" fill="#3078A0"/>
<path d="M75.8807 97.002C75.7589 97.6189 75.7102 98.2845 75.4829 98.8771C75.4585 98.9339 75.3855 98.9502 75.3449 98.9096C75.0689 98.9989 74.6386 98.5199 74.4925 98.3738C73.8431 97.7244 73.1693 97.075 72.5605 96.385C72.8446 98.5362 73.0557 100.704 73.218 102.855C73.3641 104.778 73.4534 106.71 73.494 108.642C73.3804 108.967 73.2911 109.3 73.2099 109.641C73.2099 108.61 73.1774 107.579 73.1287 106.548C73.2424 106.581 73.3723 106.524 73.3641 106.378C73.1612 102.692 72.7147 99.0232 72.2195 95.3703C71.9841 93.6089 71.838 91.7905 71.3834 90.0615C71.0181 88.6734 70.5391 87.3259 70.1576 85.9379C70.255 85.4833 70.3443 85.0287 70.4174 84.5741C70.6203 83.3484 70.596 82.1551 70.596 80.9375C70.9207 82.8938 70.5878 84.9313 71.1642 86.8633C71.7162 88.714 71.8136 90.6135 73.007 92.2045C73.6077 93.0082 74.2571 93.9173 75.0121 94.5748C75.3205 94.8427 75.7832 94.7291 76.0511 94.4693C76.4408 94.0959 76.7168 93.6413 76.9766 93.1786C76.7411 93.8362 76.5301 94.5018 76.3353 95.1674C76.1567 95.7762 75.9943 96.385 75.8725 97.002H75.8807Z" fill="#155C7C"/>
<path opacity="0.4" d="M44.8379 77.3496C44.7324 78.413 44.5944 79.4764 44.4401 80.5317C44.4807 79.452 44.5456 78.3724 44.8379 77.3496Z" fill="#05524A"/>
<path d="M40.6169 89.7845C41.1933 87.6983 42.0538 85.5634 42.1999 83.3879C42.2811 82.2271 42.2486 81.0663 42.0944 79.9136C42.0051 79.2561 41.9158 78.5986 41.8752 77.9492C42.2486 79.2642 42.6789 80.5549 43.2471 81.7969C43.3121 81.943 43.5556 81.9024 43.5881 81.7563C43.7829 80.8066 43.9128 79.8162 44.1807 78.8746C44.0833 79.7838 44.0751 80.7092 44.0264 81.6183C43.9047 84.1023 43.0279 86.4157 42.4191 88.8104C41.7534 91.4242 41.1852 94.0543 40.6007 96.6843C40.3491 97.8127 40.0893 98.9572 39.9026 100.102C39.8863 100.102 39.8701 100.086 39.8539 100.061C39.4317 99.3956 38.4901 99.0952 37.792 98.8436C37.4916 98.738 37.1831 98.6406 36.8828 98.5432C38.2871 95.6859 39.7565 92.8772 40.6169 89.7764V89.7845Z" fill="#155C7C"/>
<g style="mix-blend-mode:multiply" opacity="0.5">
<path d="M27.7176 95.2981C27.7744 95.2494 29.3655 92.2378 30.1124 90.7929C30.9404 89.1856 31.6791 87.5296 32.4016 85.8656C33.1159 84.2258 33.8222 82.578 34.5772 80.9464C34.9506 80.1346 36.2251 76.9932 36.2494 76.9445C36.9881 75.4915 39.0825 74.7934 40.4788 74.2251C41.5179 73.803 42.5813 73.454 43.6448 73.1049C44.6108 72.7883 45.5768 72.3987 46.559 72.1389C46.8188 71.5382 47.3059 70.9376 47.8985 71.1486C47.9228 71.1405 47.9472 71.1243 47.9715 71.1161C49.108 71.9685 49.9279 73.2267 50.8047 74.3225C51.8924 75.6944 52.9072 77.1231 53.8813 78.5761C54.8636 80.0372 55.8133 81.5146 56.6414 83.0569C57.1122 83.9417 57.7048 84.7454 58.0782 85.6545C58.0782 85.2649 58.2162 84.8671 58.3055 84.4856C58.4679 83.7713 58.5653 83.0326 58.6708 82.302C58.9062 80.6704 59.0036 79.0225 59.0199 77.3747C59.0199 76.636 59.0523 75.9054 59.0199 75.1668C58.9955 74.5823 59.0442 73.5676 58.6546 72.9994C58.6465 73.0075 58.6302 73.0237 58.614 73.0319C58.5328 73.0562 58.3786 73.3403 58.3867 73.2673C58.3948 73.2104 58.411 73.1617 58.4354 73.1049C58.4516 73.0724 58.4922 73.0075 58.4922 72.9588C58.4922 72.9101 58.4922 72.8857 58.5328 72.8533C58.4841 72.8046 58.4273 72.7559 58.3705 72.7234C58.3136 72.6909 58.3542 72.5935 58.4192 72.6179C58.9955 72.7721 59.166 73.6244 59.2634 74.1115C59.442 74.9963 59.4258 75.9136 59.4176 76.8146C59.4014 78.3326 59.3446 79.8424 59.1741 81.3523C59.0929 82.1153 58.9874 82.8783 58.8494 83.6333C58.7033 84.4369 58.5247 85.3298 58.2568 86.0929C58.338 86.3526 58.4029 86.6205 58.4354 86.9046C58.4435 86.9858 58.3055 87.002 58.2893 86.9208C57.9808 85.4191 57.0148 84.2745 56.2923 82.9676C55.513 81.5714 54.6119 80.2564 53.7271 78.9333C52.8016 77.5614 51.8356 76.2139 50.8371 74.8989C49.9036 73.6731 48.9863 72.2282 47.7442 71.2947C47.4601 71.3921 47.2409 71.6438 47.0542 71.8548C46.9893 71.9279 46.9325 72.0009 46.8756 72.0821C46.8919 72.1065 46.8919 72.1389 46.8594 72.1552C46.8432 72.1633 46.8188 72.1714 46.8026 72.1795C46.6646 72.3906 46.5347 72.6098 46.4454 72.837C46.4292 72.8776 46.348 72.8776 46.3561 72.8208C46.3723 72.6828 46.421 72.5123 46.4779 72.3338C44.8949 73.0887 43.0927 73.4864 41.4448 74.0871C39.7157 74.7122 37.808 75.4346 36.5904 76.8633C36.2575 77.5208 36.0221 78.2027 35.7948 78.9008C35.5432 79.6476 35.1941 80.3619 34.8532 81.0763C34.1144 82.6186 33.4244 84.1771 32.7425 85.7438C32.0525 87.3267 31.3463 88.9096 30.5832 90.4601C30.1854 91.2718 29.7552 92.0754 29.3493 92.8872C28.9515 93.6908 28.643 94.5756 28.1397 95.3224C30.7699 96.0936 33.3757 97.0027 35.9572 97.9362C36.7446 98.2203 37.5564 98.4395 38.3357 98.748C38.8715 98.9672 39.5128 99.235 39.8862 99.7221C39.87 98.6993 40.2677 97.6359 40.5032 96.6699C40.7954 95.4523 41.0795 94.2347 41.3393 93.0089C41.8669 90.5737 42.3134 88.1222 42.7112 85.6545C42.7112 85.622 42.7761 85.6302 42.7761 85.6626C42.5732 88.0816 42.1754 90.4682 41.6884 92.8466C41.4367 94.0723 41.1526 95.2899 40.8603 96.5076C40.6655 97.3274 40.5032 98.1473 40.3327 98.9672C40.6168 102.88 40.3976 106.817 40.6249 110.729C40.7467 112.791 41.0308 114.837 41.4205 116.866C41.802 118.871 42.3865 120.803 42.906 122.768C42.9304 122.865 42.8005 122.889 42.7599 122.808C42.005 121.03 41.5585 119.074 41.1607 117.191C41.0065 116.46 40.8766 115.722 40.7629 114.983C40.3814 115.6 39.87 116.111 39.8375 116.899C39.805 117.702 40.4707 118.417 40.56 119.212C40.5681 119.285 40.4463 119.326 40.4139 119.253C40.357 119.115 40.2921 118.985 40.2272 118.847C40.1947 119.618 39.9106 120.365 39.6427 121.095C39.2774 122.102 39.0095 123.125 38.7903 124.18C38.5549 125.325 38.3763 126.477 38.1896 127.63C38.0029 128.758 37.9298 129.968 37.5726 131.064C38.7335 130.991 39.8943 131.713 41.0146 131.981C40.9821 130.958 41.1851 129.903 41.3474 128.896C41.5341 127.752 41.7371 126.607 41.9725 125.471C41.9725 125.308 41.9968 125.146 42.0374 124.984C42.0537 124.935 42.1348 124.943 42.1348 125C42.1024 125.584 42.2485 126.136 42.3134 126.713C42.3784 127.37 42.4514 128.02 42.5326 128.669C42.695 129.943 42.7274 131.218 42.8167 132.5C45.6336 133.247 48.4748 133.401 51.3891 133.434C54.3846 133.466 57.3801 133.337 60.3674 133.117C63.233 132.906 66.1067 132.663 68.948 132.208C71.6349 131.77 74.1596 131.007 76.6923 130.041C76.2865 128.531 75.9942 126.948 75.6857 125.414C75.361 123.823 74.9957 122.24 74.6467 120.649C74.2895 119.034 73.9729 117.418 73.7293 115.787C73.6563 115.291 73.5832 114.788 73.5183 114.277C73.4209 117.751 73.1205 121.371 72.1301 124.708C72.0977 124.829 71.9272 124.773 71.9434 124.659C72.6091 121.128 73.1043 117.637 73.2098 114.049C73.3153 110.397 73.226 106.744 72.9663 103.099C72.4467 95.8257 71.1479 88.5606 69.3376 81.5065C69.3376 81.4903 69.3538 81.4903 69.362 81.5065C69.7597 82.7322 70.1169 83.9742 70.4497 85.2243C70.4497 84.7291 70.4822 84.2258 70.4985 83.7388C70.5309 82.7322 70.5553 81.7338 70.5309 80.7272C70.5309 80.7029 70.5634 80.7029 70.5715 80.7272C70.7339 81.6445 70.7826 82.5618 70.7907 83.4953C70.7988 84.3557 70.8313 85.2811 70.677 86.1334C71.5051 89.4291 72.122 92.7898 72.5685 96.1666C73.1692 96.605 73.7212 97.1488 74.2326 97.6846C74.3788 97.8388 75.0688 98.7317 75.3691 98.7236C75.4584 97.4411 75.8481 96.1098 76.2134 94.8841C76.5868 93.6421 76.9927 92.4082 77.5609 91.2393C78.1373 90.0542 78.9491 88.9989 79.8502 88.041C80.1992 87.6758 80.8405 86.7585 81.4656 86.6773C79.2495 85.0214 77.358 83.0001 75.4097 81.0438C74.2976 79.9317 73.1692 78.8277 72.0246 77.7481C71.0911 76.8714 70.052 76.0759 69.1347 75.1749C68.8505 74.9719 68.5908 74.7365 68.3229 74.5174C67.5355 73.868 66.5857 73.6407 65.6034 73.454C63.7363 73.1049 61.8043 73.2591 59.9453 72.9507C60.0508 73.1212 60.1482 73.2997 60.2457 73.4783C60.27 73.5189 60.2132 73.5595 60.1807 73.527C59.8641 73.2104 59.5962 72.8452 59.2796 72.5286C58.9631 72.2039 58.6302 72.1552 58.2974 72.2282C58.3136 72.1389 58.3217 72.0415 58.338 71.9522C58.5653 71.8873 58.8007 71.8873 59.0523 72.0253C59.3933 72.212 59.6449 72.4961 59.8479 72.8046C60.7246 72.6909 61.6419 72.8695 62.5186 72.902C63.5009 72.9344 64.4832 73.0075 65.4573 73.1455C66.3503 73.2673 67.3 73.4458 68.0631 73.9572C68.4934 74.2414 68.8343 74.6148 69.2077 74.9557C69.4513 75.1343 69.6948 75.321 69.9302 75.5239C69.9627 75.5402 69.9951 75.5645 70.0276 75.5889C70.0439 75.597 70.0439 75.6132 70.0439 75.6294C70.6608 76.1571 71.2453 76.7253 71.8217 77.2529C72.9825 78.3163 74.1028 79.4203 75.2149 80.5324C77.3174 82.6429 79.3793 84.7535 81.6361 86.6936C81.6686 86.6936 81.701 86.7098 81.7416 86.7179C81.7903 86.7341 81.7984 86.8153 81.7416 86.8315C80.8892 87.0426 80.2723 87.9599 79.704 88.5849C78.8273 89.5428 78.113 90.6143 77.5691 91.7832C77.0658 92.8709 76.7005 94.0236 76.3595 95.1682C76.1809 95.777 76.0186 96.3858 75.8968 97.0027C75.775 97.6197 75.7263 98.2853 75.499 98.8779C75.4747 98.9347 75.4016 98.9509 75.361 98.9103C75.085 98.9996 74.6548 98.5207 74.5087 98.3746C73.8592 97.7252 73.1855 97.0758 72.5766 96.3858C72.8607 98.5369 73.0718 100.704 73.2342 102.855C73.4371 105.591 73.5426 108.335 73.5426 111.07C73.5508 111.07 73.5589 111.087 73.567 111.111C73.7862 112.718 73.8349 114.342 74.0784 115.949C74.3219 117.58 74.671 119.196 75.0282 120.803C75.3773 122.386 75.7507 123.969 76.0916 125.552C76.392 126.981 76.944 128.498 76.944 129.976C77.0008 130 77.0171 130.09 76.9602 130.122C76.9602 130.122 76.9521 130.122 76.944 130.13C76.9278 130.195 76.8547 130.219 76.7979 130.203C74.4924 131.421 71.8054 132.005 69.2564 132.452C66.4071 132.955 63.509 133.207 60.6272 133.426C57.5587 133.661 54.4739 133.783 51.3891 133.759C48.5723 133.734 45.4713 133.767 42.7924 132.785C42.7031 132.882 42.4839 132.841 42.4677 132.663C42.354 131.34 42.3621 130.008 42.2322 128.677C42.1673 128.028 42.143 127.37 42.1024 126.721C42.0942 126.558 42.0699 126.388 42.0455 126.226C41.9725 127.07 41.8264 127.906 41.7046 128.742C41.6072 129.383 41.5179 130.016 41.4529 130.666C41.3961 131.177 41.4124 131.705 41.2581 132.2C41.2338 132.281 41.1526 132.297 41.0958 132.265C40.6249 132.322 40.1703 132.095 39.732 131.924C39.0257 131.64 38.2545 131.567 37.5483 131.307C37.5239 131.299 37.5077 131.283 37.4915 131.267C37.4265 131.307 37.321 131.275 37.3372 131.185C37.5889 128.986 37.9948 126.769 38.4088 124.594C38.6117 123.531 38.8552 122.459 39.2124 121.436C39.5534 120.462 39.943 119.512 40.0486 118.482C39.7807 117.93 39.529 117.345 39.5534 116.744C39.5858 116.03 40.2109 115.251 40.7305 114.756C40.56 113.595 40.4301 112.426 40.3408 111.249C40.1947 109.155 40.1947 107.044 40.1947 104.942C40.1947 103.188 40.146 101.435 40.1784 99.6896C40.146 99.8114 40.1216 99.9413 40.0891 100.063C40.0729 100.144 39.9836 100.152 39.9349 100.104C39.9106 100.104 39.8943 100.087 39.8781 100.063C39.456 99.3974 38.5143 99.097 37.8162 98.8454C37.0693 98.5775 36.3063 98.3746 35.5594 98.0986C32.9861 97.1651 30.3721 96.3939 27.7907 95.4929C27.7095 95.4604 27.6608 95.3468 27.7338 95.2818L27.7176 95.2981Z" fill="#0A4E66"/>
<path d="M44.489 78.1048C44.4971 78.0642 44.562 78.0723 44.562 78.1129C44.562 80.2965 44.1155 82.5369 43.6853 84.6637C43.6772 84.7124 43.6041 84.6962 43.6041 84.6556C43.6934 82.472 44.0912 80.2478 44.489 78.1048Z" fill="#04776E"/>
<path d="M41.753 77.0658C42.029 79.4442 43.0356 81.7171 43.0356 84.1361C43.0356 84.1929 42.9545 84.201 42.9382 84.1523C42.6541 83.0321 42.4999 81.8794 42.232 80.7511C41.9397 79.5335 41.6881 78.3321 41.6719 77.0739C41.6719 77.017 41.753 77.017 41.7611 77.0739L41.753 77.0658Z" fill="#04776E"/>
</g>
<path d="M62.9733 73.5511C63.8176 73.5836 64.6537 73.6567 65.4899 73.7866C66.2692 73.9083 66.9754 73.9164 67.6736 74.3061C68.9886 75.0366 70.1251 76.2948 71.2129 77.3095C73.9567 79.8909 76.595 82.5859 79.1846 85.3215C79.2171 85.3539 79.1684 85.3945 79.1359 85.3702C76.5301 83.008 73.9567 80.6052 71.424 78.17C70.3118 77.0985 69.1672 75.9864 67.9333 75.0529C66.5046 73.9733 64.6943 73.8677 62.9815 73.681C62.9003 73.6729 62.8922 73.543 62.9815 73.5511H62.9733Z" fill="#0A4E66"/>
<path d="M59.9945 74.9463C59.9783 74.8733 60.0919 74.8327 60.1163 74.9139C61.1797 78.5018 60.3842 82.1627 59.272 85.6289C59.2558 85.6776 59.1827 85.6614 59.1908 85.6046C59.962 82.1952 60.6115 78.4368 60.0026 74.9463H59.9945Z" fill="#0A4E66"/>
<path d="M48.6372 73.291C49.7575 74.2327 50.5774 75.4827 51.4379 76.6517C52.4526 78.0235 53.4267 79.3872 54.3034 80.8484C56.0325 83.7382 57.5262 86.766 59.028 89.7776C59.0442 89.8182 58.9955 89.8425 58.9712 89.8101C57.1122 87.0907 55.6754 84.1278 54.0031 81.2949C53.1751 79.8824 52.2415 78.5593 51.308 77.2199C50.3988 75.913 49.6438 74.5492 48.5073 73.4128C48.4261 73.3316 48.5479 73.218 48.6291 73.291H48.6372Z" fill="#0A4E66"/>
<path d="M28.6917 95.4911C29.0489 94.3303 29.6821 93.2425 30.1854 92.1304C30.7618 90.8722 31.395 89.6465 31.9876 88.3964C33.1565 85.9206 34.2606 83.323 35.0561 80.701C35.5756 78.9883 36.4443 76.8209 38.0597 75.79C38.9608 75.2218 39.5615 75.1731 40.5762 74.8808C41.867 74.5074 43.0521 73.8093 44.3753 73.582C44.4078 73.582 44.4322 73.6226 44.3997 73.6307C43.3119 74.1827 42.1835 74.7509 41.047 75.1731C40.0161 75.5546 39.5615 75.7007 38.5874 76.2202C36.769 77.1862 35.9328 79.6782 35.3321 81.4316C34.496 83.875 33.5218 86.294 32.361 88.5993C31.7765 89.7601 31.1514 90.8966 30.5345 92.0411C29.9175 93.1857 29.4467 94.3952 28.846 95.5398C28.8054 95.6209 28.6674 95.5641 28.6917 95.4748V95.4911Z" fill="#0A4E66"/>
<path d="M32.8895 97.788C33.9042 98.0965 34.9271 98.3968 35.9662 98.5998C36.3802 98.7215 36.7861 98.8108 37.2082 98.8514C36.9728 100.134 36.7698 101.425 36.5263 102.707C36.5101 102.764 36.5263 102.805 36.5425 102.845C36.4208 103.454 36.3315 104.063 36.2909 104.639C36.1935 106.23 48.6543 108.763 48.6543 108.763L47.461 113.211C47.461 113.211 33.2629 112.383 30.6571 109.299C28.5546 106.815 30.2837 99.858 31.0387 97.2441C31.6394 97.4633 32.2644 97.6257 32.8976 97.7718L32.8895 97.788Z" fill="#F9C5A1"/>
<path d="M52.6077 67.4395H56.1065C57.0525 67.4395 57.8193 68.2063 57.8193 69.1522V73.8441C57.8193 74.7901 57.0525 75.5569 56.1065 75.5569H52.6077C51.6617 75.5569 50.8948 74.7901 50.8948 73.8441V69.1522C50.8948 68.2063 51.6617 67.4395 52.6077 67.4395Z" fill="#F2B890"/>
<path d="M84.6403 100.581L87.4328 100.411C87.4328 100.411 88.0173 98.5276 93.3994 95.8082C95.1366 95.1751 96.9225 92.5531 97.4015 92.6992C97.8723 92.8453 100.032 95.1507 94.82 97.9025C100.024 97.659 103.847 98.3571 104.367 100.119C104.602 101.45 101.842 100.898 100.129 100.565C98.4162 100.24 95.0067 100.598 95.0067 100.598C95.0067 100.598 104.18 101.815 104.383 104.421C104.358 105.379 101.785 104.77 98.7572 103.926C95.7292 103.081 94.3248 103.098 94.3248 103.098C94.3248 103.098 104.034 106.54 102.775 108.642C102.11 109.64 100.048 108.463 98.4243 107.603C96.8008 106.751 93.302 105.988 93.302 105.988C93.302 105.988 100.803 110.136 99.5365 111.548C98.262 112.96 94.6902 109.665 92.4983 108.098C90.2741 108.666 89.0483 107.619 87.5302 105.598C85.9067 105.833 85.5576 105.76 85.5576 105.76C85.5576 105.76 84.616 103.796 84.6484 100.581H84.6403Z" fill="#F9C5A1"/>
<path d="M30.2914 48.8C30.2914 48.8 29.5771 46.5839 27.7912 46.2105C26.0052 45.8371 23.7728 47.7366 24.4223 51.0891C25.0717 54.4335 28.6029 56.9256 30.9814 55.708C30.9814 55.708 30.8434 52.185 30.6243 51.0729C30.4132 49.9608 30.2833 48.8081 30.2833 48.8081L30.2914 48.8Z" fill="#F2B890"/>
<path d="M26.8248 50.057C26.8248 50.057 27.1819 50.0814 27.6609 50.2356C27.8963 50.3168 28.1723 50.4223 28.4321 50.5847C28.5701 50.6496 28.6919 50.7632 28.8299 50.8444C28.9598 50.9499 29.0815 51.0555 29.2033 51.1691C29.3169 51.2909 29.4468 51.3964 29.5361 51.5263C29.6335 51.6643 29.7553 51.7698 29.8284 51.9078C29.9176 52.0377 30.0069 52.1676 30.08 52.2893C30.1531 52.4192 30.218 52.5329 30.2911 52.6465C30.4291 52.8657 30.5102 53.0686 30.5833 53.1985C30.6564 53.3365 30.7051 53.4095 30.7051 53.4095C30.7051 53.4095 30.6888 53.3203 30.6645 53.1741C30.632 53.028 30.6077 52.8007 30.5103 52.5491C30.4697 52.4273 30.421 52.2893 30.3641 52.1432C30.2992 52.0052 30.2261 51.8591 30.1368 51.713C30.0638 51.5588 29.9501 51.4208 29.8446 51.2828C29.7472 51.1367 29.6011 51.0149 29.4874 50.8769C29.3494 50.7551 29.2114 50.6415 29.0653 50.5278C28.911 50.4304 28.7649 50.333 28.6026 50.2681C28.4483 50.1869 28.2941 50.1382 28.1398 50.0976C27.9856 50.057 27.8395 50.0246 27.7096 50.0083C27.1657 49.9434 26.8248 50.057 26.8248 50.057Z" fill="#C39368"/>
<path d="M29.2607 41.3256C29.2607 41.3256 31.1116 42.8192 32.2968 43.0709C32.2968 43.0709 28.1486 37.8514 31.696 30.8703C31.696 30.8703 32.4754 33.5735 31.5012 36.3009C31.5012 36.3009 37.2486 33.5572 37.2892 27.1607C37.2892 27.1607 38.4825 30.5294 41.616 30.781C41.616 30.781 40.6743 29.393 40.4389 27.6639C40.4389 27.6639 46.9088 35.4242 55.9845 30.6268C55.9845 30.6268 49.7825 29.4011 48.4756 25.732C48.4756 25.732 52.1935 30.5619 59.4752 28.7192C59.4752 28.7192 56.2524 27.7045 54.5558 25.4316C54.5558 25.4316 63.599 31.3817 70.1339 29.0114C70.1339 29.0114 73.9086 31.7957 76.9609 31.4386C76.9609 31.4386 73.2917 40.246 74.1359 44.3372C74.1359 44.3372 74.1603 48.9723 75.1831 52.3329C76.206 55.6935 77.31 59.525 73.7138 63.324C70.1176 67.1148 60.7821 71.4658 54.4259 71.3034C48.0697 71.1411 32.0857 63.8678 31.1116 56.554C30.3241 50.6607 30.316 49.784 30.3485 49.6623L30.3647 49.646C30.3647 49.646 30.3485 44.1749 29.2688 41.3175L29.2607 41.3256Z" fill="#F9C5A1"/>
<path d="M74.136 44.8878C74.136 44.8878 75.3293 43.2399 77.5942 44.5631C79.8591 45.8862 79.8347 50.4888 78.5196 51.885C77.2045 53.2813 75.581 53.7683 75.581 53.7683C75.581 53.7683 74.2984 50.8704 74.1279 44.8878H74.136Z" fill="#F2B890"/>
<path d="M57.6649 48.8499C57.6649 48.8499 57.811 48.9554 58.0626 49.1259C58.3143 49.3045 58.6634 49.5724 59.0693 49.9052C59.4751 50.238 59.9297 50.652 60.2869 51.1634C60.4574 51.415 60.6035 51.7154 60.6035 51.9914C60.6035 52.2674 60.433 52.519 60.1733 52.7057C59.8973 52.9005 59.6131 53.0548 59.3047 53.1765C58.9962 53.2902 58.6796 53.3713 58.363 53.42C57.7298 53.5175 57.121 53.5175 56.6014 53.4687C56.0819 53.4119 55.6435 53.347 55.3513 53.282C55.0509 53.2171 54.8805 53.1765 54.8805 53.1765C54.8805 53.1765 55.0347 53.2577 55.3269 53.3632C55.6192 53.4606 56.0413 53.6149 56.569 53.7042C57.0966 53.7934 57.7298 53.8665 58.4117 53.7853C58.7527 53.7447 59.1017 53.6717 59.4427 53.5499C59.7836 53.4282 60.1246 53.2496 60.4249 53.0304C60.7334 52.8112 61.0175 52.4216 61.0013 51.9833C60.9932 51.5611 60.7821 51.2283 60.5792 50.9442C60.3681 50.6601 60.1246 50.4409 59.8892 50.238C59.6537 50.0351 59.4183 49.8646 59.1991 49.7104C58.7608 49.4019 58.363 49.199 58.0951 49.0528C57.8191 48.9149 57.6568 48.8418 57.6568 48.8418L57.6649 48.8499Z" fill="#C39368"/>
<path d="M62.917 58.9718C62.917 58.9718 62.9657 59.0368 63.0388 59.1829C63.1119 59.3209 63.2093 59.5319 63.2823 59.8079C63.3554 60.0839 63.396 60.4492 63.2174 60.7982C63.0469 61.1473 62.6654 61.3908 62.2027 61.5369C61.9835 61.6262 61.7156 61.6506 61.4639 61.6993C61.1961 61.7318 60.9119 61.7723 60.6359 61.7886C60.0677 61.8373 59.467 61.8698 58.8419 61.8779C58.5334 61.886 58.2168 61.8779 57.8921 61.8779C57.5755 61.8779 57.2508 61.8616 56.9261 61.8373C56.6014 61.821 56.2685 61.7886 55.9438 61.748C55.6191 61.7155 55.2863 61.6749 54.9616 61.61C54.304 61.5207 53.6546 61.3746 53.0214 61.2204C52.7048 61.1311 52.3963 61.0499 52.0879 60.9606C51.7875 60.8551 51.4872 60.7495 51.1949 60.6521C50.8946 60.5547 50.6267 60.4167 50.3425 60.3112C50.0665 60.1976 49.7905 60.092 49.5389 59.954C49.2791 59.8242 49.0356 59.7024 48.792 59.5806C48.5566 59.4507 48.3374 59.3127 48.1264 59.191C47.688 58.9475 47.3146 58.6796 46.9899 58.4442C46.8275 58.3305 46.6652 58.2169 46.5191 58.1195C46.3811 58.0058 46.2593 57.9084 46.1456 57.811C45.691 57.4376 45.4313 57.2266 45.4313 57.2266C45.4313 57.2266 45.6748 57.462 46.0888 57.8678C46.1943 57.9653 46.3161 58.0789 46.4379 58.2007C46.5759 58.3143 46.722 58.4361 46.8844 58.5578C47.0467 58.6877 47.2172 58.8257 47.3958 58.9637C47.5744 59.1098 47.7854 59.2316 47.9965 59.3696C48.2076 59.5076 48.4267 59.6537 48.6622 59.7998C48.8976 59.9297 49.1492 60.0677 49.4009 60.2057C49.6525 60.3518 49.9285 60.4736 50.2045 60.6034C50.4805 60.7252 50.7647 60.8632 51.065 60.9687C51.3654 61.0742 51.6657 61.1879 51.9742 61.2934C52.2827 61.3827 52.5993 61.4801 52.924 61.5694C53.5653 61.7318 54.231 61.886 54.8966 61.9915C55.2295 62.0483 55.5623 62.0889 55.9032 62.1133C56.2361 62.1539 56.577 62.1782 56.9017 62.1945C57.2346 62.2107 57.5593 62.2269 57.884 62.2269C58.2087 62.2269 58.5334 62.2269 58.85 62.2188C59.4832 62.2107 60.092 62.1457 60.6684 62.0727C60.9606 62.0402 61.2285 61.9915 61.4964 61.9509C61.7724 61.886 62.0322 61.8454 62.2757 61.7399C62.7628 61.5694 63.193 61.2528 63.3554 60.847C63.5259 60.4411 63.4447 60.0514 63.3554 59.7754C63.258 59.4913 63.1362 59.2884 63.055 59.1585C62.9657 59.0286 62.917 58.9637 62.917 58.9637V58.9718Z" fill="#C39368"/>
<path d="M47.4199 57.4787C47.4199 57.4787 47.2738 57.365 47.0222 57.2757C46.9004 57.227 46.7461 57.1783 46.5838 57.154C46.4214 57.1215 46.2428 57.1053 46.0561 57.1134C45.8694 57.1215 45.6827 57.1459 45.5122 57.2189C45.4229 57.2514 45.3499 57.292 45.2768 57.3569C45.2038 57.4056 45.1469 57.4787 45.1063 57.5436C45.0576 57.6004 45.0495 57.6816 45.0333 57.7384C45.0089 57.7953 45.0333 57.8521 45.0333 57.8927C45.0414 57.9738 45.0576 58.0144 45.0576 58.0144C45.0576 58.0144 45.082 57.9738 45.1145 57.9008C45.1307 57.8683 45.1469 57.8277 45.1794 57.7953C45.2119 57.7628 45.2362 57.7141 45.2849 57.6897C45.3661 57.6248 45.4798 57.5842 45.6178 57.5599C45.6827 57.5355 45.7639 57.5436 45.8288 57.5274C45.91 57.5274 45.9831 57.5112 46.0642 57.5193C46.2266 57.5112 46.3808 57.5193 46.5432 57.5193C46.6974 57.5193 46.8517 57.5193 46.9734 57.5193C47.2332 57.5193 47.4118 57.4949 47.4118 57.4949L47.4199 57.4787Z" fill="#C39368"/>
<path d="M14.8028 27.0128C14.8028 27.0128 17.6603 28.336 19.5355 26.9154C19.5355 26.9154 17.8145 26.5582 16.6942 24.5695C16.6942 24.5695 19.8196 24.9266 21.8896 21.3793C23.9678 17.832 28.3027 13.1807 32.0531 13.7489C32.0531 13.7489 30.876 11.963 28.5787 11.8088C28.5787 11.8088 35.9416 6.84092 41.8107 11.0864C41.8107 11.0864 40.5768 6.7841 40.9259 6.28893C41.275 5.79377 44.5221 10.648 44.5221 10.648C44.5221 10.648 45.0173 6.15905 51.2842 5.98047C51.2842 5.98047 47.9316 8.52935 47.826 10.4857C47.826 10.4857 52.3152 6.81657 60.9769 8.02607C63.6557 8.39947 66.2534 9.2031 68.5995 10.5831C70.1256 11.4841 71.5706 12.6693 72.7233 14.0168C74.1927 15.7214 75.9136 17.3206 77.9918 18.246C79.4774 18.9116 81.5068 19.7315 83.1223 19.0983C84.0071 18.7492 84.9325 17.832 85.3628 16.9877C85.3628 16.9877 85.7768 21.2332 81.4987 21.6147C81.4987 21.6147 87.5383 24.3503 87.173 30.203C87.173 30.203 85.5982 26.6313 81.864 26.2741C81.864 26.2741 86.2557 30.2192 84.5753 36.2667C84.5753 36.2667 83.447 32.7762 81.1902 31.9645C81.1902 31.9645 82.4647 36.4047 79.9644 38.9536C79.9644 38.9536 80.1105 37.0379 78.8929 35.9014C78.8929 35.9014 79.1851 39.8059 74.1277 44.3598C73.2754 40.2768 76.9527 31.4612 76.9527 31.4612C73.9004 31.8184 70.1256 29.0341 70.1256 29.0341C63.5908 31.4044 54.5476 25.4543 54.5476 25.4543C56.2442 27.7272 59.467 28.7418 59.467 28.7418C52.1934 30.5845 48.4673 25.7546 48.4673 25.7546C49.7743 29.4237 55.9763 30.6494 55.9763 30.6494C46.9006 35.4469 40.4307 27.6866 40.4307 27.6866C40.6742 29.4156 41.6078 30.8037 41.6078 30.8037C38.4743 30.552 37.281 27.1833 37.281 27.1833C37.2404 33.5798 31.493 36.3235 31.493 36.3235C32.459 33.5961 31.6878 30.893 31.6878 30.893C28.1485 37.874 32.2885 43.0935 32.2885 43.0935C31.1033 42.8419 29.2525 41.3483 29.2525 41.3483C30.3321 44.2137 30.3403 49.6768 30.3403 49.6768C30.2023 49.5956 23.6593 45.8372 21.8653 42.3142C20.055 38.7588 21.0454 36.1125 21.0454 36.1125C21.0454 36.1125 18.2447 38.1581 18.4964 41.7947C18.4964 41.7947 16.2965 39.3432 17.2544 35.2358C18.2123 31.1284 21.0373 29.7322 21.0373 29.7322C21.0373 29.7322 16.7105 30.5277 14.8028 27.0372V27.0128Z" fill="#E28126"/>
<path d="M74.5984 27.6705C74.6796 27.8897 74.7933 28.1008 74.9069 28.3118C75.0206 28.5229 75.1586 28.7177 75.2966 28.9044C75.4427 29.0992 75.5969 29.2778 75.7593 29.4483C75.8405 29.5375 75.9216 29.6187 76.019 29.6999C76.1083 29.7811 76.1976 29.8622 76.2951 29.9353L76.5792 30.1545L76.8877 30.3493C76.9851 30.4142 77.0987 30.4711 77.2124 30.5198C77.3179 30.5685 77.4315 30.6334 77.5452 30.6659L77.8943 30.7876C78.016 30.8201 78.1297 30.8445 78.2514 30.8769C78.3732 30.9094 78.4869 30.9256 78.6086 30.9338L78.9739 30.9662L78.909 30.6415C78.5843 30.812 78.2352 30.9743 77.8861 31.1205L77.6264 31.226C77.5371 31.2585 77.4478 31.2909 77.3585 31.3234C77.2692 31.3477 77.1799 31.3883 77.0825 31.3964L76.7984 31.4533H77.0906C77.188 31.4695 77.2854 31.4533 77.3828 31.437C77.5777 31.4208 77.7644 31.3802 77.9592 31.3315C78.3407 31.2341 78.6979 31.1042 79.0632 30.95L79.6152 30.7146L78.9902 30.6172L78.6573 30.5685C78.5437 30.5603 78.4382 30.536 78.3326 30.5035L78.0079 30.4142L77.6913 30.2925C77.5858 30.26 77.4884 30.2032 77.391 30.1545C77.2854 30.1058 77.188 30.0652 77.0906 30.0002L76.7984 29.8298L76.5223 29.635C76.4249 29.5781 76.3438 29.497 76.2545 29.4239C76.1652 29.3508 76.0759 29.2778 75.9947 29.2047C75.9135 29.1317 75.8242 29.0586 75.743 28.9693C75.6619 28.8882 75.5726 28.807 75.4995 28.7258C75.1829 28.393 74.8744 28.0439 74.6065 27.6543L74.5984 27.6705Z" fill="#C64D28"/>
<path d="M68.1854 27.2966C68.3639 27.3453 68.5425 27.394 68.7293 27.4346L69.2813 27.5401C69.468 27.5726 69.6547 27.5807 69.8414 27.605C70.0281 27.6294 70.2148 27.6294 70.4096 27.6294C70.5963 27.6294 70.7912 27.6294 70.9779 27.605C71.1646 27.5726 71.3594 27.5726 71.5461 27.5157L72.0981 27.3534L71.9033 27.1586C71.8303 27.3453 71.7328 27.5563 71.6111 27.7349C71.5542 27.8323 71.4974 27.9216 71.4244 28.0028C71.3513 28.084 71.2945 28.1814 71.2133 28.2544L70.9779 28.4898C70.8967 28.5629 70.7993 28.6197 70.71 28.6928L70.572 28.7902L70.4178 28.8632L70.1093 29.0094L70.4421 28.9119L70.6045 28.8632L70.7587 28.7821C70.8561 28.7252 70.9616 28.6765 71.0591 28.6116L71.3351 28.3924C71.4325 28.3275 71.4974 28.2301 71.5867 28.1489C71.6679 28.0677 71.741 27.9703 71.8059 27.8729C71.879 27.7836 71.9439 27.6781 72.0007 27.5807C72.0657 27.4833 72.1144 27.3777 72.1712 27.2641L72.293 26.9962L71.9764 27.0612L71.4568 27.1748C71.2864 27.2154 71.1078 27.2073 70.9292 27.2316C70.7506 27.256 70.572 27.2398 70.3934 27.2316C70.2148 27.2316 70.0362 27.2316 69.8576 27.1992C69.679 27.1748 69.5004 27.1667 69.3219 27.1342L68.7942 27.0287C68.6156 26.9962 68.437 26.9394 68.2665 26.8988C68.0879 26.8582 67.9175 26.8014 67.747 26.7527C67.5765 26.704 67.3979 26.6553 67.2275 26.5904L66.7079 26.4118C66.367 26.29 66.0179 26.1601 65.6851 26.0221C65.3441 25.8841 65.0113 25.7299 64.6703 25.5919C64.3375 25.4458 64.0047 25.2834 63.6719 25.1211C63.9641 25.3403 64.2888 25.5351 64.5973 25.7299C64.9139 25.9247 65.2386 26.0952 65.5714 26.2657C65.9043 26.4361 66.2371 26.5904 66.578 26.7446L67.0976 26.9475" fill="#C64D28"/>
<path d="M77.4072 47.8749C77.4072 47.8749 77.3504 47.8262 77.2368 47.7531C77.1231 47.6882 76.9445 47.6151 76.7091 47.5907C76.5873 47.5907 76.4574 47.5826 76.3194 47.6151C76.2464 47.6151 76.1814 47.6557 76.1165 47.68C76.0434 47.7044 75.9785 47.7369 75.9135 47.7774C75.8486 47.818 75.7837 47.8586 75.7187 47.9073C75.6619 47.956 75.6051 48.0129 75.5483 48.0697C75.4265 48.1752 75.3615 48.3132 75.256 48.4431C75.1748 48.573 75.118 48.7191 75.0449 48.849C74.9881 48.9869 74.9475 49.1331 74.9069 49.2629C74.8582 49.3928 74.842 49.5308 74.8176 49.6526C74.7933 49.7825 74.7771 49.8961 74.7608 50.0097C74.7284 50.4562 74.7446 50.7484 74.7446 50.7484C74.7446 50.7484 74.8664 50.4724 74.9881 50.0585C75.0774 49.8636 75.1424 49.6201 75.2479 49.3766C75.2966 49.2548 75.3534 49.1331 75.4102 49.0032C75.4752 48.8895 75.532 48.7597 75.6051 48.646C75.6863 48.5405 75.7431 48.4106 75.8324 48.3294C75.873 48.2807 75.9217 48.232 75.9623 48.1833C76.011 48.1427 76.0597 48.1021 76.1003 48.0697C76.1408 48.0291 76.1977 48.0047 76.2464 47.9723C76.2951 47.9479 76.3438 47.9073 76.3925 47.8911C76.498 47.8505 76.5954 47.8262 76.701 47.8018C76.8958 47.7774 77.0744 47.7937 77.2043 47.8018C77.326 47.8262 77.3991 47.8424 77.3991 47.8424L77.4072 47.8749Z" fill="#C39368"/>
<path d="M49.5713 38.2566C49.5713 38.2566 47.8097 36.4383 45.7722 36.7061C43.7427 36.974 42.4926 37.9643 42.4926 37.9643C42.4926 37.9643 43.0689 35.107 45.6829 34.9365C48.3049 34.7742 49.4333 37.5503 49.5713 38.2566Z" fill="#E28126"/>
<path d="M67.1133 38.4519C67.1133 38.4519 65.3517 36.6255 63.3141 36.9014C61.2847 37.1693 60.0346 38.1515 60.0346 38.1515C60.0346 38.1515 60.6109 35.2942 63.2249 35.1318C65.8388 34.9695 66.9672 37.7457 67.1052 38.4519H67.1133Z" fill="#E28126"/>
<path d="M45.1261 44.0764C45.2641 45.6593 45.9378 46.8851 46.6279 46.8282C47.3179 46.7633 47.7643 45.432 47.6263 43.8572C47.4883 42.2743 46.8146 41.0486 46.1164 41.1054C45.4264 41.1622 44.9799 42.4935 45.1179 44.0764H45.1261Z" fill="#3B1B0F"/>
<path d="M46.4571 42.7525C46.5383 43.2233 46.7737 43.5804 46.9766 43.548C47.1877 43.5155 47.2851 43.1015 47.2039 42.6226C47.1228 42.1518 46.8873 41.7946 46.6763 41.8352C46.4733 41.8676 46.3678 42.2816 46.449 42.7525H46.4571Z" fill="white"/>
<path d="M62.3259 43.8323C62.4639 45.4152 63.1377 46.6409 63.8359 46.5841C64.5259 46.5191 64.9723 45.196 64.8343 43.6131C64.6963 42.0302 64.0226 40.8045 63.3325 40.8613C62.6425 40.9181 62.1961 42.2494 62.3341 43.8323H62.3259Z" fill="#3B1B0F"/>
<path d="M63.6485 42.5095C63.7297 42.9803 63.9651 43.3375 64.168 43.305C64.3791 43.2725 64.4765 42.8585 64.3953 42.3796C64.3142 41.9088 64.0787 41.5516 63.8758 41.5841C63.6647 41.6166 63.5673 42.0305 63.6485 42.5095Z" fill="white"/>
<g style="mix-blend-mode:multiply" opacity="0.4">
<path d="M54.718 25.6484C54.8478 25.8027 54.9777 25.9569 55.1157 26.0949C55.1157 26.0949 55.1157 26.0949 55.1076 26.0949C54.9696 25.9813 54.8397 25.827 54.718 25.6566V25.6484Z" fill="#817459"/>
<path d="M59.4668 28.7237C52.1932 30.5664 48.4672 25.7365 48.4672 25.7365C48.4753 25.769 48.4915 25.7933 48.4996 25.8258C47.5255 24.5189 47.0628 23.2363 47.0628 23.2363C51.9172 29.3488 59.4587 28.7237 59.4587 28.7237H59.4668Z" fill="#C64D28"/>
<path d="M78.6334 37.6868L78.8932 35.8848C78.8932 35.8848 78.9419 36.5666 78.6334 37.6868Z" fill="#817459"/>
<path d="M63.039 27.7663C69.3466 29.4791 72.0011 27.0764 72.0011 27.0764L71.6033 28.156C74.0711 29.7795 77.5455 30.6724 77.5455 30.6724C75.0209 28.9028 72.4557 24.9009 72.4557 24.9009C77.1884 30.8185 80.6709 30.1529 80.6709 30.1529C79.6968 32.0037 77.7566 32.2147 77.7566 32.2147C78.6171 34.0817 78.8931 35.8757 78.8931 35.8757L78.6333 37.6778C78.2031 39.2444 77.0747 41.6797 74.1279 44.326C73.2756 40.2429 76.9529 31.4273 76.9529 31.4273C73.9006 31.7845 70.1259 29.0002 70.1259 29.0002C63.8752 31.265 55.3352 25.9237 54.6046 25.461C53.5899 23.8294 53.0704 20.4688 53.0704 20.4688C53.0704 20.4688 56.7315 26.0373 63.039 27.7501V27.7663Z" fill="#C64D28"/>
<path d="M30.2996 41.0212C30.2996 41.0212 29.0089 40.2744 29.2037 34.9656C29.3985 29.6568 33.774 25.4844 33.774 25.4844C36.185 31.6374 31.4929 36.2968 31.4929 36.2968C32.4589 33.5694 31.6878 30.8663 31.6878 30.8663C28.1484 37.8473 32.2885 43.0668 32.2885 43.0668C31.1033 42.8152 29.2524 41.3215 29.2524 41.3215C30.3321 44.187 30.3402 49.6501 30.3402 49.6501C30.324 49.6419 30.2184 49.577 30.0398 49.4715C24.5441 41.8086 27.1255 37.6443 27.1255 37.6443C28.1322 39.4383 30.2915 41.0212 30.2915 41.0212H30.2996Z" fill="#C64D28"/>
<path d="M38.0119 22.6445C37.5167 29.3739 41.6162 30.7863 41.6162 30.7863C38.4827 30.5347 37.2894 27.166 37.2894 27.166C37.2894 27.1984 37.2894 27.2309 37.2894 27.2634C36.9809 24.6414 38.0119 22.6445 38.0119 22.6445Z" fill="#C64D28"/>
<path d="M40.6336 21.6855C40.6336 21.6855 40.6904 26.2963 45.0984 29.3565C49.5064 32.4168 55.9844 30.631 55.9844 30.631C47.2009 35.2823 40.8447 28.147 40.455 27.6925C39.6189 24.9001 40.6336 21.6855 40.6336 21.6855Z" fill="#C64D28"/>
</g>
<path d="M52.9809 108.911C51.2194 108.432 47.0712 108.911 47.0712 108.911C47.0712 108.911 49.7988 107.791 52.299 106.922C55.2377 105.907 53.5979 105.014 52.3153 104.998C50.5618 104.974 46.4299 106.224 46.2107 106.297C45.9834 106.386 49.0925 104.698 50.7242 103.992C52.3559 103.302 52.6238 101.808 51.2762 101.873C49.9205 101.946 43.4506 104.901 43.4506 104.901C43.4506 104.901 44.8307 103.505 45.5613 102.628C46.5598 101.443 45.4801 100.631 44.0838 100.964C42.4034 101.37 41.2264 103.334 40.2116 104.592C39.1238 105.932 38.0198 107.263 37.9711 109.081C37.8818 112.426 41.2832 113.124 43.8484 113.651C45.821 114.057 48.3457 114.747 50.3751 114.455C51.3087 114.325 53.1514 113.083 46.3893 111.768C46.3893 111.768 49.5552 111.387 52.2909 111.273C55.0266 111.167 54.7263 109.382 52.9728 108.911H52.9809Z" fill="#F9C5A1"/>
<path d="M41.0229 109.162C37.9869 106.556 38.6363 105.387 38.6363 105.387H38.5064C39.4887 103.991 40.6414 103.261 41.7373 103.131C44.5948 102.806 72.5768 101.921 78.3161 101.767C84.0554 101.613 98.7486 106.727 98.7486 106.727C103.993 110.087 98.4158 112.994 98.4158 112.994C98.4158 112.994 72.5768 113.684 53.9221 114.187C53.2808 114.203 52.672 114.219 52.0713 114.227C48.5157 113.943 44.0509 111.752 41.031 109.154L41.0229 109.162Z" fill="#DBDEE0"/>
<path d="M52.0638 114.438H52.2505C52.7944 114.422 53.3545 114.413 53.9309 114.397L98.4976 113.204L98.5544 113.171C98.66 113.115 101.12 111.816 101.241 109.892C101.314 108.739 100.527 107.627 98.9035 106.58L98.8467 106.556C98.2541 106.353 84.0398 101.425 78.3005 101.58C72.8616 101.726 44.6035 102.611 41.6973 102.943C40.4553 103.081 39.2457 103.926 38.2797 105.314L38.0443 105.655L38.3284 105.63C38.296 106.158 38.5638 107.359 40.8368 109.308C44.1002 112.108 48.6056 114.17 52.0394 114.446H52.0556L52.0638 114.438ZM98.3353 112.798L53.9146 113.991C53.3383 114.008 52.7781 114.016 52.2342 114.032H52.08C48.7598 113.764 44.3924 111.759 41.2184 109.032C38.3771 106.596 38.8723 105.476 38.8804 105.468L39.0266 105.16H38.9779C39.814 104.096 40.7962 103.447 41.7704 103.341C44.6603 103.008 72.8859 102.124 78.3168 101.977C83.8044 101.823 97.8401 106.645 98.6032 106.905C100.072 107.855 100.787 108.853 100.722 109.868C100.624 111.434 98.6843 112.603 98.319 112.806L98.3353 112.798Z" fill="#B3B3B3"/>
<path d="M38.5066 105.404C39.4888 103.992 40.6416 103.261 41.7375 103.139C42.257 103.083 43.6046 103.001 45.496 102.912C40.3737 103.294 40.7715 103.667 42.8415 105.469C45.1226 107.458 52.4773 110.202 51.0486 110.364C49.6199 110.534 44.9359 108.351 42.4275 106.63C39.9272 104.909 41.0556 107.693 45.496 109.747C49.9365 111.801 52.5666 111.736 52.5666 111.736C52.5666 111.736 85.5817 110.851 94.6656 110.607C99.4064 110.478 100.648 109.577 100.746 108.74C101.915 111.176 98.4079 113.002 98.4079 113.002C98.4079 113.002 72.5689 113.692 53.9142 114.195C53.2729 114.212 52.664 114.228 52.0633 114.236C48.5077 113.952 44.0429 111.76 41.0231 109.163C37.987 106.557 38.6365 105.388 38.6365 105.388H38.5066V105.404Z" fill="#CFCFCE"/>
<g style="mix-blend-mode:multiply" opacity="0.67">
<path opacity="0.67" d="M49.7493 108.805C47.5331 108.058 41.6964 103.942 40.8765 103.358C41.1607 103.244 41.4448 103.171 41.7289 103.139C44.5864 102.814 72.5685 101.929 78.3078 101.775C84.047 101.621 98.7403 106.735 98.7403 106.735C99.3735 107.141 99.8443 107.546 100.193 107.936L56.7712 109.097C56.7712 109.097 52.1278 109.608 49.7412 108.805H49.7493Z" fill="#CED1D2"/>
</g>
<path d="M40.6743 103.414C37.6382 100.808 38.2877 99.6394 38.2877 99.6394H38.1578C39.14 98.2432 40.2928 97.5127 41.3887 97.3828C44.2461 97.0581 72.2282 96.1733 77.9675 96.019C83.7068 95.8648 98.4 100.979 98.4 100.979C103.644 104.339 98.0672 107.245 98.0672 107.245C98.0672 107.245 72.2282 107.935 53.5735 108.439C52.9322 108.455 52.3233 108.471 51.7226 108.479C48.167 108.195 43.7104 106.004 40.6824 103.406L40.6743 103.414Z" fill="#6B979B"/>
<path d="M51.7063 108.69H51.7226C52.3152 108.674 52.9321 108.665 53.5734 108.649L98.1402 107.456L98.197 107.423C98.3026 107.367 100.762 106.068 100.884 104.144C100.957 102.991 100.17 101.879 98.5461 100.832L98.4893 100.808C97.8967 100.605 83.6905 95.6774 77.9431 95.8317C72.5042 95.9778 44.2461 96.8626 41.3399 97.1954C40.0979 97.3334 38.8883 98.1776 37.9223 99.5657L37.6869 99.9066L37.971 99.8823C37.9385 100.41 38.2064 101.611 40.4794 103.559C43.7428 106.36 48.2482 108.422 51.682 108.698H51.6982L51.7063 108.69ZM97.9778 107.05L53.5572 108.243C52.924 108.26 52.3152 108.276 51.7226 108.284C48.4024 108.016 44.0431 106.003 40.8609 103.275C38.0197 100.84 38.5149 99.7199 38.523 99.7118L38.6773 99.4034H38.6286C39.4647 98.34 40.4388 97.6987 41.4211 97.585C44.311 97.2522 72.5366 96.3674 77.9674 96.2213C83.4632 96.0752 97.4908 100.889 98.2538 101.149C99.7232 102.098 100.438 103.097 100.373 104.111C100.275 105.678 98.335 106.847 97.9697 107.05H97.9778Z" fill="#566766"/>
<path d="M38.1494 99.6561C39.1316 98.2437 40.2844 97.5131 41.3803 97.3914C41.8998 97.3345 43.2474 97.2534 45.1388 97.1641C40.0165 97.5456 40.4143 97.919 42.4843 99.7211C44.7654 101.71 52.1201 104.454 50.6914 104.616C49.2627 104.786 44.5787 102.603 42.0703 100.882C39.57 99.161 40.6984 101.945 45.1388 103.999C49.5793 106.053 52.2094 105.988 52.2094 105.988C52.2094 105.988 85.2245 105.103 94.3165 104.859C99.0573 104.73 100.291 103.829 100.397 102.992C101.566 105.428 98.0669 107.254 98.0669 107.254C98.0669 107.254 72.2279 107.944 53.5732 108.447C52.9319 108.464 52.3231 108.48 51.7224 108.488C48.1668 108.204 43.7101 106.012 40.6821 103.415C37.6461 100.809 38.2955 99.6399 38.2955 99.6399H38.1656L38.1494 99.6561Z" fill="#577677"/>
<g opacity="0.67">
<path d="M49.3929 103.051C47.1767 102.304 41.34 98.1884 40.5201 97.6039C40.8042 97.4903 41.0883 97.4172 41.3725 97.3847C44.2299 97.06 72.212 96.1752 77.9513 96.021C83.6906 95.8668 98.3838 100.981 98.3838 100.981C99.017 101.387 99.4878 101.793 99.8369 102.182L56.4148 103.343C56.4148 103.343 51.7714 103.854 49.3847 103.051H49.3929Z" fill="#577677"/>
</g>
<path d="M40.4302 97.5368C37.3941 94.9311 38.0435 93.7622 38.0435 93.7622L37.9136 93.7784C38.8959 92.366 40.0486 91.6354 41.1445 91.5136C44.002 91.1889 71.9841 90.3041 77.7234 90.1499C83.4626 89.9957 98.1559 95.1097 98.1559 95.1097C103.4 98.4703 97.823 101.376 97.823 101.376C97.823 101.376 71.9841 102.066 53.3293 102.57C52.688 102.586 52.0792 102.602 51.4785 102.61C47.9229 102.326 43.4581 100.134 40.4383 97.5368H40.4302Z" fill="#5E517F"/>
<path d="M51.4622 102.805H51.4784C52.071 102.789 52.688 102.781 53.3293 102.765L97.8961 101.571L97.9529 101.539C98.0584 101.482 100.518 100.183 100.64 98.2596C100.713 97.1069 99.9255 95.9948 98.3019 94.9476L98.2451 94.9233C97.6525 94.7204 83.4464 89.7849 77.699 89.9473C72.26 90.0934 44.0182 90.9782 41.0958 91.311C39.8537 91.4571 38.6442 92.2932 37.6782 93.6813L37.4428 94.0222L37.7269 93.9979C37.6944 94.5255 37.9623 95.7269 40.2353 97.6751C43.4986 100.476 48.004 102.537 51.446 102.813H51.4622V102.805ZM97.7337 101.166L53.3131 102.359C52.6799 102.375 52.071 102.391 51.4866 102.399C48.1664 102.132 43.799 100.118 40.6249 97.391C37.7837 94.9558 38.2789 93.8355 38.287 93.8274L38.4412 93.519H38.3925C39.2287 92.4556 40.2028 91.8143 41.1851 91.7007C44.0425 91.376 72.4954 90.4749 77.7314 90.3369C77.8126 90.3369 77.9019 90.3369 77.9831 90.3369C83.6412 90.3369 97.2629 95.0126 98.0178 95.2723C99.4871 96.2221 100.202 97.2205 100.137 98.2352C100.039 99.8019 98.099 100.971 97.7337 101.174V101.166Z" fill="#5A266A"/>
<g style="mix-blend-mode:overlay" opacity="0.49">
<path d="M46.308 92.0329C46.308 92.0329 74.5174 89.9711 83.171 91.8949C92.7581 94.0217 108.401 97.0332 73.9248 96.8871C39.4485 96.741 42.4764 91.9679 46.308 92.041V92.0329Z" fill="#EADBEB"/>
</g>
<path d="M37.9057 93.7714C38.8879 92.3589 40.0407 91.6284 41.1366 91.5066C41.6561 91.4498 43.0037 91.3686 44.8951 91.2793C39.7728 91.6608 40.1706 92.0342 42.2406 93.8363C44.5217 95.8251 51.8764 98.5688 50.4477 98.7311C49.019 98.8935 44.335 96.718 41.8266 94.9971C39.3263 93.2762 40.4547 96.0605 44.8951 98.1142C49.3356 100.168 51.9657 100.103 51.9657 100.103C51.9657 100.103 84.9809 99.2182 94.0728 98.9747C98.8136 98.8448 100.048 97.9437 100.153 97.1076C101.322 99.5429 97.8151 101.369 97.8151 101.369C97.8151 101.369 71.9761 102.059 53.3214 102.563C52.6801 102.579 52.0713 102.595 51.4706 102.603C47.915 102.319 43.4502 100.127 40.4303 97.5297C37.3943 94.924 38.0437 93.7551 38.0437 93.7551L37.9138 93.7714H37.9057Z" fill="#4E476A"/>
<path style="mix-blend-mode:multiply" opacity="0.21" d="M70.7266 102.213C67.0735 102.814 65.6692 103.975 63.7858 107.011C61.6427 110.461 59.9705 108.423 58.9557 106.572C57.941 104.721 55.6031 102.676 54.3205 102.692L70.7266 102.205V102.213Z" fill="url(#paint0_linear_1769_14127)"/>
<path d="M71.0107 102.213C71.0107 102.213 66.2131 101.905 63.2582 107.295C62.7225 108.277 61.3506 108.39 60.6849 107.489C59.2886 105.582 57.0075 103.122 54.3124 102.7C54.3124 102.7 53.8335 101.442 61.6428 101.677C69.4521 101.913 70.6454 101.068 71.0026 102.213H71.0107Z" fill="#6D6489"/>
<path d="M65.9939 102.748C67.3577 101.96 65.0198 101.766 63.5586 101.709C69.6632 101.774 70.686 101.165 71.0107 102.204C71.0107 102.204 66.2131 101.895 63.2582 107.285C63.2339 107.334 63.1933 107.375 63.1608 107.415C63.2501 107.074 64.1755 103.787 65.9939 102.74V102.748Z" fill="#5E517F"/>
<path style="mix-blend-mode:multiply" opacity="0.21" d="M92.4816 111.117C92.4816 111.117 91.7023 113.171 90.0219 112.375C88.3415 111.571 84.5423 108.568 76.6924 108.032C76.6924 108.032 83.4951 108.024 83.6413 108.008C83.7874 107.992 92.9199 110.062 92.9199 110.062L92.4816 111.109V111.117Z" fill="url(#paint1_linear_1769_14127)"/>
<path d="M76.6848 108.035C76.6848 108.035 87.863 108.635 91.4105 112.069C92.0437 112.686 93.0503 112.548 93.5374 111.801C94.3816 110.502 95.2989 108.781 94.893 107.945C94.1949 106.492 91.1183 107.564 87.5221 107.661C83.9259 107.759 77.3261 106.582 76.6929 108.035H76.6848Z" fill="#688C8E"/>
<path d="M92.7421 107.921C91.3377 107.645 88.1718 107.653 87.3194 107.661C87.3844 107.661 87.4493 107.661 87.5143 107.661C91.1104 107.564 94.1871 106.492 94.8852 107.945C95.2911 108.781 94.3738 110.502 93.5295 111.801C93.4078 111.988 93.2617 112.134 93.0912 112.239C93.765 111.42 94.3657 108.246 92.734 107.921H92.7421Z" fill="#6B979B"/>
<g style="mix-blend-mode:multiply" opacity="0.13">
<path d="M91.4105 112.069C87.863 108.643 76.6848 108.035 76.6848 108.035C80.8979 107.653 90.6961 109.82 91.4024 111.127C92.0518 112.337 93.0828 112.15 93.2451 112.11C92.7175 112.556 91.9382 112.572 91.4105 112.061V112.069Z" fill="#8C54A2"/>
</g>
<path d="M61.789 93.8284C60.4414 92.5215 60.7255 91.9371 60.7255 91.9371H60.6687C61.1071 91.239 61.6185 90.8656 62.1055 90.8088C63.3719 90.6464 75.8165 90.1999 78.3655 90.1269C80.9145 90.0457 87.4493 92.6189 87.4493 92.6189C89.7792 94.3074 87.3032 95.7604 87.3032 95.7604C87.3032 95.7604 75.8165 96.1095 67.5201 96.3611C67.236 96.3692 66.96 96.3773 66.7002 96.3854C65.1173 96.2474 63.1365 95.1435 61.789 93.8366V93.8284Z" fill="#DBDEE0"/>
<path d="M66.7001 96.4732H66.7813C67.0249 96.4732 67.2684 96.4569 67.5282 96.4488L87.3437 95.8481L87.3681 95.8319C87.4168 95.8075 88.5046 95.15 88.5614 94.184C88.5939 93.6077 88.2448 93.0476 87.5223 92.52L87.498 92.5037C87.2382 92.3982 80.9144 89.9305 78.3654 90.0035C75.9463 90.0766 63.3881 90.5231 62.0892 90.6854C61.5372 90.7585 61.0014 91.1806 60.5712 91.8706L60.4657 92.041L60.5956 92.0248C60.5793 92.2927 60.7011 92.8934 61.7077 93.8756C63.1608 95.2799 65.1578 96.3189 66.692 96.4569L66.7001 96.4732ZM87.2707 95.6533L67.5282 96.254C67.2684 96.254 67.0249 96.2702 66.7813 96.2702H66.7164C65.2389 96.1403 63.2988 95.1257 61.8863 93.7619C60.6199 92.5362 60.8391 91.9761 60.8472 91.9761L60.9122 91.8219H60.8878C61.2612 91.2861 61.6915 90.9614 62.1298 90.9046C63.4124 90.7341 75.9626 90.2958 78.3736 90.2227C80.817 90.1497 87.0515 92.5605 87.3924 92.6985C88.05 93.1775 88.3666 93.6726 88.3341 94.184C88.2935 94.9714 87.4249 95.5559 87.2707 95.6533Z" fill="#B3B3B3"/>
<path d="M60.6683 91.9356C61.1067 91.2294 61.6181 90.8641 62.1052 90.7992C62.3325 90.7667 62.9332 90.7261 63.7774 90.6855C61.4963 90.8804 61.6749 91.0671 62.6003 91.9681C63.6151 92.9666 66.8865 94.3384 66.2534 94.4277C65.6202 94.5089 63.5339 93.4211 62.4217 92.5526C61.3096 91.684 61.8129 93.0883 63.7855 94.1192C65.7582 95.1501 66.9271 95.1177 66.9271 95.1177C66.9271 95.1177 81.6041 94.6712 85.6468 94.5495C87.7574 94.4845 88.3013 94.0299 88.35 93.616C88.8696 94.8336 87.3109 95.7508 87.3109 95.7508C87.3109 95.7508 75.8243 96.0999 67.5279 96.3515C67.2437 96.3597 66.9677 96.3678 66.708 96.3759C65.125 96.2379 63.1442 95.1339 61.7967 93.827C60.4491 92.5201 60.7332 91.9356 60.7332 91.9356H60.6764H60.6683Z" fill="#CFCFCE"/>
<g style="mix-blend-mode:multiply" opacity="0.67">
<path opacity="0.67" d="M65.6691 93.642C64.6869 93.2686 62.0892 91.1987 61.7239 90.9065C61.8538 90.8496 61.9755 90.809 62.1054 90.8009C63.3718 90.6386 75.8164 90.1921 78.3654 90.1191C80.9144 90.0379 87.4492 92.6111 87.4492 92.6111C87.7333 92.8141 87.9444 93.017 88.0986 93.2118L68.7945 93.7963C68.7945 93.7963 66.7326 94.0479 65.6691 93.6502V93.642Z" fill="#CED1D2"/>
</g>
<path d="M61.6347 90.9375C60.2871 89.6306 60.5712 89.0461 60.5712 89.0461H60.5144C60.9528 88.348 61.4642 87.9746 61.9513 87.9178C63.2176 87.7554 75.6622 87.309 78.2112 87.2359C80.7602 87.1628 87.295 89.728 87.295 89.728C89.6249 91.4164 87.1489 92.8694 87.1489 92.8694C87.1489 92.8694 75.6622 93.2185 67.3658 93.4701C67.0817 93.4782 66.8057 93.4864 66.5459 93.4945C64.963 93.3565 62.9822 92.2525 61.6347 90.9456V90.9375Z" fill="#6B979B"/>
<path d="M66.5374 93.5825C66.8053 93.5825 67.0731 93.5663 67.3573 93.5582L87.1728 92.9575L87.1972 92.9413C87.2459 92.9169 88.3337 92.2594 88.3905 91.2934C88.423 90.7171 88.0739 90.157 87.3514 89.6293L87.3271 89.6131C87.0673 89.5076 80.7516 87.0399 78.1945 87.1129C75.7754 87.186 63.2172 87.6324 61.9183 87.7948C61.3663 87.8678 60.8306 88.29 60.4003 88.9799L60.2948 89.1504L60.4247 89.1342C60.4084 89.402 60.5302 90.0027 61.5368 90.9768C62.9899 92.3812 64.9869 93.4202 66.5211 93.5582L66.5374 93.5825ZM87.1079 92.7627L67.3654 93.3634C67.0813 93.3715 66.8134 93.3796 66.5536 93.3877C65.0762 93.2497 63.136 92.2432 61.7235 90.8794C60.4571 89.6537 60.6763 89.0936 60.6844 89.0936L60.7494 88.9393H60.725C61.0984 88.4036 61.5287 88.0789 61.967 88.0221C63.2497 87.8516 75.7998 87.4133 78.2108 87.3402C80.6542 87.2671 86.8887 89.678 87.2297 89.816C87.8872 90.295 88.2038 90.7901 88.1713 91.3015C88.1307 92.0889 87.2621 92.6734 87.1079 92.7789V92.7627Z" fill="#566766"/>
<path d="M60.514 89.0548C60.9524 88.3486 61.4638 87.9833 61.9509 87.9183C62.1782 87.8859 62.7789 87.8453 63.6231 87.8047C61.342 87.9995 61.5206 88.1862 62.446 89.0872C63.4608 90.0857 66.7322 91.4575 66.0991 91.5468C65.4659 91.628 63.3796 90.5403 62.2675 89.6717C61.1553 88.8031 61.6586 90.2075 63.6312 91.2384C65.6039 92.2693 66.7728 92.2368 66.7728 92.2368C66.7728 92.2368 81.4498 91.7904 85.4925 91.6686C87.6031 91.6037 88.147 91.1491 88.1957 90.7351C88.7153 91.9527 87.1567 92.87 87.1567 92.87C87.1567 92.87 75.67 93.219 67.3736 93.4707C67.0894 93.4788 66.8134 93.4869 66.5537 93.495C64.9707 93.357 62.9899 92.2531 61.6424 90.9461C60.2948 89.6392 60.579 89.0548 60.579 89.0548H60.5221H60.514Z" fill="#577677"/>
<g opacity="0.67">
<path d="M65.5148 90.7592C64.5326 90.3858 61.9349 88.3158 61.5696 88.0236C61.6995 87.9668 61.8212 87.9262 61.9511 87.91C63.2175 87.7476 75.6621 87.3012 78.2111 87.2281C80.7601 87.155 87.2949 89.7202 87.2949 89.7202C87.579 89.9231 87.7901 90.126 87.9443 90.3209L68.6402 90.9053C68.6402 90.9053 66.5783 91.1569 65.5148 90.7592Z" fill="#577677"/>
</g>
<path d="M61.5204 87.9906C60.1728 86.6836 60.457 86.0992 60.457 86.0992H60.4001C60.8385 85.4011 61.3499 85.0277 61.837 84.9709C63.1034 84.8085 75.548 84.362 78.097 84.289C80.646 84.2078 87.1808 86.7811 87.1808 86.7811C89.5106 88.4695 87.0347 89.9225 87.0347 89.9225C87.0347 89.9225 75.548 90.2716 67.2516 90.5232C66.9674 90.5313 66.6914 90.5394 66.4317 90.5476C64.8487 90.4096 62.868 89.3056 61.5204 87.9987V87.9906Z" fill="#5E517F"/>
<path d="M66.4319 90.6372C66.6998 90.6372 66.9677 90.621 67.2518 90.6129L87.0674 90.0122L87.0917 89.9959C87.1404 89.9716 88.2282 89.3141 88.285 88.3481C88.3175 87.7718 87.9684 87.2117 87.246 86.684L87.2216 86.6678C86.9618 86.5623 80.6462 84.0945 78.0891 84.1676C75.67 84.2407 63.1198 84.6871 61.8129 84.8495C61.2609 84.9225 60.7251 85.3446 60.2948 86.0346L60.1893 86.2051L60.3192 86.1889C60.303 86.4567 60.4247 87.0574 61.4313 88.0315C62.8844 89.4358 64.8814 90.4749 66.4157 90.6129L66.4319 90.6372ZM87.0024 89.8174L67.2599 90.4181C66.9758 90.4262 66.7079 90.4343 66.4481 90.4424C64.9707 90.3044 63.0305 89.2978 61.618 87.9341C60.3517 86.7084 60.5708 86.1483 60.579 86.1483L60.6439 85.994H60.6195C60.993 85.4583 61.4232 85.1336 61.8616 85.0768C63.128 84.9144 75.7836 84.4598 78.1053 84.3949C78.1378 84.3949 78.1784 84.3949 78.219 84.3949C80.7355 84.3949 86.7914 86.7408 87.1242 86.8707C87.7817 87.3497 88.0983 87.8448 88.0659 88.3562C88.0253 89.1436 87.1567 89.7281 86.9943 89.8336L87.0024 89.8174Z" fill="#5A266A"/>
<g style="mix-blend-mode:overlay" opacity="0.49">
<path d="M64.1341 85.2323C64.1341 85.2323 76.6761 84.1932 80.524 85.1592C84.7858 86.2307 91.7428 87.7406 76.4164 87.6594C61.09 87.5863 62.4375 85.1917 64.1422 85.2242L64.1341 85.2323Z" fill="#EADBEB"/>
</g>
<path d="M60.4007 86.0997C60.8391 85.3935 61.3505 85.0282 61.8376 84.9633C62.0649 84.9308 62.6656 84.8983 63.5098 84.8496C61.2287 85.0444 61.4073 85.2311 62.3328 86.1322C63.3475 87.1306 66.619 88.5025 65.9858 88.5918C65.3526 88.6729 63.2663 87.5852 62.1542 86.7166C61.042 85.8481 61.5453 87.2524 63.518 88.2833C65.4906 89.3142 66.6596 89.2817 66.6596 89.2817C66.6596 89.2817 81.3366 88.8353 85.3792 88.7135C87.4898 88.6486 88.0337 88.194 88.0824 87.78C88.602 88.9976 87.0434 89.9149 87.0434 89.9149C87.0434 89.9149 75.5567 90.264 67.2603 90.5156C66.9761 90.5237 66.7001 90.5318 66.4404 90.54C64.8574 90.402 62.8767 89.298 61.5291 87.9911C60.1815 86.6842 60.4657 86.0997 60.4657 86.0997H60.4088H60.4007Z" fill="#4E476A"/>
<path style="mix-blend-mode:multiply" opacity="0.21" d="M74.9961 90.3379C73.3725 90.6382 72.7475 91.2227 71.9113 92.7488C70.9615 94.4778 70.2147 93.455 69.7601 92.5296C69.3055 91.5961 68.2745 90.5733 67.6982 90.5814L74.988 90.3379H74.9961Z" fill="url(#paint2_linear_1769_14127)"/>
<path d="M75.1179 90.3364C75.1179 90.3364 72.9829 90.1822 71.6759 92.8853C71.4324 93.3804 70.8235 93.4373 70.5313 92.9827C69.9062 92.0248 68.8996 90.791 67.6982 90.5799C67.6982 90.5799 67.4871 89.9468 70.9615 90.0685C74.436 90.1903 74.9636 89.7601 75.126 90.3364H75.1179Z" fill="#6D6489"/>
<path d="M72.8936 90.6054C73.5024 90.2157 72.4633 90.1102 71.8139 90.0858C74.5253 90.1183 74.9799 89.8098 75.126 90.3375C75.126 90.3375 72.991 90.1833 71.684 92.8864C71.6759 92.9107 71.6516 92.927 71.6434 92.9513C71.684 92.7808 72.098 91.133 72.9017 90.6054H72.8936Z" fill="#5E517F"/>
<path style="mix-blend-mode:multiply" opacity="0.21" d="M84.6645 94.8103C84.6645 94.8103 84.3155 95.8412 83.5686 95.4434C82.8218 95.0457 81.1333 93.5277 77.6426 93.2679C77.6426 93.2679 80.6625 93.2679 80.7355 93.2598C80.8086 93.2517 84.8594 94.2907 84.8594 94.2907L84.6645 94.8184V94.8103Z" fill="url(#paint3_linear_1769_14127)"/>
<path d="M77.6427 93.2593C77.6427 93.2593 82.6108 93.5596 84.1857 95.2805C84.4698 95.589 84.9163 95.5241 85.1273 95.1425C85.5007 94.4931 85.9066 93.6246 85.728 93.2025C85.4196 92.4719 84.0477 93.0158 82.4484 93.0645C80.8492 93.1132 77.9187 92.5206 77.6346 93.2512L77.6427 93.2593Z" fill="#688C8E"/>
<path d="M84.7783 93.2026C84.1532 93.0646 82.7488 93.0727 82.3673 93.0727C82.3997 93.0727 82.4241 93.0727 82.4484 93.0727C84.0477 93.024 85.4114 92.4882 85.728 93.2107C85.9066 93.6328 85.5007 94.4932 85.1273 95.1507C85.0705 95.24 85.0056 95.3131 84.9325 95.3699C85.2329 94.964 85.5007 93.3649 84.7783 93.2026Z" fill="#6B979B"/>
<g style="mix-blend-mode:multiply" opacity="0.13">
<path d="M84.185 95.2806C82.6101 93.5597 77.642 93.2593 77.642 93.2593C79.5172 93.0645 83.8684 94.1523 84.185 94.8098C84.4772 95.4186 84.9318 95.3212 85.0049 95.3049C84.7695 95.5322 84.4204 95.5403 84.185 95.2806Z" fill="#8C54A2"/>
</g>
<defs>
<linearGradient id="paint0_linear_1769_14127" x1="73.998" y1="90.9705" x2="47.5189" y2="117.459" gradientUnits="userSpaceOnUse">
<stop offset="0.39" stop-color="#8C54A2"/>
<stop offset="0.46" stop-color="#9460A8"/>
<stop offset="0.6" stop-color="#AB82BB"/>
<stop offset="0.79" stop-color="#CFB8D8"/>
<stop offset="1" stop-color="white"/>
</linearGradient>
<linearGradient id="paint1_linear_1769_14127" x1="86.7862" y1="106.944" x2="67.4039" y2="128.67" gradientUnits="userSpaceOnUse">
<stop offset="0.39" stop-color="#577677"/>
<stop offset="0.47" stop-color="#638081"/>
<stop offset="0.61" stop-color="#859B9C"/>
<stop offset="0.79" stop-color="#BBC8C8"/>
<stop offset="1" stop-color="white"/>
</linearGradient>
<linearGradient id="paint2_linear_1769_14127" x1="76.5547" y1="85.2482" x2="64.4272" y2="97.3762" gradientUnits="userSpaceOnUse">
<stop offset="0.39" stop-color="#8C54A2"/>
<stop offset="0.46" stop-color="#9460A8"/>
<stop offset="0.6" stop-color="#AB82BB"/>
<stop offset="0.79" stop-color="#CFB8D8"/>
<stop offset="1" stop-color="white"/>
</linearGradient>
<linearGradient id="paint3_linear_1769_14127" x1="82.1348" y1="92.8729" x2="73.7078" y2="102.331" gradientUnits="userSpaceOnUse">
<stop offset="0.39" stop-color="#577677"/>
<stop offset="0.47" stop-color="#638081"/>
<stop offset="0.61" stop-color="#859B9C"/>
<stop offset="0.79" stop-color="#BBC8C8"/>
<stop offset="1" stop-color="white"/>
</linearGradient>
</defs>
</svg>
