<svg width="110" height="223" viewBox="0 0 110 223" fill="none" xmlns="http://www.w3.org/2000/svg">
<path d="M36.7246 65.0946C36.7246 65.0946 41.4852 65.8523 40.432 56.5665C39.3787 47.2806 35.6714 23.944 46.9788 12.1073C58.2862 0.270545 78.3059 0.119009 92.5202 14.8518C101.182 24.2134 101.62 38.3568 96.7246 64.0928C94.93 74.9529 94.4834 78.0678 98.5952 78.6993C98.5952 78.6993 96.4972 81.5448 92.2506 77.8153C93.1016 79.659 95.8062 80.5261 95.8062 80.5261C95.8062 80.5261 92.2253 82.8413 87.1193 77.9416C88.6527 80.1894 89.7987 80.5514 89.7987 80.5514C89.7987 80.5514 86.5547 81.7889 84.3556 79.9452C83.3445 80.5514 81.8953 80.5345 78.8704 76.3925C75.6096 77.3607 57.7722 75.9463 51.2001 72.7135C51.2001 72.7135 50.9052 71.1561 52.1859 69.7081C50.4839 71.7286 47.0293 71.5686 45.5717 70.7604C47.518 70.3563 48.9504 68.1506 48.9504 68.1506C48.9504 68.1506 43.895 72.6041 38.6204 67.8139C40.8701 66.9299 41.2998 64.7158 41.2998 64.7158C41.2998 64.7158 39.6231 67.2751 36.7246 65.0778V65.0946Z" fill="#FFCC2B"/>
<g style="mix-blend-mode:multiply" opacity="0.5">
<path d="M82.4265 50.716C83.6229 50.6402 86.1254 49.8994 86.8331 44.7724C87.5493 39.6538 84.3981 38.4078 84.6677 37.0692C86.1422 28.8442 83.901 22.9847 74.7674 16.2329C83.4965 23.5235 83.0837 36.1348 79.7386 39.6622C80.8171 34.9141 79.528 28.0107 71.9448 23.8771C61.4041 19.0195 58.1855 9.99468 54.832 10.5756C39.9183 15.2227 39.556 38.7109 39.5055 45.4964C39.5055 46.1194 39.4718 46.675 39.4128 47.1801C39.733 50.9349 40.1711 54.2013 40.4407 56.567C41.494 65.8528 36.7334 65.0951 36.7334 65.0951C39.6319 67.2924 41.3086 64.7331 41.3086 64.7331C41.3086 64.7331 40.8705 66.9472 38.6292 67.8312C43.9037 72.6215 48.9592 68.168 48.9592 68.168C48.9592 68.168 47.5268 70.3737 45.5805 70.7778C47.0381 71.586 50.4927 71.7459 52.1947 69.7254C50.914 71.1734 51.2089 72.7309 51.2089 72.7309C57.7894 75.9637 75.6268 77.378 78.8792 76.4099C81.904 80.5519 83.3533 80.5687 84.3644 79.9626C86.0495 81.3769 88.3582 80.9728 89.3356 80.7118C74.2619 71.7712 81.289 50.7917 82.4349 50.7244L82.4265 50.716Z" fill="#A9785F"/>
</g>
<g style="mix-blend-mode:multiply" opacity="0.6">
<path d="M78.4072 60.4321C78.9296 53.2425 54.9498 61.2403 51.8407 59.9186C49.3467 58.8662 51.5795 66.0895 47.097 69.3138C48.2429 68.7835 48.9422 68.1689 48.9422 68.1689C48.9422 68.1689 47.5098 70.3746 45.5635 70.7787C47.0211 71.5869 50.4757 71.7469 52.1777 69.7264C50.897 71.1744 51.1919 72.7318 51.1919 72.7318C57.7724 75.9646 75.6098 77.379 78.8622 76.4108C81.8534 80.5107 83.3026 80.5697 84.3137 79.9803C81.2804 77.4211 77.177 71.7805 78.3988 60.4321H78.4072Z" fill="#A9785F"/>
</g>
<path d="M54.52 12.1744C54.52 12.1744 48.8074 14.3128 47.7794 25.9643C46.7515 37.6158 39.935 41.2358 41.9403 48.6443C43.9373 56.0528 52.8602 66.2815 65.1365 65.3133C73.9078 64.623 78.4156 60.4305 78.4156 60.4305L80.6147 49.2504C80.6147 49.2504 85.7629 50.025 85.8808 44.115C86.0072 38.2135 81.8533 38.8449 80.4968 42.204C79.1486 45.5715 76.5282 48.316 76.5282 48.316C76.5282 48.316 82.8897 35.2922 71.4053 26.3768C62.9795 21.2077 56.8456 16.1312 54.5116 12.166L54.52 12.1744Z" fill="#F4D9BF"/>
<path d="M85.0383 43.6187C84.7349 42.3643 83.4458 41.6824 82.5358 42.7684C81.7775 43.6692 81.4657 45.4372 81.373 46.5905C81.373 46.6747 81.491 46.7252 81.5163 46.6326C81.7522 45.9591 81.8786 45.2604 82.0892 44.5869C82.2156 44.629 82.3673 44.6542 82.4684 44.6879C82.9739 44.8647 83.53 45.1425 83.9261 45.5129C83.9935 45.5803 84.0946 45.4708 84.044 45.3951C83.8924 45.193 82.8728 44.2501 82.2746 44.0817C82.4768 43.6019 82.7549 43.0631 83.2014 42.8021C83.8587 42.4233 84.5917 43.1978 84.9203 43.6777C84.9709 43.7534 85.0551 43.6777 85.0383 43.6103V43.6187Z" fill="#C39368"/>
<path d="M51.9756 53.983C51.9756 53.983 59.7189 55.5068 63.3757 53.3516C62.4994 55.5909 60.4519 58.7564 56.0705 57.9482C54.8404 55.8688 53.5007 54.3366 51.9756 53.983Z" fill="white"/>
<path d="M52.6496 54.2512L52.9614 54.428C53.0709 54.4785 53.1636 54.5627 53.2563 54.6301L53.5428 54.849C53.6355 54.9247 53.7197 55.0173 53.804 55.0931C53.9809 55.253 54.1494 55.4214 54.3011 55.6151C54.4612 55.7918 54.6213 55.9771 54.7561 56.1791C54.8993 56.3727 55.051 56.5664 55.1858 56.7684C55.3206 56.9705 55.4639 57.1725 55.5903 57.383L55.9694 58.0144L55.9947 58.0649H56.0452L56.6266 58.1575C56.8204 58.1996 57.0142 58.1996 57.2164 58.208C57.4102 58.208 57.6124 58.2333 57.8062 58.208C58 58.1912 58.2022 58.1828 58.396 58.1491L58.9858 58.0312L59.5588 57.846C59.7442 57.7702 59.9295 57.6776 60.1149 57.6019C60.2918 57.5093 60.4604 57.3998 60.6373 57.2988C60.8058 57.1809 60.9659 57.0547 61.126 56.9368L61.581 56.5243C61.8675 56.2296 62.1371 55.9181 62.373 55.5898C62.4825 55.4214 62.6089 55.253 62.71 55.0763C62.8196 54.8995 62.9207 54.7227 63.0134 54.5375C63.2072 54.1755 63.3673 53.7966 63.5273 53.4178L63.6874 53.0137L63.2998 53.2073L62.6595 53.5272C62.4404 53.6282 62.2129 53.6956 61.9854 53.7798C61.7664 53.8724 61.522 53.9061 61.2945 53.9734C61.067 54.0323 60.8311 54.0828 60.5952 54.1165C60.3592 54.1502 60.1233 54.2091 59.8874 54.226L59.1712 54.3017C58.6909 54.3354 58.2107 54.3775 57.7304 54.3775C56.7699 54.4028 55.8093 54.3607 54.8488 54.2933C53.8882 54.226 52.9277 54.1249 51.9756 53.9818C52.2031 54.0744 52.4306 54.1249 52.6412 54.2512H52.6496ZM54.8404 54.4449C55.3206 54.5038 55.8009 54.5375 56.2812 54.5796C56.7614 54.6048 57.2501 54.6301 57.7304 54.6301C58.2107 54.6385 58.6994 54.6132 59.1881 54.5964L59.9211 54.529C60.1654 54.5122 60.4014 54.4617 60.6457 54.428C60.8901 54.3943 61.126 54.3438 61.3703 54.2849C61.6063 54.226 61.8506 54.1839 62.0865 54.0913C62.3225 54.0071 62.5584 53.9397 62.7859 53.8387L63.4599 53.5104L63.2324 53.2999C63.0808 53.6703 62.9207 54.0323 62.7269 54.3775C62.6342 54.5543 62.5331 54.7227 62.432 54.891C62.3393 55.0594 62.2129 55.2194 62.1118 55.3877C61.8843 55.7077 61.6315 56.0023 61.3619 56.2885L60.9322 56.6842C60.7805 56.8021 60.6289 56.92 60.4688 57.0294C60.3003 57.1304 60.1402 57.2314 59.9717 57.3241L59.4493 57.5598L58.91 57.7366L58.3539 57.8544C58.1685 57.8881 57.9747 57.8881 57.7894 57.9134C57.604 57.9386 57.4102 57.9302 57.2249 57.9302C57.0395 57.9302 56.8457 57.9302 56.6603 57.8965L56.0958 57.8292L56.1716 57.8881L55.7756 57.2567C55.6408 57.0462 55.4891 56.8526 55.3543 56.6506C55.2195 56.4485 55.0594 56.2549 54.9078 56.0612C54.7561 55.8676 54.5876 55.6908 54.4191 55.5056C54.259 55.3204 54.0736 55.152 53.8882 55.0005C53.7956 54.9247 53.7113 54.8321 53.6102 54.7648L53.3069 54.5543C53.2058 54.4869 53.1046 54.4112 52.9951 54.3607L52.6749 54.1923C52.4559 54.0828 52.2199 54.0492 51.9924 53.965C52.9361 54.1755 53.8882 54.3102 54.8488 54.428L54.8404 54.4449Z" fill="#C39368"/>
<path d="M48.2344 51.8691C48.2344 51.8691 48.2934 51.9197 48.3945 51.9954C48.4871 52.0796 48.6472 52.1722 48.8242 52.3069C49.0095 52.4164 49.2118 52.5679 49.4477 52.7026C49.5656 52.7699 49.6836 52.8373 49.8016 52.9131C49.9195 52.9888 50.0543 53.0393 50.1807 53.1067C50.3071 53.174 50.4335 53.2414 50.5599 53.3087C50.6947 53.3593 50.8211 53.4182 50.9391 53.4771C51.0654 53.536 51.1834 53.5866 51.2929 53.6455C51.4025 53.696 51.5204 53.7297 51.6215 53.7718C52.026 53.9317 52.2956 54.058 52.2956 54.058C52.2956 54.058 52.0007 54.0328 51.5626 53.9654C51.453 53.9486 51.3351 53.9317 51.2087 53.8896C51.0907 53.8475 50.9643 53.8054 50.8295 53.7634C50.6947 53.7128 50.5599 53.6707 50.4251 53.6202C50.2903 53.5529 50.1639 53.494 50.0291 53.4266C49.9027 53.3508 49.7594 53.2919 49.6415 53.2077C49.5151 53.1319 49.3971 53.0393 49.2876 52.9636C49.0517 52.812 48.8663 52.6184 48.7062 52.4669C48.5546 52.2985 48.4366 52.1554 48.3523 52.0459C48.2681 51.9449 48.2344 51.8691 48.2344 51.8691Z" fill="#C39368"/>
<path d="M63.3084 52.5938C63.3084 52.5938 63.3084 52.6358 63.3084 52.6779C63.3084 52.7032 63.3253 52.7284 63.3421 52.7621C63.3421 52.7958 63.3758 52.8211 63.4011 52.8631C63.4348 52.9305 63.5022 52.9978 63.5612 53.082C63.5949 53.1157 63.637 53.1578 63.6623 53.1999C63.696 53.242 63.7213 53.2841 63.7718 53.3178C63.8477 53.4019 63.9235 53.4861 63.9825 53.5703C64.0499 53.6545 64.1173 53.7303 64.1678 53.7976C64.2689 53.9407 64.3279 54.067 64.3279 54.067C64.3279 54.067 64.21 54.0333 64.0415 53.9576C63.9572 53.9155 63.8645 53.8734 63.7718 53.806C63.6791 53.7387 63.5949 53.6461 63.5022 53.5619C63.4179 53.4693 63.3505 53.3599 63.2915 53.2504C63.2663 53.1999 63.2494 53.1325 63.2326 53.082C63.2157 53.0315 63.1989 52.9726 63.1989 52.9221C63.182 52.8126 63.2157 52.7284 63.241 52.6695C63.2747 52.6106 63.3 52.5938 63.3 52.5938H63.3084Z" fill="#C39368"/>
<path d="M51.9671 39.5787C51.9671 39.5787 51.8407 39.7387 51.6132 40.0081C51.3941 40.2859 51.0739 40.6732 50.6948 41.1446C50.3156 41.6161 49.8943 42.1801 49.4562 42.7863C49.0349 43.4008 48.5715 44.0743 48.2934 44.7899C48.1586 45.1351 48.0912 45.5308 48.2513 45.716C48.3103 45.7833 48.3777 45.8843 48.4367 45.9264C48.4956 45.9685 48.5546 46.019 48.6136 46.0696C48.7653 46.1537 48.9085 46.2463 49.0686 46.3053C49.7089 46.5747 50.383 46.6925 50.9475 46.7683C51.5205 46.8357 52.0008 46.8862 52.3462 46.903C52.6833 46.9198 52.8855 46.9283 52.8855 46.9283C52.8855 46.9283 52.6917 46.9619 52.3462 46.9956C52.0092 47.0209 51.5121 47.063 50.9223 47.0377C50.6274 47.0293 50.3072 47.004 49.9701 46.9535C49.6331 46.903 49.2792 46.8441 48.9169 46.701C48.7316 46.642 48.5546 46.541 48.3777 46.4484L48.108 46.2463C48.0238 46.1706 47.9732 46.0948 47.9058 46.019C47.7289 45.8086 47.6868 45.5223 47.7036 45.2866C47.7205 45.0425 47.7879 44.832 47.8637 44.63C48.1839 43.8218 48.6641 43.1483 49.1276 42.5421C49.5994 41.936 50.0797 41.414 50.4925 40.9678C50.9054 40.5216 51.2761 40.1849 51.5289 39.9407C51.7901 39.705 51.9418 39.5703 51.9418 39.5703L51.9671 39.5787Z" fill="#C39368"/>
<path d="M63.6369 39.9836C63.3504 41.1959 62.7606 42.0294 62.314 41.8442C61.859 41.6589 61.7242 40.5224 62.0107 39.3101C62.2887 38.0978 62.887 37.2644 63.3251 37.4496C63.7801 37.6348 63.9065 38.7713 63.6284 39.9836H63.6369Z" fill="#683222"/>
<path d="M62.9203 38.6688C62.8108 39.0224 62.617 39.2581 62.4822 39.1908C62.3474 39.1234 62.3305 38.7783 62.4401 38.4163C62.5496 38.0627 62.7434 37.827 62.8782 37.8943C63.013 37.9617 63.0299 38.3152 62.9203 38.6688Z" fill="white"/>
<path d="M48.5128 37.1532C48.2263 38.3655 47.6365 39.1989 47.1899 39.0137C46.7433 38.8285 46.6001 37.692 46.8866 36.4797C47.1646 35.2674 47.7629 34.4339 48.2094 34.6276C48.6644 34.8128 48.7908 35.9493 48.5128 37.1616V37.1532Z" fill="#683222"/>
<path d="M47.7963 35.8488C47.6868 36.2024 47.493 36.4381 47.3582 36.3624C47.2234 36.295 47.2065 35.9498 47.316 35.5963C47.4256 35.2343 47.6194 35.0069 47.7542 35.0743C47.889 35.1416 47.9058 35.4952 47.7963 35.8488Z" fill="white"/>
<path d="M60.5021 32.069C60.5021 32.069 63.2826 29.316 66.0125 33.7022C66.5265 34.5104 66.6866 31.1092 63.7376 30.0316C61.8502 29.3497 59.8364 32.01 60.5021 32.069Z" fill="#EAB520"/>
<path d="M47.4846 29.5854C47.4846 29.5854 49.3046 27.4303 51.0656 31.387C51.4026 32.3215 51.9166 30.8482 50.223 28.0785C49.1529 26.6894 46.6505 29.4171 47.4846 29.577V29.5854Z" fill="#EAB520"/>
<g style="mix-blend-mode:multiply" opacity="0.6">
<path d="M70.3018 13.1016C70.3018 13.1016 70.7483 13.2952 71.4898 13.7245C72.2228 14.1539 73.2761 14.7937 74.4388 15.6945C75.0202 16.1407 75.6353 16.6543 76.2672 17.2267C76.8907 17.7992 77.5395 18.4222 78.1462 19.1378C78.7697 19.8281 79.3595 20.6026 79.9324 21.4024C80.4801 22.2274 81.0194 23.0693 81.4659 23.9785C81.9293 24.8793 82.2916 25.8307 82.6118 26.7735C82.7466 27.2618 82.8983 27.7333 83.0078 28.2131C83.1005 28.7014 83.2353 29.1645 83.2943 29.6443C83.4544 30.5956 83.5218 31.5217 83.5302 32.4057C83.5302 32.8434 83.5302 33.2728 83.5134 33.6853C83.4797 34.0978 83.4544 34.5019 83.4207 34.8808C83.387 35.2596 83.3196 35.63 83.269 35.9752C83.2101 36.3204 83.1679 36.6487 83.0837 36.9518C82.932 37.5579 82.8393 38.0967 82.7045 38.5176C82.4433 39.3679 82.2917 39.8562 82.2917 39.8562C82.2917 39.8562 82.4096 39.3595 82.6203 38.4924C82.7382 38.063 82.8056 37.5242 82.9236 36.9181C82.9826 36.615 83.0163 36.2867 83.05 35.9415C83.0837 35.5964 83.1427 35.2343 83.1679 34.8639C83.1848 34.4851 83.2016 34.0894 83.2269 33.6853C83.2353 33.2728 83.2101 32.8519 83.2101 32.4225C83.1764 31.5638 83.0752 30.6546 82.9152 29.7285C82.8562 29.2655 82.7214 28.8025 82.6203 28.331C82.5107 27.8596 82.3506 27.3965 82.2158 26.9251C81.8872 26.0074 81.5249 25.0814 81.0615 24.2058C80.6402 23.3135 80.1094 22.4716 79.587 21.6634C79.0309 20.872 78.4663 20.1059 77.8597 19.4156C76.6632 18.0181 75.4162 16.8395 74.2872 15.905C73.1581 14.9705 72.1639 14.2633 71.4477 13.8003C70.7315 13.3373 70.3102 13.1016 70.3102 13.1016H70.3018Z" fill="#A9785F"/>
<path d="M91.8805 29.3828C91.8805 29.3828 91.9142 29.5512 91.9647 29.8711C91.9984 30.191 92.0827 30.6625 92.1417 31.2686C92.1838 31.8748 92.268 32.6072 92.3017 33.4491C92.327 34.2909 92.3776 35.2422 92.386 36.2862C92.3692 37.3301 92.3523 38.4582 92.327 39.6452C92.2849 40.8407 92.1922 42.0951 92.108 43.3915C92.0405 44.6964 91.8805 46.0266 91.7372 47.3904C91.6614 48.0723 91.5855 48.7543 91.5181 49.4446C91.4423 50.1349 91.3749 50.8253 91.2569 51.5072C90.8272 54.2517 90.3975 56.9962 89.9931 59.5639C89.6139 62.1316 89.3106 64.5393 89.2011 66.6103C89.0831 68.6814 89.1252 70.4156 89.3527 71.5942C89.4454 72.1835 89.6139 72.6297 89.7319 72.9244C89.8751 73.2106 89.9678 73.3537 89.9678 73.3537C89.9678 73.3537 89.8667 73.2106 89.715 72.9328C89.5802 72.6466 89.3864 72.2088 89.2685 71.6111C88.9988 70.4324 88.864 68.6813 88.9483 66.6019C89.0157 64.5141 89.2432 62.0895 89.6055 59.505C89.9931 56.9288 90.3975 54.1927 90.8104 51.4482C90.9283 50.7663 91.0042 50.076 91.08 49.3941C91.1643 48.7122 91.2401 48.0303 91.3159 47.3483C91.476 45.9929 91.6445 44.6628 91.7204 43.3663C91.8046 42.0698 91.931 40.8238 91.9984 39.6368C92.049 38.4498 92.0911 37.3217 92.1248 36.2862C92.1248 35.2507 92.1248 34.2993 92.1248 33.4575C92.1248 32.6156 92.0658 31.8832 92.0405 31.277C92.0068 30.6709 91.9563 30.2078 91.931 29.8795C91.8889 29.5596 91.872 29.3912 91.872 29.3912L91.8805 29.3828Z" fill="#A9785F"/>
<path d="M53.7366 11.1569C53.7366 11.1569 53.1468 11.3505 52.1947 11.9061C51.251 12.4533 49.9703 13.3878 48.6475 14.7432C47.9902 15.4251 47.3078 16.1997 46.6758 17.0836C46.3388 17.513 46.0439 17.9928 45.7237 18.4643C45.4372 18.961 45.1086 19.4493 44.8306 19.9797C44.2323 21.0152 43.7268 22.1517 43.2381 23.3051C43.0106 23.8944 42.7831 24.4837 42.564 25.0814C42.3702 25.6875 42.1512 26.2937 41.9827 26.9083C41.6119 28.1374 41.3002 29.3749 41.0305 30.6125C40.9042 31.2355 40.7693 31.8416 40.6682 32.4562C40.5671 33.0623 40.4744 33.6685 40.3733 34.2662C40.2301 35.4617 40.0532 36.615 39.9689 37.7179C39.8509 38.8207 39.7835 39.8562 39.733 40.8244C39.6656 41.7841 39.6571 42.6681 39.6234 43.451C39.5897 44.234 39.5897 44.9243 39.5897 45.4799C39.5813 46.608 39.5729 47.2479 39.5729 47.2479C39.5729 47.2479 39.5476 46.608 39.5055 45.4799C39.4802 44.9159 39.4549 44.234 39.4634 43.451C39.4634 42.6681 39.4381 41.7757 39.4886 40.816C39.5223 39.8478 39.556 38.8039 39.6487 37.6926C39.7161 36.5814 39.8509 35.4196 39.9942 34.2157C40.0869 33.618 40.1795 33.0034 40.2807 32.3888C40.3818 31.7743 40.5166 31.1597 40.6345 30.5283C40.8957 29.2823 41.1991 28.0195 41.5698 26.7736C41.7467 26.1506 41.9742 25.5444 42.1765 24.9299C42.3955 24.3237 42.6314 23.726 42.8674 23.1367C43.3729 21.9665 43.9037 20.8215 44.5104 19.7776C44.7969 19.2388 45.1255 18.7505 45.4372 18.2538C45.7743 17.7824 46.086 17.3025 46.4315 16.8732C47.0971 15.9892 47.8049 15.2231 48.4874 14.5496C49.8608 13.2026 51.2005 12.3355 52.1694 11.8219C53.1384 11.3084 53.7451 11.1484 53.7451 11.1484L53.7366 11.1569Z" fill="#A9785F"/>
</g>
<path d="M54.6719 55.5579C54.6719 55.5579 55.3628 56.0799 56.2138 56.122C57.0648 56.1557 60.1571 55.9368 61.9433 54.9434C61.3282 55.9115 57.5198 56.3156 56.5677 56.5177C55.6071 56.7113 55.2785 56.5177 54.6719 55.5663V55.5579Z" fill="#E0E1E0"/>
<path d="M69.3162 44.1919C69.3499 45.1011 68.0271 45.9009 66.3503 45.9851C64.6736 46.0693 63.2834 45.3958 63.2497 44.4866C63.216 43.5773 64.5388 42.7691 66.2155 42.6934C67.8923 42.6176 69.2825 43.2827 69.3162 44.1919Z" fill="#F8CBC1"/>
<path d="M44.8225 38.8809C44.4771 38.7546 44.1316 38.6788 43.803 38.6367C43.2722 39.5123 42.9015 40.4552 42.6318 41.4401C42.9773 41.6675 43.3817 41.8779 43.8367 42.0295C45.4208 42.5767 46.929 42.3157 47.1986 41.4401C47.4682 40.573 46.4066 39.4197 44.8225 38.8809Z" fill="#F8CBC1"/>
<path d="M74.5733 197.607C74.5733 197.607 76.2584 202.894 74.5733 207.398C73.1577 211.169 68.9027 217.365 74.5733 220.211C80.2438 223.057 90.0936 220.876 87.3636 210.993C84.6336 201.109 83.8922 196.016 83.8922 196.016L74.5733 197.607Z" fill="#8E5E48"/>
<g style="mix-blend-mode:screen">
<path d="M76.2167 213.543C75.6353 213.005 75.1971 212.314 74.8854 211.59C74.7674 211.296 74.6663 211.001 74.5905 210.689C74.2956 211.691 74.1776 212.811 74.5905 213.762C75.1381 215.025 76.5116 215.202 77.7333 215.025C77.371 214.419 76.7138 214.015 76.2082 213.543H76.2167Z" fill="#8E5E48"/>
</g>
<g style="mix-blend-mode:multiply">
<path d="M87.3641 210.993C84.6341 201.109 83.8926 196.016 83.8926 196.016L80.9857 196.512C81.1627 197.388 81.3902 198.255 81.6177 199.122C81.862 200.04 82.1148 200.949 82.3423 201.867C82.5613 202.759 82.7888 203.668 82.7551 204.586C82.7299 205.352 82.5614 206.101 82.5192 206.859C82.4771 207.566 82.5951 208.206 82.9068 208.846C83.4292 209.949 84.2381 210.917 84.533 212.121C84.8279 213.341 84.4824 214.705 83.7073 215.69C82.9321 216.667 81.7525 217.256 80.556 217.542C78.3737 218.064 75.6859 217.887 73.8322 216.515C72.897 215.825 72.3072 214.916 71.987 213.905C71.3719 216.372 71.65 218.738 74.5821 220.211C80.2527 223.057 90.1024 220.876 87.3725 210.993H87.3641Z" fill="#8E5E48"/>
</g>
<g style="mix-blend-mode:multiply" opacity="0.38">
<path d="M87.3639 210.993C84.634 201.109 83.8925 196.016 83.8925 196.016L82.5023 196.251C82.6708 198.811 83.0499 201.353 83.5471 203.87C83.8251 205.31 84.1284 206.741 84.4823 208.164C84.8194 209.528 85.1648 210.891 85.2828 212.297C85.3923 213.577 85.2828 214.89 84.6845 216.044C84.1369 217.096 83.2859 217.972 82.3253 218.662C80.3368 220.102 77.7417 220.741 75.3066 220.531C81.0446 222.854 89.9844 220.455 87.3639 210.984V210.993Z" fill="#8E5E48"/>
</g>
<g style="mix-blend-mode:multiply">
<path d="M77.1098 201.176C79.1909 200.621 81.3311 200.259 83.4797 200.141C83.8757 200.116 84.2801 200.107 84.6761 200.107C84.1032 197.405 83.901 196.016 83.901 196.016L74.582 197.607C74.582 197.607 75.1466 199.375 75.2982 201.732C75.8965 201.53 76.5031 201.336 77.1182 201.176H77.1098Z" fill="#8E5E48"/>
</g>
<path d="M82.8726 219.537C80.8842 220.017 78.7777 219.966 76.7977 219.478C74.9103 219.015 73.183 217.938 72.3404 216.128C72.0961 215.606 71.9528 215.067 71.8517 214.52C71.4304 216.767 71.8854 218.872 74.5817 220.219C78.7187 222.298 85.0802 221.692 87.153 217.373C86.007 218.502 84.3977 219.175 82.8726 219.546V219.537Z" fill="#6F4938"/>
<path d="M48.9252 199.636C48.9252 199.636 47.5434 202.599 43.2209 205.167C38.9069 207.735 28.282 209.949 28.1135 212.803C27.9534 215.657 33.961 215.564 40.5584 215.135C47.1558 214.705 51.217 213.729 55.9944 212.298C60.7718 210.866 59.3058 208.391 59.0108 204.847C58.7159 201.303 57.3847 197.994 57.3847 197.994L48.9252 199.636Z" fill="#8E5E48"/>
<g style="mix-blend-mode:screen">
<path d="M30.6162 211.278C31.3577 211.446 32.1834 211.303 32.908 211.127C33.7927 210.908 34.6606 210.579 35.461 210.125C36.0256 209.805 36.7755 209.316 37.003 208.66C37.0872 208.407 36.9103 208.281 36.6828 208.23C35.5284 208.55 34.391 208.929 33.3125 209.434C32.3519 209.881 31.3156 210.436 30.6331 211.278H30.6162Z" fill="#8E5E48"/>
</g>
<g style="mix-blend-mode:multiply">
<path d="M59.0191 204.837C58.7242 201.293 57.3929 197.984 57.3929 197.984L49.321 199.55C50.0035 200.03 50.8798 200.224 51.6718 200.401C52.4554 200.577 53.2643 200.712 54.0311 200.973C54.7135 201.2 55.2949 201.545 55.5898 202.227C56.028 203.254 56.0364 204.484 55.9774 205.578C55.9184 206.731 55.7246 207.876 55.0084 208.819C54.1827 209.905 52.961 210.545 51.8235 211.244C50.3574 212.136 48.8745 212.978 47.3494 213.753C46.7343 214.064 46.1108 214.359 45.4873 214.653C49.4474 214.131 52.5397 213.332 56.0111 212.296C60.7885 210.865 59.3224 208.39 59.0275 204.846L59.0191 204.837Z" fill="#8E5E48"/>
</g>
<g style="mix-blend-mode:multiply">
<path d="M49.692 201.958C51.6552 202.48 53.7954 202.429 55.7586 201.983C56.618 201.79 57.5365 201.503 58.3622 201.074C57.8988 199.256 57.3848 197.984 57.3848 197.984L48.9253 199.626C48.9253 199.626 48.622 200.266 47.8721 201.209C48.4366 201.545 49.0601 201.79 49.692 201.958Z" fill="#8E5E48"/>
</g>
<path d="M56.8033 209.343C52.6409 211.094 48.0826 211.599 43.6675 212.357C40.0697 212.98 36.3708 213.636 32.7055 213.333C31.3827 213.224 29.7144 213.055 28.7538 212.012C28.6949 211.944 28.6359 211.877 28.5938 211.809C28.3073 212.129 28.1388 212.466 28.1135 212.803C27.9534 215.657 33.961 215.564 40.5584 215.135C47.1558 214.706 51.217 213.729 55.9944 212.298C59.2299 211.33 59.6007 209.882 59.4153 207.945C58.598 208.535 57.6627 208.981 56.8033 209.343Z" fill="#6F4938"/>
<path d="M80.2861 96.4478C80.3283 96.6246 80.5389 96.7172 82.7802 96.3131C85.0214 95.909 88.8215 94.9745 90.6161 93.8717C92.4024 92.7604 93.4725 91.6996 93.0428 91.6323C92.6131 91.5649 87.6081 92.5162 84.9793 93.4844C82.3505 94.461 80.2946 96.4478 80.2946 96.4478H80.2861Z" fill="#0A4E66"/>
<path d="M40.9456 86.4032C37.8871 81.5624 37.1203 82.6316 37.1203 82.6316C36.8507 82.8084 36.8928 83.3304 37.4826 84.9552C38.0724 86.58 41.2658 93.9548 43.5913 95.2008C43.6082 95.2008 43.6166 95.2176 43.6335 95.226C43.6672 94.6367 43.7514 90.8483 40.9456 86.4032Z" fill="#0A4E66"/>
<path d="M60.0557 82.5311C64.0579 83.575 68.6668 72.2519 70.1245 69.1201L68.987 68.3288L68.2708 64.9023C68.2708 64.9023 66.5267 65.3822 61.8672 65.3149L61.7324 68.1351C61.7324 68.1351 50.88 80.1318 60.0557 82.5311Z" fill="#E3BB94"/>
<path d="M87.5236 202.472C87.0096 201.63 86.5883 200.931 86.4535 199.929C86.3187 198.91 86.3608 197.858 86.3103 196.831C86.1081 192.352 86.0743 187.874 85.9732 183.386C85.8806 179.101 85.9227 174.74 85.3919 170.481C85.1644 168.637 84.7431 166.852 84.0606 165.118C83.4118 163.468 82.6788 161.834 82.3838 160.075C82.3417 159.839 82.308 159.595 82.2827 159.359C82.2827 159.317 82.249 159.292 82.2153 159.292C82.3754 158.829 82.6872 158.366 82.7462 157.869C82.8051 157.381 82.5776 156.994 82.2996 156.606C81.8109 155.95 81.4739 155.352 81.2969 154.535C80.9852 153.079 81.2379 151.522 81.3306 150.057C81.4486 148.23 81.3643 146.378 81.3643 144.542C81.3643 140.956 81.4065 137.37 81.3643 133.783C81.3222 130.551 81.0779 127.335 79.9909 124.27C80.1089 124.312 80.2437 124.194 80.1679 124.068C79.7129 123.327 78.1457 123.63 77.4548 123.689C75.8033 123.824 74.1519 123.849 72.492 123.9C68.3044 124.018 64.0999 124.237 59.9123 124.22C56.0701 124.203 52.2364 124.127 48.4026 124.338C47.1893 124.405 45.9592 124.481 44.7543 124.708C44.4931 124.758 43.9285 124.86 43.6168 125.104C43.5241 125.028 43.3472 125.062 43.3472 125.222C43.3472 126.004 43.3472 126.779 43.3135 127.562C43.2798 128.496 42.9933 129.229 42.631 130.088C42.2855 130.896 42.4793 131.51 42.8416 132.083C42.8079 132.1 42.7826 132.142 42.7995 132.192C43.8359 136.132 42.968 140.097 42.8837 144.088C42.7995 148.508 43.2629 152.911 43.4399 157.322C43.8022 166.17 44.9649 174.942 45.5884 183.774C45.9592 189.027 45.8918 194.28 45.9844 199.533C45.7148 199.921 45.462 200.333 45.2177 200.737C45.007 201.091 44.6953 201.604 44.7374 202.025C44.7374 202.093 44.788 202.126 44.8385 202.135C44.9649 202.909 45.9929 203.524 46.5658 203.903C47.9224 204.82 49.498 205.578 51.082 205.999C51.7477 206.294 52.4976 205.991 53.1295 205.738C54.2501 205.292 55.3708 204.938 56.5335 204.585C57.0896 204.416 57.6457 204.231 58.2187 204.096C58.7748 203.962 59.3309 203.886 59.8617 203.675C60.6369 203.364 60.5948 202.648 60.9065 202.009C60.9486 202 60.9908 201.975 60.9992 201.924C61.0076 201.882 60.9992 201.84 61.0076 201.798C61.0329 201.293 60.5526 200.788 60.283 200.417C59.8027 199.761 59.4404 199.02 59.095 198.279C59.1287 196.351 59.1792 194.423 59.3899 192.495C59.7101 189.54 60.283 186.611 60.5863 183.656C60.7211 182.275 60.7801 180.886 60.738 179.497C60.6874 178.024 60.4262 176.559 60.283 175.094C60.1398 173.629 60.0808 172.156 60.0134 170.683C59.9544 169.327 59.9965 167.963 59.887 166.616C60.0808 166.221 60.2662 165.817 60.3925 165.387C60.679 164.411 59.9291 163.628 59.4826 162.836C59.7269 161.422 59.828 159.966 59.9375 158.551C60.1229 156.228 60.2746 153.912 60.4431 151.589C60.6116 149.392 60.7886 147.194 60.9318 144.989C61.0076 143.827 61.1003 142.69 61.252 141.537C61.3615 140.754 61.4458 139.912 61.2857 139.129C61.6648 139.424 62.044 139.719 62.4063 140.022C62.9287 141.613 63.0298 143.229 63.232 144.879C63.4342 146.605 63.9482 148.306 64.3274 149.998C65.1531 153.694 65.8777 157.398 66.4844 161.136C66.7877 162.996 67.1416 164.832 67.6977 166.633C68.2454 168.409 68.8605 170.169 69.2396 171.996C69.9979 175.591 69.5345 179.345 70.7563 182.848C70.7563 182.864 70.7731 182.873 70.7815 182.89C71.0343 184.312 71.127 185.777 71.2113 187.217C71.3292 189.145 71.4977 191.064 71.7084 192.992C71.9274 195.004 72.1381 197.016 72.2055 199.037C72.2308 199.845 72.2308 200.678 72.2561 201.503C72.2392 201.512 72.2308 201.529 72.2308 201.546C72.1381 202.328 71.6831 202.994 71.3376 203.692C71.1438 204.096 70.9248 204.61 71.0343 205.065C71.186 206.151 72.7785 206.529 73.6379 206.824C75.2641 207.38 76.8987 208.744 78.6765 208.659C80.3195 208.584 81.7098 207.514 83.218 207.001C83.9426 206.757 84.8779 206.656 85.6446 206.327C85.6615 206.311 85.6783 206.302 85.7036 206.294C85.7036 206.294 85.712 206.294 85.7205 206.294C86.7568 206.007 87.1276 204.416 87.4899 203.566C87.6668 203.145 87.7679 202.842 87.5236 202.438V202.472Z" fill="#3078A0"/>
<g style="mix-blend-mode:multiply" opacity="0.5">
<path d="M76.5275 196.512C76.3843 193.944 76.2832 191.376 76.0978 188.808C75.7439 183.808 74.4885 178.9 74.2863 173.89C74.2863 173.857 74.2442 173.857 74.2357 173.89C74.1683 176.265 74.4632 178.622 74.8255 180.962C75.23 183.572 75.5923 186.165 75.7777 188.8C75.9546 191.368 76.0304 193.935 76.1989 196.503C76.2748 197.707 76.3843 198.911 76.4517 200.115C76.5275 201.327 76.536 202.565 76.755 203.76C76.7719 203.861 76.9236 203.836 76.9236 203.735C76.8983 201.327 76.6539 198.894 76.5191 196.495L76.5275 196.512Z" fill="#2D2849"/>
<path d="M83.7571 203.961C82.3669 204.458 81.0356 205.072 79.5779 205.367C77.918 205.704 76.5025 205.182 74.9437 204.668C74.9185 204.66 74.8932 204.702 74.9269 204.719C76.3593 205.35 77.5894 205.931 79.1988 205.712C80.7912 205.493 82.3584 204.761 83.7992 204.062C83.8582 204.037 83.8161 203.936 83.7571 203.961Z" fill="#2D2849"/>
<path d="M55.059 202.37C55.118 202.345 55.1011 202.261 55.0337 202.278C52.7672 202.842 48.529 202.673 48.2004 202.446C48.1835 202.429 48.1583 202.463 48.1835 202.48" fill="#2D2849"/>
<path d="M87.5236 202.472C87.0096 201.63 86.5883 200.931 86.4535 199.929C86.3187 198.91 86.3608 197.858 86.3103 196.831C86.1081 192.352 86.0743 187.874 85.9732 183.386C85.8806 179.101 85.9227 174.74 85.3919 170.481C85.1644 168.637 84.7431 166.852 84.0606 165.118C83.4118 163.468 82.6788 161.834 82.3838 160.075C82.3417 159.839 82.308 159.595 82.2827 159.359C82.2827 159.317 82.249 159.292 82.2153 159.292C82.3754 158.829 82.6872 158.366 82.7462 157.869C82.8051 157.381 82.5776 156.994 82.2996 156.606C81.8109 155.95 81.4739 155.352 81.2969 154.535C80.9852 153.079 81.2379 151.522 81.3306 150.057C81.4486 148.23 81.3643 146.378 81.3643 144.542C81.3643 140.956 81.4065 137.37 81.3643 133.783C81.3222 130.551 81.0779 127.335 79.9909 124.27C80.1089 124.312 80.2437 124.194 80.1679 124.068C79.7129 123.327 78.1457 123.63 77.4548 123.689C75.8033 123.824 74.1519 123.849 72.492 123.9C68.3044 124.018 64.0999 124.237 59.9123 124.22C56.0701 124.203 52.2364 124.127 48.4026 124.338C47.1893 124.405 45.9592 124.481 44.7543 124.708C44.4931 124.758 43.9285 124.86 43.6168 125.104C43.5241 125.028 43.3472 125.062 43.3472 125.222C43.3472 126.004 43.3472 126.779 43.3135 127.562C43.2798 128.496 42.9933 129.229 42.631 130.088C42.2855 130.896 42.4793 131.51 42.8416 132.083C42.8079 132.1 42.7826 132.142 42.7995 132.192C43.8359 136.132 42.968 140.097 42.8837 144.088C42.7995 148.508 43.2629 152.911 43.4399 157.322C43.8022 166.17 44.9649 174.942 45.5884 183.774C45.9592 189.027 45.8918 194.28 45.9844 199.533C45.7148 199.921 45.462 200.333 45.2177 200.737C45.007 201.091 44.6953 201.604 44.7374 202.025C44.7374 202.093 44.788 202.126 44.8385 202.135C44.9649 202.909 45.9929 203.524 46.5658 203.903C47.9224 204.82 49.498 205.578 51.082 205.999C51.7477 206.294 52.4976 205.991 53.1295 205.738C54.2501 205.292 55.3708 204.938 56.5335 204.585C57.0896 204.416 57.6457 204.231 58.2187 204.096C58.7748 203.962 59.3309 203.886 59.8617 203.675C60.6369 203.364 60.5948 202.648 60.9065 202.009C60.9486 202 60.9908 201.975 60.9992 201.924C61.0076 201.882 60.9992 201.84 61.0076 201.798C61.0329 201.293 60.5526 200.788 60.283 200.417C59.8027 199.761 59.4404 199.02 59.095 198.279C59.1287 196.351 59.1792 194.423 59.3899 192.495C59.7101 189.54 60.283 186.611 60.5863 183.656C60.7211 182.275 60.7801 180.886 60.738 179.497C60.6874 178.024 60.4262 176.559 60.283 175.094C60.1398 173.629 60.0808 172.156 60.0134 170.683C59.9544 169.327 59.9965 167.963 59.887 166.616C60.0808 166.221 60.2662 165.817 60.3925 165.387C60.679 164.411 59.9291 163.628 59.4826 162.836C59.7269 161.422 59.828 159.966 59.9375 158.551C60.1229 156.228 60.2746 153.912 60.4431 151.589C60.6116 149.392 60.7886 147.194 60.9318 144.989C61.0076 143.827 61.1003 142.69 61.252 141.537C61.3615 140.754 61.4458 139.912 61.2857 139.129C61.6648 139.424 62.044 139.719 62.4063 140.022C62.9287 141.613 63.0298 143.229 63.232 144.879C63.4342 146.605 63.9482 148.306 64.3274 149.998C65.1531 153.694 65.8777 157.398 66.4844 161.136C66.7877 162.996 67.1416 164.832 67.6977 166.633C68.2454 168.409 68.8605 170.169 69.2396 171.996C69.9979 175.591 69.5345 179.345 70.7563 182.848C70.7563 182.864 70.7731 182.873 70.7815 182.89C71.0343 184.312 71.127 185.777 71.2113 187.217C71.3292 189.145 71.4977 191.064 71.7084 192.992C71.9274 195.004 72.1381 197.016 72.2055 199.037C72.2308 199.845 72.2308 200.678 72.2561 201.503C72.2392 201.512 72.2308 201.529 72.2308 201.546C72.1381 202.328 71.6831 202.994 71.3376 203.692C71.1438 204.096 70.9248 204.61 71.0343 205.065C71.186 206.151 72.7785 206.529 73.6379 206.824C75.2641 207.38 76.8987 208.744 78.6765 208.659C80.3195 208.584 81.7098 207.514 83.218 207.001C83.9426 206.757 84.8779 206.656 85.6446 206.327C85.6615 206.311 85.6783 206.302 85.7036 206.294C85.7036 206.294 85.712 206.294 85.7205 206.294C86.7568 206.007 87.1276 204.416 87.4899 203.566C87.6668 203.145 87.7679 202.842 87.5236 202.438V202.472ZM87.2961 203.221C87.0433 203.987 86.5799 204.644 86.3945 205.435C85.434 206.243 84.3302 206.361 83.1422 206.748C81.8025 207.194 80.6397 208.036 79.2495 208.348C77.539 208.727 75.7696 207.397 74.2782 206.757C73.2082 206.302 72.1044 206.117 71.3292 205.233C71.3966 204.947 71.3966 204.66 71.4725 204.374C71.582 203.97 71.8179 203.591 72.0033 203.221C72.1297 202.968 72.2392 202.707 72.3066 202.446C72.3656 203.212 72.4751 203.979 72.6858 204.719C72.7195 204.82 72.8543 204.778 72.8459 204.677C72.5762 202.699 72.5425 200.788 72.5088 198.801C72.4751 196.781 72.2561 194.76 72.0454 192.756C71.8348 190.837 71.6831 188.926 71.5567 186.998C71.464 185.601 71.3124 184.22 70.9753 182.873C70.9753 182.856 70.9753 182.831 70.9753 182.814C70.0232 179.329 70.2002 175.717 69.5514 172.198C69.2143 170.371 68.5908 168.603 68.0347 166.827C67.4534 164.941 67.0826 163.022 66.7709 161.077C66.1726 157.339 65.4312 153.635 64.6139 149.939C64.2094 148.12 63.687 146.31 63.4764 144.45C63.3163 143.078 63.2994 141.562 62.6928 140.283C62.8866 140.451 63.0804 140.619 63.2742 140.796C63.3247 140.838 63.3837 140.771 63.35 140.72C62.3473 139.474 61.0835 138.582 59.8027 137.648C59.1287 137.151 58.4715 136.637 57.8732 136.048C57.3593 135.543 56.8537 134.928 56.2218 134.575C56.1881 134.558 56.1544 134.6 56.1796 134.625C57.1907 135.644 58.126 136.73 59.2719 137.605C59.8786 138.068 60.4852 138.515 61.0835 138.978C61.2014 140.897 60.7549 142.808 60.6032 144.719C60.4347 146.917 60.2746 149.114 60.0976 151.311C59.7522 155.748 59.6089 160.218 58.918 164.613C58.9012 164.697 59.0191 164.731 59.0444 164.646C59.1961 164.166 59.314 163.67 59.4067 163.165C59.7943 163.981 60.3167 164.621 59.9713 165.631C59.6342 166.599 59.0697 167.483 58.7916 168.477C58.7748 168.536 58.8759 168.586 58.9012 168.519C59.1287 167.989 59.4236 167.475 59.6932 166.961C59.5078 169.554 59.7101 172.248 59.9291 174.816C60.0555 176.289 60.2999 177.746 60.3673 179.219C60.4347 180.692 60.3504 182.174 60.2072 183.639C59.6342 189.482 58.1934 195.282 58.8085 201.2C58.8253 201.343 59.0276 201.352 59.036 201.2C59.0613 200.392 59.0697 199.584 59.0865 198.784C59.2635 199.256 59.4741 199.719 59.7353 200.165C60.0639 200.737 60.4431 201.226 60.7296 201.815C60.5948 202.034 60.5274 202.253 60.4599 202.514C60.3083 203.111 59.9965 203.347 59.4151 203.532C58.463 203.844 57.4435 204.021 56.4745 204.307C55.5646 204.585 54.6209 204.812 53.7446 205.182C52.9273 205.528 52.0426 205.999 51.1326 205.822C50.5512 205.485 49.8687 205.283 49.2621 205.014C48.6049 204.719 47.9729 204.374 47.3578 203.995C46.549 203.499 45.462 202.876 45.0239 201.975C45.2598 201.604 45.3946 201.133 45.5969 200.737C45.7317 200.468 45.8749 200.207 46.0013 199.929C46.0097 200.527 46.0266 201.125 46.0434 201.714C46.0434 201.865 46.2709 201.865 46.2709 201.714C46.5237 192.883 46.0687 184.068 45.1924 175.279C44.7543 170.885 44.2909 166.49 44.0044 162.079C43.8611 159.865 43.8106 157.65 43.6926 155.436C43.5747 153.231 43.4146 151.033 43.305 148.828C43.1618 145.881 43.2292 142.968 43.4651 140.03C43.6673 137.538 43.878 134.861 43.1028 132.436C43.3303 132.756 43.5915 133.076 43.819 133.43C43.8443 133.472 43.9033 133.43 43.8864 133.396C43.6421 132.849 43.2629 132.386 42.9849 131.855C42.5383 130.988 42.8585 130.399 43.2039 129.566C43.76 128.227 43.6842 126.804 43.6758 125.373C43.9033 125.154 44.5689 125.087 44.7711 125.053C45.6306 124.885 46.5153 124.809 47.3831 124.75C49.6665 124.582 51.9583 124.556 54.2417 124.548C56.0027 124.548 57.7553 124.556 59.5163 124.582C63.1225 124.624 66.7456 124.455 70.3518 124.346C72.3403 124.287 74.3541 124.304 76.3426 124.169C76.9745 124.127 77.598 124.051 78.2299 124.026C78.6428 124.009 79.418 123.908 79.8308 124.152C80.8419 127.394 81.002 130.87 81.0357 134.238C81.0694 137.841 81.0357 141.453 81.0357 145.056C81.0357 146.782 81.0947 148.516 80.9852 150.242C80.8925 151.698 80.7071 153.155 80.9683 154.603C81.0779 155.192 81.3138 155.748 81.634 156.253C82.0047 156.842 82.5945 157.272 82.367 158.038C82.1901 158.661 81.912 159.216 81.8109 159.865C81.7098 160.521 81.7772 161.211 81.8952 161.868C81.9036 161.936 82.0131 161.91 81.9963 161.843C81.8783 161.06 81.9204 160.302 82.1311 159.553C82.0805 161.144 82.7967 162.752 83.3697 164.192C84.069 165.943 84.642 167.652 84.9453 169.521C85.2907 171.634 85.375 173.781 85.4256 175.919C85.4761 178.133 85.5519 180.347 85.5941 182.57C85.6699 187.049 85.7036 191.536 85.8806 196.014C85.948 197.791 85.7373 199.862 86.5209 201.512C86.7737 202.042 87.4983 202.598 87.2961 203.221Z" fill="#0A4E66"/>
<path d="M49.9694 189.701C49.8262 186.148 49.7251 182.596 49.5397 179.051C49.1858 172.14 47.9304 165.354 47.7282 158.434C47.7282 158.392 47.6861 158.392 47.6776 158.434C47.6102 161.717 47.9051 164.975 48.2674 168.208C48.6719 171.811 49.0342 175.406 49.2195 179.051C49.3965 182.596 49.4723 186.157 49.6408 189.701C49.7167 191.368 49.8262 193.026 49.8936 194.693C49.9694 196.369 49.9779 198.086 50.1969 199.736C50.2138 199.871 50.3655 199.837 50.3655 199.702C50.3402 196.377 50.0958 193.018 49.961 189.693L49.9694 189.701Z" fill="#2D2849"/>
</g>
<path d="M87.5323 93.0283C86.4791 93.3482 85.4175 93.6597 84.3389 93.8702C83.9092 93.9964 83.4879 94.089 83.0498 94.1311C83.1678 94.8046 83.2942 95.4866 83.4121 96.1685C85.6112 95.6381 87.7851 94.9898 89.9927 94.4931C89.7989 93.6934 89.6135 93.003 89.4618 92.4727C88.8383 92.7 88.1895 92.8683 87.5323 93.0199V93.0283Z" fill="#E7BB93"/>
<path d="M93.0677 91.5552C93.0088 91.5047 91.3573 88.3814 90.5821 86.8829C89.7227 85.216 88.956 83.4985 88.2061 81.7727C87.4646 80.0721 86.7316 78.3631 85.948 76.671C85.5604 75.8291 84.2375 72.5711 84.2122 72.5205C83.4455 71.0136 81.2716 70.2896 79.8224 69.7003C78.7439 69.2625 77.6401 68.9005 76.5363 68.5385C75.5337 68.2102 74.531 67.8061 73.5115 67.5367C73.2419 66.9137 72.7363 66.2907 72.1212 66.5096C72.096 66.5012 72.0707 66.4843 72.0454 66.4759C70.8658 67.3599 70.0148 68.6648 69.1048 69.8013C67.9757 71.2241 66.9225 72.7058 65.9114 74.2127C64.8919 75.7281 63.9061 77.2603 63.0467 78.8598C62.558 79.7775 61.9429 80.6109 61.5553 81.5538C61.5553 81.1497 61.4121 80.7372 61.3194 80.3415C61.1509 79.6007 61.0498 78.8346 60.9402 78.0769C60.6959 76.3847 60.5948 74.6757 60.5779 72.9667C60.5779 72.2006 60.5442 71.443 60.5779 70.6768C60.5948 70.2643 60.5779 69.6582 60.6959 69.1278C60.7801 69.111 60.8728 69.0941 60.9318 69.0605C61.1424 68.9594 61.252 68.9426 61.4121 68.7405L61.3278 67.343C61.0919 67.2673 60.8475 67.2757 60.5863 67.4188C60.2324 67.6124 59.9713 67.9071 59.7606 68.227C58.8506 68.1091 57.8985 68.2944 56.9885 68.328C55.969 68.3617 54.9495 68.4375 53.9384 68.5806C53.0116 68.7069 52.0257 68.8921 51.2337 69.4225C50.7871 69.7171 50.4333 70.1044 50.0457 70.458C49.7929 70.6432 49.5401 70.8368 49.2958 71.0473C49.2621 71.0641 49.2284 71.0894 49.1947 71.1146C49.1778 71.123 49.1778 71.1399 49.1778 71.1567C48.5375 71.7039 47.9308 72.2932 47.3326 72.8405C46.1277 73.9433 44.9649 75.0883 43.8106 76.2416C41.6283 78.4305 39.4882 80.6193 37.1458 82.6314C37.1121 82.6314 37.0784 82.6483 37.0363 82.6567C36.9857 82.6735 36.9773 82.7577 37.0363 82.7745C37.921 82.9934 38.5613 83.9447 39.1511 84.593C40.0611 85.5864 40.8026 86.6976 41.3671 87.9099C41.8895 89.038 42.2687 90.2335 42.6226 91.4205C42.8079 92.052 42.9764 92.6834 43.1028 93.3232C43.2292 93.963 43.2798 94.6533 43.5157 95.2679C43.541 95.3268 43.6168 95.3437 43.6589 95.3016C43.9454 95.3942 44.392 94.8975 44.5436 94.7459C45.2177 94.0724 45.917 93.3989 46.549 92.6834C46.2541 94.9143 46.035 97.1621 45.8665 99.3931C45.6558 102.23 45.5463 105.076 45.5463 107.913C45.5379 107.913 45.5294 107.93 45.521 107.955C45.2935 109.622 45.243 111.306 44.9902 112.972C44.7374 114.665 44.3751 116.34 44.0044 118.007C43.6421 119.648 43.2545 121.29 42.9006 122.932C42.5888 124.413 42.0159 125.988 42.0159 127.52C41.9569 127.545 41.9401 127.638 41.999 127.672C41.999 127.672 42.0075 127.672 42.0159 127.68C42.0327 127.747 42.1086 127.773 42.1676 127.756C44.5605 129.019 47.3494 129.625 49.9951 130.088C52.9526 130.61 55.9606 130.871 58.9517 131.098C62.1367 131.342 65.3385 131.468 68.5403 131.443C71.464 131.418 74.6827 131.452 77.4632 130.433C77.5559 130.534 77.7834 130.492 77.8002 130.307C77.9182 128.934 77.9098 127.554 78.0446 126.173C78.112 125.499 78.1373 124.818 78.1794 124.144C78.1878 123.976 78.2131 123.799 78.2384 123.631C78.3142 124.506 78.4659 125.373 78.5922 126.24C78.6934 126.905 78.786 127.562 78.8534 128.236C78.9124 128.766 78.8956 129.313 79.0557 129.827C79.0809 129.911 79.1652 129.928 79.2242 129.894C79.7129 129.953 80.1847 129.717 80.6397 129.54C81.3728 129.246 82.1732 129.17 82.9062 128.901C82.9315 128.892 82.9484 128.875 82.9652 128.859C83.0326 128.901 83.1422 128.867 83.1253 128.774C82.8641 126.493 82.4428 124.195 82.0131 121.938C81.8025 120.836 81.5497 119.724 81.179 118.663C80.8251 117.653 80.4206 116.668 80.3111 115.599C80.5892 115.027 80.8504 114.42 80.8251 113.797C80.7914 113.057 80.1426 112.248 79.6033 111.735C79.7803 110.531 79.9151 109.319 80.0078 108.098C80.1594 105.926 80.1594 103.737 80.1594 101.557C80.1594 99.7382 80.21 97.9198 80.1763 96.1098C80.21 96.236 80.2353 96.3707 80.269 96.497C80.2858 96.5812 80.3785 96.5896 80.4291 96.5391C80.4543 96.5391 80.4712 96.5223 80.488 96.497C80.9262 95.8067 81.9036 95.4952 82.6282 95.2342C83.4034 94.9564 84.1954 94.7459 84.9706 94.4597C87.6415 93.4916 90.3546 92.6918 93.034 91.7573C93.1183 91.7236 93.1689 91.6058 93.093 91.5384L93.0677 91.5552Z" fill="#3078A0"/>
<path d="M43.0779 93.3247C43.2043 93.9645 43.2549 94.6548 43.4908 95.2694C43.5161 95.3283 43.5919 95.3452 43.634 95.3031C43.9205 95.3957 44.3671 94.899 44.5187 94.7474C45.1928 94.074 45.8921 93.4005 46.5241 92.6849C46.2292 94.9158 46.0101 97.1636 45.8416 99.3946C45.6899 101.39 45.5972 103.393 45.5551 105.397C45.6731 105.734 45.7657 106.079 45.85 106.433C45.85 105.363 45.8837 104.294 45.9343 103.225C45.8163 103.259 45.6815 103.2 45.6899 103.048C45.9006 99.2262 46.364 95.4209 46.8779 91.6325C47.1223 89.8057 47.274 87.9199 47.7458 86.1267C48.125 84.6871 48.6221 83.2896 49.0181 81.85C48.917 81.3785 48.8243 80.9071 48.7485 80.4356C48.5378 79.1644 48.5631 77.9269 48.5631 76.6641C48.2261 78.693 48.5715 80.8061 47.9733 82.8097C47.4003 84.7292 47.2992 86.6992 46.0606 88.3492C45.4371 89.1827 44.7631 90.1256 43.9795 90.8075C43.6593 91.0853 43.179 90.9674 42.901 90.698C42.4965 90.3108 42.2101 89.8393 41.9404 89.3595C42.1848 90.0414 42.4038 90.7317 42.6061 91.4221C42.7914 92.0535 42.96 92.6849 43.0863 93.3247H43.0779Z" fill="#155C7C"/>
<path opacity="0.4" d="M75.2979 72.9434C75.4074 74.0462 75.5506 75.1491 75.7107 76.2435C75.6686 75.1238 75.6012 74.0041 75.2979 72.9434Z" fill="#05524A"/>
<path d="M79.6794 85.8389C79.0812 83.6753 78.188 81.4612 78.0364 79.205C77.9521 78.0011 77.9858 76.7972 78.1459 75.6018C78.2386 74.9199 78.3313 74.2379 78.3734 73.5645C77.9858 74.9283 77.5392 76.2669 76.9494 77.5549C76.882 77.7065 76.6293 77.6644 76.5955 77.5128C76.3933 76.5278 76.2585 75.5008 75.9805 74.5242C76.0816 75.4671 76.09 76.4268 76.1406 77.3697C76.2669 79.9458 77.1769 82.3452 77.8089 84.8287C78.4998 87.5395 79.0896 90.2672 79.6962 92.9948C79.9574 94.165 80.2271 95.3521 80.4209 96.5391C80.4377 96.5391 80.4546 96.5223 80.4714 96.497C80.9096 95.8067 81.8869 95.4952 82.6116 95.2342C82.9233 95.1248 83.2435 95.0237 83.5553 94.9227C82.0976 91.9593 80.5725 89.0465 79.6794 85.8305V85.8389Z" fill="#155C7C"/>
<g style="mix-blend-mode:multiply" opacity="0.5">
<path d="M93.0679 91.5552C93.0089 91.5047 91.3575 88.3814 90.5823 86.8829C89.7228 85.216 88.9561 83.4985 88.2062 81.7727C87.4647 80.0721 86.7317 78.3631 85.9481 76.671C85.5605 75.8291 84.2377 72.5711 84.2124 72.5205C83.4456 71.0136 81.2718 70.2896 79.8225 69.7003C78.744 69.2625 77.6403 68.9005 76.5365 68.5385C75.5338 68.2102 74.5311 67.8061 73.5116 67.5367C73.242 66.9137 72.7365 66.2907 72.1214 66.5096C72.0961 66.5012 72.0708 66.4843 72.0455 66.4759C70.8659 67.3599 70.0149 68.6648 69.1049 69.8013C67.9759 71.2241 66.9227 72.7058 65.9116 74.2127C64.892 75.7281 63.9062 77.2603 63.0468 78.8598C62.5581 79.7775 61.943 80.6109 61.5554 81.5538C61.5554 81.1497 61.4122 80.7372 61.3195 80.3415C61.151 79.6007 61.0499 78.8346 60.9404 78.0769C60.696 76.3847 60.5949 74.6757 60.578 72.9667C60.578 72.2006 60.5443 71.443 60.578 70.6768C60.6033 70.0707 60.5528 69.0184 60.9572 68.429C60.9656 68.4375 60.9825 68.4543 60.9993 68.4627C61.0836 68.488 61.2437 68.7826 61.2353 68.7069C61.2268 68.6479 61.21 68.5974 61.1847 68.5385C61.1678 68.5048 61.1257 68.4375 61.1257 68.387C61.1257 68.3364 61.1257 68.3112 61.0836 68.2775C61.1341 68.227 61.1931 68.1765 61.2521 68.1428C61.3111 68.1091 61.269 68.0081 61.2016 68.0334C60.6033 68.1933 60.4264 69.0773 60.3253 69.5824C60.1399 70.5001 60.1568 71.4514 60.1652 72.3858C60.182 73.9601 60.241 75.526 60.418 77.0919C60.5022 77.8833 60.6117 78.6746 60.755 79.4576C60.9067 80.291 61.092 81.2171 61.3701 82.0084C61.2858 82.2778 61.2184 82.5556 61.1847 82.8503C61.1763 82.9345 61.3195 82.9513 61.3364 82.8671C61.6565 81.3097 62.6592 80.1226 63.4091 78.7672C64.218 77.3192 65.1532 75.9554 66.0717 74.5831C67.0322 73.1604 68.0349 71.7629 69.0712 70.399C70.0402 69.1278 70.9923 67.6293 72.2815 66.6611C72.5764 66.7621 72.8039 67.0231 72.9977 67.242C73.0651 67.3178 73.124 67.3936 73.183 67.4777C73.1662 67.503 73.1662 67.5367 73.1999 67.5535C73.2167 67.5619 73.242 67.5703 73.2589 67.5788C73.4021 67.7977 73.5369 68.025 73.6296 68.2607C73.6464 68.3028 73.7307 68.3028 73.7223 68.2438C73.7054 68.1007 73.6549 67.9239 73.5959 67.7387C75.2389 68.5217 77.1094 68.9342 78.8199 69.5572C80.6146 70.2054 82.5946 70.9547 83.8585 72.4364C84.204 73.1183 84.4483 73.8254 84.6842 74.5495C84.9454 75.324 85.3077 76.0648 85.6616 76.8057C86.4284 78.4052 87.1446 80.0216 87.8523 81.6464C88.5685 83.2881 89.3016 84.9297 90.0936 86.5377C90.5064 87.3796 90.953 88.213 91.3743 89.0549C91.7872 89.8883 92.1074 90.806 92.6297 91.5805C89.8998 92.3803 87.1951 93.3232 84.5157 94.2913C83.6984 94.586 82.8558 94.8133 82.047 95.1332C81.4908 95.3605 80.8252 95.6383 80.4376 96.1434C80.4545 95.0827 80.0416 93.9798 79.7973 92.978C79.4939 91.7152 79.199 90.4524 78.9294 89.1812C78.3817 86.6556 77.9183 84.1131 77.5055 81.5538C77.5055 81.5201 77.438 81.5286 77.438 81.5622C77.6487 84.071 78.0616 86.5461 78.5671 89.0128C78.8283 90.284 79.1232 91.5468 79.4265 92.8096C79.6287 93.6599 79.7973 94.5102 79.9742 95.3605C79.6793 99.4183 79.9068 103.501 79.6709 107.559C79.5445 109.698 79.2496 111.819 78.8452 113.924C78.4491 116.003 77.8425 118.007 77.3032 120.044C77.278 120.145 77.4128 120.17 77.4549 120.086C78.2385 118.243 78.7019 116.214 79.1148 114.261C79.2749 113.503 79.4097 112.737 79.5276 111.971C79.9237 112.61 80.4545 113.141 80.4882 113.957C80.5219 114.791 79.831 115.532 79.7383 116.357C79.7299 116.433 79.8562 116.475 79.89 116.399C79.9489 116.256 80.0163 116.121 80.0837 115.978C80.1174 116.778 80.4123 117.552 80.6904 118.31C81.0696 119.354 81.3476 120.415 81.5751 121.509C81.8195 122.696 82.0048 123.892 82.1986 125.087C82.3924 126.257 82.4682 127.512 82.839 128.648C81.6341 128.572 80.4292 129.322 79.2664 129.599C79.3001 128.539 79.0895 127.444 78.921 126.4C78.7272 125.213 78.5165 124.026 78.2722 122.848C78.2722 122.679 78.2469 122.511 78.2048 122.342C78.1879 122.292 78.1037 122.3 78.1037 122.359C78.1374 122.965 77.9857 123.538 77.9183 124.136C77.8509 124.818 77.7751 125.491 77.6908 126.165C77.5223 127.486 77.4886 128.808 77.3959 130.138C74.4722 130.913 71.5231 131.073 68.4983 131.106C65.3892 131.14 62.2801 131.005 59.1794 130.778C56.2051 130.559 53.2223 130.307 50.2733 129.835C47.4844 129.381 44.8639 128.589 42.2351 127.587C42.6564 126.021 42.9597 124.38 43.2799 122.789C43.6169 121.139 43.9961 119.497 44.3584 117.847C44.7291 116.172 45.0577 114.496 45.3105 112.804C45.3863 112.291 45.4622 111.769 45.5296 111.238C45.6307 114.841 45.9424 118.596 46.9704 122.056C47.0041 122.183 47.181 122.124 47.1642 122.006C46.4733 118.344 45.9593 114.724 45.8498 111.002C45.7402 107.214 45.8329 103.426 46.1025 99.6456C46.6418 92.1025 47.9899 84.5677 49.8689 77.2519C49.8689 77.235 49.852 77.235 49.8436 77.2519C49.4307 78.5231 49.06 79.8111 48.7145 81.1076C48.7145 80.5941 48.6808 80.0721 48.664 79.567C48.6303 78.5231 48.605 77.4876 48.6303 76.4437C48.6303 76.4184 48.5966 76.4184 48.5881 76.4437C48.4196 77.395 48.3691 78.3463 48.3606 79.3144C48.3522 80.2068 48.3185 81.1666 48.4786 82.0505C47.6192 85.4685 46.9788 88.9539 46.5154 92.456C45.8919 92.9107 45.3189 93.4747 44.7881 94.0303C44.6365 94.1903 43.9203 95.1164 43.6085 95.1079C43.5158 93.7778 43.1114 92.3971 42.7322 91.1259C42.3446 89.8378 41.9233 88.5582 41.3335 87.3459C40.7353 86.1168 39.8927 85.0223 38.9575 84.0289C38.5952 83.6501 37.9295 82.6988 37.2807 82.6146C39.581 80.8972 41.5442 78.8009 43.5664 76.772C44.7207 75.6186 45.8919 74.4737 47.0799 73.354C48.0489 72.4448 49.1274 71.6197 50.0795 70.6853C50.3744 70.4748 50.644 70.2307 50.9221 70.0033C51.7394 69.3299 52.7252 69.0941 53.7447 68.9005C55.6827 68.5385 57.688 68.6984 59.6175 68.3785C59.508 68.5553 59.4069 68.7405 59.3058 68.9258C59.2805 68.9678 59.3395 69.0099 59.3732 68.9763C59.7018 68.6479 59.9798 68.2691 60.3084 67.9408C60.637 67.604 60.9825 67.5535 61.3279 67.6293C61.3111 67.5367 61.3027 67.4356 61.2858 67.343C61.0499 67.2757 60.8055 67.2757 60.5443 67.4188C60.1905 67.6124 59.9293 67.9071 59.7186 68.227C58.8086 68.1091 57.8565 68.2944 56.9465 68.328C55.927 68.3617 54.9075 68.4375 53.8964 68.5806C52.9696 68.7069 51.9837 68.8921 51.1917 69.4225C50.7451 69.7171 50.3913 70.1044 50.0037 70.458C49.7509 70.6432 49.4981 70.8368 49.2538 71.0473C49.2201 71.0641 49.1864 71.0894 49.1527 71.1146C49.1358 71.123 49.1358 71.1399 49.1358 71.1567C48.4955 71.7039 47.8888 72.2932 47.2906 72.8405C46.0857 73.9433 44.9229 75.0883 43.7686 76.2416C41.5863 78.4305 39.4462 80.6193 37.1038 82.6314C37.0701 82.6314 37.0364 82.6483 36.9943 82.6567C36.9437 82.6735 36.9353 82.7577 36.9943 82.7745C37.879 82.9934 38.5193 83.9447 39.1091 84.593C40.0191 85.5864 40.7606 86.6976 41.3251 87.9099C41.8475 89.038 42.2267 90.2335 42.5806 91.4205C42.7659 92.052 42.9344 92.6834 43.0608 93.3232C43.1872 93.963 43.2378 94.6533 43.4737 95.2679C43.499 95.3268 43.5748 95.3437 43.6169 95.3016C43.9034 95.3942 44.35 94.8975 44.5016 94.7459C45.1757 94.0724 45.875 93.3989 46.507 92.6834C46.2121 94.9143 45.993 97.1621 45.8245 99.3931C45.6138 102.23 45.5043 105.076 45.5043 107.913C45.4959 107.913 45.4875 107.93 45.479 107.955C45.2515 109.622 45.201 111.306 44.9482 112.972C44.6954 114.665 44.3331 116.34 43.9624 118.007C43.6001 119.648 43.2125 121.29 42.8586 122.932C42.5469 124.413 41.9739 125.988 41.9739 127.52C41.9149 127.545 41.8981 127.638 41.9571 127.672C41.9571 127.672 41.9655 127.672 41.9739 127.68C41.9908 127.747 42.0666 127.773 42.1256 127.756C44.5185 129.019 47.3074 129.625 49.9531 130.088C52.9106 130.61 55.9186 130.871 58.9097 131.098C62.0947 131.342 65.2965 131.468 68.4983 131.443C71.422 131.418 74.6407 131.452 77.4212 130.433C77.5139 130.534 77.7414 130.492 77.7582 130.307C77.8762 128.934 77.8678 127.554 78.0026 126.173C78.07 125.499 78.0953 124.818 78.1374 124.144C78.1458 123.976 78.1711 123.799 78.1964 123.631C78.2722 124.506 78.4239 125.373 78.5502 126.24C78.6514 126.905 78.744 127.562 78.8115 128.236C78.8704 128.766 78.8536 129.313 79.0137 129.827C79.0389 129.911 79.1232 129.928 79.1822 129.894C79.6709 129.953 80.1427 129.717 80.5977 129.54C81.3308 129.246 82.1312 129.17 82.8643 128.901C82.8895 128.892 82.9064 128.875 82.9232 128.859C82.9906 128.901 83.1002 128.867 83.0833 128.774C82.8221 126.493 82.4008 124.195 81.9711 121.938C81.7605 120.836 81.5077 119.724 81.137 118.663C80.7831 117.653 80.3786 116.668 80.2691 115.599C80.5472 115.027 80.8084 114.42 80.7831 113.797C80.7494 113.057 80.1006 112.248 79.5613 111.735C79.7383 110.531 79.8731 109.319 79.9658 108.098C80.1174 105.926 80.1174 103.737 80.1174 101.557C80.1174 99.7382 80.168 97.9198 80.1343 96.1098C80.168 96.236 80.1933 96.3707 80.227 96.497C80.2438 96.5812 80.3365 96.5896 80.3871 96.5391C80.4123 96.5391 80.4292 96.5223 80.446 96.497C80.8842 95.8067 81.8616 95.4952 82.5862 95.2342C83.3614 94.9564 84.1534 94.7459 84.9286 94.4597C87.5995 93.4916 90.3127 92.6918 92.9921 91.7573C93.0763 91.7236 93.1269 91.6058 93.051 91.5384L93.0679 91.5552Z" fill="#0A4E66"/>
<path d="M75.6603 73.7249C75.6519 73.6828 75.5845 73.6913 75.5845 73.7334C75.5845 75.998 76.0479 78.3216 76.4945 80.5273C76.5029 80.5778 76.5787 80.5609 76.5787 80.5188C76.486 78.2542 76.0732 75.9475 75.6603 73.7249Z" fill="#04776E"/>
<path d="M78.4997 72.6471C78.2133 75.1138 77.1685 77.471 77.1685 79.9798C77.1685 80.0387 77.2527 80.0472 77.2696 79.9966C77.5645 78.8349 77.7246 77.6394 78.0026 76.4692C78.3059 75.2064 78.5671 73.9604 78.584 72.6555C78.584 72.5966 78.4997 72.5966 78.4913 72.6555L78.4997 72.6471Z" fill="#04776E"/>
</g>
<path d="M56.4751 69.0023C55.5988 69.036 54.731 69.1118 53.8631 69.2465C53.0542 69.3728 52.3212 69.3812 51.5966 69.7853C50.2316 70.543 49.052 71.8479 47.9229 72.9002C45.075 75.5773 42.3366 78.3724 39.6488 81.2095C39.6151 81.2431 39.6657 81.2852 39.6994 81.26C42.404 78.8101 45.075 76.3182 47.7039 73.7926C48.8582 72.6813 50.0462 71.5279 51.327 70.5598C52.8099 69.4401 54.6888 69.3307 56.4667 69.137C56.5509 69.1286 56.5594 68.9939 56.4667 69.0023H56.4751Z" fill="#0A4E66"/>
<path d="M59.5672 70.4492C59.5841 70.3734 59.4661 70.3313 59.4408 70.4155C58.337 74.1366 59.1628 77.9334 60.3171 81.5282C60.3339 81.5787 60.4098 81.5619 60.4014 81.503C59.6009 77.9671 58.9268 74.0692 59.5588 70.4492H59.5672Z" fill="#0A4E66"/>
<path d="M71.3548 68.7411C70.192 69.7177 69.341 71.0142 68.4479 72.2265C67.3947 73.6492 66.3836 75.0636 65.4736 76.5789C63.6789 79.576 62.1285 82.7162 60.5698 85.8395C60.5529 85.8816 60.6035 85.9069 60.6288 85.8732C62.5583 83.0529 64.0496 79.9801 65.7853 77.042C66.6448 75.5771 67.6137 74.2049 68.5827 72.8158C69.5264 71.4604 70.31 70.046 71.4896 68.8674C71.5739 68.7832 71.4475 68.6654 71.3632 68.7411H71.3548Z" fill="#0A4E66"/>
<path d="M92.0571 91.7573C91.6864 90.5534 91.0292 89.4253 90.5068 88.2719C89.9085 86.967 89.2513 85.6958 88.6363 84.3993C87.4229 81.8316 86.277 79.1376 85.4513 76.4184C84.9121 74.642 84.0105 72.3942 82.3338 71.325C81.3985 70.7357 80.775 70.6852 79.7218 70.3821C78.3821 69.9949 77.1519 69.2709 75.7785 69.0352C75.7448 69.0352 75.7195 69.0773 75.7532 69.0857C76.8823 69.6581 78.0535 70.2474 79.2331 70.6852C80.3031 71.0809 80.775 71.2324 81.7861 71.7712C83.6735 72.7731 84.5413 75.3576 85.1648 77.176C86.0327 79.7101 87.0438 82.2189 88.2487 84.6098C88.8553 85.8136 89.5041 86.9923 90.1445 88.1793C90.7848 89.3663 91.2735 90.6207 91.897 91.8078C91.9392 91.892 92.0824 91.833 92.0571 91.7404V91.7573Z" fill="#0A4E66"/>
<path d="M87.7012 94.1396C86.6479 94.4595 85.5863 94.771 84.5078 94.9815C84.0781 95.1078 83.6568 95.2004 83.2186 95.2425C83.463 96.5726 83.6736 97.9112 83.9264 99.2414C83.9433 99.3003 83.9264 99.3424 83.9095 99.3845C84.0359 100.016 84.1286 100.647 84.1708 101.245C84.2719 102.895 64.7914 102.643 64.7914 102.643L63.9404 105.749C63.9404 105.749 86.1929 112.172 90.0182 106.086C91.8129 103.232 90.4058 96.2948 89.6222 93.584C88.9987 93.8113 88.3499 93.9797 87.6927 94.1312L87.7012 94.1396Z" fill="#F4D9BF"/>
<path d="M40.9464 87.5064L39.1517 84.9302C38.1911 85.89 35.0146 88.3987 34.0541 89.3585C34.0204 89.4006 33.9698 89.4174 33.9277 89.4258C33.4811 89.8888 31.6949 91.1769 31.223 91.5473C29.917 92.566 17.9608 76.3516 17.9608 76.3516L14.085 77.7659C14.085 77.7659 24.693 98.5601 31.8802 98.2486C35.2505 98.0971 40.5925 92.8943 42.3788 90.7139C41.334 88.0704 41.3003 88.1798 40.9464 87.4979V87.5064Z" fill="#F4D9BF"/>
<path d="M74.43 139.442L72.214 139.88C71.3714 140.048 70.5626 139.442 70.4867 138.583L67.959 106.777L71.1102 107.325L74.43 139.442Z" fill="#B7BABB"/>
<path d="M86.4531 137.817C83.1924 138.684 79.7968 139.13 77.8167 139.989C75.3395 141.075 73.5111 141.58 73.528 138.658C73.528 138.658 71.7417 112.24 70.1661 102.652L67.5457 102.668C67.5457 102.668 67.3434 99.402 70.4441 98.7706C75.1036 97.8192 78.4571 97.3899 81.4482 96.2534C84.4394 95.1253 86.984 95.4199 87.8265 100.429C87.8265 100.429 88.3068 105.219 88.7112 110.759C89.1157 116.298 91.2558 131.385 91.4665 133.094C91.6266 134.399 90.9862 134.895 89.8487 135.358C89.8487 135.358 90.6407 136.697 86.4531 137.817Z" fill="#DFDEDE"/>
<path d="M74.1861 138.322L74.4642 137.969L74.3378 137.699L74.1861 138.322ZM74.4136 136.15L74.4811 136.807L74.6159 136.31L74.4221 136.159L74.4136 136.15ZM74.0682 133.945L74.1356 134.593L74.2704 134.088L74.0766 133.936L74.0682 133.945ZM72.8464 120.197L72.9139 120.845L73.0487 120.348L72.8549 120.197H72.8464ZM73.1835 120.028L73.0655 119.523L72.8464 119.591L73.1835 120.028ZM72.7538 117.747L72.8633 118.387L72.956 117.865L72.7538 117.747ZM72.5684 117.074L72.8464 116.72L72.7201 116.451L72.5684 117.074ZM72.7875 114.767L72.897 115.407L72.9897 114.893L72.779 114.775L72.7875 114.767ZM72.4589 114.346L72.7453 113.815L72.3999 114.026L72.4589 114.346ZM72.1724 112.426L72.4336 112.048L72.2988 111.795L72.1808 112.426H72.1724ZM72.4504 111.214L72.7369 110.684L72.383 110.886L72.442 111.206L72.4504 111.214ZM71.9702 109.657L72.0797 110.296L72.1724 109.774L71.9702 109.657ZM71.7848 109.345L72.0713 108.815L71.7258 109.017L71.7848 109.337V109.345ZM71.6163 107.67L71.7258 108.31L71.8185 107.788L71.6163 107.67ZM72.2735 107.586L72.383 108.225L72.4757 107.703L72.2651 107.586H72.2735ZM71.4983 107.426L71.7595 107.047L71.6247 106.794L71.5067 107.426H71.4983ZM71.591 106.112L71.8775 105.582L71.532 105.784L71.591 106.104V106.112ZM71.3467 104.252L71.4562 104.892L71.5489 104.37L71.3467 104.252ZM70.9506 102.341L71.0181 102.871L71.2371 102.846L70.9422 102.341H70.9506ZM82.2328 96.0604C81.5924 96.3466 80.6571 96.8097 79.6376 97.4832C77.7165 98.7376 73.7396 98.6786 72.0376 99.2174C70.344 99.7562 71.7511 101.128 72.4926 105.447C73.2256 109.766 74.8855 124.583 75.0456 133.599C75.0961 136.596 74.7591 139.29 76.3853 139.29C76.7897 139.29 77.3205 139.122 78.0115 138.743C81.4576 136.874 85.2324 135.409 87.8612 134.803C90.4816 134.197 91.796 133.734 90.8861 130.695C90.667 129.963 89.3778 117.217 89.2262 115.718C89.3357 116.417 90.5238 128.523 90.6417 129.112C90.9872 130.931 91.3073 132.261 91.4085 133.103C91.4085 133.12 91.4085 133.145 91.4085 133.162C91.1051 134.744 88.7291 135.283 88.7291 135.283C84.6847 136.588 77.7334 139.77 75.7618 140.461C75.5595 140.528 75.3826 140.562 75.2225 140.562C73.8575 140.562 74.1272 138.053 74.085 136.765C74.0429 135.325 71.9028 110.768 71.2708 106.213C70.6642 101.794 70.4704 100.404 69.6109 100.404C69.5857 100.404 69.5604 100.404 69.5351 100.404C68.7684 100.472 68.9537 101.314 68.4061 101.625C68.3555 101.659 68.3049 101.667 68.2628 101.667C68.0016 101.667 67.9342 101.145 67.9258 100.792C67.9426 100.75 67.9679 100.699 67.9848 100.657C68.3639 99.8741 69.0717 99.0912 70.4282 98.8133C75.0877 97.862 78.4412 97.4242 81.4323 96.2961C81.6935 96.1951 81.9547 96.1109 82.2075 96.0352L82.2328 96.0604Z" fill="#E6EBEB"/>
<path d="M89.832 135.45V135.467C89.832 135.467 89.8657 135.56 89.8657 135.635C89.8657 135.728 89.8404 135.854 89.7646 136.006C89.6803 136.157 89.5455 136.334 89.3011 136.528C88.8209 136.915 87.9614 137.344 86.4448 137.748C84.6164 138.237 82.7543 138.59 81.1113 138.952C81.6168 138.776 82.1645 138.59 82.7459 138.397C87.2116 136.898 89.5118 135.627 89.832 135.45ZM69.6354 100.42C70.4948 100.42 70.6886 101.809 71.2952 106.229C71.9187 110.783 74.0589 135.341 74.1094 136.78C74.1516 138.068 73.8735 140.577 75.2469 140.577C75.3986 140.577 75.584 140.544 75.7862 140.476C77.7578 139.786 84.7007 136.604 88.7535 135.299C88.7535 135.299 91.138 134.76 91.4329 133.177C91.4413 133.287 91.4497 133.379 91.4497 133.48C91.4497 133.733 91.416 133.935 91.3402 134.12C91.2728 134.305 91.1632 134.457 91.0284 134.6C90.7588 134.878 90.3459 135.097 89.8404 135.307L89.7646 135.341C89.7646 135.341 89.7393 135.366 89.7224 135.374C89.6466 135.416 89.5455 135.475 89.3938 135.551C89.1074 135.703 88.6692 135.922 88.0794 136.191C86.9082 136.73 85.1304 137.471 82.7206 138.279C81.6 138.658 80.631 138.994 79.8053 139.289C79.047 139.483 78.3645 139.702 77.7999 139.946C76.6962 140.426 75.7188 140.796 74.9942 140.796C74.5476 140.796 74.1937 140.661 73.9578 140.341C73.7219 140.022 73.587 139.508 73.587 138.725C73.587 138.708 73.587 138.7 73.587 138.683C73.587 138.683 71.8261 112.821 70.3094 103.207H70.3263C70.2252 102.222 70.0229 101.683 69.8207 101.388C69.6185 101.093 69.4163 101.051 69.3236 101.051C69.3236 101.051 69.273 101.051 69.2646 101.051L69.2815 101.194C69.2815 101.194 69.2983 101.194 69.3152 101.194C69.391 101.194 69.5679 101.228 69.7449 101.489C69.8881 101.691 70.0314 102.036 70.1325 102.609L67.5879 102.626C67.5879 102.626 67.5879 102.592 67.5879 102.575C67.5879 102.297 67.6216 101.582 67.9418 100.849C67.9586 101.194 68.0176 101.725 68.2788 101.725C68.3209 101.725 68.3715 101.708 68.422 101.683C68.9697 101.371 68.7843 100.529 69.5511 100.462C69.5764 100.462 69.6017 100.462 69.6269 100.462L69.6354 100.42Z" fill="#DFDEDE"/>
<path d="M91.4502 132.975C91.4502 132.975 91.4586 133.051 91.467 133.093C91.4839 133.228 91.4923 133.346 91.4923 133.463C91.4923 134.499 90.8688 134.937 89.8577 135.358C89.8577 135.358 89.9167 135.459 89.9167 135.627C89.9167 136.073 89.4954 136.999 86.4621 137.808C84.4062 138.355 82.2913 138.734 80.5219 139.155C80.7157 139.087 80.9179 139.02 81.1286 138.944C82.7632 138.574 84.6337 138.228 86.4621 137.74C87.9787 137.336 88.8382 136.907 89.3185 136.519C89.5544 136.326 89.6976 136.149 89.7819 135.998C89.8661 135.846 89.883 135.72 89.883 135.627C89.883 135.551 89.8746 135.492 89.8577 135.459V135.442L89.8914 135.417L89.8577 135.282C89.8577 135.282 89.8408 135.29 89.7903 135.316L89.8661 135.274C90.3717 135.063 90.7761 134.853 91.0542 134.566C91.189 134.423 91.2985 134.263 91.3659 134.086C91.4333 133.901 91.4755 133.699 91.4755 133.447C91.4755 133.354 91.4754 133.253 91.4586 133.144C91.467 133.085 91.4755 133.017 91.4839 132.95L91.4502 132.975ZM70.1751 102.643C71.6917 112.257 73.5875 138.641 73.5875 138.649C73.5875 138.649 73.5875 138.683 73.5875 138.7C73.5875 139.483 73.7223 139.996 73.9582 140.316C74.1942 140.636 74.548 140.771 74.9946 140.771C75.7192 140.771 76.6966 140.4 77.8004 139.921C78.3649 139.676 79.0474 139.458 79.8057 139.264C79.4687 139.382 79.1569 139.491 78.8705 139.601C78.4829 139.719 78.129 139.853 77.8088 139.988C77.7751 140.005 77.7414 140.013 77.7161 140.03C76.941 140.325 76.545 140.485 76.5365 140.485C75.9467 140.704 75.4243 140.838 74.9778 140.838C74.0678 140.838 73.5201 140.283 73.5201 138.691V138.658C73.5201 138.658 71.8265 112.779 70.3099 103.173L70.1582 102.651L70.1751 102.643Z" fill="#B7BABB"/>
<path d="M82.5359 96.5306C83.092 96.278 83.6734 96.1518 84.3643 96.2191C85.8472 96.3538 87.069 97.6924 87.3217 99.9823C87.8778 105.084 88.3328 112.812 88.9479 116.054C89.563 119.286 91.147 132.765 89.3945 133.32C87.6419 133.876 84.1621 134.002 80.3873 135.972C76.6041 137.934 77.0086 116.736 76.2334 111.238C75.4582 105.741 70.6724 100.386 73.1917 99.5529C74.2112 99.2162 76.3682 99.3845 77.3793 99.0141C79.1234 98.3743 80.8086 97.3051 82.5275 96.5306H82.5359Z" fill="#E6EBEB"/>
<g style="mix-blend-mode:screen" opacity="0.5">
<path d="M83.8667 96.8085C85.3075 96.5475 86.6051 97.2042 87.0685 99.9739C87.3044 101.405 87.4982 103.139 87.4561 104.604C87.3803 107.475 85.712 104.099 82.2237 103.501C79.4853 103.03 75.3567 102.457 75.4157 100.858C75.4831 99.2668 77.8339 100.336 81.1621 98.0629C82.0046 97.482 82.9567 96.9684 83.8583 96.8085H83.8667Z" fill="#E6EBEB"/>
</g>
<g style="mix-blend-mode:screen" opacity="0.5">
<path d="M81.0525 108.427C81.0525 108.427 83.7656 111.332 86.049 112.645C88.3324 113.95 86.3524 115.996 83.1843 116.754C80.0162 117.511 81.676 113.546 80.1678 110.17C78.6596 106.803 80.0751 107.619 81.0525 108.427Z" fill="#E6EBEB"/>
</g>
<path d="M72.7455 113.822L72.4506 114.353L72.3916 114.033L72.7455 113.822Z" fill="white"/>
<path d="M72.7871 114.775L72.9893 114.893L72.8966 115.407L72.7871 114.775Z" fill="white"/>
<path d="M72.7451 117.746L72.9558 117.872L72.8631 118.386L72.7451 117.746Z" fill="white"/>
<path d="M72.7112 116.451L72.8376 116.721L72.5596 117.074L72.7112 116.451Z" fill="white"/>
<path d="M74.3372 137.699L74.4552 137.969L74.1855 138.322L74.3372 137.699Z" fill="white"/>
<path d="M73.0648 119.523L73.1827 120.029L72.8457 119.591L73.0648 119.523Z" fill="white"/>
<path d="M72.8457 120.195L73.0479 120.347L72.9131 120.844L72.8457 120.195Z" fill="white"/>
<path d="M74.0674 133.936L74.2612 134.087L74.1348 134.592L74.0674 133.936Z" fill="white"/>
<path d="M74.4131 136.141L74.6069 136.301L74.4805 136.797L74.4131 136.141Z" fill="white"/>
<path d="M72.7367 110.691L72.4418 111.222L72.3828 110.902L72.7367 110.691Z" fill="white"/>
<path d="M71.9697 109.672L72.1719 109.79L72.0793 110.303L71.9697 109.672Z" fill="white"/>
<path d="M72.2734 107.592L72.4841 107.71L72.383 108.232L72.2734 107.592Z" fill="white"/>
<path d="M72.2898 111.793L72.4247 112.054L72.1719 112.433L72.2898 111.793Z" fill="white"/>
<path d="M72.071 108.822L71.7846 109.353L71.7256 109.033L72.071 108.822Z" fill="white"/>
<path d="M71.6162 107.678L71.8184 107.796L71.7257 108.318L71.6162 107.678Z" fill="white"/>
<path d="M71.8855 105.59L71.599 106.12L71.54 105.8L71.8855 105.59Z" fill="white"/>
<path d="M71.3545 104.252L71.5567 104.378L71.464 104.892L71.3545 104.252Z" fill="white"/>
<path d="M70.959 102.34L71.2539 102.845L71.0348 102.87L70.959 102.34Z" fill="white"/>
<path d="M71.6244 106.801L71.7592 107.053L71.498 107.432L71.6244 106.801Z" fill="white"/>
<path d="M17.9183 79.5156C17.8509 79.524 17.7835 79.524 17.7161 79.5325L17.5645 79.6756C17.6908 79.6419 17.8088 79.583 17.9183 79.524V79.5156Z" fill="#FDD6BE"/>
<path d="M21.4574 74.9027C21.8619 72.9748 21.0951 70.5334 20.4716 68.6981C20.2273 67.9657 20.1261 67.1491 20.2357 66.3998C20.2947 65.9873 20.3958 65.6 20.5137 65.2128C20.657 64.7329 20.8255 63.2596 19.9155 63.7984C18.5421 64.615 17.8596 66.7113 18.2219 68.3698C18.2388 68.4119 18.2472 68.454 18.2556 68.4961C18.2809 68.5213 18.2893 68.5718 18.2809 68.6224C18.2809 68.6392 18.2809 68.656 18.2893 68.6729C18.3904 69.0433 18.5168 69.5147 18.3567 69.8347C18.1461 70.2387 17.8091 70.4997 17.472 70.7691C17.3035 70.9291 17.1266 71.0806 16.9496 71.2322C16.8738 71.3079 16.8064 71.3921 16.7474 71.4847C16.1239 72.3855 15.8458 73.421 15.6184 74.507C15.6015 74.4228 15.5931 74.3302 15.5846 74.2461C15.7279 73.4042 15.9217 72.5623 16.3345 71.8467C14.5567 73.8167 13.7815 76.9653 15.6436 79.2552C16.1745 79.4404 16.7306 79.5498 17.253 79.4993C17.413 79.5246 17.5731 79.533 17.7332 79.5246L19.9576 77.5294C20.2104 77.0916 21.4069 75.4078 21.4658 74.9027H21.4574Z" fill="#F4D9BF"/>
<g style="mix-blend-mode:multiply" opacity="0.4">
<path d="M16.7049 72.386C17.2273 71.5778 17.8845 70.9212 18.626 70.3487C18.6344 70.3403 18.6428 70.3319 18.6512 70.315C18.9461 69.9193 19.1484 69.49 18.9799 68.8502C18.8198 68.2272 18.6512 67.6126 18.5417 66.998C18.5164 67.1748 18.5164 67.3516 18.508 67.5368C18.7524 68.1682 18.9883 68.7912 18.7692 69.4226C18.4069 70.4581 17.4295 70.938 16.6965 71.6704C16.2415 72.125 15.8455 72.6386 15.5169 73.1942C15.5084 73.3121 15.5 73.4299 15.5 73.5562C15.5253 74.3981 15.6601 75.1474 15.9887 75.8629C15.955 74.6591 16.014 73.4468 16.7049 72.3944V72.386Z" fill="#F9A77E"/>
</g>
<g style="mix-blend-mode:multiply">
<path d="M17.5979 57.6627C17.5305 57.6206 17.4631 57.5869 17.3957 57.5449C17.0586 57.4102 16.5699 57.4186 16.2835 57.4017C15.3314 57.3428 14.354 57.4438 13.3934 57.6038C13.3176 57.3175 13.2586 57.0397 13.1912 56.7535C13.1407 56.3157 13.048 55.8864 12.9469 55.4654C12.8879 55.196 12.7952 54.5899 12.5087 54.4299C11.7841 54.0258 10.7646 54.2447 10.0063 54.4215C9.15525 54.6151 8.16101 55.0445 7.52908 55.6506C6.82131 56.3241 7.36899 56.9724 7.68074 57.6964C7.81555 58.0752 7.95879 58.4625 8.15259 58.8077C7.79028 58.9255 7.43639 59.0602 7.08251 59.2033C6.58539 59.4138 5.89447 59.6664 5.51531 60.1126C4.65588 60.8366 5.49004 62.8739 5.70911 63.6989C5.92818 64.5576 6.14725 65.3574 6.57696 66.1404C7.15834 67.2011 7.60491 68.1693 7.765 69.39C7.89139 70.3834 7.68074 71.4021 7.68917 72.4039C7.68917 73.4562 7.95879 74.4749 8.29582 75.4599C8.60758 76.3691 9.18896 77.211 9.71978 78.0107C10.1916 78.7263 10.6129 79.3072 11.4723 79.5093C11.4976 79.5093 11.5229 79.5093 11.5482 79.5093C12.0537 79.6187 12.6688 79.4588 13.1407 79.3662C14.1265 79.1725 15.1123 78.9452 16.0981 78.7432C17.1513 78.5327 18.2551 78.3475 19.2578 77.9518C19.342 77.9181 19.4179 77.876 19.5021 77.8339C19.5021 77.8339 19.5105 77.8339 19.519 77.8339C19.9655 77.5814 20.2436 77.1773 20.4627 76.7227C20.5385 76.4954 20.5975 76.2512 20.648 75.9987C20.6902 75.8556 20.7154 75.7124 20.7323 75.5693C20.8924 74.6769 21.0693 73.7425 21.0019 72.8417C20.9261 71.8062 20.766 70.7622 20.3531 69.7941C19.9655 68.8764 19.3673 68.0177 19.0893 67.058C18.7522 65.8794 18.7859 64.8102 18.9039 63.6063C18.9881 62.7224 18.8702 61.8973 18.7354 61.0218C18.6174 60.2304 18.5753 58.2268 17.6653 57.7301C17.6484 57.7048 17.6232 57.6796 17.5979 57.6627Z" fill="#EDC2DB"/>
</g>
<path d="M7.63052 56.9463C7.60524 56.8621 7.57154 56.7779 7.53784 56.6938C7.31877 56.1297 7.70635 55.7677 8.12764 55.4815C8.68374 55.111 9.39151 54.8585 10.0234 54.6817C10.5543 54.5301 12.1299 54.2187 12.4416 54.9342C12.5259 55.1195 12.5765 55.3215 12.627 55.5236C11.7255 55.3047 10.6217 55.4815 9.76225 55.7003C9.00392 55.894 8.11922 56.3149 7.63895 56.9379L7.63052 56.9463Z" fill="#C87EB5"/>
<path d="M11.0939 55.7598C10.6642 56.2144 10.1249 56.307 9.49301 56.3743C9.37505 56.3912 9.04645 56.3996 8.87793 56.3154C9.40033 56.0713 9.99856 55.9113 10.5294 55.8271C10.6642 55.8019 10.8664 55.7766 11.0939 55.7598Z" fill="#C87EB5"/>
<path d="M12.7535 56.3217C12.6777 55.7914 11.9531 55.7072 11.3211 55.7408C11.1358 56.2291 10.5712 56.4396 10.091 56.5238C9.75395 56.5827 8.97035 56.7427 8.71758 56.3891C8.54063 56.4817 8.37212 56.5827 8.22045 56.7006C7.74861 57.0626 7.79074 57.3825 8.00138 57.8708C8.06879 58.0223 8.1362 58.1823 8.18675 58.3422C8.27101 58.4769 8.29629 58.6116 8.27101 58.7547C9.44219 58.3675 10.6302 58.1065 11.852 57.8708C12.2564 57.795 12.6693 57.7108 13.0821 57.635C12.9473 57.2057 12.8041 56.7511 12.7451 56.3133L12.7535 56.3217Z" fill="#C87EB5"/>
<g style="mix-blend-mode:multiply">
<path d="M10.3606 55.5656C11.1021 55.4225 11.9278 55.3468 12.6356 55.5236C12.585 55.3215 12.5345 55.1279 12.4502 54.9342C12.1469 54.2187 10.5628 54.5301 10.032 54.6817C10.0151 54.6817 9.9983 54.6901 9.98145 54.6985C10.1752 54.9427 10.2932 55.2457 10.3606 55.5656Z" fill="#C87EB5"/>
</g>
<g style="mix-blend-mode:multiply">
<path d="M12.7537 56.3217C12.6778 55.7914 11.9532 55.7072 11.3213 55.7408C11.1696 56.1281 10.7905 56.3386 10.3945 56.4564C10.386 56.5575 10.3608 56.6501 10.3439 56.7427C10.1922 57.3236 9.92261 57.8287 9.43392 58.1907C9.24855 58.3338 9.04633 58.4601 8.85254 58.5779C9.83836 58.2917 10.841 58.0728 11.869 57.8708C12.2734 57.795 12.6863 57.7108 13.0991 57.635C12.9643 57.2057 12.8211 56.7511 12.7621 56.3133L12.7537 56.3217Z" fill="#C87EB5"/>
</g>
<path d="M18.0362 58.8412C18.1542 59.2874 18.1963 59.7588 18.2553 60.1461C18.3901 61.0132 18.5755 61.8887 18.5755 62.7727C18.5755 63.6146 18.3733 64.4396 18.4323 65.2899C18.4828 65.9802 18.5839 66.6874 18.8283 67.3441C19.1569 68.2112 19.6708 68.9773 20.0079 69.836C20.3449 70.7031 20.5471 71.5955 20.623 72.5216C20.6988 73.4813 20.564 74.4326 20.3955 75.3671C20.3449 75.6365 20.2944 75.9059 20.2354 76.1669C20.2354 76.1837 20.2354 76.2005 20.2354 76.2174C20.2185 76.2595 20.2017 76.31 20.1848 76.3521C20.168 76.411 20.1511 76.4784 20.1343 76.5373C20.1006 76.6888 20.0247 76.8067 19.9236 76.9161C19.7888 77.135 19.6034 77.3118 19.3507 77.3623C18.2553 77.7833 17.0504 78.019 15.9298 78.2884C15.1968 78.4652 14.4469 78.6167 13.7054 78.7683C13.1493 78.8861 12.5005 78.9198 11.9107 79.0461C11.8938 79.0629 11.8854 79.0797 11.8686 79.0797C11.7927 79.105 11.7169 79.1134 11.6411 79.1134C11.5989 79.1218 11.5568 79.1387 11.5147 79.1471C11.481 79.1387 11.4389 79.1218 11.4051 79.1134C11.4051 79.0966 11.3883 79.0797 11.363 79.0797C11.3462 79.0797 11.3293 79.0797 11.3125 79.0797C10.6131 78.8019 10.2508 78.1705 9.83795 77.5391C9.30713 76.7393 8.81843 75.9143 8.50668 75.0135C8.20335 74.138 8.04326 73.2287 8.00956 72.3027C7.98428 71.3766 8.15279 70.4674 8.11066 69.5413C8.07696 68.8426 7.89159 68.1523 7.6641 67.4956C7.38605 66.6958 6.87207 66.0139 6.54347 65.2394C6.19801 64.4312 6.02107 63.5557 5.802 62.7054C5.72617 62.4107 5.62506 62.0655 5.54923 61.712C5.54923 61.712 5.54923 61.712 5.54923 61.7035C5.54923 61.6446 5.53237 61.5773 5.53237 61.5183C5.47339 61.2826 5.43969 61.0385 5.51552 60.8027C5.62506 60.4491 5.8357 60.1713 6.15588 59.9777C6.46764 59.7925 6.82152 59.6578 7.1754 59.5736C7.51243 59.4473 7.85789 59.3463 8.14437 59.2369C9.27342 58.8328 10.453 58.6139 11.6326 58.3866C12.8291 58.1593 13.9919 57.9909 15.2052 57.9067C15.8371 57.8562 16.4606 57.8814 17.0841 58.0246C17.3116 58.0751 17.497 58.2014 17.6487 58.3529C17.7582 58.4371 17.8425 58.5465 17.9099 58.6812C17.952 58.7402 17.9857 58.7991 18.0278 58.858L18.0362 58.8412Z" fill="#CEA5CD"/>
<g style="mix-blend-mode:multiply">
<path d="M18.8369 67.3345C18.5926 66.6779 18.4915 65.9707 18.4409 65.2803C18.3819 64.4301 18.5842 63.6134 18.5842 62.7632C18.5842 61.9129 18.4156 61.0626 18.2808 60.2207C18.0196 60.2628 17.7584 60.3049 17.5057 60.3554C16.0396 60.6248 14.5651 60.8858 13.1074 61.172C11.7087 61.4414 10.31 61.7697 8.91135 62.0307C7.87498 62.2244 6.83018 62.4264 5.83594 62.78C6.04658 63.605 6.22352 64.4469 6.55213 65.2298C6.88074 66.0044 7.39471 66.6863 7.67276 67.4861C7.90026 68.1427 8.08562 68.833 8.11933 69.5318C8.16146 70.4579 7.98451 71.3671 8.01822 72.2931C8.05192 73.2192 8.21201 74.12 8.51534 75.004C8.82709 75.9132 9.31579 76.7382 9.84661 77.5296C10.2679 78.161 10.6302 78.784 11.3211 79.0702C11.338 79.0702 11.3548 79.0702 11.3717 79.0702C11.4054 79.0702 11.4138 79.087 11.4138 79.1039C11.4475 79.1207 11.4812 79.1291 11.5233 79.1375C11.5655 79.1207 11.6076 79.1123 11.6497 79.1039C11.7256 79.1039 11.793 79.0954 11.8772 79.0702C11.8941 79.0702 11.9109 79.0534 11.9194 79.0365C12.5092 78.9102 13.1664 78.8766 13.7141 78.7587C14.4555 78.6072 15.197 78.4556 15.9385 78.2788C17.0507 78.0179 18.264 77.7821 19.3593 77.3528C19.6121 77.3023 19.7975 77.1255 19.9323 76.9066C20.0334 76.7971 20.1008 76.6709 20.1429 76.5277C20.1598 76.4688 20.1766 76.4099 20.1935 76.3425C20.2103 76.3004 20.2272 76.2499 20.244 76.2078C20.244 76.1826 20.244 76.1742 20.244 76.1573C20.303 75.9048 20.3536 75.6354 20.4041 75.3575C20.5726 74.4147 20.7075 73.4633 20.6316 72.512C20.5642 71.586 20.362 70.6936 20.0165 69.8265C19.6795 68.9677 19.1571 68.1932 18.8369 67.3345Z" fill="#BA6783"/>
</g>
<path d="M13.5876 60.6342C12.3321 60.1544 10.9756 60.3564 10.0572 61.8381C9.62744 62.52 9.28198 63.4376 9.14717 64.2374C8.97865 65.2477 9.02078 66.2916 9.13874 67.3103C9.28198 68.6152 9.5516 69.9285 10.0487 71.1492C10.807 73.0181 12.8124 76.2425 15.298 75.3164C17.7415 74.4072 18.2807 71.6038 18.1375 69.2802C18.0027 67.0577 17.3707 64.8183 16.2164 62.8988C15.6266 61.9139 14.6408 61.0383 13.5876 60.6426V60.6342Z" fill="white"/>
<path d="M13.5879 61.1302C12.4167 60.684 11.1528 60.8692 10.3018 62.2499C9.9058 62.8897 9.57719 63.74 9.45923 64.4808C9.29914 65.4237 9.34127 66.3919 9.4508 67.3432C9.58562 68.5639 9.83839 69.7846 10.3018 70.9211C11.0096 72.6554 12.8801 75.6609 15.1888 74.8022C17.4637 73.9519 17.9693 71.3421 17.8345 69.1785C17.7081 67.1075 17.1183 65.0196 16.0482 63.2349C15.4921 62.3172 14.5821 61.5006 13.5963 61.1302H13.5879Z" fill="#C87EB5"/>
<g style="mix-blend-mode:overlay" opacity="0.6">
<path d="M8.86081 59.2617C7.83286 59.5311 7.11667 60.4235 6.88075 61.4085C6.56057 62.7386 6.91445 64.2035 7.28519 65.4916C7.68962 66.9059 8.44795 68.2697 8.43952 69.7767C8.43952 71.1153 8.32998 72.7485 9.0546 73.944C9.21469 74.2133 9.56015 73.8429 9.5433 73.6493C9.5096 73.1189 9.3158 72.6222 9.19784 72.1087C9.03775 71.4352 9.01247 70.7448 9.0209 70.0545C9.02932 68.758 8.67544 67.6804 8.21202 66.485C7.74861 65.2979 7.58009 63.892 7.44528 62.6292C7.37787 61.9894 7.49583 61.2401 7.82444 60.6845C8.09406 60.213 8.66702 59.9436 9.00405 59.5227C9.09673 59.4133 9.0209 59.228 8.86923 59.2701L8.86081 59.2617Z" fill="white"/>
</g>
<g style="mix-blend-mode:overlay" opacity="0.6">
<path d="M9.85518 75.0057C9.72879 74.7363 9.40018 75.0225 9.45917 75.2498C9.55185 75.6034 9.75407 76.0412 10.0742 76.2348C10.2765 76.3527 10.4534 76.0917 10.4113 75.9149C10.327 75.5697 10.0068 75.334 9.85518 75.0141V75.0057Z" fill="white"/>
</g>
<g style="mix-blend-mode:multiply">
<path d="M18.5759 62.7643C18.5759 61.8804 18.3905 61.0132 18.2557 60.1377C18.1967 59.7589 18.1546 59.279 18.0367 58.8328C17.9945 58.7739 17.9608 58.7149 17.9187 58.656C17.8513 58.5213 17.767 58.4119 17.6575 58.3277C17.5058 58.1761 17.3205 58.0499 17.093 57.9993C16.4695 57.8562 15.846 57.8394 15.214 57.8815C14.0007 57.9741 12.8295 58.1425 11.6415 58.3614C10.4703 58.5802 9.28226 58.8075 8.15321 59.2116C8.15321 59.2116 8.13636 59.2116 8.12793 59.2201C8.92838 59.0938 9.73726 58.8412 10.5293 58.816C11.6162 58.7823 12.8885 58.757 13.7985 59.4558C14.6242 60.0956 15.0202 61.089 15.2056 62.0908C15.4415 63.3621 15.3404 64.7343 15.6859 65.9803C16.0734 67.3862 17.2194 68.388 17.8344 69.6845C18.3821 70.8295 18.7107 72.1259 18.7528 73.3972C18.795 74.5505 18.6854 75.8807 18.0451 76.8741C17.6996 77.4045 17.2531 77.7833 16.7475 78.0696C17.6238 77.8675 18.5254 77.657 19.3595 77.3287C19.6123 77.2782 19.7976 77.1014 19.9325 76.8825C20.0336 76.7731 20.101 76.6468 20.1431 76.5037C20.16 76.4447 20.1768 76.3858 20.1937 76.3185C20.2105 76.2764 20.2274 76.2259 20.2442 76.1838C20.2442 76.1585 20.2442 76.1501 20.2442 76.1332C20.3032 75.8807 20.3537 75.6113 20.4043 75.3335C20.5728 74.3906 20.7076 73.4393 20.6318 72.4879C20.5644 71.5619 20.3622 70.6695 20.0167 69.8024C19.6797 68.9437 19.1573 68.1692 18.8371 67.3104C18.5928 66.6538 18.4916 65.9466 18.4411 65.2563C18.3821 64.406 18.5843 63.5894 18.5843 62.7391L18.5759 62.7643Z" fill="#C87EB5"/>
</g>
<path d="M8.87712 57.2573C8.82656 57.1142 8.76758 56.9795 8.62434 56.9121C8.38842 56.7943 8.10195 57.0805 8.19463 57.3246C8.19463 57.3331 8.19463 57.3499 8.20306 57.3583C8.20306 57.3583 8.21991 57.4509 8.22833 57.4678C8.24518 57.5351 8.24518 57.5351 8.26204 57.6193C8.27046 57.6951 8.28731 57.7624 8.32102 57.8298C8.37157 57.9392 8.43898 57.9729 8.54851 58.015C8.73388 58.0739 8.88554 57.8719 8.91925 57.7203C8.96138 57.552 8.92767 57.4257 8.87712 57.2657V57.2573Z" fill="white"/>
<path d="M7.96738 55.759C7.73145 55.8095 7.70618 56.2473 8.00108 56.1799C8.237 56.1294 8.26228 55.6916 7.96738 55.759Z" fill="white"/>
<path d="M17.3876 66.6868C17.2443 66.5016 17.0758 66.5269 16.8736 66.5269C16.9326 66.3585 16.9916 66.1817 16.8989 66.0133C16.7978 65.8281 16.6882 65.7776 16.5197 65.7692C16.7219 65.3735 16.2754 64.9694 15.9215 65.0283C15.9805 64.7926 15.9384 64.5485 15.6856 64.439C15.5508 64.3801 15.3738 64.4306 15.2306 64.4559C15.1632 64.4727 15.0958 64.5232 15.0452 64.5737C14.902 64.6916 14.8346 64.6495 14.7082 64.5485C14.4891 64.3801 14.2195 64.439 14.0088 64.5821C14.0425 64.0854 13.6971 63.8329 13.1663 63.9676C12.7366 64.077 12.5428 64.4895 12.5765 64.8936C12.3321 64.7505 12.0793 64.7253 11.8013 64.86C11.6918 64.9105 11.5401 65.0283 11.498 65.1462C11.4811 65.1883 11.498 65.2388 11.498 65.2893C11.498 65.3314 11.1946 65.2472 11.1694 65.2472C10.8829 65.1883 10.5964 65.5671 10.5206 65.786C10.5206 65.8028 10.5121 65.8197 10.5037 65.8365C10.3605 65.7944 10.1246 66.0386 10.0656 66.1396C9.88864 66.4427 9.95604 66.7289 10.2425 66.8889C9.84651 67.2509 9.88021 67.9075 10.2425 68.2948C10.4616 68.5305 10.8323 68.5642 11.1272 68.5053C11.1694 68.4968 11.2115 68.48 11.2536 68.4632C10.9587 69.5323 11.2957 70.5931 11.8097 71.5612C12.0709 72.0579 12.5259 72.3526 12.8798 72.7651C13.3095 73.2618 13.0483 74.1037 13.1831 74.693C13.2 74.7856 13.3264 74.693 13.3095 74.6172C13.1915 74.0784 13.2927 73.5228 13.1578 72.984C13.0315 72.4957 12.4754 72.2095 12.1805 71.8391C11.8013 71.376 11.5822 70.7615 11.3884 70.1974C11.1862 69.6081 11.2705 69.002 11.3547 68.4042C11.498 68.3032 11.5906 68.1348 11.6749 67.9665C11.6749 67.9749 11.6833 67.9917 11.6918 68.0001C11.6833 68.0086 11.6749 68.017 11.6749 68.0338C11.2705 69.1703 11.6412 70.6773 12.3827 71.5865C12.6439 71.9064 13.082 72.4957 13.5539 72.4452C13.8319 72.42 14.051 72.1169 14.0173 71.8475C14.2616 71.8475 14.4723 71.8138 14.6745 71.7465C14.7672 71.9485 15.0873 72.1506 15.2896 72.0916C15.7024 71.9738 15.9636 71.5612 16.1743 71.2161C16.4102 70.8204 16.5619 70.3574 16.5366 69.8943C16.5029 69.3135 16.4355 68.7073 16.3007 68.1433C16.3175 68.118 16.3344 68.0927 16.3512 68.0675C16.3849 68.0843 16.4186 68.0927 16.4608 68.0927C16.604 68.6905 16.6967 69.2461 16.663 69.8691C16.6293 70.4921 16.5029 71.0898 16.2501 71.6707C16.0395 72.1506 15.6687 72.521 15.5592 73.0514C15.4581 73.5396 15.5423 74.1037 15.6603 74.5836C15.6856 74.6846 15.8288 74.5836 15.8035 74.491C15.6519 73.8511 15.5845 73.0766 15.9299 72.4957C16.208 72.0243 16.4692 71.5949 16.6293 71.0645C16.9157 70.088 16.882 69.0441 16.5366 68.1012C16.882 68.0843 17.3118 67.7476 17.4129 67.5034C17.5055 67.2677 17.5645 66.9225 17.396 66.7037L17.3876 66.6868ZM13.9246 71.637C12.3237 71.6202 12.231 69.726 12.2057 68.5389C12.2057 68.5137 12.172 68.5305 12.172 68.5389C12.0625 69.8859 12.2479 71.7212 13.9162 71.8222C13.8825 72.1758 13.5539 72.3526 13.2337 72.159C13.0736 72.0579 12.9556 71.9064 12.8208 71.7801C12.5259 71.4855 12.2647 71.1571 12.0709 70.7867C11.7002 70.0459 11.5232 68.9599 11.7676 68.1433C11.9024 68.3116 12.113 68.4042 12.3321 68.3369C12.2816 68.5726 12.5006 68.7662 12.7618 68.8588C12.9809 68.9346 13.2674 68.8673 13.4696 68.7831C13.6718 68.6989 13.7813 68.5221 13.9077 68.3537C13.992 68.5053 14.0088 68.6231 14.1858 68.7326C14.2953 68.7999 14.4554 68.8252 14.5818 68.7831C14.8767 68.6989 15.0199 68.4884 15.1379 68.2359C15.2474 68.3958 15.416 68.4884 15.6266 68.4126C15.7024 68.3874 15.753 68.3369 15.7951 68.2864C15.8204 69.0104 15.9468 69.7007 15.6772 70.4163C15.5423 70.7867 15.3485 71.1403 15.0284 71.3845C14.725 71.6118 14.2953 71.6454 13.933 71.637H13.9246ZM16.3007 69.1956C16.3428 69.6502 16.4355 70.1048 16.3007 70.551C16.1827 70.9298 15.9889 71.2413 15.753 71.5528C15.5508 71.8222 15.298 71.999 14.961 71.8222C14.9188 71.8054 14.8346 71.7212 14.784 71.6959C15.1969 71.5192 15.5086 71.1908 15.7277 70.7362C16.0984 69.9701 16.0732 69.1198 15.9552 68.2948C16.0226 68.3116 16.0984 68.2948 16.1574 68.2527C16.208 68.5642 16.267 68.8757 16.2922 69.1872L16.3007 69.1956ZM17.3202 67.3603C17.2528 67.6045 16.5956 68.1601 16.3428 67.8233C16.3428 67.8233 16.3428 67.8149 16.3259 67.8065C16.2585 67.7476 16.1743 67.8823 16.2164 67.9412C16.2164 67.9412 16.2248 67.9496 16.2333 67.958C16.2333 67.9665 16.2333 67.9749 16.2333 67.9917C16.1911 68.0001 16.1406 68.0506 16.149 68.1012C16.149 68.1096 16.149 68.118 16.149 68.1264C16.0984 68.1601 16.0226 68.1433 15.9299 68.0843C15.9299 68.0675 15.9299 68.0506 15.9215 68.0254C15.9468 67.9328 15.9721 67.8402 16.0142 67.7728C16.0647 67.6718 15.9215 67.6465 15.8794 67.7392C15.8541 67.7812 15.8372 67.8233 15.8288 67.8654C15.7867 67.8149 15.694 67.9075 15.7109 67.9665C15.7193 68.017 15.7361 68.0591 15.753 68.0927C15.7277 68.1348 15.7024 68.1853 15.6687 68.2274C15.4412 68.32 15.298 68.2527 15.2222 68.0422C15.1885 67.9749 15.1126 68.0085 15.0873 68.0675C14.9694 68.3453 14.8514 68.6147 14.506 68.6568C14.2448 68.6905 14.1437 68.4716 14.051 68.2779C14.1689 68.2527 14.3206 68.1769 14.3206 68.0422C14.3206 68.0001 14.2785 67.9749 14.2448 67.9917C14.2111 68.0001 14.1858 68.017 14.1605 68.0422C14.1352 68.0759 14.0763 68.0927 14.0341 68.1096C13.933 68.1433 13.8403 68.0675 13.7561 68.0254C13.7139 68.0001 13.6634 68.0675 13.6971 68.1012C13.7308 68.1601 13.7813 68.219 13.8488 68.2443C13.6718 68.4716 13.5202 68.6652 13.2 68.7157C13.023 68.741 12.2226 68.6231 12.5596 68.2274C12.6186 68.1601 12.5596 68.0506 12.4838 68.118C12.2057 68.3621 11.8687 68.1012 11.8097 67.8233C11.9108 67.8233 12.0119 67.8233 12.113 67.8065C12.2057 67.7981 12.2816 67.7981 12.3068 67.6886C12.3068 67.6718 12.3068 67.6381 12.2731 67.6297C12.1467 67.6129 12.0204 67.6465 11.894 67.6634C11.7002 67.6802 11.6412 67.5624 11.5991 67.4024C11.5906 67.3687 11.5401 67.4024 11.5401 67.4277C11.5569 67.5624 11.5569 67.7055 11.6665 67.7812C11.5906 67.9412 11.5232 68.0843 11.4137 68.2022C11.4137 68.1769 11.3716 68.1853 11.3631 68.2022C11.3631 68.219 11.3547 68.2359 11.3463 68.2527C11.2957 68.2948 11.2283 68.3285 11.1525 68.3537C10.8745 68.4547 10.5121 68.3285 10.3184 68.118C10.015 67.7897 10.015 67.1835 10.3689 66.9057C10.3689 66.931 10.3689 66.9478 10.3689 66.9731C10.3773 67.1078 10.4195 67.293 10.5711 67.3182C10.6301 67.3351 10.6975 67.234 10.6385 67.1919C10.4363 67.0488 10.4279 66.7373 10.5543 66.5353C10.5795 66.4932 10.5374 66.4679 10.5037 66.5016C10.4363 66.5858 10.3942 66.67 10.3773 66.7626C9.72855 66.5016 10.3015 65.887 10.5121 65.8786C10.5121 66.047 10.5711 66.2659 10.7228 66.2911C10.7481 66.2911 10.7818 66.249 10.7481 66.2406C10.6638 66.1985 10.6385 66.0217 10.6217 65.946C10.5711 65.7355 10.7818 65.5334 10.9334 65.4324C11.1525 65.2893 11.3463 65.5335 11.5401 65.4156C11.6328 65.3567 11.6581 65.3061 11.6581 65.2051C11.6581 65.0199 11.9277 64.9273 12.0793 64.902C12.29 64.8684 12.4838 64.9947 12.6354 65.1209C12.7028 65.1714 12.7703 65.062 12.7534 65.0031C12.6354 64.6074 12.7703 64.237 13.1747 64.0854C13.3516 64.0181 13.5623 64.0349 13.7308 64.1275C13.9077 64.2201 13.8909 64.4979 13.874 64.6747C13.7729 64.7842 13.6465 64.9694 13.7476 65.0873C13.7476 65.0873 13.7392 65.0873 13.7308 65.0873C13.596 65.1546 13.419 65.323 13.5033 65.4829C13.5202 65.5166 13.5707 65.4829 13.5707 65.4493C13.5876 65.2893 13.7561 65.2304 13.8909 65.1967C13.9836 65.1714 14.0594 65.1546 14.1521 65.2135C14.2026 65.2472 14.2448 65.2641 14.3037 65.2556C14.3459 65.2556 14.3964 65.1883 14.3627 65.1462C14.2279 64.9694 14.0173 64.9778 13.8319 65.0536C13.8319 65.0536 13.8319 65.0536 13.8319 65.0452C13.8235 65.0115 13.7813 65.0452 13.7813 65.0704C13.7729 64.9694 13.8403 64.8684 13.9414 64.7842C13.9667 64.7842 13.9836 64.7673 13.992 64.7421C14.1184 64.6579 14.27 64.599 14.3796 64.6158C14.5818 64.6411 14.6998 64.801 14.8767 64.8515C14.9694 64.8768 15.0873 64.7253 15.1463 64.6747C15.239 64.5821 15.3654 64.5821 15.4918 64.5737C15.7951 64.5485 15.8204 64.8684 15.7698 65.0788C15.7277 65.1125 15.6772 65.1546 15.6434 65.2135C15.6434 65.2135 15.6434 65.222 15.6434 65.2304C15.6013 65.1967 15.5592 65.1714 15.5086 65.1462C15.3907 65.0957 15.1463 65.0199 15.0789 65.1799C15.0621 65.222 15.1126 65.2304 15.1295 65.2051C15.2053 65.1041 15.4075 65.2135 15.4834 65.2641C15.5423 65.3061 15.6013 65.3567 15.635 65.4072C15.6856 65.4745 15.6772 65.5587 15.7109 65.6345C15.7361 65.6934 15.7951 65.6345 15.812 65.6008C15.8457 65.4661 15.7783 65.3482 15.6772 65.2556C15.6772 65.2556 15.6772 65.2556 15.6856 65.2556C15.7109 65.2304 15.7446 65.2135 15.7783 65.1967C15.8035 65.2135 15.8541 65.1967 15.8794 65.163C16.2164 65.1041 16.6377 65.4829 16.3428 65.786C16.3091 65.8281 16.2922 65.9291 16.3681 65.9291C16.7725 65.9039 16.8231 66.1817 16.7219 66.5269C16.6714 66.4595 16.604 66.4006 16.5282 66.3669C16.4945 66.3501 16.4523 66.4174 16.486 66.4427C16.6882 66.5605 16.7388 66.771 16.663 66.9815C16.6461 67.0236 16.6967 67.0657 16.7304 67.0236C16.8231 66.9225 16.8315 66.7878 16.7978 66.6784C16.882 66.6784 16.9663 66.6784 17.0421 66.6784C17.3876 66.67 17.3792 67.1414 17.3202 67.3603Z" fill="white"/>
<path d="M13.1071 69.2286C13.0144 69.2623 12.9386 69.3465 12.8965 69.4391C12.8459 69.557 12.8628 69.658 12.8291 69.7758C12.8206 69.8179 12.8712 69.8095 12.888 69.7927C12.9723 69.6832 12.9555 69.5485 13.0566 69.4391C13.1324 69.3549 13.2419 69.3633 13.3262 69.4054C13.3936 69.4391 13.4357 69.5064 13.4947 69.557C13.5453 69.599 13.6042 69.5149 13.6042 69.4728C13.5874 69.2539 13.2925 69.1613 13.1155 69.2286H13.1071Z" fill="white"/>
<path d="M15.2217 69.1958C15.2217 69.1958 15.1965 69.12 15.1796 69.0863C15.1543 69.0526 15.1206 69.0274 15.0869 69.0105C15.0027 68.9769 14.91 68.9937 14.8341 69.0274C14.6909 69.0947 14.5392 69.2547 14.5814 69.4231C14.5898 69.4567 14.6319 69.4231 14.6319 69.4062C14.6488 69.2968 14.733 69.2126 14.8426 69.1789C14.9016 69.1537 15.0785 69.1537 15.0616 69.2715C15.0364 69.4315 15.3144 69.3473 15.2217 69.1958Z" fill="white"/>
<path d="M14.97 70.315C14.7846 70.7444 14.5655 71.0727 14.0516 71.0222C13.6387 70.9801 13.4365 70.6939 13.1584 70.4413C13.1416 70.4245 13.1163 70.4666 13.1247 70.4834C13.3943 70.9127 13.6808 71.1821 14.2201 71.199C14.7003 71.2158 14.9615 70.7528 15.0964 70.3571C15.1301 70.2561 15.0121 70.2392 14.97 70.3234V70.315Z" fill="white"/>
<path d="M10.9674 63.5536C10.7989 63.36 10.5039 63.4778 10.3354 63.6041C10.3017 63.6294 10.3102 63.6967 10.3523 63.6967C10.2596 63.8314 10.2259 63.9998 10.3186 64.1513C10.4365 64.3365 10.7651 64.3197 10.9252 64.2018C11.1106 64.0587 11.119 63.722 10.9758 63.5536H10.9674ZM10.9 64.0924C10.8073 64.2439 10.5461 64.2103 10.4197 64.1261C10.2512 64.0166 10.3102 63.823 10.4113 63.6715C10.5377 63.5957 10.6977 63.5368 10.841 63.6041C11.0179 63.6967 10.9926 63.9493 10.9084 64.084L10.9 64.0924Z" fill="white"/>
<path d="M10.9844 62.9392C10.9844 62.9392 10.9844 62.9897 11.0097 62.9981C11.0012 63.0234 11.0012 63.0655 11.0097 63.0907C11.0349 63.2086 11.1782 63.2086 11.2624 63.1413C11.4983 62.9645 11.0771 62.6867 10.9928 62.9392H10.9844ZM11.2203 63.0487C11.195 63.0907 11.1276 63.0992 11.0939 63.0655C11.0771 63.0487 11.0434 62.9813 11.0855 62.9729C11.0855 62.9729 11.0939 62.9645 11.1023 62.956C11.1192 62.956 11.1445 62.956 11.1697 62.956C11.195 62.9645 11.254 63.0066 11.2287 63.0402L11.2203 63.0487Z" fill="white"/>
<path d="M13.419 62.1911C13.419 62.1911 13.36 62.2501 13.3684 62.2837C13.1241 62.4016 12.9555 62.5784 12.9977 62.9067C13.0398 63.2519 13.3516 63.3866 13.6633 63.3192C14.0003 63.2435 14.2447 62.932 14.2194 62.5952C14.1857 62.208 13.7307 62.0985 13.419 62.1911ZM13.697 63.1761C13.4779 63.2687 13.2336 63.2014 13.1241 62.9741C13.0567 62.8478 13.0651 62.6963 13.1072 62.5616C13.1578 62.4353 13.2673 62.3679 13.3768 62.3174C13.3768 62.3174 13.3937 62.3174 13.4021 62.3174C13.6296 62.3006 13.8655 62.2922 14.0172 62.4942C14.2363 62.772 13.9329 63.0751 13.6886 63.1677L13.697 63.1761Z" fill="white"/>
<path d="M12.9391 70.0278C12.8127 70.053 12.7285 70.213 12.7369 70.3308C12.7453 70.4655 12.8549 70.516 12.9728 70.4908C13.0992 70.4655 13.1835 70.3056 13.175 70.1877C13.1666 70.053 13.0571 70.0025 12.9391 70.0278Z" fill="#8171B3"/>
<path d="M15.2646 69.6917C14.9865 69.7506 14.9613 70.2558 15.2983 70.1884C15.5764 70.1295 15.6016 69.6244 15.2646 69.6917Z" fill="#8171B3"/>
<path d="M6.64445 65.9788C6.61917 65.9114 6.56019 65.9619 6.52649 66.0293C5.57437 65.5578 5.06883 66.9806 5.07725 67.7214C5.07725 68.2771 5.29632 68.8916 5.6165 69.4641C5.38901 69.5651 5.31317 70.769 5.33003 70.8532C5.48169 71.8298 6.00409 72.5538 6.74556 73.1768C6.695 73.8334 7.1837 74.4985 7.79878 74.8268C7.82406 75.2394 8.13581 75.5761 8.47284 75.795C8.67506 75.9297 9.0121 76.1317 9.27329 76.0391C9.52607 75.9549 9.61875 75.6519 9.59347 75.4077C9.55135 75.012 9.3407 74.6669 9.1132 74.347C9.05422 73.8924 8.75932 73.3283 8.64979 73.0757C8.80988 72.5875 8.62451 72.0823 8.36331 71.6193C8.87728 71.5267 9.23117 71.0384 9.20589 70.3902C9.18061 69.7503 8.79302 69.1863 8.43072 68.6896" fill="#E9BE94"/>
<path d="M8.76812 73.9003C8.81868 74.0434 8.86923 74.1697 8.91136 74.3213C9.06303 74.8769 8.45637 74.759 8.24572 74.7169C7.63064 74.5822 6.99871 73.9087 6.85547 73.2773C7.25991 73.6057 8.12776 73.9677 8.51535 73.4036C8.5322 73.3784 8.54063 73.3531 8.55748 73.3194C8.60803 73.5215 8.70072 73.6983 8.76812 73.9003Z" fill="#F4D9BF"/>
<path d="M9.28222 75.1138C9.39176 75.3664 9.52657 75.8547 9.08 75.7873C8.63343 75.72 8.06891 75.3243 7.90039 74.8949C8.12789 75.0044 8.37223 75.0633 8.60816 75.0465C8.89463 75.0296 9.03787 74.9118 9.09685 74.7266C9.15583 74.8528 9.22324 74.9875 9.27379 75.1138H9.28222Z" fill="#F4D9BF"/>
<path d="M7.64695 73.3628C7.22566 73.287 6.87177 72.9334 6.56845 72.664C5.79327 71.9737 5.07708 70.6183 5.69216 69.5996C6.16401 70.391 6.85492 71.0897 7.52056 71.4601C7.75648 71.5864 7.98398 71.6454 8.1862 71.6454C8.2536 71.7969 8.32101 71.9569 8.38842 72.1084C8.73387 72.6977 8.48953 73.1102 7.64695 73.3628Z" fill="#F4D9BF"/>
<path d="M9.04551 70.6762C9.09607 71.9559 7.61313 71.2319 7.23397 70.9793C6.81268 70.6846 6.48407 70.2553 6.19759 69.8428C5.9701 69.5144 5.77631 69.1609 5.59936 68.8073C5.46455 68.5295 5.37187 68.2348 5.30446 67.9401L5.25391 67.4182C5.42242 66.5511 5.84371 66.1217 6.50935 66.1133C6.50935 66.1133 6.50935 66.1217 6.50935 66.1301C6.73685 66.8289 7.0486 67.4939 7.52044 68.0664C8.18608 68.8578 8.99496 69.5818 9.03709 70.6931L9.04551 70.6762Z" fill="#F4D9BF"/>
<path d="M50.6101 103.223C52.2784 102.769 56.2048 103.223 56.2048 103.223C56.2048 103.223 53.6266 102.163 51.2505 101.346C48.47 100.386 50.0203 99.536 51.2336 99.5276C52.8935 99.5107 56.8031 100.689 57.0137 100.757C57.2244 100.841 54.2838 99.2413 52.7334 98.5763C51.1915 97.9196 50.9303 96.5137 52.211 96.5726C53.4917 96.6484 59.6173 99.435 59.6173 99.435C59.6173 99.435 58.3113 98.1132 57.6204 97.2798C56.6767 96.1601 57.6962 95.3856 59.0191 95.7055C60.6115 96.0927 61.7237 97.9533 62.6843 99.1319C63.7122 100.403 64.757 101.658 64.8076 103.375C64.8918 106.54 61.6732 107.197 59.2381 107.702C57.376 108.081 54.9831 108.738 53.0536 108.46C52.1689 108.342 50.4248 107.163 56.8283 105.917C56.8283 105.917 53.8372 105.555 51.2421 105.446C48.6469 105.345 48.9334 103.661 50.6017 103.215L50.6101 103.223Z" fill="#F4D9BF"/>
</svg>
