<svg viewBox="0 0 59 21" fill="none" xmlns="http://www.w3.org/2000/svg">
<path d="M53.4534 20.5898L50.8889 20.4777C35.8453 19.8109 20.7834 19.8522 5.73977 20.5898C2.95544 20.5898 0.697754 17.6809 0.697754 14.0934V8.53525C0.697754 5.39623 1.58617 3.5258 4.41172 2.45192C5.13069 2.1805 5.86799 2.02709 6.61445 1.93858C7.78222 1.80877 10.0124 1.55506 12.6456 1.26004C23.9295 -0.00855362 35.2774 -0.00855362 46.5613 1.26004L52.6383 1.94448C53.3847 2.02709 54.1266 2.1746 54.8456 2.43422C57.7627 3.47859 58.5 5.39623 58.5 8.54115V14.0993C58.5 17.6868 56.2423 20.5957 53.458 20.5957L53.4534 20.5898Z" fill="#4D4669"/>
<path d="M6.31763 15.9512V7.15332C6.37231 7.14421 6.46346 7.13509 6.59106 7.12598C6.71867 7.11686 6.87817 7.10547 7.06958 7.0918C7.49797 7.05534 7.89445 7.03027 8.25903 7.0166C8.62362 6.99837 8.95858 6.98926 9.26392 6.98926C9.79712 6.98926 10.2278 7.01432 10.5559 7.06445C10.884 7.11003 11.1939 7.19434 11.4856 7.31738C11.7499 7.43132 11.9709 7.57487 12.1487 7.74805C12.3264 7.91667 12.4722 8.1377 12.5862 8.41113C12.6545 8.5752 12.7047 8.75521 12.7366 8.95117C12.7685 9.14258 12.7844 9.35449 12.7844 9.58691V15.9512H6.31763ZM7.4729 15.0146H11.6223V9.56641C11.6223 9.27018 11.5836 9.02409 11.5061 8.82812C11.4286 8.6276 11.3101 8.46582 11.1506 8.34277C11.0321 8.24251 10.8886 8.16504 10.72 8.11035C10.5559 8.05111 10.3691 8.01009 10.1594 7.9873C10.05 7.96908 9.91333 7.95768 9.74927 7.95312C9.58976 7.94401 9.40291 7.93945 9.18872 7.93945C8.97909 7.93945 8.73071 7.94629 8.4436 7.95996C8.15649 7.97363 7.83293 7.99414 7.4729 8.02148V15.0146ZM15.0266 12.7588V7.12598H16.1819V11.7266L15.3547 12.7588H15.0266ZM18.0823 15.9512V15.0146H20.9534C21.0081 14.764 21.0468 14.5179 21.0696 14.2764C21.0969 14.0348 21.1106 13.7956 21.1106 13.5586V9.22461C21.1106 9.00586 21.0833 8.8099 21.0286 8.63672C20.9739 8.45898 20.8918 8.31315 20.7825 8.19922C20.6959 8.12174 20.5956 8.06022 20.4817 8.01465C20.3723 7.96908 20.2447 7.94629 20.0989 7.94629C19.9166 7.94629 19.7297 7.95768 19.5383 7.98047C19.3469 7.9987 19.1487 8.02604 18.9436 8.0625V7.0918C19.1168 7.05534 19.3036 7.03027 19.5042 7.0166C19.7092 6.99837 19.9303 6.98926 20.1672 6.98926C20.4316 6.98926 20.6617 7.01432 20.8577 7.06445C21.0536 7.11458 21.2245 7.18522 21.3704 7.27637C21.5071 7.36296 21.6256 7.47005 21.7258 7.59766C21.8306 7.72526 21.9172 7.86198 21.9856 8.00781C22.0767 8.16732 22.1451 8.34961 22.1907 8.55469C22.2408 8.75977 22.2659 8.98307 22.2659 9.22461V13.5586C22.2659 13.7865 22.2545 14.0303 22.2317 14.29C22.2089 14.5452 22.1816 14.7913 22.1497 15.0283C22.1178 15.2607 22.0859 15.4521 22.054 15.6025L21.9924 15.9512H18.0823ZM24.5081 15.9512V7.12598H25.6565V15.9512H24.5081ZM30.0178 15.9512L30.6672 12.5742L31.9661 8.07617H27.2356V5.25293H28.384V7.0918H33.1008V8.06934L31.8225 12.5264L31.1731 15.9512H30.0178ZM34.2151 15.9512V15.0146H38.5081V9.68262C38.5081 9.14486 38.385 8.74837 38.1389 8.49316C37.8928 8.23796 37.5305 8.07617 37.052 8.00781C36.9381 7.98503 36.8082 7.96908 36.6624 7.95996C36.5165 7.94629 36.3502 7.93945 36.1633 7.93945C35.9491 7.93945 35.6825 7.94857 35.3635 7.9668C35.0445 7.98047 34.6594 8.00326 34.2083 8.03516V7.08496C34.5455 7.05306 34.8782 7.03027 35.2063 7.0166C35.539 6.99837 35.8694 6.98926 36.1975 6.98926C36.6532 6.98926 37.0338 7.00977 37.3391 7.05078C37.649 7.08724 37.943 7.1556 38.2209 7.25586C38.5035 7.36068 38.7382 7.49512 38.925 7.65918C39.1119 7.82324 39.2623 8.03288 39.3762 8.28809C39.4491 8.41113 39.5061 8.54329 39.5471 8.68457C39.5881 8.82585 39.6178 8.97624 39.636 9.13574C39.6542 9.29525 39.6633 9.46842 39.6633 9.65527V15.0146H40.675V15.9512H34.2151Z" fill="white"/>
<circle cx="48.7317" cy="11.4512" r="5.29688" fill="#F7E225"/>
</svg>
