<svg viewBox="0 0 41 101" fill="none" xmlns="http://www.w3.org/2000/svg">
<path d="M38.1703 46.2339C37.4039 44.6665 35.4996 43.2445 33.3219 42.6097C28.7255 41.268 24.8451 43.619 22.9492 48.892C21.8486 51.9531 22.1572 55.0843 23.8237 57.7136C24.7806 59.2254 26.1115 60.4066 27.5663 61.0717C27.3655 61.3508 27.1986 61.6259 27.322 61.8909C27.5346 62.2766 28.7048 62.349 29.0832 62.3483C29.0731 62.0909 29.1094 61.8286 29.1166 61.5673C31.9831 62.0934 35.2047 60.4094 37.1793 56.8909C38.9118 53.8015 39.7187 49.3889 38.1713 46.23L38.1703 46.2339Z" fill="#FF5F7E"/>
<path d="M36.4752 49.1223C36.9307 48.9269 37.2387 48.547 37.3472 48.06C37.5353 47.2187 37.1983 46.5883 36.4508 46.37C36.0945 46.2652 35.7103 46.2891 35.4715 46.4231C34.9882 46.6978 34.7939 47.3814 34.7697 47.9263C34.7409 48.5893 35.1377 49.0947 35.6402 49.2399C35.9355 49.3255 36.1609 49.2622 36.4752 49.1223Z" fill="#FFE1E8"/>
<path opacity="0.25" d="M24.9669 53.3878C25.2106 50.0689 26.4253 45.8849 29.0863 44.1071C29.1549 44.0625 29.2284 44.0149 29.2999 43.9751C28.5433 44.0587 27.8565 44.2584 27.3113 44.5671C24.7387 46.038 23.6856 49.67 23.5603 52.5784C23.4544 55.0599 24.4579 57.1137 25.9903 58.3941C25.2262 57.0658 24.8205 55.3536 24.9631 53.3868L24.9669 53.3878Z" fill="white"/>
<path d="M27.8364 61.3279C28.1714 61.4521 29.3588 61.9358 29.229 62.3764C29.0683 62.908 27.9829 61.5328 27.8364 61.3279ZM27.8364 61.3279C27.9839 61.5618 28.2458 62.9588 27.7065 62.8292C27.2456 62.7148 27.5452 61.3913 27.8364 61.3279Z" stroke="#373814" stroke-width="0.128976" stroke-linecap="round" stroke-linejoin="round"/>
<path d="M27.1475 60.9551C27.1475 60.9551 28.1672 61.3519 29.1548 61.5805C29.6214 61.688 28.2469 61.495 27.1475 60.9551ZM27.1475 60.9551C27.1475 60.9551 28.3032 61.6324 29.0564 61.7452" stroke="#373814" stroke-width="0.128976" stroke-linecap="round" stroke-linejoin="round"/>
<path d="M27.7717 61.4424C27.2295 62.3686 27.1931 64.1726 27.0479 65.2219C26.8301 66.763 25.7636 71.0125 24.0636 74.9486C22.1766 79.307 18.4692 89.4463 18.738 98.8864" stroke="#373814" stroke-width="0.128976" stroke-linecap="round" stroke-linejoin="round"/>
<path d="M19.1394 23.6038C17.7059 22.2079 15.0931 21.4019 12.4948 21.557C7.00453 21.8867 3.72109 25.925 3.70567 32.3624C3.69814 36.0953 5.24668 39.3655 8.0649 41.5645C9.97004 43.05 11.7088 43.8812 13.7947 43.8093C13.7114 44.0377 13.6087 44.2649 13.6218 44.5095C13.9501 44.5555 14.2752 44.5039 14.6033 44.4816C14.5898 44.2419 14.533 43.9945 14.4711 43.7516C17.9414 43.308 20.8778 40.3922 21.6637 35.7213C22.3426 31.711 22.0389 26.4174 19.1397 23.599L19.1394 23.6038Z" fill="#6262B5"/>
<path d="M18.7459 29.8711C19.3431 29.8325 19.8623 29.3501 19.9977 28.5549C20.1092 27.8994 20.0588 27.0382 19.5871 26.5782C19.3537 26.3483 18.9285 26.2179 18.5028 26.2435C17.6074 26.2965 17.0718 26.9532 17.0706 28.0059C17.0693 28.615 17.3217 29.1483 17.7807 29.5052C18.1005 29.7554 18.3888 29.8914 18.7459 29.8711Z" fill="#ACACE2"/>
<path opacity="0.25" d="M6.42923 31.2785C7.10737 35.2565 9.05038 40.1563 12.4675 41.9951C12.5568 42.0449 12.6468 42.0849 12.7413 42.1301C11.8209 42.1181 10.9687 41.9596 10.2729 41.6456C7.00229 40.1723 5.31462 35.9083 4.82864 32.4158C4.41612 29.435 5.39136 26.843 7.08893 25.1225C6.31947 26.8117 6.02909 28.9224 6.42923 31.2785Z" fill="white"/>
<path d="M13.9682 43.7074C14.403 43.6923 15.9675 43.6931 16.0235 44.2476C16.0864 44.9195 14.2304 43.8709 13.9682 43.7074ZM13.9682 43.7074C14.243 43.901 15.1799 45.3617 14.5152 45.464C13.9391 45.5527 13.6669 43.9166 13.9682 43.7074Z" stroke="#373814" stroke-width="0.128976" stroke-linecap="round" stroke-linejoin="round"/>
<path d="M13.2666 43.8537C13.2666 43.8537 13.9495 43.772 14.5316 43.518C14.8075 43.3997 14.0592 43.8816 13.2666 43.8537ZM13.2666 43.8537C13.2666 43.8537 14.1535 44.0048 14.5748 43.7499" stroke="#373814" stroke-width="0.128976" stroke-linecap="round" stroke-linejoin="round"/>
<path d="M13.9219 43.816C13.9219 43.816 12.4716 54.4185 14.0661 59.7242C16.5202 67.8843 18.8273 80.7818 17.2488 87.7887" stroke="#373814" stroke-width="0.128976" stroke-linecap="round" stroke-linejoin="round"/>
<path d="M36.4761 4.68265C35.3451 3.08054 32.9968 1.6759 30.3812 1.16821C24.8646 0.0997946 20.6499 2.94885 19.1052 8.7991C18.2068 12.193 18.9615 15.5464 21.2269 18.2477C22.7596 20.0767 24.2814 21.2616 26.3693 21.7164C26.2347 21.8998 26.0726 22.0842 26.031 22.3098C26.3466 22.4348 26.6769 22.4679 27.0083 22.5283C27.0501 22.3073 27.0546 22.0649 27.0502 21.832C30.5965 22.2948 33.7826 20.1571 36.0905 16.3298C38.1233 12.9611 39.3422 8.74588 36.4806 4.68248L36.4761 4.68265Z" fill="#FFD939"/>
<path d="M33.3629 10.0379C33.9154 10.1448 34.502 9.82519 34.8091 9.13239C35.0616 8.56509 35.2184 7.76835 34.8964 7.23677C34.7355 6.97327 34.3799 6.75836 33.9885 6.68194C33.1642 6.52156 32.5241 6.99401 32.2727 7.94977C32.1294 8.50375 32.2325 9.04828 32.569 9.47875C32.8 9.7807 33.0313 9.97295 33.3629 10.0379Z" fill="#FFEEA9"/>
<path opacity="0.25" d="M21.8302 8.44226C21.5177 12.2159 22.1404 17.133 24.8218 19.599C24.8884 19.665 24.9638 19.7261 25.0393 19.7872C24.2033 19.5587 23.468 19.2166 22.9069 18.7673C20.2757 16.6605 19.7374 12.3938 20.1095 9.10238C20.4269 6.29296 21.9223 4.16514 23.8704 2.9981C22.7752 4.35642 22.0189 6.20911 21.8302 8.44226Z" fill="white"/>
<path d="M26.8172 21.7226C26.4168 21.6511 24.964 21.4326 24.8372 21.9402C24.6827 22.5586 26.5565 21.8378 26.8172 21.7226ZM26.8172 21.7226C26.5347 21.866 25.4664 23.0908 26.0677 23.278C26.5859 23.4409 27.0685 21.9598 26.8172 21.7226Z" stroke="#373814" stroke-width="0.128976" stroke-linecap="round" stroke-linejoin="round"/>
<path d="M27.4523 21.9519C27.4523 21.9519 26.8287 21.7793 26.3184 21.4652C26.0797 21.3189 26.7086 21.8662 27.4523 21.9519ZM27.4523 21.9519C27.4523 21.9519 26.6073 21.966 26.2533 21.6733" stroke="#373814" stroke-width="0.128976" stroke-linecap="round" stroke-linejoin="round"/>
<path d="M26.8489 21.8237C26.8489 21.8237 26.7358 31.8745 24.5211 36.5803C21.1146 43.8228 17.7408 55.4976 18.2361 62.2204" stroke="#373814" stroke-width="0.128976" stroke-linecap="round" stroke-linejoin="round"/>
</svg>
