<svg viewBox="0 0 92 79" fill="none" xmlns="http://www.w3.org/2000/svg">
<path d="M70.4482 4.43928C69.859 3.2546 68.7486 2.40903 67.4434 2.16486C55.6733 -0.0326821 35.1968 1.01635 26.8304 1.58157C24.4419 1.74435 22.3571 3.27268 21.5141 5.51092C19.5562 10.7064 17.9336 15.8385 16.6782 20.5275C21.5685 25.4154 28.122 28.0923 34.9067 29.4804C35.2648 29.1865 35.6546 28.9017 36.0398 28.4766C37.1366 27.2603 36.2437 20.9661 32.5183 19.5056C36.6063 19.1393 38.5597 21.2509 38.5597 21.2509C38.5597 21.2509 38.6186 17.1905 35.1424 15.852C39.661 15.6712 45.2719 22.508 45.2719 22.508C45.2719 22.508 50.7649 25.4697 52.1064 23.1591C53.448 20.844 56.8652 18.5922 60.287 17.923C56.8698 20.6043 57.5405 27.4818 57.5405 27.4818C57.5405 27.4818 64.7422 24.5608 65.6577 22.4899C65.7438 25.0763 64.2255 27.9476 62.6302 30.2265C66.1789 29.7563 69.6913 29.0328 73.1404 28.0064C74.1057 20.8033 74.1238 11.8277 70.4437 4.4438L70.4482 4.43928Z" fill="#5D507F"/>
<path d="M65.6578 22.4853C64.7423 24.5562 57.5406 27.4773 57.5406 27.4773C57.5406 27.4773 56.8699 20.5952 60.2871 17.9184C56.8699 18.5876 53.4526 20.8394 52.1065 23.1545C50.765 25.4696 45.272 22.5034 45.272 22.5034C45.272 22.5034 39.6566 15.6621 35.1425 15.8475C38.6233 17.1859 38.5598 21.2464 38.5598 21.2464C38.5598 21.2464 36.6064 19.1347 32.5184 19.501C36.2393 20.9615 37.1367 27.2557 36.0399 28.472C35.6547 28.9016 35.2604 29.1865 34.9068 29.4758C28.1221 28.0877 21.5731 25.4063 16.6783 20.5229C13.9409 30.751 12.9483 38.9036 14.0497 41.178C14.24 41.5714 24.2879 41.6709 24.723 41.6618L57.4953 41.1418C59.0408 41.4584 59.979 41.6618 59.979 41.6618C59.979 41.6618 60.1602 41.4493 60.4684 41.0966L69.3606 40.9564C69.841 40.9474 70.2625 40.6399 70.4121 40.1832C70.9831 38.4243 72.3654 33.7805 73.1405 28.0018C69.6915 29.0282 66.179 29.7517 62.6303 30.2219C64.2256 27.943 65.7439 25.0717 65.6578 22.4853Z" fill="#4D4669"/>
<path d="M9.75353 60.5352L8.47998 73.6436H11.163L12.9668 63.5059C12.1601 62.2172 11.0905 61.1592 9.74899 60.5397L9.75353 60.5352Z" fill="#C5C5D8"/>
<path d="M9.75269 60.5374C11.0942 61.1614 12.1638 62.215 12.9705 63.5037L14.0492 57.4355H10.0518L9.75269 60.5329V60.5374Z" fill="#C5C5D8"/>
<path d="M8.28923 73.6432L7.02926 77.7896C6.8797 78.2779 7.25134 78.7708 7.76348 78.7618L10.3695 78.7301C10.7774 78.7256 11.1037 78.4045 11.1173 77.9976L11.2487 73.6387H8.28923V73.6432Z" fill="#4B3D60"/>
<path d="M80.8129 63.6251L82.6167 73.7627H85.2998L84.0262 60.6543C82.6847 61.2783 81.6151 62.3318 80.8083 63.6205L80.8129 63.6251Z" fill="#C5C5D8"/>
<path d="M80.8135 63.6232C81.6202 62.3345 82.6898 61.2764 84.0314 60.657L83.7186 57.4375H79.7122L80.8135 63.6232Z" fill="#C5C5D8"/>
<path d="M82.5347 73.7656L82.6707 78.1607C82.6843 78.5451 82.997 78.8525 83.3822 78.8571L86.0743 78.8887C86.5593 78.8932 86.9128 78.4275 86.7723 77.9618L85.4987 73.7656H82.5392H82.5347Z" fill="#4B3D60"/>
<path d="M4.35034 53.459V57.4381H10.0518H14.0492H79.7117H83.7182H88.6764V53.459H4.35034Z" fill="#DADAEA"/>
<path d="M69.3693 39.2927C70.0672 39.148 70.7606 38.9988 71.4586 38.8451C75.0028 38.0628 78.4563 37.1268 81.8373 36.0552C81.6742 35.6663 81.502 35.2729 81.3297 34.875L66.1016 35.0468C67.1712 36.5526 68.2815 38.0131 69.3693 39.2927Z" fill="#5D507F"/>
<path d="M85.5042 34.8242C85.5042 34.8242 85.4996 34.8242 85.4951 34.8242L84.8289 34.8333L84.9014 35.0322C85.1008 34.9644 85.3048 34.8966 85.5042 34.8242Z" fill="#6B979B"/>
<path d="M29.5864 37.7053L27.9548 40.1244C27.497 40.8027 27.4562 41.5714 27.71 42.2316C40.4364 43.0093 53.0087 42.3536 65.8621 39.9843C65.8167 39.8938 65.7669 39.8034 65.708 39.7175L62.6125 35.0918L31.1092 35.4445L29.5818 37.7099L29.5864 37.7053Z" fill="#5D507F"/>
<path d="M12.6993 35.6458C11.9877 37.3008 11.3623 38.8608 10.8728 40.1268C12.6449 40.5971 14.4578 40.9317 16.2842 41.1623C18.3963 41.4245 20.4947 41.6506 22.5931 41.8405C23.8712 40.6649 25.2535 39.0552 26.6222 37.2736C27.0709 36.6903 27.515 36.0889 27.9547 35.4785L12.6993 35.6503V35.6458Z" fill="#5D507F"/>
<path d="M9.6715 35.6764L6.01855 35.7171C4.7586 35.7397 3.66179 36.1512 2.9729 36.7661C4.6906 37.8468 6.53068 38.7059 8.44327 39.3751L9.6715 35.6719V35.6764Z" fill="#5D507F"/>
<path d="M10.8724 40.127C10.7365 40.4796 10.6096 40.8097 10.4963 41.1127C10.0793 42.2069 10.6685 43.4323 11.7154 43.6539C13.5057 44.0382 16.3519 44.3819 19.5017 43.7669C20.3991 43.5906 21.4596 42.8852 22.5972 41.8407C20.4988 41.6508 18.4004 41.4247 16.2884 41.1624C14.4619 40.9363 12.6445 40.5972 10.877 40.127H10.8724Z" fill="#4D4669"/>
<path d="M89.1622 46.6805H89.5837C89.7288 46.6805 89.8738 46.6986 90.0098 46.7348L91.2108 38.9213C91.5507 36.7056 88.8812 34.793 85.5093 34.8246C85.3098 34.897 85.1059 34.9648 84.9065 35.0326L89.1667 46.6805H89.1622Z" fill="#4D4669"/>
<path d="M69.3696 39.2903C71.4001 41.6868 73.358 43.4638 74.8672 43.7622C78.0171 44.3817 80.8633 44.0335 82.6535 43.6492C83.7004 43.4276 84.2851 42.2022 83.8727 41.108C83.3832 39.8148 82.6762 38.0106 81.8422 36.0527C78.4612 37.1244 75.0031 38.0604 71.4635 38.8426C70.7655 38.9964 70.0676 39.1456 69.3742 39.2903H69.3696Z" fill="#4D4669"/>
<path d="M27.7148 42.2232C28.0593 43.1185 28.9567 43.8103 30.1124 43.7968L63.6189 43.3808C65.4771 43.3582 66.6328 41.5133 65.8669 39.9805C53.009 42.3498 40.4413 43.0055 27.7148 42.2278V42.2232Z" fill="#4D4669"/>
<path d="M8.44248 39.3785C6.52989 38.7093 4.68982 37.8502 2.97212 36.7695C2.41012 37.2714 2.11552 37.909 2.22883 38.5827L3.55225 46.6811H6.02681L8.44702 39.3785H8.44248Z" fill="#4D4669"/>
<path d="M19.5244 24.1866C22.2799 22.4412 29.0601 22.7215 32.8989 23.0516C34.177 23.1601 34.8658 24.7427 34.1543 25.9365C32.7176 28.342 30.4197 32.0543 27.9497 35.4727C27.5101 36.0832 27.0614 36.6845 26.6173 37.2678C27.6053 37.4306 28.5933 37.5708 29.5858 37.7019L31.1132 35.4366L37.4809 25.9952C37.9477 25.3034 38.759 24.8874 39.6246 24.892C42.9331 24.9191 51.2407 24.9914 54.531 25.0186C55.3831 25.0276 56.1762 25.4436 56.634 26.1264L62.553 34.9753C63.4595 34.6181 64.3478 34.2247 65.227 33.7907C63.2193 30.8787 61.4109 27.9486 60.2099 25.9319C59.4983 24.7382 60.1872 23.1556 61.4653 23.0471C65.3041 22.7215 72.0842 22.4412 74.8398 24.1821C75.3157 24.4805 75.8142 24.9824 76.3309 25.6335C77.2464 24.6975 78.0939 23.7118 78.8463 22.6718C77.0697 21.2339 74.8217 20.3929 72.4241 20.3883L22.1938 20.2617C17.7749 20.2527 13.8455 23.0742 12.4587 27.2613L10.5325 33.0762C11.4616 33.447 12.4043 33.7997 13.3651 34.1207C15.2822 29.8342 17.6254 25.3803 19.5289 24.1775L19.5244 24.1866Z" fill="white"/>
<path d="M6.02299 46.6828H89.1571L84.8968 35.0349L84.8243 34.836L81.9962 27.1039C81.3481 25.3314 80.2377 23.8166 78.8373 22.6816C78.0849 23.7216 77.2374 24.7074 76.3219 25.6434C77.9943 27.755 79.8162 31.4356 81.3254 34.8767C81.4977 35.2746 81.6699 35.668 81.833 36.0568C82.6624 38.0147 83.3695 39.8189 83.8635 41.1121C84.2804 42.2063 83.6913 43.4317 82.6443 43.6533C80.8541 44.0376 78.0079 44.3813 74.858 43.7663C73.3488 43.4724 71.3909 41.6909 69.3605 39.2944C68.2727 38.0102 67.1623 36.5497 66.0927 35.0485C65.7981 34.6325 65.5035 34.2165 65.218 33.8005C64.3388 34.2346 63.4459 34.628 62.544 34.9852L62.612 35.0892L65.7075 39.7149C65.7664 39.8053 65.8163 39.8912 65.8616 39.9817C66.6275 41.5145 65.4763 43.3594 63.6136 43.382L30.1071 43.798C28.9514 43.8115 28.054 43.1197 27.7095 42.2244C27.4557 41.5643 27.4965 40.8001 27.9543 40.1173L29.5859 37.6982C28.5979 37.5716 27.6098 37.4269 26.6173 37.2641C25.2486 39.0457 23.8708 40.6554 22.5882 41.831C21.4506 42.8755 20.39 43.5809 19.4927 43.7573C16.3428 44.3768 13.4966 44.0286 11.7064 43.6442C10.6594 43.4227 10.0748 42.1973 10.4872 41.103C10.6005 40.8001 10.7274 40.47 10.8634 40.1173C11.3529 38.8512 11.9828 37.2913 12.6898 35.6363C12.9028 35.1389 13.1249 34.6325 13.3515 34.1261C12.3953 33.8005 11.4526 33.4523 10.5189 33.0815L9.66233 35.6725L8.43409 39.3758L6.01392 46.6783L6.02299 46.6828Z" fill="#F3EEFF"/>
<path d="M91.034 51.8358C91.0974 51.8358 91.1564 51.8448 91.2153 51.8584C91.2969 51.6549 91.3467 51.4288 91.3467 51.1982V48.44C91.3467 47.617 90.7802 46.9297 90.0142 46.7398C89.8783 46.7082 89.7378 46.6855 89.5882 46.6855H3.42207C2.45218 46.6855 1.66357 47.4723 1.66357 48.44V51.1982C1.66357 51.4243 1.70891 51.6413 1.78595 51.8403H91.034V51.8358Z" fill="#DADAEA"/>
<path d="M91.2102 51.8566C91.1513 51.843 91.0924 51.834 91.0289 51.834H1.59509C1.1464 51.834 0.779297 52.2003 0.779297 52.6479C0.779297 53.0955 1.1464 53.4618 1.59509 53.4618H91.0289C91.4776 53.4618 91.8447 53.0955 91.8447 52.6479C91.8447 52.2636 91.5728 51.938 91.2102 51.8566Z" fill="white"/>
</svg>
