<svg width="116" height="134" viewBox="0 0 116 134" fill="none" xmlns="http://www.w3.org/2000/svg">
<path d="M97.2526 53.3092C96.7542 52.3069 95.8148 51.5916 94.7106 51.3851C84.7533 49.526 67.4307 50.4134 60.3529 50.8916C58.3323 51.0293 56.5686 52.3222 55.8554 54.2157C54.1991 58.611 52.8265 62.9526 51.7644 66.9194C55.9014 71.0545 61.4456 73.3191 67.1853 74.4934C67.4882 74.2448 67.818 74.0038 68.1439 73.6442C69.0717 72.6152 68.3164 67.2905 65.1647 66.0549C68.6231 65.7451 70.2756 67.5315 70.2756 67.5315C70.2756 67.5315 70.3255 64.0964 67.3847 62.9641C71.2073 62.8111 75.954 68.5949 75.954 68.5949C75.954 68.5949 80.601 71.1004 81.7359 69.1457C82.8708 67.1872 85.7617 65.2822 88.6565 64.7161C85.7655 66.9844 86.333 72.8027 86.333 72.8027C86.333 72.8027 92.4254 70.3315 93.1999 68.5796C93.2728 70.7676 91.9883 73.1967 90.6387 75.1246C93.6409 74.7268 96.6123 74.1147 99.5301 73.2464C100.347 67.1528 100.362 59.5596 97.2488 53.313L97.2526 53.3092Z" fill="#5D507F"/>
<path d="M93.2001 68.5756C92.4256 70.3276 86.3332 72.7987 86.3332 72.7987C86.3332 72.7987 85.7657 66.9767 88.6567 64.7121C85.7657 65.2783 82.8748 67.1832 81.7361 69.1418C80.6012 71.1003 75.9542 68.5909 75.9542 68.5909C75.9542 68.5909 71.2037 62.8033 67.3849 62.9602C70.3295 64.0924 70.2758 67.5275 70.2758 67.5275C70.2758 67.5275 68.6233 65.7411 65.1649 66.051C68.3128 67.2865 69.0719 72.6113 68.1441 73.6403C67.8182 74.0037 67.4846 74.2447 67.1855 74.4895C61.4458 73.3151 55.9055 71.0467 51.7646 66.9155C49.4488 75.5682 48.6091 82.4651 49.5408 84.3892C49.7018 84.722 58.2021 84.8062 58.5702 84.7985L86.2948 84.3586C87.6023 84.6264 88.396 84.7985 88.396 84.7985C88.396 84.7985 88.5493 84.6188 88.81 84.3204L96.3326 84.2018C96.7391 84.1942 97.0956 83.934 97.2221 83.5477C97.7052 82.0597 98.8747 78.1311 99.5303 73.2424C96.6125 74.1108 93.6411 74.7228 90.6389 75.1206C91.9885 73.1927 93.273 70.7637 93.2001 68.5756Z" fill="#4D4669"/>
<path d="M45.9062 100.766L44.8289 111.855H47.0987L48.6246 103.279C47.9422 102.189 47.0373 101.294 45.9024 100.769L45.9062 100.766Z" fill="#C5C5D8"/>
<path d="M45.9055 100.767C47.0404 101.295 47.9453 102.186 48.6277 103.276L49.5403 98.1426H46.1586L45.9055 100.763V100.767Z" fill="#C5C5D8"/>
<path d="M44.6674 111.855L43.6015 115.363C43.475 115.776 43.7894 116.193 44.2226 116.186L46.4273 116.159C46.7723 116.155 47.0484 115.883 47.0599 115.539L47.1711 111.852H44.6674V111.855Z" fill="#4B3D60"/>
<path d="M106.021 103.38L107.547 111.957H109.817L108.739 100.867C107.604 101.395 106.7 102.286 106.017 103.377L106.021 103.38Z" fill="#C5C5D8"/>
<path d="M106.021 103.377C106.704 102.287 107.609 101.392 108.744 100.868L108.479 98.1445H105.09L106.021 103.377Z" fill="#C5C5D8"/>
<path d="M107.478 111.959L107.593 115.677C107.604 116.002 107.869 116.262 108.195 116.266L110.472 116.293C110.882 116.297 111.181 115.903 111.062 115.509L109.985 111.959H107.481H107.478Z" fill="#4B3D60"/>
<path d="M41.3352 94.7793V98.1455H46.1585H49.5402H105.089H108.479H112.673V94.7793H41.3352Z" fill="#DADAEA"/>
<path d="M96.3396 82.7959C96.93 82.6735 97.5167 82.5472 98.1071 82.4172C101.105 81.7554 104.027 80.9636 106.887 80.057C106.749 79.728 106.604 79.3952 106.458 79.0586L93.5752 79.204C94.4801 80.4778 95.4194 81.7133 96.3396 82.7959Z" fill="#5D507F"/>
<path d="M109.99 79.0156C109.99 79.0156 109.986 79.0156 109.982 79.0156L109.418 79.0233L109.48 79.1916C109.648 79.1342 109.821 79.0768 109.99 79.0156Z" fill="#6B979B"/>
<path d="M62.6843 81.4532L61.304 83.4997C60.9168 84.0735 60.8823 84.7238 61.097 85.2823C71.8632 85.9402 82.4991 85.3855 93.3727 83.3811C93.3344 83.3046 93.2922 83.2281 93.2424 83.1554L90.6237 79.2422L63.9726 79.5406L62.6805 81.457L62.6843 81.4532Z" fill="#5D507F"/>
<path d="M48.3982 79.7099C47.7962 81.1099 47.2671 82.4297 46.853 83.5007C48.3522 83.8986 49.8858 84.1816 51.431 84.3767C53.2177 84.5986 54.9929 84.7898 56.7681 84.9505C57.8494 83.9559 59.0187 82.5941 60.1767 81.087C60.5562 80.5935 60.932 80.0848 61.3039 79.5684L48.3982 79.7137V79.7099Z" fill="#5D507F"/>
<path d="M45.8368 79.7362L42.7465 79.7707C41.6806 79.7898 40.7527 80.1379 40.1699 80.6581C41.6231 81.5724 43.1797 82.2992 44.7977 82.8653L45.8368 79.7324V79.7362Z" fill="#5D507F"/>
<path d="M46.8528 83.5C46.7378 83.7984 46.6304 84.0776 46.5346 84.3339C46.1818 85.2596 46.6803 86.2963 47.566 86.4837C49.0804 86.8088 51.4883 87.0996 54.153 86.5793C54.9122 86.4301 55.8093 85.8334 56.7717 84.9498C54.9965 84.7891 53.2213 84.5978 51.4346 84.376C49.8894 84.1847 48.3519 83.8978 46.8566 83.5H46.8528Z" fill="#4D4669"/>
<path d="M113.084 89.0458H113.441C113.563 89.0458 113.686 89.0611 113.801 89.0917L114.817 82.4816C115.105 80.6073 112.846 78.9892 109.994 79.016C109.825 79.0772 109.653 79.1345 109.484 79.1919L113.088 89.0458H113.084Z" fill="#4D4669"/>
<path d="M96.3401 82.7936C98.0578 84.821 99.7141 86.3243 100.991 86.5767C103.656 87.1008 106.063 86.8063 107.578 86.4811C108.464 86.2937 108.958 85.257 108.609 84.3313C108.195 83.2373 107.597 81.711 106.892 80.0547C104.031 80.9613 101.106 81.7531 98.1115 82.4149C97.521 82.5449 96.9305 82.6712 96.3439 82.7936H96.3401Z" fill="#4D4669"/>
<path d="M61.1011 85.2743C61.3925 86.0317 62.1516 86.6169 63.1293 86.6055L91.4751 86.2535C93.0471 86.2344 94.0248 84.6737 93.3768 83.377C82.4994 85.3814 71.8673 85.936 61.1011 85.2781V85.2743Z" fill="#4D4669"/>
<path d="M44.7972 82.8673C43.1792 82.3012 41.6225 81.5744 40.1694 80.6602C39.6939 81.0848 39.4447 81.6241 39.5406 82.1941L40.6601 89.0451H42.7536L44.801 82.8673H44.7972Z" fill="#4D4669"/>
<path d="M54.1721 70.0156C56.5033 68.5391 62.2392 68.7763 65.4867 69.0555C66.5679 69.1473 67.1507 70.4862 66.5487 71.496C65.3333 73.5311 63.3894 76.6716 61.2998 79.5635C60.9279 80.0799 60.5483 80.5887 60.1726 81.0821C61.0084 81.2198 61.8442 81.3384 62.6839 81.4493L63.976 79.5329L69.363 71.5458C69.7579 70.9605 70.4442 70.6086 71.1765 70.6124C73.9754 70.6353 81.0034 70.6965 83.787 70.7195C84.5078 70.7272 85.1788 71.0791 85.566 71.6567L90.5734 79.1427C91.3402 78.8405 92.0917 78.5077 92.8355 78.1405C91.137 75.677 89.6072 73.1983 88.5912 71.4922C87.9892 70.4823 88.572 69.1435 89.6532 69.0517C92.9007 68.7763 98.6366 68.5391 100.968 70.0118C101.37 70.2643 101.792 70.6889 102.229 71.2397C103.004 70.4479 103.721 69.614 104.357 68.7342C102.854 67.5178 100.952 66.8063 98.9242 66.8024L56.4304 66.6953C52.6922 66.6877 49.3679 69.0746 48.1947 72.6168L46.5652 77.5361C47.3512 77.8498 48.1487 78.1481 48.9615 78.4197C50.5834 74.7934 52.5656 71.0255 54.176 70.008L54.1721 70.0156Z" fill="white"/>
<path d="M42.7504 89.0466H113.08L109.476 79.1928L109.415 79.0245L107.022 72.4833C106.474 70.9838 105.534 69.7023 104.35 68.7422C103.713 69.622 102.996 70.4559 102.222 71.2477C103.636 73.0341 105.178 76.1479 106.455 79.0589C106.6 79.3955 106.746 79.7283 106.884 80.0573C107.586 81.7136 108.184 83.2399 108.602 84.3339C108.954 85.2596 108.456 86.2963 107.57 86.4837C106.056 86.8089 103.648 87.0996 100.983 86.5794C99.7064 86.3307 98.0501 84.8236 96.3324 82.7962C95.4122 81.7098 94.4729 80.4742 93.568 79.2043C93.3188 78.8523 93.0696 78.5004 92.828 78.1485C92.0842 78.5157 91.3289 78.8485 90.5659 79.1507L90.6234 79.2387L93.2421 83.1519C93.292 83.2284 93.3341 83.3011 93.3725 83.3776C94.0204 84.6744 93.0465 86.2351 91.4707 86.2542L63.1249 86.6061C62.1472 86.6176 61.3881 86.0323 61.0967 85.2749C60.882 84.7165 60.9165 84.07 61.3037 83.4924L62.684 81.4459C61.8482 81.3388 61.0123 81.2163 60.1727 81.0786C59.0148 82.5858 57.8492 83.9476 56.7641 84.9421C55.8018 85.8258 54.9046 86.4225 54.1454 86.5717C51.4807 87.0958 49.0728 86.8012 47.5584 86.4761C46.6727 86.2886 46.1781 85.252 46.527 84.3263C46.6228 84.07 46.7302 83.7907 46.8452 83.4924C47.2593 82.4213 47.7922 81.1016 48.3904 79.7015C48.5706 79.2808 48.7584 78.8523 48.9501 78.4239C48.1411 78.1485 47.3436 77.8539 46.5538 77.5403L45.8292 79.7321L44.7901 82.865L42.7427 89.0428L42.7504 89.0466Z" fill="#F3EEFF"/>
<path d="M114.668 93.4058C114.721 93.4058 114.771 93.4134 114.821 93.4249C114.89 93.2528 114.932 93.0615 114.932 92.8664V90.533C114.932 89.8368 114.453 89.2554 113.805 89.0947C113.69 89.068 113.571 89.0488 113.445 89.0488H40.5499C39.7294 89.0488 39.0623 89.7144 39.0623 90.533V92.8664C39.0623 93.0577 39.1006 93.2413 39.1658 93.4096H114.668V93.4058Z" fill="#DADAEA"/>
<path d="M114.817 93.4234C114.767 93.412 114.717 93.4043 114.663 93.4043H39.0043C38.6248 93.4043 38.3142 93.7141 38.3142 94.0928C38.3142 94.4716 38.6248 94.7814 39.0043 94.7814H114.663C115.043 94.7814 115.354 94.4716 115.354 94.0928C115.354 93.7677 115.123 93.4923 114.817 93.4234Z" fill="white"/>
<path d="M3.23037 112.851V112.172C2.64586 111.877 2.24251 111.274 2.24251 110.573C2.24251 109.583 3.04439 108.781 4.03466 108.781C5.02493 108.781 5.82681 109.583 5.82681 110.573C5.82681 111.274 5.42346 111.877 4.83896 112.172V112.851C4.83896 113.186 4.59743 113.467 4.27861 113.527C4.2931 113.669 4.31001 113.812 4.32691 113.954H5.87512C6.77119 113.954 7.49578 113.23 7.49578 112.334V108.81C7.49578 108.428 7.36294 108.078 7.14315 107.803C6.83882 108.51 6.43788 109.131 5.95965 109.67C5.6191 108.948 4.88726 108.445 4.03466 108.445C2.85841 108.445 1.90678 109.397 1.90678 110.573C1.90678 111.102 2.10242 111.585 2.42124 111.959C1.82949 112.17 1.21118 112.329 0.578369 112.445C0.633921 113.288 1.33436 113.957 2.1942 113.957H3.89457C3.87767 113.817 3.86317 113.679 3.84868 113.539C3.50088 113.503 3.23037 113.211 3.23037 112.853V112.851Z" fill="#D6C8D3"/>
<path d="M17.611 60.3487C17.5313 62.223 17.8888 64.1528 18.2366 66.0174C18.4008 66.899 18.5699 67.8096 18.6858 68.6887C19.7365 76.5964 20.1326 84.4341 19.8621 91.9819C19.6978 96.5734 19.408 102.01 18.4878 107.517L18.4491 107.749C17.9081 110.995 17.3477 114.35 15.8599 117.301C14.7199 119.565 12.7925 121.282 10.952 121.673C9.64776 121.951 8.39905 121.61 7.2373 120.664C6.21563 119.83 5.41616 118.565 4.92827 117.007C4.61911 116.024 4.44763 115 4.32445 113.951C4.30754 113.809 4.29063 113.666 4.27614 113.524C4.23508 113.531 4.19161 113.536 4.14813 113.536H3.91868C3.89452 113.536 3.87279 113.536 3.84863 113.534C3.86312 113.674 3.88003 113.814 3.89452 113.951C4.02253 115.041 4.19885 116.106 4.5225 117.135C5.03696 118.772 5.88231 120.108 6.9692 120.994C7.94739 121.794 8.98839 122.195 10.0753 122.195C10.3941 122.195 10.7177 122.161 11.0438 122.091C12.6041 121.758 14.7923 120.376 16.2439 117.492C17.7607 114.483 18.3259 111.094 18.8718 107.817L18.9104 107.585C19.8355 102.054 20.1277 96.5999 20.2896 91.994C20.5601 84.422 20.1616 76.5602 19.1085 68.6284C18.9901 67.7395 18.8187 66.8217 18.6544 65.9353C18.3114 64.0924 17.9564 62.1892 18.0361 60.3632C18.1714 57.2161 19.664 55.0616 22.1228 54.3201C22.1445 54.1704 22.1687 54.0158 22.1952 53.8516C19.437 54.581 17.7559 56.9069 17.6086 60.3463L17.611 60.3487Z" fill="#684B5C"/>
<path d="M1.90673 110.573C1.90673 109.397 2.85836 108.445 4.03461 108.445C4.88721 108.445 5.61904 108.948 5.9596 109.67C6.43783 109.131 6.83877 108.511 7.1431 107.803C6.84602 107.431 6.38952 107.189 5.87507 107.189H2.19415C1.29808 107.189 0.573486 107.914 0.573486 108.81V112.334C0.573486 112.37 0.575902 112.406 0.578317 112.443C1.21112 112.327 1.82703 112.167 2.42119 111.957C2.09995 111.585 1.90673 111.102 1.90673 110.571V110.573Z" fill="#F3E8F1"/>
<path d="M3.23002 110.856C3.23002 110.477 3.53918 110.168 3.91838 110.168H4.14783C4.52703 110.168 4.83619 110.477 4.83619 110.856V112.17C5.42069 111.876 5.82405 111.272 5.82405 110.571C5.82405 109.581 5.02217 108.779 4.0319 108.779C3.04162 108.779 2.23975 109.581 2.23975 110.571C2.23975 111.272 2.6431 111.876 3.2276 112.17V110.856H3.23002Z" fill="#4C3D50"/>
<path d="M4.8364 112.851V110.858C4.8364 110.479 4.52724 110.17 4.14804 110.17H3.91858C3.53938 110.17 3.23022 110.479 3.23022 110.858V112.851C3.23022 113.208 3.50074 113.501 3.84854 113.537C3.87269 113.537 3.89443 113.539 3.91858 113.539H4.14804C4.19151 113.539 4.23499 113.534 4.27605 113.527C4.59487 113.467 4.8364 113.187 4.8364 112.851Z" fill="#614E67"/>
<path d="M23.8115 37.5474C23.297 36.6272 22.7657 35.6731 22.343 34.6539C21.6015 32.8714 21.8068 30.6976 22.0073 28.5939C22.0773 27.85 22.1498 27.0867 22.1787 26.3477C22.1304 26.3766 22.0749 26.3935 22.0145 26.3935C21.9541 26.3935 21.9034 26.3791 21.8575 26.3501C21.8285 27.0747 21.7585 27.8282 21.6884 28.5601C21.4856 30.7024 21.2754 32.9173 22.0483 34.7722C22.4807 35.8084 23.0144 36.7697 23.5337 37.6996C24.5409 39.5038 25.4949 41.2186 25.6737 43.3659H25.9949C25.8186 41.1365 24.8428 39.3879 23.8139 37.5426L23.8115 37.5474Z" fill="#FFCE6E"/>
<path d="M31.1026 61.3164C31.0688 61.3261 31.0325 61.3333 30.9963 61.3333H30.1968C30.1606 61.3333 30.1244 61.3261 30.0906 61.3164V123.742C30.3949 123.595 30.7355 123.479 31.1026 123.399V61.3164Z" fill="#EAE9F3"/>
<path d="M30.1968 42.3048H30.9963C31.0325 42.3048 31.0688 42.312 31.1026 42.3217V8.79492H30.0906V42.3217C30.1244 42.312 30.1606 42.3048 30.1968 42.3048Z" fill="#EAE9F3"/>
<path d="M30.0906 128.052L31.1026 128.064V127.055H30.0906V128.052Z" fill="#EAE9F3"/>
<path d="M31.1026 3.31553C31.0519 3.37349 30.9794 3.40972 30.8973 3.40972H30.3224C30.2234 3.40972 30.1365 3.35659 30.0906 3.2793V7.94082H31.1026V3.31553Z" fill="#EAE9F3"/>
<path d="M42.1744 131.279C42.1744 132.079 41.5247 132.728 40.7252 132.728C39.9257 132.728 39.276 132.079 39.276 131.279C39.276 130.955 39.3847 130.656 39.5634 130.414L39.3726 130.023L39.2277 129.724C38.8195 130.117 38.5659 130.668 38.5659 131.279C38.5659 132.472 39.532 133.438 40.7252 133.438C41.9184 133.438 42.8845 132.472 42.8845 131.279C42.8845 130.644 42.6067 130.071 42.1695 129.678L41.8604 130.383C42.056 130.629 42.1744 130.941 42.1744 131.281V131.279Z" fill="#4C3D50"/>
<path d="M40.725 132.729C41.5245 132.729 42.1742 132.079 42.1742 131.279C42.1742 130.939 42.0559 130.63 41.8602 130.381L41.481 131.241C41.1984 131.886 40.2903 131.902 39.9811 131.272L39.5609 130.415C39.3797 130.656 39.2734 130.956 39.2734 131.279C39.2734 132.079 39.9232 132.729 40.7226 132.729H40.725Z" fill="#B99DB6"/>
<path d="M39.3726 130.022L39.5634 130.413L39.9836 131.271C40.2928 131.903 41.1985 131.884 41.4835 131.239L41.8627 130.379L42.1719 129.674L42.3724 129.22C42.5294 128.863 42.411 128.479 42.1453 128.254C41.6719 129.379 40.5464 130.027 39.375 130.019L39.3726 130.022Z" fill="#EDE2EC"/>
<path d="M32.0472 131.279C32.0472 132.079 31.3975 132.728 30.598 132.728C29.7985 132.728 29.1488 132.079 29.1488 131.279C29.1488 130.955 29.2575 130.656 29.4362 130.414L29.2454 130.023L29.1005 129.724C28.6923 130.117 28.4387 130.668 28.4387 131.279C28.4387 132.472 29.4048 133.438 30.598 133.438C31.7912 133.438 32.7573 132.472 32.7573 131.279C32.7573 130.644 32.4795 130.071 32.0423 129.678L31.7332 130.383C31.9288 130.629 32.0472 130.941 32.0472 131.281V131.279Z" fill="#4C3D50"/>
<path d="M30.5978 132.729C31.3973 132.729 32.047 132.079 32.047 131.279C32.047 130.939 31.9287 130.63 31.733 130.381L31.3538 131.241C31.0712 131.886 30.1631 131.902 29.8539 131.272L29.4337 130.415C29.2525 130.656 29.1462 130.956 29.1462 131.279C29.1462 132.079 29.796 132.729 30.5954 132.729H30.5978Z" fill="#B99DB6"/>
<path d="M29.6099 128.043C28.994 128.036 28.5883 128.681 28.8588 129.234L29.1003 129.726L29.2452 130.026C30.4142 130.031 31.5422 129.386 32.0156 128.26C31.8779 128.144 31.6992 128.07 31.4963 128.067L31.105 128.062L30.093 128.05L29.6123 128.045L29.6099 128.043Z" fill="white"/>
<path d="M29.2454 130.022L29.4362 130.413L29.8564 131.271C30.1656 131.903 31.0713 131.884 31.3563 131.239L31.7355 130.379L32.0447 129.674L32.2452 129.22C32.4022 128.863 32.2838 128.479 32.0181 128.254C31.5447 129.379 30.4192 130.027 29.2478 130.019L29.2454 130.022Z" fill="#EDE2EC"/>
<path d="M21.9175 131.279C21.9175 132.079 21.2678 132.728 20.4684 132.728C19.6689 132.728 19.0192 132.079 19.0192 131.279C19.0192 130.955 19.1279 130.656 19.3066 130.414L19.1158 130.023L18.9709 129.724C18.5627 130.117 18.3091 130.668 18.3091 131.279C18.3091 132.472 19.2752 133.438 20.4684 133.438C21.6615 133.438 22.6276 132.472 22.6276 131.279C22.6276 130.644 22.3499 130.071 21.9127 129.678L21.6035 130.383C21.7992 130.629 21.9175 130.941 21.9175 131.281V131.279Z" fill="#4C3D50"/>
<path d="M20.4677 132.729C21.2672 132.729 21.9169 132.079 21.9169 131.279C21.9169 130.939 21.7985 130.63 21.6029 130.381L21.2237 131.241C20.9411 131.886 20.033 131.902 19.7238 131.272L19.3035 130.415C19.1224 130.656 19.0161 130.956 19.0161 131.279C19.0161 132.079 19.6658 132.729 20.4653 132.729H20.4677Z" fill="#B99DB6"/>
<path d="M19.1179 130.022L19.3087 130.413L19.729 131.271C20.0381 131.903 20.9439 131.884 21.2289 131.239L21.6081 130.379L21.9173 129.674L22.1177 129.22C22.2747 128.863 22.1564 128.479 21.8907 128.254C21.4173 129.379 20.2918 130.027 19.1203 130.019L19.1179 130.022Z" fill="#EDE2EC"/>
<path d="M23.8859 4.51872V3.35938C23.8424 3.39077 23.7893 3.40768 23.7313 3.40768H23.1565C23.1106 3.40768 23.0671 3.3956 23.0309 3.37628V4.51872C23.0309 4.86169 22.8666 5.16843 22.6106 5.36407H23.6878C23.8134 5.10805 23.8859 4.82305 23.8859 4.51872Z" fill="#EFE3EF"/>
<path d="M20.9053 4.51964V3.37962C20.8691 3.39894 20.828 3.40861 20.7845 3.40861H20.2097C20.1493 3.40861 20.0962 3.38928 20.0503 3.35547V4.51723C20.0503 4.82155 20.1228 5.10656 20.2483 5.36258H21.3256C21.072 5.16936 20.9053 4.86261 20.9053 4.51723V4.51964Z" fill="#EFE3EF"/>
<path d="M17.6688 11.1358V9.86057C17.6688 9.33403 18.1012 8.90169 18.6277 8.90169H25.3205C25.847 8.90169 26.2794 9.33403 26.2794 9.86057V14.7805C26.3373 14.7274 26.3977 14.6718 26.4533 14.6163C26.5547 14.5197 26.6561 14.4206 26.7552 14.3192C26.7648 14.3095 26.7721 14.3023 26.7817 14.2926C26.9291 14.1429 27.0716 13.9883 27.2092 13.8313C27.2286 13.8096 27.2455 13.7903 27.2648 13.7685V8.793H23.8158C22.7554 8.793 21.8594 8.08049 21.5792 7.10954C21.4053 6.98636 21.2918 6.78106 21.2918 6.55161C21.2918 6.4719 21.3063 6.39461 21.3304 6.32457C21.4246 6.05889 21.6782 5.86808 21.9753 5.86808C22.2724 5.86808 22.5236 6.05889 22.6202 6.32215C22.6467 6.39461 22.6612 6.4719 22.6612 6.55161C22.6612 6.74242 22.584 6.9139 22.4584 7.03708C22.683 7.56603 23.2071 7.93799 23.8182 7.93799H27.2672V6.6458C27.2672 5.94054 26.69 5.36328 25.9847 5.36328H17.9683C17.263 5.36328 16.6858 5.94054 16.6858 6.6458V18.5025C17.0143 18.5049 17.3428 18.4953 17.6712 18.4759V11.1358H17.6688Z" fill="white"/>
<path d="M25.3209 8.90234H18.6281C18.1015 8.90234 17.6692 9.33468 17.6692 9.86122V11.1365H26.2773V9.86122C26.2773 9.33468 25.845 8.90234 25.3184 8.90234H25.3209Z" fill="#EFE3EF"/>
<path d="M26.2773 14.7819V11.1348H17.6692V18.4749C20.826 18.272 23.9345 16.946 26.2773 14.7795V14.7819Z" fill="#FFD99C"/>
<path d="M17.6692 18.4771V21.1146C17.6692 21.6412 18.1015 22.0735 18.6281 22.0735H25.3209C25.8474 22.0735 26.2797 21.6412 26.2797 21.1146V14.7793C23.9345 16.9434 20.826 18.2718 17.6716 18.4747L17.6692 18.4771Z" fill="#FFCE6E"/>
<path d="M23.7916 23.6582C24.0862 23.6582 24.3278 23.4191 24.3278 23.122V22.9988H25.9822C26.6875 22.9988 27.2648 22.4216 27.2648 21.7163V13.7676C27.2454 13.7893 27.2285 13.8086 27.2092 13.8304C27.0691 13.9874 26.9266 14.1419 26.7817 14.2917C26.7721 14.3014 26.7648 14.3086 26.7551 14.3183C26.6561 14.4197 26.5547 14.5187 26.4532 14.6153C26.3953 14.6709 26.3373 14.724 26.2793 14.7796V21.1149C26.2793 21.6415 25.847 22.0738 25.3205 22.0738H18.6277C18.1011 22.0738 17.6688 21.6415 17.6688 21.1149V18.4774C17.3403 18.4967 17.0118 18.5064 16.6833 18.504V21.7187C16.6833 22.424 17.2606 23.0013 17.9659 23.0013H19.7049V23.1244C19.7049 23.4191 19.944 23.6606 20.2411 23.6606H23.794L23.7916 23.6582Z" fill="#EFE3EF"/>
<path d="M22.1762 26.3464C22.239 26.3078 22.2873 26.2498 22.3139 26.1798L22.6472 25.2161C22.7414 24.948 22.7873 24.6654 22.7873 24.3804C22.7873 24.2427 22.6979 24.1268 22.5771 24.0809V23.6582H21.454V24.0809C21.3308 24.1244 21.2439 24.2403 21.2439 24.3804V24.3852C21.2439 24.6654 21.2898 24.9456 21.3816 25.2112L21.7125 26.1774C21.739 26.2522 21.7898 26.3126 21.8574 26.3513C21.9033 26.3778 21.9588 26.3947 22.0144 26.3947C22.0748 26.3947 22.1303 26.3778 22.1786 26.3488L22.1762 26.3464Z" fill="#513647"/>
<path d="M22.4561 7.03665C22.3812 6.86034 22.3401 6.66711 22.3401 6.46181C22.3401 6.44008 22.3377 6.42075 22.3329 6.39902C22.4295 6.37969 22.5261 6.35312 22.6179 6.31931C22.5237 6.05363 22.2701 5.86523 21.973 5.86523C21.6759 5.86523 21.4223 6.05604 21.3281 6.32173C21.3813 6.34105 21.4368 6.35796 21.4948 6.37245C21.4875 6.40143 21.4851 6.43041 21.4851 6.46181C21.4851 6.68644 21.5189 6.9014 21.5793 7.1067C21.8595 8.07765 22.7556 8.79016 23.8159 8.79016H34.0012V7.93514H23.8159C23.2072 7.93514 22.6807 7.56319 22.4561 7.03424V7.03665Z" fill="#EFE3EF"/>
<path d="M38.769 24.2063C38.6458 24.2498 38.5588 24.3658 38.5588 24.5058V24.5107C38.5588 24.7933 38.6047 25.071 38.6965 25.3367L39.0274 26.3028C39.054 26.3777 39.1071 26.4381 39.1723 26.4767C39.1723 26.4188 39.1747 26.3632 39.1772 26.3101L39.4887 26.3221C39.4887 26.3705 39.4839 26.4236 39.4839 26.4767C39.5515 26.4405 39.6047 26.3801 39.6312 26.3028L39.9645 25.3391C40.0587 25.071 40.1046 24.7884 40.1046 24.5034C40.1046 24.3658 40.0153 24.2498 39.8945 24.2039V23.7812H38.7714V24.2039L38.769 24.2063Z" fill="#513647"/>
<path d="M39.6964 5.48828H38.8269C38.9597 5.54866 39.1071 5.58248 39.2617 5.58248C39.4162 5.58248 39.5636 5.54866 39.6964 5.48828Z" fill="white"/>
<path d="M33.9985 18.6275C34.327 18.6299 34.6555 18.6203 34.984 18.6009V9.98557C34.984 9.45903 35.4163 9.02669 35.9429 9.02669H42.6356C43.1622 9.02669 43.5945 9.45903 43.5945 9.98557V14.9055C43.7563 14.7558 43.9158 14.6012 44.0727 14.4442C44.2466 14.2655 44.4181 14.0819 44.5824 13.8935V6.7708C44.5824 6.06554 44.0051 5.48828 43.2998 5.48828H40.9159C40.6841 5.87956 40.3194 6.18389 39.8822 6.33364C39.9426 6.43508 39.9764 6.55343 39.9764 6.67902C39.9764 6.96161 39.8049 7.20556 39.5586 7.30942C39.4764 7.34323 39.3871 7.36255 39.2929 7.36255C39.061 7.36255 38.8581 7.24662 38.7325 7.0703C38.6552 6.9592 38.6069 6.82394 38.6069 6.67661C38.6069 6.55826 38.6359 6.44715 38.689 6.35054C38.2301 6.20804 37.8485 5.89405 37.6094 5.48828H35.2835C34.5782 5.48828 34.0009 6.06554 34.0009 6.7708V18.6275H33.9985Z" fill="white"/>
<path d="M43.5949 9.98426C43.5949 9.45773 43.1626 9.02539 42.636 9.02539H35.9432C35.4167 9.02539 34.9844 9.45773 34.9844 9.98426V11.2595H43.5925V9.98426H43.5949Z" fill="#EFE3EF"/>
<path d="M44.0701 14.4448C43.9155 14.6018 43.7561 14.7563 43.5918 14.9061V21.2414C43.5918 21.7679 43.1595 22.2003 42.633 22.2003H35.9402C35.4136 22.2003 34.9813 21.7679 34.9813 21.2414V18.6039C34.6528 18.6232 34.3243 18.6329 33.9958 18.6305V21.8452C33.9958 22.5505 34.5731 23.1278 35.2784 23.1278H37.0174V23.2509C37.0174 23.5456 37.2565 23.7871 37.5536 23.7871H41.1065C41.4012 23.7871 41.6427 23.548 41.6427 23.2509V23.1278H43.2996C44.0048 23.1278 44.5821 22.5505 44.5821 21.8452V13.8965C44.4179 14.0849 44.2488 14.2684 44.0725 14.4472L44.0701 14.4448Z" fill="#EFE3EF"/>
<path d="M34.9844 18.6023C38.1412 18.3994 41.2497 17.071 43.5925 14.9069V11.2598H34.9844V18.5999V18.6023Z" fill="#F6937C"/>
<path d="M34.9844 18.6041V21.2416C34.9844 21.7681 35.4167 22.2005 35.9432 22.2005H42.636C43.1626 22.2005 43.5949 21.7681 43.5949 21.2416V14.9062C41.2497 17.0704 38.1412 18.3988 34.9868 18.6017L34.9844 18.6041Z" fill="#E6725B"/>
<path d="M38.6891 6.35023C38.7446 6.36714 38.8026 6.38163 38.863 6.39612V6.46616C38.863 6.68354 38.8147 6.88643 38.7301 7.0724C38.8533 7.24872 39.0586 7.36466 39.2905 7.36466C39.3847 7.36466 39.4765 7.34533 39.5562 7.31152C39.6576 7.05067 39.7156 6.76566 39.7156 6.46858V6.38404C39.7711 6.36955 39.8267 6.35506 39.8798 6.33574C40.317 6.18599 40.6817 5.88408 40.9136 5.49038C41.0802 5.20538 41.1792 4.87448 41.1792 4.52185V3.33594C41.1309 3.38183 41.0633 3.41081 40.9908 3.41081H40.416C40.3822 3.41081 40.3532 3.40357 40.3242 3.3939V4.52185C40.3242 4.95177 40.0658 5.32373 39.6962 5.49038C39.5634 5.55077 39.4161 5.58458 39.2615 5.58458C39.1069 5.58458 38.9596 5.55077 38.8267 5.49038C38.4572 5.32373 38.1988 4.95177 38.1988 4.52185V3.36251C38.1553 3.3939 38.1022 3.41081 38.0442 3.41081H37.4693C37.4235 3.41081 37.38 3.39874 37.3438 3.37941V4.52185C37.3438 4.87448 37.4428 5.20538 37.6094 5.49038C37.8485 5.89615 38.2326 6.20773 38.6891 6.35265V6.35023Z" fill="#EFE3EF"/>
<path d="M31.1803 59.1265C31.2479 59.141 31.3132 59.1603 31.3784 59.1821V58.4937C30.8591 58.4889 30.335 58.4744 29.8157 58.4551V59.6869C30.1393 59.2956 30.6586 59.0613 31.1779 59.1265H31.1803Z" fill="#56414F"/>
<path d="M30.9965 61.3293C31.0328 61.3293 31.069 61.322 31.1028 61.3124C31.2598 61.2665 31.3782 61.1216 31.3782 60.9477V59.1797C31.3129 59.1579 31.2477 59.1386 31.1801 59.1241C30.6608 59.0589 30.1415 59.2932 29.8179 59.6845V60.9477C29.8179 61.1216 29.9338 61.2665 30.0932 61.3124C30.127 61.322 30.1633 61.3293 30.1995 61.3293H30.999H30.9965Z" fill="#684B5C"/>
<path d="M30.0137 44.5096C29.9461 44.4951 29.8809 44.4758 29.8157 44.454V45.2269H31.3784V43.9492C31.0547 44.3405 30.5354 44.5748 30.0161 44.5096H30.0137Z" fill="#56414F"/>
<path d="M30.1973 42.3047C30.1611 42.3047 30.1248 42.3119 30.091 42.3216C29.934 42.3675 29.8157 42.5124 29.8157 42.6863V44.4543C29.8809 44.476 29.9461 44.4954 30.0137 44.5099C30.533 44.5751 31.0523 44.3408 31.376 43.9495V42.6863C31.376 42.5124 31.26 42.3675 31.1006 42.3216C31.0668 42.3119 31.0306 42.3047 30.9943 42.3047H30.1949H30.1973Z" fill="#684B5C"/>
<path d="M26.3927 44.3828C26.1922 44.6243 25.8734 44.7693 25.5521 44.7282C25.5111 44.7185 25.47 44.7065 25.429 44.6944V45.2257H26.3902V44.3828H26.3927Z" fill="#56414F"/>
<path d="M26.3932 44.3831V43.6054C26.3932 43.475 26.2869 43.3711 26.1589 43.3711H25.6662C25.5357 43.3711 25.4319 43.4774 25.4319 43.6054V44.6947C25.4705 44.7092 25.5116 44.7212 25.5551 44.7285C25.8763 44.7696 26.1951 44.6246 26.3956 44.3831H26.3932Z" fill="#684B5C"/>
<path d="M38.5635 50.832L38.1988 46.598C38.1311 45.8227 37.4838 45.2285 36.7061 45.2285H24.6489C23.8712 45.2285 23.2239 45.8227 23.1563 46.598L22.7988 50.7547C31.5615 53.7255 38.4765 50.8682 38.5586 50.8344L38.5635 50.832ZM26.1827 49.6558V47.1777C26.1827 46.8468 26.4266 46.5763 26.7237 46.5763H34.4671C34.7642 46.5763 35.0082 46.8468 35.0082 47.1777V49.6558C35.0082 49.9867 34.7642 50.2572 34.4671 50.2572H26.7237C26.4266 50.2572 26.1827 49.9867 26.1827 49.6558Z" fill="#EFE3EF"/>
<path d="M31.3782 58.4915C33.8997 58.5181 36.3464 58.3562 37.8584 57.8659C38.653 57.6075 39.1989 56.8684 39.2182 56.0327C39.2689 53.8783 38.5637 50.8278 38.5637 50.8278C38.4815 50.8616 31.5665 53.7213 22.8038 50.748C22.8038 50.748 22.799 50.748 22.7966 50.748C22.5261 52.0378 22.3304 53.0426 22.1976 53.8541C22.171 54.0184 22.1469 54.1729 22.1251 54.3227C22.0358 54.9338 21.9875 55.4289 21.9754 55.8588C21.944 56.8274 22.6299 57.6703 23.5816 57.8442C25.0404 58.1123 27.3784 58.3587 29.8179 58.4529C30.3372 58.4722 30.8589 58.4867 31.3806 58.4915H31.3782ZM32.3274 56.2235C32.1076 56.2235 31.9192 56.0979 31.8202 55.9168C31.7767 55.8347 31.7501 55.7429 31.7501 55.6439C31.7501 55.325 32.0085 55.0666 32.3274 55.0666C32.4361 55.0666 32.5351 55.098 32.622 55.1487C32.7911 55.2502 32.9046 55.4313 32.9046 55.6439C32.9046 55.9627 32.6462 56.2211 32.3274 56.2211V56.2235ZM34.3586 56.04C34.1388 56.04 33.9504 55.9144 33.8514 55.7332C33.8079 55.6511 33.7814 55.5593 33.7814 55.4603C33.7814 55.1415 34.0398 54.883 34.3586 54.883C34.4673 54.883 34.5664 54.9144 34.6533 54.9652C34.8224 55.0666 34.9359 55.2478 34.9359 55.4603C34.9359 55.7791 34.6775 56.0376 34.3586 56.0376V56.04ZM36.3899 55.6608C36.1701 55.6608 35.9817 55.5352 35.8827 55.3564C35.8392 55.2743 35.8126 55.1825 35.8126 55.0835C35.8126 54.7647 36.0711 54.5063 36.3899 54.5063C36.4986 54.5063 36.5976 54.5377 36.6846 54.5884C36.8536 54.6898 36.9672 54.871 36.9672 55.0835C36.9672 55.4023 36.7087 55.6608 36.3899 55.6608ZM36.373 52.475C36.4817 52.475 36.5807 52.5064 36.6677 52.5571C36.8367 52.6585 36.9502 52.8397 36.9502 53.0522C36.9502 53.3711 36.6918 53.6295 36.373 53.6295C36.1532 53.6295 35.9648 53.5039 35.8658 53.3252C35.8223 53.2431 35.7957 53.1513 35.7957 53.0522C35.7957 52.7334 36.0542 52.475 36.373 52.475ZM34.3417 52.8542C34.4504 52.8542 34.5494 52.8856 34.6364 52.9363C34.8055 53.0378 34.919 53.2189 34.919 53.4314C34.919 53.7503 34.6605 54.0087 34.3417 54.0087C34.1219 54.0087 33.9335 53.8831 33.8345 53.702C33.791 53.6198 33.7645 53.5281 33.7645 53.429C33.7645 53.1102 34.0229 52.8518 34.3417 52.8518V52.8542ZM32.3105 53.0378C32.4191 53.0378 32.5182 53.0692 32.6051 53.1199C32.7742 53.2213 32.8877 53.4025 32.8877 53.615C32.8877 53.9338 32.6293 54.1923 32.3105 54.1923C32.0907 54.1923 31.9023 54.0667 31.8032 53.8855C31.7598 53.8034 31.7332 53.7116 31.7332 53.6126C31.7332 53.2938 31.9916 53.0353 32.3105 53.0353V53.0378ZM30.2792 53.0691C30.3879 53.0691 30.4869 53.1006 30.5739 53.1513C30.7429 53.2527 30.8565 53.4339 30.8565 53.6464C30.8565 53.9652 30.598 54.2237 30.2792 54.2237C30.0594 54.2237 29.871 54.0981 29.772 53.9169C29.7285 53.8348 29.7019 53.743 29.7019 53.644C29.7019 53.3252 29.9604 53.0667 30.2792 53.0667V53.0691ZM28.2479 52.975C28.3566 52.975 28.4556 53.0064 28.5426 53.0571C28.7117 53.1585 28.8252 53.3397 28.8252 53.5522C28.8252 53.871 28.5667 54.1295 28.2479 54.1295C28.0281 54.1295 27.8397 54.0039 27.7407 53.8227C27.6972 53.7406 27.6707 53.6488 27.6707 53.5498C27.6707 53.231 27.9291 52.9725 28.2479 52.9725V52.975ZM26.2167 52.7383C26.3254 52.7383 26.4244 52.7697 26.5113 52.8204C26.6804 52.9218 26.7939 53.103 26.7939 53.3155C26.7939 53.6343 26.5355 53.8928 26.2167 53.8928C25.9969 53.8928 25.8085 53.7672 25.7095 53.586C25.666 53.5039 25.6394 53.4121 25.6394 53.3131C25.6394 52.9943 25.8978 52.7358 26.2167 52.7358V52.7383ZM24.1854 52.3856C24.2941 52.3856 24.3931 52.417 24.4801 52.4677C24.6491 52.5692 24.7627 52.7503 24.7627 52.9629C24.7627 53.2817 24.5042 53.5401 24.1854 53.5401C23.9656 53.5401 23.7772 53.4145 23.6782 53.2334C23.6347 53.1513 23.6081 53.0595 23.6081 52.9605C23.6081 52.6416 23.8666 52.3832 24.1854 52.3832V52.3856ZM24.2023 55.5714C23.9825 55.5714 23.7941 55.4458 23.6951 55.2647C23.6516 55.1825 23.625 55.0908 23.625 54.9917C23.625 54.6729 23.8835 54.4145 24.2023 54.4145C24.311 54.4145 24.41 54.4459 24.497 54.4966C24.666 54.598 24.7796 54.7792 24.7796 54.9917C24.7796 55.3105 24.5211 55.569 24.2023 55.569V55.5714ZM26.2336 55.924C26.0138 55.924 25.8254 55.7984 25.7264 55.6197C25.6829 55.5376 25.6563 55.4458 25.6563 55.3468C25.6563 55.028 25.9148 54.7695 26.2336 54.7695C26.3423 54.7695 26.4413 54.8009 26.5282 54.8516C26.6973 54.9531 26.8108 55.1342 26.8108 55.3468C26.8108 55.6656 26.5524 55.924 26.2336 55.924ZM28.2648 56.1607C28.045 56.1607 27.8567 56.0351 27.7576 55.854C27.7141 55.7719 27.6876 55.6801 27.6876 55.5811C27.6876 55.2622 27.946 55.0038 28.2648 55.0038C28.3735 55.0038 28.4726 55.0352 28.5595 55.0859C28.7286 55.1874 28.8421 55.3685 28.8421 55.5811C28.8421 55.8999 28.5837 56.1583 28.2648 56.1583V56.1607ZM29.7188 55.6777C29.7188 55.3589 29.9773 55.1004 30.2961 55.1004C30.4048 55.1004 30.5038 55.1318 30.5908 55.1825C30.7598 55.284 30.8734 55.4651 30.8734 55.6777C30.8734 55.9965 30.6149 56.2549 30.2961 56.2549C30.0763 56.2549 29.8879 56.1293 29.7889 55.9482C29.7454 55.8661 29.7188 55.7743 29.7188 55.6753V55.6777Z" fill="white"/>
<path d="M34.4647 50.2551C34.7617 50.2551 35.0057 49.9846 35.0057 49.6537V47.1756C35.0057 46.8447 34.7617 46.5742 34.4647 46.5742H26.7212C26.4241 46.5742 26.1802 46.8447 26.1802 47.1756V49.6537C26.1802 49.9846 26.4241 50.2551 26.7212 50.2551H34.4647ZM26.6029 49.4025V47.3809C26.6029 47.1104 26.8226 46.8906 27.0932 46.8906H34.1241C34.3946 46.8906 34.6144 47.1104 34.6144 47.3809V49.4025C34.6144 49.673 34.3946 49.8928 34.1241 49.8928H27.0932C26.8226 49.8928 26.6029 49.673 26.6029 49.4025Z" fill="#CAB7CC"/>
<path d="M33.7864 46.8867H27.0936C26.8231 46.8867 26.6033 47.1065 26.6033 47.377V48.6233C29.1273 49.1257 32.0063 48.6789 33.7864 46.8867Z" fill="#684B5C"/>
<path d="M34.1245 49.8948C34.395 49.8948 34.6148 49.675 34.6148 49.4045V47.3829C34.6148 47.1124 34.395 46.8926 34.1245 46.8926H33.7864C32.0063 48.6847 29.1273 49.1316 26.6033 48.6292V49.4069C26.6033 49.6774 26.8231 49.8972 27.0936 49.8972H34.1245V49.8948Z" fill="#56414F"/>
<path d="M36.0543 53.2993C36.0036 53.2316 35.9698 53.1471 35.9698 53.0553C35.9698 52.8331 36.1509 52.6544 36.3707 52.6544C36.4939 52.6544 36.6026 52.7123 36.6775 52.7993C36.6895 52.7268 36.6871 52.6495 36.6654 52.5626C36.5784 52.5119 36.4794 52.4805 36.3707 52.4805C36.0519 52.4805 35.7935 52.7389 35.7935 53.0577C35.7935 53.1568 35.82 53.2485 35.8635 53.3307C35.9263 53.3234 35.9915 53.3137 36.0519 53.3017L36.0543 53.2993Z" fill="#A894AA"/>
<path d="M36.6775 52.7962C36.7354 52.8663 36.7717 52.9556 36.7717 53.0522C36.7717 53.2744 36.5905 53.4532 36.3707 53.4532C36.2403 53.4532 36.1268 53.3904 36.0519 53.2938C35.9915 53.3058 35.9287 53.3155 35.8635 53.3228C35.9601 53.5039 36.1509 53.6271 36.3707 53.6271C36.6896 53.6271 36.948 53.3686 36.948 53.0498C36.948 52.8397 36.8345 52.6561 36.6654 52.5547C36.6871 52.6416 36.6896 52.7213 36.6775 52.7914V52.7962Z" fill="#927C96"/>
<path d="M36.6777 52.7973C36.6028 52.7103 36.4941 52.6523 36.3709 52.6523C36.1487 52.6523 35.97 52.8335 35.97 53.0533C35.97 53.1451 36.0014 53.2296 36.0545 53.2972C36.3709 53.2296 36.6342 53.0702 36.6801 52.7973H36.6777Z" fill="white"/>
<path d="M36.0542 53.2983C36.1267 53.3949 36.2426 53.4577 36.373 53.4577C36.5952 53.4577 36.774 53.2766 36.774 53.0568C36.774 52.9578 36.7377 52.8708 36.6798 52.8008C36.6363 53.0737 36.3706 53.2331 36.0542 53.3007V53.2983Z" fill="#EFE3EF"/>
<path d="M34.0231 53.6782C33.9723 53.6105 33.9385 53.526 33.9385 53.4342C33.9385 53.212 34.1197 53.0333 34.3395 53.0333C34.4626 53.0333 34.5713 53.0912 34.6462 53.1782C34.6583 53.1057 34.6559 53.0284 34.6341 52.9415C34.5472 52.8908 34.4482 52.8594 34.3395 52.8594C34.0206 52.8594 33.7622 53.1178 33.7622 53.4366C33.7622 53.5357 33.7888 53.6274 33.8322 53.7096C33.895 53.7023 33.9603 53.6927 34.0206 53.6806L34.0231 53.6782Z" fill="#A894AA"/>
<path d="M34.646 53.1747C34.704 53.2447 34.7402 53.3341 34.7402 53.4307C34.7402 53.6529 34.559 53.8316 34.3392 53.8316C34.2088 53.8316 34.0953 53.7688 34.0204 53.6722C33.96 53.6843 33.8972 53.694 33.832 53.7012C33.9286 53.8823 34.1195 54.0079 34.3392 54.0079C34.6581 54.0079 34.9165 53.7495 34.9165 53.4307C34.9165 53.2205 34.803 53.037 34.6339 52.9355C34.6556 53.0225 34.6581 53.1022 34.646 53.1722V53.1747Z" fill="#927C96"/>
<path d="M34.6486 53.1762C34.5737 53.0892 34.465 53.0312 34.3419 53.0312C34.1197 53.0312 33.9409 53.2124 33.9409 53.4322C33.9409 53.524 33.9723 53.6085 34.0255 53.6761C34.3419 53.6085 34.6051 53.4491 34.651 53.1762H34.6486Z" fill="white"/>
<path d="M34.0227 53.6772C34.0952 53.7739 34.2111 53.8366 34.3415 53.8366C34.5637 53.8366 34.7425 53.6555 34.7425 53.4357C34.7425 53.3367 34.7062 53.2497 34.6483 53.1797C34.6048 53.4526 34.3391 53.612 34.0227 53.6797V53.6772Z" fill="#EFE3EF"/>
<path d="M31.9913 53.8578C31.9406 53.7902 31.9068 53.7057 31.9068 53.6139C31.9068 53.3917 32.0879 53.213 32.3077 53.213C32.4309 53.213 32.5396 53.2709 32.6145 53.3579C32.6265 53.2854 32.6241 53.2081 32.6024 53.1212C32.5154 53.0705 32.4164 53.0391 32.3077 53.0391C31.9889 53.0391 31.7305 53.2975 31.7305 53.6163C31.7305 53.7153 31.757 53.8071 31.8005 53.8892C31.8633 53.882 31.9285 53.8723 31.9889 53.8603L31.9913 53.8578Z" fill="#A894AA"/>
<path d="M32.6172 53.3583C32.6751 53.4283 32.7114 53.5177 32.7114 53.6143C32.7114 53.8365 32.5302 54.0152 32.3104 54.0152C32.18 54.0152 32.0665 53.9524 31.9916 53.8558C31.9312 53.8679 31.8684 53.8775 31.8032 53.8848C31.8998 54.0659 32.0906 54.1915 32.3104 54.1915C32.6293 54.1915 32.8877 53.9331 32.8877 53.6143C32.8877 53.4041 32.7742 53.2206 32.6051 53.1191C32.6268 53.2061 32.6293 53.2858 32.6172 53.3558V53.3583Z" fill="#927C96"/>
<path d="M32.6171 53.3598C32.5422 53.2728 32.4335 53.2148 32.3104 53.2148C32.0882 53.2148 31.9094 53.396 31.9094 53.6158C31.9094 53.7076 31.9408 53.7921 31.994 53.8597C32.3104 53.7921 32.5736 53.6327 32.6195 53.3598H32.6171Z" fill="white"/>
<path d="M31.9917 53.8608C32.0642 53.9574 32.1801 54.0202 32.3105 54.0202C32.5327 54.0202 32.7115 53.8391 32.7115 53.6193C32.7115 53.5203 32.6752 53.4333 32.6173 53.3633C32.5738 53.6362 32.3081 53.7956 31.9917 53.8632V53.8608Z" fill="#EFE3EF"/>
<path d="M23.8666 53.2114C23.8158 53.1437 23.782 53.0592 23.782 52.9674C23.782 52.7452 23.9632 52.5665 24.183 52.5665C24.3061 52.5665 24.4148 52.6244 24.4897 52.7114C24.5018 52.6389 24.4994 52.5616 24.4776 52.4747C24.3907 52.424 24.2917 52.3926 24.183 52.3926C23.8641 52.3926 23.6057 52.651 23.6057 52.9698C23.6057 53.0689 23.6323 53.1606 23.6758 53.2428C23.7386 53.2355 23.8038 53.2259 23.8641 53.2138L23.8666 53.2114Z" fill="#A894AA"/>
<path d="M24.4922 52.7079C24.5501 52.7779 24.5864 52.8673 24.5864 52.9639C24.5864 53.1861 24.4052 53.3648 24.1854 53.3648C24.055 53.3648 23.9415 53.302 23.8666 53.2054C23.8062 53.2175 23.7434 53.2272 23.6782 53.2344C23.7748 53.4155 23.9656 53.5411 24.1854 53.5411C24.5043 53.5411 24.7627 53.2827 24.7627 52.9639C24.7627 52.7538 24.6492 52.5702 24.4801 52.4688C24.5018 52.5557 24.5043 52.6354 24.4922 52.7054V52.7079Z" fill="#927C96"/>
<path d="M24.4921 52.7094C24.4172 52.6224 24.3085 52.5645 24.1854 52.5645C23.9632 52.5645 23.7844 52.7456 23.7844 52.9654C23.7844 53.0572 23.8158 53.1417 23.869 53.2093C24.1854 53.1417 24.4486 52.9823 24.4945 52.7094H24.4921Z" fill="white"/>
<path d="M23.8689 53.2104C23.9414 53.3071 24.0573 53.3699 24.1877 53.3699C24.4099 53.3699 24.5887 53.1887 24.5887 52.9689C24.5887 52.8699 24.5524 52.7829 24.4945 52.7129C24.451 52.9858 24.1853 53.1452 23.8689 53.2129V53.2104Z" fill="#EFE3EF"/>
<path d="M25.8981 53.5649C25.8473 53.4973 25.8135 53.4127 25.8135 53.3209C25.8135 53.0987 25.9947 52.92 26.2145 52.92C26.3376 52.92 26.4463 52.978 26.5212 53.0649C26.5333 52.9925 26.5309 52.9152 26.5091 52.8282C26.4222 52.7775 26.3232 52.7461 26.2145 52.7461C25.8956 52.7461 25.6372 53.0045 25.6372 53.3234C25.6372 53.4224 25.6638 53.5142 25.7073 53.5963C25.77 53.589 25.8353 53.5794 25.8956 53.5673L25.8981 53.5649Z" fill="#A894AA"/>
<path d="M26.5234 53.0633C26.5814 53.1334 26.6176 53.2227 26.6176 53.3194C26.6176 53.5416 26.4365 53.7203 26.2167 53.7203C26.0863 53.7203 25.9727 53.6575 25.8979 53.5609C25.8375 53.573 25.7747 53.5826 25.7095 53.5899C25.8061 53.771 25.9969 53.8966 26.2167 53.8966C26.5355 53.8966 26.7939 53.6382 26.7939 53.3194C26.7939 53.1092 26.6804 52.9257 26.5114 52.8242C26.5331 52.9112 26.5355 52.9909 26.5234 53.0609V53.0633Z" fill="#927C96"/>
<path d="M26.5236 53.0609C26.4487 52.974 26.34 52.916 26.2169 52.916C25.9946 52.916 25.8159 53.0972 25.8159 53.317C25.8159 53.4087 25.8473 53.4933 25.9005 53.5609C26.2169 53.4933 26.4801 53.3339 26.526 53.0609H26.5236Z" fill="white"/>
<path d="M25.8977 53.562C25.9702 53.6586 26.0861 53.7214 26.2165 53.7214C26.4387 53.7214 26.6175 53.5403 26.6175 53.3205C26.6175 53.2215 26.5812 53.1345 26.5233 53.0645C26.4798 53.3374 26.2141 53.4968 25.8977 53.5644V53.562Z" fill="#EFE3EF"/>
<path d="M27.9288 53.7973C27.8781 53.7297 27.8443 53.6451 27.8443 53.5534C27.8443 53.3311 28.0254 53.1524 28.2452 53.1524C28.3684 53.1524 28.4771 53.2104 28.552 53.2973C28.564 53.2249 28.5616 53.1476 28.5399 53.0606C28.4529 53.0099 28.3539 52.9785 28.2452 52.9785C27.9264 52.9785 27.668 53.237 27.668 53.5558C27.668 53.6548 27.6945 53.7466 27.738 53.8287C27.8008 53.8215 27.866 53.8118 27.9264 53.7997L27.9288 53.7973Z" fill="#A894AA"/>
<path d="M28.5547 53.2977C28.6126 53.3678 28.6489 53.4571 28.6489 53.5537C28.6489 53.7759 28.4677 53.9547 28.2479 53.9547C28.1175 53.9547 28.004 53.8919 27.9291 53.7953C27.8687 53.8073 27.8059 53.817 27.7407 53.8242C27.8373 54.0054 28.0281 54.131 28.2479 54.131C28.5668 54.131 28.8252 53.8726 28.8252 53.5537C28.8252 53.3436 28.7117 53.16 28.5426 53.0586C28.5643 53.1455 28.5668 53.2253 28.5547 53.2953V53.2977Z" fill="#927C96"/>
<path d="M28.5549 53.2953C28.48 53.2084 28.3713 53.1504 28.2481 53.1504C28.0259 53.1504 27.8472 53.3315 27.8472 53.5513C27.8472 53.6431 27.8786 53.7276 27.9317 53.7953C28.2481 53.7276 28.5114 53.5682 28.5573 53.2953H28.5549Z" fill="white"/>
<path d="M27.9292 53.8003C28.0017 53.8969 28.1176 53.9597 28.248 53.9597C28.4702 53.9597 28.649 53.7785 28.649 53.5588C28.649 53.4597 28.6127 53.3728 28.5548 53.3027C28.5113 53.5757 28.2456 53.7375 27.9292 53.8027V53.8003Z" fill="#EFE3EF"/>
<path d="M29.9603 53.8891C29.9096 53.8215 29.8758 53.7369 29.8758 53.6452C29.8758 53.4229 30.0569 53.2442 30.2767 53.2442C30.3999 53.2442 30.5086 53.3022 30.5835 53.3891C30.5955 53.3167 30.5931 53.2394 30.5714 53.1524C30.4844 53.1017 30.3854 53.0703 30.2767 53.0703C29.9579 53.0703 29.6995 53.3287 29.6995 53.6476C29.6995 53.7466 29.726 53.8384 29.7695 53.9205C29.8323 53.9133 29.8975 53.9036 29.9579 53.8915L29.9603 53.8891Z" fill="#A894AA"/>
<path d="M30.5859 53.3895C30.6439 53.4596 30.6801 53.5489 30.6801 53.6455C30.6801 53.8677 30.499 54.0465 30.2792 54.0465C30.1488 54.0465 30.0352 53.9837 29.9604 53.8871C29.9 53.8991 29.8372 53.9088 29.772 53.916C29.8686 54.0972 30.0594 54.2228 30.2792 54.2228C30.598 54.2228 30.8564 53.9643 30.8564 53.6455C30.8564 53.4354 30.7429 53.2518 30.5739 53.1504C30.5956 53.2373 30.598 53.317 30.5859 53.3871V53.3895Z" fill="#927C96"/>
<path d="M30.5861 53.391C30.5112 53.3041 30.4025 53.2461 30.2794 53.2461C30.0571 53.2461 29.8784 53.4272 29.8784 53.647C29.8784 53.7388 29.9098 53.8233 29.963 53.891C30.2794 53.8233 30.5426 53.6639 30.5885 53.391H30.5861Z" fill="white"/>
<path d="M29.9602 53.8901C30.0327 53.9867 30.1486 54.0495 30.279 54.0495C30.5012 54.0495 30.68 53.8684 30.68 53.6486C30.68 53.5496 30.6437 53.4626 30.5858 53.3926C30.5423 53.6655 30.2766 53.8249 29.9602 53.8925V53.8901Z" fill="#EFE3EF"/>
<path d="M35.9861 55.0866C35.9861 54.8644 36.1673 54.6856 36.3871 54.6856C36.5103 54.6856 36.6189 54.7436 36.6938 54.8305C36.7059 54.7581 36.7035 54.6808 36.6817 54.5938C36.5948 54.5431 36.4958 54.5117 36.3871 54.5117C36.0683 54.5117 35.8098 54.7702 35.8098 55.089C35.8098 55.188 35.8364 55.2798 35.8799 55.3619C35.9427 55.3547 36.0079 55.345 36.0683 55.3329C36.0175 55.2653 35.9837 55.1808 35.9837 55.089L35.9861 55.0866Z" fill="#A894AA"/>
<path d="M36.6823 54.5927C36.704 54.6797 36.7064 54.7594 36.6943 54.8294C36.7523 54.8995 36.7885 54.9888 36.7885 55.0854C36.7885 55.3076 36.6074 55.4864 36.3876 55.4864C36.2572 55.4864 36.1436 55.4236 36.0688 55.327C36.0084 55.339 35.9456 55.3487 35.8804 55.356C35.977 55.5371 36.1678 55.6603 36.3876 55.6603C36.7064 55.6603 36.9648 55.4018 36.9648 55.083C36.9648 54.8729 36.8513 54.6893 36.6823 54.5879V54.5927Z" fill="#927C96"/>
<path d="M35.9863 55.0884C35.9863 55.1802 36.0177 55.2648 36.0709 55.3324C36.3873 55.2648 36.6505 55.1053 36.6964 54.8324C36.6216 54.7455 36.5129 54.6875 36.3897 54.6875C36.1675 54.6875 35.9887 54.8686 35.9887 55.0884H35.9863Z" fill="white"/>
<path d="M36.0713 55.3315C36.1437 55.4281 36.2597 55.4909 36.3901 55.4909C36.6123 55.4909 36.791 55.3098 36.791 55.09C36.791 54.991 36.7548 54.904 36.6969 54.834C36.6534 55.1069 36.3877 55.2663 36.0713 55.3339V55.3315Z" fill="#EFE3EF"/>
<path d="M33.9554 55.4635C33.9554 55.2413 34.1365 55.0626 34.3563 55.0626C34.4795 55.0626 34.5882 55.1205 34.6631 55.2075C34.6751 55.135 34.6727 55.0577 34.651 54.9708C34.564 54.9201 34.465 54.8887 34.3563 54.8887C34.0375 54.8887 33.7791 55.1471 33.7791 55.4659C33.7791 55.565 33.8056 55.6567 33.8491 55.7389C33.9119 55.7316 33.9771 55.7219 34.0375 55.7099C33.9868 55.6422 33.953 55.5577 33.953 55.4659L33.9554 55.4635Z" fill="#A894AA"/>
<path d="M34.6532 54.9712C34.6749 55.0581 34.6773 55.1378 34.6653 55.2079C34.7232 55.2779 34.7595 55.3673 34.7595 55.4639C34.7595 55.6861 34.5783 55.8648 34.3585 55.8648C34.2281 55.8648 34.1146 55.802 34.0397 55.7054C33.9793 55.7175 33.9165 55.7272 33.8513 55.7344C33.9479 55.9155 34.1387 56.0411 34.3585 56.0411C34.6774 56.0411 34.9358 55.7827 34.9358 55.4639C34.9358 55.2538 34.8223 55.0702 34.6532 54.9688V54.9712Z" fill="#927C96"/>
<path d="M33.9551 55.4673C33.9551 55.5591 33.9865 55.6437 34.0396 55.7113C34.356 55.6437 34.6193 55.4843 34.6652 55.2113C34.5903 55.1244 34.4816 55.0664 34.3584 55.0664C34.1362 55.0664 33.9575 55.2476 33.9575 55.4673H33.9551Z" fill="white"/>
<path d="M34.0398 55.7104C34.1123 55.8071 34.2282 55.8699 34.3586 55.8699C34.5808 55.8699 34.7596 55.6887 34.7596 55.4689C34.7596 55.3699 34.7233 55.2829 34.6654 55.2129C34.6219 55.4858 34.3562 55.6452 34.0398 55.7129V55.7104Z" fill="#EFE3EF"/>
<path d="M31.9263 55.6471C31.9263 55.4249 32.1075 55.2462 32.3273 55.2462C32.4504 55.2462 32.5591 55.3041 32.634 55.3911C32.6461 55.3186 32.6437 55.2413 32.6219 55.1544C32.535 55.1037 32.4359 55.0723 32.3273 55.0723C32.0084 55.0723 31.75 55.3307 31.75 55.6495C31.75 55.7485 31.7766 55.8403 31.82 55.9225C31.8828 55.9152 31.9481 55.9055 32.0084 55.8935C31.9577 55.8258 31.9239 55.7413 31.9239 55.6495L31.9263 55.6471Z" fill="#A894AA"/>
<path d="M32.6219 55.1548C32.6437 55.2417 32.6461 55.3214 32.634 55.3915C32.692 55.4615 32.7282 55.5509 32.7282 55.6475C32.7282 55.8697 32.5471 56.0484 32.3273 56.0484C32.1969 56.0484 32.0833 55.9856 32.0085 55.889C31.9481 55.9011 31.8853 55.9108 31.8201 55.918C31.9167 56.0991 32.1075 56.2247 32.3273 56.2247C32.6461 56.2247 32.9045 55.9663 32.9045 55.6475C32.9045 55.4373 32.791 55.2538 32.6219 55.1523V55.1548Z" fill="#927C96"/>
<path d="M31.9263 55.647C31.9263 55.7388 31.9577 55.8233 32.0108 55.891C32.3272 55.8233 32.5905 55.6639 32.6364 55.391C32.5615 55.3041 32.4528 55.2461 32.3296 55.2461C32.1074 55.2461 31.9287 55.4272 31.9287 55.647H31.9263Z" fill="white"/>
<path d="M32.0085 55.8901C32.081 55.9867 32.1969 56.0495 32.3274 56.0495C32.5496 56.0495 32.7283 55.8684 32.7283 55.6486C32.7283 55.5496 32.6921 55.4626 32.6341 55.3926C32.5906 55.6655 32.3249 55.8249 32.0085 55.8925V55.8901Z" fill="#EFE3EF"/>
<path d="M23.8013 54.9967C23.8013 54.7745 23.9825 54.5958 24.2023 54.5958C24.3254 54.5958 24.4341 54.6537 24.509 54.7407C24.5211 54.6682 24.5187 54.5909 24.4969 54.504C24.41 54.4533 24.3109 54.4219 24.2023 54.4219C23.8834 54.4219 23.625 54.6803 23.625 54.9991C23.625 55.0982 23.6516 55.1899 23.695 55.2721C23.7578 55.2648 23.8231 55.2552 23.8834 55.2431C23.8327 55.1754 23.7989 55.0909 23.7989 54.9991L23.8013 54.9967Z" fill="#A894AA"/>
<path d="M24.4965 54.5044C24.5182 54.5913 24.5206 54.671 24.5085 54.7411C24.5665 54.8111 24.6027 54.9005 24.6027 54.9971C24.6027 55.2193 24.4216 55.398 24.2018 55.398C24.0714 55.398 23.9578 55.3352 23.883 55.2386C23.8226 55.2507 23.7598 55.2604 23.6946 55.2676C23.7912 55.4487 23.982 55.5743 24.2018 55.5743C24.5206 55.5743 24.779 55.3159 24.779 54.9971C24.779 54.787 24.6655 54.6034 24.4965 54.502V54.5044Z" fill="#927C96"/>
<path d="M23.801 54.9966C23.801 55.0884 23.8324 55.173 23.8856 55.2406C24.202 55.173 24.4652 55.0135 24.5111 54.7406C24.4362 54.6537 24.3276 54.5957 24.2044 54.5957C23.9822 54.5957 23.8034 54.7768 23.8034 54.9966H23.801Z" fill="white"/>
<path d="M23.8857 55.2417C23.9582 55.3383 24.0741 55.4011 24.2046 55.4011C24.4268 55.4011 24.6055 55.22 24.6055 55.0002C24.6055 54.9011 24.5693 54.8142 24.5113 54.7441C24.4678 55.0171 24.2021 55.1765 23.8857 55.2441V55.2417Z" fill="#EFE3EF"/>
<path d="M25.8326 55.3483C25.8326 55.1261 26.0137 54.9473 26.2335 54.9473C26.3567 54.9473 26.4654 55.0053 26.5403 55.0923C26.5523 55.0198 26.5499 54.9425 26.5282 54.8556C26.4412 54.8048 26.3422 54.7734 26.2335 54.7734C25.9147 54.7734 25.6562 55.0319 25.6562 55.3507C25.6562 55.4497 25.6828 55.5415 25.7263 55.6236C25.7891 55.6164 25.8543 55.6067 25.9147 55.5946C25.864 55.527 25.8302 55.4425 25.8302 55.3507L25.8326 55.3483Z" fill="#A894AA"/>
<path d="M26.5284 54.8525C26.5502 54.9394 26.5526 55.0191 26.5405 55.0892C26.5985 55.1592 26.6347 55.2486 26.6347 55.3452C26.6347 55.5674 26.4536 55.7461 26.2338 55.7461C26.1033 55.7461 25.9898 55.6834 25.915 55.5867C25.8546 55.5988 25.7918 55.6085 25.7266 55.6157C25.8232 55.7969 26.014 55.92 26.2338 55.92C26.5526 55.92 26.811 55.6616 26.811 55.3428C26.811 55.1327 26.6975 54.9491 26.5284 54.8477V54.8525Z" fill="#927C96"/>
<path d="M25.8325 55.3482C25.8325 55.44 25.8639 55.5245 25.9171 55.5921C26.2335 55.5245 26.4967 55.3651 26.5426 55.0922C26.4677 55.0052 26.3591 54.9473 26.2359 54.9473C26.0137 54.9473 25.8349 55.1284 25.8349 55.3482H25.8325Z" fill="white"/>
<path d="M25.9175 55.5913C25.9899 55.6879 26.1059 55.7507 26.2363 55.7507C26.4585 55.7507 26.6372 55.5696 26.6372 55.3498C26.6372 55.2507 26.601 55.1638 26.543 55.0938C26.4996 55.3667 26.2339 55.5261 25.9175 55.5937V55.5913Z" fill="#EFE3EF"/>
<path d="M27.8641 55.5866C27.8641 55.3643 28.0452 55.1856 28.265 55.1856C28.3882 55.1856 28.4969 55.2436 28.5717 55.3305C28.5838 55.2581 28.5814 55.1808 28.5597 55.0938C28.4727 55.0431 28.3737 55.0117 28.265 55.0117C27.9462 55.0117 27.6877 55.2702 27.6877 55.589C27.6877 55.688 27.7143 55.7798 27.7578 55.8619C27.8206 55.8547 27.8858 55.845 27.9462 55.8329C27.8955 55.7653 27.8616 55.6808 27.8616 55.589L27.8641 55.5866Z" fill="#A894AA"/>
<path d="M28.559 55.0923C28.5807 55.1792 28.5831 55.2589 28.571 55.329C28.629 55.399 28.6652 55.4884 28.6652 55.585C28.6652 55.8072 28.4841 55.9859 28.2643 55.9859C28.1339 55.9859 28.0203 55.9231 27.9455 55.8265C27.8851 55.8386 27.8223 55.8482 27.7571 55.8555C27.8537 56.0366 28.0445 56.1622 28.2643 56.1622C28.5831 56.1622 28.8415 55.9038 28.8415 55.585C28.8415 55.3748 28.728 55.1913 28.559 55.0898V55.0923Z" fill="#927C96"/>
<path d="M27.8635 55.5865C27.8635 55.6783 27.8949 55.7628 27.9481 55.8304C28.2645 55.7628 28.5277 55.6034 28.5736 55.3305C28.4987 55.2435 28.3901 55.1855 28.2669 55.1855C28.0447 55.1855 27.8659 55.3667 27.8659 55.5865H27.8635Z" fill="white"/>
<path d="M27.9485 55.8296C28.0209 55.9262 28.1369 55.989 28.2673 55.989C28.4895 55.989 28.6682 55.8078 28.6682 55.5881C28.6682 55.489 28.632 55.4021 28.574 55.332C28.5306 55.605 28.2649 55.7644 27.9485 55.832V55.8296Z" fill="#EFE3EF"/>
<path d="M29.8951 55.6784C29.8951 55.4562 30.0762 55.2774 30.296 55.2774C30.4192 55.2774 30.5279 55.3354 30.6028 55.4223C30.6148 55.3499 30.6124 55.2726 30.5907 55.1856C30.5037 55.1349 30.4047 55.1035 30.296 55.1035C29.9772 55.1035 29.7188 55.362 29.7188 55.6808C29.7188 55.7798 29.7453 55.8716 29.7888 55.9537C29.8516 55.9465 29.9168 55.9368 29.9772 55.9247C29.9265 55.8571 29.8927 55.7726 29.8927 55.6808L29.8951 55.6784Z" fill="#A894AA"/>
<path d="M30.2963 56.2579C30.6151 56.2579 30.8735 55.9995 30.8735 55.6807C30.8735 55.4706 30.76 55.287 30.5909 55.1855C30.6127 55.2725 30.6151 55.3522 30.603 55.4222C30.661 55.4923 30.6972 55.5817 30.6972 55.6783C30.6972 55.9005 30.5161 56.0792 30.2963 56.0792C30.1658 56.0792 30.0523 56.0164 29.9775 55.9198C29.9171 55.9319 29.8543 55.9415 29.7891 55.9488C29.8857 56.1299 30.0765 56.2555 30.2963 56.2555V56.2579Z" fill="#927C96"/>
<path d="M29.8953 55.6783C29.8953 55.7701 29.9267 55.8546 29.9798 55.9222C30.2962 55.8546 30.5595 55.6952 30.6054 55.4223C30.5305 55.3353 30.4218 55.2773 30.2986 55.2773C30.0764 55.2773 29.8977 55.4585 29.8977 55.6783H29.8953Z" fill="white"/>
<path d="M29.9773 55.9194C30.0498 56.016 30.1657 56.0788 30.2961 56.0788C30.5183 56.0788 30.6971 55.8977 30.6971 55.6779C30.6971 55.5789 30.6608 55.4919 30.6029 55.4219C30.5594 55.6948 30.2937 55.8542 29.9773 55.9218V55.9194Z" fill="#EFE3EF"/>
<path d="M20.7843 3.41004C20.8278 3.41004 20.8688 3.39797 20.9051 3.38106C20.9944 3.33517 21.0572 3.24339 21.0572 3.13711V2.13477C20.8229 2.41736 20.451 2.58401 20.079 2.53812C20.0307 2.52846 19.9824 2.51397 19.9365 2.49706V3.13711C19.9365 3.2289 19.9824 3.3086 20.05 3.35932C20.0959 3.39072 20.1491 3.41246 20.2095 3.41246H20.7843V3.41004Z" fill="#56414F"/>
<path d="M20.079 2.53561C20.4534 2.5815 20.8254 2.41484 21.0572 2.13225V1.2241C21.0572 1.07194 20.934 0.951172 20.7843 0.951172H20.2095C20.0573 0.951172 19.9365 1.07435 19.9365 1.2241V2.49455C19.9824 2.50904 20.0307 2.52353 20.079 2.53561Z" fill="#684B5C"/>
<path d="M23.7311 3.41004C23.789 3.41004 23.8422 3.39314 23.8856 3.36174C23.9581 3.31343 24.004 3.2289 24.004 3.13711V2.13477C23.7697 2.41736 23.3978 2.58401 23.0258 2.53812C22.9775 2.52846 22.9292 2.51397 22.8833 2.49706V3.13711C22.8833 3.24339 22.9437 3.33275 23.0306 3.37864C23.0693 3.39797 23.1103 3.41004 23.1562 3.41004H23.7311Z" fill="#56414F"/>
<path d="M24.0067 2.13225V1.2241C24.0067 1.07194 23.8835 0.951172 23.7338 0.951172H23.1589C23.0068 0.951172 22.886 1.07435 22.886 1.2241V2.49455C22.9319 2.50904 22.9802 2.52353 23.0285 2.53561C23.4029 2.5815 23.7748 2.41484 24.0067 2.13225Z" fill="#684B5C"/>
<path d="M38.0414 3.41004C38.0993 3.41004 38.1525 3.39314 38.196 3.36174C38.2684 3.31343 38.3143 3.2289 38.3143 3.13711V2.13477C38.08 2.41736 37.7081 2.58401 37.3361 2.53812C37.2878 2.52846 37.2395 2.51397 37.1936 2.49706V3.13711C37.1936 3.24339 37.254 3.33275 37.3409 3.37864C37.3796 3.39797 37.4206 3.41004 37.4665 3.41004H38.0414Z" fill="#56414F"/>
<path d="M38.317 2.13225V1.2241C38.317 1.07194 38.1938 0.951172 38.0441 0.951172H37.4692C37.3171 0.951172 37.1963 1.07435 37.1963 1.2241V2.49455C37.2422 2.50904 37.2905 2.52353 37.3388 2.53561C37.7132 2.5815 38.0851 2.41484 38.317 2.13225Z" fill="#684B5C"/>
<path d="M30.3227 3.41004H30.8976C30.9797 3.41004 31.0522 3.37381 31.1029 3.31585C31.1439 3.26754 31.1705 3.20474 31.1705 3.13711V2.13477C30.9362 2.41736 30.5643 2.58401 30.1923 2.53812C30.144 2.52846 30.0957 2.51397 30.0498 2.49706V3.13711C30.0498 3.19025 30.0643 3.23856 30.0909 3.27962C30.1392 3.35932 30.2237 3.41004 30.3227 3.41004Z" fill="#56414F"/>
<path d="M30.1923 2.53561C30.5667 2.5815 30.9386 2.41484 31.1705 2.13225V1.2241C31.1705 1.07194 31.0473 0.951172 30.8976 0.951172H30.3227C30.1706 0.951172 30.0498 1.07435 30.0498 1.2241V2.49455C30.0957 2.50904 30.144 2.52353 30.1923 2.53561Z" fill="#684B5C"/>
<path d="M40.9916 3.41004C41.064 3.41004 41.1317 3.38106 41.18 3.33517C41.2331 3.28445 41.2645 3.2144 41.2645 3.13711V2.13477C41.0302 2.41736 40.6583 2.58401 40.2863 2.53812C40.238 2.52846 40.1897 2.51397 40.1438 2.49706V3.13711C40.1438 3.25546 40.2187 3.35449 40.3249 3.39314C40.3539 3.4028 40.3853 3.41004 40.4167 3.41004H40.9916Z" fill="#56414F"/>
<path d="M41.2645 2.13225V1.2241C41.2645 1.07194 41.1413 0.951172 40.9916 0.951172H40.4167C40.2646 0.951172 40.1438 1.07435 40.1438 1.2241V2.49455C40.1897 2.50904 40.238 2.52353 40.2863 2.53561C40.6607 2.5815 41.0326 2.41484 41.2645 2.13225Z" fill="#684B5C"/>
<path d="M51.5558 81.0238C49.341 84.8038 46.8726 87.8398 44.3389 87.876C44.3244 87.876 44.3099 87.876 44.2954 87.876C44.2858 87.876 44.2737 87.876 44.264 87.876C42.0202 87.8543 40.1073 86.41 38.8779 83.8087C37.9142 81.7702 37.4239 79.1351 37.4988 76.3889C37.5785 73.4954 38.2596 70.7202 39.4673 68.3604C41.3415 64.6988 42.3149 60.8175 42.4429 56.4989C42.5661 52.3518 41.8971 48.369 41.2256 45.0214C39.745 37.633 39.4141 29.3848 39.4866 26.5081C39.4866 26.4453 39.489 26.385 39.4914 26.327L39.1798 26.3125C39.1798 26.3753 39.175 26.4405 39.175 26.5081C39.105 29.4113 39.4359 37.6934 40.9237 45.1059C41.5903 48.4294 42.2545 52.3832 42.1338 56.4844C42.0082 60.7378 41.0493 64.5612 39.2016 68.1672C37.9674 70.5801 37.2718 73.4157 37.1896 76.372C37.1124 79.1834 37.6147 81.8861 38.6074 83.9802C39.8948 86.7022 41.9043 88.2118 44.264 88.2359C44.2761 88.2359 44.2858 88.2359 44.2979 88.2359C44.3268 88.2359 44.3534 88.2359 44.3824 88.2335C45.9185 88.1949 47.416 87.1345 48.841 85.497C49.2323 85.0501 49.6163 84.5598 49.9956 84.0357C50.6477 83.1324 51.2829 82.1252 51.8988 81.0697C51.7853 81.0552 51.6718 81.0383 51.5582 81.0166L51.5558 81.0238Z" fill="white"/>
<path d="M34.7163 126.077H32.7309V125.357C32.7309 124.896 32.3565 124.522 31.8952 124.522H31.7358V123.85C31.7358 123.599 31.5329 123.398 31.2841 123.398H29.8374C29.5886 123.398 29.3857 123.601 29.3857 123.85V124.522H29.2263C28.765 124.522 28.3906 124.896 28.3906 125.357V126.077H23.2774C21.7437 126.077 20.4418 126.908 20.0023 128.05L19.483 128.045C18.8671 128.038 18.4613 128.683 18.7318 129.236L18.9733 129.729L19.1183 130.028C20.2873 130.033 21.4152 129.388 21.8886 128.263C21.7509 128.147 21.5722 128.072 21.3693 128.07H21.0891C21.4973 127.468 22.3258 127.055 23.2798 127.055H37.8513C38.7981 127.055 39.6193 127.459 40.0299 128.05H39.7401C39.1242 128.041 38.7184 128.683 38.9889 129.236L39.2305 129.729L39.3754 130.028C40.5444 130.033 41.6723 129.388 42.1457 128.263C42.008 128.147 41.8293 128.072 41.6264 128.07L41.1313 128.065C40.6941 126.918 39.3899 126.082 37.8537 126.082H37.4745" fill="white"/>
</svg>
