<svg viewBox="0 0 59 22" fill="none" xmlns="http://www.w3.org/2000/svg">
<path d="M53.5223 21.4199L50.9577 21.3078C35.9141 20.641 20.8522 20.6823 5.80861 21.4199C3.02429 21.4199 0.766602 18.511 0.766602 14.9235V9.36533C0.766602 6.22631 1.65502 4.35587 4.48056 3.282C5.19954 3.01058 5.93684 2.85717 6.68329 2.76866C7.85106 2.63885 10.0813 2.38514 12.7145 2.09011C23.9983 0.821525 35.3463 0.821525 46.6301 2.09011L52.7071 2.77456C53.4536 2.85717 54.1954 3.00468 54.9144 3.2643C57.8316 4.30867 58.5688 6.22631 58.5688 9.37123V14.9294C58.5688 18.5169 56.3112 21.4258 53.5268 21.4258L53.5223 21.4199Z" fill="#4D4669"/>
<path d="M15.739 15.7812V9.5127C15.739 8.97949 15.6182 8.58529 15.3767 8.33008C15.1397 8.07487 14.782 7.91309 14.3035 7.84473C14.1941 7.82194 14.0528 7.80371 13.8796 7.79004C13.711 7.77637 13.5173 7.76953 13.2986 7.76953C13.0115 7.76953 12.6332 7.7832 12.1638 7.81055C11.699 7.83789 11.1225 7.88118 10.4343 7.94043V6.9834C10.6485 6.96061 10.8582 6.94238 11.0632 6.92871C11.2683 6.91504 11.4666 6.90137 11.658 6.8877C12.0225 6.86491 12.3484 6.84896 12.6355 6.83984C12.9272 6.82617 13.1824 6.81934 13.4011 6.81934C13.9161 6.81934 14.3331 6.84212 14.6521 6.8877C14.9757 6.93327 15.2787 7.0153 15.5613 7.13379C15.8438 7.25228 16.0785 7.40267 16.2654 7.58496C16.4522 7.76725 16.6003 8.00195 16.7097 8.28906C16.7781 8.47135 16.8259 8.66048 16.8533 8.85645C16.8852 9.05241 16.9011 9.27116 16.9011 9.5127V15.7812H15.739ZM10.4343 15.7812V10.3193H11.5828V15.7812H10.4343ZM22.5818 15.918C22.2628 15.918 21.9574 15.8861 21.6658 15.8223C21.3741 15.7585 21.1098 15.6559 20.8728 15.5146C20.6267 15.3734 20.4011 15.1934 20.196 14.9746C19.9955 14.7559 19.8223 14.4893 19.6765 14.1748C19.4988 13.8102 19.3666 13.3955 19.28 12.9307C19.198 12.4613 19.157 11.9303 19.157 11.3379V6.95605H20.3123V11.3379C20.3123 12.026 20.3715 12.6162 20.49 13.1084C20.613 13.596 20.7931 13.9857 21.03 14.2773C21.1986 14.487 21.4151 14.651 21.6794 14.7695C21.9438 14.888 22.2468 14.9473 22.5886 14.9473C22.9441 14.9473 23.2563 14.8857 23.5251 14.7627C23.794 14.6351 24.0128 14.4619 24.1814 14.2432C24.4503 13.9059 24.6303 13.4798 24.7214 12.9648C24.8126 12.4453 24.8582 11.9053 24.8582 11.3447C24.8582 10.7933 24.8149 10.2692 24.7283 9.77246C24.6417 9.27572 24.4776 8.85872 24.2361 8.52148C24.0447 8.26172 23.8054 8.07259 23.5183 7.9541C23.2358 7.83561 22.9304 7.77637 22.6023 7.77637C22.5111 7.77637 22.4177 7.7832 22.322 7.79688C22.2309 7.80599 22.1375 7.81966 22.0417 7.83789V6.88086C22.1694 6.85807 22.2947 6.84212 22.4177 6.83301C22.5453 6.82389 22.6684 6.81934 22.7869 6.81934C23.1059 6.81934 23.4067 6.85352 23.6892 6.92188C23.9718 6.98568 24.2315 7.09049 24.4685 7.23633C24.7146 7.3776 24.9311 7.56217 25.1179 7.79004C25.3093 8.01335 25.4688 8.28223 25.5964 8.59668C25.7423 8.94303 25.8516 9.34408 25.9246 9.7998C26.002 10.2555 26.0408 10.7682 26.0408 11.3379C26.0408 11.8027 26.0134 12.2311 25.9587 12.623C25.9041 13.0104 25.822 13.3659 25.7126 13.6895C25.5714 14.0996 25.3868 14.4528 25.1589 14.749C24.9356 15.0452 24.669 15.2868 24.3591 15.4736C24.113 15.6195 23.8396 15.7288 23.5388 15.8018C23.2426 15.8792 22.9236 15.918 22.5818 15.918ZM27.9001 12.5889V6.95605H29.0554V11.5566L28.2283 12.5889H27.9001ZM30.8328 15.7812L31.448 9.21191C31.4571 9.12533 31.4617 9.05013 31.4617 8.98633C31.4662 8.91797 31.4685 8.85189 31.4685 8.78809C31.4685 8.65137 31.4594 8.52376 31.4412 8.40527C31.4275 8.28223 31.4024 8.14323 31.366 7.98828C31.3569 7.94271 31.3341 7.86751 31.2976 7.7627C31.2611 7.65332 31.2247 7.5485 31.1882 7.44824C31.1563 7.34342 31.1358 7.27507 31.1267 7.24316C31.1085 7.18848 31.088 7.13607 31.0652 7.08594C31.047 7.03125 31.0287 6.97656 31.0105 6.92188H32.1248C32.2068 7.10417 32.2751 7.27507 32.3298 7.43457C32.3845 7.58952 32.4255 7.73535 32.4529 7.87207H32.5417C32.601 7.78092 32.7172 7.66699 32.8904 7.53027C33.0681 7.39355 33.2458 7.27962 33.4236 7.18848C33.6013 7.09277 33.836 7.00846 34.1277 6.93555C34.4194 6.85807 34.7315 6.81934 35.0642 6.81934C35.3695 6.81934 35.6475 6.85807 35.8982 6.93555C36.1488 7.01302 36.3722 7.12012 36.5681 7.25684C36.7048 7.3571 36.8279 7.47103 36.9373 7.59863C37.0512 7.72168 37.1492 7.85612 37.2312 8.00195C37.3679 8.25716 37.4705 8.55111 37.5388 8.88379C37.6117 9.21191 37.6482 9.5765 37.6482 9.97754V15.7812H34.6335V14.8447H36.4929V9.97754C36.4929 9.62663 36.4542 9.31673 36.3767 9.04785C36.2992 8.77441 36.183 8.54883 36.0281 8.37109C35.9369 8.2526 35.8298 8.15007 35.7068 8.06348C35.5883 7.97233 35.4493 7.90397 35.2898 7.8584C35.1348 7.80827 34.9571 7.7832 34.7566 7.7832C34.4649 7.7832 34.1892 7.8265 33.9294 7.91309C33.6697 7.99967 33.46 8.09993 33.3005 8.21387C33.1501 8.32324 33.0134 8.44629 32.8904 8.58301C32.7719 8.71517 32.6762 8.85645 32.6033 9.00684L31.9744 15.7812H30.8328Z" fill="white"/>
<circle cx="47.8005" cy="11.2812" r="5.29688" fill="#ED53F0"/>
</svg>
