<svg viewBox="0 0 76 21" fill="none" xmlns="http://www.w3.org/2000/svg">
<path d="M69.3438 20.7285L66.0094 20.6164C46.4495 19.9496 26.8657 19.9909 7.30571 20.7285C3.68548 20.7285 0.75 17.8196 0.75 14.2321V8.67392C0.75 5.5349 1.90514 3.66447 5.57896 2.59059C6.51379 2.31917 7.47244 2.16576 8.44299 2.07726C9.96134 1.94745 12.8611 1.69373 16.2848 1.39871C30.9563 0.130118 45.7111 0.130118 60.3826 1.39871L68.284 2.08316C69.2545 2.16576 70.2191 2.31327 71.154 2.57289C74.9469 3.61726 75.9055 5.5349 75.9055 8.67982V14.238C75.9055 17.8255 72.97 20.7344 69.3498 20.7344L69.3438 20.7285Z" fill="#4D4669"/>
<path d="M6.00537 12.8975V7.26465H7.16064V11.8652L6.3335 12.8975H6.00537ZM9.45752 16.0898V7.26465H10.606V16.0898H9.45752ZM16.3687 16.2266C16.0496 16.2266 15.7443 16.1947 15.4526 16.1309C15.161 16.0671 14.8966 15.9645 14.6597 15.8232C14.4136 15.682 14.188 15.502 13.9829 15.2832C13.7824 15.0645 13.6092 14.7979 13.4634 14.4834C13.2856 14.1188 13.1535 13.7041 13.0669 13.2393C12.9849 12.7699 12.9438 12.2389 12.9438 11.6465V7.26465H14.0991V11.6465C14.0991 12.3346 14.1584 12.9248 14.2769 13.417C14.3999 13.9046 14.5799 14.2943 14.8169 14.5859C14.9855 14.7956 15.202 14.9596 15.4663 15.0781C15.7306 15.1966 16.0337 15.2559 16.3755 15.2559C16.731 15.2559 17.0431 15.1943 17.312 15.0713C17.5809 14.9437 17.7996 14.7705 17.9683 14.5518C18.2371 14.2145 18.4172 13.7884 18.5083 13.2734C18.5994 12.7539 18.645 12.2139 18.645 11.6533C18.645 11.1019 18.6017 10.5778 18.5151 10.0811C18.4285 9.58431 18.2645 9.16732 18.0229 8.83008C17.8315 8.57031 17.5923 8.38118 17.3052 8.2627C17.0226 8.14421 16.7173 8.08496 16.3892 8.08496C16.298 8.08496 16.2046 8.0918 16.1089 8.10547C16.0177 8.11458 15.9243 8.12826 15.8286 8.14648V7.18945C15.9562 7.16667 16.0815 7.15072 16.2046 7.1416C16.3322 7.13249 16.4552 7.12793 16.5737 7.12793C16.8927 7.12793 17.1935 7.16211 17.4761 7.23047C17.7586 7.29427 18.0184 7.39909 18.2554 7.54492C18.5015 7.6862 18.7179 7.87077 18.9048 8.09863C19.0962 8.32194 19.2557 8.59082 19.3833 8.90527C19.5291 9.25163 19.6385 9.65267 19.7114 10.1084C19.7889 10.5641 19.8276 11.0768 19.8276 11.6465C19.8276 12.1113 19.8003 12.5397 19.7456 12.9316C19.6909 13.319 19.6089 13.6745 19.4995 13.998C19.3582 14.4082 19.1737 14.7614 18.9458 15.0576C18.7225 15.3538 18.4559 15.5954 18.146 15.7822C17.8999 15.9281 17.6265 16.0374 17.3257 16.1104C17.0295 16.1878 16.7104 16.2266 16.3687 16.2266ZM21.687 12.8975V7.26465H22.8423V11.8652L22.0151 12.8975H21.687ZM25.1392 16.0898V7.29199C25.1984 7.28288 25.2918 7.27376 25.4194 7.26465C25.547 7.25553 25.7088 7.24186 25.9048 7.22363C26.3286 7.19173 26.7228 7.16895 27.0874 7.15527C27.452 7.13704 27.7847 7.12793 28.0854 7.12793C28.6095 7.12793 29.0334 7.15072 29.3569 7.19629C29.6805 7.24186 29.9836 7.32161 30.2661 7.43555C30.5487 7.55404 30.7834 7.70443 30.9702 7.88672C31.1571 8.06445 31.3052 8.29915 31.4146 8.59082C31.4829 8.76855 31.5308 8.95768 31.5581 9.1582C31.59 9.35417 31.606 9.5752 31.606 9.82129V16.0898H30.4438V9.82129C30.4438 9.27441 30.3185 8.87109 30.0679 8.61133C29.8172 8.35156 29.4435 8.18978 28.9468 8.12598C28.842 8.1123 28.7098 8.10091 28.5503 8.0918C28.3953 8.08268 28.2153 8.07812 28.0103 8.07812C27.8006 8.07812 27.5522 8.08496 27.2651 8.09863C26.978 8.1123 26.6522 8.13281 26.2876 8.16016V16.0898H25.1392ZM37.5122 19.4258V10.04C37.5122 9.74837 37.4963 9.45898 37.4644 9.17188C37.437 8.88021 37.396 8.59766 37.3413 8.32422C37.2866 8.04622 37.2205 7.78418 37.1431 7.53809C37.1294 7.49251 37.1157 7.44694 37.1021 7.40137C37.0884 7.35579 37.0724 7.31022 37.0542 7.26465H38.2163C38.2345 7.31478 38.2528 7.37402 38.271 7.44238C38.2938 7.51074 38.3166 7.58822 38.3394 7.6748C38.3758 7.78874 38.4191 7.98014 38.4692 8.24902C38.5194 8.51335 38.5627 8.80729 38.5991 9.13086C38.6401 9.45443 38.6606 9.75749 38.6606 10.04V19.4258H37.5122ZM41.0532 16.0898V7.26465H42.2017V16.0898H41.0532ZM43.979 16.0898V15.1533H48.272V9.82129C48.272 9.28353 48.1489 8.88704 47.9028 8.63184C47.6567 8.37663 47.2944 8.21484 46.8159 8.14648C46.702 8.1237 46.5721 8.10775 46.4263 8.09863C46.2804 8.08496 46.1141 8.07812 45.9272 8.07812C45.7131 8.07812 45.4465 8.08724 45.1274 8.10547C44.8084 8.11914 44.4233 8.14193 43.9722 8.17383V7.22363C44.3094 7.19173 44.6421 7.16895 44.9702 7.15527C45.3029 7.13704 45.6333 7.12793 45.9614 7.12793C46.4172 7.12793 46.7977 7.14844 47.103 7.18945C47.4129 7.22591 47.7069 7.29427 47.9849 7.39453C48.2674 7.49935 48.5021 7.63379 48.689 7.79785C48.8758 7.96191 49.0262 8.17155 49.1401 8.42676C49.2131 8.5498 49.27 8.68197 49.311 8.82324C49.3521 8.96452 49.3817 9.11491 49.3999 9.27441C49.4181 9.43392 49.4272 9.6071 49.4272 9.79395V15.1533H50.439V16.0898H43.979ZM54.9302 16.2266C54.2922 16.2266 53.743 16.099 53.2827 15.8438C52.95 15.666 52.6606 15.4245 52.4146 15.1191C52.173 14.8138 51.9771 14.4424 51.8267 14.0049C51.7173 13.6859 51.633 13.3304 51.5737 12.9385C51.519 12.5465 51.4917 12.1204 51.4917 11.6602C51.4917 11.1224 51.5327 10.637 51.6147 10.2041C51.7013 9.7666 51.8289 9.37923 51.9976 9.04199C52.1707 8.70475 52.3849 8.41764 52.6401 8.18066L52.6606 8.16016L51.6147 8.20801V7.2373C52.034 7.21452 52.4351 7.19629 52.8179 7.18262C53.2007 7.16439 53.5675 7.15072 53.9185 7.1416C54.2739 7.13249 54.6112 7.12793 54.9302 7.12793C55.3039 7.12793 55.6502 7.1735 55.9692 7.26465C56.2928 7.35579 56.5845 7.49479 56.8442 7.68164C57.0858 7.84115 57.3 8.04167 57.4868 8.2832C57.6737 8.52018 57.8309 8.7959 57.9585 9.11035C58.0998 9.44759 58.2046 9.82812 58.2729 10.252C58.3459 10.6758 58.3823 11.1452 58.3823 11.6602C58.3823 12.0612 58.3595 12.4372 58.314 12.7881C58.2729 13.1344 58.2091 13.4557 58.1226 13.752C57.9813 14.235 57.7853 14.6497 57.5347 14.9961C57.2886 15.3379 56.9924 15.609 56.646 15.8096C56.1629 16.0876 55.591 16.2266 54.9302 16.2266ZM54.9302 15.2627C55.2856 15.2627 55.5978 15.1989 55.8667 15.0713C56.1356 14.9437 56.3543 14.766 56.5229 14.5381C56.6916 14.3193 56.8237 14.055 56.9194 13.7451C57.0197 13.4307 57.0881 13.0934 57.1245 12.7334C57.1655 12.3734 57.186 12.0156 57.186 11.6602C57.186 10.7988 57.1017 10.1221 56.9331 9.62988C56.7645 9.13314 56.5389 8.764 56.2563 8.52246C56.0968 8.38118 55.9054 8.27181 55.6821 8.19434C55.4588 8.11686 55.2241 8.07812 54.978 8.07812C54.741 8.07812 54.5337 8.0804 54.356 8.08496C54.1828 8.08952 54.005 8.10091 53.8228 8.11914C53.4308 8.52018 53.1414 9.00781 52.9546 9.58203C52.7723 10.1517 52.6812 10.8444 52.6812 11.6602C52.6812 12.3346 52.7358 12.9134 52.8452 13.3965C52.9546 13.875 53.1209 14.2555 53.3442 14.5381C53.5129 14.766 53.7293 14.9437 53.9937 15.0713C54.2625 15.1989 54.5747 15.2627 54.9302 15.2627Z" fill="white"/>
<circle cx="66.4604" cy="11.5898" r="5.29688" fill="#218A77"/>
</svg>
