<svg width="137" height="225" viewBox="0 0 137 225" fill="none" xmlns="http://www.w3.org/2000/svg">
<path d="M20.8688 81.5915C20.8688 81.5915 20.4172 79.5298 20.0168 79.0016C19.6164 78.4649 17.4781 78.8653 14.6071 75.7813C11.7531 72.6973 9.3762 69.5196 7.45084 68.3098C5.534 67.1001 5.44028 66.5719 6.56483 66.3419C7.68086 66.1204 9.01839 66.7508 10.5434 67.9606C12.0598 69.1618 14.2578 71.8539 15.1438 71.4875C15.1438 71.4875 13.3121 69.2044 12.2387 68.2673C11.1653 67.3386 9.82773 64.6039 9.16322 63.752C8.4902 62.9086 9.83625 61.7841 11.3953 63.2664C12.9714 64.7403 13.8148 66.1289 14.6156 66.6145C15.4249 67.1001 17.5718 69.3492 18.2448 69.477C18.2448 69.477 16.9499 66.8445 16.0042 65.6348C15.0756 64.425 13.9511 61.8778 13.5507 60.9918C13.1503 60.0972 14.1811 59.109 15.8338 61.077C17.4951 63.0449 17.9296 64.2547 18.2959 64.6125C18.6537 64.9703 20.8432 67.3472 21.1499 67.7817C21.1499 67.7817 20.6217 65.8648 20.1702 64.9277C19.7186 63.9906 19.0967 62.423 18.7389 61.6222C18.3811 60.8129 18.6026 59.339 20.3917 60.7703C22.1807 62.2015 22.5385 63.7179 23.1179 64.4336C23.6972 65.1492 24.8643 66.5378 25.3158 67.4324C25.7588 68.3184 26.5682 69.4003 26.8323 69.5281C26.8323 69.5281 27.0964 67.7902 27.8631 67.0234C28.6213 66.2652 30.1804 65.6433 30.7597 66.4867C31.339 67.3472 29.4647 68.821 29.1155 70.5163C28.7491 72.2117 29.1155 72.9784 28.7065 74.2734C28.3061 75.5683 27.3264 76.105 26.7386 76.4202C26.7386 76.4202 27.0964 77.8515 27.6757 78.5586C27.6757 78.5586 26.7812 81.6937 20.8858 81.6L20.8688 81.5915Z" fill="#FCC188"/>
<path d="M116.157 129.895C116.157 129.895 116.609 131.957 117.009 132.485C117.41 133.022 119.548 132.622 122.419 135.706C125.273 138.79 127.65 141.967 129.575 143.177C131.492 144.387 131.586 144.915 130.461 145.145C129.345 145.366 128.008 144.736 126.483 143.526C124.966 142.325 122.768 139.633 121.882 139.999C121.882 139.999 123.714 142.282 124.788 143.22C125.861 144.148 127.199 146.883 127.863 147.735C128.536 148.578 127.19 149.703 125.631 148.22C124.055 146.747 123.211 145.358 122.411 144.872C121.601 144.387 119.454 142.138 118.781 142.01C118.781 142.01 120.076 144.642 121.022 145.852C121.951 147.062 123.075 149.609 123.476 150.495C123.876 151.39 122.845 152.378 121.192 150.41C119.531 148.442 119.097 147.232 118.73 146.874C118.372 146.517 116.183 144.14 115.876 143.705C115.876 143.705 116.405 145.622 116.856 146.559C117.308 147.496 117.93 149.064 118.287 149.865C118.645 150.674 118.424 152.148 116.635 150.717C114.846 149.285 114.488 147.769 113.908 147.053C113.329 146.338 112.162 144.949 111.71 144.054C111.267 143.168 110.458 142.086 110.194 141.959C110.194 141.959 109.93 143.697 109.163 144.463C108.405 145.222 106.846 145.844 106.267 145C105.687 144.14 107.561 142.666 107.911 140.97C108.277 139.275 107.911 138.508 108.32 137.213C108.72 135.918 109.7 135.382 110.288 135.067C110.288 135.067 109.93 133.635 109.351 132.928C109.351 132.928 110.245 129.793 116.14 129.887L116.157 129.895Z" fill="#FCC188"/>
<path d="M50.5163 206.672C50.5163 206.672 51.1382 208.64 43.9905 210.966C36.8343 213.292 32.8046 215.354 32.5405 216.521C32.2679 217.671 32.089 219.639 36.2123 219.826C40.3187 220.005 51.9475 219.911 53.7366 219.554C55.5256 219.204 59.5467 219.204 59.4615 214.911C59.3678 210.608 59.4615 206.596 59.4615 206.596L50.5163 206.681V206.672Z" fill="#4D2B15"/>
<path d="M86.7231 206.145C86.7231 206.145 85.8286 210.166 86.2716 213.471C86.2716 213.471 92.9763 216.777 101.291 218.208C109.606 219.639 111.395 218.83 111.395 217.407C111.395 215.984 97.8919 207.925 94.0497 206.409L86.7231 206.145Z" fill="#4D2B15"/>
<g style="mix-blend-mode:multiply" opacity="0.5">
<path d="M59.4613 206.578L50.5161 206.663C50.5161 206.663 50.7887 207.549 48.8378 208.836C49.366 208.819 49.8856 208.895 50.4394 209.125C51.9388 209.739 53.2082 211.179 54.0771 212.508C54.7587 213.538 55.6532 214.782 54.4861 215.787C53.5064 216.605 51.8621 216.648 50.6524 216.776C45.6601 217.295 40.7103 217.755 35.6925 217.943C34.4827 217.985 32.83 218.19 32.4722 216.793C32.2592 217.968 32.3955 219.647 36.2036 219.826C40.3099 220.005 51.9388 219.911 53.7279 219.553C55.5169 219.204 59.538 219.204 59.4528 214.91C59.3591 210.608 59.4528 206.595 59.4528 206.595L59.4613 206.578Z" fill="#4D2B15"/>
</g>
<g style="mix-blend-mode:multiply" opacity="0.5">
<path d="M107.484 216.99C103.83 216.377 100.243 215.389 96.8012 214.017C95.3359 213.438 91.4511 212.594 91.7152 210.405C91.9282 208.607 94.2966 207.772 96.1282 207.364C95.2933 206.938 94.5862 206.605 94.058 206.401L86.7314 206.137C86.7314 206.137 85.8369 210.158 86.2799 213.463C86.2799 213.463 92.9846 216.769 101.299 218.2C109.614 219.631 111.403 218.822 111.403 217.399C111.403 217.297 111.318 217.152 111.19 216.973C110.492 217.834 108.439 217.152 107.493 216.982L107.484 216.99Z" fill="#4D2B15"/>
</g>
<path d="M47.466 128.482C47.466 128.482 62.8859 138.007 82.3355 127.945C82.3355 127.945 86.7656 136.533 88.9039 149.942C91.0508 163.352 92.6609 196.347 95.2082 206.536C95.2082 206.536 91.1871 209.364 86.2203 207.345C86.2203 207.345 67.7079 150.615 64.2235 147.54C64.2235 147.54 58.0555 169.664 61.2758 208.555C61.2758 208.555 55.1078 210.174 49.877 207.218C49.877 207.218 36.868 149.422 47.4575 128.491L47.466 128.482Z" fill="#17293B"/>
<g style="mix-blend-mode:multiply" opacity="0.3">
<path d="M92.8824 206.101C91.7408 206.093 91.3319 203.929 91.0934 203.196C89.3554 197.846 88.4524 192.317 87.4556 186.797C86.9786 184.13 86.4759 181.489 85.7858 178.874C85.2576 176.846 84.6272 174.606 84.8146 172.484C84.9595 170.849 85.4451 169.673 86.953 168.915C88.1457 168.335 89.5684 168.216 90.9145 168.088C90.267 160.915 89.6195 154.364 88.9039 149.942C86.7656 136.533 82.3355 127.945 82.3355 127.945C62.8859 138.007 47.466 128.482 47.466 128.482C42.6185 138.058 42.7207 155.343 44.2457 171.292C46.7078 171.7 49.221 171.82 49.681 174.912C49.9536 176.693 49.894 178.49 49.8173 180.288C49.7236 182.665 49.8855 185.067 50.124 187.444C50.7033 193.05 51.9045 198.528 52.765 204.091C52.8587 204.73 53.1143 205.871 52.4413 206.323C51.6575 206.834 50.5074 206.408 49.6214 206.033C49.7832 206.783 49.8855 207.209 49.8855 207.209C55.1163 210.165 61.2843 208.547 61.2843 208.547C58.064 169.656 64.232 147.531 64.232 147.531C67.7164 150.607 86.2289 207.337 86.2289 207.337C91.1956 209.364 95.2167 206.527 95.2167 206.527C95.1145 206.136 95.0293 205.718 94.9271 205.267C94.2626 205.701 93.5725 206.093 92.891 206.093L92.8824 206.101Z" fill="#17293B"/>
</g>
<g style="mix-blend-mode:multiply" opacity="0.6">
<path d="M59.998 137.146C60.1684 136.465 60.5262 136.047 61.1907 136.201C62.5623 136.524 63.8317 136.882 65.2714 136.857C66.6004 136.848 67.8869 136.626 69.2159 136.482C69.6418 136.439 70.0167 136.55 70.1956 136.976C71.235 139.395 70.8857 142.292 71.1072 144.865C71.3798 148.187 71.6268 151.518 71.925 154.832C72.1721 157.635 72.3339 160.446 72.6236 163.224C72.9559 166.47 74.2678 169.503 78.0845 169.196C82.4975 168.847 86.6208 167.535 90.7271 166.12C90.1478 159.739 89.5515 153.963 88.904 149.942C86.7657 136.533 82.3356 127.945 82.3356 127.945C62.886 138.007 47.4661 128.482 47.4661 128.482C42.8912 137.521 42.7208 153.444 43.9987 168.608C45.3618 169.162 46.6823 169.775 48.1647 170.073C50.2519 170.482 52.3732 170.9 54.486 171.053C56.7862 171.215 59.5805 170.925 60.3899 168.327C60.7051 167.313 60.7732 166.265 60.8073 165.217C60.5432 160.745 60.441 156.238 60.1939 151.757C60.0321 148.843 59.5209 139.037 59.9895 137.146H59.998Z" fill="#17293B"/>
</g>
<g style="mix-blend-mode:multiply" opacity="0.5">
<path d="M50.5672 176.632C50.235 166.366 50.7802 156.041 51.4277 145.801C51.4277 145.716 51.2999 145.69 51.2999 145.775C50.269 155.683 49.9709 165.719 50.0475 175.661C50.1327 185.773 52.0155 195.945 53.7023 205.887C53.7194 205.973 53.8472 205.956 53.8472 205.87C53.0208 196.082 50.891 186.472 50.5587 176.632H50.5672Z" fill="#0A1927"/>
</g>
<g style="mix-blend-mode:multiply" opacity="0.5">
<path d="M88.2394 193.773C87.2085 188.662 86.1266 183.55 85.1639 178.422C84.2523 173.54 83.0511 168.301 81.9351 163.479C80.7935 158.538 79.7626 154.09 78.2718 149.226C78.2292 149.115 78.0588 149.183 78.0929 149.303C79.2174 154.082 80.359 158.546 81.3984 163.342C82.4803 168.292 83.7071 173.463 84.6357 178.464C85.5558 183.431 86.6462 188.355 87.6856 193.296C88.1627 195.571 88.5716 197.846 89.0572 200.112C89.5854 202.557 90.5651 207.66 90.5396 207.472C89.645 200.231 88.7164 196.167 88.2308 193.782L88.2394 193.773Z" fill="#0A1927"/>
</g>
<path d="M60.211 80.5957L56.1814 85.0258C56.1814 85.0258 54.0345 105.14 63.4313 104.884C72.8111 104.612 74.2934 92.2672 74.2934 85.0258L71.2095 80.1953L60.211 80.5957Z" fill="#FCC188"/>
<g style="mix-blend-mode:multiply">
<path d="M60.211 80.5938L56.1814 85.0238C56.1814 85.0238 54.0345 105.138 63.4313 104.882C72.8111 104.61 74.2934 92.2652 74.2934 85.0238L71.2095 80.1934L60.211 80.5938Z" fill="#D9AE92"/>
</g>
<path d="M58.737 82.75C58.737 82.75 61.148 89.8551 64.3683 89.1906C67.5886 88.5261 72.8109 83.0226 72.8109 83.0226C72.8109 83.0226 75.7671 87.7082 76.0312 99.516C76.3039 111.324 77.914 128.891 77.914 128.891C77.914 128.891 64.2405 141.099 50.4307 128.763C50.4307 128.763 49.0847 87.9894 58.737 82.75Z" fill="#61BFBB"/>
<g style="mix-blend-mode:multiply" opacity="0.5">
<path d="M59.5892 130.289C59.3336 128.304 59.291 126.285 59.2228 124.283C59.061 119.938 58.9247 115.593 59.0184 111.248C59.1121 106.852 59.3421 102.448 59.4273 98.0349C59.4955 94.542 59.9044 90.0864 59.9725 87.4965C59.9725 87.3091 60.2452 87.2239 60.407 87.3176C61.3953 87.8969 62.2728 89.473 63.4058 89.6604C65.4079 90.0097 67.6996 87.9821 69.1649 86.8405C69.3012 86.7298 69.9998 86.2953 69.9998 86.5083C69.9998 88.0417 70.119 90.0693 69.9657 91.6369C69.7442 93.9115 69.7697 96.1692 69.7527 98.4353C69.7101 103.658 69.2927 108.846 69.216 114.068C69.1478 119.401 69.4801 124.734 69.9827 130.033C70.0764 131.064 70.2298 132.087 70.4172 133.117C74.958 131.533 77.9057 128.9 77.9057 128.9C77.9057 128.9 76.3041 111.334 76.0229 99.5258C75.7588 87.718 72.8026 83.0324 72.8026 83.0324C72.8026 83.0324 67.5718 88.5359 64.36 89.2004C61.1397 89.8734 58.7287 82.7598 58.7287 82.7598C49.0678 87.9991 50.4224 128.773 50.4224 128.773C53.7279 131.729 57.0334 133.271 60.1514 133.91C59.9811 132.7 59.7425 131.507 59.5807 130.298L59.5892 130.289Z" fill="#5FA2BB"/>
</g>
<path d="M50.4223 126.606C50.4223 126.606 63.9595 136.931 81.2622 125.26L82.0715 131.308C82.0715 131.308 62.4771 141.361 49.7407 130.235L50.4137 126.614L50.4223 126.606Z" fill="#4D2B15"/>
<g style="mix-blend-mode:multiply" opacity="0.4">
<path d="M81.2707 125.253C63.968 136.933 50.4308 126.599 50.4308 126.599L49.7578 130.219C62.4942 141.346 82.0886 131.293 82.0886 131.293L81.2793 125.244L81.2707 125.253ZM70.0082 134.402C69.6078 134.769 68.8155 134.709 68.3384 134.752C67.2906 134.82 66.2427 134.914 65.1948 134.948C63.4739 134.99 61.77 134.888 60.1003 134.513C59.095 134.275 58.456 134.002 58.2516 132.92C58.1153 132.221 58.013 131.387 58.6094 130.901C58.6435 130.756 58.7798 130.637 58.9672 130.679C61.0629 131.199 63.3717 131.352 65.5271 131.14C66.7879 131.02 67.9977 130.603 69.267 130.714C70.9198 130.858 71.022 133.508 70.0167 134.411L70.0082 134.402Z" fill="#4D2B15"/>
</g>
<path d="M29.3623 77.1191C29.3623 77.1191 32.0459 85.8344 34.7209 89.0462C34.7209 89.0462 39.9603 88.1176 45.7279 85.9622C51.4869 83.8153 55.917 81.8048 57.9275 82.3415C57.9275 82.3415 59.1373 82.0689 58.7369 83.9516C58.3365 85.8259 56.4622 116.947 56.9989 127C57.5357 137.061 59.5462 157.448 59.9466 161.477C60.347 165.498 61.8209 172.075 51.7681 170.729C41.6983 169.392 38.6228 165.635 38.4865 164.297C38.3587 162.951 37.8135 146.449 37.9412 134.914C38.0861 123.388 42.5076 102.064 42.908 100.326C42.908 100.326 35.2577 103.546 31.9096 103.81C28.5615 104.074 23.3306 107.567 17.8271 81.8133L29.3623 77.1277V77.1191Z" fill="#F3F3F3"/>
<path d="M29.3623 77.1191C29.3623 77.1191 32.0459 85.8344 34.7209 89.0462C34.7209 89.0462 39.9603 88.1176 45.7279 85.9622C51.4869 83.8153 55.917 81.8048 57.9275 82.3415C57.9275 82.3415 59.1373 82.0689 58.7369 83.9516C58.3365 85.8259 56.4622 116.947 56.9989 127C57.5357 137.061 59.5462 157.448 59.9466 161.477C60.347 165.498 61.8209 172.075 51.7681 170.729C41.6983 169.392 38.6228 165.635 38.4865 164.297C38.3587 162.951 37.8135 146.449 37.9412 134.914C38.0861 123.388 42.5076 102.064 42.908 100.326C42.908 100.326 35.2577 103.546 31.9096 103.81C28.5615 104.074 23.3306 107.567 17.8271 81.8133L29.3623 77.1277V77.1191Z" fill="#F3F3F3"/>
<g style="mix-blend-mode:multiply" opacity="0.5">
<path d="M29.2349 77.2214C29.7545 81.021 31.927 84.4457 33.469 87.8961C34.0653 89.208 34.0227 90.2304 33.4519 91.5338C33.3923 91.6701 33.3412 91.7979 33.2901 91.9257C33.5201 91.4486 33.7757 90.963 34.0653 90.503C34.1931 90.307 34.5765 90.307 34.6105 90.5711C34.7895 91.815 34.8406 93.0758 34.9343 94.3281C35.0195 92.1813 35.4625 90.0855 37.1578 88.6884C37.2515 88.6117 37.3623 88.535 37.4645 88.4583C35.7777 88.8587 34.7213 89.0462 34.7213 89.0462C32.0377 85.8259 29.3627 77.1191 29.3627 77.1191L29.2519 77.1617C29.2519 77.1617 29.2519 77.2043 29.2434 77.2214H29.2349Z" fill="#91959C"/>
</g>
<g style="mix-blend-mode:multiply" opacity="0.5">
<path d="M56.9989 126.998C56.4622 116.945 58.3364 85.824 58.7368 83.9497C59.1372 82.0755 57.9275 82.3396 57.9275 82.3396C57.5015 82.2203 56.9733 82.2288 56.3429 82.314C55.3461 82.8763 54.3068 83.3789 53.4037 84.0945C48.4029 88.0986 46.9461 87.3233 48.5392 90.3733C49.2719 91.796 50.6009 94.0621 51.3506 95.4252C51.8021 96.2516 51.6147 96.7542 51.0183 97.4784C49.8001 98.9863 46.2986 101.849 45.3189 103.527C44.8504 104.319 45.5915 104.464 46.1197 105.401C48.1984 109.15 50.2346 113.222 51.8873 117.201C53.5997 121.324 54.835 126.308 55.8232 130.661C56.7263 134.614 57.1522 138.541 57.4675 142.563C57.6719 145.169 58.0042 147.759 58.1064 150.383C58.2597 154.2 58.4216 161.62 53.4804 162.762C50.3964 163.486 47.0398 162.464 44.1858 161.279C41.8601 160.317 40.0369 159.15 39.4491 156.56C38.8016 153.706 38.8016 149.463 38.8016 146.575C38.8016 141.038 39.0231 135.977 39.1509 131.556C39.4406 122.082 41.0252 116.954 42.5842 107.616C43.3424 103.093 44.1688 98.5348 45.6171 94.1729C46.6053 91.2167 47.8066 88.3457 49.093 85.5087C48.3262 86.4799 45.3019 92.1368 44.5181 93.7299C43.8621 95.0589 43.4021 97.3676 42.1071 97.8873C38.7505 99.2248 36.544 99.7956 34.8572 100.026C32.7444 100.332 30.9128 101.099 28.9533 100.026C26.849 98.8755 26.0056 96.2346 25.0259 94.1558C23.6884 91.3019 22.1123 87.0422 21.4393 83.9327C20.9452 81.6665 20.2295 80.985 22.5127 80.0479C22.7598 79.9456 23.4924 79.5623 23.6969 79.4004L17.8101 81.7858C23.3135 107.54 28.5444 104.047 31.8925 103.783C35.2406 103.519 42.8909 100.298 42.8909 100.298C42.4905 102.036 38.069 123.36 37.9242 134.887C37.7964 146.422 38.3331 162.924 38.4694 164.27C38.6057 165.607 41.6897 169.373 51.751 170.702C61.8038 172.048 60.3299 165.471 59.9295 161.45C59.5291 157.42 57.5186 137.034 56.9819 126.972L56.9989 126.998Z" fill="#91959C"/>
</g>
<path d="M71.2095 81.6766C71.2095 81.6766 70.2639 107.149 70.8006 123.915C71.3373 140.681 73.6205 160.804 74.1572 164.016C74.6854 167.236 76.1678 168.054 80.1974 167.901C84.2185 167.773 92.1244 166.555 94.9443 165.362C97.7642 164.152 99.9026 164.016 97.3553 155.846C94.808 147.659 91.0595 137.197 90.1139 134.241C89.1767 131.302 89.3131 130.629 89.0404 125.798C88.7678 120.976 88.1033 107.567 88.1033 107.567C88.1033 107.567 105.67 134.914 107.008 136.132C107.008 136.132 114.658 131.975 118.679 128.09C118.679 128.09 104.196 108.777 101.521 104.747C98.8376 100.726 90.9147 88.5262 86.9021 85.7063C82.881 82.8949 72.8112 79.9387 71.2095 81.6852V81.6766Z" fill="#F3F3F3"/>
<g style="mix-blend-mode:multiply" opacity="0.5">
<path d="M109.376 133.739C109.274 133.764 109.163 133.722 109.086 133.654C107.391 132.069 106.173 130.186 104.852 128.269C103.327 126.046 101.828 123.805 100.354 121.548C97.6021 117.322 94.6544 113.139 92.1668 108.735C90.1818 105.208 88.2308 105.412 86.0329 89.1317C86.0329 89.1317 86.0272 89.1374 86.0158 89.1488C87.5152 100.624 87.4897 113.608 87.8901 116.998C88.086 118.694 88.316 123.78 88.2308 127.085C88.1456 130.323 82.2503 121.028 81.2365 119.409C82.2247 121.948 83.6645 124.316 85.0617 126.659C86.7826 129.505 88.3671 132.41 89.5087 135.536C90.727 138.893 91.5448 142.343 92.3457 145.819C93.0868 149.031 94.0325 152.175 94.8418 155.361C95.3956 157.559 95.123 159.16 92.7376 159.893C90.6929 160.507 88.6909 160.762 86.5781 161.018C84.9168 161.214 83.2726 161.64 81.6113 161.75C78.9022 161.912 76.7468 160.975 75.733 158.343C74.3103 154.645 72.9302 138.612 72.6405 134.523C72.3679 130.578 72.4275 126.591 73.3391 122.715C74.3103 118.549 76.1675 114.826 78.0417 111.009C78.9874 109.101 81.6113 104.381 82.9233 102.524C81.6965 101.161 80.6998 99.5934 79.2941 98.3837C79.2089 98.307 79.1833 98.1281 79.2515 98.0259C80.9127 95.8109 82.6081 93.5618 84.9765 92.0624C81.9691 88.2627 78.9022 84.2331 75.0003 81.3025C73.1687 81.0299 71.7204 81.098 71.2007 81.6773C71.2007 81.6773 70.2551 107.15 70.7918 123.916C71.3285 140.682 73.6117 160.805 74.1484 164.016C74.6766 167.237 76.159 168.055 80.1886 167.901C84.2097 167.773 92.1156 166.555 94.9355 165.363C97.7554 164.153 99.8938 164.016 97.3465 155.846C94.7992 147.659 91.0507 137.198 90.1051 134.241C89.168 131.302 89.3043 130.629 89.0317 125.799C88.759 120.977 88.0945 107.568 88.0945 107.568C88.0945 107.568 105.661 134.914 106.999 136.133C106.999 136.133 114.649 131.975 118.67 128.091C118.67 128.091 118.628 128.014 118.56 127.912C115.646 130.093 112.894 132.572 109.367 133.739H109.376Z" fill="#91959C"/>
</g>
<path d="M60.1427 82.0093C60.1427 82.0093 57.868 98.7753 56.9224 124.861C56.9224 124.861 54.9799 119.69 53.8384 115.609C52.6968 111.512 48.599 104.671 46.9292 102.924C46.9292 102.924 50.8907 98.5709 53.6424 96.6881C53.6424 96.6881 49.6809 89.6511 48.2071 88.4414C48.2071 88.4414 57.7913 79.8539 60.1341 82.0008L60.1427 82.0093Z" fill="#F3F3F3"/>
<path d="M70.8008 122.988C70.8008 122.988 75.299 110.575 82.0037 102.337C82.0037 102.337 78.4512 98.7758 76.841 97.4383C76.841 97.4383 81.467 93.2723 83.2816 91.4066C83.2816 91.4066 77.2414 83.7563 73.6207 80.8086C70 77.8609 70.5367 80.536 70.5367 84.966C70.5367 89.396 69.7274 105.225 70.8008 122.988Z" fill="#F3F3F3"/>
<path d="M38.8022 62.4484C38.8022 62.4484 34.7725 53.1539 32.8983 44.9242C31.0155 36.6946 30.4873 32.7586 30.4873 31.9578C30.4873 31.157 28.6983 30.7055 28.6983 30.7055C28.6983 30.7055 29.5928 28.3797 30.9303 28.0219L27.5311 27.4852C27.5311 27.4852 28.7835 24.7164 32.992 23.2852C32.992 23.2852 28.9624 20.8742 27.0796 17.2876C27.0796 17.2876 30.6577 19.5281 33.0772 18.9914C35.4881 18.4547 38.9811 15.6859 45.0468 12.7297C51.1381 9.78205 59.7171 3.48628 76.7983 3.97188C83.0515 4.15078 90.574 7.00475 92.5335 13.7265C92.5335 13.7265 95.7538 13.3602 99.6897 14.0758C103.626 14.7914 106.301 27.7578 109.257 29.4617L106.923 29.5468C106.923 29.5468 109.155 31.4211 109.427 32.5882C109.427 32.5882 107.544 32.2219 106.565 32.5031L107.996 33.7554C107.996 33.7554 105.134 34.6414 104.776 36.0726C104.418 37.5039 101.649 48.6897 101.377 52.5319C101.104 56.3742 87.4304 67.0148 86.3484 67.3726C85.2835 67.7219 38.7936 62.4484 38.7936 62.4484H38.8022Z" fill="#30190F"/>
<g style="mix-blend-mode:screen" opacity="0.5">
<path d="M54.7671 9.21115C52.7821 10.2335 50.976 11.5454 49.0677 12.6615C46.4011 14.212 36.0928 23.6684 30.5723 19.7069C33.7755 22.0072 38.18 21.9475 42.1074 22.1009C42.3715 22.1009 35.4198 25.3808 31.765 25.6108C34.4997 26.5224 37.4899 26.4798 40.361 26.2498C40.6932 26.2242 35.7179 27.8429 33.2984 27.9962C36.0757 29.2315 38.9808 30.0238 41.4429 30.4328C47.7983 31.5062 54.7756 32.4092 61.2418 31.7788C68.7388 31.0547 81.0662 28.2092 86.6123 22.6717C84.3376 22.0753 81.8756 22.1349 79.5583 21.8453C77.9311 21.6408 74.0208 21.0785 74.5064 18.7783C75.2305 15.3195 80.3336 14.7402 86.9445 16.9126C83.0086 12.5933 81.0066 13.8031 79.4731 12.4485C77.6244 10.8043 86.3567 10.5402 87.6176 12.0822C84.738 8.53812 86.1949 7.64359 89.8582 10.1738C86.6464 6.37422 81.3729 4.68739 76.5765 4.54256C68.9262 4.32106 61.5485 5.68415 54.7756 9.19411L54.7671 9.21115Z" fill="#30190F"/>
</g>
<g style="mix-blend-mode:screen" opacity="0.5">
<path d="M74.8215 25.338C74.0632 25.3125 71.2178 25.5169 70.9026 24.3754C70.6811 23.5575 71.6438 22.8589 72.1038 22.3392C72.8535 21.4788 73.0069 20.4394 71.5075 20.3202C70.7237 20.2605 69.9314 20.2861 69.1732 20.0731C68.0571 19.7408 67.9208 18.3863 68.6194 17.594C71.7119 14.084 76.4146 14.1692 80.6998 13.8029C79.1067 13.0787 77.3517 12.7721 75.8438 11.886C75.2645 11.5368 74.5659 10.8211 75.3497 10.2248C76.4146 9.41544 77.8969 9.39841 79.3708 9.7051C78.7915 9.27913 78.3399 8.75946 78.3229 8.07791C78.2803 5.88845 82.2418 6.34849 83.426 6.62111C84.9083 6.95336 86.4929 7.456 87.839 8.25682C84.6783 5.81177 80.4698 4.67019 76.5764 4.56796C68.9261 4.34645 61.5484 5.70954 54.7755 9.2195C54.1792 9.52619 53.5999 9.85845 53.0376 10.2077C55.0652 9.30469 57.0587 8.32497 59.1374 7.54119C61.7699 6.55295 64.5557 5.93105 67.35 5.63287C69.7525 5.38581 72.5383 5.17283 74.8981 5.92253C75.6564 6.16959 76.159 6.86817 75.503 7.4986C74.5488 8.40165 72.7002 8.60611 71.4819 8.86169C69.9995 9.16838 68.5427 9.46656 67.0774 9.85845C64.6238 10.4974 63.5589 12.6443 66.9581 12.0735C68.8494 11.7668 70.86 11.2301 72.6661 12.1331C72.8705 12.2353 72.8535 12.542 72.6661 12.6443C67.3074 15.7283 60.2364 15.1234 55.636 19.6983C55.3208 20.0049 54.4007 20.891 55.2952 21.121C56.0364 21.3084 56.8202 21.2743 57.5869 21.2062C58.2855 21.1551 58.9755 21.0358 59.6741 20.9591C61.2672 20.7887 63.7634 20.3116 65.2202 21.2402C66.4896 22.0325 65.6802 23.5149 64.7431 24.222C63.823 24.9121 62.5707 25.4147 61.804 26.3007C60.9265 27.306 64.266 27.2975 64.8198 27.3997C65.4417 27.5019 67.2734 27.1612 66.9155 27.8342C66.1147 29.3762 58.0043 30.5007 55.3208 30.5178C50.2092 30.5519 42.3033 29.9214 33.4687 27.9961C33.4091 27.979 33.3495 28.0131 33.2983 28.0131C36.0756 29.2484 38.9807 30.0407 41.4428 30.4496C47.7982 31.5231 54.7755 32.4261 61.2417 31.7957C68.449 31.0971 80.1205 28.4476 85.9477 23.319C82.3951 24.6565 78.6552 25.4999 74.83 25.3466L74.8215 25.338Z" fill="#30190F"/>
</g>
<g style="mix-blend-mode:screen" opacity="0.5">
<path d="M99.6302 16.8096C99.7069 16.9288 99.6643 17.1333 99.528 17.2015C98.6675 17.5848 97.7304 17.5678 96.8188 17.5933C96.214 17.6189 95.0979 17.5337 94.6464 18.0704C94.3142 18.4708 95.132 18.9138 95.345 19.0842C96.3162 19.8424 96.3929 20.6688 95.5665 21.5889C95.2087 21.9893 92.6699 22.066 93.2663 22.7731C93.8371 23.4461 93.803 24.3747 93.7434 25.2181C93.6156 26.7942 92.5421 26.7175 91.588 26.1041C91.2813 30.7642 94.016 34.6405 97.33 37.6989C96.9807 37.06 96.691 36.404 96.4269 35.7736C95.9243 34.6064 95.3109 33.0389 95.771 31.7695C96.4695 29.8271 99.3065 32.3062 100.866 33.6267C99.8006 31.4798 98.216 29.3926 98.7101 26.922C98.7527 26.7346 98.9827 26.6494 99.1361 26.7431C99.7921 27.1265 102.995 30.3212 102.723 28.1232C102.561 26.7686 101.786 25.1329 102.229 23.7784C102.288 23.5909 102.476 23.5228 102.646 23.5995C104.35 24.3747 104.75 26.1893 106.037 27.3906C106.556 27.8676 107.11 28.2936 107.689 28.6685C105.21 25.2181 102.791 15.3442 99.4343 14.7223C98.4716 14.5434 97.5515 14.4412 96.7081 14.373C97.7389 15.1313 98.9231 15.6595 99.6387 16.8011L99.6302 16.8096Z" fill="#30190F"/>
</g>
<path d="M39.1513 54.227C39.1513 54.227 36.6466 51.6286 34.5082 52.6168C32.3699 53.5965 32.3103 59.1852 34.9598 61.8262C35.488 62.3629 37.5582 62.9081 39.1598 62.0051V54.227H39.1513Z" fill="#FCC188"/>
<path d="M37.405 57.2525C36.6553 56.4517 35.9397 56.1195 34.8662 56.0684C34.8322 56.0684 34.8236 56.128 34.8662 56.1365C35.8204 56.2473 36.6723 56.9714 37.2176 57.7211C37.7543 58.4452 37.9076 59.3313 38.3592 60.0724C38.4784 60.2684 38.7425 60.1236 38.7511 59.9361C38.7511 59.0331 38.0099 57.9 37.4135 57.2611L37.405 57.2525Z" fill="#A56A3C"/>
<path d="M95.7534 54.8413L96.2901 61.9975C96.2901 61.9975 97.1761 62.6279 100.039 60.8389C102.901 59.0498 103.446 55.4632 103.446 53.0522C103.446 50.6412 99.0589 48.2218 96.5542 54.3046L95.7534 54.8327V54.8413Z" fill="#FCC188"/>
<path d="M101.308 54.5247C98.9055 54.1329 97.9428 56.9868 98.4114 58.9122C98.4455 59.04 98.6414 59.0229 98.6585 58.8952C98.8203 57.0294 98.9737 54.8314 101.308 54.644C101.368 54.644 101.385 54.5418 101.308 54.5247Z" fill="#A56A3C"/>
<path d="M37.5494 31.6078C37.5494 31.6078 61.5057 39.6585 87.7963 24.9883C87.7963 24.9883 87.0807 30.1765 97.8065 40.9109C97.8065 40.9109 97.0909 51.6282 96.5541 54.3203C96.5541 54.3203 96.8268 56.0156 97.176 57.1828C97.5339 58.3499 99.3229 67.0992 87.2596 74.3492C75.1877 81.5991 71.5159 83.6437 66.0635 83.6437C60.6112 83.6437 49.7916 79.4437 43.4447 75.3289C37.0893 71.2226 37.0893 67.0992 37.8987 62.4562C38.708 57.8047 38.3502 56.1008 37.3705 50.9211C36.3908 45.7328 34.0565 41.175 34.7806 37.6991C35.4962 34.2062 37.5579 31.6163 37.5579 31.6163L37.5494 31.6078Z" fill="#FCC188"/>
<path d="M63.8657 65.3193C62.0937 64.5355 60.2962 63.6921 59.4016 61.8434C58.7286 60.4547 60.1002 59.7817 61.097 59.2706C61.787 58.9128 62.3152 58.4953 62.7327 57.8564C62.8008 57.7541 62.6816 57.6604 62.6049 57.7371C61.2077 59.1769 58.013 59.0746 58.6434 61.7838C59.1546 63.9988 61.8126 65.2596 63.8146 65.4811C63.9254 65.4982 63.9765 65.3534 63.8743 65.3108L63.8657 65.3193Z" fill="#A56A3C"/>
<path d="M53.6424 68.5316C53.6424 68.5316 52.9609 69.2558 53.1057 69.6477C53.242 70.0566 57.5784 71.0789 64.7346 68.932C71.8823 66.7937 77.2921 64.4168 80.1545 62.4062C80.1545 62.4062 76.8405 66.2996 64.5898 69.4262C58.1747 71.0619 54.6477 71.0108 53.1057 70.5933C51.7 70.2014 51.913 69.5284 53.6424 68.5316Z" fill="#A56A3C"/>
<path d="M79.9928 39.4976C79.0983 37.7682 77.0111 35.8939 75.0431 36.4988C72.7514 37.1974 72.1295 39.4294 71.5587 41.4996C71.5332 41.5933 71.6524 41.6359 71.7121 41.6019C71.7547 41.6274 71.8143 41.6019 71.8399 41.5593C72.5725 40.1195 73.8248 39.0801 75.3242 38.4923C77.3178 37.7085 78.9194 39.4209 80.1717 40.6733C80.308 40.801 80.5125 40.6307 80.4614 40.4688C80.3336 40.1025 80.1803 39.7787 79.9928 39.4891V39.4976Z" fill="#272314"/>
<path d="M52.6372 42.7594C52.7053 42.0949 51.3422 40.7829 51.0015 40.4677C50.1325 39.6754 49.1187 39.2324 47.943 39.6414C46.4266 40.1696 46.3073 42.3675 46.4266 43.6795C46.4266 43.6965 46.4436 43.7051 46.4436 43.7051C46.4607 43.7988 46.4777 43.901 46.5033 44.0032C46.5203 44.0714 46.631 44.0629 46.6396 43.9862C46.9122 42.6487 47.3467 41.6093 48.812 41.3026C50.2262 40.9959 51.6745 41.899 52.4583 43.0235C52.569 42.9554 52.6201 42.8617 52.6372 42.7509V42.7594Z" fill="#272314"/>
<path d="M53.4978 53.9389C53.8385 56.4862 53.4296 58.6501 52.5691 58.7694C51.7002 58.8886 50.729 56.9207 50.3797 54.3734C50.0304 51.8176 50.4564 49.6537 51.3083 49.5344C52.1687 49.4152 53.1485 51.3831 53.5063 53.9389H53.4978Z" fill="#1A150C"/>
<path d="M52.6883 51.4003C52.9695 52.3544 52.8587 53.2405 52.4242 53.3597C52.0068 53.4875 51.4275 52.823 51.1463 51.8603C50.8567 50.8976 50.9674 50.0287 51.4019 49.8924C51.8279 49.7646 52.3987 50.4461 52.6969 51.4003H52.6883Z" fill="white"/>
<path d="M77.6929 51.578C77.727 54.1508 77.054 56.2465 76.1765 56.2636C75.316 56.2806 74.5749 54.1934 74.5408 51.6291C74.5067 49.0477 75.1797 46.952 76.0487 46.9435C76.9177 46.9264 77.6503 49.0137 77.6929 51.5865V51.578Z" fill="#1A150C"/>
<path d="M77.1984 48.9631C77.3602 49.9513 77.1387 50.8118 76.7042 50.8884C76.2698 50.9651 75.7756 50.2154 75.6138 49.2357C75.4434 48.256 75.6564 47.3955 76.0994 47.3188C76.5424 47.2507 77.028 47.9834 77.1984 48.9631Z" fill="white"/>
<path d="M53.3442 70.644C53.5487 70.9081 53.8469 71.3511 54.2473 72.0838C55.1248 73.6939 56.5901 77.1868 58.0043 77.8513C59.41 78.5244 63.0307 79.6659 67.0603 78.8566C71.0814 78.0473 75.7074 75.6363 77.522 74.2988C79.3367 72.9613 79.3367 71.5556 79.5326 70.3458C79.6945 69.332 80.146 64.9446 79.8989 62.6699C78.9107 63.5985 74.9492 66.7847 64.5983 69.4257C58.4814 70.9848 54.9885 71.0103 53.3528 70.644H53.3442Z" fill="#2F1116"/>
<path d="M79.8906 62.6699C78.9023 63.5985 74.9408 66.7847 64.5899 69.4257C60.4239 70.4907 57.4848 70.8399 55.5083 70.8399C56.028 72.416 56.9736 73.5661 58.2004 74.4351C57.8767 75.5426 57.817 76.6672 57.8767 77.7661C57.9193 77.7917 57.9619 77.8258 58.0045 77.8513C59.4101 78.5244 63.0309 79.6659 67.0605 78.8566C71.0816 78.0473 75.7076 75.6363 77.5222 74.2988C79.3368 72.9613 79.3368 71.5556 79.5328 70.3458C79.6946 69.332 80.1462 64.9446 79.8991 62.6699H79.8906Z" fill="white"/>
<g style="mix-blend-mode:multiply">
<path d="M79.8906 62.6699C78.9023 63.5985 74.9408 66.7847 64.5899 69.4257C60.4239 70.4907 57.4848 70.8399 55.5083 70.8399C56.028 72.416 56.9736 73.5661 58.2004 74.4351C57.8767 75.5426 57.817 76.6672 57.8767 77.7661C57.9193 77.7917 57.9619 77.8258 58.0045 77.8513C59.4101 78.5244 63.0309 79.6659 67.0605 78.8566C71.0816 78.0473 75.7076 75.6363 77.5222 74.2988C79.3368 72.9613 79.3368 71.5556 79.5328 70.3458C79.6946 69.332 80.1462 64.9446 79.8991 62.6699H79.8906ZM76.4828 73.498C72.3169 76.3775 67.0009 78.8396 61.8467 78.3114C60.5688 78.1836 59.1716 77.6383 59.3335 76.2241C59.4868 74.8866 59.3505 74.8611 60.4751 74.6566C67.8613 73.8984 73.9526 71.2148 76.2017 70.3032C76.7299 70.0817 78.3827 69.2724 78.766 70.1499C79.2601 71.3341 77.2666 72.9527 76.4743 73.498H76.4828ZM78.9705 67.8923C78.9705 67.9689 78.9534 68.0456 78.8938 68.1223C77.3689 69.741 74.6682 70.6014 72.6236 71.3596C70.1274 72.2797 66.6601 73.498 61.1225 74.0091C60.5347 74.0602 59.2738 74.1965 58.7371 73.8302C58.0556 73.3787 56.8629 71.7771 57.8 71.6663C59.2142 71.4959 61.0799 70.9592 62.426 70.6525C63.8828 70.3203 65.314 69.9028 66.7453 69.4428C69.7441 68.4801 72.9644 67.2874 75.8013 65.8987C76.9003 65.3705 77.5733 65.0042 78.3741 64.6464C79.2601 64.2545 79.5668 67.0488 78.979 67.8923H78.9705Z" fill="#CCCAC7"/>
</g>
<g style="mix-blend-mode:multiply">
<path d="M58.2002 74.4353C58.2002 74.4353 66.9155 74.9039 78.2547 69C78.2547 69 67.3159 76.1818 58.2002 74.4353Z" fill="#94918D"/>
</g>
<path opacity="0.5" d="M33.2305 216.077C33.2305 216.077 33.9205 214.927 40.0715 212.686C46.2139 210.454 48.4119 209.56 48.4119 209.56C48.4119 209.56 49.9794 208.793 51.4362 210.71C51.4362 210.71 36.5956 214.859 35.0451 215.455C33.5031 216.068 33.2305 216.077 33.2305 216.077Z" fill="#B16E3C"/>
<path opacity="0.5" d="M110.415 216.606C110.415 216.606 100.558 209.944 96.963 208.462C95.4381 207.84 94.3732 208.683 94.0068 208.956C94.0068 208.956 108.404 215.576 110.415 216.606Z" fill="#B16E3C"/>
<g style="mix-blend-mode:screen" opacity="0.5">
<path d="M53.3698 207.004C53.3698 207.004 49.5532 183.345 49.5532 174.622C49.5532 173.557 49.698 172.338 49.3913 171.844C49.042 171.291 48.2156 171.538 47.6704 171.461C47.6704 171.461 48.6757 188.04 53.3613 207.004H53.3698Z" fill="#17293B"/>
</g>
<g style="mix-blend-mode:screen" opacity="0.5">
<path d="M91.1958 207.207C91.1958 207.207 87.1321 181.241 85.4282 172.67C85.0193 170.66 84.8575 169.339 84.5593 168.853C84.21 168.283 84.0226 168.794 83.4858 168.726C83.4858 168.726 87.2429 188.303 91.2043 207.207H91.1958Z" fill="#17293B"/>
</g>
<g style="mix-blend-mode:multiply">
<path d="M65.8762 119.767C65.561 117.458 63.9764 108.539 63.3715 105.148C63.5334 104.978 63.6186 104.739 63.5845 104.484C63.2097 102.09 62.4429 100.59 61.1736 99.7553C59.8105 98.8608 58.0129 98.767 55.0482 99.4486L53.0035 84.0457C52.9439 83.6197 52.552 83.313 52.1261 83.3727C51.7001 83.4323 51.3934 83.8242 51.453 84.2587L53.5317 99.8916C49.9451 101.195 49.0847 104.1 49.1613 105.565C49.1698 105.83 49.3147 106.051 49.5191 106.179C49.6214 109.518 49.9451 119.903 50.2774 122.579C50.6692 125.782 51.9727 125.126 54.4603 125.39C54.5285 126.497 54.5966 126.634 55.5678 126.634C56.5391 126.634 57.0758 126.702 57.0758 125.194C57.0758 123.686 57.2121 123.039 56.3601 122.911C55.3123 122.749 54.7244 123.567 54.7244 123.567C54.7244 123.567 51.7853 123.567 51.453 121.471C51.0867 118.2 50.5841 109.399 50.4051 106.162C50.6096 106.008 50.7374 105.77 50.7289 105.497C50.7289 105.361 50.6607 102.192 54.8437 101.127C57.6551 100.411 59.2993 100.394 60.3216 101.076C61.1991 101.647 61.7444 102.814 62.051 104.731C62.0851 104.986 62.247 105.191 62.46 105.301C62.8519 107.934 63.8571 114.724 64.3257 118.464C64.5898 121.079 64.2575 121.795 62.8859 122.383L61.8381 122.715C61.8381 122.715 61.378 122.059 60.4665 122.383C59.5549 122.715 59.4867 123.294 59.7508 124.862C60.0149 126.429 60.9947 126.037 62.0425 125.841C63.0904 125.645 62.8945 125.518 62.5622 124.138C65.5014 123.158 66.2851 122.638 65.8933 119.759L65.8762 119.767Z" fill="#A1A5AB"/>
</g>
<path d="M49.5365 103.76C49.5365 103.76 50.1925 116.241 50.644 120.296C50.9677 122.392 53.9154 122.391 53.9154 122.391C53.9154 122.391 54.4947 121.574 55.5426 121.736C56.3945 121.863 56.2668 122.519 56.2668 124.027C56.2668 125.535 55.7386 125.458 54.7674 125.458C53.7962 125.458 53.7195 125.331 53.6513 124.215C51.1637 123.951 49.8602 124.607 49.4683 121.403C49.0765 118.2 48.6846 103.956 48.6846 103.956L49.5365 103.76Z" fill="#D6D8DB"/>
<path d="M61.4973 103.044C61.4973 103.044 62.9285 112.585 63.5248 117.296C63.7889 119.912 63.4567 120.627 62.0851 121.215L61.0372 121.539C61.0372 121.539 60.5772 120.883 59.6656 121.215C58.7455 121.539 58.6859 122.127 58.95 123.703C59.2141 125.27 60.1938 124.879 61.2417 124.683C62.2895 124.487 62.0936 124.359 61.7614 122.987C64.7005 122.008 65.4843 121.479 65.0924 118.608C64.7005 115.729 62.3492 102.66 62.3492 102.66L61.4973 103.052V103.044Z" fill="#D6D8DB"/>
<path d="M53.5232 99.5159C53.1399 99.5159 52.7991 99.2263 52.748 98.8344L50.6607 83.0822C50.6011 82.6562 50.9078 82.2643 51.3338 82.2047C51.7597 82.1451 52.1601 82.4517 52.2113 82.8777L54.2985 98.6299C54.3581 99.0559 54.0514 99.4563 53.6255 99.5074C53.5914 99.5074 53.5573 99.5074 53.5232 99.5074V99.5159Z" fill="#9B1C22"/>
<path d="M49.1442 105.13C48.7268 105.13 48.386 104.807 48.3604 104.389C48.2838 102.813 49.289 99.5331 53.6594 98.4256C56.9905 97.5822 58.9329 97.6333 60.3812 98.5875C61.6505 99.4224 62.4173 100.922 62.7921 103.316C62.8603 103.742 62.5706 104.142 62.1362 104.21C61.7102 104.278 61.3098 103.989 61.2416 103.554C60.9349 101.637 60.3897 100.47 59.5122 99.8994C58.4814 99.2179 56.8457 99.2349 54.0343 99.9506C49.8513 101.015 49.9195 104.185 49.9195 104.321C49.9365 104.755 49.5957 105.122 49.1698 105.139C49.1612 105.139 49.1442 105.139 49.1357 105.139L49.1442 105.13Z" fill="#9B1C22"/>
<g style="mix-blend-mode:multiply">
<path d="M84.4316 102.515C84.3635 101.211 84.1335 96.9942 83.7331 92.7601C83.2986 88.2448 82.9834 85.0245 82.5659 83.4399C82.3018 83.3973 81.2369 82.9117 80.9728 82.8691C81.0495 82.9458 81.7821 84.0533 81.8162 84.1641C81.9355 84.5219 81.5521 84.999 81.1773 85.442C81.9099 89.0542 82.5574 96.04 82.8641 102.455C80.7257 102.872 79.1071 105.318 79.1412 108.265C79.1752 111.486 81.1773 114.067 83.6053 114.041C86.0333 114.016 87.9757 111.383 87.9331 108.163C87.899 105.386 86.4081 103.077 84.4316 102.523V102.515Z" fill="#A1A5AB"/>
</g>
<path d="M80.4273 84.5915C81.177 88.3059 81.85 95.5899 82.1482 102.158C82.1652 102.576 82.5145 102.908 82.932 102.908H82.9661C83.4005 102.891 83.7328 102.525 83.7158 102.09C83.7158 102.039 83.4857 96.9786 83.0001 91.9181C81.9778 81.1667 80.8703 80.9026 80.1376 80.7152C79.7969 80.63 79.1494 80.6385 78.5957 81.5927C78.5445 82.155 79.8906 83.0665 80.4358 84.5745L80.4273 84.5915Z" fill="#9B1C22"/>
<path d="M87.1835 107.319C87.2176 110.54 85.2837 113.172 82.8557 113.198C80.4277 113.223 78.4256 110.642 78.3916 107.421C78.3575 104.201 80.2914 101.569 82.7194 101.543C85.1474 101.518 87.1494 104.099 87.1835 107.319Z" fill="#D6D8DB"/>
<path d="M84.8826 107.788C84.8826 109.969 83.741 111.741 82.3354 111.741C80.9297 111.741 79.7881 109.969 79.7881 107.788C79.7881 105.607 80.9297 103.826 82.3354 103.826C83.741 103.826 84.8826 105.598 84.8826 107.788Z" fill="#EBECF0"/>
<g style="mix-blend-mode:multiply" opacity="0.5">
<path d="M83.162 107.788C83.162 108.495 82.7872 109.066 82.3357 109.066C81.8841 109.066 81.5093 108.495 81.5093 107.788C81.5093 107.081 81.8841 106.502 82.3357 106.502C82.7872 106.502 83.162 107.073 83.162 107.788Z" fill="#A1A5AB"/>
</g>
</svg>
