<svg viewBox="0 0 34 59" fill="none" xmlns="http://www.w3.org/2000/svg">
<path d="M32.2222 1.43043C32.4591 1.72118 32.6062 2.09317 32.6105 2.50157L32.6499 6.25743C32.6599 7.21036 31.8932 7.99341 30.9402 8.00342L27.0168 8.04464C26.1023 8.05424 25.3478 7.35001 25.279 6.45006C28.2995 5.86327 31.0202 4.31612 32.2222 1.43043Z" fill="#F3F0F8"/>
<path d="M25.2349 2.57745C25.2249 1.62452 25.9917 0.841469 26.9446 0.831459L30.8681 0.790246C31.4161 0.78449 31.9039 1.03421 32.2258 1.4288C31.0238 4.31449 28.3066 5.8616 25.2826 6.44843C25.2822 6.41004 25.2748 6.37171 25.2744 6.33332L25.2349 2.57745Z" fill="white"/>
<path d="M28.9645 6.6858C30.2176 6.67264 31.2227 5.64616 31.2095 4.39309C31.1964 3.14002 30.1699 2.13488 28.9168 2.14804C27.6638 2.1612 26.6586 3.18769 26.6718 4.44075C26.6849 5.69382 27.7114 6.69896 28.9645 6.6858Z" fill="#DCD6EB"/>
<path d="M30.85 4.39658C30.8611 5.45074 30.0148 6.31491 28.9607 6.32599C27.9065 6.33706 27.0424 5.49085 27.0313 4.43669C27.0202 3.38254 27.8664 2.51836 28.9206 2.50729C29.9747 2.49621 30.8389 3.34242 30.85 4.39658Z" fill="#C1BDDA"/>
<path d="M28.9885 5.31902C29.4685 5.31398 29.8536 4.92076 29.8485 4.44074C29.8435 3.96072 29.4503 3.57567 28.9702 3.58071C28.4902 3.58576 28.1052 3.97898 28.1102 4.459C28.1152 4.93902 28.5085 5.32407 28.9885 5.31902Z" fill="#B7B7B7"/>
<path d="M28.9876 5.2435C29.4272 5.23889 29.7797 4.87883 29.7751 4.43929C29.7705 3.99975 29.4104 3.64718 28.9709 3.6518C28.5314 3.65641 28.1788 4.01647 28.1834 4.45601C28.188 4.89555 28.5481 5.24812 28.9876 5.2435Z" fill="#EAEAEA"/>
<path d="M28.6055 5.08072C28.676 8.14156 28.6765 11.1787 28.5999 14.1852C28.4322 20.8233 28.0959 28.685 26.8496 36.6575L26.7972 36.9932C26.0646 41.6928 25.3057 46.5497 23.2003 50.8378C21.5871 54.1258 18.8277 56.6368 16.1738 57.2302C14.2931 57.6514 12.4833 57.1782 10.79 55.8276C9.30084 54.6388 8.12624 52.8219 7.39749 50.5779C6.93577 49.1619 6.67239 47.6845 6.47846 46.1714C6.45186 45.9658 6.42527 45.7601 6.40216 45.5543C6.34293 45.5654 6.28017 45.5731 6.21734 45.5737L5.88574 45.5772C5.85083 45.5776 5.81942 45.5779 5.78447 45.5748C5.80754 45.777 5.8341 45.9792 5.85714 46.178C6.05868 47.7503 6.32966 49.287 6.81302 50.769C7.58137 53.1278 8.82335 55.0453 10.4076 56.3098C11.8334 57.4504 13.3439 58.014 14.9147 57.9975C15.3754 57.9927 15.8427 57.9389 16.3128 57.8327C18.5627 57.3273 21.7042 55.2975 23.7582 51.1077C25.9046 46.7354 26.67 41.8295 27.4091 37.0845L27.4614 36.7488C28.7144 28.7414 29.0539 20.8552 29.2179 14.1962C29.294 11.1443 29.293 8.05827 29.2185 4.9486C29.0166 4.9996 28.811 5.04016 28.6019 5.07726L28.6055 5.08072Z" fill="#EAEAEA"/>
<path d="M4.71252 32.4212C5.95432 32.2847 6.86095 31.2637 6.73753 30.1407C6.61411 29.0177 5.50738 28.218 4.26557 28.3544C3.02377 28.4909 2.11714 29.5119 2.24056 30.6349C2.36398 31.7579 3.47072 32.5576 4.71252 32.4212Z" fill="#8C2B37"/>
<path d="M7.83195 30.4681L6.22277 30.4529C5.88926 30.4498 5.61636 30.7176 5.61322 31.0511L5.49857 43.2579C5.49543 43.5914 5.76326 43.8643 6.09677 43.8674L7.70595 43.8825C8.03946 43.8856 8.31237 43.6178 8.3155 43.2843L8.43016 31.0776C8.43329 30.7441 8.16546 30.4712 7.83195 30.4681Z" fill="#E0E0E0"/>
<path d="M4.29643 44.2568L5.86392 43.8925C6.18879 43.8171 6.39095 43.4925 6.31546 43.1676L3.55244 31.2772C3.47695 30.9523 3.15239 30.7502 2.82752 30.8256L1.26003 31.1899C0.935163 31.2654 0.733001 31.5899 0.808492 31.9148L3.57151 43.8052C3.647 44.1301 3.97156 44.3323 4.29643 44.2568Z" fill="#E0E0E0"/>
<path d="M6.71779 44.4079L5.32984 44.5604C5.11329 44.5842 4.95704 44.7791 4.98084 44.9956L5.03156 45.4571C5.05536 45.6737 5.2502 45.8299 5.46675 45.8061L6.8547 45.6536C7.07125 45.6298 7.2275 45.4349 7.2037 45.2184L7.15298 44.7569C7.12918 44.5403 6.93434 44.3841 6.71779 44.4079Z" fill="#D6D6D6"/>
<path d="M6.64093 45.0243L5.46235 45.1554C5.02647 45.2018 4.62558 44.9233 4.53387 44.5018L2.96769 34.9845C2.93044 34.7614 3.08884 34.5538 3.31202 34.5305L6.50606 34.1793C6.73273 34.1559 6.93349 34.3249 6.94289 34.5552L7.35218 44.2733C7.34228 44.6609 7.03849 44.9852 6.64445 45.0278L6.64093 45.0243Z" fill="#EDEDED"/>
<path d="M6.20513 34.7703L3.73287 35.0406C3.05291 35.1141 2.44383 34.6248 2.37039 33.9483L1.96494 30.2451C3.55864 29.7536 5.23236 29.5685 6.89549 29.7046L7.30095 33.4078C7.37442 34.0877 6.8851 34.6968 6.20862 34.7702L6.20513 34.7703Z" fill="#EDEDED"/>
<path fill-rule="evenodd" clip-rule="evenodd" d="M4.70796 31.4929C4.52664 31.5123 4.32407 31.5039 4.16093 31.5929C4.03604 31.6675 3.9293 31.8083 3.86485 31.987C3.81399 32.1307 3.81157 32.2319 3.8166 32.3785C3.81116 32.5252 3.81968 32.6717 3.83165 32.8147C3.83889 32.8391 3.84609 32.8599 3.86024 32.8772L4.15315 32.8462C4.1634 32.8252 4.17017 32.8042 4.1734 32.7797L4.1582 32.3295C4.1575 32.2632 4.15699 32.2143 4.17723 32.1478C4.18738 32.1163 4.19755 32.0882 4.21479 32.0671L4.23 32.1856L4.32103 32.8759L4.27165 34.4892C4.30232 34.7507 4.65451 34.7121 4.66965 34.492L4.71359 33.0254L5.06695 34.4285C5.18166 34.7136 5.51172 34.5635 5.45705 34.3441L5.34768 33.9019L5.07063 32.7842L5.00392 32.0833L5.00406 32.0972L5.00377 32.0693L5.00414 32.1042L4.99591 31.9856C5.01707 32.0063 5.03478 32.0306 5.04904 32.0583C5.0846 32.1208 5.09206 32.1661 5.10672 32.2323L5.19166 32.6747C5.22506 32.8629 5.54557 32.8002 5.52988 32.6363C5.51441 32.4933 5.48848 32.3505 5.45207 32.2077C5.42613 32.0649 5.39714 31.9639 5.31899 31.8356C5.21953 31.6726 5.08219 31.5588 4.94209 31.5149C4.8721 31.4982 4.79523 31.492 4.70804 31.4999L4.70796 31.4929ZM4.45122 30.6473C4.67091 30.624 4.87156 30.7825 4.89481 31.0022C4.91807 31.2219 4.75959 31.4225 4.5399 31.4458C4.32022 31.469 4.11957 31.3106 4.09631 31.0909C4.07306 30.8712 4.23154 30.6705 4.45122 30.6473Z" fill="#010101"/>
</svg>
