<svg viewBox="0 0 88 21" fill="none" xmlns="http://www.w3.org/2000/svg">
<path d="M79.5432 20.9707L75.6887 20.8586C53.0778 20.1918 30.4392 20.2331 7.82829 20.9707C3.64337 20.9707 0.25 18.0618 0.25 14.4743V8.91611C0.25 5.77709 1.58532 3.90666 5.83219 2.83278C6.91284 2.56136 8.02101 2.40795 9.14296 2.31944C10.8981 2.18963 14.2502 1.93592 18.208 1.6409C35.1679 0.372306 52.2242 0.372306 69.1842 1.6409L78.3181 2.32534C79.44 2.40795 80.5551 2.55546 81.6357 2.81508C86.0202 3.85945 87.1284 5.77709 87.1284 8.92201V14.4802C87.1284 18.0677 83.7351 20.9766 79.5501 20.9766L79.5432 20.9707Z" fill="#4D4669"/>
<path d="M10.7605 16.332V10.0635C10.7605 9.53027 10.6397 9.13607 10.3982 8.88086C10.1612 8.62565 9.80347 8.46387 9.32495 8.39551C9.21558 8.37272 9.0743 8.35449 8.90112 8.34082C8.7325 8.32715 8.53882 8.32031 8.32007 8.32031C8.03296 8.32031 7.6547 8.33398 7.1853 8.36133C6.72046 8.38867 6.14396 8.43197 5.45581 8.49121V7.53418C5.67 7.51139 5.87964 7.49316 6.08472 7.47949C6.28979 7.46582 6.48804 7.45215 6.67944 7.43848C7.04403 7.41569 7.36987 7.39974 7.65698 7.39062C7.94865 7.37695 8.20386 7.37012 8.42261 7.37012C8.93758 7.37012 9.35457 7.3929 9.67358 7.43848C9.99715 7.48405 10.3002 7.56608 10.5828 7.68457C10.8653 7.80306 11.1 7.95345 11.2869 8.13574C11.4737 8.31803 11.6218 8.55273 11.7312 8.83984C11.7996 9.02214 11.8474 9.21126 11.8748 9.40723C11.9067 9.60319 11.9226 9.82194 11.9226 10.0635V16.332H10.7605ZM5.45581 16.332V10.8701H6.60425V16.332H5.45581ZM13.823 16.332V13.2285C13.823 12.946 13.8367 12.6862 13.864 12.4492C13.8959 12.2077 13.9483 11.9798 14.0212 11.7656C14.0987 11.5514 14.2126 11.3418 14.363 11.1367C14.4906 10.9453 14.657 10.7835 14.8621 10.6514C15.0717 10.5192 15.3223 10.4189 15.614 10.3506L13.8708 7.50684H15.1287L18.2048 12.5928C18.2686 12.57 18.3279 12.5449 18.3826 12.5176C18.4373 12.4902 18.4874 12.4583 18.533 12.4219C18.7882 12.2669 18.9682 12.0618 19.073 11.8066C19.1824 11.5514 19.2371 11.1937 19.2371 10.7334V7.50684H20.365V10.7334C20.365 11.1208 20.3354 11.4626 20.2761 11.7588C20.2169 12.0505 20.1212 12.3102 19.989 12.5381C19.8796 12.7295 19.7179 12.9095 19.5037 13.0781C19.2895 13.2422 19.0343 13.3652 18.738 13.4473L20.5017 16.332H19.2371L16.1472 11.2119C15.9832 11.221 15.7986 11.2871 15.5935 11.4102C15.393 11.5332 15.238 11.736 15.1287 12.0186C15.0147 12.3193 14.9578 12.7227 14.9578 13.2285V16.332H13.823ZM22.3884 13.1396V7.50684H23.5437V12.1074L22.7166 13.1396H22.3884ZM29.3816 16.332V10.0635C29.3816 9.52572 29.2585 9.12923 29.0125 8.87402C28.7664 8.61426 28.3995 8.4502 27.9119 8.38184C27.8025 8.35905 27.6817 8.3431 27.5496 8.33398C27.422 8.32487 27.2852 8.32031 27.1394 8.32031C26.9617 8.32031 26.7406 8.32487 26.4763 8.33398C26.212 8.33854 25.9431 8.34993 25.6697 8.36816C25.3962 8.38184 25.1547 8.39551 24.9451 8.40918V7.45215C25.3507 7.4248 25.7221 7.4043 26.0593 7.39062C26.3966 7.37695 26.7042 7.37012 26.9822 7.37012C27.5291 7.37012 27.9643 7.3929 28.2878 7.43848C28.6114 7.48405 28.9145 7.56608 29.197 7.68457C29.4796 7.80306 29.7143 7.95345 29.9011 8.13574C30.088 8.31348 30.2384 8.54818 30.3523 8.83984C30.4161 9.02214 30.4617 9.21126 30.489 9.40723C30.5209 9.60319 30.5369 9.82194 30.5369 10.0635V16.332H29.3816ZM36.2927 16.332C36.2927 16.3001 36.2927 16.2705 36.2927 16.2432C36.2927 16.2113 36.2927 16.1794 36.2927 16.1475C36.2927 15.915 36.3315 15.612 36.4089 15.2383C36.491 14.86 36.5798 14.4749 36.6755 14.083C36.6983 13.9827 36.7348 13.8392 36.7849 13.6523C36.835 13.4609 36.892 13.2536 36.9558 13.0303C37.0196 12.807 37.0811 12.5928 37.1404 12.3877L38.3298 8.44336H32.8406V7.50684H39.5398V8.32715L38.3093 12.4014C38.282 12.4743 38.241 12.6064 38.1863 12.7979C38.1316 12.9893 38.0746 13.1875 38.0154 13.3926C37.9607 13.5931 37.9174 13.7526 37.8855 13.8711C37.849 13.9896 37.8057 14.1536 37.7556 14.3633C37.7055 14.5684 37.6554 14.7871 37.6052 15.0195C37.5551 15.252 37.5141 15.4707 37.4822 15.6758C37.4503 15.8809 37.4343 16.0381 37.4343 16.1475V16.332H36.2927ZM32.8406 19.6953V11.1094H33.9958V19.6953H32.8406ZM44.7625 19.668V10.2822C44.7625 9.99056 44.7465 9.70117 44.7146 9.41406C44.6873 9.1224 44.6462 8.83984 44.5916 8.56641C44.5369 8.28841 44.4708 8.02637 44.3933 7.78027C44.3796 7.7347 44.366 7.68913 44.3523 7.64355C44.3386 7.59798 44.3227 7.55241 44.3044 7.50684H45.4666C45.4848 7.55697 45.503 7.61621 45.5212 7.68457C45.544 7.75293 45.5668 7.8304 45.5896 7.91699C45.6261 8.03092 45.6694 8.22233 45.7195 8.49121C45.7696 8.75553 45.8129 9.04948 45.8494 9.37305C45.8904 9.69661 45.9109 9.99967 45.9109 10.2822V19.668H44.7625ZM47.6746 16.332V15.3955H51.8923L52.7605 15.4092L50.6619 12.3604L47.6472 7.50684H48.8982L51.3181 11.5059L51.6941 12.0869C52.0587 11.7223 52.3458 11.3099 52.5554 10.8496C52.7696 10.3848 52.9041 9.87207 52.9587 9.31152L53.1296 7.50684H54.2166L54.0525 9.25C54.0343 9.43229 54.0115 9.60775 53.9841 9.77637C53.9568 9.94499 53.9226 10.109 53.8816 10.2686C53.8406 10.4235 53.7927 10.5762 53.738 10.7266C53.6788 10.9089 53.6059 11.0843 53.5193 11.2529C53.4373 11.4215 53.3461 11.5902 53.2458 11.7588C53.1137 11.9775 52.9679 12.1872 52.8083 12.3877C52.6488 12.5837 52.4757 12.766 52.2888 12.9346L54.1687 15.6484V16.332H47.6746ZM56.1101 16.332V7.53418C56.1694 7.52507 56.2628 7.51595 56.3904 7.50684C56.518 7.49772 56.6798 7.48405 56.8757 7.46582C57.2996 7.43392 57.6938 7.41113 58.0583 7.39746C58.4229 7.37923 58.7556 7.37012 59.0564 7.37012C59.5805 7.37012 60.0043 7.3929 60.3279 7.43848C60.6514 7.48405 60.9545 7.5638 61.2371 7.67773C61.5196 7.79622 61.7543 7.94661 61.9412 8.12891C62.128 8.30664 62.2761 8.54134 62.3855 8.83301C62.4539 9.01074 62.5017 9.19987 62.5291 9.40039C62.561 9.59635 62.5769 9.81738 62.5769 10.0635V16.332H61.4148V10.0635C61.4148 9.5166 61.2895 9.11328 61.0388 8.85352C60.7882 8.59375 60.4145 8.43197 59.9177 8.36816C59.8129 8.35449 59.6807 8.3431 59.5212 8.33398C59.3663 8.32487 59.1863 8.32031 58.9812 8.32031C58.7716 8.32031 58.5232 8.32715 58.2361 8.34082C57.949 8.35449 57.6231 8.375 57.2585 8.40234V16.332H56.1101ZM66.8562 16.332L67.5056 12.9551L68.8044 8.45703H64.074V5.63379H65.2224V7.47266H69.9392V8.4502L68.6609 12.9072L68.0115 16.332H66.8562Z" fill="white"/>
<circle cx="77.822" cy="11.832" r="5.29688" fill="#FF7A30"/>
</svg>
