<svg viewBox="0 0 394 479" fill="none" xmlns="http://www.w3.org/2000/svg">
<mask id="mask0_1719_14316" style="mask-type:luminance" maskUnits="userSpaceOnUse" x="-1" y="0" width="396" height="479">
<path d="M394.011 0.486328H-0.0888672V478.221H394.011V0.486328Z" fill="white"/>
</mask>
<g mask="url(#mask0_1719_14316)">
<path d="M807.461 -59.7676H-5.46875V437.132H807.461V-59.7676Z" fill="#99BFB8"/>
<path d="M834.841 39.6016H-5.1687V47.7416H834.841V39.6016Z" fill="#D0E2DE"/>
<g opacity="0.36">
<path d="M117.241 47.7415C117.241 47.7415 118.771 -36.2885 350.481 -60.7285L-9.84873 -59.9785L-12.1987 47.7315H117.231L117.241 47.7415Z" fill="#5C7A85"/>
</g>
<path d="M808.651 260.141H-22.0688V434.701H808.651V260.141Z" fill="#BED7D2"/>
<path d="M389.021 257.861H387.771V427.001H389.021V257.861Z" fill="#D0E2DE"/>
<path d="M338.931 257.861H337.681V427.001H338.931V257.861Z" fill="#D0E2DE"/>
<path d="M288.831 257.861H287.581V427.001H288.831V257.861Z" fill="#D0E2DE"/>
<path d="M238.741 257.861H237.491V427.001H238.741V257.861Z" fill="#D0E2DE"/>
<path d="M188.641 257.861H187.391V427.001H188.641V257.861Z" fill="#D0E2DE"/>
<path d="M138.541 257.861H137.291V427.001H138.541V257.861Z" fill="#D0E2DE"/>
<path d="M88.4512 257.861H87.2012V427.001H88.4512V257.861Z" fill="#D0E2DE"/>
<path d="M38.3511 257.861H37.1011V427.001H38.3511V257.861Z" fill="#D0E2DE"/>
<path d="M822.101 257.861H-17.9087V266.001H822.101V257.861Z" fill="#D0E2DE"/>
<path d="M813.481 417.041H-26.5288V425.181H813.481V417.041Z" fill="#D0E2DE"/>
<g opacity="0.36">
<path d="M300.111 425.102C300.111 425.102 333.601 422.352 235.561 425.712H-18.9888L-12.1888 47.7422H117.241C117.241 47.7422 103.681 125.052 220.481 241.832C273.441 295.042 300.121 425.102 300.121 425.102H300.111Z" fill="#5C7A85"/>
</g>
<path d="M645.831 216.172H163.931C159.681 224.232 158.741 234.312 159.881 243.722H651.751C651.641 240.642 651.461 237.562 651.301 234.482C650.981 227.992 649.081 221.692 645.821 216.172H645.831Z" fill="#DCD6EB"/>
<path d="M163.931 216.172H-7.15869V243.722H159.881C158.741 234.312 159.681 224.232 163.931 216.172Z" fill="#DCD6EB"/>
<path d="M813.661 241.412H-10.5789V242.132H813.661V241.412Z" fill="#D6C8D3"/>
<path d="M100.531 225.151C100.961 225.691 101.211 226.361 101.211 227.101V233.921C101.211 235.651 99.8113 237.061 98.0713 237.061H90.9513C89.2913 237.061 87.9313 235.771 87.8213 234.131C93.3213 233.121 98.2913 230.371 100.531 225.141V225.151Z" fill="#F3F0F8"/>
<path d="M87.8213 227.101C87.8213 225.371 89.2213 223.961 90.9613 223.961H98.0813C99.0713 223.961 99.9613 224.421 100.531 225.151C98.2913 230.371 93.3313 233.131 87.8213 234.141C87.8213 234.071 87.8113 234.001 87.8113 233.931V227.111L87.8213 227.101Z" fill="white"/>
<path d="M94.5211 234.642C96.7965 234.642 98.6411 232.798 98.6411 230.522C98.6411 228.247 96.7965 226.402 94.5211 226.402C92.2457 226.402 90.4011 228.247 90.4011 230.522C90.4011 232.798 92.2457 234.642 94.5211 234.642Z" fill="#DCD6EB"/>
<path d="M97.9913 230.521C97.9913 232.441 96.4413 233.991 94.5213 233.991C92.6013 233.991 91.0513 232.441 91.0513 230.521C91.0513 228.601 92.6013 227.051 94.5213 227.051C96.4413 227.051 97.9913 228.601 97.9913 230.521Z" fill="#C1BDDA"/>
<path d="M93.0512 230.992C93.3495 230.992 93.5912 230.75 93.5912 230.452C93.5912 230.154 93.3495 229.912 93.0512 229.912C92.753 229.912 92.5112 230.154 92.5112 230.452C92.5112 230.75 92.753 230.992 93.0512 230.992Z" fill="#614E67"/>
<path d="M96.0212 231.062C96.3194 231.062 96.5612 230.821 96.5612 230.522C96.5612 230.224 96.3194 229.982 96.0212 229.982C95.723 229.982 95.4812 230.224 95.4812 230.522C95.4812 230.821 95.723 231.062 96.0212 231.062Z" fill="#614E67"/>
<path d="M135.071 225.151C135.501 225.691 135.751 226.361 135.751 227.101V233.921C135.751 235.651 134.351 237.061 132.611 237.061H125.491C123.831 237.061 122.471 235.771 122.361 234.131C127.861 233.121 132.831 230.371 135.071 225.141V225.151Z" fill="#F3F0F8"/>
<path d="M122.351 227.101C122.351 225.371 123.751 223.961 125.491 223.961H132.611C133.601 223.961 134.491 224.421 135.061 225.151C132.821 230.371 127.861 233.131 122.351 234.141C122.351 234.071 122.341 234.001 122.341 233.931V227.111L122.351 227.101Z" fill="white"/>
<path d="M129.051 234.642C131.327 234.642 133.171 232.798 133.171 230.522C133.171 228.247 131.327 226.402 129.051 226.402C126.776 226.402 124.931 228.247 124.931 230.522C124.931 232.798 126.776 234.642 129.051 234.642Z" fill="#DCD6EB"/>
<path d="M132.521 230.521C132.521 232.441 130.971 233.991 129.051 233.991C127.131 233.991 125.581 232.441 125.581 230.521C125.581 228.601 127.131 227.051 129.051 227.051C130.971 227.051 132.521 228.601 132.521 230.521Z" fill="#C1BDDA"/>
<path d="M127.581 230.992C127.879 230.992 128.121 230.75 128.121 230.452C128.121 230.154 127.879 229.912 127.581 229.912C127.283 229.912 127.041 230.154 127.041 230.452C127.041 230.75 127.283 230.992 127.581 230.992Z" fill="#614E67"/>
<path d="M130.551 231.062C130.849 231.062 131.091 230.821 131.091 230.522C131.091 230.224 130.849 229.982 130.551 229.982C130.253 229.982 130.011 230.224 130.011 230.522C130.011 230.821 130.253 231.062 130.551 231.062Z" fill="#614E67"/>
<path d="M169.611 225.151C170.041 225.691 170.291 226.361 170.291 227.101V233.921C170.291 235.651 168.891 237.061 167.151 237.061H160.031C158.371 237.061 157.011 235.771 156.901 234.131C162.401 233.121 167.371 230.371 169.611 225.141V225.151Z" fill="#F3F0F8"/>
<path d="M156.891 227.101C156.891 225.371 158.291 223.961 160.031 223.961H167.151C168.141 223.961 169.031 224.421 169.601 225.151C167.361 230.371 162.401 233.131 156.891 234.141C156.891 234.071 156.881 234.001 156.881 233.931V227.111L156.891 227.101Z" fill="white"/>
<path d="M163.591 234.642C165.867 234.642 167.711 232.798 167.711 230.522C167.711 228.247 165.867 226.402 163.591 226.402C161.316 226.402 159.471 228.247 159.471 230.522C159.471 232.798 161.316 234.642 163.591 234.642Z" fill="#DCD6EB"/>
<path d="M167.061 230.521C167.061 232.441 165.511 233.991 163.591 233.991C161.671 233.991 160.121 232.441 160.121 230.521C160.121 228.601 161.671 227.051 163.591 227.051C165.511 227.051 167.061 228.601 167.061 230.521Z" fill="#C1BDDA"/>
<path d="M162.121 230.992C162.42 230.992 162.661 230.75 162.661 230.452C162.661 230.154 162.42 229.912 162.121 229.912C161.823 229.912 161.581 230.154 161.581 230.452C161.581 230.75 161.823 230.992 162.121 230.992Z" fill="#614E67"/>
<path d="M165.091 231.062C165.389 231.062 165.631 230.821 165.631 230.522C165.631 230.224 165.389 229.982 165.091 229.982C164.793 229.982 164.551 230.224 164.551 230.522C164.551 230.821 164.793 231.062 165.091 231.062Z" fill="#614E67"/>
<path d="M812.571 219.441H-11.6687V220.161H812.571V219.441Z" fill="#D6C8D3"/>
<path d="M815.541 425.281H-23.2488V490.471H815.541V425.281Z" fill="#9493B2"/>
<g opacity="0.28">
<path d="M211.021 425.712C211.021 425.712 229.561 468.292 482.491 473.142C735.421 477.992 658.771 423.402 658.771 423.402L844.631 425.822L830.931 515.662L-16.7888 505.012L-8.70882 425.822L211.011 425.712H211.021Z" fill="#5B4861"/>
</g>
</g>
</svg>
