<svg viewBox="0 0 101 21" fill="none" xmlns="http://www.w3.org/2000/svg">
<path d="M91.8724 20.4355L87.4354 20.3234C61.4078 19.6567 35.3485 19.698 9.32083 20.4355C4.50354 20.4355 0.597412 17.5266 0.597412 13.9391V8.38095C0.597412 5.24193 2.13451 3.3715 7.02311 2.29762C8.26705 2.0262 9.54268 1.87279 10.8342 1.78429C12.8546 1.65448 16.7132 1.40076 21.269 1.10574C40.7917 -0.16285 60.4253 -0.16285 79.948 1.10574L90.4621 1.79019C91.7536 1.87279 93.0371 2.0203 94.2811 2.27992C99.3281 3.3243 100.604 5.24193 100.604 8.38685V13.945C100.604 17.5325 96.6976 20.4414 91.8803 20.4414L91.8724 20.4355Z" fill="#4D4669"/>
<path d="M12.1719 15.7969V9.52832C12.1719 8.99512 12.0511 8.60091 11.8096 8.3457C11.5726 8.09049 11.2148 7.92871 10.7363 7.86035C10.627 7.83757 10.4857 7.81934 10.3125 7.80566C10.1439 7.79199 9.9502 7.78516 9.73145 7.78516C9.44434 7.78516 9.06608 7.79883 8.59668 7.82617C8.13184 7.85352 7.55534 7.89681 6.86719 7.95605V6.99902C7.08138 6.97624 7.29102 6.95801 7.49609 6.94434C7.70117 6.93066 7.89941 6.91699 8.09082 6.90332C8.4554 6.88053 8.78125 6.86458 9.06836 6.85547C9.36003 6.8418 9.61523 6.83496 9.83398 6.83496C10.349 6.83496 10.766 6.85775 11.085 6.90332C11.4085 6.94889 11.7116 7.03092 11.9941 7.14941C12.2767 7.2679 12.5114 7.41829 12.6982 7.60059C12.8851 7.78288 13.0332 8.01758 13.1426 8.30469C13.2109 8.48698 13.2588 8.67611 13.2861 8.87207C13.318 9.06803 13.334 9.28678 13.334 9.52832V15.7969H12.1719ZM6.86719 15.7969V10.335H8.01562V15.7969H6.86719ZM15.5693 12.6045V6.97168H16.7246V11.5723L15.8975 12.6045H15.5693ZM19.0762 15.7969V10.8135C19.0762 10.4215 19.1149 10.0524 19.1924 9.70605C19.2699 9.35514 19.3747 9.05664 19.5068 8.81055C19.6162 8.61003 19.7256 8.43457 19.835 8.28418C19.9443 8.13379 20.056 8.00846 20.1699 7.9082H18.249V6.97168H21.3184V7.81934C21.2227 7.89225 21.1315 7.98112 21.0449 8.08594C20.9629 8.19076 20.8831 8.30469 20.8057 8.42773C20.7327 8.55078 20.6667 8.67839 20.6074 8.81055C20.5345 8.97917 20.4707 9.16602 20.416 9.37109C20.3659 9.57161 20.3249 9.76758 20.293 9.95898C20.2702 10.0866 20.252 10.2233 20.2383 10.3691C20.2292 10.5104 20.2246 10.6585 20.2246 10.8135V15.7969H19.0762ZM22.7402 15.7969V6.97168H23.8887V15.7969H22.7402ZM29.1865 15.9336C28.9085 15.9336 28.6374 15.929 28.373 15.9199C28.1133 15.9108 27.8717 15.8971 27.6484 15.8789C27.4251 15.8607 27.2292 15.8402 27.0605 15.8174L26.7803 15.7832V14.8467C27.1904 14.8923 27.596 14.9264 27.9971 14.9492C28.4027 14.972 28.806 14.9834 29.207 14.9834C29.5443 14.9834 29.8428 14.9264 30.1025 14.8125C30.3623 14.6986 30.5765 14.5459 30.7451 14.3545C30.9229 14.154 31.0641 13.8988 31.1689 13.5889C31.2783 13.279 31.3535 12.9554 31.3945 12.6182C31.4173 12.4131 31.4333 12.2148 31.4424 12.0234C31.4515 11.8275 31.4561 11.6133 31.4561 11.3809C31.4561 10.9753 31.4378 10.613 31.4014 10.2939C31.3649 9.97038 31.2988 9.65592 31.2031 9.35059C31.1074 9.04069 30.9775 8.77409 30.8135 8.55078C30.654 8.32292 30.4443 8.1429 30.1846 8.01074C30.0433 7.94238 29.8929 7.88997 29.7334 7.85352C29.5785 7.81706 29.4121 7.79883 29.2344 7.79883C28.8835 7.79883 28.5713 7.84668 28.2979 7.94238C28.029 8.03809 27.8125 8.16113 27.6484 8.31152C27.4297 8.50749 27.2565 8.7513 27.1289 9.04297C27.0013 9.33008 26.9375 9.6263 26.9375 9.93164C26.9375 10.2643 26.9899 10.5674 27.0947 10.8408C27.2041 11.1143 27.3499 11.3376 27.5322 11.5107C27.6826 11.6475 27.849 11.7546 28.0312 11.832C28.2135 11.9049 28.4118 11.9437 28.626 11.9482L28.8311 11.9756L28.6465 12.8369L28.4688 12.8232C28.2181 12.8187 27.9811 12.7891 27.7578 12.7344C27.5391 12.6751 27.3363 12.5908 27.1494 12.4814C26.9762 12.3812 26.8167 12.2627 26.6709 12.126C26.5251 11.9847 26.3997 11.8275 26.2949 11.6543C26.1491 11.4264 26.0374 11.1689 25.96 10.8818C25.887 10.5902 25.8506 10.278 25.8506 9.94531C25.8506 9.45312 25.9395 9.00879 26.1172 8.6123C26.2995 8.21582 26.5387 7.89681 26.835 7.65527C27.1631 7.37728 27.5299 7.1722 27.9355 7.04004C28.3411 6.90332 28.765 6.83496 29.207 6.83496C29.5853 6.83496 29.9339 6.87826 30.2529 6.96484C30.5719 7.05143 30.859 7.17904 31.1143 7.34766C31.3193 7.48438 31.5062 7.65299 31.6748 7.85352C31.848 8.05404 31.9961 8.2819 32.1191 8.53711C32.2923 8.89714 32.4245 9.31413 32.5156 9.78809C32.6068 10.2575 32.6523 10.7884 32.6523 11.3809C32.6523 12.0189 32.5999 12.5863 32.4951 13.083C32.3949 13.5752 32.2513 13.999 32.0645 14.3545C31.9141 14.6234 31.7363 14.8558 31.5312 15.0518C31.3262 15.2477 31.1051 15.4049 30.8682 15.5234C30.6357 15.6602 30.3783 15.7627 30.0957 15.8311C29.8177 15.8994 29.5146 15.9336 29.1865 15.9336ZM34.2109 15.7969V14.8604H37.082C37.1367 14.6097 37.1755 14.3636 37.1982 14.1221C37.2256 13.8805 37.2393 13.6413 37.2393 13.4043V9.07031C37.2393 8.85156 37.2119 8.6556 37.1572 8.48242C37.1025 8.30469 37.0205 8.15885 36.9111 8.04492C36.8245 7.96745 36.7243 7.90592 36.6104 7.86035C36.501 7.81478 36.3734 7.79199 36.2275 7.79199C36.0452 7.79199 35.8584 7.80339 35.667 7.82617C35.4756 7.8444 35.2773 7.87174 35.0723 7.9082V6.9375C35.2454 6.90104 35.4323 6.87598 35.6328 6.8623C35.8379 6.84408 36.0589 6.83496 36.2959 6.83496C36.5602 6.83496 36.7904 6.86003 36.9863 6.91016C37.1823 6.96029 37.3532 7.03092 37.499 7.12207C37.6357 7.20866 37.7542 7.31576 37.8545 7.44336C37.9593 7.57096 38.0459 7.70768 38.1143 7.85352C38.2054 8.01302 38.2738 8.19531 38.3193 8.40039C38.3695 8.60547 38.3945 8.82878 38.3945 9.07031V13.4043C38.3945 13.6322 38.3831 13.876 38.3604 14.1357C38.3376 14.391 38.3102 14.637 38.2783 14.874C38.2464 15.1064 38.2145 15.2979 38.1826 15.4482L38.1211 15.7969H34.2109ZM40.5479 12.6045V6.97168H41.7031V11.5723L40.876 12.6045H40.5479ZM43.5762 15.7969V12.6934C43.5762 12.4108 43.5898 12.151 43.6172 11.9141C43.6491 11.6725 43.7015 11.4447 43.7744 11.2305C43.8519 11.0163 43.9658 10.8066 44.1162 10.6016C44.2438 10.4102 44.4102 10.2484 44.6152 10.1162C44.8249 9.98405 45.0755 9.88379 45.3672 9.81543L43.624 6.97168H44.8818L47.958 12.0576C48.0218 12.0348 48.0811 12.0098 48.1357 11.9824C48.1904 11.9551 48.2406 11.9232 48.2861 11.8867C48.5413 11.7318 48.7214 11.5267 48.8262 11.2715C48.9355 11.0163 48.9902 10.6585 48.9902 10.1982V6.97168H50.1182V10.1982C50.1182 10.5856 50.0885 10.9274 50.0293 11.2236C49.9701 11.5153 49.8743 11.7751 49.7422 12.0029C49.6328 12.1943 49.471 12.3743 49.2568 12.543C49.0426 12.707 48.7874 12.8301 48.4912 12.9121L50.2549 15.7969H48.9902L45.9004 10.6768C45.7363 10.6859 45.5518 10.752 45.3467 10.875C45.1462 10.998 44.9912 11.2008 44.8818 11.4834C44.7679 11.7842 44.7109 12.1875 44.7109 12.6934V15.7969H43.5762ZM58.8955 15.7969V9.67871C58.8955 9.43262 58.9251 9.20703 58.9844 9.00195C59.0436 8.79232 59.1165 8.6237 59.2031 8.49609C59.2988 8.35026 59.39 8.23405 59.4766 8.14746C59.5632 8.05632 59.6657 7.97656 59.7842 7.9082H54.9717V6.97168H61.4385V7.8125C61.2106 7.89453 61.001 7.99251 60.8096 8.10645C60.6182 8.22038 60.4655 8.36393 60.3516 8.53711C60.151 8.81966 60.0508 9.20475 60.0508 9.69238V15.7969H58.8955ZM62.9355 15.7969V6.97168H64.084V15.7969H62.9355ZM65.9707 15.7969L66.5859 9.22754C66.5951 9.14095 66.5996 9.06576 66.5996 9.00195C66.6042 8.93359 66.6064 8.86751 66.6064 8.80371C66.6064 8.66699 66.5973 8.53939 66.5791 8.4209C66.5654 8.29785 66.5404 8.15885 66.5039 8.00391C66.4948 7.95833 66.472 7.88314 66.4355 7.77832C66.3991 7.66895 66.3626 7.56413 66.3262 7.46387C66.2943 7.35905 66.2738 7.29069 66.2646 7.25879C66.2464 7.2041 66.2259 7.15169 66.2031 7.10156C66.1849 7.04688 66.1667 6.99219 66.1484 6.9375H67.2627C67.3447 7.11979 67.4131 7.29069 67.4678 7.4502C67.5225 7.60514 67.5635 7.75098 67.5908 7.8877H67.6797C67.7389 7.79655 67.8551 7.68262 68.0283 7.5459C68.2061 7.40918 68.3838 7.29525 68.5615 7.2041C68.7393 7.1084 68.974 7.02409 69.2656 6.95117C69.5573 6.8737 69.8695 6.83496 70.2021 6.83496C70.5075 6.83496 70.7855 6.8737 71.0361 6.95117C71.2868 7.02865 71.5101 7.13574 71.7061 7.27246C71.8428 7.37272 71.9658 7.48665 72.0752 7.61426C72.1891 7.7373 72.2871 7.87174 72.3691 8.01758C72.5059 8.27279 72.6084 8.56673 72.6768 8.89941C72.7497 9.22754 72.7861 9.59212 72.7861 9.99316V15.7969H69.7715V14.8604H71.6309V9.99316C71.6309 9.64225 71.5921 9.33236 71.5146 9.06348C71.4372 8.79004 71.321 8.56445 71.166 8.38672C71.0749 8.26823 70.9678 8.16569 70.8447 8.0791C70.7262 7.98796 70.5872 7.9196 70.4277 7.87402C70.2728 7.82389 70.0951 7.79883 69.8945 7.79883C69.6029 7.79883 69.3271 7.84212 69.0674 7.92871C68.8076 8.0153 68.598 8.11556 68.4385 8.22949C68.2881 8.33887 68.1514 8.46191 68.0283 8.59863C67.9098 8.73079 67.8141 8.87207 67.7412 9.02246L67.1123 15.7969H65.9707ZM74.3994 16.166V15.2158L76.2314 14.9424C76.359 14.9196 76.4889 14.8945 76.6211 14.8672C76.7578 14.8398 76.8923 14.8057 77.0244 14.7646L74.96 6.97168H76.0947L77.1406 10.9297L77.9609 14.4092C78.3893 14.1995 78.7699 13.9215 79.1025 13.5752C79.4352 13.2243 79.7064 12.8164 79.916 12.3516C80.1257 11.8867 80.2601 11.3763 80.3193 10.8203L80.6885 6.97168H81.7822L81.4131 10.7861C81.3766 11.1689 81.3083 11.5335 81.208 11.8799C81.1123 12.2262 80.9824 12.5566 80.8184 12.8711C80.6589 13.181 80.4697 13.4749 80.251 13.7529C79.8727 14.2998 79.376 14.7533 78.7607 15.1133C78.1455 15.4733 77.4209 15.7148 76.5869 15.8379C76.1768 15.9017 75.7894 15.9587 75.4248 16.0088C75.0602 16.0635 74.7184 16.1159 74.3994 16.166Z" fill="white"/>
<circle cx="90.2334" cy="11.2969" r="5.29688" fill="#EB3B3B"/>
</svg>
