<svg width="63" height="120" viewBox="0 0 63 120" fill="none" xmlns="http://www.w3.org/2000/svg">
<path d="M3.17026 100.816V100.21C2.64841 99.9465 2.28828 99.4074 2.28828 98.782C2.28828 97.8979 3.00422 97.182 3.88836 97.182C4.7725 97.182 5.48844 97.8979 5.48844 98.782C5.48844 99.4074 5.12831 99.9465 4.60646 100.21V100.816C4.60646 101.115 4.39081 101.365 4.10616 101.419C4.1191 101.547 4.13419 101.674 4.14929 101.801H5.53157C6.33161 101.801 6.97854 101.154 6.97854 100.354V97.2078C6.97854 96.8671 6.85994 96.5544 6.6637 96.3086C6.39199 96.9404 6.03402 97.4946 5.60705 97.9755C5.30299 97.3307 4.64958 96.8822 3.88836 96.8822C2.83817 96.8822 1.98853 97.7318 1.98853 98.782C1.98853 99.2543 2.16321 99.6856 2.44786 100.02C1.91953 100.207 1.36748 100.35 0.80249 100.453C0.852088 101.206 1.47746 101.803 2.24515 101.803H3.76329C3.74819 101.678 3.73525 101.555 3.72231 101.43C3.41179 101.398 3.17026 101.137 3.17026 100.818V100.816Z" fill="#D6C8D3"/>
<path d="M16.0098 53.9395C15.9387 55.6129 16.2578 57.3359 16.5683 59.0007C16.715 59.7878 16.8659 60.6008 16.9694 61.3857C17.9075 68.4459 18.2612 75.4436 18.0196 82.1824C17.873 86.2818 17.6142 91.136 16.7926 96.0527L16.7581 96.2597C16.2751 99.158 15.7748 102.153 14.4464 104.788C13.4286 106.809 11.7077 108.342 10.0645 108.692C8.90003 108.94 7.78515 108.636 6.7479 107.79C5.83573 107.046 5.12194 105.916 4.68634 104.525C4.41032 103.648 4.25721 102.733 4.14723 101.797C4.13214 101.67 4.11704 101.543 4.1041 101.416C4.06744 101.422 4.02863 101.427 3.98981 101.427H3.78495C3.76338 101.427 3.74398 101.427 3.72241 101.424C3.73535 101.549 3.75045 101.675 3.76338 101.797C3.87768 102.77 4.0351 103.721 4.32406 104.64C4.78338 106.102 5.53814 107.294 6.50854 108.086C7.3819 108.799 8.31132 109.157 9.28172 109.157C9.56637 109.157 9.85534 109.127 10.1465 109.065C11.5395 108.767 13.4933 107.534 14.7893 104.959C16.1435 102.272 16.6481 99.2464 17.1355 96.3201L17.17 96.1131C17.9959 91.1748 18.2568 86.3056 18.4013 82.1932C18.6428 75.4328 18.287 68.4136 17.3468 61.3318C17.2412 60.5382 17.088 59.7188 16.9414 58.9274C16.6352 57.282 16.3182 55.5827 16.3894 53.9524C16.5101 51.1426 17.8428 49.2191 20.0381 48.557C20.0575 48.4233 20.079 48.2853 20.1028 48.1387C17.6401 48.7899 16.1392 50.8666 16.0077 53.9373L16.0098 53.9395Z" fill="#684B5C"/>
<path d="M1.98845 98.7809C1.98845 97.7308 2.83809 96.8811 3.88828 96.8811C4.6495 96.8811 5.3029 97.3297 5.60696 97.9744C6.03394 97.4935 6.39191 96.9393 6.66362 96.3075C6.39838 95.9754 5.99081 95.7598 5.53149 95.7598H2.24507C1.44503 95.7598 0.798096 96.4067 0.798096 97.2067V100.353C0.798096 100.385 0.800252 100.418 0.802409 100.45C1.3674 100.347 1.91729 100.204 2.44777 100.017C2.16097 99.6845 1.98845 99.2532 1.98845 98.7788V98.7809Z" fill="#F3E8F1"/>
<path d="M3.17003 99.0342C3.17003 98.6957 3.44605 98.4196 3.78462 98.4196H3.98948C4.32804 98.4196 4.60406 98.6957 4.60406 99.0342V100.207C5.12592 99.9442 5.48605 99.4051 5.48605 98.7798C5.48605 97.8956 4.77011 97.1797 3.88597 97.1797C3.00183 97.1797 2.28589 97.8956 2.28589 98.7798C2.28589 99.4051 2.64601 99.9442 3.16787 100.207V99.0342H3.17003Z" fill="#4C3D50"/>
<path d="M4.6042 100.816V99.0365C4.6042 98.6979 4.32818 98.4219 3.98961 98.4219H3.78475C3.44619 98.4219 3.17017 98.6979 3.17017 99.0365V100.816C3.17017 101.135 3.41169 101.396 3.72222 101.428C3.74378 101.428 3.76319 101.43 3.78475 101.43H3.98961C4.02843 101.43 4.06725 101.426 4.10391 101.419C4.38856 101.365 4.6042 101.115 4.6042 100.816Z" fill="#614E67"/>
<path d="M21.5455 33.5815C21.0861 32.7599 20.6117 31.9081 20.2344 30.998C19.5723 29.4066 19.7556 27.4658 19.9346 25.5875C19.9971 24.9233 20.0618 24.2419 20.0877 23.582C20.0446 23.6079 19.995 23.623 19.9411 23.623C19.8872 23.623 19.8419 23.6101 19.8009 23.5842C19.775 24.2311 19.7125 24.9039 19.65 25.5573C19.4688 27.4701 19.2812 29.4476 19.9713 31.1037C20.3573 32.0288 20.8338 32.8871 21.2975 33.7173C22.1967 35.3282 23.0485 36.8593 23.2081 38.7763H23.4949C23.3375 36.7859 22.4663 35.2247 21.5476 33.5771L21.5455 33.5815Z" fill="#FFCE6E"/>
<path d="M28.0554 54.8027C28.0252 54.8114 27.9929 54.8178 27.9605 54.8178H27.2467C27.2144 54.8178 27.182 54.8114 27.1519 54.8027V110.538C27.4236 110.407 27.7276 110.303 28.0554 110.232V54.8027Z" fill="#EAE9F3"/>
<path d="M27.2467 37.8306H27.9605C27.9929 37.8306 28.0252 37.8371 28.0554 37.8457V7.91211H27.1519V37.8457C27.182 37.8371 27.2144 37.8306 27.2467 37.8306Z" fill="#EAE9F3"/>
<path d="M27.1519 114.387L28.0554 114.397V113.496H27.1519V114.387Z" fill="#EAE9F3"/>
<path d="M28.0554 3.01867C28.0101 3.07043 27.9454 3.10278 27.8721 3.10278H27.3589C27.2705 3.10278 27.1928 3.05533 27.1519 2.98633V7.14826H28.0554V3.01867Z" fill="#EAE9F3"/>
<path d="M37.9405 117.27C37.9405 117.983 37.3604 118.563 36.6466 118.563C35.9328 118.563 35.3527 117.983 35.3527 117.27C35.3527 116.981 35.4498 116.713 35.6094 116.498L35.439 116.148L35.3096 115.881C34.9452 116.232 34.7188 116.724 34.7188 117.27C34.7188 118.335 35.5813 119.197 36.6466 119.197C37.7119 119.197 38.5745 118.335 38.5745 117.27C38.5745 116.702 38.3265 116.191 37.9362 115.84L37.6601 116.47C37.8348 116.689 37.9405 116.968 37.9405 117.272V117.27Z" fill="#4C3D50"/>
<path d="M36.6466 118.563C37.3604 118.563 37.9405 117.983 37.9405 117.269C37.9405 116.965 37.8348 116.689 37.6601 116.467L37.3216 117.234C37.0693 117.81 36.2585 117.825 35.9824 117.263L35.6072 116.497C35.4455 116.713 35.3506 116.98 35.3506 117.269C35.3506 117.983 35.9307 118.563 36.6445 118.563H36.6466Z" fill="#B99DB6"/>
<path d="M35.439 116.147L35.6093 116.496L35.9845 117.262C36.2606 117.827 37.0692 117.809 37.3237 117.234L37.6623 116.466L37.9383 115.836L38.1173 115.431C38.2574 115.112 38.1518 114.769 37.9146 114.568C37.4919 115.573 36.487 116.151 35.4411 116.145L35.439 116.147Z" fill="#EDE2EC"/>
<path d="M28.8987 117.27C28.8987 117.983 28.3186 118.563 27.6049 118.563C26.8911 118.563 26.311 117.983 26.311 117.27C26.311 116.981 26.408 116.713 26.5676 116.498L26.3973 116.148L26.2679 115.881C25.9034 116.232 25.677 116.724 25.677 117.27C25.677 118.335 26.5396 119.197 27.6049 119.197C28.6701 119.197 29.5327 118.335 29.5327 117.27C29.5327 116.702 29.2847 116.191 28.8944 115.84L28.6184 116.47C28.7931 116.689 28.8987 116.968 28.8987 117.272V117.27Z" fill="#4C3D50"/>
<path d="M27.6046 118.563C28.3184 118.563 28.8985 117.983 28.8985 117.269C28.8985 116.965 28.7928 116.689 28.6181 116.467L28.2796 117.234C28.0273 117.81 27.2165 117.825 26.9404 117.263L26.5652 116.497C26.4035 116.713 26.3086 116.98 26.3086 117.269C26.3086 117.983 26.8887 118.563 27.6025 118.563H27.6046Z" fill="#B99DB6"/>
<path d="M26.7227 114.379C26.1728 114.372 25.8105 114.948 26.052 115.442L26.2677 115.882L26.397 116.149C27.4408 116.154 28.4478 115.578 28.8705 114.573C28.7476 114.47 28.588 114.403 28.4069 114.401L28.0575 114.396L27.154 114.385L26.7248 114.381L26.7227 114.379Z" fill="white"/>
<path d="M26.3972 116.147L26.5676 116.496L26.9428 117.262C27.2188 117.827 28.0275 117.809 28.2819 117.234L28.6205 116.466L28.8965 115.836L29.0755 115.431C29.2157 115.112 29.11 114.769 28.8728 114.568C28.4502 115.573 27.4452 116.151 26.3994 116.145L26.3972 116.147Z" fill="#EDE2EC"/>
<path d="M19.8545 117.27C19.8545 117.983 19.2745 118.563 18.5607 118.563C17.8469 118.563 17.2668 117.983 17.2668 117.27C17.2668 116.981 17.3638 116.713 17.5234 116.498L17.3531 116.148L17.2237 115.881C16.8592 116.232 16.6328 116.724 16.6328 117.27C16.6328 118.335 17.4954 119.197 18.5607 119.197C19.626 119.197 20.4885 118.335 20.4885 117.27C20.4885 116.702 20.2405 116.191 19.8502 115.84L19.5742 116.47C19.7489 116.689 19.8545 116.968 19.8545 117.272V117.27Z" fill="#4C3D50"/>
<path d="M18.5602 118.563C19.274 118.563 19.854 117.983 19.854 117.269C19.854 116.965 19.7484 116.689 19.5737 116.467L19.2351 117.234C18.9828 117.81 18.172 117.825 17.896 117.263L17.5208 116.497C17.359 116.713 17.2642 116.98 17.2642 117.269C17.2642 117.983 17.8442 118.563 18.558 118.563H18.5602Z" fill="#B99DB6"/>
<path d="M17.355 116.147L17.5253 116.496L17.9006 117.262C18.1766 117.827 18.9853 117.809 19.2397 117.234L19.5783 116.466L19.8543 115.836L20.0333 115.431C20.1735 115.112 20.0678 114.769 19.8306 114.568C19.4079 115.573 18.403 116.151 17.3571 116.145L17.355 116.147Z" fill="#EDE2EC"/>
<path d="M21.612 4.09369V3.05859C21.5732 3.08663 21.5257 3.10172 21.474 3.10172H20.9607C20.9198 3.10172 20.881 3.09094 20.8486 3.07369V4.09369C20.8486 4.3999 20.702 4.67377 20.4734 4.84844H21.4352C21.5473 4.61986 21.612 4.3654 21.612 4.09369Z" fill="#EFE3EF"/>
<path d="M18.9509 4.09409V3.07625C18.9185 3.0935 18.8819 3.10213 18.8431 3.10213H18.3298C18.2759 3.10213 18.2285 3.08488 18.1875 3.05469V4.09194C18.1875 4.36365 18.2522 4.61811 18.3643 4.84669H19.3261C19.0997 4.67418 18.9509 4.40031 18.9509 4.09194V4.09409Z" fill="#EFE3EF"/>
<path d="M16.0613 10.0016V8.86295C16.0613 8.39285 16.4473 8.00684 16.9174 8.00684H22.8929C23.363 8.00684 23.749 8.39285 23.749 8.86295V13.2556C23.8007 13.2082 23.8547 13.1586 23.9043 13.109C23.9948 13.0227 24.0854 12.9343 24.1738 12.8437C24.1824 12.8351 24.1889 12.8287 24.1975 12.82C24.3291 12.6863 24.4563 12.5483 24.5792 12.4081C24.5965 12.3887 24.6116 12.3715 24.6288 12.3521V7.90981H21.5494C20.6027 7.90981 19.8027 7.27365 19.5525 6.40676C19.3973 6.29679 19.2959 6.11349 19.2959 5.90863C19.2959 5.83746 19.3089 5.76846 19.3304 5.70592C19.4145 5.46871 19.641 5.29835 19.9062 5.29835C20.1714 5.29835 20.3957 5.46871 20.482 5.70376C20.5057 5.76846 20.5186 5.83746 20.5186 5.90863C20.5186 6.07899 20.4496 6.23209 20.3375 6.34207C20.538 6.81433 21.006 7.14642 21.5516 7.14642H24.631V5.99273C24.631 5.36305 24.1156 4.84766 23.4859 4.84766H16.3287C15.699 4.84766 15.1836 5.36305 15.1836 5.99273V16.5787C15.4769 16.5809 15.7701 16.5722 16.0634 16.555V10.0016H16.0613Z" fill="white"/>
<path d="M22.8931 8.00781H16.9176C16.4475 8.00781 16.0615 8.39382 16.0615 8.86392V10.0025H23.7471V8.86392C23.7471 8.39382 23.3611 8.00781 22.891 8.00781H22.8931Z" fill="#EFE3EF"/>
<path d="M23.7471 13.2562V10H16.0615V16.5534C18.88 16.3723 21.6553 15.1884 23.7471 13.2541V13.2562Z" fill="#FFD99C"/>
<path d="M16.0615 16.5554V18.9103C16.0615 19.3804 16.4475 19.7664 16.9176 19.7664H22.8931C23.3632 19.7664 23.7492 19.3804 23.7492 18.9103V13.2539C21.6553 15.1861 18.88 16.3721 16.0637 16.5533L16.0615 16.5554Z" fill="#FFCE6E"/>
<path d="M21.5278 21.1822C21.7909 21.1822 22.0065 20.9687 22.0065 20.7035V20.5935H23.4837C24.1134 20.5935 24.6288 20.0781 24.6288 19.4484V12.3516C24.6115 12.371 24.5964 12.3882 24.5792 12.4076C24.4541 12.5478 24.3269 12.6858 24.1975 12.8195C24.1889 12.8281 24.1824 12.8346 24.1738 12.8432C24.0854 12.9338 23.9948 13.0222 23.9042 13.1085C23.8525 13.1581 23.8007 13.2055 23.7489 13.2551V18.9115C23.7489 19.3816 23.3629 19.7676 22.8928 19.7676H16.9173C16.4472 19.7676 16.0612 19.3816 16.0612 18.9115V16.5566C15.7679 16.5739 15.4747 16.5825 15.1814 16.5803V19.4506C15.1814 20.0803 15.6968 20.5956 16.3265 20.5956H17.8791V20.7056C17.8791 20.9687 18.0926 21.1844 18.3578 21.1844H21.53L21.5278 21.1822Z" fill="#EFE3EF"/>
<path d="M20.0856 23.5818C20.1416 23.5473 20.1848 23.4955 20.2085 23.433L20.5061 22.5725C20.5902 22.3332 20.6311 22.0809 20.6311 21.8264C20.6311 21.7035 20.5514 21.6 20.4435 21.559V21.1816H19.4408V21.559C19.3308 21.5978 19.2532 21.7013 19.2532 21.8264V21.8307C19.2532 22.0809 19.2941 22.331 19.3761 22.5682L19.6715 23.4308C19.6952 23.4977 19.7405 23.5516 19.8009 23.5861C19.8419 23.6098 19.8915 23.6249 19.9411 23.6249C19.995 23.6249 20.0446 23.6098 20.0877 23.5839L20.0856 23.5818Z" fill="#513647"/>
<path d="M20.3354 6.3408C20.2686 6.18338 20.2319 6.01086 20.2319 5.82756C20.2319 5.80816 20.2298 5.7909 20.2254 5.7715C20.3117 5.75424 20.398 5.73052 20.4799 5.70033C20.3958 5.46312 20.1694 5.29492 19.9041 5.29492C19.6389 5.29492 19.4125 5.46528 19.3284 5.70249C19.3758 5.71974 19.4254 5.73484 19.4772 5.74777C19.4707 5.77365 19.4685 5.79953 19.4685 5.82756C19.4685 6.02811 19.4987 6.22004 19.5526 6.40333C19.8028 7.27022 20.6028 7.90637 21.5495 7.90637H30.6432V7.14299H21.5495C21.0061 7.14299 20.536 6.8109 20.3354 6.33864V6.3408Z" fill="#EFE3EF"/>
<path d="M34.9 21.6725C34.79 21.7113 34.7124 21.8148 34.7124 21.9399V21.9442C34.7124 22.1965 34.7534 22.4445 34.8353 22.6817L35.1308 23.5443C35.1545 23.6111 35.2019 23.6651 35.2601 23.6996C35.2601 23.6478 35.2623 23.5982 35.2645 23.5508L35.5426 23.5615C35.5426 23.6047 35.5383 23.6521 35.5383 23.6996C35.5987 23.6672 35.6461 23.6133 35.6699 23.5443L35.9675 22.6839C36.0516 22.4445 36.0925 22.1922 36.0925 21.9377C36.0925 21.8148 36.0127 21.7113 35.9049 21.6703V21.293H34.9022V21.6703L34.9 21.6725Z" fill="#513647"/>
<path d="M35.7282 4.95898H34.9519C35.0705 5.0129 35.202 5.04309 35.3401 5.04309C35.4781 5.04309 35.6096 5.0129 35.7282 4.95898Z" fill="white"/>
<path d="M30.6409 16.69C30.9341 16.6922 31.2274 16.6836 31.5207 16.6663V8.97428C31.5207 8.50418 31.9067 8.11817 32.3768 8.11817H38.3523C38.8224 8.11817 39.2084 8.50418 39.2084 8.97428V13.367C39.3529 13.2333 39.4952 13.0952 39.6354 12.9551C39.7907 12.7955 39.9438 12.6316 40.0904 12.4634V6.10406C40.0904 5.47437 39.575 4.95898 38.9453 4.95898H36.8169C36.6099 5.30833 36.2843 5.58004 35.894 5.71374C35.9479 5.80431 35.9781 5.90998 35.9781 6.02211C35.9781 6.27441 35.825 6.49222 35.605 6.58494C35.5317 6.61513 35.4519 6.63238 35.3678 6.63238C35.1608 6.63238 34.9796 6.52887 34.8675 6.37145C34.7985 6.27226 34.7554 6.1515 34.7554 6.01995C34.7554 5.91429 34.7812 5.81509 34.8287 5.72883C34.419 5.6016 34.0782 5.32127 33.8648 4.95898H31.7881C31.1584 4.95898 30.643 5.47437 30.643 6.10406V16.69H30.6409Z" fill="white"/>
<path d="M39.2087 8.9733C39.2087 8.50319 38.8227 8.11719 38.3526 8.11719H32.3771C31.907 8.11719 31.521 8.50319 31.521 8.9733V10.1119H39.2066V8.9733H39.2087Z" fill="#EFE3EF"/>
<path d="M39.6329 12.9563C39.4949 13.0965 39.3526 13.2345 39.206 13.3682V19.0245C39.206 19.4946 38.82 19.8806 38.3499 19.8806H32.3744C31.9043 19.8806 31.5183 19.4946 31.5183 19.0245V16.6697C31.225 16.687 30.9317 16.6956 30.6384 16.6934V19.5636C30.6384 20.1933 31.1538 20.7087 31.7835 20.7087H33.3361V20.8187C33.3361 21.0818 33.5496 21.2974 33.8149 21.2974H36.987C37.2501 21.2974 37.4657 21.0839 37.4657 20.8187V20.7087H38.945C39.5747 20.7087 40.0901 20.1933 40.0901 19.5636V12.4668C39.9435 12.635 39.7925 12.7989 39.6351 12.9585L39.6329 12.9563Z" fill="#EFE3EF"/>
<path d="M31.521 16.6669C34.3395 16.4858 37.1148 15.2997 39.2066 13.3676V10.1113H31.521V16.6648V16.6669Z" fill="#F6937C"/>
<path d="M31.521 16.6687V19.0235C31.521 19.4936 31.907 19.8796 32.3771 19.8796H38.3526C38.8227 19.8796 39.2087 19.4936 39.2087 19.0235V13.3672C37.1148 15.2994 34.3395 16.4854 31.5232 16.6665L31.521 16.6687Z" fill="#E6725B"/>
<path d="M34.8288 5.72835C34.8784 5.74345 34.9302 5.75638 34.9841 5.76932V5.83186C34.9841 6.02594 34.941 6.20708 34.8655 6.37313C34.9755 6.53055 35.1588 6.63406 35.3658 6.63406C35.4499 6.63406 35.5318 6.6168 35.603 6.58661C35.6936 6.35372 35.7453 6.09926 35.7453 5.83402V5.75854C35.7949 5.7456 35.8445 5.73266 35.892 5.71541C36.2823 5.58171 36.6079 5.31216 36.8149 4.96066C36.9637 4.7062 37.0521 4.41076 37.0521 4.09592V3.03711C37.009 3.07808 36.9486 3.10396 36.8839 3.10396H36.3707C36.3405 3.10396 36.3146 3.09749 36.2887 3.08886V4.09592C36.2887 4.47977 36.058 4.81186 35.7281 4.96066C35.6095 5.01457 35.4779 5.04476 35.3399 5.04476C35.2019 5.04476 35.0703 5.01457 34.9517 4.96066C34.6218 4.81186 34.3911 4.47977 34.3911 4.09592V3.06083C34.3522 3.08886 34.3048 3.10396 34.2531 3.10396H33.7398C33.6988 3.10396 33.66 3.09318 33.6277 3.07593V4.09592C33.6277 4.41076 33.7161 4.7062 33.8649 4.96066C34.0784 5.32294 34.4213 5.60112 34.8288 5.73051V5.72835Z" fill="#EFE3EF"/>
<path d="M28.1246 52.8475C28.185 52.8605 28.2432 52.8777 28.3015 52.8971V52.2825C27.8378 52.2782 27.3699 52.2653 26.9062 52.248V53.3478C27.1952 52.9985 27.6588 52.7893 28.1225 52.8475H28.1246Z" fill="#56414F"/>
<path d="M27.9605 54.8164C27.9929 54.8164 28.0252 54.8099 28.0554 54.8013C28.1956 54.7603 28.3013 54.6309 28.3013 54.4757V52.8972C28.243 52.8778 28.1848 52.8605 28.1244 52.8476C27.6608 52.7893 27.1972 52.9985 26.9082 53.3479V54.4757C26.9082 54.6309 27.0117 54.7603 27.154 54.8013C27.1842 54.8099 27.2166 54.8164 27.2489 54.8164H27.9627H27.9605Z" fill="#684B5C"/>
<path d="M27.0831 39.7991C27.0227 39.7862 26.9645 39.7689 26.9062 39.7495V40.4396H28.3015V39.2988C28.0125 39.6482 27.5489 39.8573 27.0852 39.7991H27.0831Z" fill="#56414F"/>
<path d="M27.247 37.8301C27.2146 37.8301 27.1823 37.8365 27.1521 37.8452C27.0119 37.8861 26.9062 38.0155 26.9062 38.1708V39.7493C26.9645 39.7687 27.0227 39.786 27.0831 39.7989C27.5467 39.8571 28.0103 39.648 28.2993 39.2986V38.1708C28.2993 38.0155 28.1958 37.8861 28.0535 37.8452C28.0233 37.8365 27.9909 37.8301 27.9586 37.8301H27.2448H27.247Z" fill="#684B5C"/>
<path d="M23.8502 39.6855C23.6712 39.9012 23.3865 40.0306 23.0997 39.9939C23.0631 39.9853 23.0264 39.9745 22.9897 39.9637V40.4381H23.848V39.6855H23.8502Z" fill="#56414F"/>
<path d="M23.8505 39.6848V38.9904C23.8505 38.874 23.7556 38.7812 23.6413 38.7812H23.2014C23.0849 38.7812 22.9922 38.8761 22.9922 38.9904V39.963C23.0267 39.9759 23.0634 39.9867 23.1022 39.9932C23.389 40.0298 23.6736 39.9004 23.8526 39.6848H23.8505Z" fill="#684B5C"/>
<path d="M34.7165 45.4424L34.3908 41.6622C34.3305 40.9699 33.7525 40.4395 33.0582 40.4395H22.2932C21.5988 40.4395 21.0209 40.9699 20.9605 41.6622L20.6414 45.3734C28.4649 48.0258 34.6388 45.4747 34.7121 45.4446L34.7165 45.4424ZM23.6625 44.3922V42.1797C23.6625 41.8843 23.8803 41.6427 24.1456 41.6427H31.0591C31.3244 41.6427 31.5422 41.8843 31.5422 42.1797V44.3922C31.5422 44.6876 31.3244 44.9292 31.0591 44.9292H24.1456C23.8803 44.9292 23.6625 44.6876 23.6625 44.3922Z" fill="#EFE3EF"/>
<path d="M28.3012 52.2827C30.5526 52.3064 32.737 52.1619 34.087 51.7242C34.7964 51.4934 35.2838 50.8336 35.301 50.0874C35.3463 48.1639 34.7166 45.4403 34.7166 45.4403C34.6433 45.4705 28.4694 48.0237 20.6459 45.3691C20.6459 45.3691 20.6415 45.3691 20.6394 45.3691C20.3979 46.5207 20.2232 47.4178 20.1046 48.1423C20.0809 48.289 20.0593 48.427 20.0399 48.5607C19.9601 49.1063 19.917 49.5483 19.9062 49.9322C19.8782 50.7969 20.4906 51.5495 21.3402 51.7048C22.6427 51.9441 24.7302 52.1641 26.9082 52.2482C27.3718 52.2654 27.8376 52.2784 28.3034 52.2827H28.3012ZM29.1487 50.2578C28.9525 50.2578 28.7843 50.1457 28.6959 49.9839C28.657 49.9106 28.6333 49.8287 28.6333 49.7403C28.6333 49.4556 28.8641 49.2249 29.1487 49.2249C29.2458 49.2249 29.3342 49.2529 29.4118 49.2982C29.5627 49.3888 29.6641 49.5505 29.6641 49.7403C29.6641 50.0249 29.4334 50.2556 29.1487 50.2556V50.2578ZM30.9623 50.0939C30.766 50.0939 30.5978 49.9818 30.5094 49.82C30.4706 49.7467 30.4469 49.6648 30.4469 49.5764C30.4469 49.2917 30.6776 49.061 30.9623 49.061C31.0593 49.061 31.1477 49.089 31.2254 49.1343C31.3763 49.2249 31.4777 49.3866 31.4777 49.5764C31.4777 49.861 31.2469 50.0918 30.9623 50.0918V50.0939ZM32.7758 49.7553C32.5796 49.7553 32.4114 49.6432 32.323 49.4836C32.2842 49.4103 32.2605 49.3284 32.2605 49.24C32.2605 48.9553 32.4912 48.7246 32.7758 48.7246C32.8729 48.7246 32.9613 48.7526 33.0389 48.7979C33.1899 48.8885 33.2912 49.0502 33.2912 49.24C33.2912 49.5246 33.0605 49.7553 32.7758 49.7553ZM32.7608 46.911C32.8578 46.911 32.9462 46.939 33.0238 46.9843C33.1748 47.0749 33.2761 47.2366 33.2761 47.4264C33.2761 47.711 33.0454 47.9418 32.7608 47.9418C32.5645 47.9418 32.3963 47.8296 32.3079 47.6701C32.2691 47.5967 32.2454 47.5148 32.2454 47.4264C32.2454 47.1417 32.4761 46.911 32.7608 46.911ZM30.9472 47.2496C31.0442 47.2496 31.1326 47.2776 31.2103 47.3229C31.3612 47.4135 31.4626 47.5752 31.4626 47.7649C31.4626 48.0496 31.2318 48.2803 30.9472 48.2803C30.7509 48.2803 30.5827 48.1682 30.4943 48.0065C30.4555 47.9332 30.4318 47.8512 30.4318 47.7628C30.4318 47.4781 30.6625 47.2474 30.9472 47.2474V47.2496ZM29.1336 47.4135C29.2307 47.4135 29.3191 47.4415 29.3967 47.4868C29.5477 47.5773 29.649 47.7391 29.649 47.9288C29.649 48.2135 29.4183 48.4442 29.1336 48.4442C28.9374 48.4442 28.7692 48.3321 28.6808 48.1704C28.6419 48.097 28.6182 48.0151 28.6182 47.9267C28.6182 47.642 28.849 47.4113 29.1336 47.4113V47.4135ZM27.32 47.4415C27.4171 47.4415 27.5055 47.4695 27.5831 47.5148C27.7341 47.6054 27.8354 47.7671 27.8354 47.9569C27.8354 48.2415 27.6047 48.4723 27.32 48.4723C27.1238 48.4723 26.9556 48.3601 26.8672 48.1984C26.8284 48.1251 26.8047 48.0431 26.8047 47.9547C26.8047 47.6701 27.0354 47.4393 27.32 47.4393V47.4415ZM25.5065 47.3574C25.6035 47.3574 25.6919 47.3854 25.7696 47.4307C25.9205 47.5213 26.0219 47.683 26.0219 47.8728C26.0219 48.1574 25.7911 48.3882 25.5065 48.3882C25.3102 48.3882 25.142 48.276 25.0536 48.1143C25.0148 48.041 24.9911 47.959 24.9911 47.8706C24.9911 47.586 25.2218 47.3552 25.5065 47.3552V47.3574ZM23.6929 47.1461C23.79 47.1461 23.8784 47.1741 23.956 47.2194C24.1069 47.3099 24.2083 47.4717 24.2083 47.6614C24.2083 47.9461 23.9776 48.1768 23.6929 48.1768C23.4967 48.1768 23.3285 48.0647 23.2401 47.903C23.2012 47.8296 23.1775 47.7477 23.1775 47.6593C23.1775 47.3746 23.4083 47.1439 23.6929 47.1439V47.1461ZM21.8793 46.8312C21.9764 46.8312 22.0648 46.8592 22.1424 46.9045C22.2934 46.9951 22.3947 47.1568 22.3947 47.3466C22.3947 47.6313 22.164 47.862 21.8793 47.862C21.6831 47.862 21.5149 47.7499 21.4265 47.5881C21.3877 47.5148 21.364 47.4329 21.364 47.3444C21.364 47.0598 21.5947 46.8291 21.8793 46.8291V46.8312ZM21.8944 49.6756C21.6982 49.6756 21.53 49.5634 21.4416 49.4017C21.4028 49.3284 21.379 49.2464 21.379 49.158C21.379 48.8734 21.6098 48.6426 21.8944 48.6426C21.9915 48.6426 22.0799 48.6707 22.1575 48.7159C22.3085 48.8065 22.4098 48.9682 22.4098 49.158C22.4098 49.4427 22.1791 49.6734 21.8944 49.6734V49.6756ZM23.708 49.9904C23.5118 49.9904 23.3436 49.8783 23.2552 49.7187C23.2163 49.6454 23.1926 49.5634 23.1926 49.475C23.1926 49.1904 23.4234 48.9596 23.708 48.9596C23.805 48.9596 23.8935 48.9877 23.9711 49.0329C24.122 49.1235 24.2234 49.2852 24.2234 49.475C24.2234 49.7597 23.9927 49.9904 23.708 49.9904ZM25.5216 50.2017C25.3253 50.2017 25.1571 50.0896 25.0687 49.9279C25.0299 49.8545 25.0062 49.7726 25.0062 49.6842C25.0062 49.3995 25.2369 49.1688 25.5216 49.1688C25.6186 49.1688 25.707 49.1968 25.7847 49.2421C25.9356 49.3327 26.037 49.4944 26.037 49.6842C26.037 49.9688 25.8062 50.1996 25.5216 50.1996V50.2017ZM26.8198 49.7704C26.8198 49.4858 27.0505 49.2551 27.3351 49.2551C27.4322 49.2551 27.5206 49.2831 27.5982 49.3284C27.7492 49.4189 27.8505 49.5807 27.8505 49.7704C27.8505 50.0551 27.6198 50.2858 27.3351 50.2858C27.1389 50.2858 26.9707 50.1737 26.8823 50.012C26.8435 49.9386 26.8198 49.8567 26.8198 49.7683V49.7704Z" fill="white"/>
<path d="M31.057 44.929C31.3222 44.929 31.54 44.6875 31.54 44.392V42.1795C31.54 41.8841 31.3222 41.6426 31.057 41.6426H24.1434C23.8782 41.6426 23.6604 41.8841 23.6604 42.1795V44.392C23.6604 44.6875 23.8782 44.929 24.1434 44.929H31.057ZM24.0378 44.1678V42.3628C24.0378 42.1213 24.234 41.9251 24.4755 41.9251H30.7529C30.9945 41.9251 31.1907 42.1213 31.1907 42.3628V44.1678C31.1907 44.4093 30.9945 44.6055 30.7529 44.6055H24.4755C24.234 44.6055 24.0378 44.4093 24.0378 44.1678Z" fill="#CAB7CC"/>
<path d="M30.4513 41.9219H24.4758C24.2343 41.9219 24.0381 42.1181 24.0381 42.3596V43.4724C26.2916 43.9209 28.862 43.522 30.4513 41.9219Z" fill="#684B5C"/>
<path d="M30.7533 44.6062C30.9948 44.6062 31.191 44.41 31.191 44.1685V42.3635C31.191 42.122 30.9948 41.9258 30.7533 41.9258H30.4513C28.862 43.5259 26.2916 43.9248 24.0381 43.4763V44.1706C24.0381 44.4122 24.2343 44.6084 24.4758 44.6084H30.7533V44.6062Z" fill="#56414F"/>
<path d="M32.4763 47.6451C32.431 47.5847 32.4008 47.5092 32.4008 47.4273C32.4008 47.2289 32.5626 47.0693 32.7588 47.0693C32.8688 47.0693 32.9658 47.1211 33.0327 47.1987C33.0434 47.134 33.0413 47.065 33.0219 46.9874C32.9442 46.9421 32.8558 46.9141 32.7588 46.9141C32.4741 46.9141 32.2434 47.1448 32.2434 47.4295C32.2434 47.5179 32.2671 47.5998 32.3059 47.6731C32.362 47.6667 32.4202 47.658 32.4741 47.6473L32.4763 47.6451Z" fill="#A894AA"/>
<path d="M33.0326 47.1981C33.0844 47.2606 33.1167 47.3404 33.1167 47.4266C33.1167 47.625 32.955 47.7846 32.7588 47.7846C32.6423 47.7846 32.541 47.7286 32.4741 47.6423C32.4202 47.6531 32.3641 47.6617 32.3059 47.6682C32.3922 47.8299 32.5625 47.9399 32.7588 47.9399C33.0434 47.9399 33.2742 47.7091 33.2742 47.4245C33.2742 47.2369 33.1728 47.073 33.0218 46.9824C33.0413 47.0601 33.0434 47.1312 33.0326 47.1938V47.1981Z" fill="#927C96"/>
<path d="M33.0327 47.1977C32.9659 47.1201 32.8688 47.0684 32.7588 47.0684C32.5605 47.0684 32.4009 47.2301 32.4009 47.4263C32.4009 47.5083 32.4289 47.5837 32.4764 47.6441C32.7588 47.5837 32.9939 47.4414 33.0349 47.1977H33.0327Z" fill="white"/>
<path d="M32.4761 47.6454C32.5408 47.7317 32.6443 47.7877 32.7607 47.7877C32.9591 47.7877 33.1187 47.626 33.1187 47.4298C33.1187 47.3413 33.0864 47.2637 33.0346 47.2012C32.9958 47.4448 32.7586 47.5872 32.4761 47.6476V47.6454Z" fill="#EFE3EF"/>
<path d="M30.6628 47.983C30.6175 47.9226 30.5874 47.8471 30.5874 47.7652C30.5874 47.5668 30.7491 47.4072 30.9453 47.4072C31.0553 47.4072 31.1523 47.459 31.2192 47.5366C31.23 47.4719 31.2278 47.4029 31.2084 47.3253C31.1308 47.28 31.0424 47.252 30.9453 47.252C30.6607 47.252 30.4299 47.4827 30.4299 47.7673C30.4299 47.8558 30.4537 47.9377 30.4925 48.011C30.5485 48.0045 30.6068 47.9959 30.6607 47.9851L30.6628 47.983Z" fill="#A894AA"/>
<path d="M31.2189 47.5358C31.2707 47.5983 31.303 47.6781 31.303 47.7643C31.303 47.9627 31.1413 48.1223 30.945 48.1223C30.8286 48.1223 30.7272 48.0662 30.6604 47.98C30.6065 47.9908 30.5504 47.9994 30.4922 48.0059C30.5784 48.1676 30.7488 48.2797 30.945 48.2797C31.2297 48.2797 31.4604 48.049 31.4604 47.7643C31.4604 47.5767 31.3591 47.4128 31.2081 47.3223C31.2275 47.3999 31.2297 47.4711 31.2189 47.5336V47.5358Z" fill="#927C96"/>
<path d="M31.2212 47.5356C31.1543 47.458 31.0573 47.4062 30.9473 47.4062C30.7489 47.4062 30.5894 47.568 30.5894 47.7642C30.5894 47.8462 30.6174 47.9216 30.6648 47.982C30.9473 47.9216 31.1824 47.7793 31.2234 47.5356H31.2212Z" fill="white"/>
<path d="M30.6624 47.9833C30.727 48.0695 30.8306 48.1256 30.947 48.1256C31.1454 48.1256 31.305 47.9639 31.305 47.7676C31.305 47.6792 31.2726 47.6016 31.2209 47.5391C31.1821 47.7827 30.9448 47.9251 30.6624 47.9854V47.9833Z" fill="#EFE3EF"/>
<path d="M28.8489 48.1451C28.8036 48.0847 28.7734 48.0092 28.7734 47.9273C28.7734 47.7289 28.9351 47.5693 29.1314 47.5693C29.2413 47.5693 29.3384 47.6211 29.4052 47.6987C29.416 47.634 29.4139 47.565 29.3944 47.4874C29.3168 47.4421 29.2284 47.4141 29.1314 47.4141C28.8467 47.4141 28.616 47.6448 28.616 47.9295C28.616 48.0179 28.6397 48.0998 28.6785 48.1731C28.7346 48.1667 28.7928 48.158 28.8467 48.1473L28.8489 48.1451Z" fill="#A894AA"/>
<path d="M29.4076 47.6979C29.4594 47.7604 29.4917 47.8402 29.4917 47.9264C29.4917 48.1248 29.33 48.2844 29.1338 48.2844C29.0173 48.2844 28.916 48.2283 28.8491 48.1421C28.7952 48.1529 28.7391 48.1615 28.6809 48.168C28.7672 48.3297 28.9375 48.4418 29.1338 48.4418C29.4184 48.4418 29.6491 48.2111 29.6491 47.9264C29.6491 47.7388 29.5478 47.5749 29.3968 47.4844C29.4163 47.562 29.4184 47.6332 29.4076 47.6957V47.6979Z" fill="#927C96"/>
<path d="M29.4075 47.6997C29.3406 47.6221 29.2436 47.5703 29.1336 47.5703C28.9352 47.5703 28.7756 47.732 28.7756 47.9283C28.7756 48.0102 28.8037 48.0857 28.8511 48.1461C29.1336 48.0857 29.3687 47.9434 29.4096 47.6997H29.4075Z" fill="white"/>
<path d="M28.8491 48.1474C28.9138 48.2336 29.0173 48.2897 29.1338 48.2897C29.3322 48.2897 29.4917 48.1279 29.4917 47.9317C29.4917 47.8433 29.4594 47.7657 29.4076 47.7031C29.3688 47.9468 29.1316 48.0891 28.8491 48.1495V48.1474Z" fill="#EFE3EF"/>
<path d="M21.5947 47.567C21.5494 47.5066 21.5192 47.4311 21.5192 47.3492C21.5192 47.1508 21.681 46.9912 21.8772 46.9912C21.9872 46.9912 22.0842 47.043 22.1511 47.1206C22.1619 47.0559 22.1597 46.9869 22.1403 46.9093C22.0627 46.864 21.9742 46.8359 21.8772 46.8359C21.5926 46.8359 21.3618 47.0667 21.3618 47.3513C21.3618 47.4397 21.3855 47.5217 21.4244 47.595C21.4804 47.5885 21.5386 47.5799 21.5926 47.5691L21.5947 47.567Z" fill="#A894AA"/>
<path d="M22.1532 47.1178C22.205 47.1803 22.2373 47.2601 22.2373 47.3464C22.2373 47.5448 22.0756 47.7043 21.8794 47.7043C21.7629 47.7043 21.6616 47.6483 21.5947 47.562C21.5408 47.5728 21.4847 47.5814 21.4265 47.5879C21.5128 47.7496 21.6831 47.8618 21.8794 47.8618C22.164 47.8618 22.3948 47.631 22.3948 47.3464C22.3948 47.1588 22.2934 46.9949 22.1425 46.9043C22.1619 46.9819 22.164 47.0531 22.1532 47.1156V47.1178Z" fill="#927C96"/>
<path d="M22.1533 47.1196C22.0865 47.042 21.9894 46.9902 21.8795 46.9902C21.6811 46.9902 21.5215 47.152 21.5215 47.3482C21.5215 47.4301 21.5495 47.5056 21.597 47.566C21.8795 47.5056 22.1145 47.3633 22.1555 47.1196H22.1533Z" fill="white"/>
<path d="M21.5969 47.5673C21.6616 47.6535 21.7651 47.7096 21.8816 47.7096C22.08 47.7096 22.2395 47.5479 22.2395 47.3516C22.2395 47.2632 22.2072 47.1856 22.1554 47.123C22.1166 47.3667 21.8794 47.509 21.5969 47.5694V47.5673Z" fill="#EFE3EF"/>
<path d="M23.4084 47.8834C23.3631 47.823 23.333 47.7475 23.333 47.6656C23.333 47.4672 23.4947 47.3076 23.6909 47.3076C23.8009 47.3076 23.8979 47.3594 23.9648 47.437C23.9756 47.3723 23.9734 47.3033 23.954 47.2257C23.8764 47.1804 23.788 47.1523 23.6909 47.1523C23.4063 47.1523 23.1755 47.3831 23.1755 47.6677C23.1755 47.7562 23.1993 47.8381 23.2381 47.9114C23.2941 47.9049 23.3524 47.8963 23.4063 47.8855L23.4084 47.8834Z" fill="#A894AA"/>
<path d="M23.967 47.4361C24.0187 47.4987 24.0511 47.5785 24.0511 47.6647C24.0511 47.8631 23.8893 48.0227 23.6931 48.0227C23.5766 48.0227 23.4753 47.9666 23.4084 47.8804C23.3545 47.8912 23.2985 47.8998 23.2402 47.9062C23.3265 48.068 23.4969 48.1801 23.6931 48.1801C23.9777 48.1801 24.2085 47.9494 24.2085 47.6647C24.2085 47.4771 24.1071 47.3132 23.9562 47.2227C23.9756 47.3003 23.9777 47.3715 23.967 47.434V47.4361Z" fill="#927C96"/>
<path d="M23.967 47.4321C23.9002 47.3545 23.8032 47.3027 23.6932 47.3027C23.4948 47.3027 23.3352 47.4645 23.3352 47.6607C23.3352 47.7426 23.3632 47.8181 23.4107 47.8785C23.6932 47.8181 23.9282 47.6758 23.9692 47.4321H23.967Z" fill="white"/>
<path d="M23.4082 47.8817C23.4729 47.968 23.5764 48.0241 23.6929 48.0241C23.8912 48.0241 24.0508 47.8623 24.0508 47.6661C24.0508 47.5777 24.0185 47.5 23.9667 47.4375C23.9279 47.6812 23.6907 47.8235 23.4082 47.8839V47.8817Z" fill="#EFE3EF"/>
<path d="M25.2217 48.0904C25.1764 48.03 25.1462 47.9546 25.1462 47.8726C25.1462 47.6742 25.3079 47.5146 25.5042 47.5146C25.6141 47.5146 25.7112 47.5664 25.778 47.644C25.7888 47.5793 25.7867 47.5103 25.7672 47.4327C25.6896 47.3874 25.6012 47.3594 25.5042 47.3594C25.2195 47.3594 24.9888 47.5901 24.9888 47.8748C24.9888 47.9632 25.0125 48.0451 25.0513 48.1184C25.1074 48.112 25.1656 48.1033 25.2195 48.0926L25.2217 48.0904Z" fill="#A894AA"/>
<path d="M25.7804 47.6451C25.8322 47.7077 25.8645 47.7875 25.8645 47.8737C25.8645 48.0721 25.7028 48.2317 25.5066 48.2317C25.3901 48.2317 25.2888 48.1756 25.2219 48.0894C25.168 48.1001 25.1119 48.1088 25.0537 48.1152C25.14 48.277 25.3103 48.3891 25.5066 48.3891C25.7912 48.3891 26.022 48.1584 26.022 47.8737C26.022 47.6861 25.9206 47.5222 25.7696 47.4316C25.7891 47.5093 25.7912 47.5804 25.7804 47.643V47.6451Z" fill="#927C96"/>
<path d="M25.7805 47.6431C25.7137 47.5654 25.6166 47.5137 25.5067 47.5137C25.3083 47.5137 25.1487 47.6754 25.1487 47.8716C25.1487 47.9536 25.1767 48.0291 25.2242 48.0894C25.5067 48.0291 25.7417 47.8867 25.7827 47.6431H25.7805Z" fill="white"/>
<path d="M25.2219 48.0927C25.2866 48.1789 25.3901 48.235 25.5066 48.235C25.705 48.235 25.8645 48.0733 25.8645 47.877C25.8645 47.7886 25.8322 47.711 25.7804 47.6484C25.7416 47.8921 25.5044 48.0366 25.2219 48.0948V48.0927Z" fill="#EFE3EF"/>
<path d="M27.0354 48.1724C26.9901 48.1121 26.9599 48.0366 26.9599 47.9546C26.9599 47.7562 27.1216 47.5967 27.3179 47.5967C27.4279 47.5967 27.5249 47.6484 27.5917 47.7261C27.6025 47.6614 27.6004 47.5924 27.581 47.5147C27.5033 47.4694 27.4149 47.4414 27.3179 47.4414C27.0332 47.4414 26.8025 47.6721 26.8025 47.9568C26.8025 48.0452 26.8262 48.1272 26.865 48.2005C26.9211 48.194 26.9793 48.1854 27.0332 48.1746L27.0354 48.1724Z" fill="#A894AA"/>
<path d="M27.5942 47.7272C27.6459 47.7897 27.6783 47.8695 27.6783 47.9557C27.6783 48.1541 27.5165 48.3137 27.3203 48.3137C27.2038 48.3137 27.1025 48.2576 27.0356 48.1714C26.9817 48.1822 26.9257 48.1908 26.8674 48.1973C26.9537 48.359 27.124 48.4711 27.3203 48.4711C27.6049 48.4711 27.8357 48.2404 27.8357 47.9557C27.8357 47.7681 27.7343 47.6042 27.5834 47.5137C27.6028 47.5913 27.6049 47.6625 27.5942 47.725V47.7272Z" fill="#927C96"/>
<path d="M27.5942 47.727C27.5274 47.6494 27.4303 47.5977 27.3204 47.5977C27.122 47.5977 26.9624 47.7594 26.9624 47.9556C26.9624 48.0376 26.9904 48.113 27.0379 48.1734C27.3204 48.113 27.5554 47.9707 27.5964 47.727H27.5942Z" fill="white"/>
<path d="M27.0354 48.1727C27.1001 48.259 27.2036 48.3151 27.3201 48.3151C27.5184 48.3151 27.678 48.1533 27.678 47.9571C27.678 47.8687 27.6457 47.7911 27.5939 47.7285C27.5551 47.9722 27.3179 48.1145 27.0354 48.1749V48.1727Z" fill="#EFE3EF"/>
<path d="M32.4155 49.2418C32.4155 49.0434 32.5772 48.8838 32.7734 48.8838C32.8834 48.8838 32.9805 48.9355 33.0473 49.0132C33.0581 48.9485 33.0559 48.8795 33.0365 48.8018C32.9589 48.7565 32.8705 48.7285 32.7734 48.7285C32.4888 48.7285 32.2581 48.9593 32.2581 49.2439C32.2581 49.3323 32.2818 49.4143 32.3206 49.4876C32.3767 49.4811 32.4349 49.4725 32.4888 49.4617C32.4435 49.4013 32.4133 49.3259 32.4133 49.2439L32.4155 49.2418Z" fill="#A894AA"/>
<path d="M33.037 48.8012C33.0564 48.8788 33.0586 48.95 33.0478 49.0125C33.0995 49.0751 33.1319 49.1548 33.1319 49.2411C33.1319 49.4395 32.9701 49.5991 32.7739 49.5991C32.6575 49.5991 32.5561 49.543 32.4893 49.4567C32.4353 49.4675 32.3793 49.4762 32.321 49.4826C32.4073 49.6444 32.5777 49.7543 32.7739 49.7543C33.0585 49.7543 33.2893 49.5236 33.2893 49.2389C33.2893 49.0513 33.1879 48.8874 33.037 48.7969V48.8012Z" fill="#927C96"/>
<path d="M32.4158 49.2427C32.4158 49.3247 32.4438 49.4002 32.4912 49.4605C32.7737 49.4002 33.0088 49.2578 33.0498 49.0142C32.9829 48.9365 32.8859 48.8848 32.7759 48.8848C32.5775 48.8848 32.4179 49.0465 32.4179 49.2427H32.4158Z" fill="white"/>
<path d="M32.4915 49.4599C32.5561 49.5461 32.6597 49.6022 32.7761 49.6022C32.9745 49.6022 33.1341 49.4404 33.1341 49.2442C33.1341 49.1558 33.1017 49.0782 33.05 49.0156C33.0112 49.2593 32.7739 49.4016 32.4915 49.462V49.4599Z" fill="#EFE3EF"/>
<path d="M30.6022 49.5777C30.6022 49.3793 30.764 49.2197 30.9602 49.2197C31.0702 49.2197 31.1672 49.2715 31.2341 49.3491C31.2449 49.2844 31.2427 49.2154 31.2233 49.1378C31.1457 49.0925 31.0573 49.0645 30.9602 49.0645C30.6756 49.0645 30.4448 49.2952 30.4448 49.5798C30.4448 49.6683 30.4685 49.7502 30.5074 49.8235C30.5634 49.817 30.6217 49.8084 30.6756 49.7976C30.6303 49.7373 30.6001 49.6618 30.6001 49.5798L30.6022 49.5777Z" fill="#A894AA"/>
<path d="M31.2255 49.1389C31.2449 49.2165 31.247 49.2877 31.2362 49.3502C31.288 49.4127 31.3203 49.4925 31.3203 49.5788C31.3203 49.7772 31.1586 49.9368 30.9624 49.9368C30.8459 49.9368 30.7446 49.8807 30.6777 49.7944C30.6238 49.8052 30.5677 49.8138 30.5095 49.8203C30.5958 49.982 30.7661 50.0942 30.9624 50.0942C31.247 50.0942 31.4778 49.8634 31.4778 49.5788C31.4778 49.3912 31.3764 49.2273 31.2255 49.1367V49.1389Z" fill="#927C96"/>
<path d="M30.6021 49.5806C30.6021 49.6626 30.6301 49.738 30.6775 49.7984C30.96 49.738 31.1951 49.5957 31.236 49.352C31.1692 49.2744 31.0722 49.2227 30.9622 49.2227C30.7638 49.2227 30.6042 49.3844 30.6042 49.5806H30.6021Z" fill="white"/>
<path d="M30.6777 49.7977C30.7424 49.884 30.8459 49.9401 30.9624 49.9401C31.1608 49.9401 31.3204 49.7783 31.3204 49.5821C31.3204 49.4937 31.288 49.4161 31.2363 49.3535C31.1974 49.5972 30.9602 49.7395 30.6777 49.7999V49.7977Z" fill="#EFE3EF"/>
<path d="M28.7907 49.7418C28.7907 49.5434 28.9525 49.3838 29.1487 49.3838C29.2587 49.3838 29.3557 49.4355 29.4226 49.5132C29.4333 49.4485 29.4312 49.3795 29.4118 49.3018C29.3341 49.2565 29.2457 49.2285 29.1487 49.2285C28.864 49.2285 28.6333 49.4593 28.6333 49.7439C28.6333 49.8323 28.657 49.9143 28.6958 49.9876C28.7519 49.9811 28.8101 49.9725 28.864 49.9617C28.8188 49.9013 28.7886 49.8259 28.7886 49.7439L28.7907 49.7418Z" fill="#A894AA"/>
<path d="M29.4117 49.3029C29.4311 49.3806 29.4333 49.4517 29.4225 49.5143C29.4743 49.5768 29.5066 49.6566 29.5066 49.7429C29.5066 49.9412 29.3449 50.1008 29.1487 50.1008C29.0322 50.1008 28.9309 50.0448 28.864 49.9585C28.8101 49.9693 28.754 49.9779 28.6958 49.9844C28.7821 50.1461 28.9524 50.2582 29.1487 50.2582C29.4333 50.2582 29.664 50.0275 29.664 49.7429C29.664 49.5552 29.5627 49.3914 29.4117 49.3008V49.3029Z" fill="#927C96"/>
<path d="M28.7908 49.7427C28.7908 49.8247 28.8188 49.9002 28.8662 49.9605C29.1487 49.9002 29.3838 49.7578 29.4248 49.5142C29.3579 49.4365 29.2609 49.3848 29.1509 49.3848C28.9525 49.3848 28.7929 49.5465 28.7929 49.7427H28.7908Z" fill="white"/>
<path d="M28.864 49.9599C28.9287 50.0461 29.0322 50.1022 29.1487 50.1022C29.3471 50.1022 29.5066 49.9404 29.5066 49.7442C29.5066 49.6558 29.4743 49.5782 29.4225 49.5156C29.3837 49.7593 29.1465 49.9016 28.864 49.962V49.9599Z" fill="#EFE3EF"/>
<path d="M21.5366 49.1617C21.5366 48.9633 21.6983 48.8037 21.8945 48.8037C22.0045 48.8037 22.1016 48.8555 22.1684 48.9331C22.1792 48.8684 22.177 48.7994 22.1576 48.7218C22.08 48.6765 21.9916 48.6484 21.8945 48.6484C21.6099 48.6484 21.3792 48.8792 21.3792 49.1638C21.3792 49.2522 21.4029 49.3342 21.4417 49.4075C21.4978 49.401 21.556 49.3924 21.6099 49.3816C21.5646 49.3212 21.5344 49.2458 21.5344 49.1638L21.5366 49.1617Z" fill="#A894AA"/>
<path d="M22.1573 48.7209C22.1768 48.7985 22.1789 48.8697 22.1681 48.9322C22.2199 48.9948 22.2522 49.0746 22.2522 49.1608C22.2522 49.3592 22.0905 49.5188 21.8943 49.5188C21.7778 49.5188 21.6765 49.4627 21.6096 49.3765C21.5557 49.3872 21.4996 49.3959 21.4414 49.4023C21.5277 49.5641 21.698 49.6762 21.8943 49.6762C22.1789 49.6762 22.4096 49.4455 22.4096 49.1608C22.4096 48.9732 22.3083 48.8093 22.1573 48.7188V48.7209Z" fill="#927C96"/>
<path d="M21.5364 49.1607C21.5364 49.2426 21.5644 49.3181 21.6119 49.3785C21.8943 49.3181 22.1294 49.1758 22.1704 48.9321C22.1035 48.8545 22.0065 48.8027 21.8965 48.8027C21.6981 48.8027 21.5385 48.9645 21.5385 49.1607H21.5364Z" fill="white"/>
<path d="M21.6118 49.3798C21.6765 49.466 21.78 49.5221 21.8965 49.5221C22.0949 49.5221 22.2544 49.3604 22.2544 49.1641C22.2544 49.0757 22.2221 48.9981 22.1703 48.9355C22.1315 49.1792 21.8943 49.3215 21.6118 49.3819V49.3798Z" fill="#EFE3EF"/>
<path d="M23.35 49.4761C23.35 49.2777 23.5118 49.1182 23.708 49.1182C23.818 49.1182 23.915 49.1699 23.9819 49.2475C23.9927 49.1828 23.9905 49.1138 23.9711 49.0362C23.8935 48.9909 23.8051 48.9629 23.708 48.9629C23.4234 48.9629 23.1926 49.1936 23.1926 49.4783C23.1926 49.5667 23.2163 49.6486 23.2552 49.722C23.3112 49.7155 23.3695 49.7069 23.4234 49.6961C23.3781 49.6357 23.3479 49.5602 23.3479 49.4783L23.35 49.4761Z" fill="#A894AA"/>
<path d="M23.9713 49.0336C23.9907 49.1112 23.9929 49.1824 23.9821 49.2449C24.0338 49.3075 24.0662 49.3873 24.0662 49.4735C24.0662 49.6719 23.9045 49.8315 23.7082 49.8315C23.5918 49.8315 23.4904 49.7754 23.4236 49.6892C23.3697 49.7 23.3136 49.7086 23.2554 49.715C23.3416 49.8768 23.512 49.9868 23.7082 49.9868C23.9929 49.9868 24.2236 49.756 24.2236 49.4714C24.2236 49.2838 24.1223 49.1199 23.9713 49.0293V49.0336Z" fill="#927C96"/>
<path d="M23.3501 49.4752C23.3501 49.5571 23.3781 49.6326 23.4256 49.693C23.7081 49.6326 23.9431 49.4903 23.9841 49.2466C23.9172 49.1689 23.8202 49.1172 23.7102 49.1172C23.5118 49.1172 23.3523 49.2789 23.3523 49.4752H23.3501Z" fill="white"/>
<path d="M23.4258 49.6923C23.4905 49.7785 23.594 49.8346 23.7104 49.8346C23.9088 49.8346 24.0684 49.6729 24.0684 49.4766C24.0684 49.3882 24.0361 49.3106 23.9843 49.248C23.9455 49.4917 23.7083 49.6341 23.4258 49.6944V49.6923Z" fill="#EFE3EF"/>
<path d="M25.1638 49.6871C25.1638 49.4887 25.3255 49.3291 25.5217 49.3291C25.6317 49.3291 25.7288 49.3808 25.7956 49.4585C25.8064 49.3938 25.8042 49.3248 25.7848 49.2471C25.7072 49.2019 25.6188 49.1738 25.5217 49.1738C25.2371 49.1738 25.0063 49.4046 25.0063 49.6892C25.0063 49.7776 25.0301 49.8596 25.0689 49.9329C25.125 49.9264 25.1832 49.9178 25.2371 49.907C25.1918 49.8466 25.1616 49.7712 25.1616 49.6892L25.1638 49.6871Z" fill="#A894AA"/>
<path d="M25.7843 49.2463C25.8037 49.3239 25.8059 49.3951 25.7951 49.4576C25.8468 49.5202 25.8792 49.6 25.8792 49.6862C25.8792 49.8846 25.7174 50.0442 25.5212 50.0442C25.4048 50.0442 25.3034 49.9881 25.2366 49.9019C25.1827 49.9126 25.1266 49.9213 25.0684 49.9277C25.1546 50.0895 25.325 50.2016 25.5212 50.2016C25.8059 50.2016 26.0366 49.9709 26.0366 49.6862C26.0366 49.4986 25.9352 49.3347 25.7843 49.2441V49.2463Z" fill="#927C96"/>
<path d="M25.1633 49.688C25.1633 49.77 25.1914 49.8455 25.2388 49.9059C25.5213 49.8455 25.7564 49.7031 25.7973 49.4595C25.7305 49.3818 25.6334 49.3301 25.5235 49.3301C25.3251 49.3301 25.1655 49.4918 25.1655 49.688H25.1633Z" fill="white"/>
<path d="M25.2393 49.9052C25.304 49.9914 25.4075 50.0475 25.5239 50.0475C25.7223 50.0475 25.8819 49.8858 25.8819 49.6895C25.8819 49.6011 25.8495 49.5235 25.7978 49.4609C25.759 49.7046 25.5218 49.8469 25.2393 49.9073V49.9052Z" fill="#EFE3EF"/>
<path d="M26.977 49.7691C26.977 49.5707 27.1387 49.4111 27.335 49.4111C27.4449 49.4111 27.542 49.4629 27.6088 49.5405C27.6196 49.4758 27.6175 49.4068 27.5981 49.3292C27.5204 49.2839 27.432 49.2559 27.335 49.2559C27.0503 49.2559 26.8196 49.4866 26.8196 49.7712C26.8196 49.8597 26.8433 49.9416 26.8821 50.0149C26.9382 50.0085 26.9964 49.9998 27.0503 49.9891C27.005 49.9287 26.9748 49.8532 26.9748 49.7712L26.977 49.7691Z" fill="#A894AA"/>
<path d="M27.3354 50.2875C27.6201 50.2875 27.8508 50.0568 27.8508 49.7721C27.8508 49.5845 27.7495 49.4206 27.5985 49.3301C27.6179 49.4077 27.6201 49.4789 27.6093 49.5414C27.661 49.6039 27.6934 49.6837 27.6934 49.77C27.6934 49.9684 27.5317 50.128 27.3354 50.128C27.219 50.128 27.1176 50.0719 27.0508 49.9856C26.9969 49.9964 26.9408 50.005 26.8826 50.0115C26.9688 50.1732 27.1392 50.2854 27.3354 50.2854V50.2875Z" fill="#927C96"/>
<path d="M26.9773 49.7701C26.9773 49.852 27.0053 49.9275 27.0528 49.9879C27.3353 49.9275 27.5703 49.7852 27.6113 49.5415C27.5444 49.4639 27.4474 49.4121 27.3374 49.4121C27.139 49.4121 26.9795 49.5738 26.9795 49.7701H26.9773Z" fill="white"/>
<path d="M27.0505 49.9852C27.1152 50.0715 27.2187 50.1276 27.3352 50.1276C27.5336 50.1276 27.6932 49.9658 27.6932 49.7696C27.6932 49.6812 27.6608 49.6036 27.6091 49.541C27.5702 49.7847 27.333 49.927 27.0505 49.9874V49.9852Z" fill="#EFE3EF"/>
<path d="M18.8428 3.10345C18.8817 3.10345 18.9183 3.09266 18.9507 3.07757C19.0305 3.0366 19.0865 2.95465 19.0865 2.85977V1.96484C18.8774 2.21715 18.5453 2.36594 18.2132 2.32497C18.17 2.31634 18.1269 2.30341 18.0859 2.28831V2.85977C18.0859 2.94171 18.1269 3.01287 18.1873 3.05816C18.2283 3.08619 18.2757 3.1056 18.3296 3.1056H18.8428V3.10345Z" fill="#56414F"/>
<path d="M18.2132 2.32283C18.5474 2.3638 18.8795 2.21501 19.0865 1.9627V1.15188C19.0865 1.01603 18.9765 0.908203 18.8428 0.908203H18.3296C18.1938 0.908203 18.0859 1.01818 18.0859 1.15188V2.28617C18.1269 2.29911 18.17 2.31205 18.2132 2.32283Z" fill="#684B5C"/>
<path d="M21.4737 3.10345C21.5255 3.10345 21.5729 3.08835 21.6117 3.06032C21.6764 3.01719 21.7174 2.94171 21.7174 2.85977V1.96484C21.5082 2.21715 21.1761 2.36594 20.844 2.32497C20.8009 2.31634 20.7578 2.30341 20.7168 2.28831V2.85977C20.7168 2.95465 20.7707 3.03444 20.8483 3.07541C20.8828 3.09266 20.9195 3.10345 20.9605 3.10345H21.4737Z" fill="#56414F"/>
<path d="M21.7198 1.9627V1.15188C21.7198 1.01603 21.6098 0.908203 21.4762 0.908203H20.9629C20.8271 0.908203 20.7192 1.01818 20.7192 1.15188V2.28617C20.7602 2.29911 20.8033 2.31205 20.8465 2.32283C21.1807 2.3638 21.5128 2.21501 21.7198 1.9627Z" fill="#684B5C"/>
<path d="M34.2506 3.10345C34.3023 3.10345 34.3498 3.08835 34.3886 3.06032C34.4533 3.01719 34.4942 2.94171 34.4942 2.85977V1.96484C34.2851 2.21715 33.953 2.36594 33.6209 2.32497C33.5778 2.31634 33.5346 2.30341 33.4937 2.28831V2.85977C33.4937 2.95465 33.5476 3.03444 33.6252 3.07541C33.6597 3.09266 33.6964 3.10345 33.7373 3.10345H34.2506Z" fill="#56414F"/>
<path d="M34.4964 1.9627V1.15188C34.4964 1.01603 34.3865 0.908203 34.2528 0.908203H33.7395C33.6037 0.908203 33.4958 1.01818 33.4958 1.15188V2.28617C33.5368 2.29911 33.58 2.31205 33.6231 2.32283C33.9573 2.3638 34.2894 2.21501 34.4964 1.9627Z" fill="#684B5C"/>
<path d="M27.3589 3.10345H27.8721C27.9455 3.10345 28.0102 3.0711 28.0554 3.01934C28.0921 2.97622 28.1158 2.92015 28.1158 2.85977V1.96484C27.9066 2.21715 27.5746 2.36594 27.2425 2.32497C27.1993 2.31634 27.1562 2.30341 27.1152 2.28831V2.85977C27.1152 2.90721 27.1282 2.95034 27.1519 2.987C27.195 3.05816 27.2705 3.10345 27.3589 3.10345Z" fill="#56414F"/>
<path d="M27.2425 2.32283C27.5767 2.3638 27.9088 2.21501 28.1158 1.9627V1.15188C28.1158 1.01603 28.0058 0.908203 27.8721 0.908203H27.3589C27.2231 0.908203 27.1152 1.01818 27.1152 1.15188V2.28617C27.1562 2.29911 27.1993 2.31205 27.2425 2.32283Z" fill="#684B5C"/>
<path d="M36.8844 3.10345C36.949 3.10345 37.0094 3.07757 37.0526 3.0366C37.1 2.99131 37.128 2.92877 37.128 2.85977V1.96484C36.9189 2.21715 36.5868 2.36594 36.2547 2.32497C36.2115 2.31634 36.1684 2.30341 36.1274 2.28831V2.85977C36.1274 2.96543 36.1943 3.05385 36.2892 3.08835C36.3151 3.09698 36.3431 3.10345 36.3711 3.10345H36.8844Z" fill="#56414F"/>
<path d="M37.128 1.9627V1.15188C37.128 1.01603 37.0181 0.908203 36.8844 0.908203H36.3711C36.2353 0.908203 36.1274 1.01818 36.1274 1.15188V2.28617C36.1684 2.29911 36.2115 2.31205 36.2547 2.32283C36.5889 2.3638 36.921 2.21501 37.128 1.9627Z" fill="#684B5C"/>
<path d="M46.3164 72.3985C44.3389 75.7734 42.135 78.484 39.8729 78.5164C39.86 78.5164 39.847 78.5164 39.8341 78.5164C39.8255 78.5164 39.8147 78.5164 39.8061 78.5164C37.8027 78.497 36.0948 77.2074 34.9972 74.8849C34.1368 73.0649 33.699 70.7122 33.7659 68.2603C33.837 65.6769 34.4451 63.1991 35.5234 61.0923C37.1968 57.8231 38.0658 54.3577 38.1801 50.502C38.2901 46.7994 37.6927 43.2434 37.0932 40.2546C35.7713 33.658 35.4759 26.2938 35.5406 23.7255C35.5406 23.6694 35.5428 23.6155 35.5449 23.5637L35.2667 23.5508C35.2667 23.6068 35.2624 23.6651 35.2624 23.7255C35.1999 26.3175 35.4953 33.7119 36.8237 40.3301C37.4189 43.2973 38.0119 46.8274 37.9041 50.4891C37.7919 54.2866 36.9358 57.7002 35.2861 60.9198C34.1842 63.0741 33.5632 65.6057 33.4898 68.2452C33.4208 70.7553 33.8694 73.1684 34.7557 75.038C35.905 77.4683 37.6992 78.8161 39.8061 78.8377C39.8168 78.8377 39.8255 78.8377 39.8362 78.8377C39.8621 78.8377 39.8858 78.8377 39.9117 78.8355C41.2832 78.801 42.6202 77.8543 43.8925 76.3923C44.2419 75.9933 44.5847 75.5556 44.9233 75.0876C45.5055 74.2811 46.0727 73.3819 46.6226 72.4395C46.5212 72.4266 46.4199 72.4115 46.3185 72.3921L46.3164 72.3985Z" fill="white"/>
<path d="M31.2816 112.624H29.509V111.981C29.509 111.569 29.1748 111.235 28.7629 111.235H28.6206V110.636C28.6206 110.411 28.4394 110.232 28.2173 110.232H26.9256C26.7035 110.232 26.5223 110.414 26.5223 110.636V111.235H26.38C25.9681 111.235 25.6339 111.569 25.6339 111.981V112.624H21.0687C19.6994 112.624 18.537 113.366 18.1446 114.386L17.6809 114.381C17.131 114.375 16.7687 114.951 17.0103 115.445L17.2259 115.884L17.3553 116.152C18.399 116.156 19.4061 115.58 19.8287 114.575C19.7058 114.472 19.5462 114.405 19.3651 114.403H19.115C19.4794 113.866 20.2191 113.497 21.0709 113.497H34.0807C34.926 113.497 35.6592 113.857 36.0258 114.386H35.767C35.2171 114.377 34.8548 114.951 35.0964 115.445L35.312 115.884L35.4414 116.152C36.4851 116.156 37.4922 115.58 37.9148 114.575C37.7919 114.472 37.6323 114.405 37.4512 114.403L37.0091 114.399C36.6188 113.374 35.4543 112.628 34.0828 112.628H33.7443" fill="white"/>
</svg>
