<svg width="204" height="203" viewBox="0 0 204 203" fill="none" xmlns="http://www.w3.org/2000/svg">
<path d="M182.778 72.6065C182.778 72.6065 183.188 70.7296 183.557 70.2476C183.916 69.7553 185.865 70.1245 188.48 67.3144C191.075 64.5043 193.239 61.6121 194.982 60.5147C196.726 59.4173 196.808 58.9353 195.793 58.7302C194.777 58.5353 193.557 59.0994 192.172 60.1968C190.788 61.2941 188.788 63.7351 187.988 63.4069C187.988 63.4069 189.66 61.3352 190.634 60.4737C191.608 59.6224 192.829 57.1405 193.434 56.3713C194.039 55.6021 192.818 54.5867 191.403 55.9303C189.967 57.2738 189.208 58.5353 188.48 58.9763C187.742 59.4173 185.793 61.4582 185.178 61.5813C185.178 61.5813 186.357 59.1814 187.219 58.084C188.07 56.9866 189.085 54.6688 189.454 53.8586C189.813 53.0381 188.88 52.1458 187.383 53.9406C185.875 55.7252 185.475 56.8328 185.147 57.1507C184.819 57.4789 182.829 59.6327 182.552 60.0327C182.552 60.0327 183.034 58.2891 183.444 57.4379C183.855 56.5867 184.419 55.1611 184.747 54.4329C185.075 53.6945 184.87 52.3509 183.239 53.6637C181.609 54.9662 181.291 56.3508 180.757 56.9969C180.224 57.643 179.168 58.9148 178.757 59.725C178.357 60.5352 177.619 61.5095 177.383 61.6326C177.383 61.6326 177.137 60.0532 176.44 59.3558C175.752 58.6686 174.327 58.0943 173.804 58.8635C173.271 59.6429 174.983 60.9865 175.301 62.5249C175.629 64.0735 175.301 64.7607 175.67 65.9401C176.04 67.1195 176.932 67.6016 177.455 67.899C177.455 67.899 177.127 69.2015 176.604 69.8476C176.604 69.8476 177.414 72.6988 182.788 72.6167L182.778 72.6065Z" fill="#FCC188"/>
<path d="M96.0837 116.551C96.0837 116.551 95.6735 118.428 95.3043 118.91C94.9453 119.402 92.9967 119.033 90.3814 121.843C87.7867 124.653 85.6227 127.545 83.8791 128.643C82.1356 129.74 82.0536 130.222 83.0689 130.427C84.0843 130.622 85.3047 130.058 86.6893 128.961C88.0738 127.863 90.0738 125.422 90.8737 125.751C90.8737 125.751 89.202 127.822 88.2277 128.684C87.2534 129.535 86.0329 132.017 85.4278 132.786C84.8227 133.555 86.0432 134.571 87.4585 133.227C88.8943 131.884 89.6533 130.622 90.3814 130.181C91.1199 129.74 93.0685 127.699 93.6838 127.576C93.6838 127.576 92.5044 129.976 91.6429 131.073C90.7917 132.171 89.7763 134.489 89.4071 135.299C89.0482 136.119 89.9814 137.012 91.4788 135.217C92.9864 133.432 93.3864 132.325 93.7146 132.007C94.0428 131.679 96.0325 129.525 96.3094 129.125C96.3094 129.125 95.8273 130.868 95.4171 131.72C95.0069 132.571 94.4428 133.996 94.1146 134.725C93.7864 135.463 93.9915 136.807 95.6222 135.494C97.2529 134.191 97.5709 132.807 98.1042 132.161C98.6375 131.514 99.6938 130.243 100.104 129.433C100.504 128.622 101.242 127.648 101.478 127.525C101.478 127.525 101.725 129.104 102.422 129.802C103.109 130.489 104.535 131.063 105.058 130.294C105.591 129.515 103.878 128.171 103.56 126.633C103.232 125.084 103.56 124.397 103.191 123.217C102.822 122.038 101.93 121.556 101.407 121.259C101.407 121.259 101.735 119.956 102.258 119.31C102.258 119.31 101.448 116.459 96.0735 116.541L96.0837 116.551Z" fill="#FCC188"/>
<path d="M155.804 186.393C155.804 186.393 155.24 188.178 161.742 190.301C168.255 192.424 171.916 194.29 172.162 195.347C172.408 196.393 172.572 198.187 168.819 198.352C165.086 198.516 154.512 198.434 152.881 198.095C151.261 197.777 147.599 197.777 147.671 193.87C147.753 189.962 147.671 186.301 147.671 186.301L155.804 186.383V186.393Z" fill="#4D2B15"/>
<path d="M122.862 185.913C122.862 185.913 123.672 189.574 123.272 192.579C123.272 192.579 117.17 195.584 109.601 196.886C102.042 198.189 100.412 197.451 100.412 196.158C100.412 194.866 112.698 187.533 116.196 186.148L122.862 185.902V185.913Z" fill="#4D2B15"/>
<g style="mix-blend-mode:multiply" opacity="0.5">
<path d="M147.671 186.322L155.804 186.404C155.804 186.404 155.558 187.215 157.332 188.373C156.86 188.363 156.378 188.425 155.876 188.64C154.512 189.194 153.363 190.507 152.563 191.717C151.937 192.65 151.127 193.778 152.194 194.701C153.086 195.44 154.583 195.481 155.681 195.604C160.224 196.076 164.727 196.496 169.29 196.66C170.388 196.701 171.895 196.886 172.224 195.614C172.419 196.681 172.285 198.209 168.829 198.373C165.096 198.537 154.522 198.455 152.891 198.117C151.271 197.799 147.609 197.799 147.681 193.891C147.763 189.984 147.681 186.322 147.681 186.322H147.671Z" fill="#4D2B15"/>
</g>
<g style="mix-blend-mode:multiply" opacity="0.5">
<path d="M103.981 195.79C107.304 195.236 110.565 194.334 113.703 193.093C115.037 192.559 118.575 191.8 118.339 189.811C118.144 188.18 115.99 187.411 114.319 187.042C115.078 186.652 115.724 186.355 116.206 186.17L122.872 185.924C122.872 185.924 123.682 189.585 123.282 192.59C123.282 192.59 117.18 195.595 109.611 196.898C102.053 198.2 100.422 197.462 100.422 196.17C100.422 196.077 100.504 195.944 100.617 195.78C101.253 196.559 103.119 195.944 103.981 195.79Z" fill="#4D2B15"/>
</g>
<path d="M158.583 115.26C158.583 115.26 144.553 123.926 126.862 114.768C126.862 114.768 122.831 122.583 120.882 134.777C118.924 146.982 117.467 176.99 115.139 186.272C115.139 186.272 118.801 188.846 123.313 187C123.313 187 140.153 135.392 143.323 132.592C143.323 132.592 148.933 152.715 146.01 188.098C146.01 188.098 151.62 189.575 156.378 186.877C156.378 186.877 168.214 134.295 158.583 115.26Z" fill="#17293B"/>
<g style="mix-blend-mode:multiply" opacity="0.3">
<path d="M117.263 185.882C118.298 185.872 118.668 183.903 118.893 183.247C120.473 178.385 121.293 173.35 122.196 168.324C122.637 165.904 123.088 163.494 123.714 161.114C124.196 159.278 124.77 157.227 124.596 155.299C124.462 153.812 124.021 152.745 122.647 152.048C121.56 151.515 120.268 151.412 119.037 151.289C119.632 144.766 120.216 138.808 120.862 134.777C122.811 122.583 126.842 114.768 126.842 114.768C144.533 123.916 158.563 115.26 158.563 115.26C162.973 123.967 162.881 139.7 161.497 154.202C159.261 154.571 156.974 154.674 156.553 157.494C156.307 159.114 156.358 160.755 156.43 162.386C156.512 164.55 156.369 166.735 156.153 168.888C155.63 173.986 154.533 178.97 153.743 184.036C153.651 184.621 153.425 185.657 154.03 186.067C154.748 186.529 155.784 186.149 156.594 185.8C156.451 186.488 156.358 186.867 156.358 186.867C151.6 189.564 145.99 188.087 145.99 188.087C148.913 152.704 143.303 132.582 143.303 132.582C140.133 135.382 123.293 186.99 123.293 186.99C118.77 188.836 115.119 186.262 115.119 186.262C115.211 185.903 115.293 185.523 115.386 185.113C115.991 185.513 116.617 185.872 117.242 185.872L117.263 185.882Z" fill="#17293B"/>
</g>
<g style="mix-blend-mode:multiply" opacity="0.6">
<path d="M147.179 123.146C147.025 122.52 146.697 122.141 146.092 122.284C144.841 122.582 143.692 122.91 142.379 122.879C141.169 122.879 140 122.674 138.79 122.541C138.41 122.5 138.061 122.602 137.897 122.992C136.954 125.187 137.261 127.833 137.067 130.171C136.81 133.197 136.595 136.222 136.328 139.237C136.103 141.781 135.959 144.345 135.692 146.878C135.385 149.832 134.195 152.591 130.728 152.314C126.708 151.996 122.965 150.806 119.221 149.514C119.755 143.709 120.298 138.458 120.883 134.796C122.831 122.602 126.862 114.787 126.862 114.787C144.553 123.935 158.584 115.279 158.584 115.279C162.747 123.505 162.901 137.986 161.732 151.791C160.491 152.293 159.291 152.847 157.948 153.124C156.05 153.493 154.112 153.883 152.194 154.016C150.102 154.16 147.558 153.903 146.82 151.534C146.533 150.611 146.471 149.657 146.441 148.704C146.676 144.632 146.769 140.53 146.994 136.458C147.138 133.812 147.599 124.879 147.179 123.166V123.146Z" fill="#17293B"/>
</g>
<g style="mix-blend-mode:multiply" opacity="0.5">
<path d="M155.763 159.074C156.071 149.731 155.568 140.336 154.984 131.024C154.984 130.942 155.097 130.921 155.097 130.993C156.03 140.008 156.307 149.136 156.235 158.182C156.153 167.381 154.44 176.632 152.912 185.678C152.902 185.76 152.779 185.739 152.779 185.657C153.538 176.755 155.476 168.007 155.774 159.064L155.763 159.074Z" fill="#0A1927"/>
</g>
<g style="mix-blend-mode:multiply" opacity="0.5">
<path d="M121.488 174.673C122.431 170.017 123.405 165.371 124.287 160.705C125.118 156.264 126.205 151.495 127.221 147.115C128.257 142.623 129.2 138.572 130.554 134.152C130.595 134.049 130.749 134.111 130.718 134.224C129.692 138.572 128.657 142.634 127.713 146.992C126.728 151.495 125.61 156.202 124.759 160.746C123.929 165.268 122.934 169.75 121.98 174.232C121.549 176.304 121.18 178.365 120.729 180.437C120.247 182.663 119.354 187.308 119.375 187.134C120.185 180.55 121.036 176.847 121.477 174.673H121.488Z" fill="#0A1927"/>
</g>
<path d="M146.984 71.7008L150.645 75.7314C150.645 75.7314 152.604 94.028 144.051 93.7921C135.518 93.546 134.174 82.3157 134.174 75.7314L136.974 71.3418L146.974 71.7008H146.984Z" fill="#FCC188"/>
<g style="mix-blend-mode:multiply">
<path d="M146.984 71.7008L150.645 75.7314C150.645 75.7314 152.604 94.028 144.051 93.7921C135.518 93.546 134.174 82.3157 134.174 75.7314L136.974 71.3418L146.974 71.7008H146.984Z" fill="#D9AE92"/>
</g>
<path d="M148.328 73.6602C148.328 73.6602 146.133 80.1317 143.2 79.5163C140.277 78.9112 135.518 73.9063 135.518 73.9063C135.518 73.9063 132.831 78.1728 132.585 88.9108C132.328 99.6488 130.872 115.638 130.872 115.638C130.872 115.638 143.313 126.745 155.876 115.515C155.876 115.515 157.107 78.4189 148.317 73.6602H148.328Z" fill="#61BFBB"/>
<g style="mix-blend-mode:multiply" opacity="0.5">
<path d="M147.559 116.91C147.784 115.105 147.825 113.269 147.887 111.444C148.03 107.495 148.153 103.536 148.071 99.5877C147.989 95.5879 147.774 91.5778 147.702 87.5677C147.641 84.3884 147.271 80.3373 147.2 77.9784C147.2 77.8041 146.953 77.722 146.8 77.8143C145.897 78.3476 145.107 79.7732 144.071 79.9476C142.246 80.2655 140.164 78.4194 138.831 77.3836C138.708 77.281 138.072 76.8913 138.072 77.0759C138.072 78.4707 137.969 80.3168 138.103 81.7423C138.297 83.8141 138.277 85.8652 138.297 87.9267C138.338 92.6752 138.718 97.4032 138.79 102.141C138.851 106.993 138.554 111.844 138.092 116.664C138 117.607 137.867 118.53 137.703 119.464C133.569 118.028 130.882 115.628 130.882 115.628C130.882 115.628 132.339 99.639 132.595 88.901C132.831 78.163 135.528 73.8965 135.528 73.8965C135.528 73.8965 140.287 78.9014 143.21 79.5065C146.143 80.1116 148.338 73.6504 148.338 73.6504C157.127 78.4092 155.897 115.505 155.897 115.505C152.892 118.192 149.876 119.597 147.046 120.182C147.2 119.084 147.415 117.997 147.559 116.9V116.91Z" fill="#5FA2BB"/>
</g>
<path d="M155.887 113.557C155.887 113.557 143.569 122.951 127.826 112.326L127.088 117.823C127.088 117.823 144.913 126.972 156.502 116.849L155.887 113.557Z" fill="#4D2B15"/>
<g style="mix-blend-mode:multiply" opacity="0.4">
<path d="M127.826 112.326C143.569 122.951 155.887 113.557 155.887 113.557L156.502 116.849C144.913 126.972 127.088 117.823 127.088 117.823L127.826 112.326ZM138.072 120.644C138.431 120.972 139.159 120.921 139.59 120.962C140.544 121.023 141.498 121.116 142.451 121.136C144.01 121.177 145.569 121.085 147.087 120.736C148 120.521 148.584 120.275 148.769 119.29C148.892 118.654 148.984 117.895 148.441 117.454C148.41 117.321 148.287 117.218 148.113 117.249C146.205 117.721 144.103 117.854 142.144 117.67C140.995 117.557 139.898 117.177 138.739 117.28C137.231 117.403 137.139 119.823 138.052 120.644H138.072Z" fill="#4D2B15"/>
</g>
<path d="M175.054 68.5332C175.054 68.5332 172.613 76.4611 170.172 79.384C170.172 79.384 165.414 78.5328 160.163 76.5841C154.922 74.6355 150.891 72.7997 149.066 73.292C149.066 73.292 147.968 73.0458 148.327 74.7586C148.686 76.4611 150.399 104.778 149.907 113.926C149.414 123.074 147.589 141.627 147.22 145.289C146.85 148.95 145.517 154.929 154.655 153.709C163.814 152.499 166.614 149.073 166.747 147.853C166.87 146.632 167.352 131.618 167.239 121.126C167.106 110.634 163.085 91.2399 162.716 89.6502C162.716 89.6502 169.67 92.5732 172.716 92.8193C175.762 93.0552 180.521 96.2345 185.536 72.8099L175.044 68.5435L175.054 68.5332Z" fill="#F3F3F3"/>
<path d="M175.054 68.5332C175.054 68.5332 172.613 76.4611 170.172 79.384C170.172 79.384 165.414 78.5328 160.163 76.5841C154.922 74.6355 150.891 72.7997 149.066 73.292C149.066 73.292 147.968 73.0458 148.327 74.7586C148.686 76.4611 150.399 104.778 149.907 113.926C149.414 123.074 147.589 141.627 147.22 145.289C146.85 148.95 145.517 154.929 154.655 153.709C163.814 152.499 166.614 149.073 166.747 147.853C166.87 146.632 167.352 131.618 167.239 121.126C167.106 110.634 163.085 91.2399 162.716 89.6502C162.716 89.6502 169.67 92.5732 172.716 92.8193C175.762 93.0552 180.521 96.2345 185.536 72.8099L175.044 68.5435L175.054 68.5332Z" fill="#F3F3F3"/>
<g style="mix-blend-mode:multiply" opacity="0.5">
<path d="M175.167 68.6255C174.695 72.0818 172.716 75.1996 171.321 78.3379C170.777 79.5276 170.818 80.4609 171.331 81.6506C171.383 81.7736 171.434 81.8865 171.475 82.0095C171.26 81.5685 171.034 81.1378 170.777 80.7173C170.665 80.5327 170.316 80.5327 170.275 80.7788C170.111 81.9172 170.06 83.0556 169.978 84.1941C169.895 82.2352 169.495 80.3276 167.957 79.0661C167.875 78.9943 167.772 78.9225 167.68 78.8507C169.208 79.2097 170.183 79.384 170.183 79.384C172.624 76.4611 175.064 68.5332 175.064 68.5332L175.167 68.5742C175.167 68.5742 175.167 68.6153 175.167 68.6255Z" fill="#91959C"/>
</g>
<g style="mix-blend-mode:multiply" opacity="0.5">
<path d="M149.907 113.916C150.399 104.768 148.686 76.4611 148.327 74.7484C147.958 73.0356 149.066 73.2818 149.066 73.2818C149.445 73.1792 149.937 73.1792 150.501 73.2613C151.404 73.7741 152.358 74.2356 153.168 74.8817C157.722 78.5226 159.034 77.8252 157.599 80.5943C156.932 81.8968 155.722 83.948 155.045 85.189C154.635 85.9479 154.809 86.3992 155.342 87.0556C156.45 88.4299 159.629 91.0349 160.532 92.5527C160.952 93.2707 160.275 93.404 159.804 94.2552C157.906 97.6602 156.06 101.373 154.553 104.993C152.994 108.747 151.876 113.28 150.973 117.239C150.153 120.839 149.763 124.408 149.476 128.069C149.291 130.438 148.984 132.797 148.891 135.177C148.758 138.653 148.604 145.402 153.096 146.438C155.906 147.094 158.952 146.171 161.547 145.084C163.67 144.212 165.321 143.145 165.865 140.787C166.449 138.192 166.449 134.336 166.449 131.7C166.449 126.664 166.255 122.059 166.131 118.039C165.865 109.414 164.429 104.747 163.003 96.2551C162.316 92.1425 161.557 87.9888 160.245 84.03C159.342 81.343 158.255 78.7277 157.086 76.1432C157.783 77.0252 160.542 82.1737 161.25 83.6198C161.845 84.83 162.265 86.9222 163.444 87.4043C166.501 88.6247 168.511 89.1375 170.039 89.3529C171.957 89.6298 173.629 90.3272 175.403 89.3529C177.321 88.3068 178.09 85.9069 178.972 84.0095C180.192 81.4148 181.618 77.538 182.233 74.7074C182.685 72.6459 183.331 72.0203 181.259 71.1691C181.033 71.0768 180.367 70.7281 180.182 70.5742L185.536 72.7485C180.531 96.1834 175.772 93.004 172.716 92.7579C169.67 92.5117 162.716 89.5888 162.716 89.5888C163.075 91.1682 167.106 110.572 167.239 121.064C167.352 131.556 166.87 146.571 166.747 147.791C166.624 149.012 163.824 152.427 154.655 153.648C145.517 154.868 146.85 148.889 147.22 145.227C147.589 141.566 149.414 123.013 149.907 113.865V113.916Z" fill="#91959C"/>
</g>
<path d="M136.985 72.6863C136.985 72.6863 137.846 95.8648 137.354 111.115C136.862 126.376 134.79 144.673 134.298 147.596C133.816 150.519 132.472 151.268 128.8 151.134C125.139 151.011 117.95 149.914 115.386 148.827C112.822 147.729 110.873 147.596 113.191 140.171C115.509 132.725 118.924 123.207 119.775 120.51C120.626 117.833 120.503 117.228 120.75 112.828C120.996 108.439 121.601 96.234 121.601 96.234C121.601 96.234 105.622 121.115 104.402 122.223C104.402 122.223 97.448 118.448 93.7866 114.91C93.7866 114.91 106.955 97.3314 109.396 93.67C111.837 90.0087 119.047 78.9117 122.698 76.3477C126.36 73.794 135.518 71.0967 136.974 72.6863H136.985Z" fill="#F3F3F3"/>
<g style="mix-blend-mode:multiply" opacity="0.5">
<path d="M102.258 120.048C102.35 120.069 102.453 120.028 102.525 119.976C104.063 118.53 105.171 116.828 106.371 115.074C107.755 113.053 109.119 111.013 110.463 108.961C112.965 105.115 115.652 101.31 117.909 97.3106C119.714 94.1005 121.488 94.2851 123.488 79.4755C123.488 79.4755 123.491 79.4789 123.498 79.4857C122.134 89.9263 122.155 101.741 121.796 104.828C121.621 106.367 121.406 111.002 121.488 114.007C121.57 116.951 126.934 108.5 127.847 107.023C126.944 109.331 125.642 111.484 124.36 113.618C122.79 116.202 121.355 118.848 120.319 121.699C119.211 124.745 118.462 127.894 117.734 131.053C117.057 133.976 116.196 136.827 115.457 139.729C114.955 141.729 115.201 143.185 117.375 143.852C119.232 144.406 121.057 144.642 122.975 144.878C124.483 145.062 125.99 145.442 127.498 145.544C129.97 145.688 131.929 144.837 132.852 142.437C134.144 139.073 135.405 124.489 135.662 120.766C135.918 117.176 135.857 113.546 135.026 110.028C134.144 106.233 132.452 102.849 130.749 99.3823C129.888 97.649 127.498 93.3518 126.308 91.6595C127.426 90.4186 128.329 88.993 129.611 87.8956C129.693 87.8238 129.713 87.6597 129.652 87.5674C128.144 85.547 126.595 83.5061 124.442 82.142C127.17 78.6858 129.97 75.0244 133.518 72.3578C135.19 72.1117 136.503 72.1732 136.974 72.6963C136.974 72.6963 137.836 95.8747 137.344 111.125C136.851 126.386 134.78 144.683 134.287 147.606C133.805 150.529 132.462 151.277 128.79 151.144C125.129 151.021 117.939 149.924 115.375 148.837C112.811 147.739 110.863 147.606 113.181 140.18C115.498 132.735 118.914 123.217 119.765 120.52C120.616 117.843 120.493 117.238 120.739 112.838C120.985 108.449 121.591 96.244 121.591 96.244C121.591 96.244 105.612 121.125 104.391 122.233C104.391 122.233 97.4377 118.458 93.7764 114.92C93.7764 114.92 93.8174 114.848 93.8789 114.756C96.5352 116.746 99.0377 118.992 102.238 120.058L102.258 120.048Z" fill="#91959C"/>
</g>
<path d="M147.056 72.9831C147.056 72.9831 149.117 88.2337 149.979 111.966C149.979 111.966 151.743 107.258 152.789 103.546C153.825 99.8229 157.548 93.5975 159.076 92.0079C159.076 92.0079 155.476 88.0491 152.963 86.3363C152.963 86.3363 156.573 79.9366 157.906 78.8392C157.906 78.8392 149.189 71.0242 147.056 72.9831Z" fill="#F3F3F3"/>
<path d="M137.353 110.264C137.353 110.264 133.261 98.9721 127.169 91.475C127.169 91.475 130.4 88.2341 131.866 87.0137C131.866 87.0137 127.661 83.2292 126.01 81.5267C126.01 81.5267 131.507 74.5732 134.8 71.8861C138.092 69.1991 137.599 71.64 137.599 75.6706C137.599 79.7012 138.338 94.1005 137.364 110.264H137.353Z" fill="#F3F3F3"/>
<path d="M164.737 56.0303C164.737 56.0303 167.906 48.7178 169.383 42.2463C170.86 35.7748 171.281 32.6775 171.281 32.0519C171.281 31.4263 172.686 31.0673 172.686 31.0673C172.686 31.0673 171.978 29.2418 170.922 28.9546L173.598 28.5341C173.598 28.5341 172.614 26.3598 169.301 25.2317C169.301 25.2317 172.47 23.3343 173.947 20.5139C173.947 20.5139 171.137 22.278 169.229 21.8575C167.332 21.437 164.583 19.2525 159.814 16.9346C155.025 14.6065 148.276 9.65287 134.851 10.0323C129.928 10.1759 124.021 12.422 122.472 17.7038C122.472 17.7038 119.939 17.4166 116.842 17.9807C113.745 18.5448 111.642 28.7495 109.314 30.0827L111.15 30.1545C111.15 30.1545 109.396 31.6314 109.181 32.5442C109.181 32.5442 110.658 32.257 111.427 32.4724L110.299 33.457C110.299 33.457 112.545 34.1544 112.832 35.2825C113.119 36.4107 115.293 45.2 115.509 48.2255C115.724 51.2511 126.482 59.6097 127.323 59.8968C128.154 60.1737 164.727 56.0201 164.727 56.0201L164.737 56.0303Z" fill="#30190F"/>
<g style="mix-blend-mode:screen" opacity="0.5">
<path d="M152.174 14.156C153.733 14.956 155.159 15.9918 156.656 16.8738C158.749 18.0943 166.861 25.5299 171.199 22.4223C168.676 24.2376 165.22 24.1863 162.123 24.2992C161.918 24.2992 167.384 26.8734 170.256 27.058C168.102 27.7759 165.753 27.7452 163.497 27.5606C163.23 27.54 167.148 28.8118 169.056 28.9349C166.871 29.9092 164.584 30.5245 162.656 30.8527C157.661 31.6937 152.174 32.4014 147.088 31.9091C141.19 31.3348 131.488 29.099 127.129 24.7504C128.914 24.2787 130.852 24.3299 132.678 24.094C133.96 23.9299 137.037 23.4889 136.647 21.6839C136.073 18.9661 132.063 18.5045 126.863 20.2173C129.96 16.8226 131.539 17.7661 132.739 16.7098C134.196 15.4175 127.324 15.2124 126.34 16.4226C128.606 13.6432 127.458 12.9253 124.576 14.9252C127.099 11.9305 131.252 10.6075 135.027 10.4946C141.036 10.3203 146.852 11.3972 152.174 14.156Z" fill="#30190F"/>
</g>
<g style="mix-blend-mode:screen" opacity="0.5">
<path d="M136.4 26.8324C136.995 26.8119 139.231 26.9657 139.488 26.0734C139.662 25.4273 138.903 24.8838 138.544 24.4735C137.959 23.7966 137.836 22.9761 139.016 22.8838C139.631 22.8326 140.257 22.8633 140.852 22.689C141.723 22.4223 141.836 21.3557 141.282 20.7403C138.852 17.9815 135.149 18.043 131.785 17.7559C133.037 17.1918 134.421 16.9456 135.601 16.2482C136.062 15.9713 136.606 15.4072 135.99 14.9457C135.149 14.3099 133.98 14.2996 132.831 14.5355C133.293 14.197 133.642 13.7868 133.652 13.2535C133.683 11.5305 130.565 11.8997 129.642 12.1048C128.473 12.3715 127.232 12.7612 126.165 13.3971C128.647 11.469 131.96 10.5767 135.026 10.4946C141.036 10.3203 146.851 11.3972 152.174 14.156C152.646 14.3919 153.097 14.6586 153.538 14.9355C151.938 14.2278 150.369 13.4586 148.738 12.8433C146.667 12.0638 144.482 11.5715 142.277 11.3459C140.39 11.151 138.195 10.9869 136.339 11.5715C135.744 11.7664 135.344 12.3202 135.867 12.8125C136.616 13.5201 138.072 13.6842 139.026 13.8791C140.185 14.115 141.344 14.3509 142.493 14.6586C144.421 15.1611 145.262 16.8431 142.585 16.4021C141.098 16.1662 139.508 15.7354 138.093 16.4534C137.929 16.5354 137.949 16.7713 138.093 16.8533C142.308 19.2737 147.867 18.802 151.487 22.4018C151.733 22.6377 152.461 23.3454 151.754 23.5197C151.169 23.6736 150.554 23.6428 149.949 23.5915C149.405 23.5505 148.851 23.4582 148.308 23.3966C147.056 23.2633 145.087 22.8838 143.949 23.612C142.954 24.2376 143.58 25.3966 144.318 25.9606C145.046 26.5042 146.031 26.9042 146.626 27.5913C147.313 28.381 144.687 28.3708 144.257 28.4528C143.764 28.5349 142.328 28.258 142.605 28.7913C143.231 30.0015 149.62 30.8835 151.723 30.904C155.743 30.9348 161.958 30.4322 168.912 28.9246C168.963 28.9143 169.004 28.9349 169.045 28.9349C166.861 29.9092 164.574 30.5245 162.645 30.8527C157.651 31.6937 152.164 32.4014 147.077 31.9091C141.405 31.3553 132.226 29.2733 127.642 25.2427C130.442 26.2991 133.375 26.9555 136.38 26.8324H136.4Z" fill="#30190F"/>
</g>
<g style="mix-blend-mode:screen" opacity="0.5">
<path d="M116.893 20.1342C116.832 20.2265 116.863 20.3906 116.975 20.4419C117.652 20.7495 118.391 20.729 119.109 20.7495C119.58 20.77 120.462 20.7085 120.821 21.1187C121.088 21.4367 120.442 21.7854 120.278 21.9187C119.509 22.5136 119.457 23.1699 120.103 23.8879C120.391 24.2058 122.38 24.2673 121.909 24.8211C121.457 25.3442 121.488 26.0826 121.529 26.7493C121.632 27.9902 122.473 27.9287 123.221 27.4467C123.457 31.1183 121.314 34.1643 118.709 36.5642C118.986 36.0617 119.211 35.5489 119.416 35.0463C119.816 34.1336 120.298 32.8926 119.929 31.8978C119.386 30.3696 117.15 32.3183 115.919 33.3541C116.75 31.6619 118.001 30.0209 117.611 28.0825C117.581 27.9287 117.396 27.8672 117.283 27.9492C116.77 28.2569 114.247 30.7696 114.463 29.0363C114.586 27.9697 115.201 26.6877 114.852 25.6211C114.811 25.4673 114.658 25.416 114.524 25.4878C113.181 26.0929 112.873 27.5287 111.858 28.4723C111.447 28.8517 111.017 29.1799 110.555 29.4774C112.504 26.7595 114.411 18.9958 117.047 18.5035C117.806 18.3701 118.524 18.2778 119.191 18.2266C118.38 18.8214 117.447 19.2419 116.893 20.1342Z" fill="#30190F"/>
</g>
<path d="M164.46 49.56C164.46 49.56 166.429 47.5191 168.111 48.2985C169.793 49.0677 169.834 53.4675 167.752 55.5392C167.332 55.9597 165.711 56.3905 164.45 55.6828V49.56H164.46Z" fill="#FCC188"/>
<path d="M165.835 51.9372C166.419 51.3116 166.983 51.0449 167.835 51.0039C167.865 51.0039 167.865 51.0552 167.835 51.0552C167.086 51.1372 166.409 51.7116 165.989 52.2962C165.568 52.8705 165.445 53.5576 165.086 54.1422C164.994 54.2961 164.789 54.1833 164.778 54.0294C164.778 53.3218 165.363 52.4295 165.835 51.9269V51.9372Z" fill="#A56A3C"/>
<path d="M119.939 50.051L119.519 55.6815C119.519 55.6815 118.821 56.1738 116.565 54.7688C114.309 53.3637 113.888 50.5433 113.888 48.6459C113.888 46.7486 117.334 44.8512 119.303 49.6305L119.929 50.051H119.939Z" fill="#FCC188"/>
<path d="M115.57 49.7942C117.457 49.4865 118.216 51.7326 117.847 53.2504C117.826 53.353 117.662 53.3325 117.652 53.2299C117.529 51.7633 117.406 50.0301 115.57 49.8865C115.529 49.8865 115.509 49.8044 115.57 49.7942Z" fill="#A56A3C"/>
<path d="M165.721 31.7647C165.721 31.7647 146.871 38.0926 126.205 26.5547C126.205 26.5547 126.769 30.6366 118.329 39.0772C118.329 39.0772 118.893 47.5076 119.313 49.6203C119.313 49.6203 119.098 50.9536 118.821 51.8664C118.534 52.7792 117.129 59.6712 126.626 65.3735C136.123 71.0758 139.015 72.686 143.292 72.686C147.568 72.686 156.091 69.3836 161.086 66.1427C166.08 62.9121 166.08 59.6712 165.455 56.0201C164.819 52.3689 165.096 51.0254 165.875 46.9435C166.644 42.8617 168.48 39.2823 167.916 36.544C167.352 33.7954 165.732 31.7647 165.732 31.7647H165.721Z" fill="#FCC188"/>
<path d="M145.014 58.286C146.409 57.6707 147.825 57.004 148.522 55.5579C149.055 54.4606 147.978 53.9375 147.189 53.5375C146.645 53.2606 146.235 52.9324 145.896 52.4299C145.845 52.3478 145.937 52.276 145.999 52.3376C147.096 53.476 149.609 53.3939 149.117 55.5169C148.717 57.2604 146.625 58.245 145.045 58.4296C144.963 58.4399 144.922 58.3271 145.004 58.2963L145.014 58.286Z" fill="#A56A3C"/>
<path d="M153.055 60.8091C153.055 60.8091 153.589 61.3732 153.476 61.6808C153.373 61.9988 149.958 62.809 144.328 61.1168C138.707 59.4348 134.451 57.5682 132.195 55.9785C132.195 55.9785 134.8 59.0348 144.44 61.5065C149.486 62.7987 152.255 62.7577 153.476 62.4193C154.584 62.1116 154.419 61.5783 153.055 60.7988V60.8091Z" fill="#A56A3C"/>
<path d="M132.328 37.981C133.036 36.6272 134.667 35.1401 136.226 35.6221C138.02 36.1759 138.513 37.9297 138.974 39.5604C138.995 39.6322 138.902 39.6732 138.851 39.6424C138.82 39.6629 138.769 39.6424 138.749 39.6117C138.174 38.4835 137.19 37.663 136.01 37.2015C134.441 36.5861 133.18 37.9297 132.195 38.9245C132.092 39.0271 131.928 38.8937 131.969 38.7604C132.072 38.4732 132.195 38.2168 132.339 37.9912L132.328 37.981Z" fill="#272314"/>
<path d="M153.845 40.5437C153.794 40.0207 154.86 38.9951 155.127 38.7387C155.814 38.1131 156.614 37.7644 157.537 38.0926C158.727 38.513 158.819 40.2361 158.727 41.2616C158.727 41.2719 158.717 41.2822 158.717 41.2822C158.706 41.354 158.686 41.436 158.676 41.518C158.655 41.5796 158.573 41.5591 158.563 41.5078C158.347 40.4514 158.009 39.6412 156.86 39.3951C155.753 39.1592 154.614 39.8668 153.989 40.7488C153.907 40.6976 153.866 40.6258 153.845 40.5335V40.5437Z" fill="#272314"/>
<path d="M153.179 49.3318C152.912 51.3419 153.23 53.0342 153.917 53.1265C154.594 53.2188 155.363 51.6701 155.64 49.6702C155.917 47.66 155.579 45.9576 154.912 45.8652C154.235 45.7729 153.466 47.3216 153.189 49.3318H153.179Z" fill="#1A150C"/>
<path d="M153.814 47.3349C153.589 48.0836 153.681 48.781 154.02 48.8733C154.348 48.9759 154.799 48.4528 155.025 47.6939C155.25 46.935 155.168 46.2478 154.83 46.1453C154.491 46.0427 154.04 46.5863 153.814 47.3349Z" fill="white"/>
<path d="M134.143 47.4773C134.113 49.4978 134.646 51.149 135.333 51.1592C136.01 51.1695 136.595 49.5285 136.625 47.5184C136.656 45.4877 136.123 43.8467 135.436 43.8262C134.748 43.816 134.174 45.4569 134.143 47.4773Z" fill="#1A150C"/>
<path d="M134.533 45.4144C134.41 46.1938 134.584 46.8707 134.922 46.922C135.271 46.9835 135.651 46.3989 135.784 45.6195C135.917 44.8503 135.753 44.1734 135.404 44.1119C135.056 44.0503 134.676 44.6349 134.543 45.4041L134.533 45.4144Z" fill="white"/>
<path d="M153.302 62.4725C153.138 62.6776 152.912 63.0263 152.595 63.6006C151.907 64.8723 150.748 67.6107 149.641 68.1337C148.533 68.6568 145.692 69.5593 142.523 68.9234C139.364 68.2876 135.723 66.3902 134.298 65.3339C132.872 64.2775 132.872 63.1699 132.719 62.2263C132.595 61.4263 132.236 57.9803 132.431 56.1855C133.211 56.9137 136.329 59.4264 144.472 61.4981C149.282 62.7186 152.03 62.7494 153.323 62.4519L153.302 62.4725Z" fill="#2F1116"/>
<path d="M132.411 56.2075C133.19 56.9357 136.308 59.4484 144.451 61.5201C147.723 62.3508 150.041 62.6278 151.6 62.6278C151.189 63.8687 150.451 64.7713 149.487 65.4584C149.743 66.3302 149.795 67.2122 149.743 68.0839C149.713 68.1044 149.672 68.1352 149.641 68.1455C148.533 68.6685 145.692 69.571 142.523 68.9352C139.364 68.2993 135.723 66.4019 134.298 65.3456C132.872 64.2892 132.872 63.1816 132.719 62.238C132.595 61.4381 132.236 57.9921 132.431 56.1973L132.411 56.2075Z" fill="white"/>
<g style="mix-blend-mode:multiply">
<path d="M132.411 56.2075C133.19 56.9357 136.308 59.4484 144.451 61.5201C147.723 62.3508 150.041 62.6278 151.6 62.6278C151.189 63.8687 150.451 64.7713 149.487 65.4584C149.743 66.3302 149.795 67.2122 149.743 68.0839C149.713 68.1044 149.672 68.1352 149.641 68.1455C148.533 68.6685 145.692 69.571 142.523 68.9352C139.364 68.2993 135.723 66.4019 134.298 65.3456C132.872 64.2892 132.872 63.1816 132.719 62.238C132.595 61.4381 132.236 57.9921 132.431 56.1973L132.411 56.2075ZM135.088 64.7302C138.359 66.9968 142.544 68.9352 146.605 68.5147C147.61 68.4121 148.708 67.9916 148.584 66.8737C148.461 65.8276 148.564 65.7968 147.682 65.643C141.877 65.0482 137.088 62.9354 135.313 62.2175C134.903 62.0432 133.59 61.4073 133.293 62.0944C132.903 63.0277 134.472 64.2995 135.098 64.7302H135.088ZM133.129 60.3202C133.129 60.3817 133.139 60.4432 133.19 60.4945C134.39 61.7663 136.513 62.4431 138.123 63.038C140.082 63.7559 142.81 64.72 147.169 65.12C147.631 65.161 148.625 65.2738 149.046 64.9866C149.579 64.6277 150.523 63.3662 149.784 63.2841C148.677 63.1508 147.21 62.7303 146.144 62.4842C144.995 62.2175 143.867 61.8996 142.749 61.5304C140.39 60.7714 137.857 59.8381 135.631 58.7407C134.77 58.3202 134.236 58.0331 133.611 57.7562C132.913 57.4485 132.677 59.6433 133.139 60.3099L133.129 60.3202Z" fill="#CCCAC7"/>
</g>
<g style="mix-blend-mode:multiply">
<path d="M149.477 65.4545C149.477 65.4545 142.616 65.8237 133.703 61.1777C133.703 61.1777 142.308 66.8288 149.477 65.4545Z" fill="#94918D"/>
</g>
<path opacity="0.5" d="M171.537 194.957C171.537 194.957 170.911 193.911 165.312 191.87C159.722 189.839 157.722 189.019 157.722 189.019C157.722 189.019 156.297 188.321 154.974 190.065C154.974 190.065 168.481 193.839 169.886 194.382C171.291 194.936 171.537 194.947 171.537 194.947V194.957Z" fill="#B16E3C"/>
<path opacity="0.5" d="M101.314 195.439C101.314 195.439 110.278 189.378 113.55 188.024C114.945 187.46 115.909 188.219 116.237 188.475C116.237 188.475 103.14 194.496 101.304 195.439H101.314Z" fill="#B16E3C"/>
<g style="mix-blend-mode:screen" opacity="0.5">
<path d="M153.209 186.702C153.209 186.702 156.676 165.175 156.676 157.247C156.676 156.283 156.543 155.165 156.82 154.714C157.138 154.211 157.896 154.437 158.378 154.365C158.378 154.365 157.466 169.441 153.199 186.702H153.209Z" fill="#17293B"/>
</g>
<g style="mix-blend-mode:screen" opacity="0.5">
<path d="M118.801 186.887C118.801 186.887 122.503 163.257 124.052 155.473C124.421 153.647 124.575 152.437 124.842 151.996C125.159 151.473 125.324 151.945 125.826 151.873C125.826 151.873 122.411 169.677 118.801 186.877V186.887Z" fill="#17293B"/>
</g>
<g style="mix-blend-mode:multiply">
<path d="M141.836 107.339C142.123 105.237 143.569 97.1245 144.112 94.0374C143.959 93.8836 143.887 93.658 143.917 93.4323C144.256 91.2581 144.953 89.894 146.112 89.1351C147.353 88.3146 148.984 88.2326 151.681 88.8582L153.548 74.8383C153.599 74.4485 153.958 74.1716 154.348 74.2229C154.738 74.2742 155.014 74.6332 154.963 75.0229L153.076 89.2479C156.337 90.4376 157.117 93.0836 157.055 94.4066C157.045 94.6425 156.912 94.8476 156.727 94.9707C156.635 98.0065 156.337 107.462 156.04 109.893C155.681 112.806 154.491 112.211 152.235 112.447C152.174 113.452 152.112 113.575 151.23 113.575C150.348 113.575 149.866 113.637 149.866 112.262C149.866 110.888 149.743 110.303 150.522 110.18C151.476 110.037 152.009 110.775 152.009 110.775C152.009 110.775 154.686 110.775 154.984 108.868C155.322 105.883 155.773 97.8834 155.937 94.94C155.753 94.8066 155.63 94.581 155.64 94.3349C155.64 94.2118 155.702 91.3299 151.897 90.3658C149.333 89.7197 147.846 89.6992 146.912 90.3248C146.112 90.8478 145.62 91.9042 145.343 93.6477C145.312 93.8836 145.158 94.0682 144.964 94.1708C144.605 96.5706 143.692 102.745 143.271 106.139C143.035 108.519 143.333 109.175 144.584 109.709L145.538 110.006C145.538 110.006 145.958 109.411 146.789 109.709C147.62 110.006 147.681 110.539 147.446 111.965C147.21 113.39 146.317 113.031 145.364 112.857C144.41 112.673 144.594 112.56 144.892 111.308C142.215 110.416 141.507 109.944 141.856 107.319L141.836 107.339Z" fill="#A1A5AB"/>
</g>
<path d="M156.697 92.7773C156.697 92.7773 156.102 104.131 155.681 107.823C155.384 109.73 152.707 109.73 152.707 109.73C152.707 109.73 152.174 108.992 151.22 109.136C150.441 109.259 150.564 109.854 150.564 111.218C150.564 112.582 151.036 112.52 151.928 112.52C152.82 112.52 152.882 112.397 152.943 111.392C155.199 111.156 156.389 111.751 156.748 108.838C157.107 105.925 157.466 92.962 157.466 92.962L156.697 92.7876V92.7773Z" fill="#D6D8DB"/>
<path d="M145.815 92.1226C145.815 92.1226 144.512 100.799 143.969 105.086C143.733 107.466 144.03 108.112 145.281 108.655L146.235 108.953C146.235 108.953 146.656 108.358 147.486 108.655C148.317 108.953 148.379 109.486 148.143 110.912C147.907 112.337 147.015 111.978 146.061 111.804C145.107 111.629 145.292 111.506 145.589 110.255C142.912 109.363 142.205 108.891 142.553 106.276C142.912 103.661 145.046 91.7637 145.046 91.7637L145.815 92.1226Z" fill="#D6D8DB"/>
<path d="M153.076 88.9116C153.425 88.9116 153.732 88.645 153.784 88.286L155.691 73.9584C155.743 73.5687 155.466 73.2097 155.076 73.1585C154.686 73.1072 154.327 73.3841 154.276 73.7738L152.379 88.1014C152.327 88.4911 152.604 88.8501 152.994 88.9014C153.025 88.9014 153.056 88.9014 153.086 88.9014L153.076 88.9116Z" fill="#9B1C22"/>
<path d="M157.055 94.017C157.435 94.017 157.753 93.7195 157.763 93.3401C157.835 91.9042 156.922 88.9197 152.943 87.9147C149.917 87.1455 148.143 87.1865 146.83 88.0582C145.681 88.8172 144.984 90.1812 144.635 92.3555C144.574 92.7452 144.84 93.1144 145.23 93.176C145.62 93.2375 145.989 92.9708 146.04 92.5811C146.317 90.8376 146.81 89.771 147.61 89.2479C148.543 88.6326 150.03 88.6428 152.594 89.289C156.399 90.253 156.337 93.1452 156.337 93.2683C156.327 93.658 156.625 93.9964 157.014 94.0067C157.024 94.0067 157.035 94.0067 157.045 94.0067L157.055 94.017Z" fill="#9B1C22"/>
<g style="mix-blend-mode:multiply">
<path d="M124.954 91.6393C125.016 90.4599 125.221 86.6139 125.59 82.7679C125.98 78.6655 126.267 75.7323 126.657 74.2862C126.893 74.2555 127.867 73.8042 128.113 73.7734C128.042 73.8452 127.375 74.8503 127.344 74.9529C127.242 75.2708 127.58 75.7118 127.929 76.1118C127.262 79.404 126.667 85.7524 126.39 91.588C128.339 91.9675 129.806 94.1931 129.775 96.8699C129.744 99.8031 127.918 102.152 125.713 102.131C123.498 102.1 121.734 99.7108 121.775 96.7776C121.806 94.2443 123.16 92.1521 124.954 91.6393Z" fill="#A1A5AB"/>
</g>
<path d="M128.595 75.3421C127.908 78.7266 127.303 85.352 127.036 91.3209C127.015 91.7004 126.708 91.9978 126.328 91.9978H126.297C125.908 91.9773 125.6 91.6491 125.621 91.2491C125.621 91.2081 125.836 86.6032 126.277 81.9983C127.21 72.2243 128.215 71.9782 128.882 71.8038C129.19 71.732 129.774 71.732 130.287 72.6038C130.338 73.1166 129.108 73.9473 128.615 75.3216L128.595 75.3421Z" fill="#9B1C22"/>
<path d="M122.442 96.0072C122.411 98.9404 124.175 101.33 126.38 101.361C128.585 101.381 130.411 99.0327 130.441 96.1098C130.472 93.1766 128.708 90.7869 126.503 90.7562C124.298 90.7254 122.473 93.0843 122.442 96.0072Z" fill="#D6D8DB"/>
<path d="M124.544 96.4397C124.544 98.4293 125.58 100.04 126.862 100.04C128.144 100.04 129.18 98.4293 129.18 96.4397C129.18 94.45 128.144 92.8398 126.862 92.8398C125.58 92.8398 124.544 94.45 124.544 96.4397Z" fill="#EBECF0"/>
<g style="mix-blend-mode:multiply" opacity="0.5">
<path d="M126.103 96.4387C126.103 97.0848 126.441 97.6079 126.851 97.6079C127.261 97.6079 127.61 97.0848 127.61 96.4387C127.61 95.7926 127.272 95.2695 126.851 95.2695C126.431 95.2695 126.103 95.7926 126.103 96.4387Z" fill="#A1A5AB"/>
</g>
<path d="M25.6704 65.5422C25.9997 65.8609 24.7568 68.591 25.0543 70.312C25.3623 76.0272 24.1513 77.4082 24.1513 77.4082L24.4487 78.0244C23.0996 79.2992 21.8885 79.9897 20.4013 80.6802C20.3057 80.4571 20.1888 80.1915 20.0614 79.8409C17.788 79.5647 16.4176 79.0654 15.8546 76.9727C13.6344 75.9422 9.43821 74.6037 9.96937 72.8828C10.4899 71.1512 17.14 75.3048 17.14 75.3048C17.14 75.3048 14.9623 72.8084 13.56 71.8948C12.1577 70.9812 10.2881 69.8552 10.7767 68.8247C11.8497 66.7851 18.9459 73.0846 18.9459 73.0846C18.9459 73.0846 18.3192 71.9267 16.2901 69.8445C14.2611 67.773 12.6252 65.9565 13.3582 65.4784C15.4828 64.3949 20.5925 71.3105 20.5925 71.3105C20.5925 71.3105 19.3284 68.3467 18.2979 67.1038C17.2675 65.8609 15.5784 63.8637 16.7257 63.4175C18.3404 63.0032 20.6138 65.7971 22.7809 70.1739C22.5791 64.5861 25.3411 65.2447 25.681 65.5528L25.6704 65.5422Z" fill="#F4D9BF"/>
<path d="M53.9816 71.1728C53.9816 71.1728 57.466 66.2224 49.4455 70.5779C41.4144 74.9228 32.2254 83.5381 32.2254 83.5381L26.5632 75.2308C26.5632 75.2308 25.3415 79.5332 17.2573 81.456C17.2573 81.456 29.8033 95.7548 33.7338 95.9247C37.675 96.0947 50.2954 86.0558 50.2954 86.0558L53.9922 71.1834L53.9816 71.1728Z" fill="#F4F3F2"/>
<g style="mix-blend-mode:multiply">
<path d="M25.2456 77.5491C25.7343 77.0817 26.4779 76.5293 27.0622 77.1561C27.4234 77.5491 27.6677 78.1121 27.9864 78.5477C28.4219 79.1426 28.8469 79.7375 29.2505 80.343C29.9729 81.4372 30.7484 82.5101 31.407 83.6362C32.055 84.7516 32.6393 85.952 32.9368 87.2056C33.1917 88.2573 33.3298 89.3302 33.5317 90.4031C33.5317 88.406 33.4254 86.4195 33.0005 84.4648C32.9686 84.3267 33.1386 84.2736 33.213 84.3798C33.7548 85.1022 34.031 85.9733 34.5621 86.6957C34.5834 85.7927 34.339 84.9216 33.9885 84.093C33.9672 84.0399 33.9672 83.9655 34.031 83.9336C35.1145 83.3919 35.975 82.5526 36.8036 81.6815C37.6853 80.7679 38.5989 79.8862 39.5444 79.0257C41.5203 77.2304 43.5174 75.4457 45.6527 73.8204C47.7455 72.2269 49.9551 70.5909 52.3134 69.4118C52.664 69.2312 53.0039 69.0506 53.3439 68.8594C52.5259 69.0506 51.2936 69.5499 49.4345 70.5591C41.4034 74.904 32.2144 83.5193 32.2144 83.5193L26.5523 75.212" fill="#E1E2E1"/>
</g>
<g style="mix-blend-mode:multiply">
<path d="M52.0904 69.2913C56.5946 67.4641 53.9813 71.1716 53.9813 71.1716L50.2844 86.044C50.2844 86.044 46.8638 88.7636 43.0288 91.345C44.6648 83.5476 48.0961 76.1645 52.0797 69.2807L52.0904 69.2913Z" fill="#E1E2E1"/>
</g>
<path d="M36.9626 191.778C37.037 191.108 38.7048 190.014 40.8188 188.803C39.9902 190.205 40.7975 190.683 43.5596 190.28C49.6679 188.984 53.1523 186.859 54.8945 185.436C54.8839 185.563 54.8732 185.691 54.852 185.829C55.7125 189.653 55.1601 190.683 50.4965 192.107C39.3953 195.326 36.782 193.562 36.952 191.788L36.9626 191.778Z" fill="#0E7EC3"/>
<path d="M40.8191 188.803C44.3248 186.774 49.0521 184.427 49.6257 183.131C50.6243 176.873 48.5315 153.152 48.5315 153.152L56.6264 151.898C56.6264 151.898 56.6689 161.651 54.3318 181.548C54.2256 182.408 54.9692 184.554 54.8948 185.425C53.142 186.838 49.6682 188.973 43.5599 190.269C40.7873 190.673 39.9799 190.206 40.8191 188.793V188.803Z" fill="#F4D9BF"/>
<path d="M49.1049 160.462C48.8075 156.234 48.5312 153.164 48.5312 153.164L56.6261 151.91C56.6261 151.91 56.6367 154.704 56.2968 160.345C53.9172 160.696 51.527 160.717 49.1049 160.472V160.462Z" fill="#E3BB94"/>
<path d="M66.2615 192.85C66.5164 193.626 67.2707 194.008 69.2572 192.765C72.6672 190.62 76.4278 186.657 77.862 185.074C78.0957 185.542 78.3188 185.988 78.5631 186.434C79.9335 188.984 79.2536 189.069 75.4611 193.392C70.6276 198.364 64.8805 198.948 64.1368 198.173C63.4463 197.45 63.4357 196.409 66.2509 192.85H66.2615Z" fill="#0E7EC3"/>
<path d="M66.2621 192.849C66.4746 192.584 66.6977 192.297 66.942 192.01C70.4264 187.771 72.4342 185.498 71.818 183.352C69.3003 175.225 58.0186 152.205 58.0186 152.205C58.0186 152.205 64.1056 154.606 67.0589 153.044C68.8542 156.008 73.624 171.741 74.835 176.458C75.8336 180.346 76.7897 182.874 77.8626 185.073C76.4285 186.656 72.6573 190.618 69.2579 192.764C67.2713 194.018 66.5171 193.635 66.2621 192.849Z" fill="#F4D9BF"/>
<path d="M61.6298 159.758C59.5583 155.371 58.0073 152.205 58.0073 152.205C58.0073 152.205 64.0944 154.606 67.0476 153.044C67.5894 153.937 68.3968 155.987 69.2891 158.526C66.8033 159.238 64.2113 159.609 61.6192 159.748L61.6298 159.758Z" fill="#E3BB94"/>
<path d="M56.2333 73.3403C56.8919 69.4098 57.5081 66.0529 58.0286 63.5458C61.5661 61.5699 63.3083 61.3574 63.3083 61.3574L63.9457 63.6733L65.1249 64.0557C65.1249 64.0557 64.8274 68.0075 64.4237 73.7759C62.7347 74.5195 59.792 75.1781 56.2227 73.3403H56.2333Z" fill="#E3BB94"/>
<path d="M50.2842 112.634C52.1751 99.2595 54.3953 84.1534 56.2225 73.3496C59.7919 75.1874 62.7345 74.5288 64.4236 73.7852C63.6375 85.3113 62.4264 104.136 62.3521 113.452C62.3521 113.633 62.3521 113.824 62.3521 114.004C58.9314 114.376 54.3635 114.376 50.2842 112.645V112.634Z" fill="#029B9B"/>
<g style="mix-blend-mode:multiply" opacity="0.4">
<path d="M59.7601 109.916C59.7601 108.142 59.6433 106.358 59.707 104.584C59.8239 101.142 60.0363 97.6998 60.27 94.2686C60.7268 87.5972 61.5236 80.8515 62.9046 74.297C63.4889 74.1589 63.9988 73.9783 64.4343 73.7871C63.6482 85.3132 62.4372 104.137 62.3628 113.454C62.3628 113.635 62.3628 113.826 62.3628 114.006C61.5661 114.091 60.7162 114.155 59.8239 114.187C59.6858 112.774 59.7707 111.329 59.7707 109.927L59.7601 109.916Z" fill="#029B9B"/>
</g>
<g style="mix-blend-mode:multiply" opacity="0.4">
<path d="M58.7831 74.2844C58.4325 75.4742 58.22 76.6959 58.0076 77.9282C57.6995 79.7447 57.2427 81.5401 56.8709 83.346C56.1485 86.9366 55.6917 90.5698 55.2668 94.2135C54.8313 97.9316 54.3745 101.639 53.907 105.347C53.5671 108.077 53.2272 110.817 53.1528 113.569C52.1861 113.335 51.2194 113.038 50.2739 112.634C52.1648 99.2595 54.3851 84.1534 56.2123 73.3496C57.1046 73.8064 57.9651 74.1145 58.7725 74.2951L58.7831 74.2844Z" fill="#029B9B"/>
</g>
<path d="M49.8273 115.908C54.5652 117.587 59.2819 117.714 62.6282 117.491C64.4554 131.673 74.9617 151.899 74.9617 151.899L74.7705 154.608C74.7705 154.608 54.5971 158.826 40.7764 150.933C41.18 144.686 45.918 129.729 49.8273 115.919V115.908Z" fill="#30416F"/>
<g style="mix-blend-mode:multiply">
<path d="M48.6905 150.847C47.3308 150.422 45.9604 150.018 44.6219 149.562C43.517 149.179 42.2848 148.754 41.1162 148.223C42.3379 140.989 46.4065 128.018 49.8272 115.918C50.7089 116.237 51.5906 116.481 52.4617 116.693C52.0581 122.334 52.398 128.06 52.1006 133.691C51.7819 139.618 51.4419 145.546 51.1232 151.484C50.3052 151.336 49.4979 151.091 48.6905 150.847Z" fill="#30416F"/>
</g>
<g style="mix-blend-mode:multiply">
<path d="M59.8241 145.174C59.8241 141.53 59.6223 137.887 59.7497 134.243C59.8772 130.493 60.3553 126.764 60.5677 123.014C60.674 121.198 60.7377 119.381 60.9183 117.565C61.5132 117.554 62.0868 117.522 62.6286 117.49C64.4558 131.672 74.9621 151.899 74.9621 151.899L74.8877 152.908C70.1498 154.374 65.0082 154.491 60.1215 153.556C59.6754 150.804 59.8241 147.957 59.8241 145.174Z" fill="#30416F"/>
</g>
<path d="M49.8276 115.91C49.9764 114.826 50.1357 113.732 50.2951 112.627C54.3743 114.369 58.9423 114.369 62.363 113.987C62.3842 115.092 62.4692 116.271 62.6285 117.482C59.2822 117.715 54.5656 117.577 49.8276 115.899V115.91Z" fill="#31B997"/>
<path d="M54.5545 76.9098L53.694 68.2838V67.9226C53.694 67.9226 56.541 65.3199 58.6126 64.6719L58.8144 65.7236C58.8144 65.7236 56.5304 78.1102 54.6501 90.8792L51.3569 79.4806L54.5545 76.9098Z" fill="#F4F3F2"/>
<path d="M45.2061 103.022C45.6416 101.407 45.8541 99.7395 45.9603 98.0716C46.1409 97.1899 46.3109 96.3082 46.4596 95.4265C47.012 92.2289 47.6707 89.042 48.2762 85.855C48.5205 84.5802 48.7542 83.3054 48.9879 82.0307C49.9015 77.5052 50.6664 72.7885 52.8335 68.7623C53.1097 68.603 53.3966 68.433 53.694 68.2949L54.5545 76.9209L51.3569 79.4917L54.6501 90.8904C54.2358 93.6843 53.8534 96.4994 53.5028 99.2083C51.58 114.272 47.9044 149.53 47.9044 149.53C47.9044 149.53 42.0085 147.894 39.5015 144.474L45.1955 103.033L45.2061 103.022Z" fill="#F4F3F2"/>
<g style="mix-blend-mode:multiply" opacity="0.5">
<path d="M45.2062 103.022C45.6418 101.408 45.8542 99.7399 45.9605 98.072C46.1411 97.1903 46.311 96.3086 46.4598 95.4269C47.0122 92.2293 47.6708 89.0423 48.2763 85.8554C48.8393 82.9446 49.3386 80.0126 49.9654 77.1125C50.146 76.5601 50.3372 76.0077 50.5709 75.4766C48.9987 91.1776 46.9272 106.794 44.8132 122.42C44.2714 126.404 43.7615 130.398 43.379 134.403C43.0816 137.558 42.4336 141.276 43.5278 144.357C44.0908 145.961 45.0894 147.565 46.2048 148.925C44.2608 148.171 41.1588 146.694 39.5122 144.453L45.2062 103.012V103.022Z" fill="#E1E2E1"/>
</g>
<g style="mix-blend-mode:multiply">
<path d="M49.4447 79.8742C50.6664 78.78 51.803 77.6114 52.536 76.1879C53.2159 74.8707 53.2372 73.3409 52.9716 71.8218C53.2159 70.6426 53.4603 69.4741 53.694 68.2949L54.5544 76.9209L51.3569 79.4917L53.6727 87.5122C52.3979 84.8989 50.8788 82.3919 49.4341 79.8848L49.4447 79.8742Z" fill="#E1E2E1"/>
</g>
<path d="M68.6624 79.958L62.5328 91.5691L61.7573 92.0365L65.0824 63.832C67.3451 63.9701 68.9811 64.7138 68.9811 64.7138L68.9492 65.4786L66.6865 77.3022L68.6518 79.958H68.6624Z" fill="#F4F3F2"/>
<path d="M61.7574 92.0364L62.5329 91.569L68.6624 79.9579L66.6971 77.3021L68.9599 65.4785C84.4697 76.8028 79.105 101.799 77.9577 115.524C80.3585 122.174 81.6014 131.215 82.6319 148.764C72.3168 155.234 61.1943 151.781 61.1943 151.781L61.7467 92.0258L61.7574 92.0364Z" fill="#F4F3F2"/>
<g style="mix-blend-mode:multiply">
<path d="M71.2751 67.4219C70.5209 67.7512 69.8835 68.3036 69.4479 69.0791C68.7574 70.3008 68.5556 71.7455 68.5131 73.1265C68.4281 75.9948 68.9805 78.8418 69.5648 81.6357C70.2022 84.6739 70.9033 87.6802 71.5938 90.7078C72.3799 94.1391 73.0704 97.6341 73.0704 101.172C73.0492 107.917 71.392 114.546 69.6604 121.026C72.1462 117.723 73.3891 113.569 74.7914 109.734C74.8232 109.638 74.9932 109.606 75.0145 109.734C75.3225 111.784 75.535 113.856 75.6625 115.917C75.8856 119.528 75.9174 123.151 75.9493 126.763C75.9812 130.396 76.098 134.029 76.1086 137.652C76.1086 140.754 76.2892 143.877 76.098 146.979C76.0237 148.264 75.9174 149.56 75.928 150.846C75.928 151.132 75.928 151.43 75.9493 151.727C78.1377 151.122 80.411 150.187 82.6525 148.785C81.6221 131.225 80.3791 122.184 77.9783 115.545C79.0619 102.553 83.9167 79.4579 71.2963 67.4325L71.2751 67.4219Z" fill="#E1E2E1"/>
</g>
<g style="mix-blend-mode:multiply">
<path d="M68.0781 70.089L68.9598 65.4785C70.7127 66.7533 72.1893 68.198 73.4428 69.7915C71.6581 69.3135 69.8522 69.1966 68.0781 70.089Z" fill="#E1E2E1"/>
</g>
<g style="mix-blend-mode:multiply" opacity="0.5">
<path d="M62.533 91.5692L64.8913 87.1074C64.8701 87.1712 64.8594 87.2349 64.8488 87.3093C64.3708 89.2533 63.8821 91.2292 63.7653 93.237C63.659 95.1279 63.6696 97.0401 63.6803 98.9416C63.7121 102.777 63.8609 106.601 63.999 110.436C64.1583 114.526 64.3177 118.616 64.307 122.706C64.2964 126.689 64.1689 130.662 64.2433 134.646C64.2752 136.59 64.3495 138.534 64.4664 140.468C64.5726 142.284 64.5726 144.186 64.8913 145.981C65.2737 148.116 66.4635 149.933 68.3013 151.101C69.2468 151.707 70.256 152.185 71.3183 152.567C65.55 153.13 61.2051 151.792 61.2051 151.792L61.7575 92.0366L62.533 91.5692Z" fill="#E1E2E1"/>
</g>
<g style="mix-blend-mode:multiply">
<path d="M67.8656 76.7816C68.2161 78.0245 69.151 79.2992 70.0114 80.4253C67.8231 84.0053 65.401 87.426 62.9258 90.8148L68.6517 79.9579L66.6864 77.3021L68.9491 65.4785C69.2147 65.6697 69.459 65.8716 69.7034 66.0628C69.4378 67.7944 69.1828 69.5366 68.8535 71.2575C68.5029 73.021 67.345 74.9331 67.8549 76.7709L67.8656 76.7816Z" fill="#E1E2E1"/>
</g>
<g style="mix-blend-mode:multiply">
<path d="M48.2759 85.8533C48.6052 84.1536 48.9027 82.4646 49.2214 80.7648C49.4551 79.9256 49.6888 79.1395 49.9013 78.4278C50.2412 77.238 50.5599 76.2713 50.7724 75.5807C50.9954 74.9009 51.1229 74.5078 51.1229 74.5078C51.1229 74.5078 50.7299 76.1013 50.135 78.4915C49.9862 79.0864 49.8163 79.7344 49.6463 80.4143C49.487 81.1048 49.3064 81.8272 49.1151 82.5708C48.7858 83.8456 48.4671 85.1947 48.1484 86.5651C48.1909 86.3314 48.244 86.0977 48.2865 85.864L48.2759 85.8533Z" fill="#D2D2D2"/>
</g>
<g style="mix-blend-mode:multiply">
<path d="M63.3079 61.3574L63.9453 63.6733C63.9453 63.6733 65.4219 63.8114 66.8667 64.077C65.5813 69.4629 59.7279 71.1838 53.7046 67.9225C55.7442 66.2016 56.8278 65.4473 56.8278 65.4473C56.8278 65.4473 59.4623 65.0543 63.3185 61.3574H63.3079Z" fill="#E9E9EA"/>
</g>
<path d="M77.3306 110C78.191 110.69 81.8029 113.048 88.2087 110.031C88.2087 109.946 88.1981 109.851 88.1768 109.766C82.4191 108.109 79.0728 109.012 77.3306 110Z" fill="#767B87"/>
<path d="M73.1772 68.1348C69.0767 68.1348 69.0767 71.3111 69.0767 74.5512C69.0767 74.5512 74.3033 94.8308 75.1 98.995C75.8967 103.159 77.1184 109.82 77.1184 109.82C77.1184 109.82 77.1928 109.894 77.3202 110.001C79.0624 109.013 82.4087 108.11 88.1665 109.767C85.0645 82.8903 78.6906 68.1454 73.1666 68.1348H73.1772Z" fill="#F4F3F2"/>
<g style="mix-blend-mode:multiply">
<path d="M73.1771 68.1365C72.7522 68.1365 72.3697 68.1684 72.0298 68.2321C73.9207 68.2533 75.4292 69.7724 76.3322 71.3553C76.9483 72.4282 77.4157 73.5649 77.9044 74.7016C78.5418 76.2101 79.1261 77.7398 79.6466 79.2802C80.7089 82.4352 81.5588 85.6541 82.3236 88.8835C83.0354 91.9005 83.5772 94.9918 84.3951 97.9769C84.9263 99.8891 85.4893 101.823 85.6912 103.798C85.7762 104.606 85.8611 105.551 85.5424 106.327C85.2344 107.092 84.5864 107.293 83.8002 107.347C82.5148 107.442 81.1445 107.134 79.9122 107.591C78.7542 108.026 77.83 108.855 77.1926 109.875C77.2245 109.907 77.267 109.939 77.3201 109.981C79.0623 108.993 82.4086 108.09 88.1664 109.747C85.0644 82.8708 78.6905 68.1259 73.1665 68.1152L73.1771 68.1365Z" fill="#E1E2E1"/>
</g>
<path d="M72.9006 118.362C72.7944 117.958 75.0465 116.397 75.6201 114.91C78.0635 110.278 79.6676 109.757 79.6676 109.757L79.7207 109.141C81.3885 108.769 82.6527 108.801 84.1399 108.961C84.1187 109.184 84.0762 109.439 84.0124 109.779C85.6696 111.053 86.5089 112.105 85.9671 114.007C87.2206 115.866 89.887 118.883 88.6654 119.987C87.4437 121.103 84.1824 114.718 84.1824 114.718C84.1824 114.718 84.7136 117.703 85.3934 119.084C86.0627 120.465 86.9975 122.229 86.1371 122.803C84.3417 123.897 81.7285 115.621 81.7285 115.621C81.7285 115.621 81.6753 116.822 82.2915 119.414C82.9183 121.995 83.3432 124.194 82.5358 124.226C80.3581 124.077 79.6038 116.248 79.6038 116.248C79.6038 116.248 79.2001 119.169 79.4339 120.625C79.6569 122.091 80.0394 124.449 78.9346 124.258C77.4686 123.822 77.0012 120.561 77.3517 116.11C74.8871 120.593 73.0175 118.776 72.9112 118.373L72.9006 118.362Z" fill="#F4D9BF"/>
<g style="mix-blend-mode:multiply">
<path d="M79.6895 109.555L79.7319 109.141C81.3998 108.769 82.6639 108.801 84.1512 108.961C84.1299 109.131 84.0981 109.354 84.0556 109.598C82.6746 109.205 81.1023 109.226 79.6895 109.566V109.555Z" fill="#F4D9BF"/>
</g>
<path d="M79.1685 59.1786C79.1685 59.1786 88.1769 61.6007 92.2881 70.5241C95.9424 77.6204 94.6889 80.6267 94.1152 84.1005C93.5522 87.5849 94.9863 89.9326 97.504 88.7853C97.3872 90.9949 95.2838 91.388 93.9984 90.8675C94.657 92.2272 93.9984 95.2761 92.9892 95.9135C92.8405 94.3731 91.4701 91.7917 91.4701 91.7917C91.4701 91.7917 91.1939 98.0593 87.837 98.6542C85.0537 85.1947 76.3427 73.7854 75.3866 69.1219C74.4305 64.4689 74.643 59.7522 79.1685 59.168V59.1786Z" fill="#F79236"/>
<path opacity="0.5" d="M79.1691 59.1797C79.1691 59.1797 80.4651 59.5303 82.2817 60.4438C81.2831 61.0919 80.5713 62.4941 80.9431 65.3411L78.9247 63.2377C78.9247 63.2377 77.7456 69.1761 82.3348 72.9154C86.924 76.6548 88.6662 85.2489 88.7405 89.8062C90.2596 84.739 89.3354 80.8084 89.3354 80.8084C89.3354 80.8084 91.6725 86.5768 90.504 89.7213C91.5557 87.1717 90.9926 81.6158 90.9926 81.6158C90.9926 81.6158 91.9912 90.4436 96.3148 90.8048C95.5925 91.166 94.6895 91.1554 94.0096 90.8792C94.6683 92.239 94.0096 95.2878 93.0004 95.9252C92.8517 94.3848 91.4813 91.8034 91.4813 91.8034C91.4813 91.8034 91.2051 98.0711 87.8482 98.666C85.0649 85.2064 76.3539 73.7972 75.3978 69.1336C74.4418 64.4806 74.6542 59.764 79.1797 59.1797H79.1691Z" fill="#C17429"/>
<path d="M80.1348 57.5957C80.1348 57.5957 81.3883 60.7933 78.9025 61.6431C76.4167 62.5036 75.6943 60.0497 75.6943 60.0497C75.6943 60.0497 80.0923 57.7657 80.1348 57.5957Z" fill="#029B9B"/>
<path d="M46.0139 24.6116L49.2433 29.7107C49.2433 29.7107 49.0308 27.108 48.7121 24.1973C54.353 29.5726 64.5513 33.3757 64.5513 33.3757C64.5513 33.3757 62.3735 31.0492 59.3353 26.8318C72.03 33.9281 74.5795 40.0258 75.9287 50.3727C77.4159 45.4436 81.2934 45.4436 81.5165 49.8522C81.7395 54.2502 78.6695 56.0667 77.1503 54.8876C76.0562 57.5646 73.2304 59.9654 73.2304 59.9654C73.2304 59.9654 66.9734 66.2862 57.4444 64.9902C42.9544 62.4725 41.9452 52.3911 41.2866 49.7353C40.6279 47.0795 42.6463 40.95 42.2426 38.6129C41.839 36.2758 41.6584 33.4075 41.6584 33.4075C41.4034 27.3099 46.0245 24.6116 46.0245 24.6116H46.0139Z" fill="#F4D9BF"/>
<path d="M40.7556 19.9163L36.2407 21.2017C36.2407 21.2017 41.9029 15.0827 46.7683 16.0176C50.9538 11.5134 64.2221 9.33562 77.8941 15.9432C100.798 28.0324 94.2644 48.9706 88.5173 55.4189C82.2815 62.2496 73.2306 59.9762 73.2306 59.9762C73.2306 59.9762 76.0563 57.5648 77.1505 54.8983C78.6696 56.0775 81.7397 54.261 81.5166 49.863C81.2935 45.4544 77.4161 45.4544 75.9288 50.3835C74.5797 40.0365 72.0301 33.9389 59.3355 26.8426C62.3843 31.06 64.5514 33.3865 64.5514 33.3865C64.5514 33.3865 54.3532 29.5834 48.7123 24.208C49.031 27.1188 49.2435 29.7215 49.2435 29.7215L46.014 24.6223C46.014 24.6223 41.393 27.3206 41.6479 33.4183C33.7974 27.3419 40.7556 19.9269 40.7556 19.9269V19.9163Z" fill="#F79236"/>
<path d="M48.2122 47.834C48.2122 47.834 48.0635 47.9296 47.8191 48.1314C47.5748 48.3333 47.2136 48.6201 46.8418 49.0025C46.6506 49.1937 46.4488 49.4168 46.2469 49.6612C46.0451 49.9055 45.8432 50.1711 45.6733 50.4685C45.4821 50.766 45.3227 51.0847 45.2059 51.4459C45.089 51.807 45.0146 52.1895 45.0678 52.5932C45.0678 52.7631 45.1421 52.9756 45.2059 53.1668C45.2908 53.3474 45.3864 53.528 45.5139 53.6767C45.7689 53.9848 46.0876 54.2079 46.4169 54.346C46.7462 54.4947 47.0755 54.5691 47.3942 54.6222C47.7129 54.6647 48.0104 54.6859 48.2866 54.6753C48.5628 54.6753 48.8071 54.6434 49.0302 54.6116C49.2533 54.5797 49.4445 54.5372 49.5932 54.5053C49.7526 54.4735 49.8588 54.431 49.9438 54.4097C50.0288 54.3778 50.0713 54.3672 50.0713 54.3672C50.0713 54.3672 49.8907 54.3885 49.5826 54.4203C49.4232 54.431 49.2427 54.4522 49.0196 54.4522C48.8071 54.4522 48.5628 54.4522 48.2972 54.431C48.0316 54.4203 47.7554 54.3778 47.458 54.3035C47.1711 54.2397 46.8737 54.1335 46.5869 53.9954C46.3 53.8679 46.0451 53.6555 45.8539 53.4111C45.7476 53.2943 45.6839 53.1456 45.6202 53.0075C45.5777 52.8587 45.5245 52.7419 45.5139 52.54C45.4714 52.2213 45.5245 51.892 45.6202 51.5733C45.7264 51.2546 45.8539 50.9466 46.0132 50.6597C46.3319 50.0861 46.6931 49.5868 47.0437 49.1725C47.3836 48.7582 47.6811 48.4183 47.8935 48.1952C48.106 47.9721 48.2335 47.834 48.2335 47.834H48.2122Z" fill="#C39368"/>
<path d="M62.9469 57.4472C62.9469 57.4472 62.7982 57.4153 62.5857 57.3834C62.4901 57.3622 62.3732 57.3409 62.2564 57.3197C62.1395 57.2772 62.012 57.2772 61.8952 57.2241C61.7783 57.1922 61.6509 57.1603 61.534 57.1179C61.4809 57.0966 61.4278 57.086 61.364 57.0647C61.3109 57.0541 61.2684 57.0222 61.2153 57.0116C61.0241 56.9373 60.8647 56.916 60.8647 56.916C60.8647 56.916 60.9285 57.0541 61.0772 57.2347C61.1091 57.2772 61.1516 57.3303 61.2047 57.3622C61.2578 57.3941 61.3109 57.4365 61.3747 57.479C61.4384 57.5109 61.4915 57.564 61.5659 57.5853C61.6402 57.6065 61.7146 57.6278 61.789 57.6596C61.9377 57.7021 62.0864 57.7128 62.2351 57.7128C62.3095 57.7128 62.3732 57.6915 62.437 57.6915C62.5007 57.6915 62.5538 57.6703 62.6069 57.649C62.83 57.5853 62.9363 57.4684 62.9363 57.4684L62.9469 57.4472Z" fill="#C39368"/>
<path d="M51.4635 59.4026C51.4635 59.4026 51.3891 59.3813 51.2829 59.3389C51.166 59.307 51.0067 59.2432 50.8155 59.1795C50.7198 59.1476 50.6242 59.0945 50.518 59.052C50.4118 59.0095 50.2949 58.967 50.1887 58.9033C50.0825 58.8502 49.9656 58.7864 49.8487 58.7333C49.7319 58.6908 49.6257 58.5952 49.5088 58.5315C49.3919 58.4678 49.2857 58.3934 49.1689 58.3297C49.0626 58.2553 48.9564 58.1703 48.8608 58.0959C48.7546 58.0216 48.6589 57.9578 48.5633 57.8941C48.4677 57.8304 48.3934 57.7454 48.3084 57.6816C48.0003 57.4161 47.7666 57.2461 47.7666 57.2461C47.7666 57.2461 47.8835 57.501 48.1278 57.8516C48.1915 57.9366 48.2446 58.0428 48.3403 58.1278C48.4252 58.2128 48.5102 58.3084 48.6165 58.3934C48.7227 58.4784 48.8077 58.5846 48.9245 58.6696C49.0414 58.744 49.1689 58.8183 49.2857 58.9033C49.4132 58.967 49.53 59.052 49.6575 59.1051C49.785 59.1583 49.9231 59.2008 50.0506 59.2539C50.1781 59.307 50.3055 59.3282 50.4224 59.3495C50.5392 59.3707 50.6561 59.4026 50.7623 59.4132C51.1873 59.4557 51.4741 59.392 51.4741 59.392L51.4635 59.4026Z" fill="#C39368"/>
<path d="M60.185 45.8391C60.1107 46.8589 59.7282 47.6131 59.3139 47.5175C58.9102 47.4219 58.634 46.519 58.7084 45.4991C58.7721 44.4793 59.1652 43.7251 59.5795 43.8207C59.9938 43.9163 60.2594 44.8193 60.1956 45.8391H60.185Z" fill="#683222"/>
<path d="M59.388 44.8696C59.3455 45.1777 59.2074 45.3901 59.0905 45.3476C58.9631 45.3051 58.8993 45.0289 58.9418 44.7315C58.9843 44.4234 59.1224 44.211 59.2393 44.2535C59.3667 44.2959 59.4305 44.5721 59.3774 44.8696H59.388Z" fill="white"/>
<path d="M45.8546 45.3801C45.7802 46.3999 45.3978 47.1542 44.9835 47.0586C44.5692 46.9629 44.3036 46.06 44.3673 45.0401C44.4311 44.0203 44.8241 43.2661 45.2384 43.3617C45.6421 43.4573 45.9183 44.3603 45.844 45.3801H45.8546Z" fill="#683222"/>
<path d="M45.0574 44.4145C45.0149 44.7226 44.8768 44.9351 44.7599 44.8926C44.6324 44.8501 44.5687 44.5739 44.6218 44.2764C44.6643 43.9683 44.8024 43.7559 44.9193 43.7984C45.0361 43.8409 45.0999 44.1171 45.0574 44.4251V44.4145Z" fill="white"/>
<path d="M60.9394 43.1157C60.9394 43.1157 60.9394 42.9988 60.8969 42.7864C60.8544 42.5845 60.7907 42.2765 60.6738 41.9259C60.6101 41.7453 60.5463 41.5647 60.4507 41.3735C60.3551 41.1823 60.2595 40.9804 60.1108 40.7892C59.9833 40.5874 59.8133 40.3962 59.6115 40.2368C59.5053 40.1518 59.3884 40.0881 59.2715 40.0137C59.1441 39.9712 59.0166 39.8969 58.8785 39.8756L58.666 39.8438H58.6448C58.5917 39.8438 58.6129 39.8438 58.6023 39.8438H58.5598L58.4642 39.8544C58.358 39.8544 58.2092 39.8969 58.0605 39.9394C57.7949 40.0456 57.5825 40.1943 57.4125 40.3749C57.2425 40.5449 57.1044 40.7467 57.0088 40.9273C56.9026 41.1185 56.8176 41.2991 56.7539 41.4797C56.6264 41.8303 56.5626 42.1277 56.5308 42.3402C56.4883 42.5527 56.4883 42.6695 56.4883 42.6695C56.4883 42.6695 56.5308 42.5527 56.6158 42.3614C56.7007 42.1702 56.8282 41.894 56.9982 41.5859C57.0832 41.4372 57.1788 41.2673 57.2956 41.1079C57.4125 40.9486 57.54 40.7892 57.6993 40.6511C57.848 40.513 58.0286 40.4068 58.2092 40.3324C58.2942 40.3112 58.3686 40.2687 58.5067 40.2687H58.5917H58.6342H58.6448L58.7935 40.2899C58.8997 40.2899 58.9847 40.3537 59.0803 40.3749C59.1653 40.4386 59.2609 40.4811 59.3459 40.5449C59.5159 40.683 59.6646 40.8317 59.8027 40.9911C59.9408 41.161 60.0577 41.331 60.1639 41.501C60.2701 41.6709 60.3657 41.8409 60.4507 42.0003C60.6101 42.3189 60.7482 42.5845 60.8225 42.7864C60.9075 42.9776 60.95 43.0944 60.95 43.0944L60.9394 43.1157Z" fill="#9E3C21"/>
<path d="M45.5775 41.8753C45.5775 41.8753 45.5669 41.5141 45.3969 41.0042C45.3544 40.8767 45.3013 40.7386 45.2269 40.6005C45.1526 40.4624 45.0676 40.3137 44.972 40.1756C44.8551 40.0375 44.7383 39.8887 44.5683 39.7825C44.409 39.6656 44.1965 39.5913 43.9947 39.5594C43.8459 39.5594 43.8247 39.5488 43.6866 39.5594C43.5697 39.5807 43.4529 39.6231 43.3679 39.6656C43.1767 39.7506 43.0386 39.8994 42.9111 40.0162C42.6774 40.2924 42.5287 40.5792 42.433 40.8342C42.2312 41.3335 42.21 41.6947 42.21 41.6947C42.21 41.6947 42.3799 41.376 42.6668 40.951C42.7411 40.8448 42.8155 40.7386 42.9111 40.6217C42.9961 40.5049 43.1023 40.3986 43.2085 40.303C43.3148 40.2074 43.4422 40.1118 43.5697 40.0587C43.6335 40.0268 43.6866 40.0162 43.7397 39.995C43.7716 39.9737 43.9309 39.995 43.9522 39.995C44.0796 40.0162 44.2177 40.0481 44.3346 40.1437C44.4621 40.218 44.5683 40.3243 44.6745 40.4305C44.7701 40.5474 44.8658 40.6642 44.9507 40.7811C45.0251 40.8979 45.1101 41.0148 45.1738 41.121C45.4288 41.5672 45.5881 41.8859 45.5881 41.8859L45.5775 41.8753Z" fill="#9E3C21"/>
<path opacity="0.5" d="M48.2979 57.6787C48.2979 57.6787 52.8446 62.013 61.205 57.3494C60.8226 57.1476 60.7376 56.7227 60.7376 56.7227C60.7376 56.7227 61.375 57.5831 62.6072 57.615L61.9911 58.0187C61.9911 58.0187 61.5343 61.0144 59.176 62.0767C56.8389 63.1284 53.1951 62.1405 51.3786 59.5909C49.3602 58.826 48.2979 57.6681 48.2979 57.6681V57.6787Z" fill="#C39368"/>
<path d="M55.3728 59.7315C55.904 60.7195 57.37 62.143 61.0774 59.8378C60.8543 60.2945 60.5994 60.6664 60.3019 60.9851C59.2502 61.0807 57.6568 61.3781 57.3062 62.2598C55.0329 62.3236 52.5364 60.9851 51.5591 59.4766C52.9507 59.774 54.2255 59.8271 55.3622 59.7315H55.3728Z" fill="#F5BAC6"/>
<path d="M55.373 59.7308C59.3567 59.4015 61.7363 57.2344 61.7363 57.2344C61.6513 58.2861 61.4176 59.1359 61.0883 59.8264C57.3808 62.1317 55.9148 60.7188 55.3837 59.7202L55.373 59.7308Z" fill="white"/>
<path d="M60.3019 60.9863C59.4945 61.8468 58.4322 62.2186 57.3062 62.2611C57.6567 61.3794 59.2502 61.0926 60.3019 60.9863Z" fill="#EC6C73"/>
<path d="M66.6651 53.9845C66.4952 54.9831 64.7849 55.5036 62.8621 55.1424C60.9286 54.7706 59.5158 53.6658 59.6857 52.6566C59.8557 51.6474 61.566 51.1375 63.4994 51.4987C65.4222 51.8705 66.8457 52.9753 66.6758 53.9845H66.6651Z" fill="#F8CBC1"/>
<path opacity="0.5" d="M37.1967 20.2445C38.7264 19.469 40.9679 18.6404 43.6556 18.6191C40.203 21.4449 39.4913 27.0221 40.4261 30.3471C41.4566 22.7197 46.152 21.1687 46.152 21.1687C46.152 21.1687 46.6725 25.0568 47.6817 26.1191C47.5118 21.4024 47.9792 20.4145 47.9792 20.4145C47.9792 20.4145 54.0344 26.8308 58.5811 28.998C56.2546 25.6942 56.892 21.5936 56.892 21.5936C56.892 21.5936 76.2049 31.59 76.7255 43.9979C77.9578 40.0461 78.0215 37.8789 78.0215 37.8789C78.0215 37.8789 78.7332 42.3938 78.0215 44.8371C81.5378 44.4547 83.9811 49.0757 80.9853 54.8229C79.5087 57.3087 90.6312 59.5289 93.9137 41.4802C93.4357 47.5141 90.9074 52.7195 88.5065 55.4071C82.2708 62.2378 73.2198 59.9645 73.2198 59.9645C73.2198 59.9645 76.0456 57.553 77.1398 54.8866C78.6589 56.0658 81.729 54.2492 81.5059 49.8512C81.2828 45.4426 77.4053 45.4426 75.9181 50.3718C74.569 40.0248 72.0194 33.9271 59.3247 26.8308C62.3736 31.0482 64.5407 33.3747 64.5407 33.3747C64.5407 33.3747 54.3425 29.5716 48.7016 24.1963C49.0203 27.107 49.2327 29.7097 49.2327 29.7097L46.0033 24.6106C46.0033 24.6106 41.3822 27.3089 41.6372 33.4066C33.7867 27.3301 40.7448 19.9152 40.7448 19.9152L36.23 21.2006C36.23 21.2006 36.5805 20.8181 37.1967 20.2551V20.2445Z" fill="#C17429"/>
<path opacity="0.5" d="M77.2143 51.8263C77.0762 53.0798 77.5648 54.1634 78.2978 54.2484C79.0415 54.3334 79.7532 53.3879 79.8913 52.1344C80.0294 50.8808 79.5514 49.7973 78.8077 49.7123C78.0641 49.6273 77.3524 50.5834 77.2143 51.8263Z" fill="#C39368"/>
<g style="mix-blend-mode:multiply">
<path d="M74.2291 84.6737C74.2609 83.5583 74.3672 79.9358 74.3141 76.3026C74.2609 72.4252 74.2185 69.6525 73.9741 68.2609C73.751 68.2078 72.8799 67.7191 72.6569 67.666C72.71 67.7404 73.2624 68.739 73.2836 68.8239C73.358 69.132 73.0074 69.5144 72.6462 69.865C73.018 72.9988 73.0818 79.0009 72.8906 84.5037C71.0421 84.7056 69.4805 86.6815 69.2999 89.1992C69.1087 91.9506 70.6278 94.2983 72.6993 94.447C74.7709 94.5957 76.6087 92.4817 76.8105 89.7303C76.9805 87.3507 75.865 85.2898 74.2185 84.6737H74.2291Z" fill="#A1A5AB"/>
</g>
<path d="M72.0721 69.1014C72.4546 72.3308 72.5077 78.5879 72.3058 84.2075C72.2952 84.5687 72.5608 84.8661 72.922 84.898H72.9539C73.3257 84.9086 73.6337 84.6218 73.6444 84.25C73.6444 84.2075 73.8037 79.8733 73.7506 75.5284C73.6337 66.2862 72.7095 65.9782 72.104 65.7657C71.8172 65.6701 71.2648 65.6276 70.723 66.4137C70.638 66.8918 71.7216 67.7629 72.0828 69.0908L72.0721 69.1014Z" fill="#9B1C22"/>
<path d="M76.2365 88.9663C76.0453 91.7177 74.1968 93.8317 72.1253 93.683C70.0538 93.5343 68.5241 91.1865 68.7259 88.4458C68.9277 85.6944 70.7655 83.591 72.8371 83.7291C74.9086 83.8778 76.4383 86.2255 76.2365 88.9769V88.9663Z" fill="#D6D8DB"/>
<path d="M74.2396 89.2098C74.0909 91.0688 72.986 92.503 71.7856 92.4074C70.5852 92.3118 69.7354 90.7183 69.8841 88.8486C70.0328 86.9789 71.1376 85.5554 72.338 85.651C73.5384 85.7466 74.3883 87.3401 74.2289 89.2098H74.2396Z" fill="#EBECF0"/>
<g style="mix-blend-mode:multiply" opacity="0.5">
<path d="M72.7734 89.0833C72.7203 89.6888 72.3697 90.1456 71.9767 90.1137C71.5836 90.0818 71.3074 89.5613 71.3605 88.9664C71.4137 88.3715 71.7642 87.8935 72.1573 87.9253C72.5503 87.9572 72.8159 88.4671 72.7734 89.0833Z" fill="#A1A5AB"/>
</g>
<g style="mix-blend-mode:multiply">
<path d="M57.943 104.243C58.198 102.087 58.8566 93.6944 59.101 90.5075C59.2922 90.3906 59.4197 90.1994 59.4409 89.9657C59.664 87.7242 59.324 86.1945 58.3786 85.1534C57.3588 84.0274 55.7653 83.5175 52.9395 83.4431L54.703 69.1124C54.7561 68.7088 54.4693 68.3476 54.0656 68.3051C53.6619 68.2626 53.3007 68.5388 53.2582 68.9425L51.4735 83.4856C47.9466 83.8149 46.4913 86.237 46.2151 87.5649C46.1619 87.7986 46.2363 88.0323 46.3957 88.2023C45.7052 91.2299 43.5699 100.653 43.2406 103.128C42.8475 106.102 44.1754 105.815 46.3425 106.633C46.1407 107.643 46.1726 107.781 47.0543 108.014C47.936 108.248 48.3928 108.429 48.7434 107.069C49.0939 105.709 49.3701 105.157 48.6265 104.849C47.7236 104.456 47.0012 105.051 47.0012 105.051C47.0012 105.051 44.356 104.36 44.5472 102.405C44.9828 99.3778 46.5869 91.3467 47.1924 88.3935C47.4155 88.3085 47.5855 88.1173 47.6386 87.8729C47.6704 87.7455 48.3503 84.8772 52.3552 84.9091C55.0535 84.9303 56.5302 85.2915 57.295 86.1414C57.943 86.8637 58.1661 88.0323 57.9961 89.8382C57.9749 90.0719 58.0705 90.295 58.2299 90.4544C57.9643 92.9189 57.2844 99.261 56.8276 102.724C56.4558 105.136 55.9884 105.709 54.618 105.911L53.5982 105.964C53.5982 105.964 53.3432 105.263 52.4402 105.348C51.5373 105.433 51.346 105.943 51.2186 107.409C51.0911 108.886 52.0578 108.758 53.0458 108.832C54.0337 108.896 53.885 108.737 53.9169 107.43C56.7851 107.239 57.6137 106.952 57.943 104.264V104.243Z" fill="#A1A5AB"/>
</g>
<path d="M46.9906 86.0252C46.9906 86.0252 44.6641 97.4026 44.1223 101.153C43.9311 103.107 46.5763 103.798 46.5763 103.798C46.5763 103.798 47.288 103.203 48.2016 103.596C48.9346 103.915 48.669 104.467 48.3185 105.827C47.9679 107.186 47.5111 106.995 46.6294 106.762C45.7477 106.528 45.7158 106.4 45.9176 105.391C43.7399 104.573 42.4226 104.86 42.8157 101.886C43.2087 98.911 46.1938 86.0039 46.1938 86.0039L47.0012 86.0252H46.9906Z" fill="#D6D8DB"/>
<path d="M57.9115 88.1702C57.9115 88.1702 56.9766 97.0937 56.403 101.46C56.0312 103.871 55.5638 104.445 54.1934 104.647L53.1735 104.7C53.1735 104.7 52.9186 104.009 52.0156 104.084C51.1127 104.169 50.9214 104.679 50.7833 106.155C50.6559 107.621 51.6226 107.504 52.6105 107.568C53.5985 107.632 53.4497 107.472 53.4816 106.166C56.3499 105.975 57.1785 105.688 57.4972 103.011C57.8159 100.334 58.7613 88.0215 58.7613 88.0215L57.9008 88.1808L57.9115 88.1702Z" fill="#D6D8DB"/>
<path d="M51.5697 83.1355C51.2191 83.0399 50.9854 82.7106 51.0279 82.3388L52.8339 67.6788C52.887 67.2751 53.2482 66.9989 53.6412 67.0414C54.0343 67.0839 54.3211 67.4557 54.2786 67.8488L52.4727 82.5087C52.4196 82.9124 52.0584 83.1886 51.6653 83.1461C51.6334 83.1461 51.6016 83.1461 51.5697 83.1249V83.1355Z" fill="#9B1C22"/>
<path d="M46.311 87.1614C45.9392 87.0658 45.7055 86.6939 45.7799 86.3115C46.0773 84.8774 47.7452 82.1579 51.9413 82.1897C55.1283 82.211 56.8705 82.7103 57.954 83.9107C58.8995 84.9624 59.2394 86.4921 59.0163 88.723C58.9739 89.1267 58.6233 89.4135 58.2196 89.3816C57.8159 89.3391 57.5291 88.9885 57.5716 88.5849C57.7522 86.7896 57.5291 85.6104 56.8705 84.888C56.1056 84.0382 54.629 83.6663 51.9307 83.6557C47.9258 83.6345 47.2353 86.5027 47.2034 86.6196C47.1184 87.0126 46.7254 87.257 46.3429 87.1826C46.3429 87.1826 46.3217 87.1826 46.311 87.1826V87.1614Z" fill="#9B1C22"/>
</svg>
