<svg width="137" height="225" viewBox="0 0 137 225" fill="none" xmlns="http://www.w3.org/2000/svg">
<g style="mix-blend-mode:multiply" opacity="0.5">
<path d="M55.388 218.446C55.388 218.446 55.7474 219.32 54.4076 220.693C53.0679 222.065 50.3965 222.278 47.913 221.747C45.7399 221.273 44.3021 221.346 43.379 219.606C43.0522 218.985 42.6519 217.507 43.9998 216.412L55.388 218.446Z" fill="#272728"/>
</g>
<path d="M58.256 205.424C58.256 205.424 58.0763 207.564 57.7495 209.672C57.4227 211.78 56.6956 217.359 55.315 219.214C55.315 219.214 53.142 221.281 49.7272 220.88C46.3123 220.48 43.9596 219.688 43.5593 218.519C43.159 217.359 43.4122 216.779 44.4661 214.966C45.5199 213.152 47.5132 210.064 48.3465 208.978C49.1798 207.891 50.0131 206.257 50.2663 205.677L58.2478 205.424H58.256Z" fill="#E0E0E0"/>
<g style="mix-blend-mode:multiply" opacity="0.5">
<path d="M58.256 205.424C58.256 205.424 58.0763 207.564 57.7495 209.672C57.4227 211.78 56.6956 217.359 55.315 219.214C55.315 219.214 53.142 221.281 49.7272 220.88C46.3123 220.48 43.9596 219.688 43.5593 218.519C43.159 217.359 43.4122 216.779 44.4661 214.966C45.5199 213.152 47.5132 210.064 48.3465 208.978C49.1798 207.891 50.0131 206.257 50.2663 205.677L58.2478 205.424H58.256ZM55.4784 208.773C55.4784 208.708 54.8003 208.7 54.7432 208.683C53.9997 208.479 53.289 208.193 52.5701 207.924C51.9819 207.695 51.2793 207.368 50.6421 207.335C50.2663 207.311 49.9804 207.442 49.7435 207.646C49.6781 207.605 49.5964 207.605 49.5474 207.695C48.0688 210.35 46.0428 212.76 44.8909 215.595C44.0249 217.727 46.9169 218.536 48.4364 218.879C50.0948 219.246 52.4721 219.312 53.4769 217.662C54.1223 216.6 54.4736 214.672 54.7922 213.52C55.3232 211.633 55.2905 210.432 55.4702 208.781L55.4784 208.773Z" fill="#939393"/>
</g>
<path d="M82.233 204.147C82.233 204.147 84.1364 206.712 84.5531 207.619C84.5531 207.619 86.2931 208.281 87.1999 209.106C88.1067 209.931 91.252 211.336 92.7388 212.251C94.2256 213.158 96.6274 213.411 97.5342 215.143C98.4492 216.883 98.776 218.035 97.9509 218.206C97.1176 218.37 95.0507 219.366 89.8468 218.541C84.6348 217.716 81.5304 216.85 80.7461 216.638C79.9619 216.434 79.6678 215.772 79.3818 215.519C79.0877 215.274 78.1401 215.682 77.4784 215.682C76.8166 215.682 74.5864 214.734 74.1289 214.318C73.6714 213.901 73.2221 213.199 73.2221 213.199C73.2221 213.199 73.0097 210.715 73.3038 208.485C73.5897 206.255 73.5897 204.343 73.5897 204.343L82.233 204.139V204.147Z" fill="#E0E0E0"/>
<g style="mix-blend-mode:multiply" opacity="0.5">
<path d="M98.0571 216.229C97.9345 216.507 97.7058 216.711 97.3137 216.785C96.3333 216.965 95.2795 216.638 94.3237 216.442C90.4677 215.657 86.6199 214.881 82.8538 213.754C81.0892 213.223 79.3737 212.659 77.6989 211.883C76.7431 211.442 76.3673 210.846 76.8085 209.8C77.2088 208.852 77.7725 208.24 78.7446 207.872C80.4275 207.235 81.7673 206.361 82.7721 204.874C82.4617 204.441 82.233 204.139 82.233 204.139L73.5897 204.343C73.5897 204.343 73.5897 206.246 73.3038 208.485C73.0097 210.715 73.2221 213.199 73.2221 213.199C73.2221 213.199 73.6796 213.901 74.1289 214.318C74.5864 214.726 76.8166 215.682 77.4784 215.682C78.1401 215.682 79.0877 215.274 79.3818 215.519C79.6678 215.764 79.9619 216.425 80.7461 216.638C81.5304 216.842 84.6348 217.716 89.8468 218.541C95.0589 219.366 97.1258 218.378 97.9509 218.206C98.5881 218.076 98.5309 217.357 98.0571 216.229Z" fill="#939393"/>
</g>
<path d="M52.3817 103.977C52.3409 104.149 52.1367 104.238 49.9636 103.846C47.7905 103.454 44.1062 102.547 42.3661 101.477C40.6342 100.399 39.5966 99.3694 40.0133 99.3041C40.4299 99.2387 45.2825 100.162 47.8314 101.101C50.3802 102.049 52.3736 103.977 52.3736 103.977H52.3817Z" fill="#2D2849"/>
<path d="M61.3439 94.1289H72.3726V77.0712H61.3439V94.1289Z" fill="#FBB57A"/>
<path d="M90.533 94.228C93.4985 89.5306 94.2419 90.5681 94.2419 90.5681C94.5033 90.7397 94.4625 91.2462 93.8906 92.8229C93.3188 94.3995 90.2226 101.556 87.9678 102.765C87.9515 102.765 87.9433 102.781 87.927 102.79C87.8943 102.218 87.8126 98.5414 90.533 94.228Z" fill="#2D2849"/>
<path d="M87.9186 102.789C87.9186 102.838 87.9186 102.871 87.9186 102.871C87.9186 102.871 85.721 103.957 87.9186 102.789Z" fill="#05524A"/>
<path d="M45.3638 206.87C45.8621 206.053 46.2706 205.375 46.4013 204.402C46.532 203.414 46.4912 202.393 46.5402 201.396C46.7362 197.05 46.7689 192.704 46.8669 188.35C46.9568 184.191 46.916 179.96 47.4306 175.826C47.6512 174.037 48.0597 172.305 48.7214 170.622C49.3504 169.021 50.0612 167.436 50.3471 165.729C50.388 165.5 50.4206 165.263 50.4451 165.034C50.4451 164.993 50.4778 164.969 50.5105 164.969C50.3553 164.519 50.053 164.07 49.9958 163.588C49.9386 163.114 50.1592 162.739 50.4288 162.363C50.9026 161.726 51.2294 161.145 51.401 160.353C51.7032 158.94 51.4581 157.428 51.3683 156.007C51.2539 154.234 51.3356 152.437 51.3356 150.656C51.3356 147.176 51.2948 143.696 51.3356 140.215C51.3765 137.078 51.6134 133.958 52.6672 130.984C52.5528 131.025 52.4221 130.911 52.4957 130.788C52.9368 130.069 54.4563 130.363 55.1262 130.42C56.7274 130.551 58.3286 130.576 59.938 130.625C63.9982 130.739 68.0747 130.951 72.1349 130.935C75.8601 130.919 79.5772 130.845 83.2943 131.049C84.4707 131.115 85.6634 131.188 86.8316 131.409C87.0849 131.458 87.6322 131.556 87.9345 131.793C88.0243 131.719 88.1959 131.752 88.1959 131.907C88.1959 132.667 88.1959 133.419 88.2286 134.178C88.2613 135.085 88.539 135.796 88.8903 136.629C89.2252 137.413 89.0373 138.01 88.6861 138.565C88.7187 138.582 88.7432 138.622 88.7269 138.671C87.7221 142.495 88.5635 146.343 88.6452 150.215C88.7269 154.504 88.2776 158.776 88.106 163.057C87.7548 171.643 86.6274 180.156 86.0228 188.725C85.6634 193.823 85.7287 198.921 85.6389 204.018C85.9003 204.394 86.1454 204.795 86.3823 205.187C86.5865 205.53 86.8888 206.028 86.8479 206.437C86.8479 206.502 86.7989 206.535 86.7499 206.543C86.6274 207.294 85.6307 207.891 85.0752 208.258C83.7599 209.149 82.2322 209.884 80.6964 210.293C80.051 210.578 79.3239 210.284 78.7112 210.039C77.6247 209.606 76.5382 209.263 75.4108 208.92C74.8716 208.757 74.3324 208.577 73.7769 208.446C73.2377 208.316 72.6986 208.242 72.1839 208.038C71.4323 207.736 71.4732 207.041 71.1709 206.42C71.13 206.412 71.0892 206.388 71.081 206.339C71.0729 206.298 71.081 206.257 71.0729 206.216C71.0483 205.726 71.514 205.236 71.7754 204.876C72.2411 204.239 72.5924 203.52 72.9273 202.801C72.8946 200.93 72.8456 199.06 72.6414 197.189C72.3309 194.321 71.7754 191.478 71.4813 188.611C71.3506 187.271 71.2934 185.923 71.3343 184.575C71.3833 183.146 71.6365 181.724 71.7754 180.303C71.9143 178.881 71.9715 177.452 72.0368 176.022C72.094 174.707 72.0532 173.383 72.1594 172.076C71.9715 171.692 71.7918 171.3 71.6692 170.883C71.3915 169.936 72.1185 169.176 72.5515 168.408C72.3146 167.036 72.2166 165.622 72.1104 164.25C71.9306 161.995 71.7836 159.749 71.6202 157.494C71.4568 155.362 71.2853 153.229 71.1464 151.089C71.0729 149.962 70.983 148.859 70.8359 147.74C70.7297 146.98 70.648 146.163 70.8033 145.403C70.4356 145.689 70.068 145.975 69.7167 146.269C69.2102 147.813 69.1122 149.382 68.9161 150.983C68.7201 152.657 68.2217 154.308 67.8541 155.95C67.0535 159.536 66.3509 163.131 65.7628 166.758C65.4687 168.563 65.1255 170.344 64.5864 172.092C64.0553 173.816 63.459 175.524 63.0914 177.296C62.3561 180.785 62.8054 184.428 61.6209 187.827C61.6209 187.843 61.6045 187.851 61.5964 187.868C61.3513 189.248 61.2614 190.67 61.1797 192.067C61.0654 193.937 60.902 195.8 60.6977 197.671C60.4853 199.623 60.2811 201.576 60.2157 203.536C60.1912 204.321 60.1912 205.129 60.1667 205.93C60.1831 205.938 60.1912 205.955 60.1912 205.971C60.2811 206.731 60.7222 207.376 61.0572 208.054C61.2451 208.446 61.4575 208.945 61.3513 209.386C61.2042 210.44 59.6602 210.807 58.8269 211.093C57.2502 211.632 55.6654 212.956 53.9416 212.874C52.3486 212.801 51.0007 211.763 49.5383 211.265C48.8358 211.028 47.929 210.93 47.1856 210.611C47.1692 210.595 47.1529 210.587 47.1284 210.578C47.1284 210.578 47.1202 210.578 47.112 210.578C46.1072 210.301 45.7477 208.757 45.3965 207.932C45.2249 207.523 45.1269 207.229 45.3638 206.837V206.87Z" fill="#4D476A"/>
<g style="mix-blend-mode:multiply" opacity="0.5">
<path d="M56.026 201.075C56.1649 198.584 56.263 196.092 56.4427 193.6C56.7858 188.748 58.003 183.985 58.1991 179.124C58.1991 179.091 58.24 179.091 58.2481 179.124C58.3135 181.428 58.0276 183.715 57.6763 185.986C57.2841 188.519 56.9329 191.035 56.7531 193.592C56.5816 196.084 56.508 198.575 56.3447 201.067C56.2711 202.235 56.1649 203.404 56.0996 204.572C56.026 205.748 56.0179 206.949 55.8055 208.109C55.7891 208.207 55.6421 208.183 55.6421 208.085C55.6666 205.748 55.9035 203.387 56.0342 201.059L56.026 201.075Z" fill="#2D2849"/>
<path d="M49.0166 208.312C50.3646 208.794 51.6553 209.391 53.0686 209.677C54.678 210.004 56.0505 209.497 57.5618 208.999C57.5863 208.991 57.6108 209.031 57.5782 209.048C56.1894 209.66 54.9966 210.224 53.4363 210.012C51.8923 209.799 50.3728 209.089 48.9758 208.411C48.9186 208.386 48.9594 208.288 49.0166 208.312Z" fill="#2D2849"/>
<path d="M76.8411 206.77C76.7839 206.745 76.8003 206.664 76.8656 206.68C79.0632 207.227 83.1724 207.064 83.491 206.843C83.5073 206.827 83.5318 206.86 83.5073 206.876" fill="#2D2849"/>
<path d="M45.3648 206.868C45.8631 206.051 46.2716 205.373 46.4023 204.4C46.533 203.412 46.4921 202.391 46.5411 201.394C46.7372 197.048 46.7699 192.702 46.8679 188.348C46.9578 184.189 46.9169 179.958 47.4316 175.824C47.6522 174.035 48.0607 172.303 48.7224 170.62C49.3514 169.019 50.0622 167.434 50.3481 165.727C50.3889 165.498 50.4216 165.261 50.4461 165.032C50.4461 164.991 50.4788 164.967 50.5115 164.967C50.3563 164.517 50.054 164.068 49.9968 163.586C49.9396 163.112 50.1602 162.737 50.4298 162.361C50.9036 161.724 51.2304 161.144 51.4019 160.351C51.7042 158.938 51.4591 157.426 51.3693 156.005C51.2549 154.232 51.3366 152.435 51.3366 150.654C51.3366 147.174 51.2957 143.694 51.3366 140.214C51.3774 137.076 51.6143 133.956 52.6682 130.982C52.5538 131.023 52.4231 130.909 52.4966 130.786C52.9378 130.067 54.4573 130.361 55.1272 130.418C56.7284 130.549 58.3296 130.574 59.939 130.623C63.9991 130.737 68.0757 130.949 72.1359 130.933C75.8611 130.917 79.5782 130.843 83.2952 131.047C84.4716 131.113 85.6644 131.186 86.8326 131.407C87.0858 131.456 87.6332 131.554 87.9355 131.791C88.0253 131.717 88.1969 131.75 88.1969 131.905C88.1969 132.665 88.1969 133.417 88.2296 134.176C88.2622 135.083 88.54 135.794 88.8913 136.627C89.2262 137.411 89.0383 138.008 88.687 138.563C88.7197 138.58 88.7442 138.621 88.7279 138.67C87.7231 142.493 88.5645 146.341 88.6462 150.213C88.7279 154.502 88.2786 158.774 88.107 163.055C87.7557 171.641 86.6284 180.154 86.0238 188.723C85.6644 193.821 85.7297 198.919 85.6399 204.016C85.9013 204.392 86.1464 204.793 86.3833 205.185C86.5875 205.528 86.8898 206.026 86.8489 206.435C86.8489 206.5 86.7999 206.533 86.7509 206.541C86.6284 207.292 85.6317 207.889 85.0762 208.256C83.7609 209.147 82.2332 209.882 80.6974 210.291C80.052 210.577 79.3249 210.282 78.7122 210.037C77.6257 209.604 76.5392 209.261 75.4118 208.918C74.8726 208.755 74.3334 208.575 73.7779 208.444C73.2387 208.314 72.6995 208.24 72.1849 208.036C71.4333 207.734 71.4741 207.039 71.1719 206.418C71.131 206.41 71.0902 206.386 71.082 206.337C71.0738 206.296 71.082 206.255 71.0738 206.214C71.0493 205.724 71.515 205.234 71.7764 204.874C72.2421 204.237 72.5933 203.518 72.9283 202.799C72.8956 200.928 72.8466 199.058 72.6424 197.187C72.3319 194.319 71.7764 191.476 71.4823 188.609C71.3516 187.269 71.2944 185.921 71.3353 184.573C71.3843 183.144 71.6375 181.722 71.7764 180.301C71.9153 178.879 71.9725 177.45 72.0378 176.02C72.095 174.705 72.0542 173.381 72.1604 172.074C71.9725 171.69 71.7927 171.298 71.6702 170.881C71.3924 169.934 72.1195 169.174 72.5525 168.406C72.3156 167.034 72.2175 165.62 72.1113 164.248C71.9316 161.993 71.7846 159.747 71.6212 157.492C71.4578 155.36 71.2862 153.227 71.1474 151.087C71.0738 149.96 70.984 148.857 70.8369 147.738C70.7307 146.978 70.649 146.161 70.8042 145.401C70.4366 145.687 70.069 145.973 69.7177 146.267C69.2112 147.811 69.1132 149.38 68.9171 150.981C68.721 152.656 68.2227 154.306 67.8551 155.948C67.0545 159.534 66.3519 163.129 65.7637 166.756C65.4696 168.561 65.1265 170.342 64.5873 172.09C64.0563 173.814 63.46 175.522 63.0923 177.294C62.3571 180.783 62.8064 184.426 61.6218 187.825C61.6218 187.841 61.6055 187.849 61.5973 187.866C61.3523 189.246 61.2624 190.668 61.1807 192.065C61.0663 193.935 60.9029 195.798 60.6987 197.669C60.4863 199.621 60.2821 201.574 60.2167 203.534C60.1922 204.319 60.1922 205.128 60.1677 205.928C60.184 205.936 60.1922 205.953 60.1922 205.969C60.2821 206.729 60.7232 207.374 61.0582 208.052C61.2461 208.444 61.4585 208.943 61.3523 209.384C61.2052 210.438 59.6612 210.805 58.8279 211.091C57.2512 211.63 55.6664 212.954 53.9426 212.872C52.3496 212.799 51.0016 211.761 49.5393 211.263C48.8367 211.026 47.9299 210.928 47.1865 210.609C47.1702 210.593 47.1539 210.585 47.1293 210.576C47.1293 210.576 47.1212 210.576 47.113 210.576C46.1082 210.299 45.7487 208.755 45.3974 207.93C45.2259 207.521 45.1278 207.227 45.3648 206.835V206.868ZM45.5853 207.595C45.8304 208.338 46.2797 208.975 46.4595 209.743C47.3908 210.527 48.461 210.642 49.6128 211.018C50.9118 211.451 52.0391 212.268 53.3871 212.57C55.0455 212.937 56.7611 211.647 58.207 211.026C59.2446 210.585 60.3147 210.405 61.0663 209.547C61.001 209.269 61.001 208.992 60.9274 208.714C60.8212 208.322 60.5925 207.954 60.4128 207.595C60.2902 207.35 60.184 207.096 60.1187 206.843C60.0615 207.587 59.9553 208.33 59.7511 209.049C59.7184 209.147 59.5877 209.106 59.5958 209.008C59.8573 207.088 59.8899 205.234 59.9226 203.306C59.9553 201.345 60.1677 199.384 60.3719 197.44C60.5762 195.577 60.7232 193.723 60.8458 191.852C60.9356 190.496 61.0827 189.156 61.4094 187.849C61.4094 187.833 61.4094 187.808 61.4094 187.792C62.3326 184.41 62.161 180.905 62.7901 177.49C63.1168 175.718 63.7214 174.002 64.2606 172.278C64.8242 170.448 65.1837 168.586 65.486 166.699C66.066 163.071 66.7849 159.477 67.5773 155.891C67.9695 154.126 68.476 152.37 68.6802 150.564C68.8354 149.233 68.8518 147.762 69.44 146.52C69.2521 146.684 69.0642 146.847 68.8763 147.019C68.8272 147.059 68.7701 146.994 68.8027 146.945C69.7749 145.736 71.0003 144.87 72.2421 143.963C72.8956 143.481 73.5328 142.983 74.1128 142.411C74.6112 141.921 75.1013 141.325 75.714 140.981C75.7467 140.965 75.7794 141.006 75.7549 141.03C74.7746 142.019 73.8678 143.073 72.7567 143.922C72.1685 144.372 71.5803 144.805 71.0003 145.254C70.8859 147.117 71.3189 148.971 71.466 150.826C71.6293 152.958 71.7846 155.09 71.9561 157.222C72.2911 161.527 72.4299 165.865 73.0998 170.13C73.1162 170.212 73.0018 170.244 72.9773 170.163C72.8303 169.697 72.7159 169.215 72.626 168.725C72.2502 169.517 71.7437 170.138 72.0787 171.118C72.4054 172.058 72.9528 172.916 73.2224 173.88C73.2387 173.937 73.1407 173.986 73.1162 173.92C72.8956 173.406 72.6097 172.907 72.3483 172.409C72.528 174.925 72.3319 177.539 72.1195 180.031C71.997 181.461 71.7601 182.874 71.6947 184.304C71.6294 185.733 71.711 187.171 71.8499 188.593C72.4054 194.262 73.8024 199.891 73.206 205.634C73.1897 205.773 72.9936 205.781 72.9855 205.634C72.961 204.85 72.9528 204.065 72.9365 203.289C72.7649 203.747 72.5607 204.196 72.3074 204.629C71.9888 205.185 71.6212 205.659 71.3434 206.23C71.4741 206.443 71.5395 206.655 71.6048 206.908C71.7519 207.488 72.0542 207.717 72.6178 207.897C73.541 208.199 74.5295 208.371 75.469 208.649C76.3513 208.918 77.2662 209.139 78.1158 209.498C78.9083 209.833 79.7661 210.291 80.6484 210.119C81.212 209.792 81.8738 209.596 82.462 209.335C83.0992 209.049 83.7119 208.714 84.3082 208.346C85.0925 207.864 86.1464 207.26 86.5712 206.386C86.3424 206.026 86.2117 205.569 86.0156 205.185C85.8849 204.923 85.7461 204.67 85.6235 204.4C85.6153 204.98 85.599 205.56 85.5827 206.132C85.5827 206.279 85.3621 206.279 85.3621 206.132C85.117 197.563 85.5582 189.009 86.4078 180.48C86.8326 176.216 87.2819 171.952 87.5597 167.671C87.6985 165.522 87.7476 163.374 87.8619 161.225C87.9763 159.085 88.1315 156.953 88.2377 154.812C88.3766 151.953 88.3112 149.126 88.0825 146.275C87.8864 143.857 87.6822 141.259 88.4338 138.906C88.2132 139.217 87.96 139.527 87.7394 139.87C87.7149 139.911 87.6577 139.87 87.674 139.838C87.9109 139.307 88.2786 138.857 88.5482 138.343C88.9811 137.501 88.6707 136.929 88.3358 136.121C87.7966 134.822 87.8701 133.441 87.8783 132.052C87.6577 131.84 87.0123 131.775 86.8162 131.742C85.983 131.578 85.1252 131.505 84.2837 131.448C82.0698 131.284 79.8478 131.26 77.6339 131.252C75.9264 131.252 74.2272 131.26 72.5198 131.284C69.0233 131.325 65.5105 131.162 62.014 131.056C60.086 130.998 58.1335 131.015 56.2055 130.884C55.5928 130.843 54.9883 130.77 54.3756 130.745C53.9753 130.729 53.2237 130.631 52.8234 130.868C51.8431 134.013 51.6879 137.387 51.6552 140.655C51.6225 144.151 51.6552 147.656 51.6552 151.152C51.6552 152.827 51.598 154.51 51.7042 156.185C51.7941 157.598 51.9738 159.011 51.7205 160.416C51.6143 160.988 51.3856 161.527 51.0752 162.018C50.7157 162.589 50.1438 163.006 50.3644 163.75C50.536 164.354 50.8056 164.893 50.9036 165.522C51.0016 166.16 50.9363 166.829 50.8219 167.467C50.8137 167.532 50.7075 167.507 50.7239 167.442C50.8382 166.682 50.7974 165.947 50.5932 165.22C50.6422 166.764 49.9478 168.324 49.3923 169.721C48.7142 171.421 48.1587 173.079 47.8646 174.893C47.5296 176.943 47.448 179.026 47.3989 181.101C47.3499 183.25 47.2764 185.398 47.2355 187.555C47.162 191.901 47.1293 196.256 46.9578 200.602C46.8924 202.325 47.0967 204.335 46.3369 205.936C46.0918 206.451 45.3893 206.99 45.5853 207.595Z" fill="#2D2849"/>
<path d="M81.7839 194.467C81.9227 191.02 82.0208 187.572 82.2005 184.133C82.5436 177.426 83.7609 170.842 83.9569 164.126C83.9569 164.085 83.9978 164.085 84.0059 164.126C84.0713 167.312 83.7854 170.474 83.4341 173.611C83.0419 177.108 82.6907 180.596 82.5109 184.133C82.3394 187.572 82.2659 191.028 82.1025 194.467C82.0289 196.085 81.9227 197.694 81.8574 199.312C81.7839 200.938 81.7757 202.604 81.5633 204.205C81.5469 204.336 81.3999 204.303 81.3999 204.173C81.4244 200.946 81.6613 197.686 81.792 194.459L81.7839 194.467Z" fill="#2D2849"/>
</g>
<path d="M45.3562 100.666C46.3773 100.977 47.4067 101.279 48.4524 101.483C48.869 101.606 49.2775 101.695 49.7023 101.736C49.5879 102.39 49.4654 103.052 49.351 103.713C47.2188 103.199 45.1111 102.57 42.9707 102.088C43.1586 101.312 43.3383 100.642 43.4854 100.127C44.0899 100.348 44.719 100.511 45.3562 100.658V100.666Z" fill="#E7BB93"/>
<path d="M39.9888 99.238C40.0459 99.189 41.6471 96.1581 42.3987 94.704C43.232 93.0864 43.9754 91.4199 44.7025 89.7451C45.4214 88.0949 46.1321 86.4365 46.8919 84.7945C47.2677 83.9776 48.5503 80.816 48.5748 80.767C49.3182 79.3047 51.4259 78.6021 52.831 78.0302C53.8767 77.6054 54.9469 77.2541 56.0171 76.9029C56.9893 76.5843 57.9614 76.1921 58.9499 75.9307C59.2113 75.3262 59.7015 74.7216 60.2979 74.934C60.3224 74.9259 60.3469 74.9095 60.3714 74.9014C61.5151 75.7591 62.3402 77.0254 63.2225 78.1283C64.3172 79.5089 65.3384 80.9467 66.3187 82.409C67.3072 83.8795 68.263 85.3664 69.0963 86.9185C69.5701 87.809 70.1665 88.6178 70.5423 89.5327C70.5423 89.1406 70.6812 88.7403 70.771 88.3563C70.9344 87.6374 71.0325 86.894 71.1387 86.1588C71.3756 84.5167 71.4736 82.8583 71.4899 81.2C71.4899 80.4565 71.5226 79.7213 71.4899 78.9779C71.4736 78.5776 71.4899 77.9894 71.3756 77.4747C71.2939 77.4584 71.204 77.442 71.1468 77.4094C70.9426 77.3113 70.8364 77.295 70.6812 77.0989L70.7629 75.7428C70.9916 75.6693 71.2285 75.6775 71.4818 75.8163C71.8249 76.0042 72.0781 76.2902 72.2824 76.6006C73.1647 76.4862 74.0878 76.6659 74.9701 76.6986C75.9586 76.7313 76.9471 76.8048 77.9274 76.9437C78.826 77.0663 79.7819 77.246 80.5498 77.7606C80.9828 78.0466 81.3259 78.4224 81.7017 78.7655C81.9468 78.9452 82.1918 79.1331 82.4288 79.3373C82.4614 79.3537 82.4941 79.3782 82.5268 79.4027C82.5431 79.4109 82.5431 79.4272 82.5431 79.4435C83.164 79.9746 83.7522 80.5464 84.3322 81.0774C85.5004 82.1476 86.6278 83.2586 87.747 84.3779C89.8629 86.5019 91.9379 88.6259 94.209 90.5784C94.2417 90.5784 94.2744 90.5948 94.3152 90.6029C94.3642 90.6193 94.3724 90.701 94.3152 90.7173C93.4574 90.9297 92.8366 91.8528 92.2647 92.4819C91.3824 93.4459 90.6635 94.5242 90.1161 95.7006C89.6096 96.7953 89.242 97.9554 88.8989 99.1073C88.7192 99.72 88.5558 100.333 88.4333 100.954C88.3107 101.574 88.2617 102.244 88.033 102.841C88.0084 102.898 87.9349 102.914 87.8941 102.873C87.6163 102.963 87.1833 102.481 87.0363 102.334C86.3827 101.681 85.7047 101.027 85.092 100.333C85.3779 102.498 85.5903 104.679 85.7537 106.844C85.9579 109.597 86.0641 112.358 86.0641 115.111C86.0723 115.111 86.0805 115.127 86.0886 115.152C86.3092 116.769 86.3582 118.403 86.6033 120.021C86.8484 121.663 87.1997 123.289 87.5591 124.906C87.9104 126.499 88.2862 128.092 88.6293 129.685C88.9316 131.123 89.4871 132.651 89.4871 134.138C89.5443 134.162 89.5606 134.252 89.5034 134.285C89.5034 134.285 89.4953 134.285 89.4871 134.293C89.4708 134.358 89.3972 134.383 89.3401 134.366C87.0199 135.592 84.3159 136.18 81.7507 136.629C78.8832 137.136 75.9668 137.389 73.0666 137.61C69.9786 137.847 66.8742 137.969 63.7699 137.945C60.9351 137.92 57.8144 137.953 55.1185 136.964C55.0286 137.062 54.808 137.021 54.7917 136.842C54.6773 135.51 54.6855 134.17 54.5548 132.831C54.4894 132.177 54.4649 131.515 54.4241 130.862C54.4159 130.698 54.3914 130.527 54.3669 130.363C54.2934 131.213 54.1463 132.054 54.0238 132.896C53.9257 133.541 53.8359 134.178 53.7705 134.832C53.7133 135.347 53.7297 135.878 53.5745 136.376C53.55 136.458 53.4683 136.474 53.4111 136.441C52.9372 136.499 52.4798 136.27 52.0386 136.098C51.3279 135.812 50.5518 135.739 49.841 135.477C49.8165 135.469 49.8002 135.453 49.7839 135.437C49.7185 135.477 49.6123 135.445 49.6286 135.355C49.8819 133.141 50.2904 130.911 50.707 128.721C50.9112 127.651 51.1563 126.573 51.5158 125.543C51.8589 124.563 52.251 123.607 52.3572 122.57C52.0876 122.014 51.8344 121.426 51.8589 120.822C51.8916 120.103 52.5206 119.318 53.0435 118.82C52.8719 117.652 52.7412 116.475 52.6513 115.291C52.5043 113.183 52.5043 111.059 52.5043 108.943C52.5043 107.179 52.4553 105.414 52.4879 103.658C52.4553 103.78 52.4307 103.911 52.3981 104.033C52.3817 104.115 52.2919 104.123 52.2429 104.074C52.2183 104.074 52.202 104.058 52.1857 104.033C51.7609 103.364 50.8132 103.061 50.1106 102.808C49.3591 102.538 48.5911 102.334 47.8395 102.056C45.2498 101.117 42.6193 100.341 40.0214 99.434C39.9397 99.4014 39.8907 99.287 39.9643 99.2216L39.9888 99.238Z" fill="#4D476A"/>
<path d="M88.466 100.952C88.3434 101.573 88.2944 102.243 88.0657 102.84C88.0412 102.897 87.9676 102.913 87.9268 102.872C87.649 102.962 87.2161 102.48 87.069 102.333C86.4154 101.679 85.7374 101.026 85.1247 100.332C85.4106 102.496 85.623 104.678 85.7864 106.843C85.9335 108.779 86.0233 110.723 86.0642 112.667C85.9498 112.994 85.8599 113.329 85.7782 113.672C85.7782 112.635 85.7456 111.597 85.6965 110.56C85.8109 110.592 85.9416 110.535 85.9335 110.388C85.7292 106.679 85.2799 102.987 84.7816 99.3103C84.5447 97.5376 84.3976 95.7076 83.9401 93.9676C83.5725 92.5706 83.0905 91.2145 82.7065 89.8175C82.8046 89.36 82.8944 88.9025 82.968 88.445C83.1722 87.2115 83.1477 86.0106 83.1477 84.7852C83.4745 86.754 83.1395 88.8045 83.7195 90.7488C84.2751 92.6114 84.3731 94.5231 85.574 96.1243C86.1785 96.933 86.8321 97.848 87.5918 98.5097C87.9023 98.7793 88.3679 98.665 88.6375 98.4035C89.0297 98.0277 89.3074 97.5703 89.5688 97.1046C89.3319 97.7663 89.1195 98.4362 88.9235 99.1061C88.7437 99.7188 88.5803 100.332 88.4578 100.952H88.466Z" fill="#3F3A59"/>
<path opacity="0.4" d="M57.226 81.1738C57.1198 82.244 56.9809 83.3142 56.8257 84.3762C56.8665 83.2897 56.9319 82.2032 57.226 81.1738Z" fill="#05524A"/>
<path d="M52.9781 93.6903C53.5582 91.5907 54.4241 89.4422 54.5712 87.2528C54.6529 86.0846 54.6202 84.9163 54.465 83.7563C54.3751 83.0946 54.2852 82.4328 54.2444 81.7793C54.6202 83.1027 55.0532 84.4017 55.625 85.6516C55.6904 85.7986 55.9355 85.7578 55.9681 85.6107C56.1642 84.6549 56.2949 83.6583 56.5645 82.7106C56.4665 83.6256 56.4583 84.5569 56.4093 85.4719C56.2867 87.9717 55.4044 90.3 54.7917 92.7099C54.1218 95.3405 53.55 97.9874 52.9618 100.634C52.7085 101.77 52.4471 102.922 52.2592 104.074C52.2429 104.074 52.2266 104.057 52.2102 104.033C51.7854 103.363 50.8378 103.061 50.1352 102.807C49.8329 102.701 49.5225 102.603 49.2202 102.505C50.6335 99.6294 52.1122 96.8028 52.9781 93.6821V93.6903Z" fill="#3F3A59"/>
<g style="mix-blend-mode:multiply" opacity="0.5">
<path d="M39.9889 99.236C40.0461 99.187 41.6473 96.1562 42.3989 94.702C43.2322 93.0845 43.9756 91.4179 44.7027 89.7432C45.4216 88.093 46.1323 86.4346 46.8921 84.7925C47.2679 83.9756 48.5505 80.814 48.575 80.765C49.3184 79.3027 51.4261 78.6001 52.8312 78.0283C53.8769 77.6035 54.9471 77.2522 56.0173 76.9009C56.9894 76.5823 57.9616 76.1902 58.9501 75.9288C59.2115 75.3242 59.7017 74.7197 60.298 74.9321C60.3225 74.9239 60.3471 74.9076 60.3716 74.8994C61.5153 75.7572 62.3404 77.0234 63.2227 78.1263C64.3174 79.5069 65.3386 80.9448 66.3189 82.4071C67.3074 83.8776 68.2632 85.3644 69.0965 86.9166C69.5703 87.807 70.1667 88.6158 70.5425 89.5308C70.5425 89.1387 70.6813 88.7384 70.7712 88.3544C70.9346 87.6355 71.0326 86.8921 71.1388 86.1568C71.3757 84.5148 71.4738 82.8564 71.4901 81.198C71.4901 80.4546 71.5228 79.7193 71.4901 78.9759C71.4656 78.3877 71.5146 77.3666 71.1225 76.7947C71.1143 76.8029 71.098 76.8192 71.0816 76.8274C70.9999 76.8519 70.8447 77.1378 70.8529 77.0643C70.8611 77.0071 70.8774 76.9581 70.9019 76.9009C70.9182 76.8682 70.9591 76.8029 70.9591 76.7539C70.9591 76.7048 70.9591 76.6803 70.9999 76.6477C70.9509 76.5986 70.8937 76.5496 70.8366 76.5169C70.7794 76.4843 70.8202 76.3862 70.8856 76.4107C71.4656 76.566 71.6372 77.4238 71.7352 77.9139C71.9149 78.8044 71.8986 79.7275 71.8904 80.6343C71.8741 82.162 71.8169 83.6815 71.6453 85.201C71.5636 85.9689 71.4574 86.7369 71.3186 87.4966C71.1715 88.3054 70.9918 89.204 70.7222 89.9719C70.8039 90.2334 70.8692 90.5029 70.9019 90.7889C70.9101 90.8706 70.7712 90.8869 70.7549 90.8052C70.4444 89.2939 69.4723 88.142 68.7452 86.8267C67.9609 85.4216 67.0541 84.0981 66.1637 82.7665C65.2324 81.3859 64.2602 80.0298 63.2554 78.7063C62.3159 77.4728 61.3927 76.0186 60.1428 75.0791C59.8569 75.1772 59.6363 75.4304 59.4484 75.6428C59.3831 75.7163 59.3259 75.7899 59.2687 75.8716C59.285 75.8961 59.285 75.9288 59.2524 75.9451C59.236 75.9533 59.2115 75.9614 59.1952 75.9696C59.0563 76.182 58.9256 76.4026 58.8357 76.6313C58.8194 76.6722 58.7377 76.6722 58.7459 76.615C58.7622 76.4761 58.8112 76.3045 58.8684 76.1248C57.2754 76.8846 55.4618 77.2849 53.8034 77.8894C52.0633 78.5184 50.1435 79.2455 48.9181 80.6833C48.5831 81.3451 48.3462 82.0313 48.1175 82.7339C47.8642 83.4854 47.5129 84.2043 47.1698 84.9232C46.4264 86.4754 45.732 88.044 45.0458 89.6206C44.3514 91.2137 43.6407 92.8067 42.8727 94.3671C42.4724 95.184 42.0394 95.9928 41.631 96.8097C41.2307 97.6185 40.9202 98.5089 40.4137 99.2605C43.0606 100.037 45.683 100.952 48.2809 101.891C49.0733 102.177 49.8902 102.398 50.6745 102.708C51.2137 102.929 51.8591 103.198 52.2348 103.688C52.2185 102.659 52.6188 101.589 52.8557 100.617C53.1498 99.3912 53.4358 98.1658 53.6972 96.9323C54.2282 94.4814 54.6775 92.0143 55.0778 89.5308C55.0778 89.4981 55.1432 89.5063 55.1432 89.539C54.9389 91.9734 54.5386 94.3752 54.0485 96.7689C53.7952 98.0024 53.5093 99.2279 53.2152 100.453C53.0191 101.278 52.8557 102.103 52.6842 102.929C52.9701 106.866 52.7495 110.828 52.9783 114.766C53.1008 116.841 53.3867 118.9 53.7789 120.942C54.1628 122.96 54.751 124.904 55.2739 126.881C55.2984 126.979 55.1677 127.004 55.1268 126.922C54.3671 125.133 53.9177 123.164 53.5174 121.269C53.3622 120.534 53.2315 119.79 53.1171 119.047C52.7332 119.668 52.2185 120.182 52.1858 120.975C52.1532 121.784 52.823 122.502 52.9129 123.303C52.9211 123.377 52.7985 123.417 52.7659 123.344C52.7087 123.205 52.6433 123.074 52.578 122.935C52.5453 123.712 52.2594 124.463 51.9898 125.198C51.6221 126.211 51.3526 127.241 51.132 128.303C50.8951 129.455 50.7153 130.615 50.5274 131.775C50.3395 132.91 50.266 134.127 49.9066 135.23C51.0748 135.157 52.243 135.884 53.3704 136.154C53.3377 135.124 53.542 134.062 53.7053 133.049C53.8932 131.897 54.0975 130.745 54.3344 129.602C54.3344 129.438 54.3589 129.275 54.3997 129.111C54.4161 129.062 54.4978 129.071 54.4978 129.128C54.4651 129.716 54.6121 130.272 54.6775 130.852C54.7429 131.513 54.8164 132.167 54.8981 132.82C55.0615 134.103 55.0941 135.386 55.184 136.676C58.0188 137.428 60.8781 137.583 63.8109 137.616C66.8254 137.648 69.8399 137.518 72.8462 137.297C75.73 137.085 78.622 136.84 81.4813 136.382C84.1853 135.941 86.726 135.173 89.2749 134.201C88.8664 132.682 88.5723 131.088 88.2619 129.544C87.9351 127.943 87.5675 126.35 87.2162 124.749C86.8567 123.123 86.5381 121.498 86.293 119.856C86.2195 119.357 86.146 118.851 86.0806 118.336C85.9826 121.833 85.6803 125.476 84.6837 128.834C84.651 128.956 84.4794 128.899 84.4958 128.785C85.1657 125.231 85.664 121.718 85.7702 118.107C85.8764 114.431 85.7865 110.755 85.5251 107.087C85.0023 99.767 83.6952 92.4554 81.8734 85.3562C81.8734 85.3399 81.8897 85.3399 81.8979 85.3562C82.2982 86.5898 82.6577 87.8397 82.9926 89.0978C82.9926 88.5995 83.0253 88.093 83.0416 87.6028C83.0743 86.5898 83.0988 85.585 83.0743 84.572C83.0743 84.5475 83.107 84.5475 83.1151 84.572C83.2785 85.4951 83.3276 86.4183 83.3357 87.3577C83.3439 88.2237 83.3766 89.155 83.2214 90.0128C84.0546 93.3296 84.6755 96.7117 85.1248 100.11C85.7294 100.551 86.2849 101.099 86.7995 101.638C86.9466 101.793 87.641 102.692 87.9433 102.684C88.0331 101.393 88.4253 100.053 88.7929 98.8194C89.1687 97.5695 89.5771 96.3277 90.149 95.1513C90.729 93.9586 91.546 92.8966 92.4528 91.9326C92.804 91.565 93.4494 90.6418 94.0785 90.5601C91.8482 88.8936 89.9448 86.8594 87.9841 84.8906C86.8649 83.7714 85.7294 82.6603 84.5775 81.5738C83.638 80.6915 82.5923 79.8909 81.6692 78.9841C81.3832 78.7799 81.1218 78.543 80.8522 78.3224C80.0598 77.6688 79.104 77.4401 78.1155 77.2522C76.2365 76.9009 74.2922 77.0561 72.4214 76.7457C72.5276 76.9173 72.6256 77.097 72.7237 77.2767C72.7482 77.3175 72.691 77.3584 72.6583 77.3257C72.3397 77.0071 72.0701 76.6395 71.7515 76.3209C71.4329 75.9941 71.098 75.9451 70.763 76.0186C70.7794 75.9288 70.7875 75.8307 70.8039 75.7409C71.0326 75.6755 71.2695 75.6755 71.5228 75.8144C71.8659 76.0023 72.1191 76.2882 72.3234 76.5986C73.2057 76.4843 74.1288 76.664 75.0111 76.6967C75.9996 76.7293 76.9881 76.8029 77.9684 76.9418C78.8671 77.0643 79.8229 77.244 80.5908 77.7587C81.0238 78.0446 81.3669 78.4204 81.7427 78.7635C81.9878 78.9433 82.2329 79.1312 82.4698 79.3354C82.5024 79.3517 82.5351 79.3762 82.5678 79.4007C82.5841 79.4089 82.5841 79.4252 82.5841 79.4416C83.205 79.9726 83.7932 80.5445 84.3732 81.0755C85.5415 82.1457 86.6688 83.2567 87.788 84.3759C89.9039 86.4999 91.9789 88.624 94.25 90.5765C94.2827 90.5765 94.3154 90.5928 94.3562 90.601C94.4052 90.6173 94.4134 90.699 94.3562 90.7153C93.4984 90.9278 92.8776 91.8509 92.3057 92.4799C91.4234 93.4439 90.7045 94.5223 90.1572 95.6987C89.6507 96.7934 89.283 97.9534 88.9399 99.1053C88.7602 99.718 88.5968 100.331 88.4743 100.952C88.3517 101.572 88.3027 102.242 88.074 102.839C88.0495 102.896 87.9759 102.912 87.9351 102.871C87.6573 102.961 87.2243 102.479 87.0773 102.332C86.4237 101.679 85.7457 101.025 85.133 100.331C85.4189 102.496 85.6313 104.677 85.7947 106.842C85.9989 109.595 86.1051 112.356 86.1051 115.109C86.1133 115.109 86.1215 115.125 86.1297 115.15C86.3502 116.768 86.3992 118.401 86.6443 120.019C86.8894 121.661 87.2407 123.287 87.6001 124.904C87.9514 126.497 88.3272 128.09 88.6703 129.683C88.9726 131.121 89.5281 132.649 89.5281 134.136C89.5853 134.16 89.6016 134.25 89.5445 134.283C89.5445 134.283 89.5363 134.283 89.5281 134.291C89.5118 134.356 89.4383 134.381 89.3811 134.364C87.061 135.59 84.3569 136.178 81.7917 136.627C78.9243 137.134 76.0078 137.387 73.1076 137.608C70.0196 137.845 66.9152 137.967 63.8109 137.943C60.9761 137.918 57.8554 137.951 55.1595 136.962C55.0696 137.06 54.8491 137.019 54.8327 136.84C54.7183 135.508 54.7265 134.168 54.5958 132.829C54.5304 132.175 54.5059 131.513 54.4651 130.86C54.4569 130.696 54.4324 130.525 54.4079 130.361C54.3344 131.211 54.1873 132.052 54.0648 132.894C53.9668 133.539 53.8769 134.177 53.8115 134.83C53.7544 135.345 53.7707 135.876 53.6155 136.374C53.591 136.456 53.5093 136.472 53.4521 136.439C52.9783 136.497 52.5208 136.268 52.0796 136.096C51.3689 135.81 50.5928 135.737 49.8821 135.475C49.8576 135.467 49.8412 135.451 49.8249 135.435C49.7595 135.475 49.6533 135.443 49.6697 135.353C49.9229 133.139 50.3314 130.909 50.748 128.719C50.9523 127.649 51.1973 126.571 51.5568 125.541C51.8999 124.561 52.292 123.605 52.3982 122.568C52.1286 122.012 51.8754 121.424 51.8999 120.82C51.9326 120.101 52.5616 119.316 53.0845 118.818C52.9129 117.65 52.7822 116.473 52.6923 115.289C52.5453 113.181 52.5453 111.057 52.5453 108.941C52.5453 107.177 52.4963 105.412 52.5289 103.656C52.4963 103.778 52.4718 103.909 52.4391 104.031C52.4227 104.113 52.3329 104.121 52.2839 104.072C52.2594 104.072 52.243 104.056 52.2267 104.031C51.8019 103.362 50.8542 103.059 50.1517 102.806C49.4001 102.536 48.6321 102.332 47.8806 102.054C45.2909 101.115 42.6603 100.339 40.0625 99.4321C39.9808 99.3994 39.9317 99.285 40.0053 99.2197L39.9889 99.236Z" fill="#2D2849"/>
<path d="M56.867 81.9312C56.8752 81.8903 56.9406 81.8985 56.9406 81.9393C56.9406 84.1369 56.4912 86.3916 56.0583 88.532C56.0501 88.581 55.9766 88.5647 55.9766 88.5238C56.0664 86.3263 56.4667 84.0879 56.867 81.9312Z" fill="#04776E"/>
<path d="M54.1134 80.8882C54.3912 83.2819 55.4042 85.5693 55.4042 88.0038C55.4042 88.061 55.3225 88.0691 55.3062 88.0201C55.0202 86.8927 54.865 85.7327 54.5954 84.5971C54.3013 83.3717 54.0481 82.1627 54.0317 80.8964C54.0317 80.8392 54.1134 80.8392 54.1216 80.8964L54.1134 80.8882Z" fill="#04776E"/>
</g>
<path d="M75.4766 77.3519C76.3262 77.3846 77.1677 77.4581 78.0091 77.5888C78.7934 77.7114 79.5041 77.7196 80.2067 78.1117C81.5301 78.8469 82.6738 80.1132 83.7685 81.1344C86.5298 83.7322 89.1848 86.4445 91.7909 89.1975C91.8236 89.2302 91.7745 89.2711 91.7419 89.2466C89.1195 86.8693 86.5298 84.4511 83.9809 82.0003C82.8617 80.922 81.7099 79.8027 80.4681 78.8633C79.0303 77.7767 77.2085 77.6705 75.4848 77.4826C75.4031 77.4745 75.3949 77.3438 75.4848 77.3519H75.4766Z" fill="#3F3A59"/>
<path d="M72.4705 78.7554C72.4542 78.6819 72.5686 78.641 72.5931 78.7227C73.6633 82.3336 72.8627 86.018 71.7435 89.5063C71.7271 89.5553 71.6536 89.539 71.6618 89.4818C72.4379 86.0507 73.0914 82.2682 72.4787 78.7554H72.4705Z" fill="#3F3A59"/>
<path d="M61.0497 77.0959C62.1771 78.0435 63.0022 79.3016 63.8682 80.478C64.8894 81.8586 65.8697 83.2311 66.752 84.7016C68.4921 87.6099 69.9952 90.6571 71.5066 93.6879C71.5229 93.7288 71.4739 93.7533 71.4494 93.7206C69.5786 90.9838 68.1326 88.002 66.4497 85.1509C65.6164 83.7294 64.677 82.3978 63.7375 81.0499C62.8225 79.7346 62.0627 78.3621 60.919 77.2184C60.8373 77.1367 60.9599 77.0223 61.0416 77.0959H61.0497Z" fill="#3F3A59"/>
<path d="M40.9775 99.432C41.3369 98.2638 41.9742 97.1691 42.4807 96.0499C43.0607 94.7836 43.6979 93.55 44.2943 92.292C45.4707 89.8003 46.5817 87.1861 47.3823 84.5474C47.9051 82.8236 48.7793 80.6424 50.405 79.6049C51.3118 79.033 51.9163 78.984 52.9375 78.6899C54.2364 78.3141 55.4291 77.6116 56.7608 77.3828C56.7934 77.3828 56.8179 77.4237 56.7853 77.4318C55.6906 77.9873 54.555 78.5592 53.4113 78.984C52.3738 79.368 51.9163 79.515 50.936 80.0379C49.106 81.01 48.2646 83.518 47.66 85.2826C46.8186 87.7416 45.8383 90.1761 44.6701 92.4962C44.0819 93.6644 43.4528 94.8081 42.8319 95.96C42.2111 97.1119 41.7372 98.3291 41.1327 99.481C41.0919 99.5627 40.953 99.5055 40.9775 99.4157V99.432Z" fill="#3F3A59"/>
<path d="M70.7547 119.978C69.3251 118.818 65.3057 117.584 65.3057 117.584C65.3057 117.584 68.2712 117.658 70.9263 117.878C74.047 118.14 72.8951 116.645 71.7187 116.114C70.1093 115.387 65.8041 114.856 65.5753 114.839C65.3302 114.839 68.8757 114.537 70.673 114.545C72.4539 114.57 73.3117 113.303 72.0373 112.821C70.7629 112.339 63.5983 112.437 63.5983 112.437C63.5983 112.437 65.4364 111.71 66.4658 111.196C67.8627 110.509 67.201 109.317 65.7795 109.063C64.064 108.761 62.185 110.093 60.739 110.828C59.195 111.62 57.6428 112.405 56.8586 114.055C55.4208 117.102 58.2719 119.12 60.4204 120.648C62.0706 121.816 64.113 123.482 66.1145 124.03C67.0295 124.291 69.227 123.891 63.533 119.937C63.533 119.937 66.6047 120.868 69.1698 121.873C71.735 122.886 72.1843 121.121 70.7547 119.97V119.978Z" fill="#FCC188"/>
<path d="M45.201 101.743C46.2221 102.053 47.2515 102.355 48.2972 102.56C48.7138 102.682 49.1223 102.772 49.5471 102.813C49.3102 104.104 49.1059 105.403 48.8608 106.693C48.8445 106.75 48.8608 106.791 48.8772 106.832C48.7546 107.445 48.6648 108.058 48.6239 108.638C48.5259 110.239 61.0659 112.788 61.0659 112.788L59.865 117.264C59.865 117.264 45.5767 116.431 42.9544 113.327C40.8385 110.827 42.5786 103.826 43.3383 101.195C43.9429 101.416 44.5719 101.579 45.2091 101.726L45.201 101.743Z" fill="#FCC188"/>
<path d="M90.2632 95.4573C91.6684 92.9085 91.6112 93.4476 91.7909 93.0637C92.9346 93.7172 95.1077 95.1469 96.2514 95.8086C96.3004 95.8413 96.3413 95.8413 96.3821 95.8413C96.9213 96.1599 97.4687 96.4458 98.0078 96.6746C99.4865 97.2954 113.587 78.6855 113.587 78.6855L118.309 80.8995C118.309 80.8995 104.347 102.148 100.557 103.586C97.5013 104.754 91.1619 100.702 88.9316 99.1172" fill="#FCC188"/>
<path d="M65.0116 79.377H68.3856C69.3195 79.377 70.0767 78.6198 70.0767 77.6859V72.8986C70.0767 71.9647 69.3195 71.2076 68.3856 71.2076H65.0116C64.0777 71.2076 63.3206 71.9647 63.3206 72.8986V77.6859C63.3206 78.6198 64.0777 79.377 65.0116 79.377Z" fill="#FBB57A"/>
<path d="M24.3366 89.2696C24.2875 89.1062 24.3774 89 24.4999 88.9673C24.4999 88.853 24.5898 88.7549 24.7287 88.7876C26.5178 89.1144 28.0781 88.6569 28.9441 87.0067C29.2382 86.4512 29.4261 85.8466 29.565 85.2176C28.7399 86.8351 27.0406 87.9298 25.1698 87.1946C25.129 87.1946 25.0963 87.1946 25.0555 87.1782C24.9901 87.1701 24.9493 87.1374 24.9248 87.0884C24.9002 87.0802 24.8757 87.072 24.8512 87.0557C24.7205 86.9904 24.7859 86.8025 24.9166 86.7943C24.9329 86.7943 24.9493 86.7943 24.9574 86.7943C24.9819 86.7698 25.0146 86.7453 25.0473 86.7371C26.9998 86.2551 26.722 84.6621 26.2155 83.069C25.5946 81.1084 24.5081 79.2621 23.5114 77.473C20.8727 72.7184 18.6915 67.8086 17.3926 62.5149C16.2652 57.9237 16.1018 53.4877 17.0821 48.8556C17.703 45.9228 18.9774 42.1404 22.2942 41.5849C23.8954 39.8366 26.673 43.0799 27.5798 44.2481C30.8394 48.4063 31.8932 53.3243 33.3637 58.2831C34.8996 63.4625 38.2164 67.5799 40.9041 72.1629C42.8892 75.5369 44.6947 79.5235 42.6197 83.2569C42.5053 83.4612 42.1622 83.3305 42.2357 83.1017C42.2602 83.02 42.2765 82.9465 42.301 82.873C42.3746 81.329 42.0723 80.1607 41.239 78.8046C40.8959 78.2491 40.4548 77.7426 40.0136 77.2361C41.4923 80.2996 42.203 83.837 41.7455 87.1374C41.092 91.843 36.1413 95.8378 31.4112 94.0405C31.2234 93.9915 31.0355 93.9262 30.8476 93.82C30.7822 93.7791 30.7822 93.6647 30.8476 93.6321C30.8639 93.534 30.9456 93.4442 31.0518 93.4523C31.1988 93.4523 31.3459 93.4605 31.4848 93.4687C32.8327 93.0847 33.715 92.3985 34.4748 91.0342C34.4993 90.9852 34.5238 90.9362 34.5483 90.8872C33.8294 91.5734 32.9961 92.1289 32.1955 92.4393C29.4914 93.5014 25.1943 92.3495 24.312 89.2614L24.3366 89.2696Z" fill="#664433"/>
<g style="mix-blend-mode:multiply" opacity="0.5">
<path d="M24.4995 88.9744C24.4995 88.8601 24.5893 88.762 24.7282 88.7947C26.5173 89.1215 28.0777 88.664 28.9436 87.0138C29.2377 86.4583 29.4256 85.8537 29.5645 85.2247C28.7394 86.8422 27.0401 87.9369 25.1694 87.2017C25.1285 87.2017 25.0958 87.2017 25.055 87.1853C24.9896 87.1772 24.9488 87.1445 24.9243 87.0955C24.9161 87.0955 24.8998 87.0873 24.8916 87.0791C26.4928 87.0791 27.8326 86.3684 28.1757 84.277C28.9273 79.7185 26.2395 75.74 24.1155 71.786C26.5581 74.678 29.4828 77.2269 30.6102 80.9439C31.615 84.2362 31.7049 88.6722 27.8816 89.5626C27.5957 89.6198 27.3179 89.6607 27.032 89.7015C26.6235 89.7505 26.6807 90.3714 27.0892 90.3387C27.2852 90.3142 27.4895 90.2815 27.6855 90.2489C27.7754 90.2325 27.8653 90.2162 27.9551 90.1998C30.4549 89.7424 32.9221 88.5496 34.1965 86.2459C35.2667 84.3097 35.3402 82.2102 34.8011 80.1923C35.6834 81.6873 36.2634 83.2967 36.3941 85.143C36.4186 85.4453 36.9006 85.5515 36.9986 85.241C38.3466 81.2707 37.5051 77.9213 35.9203 74.1715C34.6295 71.1243 33.0201 67.538 29.9566 65.9286C29.7442 65.8224 29.4828 66.0185 29.5073 66.2472C29.7769 68.2732 30.6919 70.095 31.4353 71.9821C28.9518 68.6653 27.4976 64.7032 25.3246 61.174C25.1857 60.9453 24.7691 61.0351 24.7527 61.3047C24.5403 63.9843 25.104 66.5495 25.9128 69.0656C23.1924 64.0578 20.8232 58.813 19.4753 53.2742C19.1485 51.9181 18.8462 49.6143 17.6699 48.683C17.4983 48.5523 17.3349 48.4788 17.1797 48.4461C17.8332 45.5868 19.1322 42.1312 22.2937 41.6083C23.8949 39.8601 26.6725 43.1033 27.5793 44.2715C30.8389 48.4298 31.8928 53.3477 33.3633 58.3066C34.8991 63.4859 38.2159 67.6033 40.9036 72.1863C42.8888 75.5603 44.6942 79.547 42.6192 83.2804C42.5048 83.4846 42.1617 83.3539 42.2352 83.1252C42.2597 83.0435 42.2761 82.9699 42.3006 82.8964C42.3741 81.3524 42.0718 80.1842 41.2385 78.8281C40.8954 78.2725 40.4543 77.766 40.0131 77.2595C41.4918 80.3231 42.2025 83.8604 41.745 87.1608C41.0915 91.8664 36.1408 95.8612 31.4108 94.064C31.2229 94.015 31.035 93.9496 30.8471 93.8434C30.7817 93.8026 30.7817 93.6882 30.8471 93.6555C30.8634 93.5575 30.9451 93.4676 31.0513 93.4758C31.1984 93.4758 31.3454 93.4839 31.4843 93.4921C32.8322 93.1082 33.7145 92.4219 34.4743 91.0576C34.4988 91.0086 34.5233 90.9596 34.5478 90.9106C33.8289 91.5968 32.9956 92.1523 32.195 92.4628C29.491 93.5248 25.1939 92.3729 24.3116 89.2849C24.2625 89.1215 24.3524 89.0153 24.475 88.9826L24.4995 88.9744Z" fill="#754E3B"/>
</g>
<path d="M21.4119 42.7951C21.5507 37.1337 23.1438 31.554 26.1501 26.7586C27.6206 24.414 29.4996 22.2409 31.8197 20.7132C33.5924 19.5368 35.5612 19.0957 37.5709 18.7934C38.3633 18.5484 39.1476 18.3033 39.9645 18.1644C41.386 17.9356 42.8402 18.3114 44.1718 18.8016C46.6144 19.7002 48.6323 21.522 50.307 23.4582C54.3427 28.1065 56.8343 34.2254 59.1381 39.846C61.8749 46.5285 63.8192 53.5215 64.3012 60.7514C64.4646 63.2513 64.3747 65.9717 63.1738 68.2264C62.0382 70.3341 59.5384 71.6657 57.2265 72.3275C56.5157 72.6706 55.7968 72.9892 55.0452 73.2506C53.0274 73.945 50.8625 73.9695 48.763 73.847C44.7355 73.6182 40.6508 72.834 37.0399 70.9795C33.8702 69.3538 31.1988 66.9275 28.846 64.2888C27.2611 62.9 25.8805 61.3314 24.8675 59.5424C23.5277 57.1977 22.8252 54.4365 22.2451 51.8223C21.5998 48.8568 21.3465 45.8259 21.42 42.8033L21.4119 42.7951Z" fill="#845843"/>
<g style="mix-blend-mode:multiply" opacity="0.5">
<path d="M21.4116 42.7952C21.4361 41.7985 21.5097 40.81 21.624 39.8215C21.8528 43.702 22.6779 47.4763 24.9653 50.7113C26.0437 52.2472 28.3311 55.3679 30.594 54.2732C32.9223 53.1376 32.1135 48.9958 32.2361 46.4878C33.0693 48.3422 33.8046 50.6542 36.0103 50.9401C36.1737 50.9564 36.3534 50.8175 36.3534 50.646C36.4188 47.3701 35.7081 44.1186 35.9286 40.8672C39.662 44.9111 47.668 45.1725 51.3198 40.9734C54.1954 37.6485 54.4486 32.8694 53.8604 28.4824C55.9763 32.1015 57.602 36.0881 59.146 39.846C61.8828 46.5286 63.8271 53.5216 64.3091 60.7515C64.4725 63.2514 64.3826 65.9718 63.1817 68.2265C62.0462 70.3342 59.5463 71.6658 57.2344 72.3275C56.5237 72.6707 55.8048 72.9893 55.0532 73.2507C53.0353 73.9451 50.8704 73.9696 48.7709 73.8471C44.7434 73.6183 40.6587 72.834 37.0478 70.9796C33.8781 69.3539 31.2067 66.9276 28.8539 64.2889C27.2691 62.9001 25.8884 61.3315 24.8754 59.5424C23.5357 57.1978 22.8331 54.4366 22.2531 51.8224C21.6077 48.8569 21.3544 45.826 21.428 42.8034L21.4116 42.7952Z" fill="#845843"/>
</g>
<path d="M39.6619 51.69C41.3284 50.8159 43.0358 52.27 43.8283 53.7977C43.9099 53.667 44.0161 53.5771 44.1305 53.5199C43.1992 47.5154 40.4625 40.7594 40.3154 34.0605C40.201 28.636 40.1684 24.2572 44.8494 21.3652C49.555 18.4569 55.4533 18.1465 60.8288 18.1465C66.7761 18.1465 73.0338 18.9553 78.2867 21.9207C80.4516 23.1462 82.3306 24.8617 83.9808 26.708C84.9693 27.819 85.9088 28.9628 86.7747 30.1718C87.4283 31.0786 88.0982 31.9446 88.3106 33.0311C89.683 36.1682 89.0213 39.7872 88.7681 43.0958C88.6047 45.1382 88.5638 47.1723 88.8416 49.2065C89.2011 51.8207 90.5653 54.247 90.4918 56.9184C90.4183 59.3039 89.3481 61.5096 88.3759 63.6418C85.6637 69.5891 78.5563 72.4893 72.6825 74.2947C65.4853 76.5086 59.7422 73.3471 56.597 72.1216C51.2134 70.0139 46.8673 65.3982 44.9393 60.8724C44.4981 62.4082 43.3054 62.6615 42.1208 62.4001C40.054 61.9344 38.1832 59.0833 37.6685 57.1717C37.1375 55.1865 37.7257 52.703 39.6537 51.6982L39.6619 51.69Z" fill="#FCC188"/>
<path d="M35.0633 37.9987C34.3526 33.9549 34.6222 29.764 34.8509 25.6875C34.9816 23.3837 35.145 20.3937 36.6155 18.4331C37.2772 16.5459 38.2249 14.7813 39.4013 13.1556C40.978 10.9826 43.1674 9.40587 45.3894 7.95989C50.0623 4.94539 55.2335 4.03041 60.7234 4.22648C66.0171 4.41438 71.3926 5.78683 75.9593 8.50724C78.018 9.73265 79.9296 11.2358 81.7269 12.8043C83.2301 14.1114 84.5617 15.5983 86.024 16.9462C86.9063 17.5099 87.7641 18.1308 88.5892 18.719C90.7622 20.2875 92.8128 21.9786 94.5038 24.0618C97.2977 27.5092 98.6212 32.7703 96.44 36.8714C96.3419 37.0593 96.0723 36.9367 96.1459 36.7325C96.1459 36.7161 96.1459 36.6998 96.1622 36.6916C95.9171 35.4581 95.9171 34.2572 95.5005 33.0563C95.0675 31.8145 94.2342 30.7198 93.3438 29.7722C93.2376 29.6578 93.1232 29.5598 93.0088 29.4536C93.0497 29.5189 93.0987 29.5761 93.1314 29.6415C93.9646 31.0711 94.2261 32.9501 94.1444 34.5839C93.9973 37.6801 91.6445 41.0868 88.9159 42.4184C88.8097 42.4756 88.7117 42.4184 88.6545 42.3449C88.6055 42.3367 88.5647 42.304 88.5483 42.2468C88.0908 39.5591 88.2869 36.9286 87.1187 34.3879C86.2282 32.4517 84.3738 30.777 82.3396 29.7231C82.6173 30.0336 82.8624 30.3522 83.0748 30.6218C83.9898 31.839 84.8313 33.5791 84.6107 35.1558C84.6107 35.164 84.627 35.1721 84.6352 35.1885C84.7005 35.2702 84.6025 35.4009 84.5126 35.3519C84.48 35.3519 84.4473 35.3355 84.431 35.2947C83.2464 34.5349 82.3723 33.3912 81.155 32.6233C79.5211 31.6021 77.683 30.9322 75.8449 30.3849C73.9415 29.813 72.0135 29.3228 70.0773 28.8899C72.3403 30.4339 73.7699 32.7131 76.2779 33.914C76.2861 33.914 76.3024 33.914 76.3106 33.914C76.4413 33.9304 76.4331 34.1346 76.3106 34.1428C73.5738 34.4042 70.9923 35.213 68.3127 35.7848C65.7067 36.3322 62.9536 36.1933 60.3394 35.8012C57.0717 35.3192 53.3056 34.298 50.2502 32.4517C50.5198 32.8112 50.8057 33.1543 51.0998 33.4892C52.652 35.2375 54.7434 36.5364 57.137 36.4466C57.2596 36.4466 57.2759 36.6181 57.1534 36.6263C57.1452 36.6263 57.1288 36.6263 57.1125 36.6263C57.1043 36.6263 57.1125 36.6426 57.0962 36.6508C55.8217 37.2472 54.5228 37.0429 53.2075 36.6508C51.9086 36.2668 50.5525 35.8747 49.3679 35.2048C48.8369 34.9025 48.3141 34.5022 47.8402 34.0284C47.971 34.7146 48.069 35.3845 48.1589 35.9972C48.5101 38.4889 48.3958 41.1603 47.5216 43.5376C47.5053 43.6683 47.4971 43.799 47.4726 43.9379C47.4645 44.0032 47.3583 44.0032 47.3501 43.9379C47.2929 43.9706 47.203 43.9297 47.2275 43.8562C47.2602 43.7337 47.2847 43.6111 47.3174 43.4886C47.1132 41.2665 46.2881 39.363 45.2424 37.5004C45.5773 38.3173 45.8959 39.1506 46.1083 40.0329C46.5903 42.0017 47.0151 43.9706 47.056 45.9966C47.154 50.114 46.2636 54.0107 47.5952 58.0383C47.5952 58.0546 47.5952 58.0628 47.5952 58.0709C47.6278 58.0791 47.6524 58.0954 47.685 58.1036C47.9056 58.169 47.9465 58.5366 47.6687 58.5448C45.708 58.5611 44.6052 56.2573 43.9189 54.7297C43.4288 53.635 43.0612 52.4912 42.7589 51.3312C37.9716 49.4196 35.8884 42.5409 35.0878 37.9987H35.0633Z" fill="#845843"/>
<g style="mix-blend-mode:multiply" opacity="0.5">
<path d="M39.6538 47.0745C41.3285 48.6021 43.0114 49.8766 44.2777 51.7964C44.4247 52.0251 44.8332 51.8781 44.8414 51.6166C44.874 45.6857 45.6665 37.8022 41.6798 32.8352C43.0604 33.5623 44.3675 34.3956 45.5358 35.4739C45.7808 35.7027 46.2547 35.4658 46.0668 35.1226C43.5343 30.752 40.8792 26.4713 39.8907 21.4961C41.2795 23.6528 42.5948 25.9321 44.7515 27.4107C46.8837 28.8649 49.3264 29.7145 51.8507 30.2047C58.1166 31.4219 64.6685 31.5363 71.0243 31.6506C71.3184 31.6506 71.5308 31.2503 71.2285 31.0706C68.0669 29.1998 65.1341 27.0023 62.1605 24.8537C67.9526 26.5284 75.1988 24.3881 79.6021 29.1508C79.8881 29.4613 80.3047 29.0691 80.0841 28.7342C78.4829 26.3079 76.4977 23.9796 74.0959 22.264C80.1658 24.094 86.8075 25.3357 90.108 31.2503C90.3122 31.618 90.8187 31.3565 90.6798 30.9726C89.724 28.2522 88.376 25.834 86.6278 23.6038C91.6356 26.1853 97.5666 30.2864 96.7905 36.1765C96.6925 36.4134 96.5781 36.6503 96.4556 36.8791C96.3575 37.067 96.0879 36.9444 96.1615 36.7402C96.1615 36.7238 96.1615 36.7075 96.1778 36.6993C95.9327 35.4658 95.9327 34.2649 95.5161 33.064C95.0831 31.8222 94.2498 30.7275 93.3594 29.7799C93.2532 29.6655 93.1388 29.5675 93.0244 29.4613C93.0653 29.5266 93.1143 29.5838 93.147 29.6491C93.9802 31.0788 94.2417 32.9578 94.16 34.5916C94.0129 37.6878 91.6601 41.0945 88.9316 42.4261C88.8254 42.4833 88.7273 42.4261 88.6701 42.3526C88.6211 42.3444 88.5803 42.3117 88.5639 42.2545C88.1065 39.5668 88.3025 36.9362 87.1343 34.3956C86.2438 32.4594 84.3894 30.7847 82.3552 29.7308C82.633 30.0413 82.878 30.3599 83.0904 30.6295C84.0054 31.8467 84.8469 33.5868 84.6263 35.1635C84.6263 35.1717 84.6426 35.1798 84.6508 35.1962C84.7162 35.2779 84.6181 35.4086 84.5283 35.3596C84.4956 35.3596 84.4629 35.3432 84.4466 35.3024C83.262 34.5426 82.3879 33.3989 81.1706 32.631C79.5368 31.6098 77.6987 30.9399 75.8605 30.3926C73.9571 29.8207 72.0291 29.3305 70.093 28.8976C72.3559 30.4416 73.7855 32.7208 76.2935 33.9217C76.3017 33.9217 76.318 33.9217 76.3262 33.9217C76.4569 33.9381 76.4487 34.1423 76.3262 34.1505C73.5894 34.4119 71.0079 35.2207 68.3284 35.7925C65.7223 36.3399 62.9692 36.201 60.355 35.8089C57.0873 35.3269 53.3212 34.3057 50.2658 32.4594C50.5354 32.8189 50.8214 33.162 51.1155 33.4969C52.6676 35.2452 54.759 36.5441 57.1526 36.4542C57.2752 36.4542 57.2915 36.6258 57.169 36.634C57.1608 36.634 57.1445 36.634 57.1281 36.634C57.12 36.634 57.1281 36.6503 57.1118 36.6585C55.8374 37.2549 54.5384 37.0506 53.2232 36.6585C51.9242 36.2745 50.5681 35.8824 49.3835 35.2125C48.8525 34.9102 48.3297 34.5099 47.8559 34.0361C47.9866 34.7223 48.0846 35.3922 48.1745 36.0049C48.5258 38.4966 48.4114 41.168 47.5373 43.5453C47.5209 43.676 47.5128 43.8067 47.4882 43.9456C47.4801 44.0109 47.3739 44.0109 47.3657 43.9456C47.3085 43.9783 47.2187 43.9374 47.2432 43.8639C47.2758 43.7413 47.3003 43.6188 47.333 43.4963C47.1288 41.2742 46.3037 39.3707 45.258 37.5081C45.5929 38.325 45.9116 39.1583 46.124 40.0406C46.606 42.0094 47.0308 43.9783 47.0716 46.0043C47.1696 50.1216 46.2792 54.0184 47.6108 58.046C47.6108 58.0623 47.6108 58.0705 47.6108 58.0786C47.6435 58.0868 47.668 58.1031 47.7006 58.1113C47.9212 58.1767 47.9621 58.5443 47.6843 58.5525C45.7237 58.5688 44.6208 56.265 43.9346 54.7374C43.4444 53.6427 43.0768 52.4989 42.7745 51.3389C39.6211 50.0808 37.6523 46.6823 36.4351 43.194C37.3419 44.6236 38.4121 45.9226 39.6865 47.0826L39.6538 47.0745Z" fill="#845843"/>
</g>
<path d="M40.7486 55.6929C41.1408 55.5867 41.5166 55.84 41.8107 56.0606C42.8318 56.8203 43.0769 58.1274 43.1096 59.3202C43.1096 59.3692 43.0361 59.3937 43.0197 59.3447C42.84 58.8463 42.7093 58.299 42.5051 57.7925C42.3907 57.9395 42.2518 58.0621 42.1374 58.1846C41.9005 58.446 41.6309 58.7156 41.5002 59.0506C41.4675 59.1404 41.3368 59.0914 41.345 59.0016C41.3859 58.6339 41.4921 58.3317 41.6963 58.0212C41.8352 57.8007 42.0231 57.4412 42.26 57.2778C42.2028 57.1798 42.1456 57.0817 42.0721 56.9837C41.876 56.7141 41.6064 56.4772 41.3205 56.3057C40.8712 56.0442 40.716 56.4364 40.4137 56.6814C40.2993 56.7713 40.1359 56.6814 40.1196 56.5426C40.0624 56.1341 40.3483 55.7992 40.7405 55.6929H40.7486Z" fill="#B28053"/>
<path d="M69.7747 51.3978C69.693 53.3176 69.0476 54.8044 68.3287 54.7145C67.6098 54.6165 67.0951 52.9908 67.185 51.0628C67.2667 49.143 67.9121 47.6562 68.631 47.7461C69.3499 47.8359 69.8564 49.4698 69.7747 51.3978Z" fill="#2C160F"/>
<path d="M68.3528 49.7483C68.2874 50.3202 68.0587 50.745 67.8463 50.7042C67.6339 50.6552 67.5113 50.1487 67.5767 49.5768C67.642 49.0049 67.8708 48.572 68.0832 48.621C68.3038 48.67 68.4263 49.1765 68.3528 49.7483Z" fill="white"/>
<path d="M87.6819 50.9882C87.976 52.7201 87.7146 54.1498 87.1182 54.1988C86.5219 54.2397 85.7948 52.8754 85.517 51.1353C85.2229 49.4034 85.4844 47.9656 86.0889 47.9247C86.6853 47.8839 87.4042 49.2563 87.6901 50.9882H87.6819Z" fill="#2C160F"/>
<path d="M86.2278 49.7551C86.2769 50.278 86.1788 50.7028 85.9909 50.6946C85.803 50.6946 85.6151 50.2535 85.5579 49.7306C85.5089 49.2078 85.607 48.783 85.7949 48.7911C85.9828 48.7911 86.1707 49.2323 86.2197 49.7551H86.2278Z" fill="white"/>
<path d="M79.7493 56.9772C79.4552 57.2958 79.1856 57.6471 78.9487 58.0229C79.684 57.5817 80.6235 56.9854 81.4241 57.1896C82.192 57.3857 82.6086 58.1699 82.4616 58.9379C82.094 60.8332 80.2722 61.5275 78.7363 62.2955V62.3118C80.6561 61.9932 83.4174 60.4655 82.8537 58.0964C82.4371 56.34 80.9911 56.3482 79.7493 56.9935V56.9772Z" fill="#B28053"/>
<path d="M65.8854 66.1098C66.5226 65.8402 67.1598 65.6114 67.7398 65.2438C68.4342 64.8108 68.761 64.2145 68.908 63.4384C68.9326 63.2995 69.1205 63.3158 69.145 63.4384C69.2512 64.2063 68.9979 64.8517 68.5568 65.3418C70.9014 67.8253 74.3815 69.0589 77.7555 68.6014C80.8272 68.1848 83.3842 66.2813 83.7273 63.1034C83.7355 63.0136 83.8744 63.0217 83.8825 63.1034C84.1685 66.2078 81.3092 68.4054 78.5479 69.0262C74.8962 69.8432 70.5664 68.6259 68.0421 65.7993C67.4457 66.2078 66.6941 66.4284 65.9671 66.4202C65.7955 66.4202 65.722 66.1915 65.8935 66.1179L65.8854 66.1098Z" fill="#B28053"/>
<path d="M65.8043 40.9404C66.8337 39.9356 68.1816 39.2984 69.5622 39.3801C72.9362 39.5761 73.8838 43.8161 73.9002 46.4548C73.9002 46.5773 73.7123 46.6427 73.6714 46.512C73.1241 44.3879 72.6584 41.7002 70.1504 40.9976C67.4382 40.2379 65.5429 43.2769 64.489 45.4418C64.2848 45.4908 63.9907 45.4091 63.9825 45.1558C63.909 43.6282 64.6524 42.0596 65.8043 40.9404Z" fill="#845843"/>
<path d="M84.7653 40.8979C86.6198 40.1708 87.7798 42.5644 87.3714 44.0839C87.3223 44.2637 87.0364 44.4025 86.922 44.182C86.5136 43.414 86.1378 40.71 84.7326 42.0089C83.834 42.8422 83.6216 44.4352 83.3765 45.5708C83.352 45.677 83.1886 45.677 83.1886 45.5708C83.1396 44.1248 83.0743 41.5678 84.7653 40.8897V40.8979Z" fill="#845843"/>
<path d="M74.5621 49.8114C74.4395 54.9908 70.2895 59.1082 65.3225 58.9938C60.3555 58.8713 56.4178 54.5578 56.5404 49.3784C56.6711 44.1909 60.813 40.0735 65.78 40.196C70.747 40.3186 74.6846 44.632 74.5621 49.8196V49.8114ZM73.6389 49.7869C73.7533 45.114 70.2159 41.2254 65.7636 41.111C61.3031 41.0048 57.5861 44.7137 57.4717 49.3948C57.3573 54.0677 60.8947 57.9645 65.347 58.0707C69.8075 58.1769 73.5245 54.468 73.6389 49.7869Z" fill="#010101"/>
<path d="M95.3446 48.7904C95.2139 53.9616 91.6275 58.0708 87.3304 57.9728C83.0415 57.8666 79.6512 53.5776 79.7737 48.4146C79.8963 43.2434 83.4908 39.1342 87.7879 39.2322C92.0768 39.3384 95.4671 43.6273 95.3446 48.7904ZM94.4868 48.774C94.6012 44.0766 91.5867 40.188 87.7634 40.09C83.9483 40.0001 80.7459 43.7417 80.6315 48.4309C80.5171 53.1202 83.5316 57.017 87.3549 57.1068C91.17 57.2048 94.3724 53.4551 94.4868 48.7659V48.774Z" fill="#010101"/>
<path d="M42.4069 52.076L40.9609 51.447L56.9076 48.7266L57.1037 49.5598L42.4069 52.076Z" fill="#010101"/>
<path d="M79.9374 50.4899C79.1532 49.3217 78.2709 48.7008 77.3314 48.6436C75.7383 48.5538 74.4394 50.0651 74.4231 50.0733L73.7695 49.5178C73.8349 49.4442 75.3789 47.6797 77.3722 47.7859C78.5976 47.8594 79.6923 48.6028 80.6318 49.9998L79.9211 50.4818L79.9374 50.4899Z" fill="#010101"/>
<path d="M113.301 79.1797L114.502 76.6391C114.502 76.6391 113.121 75.2094 113.325 69.1477C113.611 67.3096 112.157 64.4585 112.517 64.1154C112.876 63.7723 115.948 62.9798 115.858 68.9108C118.162 64.2053 120.621 61.1662 122.426 61.5502C123.717 61.9832 121.887 64.1562 120.776 65.5124C119.665 66.8685 118.325 70.0464 118.325 70.0464C118.325 70.0464 123.831 62.5387 126.225 63.6171C127.058 64.0991 125.277 66.076 123.071 68.3471C120.866 70.6182 120.196 71.86 120.196 71.86C120.196 71.86 127.924 64.9568 129.174 67.0809C129.738 68.1511 127.695 69.401 126.151 70.4222C124.615 71.4433 122.254 74.1637 122.254 74.1637C122.254 74.1637 129.542 69.5399 130.179 71.3535C130.808 73.1671 126.176 74.7274 123.733 75.8957C123.161 78.1341 121.642 78.7141 119.126 79.0735C118.554 80.6257 118.317 80.8953 118.317 80.8953C118.317 80.8953 116.127 80.7728 113.301 79.1879V79.1797Z" fill="#FCC188"/>
</svg>
