<svg viewBox="0 0 34 42" fill="none" xmlns="http://www.w3.org/2000/svg">
<g filter="url(#filter0_d_1735_13834)">
<path d="M32.1958 1.5H2.06272C1.42537 1.5 0.908691 2.01668 0.908691 2.65403V40.0901C0.908691 40.7274 1.42537 41.2441 2.06272 41.2441H32.1958C32.8332 41.2441 33.3499 40.7274 33.3499 40.0901V2.65403C33.3499 2.01668 32.8332 1.5 32.1958 1.5Z" fill="#FAAA65"/>
</g>
<path d="M23.7333 0.837891H10.3103C9.58612 0.837891 8.99902 1.42498 8.99902 2.1492V4.41723C8.99902 5.14145 9.58612 5.72854 10.3103 5.72854H23.7333C24.4575 5.72854 25.0446 5.14145 25.0446 4.41723V2.1492C25.0446 1.42498 24.4575 0.837891 23.7333 0.837891Z" fill="#D7DCDE"/>
<g filter="url(#filter1_d_1735_13834)">
<path d="M31.5687 2.75H2.4751V39.9096H31.5687V2.75Z" fill="white"/>
</g>
<g filter="url(#filter2_d_1735_13834)">
<path d="M23.363 1.58984H10.6817C10.196 1.58984 9.80225 1.9836 9.80225 2.46932V3.63917C9.80225 4.12489 10.196 4.51865 10.6817 4.51865H23.363C23.8487 4.51865 24.2425 4.12489 24.2425 3.63917V2.46932C24.2425 1.9836 23.8487 1.58984 23.363 1.58984Z" stroke="#E5E7E9" stroke-width="0.549093" stroke-miterlimit="10"/>
</g>
<path d="M29.6759 12.6953H4.58325V13.8382H29.6759V12.6953Z" fill="#CFD0D0"/>
<path d="M29.6759 34.7207H4.58325V35.3536H29.6759V34.7207Z" fill="#CFD0D0"/>
<path d="M29.6759 36.6543H4.58325V37.2872H29.6759V36.6543Z" fill="#CFD0D0"/>
<path d="M29.6759 37.9395H4.58325V38.5723H29.6759V37.9395Z" fill="#CFD0D0"/>
<path d="M16.6307 14.7246H4.58325V17.1434H16.6307V14.7246Z" fill="#CFD0D0"/>
<path d="M29.6756 14.7246H17.4495V17.1434H29.6756V14.7246Z" fill="#939392"/>
<path d="M16.6307 18.0586H4.58325V20.4774H16.6307V18.0586Z" fill="#CFD0D0"/>
<path d="M29.6756 18.0586H17.4495V20.4774H29.6756V18.0586Z" fill="#939392"/>
<path d="M16.6307 21.3906H4.58325V23.8094H16.6307V21.3906Z" fill="#CFD0D0"/>
<path d="M29.6756 21.3906H17.4495V23.8094H29.6756V21.3906Z" fill="#939392"/>
<path d="M16.6307 24.7227H4.58325V27.1415H16.6307V24.7227Z" fill="#CFD0D0"/>
<path d="M29.6756 24.7227H17.4495V27.1415H29.6756V24.7227Z" fill="#939392"/>
<path d="M16.6307 28.0566H4.58325V30.4754H16.6307V28.0566Z" fill="#939392"/>
<path d="M29.6756 27.4961H17.4495V29.9149H29.6756V27.4961Z" fill="#CFD0D0"/>
<path d="M16.6307 31.3887H4.58325V33.8075H16.6307V31.3887Z" fill="#939392"/>
<path d="M29.6756 31.3887H17.4495V33.8075H29.6756V31.3887Z" fill="#CFD0D0"/>
<path d="M29.5826 7.62695H13.1628V11.532H29.5826V7.62695Z" fill="#A7A6A7"/>
<path d="M29.5826 6.27539H13.1628V6.96129H29.5826V6.27539Z" fill="#A7A6A7"/>
<path d="M12.1635 6.27539H4.58325V11.5299H12.1635V6.27539Z" fill="#6E6E6E"/>
<path d="M9.7612 11.4284C9.76399 11.4014 9.76864 11.3753 9.7705 11.3474C9.77795 11.2134 9.71652 11.1324 9.56948 11.1278C9.3545 11.1213 9.14882 11.0384 8.93011 11.044C8.79889 11.0468 8.75422 10.9556 8.78679 10.8346C8.82402 10.6978 8.82495 10.5647 8.78679 10.4279C8.75794 10.3274 8.77841 10.2288 8.87986 10.1869C9.05203 10.1162 9.08088 9.98028 9.09112 9.81927C9.10042 9.66292 9.13114 9.5196 9.32658 9.47772C9.41685 9.4591 9.47269 9.37255 9.45873 9.27669C9.42616 9.0431 9.482 8.81229 9.47083 8.58335C9.46152 8.3907 9.49037 8.15617 9.31169 8.02029C9.16371 7.90768 9.10135 7.77367 9.07716 7.60149C9.03993 7.34091 8.87706 7.25529 8.6323 7.3651C8.45826 7.44328 8.31029 7.56427 8.18465 7.70387C7.99386 7.91513 7.77515 7.95515 7.51643 7.86301C7.3303 7.79693 7.25677 7.83509 7.18139 8.01471C7.1423 8.10871 7.16836 8.19526 7.17953 8.28926C7.21396 8.57032 7.294 8.86255 6.97478 9.06264C6.84821 9.14175 6.83239 9.37907 6.92732 9.39861C7.15533 9.44421 7.2577 9.59033 7.33774 9.77925C7.34798 9.80345 7.38428 9.81183 7.41033 9.82486C7.50154 9.87139 7.54714 9.94863 7.56762 10.0464C7.60019 10.2018 7.63835 10.3544 7.79098 10.4447C7.82076 10.4624 7.78353 10.4558 7.7826 10.4568C7.68767 10.5005 7.70629 10.5852 7.69977 10.6662C7.67744 10.924 7.4913 11.0952 7.24281 11.0608C7.07622 11.0375 6.9692 11.1194 6.90777 11.2292C6.81471 11.3958 6.68534 11.4405 6.51503 11.4424C6.43872 11.4433 6.35868 11.4451 6.30005 11.4889C7.45408 11.4619 8.6081 11.4405 9.76306 11.4275L9.7612 11.4284Z" fill="white"/>
<path d="M6.90781 11.4766C6.95062 11.4375 6.9832 11.3798 6.99902 11.2932C7.02415 11.1648 7.12093 11.1183 7.26705 11.162C7.53787 11.243 7.60302 11.203 7.68399 10.948C7.72773 10.8112 7.76589 10.6716 7.81242 10.5143C7.86826 10.5878 7.84127 10.6734 7.93527 10.7069C7.98832 10.599 7.97156 10.5003 7.88315 10.438C7.72121 10.3226 7.68399 10.1597 7.67747 9.98287C7.67282 9.84885 7.61884 9.76323 7.48762 9.72973C7.4141 9.71111 7.34336 9.67761 7.33778 9.59385C7.32661 9.42819 7.23634 9.3677 7.08092 9.37142C7.0288 9.37235 6.97668 9.35746 6.95993 9.29883C6.94225 9.23461 6.97482 9.18343 7.02694 9.15178C7.07626 9.122 7.13024 9.09967 7.18422 9.08105C7.28939 9.04476 7.33592 8.9703 7.32103 8.86328C7.28939 8.63619 7.35732 8.40725 7.26984 8.17644C7.20656 8.00799 7.33778 7.91493 7.50623 7.98194C7.78729 8.09268 8.04788 8.02102 8.25076 7.80046C8.35221 7.68971 8.4704 7.59013 8.59604 7.50823C8.83801 7.35001 8.92643 7.39468 8.97482 7.67482C8.98878 7.75299 9.00553 7.83117 9.02136 7.90934C9.03252 7.96798 9.04835 8.03498 9.10977 8.04894C9.26984 8.08617 9.32382 8.18947 9.34616 8.3421C9.3657 8.47612 9.42899 8.60269 9.37222 8.74415C9.31359 8.88934 9.31452 9.04103 9.34709 9.19273C9.37408 9.31465 9.35546 9.39003 9.20377 9.38259C9.04928 9.37514 8.98227 9.46076 8.98878 9.61432C8.99157 9.68599 8.97948 9.75858 8.98041 9.83117C8.98227 9.96146 8.94597 10.0536 8.798 10.0797C8.6677 10.1029 8.60163 10.2137 8.64071 10.3226C8.72168 10.5459 8.69097 10.7544 8.63792 10.974C8.61093 11.0866 8.65933 11.2207 8.80451 11.1862C9.05021 11.1285 9.27822 11.229 9.51368 11.2234C9.67096 11.2197 9.6905 11.3053 9.66631 11.4133C9.66445 11.4198 9.66351 11.4263 9.66165 11.4328C9.97063 11.4291 10.2796 11.4263 10.5886 11.4245C10.4406 11.2737 10.2591 11.1844 10.0553 11.135C9.9697 11.1146 9.89897 11.0699 9.83569 11.0113C9.74541 10.9768 9.65421 10.9452 9.55556 10.9619C9.41317 10.9629 9.30614 10.8549 9.17026 10.8382C9.02973 10.8214 8.99902 10.7358 9.00646 10.6073C9.01298 10.4873 9.04648 10.384 9.12559 10.2946C9.24285 10.1923 9.35733 10.0871 9.36849 9.91679C9.3899 9.82652 9.38897 9.70367 9.47459 9.6683C9.71284 9.57151 9.71936 9.36211 9.75658 9.16295C9.75751 9.11828 9.77054 9.07454 9.75658 9.02987C9.74914 8.91912 9.67375 8.82233 9.68864 8.70786C9.67189 8.63061 9.65235 8.55336 9.65142 8.4724C9.64862 8.11409 9.53508 7.79115 9.33871 7.49427C9.06417 7.3072 8.86873 6.98798 8.48436 6.98519C8.24611 6.95076 8.01344 6.95262 7.78543 7.04941C7.3415 7.23833 7.14141 7.60874 6.99995 8.04057C6.90316 8.33466 7.01577 8.67249 6.79985 8.93959C6.76728 8.97961 6.78403 9.03452 6.7859 9.08105C6.79241 9.25509 6.82498 9.42354 6.90037 9.58175C7.15444 9.78929 7.26333 10.0973 7.44015 10.3579C7.59837 10.5915 7.52484 10.7674 7.24937 10.8512C7.04183 10.9145 6.83243 10.9722 6.63047 11.0513C6.355 11.1592 6.07487 11.2644 5.88501 11.4999C6.22563 11.4915 6.56626 11.484 6.90688 11.4766H6.90781Z" fill="white"/>
<defs>
<filter id="filter0_d_1735_13834" x="0.907761" y="1.49907" width="32.8432" height="40.1462" filterUnits="userSpaceOnUse" color-interpolation-filters="sRGB">
<feFlood flood-opacity="0" result="BackgroundImageFix"/>
<feColorMatrix in="SourceAlpha" type="matrix" values="0 0 0 0 0 0 0 0 0 0 0 0 0 0 0 0 0 0 127 0" result="hardAlpha"/>
<feOffset dx="0.200093" dy="0.200093"/>
<feGaussianBlur stdDeviation="0.100512"/>
<feColorMatrix type="matrix" values="0 0 0 0 0.00392157 0 0 0 0 0.00392157 0 0 0 0 0.00392157 0 0 0 0.2 0"/>
<feBlend mode="normal" in2="BackgroundImageFix" result="effect1_dropShadow_1735_13834"/>
<feBlend mode="normal" in="SourceGraphic" in2="effect1_dropShadow_1735_13834" result="shape"/>
</filter>
<filter id="filter1_d_1735_13834" x="2.37459" y="2.64949" width="29.4956" height="37.5622" filterUnits="userSpaceOnUse" color-interpolation-filters="sRGB">
<feFlood flood-opacity="0" result="BackgroundImageFix"/>
<feColorMatrix in="SourceAlpha" type="matrix" values="0 0 0 0 0 0 0 0 0 0 0 0 0 0 0 0 0 0 127 0" result="hardAlpha"/>
<feOffset dx="0.100512" dy="0.100512"/>
<feGaussianBlur stdDeviation="0.100512"/>
<feColorMatrix type="matrix" values="0 0 0 0 0.00392157 0 0 0 0 0.00392157 0 0 0 0 0.00392157 0 0 0 0.2 0"/>
<feBlend mode="normal" in2="BackgroundImageFix" result="effect1_dropShadow_1735_13834"/>
<feBlend mode="normal" in="SourceGraphic" in2="effect1_dropShadow_1735_13834" result="shape"/>
</filter>
<filter id="filter2_d_1735_13834" x="9.42708" y="1.21394" width="15.3915" height="3.88056" filterUnits="userSpaceOnUse" color-interpolation-filters="sRGB">
<feFlood flood-opacity="0" result="BackgroundImageFix"/>
<feColorMatrix in="SourceAlpha" type="matrix" values="0 0 0 0 0 0 0 0 0 0 0 0 0 0 0 0 0 0 127 0" result="hardAlpha"/>
<feOffset dx="0.100512" dy="0.100512"/>
<feGaussianBlur stdDeviation="0.100512"/>
<feColorMatrix type="matrix" values="0 0 0 0 0.00392157 0 0 0 0 0.00392157 0 0 0 0 0.00392157 0 0 0 0.2 0"/>
<feBlend mode="normal" in2="BackgroundImageFix" result="effect1_dropShadow_1735_13834"/>
<feBlend mode="normal" in="SourceGraphic" in2="effect1_dropShadow_1735_13834" result="shape"/>
</filter>
</defs>
</svg>
