<svg viewBox="0 0 84 21" fill="none" xmlns="http://www.w3.org/2000/svg">
<path d="M76.4351 20.8808L72.7257 20.7687C50.9662 20.102 29.1801 20.1433 7.42061 20.8808C3.39327 20.8808 0.127686 17.9719 0.127686 14.3845V8.82627C0.127686 5.68724 1.41272 3.81681 5.49967 2.74294C6.53963 2.47152 7.60608 2.31811 8.68577 2.2296C10.3749 2.09979 13.6007 1.84607 17.4095 1.55105C33.7308 0.282462 50.1448 0.282462 66.4661 1.55105L75.256 2.2355C76.3357 2.31811 77.4088 2.46562 78.4487 2.72523C82.6682 3.76961 83.7346 5.68724 83.7346 8.83217V14.3904C83.7346 17.9778 80.469 20.8867 76.4417 20.8867L76.4351 20.8808Z" fill="#4D4669"/>
<path d="M9.01709 16.2422L9.6665 12.8652L10.9653 8.36719H6.23486V5.54395H7.3833V7.38281H12.1001V8.36035L10.8218 12.8174L10.1724 16.2422H9.01709ZM16.7349 16.3789C16.4569 16.3789 16.1857 16.3743 15.9214 16.3652C15.6616 16.3561 15.4201 16.3424 15.1968 16.3242C14.9735 16.306 14.7775 16.2855 14.6089 16.2627L14.3286 16.2285V15.292C14.7388 15.3376 15.1444 15.3717 15.5454 15.3945C15.951 15.4173 16.3543 15.4287 16.7554 15.4287C17.0926 15.4287 17.3911 15.3717 17.6509 15.2578C17.9106 15.1439 18.1248 14.9912 18.2935 14.7998C18.4712 14.5993 18.6125 14.3441 18.7173 14.0342C18.8267 13.7243 18.9019 13.4007 18.9429 13.0635C18.9657 12.8584 18.9816 12.6602 18.9907 12.4688C18.9998 12.2728 19.0044 12.0586 19.0044 11.8262C19.0044 11.4206 18.9862 11.0583 18.9497 10.7393C18.9132 10.4157 18.8472 10.1012 18.7515 9.7959C18.6558 9.486 18.5259 9.2194 18.3618 8.99609C18.2023 8.76823 17.9927 8.58822 17.7329 8.45605C17.5916 8.3877 17.4412 8.33529 17.2817 8.29883C17.1268 8.26237 16.9604 8.24414 16.7827 8.24414C16.4318 8.24414 16.1196 8.29199 15.8462 8.3877C15.5773 8.4834 15.3608 8.60645 15.1968 8.75684C14.978 8.9528 14.8049 9.19661 14.6772 9.48828C14.5496 9.77539 14.4858 10.0716 14.4858 10.377C14.4858 10.7096 14.5382 11.0127 14.6431 11.2861C14.7524 11.5596 14.8983 11.7829 15.0806 11.9561C15.231 12.0928 15.3973 12.1999 15.5796 12.2773C15.7619 12.3503 15.9601 12.389 16.1743 12.3936L16.3794 12.4209L16.1948 13.2822L16.0171 13.2686C15.7664 13.264 15.5295 13.2344 15.3062 13.1797C15.0874 13.1204 14.8846 13.0361 14.6978 12.9268C14.5246 12.8265 14.3651 12.708 14.2192 12.5713C14.0734 12.43 13.9481 12.2728 13.8433 12.0996C13.6974 11.8717 13.5858 11.6143 13.5083 11.3271C13.4354 11.0355 13.3989 10.7233 13.3989 10.3906C13.3989 9.89844 13.4878 9.4541 13.6655 9.05762C13.8478 8.66113 14.0871 8.34212 14.3833 8.10059C14.7114 7.82259 15.0783 7.61751 15.4839 7.48535C15.8895 7.34863 16.3133 7.28027 16.7554 7.28027C17.1336 7.28027 17.4823 7.32357 17.8013 7.41016C18.1203 7.49674 18.4074 7.62435 18.6626 7.79297C18.8677 7.92969 19.0545 8.09831 19.2231 8.29883C19.3963 8.49935 19.5444 8.72721 19.6675 8.98242C19.8407 9.34245 19.9728 9.75944 20.064 10.2334C20.1551 10.7028 20.2007 11.2337 20.2007 11.8262C20.2007 12.4642 20.1483 13.0316 20.0435 13.5283C19.9432 14.0205 19.7996 14.4443 19.6128 14.7998C19.4624 15.0687 19.2847 15.3011 19.0796 15.4971C18.8745 15.693 18.6535 15.8503 18.4165 15.9688C18.1841 16.1055 17.9266 16.208 17.644 16.2764C17.366 16.3447 17.063 16.3789 16.7349 16.3789ZM22.1558 16.2422V7.41699H23.3042V16.2422H22.1558ZM29.0669 16.3789C28.7479 16.3789 28.4425 16.347 28.1509 16.2832C27.8592 16.2194 27.5949 16.1169 27.3579 15.9756C27.1118 15.8343 26.8862 15.6543 26.6812 15.4355C26.4806 15.2168 26.3075 14.9502 26.1616 14.6357C25.9839 14.2712 25.8517 13.8564 25.7651 13.3916C25.6831 12.9222 25.6421 12.3913 25.6421 11.7988V7.41699H26.7974V11.7988C26.7974 12.487 26.8566 13.0771 26.9751 13.5693C27.0981 14.057 27.2782 14.4466 27.5151 14.7383C27.6838 14.9479 27.9002 15.112 28.1646 15.2305C28.4289 15.349 28.7319 15.4082 29.0737 15.4082C29.4292 15.4082 29.7414 15.3467 30.0103 15.2236C30.2791 15.096 30.4979 14.9229 30.6665 14.7041C30.9354 14.3669 31.1154 13.9408 31.2065 13.4258C31.2977 12.9062 31.3433 12.3662 31.3433 11.8057C31.3433 11.2542 31.3 10.7301 31.2134 10.2334C31.1268 9.73665 30.9627 9.31966 30.7212 8.98242C30.5298 8.72266 30.2905 8.53353 30.0034 8.41504C29.7209 8.29655 29.4155 8.2373 29.0874 8.2373C28.9963 8.2373 28.9028 8.24414 28.8071 8.25781C28.716 8.26693 28.6226 8.2806 28.5269 8.29883V7.3418C28.6545 7.31901 28.7798 7.30306 28.9028 7.29395C29.0304 7.28483 29.1535 7.28027 29.272 7.28027C29.591 7.28027 29.8918 7.31445 30.1743 7.38281C30.4569 7.44661 30.7166 7.55143 30.9536 7.69727C31.1997 7.83854 31.4162 8.02311 31.603 8.25098C31.7944 8.47428 31.9539 8.74316 32.0815 9.05762C32.2274 9.40397 32.3368 9.80501 32.4097 10.2607C32.4871 10.7165 32.5259 11.2292 32.5259 11.7988C32.5259 12.2637 32.4985 12.6921 32.4438 13.084C32.3892 13.4714 32.3071 13.8268 32.1978 14.1504C32.0565 14.5605 31.8719 14.9137 31.644 15.21C31.4207 15.5062 31.1541 15.7477 30.8442 15.9346C30.5981 16.0804 30.3247 16.1898 30.0239 16.2627C29.7277 16.3402 29.4087 16.3789 29.0669 16.3789ZM33.9546 16.2422L34.5698 9.67285C34.5789 9.58626 34.5835 9.51107 34.5835 9.44727C34.5881 9.37891 34.5903 9.31283 34.5903 9.24902C34.5903 9.1123 34.5812 8.9847 34.563 8.86621C34.5493 8.74316 34.5243 8.60417 34.4878 8.44922C34.4787 8.40365 34.4559 8.32845 34.4194 8.22363C34.383 8.11426 34.3465 8.00944 34.3101 7.90918C34.2782 7.80436 34.2576 7.736 34.2485 7.7041C34.2303 7.64941 34.2098 7.59701 34.187 7.54688C34.1688 7.49219 34.1506 7.4375 34.1323 7.38281H35.2466C35.3286 7.5651 35.397 7.736 35.4517 7.89551C35.5063 8.05046 35.5474 8.19629 35.5747 8.33301H35.6636C35.7228 8.24186 35.839 8.12793 36.0122 7.99121C36.1899 7.85449 36.3677 7.74056 36.5454 7.64941C36.7231 7.55371 36.9578 7.4694 37.2495 7.39648C37.5412 7.31901 37.8534 7.28027 38.186 7.28027C38.4914 7.28027 38.7694 7.31901 39.02 7.39648C39.2707 7.47396 39.494 7.58105 39.6899 7.71777C39.8267 7.81803 39.9497 7.93197 40.0591 8.05957C40.173 8.18262 40.271 8.31706 40.353 8.46289C40.4897 8.7181 40.5923 9.01204 40.6606 9.34473C40.7336 9.67285 40.77 10.0374 40.77 10.4385V16.2422H37.7554V15.3057H39.6147V10.4385C39.6147 10.0876 39.576 9.77767 39.4985 9.50879C39.4211 9.23535 39.3049 9.00977 39.1499 8.83203C39.0588 8.71354 38.9517 8.611 38.8286 8.52441C38.7101 8.43327 38.5711 8.36491 38.4116 8.31934C38.2567 8.26921 38.0789 8.24414 37.8784 8.24414C37.5868 8.24414 37.311 8.28743 37.0513 8.37402C36.7915 8.46061 36.5819 8.56087 36.4224 8.6748C36.272 8.78418 36.1353 8.90723 36.0122 9.04395C35.8937 9.17611 35.798 9.31738 35.7251 9.46777L35.0962 16.2422H33.9546ZM46.8062 16.2422V7.44434C46.8654 7.43522 46.9588 7.42611 47.0864 7.41699C47.214 7.40788 47.3758 7.39421 47.5718 7.37598C47.9956 7.34408 48.3898 7.32129 48.7544 7.30762C49.119 7.28939 49.4517 7.28027 49.7524 7.28027C50.2765 7.28027 50.7004 7.30306 51.0239 7.34863C51.3475 7.39421 51.6506 7.47396 51.9331 7.58789C52.2157 7.70638 52.4504 7.85677 52.6372 8.03906C52.8241 8.2168 52.9722 8.4515 53.0815 8.74316C53.1499 8.9209 53.1978 9.11003 53.2251 9.31055C53.257 9.50651 53.2729 9.72754 53.2729 9.97363V16.2422H52.1108V9.97363C52.1108 9.42676 51.9855 9.02344 51.7349 8.76367C51.4842 8.50391 51.1105 8.34212 50.6138 8.27832C50.509 8.26465 50.3768 8.25326 50.2173 8.24414C50.0623 8.23503 49.8823 8.23047 49.6772 8.23047C49.4676 8.23047 49.2192 8.2373 48.9321 8.25098C48.645 8.26465 48.3192 8.28516 47.9546 8.3125V16.2422H46.8062ZM55.5972 16.2422V7.41699H56.7456V16.2422H55.5972ZM61.1069 16.2422L61.7563 12.8652L63.0552 8.36719H58.3247V5.54395H59.4731V7.38281H64.1899V8.36035L62.9116 12.8174L62.2622 16.2422H61.1069Z" fill="white"/>
<circle cx="73.4282" cy="11.7422" r="5.29688" fill="#67B946"/>
</svg>
