<svg viewBox="0 0 119 103" fill="none" xmlns="http://www.w3.org/2000/svg">
<path d="M13.3154 40.8987C14.8509 39.6673 16.3865 38.4396 17.9183 37.2082C21.6199 34.2447 25.3178 31.2775 29.0193 28.314C33.4813 24.7385 37.9432 21.163 42.4051 17.5876C46.2625 14.498 50.1199 11.4047 53.9772 8.31506C55.2494 7.29508 56.5216 6.27882 57.7901 5.25884C58.1869 4.93986 58.5838 4.6246 58.977 4.30563C59.1661 4.15356 59.448 3.99778 59.6001 3.80491C59.6186 3.77895 59.6557 3.7604 59.678 3.74186H59.3108C60.8463 4.97325 62.3818 6.20093 63.9136 7.43232C67.6152 10.3958 71.3131 13.363 75.0147 16.3265C79.4766 19.902 83.9385 23.4775 88.4005 27.0529C92.2578 30.1425 96.1152 33.2359 99.9726 36.3255C101.842 37.8239 103.674 39.4076 105.599 40.8319C105.625 40.8504 105.651 40.8727 105.677 40.8949C105.937 41.1026 106.308 40.7317 106.044 40.5203C104.509 39.2889 102.973 38.0613 101.441 36.8299C97.7397 33.8664 94.0419 30.8992 90.3403 27.9357C85.8784 24.3602 81.4164 20.7847 76.9545 17.2092C73.0971 14.1196 69.2398 11.0263 65.3824 7.93674C63.5131 6.4383 61.6808 4.85456 59.7558 3.4303C59.7299 3.41176 59.7039 3.3895 59.678 3.36725C59.5556 3.27081 59.4332 3.27081 59.3108 3.36725C57.7752 4.59864 56.2397 5.82632 54.7079 7.05771C51.0063 10.0212 47.3084 12.9884 43.6068 15.9519C39.1449 19.5274 34.683 23.1029 30.2211 26.6783C26.3637 29.7679 22.5063 32.8612 18.649 35.9508C17.3768 36.9708 16.1046 37.9871 14.8361 39.0071C14.2427 39.4818 13.5676 39.9232 13.0261 40.4573C13.0039 40.4795 12.9742 40.5018 12.9482 40.5203C12.6849 40.7317 13.0558 41.1026 13.3154 40.8949V40.8987Z" fill="#6B4135"/>
<path opacity="0.3" d="M61.5388 7.05606C62.6657 5.92916 62.6657 4.10209 61.5388 2.9752C60.4119 1.8483 58.5848 1.8483 57.4579 2.97519C56.331 4.10209 56.331 5.92916 57.4579 7.05606C58.5848 8.18295 60.4119 8.18295 61.5388 7.05606Z" fill="#6E3E31"/>
<path d="M111.563 32.877H7.4368C4.33608 32.877 1.79541 35.4139 1.79541 38.5183V95.7075C1.79541 98.8082 4.33237 101.349 7.4368 101.349H111.563C114.664 101.349 117.205 98.8119 117.205 95.7075V38.5183C117.205 35.4176 114.668 32.877 111.563 32.877ZM13.1301 43.9817C11.9989 43.9817 11.0828 43.0656 11.0828 41.9343C11.0828 40.8031 11.9989 39.887 13.1301 39.887C14.2614 39.887 15.1775 40.8031 15.1775 41.9343C15.1775 43.0656 14.2614 43.9817 13.1301 43.9817ZM105.863 43.9817C104.731 43.9817 103.815 43.0656 103.815 41.9343C103.815 40.8031 104.731 39.887 105.863 39.887C106.994 39.887 107.91 40.8031 107.91 41.9343C107.91 43.0656 106.994 43.9817 105.863 43.9817Z" fill="#EDE8E5"/>
<path d="M1.79541 38.5182V61.9516C14.521 61.8033 12.4217 50.1978 16.7427 47.0414C21.327 43.6922 32.0757 49.8603 41.4187 45.454C48.0504 42.3236 51.1289 36.1778 52.3565 32.873H7.4368C4.33608 32.873 1.79541 35.41 1.79541 38.5144V38.5182ZM13.1301 39.8831C14.2614 39.8831 15.1775 40.7992 15.1775 41.9304C15.1775 43.0617 14.2614 43.9778 13.1301 43.9778C11.9989 43.9778 11.0828 43.0617 11.0828 41.9304C11.0828 40.7992 11.9989 39.8831 13.1301 39.8831Z" fill="#E2DEDC"/>
<path d="M117.201 95.7066V63.7832C114.646 64.2246 110.962 65.9789 107.331 71.6723C100.811 81.8943 96.4046 82.777 85.1218 82.9513C74.1729 83.122 56.0841 84.9579 52.2935 101.344H111.563C114.664 101.344 117.205 98.8073 117.205 95.7029L117.201 95.7066Z" fill="#E2DEDC"/>
<path d="M111.563 102.595H7.43669C3.63867 102.595 0.549072 99.5056 0.549072 95.7076V38.5185C0.549072 34.7205 3.63867 31.6309 7.43669 31.6309H111.563C115.361 31.6309 118.451 34.7205 118.451 38.5185V95.7113C118.451 99.5093 115.361 102.599 111.563 102.599V102.595ZM7.43669 34.1233C5.01471 34.1233 3.04152 36.0928 3.04152 38.5185V95.7113C3.04152 98.1333 5.011 100.106 7.43669 100.106H111.563C113.985 100.106 115.958 98.137 115.958 95.7113V38.5185C115.958 36.0965 113.989 34.1233 111.563 34.1233H7.43669Z" fill="white"/>
<path d="M111.563 102.595H7.43669C3.63867 102.595 0.549072 99.5056 0.549072 95.7076V38.5185C0.549072 34.7205 3.63867 31.6309 7.43669 31.6309H111.563C115.361 31.6309 118.451 34.7205 118.451 38.5185V95.7113C118.451 99.5093 115.361 102.599 111.563 102.599V102.595ZM7.43669 34.1233C5.01471 34.1233 3.04152 36.0928 3.04152 38.5185V95.7113C3.04152 98.1333 5.011 100.106 7.43669 100.106H111.563C113.985 100.106 115.958 98.137 115.958 95.7113V38.5185C115.958 36.0965 113.989 34.1233 111.563 34.1233H7.43669Z" fill="white"/>
<path opacity="0.05" d="M111.563 31.6309H103.018C107.532 37.5949 110.072 44.3157 110.072 51.4258C110.072 76.0758 79.5842 96.06 41.9749 96.06C26.3897 96.06 12.0284 92.6254 0.549072 86.8505V95.7113C0.549072 99.5093 3.63867 102.599 7.43669 102.599H111.563C115.361 102.599 118.451 99.5093 118.451 95.7113V38.5185C118.451 34.7205 115.361 31.6309 111.563 31.6309Z" fill="#6E3E31"/>
<path opacity="0.2" d="M0.549072 38.5185V65.813C8.27122 71.6918 18.6453 75.2895 30.0542 75.2895C53.9105 75.2895 73.2492 59.5597 73.2492 40.1541C73.2492 37.2129 72.8042 34.3607 71.9659 31.6309H7.43669C3.63867 31.6309 0.549072 34.7205 0.549072 38.5185Z" fill="white"/>
<path d="M13.3154 40.8987C14.8509 39.6673 16.3865 38.4396 17.9183 37.2082C21.6199 34.2447 25.3178 31.2775 29.0193 28.314C33.4813 24.7385 37.9432 21.163 42.4051 17.5876C46.2625 14.498 50.1199 11.4047 53.9772 8.31506C55.2494 7.29508 56.5216 6.27882 57.7901 5.25884C58.1869 4.93986 58.5838 4.6246 58.977 4.30563C59.1661 4.15356 59.448 3.99778 59.6001 3.80491C59.6186 3.77895 59.6557 3.7604 59.678 3.74186H59.3108C60.8463 4.97325 62.3818 6.20093 63.9136 7.43232C67.6152 10.3958 71.3131 13.363 75.0147 16.3265C79.4766 19.902 83.9385 23.4775 88.4005 27.0529C92.2578 30.1425 96.1152 33.2359 99.9726 36.3255C101.842 37.8239 103.674 39.4076 105.599 40.8319C105.625 40.8504 105.651 40.8727 105.677 40.8949C105.937 41.1026 106.308 40.7317 106.044 40.5203C104.509 39.2889 102.973 38.0613 101.441 36.8299C97.7397 33.8664 94.0419 30.8992 90.3403 27.9357C85.8784 24.3602 81.4164 20.7847 76.9545 17.2092C73.0971 14.1196 69.2398 11.0263 65.3824 7.93674C63.5131 6.4383 61.6808 4.85456 59.7558 3.4303C59.7299 3.41176 59.7039 3.3895 59.678 3.36725C59.5556 3.27081 59.4332 3.27081 59.3108 3.36725C57.7752 4.59864 56.2397 5.82632 54.7079 7.05771C51.0063 10.0212 47.3084 12.9884 43.6068 15.9519C39.1449 19.5274 34.683 23.1029 30.2211 26.6783C26.3637 29.7679 22.5063 32.8612 18.649 35.9508C17.3768 36.9708 16.1046 37.9871 14.8361 39.0071C14.2427 39.4818 13.5676 39.9232 13.0261 40.4573C13.0039 40.4795 12.9742 40.5018 12.9482 40.5203C12.6849 40.7317 13.0558 41.1026 13.3154 40.8949V40.8987Z" fill="#4F342D"/>
<path d="M62.1037 4.1877C62.1037 5.6268 60.9391 6.79142 59.5 6.79142C58.0609 6.79142 56.8962 5.6268 56.8962 4.1877C56.8962 2.74861 58.0609 1.58398 59.5 1.58398C60.9391 1.58398 62.1037 2.74861 62.1037 4.1877Z" fill="white"/>
<g filter="url(#filter0_d_1609_14418)">
<rect x="15.9309" y="67.5098" width="88.6218" height="22.6003" rx="6.59176" fill="#FCE149"/>
</g>
<path d="M24.2549 52.503C23.9069 52.503 23.6609 52.437 23.5169 52.305C23.3729 52.161 23.3009 51.915 23.3009 51.567C23.3009 51.327 23.3309 51.135 23.3909 50.991C23.4509 50.847 23.5529 50.745 23.6969 50.685C23.8409 50.625 24.0329 50.595 24.2729 50.595C24.6209 50.595 24.8669 50.667 25.0109 50.811C25.1549 50.943 25.2269 51.189 25.2269 51.549C25.2269 51.789 25.1969 51.981 25.1369 52.125C25.0769 52.269 24.9749 52.371 24.8309 52.431C24.6989 52.479 24.5069 52.503 24.2549 52.503ZM24.2549 58.821C23.8949 58.821 23.6429 58.749 23.4989 58.605C23.3669 58.461 23.3009 58.221 23.3009 57.885C23.3009 57.633 23.3309 57.441 23.3909 57.309C23.4509 57.165 23.5529 57.063 23.6969 57.003C23.8409 56.931 24.0269 56.895 24.2549 56.895C24.6149 56.895 24.8609 56.967 24.9929 57.111C25.1369 57.255 25.2089 57.507 25.2089 57.867C25.2089 58.107 25.1789 58.299 25.1189 58.443C25.0709 58.575 24.9749 58.671 24.8309 58.731C24.6869 58.791 24.4949 58.821 24.2549 58.821ZM30.0397 58.749C29.7517 58.605 29.5657 58.449 29.4817 58.281C29.3977 58.113 29.4277 57.921 29.5717 57.705C30.1237 56.853 30.6157 56.061 31.0477 55.329C31.4917 54.585 31.8817 53.883 32.2177 53.223C32.5657 52.551 32.8717 51.885 33.1357 51.225C33.3997 50.565 33.6277 49.887 33.8197 49.191L35.0257 50.109C34.7497 51.009 34.4257 51.873 34.0537 52.701C33.6817 53.529 33.2557 54.393 32.7757 55.293C32.2957 56.193 31.7317 57.201 31.0837 58.317C31.0117 58.461 30.9217 58.581 30.8137 58.677C30.7177 58.773 30.6037 58.833 30.4717 58.857C30.3517 58.881 30.2077 58.845 30.0397 58.749ZM34.9897 50.163L33.8917 49.767H28.4917C28.1917 49.767 27.9697 49.701 27.8257 49.569C27.6817 49.437 27.5977 49.221 27.5737 48.921L27.4297 46.113C27.4297 45.957 27.4477 45.825 27.4837 45.717C27.5317 45.597 27.6217 45.507 27.7537 45.447C27.8857 45.375 28.0657 45.339 28.2937 45.339C28.5097 45.339 28.6657 45.375 28.7617 45.447C28.8577 45.519 28.9237 45.621 28.9597 45.753C29.0077 45.873 29.0317 46.017 29.0317 46.185L29.1397 48.147H33.7117C34.0957 48.147 34.4017 48.231 34.6297 48.399C34.8577 48.567 35.0017 48.807 35.0617 49.119C35.1337 49.419 35.1097 49.767 34.9897 50.163ZM42.4139 58.875C41.5499 58.875 40.7819 58.731 40.1099 58.443C39.4379 58.155 38.8679 57.759 38.3999 57.255C37.9439 56.739 37.5959 56.139 37.3559 55.455C37.1279 54.771 37.0139 54.021 37.0139 53.205V48.957C37.0139 48.813 37.0319 48.681 37.0679 48.561C37.1159 48.429 37.1999 48.327 37.3199 48.255C37.4399 48.183 37.6079 48.147 37.8239 48.147C38.0399 48.147 38.2019 48.183 38.3099 48.255C38.4299 48.327 38.5139 48.429 38.5619 48.561C38.6099 48.681 38.6339 48.819 38.6339 48.975V53.205C38.6339 54.033 38.7839 54.753 39.0839 55.365C39.3839 55.977 39.8219 56.451 40.3979 56.787C40.9739 57.123 41.6639 57.291 42.4679 57.291C43.3199 57.291 44.0339 57.117 44.6099 56.769C45.1859 56.421 45.6179 55.941 45.906 55.329C46.2059 54.705 46.3559 53.991 46.3559 53.187V48.849C46.3559 48.729 46.3799 48.615 46.4279 48.507C46.476 48.399 46.554 48.315 46.662 48.255C46.7819 48.183 46.9499 48.147 47.166 48.147C47.382 48.147 47.544 48.189 47.652 48.273C47.772 48.345 47.8499 48.441 47.8859 48.561C47.9339 48.681 47.9579 48.819 47.9579 48.975V53.241C47.9579 54.045 47.8379 54.789 47.5979 55.473C47.358 56.157 46.998 56.757 46.5179 57.273C46.0379 57.777 45.4559 58.173 44.7719 58.461C44.0879 58.737 43.3019 58.875 42.4139 58.875ZM39.0479 56.679L38.7779 55.581H39.2279C39.5519 55.581 39.8519 55.467 40.1279 55.239C40.4039 54.999 40.6559 54.675 40.8839 54.267C41.1119 53.859 41.2919 53.397 41.4239 52.881C41.5559 52.353 41.6279 51.807 41.6399 51.243L41.7119 48.885C41.7239 48.753 41.7539 48.633 41.8019 48.525C41.8499 48.405 41.9279 48.315 42.0359 48.255C42.1559 48.183 42.3239 48.147 42.5399 48.147C42.7679 48.147 42.9419 48.183 43.0619 48.255C43.1819 48.327 43.2599 48.423 43.2959 48.543C43.3319 48.651 43.3439 48.777 43.3319 48.921L43.2239 51.207C43.1759 51.975 43.0559 52.689 42.8639 53.349C42.6839 54.009 42.4259 54.591 42.0899 55.095C41.7659 55.599 41.3819 55.989 40.9379 56.265C40.5059 56.541 40.0199 56.679 39.4799 56.679H39.0479ZM61.3379 58.803C61.1219 58.803 60.9539 58.773 60.8339 58.713C60.7259 58.653 60.6479 58.569 60.5999 58.461C60.5519 58.341 60.5279 58.221 60.5279 58.101V53.691C60.5279 53.043 60.4559 52.473 60.3119 51.981C60.1799 51.489 59.9699 51.081 59.6819 50.757C59.4059 50.421 59.0579 50.175 58.6379 50.019C58.2299 49.851 57.7499 49.767 57.1979 49.767H55.0199C54.8519 49.767 54.7079 49.749 54.5879 49.713C54.4679 49.665 54.3719 49.581 54.2999 49.461C54.2279 49.341 54.1919 49.173 54.1919 48.957C54.1919 48.729 54.2279 48.561 54.2999 48.453C54.3719 48.345 54.4679 48.267 54.5879 48.219C54.7079 48.171 54.8459 48.147 55.0019 48.147H57.1439C57.9719 48.147 58.6919 48.267 59.3039 48.507C59.9279 48.735 60.4499 49.083 60.8699 49.551C61.2899 50.007 61.6019 50.577 61.8059 51.261C62.0219 51.945 62.1299 52.743 62.1299 53.655V57.975C62.1299 58.131 62.1059 58.275 62.0579 58.407C62.0219 58.527 61.9439 58.623 61.8239 58.695C61.7159 58.767 61.5539 58.803 61.3379 58.803ZM64.238 49.767C64.082 49.767 63.938 49.749 63.806 49.713C63.686 49.665 63.59 49.581 63.518 49.461C63.446 49.341 63.41 49.173 63.41 48.957C63.41 48.729 63.446 48.561 63.518 48.453C63.59 48.345 63.686 48.267 63.806 48.219C63.938 48.171 64.076 48.147 64.22 48.147H71.744C71.9 48.147 72.032 48.171 72.14 48.219C72.26 48.267 72.356 48.345 72.428 48.453C72.5 48.561 72.536 48.729 72.536 48.957C72.536 49.173 72.5 49.341 72.428 49.461C72.356 49.581 72.26 49.665 72.14 49.713C72.02 49.749 71.882 49.767 71.726 49.767H64.238ZM69.692 58.803C69.476 58.803 69.314 58.767 69.206 58.695C69.098 58.623 69.02 58.527 68.972 58.407C68.924 58.275 68.9 58.131 68.9 57.975V49.533L70.502 49.605V58.101C70.502 58.221 70.478 58.341 70.43 58.461C70.394 58.569 70.316 58.653 70.196 58.713C70.088 58.773 69.92 58.803 69.692 58.803ZM75.6207 58.803C75.4047 58.803 75.2367 58.767 75.1167 58.695C75.0087 58.623 74.9307 58.527 74.8827 58.407C74.8347 58.275 74.8107 58.137 74.8107 57.993V48.957C74.8107 48.813 74.8347 48.681 74.8827 48.561C74.9307 48.441 75.0087 48.345 75.1167 48.273C75.2367 48.201 75.4047 48.165 75.6207 48.165L79.1487 48.147C79.9647 48.147 80.6847 48.261 81.3087 48.489C81.9327 48.717 82.4487 49.065 82.8567 49.533C83.2767 49.989 83.5887 50.559 83.7927 51.243C84.0087 51.927 84.1167 52.731 84.1167 53.655V57.975C84.1167 58.131 84.0987 58.275 84.0627 58.407C84.0267 58.527 83.9487 58.623 83.8287 58.695C83.7207 58.767 83.5527 58.803 83.3247 58.803C83.1087 58.803 82.9407 58.773 82.8207 58.713C82.7127 58.653 82.6347 58.569 82.5867 58.461C82.5507 58.341 82.5327 58.221 82.5327 58.101V53.691C82.5327 53.043 82.4607 52.473 82.3167 51.981C82.1727 51.489 81.9627 51.081 81.6867 50.757C81.4107 50.421 81.0627 50.175 80.6427 50.019C80.2347 49.851 79.7547 49.767 79.2027 49.767H76.4307V57.975C76.4307 58.131 76.4067 58.275 76.3587 58.407C76.3227 58.527 76.2447 58.623 76.1247 58.695C76.0167 58.767 75.8487 58.803 75.6207 58.803ZM94.5637 58.803C94.3477 58.803 94.1797 58.773 94.0597 58.713C93.9517 58.653 93.8737 58.569 93.8257 58.461C93.7777 58.341 93.7537 58.221 93.7537 58.101V53.691C93.7537 52.815 93.6277 52.089 93.3757 51.513C93.1357 50.937 92.7697 50.505 92.2777 50.217C91.7857 49.917 91.1677 49.767 90.4237 49.767H87.0397C86.8837 49.767 86.7457 49.749 86.6257 49.713C86.5057 49.665 86.4097 49.581 86.3377 49.461C86.2657 49.341 86.2297 49.173 86.2297 48.957C86.2297 48.729 86.2657 48.561 86.3377 48.453C86.4097 48.345 86.5057 48.267 86.6257 48.219C86.7457 48.171 86.8777 48.147 87.0217 48.147H90.3697C91.4737 48.147 92.3917 48.357 93.1237 48.777C93.8677 49.185 94.4257 49.797 94.7977 50.613C95.1697 51.417 95.3557 52.431 95.3557 53.655V57.975C95.3557 58.131 95.3317 58.275 95.2837 58.407C95.2477 58.527 95.1697 58.623 95.0497 58.695C94.9417 58.767 94.7797 58.803 94.5637 58.803ZM87.1837 58.803C86.9677 58.803 86.8057 58.767 86.6977 58.695C86.5897 58.623 86.5117 58.527 86.4637 58.407C86.4277 58.275 86.4097 58.137 86.4097 57.993V53.547C86.4097 53.391 86.4277 53.253 86.4637 53.133C86.5117 53.013 86.5897 52.923 86.6977 52.863C86.8177 52.791 86.9857 52.755 87.2017 52.755C87.4297 52.755 87.5977 52.791 87.7057 52.863C87.8257 52.935 87.9037 53.031 87.9397 53.151C87.9757 53.271 87.9937 53.409 87.9937 53.565V58.011C87.9937 58.155 87.9697 58.287 87.9217 58.407C87.8857 58.527 87.8077 58.623 87.6877 58.695C87.5797 58.767 87.4117 58.803 87.1837 58.803Z" fill="black"/>
<defs>
<filter id="filter0_d_1609_14418" x="13.1059" y="65.6264" width="94.2719" height="28.2497" filterUnits="userSpaceOnUse" color-interpolation-filters="sRGB">
<feFlood flood-opacity="0" result="BackgroundImageFix"/>
<feColorMatrix in="SourceAlpha" type="matrix" values="0 0 0 0 0 0 0 0 0 0 0 0 0 0 0 0 0 0 127 0" result="hardAlpha"/>
<feOffset dy="0.94168"/>
<feGaussianBlur stdDeviation="1.41252"/>
<feComposite in2="hardAlpha" operator="out"/>
<feColorMatrix type="matrix" values="0 0 0 0 0 0 0 0 0 0 0 0 0 0 0 0 0 0 0.25 0"/>
<feBlend mode="normal" in2="BackgroundImageFix" result="effect1_dropShadow_1609_14418"/>
<feBlend mode="normal" in="SourceGraphic" in2="effect1_dropShadow_1609_14418" result="shape"/>
</filter>
</defs>
</svg>
