<svg viewBox="0 0 73 58" fill="none" xmlns="http://www.w3.org/2000/svg">
<path fill-rule="evenodd" clip-rule="evenodd" d="M68.0268 57.613L67.5631 57.6911L62.9198 44.7143L62.5323 43.6394L61.8717 41.7959L38.5725 42.3604L38.5344 43.6394L38.5154 44.2519L38.1279 57.613L37.5435 57.6911L35.8158 44.1979L35.7459 43.6394L35.5553 42.1802H11.3605L11.1128 43.6394L11.0937 43.7355L8.69903 57.637L8.26074 57.613L8.54023 43.6875L8.62281 39.3218L62.8118 37.8086L63.5423 40.5829L63.9679 42.1862L64.6412 44.7443L68.0268 57.613Z" fill="url(#paint0_linear_1735_13785)"/>
<path d="M63.9677 40.582H9.24512V43.6386H63.9677V40.582Z" fill="url(#paint1_radial_1735_13785)"/>
<g style="mix-blend-mode:multiply" opacity="0.48">
<path fill-rule="evenodd" clip-rule="evenodd" d="M64.6403 44.7424L62.9189 44.7124L62.5314 43.6375H38.5335L38.5145 44.25L35.8149 44.1959L35.745 43.6375H11.1119L11.0928 43.7336L8.53931 43.6855L8.62188 39.3199L62.8109 37.8066L63.5414 40.5809H63.967V42.1843L64.6403 44.7424Z" fill="#A7206E"/>
</g>
<path fill-rule="evenodd" clip-rule="evenodd" d="M33.8269 37.1525C33.8269 37.1525 41.1952 2.74395 45.1017 1.45288C47.7188 0.588167 59.0253 0.215858 65.9363 0.576157C66.8256 0.624197 68.4644 1.30876 69.1123 1.60301C72.5488 3.13428 65.2313 28.9137 65.2313 28.9137L33.8333 37.1525H33.8269Z" fill="url(#paint2_linear_1735_13785)"/>
<path fill-rule="evenodd" clip-rule="evenodd" d="M37.2447 40.8938L9.16881 40.6356L0.371272 21.5337L0.11084 20.9632C1.01283 19.3899 20.8565 19.8763 34.7801 21.912C36.2411 22.1222 37.6385 22.3564 38.9343 22.6026C52.642 25.2028 37.2447 40.8938 37.2447 40.8938Z" fill="url(#paint3_linear_1735_13785)"/>
<path fill-rule="evenodd" clip-rule="evenodd" d="M62.6583 28.8767L31.2603 37.1155C31.2603 37.1155 33.3755 27.2193 35.9417 17.8455V17.8215C38.1649 9.72078 40.7184 2.01039 42.5287 1.4159C45.0822 0.569197 55.9251 0.196888 62.8679 0.515152C63.9541 0.569197 64.945 0.635251 65.7898 0.719321C69.7725 1.11565 62.6583 28.8827 62.6583 28.8827V28.8767Z" fill="url(#paint4_radial_1735_13785)"/>
<path fill-rule="evenodd" clip-rule="evenodd" d="M34.443 35.74L33.4712 39.9435L31.2162 39.9315L10.7373 39.8474C10.7373 39.8474 8.65386 34.2268 10.0704 33.8965L31.8959 35.5418L34.4494 35.734L34.443 35.74Z" fill="url(#paint5_linear_1735_13785)"/>
<path fill-rule="evenodd" clip-rule="evenodd" d="M34.4439 35.7429L33.472 39.9524L31.217 39.9404L31.8904 35.5508L34.4439 35.7429Z" fill="url(#paint6_linear_1735_13785)"/>
<path fill-rule="evenodd" clip-rule="evenodd" d="M34.7801 21.9043L47.5222 35.9199L31.9026 34.2085L34.7801 21.9043Z" fill="url(#paint7_linear_1735_13785)"/>
<path fill-rule="evenodd" clip-rule="evenodd" d="M45.2927 34.753L10.0708 33.9062L31.89 35.5516L45.2927 34.753Z" fill="url(#paint8_linear_1735_13785)"/>
<path fill-rule="evenodd" clip-rule="evenodd" d="M39.6767 23.8266L43.7039 21.4727C43.7039 21.4727 71.7035 22.3914 72.2053 22.9859C72.7071 23.5804 68.2861 41.4092 65.8216 41.7395C63.357 42.0757 33.7439 42.1898 33.7439 42.1898L39.6703 23.8206L39.6767 23.8266Z" fill="url(#paint9_linear_1735_13785)"/>
<path fill-rule="evenodd" clip-rule="evenodd" d="M43.7047 21.4809C43.7047 21.4809 40.6049 31.8996 37.8799 37.9466C36.7747 40.3966 35.7329 42.126 34.9897 42.1501C32.8745 42.2161 17.058 42.2161 10.5154 42.06C9.03542 42.024 8.03815 41.9759 7.77137 41.9219C6.36122 41.6216 0.20612 21.2828 0.11084 20.9645C0.11084 20.9645 2.79774 20.0277 5.02095 22.0874C7.24415 24.1592 9.79131 39.0755 10.255 39.5919C10.3693 39.7181 11.7731 39.8081 13.8248 39.8622C19.3003 40.0243 29.4317 39.9823 32.3028 39.9402C32.7221 39.9402 32.9825 39.9282 33.0587 39.9222C33.2239 39.9102 33.5224 39.1716 33.9163 38.0006C34.1195 37.3821 34.3482 36.6495 34.5959 35.8388C36.0759 30.9208 38.134 23.2464 38.9343 22.5979C40.1158 21.6431 43.7047 21.4749 43.7047 21.4749V21.4809Z" fill="url(#paint10_linear_1735_13785)"/>
<g style="mix-blend-mode:multiply" opacity="0.15">
<path fill-rule="evenodd" clip-rule="evenodd" d="M10.0701 33.902C10.0701 33.902 29.1071 34.0941 30.6887 33.3375C32.2704 32.5809 34.862 21.916 34.862 21.916L31.9019 34.2082L10.0701 33.902Z" fill="#A7206E"/>
</g>
<path fill-rule="evenodd" clip-rule="evenodd" d="M34.7799 21.9047L34.6465 22.7574C34.6465 22.7574 31.083 23.466 21.8345 23.43C12.7193 23.3939 6.13866 22.1329 5.94175 22.0969C3.78841 20.0371 1.17773 20.9679 1.17773 20.9679C2.05431 19.3946 21.2882 19.869 34.7799 21.8987V21.9047Z" fill="url(#paint11_linear_1735_13785)"/>
<path fill-rule="evenodd" clip-rule="evenodd" d="M62.8683 0.515152C59.6605 0.689296 47.4901 1.43992 43.9965 3.1033C40.0519 4.97685 36.1327 17.251 35.9548 17.8215C38.1717 9.72079 40.7252 2.01039 42.5355 1.4159C45.0827 0.569197 55.9256 0.196888 62.8683 0.515152Z" fill="url(#paint12_linear_1735_13785)"/>
<path fill-rule="evenodd" clip-rule="evenodd" d="M37.8852 37.9379C36.78 40.3879 35.7382 42.1174 34.9951 42.1414C32.8798 42.2075 17.0633 42.2075 10.5208 42.0513C10.6033 41.1326 10.7367 39.8535 10.7367 39.8535L13.8302 39.8655L32.3082 39.9436C32.7274 39.9436 32.9878 39.9316 33.064 39.9256C33.2292 39.9135 33.5277 39.1749 33.9216 38.004L34.4488 35.7461L34.6012 35.8422L37.8916 37.9439L37.8852 37.9379Z" fill="url(#paint13_linear_1735_13785)"/>
<defs>
<linearGradient id="paint0_linear_1735_13785" x1="-1.22916" y1="43.6815" x2="70.9177" y2="52.5233" gradientUnits="userSpaceOnUse">
<stop stop-color="#6F5A8E"/>
<stop offset="0.99" stop-color="#593872"/>
</linearGradient>
<radialGradient id="paint1_radial_1735_13785" cx="0" cy="0" r="1" gradientUnits="userSpaceOnUse" gradientTransform="translate(35.9109 60.3504) scale(18.3383 17.3364)">
<stop stop-color="#6F5A8E"/>
<stop offset="0.99" stop-color="#593872"/>
</radialGradient>
<linearGradient id="paint2_linear_1735_13785" x1="91.3988" y1="20.9705" x2="76.1885" y2="20.1099" gradientUnits="userSpaceOnUse">
<stop stop-color="#F8D02D"/>
<stop offset="1" stop-color="#F5833C"/>
</linearGradient>
<linearGradient id="paint3_linear_1735_13785" x1="18.4054" y1="6.31414" x2="24.5048" y2="36.983" gradientUnits="userSpaceOnUse">
<stop stop-color="#F8D02D"/>
<stop offset="1" stop-color="#F5833C"/>
</linearGradient>
<radialGradient id="paint4_radial_1735_13785" cx="0" cy="0" r="1" gradientUnits="userSpaceOnUse" gradientTransform="translate(49.1505 10.0663) rotate(0.794114) scale(22.9877 21.7323)">
<stop stop-color="#FCE747"/>
<stop offset="1" stop-color="#FAA95A"/>
</radialGradient>
<linearGradient id="paint5_linear_1735_13785" x1="20.3158" y1="27.6951" x2="23.0199" y2="41.9568" gradientUnits="userSpaceOnUse">
<stop stop-color="#FCE747"/>
<stop offset="1" stop-color="#FAA95A"/>
</linearGradient>
<linearGradient id="paint6_linear_1735_13785" x1="49.9532" y1="44.7976" x2="43.5764" y2="41.9041" gradientUnits="userSpaceOnUse">
<stop stop-color="#F8D02D"/>
<stop offset="1" stop-color="#F5833C"/>
</linearGradient>
<linearGradient id="paint7_linear_1735_13785" x1="22.2131" y1="9.83644" x2="37.5992" y2="34.649" gradientUnits="userSpaceOnUse">
<stop stop-color="#F8D02D"/>
<stop offset="1" stop-color="#F5833C"/>
</linearGradient>
<linearGradient id="paint8_linear_1735_13785" x1="46.5751" y1="49.617" x2="53.6295" y2="56.0091" gradientUnits="userSpaceOnUse">
<stop stop-color="#FCE747"/>
<stop offset="1" stop-color="#FAA95A"/>
</linearGradient>
<linearGradient id="paint9_linear_1735_13785" x1="47.5606" y1="-10.3027" x2="53.3404" y2="40.7792" gradientUnits="userSpaceOnUse">
<stop stop-color="#F8D02D"/>
<stop offset="1" stop-color="#F5833C"/>
</linearGradient>
<linearGradient id="paint10_linear_1735_13785" x1="21.6401" y1="16.4797" x2="23.4991" y2="52.8118" gradientUnits="userSpaceOnUse">
<stop stop-color="#FCE747"/>
<stop offset="1" stop-color="#FAA95A"/>
</linearGradient>
<linearGradient id="paint11_linear_1735_13785" x1="17.6483" y1="19.0643" x2="19.4266" y2="33.1711" gradientUnits="userSpaceOnUse">
<stop stop-color="#FCE747"/>
<stop offset="1" stop-color="#FAA95A"/>
</linearGradient>
<linearGradient id="paint12_linear_1735_13785" x1="48.7868" y1="-1.67976" x2="50.1191" y2="24.3053" gradientUnits="userSpaceOnUse">
<stop stop-color="#FCE747"/>
<stop offset="1" stop-color="#FAA95A"/>
</linearGradient>
<linearGradient id="paint13_linear_1735_13785" x1="17.1333" y1="24.7804" x2="26.3518" y2="46.9709" gradientUnits="userSpaceOnUse">
<stop stop-color="#F8D02D"/>
<stop offset="1" stop-color="#F5833C"/>
</linearGradient>
</defs>
</svg>
