<svg viewBox="0 0 59 21" fill="none" xmlns="http://www.w3.org/2000/svg">
<path d="M53.0884 20.3789L50.5239 20.2668C35.4803 19.6 20.4184 19.6413 5.37478 20.3789C2.59045 20.3789 0.332764 17.47 0.332764 13.8825V8.32431C0.332764 5.18529 1.22118 3.31486 4.04673 2.24098C4.7657 1.96956 5.503 1.81615 6.24946 1.72765C7.41722 1.59784 9.64743 1.34412 12.2806 1.0491C23.5645 -0.219491 34.9124 -0.219491 46.1963 1.0491L52.2733 1.73355C53.0197 1.81615 53.7616 1.96366 54.4806 2.22328C57.3977 3.26766 58.135 5.18529 58.135 8.33021V13.8884C58.135 17.4759 55.8773 20.3848 53.093 20.3848L53.0884 20.3789Z" fill="#4D4669"/>
<path d="M6.07666 15.7402V12.6367C6.07666 12.3542 6.09033 12.0944 6.11768 11.8574C6.14958 11.6159 6.20199 11.388 6.2749 11.1738C6.35238 10.9596 6.46631 10.75 6.6167 10.5449C6.7443 10.3535 6.91064 10.1917 7.11572 10.0596C7.32536 9.92741 7.57601 9.82715 7.86768 9.75879L6.12451 6.91504H7.38232L10.4585 12.001C10.5223 11.9782 10.5815 11.9531 10.6362 11.9258C10.6909 11.8984 10.741 11.8665 10.7866 11.8301C11.0418 11.6751 11.2218 11.4701 11.3267 11.2148C11.436 10.9596 11.4907 10.6019 11.4907 10.1416V6.91504H12.6187V10.1416C12.6187 10.529 12.589 10.8708 12.5298 11.167C12.4705 11.4587 12.3748 11.7184 12.2427 11.9463C12.1333 12.1377 11.9715 12.3177 11.7573 12.4863C11.5431 12.6504 11.2879 12.7734 10.9917 12.8555L12.7554 15.7402H11.4907L8.40088 10.6201C8.23682 10.6292 8.05225 10.6953 7.84717 10.8184C7.64665 10.9414 7.4917 11.1442 7.38232 11.4268C7.26839 11.7275 7.21143 12.1309 7.21143 12.6367V15.7402H6.07666ZM17.7251 15.877C17.0871 15.877 16.5379 15.7493 16.0776 15.4941C15.745 15.3164 15.4556 15.0749 15.2095 14.7695C14.9679 14.4642 14.772 14.0928 14.6216 13.6553C14.5122 13.3363 14.4279 12.9808 14.3687 12.5889C14.314 12.1969 14.2866 11.7708 14.2866 11.3105C14.2866 10.7728 14.3276 10.2874 14.4097 9.85449C14.4963 9.41699 14.6239 9.02962 14.7925 8.69238C14.9657 8.35514 15.1799 8.06803 15.4351 7.83105L15.4556 7.81055L14.4097 7.8584V6.8877C14.8289 6.86491 15.23 6.84668 15.6128 6.83301C15.9956 6.81478 16.3625 6.80111 16.7134 6.79199C17.0688 6.78288 17.4061 6.77832 17.7251 6.77832C18.0988 6.77832 18.4451 6.82389 18.7642 6.91504C19.0877 7.00618 19.3794 7.14518 19.6392 7.33203C19.8807 7.49154 20.0949 7.69206 20.2817 7.93359C20.4686 8.17057 20.6258 8.44629 20.7534 8.76074C20.8947 9.09798 20.9995 9.47852 21.0679 9.90234C21.1408 10.3262 21.1772 10.7956 21.1772 11.3105C21.1772 11.7116 21.1545 12.0876 21.1089 12.4385C21.0679 12.7848 21.0041 13.1061 20.9175 13.4023C20.7762 13.8854 20.5802 14.3001 20.3296 14.6465C20.0835 14.9883 19.7873 15.2594 19.4409 15.46C18.9578 15.738 18.3859 15.877 17.7251 15.877ZM17.7251 14.9131C18.0806 14.9131 18.3927 14.8493 18.6616 14.7217C18.9305 14.5941 19.1493 14.4163 19.3179 14.1885C19.4865 13.9697 19.6187 13.7054 19.7144 13.3955C19.8146 13.0811 19.883 12.7438 19.9194 12.3838C19.9604 12.0238 19.981 11.666 19.981 11.3105C19.981 10.4492 19.8966 9.77246 19.728 9.28027C19.5594 8.78353 19.3338 8.41439 19.0513 8.17285C18.8918 8.03158 18.7004 7.9222 18.4771 7.84473C18.2537 7.76725 18.019 7.72852 17.7729 7.72852C17.536 7.72852 17.3286 7.73079 17.1509 7.73535C16.9777 7.73991 16.8 7.7513 16.6177 7.76953C16.2257 8.17057 15.9364 8.6582 15.7495 9.23242C15.5672 9.80208 15.4761 10.4948 15.4761 11.3105C15.4761 11.985 15.5308 12.5638 15.6401 13.0469C15.7495 13.5254 15.9159 13.9059 16.1392 14.1885C16.3078 14.4163 16.5243 14.5941 16.7886 14.7217C17.0575 14.8493 17.3696 14.9131 17.7251 14.9131ZM26.6665 15.7402V9.47168C26.6665 8.93392 26.5435 8.53743 26.2974 8.28223C26.0513 8.02246 25.6844 7.8584 25.1968 7.79004C25.0874 7.76725 24.9666 7.7513 24.8345 7.74219C24.7069 7.73307 24.5701 7.72852 24.4243 7.72852C24.2466 7.72852 24.0256 7.73307 23.7612 7.74219C23.4969 7.74674 23.228 7.75814 22.9546 7.77637C22.6812 7.79004 22.4396 7.80371 22.23 7.81738V6.86035C22.6356 6.83301 23.007 6.8125 23.3442 6.79883C23.6815 6.78516 23.9891 6.77832 24.2671 6.77832C24.814 6.77832 25.2492 6.80111 25.5728 6.84668C25.8963 6.89225 26.1994 6.97428 26.4819 7.09277C26.7645 7.21126 26.9992 7.36165 27.186 7.54395C27.3729 7.72168 27.5233 7.95638 27.6372 8.24805C27.701 8.43034 27.7466 8.61947 27.7739 8.81543C27.8058 9.01139 27.8218 9.23014 27.8218 9.47168V15.7402H26.6665ZM30.1255 15.7402V6.91504H31.2739V15.7402H30.1255ZM35.1294 15.877C34.7101 15.877 34.325 15.8564 33.9741 15.8154C33.6232 15.779 33.286 15.722 32.9624 15.6445V14.5986C33.1128 14.6488 33.3019 14.6989 33.5298 14.749C33.7622 14.7946 34.0083 14.8333 34.2681 14.8652C34.5324 14.8926 34.7876 14.9062 35.0337 14.9062C35.3299 14.9062 35.5942 14.8652 35.8267 14.7832C36.0636 14.7012 36.2619 14.5941 36.4214 14.4619C36.5763 14.3343 36.7108 14.1839 36.8247 14.0107C36.9432 13.8376 37.0343 13.6621 37.0981 13.4844C37.1665 13.3021 37.2257 13.0856 37.2759 12.835C37.3306 12.5798 37.3579 12.3109 37.3579 12.0283V10.8184C37.3579 10.3171 37.3055 9.86589 37.2007 9.46484C37.0959 9.0638 36.9318 8.72884 36.7085 8.45996C36.5034 8.21842 36.2459 8.03613 35.936 7.91309C35.6307 7.79004 35.2843 7.72852 34.897 7.72852C34.6281 7.72852 34.3569 7.74902 34.0835 7.79004C33.8146 7.8265 33.5389 7.88346 33.2563 7.96094C33.1834 7.98372 33.1219 8.00195 33.0718 8.01562C33.0216 8.0293 32.9852 8.03841 32.9624 8.04297V7.05859C33.1082 7.00846 33.245 6.96973 33.3726 6.94238C33.5002 6.91504 33.6528 6.8877 33.8306 6.86035C34.0174 6.83301 34.2179 6.81478 34.4321 6.80566C34.6509 6.79199 34.881 6.78516 35.1226 6.78516C35.5874 6.78516 36.0249 6.86491 36.4351 7.02441C36.8498 7.17936 37.1847 7.38216 37.4399 7.63281C37.5675 7.76497 37.6838 7.90853 37.7886 8.06348C37.8934 8.21387 37.9891 8.37793 38.0757 8.55566C38.1759 8.76986 38.258 8.99772 38.3218 9.23926C38.3901 9.47624 38.4403 9.72689 38.4722 9.99121C38.5041 10.251 38.52 10.5267 38.52 10.8184V12.0283C38.52 12.4202 38.4881 12.7826 38.4243 13.1152C38.3651 13.4479 38.2739 13.7578 38.1509 14.0449C38.0461 14.2865 37.9185 14.5029 37.7681 14.6943C37.6177 14.8812 37.4377 15.0452 37.228 15.1865C36.9136 15.4691 36.5672 15.6536 36.189 15.7402C35.8107 15.8314 35.4575 15.877 35.1294 15.877Z" fill="white"/>
<circle cx="47.8667" cy="11.2402" r="5.29688" fill="#9519F7"/>
</svg>
