<svg width="101" height="144" viewBox="0 0 101 144" fill="none" xmlns="http://www.w3.org/2000/svg">
<path d="M50.4862 115.066C29.9396 115.066 11.5041 102.012 4.63534 82.5953C2.76206 77.3025 1.81055 71.861 1.81055 66.3899C1.81055 60.9187 2.70259 55.8043 4.45693 50.6602L4.60561 50.2439C11.4743 30.8569 29.9098 17.7439 50.4862 17.7439C55.8385 17.7439 61.161 18.6657 66.3348 20.4498C70.0219 21.7283 73.6198 23.4827 76.9799 25.6533C90.866 34.6927 99.1322 49.9168 99.1322 66.3899C99.1322 67.9063 99.043 69.4823 98.8943 71.1474C96.4561 96.184 75.6418 115.066 50.4565 115.066H50.4862Z" fill="#181C36"/>
<path d="M50.4861 112.538C31.0099 112.538 13.5259 100.168 7.01401 81.7626C5.22993 76.7374 4.33789 71.5636 4.33789 66.3898C4.33789 61.2159 5.17046 56.3692 6.8356 51.4927L6.95454 51.1656C13.4962 32.6706 30.9802 20.2712 50.4861 20.2712C55.5708 20.2712 60.6257 21.1335 65.5319 22.8284C69.0406 24.0475 72.4303 25.7127 75.6119 27.7644C88.7547 36.328 96.6344 50.7493 96.6344 66.3898C96.6344 67.8468 96.5452 69.3335 96.3965 70.8797C94.1069 94.608 74.3631 112.508 50.4861 112.508V112.538Z" fill="#3D4787"/>
<path d="M74.2436 29.9055C71.2998 27.9728 68.0885 26.3968 64.7285 25.2372C60.2683 23.691 55.5107 22.8287 50.5153 22.8287C31.4851 22.7989 15.3689 34.9902 9.39219 51.9687C9.36246 52.0876 9.30299 52.2065 9.24352 52.3255C7.72705 56.756 6.86475 61.4838 6.86475 66.4197C6.86475 71.3557 7.78652 76.3809 9.39219 80.9303C15.3689 97.8493 31.4851 110.011 50.4558 110.011C73.1136 110.011 91.6978 92.7349 93.8387 70.6718C93.9874 69.2743 94.0469 67.847 94.0469 66.4197C94.0469 51.1064 86.1374 37.6663 74.1841 29.9055H74.2436Z" fill="#2A3069"/>
<path d="M98.5814 109.446C98.5559 113.593 95.2362 116.94 91.1401 117.01L90.9882 117.004L86.6293 116.828C86.6291 116.828 86.6289 116.828 86.6288 116.828C61.0384 115.787 35.4113 115.684 9.80984 116.504C5.64081 116.469 2.2765 113.048 2.30231 108.847L2.34756 101.479C2.35965 99.5097 2.72709 98.0962 3.53376 97.0232C4.34145 95.9488 5.69795 95.0719 7.98917 94.4081C9.1335 94.079 10.3199 93.8921 11.5443 93.7864C12.5184 93.708 13.9273 93.5928 15.6377 93.4529C17.4164 93.3074 19.5212 93.1352 21.8023 92.9501L21.8026 92.9501C40.9403 91.391 60.1764 91.5091 79.2935 93.3032L89.6203 94.2739L89.6218 94.274C90.8468 94.3873 92.042 94.5818 93.186 94.9114L93.1881 94.912C95.5411 95.5844 96.8444 96.4791 97.5892 97.554C98.342 98.6406 98.639 100.074 98.6267 102.078L98.5814 109.446Z" fill="#2A3069" stroke="#181C36" stroke-width="2"/>
<path d="M36.4009 108.05C37.8436 108.05 38.9738 107.917 39.7915 107.651L36.8931 99.7295H38.479L41.0415 107.042C41.5311 106.693 41.9243 106.227 42.2212 105.644C42.5233 105.055 42.742 104.284 42.8774 103.331C43.0181 102.378 43.0884 101.177 43.0884 99.7295H44.5962C44.5962 102.136 44.341 104.021 43.8306 105.386C43.4868 106.292 43.005 107.042 42.3853 107.636C41.7655 108.224 40.966 108.677 39.9868 108.995C39.0129 109.308 37.8175 109.5 36.4009 109.573V108.05ZM47.0962 99.7295C47.5493 99.7295 47.9191 99.766 48.2056 99.8389C48.4972 99.9066 48.7368 100.037 48.9243 100.229C49.1118 100.417 49.2785 100.693 49.4243 101.058C49.5024 101.24 49.5936 101.524 49.6978 101.909C49.8019 102.289 49.9217 102.774 50.0571 103.362L51.4165 109.315H49.9946L49.1118 105.378C48.6743 105.487 48.354 105.62 48.1509 105.776C47.953 105.933 47.7889 106.164 47.6587 106.472C47.591 106.623 47.5259 106.821 47.4634 107.065C47.4061 107.305 47.3488 107.586 47.2915 107.909L47.0337 109.315H45.5571L45.8306 107.894C45.9504 107.274 46.0701 106.774 46.1899 106.394C46.3149 106.008 46.4712 105.696 46.6587 105.456C46.8097 105.258 46.9946 105.086 47.2134 104.94C47.4321 104.789 47.7472 104.654 48.1587 104.534L48.8696 104.323C48.7394 103.771 48.6248 103.31 48.5259 102.94C48.4269 102.565 48.3436 102.282 48.2759 102.089C48.1405 101.703 47.992 101.435 47.8306 101.284C47.6691 101.133 47.4399 101.058 47.1431 101.058H46.0884V99.7295H47.0962ZM54.9556 99.7295V109.315H53.5181V99.7295H54.9556ZM63.5806 103.698V109.315H62.1353V103.683C62.1353 102.735 61.9425 102.06 61.5571 101.659C61.1769 101.258 60.5076 101.058 59.5493 101.058H56.6196V99.7295H59.5649C60.5233 99.7295 61.2967 99.8649 61.8853 100.136C62.4738 100.401 62.9035 100.826 63.1743 101.409C63.4451 101.987 63.5806 102.75 63.5806 103.698Z" fill="white"/>
<path d="M75.5311 50.1792C75.5311 50.1792 78.2311 49.9792 76.6311 48.0792C75.0311 46.1792 71.5311 44.9792 71.5311 44.9792C71.5311 44.9792 74.4311 44.8792 74.5311 43.9792C74.5311 42.9792 72.5311 41.1792 70.0311 40.5792C72.3311 38.7792 72.6311 38.2792 72.1311 37.4792C71.4311 36.6792 68.7311 35.9792 65.5311 37.5792C66.4311 34.9792 65.2311 33.8792 61.4311 35.9792C62.9311 32.5792 61.4311 31.0792 55.3311 35.3792C55.3311 35.3792 56.2311 32.1792 54.5311 32.0792C52.9311 31.9792 51.1311 35.9792 51.1311 35.9792C51.1311 35.9792 49.7311 32.7792 48.4311 32.6792C47.0311 32.5792 46.4311 36.5792 46.4311 36.5792C46.4311 36.5792 44.4311 33.6792 43.1311 33.9792C41.9311 34.2792 40.6311 37.0792 40.6311 38.7792C40.6311 38.7792 39.6311 37.1792 38.2311 37.3792C36.8311 37.5792 35.9311 40.7792 36.3311 42.9792C34.3311 40.0792 28.9311 39.6792 32.0311 47.7792C28.7311 45.6792 25.6311 45.7792 28.8311 50.7792C23.9311 51.2792 23.5311 53.8792 27.9311 54.4792C27.9311 54.4792 22.8311 55.7792 22.6311 58.1792C22.6311 59.8792 24.5311 59.7792 26.0311 59.9792C22.2311 62.5792 22.8311 65.4792 24.9311 65.0792C24.9311 65.0792 21.8311 68.9792 23.3311 70.9792C24.3311 72.0792 25.9311 70.7792 25.9311 70.7792C25.9311 70.7792 24.8311 73.9792 25.1311 75.8792C25.2311 76.2792 25.3311 76.6792 25.5311 76.8792C25.7311 76.9792 25.8311 77.0792 25.9311 77.1792C26.6311 77.5792 27.2311 76.4792 27.3311 76.1792C27.3311 76.5792 27.4311 78.8792 28.1311 79.5792C28.2311 79.6792 28.3311 79.7792 28.5311 79.7792C29.0311 79.7792 29.4311 77.6792 29.5311 77.4792C29.6311 77.7792 30.2311 79.6792 31.0311 80.5792C31.2311 80.7792 31.5311 80.9792 31.7311 81.0792C32.2311 81.1792 32.4311 79.8792 32.4311 79.7792C32.5311 79.8792 32.7311 80.1792 33.0311 80.4792C33.6311 81.1792 34.7311 82.1792 36.2311 82.0792C36.4311 82.2792 41.8311 90.1792 53.1311 88.2792C64.5311 86.2792 69.0311 77.1792 69.0311 77.1792C70.0311 75.3792 70.6311 72.6792 70.8311 69.9792C70.8311 70.0792 70.8311 70.0792 70.8311 70.1792C70.5311 72.7792 69.9311 75.3792 69.0311 77.1792C69.0311 77.1792 70.9311 77.6792 71.5311 74.3792C71.6311 74.8792 71.8311 75.1792 72.0311 75.3792C72.8311 76.3792 74.1311 75.0792 74.4311 73.3792C74.5311 73.6792 74.6311 73.9792 74.8311 74.0792C75.4311 74.8792 76.4311 74.2792 76.5311 70.4792C77.8311 70.7792 78.0311 66.0792 76.3311 63.3792C78.2311 65.2792 78.5311 63.5792 77.4311 61.7792C79.3311 63.1792 80.5311 60.0792 76.6311 54.6792C79.8311 55.0792 80.4311 52.6792 75.5311 50.1792ZM38.1311 72.5792C38.1311 72.6792 38.1311 72.7792 38.2311 72.8792C38.2311 72.9792 38.3311 72.9792 38.4311 72.9792C38.3311 72.8792 38.2311 72.7792 38.1311 72.5792ZM46.3311 70.3792C46.3311 70.4792 46.4311 70.5792 46.4311 70.6792C46.3311 70.5792 46.3311 70.4792 46.3311 70.3792ZM55.1311 66.5792C55.2311 66.7792 55.8311 67.6792 56.5311 68.4792C55.8311 67.6792 55.2311 66.6792 55.1311 66.5792Z" fill="black"/>
<path d="M69.8417 61.625C65.5467 62.0816 63.8663 60.8497 63.8663 60.8497C63.8663 60.8497 66.9473 63.7464 65.6763 64.7364C64.4052 65.7264 58.1322 62.6155 58.1322 62.6155C58.1322 62.6155 58.8402 66.8751 57.5575 66.7996C56.2822 66.7305 54.3736 63.5726 54.3736 63.5726C54.3736 63.5726 53.0933 67.8734 51.9227 67.8436C50.0029 67.7405 50.7898 64.1335 50.7898 64.1335C50.7898 64.1335 46.5636 67.8665 45.8085 67.7244C45.0602 67.5817 46.2835 64.8785 46.2835 64.8785C43.928 67.8395 39.358 70.2589 38.2247 70.1151C37.0853 69.9788 37.2922 69.7184 38.1955 66.4406C36.5429 68.634 33.7141 70.5004 33.4307 69.8811C33.1601 76.5524 35.2858 79.1791 35.2858 79.1791C35.2858 79.1791 40.7171 87.3628 52.1639 85.3702C63.6108 83.3776 68.0744 74.2226 68.0744 74.2226C69.7707 70.9797 70.3605 65.0284 69.8332 61.6049L69.8466 61.6038L69.8417 61.625Z" fill="#EFD8C1"/>
<path d="M74.7368 47.1834C74.7368 47.1834 77.4514 46.9542 75.8886 45.0542C74.3318 43.1468 70.8051 41.9577 70.8051 41.9577C70.8051 41.9577 73.7369 41.8967 73.7794 40.9096C73.8224 39.9295 71.7369 38.075 69.2819 37.4852C71.5599 35.729 71.9238 35.178 71.3385 34.4256C70.7453 33.6601 68.0176 32.9624 64.7805 34.5596C65.671 31.9892 64.4919 30.8522 60.7215 32.9944C62.2426 29.6005 60.7327 28.0768 54.6436 32.3596C54.6436 32.3596 55.5035 29.1271 53.8688 29.0407C52.2335 28.9475 50.4458 32.9255 50.4458 32.9255C50.4458 32.9255 49.077 29.6859 47.7048 29.5906C46.3192 29.4964 45.7193 33.468 45.7193 33.468C45.7193 33.468 43.7142 30.5193 42.4644 30.8219C41.2146 31.1245 39.9223 33.8891 39.9407 35.6533C39.9407 35.6533 38.9461 34.0778 37.5248 34.2707C36.1028 34.4567 35.2099 37.699 35.6534 39.8486C33.6421 36.9074 28.2411 36.5253 31.3261 44.6707C28.0409 42.6088 24.9094 42.6249 28.0793 47.7091C23.1496 48.1655 22.8138 50.8261 27.1504 51.3908C27.1504 51.3908 22.0846 52.69 21.8911 55.1236C21.901 56.8678 23.8223 56.7561 25.2858 56.892C21.5043 59.5268 22.0952 62.4392 24.2236 61.991C24.2236 61.991 21.1294 65.9302 22.6373 67.8973C23.6065 68.9487 25.2337 67.7062 25.2337 67.7062C25.2337 67.7062 23.3572 73.0699 25.173 74.1515C25.9976 74.6269 26.5897 73.1281 26.5897 73.1281C26.5897 73.1281 26.6205 76.5879 27.6824 76.8417C28.2525 76.8753 28.6571 74.541 28.6571 74.541C28.6571 74.541 29.5398 77.7813 30.8537 78.1379C31.3926 78.278 31.5186 76.8544 31.5186 76.8544C31.5186 76.8544 32.9757 79.3245 35.3071 79.191C35.3071 79.191 33.1874 76.5569 33.4519 69.893C33.7421 70.5118 36.5642 68.646 38.2167 66.4525C37.3134 69.7303 37.1065 69.9907 38.2459 70.1271C39.386 70.2703 43.9419 67.8451 46.3048 64.8905C46.3048 64.8905 45.0814 67.5937 45.8298 67.7363C46.5781 67.879 50.811 64.1454 50.811 64.1454C50.811 64.1454 50.0241 67.7525 51.9439 67.8556C53.1213 67.8848 54.3948 63.5845 54.3948 63.5845C54.3948 63.5845 56.3034 66.7425 57.5788 66.8116C58.8608 66.8801 58.1534 62.6275 58.1534 62.6275C58.1534 62.6275 64.4258 65.7314 65.6975 64.7483C66.9685 63.7583 63.8876 60.8616 63.8876 60.8616C63.8876 60.8616 65.5679 62.0935 69.8629 61.6369C70.3902 65.0604 69.8004 71.0116 68.1041 74.2546C68.1041 74.2546 70.0025 74.7335 70.566 71.4298C71.2616 73.9938 73.0383 72.6067 73.4537 70.3962C73.9132 72.1082 75.378 72.1816 75.5417 67.5416C76.8124 67.8674 77.0158 63.1408 75.3451 60.4677C77.2327 62.3741 77.5864 60.619 76.4558 58.8754C78.3905 60.2375 79.5895 57.1763 75.6588 51.729C79.121 52.0996 79.7401 49.7467 74.7648 47.1948L74.7368 47.1834Z" fill="#E5A242"/>
<g opacity="0.5">
<path d="M73.3094 55.382C73.3094 55.382 74.612 57.7824 73.9639 57.7834C73.3157 57.7843 70.9549 55.1712 70.9549 55.1712C70.9549 55.1712 72.8061 59.5322 71.8406 59.533C70.8751 59.5339 67.9855 57.3615 67.9855 57.3615C67.9855 57.3615 70.5718 60.6267 67.3743 60.4269C64.1694 60.2209 61.0676 58.4824 61.0676 58.4824C61.0676 58.4824 64.4077 62.7277 62.0618 62.8486C59.7226 62.969 56.4916 59.0466 56.4916 59.0466C56.4916 59.0466 56.8495 63.6274 55.8843 63.0881C54.9191 62.5488 54.1381 58.6141 54.1381 58.6141C54.1381 58.6141 52.6967 64.6325 52.1602 64.5199C51.6311 64.4136 52.0221 60.3701 52.0221 60.3701C52.0221 60.3701 48.5483 64.7578 47.9079 64.5365C47.2614 64.3227 48.41 61.1482 48.41 61.1482C48.41 61.1482 41.8532 67.5075 40.0486 67.4082C38.2366 67.3026 40.7455 61.8354 40.7455 61.8354C37.6896 66.2145 34.9328 67.9777 34.1824 66.8796C33.4259 65.789 34.9971 61.9614 34.9971 61.9614C34.9971 61.9614 33.0922 64.5923 33.008 66.8848C32.9171 69.1779 29.931 68.5373 29.1732 67.1213C29.0973 70.2856 27.942 72.3735 27.5973 69.4189C26.3123 72.1898 25.245 72.9612 24.4242 72.8387C24.5146 73.4126 24.7373 73.8779 25.1505 74.1259C25.9751 74.6013 26.5672 73.1025 26.5672 73.1025C26.5672 73.1025 26.598 76.5622 27.6599 76.8161C28.2299 76.8496 28.6346 74.5154 28.6346 74.5154C28.6346 74.5154 29.5173 77.7556 30.8312 78.1123C31.3701 78.2524 31.4961 76.8288 31.4961 76.8288C31.4961 76.8288 32.9532 79.2989 35.2846 79.1654C35.2846 79.1654 33.1649 76.5313 33.4294 69.8674C33.7196 70.4862 36.5417 68.6203 38.1942 66.4269C37.2909 69.7047 37.084 69.9651 38.2234 70.1014C39.3634 70.2446 43.9194 67.8195 46.2822 64.8649C46.2822 64.8649 45.0589 67.568 45.8073 67.7107C46.5556 67.8534 50.7885 64.1198 50.7885 64.1198C50.7885 64.1198 50.0016 67.7268 51.9214 67.83C53.0988 67.8591 54.3723 63.5589 54.3723 63.5589C54.3723 63.5589 56.2809 66.7168 57.5563 66.786C58.8383 66.8545 58.1309 62.6019 58.1309 62.6019C58.1309 62.6019 64.4033 65.7058 65.675 64.7227C66.946 63.7327 63.8651 60.836 63.8651 60.836C63.8651 60.836 65.5454 62.0679 69.8404 61.6113C70.3677 65.0348 69.7779 70.986 68.0816 74.2289C68.0816 74.2289 69.98 74.7078 70.5435 71.4042C71.2391 73.9682 73.0158 72.5811 73.4312 70.3705C73.8907 72.0826 75.3555 72.156 75.5192 67.516C76.7899 67.8418 76.9933 63.1152 75.3226 60.4421C77.2102 62.3484 77.5639 60.5934 76.4333 58.8497C76.8938 59.1767 77.3183 59.2436 77.6359 59.0914C75.3569 58.5071 73.3149 55.3676 73.3149 55.3676L73.3082 55.3682L73.3094 55.382Z" fill="#EF7F22"/>
</g>
<path d="M69.8415 61.6249C69.8415 61.6249 71.5059 60.3445 73.4614 61.324C75.4296 62.2954 75.8203 67.2542 72.5703 68.9357C70.5813 69.8219 69.7249 69.0585 69.7249 69.0585C69.7249 69.0585 70.1608 65.5304 69.8415 61.6249Z" fill="#EFD8C1"/>
<path d="M70.8932 66.2632C70.8932 66.2632 70.5568 64.5682 71.7905 64.08C73.0241 63.5919 73.1932 64.8375 73.1932 64.8375C73.1932 64.8375 72.6409 63.9991 71.7534 64.7411C70.8659 65.4831 70.8932 66.2632 70.8932 66.2632Z" fill="#B9926E"/>
<path d="M33.4322 69.978C33.4322 69.978 32.9878 72.3988 34.2415 77.0332C32.4363 77.3149 29.5671 75.2238 29.7506 71.51C30.0214 68.7234 32.1476 68.8709 33.4255 69.9786L33.4322 69.978Z" fill="#EFD8C1"/>
<path d="M33.13 74.1104C33.13 74.1104 33.441 72.4075 32.198 71.934C30.955 71.4604 30.8067 72.7059 30.8067 72.7059C30.8067 72.7059 31.3472 71.8556 32.2493 72.6012C33.1575 73.3394 33.13 74.1104 33.13 74.1104Z" fill="#B9926E"/>
<path d="M40.8456 56.2313C40.7585 55.8511 40.7384 55.4651 40.758 55.0686C40.7748 54.8733 40.811 54.6693 40.882 54.4762C40.9139 54.3765 40.967 54.2887 41.0195 54.1941C41.0867 54.1121 41.1532 54.0232 41.2417 53.9532C41.3289 53.8695 41.4209 53.8407 41.5447 53.7884C41.6373 53.7665 41.7153 53.732 41.8505 53.7341C41.9108 53.7288 41.9717 53.7305 42.0272 53.7464C42.082 53.7555 42.1368 53.7646 42.1928 53.7874C42.3036 53.8193 42.3967 53.8805 42.4898 53.9416C42.6698 54.0714 42.8066 54.2465 42.916 54.417C43.0198 54.6019 43.103 54.7816 43.1751 54.99L42.7888 55.0513C42.7805 54.5673 42.8142 54.1004 42.9209 53.6202C42.9449 53.5073 42.9749 53.387 43.0184 53.2655C43.0557 53.1515 43.1065 53.0363 43.1706 52.9199L43.2708 52.7519L43.4057 52.5947C43.5057 52.5029 43.6265 52.4163 43.7727 52.3897C43.8446 52.3627 43.9122 52.3637 43.9804 52.3716L44.0822 52.3766C44.1504 52.3846 44.1443 52.392 44.1857 52.4023C44.2417 52.4251 44.2892 52.4279 44.3525 52.457L44.5363 52.5518C44.6446 52.6324 44.74 52.7211 44.8099 52.8258C44.8798 52.9305 44.9369 53.0433 44.9805 53.1572C45.0618 53.3925 45.0961 53.6319 45.103 53.8667C45.1099 54.1016 45.0967 54.3382 45.0555 54.5633C45.0423 54.1005 44.981 53.6281 44.7849 53.2365C44.7357 53.1369 44.681 53.0517 44.6135 52.9744C44.577 52.943 44.5461 52.8972 44.5035 52.8732L44.3885 52.7932C44.3465 52.7761 44.3045 52.759 44.2692 52.7413C44.2272 52.7241 44.159 52.7162 44.1103 52.6997C44.0901 52.7014 44.0341 52.6786 44.0487 52.6912L43.9817 52.697C43.9415 52.7005 43.894 52.6977 43.855 52.7149C43.7758 52.7357 43.7063 52.7902 43.644 52.851L43.5525 52.9628L43.4828 53.0936C43.437 53.1876 43.3978 53.281 43.3733 53.387C43.342 53.4936 43.3169 53.5927 43.293 53.7056C43.2088 54.1353 43.1812 54.5948 43.1793 55.0381L43.1728 56.3613L42.793 55.0994C42.7457 54.9443 42.6699 54.7708 42.5824 54.6191C42.4956 54.4743 42.3886 54.3313 42.2651 54.2312C42.2067 54.1809 42.1355 54.1386 42.0661 54.117C42.0028 54.0879 41.9206 54.0742 41.853 54.0732C41.7982 54.0641 41.6989 54.0866 41.5984 54.0953C41.5599 54.1194 41.4606 54.1419 41.4039 54.1884C41.3332 54.2292 41.2843 54.2888 41.2288 54.3491C41.1806 54.4156 41.1323 54.4821 41.0926 54.5687C41.0119 54.728 40.9666 54.9051 40.9218 55.089C40.839 55.4563 40.8249 55.8384 40.831 56.2187L40.8377 56.2182L40.8456 56.2313Z" fill="#EF7F22"/>
<path d="M45.9649 44.9903C45.7448 44.7878 45.5557 44.555 45.3978 44.2917C45.3249 44.1526 45.2521 44.0135 45.2237 43.8429C45.2098 43.761 45.2015 43.6648 45.2205 43.5731C45.2328 43.482 45.2848 43.3805 45.3452 43.2991C45.3824 43.2612 45.4001 43.232 45.4636 43.1849L45.5526 43.1218C45.63 43.0804 45.7416 43.043 45.822 43.0361C45.995 43.0072 46.1728 43.0332 46.3251 43.0754C46.4846 43.1239 46.6258 43.1947 46.7603 43.2661C46.8953 43.3444 47.0237 43.4232 47.1551 43.5364L46.8278 43.6549C46.8549 43.5002 46.8977 43.3718 46.9461 43.2291C46.9951 43.0933 47.0434 42.9506 47.1131 42.8199C47.2457 42.5591 47.4173 42.281 47.7355 42.1356C47.8141 42.108 47.8995 42.0798 47.9872 42.0791C48.0341 42.075 48.0609 42.0727 48.1224 42.0812L48.2259 42.1068C48.2953 42.1285 48.3854 42.1553 48.4499 42.1981C48.5205 42.2336 48.5795 42.2907 48.6324 42.3554C48.7308 42.4784 48.7903 42.6187 48.8169 42.7687C48.8434 42.9187 48.842 43.0574 48.8204 43.1977C48.7831 42.924 48.691 42.6411 48.4957 42.4919C48.4519 42.4542 48.402 42.4239 48.346 42.4011C48.29 42.3782 48.2492 42.3749 48.1871 42.3595L48.0854 42.3545C48.0854 42.3545 48.0385 42.3586 48.0117 42.3609C47.9581 42.3656 47.9129 42.3903 47.8672 42.4081C47.6874 42.5137 47.5512 42.7333 47.4503 42.9706C47.3494 43.2079 47.2704 43.4641 47.2249 43.7173L47.1652 44.0411L46.9037 43.8284C46.8094 43.7535 46.6938 43.6666 46.5794 43.5934C46.4656 43.5271 46.3451 43.4614 46.227 43.4232C46.1083 43.3782 45.9853 43.3612 45.8781 43.3705C45.8178 43.3757 45.7849 43.3855 45.7318 43.3971L45.6349 43.447L45.591 43.4855C45.5599 43.5159 45.5294 43.5532 45.5201 43.6024C45.4969 43.646 45.5023 43.7079 45.501 43.7703C45.4983 43.8952 45.5444 44.0366 45.5893 44.1643C45.6802 44.4334 45.8308 44.6903 45.9747 44.9479L45.9759 44.9616L45.9649 44.9903Z" fill="#EF7F22"/>
<path d="M56.732 43.0223C56.732 43.0223 56.7683 42.8183 56.9356 42.5683C56.9777 42.5093 57.0253 42.4359 57.0876 42.3751C57.1498 42.3142 57.2181 42.246 57.3084 42.1966C57.3919 42.1478 57.4949 42.0903 57.6077 42.0667C57.7271 42.0424 57.8495 42.0526 57.9664 42.077C58.0723 42.1302 58.1977 42.1746 58.2658 42.2587C58.3528 42.3274 58.4209 42.4115 58.4756 42.4967C58.591 42.6598 58.6462 42.8281 58.6928 42.9764C58.7322 43.1184 58.7496 43.2415 58.7574 43.3309L58.7694 43.4684C58.7694 43.4684 58.6344 43.3139 58.4855 43.0775C58.4406 43.0261 58.3944 42.9608 58.3488 42.9025C58.3093 42.8366 58.2509 42.7863 58.198 42.7217C58.1518 42.6564 58.0873 42.6136 58.029 42.5633C57.9767 42.5055 57.9085 42.4976 57.8519 42.4679C57.7904 42.4594 57.7277 42.4371 57.6618 42.4567C57.6015 42.4619 57.529 42.4821 57.4571 42.5091C57.3925 42.5424 57.3211 42.5763 57.2565 42.6097C57.1925 42.6499 57.1352 42.6895 57.0778 42.7291C56.8626 42.8932 56.7052 43.0246 56.7052 43.0246L56.7119 43.024L56.732 43.0223Z" fill="#EF7F22"/>
<path d="M56.047 49.7434C56.0205 49.5933 56.0213 49.4478 56.035 49.2943C56.0486 49.1408 56.0696 48.9935 56.1307 48.8428C56.1644 48.7637 56.2059 48.6977 56.2541 48.6312C56.3091 48.5641 56.3719 48.5102 56.4554 48.4614C56.5329 48.42 56.6176 48.385 56.7047 48.3774L56.8387 48.3657C56.8801 48.376 56.8996 48.3673 56.9556 48.3902C57.0037 48.3998 57.0524 48.4164 57.1011 48.4329C57.1437 48.4569 57.179 48.4746 57.2149 48.4992C57.2867 48.5484 57.3518 48.5981 57.4114 48.6622C57.53 48.7834 57.6157 48.9145 57.6952 49.053C57.7681 49.1921 57.8275 49.3323 57.8809 49.48C57.9343 49.6277 57.9803 49.7691 58.0075 49.926L57.6738 49.8166C57.7934 49.7161 57.9008 49.6306 58.0294 49.5571C58.1513 49.4842 58.294 49.4164 58.4536 49.3887C58.534 49.3817 58.62 49.3603 58.7095 49.3803C58.7978 49.3864 58.8824 49.4275 58.9682 49.4824C59.0467 49.531 59.1007 49.6094 59.1542 49.6809L59.2544 49.9007C59.2809 50.0507 59.327 50.1922 59.3194 50.3382C59.332 50.4826 59.3305 50.6212 59.3084 50.7547C59.2935 50.8945 59.2781 51.0274 59.2565 51.1678C59.2344 51.3013 59.2055 51.4353 59.17 51.57C59.158 51.4326 59.1528 51.2945 59.1481 51.1633C59.1502 51.0316 59.1248 50.8953 59.1128 50.7578C59.1015 50.6273 59.0901 50.4967 59.0587 50.3678C59.0473 50.2373 58.997 50.1239 58.96 50.0094L58.8737 49.8715C58.8372 49.84 58.8068 49.8011 58.7782 49.7828C58.7435 49.772 58.7076 49.7474 58.6674 49.7509C58.626 49.7407 58.5803 49.7585 58.5267 49.7632C58.336 49.8213 58.1055 49.966 57.9371 50.1261L57.6876 50.3624L57.6041 50.0234C57.5411 49.7658 57.4563 49.4892 57.3343 49.2506C57.2766 49.1309 57.2123 49.0119 57.1302 48.9221C57.0919 48.87 57.0487 48.8391 57.0049 48.8014L56.9398 48.7516C56.9398 48.7516 56.9045 48.7339 56.8832 48.7219C56.8686 48.7094 56.8211 48.7066 56.7931 48.6952L56.7383 48.6861C56.7383 48.6861 56.7182 48.6878 56.7115 48.6884C56.6573 48.6862 56.6043 48.6977 56.5519 48.7161C56.4994 48.7345 56.4549 48.7661 56.411 48.8046C56.3671 48.843 56.3311 48.8946 56.295 48.9462C56.146 49.1738 56.0834 49.4632 56.0342 49.7514L56.0409 49.7508L56.047 49.7434Z" fill="#EF7F22"/>
<path d="M68.2833 49.448C68.3718 49.3018 68.4318 49.1373 68.4778 48.9671C68.4974 48.8823 68.5097 48.7912 68.502 48.7018C68.4984 48.6606 68.4942 48.6125 68.4827 48.5581C68.4651 48.5111 68.4482 48.4711 68.4172 48.4253C68.3862 48.3795 68.357 48.3544 68.3126 48.3097C68.2767 48.2852 68.2475 48.26 68.1921 48.244C68.1641 48.2326 68.1434 48.2275 68.116 48.223C68.0886 48.2184 68.0679 48.2133 68.0411 48.2156C67.9875 48.2203 67.9406 48.2244 67.8948 48.2422C67.8028 48.271 67.7193 48.3198 67.6504 48.3812C67.5814 48.4426 67.5192 48.5034 67.4655 48.5842L67.6206 48.6608C67.6904 48.4539 67.734 48.2562 67.7557 48.0396C67.7576 47.9841 67.7595 47.9285 67.762 47.8798C67.7646 47.8311 67.7525 47.7698 67.7471 47.708L67.7265 47.6267L67.6926 47.5465C67.661 47.4939 67.6227 47.4418 67.5655 47.4052C67.5363 47.3801 67.5089 47.3755 67.4815 47.371L67.4401 47.3607C67.4401 47.3607 67.4133 47.3631 67.3993 47.3574C67.3725 47.3597 67.3518 47.3546 67.3183 47.3575L67.2311 47.3651C67.1793 47.3903 67.1275 47.4156 67.0836 47.4541C67.0397 47.4925 67.0019 47.5235 66.9652 47.5682C66.8987 47.6571 66.8528 47.7511 66.821 47.8508C66.7892 47.9506 66.7573 48.0503 66.7462 48.1551C66.8105 47.9625 66.9021 47.7745 67.0315 47.6317C67.062 47.5944 67.1004 47.5703 67.1389 47.5462C67.1584 47.5376 67.1779 47.529 67.1968 47.5135L67.2559 47.4945L67.3162 47.4892C67.3162 47.4892 67.3637 47.492 67.3911 47.4966C67.3978 47.496 67.4246 47.4937 67.4185 47.5011L67.4465 47.5125C67.4465 47.5125 67.4812 47.5234 67.4964 47.5428C67.5256 47.568 67.5481 47.5937 67.5645 47.6269L67.5833 47.6876L67.5887 47.7495C67.599 47.7901 67.6031 47.8382 67.6012 47.8938C67.5993 47.9494 67.5962 47.9912 67.5937 48.0399C67.5769 48.2352 67.5199 48.4341 67.4684 48.6186L67.2945 49.1808L67.6242 48.702C67.6664 48.6429 67.7219 48.5827 67.778 48.5293C67.8341 48.476 67.8982 48.4358 67.9634 48.4094C67.9963 48.3996 68.0292 48.3898 68.0627 48.3869C68.0962 48.384 68.1303 48.3879 68.1583 48.3993C68.1851 48.397 68.2216 48.4284 68.2636 48.4456C68.2782 48.4581 68.3208 48.4821 68.3305 48.5159C68.353 48.5417 68.3694 48.5749 68.3791 48.6086C68.3888 48.6424 68.4058 48.6825 68.4088 48.7169C68.422 48.7919 68.4225 48.8749 68.4163 48.9586C68.4032 49.119 68.3572 49.2892 68.304 49.4531L68.2906 49.4542L68.2833 49.448Z" fill="#EF7F22"/>
<path d="M33.701 52.4139C33.569 52.2938 33.4627 52.1577 33.3685 52.0066C33.3278 51.927 33.2799 51.8412 33.2648 51.7455C33.2606 51.6974 33.2558 51.6424 33.2644 51.5863C33.2731 51.5301 33.3018 51.4722 33.3384 51.4275C33.3634 51.4046 33.3689 51.3902 33.4067 51.3592L33.4574 51.3202C33.5025 51.2955 33.5683 51.2759 33.6152 51.2719C33.7151 51.2563 33.8241 51.2675 33.9142 51.2943C34.0044 51.3211 34.089 51.3622 34.1674 51.4108C34.2459 51.4594 34.3244 51.508 34.3974 51.5709L34.2079 51.6427C34.2269 51.5511 34.2471 51.4731 34.2741 51.3946C34.301 51.3161 34.334 51.2301 34.375 51.1573C34.4495 51.0054 34.557 50.8437 34.7387 50.7587C34.7844 50.7409 34.8368 50.7224 34.8843 50.7252C34.9111 50.7229 34.9245 50.7217 34.9653 50.7251L35.0207 50.7411C35.0621 50.7513 35.1175 50.7673 35.154 50.7987C35.1966 50.8227 35.2331 50.8542 35.2635 50.8931C35.3237 50.964 35.3583 51.051 35.3721 51.1329C35.3927 51.2142 35.3871 51.3048 35.3735 51.3821C35.3531 51.2246 35.2912 51.0569 35.1824 50.9694C35.1532 50.9442 35.1252 50.9328 35.0966 50.9145C35.0619 50.9037 35.0412 50.8986 35.0065 50.8877L34.9462 50.893C34.9462 50.893 34.9188 50.8884 34.9053 50.8896C34.8785 50.8919 34.8462 50.9086 34.8206 50.9247C34.7182 50.989 34.6351 51.1209 34.5795 51.2573C34.5171 51.3943 34.476 51.5433 34.4423 51.6985L34.4054 51.8956L34.2527 51.7704C34.1949 51.727 34.1298 51.6772 34.0654 51.6344C34.0015 51.5984 33.9303 51.5561 33.8609 51.5344C33.7914 51.5128 33.7159 51.4986 33.6556 51.5038C33.6221 51.5067 33.602 51.5085 33.5691 51.5182L33.5112 51.551L33.4862 51.5739C33.4862 51.5739 33.449 51.6118 33.4447 51.6399C33.4336 51.6685 33.4366 51.7029 33.4329 51.7378C33.4395 51.8134 33.4601 51.8947 33.4867 51.9686C33.5413 52.1301 33.6282 52.2748 33.7162 52.4334L33.701 52.4139Z" fill="#EF7F22"/>
<path d="M65.7556 54.3905C65.7556 54.3905 65.7576 54.2588 65.8152 54.0668C65.8317 54.0238 65.8476 53.974 65.8697 53.9167C65.8917 53.8593 65.9216 53.8152 65.9582 53.7705C65.9949 53.7257 66.0382 53.6804 66.0961 53.6477C66.1473 53.6155 66.2143 53.6097 66.2685 53.6119C66.3245 53.6347 66.3866 53.6501 66.4304 53.6878C66.4742 53.7256 66.5186 53.7702 66.5502 53.8229C66.6189 53.9138 66.6553 54.0215 66.6965 54.1079C66.7311 54.1949 66.745 54.2768 66.7565 54.3312C66.7679 54.3856 66.7776 54.4194 66.7776 54.4194C66.7776 54.4194 66.7029 54.3359 66.6099 54.1985C66.5801 54.1665 66.557 54.1339 66.5272 54.1018C66.4968 54.0629 66.4676 54.0378 66.4378 54.0057C66.4074 53.9668 66.3721 53.9491 66.3429 53.924C66.3131 53.8919 66.2796 53.8949 66.251 53.8766C66.2175 53.8795 66.1901 53.8749 66.1639 53.8841C66.131 53.8939 66.106 53.9169 66.0749 53.9473C66.0438 53.9777 66.0194 54.0075 65.9949 54.0373C65.9705 54.0672 65.9467 54.1039 65.9223 54.1337C65.8325 54.2661 65.7739 54.3682 65.7739 54.3682L65.7605 54.3693L65.7556 54.3905Z" fill="#EF7F22"/>
<path d="M30.1802 60.1436C30.1802 60.1436 30.1512 59.9661 30.2217 59.6899C30.2432 59.6257 30.2634 59.5477 30.297 59.4686C30.3307 59.3896 30.371 59.3099 30.4387 59.2347C30.4998 59.1602 30.5736 59.0776 30.6766 59.0201C30.7724 58.9564 30.8912 58.9253 31.0179 58.9074C31.1331 58.9112 31.2616 58.9139 31.3596 58.9538C31.4631 58.9795 31.555 59.0269 31.6274 59.0829C31.7911 59.1795 31.8901 59.3093 31.9868 59.4117C32.0701 59.5153 32.1266 59.6212 32.166 59.687C32.2061 59.7597 32.2225 59.7929 32.2225 59.7929C32.2225 59.7929 32.046 59.7043 31.8312 59.5638C31.7746 59.5341 31.7107 59.4981 31.6468 59.4621C31.5891 59.4186 31.5129 59.3975 31.4496 59.3684C31.3858 59.3324 31.3102 59.3182 31.2408 59.2966C31.1708 59.268 31.1111 59.2801 31.0429 59.2722C30.9832 59.2843 30.9229 59.2896 30.865 59.3223C30.807 59.355 30.7491 59.3878 30.6997 59.4406C30.6497 59.4865 30.6003 59.5392 30.5514 59.5989C30.502 59.6516 30.4666 59.7101 30.4238 59.7623C30.2803 59.9756 30.179 60.1298 30.179 60.1298L30.1802 60.1436Z" fill="#EF7F22"/>
<path d="M55.0008 75.4425C54.9817 75.922 55.9172 76.3531 57.0891 76.3966C58.2548 76.4476 59.2172 76.1007 59.2363 75.6213C59.2554 75.1418 58.3199 74.7107 57.1547 74.6666C55.9889 74.6156 55.0266 74.9625 55.0075 75.4419L55.0008 75.4425Z" fill="#EFCCC2"/>
<path d="M50.1433 76.5782C50.1433 76.5782 49.9643 76.5383 49.7189 76.5112C49.5959 76.4942 49.4552 76.5064 49.3783 76.5547C49.3472 76.5851 49.3295 76.6143 49.3057 76.651C49.3057 76.651 49.2726 76.737 49.2799 76.7433C49.2817 76.7639 49.2701 76.7857 49.2731 76.82C49.2629 77.091 49.4049 77.4041 49.5368 77.6004C49.6061 77.6982 49.6741 77.7823 49.7313 77.8189C49.7897 77.8692 49.8372 77.872 49.8378 77.8789C49.8378 77.8789 49.7921 77.8967 49.7105 77.89C49.6289 77.8832 49.4974 77.8462 49.3885 77.7587C49.2662 77.6724 49.147 77.5443 49.0523 77.3863C48.9569 77.2215 48.8927 77.0262 48.8937 76.8046C48.8889 76.7496 48.9036 76.686 48.9183 76.6224C48.9386 76.5444 48.9392 76.5513 48.9722 76.4653C49.0296 76.3495 49.1364 76.2572 49.2473 76.2129C49.4777 76.1444 49.6524 76.2123 49.779 76.2705C50.0334 76.4008 50.1415 76.5575 50.1415 76.5575L50.1427 76.5713L50.1433 76.5782Z" fill="#B9926E"/>
<path d="M40.9351 76.3609C40.9727 76.7939 41.8689 77.083 42.9417 76.9966C44.0139 76.9034 44.8485 76.4845 44.8102 76.0447C44.772 75.6048 43.8831 75.322 42.8103 75.4084C41.7381 75.5016 40.9035 75.9205 40.9418 76.3603L40.9351 76.3609Z" fill="#EFCCC2"/>
<path d="M42.8751 73.0483C42.8751 73.0483 42.9055 73.0872 42.9529 73.1662C42.9997 73.2383 43.0756 73.3356 43.1729 73.4449C43.2179 73.4963 43.2763 73.5467 43.342 73.6033C43.3718 73.6353 43.4071 73.653 43.4424 73.6707C43.4783 73.6953 43.5069 73.7136 43.5483 73.7238C43.6256 73.7587 43.6999 73.7591 43.7815 73.7659L43.9021 73.7554C43.9417 73.745 43.9795 73.714 44.0192 73.7037C44.1051 73.6823 44.1734 73.6141 44.2508 73.5727C44.3283 73.5314 44.3893 73.4568 44.4582 73.3954C44.5272 73.334 44.5894 73.2732 44.6376 73.2067C44.6932 73.1465 44.7487 73.0862 44.7981 73.0335C44.9867 72.7955 45.1228 72.6521 45.1228 72.6521C45.1228 72.6521 45.0512 72.8383 44.907 73.1209C44.8655 73.1869 44.8178 73.2603 44.7696 73.3268C44.722 73.4002 44.6682 73.481 44.5999 73.5493C44.5249 73.6181 44.4717 73.7058 44.3821 73.7621C44.2998 73.8247 44.218 73.8941 44.1065 73.9315C44.0541 73.9499 44.0029 73.9821 43.9492 73.9867L43.7817 74.0013C43.6666 73.9975 43.557 73.9793 43.4645 73.925C43.4152 73.9016 43.3726 73.8776 43.3361 73.8462C43.2996 73.8147 43.2564 73.7838 43.2266 73.7518C43.1597 73.6814 43.1135 73.6162 43.0668 73.5441C42.9805 73.4062 42.9362 73.2854 42.9084 73.1978C42.8805 73.1102 42.869 73.0558 42.869 73.0558L42.8751 73.0483Z" fill="#B9926E"/>
<path d="M57.3847 72.1884C57.3847 72.1884 57.3614 72.2319 57.3284 72.3179C57.2954 72.4039 57.2367 72.5059 57.1598 72.6303C57.1243 72.6888 57.0755 72.7485 57.0206 72.8156C56.9968 72.8523 56.965 72.8758 56.9333 72.8993C56.9022 72.9297 56.8772 72.9527 56.8382 72.9699C56.7681 73.0176 56.695 73.0309 56.6157 73.0516L56.4951 73.0621C56.4543 73.0587 56.4117 73.0347 56.3709 73.0313C56.2826 73.0252 56.2035 72.9697 56.1201 72.9424C56.0367 72.915 55.9637 72.8521 55.8852 72.8035C55.8067 72.7549 55.7349 72.7058 55.6759 72.6486C55.6108 72.5988 55.5457 72.5491 55.4879 72.5057C55.2611 72.3038 55.1023 72.186 55.1023 72.186C55.1023 72.186 55.205 72.3572 55.3958 72.6106C55.4481 72.6684 55.5077 72.7325 55.5667 72.7897C55.6262 72.8537 55.6931 72.9241 55.7722 72.9795C55.858 73.0344 55.9255 73.1116 56.0235 73.1516C56.1154 73.199 56.2079 73.2533 56.3242 73.2708C56.379 73.2799 56.435 73.3028 56.4886 73.2981L56.6562 73.2835C56.7689 73.2599 56.8737 73.2231 56.9554 73.1536C57 73.1221 57.0378 73.0911 57.0683 73.0538C57.0988 73.0165 57.136 72.9787 57.1599 72.942C57.2136 72.8611 57.2478 72.7889 57.2815 72.7098C57.3426 72.559 57.3654 72.4324 57.3777 72.3413C57.39 72.2502 57.392 72.1947 57.392 72.1947L57.3847 72.1884Z" fill="#B9926E"/>
<path d="M58.4675 70.5083C58.4675 70.5083 58.2259 70.37 57.8424 70.2302C57.6537 70.1566 57.4315 70.0859 57.1898 70.0238C57.0656 69.9931 56.942 69.9692 56.8116 69.9459C56.6874 69.9152 56.5522 69.9131 56.4225 69.8967C56.2928 69.8802 56.1582 69.885 56.029 69.8755C55.9011 69.8797 55.7732 69.8839 55.6447 69.8812L55.2895 69.9121C55.1756 69.922 55.0696 69.9451 54.969 69.9538C54.8691 69.9694 54.7753 69.9776 54.6961 69.9983C54.6169 70.0191 54.5437 70.0323 54.484 70.0445C54.3646 70.0687 54.2976 70.0745 54.2976 70.0745C54.2976 70.0745 54.3555 70.0418 54.4653 69.9838C54.5756 69.9326 54.7231 69.8436 54.9273 69.7843C55.026 69.755 55.1364 69.7038 55.2491 69.6802C55.3685 69.6559 55.4873 69.6248 55.6208 69.6063C55.7481 69.5952 55.8882 69.5761 56.0228 69.5713C56.1648 69.5728 56.3067 69.5743 56.4425 69.5833C56.5862 69.6054 56.722 69.6144 56.8535 69.6514C56.9906 69.6741 57.1227 69.718 57.2481 69.7625C57.379 69.7927 57.4928 69.859 57.6048 69.9046C57.7107 69.9578 57.8166 70.0109 57.9024 70.0657C58.2657 70.2834 58.4535 70.5025 58.4535 70.5025L58.4675 70.5083Z" fill="#E1833A"/>
<path d="M41.2727 71.4704C41.2727 71.4704 41.4266 71.2216 41.7536 70.9439C41.9165 70.7981 42.1207 70.6626 42.3518 70.5248C42.475 70.4656 42.5902 70.3933 42.7213 70.3473C42.8517 70.2944 42.9827 70.2484 43.1278 70.208C43.2655 70.1614 43.4056 70.1423 43.5452 70.1163C43.6841 70.0835 43.8266 70.0919 43.9606 70.0802C44.0947 70.0686 44.225 70.0919 44.3462 70.0882C44.4674 70.0846 44.5849 70.116 44.6884 70.1416C44.901 70.1785 45.0684 70.2401 45.1804 70.2858C45.2924 70.3314 45.3624 70.36 45.3624 70.36C45.3624 70.36 45.2881 70.3595 45.1662 70.3562C45.1053 70.3546 45.0377 70.3536 44.9494 70.3474C44.8611 70.3412 44.774 70.3488 44.6723 70.3438C44.5712 70.3457 44.4627 70.3412 44.3427 70.3586C44.2288 70.3685 44.1076 70.3721 43.9875 70.3895C43.7408 70.4248 43.4812 70.4681 43.2314 70.5453C42.9736 70.6092 42.7261 70.7139 42.4909 70.8036C42.2635 70.9064 42.0495 71.0081 41.8691 71.1069C41.5075 71.2976 41.2788 71.463 41.2788 71.463L41.2727 71.4704Z" fill="#E1833A"/>
<path d="M49.7605 81.8814C48.8029 81.9716 47.8379 82.0555 46.9316 81.6496C46.3278 81.3836 45.7187 80.9795 45.6298 80.2671C45.8037 81.1799 46.9085 81.617 47.7087 81.7344C48.5503 81.862 49.422 81.7931 50.2537 81.6516C51.1719 81.4955 52.0621 81.3281 52.8773 80.8417C53.5901 80.4197 54.2982 79.8664 54.814 79.1983L54.8663 79.2561C53.7262 80.9757 51.6887 81.693 49.7532 81.8751L49.7605 81.8814Z" fill="#B9926E"/>
<path d="M54.5262 79.0709C54.6566 79.018 54.8083 78.9771 54.9466 79.0135C55.0574 79.0455 55.1516 79.1204 55.1813 79.2286C55.1825 79.2423 55.2349 79.2239 55.227 79.2108C55.1895 79.0894 55.0812 79.0088 54.957 78.978C54.8054 78.9427 54.6475 78.9911 54.5104 79.0446C54.4842 79.0538 54.486 79.0744 54.5122 79.0652L54.5262 79.0709Z" fill="#C49A6C"/>
</svg>
