<svg width="102" height="144" viewBox="0 0 102 144" fill="none" xmlns="http://www.w3.org/2000/svg">
<path d="M50.4867 115.066C29.9401 115.066 11.5045 102.012 4.63583 82.5953C2.76255 77.3025 1.81104 71.861 1.81104 66.3899C1.81104 60.9187 2.70308 55.8043 4.45742 50.6602L4.6061 50.2439C11.4748 30.8569 29.9103 17.7439 50.4867 17.7439C55.839 17.7439 61.1615 18.6657 66.3353 20.4498C70.0224 21.7283 73.6203 23.4827 76.9803 25.6533C90.8664 34.6927 99.1327 49.9168 99.1327 66.3899C99.1327 67.9063 99.0435 69.4823 98.8948 71.1474C96.4566 96.184 75.6423 115.066 50.457 115.066H50.4867Z" fill="#181C36"/>
<path d="M50.4866 112.538C31.0104 112.538 13.5264 100.168 7.0145 81.7626C5.23042 76.7374 4.33838 71.5636 4.33838 66.3898C4.33838 61.2159 5.17095 56.3692 6.83609 51.4927L6.95503 51.1656C13.4967 32.6706 30.9807 20.2712 50.4866 20.2712C55.5713 20.2712 60.6262 21.1335 65.5324 22.8284C69.0411 24.0475 72.4308 25.7127 75.6124 27.7644C88.7552 36.328 96.6349 50.7493 96.6349 66.3898C96.6349 67.8468 96.5457 69.3335 96.397 70.8797C94.1074 94.608 74.3636 112.508 50.4866 112.508V112.538Z" fill="#3D4787"/>
<path d="M74.2441 29.9055C71.3003 27.9728 68.089 26.3968 64.729 25.2372C60.2687 23.691 55.5112 22.8287 50.5158 22.8287C31.4856 22.7989 15.3694 34.9902 9.39268 51.9687C9.36295 52.0876 9.30348 52.2065 9.24401 52.3255C7.72754 56.756 6.86523 61.4838 6.86523 66.4197C6.86523 71.3557 7.78701 76.3809 9.39268 80.9303C15.3694 97.8493 31.4856 110.011 50.4563 110.011C73.1141 110.011 91.6983 92.7349 93.8392 70.6718C93.9879 69.2743 94.0474 67.847 94.0474 66.4197C94.0474 51.1064 86.1379 37.6663 74.1846 29.9055H74.2441Z" fill="#2A3069"/>
<g clip-path="url(#clip0_750_11226)">
<path d="M77.054 43.3648C72.654 36.3416 64.654 35.3237 64.654 35.3237C64.654 35.3237 67.654 34.3058 65.654 33.6951C63.754 33.0844 60.754 35.5273 60.754 35.5273L58.654 32.4737L58.254 34.713C43.054 23.4148 22.954 43.9755 21.954 47.3344C20.954 50.6933 23.654 49.0648 23.654 49.0648C22.854 49.8791 20.554 54.9683 21.454 55.6808C22.254 56.2916 23.654 54.7648 23.654 54.7648C23.654 54.7648 23.254 57.8183 24.054 61.4826C23.154 61.3808 22.054 61.788 21.354 63.5183C20.354 66.4701 23.454 68.4041 24.754 68.0987C24.754 67.3862 24.854 66.6737 24.954 66.063C24.054 79.2951 29.554 83.9773 42.954 86.7255C61.754 89.7791 68.854 80.1094 70.554 71.0505L70.454 71.9666C70.454 71.9666 74.354 72.6791 74.854 69.3201C74.954 68.7094 74.854 68.0987 74.654 67.6916C80.854 61.788 78.254 55.0701 78.254 55.0701L79.454 56.9023C79.554 57.0041 81.454 50.2862 77.054 43.3648ZM27.754 51.9148C27.854 51.9148 31.654 53.0344 38.454 50.6933C31.554 53.0344 27.754 51.9148 27.754 51.9148ZM37.054 51.7112C37.054 51.6094 37.054 51.6094 37.054 51.7112C37.154 51.6094 37.154 51.6094 37.054 51.7112C37.154 51.6094 37.054 51.6094 37.054 51.7112ZM37.754 53.4416C37.854 53.4416 37.954 53.4416 38.054 53.5433C37.854 53.5433 37.654 53.4416 37.554 53.4416C37.654 53.4416 37.654 53.4416 37.754 53.4416ZM37.354 53.3398H37.254C37.254 53.3398 37.254 53.3398 37.354 53.3398ZM39.154 53.6451C38.754 53.6451 38.454 53.6451 38.154 53.5433H38.254C38.554 53.5433 38.854 53.6451 39.154 53.6451C41.154 53.7469 45.654 52.9326 48.254 52.4237C48.554 52.3219 48.854 52.3219 49.054 52.3219C46.554 52.7291 41.254 53.7469 39.154 53.6451ZM50.254 52.0166C50.254 52.0166 50.154 52.2201 50.054 52.4237C49.954 52.6273 49.854 52.9326 49.754 53.1362C49.954 52.5255 50.254 52.0166 50.254 52.0166ZM49.754 53.238C49.754 53.3398 49.754 53.4416 49.654 53.5433C49.654 53.4416 49.754 53.3398 49.754 53.238ZM49.754 54.0523C49.854 54.2558 49.954 54.4594 50.154 54.5612C49.854 54.3576 49.754 54.2558 49.754 54.0523ZM53.854 53.7469C53.754 53.8487 53.554 53.8487 53.454 53.9505C53.654 53.8487 53.754 53.7469 53.854 53.7469ZM56.554 52.2201C56.754 52.1183 56.854 52.0166 56.854 52.0166C56.954 52.0166 56.754 52.1183 56.554 52.2201ZM60.354 56.9023C58.654 56.8005 57.454 53.6451 57.054 52.5255C57.254 53.238 57.854 54.663 58.654 55.7826C58.654 55.7826 58.654 55.7826 58.654 55.8844C58.754 55.9862 58.854 56.088 58.854 56.1898L58.954 56.2916C59.054 56.3933 59.054 56.3933 59.154 56.4951C59.254 56.5969 59.254 56.5969 59.354 56.5969L59.454 56.6987C59.554 56.6987 59.554 56.8005 59.654 56.8005C59.654 56.8005 59.754 56.8005 59.754 56.9023C59.854 56.9023 59.954 57.0041 60.054 57.0041C60.054 57.0041 60.054 57.0041 60.154 57.0041C60.254 56.8005 60.254 56.8005 60.354 56.9023C60.754 56.9023 61.054 56.8005 61.254 56.4951C61.054 56.6987 60.754 56.9023 60.354 56.9023ZM70.054 58.2255C69.354 58.1237 68.254 57.513 67.154 56.6987C68.354 57.513 69.354 58.2255 70.054 58.2255C70.654 58.2255 71.154 58.0219 71.554 57.6148C71.154 58.0219 70.654 58.3273 70.054 58.2255Z" fill="black"/>
</g>
<path d="M70.0401 55.7462C67.7211 55.4678 62.0624 49.8882 62.0624 49.8882C62.0624 49.8882 62.34 54.4444 60.2987 54.3502C58.2614 54.2561 56.8692 49.6058 56.8692 49.6058C56.8692 49.6058 52.2312 52.4918 50.4715 52.2093C48.7078 51.9309 50.1939 49.6058 50.1939 49.6058C50.1939 49.6058 41.9386 51.28 39.0643 51.19C36.1901 51.0958 35.3531 50.0724 38.3213 48.3081C31.4582 50.6333 27.6572 49.5157 27.6572 49.5157L24.934 62.1936C23.603 76.1445 29.127 80.9585 42.9389 83.7299C62.0624 86.8042 69.0235 76.9591 70.6606 67.9369L72.5428 53.7035C72.5428 53.7035 71.5221 55.8444 70.0401 55.7462Z" fill="#EFD9C1"/>
<path d="M77.0011 41.0664C72.5999 34.1973 64.6263 33.1657 64.6263 33.1657C64.6263 33.1657 67.5904 32.1383 65.647 31.5242C63.7036 30.9102 60.7355 33.3704 60.7355 33.3704L58.588 30.3944L58.1797 32.5476C43.045 21.4745 22.8926 41.6804 21.8719 44.9594C20.8471 48.2424 23.6112 46.7032 23.6112 46.7032C22.7946 47.522 20.5409 52.5489 21.3616 53.1629C22.1781 53.777 23.6112 52.2378 23.6112 52.2378C23.6112 52.2378 22.9987 57.367 24.9421 62.1852L27.6653 49.5073C27.6653 49.5073 31.4704 50.6249 38.3294 48.2997C35.3613 50.0682 36.1982 51.0916 39.0725 51.1816C41.9467 51.2758 50.202 49.5974 50.202 49.5974C50.202 49.5974 48.7159 51.9226 50.4796 52.2009C52.2434 52.4793 56.8773 49.5974 56.8773 49.5974C56.8773 49.5974 58.2654 54.2477 60.3068 54.3419C62.3482 54.436 62.0705 49.8799 62.0705 49.8799C62.0705 49.8799 67.7292 55.4594 70.0482 55.7378C71.5343 55.8319 72.5509 53.6951 72.5509 53.6951L70.6688 67.9285C81.8147 61.6735 78.2341 52.6512 78.2341 52.6512L79.463 54.4974C79.463 54.4974 81.4064 47.9354 77.0093 41.0623L77.0011 41.0664Z" fill="#51000A"/>
<path d="M36.9167 62.0705C36.8677 63.0939 36.4636 63.9045 36.0185 63.884C35.5735 63.8594 35.251 63.0162 35.3041 61.9928C35.3531 60.9694 35.7572 60.1588 36.2023 60.1834C36.6473 60.2039 36.9698 61.0512 36.9208 62.0705H36.9167Z" fill="#381D13"/>
<path d="M36.0308 61.2519C35.99 61.5589 35.8471 61.7964 35.7124 61.7759C35.5777 61.7595 35.5042 61.4975 35.5409 61.1864C35.5817 60.8794 35.7246 60.6461 35.8594 60.6624C35.9941 60.6829 36.0717 60.9449 36.0308 61.2478V61.2519Z" fill="white"/>
<path d="M55.2031 63.5361C55.1541 64.5595 54.754 65.3701 54.3049 65.3496C53.8599 65.325 53.5374 64.4817 53.5904 63.4583C53.6394 62.4349 54.0436 61.6244 54.4886 61.649C54.9337 61.6694 55.2562 62.5168 55.2072 63.5361H55.2031Z" fill="#381D13"/>
<path d="M54.3175 62.7174C54.2767 63.0244 54.1338 63.2619 54.0032 63.2414C53.8684 63.2209 53.7909 62.9589 53.8317 62.6519C53.8725 62.3449 54.0113 62.1075 54.1461 62.1279C54.2808 62.1443 54.3584 62.4104 54.3175 62.7174Z" fill="white"/>
<path d="M43.9923 66.8969C43.9923 66.8969 43.6452 66.7782 43.1757 66.6677C42.9471 66.6186 42.6695 66.6022 42.5061 66.6677C42.4327 66.7086 42.3959 66.7659 42.3388 66.8396C42.3469 66.8396 42.253 66.9952 42.2693 67.0156C42.2612 67.0525 42.2448 67.0975 42.2408 67.1671C42.1632 67.6788 42.3632 68.3133 42.5674 68.7186C42.6735 68.9273 42.7919 69.087 42.8981 69.1811C43.0002 69.2835 43.09 69.3162 43.0859 69.3203C43.0859 69.3121 42.9961 69.349 42.8328 69.3203C42.6695 69.2958 42.4367 69.1934 42.2285 69.001C42.0121 68.8086 41.808 68.5384 41.6651 68.211C41.514 67.8835 41.4324 67.4864 41.4855 67.0607C41.4977 66.9583 41.5304 66.8396 41.5794 66.7168C41.6324 66.5735 41.6406 66.5858 41.7223 66.4384C41.8611 66.2379 42.0897 66.0864 42.3183 66.0291C42.7879 65.9513 43.1104 66.1273 43.339 66.2706C43.8045 66.5776 43.9841 66.901 43.9841 66.901L43.9923 66.8969Z" fill="#BB936E"/>
<path d="M34.1772 56.8514C34.1772 56.8514 34.1241 56.4298 34.3895 55.8403C34.5242 55.5537 34.7569 55.214 35.1407 54.9847C35.3367 54.8783 35.5531 54.7882 35.7858 54.7555C35.9001 54.7473 36.0226 54.7309 36.1369 54.735L36.3125 54.7473H36.3982L36.4431 54.7596H36.4554L36.5084 54.7719L36.5248 54.7801C36.7126 54.8415 36.8963 54.9029 37.08 54.9684C37.2882 55.0789 37.4924 55.2303 37.6638 55.3695C37.8027 55.5292 37.9374 55.6888 38.0313 55.8485C38.1129 56.0204 38.1946 56.176 38.2395 56.3315C38.4191 56.9497 38.313 57.3631 38.313 57.3631C38.313 57.3631 38.2681 57.2649 38.1946 57.1134C38.117 56.9578 37.9986 56.7491 37.8435 56.5198C37.7659 56.4052 37.6557 56.307 37.5699 56.1842C37.4679 56.0736 37.3331 55.9918 37.227 55.8771C37.1004 55.8116 36.982 55.7543 36.8595 55.6725C36.6717 55.6192 36.4839 55.566 36.3002 55.5128H36.2839C36.2349 55.4964 36.341 55.521 36.3329 55.5169H36.288L36.2267 55.5046L36.1083 55.4882C36.0307 55.4801 35.9532 55.4882 35.8797 55.4882C35.7286 55.5046 35.5857 55.5292 35.451 55.5824C35.3204 55.6438 35.1856 55.7093 35.0713 55.7994C34.957 55.8894 34.8468 55.9836 34.7569 56.0818C34.3854 56.4871 34.1813 56.8514 34.1813 56.8514H34.1772Z" fill="#3F0006"/>
<path d="M52.8026 58.5174C52.8026 58.5174 52.8312 58.415 52.9128 58.239C52.9986 58.0671 53.1415 57.8297 53.3619 57.5759C53.4844 57.4612 53.611 57.3261 53.7661 57.2115C53.9335 57.1133 54.1009 56.9741 54.3091 56.9004C54.5214 56.8431 54.7256 56.7162 54.9624 56.7162L55.3176 56.6916C55.3911 56.6916 55.4033 56.6794 55.5258 56.6835L55.6809 56.6998L55.8361 56.7285L56.032 56.7899C56.1709 56.8308 56.2811 56.8922 56.3872 56.9536C56.6077 57.0682 56.7751 57.2443 56.9262 57.408C57.216 57.7519 57.3753 58.1244 57.4651 58.4437C57.6488 59.0864 57.5835 59.5244 57.5835 59.5244C57.5835 59.5244 57.3916 59.1273 57.065 58.6238C56.8976 58.3741 56.6934 58.0957 56.4403 57.8747C56.3138 57.7642 56.1749 57.67 56.028 57.5963C55.9586 57.5595 55.881 57.5185 55.8197 57.5104L55.7218 57.4776L55.5666 57.4571L55.4156 57.4285C55.4156 57.4285 55.3421 57.4326 55.3135 57.4367L55.0481 57.4449C54.8685 57.4326 54.7052 57.5063 54.5296 57.5308C54.3622 57.5677 54.2111 57.6495 54.0519 57.6987C53.9049 57.7723 53.762 57.846 53.6314 57.9115C53.3783 58.0712 53.166 58.2185 53.0231 58.3291C52.8802 58.4437 52.7944 58.5174 52.7944 58.5174H52.8026Z" fill="#3F0006"/>
<path d="M36.4717 73.0659C36.4717 73.0659 40.8525 78.5104 52.0922 74.3104C48.8546 82.997 40.3789 84.528 36.4717 73.0659Z" fill="white"/>
<path d="M35.0914 66.4015C34.9362 67.1998 33.2501 67.5436 31.3312 67.167C29.4123 66.7904 27.9833 65.8366 28.1385 65.0343C28.2936 64.2319 29.9757 63.8881 31.8987 64.2688C33.8176 64.6454 35.2465 65.5992 35.0914 66.4015Z" fill="#F0CCC2"/>
<path d="M61.9847 69.2466C61.8744 70.0571 60.2169 70.4992 58.2776 70.2372C56.3423 69.9752 54.8562 69.1115 54.9665 68.3009C55.0726 67.4904 56.7343 67.0483 58.6736 67.3103C60.6129 67.5723 62.0949 68.4401 61.9888 69.2507L61.9847 69.2466Z" fill="#F0CCC2"/>
<g style="mix-blend-mode:multiply" opacity="0.5">
<path d="M53.5499 45.1477C51.5371 47.4851 49.5774 49.0407 48.1484 49.9986C49.3692 49.7735 50.198 49.6056 50.198 49.6056C50.198 49.6056 48.7119 51.9308 50.4756 52.2091C50.5899 52.2296 50.7206 52.2296 50.8594 52.2255C50.6675 50.498 52.1046 47.9273 53.554 45.1477H53.5499Z" fill="#8B6236"/>
<path d="M42.0163 46.1301C33.859 49.3313 27.4695 48.3488 26.0487 46.1301C26.2406 51.3371 25.028 57.3547 24.3176 60.3758C24.4891 60.9775 24.6932 61.5834 24.9341 62.1892L27.6573 49.5114C27.6573 49.5114 31.4624 50.6289 38.3214 48.3038C35.6799 49.8798 36.0555 50.8582 38.203 51.1202C38.1867 49.9862 39.5789 48.2546 42.0163 46.126V46.1301Z" fill="#8B6236"/>
<path d="M74.6615 51.46C68.8926 58.6688 60.5557 45.1477 60.5557 45.1477L62.0459 51.2471C62.0989 50.4857 62.0622 49.8881 62.0622 49.8881C62.0622 49.8881 67.7209 55.4676 70.0399 55.746C71.526 55.8402 72.5426 53.7033 72.5426 53.7033L70.6604 67.9367C71.0973 67.6911 71.5056 67.4414 71.8975 67.1876C71.7015 63.4911 72.9509 58.0753 74.6615 51.4682V51.46Z" fill="#8B6236"/>
<path d="M55.5256 50.3835C56.3177 49.9496 56.8689 49.6057 56.8689 49.6057C56.8689 49.6057 58.1876 53.9982 60.1391 54.3175C58.5754 52.4385 57.4282 49.0122 56.9178 44.6116C56.7954 46.9736 56.1748 48.9344 55.5256 50.3794V50.3835Z" fill="#8B6236"/>
</g>
<path d="M71.2322 63.0407L70.4688 69.2466C70.4688 69.2466 74.3759 69.9138 74.8495 66.6635C75.3272 63.4173 71.2322 63.0366 71.2322 63.0366V63.0407Z" fill="#E8CAAA"/>
<path d="M73.4043 66.07C73.4043 66.07 73.2451 65.9431 72.9511 65.8572C72.8082 65.8203 72.6327 65.7835 72.4367 65.7917C72.2407 65.7917 72.0284 65.8408 71.8325 65.9268C71.7304 65.9759 71.6406 66.0332 71.5548 66.1028C71.465 66.1601 71.3997 66.2502 71.3344 66.3238C71.2609 66.3975 71.2282 66.4917 71.1833 66.5695C71.1343 66.6472 71.1221 66.7332 71.1016 66.811C71.0526 66.9584 71.0608 67.0853 71.0608 67.1753C71.0608 67.2613 71.069 67.3145 71.069 67.3145C71.069 67.3145 71.1016 67.2736 71.1506 67.1999C71.171 67.163 71.1996 67.1221 71.2323 67.073C71.2568 67.0238 71.3058 66.9788 71.3425 66.9215C71.3834 66.8683 71.4201 66.8069 71.4773 66.7578C71.5303 66.7086 71.5752 66.6431 71.6365 66.5981C71.7508 66.4958 71.8774 66.4057 72.0284 66.3443C72.0978 66.3034 72.1795 66.2829 72.253 66.2543C72.3346 66.2379 72.4081 66.2051 72.4898 66.1928C72.6449 66.156 72.8041 66.1437 72.9389 66.1192C73.2247 66.0905 73.4125 66.0741 73.4125 66.0741L73.4043 66.07Z" fill="#BB936E"/>
<path d="M25.5176 59.414C25.5176 59.414 22.6638 57.6006 21.2349 60.9409C20.2795 63.8064 23.3293 65.7182 24.6644 65.4316C24.8522 62.3778 25.5176 59.414 25.5176 59.414Z" fill="#E8CAAA"/>
<path d="M22.7046 61.174C22.7046 61.174 22.8965 61.1004 23.2027 61.1085C23.3538 61.1167 23.5334 61.1372 23.7131 61.2068C23.9009 61.2641 24.0846 61.3787 24.2479 61.522C24.3255 61.5957 24.399 61.6776 24.4602 61.7676C24.5296 61.8536 24.5623 61.9559 24.599 62.0501C24.648 62.1442 24.648 62.2425 24.6684 62.3284C24.6888 62.4185 24.6766 62.5045 24.6684 62.5822C24.6684 62.7378 24.6235 62.8565 24.5949 62.9425C24.5664 63.0243 24.5459 63.0694 24.5459 63.0694C24.5459 63.0694 24.5296 63.0203 24.5051 62.9384C24.4929 62.8974 24.4806 62.8483 24.4643 62.791C24.4561 62.7378 24.4235 62.6764 24.4071 62.615C24.3826 62.5495 24.3663 62.4799 24.3296 62.4185C24.2928 62.353 24.2724 62.2793 24.2275 62.222C24.1458 62.091 24.0519 61.96 23.9295 61.8577C23.8764 61.7963 23.807 61.7553 23.7416 61.7021C23.6682 61.6653 23.611 61.608 23.5375 61.5752C23.3987 61.4892 23.2558 61.4319 23.1333 61.3705C22.8679 61.2559 22.6924 61.1781 22.6924 61.1781L22.7046 61.174Z" fill="#BB936E"/>
<path d="M98.5817 109.446C98.5562 113.593 95.2364 116.94 91.1403 117.01L90.9885 117.004L86.6295 116.828C86.6293 116.828 86.6292 116.828 86.629 116.828C61.0386 115.787 35.4115 115.684 9.81008 116.504C5.64105 116.469 2.27675 113.048 2.30255 108.847L2.3478 101.479C2.35989 99.5097 2.72734 98.0962 3.53401 97.0232C4.34169 95.9488 5.69819 95.0719 7.98942 94.4081C9.13375 94.079 10.3201 93.8921 11.5446 93.7864C12.5186 93.708 13.9275 93.5928 15.6379 93.4529C17.4167 93.3074 19.5215 93.1352 21.8025 92.9501L21.8028 92.9501C40.9405 91.391 60.1766 91.5091 79.2938 93.3032L89.6205 94.2739L89.622 94.274C90.847 94.3873 92.0422 94.5818 93.1862 94.9114L93.1884 94.912C95.5413 95.5844 96.8446 96.4791 97.5894 97.554C98.3422 98.6406 98.6392 100.074 98.6269 102.078L98.5817 109.446Z" fill="#2A3069" stroke="#181C36" stroke-width="2"/>
<path d="M37.2292 109.315V102.151C37.2292 101.542 37.0912 101.091 36.8152 100.8C36.5444 100.508 36.1355 100.323 35.5886 100.245C35.4636 100.219 35.3022 100.198 35.1042 100.183C34.9115 100.167 34.6902 100.159 34.4402 100.159C34.1121 100.159 33.6798 100.175 33.1433 100.206C32.6121 100.237 31.9532 100.287 31.1667 100.354V99.2607C31.4115 99.2347 31.6511 99.2139 31.8855 99.1982C32.1199 99.1826 32.3464 99.167 32.5652 99.1514C32.9819 99.1253 33.3542 99.1071 33.6824 99.0967C34.0157 99.0811 34.3074 99.0732 34.5574 99.0732C35.1459 99.0732 35.6225 99.0993 35.9871 99.1514C36.3569 99.2035 36.7032 99.2972 37.0261 99.4326C37.349 99.568 37.6173 99.7399 37.8308 99.9482C38.0444 100.157 38.2136 100.425 38.3386 100.753C38.4167 100.961 38.4714 101.177 38.5027 101.401C38.5391 101.625 38.5574 101.875 38.5574 102.151V109.315H37.2292ZM31.1667 109.315V103.073H32.4792V109.315H31.1667ZM41.2136 109.315V99.2607C41.2813 99.2503 41.3881 99.2399 41.5339 99.2295C41.6798 99.2191 41.8647 99.2035 42.0886 99.1826C42.573 99.1462 43.0235 99.1201 43.4402 99.1045C43.8569 99.0837 44.2371 99.0732 44.5808 99.0732C45.1798 99.0732 45.6641 99.0993 46.0339 99.1514C46.4037 99.2035 46.7501 99.2946 47.073 99.4248C47.3959 99.5602 47.6641 99.7321 47.8777 99.9404C48.0912 100.144 48.2605 100.412 48.3855 100.745C48.4636 100.948 48.5183 101.164 48.5496 101.394C48.586 101.618 48.6042 101.87 48.6042 102.151V109.315H47.2761V102.151C47.2761 101.526 47.1329 101.065 46.8464 100.769C46.56 100.472 46.1329 100.287 45.5652 100.214C45.4454 100.198 45.2944 100.185 45.1121 100.175C44.935 100.164 44.7292 100.159 44.4949 100.159C44.2553 100.159 43.9714 100.167 43.6433 100.183C43.3152 100.198 42.9428 100.222 42.5261 100.253V109.315H41.2136ZM50.6667 109.315L51.3699 101.808C51.3803 101.709 51.3855 101.623 51.3855 101.55C51.3907 101.472 51.3933 101.396 51.3933 101.323C51.3933 101.167 51.3829 101.021 51.3621 100.886C51.3464 100.745 51.3178 100.586 51.2761 100.409C51.2657 100.357 51.2397 100.271 51.198 100.151C51.1563 100.026 51.1147 99.9066 51.073 99.792C51.0365 99.6722 51.0131 99.5941 51.0027 99.5576C50.9819 99.4951 50.9584 99.4352 50.9324 99.3779C50.9115 99.3154 50.8907 99.2529 50.8699 99.1904H52.1433C52.2371 99.3988 52.3152 99.5941 52.3777 99.7764C52.4402 99.9535 52.4871 100.12 52.5183 100.276H52.6199C52.6876 100.172 52.8204 100.042 53.0183 99.8857C53.2214 99.7295 53.4246 99.5993 53.6277 99.4951C53.8308 99.3857 54.099 99.2894 54.4324 99.2061C54.7657 99.1175 55.1225 99.0732 55.5027 99.0732C55.8516 99.0732 56.1694 99.1175 56.4558 99.2061C56.7423 99.2946 56.9975 99.417 57.2214 99.5732C57.3777 99.6878 57.5183 99.818 57.6433 99.9639C57.7735 100.104 57.8855 100.258 57.9792 100.425C58.1355 100.716 58.2527 101.052 58.3308 101.433C58.4141 101.808 58.4558 102.224 58.4558 102.683V109.315H55.0105V108.245H57.1355V102.683C57.1355 102.282 57.0912 101.927 57.0027 101.62C56.9141 101.308 56.7813 101.05 56.6042 100.847C56.5001 100.711 56.3777 100.594 56.2371 100.495C56.1016 100.391 55.9428 100.313 55.7605 100.261C55.5834 100.203 55.3803 100.175 55.1511 100.175C54.8178 100.175 54.5027 100.224 54.2058 100.323C53.9089 100.422 53.6694 100.537 53.4871 100.667C53.3152 100.792 53.1589 100.933 53.0183 101.089C52.8829 101.24 52.7735 101.401 52.6902 101.573L51.9714 109.315H50.6667ZM61.323 109.315L60.4714 99.2295H61.7292L62.2058 104.987C62.5548 104.904 62.8881 104.789 63.2058 104.644C63.5235 104.493 63.7865 104.295 63.9949 104.05C64.2397 103.753 64.422 103.391 64.5417 102.964C64.6667 102.537 64.7527 102.081 64.7996 101.597L65.0183 99.2295H66.2449L66.0261 101.589C65.9584 102.287 65.8464 102.886 65.6902 103.386C65.5339 103.881 65.297 104.313 64.9792 104.683C64.6876 105.037 64.3282 105.318 63.9011 105.526C63.4792 105.735 62.9636 105.891 62.3542 105.995C62.3438 105.995 62.3334 105.998 62.323 106.003C62.3126 106.003 62.3048 106.003 62.2996 106.003L62.4871 108.253H64.6667C65.3855 108.253 66.0522 108.06 66.6667 107.675C67.2813 107.284 67.7891 106.737 68.1902 106.034C68.586 105.321 68.8282 104.513 68.9167 103.612L69.3308 99.2295H70.5652L70.1433 103.628C70.086 104.227 69.9714 104.789 69.7996 105.315C69.6277 105.836 69.4037 106.323 69.1277 106.776C68.8464 107.235 68.5209 107.638 68.1511 107.987C67.7813 108.336 67.3412 108.62 66.8308 108.839C66.4975 109.011 66.1407 109.133 65.7605 109.206C65.3855 109.279 64.9949 109.315 64.5886 109.315H61.323Z" fill="white"/>
<defs>
<clipPath id="clip0_750_11226">
<rect width="59" height="57" fill="white" transform="translate(21.054 31.0486)"/>
</clipPath>
</defs>
</svg>
