<svg width="102" height="144" viewBox="0 0 102 144" fill="none" xmlns="http://www.w3.org/2000/svg">
<path d="M50.6913 115.066C30.1446 115.066 11.7091 102.012 4.84042 82.5953C2.96714 77.3025 2.01562 71.861 2.01562 66.3899C2.01562 60.9187 2.90767 55.8043 4.66201 50.6602L4.81069 50.2439C11.6794 30.8569 30.1149 17.7439 50.6913 17.7439C56.0436 17.7439 61.3661 18.6657 66.5399 20.4498C70.227 21.7283 73.8249 23.4827 77.1849 25.6533C91.071 34.6927 99.3373 49.9168 99.3373 66.3899C99.3373 67.9063 99.2481 69.4823 99.0994 71.1474C96.6612 96.184 75.8469 115.066 50.6616 115.066H50.6913Z" fill="#181C36"/>
<path d="M50.6912 112.538C31.215 112.538 13.731 100.168 7.21909 81.7626C5.43501 76.7374 4.54297 71.5636 4.54297 66.3898C4.54297 61.2159 5.37554 56.3692 7.04068 51.4927L7.15962 51.1656C13.7013 32.6706 31.1853 20.2712 50.6912 20.2712C55.7758 20.2712 60.8307 21.1335 65.737 22.8284C69.2457 24.0475 72.6354 25.7127 75.817 27.7644C88.9598 36.328 96.8395 50.7493 96.8395 66.3898C96.8395 67.8468 96.7502 69.3335 96.6016 70.8797C94.312 94.608 74.5682 112.508 50.6912 112.508V112.538Z" fill="#3D4787"/>
<path d="M74.4486 29.9055C71.5049 27.9728 68.2936 26.3968 64.9335 25.2372C60.4733 23.691 55.7158 22.8287 50.7204 22.8287C31.6902 22.7989 15.5739 34.9902 9.59727 51.9687C9.56754 52.0876 9.50807 52.2065 9.4486 52.3255C7.93213 56.756 7.06982 61.4838 7.06982 66.4197C7.06982 71.3557 7.9916 76.3809 9.59727 80.9303C15.5739 97.8493 31.6902 110.011 50.6609 110.011C73.3187 110.011 91.9029 92.7349 94.0438 70.6718C94.1925 69.2743 94.252 67.847 94.252 66.4197C94.252 51.1064 86.3425 37.6663 74.3892 29.9055H74.4486Z" fill="#2A3069"/>
<path d="M98.5814 109.446C98.5559 113.593 95.2362 116.94 91.1401 117.01L90.9882 117.004L86.6293 116.828C86.6291 116.828 86.6289 116.828 86.6288 116.828C61.0384 115.787 35.4113 115.684 9.80984 116.504C5.64081 116.469 2.2765 113.048 2.30231 108.847L2.34756 101.479C2.35965 99.5097 2.72709 98.0962 3.53376 97.0232C4.34145 95.9488 5.69795 95.0719 7.98917 94.4081C9.1335 94.079 10.3199 93.8921 11.5443 93.7864C12.5184 93.708 13.9273 93.5928 15.6377 93.4529C17.4164 93.3074 19.5212 93.1352 21.8023 92.9501L21.8026 92.9501C40.9403 91.391 60.1764 91.5091 79.2935 93.3032L89.6203 94.2739L89.6218 94.274C90.8468 94.3873 92.042 94.5818 93.186 94.9114L93.1881 94.912C95.5411 95.5844 96.8444 96.4791 97.5892 97.554C98.342 98.6406 98.639 100.074 98.6267 102.078L98.5814 109.446Z" fill="#2A3069" stroke="#181C36" stroke-width="2"/>
<path d="M37.7603 109.315V108.245H42.6665V102.151C42.6665 101.537 42.5259 101.084 42.2446 100.792C41.9634 100.5 41.5493 100.315 41.0024 100.237C40.8722 100.211 40.7238 100.193 40.5571 100.183C40.3905 100.167 40.2004 100.159 39.9868 100.159C39.742 100.159 39.4373 100.17 39.0728 100.19C38.7082 100.206 38.2681 100.232 37.7524 100.269V99.1826C38.1379 99.1462 38.5181 99.1201 38.8931 99.1045C39.2733 99.0837 39.6509 99.0732 40.0259 99.0732C40.5467 99.0732 40.9816 99.0967 41.3306 99.1436C41.6847 99.1852 42.0207 99.2633 42.3384 99.3779C42.6613 99.4977 42.9295 99.6514 43.1431 99.8389C43.3566 100.026 43.5285 100.266 43.6587 100.558C43.742 100.698 43.8071 100.849 43.854 101.011C43.9009 101.172 43.9347 101.344 43.9556 101.526C43.9764 101.709 43.9868 101.907 43.9868 102.12V108.245H45.1431V109.315H37.7603ZM46.1353 109.315V108.245H50.9556L51.9478 108.261L49.5493 104.776L46.104 99.2295H47.5337L50.2993 103.8L50.729 104.464C51.1457 104.047 51.4738 103.576 51.7134 103.05C51.9582 102.519 52.1118 101.933 52.1743 101.292L52.3696 99.2295H53.6118L53.4243 101.222C53.4035 101.43 53.3774 101.631 53.3462 101.823C53.3149 102.016 53.2759 102.203 53.229 102.386C53.1821 102.563 53.1274 102.737 53.0649 102.909C52.9972 103.118 52.9139 103.318 52.8149 103.511C52.7212 103.703 52.617 103.896 52.5024 104.089C52.3514 104.339 52.1847 104.578 52.0024 104.808C51.8201 105.032 51.6222 105.24 51.4087 105.433L53.5571 108.534V109.315H46.1353ZM54.8774 109.737V108.651L56.9712 108.339C57.117 108.313 57.2655 108.284 57.4165 108.253C57.5728 108.222 57.7264 108.183 57.8774 108.136L55.5181 99.2295H56.8149L58.0103 103.753L58.9478 107.729C59.4373 107.49 59.8722 107.172 60.2524 106.776C60.6326 106.375 60.9425 105.909 61.1821 105.378C61.4217 104.847 61.5754 104.263 61.6431 103.628L62.0649 99.2295H63.3149L62.8931 103.589C62.8514 104.026 62.7733 104.443 62.6587 104.839C62.5493 105.235 62.4009 105.612 62.2134 105.972C62.0311 106.326 61.8149 106.662 61.5649 106.979C61.1326 107.604 60.5649 108.123 59.8618 108.534C59.1587 108.946 58.3306 109.222 57.3774 109.362C56.9087 109.435 56.466 109.5 56.0493 109.558C55.6326 109.62 55.242 109.68 54.8774 109.737Z" fill="white"/>
<path d="M83.6992 108.324C81.6992 107.924 81.6992 106.324 81.3992 104.724C81.1992 104.024 80.7992 103.124 80.1992 102.624L80.0992 102.524C80.6992 102.824 81.1992 103.324 81.4992 103.824C81.5992 103.924 81.7992 103.924 81.7992 103.724C81.5992 102.324 80.1992 100.824 79.0992 100.024C78.5992 99.7235 78.0992 99.5235 77.5992 99.3235C77.6992 99.3235 77.6992 99.3235 77.7992 99.2235C79.2992 98.6235 77.5992 94.8235 76.3992 94.8235C75.3992 94.9235 74.0992 96.9235 73.5992 97.6235C73.8992 97.1235 74.1992 96.4235 74.0992 95.9235C74.0992 95.4235 73.4992 94.9235 72.8992 94.5235C72.8992 94.4235 72.8992 94.4235 72.9992 94.3235C73.0992 94.0235 73.3992 93.4235 73.1992 93.1235C72.8992 92.4235 72.1992 92.0235 71.4992 91.7235C71.4992 91.6235 71.5992 91.6235 71.5992 91.5235C71.8992 90.9235 71.8992 90.5235 71.4992 90.0235C71.2992 89.7235 70.8992 89.3235 70.4992 89.0235C70.7992 88.4235 70.9992 87.9235 70.8992 87.3235C70.6992 86.5235 69.7992 85.8235 68.9992 85.3235C69.0992 85.0235 69.1992 84.8235 69.1992 84.6235C69.2992 83.4235 68.5992 82.9235 67.6992 82.5235C67.6992 82.3235 67.7992 82.2235 67.7992 82.0235C71.1992 80.5235 75.7992 77.2235 78.7992 70.6235C83.7992 59.5235 80.0992 37.0235 60.4992 34.5235C60.4992 34.5235 52.5992 25.6235 35.3992 36.6235C19.6992 46.6235 16.3992 68.2235 29.6992 79.0235C29.4992 79.4235 29.4992 79.9235 29.6992 80.5235C29.7992 80.8235 29.8992 81.1235 29.9992 81.5235C29.1992 82.1235 28.4992 82.7235 28.8992 83.9235C28.8992 84.0235 28.9992 84.3235 29.1992 84.5235C28.4992 85.2235 27.6992 86.0235 27.6992 86.8235C27.6992 87.4235 27.9992 87.9235 28.3992 88.4235C28.0992 88.8235 27.7992 89.3235 27.5992 89.6235C27.2992 90.2235 27.3992 90.6235 27.6992 91.1235C27.6992 91.2235 27.7992 91.2235 27.7992 91.3235C27.1992 91.7235 26.4992 92.2235 26.2992 93.0235C26.1992 93.4235 26.5992 93.9235 26.6992 94.2235C26.6992 94.3235 26.7992 94.3235 26.7992 94.4235C26.2992 94.8235 25.7992 95.5235 25.7992 96.0235C25.8992 96.5235 26.1992 97.1235 26.5992 97.5235C25.9992 96.8235 24.3992 95.2235 23.3992 95.3235C22.1992 95.4235 21.1992 99.5235 22.7992 99.8235C22.8992 99.8235 22.9992 99.8235 22.9992 99.8235C22.4992 100.124 22.0992 100.424 21.6992 100.824C20.6992 101.724 19.5992 103.424 19.6992 104.924C19.6992 105.024 19.8992 105.024 19.9992 104.924C20.1992 104.424 20.5992 103.924 21.0992 103.424L20.9992 103.524C20.5992 103.924 20.1992 104.924 20.1992 105.624C20.1992 107.224 20.4992 108.824 18.5992 109.624C18.4992 109.624 18.4992 109.724 18.5992 109.724C19.9992 110.324 21.1992 110.224 22.3992 109.124C22.5992 109.024 22.6992 108.824 22.7992 108.624C22.5992 109.024 22.3992 109.524 22.0992 109.824C21.9992 109.924 22.0992 110.024 22.1992 110.024C23.6992 109.324 24.6992 108.724 25.4992 107.224C26.1992 105.924 26.5992 104.524 26.2992 103.224C26.2992 103.324 26.3992 103.424 26.3992 103.424C26.6992 104.124 26.6992 104.824 26.7992 105.524C26.7992 105.624 26.8992 105.624 26.8992 105.524C26.9992 105.424 27.0992 105.224 27.0992 105.124C27.2992 104.524 27.5992 103.924 27.7992 103.224C28.0992 102.024 28.3992 100.924 28.1992 99.7235C28.9992 100.524 29.8992 101.324 30.1992 101.024C30.8992 100.324 31.7992 96.7235 30.8992 96.5235C30.4992 96.4235 29.5992 96.6235 28.7992 96.8235C29.2992 96.5235 29.6992 96.1235 29.7992 95.9235C29.8992 95.3235 29.7992 94.9235 29.5992 94.4235C30.3992 93.8235 30.9992 93.1235 30.6992 92.0235C30.5992 91.8235 30.5992 91.6235 30.4992 91.4235C30.6992 91.3235 30.8992 91.2235 31.0992 91.1235C32.0992 90.6235 31.6992 89.5235 31.2992 88.7235C31.6992 88.4235 32.0992 88.0235 32.3992 87.6235C32.7992 87.1235 32.6992 86.2235 32.4992 85.4235C32.9992 85.2235 33.3992 84.9235 33.5992 84.3235C33.7992 83.7235 33.5992 82.9235 33.3992 82.2235C33.5992 82.1235 33.6992 82.0235 33.8992 81.9235C33.8992 81.9235 33.9992 81.9235 33.9992 82.0235L33.8992 81.9235C33.8992 81.9235 33.8992 82.0235 33.9992 82.0235C34.0992 82.1235 34.1992 82.1235 34.3992 82.2235C34.3992 82.2235 40.3992 88.1235 50.0992 87.7235C59.5992 87.3235 63.3992 83.8235 63.5992 83.6235C63.8992 83.8235 64.0992 83.9235 64.4992 84.0235C64.3992 84.7235 64.2992 85.5235 64.6992 86.1235C64.9992 86.6235 65.4992 86.8235 65.9992 87.0235C65.8992 87.8235 65.9992 88.7235 66.4992 89.2235C66.8992 89.6235 67.2992 89.9235 67.7992 90.1235C67.4992 91.0235 67.3992 92.1235 68.3992 92.4235C68.5992 92.5235 68.7992 92.6235 68.9992 92.6235C68.8992 92.8235 68.8992 93.0235 68.8992 93.2235C68.7992 94.4235 69.5992 94.9235 70.3992 95.4235C70.2992 95.9235 70.1992 96.4235 70.4992 96.9235C70.5992 97.1235 71.0992 97.4235 71.5992 97.6235C70.7992 97.5235 69.8992 97.5235 69.4992 97.6235C68.5992 97.9235 70.1992 101.324 70.9992 101.924C71.3992 102.224 72.0992 101.324 72.7992 100.324C72.7992 101.524 73.2992 102.524 73.7992 103.624C74.0992 104.224 74.4992 104.824 74.7992 105.324C74.8992 105.524 74.9992 105.624 75.0992 105.724C75.0992 105.724 75.1992 105.724 75.1992 105.624C75.0992 104.924 74.9992 104.224 75.1992 103.524C75.1992 103.424 75.2992 103.324 75.2992 103.224C75.2992 104.624 75.8992 105.924 76.7992 107.024C77.8992 108.324 78.8992 108.724 80.4992 109.124C80.5992 109.124 80.6992 109.024 80.5992 108.924C80.1992 108.624 79.8992 108.324 79.5992 107.824C79.7992 107.924 79.8992 108.124 80.0992 108.224C81.3992 109.024 82.6992 109.024 83.8992 108.124C83.7992 108.424 83.7992 108.424 83.6992 108.324ZM30.7992 53.3235C30.7992 53.3235 30.7992 53.5235 30.8992 53.8235C30.8992 53.5235 30.7992 53.3235 30.7992 53.3235ZM40.9992 53.4235C40.9992 53.4235 45.4992 51.9235 47.6992 48.9235C45.5992 51.8235 41.3992 53.3235 40.9992 53.4235ZM50.2992 55.7235C50.2992 55.7235 52.9992 52.0235 54.2992 48.6235C53.0992 51.9235 50.3992 55.6235 50.2992 55.7235ZM58.0992 47.4235C58.0992 47.3235 58.0992 47.3235 58.0992 47.4235ZM62.6992 50.2235C62.6992 50.3235 62.5992 51.3235 62.6992 52.7235C62.6992 52.4235 62.6992 52.1235 62.5992 51.8235C62.5992 50.9235 62.6992 50.2235 62.6992 50.2235ZM63.3992 56.1235C63.3992 56.2235 63.4992 56.3235 63.4992 56.4235C63.4992 56.4235 63.4992 56.3235 63.3992 56.1235ZM62.6992 53.1235C62.6992 53.2235 62.6992 53.3235 62.6992 53.4235C62.7992 53.3235 62.7992 53.2235 62.6992 53.1235ZM62.7992 53.8235C62.7992 53.9235 62.7992 54.0235 62.8992 54.1235C62.8992 54.0235 62.7992 53.9235 62.7992 53.8235ZM63.1992 55.4235C63.1992 55.5235 63.2992 55.6235 63.2992 55.7235C63.2992 55.7235 63.1992 55.6235 63.1992 55.4235ZM64.2992 57.7235C64.1992 57.6235 64.1992 57.5235 64.0992 57.4235C64.0992 57.5235 64.1992 57.6235 64.2992 57.7235Z" fill="black"/>
<path d="M27.351 96.7915C27.2381 96.2598 26.7482 95.0952 26.0357 95.206C25.9576 95.213 25.8811 95.2385 25.8039 95.2547C25.8131 95.2539 25.8218 95.2485 25.8306 95.243C25.8527 95.2318 25.8452 95.2 25.8185 95.2117C24.0111 95.8153 22.362 96.3768 20.9109 97.6938C19.8885 98.6294 18.7882 100.341 18.8723 101.783C18.8856 101.93 19.0878 101.912 19.138 101.801C19.3579 101.262 19.7703 100.752 20.2679 100.313C20.2387 100.349 20.2094 100.384 20.1847 100.418C19.7505 101.046 19.4499 101.972 19.4303 102.728C19.3887 104.367 19.6909 105.966 17.8036 106.711C17.7451 106.73 17.7292 106.81 17.7919 106.837C19.1982 107.483 20.4279 107.302 21.5844 106.262C21.7473 106.118 21.8856 105.957 22.0185 105.788C21.8228 106.236 21.5775 106.647 21.2708 106.995C21.1952 107.08 21.2799 107.198 21.3823 107.151C22.8894 106.454 23.8486 105.895 24.6428 104.383C25.3299 103.07 25.703 101.716 25.4125 100.348C25.4521 100.428 25.501 100.507 25.5406 100.587C25.8694 101.252 25.8399 101.949 25.9039 102.657C25.9098 102.721 25.9849 102.733 26.0284 102.701C26.1763 102.595 26.2093 102.448 26.2729 102.281C26.4928 101.64 26.7621 101.032 26.9532 100.38C27.3033 99.1813 27.6216 98.0408 27.3514 96.7961L27.351 96.7915Z" fill="#784826"/>
<path d="M28.4504 90.8189C28.0007 89.4839 26.8305 90.4236 26.1151 91.1692C25.516 91.6125 24.9619 92.3481 25.0127 92.8577C25.0809 93.5093 25.6745 94.2847 26.0915 94.7472C26.4472 95.1458 28.8439 93.6319 28.9585 93.1074C29.1401 92.248 28.7203 91.6004 28.4545 90.8139L28.4504 90.8189Z" fill="#945A30"/>
<path d="M29.8459 89.1458C29.5178 87.823 28.3138 86.6998 27.2206 88.0308C27.2085 88.0505 27.2052 88.0647 27.2022 88.0834C26.4732 88.5756 25.6845 89.0221 25.4565 89.9321C25.3687 90.292 25.7155 90.798 25.877 91.0983C26.2013 91.7128 26.4783 92.3686 27.0157 92.8295C27.1012 92.9052 27.2299 92.8426 27.298 92.7762C28.3994 91.639 30.3071 91.0171 29.8505 89.1454L29.8459 89.1458Z" fill="#784826"/>
<path d="M29.9439 85.0054C29.355 83.9748 28.4318 84.4196 27.8314 85.1039C27.4224 85.3447 26.8657 86.2057 26.6567 86.609C26.3483 87.1928 26.4149 87.5712 26.791 88.093C27.0398 88.4364 27.5766 89.2494 28.0213 89.3018C28.2652 89.3353 28.2903 89.3052 28.5063 89.1838C29.0786 88.8541 29.6359 88.5118 30.2132 88.1863C31.4786 87.4789 30.4814 85.9294 29.9481 85.0004L29.9439 85.0054Z" fill="#945A30"/>
<path d="M31.2569 81.4957C31.1139 80.837 30.7466 80.4117 29.9656 80.2786C29.1705 80.1421 28.7183 80.8268 28.3509 81.4252C27.6444 82.1144 26.7807 82.9615 26.7624 83.8339C26.7471 84.4838 27.0915 84.9112 27.4438 85.4259C27.7368 85.8487 28.1286 86.6979 28.6585 86.8723C28.9926 86.981 29.6352 86.3022 29.8663 86.1423C30.5238 85.6799 31.0206 85.2829 31.5049 84.6462C32.0678 83.9051 31.7418 82.3504 31.2477 81.4966L31.2569 81.4957Z" fill="#784826"/>
<path d="M32.2436 78.6321C31.5351 77.0982 30.2915 77.5859 29.3001 78.4028C28.3768 79.0005 27.6023 79.6033 27.9555 80.896C28.0656 81.2937 28.9645 82.8335 29.2618 83.0475C29.6773 83.3388 30.6627 82.7632 31.0408 82.641C31.7797 82.412 32.4485 82.0736 32.7286 81.3303C33.0334 80.5014 32.5941 79.3832 32.2486 78.6363L32.2436 78.6321Z" fill="#945A30"/>
<path d="M33.7937 75.0825C33.5681 74.3803 33.1397 73.9466 32.3751 73.8398C31.7649 73.7514 31.2808 73.8786 30.8476 74.1587C30.2653 74.3271 29.6386 74.9768 29.2538 75.3821C28.6065 76.0614 28.539 76.6974 28.7579 77.5808C28.9622 78.4054 29.4888 79.5667 30.1907 80.0543C30.6408 80.3703 31.7007 79.5935 32.0975 79.4232C32.8858 79.074 33.5049 78.5965 33.8444 77.7922C34.1262 77.1182 34.0219 75.7613 33.7983 75.0821L33.7937 75.0825Z" fill="#784826"/>
<path d="M26.0489 94.6862C26.0489 94.6862 23.8481 92.0182 22.6102 92.158C21.3764 92.2928 20.4554 96.3966 22.0014 96.6921C23.5475 96.9877 26.0641 95.3657 26.0641 95.3657C26.0641 95.3657 28.6984 98.8838 29.3757 98.1787C30.0484 97.474 30.9867 93.8688 30.0445 93.6947C29.102 93.516 26.0439 94.682 26.0439 94.682L26.0489 94.6862Z" fill="#D03642"/>
<path d="M71.7573 97.4055C71.773 96.8621 72.0458 95.6285 72.7667 95.6096C72.8448 95.6025 72.9246 95.6139 73.0035 95.616C72.9943 95.6168 72.9847 95.613 72.9751 95.6093C72.9513 95.6022 72.953 95.5696 72.9814 95.5763C74.8678 95.8456 76.5909 96.1019 78.2548 97.1372C79.4285 97.874 80.8183 99.3601 80.9943 100.794C81.0076 100.941 80.8055 100.959 80.7362 100.859C80.4232 100.369 79.9259 99.9411 79.3576 99.5988C79.3927 99.6281 79.4278 99.6573 79.4583 99.687C79.9981 100.226 80.46 101.083 80.6151 101.824C80.9502 103.429 80.9399 105.056 82.9303 105.45C82.9913 105.458 83.0213 105.534 82.9645 105.572C81.697 106.46 80.4548 106.503 79.1304 105.687C78.9442 105.574 78.7793 105.441 78.6181 105.298C78.8911 105.704 79.2063 106.065 79.5703 106.351C79.6601 106.422 79.5978 106.553 79.4888 106.526C77.881 106.111 76.8371 105.733 75.7843 104.387C74.8727 103.219 74.2626 101.954 74.3028 100.556C74.2782 100.642 74.2443 100.729 74.2196 100.814C74.0155 101.527 74.1698 102.208 74.2338 102.916C74.2396 102.98 74.1678 103.005 74.1193 102.982C73.9548 102.904 73.896 102.766 73.8033 102.612C73.4719 102.021 73.098 101.471 72.7929 100.864C72.2333 99.7479 71.7155 98.6831 71.7577 97.4101L71.7573 97.4055Z" fill="#784826"/>
<path d="M69.6036 91.727C69.8063 90.333 71.1262 91.0473 71.9638 91.6524C72.6327 91.981 73.3099 92.6052 73.3514 93.1156C73.4013 93.7688 72.9565 94.6382 72.6293 95.1681C72.351 95.624 69.7215 94.565 69.5145 94.0696C69.1816 93.2567 69.4784 92.5443 69.5986 91.7229L69.6036 91.727Z" fill="#945A30"/>
<path d="M67.9306 90.3313C68.0159 88.9711 68.9988 87.6501 70.3131 88.7632C70.3285 88.7803 70.3344 88.7937 70.3406 88.8117C71.1461 89.1649 72.0022 89.4626 72.3898 90.3169C72.5409 90.6553 72.2905 91.2152 72.1855 91.5397C71.9768 92.2024 71.822 92.8973 71.3761 93.4472C71.3055 93.537 71.1677 93.4985 71.0888 93.4454C69.8011 92.5244 67.8128 92.255 67.926 90.3317L67.9306 90.3313Z" fill="#784826"/>
<path d="M67.0909 86.2757C67.4853 85.1561 68.4733 85.428 69.1868 85.9934C69.6324 86.1569 70.3346 86.9039 70.6126 87.2632C71.0208 87.7821 71.0232 88.1663 70.7469 88.7472C70.5638 89.1297 70.1817 90.0258 69.7535 90.1571C69.5196 90.2339 69.4895 90.2088 69.2553 90.1281C68.6331 89.9065 68.0234 89.6699 67.397 89.4533C66.0252 88.9845 66.728 87.2812 67.0859 86.2715L67.0909 86.2757Z" fill="#945A30"/>
<path d="M65.1699 83.0635C65.1923 82.3898 65.4773 81.9055 66.2217 81.6343C66.9794 81.3573 67.5472 81.9498 68.016 82.4725C68.8348 83.0237 69.8364 83.7019 70.0111 84.5569C70.1428 85.1935 69.8807 85.6758 69.6265 86.2453C69.4142 86.7139 69.1812 87.6196 68.6912 87.8863C68.382 88.0532 67.628 87.5008 67.372 87.385C66.6421 87.0481 66.0822 86.7467 65.4914 86.2073C64.8046 85.5793 64.8462 83.9914 65.1791 83.0627L65.1699 83.0635Z" fill="#784826"/>
<path d="M63.6805 80.4238C64.1022 78.7876 65.4131 79.0442 66.535 79.6699C67.5506 80.0921 68.4208 80.546 68.3054 81.8812C68.2684 82.2922 67.6605 83.9684 67.4064 84.2322C67.05 84.5933 65.9773 84.2041 65.5834 84.1517C64.8154 84.0591 64.0967 83.8462 63.6877 83.1652C63.2391 82.4045 63.4705 81.2256 63.6763 80.4288L63.6805 80.4238Z" fill="#945A30"/>
<path d="M61.5178 77.2057C61.6137 76.4745 61.9573 75.9709 62.6903 75.7286C63.2747 75.5321 63.7738 75.5703 64.2502 75.7681C64.8533 75.8293 65.5865 76.3558 66.0378 76.6856C66.7965 77.2376 66.977 77.8512 66.9203 78.7595C66.8673 79.6074 66.5577 80.8443 65.9548 81.4501C65.5687 81.8417 64.3866 81.2677 63.9657 81.1715C63.1275 80.9694 62.4327 80.6108 61.9544 79.8805C61.5562 79.2681 61.4152 77.9144 61.5132 77.2061L61.5178 77.2057Z" fill="#784826"/>
<path d="M72.6609 95.1051C72.6609 95.1051 74.347 92.0854 75.5899 92.0007C76.8279 91.9118 78.4705 95.7837 77.0027 96.3519C75.5348 96.9202 72.768 95.7763 72.768 95.7763C72.768 95.7763 70.808 99.7102 70.0151 99.1381C69.2268 98.5656 67.6566 95.1874 68.5522 94.847C69.4473 94.5019 72.6651 95.1001 72.6651 95.1001L72.6609 95.1051Z" fill="#D03642"/>
<path d="M59.6701 31.6001C59.6701 31.6001 51.7928 22.66 34.5205 33.6674C17.353 44.6052 14.9332 69.5124 33.1008 78.9434C25.2305 71.1559 27.1323 65.6062 29.2147 60.67C31.2971 55.7338 30.002 50.4317 30.002 50.4317C37.9114 51.6382 46.9659 45.997 46.9659 45.997C44.7223 48.9977 40.2165 50.5449 40.2165 50.5449C50.8194 50.2942 53.9834 42.6199 53.9834 42.6199C54.382 46.1041 49.4919 52.7719 49.4919 52.7719C55.5134 51.1339 57.2883 44.4376 57.2883 44.4376C58.0507 52.0947 63.4744 54.8556 63.4744 54.8556C61.4383 52.0105 61.8996 47.3322 61.8996 47.3322C63.2723 52.6227 71.3398 58.2894 71.3398 58.2894C69.3473 60.9432 67.9617 71.7359 67.6585 74.5795C67.3554 77.4232 62.6881 80.6154 62.6881 80.6154C62.6881 80.6154 72.777 79.2393 77.8833 67.8968C82.9896 56.5543 79.3178 34.1484 59.6613 31.6055L59.6701 31.6001Z" fill="#E6A241"/>
<path d="M59.6701 31.6001C59.6701 31.6001 51.7928 22.66 34.5205 33.6674C17.353 44.6052 14.9332 69.5124 33.1008 78.9434C25.2305 71.1559 27.1323 65.6062 29.2147 60.67C31.2971 55.7338 30.002 50.4317 30.002 50.4317C37.9114 51.6382 46.9659 45.997 46.9659 45.997C44.7223 48.9977 40.2165 50.5449 40.2165 50.5449C50.8194 50.2942 53.9834 42.6199 53.9834 42.6199C54.382 46.1041 49.4919 52.7719 49.4919 52.7719C55.5134 51.1339 57.2883 44.4376 57.2883 44.4376C58.0507 52.0947 63.4744 54.8556 63.4744 54.8556C61.4383 52.0105 61.8996 47.3322 61.8996 47.3322C63.2723 52.6227 71.3398 58.2894 71.3398 58.2894C69.3473 60.9432 67.9617 71.7359 67.6585 74.5795C67.3554 77.4232 62.6881 80.6154 62.6881 80.6154C62.6881 80.6154 72.777 79.2393 77.8833 67.8968C82.9896 56.5543 79.3178 34.1484 59.6613 31.6055L59.6701 31.6001Z" fill="#784826"/>
<path d="M27.9267 64.1958C27.8806 64.3529 27.835 64.5146 27.7986 64.6754C27.7986 64.6754 27.843 64.4999 27.9267 64.1958Z" fill="#BE6E38"/>
<path d="M68.6845 67.3864C68.7419 67.0476 68.8076 66.6987 68.8688 66.3503C68.7972 66.6858 68.731 67.03 68.6845 67.3864Z" fill="#BE6E38"/>
<path d="M68.524 68.3273C68.5814 68.0394 68.6321 67.729 68.6853 67.3952C68.63 67.706 68.5751 68.0215 68.524 68.3273Z" fill="#BE6E38"/>
<g style="mix-blend-mode:multiply" opacity="0.5">
<path d="M27.6169 48.6927C30.1743 54.279 28.4311 62.1953 27.9308 64.1906C28.27 62.9741 28.7432 61.8057 29.219 60.6649C31.3014 55.7288 30.0064 50.4266 30.0064 50.4266C36.7794 51.4627 44.381 47.4769 46.4338 46.3091C48.3056 44.5742 49.7598 42.6268 49.7598 42.6268C39.5813 50.5884 27.6169 48.6927 27.6169 48.6927Z" fill="#784826"/>
</g>
<g style="mix-blend-mode:multiply" opacity="0.5">
<path d="M53.8959 40.2194C50.7374 48.8751 40.2166 50.5451 40.2166 50.5451C50.8195 50.2943 53.9835 42.62 53.9835 42.62L53.9847 42.6338C54.1022 41.2707 53.8959 40.2194 53.8959 40.2194Z" fill="#784826"/>
</g>
<g style="mix-blend-mode:multiply" opacity="0.5">
<path d="M73.6122 58.0606C61.9946 51.6035 60.674 40.4396 60.674 40.4396C58.2095 49.4957 63.4742 54.8509 63.4742 54.8509C61.4381 52.0058 61.8995 47.3275 61.8995 47.3275C63.2722 52.618 71.3396 58.2847 71.3396 58.2847C70.3388 59.612 69.4988 62.9721 68.8646 66.3552C70.0343 60.8531 73.608 58.0656 73.608 58.0656L73.6122 58.0606Z" fill="#784826"/>
</g>
<g style="mix-blend-mode:multiply" opacity="0.5">
<path d="M49.492 52.772C55.1246 51.2386 57.0445 45.275 57.2675 44.5137C57.213 43.041 57.1061 41.8603 57.1061 41.8603C56.0928 49.0389 49.492 52.772 49.492 52.772Z" fill="#784826"/>
</g>
<path d="M29.9714 59.0499C29.9714 59.0499 29.1836 56.2309 26.6673 57.1395C24.151 58.0481 24.5626 64.6438 28.0459 64.4397C28.0459 64.4397 28.5019 62.6198 29.9714 59.0499Z" fill="#E8CAAA"/>
<path d="M26.4966 59.6562C26.4966 59.6562 26.7326 59.6534 27.0562 59.7492C27.2224 59.7944 27.4091 59.8609 27.6028 59.9545C27.797 60.0527 27.9932 60.1739 28.1732 60.3198C28.2675 60.39 28.3452 60.4802 28.4266 60.5608C28.508 60.6415 28.5681 60.7426 28.6361 60.8291C28.7597 61.0171 28.8335 61.2188 28.8723 61.3913C28.8806 61.4832 28.8877 61.5613 28.8943 61.6348C28.901 61.7083 28.8834 61.7701 28.8742 61.8219C28.8554 61.9209 28.8416 61.9731 28.8416 61.9731C28.8416 61.9731 28.8182 61.9196 28.7869 61.8298C28.769 61.7851 28.759 61.7258 28.726 61.6686C28.6976 61.6109 28.6642 61.5491 28.6346 61.4777C28.587 61.4125 28.5348 61.3477 28.4956 61.2726C28.4384 61.2036 28.3812 61.1347 28.324 61.0657C28.1917 60.9341 28.0535 60.7891 27.889 60.6604C27.7375 60.5213 27.5604 60.4076 27.406 60.2873C27.2381 60.1728 27.0849 60.0662 26.9517 59.9764C26.6849 59.7921 26.5012 59.6558 26.5012 59.6558L26.4966 59.6562Z" fill="#BB936E"/>
<path d="M68.6784 65.3255C68.6784 65.3255 69.9142 63.3192 71.7443 64.5015C73.574 65.6792 73.397 68.4836 71.6994 69.9435C70.0065 71.4029 67.7522 70.9074 67.7522 70.9074C67.7522 70.9074 68.5252 66.0897 68.6784 65.3255Z" fill="#E8CAAA"/>
<path d="M68.1114 68.684C68.1114 68.684 68.2431 68.4498 68.5276 68.1647C68.6676 68.0223 68.8389 67.8678 69.0482 67.7238C69.2521 67.5711 69.4864 67.448 69.7304 67.3286C69.9806 67.2272 70.2412 67.1388 70.4923 67.0975C70.6155 67.0771 70.7387 67.0567 70.8548 67.0601C70.9705 67.0589 71.0807 67.0489 71.1843 67.0673C71.3852 67.0862 71.5552 67.1218 71.6658 67.1674C71.7757 67.2037 71.8383 67.2305 71.8383 67.2305C71.8383 67.2305 71.7694 67.2367 71.6553 67.2563C71.5447 67.2617 71.3851 67.29 71.1984 67.3255C71.1065 67.3338 71.0084 67.3751 70.9035 67.3938C70.8033 67.4122 70.6963 67.4589 70.5873 67.4827C70.4737 67.5068 70.368 67.5674 70.2552 67.6007C70.1429 67.6387 70.0276 67.6954 69.9161 67.7426C69.4662 67.9408 69.025 68.1845 68.6896 68.3677C68.3458 68.5609 68.1206 68.6832 68.1206 68.6832L68.1114 68.684Z" fill="#BB936E"/>
<path d="M67.6621 74.5702C67.9652 71.7265 69.3467 60.9388 71.3433 58.2801C71.3433 58.2801 63.2713 52.6138 61.9032 47.3229C61.9032 47.3229 61.4372 52.0016 63.4779 54.8462C63.4779 54.8462 58.0542 52.0854 57.2919 44.4283C57.2919 44.4283 55.5124 51.125 49.4955 52.7626C49.4955 52.7626 54.3856 46.0948 53.9869 42.6106C53.9869 42.6106 50.8229 50.2848 40.22 50.5356C40.22 50.5356 44.7304 48.988 46.9694 45.9877C46.9694 45.9877 37.9149 51.6289 30.0056 50.4223C30.0056 50.4223 31.3006 55.7245 29.2182 60.6607C27.1312 65.5972 25.2336 71.142 33.1043 78.934C33.2259 78.9971 33.3478 79.0648 33.4739 79.1275C33.4739 79.1275 39.5148 85.0749 49.1915 84.6717C58.8632 84.2643 62.7004 80.6007 62.7004 80.6007C62.7004 80.6007 67.3677 77.4084 67.6708 74.5648L67.6621 74.5702Z" fill="#EFD9C1"/>
<path d="M45.2307 72.2782C42.987 72.4627 40.7404 72.666 38.8087 73.9432C37.5324 74.7859 36.2848 75.9456 36.3677 77.5778C36.3681 77.5824 36.3777 77.5862 36.3768 77.577C36.4032 75.4625 38.7706 74.0347 40.5693 73.4365C42.4577 72.8071 44.4876 72.6141 46.4677 72.5878C48.647 72.562 50.7703 72.5829 52.8436 73.331C54.658 73.982 56.5057 74.9496 57.9691 76.2253L58.0668 76.0775C54.7438 72.6773 49.764 71.9051 45.2307 72.2782Z" fill="#BB936E"/>
<path d="M47.7265 65.1507C47.7265 65.1507 47.7381 65.2793 47.6791 65.4977C47.6243 65.7111 47.5106 66.041 47.1927 66.3153C47.0385 66.4543 46.835 66.5607 46.6053 66.6325C46.3785 66.6854 46.1229 66.7271 45.8748 66.6986C45.8234 66.6939 45.7253 66.6843 45.7023 66.6864L45.6142 66.6851C45.6142 66.6851 45.5921 66.6964 45.5829 66.6972C45.529 66.716 45.4772 66.7577 45.4371 66.8262C45.348 66.9686 45.3233 67.207 45.3428 67.423C45.374 67.8694 45.5584 68.3206 45.8243 68.6485C46.0952 68.9807 46.4643 69.1696 46.8089 69.2403C47.1576 69.3061 47.4704 69.2824 47.6801 69.2449C47.8943 69.207 48.0213 69.177 48.0213 69.177C48.0213 69.177 47.9904 69.1936 47.9415 69.2166C47.8835 69.2404 47.8091 69.2888 47.7059 69.3259C47.5 69.4048 47.1809 69.5124 46.7762 69.4934C46.3765 69.4786 45.8825 69.2918 45.5327 68.9065C45.1699 68.5317 44.9417 68.0058 44.8913 67.4499C44.8756 67.1734 44.8953 66.8798 45.0642 66.5959C45.1486 66.4539 45.299 66.3245 45.4811 66.2895C45.5271 66.2854 45.5864 66.2754 45.6282 66.2762L45.7167 66.2821L45.9042 66.3068C46.1205 66.3428 46.3281 66.3333 46.5207 66.3113C46.7111 66.2662 46.8916 66.2128 47.0307 66.1122C47.3194 65.924 47.4995 65.6622 47.5931 65.4685C47.6822 65.2751 47.7173 65.1515 47.7173 65.1515L47.7265 65.1507Z" fill="#BB936E"/>
<path d="M42.2736 55.4631C42.1747 55.2405 42.1953 54.9561 42.1136 54.718C42.0497 54.5246 41.9483 54.3763 41.8227 54.2162C41.5718 53.9008 41.132 53.8016 40.7537 53.7664C39.951 53.7001 39.3384 54.3021 38.9197 54.9468C38.8273 55.0524 38.7546 55.1701 38.7145 55.2896C38.6664 55.3727 38.623 55.4553 38.5883 55.5326C38.5686 55.5714 38.6095 55.614 38.6434 55.5785C38.6601 55.5585 38.6768 55.5385 38.6981 55.518C38.7181 55.5857 38.8134 55.5632 38.846 55.5139C39.1632 55.0266 39.9355 54.7576 40.491 54.7027C41.0786 54.6449 41.4649 54.8183 41.7404 55.201C41.8117 55.3752 41.8927 55.5532 42.0075 55.6956C42.1327 55.8511 42.3471 55.6093 42.2736 55.4631Z" fill="#A66835"/>
<path d="M58.2852 55.1492C57.4357 55.1288 56.5543 55.5235 56.146 56.2831C56.1155 56.3044 56.0854 56.3302 56.0557 56.3607C56.0047 56.4117 56.0022 56.486 56.0302 56.539C56.0222 56.5537 56.0185 56.5633 56.0105 56.5779C56.0001 56.6159 56.0443 56.6443 56.0694 56.6142C56.074 56.6138 56.0823 56.6038 56.0911 56.5984C56.1103 56.6059 56.1379 56.6034 56.1646 56.5917C57.4032 56.0489 59.3821 55.805 59.9135 57.378C59.964 57.5263 60.1349 57.3673 60.1303 57.2658C60.0673 56.2108 59.4592 55.1727 58.2848 55.1446L58.2852 55.1492Z" fill="#A66835"/>
<path d="M41.5958 60.8743C41.3454 62.3051 40.6408 63.374 40.0106 63.2689C39.3846 63.1588 39.0773 61.9128 39.3231 60.4825C39.5734 59.0517 40.2826 57.9824 40.9086 58.0925C41.5342 58.198 41.8419 59.4486 41.5912 60.8747L41.5958 60.8743Z" fill="#371C12"/>
<path d="M40.4914 59.5667C40.3771 59.9941 40.1405 60.2982 39.9508 60.2505C39.7658 60.2023 39.7032 59.8188 39.8129 59.3918C39.9225 58.9648 40.1638 58.6603 40.3534 58.708C40.5389 58.7608 40.601 59.1397 40.4914 59.5667Z" fill="white"/>
<path d="M58.6846 62.6353C58.4389 64.0656 57.7297 65.1349 57.1041 65.0294C56.4781 64.9193 56.1708 63.6733 56.4215 62.2472C56.6673 60.8168 57.3761 59.7429 57.9975 59.8535C58.6281 59.9631 58.9308 61.2095 58.685 62.6399L58.6846 62.6353Z" fill="#371C12"/>
<path d="M57.5706 61.3241C57.4656 61.7507 57.2198 62.0556 57.0347 62.0074C56.8496 61.9593 56.7871 61.5757 56.8967 61.1487C57.011 60.7214 57.2472 60.4127 57.4373 60.465C57.6223 60.5131 57.6849 60.8967 57.5706 61.3241Z" fill="white"/>
<path d="M63.3598 65.5147C63.608 66.3121 62.2514 67.4446 60.3317 68.0352C58.4169 68.63 56.6558 68.4651 56.4122 67.6673C56.164 66.8699 57.521 65.742 59.4403 65.1468C61.3597 64.5516 63.1163 64.7169 63.3598 65.5147Z" fill="#F0CCC2"/>
<path d="M38.7296 65.3904C38.2098 66.0443 36.5123 65.5587 34.9445 64.3063C33.3722 63.0544 32.5191 61.5104 33.039 60.8566C33.5588 60.2028 35.2563 60.6884 36.8241 61.9407C38.3964 63.1926 39.2495 64.7366 38.7296 65.3904Z" fill="#F0CCC2"/>
</svg>
