<?xml version="1.0" encoding="UTF-8"?><svg id="Layer_2" xmlns="http://www.w3.org/2000/svg" width="9.26mm" height="2.88mm" viewBox="0 0 26.25 8.16"><g id="Layer_1-2"><g><path d="m4.08.15h18.09c2.17,0,3.93,1.76,3.93,3.93h0c0,2.17-1.76,3.93-3.93,3.93H4.08C1.91,8.01.15,6.25.15,4.08H.15C.15,1.91,1.91.15,4.08.15Z" fill="#d79d1a" stroke="#4a1836" stroke-miterlimit="4" stroke-width=".3"/><path d="m4.06.7h18.12c1.86,0,3.38,1.51,3.38,3.38h0c0,1.86-1.51,3.38-3.38,3.38H4.06c-1.86,0-3.38-1.51-3.38-3.38h0c0-1.86,1.52-3.38,3.38-3.38Z" fill="#fed840"/></g><g><path d="m.76,3.37s.02-.07.03-.11c0,.04-.03.07-.03.11Z" fill="#e0cd44"/><path d="m.99,2.7s.02-.03.02-.05c0,.02-.02.03-.02.05Z" fill="#e0cd44"/><path d="m.68,4.08c0-.24.03-.48.08-.71-.05.23-.08.46-.08.71Z" fill="#fed840"/><path d="m.79,3.26c.05-.19.11-.38.19-.56-.08.18-.14.37-.19.56Z" fill="#fed840"/><path d="m24.61,6.42l-9.17.55c-.43.03-.85.04-1.28.04-2.49.02-6.92.05-9.01-.18-1.61-.18-4.14-1.44-3.35-5.24-.33.3-.6.66-.79,1.07,0,.02-.02.03-.02.05-.08.18-.14.37-.19.56,0,.04-.03.07-.03.11-.05.23-.08.46-.08.71,0,1.87,1.52,3.38,3.38,3.38h18.12c.96,0,1.82-.4,2.43-1.04Z" fill="#edcd48"/></g><path d="m22.18.7H4.06C2.4.7,1.02,1.92.74,3.5c1.12-1.26,4.24-1.78,5.92-1.78h.01l15.4-.71c1.24,0,2.34.56,3.05,1.43-.58-1.03-1.67-1.74-2.94-1.74Z" fill="#fff" opacity=".43"/><path d="m3.29,2.16c.62-.17,1.11-.26,1.06-.44-.05-.19-.6-.2-1.22-.03-.62.17-1.43.32-1.03.65.15.13.56,0,1.19-.18h0Z" fill="#fff" isolation="isolate" opacity=".72"/><ellipse cx="5.04" cy="1.57" rx=".41" ry=".22" transform="translate(-.06 .2) rotate(-2.22)" fill="#fff" opacity=".72"/></g></svg>