<?xml version="1.0" encoding="UTF-8"?><svg id="Layer_1" xmlns="http://www.w3.org/2000/svg" width="235.86" height="31.65" xmlns:xlink="http://www.w3.org/1999/xlink" viewBox="0 0 235.86 31.65"><defs><linearGradient id="linear-gradient" x1="123.98" y1="22.62" x2="123.87" y2="-.43" gradientTransform="translate(-.04 31.65) scale(1 -1)" gradientUnits="userSpaceOnUse"><stop offset=".23" stop-color="#ffd900"/><stop offset=".95" stop-color="#e83c83"/></linearGradient><linearGradient id="linear-gradient-2" x1="16.44" y1="818.13" x2="16.98" y2="837.48" gradientTransform="translate(-.07 -810)" gradientUnits="userSpaceOnUse"><stop offset=".23" stop-color="#ffd902"/><stop offset=".95" stop-color="#fcc10c"/></linearGradient><linearGradient id="linear-gradient-3" x1="245.06" y1="132.26" x2="241.84" y2="124.81" gradientTransform="translate(-67.67 -254.64) rotate(44.81)" gradientUnits="userSpaceOnUse"><stop offset=".09" stop-color="#fff"/><stop offset="1" stop-color="#fff" stop-opacity=".1"/></linearGradient><linearGradient id="linear-gradient-4" x1="29.77" y1="825.33" x2="23.57" y2="820.62" gradientTransform="translate(-.07 -810)" gradientUnits="userSpaceOnUse"><stop offset=".23" stop-color="#fff"/><stop offset="1" stop-color="#fff" stop-opacity=".1"/></linearGradient></defs><g id="background"><path d="m235.86,19.34h0c0,4.59-3.72,8.32-8.32,8.32H20.1c-4.59,0-8.32-3.72-8.32-8.32h0c0-4.59,3.72-8.32,8.32-8.32h207.45c4.59,0,8.32,3.72,8.32,8.32Z" fill="#8b2f61"/><path d="m234.72,19.34h0c0,4.04-3.28,7.32-7.32,7.32H20.22c-4.04,0-7.32-3.28-7.32-7.32h0c0-4.04,3.28-7.32,7.32-7.32h207.2c4.04,0,7.32,3.28,7.32,7.32h0Z" fill="#f6ef90"/><rect x="14.05" y="13.04" width="219.55" height="12.62" rx="6.31" ry="6.31" fill="url(#linear-gradient)"/></g><g id="bigStar"><path d="m25.52,31.23c-.18,0-.36-.05-.5-.13l-8.66-4.7s-.04-.02-.07-.02c-.02,0-.04,0-.06.02l-8.79,4.46c-.15.08-.32.12-.48.12-.32,0-.61-.14-.82-.39-.2-.25-.29-.56-.23-.87l1.81-9.68s0-.09-.04-.12L.74,12.93c-.29-.29-.39-.71-.26-1.1s.46-.66.87-.71l9.75-1.27s.09-.03.11-.08L15.7,1c.19-.36.54-.58.95-.58s.78.24.96.6l4.23,8.89s.06.07.1.08l9.72,1.55c.41.07.73.35.85.74s0,.81-.29,1.09l-7.16,6.78s-.05.08-.04.12l1.52,9.72c.05.31-.04.62-.24.86-.21.24-.5.38-.81.38h.02Z" fill="#e09a02" stroke="#962363" stroke-miterlimit="9.99" stroke-width=".85"/><path d="m25.52,30.24h-.04l-8.66-4.7c-.17-.09-.36-.14-.54-.14s-.36.04-.51.12l-8.79,4.46h-.03s-.05-.02-.06-.03c0-.02-.02-.04,0-.06l1.81-9.68c.07-.37-.05-.74-.31-1.01L1.44,12.23s-.03-.05-.02-.08c0-.03.03-.04.06-.05l9.75-1.27c.38-.05.69-.28.86-.61L16.59,1.45s.04-.04.06-.04c.03,0,.05,0,.07.04l4.23,8.89c.16.34.47.57.84.63l9.72,1.55s.05.02.06.05c0,.03,0,.05-.02.07l-7.5,6.67c-.27.26-.4.63-.34,1l1.88,9.82v.06s-.04.03-.06.03h0l-.02.02Z" fill="#fff"/><path d="m25.52,30.24h-.04l-8.66-4.7c-.17-.09-.36-.14-.54-.14s-.36.04-.51.12l-8.79,4.46h-.03s-.05-.02-.06-.03c0-.02-.02-.04,0-.06l1.81-9.68c.07-.37-.05-.74-.31-1.01L1.44,12.23s-.03-.05-.02-.08c0-.03.03-.04.06-.05l9.75-1.27c.38-.05.69-.28.86-.61L16.59,1.45s.04-.04.06-.04c.03,0,.05,0,.07.04l4.23,8.89c.16.34.47.57.84.63l9.72,1.55s.05.02.06.05c0,.03,0,.05-.02.07l-7.5,6.67c-.27.26-.4.63-.34,1l1.88,9.82v.06s-.04.03-.06.03h0l-.02.02Z" fill="url(#linear-gradient-2)"/><path d="m24.76,11.11l-3.07-.5c-.19-.03-.35-.16-.43-.34L17.16,1.41c-.21-.44-.82-.45-1.04-.02l-4.33,8.73c-.09.18-.26.3-.44.32l-9.43,1.27c-.47.07-.67.66-.34,1.02l6.55,6.22c5.27-.6,12.05-2.77,16.62-7.85h0Z" fill="#faeec3" isolation="isolate" opacity=".29"/><path d="m24.51,19.87l6.93-6.73c.36-.34.17-.95-.31-1.03l-6.35-1.04-3.08-.5c-.19-.03-.36-.16-.43-.34L17.16,1.41c-.21-.44-.83-.45-1.05-.02l-4.35,8.72c-.09.18-.26.3-.44.32l-5.99.8c5.65,6.52,13.03,13.47,19.89,15.11l-.91-5.94c-.03-.2.04-.4.18-.52h0Z" fill="#faeec3" isolation="isolate" opacity=".26"/><path d="m15.34,7.68c-.36.74-1.42,2.43-1.79,2.25s.09-2.15.44-2.9.94-1.2,1.31-1.02.39.92.03,1.66h0Z" fill="url(#linear-gradient-3)" isolation="isolate" opacity=".79"/><path d="m26.78,12.06c1.34.25,2.39.33,2.32.73s-1.22.53-2.56.3-3.06-.41-2.29-1.18c.29-.29,1.2-.1,2.53.15Z" fill="url(#linear-gradient-4)" isolation="isolate" opacity=".79"/></g><path d="m207.73,15.42h18.08c2.17,0,3.93,1.76,3.93,3.93h0c0,2.17-1.76,3.93-3.93,3.93h-18.08c-2.17,0-3.93-1.76-3.93-3.93h0c0-2.17,1.76-3.93,3.93-3.93Z" fill="#892e60" stroke="#4a1836" stroke-miterlimit="4" stroke-width=".3"/><path d="m179.08,15.42h18.08c2.17,0,3.93,1.76,3.93,3.93h0c0,2.17-1.76,3.93-3.93,3.93h-18.08c-2.17,0-3.93-1.76-3.93-3.93h0c0-2.17,1.76-3.93,3.93-3.93Z" fill="#892e60" stroke="#4a1836" stroke-miterlimit="4" stroke-width=".3"/><path d="m150.45,15.42h18.08c2.17,0,3.93,1.76,3.93,3.93h0c0,2.17-1.76,3.93-3.93,3.93h-18.08c-2.17,0-3.93-1.76-3.93-3.93h0c0-2.17,1.76-3.93,3.93-3.93Z" fill="#892e60" stroke="#4a1836" stroke-miterlimit="4" stroke-width=".3"/><path d="m121.81,15.42h18.08c2.17,0,3.93,1.76,3.93,3.93h0c0,2.17-1.76,3.93-3.93,3.93h-18.08c-2.17,0-3.93-1.76-3.93-3.93h0c0-2.17,1.76-3.93,3.93-3.93Z" fill="#892e60" stroke="#4a1836" stroke-miterlimit="4" stroke-width=".3"/><path d="m93.17,15.42h18.08c2.17,0,3.93,1.76,3.93,3.93h0c0,2.17-1.76,3.93-3.93,3.93h-18.08c-2.17,0-3.93-1.76-3.93-3.93h0c0-2.17,1.76-3.93,3.93-3.93Z" fill="#892e60" stroke="#4a1836" stroke-miterlimit="4" stroke-width=".3"/><path d="m64.53,15.42h18.08c2.17,0,3.93,1.76,3.93,3.93h0c0,2.17-1.76,3.93-3.93,3.93h-18.08c-2.17,0-3.93-1.76-3.93-3.93h0c0-2.17,1.76-3.93,3.93-3.93Z" fill="#892e60" stroke="#4a1836" stroke-miterlimit="4" stroke-width=".3"/><path d="m35.89,15.42h18.08c2.17,0,3.93,1.76,3.93,3.93h0c0,2.17-1.76,3.93-3.93,3.93h-18.08c-2.17,0-3.93-1.76-3.93-3.93h0c0-2.17,1.76-3.93,3.93-3.93Z" fill="#892e60" stroke="#4a1836" stroke-miterlimit="4" stroke-width=".3"/></svg>