<svg width="49" height="91" viewBox="0 0 49 91" fill="none"
    xmlns="http://www.w3.org/2000/svg">
    <path d="M25.0332 87.1804C25.4483 86.7736 25.6909 86.5302 25.9471 86.2918C31.0719 81.5772 35.753 76.4788 39.6183 70.6638C43.5003 64.8207 46.2633 58.5506 47.6404 51.6403C51.3507 32.9834 40.8578 10.2721 18.8145 3.22269C14.2136 1.75145 9.52232 0.769168 4.68488 0.603508C3.47047 0.561013 2.24517 0.657502 1.03217 0.687019C1.02059 0.760471 1.00901 0.833924 0.998148 0.913858C1.14316 0.976509 1.28599 1.07877 1.43174 1.08885C4.62541 1.25306 7.80241 1.56345 10.941 2.1799C16.9152 3.34798 22.6156 5.24842 27.7842 8.51997C35.3991 13.3376 40.6902 20.086 44.0562 28.3861C45.6592 32.3482 46.6819 36.4731 47.0111 40.747C47.478 46.8559 46.4492 52.7565 44.3965 58.4952C42.7196 63.1752 40.2108 67.4096 37.3464 71.4602C33.5845 76.7848 29.0991 81.4548 24.2632 85.8093C24.1433 85.9145 24.0149 86.0009 23.6872 86.2471C23.8865 85.733 24.0094 85.4176 24.1329 85.1086C25.1465 82.5688 26.1795 80.0267 27.1721 77.4761C27.4279 76.8179 27.6072 76.1222 27.3528 75.3107C27.1565 75.4374 26.9342 75.508 26.8259 75.6578C26.5162 76.0661 26.1941 76.4823 25.9825 76.9453C24.5097 80.2053 23.0578 83.4761 21.6261 86.7512C21.3588 87.3648 21.1557 88.0237 21.0385 88.6862C20.8468 89.744 21.4223 90.4872 22.4953 90.4995C23.1866 90.5081 23.9133 90.3619 24.5707 90.125C28.4521 88.7237 32.3219 87.2777 36.1939 85.8512C36.2819 85.8152 36.3779 85.7914 36.4645 85.7424C37.0001 85.4731 37.2044 85.1224 37.0762 84.6774C36.9465 84.2194 36.5216 84.004 35.8887 84.1661C34.1682 84.5996 32.4485 85.0396 30.7396 85.5177C28.9159 86.0283 27.0965 86.5777 25.0462 87.179L25.0332 87.1804Z" fill="#2A3069"/>
</svg>
