<?xml version="1.0" encoding="UTF-8"?><svg id="Layer_2" xmlns="http://www.w3.org/2000/svg" width="277.29" height="202.32" viewBox="0 0 277.29 202.32"><g id="Layer_1-2"><g><path d="m234.06,196.07c.37-.64,9.03-15.91.7-30.69-5.05-8.97-.53-14.55,9.58-21.71,15.06-10.68,20.3-43.48,23.43-63.08.21-1.31.41-2.55.6-3.71,4.19-25.64-5.24-37.7-14.41-46.99C237.69,13.41,183.57,0,133.3,0c-22.73,0-42.98,2.65-60.18,7.88-19.1,5.8-35.11,19.38-43.93,37.25-10.43,21.16-17.51,49.35-21.03,83.79-.63,6.17,1.39,12.35,5.55,16.95,4.18,4.63,10.15,7.29,16.37,7.29.65,0,1.3-.03,1.95-.08,21.47-1.87,53.44-4.1,83.87-4.1s53.43,2.77,67.24,6.83c46.61,13.69,46.87,45.52,46.91,46.5l4.02-6.25Z" fill="#5e4545"/><g><path d="m265,76.33c3.81-23.31-3.91-34.36-13.47-44.06C231.08,11.54,136.54-7.83,74.1,11.13c-18.29,5.56-33.41,18.36-41.86,35.5-8.12,16.47-16.59,42.47-20.69,82.64-1.19,11.63,8.55,21.44,20.19,20.43,39.35-3.43,118.37-8.43,152.47,2.89,46.34,15.38,46.91,41.78,46.91,41.78,0,0,8.15-14.05.68-27.31s2.58-20.5,10.57-26.16c14.87-10.54,19.75-46.91,22.64-64.56Z" fill="#fffdfd"/><path d="m249.25,16.97s32.14,6.99,27.6,45.42c0,0-2.1-32.14-27.6-45.42Z" fill="#5e4545"/><path d="m1.59,119.2s-4.35,35.78,22.19,39.8c0,0-31.07.09-22.19-39.8Z" fill="#5e4545"/></g></g></g></svg>