<?xml version="1.0" encoding="UTF-8"?><svg id="Layer_1" xmlns="http://www.w3.org/2000/svg" width="113.97mm" height="71.37mm" viewBox="0 0 323.06 202.31"><g id="Layer_1-2"><g><path d="m272.69,196.07c.43-.64,10.52-15.91.82-30.69-5.88-8.97-.62-14.55,11.16-21.71,17.55-10.68,23.65-43.48,27.3-63.08.24-1.31.48-2.55.7-3.71,4.88-25.64-6.1-37.7-16.79-46.99C276.92,13.41,213.87,0,155.3,0c-26.48,0-50.07,2.65-70.11,7.88-22.25,5.8-40.9,19.38-51.18,37.25-12.15,21.16-20.4,49.35-24.5,83.79-.73,6.17,1.62,12.35,6.47,16.95,4.87,4.63,11.83,7.29,19.07,7.29.76,0,1.51-.03,2.27-.08,25.01-1.87,62.26-4.1,97.71-4.1s62.25,2.77,78.34,6.83c54.3,13.69,54.6,45.52,54.65,46.5l4.68-6.25h-.01Z" fill="#5f4646"/><g><path d="m308.74,76.33c4.44-23.31-4.56-34.36-15.69-44.06C269.22,11.54,159.08-7.83,86.34,11.13c-21.31,5.56-38.92,18.36-48.77,35.5-9.46,16.47-19.33,42.47-24.1,82.64-1.39,11.63,9.96,21.44,23.52,20.43,45.84-3.43,137.9-8.43,177.63,2.89,53.99,15.38,54.65,41.78,54.65,41.78,0,0,9.49-14.05.79-27.31s3.01-20.5,12.31-26.16c17.32-10.54,23.01-46.91,26.38-64.56h-.01Z" fill="#fffefe"/><path d="m290.39,16.97s37.44,6.99,32.15,45.42c0,0-2.45-32.14-32.15-45.42Z" fill="#5f4646"/><path d="m1.86,119.2s-5.07,35.78,25.85,39.8c0,0-36.2.09-25.85-39.8Z" fill="#5f4646"/></g></g></g></svg>