<?xml version="1.0" encoding="UTF-8"?><svg id="Layer_1" xmlns="http://www.w3.org/2000/svg" width="107.74mm" height="94.25mm" viewBox="0 0 305.4 267.16"><path d="m39.71,8.37c10.94-2.71,30.66-3.83,54.5-3.8,23.79.03,51.54,1.21,78.45,3.04,26.91,1.84,52.95,4.34,73.33,7.02,10.19,1.34,18.95,2.72,25.68,4.08,3.37.68,6.21,1.35,8.47,2.01,8.55,2.91,15.27,10.17,17.47,14.97,3.25,6.5,5.19,22.44,5.46,27.75.27,5.25.51,12.16.69,20.2.36,16.07.49,36.62.13,57.36-.36,20.74-1.2,41.66-2.77,58.46-.78,8.4-1.75,15.75-2.91,21.52-.58,2.89-1.21,5.36-1.89,7.36-.68,2.02-1.39,3.48-2.08,4.41-3.62,4.82-8.32,6.77-12.1,8.34-.29.12-.57.24-.85.35-.96.4-1.89.81-2.67,1.27-.78.45-1.52,1-2.04,1.73-.55.78-.78,1.69-.66,2.71.11.97.55,2,1.22,3.09,2.32,3.8,2.15,7.67,1.37,10.67-.18.67-.38,1.28-.59,1.84-.62-1.76-1.69-3.99-3.56-6.45-4.3-5.68-12.73-12.5-29.24-17.7-6.13-1.93-18.44-4.09-34.62-6.05-16.22-1.96-36.42-3.73-58.41-4.86-43.97-2.25-95.18-1.94-136.01,4.58-3.59.57-6.31-.69-8.36-2.93-2.1-2.29-3.5-5.64-4.21-9.1h0c-1.43-7.01-2.13-20.87-2.2-38.18-.07-17.26.5-37.85,1.57-58.23,1.07-20.38,2.65-40.54,4.61-56.98.98-8.22,2.05-15.49,3.2-21.37,3.55-20.66,11.15-27.35,14.81-30.69,3.61-3.3,7.75-4.86,14.21-6.46Zm0,0l-.31-1.27.31,1.27Z" fill="#fffdfd" stroke="#5e4545" stroke-width="2.61"/><path d="m10.56,28.68S9.46,3.93,38.01,0c0,0-22.75,7.59-27.46,28.68Z" fill="#5e4545"/><path d="m250.79,244.77s17.17,5.87,23.64,22.39c0,0-2.1-15.87-23.64-22.39Z" fill="#5e4545"/></svg>