<svg width="28" height="28" viewBox="0 0 28 28" fill="none" xmlns="http://www.w3.org/2000/svg">
<path d="M12.9588 6.65378C12.2068 6.94247 11.3658 6.57364 11.0803 5.82997C10.7948 5.08629 11.173 4.2494 11.925 3.96071C12.677 3.67202 13.5181 4.04085 13.8035 4.78452C14.089 5.5282 13.7108 6.36509 12.9588 6.65378Z" fill="#A876D7"/>
<path d="M14.4113 4.03623C13.91 4.22866 13.3494 3.98281 13.1591 3.4871C12.9688 2.9914 13.2209 2.43356 13.7221 2.24113C14.2234 2.0487 14.784 2.29455 14.9743 2.79025C15.1646 3.28595 14.9125 3.8438 14.4113 4.03623Z" fill="#A876D7"/>
<path d="M16.3545 3.29026C15.8533 3.48269 15.2926 3.23683 15.1023 2.74113C14.912 2.24543 15.1641 1.68758 15.6654 1.49515C16.1666 1.30272 16.7273 1.54858 16.9176 2.04428C17.1079 2.53998 16.8558 3.09783 16.3545 3.29026Z" fill="#A876D7"/>
<path d="M18.3644 3.53558C17.8392 3.6461 17.3262 3.31404 17.2186 2.79391C17.1111 2.27378 17.4498 1.76254 17.9751 1.65202C18.5003 1.5415 19.0133 1.87355 19.1208 2.39369C19.2284 2.91382 18.8897 3.42506 18.3644 3.53558Z" fill="#A876D7"/>
<path d="M19.6946 3.75032C19.5107 3.55807 19.5199 3.25319 19.7151 3.06937C19.9104 2.88554 20.2177 2.89237 20.4016 3.08463C20.5855 3.27689 20.5764 3.58176 20.3811 3.76559C20.1859 3.94941 19.8785 3.94258 19.6946 3.75032Z" fill="#A876D7"/>
<path d="M11.0506 12.5362C10.2986 12.8249 9.45757 12.4561 9.17208 11.7124C8.88659 10.9687 9.26478 10.1318 10.0168 9.84316C10.7688 9.55446 11.6099 9.9233 11.8953 10.667C12.1808 11.4106 11.8026 12.2475 11.0506 12.5362Z" fill="#A876D7"/>
<path d="M7.16856 11.3313C6.80093 10.947 6.81929 10.3375 7.20957 9.97001C7.59985 9.60253 8.21426 9.61619 8.5819 10.0005C8.94953 10.3849 8.93117 10.9943 8.54089 11.3618C8.15061 11.7293 7.5362 11.7156 7.16856 11.3313Z" fill="#A876D7"/>
<path d="M5.22533 12.0773C4.85769 11.6929 4.87605 11.0835 5.26633 10.716C5.65661 10.3485 6.27102 10.3622 6.63866 10.7465C7.00629 11.1308 6.98794 11.7403 6.59766 12.1078C6.20737 12.4752 5.59296 12.4616 5.22533 12.0773Z" fill="#A876D7"/>
<path d="M4.0633 13.8873C3.5743 13.6729 3.35613 13.1046 3.57601 12.618C3.7959 12.1314 4.37057 11.9108 4.85957 12.1253C5.34858 12.3397 5.56674 12.908 5.34686 13.3946C5.12697 13.8812 4.55231 14.1018 4.0633 13.8873Z" fill="#A876D7"/>
<path d="M3.41767 15.3161C3.17305 15.2088 3.06392 14.9246 3.17391 14.6812C3.28391 14.4378 3.57138 14.3274 3.81599 14.4347C4.06061 14.5419 4.16974 14.8262 4.05975 15.0696C3.94976 15.313 3.66229 15.4234 3.41767 15.3161Z" fill="#A876D7"/>
<path d="M16.9019 14.7018C16.9028 14.6952 16.9035 14.6881 16.9043 14.6815C16.9067 14.6647 16.9106 14.6482 16.9134 14.6312C16.9163 14.6146 16.9189 14.5987 16.9223 14.5819C16.9256 14.5652 16.9291 14.5489 16.9329 14.532C16.9382 14.5077 16.9435 14.4835 16.9495 14.4595C16.9516 14.451 16.9541 14.4423 16.9564 14.4331C16.9648 14.4015 16.9737 14.37 16.9832 14.3389C16.9838 14.3377 16.9839 14.3367 16.9844 14.3355C17.1284 13.865 17.417 13.4327 17.8415 13.1104C17.8597 13.0966 17.8777 13.0825 17.8955 13.0679C17.9015 13.0632 17.9069 13.0582 17.9129 13.0535C17.9232 13.0447 17.9337 13.0364 17.9438 13.0272C17.9589 13.0141 17.9733 13.0009 17.9877 12.9876C17.9886 12.9873 17.9893 12.9865 17.99 12.9858C18.0507 12.9292 18.1072 12.8689 18.1584 12.8053C18.1603 12.8026 18.1627 12.7998 18.1647 12.7975C18.1732 12.7865 18.1821 12.7754 18.1902 12.7646C18.197 12.7557 18.2041 12.7462 18.2108 12.7369C18.2141 12.7327 18.2168 12.7283 18.22 12.7241C18.5165 12.3072 18.5865 11.7926 18.3949 11.2936C18.2094 10.8192 17.7871 10.4773 17.2808 10.3921C17.2798 10.392 17.2792 10.3917 17.2782 10.3916C17.2312 10.3836 17.1846 10.3754 17.1381 10.3662C15.8031 10.1062 14.7108 9.36828 14.1843 8.38464C14.184 8.38379 14.1838 8.38337 14.1835 8.38253C14.1677 8.35286 14.1524 8.32303 14.1377 8.29245C14.1341 8.28562 14.1305 8.2788 14.1273 8.27181C14.1155 8.24738 14.1046 8.22262 14.0936 8.19786C14.0879 8.18557 14.082 8.17285 14.0763 8.16055C14.0679 8.1411 14.0601 8.1209 14.0521 8.10129C14.0455 8.08404 14.0374 8.06685 14.0308 8.0496C13.3772 6.34707 14.967 4.65479 16.6709 4.23001C23.5399 3.00477 23.5388 12.8733 21.5209 16.0016C20.6816 17.3025 19.064 17.9278 17.7583 16.8932C17.1199 16.3774 16.7971 15.5734 16.8955 14.7627C16.8979 14.7424 16.9 14.7223 16.9029 14.7019L16.9019 14.7018Z" fill="#A876D7"/>
<path d="M6.69212 13.2492C8.24297 12.4245 10.5564 12.6183 11.21 14.3209C11.2104 14.3221 11.2108 14.323 11.2112 14.3242C11.2253 14.3608 11.2385 14.3978 11.251 14.4355C11.2531 14.4409 11.2545 14.4472 11.2566 14.4526C11.2674 14.4857 11.2783 14.5192 11.2877 14.5527C11.2885 14.5548 11.2892 14.5565 11.2896 14.5588C11.62 15.7031 11.2771 17.0876 10.3645 18.2356C10.0349 18.6489 9.96189 19.1887 10.1625 19.7176L10.1652 19.7248C10.1801 19.7635 10.1963 19.8007 10.2141 19.8368C10.452 20.3191 10.9652 20.6232 11.5581 20.639C11.5601 20.6392 11.5625 20.6392 11.5646 20.6394C11.5809 20.6399 11.5974 20.6398 11.614 20.6397C11.6203 20.6397 11.6262 20.6398 11.6322 20.64C11.6443 20.6397 11.6568 20.6392 11.6689 20.6389C11.6789 20.6384 11.6892 20.6384 11.6992 20.6379C11.7035 20.6377 11.7079 20.6375 11.712 20.6369C11.7293 20.636 11.7468 20.6346 11.7643 20.6332C12.3968 20.5816 13.0232 20.7751 13.5111 21.1735C13.5226 21.1831 13.5332 21.193 13.5447 21.2026C14.1803 21.7378 14.49 22.5648 14.3576 23.3876C14.3536 23.4114 14.3482 23.4342 14.3438 23.4571C14.3383 23.4848 14.3336 23.5132 14.3274 23.5402C14.3232 23.5587 14.3178 23.5762 14.3135 23.5943C14.3053 23.6264 14.2975 23.6583 14.2884 23.6893C14.2839 23.7056 14.2781 23.7208 14.273 23.7368C14.2629 23.7691 14.2525 23.8017 14.2411 23.8331C14.2354 23.8488 14.229 23.8638 14.2231 23.8791C14.211 23.9098 14.1994 23.9408 14.1864 23.9704C14.1794 23.9866 14.1717 24.0021 14.1646 24.0179C14.1515 24.0461 14.1384 24.0743 14.1244 24.1014C14.1157 24.1182 14.1065 24.1348 14.0972 24.1514C14.0838 24.1763 14.0699 24.201 14.0553 24.2254C14.0447 24.2435 14.0333 24.2609 14.0225 24.2786C14.0089 24.3002 13.9946 24.3216 13.9802 24.3426C13.9675 24.3615 13.9541 24.3802 13.9406 24.3984C13.9273 24.417 13.9132 24.435 13.8991 24.453C13.8836 24.4724 13.8685 24.4917 13.8523 24.5105C13.8393 24.5261 13.8261 24.5413 13.8123 24.5563C13.7945 24.5761 13.7767 24.596 13.7582 24.6152C13.7461 24.628 13.7332 24.6402 13.7209 24.6527C13.7004 24.6731 13.6799 24.6935 13.6585 24.7128C13.6484 24.722 13.6377 24.731 13.6275 24.7402C13.5529 24.8065 13.4729 24.8676 13.3882 24.9243C13.3707 24.9358 13.3537 24.9477 13.336 24.9588C13.3172 24.9708 13.2975 24.9818 13.2781 24.9936C13.2555 25.0071 13.2327 25.0202 13.2097 25.0329C13.1928 25.0423 13.1753 25.0514 13.1577 25.0601C13.1304 25.0744 13.1025 25.088 13.0743 25.1012C13.0595 25.1084 13.0449 25.115 13.0299 25.1217C12.9957 25.1368 12.9613 25.1514 12.9266 25.1652C12.9189 25.1682 12.9116 25.1719 12.9039 25.1749C12.3184 25.3997 11.6288 25.422 10.964 25.2417C7.37111 24.2673 0.7666 16.9347 6.69095 13.2486L6.69212 13.2492Z" fill="#A876D7"/>
<path d="M13.4095 6.72409C12.6575 7.01278 11.8165 6.64395 11.531 5.90028C11.2455 5.15661 11.6237 4.31971 12.3757 4.03102C13.1277 3.74233 13.9687 4.11117 14.2542 4.85484C14.5397 5.59851 14.1615 6.4354 13.4095 6.72409Z" fill="#141E4C"/>
<path d="M14.8618 4.10654C14.3606 4.29897 13.8 4.05312 13.6097 3.55742C13.4194 3.06171 13.6714 2.50387 14.1727 2.31144C14.674 2.11901 15.2346 2.36486 15.4249 2.86056C15.6152 3.35627 15.3631 3.91411 14.8618 4.10654Z" fill="#141E4C"/>
<path d="M16.8052 3.36045C16.3039 3.55288 15.7433 3.30703 15.553 2.81132C15.3627 2.31562 15.6148 1.75778 16.1161 1.56534C16.6173 1.37291 17.1779 1.61877 17.3682 2.11447C17.5585 2.61017 17.3065 3.16802 16.8052 3.36045Z" fill="#141E4C"/>
<path d="M18.8151 3.60577C18.2898 3.71629 17.7769 3.38423 17.6693 2.8641C17.5618 2.34397 17.9005 1.83273 18.4257 1.72221C18.951 1.61169 19.464 1.94374 19.5715 2.46388C19.679 2.98401 19.3404 3.49525 18.8151 3.60577Z" fill="#141E4C"/>
<path d="M20.1452 3.82064C19.9613 3.62838 19.9705 3.32351 20.1657 3.13968C20.3609 2.95585 20.6683 2.96269 20.8522 3.15494C21.0361 3.3472 21.0269 3.65207 20.8317 3.8359C20.6365 4.01972 20.3291 4.01289 20.1452 3.82064Z" fill="#141E4C"/>
<path d="M11.5013 12.6064C10.7493 12.8951 9.90825 12.5263 9.62276 11.7826C9.33727 11.0389 9.71546 10.202 10.4675 9.91335C11.2195 9.62466 12.0605 9.99349 12.346 10.7372C12.6315 11.4808 12.2533 12.3177 11.5013 12.6064Z" fill="#141E4C"/>
<path d="M7.61925 11.4016C7.25161 11.0173 7.26997 10.4078 7.66025 10.0403C8.05053 9.67284 8.66494 9.6865 9.03258 10.0708C9.40022 10.4552 9.38186 11.0646 8.99158 11.4321C8.6013 11.7996 7.98688 11.7859 7.61925 11.4016Z" fill="#141E4C"/>
<path d="M5.67601 12.1476C5.30837 11.7632 5.32673 11.1538 5.71701 10.7863C6.10729 10.4188 6.72171 10.4325 7.08934 10.8168C7.45698 11.2011 7.43862 11.8106 7.04834 12.1781C6.65806 12.5456 6.04365 12.5319 5.67601 12.1476Z" fill="#141E4C"/>
<path d="M4.51386 13.9577C4.02486 13.7432 3.80669 13.1749 4.02658 12.6883C4.24646 12.2017 4.82113 11.9811 5.31014 12.1956C5.79914 12.41 6.01731 12.9783 5.79742 13.4649C5.57754 13.9515 5.00287 14.1721 4.51386 13.9577Z" fill="#141E4C"/>
<path d="M3.86835 15.3863C3.62374 15.279 3.5146 14.9948 3.6246 14.7514C3.73459 14.5079 4.02206 14.3976 4.26668 14.5049C4.51129 14.6121 4.62043 14.8964 4.51043 15.1398C4.40044 15.3832 4.11297 15.4936 3.86835 15.3863Z" fill="#141E4C"/>
<path d="M17.3524 14.772C17.3533 14.7653 17.354 14.7583 17.3549 14.7517C17.3572 14.7349 17.3612 14.7184 17.3639 14.7014C17.3668 14.6848 17.3695 14.6689 17.3728 14.6521C17.3762 14.6354 17.3797 14.6191 17.3834 14.6022C17.3888 14.5779 17.3941 14.5537 17.4 14.5297C17.4021 14.5211 17.4046 14.5124 17.407 14.5033C17.4153 14.4716 17.4243 14.4402 17.4338 14.409C17.4343 14.4079 17.4344 14.4069 17.4349 14.4057C17.579 13.9352 17.8676 13.5029 18.2921 13.1806C18.3103 13.1668 18.3283 13.1527 18.3461 13.1381C18.3521 13.1334 18.3575 13.1284 18.3635 13.1237C18.3738 13.1149 18.3843 13.1066 18.3944 13.0973C18.4094 13.0843 18.4239 13.0711 18.4383 13.0578C18.4392 13.0575 18.4398 13.0567 18.4405 13.056C18.5013 12.9993 18.5577 12.9391 18.609 12.8754C18.6109 12.8728 18.6132 12.87 18.6153 12.8677C18.6238 12.8567 18.6327 12.8456 18.6407 12.8348C18.6476 12.8259 18.6547 12.8164 18.6613 12.8071C18.6646 12.8029 18.6673 12.7985 18.6706 12.7943C18.967 12.3773 19.037 11.8628 18.8455 11.3638C18.6599 10.8894 18.2377 10.5475 17.7314 10.4623C17.7304 10.4622 17.7298 10.4619 17.7288 10.4618C17.6818 10.4538 17.6352 10.4456 17.5887 10.4364C16.2537 10.1764 15.1614 9.43847 14.6349 8.45483C14.6346 8.45398 14.6344 8.45356 14.6341 8.45272C14.6183 8.42305 14.6029 8.39322 14.5883 8.36264C14.5847 8.35582 14.5811 8.34899 14.5779 8.342C14.5661 8.31757 14.5551 8.29281 14.5441 8.26805C14.5385 8.25576 14.5326 8.24304 14.5269 8.23074C14.5185 8.21129 14.5107 8.19109 14.5027 8.17148C14.4961 8.15423 14.488 8.13704 14.4814 8.11979C13.8278 6.41726 15.4176 4.72498 17.1215 4.3002C23.9905 3.07496 23.9894 12.9435 21.9715 16.0718C21.1322 17.3726 19.5146 17.998 18.2089 16.9634C17.5705 16.4476 17.2476 15.6436 17.346 14.8328C17.3485 14.8126 17.3505 14.7925 17.3534 14.7721L17.3524 14.772Z" fill="#141E4C"/>
<path d="M7.14269 13.3194C8.69353 12.4947 11.0069 12.6885 11.6605 14.3911C11.661 14.3923 11.6613 14.3932 11.6618 14.3944C11.6759 14.431 11.6891 14.468 11.7016 14.5057C11.7037 14.5111 11.7051 14.5173 11.7072 14.5228C11.7179 14.5559 11.7288 14.5893 11.7383 14.6229C11.7391 14.625 11.7397 14.6267 11.7401 14.6289C12.0706 15.7733 11.7277 17.1578 10.815 18.3058C10.4855 18.7191 10.4125 19.2589 10.6131 19.7878L10.6158 19.795C10.6307 19.8337 10.6469 19.8709 10.6647 19.907C10.9025 20.3893 11.4157 20.6934 12.0086 20.7092C12.0106 20.7094 12.0131 20.7094 12.0151 20.7096C12.0314 20.7101 12.048 20.71 12.0646 20.7099C12.0709 20.7099 12.0768 20.71 12.0827 20.7102C12.0948 20.7099 12.1073 20.7094 12.1194 20.7091C12.1295 20.7086 12.1397 20.7086 12.1498 20.7081C12.1541 20.7079 12.1584 20.7077 12.1626 20.707C12.1798 20.7062 12.1973 20.7048 12.2149 20.7034C12.8473 20.6518 13.4738 20.8453 13.9616 21.2437C13.9731 21.2533 13.9838 21.2632 13.9953 21.2728C14.6309 21.808 14.9405 22.635 14.8082 23.4578C14.8041 23.4815 14.7987 23.5044 14.7944 23.5273C14.7889 23.555 14.7842 23.5834 14.7779 23.6104C14.7738 23.6289 14.7683 23.6464 14.764 23.6645C14.7558 23.6966 14.7481 23.7285 14.739 23.7595C14.7345 23.7758 14.7286 23.791 14.7235 23.807C14.7135 23.8393 14.703 23.8718 14.6916 23.9032C14.686 23.9189 14.6795 23.934 14.6737 23.9493C14.6615 23.98 14.65 24.011 14.637 24.0406C14.63 24.0568 14.6223 24.0723 14.6152 24.0881C14.6021 24.1163 14.589 24.1445 14.575 24.1716C14.5663 24.1884 14.557 24.205 14.5478 24.2216C14.5344 24.2465 14.5204 24.2712 14.5059 24.2956C14.4953 24.3137 14.4839 24.3311 14.4731 24.3488C14.4594 24.3704 14.4452 24.3918 14.4308 24.4128C14.418 24.4317 14.4047 24.4504 14.3912 24.4686C14.3778 24.4872 14.3637 24.5052 14.3496 24.5231C14.3341 24.5426 14.3191 24.5619 14.3029 24.5807C14.2898 24.5963 14.2766 24.6115 14.2628 24.6265C14.2451 24.6463 14.2273 24.6662 14.2088 24.6854C14.1966 24.6982 14.1838 24.7104 14.1714 24.7229C14.151 24.7433 14.1305 24.7637 14.1091 24.783C14.099 24.7922 14.0882 24.8012 14.0781 24.8104C14.0035 24.8767 13.9234 24.9378 13.8388 24.9945C13.8212 25.006 13.8043 25.0178 13.7866 25.029C13.7678 25.041 13.748 25.052 13.7287 25.0638C13.706 25.0773 13.6832 25.0904 13.6603 25.1031C13.6434 25.1124 13.6259 25.1216 13.6082 25.1303C13.581 25.1446 13.553 25.1582 13.5249 25.1714C13.5101 25.1786 13.4955 25.1851 13.4805 25.1919C13.4463 25.2069 13.4119 25.2216 13.3771 25.2354C13.3695 25.2384 13.3621 25.2421 13.3545 25.2451C12.769 25.4698 12.0794 25.4922 11.4146 25.3119C7.82167 24.3375 1.21716 17.0049 7.14151 13.3188L7.14269 13.3194Z" fill="#141E4C"/>
</svg>
