<svg width="28" height="28" viewBox="0 0 28 28" fill="none" xmlns="http://www.w3.org/2000/svg">
<path d="M13.4991 6.63083C12.7471 6.91952 11.9061 6.55069 11.6206 5.80702C11.3351 5.06334 11.7133 4.22645 12.4653 3.93776C13.2173 3.64907 14.0583 4.0179 14.3438 4.76158C14.6293 5.50525 14.2511 6.34214 13.4991 6.63083Z" fill="#A876D7"/>
<path d="M14.9516 4.01364C14.4503 4.20608 13.8897 3.96022 13.6994 3.46452C13.5091 2.96882 13.7612 2.41097 14.2624 2.21854C14.7637 2.02611 15.3243 2.27196 15.5146 2.76767C15.7049 3.26337 15.4528 3.82121 14.9516 4.01364Z" fill="#A876D7"/>
<path d="M16.8948 3.26755C16.3935 3.45998 15.8329 3.21413 15.6426 2.71843C15.4523 2.22272 15.7044 1.66488 16.2057 1.47245C16.7069 1.28002 17.2675 1.52587 17.4578 2.02157C17.6481 2.51728 17.3961 3.07512 16.8948 3.26755Z" fill="#A876D7"/>
<path d="M18.9047 3.51336C18.3794 3.62388 17.8665 3.29183 17.7589 2.7717C17.6514 2.25156 17.9901 1.74032 18.5153 1.6298C19.0406 1.51928 19.5536 1.85134 19.6611 2.37147C19.7686 2.8916 19.43 3.40284 18.9047 3.51336Z" fill="#A876D7"/>
<path d="M20.2349 3.72774C20.051 3.53548 20.0602 3.23061 20.2554 3.04678C20.4507 2.86296 20.758 2.86979 20.9419 3.06205C21.1258 3.2543 21.1166 3.55918 20.9214 3.743C20.7262 3.92683 20.4188 3.92 20.2349 3.72774Z" fill="#A876D7"/>
<path d="M11.5909 12.5136C10.8389 12.8023 9.99785 12.4335 9.71236 11.6898C9.42687 10.9462 9.80506 10.1093 10.5571 9.82057C11.3091 9.53188 12.1501 9.90072 12.4356 10.6444C12.7211 11.3881 12.3429 12.225 11.5909 12.5136Z" fill="#A876D7"/>
<path d="M7.70885 11.3087C7.34121 10.9244 7.35957 10.3149 7.74985 9.94743C8.14013 9.57995 8.75454 9.59361 9.12218 9.97794C9.48981 10.3623 9.47146 10.9717 9.08118 11.3392C8.6909 11.7067 8.07648 11.693 7.70885 11.3087Z" fill="#A876D7"/>
<path d="M5.76561 12.0548C5.39797 11.6705 5.41633 11.061 5.80661 10.6935C6.19689 10.326 6.81131 10.3397 7.17894 10.724C7.54658 11.1084 7.52822 11.7178 7.13794 12.0853C6.74766 12.4528 6.13324 12.4391 5.76561 12.0548Z" fill="#A876D7"/>
<path d="M4.60358 13.865C4.11458 13.6506 3.89641 13.0823 4.1163 12.5957C4.33618 12.1091 4.91085 11.8885 5.39986 12.1029C5.88886 12.3174 6.10703 12.8857 5.88714 13.3722C5.66726 13.8588 5.09259 14.0794 4.60358 13.865Z" fill="#A876D7"/>
<path d="M3.95795 15.2937C3.71334 15.1864 3.6042 14.9021 3.7142 14.6587C3.82419 14.4153 4.11166 14.3049 4.35628 14.4122C4.60089 14.5195 4.71003 14.8038 4.60003 15.0472C4.49004 15.2906 4.20257 15.4009 3.95795 15.2937Z" fill="#A876D7"/>
<path d="M17.4422 14.6796C17.443 14.6729 17.4438 14.6659 17.4446 14.6593C17.447 14.6425 17.4509 14.626 17.4536 14.609C17.4566 14.5924 17.4592 14.5764 17.4625 14.5597C17.4659 14.543 17.4694 14.5267 17.4732 14.5098C17.4785 14.4855 17.4838 14.4613 17.4897 14.4373C17.4918 14.4287 17.4944 14.42 17.4967 14.4109C17.5051 14.3792 17.514 14.3478 17.5235 14.3166C17.524 14.3155 17.5241 14.3145 17.5247 14.3133C17.6687 13.8428 17.9573 13.4105 18.3818 13.0882C18.4 13.0744 18.418 13.0603 18.4358 13.0457C18.4418 13.041 18.4472 13.036 18.4532 13.0313C18.4635 13.0225 18.474 13.0141 18.4841 13.0049C18.4992 12.9919 18.5136 12.9787 18.528 12.9654C18.5289 12.9651 18.5296 12.9643 18.5303 12.9636C18.591 12.9069 18.6475 12.8466 18.6987 12.783C18.7006 12.7804 18.7029 12.7775 18.705 12.7753C18.7135 12.7643 18.7224 12.7532 18.7304 12.7424C18.7373 12.7335 18.7444 12.724 18.7511 12.7147C18.7543 12.7105 18.757 12.7061 18.7603 12.7019C19.0567 12.2849 19.1268 11.7704 18.9352 11.2714C18.7497 10.797 18.3274 10.4551 17.8211 10.3699C17.8201 10.3698 17.8195 10.3695 17.8185 10.3694C17.7715 10.3614 17.7249 10.3532 17.6784 10.344C16.3434 10.084 15.2511 9.34606 14.7246 8.36242C14.7243 8.36158 14.7241 8.36116 14.7238 8.36031C14.708 8.33065 14.6927 8.30081 14.678 8.27023C14.6744 8.26341 14.6708 8.25658 14.6676 8.24959C14.6558 8.22516 14.6448 8.2004 14.6339 8.17565C14.6282 8.16335 14.6223 8.15063 14.6166 8.13833C14.6082 8.11888 14.6004 8.09868 14.5924 8.07907C14.5858 8.06182 14.5777 8.04464 14.5711 8.02738C13.9175 6.32486 15.5073 4.63257 17.2112 4.2078C24.0802 2.98255 24.0791 12.8511 22.0612 15.9794C21.2219 17.2802 19.6043 17.9056 18.2986 16.871C17.6602 16.3552 17.3374 15.5512 17.4357 14.7404C17.4382 14.7202 17.4403 14.7001 17.4432 14.6796L17.4422 14.6796Z" fill="#A876D7"/>
<path d="M7.23241 13.2268C8.78325 12.4021 11.0966 12.596 11.7502 14.2985C11.7507 14.2998 11.751 14.3006 11.7515 14.3019C11.7656 14.3385 11.7788 14.3754 11.7913 14.4131C11.7934 14.4186 11.7948 14.4248 11.7969 14.4303C11.8076 14.4633 11.8185 14.4968 11.828 14.5304C11.8288 14.5325 11.8295 14.5341 11.8298 14.5364C12.1603 15.6808 11.8174 17.0653 10.9047 18.2133C10.5752 18.6266 10.5022 19.1664 10.7028 19.6953L10.7055 19.7024C10.7204 19.7411 10.7366 19.7784 10.7544 19.8145C10.9923 20.2968 11.5055 20.6009 12.0983 20.6166C12.1004 20.6168 12.1028 20.6169 12.1048 20.617C12.1211 20.6175 12.1377 20.6175 12.1543 20.6174C12.1606 20.6174 12.1665 20.6175 12.1724 20.6176C12.1845 20.6173 12.1971 20.6169 12.2091 20.6166C12.2192 20.6161 12.2294 20.616 12.2395 20.6156C12.2438 20.6153 12.2481 20.6151 12.2523 20.6145C12.2695 20.6137 12.2871 20.6123 12.3046 20.6108C12.937 20.5592 13.5635 20.7528 14.0514 21.1512C14.0629 21.1607 14.0735 21.1707 14.085 21.1802C14.7206 21.7155 15.0302 22.5424 14.8979 23.3652C14.8939 23.389 14.8885 23.4118 14.8841 23.4348C14.8786 23.4625 14.8739 23.4908 14.8676 23.5178C14.8635 23.5363 14.858 23.5539 14.8537 23.5719C14.8456 23.6041 14.8378 23.636 14.8287 23.667C14.8242 23.6832 14.8184 23.6985 14.8133 23.7145C14.8032 23.7468 14.7927 23.7793 14.7814 23.8107C14.7757 23.8264 14.7692 23.8414 14.7634 23.8567C14.7513 23.8875 14.7397 23.9184 14.7267 23.9481C14.7197 23.9643 14.712 23.9798 14.7049 23.9955C14.6918 24.0237 14.6787 24.0519 14.6647 24.0791C14.656 24.0959 14.6468 24.1125 14.6375 24.1291C14.6241 24.154 14.6102 24.1787 14.5956 24.2031C14.585 24.2212 14.5736 24.2386 14.5628 24.2562C14.5491 24.2779 14.5349 24.2993 14.5205 24.3203C14.5077 24.3392 14.4944 24.3578 14.4809 24.376C14.4675 24.3947 14.4534 24.4127 14.4393 24.4306C14.4239 24.4501 14.4088 24.4694 14.3926 24.4882C14.3796 24.5038 14.3663 24.519 14.3526 24.5339C14.3348 24.5538 14.317 24.5737 14.2985 24.5928C14.2864 24.6057 14.2735 24.6179 14.2612 24.6303C14.2407 24.6508 14.2202 24.6712 14.1988 24.6905C14.1887 24.6997 14.178 24.7086 14.1678 24.7178C14.0932 24.7841 14.0132 24.8453 13.9285 24.9019C13.9109 24.9135 13.894 24.9253 13.8763 24.9365C13.8575 24.9485 13.8378 24.9595 13.8184 24.9712C13.7957 24.9848 13.7729 24.9979 13.75 25.0105C13.7331 25.0199 13.7156 25.029 13.6979 25.0378C13.6707 25.0521 13.6428 25.0657 13.6146 25.0789C13.5998 25.0861 13.5852 25.0926 13.5702 25.0993C13.536 25.1144 13.5016 25.1291 13.4668 25.1429C13.4592 25.1458 13.4518 25.1496 13.4442 25.1525C12.8587 25.3773 12.1691 25.3997 11.5043 25.2194C7.91139 24.245 1.30688 16.9124 7.23123 13.2263L7.23241 13.2268Z" fill="#A876D7"/>
<path d="M13.9498 6.70114C13.1978 6.98984 12.3567 6.621 12.0713 5.87733C11.7858 5.13366 12.1639 4.29676 12.916 4.00807C13.668 3.71938 14.509 4.08822 14.7945 4.83189C15.08 5.57556 14.7018 6.41245 13.9498 6.70114Z" fill="white"/>
<path d="M15.4021 4.08396C14.9009 4.27639 14.3402 4.03054 14.1499 3.53483C13.9596 3.03913 14.2117 2.48129 14.713 2.28886C15.2143 2.09643 15.7749 2.34228 15.9652 2.83798C16.1555 3.33368 15.9034 3.89153 15.4021 4.08396Z" fill="white"/>
<path d="M17.3455 3.33786C16.8442 3.53029 16.2836 3.28444 16.0933 2.78874C15.903 2.29303 16.1551 1.73519 16.6564 1.54276C17.1576 1.35033 17.7182 1.59618 17.9085 2.09189C18.0988 2.58759 17.8467 3.14543 17.3455 3.33786Z" fill="white"/>
<path d="M19.3554 3.58368C18.8301 3.6942 18.3171 3.36214 18.2096 2.84201C18.1021 2.32188 18.4407 1.81063 18.966 1.70011C19.4913 1.58959 20.0043 1.92165 20.1118 2.44178C20.2193 2.96191 19.8807 3.47316 19.3554 3.58368Z" fill="white"/>
<path d="M20.6855 3.79805C20.5016 3.6058 20.5108 3.30092 20.706 3.1171C20.9012 2.93327 21.2086 2.9401 21.3925 3.13236C21.5764 3.32461 21.5672 3.62949 21.372 3.81332C21.1767 3.99714 20.8694 3.99031 20.6855 3.79805Z" fill="white"/>
<path d="M12.0416 12.584C11.2896 12.8726 10.4485 12.5038 10.163 11.7601C9.87756 11.0165 10.2557 10.1796 11.0078 9.89088C11.7598 9.60219 12.6008 9.97103 12.8863 10.7147C13.1718 11.4584 12.7936 12.2953 12.0416 12.584Z" fill="white"/>
<path d="M8.15953 11.379C7.7919 10.9947 7.81025 10.3852 8.20053 10.0177C8.59081 9.65026 9.20523 9.66392 9.57286 10.0482C9.9405 10.4326 9.92214 11.042 9.53186 11.4095C9.14158 11.777 8.52717 11.7633 8.15953 11.379Z" fill="white"/>
<path d="M6.21629 12.1251C5.84866 11.7408 5.86702 11.1313 6.2573 10.7638C6.64758 10.3964 7.26199 10.41 7.62962 10.7943C7.99726 11.1787 7.9789 11.7881 7.58862 12.1556C7.19834 12.5231 6.58393 12.5094 6.21629 12.1251Z" fill="white"/>
<path d="M5.05415 13.9353C4.56514 13.7209 4.34698 13.1526 4.56686 12.666C4.78674 12.1794 5.36141 11.9588 5.85042 12.1732C6.33942 12.3877 6.55759 12.956 6.3377 13.4426C6.11782 13.9291 5.54315 14.1498 5.05415 13.9353Z" fill="white"/>
<path d="M4.40864 15.364C4.16402 15.2567 4.05489 14.9724 4.16488 14.729C4.27487 14.4856 4.56234 14.3752 4.80696 14.4825C5.05158 14.5898 5.16071 14.8741 5.05072 15.1175C4.94072 15.3609 4.65325 15.4712 4.40864 15.364Z" fill="white"/>
<path d="M17.8927 14.7499C17.8936 14.7433 17.8943 14.7362 17.8952 14.7296C17.8975 14.7128 17.9014 14.6963 17.9042 14.6793C17.9071 14.6627 17.9098 14.6468 17.9131 14.63C17.9165 14.6133 17.92 14.597 17.9237 14.5801C17.9291 14.5558 17.9344 14.5316 17.9403 14.5076C17.9424 14.499 17.9449 14.4904 17.9473 14.4812C17.9556 14.4496 17.9646 14.4181 17.9741 14.3869C17.9746 14.3858 17.9747 14.3848 17.9752 14.3836C18.1193 13.9131 18.4078 13.4808 18.8324 13.1585C18.8505 13.1447 18.8685 13.1306 18.8864 13.116C18.8924 13.1113 18.8978 13.1063 18.9038 13.1016C18.9141 13.0928 18.9246 13.0845 18.9347 13.0753C18.9497 13.0622 18.9641 13.049 18.9786 13.0357C18.9794 13.0354 18.9801 13.0346 18.9808 13.0339C19.0416 12.9772 19.098 12.917 19.1493 12.8533C19.1512 12.8507 19.1535 12.8479 19.1556 12.8456C19.1641 12.8346 19.173 12.8235 19.181 12.8127C19.1878 12.8038 19.1949 12.7943 19.2016 12.785C19.2049 12.7808 19.2076 12.7764 19.2109 12.7722C19.5073 12.3552 19.5773 11.8407 19.3857 11.3417C19.2002 10.8673 18.778 10.5254 18.2717 10.4402C18.2707 10.4401 18.2701 10.4398 18.2691 10.4397C18.2221 10.4317 18.1755 10.4235 18.129 10.4143C16.794 10.1543 15.7017 9.41638 15.1752 8.43273C15.1748 8.43189 15.1747 8.43147 15.1744 8.43063C15.1586 8.40096 15.1432 8.37113 15.1286 8.34055C15.125 8.33372 15.1214 8.32689 15.1182 8.3199C15.1064 8.29547 15.0954 8.27072 15.0844 8.24596C15.0787 8.23366 15.0729 8.22094 15.0672 8.20865C15.0587 8.1892 15.051 8.169 15.043 8.14938C15.0363 8.13213 15.0283 8.11495 15.0217 8.0977C14.3681 6.39517 15.9579 4.70288 17.6618 4.27811C24.5308 3.05286 24.5297 12.9214 22.5118 16.0497C21.6725 17.3506 20.0549 17.9759 18.7491 16.9413C18.1107 16.4255 17.7879 15.6215 17.8863 14.8107C17.8888 14.7905 17.8908 14.7704 17.8937 14.75L17.8927 14.7499Z" fill="white"/>
<path d="M7.68297 13.2971C9.23381 12.4724 11.5472 12.6663 12.2008 14.3688C12.2013 14.3701 12.2016 14.3709 12.2021 14.3722C12.2161 14.4088 12.2293 14.4458 12.2419 14.4834C12.244 14.4889 12.2454 14.4951 12.2475 14.5006C12.2582 14.5337 12.2691 14.5671 12.2786 14.6007C12.2794 14.6028 12.28 14.6045 12.2804 14.6067C12.6108 15.7511 12.268 17.1356 11.3553 18.2836C11.0257 18.6969 10.9527 19.2367 11.1533 19.7656L11.1561 19.7727C11.1709 19.8115 11.1872 19.8487 11.205 19.8848C11.4428 20.3671 11.956 20.6712 12.5489 20.687C12.5509 20.6871 12.5534 20.6872 12.5554 20.6874C12.5717 20.6879 12.5883 20.6878 12.6048 20.6877C12.6112 20.6877 12.6171 20.6878 12.623 20.688C12.6351 20.6877 12.6476 20.6872 12.6597 20.6869C12.6698 20.6864 12.68 20.6864 12.6901 20.6859C12.6944 20.6857 12.6987 20.6855 12.7029 20.6848C12.7201 20.684 12.7376 20.6826 12.7551 20.6812C13.3876 20.6296 14.0141 20.8231 14.5019 21.2215C14.5134 21.2311 14.5241 21.241 14.5355 21.2506C15.1711 21.7858 15.4808 22.6128 15.3485 23.4356C15.3444 23.4593 15.339 23.4822 15.3346 23.5051C15.3292 23.5328 15.3244 23.5611 15.3182 23.5882C15.3141 23.6066 15.3086 23.6242 15.3043 23.6423C15.2961 23.6744 15.2884 23.7063 15.2793 23.7373C15.2748 23.7535 15.2689 23.7688 15.2638 23.7848C15.2538 23.8171 15.2433 23.8496 15.2319 23.881C15.2262 23.8967 15.2198 23.9118 15.214 23.927C15.2018 23.9578 15.1903 23.9888 15.1773 24.0184C15.1703 24.0346 15.1626 24.0501 15.1554 24.0659C15.1423 24.0941 15.1293 24.1223 15.1152 24.1494C15.1066 24.1662 15.0973 24.1828 15.0881 24.1994C15.0747 24.2243 15.0607 24.249 15.0462 24.2734C15.0355 24.2915 15.0242 24.3089 15.0134 24.3266C14.9997 24.3482 14.9855 24.3696 14.9711 24.3906C14.9583 24.4095 14.945 24.4281 14.9314 24.4464C14.9181 24.465 14.904 24.483 14.8899 24.5009C14.8744 24.5204 14.8594 24.5397 14.8432 24.5585C14.8301 24.5741 14.8169 24.5893 14.8031 24.6043C14.7854 24.6241 14.7676 24.644 14.7491 24.6631C14.7369 24.676 14.724 24.6882 14.7117 24.7007C14.6912 24.7211 14.6708 24.7415 14.6494 24.7608C14.6392 24.77 14.6285 24.779 14.6184 24.7882C14.5437 24.8545 14.4637 24.9156 14.379 24.9723C14.3615 24.9838 14.3446 24.9956 14.3269 25.0068C14.3081 25.0188 14.2883 25.0298 14.2689 25.0416C14.2463 25.0551 14.2235 25.0682 14.2005 25.0808C14.1836 25.0902 14.1661 25.0994 14.1485 25.1081C14.1213 25.1224 14.0933 25.136 14.0652 25.1492C14.0504 25.1564 14.0358 25.1629 14.0208 25.1696C13.9865 25.1847 13.9521 25.1994 13.9174 25.2132C13.9097 25.2161 13.9024 25.2199 13.8947 25.2229C13.3092 25.4476 12.6197 25.47 11.9548 25.2897C8.36195 24.3153 1.75745 16.9827 7.68179 13.2966L7.68297 13.2971Z" fill="white"/>
</svg>
