<?xml version="1.0" encoding="UTF-8"?><svg id="Layer_2" xmlns="http://www.w3.org/2000/svg" width="168.8" height="140.5" viewBox="0 0 168.8 140.5"><g id="Layer_2-2"><g id="Layer_1-2"><rect x=".51" y="117.39" width="167.77" height="22.6" fill="#038387"/><rect x=".51" y="117.39" width="167.77" height="22.6" fill="none" stroke="#038387" stroke-miterlimit="4" stroke-width="1.02"/><path d="m12.14,133.33h-2.28v-5.68c0-.69-.27-1.03-.81-1.03h-3.18v-1.45h3.57c1.79,0,2.7.77,2.7,2.32,0,0,0,5.84,0,5.84Zm-3.99,0h-2.28v-5.49h2.28v5.49Zm11.32-6.72h-.74v6.72h-2.28v-6.72h-2.65v-1.45h5.67v1.45Zm4.18,3.21h-2.28v-3.2c0-.27-.06-.76-.21-1.47h2.31c.11.31.18.69.18,1.16v3.5h0Zm8.27,1.73c0,1.29-.55,1.94-1.66,1.94-1.02,0-1.53-.18-1.53-.55v-1c0-.15.05-.19.15-.18.16.11.31.18.45.18.32,0,.48-.36.48-1.05l.02-3.12c.05-.82-.19-1.36-1.02-1.36-.44,0-.73.26-.87.77-.06.24-.1.68-.1,1.32v4.81h-2.28v-5.65c0-1.24-.11-2.08-.36-2.52h2.28c.1.34.15.76.15,1.26.47-.94,1.15-1.4,2.05-1.4,1.5,0,2.24.71,2.24,2.13v4.41h0Zm6.91-4.46c-.08.63-.11,1.02-.11,1.18l-.19,1.87c-.05.4-.21,1.47-.45,3.18h-2.18l.68-5.8c0-.13.08-.47.08-.6,0-.21-.19-.32-.58-.32h-1.11c-.58,0-.98-.15-1.19-.45-.18-.24-.26-.66-.26-1.26v-.31c0-.1,0-.19.02-.31,0-.66-.06-1.53-.21-2.62h2.31c.1.37.15.87.13,1.47l-.02,1.24c0,.69.18.77.89.77h1.34c.61,0,.92.42.92,1.24,0,.19-.02.42-.05.69l-.02.03Zm12.95,6.23h-2.28v-5.55c0-.77-.32-1.16-.95-1.16h-.79v5.09c0,1.19-.55,1.79-1.65,1.79-.61,0-1.08-.06-1.39-.19v-1.5c.11.1.26.15.4.15.24,0,.36-.19.36-.57v-6.22h3.91c1.74,0,2.39.66,2.39,2.41v5.76h0Zm4.09,0h-2.28v-7.02c0-.31-.06-.68-.21-1.15h2.31c.11.27.18.65.18,1.11v7.05h0Zm3.86-3.5h-2.28v-3.2c0-.27-.06-.76-.21-1.47h2.31c.11.31.18.69.18,1.16v3.5h0Zm4.15,3.5c-.15-.08-.21-.24-.19-.48.02-.27.02-.39.02-.32,0-.18-.05-.26-.13-.26-.05,0-.16.24-.34.74-.21.36-.55.53-.98.53-.37,0-.65-.06-.82-.21v-1.36c0-.16.08-.24.23-.24.24,0,.5.21.55.21.37,0,.57-.47.57-1.42l-.02-2.95c0-.77-.05-.95-.76-.95h-.45v-1.45h1.49c.86,0,1.42.19,1.7.57.21.31.32.9.32,1.82v4.2c0,.79.08,1.32.24,1.58h-1.43Zm5.52,0h-2.28v-7.02c0-.31-.06-.68-.21-1.15h2.31c.11.27.18.65.18,1.11v7.05h0Zm6.8-6.23c-.08.63-.11,1.02-.11,1.18l-.19,1.87c-.05.4-.21,1.47-.45,3.18h-2.18l.68-5.8c0-.13.08-.47.08-.6,0-.21-.19-.32-.58-.32h-1.11c-.58,0-.98-.15-1.19-.45-.18-.24-.26-.66-.26-1.26v-.31c0-.1,0-.19.02-.31,0-.66-.06-1.53-.21-2.62h2.31c.1.37.15.87.13,1.47l-.02,1.24c0,.69.18.77.89.77h1.34c.61,0,.92.42.92,1.24,0,.19-.02.42-.05.69l-.02.03Zm4.26,6.23h-2.28v-7.02c0-.31-.06-.68-.21-1.15h2.31c.11.27.18.65.18,1.11v7.05h0Zm5.26,0h-3.63v-1.47h1.36v-4.67c0-.4-.27-.61-.81-.6-.08,0-.16,0-.27.02h-.18v-1.45h1.7c1.23,0,1.84.76,1.84,2.28v5.89h-.01Zm6.28-1.4c-.47.94-1.26,1.4-2.41,1.4h-2.1v-1.47h1.57c.77,0,1.16-.81,1.16-2.44,0-.73-.05-1.28-.13-1.68-.16-.76-.47-1.13-.94-1.13h-1.66v-1.45h2.2c1.87,0,2.81,1.28,2.81,3.84,0,1.28-.16,2.24-.5,2.92h0Zm8.51-2c0,1.18-.24,2.07-.71,2.63-.53.63-1.37.94-2.53.94-2.02,0-3.12-1.29-3.12-3.34v-4.99h2.28v4.65c0,.6.03,1.03.08,1.28.11.57.37.84.74.84.47,0,.76-.34.9-1.02.05-.26.08-.55.08-.89v-2.66c0-.26-.02-.44-.03-.53-.05-.24-.16-.36-.34-.36-.15,0-.26.06-.37.18-.11.18-.21.29-.26.37l-.1-.08v-1.23c.29-.47.76-.69,1.4-.69,1.47,0,1.97.71,1.97,2.21v2.7h0Zm6.98-2.83c-.08.63-.11,1.02-.11,1.18l-.19,1.87c-.05.4-.21,1.47-.45,3.18h-2.18l.68-5.8c0-.13.08-.47.08-.6,0-.21-.19-.32-.58-.32h-1.11c-.58,0-.98-.15-1.19-.45-.18-.24-.26-.66-.26-1.26v-.31c0-.1,0-.19.02-.31,0-.66-.06-1.53-.21-2.62h2.31c.1.37.15.87.13,1.47l-.02,1.24c0,.69.18.77.89.77h1.34c.61,0,.92.42.92,1.24,0,.19-.02.42-.05.69l-.02.03Zm12.17,6.23h-2.28v-5.68c0-.69-.27-1.03-.81-1.03h-3.18v-1.45h3.57c1.79,0,2.7.77,2.7,2.32v5.84Zm-3.99,0h-2.28v-5.49h2.28v5.49Zm12.11-3.41c0,1.18-.24,2.07-.71,2.63-.53.63-1.37.94-2.53.94-2.02,0-3.12-1.29-3.12-3.34v-4.99h2.28v4.65c0,.6.03,1.03.08,1.28.11.57.37.84.74.84.47,0,.76-.34.9-1.02.05-.26.08-.55.08-.89v-2.66c0-.26-.02-.44-.03-.53-.05-.24-.16-.36-.34-.36-.15,0-.26.06-.37.18-.11.18-.21.29-.26.37l-.1-.08v-1.23c.29-.47.76-.69,1.4-.69,1.47,0,1.97.71,1.97,2.21v2.7h0Zm6.98-2.83c-.08.63-.11,1.02-.11,1.18l-.19,1.87c-.05.4-.21,1.47-.45,3.18h-2.18l.68-5.8c0-.13.08-.47.08-.6,0-.21-.19-.32-.58-.32h-1.11c-.58,0-.98-.15-1.19-.45-.18-.24-.26-.66-.26-1.26v-.31c0-.1,0-.19.02-.31,0-.66-.06-1.53-.21-2.62h2.31c.1.37.15.87.13,1.47l-.02,1.24c0,.69.18.77.89.77h1.34c.61,0,.92.42.92,1.24,0,.19-.02.42-.05.69l-.02.03Zm4.26,6.23h-2.28v-7.02c0-.31-.06-.68-.21-1.15h2.31c.11.27.18.65.18,1.11v7.05h0Zm7.98-3.13c0,1.05-.11,1.79-.34,2.26-.34.66-.95,1-1.86,1-.4,0-.74-.05-1.02-.13v-1.36l.15.02c.34,0,.57-.13.68-.39.08-.18.11-.45.11-.84v-4.15h-4.12v-1.45h6.39v5.04h.01Zm-3.97,6.22h-2.31v-8.25h2.31v8.25Zm8.72-3.08h-2.65v-1.47h2.11c.65,0,1.08-.27,1.32-.82.18-.4.26-.95.24-1.68l-.02-.95c-.02-.61-.05-1.03-.11-1.26-.15-.48-.44-.73-.87-.73-.71,0-1.07.65-1.07,1.92,0,.53.06,1.02.21,1.49h-1.95c-.18-.57-.27-1.15-.27-1.71,0-1.94,1.19-3.1,3.13-3.1,1.28,0,2.16.42,2.66,1.24.39.65.58,1.65.58,3.02,0,2.7-1.11,4.05-3.33,4.05h.02Zm11.11,0h-2.28v-5.68c0-.69-.27-1.03-.81-1.03h-3.18v-1.45h3.57c1.79,0,2.7.77,2.7,2.32v5.84h0Zm-3.99,0h-2.28v-5.49h2.28v5.49Z" fill="#fff"/><rect x=".25" y="76.51" width="3.54" height="15.37" fill="#40525a"/><rect x="7.62" y="76.51" width="3.54" height="11.82" fill="#40525a"/><polygon points="22.74 76.51 17.63 76.51 17.63 72.93 14.18 72.93 14.18 78.9 19.19 78.9 16.07 88.33 19.55 88.33 22.74 78.85 22.74 76.51" fill="#40525a"/><rect x="25.9" y="76.51" width="3.54" height="11.82" fill="#40525a"/><path d="m42.86,80.27c.02-2.9-1.11-3.76-3.73-3.76h-5.91v11.82h3.52v-9.43h1.13c1.21,0,1.46.4,1.46,1.55v7.88h3.52v-8.06h0Z" fill="#40525a"/><polygon points="55.63 76.51 52.09 76.51 52.09 83.92 55.63 83.24 55.63 76.51" fill="#40525a"/><path d="m65.67,88.33c-.52-1.82-.69-3.13-.69-5.74v-2.34c-.02-2.95-.85-3.74-3.64-3.74h-2.51v2.38h1.28c.83,0,1.46.25,1.46,1.42v1.37c0,.97-.59,1.87-1.04,2.43-.83,1.06-1.87,1.42-1.87,1.42v3.38c1.09-.09,1.51-.61,2.01-1.42.43-.68.92-2.3.92-2.3,0,0,.07.04.12,0,.07.52.26,2.27.47,3.13h3.49Z" fill="#40525a"/><rect x="68.86" y="76.51" width="3.55" height="11.82" fill="#40525a"/><polygon points="83.98 76.51 78.87 76.51 78.87 72.93 75.42 72.93 75.42 78.9 80.43 78.9 77.31 88.33 80.79 88.33 83.98 78.85 83.98 76.51" fill="#40525a"/><rect x="87.14" y="76.51" width="3.55" height="11.82" fill="#40525a"/><path d="m99.42,88.33v-8.57c0-2.81-.57-3.24-3.05-3.24h-2.43v2.38h.73c.87,0,1.18.25,1.18,1.24v5.81h-1.91v2.39h5.48Z" fill="#40525a"/><path d="m110.22,81.51c.02-4.25-1.06-5-4.47-5h-3.07v2.39h2.13c1.54,0,1.89.52,1.89,2.59v1.82c0,2.03-.42,2.63-1.89,2.63h-2.13v2.39h3.07c3.43,0,4.44-.74,4.47-5,0,0,0-1.82,0-1.82Z" fill="#40525a"/><path d="m123.85,82.18c0-4.41-.71-5.92-3.52-5.92-.85,0-1.56.38-1.56.38l-.45,2.21c.1.13.54-.25.76-.25,1.18,0,1.25,1.37,1.25,3.53,0,2.88.14,4.37-1.58,4.37-1.63,0-1.63-1.49-1.63-3.15v-6.84h-3.52v7.09c0,2.66.85,5.11,4.87,5.11s5.39-1.26,5.39-6.53" fill="#40525a"/><rect x="132.94" y="76.51" width="3.54" height="15.37" fill="#40525a"/><rect x="140.08" y="76.51" width="3.55" height="11.82" fill="#40525a"/><path d="m154.46,81.51c.02-4.25-1.06-5-4.47-5h-3.07v2.39h2.13c1.54,0,1.89.52,1.89,2.59v1.82c0,2.03-.43,2.63-1.89,2.63h-2.13v2.39h3.07c3.43,0,4.44-.74,4.47-5,0,0,0-1.82,0-1.82Z" fill="#40525a"/><path d="m168.72,82.23c0-4.41-1.32-5.94-4.32-5.94-2.13,0-2.58,1.91-2.91,2.75h-.17s-.07-1.26-.54-2.52h-3.55s1.46,3.56,1.32,4.75l-.92,7.07h3.43l.33-3.71c.38-4.23,1.16-5.94,2.17-5.94s1.61.47,1.61,3.51c0,3.31-.14,4.12-1.61,4.12-.4,0-.71-.34-.71-.34h-.16v2.34s.38.34,1.16.34c3.12,0,4.87-.81,4.87-6.41" fill="#40525a"/><polygon points="1.49 107.86 1.49 101.91 5.6 101.91 5.6 107.86 7.1 107.86 7.1 94.83 5.6 94.83 5.6 100.46 1.49 100.46 1.49 94.83 0 94.83 0 107.86 1.49 107.86" fill="#40525a"/><path d="m11.78,108.04c1.74,0,3.12-.58,3.12-4.6,0-2.67-.28-4.87-3.12-4.87s-3.12,2.2-3.12,4.87c0,4.02,1.38,4.6,3.12,4.6m0-1.21c-1.38,0-1.72-1.06-1.72-4.02,0-2.49.7-3.03,1.72-3.03s1.72.54,1.72,3.03c0,2.96-.34,4.02-1.72,4.02" fill="#40525a"/><rect x="16.19" y="94.83" width="1.33" height="13.03" fill="#40525a"/><path d="m21.92,108.04c1.74,0,3.12-.58,3.12-4.6,0-2.67-.28-4.87-3.12-4.87s-3.12,2.2-3.12,4.87c0,4.02,1.38,4.6,3.12,4.6m0-1.21c-1.38,0-1.72-1.06-1.72-4.02,0-2.49.7-3.03,1.72-3.03s1.72.54,1.72,3.03c0,2.96-.34,4.02-1.72,4.02" fill="#40525a"/><path d="m32.15,107.86v-6.31c0-1.81-.44-2.98-2.19-2.98-1.06,0-1.67.33-2.19,1.35h-.07v-1.17h-1.41c.05.63.08,1.26.08,1.89v7.22h1.33v-5.39c0-1.25.21-2.69,1.67-2.69,1.14,0,1.45.79,1.45,1.77v6.31s1.33,0,1.33,0Z" fill="#40525a"/><rect x="37.02" y="94.83" width="1.49" height="13.03" fill="#40525a"/><path d="m45.85,107.86v-6.31c0-1.81-.44-2.98-2.19-2.98-1.05,0-1.67.33-2.19,1.35h-.07v-1.17h-1.41c.05.63.08,1.26.08,1.89v7.22h1.33v-5.39c0-1.25.21-2.69,1.67-2.69,1.14,0,1.44.79,1.44,1.77v6.31h1.34Z" fill="#40525a"/><path d="m52.51,105.26c0-2.78-4.09-2.74-4.09-4.35,0-.79.55-1.23,1.27-1.23.84,0,1.3.5,1.28,1.46h1.48c.11-1.81-1.14-2.58-2.6-2.58-2.31,0-2.82,1.53-2.82,2.49,0,2.72,4.09,2.76,4.09,4.38,0,.94-.62,1.39-1.41,1.39-1.35,0-1.36-1.23-1.36-1.75h-1.51c-.05,2.09,1.06,2.96,2.83,2.96,1.62,0,2.86-.78,2.86-2.78" fill="#40525a"/><path d="m52.94,98.75v1.12h1.35v6.48c0,1.05.57,1.62,1.83,1.62.44,0,.88-.11,1.32-.14v-1.14c-.29.04-.5.07-.6.07-1.22,0-1.22-.74-1.22-1.32v-5.57h1.79v-1.12h-1.79v-2.42l-1.33.67v1.75s-1.35,0-1.35,0Z" fill="#40525a"/><path d="m58.24,96.42h1.49v-1.59h-1.49v1.59Zm1.41,2.33h-1.33v9.11h1.33v-9.11Z" fill="#40525a"/><path d="m60.45,98.75v1.12h1.35v6.48c0,1.05.57,1.62,1.83,1.62.44,0,.88-.11,1.32-.14v-1.14c-.29.04-.5.07-.6.07-1.22,0-1.22-.74-1.22-1.32v-5.57h1.79v-1.12h-1.79v-2.42l-1.33.67v1.75s-1.35,0-1.35,0Z" fill="#40525a"/><path d="m70.25,104.79c0,1.52-.89,2.11-1.61,2.11-.94,0-1.4-.74-1.4-1.84v-6.32h-1.33v6.95c0,1.55.78,2.35,2.21,2.35.86,0,1.64-.45,2.08-1.28h.05v1.1h1.41c-.05-.63-.08-1.26-.08-1.89v-7.22h-1.33v6.04Z" fill="#40525a"/><path d="m72.48,98.75v1.12h1.35v6.48c0,1.05.57,1.62,1.83,1.62.44,0,.88-.11,1.32-.14v-1.14c-.29.04-.5.07-.6.07-1.22,0-1.22-.74-1.22-1.32v-5.57h1.79v-1.12h-1.79v-2.42l-1.33.67v1.75s-1.35,0-1.35,0Z" fill="#40525a"/><path d="m83.48,103.78v-.78c0-3.01-.58-4.44-2.92-4.44-2.84,0-3.12,2.2-3.12,4.87,0,4.02,1.38,4.6,3.12,4.6s2.84-.92,2.86-2.94h-1.46c-.05.92-.52,1.73-1.43,1.73-1.04,0-1.66-.51-1.66-3.05h4.61Zm-4.61-1.12c.02-2.53.71-2.98,1.56-2.98.97,0,1.64.33,1.64,2.98h-3.2Z" fill="#40525a"/><path d="m90.93,108.04c1.74,0,3.12-.58,3.12-4.6,0-2.67-.28-4.87-3.12-4.87s-3.12,2.2-3.12,4.87c0,4.02,1.38,4.6,3.12,4.6m0-1.21c-1.38,0-1.72-1.06-1.72-4.02,0-2.49.7-3.03,1.72-3.03s1.72.54,1.72,3.03c0,2.96-.34,4.02-1.72,4.02" fill="#40525a"/><path d="m94.51,98.75v1.12h1.27v7.99h1.33v-7.99h1.66v-1.12h-1.66v-1.55c0-.74.24-1.41,1.66-1.3v-1.06c-.2-.04-.36-.05-.63-.05-1.18,0-2.35.36-2.35,2.2v1.77h-1.28Z" fill="#40525a"/><polygon points="102.43 94.83 102.43 96.28 105.52 96.28 105.52 107.86 107.01 107.86 107.01 96.28 110.1 96.28 110.1 94.83 102.43 94.83" fill="#40525a"/><path d="m114.99,103.78v-.78c0-3.01-.58-4.44-2.92-4.44-2.84,0-3.12,2.2-3.12,4.87,0,4.02,1.38,4.6,3.12,4.6s2.84-.92,2.86-2.94h-1.46c-.05.92-.52,1.73-1.43,1.73-1.04,0-1.66-.51-1.66-3.05h4.61Zm-4.61-1.12c.02-2.53.71-2.98,1.56-2.98.97,0,1.64.33,1.64,2.98h-3.2Z" fill="#40525a"/><path d="m121.92,101.67c.08-2.04-.88-3.1-2.52-3.1-2.84,0-3.12,2.2-3.12,4.87,0,4.02,1.38,4.6,3.12,4.6.91,0,2.63-.65,2.58-3.21h-1.4c.05,1.64-.88,2-1.19,2-1.38,0-1.72-1.07-1.72-4.02,0-2.49.7-3.03,1.72-3.03.5,0,1.17.4,1.14,1.89h1.39Z" fill="#40525a"/><path d="m129.2,107.86v-6.46c0-2.06-.78-2.83-2.18-2.83-1.07,0-1.69.29-2.22,1.35h-.07v-5.09h-1.33v13.03h1.33v-5.36c0-1.53.34-2.72,1.67-2.72,1.14,0,1.46.79,1.46,1.91v6.17h1.34Z" fill="#40525a"/><path d="m136.7,107.86v-6.31c0-1.81-.44-2.98-2.19-2.98-1.05,0-1.67.33-2.19,1.35h-.07v-1.17h-1.41c.05.63.08,1.26.08,1.89v7.22h1.33v-5.39c0-1.25.21-2.69,1.67-2.69,1.14,0,1.44.79,1.44,1.77v6.31h1.34Z" fill="#40525a"/><path d="m141.3,108.04c1.74,0,3.12-.58,3.12-4.6,0-2.67-.28-4.87-3.12-4.87s-3.12,2.2-3.12,4.87c0,4.02,1.38,4.6,3.12,4.6m0-1.21c-1.38,0-1.72-1.06-1.72-4.02,0-2.49.7-3.03,1.72-3.03s1.72.54,1.72,3.03c0,2.96-.34,4.02-1.72,4.02" fill="#40525a"/><rect x="145.55" y="94.83" width="1.33" height="13.03" fill="#40525a"/><path d="m151.11,108.04c1.74,0,3.12-.58,3.12-4.6,0-2.67-.27-4.87-3.12-4.87s-3.12,2.2-3.12,4.87c0,4.02,1.38,4.6,3.12,4.6m0-1.21c-1.38,0-1.72-1.06-1.72-4.02,0-2.49.7-3.03,1.72-3.03s1.72.54,1.72,3.03c0,2.96-.34,4.02-1.72,4.02" fill="#40525a"/><path d="m159.73,99.87h-.03c-.37-.88-1.06-1.3-1.92-1.3-.67,0-2.57.27-2.57,4.46,0,2.71.44,4.83,2.66,4.83.71,0,1.46-.42,1.8-1.14h.05v1.89c0,.94-.5,1.57-1.43,1.57-.73,0-1.23-.47-1.25-1.32h-1.49c-.11,1.68,1.12,2.44,2.48,2.44,1.8,0,3.02-.49,3.02-2.53v-10.03h-1.33v1.12h0Zm.03,3.39c0,1.26.05,3.37-1.56,3.37-.99,0-1.59-.69-1.59-3.61,0-1.21.05-3.23,1.56-3.23,1.67,0,1.59,2.11,1.59,3.46" fill="#40525a"/><polygon points="163.39 98.75 161.85 98.75 164.62 107.86 163.7 111.31 165.08 111.31 168.8 98.75 167.35 98.75 165.39 106.16 165.35 106.16 163.39 98.75" fill="#40525a"/><path d="m123.44,16.53c1.67,0,2.99,1.31,2.99,3.02v5.1c0,1.41-1.08,3-3,3h-2.87c-.94,0-1.99.8-1.99,2.01v15.57c0,1.68-1.36,3.05-3.05,3.05h-5.04c-1.68,0-3.05-1.37-3.05-3.05v-15.57c0-1.2-1.05-2.01-1.99-2.01h-2.87c-1.92,0-3-1.59-3-3v-5.1c0-1.71,1.31-3.02,2.99-3.02h20.89,0Z" fill="#40525a"/><path d="m86.1,16.53h5.03c1.68,0,3.05,1.37,3.05,3.05v42.16c0,1.68-1.36,3.05-3.05,3.05h-5.03c-1.68,0-3.05-1.36-3.05-3.05V19.58c0-1.68,1.36-3.05,3.05-3.05" fill="#40525a"/><path d="m66.19,36.09c0-1.01-.79-1.98-1.99-1.98h-9.37c-1.11,0-1.95.85-1.95,1.95v25.68c0,1.68-1.36,3.05-3.05,3.05h-5.03c-1.68,0-3.05-1.36-3.05-3.05V19.58c0-1.68,1.36-3.05,3.05-3.05h5.03c1.68,0,3.05,1.37,3.05,3.05v4.25c0,1.1.85,1.99,1.95,1.99h9.37c1.2,0,1.99-.97,1.99-1.98V3.05c0-1.68,1.36-3.05,3.05-3.05h5.03c1.68,0,3.05,1.37,3.05,3.05v42.17c0,1.68-1.38,3.05-3.07,3.05h-5.03c-1.68,0-3.03-1.37-3.03-3.05,0,0,0-9.13,0-9.13Z" fill="#40525a"/><path d="m86.07.02h5.03c1.68,0,3.05,1.37,3.05,3.06v5.01c0,1.69-1.36,3.06-3.05,3.06h-5.03c-1.68,0-3.05-1.37-3.05-3.06V3.07c0-1.69,1.36-3.06,3.05-3.06" fill="#40525a"/><path d="m110.46,53.67h5.03c1.68,0,3.05,1.37,3.05,3.06v5.01c0,1.69-1.36,3.06-3.05,3.06h-5.03c-1.68,0-3.05-1.37-3.05-3.06v-5.01c0-1.69,1.36-3.06,3.05-3.06" fill="#40525a"/><path d="m69.21,53.67h5.03c1.68,0,3.05,1.37,3.05,3.06v5.01c0,1.69-1.36,3.06-3.05,3.06h-5.03c-1.68,0-3.05-1.37-3.05-3.06v-5.01c0-1.69,1.36-3.06,3.05-3.06" fill="#40525a"/></g></g></svg>