<svg width="44" height="52" viewBox="0 0 44 52" fill="none" xmlns="http://www.w3.org/2000/svg">
<path d="M11.1802 28.2049C12.3788 30.6061 15.4525 33.3295 15.9145 38.5667C15.9946 39.4741 16.7819 40.2095 17.6811 40.2083H21.8509L26.0206 40.2046C26.9199 40.2046 27.7071 39.4681 27.7861 38.5607C28.2434 33.3234 31.3159 30.5964 32.5121 28.1952C33.3253 26.5634 33.8486 24.7037 33.9818 22.7012C34.4933 15.001 29.0766 10.2835 21.8403 10.2871C14.6039 10.2895 9.18961 15.0119 9.70817 22.7121C9.84253 24.7146 10.367 26.573 11.1826 28.2049H11.1802Z" fill="#FED235"/>
<path d="M21.8417 51.8723C23.521 51.8723 24.8824 50.4729 24.8824 48.7467C24.8824 47.0205 23.521 45.6211 21.8417 45.6211C20.1624 45.6211 18.801 47.0205 18.801 48.7467C18.801 50.4729 20.1624 51.8723 21.8417 51.8723Z" fill="#4D8699"/>
<path d="M25.9357 41.0925H17.7482C16.865 41.0925 16.1489 41.8286 16.1489 42.7365V47.6527C16.1489 48.5606 16.865 49.2967 17.7482 49.2967H25.9357C26.819 49.2967 27.535 48.5606 27.535 47.6527V42.7365C27.535 41.8286 26.819 41.0925 25.9357 41.0925Z" fill="#1F414C"/>
<path d="M27.2652 44.2196H16.6558C16.0842 44.2196 15.6199 43.7423 15.6199 43.1547C15.6199 42.5672 16.0842 42.0898 16.6558 42.0898H27.2652C27.8368 42.0898 28.3012 42.5672 28.3012 43.1547C28.3012 43.7423 27.8368 44.2196 27.2652 44.2196Z" fill="#4D8699"/>
<path d="M27.2652 47.8695H16.6558C16.0842 47.8695 15.6199 47.3922 15.6199 46.8046C15.6199 46.2171 16.0842 45.7397 16.6558 45.7397H27.2652C27.8368 45.7397 28.3012 46.2171 28.3012 46.8046C28.3012 47.3922 27.8368 47.8695 27.2652 47.8695Z" fill="#4D8699"/>
<g style="mix-blend-mode:soft-light">
<path d="M22.1776 10.2966C15.1227 10.4541 9.89697 15.1462 10.4073 22.7179C10.5416 24.7205 11.0661 26.5789 11.8805 28.2108C13.0791 30.6119 16.1539 33.3366 16.6148 38.5726C16.6949 39.4751 17.4728 40.2069 18.3661 40.2153H17.6342C16.735 40.2153 15.9477 39.48 15.8676 38.5726C15.4067 33.3353 12.3319 30.6119 11.1333 28.2108C10.3189 26.5789 9.79444 24.7217 9.66008 22.7179C9.14152 15.0177 14.5546 10.2966 21.791 10.293C21.9206 10.293 22.0491 10.2942 22.1776 10.2966Z" fill="white"/>
<path d="M22.1711 51.8529C22.0486 51.8699 21.9248 51.8784 21.7975 51.8784C20.3008 51.8784 19.0574 50.7674 18.8052 49.304H19.5524C19.7834 50.6439 20.8441 51.6869 22.1711 51.8541V51.8529Z" fill="white"/>
<path d="M18.4497 41.0986C17.7567 41.0986 17.1698 41.5517 16.947 42.1841C16.5793 42.3465 16.3224 42.7232 16.3224 43.1618C16.3224 43.5604 16.5357 43.9068 16.8504 44.0898V45.884C16.5357 46.0669 16.3224 46.4134 16.3224 46.812C16.3224 47.1064 16.4391 47.3717 16.6265 47.5643C16.6936 47.6334 16.7703 47.6951 16.8551 47.7424C16.8975 48.611 17.5952 49.304 18.4509 49.304H17.7037C16.848 49.304 16.1503 48.611 16.1079 47.7424C16.0242 47.6951 15.9476 47.6346 15.8793 47.5643C15.6919 47.3717 15.5752 47.1064 15.5752 46.812C15.5752 46.4134 15.7885 46.0669 16.1032 45.884V44.0898C15.7885 43.9068 15.5752 43.5604 15.5752 43.1618C15.5752 42.7232 15.8321 42.3477 16.1998 42.1841C16.4238 41.5517 17.0107 41.0986 17.7025 41.0986H18.4497Z" fill="white"/>
</g>
<g style="mix-blend-mode:soft-light">
<path d="M33.9418 22.7038C33.8087 24.7076 33.2854 26.566 32.4722 28.1979C31.2759 30.6003 28.2034 33.3261 27.7461 38.5645C27.6672 39.4719 26.8799 40.2073 25.9807 40.2073H24.8787C25.778 40.2073 26.5641 39.4707 26.6442 38.5645C27.1015 33.3273 30.174 30.6003 31.3702 28.1979C32.1834 26.566 32.7067 24.7076 32.8399 22.7038C33.3396 15.2023 28.2105 10.5321 21.2546 10.2995C21.435 10.2922 21.6176 10.2886 21.8003 10.2886C29.0367 10.2849 34.4545 15.0024 33.9418 22.7026V22.7038Z" fill="black"/>
<path d="M24.7962 49.2981C24.5629 50.6441 23.4927 51.6932 22.1574 51.8531C22.1621 51.8531 22.168 51.8531 22.1728 51.8543C22.0514 51.8713 21.9264 51.8798 21.7991 51.8798C21.6059 51.8798 21.4173 51.8616 21.2346 51.8252C22.4862 51.5975 23.4715 50.5835 23.6943 49.2981H24.7962Z" fill="black"/>
<path d="M28.2625 43.1572C28.2625 43.649 27.9372 44.0621 27.4952 44.1833V45.7788C27.6744 45.8285 27.8323 45.9254 27.9596 46.055C28.147 46.2476 28.2625 46.5117 28.2625 46.8061C28.2625 47.3016 27.9325 47.7172 27.4846 47.8347C27.3962 48.6585 26.7186 49.2969 25.8948 49.2969H24.7952C25.6178 49.2969 26.2955 48.6585 26.3827 47.8347C26.8294 47.7172 27.1605 47.3004 27.1605 46.8061C27.1605 46.5117 27.045 46.2476 26.8576 46.055C26.7304 45.9242 26.5724 45.8273 26.3933 45.7788V44.1833C26.8353 44.0621 27.1605 43.649 27.1605 43.1572C27.1605 42.6205 26.7728 42.1759 26.2695 42.1044C26.0291 41.512 25.4599 41.0976 24.7963 41.0952H25.8948C26.5595 41.0952 27.1299 41.512 27.3715 42.1044C27.8747 42.1759 28.2625 42.6205 28.2625 43.1572Z" fill="black"/>
</g>
<path d="M0.716383 26.9394C2.57733 26.4632 4.4371 25.9847 6.29687 25.5062C6.62333 25.4226 6.94979 25.3378 7.27743 25.2542C7.71939 25.1415 7.532 24.4401 7.08886 24.5527C5.48719 24.9622 3.88671 25.3765 2.28505 25.7872C1.6993 25.9375 1.11356 26.0877 0.527814 26.2367C0.0858536 26.3494 0.273245 27.0508 0.716383 26.9381V26.9394Z" fill="#FED235"/>
<path d="M1.03049 16.0805C2.90794 16.4827 4.78538 16.8801 6.66283 17.2787C6.99283 17.3489 7.32282 17.4192 7.65164 17.4895C7.83785 17.5294 8.03349 17.4337 8.08653 17.235C8.13485 17.0545 8.0276 16.828 7.83903 16.788C6.22323 16.4415 4.60624 16.1011 2.98926 15.757C2.3988 15.631 1.80716 15.5051 1.2167 15.3791C1.03049 15.3391 0.83485 15.4348 0.781815 15.6335C0.733494 15.814 0.840743 16.0405 1.02931 16.0805H1.03049Z" fill="#FED235"/>
<path d="M20.877 0.47276C20.8652 2.44384 20.857 4.41492 20.8487 6.386C20.8475 6.73248 20.8452 7.07776 20.844 7.42424C20.8416 7.89187 21.5488 7.89308 21.5511 7.42424C21.5617 5.72695 21.5665 4.03088 21.5747 2.3336C21.5782 1.71332 21.5806 1.09304 21.5853 0.47276C21.5877 0.00512854 20.8805 0.00391706 20.8782 0.47276H20.877Z" fill="#FED235"/>
<path d="M7.66863 4.61607C8.78826 6.21644 9.91143 7.81317 11.0334 9.41233C11.2302 9.69339 11.4271 9.97324 11.6239 10.2543C11.7347 10.413 11.9315 10.4905 12.1071 10.3851C12.2603 10.2931 12.3463 10.0484 12.2344 9.88844C11.2703 8.51098 10.3027 7.13716 9.33747 5.75971C8.98508 5.25694 8.63151 4.75297 8.27913 4.24899C8.16834 4.09029 7.97152 4.01275 7.79592 4.11815C7.6427 4.21023 7.55667 4.45494 7.66863 4.61486V4.61607Z" fill="#FED235"/>
<path d="M43.156 26.2379C41.295 25.7618 39.4353 25.2833 37.5755 24.8047C37.2491 24.7211 36.9226 24.6363 36.595 24.5528C36.153 24.4401 35.9644 25.1403 36.4064 25.2542C38.008 25.6637 39.6085 26.078 41.2102 26.4887C41.7959 26.6389 42.3817 26.7891 42.9674 26.9382C43.4094 27.0508 43.598 26.3506 43.156 26.2367V26.2379Z" fill="#FED235"/>
<path d="M42.4593 15.3514C40.5854 15.7693 38.7103 16.1837 36.8364 16.598C36.5076 16.6707 36.1776 16.7434 35.8487 16.8173C35.6625 16.8585 35.5529 17.0826 35.6012 17.2643C35.6543 17.463 35.8487 17.5599 36.0361 17.5187C37.6496 17.1589 39.263 16.8039 40.8765 16.4466C41.4669 16.3157 42.0562 16.1849 42.6455 16.0528C42.8317 16.0116 42.9413 15.7875 42.893 15.6058C42.84 15.4071 42.6455 15.3102 42.4581 15.3514H42.4593Z" fill="#FED235"/>
<path d="M35.4044 4.24977C34.2848 5.85014 33.1616 7.44687 32.0396 9.04602C31.8428 9.32709 31.646 9.60694 31.4491 9.888C31.3372 10.0479 31.422 10.2926 31.5764 10.3847C31.7544 10.4913 31.9489 10.4138 32.0596 10.2539C33.0237 8.87641 33.9913 7.5026 34.9565 6.12514C35.3089 5.62238 35.6625 5.1184 36.0149 4.61443C36.1268 4.45451 36.042 4.20979 35.8876 4.11772C35.7096 4.01111 35.5152 4.08864 35.4044 4.24856V4.24977Z" fill="#FED235"/>
<path d="M17.0476 12.733C16.4188 12.5751 15.2483 13.3314 15.211 13.7745C15.165 14.3517 15.954 14.2567 16.8069 13.8177C17.4816 13.4688 17.4588 12.8365 17.0476 12.733Z" fill="white"/>
<path d="M14.2811 14.5386C13.8411 14.6427 13.5625 15.0419 13.6802 15.3247C13.8396 15.7011 14.2488 15.5731 14.5206 15.2081C14.8401 14.7816 14.5687 14.4681 14.2791 14.5311L14.2811 14.5386Z" fill="white"/>
</svg>
