<svg width="144" height="155" viewBox="0 0 144 155" fill="none" xmlns="http://www.w3.org/2000/svg">
<path d="M131.983 87.2469C126.568 78.0048 112.506 61.0659 100.062 53.0822C95.857 50.3836 90.626 50.2337 86.4199 52.681C79.4979 56.7073 68.9018 62.8398 63.3092 65.8985C58.6989 66.1294 52.697 66.3619 48.0887 67.6064C42.0869 69.2268 38.8532 72.1271 37.4835 77.2493C33.6613 91.5626 32.4843 109.835 32.0693 121.63C32.0343 122.6 32.8235 123.393 33.7925 123.371C37.0082 123.307 43.7365 122.824 46.7543 119.993C48.8903 117.989 51.0919 118.153 52.6927 118.758C55.351 119.759 58.071 119.969 60.5079 119.128C62.6871 118.377 69.1191 115.398 69.5753 113.242C70.5901 108.452 74.1693 112.697 75.3423 111.555C80.9462 106.098 88.6134 113.916 89.6252 109.019C90.1074 106.693 90.7094 105.106 91.3702 104.042C93.0225 103.244 94.7349 102.94 96.3043 103.853C98.0592 104.876 100.501 104.547 102.849 103.752C103.76 103.62 104.568 103.314 105.175 102.793C107.686 101.517 109.799 99.5507 111.412 97.1861C111.653 96.836 111.936 96.4661 112.268 96.1063C113.472 94.7962 115.32 93.5828 118.133 93.6261C118.86 93.6381 119.543 93.63 120.184 93.609C127.393 93.3667 129.503 91.1839 131.249 89.689C132.02 89.0271 132.493 88.1171 131.981 87.2433L131.983 87.2469Z" fill="#C60909"/>
<path opacity="0.28" d="M46.2786 83.133C44.172 87.1011 45.6391 115.118 45.9547 120.711C46.2191 120.488 46.4831 120.252 46.756 119.997C48.892 117.993 51.0935 118.157 52.6943 118.762C53.1151 118.919 53.5376 119.058 53.9591 119.174C52.7181 110.195 48.2802 79.3648 46.28 83.1366L46.2786 83.133Z" fill="#0A646B"/>
<path d="M91.9587 61.8718L112.239 96.1257C112.239 96.1257 112.26 96.1176 112.271 96.1135C113.475 94.8034 115.323 93.59 118.136 93.6333C118.863 93.6452 119.546 93.6371 120.187 93.6162L94.0069 60.4924L91.9587 61.8718Z" fill="#C60909"/>
<path opacity="0.28" d="M91.9587 61.8718L112.239 96.1257C112.239 96.1257 112.26 96.1176 112.271 96.1135C113.475 94.8034 115.323 93.59 118.136 93.6333C118.863 93.6452 119.546 93.6371 120.187 93.6162L94.0069 60.4924L91.9587 61.8718Z" fill="#0A646B"/>
<path opacity="0.28" d="M131.983 87.2469C131.983 87.2469 131.968 87.2195 131.96 87.2101C126.53 77.9578 112.491 61.0592 100.063 53.0859C99.564 52.7657 99.0507 52.4838 98.5253 52.2352C98.4785 52.22 98.4403 52.2058 98.4106 52.1924L96.5997 53.6996C96.5997 53.6996 114.028 61.0519 130.238 87.846C130.784 88.744 130.867 89.3981 129.96 90.7851C130.34 90.4889 130.677 90.197 130.992 89.9218C131.079 89.8478 131.166 89.7738 131.249 89.7012C131.249 89.7012 131.253 89.6998 131.256 89.6985C131.402 89.5735 131.536 89.4404 131.652 89.3021C131.891 89.0226 132.071 88.7164 132.152 88.3983C132.194 88.2386 132.21 88.0763 132.198 87.9128C132.19 87.8049 132.168 87.694 132.135 87.5835C132.101 87.473 132.052 87.3644 131.985 87.2541L131.983 87.2469Z" fill="#0A646B"/>
<path opacity="0.28" d="M39.8717 76.3118C38.6671 77.6633 38.1431 74.9462 37.5761 76.9186C37.5441 77.0293 37.5143 77.135 37.4873 77.2479C33.6615 91.5626 32.4845 109.835 32.0695 121.63C32.0345 122.6 32.8237 123.393 33.7927 123.371C35.9531 123.329 39.6991 123.093 42.8416 122.087C42.0561 122.138 41.013 122.312 39.6783 122.636C28.2153 125.418 36.155 91.5215 39.8731 76.3154L39.8717 76.3118Z" fill="#0A646B"/>
<path d="M87.2773 131.681C86.1209 132.119 84.9113 132.352 83.6784 132.371C75.9246 132.499 61.7738 129.691 54.1236 109.494C53.4122 107.616 52.7828 105.694 52.2389 103.748C51.5457 107.263 51 110.517 51.1015 113.062C51.131 113.822 51.1277 114.464 51.0837 115.031C51.0428 115.585 50.9212 117.269 49.8869 117.661C49.6248 117.76 49.3344 117.763 49.0258 117.675C47.9816 117.368 46.8977 115.96 46.027 114.832L45.8424 114.594C45.6605 114.363 45.4767 114.116 45.2916 113.866C41.5226 108.772 37.4295 100.406 39.3486 89.47C39.7137 87.3442 40.1032 85.3693 40.5072 83.6065C41.5668 78.9016 42.765 75.0722 44.0613 72.2282C45.272 68.2257 46.8525 65.8284 48.7666 65.1034C48.9426 65.0367 49.124 64.9844 49.3059 64.9443C50.7688 64.6325 52.3242 64.8359 53.9231 65.5443C56.5733 59.9001 60.2229 56.0703 64.5145 54.4448C70.5765 52.1486 79.0347 54.2053 87.3229 59.9442C87.6555 57.2229 88.38 54.2135 89.4634 50.1895L89.795 48.528C91.0259 42.3456 91.9932 37.4621 92.0244 33.2945C92.0434 30.7536 92.4848 29.4037 93.4221 29.0487C93.7094 28.9399 94.024 28.9357 94.3574 29.0353C94.3574 29.0353 95.9358 29.5379 97.2779 31.5633C97.38 31.7135 97.575 31.9682 97.7452 32.2117C97.846 32.3583 97.9426 32.4942 98.0108 32.5875C99.7269 34.9064 102.048 38.7044 103.35 43.6034C104.335 47.2462 104.614 51.0293 104.184 54.8387C104.106 55.5626 104.004 56.291 103.881 56.9863C103.514 59.1171 103.128 61.0906 102.722 62.8499C102.523 63.7342 102.313 64.5983 102.077 65.4926C101.457 67.9119 100.771 70.1431 100.028 72.1286C104.056 77.3003 107.272 83.0263 109.594 89.1565C114.663 102.538 112.455 114.65 103.202 124.179C101.985 125.433 100.578 126.368 99.0229 126.957C97.942 127.367 96.8137 127.597 95.6537 127.646C95.0749 128.362 94.3037 128.917 93.4023 129.259C92.5548 129.58 91.662 129.684 90.7941 129.561C89.7086 130.489 88.5279 131.199 87.2746 131.674L87.2773 131.681Z" fill="black"/>
<path d="M102.6 43.7721C101.413 39.2939 99.3394 35.6938 97.4368 33.121C97.258 32.8766 96.8976 32.3479 96.722 32.1229C95.9452 31.1236 95.1305 30.0893 94.2856 29.8427C94.3127 29.8817 94.3384 29.9171 94.3691 29.9548C93.5068 29.6079 92.8294 30.2916 92.8074 33.4208C92.7738 38.0698 91.5863 43.6404 90.2247 50.5294C88.9974 55.0843 88.2132 58.3914 87.9792 61.4162C79.743 55.403 71.0997 52.9442 64.8438 55.3138C60.4768 56.9679 56.8402 61.0597 54.3319 66.6994C54.1711 66.6001 54.0023 66.5122 53.829 66.4341C52.5375 65.8432 51.0658 65.5137 49.5413 65.8365C47.7555 66.2173 46.1128 68.2768 44.7928 72.6738C43.7785 74.8854 42.5168 78.4062 41.2707 83.9415C40.8697 85.6908 40.4874 87.6301 40.1222 89.756C38.2438 100.463 42.3784 108.625 45.8684 113.339C46.0472 113.584 46.2269 113.82 46.4025 114.045C47.1793 115.044 48.2904 116.557 49.1318 116.805C49.7234 116.98 50.1804 116.527 50.3047 114.85C50.3404 114.348 50.3509 113.736 50.3197 112.992C50.1859 109.647 51.1182 105.191 52.0465 100.606C52.0589 100.552 52.0677 100.499 52.0801 100.445C52.0883 100.467 52.0906 100.495 52.0988 100.516C52.1077 100.496 52.1158 100.485 52.1261 100.469C52.0893 100.22 52.0583 99.9648 52.0346 99.7069C52.7138 102.866 53.6408 106.051 54.8419 109.222C61.6895 127.3 74.2449 131.62 83.5753 131.47C86.1915 131.427 88.5639 130.373 90.512 128.62C91.3148 128.788 92.2131 128.732 93.0858 128.401C94.0052 128.053 94.7457 127.46 95.2351 126.757C98.0545 126.72 100.649 125.536 102.649 123.477C108.684 117.261 115.275 106.289 108.888 89.428C106.436 82.953 103.026 77.1486 99.1113 72.2129C99.8252 70.3574 100.589 68.0271 101.331 65.1386C101.546 64.318 101.76 63.4526 101.972 62.5264C102.373 60.7771 102.755 58.8377 103.12 56.7119C103.246 56.0031 103.339 55.3066 103.416 54.6204C103.871 50.5841 103.469 46.9541 102.609 43.7729L102.6 43.7721Z" fill="black"/>
<path d="M81.7142 140.704C81.2473 140.881 80.8163 140.892 80.4369 140.736C80.0921 140.595 79.5993 140.248 79.2952 139.37C79.2249 139.162 78.989 139.071 78.8195 139.176C78.0251 139.67 77.2776 140.06 76.6635 140.293C76.2505 140.449 74.99 140.927 74.2856 140.097C73.6133 139.308 73.9076 138.047 75.2461 136.008C76.1642 134.605 77.497 132.996 78.7178 131.807C80.0323 130.528 81.475 129.534 82.6781 129.079C82.7319 129.058 82.7858 129.038 82.8397 129.018C82.9567 128.936 83.0828 128.868 83.2157 128.818C84.0776 128.491 85.2657 128.809 87.0652 129.852C88.3693 130.607 92.5689 133.237 91.8579 135.318C91.6937 135.795 91.289 136.157 90.6462 136.401C89.5077 136.832 87.4323 136.904 85.6274 136.388C85.4762 136.347 85.3259 136.416 85.2625 136.563C84.4356 138.511 83.0209 140.197 81.7173 140.69L81.7142 140.704Z" fill="black"/>
<path d="M86.7219 130.594C84.6288 129.383 83.706 129.375 83.2183 129.79C82.1084 130.144 80.6503 131.087 79.2529 132.45C76.9151 134.723 74.0821 138.671 74.8375 139.559C75.3464 140.155 77.3466 139.212 79.3125 137.844C79.517 137.701 79.7994 137.86 79.8223 138.127C79.9059 139.085 80.1886 139.766 80.6679 139.958C81.6662 140.361 83.8367 138.339 84.7747 135.59C84.8334 135.42 85.0035 135.327 85.1678 135.392C87.4297 136.268 90.7621 136.024 91.1134 135C91.4797 133.929 88.8812 131.85 86.7197 130.599L86.7219 130.594Z" fill="#E9963E"/>
<path opacity="0.98" d="M79.8261 138.126C79.9097 139.084 80.1924 139.765 80.6717 139.957C81.67 140.359 83.8405 138.338 84.7784 135.589C84.8372 135.419 85.0073 135.325 85.1715 135.39C87.4335 136.267 90.7659 136.023 91.1171 134.999C91.4835 133.928 88.885 131.849 86.7234 130.598C86.3924 130.407 86.0944 130.249 85.8216 130.114C86.492 131.429 86.8437 132.704 85.9341 133.024C83.8945 133.743 84.1858 134.002 83.3897 135.207C82.5923 136.409 80.1856 137.427 79.6591 136.037C79.451 135.488 79.3307 136.482 79.2585 137.885C79.2787 137.873 79.2975 137.858 79.3177 137.846C79.5222 137.703 79.8045 137.863 79.8274 138.129L79.8261 138.126Z" fill="#D68338"/>
<path d="M79.6643 136.984L79.6766 137.862C79.7568 137.922 79.8165 138.014 79.8236 138.131C79.9072 139.089 80.1899 139.77 80.6693 139.962C81.6491 140.359 83.7663 138.403 84.7324 135.717C80.3223 142.841 79.6657 136.987 79.6657 136.987L79.6643 136.984Z" fill="#B25B19"/>
<path d="M91.1157 134.995C91.4655 133.967 89.0859 132.01 86.9858 130.749C88.6664 131.976 91.1826 134.185 90.0519 135.71C90.6118 135.551 91.0057 135.312 91.1157 134.995Z" fill="#B25B19"/>
<path d="M82.0271 130.331C81.1594 130.816 80.1932 131.539 79.2541 132.453C76.9163 134.727 74.0833 138.675 74.8387 139.563C74.8924 139.629 74.9694 139.669 75.0594 139.701C75.9092 136.004 80.0049 132.083 82.0285 130.335L82.0271 130.331Z" fill="#FFE0AE"/>
<path d="M74.8524 138.482C74.6837 138.969 74.6638 139.35 74.8411 139.558C75.3334 140.131 77.2201 139.269 79.1198 137.974L79.0058 137.619C76.0025 139.816 75.1152 139.121 74.8488 138.483L74.8524 138.482Z" fill="#B25B19"/>
<path d="M79.4643 135.252C79.2079 136.278 79.2667 137.344 79.299 138.415" stroke="black" stroke-width="1.08679" stroke-linecap="round" stroke-linejoin="round"/>
<path d="M109.805 130.064C110.272 129.887 110.602 129.61 110.783 129.242C110.948 128.908 111.087 128.321 110.733 127.462C110.648 127.26 110.764 127.035 110.961 127.002C111.883 126.845 112.701 126.642 113.316 126.41C113.729 126.253 114.989 125.776 114.967 124.688C114.948 123.652 113.892 122.902 111.539 122.262C109.922 121.819 107.857 121.496 106.155 121.414C104.323 121.328 102.584 121.539 101.381 121.994C101.327 122.015 101.273 122.035 101.219 122.056C101.078 122.072 100.938 122.105 100.805 122.155C99.9435 122.481 99.2641 123.507 98.6072 125.48C98.1301 126.909 96.7273 131.662 98.638 132.749C99.0771 132.998 99.6205 133.001 100.263 132.758C101.402 132.327 103.004 131.005 104.014 129.424C104.1 129.292 104.259 129.245 104.404 129.313C106.313 130.224 108.49 130.549 109.793 130.056L109.805 130.064Z" fill="black"/>
<path d="M99.3521 125.81C100.118 123.516 100.804 122.899 101.444 122.886C102.51 122.417 104.227 122.157 106.176 122.252C109.434 122.406 114.171 123.486 114.194 124.652C114.207 125.435 112.085 126.055 109.705 126.332C109.457 126.36 109.352 126.667 109.511 126.882C110.083 127.655 110.323 128.352 110.091 128.814C109.609 129.776 106.645 129.7 104.12 128.262C103.964 128.174 103.775 128.217 103.695 128.374C102.581 130.529 99.9232 132.554 98.9815 132.02C97.9976 131.46 98.5666 128.181 99.357 125.812L99.3521 125.81Z" fill="#E9963E"/>
<path opacity="0.98" d="M109.507 126.883C110.079 127.656 110.319 128.353 110.087 128.815C109.606 129.777 106.641 129.701 104.117 128.263C103.96 128.175 103.771 128.218 103.691 128.375C102.577 130.53 99.9196 132.555 98.978 132.021C97.9941 131.461 98.5631 128.182 99.3535 125.813C99.475 125.451 99.5935 125.135 99.7086 124.853C100.077 126.282 100.659 127.471 101.552 127.108C103.556 126.295 103.51 126.682 104.905 127.058C106.298 127.429 108.775 126.598 108.249 125.208C108.041 124.658 108.789 125.323 109.773 126.326C109.75 126.331 109.726 126.332 109.703 126.336C109.455 126.365 109.349 126.672 109.509 126.886L109.507 126.883Z" fill="#D68338"/>
<path d="M108.872 125.92L109.444 126.586C109.424 126.684 109.441 126.793 109.512 126.885C110.084 127.658 110.324 128.356 110.092 128.817C109.621 129.763 106.739 129.701 104.236 128.329C112.259 130.744 108.873 125.924 108.873 125.924L108.872 125.92Z" fill="#B25B19"/>
<path d="M98.9766 132.017C98.0336 131.479 98.5198 128.437 99.2568 126.1C98.8114 128.134 98.3899 131.455 100.247 131.848C99.7225 132.1 99.2688 132.182 98.9766 132.017Z" fill="#B25B19"/>
<path d="M102.695 122.503C103.666 122.291 104.869 122.193 106.178 122.255C109.435 122.409 114.173 123.49 114.195 124.655C114.199 124.74 114.168 124.822 114.121 124.905C111.035 122.699 105.37 122.475 102.696 122.506L102.695 122.503Z" fill="#FFE0AE"/>
<path d="M113.469 123.855C113.918 124.108 114.185 124.38 114.19 124.653C114.201 125.409 112.217 126.013 109.936 126.302L109.786 125.96C113.491 125.616 113.696 124.508 113.472 123.853L113.469 123.855Z" fill="#B25B19"/>
<path d="M107.875 124.491C108.746 125.089 109.408 125.927 110.094 126.751" stroke="black" stroke-width="1.08679" stroke-linecap="round" stroke-linejoin="round"/>
<path d="M64.8424 55.3102C52.2335 60.0861 45.7181 85.156 54.8347 109.225C61.6823 127.303 74.2376 131.623 83.5681 131.472C86.1843 131.43 88.5567 130.375 90.5047 128.623C91.3076 128.791 92.2059 128.734 93.0786 128.404C93.9979 128.056 94.7385 127.463 95.2279 126.76C98.0473 126.723 100.642 125.539 102.642 123.48C108.677 117.264 115.268 106.292 108.881 89.4307C99.7646 65.3622 77.4476 50.5356 64.8388 55.3116L64.8424 55.3102Z" fill="url(#paint0_linear_446_9134)"/>
<path d="M41.2694 83.938C40.8684 85.6873 40.486 87.6267 40.1209 89.7525C38.2424 100.459 42.3771 108.621 45.867 113.336C46.0458 113.58 46.2255 113.816 46.4011 114.041C47.1779 115.041 48.2891 116.554 49.1304 116.802C49.722 116.976 50.179 116.524 50.3033 114.846C50.339 114.344 50.3495 113.732 50.3183 112.989C50.1846 109.643 51.1169 105.188 52.0451 100.602C52.0575 100.548 52.0664 100.496 52.0788 100.442C52.0869 100.463 52.0893 100.491 52.0974 100.513C52.1064 100.493 52.1144 100.482 52.1247 100.465C51.0284 93.1153 54.8068 80.3667 56.964 73.9196C57.9009 71.1132 56.4758 67.6327 53.8334 66.4243C52.542 65.8335 51.0702 65.5039 49.5471 65.8303C47.7613 66.2111 46.1186 68.2706 44.7986 72.6676C43.7843 74.8792 42.5226 78.4 41.2765 83.9353L41.2694 83.938Z" fill="url(#paint1_linear_446_9134)"/>
<path d="M44.7588 72.6168C43.7445 74.8284 42.4828 78.3492 41.2367 83.8845C40.8357 85.6338 40.4534 87.5732 40.0882 89.699C38.2098 100.406 42.3444 108.568 45.8344 113.282C46.0132 113.527 46.1929 113.763 46.3685 113.988C47.1453 114.987 48.2564 116.5 49.0978 116.748C35.6937 98.9236 44.7575 72.6132 44.7575 72.6132L44.7588 72.6168Z" fill="#DAD9DB"/>
<path d="M68.1922 82.4543C62.5072 84.6076 55.2666 82.3936 47.8044 76.2228C41.5203 71.0266 35.8884 63.5301 33.463 57.1269L33.41 56.9868C30.5208 49.359 30.3068 41.5844 32.81 35.0966C35.5476 28.0026 41.3782 22.591 49.6668 19.4515L49.7997 19.4012C50.0282 19.3106 50.2746 19.2131 50.5188 19.1206C58.7068 16.0192 66.7372 16.2093 73.7473 19.6686C80.2591 22.8855 85.4092 28.774 88.2413 36.251L88.2943 36.3911C93.0852 49.0395 89.1844 74.5071 76.5683 79.2857L68.1971 82.4565L68.1922 82.4543Z" fill="black"/>
<path d="M76.294 78.5723L67.9229 81.7431C55.8886 86.3014 38.853 69.1992 34.1791 56.8597L34.126 56.7196C28.5535 42.0184 32.8236 26.5786 50.0654 20.1135C67.2011 13.2165 81.9563 21.8155 87.5253 36.518L87.5783 36.6581C92.2522 48.9976 88.3305 74.0091 76.2963 78.5674L76.294 78.5723Z" fill="url(#paint2_linear_446_9134)"/>
<path d="M42.7661 24.1843C31.7664 31.8207 29.512 44.6573 34.1791 56.9789L34.2322 57.119C35.4836 60.4229 37.6189 64.0655 40.3079 67.5436C25.6915 45.1846 37.1627 29.7726 42.7661 24.1843Z" fill="url(#paint3_linear_446_9134)"/>
<path d="M42.7661 24.1843C31.7664 31.8207 29.512 44.6573 34.1791 56.9789L34.2322 57.119C35.4836 60.4229 37.6189 64.0655 40.3079 67.5436C25.6915 45.1846 37.1627 29.7726 42.7661 24.1843Z" fill="#DAD9DB"/>
<path d="M45.1146 22.5924C45.1146 22.5924 45.0902 22.6139 45.0786 22.6264C45.0641 22.6522 45.0539 22.6683 45.0539 22.6683C45.0734 22.6446 45.0951 22.6161 45.1146 22.5924Z" fill="url(#paint4_linear_446_9134)"/>
<path d="M45.1146 22.5924C45.1146 22.5924 45.0902 22.6139 45.0786 22.6264C45.0641 22.6522 45.0539 22.6683 45.0539 22.6683C45.0734 22.6446 45.0951 22.6161 45.1146 22.5924Z" fill="url(#paint5_linear_446_9134)"/>
<path d="M87.5794 36.7808C82.8525 24.3012 71.5046 16.2308 57.7056 18.2873C85.1249 20.0444 88.4553 49.7828 88.855 57.7007C90.0752 50.2 89.6838 42.3365 87.6311 36.9173L87.5781 36.7772L87.5794 36.7808Z" fill="url(#paint6_linear_446_9134)"/>
<path d="M87.5794 36.7808C82.8525 24.3012 71.5046 16.2308 57.7056 18.2873C84.8172 17.9312 91.1741 42.1621 88.855 57.7007C90.0752 50.2 89.6838 42.3365 87.6311 36.9173L87.5781 36.7772L87.5794 36.7808Z" fill="#DAD9DB"/>
<path opacity="0.17" d="M60.6619 72.3958C61.8915 72.5091 63.1443 72.5315 64.4075 72.4513C64.4075 72.4513 62.9026 72.4464 60.6619 72.3958Z" fill="#424242"/>
<path d="M60.6619 72.3958C61.8915 72.5091 63.1443 72.5315 64.4075 72.4513C64.4075 72.4513 62.9026 72.4464 60.6619 72.3958Z" fill="url(#paint7_linear_446_9134)"/>
<path d="M97.1211 76.022C95.2939 73.8108 92.0526 70.3489 90.4862 68.5769C88.9214 66.755 87.3557 64.9088 86.0682 63.3637C85.353 62.5054 85.1251 61.2858 85.5152 60.3209C86.7573 57.2469 87.7677 53.4312 87.3843 49.6219C86.2766 38.5556 75.1515 26.2162 67.6276 27.4933C60.5708 28.692 63.4785 47.08 67.5145 61.5625C66.7159 61.7089 65.8471 61.5945 64.9546 61.3741C58.3853 48.0852 48.7126 33.2164 42.7761 36.9064C36.2978 40.933 36.1356 57.5477 42.6373 66.5709C45.682 70.793 50.653 73.3246 54.1422 74.6763C55.1768 75.0769 55.932 76.2035 55.9603 77.4165C55.9622 77.4323 55.9604 77.4493 55.9636 77.4687C55.9743 81.9202 56.0265 88.9964 56.0071 91.7099C55.9178 103.172 59.7889 112.362 64.2011 117.734C64.2778 117.828 72.596 127.744 82.8533 127.037C84.8422 126.9 88.06 126.104 91.5887 124.73C95.1677 123.338 97.8072 121.373 99.5568 120.094C108.065 113.89 108.225 101.067 108.224 100.944C107.97 93.9972 104.467 84.9102 97.1211 76.022Z" fill="white"/>
<path opacity="0.8" d="M53.7241 85.4334C53.7672 84.604 52.8512 84.0394 52.3771 84.6091C49.01 88.6645 46.4178 109.846 50.0303 116.272C50.1816 115.956 50.2911 115.475 50.3409 114.783C50.3766 114.281 50.3871 113.669 50.3559 112.925C50.2221 109.58 51.1544 105.124 52.0827 100.539C52.0951 100.485 52.1039 100.432 52.1163 100.378C52.1245 100.4 52.2224 101.048 52.2224 101.048L52.2143 100.789C52.8675 103.543 53.7037 106.314 54.7498 109.076C54.9416 109.582 55.14 110.074 55.3408 110.561C55.3843 110.675 55.4337 110.784 55.4794 110.894C55.6783 111.365 55.8794 111.831 56.0872 112.282C56.1139 112.341 56.1442 112.4 56.1709 112.459C56.3574 112.865 56.5498 113.265 56.7466 113.654C56.7968 113.754 56.847 113.854 56.8959 113.951C57.1085 114.371 57.3256 114.782 57.5436 115.184C57.5933 115.272 57.6417 115.356 57.6865 115.442C57.8778 115.784 58.0699 116.118 58.2642 116.447C58.3176 116.533 58.3673 116.621 58.417 116.709C58.6398 117.08 58.8671 117.442 59.0953 117.795C59.1612 117.893 59.2272 117.991 59.2895 118.091C59.4838 118.387 59.6838 118.677 59.8825 118.963C59.934 119.034 59.9833 119.109 60.0361 119.184C60.2655 119.508 60.498 119.818 60.7341 120.127C60.8163 120.235 60.9006 120.339 60.9828 120.447C61.1877 120.706 61.3913 120.962 61.6007 121.211C61.685 121.315 61.773 121.417 61.8597 121.515C62.0573 121.744 62.2535 121.97 62.4507 122.187C62.5499 122.297 62.6492 122.407 62.752 122.516C62.973 122.753 63.1927 122.986 63.4132 123.21C63.5246 123.32 63.636 123.43 63.7474 123.539C63.9043 123.694 64.0648 123.846 64.2204 123.997C64.3417 124.111 64.4616 124.222 64.5815 124.332C64.8011 124.532 65.0228 124.728 65.2419 124.916C65.3767 125.033 65.5123 125.142 65.6493 125.254C65.7751 125.359 65.8995 125.459 66.0274 125.559C66.246 125.735 66.4655 125.902 66.6885 126.068C66.8201 126.166 66.953 126.267 67.0882 126.364C67.2522 126.483 67.4184 126.596 67.581 126.711C67.6698 126.772 67.7635 126.835 67.8522 126.896C68.172 127.112 68.4928 127.319 68.8166 127.512C68.8638 127.539 68.9125 127.57 68.9611 127.601C69.1516 127.714 69.3421 127.826 69.5313 127.935C69.5736 127.961 69.6146 127.982 69.6555 128.003C70.0311 128.214 70.4111 128.415 70.787 128.606C70.8069 128.614 70.8231 128.625 70.8429 128.634C71.4705 128.946 72.0993 129.23 72.7294 129.484C53.9382 113.211 53.3582 92.2081 53.717 85.4362L53.7241 85.4334Z" fill="#211D1D"/>
<path opacity="0.8" d="M94.1932 68.8235C93.4784 68.9095 93.1485 69.7408 93.7303 70.3335C98.4245 75.1052 111.62 90.8735 108.789 114.979C111.044 110.244 112.271 104.289 110.952 96.9372C110.948 96.9143 110.947 96.89 110.941 96.8635C110.93 96.802 110.918 96.7369 110.905 96.6717C110.88 96.5293 110.845 96.3825 110.818 96.2365C110.766 95.9688 110.714 95.701 110.652 95.4289C110.639 95.3723 110.626 95.3157 110.616 95.2577C110.524 94.8531 110.426 94.4426 110.318 94.0276C110.308 93.9904 110.302 93.9517 110.291 93.9109C109.901 92.428 109.335 90.9219 108.809 89.306C107.677 85.8174 105.846 82.2646 104.567 80.2525C104.66 80.3241 104.756 80.3943 104.849 80.4659C104.849 80.4659 104.846 80.4588 104.845 80.4552C104.89 80.4874 104.931 80.521 104.976 80.5532C105.159 80.6892 97.8796 68.3758 94.2026 68.8159L94.1932 68.8235Z" fill="#211D1D"/>
<path d="M64.6444 49.0202C68.3688 58.853 65.4631 69.07 58.1585 71.8368C50.8539 74.6036 41.9085 68.8755 38.1841 59.0427C34.4597 49.2098 35.3979 38.7854 44.2467 35.4336C53.7276 31.8425 60.9222 39.1824 64.648 49.0188L64.6444 49.0202Z" fill="white"/>
<path d="M85.2587 41.3762C88.9831 51.2091 86.0773 61.4261 78.7727 64.1929C71.4681 66.9597 62.5228 61.2315 58.7983 51.3987C55.0739 41.5659 56.0121 31.1414 64.8609 27.7897C74.3418 24.1986 81.5365 31.5384 85.2622 41.3749L85.2587 41.3762Z" fill="white"/>
<path opacity="0.63" d="M50.3622 64.7945C53.7319 63.5181 55.429 59.7517 54.1526 56.3819C52.8762 53.0121 49.1097 51.3151 45.74 52.5915C42.3702 53.8679 40.6731 57.6343 41.9495 61.0041C43.2259 64.3739 46.9924 66.0709 50.3622 64.7945Z" fill="#FBDBFC"/>
<path opacity="0.63" d="M79.9686 53.1903C83.3384 51.9139 85.0354 48.1475 83.759 44.7777C82.4827 41.4079 78.7162 39.7109 75.3464 40.9873C71.9766 42.2636 70.2796 46.0301 71.556 49.3999C72.8324 52.7697 76.5988 54.4667 79.9686 53.1903Z" fill="#FBDBFC"/>
<path d="M50.6824 50.9824C51.7108 53.6973 50.4686 55.2314 48.6298 55.9279C46.7911 56.6244 45.0598 56.2166 44.0314 53.5016C43.003 50.7866 43.6596 48.0207 45.4947 47.3256C47.3298 46.6305 49.654 48.2674 50.6824 50.9824Z" fill="#2B2B2B"/>
<path d="M50.4749 51.0199C51.4434 53.5769 50.2741 55.0218 48.5467 55.6761C46.8193 56.3304 45.1838 55.9479 44.2153 53.3909C43.2468 50.8339 43.8625 48.2313 45.5935 47.5756C47.3245 46.92 49.5099 48.4616 50.4784 51.0186L50.4749 51.0199Z" fill="#38332F"/>
<path d="M47.7342 51.9266C48.3312 51.7004 48.5442 50.8016 48.2099 49.919C47.8756 49.0364 47.1206 48.5042 46.5236 48.7303C45.9266 48.9565 45.7136 49.8553 46.0479 50.7379C46.3823 51.6205 47.1372 52.1527 47.7342 51.9266Z" fill="#F2F2F2"/>
<path d="M45.1716 53.5419C45.4506 53.7688 45.7691 54.1327 46.0744 54.7111C46.2997 55.1432 46.0972 55.6059 45.7576 55.4142C45.4181 55.2225 45.0476 54.8947 44.7313 54.2548C44.4693 53.7258 44.7782 53.2187 45.1703 53.5383L45.1716 53.5419Z" fill="#777777"/>
<path d="M70.9154 43.3187C71.9438 46.0337 73.8906 46.3598 75.7293 45.6634C77.5681 44.9669 78.5948 43.5144 77.5664 40.7994C76.5381 38.0845 74.2138 36.4475 72.3787 37.1426C70.5436 37.8377 69.8871 40.6037 70.9154 43.3187Z" fill="#2B2B2B"/>
<path d="M71.0959 43.2094C72.0644 45.7663 73.8974 46.074 75.6248 45.4197C77.3522 44.7654 78.3239 43.3954 77.3554 40.8384C76.3869 38.2814 74.2014 36.7398 72.4704 37.3954C70.7395 38.0511 70.1237 40.6538 71.0923 43.2107L71.0959 43.2094Z" fill="#38332F"/>
<path d="M73.7494 42.0729C74.3464 41.8467 74.5593 40.9479 74.225 40.0653C73.8907 39.1827 73.1357 38.6505 72.5387 38.8767C71.9417 39.1028 71.7288 40.0016 72.0631 40.8842C72.3974 41.7668 73.1524 42.299 73.7494 42.0729Z" fill="#F2F2F2"/>
<path d="M76.7354 41.5867C76.6768 41.9415 76.6793 42.4251 76.8337 43.0606C76.9513 43.5335 77.4095 43.7459 77.5368 43.3774C77.6642 43.0089 77.7246 42.5178 77.5376 41.829C77.3833 41.2591 76.816 41.0839 76.734 41.5831L76.7354 41.5867Z" fill="#777777"/>
<path d="M66.0248 60.2419C65.7555 60.3439 65.4625 60.3728 65.1774 60.3247C63.0313 59.9713 59.253 59.2548 58.0525 58.4488C57.7214 58.2252 57.4761 57.8376 57.4054 57.4127C57.3376 57.0277 57.4164 56.6611 57.6191 56.3831C58.1561 55.6541 59.1946 55.1868 60.2397 54.791C60.6922 54.6196 61.1896 54.4476 61.7122 54.2661C62.2936 54.0664 62.8952 53.855 63.5165 53.6196C64.1377 53.3843 64.7271 53.1406 65.2962 52.9085C65.8079 52.6983 66.2945 52.4976 66.747 52.3262C67.7921 51.9303 68.8796 51.5923 69.7647 51.7827C70.1043 51.8553 70.4026 52.079 70.6069 52.4123C70.8319 52.7788 70.9085 53.2302 70.8086 53.6171C70.4447 55.0198 68.0878 58.0561 66.7144 59.7425C66.5327 59.9674 66.2941 60.1399 66.0284 60.2405L66.0248 60.2419Z" fill="#3B353F"/>
<path d="M58.4343 57.8853C58.087 57.6514 57.9512 57.0868 58.1664 56.7877C58.9141 55.7694 61.2122 55.2233 63.7548 54.2603C66.2974 53.2972 68.3806 52.1837 69.6153 52.4511C69.9769 52.5277 70.2469 53.0455 70.1417 53.4508C69.796 54.7931 67.144 58.1343 66.1793 59.3169C65.964 59.5832 65.6264 59.7111 65.2887 59.6542C63.7812 59.4039 59.5812 58.6582 58.4343 57.8853Z" fill="#EDBEBE"/>
<path d="M58.4342 57.8851C59.5825 58.6616 63.7825 59.4073 65.2886 59.6541C65.6263 59.7109 65.9639 59.5831 66.1792 59.3167C67.1426 58.1305 69.7946 54.7894 70.1417 53.4506C70.2207 53.1497 70.0896 52.7928 69.8701 52.5926C68.7405 54.2072 66.9735 58.096 65.4184 58.8041C65.4076 58.8082 65.4045 58.8217 65.3902 58.8272C64.2624 59.3734 58.0459 56.9358 58.0459 56.9358C57.8257 57.2327 58.0797 57.6539 58.427 57.8879L58.4342 57.8851Z" fill="#B25B19"/>
<path d="M64.3969 56.3783C61.3156 57.5454 58.3414 57.6618 56.8427 57.6299C56.3865 57.6179 55.9835 57.3886 55.7615 57.0087C55.5437 56.6395 55.5363 56.1864 55.7418 55.7965C56.0196 55.2724 56.5965 54.9307 57.2671 54.533C57.8216 54.208 58.4447 53.8364 58.8562 53.3726C59.1388 53.0561 59.3581 52.6486 59.59 52.22C60.0787 51.3203 60.6332 50.3013 61.9116 49.8171C63.0788 49.375 64.2405 49.7316 65.2645 50.0501C65.7482 50.1995 66.2035 50.3391 66.5987 50.3742C67.3001 50.4371 67.9591 50.323 68.5444 50.2204C69.2421 50.0998 69.9033 49.9808 70.4933 50.2049C70.9055 50.3609 71.1988 50.7015 71.2802 51.1224C71.3657 51.554 71.2156 51.9928 70.8782 52.3054C69.7781 53.3257 67.4718 55.2054 64.3941 56.3711L64.3969 56.3783Z" fill="#3B353F"/>
<path d="M70.2269 50.9218C70.5824 51.0581 70.6544 51.4867 70.3649 51.7524C69.3773 52.6685 67.1263 54.5314 64.1276 55.6672C61.1289 56.803 58.2085 56.899 56.8618 56.867C56.469 56.8598 56.239 56.4911 56.415 56.1534C56.7763 55.4704 58.466 54.9659 59.4261 53.8795C60.3861 52.7931 60.613 51.1262 62.1824 50.5317C63.6081 49.9917 65.1905 51.0144 66.5298 51.1354C68.1376 51.282 69.4357 50.6219 70.2269 50.9218Z" fill="#E9963E"/>
<path d="M60.7632 53.1594C60.7632 53.1594 61.5819 50.2253 63.7931 51.2603C63.7931 51.2603 61.4211 51.785 60.7632 53.1594Z" fill="#FFE0AE"/>
<path d="M75.6379 114.547C75.6379 114.547 78.9717 115.814 83.7094 111.691L82.8166 115.98C82.8166 115.98 86.751 115.504 89.6476 109.849C89.6476 109.849 90.1032 113.068 90.1947 113.288C90.1947 113.288 94.1883 112.079 93.0618 101.57" stroke="#3B353F" stroke-width="0.760367" stroke-linecap="round" stroke-linejoin="round"/>
<path d="M52.4384 88.3269C50.7558 96.9595 52.0587 102.503 52.0587 102.503" stroke="black" stroke-width="1.08679" stroke-linecap="round" stroke-linejoin="round"/>
<path d="M96.4885 69.7445C102.82 75.3253 105.812 81.7068 105.812 81.7068" stroke="black" stroke-width="0.760367" stroke-linecap="round" stroke-linejoin="round"/>
<path opacity="0.09" d="M34.179 56.9789L34.232 57.1189C34.5013 57.83 34.8139 58.5575 35.1597 59.2971C36.9657 63.122 39.7849 67.2365 43.156 70.9326C46.9767 71.9452 55.6584 72.2828 60.6618 72.3957C45.9561 71.0505 34.179 56.9789 34.179 56.9789Z" fill="url(#paint8_linear_446_9134)"/>
<path opacity="0.12" d="M98.6808 79.164C100.893 88.7978 103.753 100.773 101.193 109.073C97.7548 120.226 90.2452 122.972 74.7956 130.45C77.6985 131.067 80.5814 131.187 83.2245 130.999C85.7962 130.817 88.184 129.781 90.195 128.174C90.9756 128.272 91.8575 128.172 92.7338 127.84C93.6568 127.491 94.415 126.945 94.9388 126.311C97.7118 126.119 100.324 124.961 102.404 123.089C108.456 117.635 114.669 108.485 110.645 95.1071C110.922 95.9467 111.162 96.7756 111.353 97.5822C111.343 97.545 111.338 97.5099 111.329 97.4762C111.307 97.386 111.285 97.2957 111.265 97.209C111.176 96.8565 111.084 96.5053 110.985 96.1447C110.969 96.0931 110.958 96.0401 110.942 95.9884C110.829 95.5919 110.702 95.1923 110.569 94.7869C110.537 94.6921 110.506 94.5974 110.474 94.5027C110.399 94.2845 110.316 94.0654 110.242 93.8472C110.212 93.7682 110.191 93.6901 110.164 93.6097C109.537 91.8229 108.813 90.1627 107.974 88.6288C107.647 87.9929 107.315 87.367 106.967 86.7515L106.702 86.4742C106.702 86.4742 106.747 86.4857 106.823 86.5021C106.818 86.4877 106.807 86.4711 106.798 86.4581C110.316 88.6534 98.0386 76.352 98.6808 79.164Z" fill="#403947"/>
<path d="M73.5902 72.4101C73.5902 72.4101 72.3999 71.2841 71.4518 70.8301C71.8454 70.373 71.7999 70.0905 71.7999 70.0905C56.9736 74.9425 44.6872 69.3054 44.6872 69.3054C44.4806 69.2153 44.4375 69.2316 44.1572 69.2721C43.9469 69.3024 43.2463 69.4693 42.7442 69.8566C40.7415 71.3995 38.9499 74.3777 38.1033 75.9262C38.0014 76.1127 37.8694 76.1544 37.7962 76.2972C37.6291 76.615 37.5856 76.9231 37.5856 76.9231C54.8159 76.076 63.3741 74.4071 67.6194 72.9305C69.5359 72.2662 71.5917 72.0994 73.5902 72.4101Z" fill="#C60909"/>
<path d="M99.2525 49.7215C99.2525 49.7215 91.8795 49.6192 88.4938 51.0125C88.2308 51.1203 88.2189 51.1864 88.1189 51.3886C88.1189 51.3886 81.9533 64.6431 69.672 71.0319C69.672 71.0319 69.9238 71.1871 70.5719 71.1962L69.8623 73.8221L70.0096 73.6472C71.2927 72.1017 73.5546 70.3867 75.2486 69.2974C81.5476 65.2525 86.8014 61.2996 99.2561 49.7202L99.2525 49.7215Z" fill="#C60909"/>
<path d="M44.3449 70.0386C44.3449 70.0386 58.2016 75.2247 70.8966 71.0773L68.9177 71.9131C68.9177 71.9131 60.4431 75.7759 40.3303 75.366C40.3303 75.366 42.0078 70.7637 44.3499 70.0409L44.3449 70.0386Z" fill="url(#paint9_linear_446_9134)"/>
<path d="M88.3054 53.3877C88.3054 53.3877 81.3616 66.4524 69.1046 71.7562L71.1407 71.0712C71.1407 71.0712 79.7153 66.616 94.513 52.9829C94.513 52.9829 90.54 52.3811 88.3054 53.3877Z" fill="url(#paint10_linear_446_9134)"/>
<path d="M97.2316 33.2727C97.0528 33.0283 96.8745 32.7961 96.7025 32.5697C95.1582 30.5634 92.7743 27.7172 92.7362 33.6121C92.7061 38.2269 91.5315 43.7556 90.1836 50.5942C88.8773 55.4501 88.0774 58.8781 87.9131 62.0654C87.8919 62.443 86.6042 63.2716 87.1654 64.5907C87.3049 64.9157 89.8769 67.662 90.5528 68.449C92.1066 70.2094 95.2217 73.7067 97.0349 75.9027C97.0949 75.9744 97.1464 76.0452 97.2064 76.117C98.4385 73.8188 100.221 69.6243 101.8 62.6038C102.194 60.8694 102.627 58.6727 102.989 56.5604C104.848 45.9432 100.694 37.9483 97.2338 33.2677L97.2316 33.2727Z" fill="url(#paint11_linear_446_9134)"/>
<path opacity="0.8" d="M98.1777 73.7699C99.1831 71.5781 100.598 68.0073 101.832 62.5139C102.229 60.7781 102.605 58.8536 102.967 56.7412C104.827 46.1155 100.794 38.0051 97.3307 33.3174C97.1519 33.073 96.7103 32.5792 96.5347 32.3541C95.7642 31.3606 94.9159 30.3679 94.0782 30.1185C107.379 47.8222 98.18 73.7649 98.18 73.7649L98.1777 73.7699Z" fill="#211D1D"/>
<path d="M92.7363 33.6121C92.7062 38.2269 91.5316 43.7556 90.1837 50.5942C88.8775 55.4501 88.2824 56.427 88.1181 59.6142C89.6866 53.4558 93.6972 39.1738 94.3554 34.5798C94.6041 32.8513 94.9869 31.7371 95.4017 31.0215C94.0884 29.6793 92.7636 29.2283 92.735 33.6085L92.7363 33.6121Z" fill="#DAD9DB"/>
<path opacity="0.09" d="M87.5701 36.7557L87.6231 36.8958C87.8925 37.6069 88.1403 38.3589 88.3713 39.142C89.5524 43.2036 90.1666 48.1533 90.09 53.1552C87.899 56.445 80.2177 63.7032 76.5424 67.1075C86.6667 56.3573 87.5714 36.7593 87.5714 36.7593L87.5701 36.7557Z" fill="url(#paint12_linear_446_9134)"/>
<defs>
<linearGradient id="paint0_linear_446_9134" x1="45.2261" y1="6.60056" x2="80.7857" y2="96.6108" gradientUnits="userSpaceOnUse">
<stop stop-color="#726D6D"/>
<stop offset="0.08" stop-color="#666161"/>
<stop offset="0.27" stop-color="#4F4C4C"/>
<stop offset="0.47" stop-color="#3F3D3D"/>
<stop offset="0.69" stop-color="#353434"/>
<stop offset="1" stop-color="#333232"/>
</linearGradient>
<linearGradient id="paint1_linear_446_9134" x1="20.9614" y1="16.1858" x2="56.526" y2="106.198" gradientUnits="userSpaceOnUse">
<stop stop-color="#726D6D"/>
<stop offset="0.08" stop-color="#666161"/>
<stop offset="0.27" stop-color="#4F4C4C"/>
<stop offset="0.47" stop-color="#3F3D3D"/>
<stop offset="0.69" stop-color="#353434"/>
<stop offset="1" stop-color="#333232"/>
</linearGradient>
<linearGradient id="paint2_linear_446_9134" x1="42.5414" y1="-0.542062" x2="77.7132" y2="90.19" gradientUnits="userSpaceOnUse">
<stop stop-color="#726D6D"/>
<stop offset="0.08" stop-color="#666161"/>
<stop offset="0.27" stop-color="#4F4C4C"/>
<stop offset="0.47" stop-color="#3F3D3D"/>
<stop offset="0.69" stop-color="#353434"/>
<stop offset="1" stop-color="#333232"/>
</linearGradient>
<linearGradient id="paint3_linear_446_9134" x1="30.1105" y1="19.4263" x2="54.5661" y2="81.3244" gradientUnits="userSpaceOnUse">
<stop stop-color="#726D6D"/>
<stop offset="0.08" stop-color="#666161"/>
<stop offset="0.27" stop-color="#4F4C4C"/>
<stop offset="0.47" stop-color="#3F3D3D"/>
<stop offset="0.69" stop-color="#353434"/>
<stop offset="1" stop-color="#333232"/>
</linearGradient>
<linearGradient id="paint4_linear_446_9134" x1="43.2137" y1="17.8958" x2="45.5294" y2="23.7519" gradientUnits="userSpaceOnUse">
<stop stop-color="#726D6D"/>
<stop offset="0.08" stop-color="#666161"/>
<stop offset="0.27" stop-color="#4F4C4C"/>
<stop offset="0.47" stop-color="#3F3D3D"/>
<stop offset="0.69" stop-color="#353434"/>
<stop offset="1" stop-color="#333232"/>
</linearGradient>
<linearGradient id="paint5_linear_446_9134" x1="39.6883" y1="8.97476" x2="74.8713" y2="98.0206" gradientUnits="userSpaceOnUse">
<stop stop-color="#726D6D"/>
<stop offset="0.08" stop-color="#666161"/>
<stop offset="0.27" stop-color="#4F4C4C"/>
<stop offset="0.47" stop-color="#3F3D3D"/>
<stop offset="0.69" stop-color="#353434"/>
<stop offset="1" stop-color="#333232"/>
</linearGradient>
<linearGradient id="paint6_linear_446_9134" x1="61.7958" y1="0.073919" x2="97.3472" y2="90.0626" gradientUnits="userSpaceOnUse">
<stop stop-color="#726D6D"/>
<stop offset="0.08" stop-color="#666161"/>
<stop offset="0.27" stop-color="#4F4C4C"/>
<stop offset="0.47" stop-color="#3F3D3D"/>
<stop offset="0.69" stop-color="#353434"/>
<stop offset="1" stop-color="#333232"/>
</linearGradient>
<linearGradient id="paint7_linear_446_9134" x1="37.7108" y1="9.5912" x2="73.2658" y2="99.5784" gradientUnits="userSpaceOnUse">
<stop stop-color="#726D6D"/>
<stop offset="0.08" stop-color="#666161"/>
<stop offset="0.27" stop-color="#4F4C4C"/>
<stop offset="0.47" stop-color="#3F3D3D"/>
<stop offset="0.69" stop-color="#353434"/>
<stop offset="1" stop-color="#333232"/>
</linearGradient>
<linearGradient id="paint8_linear_446_9134" x1="27.2764" y1="13.7116" x2="62.8314" y2="103.699" gradientUnits="userSpaceOnUse">
<stop stop-color="#726D6D"/>
<stop offset="0.08" stop-color="#666161"/>
<stop offset="0.27" stop-color="#4F4C4C"/>
<stop offset="0.47" stop-color="#3F3D3D"/>
<stop offset="0.69" stop-color="#353434"/>
<stop offset="1" stop-color="#333232"/>
</linearGradient>
<linearGradient id="paint9_linear_446_9134" x1="44.3801" y1="75.3679" x2="63.3315" y2="68.592" gradientUnits="userSpaceOnUse">
<stop stop-color="#C60909"/>
<stop offset="0.55" stop-color="#F91E2F"/>
<stop offset="1" stop-color="#C60909"/>
</linearGradient>
<linearGradient id="paint10_linear_446_9134" x1="94.7198" y1="56.0008" x2="74.8878" y2="64.2354" gradientUnits="userSpaceOnUse">
<stop stop-color="#C60909"/>
<stop offset="0.55" stop-color="#F91E2F"/>
<stop offset="1" stop-color="#C60909"/>
</linearGradient>
<linearGradient id="paint11_linear_446_9134" x1="71.9195" y1="-3.94544" x2="107.483" y2="86.0634" gradientUnits="userSpaceOnUse">
<stop stop-color="#726D6D"/>
<stop offset="0.08" stop-color="#666161"/>
<stop offset="0.27" stop-color="#4F4C4C"/>
<stop offset="0.47" stop-color="#3F3D3D"/>
<stop offset="0.69" stop-color="#353434"/>
<stop offset="1" stop-color="#333232"/>
</linearGradient>
<linearGradient id="paint12_linear_446_9134" x1="62.8254" y1="-1.10027" x2="96.7765" y2="92.5128" gradientUnits="userSpaceOnUse">
<stop stop-color="#726D6D"/>
<stop offset="0.08" stop-color="#666161"/>
<stop offset="0.27" stop-color="#4F4C4C"/>
<stop offset="0.47" stop-color="#3F3D3D"/>
<stop offset="0.69" stop-color="#353434"/>
<stop offset="1" stop-color="#333232"/>
</linearGradient>
</defs>
</svg>
