<?xml version="1.0" encoding="utf-8"?>
<!-- Generator: Adobe Illustrator 27.5.0, SVG Export Plug-In . SVG Version: 6.00 Build 0)  -->
<svg version="1.1" id="Layer_1" xmlns="http://www.w3.org/2000/svg" xmlns:xlink="http://www.w3.org/1999/xlink" x="0px" y="0px"
	 viewBox="0 0 72.5 72.6" style="enable-background:new 0 0 72.5 72.6;" xml:space="preserve">
<style type="text/css">
	.st0{display:none;}
	.st1{display:inline;fill:#F8C839;}
	.st2{display:inline;fill:#FEEDB8;}
	.st3{display:inline;fill:#FDD45F;}
	.st4{display:inline;fill:#FFFFFF;}
	.st5{fill:#F8C839;}
	.st6{fill:#FEEDB8;}
	.st7{fill:#FDD45F;}
	.st8{fill:#FFFFFF;}
	.st9{fill:#962363;}
	.st10{fill:#F7B900;stroke:#E2A100;stroke-width:1.81;stroke-miterlimit:10;}
	.st11{opacity:0.29;fill:#F8EDC2;enable-background:new    ;}
	.st12{opacity:0.26;fill:#F8EDC2;enable-background:new    ;}
	.st13{opacity:0.79;fill:url(#SVGID_1_);enable-background:new    ;}
	.st14{opacity:0.79;fill:url(#SVGID_00000079472174149938011040000004516031830872668576_);enable-background:new    ;}
</style>
<g class="st0">
	<path class="st1" d="M36.3,72.2c-15,0-28.5-9.5-33.5-23.7c-1.4-3.9-2.1-7.8-2.1-11.8s0.6-7.7,1.9-11.5l0.1-0.3
		c5-14.2,18.5-23.7,33.5-23.7c3.9,0,7.8,0.7,11.6,2c2.7,0.9,5.3,2.2,7.8,3.8c10.1,6.6,16.2,17.7,16.2,29.7c0,1.1-0.1,2.3-0.2,3.5
		C69.9,58.4,54.7,72.2,36.3,72.2L36.3,72.2L36.3,72.2z"/>
	<path class="st2" d="M36.3,70.3c-14.2,0-27-9-31.7-22.5c-1.3-3.7-1.9-7.4-1.9-11.2s0.6-7.3,1.8-10.9l0.1-0.2C9.3,12,22,3,36.3,3
		c3.7,0,7.4,0.6,11,1.9c2.6,0.9,5,2.1,7.4,3.6C64.2,14.7,70,25.2,70,36.6c0,1.1-0.1,2.1-0.2,3.3C68.1,57.2,53.7,70.3,36.3,70.3
		L36.3,70.3L36.3,70.3z"/>
	<path class="st3" d="M53.6,10c-2.1-1.4-4.5-2.6-6.9-3.4C43.4,5.4,40,4.8,36.3,4.8c-13.9,0-25.7,8.9-30,21.3c0,0.1-0.1,0.2-0.1,0.3
		C5.1,29.6,4.4,33,4.4,36.6c0,3.6,0.7,7.3,1.8,10.6c4.4,12.4,16.1,21.2,30,21.2c16.5,0,30.1-12.6,31.7-28.7c0.1-1,0.1-2.1,0.1-3.1
		C68.1,25.5,62.3,15.6,53.6,10L53.6,10L53.6,10z"/>
	<path class="st4" d="M23,10.4c-1.2-0.3-3.6,1.1-3.7,2c-0.1,1.1,1.4,1,3.1,0.1C23.8,11.9,23.8,10.6,23,10.4z"/>
	<path class="st4" d="M17.3,13.9c-0.9,0.1-1.5,0.8-1.3,1.4c0.2,0.8,1.1,0.6,1.7,0C18.4,14.5,17.9,13.9,17.3,13.9L17.3,13.9z"/>
</g>
<g>
	<g id="Layer_2-2_00000139265219315669120430000006267945191902576278_">
		<g id="Layer_2-2">
			<path class="st5" d="M36,72.6c-15.2,0-28.9-9.7-33.9-24C0.7,44.6,0,40.6,0,36.5s0.7-7.8,2-11.6l0.1-0.3C7.2,10.2,20.8,0.5,36,0.5
				c4,0,7.9,0.7,11.7,2c2.7,0.9,5.4,2.2,7.9,3.9C65.9,13.1,72,24.3,72,36.5c0,1.1-0.1,2.3-0.2,3.5C70.1,58.6,54.6,72.6,36,72.6
				C36,72.6,36,72.6,36,72.6z"/>
			<path class="st6" d="M36,70.7c-14.4,0-27.4-9.2-32.2-22.8c-1.3-3.7-2-7.5-2-11.4s0.6-7.4,1.8-11l0.1-0.2
				C8.6,11.6,21.6,2.4,36,2.4c3.8,0,7.5,0.6,11.1,1.9c2.6,0.9,5.1,2.1,7.5,3.7c9.7,6.3,15.6,17,15.6,28.6c0,1.1-0.1,2.2-0.2,3.3
				C68.3,57.4,53.7,70.7,36,70.7L36,70.7C36,70.7,36,70.7,36,70.7L36,70.7L36,70.7z"/>
			<path class="st7" d="M53.6,9.5c-2.2-1.4-4.6-2.6-7-3.5c-3.3-1.1-6.8-1.8-10.5-1.8c-14.1,0-26,9-30.4,21.6c0,0.1-0.1,0.2-0.1,0.3
				c-1.1,3.3-1.8,6.8-1.8,10.4c0,3.6,0.7,7.4,1.9,10.7C10,59.8,22,68.8,36,68.8c16.8,0,30.5-12.8,32.1-29.1c0.1-1,0.2-2.1,0.2-3.1
				C68.3,25.2,62.4,15.3,53.6,9.5C53.6,9.5,53.6,9.5,53.6,9.5z"/>
			<path class="st8" d="M22.6,10c-1.3-0.3-3.6,1.1-3.7,2c-0.1,1.2,1.5,1,3.2,0.1C23.4,11.5,23.4,10.2,22.6,10L22.6,10L22.6,10z"/>
			<path class="st8" d="M16.8,13.5c-0.9,0.1-1.5,0.8-1.4,1.4c0.2,0.8,1.1,0.6,1.7,0C17.9,14.1,17.4,13.4,16.8,13.5L16.8,13.5
				L16.8,13.5L16.8,13.5z"/>
			<path class="st9" d="M50,61.2c-0.4,0-0.7,0-1-0.1l-0.4-0.1l-13.1-7.1l-13.2,6.7c-0.5,0.2-1,0.4-1.5,0.4c-1,0-1.9-0.4-2.5-1.2
				c-0.6-0.8-0.9-1.7-0.7-2.7l2.7-14.5L10.1,32c-0.9-0.9-1.2-2.2-0.8-3.4c0.4-1.2,1.4-2,2.7-2.2l14.6-1.9l6.7-13.1
				c0.6-1.1,1.7-1.8,2.9-1.8c1.3,0,2.4,0.7,3,1.9l6.3,13.3l14.6,2.3c1.3,0.2,2.3,1.1,2.6,2.3c0.4,1.2,0,2.5-0.9,3.4L51.2,42.9
				l2.3,14.6c0.1,1-0.1,1.9-0.8,2.7c-0.3,0.4-0.7,0.6-1.3,0.9C51,61.1,50.6,61.2,50,61.2z"/>
			<path class="st10" d="M49.4,59.4L35.8,52c0,0-0.1,0-0.1,0c0,0-0.1,0-0.1,0l-13.8,7c-0.2,0.1-0.5,0.2-0.8,0.2
				c-0.5,0-1-0.2-1.3-0.6c-0.3-0.4-0.4-0.9-0.4-1.4L22.2,42c0-0.1,0-0.1-0.1-0.2l-10.9-11c-0.5-0.5-0.6-1.1-0.4-1.7
				c0.2-0.6,0.7-1,1.4-1.1l15.4-2c0.1,0,0.1-0.1,0.2-0.1l7.1-13.8c0.3-0.6,0.9-0.9,1.5-0.9s1.2,0.4,1.5,1l6.7,14
				c0,0.1,0.1,0.1,0.2,0.1l15.3,2.4c0.6,0.1,1.1,0.5,1.3,1.2c0.2,0.6,0,1.3-0.4,1.7L49.6,42.2c-0.1,0.1-0.1,0.1-0.1,0.2l2.4,15.3
				c0.1,0.5-0.1,1-0.4,1.3c-0.1,0.2-0.4,0.3-0.7,0.4c-0.4,0.2-1.1,0.1-1.1,0.1L49.4,59.4z"/>
			
				<image style="overflow:visible;enable-background:new    ;" width="515" height="516" xlink:href="E238E5BA700E82C2.png"  transform="matrix(0.1384 0 0 0.1384 1.1803 0.2763)">
			</image>
			
				<image style="overflow:visible;enable-background:new    ;" width="516" height="518" xlink:href="E238E5BA700E82C5.png"  transform="matrix(0.1387 0 0 0.1387 0.9735 0)">
			</image>
			<path class="st11" d="M49,28l-4.8-0.8c-0.3-0.1-0.6-0.2-0.7-0.5l-6.4-13.9c-0.3-0.7-1.3-0.7-1.6,0l-6.8,13.7
				c-0.1,0.3-0.4,0.5-0.7,0.5l-14.8,2c-0.8,0.1-1.1,1-0.5,1.6l10.3,9.8C31.1,39.4,41.8,36,49,28L49,28L49,28z"/>
			<path class="st12" d="M48.6,41.8l10.9-10.6c0.6-0.5,0.3-1.5-0.5-1.6l-10-1.6l-4.9-0.8c-0.3,0-0.6-0.2-0.7-0.5l-6.5-13.9
				c-0.3-0.7-1.3-0.7-1.6,0l-6.8,13.7c-0.1,0.3-0.4,0.5-0.7,0.5l-9.4,1.3C27.4,38.4,39,49.4,49.8,52l-1.4-9.3
				C48.3,42.3,48.4,42,48.6,41.8L48.6,41.8L48.6,41.8z"/>
			
				<linearGradient id="SVGID_1_" gradientUnits="userSpaceOnUse" x1="605.1012" y1="46.1963" x2="600.0408" y2="34.4635" gradientTransform="matrix(0.7094 0.7048 -0.7048 0.7094 -366.3818 -430.057)">
				<stop  offset="9.000000e-02" style="stop-color:#FFFFFF"/>
				<stop  offset="1" style="stop-color:#FFFFFF;stop-opacity:0.1"/>
			</linearGradient>
			<path class="st13" d="M34.2,22.6c-0.6,1.2-2.2,3.8-2.8,3.6c-0.6-0.3,0.1-3.4,0.7-4.6c0.6-1.2,1.5-1.9,2.1-1.6
				C34.7,20.2,34.8,21.4,34.2,22.6z"/>
			
				<linearGradient id="SVGID_00000152247513500197143840000008785823785742884017_" gradientUnits="userSpaceOnUse" x1="-27.218" y1="1402.6576" x2="-36.9819" y2="1395.2599" gradientTransform="matrix(1 0 0 1 84 -1368.75)">
				<stop  offset="0.23" style="stop-color:#FFFFFF"/>
				<stop  offset="1" style="stop-color:#FFFFFF;stop-opacity:0.1"/>
			</linearGradient>
			
				<path style="opacity:0.79;fill:url(#SVGID_00000152247513500197143840000008785823785742884017_);enable-background:new    ;" d="
				M52.2,29.5c2.1,0.4,3.8,0.5,3.6,1.2c-0.1,0.6-1.9,0.8-4,0.5s-4.8-0.6-3.6-1.8C48.7,28.8,50.1,29.1,52.2,29.5z"/>
		</g>
	</g>
</g>
</svg>
