<svg width="143" height="76" viewBox="0 0 143 76" fill="none" xmlns="http://www.w3.org/2000/svg">
<path d="M142.017 50.3584C144.407 43.2784 140.597 35.6084 133.517 33.2184C126.437 30.8284 118.767 34.6384 116.377 41.7184C113.987 48.7984 117.797 56.4684 124.877 58.8584C131.957 61.2484 139.627 57.4384 142.017 50.3584Z" fill="#C13A2A"/>
<path d="M135.627 48.0489C135.757 48.2089 135.667 48.449 135.477 48.489L124.187 50.9789C123.977 51.0189 123.797 50.8289 123.867 50.6189L127.877 39.1489C127.957 38.9389 128.207 38.899 128.357 39.059L135.637 48.0289L135.627 48.0489Z" fill="white"/>
<path d="M142.017 50.3584C144.407 43.2784 140.597 35.6084 133.517 33.2184C126.437 30.8284 118.767 34.6384 116.377 41.7184C113.987 48.7984 117.797 56.4684 124.877 58.8584C131.957 61.2484 139.627 57.4384 142.017 50.3584Z" fill="#C13A2A"/>
<path d="M135.627 48.0489C135.757 48.2089 135.667 48.449 135.477 48.489L124.187 50.9789C123.977 51.0189 123.797 50.8289 123.867 50.6189L127.877 39.1489C127.957 38.9389 128.207 38.899 128.357 39.059L135.637 48.0289L135.627 48.0489Z" fill="white"/>
<path d="M32.3925 34.0533C30.7478 26.764 23.5021 22.1983 16.2129 23.8431C8.92361 25.4878 4.35792 32.7335 6.00268 40.0228C7.64743 47.312 14.8931 51.8777 22.1824 50.233C29.4716 48.5882 34.0373 41.3425 32.3925 34.0533Z" fill="#C13A2A"/>
<path d="M25.7344 35.4075C25.9287 35.4764 25.9767 35.7282 25.8353 35.8612L17.4917 43.8642C17.3332 44.0077 17.0806 43.9391 17.031 43.7234L14.4843 31.8425C14.4433 31.6216 14.636 31.4573 14.8473 31.5158L25.7325 35.3852L25.7344 35.4075Z" fill="white"/>
<path d="M59.7917 64.5399L97.7586 55.2116C99.103 54.8768 99.9297 53.5285 99.5949 52.1841L93.6366 27.933L50.7899 38.4622L56.7482 62.7134C57.0781 64.0497 58.4393 64.8796 59.7756 64.5497L59.7836 64.5448L59.7917 64.5399Z" fill="url(#paint0_linear_2193_28398)"/>
<path d="M49.4277 36.204L93.8132 25.2987L94.9497 29.9102L50.5642 40.8156L49.4277 36.204Z" fill="url(#paint1_linear_2193_28398)"/>
<path d="M71.9534 35.5665L67.5972 36.6354L63.9694 32.6391L68.3256 31.5701L71.9534 35.5665ZM89.1306 31.3532L84.7745 32.4222L81.1467 28.4259L85.5029 27.3569L89.1306 31.3532ZM80.5549 33.463L76.1987 34.5319L72.571 30.5356L76.9271 29.4667L80.5549 33.463ZM63.3776 37.6762L59.0214 38.7452L55.3937 34.7489L59.7498 33.6799L63.3776 37.6762ZM51.1563 35.7785L54.7841 39.7748L50.5725 40.8107L49.436 36.1992L51.1483 35.7834L51.1563 35.7785ZM94.9629 29.9133L93.3663 30.3027L89.7385 26.3064L93.8264 25.3018L94.9629 29.9133Z" fill="black"/>
<path d="M48.1351 20.4345L93.8361 20.5533L93.8184 25.307L48.1174 25.1882L48.1351 20.4345Z" fill="url(#paint2_linear_2193_28398)"/>
<path d="M67.5711 25.2229L63.0909 25.2035L65.6679 20.4519L70.1562 20.4664L67.5711 25.2229ZM85.2537 25.2695L80.7655 25.255L83.3426 20.5034L87.8308 20.5179L85.2537 25.2695ZM76.4124 25.2462L71.9242 25.2317L74.5012 20.4801L78.9895 20.4946L76.4124 25.2462ZM58.7298 25.1995L54.2415 25.1851L56.8186 20.4335L61.3069 20.4479L58.7298 25.1995ZM48.1286 25.1708L48.1414 20.4092L52.4816 20.4149L49.9045 25.1665L48.1366 25.166L48.1286 25.1708ZM93.8296 25.2896L89.6148 25.2735L92.1919 20.5219L93.8344 20.5328L93.8167 25.2865L93.8296 25.2896Z" fill="black"/>
<path d="M60.667 58.8129L95.3588 50.2911L93.8082 43.9883L59.1164 52.51L60.667 58.8129ZM95.0714 50.1256L60.8374 58.5336L59.4086 52.6836L93.6427 44.2756L95.0714 50.1256Z" fill="url(#paint3_linear_2193_28398)"/>
<path d="M57.1538 44.0318L91.5275 35.5827L91.5804 35.814L57.2067 44.2631L57.1538 44.0318Z" fill="url(#paint4_linear_2193_28398)"/>
<path d="M73.9688 40.0166L74.2001 39.9637L76.2754 48.4287L76.0441 48.4816L73.9639 40.0086L73.9688 40.0166Z" fill="url(#paint5_linear_2193_28398)"/>
<path d="M91.8449 23.1824C91.9242 23.5294 92.2826 23.7395 92.6216 23.6651C92.9637 23.5777 93.1787 23.2273 93.0914 22.8852C93.0121 22.5382 92.6537 22.3281 92.3196 22.4106C91.9726 22.4899 91.7624 22.8483 91.8498 23.1904L91.8449 23.1824Z" fill="url(#paint6_linear_2193_28398)"/>
<path d="M93.2398 28.5792C92.8928 28.6586 92.5473 28.4515 92.468 28.1046C92.3838 27.7496 92.5957 27.4121 92.9378 27.3247C93.2848 27.2454 93.6303 27.4524 93.7096 27.7994C93.789 28.1464 93.5819 28.4919 93.2398 28.5792Z" fill="url(#paint7_linear_2193_28398)"/>
<defs>
<linearGradient id="paint0_linear_2193_28398" x1="78.9855" y1="60.7359" x2="73.0387" y2="36.5216" gradientUnits="userSpaceOnUse">
<stop stop-color="#0B0B0B"/>
<stop offset="1" stop-color="#0E0E0E"/>
</linearGradient>
<linearGradient id="paint1_linear_2193_28398" x1="54.6452" y1="13.8827" x2="85.1394" y2="47.2084" gradientUnits="userSpaceOnUse">
<stop stop-color="#E6E6E6"/>
<stop offset="0.53" stop-color="#E5E5E6"/>
<stop offset="0.6" stop-color="#C4C4C4"/>
<stop offset="0.74" stop-color="#8B8B8C"/>
<stop offset="0.85" stop-color="#626262"/>
<stop offset="0.94" stop-color="#494949"/>
<stop offset="1" stop-color="#404040"/>
</linearGradient>
<linearGradient id="paint2_linear_2193_28398" x1="58.4378" y1="45.655" x2="80.2127" y2="6.08122" gradientUnits="userSpaceOnUse">
<stop stop-color="#E6E6E6"/>
<stop offset="0.53" stop-color="#E5E5E6"/>
<stop offset="0.6" stop-color="#C4C4C4"/>
<stop offset="0.74" stop-color="#8B8B8C"/>
<stop offset="0.85" stop-color="#626262"/>
<stop offset="0.94" stop-color="#494949"/>
<stop offset="1" stop-color="#404040"/>
</linearGradient>
<linearGradient id="paint3_linear_2193_28398" x1="78.9729" y1="58.4584" x2="70.6707" y2="24.6871" gradientUnits="userSpaceOnUse">
<stop stop-color="#E6E6E6"/>
<stop offset="0.53" stop-color="#E5E5E6"/>
<stop offset="0.6" stop-color="#C4C4C4"/>
<stop offset="0.74" stop-color="#8B8B8C"/>
<stop offset="0.85" stop-color="#626262"/>
<stop offset="0.94" stop-color="#494949"/>
<stop offset="1" stop-color="#404040"/>
</linearGradient>
<linearGradient id="paint4_linear_2193_28398" x1="78.9233" y1="58.4671" x2="70.6371" y2="24.6859" gradientUnits="userSpaceOnUse">
<stop stop-color="#E6E6E6"/>
<stop offset="0.53" stop-color="#E5E5E6"/>
<stop offset="0.6" stop-color="#C4C4C4"/>
<stop offset="0.74" stop-color="#8B8B8C"/>
<stop offset="0.85" stop-color="#626262"/>
<stop offset="0.94" stop-color="#494949"/>
<stop offset="1" stop-color="#404040"/>
</linearGradient>
<linearGradient id="paint5_linear_2193_28398" x1="78.6391" y1="58.5408" x2="70.34" y2="24.7565" gradientUnits="userSpaceOnUse">
<stop stop-color="#E6E6E6"/>
<stop offset="0.53" stop-color="#E5E5E6"/>
<stop offset="0.6" stop-color="#C4C4C4"/>
<stop offset="0.74" stop-color="#8B8B8C"/>
<stop offset="0.85" stop-color="#626262"/>
<stop offset="0.94" stop-color="#494949"/>
<stop offset="1" stop-color="#404040"/>
</linearGradient>
<linearGradient id="paint6_linear_2193_28398" x1="91.1374" y1="21.6585" x2="96.991" y2="27.6713" gradientUnits="userSpaceOnUse">
<stop stop-color="#E6E6E6"/>
<stop offset="0.53" stop-color="#E5E5E6"/>
<stop offset="0.6" stop-color="#C4C4C4"/>
<stop offset="0.74" stop-color="#8B8B8C"/>
<stop offset="0.85" stop-color="#626262"/>
<stop offset="0.94" stop-color="#494949"/>
<stop offset="1" stop-color="#404040"/>
</linearGradient>
<linearGradient id="paint7_linear_2193_28398" x1="91.7606" y1="26.5807" x2="97.6172" y2="32.5806" gradientUnits="userSpaceOnUse">
<stop stop-color="#E6E6E6"/>
<stop offset="0.53" stop-color="#E5E5E6"/>
<stop offset="0.6" stop-color="#C4C4C4"/>
<stop offset="0.74" stop-color="#8B8B8C"/>
<stop offset="0.85" stop-color="#626262"/>
<stop offset="0.94" stop-color="#494949"/>
<stop offset="1" stop-color="#404040"/>
</linearGradient>
</defs>
</svg>
