<svg width="285" height="226" viewBox="0 0 285 226" fill="none" xmlns="http://www.w3.org/2000/svg">
<g filter="url(#filter0_d_1393_13658)">
<path d="M218.703 164.825H62.7031V217.765H218.703V164.825Z" fill="#D9E7F3"/>
<path d="M142.273 190.426H128.613V204.086H142.273V190.426Z" fill="#8CCCDC"/>
<path d="M167.233 190.426H153.573V204.086H167.233V190.426Z" fill="#8CCCDC"/>
<path d="M196.073 190.426H182.413V204.086H196.073V190.426Z" fill="#8CCCDC"/>
<path d="M107.923 197.256C107.923 204.336 102.183 210.076 95.1032 210.076C88.0232 210.076 82.2832 204.336 82.2832 197.256C82.2832 190.176 88.0232 184.436 95.1032 184.436C102.183 184.436 107.923 190.176 107.923 197.256Z" fill="#CDDAE2"/>
<path d="M79.7432 198.705C80.3032 198.565 110.863 189.595 110.863 189.595L82.2932 204.735L79.7532 198.705H79.7432Z" fill="#8CCCDC"/>
<path d="M62.7031 173.825H218.703V183.215L62.7031 178.525V173.825Z" fill="#CDDAE2"/>
<path d="M37.7719 0.205078H243.635C262.911 0.205078 278.561 15.8551 278.561 35.1303V139.29C278.561 158.565 262.911 174.215 243.635 174.215H37.7719C18.4967 174.215 2.84668 158.565 2.84668 139.29V35.1303C2.84668 15.8551 18.4967 0.205078 37.7719 0.205078Z" fill="#D9E7F3"/>
<path d="M52.147 22.7402H229.249C244.617 22.7402 257.091 35.2143 257.091 50.5822V125.907C257.091 141.275 244.617 153.749 229.249 153.749H52.1574C36.7895 153.749 24.3154 141.275 24.3154 125.907V50.5927C24.3154 35.2247 36.7895 22.7507 52.1574 22.7507L52.147 22.7402Z" fill="#3A3E48"/>
<path d="M39.8932 144.638V69.3135C39.8932 53.9351 52.3568 41.4715 67.7351 41.4715H244.837C249.089 41.4715 253.112 42.4222 256.716 44.1251C253.801 31.8705 242.779 22.75 229.637 22.75H52.5344C37.156 22.75 24.6924 35.2136 24.6924 50.592V125.917C24.6924 137.043 31.2219 146.655 40.6663 151.105C40.1752 149.026 39.9036 146.864 39.9036 144.628L39.8932 144.638Z" fill="#363A44"/>
<path d="M12.9277 45.1334C12.9277 27.4474 24.1032 17.5453 40.4478 13.7734" stroke="white" stroke-width="4" stroke-linecap="round"/>
<path d="M264.951 133.472C264.592 151.154 253.218 160.827 236.8 164.266" stroke="white" stroke-width="4" stroke-linecap="round"/>
<path d="M52.8594 12.509C55.4925 12.114 58.075 11.8889 60.7349 11.869C64.1352 11.8436 67.3818 11.2404 70.7794 11.709" stroke="white" stroke-width="4" stroke-linecap="round"/>
</g>
<path d="M71.5215 94.3112C71.5215 99.1544 74.25 103.523 78.6209 106.594H109.316C110.205 105.967 111.031 105.287 111.776 104.561C113.198 103.174 114.338 101.616 115.132 99.9377C114.778 99.884 114.513 99.8258 114.352 99.7721C113.423 99.4677 113.593 97.9279 113.028 95.7481C112.341 93.0714 110.555 89.4278 104.308 85.9007C100.494 83.7477 96.9529 82.6062 93.9417 82.0199C91.5543 81.814 89.7189 81.9438 88.6508 82.0333C87.9418 82.0915 87.0846 81.8945 86.2365 81.5141C85.1953 81.053 84.1632 80.319 83.4092 79.4551C82.7855 79.7057 82.1796 79.9788 81.5917 80.2697C78.6299 81.7379 76.1662 83.7163 74.4115 86.0439C73.5948 87.1271 72.9351 88.2864 72.4504 89.5039C71.8446 91.0303 71.5215 92.6416 71.5215 94.3157V94.3112Z" fill="#A8C4C4"/>
<path d="M175.953 95.0761C175.953 100.13 178.682 104.686 183.053 107.891H213.748C214.637 107.238 215.462 106.53 216.207 105.769C217.63 104.324 220.089 101.575 220.883 99.8207C220.529 99.7625 222.777 95.1298 222.611 95.0761C221.682 94.7583 218.02 98.8449 217.459 96.5711C216.773 93.778 214.991 89.9778 208.74 86.294C204.925 84.047 201.385 82.8563 198.373 82.2431C195.986 82.0283 194.151 82.1625 193.082 82.2565C192.373 82.3192 191.516 82.1133 190.668 81.7149C189.627 81.2315 188.595 80.4661 187.841 79.5664C187.217 79.826 186.611 80.1125 186.023 80.4169C183.062 81.9477 180.598 84.0156 178.843 86.4417C178.026 87.5741 177.367 88.7827 176.882 90.0494C176.276 91.6384 175.953 93.3259 175.953 95.0671V95.0761Z" fill="#4B4B55"/>
<path d="M129.718 64.5183C130.4 62.6921 133.581 64.1513 134.69 65.5702C136.736 68.1932 135.323 69.7151 133.204 71.143C137.252 71.7114 135.637 75.4579 136.548 77.9466C137.504 80.5472 140.847 81.4738 142.628 83.5059C144.917 86.1155 144.45 88.7474 144.029 91.7778C143.441 96.0032 145.824 96.124 149.162 94.535C153.004 92.7088 159.466 89.9336 163.518 91.1332C166.75 92.0911 162.37 102.852 162.033 104.177C158.138 104.373 154.166 104.208 150.257 104.208C148.368 104.208 146.6 104.136 144.783 104.208C143.414 104.262 141.044 104.642 139.761 104.212C136.391 103.093 135.471 96.0703 134.901 93.1295C134.178 89.4189 133.24 85.7887 132.284 82.1631C130.974 77.1991 130.027 71.7338 128.317 67.1324L129.722 64.5273L129.718 64.5183Z" fill="#A8C4C4"/>
<path d="M88.7367 65.0105C89.4188 63.1843 92.6005 64.6435 93.709 66.0624C95.7553 68.6854 94.3417 70.2073 92.2236 71.6351C96.2714 72.2036 94.6559 75.9501 95.5669 78.4388C96.5227 81.0394 99.866 81.966 101.648 83.9981C103.936 86.6077 103.47 89.2396 103.048 92.2699C102.46 96.4954 104.843 96.6162 108.182 95.0272C112.023 93.1965 118.485 90.4258 122.538 91.6254C125.769 92.5833 121.389 103.344 121.052 104.669C117.157 104.866 113.185 104.7 109.277 104.7C107.387 104.7 105.619 104.628 103.802 104.7C102.433 104.754 100.063 105.134 98.78 104.705C95.4098 103.586 94.4898 96.5625 93.9199 93.6217C93.1974 89.911 92.2595 86.2809 91.3036 82.6553C89.9932 77.6913 89.0463 72.226 87.332 67.6246L88.7367 65.0195V65.0105Z" fill="#A8C4C4"/>
<path d="M48.5625 88.8322V96.5266H84.1136V81.751H58.9693C58.9604 82.1135 58.8886 82.5209 58.745 82.9864C57.4435 87.1805 55.7562 88.2368 51.5243 88.6576C50.6044 88.7471 49.5991 88.7919 48.5625 88.8322Z" fill="#A8C4C4"/>
<path d="M161.477 79.4187C162.258 79.5172 163.07 79.8037 164.066 79.741C163.949 77.8029 164.851 76.187 163.676 74.5398C162.859 73.3939 161.086 72.6509 160.184 71.4602C164.237 69.3833 167.728 71.6617 171.511 71.8989L175.954 76.5764C180.15 81.6568 179.598 85.2556 177.435 90.8596C176.003 89.7003 164.214 85.6763 159.771 83.1563C160.332 81.9074 160.902 80.6586 161.481 79.4143L161.477 79.4187Z" fill="#A8C4C4"/>
<path d="M232.983 94.3062L230.205 86.4373L230.236 85.3138C230.236 85.3138 222.737 79.7723 215.701 78.2952C208.664 76.8181 174.72 73.3715 174.72 73.3715C174.72 73.3715 159.439 62.7587 152.833 60.1939C139.622 55.0643 124.891 53.375 101.078 57.4371C88.5156 61.125 85.2272 70.6588 76.7096 72.8745C68.1921 75.0901 53.863 75.5648 50.2101 77.9371C49.5998 78.3355 49.2094 78.6399 48.415 80.1752C49.3126 80.6228 51.2108 81.0525 51.5564 81.0704C54.5676 81.2226 52.786 80.7079 52.6918 83.9844C52.6828 84.3469 52.611 84.7542 52.4674 85.2198C51.166 89.4139 55.7613 88.2322 51.5295 88.6529C50.6095 88.7425 49.6043 88.7872 48.5676 88.8275V89.8749H76.7096L76.7455 89.8346C78.0335 88.5589 79.4964 87.4623 81.0985 86.585C82.0544 86.0613 83.0641 85.6137 84.1142 85.2556C86.0888 84.5797 88.207 84.2126 90.4104 84.2126C101.113 84.2126 109.793 92.8649 109.793 103.545C109.793 104.427 109.734 105.295 109.617 106.146C109.496 107.068 109.303 106.177 109.057 107.05C109.048 107.09 109.034 105.34 109.021 105.38L184.314 107.855L184.691 107.775C184.628 107.193 184.597 106.602 184.597 106.007C184.597 96.692 192.168 89.1408 201.506 89.1408C209.086 89.1408 215.503 94.1182 217.648 100.971L229.527 101.208V97.2694H233.23L232.983 94.3152V94.3062ZM132.998 100.953C131.634 102.994 118.552 102.323 115.137 101.625C114.841 101.562 114.621 101.504 114.482 101.446C113.706 101.114 113.845 99.4493 113.378 97.0904C112.804 94.1943 111.314 90.2464 106.09 86.4283C102.904 84.0963 99.9421 82.8609 97.4291 82.2252C94.6288 81.5225 92.3849 81.5673 90.9893 81.6792C90.7245 81.7015 90.4912 81.7239 90.2937 81.7463C89.3693 81.8493 88.1486 81.2718 87.1075 80.3319C86.6632 79.9335 86.2548 79.468 85.9093 78.9577C85.1239 77.7894 84.7021 76.4018 85.106 75.0948C86.0933 71.8944 97.0207 62.902 102.141 61.7964C111.273 59.8269 124.359 60.8116 124.359 60.8116C124.359 60.8116 134.479 98.7331 132.998 100.949V100.953ZM167.809 101.446C158.923 102.43 141.785 103.267 139.909 101.199C135.219 96.0295 127.564 61.8008 129.044 60.5699C130.525 59.339 144.845 60.0775 149.782 62.5394C154.718 65.0012 168.159 71.5498 172.741 77.5612C174.473 79.835 175.456 82.4849 175.949 91.352C176.443 100.215 171.314 101.061 167.804 101.45L167.809 101.446Z" fill="#68797F"/>
<path d="M151.312 82.5973C151.151 83.0494 151.389 83.5417 151.842 83.7029C152.295 83.864 152.789 83.6268 152.95 83.1747L157.438 70.5253C157.6 70.0732 157.362 69.5808 156.908 69.4197C156.455 69.2585 155.962 69.4958 155.8 69.9478L151.312 82.5973Z" fill="#A8C4C4"/>
<path d="M153.076 78.9131C152.672 80.0501 153.157 81.2586 154.162 81.6167L158.793 82.7357C159.798 83.0893 160.736 79.8039 160.736 79.8039C161.14 78.667 158.03 75.3323 157.03 74.9787L156.576 74.8175C155.571 74.4639 154.431 75.0995 154.027 76.2364L153.076 78.9131Z" fill="#A8C4C4"/>
<path d="M48.3382 95.2012C47.0638 96.6962 46.7227 100.026 48.0376 102.273C48.1004 102.381 48.1677 102.488 48.2395 102.596C49.7249 104.874 54.3113 106.884 59.2342 106.951L231.914 108.983C233.992 106.257 235.109 100.76 233.296 95.5145L48.3427 95.2012H48.3382Z" fill="#59676C"/>
<path d="M217.338 106.893C217.253 115.322 210.333 122.085 201.883 122C193.433 121.915 186.652 115.013 186.737 106.584C186.822 98.1557 193.742 91.3923 202.193 91.4774C210.643 91.5624 217.424 98.4645 217.338 106.889V106.893Z" fill="#68797F"/>
<path d="M211.863 106.964C211.809 112.313 207.42 116.601 202.058 116.548C196.695 116.494 192.396 112.116 192.45 106.767C192.504 101.423 196.892 97.1304 202.255 97.1841C207.613 97.2378 211.917 101.615 211.863 106.964Z" fill="#CADDDC"/>
<path d="M210.917 106.956C210.867 111.781 206.905 115.653 202.067 115.604C197.229 115.555 193.348 111.602 193.397 106.777C193.446 101.952 197.404 98.0801 202.247 98.1294C207.084 98.1786 210.966 102.131 210.917 106.956Z" fill="#68797F"/>
<path d="M203.306 106.871C203.297 112.081 202.776 116.302 202.139 116.302C201.506 116.302 200.999 112.077 201.008 106.867C201.017 101.657 201.537 97.4355 202.175 97.4355C202.807 97.4355 203.315 101.661 203.306 106.871Z" fill="white"/>
<path d="M202.97 106.056C206.658 109.744 209.279 113.101 208.83 113.545C208.382 113.992 205.029 111.36 201.341 107.672C197.652 103.984 195.031 100.627 195.48 100.183C195.928 99.7358 199.281 102.368 202.97 106.056Z" fill="white"/>
<path d="M202.157 105.721C207.381 105.73 211.613 106.249 211.613 106.885C211.613 107.516 207.376 108.022 202.153 108.013C196.929 108.004 192.697 107.484 192.697 106.849C192.697 106.218 196.934 105.712 202.157 105.721Z" fill="white"/>
<path d="M201.344 106.056C205.046 102.376 208.408 99.7624 208.856 100.21C209.305 100.658 206.667 104.001 202.969 107.681C199.271 111.36 195.905 113.979 195.461 113.526C195.012 113.079 197.651 109.735 201.349 106.056H201.344Z" fill="white"/>
<path d="M201.008 106.867C201.017 101.657 201.537 97.4355 202.175 97.4355C202.807 97.4355 203.315 101.661 203.306 106.871C203.297 112.081 202.776 116.302 202.139 116.302C201.506 116.302 200.999 112.077 201.008 106.867Z" fill="#CADDDC"/>
<path d="M201.344 107.676C197.656 103.988 195.03 100.631 195.484 100.183C195.932 99.7358 199.285 102.368 202.973 106.056C206.662 109.744 209.283 113.101 208.834 113.545C208.385 113.992 205.033 111.36 201.344 107.672V107.676Z" fill="#CADDDC"/>
<path d="M202.157 108.013C196.933 108.004 192.701 107.484 192.701 106.849C192.701 106.218 196.937 105.712 202.161 105.721C207.385 105.73 211.617 106.249 211.617 106.885C211.617 107.516 207.38 108.022 202.157 108.013Z" fill="#CADDDC"/>
<path d="M202.969 107.677C199.271 111.356 195.905 113.975 195.461 113.523C195.012 113.075 197.651 109.731 201.349 106.052C205.046 102.373 208.412 99.7585 208.856 100.206C209.305 100.654 206.671 103.997 202.969 107.677Z" fill="#CADDDC"/>
<path d="M207.008 106.915C206.981 109.588 204.786 111.732 202.112 111.705C199.432 111.678 197.283 109.489 197.31 106.817C197.337 104.145 199.531 102.001 202.21 102.028C204.889 102.054 207.039 104.243 207.008 106.911V106.915Z" fill="#CADDDC"/>
<path d="M204.58 106.893C204.567 108.227 203.472 109.301 202.134 109.288C200.793 109.275 199.72 108.178 199.734 106.844C199.747 105.506 200.846 104.436 202.184 104.449C203.521 104.463 204.598 105.555 204.585 106.893H204.58Z" fill="#68797F"/>
<path d="M105.04 106.893C104.954 115.322 98.0343 122.085 89.5841 122C81.1339 121.915 74.353 115.013 74.4383 106.584C74.5236 98.1557 81.4435 91.3923 89.8937 91.4774C98.344 91.5624 105.125 98.4645 105.04 106.889V106.893Z" fill="#68797F"/>
<path d="M99.5644 106.964C99.5106 112.313 95.1217 116.601 89.7589 116.548C84.3962 116.494 80.097 112.116 80.1509 106.767C80.2047 101.423 84.5937 97.1304 89.9564 97.1841C95.3146 97.2378 99.6183 101.615 99.5644 106.964Z" fill="#CADDDC"/>
<path d="M98.6179 106.956C98.5685 111.781 94.6059 115.653 89.7682 115.604C84.9306 115.555 81.0488 111.602 81.0981 106.777C81.1475 101.952 85.1056 98.0801 89.9478 98.1294C94.7854 98.1786 98.6672 102.131 98.6179 106.956Z" fill="#68797F"/>
<path d="M91.0068 106.871C90.9978 112.081 90.4772 116.302 89.84 116.302C89.2072 116.302 88.7001 112.077 88.7091 106.867C88.7181 101.657 89.2386 97.4355 89.8759 97.4355C90.5086 97.4355 91.0158 101.661 91.0068 106.871Z" fill="white"/>
<path d="M90.6707 106.056C94.3596 109.744 96.9804 113.101 96.5316 113.545C96.0828 113.992 92.7306 111.36 89.0417 107.672C85.3529 103.984 82.7321 100.627 83.1809 100.183C83.6296 99.7358 86.9819 102.368 90.6707 106.056Z" fill="white"/>
<path d="M89.8584 105.721C95.082 105.73 99.3138 106.249 99.3138 106.885C99.3138 107.516 95.0775 108.022 89.8539 108.013C84.6303 108.004 80.3984 107.484 80.3984 106.849C80.3984 106.218 84.6348 105.712 89.8584 105.721Z" fill="white"/>
<path d="M89.0463 106.056C92.7441 102.376 96.1099 99.7624 96.5586 100.21C97.0074 100.658 94.3686 104.001 90.6708 107.681C86.973 111.36 83.6073 113.979 83.163 113.526C82.7142 113.079 85.353 109.735 89.0508 106.056H89.0463Z" fill="white"/>
<path d="M88.7096 106.867C88.7186 101.657 89.2391 97.4355 89.8764 97.4355C90.5091 97.4355 91.0162 101.661 91.0073 106.871C90.9983 112.081 90.4777 116.302 89.8405 116.302C89.2077 116.302 88.7006 112.077 88.7051 106.867H88.7096Z" fill="#CADDDC"/>
<path d="M89.0455 107.676C85.3567 103.988 82.7314 100.631 83.1847 100.183C83.6334 99.7358 86.9857 102.368 90.6745 106.056C94.3634 109.744 96.9842 113.101 96.5354 113.545C96.0866 113.992 92.7344 111.36 89.0455 107.672V107.676Z" fill="#CADDDC"/>
<path d="M89.8578 108.013C84.6342 108.004 80.4023 107.484 80.4023 106.849C80.4023 106.218 84.6387 105.712 89.8623 105.721C95.0859 105.73 99.3177 106.249 99.3177 106.885C99.3177 107.516 95.0814 108.022 89.8578 108.013Z" fill="#CADDDC"/>
<path d="M90.6704 107.677C86.9726 111.356 83.6069 113.975 83.1581 113.523C82.7094 113.075 85.3481 109.731 89.0459 106.052C92.7437 102.373 96.1095 99.7585 96.5537 100.206C97.0025 100.654 94.3683 103.997 90.6659 107.677H90.6704Z" fill="#CADDDC"/>
<path d="M94.7098 106.915C94.6828 109.588 92.4884 111.732 89.8137 111.705C87.1346 111.678 84.985 109.489 85.012 106.817C85.0389 104.145 87.2334 102.001 89.9125 102.028C92.5916 102.054 94.7412 104.243 94.7098 106.911V106.915Z" fill="#CADDDC"/>
<path d="M92.2813 106.893C92.2679 108.227 91.1729 109.301 89.8356 109.288C88.4938 109.275 87.4212 108.178 87.4347 106.844C87.4482 105.506 88.5476 104.436 89.8849 104.449C91.2223 104.463 92.2993 105.555 92.2858 106.893H92.2813Z" fill="#68797F"/>
<path d="M233.185 94.8124C232.821 94.8751 232.444 94.9109 232.054 94.9109C228.953 94.9064 226.44 92.7086 226.444 90.0006C226.444 87.7446 228.199 85.8423 230.582 85.2783C230.73 85.5693 230.878 85.8826 231.017 86.2093C231.255 86.7733 231.475 87.391 231.681 88.0535C231.708 88.1475 231.74 88.246 231.767 88.34C232.058 89.3292 232.31 90.4169 232.521 91.6075C232.543 91.7194 232.561 91.8268 232.579 91.9387C232.696 92.6102 232.821 93.2413 232.951 93.8366C233.028 94.1723 233.104 94.4991 233.18 94.8124H233.185Z" fill="#68777B"/>
<path d="M232.956 93.8362C232.664 93.8855 232.363 93.9123 232.058 93.9123C231.708 93.9123 231.371 93.8765 231.048 93.8094C229.065 93.4065 227.588 91.8533 227.593 90.0002C227.593 88.1606 229.06 86.6163 231.021 86.209C231.035 86.2403 231.048 86.2761 231.062 86.3075C231.286 86.8446 231.493 87.4265 231.686 88.0576C231.712 88.1516 231.744 88.2501 231.771 88.3441C232.062 89.3333 232.314 90.421 232.525 91.6116C232.547 91.7235 232.565 91.831 232.583 91.9429C232.7 92.6143 232.825 93.2454 232.956 93.8407V93.8362Z" fill="#CADDDC"/>
<path d="M231.057 86.3079L231.043 93.8143C229.06 93.4114 227.583 91.8582 227.588 90.0051C227.588 88.1654 229.055 86.6212 231.016 86.2139C231.03 86.2452 231.043 86.281 231.057 86.3123V86.3079Z" fill="#A8C4C4"/>
<path d="M53.414 81.1641L53.4006 87.932C53.4006 88.5765 52.8755 89.0957 52.2293 89.0957L48.2802 89.0868L48.2936 88.6705V88.4422L48.3924 85.112L48.4013 84.7853C48.4013 84.7853 48.325 84.454 48.2577 83.8945C48.2128 83.4962 48.1725 82.9769 48.168 82.3771C48.168 81.849 48.1904 81.2536 48.2757 80.6225C48.2936 80.4882 48.3116 80.3539 48.334 80.2197C48.3475 80.1391 48.3609 80.063 48.3744 79.9824H52.2427C52.889 79.9914 53.414 80.5151 53.4095 81.1596L53.414 81.1641Z" fill="#68777B"/>
<path d="M52.7727 81.639L52.7637 87.4534C52.7637 88.0084 52.3105 88.456 51.7585 88.456H48.303L48.3972 85.1214L48.4062 84.7946C48.4062 84.7946 48.3299 84.4634 48.2626 83.9039C48.2177 83.5055 48.1773 82.9863 48.1729 82.3865C48.1729 81.8583 48.1953 81.263 48.2806 80.6318H51.7675C52.3239 80.6408 52.7727 81.0884 52.7727 81.6434V81.639Z" fill="#CADDDC"/>
<path d="M52.7727 81.6395V83.9089L48.2626 83.9C48.2177 83.5016 48.1773 82.9824 48.1729 82.3826C48.1729 81.8544 48.1953 81.2591 48.2806 80.6279H51.7675C52.3239 80.6369 52.7727 81.0845 52.7727 81.6395Z" fill="#A8C4C4"/>
<defs>
<filter id="filter0_d_1393_13658" x="0.84668" y="0.205078" width="283.714" height="225.561" filterUnits="userSpaceOnUse" color-interpolation-filters="sRGB">
<feFlood flood-opacity="0" result="BackgroundImageFix"/>
<feColorMatrix in="SourceAlpha" type="matrix" values="0 0 0 0 0 0 0 0 0 0 0 0 0 0 0 0 0 0 127 0" result="hardAlpha"/>
<feOffset dx="2" dy="4"/>
<feGaussianBlur stdDeviation="2"/>
<feComposite in2="hardAlpha" operator="out"/>
<feColorMatrix type="matrix" values="0 0 0 0 0 0 0 0 0 0 0 0 0 0 0 0 0 0 0.3 0"/>
<feBlend mode="normal" in2="BackgroundImageFix" result="effect1_dropShadow_1393_13658"/>
<feBlend mode="normal" in="SourceGraphic" in2="effect1_dropShadow_1393_13658" result="shape"/>
</filter>
</defs>
</svg>
