<svg width="157" height="55" viewBox="0 0 157 55" fill="none" xmlns="http://www.w3.org/2000/svg">
<path d="M16.7109 17.2282L85.4451 17.9195L110.394 18.1719C110.394 18.1719 101.271 10.4394 93.9271 5.79451C91.5387 4.28374 89.3366 3.0992 87.7015 2.61374C81.2973 0.71071 70.0966 0.415547 58.3095 1.17676C40.3667 2.33799 37.1044 13.6474 19.1188 16.8631C18.346 17.0029 17.5459 17.1233 16.7109 17.2282Z" fill="#CC1822"/>
<path d="M0.974587 41.6727L84.1445 42.5116L154.883 43.2262C157.283 41.2222 156.071 39.49 154.894 35.1441C154.817 34.8529 154.739 34.5538 154.661 34.2392C154.595 33.9674 154.529 33.6839 154.463 33.3926C154.351 32.876 154.238 32.3284 154.141 31.7459C154.125 31.6488 154.11 31.5556 154.09 31.4585C153.908 30.4293 153.69 29.4817 153.438 28.6234C153.411 28.5418 153.387 28.4564 153.364 28.3748C153.189 27.7961 152.995 27.2602 152.789 26.7747C152.669 26.4873 152.545 26.2193 152.413 25.9669C151.764 24.7008 150.995 23.8464 150.129 23.4735C149.803 23.3337 149.465 23.1978 149.115 23.0658C137.216 18.5606 111.785 18.1878 110.445 18.1723C110.406 18.1723 110.391 18.1723 110.391 18.1723L85.4417 17.9198L16.7076 17.2285C15.6823 17.3567 14.6103 17.4499 13.4918 17.5159C8.14006 17.8188 5.05638 19.5277 3.30482 21.5977C2.87373 22.1065 2.52031 22.6424 2.2368 23.1823C1.72803 24.1415 1.43287 25.1241 1.27363 26.0368C1.26198 26.1067 1.25033 26.1766 1.23868 26.2426C1.21926 26.3592 1.20373 26.4757 1.18819 26.5922C1.11828 27.1398 1.09498 27.6563 1.09887 28.1146C1.09887 28.635 1.13382 29.0816 1.17654 29.4312C1.2348 29.9166 1.30082 30.204 1.30082 30.204L1.29305 30.4876L1.21149 33.377L1.20373 33.5751L1.19208 33.9363L0.970703 41.6766L0.974587 41.6727Z" fill="#CC1822"/>
<path d="M149.119 23.0618L3.30859 21.5938C5.06015 19.5238 8.14772 17.8149 13.4995 17.512C14.618 17.4499 15.6899 17.3528 16.7152 17.2246L110.395 18.1684C110.395 18.1684 136.897 18.4363 149.119 23.0618Z" fill="#B51A23"/>
<path d="M42.926 17.1191L43.1745 17.3017L43.0386 17.492L39.7957 22.0126L39.7258 32.4793C39.6209 32.3705 39.5238 31.8734 39.4229 31.7685L39.4889 21.9117L42.6658 17.4881L42.926 17.123V17.1191Z" fill="#232D28"/>
<path d="M107.459 22.6424L107.229 45.2108L106.923 45.2069L107.148 22.6619L106.033 18.2771L74.1285 17.815L73.8062 17.8111L71.6274 17.78L43.416 17.3683L43.4199 17.0615L106.274 17.9742L106.309 18.1295L107.459 22.6424Z" fill="#232D28"/>
<path d="M75.4871 22.3194L75.2619 44.8333L74.955 44.8294L75.1803 22.3427L73.8055 17.8104L73.8016 17.7987L73.7705 17.7016L74.0657 17.6123L74.12 17.8026L74.1278 17.8143L75.4871 22.3194Z" fill="#232D28"/>
<path d="M48.6425 24.3394C48.6425 24.72 48.324 25.0269 47.9434 25.023L42.7353 24.9725C42.3547 24.9686 42.0479 24.6579 42.0518 24.2734C42.0518 23.8928 42.3664 23.586 42.7509 23.5899L47.9589 23.6443C48.3395 23.6443 48.6464 23.9588 48.6425 24.3433V24.3394Z" fill="#0C1215"/>
<path d="M85.3642 25.399C85.3603 25.7796 85.0496 26.0864 84.6651 26.0825L79.457 26.0281C79.0764 26.0281 78.7696 25.7136 78.7735 25.3291C78.7735 24.9485 79.0881 24.6417 79.4725 24.6455L84.6806 24.696C85.0612 24.6999 85.368 25.0145 85.3642 25.3951V25.399Z" fill="#0C1215"/>
<path d="M1.22692 37.1758C0.162781 38.0846 -0.120731 40.1119 0.978363 41.4789C1.02885 41.545 1.08711 41.611 1.14536 41.677C2.38815 43.0635 6.21751 44.2908 10.3265 44.3335L154.545 45.6384C156.281 43.9801 157.209 40.6362 155.694 37.4438L1.22692 37.1797V37.1758Z" fill="#232D28"/>
<path d="M139.457 42.4065C139.445 43.4706 139.313 44.5076 139.08 45.5057L111.925 45.2299C111.707 44.2279 111.599 43.191 111.61 42.1268C111.688 34.4371 117.983 28.2658 125.673 28.3435C133.363 28.4212 139.534 34.7167 139.457 42.4065Z" fill="#0E1110"/>
<path d="M43.8471 41.4436C43.8355 42.5077 43.7073 43.5486 43.4704 44.5428L16.3154 44.2709C16.0979 43.2689 15.9892 42.232 16.0008 41.1639C16.0785 33.4742 22.374 27.3029 30.0638 27.3806C37.7536 27.4583 43.9248 33.7538 43.8471 41.4436Z" fill="#0E1110"/>
<path d="M52.958 17.5744L74.5904 17.7569L89.4883 17.8812L105.481 18.0172C105.481 18.0172 94.2886 7.63985 88.3116 5.66303C86.3308 5.01057 84.6958 4.46296 82.6413 4.05905C81.2937 3.79496 79.7635 3.59301 77.8449 3.46484C76.6448 3.49591 75.3593 3.53475 73.9728 3.59301C73.0524 3.62796 72.0892 3.67068 71.0795 3.71729C70.7144 3.73282 70.3571 3.75612 70.0076 3.78719C57.0748 4.85522 55.2805 13.8383 53.2726 17.1161C53.1716 17.2831 53.0668 17.4385 52.958 17.5744Z" fill="#7F7F7F"/>
<path d="M89.4884 17.8852L74.5866 17.7609C74.3147 15.7491 74.1594 13.7373 74.0895 11.71C73.9963 9.00696 73.9652 6.30777 73.9691 3.60082C75.3556 3.54645 76.6411 3.50373 77.8411 3.47266C79.7636 3.60082 81.2899 3.80277 82.6375 4.06687C82.5987 6.99519 83.3405 10.0206 84.6571 12.3509C85.8999 14.5452 87.5699 16.3433 89.4884 17.889V17.8852Z" fill="#6A6B6B"/>
<path d="M42.4297 17.7989L106.367 18.261L105.797 17.6785C105.734 17.6202 105.474 17.3794 105.055 17.0027C104.616 16.6066 104.002 16.059 103.257 15.4143C99.5787 12.2218 92.7627 6.64869 88.4518 5.22724L88.2848 5.17287C85.271 4.17864 83.0107 3.43296 78.8124 3.07954C78.6648 3.06789 78.5133 3.05624 78.3619 3.04459C77.7094 2.99799 77.0142 2.95526 76.2608 2.92419C76.0278 2.91254 75.7909 2.90478 75.5462 2.89701C75.5384 2.89701 75.5345 2.89701 75.5268 2.89701C75.3481 2.89312 75.1695 2.88536 74.9869 2.88147C74.8549 2.88147 74.7228 2.87371 74.5869 2.87371C74.5403 2.87371 74.4937 2.87371 74.4471 2.87371C74.315 2.87371 74.183 2.86982 74.0471 2.86594C73.8684 2.86594 73.682 2.86206 73.4956 2.85817C73.282 2.85817 73.0606 2.85429 72.8431 2.85817C72.6023 2.85817 72.3576 2.85817 72.1091 2.85817C70.9673 2.85817 69.7284 2.87371 68.3846 2.90478C68.3186 2.90478 68.2526 2.90478 68.1865 2.90866C67.002 2.93585 65.7398 2.97468 64.3882 3.02517C64.2717 3.02906 64.1591 3.03294 64.0426 3.04071C63.9999 3.04071 63.9572 3.04071 63.9144 3.04459C63.794 3.04847 63.6736 3.05236 63.5532 3.06013C62.7843 3.09119 61.9881 3.12615 61.1686 3.16499C49.1912 3.72424 45.925 10.6761 43.9754 14.8317C43.5093 15.8298 42.4258 17.8066 42.4258 17.8066L42.4297 17.7989ZM70.0274 3.79027C70.7304 3.77861 71.4022 3.77085 72.0431 3.77085C72.2916 3.77085 72.5363 3.77085 72.7771 3.77085C73.0179 3.77085 73.2587 3.77085 73.4917 3.77473H73.5189C73.6703 3.77473 73.8218 3.77473 73.9733 3.77861C74.0743 3.77861 74.1752 3.77861 74.2762 3.7825C74.7228 3.79027 75.1539 3.80192 75.5695 3.81357C75.8219 3.82134 76.0666 3.8291 76.3035 3.84464C77.1346 3.87959 77.892 3.9262 78.5988 3.98445C78.6609 3.98834 78.7231 3.9961 78.7852 3.99999C80.2804 4.12815 81.5232 4.3068 82.6418 4.52817C84.5758 4.91266 86.141 5.4292 88.0013 6.04282L88.1683 6.0972C92.5142 7.53029 99.7962 13.6044 103.249 16.626C103.466 16.8163 103.668 16.9949 103.855 17.1619C104.01 17.2979 104.15 17.426 104.282 17.5425L88.9373 17.4144L74.5364 17.294L53.2769 17.1153L43.9132 17.0376C44.2084 16.5172 44.5036 15.8997 44.822 15.2162C46.8027 10.9946 49.7971 4.60973 61.223 4.07766C61.9531 4.04271 62.6639 4.01164 63.3513 3.98057C63.5843 3.9728 63.8134 3.96115 64.0426 3.95338C66.2485 3.86406 68.2292 3.80968 70.008 3.7825H70.0352L70.0274 3.79027Z" fill="#232D28"/>
<path d="M43.9053 17.0374L53.2689 17.1151C55.2768 13.8411 57.0711 4.85416 70.0039 3.78613H69.9961C68.2174 3.81332 66.2405 3.86769 64.0307 3.95702C63.8016 3.96478 63.5724 3.97644 63.3394 3.9842C62.652 4.01139 61.9413 4.04634 61.2111 4.0813C49.7891 4.60948 46.7909 10.9943 44.8102 15.2198C44.4917 15.9034 44.1965 16.5209 43.9014 17.0413L43.9053 17.0374Z" fill="#6A6B6B"/>
<path d="M76.1291 16.8786L75.5659 3.79047L75.5582 3.51861L75.5504 3.34384L75.531 2.89721L72.1133 2.85449L72.0784 3.29724L72.0512 3.65066L72.0434 3.74387L71.0103 16.832L70.9754 17.2786L70.9404 17.7253L71.6745 17.733L76.164 17.7719L76.1485 17.3252L76.1291 16.8786Z" fill="#232D28"/>
<path d="M76.8586 16.8874L76.3032 3.82252L76.2877 3.49629L76.2838 3.37201L76.276 3.20113L75.542 3.19336L75.5498 3.34482L75.5575 3.51959L75.5653 3.79145L76.1284 16.8796L76.1479 17.3262L76.1634 17.7729L76.8974 17.7767L76.8819 17.3301L76.8586 16.8874Z" fill="#232D28"/>
<path d="M76.148 17.4028V17.3252L76.1286 16.8785L75.5655 3.79037L75.5577 3.51851L75.5499 3.34374V2.50098L72.8469 2.8544L72.8119 3.30102L72.7886 3.61949L72.7769 3.74765L71.7439 16.8397L71.6973 17.3951L76.148 17.4028Z" fill="#CC1822"/>
<path d="M109.89 17.2825C109.878 18.6185 106.938 19.6671 103.319 19.6321H103.214L103.26 14.7969C103.295 14.7969 103.326 14.7969 103.365 14.7969C105.315 14.8163 107.067 15.1503 108.259 15.6629C108.379 15.7173 108.496 15.7717 108.601 15.8222C109.412 16.2339 109.89 16.7387 109.886 17.2825H109.89Z" fill="#1F262B"/>
<path d="M108.262 15.6629C107.505 16.4785 105.59 17.0805 103.24 17.2126L103.264 14.7969C103.299 14.7969 103.33 14.7969 103.368 14.7969C105.318 14.8163 107.07 15.1503 108.262 15.6629Z" fill="#2D373C"/>
<path d="M154.665 34.2352C154.351 34.2896 154.025 34.3207 153.687 34.3207C151.003 34.3168 148.828 32.4099 148.832 30.0602C148.832 28.1028 150.351 26.4522 152.413 25.9629C152.541 26.2153 152.669 26.4872 152.79 26.7707C152.995 27.2601 153.186 27.796 153.364 28.3708C153.388 28.4524 153.415 28.5378 153.438 28.6194C153.691 29.4777 153.908 30.4214 154.091 31.4545C154.11 31.5516 154.126 31.6448 154.141 31.7419C154.242 32.3244 154.351 32.872 154.463 33.3886C154.529 33.6799 154.595 33.9634 154.662 34.2352H154.665Z" fill="#232D28"/>
<path d="M154.466 33.3884C154.214 33.4311 153.954 33.4544 153.69 33.4544C153.387 33.4544 153.095 33.4233 152.816 33.3651C151.099 33.0155 149.821 31.6679 149.825 30.06C149.825 28.4638 151.095 27.1239 152.792 26.7705C152.804 26.7977 152.816 26.8288 152.827 26.856C153.022 27.322 153.2 27.8269 153.367 28.3745C153.39 28.456 153.418 28.5415 153.441 28.623C153.693 29.4813 153.911 30.4251 154.093 31.4582C154.113 31.5553 154.128 31.6485 154.144 31.7456C154.245 32.3281 154.354 32.8757 154.466 33.3923V33.3884Z" fill="#DFCA8C"/>
<path d="M152.823 26.856L152.812 33.369C151.095 33.0194 149.817 31.6718 149.821 30.0639C149.821 28.4677 151.091 27.1278 152.788 26.7744C152.8 26.8016 152.812 26.8327 152.823 26.8599V26.856Z" fill="#D49B57"/>
<path d="M5.6348 27.0546L5.62315 32.9268C5.62315 33.486 5.16875 33.9366 4.6095 33.9366L1.19182 33.9288L1.20347 33.5676V33.3695L1.28891 30.48L1.29668 30.1965C1.29668 30.1965 1.23066 29.9091 1.1724 29.4237C1.13356 29.078 1.09861 28.6275 1.09473 28.1071C1.09473 27.6488 1.11415 27.1323 1.18794 26.5847C1.20347 26.4682 1.21901 26.3516 1.23842 26.2351C1.25008 26.1652 1.26173 26.0992 1.27338 26.0293H4.62115C5.1804 26.0371 5.6348 26.4915 5.63092 27.0507L5.6348 27.0546Z" fill="#232D28"/>
<path d="M5.07945 27.4656L5.07168 32.5106C5.07168 32.9922 4.67943 33.3805 4.20173 33.3805H1.21126L1.29282 30.4872L1.30059 30.2037C1.30059 30.2037 1.23456 29.9163 1.17631 29.4308C1.13747 29.0851 1.10252 28.6346 1.09863 28.1142C1.09863 27.6559 1.11805 27.1394 1.19184 26.5918H4.2095C4.69108 26.5996 5.07945 26.9879 5.07945 27.4695V27.4656Z" fill="#D49B57"/>
<path d="M5.07945 27.4656V29.4347L1.17631 29.4269C1.13747 29.0812 1.10252 28.6307 1.09863 28.1103C1.09863 27.652 1.11805 27.1355 1.19184 26.5879H4.2095C4.69108 26.5957 5.07945 26.984 5.07945 27.4656Z" fill="#CA6533"/>
<path d="M137.142 42.9463C137.076 49.3622 131.825 54.5081 125.41 54.446C118.994 54.38 113.848 49.1292 113.914 42.7132C113.98 36.3012 119.231 31.1514 125.646 31.2174C132.062 31.2834 137.208 36.5342 137.142 42.9463Z" fill="#141C23"/>
<path d="M132.985 43.0002C132.946 47.0703 129.61 50.3366 125.544 50.2938C121.474 50.2511 118.208 46.9189 118.25 42.8487C118.289 38.7786 121.625 35.5124 125.696 35.5551C129.766 35.5978 133.032 38.9301 132.989 42.9963L132.985 43.0002Z" fill="white"/>
<path d="M132.268 42.9936C132.229 46.6676 129.223 49.6154 125.549 49.5765C121.875 49.5377 118.931 46.5317 118.966 42.8577C119.005 39.1837 122.011 36.236 125.681 36.2748C129.355 36.3136 132.303 39.3196 132.264 42.9936H132.268Z" fill="#141C23"/>
<path d="M126.488 42.9271C126.48 46.8924 126.084 50.1042 125.603 50.1042C125.121 50.1042 124.736 46.8885 124.744 42.9232C124.752 38.9579 125.148 35.7461 125.63 35.7461C126.111 35.7461 126.496 38.9618 126.488 42.9271Z" fill="white"/>
<path d="M126.237 42.3099C129.037 45.1178 131.029 47.6694 130.687 48.0112C130.346 48.353 127.802 46.349 125.002 43.541C122.201 40.7331 120.209 38.1815 120.551 37.8397C120.893 37.498 123.436 39.502 126.237 42.3099Z" fill="white"/>
<path d="M125.619 42.0529C129.585 42.0606 132.797 42.4568 132.797 42.9383C132.797 43.4199 129.581 43.8044 125.616 43.7966C121.65 43.7889 118.438 43.3927 118.438 42.9112C118.438 42.4296 121.654 42.0451 125.619 42.0529Z" fill="white"/>
<path d="M125.001 42.3092C127.809 39.5091 130.361 37.5167 130.703 37.8585C131.044 38.2002 129.04 40.7441 126.232 43.5442C123.424 46.3444 120.873 48.3368 120.531 47.995C120.189 47.6532 122.193 45.1094 125.001 42.3092Z" fill="white"/>
<path d="M124.744 42.9271C124.752 38.9618 125.148 35.75 125.63 35.75C126.111 35.75 126.496 38.9657 126.488 42.931C126.48 46.8963 126.084 50.1081 125.603 50.1081C125.121 50.1081 124.736 46.8924 124.744 42.9271Z" fill="white"/>
<path d="M125.002 43.5449C122.201 40.737 120.209 38.1854 120.551 37.8436C120.893 37.5019 123.436 39.5059 126.237 42.3138C129.037 45.1217 131.029 47.6733 130.687 48.0151C130.346 48.3569 127.802 46.3529 125.002 43.5449Z" fill="white"/>
<path d="M125.616 43.8005C121.65 43.7928 118.435 43.3966 118.438 42.9151C118.438 42.4335 121.654 42.049 125.619 42.0568C129.585 42.0645 132.8 42.4607 132.797 42.9422C132.797 43.4238 129.581 43.8083 125.616 43.8005Z" fill="white"/>
<path d="M126.232 43.5442C123.424 46.3444 120.873 48.3368 120.531 47.995C120.189 47.6532 122.193 45.1094 125.001 42.3092C127.809 39.5091 130.361 37.5167 130.703 37.8585C131.044 38.2002 129.04 40.7441 126.232 43.5442Z" fill="white"/>
<path d="M129.296 42.965C129.277 44.9962 127.611 46.6313 125.58 46.608C123.545 46.5885 121.913 44.9224 121.933 42.8912C121.952 40.86 123.618 39.225 125.653 39.2483C127.685 39.2677 129.32 40.9338 129.296 42.965Z" fill="white"/>
<path d="M127.456 42.9464C127.445 43.9639 126.614 44.7795 125.6 44.7678C124.582 44.7562 123.767 43.9251 123.778 42.9075C123.79 41.89 124.621 41.0744 125.639 41.0861C126.656 41.0977 127.472 41.9288 127.46 42.9464H127.456Z" fill="#141C23"/>
<path d="M41.3307 42.9463C41.2647 49.3622 36.0139 54.5081 29.598 54.446C23.1821 54.38 18.0362 49.1292 18.1022 42.7132C18.1682 36.3012 23.419 31.1514 29.8349 31.2174C36.2508 31.2834 41.3968 36.5342 41.3307 42.9463Z" fill="#141C23"/>
<path d="M37.1708 43.0002C37.132 47.0703 33.7959 50.3366 29.7296 50.2938C25.6595 50.2511 22.3932 46.9189 22.436 42.8487C22.4748 38.7786 25.8109 35.5124 29.8772 35.5551C33.9473 35.5978 37.2135 38.9301 37.1708 42.9963V43.0002Z" fill="white"/>
<path d="M36.4525 42.9936C36.4136 46.6676 33.4076 49.6154 29.7336 49.5765C26.0596 49.5377 23.1157 46.5317 23.1507 42.8577C23.1895 39.1837 26.1955 36.236 29.8657 36.2748C33.5397 36.3136 36.4874 39.3196 36.4486 42.9936H36.4525Z" fill="#141C23"/>
<path d="M30.6765 42.9271C30.6688 46.8924 30.2726 50.1042 29.791 50.1042C29.3095 50.1042 28.925 46.8885 28.9327 42.9232C28.9405 38.9579 29.3366 35.7461 29.8182 35.7461C30.2998 35.7461 30.6843 38.9618 30.6765 42.9271Z" fill="white"/>
<path d="M30.4212 42.3099C33.2214 45.1178 35.2137 47.6694 34.8719 48.0112C34.5302 48.353 31.9863 46.349 29.1862 43.541C26.386 40.7331 24.3937 38.1815 24.7354 37.8397C25.0772 37.498 27.621 39.502 30.4212 42.3099Z" fill="white"/>
<path d="M29.808 42.0529C33.7732 42.0606 36.9851 42.4568 36.9851 42.9383C36.9851 43.4199 33.7694 43.8044 29.8041 43.7966C25.8388 43.7889 22.627 43.3927 22.627 42.9112C22.627 42.4296 25.8427 42.0451 29.808 42.0529Z" fill="white"/>
<path d="M29.1898 42.3092C31.9977 39.5091 34.5493 37.5167 34.8911 37.8585C35.2328 38.2002 33.2288 40.7441 30.4209 43.5442C27.613 46.3444 25.0614 48.3368 24.7196 47.995C24.3778 47.6532 26.3818 45.1094 29.1898 42.3092Z" fill="white"/>
<path d="M28.9326 42.9271C28.9404 38.9618 29.3365 35.75 29.8181 35.75C30.2997 35.75 30.6842 38.9657 30.6764 42.931C30.6686 46.8963 30.2725 50.1081 29.7909 50.1081C29.3093 50.1081 28.9249 46.8924 28.9287 42.9271H28.9326Z" fill="white"/>
<path d="M29.1862 43.5449C26.386 40.737 24.3937 38.1854 24.7354 37.8436C25.0772 37.5019 27.621 39.5059 30.4212 42.3138C33.2214 45.1217 35.2137 47.6733 34.8719 48.0151C34.5302 48.3569 31.9863 46.3529 29.1862 43.5449Z" fill="white"/>
<path d="M29.8041 43.8005C25.8388 43.7928 22.6231 43.3966 22.627 42.9151C22.627 42.4335 25.8427 42.049 29.808 42.0568C33.7732 42.0645 36.989 42.4607 36.9851 42.9422C36.9851 43.4238 33.7694 43.8083 29.8041 43.8005Z" fill="white"/>
<path d="M30.4209 43.5442C27.613 46.3444 25.0614 48.3368 24.7196 47.995C24.3778 47.6532 26.3818 45.1094 29.1898 42.3092C31.9977 39.5091 34.5493 37.5167 34.8911 37.8585C35.2328 38.2002 33.2288 40.7441 30.4209 43.5442Z" fill="white"/>
<path d="M33.4848 42.965C33.4654 44.9962 31.7993 46.6313 29.7681 46.608C27.733 46.5885 26.1018 44.9224 26.1213 42.8912C26.1407 40.86 27.8068 39.225 29.8419 39.2483C31.8731 39.2677 33.5081 40.9338 33.4848 42.965Z" fill="white"/>
<path d="M31.6438 42.9464C31.6322 43.9639 30.8011 44.7795 29.7874 44.7678C28.7699 44.7562 27.9543 43.9251 27.9659 42.9075C27.9776 41.89 28.8087 41.0744 29.8262 41.0861C30.8438 41.0977 31.6594 41.9288 31.6477 42.9464H31.6438Z" fill="#141C23"/>
</svg>
