<svg width="285" height="226" viewBox="0 0 285 226" fill="none" xmlns="http://www.w3.org/2000/svg">
<g filter="url(#filter0_d_1393_13656)">
<path d="M218.704 164.802H62.7041V217.742H218.704V164.802Z" fill="#D9E7F3"/>
<path d="M142.274 190.402H128.614V204.062H142.274V190.402Z" fill="#8CCCDC"/>
<path d="M167.234 190.402H153.574V204.062H167.234V190.402Z" fill="#8CCCDC"/>
<path d="M196.074 190.402H182.414V204.062H196.074V190.402Z" fill="#8CCCDC"/>
<path d="M107.924 197.232C107.924 204.312 102.184 210.052 95.1042 210.052C88.0242 210.052 82.2842 204.312 82.2842 197.232C82.2842 190.152 88.0242 184.412 95.1042 184.412C102.184 184.412 107.924 190.152 107.924 197.232Z" fill="#CDDAE2"/>
<path d="M79.7441 198.681C80.3041 198.541 110.864 189.571 110.864 189.571L82.2941 204.711L79.7541 198.681H79.7441Z" fill="#8CCCDC"/>
<path d="M62.7041 173.802H218.704V183.192L62.7041 178.502V173.802Z" fill="#CDDAE2"/>
<path d="M37.7724 0.181641H243.636C262.911 0.181641 278.561 15.8317 278.561 35.1069V139.266C278.561 158.541 262.911 174.191 243.636 174.191H37.7724C18.4972 174.191 2.84717 158.541 2.84717 139.266V35.1069C2.84717 15.8317 18.4972 0.181641 37.7724 0.181641Z" fill="#D9E7F3"/>
<path d="M52.1475 22.7168H229.25C244.618 22.7168 257.092 35.1908 257.092 50.5588V125.884C257.092 141.252 244.618 153.726 229.25 153.726H52.1579C36.79 153.726 24.3159 141.252 24.3159 125.884V50.5692C24.3159 35.2013 36.79 22.7272 52.1579 22.7272L52.1475 22.7168Z" fill="#3A3E48"/>
<path d="M39.8932 144.615V69.2901C39.8932 53.9117 52.3568 41.4481 67.7351 41.4481H244.837C249.089 41.4481 253.112 42.3988 256.716 44.1017C253.801 31.847 242.779 22.7266 229.637 22.7266H52.5344C37.156 22.7266 24.6924 35.1902 24.6924 50.5685V125.893C24.6924 137.02 31.2219 146.631 40.6663 151.082C40.1752 149.003 39.9036 146.84 39.9036 144.604L39.8932 144.615Z" fill="#363A44"/>
<path d="M12.9287 45.11C12.9287 27.424 24.1041 17.5218 40.4488 13.75" stroke="white" stroke-width="4" stroke-linecap="round"/>
<path d="M264.951 133.448C264.592 151.131 253.218 160.804 236.8 164.243" stroke="white" stroke-width="4" stroke-linecap="round"/>
<path d="M52.8604 12.4856C55.4935 12.0906 58.076 11.8654 60.7359 11.8456C64.1361 11.8202 67.3828 11.2169 70.7803 11.6856" stroke="white" stroke-width="4" stroke-linecap="round"/>
</g>
<path d="M238.8 107.57V53.2461C234.713 54.4832 230.583 55.5604 226.363 56.3412C199.063 61.3836 171.447 62.9782 144.066 58.3967C110.73 52.818 69.4263 56.0213 60.4985 58.3732C53.9697 60.0948 48.6403 66.1251 55.79 69.0273C47.7513 69.9069 43.5508 79.6061 50.6676 81.6758C42.1208 80.895 35.9589 92.979 43.4379 96.4363C23.762 114.362 91.139 112.664 108.637 110.548C101.153 118.14 88.7071 124.49 92.1268 134.448C99.2436 140.205 107.616 128.756 142.758 120.148C149.071 118.605 160.986 104.395 167.312 102.913C174.189 101.305 194.185 102.245 201.245 102.73C213.814 103.6 226.316 105.543 238.8 107.57Z" fill="#647A80"/>
<path d="M157.674 95.6979C156.832 97.0855 155.717 98.586 153.963 98.8776C152.725 99.0799 151.46 98.5954 150.562 97.8428C149.663 97.0949 149.071 96.1118 148.525 95.1334C146.234 91.0223 144.517 86.6289 143.915 82.0616C143.313 77.4989 143.859 72.7481 145.928 68.4817C146.502 67.3011 147.349 66.0405 148.76 65.7112C150.04 65.4102 151.361 65.9887 152.363 66.7272C153.365 67.461 154.207 68.3735 155.345 68.9427C156.78 69.6624 158.544 69.7565 160.007 70.4338C164.095 72.3294 165.562 77.5695 164.259 81.2384C162.495 86.2056 160.477 91.0787 157.679 95.6931L157.674 95.6979Z" fill="#A2C6C6"/>
<path d="M150.539 103.83C149.603 104.616 148.394 105.086 147.237 105.599C139.856 108.854 133.93 114.145 128.196 119.376C127.457 120.049 126.253 120.759 125.468 120.147C125.237 119.969 125.115 119.705 125.002 119.456C123.873 116.897 123.191 114.188 122.975 111.441C122.942 110.989 122.928 110.5 123.229 110.128C123.737 109.489 124.79 109.531 125.67 109.479C128.422 109.315 130.726 107.626 132.815 106.017C135.764 103.745 138.77 101.417 140.703 98.4301C141.333 97.4611 141.86 96.4122 142.759 95.6173C143.657 94.8223 145.078 94.3378 146.211 94.8176C147.255 95.2598 147.698 96.3134 148.201 97.2259C149.466 99.5261 153.596 101.266 150.543 103.835L150.539 103.83Z" fill="#A2C6C6"/>
<path d="M120.909 120.576C116.648 121.046 113.487 124.236 109.662 126C109.258 126.188 108.778 126.362 108.36 126.211C107.955 126.065 107.757 125.675 107.598 125.318C106.713 123.342 105.829 121.366 104.945 119.391C104.865 119.212 104.785 119.024 104.813 118.831C104.916 118.135 106.059 118.158 106.845 118.271C109.3 118.619 111.817 117.763 113.919 116.559C116.022 115.35 117.833 113.793 119.851 112.481C120.185 112.265 120.566 112.039 120.98 112.062C121.808 112.105 122.127 112.994 122.245 113.709C122.509 115.317 122.984 116.978 123.186 118.568C123.379 120.087 122.692 120.383 120.909 120.581V120.576Z" fill="#A2C6C6"/>
<path d="M105.749 126.447C103.185 128.061 100.622 129.669 98.0581 131.283C97.456 131.664 96.8445 132.045 96.1766 132.285C95.678 132.463 95.0759 132.543 94.709 132.238C94.2151 131.833 94.4503 131.043 94.8125 130.474C96.3647 128.009 99.5821 126.476 100.579 123.813C100.833 123.145 101.04 122.313 101.76 122.059C102.202 121.903 102.673 122.049 103.068 122.233C104.149 122.731 107.588 125.29 105.749 126.447Z" fill="#A2C6C6"/>
<path d="M142.095 95.4579C141.427 95.7119 140.688 95.7542 139.969 95.7871C134.987 96.0082 129.987 95.9283 125.034 96.4739C120.081 97.0195 115.09 98.2472 111.021 100.825C110.325 101.267 109.643 101.752 108.829 101.982C108.016 102.213 107.018 102.133 106.482 101.563C106.134 101.196 106.035 100.693 105.955 100.218C105.443 97.1277 105.269 93.9856 105.433 90.8529C106.849 90.5895 108.458 90.359 109.606 91.1022C110.208 91.4926 110.607 92.1182 111.294 92.3769C111.793 92.5697 112.367 92.5368 112.917 92.4992C119.606 92.0664 126.299 91.6337 132.988 91.2056C134.22 91.1257 135.519 91.0269 136.535 90.4013C137.57 89.7616 138.12 88.6985 138.877 87.8095C139.635 86.9205 140.886 86.1303 142.071 86.4736C142.57 86.6148 142.974 86.944 143.299 87.3015C145.58 89.8274 146.003 93.9809 142.095 95.4579Z" fill="#A2C6C6"/>
<path d="M103.548 101.709C102.786 102.221 101.714 102.01 100.797 101.793C94.8558 100.396 88.0683 99.9305 82.8235 102.875C82.3485 103.143 81.8405 103.449 81.2807 103.416C80.1659 103.355 79.7802 102.122 79.6767 101.149C79.5356 99.8129 79.3945 98.477 79.2581 97.1411C79.1499 96.1298 79.3568 94.7469 80.514 94.6058C81.3654 94.5023 82.0145 95.2173 82.8141 95.4807C83.3927 95.6688 84.0324 95.6171 84.6533 95.5607C89.5217 95.1185 94.536 94.634 98.8635 92.5832C100.195 91.9528 101.973 91.2191 103.017 92.1457C103.468 92.5455 103.586 93.1429 103.671 93.7074C103.887 95.1655 105.087 100.683 103.553 101.709H103.548Z" fill="#A2C6C6"/>
<path d="M77.8036 103.325C77.2533 103.508 76.6747 103.203 76.1667 102.949C72.9634 101.345 68.9652 101.716 65.2727 102.177C64.8682 102.229 64.4307 102.271 64.0921 102.083C63.8804 101.965 63.7393 101.768 63.6217 101.57C63.1137 100.705 62.9208 99.6936 63.0902 98.7246C63.1419 98.4141 63.236 98.0943 63.4618 97.8497C64.0215 97.2382 65.0705 97.3087 65.9548 97.3652C69.5391 97.5863 73.0763 96.5843 76.6041 95.9117C77.004 95.8364 77.4696 95.7753 77.7801 96.0058C77.9776 96.1516 78.0623 96.3774 78.1188 96.5985C78.3634 97.5674 79.1207 102.892 77.8083 103.334L77.8036 103.325Z" fill="#A2C6C6"/>
<path d="M60.1832 102.86C59.8069 102.747 59.5106 102.502 59.1719 102.319C58.1747 101.787 56.9094 101.844 55.7287 101.881C53.2969 101.957 50.7757 101.853 48.626 100.903C48.3203 100.767 48.0051 100.597 47.8781 100.324C47.6947 99.9387 47.9534 99.4777 48.3438 99.2237C48.7342 98.9744 49.2234 98.885 49.6938 98.8098C53.0052 98.2641 56.3449 97.8361 59.6893 97.5021C60.2303 97.4457 60.87 97.4269 61.2133 97.7891C61.552 98.1512 61.4203 98.6828 61.3733 99.1531C61.2933 99.9857 63.2219 103.786 60.1785 102.855L60.1832 102.86Z" fill="#A2C6C6"/>
<path d="M135.504 85.7821C133.26 85.1753 130.847 85.2459 128.486 85.3399C125.09 85.4764 121.698 85.6504 118.307 85.8621C114.619 86.0926 110.757 86.4218 107.648 88.2046C107.38 88.3598 107.032 88.5244 106.769 88.3739C106.613 88.2845 106.557 88.1152 106.51 87.96C105.767 85.5375 105.127 82.6635 107.004 80.7208C107.507 80.1987 108.42 79.7801 109.031 80.1893C109.276 80.3539 109.407 80.6126 109.633 80.7961C110.089 81.1724 110.795 81.1583 111.425 81.1159C117.893 80.7255 124.361 80.3351 130.828 79.9447C132.263 79.86 133.735 79.766 135.057 79.2485C136.732 78.5994 138.481 77.273 140.118 77.9409C142.005 78.7123 142.197 82.4706 141.52 83.9523C141.186 84.6814 140.33 85.2365 139.568 85.6316C137.771 86.5629 137.249 85.6269 135.504 85.7774V85.7821Z" fill="#A2C6C6"/>
<path d="M103.585 88.5576C102.46 89.0139 101.355 88.0449 100.278 87.5416C99.0925 86.9818 97.6673 86.9865 96.3079 87.0054C93.4433 87.0524 90.5786 87.123 87.714 87.217C86.2606 87.2641 84.6895 87.3628 83.57 88.1907C82.8268 88.7411 82.1683 89.6395 81.2134 89.536C80.0139 89.4043 79.9057 87.9696 79.7693 86.9207C79.647 85.9752 79.2425 85.0627 79.266 84.1125C79.2895 83.1624 79.9528 82.0946 81.0347 81.9817C81.7308 81.9112 82.3705 82.2451 83.0149 82.4709C84.8353 83.1059 86.9003 82.8707 88.8571 82.6261C91.7358 82.2686 94.6239 81.9065 97.4085 81.1586C98.9232 80.7493 100.4 80.2272 101.929 79.8509C102.583 79.691 103.331 79.564 103.89 79.8885C105.32 80.707 104.116 83.1341 104.22 84.3806C104.314 85.5472 105.306 87.8567 103.585 88.5576Z" fill="#A2C6C6"/>
<path d="M70.8186 88.9722C69.2428 89.1933 67.667 89.4097 66.0912 89.6307C65.0752 89.7719 63.904 89.8753 63.1608 89.2733C62.7657 88.9534 62.5728 88.4877 62.4599 88.0268C62.3376 87.5187 62.3047 86.959 62.5869 86.4933C63.0949 85.6466 64.3461 85.4491 65.4233 85.3268C68.589 84.974 71.7311 84.466 74.8356 83.798C76.7171 83.3935 78.053 83.5487 78.5892 85.2891C78.8997 86.2958 79.2242 88.149 78.7962 89.1698C78.3305 90.294 77.1499 90.6938 75.8845 90.2375C75.0567 89.9365 74.5957 89.198 73.6973 88.944C72.7941 88.69 71.7358 88.8452 70.8186 88.9722Z" fill="#A2C6C6"/>
<path d="M60.0186 89.5881C59.393 89.9032 58.6451 89.9127 57.9301 89.9221C54.1012 89.9503 50.2771 89.9785 46.4482 90.0067C46.3071 90.0067 46.1612 90.0067 46.0295 89.9597C45.7238 89.8468 45.6203 89.494 45.7285 89.2118C45.832 88.9343 46.0907 88.7226 46.3541 88.5391C47.784 87.5466 49.5903 87.0904 51.3495 86.6859C53.4709 86.2014 55.6065 85.7639 57.7514 85.3735C58.6921 85.2042 59.8022 85.0772 60.4749 85.6604C61.3968 86.4601 61.2087 88.986 60.0186 89.5834V89.5881Z" fill="#A2C6C6"/>
<path d="M136.855 77.5424C136.427 77.3731 136.159 77.0109 135.811 76.7334C134.95 76.0513 133.69 75.9572 132.523 75.9055C125.209 75.5857 117.861 75.7597 110.556 76.4229C109.813 76.4888 108.981 76.5405 108.426 76.1125C107.955 75.7503 107.842 75.1529 107.758 74.6073C107.612 73.6524 107.461 72.674 107.678 71.7238C107.894 70.7737 108.539 69.8329 109.564 69.4519C110.058 69.2685 110.599 69.2261 111.13 69.2026C119.719 68.8122 128.182 72.547 136.648 71.1265C137.711 70.9477 138.774 70.689 139.847 70.7408C140.919 70.7925 142.044 71.2299 142.486 72.086C142.947 72.9798 142.547 74.0287 142.142 74.9553C141.954 75.3881 141.672 76.6769 141.258 76.9497C140.854 77.2132 140.336 76.9497 139.8 77.0532C138.873 77.2273 137.81 77.9234 136.851 77.5424H136.855Z" fill="#A2C6C6"/>
<path d="M103.265 76.2581C102.766 76.0888 102.385 75.7407 101.938 75.482C100.828 74.847 99.3984 74.8611 98.0625 74.8893C93.9561 74.9881 89.7039 75.1151 85.9738 76.6721C85.2118 76.9872 84.2052 77.3353 83.6407 76.8038C83.3773 76.5545 83.3209 76.1876 83.2785 75.8442C83.0763 74.2261 83.0527 72.2599 84.6144 71.3427C85.6775 70.7171 87.0651 70.8629 88.3304 70.9617C93.9702 71.4132 99.6571 70.496 105.231 69.4706C105.574 69.4094 105.951 69.3483 106.261 69.4894C106.854 69.7622 106.765 70.5195 106.595 71.0934C106.242 72.274 105.932 77.3024 103.274 76.2534L103.265 76.2581Z" fill="#A2C6C6"/>
<path d="M79.2955 76.5719C76.3086 76.0357 73.1759 76.0733 70.1843 76.6801C69.4646 76.8259 68.6038 76.9764 68.0817 76.5296C67.8936 76.3649 67.7807 76.1439 67.6772 75.9322C67.5032 75.5747 67.3244 75.2078 67.3197 74.8174C67.3056 74.1212 67.8512 73.4862 68.5286 73.1099C69.2059 72.7336 69.9962 72.5737 70.7723 72.4138C73.1383 71.9387 75.509 71.4589 77.875 70.9838C79.0133 70.7533 80.241 70.5275 81.3135 70.918C81.7274 71.0685 82.1131 71.3178 82.306 71.6706C82.6729 72.3338 82.3013 73.1193 82.0849 73.839C81.4969 75.8428 82.4988 77.1458 79.2955 76.5719Z" fill="#A2C6C6"/>
<path d="M63.2411 77.1887C61.3878 77.1558 59.5345 77.1275 57.6813 77.0946C57.0557 77.0852 56.4253 77.0711 55.8139 76.9582C55.0754 76.8171 54.3745 76.5254 53.7912 76.1115C53.5748 75.9563 53.3679 75.7728 53.3067 75.5376C53.1656 74.9591 53.9229 74.531 54.5626 74.3241C57.8036 73.2657 61.2702 72.7483 64.7087 72.8189C64.9392 72.8189 65.1885 72.8377 65.3625 72.9647C65.5131 73.0729 65.5836 73.2375 65.6401 73.4021C66.3503 75.4812 66.1246 77.2451 63.2364 77.1934L63.2411 77.1887Z" fill="#A2C6C6"/>
<path d="M135.863 68.4725C129.866 65.0717 122.241 63.9004 115.18 65.2927C114.512 65.4244 113.807 65.5797 113.158 65.4009C112.306 65.1657 111.784 64.4272 111.493 63.6887C111.116 62.748 111.008 61.6567 111.558 60.7724C112.551 59.1778 115.039 58.985 117.09 59.0884C125.298 59.5118 133.262 61.4309 141.155 63.3407C142.585 63.6887 144.255 64.2485 144.537 65.5232C144.875 67.0519 142.961 68.3549 141.522 68.8394C139.499 69.5167 137.646 69.4791 135.868 68.4725H135.863Z" fill="#A2C6C6"/>
<path d="M85.8052 66.7163C85.5418 66.7633 85.2407 66.801 85.0244 66.6646C84.8644 66.5658 84.7892 66.3917 84.7233 66.2271C84.1448 64.7783 83.5991 63.0521 84.6246 61.7773C85.8805 60.2157 88.5005 60.4132 90.6595 60.5073C96.6992 60.7754 102.631 58.861 108.675 58.4423C109.254 58.4 109.978 58.4423 110.204 58.908C110.688 59.8911 109.766 61.6127 109.795 62.6946C109.809 63.3578 110.298 64.3127 110.067 64.9571C109.301 67.0973 105.312 65.5404 103.595 65.3334C97.4518 64.5996 91.8402 66.1848 85.8005 66.7069L85.8052 66.7163Z" fill="#A2C6C6"/>
<path d="M82.1167 67.0775C81.5616 67.4397 80.8137 67.4727 80.1317 67.3974C79.4496 67.3221 78.777 67.1669 78.0902 67.2045C77.4976 67.2375 76.9237 67.4162 76.3357 67.4962C75.7478 67.5761 75.0892 67.5338 74.6518 67.1951C74.092 66.7624 74.0685 66.0145 74.0826 65.356C74.1014 64.6033 74.1297 63.8084 74.5906 63.1687C75.2633 62.2326 76.6274 61.9034 77.8692 61.7105C78.6077 61.5976 79.3509 61.5036 80.0988 61.4283C81.1054 61.3295 82.2343 61.2966 83.001 61.861C83.1703 61.9833 83.3209 62.1433 83.3538 62.3361C83.382 62.4866 83.335 62.6372 83.2879 62.783C82.9069 64.0013 82.9681 66.1838 82.1214 67.0728L82.1167 67.0775Z" fill="#A2C6C6"/>
<path d="M65.0562 66.5017C64.8022 66.1537 64.9621 65.6739 65.2584 65.3446C65.8558 64.6767 66.853 64.4133 67.7797 64.1875C69.0732 63.877 70.3667 63.5619 71.665 63.2514C74.9435 62.4612 73.3442 65.5657 71.8343 66.5582C70.616 67.3625 65.917 67.6636 65.0562 66.5017Z" fill="#A2C6C6"/>
<path d="M186.8 73.9709C204.147 74.4365 221.481 75.2127 238.8 76.2945V68.284C214.378 67.1974 189.97 66.3837 165.647 68.3263C167.03 70.1514 168.418 71.9718 169.8 73.7968C170.826 75.1468 172.181 76.652 173.94 76.5203C174.923 76.4498 175.765 75.8618 176.626 75.4149C179.664 73.8392 183.329 73.8768 186.8 73.9709Z" fill="#A2C6C6"/>
<path d="M238.8 90.4488C227.041 90.4723 215.291 89.1505 203.597 87.8288C194.128 86.7563 184.246 85.5427 176.381 80.4673C174.067 78.9715 170.548 77.297 168.93 79.4466C168.178 80.4438 168.37 81.7938 168.135 82.9933C167.58 85.8061 164.763 87.6077 162.811 89.8044C160.859 91.9963 160.087 95.9522 162.806 97.2505C163.577 97.6221 164.471 97.6691 165.337 97.7114C189.796 98.9156 214.378 100.106 238.8 99.005V90.4488Z" fill="#A2C6C6"/>
<path d="M155.2 83.0739C153.436 84.692 152.246 86.8887 151.879 89.2123C151.776 87.1709 151.658 85.0683 150.778 83.2056C150.322 82.2413 149.678 81.3711 149.104 80.468C147.904 78.5818 147.001 76.5121 146.441 74.3672C146.027 72.7773 145.618 70.9099 144.085 70.2137C144.645 69.0049 145.407 67.8901 146.333 66.9211C145.397 69.3529 146.517 72.0341 147.617 74.4001C148.408 76.0982 149.198 77.8009 149.988 79.499C150.487 80.5715 151.014 81.6769 151.921 82.453C153.652 83.9253 155.487 83.0551 156.907 81.691C157.928 80.7126 158.342 79.1839 157.956 77.848C159.019 79.0192 160.637 81.1171 160.619 82.7352C159.471 82.5753 158.874 80.4257 158.511 79.5413C157.914 78.0785 157.444 76.5686 156.95 75.068C156 72.1846 154.96 69.2259 152.867 66.9164C152.189 66.1685 151.39 65.4676 151.042 64.5316C150.995 64.3999 150.952 64.254 150.995 64.1223C151.103 63.7837 151.592 63.7837 151.95 63.8683C154.08 64.3622 156.061 65.4112 157.665 66.8552C158.253 67.3821 159.494 68.2711 158.808 69.0895C158.055 69.988 156.893 69.3906 156.729 70.9381C156.465 73.3888 157.599 75.7501 158.704 77.9703L160.906 82.3871C161.221 83.0174 161.616 83.7183 162.321 83.8876C162.604 83.9582 162.923 83.9347 163.154 84.1087C163.549 84.4098 163.38 85.0119 163.173 85.4587C162.655 86.5782 162.133 87.7024 161.616 88.8219C161.705 87.4437 161.79 86.0138 161.272 84.7249C160.684 83.2573 160.139 81.6581 158.163 82.2272C157.359 82.4577 156.682 82.9751 156.018 83.4737C154.682 84.4897 153.267 85.6327 152.881 87.232C152.476 88.8925 153.323 90.6282 154.508 91.8888C155.134 92.5567 155.887 93.1494 156.776 93.4081C157.665 93.6668 158.718 93.5351 159.386 92.9095C159.057 94.6264 158.206 96.2492 156.964 97.5192C157.006 96.4138 156.39 95.3837 155.647 94.5464C154.904 93.7092 154.019 92.9895 153.347 92.0958C152.773 91.3337 152.368 90.4588 152.053 89.5698C151.503 88.027 151.244 86.2019 152.199 84.8613C152.904 83.8782 154.08 83.3985 155.195 82.8293V83.0927L155.2 83.0739Z" fill="#647A80"/>
<defs>
<filter id="filter0_d_1393_13656" x="0.847168" y="0.181641" width="283.714" height="225.561" filterUnits="userSpaceOnUse" color-interpolation-filters="sRGB">
<feFlood flood-opacity="0" result="BackgroundImageFix"/>
<feColorMatrix in="SourceAlpha" type="matrix" values="0 0 0 0 0 0 0 0 0 0 0 0 0 0 0 0 0 0 127 0" result="hardAlpha"/>
<feOffset dx="2" dy="4"/>
<feGaussianBlur stdDeviation="2"/>
<feComposite in2="hardAlpha" operator="out"/>
<feColorMatrix type="matrix" values="0 0 0 0 0 0 0 0 0 0 0 0 0 0 0 0 0 0 0.3 0"/>
<feBlend mode="normal" in2="BackgroundImageFix" result="effect1_dropShadow_1393_13656"/>
<feBlend mode="normal" in="SourceGraphic" in2="effect1_dropShadow_1393_13656" result="shape"/>
</filter>
</defs>
</svg>
