<svg width="127" height="47" viewBox="0 0 127 47" fill="none" xmlns="http://www.w3.org/2000/svg">
<g style="mix-blend-mode:multiply">
<path d="M37.7165 44.9082C37.6576 44.7846 37.6046 44.6552 37.5693 44.5198C37.6046 44.6552 37.6517 44.7846 37.7165 44.9082Z" fill="#F9A678"/>
</g>
<g style="mix-blend-mode:multiply">
<path d="M52.4226 36.3521C52.146 36.3344 51.8694 36.3227 51.5987 36.3109C51.1691 36.2932 50.7336 36.2756 50.304 36.2638C49.6685 36.2462 49.0388 36.2285 48.4032 36.205C44.0896 36.0402 39.7878 35.8578 35.4801 35.5518C31.1665 35.2457 26.8529 35.0162 22.5393 34.7338C19.8793 34.5572 17.2017 34.4336 14.5536 34.1041C12.6645 33.8687 10.7637 33.545 8.95118 32.9565C8.89822 32.9389 8.84525 32.9212 8.78052 32.9036C8.76287 32.9036 8.74521 32.8918 8.72756 32.8859C8.68048 32.8683 8.6334 32.8565 8.58632 32.8388C8.5569 32.8271 8.52159 32.8153 8.48628 32.8035C8.44508 32.7918 8.40977 32.7741 8.3627 32.7623C8.3215 32.7506 8.28619 32.7329 8.245 32.7211C8.2038 32.7094 8.1685 32.6917 8.1273 32.6799C8.08611 32.6623 8.03903 32.6446 7.99783 32.627C7.95664 32.6093 7.92133 32.5976 7.88014 32.5799C7.86248 32.574 7.83894 32.5623 7.82129 32.5564C7.95664 32.7918 8.13319 33.0036 8.34504 33.186C8.67459 33.3096 9.01003 33.4214 9.34547 33.5215C10.3165 33.8098 11.3051 34.0276 12.2997 34.2159C13.8591 34.5043 15.4186 34.722 16.9958 34.8632C21.3211 35.2516 25.6642 35.4694 30.0013 35.7283C34.3325 35.9872 38.6579 36.3462 42.9892 36.5286C45.7845 36.6463 48.5739 36.7523 51.3692 36.87C51.5752 36.8758 51.7811 36.8935 51.9871 36.9053C51.7988 36.8935 51.6105 36.8817 51.4221 36.87C51.7635 36.7111 52.0989 36.5404 52.4285 36.358L52.4226 36.3521Z" fill="#F9A678"/>
</g>
<g style="mix-blend-mode:multiply">
<path d="M7.56291 32.8564C7.33929 32.7505 7.11566 32.6328 6.90381 32.4975C7.11566 32.6328 7.3334 32.7446 7.56291 32.8564Z" fill="#F9A678"/>
</g>
<g style="mix-blend-mode:multiply">
<path d="M95.7413 30.1375C95.1469 30.1139 94.5526 30.0963 93.9582 30.0727C91.8985 29.9845 89.827 29.8315 87.7791 29.9786C87.6555 30.008 87.5319 30.0433 87.4084 30.0727C87.2671 30.2552 87.1082 30.4199 86.9435 30.5788C86.914 30.6024 86.8846 30.6259 86.8611 30.6553C86.867 30.6553 86.8787 30.6553 86.8846 30.6553C86.5962 31.0437 86.2843 31.4086 85.9607 31.7617C85.9607 31.7617 85.9607 31.7735 85.9548 31.7793C85.9077 31.8323 85.8548 31.8794 85.8018 31.9324C85.5723 32.1795 85.3369 32.4208 85.0956 32.6562C85.025 32.7268 84.9544 32.7974 84.8779 32.868C84.5777 33.1564 84.2776 33.4389 83.9716 33.7213C82.7181 34.8748 81.4588 36.0517 80.0994 37.0816C77.1158 39.3473 73.579 40.4301 70.0069 41.4011C66.1876 42.4427 62.4095 43.602 58.6197 44.726C57.7016 44.9967 56.7777 45.2674 55.8597 45.5499C54.9475 45.8324 54.0177 46.1148 53.0585 46.1737C52.0698 46.2325 51.0812 45.9971 50.1043 45.8618C49.1627 45.7323 48.2152 45.6146 47.2678 45.5381C46.2615 45.4557 45.2493 45.4028 44.2371 45.4145C43.2014 45.4263 42.1774 45.5499 41.1417 45.597C40.7297 45.6205 40.2295 45.6676 39.7646 45.6087C39.5645 45.6264 39.3585 45.6205 39.1643 45.5911C39.0878 45.5793 39.0113 45.5617 38.9348 45.5381C38.9113 45.5322 38.8878 45.5205 38.8583 45.5087C38.8054 45.491 38.7583 45.4734 38.7112 45.4499C38.6818 45.4381 38.6524 45.4204 38.6288 45.4028C38.5876 45.3792 38.5464 45.3557 38.5052 45.3322C38.4758 45.3145 38.4523 45.291 38.4229 45.2674C38.3875 45.238 38.3522 45.2145 38.3228 45.185C38.2993 45.1615 38.2757 45.1321 38.2522 45.1085C38.2228 45.0791 38.1933 45.0438 38.1698 45.0144C38.1463 44.985 38.1286 44.9555 38.111 44.9202C38.0874 44.8849 38.0698 44.8496 38.0521 44.8143C38.0344 44.779 38.0227 44.7437 38.0109 44.7084C37.9991 44.6672 37.9874 44.6319 37.9756 44.5907C37.9756 44.5907 37.9756 44.5848 37.9756 44.5789C37.9168 44.8202 37.905 45.0556 37.9638 45.2792C37.8756 45.1733 37.8049 45.0556 37.7461 44.9379C37.905 45.2557 38.1463 45.5322 38.4699 45.7147C38.723 45.8618 38.9996 45.9265 39.2879 45.956C39.6587 46.0795 40.0706 46.109 40.459 46.109C41.5359 46.109 42.607 45.9736 43.678 45.9206C45.726 45.8206 47.7974 46.0207 49.8277 46.2914C50.7928 46.4091 51.7932 46.6562 52.7819 46.6562C53.6999 46.6562 54.5944 46.4503 55.4654 46.1913C59.4318 45.0203 63.3805 43.7609 67.3587 42.6251C70.9779 41.5953 74.7795 40.8832 78.1338 39.106C79.7463 38.2527 81.1469 37.0934 82.5004 35.8811C83.8127 34.7041 85.1427 33.533 86.2667 32.1736C86.6786 31.6793 87.0494 31.1614 87.3731 30.6083C88.4441 30.5259 89.521 30.5376 90.5921 30.5788C90.5273 30.5788 90.4685 30.573 90.4037 30.573C92.1751 30.3729 93.9523 30.2375 95.7295 30.1434L95.7413 30.1375Z" fill="#F9A678"/>
</g>
<g style="mix-blend-mode:multiply">
<path d="M54.518 37.123C54.0001 37.0524 53.4822 36.9936 52.9585 36.9524C53.4822 36.9936 54.0001 37.0465 54.518 37.123Z" fill="#F9A678"/>
</g>
<path d="M11.5526 18.5265C12.1411 18.4794 12.7296 18.4264 13.324 18.3852C14.0713 18.3322 14.8187 18.3205 15.5661 18.2911C17.2904 18.2204 19.0146 18.1263 20.7389 18.0321C22.4631 17.938 24.1874 17.8262 25.9175 17.7732C27.6418 17.7202 29.372 17.6967 31.0962 17.6614C32.5733 17.632 34.0504 17.5731 35.5275 17.5437C36.6103 17.5201 37.752 17.5143 38.7936 17.167C39.2467 17.0199 39.6999 16.7845 39.9706 16.3785C40.3295 15.8371 40.2825 15.1132 40.0883 14.5189C39.947 14.0834 39.694 13.6891 39.2938 13.4478C38.876 13.2007 38.3758 13.1418 37.8991 13.1242C37.1046 13.0947 36.3161 13.0888 35.5275 13.1536C34.6919 13.2183 33.8621 13.336 33.0323 13.4478C31.3257 13.6891 29.6191 13.8303 27.8949 13.9539C26.2412 14.0716 24.5993 14.254 22.9516 14.3659C21.3568 14.4777 19.7561 14.5483 18.1613 14.6307C14.9894 14.7955 11.7998 14.9955 8.6867 15.6429C7.92756 15.8018 7.1743 15.9842 6.42692 16.2019C5.83843 16.3726 5.19699 16.5256 4.65558 16.8257C4.37899 16.9787 4.06709 17.2671 4.29072 17.5966C4.42607 17.7967 4.66735 17.9144 4.8792 18.0086C5.21464 18.1557 5.56185 18.2852 5.91494 18.3793C6.89182 18.6383 7.91579 18.6795 8.93387 18.65C9.81071 18.65 10.6934 18.5912 11.5644 18.5206L11.5526 18.5265ZM9.68713 18.4029C9.72832 18.3911 9.7754 18.3852 9.81659 18.3793C10.9053 18.1498 11.9822 17.8791 13.0709 17.6437C14.2185 17.3966 15.3778 17.1906 16.5371 17.0552C18.8851 16.7786 21.2567 16.7433 23.6166 16.6374C25.9529 16.5315 28.295 16.4609 30.6313 16.4432C32.6675 16.4256 34.6977 16.455 36.7339 16.5315C32.9029 16.9022 29.0424 16.8963 25.2055 17.1847C24.105 17.2671 22.9987 17.3671 21.9041 17.5201C20.9272 17.6614 19.9444 17.7908 18.9617 17.9085C16.9255 18.1439 14.8776 18.3205 12.8296 18.3911C11.7821 18.4264 10.7346 18.4323 9.68124 18.4088L9.68713 18.4029Z" fill="#FBD0B4"/>
<path d="M14.6359 26.6303C16.5603 26.6421 18.4846 26.6303 20.409 26.6244C24.2812 26.6009 28.1534 26.5303 32.0198 26.3066C33.3144 26.2301 34.6032 26.1419 35.892 26.0654C36.9866 26.0006 38.1282 25.9124 39.164 25.524C39.9349 25.2356 40.7117 24.7001 40.7647 23.8056C40.8 23.1759 40.3292 22.7345 39.8054 22.4815C39.0757 22.1225 38.2401 21.993 37.4397 21.9048C36.5276 21.8047 35.6095 21.7753 34.6974 21.7812C34.0265 21.7812 33.3556 21.8106 32.6789 21.8283C31.1312 21.8753 29.5776 21.8636 28.0298 21.8636C24.1458 21.8695 20.2618 21.84 16.3778 21.9636C14.4417 22.0225 12.5056 22.1284 10.5695 22.2873C8.88053 22.4285 7.16804 22.5109 5.50263 22.8228C4.6964 22.9758 3.90195 23.1877 3.14869 23.5054C2.61316 23.735 1.9011 24.0233 1.64216 24.5941C1.38912 25.1591 1.75398 25.624 2.24242 25.9712C2.82502 26.6656 3.8431 26.8716 4.73171 26.9069C6.11465 26.9716 7.49171 26.7068 8.86876 26.6362C10.7872 26.5361 12.7116 26.6126 14.63 26.6303H14.6359ZM7.8036 26.0536C8.93938 25.8241 10.0752 25.5887 11.2286 25.4533C12.4585 25.3121 13.6943 25.2474 14.9302 25.2238C17.4371 25.1885 19.9323 25.4121 22.4392 25.4651C24.9638 25.5181 27.4884 25.4828 30.0189 25.4239C32.414 25.3651 34.8092 25.2886 37.2043 25.2356C33.0261 26.1183 28.7301 26.1831 24.4695 26.1183C22.1214 26.083 19.7734 26.0477 17.4253 26.0183C15.042 25.9947 12.6527 25.83 10.2694 25.9477C9.24539 26.0006 8.21554 26.1007 7.18569 26.1713C7.39166 26.1301 7.60352 26.0889 7.80949 26.0477L7.8036 26.0536Z" fill="#FBD0B4"/>
<path d="M38.4994 45.3262C38.4994 45.3262 38.4464 45.285 38.417 45.2614C38.4464 45.285 38.47 45.3026 38.4994 45.3262Z" fill="#FBD0B4"/>
<path d="M7.82129 32.5507C7.82129 32.5507 7.86248 32.5683 7.88014 32.5742C7.86248 32.5683 7.83894 32.5566 7.82129 32.5507Z" fill="#FBD0B4"/>
<path d="M38.3109 45.1797C38.3109 45.1797 38.2638 45.1267 38.2402 45.1032C38.2638 45.1326 38.2873 45.1561 38.3109 45.1797Z" fill="#FBD0B4"/>
<path d="M26.9533 6.85673C25.6999 7.0215 24.4464 7.2157 23.1988 7.42755C21.963 7.63941 20.7389 7.89246 19.509 8.10431C18.3438 8.3044 17.1727 8.47506 16.0193 8.71634C15.0012 8.92819 13.9831 9.18713 13.0357 9.61083C12.7238 9.75207 12.406 9.89331 12.1235 10.0875C11.8881 10.2523 11.6174 10.4759 11.5939 10.7819C11.5233 11.5823 12.6943 11.3292 13.1534 11.3292C13.3593 11.3292 13.5653 11.3292 13.7713 11.3292C14.2009 11.3292 14.6246 11.3292 15.0542 11.3057C15.0895 11.3057 15.1248 11.2998 15.166 11.2939C16.9432 11.2292 18.7145 11.0879 20.4859 10.8996C23.0281 10.6348 25.5586 10.2935 28.1009 10.0228C30.6608 9.74619 33.2148 9.49314 35.7806 9.25774C36.7104 9.17536 37.652 9.11651 38.5818 9.0047C39.3704 8.91054 40.2766 8.73988 40.8004 8.08077C41.0593 7.75711 41.2123 7.35105 41.1476 6.93323C41.0829 6.55071 40.8298 6.22705 40.5003 6.03873C40.0883 5.80334 39.5646 5.74449 39.0997 5.68564C38.5524 5.61502 37.9992 5.59148 37.446 5.59737C35.1804 5.63268 32.9677 6.1682 30.7255 6.42713C29.4779 6.56837 28.2245 6.67429 26.9769 6.83907L26.9533 6.85673ZM39.1526 7.96308C35.9395 8.63395 32.6911 9.14593 29.4309 9.5461C26.7591 9.87565 24.0815 10.1346 21.398 10.3406C21.7923 10.2405 22.1807 10.1346 22.575 10.0345C24.3699 9.56376 26.1589 9.11062 27.9832 8.75753C29.8487 8.39856 31.7377 8.11608 33.6326 7.95719C35.4628 7.80418 37.3225 7.75122 39.1526 7.95719V7.96308Z" fill="#FBD0B4"/>
<path d="M8.57465 32.832C8.54523 32.8203 8.50992 32.8085 8.47461 32.7967C8.50992 32.8085 8.53934 32.8203 8.57465 32.832Z" fill="#FBD0B4"/>
<path d="M104.675 12.3296C102.78 12.3355 100.885 12.3767 98.99 12.3119C97.4834 12.259 95.9769 12.1766 94.4763 12.2943C93.1404 12.3943 91.5809 12.6062 90.557 13.5536C89.6448 14.4011 89.2682 15.6487 89.1034 16.8492C89.0916 16.9551 89.0799 17.0551 89.0681 17.1611C88.715 16.2783 88.2266 15.4486 87.6793 14.6835C86.7848 13.4183 85.7196 12.2649 84.5544 11.2468C83.4598 10.2876 82.2711 9.4519 80.9647 8.79869C79.4287 8.03366 77.7986 7.45694 76.145 7.00969C75.2917 6.70368 74.4383 6.40944 73.5733 6.14462C71.5371 5.52671 69.4598 5.03827 67.3648 4.64987C63.2983 3.89661 59.1848 3.53175 55.0537 3.34932C53.3941 3.2787 51.6757 3.10215 50.0456 3.53763C49.2571 3.74949 48.5097 4.12023 47.9036 4.67929C47.2562 5.27954 46.7384 6.04458 46.3205 6.81549C45.426 8.45737 44.9376 10.2934 44.561 12.1177C44.2373 13.689 43.9901 15.2661 43.8783 16.8668C43.6429 20.2094 43.8548 23.5991 44.5492 26.877C45.1553 29.7488 46.1558 32.6147 47.7859 35.0804C47.6152 34.8862 47.4504 34.6861 47.2915 34.4861C46.297 33.2326 45.4849 31.8732 44.714 30.4785C44.4256 29.9606 44.1431 29.3957 43.7135 28.972C43.3663 28.6306 42.9367 28.4717 42.4601 28.4188C41.6656 28.3305 40.8417 28.4541 40.0473 28.5306C38.8173 28.6483 37.5874 28.7778 36.3575 28.9072C35.1099 29.0426 33.8564 29.172 32.6088 29.3074C31.3495 29.4369 30.0842 29.6016 28.819 29.6664C26.312 29.8017 23.811 30.0136 21.304 30.1607C20.0741 30.2313 18.8383 30.2961 17.6025 30.2961C16.4196 30.2961 15.2309 30.2195 14.048 30.1842C12.8828 30.1489 11.7117 30.1548 10.5524 30.3196C9.79326 30.4255 8.99292 30.555 8.32793 30.9552C7.85125 31.2435 7.54524 31.6849 7.66294 32.2027C8.50447 32.6735 9.48136 32.9795 10.3052 33.1973C12.8651 33.8623 15.5486 34.0565 18.1792 34.2036C21.6042 34.3919 25.0233 34.6273 28.4482 34.7097C30.9081 34.7685 33.368 34.798 35.8278 34.8745C38.2818 34.951 40.7358 35.0981 43.1839 35.2923C45.2907 35.4571 47.3975 35.6395 49.4925 35.9161C50.2222 36.0102 50.9578 36.1162 51.6757 36.2692C51.7581 36.2868 51.8405 36.3045 51.9229 36.3221C51.8111 36.3163 51.6934 36.3163 51.5816 36.3104C51.8582 36.3221 52.1348 36.3339 52.4055 36.3516C53.9355 35.5041 55.3302 34.3978 56.6308 33.2091C57.6783 32.2557 58.6846 31.2612 59.7203 30.3019C60.8385 29.2721 62.0095 28.3129 63.2512 27.4419C65.5934 25.7883 68.1474 24.4289 70.7897 23.3225C72.6376 22.5516 74.6031 21.9984 76.5804 21.6924C77.6456 21.5276 78.7343 21.4393 79.8112 21.5394C80.1467 21.5688 80.488 21.6218 80.8234 21.7042C79.9289 21.8042 79.058 22.0867 78.2341 22.4574C76.8335 23.0812 75.5506 23.9522 74.303 24.8408C73.6616 25.2998 73.0142 25.7529 72.3963 26.2473C72.0079 26.5533 71.6254 26.877 71.2547 27.2006C70.0659 27.948 68.9242 28.7778 67.8355 29.6723C66.4526 30.808 65.1579 32.0438 63.928 33.3503C62.7275 34.6273 61.5976 35.9749 60.3029 37.1637C58.9612 38.3936 57.4488 39.3646 55.7069 39.906C53.8473 40.4886 51.8935 40.6652 49.9574 40.8005C48.3743 40.9123 46.7854 41.0006 45.2024 41.1242C43.7783 41.236 42.3188 41.4125 40.9712 41.9127C39.8178 42.3423 38.5996 43.0838 38.0582 44.2373C38.0288 44.302 38.0111 44.3608 37.9876 44.4256C39.294 44.7551 41.4184 44.661 41.8127 44.6492C42.666 44.6198 43.5193 44.555 44.3726 44.5256C46.9973 44.4256 49.5866 44.8493 52.2054 44.9317C53.4647 44.9729 54.6888 44.9023 55.9128 44.5962C57.1781 44.2843 58.4198 43.8606 59.6674 43.4958C62.2214 42.7543 64.8107 42.1481 67.3294 41.2772C71.902 39.6942 76.551 38.1229 80.4997 35.2511C82.3417 33.9152 84.066 32.344 85.4371 30.5197C86.1492 29.5722 86.6906 28.5247 87.2438 27.4772C86.979 28.9484 86.5258 30.3843 85.9197 31.7673C86.2434 31.4083 86.5611 31.0434 86.8436 30.6609C86.8377 30.6609 86.826 30.6609 86.8201 30.6609C86.8495 30.6374 86.8789 30.6138 86.9025 30.5844C87.0672 30.4314 87.2261 30.2607 87.3674 30.0783C87.491 30.0489 87.6145 30.0136 87.7381 29.9842C89.786 29.837 91.8575 29.9842 93.9172 30.0783C94.5116 30.1018 95.106 30.1195 95.7003 30.143C102.438 29.7782 109.206 30.0842 115.938 30.4549C119.322 30.6433 122.706 30.8375 126.09 30.9669L126.125 27.7538C122.323 27.6949 118.528 27.6361 114.726 27.5831C107.57 27.4831 100.408 27.4007 93.2522 27.3889C95.0765 26.877 96.995 26.6474 98.8723 26.5297C101.862 26.3473 104.863 26.4768 107.858 26.5415C113.949 26.6769 120.052 26.3826 126.143 26.1355L126.302 11.9824C123.442 12.0295 120.576 12.0707 117.716 12.1119C113.355 12.1766 109 12.3178 104.639 12.3355L104.675 12.3296ZM70.778 14.4305C68.0356 14.1245 65.2815 13.5713 62.6922 12.6062C61.4446 12.1413 60.2382 11.5705 59.073 10.9349C57.8784 10.2817 56.7485 9.53429 55.5774 8.83988C55.4715 8.77515 55.495 8.56918 55.6304 8.64568C56.3895 9.08705 57.1722 9.50487 57.9608 9.90504C57.59 9.71084 57.2193 9.50487 56.8603 9.28125C58.667 10.0463 60.5678 10.5877 62.4862 10.9996C65.9112 11.7293 69.395 12.0648 72.8494 12.6062C74.5502 12.871 76.245 13.1888 77.9104 13.636C76.3686 13.9479 74.7856 14.0303 73.2143 13.9656C71.4253 13.895 69.6422 13.6419 67.8885 13.2594C66.3349 12.9181 64.799 12.4767 63.2748 12.0118C61.78 11.5528 60.3029 11.029 58.8906 10.3699C59.126 10.4876 59.3614 10.6112 59.5968 10.723C62.0213 11.8882 64.54 12.718 67.1764 13.2359C69.8599 13.7655 72.5905 13.9832 75.3152 14.2069C75.5565 14.2245 75.7389 14.7071 75.4211 14.7071C73.8675 14.7071 72.3198 14.607 70.778 14.4364V14.4305Z" fill="#FBD0B4"/>
<path d="M8.35744 32.7559C8.32213 32.7441 8.28094 32.7264 8.23975 32.7147C8.28094 32.7264 8.31625 32.7441 8.35744 32.7559Z" fill="#FBD0B4"/>
<path d="M8.77464 32.8975C8.77464 32.8975 8.73933 32.8857 8.72168 32.8798C8.73933 32.8798 8.75699 32.8916 8.77464 32.8975Z" fill="#FBD0B4"/>
<path d="M38.158 45.0029C38.1344 44.9735 38.1168 44.9441 38.0991 44.9088C38.1168 44.9382 38.1344 44.9735 38.158 45.0029Z" fill="#FBD0B4"/>
<path d="M38.7049 45.4502C38.7049 45.4502 38.6461 45.4208 38.6226 45.4031C38.652 45.4208 38.6755 45.4384 38.7049 45.4502Z" fill="#FBD0B4"/>
<path d="M84.8657 32.8742C84.5656 33.1626 84.2655 33.4451 83.9595 33.7275C84.2655 33.451 84.5656 33.1626 84.8657 32.8742Z" fill="#FBD0B4"/>
<path d="M38.929 45.5381C38.929 45.5381 38.882 45.5204 38.8525 45.5087C38.8761 45.5204 38.8996 45.5322 38.929 45.5381Z" fill="#FBD0B4"/>
<path d="M107.899 26.5416C104.904 26.4769 101.908 26.3474 98.913 26.5299C97.0299 26.6417 95.1173 26.8712 93.293 27.389C100.449 27.3949 107.611 27.4832 114.767 27.5832C118.563 27.6362 122.364 27.7009 126.166 27.7539L126.183 26.1356C120.093 26.3886 113.996 26.6829 107.899 26.5416Z" fill="#FBD0B4"/>
<g style="mix-blend-mode:screen" opacity="0.43">
<path d="M107.899 26.5416C104.904 26.4769 101.908 26.3474 98.913 26.5299C97.0299 26.6417 95.1173 26.8712 93.293 27.389C100.449 27.3949 107.611 27.4832 114.767 27.5832C118.563 27.6362 122.364 27.7009 126.166 27.7539L126.183 26.1356C120.093 26.3886 113.996 26.6829 107.899 26.5416Z" fill="#FBD0B4"/>
</g>
<path d="M63.2748 12.0065C64.7931 12.4714 66.335 12.9187 67.8886 13.2541C69.6422 13.6366 71.4195 13.8897 73.2143 13.9603C74.7856 14.025 76.3686 13.9485 77.9105 13.6307C76.2451 13.1835 74.5502 12.8657 72.8495 12.6009C69.3951 12.0595 65.9054 11.7181 62.4863 10.9943C60.5678 10.5883 58.6611 10.0468 56.8604 9.27593C57.2193 9.49955 57.5901 9.70552 57.9608 9.89972C58.2668 10.0586 58.5787 10.2116 58.8906 10.3587C60.3089 11.0178 61.786 11.5416 63.2748 12.0006V12.0065Z" fill="#FBD0B4"/>
<g style="mix-blend-mode:screen">
<path d="M63.2748 12.0065C64.7931 12.4714 66.335 12.9187 67.8886 13.2541C69.6422 13.6366 71.4195 13.8897 73.2143 13.9603C74.7856 14.025 76.3686 13.9485 77.9105 13.6307C76.2451 13.1835 74.5502 12.8657 72.8495 12.6009C69.3951 12.0595 65.9054 11.7181 62.4863 10.9943C60.5678 10.5883 58.6611 10.0468 56.8604 9.27593C57.2193 9.49955 57.5901 9.70552 57.9608 9.89972C58.2668 10.0586 58.5787 10.2116 58.8906 10.3587C60.3089 11.0178 61.786 11.5416 63.2748 12.0006V12.0065Z" fill="#FBD0B4"/>
</g>
<path d="M18.9674 17.9031C19.9502 17.7912 20.9271 17.6559 21.9098 17.5147C23.0044 17.3617 24.1108 17.2616 25.2112 17.1792C29.0481 16.8909 32.9086 16.8967 36.7396 16.526C34.7035 16.4554 32.6732 16.426 30.6371 16.4377C28.2949 16.4554 25.9586 16.526 23.6223 16.6319C21.2625 16.7379 18.8909 16.7732 16.5428 17.0498C15.3776 17.1851 14.2183 17.397 13.0767 17.6382C11.988 17.8736 10.911 18.1443 9.82234 18.3738C9.78114 18.3856 9.73407 18.3915 9.69287 18.3974C10.7404 18.4268 11.7938 18.415 12.8413 18.3797C14.8892 18.3091 16.9371 18.1326 18.9733 17.8972L18.9674 17.9031Z" fill="#FBD0B4"/>
<g style="mix-blend-mode:screen">
<path d="M18.9674 17.9031C19.9502 17.7912 20.9271 17.6559 21.9098 17.5147C23.0044 17.3617 24.1108 17.2616 25.2112 17.1792C29.0481 16.8909 32.9086 16.8967 36.7396 16.526C34.7035 16.4554 32.6732 16.426 30.6371 16.4377C28.2949 16.4554 25.9586 16.526 23.6223 16.6319C21.2625 16.7379 18.8909 16.7732 16.5428 17.0498C15.3776 17.1851 14.2183 17.397 13.0767 17.6382C11.988 17.8736 10.911 18.1443 9.82234 18.3738C9.78114 18.3856 9.73407 18.3915 9.69287 18.3974C10.7404 18.4268 11.7938 18.415 12.8413 18.3797C14.8892 18.3091 16.9371 18.1326 18.9733 17.8972L18.9674 17.9031Z" fill="#FBD0B4"/>
</g>
<path d="M17.4198 26.0179C19.7679 26.0414 22.116 26.0826 24.464 26.1179C28.7246 26.1826 33.0206 26.1179 37.1988 25.2352C34.8037 25.2823 32.4086 25.3646 30.0134 25.4235C27.4888 25.4823 24.9642 25.5177 22.4337 25.4647C19.9327 25.4117 17.4316 25.1881 14.9247 25.2234C13.6888 25.2411 12.453 25.3117 11.2231 25.4529C10.0697 25.5824 8.93389 25.8237 7.79811 26.0532C7.59214 26.0944 7.38029 26.1356 7.17432 26.1768C8.20417 26.112 9.23401 26.0061 10.258 25.9531C12.6413 25.8354 15.0306 26.0002 17.414 26.0238L17.4198 26.0179Z" fill="#FBD0B4"/>
<g style="mix-blend-mode:screen">
<path d="M17.4198 26.0179C19.7679 26.0414 22.116 26.0826 24.464 26.1179C28.7246 26.1826 33.0206 26.1179 37.1988 25.2352C34.8037 25.2823 32.4086 25.3646 30.0134 25.4235C27.4888 25.4823 24.9642 25.5177 22.4337 25.4647C19.9327 25.4117 17.4316 25.1881 14.9247 25.2234C13.6888 25.2411 12.453 25.3117 11.2231 25.4529C10.0697 25.5824 8.93389 25.8237 7.79811 26.0532C7.59214 26.0944 7.38029 26.1356 7.17432 26.1768C8.20417 26.112 9.23401 26.0061 10.258 25.9531C12.6413 25.8354 15.0306 26.0002 17.414 26.0238L17.4198 26.0179Z" fill="#FBD0B4"/>
</g>
<g style="mix-blend-mode:multiply">
<path d="M51.5935 36.3105C51.1639 36.2929 50.7284 36.2752 50.2988 36.2635C50.7343 36.2752 51.1639 36.2929 51.5935 36.3105Z" fill="#F9A678"/>
</g>
<g style="mix-blend-mode:screen">
<path d="M51.5935 36.3105C51.1639 36.2929 50.7284 36.2752 50.2988 36.2635C50.7343 36.2752 51.1639 36.2929 51.5935 36.3105Z" fill="#FBD0B4"/>
</g>
<g style="mix-blend-mode:multiply">
<path d="M8.7218 32.8799C8.67472 32.8622 8.62765 32.8505 8.58057 32.8328C8.63353 32.8505 8.68061 32.8622 8.7218 32.8799Z" fill="#F9A678"/>
</g>
<g style="mix-blend-mode:screen">
<path d="M8.7218 32.8799C8.67472 32.8622 8.62765 32.8505 8.58057 32.8328C8.63353 32.8505 8.68061 32.8622 8.7218 32.8799Z" fill="#FBD0B4"/>
</g>
<g style="mix-blend-mode:multiply">
<path d="M8.94556 32.9561C8.8926 32.9384 8.83964 32.9207 8.7749 32.9031C8.83375 32.9207 8.8926 32.9443 8.94556 32.9561Z" fill="#F9A678"/>
</g>
<g style="mix-blend-mode:screen">
<path d="M8.94556 32.9561C8.8926 32.9384 8.83964 32.9207 8.7749 32.9031C8.83375 32.9207 8.8926 32.9443 8.94556 32.9561Z" fill="#FBD0B4"/>
</g>
<g style="mix-blend-mode:multiply">
<path d="M8.48052 32.7969C8.43932 32.7851 8.39813 32.7674 8.35693 32.7557C8.39813 32.7733 8.43932 32.7851 8.48052 32.7969Z" fill="#F9A678"/>
</g>
<g style="mix-blend-mode:screen">
<path d="M8.48052 32.7969C8.43932 32.7851 8.39813 32.7674 8.35693 32.7557C8.39813 32.7733 8.43932 32.7851 8.48052 32.7969Z" fill="#FBD0B4"/>
</g>
<g style="mix-blend-mode:multiply">
<path d="M8.23928 32.7148C8.19808 32.7031 8.16278 32.6854 8.12158 32.6736C8.16278 32.6913 8.19808 32.7031 8.23928 32.7148Z" fill="#F9A678"/>
</g>
<g style="mix-blend-mode:screen">
<path d="M8.23928 32.7148C8.19808 32.7031 8.16278 32.6854 8.12158 32.6736C8.16278 32.6913 8.19808 32.7031 8.23928 32.7148Z" fill="#FBD0B4"/>
</g>
<path d="M51.693 36.2694C50.9691 36.1163 50.2394 36.0104 49.5097 35.9163C47.4147 35.6456 45.3079 35.4631 43.2011 35.2925C40.753 35.0983 38.3049 34.9511 35.8451 34.8746C33.3852 34.7981 30.9253 34.7687 28.4655 34.7099C25.0346 34.6275 21.6155 34.3921 18.1964 34.2038C15.56 34.0566 12.8824 33.8624 10.3225 33.1975C9.50448 32.9856 8.52759 32.6796 7.68018 32.2029C7.69783 32.2912 7.72725 32.3736 7.77433 32.4619C7.79199 32.4913 7.81553 32.5148 7.8273 32.5442C7.84495 32.5501 7.86849 32.5619 7.88615 32.5678C7.92734 32.5854 7.96265 32.5972 8.00384 32.6149C8.04504 32.6325 8.09212 32.6502 8.13331 32.6678C8.1745 32.6855 8.2157 32.6972 8.25101 32.709C8.2922 32.7208 8.32751 32.7384 8.3687 32.7502C8.4099 32.762 8.45109 32.7796 8.49229 32.7914C8.52759 32.8032 8.55702 32.8149 8.59233 32.8267C8.64529 32.8444 8.69237 32.862 8.73356 32.8738C8.75122 32.8738 8.76887 32.8856 8.78653 32.8914C8.84538 32.9091 8.90422 32.9326 8.95719 32.9444C10.7697 33.5329 12.6705 33.8566 14.5596 34.092C17.2078 34.4215 19.8854 34.551 22.5453 34.7216C26.8589 35.0041 31.1725 35.2336 35.4861 35.5396C39.7938 35.8456 44.0956 36.0281 48.4092 36.1928C49.0448 36.2164 49.6745 36.234 50.31 36.2517C50.7455 36.2635 51.1751 36.2811 51.6047 36.2988C51.7165 36.2988 51.8342 36.3047 51.946 36.3105C51.8636 36.2929 51.7813 36.2752 51.6989 36.2576L51.693 36.2694Z" fill="#FBD0B4"/>
<g style="mix-blend-mode:screen">
<path d="M51.693 36.2694C50.9691 36.1163 50.2394 36.0104 49.5097 35.9163C47.4147 35.6456 45.3079 35.4631 43.2011 35.2925C40.753 35.0983 38.3049 34.9511 35.8451 34.8746C33.3852 34.7981 30.9253 34.7687 28.4655 34.7099C25.0346 34.6275 21.6155 34.3921 18.1964 34.2038C15.56 34.0566 12.8824 33.8624 10.3225 33.1975C9.50448 32.9856 8.52759 32.6796 7.68018 32.2029C7.69783 32.2912 7.72725 32.3736 7.77433 32.4619C7.79199 32.4913 7.81553 32.5148 7.8273 32.5442C7.84495 32.5501 7.86849 32.5619 7.88615 32.5678C7.92734 32.5854 7.96265 32.5972 8.00384 32.6149C8.04504 32.6325 8.09212 32.6502 8.13331 32.6678C8.1745 32.6855 8.2157 32.6972 8.25101 32.709C8.2922 32.7208 8.32751 32.7384 8.3687 32.7502C8.4099 32.762 8.45109 32.7796 8.49229 32.7914C8.52759 32.8032 8.55702 32.8149 8.59233 32.8267C8.64529 32.8444 8.69237 32.862 8.73356 32.8738C8.75122 32.8738 8.76887 32.8856 8.78653 32.8914C8.84538 32.9091 8.90422 32.9326 8.95719 32.9444C10.7697 33.5329 12.6705 33.8566 14.5596 34.092C17.2078 34.4215 19.8854 34.551 22.5453 34.7216C26.8589 35.0041 31.1725 35.2336 35.4861 35.5396C39.7938 35.8456 44.0956 36.0281 48.4092 36.1928C49.0448 36.2164 49.6745 36.234 50.31 36.2517C50.7455 36.2635 51.1751 36.2811 51.6047 36.2988C51.7165 36.2988 51.8342 36.3047 51.946 36.3105C51.8636 36.2929 51.7813 36.2752 51.6989 36.2576L51.693 36.2694Z" fill="#FBD0B4"/>
</g>
<g style="mix-blend-mode:multiply">
<path d="M38.8522 45.5078C38.7992 45.4902 38.7522 45.4725 38.7051 45.449C38.7522 45.4725 38.8051 45.4902 38.8522 45.5078Z" fill="#F9A678"/>
</g>
<g style="mix-blend-mode:screen">
<path d="M38.8522 45.5078C38.7992 45.4902 38.7522 45.4725 38.7051 45.449C38.7522 45.4725 38.8051 45.4902 38.8522 45.5078Z" fill="#FBD0B4"/>
</g>
<g style="mix-blend-mode:multiply">
<path d="M38.4169 45.2676C38.3816 45.2382 38.3463 45.2146 38.3169 45.1852C38.3463 45.2146 38.3816 45.244 38.4169 45.2676Z" fill="#F9A678"/>
</g>
<g style="mix-blend-mode:screen">
<path d="M38.4169 45.2676C38.3816 45.2382 38.3463 45.2146 38.3169 45.1852C38.3463 45.2146 38.3816 45.244 38.4169 45.2676Z" fill="#FBD0B4"/>
</g>
<g style="mix-blend-mode:multiply">
<path d="M38.6226 45.4023C38.5814 45.3788 38.5402 45.3553 38.499 45.3317C38.5402 45.3611 38.5814 45.3788 38.6226 45.4023Z" fill="#F9A678"/>
</g>
<g style="mix-blend-mode:screen">
<path d="M38.6226 45.4023C38.5814 45.3788 38.5402 45.3553 38.499 45.3317C38.5402 45.3611 38.5814 45.3788 38.6226 45.4023Z" fill="#FBD0B4"/>
</g>
<g style="mix-blend-mode:multiply">
<path d="M38.2406 45.1025C38.2112 45.0731 38.1817 45.0378 38.1582 45.0084C38.1817 45.0437 38.2112 45.0731 38.2406 45.1025Z" fill="#F9A678"/>
</g>
<g style="mix-blend-mode:screen">
<path d="M38.2406 45.1025C38.2112 45.0731 38.1817 45.0378 38.1582 45.0084C38.1817 45.0437 38.2112 45.0731 38.2406 45.1025Z" fill="#FBD0B4"/>
</g>
<g style="mix-blend-mode:multiply">
<path d="M85.943 31.7796C85.943 31.7796 85.943 31.7678 85.9489 31.762C85.896 31.8208 85.843 31.8738 85.79 31.9326C85.8371 31.8797 85.8901 31.8326 85.943 31.7796Z" fill="#F9A678"/>
</g>
<g style="mix-blend-mode:screen">
<path d="M85.943 31.7796C85.943 31.7796 85.943 31.7678 85.9489 31.762C85.896 31.8208 85.843 31.8738 85.79 31.9326C85.8371 31.8797 85.8901 31.8326 85.943 31.7796Z" fill="#FBD0B4"/>
</g>
<g style="mix-blend-mode:multiply">
<path d="M85.0839 32.6563C85.0133 32.7269 84.9427 32.7975 84.8662 32.8682C84.9368 32.7975 85.0074 32.7269 85.0839 32.6563Z" fill="#F9A678"/>
</g>
<g style="mix-blend-mode:screen">
<path d="M85.0839 32.6563C85.0133 32.7269 84.9427 32.7975 84.8662 32.8682C84.9368 32.7975 85.0074 32.7269 85.0839 32.6563Z" fill="#FBD0B4"/>
</g>
<path d="M85.4664 30.5197C84.0952 32.344 82.3709 33.9093 80.529 35.2511C76.5743 38.1229 71.9312 39.7 67.3587 41.2772C64.84 42.1481 62.2565 42.7543 59.6966 43.4958C58.4431 43.8547 57.2073 44.2843 55.9421 44.5962C54.718 44.8964 53.4881 44.967 52.2346 44.9317C49.6158 44.8493 47.0265 44.4256 44.4019 44.5256C43.5486 44.555 42.6953 44.6257 41.842 44.6492C41.4477 44.661 39.3232 44.7551 38.0168 44.4256C37.9991 44.4727 37.9815 44.5256 37.9697 44.5727V44.5845C37.9815 44.6257 37.9933 44.6669 38.005 44.7022C38.0168 44.7375 38.0286 44.7728 38.0462 44.8081C38.0639 44.8434 38.0815 44.8787 38.1051 44.914C38.1227 44.9434 38.1404 44.9788 38.1639 45.0082C38.1875 45.0435 38.2169 45.0729 38.2463 45.1023C38.2699 45.1318 38.2934 45.1553 38.3169 45.1788C38.3464 45.2083 38.3817 45.2377 38.417 45.2612C38.4464 45.2848 38.4699 45.3024 38.4994 45.326C38.5406 45.3554 38.5817 45.373 38.6229 45.3966C38.6524 45.4142 38.6759 45.4319 38.7053 45.4437C38.7524 45.4672 38.8054 45.4848 38.8525 45.5025C38.876 45.5143 38.8995 45.526 38.929 45.5319C39.0055 45.5555 39.082 45.5731 39.1585 45.5849C39.3586 45.6143 39.5586 45.6202 39.7587 45.6025C40.2236 45.6555 40.718 45.6084 41.1358 45.5908C42.1656 45.5378 43.1955 45.4142 44.2312 45.4083C45.2434 45.3966 46.2556 45.4495 47.2619 45.5319C48.2094 45.6143 49.1568 45.7261 50.0984 45.8556C51.0753 45.9909 52.0581 46.2263 53.0526 46.1675C54.0118 46.1086 54.9416 45.8262 55.8538 45.5437C56.7718 45.2612 57.6899 44.9905 58.6138 44.7198C62.4036 43.5958 66.1876 42.4306 70.001 41.3949C73.5672 40.4239 77.104 39.3352 80.0935 37.0754C81.4529 36.0455 82.7122 34.8686 83.9657 33.7151C84.2717 33.4386 84.5719 33.1502 84.872 32.8618C84.9426 32.7912 85.0132 32.7206 85.0897 32.65C85.331 32.4146 85.5664 32.1733 85.7959 31.9262C85.8489 31.8673 85.9018 31.8143 85.9548 31.7555C86.5609 30.3726 87.0141 28.9425 87.2789 27.4654C86.7257 28.5071 86.1843 29.5604 85.4722 30.5079L85.4664 30.5197Z" fill="#FBD0B4"/>
<g style="mix-blend-mode:screen">
<path d="M85.4664 30.5197C84.0952 32.344 82.3709 33.9093 80.529 35.2511C76.5743 38.1229 71.9312 39.7 67.3587 41.2772C64.84 42.1481 62.2565 42.7543 59.6966 43.4958C58.4431 43.8547 57.2073 44.2843 55.9421 44.5962C54.718 44.8964 53.4881 44.967 52.2346 44.9317C49.6158 44.8493 47.0265 44.4256 44.4019 44.5256C43.5486 44.555 42.6953 44.6257 41.842 44.6492C41.4477 44.661 39.3232 44.7551 38.0168 44.4256C37.9991 44.4727 37.9815 44.5256 37.9697 44.5727V44.5845C37.9815 44.6257 37.9933 44.6669 38.005 44.7022C38.0168 44.7375 38.0286 44.7728 38.0462 44.8081C38.0639 44.8434 38.0815 44.8787 38.1051 44.914C38.1227 44.9434 38.1404 44.9788 38.1639 45.0082C38.1875 45.0435 38.2169 45.0729 38.2463 45.1023C38.2699 45.1318 38.2934 45.1553 38.3169 45.1788C38.3464 45.2083 38.3817 45.2377 38.417 45.2612C38.4464 45.2848 38.4699 45.3024 38.4994 45.326C38.5406 45.3554 38.5817 45.373 38.6229 45.3966C38.6524 45.4142 38.6759 45.4319 38.7053 45.4437C38.7524 45.4672 38.8054 45.4848 38.8525 45.5025C38.876 45.5143 38.8995 45.526 38.929 45.5319C39.0055 45.5555 39.082 45.5731 39.1585 45.5849C39.3586 45.6143 39.5586 45.6202 39.7587 45.6025C40.2236 45.6555 40.718 45.6084 41.1358 45.5908C42.1656 45.5378 43.1955 45.4142 44.2312 45.4083C45.2434 45.3966 46.2556 45.4495 47.2619 45.5319C48.2094 45.6143 49.1568 45.7261 50.0984 45.8556C51.0753 45.9909 52.0581 46.2263 53.0526 46.1675C54.0118 46.1086 54.9416 45.8262 55.8538 45.5437C56.7718 45.2612 57.6899 44.9905 58.6138 44.7198C62.4036 43.5958 66.1876 42.4306 70.001 41.3949C73.5672 40.4239 77.104 39.3352 80.0935 37.0754C81.4529 36.0455 82.7122 34.8686 83.9657 33.7151C84.2717 33.4386 84.5719 33.1502 84.872 32.8618C84.9426 32.7912 85.0132 32.7206 85.0897 32.65C85.331 32.4146 85.5664 32.1733 85.7959 31.9262C85.8489 31.8673 85.9018 31.8143 85.9548 31.7555C86.5609 30.3726 87.0141 28.9425 87.2789 27.4654C86.7257 28.5071 86.1843 29.5604 85.4722 30.5079L85.4664 30.5197Z" fill="#FBD0B4"/>
</g>
<path d="M27.9772 8.76951C26.1588 9.12261 24.3639 9.57574 22.5691 10.0465C22.1748 10.1466 21.7864 10.2525 21.3921 10.3525C24.0756 10.1407 26.7532 9.88763 29.4249 9.55808C32.6851 9.15791 35.9277 8.64593 39.1467 7.97506C37.3165 7.7632 35.4569 7.81617 33.6267 7.97506C31.7318 8.13395 29.8427 8.41642 27.9772 8.7754V8.76951Z" fill="#FBD0B4"/>
<g style="mix-blend-mode:screen">
<path d="M27.9772 8.76951C26.1588 9.12261 24.3639 9.57574 22.5691 10.0465C22.1748 10.1466 21.7864 10.2525 21.3921 10.3525C24.0756 10.1407 26.7532 9.88763 29.4249 9.55808C32.6851 9.15791 35.9277 8.64593 39.1467 7.97506C37.3165 7.7632 35.4569 7.81617 33.6267 7.97506C31.7318 8.13395 29.8427 8.41642 27.9772 8.7754V8.76951Z" fill="#FBD0B4"/>
</g>
<path d="M75.3152 14.2008C72.5905 13.9771 69.8658 13.7594 67.1764 13.2298C64.54 12.7119 62.0213 11.8762 59.5967 10.7169C59.3613 10.6051 59.1259 10.4815 58.8906 10.3638C58.8611 10.3521 58.8317 10.3403 58.8023 10.3226C58.5198 10.1873 58.2432 10.046 57.9666 9.89893C57.1781 9.49876 56.4013 9.08093 55.6362 8.63957C55.495 8.55718 55.4715 8.76904 55.5833 8.83377C56.7485 9.53407 57.8842 10.2756 59.0789 10.9288C60.2441 11.5702 61.4564 12.1352 62.6981 12.6001C65.2874 13.5652 68.0415 14.1125 70.7838 14.4244C72.3257 14.595 73.8734 14.701 75.427 14.6951C75.7448 14.6951 75.5623 14.2125 75.3211 14.1949L75.3152 14.2008Z" fill="#FBD0B4"/>
<g style="mix-blend-mode:multiply">
<path d="M75.3152 14.2008C72.5905 13.9771 69.8658 13.7594 67.1764 13.2298C64.54 12.7119 62.0213 11.8762 59.5967 10.7169C59.3613 10.6051 59.1259 10.4815 58.8906 10.3638C58.8611 10.3521 58.8317 10.3403 58.8023 10.3226C58.5198 10.1873 58.2432 10.046 57.9666 9.89893C57.1781 9.49876 56.4013 9.08093 55.6362 8.63957C55.495 8.55718 55.4715 8.76904 55.5833 8.83377C56.7485 9.53407 57.8842 10.2756 59.0789 10.9288C60.2441 11.5702 61.4564 12.1352 62.6981 12.6001C65.2874 13.5652 68.0415 14.1125 70.7838 14.4244C72.3257 14.595 73.8734 14.701 75.427 14.6951C75.7448 14.6951 75.5623 14.2125 75.3211 14.1949L75.3152 14.2008Z" fill="#FBD0B4"/>
</g>
<path d="M58.8903 10.3642C58.5784 10.2112 58.2723 10.0582 57.9604 9.90521C58.237 10.0523 58.5136 10.1936 58.7961 10.3289C58.8255 10.3407 58.8549 10.3525 58.8844 10.3701L58.8903 10.3642Z" fill="#FBD0B4"/>
<g style="mix-blend-mode:screen">
<path d="M58.8903 10.3642C58.5784 10.2112 58.2723 10.0582 57.9604 9.90521C58.237 10.0523 58.5136 10.1936 58.7961 10.3289C58.8255 10.3407 58.8549 10.3525 58.8844 10.3701L58.8903 10.3642Z" fill="#FBD0B4"/>
</g>
<g style="mix-blend-mode:multiply">
<path d="M58.8903 10.3642C58.5784 10.2112 58.2723 10.0582 57.9604 9.90521C58.237 10.0523 58.5136 10.1936 58.7961 10.3289C58.8255 10.3407 58.8549 10.3525 58.8844 10.3701L58.8903 10.3642Z" fill="#FBD0B4"/>
</g>
<g style="mix-blend-mode:multiply">
<path d="M37.7284 44.9326C37.7284 44.9326 37.7223 44.9206 37.7163 44.9085C37.7163 44.9145 37.7223 44.9206 37.7284 44.9326Z" fill="#FBD0B4"/>
</g>
<g style="mix-blend-mode:multiply">
<path d="M37.9638 44.5732C37.958 44.5379 37.9521 44.5025 37.9521 44.4731C37.9521 44.4496 37.9403 44.4319 37.9403 44.4084C37.9403 44.4084 37.9403 44.4084 37.9462 44.4084C37.9462 44.3672 37.9344 44.326 37.9462 44.2848C37.852 43.9553 37.8932 43.5727 38.005 43.255C38.2522 42.5605 38.8583 42.0898 39.4704 41.719C40 41.3953 40.565 41.1364 41.1417 40.9187C41.1887 40.901 41.2299 40.8775 41.277 40.8598C42.248 40.4655 43.272 40.2184 44.3077 40.0418C45.9437 39.6946 47.6091 39.5534 49.2745 39.4063C50.8929 39.2591 52.4936 39.0708 54.0648 38.6412C54.6239 38.4353 55.1712 38.1999 55.7067 37.9292C55.7184 37.9233 55.7302 37.9174 55.7479 37.9056C56.5011 37.3995 57.2662 36.9111 58.0312 36.4226C58.6432 35.9401 59.2199 35.4163 59.7672 34.8573C62.2153 32.3444 64.2691 29.4668 66.9644 27.1893C68.2885 26.0712 69.7538 25.2355 71.3015 24.4764C72.9493 23.6702 74.6441 22.9699 76.4155 22.4932C77.204 22.2813 78.0162 22.1225 78.8283 22.0518C78.8459 22.0518 78.8577 22.046 78.8695 22.0342C78.1221 21.9753 77.3688 21.9753 76.6214 21.9753C75.5622 22.1931 74.5264 22.5344 73.5142 22.9287C71.8724 23.576 70.2128 24.3234 68.7004 25.2414C65.6285 27.1069 63.2569 29.9846 60.9324 32.6681C59.779 33.9981 58.5785 35.3045 57.1426 36.3403C56.8366 36.558 56.5247 36.7581 56.201 36.9464C55.4889 36.6757 54.6945 36.5698 53.953 36.4756C53.4469 36.4168 52.9408 36.3756 52.4347 36.3403C52.1051 36.5227 51.7756 36.6992 51.4284 36.8522C51.6167 36.8581 51.805 36.8758 51.9933 36.8875C52.317 36.9052 52.6466 36.9229 52.9702 36.9464C53.494 36.9876 54.0118 37.0406 54.5297 37.1171C54.8651 37.1641 55.2241 37.2171 55.5772 37.2936C54.6415 37.782 53.6529 38.1646 52.6407 38.4765C51.4637 38.6942 50.275 38.806 49.0686 38.9061C47.5562 39.0296 46.032 39.1768 44.5372 39.4063C43.0778 39.6299 41.6066 39.9594 40.2766 40.6303C39.082 41.2365 37.7755 42.2663 37.5401 43.6669C37.5166 43.7964 37.5166 43.9258 37.5166 44.0553C37.5166 44.0847 37.5166 44.1141 37.5166 44.1436C37.5225 44.2672 37.5401 44.3907 37.5696 44.5084C37.5696 44.5084 37.5696 44.5084 37.5696 44.5143C37.6049 44.6497 37.652 44.7791 37.7167 44.9027C37.7167 44.9086 37.7226 44.9145 37.7285 44.9263C37.7873 45.0498 37.8638 45.1617 37.9462 45.2676C37.8932 45.044 37.8991 44.8086 37.958 44.5673L37.9638 44.5732Z" fill="#F9A678"/>
</g>
<g style="mix-blend-mode:multiply">
<path d="M37.9638 44.5732C37.958 44.5379 37.9521 44.5025 37.9521 44.4731C37.9521 44.4496 37.9403 44.4319 37.9403 44.4084C37.9403 44.4084 37.9403 44.4084 37.9462 44.4084C37.9462 44.3672 37.9344 44.326 37.9462 44.2848C37.852 43.9553 37.8932 43.5727 38.005 43.255C38.2522 42.5605 38.8583 42.0898 39.4704 41.719C40 41.3953 40.565 41.1364 41.1417 40.9187C41.1887 40.901 41.2299 40.8775 41.277 40.8598C42.248 40.4655 43.272 40.2184 44.3077 40.0418C45.9437 39.6946 47.6091 39.5534 49.2745 39.4063C50.8929 39.2591 52.4936 39.0708 54.0648 38.6412C54.6239 38.4353 55.1712 38.1999 55.7067 37.9292C55.7184 37.9233 55.7302 37.9174 55.7479 37.9056C56.5011 37.3995 57.2662 36.9111 58.0312 36.4226C58.6432 35.9401 59.2199 35.4163 59.7672 34.8573C62.2153 32.3444 64.2691 29.4668 66.9644 27.1893C68.2885 26.0712 69.7538 25.2355 71.3015 24.4764C72.9493 23.6702 74.6441 22.9699 76.4155 22.4932C77.204 22.2813 78.0162 22.1225 78.8283 22.0518C78.8459 22.0518 78.8577 22.046 78.8695 22.0342C78.1221 21.9753 77.3688 21.9753 76.6214 21.9753C75.5622 22.1931 74.5264 22.5344 73.5142 22.9287C71.8724 23.576 70.2128 24.3234 68.7004 25.2414C65.6285 27.1069 63.2569 29.9846 60.9324 32.6681C59.779 33.9981 58.5785 35.3045 57.1426 36.3403C56.8366 36.558 56.5247 36.7581 56.201 36.9464C55.4889 36.6757 54.6945 36.5698 53.953 36.4756C53.4469 36.4168 52.9408 36.3756 52.4347 36.3403C52.1051 36.5227 51.7756 36.6992 51.4284 36.8522C51.6167 36.8581 51.805 36.8758 51.9933 36.8875C52.317 36.9052 52.6466 36.9229 52.9702 36.9464C53.494 36.9876 54.0118 37.0406 54.5297 37.1171C54.8651 37.1641 55.2241 37.2171 55.5772 37.2936C54.6415 37.782 53.6529 38.1646 52.6407 38.4765C51.4637 38.6942 50.275 38.806 49.0686 38.9061C47.5562 39.0296 46.032 39.1768 44.5372 39.4063C43.0778 39.6299 41.6066 39.9594 40.2766 40.6303C39.082 41.2365 37.7755 42.2663 37.5401 43.6669C37.5166 43.7964 37.5166 43.9258 37.5166 44.0553C37.5166 44.0847 37.5166 44.1141 37.5166 44.1436C37.5225 44.2672 37.5401 44.3907 37.5696 44.5084C37.5696 44.5084 37.5696 44.5084 37.5696 44.5143C37.6049 44.6497 37.652 44.7791 37.7167 44.9027C37.7167 44.9086 37.7226 44.9145 37.7285 44.9263C37.7873 45.0498 37.8638 45.1617 37.9462 45.2676C37.8932 45.044 37.8991 44.8086 37.958 44.5673L37.9638 44.5732Z" fill="#FBD0B4"/>
</g>
<path d="M38.0817 44.2316C38.6231 43.0722 39.8412 42.3307 40.9947 41.907C42.3423 41.4068 43.7959 41.2303 45.2259 41.1185C46.8089 40.9949 48.3978 40.9125 49.9808 40.7948C51.917 40.6536 53.8707 40.477 55.7303 39.9003C57.4723 39.353 58.9847 38.382 60.3264 37.158C61.6211 35.9751 62.751 34.6216 63.9515 33.3446C65.1814 32.044 66.4761 30.8023 67.859 29.6665C68.9477 28.7721 70.0835 27.9423 71.2781 27.1949C71.6548 26.8712 72.0314 26.5476 72.4198 26.2416C73.0377 25.7531 73.685 25.2941 74.3265 24.8351C75.5741 23.9465 76.8511 23.0755 78.2576 22.4517C79.0814 22.0869 79.9524 21.8044 80.8469 21.6985C80.5115 21.6161 80.1701 21.569 79.8347 21.5337C78.7578 21.4336 77.6691 21.5219 76.6039 21.6867C74.6266 21.9927 72.6611 22.5459 70.8132 23.3168C68.1709 24.4173 65.6169 25.7825 63.2747 27.4362C62.033 28.313 60.8561 29.2664 59.7438 30.2962C58.7022 31.2555 57.6959 32.25 56.6543 33.2033C55.3478 34.3921 53.959 35.4984 52.4289 36.3459C52.935 36.3812 53.4411 36.4224 53.9472 36.4812C54.6887 36.5695 55.4832 36.6813 56.1952 36.952C56.513 36.7637 56.8308 36.5636 57.1368 36.3459C58.5727 35.316 59.7732 34.0037 60.9267 32.6737C63.2571 29.9902 65.6228 27.1125 68.6947 25.247C70.2071 24.329 71.8666 23.5816 73.5085 22.9343C74.5148 22.54 75.5564 22.1987 76.6157 21.9809C77.3689 21.9809 78.1163 21.9809 78.8637 22.0398C78.8519 22.0457 78.8402 22.0516 78.8225 22.0574C78.0104 22.1339 77.1983 22.2869 76.4097 22.4988C74.6384 22.9755 72.9377 23.6758 71.2958 24.482C69.7422 25.2411 68.2827 26.0768 66.9586 27.1949C64.2634 29.4665 62.2096 32.35 59.7615 34.8629C59.2142 35.4219 58.6375 35.9457 58.0254 36.4282C57.2604 36.9167 56.4954 37.4051 55.7421 37.9112C55.7303 37.9171 55.7186 37.923 55.7009 37.9348C55.1654 38.2055 54.6181 38.435 54.0591 38.6468C52.4878 39.0764 50.8871 39.2647 49.2688 39.4119C47.6093 39.559 45.938 39.7002 44.302 40.0474C43.2662 40.224 42.2423 40.4711 41.2713 40.8654C41.2242 40.8831 41.183 40.9007 41.1359 40.9243C40.5592 41.142 39.9943 41.4009 39.4646 41.7246C38.8585 42.0954 38.2465 42.5661 37.9993 43.2606C37.8875 43.5783 37.8463 43.9609 37.9404 44.2904C37.9404 44.3316 37.9404 44.3728 37.9404 44.414C37.9581 44.414 37.9816 44.4258 38.0052 44.4316C38.0287 44.3669 38.0464 44.3081 38.0758 44.2433L38.0817 44.2316Z" fill="#FBD0B4"/>
<g style="mix-blend-mode:multiply">
<path d="M38.0817 44.2316C38.6231 43.0722 39.8412 42.3307 40.9947 41.907C42.3423 41.4068 43.7959 41.2303 45.2259 41.1185C46.8089 40.9949 48.3978 40.9125 49.9808 40.7948C51.917 40.6536 53.8707 40.477 55.7303 39.9003C57.4723 39.353 58.9847 38.382 60.3264 37.158C61.6211 35.9751 62.751 34.6216 63.9515 33.3446C65.1814 32.044 66.4761 30.8023 67.859 29.6665C68.9477 28.7721 70.0835 27.9423 71.2781 27.1949C71.6548 26.8712 72.0314 26.5476 72.4198 26.2416C73.0377 25.7531 73.685 25.2941 74.3265 24.8351C75.5741 23.9465 76.8511 23.0755 78.2576 22.4517C79.0814 22.0869 79.9524 21.8044 80.8469 21.6985C80.5115 21.6161 80.1701 21.569 79.8347 21.5337C78.7578 21.4336 77.6691 21.5219 76.6039 21.6867C74.6266 21.9927 72.6611 22.5459 70.8132 23.3168C68.1709 24.4173 65.6169 25.7825 63.2747 27.4362C62.033 28.313 60.8561 29.2664 59.7438 30.2962C58.7022 31.2555 57.6959 32.25 56.6543 33.2033C55.3478 34.3921 53.959 35.4984 52.4289 36.3459C52.935 36.3812 53.4411 36.4224 53.9472 36.4812C54.6887 36.5695 55.4832 36.6813 56.1952 36.952C56.513 36.7637 56.8308 36.5636 57.1368 36.3459C58.5727 35.316 59.7732 34.0037 60.9267 32.6737C63.2571 29.9902 65.6228 27.1125 68.6947 25.247C70.2071 24.329 71.8666 23.5816 73.5085 22.9343C74.5148 22.54 75.5564 22.1987 76.6157 21.9809C77.3689 21.9809 78.1163 21.9809 78.8637 22.0398C78.8519 22.0457 78.8402 22.0516 78.8225 22.0574C78.0104 22.1339 77.1983 22.2869 76.4097 22.4988C74.6384 22.9755 72.9377 23.6758 71.2958 24.482C69.7422 25.2411 68.2827 26.0768 66.9586 27.1949C64.2634 29.4665 62.2096 32.35 59.7615 34.8629C59.2142 35.4219 58.6375 35.9457 58.0254 36.4282C57.2604 36.9167 56.4954 37.4051 55.7421 37.9112C55.7303 37.9171 55.7186 37.923 55.7009 37.9348C55.1654 38.2055 54.6181 38.435 54.0591 38.6468C52.4878 39.0764 50.8871 39.2647 49.2688 39.4119C47.6093 39.559 45.938 39.7002 44.302 40.0474C43.2662 40.224 42.2423 40.4711 41.2713 40.8654C41.2242 40.8831 41.183 40.9007 41.1359 40.9243C40.5592 41.142 39.9943 41.4009 39.4646 41.7246C38.8585 42.0954 38.2465 42.5661 37.9993 43.2606C37.8875 43.5783 37.8463 43.9609 37.9404 44.2904C37.9404 44.3316 37.9404 44.3728 37.9404 44.414C37.9581 44.414 37.9816 44.4258 38.0052 44.4316C38.0287 44.3669 38.0464 44.3081 38.0758 44.2433L38.0817 44.2316Z" fill="#FBD0B4"/>
</g>
<path d="M37.9463 44.4732C37.9463 44.5085 37.9522 44.5438 37.9581 44.5732C37.9522 44.5438 37.9463 44.5085 37.9404 44.4732H37.9463Z" fill="#FBD0B4"/>
<g style="mix-blend-mode:multiply">
<path d="M37.9463 44.4732C37.9463 44.5085 37.9522 44.5438 37.9581 44.5732C37.9522 44.5438 37.9463 44.5085 37.9404 44.4732H37.9463Z" fill="#FBD0B4"/>
</g>
<g style="mix-blend-mode:multiply">
<path d="M37.9346 44.403C37.9346 44.403 37.9405 44.4442 37.9463 44.4678C37.9463 44.4442 37.9463 44.4266 37.9463 44.403C37.9463 44.403 37.9463 44.403 37.9405 44.403H37.9346Z" fill="#F9A678"/>
</g>
<g style="mix-blend-mode:screen">
<path d="M37.9346 44.403C37.9346 44.403 37.9405 44.4442 37.9463 44.4678C37.9463 44.4442 37.9463 44.4266 37.9463 44.403C37.9463 44.403 37.9463 44.403 37.9405 44.403H37.9346Z" fill="#FBD0B4"/>
</g>
<g style="mix-blend-mode:multiply">
<path d="M37.9346 44.403C37.9346 44.403 37.9405 44.4442 37.9463 44.4678C37.9463 44.4442 37.9463 44.4266 37.9463 44.403C37.9463 44.403 37.9463 44.403 37.9405 44.403H37.9346Z" fill="#FBD0B4"/>
</g>
<path d="M38.0105 44.4203C38.0105 44.4203 37.9693 44.4085 37.9458 44.4026C37.9458 44.4261 37.9458 44.4438 37.9458 44.4673C37.9458 44.5026 37.9517 44.5321 37.9635 44.5674C37.9752 44.5203 37.9929 44.4673 38.0105 44.4203Z" fill="#FBD0B4"/>
<g style="mix-blend-mode:screen">
<path d="M38.0105 44.4203C38.0105 44.4203 37.9693 44.4085 37.9458 44.4026C37.9458 44.4261 37.9458 44.4438 37.9458 44.4673C37.9458 44.5026 37.9517 44.5321 37.9635 44.5674C37.9752 44.5203 37.9929 44.4673 38.0105 44.4203Z" fill="#FBD0B4"/>
</g>
<g style="mix-blend-mode:multiply">
<path d="M38.0105 44.4203C38.0105 44.4203 37.9693 44.4085 37.9458 44.4026C37.9458 44.4261 37.9458 44.4438 37.9458 44.4673C37.9458 44.5026 37.9517 44.5321 37.9635 44.5674C37.9752 44.5203 37.9929 44.4673 38.0105 44.4203Z" fill="#FBD0B4"/>
</g>
<g style="mix-blend-mode:multiply">
<path d="M92.0046 30.6436C91.5338 30.62 91.0689 30.5965 90.5981 30.5788C91.0689 30.5965 91.5338 30.6141 92.0046 30.6436Z" fill="#FBD0B4"/>
</g>
<g style="mix-blend-mode:multiply">
<path d="M125.154 32.2273C118.221 31.5564 111.313 30.7561 104.357 30.4559C101.485 30.3324 98.6073 30.2441 95.7355 30.1382C93.9582 30.2323 92.181 30.3677 90.4097 30.5678C90.4744 30.5678 90.5332 30.5736 90.598 30.5736C91.0688 30.5913 91.5337 30.609 92.0045 30.6384C95.5059 30.8149 99.0133 30.9091 102.515 31.0385C109.447 31.3034 116.327 31.9919 123.224 32.6922C124.183 32.7922 125.142 32.8746 126.101 32.9629V32.3156C125.789 32.2861 125.472 32.2626 125.154 32.2273Z" fill="#F9A678"/>
</g>
<g style="mix-blend-mode:multiply">
<path d="M125.154 32.2273C118.221 31.5564 111.313 30.7561 104.357 30.4559C101.485 30.3324 98.6073 30.2441 95.7355 30.1382C93.9582 30.2323 92.181 30.3677 90.4097 30.5678C90.4744 30.5678 90.5332 30.5736 90.598 30.5736C91.0688 30.5913 91.5337 30.609 92.0045 30.6384C95.5059 30.8149 99.0133 30.9091 102.515 31.0385C109.447 31.3034 116.327 31.9919 123.224 32.6922C124.183 32.7922 125.142 32.8746 126.101 32.9629V32.3156C125.789 32.2861 125.472 32.2626 125.154 32.2273Z" fill="#FBD0B4"/>
</g>
<path d="M95.7412 30.138C98.613 30.244 101.491 30.3322 104.363 30.4558C111.318 30.7559 118.227 31.5563 125.16 32.2272C125.477 32.2566 125.795 32.286 126.113 32.3154L126.131 30.9619C122.747 30.8324 119.363 30.6382 115.979 30.4499C109.247 30.0792 102.473 29.7732 95.7412 30.138Z" fill="#FBD0B4"/>
<g style="mix-blend-mode:multiply">
<path d="M95.7412 30.138C98.613 30.244 101.491 30.3322 104.363 30.4558C111.318 30.7559 118.227 31.5563 125.16 32.2272C125.477 32.2566 125.795 32.286 126.113 32.3154L126.131 30.9619C122.747 30.8324 119.363 30.6382 115.979 30.4499C109.247 30.0792 102.473 29.7732 95.7412 30.138Z" fill="#FBD0B4"/>
</g>
<g style="mix-blend-mode:multiply">
<path d="M8.35094 33.1865C8.35094 33.1865 8.35094 33.1865 8.34506 33.1806C8.32152 33.1689 8.29209 33.163 8.26855 33.1512C8.29798 33.163 8.32152 33.1748 8.35094 33.1865Z" fill="#FBD0B4"/>
</g>
<g style="mix-blend-mode:multiply">
<path d="M7.76896 32.9443C7.69834 32.9149 7.62772 32.8855 7.56299 32.8502C7.63361 32.8855 7.69834 32.909 7.76896 32.9443Z" fill="#FBD0B4"/>
</g>
<g style="mix-blend-mode:multiply">
<path d="M85.8193 8.40507C86.043 8.64046 86.2607 8.88174 86.4667 9.12891C86.2607 8.87586 86.043 8.63458 85.8193 8.40507Z" fill="#F9A678"/>
</g>
<g style="mix-blend-mode:multiply">
<path d="M85.8193 8.40507C86.043 8.64046 86.2607 8.88174 86.4667 9.12891C86.2607 8.87586 86.043 8.63458 85.8193 8.40507Z" fill="#FBD0B4"/>
</g>
<g style="mix-blend-mode:multiply">
<path d="M7.73921 32.5157C7.7039 32.4981 7.6627 32.4804 7.6274 32.4686C7.58032 32.4451 7.53324 32.4275 7.48616 32.4039C7.45085 32.3863 7.41554 32.3686 7.38023 32.351C7.33315 32.3274 7.28607 32.3039 7.239 32.2744C7.20957 32.2568 7.17426 32.2391 7.14484 32.2215C7.09776 32.1921 7.05068 32.1685 7.0036 32.1391C6.97418 32.1214 6.95064 32.1038 6.92121 32.0861C6.87414 32.0567 6.82706 32.0273 6.78586 31.992C6.76232 31.9743 6.74467 31.9567 6.72113 31.939C6.67405 31.9037 6.62697 31.8684 6.58578 31.8272C6.58578 31.8272 6.58578 31.8213 6.57989 31.8154C6.47397 31.7154 6.37981 31.6095 6.30919 31.4976C6.30919 31.4976 6.3033 31.4859 6.29742 31.4859C6.27388 31.4447 6.25623 31.4035 6.23857 31.3564C6.2268 31.3329 6.21503 31.3093 6.20915 31.2858C6.19738 31.2446 6.18561 31.2034 6.17972 31.1622C6.17972 31.1328 6.16795 31.1034 6.16207 31.0739C6.16207 31.0327 6.16207 30.9916 6.16207 30.9504C6.16207 30.9268 6.16207 30.9092 6.16207 30.8856C6.16207 30.8856 6.16207 30.8856 6.16207 30.8915C6.17384 30.7856 6.19738 30.6738 6.25034 30.562C6.84471 29.2967 8.4807 29.0084 9.7224 28.8553C11.7939 28.5964 13.8889 28.4787 15.9721 28.4022C20.2681 28.2374 24.564 28.1786 28.8599 28.0491C30.9844 27.9844 33.1147 27.8726 35.2391 27.8314C37.034 27.7961 40.2177 27.4077 42.0067 27.1782C42.3892 27.1311 42.6305 27.0016 42.807 26.8545C42.9659 27.4018 43.0836 27.9491 43.1837 28.5081C43.3308 28.2316 43.3896 27.9255 43.4132 27.6136C43.3896 27.4842 43.3602 27.3547 43.3367 27.2311C43.1954 26.5779 43.0071 25.9423 42.8659 25.2891C42.707 24.5653 42.6835 23.8179 42.6187 23.0764C42.554 22.3173 42.4893 21.5581 42.4245 20.799C42.3774 20.1987 42.3363 19.6044 42.3068 19.0041C42.3363 18.9747 42.3716 18.9453 42.401 18.9158C42.3833 18.8452 42.3421 18.7805 42.2951 18.7275C42.2598 17.8801 42.2421 17.0327 42.2715 16.1794C42.3245 14.667 42.4716 13.1605 42.6187 11.6539C42.6599 11.242 42.707 10.8359 42.76 10.4299C42.86 9.11756 43.0189 7.80523 43.2425 6.50468C43.1719 6.46349 43.1013 6.46349 43.0601 6.55176C42.6305 7.41683 42.4304 8.37018 42.2892 9.32941C42.1715 9.32353 42.0479 9.32353 41.9302 9.32353C41.8655 9.28822 41.8066 9.25879 41.7419 9.22348C41.6301 9.22937 41.5183 9.24114 41.4064 9.24702C40.1294 9.35884 38.8701 9.57658 37.5931 9.74135C34.9861 10.0827 32.3438 10.2769 29.7191 10.5005C28.4539 10.6064 27.1828 10.6888 25.9175 10.8183C24.6228 10.9536 23.34 11.1302 22.0512 11.3008C19.503 11.6363 16.9313 11.8658 14.3597 11.907C13.3534 11.9246 12.0646 12.007 11.1524 11.5009C10.2403 10.9889 10.2638 9.98852 10.7699 9.19406C11.223 8.47611 11.9116 7.88762 12.6472 7.46391C13.6711 6.88132 14.8481 6.69888 15.9957 6.52822C18.5791 6.14571 21.1743 5.87501 23.7695 5.55722C26.3765 5.23356 28.9835 4.90989 31.5905 4.56268C34.1916 4.21548 36.7868 3.83296 39.3821 3.44456C41.989 3.05028 44.6019 2.67953 47.1971 2.21463C47.8386 2.09693 48.48 1.99689 49.1274 1.89685C49.1744 1.89096 49.198 1.86742 49.2098 1.83799C50.4515 1.72618 51.6932 1.60849 52.9408 1.53198C56.4717 1.30247 60.0261 1.20832 63.5688 1.33778C65.3578 1.40252 67.1527 1.50844 68.924 1.73795C70.6365 1.96158 72.3255 2.32644 73.9967 2.73838C75.6033 3.13855 77.257 3.49752 78.8047 4.09778C80.1229 4.60976 81.3469 5.32771 82.4827 6.16924C83.1477 6.66357 83.7833 7.19321 84.4071 7.7405C84.8955 8.1701 85.3839 8.61146 85.8312 9.08813C85.8253 9.08813 85.8194 9.08813 85.8077 9.08813C85.8606 9.14698 85.9136 9.21172 85.9665 9.27057C86.6256 9.85905 87.1906 10.5593 87.7143 11.2773C87.632 11.0713 87.5437 10.8654 87.4495 10.6653C87.0141 10.1239 86.5609 9.60011 86.1254 9.05871C85.7782 8.62911 85.3839 8.15833 85.0662 7.65812C84.6895 7.31091 84.3011 6.97547 83.9186 6.6518C82.7946 5.69846 81.5941 4.8275 80.2818 4.15663C78.8518 3.42102 77.3394 3.00908 75.7975 2.59714C74.1027 2.14401 72.402 1.7203 70.6777 1.40252C68.9064 1.07296 67.1232 0.902302 65.3284 0.790493C61.6562 0.566868 57.9664 0.643372 54.2943 0.843456C52.4405 0.943501 50.5927 1.10827 48.7449 1.27305C46.8794 1.6026 45.0021 1.90862 43.1248 2.14989C43.1248 2.14989 43.1189 2.14989 43.1131 2.14989C43.0836 2.16166 43.066 2.17932 43.0483 2.19697C42.3127 2.29113 41.5771 2.39117 40.8415 2.49121C38.1345 2.87373 35.4274 3.27978 32.7204 3.66818C30.0428 4.05658 27.3652 4.47441 24.6817 4.8275C21.9923 5.18059 19.2971 5.45129 16.6136 5.83381C15.4189 6.00447 14.1831 6.14571 13.0591 6.60473C12.2117 6.95193 11.4525 7.49334 10.8405 8.17598C10.2991 8.78212 9.83422 9.57657 9.96368 10.4181C10.1049 11.342 10.8876 11.9894 11.7527 12.2189C11.9998 12.2836 12.2529 12.3307 12.5059 12.366C12.3824 12.3719 12.2588 12.3837 12.1411 12.3837C10.9582 12.5425 9.78714 12.7544 8.61605 12.9662C7.30961 13.2075 6.13264 13.6195 4.96744 14.255C4.10825 14.7199 3.14314 15.3202 2.76062 16.2677C2.41342 17.1327 2.76062 18.0508 3.47858 18.5922C4.18476 19.1159 5.1028 19.316 5.95021 19.4808C8.98091 20.0634 12.094 19.7221 15.16 19.7868C15.5896 19.7986 16.0133 19.7986 16.4429 19.7986C14.9423 19.8986 13.4357 19.9928 11.9351 20.1105C10.2815 20.2399 8.63959 20.4224 6.99183 20.6283C5.53827 20.8049 4.03764 20.9049 2.6547 21.4169C1.54246 21.8288 0.559689 22.6763 0.406683 23.918C0.271331 25.0537 0.871586 26.1012 1.82493 26.6897C2.9254 27.3665 4.2848 27.4959 5.54416 27.5725C7.22723 27.6784 8.91029 27.5842 10.5934 27.6313C12.1646 27.6725 13.7359 27.7725 15.3071 27.8549C14.2596 27.902 13.218 27.955 12.1705 28.0374C11.2172 28.1139 10.2579 28.1962 9.31046 28.3257C8.54543 28.4258 7.76863 28.5788 7.08011 28.9495C6.36804 29.3379 5.59712 30.1206 5.73247 31.0092C5.83252 31.6624 6.38569 32.145 6.91533 32.4804C7.12718 32.6158 7.34492 32.7335 7.57443 32.8394C7.64505 32.8747 7.70978 32.8982 7.7804 32.9336C7.94518 33.0042 8.10995 33.0748 8.28061 33.1395C8.30415 33.1513 8.33358 33.1572 8.35712 33.1689C8.14526 32.9865 7.96872 32.7747 7.83337 32.5393C7.80983 32.5275 7.7804 32.5157 7.75686 32.504L7.73921 32.5157ZM40.9239 18.7393C41.1946 18.7746 41.4594 18.8276 41.7125 18.9158C41.7125 18.9158 41.7125 18.9158 41.7125 18.9217C41.5183 19.0453 41.3005 19.1395 41.071 19.2042C37.4401 19.3454 33.8091 19.2925 30.1781 19.2807C31.4728 19.1865 32.7675 19.0924 34.0622 19.0218C35.2921 18.957 36.5161 18.8982 37.7402 18.7864C38.7936 18.6922 39.8646 18.5981 40.918 18.7275L40.9239 18.7393ZM5.46766 18.9217C4.70851 18.7511 3.63747 18.4921 3.24318 17.7448C2.74297 16.7973 3.67278 15.8557 4.37896 15.3614C5.32642 14.6964 6.43866 14.155 7.55089 13.8549C8.92795 13.4782 10.3874 13.2781 11.7939 13.0663C13.3063 12.8427 14.8305 12.7309 16.3546 12.6485C19.3736 12.4837 22.3866 12.3425 25.3938 12.0835C28.4833 11.8187 31.5846 11.5303 34.6624 11.1302C36.7574 10.8595 38.8348 10.524 40.9298 10.2533C40.9533 10.2416 40.9768 10.2298 41.0004 10.218C41.0298 10.218 41.0534 10.218 41.0828 10.218C41.4535 10.1945 41.8419 10.1709 42.2009 10.0709C42.1774 10.2533 42.1597 10.4358 42.1362 10.6182C41.9655 12.1188 41.7948 13.6195 41.7066 15.126C41.6418 16.2206 41.6477 17.3152 41.6889 18.4097C41.0534 18.1685 40.3177 18.1449 39.6645 18.1449C38.6759 18.1449 37.6931 18.2626 36.7044 18.3391C35.3039 18.445 33.8915 18.4862 32.485 18.5745C30.9726 18.6687 29.4661 18.8099 27.9537 18.91C24.8641 19.1218 21.7687 19.1218 18.6791 19.2807C17.1491 19.3572 15.6308 19.3219 14.1007 19.2984C12.5824 19.2748 11.0641 19.3631 9.53997 19.3395C8.17469 19.3219 6.79763 19.2218 5.46177 18.9217H5.46766ZM15.3895 27.4606C13.6888 27.3783 11.9881 27.2606 10.2873 27.2194C8.62782 27.1782 6.96241 27.2664 5.30876 27.1546C4.04941 27.0664 2.56054 26.931 1.56011 26.0718C0.577344 25.2303 0.624422 23.7885 1.50127 22.8763C2.44873 21.8877 4.06706 21.6876 5.35584 21.5169C6.87414 21.3169 8.4042 21.1285 9.92837 20.9755C13.3416 20.6283 16.7725 20.4694 20.1974 20.2105C26.6237 19.7279 33.0676 20.0693 39.4939 19.8339C39.6763 19.8339 39.8587 19.8339 40.047 19.8162C40.153 19.8103 40.2589 19.8044 40.3648 19.7927C40.4825 19.7927 40.5943 19.7809 40.712 19.7809C40.8474 19.775 40.9827 19.7633 41.1181 19.7574C41.3005 19.7103 41.4771 19.6456 41.6536 19.5808C41.6654 19.5691 41.6771 19.5632 41.6948 19.5514C41.7183 19.5337 41.7419 19.5161 41.7654 19.4984C41.7713 19.5985 41.7772 19.6926 41.7831 19.7927C41.889 21.3345 42.0185 22.8822 42.2127 24.4123C42.3009 25.1067 42.5069 25.7776 42.7129 26.4426C41.3535 25.86 36.2395 26.4955 35.5275 26.5426C32.2202 26.7662 28.907 26.8957 25.5997 27.137C22.2042 27.3841 18.8145 27.6195 15.4072 27.4548L15.3895 27.4606ZM31.1668 27.2959C33.2912 27.1664 35.4157 27.0546 37.5342 26.9016C38.4287 26.8368 39.3232 26.7721 40.2177 26.7368C40.918 26.7133 41.6477 26.6721 42.348 26.7486C40.7532 27.237 39.0525 27.2547 37.3989 27.2606C35.4157 27.2606 33.4442 27.3312 31.461 27.4018C30.1016 27.4489 28.7422 27.4901 27.377 27.5313C28.6422 27.4548 29.9016 27.3783 31.1668 27.3017V27.2959Z" fill="#F9A678"/>
</g>
<g style="mix-blend-mode:multiply">
<path d="M7.73921 32.5157C7.7039 32.4981 7.6627 32.4804 7.6274 32.4686C7.58032 32.4451 7.53324 32.4275 7.48616 32.4039C7.45085 32.3863 7.41554 32.3686 7.38023 32.351C7.33315 32.3274 7.28607 32.3039 7.239 32.2744C7.20957 32.2568 7.17426 32.2391 7.14484 32.2215C7.09776 32.1921 7.05068 32.1685 7.0036 32.1391C6.97418 32.1214 6.95064 32.1038 6.92121 32.0861C6.87414 32.0567 6.82706 32.0273 6.78586 31.992C6.76232 31.9743 6.74467 31.9567 6.72113 31.939C6.67405 31.9037 6.62697 31.8684 6.58578 31.8272C6.58578 31.8272 6.58578 31.8213 6.57989 31.8154C6.47397 31.7154 6.37981 31.6095 6.30919 31.4976C6.30919 31.4976 6.3033 31.4859 6.29742 31.4859C6.27388 31.4447 6.25623 31.4035 6.23857 31.3564C6.2268 31.3329 6.21503 31.3093 6.20915 31.2858C6.19738 31.2446 6.18561 31.2034 6.17972 31.1622C6.17972 31.1328 6.16795 31.1034 6.16207 31.0739C6.16207 31.0327 6.16207 30.9916 6.16207 30.9504C6.16207 30.9268 6.16207 30.9092 6.16207 30.8856C6.16207 30.8856 6.16207 30.8856 6.16207 30.8915C6.17384 30.7856 6.19738 30.6738 6.25034 30.562C6.84471 29.2967 8.4807 29.0084 9.7224 28.8553C11.7939 28.5964 13.8889 28.4787 15.9721 28.4022C20.2681 28.2374 24.564 28.1786 28.8599 28.0491C30.9844 27.9844 33.1147 27.8726 35.2391 27.8314C37.034 27.7961 40.2177 27.4077 42.0067 27.1782C42.3892 27.1311 42.6305 27.0016 42.807 26.8545C42.9659 27.4018 43.0836 27.9491 43.1837 28.5081C43.3308 28.2316 43.3896 27.9255 43.4132 27.6136C43.3896 27.4842 43.3602 27.3547 43.3367 27.2311C43.1954 26.5779 43.0071 25.9423 42.8659 25.2891C42.707 24.5653 42.6835 23.8179 42.6187 23.0764C42.554 22.3173 42.4893 21.5581 42.4245 20.799C42.3774 20.1987 42.3363 19.6044 42.3068 19.0041C42.3363 18.9747 42.3716 18.9453 42.401 18.9158C42.3833 18.8452 42.3421 18.7805 42.2951 18.7275C42.2598 17.8801 42.2421 17.0327 42.2715 16.1794C42.3245 14.667 42.4716 13.1605 42.6187 11.6539C42.6599 11.242 42.707 10.8359 42.76 10.4299C42.86 9.11756 43.0189 7.80523 43.2425 6.50468C43.1719 6.46349 43.1013 6.46349 43.0601 6.55176C42.6305 7.41683 42.4304 8.37018 42.2892 9.32941C42.1715 9.32353 42.0479 9.32353 41.9302 9.32353C41.8655 9.28822 41.8066 9.25879 41.7419 9.22348C41.6301 9.22937 41.5183 9.24114 41.4064 9.24702C40.1294 9.35884 38.8701 9.57658 37.5931 9.74135C34.9861 10.0827 32.3438 10.2769 29.7191 10.5005C28.4539 10.6064 27.1828 10.6888 25.9175 10.8183C24.6228 10.9536 23.34 11.1302 22.0512 11.3008C19.503 11.6363 16.9313 11.8658 14.3597 11.907C13.3534 11.9246 12.0646 12.007 11.1524 11.5009C10.2403 10.9889 10.2638 9.98852 10.7699 9.19406C11.223 8.47611 11.9116 7.88762 12.6472 7.46391C13.6711 6.88132 14.8481 6.69888 15.9957 6.52822C18.5791 6.14571 21.1743 5.87501 23.7695 5.55722C26.3765 5.23356 28.9835 4.90989 31.5905 4.56268C34.1916 4.21548 36.7868 3.83296 39.3821 3.44456C41.989 3.05028 44.6019 2.67953 47.1971 2.21463C47.8386 2.09693 48.48 1.99689 49.1274 1.89685C49.1744 1.89096 49.198 1.86742 49.2098 1.83799C50.4515 1.72618 51.6932 1.60849 52.9408 1.53198C56.4717 1.30247 60.0261 1.20832 63.5688 1.33778C65.3578 1.40252 67.1527 1.50844 68.924 1.73795C70.6365 1.96158 72.3255 2.32644 73.9967 2.73838C75.6033 3.13855 77.257 3.49752 78.8047 4.09778C80.1229 4.60976 81.3469 5.32771 82.4827 6.16924C83.1477 6.66357 83.7833 7.19321 84.4071 7.7405C84.8955 8.1701 85.3839 8.61146 85.8312 9.08813C85.8253 9.08813 85.8194 9.08813 85.8077 9.08813C85.8606 9.14698 85.9136 9.21172 85.9665 9.27057C86.6256 9.85905 87.1906 10.5593 87.7143 11.2773C87.632 11.0713 87.5437 10.8654 87.4495 10.6653C87.0141 10.1239 86.5609 9.60011 86.1254 9.05871C85.7782 8.62911 85.3839 8.15833 85.0662 7.65812C84.6895 7.31091 84.3011 6.97547 83.9186 6.6518C82.7946 5.69846 81.5941 4.8275 80.2818 4.15663C78.8518 3.42102 77.3394 3.00908 75.7975 2.59714C74.1027 2.14401 72.402 1.7203 70.6777 1.40252C68.9064 1.07296 67.1232 0.902302 65.3284 0.790493C61.6562 0.566868 57.9664 0.643372 54.2943 0.843456C52.4405 0.943501 50.5927 1.10827 48.7449 1.27305C46.8794 1.6026 45.0021 1.90862 43.1248 2.14989C43.1248 2.14989 43.1189 2.14989 43.1131 2.14989C43.0836 2.16166 43.066 2.17932 43.0483 2.19697C42.3127 2.29113 41.5771 2.39117 40.8415 2.49121C38.1345 2.87373 35.4274 3.27978 32.7204 3.66818C30.0428 4.05658 27.3652 4.47441 24.6817 4.8275C21.9923 5.18059 19.2971 5.45129 16.6136 5.83381C15.4189 6.00447 14.1831 6.14571 13.0591 6.60473C12.2117 6.95193 11.4525 7.49334 10.8405 8.17598C10.2991 8.78212 9.83422 9.57657 9.96368 10.4181C10.1049 11.342 10.8876 11.9894 11.7527 12.2189C11.9998 12.2836 12.2529 12.3307 12.5059 12.366C12.3824 12.3719 12.2588 12.3837 12.1411 12.3837C10.9582 12.5425 9.78714 12.7544 8.61605 12.9662C7.30961 13.2075 6.13264 13.6195 4.96744 14.255C4.10825 14.7199 3.14314 15.3202 2.76062 16.2677C2.41342 17.1327 2.76062 18.0508 3.47858 18.5922C4.18476 19.1159 5.1028 19.316 5.95021 19.4808C8.98091 20.0634 12.094 19.7221 15.16 19.7868C15.5896 19.7986 16.0133 19.7986 16.4429 19.7986C14.9423 19.8986 13.4357 19.9928 11.9351 20.1105C10.2815 20.2399 8.63959 20.4224 6.99183 20.6283C5.53827 20.8049 4.03764 20.9049 2.6547 21.4169C1.54246 21.8288 0.559689 22.6763 0.406683 23.918C0.271331 25.0537 0.871586 26.1012 1.82493 26.6897C2.9254 27.3665 4.2848 27.4959 5.54416 27.5725C7.22723 27.6784 8.91029 27.5842 10.5934 27.6313C12.1646 27.6725 13.7359 27.7725 15.3071 27.8549C14.2596 27.902 13.218 27.955 12.1705 28.0374C11.2172 28.1139 10.2579 28.1962 9.31046 28.3257C8.54543 28.4258 7.76863 28.5788 7.08011 28.9495C6.36804 29.3379 5.59712 30.1206 5.73247 31.0092C5.83252 31.6624 6.38569 32.145 6.91533 32.4804C7.12718 32.6158 7.34492 32.7335 7.57443 32.8394C7.64505 32.8747 7.70978 32.8982 7.7804 32.9336C7.94518 33.0042 8.10995 33.0748 8.28061 33.1395C8.30415 33.1513 8.33358 33.1572 8.35712 33.1689C8.14526 32.9865 7.96872 32.7747 7.83337 32.5393C7.80983 32.5275 7.7804 32.5157 7.75686 32.504L7.73921 32.5157ZM40.9239 18.7393C41.1946 18.7746 41.4594 18.8276 41.7125 18.9158C41.7125 18.9158 41.7125 18.9158 41.7125 18.9217C41.5183 19.0453 41.3005 19.1395 41.071 19.2042C37.4401 19.3454 33.8091 19.2925 30.1781 19.2807C31.4728 19.1865 32.7675 19.0924 34.0622 19.0218C35.2921 18.957 36.5161 18.8982 37.7402 18.7864C38.7936 18.6922 39.8646 18.5981 40.918 18.7275L40.9239 18.7393ZM5.46766 18.9217C4.70851 18.7511 3.63747 18.4921 3.24318 17.7448C2.74297 16.7973 3.67278 15.8557 4.37896 15.3614C5.32642 14.6964 6.43866 14.155 7.55089 13.8549C8.92795 13.4782 10.3874 13.2781 11.7939 13.0663C13.3063 12.8427 14.8305 12.7309 16.3546 12.6485C19.3736 12.4837 22.3866 12.3425 25.3938 12.0835C28.4833 11.8187 31.5846 11.5303 34.6624 11.1302C36.7574 10.8595 38.8348 10.524 40.9298 10.2533C40.9533 10.2416 40.9768 10.2298 41.0004 10.218C41.0298 10.218 41.0534 10.218 41.0828 10.218C41.4535 10.1945 41.8419 10.1709 42.2009 10.0709C42.1774 10.2533 42.1597 10.4358 42.1362 10.6182C41.9655 12.1188 41.7948 13.6195 41.7066 15.126C41.6418 16.2206 41.6477 17.3152 41.6889 18.4097C41.0534 18.1685 40.3177 18.1449 39.6645 18.1449C38.6759 18.1449 37.6931 18.2626 36.7044 18.3391C35.3039 18.445 33.8915 18.4862 32.485 18.5745C30.9726 18.6687 29.4661 18.8099 27.9537 18.91C24.8641 19.1218 21.7687 19.1218 18.6791 19.2807C17.1491 19.3572 15.6308 19.3219 14.1007 19.2984C12.5824 19.2748 11.0641 19.3631 9.53997 19.3395C8.17469 19.3219 6.79763 19.2218 5.46177 18.9217H5.46766ZM15.3895 27.4606C13.6888 27.3783 11.9881 27.2606 10.2873 27.2194C8.62782 27.1782 6.96241 27.2664 5.30876 27.1546C4.04941 27.0664 2.56054 26.931 1.56011 26.0718C0.577344 25.2303 0.624422 23.7885 1.50127 22.8763C2.44873 21.8877 4.06706 21.6876 5.35584 21.5169C6.87414 21.3169 8.4042 21.1285 9.92837 20.9755C13.3416 20.6283 16.7725 20.4694 20.1974 20.2105C26.6237 19.7279 33.0676 20.0693 39.4939 19.8339C39.6763 19.8339 39.8587 19.8339 40.047 19.8162C40.153 19.8103 40.2589 19.8044 40.3648 19.7927C40.4825 19.7927 40.5943 19.7809 40.712 19.7809C40.8474 19.775 40.9827 19.7633 41.1181 19.7574C41.3005 19.7103 41.4771 19.6456 41.6536 19.5808C41.6654 19.5691 41.6771 19.5632 41.6948 19.5514C41.7183 19.5337 41.7419 19.5161 41.7654 19.4984C41.7713 19.5985 41.7772 19.6926 41.7831 19.7927C41.889 21.3345 42.0185 22.8822 42.2127 24.4123C42.3009 25.1067 42.5069 25.7776 42.7129 26.4426C41.3535 25.86 36.2395 26.4955 35.5275 26.5426C32.2202 26.7662 28.907 26.8957 25.5997 27.137C22.2042 27.3841 18.8145 27.6195 15.4072 27.4548L15.3895 27.4606ZM31.1668 27.2959C33.2912 27.1664 35.4157 27.0546 37.5342 26.9016C38.4287 26.8368 39.3232 26.7721 40.2177 26.7368C40.918 26.7133 41.6477 26.6721 42.348 26.7486C40.7532 27.237 39.0525 27.2547 37.3989 27.2606C35.4157 27.2606 33.4442 27.3312 31.461 27.4018C30.1016 27.4489 28.7422 27.4901 27.377 27.5313C28.6422 27.4548 29.9016 27.3783 31.1668 27.3017V27.2959Z" fill="#FBD0B4"/>
</g>
<path d="M18.6793 19.2736C21.7689 19.1147 24.8702 19.1147 27.9538 18.9029C29.4662 18.8028 30.9728 18.6557 32.4852 18.5674C33.8916 18.4792 35.2981 18.438 36.7046 18.332C37.6933 18.2555 38.676 18.1378 39.6647 18.1378C40.3179 18.1378 41.0535 18.1614 41.6891 18.4027C41.6479 17.3081 41.642 16.2135 41.7067 15.1189C41.795 13.6124 41.9657 12.1117 42.1363 10.6111C42.1599 10.4287 42.1775 10.2462 42.2011 10.0638C41.8362 10.1639 41.4537 10.1874 41.0829 10.2109C41.0535 10.2109 41.03 10.2109 41.0005 10.2109C40.977 10.2227 40.9535 10.2345 40.9299 10.2462C38.8408 10.517 36.7576 10.8524 34.6626 11.1231C31.5848 11.5233 28.4835 11.8116 25.3939 12.0764C22.3809 12.3354 19.3737 12.4766 16.3548 12.6414C14.8306 12.7238 13.3064 12.8415 11.794 13.0592C10.3817 13.2652 8.9281 13.4711 7.55105 13.8478C6.43293 14.1479 5.32658 14.6893 4.37911 15.3543C3.67293 15.8486 2.74313 16.7961 3.24334 17.7377C3.63762 18.485 4.71455 18.744 5.46781 18.9146C6.80367 19.2148 8.17484 19.3148 9.54601 19.3325C11.0643 19.3501 12.5826 19.2677 14.1068 19.2913C15.6368 19.3148 17.1551 19.3501 18.6852 19.2736H18.6793ZM5.90329 18.3791C5.5502 18.285 5.20299 18.1555 4.86756 18.0084C4.6557 17.9142 4.41442 17.7965 4.27907 17.5964C4.05545 17.2669 4.36735 16.9785 4.64393 16.8255C5.18534 16.5254 5.82679 16.3724 6.41527 16.2017C7.16265 15.984 7.91591 15.8015 8.67506 15.6427C11.794 14.9953 14.9777 14.7894 18.1497 14.6305C19.7445 14.5481 21.3451 14.4775 22.9399 14.3656C24.5936 14.2538 26.2355 14.0714 27.8832 13.9537C29.6016 13.836 31.3082 13.6889 33.0207 13.4476C33.8505 13.3299 34.6802 13.2181 35.5159 13.1534C36.3103 13.0945 37.0989 13.0945 37.8875 13.1239C38.3641 13.1416 38.8643 13.2004 39.2822 13.4476C39.6823 13.683 39.9354 14.0832 40.0766 14.5187C40.2708 15.113 40.3179 15.8369 39.9589 16.3783C39.6882 16.7902 39.2351 17.0197 38.782 17.1668C37.7403 17.5082 36.5987 17.5199 35.5159 17.5435C34.0388 17.5788 32.5617 17.6317 31.0846 17.6612C29.3603 17.6965 27.6302 17.72 25.9059 17.773C24.1816 17.8259 22.4574 17.9377 20.7272 18.0319C19.003 18.1261 17.2787 18.2202 15.5544 18.2908C14.8071 18.3203 14.0597 18.3379 13.3123 18.385C12.7238 18.4262 12.1353 18.4792 11.541 18.5262C10.6641 18.5969 9.78729 18.6557 8.91045 18.6557C7.89237 18.6851 6.86841 18.6439 5.89152 18.385L5.90329 18.3791Z" fill="#FBD0B4"/>
<g style="mix-blend-mode:multiply">
<path d="M18.6793 19.2736C21.7689 19.1147 24.8702 19.1147 27.9538 18.9029C29.4662 18.8028 30.9728 18.6557 32.4852 18.5674C33.8916 18.4792 35.2981 18.438 36.7046 18.332C37.6933 18.2555 38.676 18.1378 39.6647 18.1378C40.3179 18.1378 41.0535 18.1614 41.6891 18.4027C41.6479 17.3081 41.642 16.2135 41.7067 15.1189C41.795 13.6124 41.9657 12.1117 42.1363 10.6111C42.1599 10.4287 42.1775 10.2462 42.2011 10.0638C41.8362 10.1639 41.4537 10.1874 41.0829 10.2109C41.0535 10.2109 41.03 10.2109 41.0005 10.2109C40.977 10.2227 40.9535 10.2345 40.9299 10.2462C38.8408 10.517 36.7576 10.8524 34.6626 11.1231C31.5848 11.5233 28.4835 11.8116 25.3939 12.0764C22.3809 12.3354 19.3737 12.4766 16.3548 12.6414C14.8306 12.7238 13.3064 12.8415 11.794 13.0592C10.3817 13.2652 8.9281 13.4711 7.55105 13.8478C6.43293 14.1479 5.32658 14.6893 4.37911 15.3543C3.67293 15.8486 2.74313 16.7961 3.24334 17.7377C3.63762 18.485 4.71455 18.744 5.46781 18.9146C6.80367 19.2148 8.17484 19.3148 9.54601 19.3325C11.0643 19.3501 12.5826 19.2677 14.1068 19.2913C15.6368 19.3148 17.1551 19.3501 18.6852 19.2736H18.6793ZM5.90329 18.3791C5.5502 18.285 5.20299 18.1555 4.86756 18.0084C4.6557 17.9142 4.41442 17.7965 4.27907 17.5964C4.05545 17.2669 4.36735 16.9785 4.64393 16.8255C5.18534 16.5254 5.82679 16.3724 6.41527 16.2017C7.16265 15.984 7.91591 15.8015 8.67506 15.6427C11.794 14.9953 14.9777 14.7894 18.1497 14.6305C19.7445 14.5481 21.3451 14.4775 22.9399 14.3656C24.5936 14.2538 26.2355 14.0714 27.8832 13.9537C29.6016 13.836 31.3082 13.6889 33.0207 13.4476C33.8505 13.3299 34.6802 13.2181 35.5159 13.1534C36.3103 13.0945 37.0989 13.0945 37.8875 13.1239C38.3641 13.1416 38.8643 13.2004 39.2822 13.4476C39.6823 13.683 39.9354 14.0832 40.0766 14.5187C40.2708 15.113 40.3179 15.8369 39.9589 16.3783C39.6882 16.7902 39.2351 17.0197 38.782 17.1668C37.7403 17.5082 36.5987 17.5199 35.5159 17.5435C34.0388 17.5788 32.5617 17.6317 31.0846 17.6612C29.3603 17.6965 27.6302 17.72 25.9059 17.773C24.1816 17.8259 22.4574 17.9377 20.7272 18.0319C19.003 18.1261 17.2787 18.2202 15.5544 18.2908C14.8071 18.3203 14.0597 18.3379 13.3123 18.385C12.7238 18.4262 12.1353 18.4792 11.541 18.5262C10.6641 18.5969 9.78729 18.6557 8.91045 18.6557C7.89237 18.6851 6.86841 18.6439 5.89152 18.385L5.90329 18.3791Z" fill="#FBD0B4"/>
</g>
<path d="M35.5159 26.5537C36.228 26.5066 41.3419 25.871 42.7013 26.4536C42.4954 25.7886 42.2894 25.1177 42.2011 24.4233C42.0069 22.8933 41.8774 21.3397 41.7715 19.8037C41.7656 19.7037 41.7598 19.6095 41.7539 19.5095C41.7303 19.5271 41.7068 19.5448 41.6833 19.5624C41.6715 19.5742 41.6597 19.5801 41.6421 19.5919C41.4655 19.6625 41.289 19.7213 41.1065 19.7684C40.9712 19.7743 40.8358 19.7861 40.7005 19.792C40.5828 19.792 40.471 19.8037 40.3533 19.8037C40.2473 19.8096 40.1414 19.8214 40.0355 19.8273C39.8531 19.839 39.6706 19.839 39.4823 19.8449C33.0502 20.0803 26.6063 19.739 20.1859 20.2216C16.7668 20.4805 13.3359 20.6394 9.91682 20.9866C8.39265 21.1396 6.86847 21.3279 5.34429 21.528C4.05551 21.6986 2.44306 21.8987 1.48971 22.8874C0.612872 23.7937 0.565793 25.2354 1.54856 26.0829C2.54899 26.9421 4.04374 27.0833 5.29721 27.1657C6.95674 27.2834 8.61627 27.1951 10.2758 27.2304C11.9765 27.2716 13.6772 27.3893 15.378 27.4717C18.7853 27.6365 22.175 27.407 25.5705 27.1539C28.8778 26.9126 32.191 26.7832 35.4983 26.5595L35.5159 26.5537ZM2.24886 25.971C1.76042 25.6238 1.39556 25.1589 1.64861 24.594C1.90754 24.0232 2.61372 23.7348 3.15513 23.5053C3.90839 23.1875 4.70284 22.9698 5.50907 22.8227C7.17448 22.5108 8.88697 22.4284 10.5759 22.2871C12.5062 22.1224 14.4423 22.0223 16.3843 21.9635C20.2683 21.8399 24.1523 21.8693 28.0363 21.8634C29.584 21.8634 31.1376 21.8693 32.6853 21.8281C33.3562 21.8105 34.0271 21.781 34.7038 21.781C35.6219 21.781 36.5399 21.8046 37.4462 21.9046C38.2465 21.9929 39.0821 22.1224 39.8119 22.4813C40.3356 22.7344 40.8064 23.1816 40.7711 23.8054C40.7181 24.6999 39.9355 25.2413 39.1704 25.5238C38.1347 25.9122 36.993 26.0005 35.8984 26.0652C34.6038 26.1417 33.315 26.23 32.0262 26.3065C28.1599 26.536 24.2876 26.6066 20.4154 26.6243C18.4911 26.636 16.5667 26.6478 14.6424 26.6302C12.7239 26.6125 10.7996 26.536 8.88109 26.636C7.50403 26.7067 6.12698 26.9715 4.74404 26.9067C3.85543 26.8655 2.84323 26.6655 2.25475 25.971H2.24886Z" fill="#FBD0B4"/>
<g style="mix-blend-mode:multiply">
<path d="M35.5159 26.5537C36.228 26.5066 41.3419 25.871 42.7013 26.4536C42.4954 25.7886 42.2894 25.1177 42.2011 24.4233C42.0069 22.8933 41.8774 21.3397 41.7715 19.8037C41.7656 19.7037 41.7598 19.6095 41.7539 19.5095C41.7303 19.5271 41.7068 19.5448 41.6833 19.5624C41.6715 19.5742 41.6597 19.5801 41.6421 19.5919C41.4655 19.6625 41.289 19.7213 41.1065 19.7684C40.9712 19.7743 40.8358 19.7861 40.7005 19.792C40.5828 19.792 40.471 19.8037 40.3533 19.8037C40.2473 19.8096 40.1414 19.8214 40.0355 19.8273C39.8531 19.839 39.6706 19.839 39.4823 19.8449C33.0502 20.0803 26.6063 19.739 20.1859 20.2216C16.7668 20.4805 13.3359 20.6394 9.91682 20.9866C8.39265 21.1396 6.86847 21.3279 5.34429 21.528C4.05551 21.6986 2.44306 21.8987 1.48971 22.8874C0.612872 23.7937 0.565793 25.2354 1.54856 26.0829C2.54899 26.9421 4.04374 27.0833 5.29721 27.1657C6.95674 27.2834 8.61627 27.1951 10.2758 27.2304C11.9765 27.2716 13.6772 27.3893 15.378 27.4717C18.7853 27.6365 22.175 27.407 25.5705 27.1539C28.8778 26.9126 32.191 26.7832 35.4983 26.5595L35.5159 26.5537ZM2.24886 25.971C1.76042 25.6238 1.39556 25.1589 1.64861 24.594C1.90754 24.0232 2.61372 23.7348 3.15513 23.5053C3.90839 23.1875 4.70284 22.9698 5.50907 22.8227C7.17448 22.5108 8.88697 22.4284 10.5759 22.2871C12.5062 22.1224 14.4423 22.0223 16.3843 21.9635C20.2683 21.8399 24.1523 21.8693 28.0363 21.8634C29.584 21.8634 31.1376 21.8693 32.6853 21.8281C33.3562 21.8105 34.0271 21.781 34.7038 21.781C35.6219 21.781 36.5399 21.8046 37.4462 21.9046C38.2465 21.9929 39.0821 22.1224 39.8119 22.4813C40.3356 22.7344 40.8064 23.1816 40.7711 23.8054C40.7181 24.6999 39.9355 25.2413 39.1704 25.5238C38.1347 25.9122 36.993 26.0005 35.8984 26.0652C34.6038 26.1417 33.315 26.23 32.0262 26.3065C28.1599 26.536 24.2876 26.6066 20.4154 26.6243C18.4911 26.636 16.5667 26.6478 14.6424 26.6302C12.7239 26.6125 10.7996 26.536 8.88109 26.636C7.50403 26.7067 6.12698 26.9715 4.74404 26.9067C3.85543 26.8655 2.84323 26.6655 2.25475 25.971H2.24886Z" fill="#FBD0B4"/>
</g>
<path d="M6.29762 31.4844C6.27408 31.4432 6.25642 31.402 6.23877 31.3549C6.25642 31.3961 6.27408 31.4432 6.29762 31.4844Z" fill="#FBD0B4"/>
<g style="mix-blend-mode:multiply">
<path d="M6.29762 31.4844C6.27408 31.4432 6.25642 31.402 6.23877 31.3549C6.25642 31.3961 6.27408 31.4432 6.29762 31.4844Z" fill="#FBD0B4"/>
</g>
<path d="M6.57979 31.8203C6.47386 31.7203 6.3797 31.6143 6.30908 31.5025C6.3797 31.6143 6.46797 31.7203 6.57979 31.8203Z" fill="#FBD0B4"/>
<g style="mix-blend-mode:multiply">
<path d="M6.57979 31.8203C6.47386 31.7203 6.3797 31.6143 6.30908 31.5025C6.3797 31.6143 6.46797 31.7203 6.57979 31.8203Z" fill="#FBD0B4"/>
</g>
<path d="M110.365 9.21711C108.3 9.36423 106.228 9.56431 104.157 9.66436C102.574 9.74086 100.991 9.71732 99.4017 9.72909C96.2298 9.75263 92.8695 9.75263 89.833 10.7942C89.2386 11.0002 88.6619 11.2533 88.1205 11.571C87.9086 11.265 87.6791 10.9708 87.4437 10.6766C87.5379 10.8766 87.632 11.0767 87.7085 11.2886C87.1848 10.5706 86.6139 9.87621 85.9607 9.28184C85.9078 9.21711 85.8548 9.15826 85.8018 9.09941C85.8077 9.09941 85.8195 9.09941 85.8254 9.09941C85.3781 8.62274 84.8897 8.18137 84.4012 7.75178C83.7774 7.20449 83.1419 6.66897 82.4769 6.18052C81.3411 5.33899 80.1171 4.62104 78.7989 4.10905C77.2511 3.5088 75.5975 3.14983 73.9909 2.74966C72.3196 2.33183 70.6307 1.97286 68.9182 1.74923C67.1469 1.51973 65.352 1.4138 63.563 1.34906C60.0262 1.2196 56.4717 1.31375 52.9349 1.54326C51.6873 1.62565 50.4456 1.74335 49.2039 1.84927C49.1922 1.8787 49.1686 1.90224 49.1216 1.90812C48.4801 2.00816 47.8328 2.11409 47.1913 2.22591C44.5961 2.69081 41.9832 3.06155 39.3762 3.45584C36.781 3.84424 34.1858 4.22675 31.5847 4.57396C28.9777 4.92117 26.3707 5.24483 23.7637 5.5685C21.1744 5.88628 18.5733 6.16287 15.9898 6.5395C14.8423 6.71016 13.6594 6.89259 12.6414 7.47519C11.9058 7.89301 11.2172 8.4815 10.7641 9.20534C10.2639 9.99979 10.2345 11.0002 11.1466 11.5122C12.0588 12.0242 13.3475 11.9359 14.3538 11.9183C16.9255 11.8771 19.4972 11.6534 22.0454 11.3121C23.3341 11.1415 24.6229 10.959 25.9117 10.8296C27.1769 10.7001 28.4481 10.6236 29.7133 10.5118C32.338 10.2882 34.9803 10.094 37.5872 9.75263C38.8584 9.58785 40.1177 9.37012 41.4006 9.2583C41.5124 9.24653 41.6243 9.24065 41.7361 9.23476C41.8008 9.27007 41.8596 9.30538 41.9244 9.33481C42.0421 9.33481 42.1657 9.3348 42.2834 9.34069C42.4246 8.38146 42.6247 7.42811 43.0543 6.56304C43.0955 6.47477 43.172 6.47477 43.2367 6.51596C43.0131 7.81651 42.8542 9.12295 42.7541 10.4412C42.7012 10.8472 42.6541 11.2533 42.6129 11.6652C42.4658 13.1717 42.3128 14.6782 42.2657 16.1907C42.2363 17.0381 42.2539 17.8914 42.2892 18.7388C42.3422 18.7918 42.3834 18.8565 42.3952 18.9271C42.3657 18.9565 42.3304 18.986 42.301 19.0154C42.3304 19.6156 42.3716 20.21 42.4187 20.8103C42.4776 21.5694 42.5482 22.3286 42.6129 23.0877C42.6776 23.8233 42.7071 24.5707 42.8601 25.3004C43.0013 25.9536 43.1896 26.5892 43.3309 27.2424C43.3603 27.366 43.3838 27.4955 43.4074 27.6249C43.3897 27.9368 43.325 28.2428 43.1779 28.5194C43.0778 27.9604 42.9601 27.4131 42.8012 26.8658C42.6306 27.0129 42.3893 27.1424 42.0009 27.1894C40.2119 27.419 37.0282 27.8074 35.2333 27.8427C33.1089 27.8839 30.9786 27.9957 28.8541 28.0604C24.5582 28.1899 20.2622 28.2487 15.9663 28.4135C13.8772 28.49 11.7881 28.6136 9.71659 28.8666C8.47488 29.0196 6.83889 29.308 6.24452 30.5732C6.19156 30.6909 6.16802 30.7969 6.15625 30.9028C6.51523 31.4501 7.05075 31.8738 7.65689 32.2092C7.53919 31.6914 7.8452 31.25 8.32188 30.9616C8.99275 30.5615 9.7872 30.432 10.5464 30.3261C11.7057 30.1613 12.8768 30.1613 14.042 30.1907C15.2248 30.226 16.4077 30.3025 17.5964 30.3025C18.8322 30.3025 20.068 30.2378 21.298 30.1672C23.8049 30.0259 26.306 29.8082 28.8129 29.6729C30.0782 29.6081 31.3434 29.4433 32.6028 29.3139C33.8562 29.1844 35.1038 29.0491 36.3514 28.9137C37.5814 28.7842 38.8113 28.6548 40.0412 28.5371C40.8357 28.4606 41.6596 28.337 42.454 28.4253C42.9307 28.4782 43.3603 28.6371 43.7075 28.9784C44.1371 29.4021 44.4196 29.9612 44.7079 30.485C45.4788 31.8856 46.2851 33.245 47.2855 34.4925C47.4444 34.6926 47.615 34.8927 47.7798 35.0869C46.1497 32.6212 45.1493 29.7552 44.5431 26.8834C43.8487 23.6056 43.6369 20.2159 43.8723 16.8733C43.9841 15.2726 44.2312 13.6955 44.5549 12.1242C44.9315 10.2999 45.42 8.46385 46.3145 6.82197C46.7323 6.05106 47.2502 5.28603 47.8975 4.68577C48.4978 4.12671 49.2451 3.75596 50.0396 3.54411C51.6697 3.10863 53.3822 3.27929 55.0476 3.35579C59.1788 3.53823 63.2923 3.8972 67.3587 4.65635C69.4537 5.04475 71.5311 5.53319 73.5672 6.1511C74.4323 6.41592 75.2915 6.71016 76.1389 7.01617C77.7926 7.46342 79.4227 8.04014 80.9586 8.80517C82.265 9.45839 83.4538 10.294 84.5484 11.2533C85.7136 12.2772 86.7787 13.4248 87.6732 14.69C88.2146 15.4609 88.7031 16.2907 89.062 17.1675C89.0738 17.0616 89.0856 16.9616 89.0974 16.8556C89.2562 15.6551 89.6388 14.4075 90.5509 13.5601C91.5749 12.6127 93.1344 12.4008 94.4702 12.3008C95.9709 12.189 97.4833 12.2655 98.9839 12.3184C100.873 12.3832 102.774 12.342 104.669 12.3361C109.029 12.3184 113.384 12.1772 117.745 12.1125C120.605 12.0713 123.471 12.0301 126.331 11.983L126.372 8.20492C121.034 8.51681 115.697 8.84636 110.359 9.22299L110.365 9.21711ZM39.0761 5.70385C39.541 5.7627 40.0648 5.82155 40.4767 6.05694C40.8063 6.24526 41.0652 6.56892 41.124 6.95144C41.1947 7.36926 41.0358 7.77532 40.7768 8.09899C40.2531 8.75809 39.3468 8.92286 38.5582 9.02291C37.6284 9.13472 36.6927 9.18768 35.7571 9.27596C33.1971 9.51135 30.6372 9.7644 28.0773 10.041C25.5351 10.3117 23.0046 10.653 20.4623 10.9178C18.691 11.1003 16.9196 11.2474 15.1424 11.3121C15.1071 11.3121 15.0718 11.318 15.0306 11.3239C14.601 11.3474 14.1714 11.3474 13.7477 11.3474C13.5417 11.3474 13.3358 11.3474 13.1298 11.3474C12.6708 11.3474 11.4938 11.6064 11.5703 10.8001C11.5997 10.4941 11.8646 10.2646 12.1 10.1057C12.3824 9.91152 12.7002 9.7644 13.0121 9.62905C13.9596 9.20534 14.9835 8.9464 15.9957 8.73455C17.155 8.49327 18.3202 8.32261 19.4854 8.12252C20.7213 7.91067 21.9453 7.65762 23.1752 7.44577C24.4228 7.23392 25.6763 7.03971 26.9298 6.87494C28.1774 6.71016 29.4308 6.60423 30.6784 6.463C32.9206 6.20406 35.1333 5.66854 37.3989 5.63323C37.9521 5.62735 38.5053 5.645 39.0526 5.72151L39.0761 5.70385Z" fill="#FBD0B4"/>
<g style="mix-blend-mode:multiply">
<path d="M110.365 9.21711C108.3 9.36423 106.228 9.56431 104.157 9.66436C102.574 9.74086 100.991 9.71732 99.4017 9.72909C96.2298 9.75263 92.8695 9.75263 89.833 10.7942C89.2386 11.0002 88.6619 11.2533 88.1205 11.571C87.9086 11.265 87.6791 10.9708 87.4437 10.6766C87.5379 10.8766 87.632 11.0767 87.7085 11.2886C87.1848 10.5706 86.6139 9.87621 85.9607 9.28184C85.9078 9.21711 85.8548 9.15826 85.8018 9.09941C85.8077 9.09941 85.8195 9.09941 85.8254 9.09941C85.3781 8.62274 84.8897 8.18137 84.4012 7.75178C83.7774 7.20449 83.1419 6.66897 82.4769 6.18052C81.3411 5.33899 80.1171 4.62104 78.7989 4.10905C77.2511 3.5088 75.5975 3.14983 73.9909 2.74966C72.3196 2.33183 70.6307 1.97286 68.9182 1.74923C67.1469 1.51973 65.352 1.4138 63.563 1.34906C60.0262 1.2196 56.4717 1.31375 52.9349 1.54326C51.6873 1.62565 50.4456 1.74335 49.2039 1.84927C49.1922 1.8787 49.1686 1.90224 49.1216 1.90812C48.4801 2.00816 47.8328 2.11409 47.1913 2.22591C44.5961 2.69081 41.9832 3.06155 39.3762 3.45584C36.781 3.84424 34.1858 4.22675 31.5847 4.57396C28.9777 4.92117 26.3707 5.24483 23.7637 5.5685C21.1744 5.88628 18.5733 6.16287 15.9898 6.5395C14.8423 6.71016 13.6594 6.89259 12.6414 7.47519C11.9058 7.89301 11.2172 8.4815 10.7641 9.20534C10.2639 9.99979 10.2345 11.0002 11.1466 11.5122C12.0588 12.0242 13.3475 11.9359 14.3538 11.9183C16.9255 11.8771 19.4972 11.6534 22.0454 11.3121C23.3341 11.1415 24.6229 10.959 25.9117 10.8296C27.1769 10.7001 28.4481 10.6236 29.7133 10.5118C32.338 10.2882 34.9803 10.094 37.5872 9.75263C38.8584 9.58785 40.1177 9.37012 41.4006 9.2583C41.5124 9.24653 41.6243 9.24065 41.7361 9.23476C41.8008 9.27007 41.8596 9.30538 41.9244 9.33481C42.0421 9.33481 42.1657 9.3348 42.2834 9.34069C42.4246 8.38146 42.6247 7.42811 43.0543 6.56304C43.0955 6.47477 43.172 6.47477 43.2367 6.51596C43.0131 7.81651 42.8542 9.12295 42.7541 10.4412C42.7012 10.8472 42.6541 11.2533 42.6129 11.6652C42.4658 13.1717 42.3128 14.6782 42.2657 16.1907C42.2363 17.0381 42.2539 17.8914 42.2892 18.7388C42.3422 18.7918 42.3834 18.8565 42.3952 18.9271C42.3657 18.9565 42.3304 18.986 42.301 19.0154C42.3304 19.6156 42.3716 20.21 42.4187 20.8103C42.4776 21.5694 42.5482 22.3286 42.6129 23.0877C42.6776 23.8233 42.7071 24.5707 42.8601 25.3004C43.0013 25.9536 43.1896 26.5892 43.3309 27.2424C43.3603 27.366 43.3838 27.4955 43.4074 27.6249C43.3897 27.9368 43.325 28.2428 43.1779 28.5194C43.0778 27.9604 42.9601 27.4131 42.8012 26.8658C42.6306 27.0129 42.3893 27.1424 42.0009 27.1894C40.2119 27.419 37.0282 27.8074 35.2333 27.8427C33.1089 27.8839 30.9786 27.9957 28.8541 28.0604C24.5582 28.1899 20.2622 28.2487 15.9663 28.4135C13.8772 28.49 11.7881 28.6136 9.71659 28.8666C8.47488 29.0196 6.83889 29.308 6.24452 30.5732C6.19156 30.6909 6.16802 30.7969 6.15625 30.9028C6.51523 31.4501 7.05075 31.8738 7.65689 32.2092C7.53919 31.6914 7.8452 31.25 8.32188 30.9616C8.99275 30.5615 9.7872 30.432 10.5464 30.3261C11.7057 30.1613 12.8768 30.1613 14.042 30.1907C15.2248 30.226 16.4077 30.3025 17.5964 30.3025C18.8322 30.3025 20.068 30.2378 21.298 30.1672C23.8049 30.0259 26.306 29.8082 28.8129 29.6729C30.0782 29.6081 31.3434 29.4433 32.6028 29.3139C33.8562 29.1844 35.1038 29.0491 36.3514 28.9137C37.5814 28.7842 38.8113 28.6548 40.0412 28.5371C40.8357 28.4606 41.6596 28.337 42.454 28.4253C42.9307 28.4782 43.3603 28.6371 43.7075 28.9784C44.1371 29.4021 44.4196 29.9612 44.7079 30.485C45.4788 31.8856 46.2851 33.245 47.2855 34.4925C47.4444 34.6926 47.615 34.8927 47.7798 35.0869C46.1497 32.6212 45.1493 29.7552 44.5431 26.8834C43.8487 23.6056 43.6369 20.2159 43.8723 16.8733C43.9841 15.2726 44.2312 13.6955 44.5549 12.1242C44.9315 10.2999 45.42 8.46385 46.3145 6.82197C46.7323 6.05106 47.2502 5.28603 47.8975 4.68577C48.4978 4.12671 49.2451 3.75596 50.0396 3.54411C51.6697 3.10863 53.3822 3.27929 55.0476 3.35579C59.1788 3.53823 63.2923 3.8972 67.3587 4.65635C69.4537 5.04475 71.5311 5.53319 73.5672 6.1511C74.4323 6.41592 75.2915 6.71016 76.1389 7.01617C77.7926 7.46342 79.4227 8.04014 80.9586 8.80517C82.265 9.45839 83.4538 10.294 84.5484 11.2533C85.7136 12.2772 86.7787 13.4248 87.6732 14.69C88.2146 15.4609 88.7031 16.2907 89.062 17.1675C89.0738 17.0616 89.0856 16.9616 89.0974 16.8556C89.2562 15.6551 89.6388 14.4075 90.5509 13.5601C91.5749 12.6127 93.1344 12.4008 94.4702 12.3008C95.9709 12.189 97.4833 12.2655 98.9839 12.3184C100.873 12.3832 102.774 12.342 104.669 12.3361C109.029 12.3184 113.384 12.1772 117.745 12.1125C120.605 12.0713 123.471 12.0301 126.331 11.983L126.372 8.20492C121.034 8.51681 115.697 8.84636 110.359 9.22299L110.365 9.21711ZM39.0761 5.70385C39.541 5.7627 40.0648 5.82155 40.4767 6.05694C40.8063 6.24526 41.0652 6.56892 41.124 6.95144C41.1947 7.36926 41.0358 7.77532 40.7768 8.09899C40.2531 8.75809 39.3468 8.92286 38.5582 9.02291C37.6284 9.13472 36.6927 9.18768 35.7571 9.27596C33.1971 9.51135 30.6372 9.7644 28.0773 10.041C25.5351 10.3117 23.0046 10.653 20.4623 10.9178C18.691 11.1003 16.9196 11.2474 15.1424 11.3121C15.1071 11.3121 15.0718 11.318 15.0306 11.3239C14.601 11.3474 14.1714 11.3474 13.7477 11.3474C13.5417 11.3474 13.3358 11.3474 13.1298 11.3474C12.6708 11.3474 11.4938 11.6064 11.5703 10.8001C11.5997 10.4941 11.8646 10.2646 12.1 10.1057C12.3824 9.91152 12.7002 9.7644 13.0121 9.62905C13.9596 9.20534 14.9835 8.9464 15.9957 8.73455C17.155 8.49327 18.3202 8.32261 19.4854 8.12252C20.7213 7.91067 21.9453 7.65762 23.1752 7.44577C24.4228 7.23392 25.6763 7.03971 26.9298 6.87494C28.1774 6.71016 29.4308 6.60423 30.6784 6.463C32.9206 6.20406 35.1333 5.66854 37.3989 5.63323C37.9521 5.62735 38.5053 5.645 39.0526 5.72151L39.0761 5.70385Z" fill="#FBD0B4"/>
</g>
<path d="M7.73926 32.5145C7.73926 32.5145 7.79222 32.538 7.81576 32.5498C7.79222 32.538 7.7628 32.5263 7.73926 32.5145Z" fill="#FBD0B4"/>
<g style="mix-blend-mode:multiply">
<path d="M7.73926 32.5145C7.73926 32.5145 7.79222 32.538 7.81576 32.5498C7.79222 32.538 7.7628 32.5263 7.73926 32.5145Z" fill="#FBD0B4"/>
</g>
<path d="M7.62756 32.4678C7.58049 32.4442 7.53341 32.4266 7.48633 32.403C7.53341 32.4266 7.58049 32.4501 7.62756 32.4678Z" fill="#FBD0B4"/>
<g style="mix-blend-mode:multiply">
<path d="M7.62756 32.4678C7.58049 32.4442 7.53341 32.4266 7.48633 32.403C7.53341 32.4266 7.58049 32.4501 7.62756 32.4678Z" fill="#FBD0B4"/>
</g>
<path d="M7.14465 32.2207C7.09758 32.1913 7.0505 32.1677 7.00342 32.1383C7.0505 32.1677 7.09758 32.1972 7.14465 32.2207Z" fill="#FBD0B4"/>
<g style="mix-blend-mode:multiply">
<path d="M7.14465 32.2207C7.09758 32.1913 7.0505 32.1677 7.00342 32.1383C7.0505 32.1677 7.09758 32.1972 7.14465 32.2207Z" fill="#FBD0B4"/>
</g>
<path d="M7.38001 32.3506C7.33293 32.327 7.28585 32.3035 7.23877 32.2741C7.28585 32.2976 7.33293 32.327 7.38001 32.3506Z" fill="#FBD0B4"/>
<g style="mix-blend-mode:multiply">
<path d="M7.38001 32.3506C7.33293 32.327 7.28585 32.3035 7.23877 32.2741C7.28585 32.2976 7.33293 32.327 7.38001 32.3506Z" fill="#FBD0B4"/>
</g>
<path d="M6.7208 31.9385C6.67372 31.9032 6.62664 31.8679 6.58545 31.8267C6.62664 31.862 6.67372 31.9032 6.7208 31.9385Z" fill="#FBD0B4"/>
<g style="mix-blend-mode:multiply">
<path d="M6.7208 31.9385C6.67372 31.9032 6.62664 31.8679 6.58545 31.8267C6.62664 31.862 6.67372 31.9032 6.7208 31.9385Z" fill="#FBD0B4"/>
</g>
<path d="M6.921 32.085C6.87392 32.0555 6.82684 32.0202 6.78564 31.9908C6.82684 32.0261 6.87392 32.0555 6.921 32.085Z" fill="#FBD0B4"/>
<g style="mix-blend-mode:multiply">
<path d="M6.921 32.085C6.87392 32.0555 6.82684 32.0202 6.78564 31.9908C6.82684 32.0261 6.87392 32.0555 6.921 32.085Z" fill="#FBD0B4"/>
</g>
<g style="mix-blend-mode:multiply">
<path d="M7.73925 32.5146C7.70394 32.497 7.66275 32.4793 7.62744 32.4676C7.66275 32.4852 7.70394 32.5029 7.73925 32.5146Z" fill="#F9A678"/>
</g>
<g style="mix-blend-mode:screen">
<path d="M7.73925 32.5146C7.70394 32.497 7.66275 32.4793 7.62744 32.4676C7.66275 32.4852 7.70394 32.5029 7.73925 32.5146Z" fill="#FBD0B4"/>
</g>
<g style="mix-blend-mode:multiply">
<path d="M7.73925 32.5146C7.70394 32.497 7.66275 32.4793 7.62744 32.4676C7.66275 32.4852 7.70394 32.5029 7.73925 32.5146Z" fill="#FBD0B4"/>
</g>
<g style="mix-blend-mode:multiply">
<path d="M7.00377 32.1377C7.00377 32.1377 6.95081 32.1024 6.92139 32.0847C6.95081 32.1024 6.97435 32.12 7.00377 32.1377Z" fill="#F9A678"/>
</g>
<g style="mix-blend-mode:screen">
<path d="M7.00377 32.1377C7.00377 32.1377 6.95081 32.1024 6.92139 32.0847C6.95081 32.1024 6.97435 32.12 7.00377 32.1377Z" fill="#FBD0B4"/>
</g>
<g style="mix-blend-mode:multiply">
<path d="M7.00377 32.1377C7.00377 32.1377 6.95081 32.1024 6.92139 32.0847C6.95081 32.1024 6.97435 32.12 7.00377 32.1377Z" fill="#FBD0B4"/>
</g>
<g style="mix-blend-mode:multiply">
<path d="M6.17976 31.167C6.17976 31.167 6.16799 31.1081 6.16211 31.0787C6.16211 31.1081 6.17388 31.1376 6.17976 31.167Z" fill="#F9A678"/>
</g>
<g style="mix-blend-mode:screen">
<path d="M6.17976 31.167C6.17976 31.167 6.16799 31.1081 6.16211 31.0787C6.16211 31.1081 6.17388 31.1376 6.17976 31.167Z" fill="#FBD0B4"/>
</g>
<g style="mix-blend-mode:multiply">
<path d="M6.17976 31.167C6.17976 31.167 6.16799 31.1081 6.16211 31.0787C6.16211 31.1081 6.17388 31.1376 6.17976 31.167Z" fill="#FBD0B4"/>
</g>
<g style="mix-blend-mode:multiply">
<path d="M6.58636 31.8262C6.58636 31.8262 6.58636 31.8199 6.58008 31.8136C6.58008 31.8136 6.58008 31.8199 6.58636 31.8262Z" fill="#F9A678"/>
</g>
<g style="mix-blend-mode:screen">
<path d="M6.58636 31.8262C6.58636 31.8262 6.58636 31.8199 6.58008 31.8136C6.58008 31.8136 6.58008 31.8199 6.58636 31.8262Z" fill="#FBD0B4"/>
</g>
<g style="mix-blend-mode:multiply">
<path d="M6.58636 31.8262C6.58636 31.8262 6.58636 31.8199 6.58008 31.8136C6.58008 31.8136 6.58008 31.8199 6.58636 31.8262Z" fill="#FBD0B4"/>
</g>
<g style="mix-blend-mode:multiply">
<path d="M6.23841 31.3613C6.23841 31.3613 6.21487 31.3142 6.20898 31.2907C6.21487 31.3142 6.23252 31.3378 6.23841 31.3613Z" fill="#F9A678"/>
</g>
<g style="mix-blend-mode:screen">
<path d="M6.23841 31.3613C6.23841 31.3613 6.21487 31.3142 6.20898 31.2907C6.21487 31.3142 6.23252 31.3378 6.23841 31.3613Z" fill="#FBD0B4"/>
</g>
<g style="mix-blend-mode:multiply">
<path d="M6.23841 31.3613C6.23841 31.3613 6.21487 31.3142 6.20898 31.2907C6.21487 31.3142 6.23252 31.3378 6.23841 31.3613Z" fill="#FBD0B4"/>
</g>
<g style="mix-blend-mode:multiply">
<path d="M6.78593 31.9854C6.78593 31.9854 6.74473 31.95 6.72119 31.9324C6.74473 31.95 6.76239 31.9677 6.78593 31.9854Z" fill="#F9A678"/>
</g>
<g style="mix-blend-mode:screen">
<path d="M6.78593 31.9854C6.78593 31.9854 6.74473 31.95 6.72119 31.9324C6.74473 31.95 6.76239 31.9677 6.78593 31.9854Z" fill="#FBD0B4"/>
</g>
<g style="mix-blend-mode:multiply">
<path d="M6.78593 31.9854C6.78593 31.9854 6.74473 31.95 6.72119 31.9324C6.74473 31.95 6.76239 31.9677 6.78593 31.9854Z" fill="#FBD0B4"/>
</g>
<g style="mix-blend-mode:multiply">
<path d="M6.31042 31.5029C6.31042 31.5029 6.30413 31.4904 6.29785 31.4904C6.29785 31.4904 6.30413 31.5029 6.31042 31.5029Z" fill="#F9A678"/>
</g>
<g style="mix-blend-mode:screen">
<path d="M6.31042 31.5029C6.31042 31.5029 6.30413 31.4904 6.29785 31.4904C6.29785 31.4904 6.30413 31.5029 6.31042 31.5029Z" fill="#FBD0B4"/>
</g>
<g style="mix-blend-mode:multiply">
<path d="M6.31042 31.5029C6.31042 31.5029 6.30413 31.4904 6.29785 31.4904C6.29785 31.4904 6.30413 31.5029 6.31042 31.5029Z" fill="#FBD0B4"/>
</g>
<path d="M7.76276 32.4683C7.72157 32.3801 7.69215 32.2918 7.66861 32.2094C7.06247 31.8681 6.52106 31.4503 6.16797 30.903C6.16797 30.9206 6.16797 30.9442 6.16797 30.9618C6.16797 31.003 6.16797 31.0442 6.16797 31.0854C6.16797 31.1148 6.17974 31.1443 6.18562 31.1737C6.19151 31.2149 6.20328 31.2561 6.21505 31.2973C6.22093 31.3208 6.23859 31.3443 6.24447 31.3679C6.26213 31.4091 6.27978 31.4561 6.30332 31.4973C6.30332 31.4973 6.30921 31.5091 6.31509 31.5091C6.38571 31.6209 6.47398 31.7269 6.58579 31.8269C6.58579 31.8269 6.58579 31.8328 6.59168 31.8387C6.63287 31.874 6.67995 31.9152 6.72703 31.9505C6.75057 31.9681 6.76822 31.9858 6.79176 32.0034C6.83296 32.0387 6.88004 32.0682 6.92711 32.0976C6.95654 32.1153 6.98008 32.1329 7.0095 32.1506C7.05658 32.18 7.10366 32.2094 7.15074 32.2329C7.18016 32.2506 7.21547 32.2683 7.2449 32.2859C7.29198 32.3095 7.33905 32.3389 7.38613 32.3624C7.42144 32.3801 7.45675 32.3977 7.49206 32.4154C7.53914 32.4389 7.58622 32.4625 7.6333 32.4801C7.66861 32.4978 7.7098 32.5154 7.74511 32.5272C7.76865 32.539 7.79807 32.5507 7.82161 32.5625C7.80396 32.5331 7.78042 32.5095 7.76865 32.4801L7.76276 32.4683Z" fill="#FBD0B4"/>
<g style="mix-blend-mode:screen">
<path d="M7.76276 32.4683C7.72157 32.3801 7.69215 32.2918 7.66861 32.2094C7.06247 31.8681 6.52106 31.4503 6.16797 30.903C6.16797 30.9206 6.16797 30.9442 6.16797 30.9618C6.16797 31.003 6.16797 31.0442 6.16797 31.0854C6.16797 31.1148 6.17974 31.1443 6.18562 31.1737C6.19151 31.2149 6.20328 31.2561 6.21505 31.2973C6.22093 31.3208 6.23859 31.3443 6.24447 31.3679C6.26213 31.4091 6.27978 31.4561 6.30332 31.4973C6.30332 31.4973 6.30921 31.5091 6.31509 31.5091C6.38571 31.6209 6.47398 31.7269 6.58579 31.8269C6.58579 31.8269 6.58579 31.8328 6.59168 31.8387C6.63287 31.874 6.67995 31.9152 6.72703 31.9505C6.75057 31.9681 6.76822 31.9858 6.79176 32.0034C6.83296 32.0387 6.88004 32.0682 6.92711 32.0976C6.95654 32.1153 6.98008 32.1329 7.0095 32.1506C7.05658 32.18 7.10366 32.2094 7.15074 32.2329C7.18016 32.2506 7.21547 32.2683 7.2449 32.2859C7.29198 32.3095 7.33905 32.3389 7.38613 32.3624C7.42144 32.3801 7.45675 32.3977 7.49206 32.4154C7.53914 32.4389 7.58622 32.4625 7.6333 32.4801C7.66861 32.4978 7.7098 32.5154 7.74511 32.5272C7.76865 32.539 7.79807 32.5507 7.82161 32.5625C7.80396 32.5331 7.78042 32.5095 7.76865 32.4801L7.76276 32.4683Z" fill="#FBD0B4"/>
</g>
<g style="mix-blend-mode:multiply">
<path d="M7.76276 32.4683C7.72157 32.3801 7.69215 32.2918 7.66861 32.2094C7.06247 31.8681 6.52106 31.4503 6.16797 30.903C6.16797 30.9206 6.16797 30.9442 6.16797 30.9618C6.16797 31.003 6.16797 31.0442 6.16797 31.0854C6.16797 31.1148 6.17974 31.1443 6.18562 31.1737C6.19151 31.2149 6.20328 31.2561 6.21505 31.2973C6.22093 31.3208 6.23859 31.3443 6.24447 31.3679C6.26213 31.4091 6.27978 31.4561 6.30332 31.4973C6.30332 31.4973 6.30921 31.5091 6.31509 31.5091C6.38571 31.6209 6.47398 31.7269 6.58579 31.8269C6.58579 31.8269 6.58579 31.8328 6.59168 31.8387C6.63287 31.874 6.67995 31.9152 6.72703 31.9505C6.75057 31.9681 6.76822 31.9858 6.79176 32.0034C6.83296 32.0387 6.88004 32.0682 6.92711 32.0976C6.95654 32.1153 6.98008 32.1329 7.0095 32.1506C7.05658 32.18 7.10366 32.2094 7.15074 32.2329C7.18016 32.2506 7.21547 32.2683 7.2449 32.2859C7.29198 32.3095 7.33905 32.3389 7.38613 32.3624C7.42144 32.3801 7.45675 32.3977 7.49206 32.4154C7.53914 32.4389 7.58622 32.4625 7.6333 32.4801C7.66861 32.4978 7.7098 32.5154 7.74511 32.5272C7.76865 32.539 7.79807 32.5507 7.82161 32.5625C7.80396 32.5331 7.78042 32.5095 7.76865 32.4801L7.76276 32.4683Z" fill="#FBD0B4"/>
</g>
<g style="mix-blend-mode:multiply">
<path d="M85.0547 7.66285C85.0547 7.66285 85.0547 7.66874 85.0606 7.67463C85.0723 7.6864 85.09 7.69817 85.1018 7.71582C85.0841 7.69817 85.0665 7.68639 85.0547 7.66874V7.66285Z" fill="#FBD0B4"/>
</g>
<g style="mix-blend-mode:multiply">
<path d="M85.625 8.21107C85.6897 8.27581 85.7545 8.33466 85.8192 8.40527C85.7545 8.34054 85.6897 8.27581 85.625 8.21107Z" fill="#FBD0B4"/>
</g>
<g style="mix-blend-mode:multiply">
<path d="M87.4493 10.6768C87.3316 10.4237 87.1962 10.1765 87.0491 9.94115C86.9961 9.85876 86.9373 9.77637 86.8843 9.69399C88.5203 9.78814 90.1798 9.64102 91.804 9.52333C95.182 9.27616 98.5775 9.30559 101.955 9.2232C108.9 9.04665 115.82 8.5229 122.752 8.01092C123.965 7.92265 125.177 7.82849 126.389 7.73433V7.06346C126.101 7.087 125.801 7.11054 125.501 7.13407C118.58 7.65783 111.654 8.24043 104.715 8.47582C101.243 8.59352 97.7654 8.65237 94.2933 8.74653C91.6981 8.81715 89.0735 9.22909 86.4724 9.13493C86.2664 8.88188 86.0487 8.6406 85.825 8.41109C85.7603 8.34636 85.6956 8.28162 85.6308 8.21689C85.4602 8.04623 85.2895 7.87557 85.113 7.71079C85.1012 7.69902 85.0835 7.68725 85.0718 7.6696C85.3954 8.16981 85.7838 8.6406 86.1311 9.07019C86.5665 9.60572 87.0197 10.1354 87.4551 10.6768H87.4493Z" fill="#F9A678"/>
</g>
<g style="mix-blend-mode:multiply">
<path d="M87.4493 10.6768C87.3316 10.4237 87.1962 10.1765 87.0491 9.94115C86.9961 9.85876 86.9373 9.77637 86.8843 9.69399C88.5203 9.78814 90.1798 9.64102 91.804 9.52333C95.182 9.27616 98.5775 9.30559 101.955 9.2232C108.9 9.04665 115.82 8.5229 122.752 8.01092C123.965 7.92265 125.177 7.82849 126.389 7.73433V7.06346C126.101 7.087 125.801 7.11054 125.501 7.13407C118.58 7.65783 111.654 8.24043 104.715 8.47582C101.243 8.59352 97.7654 8.65237 94.2933 8.74653C91.6981 8.81715 89.0735 9.22909 86.4724 9.13493C86.2664 8.88188 86.0487 8.6406 85.825 8.41109C85.7603 8.34636 85.6956 8.28162 85.6308 8.21689C85.4602 8.04623 85.2895 7.87557 85.113 7.71079C85.1012 7.69902 85.0835 7.68725 85.0718 7.6696C85.3954 8.16981 85.7838 8.6406 86.1311 9.07019C86.5665 9.60572 87.0197 10.1354 87.4551 10.6768H87.4493Z" fill="#FBD0B4"/>
</g>
<g style="mix-blend-mode:multiply">
<path d="M87.4493 10.6768C87.3316 10.4237 87.1962 10.1765 87.0491 9.94115C86.9961 9.85876 86.9373 9.77637 86.8843 9.69399C88.5203 9.78814 90.1798 9.64102 91.804 9.52333C95.182 9.27616 98.5775 9.30559 101.955 9.2232C108.9 9.04665 115.82 8.5229 122.752 8.01092C123.965 7.92265 125.177 7.82849 126.389 7.73433V7.06346C126.101 7.087 125.801 7.11054 125.501 7.13407C118.58 7.65783 111.654 8.24043 104.715 8.47582C101.243 8.59352 97.7654 8.65237 94.2933 8.74653C91.6981 8.81715 89.0735 9.22909 86.4724 9.13493C86.2664 8.88188 86.0487 8.6406 85.825 8.41109C85.7603 8.34636 85.6956 8.28162 85.6308 8.21689C85.4602 8.04623 85.2895 7.87557 85.113 7.71079C85.1012 7.69902 85.0835 7.68725 85.0718 7.6696C85.3954 8.16981 85.7838 8.6406 86.1311 9.07019C86.5665 9.60572 87.0197 10.1354 87.4551 10.6768H87.4493Z" fill="#FBD0B4"/>
</g>
<path d="M89.839 10.7945C92.8755 9.7529 96.2358 9.7529 99.4077 9.72936C100.991 9.71759 102.58 9.74113 104.163 9.66462C106.234 9.56458 108.3 9.3645 110.371 9.21738C115.709 8.84074 121.046 8.51119 126.384 8.1993V7.72851C125.177 7.82266 123.965 7.91682 122.753 8.0051C115.826 8.51708 108.9 9.04083 101.956 9.21738C98.5721 9.29976 95.1765 9.27034 91.8045 9.5175C90.1803 9.6352 88.5208 9.78232 86.8848 9.68816C86.9377 9.77055 86.9966 9.84705 87.0495 9.93533C87.1967 10.1766 87.332 10.4238 87.4497 10.6709C87.6851 10.9652 87.9146 11.2594 88.1265 11.5654C88.6738 11.2535 89.2446 10.9946 89.839 10.7886V10.7945Z" fill="#FBD0B4"/>
<g style="mix-blend-mode:multiply">
<path d="M89.839 10.7945C92.8755 9.7529 96.2358 9.7529 99.4077 9.72936C100.991 9.71759 102.58 9.74113 104.163 9.66462C106.234 9.56458 108.3 9.3645 110.371 9.21738C115.709 8.84074 121.046 8.51119 126.384 8.1993V7.72851C125.177 7.82266 123.965 7.91682 122.753 8.0051C115.826 8.51708 108.9 9.04083 101.956 9.21738C98.5721 9.29976 95.1765 9.27034 91.8045 9.5175C90.1803 9.6352 88.5208 9.78232 86.8848 9.68816C86.9377 9.77055 86.9966 9.84705 87.0495 9.93533C87.1967 10.1766 87.332 10.4238 87.4497 10.6709C87.6851 10.9652 87.9146 11.2594 88.1265 11.5654C88.6738 11.2535 89.2446 10.9946 89.839 10.7886V10.7945Z" fill="#FBD0B4"/>
</g>
<g style="mix-blend-mode:multiply">
<path d="M89.839 10.7945C92.8755 9.7529 96.2358 9.7529 99.4077 9.72936C100.991 9.71759 102.58 9.74113 104.163 9.66462C106.234 9.56458 108.3 9.3645 110.371 9.21738C115.709 8.84074 121.046 8.51119 126.384 8.1993V7.72851C125.177 7.82266 123.965 7.91682 122.753 8.0051C115.826 8.51708 108.9 9.04083 101.956 9.21738C98.5721 9.29976 95.1765 9.27034 91.8045 9.5175C90.1803 9.6352 88.5208 9.78232 86.8848 9.68816C86.9377 9.77055 86.9966 9.84705 87.0495 9.93533C87.1967 10.1766 87.332 10.4238 87.4497 10.6709C87.6851 10.9652 87.9146 11.2594 88.1265 11.5654C88.6738 11.2535 89.2446 10.9946 89.839 10.7886V10.7945Z" fill="#FBD0B4"/>
</g>
</svg>
