<svg width="284" height="226" viewBox="0 0 284 226" fill="none" xmlns="http://www.w3.org/2000/svg">
<g filter="url(#filter0_d_1393_13657)">
<path d="M218.023 164.825H62.0234V217.765H218.023V164.825Z" fill="#D9E7F3"/>
<path d="M141.594 190.426H127.934V204.086H141.594V190.426Z" fill="#8CCCDC"/>
<path d="M166.554 190.426H152.894V204.086H166.554V190.426Z" fill="#8CCCDC"/>
<path d="M195.393 190.426H181.733V204.086H195.393V190.426Z" fill="#8CCCDC"/>
<path d="M107.244 197.256C107.244 204.336 101.504 210.076 94.4235 210.076C87.3435 210.076 81.6035 204.336 81.6035 197.256C81.6035 190.176 87.3435 184.436 94.4235 184.436C101.504 184.436 107.244 190.176 107.244 197.256Z" fill="#CDDAE2"/>
<path d="M79.0635 198.705C79.6235 198.565 110.183 189.595 110.183 189.595L81.6135 204.735L79.0735 198.705H79.0635Z" fill="#8CCCDC"/>
<path d="M62.0234 173.825H218.023V183.215L62.0234 178.525V173.825Z" fill="#CDDAE2"/>
<path d="M37.0922 0.205078H242.956C262.231 0.205078 277.881 15.8551 277.881 35.1303V139.29C277.881 158.565 262.231 174.215 242.956 174.215H37.0922C17.817 174.215 2.16699 158.565 2.16699 139.29V35.1303C2.16699 15.8551 17.817 0.205078 37.0922 0.205078Z" fill="#D9E7F3"/>
<path d="M51.4673 22.7402H228.569C243.937 22.7402 256.411 35.2143 256.411 50.5822V125.907C256.411 141.275 243.937 153.749 228.569 153.749H51.4777C36.1098 153.749 23.6357 141.275 23.6357 125.907V50.5927C23.6357 35.2247 36.1098 22.7507 51.4777 22.7507L51.4673 22.7402Z" fill="#3A3E48"/>
<path d="M39.2135 144.638V69.3135C39.2135 53.9351 51.6771 41.4715 67.0555 41.4715H244.158C248.41 41.4715 252.432 42.4222 256.036 44.1251C253.121 31.8705 242.1 22.75 228.957 22.75H51.8547C36.4763 22.75 24.0127 35.2136 24.0127 50.592V125.917C24.0127 137.043 30.5422 146.655 39.9866 151.105C39.4956 149.026 39.2239 146.864 39.2239 144.628L39.2135 144.638Z" fill="#363A44"/>
<path d="M12.248 45.1334C12.248 27.4474 23.4235 17.5453 39.7681 13.7734" stroke="white" stroke-width="4" stroke-linecap="round"/>
<path d="M264.272 133.472C263.912 151.154 252.538 160.827 236.12 164.266" stroke="white" stroke-width="4" stroke-linecap="round"/>
<path d="M52.1797 12.509C54.8128 12.114 57.3953 11.8889 60.0552 11.869C63.4555 11.8436 66.7021 11.2404 70.0997 11.709" stroke="white" stroke-width="4" stroke-linecap="round"/>
</g>
<path d="M210.362 73.7295C207.437 66.3358 209.192 58.942 211.918 50.0254H149.909C148.596 53.9982 147.482 58.0702 146.224 61.9768C145.429 64.4377 144.601 66.9427 143.134 69.0174C140.342 72.9681 135.707 74.7117 131.392 76.4663C106.551 86.5859 84.2485 103.547 58.7566 111.559C56.1412 112.387 53.4375 113.115 50.7228 112.872C48.4495 112.663 46.0769 111.791 43.9581 112.729C40.1067 114.428 40.2391 120.63 42.4462 124.448C45.4037 129.58 50.8883 132.88 56.4833 132.913C60.0698 132.935 63.546 131.699 67.0994 131.191C74.2173 130.165 81.6653 130.132 88.8383 130.661C107.665 132.074 129.294 121.131 148.154 121.628C167.676 122.135 190.487 136.003 202.46 130.661C217.204 124.084 220.779 99.3428 217.148 88.2522C215.471 83.1318 212.337 78.7286 210.362 73.7406V73.7295Z" fill="#647A80"/>
<path d="M94.743 122.297C96.9611 121.933 99.091 121.039 101.331 120.906C101.739 120.884 102.181 120.895 102.501 121.149C102.81 121.392 102.953 121.8 103.207 122.12C103.737 122.794 104.675 122.926 105.458 122.694C106.242 122.462 106.915 121.944 107.588 121.447C115.997 115.245 126.536 112.531 136.634 113.943C139.613 114.362 142.56 115.124 145.561 115.223C148.563 115.312 151.719 114.649 154.014 112.542C154.952 111.681 155.758 110.423 155.526 109.121C155.427 108.547 155.129 108.039 154.765 107.609C152.734 105.192 149.214 105.589 146.223 105.115C142.747 104.552 139.624 102.599 136.325 101.274C129.637 98.5818 122.221 98.5266 115.236 100.105C108.25 101.683 101.662 104.839 95.35 108.425C93.4077 109.529 91.4213 110.732 90.1412 112.663C88.9715 114.418 88.0886 117.85 88.7287 120.024C89.4791 122.573 92.6904 122.628 94.743 122.297Z" fill="#94B5B8"/>
<path d="M155.658 73.587C153.584 74.2601 150.913 74.1057 149.832 76.1251C149.489 76.7762 149.39 77.5377 149.346 78.2771C149.07 83.254 151.321 88.3193 155.084 91.1996C154.996 88.2972 156.729 85.428 159.223 84.3355C161.717 83.243 164.807 84.0045 166.605 86.1564C167.102 86.7523 167.521 87.4475 168.117 87.9331C169.762 89.2684 172.2 88.518 173.801 87.1165C175.401 85.715 176.537 83.7727 178.126 82.3602C180.146 80.5724 182.872 79.7558 185.454 80.1531C186.403 80.2965 187.429 80.5945 188.279 80.1089C189.802 79.2482 189.515 76.8093 188.864 75.0988C187.12 70.475 184.273 66.2043 180.3 63.6551C175.853 60.7969 170.192 60.4327 165.943 63.7654C162.302 66.6126 160.183 72.1193 155.669 73.5759L155.658 73.587Z" fill="#94B5B8"/>
<path d="M162.015 100.8C161.287 102.201 159.764 103.084 159.378 104.64C159.168 105.468 159.333 106.373 159.62 107.167C161.154 111.416 165.767 113.336 169.972 113.766C174.176 114.197 178.524 113.634 182.53 115.047C184.572 115.775 186.635 117.243 187.099 119.516C187.275 120.355 187.209 121.226 187.386 122.065C187.97 124.879 191.105 126.347 193.72 125.828C196.335 125.31 198.498 123.356 200.429 121.37C204.204 117.485 207.625 113.193 210.626 108.58C212.293 106.02 213.882 102.841 212.866 99.917C212.326 98.372 211.134 97.1691 210.659 95.6021C210.152 93.9137 210.538 91.9935 209.843 90.3934C209.401 89.4002 208.596 88.6608 207.757 88.0318C202.714 84.2135 196.313 83.3307 190.2 82.5582C186.701 82.1168 182.806 81.7857 180.025 84.1252C178.226 85.6371 177.222 88.0318 175.467 89.6098C171.119 93.5605 167.919 88.8594 163.56 89.7533C158.208 90.8458 163.935 97.0588 162.004 100.8H162.015Z" fill="#A1C5C6"/>
<path d="M137.109 83.0553C137.02 84.0706 137.318 85.0748 137.638 86.0238C140.022 93.1417 144.546 100.16 151.333 102.069C153.75 102.743 156.52 102.643 158.462 100.955C160.404 99.2664 160.945 95.6688 159.069 93.8921C157.425 92.3251 154.809 92.7113 152.955 91.4643C151.83 90.7029 151.09 89.4227 150.472 88.1426C148.994 85.0968 148.376 77.8797 145.01 76.6878C141.931 75.5953 137.395 79.844 137.109 83.0553Z" fill="#A1C5C6"/>
<path d="M130.586 83.0434C127.982 83.3745 125.333 84.3125 123.49 86.332C122.519 87.4024 121.813 88.7157 120.963 89.8965C119.065 92.5119 116.461 94.3989 113.801 96.0432C107.18 100.126 99.9186 102.985 92.4145 104.452C89.9095 104.938 87.3382 105.291 85.0208 106.405C83.862 106.968 82.7144 107.785 82.1736 109.032C81.3901 110.853 82.0964 112.983 82.8357 114.837C83.6744 116.955 84.5904 119.118 86.0912 120.752C87.6031 122.385 89.8653 123.4 91.9069 122.727C94.2574 121.954 95.5707 119.339 97.1377 117.297C100.658 112.707 106.231 110.478 111.716 109.871C117.2 109.264 122.718 110.069 128.214 110.511C133.709 110.952 139.381 111.007 144.557 108.988C145.959 108.436 147.47 107.564 147.868 105.997C148.232 104.563 147.492 103.04 146.477 102.046C145.451 101.053 144.171 100.446 143.001 99.6739C140.397 97.9413 138.311 95.3038 137.152 92.236C136.28 89.9296 136.545 86.7955 135.596 84.6988C134.78 82.8779 132.208 82.8448 130.575 83.0545L130.586 83.0434Z" fill="#A1C5C6"/>
<path d="M78.0577 110.346C75.7403 110.181 73.3787 110.688 71.293 111.803C69.9246 112.542 68.6776 113.535 67.3202 114.297C64.9587 115.632 62.255 116.272 59.5844 116.118C59.3968 116.118 59.2092 116.096 59.0326 116.162C58.3153 116.427 58.4808 117.574 58.8009 118.314C59.452 119.892 60.1141 121.481 60.7652 123.059C60.9528 123.5 61.1404 123.964 61.4604 124.306C62.0563 124.935 62.9833 125.056 63.7889 124.88C64.5945 124.703 65.3449 124.284 66.1174 123.953C68.3355 122.993 70.8406 122.794 73.169 123.39C74.9347 123.842 76.6231 124.736 78.4329 124.758C80.2428 124.78 82.2843 123.467 82.2733 121.503C82.2622 119.638 80.4855 118.358 79.9889 116.57C79.7462 115.709 79.8234 114.782 79.9007 113.877C80.0662 112.012 80.2538 110.479 78.0467 110.335L78.0577 110.346Z" fill="#A1C5C6"/>
<path d="M51.7824 118.589C50.4802 118.666 49.167 118.291 48.0745 117.529C46.6068 118.567 46.364 120.763 46.4192 122.661C46.4412 123.312 46.4743 123.974 46.7061 124.57C46.9378 125.166 47.4013 125.696 47.9862 125.817C48.4276 125.905 48.8911 125.762 49.3436 125.817C50.0498 125.905 50.6126 126.457 51.1644 126.943C52.7204 128.278 54.773 129.139 56.7152 128.675C58.6575 128.201 60.2907 126.071 59.8824 123.974C59.6176 122.595 58.1167 119.659 57.0684 118.732C55.5896 117.43 53.4708 118.511 51.7824 118.611V118.589Z" fill="#A1C5C6"/>
<path d="M158.815 49.7832C157.425 54.1532 157.326 60.7193 159.643 63.1913C160.084 63.6548 160.614 64.03 161.221 64.1624C162.799 64.5045 164.212 63.1913 165.569 62.2533C170.811 58.6005 177.896 60.1014 183.292 63.4561C183.711 63.7099 184.164 63.9858 184.627 63.9086C185.367 63.7762 185.731 62.8713 185.918 62.0767C186.89 58.0377 186.856 53.6456 185.433 49.7942H158.804L158.815 49.7832Z" fill="#A1C5C6"/>
<path opacity="0.32" d="M167.279 102.003C168.151 102.367 169.111 102.412 170.049 102.367C174.11 102.136 178.039 99.8624 180.467 96.3201C182.254 93.7157 183.248 90.4933 185.289 88.1097C186.183 87.0613 187.331 85.5936 186.558 84.4569C185.808 83.3644 184.164 84.0376 183.292 85.0198C181.041 87.5358 180.058 91.6079 177.024 92.8549C174.916 93.7267 171.66 93.6053 169.431 93.3846C168.228 93.2632 165.944 92.0052 164.807 92.5239C161.088 94.2123 164.763 100.966 167.29 102.014L167.279 102.003Z" fill="white"/>
<path opacity="0.32" d="M104.498 102.102C97.0053 104.331 89.137 105.821 82.5488 110.279C95.372 106.582 108.272 103.25 121.261 100.281C122.067 100.094 122.917 99.906 123.722 100.105C124.539 100.292 125.234 100.844 125.918 101.352C129.35 103.868 133.301 105.545 137.406 106.207C135.552 104.695 133.698 103.195 131.833 101.683C129.758 99.9943 127.562 98.1182 126.867 95.4146C125.918 91.7287 128.258 89.5768 130.399 87.4249C126.536 83.9708 123.016 91.5301 120.809 93.6489C116.251 98.03 110.303 100.381 104.509 102.102H104.498Z" fill="white"/>
<path opacity="0.32" d="M60.4229 119.604C60.0146 119.736 59.5069 119.99 59.529 120.453C63.4687 121.325 67.3532 118.975 71.348 118.445C72.7716 118.257 74.3607 118.357 75.398 119.416C75.7511 119.769 76.0712 120.244 76.5457 120.299C77.2851 120.387 77.7375 119.427 77.8368 118.621C78.0134 117.154 77.7154 114.075 76.3802 113.17C74.6917 112.011 73.4889 113.987 71.8998 114.991C68.3684 117.231 64.3184 118.368 60.4229 119.604Z" fill="white"/>
<path opacity="0.32" d="M204.027 110.235C207.404 105.137 208.828 98.5708 207.912 92.3799C210.152 96.7168 209.446 102.19 207.658 106.759C204.678 114.351 198.3 120.818 190.707 121.558C189.747 121.646 188.467 121.37 188.379 120.333C188.401 120.609 195.938 117.75 196.733 117.265C199.591 115.532 202.118 113.127 204.027 110.235Z" fill="white"/>
<defs>
<filter id="filter0_d_1393_13657" x="0.166992" y="0.205078" width="283.714" height="225.561" filterUnits="userSpaceOnUse" color-interpolation-filters="sRGB">
<feFlood flood-opacity="0" result="BackgroundImageFix"/>
<feColorMatrix in="SourceAlpha" type="matrix" values="0 0 0 0 0 0 0 0 0 0 0 0 0 0 0 0 0 0 127 0" result="hardAlpha"/>
<feOffset dx="2" dy="4"/>
<feGaussianBlur stdDeviation="2"/>
<feComposite in2="hardAlpha" operator="out"/>
<feColorMatrix type="matrix" values="0 0 0 0 0 0 0 0 0 0 0 0 0 0 0 0 0 0 0.3 0"/>
<feBlend mode="normal" in2="BackgroundImageFix" result="effect1_dropShadow_1393_13657"/>
<feBlend mode="normal" in="SourceGraphic" in2="effect1_dropShadow_1393_13657" result="shape"/>
</filter>
</defs>
</svg>
