<svg width="103" height="56" viewBox="0 0 103 56" fill="none" xmlns="http://www.w3.org/2000/svg">
<path d="M0.855443 48.5377C0.897442 48.3907 0.949942 48.2437 1.00244 48.0967C0.949942 48.2332 0.897442 48.3802 0.855443 48.5272V48.5377Z" fill="#FFBFA6"/>
<path d="M95.5758 54.9324C95.7228 54.8799 95.8698 54.8169 96.0273 54.7539C95.8698 54.8274 95.7228 54.8904 95.5758 54.9429C93.6229 55.6149 83.3854 56.2029 78.4084 54.6699C83.3854 56.2029 93.6334 55.6149 95.5758 54.9429V54.9324Z" fill="#FFBFA6"/>
<path d="M74.3027 52.7583C69.6828 50.8158 62.2803 49.0098 56.9988 49.0098C62.2803 49.0098 69.6828 50.8158 74.3027 52.7688V52.7583Z" fill="#FFBFA6"/>
<path d="M85.9896 5.97095C86.2206 8.98444 87.3966 15.3579 85.9686 18.0984C84.5196 20.8494 81.0861 23.2434 76.2876 20.7654C76.2876 20.7654 77.7786 25.8369 84.2466 23.9154C84.5826 23.8104 84.8871 23.6949 85.1706 23.5689C85.6536 25.2804 86.3046 28.5879 84.8136 30.5934C82.7136 33.3969 72.1086 31.9164 65.4412 32.6934C58.7632 33.4809 52.6312 33.4809 47.8012 37.4288C42.9712 41.3768 36.0412 47.4458 30.8648 47.3093C25.6988 47.1728 18.1598 47.0153 14.9993 48.6428C11.8283 50.2598 3.35486 50.7218 1.04486 47.9813C2.25236 45.1673 6.04284 45.2618 6.75684 45.2828C6.75684 45.2828 6.76734 45.2828 6.78834 45.2828C6.78834 45.2828 6.78834 45.2828 6.75684 45.2828C7.79633 45.1883 11.1458 45.5138 11.1458 45.5138C13.0358 44.4533 22.4438 43.0358 22.4438 43.0358C23.2313 42.2693 25.3943 41.3033 27.4838 40.4738C27.8303 40.3793 28.1558 40.2533 28.4498 40.0958C30.5078 39.3188 32.2718 38.7518 32.2718 38.7518C32.2718 38.7518 37.4902 35.4863 39.9157 32.6724C42.3412 29.8584 51.4657 25.2909 53.7547 24.0204C56.0437 22.7604 60.8527 20.9649 63.2047 13.5204C64.9057 8.14444 65.0842 5.79245 65.3361 0.605469L85.7166 0.731468C85.8111 2.87346 85.8951 4.86845 85.9686 5.96045L85.9896 5.97095ZM2.88235 47.1413C2.48336 49.6613 5.63335 49.3043 5.63335 49.3043H9.75983C9.80183 47.2463 10.9673 45.7028 10.9673 45.7028C10.9673 45.7028 3.28136 44.6213 2.88235 47.1413ZM62.2282 21.9099C62.2282 21.9099 48.0427 27.3069 43.6957 31.8744C39.3592 36.4523 31.9673 40.2533 27.8618 41.9858C23.7563 43.7183 15.3143 44.1278 15.3143 45.2093C15.3143 46.2908 24.2288 46.5323 26.8118 44.6528C29.3948 42.7733 33.5003 43.0883 40.4197 38.5313C47.3392 33.9848 72.2031 20.0199 62.2282 21.8994V21.9099Z" fill="#FFBFA6"/>
<path d="M99.4814 25.7317C98.2844 21.5422 97.5599 14.8327 97.1399 9.61426C97.5599 14.8327 98.2844 21.5527 99.4814 25.7422C101.665 33.3757 103.545 39.7912 102.442 45.5556C102.201 46.8261 101.833 47.9496 101.382 48.9471C101.823 47.9496 102.201 46.8366 102.442 45.5556C103.534 39.7807 101.655 33.3757 99.4709 25.7212L99.4814 25.7317Z" fill="#FFBFA6"/>
<path d="M0.761222 48.9263C0.729722 49.0838 0.69822 49.2413 0.67722 49.4198C0.61422 50.0393 0.666723 50.6063 0.803223 51.1103C0.666723 50.5958 0.61422 50.0393 0.67722 49.4198C0.69822 49.2413 0.729722 49.0838 0.761222 48.9263C0.761222 48.9263 0.761222 48.9158 0.761222 48.9053C0.761222 48.9053 0.761222 48.9158 0.761222 48.9263Z" fill="#FFBFA6"/>
<path d="M1.03369 47.9814C1.01269 48.0234 1.00219 48.0549 0.991691 48.0969C1.00219 48.0549 1.01269 48.0129 1.03369 47.9814Z" fill="#FAA380"/>
<path d="M5.90593 50.8263C10.1794 50.9943 13.5079 50.2488 16.4164 49.3143C19.3249 48.4008 29.9718 49.8813 31.8933 49.5663C33.8148 49.2513 41.9208 46.4268 46.9083 42.3528C51.8748 38.2788 59.2667 35.8113 66.9737 37.1553C74.6702 38.4993 84.9287 41.0823 88.7716 36.6513C92.6356 32.2308 91.8481 24.3349 91.4071 21.1954C91.1026 19.0009 89.9476 8.92093 89.5906 0.751953L94.2526 0.783453C95.4706 22.0144 101.928 40.5573 98.3896 46.0068C93.2026 53.9973 71.1947 42.9093 59.7602 42.9093C48.3258 42.9093 36.7443 51.6873 30.6858 51.1518C24.6379 50.6163 19.3144 48.7683 12.0589 51.1728C4.80343 53.5878 0.687447 49.3983 0.687447 49.3983C0.708443 49.2198 0.739944 49.0728 0.771446 48.9048C1.64294 49.6818 3.28094 50.7003 5.91643 50.8053L5.90593 50.8263Z" fill="#FAA380"/>
<path d="M1.00243 48.1077C1.01293 48.0657 1.03393 48.0342 1.04443 47.9922C1.04443 47.9922 1.01293 48.0657 1.00243 48.1077Z" fill="#FAA380"/>
<path d="M5.63281 49.3049C5.63281 49.3049 2.48283 49.6514 2.88183 47.1419C3.28083 44.6219 10.9668 45.7034 10.9668 45.7034C10.9668 45.7034 9.8013 47.2574 9.7593 49.3049H5.63281Z" fill="#F6EFDD"/>
<path d="M100.332 50.9003C100.332 50.9003 100.322 50.9108 100.301 50.9318C100.301 50.9213 100.322 50.9108 100.332 50.8898V50.9003Z" fill="#E88364"/>
<path d="M1.04443 51.7921C0.949934 51.5821 0.876433 51.3511 0.813433 51.1201C0.876433 51.3511 0.949934 51.5821 1.04443 51.8026V51.7921Z" fill="#E88364"/>
<path d="M100.311 50.9418C100.007 51.2568 96.7202 54.3963 87.8267 54.5223C73.2108 54.7218 73.7043 46.2168 56.5368 46.7313C43.6849 47.1198 37.0699 54.8898 30.2134 54.5328C23.3569 54.1758 23.3044 52.0758 21.4354 52.2543C19.0835 52.4853 14.768 54.2493 10.127 54.3753C6.92448 54.4593 3.3545 53.4618 1.05501 51.8028C0.960503 51.5928 0.876511 51.3618 0.824013 51.1203C0.687515 50.6058 0.63501 50.0493 0.698013 49.4298C0.698013 49.4298 4.814 53.6088 12.0695 51.2043C19.325 48.7893 24.6484 50.6478 30.6964 51.1833C36.7444 51.7188 48.1578 42.9408 59.7708 42.9408C71.3838 42.9408 93.2237 54.0183 98.4002 46.0383C101.928 40.5678 95.4707 22.0249 94.2527 0.793945H96.6467C96.6467 1.58144 96.6572 1.98044 96.6572 1.98044C96.6572 1.98044 96.7832 5.27743 97.1297 9.60342C97.5497 14.8219 98.2742 21.5314 99.4712 25.7209C101.666 33.3858 103.535 39.7908 102.443 45.5658C102.201 46.8363 101.834 47.9598 101.382 48.9573C101.067 49.6713 100.71 50.3328 100.332 50.9103C100.332 50.9208 100.311 50.9313 100.301 50.9523L100.311 50.9418Z" fill="#E88364"/>
<path d="M78.3979 54.6593C77.789 54.4703 77.2535 54.2498 76.823 53.9978C76.1405 53.5883 75.2795 53.1683 74.2925 52.7588C75.269 53.1683 76.13 53.5883 76.8125 53.9978C77.243 54.2498 77.7785 54.4703 78.3874 54.6593H78.3979Z" fill="#C96C4E"/>
<path d="M44.3042 52.0762C39.0122 53.7982 33.6362 55.5937 30.2867 55.6252C29.4888 55.6252 28.8063 55.6042 28.2288 55.5412C28.8063 55.6042 29.4783 55.6357 30.2867 55.6252C33.6362 55.5937 39.0122 53.7877 44.3042 52.0762Z" fill="#C96C4E"/>
<path d="M25.1628 54.6379C24.0183 54.0184 23.3148 53.3569 20.7634 53.5249C20.5219 53.5459 20.2909 53.5669 20.0704 53.5879C20.2909 53.5669 20.5219 53.5459 20.7739 53.5249C23.3254 53.3569 24.0288 54.0079 25.1733 54.6379H25.1628Z" fill="#C96C4E"/>
<path d="M1.04439 51.7927C1.12839 51.9712 1.21238 52.1392 1.31738 52.2967C1.21238 52.1287 1.11789 51.9607 1.04439 51.7822V51.7927Z" fill="#C96C4E"/>
<path d="M100.311 50.9426L100.342 50.9111C98.9983 52.9586 97.3393 54.1871 96.0268 54.7541C97.3288 54.1766 98.9773 52.9586 100.311 50.9426Z" fill="#C96C4E"/>
<path d="M15.2192 54.9314C14.0957 55.3199 12.8147 55.6244 10.7043 55.6244C8.91926 55.6244 7.09226 55.4354 5.48577 54.9734C7.08176 55.4249 8.91926 55.6139 10.7043 55.6139C12.8147 55.6139 14.0957 55.2989 15.2087 54.9209L15.2192 54.9314Z" fill="#C96C4E"/>
<path d="M1.04462 51.7931C3.34412 53.4626 6.9141 54.4496 10.1166 54.3656C14.7471 54.2501 19.0626 52.4756 21.425 52.2446C23.294 52.0661 23.3465 54.1661 30.203 54.5231C37.07 54.8801 43.6745 47.1102 56.5264 46.7217C73.7044 46.2072 73.2004 54.7121 87.8163 54.5126C96.7098 54.3866 99.9963 51.2576 100.301 50.9321C98.9673 52.9586 97.3188 54.1661 96.0168 54.7436C95.8593 54.8066 95.7123 54.8801 95.5653 54.9221C93.6123 55.5941 83.3748 56.1821 78.3979 54.6491C77.7889 54.4601 77.2534 54.2396 76.8229 53.9876C76.1404 53.5781 75.2794 53.1581 74.3029 52.7486C69.6829 50.7956 62.2804 48.9897 56.9989 48.9897C53.9329 48.9897 49.1555 50.4911 44.3045 52.0661C39.0125 53.7776 33.6365 55.5836 30.287 55.6151C29.489 55.6151 28.817 55.5941 28.229 55.5311C26.7065 55.3736 25.856 55.0061 25.163 54.6281C24.0185 54.0086 23.315 53.3471 20.7636 53.5151C20.5116 53.5361 20.2911 53.5571 20.0601 53.5781C17.8026 53.8196 16.6371 54.4286 15.2091 54.9221C14.0961 55.3106 12.8151 55.6151 10.7046 55.6151C8.91959 55.6151 7.0821 55.4261 5.48611 54.9746C3.65911 54.4601 2.12612 53.5991 1.30712 52.2971C1.20213 52.1396 1.11813 51.9716 1.03413 51.7931H1.04462Z" fill="#C96C4E"/>
<path d="M40.4189 38.5415C33.4995 43.088 29.394 42.7835 26.811 44.663C24.228 46.5425 15.3135 46.301 15.3135 45.2195C15.3135 44.138 23.7555 43.7285 27.861 41.996C31.9665 40.2635 39.3584 36.4625 43.6949 31.8845C48.0314 27.3066 62.2274 21.9201 62.2274 21.9201C72.1918 20.0406 47.3384 33.995 40.4189 38.552V38.5415Z" fill="#FCC3B1"/>
<path d="M88.1101 16.9639C87.5326 19.3159 85.6006 23.4424 78.9961 22.4344C78.9961 22.4344 77.2531 22.2559 76.2871 20.7754C81.0856 23.2534 84.5191 20.8594 85.9681 18.1084C87.3961 15.3679 86.2201 8.99442 85.9891 5.98094C85.9156 4.88894 85.8316 2.89395 85.7371 0.751953H86.3776C86.5036 10.7059 87.7636 15.4414 87.7636 15.4414C87.7636 15.4414 87.9106 16.0189 88.1206 16.9744L88.1101 16.9639Z" fill="#FEB599"/>
<path d="M88.6037 19.6201C89.5697 25.5946 90.1997 35.8426 83.0387 35.8426C72.9483 35.8426 57.7023 31.8841 49.1868 38.3311C40.6714 44.7675 33.1324 48.4845 29.5624 48.1905C25.9924 47.8965 19.0309 47.214 14.8835 49.0515C10.736 50.889 2.36749 50.763 1.0445 47.9805C3.35449 50.721 11.828 50.2695 14.999 48.642C18.1594 47.025 25.6984 47.172 30.8644 47.3085C36.0409 47.445 42.9709 41.376 47.8008 37.4281C52.6308 33.4801 58.7628 33.4801 65.4408 32.6926C72.1083 31.9156 82.7132 33.3961 84.8132 30.5926C86.3147 28.5766 85.6637 25.2691 85.1702 23.5681C87.3437 22.6441 88.2782 21.1111 88.6142 19.6201H88.6037Z" fill="#FEB599"/>
<path d="M88.7717 36.6621C84.9287 41.0826 74.6703 38.5101 66.9738 37.1661C59.2668 35.8221 51.8749 38.2896 46.9084 42.3636C41.9314 46.4375 33.8254 49.262 31.8934 49.577C29.9719 49.892 19.325 48.4115 16.4165 49.325C13.508 50.2595 10.1795 50.9945 5.90602 50.837C3.28103 50.732 1.63253 49.724 0.761032 48.9365V48.9155C0.782036 48.7895 0.813538 48.6635 0.845032 48.548C0.887032 48.401 0.939537 48.254 0.992035 48.1175C1.00253 48.0755 1.02354 48.0335 1.03403 48.002C2.35703 50.7845 10.7255 50.9105 14.873 49.073C19.0205 47.2355 25.9819 47.918 29.5519 48.212C33.1219 48.4955 40.6609 44.789 49.1764 38.3526C57.7023 31.9056 72.9378 35.8641 83.0283 35.8641C90.1787 35.8641 89.5592 25.6161 88.5932 19.6416C89.0762 17.4996 88.3412 15.4521 88.3412 15.4521C88.3412 15.4521 88.3097 16.0926 88.0997 16.9851C87.9002 16.0401 87.7427 15.4521 87.7427 15.4521C87.7427 15.4521 86.4932 10.7167 86.3567 0.762695L89.5697 0.783695C89.9372 8.95267 91.0817 19.0326 91.3862 21.2271C91.8272 24.3561 92.6042 32.2521 88.7507 36.6831L88.7717 36.6621Z" fill="#FEB599"/>
<path d="M81.4744 23.4109C84.5194 23.0119 84.8344 22.6444 84.8344 22.5184C84.8764 22.6444 85.0129 23.0329 85.1704 23.5789C84.8764 23.7049 84.5824 23.8204 84.2464 23.9254C77.7784 25.8469 76.2874 20.7754 76.2874 20.7754C76.2979 20.8069 77.6839 23.9149 81.4744 23.4109Z" fill="#FAA380"/>
<path d="M78.9963 22.4236C85.6008 23.4421 87.5433 19.3051 88.1103 16.9531C88.2573 17.6566 88.4358 18.5701 88.6143 19.6201C88.2783 21.1111 87.3438 22.6441 85.1703 23.5681C85.0128 23.0221 84.8763 22.6441 84.8343 22.5076C84.8343 22.6336 84.5193 23.0011 81.4743 23.4001C77.6838 23.9041 76.2978 20.7961 76.2873 20.7646C77.2533 22.2451 78.9963 22.4236 78.9963 22.4236Z" fill="#FAA380"/>
<path d="M88.3517 15.4304C88.3517 15.4304 89.0867 17.4779 88.6037 19.6199C88.4357 18.5699 88.2572 17.6564 88.0997 16.9529C88.3202 16.0604 88.3412 15.4199 88.3412 15.4199L88.3517 15.4304Z" fill="#FAA380"/>
</svg>
