<svg viewBox="0 0 156 152" fill="none" xmlns="http://www.w3.org/2000/svg">
<path d="M82.8202 77.935C75.1842 97.9803 61.0224 151.493 22.2693 151.493C13.0517 151.493 5.41578 149.675 -0.801132 147.057V147.163C5.41578 149.781 13.0517 151.599 22.2693 151.599C61.0224 151.599 75.1842 98.0861 82.8202 78.0407C90.4561 57.9953 108.538 44.5003 108.538 44.5003L108.473 44.4434C107.318 45.3216 90.1959 58.5727 82.8202 77.935Z" fill="url(#paint0_radial_1398_13598)"/>
<path d="M105.443 41.7803L104.556 41.0037L104.504 40.959L99.2056 46.7449L105.443 41.7803Z" fill="url(#paint1_radial_1398_13598)"/>
<path d="M96.1236 53.7263C99.3398 50.4085 104.577 46.0701 107.569 43.6467L106.512 42.7197L106.455 42.6709C100.946 47.8266 96.457 53.3197 96.1236 53.7263Z" fill="url(#paint2_radial_1398_13598)"/>
<path d="M11.5386 99.8308C11.3637 99.6113 5.97629 92.8292 -0.801729 81.0703V85.9617C2.91459 90.8409 7.01719 95.5412 11.5386 99.8308Z" fill="url(#paint3_radial_1398_13598)"/>
<path d="M22.2695 146.191C12.9828 142.91 5.33466 138.059 -0.800932 132.924V142.747C13.548 149.513 22.2695 146.187 22.2695 146.187V146.191Z" fill="url(#paint4_radial_1398_13598)"/>
<path d="M27.8029 115.033C25.1275 115.42 21.9723 114.667 18.5121 112.996C12.6449 110.17 5.90753 104.71 -0.801361 97.7163V129.065C10.1768 138.181 23.9809 145.967 35.939 141.523C39.8627 140.064 43.3716 137.921 46.5024 135.347L52.1054 129.891C54.362 127.321 56.3584 124.564 58.1109 121.775C61.815 116.253 61.815 115.037 63.97 110.638C67.3163 103.014 68.7638 97.021 68.8166 96.7974C57.5457 109.085 44.01 114.676 42.6885 115.196C43.6319 114.684 50.9019 110.654 58.3955 103.311C66.434 95.4352 75.5825 80.5618 80.1486 72.129C84.6415 63.8262 93.4362 53.1367 93.7087 52.8033C84.7066 59.2275 73.9317 74.044 73.5982 74.5035C80.4413 62.9723 93.7168 49.1357 93.7168 49.1357C91.1146 50.2986 86.8778 54.0719 82.9622 57.9224C82.8443 58.0728 82.7305 58.2151 82.6126 58.3696C81.9823 59.1869 81.344 60.0407 80.6975 60.9231C76.2005 67.0831 71.8824 74.8613 66.7592 82.054C66.8568 82.1801 66.9056 82.2452 66.9056 82.2452C66.9056 82.2452 45.9657 112.411 27.8029 115.037V115.033Z" fill="url(#paint5_radial_1398_13598)"/>
<path d="M11.5386 99.8307C7.01721 95.537 2.91462 90.8408 -0.801704 85.9616V97.7164C5.90719 104.714 12.6445 110.175 18.5118 112.996C21.9719 114.668 25.1272 115.42 27.7985 115.033C45.9654 112.407 66.9053 82.2412 66.9053 82.2412C66.9053 82.2412 66.8565 82.1761 66.7589 82.0501C57.8788 94.5327 46.5916 105.255 27.7985 102.697C16.9667 101.225 7.21238 88.8159 -0.801704 73.666V81.0661C5.97631 92.825 11.3638 99.6111 11.5386 99.8266V99.8307Z" fill="url(#paint6_radial_1398_13598)"/>
<g style="mix-blend-mode:multiply" opacity="0.33">
<path d="M11.5386 99.8307C7.01721 95.537 2.91462 90.8408 -0.801704 85.9616V97.7164C5.90719 104.714 12.6445 110.175 18.5118 112.996C21.9719 114.668 25.1272 115.42 27.7985 115.033C45.9654 112.407 66.9053 82.2412 66.9053 82.2412C66.9053 82.2412 66.8565 82.1761 66.7589 82.0501C57.8788 94.5327 46.5916 105.255 27.7985 102.697C16.9667 101.225 7.21238 88.8159 -0.801704 73.666V81.0661C5.97631 92.825 11.3638 99.6111 11.5386 99.8266V99.8307Z" fill="#E17631"/>
</g>
<g style="mix-blend-mode:screen" opacity="0.4">
<path d="M102.694 39.3692L104.504 40.959L104.557 40.9021L102.694 39.2676C102.694 39.2676 93.9932 43.4881 82.6125 58.2639C82.7263 58.1501 82.8442 58.0362 82.9621 57.9224C94.1721 43.5125 102.694 39.3733 102.694 39.3733V39.3692Z" fill="#F3C152"/>
</g>
<g style="mix-blend-mode:screen" opacity="0.4">
<path d="M108.476 44.4405C108.517 44.4079 108.541 44.3917 108.541 44.3917L107.634 43.5947C107.634 43.5947 107.594 43.6273 107.573 43.6435L107.634 43.6964L108.476 44.4364V44.4405Z" fill="#F3C152"/>
</g>
<g style="mix-blend-mode:screen" opacity="0.4">
<path d="M106.456 42.6717C106.456 42.6717 106.492 42.6351 106.513 42.6188L105.504 41.7324L105.443 41.7812L105.504 41.8341L106.456 42.6717Z" fill="#F3C152"/>
</g>
<path d="M73.5981 74.5033C73.9315 74.0438 84.7064 59.2273 93.7085 52.803C93.4361 53.1364 84.6414 63.826 80.1484 72.1287C75.5823 80.5616 66.4338 95.435 58.3953 103.311C50.9017 110.654 43.6317 114.683 42.6884 115.196C44.0098 114.675 57.5456 109.085 68.8165 96.7971C68.7636 97.0208 67.3161 103.014 63.9698 110.638C61.8149 115.033 61.8149 116.253 58.1107 121.775C56.3583 124.564 54.3619 127.321 52.1053 129.89L46.5023 135.347C43.3715 137.921 39.8625 140.063 35.9388 141.523C23.9807 145.967 10.1767 138.181 -0.801498 129.065V132.924C5.33409 138.059 12.9822 142.91 22.269 146.191C22.269 146.191 13.5474 149.513 -0.801498 142.751V147.057C5.41541 149.675 13.0513 151.493 22.269 151.493C61.022 151.493 75.1839 97.9803 82.8198 77.935C90.1955 58.5727 107.317 45.3216 108.472 44.4433L107.631 43.7033L107.57 43.6505C104.577 46.0697 99.3399 50.4122 96.1237 53.7301C96.4571 53.3235 100.946 47.8303 106.455 42.6746L105.504 41.837L105.443 41.7842L99.2058 46.7488L104.504 40.9629L102.694 39.373C102.694 39.373 94.168 43.5122 82.9621 57.9221C86.8817 54.0757 91.1144 50.2984 93.7167 49.1355C93.7167 49.1355 80.4412 62.9721 73.5981 74.5033Z" fill="url(#paint7_radial_1398_13598)"/>
<g style="mix-blend-mode:screen" opacity="0.4">
<path d="M73.5981 74.5033C73.9315 74.0438 84.7064 59.2273 93.7085 52.803C93.4361 53.1364 84.6414 63.826 80.1484 72.1287C75.5823 80.5616 66.4338 95.435 58.3953 103.311C50.9017 110.654 43.6317 114.683 42.6884 115.196C44.0098 114.675 57.5456 109.085 68.8165 96.7971C68.7636 97.0208 67.3161 103.014 63.9698 110.638C61.8149 115.033 61.8149 116.253 58.1107 121.775C56.3583 124.564 54.3619 127.321 52.1053 129.89L46.5023 135.347C43.3715 137.921 39.8625 140.063 35.9388 141.523C23.9807 145.967 10.1767 138.181 -0.801498 129.065V132.924C5.33409 138.059 12.9822 142.91 22.269 146.191C22.269 146.191 13.5474 149.513 -0.801498 142.751V147.057C5.41541 149.675 13.0513 151.493 22.269 151.493C61.022 151.493 75.1839 97.9803 82.8198 77.935C90.1955 58.5727 107.317 45.3216 108.472 44.4433L107.631 43.7033L107.57 43.6505C104.577 46.0697 99.3399 50.4122 96.1237 53.7301C96.4571 53.3235 100.946 47.8303 106.455 42.6746L105.504 41.837L105.443 41.7842L99.2058 46.7488L104.504 40.9629L102.694 39.373C102.694 39.373 94.168 43.5122 82.9621 57.9221C86.8817 54.0757 91.1144 50.2984 93.7167 49.1355C93.7167 49.1355 80.4412 62.9721 73.5981 74.5033Z" fill="#F3C152"/>
</g>
<path d="M123.606 13.0129L119.656 8.29688L110.52 15.9493L114.47 20.6653L123.606 13.0129Z" fill="#672A4B"/>
<path d="M98.1808 22.4954L91.7972 12.4849C91.354 11.7896 91.4719 10.9073 92.0168 10.3503C92.151 10.2161 92.3095 10.0982 92.4884 10.0087C109.228 1.78323 121.329 2.09224 126.537 2.82006C127.074 2.89731 127.423 3.27952 127.529 3.72271C127.639 4.17403 127.497 4.68228 127.041 4.9913L100.604 22.9955C99.7991 23.5404 98.7054 23.3167 98.1808 22.4954Z" fill="url(#paint8_radial_1398_13598)"/>
<g style="mix-blend-mode:multiply" opacity="0.33">
<path d="M98.1808 22.4954L91.7972 12.4849C91.354 11.7896 91.4719 10.9073 92.0168 10.3502C93.4683 11.6351 95.5339 12.9443 98.4126 13.8104C105.837 16.0386 127.529 3.72266 127.529 3.72266C127.639 4.17398 127.497 4.68223 127.041 4.99125L100.604 22.9955C99.7991 23.5403 98.7054 23.3167 98.1808 22.4954Z" fill="#BA889D"/>
</g>
<path d="M140.992 33.7737L137.042 29.0576L127.906 36.71L131.856 41.4261L140.992 33.7737Z" fill="#672A4B"/>
<path d="M121.614 45.8831L104.333 25.2563C104.333 25.2563 105.252 24.4391 106.968 23.0891C111.766 19.3118 122.793 11.3547 137.276 5.45898L144.554 14.144L146.876 16.917C135.556 34.8683 121.614 45.8831 121.614 45.8831Z" fill="url(#paint9_radial_1398_13598)"/>
<g style="mix-blend-mode:multiply" opacity="0.33">
<path d="M121.614 43.8182L104.333 25.2569C104.333 25.2569 105.252 24.4396 106.968 23.0897C109.383 25.3179 121.081 35.5886 127.75 31.8519C135.211 27.6721 142.952 14.482 142.952 14.482C142.952 14.482 143.611 14.3356 144.554 14.1445L146.876 16.9175C146.876 16.9175 146.872 16.9257 146.856 16.9419C146.319 17.6819 132.889 36.0115 121.614 43.8141V43.8182Z" fill="#BA889D"/>
</g>
<path d="M121.614 45.8836L115.409 46.8473L102.296 31.1973L104.333 25.2568L121.614 45.8836Z" fill="#672A4B"/>
<path d="M114.855 46.1939L102.842 31.8525L99.9622 34.265L111.975 48.6063L114.855 46.1939Z" fill="url(#paint10_radial_1398_13598)"/>
<g style="mix-blend-mode:multiply" opacity="0.33">
<path d="M115.922 33.194C118.285 36.0155 123.455 35.5769 127.47 32.2143C131.484 28.8517 132.823 23.8385 130.459 21.017C128.096 18.1955 122.926 18.6341 118.911 21.9967C114.897 25.3593 113.558 30.3725 115.922 33.194Z" fill="#BA889D"/>
</g>
<path d="M128.355 31.3756C124.342 34.7382 119.17 35.1773 116.807 32.3555C114.445 29.5337 115.783 24.5244 119.796 21.1618C123.809 17.7992 128.981 17.3601 131.343 20.1819C133.706 23.0037 132.368 28.013 128.355 31.3756Z" fill="url(#paint11_radial_1398_13598)"/>
<g style="mix-blend-mode:multiply" opacity="0.33">
<path d="M118.347 31.1656C120.007 33.147 123.639 32.8374 126.461 30.4741C129.282 28.1108 130.224 24.5886 128.565 22.6072C126.905 20.6258 123.272 20.9354 120.451 23.2987C117.629 25.6621 116.687 29.1842 118.347 31.1656Z" fill="#BA889D"/>
</g>
<path d="M127.082 29.8586C124.261 32.2209 120.63 32.53 118.971 30.5498C117.312 28.5697 118.251 25.0445 121.073 22.6821C123.895 20.3198 127.526 20.0108 129.185 21.9909C130.843 23.971 129.904 27.4963 127.082 29.8586Z" fill="url(#paint12_radial_1398_13598)"/>
<path d="M146.876 16.9171C146.697 16.8276 146.522 16.7341 146.351 16.6406C144.257 15.498 142.415 13.9773 140.903 12.172C139.39 10.3667 138.211 8.28494 137.459 6.02018C137.394 5.83721 137.333 5.64611 137.28 5.45908L143.289 3.71883L155.064 0.311523L146.876 16.9171Z" fill="url(#paint13_radial_1398_13598)"/>
<g style="mix-blend-mode:multiply" opacity="0.41">
<path d="M146.879 16.9209C146.705 16.8314 146.53 16.742 146.359 16.6444C144.265 15.5059 142.419 13.9771 140.907 12.1759C139.394 10.3706 138.215 8.28877 137.463 6.02401C137.398 5.84104 137.337 5.64994 137.284 5.4629L143.293 3.72266C143.293 3.72266 143.749 5.62148 145.802 8.07734C147.859 10.5332 149.648 11.3139 149.648 11.3139L146.884 16.9249L146.879 16.9209Z" fill="#A47989"/>
</g>
<g style="mix-blend-mode:multiply" opacity="0.33">
<path d="M104.955 34.3723L104.407 33.7178L101.527 36.1302L102.075 36.7848L104.955 34.3723Z" fill="#BA889D"/>
</g>
<g style="mix-blend-mode:multiply" opacity="0.33">
<path d="M107.106 36.9388L106.558 36.2842L103.678 38.6966L104.226 39.3512L107.106 36.9388Z" fill="#BA889D"/>
</g>
<g style="mix-blend-mode:multiply" opacity="0.33">
<path d="M109.259 39.511L108.71 38.8564L105.83 41.2689L106.379 41.9234L109.259 39.511Z" fill="#BA889D"/>
</g>
<g style="mix-blend-mode:multiply" opacity="0.33">
<path d="M111.417 42.0813L110.869 41.4268L107.989 43.8392L108.537 44.4938L111.417 42.0813Z" fill="#BA889D"/>
</g>
<g style="mix-blend-mode:multiply" opacity="0.33">
<path d="M113.565 44.6546L113.017 44L110.136 46.4124L110.685 47.067L113.565 44.6546Z" fill="#BA889D"/>
</g>
<path d="M131.99 60.4677L123.253 52.4251C122.537 51.7665 122.509 50.6483 123.188 49.953L145.546 27.0777C146.03 26.5817 146.742 26.6305 147.185 27.0127C147.441 27.2282 147.608 27.5575 147.592 27.956C147.401 33.2133 145.579 45.1755 134.552 60.2156C134.532 60.2441 134.511 60.2685 134.487 60.2929C133.865 61.0532 132.722 61.1426 131.99 60.4677Z" fill="url(#paint14_radial_1398_13598)"/>
<g style="mix-blend-mode:multiply" opacity="0.33">
<path d="M131.99 60.4677L123.252 52.4251C122.536 51.7665 122.508 50.6483 123.187 49.953L145.546 27.0777C146.03 26.5817 146.741 26.6305 147.185 27.0127C144.066 30.3265 132.307 43.2726 131.295 51.3599C130.758 55.6495 132.474 58.4835 134.486 60.2929C133.864 61.0532 132.722 61.1426 131.99 60.4677Z" fill="#BA889D"/>
</g>
<path d="M109.871 46.086C109.122 46.0251 108.252 45.5778 107.435 45.0208C105.365 43.618 103.719 41.65 102.698 39.369C102.296 38.4664 102.011 37.5312 102.08 36.7871L109.871 46.086Z" fill="url(#paint15_linear_1398_13598)"/>
<defs>
<radialGradient id="paint0_radial_1398_13598" cx="0" cy="0" r="1" gradientUnits="userSpaceOnUse" gradientTransform="translate(-0.126182 146.293) rotate(90) scale(105.748 105.748)">
<stop stop-color="#FDF364"/>
<stop offset="0.14" stop-color="#F9E15D"/>
<stop offset="0.4" stop-color="#F4C352"/>
<stop offset="0.55" stop-color="#F2B84E"/>
<stop offset="1" stop-color="#E17330"/>
</radialGradient>
<radialGradient id="paint1_radial_1398_13598" cx="0" cy="0" r="1" gradientUnits="userSpaceOnUse" gradientTransform="translate(-0.1267 146.293) rotate(90) scale(105.748 105.748)">
<stop stop-color="#FDF364"/>
<stop offset="0.14" stop-color="#F9E15D"/>
<stop offset="0.4" stop-color="#F4C352"/>
<stop offset="0.55" stop-color="#F2B84E"/>
<stop offset="1" stop-color="#E17330"/>
</radialGradient>
<radialGradient id="paint2_radial_1398_13598" cx="0" cy="0" r="1" gradientUnits="userSpaceOnUse" gradientTransform="translate(-0.126766 146.293) rotate(90) scale(105.748 105.748)">
<stop stop-color="#FDF364"/>
<stop offset="0.14" stop-color="#F9E15D"/>
<stop offset="0.4" stop-color="#F4C352"/>
<stop offset="0.55" stop-color="#F2B84E"/>
<stop offset="1" stop-color="#E17330"/>
</radialGradient>
<radialGradient id="paint3_radial_1398_13598" cx="0" cy="0" r="1" gradientUnits="userSpaceOnUse" gradientTransform="translate(-0.126775 146.293) rotate(90) scale(105.748 105.748)">
<stop stop-color="#FDF364"/>
<stop offset="0.14" stop-color="#F9E15D"/>
<stop offset="0.4" stop-color="#F4C352"/>
<stop offset="0.55" stop-color="#F2B84E"/>
<stop offset="1" stop-color="#E17330"/>
</radialGradient>
<radialGradient id="paint4_radial_1398_13598" cx="0" cy="0" r="1" gradientUnits="userSpaceOnUse" gradientTransform="translate(-0.125974 146.293) rotate(90) scale(105.748 105.748)">
<stop stop-color="#FDF364"/>
<stop offset="0.14" stop-color="#F9E15D"/>
<stop offset="0.4" stop-color="#F4C352"/>
<stop offset="0.55" stop-color="#F2B84E"/>
<stop offset="1" stop-color="#E17330"/>
</radialGradient>
<radialGradient id="paint5_radial_1398_13598" cx="0" cy="0" r="1" gradientUnits="userSpaceOnUse" gradientTransform="translate(-0.126403 146.293) rotate(90) scale(105.748 105.748)">
<stop stop-color="#FDF364"/>
<stop offset="0.14" stop-color="#F9E15D"/>
<stop offset="0.4" stop-color="#F4C352"/>
<stop offset="0.55" stop-color="#F2B84E"/>
<stop offset="1" stop-color="#E17330"/>
</radialGradient>
<radialGradient id="paint6_radial_1398_13598" cx="0" cy="0" r="1" gradientUnits="userSpaceOnUse" gradientTransform="translate(-0.126753 146.293) rotate(90) scale(105.748 105.748)">
<stop stop-color="#FDF364"/>
<stop offset="0.14" stop-color="#F9E15D"/>
<stop offset="0.4" stop-color="#F4C352"/>
<stop offset="0.55" stop-color="#F2B84E"/>
<stop offset="1" stop-color="#E17330"/>
</radialGradient>
<radialGradient id="paint7_radial_1398_13598" cx="0" cy="0" r="1" gradientUnits="userSpaceOnUse" gradientTransform="translate(-0.12654 146.293) rotate(90) scale(105.748 105.748)">
<stop stop-color="#FDF364"/>
<stop offset="0.14" stop-color="#F9E15D"/>
<stop offset="0.4" stop-color="#F4C352"/>
<stop offset="0.55" stop-color="#F2B84E"/>
<stop offset="1" stop-color="#E17330"/>
</radialGradient>
<radialGradient id="paint8_radial_1398_13598" cx="0" cy="0" r="1" gradientUnits="userSpaceOnUse" gradientTransform="translate(125.46 5.24746) rotate(90) scale(47.5315 47.5315)">
<stop stop-color="#ED7B77"/>
<stop offset="0.06" stop-color="#EA706B"/>
<stop offset="0.23" stop-color="#E2534D"/>
<stop offset="0.33" stop-color="#DF4942"/>
<stop offset="1" stop-color="#531249"/>
</radialGradient>
<radialGradient id="paint9_radial_1398_13598" cx="0" cy="0" r="1" gradientUnits="userSpaceOnUse" gradientTransform="translate(129.917 15.9859) rotate(90) scale(38.57)">
<stop stop-color="#FAF2E6"/>
<stop offset="0.13" stop-color="#F5E5DB"/>
<stop offset="0.29" stop-color="#F1DAD3"/>
<stop offset="1" stop-color="#D7B3AF"/>
</radialGradient>
<radialGradient id="paint10_radial_1398_13598" cx="0" cy="0" r="1" gradientUnits="userSpaceOnUse" gradientTransform="translate(107.409 40.2322) rotate(90) scale(7.92463)">
<stop stop-color="#ED7B77"/>
<stop offset="0.06" stop-color="#EA706B"/>
<stop offset="0.23" stop-color="#E2534D"/>
<stop offset="0.33" stop-color="#DF4942"/>
<stop offset="1" stop-color="#531249"/>
</radialGradient>
<radialGradient id="paint11_radial_1398_13598" cx="0" cy="0" r="1" gradientUnits="userSpaceOnUse" gradientTransform="translate(128.058 25.9028) rotate(90) scale(15.9834 15.9834)">
<stop stop-color="#FCED5B"/>
<stop offset="0.22" stop-color="#E2D851"/>
<stop offset="0.53" stop-color="#C4C146"/>
<stop offset="0.71" stop-color="#B9B842"/>
<stop offset="1" stop-color="#A06526"/>
</radialGradient>
<radialGradient id="paint12_radial_1398_13598" cx="0" cy="0" r="1" gradientUnits="userSpaceOnUse" gradientTransform="translate(128.245 22.6943) rotate(90) scale(14.0846 14.0846)">
<stop stop-color="#D0E9FC"/>
<stop offset="0.02" stop-color="#C7E6FA"/>
<stop offset="0.14" stop-color="#96D9EF"/>
<stop offset="0.24" stop-color="#78D1E9"/>
<stop offset="0.29" stop-color="#6DCEE7"/>
<stop offset="1" stop-color="#52748B"/>
</radialGradient>
<radialGradient id="paint13_radial_1398_13598" cx="0" cy="0" r="1" gradientUnits="userSpaceOnUse" gradientTransform="translate(154.735 0.555483) rotate(90) scale(22.859 22.859)">
<stop stop-color="#ED7B77"/>
<stop offset="0.06" stop-color="#EA706B"/>
<stop offset="0.23" stop-color="#E2534D"/>
<stop offset="0.33" stop-color="#DF4942"/>
<stop offset="1" stop-color="#531249"/>
</radialGradient>
<radialGradient id="paint14_radial_1398_13598" cx="0" cy="0" r="1" gradientUnits="userSpaceOnUse" gradientTransform="translate(143.2 35.1609) rotate(90) scale(39.432 39.432)">
<stop stop-color="#ED7B77"/>
<stop offset="0.06" stop-color="#EA706B"/>
<stop offset="0.23" stop-color="#E2534D"/>
<stop offset="0.33" stop-color="#DF4942"/>
<stop offset="1" stop-color="#531249"/>
</radialGradient>
<linearGradient id="paint15_linear_1398_13598" x1="104.406" y1="42.821" x2="105.784" y2="41.6013" gradientUnits="userSpaceOnUse">
<stop stop-color="#FAE481"/>
<stop offset="0.08" stop-color="#F8DB77"/>
<stop offset="0.38" stop-color="#F3C159"/>
<stop offset="0.55" stop-color="#F2B84E"/>
<stop offset="1" stop-color="#E17330"/>
</linearGradient>
</defs>
</svg>
