<svg width="160" height="75" viewBox="0 0 160 75" fill="none" xmlns="http://www.w3.org/2000/svg">
<path d="M136.456 74.03L157.763 74.1666L158.102 20.4294C158.102 20.4294 153.66 8.78184 144.375 5.2367C135.091 1.69156 107.552 1.50328 107.552 1.50328L108.479 73.8506L136.456 74.03Z" fill="#1A6C80"/>
<path d="M136.457 74.0304L77.7384 73.6539L78.0804 19.3361C78.0804 19.3361 82.1322 1.32358 108.935 1.49543C129.856 1.62956 136.203 19.9996 136.203 19.9996L136.457 74.0304Z" fill="#D9E8F4"/>
<path d="M147.02 17.6404L146.662 17.6381C144.206 17.6224 142.2 19.6186 142.185 22.0932L141.87 72.1074L151.127 72.1668L151.441 22.1526C151.457 19.678 149.476 17.6562 147.021 17.6404L147.02 17.6404Z" fill="#D9E8F4"/>
<path d="M106.036 65.6944C94.1124 65.618 84.5252 53.0095 84.6226 37.5326C84.7201 22.0558 94.4653 9.57126 106.389 9.64771C118.313 9.72416 127.9 22.3326 127.803 37.8095C127.706 53.2864 117.96 65.7709 106.036 65.6944Z" fill="#1A6C80"/>
<path d="M105.933 54.627C98.2419 54.5777 92.0583 46.4458 92.1211 36.4638C92.184 26.4818 98.4695 18.4298 106.16 18.4791C113.851 18.5284 120.034 26.6604 119.972 36.6423C119.909 46.6243 113.623 54.6763 105.933 54.627Z" fill="#D9E8F4"/>
<path d="M111.877 20.0621C116.742 22.9014 120.108 29.2678 120.062 36.6457C120.015 44.0235 116.569 50.3463 111.669 53.123C106.804 50.2837 103.438 43.9173 103.485 36.5394C103.531 29.1615 106.978 22.8388 111.877 20.0621Z" fill="#CCD9E2"/>
<path d="M88.4498 55.6898L0.183252 55.1238C0.183252 55.1238 -1.11445 59.2755 7.25332 62.8659C25.4541 70.675 108.173 60.7378 108.173 60.7378L88.4508 55.6908L88.4498 55.6898Z" fill="#CCD9E2"/>
<path d="M108.203 55.8164L19.9361 55.2505C19.9361 55.2505 18.7467 59.1557 27.0062 62.9925C35.2656 66.8283 108.172 60.7378 108.172 60.7378L108.203 55.8175L108.203 55.8164Z" fill="#D9E8F4"/>
<path d="M108.172 60.7373L108.089 73.8515L35.6093 73.3868L37.3242 65.2548L108.172 60.7373Z" fill="#707578"/>
<path d="M35.6099 73.3855L53.5811 73.5007L55.0635 65.3672L37.1929 65.879L35.6099 73.3855Z" fill="#B5C0C6"/>
<path d="M108.127 67.6872L53.6454 68.2498L54.4073 66.9454L108.136 66.3301L108.127 67.6872Z" fill="#B5C0C6"/>
<path d="M157.576 66.0268L136.508 65.8917L136.457 74.0345L158.978 74.1789L159.02 67.5008C159.025 66.6923 158.378 66.032 157.576 66.0268Z" fill="#676D70"/>
<path opacity="0.38" d="M123.596 24.0514C124.224 25.5042 124.724 27.0744 124.552 28.6489C124.5 29.1162 124.354 29.6277 123.952 29.8648C123.546 30.104 123.004 29.9674 122.645 29.6615C122.286 29.3556 122.072 28.9142 121.882 28.4816C120.699 25.7937 120.017 22.8779 118.559 20.3311C117.407 18.3199 115.784 16.5858 113.858 15.3101C113.431 15.0272 112.923 14.5957 113.094 14.1099C113.286 13.5668 114.073 13.6432 114.601 13.865C118.872 15.6575 121.808 19.913 123.596 24.0514Z" fill="white"/>
<path opacity="0.38" d="M111.575 13.486C111.384 13.6169 111.129 13.5854 110.901 13.5488C109.619 13.3435 108.335 13.1371 107.053 12.9317C106.794 12.8896 106.526 12.8452 106.3 12.7095C106.073 12.5738 105.895 12.3223 105.924 12.0582C105.952 11.8005 106.171 11.5963 106.413 11.5094C106.656 11.4225 106.92 11.4328 107.178 11.4461C108.285 11.5076 109.746 11.486 110.777 11.9402C111.222 12.1359 112.299 12.9909 111.575 13.486Z" fill="white"/>
<path d="M132.362 20.1907L134.752 20.2061L134.731 23.5474L132.341 23.532L132.362 20.1907Z" fill="#1A6B80"/>
<path d="M128.24 20.1624L130.63 20.1777L130.609 23.519L128.219 23.5037L128.24 20.1624Z" fill="#1A6B80"/>
<path d="M132.331 25.3685L134.721 25.3838L134.7 28.7251L132.31 28.7098L132.331 25.3685Z" fill="#1A6B80"/>
<path d="M136.119 65.8884L108.141 65.709L108.09 73.8517L137.791 74.0421L137.831 67.6358C137.837 66.6781 137.071 65.8955 136.121 65.8894L136.119 65.8884Z" fill="#878E91"/>
<path d="M127.806 37.1283L136.284 37.1826L136.27 39.5117L127.791 39.4574L127.806 37.1283Z" fill="#878E91"/>
<path d="M77.9719 36.3138L84.6289 36.3564L84.6142 38.6856L77.9573 38.6429L77.9719 36.3138Z" fill="#878E91"/>
</svg>
