<svg width="115" height="163" viewBox="0 0 115 163" fill="none" xmlns="http://www.w3.org/2000/svg">
<path d="M57.3489 135.198C34.1732 135.198 13.3787 120.475 5.63107 98.5734C3.51809 92.6034 2.44482 86.4656 2.44482 80.2944C2.44482 74.1231 3.45101 68.3543 5.42984 62.552L5.59753 62.0825C13.3451 40.2147 34.1396 25.4238 57.3489 25.4238C63.386 25.4238 69.3896 26.4636 75.2254 28.4759C79.3843 29.9181 83.4426 31.8969 87.2326 34.3453C102.896 44.5413 112.219 61.7135 112.219 80.2944C112.219 82.0049 112.119 83.7825 111.951 85.6607C109.201 113.901 85.7233 135.198 57.3154 135.198H57.3489Z" fill="#181C36"/>
<path d="M57.3486 132.347C35.3803 132.347 15.6591 118.395 8.31396 97.634C6.30159 91.9658 5.29541 86.13 5.29541 80.2941C5.29541 74.4582 6.23451 68.9913 8.11272 63.4908L8.24688 63.1219C15.6256 42.2604 35.3468 28.2744 57.3486 28.2744C63.0839 28.2744 68.7856 29.2471 74.3196 31.1588C78.2773 32.5339 82.1008 34.4121 85.6895 36.7264C100.514 46.3857 109.402 62.6524 109.402 80.2941C109.402 81.9375 109.301 83.6145 109.134 85.3586C106.551 112.123 84.2808 132.314 57.3486 132.314V132.347Z" fill="#3D4787"/>
<path d="M84.1459 39.1416C80.8255 36.9616 77.2032 35.184 73.4133 33.8759C68.3824 32.1319 63.0161 31.1592 57.3814 31.1592C35.9162 31.1257 17.7378 44.8769 10.9964 64.0279C10.9628 64.1621 10.8957 64.2962 10.8287 64.4304C9.11815 69.4278 8.14551 74.7605 8.14551 80.3281C8.14551 85.8956 9.18523 91.5638 10.9964 96.6953C17.7378 115.779 35.9162 129.497 57.3144 129.497C82.8714 129.497 103.834 110.01 106.248 85.1242C106.416 83.5479 106.483 81.938 106.483 80.3281C106.483 63.0553 97.5617 47.8954 84.0788 39.1416H84.1459Z" fill="#2A3069"/>
<path d="M103.107 137.836L98.1901 137.638C69.3452 136.464 40.4587 136.348 11.6009 137.274C6.26104 137.241 1.9579 132.865 1.99085 127.501L2.04189 119.19C2.07071 114.497 3.79172 111.711 9.22048 110.138C10.6018 109.741 12.0173 109.52 13.4496 109.397C15.6904 109.216 19.9699 108.863 25.0226 108.453C46.6747 106.689 68.4381 106.823 90.0669 108.852L101.715 109.947C103.146 110.08 104.567 110.309 105.944 110.706C111.529 112.302 112.925 115.178 112.896 119.88L112.845 128.191C112.812 133.555 108.456 137.877 103.116 137.845L103.107 137.836Z" fill="#2A3069"/>
<path fill-rule="evenodd" clip-rule="evenodd" d="M103.336 135.587C107.326 135.502 110.565 132.235 110.59 128.177L110.641 119.866C110.654 117.697 110.326 116.358 109.671 115.413C109.035 114.494 107.84 113.594 105.324 112.875L105.319 112.873C104.115 112.526 102.84 112.317 101.508 112.194L101.504 112.193L89.8562 111.099C89.856 111.098 89.8563 111.099 89.8562 111.099C68.3585 109.081 46.7267 108.948 25.2058 110.701C22.635 110.91 20.2603 111.104 18.2536 111.268C16.3251 111.426 14.7359 111.556 13.6372 111.645C12.3074 111.76 11.0463 111.96 9.84592 112.306C7.39175 113.017 6.11905 113.905 5.40941 114.849C4.70209 115.79 4.31063 117.109 4.29776 119.204L4.24672 127.515C4.22145 131.629 7.50863 134.971 11.5745 135.017C40.4709 134.092 69.3964 134.208 98.2808 135.384C98.2804 135.384 98.2811 135.384 98.2808 135.384L103.336 135.587ZM13.4496 109.397C12.0173 109.52 10.6018 109.741 9.22048 110.138C3.79172 111.711 2.07071 114.497 2.04189 119.19L1.99085 127.501C1.9579 132.865 6.26104 137.241 11.6009 137.274C40.4587 136.348 69.3452 136.464 98.1901 137.638L103.107 137.836L103.116 137.845C108.456 137.877 112.812 133.555 112.845 128.191L112.896 119.88C112.925 115.178 111.529 112.302 105.944 110.706C104.567 110.309 103.146 110.08 101.715 109.947L90.0669 108.852C68.4381 106.823 46.6747 106.689 25.0226 108.453C22.4476 108.662 20.0735 108.856 18.0676 109.02C16.1375 109.178 14.5485 109.308 13.4496 109.397Z" fill="#181C36"/>
<path d="M48.8798 129.414L44.5531 118.011H44.4826C44.5061 118.252 44.5266 118.546 44.5442 118.892C44.5619 119.239 44.5766 119.618 44.5883 120.029C44.6 120.434 44.6059 120.849 44.6059 121.272V129.414H43.2136V116.531H45.4343L49.5143 127.246H49.576L53.7177 116.531H55.9207V129.414H54.4403V121.166C54.4403 120.784 54.4462 120.402 54.4579 120.02C54.4697 119.633 54.4844 119.268 54.502 118.928C54.5196 118.581 54.5372 118.281 54.5549 118.029H54.4844L50.1047 129.414H48.8798ZM62.9264 116.531C63.9839 116.531 64.8563 116.663 65.5436 116.927C66.2368 117.186 66.7538 117.582 67.0946 118.117C67.4353 118.651 67.6057 119.333 67.6057 120.161C67.6057 120.843 67.4823 121.413 67.2356 121.871C66.9888 122.323 66.6657 122.69 66.2662 122.972C65.8667 123.254 65.4408 123.472 64.9885 123.624L68.5221 129.414H66.7773L63.6226 124.039H60.9437V129.414H59.4456V116.531H62.9264ZM62.8383 117.826H60.9437V122.77H62.9881C64.0397 122.77 64.8122 122.555 65.3057 122.126C65.8051 121.698 66.0547 121.066 66.0547 120.232C66.0547 119.356 65.7904 118.737 65.2616 118.372C64.7388 118.008 63.931 117.826 62.8383 117.826ZM70.5842 129.414V116.531H72.0822V129.414H70.5842Z" fill="white"/>
<g clip-path="url(#clip0_1292_78612)">
<path d="M99.5954 93.7869L99.7954 68.8869C99.7954 68.8869 97.3954 62.4869 92.1954 60.5869C88.1954 59.0869 77.8954 58.6869 73.6954 58.5869C73.3954 58.5869 72.9954 58.5869 72.5954 58.5869C72.3954 58.5869 72.2954 58.5869 72.0954 58.5869C71.8954 58.5869 71.7954 58.5869 71.7954 58.5869C57.6954 58.7869 55.5954 68.2869 55.5954 68.2869L55.4954 77.5869L55.4954 78.8869L55.3954 88.1869L12.7954 87.8869C12.7954 87.8869 12.0954 90.1869 16.6954 92.0869C19.6954 93.3869 25.8954 93.7869 33.1954 93.6869L32.2954 97.7869L72.1954 98.0869L87.7954 98.1869L100.195 98.2869L100.195 94.6869C100.295 94.1869 99.9954 93.8869 99.5954 93.7869Z" fill="black"/>
</g>
<path d="M86.5484 95.1862L98.2776 95.2608L98.4638 65.9461C98.4638 65.9461 96.0185 59.5922 90.9076 57.6583C85.7966 55.7243 70.6369 55.6216 70.6369 55.6216L71.1473 95.0884L86.5484 95.1862Z" fill="#1A6C80"/>
<path d="M86.5493 95.1861L54.2255 94.9807L54.4137 65.3494C54.4137 65.3494 56.6442 55.5232 71.3989 55.617C82.9157 55.6902 86.4095 65.7113 86.4095 65.7113L86.5493 95.1861Z" fill="#D9E8F4"/>
<path d="M92.3635 64.4239L92.1662 64.4226C90.8146 64.414 89.7103 65.503 89.7017 66.853L89.5284 94.1366L94.6241 94.169L94.7974 66.8853C94.806 65.5354 93.7156 64.4325 92.364 64.4239L92.3635 64.4239Z" fill="#D9E8F4"/>
<path d="M69.8025 90.6376C63.2385 90.5959 57.9608 83.7178 58.0145 75.2749C58.0681 66.832 63.4327 60.0215 69.9967 60.0632C76.5607 60.1049 81.8383 66.983 81.7847 75.4259C81.7311 83.8688 76.3664 90.6793 69.8025 90.6376Z" fill="#1A6C80"/>
<path d="M69.7454 84.6013C65.5118 84.5744 62.1078 80.1383 62.1424 74.6929C62.177 69.2476 65.6371 64.8551 69.8707 64.882C74.1043 64.9089 77.5083 69.345 77.4737 74.7903C77.4391 80.2357 73.9791 84.6282 69.7454 84.6013Z" fill="#D9E8F4"/>
<path d="M73.0178 65.7444C75.6956 67.2933 77.5488 70.7663 77.5233 74.7911C77.4977 78.8158 75.6005 82.265 72.9032 83.7797C70.2249 82.2309 68.3722 78.7579 68.3978 74.7331C68.4234 70.7083 70.3206 67.2592 73.0178 65.7444Z" fill="#CCD9E2"/>
<path d="M60.1214 85.1799L11.5318 84.8712C11.5318 84.8712 10.8175 87.136 15.4238 89.0946C25.4431 93.3546 70.9788 87.9337 70.9788 87.9337L60.122 85.1805L60.1214 85.1799Z" fill="#CCD9E2"/>
<path d="M70.9949 85.249L22.4053 84.9403C22.4053 84.9403 21.7506 87.0706 26.2973 89.1637C30.844 91.2562 70.9778 87.9337 70.9778 87.9337L70.9949 85.2496L70.9949 85.249Z" fill="#D9E8F4"/>
<path d="M70.978 87.9336L70.9326 95.0876L31.0333 94.8341L31.9774 90.3979L70.978 87.9336Z" fill="#707578"/>
<path d="M31.0337 94.8331L40.9266 94.896L41.7427 90.459L31.9052 90.7382L31.0337 94.8331Z" fill="#B5C0C6"/>
<path d="M70.9538 91.7257L40.9623 92.0326L41.3817 91.321L70.9585 90.9854L70.9538 91.7257Z" fill="#B5C0C6"/>
<path d="M98.1746 90.8191L86.5769 90.7454L86.5487 95.1874L98.9464 95.2662L98.9695 91.6232C98.9723 91.1822 98.6162 90.8219 98.1746 90.8191Z" fill="#676D70"/>
<path opacity="0.38" d="M79.4695 67.9211C79.8148 68.7136 80.0904 69.5702 79.9953 70.4291C79.9669 70.684 79.8866 70.963 79.6653 71.0924C79.4416 71.2229 79.1436 71.1484 78.9456 70.9815C78.7483 70.8146 78.6305 70.5738 78.5255 70.3378C77.8745 68.8716 77.4994 67.2809 76.6965 65.8916C76.0623 64.7944 75.1687 63.8485 74.1089 63.1525C73.8737 62.9982 73.5941 62.7628 73.6883 62.4978C73.7938 62.2015 74.227 62.2432 74.5177 62.3642C76.8686 63.3421 78.4848 65.6635 79.4695 67.9211Z" fill="white"/>
<path opacity="0.38" d="M72.8512 62.1571C72.746 62.2285 72.6058 62.2113 72.4803 62.1913C71.7744 62.0793 71.0681 61.9667 70.3622 61.8547C70.2192 61.8317 70.0721 61.8075 69.9475 61.7335C69.8228 61.6595 69.7248 61.5223 69.7408 61.3782C69.7562 61.2376 69.8763 61.1262 70.0098 61.0788C70.1434 61.0314 70.2889 61.037 70.4308 61.0443C71.0405 61.0778 71.8443 61.0661 72.4119 61.3138C72.6568 61.4206 73.2498 61.887 72.8512 62.1571Z" fill="white"/>
<path d="M84.2945 65.8159L85.6104 65.8242L85.5988 67.647L84.283 67.6386L84.2945 65.8159Z" fill="#1A6B80"/>
<path d="M82.0255 65.8002L83.3413 65.8086L83.3297 67.6313L82.0139 67.623L82.0255 65.8002Z" fill="#1A6B80"/>
<path d="M84.2772 68.6401L85.593 68.6484L85.5814 70.4712L84.2656 70.4628L84.2772 68.6401Z" fill="#1A6B80"/>
<path d="M86.3631 90.744L70.9614 90.6461L70.9332 95.0881L87.2833 95.192L87.3055 91.6972C87.3088 91.1748 86.8868 90.7479 86.3637 90.7446L86.3631 90.744Z" fill="#878E91"/>
<path d="M81.7863 75.0543L86.4536 75.084L86.4455 76.3546L81.7783 76.3249L81.7863 75.0543Z" fill="#878E91"/>
<path d="M54.3535 74.6095L58.0181 74.6328L58.01 75.9034L54.3454 75.8801L54.3535 74.6095Z" fill="#878E91"/>
<defs>
<clipPath id="clip0_1292_78612">
<rect width="89" height="41" fill="white" transform="translate(12.2954 57.9873)"/>
</clipPath>
</defs>
</svg>
