<svg width="285" height="226" viewBox="0 0 285 226" fill="none" xmlns="http://www.w3.org/2000/svg">
<g filter="url(#filter0_d_1387_14112)">
<path d="M218.619 164.802H62.6191V217.742H218.619V164.802Z" fill="#D9E7F3"/>
<path d="M142.189 190.402H128.529V204.062H142.189V190.402Z" fill="#8CCCDC"/>
<path d="M167.149 190.402H153.489V204.062H167.149V190.402Z" fill="#8CCCDC"/>
<path d="M195.989 190.402H182.329V204.062H195.989V190.402Z" fill="#8CCCDC"/>
<path d="M107.839 197.232C107.839 204.312 102.099 210.052 95.0192 210.052C87.9392 210.052 82.1992 204.312 82.1992 197.232C82.1992 190.152 87.9392 184.412 95.0192 184.412C102.099 184.412 107.839 190.152 107.839 197.232Z" fill="#CDDAE2"/>
<path d="M79.6592 198.681C80.2192 198.541 110.779 189.571 110.779 189.571L82.2092 204.711L79.6692 198.681H79.6592Z" fill="#8CCCDC"/>
<path d="M62.6191 173.802H218.619V183.192L62.6191 178.502V173.802Z" fill="#CDDAE2"/>
<path d="M37.6874 0.181641H243.551C262.826 0.181641 278.476 15.8317 278.476 35.1069V139.266C278.476 158.541 262.826 174.191 243.551 174.191H37.6874C18.4122 174.191 2.76221 158.541 2.76221 139.266V35.1069C2.76221 15.8317 18.4122 0.181641 37.6874 0.181641Z" fill="#D9E7F3"/>
<path d="M52.0625 22.7168H229.165C244.533 22.7168 257.007 35.1908 257.007 50.5588V125.884C257.007 141.252 244.533 153.726 229.165 153.726H52.0729C36.705 153.726 24.231 141.252 24.231 125.884V50.5692C24.231 35.2013 36.705 22.7272 52.0729 22.7272L52.0625 22.7168Z" fill="#3A3E48"/>
<path d="M39.8082 144.615V69.2901C39.8082 53.9117 52.2718 41.4481 67.6502 41.4481H244.752C249.004 41.4481 253.027 42.3988 256.631 44.1017C253.716 31.847 242.694 22.7266 229.552 22.7266H52.4494C37.071 22.7266 24.6074 35.1902 24.6074 50.5685V125.893C24.6074 137.02 31.137 146.631 40.5813 151.082C40.0903 149.003 39.8187 146.84 39.8187 144.604L39.8082 144.615Z" fill="#363A44"/>
<path d="M12.8438 45.11C12.8438 27.424 24.0192 17.5218 40.3638 13.75" stroke="white" stroke-width="4" stroke-linecap="round"/>
<path d="M264.866 133.448C264.507 151.131 253.133 160.804 236.715 164.243" stroke="white" stroke-width="4" stroke-linecap="round"/>
<path d="M52.7754 12.4856C55.4085 12.0906 57.991 11.8654 60.6509 11.8456C64.0512 11.8202 67.2978 11.2169 70.6954 11.6856" stroke="white" stroke-width="4" stroke-linecap="round"/>
<path d="M75.769 125.033L217.191 125.033V55.0347L75.769 55.0347V125.033ZM213.164 58.7448V93.6362L157.39 93.6362V58.7448L213.164 58.7448Z" fill="#6A797F"/>
<g opacity="0.1">
<path d="M75.769 124.81L217.191 124.81V55.0348L75.769 55.0348V124.81ZM213.164 58.7286V93.5061L157.39 93.5061V58.7286L213.164 58.7286Z" fill="#6A797F"/>
</g>
<g opacity="0.1">
<path d="M152.358 96.9398H153.196V94.743H154.294V96.9398H155.132V94.743H156.23V96.9398H157.068V94.743H158.162V96.9398H159.004V94.743H160.099V96.9398H160.937V94.743H162.035V96.9398H162.873V94.743H163.971V96.9398H164.809V94.743H165.908V96.9398H166.746V94.743H167.84V96.9398H168.666V106.06H167.84V108.253H166.746V106.06H165.908V108.253H164.809V106.06H163.971V108.253H162.873V106.06H162.035V108.253H160.937V106.06H160.099V108.253H159.004V106.06H158.162V108.253H157.068V106.06H156.23V108.253H155.132V106.06H154.294V108.253H153.196V106.06H152.358V108.253H151.259V106.06H150.434V102.724C151.109 102.724 151.658 102.175 151.658 101.496C151.658 100.817 151.109 100.267 150.434 100.267V96.9357H151.259V94.739H152.358V96.9357V96.9398Z" fill="black"/>
</g>
<g opacity="0.1">
<path d="M104.553 70.0051H105.391V67.8124H106.489V70.0051H107.327V67.8124H108.425V70.0051H109.263V67.8124H110.365V70.0051H111.203V67.8124H112.302V70.0051H113.14V67.8124H114.234V70.0051H115.072V67.8124H116.17V70.0051H117.008V67.8124H118.107V70.0051H118.949V67.8124H120.047V70.0051H120.885V67.8124H121.983V70.0051H122.821V67.8124H123.915V70.0051H124.757V67.8124H125.852V70.0051H126.69V67.8124H127.792V70.0051H128.63V67.8124H129.728V70.0051H130.566V67.8124H131.665V70.0051H132.503V67.8124H133.597V70.0051H134.26V70.6682H136.456V71.7625H134.26V72.6005H136.456V73.6988H134.26V74.5409H136.456V75.6393H134.26V76.4773H136.456V77.5757H134.26V78.4137H136.456V79.508H134.26V80.3501H136.456V81.4444H134.26V82.2864H136.456V83.3848H134.26V84.2228H136.456V85.3212H134.26V86.1592H136.456V87.2576H134.26V88.0956H136.456V89.1899H134.26V90.032H136.456V91.1303H134.26V91.9683H136.456V93.0667H134.26V93.9047H136.456V95.0031H134.26V95.8411H136.456V96.9395H134.26V97.7775H136.456V98.8758H134.26V99.7179H136.456V100.812H134.26V101.475H133.597V103.668H132.503V101.475H131.665V103.668H130.566V101.475H129.728V103.668H128.63V101.475H127.792V103.668H126.69V101.475H125.852V103.668H124.757V101.475H123.915V103.668H122.821V101.475H121.983V103.668H120.885V101.475H120.047V103.668H118.949V101.475H118.107V103.668H117.008V101.475H116.17V103.668H115.072V101.475H114.234V103.668H113.14V101.475H112.302V103.668H111.203V101.475H110.365V103.668H109.263V101.475H108.425V103.668H107.327V101.475H106.489V103.668H105.391V101.475H104.553V103.668H103.458V101.475H102.795V100.812H100.599V99.7179H102.795V98.8758H100.599V97.7775H102.795V96.9395H100.599V95.8411H102.795V95.0031H100.599V93.9047H102.795V93.0667H100.599V91.9683H102.795V91.1303H100.599V90.032H102.795V89.1899H100.599V88.0956H102.795V87.2576H100.599V86.1592H102.795V85.3212H100.599V84.2228H102.795V83.3848H100.599V82.2864H102.795V81.4444H100.599V80.3501H102.795V79.508H100.599V78.4137H102.795V77.5757H100.599V76.4773H102.795V75.6393H100.599V74.5409H102.795V73.6988H100.599V72.6005H102.795V71.7625H100.599V70.6682H102.795V70.0051H103.458V67.8124H104.553V70.0051Z" fill="black"/>
</g>
<path d="M102.405 70.3911V101.861H133.874V70.3911H102.405Z" fill="#37474F"/>
<path d="M133.875 100.1V101.198H136.071V100.1H133.875Z" fill="#EBEBEB"/>
<path d="M133.875 98.1643V99.2627H136.071V98.1643H133.875Z" fill="#EBEBEB"/>
<path d="M133.875 96.2259V97.3242H136.071V96.2259H133.875Z" fill="#EBEBEB"/>
<path d="M133.875 94.2913V95.3896H136.071V94.2913H133.875Z" fill="#EBEBEB"/>
<path d="M133.875 92.3557V93.4541H136.071V92.3557H133.875Z" fill="#EBEBEB"/>
<path d="M133.875 90.4173V91.5156H136.071V90.4173H133.875Z" fill="#EBEBEB"/>
<path d="M133.875 88.4817V89.5801H136.071V88.4817H133.875Z" fill="#EBEBEB"/>
<path d="M133.875 86.5452V87.6436H136.071V86.5452H133.875Z" fill="#EBEBEB"/>
<path d="M133.875 84.6087V85.707H136.071V84.6087H133.875Z" fill="#EBEBEB"/>
<path d="M133.875 82.6731V83.7715H136.071V82.6731H133.875Z" fill="#EBEBEB"/>
<path d="M133.875 80.7366V81.835H136.071V80.7366H133.875Z" fill="#EBEBEB"/>
<path d="M133.875 78.8001V79.8984H136.071V78.8001H133.875Z" fill="#EBEBEB"/>
<path d="M133.875 76.8645V77.9629H136.071V76.8645H133.875Z" fill="#EBEBEB"/>
<path d="M133.875 74.928V76.0264H136.071V74.928H133.875Z" fill="#EBEBEB"/>
<path d="M133.875 72.9905V74.0889H136.071V72.9905H133.875Z" fill="#EBEBEB"/>
<path d="M133.875 71.0559V72.1543H136.071V71.0559H133.875Z" fill="#EBEBEB"/>
<path d="M104.166 101.861H103.068V104.054H104.166V101.861Z" fill="#EBEBEB"/>
<path d="M106.103 101.861H105.005V104.054H106.103V101.861Z" fill="#EBEBEB"/>
<path d="M108.039 101.861H106.941V104.054H108.039V101.861Z" fill="#EBEBEB"/>
<path d="M109.976 101.861H108.878V104.054H109.976V101.861Z" fill="#EBEBEB"/>
<path d="M111.912 101.861H110.814V104.054H111.912V101.861Z" fill="#EBEBEB"/>
<path d="M113.848 101.861H112.75V104.054H113.848V101.861Z" fill="#EBEBEB"/>
<path d="M115.785 101.861H114.687V104.054H115.785V101.861Z" fill="#EBEBEB"/>
<path d="M117.721 101.861H116.623V104.054H117.721V101.861Z" fill="#EBEBEB"/>
<path d="M119.657 101.861H118.559V104.054H119.657V101.861Z" fill="#EBEBEB"/>
<path d="M121.593 101.861H120.495V104.054H121.593V101.861Z" fill="#EBEBEB"/>
<path d="M123.53 101.861H122.432V104.054H123.53V101.861Z" fill="#EBEBEB"/>
<path d="M125.466 101.861H124.368V104.054H125.466V101.861Z" fill="#EBEBEB"/>
<path d="M127.402 101.861H126.304V104.054H127.402V101.861Z" fill="#EBEBEB"/>
<path d="M129.339 101.861H128.24V104.054H129.339V101.861Z" fill="#EBEBEB"/>
<path d="M131.275 101.861H130.176V104.054H131.275V101.861Z" fill="#EBEBEB"/>
<path d="M133.212 101.861H132.113V104.054H133.212V101.861Z" fill="#EBEBEB"/>
<path d="M102.405 72.1531V71.0547H100.209V72.1531H102.405Z" fill="#EBEBEB"/>
<path d="M102.405 74.0886V72.9902H100.209V74.0886H102.405Z" fill="#EBEBEB"/>
<path d="M102.405 76.0251V74.9268H100.209V76.0251H102.405Z" fill="#EBEBEB"/>
<path d="M102.405 77.9616V76.8633H100.209V77.9616H102.405Z" fill="#EBEBEB"/>
<path d="M102.405 79.8972V78.7988H100.209V79.8972H102.405Z" fill="#EBEBEB"/>
<path d="M102.405 81.8357V80.7373H100.209V81.8357H102.405Z" fill="#EBEBEB"/>
<path d="M102.405 83.7712V82.6729H100.209V83.7712H102.405Z" fill="#EBEBEB"/>
<path d="M102.405 85.7077V84.6094H100.209V85.7077H102.405Z" fill="#EBEBEB"/>
<path d="M102.405 87.6482V86.5498H100.209V87.6482H102.405Z" fill="#EBEBEB"/>
<path d="M102.405 89.5847V88.4863H100.209V89.5847H102.405Z" fill="#EBEBEB"/>
<path d="M102.405 91.5212V90.4229H100.209V91.5212H102.405Z" fill="#EBEBEB"/>
<path d="M102.405 93.4568V92.3584H100.209V93.4568H102.405Z" fill="#EBEBEB"/>
<path d="M102.405 95.3933V94.2949H100.209V95.3933H102.405Z" fill="#EBEBEB"/>
<path d="M102.405 97.3308V96.2324H100.209V97.3308H102.405Z" fill="#EBEBEB"/>
<path d="M102.405 99.2654V98.167H100.209V99.2654H102.405Z" fill="#EBEBEB"/>
<path d="M102.405 101.203V100.104H100.209V101.203H102.405Z" fill="#EBEBEB"/>
<path d="M132.117 70.3916H133.215V68.1949H132.117V70.3916Z" fill="#EBEBEB"/>
<path d="M130.18 70.3916H131.279V68.1949H130.18V70.3916Z" fill="#EBEBEB"/>
<path d="M128.243 70.3916H129.342V68.1949H128.243V70.3916Z" fill="#EBEBEB"/>
<path d="M126.307 70.3955H127.406V68.1988H126.307V70.3955Z" fill="#EBEBEB"/>
<path d="M124.371 70.3955H125.47V68.1988H124.371V70.3955Z" fill="#EBEBEB"/>
<path d="M122.431 70.3955H123.53V68.1988H122.431V70.3955Z" fill="#EBEBEB"/>
<path d="M120.494 70.3955H121.593V68.1988H120.494V70.3955Z" fill="#EBEBEB"/>
<path d="M118.558 70.3955H119.657V68.1988H118.558V70.3955Z" fill="#EBEBEB"/>
<path d="M116.622 70.3955H117.721V68.1988H116.622V70.3955Z" fill="#EBEBEB"/>
<path d="M114.686 70.3955H115.784V68.1988H114.686V70.3955Z" fill="#EBEBEB"/>
<path d="M112.75 70.3955H113.848V68.1988H112.75V70.3955Z" fill="#EBEBEB"/>
<path d="M110.814 70.3955H111.912V68.1988H110.814V70.3955Z" fill="#EBEBEB"/>
<path d="M108.878 70.3955H109.976V68.1988H108.878V70.3955Z" fill="#EBEBEB"/>
<path d="M106.941 70.3955H108.039V68.1988H106.941V70.3955Z" fill="#EBEBEB"/>
<path d="M105.005 70.3955H106.103V68.1988H105.005V70.3955Z" fill="#EBEBEB"/>
<path d="M103.069 70.3955H104.167V68.1988H103.069V70.3955Z" fill="#EBEBEB"/>
<path d="M105.005 98.4654C105.611 98.4654 106.103 98.9576 106.103 99.5637C106.103 100.17 105.611 100.662 105.005 100.662C104.399 100.662 103.907 100.17 103.907 99.5637C103.907 98.9576 104.399 98.4654 105.005 98.4654Z" fill="#263238"/>
<path d="M103.813 66.8029V68.1982H103.422V66.9616L98.6304 62.1694L98.9029 61.8969L103.813 66.8029Z" fill="white"/>
<path d="M105.749 66.3798V68.1982H105.358V66.5426L98.5854 59.7693L98.8621 59.4927L105.749 66.3798Z" fill="white"/>
<path d="M115.492 114.439H107.657V116.876H115.492V114.439Z" fill="#6A797F"/>
<path opacity="0.2" d="M115.492 114.439H107.657V116.876H115.492V114.439Z" fill="black"/>
<path opacity="0.2" d="M109.304 114.439H107.653V116.876H109.304V114.439Z" fill="black"/>
<path opacity="0.2" d="M115.492 114.439H113.84V116.876H115.492V114.439Z" fill="black"/>
<path d="M133.158 114.444H125.323V116.881H133.158V114.444Z" fill="#6A797F"/>
<path opacity="0.2" d="M133.158 114.444H125.323V116.881H133.158V114.444Z" fill="black"/>
<path opacity="0.2" d="M126.975 114.444H125.323V116.881H126.975V114.444Z" fill="black"/>
<path opacity="0.2" d="M133.158 114.444H131.507V116.881H133.158V114.444Z" fill="black"/>
<path d="M150.043 97.3258H168.284V106.446H150.043V103.111C150.719 103.111 151.268 102.561 151.268 101.882C151.268 101.203 150.719 100.653 150.043 100.653V97.3217V97.3258Z" fill="#37474F"/>
<path d="M151.968 106.442H150.87V108.635H151.968V106.442Z" fill="#EBEBEB"/>
<path d="M153.904 106.446H152.806V108.639H153.904V106.446Z" fill="#EBEBEB"/>
<path d="M155.84 106.446H154.742V108.639H155.84V106.446Z" fill="#EBEBEB"/>
<path d="M157.777 106.446H156.678V108.639H157.777V106.446Z" fill="#EBEBEB"/>
<path d="M159.713 106.446H158.614V108.639H159.713V106.446Z" fill="#EBEBEB"/>
<path d="M161.65 106.446H160.551V108.639H161.65V106.446Z" fill="#EBEBEB"/>
<path d="M163.586 106.446H162.487V108.639H163.586V106.446Z" fill="#EBEBEB"/>
<path d="M165.522 106.446H164.423V108.639H165.522V106.446Z" fill="#EBEBEB"/>
<path d="M167.458 106.446H166.359V108.639H167.458V106.446Z" fill="#EBEBEB"/>
<path d="M151.972 95.1299H150.874V97.3266H151.972V95.1299Z" fill="#EBEBEB"/>
<path d="M153.908 95.1328H152.81V97.3295H153.908V95.1328Z" fill="#EBEBEB"/>
<path d="M155.844 95.1328H154.746V97.3295H155.844V95.1328Z" fill="#EBEBEB"/>
<path d="M157.78 95.1328H156.682V97.3295H157.78V95.1328Z" fill="#EBEBEB"/>
<path d="M159.717 95.1328H158.619V97.3295H159.717V95.1328Z" fill="#EBEBEB"/>
<path d="M161.653 95.1328H160.555V97.3295H161.653V95.1328Z" fill="#EBEBEB"/>
<path d="M163.59 95.1328H162.491V97.3295H163.59V95.1328Z" fill="#EBEBEB"/>
<path d="M165.526 95.1328H164.427V97.3295H165.526V95.1328Z" fill="#EBEBEB"/>
<path d="M167.462 95.1328H166.363V97.3295H167.462V95.1328Z" fill="#EBEBEB"/>
<path d="M99.0495 61.7035C99.0495 62.1062 98.7241 62.4316 98.3214 62.4316C97.9187 62.4316 97.5933 62.1062 97.5933 61.7035C97.5933 61.3007 97.9187 60.9753 98.3214 60.9753C98.7241 60.9753 99.0495 61.3007 99.0495 61.7035ZM97.9838 61.7035C97.9838 61.8906 98.1343 62.0411 98.3214 62.0411C98.5085 62.0411 98.659 61.8906 98.659 61.7035C98.659 61.5163 98.5085 61.3658 98.3214 61.3658C98.1343 61.3658 97.9838 61.5163 97.9838 61.7035Z" fill="white"/>
<path d="M99.0862 59.3021C99.0862 59.7048 98.7607 60.0303 98.358 60.0303C97.9553 60.0303 97.6299 59.7048 97.6299 59.3021C97.6299 58.8994 97.9553 58.5739 98.358 58.5739C98.7607 58.5739 99.0862 58.8994 99.0862 59.3021ZM98.0204 59.3021C98.0204 59.4892 98.1709 59.6397 98.358 59.6397C98.5451 59.6397 98.6957 59.4892 98.6957 59.3021C98.6957 59.115 98.5451 58.9645 98.358 58.9645C98.1709 58.9645 98.0204 59.115 98.0204 59.3021Z" fill="white"/>
<path d="M198.052 120.008C198.052 119.609 198.377 119.28 198.78 119.28C199.183 119.28 199.508 119.605 199.508 120.008C199.508 120.411 199.183 120.736 198.78 120.736C198.377 120.736 198.052 120.411 198.052 120.008ZM199.118 120.008C199.118 119.821 198.967 119.671 198.78 119.671C198.593 119.671 198.442 119.821 198.442 120.008C198.442 120.195 198.593 120.346 198.78 120.346C198.967 120.346 199.118 120.195 199.118 120.008Z" fill="white"/>
<path d="M131.453 109.327C131.453 109.729 131.128 110.055 130.725 110.055C130.322 110.055 129.997 109.729 129.997 109.327C129.997 108.924 130.322 108.598 130.725 108.598C131.128 108.598 131.453 108.924 131.453 109.327ZM130.388 109.327C130.388 109.514 130.538 109.664 130.725 109.664C130.912 109.664 131.063 109.514 131.063 109.327C131.063 109.139 130.912 108.989 130.725 108.989C130.538 108.989 130.388 109.139 130.388 109.327Z" fill="white"/>
<path d="M135.521 109.327C135.521 109.729 135.196 110.055 134.793 110.055C134.39 110.055 134.065 109.729 134.065 109.327C134.065 108.924 134.39 108.598 134.793 108.598C135.196 108.598 135.521 108.924 135.521 109.327ZM134.455 109.327C134.455 109.514 134.606 109.664 134.793 109.664C134.98 109.664 135.131 109.514 135.131 109.327C135.131 109.139 134.98 108.989 134.793 108.989C134.606 108.989 134.455 109.139 134.455 109.327Z" fill="white"/>
<path d="M146.46 97.3255C146.46 97.7283 146.134 98.0537 145.732 98.0537C145.329 98.0537 145.003 97.7283 145.003 97.3255C145.003 96.9228 145.329 96.5974 145.732 96.5974C146.134 96.5974 146.46 96.9228 146.46 97.3255ZM145.394 97.3255C145.394 97.5127 145.544 97.6632 145.732 97.6632C145.919 97.6632 146.069 97.5127 146.069 97.3255C146.069 97.1384 145.919 96.9879 145.732 96.9879C145.544 96.9879 145.394 97.1384 145.394 97.3255Z" fill="white"/>
<path d="M146.46 93.7289C146.46 94.1316 146.134 94.457 145.732 94.457C145.329 94.457 145.003 94.1316 145.003 93.7289C145.003 93.3261 145.329 93.0007 145.732 93.0007C146.134 93.0007 146.46 93.3261 146.46 93.7289ZM145.394 93.7289C145.394 93.916 145.544 94.0665 145.732 94.0665C145.919 94.0665 146.069 93.916 146.069 93.7289C146.069 93.5417 145.919 93.3912 145.732 93.3912C145.544 93.3912 145.394 93.5417 145.394 93.7289Z" fill="white"/>
<path d="M149.78 88.1761C149.78 88.5748 149.454 88.9043 149.051 88.9043C148.649 88.9043 148.323 88.5789 148.323 88.1761C148.323 87.7734 148.649 87.4479 149.051 87.4479C149.454 87.4479 149.78 87.7734 149.78 88.1761ZM148.714 88.1761C148.714 88.3632 148.864 88.5138 149.051 88.5138C149.239 88.5138 149.389 88.3632 149.389 88.1761C149.389 87.989 149.239 87.8385 149.051 87.8385C148.864 87.8385 148.714 87.989 148.714 88.1761Z" fill="white"/>
<path d="M149.78 85.3705C149.78 85.7732 149.454 86.0986 149.051 86.0986C148.649 86.0986 148.323 85.7732 148.323 85.3705C148.323 84.9677 148.649 84.6423 149.051 84.6423C149.454 84.6423 149.78 84.9677 149.78 85.3705ZM148.714 85.3705C148.714 85.5576 148.864 85.7081 149.051 85.7081C149.239 85.7081 149.389 85.5576 149.389 85.3705C149.389 85.1833 149.239 85.0328 149.051 85.0328C148.864 85.0328 148.714 85.1833 148.714 85.3705Z" fill="white"/>
<path d="M149.78 82.5638C149.78 82.9665 149.454 83.292 149.051 83.292C148.649 83.292 148.323 82.9665 148.323 82.5638C148.323 82.1611 148.649 81.8356 149.051 81.8356C149.454 81.8356 149.78 82.1611 149.78 82.5638ZM148.714 82.5638C148.714 82.7509 148.864 82.9015 149.051 82.9015C149.239 82.9015 149.389 82.7509 149.389 82.5638C149.389 82.3767 149.239 82.2262 149.051 82.2262C148.864 82.2262 148.714 82.3767 148.714 82.5638Z" fill="white"/>
<path d="M152.147 113.822C152.147 114.224 151.821 114.55 151.419 114.55C151.016 114.55 150.69 114.224 150.69 113.822C150.69 113.419 151.016 113.093 151.419 113.093C151.821 113.093 152.147 113.419 152.147 113.822ZM151.081 113.822C151.081 114.009 151.231 114.159 151.419 114.159C151.606 114.159 151.756 114.009 151.756 113.822C151.756 113.634 151.606 113.484 151.419 113.484C151.231 113.484 151.081 113.634 151.081 113.822Z" fill="white"/>
<path d="M161.828 113.822C161.828 114.224 161.502 114.55 161.1 114.55C160.697 114.55 160.372 114.224 160.372 113.822C160.372 113.419 160.697 113.093 161.1 113.093C161.502 113.093 161.828 113.419 161.828 113.822ZM160.762 113.822C160.762 114.009 160.913 114.159 161.1 114.159C161.287 114.159 161.437 114.009 161.437 113.822C161.437 113.634 161.287 113.484 161.1 113.484C160.913 113.484 160.762 113.634 160.762 113.822Z" fill="white"/>
<path d="M170.118 115.801C170.118 116.204 169.792 116.529 169.39 116.529C168.987 116.529 168.662 116.204 168.662 115.801C168.662 115.398 168.987 115.073 169.39 115.073C169.792 115.073 170.118 115.398 170.118 115.801ZM169.052 115.801C169.052 115.988 169.203 116.139 169.39 116.139C169.577 116.139 169.727 115.988 169.727 115.801C169.727 115.614 169.577 115.463 169.39 115.463C169.203 115.463 169.052 115.614 169.052 115.801Z" fill="white"/>
<path d="M170.118 112.97C170.118 113.373 169.792 113.698 169.39 113.698C168.987 113.698 168.662 113.373 168.662 112.97C168.662 112.567 168.987 112.242 169.39 112.242C169.792 112.242 170.118 112.567 170.118 112.97ZM169.052 112.97C169.052 113.157 169.203 113.308 169.39 113.308C169.577 113.308 169.727 113.157 169.727 112.97C169.727 112.783 169.577 112.632 169.39 112.632C169.203 112.632 169.052 112.783 169.052 112.97Z" fill="white"/>
<path d="M94.5421 77.3835C94.5421 78.2134 93.8668 78.8887 93.0329 78.8887C92.199 78.8887 91.5278 78.2134 91.5278 77.3835C91.5278 76.5536 92.2031 75.8743 93.0329 75.8743C93.8628 75.8743 94.5421 76.5496 94.5421 77.3835ZM92.3048 77.3835C92.3048 77.7862 92.6343 78.1157 93.037 78.1157C93.4397 78.1157 93.7692 77.7862 93.7692 77.3835C93.7692 76.9808 93.4397 76.6513 93.037 76.6513C92.6343 76.6513 92.3048 76.9808 92.3048 77.3835Z" fill="white"/>
<path d="M90.893 77.3835C90.893 78.2134 90.2177 78.8887 89.3879 78.8887C88.5581 78.8887 87.8828 78.2134 87.8828 77.3835C87.8828 76.5536 88.5581 75.8743 89.3879 75.8743C90.2177 75.8743 90.893 76.5496 90.893 77.3835ZM88.6557 77.3835C88.6557 77.7862 88.9852 78.1157 89.3879 78.1157C89.7906 78.1157 90.1201 77.7862 90.1201 77.3835C90.1201 76.9808 89.7906 76.6513 89.3879 76.6513C88.9852 76.6513 88.6557 76.9808 88.6557 77.3835Z" fill="white"/>
<path d="M94.5421 73.7954C94.5421 74.6253 93.8668 75.3047 93.0329 75.3047C92.199 75.3047 91.5278 74.6294 91.5278 73.7954C91.5278 72.9615 92.2031 72.2903 93.0329 72.2903C93.8628 72.2903 94.5421 72.9656 94.5421 73.7954ZM92.3048 73.7954C92.3048 74.1982 92.6343 74.5277 93.037 74.5277C93.4397 74.5277 93.7692 74.1982 93.7692 73.7954C93.7692 73.3927 93.4397 73.0632 93.037 73.0632C92.6343 73.0632 92.3048 73.3927 92.3048 73.7954Z" fill="white"/>
<path d="M90.893 73.7954C90.893 74.6253 90.2177 75.3047 89.3879 75.3047C88.5581 75.3047 87.8828 74.6294 87.8828 73.7954C87.8828 72.9615 88.5581 72.2903 89.3879 72.2903C90.2177 72.2903 90.893 72.9656 90.893 73.7954ZM88.6557 73.7954C88.6557 74.1982 88.9852 74.5277 89.3879 74.5277C89.7906 74.5277 90.1201 74.1982 90.1201 73.7954C90.1201 73.3927 89.7906 73.0632 89.3879 73.0632C88.9852 73.0632 88.6557 73.3927 88.6557 73.7954Z" fill="white"/>
<path d="M94.5421 70.2038C94.5421 71.0337 93.8668 71.709 93.0329 71.709C92.199 71.709 91.5278 71.0337 91.5278 70.2038C91.5278 69.3739 92.2031 68.6986 93.0329 68.6986C93.8628 68.6986 94.5421 69.3739 94.5421 70.2038ZM92.3048 70.2038C92.3048 70.6066 92.6343 70.9361 93.037 70.9361C93.4397 70.9361 93.7692 70.6066 93.7692 70.2038C93.7692 69.8011 93.4397 69.4716 93.037 69.4716C92.6343 69.4716 92.3048 69.8011 92.3048 70.2038Z" fill="white"/>
<path d="M90.893 70.2038C90.893 71.0337 90.2177 71.709 89.3879 71.709C88.5581 71.709 87.8828 71.0337 87.8828 70.2038C87.8828 69.3739 88.5581 68.6986 89.3879 68.6986C90.2177 68.6986 90.893 69.3739 90.893 70.2038ZM88.6557 70.2038C88.6557 70.6066 88.9852 70.9361 89.3879 70.9361C89.7906 70.9361 90.1201 70.6066 90.1201 70.2038C90.1201 69.8011 89.7906 69.4716 89.3879 69.4716C88.9852 69.4716 88.6557 69.8011 88.6557 70.2038Z" fill="white"/>
<path d="M94.5421 66.612C94.5421 67.4419 93.8668 68.1172 93.0329 68.1172C92.199 68.1172 91.5278 67.4419 91.5278 66.612C91.5278 65.7821 92.2031 65.1028 93.0329 65.1028C93.8628 65.1028 94.5421 65.7781 94.5421 66.612ZM92.3048 66.612C92.3048 67.0148 92.6343 67.3443 93.037 67.3443C93.4397 67.3443 93.7692 67.0148 93.7692 66.612C93.7692 66.2093 93.4397 65.8798 93.037 65.8798C92.6343 65.8798 92.3048 66.2093 92.3048 66.612Z" fill="white"/>
<path d="M90.893 66.612C90.893 67.4419 90.2177 68.1172 89.3879 68.1172C88.5581 68.1172 87.8828 67.4419 87.8828 66.612C87.8828 65.7821 88.5581 65.1028 89.3879 65.1028C90.2177 65.1028 90.893 65.7781 90.893 66.612ZM88.6557 66.612C88.6557 67.0148 88.9852 67.3443 89.3879 67.3443C89.7906 67.3443 90.1201 67.0148 90.1201 66.612C90.1201 66.2093 89.7906 65.8798 89.3879 65.8798C88.9852 65.8798 88.6557 66.2093 88.6557 66.612Z" fill="white"/>
<path d="M151.614 90.5726V95.1328H151.228V90.7312L149.173 88.6809L149.45 88.4043L151.614 90.5726Z" fill="white"/>
<path d="M153.55 89.4986V95.1328H153.164V89.6613L149.312 85.813L149.588 85.5363L153.55 89.4986Z" fill="white"/>
<path d="M151.96 59.9046V73.622L144.125 81.457H136.067V81.0665H143.967L151.573 73.4593V59.9046H151.96Z" fill="white"/>
<path d="M146.753 59.9042V70.6763L141.733 75.6963H136.067V75.3058H141.575L146.363 70.5177V59.9042H146.753Z" fill="white"/>
<path d="M144.825 59.905V69.3835L140.472 73.7363H136.067V73.3458H140.314L144.434 69.2249V59.905H144.825Z" fill="white"/>
<path d="M151.227 108.639V113.415H151.613V108.639H151.227Z" fill="white"/>
<path d="M169.203 115.334L168.93 115.61L164.781 111.461V108.638H165.168V111.298L169.203 115.334Z" fill="white"/>
<path d="M169.146 112.519L168.873 112.796L166.827 110.75V108.638H167.214V110.591L169.146 112.519Z" fill="white"/>
<path d="M160.909 108.639V113.415H161.295V108.639H160.909Z" fill="white"/>
<path d="M117.289 63.7441C116.886 63.7441 116.561 63.4187 116.561 63.016C116.561 62.6132 116.886 62.2878 117.289 62.2878C117.692 62.2878 118.017 62.6132 118.017 63.016C118.017 63.4187 117.692 63.7441 117.289 63.7441ZM117.289 63.3577C117.476 63.3577 117.627 63.2072 117.627 63.02C117.627 62.8329 117.476 62.6824 117.289 62.6824C117.102 62.6824 116.952 62.8329 116.952 63.02C116.952 63.2072 117.102 63.3577 117.289 63.3577Z" fill="white"/>
<path d="M125.579 61.7617C125.176 61.7617 124.851 61.4363 124.851 61.0335C124.851 60.6308 125.176 60.3054 125.579 60.3054C125.982 60.3054 126.307 60.6308 126.307 61.0335C126.307 61.4363 125.982 61.7617 125.579 61.7617ZM125.579 61.3753C125.766 61.3753 125.917 61.2247 125.917 61.0376C125.917 60.8505 125.766 60.7 125.579 60.7C125.392 60.7 125.242 60.8505 125.242 61.0376C125.242 61.2247 125.392 61.3753 125.579 61.3753Z" fill="white"/>
<path d="M144.613 60.0264C144.21 60.0264 143.885 59.7009 143.885 59.2982C143.885 58.8955 144.21 58.57 144.613 58.57C145.016 58.57 145.341 58.8955 145.341 59.2982C145.341 59.7009 145.016 60.0264 144.613 60.0264ZM144.613 59.6399C144.8 59.6399 144.951 59.4894 144.951 59.3023C144.951 59.1151 144.8 58.9646 144.613 58.9646C144.426 58.9646 144.275 59.1151 144.275 59.3023C144.275 59.4894 144.426 59.6399 144.613 59.6399Z" fill="white"/>
<path d="M146.508 60.0264C146.106 60.0264 145.78 59.7009 145.78 59.2982C145.78 58.8955 146.106 58.57 146.508 58.57C146.911 58.57 147.237 58.8955 147.237 59.2982C147.237 59.7009 146.911 60.0264 146.508 60.0264ZM146.508 59.6399C146.696 59.6399 146.846 59.4894 146.846 59.3023C146.846 59.1151 146.696 58.9646 146.508 58.9646C146.321 58.9646 146.171 59.1151 146.171 59.3023C146.171 59.4894 146.321 59.6399 146.508 59.6399Z" fill="white"/>
<path d="M151.723 60.0264C151.321 60.0264 150.995 59.7009 150.995 59.2982C150.995 58.8955 151.321 58.57 151.723 58.57C152.126 58.57 152.451 58.8955 152.451 59.2982C152.451 59.7009 152.126 60.0264 151.723 60.0264ZM151.723 59.6399C151.91 59.6399 152.061 59.4894 152.061 59.3023C152.061 59.1151 151.91 58.9646 151.723 58.9646C151.536 58.9646 151.386 59.1151 151.386 59.3023C151.386 59.4894 151.536 59.6399 151.723 59.6399Z" fill="white"/>
<path d="M125.579 64.5947C125.176 64.5947 124.851 64.2693 124.851 63.8666C124.851 63.4638 125.176 63.1384 125.579 63.1384C125.982 63.1384 126.307 63.4638 126.307 63.8666C126.307 64.2693 125.982 64.5947 125.579 64.5947ZM125.579 64.2083C125.766 64.2083 125.917 64.0577 125.917 63.8706C125.917 63.6835 125.766 63.533 125.579 63.533C125.392 63.533 125.242 63.6835 125.242 63.8706C125.242 64.0577 125.392 64.2083 125.579 64.2083Z" fill="white"/>
<path d="M125.393 61.5023L125.116 61.2297L120.967 65.3791V68.1982H121.357V65.5378L125.393 61.5023Z" fill="white"/>
<path d="M125.335 64.3174L125.059 64.0448L123.013 66.0869V68.1982H123.403V66.2497L125.335 64.3174Z" fill="white"/>
<path d="M117.095 63.4224V68.1982H117.481V63.4224H117.095Z" fill="white"/>
<path d="M155.486 88.628V95.1328H155.1V88.7908L149.405 83.0915L149.677 82.8189L155.486 88.628Z" fill="white"/>
<path d="M125.323 115.465V115.852H123.143L120.833 113.545V104.058H121.219V113.382L123.302 115.465H125.323Z" fill="white"/>
<path d="M143.579 100.853V107.606L135.33 115.852H133.21V115.465H135.171L143.189 107.443V101.011L141.11 98.9327H136.066V98.5462H141.273L143.579 100.853Z" fill="white"/>
<path d="M107.657 115.465V115.852H105.636L103.423 113.639V104.058H103.813V113.48L105.798 115.465H107.657Z" fill="white"/>
<path d="M119.279 104.058V113.447L116.871 115.852H115.492V115.465H116.708L118.888 113.285V104.058H119.279Z" fill="white"/>
<path d="M130.534 104.059V108.961H130.921V104.059H130.534Z" fill="white"/>
<path d="M134.537 108.798L134.26 109.07L132.47 107.28V104.059H132.857V107.118L134.537 108.798Z" fill="white"/>
<path d="M145.586 96.9218L145.313 97.1943L141.217 93.0978H136.067V92.7114H141.375L145.586 96.9218Z" fill="white"/>
<path d="M145.541 93.2576L145.264 93.5342L142.893 91.1625H136.067V90.7761H143.055L145.541 93.2576Z" fill="white"/>
<g opacity="0.1">
<path d="M186.003 107.964H186.841V105.767H187.936V107.964H188.778V105.767H189.872V107.964H190.71V105.767H191.808V107.964H192.646V105.767H193.744V107.964H194.355V118.024H193.744V120.217H192.646V118.024H191.808V120.217H190.71V118.024H189.872V120.217H188.778V118.024H187.936V120.217H186.841V118.024H186.003V120.217H184.901V118.024H184.295V107.964H184.901V105.767H186.003V107.964Z" fill="black"/>
</g>
<path d="M183.904 108.351V118.415H193.968V108.351H183.904Z" fill="#37474F"/>
<path d="M192.26 108.35H193.358V106.153H192.26V108.35Z" fill="#EBEBEB"/>
<path d="M190.324 108.35H191.422V106.153H190.324V108.35Z" fill="#EBEBEB"/>
<path d="M188.388 108.35H189.486V106.153H188.388V108.35Z" fill="#EBEBEB"/>
<path d="M186.451 108.35H187.549V106.153H186.451V108.35Z" fill="#EBEBEB"/>
<path d="M184.514 108.35H185.613V106.153H184.514V108.35Z" fill="#EBEBEB"/>
<path d="M192.26 120.606H193.358V118.414H192.26V120.606Z" fill="#EBEBEB"/>
<path d="M190.324 120.606H191.422V118.414H190.324V120.606Z" fill="#EBEBEB"/>
<path d="M188.388 120.606H189.486V118.414H188.388V120.606Z" fill="#EBEBEB"/>
<path d="M186.451 120.606H187.549V118.414H186.451V120.606Z" fill="#EBEBEB"/>
<path d="M184.514 120.606H185.613V118.414H184.514V120.606Z" fill="#EBEBEB"/>
<path d="M191.601 101.07C191.601 101.468 191.275 101.798 190.873 101.798C190.47 101.798 190.145 101.472 190.145 101.07C190.145 100.667 190.47 100.341 190.873 100.341C191.275 100.341 191.601 100.667 191.601 101.07ZM190.535 101.07C190.535 101.257 190.686 101.407 190.873 101.407C191.06 101.407 191.21 101.257 191.21 101.07C191.21 100.883 191.06 100.732 190.873 100.732C190.686 100.732 190.535 100.883 190.535 101.07Z" fill="white"/>
<path d="M186.129 101.07C186.129 101.468 185.804 101.798 185.401 101.798C184.998 101.798 184.673 101.472 184.673 101.07C184.673 100.667 184.998 100.341 185.401 100.341C185.804 100.341 186.129 100.667 186.129 101.07ZM185.063 101.07C185.063 101.257 185.214 101.407 185.401 101.407C185.588 101.407 185.739 101.257 185.739 101.07C185.739 100.883 185.588 100.732 185.401 100.732C185.214 100.732 185.063 100.883 185.063 101.07Z" fill="white"/>
<path d="M190.677 101.407V106.158H191.064V101.407H190.677Z" fill="white"/>
<path d="M189.131 104.523V106.158H188.741V104.682L185.604 101.545L185.877 101.268L189.131 104.523Z" fill="white"/>
<path d="M199.346 119.817V120.203H200.749V119.817H199.346Z" fill="white"/>
<path d="M198.052 118.163C198.052 117.761 198.377 117.435 198.78 117.435C199.183 117.435 199.508 117.761 199.508 118.163C199.508 118.566 199.183 118.892 198.78 118.892C198.377 118.892 198.052 118.566 198.052 118.163ZM199.118 118.163C199.118 117.976 198.967 117.826 198.78 117.826C198.593 117.826 198.442 117.976 198.442 118.163C198.442 118.351 198.593 118.501 198.78 118.501C198.967 118.501 199.118 118.351 199.118 118.163Z" fill="white"/>
<path d="M199.346 117.972V118.358H200.749V117.972H199.346Z" fill="white"/>
<path d="M170.325 108.949C170.325 109.351 170 109.677 169.597 109.677C169.195 109.677 168.869 109.351 168.869 108.949C168.869 108.546 169.195 108.22 169.597 108.22C170 108.22 170.325 108.546 170.325 108.949ZM169.26 108.949C169.26 109.136 169.41 109.286 169.597 109.286C169.784 109.286 169.935 109.136 169.935 108.949C169.935 108.761 169.784 108.611 169.597 108.611C169.41 108.611 169.26 108.761 169.26 108.949Z" fill="white"/>
<path d="M170.163 108.757V109.144H171.566V108.757H170.163Z" fill="white"/>
<path d="M170.325 107.102C170.325 107.505 170 107.83 169.597 107.83C169.195 107.83 168.869 107.505 168.869 107.102C168.869 106.699 169.195 106.374 169.597 106.374C170 106.374 170.325 106.699 170.325 107.102ZM169.26 107.102C169.26 107.289 169.41 107.44 169.597 107.44C169.784 107.44 169.935 107.289 169.935 107.102C169.935 106.915 169.784 106.764 169.597 106.764C169.41 106.764 169.26 106.915 169.26 107.102Z" fill="white"/>
<path d="M170.163 106.91V107.297H171.566V106.91H170.163Z" fill="white"/>
<path d="M170.325 105.254C170.325 105.657 170 105.982 169.597 105.982C169.195 105.982 168.869 105.657 168.869 105.254C168.869 104.852 169.195 104.526 169.597 104.526C170 104.526 170.325 104.852 170.325 105.254ZM169.26 105.254C169.26 105.441 169.41 105.592 169.597 105.592C169.784 105.592 169.935 105.441 169.935 105.254C169.935 105.067 169.784 104.917 169.597 104.917C169.41 104.917 169.26 105.067 169.26 105.254Z" fill="white"/>
<path d="M170.163 105.064V105.45H171.566V105.064H170.163Z" fill="white"/>
<path d="M170.325 103.411C170.325 103.814 170 104.14 169.597 104.14C169.195 104.14 168.869 103.814 168.869 103.411C168.869 103.009 169.195 102.683 169.597 102.683C170 102.683 170.325 103.009 170.325 103.411ZM169.26 103.411C169.26 103.599 169.41 103.749 169.597 103.749C169.784 103.749 169.935 103.599 169.935 103.411C169.935 103.224 169.784 103.074 169.597 103.074C169.41 103.074 169.26 103.224 169.26 103.411Z" fill="white"/>
<path d="M170.163 103.217V103.604H171.566V103.217H170.163Z" fill="white"/>
<path d="M170.325 101.564C170.325 101.967 170 102.292 169.597 102.292C169.195 102.292 168.869 101.967 168.869 101.564C168.869 101.161 169.195 100.836 169.597 100.836C170 100.836 170.325 101.161 170.325 101.564ZM169.26 101.564C169.26 101.751 169.41 101.901 169.597 101.901C169.784 101.901 169.935 101.751 169.935 101.564C169.935 101.377 169.784 101.226 169.597 101.226C169.41 101.226 169.26 101.377 169.26 101.564Z" fill="white"/>
<path d="M170.163 101.369V101.756H171.566V101.369H170.163Z" fill="white"/>
<path d="M170.325 99.7171C170.325 100.116 170 100.445 169.597 100.445C169.195 100.445 168.869 100.12 168.869 99.7171C168.869 99.3144 169.195 98.989 169.597 98.989C170 98.989 170.325 99.3144 170.325 99.7171ZM169.26 99.7171C169.26 99.9043 169.41 100.055 169.597 100.055C169.784 100.055 169.935 99.9043 169.935 99.7171C169.935 99.53 169.784 99.3795 169.597 99.3795C169.41 99.3795 169.26 99.53 169.26 99.7171Z" fill="white"/>
<path d="M170.163 99.5256V99.9121H171.566V99.5256H170.163Z" fill="white"/>
<path d="M198.052 112.625C198.052 112.227 198.377 111.897 198.78 111.897C199.183 111.897 199.508 112.223 199.508 112.625C199.508 113.028 199.183 113.354 198.78 113.354C198.377 113.354 198.052 113.028 198.052 112.625ZM199.118 112.625C199.118 112.438 198.967 112.288 198.78 112.288C198.593 112.288 198.442 112.438 198.442 112.625C198.442 112.812 198.593 112.963 198.78 112.963C198.967 112.963 199.118 112.812 199.118 112.625Z" fill="white"/>
<path d="M199.346 112.435V112.821H200.749V112.435H199.346Z" fill="white"/>
<path d="M198.052 116.315C198.052 115.916 198.377 115.587 198.78 115.587C199.183 115.587 199.508 115.912 199.508 116.315C199.508 116.718 199.183 117.043 198.78 117.043C198.377 117.043 198.052 116.718 198.052 116.315ZM199.118 116.315C199.118 116.128 198.967 115.977 198.78 115.977C198.593 115.977 198.442 116.128 198.442 116.315C198.442 116.502 198.593 116.652 198.78 116.652C198.967 116.652 199.118 116.502 199.118 116.315Z" fill="white"/>
<path d="M199.346 116.123V116.51H200.749V116.123H199.346Z" fill="white"/>
<path d="M198.052 110.779C198.052 110.376 198.377 110.05 198.78 110.05C199.183 110.05 199.508 110.376 199.508 110.779C199.508 111.181 199.183 111.507 198.78 111.507C198.377 111.507 198.052 111.181 198.052 110.779ZM199.118 110.779C199.118 110.592 198.967 110.441 198.78 110.441C198.593 110.441 198.442 110.592 198.442 110.779C198.442 110.966 198.593 111.116 198.78 111.116C198.967 111.116 199.118 110.966 199.118 110.779Z" fill="white"/>
<path d="M199.346 110.587V110.974H200.749V110.587H199.346Z" fill="white"/>
<path d="M198.052 108.932C198.052 108.529 198.377 108.204 198.78 108.204C199.183 108.204 199.508 108.529 199.508 108.932C199.508 109.335 199.183 109.66 198.78 109.66C198.377 109.66 198.052 109.335 198.052 108.932ZM199.118 108.932C199.118 108.745 198.967 108.594 198.78 108.594C198.593 108.594 198.442 108.745 198.442 108.932C198.442 109.119 198.593 109.27 198.78 109.27C198.967 109.27 199.118 109.119 199.118 108.932Z" fill="white"/>
<path d="M199.346 108.74V109.127H200.749V108.74H199.346Z" fill="white"/>
<path d="M198.052 107.088C198.052 106.685 198.377 106.36 198.78 106.36C199.183 106.36 199.508 106.685 199.508 107.088C199.508 107.491 199.183 107.816 198.78 107.816C198.377 107.816 198.052 107.491 198.052 107.088ZM199.118 107.088C199.118 106.901 198.967 106.751 198.78 106.751C198.593 106.751 198.442 106.901 198.442 107.088C198.442 107.275 198.593 107.426 198.78 107.426C198.967 107.426 199.118 107.275 199.118 107.088Z" fill="white"/>
<path d="M199.346 106.894V107.28H200.749V106.894H199.346Z" fill="white"/>
<path d="M198.052 105.244C198.052 104.841 198.377 104.515 198.78 104.515C199.183 104.515 199.508 104.841 199.508 105.244C199.508 105.646 199.183 105.972 198.78 105.972C198.377 105.972 198.052 105.646 198.052 105.244ZM199.118 105.244C199.118 105.056 198.967 104.906 198.78 104.906C198.593 104.906 198.442 105.056 198.442 105.244C198.442 105.431 198.593 105.581 198.78 105.581C198.967 105.581 199.118 105.431 199.118 105.244Z" fill="white"/>
<path d="M199.346 105.052V105.438H200.749V105.052H199.346Z" fill="white"/>
<path d="M100.213 90.7434V91.1339H95.7544L91.6052 95.2792V112.324H91.2188V95.1205L95.5917 90.7434H100.213Z" fill="white"/>
<path d="M100.213 100.458V100.844H98.8869L97.1418 102.585V112.324H96.7554V102.427L98.7242 100.458H100.213Z" fill="white"/>
<path d="M100.213 98.5214V98.9079H98.663L95.2907 102.28V112.324H94.9043V102.118L98.5002 98.5214H100.213Z" fill="white"/>
<path d="M100.213 92.7123V93.0987H97.0322L93.424 96.7071V112.324H93.0376V96.5444L96.8695 92.7123H100.213Z" fill="white"/>
<path d="M100.213 84.9627V85.3532H96.1328L89.7666 91.7156L89.7585 112.324H89.3721L89.3802 91.557L95.9701 84.9627H100.213Z" fill="white"/>
<path d="M100.212 83.0263V83.4168H95.7826L88.0334 91.1664L87.9154 112.324H87.5249L87.6429 91.0037L95.6199 83.0263H100.212Z" fill="white"/>
<path d="M94.1558 77.1936V77.5801H100.213V77.1936H94.1558Z" fill="white"/>
<path d="M100.213 71.4083V71.7988H98.1829L96.7795 70.3954H94.1558V70.0089H96.9381L98.3415 71.4083H100.213Z" fill="white"/>
<path d="M100.213 75.2804V75.6709H98.1017L96.3891 73.9583H94.0664V73.5677H96.5478L98.2603 75.2804H100.213Z" fill="white"/>
<path opacity="0.5" d="M97.5483 120.545V114.122H96.3524V120.545H97.5483Z" fill="white"/>
<path opacity="0.5" d="M97.1826 114.122V112.324H96.723V114.122H97.1826Z" fill="white"/>
<path opacity="0.5" d="M95.7012 120.545V114.121H94.5052V120.545H95.7012Z" fill="white"/>
<path opacity="0.5" d="M95.3354 114.122V112.324H94.8758V114.122H95.3354Z" fill="white"/>
<path opacity="0.5" d="M93.8594 120.545V114.121H92.6634V120.545H93.8594Z" fill="white"/>
<path opacity="0.5" d="M93.4888 114.122V112.324H93.0291V114.122H93.4888Z" fill="white"/>
<path opacity="0.5" d="M92.0122 120.545V114.121H90.8163V120.545H92.0122Z" fill="white"/>
<path opacity="0.5" d="M91.6421 114.122V112.324H91.1824V114.122H91.6421Z" fill="white"/>
<path opacity="0.5" d="M90.1611 120.545V114.121H88.9652V120.545H90.1611Z" fill="white"/>
<path opacity="0.5" d="M89.7949 114.122V112.324H89.3353V114.122H89.7949Z" fill="white"/>
<path opacity="0.5" d="M88.3184 120.545V114.121H87.1224V120.545H88.3184Z" fill="white"/>
<path opacity="0.5" d="M87.9521 114.122V112.324H87.4925V114.122H87.9521Z" fill="white"/>
<path opacity="0.5" d="M179.775 108.349H173.352V109.545H179.775V108.349Z" fill="white"/>
<path opacity="0.5" d="M173.348 108.715H171.55V109.175H173.348V108.715Z" fill="white"/>
<path opacity="0.5" d="M179.775 106.504H173.352V107.7H179.775V106.504Z" fill="white"/>
<path opacity="0.5" d="M173.353 106.873H171.555V107.333H173.353V106.873Z" fill="white"/>
<path opacity="0.5" d="M179.771 104.66H173.348V105.856H179.771V104.66Z" fill="white"/>
<path opacity="0.5" d="M173.353 105.026H171.555V105.486H173.353V105.026Z" fill="white"/>
<path opacity="0.5" d="M179.771 102.813H173.348V104.009H179.771V102.813Z" fill="white"/>
<path opacity="0.5" d="M173.348 103.18H171.55V103.639H173.348V103.18Z" fill="white"/>
<path opacity="0.5" d="M179.775 100.966H173.352V102.162H179.775V100.966Z" fill="white"/>
<path opacity="0.5" d="M173.348 101.333H171.55V101.793H173.348V101.333Z" fill="white"/>
<path opacity="0.5" d="M179.775 99.1191H173.352V100.315H179.775V99.1191Z" fill="white"/>
<path opacity="0.5" d="M173.353 99.4893H171.555V99.9489H173.353V99.4893Z" fill="white"/>
<path opacity="0.5" d="M179.771 117.58H173.348V118.776H179.771V117.58Z" fill="white"/>
<path opacity="0.5" d="M173.348 117.944H171.55V118.404H173.348V117.944Z" fill="white"/>
<path opacity="0.5" d="M179.771 119.427H173.348V120.623H179.771V119.427Z" fill="white"/>
<path opacity="0.5" d="M173.353 119.793H171.555V120.253H173.353V119.793Z" fill="white"/>
<path opacity="0.5" d="M208.966 108.332H202.543V109.528H208.966V108.332Z" fill="white"/>
<path opacity="0.5" d="M202.547 108.703H200.749V109.163H202.547V108.703Z" fill="white"/>
<path opacity="0.5" d="M208.969 106.49H202.546V107.686H208.969V106.49Z" fill="white"/>
<path opacity="0.5" d="M202.543 106.856H200.745V107.316H202.543V106.856Z" fill="white"/>
<path opacity="0.5" d="M208.969 104.644H202.546V105.84H208.969V104.644Z" fill="white"/>
<path opacity="0.5" d="M202.543 105.01H200.745V105.469H202.543V105.01Z" fill="white"/>
<path opacity="0.5" d="M208.969 110.181H202.546V111.377H208.969V110.181Z" fill="white"/>
<path opacity="0.5" d="M202.547 110.551H200.749V111.01H202.547V110.551Z" fill="white"/>
<path opacity="0.5" d="M208.969 112.026H202.546V113.222H208.969V112.026Z" fill="white"/>
<path opacity="0.5" d="M202.547 112.393H200.749V112.852H202.547V112.393Z" fill="white"/>
<path opacity="0.5" d="M208.966 115.717H202.543V116.913H208.966V115.717Z" fill="white"/>
<path opacity="0.5" d="M202.547 116.086H200.749V116.546H202.547V116.086Z" fill="white"/>
<path opacity="0.5" d="M208.969 117.563H202.546V118.759H208.969V117.563Z" fill="white"/>
<path opacity="0.5" d="M202.547 117.935H200.749V118.394H202.547V117.935Z" fill="white"/>
<path opacity="0.5" d="M208.969 119.41H202.546V120.606H208.969V119.41Z" fill="white"/>
<path opacity="0.5" d="M202.547 119.776H200.749V120.236H202.547V119.776Z" fill="white"/>
<path d="M171.55 119.796V120.187H159.664L153.164 113.682V108.637H153.55V113.523L159.823 119.796H171.55Z" fill="white"/>
<path d="M171.551 117.958V118.345H160.291L155.084 113.138V108.638H155.47V112.979L160.449 117.958H171.551Z" fill="white"/>
<path d="M196.099 102.037C195.229 102.037 194.521 101.329 194.521 100.459C194.521 99.5882 195.229 98.8803 196.099 98.8803C196.97 98.8803 197.678 99.5882 197.678 100.459C197.678 101.329 196.97 102.037 196.099 102.037ZM196.099 99.6939C195.676 99.6939 195.335 100.036 195.335 100.459C195.335 100.882 195.676 101.224 196.099 101.224C196.522 101.224 196.864 100.882 196.864 100.459C196.864 100.036 196.522 99.6939 196.099 99.6939Z" fill="white"/>
<path d="M196.099 98.208C195.229 98.208 194.521 97.5002 194.521 96.6296C194.521 95.7591 195.229 95.0512 196.099 95.0512C196.97 95.0512 197.678 95.7591 197.678 96.6296C197.678 97.5002 196.97 98.208 196.099 98.208ZM196.099 95.8648C195.676 95.8648 195.335 96.2065 195.335 96.6296C195.335 97.0527 195.676 97.3944 196.099 97.3944C196.522 97.3944 196.864 97.0527 196.864 96.6296C196.864 96.2065 196.522 95.8648 196.099 95.8648Z" fill="white"/>
<path d="M199.862 102.037C198.991 102.037 198.284 101.329 198.284 100.459C198.284 99.5882 198.991 98.8803 199.862 98.8803C200.733 98.8803 201.44 99.5882 201.44 100.459C201.44 101.329 200.733 102.037 199.862 102.037ZM199.862 99.6939C199.439 99.6939 199.097 100.036 199.097 100.459C199.097 100.882 199.439 101.224 199.862 101.224C200.285 101.224 200.627 100.882 200.627 100.459C200.627 100.036 200.285 99.6939 199.862 99.6939Z" fill="white"/>
<path d="M199.862 98.208C198.991 98.208 198.284 97.5002 198.284 96.6296C198.284 95.7591 198.991 95.0512 199.862 95.0512C200.733 95.0512 201.44 95.7591 201.44 96.6296C201.44 97.5002 200.733 98.208 199.862 98.208ZM199.862 95.8648C199.439 95.8648 199.097 96.2065 199.097 96.6296C199.097 97.0527 199.439 97.3944 199.862 97.3944C200.285 97.3944 200.627 97.0527 200.627 96.6296C200.627 96.2065 200.285 95.8648 199.862 95.8648Z" fill="white"/>
<path d="M203.625 102.037C202.755 102.037 202.047 101.329 202.047 100.459C202.047 99.5882 202.755 98.8803 203.625 98.8803C204.496 98.8803 205.204 99.5882 205.204 100.459C205.204 101.329 204.496 102.037 203.625 102.037ZM203.625 99.6939C203.202 99.6939 202.86 100.036 202.86 100.459C202.86 100.882 203.202 101.224 203.625 101.224C204.048 101.224 204.39 100.882 204.39 100.459C204.39 100.036 204.048 99.6939 203.625 99.6939Z" fill="white"/>
<path d="M203.625 98.208C202.755 98.208 202.047 97.5002 202.047 96.6296C202.047 95.7591 202.755 95.0512 203.625 95.0512C204.496 95.0512 205.204 95.7591 205.204 96.6296C205.204 97.5002 204.496 98.208 203.625 98.208ZM203.625 95.8648C203.202 95.8648 202.86 96.2065 202.86 96.6296C202.86 97.0527 203.202 97.3944 203.625 97.3944C204.048 97.3944 204.39 97.0527 204.39 96.6296C204.39 96.2065 204.048 95.8648 203.625 95.8648Z" fill="white"/>
<path d="M207.388 102.037C206.517 102.037 205.81 101.329 205.81 100.459C205.81 99.5882 206.517 98.8803 207.388 98.8803C208.258 98.8803 208.966 99.5882 208.966 100.459C208.966 101.329 208.258 102.037 207.388 102.037ZM207.388 99.6939C206.965 99.6939 206.623 100.036 206.623 100.459C206.623 100.882 206.965 101.224 207.388 101.224C207.811 101.224 208.153 100.882 208.153 100.459C208.153 100.036 207.811 99.6939 207.388 99.6939Z" fill="white"/>
<path d="M207.388 98.208C206.517 98.208 205.81 97.5002 205.81 96.6296C205.81 95.7591 206.517 95.0512 207.388 95.0512C208.258 95.0512 208.966 95.7591 208.966 96.6296C208.966 97.5002 208.258 98.208 207.388 98.208ZM207.388 95.8648C206.965 95.8648 206.623 96.2065 206.623 96.6296C206.623 97.0527 206.965 97.3944 207.388 97.3944C207.811 97.3944 208.153 97.0527 208.153 96.6296C208.153 96.2065 207.811 95.8648 207.388 95.8648Z" fill="white"/>
<path d="M157.227 90.7774V93.6006H213.164V90.7774H157.227Z" fill="#6A797F"/>
<path opacity="0.3" d="M157.227 90.7774V93.6006H213.164V90.7774H157.227Z" fill="black"/>
<path d="M75.769 53.1904V55.0332L217.191 55.0332V53.1904L75.769 53.1904Z" fill="#6A797F"/>
<path opacity="0.3" d="M75.769 53.1904V55.0332L217.191 55.0332V53.1904L75.769 53.1904Z" fill="#6B7980"/>
<path d="M71.7788 55.9087V122.291C71.7788 125.997 74.8378 129.003 78.6168 129.003H215.251C219.026 129.003 222.089 125.997 222.089 122.291V55.9128C222.089 52.2068 219.022 49.1924 215.251 49.1924L78.6168 49.1924C74.8378 49.1924 71.7788 52.2068 71.7788 55.9128V55.9087ZM211.028 53.3865C214.624 53.3865 216.533 56.0795 216.533 59.4031V118.788C216.533 122.116 213.624 124.813 210.028 124.813L83.7951 124.813C76.469 124.813 76.111 122.12 76.111 118.788V106.893C76.111 106.202 76.8961 105.636 77.8683 105.636H78.2873C80.5694 105.636 80.5775 104.387 80.5775 102.858V75.3498C80.5775 73.8039 80.5694 72.5632 78.2873 72.5632H77.8683C76.8961 72.5632 76.111 72.0059 76.111 71.3021V59.4072C76.111 56.0836 77.0832 53.3906 83.7951 53.3906L210.024 53.3906L211.028 53.3865Z" fill="#A1C5C6"/>
<path d="M77.7341 85.3454V92.8468C77.7341 93.1031 77.5266 93.3105 77.2704 93.3105C77.0141 93.3105 76.8066 93.1031 76.8066 92.8468V85.3454C76.8066 85.0891 77.0141 84.8816 77.2704 84.8816C77.5266 84.8816 77.7341 85.0891 77.7341 85.3454Z" fill="#37474F"/>
<g clip-path="url(#clip0_1387_14112)">
<path d="M162.411 61.8965V78.8965H174.637V61.8965H162.411Z" fill="#A1C5C6"/>
<path d="M174.642 61.9004V73.9375H177.108V61.9004H174.642Z" fill="#A1C5C6"/>
<path d="M161.104 61.8962V75.8115H162.411V61.8962H161.104Z" fill="#A1C5C6"/>
<path d="M166.289 73.3649V74.6553H165.299V73.3649C165.299 73.0939 165.522 72.8724 165.794 72.8724C166.066 72.8724 166.289 73.0939 166.289 73.3649Z" fill="white"/>
<path d="M169.019 73.3649V74.6553H168.03V73.3649C168.03 73.0939 168.252 72.8724 168.525 72.8724C168.797 72.8724 169.019 73.0939 169.019 73.3649Z" fill="white"/>
<path d="M170.764 74.6553V73.3611C170.764 73.09 170.987 72.8686 171.259 72.8686C171.531 72.8686 171.754 73.09 171.754 73.3611V74.6515H170.764V74.6553Z" fill="white"/>
<path d="M171.753 66.8633V68.1575C171.753 68.4285 171.531 68.6499 171.259 68.6499C170.986 68.6499 170.764 68.4285 170.764 68.1575V66.8633H171.753Z" fill="white"/>
<path d="M168.03 68.154V66.8636H169.019V68.154C169.019 68.4251 168.797 68.6465 168.525 68.6465C168.252 68.6465 168.03 68.4251 168.03 68.154Z" fill="white"/>
<path d="M165.299 68.154V66.8636H166.289V68.154C166.289 68.4251 166.066 68.6465 165.794 68.6465C165.522 68.6465 165.299 68.4251 165.299 68.154Z" fill="white"/>
<path d="M165.299 77.0869V78.8965H171.754V77.0869H165.299Z" fill="#EBEBEB"/>
</g>
</g>
<defs>
<filter id="filter0_d_1387_14112" x="0.762207" y="0.181641" width="283.714" height="225.561" filterUnits="userSpaceOnUse" color-interpolation-filters="sRGB">
<feFlood flood-opacity="0" result="BackgroundImageFix"/>
<feColorMatrix in="SourceAlpha" type="matrix" values="0 0 0 0 0 0 0 0 0 0 0 0 0 0 0 0 0 0 127 0" result="hardAlpha"/>
<feOffset dx="2" dy="4"/>
<feGaussianBlur stdDeviation="2"/>
<feComposite in2="hardAlpha" operator="out"/>
<feColorMatrix type="matrix" values="0 0 0 0 0 0 0 0 0 0 0 0 0 0 0 0 0 0 0.3 0"/>
<feBlend mode="normal" in2="BackgroundImageFix" result="effect1_dropShadow_1387_14112"/>
<feBlend mode="normal" in="SourceGraphic" in2="effect1_dropShadow_1387_14112" result="shape"/>
</filter>
<clipPath id="clip0_1387_14112">
<rect width="17" height="16" fill="white" transform="matrix(0 -1 1 0 161.104 78.8965)"/>
</clipPath>
</defs>
</svg>
