<svg width="97" height="56" viewBox="0 0 97 56" fill="none" xmlns="http://www.w3.org/2000/svg">
<g filter="url(#filter0_d_1387_14072)">
<path d="M10.7284 3.69783L85.3328 3.69783C87.4414 3.69783 89.1469 5.27689 89.1469 7.22566L89.1469 42.0436C89.1469 43.9947 87.4414 45.5762 85.3328 45.5762L10.7284 45.5762C6.43256 45.5762 6.22266 43.9971 6.22266 42.0436L6.22266 35.069C6.22266 34.6635 6.68302 34.332 7.2531 34.332L7.49878 34.332C8.83692 34.332 8.84169 33.5997 8.84169 32.7028L8.84169 16.5736C8.84169 15.6672 8.83692 14.9397 7.49878 14.9397L7.2531 14.9397C6.68302 14.9397 6.22266 14.6129 6.22266 14.2002L6.22266 7.22566C6.22266 5.27689 6.79274 3.69783 10.7284 3.69783Z" fill="#455A64"/>
<path d="M10.7284 4.46444L85.3328 4.46444C87.4414 4.46444 89.1469 6.0435 89.1469 7.99227L89.1469 42.8102C89.1469 44.7613 87.4414 46.3428 85.3328 46.3428L10.7284 46.3428C6.43256 46.3428 6.22266 44.7637 6.22266 42.8102L6.22266 35.8356C6.22266 35.4301 6.68302 35.0986 7.2531 35.0986L7.49878 35.0986C8.83692 35.0986 8.84169 34.3663 8.84169 33.4694L8.84169 17.3402C8.84169 16.4338 8.83692 15.7063 7.49878 15.7063L7.2531 15.7063C6.68302 15.7063 6.22266 15.3795 6.22266 14.9668L6.22266 7.99227C6.22266 6.0435 6.79274 4.46444 10.7284 4.46444Z" fill="#262F33"/>
<g opacity="0.5">
<path d="M8.84389 26.8565L22.9075 46.3418L16.2931 46.3418L8.12354 35.0237C8.8415 34.8161 8.84389 34.196 8.84389 33.4684L8.84389 26.8565Z" fill="#37474F"/>
<path d="M36.1694 4.46347L42.7814 4.46347L73.0077 46.3418L66.3933 46.3418L36.1694 4.46347Z" fill="#37474F"/>
<path d="M81.6543 4.46356L85.3324 4.46356C87.4434 4.46356 89.1488 6.045 89.1488 7.99139L89.1488 14.8467L81.6543 4.46356Z" fill="#37474F"/>
<path d="M6.22217 12.5019L30.645 46.3418L26.8453 46.3418L8.84359 21.3989L8.84359 17.3392C8.84359 16.4304 8.83882 15.7029 7.50068 15.7029L7.25499 15.7029C6.68253 15.7029 6.22217 15.3761 6.22217 14.9658L6.22217 12.5019Z" fill="#37474F"/>
<path d="M25.834 4.46347L29.6337 4.46347L59.8576 46.3418L56.0578 46.3418L25.834 4.46347Z" fill="#37474F"/>
<path d="M63.7573 4.46363L67.5547 4.46363L89.1486 34.3822L89.1486 39.6465L63.7573 4.46363Z" fill="#37474F"/>
<path d="M10.7283 4.46347L11.1696 4.46347L41.3934 46.3418L40.2461 46.3418L10.0342 4.48255C10.2536 4.47062 10.485 4.46347 10.7283 4.46347Z" fill="#37474F"/>
<path d="M44.5801 4.46347L45.7274 4.46347L75.9513 46.3418L74.8063 46.3418L44.5801 4.46347Z" fill="#37474F"/>
<path d="M57.6514 4.46322L58.7987 4.46322L88.1758 45.168C87.9611 45.3898 87.7178 45.5854 87.4483 45.75L57.6514 4.46322Z" fill="#37474F"/>
</g>
<path d="M3.854 5.62765L3.854 44.5506C3.854 46.7236 5.64773 48.4863 7.86366 48.4863L87.9828 48.4863C90.1963 48.4863 91.9924 46.7236 91.9924 44.5506L91.9924 5.63003C91.9924 3.45704 90.1939 1.68955 87.9828 1.68955L7.86366 1.68955C5.64773 1.68955 3.854 3.45704 3.854 5.63003L3.854 5.62765ZM85.5069 4.14877C87.6154 4.14877 89.3209 5.72783 89.3209 7.6766L89.3209 42.4969C89.3209 44.4481 87.6154 46.0295 85.5069 46.0295L10.9001 46.0295C6.60423 46.0295 6.39433 44.4504 6.39433 42.4969L6.39433 35.5223C6.39433 35.1168 6.85468 34.7853 7.42477 34.7853L7.67045 34.7853C9.00859 34.7853 9.01336 34.053 9.01336 33.1561L9.01336 17.0269C9.01336 16.1205 9.00859 15.393 7.67045 15.393L7.42477 15.393C6.85468 15.393 6.39433 15.0662 6.39433 14.6535L6.39433 7.67898C6.39433 5.73021 6.96441 4.15116 10.9001 4.15116L85.5045 4.15116L85.5069 4.14877Z" fill="#A45FDA"/>
<path d="M7.34609 22.8872L7.34609 27.2857C7.34609 27.436 7.22444 27.5576 7.07417 27.5576C6.9239 27.5576 6.80225 27.436 6.80225 27.2857L6.80225 22.8872C6.80225 22.737 6.9239 22.6153 7.07417 22.6153C7.22444 22.6153 7.34609 22.737 7.34609 22.8872Z" fill="#263238"/>
</g>
<defs>
<filter id="filter0_d_1387_14072" x="0.854004" y="0.689453" width="96.1387" height="54.7969" filterUnits="userSpaceOnUse" color-interpolation-filters="sRGB">
<feFlood flood-opacity="0" result="BackgroundImageFix"/>
<feColorMatrix in="SourceAlpha" type="matrix" values="0 0 0 0 0 0 0 0 0 0 0 0 0 0 0 0 0 0 127 0" result="hardAlpha"/>
<feOffset dx="1" dy="3"/>
<feGaussianBlur stdDeviation="2"/>
<feComposite in2="hardAlpha" operator="out"/>
<feColorMatrix type="matrix" values="0 0 0 0 0 0 0 0 0 0 0 0 0 0 0 0 0 0 0.4 0"/>
<feBlend mode="normal" in2="BackgroundImageFix" result="effect1_dropShadow_1387_14072"/>
<feBlend mode="normal" in="SourceGraphic" in2="effect1_dropShadow_1387_14072" result="shape"/>
</filter>
</defs>
</svg>
