<svg width="112" height="117" viewBox="0 0 112 117" fill="none" xmlns="http://www.w3.org/2000/svg">
<path d="M33.1767 115.291C31.442 114.721 30.5011 112.863 31.0748 111.139L34.4712 100.914C35.0448 99.1892 36.914 98.2538 38.6487 98.8237C40.3834 99.3937 41.3243 101.252 40.7506 102.976L37.3542 113.201C36.7806 114.926 34.9114 115.861 33.1767 115.291Z" fill="#6A0C40"/>
<path d="M79.9332 114.733C81.6538 114.122 82.5501 112.242 81.9355 110.532L78.2962 100.391C77.6815 98.6805 75.7906 97.7899 74.0699 98.4011C72.3493 99.0123 71.4531 100.892 72.0677 102.602L75.707 112.744C76.3216 114.454 78.2126 115.345 79.9332 114.733Z" fill="#6A0C40"/>
<path d="M4.94808 3.91993C3.83185 5.05625 3.85358 6.87847 4.9966 7.98785L25.8675 28.2446C26.3303 28.6938 27.069 28.685 27.5209 28.2249L29.9349 25.7675C30.3868 25.3074 30.3781 24.5731 29.9153 24.124L9.04053 3.87112C7.89752 2.76174 6.06432 2.7836 4.94808 3.91993Z" fill="#6A0C40"/>
<path d="M30.0117 5.65354L7.28917 28.7851C3.30241 24.9118 1.97335 19.3475 3.33282 14.3496C3.96931 11.995 5.20933 9.76526 7.04393 7.8937L8.99444 5.90808C11.8642 2.98666 15.6502 1.49985 19.4534 1.45449C23.2605 1.40909 27.0848 2.80513 30.0156 5.65349L30.0117 5.65354Z" fill="url(#paint0_linear_2054_15473)"/>
<path d="M12.8634 23.1114L7.29383 28.7812C3.30321 24.9119 1.97414 19.3476 3.33361 14.3497C4.61045 17.5015 7.32406 21.8096 12.8596 23.1153L12.8634 23.1114Z" fill="#E02E73"/>
<path d="M105.497 2.72093C106.64 3.83032 106.661 5.65253 105.545 6.78885L85.1633 27.5376C84.7114 27.9977 83.9727 28.0065 83.5099 27.5574L81.038 25.1582C80.5753 24.709 80.5665 23.9747 81.0184 23.5147L101.404 2.76974C102.52 1.63341 104.354 1.61155 105.497 2.72093Z" fill="#6A0C40"/>
<path d="M80.4774 5.05287L103.745 27.6359C107.638 23.6725 108.838 18.0781 107.356 13.1102C106.664 10.7714 105.371 8.5719 103.492 6.74463L101.495 4.80609C98.56 1.9539 94.7357 0.557851 90.9364 0.603163C87.1293 0.648568 83.3393 2.13542 80.4774 5.05287Z" fill="url(#paint1_linear_2054_15473)"/>
<path d="M98.0414 22.0977L103.745 27.6331C107.638 23.6697 108.838 18.0753 107.356 13.1074C106.154 16.2887 103.544 20.6603 98.0414 22.0977Z" fill="#E02E73"/>
<path d="M56.4719 108.015C83.2597 107.696 104.718 85.8511 104.4 59.2239C104.083 32.5967 82.1097 11.27 55.3219 11.5895C28.5341 11.909 7.0758 33.7536 7.39336 60.3808C7.71093 87.008 29.6841 108.335 56.4719 108.015Z" fill="#892E60"/>
<path d="M56.4169 103.457C80.6725 103.168 100.102 83.3879 99.8148 59.2777C99.5273 35.1675 79.6312 15.8569 55.3756 16.1461C31.12 16.4354 11.6901 36.2151 11.9777 60.3253C12.2652 84.4355 32.1613 103.746 56.4169 103.457Z" fill="white"/>
<path d="M97.9792 59.3002C98.2547 82.4022 79.6379 101.354 56.3966 101.631C33.1552 101.908 14.0957 83.4059 13.8202 60.3039C13.5446 37.2018 32.1575 18.25 55.3989 17.9728C71.0377 17.7863 84.7803 26.1013 92.185 38.5993C95.7837 44.6766 97.8891 51.7432 97.9792 59.3002Z" fill="url(#paint2_linear_2054_15473)"/>
<path opacity="0.4" d="M42.8269 54.7521C46.5901 43.819 53.6661 39.8954 49.6432 34.9578C44.0769 28.1268 29.8616 37.8633 26.0983 48.7964C22.3351 59.7295 27.3034 76.088 36.0106 74.5464C44.3471 73.0714 39.0636 65.6852 42.8269 54.7521Z" fill="white"/>
<defs>
<linearGradient id="paint0_linear_2054_15473" x1="25.4514" y1="3.94173" x2="5.03371" y2="24.092" gradientUnits="userSpaceOnUse">
<stop offset="0.218718" stop-color="#FCC34B"/>
<stop offset="1" stop-color="#E93C83"/>
</linearGradient>
<linearGradient id="paint1_linear_2054_15473" x1="87.0401" y1="3.2084" x2="104.928" y2="22.9018" gradientUnits="userSpaceOnUse">
<stop offset="0.197917" stop-color="#FCC34B"/>
<stop offset="1" stop-color="#E93C83"/>
</linearGradient>
<linearGradient id="paint2_linear_2054_15473" x1="55.4008" y1="17.9728" x2="56.7386" y2="130.147" gradientUnits="userSpaceOnUse">
<stop offset="0.328125" stop-color="#FCC34B"/>
<stop offset="1" stop-color="#E93C83"/>
</linearGradient>
</defs>
</svg>
