<svg width="112" height="117" viewBox="0 0 112 117" fill="none" xmlns="http://www.w3.org/2000/svg">
<path d="M33.1688 115.291C31.4341 114.721 30.4933 112.863 31.0669 111.139L34.4634 100.914C35.037 99.1892 36.9062 98.2538 38.6409 98.8237C40.3756 99.3937 41.3165 101.252 40.7428 102.976L37.3464 113.201C36.7728 114.926 34.9036 115.861 33.1688 115.291Z" fill="#6A0C40"/>
<path d="M79.9254 114.733C81.646 114.122 82.5423 112.242 81.9277 110.532L78.2883 100.391C77.6737 98.6805 75.7827 97.7899 74.0621 98.4011C72.3415 99.0123 71.4452 100.892 72.0598 102.602L75.6992 112.744C76.3138 114.454 78.2048 115.345 79.9254 114.733Z" fill="#6A0C40"/>
<path d="M4.94027 3.91993C3.82404 5.05625 3.84577 6.87847 4.98879 7.98785L25.8597 28.2446C26.3225 28.6938 27.0612 28.685 27.5131 28.2249L29.9271 25.7675C30.379 25.3074 30.3703 24.5731 29.9075 24.124L9.03272 3.87112C7.8897 2.76174 6.0565 2.7836 4.94027 3.91993Z" fill="#6A0C40"/>
<path d="M30.0039 5.65354L7.28136 28.7851C3.2946 24.9118 1.96554 19.3475 3.325 14.3496C3.9615 11.995 5.20152 9.76526 7.03611 7.8937L8.98663 5.90808C11.8564 2.98666 15.6424 1.49985 19.4456 1.45449C23.2527 1.40909 27.077 2.80513 30.0078 5.65349L30.0039 5.65354Z" fill="url(#paint0_linear_2054_15472)"/>
<path d="M12.8556 23.1114L7.28602 28.7812C3.29539 24.9119 1.96633 19.3476 3.3258 14.3497C4.60263 17.5015 7.31624 21.8096 12.8517 23.1153L12.8556 23.1114Z" fill="#E02E73"/>
<path d="M105.489 2.72093C106.632 3.83032 106.654 5.65253 105.537 6.78885L85.1555 27.5376C84.7036 27.9977 83.9649 28.0065 83.5021 27.5574L81.0302 25.1582C80.5675 24.709 80.5587 23.9747 81.0106 23.5147L101.396 2.76974C102.513 1.63341 104.346 1.61155 105.489 2.72093Z" fill="#6A0C40"/>
<path d="M80.4695 5.05287L103.737 27.6359C107.631 23.6725 108.83 18.0781 107.348 13.1102C106.656 10.7714 105.363 8.5719 103.484 6.74463L101.487 4.80609C98.5522 1.9539 94.7279 0.557851 90.9286 0.603163C87.1215 0.648568 83.3315 2.13542 80.4695 5.05287Z" fill="url(#paint1_linear_2054_15472)"/>
<path d="M98.0336 22.0977L103.737 27.6331C107.63 23.6697 108.83 18.0753 107.348 13.1074C106.146 16.2887 103.536 20.6603 98.0336 22.0977Z" fill="#E02E73"/>
<path d="M56.4641 108.015C83.2519 107.696 104.71 85.8511 104.393 59.2239C104.075 32.5967 82.1018 11.27 55.3141 11.5895C28.5263 11.909 7.06798 33.7536 7.38555 60.3808C7.70311 87.008 29.6763 108.335 56.4641 108.015Z" fill="#892E60"/>
<path d="M56.4091 103.457C80.6647 103.168 100.095 83.3879 99.807 59.2777C99.5195 35.1675 79.6234 15.8569 55.3678 16.1461C31.1122 16.4354 11.6823 36.2151 11.9699 60.3253C12.2574 84.4355 32.1535 103.746 56.4091 103.457Z" fill="white"/>
<path d="M97.9714 59.3002C98.2469 82.4022 79.6301 101.354 56.3888 101.631C33.1474 101.908 14.0879 83.4059 13.8123 60.3039C13.5368 37.2018 32.1497 18.25 55.391 17.9728C71.0299 17.7863 84.7725 26.1013 92.1772 38.5993C95.7759 44.6766 97.8813 51.7432 97.9714 59.3002Z" fill="url(#paint2_linear_2054_15472)"/>
<path d="M97.9698 59.2983L55.8883 59.8002L92.1756 38.5975C95.7743 44.6748 97.8797 51.7414 97.9698 59.2983Z" fill="#F0A70C"/>
<path d="M57.4549 23.8801C57.4419 22.7845 56.5362 21.9054 55.4339 21.9186C54.3316 21.9317 53.4471 22.8321 53.4602 23.9278C53.4733 25.0234 54.379 25.9025 55.4812 25.8893C56.5835 25.8762 57.468 24.9758 57.4549 23.8801Z" fill="#6A0C40"/>
<path d="M56.3406 97.6823C57.4437 97.6692 58.3274 96.7696 58.3143 95.6731C58.3012 94.5766 57.3964 93.6984 56.2933 93.7115C55.1901 93.7247 54.3065 94.6242 54.3196 95.7207C54.3327 96.8172 55.2375 97.6955 56.3406 97.6823Z" fill="#6A0C40"/>
<path d="M92.0262 61.3571C93.1293 61.344 94.0129 60.4444 93.9999 59.3479C93.9868 58.2514 93.0819 57.3732 91.9788 57.3863C90.8757 57.3995 89.992 58.299 90.0051 59.3956C90.0182 60.4921 90.9231 61.3703 92.0262 61.3571Z" fill="#6A0C40"/>
<path d="M19.7957 62.2165C20.8988 62.2033 21.7825 61.3038 21.7694 60.2073C21.7563 59.1108 20.8515 58.2326 19.7483 58.2457C18.6452 58.2589 17.7616 59.1584 17.7747 60.2549C17.7877 61.3514 18.6926 62.2297 19.7957 62.2165Z" fill="#6A0C40"/>
<path d="M39.175 27.9167C38.6126 26.9753 37.3892 26.6635 36.442 27.2227C35.4948 27.7819 35.1809 28.998 35.7433 29.9395C36.3058 30.8809 37.5292 31.1927 38.4764 30.6335C39.4236 30.0743 39.7375 28.8582 39.175 27.9167Z" fill="#6A0C40"/>
<path d="M76.0324 89.6599C75.47 88.7185 74.2466 88.4066 73.2994 88.9658C72.3522 89.525 72.0383 90.7412 72.6008 91.6826C73.1632 92.6241 74.3866 92.9359 75.3338 92.3767C76.281 91.8175 76.5949 90.6013 76.0324 89.6599Z" fill="#6A0C40"/>
<path d="M87.9686 43.1833C88.9158 42.6241 89.2296 41.408 88.6672 40.4665C88.1048 39.5251 86.8814 39.2133 85.9342 39.7725C84.987 40.3317 84.6731 41.5478 85.2355 42.4893C85.798 43.4307 87.0214 43.7425 87.9686 43.1833Z" fill="#6A0C40"/>
<path d="M25.8465 79.8298C26.7937 79.2706 27.1076 78.0545 26.5451 77.113C25.9827 76.1716 24.7593 75.8598 23.8121 76.419C22.8649 76.9782 22.551 78.1943 23.1134 79.1357C23.6759 80.0772 24.8993 80.389 25.8465 79.8298Z" fill="#6A0C40"/>
<path d="M25.3778 40.4967C24.4175 39.9603 23.2019 40.3012 22.6621 41.2558C22.1223 42.2104 22.465 43.4187 23.4253 43.9551C24.3856 44.4916 25.6012 44.1507 26.141 43.1961C26.6809 42.2415 26.3381 41.0332 25.3778 40.4967Z" fill="#6A0C40"/>
<path d="M88.3563 75.6501C87.3961 75.1136 86.1804 75.4545 85.6406 76.4091C85.1008 77.3637 85.4436 78.572 86.4038 79.1085C87.3641 79.6449 88.5797 79.304 89.1196 78.3494C89.6594 77.3948 89.3166 76.1865 88.3563 75.6501Z" fill="#6A0C40"/>
<path d="M75.3158 29.4695C75.8557 28.5149 75.5129 27.3066 74.5526 26.7702C73.5923 26.2337 72.3767 26.5746 71.8369 27.5292C71.2971 28.4838 71.6399 29.6921 72.6001 30.2286C73.5604 30.765 74.776 30.4241 75.3158 29.4695Z" fill="#6A0C40"/>
<path d="M39.9399 92.0789C40.4797 91.1243 40.1369 89.916 39.1766 89.3796C38.2164 88.8431 37.0007 89.184 36.4609 90.1386C35.9211 91.0932 36.2639 92.3015 37.2241 92.838C38.1844 93.3744 39.4 93.0335 39.9399 92.0789Z" fill="#6A0C40"/>
<path d="M57.4882 68.8904C62.5392 68.0135 65.9193 63.2326 65.0378 58.212C64.1563 53.1913 59.3471 49.8322 54.2961 50.7091C49.2451 51.586 45.865 56.3669 46.7464 61.3875C47.6279 66.4082 52.4371 69.7673 57.4882 68.8904Z" fill="#6A0C40"/>
<path d="M56.9437 65.7938C60.2742 65.2156 62.5029 62.0632 61.9217 58.7528C61.3405 55.4423 58.1695 53.2274 54.839 53.8056C51.5085 54.3838 49.2798 57.5362 49.861 60.8466C50.4422 64.1571 53.6132 66.372 56.9437 65.7938Z" fill="#6A0C40"/>
<path d="M75.9539 60.7269L54.7294 60.98L54.3684 30.7095C54.3607 30.0646 54.8783 29.5377 55.5271 29.53C56.176 29.5222 56.7059 30.0366 56.7136 30.6816L57.0468 58.6208L75.9261 58.3957C76.5749 58.3879 77.1049 58.9023 77.1126 59.5473C77.1203 60.1923 76.6027 60.7191 75.9539 60.7269Z" fill="#6A0C40"/>
<path opacity="0.4" d="M42.8191 54.7521C46.5823 43.819 53.6583 39.8954 49.6353 34.9578C44.0691 28.1268 29.8538 37.8633 26.0905 48.7964C22.3273 59.7295 27.2956 76.088 36.0028 74.5464C44.3393 73.0714 39.0558 65.6852 42.8191 54.7521Z" fill="white"/>
<path d="M55.9249 62.8352C57.6109 62.8151 58.9614 61.4402 58.9414 59.7643C58.9215 58.0885 57.5385 56.7462 55.8525 56.7663C54.1666 56.7864 52.816 58.1613 52.836 59.8372C52.856 61.513 54.2389 62.8553 55.9249 62.8352Z" fill="#FFA143"/>
<defs>
<linearGradient id="paint0_linear_2054_15472" x1="25.4435" y1="3.94173" x2="5.0259" y2="24.092" gradientUnits="userSpaceOnUse">
<stop offset="0.218718" stop-color="#FCC34B"/>
<stop offset="1" stop-color="#E93C83"/>
</linearGradient>
<linearGradient id="paint1_linear_2054_15472" x1="87.0323" y1="3.2084" x2="104.92" y2="22.9018" gradientUnits="userSpaceOnUse">
<stop offset="0.197917" stop-color="#FCC34B"/>
<stop offset="1" stop-color="#E93C83"/>
</linearGradient>
<linearGradient id="paint2_linear_2054_15472" x1="55.393" y1="17.9728" x2="56.7308" y2="130.147" gradientUnits="userSpaceOnUse">
<stop offset="0.328125" stop-color="#FCC34B"/>
<stop offset="1" stop-color="#E93C83"/>
</linearGradient>
</defs>
</svg>
