<svg width="74" height="94" viewBox="0 0 74 94" fill="none" xmlns="http://www.w3.org/2000/svg">
<path d="M6.01372 75.9976C5.77041 75.9976 5.41201 75.9198 5.07664 75.5499C4.1012 74.4716 3.70007 71.2786 3.85132 65.7868C3.95982 61.8144 4.33794 58.086 4.34232 58.0488L5.10514 58.1266C4.68866 62.203 3.97296 73.1865 5.64655 75.0354C5.80438 75.2094 5.93152 75.2302 6.01372 75.2302C6.15401 75.2302 6.26031 75.1843 6.35786 75.0825C6.96833 74.4454 6.8697 72.1543 6.80503 70.6382C6.76229 69.6498 6.72941 68.8693 6.83573 68.4358C7.30701 66.5224 10.6575 66.4666 11.0378 66.4666V67.2328C10.1709 67.2328 7.8594 67.4846 7.58101 68.6186C7.49991 68.947 7.53497 69.7527 7.57224 70.6054C7.65553 72.5429 7.74978 74.7387 6.91244 75.6123C6.67242 75.8629 6.36116 75.9954 6.01482 75.9965L6.01372 75.9976Z" fill="#9FA9AD"/>
<path d="M9.09555 47.8057C9.09555 47.8057 7.95572 47.1982 6.96603 46.8829C5.98072 46.5688 4.73019 46.5742 4.72032 46.5742C4.71046 46.5742 3.45992 46.5699 2.47462 46.884C1.48493 47.1993 0.346191 47.8079 0.346191 47.8079V50.2456C0.346191 50.2456 2.02525 50.4974 2.41433 51.2768C2.80451 52.0562 2.50421 57.4845 2.6993 57.9968C2.89439 58.509 4.72252 58.6601 4.72252 58.6601V49.7684L4.72471 58.6601C4.72471 58.6601 6.55284 58.5079 6.74793 57.9957C6.94192 57.4834 6.63943 52.0551 7.02851 51.2757C7.41759 50.4963 9.09665 50.2434 9.09665 50.2434V47.8057H9.09555Z" fill="#D9E8F4"/>
<path d="M6.71748 48.0096C7.54057 48.1268 8.34613 48.3742 9.0947 48.7376V47.8028C9.0947 47.8028 7.95486 47.1952 6.96517 46.88C5.97987 46.5658 4.72823 46.5713 4.71837 46.5713C4.70851 46.5713 3.45797 46.5669 2.47266 46.8811C1.48298 47.1963 0.344238 47.805 0.344238 47.805V48.7015C0.514118 48.6019 0.675223 48.5011 0.774959 48.465C1.59915 48.1618 2.48692 48.0819 3.35605 48.014C4.47616 47.9276 5.60613 47.8498 6.71748 48.0086V48.0096Z" fill="#CCD9E2"/>
<path d="M7.03043 52.8691H2.41406V55.644H7.03043V52.8691Z" fill="#115B6C"/>
<path d="M10.2205 51.2754H1.80762V52.4083H10.2205V51.2754Z" fill="#CCD9E2"/>
<path d="M39.7173 22.2851L50.0591 28.773C50.0591 28.773 46.0061 38.7353 46.0631 38.4704C46.119 38.2044 50.0591 38.4759 50.0591 38.4759L54.4683 30.1041L46.404 21.5703L39.7173 22.2862V22.2851Z" fill="#9FA9AD"/>
<path d="M51.473 84.5336H8.81299V53.7647C8.81299 50.8838 10.6476 48.3137 13.3984 47.3395L42.2045 37.1401C46.7177 35.542 62.5169 36.8402 62.5169 36.8402L51.473 84.5336Z" fill="#D9E8F4"/>
<path d="M70.4007 82.6309H69.2959V89.3683H70.4007V82.6309Z" fill="#808789"/>
<path d="M73.2709 88.8961C73.2709 90.7843 71.7387 92.3146 69.8481 92.3146C67.9575 92.3146 66.4253 90.7843 66.4253 88.8961C66.4253 87.0078 67.9575 85.4775 69.8481 85.4775C71.7387 85.4775 73.2709 87.0078 73.2709 88.8961Z" fill="#B5C0C6"/>
<path d="M69.8481 92.5308C67.8424 92.5308 66.2104 90.9009 66.2104 88.8978C66.2104 86.8946 67.8424 85.2646 69.8481 85.2646C71.8538 85.2646 73.4857 86.8946 73.4857 88.8978C73.4857 90.9009 71.8538 92.5308 69.8481 92.5308ZM69.8481 85.9849C68.2402 85.9849 66.9316 87.2919 66.9316 88.8978C66.9316 90.5036 68.2402 91.8106 69.8481 91.8106C71.4559 91.8106 72.7645 90.5036 72.7645 88.8978C72.7645 87.2919 71.4559 85.9849 69.8481 85.9849Z" fill="#676D70"/>
<path d="M71.1955 88.8969C71.1955 89.6399 70.5918 90.2429 69.8478 90.2429C69.1038 90.2429 68.5 89.6399 68.5 88.8969C68.5 88.1538 69.1038 87.5508 69.8478 87.5508C70.5918 87.5508 71.1955 88.1538 71.1955 88.8969Z" fill="#9DA6AA"/>
<path d="M30.5203 76.9561H29.4155V89.1678H30.5203V76.9561Z" fill="#808789"/>
<path d="M33.3935 88.6998C33.3935 90.5881 31.8613 92.1184 29.9707 92.1184C28.0801 92.1184 26.5479 90.5881 26.5479 88.6998C26.5479 86.8116 28.0801 85.2812 29.9707 85.2812C31.8613 85.2812 33.3935 86.8116 33.3935 88.6998Z" fill="#B5C0C6"/>
<path d="M29.9697 92.3306C27.964 92.3306 26.332 90.7007 26.332 88.6976C26.332 86.6944 27.964 85.0645 29.9697 85.0645C31.9754 85.0645 33.6073 86.6944 33.6073 88.6976C33.6073 90.7007 31.9754 92.3306 29.9697 92.3306ZM29.9697 85.7836C28.3618 85.7836 27.0532 87.0906 27.0532 88.6965C27.0532 90.3023 28.3618 91.6093 29.9697 91.6093C31.5775 91.6093 32.8861 90.3023 32.8861 88.6965C32.8861 87.0906 31.5775 85.7836 29.9697 85.7836Z" fill="#676D70"/>
<path d="M31.3166 88.6976C31.3166 89.4407 30.7128 90.0437 29.9688 90.0437C29.2248 90.0437 28.6211 89.4407 28.6211 88.6976C28.6211 87.9546 29.2248 87.3516 29.9688 87.3516C30.7128 87.3516 31.3166 87.9546 31.3166 88.6976Z" fill="#9DA6AA"/>
<path d="M11.0389 82.0723H9.93408V89.1677H11.0389V82.0723Z" fill="#808789"/>
<path d="M13.9086 88.6998C13.9086 90.5881 12.3764 92.1184 10.4858 92.1184C8.5952 92.1184 7.06299 90.5881 7.06299 88.6998C7.06299 86.8116 8.5952 85.2812 10.4858 85.2812C12.3764 85.2812 13.9086 86.8116 13.9086 88.6998Z" fill="#B5C0C6"/>
<path d="M10.4858 92.3306C8.48011 92.3306 6.84814 90.7007 6.84814 88.6976C6.84814 86.6944 8.48011 85.0645 10.4858 85.0645C12.4915 85.0645 14.1234 86.6944 14.1234 88.6976C14.1234 90.7007 12.4915 92.3306 10.4858 92.3306ZM10.4858 85.7836C8.87796 85.7836 7.56932 87.0906 7.56932 88.6965C7.56932 90.3023 8.87796 91.6093 10.4858 91.6093C12.0936 91.6093 13.4022 90.3023 13.4022 88.6965C13.4022 87.0906 12.0936 85.7836 10.4858 85.7836Z" fill="#676D70"/>
<path d="M11.8317 88.6976C11.8317 89.4407 11.228 90.0437 10.484 90.0437C9.73998 90.0437 9.13623 89.4407 9.13623 88.6976C9.13623 87.9546 9.73998 87.3516 10.484 87.3516C11.228 87.3516 11.8317 87.9546 11.8317 88.6976Z" fill="#9DA6AA"/>
<path d="M53.1976 78.0449H52.0928V90.2567H53.1976V78.0449Z" fill="#808789"/>
<path d="M56.0693 89.7857C56.0693 91.674 54.537 93.2043 52.6464 93.2043C50.7558 93.2043 49.2236 91.674 49.2236 89.7857C49.2236 87.8975 50.7558 86.3672 52.6464 86.3672C54.537 86.3672 56.0693 87.8975 56.0693 89.7857Z" fill="#B5C0C6"/>
<path d="M52.6464 93.4195C50.6407 93.4195 49.0088 91.7896 49.0088 89.7864C49.0088 87.7832 50.6407 86.1533 52.6464 86.1533C54.6521 86.1533 56.284 87.7832 56.284 89.7864C56.284 91.7896 54.6521 93.4195 52.6464 93.4195ZM52.6464 86.8736C51.0386 86.8736 49.7299 88.1806 49.7299 89.7864C49.7299 91.3923 51.0386 92.6992 52.6464 92.6992C54.2542 92.6992 55.5629 91.3923 55.5629 89.7864C55.5629 88.1806 54.2542 86.8736 52.6464 86.8736Z" fill="#676D70"/>
<path d="M53.9929 89.7865C53.9929 90.5296 53.3891 91.1326 52.6451 91.1326C51.9011 91.1326 51.2974 90.5296 51.2974 89.7865C51.2974 89.0434 51.9011 88.4404 52.6451 88.4404C53.3891 88.4404 53.9929 89.0434 53.9929 89.7865Z" fill="#9DA6AA"/>
<path d="M68.1407 84.5328H26.043V53.7639C26.043 50.883 27.8535 48.3129 30.5671 47.3387L58.9928 37.1393C63.4468 35.5412 68.1396 38.8381 68.1396 43.5645V84.5339L68.1407 84.5328Z" fill="#CCD9E2"/>
<path d="M72.5343 81.333H7.91357V84.5325H72.5343V81.333Z" fill="#9FA9AD"/>
<path d="M72.536 81.333H27.167V84.5326H72.536V81.333Z" fill="#808789"/>
<path d="M68.1411 59.0704H56.0676C54.703 59.0704 53.5972 57.9659 53.5972 56.6031C53.5972 55.2402 54.703 54.1357 56.0676 54.1357H68.1411V59.0704Z" fill="#115B6C"/>
<path d="M68.1411 66.0342H56.0676C54.703 66.0342 53.5972 64.9297 53.5972 63.5669C53.5972 62.2041 54.703 61.0996 56.0676 61.0996H68.1411V66.0342Z" fill="#115B6C"/>
<path d="M68.1411 74.1094H56.0676C54.703 74.1094 53.5972 73.0049 53.5972 71.6421C53.5972 70.2793 54.703 69.1748 56.0676 69.1748H68.1411V74.1094Z" fill="#115B6C"/>
<path d="M18.6074 38.2176L18.8288 45.4159L31.3166 45.8341L45.5066 40.5984L44.5783 33.0859L18.6074 38.2176Z" fill="#9FA9AD"/>
<path d="M52.826 25.0947L46.5284 35.2497L32.6421 40.5991L33.611 42.8913L48.419 37.4269L55.0257 27.2304L52.826 25.0947Z" fill="#CCD9E2"/>
<path d="M52.8264 25.0947H28.2399L22.5297 32.9148L6.46777 40.2708L32.6425 40.5991L46.5288 35.2497L52.8264 25.0947Z" fill="#D9E8F4"/>
<path d="M33.6113 40.2715H6.46777V42.892H33.6113V40.2715Z" fill="#B5C0C6"/>
<path d="M20.9131 35.0413L22.4646 33.9951H23.8617L22.3879 35.0413H20.9131Z" fill="#9FA9AD"/>
<path d="M23.5513 35.0413L25.1028 33.9951H26.4988L25.025 35.0413H23.5513Z" fill="#9FA9AD"/>
<path d="M25.7749 35.0413L27.3275 33.9951H28.7235L27.2497 35.0413H25.7749Z" fill="#9FA9AD"/>
<path d="M28.5679 35.0413L30.1194 33.9951H31.5165L30.0427 35.0413H28.5679Z" fill="#9FA9AD"/>
<path d="M31.5181 35.0413L33.0696 33.9951H34.4656L32.9918 35.0413H31.5181Z" fill="#9FA9AD"/>
<path d="M34.7964 35.0413L36.348 33.9951H37.7439L36.2702 35.0413H34.7964Z" fill="#9FA9AD"/>
<path d="M38.4648 35.0413L40.0164 33.9951H41.4123L39.9386 35.0413H38.4648Z" fill="#9FA9AD"/>
<path d="M16.6021 36.7318L18.1536 35.6855H19.5507L18.0758 36.7318H16.6021Z" fill="#9FA9AD"/>
<path d="M19.2407 36.7318L20.7934 35.6855H22.1893L20.7156 36.7318H19.2407Z" fill="#9FA9AD"/>
<path d="M21.4639 36.7318L23.0154 35.6855H24.4125L22.9387 36.7318H21.4639Z" fill="#9FA9AD"/>
<path d="M24.2578 36.7318L25.8094 35.6855H27.2064L25.7316 36.7318H24.2578Z" fill="#9FA9AD"/>
<path d="M27.2085 36.7318L28.7601 35.6855H30.156L28.6823 36.7318H27.2085Z" fill="#9FA9AD"/>
<path d="M30.4863 36.7318L32.0379 35.6855H33.4338L31.9601 36.7318H30.4863Z" fill="#9FA9AD"/>
<path d="M34.1543 36.7318L35.7058 35.6855H37.1018L35.628 36.7318H34.1543Z" fill="#9FA9AD"/>
<path d="M12.9336 38.64L14.4852 37.5938H15.8822L14.4074 38.64H12.9336Z" fill="#9FA9AD"/>
<path d="M15.5723 38.64L17.1249 37.5938H18.5209L17.0471 38.64H15.5723Z" fill="#9FA9AD"/>
<path d="M17.7964 38.64L19.3479 37.5938H20.745L19.2712 38.64H17.7964Z" fill="#9FA9AD"/>
<path d="M20.5898 38.64L22.1414 37.5938H23.5384L22.0647 38.64H20.5898Z" fill="#9FA9AD"/>
<path d="M23.5381 38.64L25.0897 37.5938H26.4856L25.0118 38.64H23.5381Z" fill="#9FA9AD"/>
<path d="M26.8179 38.64L28.3694 37.5938H29.7654L28.2916 38.64H26.8179Z" fill="#9FA9AD"/>
<path d="M30.4863 38.64L32.0379 37.5938H33.4338L31.9601 38.64H30.4863Z" fill="#9FA9AD"/>
<path d="M25.3784 32.0129C25.4223 31.8355 28.9634 26.4434 28.9634 26.4434H49.6779L29.7668 27.0618L25.3784 32.0129Z" fill="#9FA9AD"/>
<path d="M45.5591 30.6844C45.009 31.6354 44.0481 32.1103 43.4136 31.7437C42.7792 31.3771 42.7102 30.3101 43.2592 29.358C43.8092 28.407 44.769 27.932 45.4046 28.2987C46.039 28.6653 46.108 29.7323 45.5591 30.6844Z" fill="#115B6C"/>
<path d="M41.3388 29.0199C41.0561 29.5091 40.5619 29.7532 40.2343 29.5649C39.9077 29.3767 39.8727 28.8273 40.1554 28.3371C40.4381 27.8479 40.9322 27.6038 41.2588 27.7921C41.5853 27.9803 41.6215 28.5297 41.3377 29.0188L41.3388 29.0199Z" fill="#9FA9AD"/>
<path d="M40.2331 31.4155C39.9504 31.9046 39.4562 32.1487 39.1297 31.9604C38.8032 31.7722 38.767 31.2228 39.0508 30.7326C39.3335 30.2434 39.8277 29.9993 40.1542 30.1876C40.4808 30.3758 40.5169 30.9252 40.2331 31.4144V31.4155Z" fill="#9FA9AD"/>
<path d="M64.4917 0.766602H23.1089V22.9559H64.4917V0.766602Z" fill="#CCD9E2"/>
<path d="M62.5514 2.58496H25.0474V21.1412H62.5514V2.58496Z" fill="#808789"/>
<path d="M27.548 4.41848H62.5861V2.58496H25.082V21.1412H27.548V4.41848Z" fill="#6E7475"/>
<path opacity="0.07" d="M25.082 16.5416L36.2711 2.58496H39.718L25.082 21.1412V16.5416Z" fill="white"/>
<path opacity="0.07" d="M34.1543 21.1412L49.6769 2.58496H53.5984L43.8331 21.1412H34.1543Z" fill="white"/>
<path opacity="0.07" d="M51.9224 21.1405L62.5514 7.1084V10.1778L56.7196 21.1405H51.9224Z" fill="white"/>
</svg>
