<svg width="115" height="163" viewBox="0 0 115 163" fill="none" xmlns="http://www.w3.org/2000/svg">
<path d="M57.4866 134.829C34.3109 134.829 13.5164 120.106 5.76877 98.2042C3.65578 92.2342 2.58252 86.0965 2.58252 79.9252C2.58252 73.754 3.5887 67.9852 5.56753 62.1829L5.73523 61.7133C13.4828 39.8456 34.2773 25.0547 57.4866 25.0547C63.5237 25.0547 69.5273 26.0944 75.3631 28.1068C79.522 29.549 83.5803 31.5278 87.3703 33.9762C103.033 44.1722 112.357 61.3444 112.357 79.9252C112.357 81.6358 112.257 83.4133 112.089 85.2915C109.339 113.532 85.861 134.829 57.4531 134.829H57.4866Z" fill="#181C36"/>
<path d="M57.4866 131.978C35.5182 131.978 15.797 118.026 8.4519 97.2649C6.43953 91.5967 5.43335 85.7608 5.43335 79.925C5.43335 74.0891 6.37245 68.6222 8.25066 63.1217L8.38482 62.7528C15.7635 41.8912 35.4847 27.9053 57.4866 27.9053C63.2218 27.9053 68.9235 28.8779 74.4575 30.7897C78.4152 32.1648 82.2387 34.043 85.8274 36.3572C100.652 46.0166 109.54 62.2832 109.54 79.925C109.54 81.5684 109.439 83.2454 109.271 84.9894C106.689 111.754 84.4188 131.945 57.4866 131.945V131.978Z" fill="#3D4787"/>
<path d="M84.2839 38.7725C80.9634 36.5924 77.3412 34.8148 73.5512 33.5068C68.5203 31.7627 63.154 30.7901 57.5194 30.7901C36.0541 30.7566 17.8757 44.5077 11.1343 63.6588C11.1008 63.7929 11.0337 63.9271 10.9666 64.0612C9.25609 69.0586 8.28345 74.3914 8.28345 79.9589C8.28345 85.5265 9.32317 91.1947 11.1343 96.3262C17.8757 115.41 36.0541 129.128 57.4523 129.128C83.0094 129.128 103.972 109.641 106.386 84.7551C106.554 83.1787 106.621 81.5688 106.621 79.9589C106.621 62.6861 97.6996 47.5263 84.2168 38.7725H84.2839Z" fill="#2A3069"/>
<path d="M102.894 138.142L97.9772 137.944C69.1323 136.77 40.2458 136.655 11.388 137.58C6.04815 137.548 1.74501 133.172 1.77795 127.808L1.829 119.497C1.85782 114.803 3.57883 112.017 9.00759 110.445C10.389 110.047 11.8044 109.827 13.2368 109.703C15.4775 109.523 19.757 109.17 24.8097 108.76C46.4618 106.996 68.2253 107.129 89.8541 109.159L101.502 110.254C102.933 110.386 104.355 110.616 105.731 111.012C111.316 112.608 112.712 115.484 112.684 120.187L112.633 128.497C112.6 133.861 108.243 138.184 102.903 138.151L102.894 138.142Z" fill="#2A3069"/>
<path fill-rule="evenodd" clip-rule="evenodd" d="M103.123 135.894C107.113 135.809 110.352 132.541 110.377 128.483L110.428 120.173C110.441 118.003 110.113 116.664 109.458 115.719C108.822 114.801 107.627 113.9 105.111 113.181L105.106 113.18C103.902 112.833 102.627 112.624 101.295 112.5L101.291 112.5L89.6433 111.405C89.6432 111.405 89.6434 111.405 89.6433 111.405C68.1456 109.388 46.5138 109.255 24.9929 111.008C22.4221 111.217 20.0474 111.411 18.0407 111.575C16.1122 111.733 14.523 111.863 13.4244 111.951C12.0945 112.066 10.8334 112.267 9.63303 112.612C7.17886 113.323 5.90616 114.212 5.19652 115.156C4.4892 116.097 4.09773 117.416 4.08487 119.511L4.03383 127.821C4.00856 131.936 7.29574 135.277 11.3616 135.324C40.258 134.398 69.1835 134.515 98.0679 135.69C98.0675 135.69 98.0682 135.69 98.0679 135.69L103.123 135.894ZM13.2368 109.703C11.8044 109.827 10.389 110.047 9.00759 110.445C3.57883 112.017 1.85782 114.803 1.829 119.497L1.77795 127.808C1.74501 133.172 6.04815 137.548 11.388 137.58C40.2458 136.655 69.1323 136.77 97.9772 137.944L102.894 138.142L102.903 138.151C108.243 138.184 112.6 133.861 112.633 128.497L112.684 120.187C112.712 115.484 111.316 112.608 105.731 111.012C104.355 110.616 102.933 110.386 101.502 110.254L89.8541 109.159C68.2253 107.129 46.4618 106.996 24.8097 108.76C22.2348 108.969 19.8606 109.163 17.8548 109.327C15.9247 109.485 14.3356 109.615 13.2368 109.703Z" fill="#181C36"/>
<path d="M18.0131 130.297V122.41C18.0131 122.093 18.0513 121.802 18.1277 121.538C18.2041 121.267 18.2981 121.05 18.4097 120.885C18.5331 120.697 18.6506 120.548 18.7622 120.436C18.8738 120.319 19.006 120.216 19.1587 120.128H12.955V118.92H21.2913V120.004C20.9975 120.11 20.7273 120.236 20.4805 120.383C20.2338 120.53 20.037 120.715 19.8901 120.938C19.6316 121.303 19.5024 121.799 19.5024 122.428V130.297H18.0131ZM22.71 130.297V129.09H26.4111C26.4816 128.766 26.5316 128.449 26.5609 128.138C26.5962 127.827 26.6138 127.518 26.6138 127.213V121.626C26.6138 121.344 26.5786 121.091 26.5081 120.868C26.4376 120.639 26.3318 120.451 26.1908 120.304C26.0792 120.204 25.95 120.125 25.8031 120.066C25.6621 120.007 25.4976 119.978 25.3096 119.978C25.0746 119.978 24.8338 119.993 24.587 120.022C24.3403 120.045 24.0847 120.081 23.8204 120.128V118.876C24.0436 118.829 24.2845 118.797 24.543 118.779C24.8073 118.756 25.0922 118.744 25.3977 118.744C25.7385 118.744 26.0351 118.776 26.2878 118.841C26.5404 118.906 26.7607 118.997 26.9487 119.114C27.1249 119.226 27.2777 119.364 27.4069 119.528C27.542 119.693 27.6536 119.869 27.7418 120.057C27.8593 120.263 27.9474 120.498 28.0061 120.762C28.0708 121.026 28.1031 121.314 28.1031 121.626V127.213C28.1031 127.506 28.0884 127.821 28.059 128.156C28.0296 128.485 27.9944 128.802 27.9533 129.107C27.9121 129.407 27.871 129.654 27.8299 129.847L27.7506 130.297H22.71ZM30.9935 130.297V118.92H32.4739V130.297H30.9935ZM35.0294 130.297V126.296C35.0294 125.932 35.0471 125.597 35.0823 125.292C35.1234 124.98 35.191 124.686 35.285 124.41C35.3848 124.134 35.5317 123.864 35.7256 123.6C35.8901 123.353 36.1045 123.144 36.3689 122.974C36.6391 122.804 36.9622 122.674 37.3382 122.586L35.0911 118.92H36.7125L40.678 125.477C40.7603 125.447 40.8366 125.415 40.9071 125.38C40.9776 125.344 41.0423 125.303 41.101 125.256C41.43 125.057 41.662 124.792 41.7972 124.463C41.9382 124.134 42.0087 123.673 42.0087 123.08V118.92H43.4627V123.08C43.4627 123.579 43.4245 124.02 43.3481 124.402C43.2717 124.778 43.1484 125.112 42.978 125.406C42.837 125.653 42.6284 125.885 42.3523 126.102C42.0762 126.314 41.7472 126.472 41.3654 126.578L43.6389 130.297H42.0087L38.0256 123.697C37.8141 123.708 37.5761 123.793 37.3118 123.952C37.0533 124.111 36.8535 124.372 36.7125 124.736C36.5657 125.124 36.4922 125.644 36.4922 126.296V130.297H35.0294ZM50.0454 130.473C49.2229 130.473 48.515 130.309 47.9216 129.98C47.4928 129.751 47.1197 129.439 46.8025 129.046C46.4911 128.652 46.2385 128.173 46.0446 127.609C45.9036 127.198 45.795 126.74 45.7186 126.234C45.6481 125.729 45.6128 125.18 45.6128 124.587C45.6128 123.893 45.6657 123.268 45.7715 122.71C45.8831 122.146 46.0476 121.646 46.2649 121.212C46.4882 120.777 46.7643 120.407 47.0933 120.101L47.1197 120.075L45.7715 120.136V118.885C46.3119 118.856 46.8289 118.832 47.3224 118.815C47.8159 118.791 48.2888 118.774 48.7412 118.762C49.1994 118.75 49.6341 118.744 50.0454 118.744C50.5271 118.744 50.9736 118.803 51.3848 118.92C51.8019 119.038 52.1779 119.217 52.5128 119.458C52.8241 119.664 53.1002 119.922 53.3411 120.233C53.582 120.539 53.7846 120.894 53.9491 121.3C54.1313 121.734 54.2664 122.225 54.3545 122.771C54.4485 123.318 54.4955 123.923 54.4955 124.587C54.4955 125.104 54.4661 125.588 54.4074 126.041C54.3545 126.487 54.2723 126.901 54.1606 127.283C53.9785 127.906 53.7259 128.44 53.4028 128.887C53.0855 129.328 52.7037 129.677 52.2572 129.936C51.6345 130.294 50.8972 130.473 50.0454 130.473ZM50.0454 129.231C50.5036 129.231 50.906 129.148 51.2526 128.984C51.5992 128.819 51.8812 128.59 52.0986 128.297C52.316 128.015 52.4863 127.674 52.6097 127.274C52.7389 126.869 52.8271 126.434 52.8741 125.97C52.9269 125.506 52.9534 125.045 52.9534 124.587C52.9534 123.476 52.8447 122.604 52.6273 121.969C52.41 121.329 52.1191 120.853 51.7549 120.542C51.5493 120.36 51.3026 120.219 51.0147 120.119C50.7268 120.019 50.4243 119.969 50.107 119.969C49.8016 119.969 49.5342 119.972 49.3051 119.978C49.0819 119.984 48.8528 119.998 48.6178 120.022C48.1126 120.539 47.7395 121.167 47.4986 121.908C47.2636 122.642 47.1462 123.535 47.1462 124.587C47.1462 125.456 47.2166 126.202 47.3576 126.825C47.4986 127.442 47.7131 127.932 48.0009 128.297C48.2183 128.59 48.4974 128.819 48.8381 128.984C49.1847 129.148 49.5871 129.231 50.0454 129.231ZM61.5717 130.297V122.216C61.5717 121.523 61.413 121.012 61.0958 120.683C60.7786 120.348 60.3056 120.136 59.677 120.048C59.5361 120.019 59.3804 119.998 59.21 119.987C59.0455 119.975 58.8693 119.969 58.6813 119.969C58.4522 119.969 58.1672 119.975 57.8265 119.987C57.4858 119.993 57.1391 120.007 56.7867 120.031C56.4342 120.048 56.1228 120.066 55.8526 120.084V118.85C56.3754 118.815 56.8542 118.788 57.289 118.771C57.7237 118.753 58.1202 118.744 58.4786 118.744C59.1836 118.744 59.7446 118.774 60.1617 118.832C60.5788 118.891 60.9695 118.997 61.3337 119.149C61.698 119.302 62.0005 119.496 62.2414 119.731C62.4823 119.96 62.6761 120.263 62.823 120.639C62.9052 120.874 62.964 121.118 62.9992 121.37C63.0404 121.623 63.0609 121.905 63.0609 122.216V130.297H61.5717ZM70.3574 130.473C69.9462 130.473 69.5525 130.432 69.1766 130.35C68.8006 130.268 68.4598 130.135 68.1543 129.953C67.8371 129.771 67.5463 129.539 67.2819 129.257C67.0235 128.975 66.8002 128.631 66.6122 128.226C66.3831 127.756 66.2127 127.221 66.1011 126.622C65.9954 126.017 65.9425 125.333 65.9425 124.569V118.92H67.4317V124.569C67.4317 125.456 67.5081 126.217 67.6609 126.851C67.8195 127.48 68.0515 127.982 68.357 128.358C68.5744 128.628 68.8534 128.84 69.1942 128.993C69.5349 129.145 69.9256 129.222 70.3662 129.222C70.8244 129.222 71.2269 129.142 71.5735 128.984C71.9201 128.819 72.2021 128.596 72.4194 128.314C72.766 127.879 72.9981 127.33 73.1156 126.666C73.2331 125.997 73.2918 125.3 73.2918 124.578C73.2918 123.867 73.236 123.191 73.1244 122.551C73.0128 121.911 72.8013 121.373 72.4899 120.938C72.2432 120.603 71.9348 120.36 71.5647 120.207C71.2004 120.054 70.8068 119.978 70.3838 119.978C70.2663 119.978 70.1459 119.987 70.0225 120.004C69.905 120.016 69.7846 120.034 69.6612 120.057V118.823C69.8257 118.794 69.9873 118.774 70.1459 118.762C70.3104 118.75 70.469 118.744 70.6218 118.744C71.033 118.744 71.4207 118.788 71.785 118.876C72.1492 118.959 72.4841 119.094 72.7895 119.282C73.1068 119.464 73.3858 119.702 73.6267 119.995C73.8734 120.283 74.0791 120.63 74.2436 121.035C74.4315 121.482 74.5725 121.999 74.6665 122.586C74.7664 123.174 74.8163 123.835 74.8163 124.569C74.8163 125.168 74.7811 125.72 74.7106 126.226C74.6401 126.725 74.5344 127.183 74.3934 127.6C74.2112 128.129 73.9733 128.584 73.6796 128.966C73.3917 129.348 73.048 129.659 72.6486 129.9C72.3313 130.088 71.9788 130.229 71.5911 130.323C71.2092 130.423 70.798 130.473 70.3574 130.473ZM79.8481 130.297L80.6852 125.944L82.3595 120.145H76.2615V116.506H77.742V118.876H83.8224V120.136L82.1745 125.882L81.3373 130.297H79.8481ZM86.0695 130.297V118.92H87.5499V130.297H86.0695ZM90.1054 130.297V126.296C90.1054 125.932 90.1231 125.597 90.1583 125.292C90.1994 124.98 90.267 124.686 90.361 124.41C90.4609 124.134 90.6077 123.864 90.8016 123.6C90.9661 123.353 91.1805 123.144 91.4449 122.974C91.7151 122.804 92.0382 122.674 92.4142 122.586L90.1671 118.92H91.7886L95.754 125.477C95.8363 125.447 95.9127 125.415 95.9832 125.38C96.0537 125.344 96.1183 125.303 96.177 125.256C96.506 125.057 96.7381 124.792 96.8732 124.463C97.0142 124.134 97.0847 123.673 97.0847 123.08V118.92H98.5387V123.08C98.5387 123.579 98.5005 124.02 98.4241 124.402C98.3478 124.778 98.2244 125.112 98.054 125.406C97.913 125.653 97.7045 125.885 97.4284 126.102C97.1522 126.314 96.8233 126.472 96.4414 126.578L98.7149 130.297H97.0847L93.1016 123.697C92.8901 123.708 92.6522 123.793 92.3878 123.952C92.1293 124.111 91.9296 124.372 91.7886 124.736C91.6417 125.124 91.5683 125.644 91.5683 126.296V130.297H90.1054Z" fill="white"/>
<g clip-path="url(#clip0_1292_78614)">
<path d="M79.7297 100.967V100.367H81.2297V98.0674H78.0297V92.8674V89.3674V87.0674V83.5674V82.0674V78.5674V70.9674C78.0297 68.4674 76.2297 66.5674 74.0297 66.1674C74.0297 66.1674 74.0297 66.1674 73.9297 66.1674C73.6297 66.1674 73.3297 66.0674 73.0297 66.0674C71.6297 65.9674 68.6297 65.7674 65.8297 65.7674L68.2297 61.2674L67.6297 60.6674L68.6297 59.1674L67.0297 57.6674L66.2297 59.0674L67.1297 57.6674H64.9297L63.4297 56.0674H75.5297V40.0674H45.7297V56.0674H58.4297L60.9297 57.5674H49.4297L45.3297 63.1674L33.8297 68.5674V70.4674H42.6297L42.7297 72.2674L38.8297 73.6674C37.4297 74.1674 36.4297 75.1674 35.9297 76.4674H34.2297C34.5297 75.8674 35.7297 75.7674 35.7297 75.7674V73.9674C35.7297 73.9674 34.9297 73.5674 34.2297 73.2674C33.4297 73.0674 32.5297 73.0674 32.5297 73.0674C32.5297 73.0674 31.6297 73.0674 30.9297 73.2674C30.2297 73.4674 29.4297 73.9674 29.4297 73.9674V74.5674V75.6674C29.4297 75.6674 30.6297 75.8674 30.9297 76.3674H30.4297V77.1674H31.0297C31.0297 77.2674 31.0297 77.3674 31.0297 77.4674H30.8297V79.4674H31.0297C31.0297 80.2674 31.0297 80.9674 31.1297 81.1674C31.2297 81.4674 31.8297 81.5674 32.2297 81.5674C32.1297 82.4674 31.9297 84.5674 31.9297 86.7674C31.8297 90.6674 32.1297 92.9674 32.8297 93.7674C33.0297 94.0674 33.3297 94.0674 33.5297 94.0674C33.7297 94.0674 34.0297 93.9674 34.1297 93.7674C34.7297 93.1674 34.6297 91.5674 34.6297 90.1674C34.6297 89.5674 34.5297 88.9674 34.6297 88.7674C34.7297 88.3674 35.1297 88.1674 35.5297 88.0674V98.0674H34.8297V100.367H35.4297H36.2297V100.767C34.9297 100.967 34.0297 102.067 34.0297 103.367C34.0297 104.767 35.2297 105.967 36.6297 105.967C38.0297 105.967 39.2297 104.767 39.2297 103.367C39.2297 102.067 38.2297 100.967 37.0297 100.767V100.367H47.8297H50.2297V100.767C48.9297 100.967 48.0297 102.067 48.0297 103.367C48.0297 104.767 49.2297 105.967 50.6297 105.967C52.0297 105.967 53.2297 104.767 53.2297 103.367C53.2297 102.067 52.2297 100.967 51.0297 100.767V100.367H66.5297V101.567C65.2297 101.767 64.3297 102.867 64.3297 104.167C64.3297 105.567 65.5297 106.767 66.9297 106.767C68.3297 106.767 69.5297 105.567 69.5297 104.167C69.5297 102.867 68.5297 101.767 67.3297 101.567V100.367H78.0297H78.9297V100.967C77.6297 101.167 76.7297 102.267 76.7297 103.567C76.7297 104.967 77.9297 106.167 79.3297 106.167C80.7297 106.167 81.9297 104.967 81.9297 103.567C81.9297 102.167 81.0297 101.167 79.7297 100.967ZM34.0297 88.7674C33.9297 89.0674 33.9297 89.6674 34.0297 90.3674C34.0297 91.4674 34.1297 93.0674 33.7297 93.5674C33.6297 93.6674 33.6297 93.6674 33.5297 93.6674C33.4297 93.6674 33.3297 93.6674 33.2297 93.5674C32.0297 92.2674 32.5297 84.9674 32.8297 81.7674C33.2297 81.6674 33.9297 81.5674 34.0297 81.2674C34.1297 81.1674 34.1297 80.3674 34.1297 79.5674H34.3297V77.5674H34.0297C34.0297 77.4674 34.0297 77.3674 34.0297 77.2674H35.5297C35.4297 77.5674 35.4297 77.8674 35.4297 78.2674V87.6674C34.8297 87.7674 34.2297 88.1674 34.0297 88.7674Z" fill="black"/>
</g>
<path d="M31.5273 92.1684C31.3524 92.1684 31.0947 92.1125 30.8535 91.8465C30.1522 91.0712 29.8637 88.7753 29.9725 84.8265C30.0505 81.9702 30.3224 79.2895 30.3255 79.2627L30.874 79.3186C30.5746 82.2497 30.06 90.1472 31.2633 91.4766C31.3768 91.6017 31.4682 91.6167 31.5273 91.6167C31.6282 91.6167 31.7046 91.5836 31.7748 91.5104C32.2137 91.0523 32.1428 89.405 32.0963 88.3149C32.0656 87.6041 32.0419 87.0429 32.1184 86.7313C32.4572 85.3555 34.8663 85.3153 35.1398 85.3153V85.8663C34.5164 85.8663 32.8544 86.0473 32.6543 86.8627C32.5959 87.0988 32.6211 87.6781 32.6479 88.2913C32.7078 89.6844 32.7756 91.2633 32.1735 91.8913C32.0009 92.0716 31.7771 92.1668 31.5281 92.1676L31.5273 92.1684Z" fill="#9FA9AD"/>
<path d="M33.7432 71.8972C33.7432 71.8972 32.9236 71.4604 32.212 71.2337C31.5036 71.0078 30.6044 71.0117 30.5973 71.0117C30.5902 71.0117 29.691 71.0086 28.9826 71.2345C28.2709 71.4612 27.4521 71.8988 27.4521 71.8988V73.6516C27.4521 73.6516 28.6594 73.8326 28.9392 74.393C29.2198 74.9534 29.0038 78.8565 29.1441 79.2249C29.2844 79.5932 30.5989 79.7018 30.5989 79.7018V73.3084L30.6004 79.7018C30.6004 79.7018 31.9149 79.5924 32.0552 79.2241C32.1947 78.8557 31.9772 74.9526 32.2569 74.3922C32.5367 73.8318 33.744 73.65 33.744 73.65V71.8972H33.7432Z" fill="#D9E8F4"/>
<path d="M32.0332 72.044C32.6251 72.1282 33.2043 72.3061 33.7425 72.5674V71.8952C33.7425 71.8952 32.923 71.4584 32.2113 71.2317C31.5029 71.0058 30.6029 71.0098 30.5958 71.0098C30.5887 71.0098 29.6896 71.0066 28.9811 71.2325C28.2695 71.4592 27.4507 71.8968 27.4507 71.8968V72.5414C27.5728 72.4698 27.6887 72.3974 27.7604 72.3714C28.353 72.1534 28.9913 72.0959 29.6163 72.0471C30.4217 71.985 31.2341 71.9291 32.0332 72.0432V72.044Z" fill="#CCD9E2"/>
<path d="M32.258 75.5381H28.9387V77.5333H32.258V75.5381Z" fill="#115B6C"/>
<path d="M34.5518 74.3916H28.5027V75.2062H34.5518V74.3916Z" fill="#CCD9E2"/>
<path d="M55.762 53.5462L63.1981 58.2112C63.1981 58.2112 60.2838 65.3744 60.3248 65.1839C60.365 64.9926 63.1981 65.1878 63.1981 65.1878L66.3684 59.1683L60.5699 53.0322L55.762 53.547V53.5462Z" fill="#9FA9AD"/>
<path d="M64.2152 98.3065H33.54V76.1817C33.54 74.1102 34.8592 72.2621 36.8373 71.5616L57.5506 64.2276C60.7958 63.0785 72.1565 64.012 72.1565 64.012L64.2152 98.3065Z" fill="#D9E8F4"/>
<path d="M77.8259 96.9395H77.0315V101.784H77.8259V96.9395Z" fill="#808789"/>
<path d="M79.89 101.444C79.89 102.802 78.7883 103.902 77.4289 103.902C76.0695 103.902 74.9678 102.802 74.9678 101.444C74.9678 100.087 76.0695 98.9863 77.4289 98.9863C78.7883 98.9863 79.89 100.087 79.89 101.444Z" fill="#B5C0C6"/>
<path d="M77.4288 104.057C75.9866 104.057 74.8132 102.885 74.8132 101.444C74.8132 100.004 75.9866 98.832 77.4288 98.832C78.8709 98.832 80.0444 100.004 80.0444 101.444C80.0444 102.885 78.8709 104.057 77.4288 104.057ZM77.4288 99.3499C76.2727 99.3499 75.3318 100.29 75.3318 101.444C75.3318 102.599 76.2727 103.539 77.4288 103.539C78.5849 103.539 79.5258 102.599 79.5258 101.444C79.5258 100.29 78.5849 99.3499 77.4288 99.3499Z" fill="#676D70"/>
<path d="M78.3979 101.445C78.3979 101.979 77.9636 102.413 77.4285 102.413C76.8935 102.413 76.4592 101.979 76.4592 101.445C76.4592 100.91 76.8935 100.477 77.4285 100.477C77.9636 100.477 78.3979 100.91 78.3979 101.445Z" fill="#9DA6AA"/>
<path d="M49.1491 92.8584H48.3547V101.639H49.1491V92.8584Z" fill="#808789"/>
<path d="M51.2135 101.3C51.2135 102.658 50.1118 103.758 48.7524 103.758C47.393 103.758 46.2913 102.658 46.2913 101.3C46.2913 99.9421 47.393 98.8418 48.7524 98.8418C50.1118 98.8418 51.2135 99.9421 51.2135 101.3Z" fill="#B5C0C6"/>
<path d="M48.7525 103.912C47.3104 103.912 46.137 102.74 46.137 101.3C46.137 99.8595 47.3104 98.6875 48.7525 98.6875C50.1947 98.6875 51.3681 99.8595 51.3681 101.3C51.3681 102.74 50.1947 103.912 48.7525 103.912ZM48.7525 99.2046C47.5965 99.2046 46.6555 100.144 46.6555 101.299C46.6555 102.454 47.5965 103.393 48.7525 103.393C49.9086 103.393 50.8496 102.454 50.8496 101.299C50.8496 100.144 49.9086 99.2046 48.7525 99.2046Z" fill="#676D70"/>
<path d="M49.7216 101.299C49.7216 101.834 49.2874 102.267 48.7523 102.267C48.2172 102.267 47.783 101.834 47.783 101.299C47.783 100.765 48.2172 100.331 48.7523 100.331C49.2874 100.331 49.7216 100.765 49.7216 101.299Z" fill="#9DA6AA"/>
<path d="M35.141 96.5371H34.3467V101.639H35.141V96.5371Z" fill="#808789"/>
<path d="M37.2042 101.3C37.2042 102.658 36.1025 103.758 34.7431 103.758C33.3837 103.758 32.282 102.658 32.282 101.3C32.282 99.9421 33.3837 98.8418 34.7431 98.8418C36.1025 98.8418 37.2042 99.9421 37.2042 101.3Z" fill="#B5C0C6"/>
<path d="M34.743 103.912C33.3009 103.912 32.1274 102.74 32.1274 101.3C32.1274 99.8595 33.3009 98.6875 34.743 98.6875C36.1852 98.6875 37.3586 99.8595 37.3586 101.3C37.3586 102.74 36.1852 103.912 34.743 103.912ZM34.743 99.2046C33.5869 99.2046 32.646 100.144 32.646 101.299C32.646 102.454 33.5869 103.393 34.743 103.393C35.8991 103.393 36.84 102.454 36.84 101.299C36.84 100.144 35.8991 99.2046 34.743 99.2046Z" fill="#676D70"/>
<path d="M35.7111 101.299C35.7111 101.834 35.2769 102.267 34.7418 102.267C34.2067 102.267 33.7725 101.834 33.7725 101.299C33.7725 100.765 34.2067 100.331 34.7418 100.331C35.2769 100.331 35.7111 100.765 35.7111 101.299Z" fill="#9DA6AA"/>
<path d="M65.4555 93.6406H64.6611V102.421H65.4555V93.6406Z" fill="#808789"/>
<path d="M67.5196 102.083C67.5196 103.441 66.4179 104.541 65.0585 104.541C63.6991 104.541 62.5974 103.441 62.5974 102.083C62.5974 100.725 63.6991 99.625 65.0585 99.625C66.4179 99.625 67.5196 100.725 67.5196 102.083Z" fill="#B5C0C6"/>
<path d="M65.0587 104.695C63.6165 104.695 62.4431 103.523 62.4431 102.083C62.4431 100.643 63.6165 99.4707 65.0587 99.4707C66.5008 99.4707 67.6742 100.643 67.6742 102.083C67.6742 103.523 66.5008 104.695 65.0587 104.695ZM65.0587 99.9886C63.9026 99.9886 62.9616 100.928 62.9616 102.083C62.9616 103.238 63.9026 104.177 65.0587 104.177C66.2148 104.177 67.1557 103.238 67.1557 102.083C67.1557 100.928 66.2148 99.9886 65.0587 99.9886Z" fill="#676D70"/>
<path d="M66.0275 102.082C66.0275 102.617 65.5933 103.05 65.0582 103.05C64.5231 103.05 64.0889 102.617 64.0889 102.082C64.0889 101.548 64.5231 101.114 65.0582 101.114C65.5933 101.114 66.0275 101.548 66.0275 102.082Z" fill="#9DA6AA"/>
<path d="M76.2006 98.3067H45.9297V76.182C45.9297 74.1104 47.2316 72.2623 49.1828 71.5618L69.6227 64.2278C72.8253 63.0787 76.1998 65.4494 76.1998 68.848V98.3075L76.2006 98.3067Z" fill="#CCD9E2"/>
<path d="M79.3594 96.0059H32.8931V98.3065H79.3594V96.0059Z" fill="#9FA9AD"/>
<path d="M79.3597 96.0059H46.738V98.3065H79.3597V96.0059Z" fill="#808789"/>
<path d="M76.2014 79.9974H67.5202C66.5391 79.9974 65.7439 79.2032 65.7439 78.2233C65.7439 77.2434 66.5391 76.4492 67.5202 76.4492H76.2014V79.9974Z" fill="#115B6C"/>
<path d="M76.2014 85.0052H67.5202C66.5391 85.0052 65.7439 84.211 65.7439 83.2311C65.7439 82.2512 66.5391 81.457 67.5202 81.457H76.2014V85.0052Z" fill="#115B6C"/>
<path d="M76.2014 90.8118H67.5202C66.5391 90.8118 65.7439 90.0177 65.7439 89.0377C65.7439 88.0578 66.5391 87.2637 67.5202 87.2637H76.2014V90.8118Z" fill="#115B6C"/>
<path d="M40.583 65.0043L40.7422 70.1801L49.7213 70.4807L59.9243 66.7162L59.2568 61.3145L40.583 65.0043Z" fill="#9FA9AD"/>
<path d="M65.1882 55.5664L60.66 62.8681L50.6753 66.7146L51.3719 68.3627L62.0194 64.4336L66.7698 57.102L65.1882 55.5664Z" fill="#CCD9E2"/>
<path d="M65.1878 55.5664H47.5093L43.4035 61.1893L31.8545 66.4784L50.6749 66.7146L60.6596 62.8681L65.1878 55.5664Z" fill="#D9E8F4"/>
<path d="M51.3718 66.4785H31.8547V68.3628H51.3718V66.4785Z" fill="#B5C0C6"/>
<path d="M42.2412 62.7183L43.3571 61.9658H44.3619L43.3019 62.7183H42.2412Z" fill="#9FA9AD"/>
<path d="M44.1382 62.7183L45.2541 61.9658H46.2581L45.1981 62.7183H44.1382Z" fill="#9FA9AD"/>
<path d="M45.7368 62.7183L46.8535 61.9658H47.8575L46.7975 62.7183H45.7368Z" fill="#9FA9AD"/>
<path d="M47.7456 62.7183L48.8615 61.9658H49.8663L48.8063 62.7183H47.7456Z" fill="#9FA9AD"/>
<path d="M49.8667 62.7183L50.9826 61.9658H51.9866L50.9266 62.7183H49.8667Z" fill="#9FA9AD"/>
<path d="M52.2239 62.7183L53.3398 61.9658H54.3438L53.2838 62.7183H52.2239Z" fill="#9FA9AD"/>
<path d="M54.8618 62.7183L55.9777 61.9658H56.9817L55.9218 62.7183H54.8618Z" fill="#9FA9AD"/>
<path d="M39.1414 63.9341L40.2573 63.1816H41.262L40.2013 63.9341H39.1414Z" fill="#9FA9AD"/>
<path d="M41.0386 63.9341L42.1552 63.1816H43.1593L42.0993 63.9341H41.0386Z" fill="#9FA9AD"/>
<path d="M42.6375 63.9341L43.7533 63.1816H44.7581L43.6982 63.9341H42.6375Z" fill="#9FA9AD"/>
<path d="M44.6465 63.9341L45.7624 63.1816H46.7671L45.7064 63.9341H44.6465Z" fill="#9FA9AD"/>
<path d="M46.7673 63.9341L47.8832 63.1816H48.8872L47.8273 63.9341H46.7673Z" fill="#9FA9AD"/>
<path d="M49.1245 63.9341L50.2404 63.1816H51.2444L50.1844 63.9341H49.1245Z" fill="#9FA9AD"/>
<path d="M51.762 63.9341L52.8778 63.1816H53.8818L52.8219 63.9341H51.762Z" fill="#9FA9AD"/>
<path d="M36.5039 65.3062L37.6198 64.5537H38.6246L37.5639 65.3062H36.5039Z" fill="#9FA9AD"/>
<path d="M38.4006 65.3062L39.5173 64.5537H40.5213L39.4614 65.3062H38.4006Z" fill="#9FA9AD"/>
<path d="M39.9998 65.3062L41.1156 64.5537H42.1204L41.0605 65.3062H39.9998Z" fill="#9FA9AD"/>
<path d="M42.0083 65.3062L43.1242 64.5537H44.129L43.069 65.3062H42.0083Z" fill="#9FA9AD"/>
<path d="M44.1289 65.3062L45.2448 64.5537H46.2488L45.1888 65.3062H44.1289Z" fill="#9FA9AD"/>
<path d="M46.4866 65.3062L47.6025 64.5537H48.6064L47.5465 65.3062H46.4866Z" fill="#9FA9AD"/>
<path d="M49.1245 65.3062L50.2404 64.5537H51.2444L50.1844 65.3062H49.1245Z" fill="#9FA9AD"/>
<path d="M45.4519 60.5408C45.4834 60.4133 48.0296 56.5361 48.0296 56.5361H62.924L48.6073 56.9808L45.4519 60.5408Z" fill="#9FA9AD"/>
<path d="M59.9628 59.5861C59.5672 60.2701 58.8761 60.6117 58.4198 60.348C57.9635 60.0844 57.9139 59.317 58.3087 58.6322C58.7043 57.9482 59.3946 57.6067 59.8517 57.8703C60.308 58.134 60.3576 58.9014 59.9628 59.5861Z" fill="#115B6C"/>
<path d="M56.9279 58.3897C56.7246 58.7416 56.3692 58.9171 56.1336 58.7817C55.8987 58.6463 55.8735 58.2512 56.0768 57.8986C56.2801 57.5468 56.6356 57.3713 56.8704 57.5066C57.1053 57.642 57.1313 58.0371 56.9271 58.389L56.9279 58.3897Z" fill="#9FA9AD"/>
<path d="M56.1333 60.1114C55.93 60.4632 55.5745 60.6388 55.3397 60.5034C55.1049 60.368 55.0789 59.9729 55.283 59.6203C55.4863 59.2685 55.8417 59.0929 56.0765 59.2283C56.3114 59.3637 56.3374 59.7588 56.1333 60.1106V60.1114Z" fill="#9FA9AD"/>
<path d="M73.5753 38.0732H43.8198V54.0281H73.5753V38.0732Z" fill="#CCD9E2"/>
<path d="M72.1802 39.3799H45.2136V52.7224H72.1802V39.3799Z" fill="#808789"/>
<path d="M47.0117 40.6982H72.2051V39.3799H45.2385V52.7224H47.0117V40.6982Z" fill="#6E7475"/>
<path opacity="0.07" d="M45.2385 49.4151L53.2838 39.3799H55.7623L45.2385 52.7224V49.4151Z" fill="white"/>
<path opacity="0.07" d="M51.762 52.7224L62.9232 39.3799H65.7429L58.7213 52.7224H51.762Z" fill="white"/>
<path opacity="0.07" d="M64.5388 52.7224L72.1814 42.6328V44.8398L67.9882 52.7224H64.5388Z" fill="white"/>
<defs>
<clipPath id="clip0_1292_78614">
<rect width="54" height="67" fill="white" transform="translate(28.9297 40.0674)"/>
</clipPath>
</defs>
</svg>
