<svg width="114" height="163" viewBox="0 0 114 163" fill="none" xmlns="http://www.w3.org/2000/svg">
<path d="M57.273 134.86C34.0972 134.86 13.3028 120.136 5.55514 98.2345C3.44216 92.2645 2.3689 86.1268 2.3689 79.9555C2.3689 73.7843 3.37508 68.0155 5.35391 62.2131L5.52161 61.7436C13.2692 39.8759 34.0637 25.085 57.273 25.085C63.3101 25.085 69.3137 26.1247 75.1495 28.1371C79.3084 29.5792 83.3667 31.5581 87.1566 34.0065C102.82 44.2025 112.144 61.3747 112.144 79.9555C112.144 81.666 112.043 83.4436 111.875 85.3218C109.125 113.562 85.6474 134.86 57.2394 134.86H57.273Z" fill="#181C36"/>
<path d="M57.273 132.008C35.3046 132.008 15.5834 118.056 8.23828 97.2951C6.22591 91.627 5.21973 85.7911 5.21973 79.9552C5.21973 74.1194 6.15883 68.6524 8.03704 63.152L8.1712 62.783C15.5499 41.9215 35.2711 27.9355 57.273 27.9355C63.0082 27.9355 68.7099 28.9082 74.2439 30.8199C78.2016 32.1951 82.0251 34.0733 85.6138 36.3875C100.438 46.0469 109.326 62.3135 109.326 79.9552C109.326 81.5987 109.226 83.2756 109.058 85.0197C106.475 111.784 84.2051 131.975 57.273 131.975V132.008Z" fill="#3D4787"/>
<path d="M84.0702 38.8028C80.7498 36.6227 77.1276 34.8451 73.3376 33.5371C68.3067 31.793 62.9404 30.8204 57.3057 30.8204C35.8405 30.7868 17.6621 44.538 10.9207 63.689C10.8871 63.8232 10.8201 63.9574 10.753 64.0915C9.04247 69.0889 8.06982 74.4217 8.06982 79.9892C8.06982 85.5568 9.10955 91.2249 10.9207 96.3565C17.6621 115.44 35.8405 129.158 57.2387 129.158C82.7957 129.158 103.758 109.672 106.173 84.7854C106.34 83.209 106.408 81.5991 106.408 79.9892C106.408 62.7164 97.486 47.5566 84.0032 38.8028H84.0702Z" fill="#2A3069"/>
<path d="M102.681 138.172L97.7636 137.974C68.9187 136.8 40.0322 136.684 11.1744 137.61C5.83452 137.577 1.53139 133.201 1.56433 127.837L1.61537 119.526C1.6442 114.833 3.36521 112.046 8.79397 110.474C10.1753 110.077 11.5907 109.856 13.0231 109.732C15.2639 109.552 19.5434 109.199 24.5961 108.789C46.2482 107.025 68.0116 107.159 89.6404 109.188L101.289 110.283C102.72 110.416 104.141 110.645 105.517 111.042C111.102 112.638 112.499 115.513 112.47 120.216L112.419 128.526C112.386 133.89 108.029 138.213 102.69 138.18L102.681 138.172Z" fill="#2A3069"/>
<path fill-rule="evenodd" clip-rule="evenodd" d="M102.909 135.923C106.9 135.838 110.138 132.571 110.163 128.513L110.214 120.202C110.227 118.033 109.899 116.694 109.245 115.749C108.608 114.83 107.413 113.93 104.898 113.211L104.893 113.209C103.689 112.862 102.414 112.653 101.081 112.53L101.078 112.529L89.4297 111.434C89.4295 111.434 89.4298 111.434 89.4297 111.434C67.932 109.417 46.3001 109.284 24.7793 111.037C22.2085 111.246 19.8338 111.44 17.8271 111.604C15.8986 111.762 14.3094 111.892 13.2107 111.981C11.8809 112.096 10.6198 112.296 9.4194 112.642C6.96524 113.353 5.69254 114.241 4.9829 115.185C4.27558 116.126 3.88411 117.445 3.87124 119.54L3.8202 127.851C3.79494 131.965 7.08212 135.307 11.148 135.353C40.0443 134.428 68.9699 134.544 97.8542 135.72C97.8539 135.72 97.8546 135.72 97.8542 135.72L102.909 135.923ZM13.0231 109.732C11.5907 109.856 10.1753 110.077 8.79397 110.474C3.36521 112.046 1.6442 114.833 1.61537 119.526L1.56433 127.837C1.53139 133.201 5.83452 137.577 11.1744 137.61C40.0322 136.684 68.9187 136.8 97.7636 137.974L102.681 138.172L102.69 138.18C108.029 138.213 112.386 133.89 112.419 128.526L112.47 120.216C112.499 115.513 111.102 112.638 105.517 111.042C104.141 110.645 102.72 110.416 101.289 110.283L89.6404 109.188C68.0116 107.159 46.2482 107.025 24.5961 108.789C22.0211 108.998 19.647 109.192 17.6411 109.356C15.711 109.514 14.122 109.644 13.0231 109.732Z" fill="#181C36"/>
<path d="M39.6032 134.284V122.185C39.6032 121.809 39.5827 121.436 39.5416 121.065C39.5063 120.69 39.4534 120.325 39.3829 119.973C39.3124 119.614 39.2273 119.277 39.1274 118.959C39.1098 118.901 39.0921 118.842 39.0745 118.783C39.0569 118.724 39.0363 118.666 39.0128 118.607H40.5109C40.5344 118.672 40.5579 118.748 40.5814 118.836C40.6108 118.924 40.6401 119.024 40.6695 119.136C40.7165 119.282 40.7723 119.529 40.8369 119.876C40.9016 120.217 40.9574 120.596 41.0044 121.013C41.0572 121.43 41.0837 121.82 41.0837 122.185V134.284H39.6032ZM44.2032 130.054C44.0446 130.054 43.8683 130.042 43.6745 130.019C43.4865 130.001 43.2809 129.975 43.0576 129.939L43.2515 128.6C43.4218 128.635 43.5952 128.665 43.7714 128.688C43.9535 128.706 44.1415 128.714 44.3354 128.714C44.7936 128.714 45.2107 128.606 45.5867 128.388C45.9627 128.165 46.2682 127.851 46.5032 127.445C46.6618 127.175 46.7852 126.87 46.8733 126.529C46.9614 126.188 47.0055 125.812 47.0055 125.401V121.312C47.0055 120.813 46.9291 120.413 46.7763 120.114C46.6236 119.814 46.3064 119.664 45.8246 119.664C45.619 119.664 45.4016 119.679 45.1725 119.708C44.9434 119.738 44.6908 119.782 44.4147 119.841V118.598C44.9317 118.486 45.4486 118.431 45.9656 118.431C46.3651 118.431 46.7088 118.478 46.9966 118.572C47.2904 118.666 47.5342 118.801 47.7281 118.977C48.0042 119.218 48.201 119.535 48.3185 119.929C48.436 120.322 48.4947 120.769 48.4947 121.268V129.983H47.3051L47.12 128.168H47.0319C46.9027 128.391 46.7675 128.597 46.6265 128.785C46.4855 128.973 46.3534 129.126 46.23 129.243C45.9774 129.502 45.6778 129.701 45.3311 129.842C44.9904 129.983 44.6144 130.054 44.2032 130.054ZM55.8088 130.16C55.3976 130.16 55.004 130.119 54.628 130.036C54.252 129.954 53.9113 129.822 53.6058 129.64C53.2885 129.458 52.9977 129.226 52.7334 128.944C52.4749 128.662 52.2516 128.318 52.0636 127.913C51.8345 127.443 51.6642 126.908 51.5525 126.309C51.4468 125.704 51.3939 125.019 51.3939 124.255V118.607H52.8832V124.255C52.8832 125.143 52.9595 125.903 53.1123 126.538C53.2709 127.166 53.503 127.669 53.8084 128.045C54.0258 128.315 54.3049 128.526 54.6456 128.679C54.9863 128.832 55.377 128.908 55.8176 128.908C56.2759 128.908 56.6783 128.829 57.0249 128.67C57.3715 128.506 57.6535 128.283 57.8709 128.001C58.2175 127.566 58.4495 127.017 58.567 126.353C58.6845 125.683 58.7433 124.987 58.7433 124.264C58.7433 123.553 58.6874 122.878 58.5758 122.238C58.4642 121.597 58.2527 121.06 57.9414 120.625C57.6946 120.29 57.3862 120.046 57.0161 119.893C56.6518 119.741 56.2582 119.664 55.8352 119.664C55.7178 119.664 55.5973 119.673 55.4739 119.691C55.3565 119.703 55.236 119.72 55.1126 119.744V118.51C55.2771 118.481 55.4387 118.46 55.5973 118.448C55.7618 118.437 55.9204 118.431 56.0732 118.431C56.4844 118.431 56.8721 118.475 57.2364 118.563C57.6006 118.645 57.9355 118.78 58.241 118.968C58.5582 119.15 58.8373 119.388 59.0781 119.682C59.3249 119.97 59.5305 120.316 59.695 120.722C59.883 121.168 60.024 121.685 60.118 122.273C60.2178 122.86 60.2678 123.521 60.2678 124.255C60.2678 124.855 60.2325 125.407 60.162 125.912C60.0915 126.412 59.9858 126.87 59.8448 127.287C59.6627 127.816 59.4247 128.271 59.131 128.653C58.8431 129.035 58.4995 129.346 58.1 129.587C57.7827 129.775 57.4302 129.916 57.0425 130.01C56.6607 130.11 56.2494 130.16 55.8088 130.16ZM62.2681 129.983V128.776H65.9692C66.0397 128.453 66.0897 128.136 66.119 127.824C66.1543 127.513 66.1719 127.205 66.1719 126.899V121.312C66.1719 121.03 66.1367 120.778 66.0662 120.554C65.9957 120.325 65.8899 120.137 65.7489 119.99C65.6373 119.891 65.5081 119.811 65.3612 119.752C65.2202 119.694 65.0557 119.664 64.8677 119.664C64.6327 119.664 64.3919 119.679 64.1451 119.708C63.8984 119.732 63.6428 119.767 63.3785 119.814V118.563C63.6017 118.516 63.8426 118.484 64.1011 118.466C64.3654 118.442 64.6503 118.431 64.9558 118.431C65.2966 118.431 65.5932 118.463 65.8459 118.528C66.0985 118.592 66.3188 118.683 66.5068 118.801C66.683 118.912 66.8358 119.05 66.965 119.215C67.1001 119.379 67.2117 119.556 67.2999 119.744C67.4174 119.949 67.5055 120.184 67.5642 120.449C67.6289 120.713 67.6612 121.001 67.6612 121.312V126.899C67.6612 127.193 67.6465 127.507 67.6171 127.842C67.5877 128.171 67.5525 128.488 67.5114 128.794C67.4702 129.093 67.4291 129.34 67.388 129.534L67.3087 129.983H62.2681ZM75.1163 129.983V121.903C75.1163 121.209 74.9576 120.698 74.6404 120.369C74.3232 120.034 73.8502 119.823 73.2216 119.735C73.0806 119.705 72.925 119.685 72.7546 119.673C72.5901 119.661 72.4139 119.656 72.2259 119.656C71.9968 119.656 71.7118 119.661 71.3711 119.673C71.0304 119.679 70.6837 119.694 70.3313 119.717C69.9788 119.735 69.6674 119.752 69.3972 119.77V118.536C69.92 118.501 70.3988 118.475 70.8335 118.457C71.2683 118.439 71.6648 118.431 72.0232 118.431C72.7282 118.431 73.2892 118.46 73.7063 118.519C74.1234 118.578 74.5141 118.683 74.8783 118.836C75.2426 118.989 75.5451 119.183 75.786 119.418C76.0268 119.647 76.2207 119.949 76.3676 120.325C76.4498 120.56 76.5086 120.804 76.5438 121.057C76.585 121.309 76.6055 121.591 76.6055 121.903V129.983H75.1163Z" fill="white"/>
<path d="M89.8001 80.2998V78.6998L62.3001 78.1998L62.5001 63.9998H63.7001L63.8001 60.4998H65.2001C66.5001 60.4998 67.5001 59.4998 67.5001 58.1998L67.6001 51.3998C67.6001 50.0998 66.6001 49.0998 65.3001 49.0998H62.7001L62.8001 44.8998L54.4001 44.7998V45.7998L43.3001 45.4998V47.4998H43.8001C43.7001 49.2998 43.5001 53.9998 43.5001 58.6998C43.5001 69.7998 44.8001 71.5998 45.9001 71.9998C46.3001 72.0998 46.6001 72.1998 46.9001 72.1998C47.3001 72.1998 47.6001 72.0998 47.9001 71.9998C48.9001 71.4998 49.4001 70.2998 49.8001 69.0998C50.0001 68.5998 50.2001 67.9998 50.4001 67.5998C50.9001 66.6998 52.8001 66.5998 54.3001 66.5998L54.1001 77.9998L27.1001 77.6998V79.2998H29.4001L29.3001 84.5998H27.6001L27.3001 98.2998C27.3001 99.5998 28.3001 100.6 29.6001 100.6L29.5001 104.2L53.4001 104.6L61.8001 104.7L86.3001 105.1L86.4001 101.5H86.5001C87.8001 101.5 88.8001 100.5 88.8001 99.2998L89.0001 88.3998V87.5998V85.4998H87.5001L87.6001 80.1998L89.8001 80.2998ZM49.2001 67.0998C48.9001 67.5998 48.7001 68.1998 48.5001 68.6998C48.2001 69.6998 47.8001 70.6998 47.2001 70.8998C46.9001 70.9998 46.6001 70.9998 46.1001 70.8998C45.9001 70.7998 44.5001 69.9998 44.5001 58.6998C44.5001 53.8998 44.7001 49.1998 44.8001 47.4998L54.3001 47.6998V48.8998H51.7001C50.4001 48.8998 49.4001 49.8998 49.4001 51.1998V57.9998C49.4001 59.2998 50.4001 60.2998 51.7001 60.2998H53.1001L53.0001 63.8998H54.2001V65.4998C52.7001 65.4998 50.0001 65.4998 49.2001 67.0998Z" fill="black"/>
<path d="M44.7824 69.2995C44.4683 69.2942 44.1332 69.2302 43.7792 69.1081C42.676 68.7262 41.4088 66.868 41.3965 55.789C41.39 49.8021 41.7731 43.872 41.7768 43.813L42.9786 43.8917C42.9748 43.9507 42.5938 49.8459 42.6002 55.7929C42.6134 67.1054 44.0131 67.9167 44.1731 67.9716C44.6249 68.1275 44.9767 68.139 45.2498 68.0063C45.8356 67.721 46.1769 66.7284 46.5073 65.7679C46.7011 65.2047 46.9014 64.6217 47.1676 64.1263C48.2892 62.0395 52.5493 62.5456 53.0315 62.6108L52.871 63.8028C51.3695 63.6029 48.7807 63.6689 48.2284 64.695C48.0084 65.1046 47.8326 65.6166 47.6461 66.158C47.2361 67.3506 46.8123 68.5834 45.7774 69.0871C45.4744 69.2344 45.1419 69.3049 44.7817 69.2988L44.7824 69.2995Z" fill="#D9E8F4"/>
<path d="M60.4624 42.8509L41.2546 42.5254L41.2205 44.5394L60.4282 44.8649L60.4624 42.8509Z" fill="#D9E8F4"/>
<path d="M60.8704 41.8727L52.4758 41.7305L51.4603 101.658L59.8549 101.801L60.8704 41.8727Z" fill="#CCD9E2"/>
<path d="M87.7999 75.7562L25.1367 74.6943L25.1098 76.2841L87.7729 77.346L87.7999 75.7562Z" fill="#9FA9AD"/>
<path d="M85.6997 77.3107L27.3706 76.3223L27.281 81.6092L85.6101 82.5976L85.6997 77.3107Z" fill="#808789"/>
<path d="M32.9691 76.4171L27.3706 76.3223L27.281 81.6103L32.8795 81.7052L32.9691 76.4171Z" fill="#9FA9AD"/>
<path d="M85.701 77.3117L80.1025 77.2168L80.0129 82.5048L85.6114 82.5997L85.701 77.3117Z" fill="#9FA9AD"/>
<path d="M25.564 81.5801L87.1061 82.6229L86.8728 96.3914C86.8514 97.6538 85.8079 98.6613 84.544 98.6398L27.5819 97.6746C26.318 97.6532 25.3093 96.6109 25.3307 95.3486L25.564 81.5801Z" fill="#D9E8F4"/>
<path d="M84.4066 98.6358L27.5813 97.6729L27.5207 101.251L84.3459 102.214L84.4066 98.6358Z" fill="#9FA9AD"/>
<path d="M70.0159 77.0456L43.4094 76.5947L43.3198 81.8817L69.9263 82.3325L70.0159 77.0456Z" fill="#CCD9E2"/>
<path d="M49.8303 45.9178L63.3734 46.1473C64.6415 46.1688 65.6536 47.2145 65.6321 48.481L65.5162 55.3248C65.4947 56.5913 64.4477 57.6021 63.1797 57.5806L49.6366 57.3511C48.3685 57.3296 47.3564 56.2839 47.3779 55.0174L47.4938 48.1737C47.5153 46.9072 48.5623 45.8964 49.8303 45.9178Z" fill="#D9E8F4"/>
<path d="M61.6114 48.108L51.5241 47.937C50.6484 47.9222 49.9265 48.6192 49.9116 49.4938L49.839 53.7792C49.8242 54.6538 50.5221 55.3748 51.3978 55.3897L61.4851 55.5606C62.3608 55.5754 63.0827 54.8784 63.0976 54.0038L63.1702 49.7184C63.185 48.8438 62.4871 48.1228 61.6114 48.108Z" fill="#808789"/>
<path d="M50.7099 54.8578L50.7825 50.5731C50.7974 49.6986 51.5193 49.0015 52.3956 49.0164L62.4823 49.1873C62.7243 49.1914 62.9522 49.2495 63.1561 49.3498C63.0016 48.6495 62.3835 48.1207 61.6344 48.108L51.5477 47.937C50.6721 47.9222 49.9494 48.6192 49.9346 49.4944L49.862 53.7792C49.8512 54.4121 50.2138 54.9648 50.7477 55.2272C50.7215 55.1086 50.7085 54.9848 50.7106 54.8585L50.7099 54.8578Z" fill="#707677"/>
<path d="M61.7711 57.4229L51.0493 57.2412L50.9877 60.8752L61.7095 61.0569L61.7711 57.4229Z" fill="#D9E8F4"/>
<path d="M56.3489 60.9665L53.7153 60.9219L54.749 65.5367L56.271 65.5625L57.7937 65.5883L58.9831 61.0111L56.3489 60.9665Z" fill="#F2F0E2"/>
<path d="M54.1232 59.245C54.1149 59.7311 53.7137 60.1185 53.2269 60.1103C52.7402 60.102 52.3523 59.7013 52.3606 59.2152C52.3688 58.7291 52.7701 58.3416 53.2568 58.3499C53.7435 58.3581 54.1314 58.7589 54.1232 59.245Z" fill="#CCD9E2"/>
<path d="M56.5008 58.4046L55.5618 58.3887L55.5459 59.3265L56.4849 59.3425L56.5008 58.4046Z" fill="#8CCDDD"/>
<path d="M58.2157 58.4349L57.2766 58.4189L57.2607 59.3568L58.1998 59.3727L58.2157 58.4349Z" fill="#8CCDDD"/>
<path d="M60.1976 58.4681L59.2585 58.4521L59.2427 59.39L60.1817 59.4059L60.1976 58.4681Z" fill="#8CCDDD"/>
<path d="M52.1859 59.313C52.2246 59.304 54.3358 58.7238 54.3358 58.7238L52.3542 59.7299L52.1866 59.313L52.1859 59.313Z" fill="#8CCDDD"/>
<path d="M51.0493 57.2412L61.7711 57.4229L61.7602 58.0668L51.0439 57.5631L51.0493 57.2412Z" fill="#CCD9E2"/>
<path d="M57.8147 65.5861L54.7488 65.5342L54.7326 66.4906L57.7985 66.5425L57.8147 65.5861Z" fill="#8CCDDD"/>
<path d="M53.7153 60.9219L58.9831 61.0111L58.6852 62.1571L53.7965 61.2852L53.7153 60.9219Z" fill="#C0CACC"/>
<path d="M87.0707 84.7089L25.5286 83.666L25.515 84.4643L87.0572 85.5072L87.0707 84.7089Z" fill="#707070"/>
<path opacity="0.52" d="M55.063 51.8638C55.4587 51.764 55.8552 51.6176 56.2617 51.6533C56.3324 51.6593 56.4112 51.6765 56.4493 51.7362C56.5693 51.9236 56.137 52.1114 56.2271 52.3148C56.2516 52.3708 56.3101 52.4034 56.3611 52.4373C56.5236 52.5472 56.6442 52.7353 56.6272 52.9301C56.6101 53.1248 56.4248 53.3037 56.2308 53.2722C55.9832 53.2323 55.8771 52.9235 55.6527 52.8126C55.5566 52.765 55.446 52.7576 55.3388 52.7517C53.89 52.666 52.4288 52.6282 50.9836 52.4945C50.4741 52.4474 50.7258 52.1254 51.0628 51.9588C51.535 51.7257 52.2513 51.9837 52.7575 52.0191C53.5281 52.0727 54.3103 52.0523 55.0623 51.8631L55.063 51.8638Z" fill="#D9E8F4"/>
<path opacity="0.52" d="M57.3427 51.756C57.2874 51.8567 57.3183 51.9829 57.3667 52.0874C57.4151 52.1919 57.4801 52.2919 57.4926 52.4061C57.5105 52.5713 57.4143 52.7262 57.3854 52.8899C57.3565 53.0535 57.4594 53.2709 57.6229 53.2407C57.7567 53.2155 57.8028 53.0528 57.881 52.9415C58.0234 52.7379 58.3012 52.6925 58.5485 52.6685C59.7711 52.5491 61.003 52.5295 62.2283 52.61C62.2723 52.6128 62.3197 52.615 62.3579 52.5923C62.4844 52.5154 62.3542 52.3223 62.3732 52.1757C62.3803 52.1222 62.4101 52.0719 62.4034 52.0182C62.389 51.8923 62.2147 51.8722 62.0886 51.8858C61.2627 51.9735 60.4296 51.9937 59.6004 51.9481C59.1855 51.9252 58.7722 51.8853 58.3606 51.8288C58.1747 51.803 57.4534 51.5545 57.342 51.7566L57.3427 51.756Z" fill="#D9E8F4"/>
<path opacity="0.52" d="M58.6321 53.1733C59.8935 53.117 61.1549 53.0608 62.4169 53.0046C62.3579 53.1581 62.1534 53.1787 61.9891 53.1759C60.5847 53.1507 59.2112 53.328 57.8157 53.3875C57.9282 53.1167 58.3967 53.1844 58.6321 53.174L58.6321 53.1733Z" fill="#D9E8F4"/>
<path opacity="0.52" d="M56.7207 51.9128C56.6042 51.9678 56.4657 52.0685 56.5042 52.1914C56.5238 52.2521 56.5816 52.2909 56.6276 52.3349C56.7033 52.4077 56.7505 52.5053 56.8228 52.5814C56.8951 52.6575 57.0104 52.7123 57.1047 52.6651C57.2392 52.598 57.2185 52.4026 57.1776 52.2577C57.1549 52.1791 57.1328 52.1004 57.1101 52.0217C57.1003 51.9886 57.0913 51.9548 57.0732 51.9256C57.0116 51.8257 56.8496 51.8113 56.7711 51.8978L56.7221 51.9121L56.7207 51.9128Z" fill="#D9E8F4"/>
<path opacity="0.68" d="M48.4069 47.7418C48.1811 48.7716 48.1369 49.8409 48.2773 50.8851C48.2944 51.0131 48.3169 51.1467 48.3935 51.251C48.4702 51.3554 48.6183 51.419 48.7335 51.3591C48.798 51.3259 48.8403 51.2614 48.8751 51.1967C49.1853 50.6264 49.1192 49.9379 49.111 49.2887C49.1027 48.6403 49.2003 47.9119 49.7112 47.5112C50.1244 47.1865 50.6906 47.1693 51.2073 47.0709C51.3232 47.0489 51.4441 47.0193 51.5321 46.9405C51.62 46.8616 51.661 46.7181 51.5911 46.6228C51.5346 46.5449 51.4291 46.5246 51.333 46.5127C50.3489 46.395 48.6604 46.5841 48.4063 47.7412L48.4069 47.7418Z" fill="white"/>
<path opacity="0.68" d="M52.3064 46.6309C52.2279 46.7202 52.2254 46.8664 52.3009 46.9584C52.3858 47.0608 52.5326 47.0797 52.6644 47.0909C53.244 47.1378 53.826 47.1607 54.4078 47.1589C54.5502 47.1586 54.6987 47.1549 54.8243 47.0877C54.9499 47.0204 55.0419 46.8681 54.9933 46.7348C54.9315 46.5655 54.7093 46.5329 54.5285 46.5319C54.0987 46.528 53.6695 46.5379 53.2407 46.5609C53.039 46.5719 52.4403 46.4786 52.3057 46.6322L52.3064 46.6309Z" fill="white"/>
<path opacity="0.68" d="M54.7026 62.4517C54.8779 63.1868 55.0531 63.9225 55.2277 64.6576C55.2611 64.7989 55.2984 64.9472 55.3998 65.0506C55.5012 65.1546 55.6884 65.1887 55.7878 65.0826C55.8557 65.0095 55.8603 64.8997 55.8613 64.8009C55.8659 64.0036 55.8423 63.2058 55.7911 62.4104C55.7444 61.6775 54.4862 61.5435 54.7019 62.4517L54.7026 62.4517Z" fill="white"/>
</svg>
