<svg width="99" height="94" viewBox="0 0 99 94" fill="none" xmlns="http://www.w3.org/2000/svg">
<path d="M31.1533 43.064C30.6656 43.064 30.1438 42.9734 29.5911 42.7933C27.8688 42.2295 25.853 39.3786 25.5425 22.1826C25.375 12.8902 25.8136 3.67564 25.8178 3.58398L27.6852 3.67457C27.681 3.76623 27.2445 12.9264 27.411 22.157C27.729 39.7154 29.9229 40.9378 30.1726 41.0188C30.878 41.249 31.4243 41.2575 31.8447 41.0444C32.7464 40.5861 33.2501 39.0365 33.7378 37.537C34.0237 36.6577 34.3193 35.7475 34.7195 34.9717C36.4055 31.703 43.031 32.3765 43.7812 32.465L43.5635 34.3194C41.2277 34.0487 37.2111 34.2193 36.3809 35.8264C36.0501 36.468 35.7908 37.2673 35.5155 38.1125C34.9105 39.9744 34.2852 41.8991 32.692 42.708C32.2257 42.9446 31.7114 43.0629 31.1522 43.0629L31.1533 43.064Z" fill="#D9E8F4"/>
<path d="M54.7951 1.60156H24.9731V4.7285H54.7951V1.60156Z" fill="#D9E8F4"/>
<path d="M55.4031 0.0703125H42.3696V93.1143H55.4031V0.0703125Z" fill="#CCD9E2"/>
<path d="M98.0926 51.9541H0.801758V54.4224H98.0926V51.9541Z" fill="#9FA9AD"/>
<path d="M94.8752 54.4238H4.31348V62.6323H94.8752V54.4238Z" fill="#808789"/>
<path d="M13.0057 54.4238H4.31348V62.634H13.0057V54.4238Z" fill="#9FA9AD"/>
<path d="M94.8772 54.4229H86.1851V62.6331H94.8772V54.4229Z" fill="#9FA9AD"/>
<path d="M1.64648 62.6328H97.1969V84.0098C97.1969 85.9697 95.6037 87.5609 93.6414 87.5609H5.20202C3.23964 87.5609 1.64648 85.9697 1.64648 84.0098V62.6328Z" fill="#D9E8F4"/>
<path d="M93.4282 87.5557H5.20117V93.1115H93.4282V87.5557Z" fill="#9FA9AD"/>
<path d="M70.524 54.4248H29.2148V62.6333H70.524V54.4248Z" fill="#CCD9E2"/>
<path d="M57.2111 24.1855H40.5645V29.8277H57.2111V24.1855Z" fill="#D9E8F4"/>
<path d="M48.8867 29.8252H44.7979L46.5237 36.9609H48.8867H51.2508L52.9767 29.8252H48.8867Z" fill="#F2F0E2"/>
<path d="M45.388 27.2152C45.388 27.9699 44.7753 28.5818 44.0197 28.5818C43.264 28.5818 42.6514 27.9699 42.6514 27.2152C42.6514 26.4605 43.264 25.8486 44.0197 25.8486C44.7753 25.8486 45.388 26.4605 45.388 27.2152Z" fill="#CCD9E2"/>
<path d="M49.0556 25.8496H47.5977V27.3057H49.0556V25.8496Z" fill="#8CCDDD"/>
<path d="M51.7182 25.8486H50.2603V27.3048H51.7182V25.8486Z" fill="#8CCDDD"/>
<path d="M54.7953 25.8496H53.3374V27.3057H54.7953V25.8496Z" fill="#8CCDDD"/>
<path d="M42.3828 27.3705C42.4426 27.3556 45.7043 26.3994 45.7043 26.3994L42.655 28.0133L42.3839 27.3705H42.3828Z" fill="#8CCDDD"/>
<path d="M40.5645 24.1855H57.211V25.1852L40.5645 24.6854V24.1855Z" fill="#CCD9E2"/>
<path d="M51.2846 36.957H46.5244V38.4419H51.2846V36.957Z" fill="#8CCDDD"/>
<path d="M44.7979 29.8252H52.9767L52.5444 31.6118L44.9334 30.387L44.7979 29.8252Z" fill="#C0CACC"/>
<path d="M97.1969 65.8721H1.64648V67.1115H97.1969V65.8721Z" fill="#707070"/>
<path opacity="0.68" d="M46.3716 32.174C46.663 33.3103 46.9543 34.4478 47.2446 35.5841C47.3001 35.8026 47.362 36.0318 47.5221 36.1896C47.6822 36.3484 47.9736 36.3964 48.1252 36.229C48.2287 36.1139 48.233 35.9433 48.2319 35.7898C48.218 34.5522 48.1604 33.3146 48.0601 32.0813C47.9683 30.9449 46.0119 30.7701 46.3705 32.174H46.3716Z" fill="white"/>
<path d="M38.7094 6.64062H59.7364C61.7051 6.64062 63.3036 8.23713 63.3036 10.2035V20.8291C63.3036 22.7954 61.7051 24.3919 59.7364 24.3919H38.7094C36.7406 24.3919 35.1421 22.7954 35.1421 20.8291V10.2035C35.1421 8.23713 36.7406 6.64062 38.7094 6.64062Z" fill="#D9E8F4"/>
<path d="M57.6296 9.05566H40.4313C38.9383 9.05566 37.728 10.3123 37.728 11.8625V19.4582C37.728 21.0084 38.9383 22.2651 40.4313 22.2651H57.6296C59.1226 22.2651 60.3329 21.0084 60.3329 19.4582V11.8625C60.3329 10.3123 59.1226 9.05566 57.6296 9.05566Z" fill="#808789"/>
<path d="M39.2445 21.3431V13.7486C39.2445 12.1986 40.455 10.9417 41.949 10.9417H59.1461C59.5585 10.9417 59.9487 11.0379 60.2991 11.2094C60.0155 9.97327 58.9469 9.05469 57.6696 9.05469H40.4725C38.9797 9.05469 37.7681 10.3115 37.7681 11.8628V19.4572C37.7681 20.579 38.402 21.5475 39.3195 21.9964C39.2715 21.7871 39.2457 21.5681 39.2457 21.3443L39.2445 21.3431Z" fill="#707677"/>
<path d="M36.4766 10.9592C36.4766 9.29855 37.5259 8.3688 39.0605 8.01465" stroke="white" stroke-width="2" stroke-linecap="round"/>
<path d="M61.3581 20.1857C61.3252 21.8042 60.2841 22.6897 58.7812 23.0045" stroke="white" stroke-width="2" stroke-linecap="round"/>
<path d="M40.6017 7.97264C40.8498 7.94173 41.0927 7.92665 41.3424 7.93102C41.6617 7.9366 41.9678 7.88758 42.2856 7.93953" stroke="white" stroke-width="2" stroke-linecap="round"/>
</svg>
