<svg viewBox="0 0 27 32" fill="none" xmlns="http://www.w3.org/2000/svg">
<path d="M15.1749 7.84592C15.0162 7.03751 14.8178 6.30349 14.9468 5.47524C15.0559 4.77098 15.3188 4.12624 15.7006 3.52613C16.0776 2.93595 16.5388 2.38543 17.0496 1.90931C17.4613 1.52246 18.111 0.808288 18.7309 0.937236C18.85 0.962034 18.9492 1.09594 18.9442 1.21497C18.9244 1.77044 18.2499 2.18208 17.8828 2.52926C17.4315 2.95082 16.9951 3.39718 16.638 3.90306C15.8445 5.0388 15.5221 6.45228 15.3832 7.8112C15.3733 7.92032 15.2047 7.96495 15.1799 7.84096L15.1749 7.84592Z" fill="#5E3316"/>
<path d="M14.8479 6.46116C13.6625 6.18839 12.4226 6.08919 11.2919 5.63787C8.91126 4.68563 5.5437 6.12887 4.86424 6.64963C3.63427 7.60683 2.98457 8.69297 2.19103 10.037C1.38758 11.391 1.10985 12.988 0.975939 14.5552C0.772597 16.8713 0.851951 19.2668 1.705 21.4292C2.36958 23.1104 3.47556 24.5785 4.30877 26.1854C4.78489 27.1029 5.18166 28.0799 5.84624 28.8685C7.31924 30.6192 9.78414 31.1102 12.0556 31.3533C13.355 31.4921 14.6594 31.5864 15.9638 31.636C16.792 31.6657 17.6302 31.6806 18.4336 31.4723C20.5762 30.9119 22.0095 28.9231 23.0708 26.9789C23.9536 25.3671 24.7174 23.6858 25.3522 21.9598C26.2797 19.4304 26.9393 16.7176 26.5673 14.0443C26.1954 11.3711 24.6331 8.74752 22.1533 7.69114C20.9382 7.17534 19.5991 7.06127 18.2848 6.95216C17.4814 6.88273 16.673 6.81825 15.8695 6.74882C15.4728 6.7141 15.2347 6.55044 14.8479 6.46116Z" fill="#86B340"/>
<mask id="mask0_1235_16519" style="mask-type:luminance" maskUnits="userSpaceOnUse" x="0" y="5" width="27" height="27">
<path d="M14.8479 6.46116C13.6625 6.18839 12.4226 6.08919 11.2919 5.63787C8.91126 4.68563 5.5437 6.12887 4.86424 6.64963C3.63427 7.60683 2.98457 8.69297 2.19103 10.037C1.38758 11.391 1.10985 12.988 0.975939 14.5552C0.772597 16.8713 0.851951 19.2668 1.705 21.4292C2.36958 23.1104 3.47556 24.5785 4.30877 26.1854C4.78489 27.1029 5.18166 28.0799 5.84624 28.8685C7.31924 30.6192 9.78414 31.1102 12.0556 31.3533C13.355 31.4921 14.6594 31.5864 15.9638 31.636C16.792 31.6657 17.6302 31.6806 18.4336 31.4723C20.5762 30.9119 22.0095 28.9231 23.0708 26.9789C23.9536 25.3671 24.7174 23.6858 25.3522 21.9598C26.2797 19.4304 26.9393 16.7176 26.5673 14.0443C26.1954 11.3711 24.6331 8.74752 22.1533 7.69114C20.9382 7.17534 19.5991 7.06127 18.2848 6.95216C17.4814 6.88273 16.673 6.81825 15.8695 6.74882C15.4728 6.7141 15.2347 6.55044 14.8479 6.46116Z" fill="white"/>
</mask>
<g mask="url(#mask0_1235_16519)">
<g style="mix-blend-mode:screen" opacity="0.29">
<path d="M5.96511 10.2112C3.2671 13.797 4.15983 17.1547 4.13503 17.5068C4.13503 17.4969 4.07055 17.0505 4.11023 17.3183C4.12511 17.4026 4.13503 17.4919 4.14991 17.5762C4.17967 17.7746 4.20942 17.9779 4.24414 18.1763C4.36317 18.9054 4.49212 19.6295 4.64091 20.3536C4.9236 21.7274 5.27573 23.0863 5.77665 24.3956C5.83121 24.5395 5.92047 24.6932 5.95519 24.842C5.95519 24.842 5.76673 24.4204 5.8808 24.6585C5.91552 24.7329 5.94527 24.8073 5.97999 24.8767C6.13374 25.2189 6.30237 25.5512 6.48091 25.8785C6.63466 26.1612 6.79832 26.439 6.9719 26.7068C7.06614 26.8506 7.16037 26.9895 7.2546 27.1333C7.29428 27.1928 7.33396 27.2474 7.37859 27.3069C7.55714 27.5598 7.33891 27.2474 7.26948 27.173C7.72576 27.6838 8.16221 28.1996 8.64328 28.6857C8.89126 28.9336 9.14916 29.1667 9.41698 29.3949C9.68975 29.6329 9.06484 29.1419 9.46657 29.4346C9.60048 29.5288 9.73439 29.623 9.8683 29.7123C10.156 29.9008 10.4585 30.0743 10.766 30.233C10.9048 30.3025 11.0685 30.3521 11.1975 30.4364C11.1528 30.4066 10.7561 30.2678 11.0933 30.3868C11.1776 30.4165 11.2669 30.4513 11.3512 30.481C11.6537 30.5852 11.9662 30.6546 12.2687 30.7687C12.6457 30.9125 13.0226 31.0662 13.2904 31.3787C13.3152 31.4085 13.4293 31.5573 13.2904 31.4035C13.1515 31.2498 13.3747 31.4432 13.4293 31.4729C14.3071 31.9887 14.3369 33.3427 13.4293 33.8486C13.092 34.037 12.7696 34.29 12.3977 34.404C11.8273 34.5826 11.2024 34.4784 10.6321 34.3892C9.97245 34.29 9.33267 34.1065 8.71272 33.8585C7.20501 33.2485 5.74193 32.4004 4.62107 31.2002C2.36446 28.7799 1.08489 25.6405 0.345917 22.4515C-0.0508489 20.7355 -0.328585 18.9897 -0.541847 17.239C-0.74023 15.6073 -0.814623 13.9656 -0.611281 12.329C-0.3881 10.5088 0.0334643 8.60434 1.10969 7.08175C2.23551 5.49469 3.84737 4.55237 5.6477 3.89275C7.19013 3.32735 8.94581 2.88595 10.5974 2.96531C11.4752 3.00994 12.3828 3.12401 13.2011 3.46126C13.6276 3.63485 14.0443 3.81835 14.4311 4.06633C14.7237 4.2548 14.9469 4.46806 15.1552 4.74579C15.1899 4.79539 15.2246 4.84499 15.2643 4.88962C15.1453 4.74084 15.4131 5.06321 15.4032 5.05825C15.7206 5.45997 15.8545 5.95593 15.5817 6.42709C15.3337 6.84865 14.689 6.79906 14.2129 6.65027C14.2129 6.65027 9.33267 5.72779 5.97008 10.1964L5.96511 10.2112Z" fill="#86B340"/>
</g>
<g style="mix-blend-mode:multiply" opacity="0.18">
<path d="M13.514 34.026C16.7179 34.9088 19.9962 33.292 21.975 30.7824C22.8132 29.7161 23.4976 28.5804 24.0928 27.3653C24.7226 26.0807 25.3227 24.7665 25.7641 23.4075C26.6271 20.7591 26.7461 17.8479 26.7164 15.0804C26.6866 12.3824 26.275 9.47113 24.6929 7.20957C23.9142 6.09366 22.9917 5.13647 21.8312 4.41733C20.4475 3.55933 18.3694 2.98897 17.199 4.49668C17.075 4.66035 16.9708 4.82402 16.8964 4.98768C16.6733 5.01744 16.455 5.06208 16.2318 5.12159C15.6367 5.2803 15.3094 6.02919 15.6466 6.56482C16.2467 7.51706 17.0502 8.25108 17.8983 8.97022C18.047 9.09421 18.2058 9.21324 18.3595 9.33227C18.3992 9.36698 18.4736 9.43146 18.5182 9.46618C18.7215 9.63976 18.91 9.82823 19.0886 10.0266C19.1332 10.0712 19.1729 10.1208 19.2126 10.1704C19.2572 10.2448 19.2969 10.3192 19.3117 10.3391C19.4556 10.5722 19.5796 10.8152 19.6936 11.0582C19.7035 11.078 19.8027 11.3211 19.8573 11.4202C19.8623 11.4351 19.8672 11.45 19.8722 11.4649C19.9466 11.6781 20.016 11.8914 20.0805 12.1096C20.2144 12.5709 20.3185 13.0371 20.4128 13.5082C20.4772 13.8356 20.5318 14.1629 20.5814 14.4902C20.5963 14.5696 20.5963 14.758 20.631 14.8275C20.6955 15.373 20.7451 15.9235 20.7748 16.4741C20.8294 17.5255 20.879 18.6761 20.7004 19.7275C20.6806 19.8168 20.6508 19.9656 20.6409 20.0152C20.6161 20.159 20.5913 20.3028 20.5616 20.4417C20.512 20.6897 20.4574 20.9327 20.3979 21.1757C20.2838 21.6469 20.145 22.1081 19.9813 22.5644C19.9317 22.7033 19.8821 22.8372 19.8275 22.9711C19.8275 22.976 19.8275 22.981 19.8226 22.9909C19.7482 23.1546 19.6738 23.3183 19.5944 23.477C19.3812 23.9085 17.8933 27.5438 17.5759 27.9406C15.6417 30.3361 15.6417 31.075 12.4626 31.7198C10.7466 32.0669 11.8129 33.5548 13.514 34.021V34.026ZM14.9324 29.5624C14.9969 29.5574 15.0911 29.5624 15.1507 29.607C15.1457 29.607 15.1358 29.607 15.1308 29.607C15.0812 29.5921 15.0068 29.5772 14.9324 29.5624ZM17.5015 28.7093C17.4519 28.7589 17.4023 28.8085 17.3527 28.8631C17.3527 28.8631 17.3477 28.8631 17.3428 28.868C17.4618 28.7391 17.5015 28.7044 17.5015 28.7093ZM19.1034 10.0266C19.1034 10.0266 19.158 10.0812 19.1977 10.1407C19.1729 10.106 19.1431 10.0712 19.1034 10.0266Z" fill="#86B340"/>
</g>
</g>
<mask id="mask1_1235_16519" style="mask-type:luminance" maskUnits="userSpaceOnUse" x="0" y="5" width="27" height="27">
<path d="M14.8479 6.46116C13.6625 6.18839 12.4226 6.08919 11.2919 5.63787C8.91126 4.68563 5.5437 6.12887 4.86424 6.64963C3.63427 7.60683 2.98457 8.69297 2.19103 10.037C1.38758 11.391 1.10985 12.988 0.975939 14.5552C0.772597 16.8713 0.851951 19.2668 1.705 21.4292C2.36958 23.1104 3.47556 24.5785 4.30877 26.1854C4.78489 27.1029 5.18166 28.0799 5.84624 28.8685C7.31924 30.6192 9.78414 31.1102 12.0556 31.3533C13.355 31.4921 14.6594 31.5864 15.9638 31.636C16.792 31.6657 17.6302 31.6806 18.4336 31.4723C20.5762 30.9119 22.0095 28.9231 23.0708 26.9789C23.9536 25.3671 24.7174 23.6858 25.3522 21.9598C26.2797 19.4304 26.9393 16.7176 26.5673 14.0443C26.1954 11.3711 24.6331 8.74752 22.1533 7.69114C20.9382 7.17534 19.5991 7.06127 18.2848 6.95216C17.4814 6.88273 16.673 6.81825 15.8695 6.74882C15.4728 6.7141 15.2347 6.55044 14.8479 6.46116Z" fill="white"/>
</mask>
<g mask="url(#mask1_1235_16519)">
<g style="mix-blend-mode:multiply" opacity="0.11">
<path d="M-2.22792 22.223C-2.07913 22.3619 -1.92539 22.4908 -1.76668 22.6198C-1.11202 23.1257 -1.03267 23.1852 -1.52862 22.8082C-1.48895 22.838 -1.44927 22.8727 -1.40959 22.9025C-1.04258 23.21 -0.650775 23.5026 -0.254009 23.7704C0.0634036 23.9787 0.390733 24.1672 0.727984 24.3408C0.400653 24.7028 0.157635 25.1194 0.00884771 25.5856C-0.387918 26.8156 0.291542 28.1745 1.32809 28.8341C3.28216 30.0641 5.52389 30.8725 7.7805 31.3387C9.83872 31.7652 11.9664 32.0231 14.0692 32.1124C16.3358 32.2116 18.5329 31.8744 20.5861 30.8924C22.3616 30.0443 23.785 28.6556 24.9406 27.0884C26.1309 25.4765 26.6963 23.5869 26.9542 21.6279C27.0236 21.0774 26.7955 20.507 26.4731 20.0309C26.9344 18.7464 27.2369 17.3924 27.4601 16.0781C27.9312 13.3305 28.0156 10.3944 26.6318 7.87498C26.2251 7.136 25.4812 6.70948 24.6877 6.59541C24.4496 6.16392 24.157 5.75724 23.7999 5.39519C22.6245 4.20489 20.849 3.86268 19.3462 4.56198C18.6469 4.88435 18.4386 5.83659 18.7164 6.4863C19.0139 7.19551 19.6537 7.44349 20.353 7.39886C20.3629 7.39886 20.3729 7.40382 20.3877 7.40878C20.3778 7.40878 20.3828 7.41373 20.4125 7.41869C20.4225 7.42861 20.4621 7.45341 20.5564 7.49309C20.5762 7.50301 20.5861 7.50797 20.596 7.50797C20.6308 7.54764 20.6704 7.59228 20.7002 7.63196C20.6208 7.54764 20.6952 7.64187 20.9234 7.92457C20.963 7.98904 20.9978 8.0684 21.0027 8.0684C21.0374 8.12792 21.2408 8.47012 21.0722 8.2023C20.9382 7.98408 21.0523 8.15767 21.0722 8.23702C21.1118 8.38581 21.1515 8.5346 21.1862 8.68835C21.1961 8.72306 21.2011 8.81233 21.2061 8.83713C21.2061 8.86193 21.2061 8.88673 21.2061 8.89665C21.211 9.0008 21.216 9.10495 21.216 9.20414C21.216 9.33309 21.211 9.46203 21.2011 9.59594C21.1961 9.67034 21.1565 9.93319 21.1813 9.78937C21.1763 9.82904 21.1664 9.85384 21.1664 9.86376C21.1466 9.96791 21.1267 10.0671 21.1019 10.1713C21.0622 10.3498 21.0126 10.5283 20.9581 10.7019C20.9035 10.8755 20.844 11.0541 20.7795 11.2227C20.7597 11.2723 20.7101 11.3665 20.6853 11.4409C20.4175 12.0113 20.1546 12.5816 19.8223 13.1172C19.6537 13.39 19.4702 13.6529 19.2867 13.9108C19.2619 13.9405 19.2371 13.9752 19.2074 14.005C19.1082 14.124 19.009 14.2431 18.9048 14.3571C18.4436 14.8729 17.9377 15.3491 17.4021 15.7855C17.3822 15.8004 17.3674 15.8153 17.3525 15.8252H17.3475C17.2037 15.9293 17.0549 16.0335 16.9061 16.1376C16.6433 16.3162 16.3804 16.4848 16.1076 16.6435C15.7952 16.827 15.4778 17.0006 15.1554 17.1643C14.9917 17.2436 14.8281 17.323 14.6644 17.3974C14.6049 17.4222 14.4759 17.4618 14.4263 17.5015C14.3618 17.5114 14.2478 17.5759 14.1883 17.6007C14.0196 17.6652 13.851 17.7296 13.6824 17.7892C13.365 17.8983 13.0426 18.0024 12.7202 18.0917C12.0259 18.2851 11.3167 18.4339 10.6025 18.543C8.62859 18.7662 6.63484 18.7017 4.66093 18.4686C3.23753 18.2554 1.84885 17.9231 0.445289 17.6156C-0.789645 17.3428 -1.97002 17.814 -2.65444 18.8803C-3.28927 19.8623 -3.08593 21.4245 -2.22296 22.2081L-2.22792 22.223ZM20.482 7.43357C20.482 7.43357 20.5167 7.44349 20.5316 7.44845C20.5464 7.45837 20.5564 7.47325 20.5712 7.48812C20.5415 7.47325 20.5068 7.44845 20.482 7.43357ZM20.4522 7.40381C20.4522 7.40381 20.472 7.40381 20.4869 7.41373C20.477 7.41373 20.4621 7.41373 20.4522 7.41373V7.40878V7.40381ZM20.5216 7.43853C20.5216 7.43853 20.482 7.42365 20.4621 7.41869C20.472 7.41869 20.482 7.41869 20.4968 7.41869C20.5068 7.42365 20.5167 7.43357 20.5266 7.44349L20.5216 7.43853ZM20.5316 7.37902C20.4671 7.38894 20.4274 7.3939 20.4026 7.39886C20.3927 7.39886 20.3828 7.39886 20.3679 7.39886C20.4225 7.39886 20.477 7.38894 20.5316 7.38398V7.37902ZM20.9035 7.89977C20.9035 7.89977 20.8688 7.85514 20.8539 7.8353C20.8639 7.8353 20.8837 7.86505 20.9035 7.89977ZM14.4263 17.5114C14.342 17.5461 14.2577 17.5858 14.1684 17.6205C13.851 17.7644 14.3271 17.5412 14.4263 17.5114ZM20.968 15.2449C21.0077 15.1457 21.0275 15.0862 20.968 15.2449V15.2449Z" fill="#86B340"/>
</g>
<g style="mix-blend-mode:multiply" opacity="0.11">
<path d="M0.2421 24.7671C0.405765 24.9159 0.569429 25.0597 0.743014 25.1986C1.45719 25.7491 1.5415 25.8185 1.00587 25.4019C1.05051 25.4367 1.09018 25.4714 1.13482 25.5061C1.53655 25.8433 1.96307 26.1608 2.39951 26.4534C2.74172 26.6815 3.10377 26.8898 3.47078 27.0783C3.11369 27.475 2.85083 27.9313 2.68717 28.4372C2.25072 29.7812 2.99466 31.2642 4.1304 31.9833C6.26302 33.3273 8.71305 34.2052 11.173 34.721C13.4197 35.1872 15.7457 35.4649 18.037 35.5691C20.5119 35.6782 22.9074 35.3062 25.1491 34.2349C27.0883 33.3075 28.6406 31.7899 29.9053 30.0838C31.2047 28.3231 31.8247 26.2599 32.1024 24.1224C32.1817 23.5223 31.9288 22.8974 31.5767 22.3816C32.0826 20.978 32.4099 19.5 32.6529 18.0667C33.1637 15.0662 33.258 11.8623 31.7453 9.11471C31.3039 8.31126 30.4905 7.84009 29.6226 7.72106C29.3598 7.2499 29.0423 6.8085 28.6505 6.41173C27.366 5.11233 25.4318 4.7354 23.7852 5.50413C23.0214 5.85626 22.7982 6.89777 23.0958 7.60699C23.4231 8.38069 24.1175 8.65346 24.8813 8.59891C24.8912 8.59891 24.9061 8.60387 24.916 8.60883C24.9011 8.60883 24.911 8.61875 24.9408 8.61875C24.9507 8.62867 24.9953 8.65346 25.0995 8.6981C25.1193 8.70802 25.1342 8.71298 25.1441 8.71794C25.1838 8.76258 25.2235 8.80721 25.2582 8.85681C25.1689 8.76258 25.2483 8.87168 25.5012 9.17918C25.5409 9.24861 25.5855 9.33293 25.5855 9.33789C25.6202 9.40236 25.8434 9.77433 25.6649 9.48171C25.5161 9.24365 25.6401 9.43212 25.6649 9.52139C25.7045 9.68505 25.7492 9.84872 25.7889 10.0124C25.7988 10.0521 25.8087 10.1463 25.8087 10.1761C25.8087 10.2058 25.8087 10.2306 25.8087 10.2405C25.8137 10.3546 25.8186 10.4637 25.8186 10.5778C25.8186 10.7216 25.8137 10.8605 25.8037 11.0043C25.7988 11.0886 25.7541 11.3713 25.7839 11.2126C25.774 11.2523 25.769 11.287 25.769 11.292C25.7492 11.406 25.7244 11.5151 25.6996 11.6243C25.655 11.8177 25.6004 12.0111 25.5409 12.2045C25.4814 12.3979 25.4169 12.5864 25.3475 12.7749C25.3276 12.8245 25.2731 12.9336 25.2483 13.0129C24.9557 13.6378 24.668 14.2578 24.3059 14.843C24.1224 15.1406 23.9241 15.4282 23.7207 15.7109C23.691 15.7457 23.6662 15.7804 23.6364 15.8151C23.5273 15.944 23.4182 16.073 23.3041 16.197C22.7982 16.7574 22.2477 17.2782 21.6625 17.7592C21.6427 17.7741 21.6228 17.789 21.6079 17.8039C21.6079 17.8039 21.603 17.8039 21.598 17.8088C21.4393 17.9229 21.2806 18.037 21.1169 18.1461C20.8342 18.3395 20.5416 18.523 20.2441 18.7016C19.9068 18.9049 19.5596 19.0934 19.2075 19.2669C19.029 19.3562 18.8504 19.4405 18.6719 19.5248C18.6074 19.5546 18.4685 19.5943 18.414 19.6389C18.3445 19.6488 18.2206 19.7183 18.1561 19.748C17.9726 19.8175 17.7891 19.8869 17.6006 19.9514C17.2534 20.0754 16.9013 20.1845 16.5492 20.2837C15.7904 20.4969 15.0167 20.6556 14.238 20.7747C12.0806 21.0177 9.90335 20.9482 7.75089 20.6953C6.19855 20.4622 4.68091 20.1002 3.14841 19.7629C1.7994 19.4653 0.509916 19.9811 -0.23898 21.1417C-0.93332 22.2179 -0.710141 23.9141 0.232178 24.777L0.2421 24.7671ZM25.03 8.62371C25.03 8.62371 25.0697 8.63363 25.0846 8.63859C25.0995 8.65346 25.1144 8.66834 25.1292 8.68322C25.0995 8.66338 25.0598 8.64355 25.03 8.62371ZM25.0003 8.58899C25.0003 8.58899 25.0201 8.58899 25.04 8.60386H25.0003C25.0003 8.60386 25.0003 8.59395 25.0003 8.58899ZM25.0747 8.62866C25.0747 8.62866 25.035 8.61379 25.0102 8.60883C25.0201 8.60883 25.035 8.60883 25.0449 8.60883C25.0548 8.61379 25.0648 8.62371 25.0747 8.63363V8.62866ZM25.0846 8.56419C25.0152 8.57411 24.9705 8.57907 24.9457 8.58899C24.9358 8.58899 24.9209 8.58899 24.911 8.58899C24.9705 8.58899 25.03 8.57907 25.0896 8.56915L25.0846 8.56419ZM25.4913 9.13454C25.4913 9.13454 25.4566 9.08495 25.4367 9.06511C25.4467 9.06511 25.4665 9.09983 25.4913 9.13454ZM18.4239 19.624C18.3297 19.6637 18.2354 19.7034 18.1462 19.7431C17.799 19.9018 18.3148 19.6538 18.4289 19.624H18.4239ZM25.5657 17.1492C25.6103 17.0401 25.6302 16.9756 25.5657 17.1492V17.1492Z" fill="#86B340"/>
</g>
<g style="mix-blend-mode:multiply" opacity="0.11">
<path d="M0.950907 27.6235C1.08482 27.7971 1.22369 27.9706 1.36751 28.1393C1.97258 28.8088 2.04698 28.8881 1.58574 28.3872C1.62045 28.4269 1.65517 28.4715 1.69484 28.5112C2.03209 28.9129 2.39415 29.3048 2.77107 29.6668C3.06865 29.9545 3.38606 30.2173 3.71339 30.4703C3.29183 30.7976 2.94962 31.1993 2.70164 31.6655C2.03706 32.9104 2.49829 34.5024 3.49021 35.41C5.35005 37.1111 7.6017 38.4105 9.9327 39.3529C12.0604 40.2109 14.2971 40.9002 16.5389 41.4061C18.9542 41.9566 21.3794 42.0161 23.7749 41.3565C25.848 40.7911 27.6483 39.5711 29.1907 38.113C30.7827 36.6102 31.7598 34.6909 32.4144 32.6376C32.5979 32.0623 32.4591 31.4026 32.2061 30.8323C32.9501 29.5428 33.5403 28.1442 34.0313 26.7803C35.0678 23.9187 35.7324 20.7842 34.7306 17.8085C34.4379 16.9356 33.7238 16.3305 32.8856 16.0577C32.712 15.5469 32.474 15.0559 32.1615 14.5996C31.1299 13.0919 29.2899 12.3777 27.5392 12.839C26.7258 13.0522 26.9292 13.5581 27.0978 14.312C27.2813 15.1353 27.3061 15.9982 28.0699 16.0825C28.0798 16.0825 28.0897 16.0924 28.1046 16.0974C28.0897 16.0974 28.0996 16.1024 28.1294 16.1123C28.1393 16.1272 28.174 16.1569 28.2682 16.2214C28.2881 16.2313 28.298 16.2412 28.3079 16.2462C28.3377 16.2958 28.3674 16.3503 28.3972 16.3999C28.3278 16.2908 28.3873 16.4099 28.5807 16.757C28.6105 16.8364 28.6353 16.9257 28.6353 16.9306C28.66 17.005 28.8138 17.4067 28.6848 17.0844C28.5807 16.8265 28.67 17.0298 28.6749 17.1191C28.6848 17.2877 28.6997 17.4563 28.7096 17.625C28.7096 17.6646 28.7047 17.7589 28.6997 17.7886C28.6997 17.8184 28.6948 17.8432 28.6898 17.8531C28.6749 17.9622 28.66 18.0763 28.6402 18.1854C28.6154 18.3243 28.5857 18.4631 28.5509 18.602C28.5311 18.6813 28.4369 18.9541 28.4964 18.8053C28.4815 18.845 28.4716 18.8748 28.4666 18.8797C28.427 18.9839 28.3823 19.093 28.3377 19.1971C28.2583 19.3806 28.169 19.5642 28.0798 19.7377C27.9855 19.9163 27.8913 20.0899 27.7872 20.2635C27.7574 20.313 27.688 20.4023 27.6483 20.4817C27.2466 21.0421 26.8548 21.6025 26.3935 22.1183C26.1604 22.3812 25.9124 22.6242 25.6595 22.8672C25.6248 22.897 25.5901 22.9267 25.5603 22.9515C25.4314 23.0607 25.2975 23.1648 25.1635 23.269C24.5684 23.7302 23.9336 24.1468 23.274 24.5138C23.2492 24.5287 23.2293 24.5386 23.2144 24.5485C23.2144 24.5485 23.2095 24.5485 23.2045 24.5485C23.0309 24.6328 22.8524 24.7172 22.6738 24.7965C22.3614 24.9354 22.039 25.0643 21.7166 25.1883C21.3447 25.3272 20.9727 25.4512 20.5958 25.5603C20.4073 25.6148 20.2139 25.6694 20.0254 25.719C19.956 25.7339 19.8122 25.7537 19.7477 25.7835C19.6783 25.7835 19.5444 25.8281 19.4749 25.843C19.2815 25.8826 19.0881 25.9124 18.8946 25.9471C18.5326 26.0066 18.1656 26.0513 17.7986 26.086C17.015 26.1604 16.2264 26.1802 15.4378 26.1604C13.2755 26.0166 11.1428 25.5603 9.06973 24.9304C7.58186 24.4245 3.21744 22.8672 1.76428 22.2622C0.48967 21.7315 -1.11724 22.3118 -2.05955 23.3235C-2.93244 24.2559 0.172256 26.5968 0.940989 27.6086L0.950907 27.6235ZM28.2137 16.147C28.2137 16.147 28.2484 16.1668 28.2633 16.1718C28.2732 16.1867 28.2881 16.2065 28.298 16.2264C28.2732 16.2016 28.2385 16.1718 28.2137 16.147ZM28.1889 16.1073C28.1889 16.1073 28.2087 16.1073 28.2286 16.1272C28.2137 16.1272 28.2038 16.1172 28.1889 16.1172C28.1889 16.1172 28.1889 16.1123 28.1889 16.1073ZM28.2534 16.1619C28.2534 16.1619 28.2137 16.142 28.1938 16.1321C28.2038 16.1321 28.2186 16.1321 28.2286 16.1371C28.2385 16.147 28.2434 16.1569 28.2534 16.1668V16.1619ZM28.2732 16.1024C28.2038 16.1024 28.1591 16.1024 28.1294 16.1024C28.1195 16.1024 28.1046 16.0974 28.0947 16.0925C28.1542 16.0974 28.2137 16.1024 28.2732 16.1073V16.1024ZM28.5757 16.7372C28.5609 16.7124 28.546 16.6826 28.5361 16.6578C28.546 16.6628 28.5609 16.6975 28.5757 16.7372ZM19.7527 25.8083C19.6535 25.8281 19.5543 25.8529 19.4551 25.8727C19.0881 25.967 19.6386 25.8182 19.7576 25.8033L19.7527 25.8083ZM27.2218 24.6428C27.2862 24.5436 27.316 24.4841 27.2218 24.6428V24.6428Z" fill="#86B340"/>
</g>
</g>
<g style="mix-blend-mode:screen" opacity="0.29">
<path d="M13.0029 8.74305C13.0228 9.02079 13.0029 9.28364 12.9285 9.55146C12.7946 10.0474 12.4921 10.3549 12.1251 10.6922C12.0358 10.7814 12.0656 10.7517 12.2143 10.6029C12.1598 10.6574 12.1052 10.717 12.0507 10.7765C11.887 10.9451 11.7283 11.1236 11.5498 11.2824C11.4555 11.3667 11.3613 11.446 11.2671 11.5254C10.9844 11.7634 11.52 11.2328 11.2571 11.5254C11.0935 11.7089 10.9447 11.8973 10.8009 12.0957C10.5529 12.433 10.9794 11.689 10.8108 12.0709C10.7562 12.1949 10.6918 12.3189 10.6422 12.4478C10.6074 12.5322 10.5777 12.6214 10.5529 12.7057C10.5777 12.6165 10.6025 12.5222 10.6322 12.433C10.6471 12.4379 10.5727 12.7801 10.5678 12.8347C10.5281 13.162 10.5182 13.4894 10.5182 13.8167C10.5182 13.6134 10.5182 13.41 10.5182 13.2067C10.5479 14.8334 10.905 16.4701 11.3365 18.0323C11.2671 17.7893 11.2026 17.5463 11.1332 17.3033C11.3018 17.9034 11.4208 18.4886 11.5448 19.0937C11.7134 19.9269 11.6638 20.6708 11.3415 21.4693C10.6918 23.0762 8.52442 23.6664 7.1655 22.5703C6.8828 22.3422 6.60507 22.0893 6.38685 21.8016C6.02976 21.3205 5.90081 20.8345 5.7669 20.2691C5.69251 19.9418 5.62308 19.6144 5.57348 19.2821C5.44453 18.4341 5.51893 17.5215 5.5586 16.6635C5.633 15.1409 5.8165 13.6382 6.29262 12.1751C6.73898 10.7963 7.59202 9.53163 8.77736 8.6885C9.09973 8.46036 9.46178 8.20742 9.82383 8.06359C10.1859 7.91976 10.5777 7.82553 10.9497 7.72634C11.5894 7.55276 12.9434 7.87017 13.0079 8.74305H13.0029Z" fill="#86B340"/>
</g>
<path opacity="0.19" d="M3.27693 11.9426C3.60922 12.6717 4.22917 13.2123 4.96318 13.6239C6.36674 14.4125 8.06292 14.9184 9.67478 15.206C11.3908 15.5135 13.1713 15.6077 14.9022 15.3846C16.5487 15.1713 18.0713 14.353 18.2449 12.7361C18.3888 11.3921 17.4663 9.70584 16.0627 9.14541C15.1849 8.79328 14.3269 9.04622 13.4143 9.11565C12.5315 9.18509 11.6388 9.1702 10.756 9.08589C9.98723 9.0115 9.18874 8.87759 8.48448 8.58002C8.48448 8.58002 8.47456 8.58001 8.4696 8.57505C8.38529 8.40147 8.31586 8.22292 8.22658 8.0543C8.00836 7.65257 7.66615 7.30044 7.23467 7.0723C5.4641 6.14982 3.73321 8.25765 3.22734 9.55705C2.92976 10.3159 2.93472 11.1937 3.27197 11.9376L3.27693 11.9426ZM14.4657 12.8056C14.4657 12.8056 14.4558 12.8056 14.4508 12.8056C14.4508 12.8056 14.4608 12.8056 14.4657 12.8056Z" fill="white"/>
<path d="M7.61708 10.1573C7.20544 11.1293 6.5111 11.9377 6.16393 12.9545C6.00026 13.4355 5.88123 13.9117 5.84155 14.4225C5.80188 14.9879 5.84156 15.5235 5.69773 16.0691C5.57374 16.5154 4.97363 16.694 4.64629 16.3468C4.39832 16.0839 4.24953 15.8707 4.16026 15.5086C4.08091 15.1863 4.05611 14.8341 4.07099 14.4969C4.1057 13.8075 4.29913 13.1132 4.58183 12.4883C5.0629 11.412 6.03002 10.1622 7.14097 9.68114C7.47326 9.53732 7.75595 9.82993 7.61708 10.1573Z" fill="white"/>
<path d="M9.09978 7.72611C9.12954 7.75587 9.20393 7.85506 9.22873 7.89473C9.30312 8.01872 9.33784 8.15263 9.33784 8.29646C9.33784 8.44029 9.30312 8.57419 9.22873 8.69818C9.22873 8.69818 9.22873 8.70314 9.22873 8.7081C9.1593 8.82713 9.0601 8.92632 8.94107 8.99576C8.81708 9.07015 8.68318 9.10487 8.53935 9.10487C8.32609 9.09495 8.1277 9.02552 7.97396 8.87177C7.8946 8.79738 7.84005 8.71306 7.81029 8.61387C7.7607 8.51964 7.7359 8.41549 7.74086 8.30638C7.74086 8.01376 7.89461 7.77075 8.13762 7.617C8.25169 7.54756 8.32609 7.53269 8.44016 7.51781C8.50959 7.49797 8.57902 7.49797 8.65342 7.51781C8.68813 7.51781 8.72781 7.52773 8.76253 7.53269C8.69309 7.52277 8.62366 7.51285 8.55423 7.50293C8.76253 7.50293 8.96091 7.58724 9.1097 7.73107L9.09978 7.72611Z" fill="white"/>
</svg>
