<svg viewBox="0 0 53 52" fill="none" xmlns="http://www.w3.org/2000/svg">
<path d="M39.977 11.3501C35.04 8.2891 28.2676 9.20116 23.6199 13.383C23.0892 13.86 22.6269 14.4544 22.232 15.1232C21.4136 14.9696 19.9058 14.7145 18.4413 14.612C14.9281 14.3721 9.01809 16.5689 6.51195 22.4695C3.76714 28.9329 7.6505 38.0768 16.8509 41.2773C23.2751 43.5118 40.2681 38.3094 44.425 31.6334C48.5253 25.0419 46.2946 15.273 39.9788 11.3553L39.977 11.3501ZM18.1383 36.1755C12.5462 33.7295 10.3437 27.6939 12.0382 23.4496C13.2485 20.4087 15.3191 19.429 17.2261 19.4872C18.4319 19.5237 19.663 20.0504 20.3699 20.2328C20.1885 21.3179 20.1379 22.6054 20.3034 24.1225C20.5799 26.6099 22.2339 28.8771 24.6834 30.5568C24.0502 31.6604 23.2373 32.6839 22.283 33.4916C20.9326 34.6344 19.4227 35.5271 18.1383 36.1755ZM31.698 35.5542C28.9142 36.6647 26.3978 37.1874 24.1623 37.2569C24.8327 36.773 25.4092 36.3346 25.739 36.0495C26.9431 35.0004 27.9838 33.8275 28.8382 32.5885C30.0716 32.9925 31.3816 33.2787 32.7383 33.4202C33.3232 33.4812 34.5621 33.6102 35.7395 33.6163C34.6525 34.3616 33.2284 34.9445 31.7015 35.5559L31.698 35.5542ZM39.7027 29.0319C38.1813 29.2957 36.1531 29.5137 34.1068 29.3346C33.0153 29.2364 31.9225 28.9412 30.8904 28.5079C31.7417 25.905 31.7201 23.3193 30.6029 21.2701C29.5653 19.3692 28.0931 18.0672 26.5458 17.1699C26.9432 16.8226 27.4027 16.4703 27.9327 16.1126C32.9808 12.7295 38.3538 15.0343 40.0255 18.9969C40.8432 20.9397 41.7719 25.0873 39.7062 29.0335L39.7027 29.0319Z" fill="#F8A138"/>
<path d="M6.50984 22.4641C3.99219 28.3892 7.04652 36.5673 14.6641 40.353C15.0135 39.2912 14.3436 37.469 13.7984 36.8244C12.5252 35.3254 11.24 34.4871 10.7499 32.382C9.93882 28.9004 7.46201 25.3457 9.92574 21.9494C11.059 20.3887 12.0699 19.3428 13.9055 18.7182C14.6504 18.4657 15.3562 18.1693 16.1099 18.143C16.9103 18.1173 17.7303 18.4126 18.5466 18.2619C20.0333 17.9904 20.5747 16.2201 20.0788 14.817C20.0733 14.8016 20.0677 14.7862 20.0604 14.7656C19.5375 14.6995 18.9855 14.6411 18.4373 14.6015C14.9241 14.3616 9.01413 16.5584 6.50799 22.459L6.50984 22.4641Z" fill="#F6892E"/>
<path d="M39.9776 11.3498C35.0407 8.28874 28.2682 9.2008 23.6206 13.3827C23.1051 13.8454 22.6561 14.4205 22.2692 15.0632C23.3225 15.515 25.8732 14.9101 26.4158 14.5712C27.2356 14.0592 27.7351 13.4309 28.7219 13.1895C29.5989 12.9733 30.5097 13.0208 31.3878 12.7839C33.9159 12.1001 37.2546 12.1129 39.2548 14.2052C40.5806 15.5922 40.8574 17.7253 41.4217 19.4637C41.9188 20.9913 43.3995 22.0666 42.7691 23.7268C42.2458 25.0956 41.5002 26.0482 41.6776 27.6307C41.8224 28.9287 42.7808 30.1816 44.2777 29.3981C44.9733 29.0328 45.5176 27.7464 45.9725 27.1314C46.0812 26.9817 46.1847 26.8338 46.2796 26.6862C47.2838 20.8535 44.8429 14.3729 39.983 11.3566L39.9776 11.3498Z" fill="#F6892E"/>
<path d="M22.7453 14.7444C22.1456 15.5861 21.8702 16.1273 21.7648 17.214C21.6507 18.3734 21.144 19.3528 20.8341 20.4758C20.2401 22.6485 20.6984 24.9395 21.8827 26.8366C22.3958 27.6584 23.1347 28.9706 24.064 29.3599C24.8399 29.6857 25.8445 29.1793 26.4186 28.4921C27.0883 27.6918 26.9803 26.4153 26.5064 25.6461C25.6679 24.2829 24.7422 23.1691 24.2033 21.6305C23.7236 20.2564 23.8305 19.2302 24.7333 18.0695C25.4117 17.1964 25.9693 16.6894 26.2392 15.6245C26.4947 14.6083 27.7842 13.958 27.6485 12.8949C27.4621 11.4406 25.5947 12.3962 24.89 12.817L22.7436 14.7478L22.7453 14.7444Z" fill="#F6892E"/>
<path d="M29.6737 22.2509C29.3219 21.2486 28.7481 20.3471 28.0166 19.5638C27.2905 18.7872 26.7083 18.4754 25.7687 18.3802L25.5685 18.3802C24.4913 19.1771 24.9884 20.4142 25.356 21.5008C25.8238 22.8822 26.5805 24.002 27.1107 25.323C27.5274 26.3686 27.9442 27.2775 27.7401 28.4203C27.5511 29.4762 26.8639 30.4862 26.1999 31.3105C25.4973 32.1809 24.4598 32.7572 23.5961 33.4623C22.6496 34.2351 21.6139 34.8892 20.6757 35.6532C20.3878 35.8854 19.6601 36.5005 19.7759 36.9435C19.8556 37.2457 20.773 37.5697 21.0728 37.6207C22.2635 37.8253 23.374 36.1769 24.0532 35.3383C24.8782 34.3162 25.9725 33.5828 26.7373 32.4982C27.5923 31.2852 28.6194 30.0504 29.4128 28.7871C29.9318 27.963 30.1773 26.4509 30.2418 25.4604C30.3127 24.3747 30.0365 23.284 29.6737 22.2509Z" fill="#F6892E"/>
<path d="M40.767 29.6771C40.497 29.1361 40.3218 29.1734 39.7895 29.1456C37.864 29.036 36.0021 29.4261 34.0488 29.312C33.1777 29.2618 32.1648 28.6965 31.3306 28.7491C30.2723 28.816 29.4578 30.1335 29.5855 31.0776C29.6044 31.2188 29.7656 31.6106 29.7674 31.6157L29.7861 31.6757C30.5439 32.6935 32.1682 32.1833 33.2535 32.095C33.9444 32.0392 34.6012 31.929 35.2575 32.1645C35.8913 32.3937 36.3583 32.6514 37.0444 32.6874C38.23 32.7486 40.0812 32.6353 40.7855 31.4711C41.111 30.932 41.041 30.2371 40.7619 29.679L40.767 29.6771Z" fill="#F6892E"/>
<path d="M36.2471 36.0103C34.93 36.0113 33.6686 36.8285 32.5378 37.4038C31.1222 38.123 29.9074 38.7956 28.3355 39.1851C25.7271 39.8312 23.0994 39.7379 20.4465 39.4534C18.9461 39.2914 17.7527 38.7567 16.3928 38.1866C15.2891 37.7239 14.0489 37.9062 13.2671 36.9668L12.9266 36.9479C12.6907 36.7517 12.3947 36.8647 12.2809 37.1616C12.1556 37.4829 12.5263 38.1182 12.6639 38.3878C12.9771 39.0003 13.4052 39.6584 13.8864 40.1491C14.5532 40.8252 15.5751 41.2623 16.4608 41.5628C18.4759 42.244 20.5519 42.2236 22.5763 42.0592C23.7099 41.9679 24.8365 42.1637 25.9817 41.9027C27.2556 41.6124 28.3946 41.0195 29.5882 40.5463C30.734 40.0934 31.8438 39.5808 33.0064 39.1828C33.741 38.934 34.5062 38.8106 35.2234 38.481C35.7767 38.2282 36.5279 38.0257 37.0132 37.6727C37.2864 37.472 37.8093 36.9573 37.7585 36.5662C37.6781 35.939 36.7321 36.0117 36.254 36.0136L36.2471 36.0103Z" fill="#F6892E"/>
<path d="M20.8316 26.036C21.3339 27.9247 22.6262 29.6462 24.4352 31.0294C24.5334 30.8747 24.6281 30.7185 24.7193 30.5605C22.9154 29.3207 21.5407 27.7655 20.8316 26.036Z" fill="#DB772C"/>
<path d="M31.1953 22.838C31.6559 24.5705 31.5145 26.5414 30.8659 28.5219C31.0333 28.592 31.2023 28.6585 31.3764 28.7232C31.9378 26.6291 31.9167 24.5776 31.1953 22.838Z" fill="#DB772C"/>
<path d="M17.5159 20.3572C18.516 20.3869 19.5328 20.7532 20.2547 20.9853C20.2828 20.7167 20.3163 20.4547 20.3553 20.2083C19.6484 20.0259 18.4173 19.4991 17.2116 19.4626C15.3045 19.4044 13.2375 20.3858 12.0236 23.425C11.2318 25.4109 11.2952 27.7898 12.154 30.0082C11.5915 28.0571 11.6386 26.0419 12.3244 24.318C13.5348 21.2772 15.6054 20.2974 17.5124 20.3556L17.5159 20.3572Z" fill="#DB772C"/>
<path d="M44.4141 31.6021C40.2607 38.2797 23.2642 43.4806 16.8434 41.2477C11.5766 39.4156 8.05369 35.6388 6.51832 31.531C7.85632 35.9775 11.4982 40.1817 17.1461 42.1457C23.5704 44.3803 40.5634 39.1778 44.7168 32.5002C47.1643 28.5667 47.3547 23.4966 45.7705 19.2206C47.0185 23.2961 46.6955 27.9408 44.4141 31.6021Z" fill="#DB772C"/>
<path d="M32.7304 33.3897C31.3738 33.2482 30.0637 32.962 28.8303 32.5581C27.9642 33.8129 26.9116 34.993 25.7311 36.0191C25.3997 36.3076 24.7651 36.7699 24.0947 37.2539C24.6346 37.2383 25.2142 37.22 25.7839 37.15C25.8652 37.0857 25.9712 36.9689 26.0355 36.9136C27.2396 35.8645 28.2802 34.6916 29.1346 33.4526C30.368 33.8566 31.6781 34.1428 33.0347 34.2843C33.3151 34.3134 33.7784 34.343 34.2482 34.3586C34.7543 34.0794 35.8719 33.8225 36.3118 33.5208C35.1379 33.5163 33.3204 33.4489 32.7355 33.3878L32.7304 33.3897Z" fill="#DB772C"/>
<path d="M40.0173 18.9671C38.3455 15.0045 32.9777 12.6979 27.9245 16.0828C27.3944 16.4405 26.9315 16.7912 26.5376 17.1401C26.8019 17.2941 27.0647 17.4602 27.3227 17.6369C27.5989 17.4206 27.8975 17.202 28.2271 16.9809C33.2752 13.5978 38.6482 15.9026 40.3199 19.8651C40.353 19.949 40.3896 20.0345 40.4263 20.1286C40.2967 19.6877 40.1563 19.2971 40.0173 18.9671Z" fill="#DB772C"/>
<path d="M22.2649 15.0607C22.2649 15.0607 21.1872 16.639 20.7939 17.74C20.4006 18.8409 20.2383 20.7294 20.2383 20.7294L19.7797 20.7533C19.7797 20.7533 19.5893 19.7157 19.9987 18.3447C20.5812 16.4143 21.9888 15.0677 21.9888 15.0677L22.2649 15.0607Z" fill="#DB772C"/>
<path d="M24.8794 19.6841C25.4179 17.7928 26.856 16.9261 26.856 16.9261L27.3234 17.6367C27.3234 17.6367 26.7824 18.1173 26.402 18.746C25.2297 20.6985 25.4628 21.7176 25.7351 22.4263C26.0073 23.1351 26.6791 24.2363 26.7199 24.358C26.7608 24.4797 26.7499 24.7479 26.7499 24.7479C26.7499 24.7479 25.9174 23.5626 25.605 22.8394C25.2943 22.1127 24.4156 21.3071 24.8761 19.691L24.8794 19.6841Z" fill="#DB772C"/>
<path d="M29.1892 30.9802C29.8343 29.7241 30.8674 28.522 30.8674 28.522L31.4215 28.5216C31.4215 28.5216 30.3212 30.0936 30.2637 30.2161C29.7137 31.3332 29.1778 33.1189 29.1778 33.1189L28.58 33.0219C28.58 33.0219 28.569 32.1924 29.1892 30.9802Z" fill="#DB772C"/>
<path d="M24.3243 30.5674C24.771 30.1151 25.9862 29.1694 26.4477 28.1773C27.2986 26.3559 26.6428 24.6128 26.6428 24.6128L26.6495 24.2444C26.6495 24.2444 27.6654 26.464 26.9127 27.9856C25.8816 30.0727 24.4613 30.8837 24.4613 30.8837L24.3208 30.5657L24.3243 30.5674Z" fill="#DB772C"/>
<path d="M25.8334 36.5204L24.3683 37.1181C23.8768 37.212 22.472 38.8973 20.5568 39.147C19.0218 39.3489 18.5462 38.8736 18.1223 38.5422C17.5385 38.0887 17.4346 38.0015 17.5629 38.4632C17.7325 39.0639 18.2878 39.4058 18.8881 39.6065C20.0417 39.99 21.6663 39.5697 22.6868 39.2202C23.4847 38.9456 24.2086 38.3928 24.9108 37.9409C25.2287 37.7356 25.4754 37.5098 25.7418 37.2419C25.8683 37.1176 26.3454 36.4917 25.8299 36.5187L25.8334 36.5204Z" fill="#DB772C"/>
<path d="M40.355 28.9401C39.9141 28.9809 40.2537 29.1104 40.488 29.2375C40.7084 29.3581 40.8684 29.6254 41 29.8623C41.1082 30.0583 41.1684 30.5564 41.1735 30.7723C41.2071 32.4795 40.0198 33.1479 38.5508 33.3637C37.9093 33.4596 36.2979 33.4976 35.4808 33.541C34.9688 33.5697 35.2647 33.7471 34.7534 33.6565L34.3745 33.6196C34.282 33.7257 33.3018 33.9531 33.9951 34.2914C34.2483 34.4146 34.6997 34.4514 34.971 34.3908C35.4656 34.2813 39.0316 33.9097 39.5621 33.7872C40.7364 33.5184 41.7602 32.5085 41.7524 31.5994C41.7371 29.3541 40.6168 28.9179 40.355 28.9401Z" fill="#DB772C"/>
<path opacity="0.2" d="M10.856 18.4346C10.4298 18.5891 8.98522 19.4698 7.8938 21.6311C7.55574 22.2967 7.27743 23.08 7.08579 23.8059C6.58339 25.6927 6.25452 27.6909 6.90053 29.6002C7.21245 30.524 7.68946 31.7858 8.74505 32.0422C9.69466 32.2702 9.88918 31.4475 9.72204 30.7327C9.47379 29.6551 8.9906 28.6424 8.91938 27.5326C8.83174 26.1674 8.70529 24.8396 9.20623 23.5457C9.57881 22.5888 10.4289 21.8219 11.2005 21.1676C11.7944 20.6648 12.5348 20.0771 12.4594 19.2302C12.374 18.3231 11.616 18.1679 10.8613 18.4414L10.856 18.4346Z" fill="#FEF3AF"/>
<path opacity="0.2" d="M23.0228 16.8691C22.7702 17.0622 22.3308 18.1886 22.3099 18.1787L22.3113 18.3118C22.2585 19.1412 21.9373 19.9343 21.7582 20.7514C21.4889 21.9875 21.5804 23.3716 21.9283 24.5728C22.0599 25.0275 22.9967 27.0434 23.7229 26.15C24.1372 25.6398 23.3084 24.0291 23.1283 23.4961C22.4673 21.5371 22.6444 19.7623 23.413 17.8894C23.5746 17.4997 23.8739 16.218 23.0244 16.8656L23.0228 16.8691Z" fill="#FEF3AF"/>
<path opacity="0.2" d="M22.7224 34.1714C22.147 33.709 20.9597 34.8857 20.4504 35.1719C19.7248 35.583 18.9197 36.0635 18.1936 36.376L18.2182 36.3235C17.585 36.6285 17.7384 37.5632 18.1508 37.9918C18.7102 38.579 19.6978 38.4447 20.2891 37.9749C20.5873 37.739 20.8304 37.3663 21.0931 37.0881C21.4098 36.7585 21.7945 36.529 22.1377 36.2246C22.6211 35.7938 23.4475 34.7596 22.7208 34.1749L22.7224 34.1714Z" fill="#FEF3AF"/>
<path opacity="0.2" d="M39.6888 29.9518C39.2963 29.2721 38.2424 29.593 37.64 29.669C36.1067 29.8674 34.5997 30.2276 33.0239 30.1626C32.6438 30.1465 31.5673 29.9528 31.41 30.3787C31.1863 30.9912 32.4908 31.1894 32.5682 30.8157C33.3757 30.4389 34.7714 30.8421 35.5557 31.0865C36.5677 31.3993 37.627 31.9564 38.6978 31.6178C39.3626 31.4088 40.1387 30.7268 39.6904 29.9483L39.6888 29.9518Z" fill="#FEF3AF"/>
<path d="M8.36463 24.6029C8.58048 24.5334 8.79776 24.5244 9.01832 24.5083C9.22164 24.4927 9.20379 24.1769 9.00047 24.1924C8.74889 24.211 8.50245 24.2277 8.26257 24.303C8.06727 24.3651 8.16932 24.665 8.36463 24.6029Z" fill="#FEF3AF"/>
<path d="M8.8744 22.9633C9.03541 22.9107 9.20977 22.9114 9.37427 22.8605C9.56958 22.7985 9.46752 22.4986 9.27221 22.5606C9.1112 22.6132 8.93684 22.6125 8.77234 22.6634C8.57703 22.7254 8.67909 23.0253 8.8744 22.9633Z" fill="#FEF3AF"/>
<path d="M9.06108 21.5855C9.165 21.3823 9.29706 21.2009 9.43425 21.0175C9.55645 20.8571 9.32193 20.6487 9.19459 20.8111C9.04056 21.0121 8.89187 21.2199 8.77644 21.4476C8.68237 21.6298 8.96701 21.7677 9.05943 21.589L9.06108 21.5855Z" fill="#FEF3AF"/>
<path d="M10.4878 22.4136C10.6812 22.3464 10.5775 22.05 10.3857 22.1137C10.1939 22.1774 10.2959 22.4773 10.4878 22.4136Z" fill="#FEF3AF"/>
<path d="M10.596 22.2551C10.6001 22.0648 10.6718 21.8849 10.6759 21.6946C10.678 21.4906 10.366 21.5107 10.3605 21.7131C10.3564 21.9034 10.2847 22.0833 10.2806 22.2735C10.2785 22.4776 10.5905 22.4575 10.596 22.2551Z" fill="#FEF3AF"/>
<path d="M10.5778 20.3165C10.7712 20.2493 10.6675 19.9529 10.4757 20.0166C10.2823 20.0838 10.386 20.3802 10.5778 20.3165Z" fill="#FEF3AF"/>
<path d="M10.5776 20.3159C10.7489 20.2596 10.915 20.2052 11.0927 20.199C11.2962 20.192 11.2767 19.8796 11.0748 19.8831C10.8678 19.8884 10.669 19.9488 10.4755 20.016C10.2837 20.0797 10.3858 20.3796 10.5776 20.3159Z" fill="#FEF3AF"/>
<path d="M13.443 18.7403C13.6365 18.6731 13.5328 18.3767 13.341 18.4404C13.1475 18.5076 13.2512 18.804 13.443 18.7403Z" fill="#FEF3AF"/>
<path d="M13.3591 18.7477C13.56 18.7737 13.7616 18.7616 13.9604 18.7012C14.1557 18.6391 14.0537 18.3392 13.8584 18.4013C13.7179 18.4463 13.568 18.4571 13.4226 18.4401C13.2217 18.4141 13.1566 18.7253 13.3591 18.7477Z" fill="#FEF3AF"/>
<path d="M14.0874 19.6577C14.2808 19.5905 14.1771 19.2941 13.9853 19.3578C13.7935 19.4215 13.8955 19.7214 14.0874 19.6577Z" fill="#FEF3AF"/>
<path d="M14.2127 19.5875C14.3634 19.3935 14.5341 19.2387 14.6059 18.9948C14.6635 18.7997 14.3548 18.7402 14.2989 18.9318C14.2445 19.1113 14.0905 19.2397 13.9765 19.3827C13.8508 19.5415 14.0888 19.7514 14.2161 19.5891L14.2127 19.5875Z" fill="#FEF3AF"/>
<path d="M14.1159 17.1807C14.2939 17.1191 14.4755 17.0591 14.6535 16.9975C14.847 16.9303 14.7433 16.6339 14.5515 16.6976C14.3734 16.7592 14.1919 16.8192 14.0138 16.8808C13.8204 16.948 13.9241 17.2444 14.1159 17.1807Z" fill="#FEF3AF"/>
<path d="M16.9997 16.711C17.1833 16.7374 17.3611 16.7397 17.541 16.6833C17.7363 16.6212 17.6343 16.3213 17.439 16.3834C17.3139 16.4229 17.1929 16.4173 17.0648 16.3999C16.8639 16.3739 16.8005 16.6815 17.0013 16.7075L16.9997 16.711Z" fill="#FEF3AF"/>
<path d="M18.743 17.5717C18.8132 17.767 18.945 17.94 19.1599 17.9725C19.3609 18.0071 19.426 17.696 19.2233 17.6649C19.1245 17.6484 19.0798 17.5804 19.041 17.4725C18.9726 17.2823 18.6746 17.3816 18.7413 17.5753L18.743 17.5717Z" fill="#FEF3AF"/>
<path d="M8.64461 31.0129C8.87482 31.0398 9.12763 31.0004 9.32294 30.8658C9.4893 30.7474 9.31393 30.4857 9.14758 30.6041C9.02538 30.6919 8.85861 30.7204 8.70972 30.7017C8.50723 30.6793 8.44376 30.9869 8.64625 31.0093L8.64461 31.0129Z" fill="#FEF3AF"/>
<path d="M9.78734 29.5585C9.88346 29.4627 9.98471 29.365 10.0457 29.2442C10.1433 29.0636 9.85863 28.9257 9.76272 29.1028C9.71815 29.1886 9.62183 29.2758 9.54769 29.352C9.48875 29.4141 9.50168 29.5226 9.56329 29.5729C9.63024 29.63 9.72491 29.6189 9.78386 29.5569L9.78734 29.5585Z" fill="#FEF3AF"/>
<path d="M8.56716 28.6748C8.54766 28.435 8.54193 28.1931 8.52592 27.9549C8.51073 27.7513 8.19528 27.7698 8.21047 27.9734C8.22997 28.2132 8.2357 28.4551 8.25171 28.6932C8.2669 28.8968 8.58235 28.8784 8.56716 28.6748Z" fill="#FEF3AF"/>
<path d="M8.83168 26.7745C9.02514 26.7073 8.92145 26.4109 8.72963 26.4746C8.53617 26.5418 8.63986 26.8382 8.83168 26.7745Z" fill="#FEF3AF"/>
<path d="M8.94888 26.7354C9.12693 26.6738 9.30848 26.6138 9.48654 26.5522C9.68 26.485 9.5763 26.1886 9.38448 26.2523C9.20642 26.3139 9.02488 26.3739 8.84682 26.4355C8.65336 26.5027 8.75706 26.7991 8.94888 26.7354Z" fill="#FEF3AF"/>
<path d="M10.2479 27.4262C10.3284 27.3999 10.4054 27.372 10.4859 27.3457C10.5665 27.3195 10.6143 27.2266 10.5847 27.1444C10.5587 27.0638 10.466 27.0161 10.3839 27.0458C10.3034 27.0721 10.2264 27.1 10.1459 27.1263C10.0654 27.1525 10.0175 27.2454 10.0471 27.3276C10.0732 27.4082 10.1658 27.456 10.2479 27.4262Z" fill="#FEF3AF"/>
<path d="M11.4467 35.8268C11.4434 35.6886 11.4038 35.5461 11.4213 35.4091C11.4313 35.3241 11.3896 35.2405 11.2995 35.2238C11.2214 35.2085 11.1243 35.2611 11.1142 35.3461C11.0958 35.5125 11.129 35.6776 11.1313 35.8453C11.1343 36.0474 11.4498 36.029 11.4467 35.8268Z" fill="#FEF3AF"/>
<path d="M10.3909 34.4343C10.5199 34.3411 10.6583 34.2822 10.8107 34.2299C11.0042 34.1627 10.9005 33.8663 10.7087 33.93C10.5322 33.9881 10.3649 34.0633 10.2121 34.1709C10.0492 34.2909 10.2246 34.5527 10.3874 34.4327L10.3909 34.4343Z" fill="#FEF3AF"/>
<path d="M12.8475 34.1401C12.8475 34.1401 12.8681 34.1326 12.8783 34.1289C12.8886 34.1252 12.935 34.1171 12.8886 34.1252C12.8989 34.1215 12.9439 34.1255 12.9024 34.1231C12.9094 34.1264 12.918 34.1261 12.925 34.1294C12.9075 34.1212 12.9075 34.1212 12.925 34.1294C13.0018 34.1655 13.096 34.1371 13.1373 34.0583C13.1735 33.9813 13.1435 33.8818 13.0667 33.8457C12.9584 33.7949 12.8568 33.8027 12.7455 33.8401C12.665 33.8664 12.6171 33.9593 12.6467 34.0415C12.6728 34.1221 12.7654 34.1698 12.8475 34.1401Z" fill="#FEF3AF"/>
<path d="M14.8953 36.493C14.982 36.5807 15.0109 36.7096 15.0516 36.8227C15.1183 37.0163 15.4145 36.9119 15.3512 36.7199C15.2919 36.5468 15.2311 36.3859 15.1054 36.2542C15.0453 36.1918 14.9352 36.2085 14.8849 36.2703C14.8261 36.3409 14.8403 36.4287 14.9005 36.4912L14.8953 36.493Z" fill="#FEF3AF"/>
<path d="M15.0956 38.4369C15.0956 38.4369 15.1161 38.4295 15.1264 38.4258C15.1367 38.422 15.1831 38.4139 15.1367 38.422C15.1469 38.4183 15.1919 38.4224 15.1504 38.42C15.1574 38.4232 15.166 38.423 15.173 38.4263C15.1555 38.4181 15.1555 38.4181 15.173 38.4263C15.2498 38.4624 15.3441 38.434 15.3854 38.3552C15.4215 38.2782 15.3915 38.1787 15.3147 38.1426C15.2065 38.0918 15.1048 38.0996 14.9935 38.137C14.913 38.1633 14.8652 38.2561 14.8947 38.3384C14.9208 38.4189 15.0134 38.4667 15.0956 38.4369Z" fill="#FEF3AF"/>
<path d="M24.3044 25.6204C24.4021 25.521 24.5015 25.4182 24.6028 25.3205C24.6617 25.2585 24.6488 25.1499 24.5872 25.0997C24.5202 25.0426 24.4256 25.0537 24.3666 25.1157C24.2689 25.215 24.1695 25.3178 24.0682 25.4155C24.0093 25.4775 24.0222 25.5861 24.0838 25.6364C24.1507 25.6935 24.2454 25.6824 24.3044 25.6204Z" fill="#FEF3AF"/>
<path d="M21.86 24.545C22.0535 24.4778 21.9498 24.1814 21.758 24.2451C21.5645 24.3123 21.6682 24.6087 21.86 24.545Z" fill="#FEF3AF"/>
<path d="M21.8376 24.5299C22.0385 24.5559 22.2401 24.5438 22.4389 24.4834C22.6342 24.4213 22.5322 24.1214 22.3369 24.1835C22.1964 24.2286 22.0465 24.2393 21.9011 24.2223C21.7002 24.1964 21.6351 24.5075 21.8376 24.5299Z" fill="#FEF3AF"/>
<path d="M22.829 23.2792C23.0052 23.2125 23.1399 23.0707 23.1699 22.8798C23.1834 22.7965 23.1331 22.713 23.0481 22.6945C22.9666 22.6776 22.8764 22.7335 22.8629 22.8168C22.8477 22.9036 22.7988 22.9533 22.7269 22.9793C22.5369 23.0482 22.6355 23.3464 22.829 23.2792Z" fill="#FEF3AF"/>
<path d="M22.0483 21.9477C22.2401 21.884 22.1381 21.5841 21.9462 21.6478C21.7544 21.7115 21.8565 22.0114 22.0483 21.9477Z" fill="#FEF3AF"/>
<path d="M22.0482 21.9468C22.1869 21.8965 22.2725 21.7958 22.3368 21.6679C22.4274 21.4841 22.1427 21.3462 22.0538 21.5265C22.0472 21.5405 22.039 21.558 22.0324 21.572C22.0292 21.579 22.0259 21.586 22.0209 21.5965C22.0029 21.635 22.0411 21.5718 22.016 21.607C22.0127 21.614 22.0059 21.6194 21.9975 21.6282C22.0111 21.6175 22.0111 21.6175 21.9975 21.6282C21.9908 21.6336 21.9805 21.6373 21.9721 21.6462C21.9975 21.6282 21.9515 21.6536 21.9515 21.6536C21.8694 21.6834 21.8248 21.7692 21.8527 21.855C21.8788 21.9355 21.9714 21.9833 22.0536 21.9535L22.0482 21.9468Z" fill="#FEF3AF"/>
<path d="M22.0129 18.8204C22.4204 18.7512 22.8139 18.6754 23.1874 18.4878C23.3665 18.3967 23.1912 18.135 23.0121 18.226C22.6931 18.3881 22.3458 18.4471 21.9951 18.5045C21.7957 18.539 21.8135 18.8549 22.0129 18.8204Z" fill="#FEF3AF"/>
<path d="M24.863 16.4434C24.9203 16.2397 25.0021 16.0474 25.0594 15.8437C25.1134 15.647 24.8047 15.5875 24.7523 15.7807C24.695 15.9844 24.6133 16.1767 24.556 16.3804C24.502 16.5772 24.8106 16.6367 24.863 16.4434Z" fill="#FEF3AF"/>
<path d="M23.9454 15.4826C24.0542 15.3415 24.1721 15.2175 24.3128 15.1084C24.4738 14.9832 24.2984 14.7215 24.1374 14.8467C23.9764 14.9718 23.8366 15.1154 23.7109 15.2743C23.5852 15.4331 23.8232 15.6431 23.9505 15.4807L23.9454 15.4826Z" fill="#FEF3AF"/>
<path d="M27.7956 13.9724C27.9288 13.988 28.0627 13.9569 28.1925 13.9708C28.2773 13.9808 28.3609 13.9389 28.3778 13.8485C28.3932 13.7704 28.3408 13.6732 28.256 13.6632C28.1227 13.6476 27.9888 13.6787 27.859 13.6648C27.7742 13.6549 27.6906 13.6968 27.6738 13.7871C27.6584 13.8653 27.7107 13.9625 27.7956 13.9724Z" fill="#FEF3AF"/>
<path d="M27.8327 12.6485C27.9696 12.6018 28.1118 12.5532 28.2487 12.5064C28.4422 12.4392 28.3385 12.1428 28.1467 12.2065C28.0097 12.2533 27.8676 12.3019 27.7306 12.3486C27.5371 12.4158 27.6408 12.7122 27.8327 12.6485Z" fill="#FEF3AF"/>
<path d="M32.5344 12.1352C32.7648 12.2434 33.0049 12.3219 33.2353 12.4301C33.4203 12.517 33.5569 12.2351 33.377 12.1464C33.1466 12.0382 32.9065 11.9597 32.6761 11.8515C32.4911 11.7646 32.3545 12.0464 32.5344 12.1352Z" fill="#FEF3AF"/>
<path d="M31.2295 13.2095C31.2295 13.2095 31.2342 13.1903 31.2356 13.1782C31.2356 13.1782 31.2535 13.1311 31.2439 13.1607C31.2504 13.1467 31.2554 13.1362 31.2619 13.1222C31.28 13.0837 31.2435 13.1434 31.2669 13.1117C31.2718 13.1012 31.2802 13.0924 31.2886 13.0835C31.2919 13.0765 31.3242 13.0532 31.2903 13.08C31.2971 13.0746 31.3038 13.0693 31.3157 13.062C31.3412 13.0441 31.2782 13.0786 31.3055 13.0658C31.3841 13.0344 31.4322 12.9501 31.4043 12.8644C31.3782 12.7838 31.2856 12.7361 31.2034 12.7658C31.0478 12.8252 30.9463 12.9868 30.919 13.1448C30.9054 13.2282 30.9541 13.3151 31.0407 13.3301C31.1223 13.3471 31.2124 13.2912 31.226 13.2078L31.2295 13.2095Z" fill="#FEF3AF"/>
<path d="M30.7181 11.9958C30.8487 11.8991 30.9855 11.8437 31.1379 11.7914C31.3313 11.7242 31.2276 11.4278 31.0358 11.4915C30.8578 11.5531 30.6937 11.6213 30.5392 11.7324C30.3764 11.8525 30.5517 12.1142 30.7146 11.9942L30.7181 11.9958Z" fill="#FEF3AF"/>
<path d="M37.1556 11.9214C37.4205 11.9561 37.6856 11.9994 37.9532 12.0012C38.157 12.0028 38.1391 11.6869 37.9354 11.6853C37.6937 11.6828 37.4563 11.644 37.2191 11.6138C37.0182 11.5878 36.9547 11.8954 37.1556 11.9214Z" fill="#FEF3AF"/>
<path d="M37.7262 13.9493C37.9043 13.8877 38.0858 13.8277 38.2639 13.7661C38.4573 13.6989 38.3536 13.4025 38.1618 13.4662C37.9838 13.5278 37.8022 13.5878 37.6242 13.6494C37.4307 13.7166 37.5344 14.013 37.7262 13.9493Z" fill="#FEF3AF"/>
<path d="M40.8542 18.4845C41.0117 18.4303 41.1727 18.3777 41.3318 18.3201C41.5253 18.2529 41.4216 17.9564 41.2298 18.0201C41.0723 18.0743 40.9113 18.1269 40.7521 18.1845C40.5586 18.2517 40.6623 18.5482 40.8542 18.4845Z" fill="#FEF3AF"/>
<path d="M41.0265 15.4769C41.1557 15.6102 41.2729 15.7507 41.4407 15.838C41.6225 15.9319 41.759 15.65 41.5824 15.5543C41.4426 15.4801 41.3462 15.3494 41.2366 15.2382C41.0951 15.0949 40.885 15.3336 41.03 15.4786L41.0265 15.4769Z" fill="#FEF3AF"/>
<path d="M44.0417 19.6813C43.9435 19.9812 43.8453 20.2811 43.7472 20.5809C43.6827 20.7727 43.9948 20.8339 44.0542 20.6439C44.1523 20.3441 44.2505 20.0442 44.3487 19.7443C44.4132 19.5525 44.101 19.4914 44.0417 19.6813Z" fill="#FEF3AF"/>
<path d="M42.6684 20.1467C42.6131 20.3643 42.608 20.5839 42.6098 20.8069C42.6112 21.0126 42.9248 20.989 42.9252 20.7884C42.924 20.5914 42.9316 20.4027 42.9789 20.2114C43.0294 20.013 42.7207 19.9535 42.6719 20.1484L42.6684 20.1467Z" fill="#FEF3AF"/>
<path d="M42.2652 23.6185C42.4049 23.6841 42.5447 23.7583 42.6443 23.8819C42.7706 24.0394 43.0322 23.8633 42.9059 23.7058C42.7725 23.5363 42.5956 23.432 42.4069 23.3348C42.2235 23.2444 42.0853 23.5298 42.2652 23.6185Z" fill="#FEF3AF"/>
<path d="M43.4185 25.527C43.5175 25.6247 43.62 25.724 43.7173 25.8253C43.7791 25.8842 43.8875 25.871 43.9379 25.8092C43.995 25.7421 43.9841 25.6473 43.9223 25.5884C43.8233 25.4906 43.7208 25.3913 43.6235 25.29C43.5616 25.2311 43.4532 25.2443 43.4029 25.3061C43.3458 25.3732 43.3567 25.468 43.4185 25.527Z" fill="#FEF3AF"/>
<path d="M31.7248 31.8288C31.8918 31.6637 32.0731 31.5225 32.2703 31.393C32.442 31.2814 32.2649 31.0231 32.0949 31.1312C31.8739 31.2752 31.6757 31.4342 31.4903 31.6204C31.3453 31.7659 31.5849 31.9724 31.7299 31.8269L31.7248 31.8288Z" fill="#FEF3AF"/>
<path d="M31.8156 30.402C31.9323 30.5166 32.0592 30.6274 32.2255 30.6543C32.3087 30.6677 32.3956 30.6188 32.4108 30.5319C32.4278 30.4503 32.3722 30.3601 32.289 30.3466C32.1816 30.3304 32.1054 30.2476 32.0206 30.1651C31.9588 30.1062 31.8503 30.1193 31.8 30.1811C31.7429 30.2483 31.7538 30.3431 31.8156 30.402Z" fill="#FEF3AF"/>
<path d="M34.0475 31.4114C34.1557 31.4622 34.2623 31.5165 34.3654 31.5692C34.5488 31.6595 34.687 31.3742 34.5071 31.2855C34.3989 31.2346 34.2923 31.1803 34.1892 31.1277C34.0058 31.0373 33.8676 31.3226 34.0475 31.4114Z" fill="#FEF3AF"/>
<path d="M37.4518 31.3018C37.6504 31.2328 37.8508 31.1688 38.0494 31.0998C38.2413 31.0361 38.1392 30.7362 37.9474 30.7999C37.7488 30.8689 37.5483 30.9329 37.3497 31.0019C37.1563 31.0691 37.26 31.3655 37.4518 31.3018Z" fill="#FEF3AF"/>
<path d="M38.0508 30.4985C38.1742 30.4625 38.3056 30.4729 38.4291 30.4369C38.6227 30.3783 38.5242 30.0801 38.327 30.137C38.2036 30.173 38.0721 30.1625 37.9487 30.1986C37.755 30.2571 37.8536 30.5554 38.0508 30.4985Z" fill="#FEF3AF"/>
<path d="M20.651 36.9493C20.9096 36.8614 21.1682 36.7735 21.4267 36.6856C21.6202 36.6184 21.5165 36.322 21.3247 36.3857C21.0661 36.4736 20.8075 36.5615 20.549 36.6494C20.3555 36.7166 20.4592 37.013 20.651 36.9493Z" fill="#FEF3AF"/>
<path d="M22.8506 36.1109C23.0046 35.9099 23.1517 35.7055 23.2217 35.4565C23.2792 35.2614 22.9671 35.2003 22.9147 35.3935C22.8588 35.5851 22.7331 35.744 22.6126 35.9009C22.4904 36.0614 22.7249 36.2697 22.8522 36.1074L22.8506 36.1109Z" fill="#FEF3AF"/>
<path d="M23.4878 34.2449C23.6776 34.24 23.8491 34.1924 24.0255 34.1343C24.2173 34.0706 24.1152 33.7707 23.9234 33.8344C23.771 33.8867 23.6287 33.9267 23.4665 33.9274C23.2646 33.9308 23.2824 34.2467 23.4843 34.2433L23.4878 34.2449Z" fill="#FEF3AF"/>
<path d="M26.2418 33.5811C26.4353 33.5139 26.3316 33.2175 26.1398 33.2812C25.9463 33.3484 26.05 33.6448 26.2418 33.5811Z" fill="#FEF3AF"/>
<path d="M26.2797 33.5006C26.4235 33.4485 26.5038 33.341 26.6048 33.2347C26.6638 33.1726 26.6508 33.0641 26.5892 33.0138C26.5223 32.9567 26.4276 32.9678 26.3686 33.0298C26.3029 33.0972 26.253 33.1763 26.1795 33.2058C25.9879 33.2782 26.0899 33.5781 26.2816 33.5057L26.2797 33.5006Z" fill="#FEF3AF"/>
<path d="M27.9718 28.5886C28.1513 28.5875 28.316 28.6178 28.4914 28.6617C28.6894 28.712 28.7493 28.4027 28.5548 28.3541C28.3569 28.3039 28.1612 28.276 27.9574 28.2744C27.7537 28.2727 27.7716 28.5886 27.9753 28.5903L27.9718 28.5886Z" fill="#FEF3AF"/>
<path d="M28.6812 26.1711C28.7895 26.2219 28.8961 26.2762 28.9991 26.3289C29.1825 26.4193 29.3208 26.134 29.1409 26.0452C29.0326 25.9944 28.9261 25.9401 28.823 25.8874C28.6396 25.797 28.5014 26.0824 28.6812 26.1711Z" fill="#FEF3AF"/>
<path d="M27.3231 22.7275C27.4562 22.5892 27.5749 22.4271 27.6622 22.2503C27.7563 22.0681 27.4716 21.9302 27.3792 22.1089C27.3051 22.2577 27.2014 22.397 27.0851 22.5175C26.9436 22.6646 27.1798 22.8695 27.3248 22.724L27.3231 22.7275Z" fill="#FEF3AF"/>
<path d="M28.1155 20.4346C28.1155 20.4346 28.1302 20.4031 28.1368 20.3891C28.1401 20.3821 28.1434 20.3751 28.1483 20.3646C28.1664 20.3261 28.1282 20.3893 28.1532 20.3541C28.1565 20.3471 28.1633 20.3418 28.1717 20.3329C28.1582 20.3436 28.1582 20.3436 28.1717 20.3329C28.1785 20.3275 28.1888 20.3238 28.1972 20.3149C28.1717 20.3329 28.2177 20.3075 28.2177 20.3075C28.2999 20.2777 28.3444 20.1919 28.3165 20.1062C28.2904 20.0256 28.1978 19.9778 28.1157 20.0076C27.9771 20.0578 27.8914 20.1586 27.8271 20.2864C27.7366 20.4703 28.0212 20.6082 28.1101 20.4278L28.1155 20.4346Z" fill="#FEF3AF"/>
<path d="M29.1874 22.9325C29.3131 22.9915 29.4004 23.0324 29.4924 23.1269C29.5542 23.1858 29.6626 23.1727 29.713 23.1109C29.77 23.0437 29.7592 22.9489 29.6974 22.89C29.5895 22.7838 29.4585 22.7181 29.324 22.6506C29.1406 22.5603 29.0024 22.8456 29.1823 22.9343L29.1874 22.9325Z" fill="#FEF3AF"/>
<path d="M25.9955 20.2557C26.1068 20.3635 26.2344 20.4276 26.3868 20.4479C26.4699 20.4613 26.5568 20.4124 26.572 20.3256C26.5891 20.2439 26.535 20.1502 26.4502 20.1403C26.4225 20.1358 26.3948 20.1314 26.3636 20.1252C26.3601 20.1236 26.3149 20.1109 26.3531 20.1203C26.3426 20.1154 26.3321 20.1105 26.3182 20.1039C26.3042 20.0974 26.2972 20.0941 26.2833 20.0875C26.2449 20.0695 26.3079 20.1077 26.2728 20.0826C26.2481 20.0625 26.22 20.0408 26.197 20.0171C26.1352 19.9582 26.0268 19.9714 25.9764 20.0332C25.9194 20.1003 25.9302 20.1951 25.992 20.2541L25.9955 20.2557Z" fill="#FEF3AF"/>
<path d="M42.5514 30.6504C42.5321 30.8549 42.5935 31.0417 42.6584 31.2302C42.7217 31.4222 43.0213 31.3194 42.958 31.1274C42.9153 31.0006 42.8461 30.8485 42.8601 30.7099C42.8702 30.6249 42.8285 30.5413 42.7383 30.5246C42.6603 30.5093 42.5597 30.5603 42.5531 30.6469L42.5514 30.6504Z" fill="#FEF3AF"/>
<path d="M44.6 28.4651C44.7871 28.3479 44.989 28.2718 45.1978 28.1991C45.3913 28.1318 45.2876 27.8354 45.0958 27.8991C44.8577 27.9796 44.6337 28.0666 44.4211 28.2017C44.2511 28.3098 44.4265 28.5715 44.5965 28.4634L44.6 28.4651Z" fill="#FEF3AF"/>
</svg>
