<svg viewBox="0 0 73 60" fill="none" xmlns="http://www.w3.org/2000/svg">
<path d="M68.9126 21.8475C69.1834 20.1966 68.9986 17.5677 65.9321 15.8638C62.8656 14.1598 60.0963 14.2439 60.0963 14.2439C60.0963 14.2439 59.2941 14.7552 59.0374 14.3561C59.0374 14.3561 57.3426 13.4693 53.6401 13.8646C49.9376 14.2599 47.479 15.2701 47.479 15.2701C47.479 15.2701 46.8763 15.6554 45.8923 15.4375C45.8923 15.4375 41.4053 15.4888 36.7573 17.0518C32.1093 18.6148 28.1709 20.852 28.1709 20.852C28.1709 20.852 26.897 21.9488 25.382 21.7881C25.382 21.7881 22.0079 22.2542 16.6523 26.2446C11.2966 30.235 11.0047 31.5466 11.0047 31.5466C11.0047 31.5466 10.7303 32.0028 10.0018 32.1892C10.0018 32.1892 5.9201 35.0828 5.03191 39.8739C4.14572 44.6683 6.96178 46.0281 8.85099 46.7287C12.2808 48.0035 23.2048 47.9729 36.1668 43.0692C49.1268 38.1623 55.0696 34.6451 58.4769 32.4651C61.8842 30.2851 67.9661 27.6723 68.9159 21.8455L68.9126 21.8475Z" fill="#F9BF65"/>
<path d="M4.98299 42.9661C4.80717 42.1203 4.79733 41.1011 5.02352 39.8748C5.9097 35.0804 9.99345 32.1901 9.99345 32.1901C10.7239 32.007 10.9963 31.5475 10.9963 31.5475C10.9963 31.5475 11.2883 30.236 16.6439 26.2455C21.9995 22.2551 25.3736 21.789 25.3736 21.789C26.8866 21.9465 28.1625 20.8529 28.1625 20.8529C28.1625 20.8529 32.0976 18.6178 36.7489 17.0528C41.3969 15.4898 45.8839 15.4384 45.8839 15.4384C46.8712 15.6544 47.4706 15.271 47.4706 15.271C47.4706 15.271 49.9325 14.2588 53.6317 13.8655C57.3342 13.4703 59.029 14.3571 59.029 14.3571C59.2857 14.7561 60.0879 14.2448 60.0879 14.2448C60.0879 14.2448 62.8592 14.164 65.9237 15.8647C66.2382 16.0389 66.5242 16.226 66.781 16.4172L67.459 17.2326C67.459 17.2326 70.4193 22.0092 61.9287 27.7201C53.4348 33.4331 37.8676 40.0054 25.5996 43.3435C13.3284 46.6836 9.33397 45.2921 6.98032 44.2602C6.27683 43.9527 5.59424 43.4789 4.98299 42.9661Z" fill="#F89A34"/>
<path d="M60.0908 14.243C60.0908 14.243 60.108 14.2416 60.1359 14.2427C59.1963 14.7068 56.9192 15.8142 54.8553 18.1557C51.6881 21.7476 51.5254 25.1437 51.5254 25.1437C51.5254 25.1437 48.6493 23.143 51.5005 18.7501C54.6624 13.8788 59.0306 14.3606 59.0306 14.3606C59.2873 14.7597 60.0895 14.2483 60.0895 14.2483L60.0908 14.243Z" fill="#FBCF6F"/>
<path d="M60.0908 14.243C60.0908 14.243 60.108 14.2416 60.1359 14.2427C59.1963 14.7068 56.9192 15.8142 54.8553 18.1557C51.6881 21.7476 51.5254 25.1437 51.5254 25.1437C51.5254 25.1437 48.6493 23.143 51.5005 18.7501C54.6624 13.8788 59.0306 14.3606 59.0306 14.3606C59.2873 14.7597 60.0895 14.2483 60.0895 14.2483L60.0908 14.243Z" fill="#FBCF6F"/>
<path d="M54.0212 17.9825C55.5887 16.2009 57.7245 14.9582 58.8581 14.3443C58.9727 14.3467 59.0377 14.3568 59.0377 14.3568C59.2944 14.7559 60.0966 14.2445 60.0966 14.2445C60.0966 14.2445 60.1138 14.2431 60.1417 14.2442C59.2021 14.7083 56.925 15.8157 54.8611 18.1572C51.6939 21.7491 51.5312 25.1452 51.5312 25.1452C51.5312 25.1452 51.3562 25.0215 51.1328 24.7738C51.1523 24.4863 50.9968 21.4151 54.0199 17.9878L54.0212 17.9825Z" fill="#F9BF65"/>
<path d="M34.8263 21.9374C36.9309 18.2658 39.9329 16.9289 41.6602 15.8629C44.1222 15.4602 45.8861 15.4423 45.8861 15.4423C46.8733 15.6583 47.4728 15.2749 47.4728 15.2749C47.4728 15.2749 34.7749 19.9137 35.8827 32.7879C35.8827 32.7879 30.9524 28.7013 34.825 21.9427L34.8263 21.9374Z" fill="#FCE272"/>
<path d="M47.4736 15.2689C47.4736 15.2689 47.3382 15.3514 47.0961 15.4221C47.3374 15.3203 47.4736 15.2689 47.4736 15.2689Z" fill="#FBCF6F"/>
<path d="M45.2299 15.4662C45.6492 15.441 45.8851 15.4418 45.8851 15.4418C46.4079 15.5568 46.8211 15.4993 47.0956 15.4223C45.0035 16.3132 34.8849 21.2321 35.8831 32.7821C35.8831 32.7821 35.4323 32.4064 34.9087 31.6957C34.4294 21.8665 42.0887 17.0279 45.2299 15.4662Z" fill="#F9BF65"/>
<path d="M21.4559 35.8231C21.4559 35.8231 17.9825 34.2315 18.6906 29.0037C19.2068 25.207 21.064 23.9083 22.1463 22.9056C24.2042 21.9587 25.3768 21.7952 25.3768 21.7952C26.8899 21.9527 28.1658 20.8592 28.1658 20.8592C28.1658 20.8592 25.044 22.2149 22.5711 27.1767C20.0949 32.1405 21.4546 35.8284 21.4546 35.8284L21.4559 35.8231Z" fill="#FCE272"/>
<path d="M21.5076 27.0888C22.8681 24.3583 24.4252 22.7231 25.549 21.8035C26.1475 21.8272 26.6999 21.6713 27.1414 21.4745C26.0169 22.2816 24.1581 23.9788 22.5669 27.1704C20.0907 32.1343 21.4504 35.8221 21.4504 35.8221C21.4504 35.8221 20.8266 35.5338 20.1631 34.809C19.9192 33.413 19.7716 30.5628 21.5022 27.0875L21.5076 27.0888Z" fill="#F9BF65"/>
<path d="M27.1455 21.4727C27.7691 21.025 28.1657 20.8511 28.1657 20.8511C28.1657 20.8511 27.7642 21.1951 27.1455 21.4727Z" fill="#FBCF6F"/>
<path d="M10.9483 31.6169C9.69821 33.9639 9.55773 36.7277 9.67724 39.0712C9.67724 39.0712 7.19426 36.7497 9.09002 32.9435C9.62656 32.4494 9.99348 32.1897 9.99348 32.1897C10.5506 32.049 10.8431 31.7488 10.9483 31.6169Z" fill="#FBCF6F"/>
<path d="M9.9169 32.2505C9.96572 32.2117 9.99543 32.1936 9.99543 32.1936C10.5526 32.0529 10.845 31.7527 10.9503 31.6208C9.70017 33.9678 9.55969 36.7316 9.67919 39.0751C9.67919 39.0751 9.25814 38.6813 8.89413 37.9501C8.8861 36.0943 9.10375 34.0738 9.91562 32.2558L9.9169 32.2505Z" fill="#F9BF65"/>
<path d="M41.6574 15.8585C41.6574 15.8585 36.8539 17.575 34.7344 21.2963C32.6168 25.0209 33.4148 27.9355 33.4148 27.9355C33.4148 27.9355 33.8104 23.6659 34.5751 22.6399C35.3451 21.6151 36.9722 19.0249 37.8534 18.4203C38.7345 17.8156 41.6521 15.8572 41.6521 15.8572L41.6574 15.8585Z" fill="#FED272"/>
<path d="M60.4108 15.3843C62.307 14.9967 65.1582 15.775 64.8794 17.5392C64.3425 20.9601 56.7611 25.0647 55.0996 23.1776C53.4381 21.2904 58.2876 15.8154 60.4141 15.3823L60.4108 15.3843Z" fill="#FAA74E"/>
<path d="M46.5956 16.771C48.2003 15.6893 51.6852 14.4466 51.6709 15.9909C51.6566 17.5352 49.1812 18.488 46.8114 22.1405C44.3385 25.9506 38.2605 28.6514 39.3031 24.9088C40.3464 21.1523 44.6788 18.0609 46.5956 16.771Z" fill="#FAA74E"/>
<path d="M28.3564 22.1304C29.7813 20.7835 33.4646 18.9005 34.55 19.3592C35.6334 19.8146 31.2632 23.8324 30.7868 28.4448C30.2734 33.4276 24.4566 36.2673 24.1306 31.6605C23.8046 27.0537 26.2224 24.1488 28.3564 22.1304Z" fill="#FAA74E"/>
<path d="M16.5228 28.0899C18.0904 27.8392 17.9714 31.3442 17.5819 33.5507C17.023 36.7275 12.4545 39.5428 12.0047 35.305C11.6383 31.8654 13.9402 28.5027 16.5261 28.0878L16.5228 28.0899Z" fill="#FAA74E"/>
<path d="M34.8264 21.9367C36.931 18.2651 39.933 16.9283 41.6603 15.8622C41.9 15.8246 42.131 15.7877 42.3575 15.7581C40.3816 16.9214 37.0003 18.9139 35.1595 22.1267C31.9245 27.7696 34.83 31.5499 35.876 32.6423C35.8783 32.6906 35.8838 32.7369 35.8861 32.7852C35.8861 32.7852 30.9558 28.6986 34.8284 21.94L34.8264 21.9367Z" fill="#DB872A"/>
<path d="M59.0334 14.3582C59.0334 14.3582 56.1281 13.8252 53.4035 16.0408C50.6789 18.2565 50.1212 20.7145 50.29 22.4182C50.4588 24.1219 50.4847 22.5073 50.4847 22.5073L51.126 19.6145L53.1525 16.8847L54.7351 15.5366L56.6324 14.7644L57.7439 14.471L59.0367 14.3562L59.0334 14.3582Z" fill="#FFC955"/>
<path d="M51.5034 18.7475C54.6653 13.8762 59.0334 14.358 59.0334 14.358C59.0696 14.4173 59.1228 14.4526 59.1786 14.4774C58.3627 14.4461 54.6142 14.5577 51.8109 18.8808C49.5568 22.3589 50.8842 24.3367 51.5381 25.0087C51.528 25.0961 51.5269 25.1465 51.5269 25.1465C51.5269 25.1465 48.6509 23.1458 51.5021 18.7528L51.5034 18.7475Z" fill="#DB872A"/>
<path d="M22.1453 22.9032C22.1453 22.9032 20.6191 23.3409 19.4045 25.4043C17.8295 28.0801 17.9478 31.016 19.217 33.2551L19.4969 33.1794L18.7252 31.1475L18.8025 28.228L19.8197 25.4765L21.3326 23.7688L22.1473 22.9065L22.1453 22.9032Z" fill="#FED272"/>
<path d="M18.6909 29.0042C19.2071 25.2075 21.0643 23.9088 22.1466 22.9061C22.3085 22.83 22.4625 22.7633 22.6132 22.6986C21.2521 23.957 19.3801 26.1229 19.0874 29.0381C18.6882 33.0119 20.4761 34.8763 21.3692 35.547C21.4173 35.7299 21.4529 35.8256 21.4529 35.8256C21.4529 35.8256 17.9795 34.2341 18.6876 29.0062L18.6909 29.0042Z" fill="#DB872A"/>
<path d="M9.08984 32.9443C9.08984 32.9443 8.06713 34.1637 8.06149 35.373C8.05586 36.5823 9.10544 38.3048 9.10544 38.3048L8.64658 36.8682L8.51685 35.2807L8.97072 33.6628L9.08984 32.9443Z" fill="#FFC955"/>
<path d="M9.08953 32.9438C9.20224 32.839 9.30575 32.7488 9.40137 32.668C8.35243 35.6647 8.71075 37.4787 9.66432 38.7539C9.66956 38.8591 9.67151 38.9663 9.68006 39.0695C9.68006 39.0695 7.19707 36.748 9.09282 32.9418L9.08953 32.9438Z" fill="#DB872A"/>
<path opacity="0.38" d="M62.8897 16.8598C63.3512 16.4431 66.0099 17.1806 65.8781 18.792C65.7462 20.4035 64.4129 21.0759 63.5004 20.3808C62.8322 19.8711 64.0932 19.1841 63.4797 18.5191C63.011 18.0098 62.1686 17.5115 62.8884 16.8651L62.8897 16.8598Z" fill="white"/>
<path d="M55.4699 16.3772L55.4006 16.4194C55.2058 16.5381 55.0179 16.2371 55.2159 16.1164L55.2853 16.0741C55.4801 15.9555 55.668 16.2565 55.4699 16.3772Z" fill="#F89A34"/>
<path d="M57.2346 15.7658C57.0398 15.8845 56.8518 15.5835 57.0499 15.4628C57.248 15.3421 57.4294 15.6471 57.2346 15.7658Z" fill="#F89A34"/>
<path d="M53.3872 18.2953L53.3178 18.3376C53.123 18.4563 52.9384 18.1533 53.1332 18.0346L53.2025 17.9923C53.3973 17.8736 53.582 18.1767 53.3872 18.2953Z" fill="#F89A34"/>
<path d="M54.8788 17.8525C54.684 17.9712 54.4961 17.6702 54.6942 17.5495C54.8923 17.4288 55.0769 17.7318 54.8788 17.8525Z" fill="#F89A34"/>
<path d="M52.0256 20.3322L51.9562 20.3745C51.7615 20.4932 51.5735 20.1922 51.7716 20.0715L51.8409 20.0292C52.0357 19.9105 52.2237 20.2115 52.0256 20.3322Z" fill="#F89A34"/>
<path d="M51.9469 22.1942C51.8867 22.1993 51.8297 22.2024 51.7694 22.2075C51.5403 22.2252 51.5369 21.8704 51.764 21.8495C51.8243 21.8443 51.8813 21.8412 51.9416 21.8361C52.1707 21.8184 52.1741 22.1732 51.9469 22.1942Z" fill="#F89A34"/>
<path d="M43.6174 16.7424L43.548 16.7846C43.3532 16.9033 43.1653 16.6023 43.3634 16.4816L43.4327 16.4394C43.6275 16.3207 43.8155 16.6217 43.6174 16.7424Z" fill="#F89A34"/>
<path d="M41.8388 17.1816C41.644 17.3003 41.4561 16.9993 41.6542 16.8786C41.8523 16.7579 42.0369 17.0609 41.8388 17.1816Z" fill="#F89A34"/>
<path d="M41.6125 18.3342L41.5432 18.3764C41.3484 18.4951 41.1604 18.1941 41.3585 18.0734L41.4279 18.0312C41.6227 17.9125 41.8106 18.2135 41.6125 18.3342Z" fill="#F89A34"/>
<path d="M38.7544 19.4301L38.685 19.4724C38.4902 19.5911 38.3023 19.2901 38.5004 19.1694L38.5697 19.1271C38.7645 19.0084 38.9491 19.3114 38.7544 19.4301Z" fill="#F89A34"/>
<path d="M37.8629 20.9316C37.8538 20.9688 37.8447 21.0059 37.8357 21.0431C37.7813 21.2659 37.4362 21.1826 37.4906 20.9597C37.4997 20.9226 37.5087 20.8855 37.5178 20.8483C37.5722 20.6255 37.9172 20.7088 37.8629 20.9316Z" fill="#F89A34"/>
<path d="M36.426 21.8654L36.3566 21.9077C36.1618 22.0264 35.9739 21.7254 36.172 21.6047L36.2413 21.5624C36.4361 21.4437 36.6241 21.7447 36.426 21.8654Z" fill="#F89A34"/>
<path d="M37.009 23.7365L36.8736 23.819C36.6788 23.9377 36.4942 23.6347 36.689 23.516L36.8243 23.4335C37.0191 23.3148 37.2071 23.6158 37.009 23.7365Z" fill="#F89A34"/>
<path d="M35.1594 28.0119L35.024 28.0944C34.8292 28.2131 34.6413 27.9121 34.8394 27.7914L34.9747 27.7089C35.1695 27.5902 35.3575 27.8912 35.1594 28.0119Z" fill="#F89A34"/>
<path d="M35.6682 26.8703L35.5988 26.9126C35.404 27.0313 35.2161 26.7303 35.4142 26.6096L35.4835 26.5673C35.6783 26.4486 35.8662 26.7496 35.6682 26.8703Z" fill="#F89A34"/>
<path d="M52.6018 19.1229L52.6841 19.258C52.7443 19.3568 52.5924 19.4493 52.5322 19.3505L52.4499 19.2155C52.3897 19.1167 52.5416 19.0241 52.6018 19.1229Z" fill="#F89A34"/>
<path d="M54.5251 17.2053C54.4649 17.2104 54.4079 17.2135 54.3476 17.2186C54.2324 17.2301 54.2314 17.0501 54.3433 17.0406C54.4036 17.0355 54.4605 17.0324 54.5208 17.0273C54.636 17.0158 54.6371 17.1958 54.5251 17.2053Z" fill="#F89A34"/>
<path d="M51.1125 22.6229L51.1547 22.6921C51.2149 22.7909 51.063 22.8834 51.0028 22.7846L50.9607 22.7155C50.9005 22.6167 51.0523 22.5241 51.1125 22.6229Z" fill="#F89A34"/>
<path d="M35.1907 24.5419L35.2729 24.6769C35.3331 24.7757 35.1813 24.8683 35.1211 24.7695L35.0388 24.6344C34.9786 24.5356 35.1305 24.4431 35.1907 24.5419Z" fill="#F89A34"/>
<path d="M34.5044 28.772C34.4053 28.8323 34.313 28.6808 34.412 28.6205C34.5111 28.5601 34.6034 28.7116 34.5044 28.772Z" fill="#F89A34"/>
<path d="M36.2903 24.0575L36.3324 24.1267C36.3926 24.2255 36.2407 24.318 36.1805 24.2192L36.1384 24.15C36.0782 24.0512 36.2301 23.9587 36.2903 24.0575Z" fill="#F89A34"/>
<path d="M36.1783 22.5812C36.095 22.6004 36.0149 22.6176 35.9315 22.6368C35.821 22.6634 35.7703 22.4911 35.8808 22.4644C35.9609 22.4472 36.0443 22.428 36.1276 22.4088C36.2382 22.3821 36.2888 22.5545 36.1783 22.5812Z" fill="#F89A34"/>
<path d="M37.4731 20.3823L37.2684 20.507C37.1694 20.5674 37.077 20.4159 37.1761 20.3555L37.3808 20.2308C37.4798 20.1705 37.5722 20.322 37.4731 20.3823Z" fill="#F89A34"/>
<path d="M39.3616 19.038L39.4037 19.1071C39.4639 19.2059 39.312 19.2985 39.2518 19.1997L39.2097 19.1305C39.1495 19.0317 39.3014 18.9392 39.3616 19.038Z" fill="#F89A34"/>
<path d="M40.6665 17.6948L40.5971 17.7371C40.4981 17.7974 40.4058 17.6459 40.5048 17.5856L40.5742 17.5433C40.6732 17.483 40.7655 17.6345 40.6665 17.6948Z" fill="#F89A34"/>
<path d="M42.211 16.2986C42.2482 16.3076 42.2853 16.3166 42.3225 16.3255C42.434 16.3525 42.3912 16.5275 42.2798 16.5006C42.2426 16.4917 42.2055 16.4827 42.1683 16.4737C42.0568 16.4468 42.0995 16.2717 42.211 16.2986Z" fill="#F89A34"/>
<path d="M44.9063 16.2652C44.855 16.2332 44.8058 16.2044 44.7546 16.1724C44.6595 16.1129 44.7434 15.9534 44.8405 16.0162C44.8918 16.0482 44.941 16.0769 44.9922 16.109C45.0893 16.1717 45.0034 16.328 44.9063 16.2652Z" fill="#F89A34"/>
<path d="M40.4965 19.0962L40.3612 19.1787C40.2621 19.239 40.1698 19.0875 40.2689 19.0272L40.4042 18.9447C40.5033 18.8843 40.5956 19.0358 40.4965 19.0962Z" fill="#F89A34"/>
<path d="M37.7198 23.0599C37.7248 23.1201 37.7278 23.177 37.7327 23.2372C37.742 23.349 37.5638 23.3537 37.5545 23.2419C37.5495 23.1817 37.5466 23.1249 37.5416 23.0647C37.5323 22.9529 37.7105 22.9482 37.7198 23.0599Z" fill="#F89A34"/>
<path d="M35.1389 29.9481L35.181 30.0173C35.2413 30.1161 35.0894 30.2086 35.0292 30.1098L34.987 30.0407C34.9268 29.9419 35.0787 29.8493 35.1389 29.9481Z" fill="#F89A34"/>
<path d="M23.2225 23.4022L23.1803 23.333C23.0619 23.1387 23.3637 22.9503 23.4841 23.148L23.5262 23.2171C23.6446 23.4114 23.3409 23.5965 23.2225 23.4022Z" fill="#F89A34"/>
<path d="M22.6516 25.6291L22.5855 25.6693C22.3907 25.788 22.2028 25.487 22.4009 25.3663L22.4669 25.3261C22.6617 25.2074 22.8496 25.5084 22.6516 25.6291Z" fill="#F89A34"/>
<path d="M20.7033 27.0012C20.5085 27.1199 20.3239 26.8169 20.5187 26.6982C20.7135 26.5795 20.9014 26.8805 20.7033 27.0012Z" fill="#F89A34"/>
<path d="M20.5738 28.2227C20.5647 28.2598 20.5557 28.2969 20.5466 28.3341C20.4922 28.5569 20.1472 28.4736 20.2016 28.2508C20.2106 28.2136 20.2197 28.1765 20.2287 28.1393C20.2831 27.9165 20.6282 27.9998 20.5738 28.2227Z" fill="#F89A34"/>
<path d="M20.7629 30.7629C20.5681 30.8816 20.3835 30.5786 20.5783 30.4599C20.773 30.3412 20.961 30.6422 20.7629 30.7629Z" fill="#F89A34"/>
<path d="M20.1076 32.2736L20.0383 32.3159C19.8435 32.4346 19.6589 32.1316 19.8536 32.0129L19.923 31.9706C20.1178 31.8519 20.3057 32.1529 20.1076 32.2736Z" fill="#F89A34"/>
<path d="M22.8197 24.293C22.7875 24.3442 22.7586 24.3934 22.7265 24.4446C22.6634 24.5417 22.5072 24.4563 22.5702 24.3591C22.6024 24.3079 22.6313 24.2587 22.6635 24.2075C22.7232 24.1124 22.8827 24.1958 22.8197 24.293Z" fill="#F89A34"/>
<path d="M21.5979 24.9472L21.64 25.0163C21.7002 25.1151 21.5484 25.2077 21.4882 25.1089L21.446 25.0397C21.3858 24.9409 21.5377 24.8483 21.5979 24.9472Z" fill="#F89A34"/>
<path d="M20.05 27.2821L20.0922 27.3513C20.1524 27.4501 20.0005 27.5426 19.9403 27.4438L19.8982 27.3747C19.838 27.2758 19.9898 27.1833 20.05 27.2821Z" fill="#F89A34"/>
<path d="M19.9123 29.8044C19.9309 29.9241 19.8771 30.0291 19.7547 30.0585C19.6442 30.0852 19.5935 29.9128 19.704 29.8861C19.7299 29.8839 19.7411 29.8726 19.7376 29.8521C19.7198 29.7411 19.8924 29.6901 19.9103 29.8011L19.9123 29.8044Z" fill="#F89A34"/>
<path d="M24.8169 22.6294L24.6122 22.7541C24.5131 22.8145 24.4208 22.663 24.5198 22.6026L24.7245 22.4779C24.8236 22.4175 24.9159 22.569 24.8169 22.6294Z" fill="#F89A34"/>
<path d="M22.0288 27.2007L21.9594 27.2429C21.8604 27.3033 21.7681 27.1518 21.8671 27.0914L21.9365 27.0492C22.0355 26.9888 22.1278 27.1403 22.0288 27.2007Z" fill="#F89A34"/>
<path d="M20.6858 33.66L20.7279 33.7292C20.7881 33.828 20.6362 33.9206 20.576 33.8218L20.5339 33.7526C20.4737 33.6538 20.6256 33.5612 20.6858 33.66Z" fill="#F89A34"/>
<path d="M9.71432 34.4233C9.61527 34.4837 9.52296 34.3322 9.622 34.2718C9.72105 34.2115 9.81337 34.363 9.71432 34.4233Z" fill="#F89A34"/>
<path d="M9.27975 34.3188L9.21042 34.3611C9.11137 34.4214 9.01905 34.2699 9.1181 34.2096L9.18743 34.1673C9.28648 34.107 9.3788 34.2585 9.27975 34.3188Z" fill="#F89A34"/>
<path d="M9.27096 35.5298C9.17191 35.5901 9.0796 35.4386 9.17864 35.3783C9.27769 35.3179 9.37001 35.4694 9.27096 35.5298Z" fill="#F89A34"/>
<path d="M9.50533 36.2183C9.40629 36.2786 9.31397 36.1271 9.41302 36.0667C9.51207 36.0064 9.60438 36.1579 9.50533 36.2183Z" fill="#F89A34"/>
<path d="M20.9223 26.2983C20.8233 26.3587 20.731 26.2072 20.83 26.1468C20.9291 26.0865 21.0214 26.238 20.9223 26.2983Z" fill="#F89A34"/>
<path d="M38.727 20.9155C38.628 20.9759 38.5357 20.8244 38.6347 20.764C38.7337 20.7037 38.8261 20.8552 38.727 20.9155Z" fill="#F89A34"/>
<path d="M38.4204 21.937C38.3213 21.9974 38.229 21.8458 38.3281 21.7855C38.4271 21.7251 38.5194 21.8767 38.4204 21.937Z" fill="#F89A34"/>
<path d="M67.4621 17.2311C67.4621 17.2311 68.2177 22.6691 62.5788 25.9198C56.9433 29.1685 52.4915 30.3997 50.4869 31.9915C48.4857 33.5812 40.1103 38.129 37.5536 38.2054C35.0003 38.2798 27.2122 41.3542 23.5487 42.6606C19.8852 43.9669 13.7195 45.1269 11.2962 44.1963C8.87291 43.2656 6.82929 44.1766 4.97626 42.9707C4.97626 42.9707 6.31561 44.8419 7.33282 45.315C9.40311 46.2756 11.0673 46.5623 13.05 46.4653C15.2122 46.3582 19.5667 45.272 22.6961 45.2215C25.4788 45.1744 30.1072 42.8511 32.8491 42.3727C37.5477 41.5467 41.776 38.7896 45.0578 37.7113C47.6914 36.8473 51.4083 34.9302 53.6269 33.7862C55.7423 32.6959 59.3568 30.3581 61.5138 29.3508C64.1183 28.1343 65.2696 26.3533 66.815 24.6394C67.9218 23.4095 68.479 22.2435 68.4486 20.3064C68.4349 19.4295 67.4621 17.2311 67.4621 17.2311Z" fill="#FAA74E"/>
</svg>
