<svg viewBox="0 0 72 87" fill="none" xmlns="http://www.w3.org/2000/svg">
<path d="M69.1802 68.6227C67.9887 70.4005 65.225 71.4722 61.288 69.2099C57.3551 66.9491 53.139 63.6546 50.9491 61.6801C48.7592 59.7055 39.3163 53.8469 36.733 51.5402C34.1498 49.2334 26.4233 43.8351 24.7281 42.1219C23.0357 40.4074 16.4153 35.9119 15.5081 34.8659C14.6008 33.8198 9.83944 31.6922 8.15828 29.3527C6.47712 27.0132 2.64827 25.7548 1.82938 21.4069C1.01197 17.0549 6.4301 16.2424 8.59689 16.6883C8.59689 16.6883 10.4235 17.515 11.2371 17.6817C12.0507 17.8484 15.1551 19.8383 15.4448 20.3232C15.7345 20.808 15.949 20.9439 16.201 21.0522C16.4531 21.1605 20.8703 24.1726 22.7787 25.8673C24.6899 27.5608 24.7601 27.7403 25.3719 28.1088C25.9838 28.4773 32.2017 33.0322 33.6037 34.3396C35.0057 35.647 40.6579 39.3336 41.4765 40.074C42.2952 40.8143 43.2136 42.0068 43.7199 42.3942C44.2291 42.7802 44.9924 43.0411 45.8514 43.7526C46.7104 44.4641 49.5024 46.1009 51.8398 48.0674C54.176 50.0311 55.9201 51.4958 57.2102 52.2456C58.5004 52.9954 62.109 55.6061 63.516 57.083C64.9231 58.5598 66.231 59.8168 67.0524 60.5559C67.8739 61.295 69.1357 63.0517 69.7179 64.4243C70.3015 65.7997 70.3238 66.9009 69.1721 68.6197L69.1802 68.6227Z" fill="#FAAC55"/>
<path d="M50.9517 61.6793C52.0127 62.6369 53.5507 63.9045 55.3031 65.2138C57.7903 65.8137 60.608 64.4035 64.7419 63.9432C68.1483 63.5659 69.3641 66.2266 69.761 67.598C70.2942 66.4199 70.1878 65.5061 69.7273 64.4237C69.1438 63.0483 67.8833 61.2943 67.0618 60.5552C66.2404 59.8161 64.9311 58.5564 63.5254 57.0823C62.1184 55.6054 58.5098 52.9948 57.2196 52.245C55.9295 51.4952 54.1853 50.0304 51.8492 48.0667C49.5131 46.103 46.7211 44.4662 45.8608 43.7519C45.0018 43.0404 44.2384 42.7795 43.7293 42.3935C43.2202 42.0075 42.3046 40.8137 41.4859 40.0733C40.6672 39.3329 35.011 35.6449 33.6131 34.3389C32.211 33.0315 25.9944 28.4794 25.3813 28.1081C24.7694 27.7396 24.698 27.5574 22.7881 25.8667C20.877 24.1732 16.4597 21.1611 16.2104 21.0516C15.9584 20.9433 15.7466 20.8061 15.4542 20.3225C15.1645 19.8377 12.0601 17.8478 11.2465 17.6811C10.4329 17.5143 8.60626 16.6876 8.60626 16.6876C6.4693 16.248 1.1841 17.0357 1.8124 21.2198C2.10411 20.7639 2.50296 20.3288 3.05464 19.991C5.14337 18.7183 7.92428 19.8045 11.0641 20.3194C14.2051 20.837 16.135 23.3065 16.2583 24.7616C16.3816 26.2166 18.5688 28.1924 20.9234 28.0388C23.2793 27.888 26.1086 30.3261 26.3613 31.5322C26.6139 32.7384 29.0791 34.6689 30.5773 34.8266C32.0756 34.9844 34.4658 36.8117 34.4597 38.5157C34.4536 40.2196 33.8982 43.0889 36.0538 44.1598C38.2093 45.2308 40.1819 44.12 42.8169 45.0013C45.452 45.8826 45.0626 46.6265 44.3422 47.7638C43.6219 48.901 45.1776 52.5655 47.3444 53.0114C49.5112 53.4574 51.7973 54.2822 54.2308 55.3079C56.6616 56.3349 61.0941 56.0758 58.8311 56.7796C56.5653 57.4846 53.8776 60.8115 53.1116 61.6703C52.3468 62.5318 50.96 61.6754 50.96 61.6754L50.9517 61.6793Z" fill="#F89B32"/>
<path d="M63.4012 65.9354C65.3124 67.0663 65.4623 68.802 64.7206 69.0566C63.9789 69.3111 59.4927 68.4667 59.7975 66.7045C60.1835 64.4598 62.3301 65.3025 63.4012 65.9354Z" fill="#F9BF65"/>
<path d="M55.2589 62.7449C55.2589 62.7449 52.2231 63.2326 50.9517 61.679C49.6804 60.1255 50.5593 58.5641 51.9522 57.7165C53.3452 56.869 58.7267 57.9329 58.7267 57.9329L55.2589 62.7449Z" fill="#F9BF65"/>
<path d="M38.8876 51.5345C38.8876 51.5345 37.5239 52.2068 36.736 51.5397C35.9481 50.8725 35.5496 49.4615 36.9425 48.6139C38.3354 47.7664 42.5305 46.7521 44.3499 47.1375C46.1678 47.527 46.7542 48.3386 46.7542 48.3386L38.8904 51.5332L38.8876 51.5345Z" fill="#F9BF65"/>
<path d="M30.919 44.3047C30.919 44.3047 29.172 44.017 28.2547 43.5987C27.3362 43.1778 26.4076 43.3846 25.9393 42.9492C25.4711 42.5138 25.9595 40.6189 28.2782 39.5658C30.5997 38.5114 34.0339 39.4348 34.0339 39.4348L30.9163 44.306L30.919 44.3047Z" fill="#F9BF65"/>
<path d="M17.2866 34.9771C17.2866 34.9771 15.8341 35.0979 15.7996 34.1943C15.7665 33.2935 17.582 32.6028 19.061 32.308C20.5427 32.0119 24.8054 32.8021 24.8054 32.8021L17.2853 34.9743L17.2866 34.9771Z" fill="#F9BF65"/>
<path d="M9.13121 28.3471C9.13121 28.3471 7.66739 29.093 6.96442 27.9012C6.26145 26.7095 10.336 24.2389 11.7886 24.1181C13.2411 23.9973 5.58252 24.2635 5.08111 22.9273C4.58247 21.5899 8.79551 21.0254 10.6427 21.2396C12.4898 21.4537 17.675 23.741 17.9389 24.3221C18.2028 24.9031 16.0272 26.1624 16.0272 26.1624L9.1325 28.3499L9.13121 28.3471Z" fill="#F9BF65"/>
<path d="M55.9575 52.8258C55.9575 52.8258 54.5648 54.5827 48.1171 54.8441C41.9832 55.094 37.1982 50.8956 37.1982 50.8956L45.0995 52.4634L55.9603 52.8245L55.9575 52.8258Z" fill="#DB872A"/>
<path opacity="0.6" d="M67.7558 68.5684C67.0672 69.3843 63.9653 69.2898 63.5833 68.3326C63.1999 67.3725 66.1913 66.6091 67.0376 66.9256C67.884 67.2422 68.0895 68.1738 67.7558 68.5684Z" fill="#FFE0AB"/>
<path d="M66.2268 61.9069C66.2268 61.9069 66.1644 61.9461 66.0521 62.0152C65.3662 62.4257 62.7427 63.8633 59.5381 63.9883C55.7957 64.1349 55.1136 63.0816 53.8558 62.2931C52.594 61.5031 51.4401 60.8583 51.4401 60.8583L61.8056 61.8947L66.2309 61.9084L66.2268 61.9069Z" fill="#DB872A"/>
<path d="M51.4357 60.8579C51.4357 60.8579 50.4538 59.4929 54.2202 58.0922C57.9867 56.6915 60.0354 56.7613 63.7459 59.028L51.4357 60.8579Z" fill="#FCE272"/>
<path d="M51.4358 60.8576C51.4358 60.8576 53.8962 61.9483 55.1372 62.7513C56.8566 63.8671 59.9613 63.7583 62.8947 62.8635C64.6241 62.3342 65.7706 61.7799 66.2266 61.9077C66.6826 62.0355 66.4907 61.5658 66.383 61.4138C66.2752 61.2619 63.7053 58.3561 61.3632 57.8874C59.1324 57.441 55.7719 58.0395 53.8937 58.783C52.0155 59.5265 51.0415 60.3069 51.4358 60.8576Z" fill="#FFC954"/>
<path d="M66.3849 61.4118C66.3573 61.3742 66.1722 61.1572 65.8697 60.8468C64.5716 60.0366 61.5694 60.3942 58.4351 60.8435C55.654 61.2429 53.6797 60.3301 53.5039 59.7652C53.3657 59.3243 54.0185 58.8283 54.3211 58.6267C54.1738 58.6784 54.0321 58.7276 53.8997 58.7825C52.0215 59.526 51.0475 60.3064 51.4418 60.8571C51.4418 60.8571 53.2029 61.6368 54.4964 62.3649C54.1947 61.9193 53.957 61.4304 54.4721 61.5408C55.3818 61.7335 56.308 62.3801 58.486 62.2009C60.6669 62.0205 62.5599 60.7244 66.2298 61.9085C66.2298 61.9085 66.3425 61.9268 66.4465 61.912C66.5999 61.8372 66.4676 61.5316 66.3862 61.4146L66.3849 61.4118Z" fill="#FFD47D"/>
<path d="M54.1927 51.6269C54.1927 51.6269 52.4671 49.0116 49.2066 48.1151C45.9475 47.2213 42.8216 47.1548 41.1255 48.2244C39.4281 49.2912 38.589 50.2817 38.589 50.2817L44.5597 49.1478L54.1927 51.6269Z" fill="#FCE272"/>
<path d="M55.9577 52.8259C56.1364 53.1806 51.069 54.1834 48.7922 54.2806C46.5155 54.3777 41.9094 53.6801 39.312 52.3097C36.7146 50.9392 37.0511 50.6949 37.4126 50.2807C37.7741 49.8664 38.2499 50.5273 38.5864 50.2829C38.9229 50.0386 42.0765 48.0004 44.6451 48.0032C47.2137 48.006 50.2318 48.5337 52.6004 50.3003C54.9691 52.067 55.6133 52.1442 55.9536 52.8244L55.9577 52.8259Z" fill="#FFC954"/>
<path d="M37.4121 50.2802C37.0506 50.6945 36.7141 50.9388 39.3116 52.3092C39.5347 52.4276 39.7757 52.541 40.0278 52.6493C39.9915 52.427 39.9445 51.6842 41.0101 51.7066C42.2596 51.7343 43.082 52.3383 45.8577 52.3456C48.6334 52.353 49.1586 51.475 51.7833 52.1321C54.0221 52.6893 55.957 52.8323 55.957 52.8323C55.957 52.8323 53.0192 51.3947 52.3006 51.1433C49.3143 50.0922 44.5684 51.309 42.3823 50.4106C40.8287 49.7734 40.6528 49.3164 40.6789 49.1055C40.2992 49.2857 39.9507 49.4682 39.653 49.6372L38.5858 50.2893C38.2493 50.5336 37.7734 49.8727 37.4119 50.287L37.4121 50.2802Z" fill="#FFD47D"/>
<path d="M42.2029 42.6595C42.2029 42.6595 38.8674 44.87 34.7153 45.1973C30.5631 45.5246 27.3605 42.4654 27.3605 42.4654L33.5298 43.3881L42.2029 42.6595Z" fill="#DB872A"/>
<path d="M27.3753 41.8393C27.3753 41.8393 28.2334 40.1394 32.4209 38.8996C35.6038 37.956 39.007 39.1734 41.1677 41.3233L27.3753 41.8393Z" fill="#FCE272"/>
<path d="M42.2027 42.6601C42.1632 42.9143 41.4987 42.6276 40.7245 43.0286C39.953 43.4284 35.5213 45.3849 32.0307 44.4271C28.5374 43.4706 27.8921 42.4676 27.3591 42.4632C26.8274 42.4616 27.0716 41.7449 28.313 41.1565C29.5585 40.5696 33.9771 38.3903 36.9019 39.2949C39.8267 40.1995 42.3059 41.9653 42.1987 42.6586L42.2027 42.6601Z" fill="#FFC954"/>
<path d="M17.2865 34.9779C17.2865 34.9779 18.9544 37.4044 23.7023 37.6923C28.4489 37.9775 32.5791 35.1576 32.5791 35.1576L17.2865 34.9779Z" fill="#DB872A"/>
<path d="M17.1444 33.9219C17.1444 33.9219 21.1397 31.6634 23.4651 31.6851C25.7918 31.7096 27.6064 31.5583 30.8018 33.9672L17.1444 33.9219Z" fill="#FCE272"/>
<path d="M32.5793 35.1571C32.6105 35.5198 28.8866 36.6582 26.1128 37.1889C23.3391 37.7196 18.9069 36.5874 17.2867 34.9774C15.6651 33.3646 17.0785 34.047 18.1745 33.6442C19.2706 33.2415 23.8418 31.5703 26.4325 32.1759C29.0231 32.7815 31.6913 34.5636 32.1124 34.7245C32.5362 34.8841 32.5806 35.1599 32.5806 35.1599L32.5793 35.1571Z" fill="#FFC954"/>
<path d="M24.0391 28.8772C24.0391 28.8772 23.6338 29.2479 21.918 29.3229C20.2035 29.4006 17.1272 30.6887 14.0763 30.7253C11.0254 30.762 8.5074 28.8695 8.06837 28.2588L16.6867 28.1485L24.0379 28.8744L24.0391 28.8772Z" fill="#DB872A"/>
<path d="M8.05989 28.0377C8.05989 28.0377 8.53744 25.3765 12.6796 24.7103C16.6533 24.072 18.9564 25.1281 21.7197 27.0782L8.06265 28.0364L8.05989 28.0377Z" fill="#FCE272"/>
<path d="M24.0388 28.8774C24.1018 29.2219 20.8322 28.717 19.7765 29.0909C18.7207 29.4648 14.4388 30.4656 11.8975 29.901C9.35896 29.3352 7.94838 28.5 8.05488 28.0361C8.16137 27.5721 8.77043 26.9246 9.22912 26.4954C9.93814 25.8316 13.1674 24.4319 15.9408 24.9826C18.2368 25.4391 20.0227 26.0557 21.7147 27.0765C23.4066 28.0973 23.9416 28.3298 24.0388 28.8774Z" fill="#FFC954"/>
<path d="M13.9311 20.5669C13.9311 20.5669 13.0895 20.7871 11.5043 20.616C9.91915 20.4448 7.80394 21.8916 5.51213 21.3792C3.22032 20.8669 3.04892 19.9867 3.04892 19.9867L9.4504 19.4673L13.9326 20.5628L13.9311 20.5669Z" fill="#DB872A"/>
<path d="M3.04796 19.9909C3.04796 19.9909 4.01313 17.9076 6.48242 17.5961C8.95171 17.2847 9.63625 17.4846 11.3324 18.3485L3.0452 19.9922L3.04796 19.9909Z" fill="#FCE272"/>
<path d="M13.9311 20.5668C14.0486 20.8624 11.8512 20.1343 11.0596 20.3178C10.268 20.5012 6.40388 21.1221 5.05712 20.8568C3.71035 20.5915 3.14196 20.2297 3.04617 19.988C2.95168 19.749 3.51812 19.5728 3.93595 19.1929C4.35654 18.8117 7.07827 17.7797 8.37784 17.7706C9.68017 17.7602 10.9741 18.0636 12.2936 19.0423C13.6131 20.021 13.7381 20.0874 13.9284 20.5681L13.9311 20.5668Z" fill="#FFC954"/>
<path d="M27.361 42.4653C27.7646 42.466 28.2358 43.0448 29.961 43.7403C29.9136 43.5231 29.9739 43.2054 30.7731 43.2474C31.9713 43.3091 33.0885 43.897 35.2958 43.5425C37.4812 43.1915 38.7069 41.7179 41.1479 42.8681C41.726 42.7167 42.1719 42.8661 42.2033 42.6594C42.2725 42.2163 41.291 41.3429 39.8184 40.5332C39.105 40.5455 38.0518 40.7228 36.7641 41.4068C34.3133 42.71 32.8595 42.8281 30.5232 42.04C28.9802 41.5191 29.1023 40.9806 29.3627 40.674C28.9184 40.8742 28.5592 41.0483 28.319 41.1602C27.0735 41.747 26.8293 42.4637 27.3651 42.4668L27.361 42.4653Z" fill="#FFD47D"/>
<path d="M18.3906 34.8C18.968 35.1812 22.6401 35.6772 25.3256 35.1303C28.0125 34.5861 29.8215 34.7473 29.8215 34.7473C29.8215 34.7473 26.7162 32.8926 24.1011 32.9991C21.4845 33.1097 16.771 33.7253 18.3893 34.7973L18.3906 34.8Z" fill="#FFD47D"/>
<path d="M28.1776 35.7791C25.265 37.0145 21.0164 36.6658 19.213 36.1921C21.2613 37.0907 24.1157 37.57 26.1124 37.189C28.608 36.7104 31.8734 35.7419 32.4786 35.2882L32.5789 35.1572C32.5789 35.1572 31.3039 34.4543 28.1776 35.7791Z" fill="#FFD47D"/>
<path d="M21.7167 27.0795C20.0248 26.0587 18.2416 25.4408 15.9428 24.9856C13.1694 24.4349 9.94295 25.8334 9.23117 26.4984C8.77524 26.9263 8.17042 27.5685 8.0584 28.035C8.06117 28.0842 8.06284 28.1239 8.06321 28.1608C8.07298 28.2034 8.09508 28.2436 8.12381 28.2908C8.51966 28.477 11.0281 29.5554 14.0293 28.5246C17.3029 27.4006 17.8883 26.8248 20.2481 27.7501C22.6079 28.6754 24.0395 28.8776 24.0395 28.8776C23.9396 28.3313 23.4046 28.0988 21.7154 27.0767L21.7167 27.0795Z" fill="#FFD47D"/>
<path d="M3.73755 19.8781C3.73755 19.8781 5.80615 20.9356 7.75711 20.2256C9.25374 19.6801 10.7528 19.1469 11.6505 19.4294C11.6505 19.4294 9.56671 17.9208 7.03895 18.5828C5.02886 19.1082 3.73883 19.8808 3.73883 19.8808L3.73755 19.8781Z" fill="#FFD47D"/>
<path opacity="0.37" d="M50.9517 61.6793C52.0127 62.6369 53.5507 63.9045 55.3031 65.2138C57.7903 65.8137 60.608 64.4035 64.7419 63.9432C68.1483 63.5659 69.3641 66.2266 69.761 67.598C70.2942 66.4199 70.1878 65.5061 69.7273 64.4237C69.1438 63.0483 67.8833 61.2943 67.0618 60.5552C66.2404 59.8161 64.9311 58.5564 63.5254 57.0823C62.1184 55.6054 58.5098 52.9948 57.2196 52.245C55.9295 51.4952 54.1853 50.0304 51.8492 48.0667C49.5131 46.103 46.7211 44.4662 45.8608 43.7519C45.0018 43.0404 44.2384 42.7795 43.7293 42.3935C43.2202 42.0075 42.3046 40.8137 41.4859 40.0733C40.6672 39.3329 35.011 35.6449 33.6131 34.3389C32.211 33.0315 25.9944 28.4794 25.3813 28.1081C24.7694 27.7396 24.698 27.5574 22.7881 25.8667C20.877 24.1732 16.4597 21.1611 16.2104 21.0516C15.9584 20.9433 15.7466 20.8061 15.4542 20.3225C15.1645 19.8377 12.0601 17.8478 11.2465 17.6811C10.4329 17.5143 8.60626 16.6876 8.60626 16.6876C6.4693 16.248 1.1841 17.0357 1.8124 21.2198C2.10411 20.7639 2.50296 20.3288 3.05464 19.991C5.14337 18.7183 7.92428 19.8045 11.0641 20.3194C14.2051 20.837 16.135 23.3065 16.2583 24.7616C16.3816 26.2166 18.5688 28.1924 20.9234 28.0388C23.2793 27.888 26.1086 30.3261 26.3613 31.5322C26.6139 32.7384 29.0791 34.6689 30.5773 34.8266C32.0756 34.9844 34.4658 36.8117 34.4597 38.5157C34.4536 40.2196 33.8982 43.0889 36.0538 44.1598C38.2093 45.2308 40.1819 44.12 42.8169 45.0013C45.452 45.8826 45.0626 46.6265 44.3422 47.7638C43.6219 48.901 45.1776 52.5655 47.3444 53.0114C49.5112 53.4574 51.7973 54.2822 54.2308 55.3079C56.6616 56.3349 61.0941 56.0758 58.8311 56.7796C56.5653 57.4846 53.8776 60.8115 53.1116 61.6703C52.3468 62.5318 50.96 61.6754 50.96 61.6754L50.9517 61.6793Z" fill="#F89736"/>
</svg>
