<svg viewBox="0 0 36 53" fill="none" xmlns="http://www.w3.org/2000/svg">
<path d="M1.95869 51.1831C1.00979 50.6084 0.641853 49.2802 1.1744 48.3193C1.60043 47.5563 2.43314 47.1135 3.22712 46.699C8.15558 44.0801 12.6677 40.7265 16.5408 36.7699C17.9351 35.3475 19.2616 33.8402 20.317 32.154C24.1513 26.0496 24.1319 18.4662 23.9867 11.3162C23.9577 10.0444 23.8415 8.58425 22.7764 7.84946C22.4375 7.61395 22.0308 7.48207 21.7113 7.22772C21.2368 6.85091 21.0141 6.25742 20.8108 5.6922C20.4719 4.75017 20.133 3.80813 19.7941 2.87552C19.707 2.63059 19.6198 2.37624 19.6779 2.12189C19.7263 1.9429 19.8425 1.79218 19.9684 1.65087C20.714 0.8313 21.7694 0.29434 22.8926 0.171875C24.0642 1.26464 25.3423 2.4516 25.4875 4.0248C25.5262 4.42987 25.4875 4.83495 25.5166 5.2306C25.6328 6.8038 26.8044 8.13207 28.0825 9.11179C29.3703 10.0821 30.8323 10.8451 31.9749 11.9756C32.9528 12.9553 33.6597 14.1705 34.1825 15.4328C36.5257 21.0662 35.5284 27.5474 33.2143 33.1996C29.8641 41.3859 23.9577 48.0273 15.6306 51.494C13.7425 52.2853 11.1475 53.0012 9.0948 52.8693C6.587 52.7092 4.10824 52.4831 1.97806 51.1925L1.95869 51.1831Z" fill="#FEC610"/>
<mask id="mask0_1293_15879" style="mask-type:luminance" maskUnits="userSpaceOnUse" x="0" y="0" width="36" height="53">
<path d="M1.95918 51.1821C1.01028 50.6075 0.642341 49.2792 1.17489 48.3183C1.60092 47.5553 2.43363 47.1125 3.22761 46.698C8.15607 44.0792 12.6682 40.7255 16.5412 36.769C17.9355 35.3465 19.2621 33.8392 20.3175 32.153C24.1518 26.0486 24.1324 18.4652 23.9872 11.3152C23.9581 10.0434 23.842 8.58327 22.7769 7.84849C22.438 7.61298 22.0313 7.48109 21.7118 7.22674C21.2373 6.84993 21.0146 6.25645 20.8113 5.69123C20.4724 4.74919 20.1335 3.80715 19.7946 2.87454C19.7075 2.62961 19.6203 2.37526 19.6784 2.12091C19.7268 1.94192 19.843 1.7912 19.9689 1.64989C20.7145 0.830323 21.7699 0.293363 22.8931 0.170898C24.0647 1.26366 25.3428 2.45062 25.488 4.02382C25.5267 4.4289 25.488 4.83397 25.517 5.22963C25.6332 6.80283 26.8048 8.1311 28.083 9.11081C29.3707 10.0811 30.8328 10.8442 31.9754 11.9746C32.9533 12.9543 33.6602 14.1695 34.183 15.4319C36.5262 21.0652 35.5289 27.5464 33.2148 33.1987C29.8646 41.3849 23.9581 48.0263 15.6311 51.493C13.743 52.2843 11.148 53.0002 9.09529 52.8684C6.58748 52.7082 4.10873 52.4821 1.97855 51.1915L1.95918 51.1821Z" fill="white"/>
</mask>
<g mask="url(#mask0_1293_15879)">
<g opacity="0.66">
<path d="M1.17501 48.3183C2.54026 49.7314 3.23741 49.656 4.78663 48.9307C6.6457 48.0734 8.39826 46.8582 10.0443 45.6618C13.9948 42.798 17.4999 39.4161 20.3176 35.469C22.9222 31.8327 24.8684 27.5653 25.4784 23.1566C25.7883 20.8674 25.8077 18.5783 25.7883 16.2703C25.7592 14.0848 25.6043 11.8993 24.6554 9.8833C24.181 8.85649 23.571 7.81083 22.8932 6.92531C22.38 6.25647 21.9443 5.77603 21.8571 5.21081C21.5279 3.07239 18.3907 3.67529 18.4488 4.03327C20.7727 4.04269 23.174 17.4855 22.9706 22.1863C22.4768 30.382 16.4639 36.5052 10.4413 41.7712C8.77588 43.2314 6.13252 44.4937 4.3606 45.8408C3.59567 46.4249 0.836115 47.9792 1.16532 48.3089L1.17501 48.3183Z" fill="#FDE15D"/>
</g>
<path d="M1.26154 50.3721C2.24917 51.2294 4.25347 52.454 5.54126 52.6801C6.89683 52.9156 11.9124 52.8403 14.6042 52.0113C20.2105 50.2779 24.4999 45.8127 27.4628 41.1402C30.5806 36.2322 33.2627 30.6836 34.2406 25.0031C35.0927 20.0574 34.7732 15.7429 31.5488 11.4378C31.1034 10.8349 26.3396 7.80156 26.2331 7.2646C28.8571 6.1059 23.8802 -0.893422 22.1179 0.481949C22.3406 1.895 21.0819 1.03775 22.0405 2.04573C22.7957 2.83704 23.4832 3.67545 23.977 4.64575C24.4224 5.51242 24.4999 6.43561 24.7226 7.38707C25.0518 8.7907 25.9426 9.79868 27.0464 10.6936C28.7602 12.0972 29.5736 13.6139 29.9899 15.79C30.3676 17.74 30.261 19.9256 30.0287 21.9415C29.4477 27.0568 27.8113 32.0872 25.3229 36.6278C24.0738 38.9076 23.1443 40.4242 21.4692 42.4402C19.9394 44.2677 17.5574 46.5192 15.4853 47.8004C13.2099 49.1946 10.4891 50.0613 7.88446 50.5511C6.52889 50.8055 5.14428 51.0033 3.76934 51.1258C2.33631 51.2577 2.63647 49.9765 1.27122 50.4004C0.864548 50.5229 1.91027 51.0787 2.24917 51.3801L1.27122 50.4004L1.26154 50.3721Z" fill="#F1B71C"/>
<path d="M26.6109 44.9841C32.0719 37.6268 36.0127 29.9115 35.5092 20.6796C35.3833 18.3716 34.3957 15.9977 33.7082 13.7745C33.3693 12.6817 29.3317 9.45051 29.5544 10.2983C29.8061 11.2215 31.2489 11.5512 31.8879 14.0665C32.3139 15.7621 32.769 17.7498 32.9336 19.4832C33.3016 23.2796 32.4301 26.6803 31.3069 30.326C30.0288 34.5275 28.0923 37.8529 25.5651 41.4609C23.1638 44.9087 19.8911 48.4696 16.3763 50.8812C14.4785 52.1812 13.0068 52.0399 11.9707 52.624C11.0896 53.1044 23.7158 48.8558 26.6012 44.9747L26.6109 44.9841Z" fill="#E4AA24"/>
</g>
<g opacity="0.6">
<path d="M5.50259 48.9315C6.1126 48.9315 6.51927 49.0351 7.13896 48.9127C7.7296 48.7902 8.30088 48.6677 8.88183 48.4793C10.0438 48.0931 11.2057 47.6692 12.2901 47.0945C14.4784 45.9264 16.5021 44.5039 18.3224 42.8459C20.2686 41.0655 22.0115 39.0778 23.2702 36.7698C23.919 35.5923 24.4322 34.3205 24.7711 33.0299C24.9453 32.3799 25.1196 31.664 25.1293 30.9951C25.139 30.3451 24.9453 29.714 24.8291 29.0922C24.7226 28.5459 24.0158 28.4893 23.6575 28.8002C22.6796 29.6292 22.0018 30.4205 21.3724 31.5227C20.7624 32.5966 20.2299 33.7082 19.6199 34.7821C18.487 36.7981 16.9475 38.5314 15.2724 40.1235C13.7425 41.5836 12.1062 42.9873 10.373 44.2213C9.47248 44.8619 8.6204 45.559 7.71024 46.1713C7.25515 46.4728 6.8388 46.8119 6.40308 47.1228C5.90926 47.4902 5.67688 47.8482 5.23148 48.2626C4.97005 48.5076 5.18307 48.9315 5.52196 48.9315H5.50259Z" fill="white"/>
</g>
<g opacity="0.42">
<path d="M26.0393 26.3884C27.6757 25.6818 27.9564 23.3927 28.1598 21.8666C28.3922 20.1521 28.7795 17.7782 27.7628 16.2427C27.2012 15.3854 25.8166 15.3006 25.2937 16.2709C24.5385 17.6745 24.829 19.4456 24.7999 20.9811C24.7902 21.7253 24.7805 22.4883 24.7999 23.2326C24.8193 23.9673 25.0226 24.8152 24.8483 25.5311C24.6837 26.2282 25.4196 26.6427 26.0199 26.3884H26.0393Z" fill="white"/>
</g>
<mask id="mask1_1293_15879" style="mask-type:luminance" maskUnits="userSpaceOnUse" x="0" y="0" width="36" height="53">
<path d="M1.95918 51.1821C1.01028 50.6075 0.642341 49.2792 1.17489 48.3183C1.60092 47.5553 2.43363 47.1125 3.22761 46.698C8.15607 44.0792 12.6682 40.7255 16.5412 36.769C17.9355 35.3465 19.2621 33.8392 20.3175 32.153C24.1518 26.0486 24.1324 18.4652 23.9872 11.3152C23.9581 10.0434 23.842 8.58327 22.7769 7.84849C22.438 7.61298 22.0313 7.48109 21.7118 7.22674C21.2373 6.84993 21.0146 6.25645 20.8113 5.69123C20.4724 4.74919 20.1335 3.80715 19.7946 2.87454C19.7075 2.62961 19.6203 2.37526 19.6784 2.12091C19.7268 1.94192 19.843 1.7912 19.9689 1.64989C20.7145 0.830323 21.7699 0.293363 22.8931 0.170898C24.0647 1.26366 25.3428 2.45062 25.488 4.02382C25.5267 4.4289 25.488 4.83397 25.517 5.22963C25.6332 6.80283 26.8048 8.1311 28.083 9.11081C29.3707 10.0811 30.8328 10.8442 31.9754 11.9746C32.9533 12.9543 33.6602 14.1695 34.183 15.4319C36.5262 21.0652 35.5289 27.5464 33.2148 33.1987C29.8646 41.3849 23.9581 48.0263 15.6311 51.493C13.743 52.2843 11.148 53.0002 9.09529 52.8684C6.58748 52.7082 4.10873 52.4821 1.97855 51.1915L1.95918 51.1821Z" fill="white"/>
</mask>
<g mask="url(#mask1_1293_15879)">
<path d="M19.3969 2.92319C20.2974 3.88406 21.4787 4.63769 22.7471 4.21377C24.3157 3.68624 24.519 3.29058 24.5093 1.75506C24.5093 0.285488 24.2285 0.831868 22.8826 0.181864C22.8826 0.181864 20.3458 -0.251473 19.3969 1.53839C19.2129 1.89637 19.1645 2.36739 19.3969 2.92319Z" fill="#753C2B"/>
<path d="M2.24908 51.3528C2.36527 51.7202 2.38464 51.739 2.30717 51.3811C2.28781 51.268 2.27813 51.1644 2.25876 51.0513C2.21035 50.7876 2.19098 50.5426 2.16194 50.2789C2.09416 49.6477 1.9586 49.0071 1.85209 48.3854C1.72622 47.5376 2.02638 47.6883 1.17431 47.2832C0.0995323 49.3274 0.235089 49.4216 0.893509 50.5897C1.58098 51.334 1.57129 51.56 2.43305 51.8144C2.58797 51.5695 2.43305 51.5506 2.24908 51.3528Z" fill="#753C2B"/>
<g opacity="0.53">
<path d="M1.8329 48.4424C1.94909 48.8098 1.96846 48.8287 1.891 48.4707C1.87163 48.3576 1.86195 48.254 1.84259 48.141C1.79417 47.8772 1.19385 50.3453 1.93941 49.1866C2.09433 48.9417 2.01687 48.6403 1.8329 48.4424Z" fill="#753C2B"/>
</g>
</g>
</svg>
