<svg viewBox="0 0 40 85" fill="none" xmlns="http://www.w3.org/2000/svg">
<path d="M15.5628 28.1426C14.5396 24.1898 12.5931 20.7612 10.6279 17.2142C8.29415 12.9911 6.60129 8.71229 5.00023 4.18335C4.75036 3.48838 3.65161 3.58758 3.68161 4.37698C3.81099 8.40134 5.84304 12.0786 7.75389 15.5359C10.1058 19.7889 12.9348 23.8593 14.7808 28.3749C14.9713 28.8486 15.6877 28.6631 15.5572 28.1532L15.5628 28.1426Z" fill="#9FBB41"/>
<path d="M13.33 28.5736C11.464 22.6089 6.61359 18.097 4.13364 12.4192C4.00371 12.1132 3.49838 12.2335 3.61957 12.5689C4.54534 15.1674 5.99706 17.4529 7.45065 19.7734C9.31589 22.7655 11.8657 25.3247 13.2787 28.5806C13.2887 28.613 13.3375 28.5979 13.3275 28.5655L13.33 28.5736Z" fill="#9FBB41"/>
<path d="M13.8261 27.2401C12.6629 23.1796 11.5297 19.1009 8.45705 16.0285C8.00542 15.5732 7.35706 16.1813 7.62442 16.7023C9.48343 20.3087 11.4917 23.8513 13.4351 27.4139C13.5563 27.6339 13.8879 27.4695 13.8261 27.2401Z" fill="#6E923D"/>
<path d="M16.4939 27.0396C16.5844 23.8437 15.6393 20.9228 14.7966 17.8727C13.8096 14.3258 13.479 10.8604 13.3872 7.18828C13.3734 6.50923 12.4083 6.40749 12.2159 7.05249C11.3184 10.1689 11.8981 13.4332 12.5378 16.5459C13.2906 20.2272 14.3626 23.8189 16.1016 27.1517C16.2072 27.3499 16.492 27.2354 16.4995 27.029L16.4939 27.0396Z" fill="#6E923D"/>
<path d="M15.6043 26.8972C14.6829 23.3035 14.0401 19.6327 13.108 16.0333C12.6295 14.1931 12.2484 12.3228 11.7212 10.4977C11.2258 8.80463 10.1133 7.41727 9.73162 5.68919C9.6729 5.44108 9.25127 5.42911 9.21004 5.69916C8.71852 9.03646 10.1297 12.4881 10.7718 15.7243C11.5946 19.8632 12.8983 23.5432 15.2133 27.071C15.3482 27.2779 15.6687 27.1347 15.6043 26.8972Z" fill="#A8C23F"/>
<path d="M17.4329 25.9322C17.3067 22.1199 17.5764 18.2653 18.3516 14.5211C18.4602 14.0084 17.7306 13.834 17.5689 14.3187C16.2903 18.1028 16.3578 22.0131 16.8982 25.9285C16.947 26.2595 17.4517 26.2814 17.4385 25.9216L17.4329 25.9322Z" fill="#A8C23F"/>
<path d="M15.7312 27.7105C15.0303 23.8801 12.9907 20.1785 11.5021 16.5911C9.7568 12.3728 8.16763 8.14192 7.22371 3.6677C7.13188 3.2257 6.39042 3.33009 6.43353 3.78712C7.14704 12.5031 12.4273 19.7932 15.2009 27.8651C15.3164 28.2111 15.793 28.0552 15.7312 27.7105Z" fill="#5D7533"/>
<path d="M16.7378 25.4385C16.5266 21.466 15.3509 17.5957 15.7369 13.5988C15.765 13.315 15.2959 13.2644 15.2465 13.537C14.5477 17.586 15.8932 21.4306 16.2675 25.4415C16.2981 25.7427 16.7522 25.7447 16.7378 25.4385Z" fill="#5D7533"/>
<path d="M13.3881 28.8483C11.5515 25.4302 9.2078 22.2129 6.48243 19.4594C6.21195 19.1878 5.8503 19.601 6.07768 19.877C8.53446 22.8554 10.8694 25.8713 13.0745 29.0426C13.2044 29.2333 13.4986 29.0627 13.3799 28.8508L13.3881 28.8483Z" fill="#5D7533"/>
<path d="M32.3936 82.7547C32.7584 82.5535 34.3094 81.8445 32.898 68.5873C32.6444 66.2074 32.1696 63.8602 31.7136 61.5162C31.3481 59.6677 30.9208 57.8206 30.496 55.9816C28.6113 47.8219 26.711 39.6405 23.8937 31.7152C23.2553 29.9332 22.5556 28.1256 21.2638 26.7048C19.972 25.284 17.9713 24.3036 16.0705 24.6857C15.2335 24.855 13.0504 25.4749 12.4482 26.0599C9.80292 28.6416 9.51621 28.8365 9.96042 33.1897C10.2478 35.9673 12.0912 40.4748 13.533 43.6508C17.4715 52.3573 21.9591 61.7199 25.1038 70.7067C26.3737 74.335 27.2952 78.1595 29.494 81.3682C30.1542 82.3271 31.3698 83.3278 32.3961 82.7628L32.3936 82.7547Z" fill="#EF6624"/>
<mask id="mask0_1232_20121" style="mask-type:luminance" maskUnits="userSpaceOnUse" x="9" y="24" width="25" height="59">
<path d="M32.3936 82.7547C32.7584 82.5535 34.3094 81.8445 32.898 68.5873C32.6444 66.2074 32.1696 63.8602 31.7136 61.5162C31.3481 59.6677 30.9208 57.8206 30.496 55.9816C28.6113 47.8219 26.711 39.6405 23.8937 31.7152C23.2553 29.9332 22.5556 28.1256 21.2638 26.7048C19.972 25.284 17.9713 24.3036 16.0705 24.6857C15.2335 24.855 13.0504 25.4749 12.4482 26.0599C9.80292 28.6416 9.51621 28.8365 9.96042 33.1897C10.2478 35.9673 12.0912 40.4748 13.533 43.6508C17.4715 52.3573 21.9591 61.7199 25.1038 70.7067C26.3737 74.335 27.2952 78.1595 29.494 81.3682C30.1542 82.3271 31.3698 83.3278 32.3961 82.7628L32.3936 82.7547Z" fill="white"/>
</mask>
<g mask="url(#mask0_1232_20121)">
<g opacity="0.23">
<path d="M35.0367 86.1648C38.3141 82.1726 37.0884 75.9484 36.8285 71.1834C36.4742 64.6993 34.9112 58.1886 33.2832 51.9287C31.606 45.4799 29.0592 39.3258 26.5174 33.1879C23.8125 26.6655 21.5312 19.7285 15.9949 15.011C14.0635 13.3614 7.27067 23.9483 9.11902 25.588C11.1279 27.3734 13.807 26.3432 16.1514 31.9562C18.6007 37.7943 20.6934 46.0229 22.56 52.0761C24.3716 57.9511 25.7965 62.1972 27.6974 68.0446C28.6606 70.9954 29.5146 74.3704 30.6702 77.253C31.5085 79.3372 32.1938 81.8768 31.1807 83.263C30.498 84.1923 34.3034 87.0743 35.0392 86.173L35.0367 86.1648Z" fill="#D24D27"/>
</g>
<g opacity="0.23">
<path d="M37.7698 84.9315C41.0472 80.9393 39.8215 74.715 39.5616 69.95C39.2073 63.466 37.6443 56.9553 36.0164 50.6953C34.3391 44.2465 31.7923 38.0924 29.2505 31.9546C26.5456 25.4321 24.2643 18.4952 18.728 13.7776C16.7966 12.1281 9.43476 23.84 11.8521 24.3547C14.8604 24.9977 16.5401 25.1098 18.8845 30.7229C21.3338 36.5609 23.4266 44.7896 25.2931 50.8428C27.1047 56.7178 28.5296 60.9638 30.4305 66.8113C31.3938 69.7621 31.9717 76.2216 32.9774 80.1177C33.5421 82.2951 34.644 83.6769 33.6284 85.0549C32.9457 85.9842 37.034 85.8328 37.7723 84.9396L37.7698 84.9315Z" fill="#D24D27"/>
</g>
<g opacity="0.59">
<path d="M39.5842 82.5428C42.8617 78.5506 41.636 72.3263 41.3761 67.5613C41.0218 61.0773 39.4588 54.5666 37.8308 48.3067C36.1535 41.8579 33.6067 35.7038 31.0649 29.5659C28.3601 23.0435 26.0788 16.1065 20.5424 11.3889C18.611 9.73941 11.2492 21.4513 13.6666 21.966C16.6749 22.609 18.3546 22.7212 20.6989 28.3342C23.1483 34.1723 25.241 42.4009 27.1076 48.4541C28.9191 54.3291 30.344 58.5751 32.2449 64.4226C33.2082 67.3734 33.7861 73.8329 34.7919 77.729C35.3566 79.9064 36.4585 81.2882 35.4429 82.6663C34.7601 83.5956 38.8484 83.4442 39.5867 82.5509L39.5842 82.5428Z" fill="#D24D27"/>
</g>
</g>
<path d="M30.4685 79.2219C30.1562 77.2861 29.489 75.4686 28.8631 73.6117C28.1772 71.5604 27.5862 69.4709 26.4225 67.629C26.0002 66.9517 24.9464 67.4275 25.1545 68.1886C25.7648 70.4851 26.4669 72.7621 27.1179 75.0461C27.617 76.809 28.1455 78.5805 29.6671 79.7086C30.0688 80.0019 30.5485 79.7119 30.4685 79.2219Z" fill="#F1832E"/>
<path d="M25.6954 65.2441C26.2557 62.7641 24.541 59.6546 23.5821 57.4389C22.0673 53.9394 20.2076 50.5905 18.5978 47.1292C17.073 43.8279 15.7437 40.3244 14.7042 36.8381C14.0308 34.5965 14.8278 32.3364 14.4817 30.1181C14.1207 27.8513 10.9075 27.9281 9.93058 29.6048C8.825 31.4986 9.83573 34.2573 10.3948 36.2146C11.3069 39.4031 12.9791 42.3749 14.2953 45.4033C15.8176 48.9271 17.6423 52.2779 19.3982 55.6942C21.0279 58.8743 21.8144 62.6073 23.8427 65.5225C24.3237 66.2172 25.5024 66.1466 25.7116 65.2391L25.6954 65.2441Z" fill="#F1832E"/>
<g opacity="0.36">
<path d="M20.085 54.2038C19.97 52.216 18.8794 50.5823 17.9411 48.8661C16.6418 46.4981 15.8672 43.8706 14.5866 41.5057C14.3855 41.1418 13.7153 41.3041 13.7777 41.7374C14.3594 46.1902 17.5301 50.4747 19.6765 54.3209C19.7796 54.5109 20.0988 54.4214 20.0825 54.1957L20.085 54.2038Z" fill="#FCBE7B"/>
</g>
<g opacity="0.36">
<path d="M13.8439 39.2416C13.8232 38.05 13.4709 36.9074 13.2348 35.7379C12.9768 34.4686 13.1398 33.1227 12.7843 31.8835C12.6694 31.5108 12.081 31.3905 11.908 31.781C10.9442 33.9329 12.0299 37.5115 13.2136 39.4182C13.3923 39.7092 13.8576 39.5746 13.8495 39.231L13.8439 39.2416Z" fill="#FCBE7B"/>
</g>
<g opacity="0.36">
<path d="M30.2863 72.1167C30.9728 71.9494 31.648 71.8033 32.307 71.5468C32.4969 71.4705 32.417 71.2112 32.2171 71.2551C31.5312 71.3956 30.8729 71.6252 30.2039 71.8493C30.0333 71.9019 30.1052 72.1637 30.2863 72.1167Z" fill="#C65C2A"/>
</g>
<g opacity="0.36">
<path d="M29.2077 74.6139C29.4026 74.5538 29.5975 74.4937 29.803 74.4392C29.8274 74.4317 29.8149 74.3912 29.7905 74.3987C29.5956 74.4588 29.4008 74.5189 29.1952 74.5734C29.1709 74.5809 29.1834 74.6214 29.2077 74.6139Z" fill="#C65C2A"/>
</g>
<g opacity="0.36">
<path d="M28.8935 76.4247C29.129 76.3521 29.3695 76.2957 29.6 76.2069C29.6812 76.1818 29.6437 76.0603 29.56 76.0772C29.3195 76.1336 29.084 76.2063 28.8485 76.2789C28.7592 76.3064 28.7936 76.4467 28.891 76.4166L28.8935 76.4247Z" fill="#C65C2A"/>
</g>
<g opacity="0.36">
<path d="M30.2937 75.974C30.2937 75.974 30.3874 75.9894 30.4274 76.0037C30.473 76.0074 30.4904 75.9488 30.4423 75.937C30.3942 75.9252 30.3486 75.9215 30.3087 75.9072C30.2631 75.9035 30.2456 75.9622 30.2937 75.974Z" fill="#C65C2A"/>
</g>
<g opacity="0.36">
<path d="M30.6415 77.1892C31.11 77.1512 31.6516 77.0907 32.0807 76.8963C32.1813 76.8475 32.1263 76.6693 32.0157 76.6856C31.5441 76.7423 31.09 76.971 30.6146 77.0733C30.5497 77.0933 30.5634 77.1955 30.6334 77.1917L30.6415 77.1892Z" fill="#C65C2A"/>
</g>
<g opacity="0.36">
<path d="M30.4384 79.3289L30.8526 79.2012C30.95 79.1712 30.9131 79.0228 30.8051 79.0473L30.3859 79.1587C30.2804 79.1913 30.3247 79.364 30.4384 79.3289Z" fill="#C65C2A"/>
</g>
<g opacity="0.36">
<path d="M30.3291 80.8171C30.6676 80.8192 31.0105 80.8643 31.3023 80.6856C31.3841 80.6337 31.3472 80.4854 31.2448 80.4992C30.935 80.5326 30.6295 80.6091 30.3247 80.6587C30.2222 80.6725 30.2216 80.8147 30.3291 80.8171Z" fill="#C65C2A"/>
</g>
<g opacity="0.36">
<path d="M28.9303 69.4201L29.1658 69.3475C29.1658 69.3475 29.1714 69.3369 29.1633 69.3394C29.0821 69.3644 29.009 69.387 28.9278 69.412C28.9197 69.4145 28.9247 69.4307 28.9328 69.4282L28.9303 69.4201Z" fill="#C65C2A"/>
</g>
<g opacity="0.36">
<path d="M27.707 69.6028C28.3523 69.4748 29.0819 69.4184 29.6615 69.1066C29.8002 69.0372 29.7302 68.8103 29.5741 68.823C28.912 68.8674 28.2698 69.2074 27.6571 69.4407C27.5515 69.4733 27.5909 69.6297 27.7095 69.6109L27.707 69.6028Z" fill="#C65C2A"/>
</g>
<g opacity="0.36">
<path d="M24.7956 67.1714C24.9836 67.0601 25.171 66.9757 25.3821 66.9106C25.5851 66.848 25.7712 66.8173 25.9305 66.6705C26.0348 66.5763 25.9805 66.3712 25.8306 66.3464C25.3939 66.2858 24.9042 66.6587 24.5969 66.9309C24.4651 67.0514 24.6431 67.2539 24.7874 67.1739L24.7956 67.1714Z" fill="#C65C2A"/>
</g>
<g opacity="0.36">
<path d="M30.3508 65.2021C30.743 65.09 31.1459 64.9836 31.5382 64.8715C31.6032 64.8514 31.5707 64.7461 31.5057 64.7661C31.1159 64.8863 30.718 65.009 30.3258 65.1211C30.277 65.1361 30.2995 65.209 30.3508 65.2021Z" fill="#C65C2A"/>
</g>
<g opacity="0.36">
<path d="M26.0547 64.2191C26.4989 64.1886 26.8649 64.0491 27.264 63.8728C27.4352 63.7934 27.3427 63.4936 27.1541 63.5162C26.9654 63.5389 26.7955 63.5647 26.6244 63.6441C26.4045 63.7385 26.1996 63.8815 25.9848 63.9922C25.868 64.0459 25.9279 64.2404 26.0572 64.2272L26.0547 64.2191Z" fill="#C65C2A"/>
</g>
<g opacity="0.36">
<path d="M24.1505 60.8388C24.5878 60.6419 25.0519 60.5609 25.4742 60.3153C25.6703 60.2016 25.5697 59.9043 25.3492 59.9102C24.812 59.8983 24.3411 60.1589 23.8963 60.4469C23.6371 60.6156 23.8707 60.9695 24.1449 60.8495L24.1505 60.8388Z" fill="#C65C2A"/>
</g>
<g opacity="0.36">
<path d="M28.6771 58.9381C29.1668 58.7959 29.6709 58.8446 30.155 58.7131C30.293 58.6705 30.3093 58.4348 30.1512 58.4125C29.6371 58.3314 29.0806 58.4587 28.5977 58.652C28.4241 58.7232 28.4878 58.9876 28.6852 58.9356L28.6771 58.9381Z" fill="#C65C2A"/>
</g>
<g opacity="0.36">
<path d="M24.6169 56.1257C24.9055 55.9657 25.2034 55.865 25.5195 55.7941C25.8112 55.7308 26.1541 55.7759 26.4158 55.6153C26.5358 55.5429 26.4995 55.3677 26.374 55.3354C26.0723 55.251 25.7218 55.4123 25.4401 55.508C25.1097 55.6188 24.8049 55.7838 24.5313 55.9924C24.452 56.0523 24.5188 56.1826 24.6169 56.1257Z" fill="#C65C2A"/>
</g>
<g opacity="0.36">
<path d="M21.1264 56.2236C21.2525 56.1137 21.3893 56.0094 21.5286 55.9132C21.6023 55.8638 21.5324 55.7523 21.4587 55.8016C21.3006 55.8947 21.1557 56.0015 21.0133 56.1164C20.934 56.1764 21.052 56.2997 21.1289 56.2317L21.1264 56.2236Z" fill="#C65C2A"/>
</g>
<g opacity="0.36">
<path d="M23.1496 52.6647C23.6169 52.565 24.081 52.484 24.5207 52.2952C24.6781 52.2289 24.6188 52.0076 24.4408 52.0358C23.966 52.1112 23.5319 52.2895 23.0847 52.454C22.9547 52.4941 23.0066 52.6911 23.1471 52.6566L23.1496 52.6647Z" fill="#C65C2A"/>
</g>
<g opacity="0.36">
<path d="M19.3958 50.1748C19.7243 50.1444 19.9935 50.1235 20.2821 49.9636C20.3802 49.9067 20.3302 49.7446 20.2171 49.7529C19.8861 49.7751 19.6412 49.9038 19.3558 50.0451C19.2933 50.0732 19.3258 50.1786 19.3933 50.1667L19.3958 50.1748Z" fill="#C65C2A"/>
</g>
<g opacity="0.36">
<path d="M22.1511 49.1912C22.8282 49.08 23.5047 48.9956 24.1468 48.771C24.3823 48.6984 24.3311 48.3592 24.0869 48.3458C23.3541 48.3055 22.7333 48.6567 22.0843 48.9456C21.935 49.0094 21.9893 49.2144 22.1592 49.1887L22.1511 49.1912Z" fill="#C65C2A"/>
</g>
<g opacity="0.36">
<path d="M28.6173 49.745C28.1975 49.5372 27.7184 49.4542 27.2518 49.5271C27.0064 49.5673 27.0576 49.9065 27.255 49.9698C27.6791 50.1053 28.1238 49.9326 28.5561 49.9502C28.6635 49.9526 28.7048 49.7979 28.6092 49.7475L28.6173 49.745Z" fill="#C65C2A"/>
</g>
<g opacity="0.36">
<path d="M19.3114 45.8105C19.5569 45.7703 19.7899 45.6896 20.0229 45.6089C20.2721 45.5232 20.5501 45.473 20.7687 45.3168C20.908 45.2206 20.9061 44.955 20.7106 44.9265C20.1696 44.8449 19.7068 45.3337 19.2296 45.5163C19.0372 45.5845 19.1171 45.8438 19.3195 45.808L19.3114 45.8105Z" fill="#C65C2A"/>
</g>
<g opacity="0.36">
<path d="M25.6289 44.553C25.146 44.4002 24.7075 44.42 24.2128 44.546C23.9992 44.603 24.0504 44.9421 24.2684 44.9281C24.7125 44.8977 25.1585 44.7868 25.5964 44.7937C25.7388 44.7942 25.7488 44.5959 25.6207 44.5555L25.6289 44.553Z" fill="#C65C2A"/>
</g>
<g opacity="0.36">
<path d="M15.9316 42.3147C16.4582 42.2056 16.9772 42.0722 17.5038 41.963C17.7037 41.9192 17.7006 41.5918 17.4944 41.5577C16.8704 41.4662 16.3988 41.7536 15.8373 41.98C15.6311 42.0613 15.7155 42.3636 15.9397 42.3122L15.9316 42.3147Z" fill="#C65C2A"/>
</g>
<g opacity="0.36">
<path d="M23.1829 40.6568C22.775 40.6318 22.334 40.5282 21.9411 40.6671C21.7219 40.7347 21.695 41.0801 21.9517 41.1341C22.3984 41.2271 22.8387 41.0114 23.2379 40.8351C23.3303 40.7889 23.2741 40.6642 23.1854 40.6649L23.1829 40.6568Z" fill="#C65C2A"/>
</g>
<g opacity="0.36">
<path d="M16.8953 38.0877C17.7485 37.798 18.6362 37.7639 19.5113 37.5739C19.7193 37.5275 19.6593 37.2177 19.4551 37.2186C18.5225 37.2222 17.6461 37.3504 16.7885 37.7125C16.5605 37.8094 16.6542 38.171 16.9034 38.0852L16.8953 38.0877Z" fill="#C65C2A"/>
</g>
<g opacity="0.36">
<path d="M14.3425 34.1362C14.6548 33.9955 14.9722 33.871 15.282 33.7223C15.415 33.6635 15.3063 33.484 15.1876 33.5029C14.8422 33.565 14.548 33.7356 14.2432 33.9006C14.1126 33.9675 14.2176 34.1924 14.3425 34.1362Z" fill="#C65C2A"/>
</g>
<g opacity="0.36">
<path d="M19.5346 32.9793C19.9668 32.8815 20.4515 32.8385 20.8613 32.6678C21.035 32.5965 21.0793 32.3077 20.8519 32.2625C20.3597 32.1658 19.8781 32.4207 19.4227 32.5878C19.1735 32.6735 19.2753 33.0326 19.5427 32.9768L19.5346 32.9793Z" fill="#C65C2A"/>
</g>
<g opacity="0.36">
<path d="M23.9542 35.2012C23.6587 35.1947 23.367 35.1427 23.0978 35.2789C22.951 35.3508 23.0022 35.5746 23.1465 35.61C23.4058 35.672 23.6943 35.6274 23.9554 35.609C24.2165 35.5906 24.2147 35.2096 23.9461 35.2037L23.9542 35.2012Z" fill="#C65C2A"/>
</g>
<g opacity="0.36">
<path d="M15.4077 29.3716C16.0998 29.0783 16.8076 29.2683 17.5128 29.104C17.7452 29.0501 17.7264 28.701 17.5071 28.6532C16.7801 28.487 15.8712 28.6252 15.2853 29.0899C15.1648 29.1892 15.2341 29.4429 15.4077 29.3716Z" fill="#C65C2A"/>
</g>
<g opacity="0.6">
<path d="M31.9682 73.0438C32.3055 72.9842 32.7584 73.0398 33.0351 72.8125C33.1638 72.7107 33.1169 72.5299 32.9426 72.5126C32.5835 72.4725 32.2355 72.7573 31.9101 72.8843C31.8152 72.9224 31.847 73.0546 31.9576 73.0382L31.9682 73.0438Z" fill="#C65C2A"/>
</g>
<g opacity="0.6">
<path d="M27.3615 67.7919C27.7225 67.7515 28.256 67.8089 28.5389 67.5442C28.6132 67.468 28.5764 67.3196 28.464 67.3011C28.0867 67.231 27.6732 67.5627 27.339 67.7189C27.2984 67.7315 27.3184 67.7963 27.3615 67.7919Z" fill="#C65C2A"/>
</g>
<path d="M29.218 74.8503C29.6965 74.7293 30.1774 74.6165 30.6459 74.4632C30.6865 74.4507 30.6665 74.3859 30.6259 74.3984C30.1475 74.5193 29.684 74.6888 29.213 74.8341C29.2049 74.8366 29.2099 74.8528 29.218 74.8503Z" fill="#FBB87F"/>
<path d="M29.0385 72.8838C28.8068 72.9109 28.5782 72.9193 28.3521 72.9358C28.2902 72.9371 28.2908 73.0256 28.3552 73.0324C28.5888 73.0403 28.8212 72.9864 29.0479 72.9431C29.0804 72.933 29.0654 72.8844 29.0329 72.8944L29.0385 72.8838Z" fill="#FBB87F"/>
<path d="M28.8636 66.0592C29.5632 65.9056 30.2677 65.8835 30.9636 65.7754C31.0579 65.7641 31.0292 65.6132 30.9405 65.614C30.2359 65.636 29.5226 65.8027 28.8511 66.0186C28.8267 66.0262 28.8392 66.0667 28.8636 66.0592Z" fill="#F99F35"/>
<path d="M24.9526 62.0569C25.4817 61.9559 26.0095 61.9085 26.5398 61.8692C26.6716 61.864 26.6679 61.6789 26.5392 61.6653C25.9626 61.6123 25.4717 61.8081 24.9401 62.0164C24.9157 62.0239 24.9257 62.0563 24.9526 62.0569Z" fill="#F99F35"/>
<path d="M22.5684 58.4781C22.7276 58.4467 22.8975 58.421 23.0468 58.3572C23.1255 58.324 23.093 58.2187 23.0068 58.2275C22.8451 58.2508 22.6902 58.3252 22.5359 58.3728C22.4709 58.3928 22.5009 58.49 22.5684 58.4781Z" fill="#F99F35"/>
<path d="M27.255 57.1227C27.706 57.028 28.1532 56.9788 28.6036 56.9109C28.7142 56.8946 28.6692 56.7487 28.578 56.7413C28.1089 56.6908 27.6635 56.8902 27.2325 57.0497C27.1838 57.0648 27.2063 57.1377 27.2575 57.1308L27.255 57.1227Z" fill="#F99F35"/>
<path d="M23.6766 53.8245C23.7334 53.807 23.7984 53.787 23.8552 53.7695C23.8634 53.767 23.8584 53.7507 23.8502 53.7533C23.7934 53.7708 23.7284 53.7908 23.6691 53.8002C23.6529 53.8052 23.6604 53.8295 23.6766 53.8245Z" fill="#F99F35"/>
<path d="M22.2983 53.5046C22.793 53.3786 23.2609 53.3675 23.7537 53.322C23.8668 53.3137 23.9086 53.1322 23.7775 53.1106C23.2771 53.0164 22.7268 53.2216 22.2633 53.3911C22.1903 53.4136 22.2171 53.5296 22.2983 53.5046Z" fill="#F99F35"/>
<path d="M20.1481 51.1767C20.2049 51.1592 20.2674 51.131 20.3217 51.1054C20.3705 51.0904 20.348 51.0175 20.2968 51.0244C20.2399 51.0419 20.17 51.0457 20.1106 51.0552C20.035 51.0696 20.075 51.1992 20.1456 51.1686L20.1481 51.1767Z" fill="#F99F35"/>
<path d="M23.1745 47.8387C24.555 47.5284 25.9217 47.5773 27.3159 47.6C27.4421 47.6054 27.4302 47.4227 27.3122 47.4148C25.9311 47.2905 24.4981 47.4306 23.1545 47.7739C23.1139 47.7864 23.1339 47.8513 23.1745 47.8387Z" fill="#F99F35"/>
<path d="M29.7285 71.5167C28.9095 71.716 28.1375 71.8653 27.461 72.4111C27.4035 72.4554 27.4523 72.5558 27.5285 72.5145C28.2 72.0679 28.9951 71.8493 29.7534 71.5977C29.8022 71.5827 29.7797 71.5098 29.7285 71.5167Z" fill="#F99F35"/>
<path d="M16.6808 41.3759C17.4698 41.1948 18.2843 41.1832 19.0713 40.9672C19.2013 40.9271 19.1713 40.7145 19.0338 40.7303C18.2149 40.8142 17.431 41.0115 16.6608 41.3111C16.6202 41.3236 16.6402 41.3885 16.6808 41.3759Z" fill="#F99F35"/>
<path d="M17.2678 36.2696C17.5277 36.1895 17.8044 36.1929 18.0536 36.1072C18.151 36.0771 18.1361 35.9132 18.023 35.9214C17.7513 35.9342 17.4677 35.995 17.2128 36.0914C17.0991 36.1264 17.146 36.3072 17.2678 36.2696Z" fill="#F99F35"/>
<path d="M22.0681 36.2368C22.2642 36.2384 22.4441 36.2451 22.6328 36.2224C22.7002 36.2105 22.6996 36.1219 22.6352 36.1151C22.4341 36.0973 22.2586 36.1337 22.0562 36.1695C22.0156 36.182 22.0306 36.2306 22.0681 36.2368Z" fill="#F99F35"/>
<path d="M32.7157 77.4285C32.246 77.5201 31.7844 77.6092 31.3196 77.717C31.2141 77.7496 31.2316 77.9217 31.3446 77.9134C31.8368 77.8948 32.2847 77.7034 32.7376 77.5283C32.8025 77.5083 32.7725 77.411 32.7051 77.4229L32.7157 77.4285Z" fill="#F99F35"/>
<path d="M24.3761 59.5547C25.2338 59.0773 26.177 58.9639 27.1358 58.8723C27.257 58.8616 27.2557 58.6845 27.1321 58.6872C26.1701 58.6821 25.132 58.9489 24.3062 59.4432C24.23 59.4844 24.3024 59.6041 24.3761 59.5547Z" fill="#F1832E"/>
<path d="M27.4739 72.0517C28.5333 71.4499 29.6695 70.8955 30.9 70.7911C31.0375 70.7753 31.0393 70.5795 30.8969 70.5791C29.5995 70.5532 28.4289 71.1981 27.3471 71.8423C27.2109 71.9198 27.3377 72.1292 27.4739 72.0517Z" fill="#F1832E"/>
<path d="M22.9145 50.0834C24.08 49.7684 25.2469 49.7458 26.4275 49.5947C26.5568 49.5815 26.5586 49.3857 26.4268 49.3908C25.2462 49.4265 24.0257 49.6787 22.9095 50.0672C22.9013 50.0697 22.9063 50.0859 22.9145 50.0834Z" fill="#F1832E"/>
<path d="M18.216 43.2104C19.5084 42.5279 20.9232 42.3579 22.3386 42.0456C23.5217 41.7873 24.7673 41.9623 25.881 41.4503C26.044 41.3734 25.9503 41.1272 25.781 41.1261C23.2156 41.083 20.361 41.8035 18.1436 43.0907C18.0674 43.132 18.1373 43.2435 18.2135 43.2023L18.216 43.2104Z" fill="#F1832E"/>
<path d="M18.8746 41.7116C19.5517 41.6004 20.2469 41.5192 20.8847 41.2515C21.0583 41.1802 20.9915 40.9346 20.7972 40.9679C20.1201 41.0791 19.4842 41.3816 18.8546 41.6468C18.814 41.6593 18.8315 41.716 18.8746 41.7116Z" fill="#F1832E"/>
<path d="M22.8412 33.0336C22.6264 33.0289 22.4527 32.9848 22.2516 33.0824C22.1373 33.1442 22.1379 33.3481 22.2603 33.3991C22.5052 33.5011 22.6926 33.4167 22.9262 33.3091C23.0674 33.2479 22.9755 33.0366 22.8412 33.0336Z" fill="#F1832E"/>
<path d="M16.9032 34.2521C17.09 34.1945 17.2686 34.1394 17.4504 34.0657C17.5697 34.02 17.5253 33.8473 17.3904 33.8712C17.2043 33.9019 17.0175 33.9595 16.8282 34.009C16.674 34.0566 16.7408 34.3022 16.9032 34.2521Z" fill="#F1832E"/>
<path d="M15.6156 31.49C15.9316 31.3038 16.2714 31.2522 16.605 31.1228C16.6781 31.1002 16.6731 30.9687 16.5869 30.9775C16.2202 31.0284 15.8542 31.1679 15.5406 31.3622C15.4588 31.4141 15.5337 31.5418 15.6156 31.49Z" fill="#F1832E"/>
<path d="M18.4176 31.7789C18.7018 31.6912 18.9966 31.6092 19.2833 31.5297C19.3483 31.5096 19.3158 31.4043 19.2508 31.4243C18.9666 31.512 18.6718 31.594 18.3769 31.676C18.312 31.6961 18.3445 31.8014 18.4094 31.7814L18.4176 31.7789Z" fill="#F1832E"/>
<path d="M21.9993 38.2619C22.1535 38.2143 22.3134 38.1561 22.4652 38.1004C22.5952 38.0604 22.5433 37.8634 22.4028 37.8978C22.246 37.9373 22.0786 37.9712 21.9218 38.0107C21.7569 38.0526 21.8312 38.3226 22.0018 38.27L21.9993 38.2619Z" fill="#F1832E"/>
<path d="M28.4349 53.1911C28.0545 53.0245 27.7459 53.0042 27.3655 53.1837C27.2431 53.248 27.3055 53.4506 27.4454 53.443C27.7521 53.4283 28.0732 53.3736 28.3843 53.4019C28.4942 53.4124 28.5442 53.2284 28.443 53.1886L28.4349 53.1911Z" fill="#F1832E"/>
<path d="M8.5003 14.933C6.95988 12.0714 5.58122 8.95587 4.99212 5.74769C4.9159 5.32749 4.34499 5.49467 4.30439 5.85327C4.13951 7.27957 4.87912 8.63993 5.45694 9.90821C6.26963 11.7075 6.94366 13.5761 8.15675 15.1455C8.31604 15.3448 8.62649 15.1692 8.5003 14.933Z" fill="#BACE44"/>
<path d="M12.527 17.3485C11.3645 14.5301 11.0765 11.6639 10.4437 8.71767C10.3756 8.41033 9.96705 8.52742 9.94207 8.79246C9.62856 11.64 10.7717 15.059 12.1984 17.4942C12.2965 17.668 12.6057 17.5461 12.527 17.3485Z" fill="#BACE44"/>
<path d="M11.4886 22.7794C11.1182 21.7223 10.5984 20.7289 9.97253 19.7949C9.91818 19.7052 9.77639 19.7933 9.83885 19.8805C10.4217 20.8189 11.0095 21.7735 11.4399 22.7944C11.4499 22.8268 11.4986 22.8118 11.4886 22.7794Z" fill="#BACE44"/>
<path d="M11.0929 8.3514C11.0485 6.90976 10.9904 5.48123 11.2896 4.05789C11.3171 3.91631 11.1035 3.85795 11.0679 4.00204C10.6956 5.44791 10.9118 6.8987 11.058 8.35331C11.0654 8.37762 11.1004 8.37571 11.101 8.34889L11.0929 8.3514Z" fill="#BACE44"/>
<path d="M15.4953 24.5243C15.4691 23.4586 15.2773 22.4618 14.9081 21.4664C14.8375 21.2663 14.5615 21.3514 14.5996 21.5615C14.7882 22.5771 15.1474 23.5401 15.3686 24.5456C15.391 24.6186 15.5016 24.6022 15.5035 24.5218L15.4953 24.5243Z" fill="#BACE44"/>
</svg>
