<svg viewBox="0 0 70 66" fill="none" xmlns="http://www.w3.org/2000/svg">
<path d="M16.6679 53.3084C17.2918 54.025 17.9697 59.7729 22.2245 61.5866C26.4793 63.4004 27.3699 60.2358 28.0102 60.202C28.6486 60.1649 33.5634 59.4496 36.2336 57.2904C38.9038 55.1311 41.5389 48.667 41.5432 46.7011C41.5474 44.7351 42.2294 45.0709 43.0911 44.6714C43.9561 44.27 45.7297 39.9087 46.1074 37.8984C46.4851 35.8881 45.8989 34.0695 46.6022 33.6079C47.3074 33.1498 48.1057 33.1694 48.6723 31.8572C49.2424 30.5431 51.4766 26.8832 51.0125 24.4804C50.5483 22.0776 50.1714 21.7576 50.4422 21.4968C50.7149 21.2393 51.9309 19.4559 51.8414 17.8068C51.7538 16.2008 51.6858 15.7841 51.9619 15.5248C52.2346 15.2673 53.2619 14.6566 53.3688 12.9071C53.4705 11.1562 53.2859 10.1954 51.4892 8.02139C49.6892 5.84927 47.1147 4.82243 45.2582 6.47206C45.2582 6.47206 43.2539 5.83434 41.8453 6.75401C41.8453 6.75401 39.5077 4.83218 36.5366 6.34675C33.5656 7.86132 33.3512 11.6297 33.3512 11.6297C33.3512 11.6297 32.4324 12.1889 31.6032 13.2278C30.7741 14.2667 30.7527 15.064 30.7527 15.064C30.7527 15.064 27.4484 15.2945 25.7688 18.1696C24.0892 21.0446 23.6133 26.5071 23.6133 26.5071C23.6133 26.5071 21.6312 27.0396 20.3217 29.8722C19.0174 32.7064 19.1345 37.7555 19.1345 37.7555C19.1345 37.7555 16.0796 38.5224 14.7352 42.6849C13.3908 46.8475 14.413 50.1668 15.0704 51.3017C15.7277 52.4366 16.0934 52.6569 16.6611 53.3122L16.6679 53.3084Z" fill="#F3B737"/>
<path d="M34.5321 10.8729C34.2354 11.0554 33.8326 11.2617 33.3681 11.4845C33.3598 11.573 33.3534 11.6251 33.3534 11.6251C33.3534 11.6251 32.4345 12.1844 31.6054 13.2233C30.7762 14.2622 30.7549 15.0595 30.7549 15.0595C30.7549 15.0595 27.4506 15.2899 25.771 18.165C24.0913 21.0401 23.6154 26.5026 23.6154 26.5026C23.6154 26.5026 21.6334 27.035 20.3239 29.8677C19.0196 32.7018 19.1367 37.7509 19.1367 37.7509C19.1367 37.7509 16.0818 38.5178 14.7374 42.6804C13.393 46.8429 14.4152 50.1622 15.0725 51.2971C15.7299 52.432 16.0956 52.6523 16.6633 53.3076C16.8852 53.5637 17.1157 54.4637 17.5152 55.5963L24.9747 47.4745C24.9747 47.4745 26.3739 45.6069 24.4628 43.3464C22.5536 41.0894 22.7355 39.9602 23.2291 37.9914C23.7228 36.0226 20.3521 37.0489 22.6537 34.0752C24.9571 31.1049 26.309 31.0065 28.6019 30.3013C30.8949 29.596 30.8387 27.1871 29.6686 26.1563C28.4985 25.1255 28.4155 23.4242 30.8128 21.8006C33.2101 20.1769 34.721 21.5742 36.729 21.0009C38.7336 20.4294 38.9765 17.5321 38.1074 16.0163C37.2384 14.5005 33.725 15.5884 33.725 15.5884C33.725 15.5884 34.4295 13.6966 36.9083 13.7793C39.3905 13.8602 41.0543 12.9223 40.2358 11.9034C39.4208 10.8826 36.7006 9.52199 34.525 10.868L34.5321 10.8729Z" fill="#F19E37"/>
<path d="M34.6764 33.2648C32.3232 31.8722 27.9794 31.9833 24.4167 35.5608C23.5907 36.3906 24.6697 37.7986 25.856 40.9119C27.0424 44.0252 26.333 46.4493 27.2331 50.3527C28.1332 54.2562 30.1546 56.0626 29.8495 57.3838C29.5444 58.7051 27.9401 57.2272 27.9247 57.7565C27.9092 58.2858 28.0153 60.2036 28.0153 60.2036C28.6538 60.1665 33.5686 59.4512 36.2388 57.292C38.909 55.1327 41.5441 48.6686 41.5483 46.7027C41.3637 45.7419 41.3815 43.2433 40.5953 40.9931C39.809 38.7429 37.0332 34.6641 34.6801 33.2715L34.6764 33.2648Z" fill="#F19420"/>
<path d="M45.2617 6.47047C45.2617 6.47047 43.2573 5.83275 41.8488 6.75242C41.8488 6.75242 39.5111 4.83059 36.5401 6.34516C34.3376 7.46784 33.6496 9.82708 33.4426 10.9747L37.8384 11.1083C37.8384 11.1083 38.9225 9.03196 40.9058 11.0802C42.8925 13.1265 36.0029 13.3288 36.6503 15.1223C37.1625 16.5452 39.9512 19.1033 41.0871 20.1045C40.8601 20.0542 40.5434 20.0096 40.0994 19.9828C38.1183 19.8484 30.7999 22.16 30.7279 24.2827C30.6568 26.3035 34.0351 30.6784 34.6597 31.4122C34.2455 31.2718 33.4448 31.0726 31.9907 30.8439C28.0392 30.2206 24.4135 35.5629 24.4135 35.5629L36.2904 57.2415C38.9396 55.0365 41.5349 48.652 41.5399 46.7033C41.5441 44.7373 42.2261 45.0731 43.0878 44.6736C43.9528 44.2722 45.7264 39.9108 46.1041 37.9006C46.4818 35.8903 45.8956 34.0716 46.5989 33.6101C47.3041 33.1519 48.1024 33.1716 48.669 31.8594C49.2357 30.5472 51.4733 26.8854 51.0092 24.4826C50.545 22.0798 50.2521 21.338 50.5638 21.5487C51.3549 22.0886 51.42 20.4947 51.573 18.8521C51.726 17.2094 51.6878 15.7878 51.9605 15.5303C52.2331 15.2728 53.2605 14.6621 53.3674 12.9127C53.469 11.1618 53.2844 10.2009 51.4878 8.02693C49.6877 5.8548 47.1133 4.82797 45.2568 6.47761L45.2617 6.47047Z" fill="#F19420"/>
<path d="M46.1057 37.8952C46.4834 35.885 45.8972 34.0663 46.6005 33.6048C46.6343 33.586 46.6647 33.5691 46.6932 33.5488C46.5716 32.7251 46.4375 31.8553 46.3039 30.9941C45.7637 27.579 41.8259 22.2134 40.2464 21.6397C38.6668 21.0659 32.2675 23.3917 31.9658 24.711C31.6607 26.0323 35.4281 29.9614 38.3632 33.3162C42.9897 38.6079 43.0894 44.6683 43.0894 44.6683C44.3819 43.7866 45.7279 39.9055 46.1057 37.8952Z" fill="#AB5025"/>
<path d="M39.0324 13.9566C37.0888 14.8605 38.1974 15.2635 40.118 16.8568C42.0387 18.4501 44.9815 23.3626 46.3679 26.9075C47.1933 29.0212 48.2294 30.4795 48.9309 31.3119C49.7242 29.7149 51.4216 26.6093 51.0143 24.4838C50.95 24.1532 50.891 23.8639 50.8386 23.6106C50.0447 21.5059 48.8468 18.7299 47.462 16.8433C44.9533 13.428 40.9746 13.058 39.0343 13.96L39.0324 13.9566Z" fill="#AB5025"/>
<path d="M38.7993 9.78939C39.5002 9.99992 40.1178 8.30196 41.5117 9.22606C42.9037 10.1468 41.2364 12.5826 43.8885 12.8338C46.5387 13.0817 47.6927 14.9907 49.0522 16.9752C50.1296 18.5474 50.7035 20.6862 50.8942 21.5068C50.9256 21.6349 51.0856 21.6123 51.1532 21.4952C51.5433 20.8283 52.3625 19.1507 51.9628 16.8401C51.4478 13.8522 49.2274 8.56023 47.0341 7.22444C44.8374 5.89053 42.7329 5.66149 39.781 7.5846C38.3725 8.50427 38.2755 9.63486 38.7959 9.79127L38.7993 9.78939Z" fill="#AB5025"/>
<path d="M30.7559 15.0618C30.7559 15.0618 31.1509 13.0905 32.7144 11.7493C34.2779 10.4082 36.0945 10.175 37.8382 11.1077C39.5852 12.0385 39.824 12.3646 39.4582 12.7092C39.0923 13.0537 37.3902 11.8376 35.2608 13.0918C33.1315 14.346 31.8652 15.1954 30.7507 15.0603L30.7559 15.0618Z" fill="#AB5025"/>
<path d="M25.9952 36.0297C25.2006 38.4835 28.7108 41.5759 28.3777 45.0352C28.0446 48.4945 29.0439 54.4784 31.8151 56.3446C34.5878 58.2056 37.798 55.6888 39.1552 53.3239C40.5124 50.9589 41.2805 48.7758 41.5378 46.7001C41.7951 44.6244 41.659 43.0983 40.5848 40.9905C39.5105 38.8827 37.3072 32.9369 34.228 32.6892C31.1507 32.4449 27.2783 32.0512 25.9866 36.0301L25.9952 36.0297Z" fill="#AB5025"/>
<path d="M46.8936 5.6911C47.1188 6.18372 47.4464 7.0915 48.6112 7.7149C51.3284 9.16548 52.2463 11.9073 53.0626 14.2115C53.2209 13.8676 53.3376 13.4409 53.3699 12.9022C53.4716 11.1513 53.2869 10.1905 51.4903 8.01646C50.1788 6.42883 48.4491 5.45754 46.8918 5.68773L46.8936 5.6911Z" fill="#AB5025"/>
<path d="M36.5398 6.34564C34.7504 7.25642 33.9612 8.98795 33.6175 10.2159C34.3415 10.118 35.2128 9.82339 35.5873 8.99307C36.2777 7.4577 37.9306 6.8743 39.1384 6.84283C39.6619 6.82981 40.0743 6.44174 40.3791 6.0032C39.4197 5.69366 38.0634 5.56938 36.5398 6.34564Z" fill="#AB5025"/>
<path d="M30.8665 36.7555C28.209 33.6215 25.9957 36.0299 25.9957 36.0299C25.201 38.4837 28.7113 41.5761 28.3782 45.0354C28.0451 48.4947 29.0444 54.4786 31.8156 56.3448C36.111 53.1543 33.5207 39.8914 30.8632 36.7574L30.8665 36.7555Z" fill="#D1652A"/>
<path d="M38.3626 33.3166C40.7322 36.0282 41.9117 38.938 42.5036 41.1329C44.6697 38.592 42.5377 32.9816 39.6111 28.0425C36.5296 22.8407 31.9651 24.7115 31.9651 24.7115C31.66 26.0327 35.4275 29.9618 38.3626 33.3166Z" fill="#D1652A"/>
<path opacity="0.62" d="M28.7636 37.7783C27.5916 38.6063 29.7386 44.1641 31.3102 43.498C32.8818 42.8319 31.126 36.1078 28.7636 37.7783Z" fill="#D0A687"/>
<path d="M39.4592 12.7101C39.6105 12.5686 39.6545 12.425 39.5308 12.2422C38.72 11.9692 36.4289 11.3806 34.4504 12.6038C33.1798 13.3895 32.0119 13.7077 31.1817 13.8294C30.8621 14.5277 30.7517 15.0612 30.7517 15.0612C31.8662 15.1963 33.1324 14.3469 35.2618 13.0927C37.3912 11.8386 39.0933 13.0546 39.4592 12.7101Z" fill="#D1652A"/>
<path d="M40.1212 16.8557C40.1212 16.8557 41.7941 15.767 45.1409 20.4992C48.4877 25.2313 49.4117 28.8832 48.9375 31.3089C48.9375 31.3089 47.0673 29.1537 45.0638 24.3236C43.1011 19.5987 40.1246 16.8538 40.1246 16.8538L40.1212 16.8557Z" fill="#D1652A"/>
<path d="M50.9895 21.6214C51.2045 21.5945 51.3742 21.1119 51.5555 20.6582C51.3582 19.5235 50.8751 17.8902 49.721 15.6547C47.3787 11.1143 45.2652 12.2141 44.3847 11.4415C43.5075 10.6671 43.8677 9.46083 42.4698 8.40218C41.5422 7.70428 39.6645 7.84341 38.8101 8.49478C38.3787 9.12726 38.4473 9.68041 38.7978 9.78568C39.4987 9.99622 40.1163 8.29826 41.5102 9.22235C42.9022 10.1431 41.2349 12.5789 43.887 12.8301C46.5372 13.078 47.6912 14.987 49.0507 16.9715C50.082 18.4767 50.6099 20.3895 50.8261 21.2798C50.8261 21.2798 50.7778 21.6464 50.9895 21.6214Z" fill="#D1652A"/>
<path d="M35.8394 20.158C34.5848 20.9966 32.1271 18.5722 29.418 21.4017C26.7109 24.2346 27.1656 25.769 27.1656 25.769C27.1656 25.769 25.4248 24.6582 23.6783 26.1717C23.6783 26.1717 23.2281 23.3243 24.517 20.4546C25.8059 17.5849 27.2379 15.9594 29.7422 15.1411C32.2466 14.3227 33.7207 14.858 35.5003 15.8634C37.2799 16.8687 37.0508 17.499 37.1374 18.0687C37.2274 18.6364 36.7038 19.5805 35.836 20.1599L35.8394 20.158Z" fill="#AB5025"/>
<path d="M37.1405 18.0662C37.0606 17.5723 37.2209 17.0331 36.1114 16.2466C36.6017 17.5185 34.9338 18.8868 32.8613 18.5561C30.7471 18.2222 28.1018 19.3042 26.4636 22.015C25.4508 23.6944 24.3397 23.9633 23.6443 23.9218C23.5314 25.2466 23.6762 26.1677 23.6762 26.1677C25.4226 24.6543 27.1635 25.765 27.1635 25.765C27.1635 25.765 26.7121 24.2288 29.4159 21.3978C32.1231 18.5649 34.5808 20.9892 35.8373 20.1541C36.7051 19.5747 37.2305 18.634 37.1387 18.0629L37.1405 18.0662Z" fill="#D1652A"/>
<path d="M19.1395 37.7575C19.1395 37.7575 18.7641 34.3126 19.698 31.4328C20.6318 28.553 20.7225 27.4348 23.4361 25.8868C25.4659 24.7321 26.9632 25.4046 27.9769 25.8914C28.9905 26.3781 29.1884 28.0552 28.5594 28.9608C27.9304 29.8664 24.3062 28.845 21.917 32.9264C19.5278 37.0078 19.824 37.8271 19.824 37.8271L19.1343 37.756L19.1395 37.7575Z" fill="#AB5025"/>
<path d="M24.2762 28.3763C22.5807 28.6126 20.3293 32.6395 19.0895 35.1201C19.0188 36.6244 19.1433 37.7554 19.1433 37.7554L19.833 37.8265C19.833 37.8265 19.5383 37.0019 21.926 32.9258C24.1491 29.1265 27.4396 29.7465 28.3919 29.1201L28.5665 28.9568C28.5665 28.9568 26.7399 28.0262 24.2795 28.3744L24.2762 28.3763Z" fill="#D1652A"/>
<path d="M17.3813 52.586C17.3813 52.586 15.1333 51.1439 17.8112 48.72C20.4891 46.296 23.5533 46.9625 24.2318 45.5969C24.9104 44.2313 21.0599 41.3147 21.4779 39.6792C21.8958 38.0437 22.7686 37.3777 22.1437 36.8822C21.5189 36.3867 18.9489 37.5725 17.3563 38.718C15.1362 40.3182 13.6069 43.957 13.7679 47.0401C13.9382 50.3784 15.0183 51.7328 16.522 53.2842C17.4647 54.2561 17.3813 52.586 17.3813 52.586Z" fill="#AB5025"/>
<path d="M17.8243 46.2848C15.3625 47.4502 14.7199 49.3341 14.6702 50.884C15.1472 51.8059 15.7797 52.5221 16.5181 53.2855C17.4608 54.2574 17.3773 52.5873 17.3773 52.5873C17.3773 52.5873 15.1293 51.1451 17.8072 48.7212C20.4852 46.2973 23.5493 46.9637 24.2279 45.5981C24.3347 45.3844 24.3274 45.1325 24.248 44.8545C23.6343 44.1322 21.2799 44.6553 17.8262 46.2882L17.8243 46.2848Z" fill="#D1652A"/>
<path d="M24.9758 47.4777C23.4588 46.1411 17.5627 49.8816 16.9123 52.1493C16.8069 52.5168 16.781 53.0034 16.8079 53.5532C17.4088 54.8651 18.2832 59.908 22.2244 61.5872C26.4792 63.401 27.3698 60.2364 28.0101 60.2026C28.0101 60.2026 28.0852 50.215 24.9739 47.4744L24.9758 47.4777Z" fill="#AB5025"/>
<path d="M16.8086 53.5535C17.4095 54.8654 18.2839 59.9084 22.2251 61.5876C26.4799 63.4013 27.3705 60.2367 28.0108 60.203C28.0108 60.203 28.0858 50.2154 24.9746 47.4747C26.5318 50.0775 28.2647 58.4953 23.1361 59.1044C19.6803 59.5161 16.9111 52.1463 16.9111 52.1463C16.8057 52.5138 16.7798 53.0003 16.8067 53.5502L16.8086 53.5535Z" fill="#D1652A"/>
<path opacity="0.62" d="M23.4266 48.7009C22.2298 48.2585 18.2495 50.7268 19.5261 52.753C20.8027 54.7792 23.9518 54.0306 24.6421 52.4952C25.3324 50.9598 24.4775 49.0875 23.4266 48.7009Z" fill="#D0A687"/>
<path opacity="0.62" d="M16.0311 42.0802C14.878 43.1889 17.9939 45.2297 19.0874 44.4674C20.1776 43.7071 17.8524 40.3354 16.0311 42.0802Z" fill="#D0A687"/>
<path opacity="0.62" d="M35.9512 27.1864C34.4173 27.6418 36.2423 30.8856 37.5617 30.7126C38.881 30.5397 38.3698 26.4686 35.9512 27.1864Z" fill="#D0A687"/>
<path opacity="0.62" d="M43.6013 18.6199C42.7319 18.8781 43.7669 20.7165 44.5135 20.6192C45.2601 20.522 44.973 18.2149 43.6013 18.6199Z" fill="#D0A687"/>
<path d="M33.3889 36.7255C33.5044 36.7981 33.6706 36.922 33.7298 37.0523C33.7661 37.1336 33.7743 37.2438 33.8091 37.3304C33.9016 37.5525 33.9923 37.7713 34.0882 37.9916C34.1571 38.1474 34.3998 38.3214 34.5099 38.1057C34.6832 37.7491 34.5088 37.1886 34.2583 36.913C34.0551 36.6906 33.6803 36.5415 33.3932 36.4628C33.2323 36.4199 33.3161 36.6821 33.3908 36.7289L33.3889 36.7255Z" fill="#E6BA93"/>
<path d="M35.2726 37.9516C35.2453 38.2844 35.2732 38.6131 35.3784 38.9297C35.4641 39.1954 35.693 39.655 36.0244 39.6385C36.14 39.6316 36.1675 39.506 36.1653 39.4145C36.1547 39.1645 35.9863 38.9492 35.8567 38.7477C35.7086 38.5211 35.6071 38.2907 35.5525 38.0254C35.5286 37.9108 35.2949 37.745 35.276 37.9497L35.2726 37.9516Z" fill="#E6BA93"/>
<path d="M34.616 36.2511C34.8679 36.6008 35.2974 36.8166 35.7209 36.6474C36.1309 36.4857 36.3636 36.021 36.2074 35.6048C36.1681 35.4943 36.0117 35.3164 35.9166 35.4796C35.799 35.6818 35.7275 35.9112 35.5041 36.0266C35.2908 36.1363 34.9767 36.1123 34.7952 35.9529C34.5724 35.759 34.5001 36.0904 34.616 36.2511Z" fill="#E6BA93"/>
<path d="M36.5292 38.1655C36.6636 38.4791 36.9284 38.7246 37.2402 38.8558C37.499 38.9634 38.0034 38.9875 38.123 38.6695C38.1712 38.5413 38.0828 38.3345 37.9447 38.3009C37.7421 38.2547 37.5202 38.3648 37.3048 38.3433C37.086 38.3237 36.8702 38.2539 36.7544 38.0535C36.6386 37.8531 36.4385 37.9467 36.5292 38.1655Z" fill="#E6BA93"/>
<path d="M36.7773 40.0932C37.0769 40.4651 36.9084 40.8146 36.8537 41.2334C36.8393 41.3428 36.967 41.6204 37.1191 41.5359C37.3996 41.38 37.4322 40.9691 37.3975 40.684C37.355 40.3369 37.2055 40.0361 36.9697 39.7789C36.7631 39.5584 36.6472 39.9229 36.7807 40.0914L36.7773 40.0932Z" fill="#E6BA93"/>
<path d="M34.9192 40.3717C34.7786 40.644 34.8118 40.9742 34.9391 41.2431C35.0321 41.4342 35.3526 41.8517 35.6106 41.6951C35.7101 41.6354 35.6772 41.4727 35.6134 41.3978C35.4203 41.1698 35.1262 41.0465 35.2616 40.6932C35.3316 40.5087 35.0504 40.1223 34.9211 40.3751L34.9192 40.3717Z" fill="#E6BA93"/>
<path d="M34.1637 39.1231C34.1981 39.201 34.1598 39.2753 34.1158 39.3395C34.0557 39.4302 33.9914 39.5057 33.9384 39.6013C33.8918 39.6846 33.9728 39.8381 34.0636 39.8583C34.2801 39.9056 34.4082 39.7462 34.4534 39.5489C34.4971 39.357 34.4451 39.152 34.3413 38.9891C34.3113 38.9352 34.237 38.897 34.1815 38.9323C34.1244 38.9729 34.1423 39.0688 34.167 39.1213L34.1637 39.1231Z" fill="#E6BA93"/>
<path d="M36.1008 40.4349C36.0874 40.7291 36.0482 41.0245 36.1158 41.3134C36.1308 41.3801 36.2789 41.5273 36.3184 41.3994C36.4054 41.1261 36.3613 40.824 36.3529 40.5463C36.3493 40.4203 36.1096 40.2358 36.0974 40.4368L36.1008 40.4349Z" fill="#E6BA93"/>
<path d="M37.8804 40.1116C37.9885 40.1707 38.0969 40.2384 38.203 40.2941C38.2968 40.3434 38.4263 40.4171 38.5276 40.3608C38.6121 40.3138 38.6013 40.183 38.5586 40.1141C38.4241 39.88 38.1648 39.8035 37.9303 39.7C37.6534 39.5759 37.7015 40.0125 37.877 40.1134L37.8804 40.1116Z" fill="#E6BA93"/>
<path d="M37.0066 37.5606C37.1542 37.452 37.2857 37.3702 37.3016 37.176C37.3088 37.1014 37.2582 36.9706 37.1712 36.9573C37.0841 36.9439 37.0308 36.9514 36.9587 37.0047C36.89 37.0562 36.8392 37.1241 36.7833 37.1905C36.7205 37.2607 36.7516 37.3802 36.7962 37.4525C36.8262 37.5064 36.933 37.6191 37.0066 37.5606Z" fill="#E6BA93"/>
<path d="M33.7628 34.6859C33.8694 34.7105 33.9643 34.746 34.0532 34.8024C34.1226 34.8477 34.2208 34.9211 34.3098 34.8981C34.3612 34.8872 34.3887 34.841 34.3812 34.7878C34.3368 34.4771 34.0101 34.319 33.7297 34.2762C33.4877 34.2387 33.5898 34.6452 33.7662 34.684L33.7628 34.6859Z" fill="#E6BA93"/>
<path d="M35.9391 34.6293C36.0727 34.6786 36.1916 34.7493 36.2929 34.8519C36.3832 34.9429 36.4556 35.0571 36.5527 35.1443C36.6603 35.2345 36.7809 35.1808 36.7712 35.0361C36.7408 34.6074 36.2986 34.2972 35.9064 34.2283C35.6607 34.184 35.7846 34.5741 35.9391 34.6293Z" fill="#E6BA93"/>
<path d="M37.4648 36.5162C37.6684 36.7472 37.6656 37.0048 37.7517 37.279C37.7797 37.3693 37.9436 37.6004 38.0551 37.4589C38.2126 37.2567 38.131 36.927 38.022 36.7228C37.9032 36.4932 37.7457 36.3292 37.4999 36.2452C37.3262 36.1873 37.4142 36.4649 37.4633 36.5215L37.4648 36.5162Z" fill="#E6BA93"/>
<path d="M38.9013 39.5607C39.0324 39.7967 39.057 40.0478 39.1386 40.2981C39.1685 40.3917 39.3613 40.6111 39.4346 40.4248C39.57 40.0715 39.3598 39.6456 39.1675 39.3553C39.0105 39.1205 38.7776 39.3382 38.9047 39.5588L38.9013 39.5607Z" fill="#E6BA93"/>
<path d="M38.0826 41.6926C38.1643 41.8236 38.1607 42.0242 38.1358 42.1704C38.1249 42.2383 38.2407 42.4386 38.3124 42.337C38.5086 42.0691 38.4342 41.7442 38.2655 41.4806C38.2246 41.415 38.1185 41.3593 38.0539 41.4261C37.9825 41.4967 38.0364 41.6255 38.0792 41.6944L38.0826 41.6926Z" fill="#E6BA93"/>
<path d="M37.3528 42.3144C37.3413 42.6914 37.309 43.0712 37.3733 43.4414C37.3845 43.5014 37.5371 43.7122 37.5792 43.5652C37.6771 43.224 37.665 42.8601 37.6811 42.507C37.6834 42.3998 37.6419 42.2773 37.5409 42.223C37.4629 42.1782 37.357 42.2105 37.3528 42.3144Z" fill="#E6BA93"/>
<path d="M36.1786 42.6454C36.2065 42.8947 36.4092 43.3468 36.729 43.2617C36.8435 43.229 36.7742 43.0248 36.7322 42.9731C36.6573 42.878 36.5278 42.8043 36.4949 42.6814C36.474 42.596 36.3986 42.4922 36.3048 42.4826C36.2129 42.4763 36.1715 42.5611 36.1819 42.6436L36.1786 42.6454Z" fill="#E6BA93"/>
<path d="M38.8446 42.849C39.0109 43.2199 39.5522 43.5412 39.8933 43.1839C40.0473 43.0233 39.8232 42.636 39.6085 42.7113C39.5113 42.7432 39.3908 42.7573 39.2864 42.7446C39.196 42.7331 39.1514 42.7006 39.1143 42.6418C39.0678 42.5661 38.9489 42.4954 38.8685 42.5577C38.7814 42.6238 38.8098 42.7625 38.848 42.8471L38.8446 42.849Z" fill="#E6BA93"/>
<path d="M39.2415 41.494C39.3724 41.5624 39.5551 41.708 39.6921 41.5965C39.7657 41.538 39.7062 41.399 39.6657 41.3421C39.566 41.1945 39.4061 41.1775 39.2437 41.1398C39.0324 41.094 39.1214 41.4372 39.2381 41.4959L39.2415 41.494Z" fill="#E6BA93"/>
<path d="M38.3133 43.9386C38.4215 44.2844 38.3064 44.5867 38.1853 44.9099C38.1371 45.0382 38.2934 45.3352 38.4451 45.2023C38.7922 44.9036 38.7776 44.3204 38.6395 43.9206C38.608 43.8322 38.5278 43.6958 38.4141 43.7061C38.3022 43.7197 38.2871 43.8517 38.3133 43.9386Z" fill="#E6BA93"/>
<path d="M36.6706 44.7148C36.7475 44.8133 36.8225 44.9084 36.9042 44.9998C36.9953 45.108 37.1156 45.2529 37.2639 45.2808C37.5202 45.3281 37.502 45.0249 37.4384 44.8706C37.3324 44.6162 37.0559 44.461 36.8417 44.3064C36.7596 44.2462 36.6485 44.2771 36.6075 44.3704C36.5601 44.4762 36.6046 44.628 36.674 44.713L36.6706 44.7148Z" fill="#E6BA93"/>
<path d="M39.7557 45.3469C39.7048 45.6532 39.5458 45.9402 39.5279 46.2502C39.518 46.3836 39.6465 46.6784 39.8279 46.5909C39.9923 46.5127 40.0923 46.3027 40.1319 46.1351C40.1786 45.9326 40.1802 45.7287 40.1541 45.5226C40.137 45.4042 40.0725 45.2723 39.9581 45.2256C39.8561 45.1853 39.7719 45.2408 39.7557 45.3469Z" fill="#E6BA93"/>
<path d="M37.163 47.0179C37.163 47.0179 37.2079 47.1386 37.1959 47.1011C37.2023 47.1285 37.2079 47.1386 37.2075 47.1697C37.2146 47.254 37.2077 47.3372 37.2096 47.4201C37.2117 47.5115 37.3249 47.6913 37.4383 47.6327C37.7143 47.4925 37.6557 47.0529 37.5321 46.8305C37.474 46.7259 37.3446 46.5728 37.2091 46.6393C37.0736 46.7058 37.1117 46.9097 37.1611 47.0146L37.163 47.0179Z" fill="#E6BA93"/>
<path d="M34.0064 42.5249C34.1522 42.7395 34.0353 42.9192 34.0366 43.1523C34.0391 43.2921 34.3012 43.676 34.4496 43.4656C34.6942 43.1178 34.417 42.5394 34.1665 42.2638C34.1102 42.2024 34.0217 42.1943 33.971 42.2622C33.9153 42.3372 33.9637 42.456 34.0098 42.523L34.0064 42.5249Z" fill="#E6BA93"/>
<path d="M32.8485 39.6599C32.8273 39.8128 32.774 39.9396 32.6684 40.06C32.558 40.1876 32.4111 40.2736 32.3611 40.4382C32.305 40.6238 32.4253 40.8879 32.6403 40.9008C32.8692 40.9148 33.0057 40.6668 33.0809 40.4838C33.161 40.2937 33.2088 40.0774 33.2139 39.8716C33.2173 39.7505 33.1702 39.6179 33.0602 39.5554C32.9646 39.5027 32.8696 39.5467 32.8519 39.658L32.8485 39.6599Z" fill="#E6BA93"/>
<path d="M31.3437 37.2801C31.4486 37.4689 31.5855 37.6355 31.7539 37.7713C31.8919 37.8844 32.2089 38.0568 32.3584 37.8722C32.4339 37.7772 32.3973 37.6079 32.3245 37.5248C32.11 37.2821 31.7648 37.2976 31.5386 37.0658C31.3796 36.9071 31.265 37.1385 31.3456 37.2834L31.3437 37.2801Z" fill="#E6BA93"/>
<path d="M31.7608 35.4996C31.6254 35.3674 31.5043 35.2053 31.3494 35.1016C31.2496 35.0336 31.1306 35.0821 31.0975 35.1975C31.0636 35.3355 31.1303 35.4794 31.2244 35.5771C31.2968 35.6516 31.3865 35.6856 31.4701 35.7406C31.5324 35.781 31.5954 35.8386 31.6561 35.8843C31.7364 35.9412 31.8348 35.8953 31.857 35.8079C31.8852 35.6996 31.8317 35.5793 31.754 35.5033L31.7608 35.4996Z" fill="#E6BA93"/>
<path d="M33.1224 43.4167C32.8498 43.5947 32.6612 43.7966 32.5852 44.1213C32.5042 44.4531 32.5579 44.8601 32.8174 45.1042C32.9183 45.1982 33.0489 45.1785 33.0757 45.0357C33.1119 44.8302 33.0527 44.6204 33.0751 44.4138C33.0996 44.1795 33.17 43.9242 33.3124 43.7347C33.3861 43.6364 33.2606 43.3311 33.1243 43.4201L33.1224 43.4167Z" fill="#E6BA93"/>
<path d="M34.3248 45.4052C34.2003 45.7701 34.1885 46.4253 34.6248 46.5976C34.6882 46.6241 34.7573 46.5813 34.7806 46.5198C34.8303 46.3863 34.785 46.257 34.7656 46.1266C34.7462 45.9962 34.7515 45.8785 34.7824 45.751C34.8163 45.613 34.717 45.4344 34.6082 45.358C34.5189 45.2929 34.3673 45.2669 34.3196 45.4038L34.3248 45.4052Z" fill="#E6BA93"/>
<path d="M32.2631 46.486C32.2775 46.703 32.3487 46.9106 32.4772 47.0862C32.5785 47.2285 32.7446 47.3921 32.9356 47.3698C33.0681 47.3535 33.0503 47.1781 33.0068 47.0919C32.9139 46.9009 32.7616 46.7384 32.6958 46.5323C32.6579 46.4166 32.5687 46.272 32.4351 46.2624C32.3049 46.2509 32.2583 46.3739 32.2664 46.4841L32.2631 46.486Z" fill="#E6BA93"/>
<path d="M31.1033 47.7828C31.0955 48.1269 31.2304 48.4491 31.491 48.6793C31.7175 48.8799 32.0627 48.9837 32.3301 48.8042C32.4679 48.7099 32.3398 48.4635 32.1975 48.4543C31.901 48.4381 31.4973 48.3007 31.486 47.954C31.4831 47.8453 31.4029 47.709 31.2974 47.6705C31.2078 47.6365 31.1075 47.679 31.1018 47.7881L31.1033 47.7828Z" fill="#E6BA93"/>
<path d="M33.9988 49.6903C34.43 49.6624 35.015 49.3063 34.7805 48.7968C34.7273 48.6852 34.643 48.5732 34.5079 48.5689C34.3987 48.5634 34.3468 48.6452 34.2844 48.724C34.1567 48.8921 34.0582 49.0571 33.8353 49.1016C33.5335 49.1635 33.7417 49.7052 34.0022 49.6884L33.9988 49.6903Z" fill="#E6BA93"/>
<path d="M36.2219 48.5476C36.3062 48.7787 36.2673 49.0033 36.305 49.2383C36.32 49.3447 36.4822 49.6207 36.6107 49.4699C36.8398 49.2057 36.692 48.7408 36.5624 48.4598C36.5223 48.3718 36.4173 48.2625 36.3095 48.2915C36.2052 48.3186 36.1871 48.461 36.2219 48.5476Z" fill="#E6BA93"/>
<path d="M37.3074 51.1613C37.2921 51.4522 37.1365 51.6975 37.0672 51.9787C37.0333 52.1167 37.1967 52.3789 37.3563 52.3078C37.6995 52.1612 37.7475 51.6668 37.7287 51.3463C37.7235 51.2256 37.6377 51.0792 37.5199 51.0343C37.4178 50.994 37.3127 51.0436 37.304 51.1632L37.3074 51.1613Z" fill="#E6BA93"/>
<path d="M40.0866 48.7599C40.1063 48.9386 40.1261 49.1174 40.2142 49.2758C40.2741 49.3837 40.4556 49.5432 40.5413 49.3631C40.6113 49.2184 40.5833 49.0486 40.5646 48.8957C40.5497 48.7495 40.4538 48.569 40.2981 48.5276C40.1476 48.4877 40.0724 48.6309 40.0832 48.7617L40.0866 48.7599Z" fill="#E6BA93"/>
<path d="M31.569 51.7873C31.6037 51.9931 31.6366 52.1954 31.7295 52.3865C31.7827 52.4981 31.9845 52.6065 32.011 52.4154C32.0389 52.2189 31.9872 52.0226 31.9514 51.8307C31.9297 51.728 31.8307 51.5977 31.7197 51.5889C31.6138 51.5815 31.5507 51.6828 31.5671 51.784L31.569 51.7873Z" fill="#E6BA93"/>
<path d="M33.4279 53.5958C33.4988 53.6359 33.5712 53.6706 33.6421 53.7106C33.7501 53.7697 33.8646 53.737 33.8974 53.6129C33.9361 53.4678 33.8627 53.3277 33.7648 53.2232C33.6996 53.1536 33.6396 53.0855 33.5743 53.0158C33.4528 52.8848 33.2528 52.8989 33.2035 53.0807C33.1523 53.2592 33.2632 53.5065 33.4279 53.5958Z" fill="#E6BA93"/>
<path d="M30.211 34.5738C30.357 34.55 30.4824 34.5289 30.6112 34.4661C30.7857 34.3823 30.6348 34.0471 30.4832 34.021C30.3349 33.9931 30.1983 33.994 30.0501 34.0058C29.7603 34.0256 29.9554 34.6232 30.2129 34.5772L30.211 34.5738Z" fill="#E6BA93"/>
<path d="M33.0064 33.9859C33.1611 33.922 33.2707 33.8566 33.3613 33.7092C33.4323 33.5903 33.3061 33.3472 33.1755 33.3271C33.01 33.2999 32.8823 33.3488 32.7333 33.4228C32.4843 33.548 32.7515 34.0923 33.0064 33.9859Z" fill="#E6BA93"/>
<path d="M40.7674 29.4292C40.8363 29.585 40.9018 29.7428 40.9741 29.8967C41.0446 30.0473 41.1146 30.229 41.2684 30.3068C41.3355 30.3401 41.4395 30.3441 41.4651 30.2548C41.5144 30.073 41.4384 29.9123 41.362 29.7429C41.2874 29.577 41.2061 29.4148 41.1282 29.2507C41.0787 29.1458 40.943 29.0051 40.8176 29.0659C40.6835 29.1272 40.7284 29.3273 40.7707 29.4273L40.7674 29.4292Z" fill="#E6BA93"/>
<path d="M40.8083 31.6921C40.906 31.9952 41.1725 32.4428 41.5418 32.4229C41.7126 32.4118 41.6182 32.1465 41.5481 32.084C41.379 31.9309 41.2019 31.8352 41.118 31.6127C41.0869 31.5329 40.9842 31.4355 40.8918 31.4604C40.7961 31.4871 40.7859 31.6119 40.8117 31.6902L40.8083 31.6921Z" fill="#E6BA93"/>
<path d="M42.4677 32.3062C42.5508 32.5115 42.7204 32.6733 42.9278 32.7521C43.079 32.8092 43.3046 32.8251 43.4214 32.6851C43.5052 32.5812 43.4663 32.3998 43.3947 32.3028C43.3194 32.1991 43.2263 32.167 43.1073 32.1758C43.0435 32.1804 42.9711 32.1853 42.908 32.1674C42.908 32.1674 42.8292 32.145 42.857 32.1472C42.83 32.1225 42.8263 32.1158 42.8428 32.1375C42.8577 32.1645 42.8559 32.1611 42.8371 32.1274C42.7858 32.0191 42.6463 31.8716 42.5142 31.9362C42.3752 32.0046 42.4216 32.1995 42.4677 32.3062Z" fill="#E6BA93"/>
<path d="M42.5765 29.0235C42.7955 29.2106 42.8239 29.4287 42.9145 29.6873C42.9482 29.7877 43.1754 30.0453 43.2458 29.8297C43.3936 29.4033 43.0638 28.8894 42.7364 28.6346C42.4483 28.4108 42.3826 28.8577 42.5765 29.0235Z" fill="#E6BA93"/>
<path d="M40.4247 25.6836C40.587 25.8404 40.7412 26.0063 40.943 26.1148C41.0068 26.1499 41.0807 26.1397 41.1123 26.0692C41.1488 25.9916 41.1098 25.8897 41.0637 25.8226C40.9306 25.623 40.7544 25.465 40.5781 25.3071C40.499 25.2363 40.368 25.2076 40.3195 25.3273C40.2676 25.4488 40.338 25.5994 40.4247 25.6836Z" fill="#E6BA93"/>
<path d="M38.5404 25.4073C38.6227 25.7145 38.6746 26.1182 38.8958 26.357C38.9502 26.4151 39.0792 26.4404 39.1079 26.3406C39.1549 26.1865 39.1051 26.0333 39.0639 25.8797C39.0205 25.7141 38.9633 25.5473 38.9112 25.3821C38.8772 25.2731 38.7808 25.1236 38.6499 25.1347C38.5189 25.1457 38.5067 25.3069 38.5333 25.4024L38.5404 25.4073Z" fill="#E6BA93"/>
<path d="M38.2398 23.8231C38.3994 23.7918 38.5536 23.7987 38.7078 23.8454C38.778 23.8681 38.8714 23.9089 38.9442 23.8728C39.034 23.8273 39.0375 23.7063 39.0131 23.6227C38.899 23.2184 38.3687 23.2352 38.0492 23.3289C37.9434 23.3613 37.9683 23.5415 37.9938 23.6112C38.0268 23.6944 38.1212 23.8405 38.2327 23.8182L38.2398 23.8231Z" fill="#E6BA93"/>
<path d="M41.1607 24.4318C41.2646 24.5152 41.3666 24.5953 41.4754 24.6716C41.5272 24.7091 41.5921 24.6906 41.6173 24.6325C41.6474 24.5672 41.6125 24.4807 41.5773 24.4253C41.5053 24.3197 41.43 24.2159 41.3546 24.1122C41.292 24.0234 41.1502 23.9434 41.0706 24.0627C41.0025 24.1711 41.0677 24.3599 41.1607 24.4318Z" fill="#E6BA93"/>
<path d="M43.2713 27.711C43.4434 27.9728 43.5519 28.2876 43.6391 28.5877C43.6676 28.6866 43.8663 28.8453 43.8894 28.656C43.9442 28.1975 43.7783 27.7955 43.5238 27.4251C43.463 27.3397 43.328 27.2559 43.2386 27.3498C43.1458 27.4455 43.2121 27.6204 43.2747 27.7092L43.2713 27.711Z" fill="#E6BA93"/>
<path d="M45.0052 32.0566C45.1393 32.4012 44.9248 32.6837 44.8836 33.0155C44.8666 33.1441 44.9847 33.3565 45.1363 33.3031C45.3612 33.2222 45.4388 32.8923 45.4506 32.6827C45.4684 32.4125 45.4195 32.1573 45.3052 31.9119C45.2651 31.8239 45.1493 31.7029 45.0426 31.7578C44.9274 31.813 44.9723 31.9734 45.0037 32.0618L45.0052 32.0566Z" fill="#E6BA93"/>
<path d="M43.8547 35.0162C44.0111 35.0749 44.0504 35.2649 44.0646 35.3938C44.0817 35.552 44.1742 35.7344 44.3326 35.7964C44.468 35.8491 44.5897 35.7815 44.6074 35.6304C44.6437 35.3455 44.5392 35.0461 44.3285 34.85C44.1717 34.7033 43.9901 34.663 43.7867 34.6393C43.6981 34.6311 43.6898 34.7593 43.6972 34.8125C43.7114 34.9017 43.7703 34.9837 43.8581 35.0144L43.8547 35.0162Z" fill="#E6BA93"/>
<path d="M44.439 29.3182C44.4848 29.703 44.4656 30.1858 44.6534 30.5316C44.6908 30.599 44.8671 30.7569 44.9089 30.6013C44.9612 30.409 44.919 30.2295 44.8831 30.0376C44.8371 29.8117 44.7893 29.5824 44.7467 29.3545C44.7115 29.1799 44.4144 29.0671 44.4442 29.3196L44.439 29.3182Z" fill="#E6BA93"/>
<path d="M42.3073 26.0724C42.1709 26.2806 42.1204 26.516 42.1498 26.76C42.1785 26.9867 42.2905 27.2996 42.5423 27.3626C42.6402 27.3876 42.6767 27.2702 42.6475 27.1938C42.5984 27.0578 42.5118 26.9339 42.4748 26.7956C42.4318 26.6386 42.4769 26.4811 42.5506 26.3431C42.613 26.2246 42.4031 25.9265 42.3107 26.0705L42.3073 26.0724Z" fill="#E6BA93"/>
<path d="M43.2792 33.567C43.3318 33.5422 43.2767 33.4272 43.2223 33.4487C43.1697 33.4735 43.2248 33.5885 43.2792 33.567Z" fill="#E6BA93"/>
<path d="M41.3754 27.6353C41.2689 27.4915 41.4766 27.2524 41.5818 27.1631C41.6787 27.0828 41.6169 26.8921 41.5667 26.8097C41.5019 26.7089 41.4066 26.6251 41.282 26.6635C40.7504 26.8133 40.8717 27.6284 41.2172 27.8997C41.4212 28.0599 41.4837 27.7824 41.3772 27.6386L41.3754 27.6353Z" fill="#E6BA93"/>
<path d="M43.4679 15.5867C43.69 15.6441 43.8907 15.7267 44.0877 15.8423C44.2475 15.9388 44.4339 16.0911 44.6253 16.1171C44.7817 16.136 44.8018 15.9572 44.7399 15.846C44.4795 15.3774 43.8994 15.2409 43.3995 15.2011C43.2051 15.1855 43.3437 15.5542 43.4713 15.5848L43.4679 15.5867Z" fill="#E6BA93"/>
<path d="M43.5936 16.7751C43.8225 16.8288 43.7912 16.9874 43.8673 17.1878C43.9118 17.2999 44.042 17.3908 44.1509 17.3082C44.3518 17.1524 44.1783 16.7767 44.061 16.6213C43.9234 16.4374 43.7332 16.318 43.5024 16.3007C43.3914 16.2919 43.3773 16.4497 43.3908 16.5216C43.4106 16.6209 43.4837 16.7524 43.5902 16.777L43.5936 16.7751Z" fill="#E6BA93"/>
<path d="M42.1561 15.486C42.3234 15.6357 42.4095 15.8305 42.54 16.0095C42.6356 16.1417 42.7884 16.1142 42.7915 15.9448C42.7914 15.6183 42.5503 15.3199 42.3084 15.1234C42.2278 15.0579 42.1141 15.0284 42.0584 15.1432C42.0043 15.2527 42.077 15.4153 42.158 15.4894L42.1561 15.486Z" fill="#E6BA93"/>
<path d="M45.6278 17.1795C45.5529 17.4109 45.5321 17.6519 45.5822 17.8932C45.6233 18.0866 45.7472 18.4369 45.9769 18.4681C46.0448 18.4789 46.0951 18.4421 46.1042 18.3709C46.1216 18.2112 46.0466 18.0763 46.0006 17.9298C45.9519 17.7627 45.942 17.6094 45.9691 17.4355C45.997 17.2788 45.7019 16.9309 45.6241 17.1728L45.6278 17.1795Z" fill="#E6BA93"/>
<path d="M44.7295 17.8949C44.7916 18.1339 44.8394 18.403 44.968 18.6184C44.9961 18.6689 45.1225 18.7531 45.1278 18.6354C45.1378 18.3828 45.0401 18.1194 44.9727 17.8788C44.9525 17.8107 44.8877 17.7099 44.8051 17.7205C44.7206 17.7277 44.7146 17.8282 44.7295 17.8949Z" fill="#E6BA93"/>
<path d="M46.9457 18.5566C47.0613 18.5497 47.1648 18.5848 47.259 18.6428C47.2837 18.6555 47.307 18.6735 47.3284 18.6881C47.3284 18.6881 47.4102 18.7397 47.3674 18.7105C47.4315 18.7543 47.484 18.809 47.5658 18.8209C47.66 18.8391 47.7269 18.7843 47.7401 18.6887C47.7718 18.4195 47.5544 18.1477 47.3146 18.0427C47.1259 17.9578 46.936 17.9663 46.7491 18.0437C46.5279 18.1313 46.749 18.5689 46.9457 18.5566Z" fill="#E6BA93"/>
<path d="M46.4774 19.8393C46.555 19.955 46.6292 20.0726 46.7117 20.1812C46.7923 20.2865 46.8684 20.4074 46.9888 20.4729C47.1411 20.5559 47.1897 20.3965 47.1672 20.2766C47.1388 20.138 47.0526 20.0226 46.9818 19.9031C46.9072 19.7769 46.821 19.6616 46.7396 19.5391C46.677 19.4504 46.5367 19.3651 46.444 19.4608C46.3478 19.5584 46.4178 19.7401 46.4789 19.8341L46.4774 19.8393Z" fill="#E6BA93"/>
<path d="M45.7402 19.897C45.7877 20.1177 45.8449 20.3242 45.9299 20.5328C45.988 20.6771 46.1989 20.7143 46.187 20.5179C46.176 20.299 46.1255 20.0888 46.0716 19.8805C46.0484 19.7831 45.9547 19.6542 45.841 19.6645C45.722 19.6733 45.7211 19.8149 45.7387 19.9022L45.7402 19.897Z" fill="#E6BA93"/>
<path d="M48.0133 21.4885C48.1003 21.6211 48.1906 21.7518 48.2776 21.8844C48.3627 22.0136 48.4635 22.1473 48.6249 22.1591C48.6891 22.1631 48.7327 22.0903 48.7372 22.0348C48.7539 21.8579 48.6591 21.7032 48.5597 21.5643C48.4679 21.4388 48.3742 21.31 48.2857 21.1827C48.2212 21.0906 48.0791 21.0019 47.9795 21.1013C47.8785 21.206 47.9522 21.3945 48.0186 21.49L48.0133 21.4885Z" fill="#E6BA93"/>
<path d="M47.4348 22.4367C47.4724 22.7512 47.5045 23.0555 47.5969 23.3571C47.6194 23.4373 47.6823 23.5347 47.7698 23.5567C47.8414 23.5742 47.9101 23.5228 47.9155 23.4448C47.9266 23.1386 47.8814 22.8504 47.8374 22.5483C47.8184 22.4265 47.7461 22.2726 47.6132 22.2405C47.4909 22.2114 47.4214 22.3251 47.4348 22.4367Z" fill="#E6BA93"/>
<path d="M45.9596 22.608C45.9958 22.8085 46.0268 23.0075 46.1092 23.1955C46.1568 23.2971 46.3496 23.3973 46.3682 23.2237C46.3875 23.0276 46.3396 22.838 46.3003 22.6481C46.2842 22.5555 46.1894 22.4405 46.0922 22.4328C45.9984 22.4232 45.9401 22.5173 45.9562 22.6099L45.9596 22.608Z" fill="#E6BA93"/>
<path d="M46.8695 24.9605C46.9704 25.0544 47.0676 25.1416 47.1816 25.2194C47.2405 25.2617 47.3155 25.2376 47.3475 25.1758C47.384 25.0981 47.3401 25.0033 47.3027 24.9359C47.2341 24.8284 47.1587 24.7247 47.0766 24.6247C47.0054 24.5364 46.8647 24.4424 46.7821 24.5722C46.7058 24.6897 46.781 24.8729 46.8729 24.9586L46.8695 24.9605Z" fill="#E6BA93"/>
<path d="M35.7062 23.9518C35.7336 23.9454 35.7576 23.9409 35.7854 23.9431C35.7501 23.9274 35.7149 23.9117 35.6796 23.896C35.8037 24.0079 35.8961 23.9433 36.0395 23.9387C36.1637 23.9314 36.2744 23.9714 36.3945 23.9885C36.7198 24.0327 36.5731 23.5538 36.4028 23.4543C36.1669 23.3163 35.882 23.3688 35.6653 23.5201C35.6082 23.5606 35.5849 23.6221 35.5931 23.6926C35.5867 23.6652 35.5818 23.6724 35.5664 23.7162C35.5228 23.789 35.612 23.9733 35.7081 23.9552L35.7062 23.9518Z" fill="#E6BA93"/>
<path d="M34.8395 25.4179C35.0211 25.4979 35.2027 25.5779 35.3843 25.6579C35.5253 25.7207 35.759 25.8865 35.9088 25.79C36.0215 25.7141 35.9781 25.5485 35.9102 25.4582C35.785 25.2807 35.5861 25.2412 35.3914 25.1774C35.2091 25.1199 35.0248 25.059 34.8459 24.9996C34.6144 24.9253 34.6913 25.3503 34.8395 25.4179Z" fill="#E6BA93"/>
<path d="M33.7486 24.8724C33.8182 24.6793 34.0015 24.5554 34.157 24.4293C34.2707 24.3395 34.1133 24.0961 33.9959 24.0996C33.6866 24.1082 33.5254 24.3832 33.4715 24.6602C33.456 24.7438 33.5089 24.8469 33.5767 24.8974C33.6304 24.9382 33.7208 24.9497 33.7502 24.8672L33.7486 24.8724Z" fill="#E6BA93"/>
<path d="M21.9845 31.129C22.094 30.7769 22.1937 30.3993 22.054 30.0446C22.0286 29.9749 21.9131 29.8626 21.8305 29.9129C21.6991 29.9948 21.6595 30.1624 21.6361 30.3033C21.6056 30.4792 21.5957 30.6523 21.5895 30.8322C21.5845 30.9586 21.6317 31.0912 21.7352 31.166C21.8102 31.2214 21.9427 31.2449 21.9792 31.1275L21.9845 31.129Z" fill="#E6BA93"/>
<path d="M22.2311 29.0499C22.4508 28.8881 22.7977 28.7085 22.8317 28.4116C22.8431 28.3127 22.7731 28.131 22.6549 28.1172C22.361 28.082 22.1479 28.4387 21.98 28.638C21.9109 28.7205 21.9442 28.852 21.9925 28.931C22.0262 28.9917 22.144 29.116 22.2277 29.0518L22.2311 29.0499Z" fill="#E6BA93"/>
<path d="M23.4627 27.8528C23.6428 27.8983 23.8079 27.9169 23.9892 27.869C24.1672 27.8231 24.3207 27.7333 24.4758 27.6383C24.8115 27.4385 24.3024 26.8169 24.1314 27.0664C23.9717 27.2963 23.6627 27.4328 23.3936 27.4897C23.2119 27.5289 23.3299 27.8207 23.4627 27.8528Z" fill="#E6BA93"/>
<path d="M25.3918 27.6945C25.3904 27.66 25.3716 27.7058 25.4076 27.6593C25.4257 27.636 25.4351 27.6131 25.4583 27.5913C25.5049 27.5478 25.553 27.499 25.6014 27.4589C25.722 27.3654 25.5567 27.0998 25.4272 27.1056C25.1442 27.1217 25.085 27.437 25.1554 27.6671C25.194 27.8001 25.3902 27.8984 25.3918 27.6945Z" fill="#E6BA93"/>
<path d="M25.0276 26.5064C25.0764 26.4351 25.129 26.3706 25.2015 26.3259C25.2759 26.2846 25.3367 26.2508 25.3942 26.1791C25.4498 26.1041 25.3902 25.9651 25.3009 25.9397C25.0769 25.8789 24.9112 26.0901 24.8221 26.272C24.7744 26.3692 24.9479 26.6257 25.0257 26.503L25.0276 26.5064Z" fill="#E6BA93"/>
<path d="M22.7892 27.4116C22.8958 27.3567 22.9991 27.3037 23.0997 27.2302C23.1786 27.1731 23.1142 26.9618 23.008 26.9855C22.8796 27.0172 22.7655 27.0585 22.6464 27.107C22.5105 27.1649 22.6604 27.4743 22.7907 27.4063L22.7892 27.4116Z" fill="#E6BA93"/>
<path d="M26.4414 26.7802C26.5723 26.8486 26.7572 26.9665 26.8924 26.8516C26.9608 26.7916 26.905 26.6593 26.8698 26.6039C26.7753 26.4578 26.6106 26.4082 26.45 26.3739C26.2072 26.3191 26.3105 26.7118 26.4433 26.7836L26.4414 26.7802Z" fill="#E6BA93"/>
<path d="M20.8472 30.754C20.8991 30.6325 20.9378 30.5271 20.9601 30.4C20.9744 30.3303 20.8387 30.11 20.7692 30.2237C20.7045 30.3302 20.6639 30.4322 20.6274 30.5496C20.603 30.625 20.631 30.7153 20.6903 30.7662C20.7372 30.8107 20.8156 30.8245 20.8472 30.754Z" fill="#E6BA93"/>
<path d="M23.8307 29.6832C23.9978 29.6256 24.2076 29.5973 24.2903 29.4277C24.3302 29.3482 24.2586 29.2115 24.1764 29.191C23.9929 29.1474 23.8329 29.2892 23.6827 29.3771C23.5476 29.4523 23.6877 29.7362 23.8326 29.6865L23.8307 29.6832Z" fill="#E6BA93"/>
<path d="M18.8163 42.619C18.9752 42.4512 19.1761 42.3352 19.3871 42.2532C19.5895 42.1716 19.3781 41.7596 19.1747 41.8153C18.9183 41.8872 18.714 42.0449 18.5483 42.2561C18.4318 42.4047 18.6593 42.7901 18.8182 42.6223L18.8163 42.619Z" fill="#E6BA93"/>
<path d="M18.0523 41.2115C18.3127 41.3139 18.7611 41.3647 18.9074 41.0628C18.963 40.948 18.8506 40.7855 18.7342 40.7751C18.604 40.7637 18.5011 40.8253 18.3795 40.8532C18.2613 40.8792 18.14 40.876 18.0211 40.845C17.9284 40.8215 17.8889 40.9096 17.8923 40.9872C17.8982 41.0854 17.966 41.1757 18.0523 41.2115Z" fill="#E6BA93"/>
<path d="M17.0885 42.4943C17.1362 42.8031 17.1788 43.1104 17.2727 43.4068C17.3027 43.5005 17.3769 43.6181 17.4846 43.6288C17.5904 43.6362 17.6295 43.5394 17.624 43.4498C17.6073 43.1414 17.534 42.8424 17.4675 42.5396C17.4458 42.4369 17.3487 42.31 17.2357 42.2977C17.128 42.287 17.0668 42.3917 17.0832 42.4928L17.0885 42.4943Z" fill="#E6BA93"/>
<path d="M16.6164 44.6451C16.5714 44.604 16.6127 44.6384 16.6134 44.6556C16.6191 44.6657 16.6213 44.6777 16.6254 44.6931C16.628 44.7137 16.6329 44.7066 16.6284 44.6826C16.6288 44.6515 16.6269 44.6481 16.6296 44.6687C16.6322 44.6893 16.6337 44.6841 16.6341 44.653C16.6108 44.6747 16.6371 44.6425 16.6484 44.623C16.6612 44.5982 16.6758 44.5768 16.6852 44.554C16.6901 44.5468 16.7239 44.4883 16.7077 44.515C16.7618 44.4452 16.7855 44.3923 16.8025 44.3034C16.8266 44.1797 16.7378 44.004 16.6245 43.9435C16.5521 43.9087 16.4778 43.8705 16.3979 43.9018C16.3468 43.9213 16.2965 43.9581 16.2601 43.996C16.1639 44.0936 16.139 44.2398 16.1359 44.3695C16.1334 44.6356 16.2653 44.9286 16.5046 45.0647C16.5969 45.1193 16.6975 45.0854 16.7242 44.9823C16.754 44.8687 16.7012 44.726 16.6131 44.647L16.6164 44.6451Z" fill="#E6BA93"/>
<path d="M15.3655 42.6572C15.389 42.8427 15.4748 43.0289 15.6252 43.1483C15.7505 43.2463 15.9264 43.3162 16.0583 43.2032C16.1567 43.1176 16.0465 42.9273 15.9666 42.8791C15.8795 42.826 15.7246 42.8018 15.6976 42.6976C15.6748 42.6088 15.5957 42.4983 15.4967 42.4872C15.3995 42.4795 15.3532 42.5714 15.3655 42.6572Z" fill="#E6BA93"/>
<path d="M15.3839 45.4444C15.2757 45.0985 15.3976 44.7528 15.4834 44.4138C15.5041 44.3317 15.3876 44.1141 15.2817 44.1862C14.8495 44.475 14.9248 45.1038 15.1068 45.5189C15.1911 45.7103 15.4565 45.6864 15.3824 45.4496L15.3839 45.4444Z" fill="#E6BA93"/>
<path d="M16.4481 41.063C16.5934 41.0617 16.7304 40.99 16.8153 40.8722C16.9363 40.7078 16.9109 40.5189 16.8105 40.3541C16.7786 40.2968 16.656 40.2194 16.6023 40.2978C16.5177 40.4242 16.5138 40.6161 16.334 40.6587C16.1268 40.7077 16.2717 41.064 16.4462 41.0596L16.4481 41.063Z" fill="#E6BA93"/>
<path d="M19.3709 39.7338C19.5233 39.7374 19.673 39.8395 19.7746 39.9507C19.8109 39.9923 19.8792 40.0117 19.9262 39.9768C19.9799 39.9381 19.9717 39.8676 19.9589 39.8129C19.8932 39.4877 19.5807 39.2598 19.2542 39.3089C19.0256 39.3433 19.1926 39.7314 19.3728 39.7372L19.3709 39.7338Z" fill="#E6BA93"/>
<path d="M19.9417 41.0312C19.8477 41.26 19.8861 41.5122 20.0042 41.7246C20.0941 41.8864 20.3738 42.1986 20.5894 42.0612C20.7005 41.9906 20.6395 41.8171 20.5603 41.7464C20.3807 41.5903 20.1623 41.5396 20.2331 41.2531C20.267 41.1152 20.0214 40.8325 19.9383 41.0331L19.9417 41.0312Z" fill="#E6BA93"/>
<path d="M19.8768 53.8938C19.7393 53.6305 19.9373 53.366 19.9207 53.0972C19.9166 53.0024 19.8169 52.8151 19.6916 52.8363C19.4634 52.8793 19.4079 53.2013 19.4231 53.3958C19.4402 53.6335 19.5413 53.8552 19.6842 54.0406C19.8087 54.2009 19.96 54.0594 19.8735 53.8957L19.8768 53.8938Z" fill="#E6BA93"/>
<path d="M21.6258 54.0564C21.6498 53.6459 21.6635 52.9543 21.2805 52.695C21.2235 52.6561 21.1342 52.6705 21.1112 52.7406C21.0548 52.9176 21.1301 53.1008 21.1806 53.2713C21.2412 53.4759 21.2624 53.6891 21.2698 53.9012C21.2737 54.0755 21.6136 54.3367 21.631 54.0579L21.6258 54.0564Z" fill="#E6BA93"/>
<path d="M20.7429 51.5607C20.7659 51.4111 20.84 51.2817 20.9677 51.193C21.0871 51.1134 21.2402 51.0945 21.336 50.9883C21.4419 50.8765 21.3164 50.6506 21.1884 50.6114C20.7922 50.4875 20.4979 51.0879 20.4732 51.4017C20.4683 51.4883 20.5072 51.5902 20.5852 51.6351C20.6595 51.6732 20.7256 51.6409 20.7377 51.5592L20.7429 51.5607Z" fill="#E6BA93"/>
<path d="M23.1586 52.1017C23.2649 51.9985 23.3543 51.8649 23.4107 51.7277C23.4792 51.5484 23.4486 51.358 23.3943 51.1808C23.3659 51.0819 23.2864 50.9628 23.1753 50.9539C23.0676 50.9432 23.027 51.0452 23.031 51.14C23.0388 51.2416 23.0155 51.3428 23.006 51.4452C22.9969 51.5561 22.9634 51.663 22.9018 51.759C22.845 51.8479 22.869 51.9626 22.9297 52.048C22.9811 52.1165 23.0823 52.1793 23.1571 52.1069L23.1586 52.1017Z" fill="#E6BA93"/>
<path d="M22.5393 50.518C22.4494 50.1972 22.2364 49.6229 21.8642 49.5341C21.7174 49.501 21.727 49.6854 21.7652 49.77C21.8229 49.9056 21.9227 50.0135 22.0108 50.1322C22.1026 50.2576 22.1723 50.391 22.2251 50.5337C22.2547 50.6188 22.333 50.7517 22.4415 50.74C22.55 50.7282 22.5617 50.5981 22.5374 50.5146L22.5393 50.518Z" fill="#E6BA93"/>
<path d="M23.5586 49.9733C23.6113 49.7896 23.7128 49.6935 23.8513 49.5767C23.9265 49.5129 24.0267 49.4307 24.0396 49.3265C24.0584 49.2013 24.0101 49.0825 23.9149 48.9987C23.7409 48.8527 23.5182 48.9853 23.4111 49.1507C23.2972 49.3199 23.2292 49.5078 23.2102 49.7125C23.2011 49.8234 23.2513 49.9456 23.3406 50.0107C23.4066 50.0578 23.5252 50.0802 23.5586 49.9733Z" fill="#E6BA93"/>
<path d="M23.3446 53.4721C23.5903 53.6753 23.5935 53.9118 23.6852 54.1962C23.705 54.2558 23.8505 54.4617 23.9282 54.3391C24.1789 53.9306 23.7643 53.3756 23.4248 53.1628C23.2275 53.0386 23.2336 53.3838 23.3446 53.4721Z" fill="#E6BA93"/>
<path d="M22.6429 54.6128C22.7682 54.7506 22.5134 55.0642 22.451 55.1827C22.371 55.3331 22.5302 55.6197 22.7063 55.6101C23.0099 55.5914 23.1273 55.2614 23.123 54.999C23.1164 54.7246 23.0003 54.4362 22.7903 54.2573C22.7131 54.1899 22.5979 54.1657 22.5437 54.2752C22.4881 54.3899 22.5668 54.5315 22.6429 54.6128Z" fill="#E6BA93"/>
<path d="M20.4924 54.3955C20.3167 54.4932 20.2489 54.6897 20.2642 54.8842C20.2849 55.1683 20.4525 55.4061 20.7148 55.5118C20.7658 55.532 20.8566 55.5124 20.8893 55.4678C20.9708 55.3518 20.9623 55.233 20.9016 55.1079C20.8698 55.0506 20.836 54.9899 20.7892 54.9454C20.7194 54.8915 20.7052 54.8818 20.7464 54.9162C20.7194 54.8915 20.7213 54.8949 20.752 54.9263C20.7445 54.9128 20.7352 54.896 20.7209 54.8862C20.6954 54.8563 20.6992 54.863 20.7269 54.905C20.7231 54.8982 20.7194 54.8915 20.7138 54.8814C20.7295 54.9256 20.7314 54.929 20.7194 54.8915C20.7243 54.9241 20.7276 54.9222 20.7228 54.8896C20.722 54.9121 20.7254 54.9102 20.7258 54.8791C20.7228 54.8896 20.7465 54.8367 20.7499 54.8348C20.8152 54.7456 20.7891 54.6189 20.7351 54.5298C20.6905 54.4575 20.5874 54.3515 20.4875 54.4026L20.4924 54.3955Z" fill="#E6BA93"/>
<path d="M24.4888 51.2088C24.5124 51.2354 24.5379 51.2654 24.5582 51.2938C24.5983 51.3421 24.656 51.3983 24.7243 51.378C24.7859 51.3614 24.8122 51.2894 24.8044 51.2275C24.7996 51.1949 24.7947 51.1623 24.7899 51.1297C24.7708 51.0079 24.6685 50.8 24.5146 50.8415C24.3607 50.8829 24.4123 51.1189 24.4888 51.2088Z" fill="#E6BA93"/>
<path d="M26.9669 19.8158C27.0241 19.6561 27.1327 19.5251 27.2326 19.3946C27.3423 19.2497 27.4944 19.1255 27.5208 18.9343C27.5393 18.8005 27.4363 18.6151 27.2892 18.613C27.0779 18.6069 26.9452 18.9013 26.8902 19.073C26.818 19.2852 26.8171 19.5064 26.8214 19.729C26.8221 19.786 26.9349 19.9174 26.9722 19.8173L26.9669 19.8158Z" fill="#E6BA93"/>
<path d="M27.9088 17.8581C28.2844 17.9847 29.0372 18.034 29.1164 17.5002C29.1308 17.3907 29.0499 17.1974 28.9227 17.1754C28.7103 17.1435 28.595 17.2782 28.4151 17.3605C28.2353 17.4428 28.0442 17.5049 27.8434 17.5017C27.6546 17.4963 27.8034 17.8196 27.9088 17.8581Z" fill="#E6BA93"/>
<path d="M28.9831 16.6484C29.1618 16.58 29.342 16.5063 29.5207 16.4378C29.6874 16.3717 29.865 16.3171 29.9781 16.1704C30.0682 16.0541 29.9554 15.8432 29.8151 15.8374C29.6278 15.8267 29.4712 15.927 29.3139 16.01C29.1431 16.1006 28.9756 16.1892 28.8048 16.2798C28.6407 16.3666 28.8149 16.7198 28.985 16.6518L28.9831 16.6484Z" fill="#E6BA93"/>
<path d="M30.2416 16.7955C30.3935 16.9096 30.6388 17.1439 30.8463 17.1036C30.9991 17.076 30.9524 16.8726 30.8864 16.7857C30.7323 16.5801 30.4817 16.5032 30.2483 16.4255C30.1624 16.3982 30.1139 16.4782 30.1134 16.549C30.1107 16.6476 30.1662 16.7315 30.2465 16.7883L30.2416 16.7955Z" fill="#E6BA93"/>
<path d="M31.4937 16.1258C31.7847 15.9332 32.2181 16.0365 32.407 16.3286C32.4812 16.4462 32.5973 16.3685 32.5662 16.2489C32.4368 15.6899 31.7562 15.4681 31.3097 15.8266C31.2094 15.9088 31.3724 16.2021 31.4885 16.1243L31.4937 16.1258Z" fill="#E6BA93"/>
<path d="M31.8816 16.9132C31.9904 16.9498 32.0692 17.0119 32.0905 17.1059C32.1172 17.0028 32.144 16.8997 32.1707 16.7966C31.9631 16.8767 31.7993 17.0913 31.7792 17.3099C31.7675 17.4399 31.8791 17.6647 32.0409 17.6056C32.1141 17.5782 32.1727 17.5324 32.2403 17.4948C32.3113 17.4554 32.3912 17.4242 32.4641 17.3881C32.6082 17.3212 32.5593 17.1057 32.5132 16.999C32.3896 16.697 32.1225 16.4792 31.7994 16.447C31.6917 16.4363 31.6743 16.5959 31.6893 16.6626C31.7095 16.7706 31.7781 16.8781 31.8869 16.9147L31.8816 16.9132Z" fill="#E6BA93"/>
<path d="M33.2848 16.142C33.107 16.435 33.2335 16.9648 33.6053 17.045C33.883 17.1068 33.7921 16.6808 33.665 16.5794C33.6237 16.5449 33.5274 16.4352 33.6211 16.5641C33.6267 16.5742 33.6271 16.5431 33.6192 16.5607C33.6098 16.5836 33.6403 16.5269 33.6339 16.5393C33.6828 16.4283 33.6243 16.2754 33.5464 16.1908C33.492 16.1328 33.3442 16.034 33.2796 16.1405L33.2848 16.142Z" fill="#E6BA93"/>
<path d="M25.704 20.6949C25.7248 20.4936 25.7291 20.3103 25.6928 20.1098C25.6797 20.0464 25.6524 19.9734 25.5905 19.9416C25.5462 19.9177 25.4805 19.9189 25.464 19.9766C25.4034 20.178 25.3991 20.3613 25.408 20.5682C25.4116 20.6544 25.4731 20.757 25.5542 20.7914C25.6281 20.8209 25.6956 20.7833 25.7058 20.6982L25.704 20.6949Z" fill="#E6BA93"/>
<path d="M33.1468 12.5602C33.2204 12.4619 33.2926 12.3688 33.3662 12.2705C33.4023 12.224 33.447 12.1771 33.4759 12.1257C33.5082 12.0725 33.5229 12.0114 33.5413 11.957C33.5722 11.8692 33.474 11.6767 33.367 11.7627C33.3253 11.7991 33.2799 11.8287 33.2472 11.8734C33.2111 11.9199 33.1844 11.9833 33.1521 12.0365C33.0874 12.1431 33.0247 12.253 32.9634 12.3576C32.9134 12.4428 33.0649 12.6675 33.1434 12.5621L33.1468 12.5602Z" fill="#E6BA93"/>
<path d="M34.2504 11.5761C34.274 11.6027 34.2961 11.6345 34.3198 11.6611C34.3745 11.7278 34.5047 11.7392 34.4823 11.6193C34.4774 11.5867 34.4726 11.5541 34.4659 11.5181C34.4502 11.4342 34.3798 11.2836 34.2686 11.3145C34.1575 11.3454 34.1975 11.5128 34.2504 11.5761Z" fill="#E6BA93"/>
<path d="M44.5257 9.49167C44.6121 9.85402 44.7867 10.2159 45.1428 10.371C45.3172 10.4461 45.2578 10.1482 45.2169 10.0827C45.076 9.86094 44.8964 9.66513 44.796 9.42087C44.7148 9.21894 44.4674 9.25935 44.5257 9.49167Z" fill="#E6BA93"/>
<path d="M45.457 9.5117C45.4582 9.8243 45.7 10.1002 45.9863 10.2015C46.1022 10.2429 46.2572 10.2671 46.3725 10.2119C46.5182 10.1397 46.6053 9.99418 46.5845 9.82929C46.5714 9.72623 46.5006 9.56701 46.3839 9.54804C46.3318 9.54173 46.2897 9.52979 46.2405 9.55272C46.227 9.56023 46.1763 9.5884 46.1763 9.5884C46.1046 9.61061 46.048 9.62004 45.9823 9.62125C45.9339 9.62168 45.8885 9.61162 45.8585 9.59741C45.8408 9.58956 45.8296 9.56934 45.8427 9.59294C45.8108 9.53563 45.8521 9.60978 45.8543 9.62178C45.8387 9.4981 45.7667 9.35277 45.6372 9.31882C45.5078 9.28487 45.4612 9.40787 45.4622 9.51319L45.457 9.5117Z" fill="#E6BA93"/>
<path d="M45.5119 8.80681C45.9048 8.85317 46.1244 8.36489 45.8904 8.07132C45.8248 7.99306 45.7044 7.92761 45.642 8.04613C45.5924 8.1399 45.5735 8.34458 45.3817 8.34969C45.2676 8.35133 45.257 8.50726 45.2794 8.58745C45.3101 8.69836 45.3918 8.78971 45.51 8.80344L45.5119 8.80681Z" fill="#E6BA93"/>
<path d="M44.3848 7.53575C44.4212 7.53758 44.4373 7.55068 44.4707 7.56301C44.4531 7.55516 44.503 7.58921 44.4816 7.57461C44.4422 7.54355 44.4951 7.5671 44.4816 7.57461C44.5127 7.65441 44.5187 7.67314 44.5033 7.63755C44.4996 7.63081 44.4958 7.62408 44.4954 7.61546C44.4958 7.58435 44.4935 7.65181 44.4973 7.65855C44.498 7.67579 44.5167 7.78896 44.5096 7.74437C44.5211 7.85268 44.6433 8.08042 44.7871 8.0049C45.024 7.88205 44.9061 7.51074 44.7798 7.3471C44.6624 7.19169 44.4648 7.05887 44.2643 7.1041C44.0364 7.15573 44.1998 7.5371 44.3885 7.54249L44.3848 7.53575Z" fill="#E6BA93"/>
<path d="M47.2446 9.60884C47.4558 9.65468 47.4182 9.82564 47.3948 10.0063C47.3789 10.1211 47.5063 10.39 47.6602 10.3089C47.9242 10.171 47.8603 9.80937 47.7524 9.59135C47.6313 9.34974 47.43 9.17044 47.1571 9.14117C46.9312 9.11671 47.0787 9.57306 47.2446 9.60884Z" fill="#E6BA93"/>
<path d="M47.1308 11.3453C47.0807 11.5894 47.1728 11.8427 47.331 12.0239C47.4585 12.1737 47.7413 12.3562 47.9246 12.1926C48.008 12.1198 47.9128 11.9564 47.8434 11.9112C47.6746 11.8064 47.3943 11.7637 47.411 11.5073C47.4175 11.4154 47.3767 11.3102 47.2934 11.2638C47.2154 11.2189 47.1496 11.2598 47.1342 11.3435L47.1308 11.3453Z" fill="#E6BA93"/>
<path d="M48.5829 11.8086C48.6507 11.8989 48.7133 11.9876 48.7744 12.0816C48.8449 12.1925 48.9752 12.1245 48.9336 12.002C48.8996 11.8929 48.8741 11.7835 48.8487 11.6741C48.8274 11.58 48.7025 11.4112 48.5805 11.4702C48.4604 11.5325 48.5169 11.7217 48.5757 11.8038L48.5829 11.8086Z" fill="#E6BA93"/>
<path d="M42.4669 31.0309C42.5648 31.175 42.7141 31.2686 42.8893 31.2815C43.0698 31.2959 43.2242 31.2233 43.2401 31.0292C43.2473 30.9546 43.1986 30.8669 43.1186 30.8584C42.9347 30.8459 42.7424 31.0013 42.5864 30.8321C42.5448 30.789 42.4769 30.7782 42.4393 30.83C42.3969 30.8889 42.4317 30.9754 42.4684 31.0256L42.4669 31.0309Z" fill="#E6BA93"/>
<path d="M41.2795 28.6865C41.3647 28.6965 41.4495 28.7377 41.5009 28.8062C41.5522 28.8747 41.5646 28.9605 41.6058 29.0347C41.6301 29.0785 41.7062 29.1598 41.7573 29.1005C41.8727 28.9658 41.7411 28.7212 41.6467 28.6148C41.5304 28.4853 41.3747 28.4042 41.2036 28.4066C41.0531 28.4064 41.1651 28.6795 41.2833 28.6933L41.2795 28.6865Z" fill="#E6BA93"/>
<path d="M39.7524 27.2847C39.8049 27.379 39.8352 27.4813 39.8329 27.5885C39.8294 27.7096 39.7805 27.8206 39.8029 27.9405C39.816 28.0039 39.8726 28.1533 39.9702 28.13C40.1605 28.0904 40.166 27.8138 40.1488 27.6556C40.1246 27.4529 40.0321 27.2704 39.8959 27.1211C39.7853 27.0016 39.7011 27.1764 39.7573 27.2775L39.7524 27.2847Z" fill="#E6BA93"/>
<path d="M39.2002 24.5737C39.295 24.7284 39.3914 24.8778 39.4929 25.0288C39.5762 25.1546 39.6579 25.2857 39.8087 25.3342C39.9156 25.3674 39.9255 25.234 39.9124 25.1707C39.8792 24.9994 39.7599 24.8804 39.6455 24.7542C39.5331 24.6314 39.4224 24.512 39.3084 24.3944C39.2687 24.3547 39.206 24.3454 39.1718 24.3953C39.1309 24.449 39.1672 24.5303 39.1987 24.5789L39.2002 24.5737Z" fill="#E6BA93"/>
<path d="M42.363 25.6703C42.4978 25.666 42.691 25.6954 42.7864 25.5806C42.8556 25.498 42.7885 25.3455 42.7052 25.2992C42.5634 25.2191 42.4118 25.2725 42.259 25.3001C42.0668 25.3363 42.2024 25.6757 42.363 25.6703Z" fill="#E6BA93"/>
<path d="M42.4986 27.912C42.5905 28.0375 42.7003 28.1794 42.8448 28.2403C42.9592 28.287 42.9481 28.1079 42.9234 28.0554C42.8638 27.9164 42.7412 27.7993 42.6264 27.7042C42.4651 27.5732 42.4143 27.8 42.4986 27.912Z" fill="#E6BA93"/>
<path d="M43.1623 26.6166C43.2906 26.7041 43.3813 26.8435 43.4307 26.9881C43.4644 27.0885 43.6257 27.1797 43.6202 27.0107C43.6152 26.7311 43.4386 26.4851 43.1944 26.356C43.1325 26.3243 43.0766 26.3509 43.0656 26.4188C43.0532 26.4919 43.1034 26.5743 43.1604 26.6132L43.1623 26.6166Z" fill="#E6BA93"/>
<path d="M39.2939 23.0781C39.5831 22.8026 39.8897 22.9323 40.2263 22.9968C40.3291 23.0146 40.3025 22.8793 40.2711 22.8307C40 22.4386 39.4257 22.5592 39.1526 22.8875C39.0884 22.9629 39.206 23.1667 39.2958 23.0815L39.2939 23.0781Z" fill="#E6BA93"/>
<path d="M38.9189 31.1904C38.9728 31.3193 39.0241 31.507 39.155 31.5754C39.2116 31.6057 39.2537 31.5779 39.2669 31.5221C39.3008 31.3841 39.1808 31.2081 39.1205 31.0916C39.0887 31.0343 39.0159 30.9511 38.9431 30.9872C38.8669 31.0252 38.8923 31.1346 38.9155 31.1923L38.9189 31.1904Z" fill="#E6BA93"/>
<path d="M42.1592 35.0454C42.1135 35.3134 42.2565 35.7855 42.5789 35.8005C42.6915 35.8041 42.644 35.6231 42.6057 35.5782C42.5124 35.458 42.4104 35.3779 42.436 35.2092C42.4496 35.1222 42.3945 35.0072 42.3184 34.9657C42.2422 34.9242 42.1727 34.9584 42.1592 35.0454Z" fill="#E6BA93"/>
<path d="M44.3982 37.7452C44.5522 37.9905 44.5602 38.2994 44.5982 38.5827C44.6105 38.6685 44.732 38.8393 44.8094 38.708C45.0237 38.3374 44.7989 37.8534 44.5698 37.5527C44.5241 37.4943 44.4404 37.4393 44.374 37.5027C44.3075 37.5662 44.3595 37.6917 44.3966 37.7505L44.3982 37.7452Z" fill="#E6BA93"/>
<path d="M35.0548 43.8391C35.0592 43.9823 35.1101 44.1216 35.1911 44.2355C35.2608 44.3291 35.3925 44.4545 35.5209 44.4229C35.6492 44.3912 35.5901 44.2211 35.5233 44.1567C35.4457 44.0807 35.3347 44.0321 35.3227 43.9152C35.3123 43.8328 35.2595 43.7298 35.172 43.7078C35.0846 43.6858 35.05 43.7668 35.0515 43.841L35.0548 43.8391Z" fill="#E6BA93"/>
<path d="M33.6033 40.9958C33.697 41.1246 33.8222 41.2227 33.9851 41.2292C34.1341 41.2347 34.273 41.1663 34.3186 41.0174C34.346 40.9316 34.2824 40.7375 34.1604 40.7567C34.0144 40.7805 33.8327 40.8595 33.6969 40.7584C33.6504 40.7225 33.5855 40.741 33.5618 40.7938C33.5351 40.8572 33.5628 40.9389 33.6014 40.9924L33.6033 40.9958Z" fill="#E6BA93"/>
<path d="M33.1724 38.2623C33.1486 38.5138 33.3293 38.7752 33.5976 38.7805C33.6738 38.7823 33.6851 38.6834 33.6743 38.632C33.6608 38.5601 33.6125 38.481 33.5371 38.4568C33.4951 38.4448 33.447 38.4141 33.4403 38.3782C33.4265 38.2976 33.3883 38.2129 33.3073 38.1785C33.2438 38.152 33.1778 38.1843 33.1724 38.2623Z" fill="#E6BA93"/>
<path d="M34.8877 35.3402C34.9936 35.3476 35.0975 35.3913 35.1815 35.4549C35.2674 35.5219 35.327 35.6211 35.4501 35.588C35.4843 35.5778 35.4978 35.5306 35.5035 35.501C35.5427 35.3248 35.3589 35.1533 35.2224 35.0748C35.0929 35.0011 34.938 34.9769 34.7935 34.9955C34.6077 35.0193 34.7504 35.3239 34.8892 35.3349L34.8877 35.3402Z" fill="#E6BA93"/>
<path d="M35.8553 37.2871C35.7868 37.5855 35.902 37.9759 36.1222 38.1889C36.2339 38.2945 36.3327 38.1778 36.2964 38.0568C36.2351 37.835 36.1572 37.6312 36.1146 37.4033C36.0992 37.328 36.0625 37.2381 35.9852 37.2105C35.9132 37.1843 35.8663 37.2192 35.8538 37.2923L35.8553 37.2871Z" fill="#E6BA93"/>
<path d="M40.2738 42.4035C40.3247 42.6621 40.2468 42.9039 40.2439 43.1614C40.242 43.2375 40.3668 43.4064 40.4442 43.3149C40.6384 43.0834 40.5806 42.661 40.5223 42.389C40.4812 42.1956 40.2275 42.1689 40.2738 42.4035Z" fill="#E6BA93"/>
<path d="M14.8435 46.9709C15.1126 46.9537 15.4273 46.7876 15.5146 46.5229C15.539 46.4475 15.4548 46.2164 15.3436 46.287C15.2426 46.352 15.1618 46.4454 15.0627 46.5137C14.9602 46.5839 14.8461 46.6253 14.7267 46.6652C14.5938 46.7126 14.726 46.9744 14.8416 46.9675L14.8435 46.9709Z" fill="#E6BA93"/>
<path d="M18.8782 44.3448C18.8441 44.2357 18.8498 44.1267 18.8886 44.0213C18.9322 43.9088 19.0197 43.8116 19.0495 43.698C19.0721 43.6193 19.0208 43.4713 18.9191 43.4793C18.7569 43.4899 18.6569 43.7 18.6196 43.8398C18.5767 44.0093 18.5844 44.1903 18.647 44.3586C18.6706 44.4249 18.7245 44.514 18.8056 44.5087C18.8867 44.5033 18.8928 44.4028 18.8782 44.3448Z" fill="#E6BA93"/>
<path d="M20.4602 43.228C20.6287 43.2446 20.8894 43.3159 21.0318 43.2059C21.1121 43.1436 21.0158 42.9942 20.9588 42.9553C20.8005 42.8535 20.5445 42.8943 20.3629 42.8938C20.1898 42.8929 20.316 43.2154 20.4568 43.2299L20.4602 43.228Z" fill="#E6BA93"/>
<path d="M23.7318 56.6983C23.78 56.4906 23.8785 56.2461 23.8333 56.0374C23.8179 55.9621 23.722 55.861 23.6435 55.9267C23.5684 55.9905 23.5652 56.1202 23.5449 56.2109C23.5238 56.3241 23.4974 56.4358 23.4763 56.5491C23.4462 56.6938 23.6836 56.906 23.7318 56.6983Z" fill="#E6BA93"/>
<path d="M22.4093 57.0893C22.4153 57.4743 22.6506 57.9612 23.0559 58.0537C23.1974 58.0854 23.1551 57.8662 23.0854 57.8123C22.8528 57.6327 22.6657 57.4631 22.6457 57.1565C22.6375 57.0066 22.4053 56.8753 22.4093 57.0893Z" fill="#E6BA93"/>
<path d="M20.995 56.645C20.8312 56.7802 20.8029 57.0077 20.8512 57.206C20.8994 57.4042 21.052 57.6547 21.2771 57.662C21.4209 57.6659 21.3542 57.4426 21.3119 57.3823C21.2084 57.228 21.144 57.0962 21.2188 56.9045C21.2658 56.7902 21.1234 56.5339 20.9916 56.6469L20.995 56.645Z" fill="#E6BA93"/>
<path d="M18.751 55.3768C18.8661 55.5202 19.0969 55.5773 19.1459 55.3471C19.1576 55.2964 19.1088 55.2088 19.0484 55.2115C19.0053 55.2134 18.8972 55.2338 18.8578 55.2027C18.725 55.0912 18.6727 55.2836 18.7495 55.382L18.751 55.3768Z" fill="#E6BA93"/>
<path d="M24.9273 53.4307C24.9574 53.4052 24.9856 53.3763 25.0122 53.3526C25.0671 53.3001 24.9936 53.16 24.9231 53.1683C24.8851 53.1718 24.8439 53.1771 24.806 53.1805C24.6442 53.1998 24.8008 53.5452 24.9273 53.4307Z" fill="#E6BA93"/>
<path d="M21.61 52.0625C21.7579 52.0818 21.9027 52.1116 22.0547 52.1065C22.1861 52.1041 22.08 51.8895 22.008 51.8633C21.8692 51.8125 21.7262 51.7861 21.5848 51.7544C21.4103 51.719 21.4742 52.0409 21.61 52.0625Z" fill="#E6BA93"/>
<path d="M24.3891 52.8039C24.4225 52.7765 24.4458 52.7547 24.4702 52.7191C24.5157 52.6497 24.4745 52.4961 24.3807 52.4864C24.3286 52.4801 24.2888 52.4802 24.2355 52.4877C24.0328 52.521 24.2238 52.9443 24.3891 52.8039Z" fill="#E6BA93"/>
<path d="M35.608 46.894C35.7495 46.8859 35.9056 46.8962 36.0172 46.7945C36.0803 46.7329 36.0136 46.5891 35.9483 46.5592C35.8035 46.4896 35.6628 46.5149 35.5096 46.5339C35.3238 46.5577 35.4545 46.9043 35.6133 46.8955L35.608 46.894Z" fill="#E6BA93"/>
<path d="M34.2668 44.5917C34.3243 44.5995 34.3835 44.6107 34.444 44.608C34.5442 44.6052 34.4955 44.4381 34.4471 44.3988C34.3916 44.3547 34.3312 44.3176 34.2708 44.2806C34.0863 44.1714 34.0788 44.5638 34.2668 44.5917Z" fill="#E6BA93"/>
<path d="M36.2239 45.4876C36.2873 45.5141 36.3383 45.5343 36.4043 45.5417C36.425 45.5391 36.4437 45.533 36.455 45.5135C36.5569 45.3466 36.3682 45.222 36.2264 45.1817C36.053 45.1325 36.1162 45.4371 36.222 45.4842L36.2239 45.4876Z" fill="#E6BA93"/>
<path d="M35.7567 42.9996C35.8254 43.0277 35.888 43.0369 35.9578 43.0114C36.0498 42.9779 35.9745 42.8344 35.9381 42.7929C35.88 42.7281 35.8091 42.6881 35.7284 42.6623C35.6425 42.6351 35.6049 42.7266 35.6112 42.7937C35.6168 42.8832 35.6757 42.9652 35.7601 42.9978L35.7567 42.9996Z" fill="#E6BA93"/>
<path d="M32.9298 36.1064C33.0241 36.0452 33.0864 36.0061 33.1428 35.9086C33.1766 35.8501 33.1163 35.7336 33.0517 35.7209C32.9384 35.7001 32.8686 35.7256 32.7593 35.7599C32.6005 35.8084 32.7781 36.1995 32.9298 36.1064Z" fill="#E6BA93"/>
<path d="M40.7568 33.2217C40.7935 33.3117 40.8433 33.3854 40.8935 33.4678C40.9734 33.5955 41.1187 33.5148 41.0783 33.3784C41.0502 33.2881 41.024 33.2012 40.9805 33.115C40.9449 33.051 40.8703 32.9645 40.7888 33.0009C40.704 33.0393 40.735 33.1588 40.762 33.2232L40.7568 33.2217Z" fill="#E6BA93"/>
<path d="M40.1295 30.6854C40.2635 30.6241 40.1211 30.3282 39.9837 30.3913C39.8497 30.4526 39.9921 30.7485 40.1295 30.6854Z" fill="#E6BA93"/>
<path d="M48.7426 23.6293C48.7932 23.76 48.7807 23.8728 48.6958 23.9906C48.6094 24.1137 48.4693 24.1562 48.3702 24.2643C48.3026 24.3416 48.3651 24.5098 48.4514 24.5457C48.693 24.6541 48.9168 24.4679 49.0131 24.2511C49.1206 24.0149 49.0983 23.736 48.9544 23.5248C48.8618 23.3821 48.6733 23.4648 48.7392 23.6311L48.7426 23.6293Z" fill="#E6BA93"/>
<path d="M47.9942 20.0299C48.1031 20.0665 48.222 20.0974 48.3406 20.08C48.4712 20.0604 48.3802 19.8727 48.3194 19.8271C48.2125 19.7541 48.0913 19.7112 47.9671 19.6787C47.8797 19.6567 47.8418 19.7396 47.8432 19.8138C47.8488 19.9034 47.9098 19.9974 47.9976 20.028L47.9942 20.0299Z" fill="#E6BA93"/>
<path d="M45.3278 16.243C45.3101 16.3146 45.2936 16.3724 45.2984 16.4447C45.3021 16.4912 45.3718 16.6245 45.4371 16.575C45.4957 16.5292 45.5194 16.4763 45.5547 16.4125C45.6284 16.2745 45.3798 16.042 45.3278 16.243Z" fill="#E6BA93"/>
<path d="M42.729 17.8774C42.9024 17.887 43.0732 17.8759 43.2444 17.8337C43.354 17.8081 43.2843 17.635 43.2021 17.6145C43.0149 17.5641 42.8235 17.5381 42.6314 17.5346C42.4584 17.5337 42.5797 17.8634 42.7272 17.8741L42.729 17.8774Z" fill="#E6BA93"/>
<path d="M41.1601 15.3823C41.018 15.6599 41.0346 16.008 41.2453 16.2439C41.327 16.3353 41.4224 16.2602 41.4165 16.162C41.4077 15.9551 41.3478 15.7678 41.3907 15.5586C41.4103 15.4506 41.2382 15.2285 41.1601 15.3823Z" fill="#E6BA93"/>
<path d="M48.8951 10.9867C48.9972 10.9476 49.0918 10.9347 49.1287 10.826C49.1565 10.7487 49.1056 10.6491 49.0283 10.6214C48.921 10.5796 48.8477 10.6468 48.7512 10.696C48.6262 10.7655 48.7607 11.0393 48.8932 10.9833L48.8951 10.9867Z" fill="#E6BA93"/>
<path d="M49.8821 13.1598C49.9289 13.244 49.8826 13.4154 49.8566 13.496C49.8356 13.5695 49.9048 13.7737 50.0163 13.7117C50.2987 13.5592 50.2093 13.1676 50.0601 12.9549C50.0178 12.8946 49.9236 12.8366 49.8571 12.9C49.7891 12.9687 49.8427 13.089 49.8802 13.1564L49.8821 13.1598Z" fill="#E6BA93"/>
<path d="M28.8937 18.5155C29.2198 18.6167 29.5501 18.4949 29.7662 18.2468C29.842 18.1605 29.709 17.8815 29.5967 17.9659C29.3707 18.1401 29.1229 18.2116 28.8425 18.2483C28.7014 18.265 28.8044 18.4902 28.8937 18.5155Z" fill="#E6BA93"/>
<path d="M26.4577 18.2459C26.561 18.1135 26.6785 17.9908 26.6918 17.8157C26.699 17.7411 26.6387 17.6246 26.5482 17.6529C26.398 17.701 26.3284 17.8941 26.2559 18.0183C26.1995 18.1158 26.369 18.357 26.4558 18.2426L26.4577 18.2459Z" fill="#E6BA93"/>
<path d="M25.4556 22.6282C25.5484 22.4928 25.6157 22.3672 25.6643 22.2078C25.6838 22.1396 25.607 21.9616 25.5188 22.0416C25.4005 22.147 25.331 22.2607 25.2592 22.4021C25.2062 22.4977 25.3793 22.7456 25.459 22.6264L25.4556 22.6282Z" fill="#E6BA93"/>
<path d="M20.5309 32.1662C20.5982 31.9214 20.66 31.6664 20.6336 31.412C20.6269 31.3363 20.5043 31.1794 20.4419 31.2979C20.3314 31.5049 20.3255 31.7729 20.3092 31.9982C20.3054 32.0709 20.3327 32.144 20.3916 32.1863C20.431 32.2173 20.5094 32.2311 20.529 32.1629L20.5309 32.1662Z" fill="#E6BA93"/>
<path d="M21.0904 28.9247C21.118 28.7593 21.257 28.6512 21.3625 28.5308C21.432 28.4568 21.3379 28.3194 21.2546 28.3127C20.9975 28.288 20.8513 28.5501 20.8369 28.7788C20.8334 28.8601 20.8686 28.9553 20.9448 28.9968C21.0138 29.0334 21.0765 29.003 21.0871 28.9265L21.0904 28.9247Z" fill="#E6BA93"/>
<path d="M23.5279 28.9254C23.7318 28.7591 23.9301 28.5826 24.0639 28.3538C24.1124 28.2739 23.9959 28.0563 23.8911 28.1145C23.6647 28.2404 23.4923 28.4554 23.333 28.6542C23.2477 28.7634 23.3991 29.0278 23.5294 28.9201L23.5279 28.9254Z" fill="#E6BA93"/>
<path d="M18.2143 40.3411C18.1791 40.246 18.1631 40.1534 18.1673 40.0496C18.1749 39.9439 18.1982 39.8426 18.1919 39.7358C18.1849 39.6515 18.0889 39.5107 17.9954 39.5891C17.8902 39.6785 17.8923 39.8494 17.8994 39.9735C17.909 40.1181 17.9532 40.2612 18.0157 40.3897C18.0438 40.4403 18.0967 40.5036 18.1617 40.4851C18.2232 40.4686 18.2319 40.3887 18.2124 40.3378L18.2143 40.3411Z" fill="#E6BA93"/>
<path d="M19.7314 38.6069C19.883 38.633 20.0451 38.662 20.1915 38.6071C20.2767 38.5774 20.2014 38.4339 20.1534 38.4033C20.0044 38.3184 19.8393 38.2998 19.6708 38.2832C19.5215 38.2691 19.6128 38.5846 19.7314 38.6069Z" fill="#E6BA93"/>
<path d="M17.7101 45.4975C17.8464 45.4879 17.9725 45.484 18.0904 45.4097C18.1643 45.3597 18.1033 45.226 18.0316 45.2085C17.8932 45.1663 17.764 45.1807 17.6248 45.2007C17.4701 45.2249 17.5791 45.5085 17.7101 45.4975Z" fill="#E6BA93"/>
<path d="M35.7262 7.98468C35.7394 7.88909 35.7834 7.82494 35.8622 7.76787C35.9328 7.7198 36.0143 7.68334 36.0541 7.60383C36.0842 7.53857 36.0378 7.4232 35.9744 7.39666C35.687 7.26958 35.5459 7.69217 35.5446 7.9047C35.5434 7.99803 35.708 8.12714 35.7295 7.9828L35.7262 7.98468Z" fill="#E6BA93"/>
<path d="M36.9533 6.94507C37.0513 6.97006 37.1904 7.02949 37.2813 6.97016C37.3538 6.92547 37.319 6.79919 37.2616 6.75165C37.1506 6.66333 37.0331 6.66685 36.8995 6.65727C36.7573 6.64808 36.8554 6.92008 36.9533 6.94507Z" fill="#E6BA93"/>
<path d="M35.4892 11.5052C35.6187 11.4995 35.8499 11.4857 35.928 11.3716C35.9818 11.2932 35.9429 11.1516 35.8528 11.109C35.6994 11.0398 35.5135 11.1034 35.3607 11.1707C35.2166 11.2376 35.3631 11.5092 35.4892 11.5052Z" fill="#E6BA93"/>
<path d="M42.7491 7.53637C42.891 7.53695 43.0595 7.55361 43.1875 7.47361C43.275 7.41616 43.1982 7.27794 43.1243 7.24842C42.9764 7.18938 42.8184 7.21544 42.6634 7.231C42.5031 7.24506 42.6144 7.54066 42.751 7.53975L42.7491 7.53637Z" fill="#E6BA93"/>
<path d="M43.5732 8.49452C43.6981 8.58395 43.7753 8.73077 43.8349 8.86975C43.8716 8.95967 43.9864 8.97527 43.9884 8.85945C43.9894 8.59857 43.821 8.38325 43.6027 8.25308C43.5495 8.22091 43.4954 8.25097 43.4841 8.31021C43.4716 8.38332 43.5177 8.45035 43.5714 8.49114L43.5732 8.49452Z" fill="#E6BA93"/>
<path d="M48.3711 6.82925C48.4093 6.99337 48.509 7.14092 48.6429 7.23859C48.7536 7.31829 48.9385 7.3964 49.055 7.28756C49.1064 7.23689 49.0495 7.11852 48.9999 7.09309C48.8428 7.01719 48.6285 7.02159 48.5697 6.82038C48.527 6.672 48.3252 6.64301 48.3678 6.83111L48.3711 6.82925Z" fill="#E6BA93"/>
<path d="M50.0727 7.53429C50.1316 7.61631 50.0932 7.73029 50.0815 7.82064C50.0736 7.878 50.144 8.02859 50.2232 7.98014C50.4373 7.84794 50.3474 7.52721 50.223 7.36694C50.1829 7.31863 50.1097 7.26663 50.0568 7.32254C50.0038 7.37845 50.0394 7.48223 50.078 7.53578L50.0727 7.53429Z" fill="#E6BA93"/>
<path d="M51.2044 8.7674C51.1167 9.1427 51.2998 9.58364 51.6562 9.74738C51.8344 9.82924 51.7881 9.55493 51.6902 9.4902C51.4907 9.35401 51.3918 9.14424 51.437 8.9073C51.4607 8.77496 51.25 8.5788 51.2063 8.77077L51.2044 8.7674Z" fill="#E6BA93"/>
<path d="M49.5996 23.8103C49.7356 24.1187 49.6618 24.4156 49.6236 24.7369C49.6161 24.8028 49.7139 24.9868 49.7965 24.8967C50.0771 24.5819 49.9612 24.055 49.7877 23.719C49.7008 23.5467 49.5228 23.6324 49.5996 23.8103Z" fill="#E6BA93"/>
<path d="M48.7675 25.9011C48.7279 26.1084 48.7836 26.3201 48.8968 26.4999C48.995 26.6527 49.1784 26.8155 49.3743 26.7861C49.5016 26.7683 49.4192 26.5802 49.3516 26.5383C49.1667 26.4205 48.9867 26.2955 49.0143 26.0507C49.0309 25.9135 48.8037 25.6957 48.7641 25.903L48.7675 25.9011Z" fill="#E6BA93"/>
<path d="M39.8594 32.4591C39.9576 32.6914 39.6261 32.7874 39.5997 32.9786C39.5876 33.0603 39.6382 33.1513 39.7057 33.1932C39.8978 33.3159 40.0522 33.0845 40.1022 32.9198C40.1602 32.7376 40.1393 32.533 40.0509 32.3659C40.0209 32.312 39.9553 32.2337 39.8859 32.2679C39.8164 32.3021 39.8381 32.4048 39.8594 32.4591Z" fill="#E6BA93"/>
</svg>
