<svg viewBox="0 0 44 32" fill="none" xmlns="http://www.w3.org/2000/svg">
<path d="M42.7997 20.4374C42.8146 20.3477 42.8704 20.2556 42.8573 20.1632C42.8532 20.1408 42.8453 20.1243 42.8338 20.1138C42.8338 20.1138 42.8372 20.111 42.8375 20.1079C42.8313 20.1073 42.822 20.1064 42.8158 20.1058C42.8065 20.1049 42.7944 20.1006 42.782 20.0994C42.7113 20.0863 42.6408 20.07 42.5701 20.0569C42.4227 20.027 42.2741 20.0095 42.1255 19.992C42.1252 19.9952 42.1187 19.9977 42.1184 20.0008C41.3729 19.9069 40.6254 19.8348 39.8778 19.7627C39.0031 19.6783 38.1267 19.6441 37.2504 19.5753C35.5073 19.4386 33.7762 19.2088 32.0457 18.9728C28.5878 18.501 25.1212 18.0881 21.6393 17.834C20.9523 17.7835 20.2613 17.742 19.574 17.6945C19.5771 17.6948 19.5836 17.6923 19.587 17.6895C19.4931 17.6899 19.3991 17.6902 19.3049 17.6937C19.2495 17.7167 19.1912 17.7362 19.1364 17.7529C19.0751 17.7721 19.0107 17.7911 18.9465 17.8069C18.3726 18.047 17.8209 18.349 17.2707 18.6354C15.924 19.329 14.5798 20.0291 13.2437 20.7426C11.914 21.4536 10.5897 22.1746 9.26825 22.8989C7.93345 23.6314 6.60176 24.3642 5.26696 25.0967C4.66887 25.4256 4.0808 25.7807 3.45616 26.0599C3.06028 26.2386 2.64387 26.4027 2.26332 26.6175C2.25593 26.6293 2.24853 26.6412 2.23863 26.6465C2.22503 26.6578 2.21173 26.6659 2.20123 26.6775C2.19783 26.6803 2.19443 26.6831 2.19074 26.689C2.19074 26.689 2.19073 26.689 2.19044 26.6922C2.18674 26.6981 2.18334 26.7009 2.17964 26.7068L2.17905 26.7131C2.17905 26.7131 2.17904 26.7131 2.18214 26.7134C2.15995 26.7489 2.15608 26.7894 2.16151 26.8308C2.16886 26.885 2.1858 26.9369 2.18694 26.9904C2.18617 27.0312 2.1752 27.0804 2.15671 27.1101C2.15671 27.1101 2.15272 27.1191 2.14962 27.1188C2.14592 27.1248 2.13882 27.1335 2.13823 27.1397C2.13053 27.1547 2.12874 27.1734 2.13966 27.1902C2.1612 27.2268 2.22442 27.2203 2.25914 27.2174C2.26844 27.2183 2.27806 27.2161 2.28766 27.2139C3.97401 27.4205 5.66321 27.5646 7.35672 27.6965C9.09365 27.8325 10.8282 27.9935 12.5635 28.1798C14.2987 28.366 16.0279 28.583 17.7553 28.8188C19.4858 29.0548 21.2188 29.2974 22.9568 29.4556C23.9313 29.5433 24.9073 29.584 25.8831 29.6592C26.4798 29.7042 27.0751 29.7648 27.6682 29.8157C27.6583 29.821 27.6515 29.8266 27.6416 29.832C27.6819 29.8358 27.7194 29.8363 27.76 29.8371C27.8355 29.8004 27.9139 29.7671 27.9894 29.7303C28.0194 29.7112 28.046 29.6949 28.076 29.6758C28.4926 29.4111 28.9118 29.1529 29.3418 28.9115C29.9012 28.5946 30.4715 28.2944 31.0309 27.9775C31.6066 27.6527 32.1777 27.3117 32.7454 26.9736C33.8776 26.297 34.9992 25.6005 36.1261 24.914C37.25 24.2271 38.3707 23.54 39.4782 22.8265C40.0353 22.4684 40.592 22.1135 41.1491 21.7555C41.4092 21.5888 41.6643 21.4091 41.9107 21.2223C42.0186 21.1416 42.1237 21.0574 42.2369 20.9866C42.3433 20.9214 42.4529 20.8566 42.5568 20.7849C42.6072 20.7489 42.6514 20.7123 42.6962 20.6694C42.7163 20.6557 42.7304 20.6382 42.7449 20.6176C42.7554 20.606 42.7656 20.5976 42.7761 20.586C42.7699 20.5854 42.7665 20.5882 42.76 20.5907C42.7606 20.5845 42.7674 20.5789 42.7711 20.5729C42.788 20.5274 42.7925 20.4807 42.8 20.4343L42.7997 20.4374Z" fill="#DD9829"/>
<path d="M3.96134 25.9506C4.277 25.7925 4.58202 25.6144 4.88957 25.4429C6.23457 24.702 7.58208 23.9676 8.92678 23.2297C10.2551 22.4998 11.5828 21.776 12.9161 21.0591C14.2559 20.3397 15.6063 19.6401 16.9571 18.9374C17.2897 18.7652 17.6224 18.593 17.9547 18.4239C18.2642 18.2651 18.5742 18.1002 18.894 17.9644C19.054 17.895 19.2166 17.8321 19.3791 17.7692C19.9194 17.815 20.4598 17.8608 21.0004 17.9035C22.7373 18.0396 24.4719 18.2006 26.2071 18.3868C27.9424 18.5731 29.6716 18.7901 31.399 19.0259C33.1295 19.2619 34.8625 19.5045 36.6004 19.6627C37.575 19.7504 38.551 19.7911 39.5267 19.8663C40.4526 19.9399 41.3789 20.0418 42.3062 20.0998C42.4086 20.1097 42.514 20.1198 42.6164 20.1297C42.4783 20.2641 42.2883 20.3527 42.1315 20.4538C41.8877 20.6126 41.6659 20.805 41.4247 20.9703C40.8983 21.3344 40.3468 21.6678 39.8098 22.0121C38.7155 22.7175 37.6131 23.4095 36.5029 24.0851C35.3927 24.7607 34.2878 25.4462 33.1748 26.1183C32.0683 26.788 30.9517 27.4315 29.8242 28.0583C29.3283 28.3342 28.8292 28.6098 28.3579 28.9227C28.194 29.0326 28.0328 29.1459 27.8689 29.2558C27.336 29.1982 26.8028 29.1436 26.2721 29.0955C25.3973 29.0112 24.5209 28.977 23.6447 28.9082C21.9016 28.7715 20.1705 28.5417 18.4403 28.3025C14.9824 27.8307 11.5157 27.4178 8.03388 27.1637C6.12516 27.0237 4.20487 26.939 2.30168 26.7083C2.58543 26.5565 2.886 26.4252 3.17667 26.2992C3.44133 26.1833 3.70569 26.0705 3.96534 25.9416L3.96134 25.9506Z" fill="#FEEB87"/>
<g style="mix-blend-mode:multiply" opacity="0.84">
<path d="M29.5194 27.0232C30.8153 26.3372 32.1266 25.6873 33.4247 25.011C34.077 24.6716 34.7265 24.3288 35.3386 23.9195C35.9506 23.5102 36.538 23.0639 37.136 22.6376C37.7374 22.2084 38.3654 21.8289 38.994 21.4432C39.659 21.0359 40.3157 20.6183 40.9729 20.1945C41.063 20.1372 41.1533 20.0767 41.2433 20.0194C40.6719 19.9706 40.0981 19.9152 39.5264 19.8695C38.5507 19.7943 37.5747 19.7536 36.6001 19.6659C34.8591 19.5074 33.1289 19.2682 31.3987 19.0291C29.6713 18.7933 27.9421 18.5763 26.2068 18.3901C24.4747 18.2042 22.7401 18.0432 21.0001 17.9068C20.4595 17.8641 19.9191 17.8182 19.3788 17.7724C19.2163 17.8353 19.0506 17.8979 18.8937 17.9677C18.5736 18.1065 18.2636 18.2715 17.9544 18.4271C17.6221 18.5962 17.2894 18.7685 16.9567 18.9407C15.6063 19.6402 14.2556 20.3429 12.9158 21.0623C11.5825 21.7792 10.2517 22.5027 8.92647 23.233C7.58177 23.9708 6.23425 24.7052 4.88926 25.4461C4.58201 25.6145 4.27668 25.7957 3.96103 25.9538C3.70448 26.0831 3.43702 26.1956 3.17235 26.3115C2.87859 26.4372 2.58112 26.5688 2.29737 26.7206C4.20056 26.9513 6.12086 27.0359 8.02959 27.176C11.5114 27.4301 14.9784 27.8399 18.436 28.3148C20.1665 28.5508 21.9004 28.7841 23.6407 28.9173C24.4174 28.9797 25.1964 29.0171 25.9731 29.0794C27.1181 28.3349 28.3092 27.664 29.516 27.026L29.5194 27.0232Z" fill="#FFD96E"/>
</g>
<g style="mix-blend-mode:multiply" opacity="0.48">
<path d="M42.3126 20.1C41.3853 20.042 40.459 19.9401 39.5331 19.8665C38.5574 19.7912 37.5814 19.7506 36.6068 19.6628C34.8658 19.5044 33.1356 19.2652 31.4054 19.026C29.678 18.7903 27.9488 18.5732 26.2135 18.387C24.4814 18.2011 22.7468 18.0401 21.0068 17.9037C20.4662 17.861 19.9258 17.8152 19.3855 17.7694C19.223 17.8323 19.0573 17.8949 18.9004 17.9646C18.5803 18.1035 18.2703 18.2684 17.9611 18.4241C17.6288 18.5932 17.2961 18.7654 16.9634 18.9376C15.613 19.6372 14.2623 20.3399 12.9225 21.0593C12.091 21.504 11.2621 21.9553 10.4332 22.4065C11.5532 22.0211 12.6808 21.6552 13.8266 21.3602C16.5159 20.6704 19.32 20.4505 22.0908 20.5448C23.5012 20.5928 24.9095 20.7286 26.305 20.9324C27.2959 21.0782 28.2836 21.2584 29.2727 21.4229C30.1294 21.5652 30.9899 21.7331 31.8074 22.0225C32.5188 22.2766 33.2885 22.64 33.7205 23.2946C34.2208 24.0532 33.9817 24.9825 33.6265 25.7497C33.6065 25.795 33.5835 25.8399 33.5604 25.8848C34.5444 25.2851 35.5256 24.6819 36.5096 24.0822C37.6229 23.4069 38.7222 22.7146 39.8165 22.0092C40.3537 21.6618 40.905 21.3315 41.4313 20.9674C41.6726 20.802 41.8944 20.6097 42.1381 20.4509C42.2953 20.3466 42.485 20.2612 42.6231 20.1268C42.5207 20.1169 42.4153 20.1067 42.3129 20.0969L42.3126 20.1Z" fill="#FFD96E"/>
</g>
<path d="M42.7221 20.2346C42.7082 20.315 42.67 20.3868 42.6591 20.4674C42.6559 20.5017 42.6523 20.5391 42.64 20.5693C42.6354 20.5846 42.6187 20.5956 42.5986 20.6093C42.5686 20.6284 42.5392 20.6413 42.5095 20.6573C42.503 20.6598 42.4962 20.6655 42.4894 20.6711C42.4863 20.6708 42.4832 20.6705 42.4798 20.6733C42.3583 20.7653 42.2169 20.8365 42.0935 20.9158C41.8497 21.0746 41.6279 21.2669 41.3866 21.4322C40.8603 21.7964 40.3088 22.1298 39.7718 22.474C38.6775 23.1794 37.5751 23.8715 36.4649 24.5471C35.3547 25.2226 34.2498 25.9081 33.1368 26.5803C32.0302 27.25 30.9137 27.8935 29.7862 28.5202C29.2903 28.7962 28.7912 29.0718 28.3199 29.3846C28.1559 29.4946 27.9948 29.6079 27.8309 29.7178C27.298 29.6601 26.7648 29.6055 26.234 29.5575C25.3593 29.4731 24.4829 29.4389 23.6067 29.3701C21.8636 29.2334 20.1325 29.0036 18.402 28.7676C14.9441 28.2958 11.4774 27.8829 7.99557 27.6288C6.19571 27.4961 4.38798 27.4129 2.59157 27.2113C2.59157 27.2113 2.59187 27.2082 2.58906 27.2048C2.57164 27.1906 2.54963 27.1916 2.53102 27.1898C2.50621 27.1874 2.48169 27.1819 2.45747 27.1733C2.41464 27.1628 2.37581 27.1434 2.33357 27.1267C2.31526 27.1218 2.30004 27.1172 2.28143 27.1154C2.28173 27.1123 2.28513 27.1095 2.28883 27.1036C2.33159 27.0165 2.32221 26.9182 2.29954 26.828C2.29542 26.8056 2.28259 26.7761 2.27567 26.7503C3.98033 26.9618 5.69156 27.1049 7.40338 27.2417C9.14031 27.3777 10.8749 27.5387 12.6101 27.725C14.3454 27.9112 16.0746 28.1282 17.802 28.364C19.5325 28.6 21.2655 28.8426 23.0034 29.0008C23.978 29.0885 24.954 29.1292 25.9297 29.2044C26.5265 29.2494 27.1218 29.31 27.7148 29.3609C27.7049 29.3662 27.6981 29.3718 27.6882 29.3772C27.7285 29.381 27.7661 29.3815 27.8067 29.3823C27.8822 29.3456 27.9605 29.3123 28.036 29.2755C28.066 29.2564 28.0926 29.2401 28.1226 29.221C28.5393 28.9563 28.9584 28.6981 29.3885 28.4567C29.9479 28.1398 30.5181 27.8396 31.0775 27.5227C31.6533 27.1979 32.2244 26.8569 32.792 26.5188C33.9243 25.8422 35.0459 25.1457 36.1728 24.4592C37.2966 23.7723 38.4173 23.0852 39.5249 22.3717C40.082 22.0136 40.6387 21.6587 41.1957 21.3007C41.4559 21.134 41.711 20.9543 41.9574 20.7675C42.0653 20.6868 42.1704 20.6026 42.2836 20.5318C42.39 20.4666 42.4995 20.4017 42.6034 20.33C42.647 20.2997 42.6909 20.2662 42.732 20.2293L42.7317 20.2324L42.7221 20.2346Z" fill="#FACB63"/>
<path d="M40.9042 19.3114C40.9191 19.2217 40.9748 19.1296 40.9618 19.0372C40.9577 19.0148 40.9499 18.9984 40.9383 18.9878C40.9383 18.9878 40.9417 18.985 40.942 18.9819C40.9358 18.9813 40.9265 18.9804 40.9203 18.9798C40.911 18.9789 40.8989 18.9746 40.8865 18.9734C40.8157 18.9603 40.7453 18.9441 40.6745 18.931C40.5271 18.901 40.3785 18.8835 40.23 18.8661C40.2297 18.8692 40.2232 18.8717 40.2229 18.8748C39.4774 18.7809 38.7298 18.7088 37.9823 18.6367C37.1076 18.5524 36.2312 18.5181 35.355 18.4493C33.6118 18.3127 31.8807 18.0828 30.1502 17.8468C26.6923 17.375 23.2257 16.9621 19.7438 16.708C19.0568 16.6575 18.3658 16.616 17.6785 16.5686C17.6816 16.5689 17.6881 16.5663 17.6915 16.5635C17.5976 16.5639 17.5036 16.5643 17.4093 16.5677C17.3539 16.5907 17.2957 16.6102 17.2409 16.6269C17.1796 16.6462 17.1152 16.6651 17.051 16.6809C16.4768 16.9241 15.9254 17.223 15.3752 17.5094C14.0285 18.203 12.6843 18.9032 11.3482 19.6167C10.0185 20.3277 8.69425 21.0486 7.37275 21.7729C6.03795 22.5054 4.70655 23.2351 3.37145 23.9707C2.77336 24.2996 2.18529 24.6547 1.56065 24.9339C1.16477 25.1126 0.748365 25.2767 0.367813 25.4915C0.360417 25.5034 0.353019 25.5152 0.343118 25.5205C0.329518 25.5318 0.316213 25.5399 0.305715 25.5515C0.302315 25.5543 0.298916 25.5571 0.295218 25.5631C0.295218 25.5631 0.295218 25.5631 0.29492 25.5662C0.291222 25.5721 0.287823 25.5749 0.284125 25.5809L0.283528 25.5871C0.283528 25.5871 0.283531 25.5871 0.286633 25.5874C0.264447 25.623 0.260574 25.6634 0.266007 25.7048C0.273349 25.759 0.290297 25.8109 0.291435 25.8644C0.290664 25.9052 0.279693 25.9545 0.261204 25.9841C0.261204 25.9841 0.257202 25.9932 0.254101 25.9929C0.250403 25.9988 0.243305 26.0075 0.242709 26.0138C0.235016 26.0287 0.233234 26.0474 0.244152 26.0642C0.265689 26.1008 0.328914 26.0944 0.363631 26.0914C0.372937 26.0923 0.382539 26.0901 0.392142 26.0879C2.0785 26.2945 3.76772 26.4386 5.46122 26.5705C7.19815 26.7066 8.93269 26.8676 10.668 27.0538C12.4032 27.24 14.1324 27.4571 15.8598 27.6928C17.5903 27.9288 19.3233 28.1714 21.0613 28.3296C22.0359 28.4173 23.0118 28.458 23.9876 28.5332C24.5843 28.5782 25.1796 28.6388 25.7726 28.6897C25.7627 28.695 25.756 28.7006 25.7461 28.706C25.7864 28.7099 25.8239 28.7103 25.8645 28.7111C25.94 28.6744 26.0183 28.6411 26.0939 28.6044C26.1239 28.5853 26.1505 28.569 26.1805 28.5499C26.5971 28.2851 27.0162 28.027 27.4463 27.7856C28.0057 27.4686 28.576 27.1684 29.1354 26.8515C29.7111 26.5267 30.2822 26.1857 30.8499 25.8476C31.9821 25.171 33.1037 24.4745 34.2306 23.788C35.3544 23.1012 36.4752 22.414 37.5828 21.7005C38.1398 21.3425 38.6965 20.9875 39.2536 20.6295C39.5137 20.4629 39.7688 20.2832 40.0152 20.0963C40.1231 20.0156 40.2282 19.9314 40.3414 19.8606C40.4478 19.7955 40.5573 19.7306 40.6612 19.6589C40.7116 19.6229 40.7559 19.5863 40.8007 19.5435C40.8208 19.5297 40.835 19.5122 40.8526 19.4919C40.863 19.4803 40.8732 19.4719 40.8837 19.4603C40.8775 19.4597 40.8741 19.4625 40.8676 19.465C40.8682 19.4588 40.875 19.4532 40.8787 19.4473C40.8956 19.4017 40.9001 19.355 40.9076 19.3086L40.9042 19.3114Z" fill="#DD9829"/>
<path d="M2.06583 24.8246C2.38149 24.6665 2.68653 24.4884 2.99407 24.3169C4.33907 23.576 5.68656 22.8416 7.03126 22.1038C8.35956 21.3738 9.68727 20.6501 11.0206 19.9331C12.3604 19.2137 13.7108 18.5141 15.0615 17.8115C15.3942 17.6392 15.7268 17.467 16.0592 17.2979C16.3687 17.1392 16.6787 16.9742 16.9985 16.8384C17.1585 16.769 17.3211 16.7061 17.4836 16.6432C18.0239 16.689 18.5643 16.7349 19.1049 16.7776C20.8418 16.9137 22.5764 17.0747 24.3116 17.2609C26.0469 17.4471 27.7761 17.6641 29.5035 17.8999C31.234 18.1359 32.967 18.3785 34.7049 18.5367C35.6795 18.6244 36.6555 18.6651 37.6313 18.7403C38.5571 18.8139 39.4834 18.9158 40.4107 18.9738C40.5131 18.9837 40.6185 18.9939 40.7209 19.0037C40.5828 19.1381 40.3928 19.2267 40.236 19.3279C39.9922 19.4867 39.7704 19.679 39.5291 19.8443C39.0028 20.2084 38.4513 20.5419 37.9143 20.8861C36.82 21.5915 35.7176 22.2836 34.6074 22.9591C33.4972 23.6347 32.3923 24.3202 31.2793 24.9924C30.1727 25.662 29.0562 26.3056 27.9287 26.9323C27.4328 27.2082 26.9337 27.4838 26.4624 27.7967C26.2984 27.9066 26.1374 28.02 25.9734 28.1299C25.4405 28.0722 24.9073 28.0176 24.3766 27.9696C23.5018 27.8852 22.6254 27.851 21.7492 27.7822C20.0061 27.6455 18.275 27.4157 16.5445 27.1796C13.0866 26.7079 9.61994 26.2949 6.13809 26.0409C4.22936 25.9008 2.30906 25.8162 0.405876 25.5855C0.689621 25.4337 0.990184 25.3024 1.28085 25.1764C1.54551 25.0605 1.80987 24.9477 2.06952 24.8187L2.06583 24.8246Z" fill="#FEEB87"/>
<g style="mix-blend-mode:multiply">
<path d="M40.4166 18.975C39.4893 18.917 38.563 18.8151 37.6372 18.7415C36.6614 18.6662 35.6854 18.6256 34.7108 18.5378C32.9698 18.3794 31.2396 18.1402 29.5094 17.901C27.782 17.6653 26.0528 17.4482 24.3175 17.262C22.5854 17.0761 20.8508 16.9151 19.1108 16.7787C18.5702 16.736 18.0299 16.6902 17.4895 16.6444C17.327 16.7073 17.1613 16.7699 17.0044 16.8396C16.6843 16.9785 16.3743 17.1434 16.0651 17.2991C15.7328 17.4682 15.4001 17.6404 15.0675 17.8126C13.717 18.5122 12.3663 19.2149 11.0265 19.9343C10.195 20.379 9.36611 20.8303 8.53718 21.2815C9.65721 20.8961 10.7848 20.5302 11.9306 20.2352C14.6199 19.5454 17.424 19.3255 20.1948 19.4198C21.6052 19.4678 23.0135 19.6036 24.409 19.8074C25.3999 19.9532 26.3876 20.1334 27.3767 20.2979C28.2334 20.4402 29.0939 20.6081 29.9114 20.8975C30.6228 21.1516 31.3926 21.515 31.8246 22.1696C32.3249 22.9282 32.0857 23.8575 31.7305 24.6247C31.7106 24.67 31.6875 24.7149 31.6644 24.7598C32.6484 24.1601 33.6296 23.5569 34.6136 22.9572C35.7269 22.2819 36.8262 21.5896 37.9205 20.8842C38.4578 20.5368 39.009 20.2065 39.5353 19.8424C39.7766 19.677 39.9985 19.4847 40.2422 19.3259C40.3993 19.2216 40.589 19.1362 40.7271 19.0018C40.6247 18.9919 40.5193 18.9817 40.4169 18.9719L40.4166 18.975Z" fill="#FFD96E"/>
</g>
<path d="M40.8263 19.1079C40.8124 19.1882 40.7742 19.26 40.7633 19.3407C40.7601 19.3749 40.7565 19.4123 40.7442 19.4425C40.7396 19.4578 40.7229 19.4688 40.7028 19.4826C40.6728 19.5017 40.6434 19.5146 40.6137 19.5305C40.6072 19.5331 40.6004 19.5387 40.5936 19.5443C40.5905 19.544 40.5874 19.5437 40.584 19.5465C40.4625 19.6385 40.3211 19.7098 40.1977 19.789C39.9539 19.9478 39.732 20.1402 39.4908 20.3055C38.9645 20.6696 38.413 21.003 37.876 21.3473C36.7817 22.0527 35.6793 22.7447 34.5691 23.4203C33.4589 24.0959 32.354 24.7814 31.241 25.4535C30.1344 26.1232 29.0179 26.7667 27.8904 27.3935C27.3944 27.6694 26.8954 27.945 26.424 28.2579C26.2601 28.3678 26.099 28.4811 25.9351 28.591C25.4022 28.5333 24.869 28.4788 24.3383 28.4307C23.4635 28.3464 22.5871 28.3121 21.7109 28.2434C19.9678 28.1067 18.2367 27.8769 16.5065 27.6377C13.0486 27.1659 9.58191 26.753 6.10005 26.4989C4.29989 26.3693 2.49246 26.283 0.696055 26.0815C0.696055 26.0815 0.696359 26.0784 0.693555 26.0749C0.679237 26.061 0.654124 26.0617 0.635512 26.0599C0.610697 26.0575 0.586174 26.052 0.561955 26.0434C0.519124 26.033 0.480298 26.0135 0.438064 25.9969C0.41975 25.992 0.404534 25.9873 0.385923 25.9856C0.386221 25.9824 0.389618 25.9796 0.393316 25.9737C0.436077 25.8867 0.426706 25.7883 0.40403 25.6981C0.399912 25.6757 0.387082 25.6462 0.38016 25.6204C2.08483 25.8319 3.79606 25.975 5.50788 26.1118C7.24481 26.2479 8.97935 26.4089 10.7146 26.5951C12.4499 26.7813 14.1791 26.9983 15.9065 27.2341C17.637 27.4701 19.37 27.7127 21.1079 27.8709C22.0825 27.9586 23.0585 27.9993 24.0342 28.0745C24.631 28.1195 25.2262 28.1801 25.8193 28.231C25.8094 28.2363 25.8026 28.2419 25.7927 28.2473C25.833 28.2512 25.8705 28.2516 25.9112 28.2524C25.9867 28.2157 26.065 28.1824 26.1405 28.1457C26.1705 28.1266 26.1971 28.1103 26.2271 28.0911C26.6438 27.8264 27.0629 27.5683 27.493 27.3269C28.0523 27.0099 28.6226 26.7097 29.182 26.3928C29.7578 26.068 30.3289 25.727 30.8965 25.3889C32.0288 24.7123 33.1504 24.0158 34.2773 23.3293C35.4011 22.6425 36.5218 21.9553 37.6294 21.2418C38.1864 20.8838 38.7432 20.5288 39.3002 20.1708C39.5604 20.0042 39.8155 19.8245 40.0619 19.6376C40.1698 19.5569 40.2749 19.4727 40.3881 19.4019C40.4945 19.3367 40.604 19.2719 40.7079 19.2002C40.7515 19.1698 40.7954 19.1363 40.8365 19.0994L40.8362 19.1025L40.8263 19.1079Z" fill="#FACB63"/>
<path d="M42.3315 18.3632C42.3463 18.2735 42.4021 18.1814 42.389 18.089C42.3849 18.0666 42.3771 18.0501 42.3656 18.0396C42.3656 18.0396 42.369 18.0368 42.3693 18.0337C42.3631 18.0331 42.3538 18.0322 42.3476 18.0316C42.3386 18.0275 42.3261 18.0264 42.3137 18.0252C42.243 18.012 42.1725 17.9958 42.1018 17.9827C41.9544 17.9528 41.8058 17.9353 41.6572 17.9178C41.6569 17.9209 41.6504 17.9235 41.6501 17.9266C40.9046 17.8327 40.1571 17.7606 39.4095 17.6885C38.5348 17.6041 37.6584 17.5699 36.7822 17.5011C35.039 17.3644 33.308 17.1346 31.5775 16.8986C28.1196 16.4268 24.6529 16.0139 21.1711 15.7598C20.4841 15.7092 19.793 15.6677 19.1057 15.6203C19.1088 15.6206 19.1153 15.6181 19.1187 15.6153C19.0248 15.6157 18.9309 15.616 18.8366 15.6195C18.7812 15.6424 18.723 15.662 18.6682 15.6787C18.6068 15.6979 18.5424 15.7169 18.4783 15.7327C17.904 15.9759 17.3527 16.2748 16.8025 16.5612C15.4557 17.2548 14.1115 17.9549 12.7754 18.6684C11.4458 19.3794 10.1215 20.1004 8.79999 20.8247C7.46519 21.5572 6.13379 22.2869 4.7987 23.0225C4.20061 23.3514 3.61255 23.7064 2.98791 23.9857C2.59202 24.1644 2.17561 24.3285 1.79506 24.5433C1.78766 24.5551 1.78027 24.567 1.77036 24.5723C1.75676 24.5836 1.74347 24.5917 1.73297 24.6033C1.72957 24.6061 1.72617 24.6089 1.72247 24.6148C1.72247 24.6148 1.72247 24.6148 1.72218 24.6179C1.71848 24.6239 1.71508 24.6267 1.71138 24.6326L1.71078 24.6389C1.71078 24.6389 1.71078 24.6388 1.71388 24.6391C1.69169 24.6747 1.68782 24.7152 1.69325 24.7566C1.70059 24.8107 1.71754 24.8627 1.71868 24.9162C1.71791 24.957 1.70694 25.0062 1.68845 25.0359C1.68845 25.0359 1.68446 25.0449 1.68136 25.0446C1.67766 25.0505 1.67056 25.0593 1.66996 25.0655C1.66227 25.0805 1.66048 25.0992 1.6714 25.116C1.69294 25.1526 1.75617 25.1461 1.79089 25.1432C1.80019 25.1441 1.80979 25.1419 1.8194 25.1397C3.50575 25.3463 5.19495 25.4904 6.88846 25.6223C8.62539 25.7583 10.3599 25.9193 12.0952 26.1055C13.8305 26.2918 15.5597 26.5088 17.287 26.7446C19.0175 26.9806 20.7506 27.2232 22.4885 27.3814C23.4631 27.4691 24.439 27.5098 25.4148 27.585C26.0116 27.63 26.6068 27.6905 27.1999 27.7414C27.19 27.7468 27.1832 27.7524 27.1733 27.7577C27.2136 27.7616 27.2511 27.7621 27.2918 27.7629C27.3673 27.7262 27.4456 27.6928 27.5211 27.6561C27.5511 27.637 27.5777 27.6207 27.6077 27.6016C28.0244 27.3369 28.4435 27.0787 28.8736 26.8373C29.4329 26.5204 30.0032 26.2202 30.5626 25.9033C31.1384 25.5785 31.7094 25.2375 32.2771 24.8994C33.4093 24.2228 34.531 23.5263 35.6579 22.8398C36.7817 22.1529 37.9024 21.4658 39.01 20.7523C39.567 20.3942 40.1238 20.0393 40.6808 19.6813C40.9409 19.5146 41.1961 19.3349 41.4425 19.1481C41.5504 19.0674 41.6555 18.9832 41.7687 18.9124C41.8751 18.8472 41.9846 18.7823 42.0885 18.7106C42.1389 18.6746 42.1831 18.638 42.2279 18.5952C42.248 18.5814 42.2622 18.5639 42.2767 18.5433C42.2872 18.5318 42.2974 18.5233 42.3079 18.5118C42.3017 18.5112 42.2983 18.514 42.2918 18.5165C42.2924 18.5103 42.2992 18.5047 42.3029 18.4987C42.3197 18.4532 42.3242 18.4065 42.3318 18.3601L42.3315 18.3632Z" fill="#DD9829"/>
<path d="M3.49259 23.8783C3.80825 23.7202 4.11328 23.5422 4.42083 23.3707C5.76583 22.6297 7.11333 21.8953 8.45803 21.1575C9.78633 20.4275 11.114 19.7038 12.4473 18.9868C13.7872 18.2674 15.1376 17.5679 16.4883 16.8652C16.821 16.693 17.1536 16.5207 17.486 16.3516C17.7954 16.1929 18.1055 16.0279 18.4253 15.8922C18.5853 15.8227 18.7478 15.7598 18.9104 15.6969C19.4507 15.7428 19.991 15.7886 20.5316 15.8313C22.2686 15.9674 24.0031 16.1284 25.7384 16.3146C27.4737 16.5008 29.2028 16.7178 30.9302 16.9536C32.6607 17.1896 34.3937 17.4322 36.1317 17.5904C37.1063 17.6781 38.0822 17.7188 39.058 17.794C39.9839 17.8676 40.9101 17.9695 41.8375 18.0275C41.9398 18.0374 42.0453 18.0476 42.1477 18.0574C42.0096 18.1918 41.8195 18.2804 41.6627 18.3816C41.419 18.5404 41.1971 18.7327 40.9559 18.898C40.4296 19.2622 39.878 19.5956 39.3411 19.9398C38.2468 20.6452 37.1444 21.3373 36.0342 22.0128C34.9239 22.6884 33.8191 23.3739 32.706 24.0461C31.5995 24.7157 30.483 25.3593 29.3555 25.986C28.8595 26.2619 28.3605 26.5375 27.8891 26.8504C27.7252 26.9603 27.5641 27.0737 27.4002 27.1836C26.8673 27.1259 26.334 27.0713 25.8033 27.0233C24.9286 26.9389 24.0522 26.9047 23.176 26.8359C21.4328 26.6992 19.7017 26.4694 17.9713 26.2334C14.5134 25.7616 11.0467 25.3487 7.56484 25.0946C5.65611 24.9545 3.73582 24.8699 1.83263 24.6392C2.11638 24.4874 2.41695 24.3561 2.70762 24.2301C2.97228 24.1142 3.23664 24.0014 3.49629 23.8724L3.49259 23.8783Z" fill="#FEEB87"/>
<g style="mix-blend-mode:multiply">
<path d="M41.8404 18.0297C40.9131 17.9717 39.9868 17.8698 39.061 17.7962C38.0852 17.7209 37.1092 17.6802 36.1347 17.5925C34.3936 17.434 32.6634 17.1949 30.9332 16.9557C29.2058 16.72 27.4766 16.5029 25.7413 16.3167C24.0092 16.1308 22.2746 15.9698 20.5346 15.8334C19.994 15.7907 19.4537 15.7449 18.9133 15.6991C18.7508 15.762 18.5852 15.8246 18.4282 15.8943C18.1081 16.0332 17.7981 16.1981 17.4889 16.3538C17.1566 16.5229 16.8239 16.6951 16.4913 16.8673C15.1408 17.5669 13.7901 18.2695 12.4503 18.989C11.6189 19.4337 10.7899 19.8849 9.96101 20.3362C11.081 19.9507 12.2086 19.5849 13.3544 19.2899C16.0438 18.6 18.8478 18.3801 21.6187 18.4745C23.0291 18.5225 24.4373 18.6583 25.8328 18.8621C26.8237 19.0079 27.8114 19.188 28.8006 19.3526C29.6572 19.4949 30.5177 19.6628 31.3353 19.9522C32.0466 20.2063 32.8164 20.5697 33.2484 21.2243C33.7487 21.9829 33.5095 22.9122 33.1544 23.6794C33.1344 23.7246 33.1113 23.7696 33.0882 23.8145C34.0722 23.2148 35.0534 22.6116 36.0374 22.0119C37.1508 21.3366 38.25 20.6442 39.3443 19.9389C39.8816 19.5915 40.4328 19.2612 40.9592 18.8971C41.2004 18.7317 41.4223 18.5394 41.666 18.3806C41.8231 18.2763 42.0128 18.1909 42.1509 18.0565C42.0486 18.0466 41.9431 18.0364 41.8407 18.0265L41.8404 18.0297Z" fill="#FFD96E"/>
</g>
<path d="M42.2533 18.1614C42.2394 18.2418 42.2012 18.3135 42.1904 18.3942C42.1871 18.4285 42.1835 18.4658 42.1712 18.4961C42.1667 18.5114 42.15 18.5223 42.1299 18.5361C42.0999 18.5552 42.0704 18.5681 42.0407 18.5841C42.0342 18.5866 42.0274 18.5922 42.0206 18.5978C42.0175 18.5976 42.0144 18.5973 42.011 18.6001C41.8895 18.6921 41.7481 18.7633 41.6247 18.8425C41.381 19.0013 41.1591 19.1937 40.9179 19.359C40.3916 19.7231 39.84 20.0566 39.3031 20.4008C38.2088 21.1062 37.1064 21.7982 35.9961 22.4738C34.8859 23.1494 33.781 23.8349 32.668 24.5071C31.5615 25.1767 30.4449 25.8202 29.3175 26.447C28.8215 26.7229 28.3224 26.9985 27.8511 27.3114C27.6872 27.4213 27.5261 27.5346 27.3622 27.6446C26.8292 27.5869 26.296 27.5323 25.7653 27.4843C24.8906 27.3999 24.0142 27.3657 23.138 27.2969C21.3948 27.1602 19.6637 26.9304 17.9332 26.6943C14.4753 26.2226 11.0087 25.8096 7.52681 25.5556C5.72665 25.426 3.91922 25.3396 2.12281 25.1381C2.12281 25.1381 2.12311 25.135 2.1203 25.1316C2.10288 25.1173 2.08087 25.1183 2.06226 25.1166C2.03745 25.1142 2.01293 25.1087 1.98871 25.1C1.94588 25.0896 1.90705 25.0701 1.86481 25.0535C1.8465 25.0486 1.83128 25.044 1.81267 25.0422C1.81297 25.0391 1.81638 25.0363 1.82007 25.0303C1.86283 24.9433 1.85345 24.845 1.83078 24.7548C1.82666 24.7324 1.81384 24.7028 1.80692 24.677C3.51158 24.8886 5.2228 25.0316 6.93462 25.1684C8.67155 25.3045 10.4061 25.4655 12.1414 25.6517C13.8766 25.8379 15.6058 26.055 17.3332 26.2907C19.0637 26.5268 20.7967 26.7693 22.5347 26.9275C23.5092 27.0152 24.4852 27.0559 25.461 27.1312C26.0577 27.1761 26.653 27.2367 27.2461 27.2876C27.2362 27.2929 27.2294 27.2986 27.2194 27.3039C27.2598 27.3078 27.2973 27.3083 27.3379 27.3091C27.4134 27.2723 27.4918 27.239 27.5673 27.2023C27.5973 27.1832 27.6239 27.1669 27.6539 27.1478C28.0705 26.8831 28.4897 26.6249 28.9197 26.3835C29.4791 26.0666 30.0494 25.7664 30.6088 25.4494C31.1845 25.1246 31.7556 24.7837 32.3233 24.4455C33.4555 23.7689 34.5771 23.0725 35.704 22.3859C36.8278 21.6991 37.9486 21.012 39.0561 20.2984C39.6132 19.9404 40.1699 19.5855 40.727 19.2274C40.9871 19.0608 41.2422 18.8811 41.4886 18.6943C41.5965 18.6135 41.7016 18.5294 41.8148 18.4586C41.9212 18.3934 42.0308 18.3285 42.1347 18.2568C42.1783 18.2264 42.2222 18.193 42.2633 18.1561L42.263 18.1592L42.2533 18.1614Z" fill="#FACB63"/>
<path d="M41.6869 17.5731C41.7018 17.4834 41.7576 17.3914 41.7445 17.299C41.7404 17.2766 41.7326 17.2601 41.721 17.2495C41.721 17.2495 41.7244 17.2467 41.7247 17.2436C41.7185 17.243 41.7092 17.2421 41.703 17.2415C41.694 17.2375 41.6816 17.2363 41.6692 17.2351C41.5985 17.222 41.528 17.2058 41.4573 17.1927C41.3099 17.1627 41.1613 17.1453 41.0127 17.1278C41.0124 17.1309 41.0059 17.1334 41.0056 17.1365C40.2601 17.0426 39.5126 16.9705 38.765 16.8984C37.8903 16.8141 37.0139 16.7799 36.1377 16.7111C34.3945 16.5744 32.6634 16.3446 30.9329 16.1085C27.475 15.6367 24.0084 15.2238 20.5265 14.9697C19.8395 14.9192 19.1485 14.8777 18.4612 14.8303C18.4643 14.8306 18.4708 14.8281 18.4742 14.8252C18.3803 14.8256 18.2863 14.826 18.1921 14.8295C18.1366 14.8524 18.0784 14.8719 18.0236 14.8887C17.9623 14.9079 17.8979 14.9268 17.8337 14.9426C17.2595 15.1859 16.7081 15.4847 16.1579 15.7711C14.8112 16.4647 13.467 17.1649 12.1309 17.8784C10.8012 18.5894 9.47695 19.3103 8.15546 20.0347C6.82066 20.7672 5.48926 21.4968 4.15417 22.2324C3.55608 22.5614 2.96801 22.9164 2.34337 23.1956C1.94748 23.3743 1.53108 23.5385 1.15053 23.7532C1.14313 23.7651 1.13573 23.7769 1.12583 23.7823C1.11223 23.7935 1.09893 23.8017 1.08843 23.8132C1.08503 23.816 1.08163 23.8189 1.07793 23.8248C1.07793 23.8248 1.07793 23.8248 1.07763 23.8279C1.07394 23.8338 1.07054 23.8367 1.06684 23.8426L1.06624 23.8488C1.06624 23.8488 1.06625 23.8488 1.06935 23.8491C1.04716 23.8847 1.04329 23.9252 1.04872 23.9666C1.05606 24.0207 1.07301 24.0726 1.07415 24.1262C1.07338 24.167 1.06241 24.2162 1.04392 24.2458C1.04392 24.2458 1.03992 24.2549 1.03681 24.2546C1.03312 24.2605 1.02602 24.2693 1.02542 24.2755C1.01773 24.2905 1.01595 24.3091 1.02687 24.3259C1.0484 24.3626 1.11163 24.3561 1.14634 24.3532C1.15565 24.3541 1.16525 24.3518 1.17486 24.3496C2.86121 24.5563 4.55042 24.7003 6.24393 24.8322C7.98086 24.9683 9.71541 25.1293 11.4507 25.3155C13.1859 25.5017 14.9151 25.7188 16.6425 25.9545C18.373 26.1906 20.106 26.4331 21.844 26.5913C22.8186 26.679 23.7945 26.7197 24.7703 26.795C25.367 26.8399 25.9623 26.9005 26.5554 26.9514C26.5455 26.9567 26.5387 26.9624 26.5288 26.9677C26.5691 26.9716 26.6066 26.9721 26.6472 26.9728C26.7227 26.9361 26.8011 26.9028 26.8766 26.8661C26.9066 26.847 26.9332 26.8307 26.9632 26.8116C27.3798 26.5469 27.799 26.2887 28.229 26.0473C28.7884 25.7303 29.3587 25.4302 29.9181 25.1132C30.4939 24.7884 31.0649 24.4475 31.6326 24.1093C32.7648 23.4327 33.8864 22.7363 35.0133 22.0497C36.1371 21.3629 37.2579 20.6758 38.3655 19.9622C38.9225 19.6042 39.4793 19.2493 40.0363 18.8912C40.2964 18.7246 40.5515 18.5449 40.7979 18.3581C40.9058 18.2773 41.0109 18.1932 41.1241 18.1224C41.2305 18.0572 41.3401 17.9923 41.444 17.9206C41.4944 17.8846 41.5386 17.848 41.5834 17.8052C41.6035 17.7914 41.6177 17.7739 41.6321 17.7533C41.6426 17.7417 41.6529 17.7333 41.6634 17.7217C41.6571 17.7211 41.6538 17.724 41.6472 17.7265C41.6478 17.7202 41.6546 17.7146 41.6583 17.7087C41.6752 17.6632 41.6797 17.6164 41.6872 17.57L41.6869 17.5731Z" fill="#DD9829"/>
<path d="M2.84806 23.0893C3.16372 22.9311 3.46875 22.7531 3.7763 22.5816C5.12129 21.8407 6.4688 21.1062 7.8135 20.3684C9.1418 19.6384 10.4695 18.9147 11.8028 18.1978C13.1426 17.4783 14.493 16.7788 15.8438 16.0761C16.1764 15.9039 16.5091 15.7317 16.8414 15.5626C17.1509 15.4038 17.4609 15.2388 17.7807 15.1031C17.9408 15.0337 18.1033 14.9708 18.2658 14.9079C18.8062 14.9537 19.3465 14.9995 19.8871 15.0422C21.624 15.1783 23.3586 15.3393 25.0939 15.5255C26.8291 15.7117 28.5583 15.9288 30.2857 16.1645C32.0162 16.4006 33.7492 16.6431 35.4872 16.8013C36.4617 16.889 37.4377 16.9297 38.4135 17.005C39.3393 17.0785 40.2656 17.1805 41.1929 17.2385C41.2953 17.2483 41.4008 17.2585 41.5031 17.2684C41.365 17.4028 41.175 17.4913 41.0182 17.5925C40.7745 17.7513 40.5526 17.9436 40.3114 18.109C39.7851 18.4731 39.2335 18.8065 38.6965 19.1508C37.6023 19.8562 36.4999 20.5482 35.3896 21.2238C34.2794 21.8993 33.1745 22.5849 32.0615 23.257C30.955 23.9267 29.8384 24.5702 28.711 25.197C28.215 25.4729 27.7159 25.7485 27.2446 26.0613C27.0807 26.1713 26.9196 26.2846 26.7557 26.3945C26.2227 26.3368 25.6895 26.2823 25.1588 26.2342C24.2841 26.1499 23.4077 26.1156 22.5314 26.0468C20.7883 25.9102 19.0572 25.6803 17.3267 25.4443C13.8688 24.9725 10.4022 24.5596 6.9203 24.3055C5.01158 24.1654 3.09129 24.0808 1.1881 23.8501C1.47185 23.6983 1.77241 23.567 2.06308 23.441C2.32774 23.3251 2.5921 23.2123 2.85175 23.0833L2.84806 23.0893Z" fill="#FEEB87"/>
<g style="mix-blend-mode:multiply">
<path d="M41.1964 17.2396C40.269 17.1816 39.3428 17.0797 38.4169 17.0061C37.4411 16.9309 36.4652 16.8902 35.4906 16.8025C33.7496 16.644 32.0194 16.4049 30.2892 16.1657C28.5618 15.93 26.8326 15.7129 25.0973 15.5267C23.3651 15.3408 21.6306 15.1798 19.8906 15.0434C19.3499 15.0007 18.8096 14.9548 18.2693 14.909C18.1068 14.9719 17.9411 15.0345 17.7842 15.1043C17.4641 15.2431 17.1541 15.4081 16.8449 15.5637C16.5125 15.7328 16.1799 15.9051 15.8472 16.0773C14.4968 16.7768 13.1461 17.4795 11.8062 18.1989C10.9748 18.6437 10.1459 19.0949 9.31697 19.5462C10.437 19.1607 11.5646 18.7948 12.7104 18.4999C15.3997 17.81 18.2038 17.5901 20.9746 17.6845C22.385 17.7325 23.7933 17.8683 25.1888 18.072C26.1797 18.2179 27.1674 18.398 28.1565 18.5625C29.0132 18.7049 29.8736 18.8727 30.6912 19.1622C31.4026 19.4162 32.1723 19.7796 32.6043 20.4342C33.1046 21.1928 32.8655 22.1221 32.5103 22.8894C32.4903 22.9346 32.4673 22.9795 32.4442 23.0244C33.4282 22.4247 34.4094 21.8216 35.3934 21.2218C36.5067 20.5466 37.606 19.8542 38.7003 19.1488C39.2375 18.8014 39.7888 18.4711 40.3151 18.107C40.5563 17.9417 40.7782 17.7493 41.0219 17.5905C41.179 17.4863 41.3688 17.4008 41.5069 17.2664C41.4045 17.2566 41.299 17.2464 41.1967 17.2365L41.1964 17.2396Z" fill="#FFD96E"/>
</g>
<path d="M41.6088 17.3743C41.5949 17.4547 41.5567 17.5264 41.5459 17.6071C41.5426 17.6413 41.539 17.6787 41.5267 17.709C41.5221 17.7242 41.5054 17.7352 41.4853 17.749C41.4553 17.7681 41.4259 17.781 41.3962 17.797C41.3897 17.7995 41.3829 17.8051 41.3761 17.8107C41.373 17.8104 41.3699 17.8101 41.3665 17.813C41.245 17.905 41.1036 17.9762 40.9802 18.0554C40.7365 18.2142 40.5146 18.4066 40.2734 18.5719C39.747 18.936 39.1955 19.2695 38.6585 19.6137C37.5642 20.3191 36.4618 21.0111 35.3516 21.6867C34.2414 22.3623 33.1365 23.0478 32.0235 23.72C30.917 24.3896 29.8004 25.0331 28.6729 25.6599C28.177 25.9358 27.6779 26.2114 27.2066 26.5243C27.0427 26.6342 26.8816 26.7475 26.7176 26.8575C26.1847 26.7998 25.6515 26.7452 25.1208 26.6972C24.246 26.6128 23.3697 26.5786 22.4934 26.5098C20.7503 26.3731 19.0192 26.1433 17.2887 25.9072C13.8308 25.4354 10.3641 25.0225 6.88229 24.7685C5.08213 24.6388 3.27469 24.5525 1.47828 24.351C1.47828 24.351 1.47859 24.3479 1.47578 24.3445C1.45836 24.3302 1.43635 24.3312 1.41774 24.3294C1.39292 24.3271 1.3684 24.3215 1.34418 24.3129C1.30135 24.3025 1.26252 24.283 1.22029 24.2664C1.20198 24.2615 1.18676 24.2569 1.16815 24.2551C1.16845 24.252 1.17184 24.2491 1.17554 24.2432C1.2183 24.1562 1.20893 24.0578 1.18626 23.9677C1.18214 23.9453 1.16931 23.9157 1.16239 23.8899C2.86705 24.1015 4.57828 24.2445 6.29009 24.3813C8.02703 24.5174 9.76158 24.6784 11.4968 24.8646C13.2321 25.0508 14.9613 25.2679 16.6887 25.5036C18.4192 25.7397 20.1522 25.9822 21.8901 26.1404C22.8647 26.2281 23.8407 26.2688 24.8165 26.3441C25.4132 26.389 26.0085 26.4496 26.6015 26.5005C26.5916 26.5058 26.5848 26.5115 26.5749 26.5168C26.6153 26.5207 26.6528 26.5212 26.6934 26.5219C26.7689 26.4852 26.8472 26.4519 26.9227 26.4152C26.9528 26.3961 26.9793 26.3798 27.0093 26.3607C27.426 26.096 27.8451 25.8378 28.2752 25.5964C28.8346 25.2794 29.4049 24.9793 29.9642 24.6623C30.54 24.3375 31.1111 23.9966 31.6787 23.6584C32.811 22.9818 33.9326 22.2854 35.0595 21.5988C36.1833 20.912 37.304 20.2249 38.4116 19.5113C38.9687 19.1533 39.5254 18.7984 40.0825 18.4403C40.3426 18.2737 40.5977 18.094 40.8441 17.9072C40.952 17.8264 41.0571 17.7423 41.1703 17.6715C41.2767 17.6063 41.3862 17.5414 41.4901 17.4697C41.5337 17.4393 41.5776 17.4058 41.6187 17.3689L41.6184 17.3721L41.6088 17.3743Z" fill="#FACB63"/>
<g style="mix-blend-mode:screen">
<path d="M33.5473 21.3075C32.152 22.1159 30.8239 23.0408 29.4448 23.8759C28.7568 24.2936 28.0604 24.701 27.3484 25.0755C26.7648 25.3839 26.1453 25.6101 25.4759 25.5393C24.6638 25.4547 23.861 25.305 23.0531 25.1768C22.2265 25.0468 21.397 24.9479 20.5645 24.8802C18.8809 24.743 17.1923 24.6587 15.5091 24.5498C12.0928 24.3303 8.67488 24.095 5.28183 23.6326C5.00976 23.5969 4.73621 23.5768 4.46902 23.5228C4.31852 23.4925 4.11529 23.4572 4.01864 23.3222C3.91668 23.1772 3.9985 23.0091 4.09477 22.8863C4.32278 22.5971 4.64781 22.3739 4.92719 22.1368C5.14198 21.9532 5.35926 21.7762 5.57404 21.5926C4.97595 21.9215 4.37816 22.2473 3.78008 22.5762C3.47283 22.7446 3.16749 22.9258 2.85184 23.0839C2.59529 23.2132 2.32783 23.3257 2.06317 23.4416C1.7694 23.5673 1.47194 23.6989 1.18819 23.8507C3.09138 24.0814 5.01167 24.166 6.92039 24.3061C10.4022 24.5602 13.8689 24.9731 17.3268 25.4449C19.0573 25.6809 20.7912 25.9141 22.5315 26.0474C23.4078 26.1162 24.2839 26.1536 25.1589 26.2348C25.6924 26.2863 26.2259 26.3377 26.7557 26.3951C26.9197 26.2852 27.0839 26.1721 27.2447 26.0619C27.7163 25.7459 28.2151 25.4734 28.711 25.1975C29.8385 24.5708 30.9582 23.9275 32.0616 23.2576C33.1746 22.5854 34.2795 21.8999 35.3897 21.2243C36.503 20.5491 37.6023 19.8567 38.6966 19.1513C39.2339 18.804 39.7851 18.4737 40.3115 18.1095C40.5527 17.9442 40.7746 17.7519 41.0183 17.5931C41.1754 17.4888 41.3651 17.4034 41.5032 17.269C41.4195 17.2609 41.3357 17.2528 41.252 17.2447C38.7389 18.7091 36.0566 19.8491 33.5411 21.3069L33.5473 21.3075Z" fill="#FEEB87"/>
</g>
<path d="M42.8764 17.0839C42.8913 16.9942 42.947 16.9021 42.9339 16.8097C42.9298 16.7873 42.922 16.7708 42.9105 16.7603C42.9105 16.7603 42.9108 16.7572 42.9142 16.7544C42.908 16.7538 42.8987 16.7529 42.8925 16.7523C42.8832 16.7514 42.8711 16.7471 42.8587 16.7459C42.7879 16.7327 42.7175 16.7165 42.6467 16.7034C42.4993 16.6735 42.3507 16.656 42.2021 16.6385C42.2018 16.6416 42.1953 16.6442 42.195 16.6473C41.4496 16.5534 40.702 16.4813 39.9545 16.4092C39.0797 16.3248 38.2033 16.2906 37.3271 16.2218C35.584 16.0851 33.8529 15.8553 32.1224 15.6193C28.6645 15.1475 25.1978 14.7346 21.716 14.4805C21.029 14.4299 20.338 14.3884 19.6507 14.341C19.6538 14.3413 19.6603 14.3388 19.6637 14.336C19.5697 14.3364 19.4758 14.3367 19.3815 14.3402C19.3261 14.3632 19.2679 14.3827 19.2131 14.3994C19.1517 14.4186 19.0873 14.4376 19.0232 14.4534C18.449 14.6966 17.8976 14.9955 17.3474 15.2818C16.0007 15.9755 14.6564 16.6756 13.3203 17.3891C11.9907 18.1001 10.6664 18.8211 9.34492 19.5454C8.01012 20.2779 6.67871 21.0076 5.34361 21.7432C4.74552 22.0721 4.15746 22.4271 3.53282 22.7064C3.13694 22.8851 2.72053 23.0492 2.33998 23.264C2.33259 23.2758 2.32519 23.2877 2.31529 23.293C2.30169 23.3043 2.28839 23.3124 2.27789 23.324C2.27449 23.3268 2.27109 23.3296 2.26739 23.3355C2.26739 23.3355 2.26739 23.3355 2.2671 23.3387C2.2634 23.3446 2.26 23.3474 2.2563 23.3533L2.25571 23.3596C2.25571 23.3596 2.2557 23.3596 2.2588 23.3599C2.23661 23.3954 2.23274 23.4359 2.23817 23.4773C2.24552 23.5314 2.26246 23.5834 2.2636 23.6369C2.26283 23.6777 2.25186 23.7269 2.23337 23.7566C2.23337 23.7566 2.22938 23.7656 2.22628 23.7653C2.22258 23.7713 2.21548 23.78 2.21489 23.7862C2.20719 23.8012 2.2054 23.8199 2.21632 23.8367C2.23786 23.8733 2.30108 23.8668 2.3358 23.8639C2.3451 23.8648 2.35472 23.8626 2.36432 23.8604C4.05067 24.067 5.73988 24.2111 7.43339 24.3429C9.17032 24.479 10.9049 24.64 12.6401 24.8262C14.3754 25.0125 16.1046 25.2295 17.832 25.4653C19.5625 25.7013 21.2955 25.9439 23.0334 26.1021C24.008 26.1898 24.984 26.2305 25.9597 26.3057C26.5565 26.3507 27.1518 26.4112 27.7448 26.4621C27.7349 26.4675 27.7281 26.4731 27.7182 26.4784C27.7586 26.4823 27.7961 26.4828 27.8367 26.4836C27.9122 26.4469 27.9905 26.4136 28.066 26.3768C28.096 26.3577 28.1226 26.3414 28.1526 26.3223C28.5693 26.0576 28.9884 25.7994 29.4185 25.558C29.9779 25.2411 30.5481 24.9409 31.1075 24.624C31.6833 24.2992 32.2544 23.9582 32.822 23.6201C33.9543 22.9435 35.0759 22.247 36.2028 21.5605C37.3266 20.8736 38.4473 20.1865 39.5549 19.473C40.112 19.1149 40.6687 18.76 41.2258 18.402C41.4859 18.2353 41.741 18.0556 41.9874 17.8688C42.0953 17.7881 42.2004 17.7039 42.3136 17.6331C42.42 17.5679 42.5295 17.503 42.6334 17.4313C42.6838 17.3953 42.728 17.3587 42.7728 17.3159C42.7929 17.3021 42.8071 17.2847 42.8216 17.264C42.8321 17.2525 42.8423 17.244 42.8528 17.2325C42.8466 17.2319 42.8432 17.2347 42.8367 17.2372C42.8373 17.231 42.8441 17.2254 42.8478 17.2194C42.8647 17.1739 42.8691 17.1272 42.8767 17.0808L42.8764 17.0839Z" fill="#DD9829"/>
<path d="M4.038 22.5981C4.35366 22.4399 4.65869 22.2619 4.96624 22.0904C6.31124 21.3494 7.65873 20.615 9.00343 19.8772C10.3317 19.1472 11.6594 18.4235 12.9927 17.7066C14.3326 16.9871 15.683 16.2876 17.0337 15.5849C17.3664 15.4127 17.699 15.2405 18.0314 15.0714C18.3408 14.9126 18.6509 14.7476 18.9707 14.6119C19.1307 14.5425 19.2932 14.4796 19.4558 14.4167C19.9961 14.4625 20.5364 14.5083 21.077 14.551C22.814 14.6871 24.5485 14.8481 26.2838 15.0343C28.0191 15.2205 29.7482 15.4376 31.4756 15.6733C33.2061 15.9094 34.9391 16.1519 36.6771 16.3101C37.6517 16.3978 38.6276 16.4385 39.6034 16.5138C40.5293 16.5873 41.4555 16.6892 42.3829 16.7473C42.4852 16.7571 42.5907 16.7673 42.6931 16.7772C42.555 16.9116 42.3649 17.0001 42.2081 17.1013C41.9644 17.2601 41.7425 17.4524 41.5013 17.6178C40.975 17.9819 40.4234 18.3153 39.8865 18.6596C38.7922 19.365 37.6898 20.057 36.5796 20.7326C35.4694 21.4081 34.3645 22.0936 33.2514 22.7658C32.1449 23.4355 31.0284 24.079 29.9009 24.7057C29.4049 24.9817 28.9059 25.2573 28.4345 25.5701C28.2706 25.6801 28.1095 25.7934 27.9456 25.9033C27.4127 25.8456 26.8794 25.7911 26.3487 25.743C25.474 25.6587 24.5976 25.6244 23.7214 25.5556C21.9782 25.4189 20.2471 25.1891 18.5167 24.9531C15.0588 24.4813 11.5921 24.0684 8.11025 23.8143C6.20153 23.6742 4.28123 23.5896 2.37804 23.3589C2.66179 23.2071 2.96236 23.0758 3.25303 22.9498C3.51769 22.8339 3.78205 22.7211 4.0417 22.5921L4.038 22.5981Z" fill="#FEEB87"/>
<g style="mix-blend-mode:multiply" opacity="0.48">
<path d="M42.3893 16.7484C41.4619 16.6904 40.5357 16.5885 39.6098 16.5149C38.634 16.4397 37.6581 16.399 36.6835 16.3113C34.9424 16.1528 33.2122 15.9136 31.482 15.6745C29.7546 15.4387 28.0255 15.2217 26.2902 15.0355C24.558 14.8496 22.8204 14.6883 21.0834 14.5522C20.5428 14.5095 20.0025 14.4636 19.4622 14.4178C19.2996 14.4807 19.134 14.5433 18.977 14.6131C18.657 14.7519 18.3469 14.9169 18.0378 15.0725C17.7054 15.2416 17.3728 15.4139 17.0401 15.5861C15.6897 16.2856 14.3389 16.9883 12.9991 17.7077C12.1677 18.1525 11.3388 18.6037 10.5098 19.0549C11.6299 18.6695 12.7574 18.3036 13.9032 18.0087C16.5926 17.3188 19.3966 17.0989 22.1675 17.1933C23.5779 17.2413 24.9861 17.3771 26.3816 17.5808C27.3726 17.7267 28.3602 17.9068 29.3494 18.0713C30.206 18.2137 31.0665 18.3815 31.8841 18.671C32.5954 18.925 33.3652 19.2884 33.7972 19.943C34.2975 20.7016 34.0584 21.6309 33.7032 22.3982C33.6832 22.4434 33.6601 22.4883 33.6371 22.5332C34.6211 21.9335 35.6023 21.3303 36.5863 20.7306C37.6996 20.0553 38.7989 19.363 39.8932 18.6576C40.4304 18.3102 40.9817 17.9799 41.508 17.6158C41.7492 17.4505 41.9711 17.2581 42.2148 17.0993C42.3719 16.9951 42.5617 16.9096 42.6997 16.7752C42.5974 16.7653 42.4919 16.7552 42.3896 16.7453L42.3893 16.7484Z" fill="#FFD96E"/>
</g>
<path d="M42.7988 16.8821C42.7848 16.9625 42.7467 17.0342 42.7358 17.1149C42.7325 17.1492 42.7289 17.1865 42.7167 17.2168C42.7121 17.2321 42.6954 17.243 42.6753 17.2568C42.6453 17.2759 42.6159 17.2888 42.5862 17.3048C42.5797 17.3073 42.5729 17.3129 42.5661 17.3185C42.563 17.3183 42.5599 17.3179 42.5565 17.3208C42.435 17.4128 42.2935 17.484 42.1701 17.5632C41.9264 17.722 41.7045 17.9144 41.4633 18.0797C40.937 18.4438 40.3854 18.7773 39.8485 19.1215C38.7542 19.8269 37.6518 20.519 36.5416 21.1945C35.4314 21.8701 34.3264 22.5556 33.2134 23.2278C32.1069 23.8974 30.9903 24.5409 29.8629 25.1677C29.3669 25.4436 28.8678 25.7192 28.3965 26.0321C28.2326 26.142 28.0715 26.2554 27.9076 26.3653C27.3747 26.3076 26.8414 26.253 26.3107 26.205C25.436 26.1206 24.5596 26.0864 23.6834 26.0176C21.9402 25.8809 20.2091 25.6511 18.4786 25.415C15.0207 24.9433 11.5541 24.5303 8.07224 24.2763C6.27208 24.1467 4.46464 24.0603 2.66823 23.8588C2.66823 23.8588 2.66853 23.8557 2.66572 23.8523C2.6483 23.838 2.62629 23.8391 2.60768 23.8373C2.58287 23.8349 2.55835 23.8293 2.53413 23.8207C2.4913 23.8103 2.45247 23.7909 2.41023 23.7742C2.39192 23.7693 2.3767 23.7647 2.35809 23.7629C2.35839 23.7598 2.3618 23.757 2.36549 23.751C2.40825 23.664 2.39887 23.5657 2.3762 23.4755C2.37208 23.4531 2.35925 23.4235 2.35233 23.3977C4.05699 23.6093 5.76823 23.7523 7.48004 23.8891C9.21698 24.0252 10.9515 24.1862 12.6868 24.3724C14.422 24.5586 16.1512 24.7757 17.8786 25.0114C19.6091 25.2475 21.3421 25.49 23.0801 25.6482C24.0547 25.7359 25.0306 25.7766 26.0064 25.8519C26.6031 25.8969 27.1984 25.9574 27.7915 26.0083C27.7816 26.0137 27.7748 26.0193 27.7649 26.0246C27.8052 26.0285 27.8427 26.029 27.8833 26.0297C27.9588 25.993 28.0372 25.9597 28.1127 25.923C28.1427 25.9039 28.1693 25.8876 28.1993 25.8685C28.6159 25.6038 29.0351 25.3456 29.4651 25.1042C30.0245 24.7873 30.5948 24.4871 31.1542 24.1701C31.7299 23.8453 32.301 23.5044 32.8687 23.1662C34.0009 22.4896 35.1225 21.7932 36.2494 21.1066C37.3733 20.4198 38.494 19.7327 39.6016 19.0191C40.1586 18.6611 40.7154 18.3062 41.2724 17.9481C41.5325 17.7815 41.7876 17.6018 42.034 17.415C42.1419 17.3342 42.247 17.2501 42.3603 17.1793C42.4667 17.1141 42.5762 17.0492 42.6801 16.9775C42.7237 16.9471 42.7676 16.9137 42.8087 16.8768L42.8084 16.8799L42.7988 16.8821Z" fill="#FACB63"/>
<g style="mix-blend-mode:screen">
<path d="M34.7368 20.8183C33.3415 21.6267 32.0133 22.5515 30.6343 23.3866C29.9463 23.8043 29.2499 24.2118 28.5379 24.5863C27.9543 24.8946 27.3347 25.1209 26.6653 25.05C25.8532 24.9654 25.0505 24.8157 24.2425 24.6875C23.416 24.5575 22.5865 24.4586 21.754 24.3909C20.0704 24.2537 18.3817 24.1694 16.6986 24.0605C13.2823 23.8411 9.86435 23.6057 6.47129 23.1433C6.19922 23.1077 5.92566 23.0876 5.65848 23.0335C5.50798 23.0033 5.30474 22.968 5.20809 22.8329C5.10614 22.6879 5.18796 22.5198 5.28422 22.3971C5.51224 22.1079 5.83725 21.8846 6.11663 21.6476C6.33142 21.464 6.54872 21.2869 6.7635 21.1033C6.16541 21.4322 5.56763 21.7581 4.96954 22.087C4.66229 22.2554 4.35696 22.4365 4.0413 22.5947C3.78475 22.7239 3.51729 22.8364 3.25263 22.9524C2.95886 23.078 2.66139 23.2096 2.37764 23.3614C4.28083 23.5921 6.20113 23.6768 8.10985 23.8168C11.5917 24.0709 15.0584 24.4838 18.5163 24.9556C20.2467 25.1917 21.9806 25.4249 23.721 25.5582C24.5972 25.6269 25.4733 25.6643 26.3483 25.7455C26.8819 25.797 27.4154 25.8485 27.9452 25.9058C28.1091 25.7959 28.2733 25.6829 28.4341 25.5727C28.9058 25.2567 29.4045 24.9842 29.9005 24.7083C31.028 24.0815 32.1476 23.4383 33.251 22.7683C34.3641 22.0962 35.469 21.4107 36.5792 20.7351C37.6925 20.0598 38.7918 19.3675 39.8861 18.6621C40.4233 18.3147 40.9746 17.9844 41.5009 17.6203C41.7421 17.4549 41.964 17.2626 42.2077 17.1038C42.3648 16.9995 42.5546 16.9141 42.6927 16.7797C42.6089 16.7716 42.5252 16.7635 42.4414 16.7555C39.9284 18.2198 37.2461 19.3598 34.7305 20.8177L34.7368 20.8183Z" fill="#FEEB87"/>
</g>
<path d="M29.3315 2.48057C29.3315 2.45985 29.3237 2.44172 29.3134 2.42101C29.2593 2.31483 29.1329 2.2475 29.0323 2.1957C28.7434 2.04809 28.4262 1.95228 28.1141 1.86423C26.9457 1.53535 25.7567 1.30228 24.5573 1.13136C23.1826 0.937137 21.795 0.825785 20.4074 0.745506C18.9914 0.662638 17.5728 0.590126 16.1543 0.618612C15.445 0.63415 14.7331 0.660047 14.0264 0.732557C13.9542 0.740326 13.882 0.748094 13.8123 0.755863C13.7479 0.766222 13.686 0.779172 13.6215 0.79471C13.3816 0.854272 13.1598 0.970803 12.9302 1.05885C12.2958 1.35148 11.6793 1.68296 11.068 2.01961C10.1034 2.55049 9.12848 3.06065 8.16901 3.60447C6.20881 4.71543 4.32597 5.9455 2.49731 7.26363C2.07432 7.56921 1.65391 7.8722 1.22576 8.17001C0.95236 8.35905 0.593847 8.59212 0.433936 8.90806C0.248232 9.05826 0.485522 9.70567 0.52421 9.83774C0.580953 10.0294 0.650595 10.2184 0.697021 10.4101C0.789873 10.7804 0.81824 11.1818 0.854349 11.5599C0.898196 12.013 0.923987 12.4688 0.949779 12.9246C0.949779 12.9246 0.949782 12.9246 0.952361 12.9272C0.952361 12.9272 0.954937 12.9298 0.957516 12.9324C0.957516 12.9324 0.96268 12.935 0.96268 12.9375C0.965259 12.9375 0.97042 12.9427 0.972999 12.9453C0.985895 12.9557 1.00137 12.9608 1.01684 12.9686C1.022 12.9686 1.02716 12.9712 1.03232 12.9738C1.04005 12.9764 1.04779 12.979 1.05553 12.9816C1.06327 12.9816 1.071 12.9842 1.08132 12.9867C1.0839 12.9867 1.08906 12.9867 1.09164 12.9867C1.07617 12.9842 1.09164 12.9867 1.09421 12.9867C1.11227 12.9867 1.12775 12.9867 1.1458 12.9867H1.15096C1.2696 12.8055 1.42436 12.6501 1.61264 12.5646C1.72613 12.5853 1.82671 12.6009 1.9273 12.6708C2.03563 12.7459 2.11559 12.8521 2.18007 12.966C2.31161 13.2043 2.37351 13.4762 2.40446 13.7455C2.46378 14.2867 2.3013 14.8798 2.00469 15.333C1.82672 15.6075 1.58943 15.7836 1.28508 15.8871C1.2825 15.8871 1.27992 15.8871 1.27734 15.8871C1.26445 15.9415 1.26703 16.0011 1.27734 16.0632C1.30572 16.1875 1.3573 16.3015 1.38825 16.4258C1.38825 16.431 1.38825 16.4361 1.38825 16.4413C1.41146 16.4983 1.43209 16.5553 1.45015 16.6148C1.51463 16.8272 1.56106 17.0447 1.59716 17.2622C1.67196 17.7232 1.70033 18.1893 1.73902 18.6555C1.78029 19.1553 1.85767 19.6499 1.89635 20.1497C1.93504 20.6366 1.96857 21.1208 1.98147 21.6077C1.9892 21.9754 2.05627 22.3975 2.46894 22.4959C2.48184 22.4985 2.49473 22.4959 2.50763 22.4959C2.81971 22.6565 3.27624 22.5296 3.58832 22.4519C4.24344 22.2887 4.91919 22.1903 5.58463 22.0764C7.10637 21.82 8.63585 21.6387 10.1705 21.486C13.2733 21.1778 16.3812 20.9085 19.4866 20.6469C21.0135 20.52 22.543 20.4138 24.0673 20.2559C24.4232 20.2196 24.7766 20.1704 25.1325 20.1342C25.4394 20.1031 25.7464 20.0746 26.0507 20.0202C26.5717 19.927 27.1005 19.7431 27.4229 19.2977C27.7066 18.9015 27.8149 18.3913 27.8923 17.92C27.9748 17.4047 28.0187 16.8842 28.0857 16.3688C28.2843 14.8409 28.4365 13.3105 28.5861 11.7774C28.7383 10.2314 28.9059 8.68794 29.0168 7.13674C29.0736 6.36244 29.1122 5.58814 29.1277 4.81383C29.1355 4.43574 29.12 4.06025 29.1277 3.68216C29.1303 3.52419 29.1303 3.35845 29.1638 3.20307C29.187 3.08913 29.2412 2.98296 29.2773 2.87419C29.3186 2.74989 29.3573 2.60228 29.3186 2.47798L29.3315 2.48057Z" fill="#DD9829"/>
<path d="M3.21451 14.2374C3.1784 14.6802 2.99012 15.1023 2.66772 15.4105C2.37627 15.6876 1.95844 15.8662 1.54834 15.8921C1.72888 15.817 1.89138 15.6798 2.01518 15.5348C2.22667 15.2862 2.36853 14.9832 2.46138 14.6698C2.62903 14.0975 2.62645 13.4864 2.33242 12.9555C2.23699 12.782 2.0745 12.5852 1.87848 12.5049C1.92233 12.5049 1.96618 12.5049 2.01002 12.5101C2.36853 12.5593 2.67546 12.813 2.87922 13.0979C3.11393 13.4242 3.24547 13.8334 3.21194 14.2374H3.21451Z" fill="#FBBC37"/>
<path d="M29.2003 2.67979C29.1925 2.74453 29.159 2.80668 29.1281 2.86365C29.1126 2.88955 29.0997 2.91544 29.0842 2.94134C29.0558 3.01126 29.0275 3.076 29.012 3.12521C28.9191 3.40748 28.9398 3.73636 28.9424 4.02899C28.9527 4.77222 28.932 5.51286 28.8908 6.25608C28.8082 7.76325 28.6561 9.26524 28.5065 10.7672C28.3569 12.264 28.2176 13.7609 28.0422 15.2551C27.9674 15.8947 27.8746 16.5344 27.8049 17.174C27.7508 17.6609 27.7018 18.1581 27.5522 18.6268C27.4825 18.8469 27.3897 19.0619 27.2555 19.2483C27.1034 19.4581 26.8893 19.5902 26.6494 19.6834C26.1026 19.8957 25.4965 19.9061 24.9214 19.976C23.4228 20.1599 21.9166 20.2609 20.4129 20.3878C17.3849 20.6416 14.3569 20.9031 11.3315 21.1957C9.85099 21.3408 8.36537 21.478 6.89263 21.6955C6.16013 21.8043 5.43022 21.926 4.70288 22.0581C4.39079 22.1151 4.07355 22.1643 3.76404 22.2394C3.52933 22.2963 3.29721 22.3585 3.05734 22.3947C2.91032 22.4155 2.74783 22.4258 2.60339 22.3844C2.59824 22.3714 2.58792 22.3611 2.56729 22.3559C2.281 22.2704 2.19846 22.0115 2.17267 21.7473C2.20362 21.7655 2.2423 21.7758 2.28099 21.781C2.51312 21.8017 2.75557 21.781 2.98512 21.7551C3.36427 21.7163 3.74083 21.6567 4.11739 21.6127C4.50685 21.566 4.89374 21.5168 5.28062 21.4625C6.04923 21.3563 6.81268 21.2372 7.57355 21.087C8.33958 20.9368 9.09787 20.7788 9.87163 20.6752C11.4217 20.4629 12.9822 20.38 14.5426 20.3101C16.0953 20.2376 17.648 20.1728 19.1929 20.0149C20.7559 19.8543 22.3189 19.6627 23.8742 19.4529C24.0728 19.427 24.2688 19.3959 24.4648 19.3623C24.5319 19.3519 24.5964 19.2121 24.4932 19.2172C23.7401 19.2587 22.9921 19.3752 22.2467 19.4684C21.4884 19.5643 20.7301 19.6627 19.9718 19.7481C18.4604 19.9216 16.9464 20.0174 15.4273 20.0874C13.9287 20.1573 12.4302 20.2194 10.9368 20.3722C10.1863 20.4499 9.43832 20.5509 8.6955 20.6882C7.95269 20.8254 7.21504 20.9886 6.46965 21.1129C5.72683 21.2346 4.98143 21.3356 4.23346 21.4288C3.61703 21.5065 2.99286 21.6256 2.37127 21.6334C2.32742 21.6334 2.15719 21.6645 2.20104 21.5919C2.21651 21.5661 2.18557 21.5505 2.16493 21.566C2.16493 21.566 2.16235 21.5661 2.15977 21.5686C2.15977 21.5531 2.15977 21.535 2.15977 21.5194C2.15203 21.0352 2.11334 20.5509 2.07981 20.0692C2.04628 19.5772 1.97407 19.0904 1.93796 18.5983C1.90443 18.1451 1.87347 17.6919 1.80384 17.2439C1.76515 17.0031 1.71872 16.7649 1.64393 16.5318C1.58976 16.3635 1.52529 16.1848 1.43244 16.0268C1.62588 16.0113 1.81674 15.988 2.00244 15.9284C2.22683 15.8585 2.44091 15.7497 2.62919 15.6099C3.02381 15.3147 3.28947 14.8822 3.38232 14.4005C3.47517 13.9266 3.38232 13.4501 3.1244 13.0435C2.90517 12.7043 2.55955 12.3961 2.15203 12.3262C1.71099 12.2511 1.35506 12.4686 1.11003 12.8027C1.07135 12.0802 1.03266 11.3551 0.932067 10.6378C0.877904 10.2519 0.746363 9.88935 0.632877 9.51903C0.640615 9.51385 0.645773 9.50868 0.648352 9.5035C0.681882 9.5035 0.720569 9.51127 0.743781 9.51127C0.834054 9.51127 0.926905 9.49573 1.01718 9.48537C1.20804 9.46206 1.39633 9.42581 1.58461 9.37919C1.97923 9.28078 2.37127 9.17202 2.76847 9.08915C3.59382 8.91824 4.40885 8.71624 5.22904 8.51943C6.88748 8.11803 8.56654 7.80987 10.2379 7.47063C11.9273 7.1262 13.6141 6.7766 15.3009 6.42182C16.9799 6.06963 18.659 5.71485 20.3355 5.35748C21.1712 5.17879 22.0094 5.00011 22.8399 4.80329C23.2294 4.71007 23.6163 4.60389 24.0083 4.52879C24.3875 4.45628 24.7692 4.39931 25.1432 4.30608C25.3005 4.26724 25.4527 4.21803 25.5997 4.15588C26.0923 4.11186 26.5592 3.84512 27.0621 3.98755C27.5393 4.12221 27.743 4.5262 27.8127 4.98716C27.8462 5.21763 27.8513 5.45329 27.8513 5.68377C27.8513 5.96604 27.8513 6.2509 27.8513 6.53317C27.8462 7.29194 27.8101 8.04811 27.7585 8.80429C27.6527 10.3296 27.4567 11.8497 27.2426 13.3621C27.1343 14.1208 27.0208 14.877 26.9048 15.6332C26.8403 16.0527 26.7913 16.4722 26.7216 16.8892C26.652 17.3087 26.5617 17.7334 26.3838 18.1218C26.2316 18.4559 25.9969 18.7666 25.641 18.8858C25.5481 18.9168 25.4475 18.9376 25.3521 18.9479C25.2824 18.9557 25.2205 19.0904 25.3237 19.0929C26.2471 19.1085 26.652 18.1166 26.8248 17.3605C26.9177 16.9513 26.9718 16.5344 27.026 16.1174C27.1188 15.4286 27.2349 14.7449 27.3329 14.0561C27.5599 12.4816 27.7585 10.9045 27.8797 9.31963C27.939 8.5272 27.9829 7.73477 28.0087 6.94234C28.019 6.59015 28.019 6.23536 28.0293 5.88317C28.0371 5.64234 28.0499 5.4015 28.0396 5.16325C28.0216 4.71525 27.921 4.22839 27.5264 3.95907C27.2917 3.79851 26.995 3.73377 26.7139 3.75708C26.4121 3.78038 26.1336 3.89174 25.8421 3.96684C25.7957 3.97979 25.7519 3.99014 25.7054 4.0005C25.6951 3.99273 25.6796 3.99014 25.659 3.99273C25.6435 3.99532 25.6306 4.0005 25.6152 4.00568C25.5816 4.01604 25.5481 4.0264 25.5146 4.03676C25.5017 4.03676 25.4914 4.03935 25.4785 4.04194C25.4217 4.05489 25.365 4.06783 25.3082 4.08078C25.3031 4.08855 25.2953 4.09373 25.2928 4.1015C25.0323 4.17142 24.7666 4.2258 24.5009 4.275C24.1141 4.34492 23.7323 4.4252 23.3506 4.51843C22.5304 4.72042 21.7076 4.90429 20.8823 5.08038C19.1955 5.44034 17.5087 5.79771 15.8219 6.15249C14.1273 6.50987 12.4328 6.86465 10.7357 7.21166C9.06175 7.55608 7.37495 7.85907 5.70877 8.2527C4.88858 8.44692 4.07355 8.65668 3.25078 8.83796C2.851 8.926 2.45122 9.00887 2.05402 9.11505C1.65682 9.22123 1.26221 9.31445 0.859849 9.39473C0.782473 9.41027 0.681883 9.40509 0.601928 9.43099C0.601928 9.42581 0.599343 9.42062 0.596764 9.41803C0.568393 9.32222 0.542606 9.22381 0.521973 9.12282C0.777315 9.15907 1.04555 9.07362 1.28284 8.99334C1.60266 8.88716 1.90959 8.74732 2.23715 8.67222C3.20694 8.44433 4.17672 8.2268 5.15166 8.01445C7.06802 7.59752 8.9818 7.16504 10.9033 6.77142C11.8679 6.57461 12.8403 6.40369 13.7998 6.1758C14.7438 5.95051 15.6774 5.68377 16.6189 5.44811C17.5577 5.21504 18.5068 5.02341 19.4534 4.82919C20.4026 4.63237 21.3491 4.41485 22.2983 4.2258C23.232 4.03935 24.1682 3.86066 25.0864 3.60947C25.9917 3.36086 26.9125 3.18994 27.8256 2.98536C27.8849 2.96206 27.9416 2.93875 27.9984 2.91026C28.1866 2.81704 28.3698 2.71086 28.5581 2.6254C27.6502 2.85329 26.7268 3.01644 25.8163 3.23397C25.3572 3.34274 24.9059 3.4774 24.4494 3.58616C23.9851 3.69752 23.5208 3.79592 23.0514 3.89174C22.1126 4.08337 21.1763 4.28277 20.2375 4.48736C19.3012 4.69194 18.3598 4.8758 17.4262 5.08815C16.4796 5.30309 15.5459 5.57242 14.6071 5.81325C13.6708 6.05409 12.7294 6.24831 11.7828 6.43477C9.85873 6.81545 7.94495 7.24274 6.02859 7.66485C5.07686 7.87461 4.12256 8.08178 3.17083 8.3019C2.75815 8.39772 2.32742 8.47022 1.92506 8.60747C1.60008 8.71883 1.288 8.86644 0.952697 8.93895C0.831474 8.96484 0.70251 8.98556 0.578708 8.96485C0.712827 8.66186 1.07908 8.44433 1.33442 8.27082C1.70067 8.01963 2.05918 7.75807 2.41769 7.49911C3.31784 6.84652 4.2283 6.20688 5.1594 5.59572C6.06728 5.00011 6.99581 4.43297 7.93722 3.89174C8.88895 3.34532 9.85873 2.83257 10.8182 2.29652C11.6384 1.83815 12.4586 1.37978 13.3046 0.973209C13.32 0.973209 13.3355 0.96803 13.351 0.965441C14.0396 0.869624 14.736 0.83596 15.4298 0.812653C16.8071 0.766039 18.1819 0.812652 19.5566 0.885162C22.2364 1.02759 24.9343 1.23994 27.5393 1.92361C27.8746 2.01166 28.2124 2.09971 28.5374 2.21883C28.6973 2.2758 28.8624 2.34054 29.0043 2.43377C29.0094 2.43636 29.0146 2.44154 29.0197 2.44672C29.0275 2.44931 29.0378 2.4519 29.0455 2.45708C29.1384 2.49851 29.208 2.58397 29.1951 2.69273L29.2003 2.67979Z" fill="#FEEB87"/>
<g style="mix-blend-mode:multiply" opacity="0.53">
<path d="M2.19819 21.5928C2.15434 21.6653 2.32457 21.6368 2.36841 21.6343C2.99 21.6265 3.61417 21.5048 4.23061 21.4297C4.97858 21.3364 5.72398 21.2354 6.46679 21.1137C7.21219 20.992 7.94984 20.8289 8.69266 20.689C9.43547 20.5518 10.1834 20.4508 10.934 20.3731C12.4274 20.2177 13.9259 20.1582 15.4244 20.0882C16.9436 20.0183 18.4576 19.9225 19.969 19.749C20.7273 19.6635 21.4856 19.5651 22.2439 19.4693C22.9893 19.3735 23.7398 19.257 24.4904 19.2181C24.5213 19.2181 24.5368 19.2285 24.5419 19.2466C24.7766 19.1637 25.0217 19.1197 25.2667 19.0653C25.2564 19.0239 25.2977 18.9592 25.3467 18.954C25.4447 18.941 25.5427 18.9229 25.6355 18.8918C25.994 18.7727 26.2288 18.4594 26.3783 18.1279C26.5537 17.7394 26.6466 17.3147 26.7162 16.8952C26.7859 16.4783 26.8349 16.0562 26.8993 15.6392C27.0154 14.8831 27.1315 14.1269 27.2372 13.3681C27.4513 11.8558 27.6473 10.3356 27.7531 8.81034C27.8047 8.05416 27.8408 7.29799 27.8459 6.53922C27.8459 6.25695 27.8459 5.97209 27.8459 5.68982C27.8459 5.45675 27.8433 5.22369 27.8072 4.99321C27.7376 4.53225 27.5338 4.12827 27.0567 3.99361C26.5563 3.85117 26.0869 4.11791 25.5943 4.16193C25.4447 4.22409 25.2925 4.27329 25.1377 4.31213C24.7638 4.40795 24.382 4.46233 24.0029 4.53484C23.6108 4.61253 23.224 4.71612 22.8345 4.80935C22.0014 5.00616 21.1657 5.18743 20.3301 5.36353C18.651 5.71831 16.9745 6.07568 15.2955 6.42787C13.6086 6.78265 11.9218 7.13225 10.2324 7.47667C8.56112 7.81851 6.88204 8.12668 5.22361 8.52548C4.406 8.7223 3.58838 8.92428 2.76303 9.0952C2.36583 9.17807 1.97379 9.28683 1.57917 9.38524C1.39347 9.43185 1.20261 9.4707 1.01175 9.49142C0.921477 9.50177 0.828626 9.51731 0.738354 9.51731C0.712562 9.51731 0.676446 9.50955 0.642916 9.50955C0.637758 9.51473 0.6326 9.52249 0.627441 9.52508C0.740927 9.8954 0.869889 10.258 0.926631 10.6438C1.02722 11.3611 1.06591 12.0862 1.1046 12.8087C1.34962 12.4773 1.70814 12.2572 2.1466 12.3323C2.55412 12.4022 2.90231 12.7103 3.11897 13.0496C3.37947 13.4562 3.46974 13.9327 3.37689 14.4066C3.28146 14.8908 3.01838 15.3233 2.62376 15.6159C2.43548 15.7558 2.2214 15.8645 1.997 15.9344C1.80872 15.994 1.62044 16.0199 1.427 16.0329C1.51985 16.1882 1.58433 16.3695 1.6385 16.5378C1.7133 16.7683 1.75972 17.0091 1.79841 17.25C1.86805 17.698 1.89899 18.1512 1.93252 18.6044C1.96863 19.0964 2.04086 19.5833 2.07439 20.0753C2.10792 20.5595 2.1466 21.0412 2.15434 21.5255C2.15434 21.541 2.15434 21.5566 2.15434 21.5747C2.15434 21.5747 2.15692 21.5747 2.1595 21.5721C2.18013 21.5566 2.21108 21.5721 2.19561 21.598L2.19819 21.5928Z" fill="#FFD96E"/>
</g>
<path d="M29.0504 2.44438C29.0504 2.44438 29.0324 2.4392 29.0246 2.43402C29.0195 2.43143 29.0143 2.42626 29.0091 2.42108C28.8673 2.32526 28.7022 2.26311 28.5423 2.20614C28.2173 2.08701 27.8794 1.99896 27.5441 1.91092C24.9391 1.22725 22.2413 1.0149 19.5615 0.872467C18.1867 0.799957 16.812 0.753344 15.4347 0.799957C14.7409 0.823264 14.0445 0.859518 13.3559 0.952745C13.3404 0.952745 13.3249 0.957928 13.3095 0.960518C12.4635 1.36709 11.6433 1.82546 10.8231 2.28383C9.86361 2.81988 8.89383 3.33263 7.9421 3.87904C7.00069 4.42028 6.07217 4.98482 5.16429 5.58303C4.23577 6.19418 3.32531 6.83383 2.42258 7.48642C2.06149 7.74797 1.70298 8.00694 1.33931 8.25813C1.08396 8.43423 0.717718 8.65176 0.583599 8.95216C0.707401 8.97287 0.833778 8.95215 0.95758 8.92626C1.29288 8.85116 1.60755 8.70355 1.92995 8.59478C2.33231 8.45753 2.76303 8.38502 3.17571 8.28921C4.12744 8.07168 5.07917 7.86191 6.03348 7.65215C7.94984 7.23004 9.86362 6.80016 11.7877 6.42207C12.7343 6.23562 13.6757 6.04139 14.612 5.80056C15.5534 5.55972 16.4845 5.2904 17.431 5.07546C18.3647 4.86311 19.3061 4.67924 20.2424 4.47466C21.1786 4.27008 22.1149 4.07068 23.0563 3.87904C23.5231 3.78323 23.99 3.68482 24.4542 3.57347C24.9108 3.46211 25.3647 3.33004 25.8212 3.22128C26.7317 3.00375 27.655 2.8406 28.5629 2.61271C28.3721 2.70076 28.189 2.80434 28.0032 2.89757C27.9465 2.92606 27.8898 2.94936 27.8304 2.97267C26.9174 3.17725 25.9966 3.34817 25.0913 3.59677C24.1731 3.84797 23.2369 4.02924 22.3032 4.21311C21.3514 4.40215 20.4075 4.61968 19.4583 4.8165C18.5117 5.01331 17.5626 5.20235 16.6237 5.43542C15.6823 5.67108 14.7487 5.93781 13.8047 6.16311C12.8452 6.391 11.8754 6.56191 10.9082 6.75873C8.98668 7.14976 7.0729 7.58482 5.15654 8.00175C4.18418 8.2141 3.21182 8.43164 2.24203 8.65952C1.91447 8.73721 1.60754 8.87446 1.28772 8.98064C1.05043 9.06092 0.782198 9.14637 0.526855 9.11012C0.547489 9.20853 0.573284 9.30694 0.601655 9.40534C0.601655 9.41052 0.604231 9.4157 0.606811 9.41829C0.686766 9.39239 0.787356 9.39757 0.864732 9.38204C1.26709 9.29917 1.66171 9.20853 2.05891 9.10235C2.45611 8.99618 2.85588 8.91331 3.25566 8.82526C4.07843 8.64398 4.89347 8.43423 5.71366 8.24C7.37725 7.84638 9.06406 7.54338 10.7406 7.19896C12.4377 6.84936 14.1322 6.49717 15.8268 6.1398C17.5136 5.78502 19.2004 5.42506 20.8872 5.06769C21.7125 4.8916 22.5353 4.70773 23.3555 4.50574C23.7372 4.41251 24.1189 4.33223 24.5058 4.26231C24.7715 4.21311 25.0372 4.15872 25.2977 4.0888C25.3002 4.08103 25.3054 4.07327 25.3131 4.06809C25.3699 4.05514 25.4266 4.04219 25.4834 4.02924C25.4963 4.02924 25.5066 4.02665 25.5195 4.02406C25.553 4.0137 25.5865 4.00335 25.6201 3.99299C25.6355 3.9904 25.6484 3.98522 25.6639 3.98004C25.6845 3.98004 25.7 3.98004 25.7103 3.98781C25.7567 3.97745 25.8006 3.96709 25.847 3.95414C26.1385 3.87904 26.417 3.76769 26.7188 3.74438C26.9999 3.72367 27.2965 3.78841 27.5312 3.94638C27.9259 4.2157 28.0265 4.70255 28.0445 5.15056C28.0548 5.39139 28.0419 5.63223 28.0342 5.87048C28.0213 6.22267 28.0239 6.57745 28.0136 6.92965C27.9878 7.72208 27.9465 8.5145 27.8846 9.30694C27.7634 10.8918 27.5648 12.4689 27.3378 14.0434C27.2398 14.7296 27.1237 15.4159 27.0309 16.1047C26.9741 16.5217 26.9226 16.9386 26.8297 17.3478C26.6853 17.9822 26.3758 18.7824 25.7361 19.0155C25.7361 19.0388 25.7206 19.0595 25.6923 19.0699C25.228 19.2227 24.7276 19.2356 24.2969 19.4842C24.2324 19.5205 24.1757 19.435 24.217 19.3884C24.1035 19.4065 23.9926 19.4221 23.8791 19.4376C22.3212 19.6448 20.7608 19.839 19.1978 19.9996C17.6503 20.1575 16.0976 20.2249 14.5475 20.2948C12.987 20.3673 11.424 20.4502 9.87651 20.6599C9.10275 20.7661 8.34446 20.9241 7.57843 21.0717C6.81756 21.2193 6.05153 21.341 5.2855 21.4472C4.89862 21.5016 4.50917 21.5508 4.12228 21.5974C3.74572 21.644 3.36915 21.701 2.99 21.7398C2.76045 21.7631 2.51801 21.7864 2.28588 21.7657C2.24719 21.7631 2.2085 21.7502 2.17755 21.732C2.20334 21.9988 2.28588 22.2551 2.57217 22.3406C2.59281 22.3458 2.60313 22.3561 2.60828 22.3691C2.75272 22.4105 2.91779 22.4028 3.06222 22.3795C3.30209 22.3432 3.53422 22.281 3.76893 22.2241C4.07844 22.1464 4.39568 22.0998 4.70776 22.0428C5.4351 21.9107 6.16502 21.789 6.89752 21.6802C8.37025 21.4627 9.8533 21.3255 11.3364 21.1805C14.3618 20.8852 17.3898 20.6263 20.4178 20.3725C21.9215 20.2456 23.4277 20.1446 24.9262 19.9607C25.5014 19.8908 26.1075 19.8804 26.6543 19.6681C26.8942 19.5749 27.1083 19.4428 27.2604 19.233C27.3971 19.0466 27.4874 18.8316 27.557 18.6115C27.7066 18.1428 27.7556 17.6456 27.8098 17.1587C27.8794 16.5165 27.9723 15.8794 28.0471 15.2398C28.2225 13.7456 28.3618 12.2488 28.5114 10.752C28.6609 9.24996 28.8157 7.74797 28.8957 6.2408C28.9369 5.49757 28.9576 4.75693 28.9472 4.01371C28.9447 3.72108 28.9214 3.39219 29.0169 3.10992C29.0324 3.06072 29.0607 2.99598 29.0891 2.92606C29.1046 2.90016 29.12 2.87426 29.1329 2.84837C29.1639 2.79139 29.1974 2.72924 29.2052 2.6645C29.2181 2.55573 29.1484 2.47287 29.0556 2.42884L29.0504 2.44438Z" fill="#FEEB87"/>
<path d="M20.0286 4.39179C19.946 4.39179 19.9486 4.26749 20.0286 4.2649C20.2297 4.26231 20.4283 4.25454 20.6295 4.2416C21.0757 4.2157 21.5193 4.16909 21.9604 4.11211C22.3241 4.03442 22.6877 3.95932 23.054 3.88422C23.5208 3.78841 23.9877 3.69 24.4519 3.57865C24.9084 3.46729 25.3624 3.33522 25.8189 3.22646C26.4611 3.07367 27.1085 2.94677 27.7533 2.80693C27.7636 2.7888 27.7791 2.77586 27.8049 2.77327C27.8591 2.77068 27.9158 2.76291 27.97 2.75773C28.1686 2.7137 28.3646 2.66709 28.5606 2.61789C28.5013 2.64378 28.4445 2.67227 28.3878 2.70335C28.6509 2.65932 28.9114 2.60494 29.1745 2.55056C29.1487 2.50394 29.1048 2.46769 29.0532 2.44438C29.0455 2.4392 29.0352 2.4392 29.0274 2.43402C29.0223 2.43143 29.0171 2.42626 29.012 2.42108C28.8701 2.32526 28.705 2.26311 28.5451 2.20614C28.2202 2.08701 27.8823 1.99896 27.547 1.91092C24.942 1.22725 22.2441 1.0149 19.5643 0.872467C18.1896 0.799957 16.8149 0.753344 15.4376 0.799957C14.7437 0.823264 14.0474 0.859518 13.3587 0.952745C13.3432 0.952745 13.3278 0.957928 13.3123 0.960518C12.4663 1.36709 11.6461 1.82546 10.8259 2.28383C9.86644 2.81988 8.89666 3.33263 7.94493 3.87904C7.00352 4.42028 6.07499 4.98482 5.16711 5.58303C4.23859 6.19418 3.32813 6.83383 2.4254 7.48642C2.06431 7.74797 1.7058 8.00694 1.34213 8.25813C1.08679 8.43423 0.720545 8.65176 0.586426 8.95216C0.710228 8.97287 0.836605 8.95215 0.960407 8.92626C1.29571 8.85116 1.61037 8.70355 1.93277 8.59478C2.33513 8.45753 2.76586 8.38502 3.17854 8.28921C4.13027 8.07168 5.08199 7.86191 6.0363 7.65215C7.95266 7.23004 9.86644 6.80016 11.7905 6.42207C12.7371 6.23562 13.6785 6.04139 14.6148 5.80056C15.5562 5.55972 16.4873 5.2904 17.4339 5.07546C18.3675 4.86311 19.309 4.67924 20.2452 4.47466C20.4361 4.43323 20.6295 4.39179 20.8204 4.35036C20.5573 4.36849 20.2968 4.38143 20.0311 4.38661L20.0286 4.39179Z" fill="#FEEB87"/>
<g style="mix-blend-mode:multiply">
<path d="M28.0524 2.87743C28.0343 2.8852 28.0163 2.89556 28.0008 2.90333C27.944 2.93182 27.8873 2.95512 27.828 2.97843C26.9149 3.18301 25.9942 3.35393 25.0889 3.60253C25.0837 3.60253 25.076 3.60512 25.0708 3.60771C25.1714 3.59217 25.272 3.57663 25.37 3.5611C25.762 3.50154 26.1566 3.44715 26.5513 3.40572C26.7499 3.385 26.9511 3.36687 27.1522 3.35392C27.3018 3.34357 27.4514 3.32026 27.601 3.30472C27.8254 3.284 28.073 3.284 28.2716 3.4109C28.4883 3.55333 28.5966 3.8097 28.6482 4.05572C28.772 4.6617 28.6688 5.2858 28.6714 5.89696C28.6765 6.72564 28.6688 7.55433 28.6275 8.38301C28.5476 10.03 28.3877 11.6719 28.2407 13.3163C28.2174 13.5752 28.1942 13.8342 28.1736 14.0906C28.2922 12.9822 28.398 11.8739 28.5089 10.7655C28.6585 9.26349 28.8132 7.7615 28.8932 6.25432C28.9345 5.5111 28.9551 4.77046 28.9448 4.02723C28.9422 3.7346 28.919 3.40572 29.0144 3.12345C29.0299 3.07424 29.0583 3.0095 29.0866 2.93958C29.1021 2.91369 29.1176 2.88779 29.1305 2.86189C29.1614 2.80492 29.195 2.74277 29.2027 2.67803C29.2027 2.67803 29.2027 2.67544 29.2027 2.67285C28.821 2.75313 28.4418 2.83341 28.055 2.87484L28.0524 2.87743Z" fill="#FEEB87"/>
</g>
<g style="mix-blend-mode:multiply">
<path d="M2.19805 21.5917C2.1542 21.6642 2.32443 21.6357 2.36827 21.6332C2.98986 21.6254 3.61403 21.5037 4.23047 21.4286C4.97844 21.3353 5.72384 21.2344 6.46665 21.1126C7.21204 20.9909 7.9497 20.8278 8.69252 20.6879C9.43533 20.5507 10.1833 20.4497 10.9339 20.372C12.3189 20.2296 13.7091 20.1648 15.1019 20.1001C14.7227 20.0923 14.341 20.0897 13.9619 20.1001C12.7161 20.1312 11.4703 20.2399 10.2297 20.3513C9.01492 20.46 7.80269 20.5921 6.59046 20.7164C6.01013 20.776 5.42465 20.8226 4.84175 20.8226C4.55288 20.8226 4.264 20.8096 3.97771 20.7786C3.75074 20.7553 3.51603 20.732 3.30195 20.6439C2.96924 20.5093 2.7629 20.2348 2.65457 19.8981C2.58751 19.6961 2.55914 19.4863 2.52045 19.2766C2.46887 18.9943 2.40954 18.712 2.35538 18.4298C2.30122 18.1449 2.24963 17.86 2.20836 17.5726C2.17225 17.3033 2.13099 17.0236 2.13873 16.7491C2.14388 16.5808 2.19289 16.4176 2.31669 16.3037C2.44307 16.1871 2.61072 16.1276 2.76289 16.0602C3.11367 15.9049 3.41028 15.6796 3.63209 15.3662C3.83069 15.0814 3.95708 14.7525 4.01124 14.4106C4.11699 13.727 3.91323 12.9915 3.4206 12.4969C3.13946 12.2146 2.78095 12.0152 2.38375 11.9738C2.18257 11.9505 1.97366 11.9531 1.77764 11.8987C1.57904 11.8443 1.42686 11.7304 1.31854 11.5569C1.20247 11.3704 1.14831 11.1503 1.10188 10.9379C1.07609 10.8214 1.05287 10.7023 1.0245 10.5857C0.993552 10.4563 0.947126 10.332 0.903279 10.2051C0.825903 9.97459 0.756267 9.74411 0.689208 9.51104C0.676312 9.51104 0.660833 9.50845 0.645357 9.50586C0.640199 9.51104 0.635041 9.51881 0.629883 9.5214C0.743368 9.89172 0.87233 10.2543 0.929073 10.6401C1.02966 11.3575 1.06835 12.0826 1.10704 12.8051C1.35206 12.4736 1.71058 12.2535 2.14904 12.3286C2.55656 12.3985 2.90475 12.7067 3.12141 13.0459C3.38191 13.4525 3.47218 13.929 3.37933 14.4029C3.2839 14.8871 3.02081 15.3196 2.62619 15.6122C2.43791 15.7521 2.22384 15.8608 1.99945 15.9308C1.81116 15.9903 1.62288 16.0162 1.42944 16.0292C1.52229 16.1845 1.58678 16.3658 1.64094 16.5342C1.71574 16.7646 1.76216 17.0055 1.80085 17.2463C1.87049 17.6943 1.90144 18.1475 1.93497 18.6007C1.97107 19.0927 2.0433 19.5796 2.07683 20.0716C2.11036 20.5559 2.14904 21.0375 2.15678 21.5218C2.15678 21.5373 2.15678 21.5529 2.15678 21.571C2.15678 21.571 2.15936 21.571 2.16194 21.5684C2.18257 21.5529 2.21353 21.5684 2.19805 21.5943V21.5917Z" fill="#FFD96E"/>
</g>
<g style="mix-blend-mode:multiply">
<path d="M23.291 4.02441C22.9609 4.09174 22.6307 4.15649 22.298 4.22382C22.2413 4.23418 22.1871 4.24713 22.1304 4.25748C22.5044 4.20051 22.8758 4.12541 23.2446 4.03477C23.2601 4.03219 23.2755 4.027 23.291 4.02441Z" fill="#FFD96E"/>
</g>
<g style="mix-blend-mode:multiply">
<path d="M20.4722 1.00507C21.6535 1.15268 22.8244 1.38315 23.9722 1.6965C24.2043 1.75865 24.4416 1.82081 24.6557 1.93216C24.7924 2.00208 24.9368 2.10048 25.0039 2.2455C25.1741 2.61841 24.6866 2.94989 24.4235 3.10268C23.7865 3.47041 23.103 3.74491 22.4221 4.01941C22.6336 3.97539 22.8425 3.93136 23.054 3.88734C23.5208 3.79152 23.9877 3.69312 24.4519 3.58176C24.9084 3.47041 25.3624 3.33833 25.8189 3.22957C26.3012 3.11563 26.7861 3.01463 27.271 2.91363C27.8152 2.75825 28.3517 2.57957 28.8624 2.34391C28.7592 2.29212 28.6483 2.25068 28.54 2.20925C28.215 2.09013 27.8771 2.00208 27.5418 1.91403C24.9368 1.23037 22.2389 1.01802 19.5591 0.875586C19.0227 0.847099 18.4862 0.823792 17.9497 0.805664C18.7931 0.841919 19.6339 0.89889 20.4696 1.00248L20.4722 1.00507Z" fill="#FFD96E"/>
</g>
<path d="M6.06192 17.259C5.72404 17.1166 5.42743 16.8576 5.28815 16.5106C5.13598 16.1325 5.18498 15.7026 5.32684 15.3271C5.37326 15.2054 5.43001 15.0915 5.49965 14.9853C5.77562 14.6305 6.15735 14.4052 6.60097 14.3353C6.75572 14.312 6.91306 14.3068 7.06781 14.3224C7.0807 14.3224 7.09361 14.3249 7.1065 14.3275C7.1194 14.3275 7.13229 14.3301 7.14519 14.3327C7.2432 14.3483 7.33863 14.369 7.43406 14.3949C7.56818 14.4363 7.69972 14.4907 7.81836 14.5632C8.53538 14.9905 8.63339 16.003 8.18977 16.666C7.72809 17.3548 6.80731 17.5672 6.05933 17.2564L6.06192 17.259Z" fill="#FBBC37"/>
<g style="mix-blend-mode:multiply" opacity="0.48">
<path d="M5.58222 16.9441C5.7086 17.0011 5.84271 17.0425 5.98199 17.0632C6.22702 17.0969 6.47204 17.071 6.70675 16.9959C6.44625 16.9829 6.19606 16.9182 5.96393 16.7732C5.91493 16.7421 5.9304 16.6515 5.99488 16.6541C6.33276 16.6748 6.66033 16.5764 6.93372 16.377C7.36187 16.061 7.65332 15.5068 7.63527 14.9708C7.62753 14.7688 7.57079 14.5642 7.44441 14.4062C7.44183 14.4062 7.43925 14.4062 7.43667 14.4037C7.34124 14.3778 7.2458 14.357 7.14779 14.3415C7.1349 14.3415 7.122 14.3363 7.10911 14.3363C7.09621 14.3363 7.08332 14.3337 7.07042 14.3311C6.91309 14.3156 6.75576 14.3208 6.60358 14.3441C6.15996 14.414 5.77824 14.6393 5.50226 14.9941C5.43262 15.1003 5.37588 15.2142 5.32945 15.3359C5.19017 15.7088 5.13859 16.1413 5.29076 16.5194C5.35782 16.6851 5.46099 16.8276 5.58479 16.9519L5.58222 16.9441Z" fill="#FBBC37"/>
</g>
<path d="M13.3558 12.0258C13.0927 11.9144 12.8606 11.7124 12.7522 11.4431C12.6336 11.1479 12.6723 10.8112 12.7832 10.5212C12.8193 10.428 12.8631 10.3373 12.9173 10.2545C13.134 9.97736 13.4306 9.80127 13.7762 9.74689C13.8948 9.72876 14.0186 9.72617 14.1424 9.73653C14.1528 9.73653 14.1631 9.73652 14.1734 9.7417C14.1837 9.7417 14.194 9.7443 14.2043 9.74689C14.2791 9.75984 14.3539 9.77537 14.4287 9.79608C14.5345 9.82716 14.6351 9.87118 14.7305 9.92557C15.2902 10.257 15.3676 11.0495 15.0219 11.5648C14.6609 12.1035 13.9438 12.2692 13.3584 12.0258H13.3558Z" fill="#FBBC37"/>
<g style="mix-blend-mode:multiply" opacity="0.48">
<path d="M12.9819 11.7803C13.0799 11.8243 13.1857 11.8579 13.294 11.8735C13.4849 11.8994 13.6757 11.8787 13.8589 11.8217C13.6551 11.8113 13.4591 11.7595 13.2785 11.6482C13.2399 11.6249 13.2527 11.5524 13.3043 11.555C13.5674 11.5705 13.8228 11.4954 14.0368 11.3374C14.3721 11.0914 14.5991 10.6589 14.5836 10.2394C14.5785 10.0815 14.532 9.92348 14.434 9.79918C14.434 9.79918 14.4289 9.79918 14.4263 9.79918C14.3515 9.77846 14.2767 9.76292 14.2019 9.74997C14.1916 9.74997 14.1813 9.74739 14.1709 9.7448C14.1606 9.7448 14.1503 9.7422 14.14 9.73961C14.0188 9.72667 13.895 9.73185 13.7737 9.74997C13.4281 9.80436 13.1315 9.98045 12.9149 10.2575C12.8607 10.3404 12.8143 10.4285 12.7808 10.5243C12.6698 10.8169 12.6312 11.151 12.7498 11.4462C12.8014 11.5757 12.8813 11.687 12.9793 11.7828L12.9819 11.7803Z" fill="#FBBC37"/>
</g>
<path d="M16.9153 19.3316C16.7837 19.2772 16.6677 19.1762 16.6135 19.039C16.5542 18.8914 16.5748 18.723 16.629 18.578C16.647 18.5314 16.6703 18.4874 16.696 18.446C16.8044 18.3087 16.9514 18.2181 17.1268 18.1922C17.1861 18.1818 17.248 18.1818 17.3099 18.187C17.3151 18.187 17.3202 18.187 17.3254 18.187C17.3305 18.187 17.3357 18.187 17.3409 18.187C17.3795 18.1922 17.4157 18.2025 17.4543 18.2129C17.5059 18.2284 17.5575 18.2491 17.6039 18.2776C17.8825 18.4434 17.9212 18.8396 17.7484 19.0985C17.5678 19.3679 17.2093 19.4507 16.9179 19.329L16.9153 19.3316Z" fill="#FBBC37"/>
<g style="mix-blend-mode:multiply" opacity="0.48">
<path d="M16.7296 19.2077C16.7786 19.231 16.8302 19.2465 16.8869 19.2543C16.9823 19.2672 17.0778 19.2543 17.168 19.2284C17.0675 19.2232 16.9694 19.1973 16.8792 19.1403C16.8585 19.1274 16.8663 19.0937 16.8921 19.0937C17.0236 19.1015 17.1526 19.0626 17.2583 18.9849C17.426 18.8632 17.5394 18.6457 17.5317 18.4359C17.5291 18.3557 17.5059 18.278 17.4569 18.2158C17.4569 18.2158 17.4569 18.2158 17.4543 18.2158C17.4182 18.2055 17.3795 18.1977 17.3409 18.1899C17.3357 18.1899 17.3305 18.1899 17.3254 18.1899C17.3202 18.1899 17.3151 18.1899 17.3099 18.1899C17.248 18.1847 17.1861 18.1847 17.1268 18.1951C16.954 18.221 16.8044 18.3116 16.696 18.4489C16.6703 18.4903 16.647 18.5343 16.629 18.581C16.5748 18.726 16.5542 18.8943 16.6135 19.0419C16.6393 19.1067 16.6806 19.1636 16.7296 19.2102V19.2077Z" fill="#FBBC37"/>
</g>
<path d="M8.07658 11.3683C7.97857 11.3269 7.89088 11.2518 7.84961 11.1508C7.80576 11.0394 7.81866 10.9151 7.85993 10.8064C7.87282 10.7701 7.89088 10.739 7.91152 10.7079C7.99147 10.6044 8.10238 10.5396 8.23134 10.5189C8.27518 10.5111 8.32161 10.5111 8.36803 10.5163C8.37319 10.5163 8.37577 10.5163 8.38093 10.5163C8.38351 10.5163 8.38867 10.5163 8.39125 10.5163C8.41962 10.5215 8.44799 10.5267 8.47636 10.5344C8.51505 10.5474 8.55374 10.5629 8.58985 10.5836C8.79877 10.7079 8.82713 11.0032 8.69817 11.1974C8.56405 11.3994 8.29581 11.4615 8.07658 11.3683Z" fill="#FBBC37"/>
<g style="mix-blend-mode:multiply" opacity="0.48">
<path d="M7.93727 11.2753C7.97338 11.2934 8.01206 11.3038 8.05333 11.3089C8.12555 11.3193 8.19519 11.3089 8.26483 11.2882C8.19003 11.2856 8.11524 11.2649 8.04818 11.2235C8.0327 11.2131 8.03785 11.1872 8.05849 11.1898C8.1565 11.195 8.25194 11.1665 8.33189 11.1095C8.45827 11.0189 8.5408 10.8557 8.53564 10.7004C8.53564 10.6408 8.51759 10.5812 8.4789 10.5346C8.45053 10.5269 8.42216 10.5191 8.39379 10.5165C8.39121 10.5165 8.38605 10.5165 8.38347 10.5165C8.37831 10.5165 8.37574 10.5165 8.37058 10.5165C8.32415 10.5113 8.27773 10.5139 8.23388 10.5191C8.10492 10.5398 7.99401 10.6045 7.91405 10.7081C7.89342 10.7392 7.87795 10.7729 7.86247 10.8065C7.82121 10.9153 7.80573 11.0422 7.85215 11.151C7.87021 11.2002 7.90116 11.2416 7.93727 11.2778V11.2753Z" fill="#FBBC37"/>
</g>
<path d="M13.7147 18.6916C13.529 18.6139 13.3666 18.4715 13.2892 18.2825C13.2066 18.0753 13.2324 17.8396 13.3098 17.6351C13.3356 17.5677 13.3665 17.5056 13.4052 17.4486C13.5574 17.2544 13.7663 17.1301 14.0088 17.0912C14.0939 17.0783 14.179 17.0757 14.2667 17.0835C14.2744 17.0835 14.2822 17.0835 14.2873 17.0861C14.2951 17.0861 14.3028 17.0861 14.308 17.0886C14.3621 17.0964 14.4137 17.1094 14.4653 17.1223C14.5401 17.1456 14.6097 17.1741 14.6768 17.2155C15.0714 17.4486 15.123 18.0054 14.8805 18.3679C14.6278 18.746 14.1223 18.8626 13.7122 18.6916H13.7147Z" fill="#FBBC37"/>
<g style="mix-blend-mode:multiply" opacity="0.48">
<path d="M13.4516 18.5185C13.5213 18.5495 13.5935 18.5729 13.6709 18.5832C13.805 18.6013 13.9391 18.5858 14.0681 18.547C13.9262 18.5418 13.7869 18.5029 13.6605 18.4252C13.6322 18.4071 13.6425 18.3579 13.6786 18.3605C13.8643 18.3709 14.0423 18.3191 14.1944 18.2077C14.4292 18.0342 14.5891 17.7312 14.5788 17.436C14.5762 17.3246 14.5426 17.2133 14.473 17.1252C14.473 17.1252 14.4704 17.1252 14.4678 17.1252C14.4163 17.1097 14.3621 17.0993 14.3105 17.0916C14.3028 17.0916 14.295 17.0916 14.2899 17.089C14.2821 17.089 14.2744 17.089 14.2692 17.0864C14.1841 17.0786 14.0964 17.0812 14.0113 17.0942C13.7663 17.133 13.56 17.2573 13.4078 17.4515C13.3691 17.5085 13.3382 17.5732 13.3124 17.638C13.235 17.8426 13.2066 18.0782 13.2917 18.2854C13.3278 18.376 13.3846 18.4537 13.4542 18.5211L13.4516 18.5185Z" fill="#FBBC37"/>
</g>
<path d="M20.2244 12.5209C20.1315 12.4821 20.049 12.4095 20.0103 12.3163C19.969 12.2127 19.9819 12.0936 20.0206 11.99C20.0335 11.9564 20.049 11.9253 20.0671 11.8968C20.1419 11.7984 20.2476 11.7362 20.3688 11.7181C20.4101 11.7103 20.4539 11.7103 20.4978 11.7155C20.5004 11.7155 20.5055 11.7155 20.5081 11.7155C20.5107 11.7155 20.5158 11.7155 20.5184 11.7155C20.5442 11.7207 20.5726 11.7259 20.5984 11.7337C20.6345 11.744 20.6706 11.7595 20.7041 11.7803C20.9001 11.8968 20.9285 12.1765 20.8073 12.3578C20.6809 12.5468 20.4281 12.6064 20.2218 12.5209H20.2244Z" fill="#FBBC37"/>
<g style="mix-blend-mode:multiply" opacity="0.48">
<path d="M20.0929 12.4321C20.1264 12.4476 20.1651 12.458 20.2038 12.4657C20.2709 12.4761 20.3379 12.4657 20.4024 12.4476C20.3302 12.445 20.2606 12.4269 20.1987 12.3855C20.1858 12.3777 20.1883 12.3518 20.2064 12.3518C20.2993 12.357 20.3895 12.3311 20.4643 12.2741C20.583 12.1886 20.6629 12.0359 20.6578 11.8882C20.6578 11.8313 20.6397 11.7769 20.6062 11.7329C20.5804 11.7251 20.5546 11.7199 20.5262 11.7147C20.5237 11.7147 20.5185 11.7147 20.5159 11.7147C20.5133 11.7147 20.5082 11.7147 20.5056 11.7147C20.4617 11.7096 20.4205 11.7121 20.3766 11.7173C20.2554 11.7355 20.1497 11.7976 20.0749 11.896C20.0568 11.9245 20.0388 11.9556 20.0284 11.9892C19.9897 12.0928 19.9769 12.2094 20.0181 12.3155C20.0362 12.3596 20.0645 12.401 20.0981 12.4347L20.0929 12.4321Z" fill="#FBBC37"/>
</g>
<path d="M20.6007 7.60313C20.531 7.57464 20.4691 7.52026 20.4408 7.45034C20.4098 7.37265 20.4201 7.2846 20.4485 7.20692C20.4588 7.18102 20.4691 7.15771 20.4846 7.137C20.5414 7.06449 20.6187 7.01788 20.7116 7.00234C20.7425 6.99716 20.7761 6.99716 20.807 6.99975C20.8096 6.99975 20.8122 6.99975 20.8147 6.99975C20.8173 6.99975 20.8199 6.99975 20.8225 6.99975C20.8431 7.00234 20.8612 7.00751 20.8818 7.01269C20.9102 7.02046 20.936 7.03341 20.9618 7.04636C21.1088 7.13441 21.1294 7.34158 21.0391 7.47883C20.9437 7.62126 20.7554 7.66529 20.6007 7.60055V7.60313Z" fill="#FBBC37"/>
<g style="mix-blend-mode:multiply" opacity="0.48">
<path d="M20.5029 7.5381C20.5287 7.55105 20.557 7.55882 20.5854 7.56141C20.6344 7.56918 20.686 7.56141 20.735 7.54846C20.6808 7.54846 20.6293 7.53293 20.5828 7.50185C20.5725 7.49667 20.5751 7.47595 20.5906 7.47854C20.6602 7.48372 20.7273 7.46301 20.784 7.42157C20.8717 7.35683 20.931 7.24289 20.9284 7.13153C20.9284 7.0901 20.9155 7.04866 20.8897 7.015C20.8691 7.00982 20.8485 7.00464 20.8278 7.00205C20.8253 7.00205 20.8227 7.00205 20.8201 7.00205C20.8175 7.00205 20.815 7.00205 20.8124 7.00205C20.7814 6.99946 20.7479 7.00204 20.7169 7.00463C20.6267 7.02017 20.5467 7.0642 20.49 7.1393C20.4745 7.16002 20.4642 7.18332 20.4539 7.20922C20.4255 7.28691 20.4152 7.37496 20.4461 7.45265C20.459 7.48631 20.4797 7.51739 20.5054 7.54069L20.5029 7.5381Z" fill="#FBBC37"/>
</g>
<path d="M4.85211 20.4118C4.7051 20.3496 4.57614 20.2383 4.51682 20.0881C4.44976 19.9249 4.47297 19.7385 4.53229 19.5753C4.55293 19.5235 4.57614 19.4743 4.60709 19.4277C4.72574 19.2749 4.8908 19.1765 5.08424 19.1454C5.1513 19.1351 5.21836 19.1325 5.288 19.1403C5.29316 19.1403 5.29832 19.1403 5.30606 19.1403C5.31122 19.1403 5.31638 19.1403 5.32411 19.1403C5.36538 19.148 5.40665 19.1558 5.45049 19.1687C5.50981 19.1869 5.56656 19.2102 5.61814 19.2413C5.92765 19.4251 5.97149 19.8654 5.77805 20.1528C5.57687 20.4506 5.17968 20.5438 4.85469 20.4092L4.85211 20.4118Z" fill="#FBBC37"/>
<g style="mix-blend-mode:multiply" opacity="0.48">
<path d="M4.64317 20.2742C4.69734 20.3001 4.75666 20.3157 4.81598 20.326C4.92173 20.3416 5.02748 20.3286 5.13065 20.2975C5.01716 20.2924 4.90884 20.2639 4.80825 20.2017C4.78761 20.1888 4.79277 20.1499 4.82114 20.1499C4.96815 20.1577 5.11002 20.1163 5.22866 20.0282C5.41436 19.891 5.54074 19.6501 5.53301 19.4196C5.53043 19.3316 5.50463 19.2436 5.45047 19.1736C5.4092 19.1607 5.36535 19.1529 5.32151 19.1451C5.31635 19.1451 5.31119 19.1451 5.30345 19.1451C5.29829 19.1451 5.29313 19.1451 5.28539 19.1451C5.21834 19.1374 5.1487 19.14 5.08164 19.1503C4.8882 19.1814 4.72313 19.2798 4.60449 19.4326C4.57354 19.4792 4.55032 19.5284 4.52969 19.5802C4.46779 19.7408 4.44715 19.9298 4.51421 20.093C4.54258 20.1655 4.58643 20.2276 4.64059 20.2794L4.64317 20.2742Z" fill="#FBBC37"/>
</g>
<path d="M23.3483 9.80398C23.0414 9.67708 22.7732 9.43884 22.6468 9.12549C22.5101 8.78366 22.5539 8.39263 22.6829 8.05338C22.7241 7.94462 22.7757 7.84103 22.8402 7.74521C23.0904 7.4241 23.436 7.21952 23.8384 7.15478C23.9776 7.13406 24.1221 7.12888 24.2614 7.14182C24.2743 7.14182 24.2846 7.14442 24.2975 7.14701C24.3104 7.14701 24.3207 7.14959 24.3336 7.15218C24.4213 7.16513 24.509 7.18585 24.5941 7.20916C24.7153 7.24541 24.8339 7.2972 24.9423 7.36194C25.5922 7.7478 25.6825 8.66713 25.2802 9.26793C24.8597 9.89203 24.0267 10.0862 23.3483 9.80398Z" fill="#FBBC37"/>
<g style="mix-blend-mode:multiply" opacity="0.48">
<path d="M22.915 9.51692C23.0285 9.56872 23.1498 9.60756 23.2787 9.62569C23.5005 9.65677 23.7249 9.63087 23.9338 9.56354C23.6966 9.55318 23.4696 9.49103 23.2607 9.36154C23.2142 9.33306 23.2297 9.25019 23.289 9.25537C23.596 9.27349 23.8926 9.18545 24.1402 9.00417C24.5296 8.71931 24.7927 8.21692 24.7772 7.72748C24.7721 7.54361 24.7179 7.35975 24.6044 7.21473C24.6019 7.21473 24.5993 7.21473 24.5967 7.21473C24.509 7.19142 24.4239 7.17071 24.3362 7.15776C24.3233 7.15776 24.313 7.15517 24.3001 7.15258C24.2872 7.15258 24.2769 7.14999 24.264 7.1474C24.1221 7.13445 23.9803 7.13704 23.841 7.16035C23.4386 7.2225 23.093 7.42967 22.8428 7.75079C22.7809 7.8466 22.7268 7.95019 22.6855 8.05895C22.5591 8.3982 22.5127 8.78924 22.6494 9.13107C22.7087 9.28127 22.8016 9.41075 22.915 9.5221V9.51692Z" fill="#FBBC37"/>
</g>
<path d="M22.2824 18.3469C21.9755 18.2201 21.7072 17.9818 21.5809 17.6685C21.4442 17.3266 21.488 16.9356 21.617 16.5963C21.6582 16.4876 21.7098 16.384 21.7743 16.2882C22.0245 15.9671 22.3701 15.7625 22.7725 15.6977C22.9117 15.677 23.0536 15.6718 23.1954 15.6848C23.2083 15.6848 23.2187 15.6874 23.2316 15.69C23.2444 15.69 23.2548 15.6926 23.2677 15.6951C23.3554 15.7081 23.443 15.7288 23.5282 15.7521C23.6494 15.7884 23.768 15.8402 23.8764 15.9049C24.5263 16.2908 24.6166 17.2101 24.2142 17.8109C23.7938 18.435 22.9607 18.6292 22.2824 18.3469Z" fill="#FBBC37"/>
<g style="mix-blend-mode:multiply" opacity="0.48">
<path d="M21.8467 18.0625C21.9602 18.1143 22.0814 18.1531 22.2104 18.1713C22.4322 18.2023 22.6566 18.1764 22.8655 18.1091C22.6282 18.0987 22.4012 18.0366 22.1923 17.9071C22.1459 17.8786 22.1613 17.7957 22.2207 17.8009C22.5276 17.8191 22.8242 17.731 23.0718 17.5497C23.4613 17.2649 23.7244 16.7625 23.7089 16.273C23.7037 16.0892 23.6496 15.9053 23.5361 15.7603C23.5335 15.7603 23.5309 15.7603 23.5283 15.7577C23.4406 15.7344 23.3555 15.7137 23.2678 15.7007C23.2549 15.7007 23.2446 15.6981 23.2317 15.6955C23.2188 15.6955 23.2085 15.693 23.1956 15.6904C23.0538 15.6774 22.9119 15.68 22.7726 15.7033C22.3703 15.7655 22.0247 15.9726 21.7745 16.2938C21.7126 16.3896 21.6584 16.4932 21.6171 16.6019C21.4908 16.9412 21.4443 17.3322 21.581 17.674C21.6404 17.8242 21.7332 17.9537 21.8467 18.0651V18.0625Z" fill="#FBBC37"/>
</g>
<g style="mix-blend-mode:multiply">
<path d="M0.720167 8.77923C2.01751 7.67863 3.54183 6.89397 5.00424 6.04457C5.8038 5.58102 6.58531 5.08381 7.37712 4.60473C8.21795 4.09975 9.06393 3.60253 9.91765 3.12345C10.3406 2.8852 10.7662 2.65214 11.1944 2.42425C11.5967 2.20931 11.9991 1.98401 12.4221 1.80791C13.2345 1.46608 14.1063 1.28739 14.9755 1.17345C15.886 1.05433 16.8042 0.997355 17.7198 0.940383C18.2537 0.906718 18.7902 0.88341 19.3266 0.862693C18.0293 0.797952 16.7345 0.756519 15.4346 0.803132C14.7408 0.826439 14.0444 0.862693 13.3557 0.95592C13.3403 0.95592 13.3248 0.961099 13.3093 0.963689C12.4633 1.37026 11.6431 1.82863 10.823 2.287C9.86349 2.82305 8.8937 3.3358 7.94197 3.88222C7.00056 4.42345 6.07204 4.988 5.16416 5.5862C4.23564 6.19736 3.32518 6.837 2.42245 7.48959C2.06136 7.75115 1.70285 8.01011 1.33918 8.2613C1.11736 8.41409 0.813019 8.59796 0.647949 8.84139C0.671162 8.82067 0.696954 8.79736 0.720167 8.77664V8.77923Z" fill="#FFD96E"/>
</g>
<g style="mix-blend-mode:multiply">
<path d="M24.0517 18.9633C24.0389 19.0617 24.0208 19.1575 24.0027 19.2534C24.1652 19.2378 24.3277 19.2249 24.4928 19.2171C24.5444 19.2145 24.5521 19.2456 24.5418 19.2818C24.6785 19.2559 24.81 19.2145 24.9313 19.1731C25.0447 19.1342 25.1557 19.0902 25.2666 19.0384C25.2717 18.9996 25.3078 18.9555 25.3491 18.9504C25.3981 18.9452 25.4471 18.9348 25.4961 18.9245C25.7153 18.8079 25.9268 18.6707 26.1177 18.5153C26.128 18.5049 26.1409 18.5024 26.1538 18.5024C26.2441 18.3858 26.3215 18.2563 26.3808 18.1191C26.5562 17.7306 26.649 17.3059 26.7187 16.8864C26.7883 16.4695 26.8373 16.0474 26.9018 15.6304C27.0179 14.8743 27.1339 14.1181 27.2397 13.3593C27.4537 11.847 27.6498 10.3268 27.7555 8.80155C27.8071 8.04537 27.8432 7.2892 27.8484 6.53044C27.8484 6.24816 27.8484 5.9633 27.8484 5.68103C27.8484 5.44797 27.8458 5.2149 27.8097 4.98442C27.74 4.52346 27.5363 4.11948 27.0591 3.98482C26.5587 3.84239 26.0893 4.10912 25.5967 4.15314C25.4471 4.21529 25.2949 4.2645 25.1402 4.30334C24.7662 4.39916 24.3845 4.45354 24.0053 4.52605C23.6133 4.60374 23.2264 4.70733 22.8369 4.80055C22.0039 4.99737 21.1682 5.17864 20.3325 5.35474C18.6535 5.70952 16.977 6.06689 15.2979 6.41908C13.6111 6.77386 11.9243 7.12346 10.2349 7.46789C8.56355 7.80972 6.88449 8.11789 5.22605 8.5167C4.40844 8.71351 3.59082 8.9155 2.76547 9.08641C2.36827 9.16928 1.97623 9.27804 1.58161 9.37645C1.39591 9.42306 1.20505 9.46191 1.01418 9.48263C0.923911 9.49299 0.83106 9.50853 0.740787 9.50853C0.714995 9.50853 0.678887 9.50076 0.645357 9.50076C0.640199 9.50594 0.635041 9.5137 0.629883 9.51629C0.743368 9.88661 0.87233 10.2492 0.929073 10.635C0.998712 11.1271 1.0374 11.6217 1.06835 12.1163C1.08641 11.6812 1.14573 11.2462 1.33401 10.8551C1.46039 10.5936 1.65125 10.3735 1.88854 10.2103C2.21352 9.9902 2.60815 9.89697 2.97955 9.78303C4.83917 9.22107 6.74521 8.83263 8.64351 8.42346C9.60298 8.21629 10.5547 7.99099 11.5168 7.79677C12.4814 7.60254 13.4512 7.43163 14.421 7.2633C16.3038 6.93701 18.1866 6.61848 20.0488 6.19378C21.7459 5.80792 23.4972 5.38581 25.2485 5.48422C25.2846 5.48422 25.3078 5.51271 25.3104 5.54637C25.3439 5.84677 25.3104 6.14458 25.2691 6.44239C25.264 6.47864 25.2227 6.49418 25.1918 6.48641C24.5444 6.33362 23.8635 6.48641 23.3089 6.84378C22.8189 7.16231 22.432 7.64399 22.2669 8.20853C22.1328 8.66689 22.1019 9.18482 22.4165 9.57844C22.6796 9.90992 23.1 10.0757 23.4998 10.1689C23.946 10.2725 24.4103 10.2906 24.8642 10.2647C24.9003 10.2647 24.9235 10.2958 24.9261 10.3269C24.9906 11.1322 24.8178 11.9402 24.694 12.73C24.5573 13.6002 24.5702 14.4858 24.4283 15.3559C24.4206 15.4 24.369 15.4103 24.3355 15.3948C23.6907 15.0892 22.935 15.1255 22.2747 15.3663C21.6969 15.5786 21.1579 15.9619 20.8303 16.4928C20.5131 17.0081 20.4202 17.7177 20.7039 18.2719C20.9773 18.8028 21.666 18.9271 22.2025 18.9633C22.7983 19.0047 23.394 18.9426 23.9847 18.8753C24.0311 18.8701 24.0492 18.9193 24.0466 18.9555L24.0517 18.9633Z" fill="#FFD96E"/>
</g>
<path d="M25.881 13.1785C25.7881 13.1396 25.7056 13.0671 25.6695 12.9739C25.6282 12.8703 25.6411 12.7512 25.6798 12.6502C25.6901 12.6217 25.7056 12.5932 25.7211 12.5673C25.7262 12.5595 25.7314 12.5544 25.7365 12.5466C25.8113 12.456 25.9119 12.3964 26.0306 12.3783C26.0718 12.3705 26.1157 12.3705 26.1595 12.3757C26.1621 12.3757 26.1673 12.3757 26.1699 12.3757C26.1724 12.3757 26.1776 12.3757 26.1802 12.3757C26.206 12.3809 26.2343 12.386 26.2601 12.3938C26.2962 12.4042 26.3323 12.4197 26.3659 12.4404C26.5619 12.557 26.5903 12.8366 26.469 13.0179C26.3427 13.207 26.0899 13.2665 25.8836 13.1811L25.881 13.1785Z" fill="#FEEB87"/>
<g style="mix-blend-mode:multiply" opacity="0.48">
<path d="M25.7179 13.0567C25.7359 13.08 25.7617 13.0981 25.7927 13.1084C25.8133 13.1162 25.8365 13.1214 25.8597 13.124C25.9268 13.1343 25.9938 13.124 26.0583 13.1058C25.9861 13.1033 25.919 13.0851 25.8546 13.0437C25.8417 13.0359 25.8443 13.01 25.8623 13.0126C25.9552 13.0178 26.0454 12.9919 26.1202 12.9375C26.2389 12.8521 26.3188 12.6993 26.3137 12.5517C26.3137 12.5361 26.3137 12.518 26.3085 12.5025C26.2621 12.4584 26.226 12.4248 26.1821 12.3808C26.1795 12.3808 26.1744 12.3808 26.1718 12.3808C26.1692 12.3808 26.1641 12.3808 26.1615 12.3808C26.1176 12.3756 26.0764 12.3782 26.0325 12.3833C25.9139 12.4015 25.8133 12.461 25.7385 12.5517C25.7333 12.5568 25.7282 12.5646 25.723 12.5724C25.7076 12.5983 25.6921 12.6268 25.6818 12.6553C25.6431 12.7588 25.6302 12.8754 25.6714 12.979C25.6843 13.01 25.6998 13.0385 25.7204 13.0618L25.7179 13.0567Z" fill="#FBBC37"/>
</g>
<g style="mix-blend-mode:multiply">
<path d="M9.1082 6.19129C8.91476 5.94527 8.56141 5.98152 8.30349 6.12395C8.19774 6.16021 8.09715 6.21718 8.03783 6.313C7.99914 6.37515 7.98109 6.4632 8.00946 6.53312C8.03783 6.60563 8.09973 6.64965 8.17194 6.67555C8.3138 6.72734 8.48403 6.69627 8.62331 6.65483C8.72648 6.62376 8.81933 6.58491 8.91219 6.53053C8.9844 6.4891 9.0592 6.42694 9.09789 6.35184C9.12368 6.30264 9.14689 6.24049 9.10563 6.1887L9.1082 6.19129Z" fill="#FFD96E"/>
</g>
<g style="mix-blend-mode:multiply">
<path d="M10.1988 5.89943L10.1859 5.86835C10.1833 5.86317 10.1859 5.86835 10.173 5.8554C10.1704 5.85281 10.1652 5.84763 10.1601 5.84245L10.1291 5.82692C10.124 5.82692 10.0466 5.81397 10.1111 5.82433C10.0982 5.82174 10.0853 5.82174 10.0724 5.82433H10.093C10.093 5.82433 10.0595 5.82433 10.0517 5.82433C10.0517 5.82433 10.0517 5.82433 10.0492 5.82433C10.0337 5.82951 10.0182 5.83469 10.0027 5.83987C9.99499 5.84246 9.98726 5.84505 9.97952 5.84764C9.96146 5.8554 9.94599 5.86317 9.92793 5.87353C9.92793 5.87353 9.92278 5.87353 9.92278 5.87612C9.92278 5.87612 9.92277 5.87612 9.92019 5.87612C9.92019 5.87612 9.9202 5.87612 9.91762 5.87612C9.90472 5.88389 9.89183 5.88907 9.87893 5.89684C9.86088 5.90979 9.84282 5.92792 9.8325 5.94604C9.82218 5.96417 9.81445 5.98229 9.81445 6.00301C9.81445 6.02114 9.81703 6.03927 9.82735 6.05481C9.83766 6.07035 9.85314 6.0807 9.8712 6.08329C9.87635 6.08329 9.88409 6.08329 9.88924 6.08588C9.90214 6.08588 9.91246 6.08847 9.92536 6.09106C9.92794 6.09106 9.93052 6.09624 9.93309 6.09624C9.93825 6.09883 9.94341 6.10142 9.94857 6.10401C9.97178 6.11178 9.9821 6.10919 10.0053 6.1066C10.0131 6.1066 10.0182 6.1066 10.0259 6.1066C10.0388 6.10142 10.0517 6.09883 10.0672 6.09365C10.0672 6.09365 10.0672 6.09365 10.0698 6.09365C10.0698 6.09365 10.0724 6.09365 10.0749 6.09365C10.0749 6.09365 10.0801 6.09365 10.0827 6.09106C10.1162 6.07552 10.1214 6.07034 10.142 6.05222C10.1497 6.04445 10.1549 6.04186 10.1601 6.03668L10.1859 6.00301C10.1884 5.99783 10.2013 5.96158 10.2091 5.93309V5.9305L10.2065 5.89684L10.1988 5.89943Z" fill="#FFD96E"/>
<path d="M10.2016 5.93799C10.2016 5.93799 10.1938 5.96906 10.1938 5.97165C10.2223 5.87066 10.2146 5.89655 10.2016 5.93799Z" fill="#FFD96E"/>
</g>
<g style="mix-blend-mode:multiply">
<path d="M4.65338 7.24049C4.65338 7.21978 4.64822 7.20424 4.63532 7.18611C4.61985 7.16539 4.59921 7.14986 4.57342 7.14468C4.55795 7.1395 4.54505 7.13432 4.52957 7.13173C4.49604 7.12396 4.46767 7.12396 4.43414 7.12655C4.39803 7.12914 4.3774 7.13432 4.34129 7.14985C4.32324 7.15762 4.3026 7.16799 4.28713 7.18094C4.28713 7.18094 4.28455 7.18093 4.28197 7.18352C4.26907 7.19388 4.25102 7.20942 4.23812 7.21978C4.20459 7.23791 4.18138 7.2638 4.15816 7.29229C4.13753 7.31818 4.12722 7.34926 4.11432 7.38034C4.10143 7.41141 4.10658 7.46579 4.14269 7.48392C4.17106 7.49687 4.19944 7.50982 4.22781 7.51759C4.24328 7.52794 4.25876 7.53313 4.27681 7.53572C4.29745 7.54089 4.31808 7.54089 4.33613 7.53572C4.36966 7.52795 4.40061 7.50982 4.42641 7.4891C4.43672 7.48392 4.44962 7.48133 4.45994 7.47356C4.48315 7.46061 4.50894 7.44767 4.52957 7.43213C4.55279 7.41659 4.57342 7.39588 4.59663 7.37516C4.61727 7.35185 4.63532 7.32595 4.64564 7.29746C4.65338 7.27675 4.65596 7.25863 4.65338 7.23791V7.24049Z" fill="#FFD96E"/>
</g>
<g style="mix-blend-mode:multiply">
<path d="M18.509 3.76221C18.4497 3.65085 18.3182 3.61978 18.2021 3.61719C18.0422 3.61719 17.8823 3.65862 17.7301 3.713C17.6553 3.7389 17.5857 3.77256 17.5212 3.814C17.418 3.85284 17.3252 3.915 17.2529 4.00045C17.1988 4.06519 17.1523 4.14547 17.1756 4.23093C17.1936 4.30085 17.2633 4.34488 17.3277 4.36818C17.4541 4.41221 17.6063 4.40185 17.7378 4.38631C17.8358 4.37336 17.9313 4.35006 18.0241 4.32157C18.1479 4.28273 18.2743 4.2387 18.3775 4.15842C18.4961 4.06261 18.5916 3.91758 18.5116 3.7648L18.509 3.76221Z" fill="#FFD96E"/>
</g>
<g style="mix-blend-mode:multiply">
<path d="M19.8219 3.63277C19.8244 3.61205 19.8219 3.59393 19.8115 3.5758C19.809 3.56285 19.8012 3.55249 19.7909 3.54472C19.7832 3.53437 19.7729 3.5266 19.76 3.52401C19.7471 3.51624 19.7342 3.51365 19.7213 3.51365C19.7006 3.50847 19.6774 3.50847 19.6542 3.51365C19.6104 3.5266 19.5975 3.52918 19.5614 3.55508C19.5485 3.56544 19.5356 3.57839 19.5227 3.58875C19.5098 3.6017 19.4995 3.61724 19.4891 3.63018C19.4814 3.64572 19.4711 3.65867 19.4685 3.67421C19.4582 3.7001 19.4582 3.72859 19.4633 3.75707L19.4788 3.79333C19.4943 3.81663 19.5175 3.82959 19.5433 3.83736C19.5639 3.84512 19.5872 3.84512 19.6078 3.84253C19.6336 3.84253 19.6568 3.83477 19.6774 3.82441C19.7032 3.81405 19.7239 3.79851 19.7445 3.78038C19.7651 3.76485 19.7832 3.74672 19.7961 3.72341C19.8115 3.69751 19.8219 3.66903 19.8244 3.63795C19.8244 3.63795 19.8244 3.63536 19.8244 3.63277C19.8244 3.63277 19.8244 3.63018 19.8244 3.62759L19.8219 3.63277Z" fill="#FFD96E"/>
</g>
<g style="mix-blend-mode:multiply">
<path d="M24.9522 2.38695C24.8851 2.37918 24.8155 2.38694 24.7458 2.3973C24.6943 2.40507 24.6427 2.42061 24.5937 2.44133C24.5601 2.44133 24.5266 2.44133 24.4957 2.4491C24.3409 2.47758 24.2068 2.57858 24.1165 2.70547C24.0933 2.73914 24.0753 2.80906 24.1088 2.84272C24.1707 2.90746 24.2403 2.93595 24.3306 2.93854C24.408 2.94113 24.4879 2.92818 24.5601 2.90487C24.7072 2.85826 24.8542 2.79093 24.978 2.69511C25.0373 2.6485 25.0915 2.58376 25.0837 2.50348C25.0786 2.42838 25.0167 2.39471 24.9496 2.38953L24.9522 2.38695Z" fill="#FFD96E"/>
</g>
<g style="mix-blend-mode:multiply">
<path d="M14.4264 1.52493C14.4264 1.52493 14.4161 1.50422 14.4109 1.49127C14.4032 1.4835 14.3928 1.47573 14.3851 1.46537C14.3696 1.45501 14.3516 1.44724 14.3335 1.44724C14.3129 1.44206 14.2923 1.44206 14.2716 1.44724C14.251 1.45242 14.2303 1.46019 14.2097 1.46796C14.1994 1.47314 14.1917 1.47832 14.1813 1.48091C14.1762 1.48091 14.171 1.48609 14.1684 1.48868C14.1684 1.48868 14.1633 1.48868 14.1633 1.49127C14.1504 1.49904 14.1298 1.5094 14.1169 1.51717C14.1169 1.51717 14.1117 1.51717 14.1091 1.51717C14.0859 1.52493 14.0756 1.53011 14.0524 1.54565C14.0498 1.54565 14.0472 1.54824 14.0446 1.55083C14.0343 1.5586 14.024 1.56637 14.0163 1.57673C14.0034 1.58967 13.9931 1.60262 13.9879 1.62075C13.9827 1.63111 13.9776 1.63888 13.9776 1.65183C13.975 1.66219 13.9724 1.67255 13.9776 1.68031C13.9776 1.69067 13.9776 1.69844 13.9853 1.7088C13.9905 1.72175 13.9982 1.73469 14.0111 1.74246C14.0137 1.74246 14.0163 1.74505 14.0189 1.74764L14.0317 1.75282C14.0317 1.75282 14.0395 1.76059 14.0421 1.76577C14.055 1.78131 14.0704 1.78908 14.0885 1.79426C14.1169 1.80202 14.1427 1.80202 14.171 1.79426C14.1942 1.78908 14.2123 1.78131 14.2304 1.77095C14.2484 1.76059 14.2665 1.75282 14.2845 1.73987C14.2923 1.7347 14.2974 1.72952 14.3051 1.72693C14.3155 1.72175 14.3232 1.71398 14.3335 1.7088C14.3361 1.7088 14.3413 1.70362 14.3438 1.70362C14.3567 1.69326 14.3696 1.6829 14.3799 1.67255C14.3954 1.65701 14.4083 1.63888 14.4161 1.61816C14.4238 1.60521 14.429 1.59486 14.429 1.57932C14.4341 1.56119 14.4341 1.54306 14.429 1.52235L14.4264 1.52493Z" fill="#FFD96E"/>
</g>
<g style="mix-blend-mode:multiply">
<path d="M13.2506 2.11531C13.2429 2.09977 13.2378 2.08165 13.2274 2.0687C13.2171 2.05575 13.2042 2.04021 13.1913 2.03245C13.1475 2.00137 13.0933 2.00914 13.0443 2.02209C12.9721 2.0428 12.8999 2.06352 12.8302 2.08942C12.7993 2.09978 12.7709 2.11272 12.7425 2.12826C12.6987 2.15157 12.6549 2.17487 12.6162 2.20854C12.5878 2.23185 12.5594 2.25515 12.5388 2.28882C12.5182 2.32248 12.5053 2.36133 12.5104 2.40017C12.5104 2.41312 12.5104 2.42348 12.5182 2.43384C12.5182 2.44161 12.5182 2.45197 12.5182 2.45974C12.5182 2.48304 12.5233 2.50376 12.5388 2.52189C12.5568 2.54778 12.5801 2.56332 12.611 2.57109C12.6291 2.57368 12.6497 2.57627 12.6678 2.57886C12.7271 2.60217 12.7967 2.59181 12.8535 2.5685C12.8638 2.56332 12.8741 2.55814 12.8844 2.55296C12.9334 2.53742 12.9747 2.51671 13.0185 2.48822C13.0572 2.46491 13.0933 2.43384 13.1243 2.40017C13.1501 2.37169 13.1733 2.33543 13.1862 2.29659C13.1887 2.294 13.1913 2.29141 13.1965 2.28623C13.2171 2.26033 13.2403 2.23444 13.2506 2.20077C13.261 2.17229 13.2635 2.13862 13.2506 2.11272V2.11531Z" fill="#FFD96E"/>
</g>
<g style="mix-blend-mode:screen">
<path d="M10.7046 6.10138C10.0908 6.26193 9.46145 6.36552 8.83986 6.49759C8.21569 6.62707 7.59152 6.76951 6.96993 6.91453C5.73964 7.20457 4.51709 7.51791 3.28423 7.80277C2.94893 7.88046 2.60589 7.95297 2.27575 8.05138C1.96109 8.14201 1.70316 8.3207 1.42977 8.49162C1.40913 8.50457 1.39365 8.53823 1.41687 8.55636C1.62578 8.70656 1.89402 8.48385 2.10294 8.42429C2.38665 8.34401 2.68327 8.2948 2.97214 8.22747C3.59373 8.07986 4.2179 7.93743 4.83949 7.78464C6.07752 7.47907 7.31812 7.17608 8.56646 6.91194C9.27058 6.76174 9.98245 6.64779 10.6788 6.46652C10.7794 6.44062 10.8903 6.35516 10.8955 6.24122C10.9006 6.13504 10.7949 6.08066 10.702 6.10397L10.7046 6.10138Z" fill="#FEEB87"/>
</g>
<g style="mix-blend-mode:screen">
<path d="M11.8107 5.86506C11.7797 5.84175 11.7462 5.83398 11.7075 5.83398C11.6972 5.83398 11.6869 5.83398 11.6765 5.83398C11.6508 5.83398 11.6224 5.83399 11.5966 5.83916C11.5888 5.83916 11.5811 5.83916 11.5734 5.84175C11.5734 5.84175 11.5708 5.84175 11.5682 5.84175C11.5605 5.84175 11.5502 5.84693 11.5424 5.84952C11.5166 5.85729 11.4908 5.86765 11.4676 5.88578C11.4444 5.90131 11.4238 5.91944 11.4083 5.94275C11.3928 5.96088 11.3799 5.98159 11.3722 6.0049C11.367 6.01267 11.3593 6.02303 11.3567 6.0308C11.3567 6.04115 11.3516 6.05152 11.3516 6.06187C11.3516 6.07741 11.3541 6.09295 11.3619 6.10849C11.3619 6.10331 11.3567 6.09813 11.3541 6.09295C11.3567 6.10849 11.3619 6.12402 11.3722 6.13697C11.3902 6.16028 11.4135 6.17064 11.4393 6.181C11.465 6.19135 11.4934 6.19653 11.5192 6.19653C11.5398 6.19653 11.5631 6.19654 11.5863 6.19136C11.5863 6.19136 11.5863 6.19136 11.5888 6.19136C11.6327 6.19136 11.674 6.18359 11.7127 6.16287C11.7462 6.14733 11.7771 6.12661 11.8029 6.10072C11.8261 6.07741 11.8442 6.04892 11.8545 6.01526C11.8726 5.96088 11.8648 5.89872 11.8132 5.86506H11.8107Z" fill="#FEEB87"/>
</g>
</svg>
