<svg viewBox="0 0 53 48" fill="none" xmlns="http://www.w3.org/2000/svg">
<path fill-rule="evenodd" clip-rule="evenodd" d="M40.4806 4.30981C40.4659 4.6902 40.3091 5.05476 40.0653 5.38432C39.9057 5.59784 39.7168 5.79545 39.5085 5.97132C38.9804 6.41536 38.3434 6.73105 37.7308 7.06557C35.5148 8.27209 33.4829 9.76837 31.7248 11.4816C31.7211 11.205 31.5924 10.9755 31.4157 10.7544C31.0816 10.334 30.5942 9.95758 30.5355 9.44128C30.4482 8.69626 31.258 8.09947 31.8791 7.55417C32.9041 6.65801 33.6369 5.50263 33.9554 4.28613C34.1918 3.40341 34.2921 2.36858 35.1347 1.83875C35.9576 1.32053 37.0471 1.58111 37.9302 1.89695C38.5453 2.1185 39.1622 2.36557 39.6533 2.75974C40.1445 3.1539 40.4981 3.70879 40.4786 4.31764L40.4806 4.30981Z" fill="#E3C5A3"/>
<path fill-rule="evenodd" clip-rule="evenodd" d="M40.0653 5.38415C39.9057 5.59767 39.7168 5.79528 39.5085 5.97115C38.9804 6.41519 38.3434 6.73088 37.7308 7.0654C35.5148 8.27192 33.4829 9.7682 31.7248 11.4814C31.7211 11.2048 31.5925 10.9753 31.4157 10.7543C31.4938 10.5489 31.5905 10.3526 31.7028 10.1603C32.5131 8.75345 34.052 7.72696 34.7753 6.28514C34.9576 5.91881 35.0921 5.52759 35.3672 5.20612C35.6424 4.88465 36.1287 4.65115 36.5277 4.78765C36.8769 4.90708 37.039 5.24962 37.2743 5.50252C37.6234 5.88086 38.1857 6.08042 38.749 6.03383C39.2534 5.98875 39.7417 5.74742 40.0731 5.38618L40.0653 5.38415Z" fill="#DBB181"/>
<path fill-rule="evenodd" clip-rule="evenodd" d="M34.8169 4.36249C35.1032 4.49909 35.4794 4.41672 35.7788 4.26019C36.0781 4.10367 36.3348 3.88601 36.6429 3.74426C37.015 3.56477 37.4469 3.50931 37.8445 3.58695C38.1637 3.64438 38.5294 3.78062 38.7899 3.58064C38.929 3.47876 38.9833 3.30071 38.9649 3.14561C38.9465 2.99052 38.8603 2.85548 38.7593 2.72916C38.3077 2.16565 37.5246 1.8506 36.7204 1.85998C36.1594 1.86539 35.5765 2.03638 35.1356 2.36929C34.6897 2.70512 34.4022 3.21969 34.4366 3.71716C34.4542 3.97228 34.5727 4.24093 34.8169 4.36249Z" fill="#F0D0AD"/>
<path fill-rule="evenodd" clip-rule="evenodd" d="M41.9026 29.1775C41.8816 29.9864 41.2316 30.708 40.5836 31.309C35.9129 35.6482 29.5178 38.0301 23.3424 40.2893C21.9173 40.8106 20.4206 41.3344 18.9214 41.6737C17.0283 42.0992 15.1297 42.2226 13.3737 41.6646C9.97436 40.5817 8.24554 37.1868 8.03486 33.9126C7.95964 32.7489 8.01399 31.5686 8.21535 30.4012C9.08886 25.3065 12.6778 20.9676 16.8735 17.4328C19.0512 15.5983 21.408 13.9437 23.8026 12.3532C24.9767 11.5749 26.1566 10.8065 27.3501 10.0499C28.6836 9.20423 29.7127 8.03351 31.4193 7.87723C32.2064 7.80494 33.0084 7.94949 33.6895 8.27159C34.0471 8.43915 34.3749 8.65747 34.6543 8.91758C35.0301 9.27357 35.3303 9.76038 35.2214 10.2626C35.1451 10.6062 34.8937 10.9004 34.6493 11.1839C33.8684 12.0888 32.6572 13.1081 32.1391 14.1435C31.7883 14.8547 31.6711 15.7933 31.4563 16.5438C30.8612 18.6535 30.4817 21.0277 31.5491 22.9739C32.6987 25.0708 35.3344 26.1192 37.9195 26.62C38.7979 26.7926 39.7089 26.9194 40.4885 27.2962C41.2682 27.673 41.9159 28.3665 41.8928 29.1833L41.9026 29.1775Z" fill="#D77C39"/>
<path fill-rule="evenodd" clip-rule="evenodd" d="M41.9025 29.178C41.8815 29.9869 41.2315 30.7085 40.5835 31.3095C35.9128 35.6487 29.5177 38.0306 23.3423 40.2898C21.9172 40.8111 20.4205 41.3349 18.9213 41.6742C18.3649 41.5973 17.8166 41.489 17.2812 41.3466C16.6833 41.1879 16.0121 40.86 16.0293 40.2923C16.0423 39.8864 16.4215 39.5501 16.7875 39.2813C20.9458 36.2463 26.564 35.6431 31.2471 33.3408C32.9503 32.5029 34.7043 31.1771 34.7823 29.485C34.8638 27.844 33.2363 26.5466 31.4637 26.2306C29.6882 25.9097 27.8079 26.3343 26.0107 26.7763C25.5391 26.8883 25.0478 27.0119 24.5766 26.9445C24.1055 26.8771 23.6587 26.5696 23.6395 26.1428C23.6239 25.8799 23.7602 25.6269 23.8975 25.3868C26.2466 21.2078 28.6096 17.0075 31.6728 13.1842C32.3998 12.2779 33.1777 11.368 33.5772 10.3228C33.8286 9.65694 33.8981 8.91903 33.6972 8.27412C34.0548 8.44168 34.3826 8.65999 34.662 8.9201C35.0378 9.27609 35.338 9.7629 35.2291 10.2651C35.1529 10.6088 34.9015 10.903 34.657 11.1864C33.8762 12.0914 32.6649 13.1106 32.1468 14.1461C31.796 14.8573 31.6789 15.7958 31.4641 16.5464C30.8689 18.656 30.4894 21.0302 31.5569 22.9764C32.7065 25.0733 35.3422 26.1217 37.9273 26.6225C38.8056 26.7952 39.7166 26.9219 40.4963 27.2988C41.2759 27.6756 41.9236 28.3691 41.9005 29.1858L41.9025 29.178Z" fill="#BA6128"/>
<path fill-rule="evenodd" clip-rule="evenodd" d="M17.8329 35.5925C19.7905 35.0626 21.9753 33.9608 22.2463 32.1682C22.4613 30.7538 21.3743 29.5626 20.8333 28.2619C20.0498 26.3807 20.4289 24.1859 21.3384 22.2493C22.248 20.3128 23.6561 18.5801 24.9946 16.8421C25.4157 16.2952 25.8469 15.7092 25.9304 15.0626C26.0139 14.416 25.6008 13.7037 24.8884 13.6324C24.3308 13.5761 23.7976 13.9102 23.3381 14.2342C19.2892 17.0719 15.697 20.437 12.7178 24.1775C11.2648 26.0029 9.92624 27.9999 9.58948 30.1763C9.25474 32.3449 10.1599 34.7253 12.2945 35.6443C13.9512 36.3604 15.9911 36.0939 17.8279 35.5954L17.8329 35.5925Z" fill="#E9843D"/>
<g style="mix-blend-mode:multiply">
<path fill-rule="evenodd" clip-rule="evenodd" d="M12.0887 35.6116C11.6838 35.7242 11.8345 36.2726 12.2423 36.165C12.6472 36.0524 12.4966 35.504 12.0887 35.6116Z" fill="#E7CEBC"/>
<path fill-rule="evenodd" clip-rule="evenodd" d="M15.1107 33.3399C15.03 33.2481 14.9352 33.2111 14.814 33.163C14.7455 33.137 14.6795 33.1826 14.6917 33.2484C14.7086 33.3446 14.7127 33.4417 14.7798 33.5217C14.841 33.5918 14.9408 33.6259 15.0422 33.5728C15.1259 33.5234 15.1769 33.4071 15.1156 33.337L15.1107 33.3399Z" fill="#E7CEBC"/>
<path fill-rule="evenodd" clip-rule="evenodd" d="M19.3552 34.2238C19.2751 34.1781 19.1948 34.1657 19.1017 34.1542C18.9176 34.1233 18.8253 34.3835 19.0144 34.4114C19.1182 34.4299 19.2063 34.4443 19.3153 34.4265C19.4342 34.4029 19.4274 34.2675 19.3523 34.2189L19.3552 34.2238Z" fill="#E7CEBC"/>
<path fill-rule="evenodd" clip-rule="evenodd" d="M22.387 30.1664C22.2915 30.0833 22.2013 30.0767 22.068 30.0756C21.8189 30.0697 21.8094 30.4139 22.0555 30.4148C22.1761 30.4168 22.2576 30.4086 22.3581 30.3427C22.4222 30.3049 22.4494 30.2159 22.387 30.1664Z" fill="#E7CEBC"/>
<path fill-rule="evenodd" clip-rule="evenodd" d="M25.8971 31.6962C25.802 31.6925 25.699 31.6868 25.6039 31.6831C25.352 31.6723 25.3294 32.0507 25.5874 32.038L25.8837 32.0227C26.1241 32.0137 26.1284 31.7058 25.8971 31.6962Z" fill="#E7CEBC"/>
<path fill-rule="evenodd" clip-rule="evenodd" d="M14.0984 28.9992C14.0338 28.9908 13.974 28.9796 13.9065 28.9663C13.7018 28.9343 13.6014 29.2257 13.811 29.2548L14.003 29.2877C14.2077 29.3197 14.3081 29.0283 14.0984 28.9992Z" fill="#E7CEBC"/>
<path fill-rule="evenodd" clip-rule="evenodd" d="M15.6945 23.5973C15.5284 23.6421 15.4702 23.8025 15.533 23.9314C15.5446 23.9511 15.5533 23.9659 15.5649 23.9856C15.6596 24.1688 16.0193 24.0696 16.0052 23.8655C16.0064 23.8449 16.0026 23.8273 16.0037 23.8067C15.994 23.6664 15.8635 23.5574 15.6974 23.6022L15.6945 23.5973Z" fill="#E7CEBC"/>
<path fill-rule="evenodd" clip-rule="evenodd" d="M25.4413 28.7379C25.3035 28.6731 25.13 28.7953 25.1701 28.9309C25.2053 29.0695 25.419 29.0829 25.5053 28.9591C25.5777 28.8567 25.5576 28.7889 25.4413 28.7379Z" fill="#E7CEBC"/>
<path fill-rule="evenodd" clip-rule="evenodd" d="M22.7116 22.88C22.5504 22.9219 22.6399 23.1413 22.7935 23.064C22.7689 23.0786 22.8141 23.0652 22.8051 23.0837C22.7574 23.1716 22.8795 23.2324 22.9458 23.1535C23.0715 23.0064 22.8826 22.8323 22.7116 22.88Z" fill="#E7CEBC"/>
<path fill-rule="evenodd" clip-rule="evenodd" d="M14.7307 40.7922C14.7162 40.7676 14.6918 40.7487 14.6724 40.727C14.583 40.6204 14.3919 40.6003 14.3016 40.7398C14.2063 40.8822 14.3201 41.0077 14.4798 41.0197C14.5132 41.02 14.5445 41.028 14.5778 41.0283C14.7042 41.0401 14.8085 40.8791 14.7356 40.7893L14.7307 40.7922Z" fill="#E7CEBC"/>
<path fill-rule="evenodd" clip-rule="evenodd" d="M17.6634 36.2289C17.6634 36.2289 17.6341 36.2129 17.6233 36.206C17.4681 36.1116 17.2599 36.2875 17.3009 36.4359C17.3419 36.5843 17.6092 36.6325 17.6929 36.4703C17.6998 36.4596 17.7088 36.4411 17.7157 36.4303C17.7565 36.3532 17.7365 36.2853 17.6614 36.2367L17.6634 36.2289Z" fill="#E7CEBC"/>
<path fill-rule="evenodd" clip-rule="evenodd" d="M22.3026 25.4508C22.0638 25.5185 22.1554 25.8429 22.3893 25.778C22.6281 25.7102 22.5365 25.3859 22.3026 25.4508Z" fill="#E7CEBC"/>
<path fill-rule="evenodd" clip-rule="evenodd" d="M26.1845 19.1205C26.0992 19.111 26.0082 19.0916 25.9189 19.0978C25.807 19.1106 25.694 19.1441 25.5829 19.1697C25.2951 19.2331 25.4105 19.643 25.6888 19.552C25.7792 19.5252 25.8717 19.4907 25.9621 19.4639C26.0673 19.4284 26.1493 19.3536 26.2322 19.2915C26.2953 19.241 26.2697 19.13 26.1845 19.1205Z" fill="#E7CEBC"/>
<path fill-rule="evenodd" clip-rule="evenodd" d="M18.2112 29.5683C18.0677 29.6064 18.0334 29.7396 18.0766 29.8468C18.1133 29.9314 18.1382 29.9963 18.2241 30.0519C18.2885 30.0936 18.4065 30.0573 18.4403 29.9909C18.4852 29.8981 18.473 29.8322 18.4639 29.738C18.4481 29.6212 18.3518 29.5253 18.2112 29.5683Z" fill="#E7CEBC"/>
<path fill-rule="evenodd" clip-rule="evenodd" d="M10.1345 33.4327C10.0447 33.5055 10.012 33.5514 9.99844 33.6523C9.97769 33.7972 10.1926 33.9029 10.3247 33.8117C10.4203 33.7487 10.4502 33.698 10.4765 33.5962C10.5172 33.4062 10.3023 33.3006 10.1316 33.4277L10.1345 33.4327Z" fill="#E7CEBC"/>
<path fill-rule="evenodd" clip-rule="evenodd" d="M9.92962 36.5208C9.75323 36.3792 9.51458 36.6725 9.72079 36.7633C9.81853 36.8053 9.9453 36.8965 10.0682 36.8573C10.1056 36.8419 10.1372 36.8166 10.1394 36.7754C10.1443 36.6598 10.0114 36.592 9.92962 36.5208Z" fill="#E7CEBC"/>
<path fill-rule="evenodd" clip-rule="evenodd" d="M15.2293 37.6181C15.1559 37.5949 15.0825 37.5718 15.0141 37.5458C14.8381 37.4836 14.7493 37.7947 14.9671 37.7925C15.0465 37.7922 15.121 37.7947 15.2004 37.7943C15.321 37.7963 15.329 37.6522 15.2293 37.6181Z" fill="#E7CEBC"/>
<path fill-rule="evenodd" clip-rule="evenodd" d="M12.9398 39.8367C12.8949 39.8168 12.8549 39.7939 12.8099 39.7739C12.7649 39.754 12.7232 39.8184 12.7682 39.8383L12.8981 39.9011C12.9431 39.9211 12.9848 39.8567 12.9398 39.8367Z" fill="#E7CEBC"/>
<path fill-rule="evenodd" clip-rule="evenodd" d="M17.6724 36.9545C17.5014 37.0022 17.4958 37.2179 17.6622 37.2525C17.6779 37.2566 17.6935 37.2606 17.7141 37.2617C17.7425 37.2649 17.773 37.2602 17.7947 37.2408C17.8095 37.2321 17.8214 37.2184 17.8332 37.2048C17.9587 37.091 17.8434 36.9068 17.6695 36.9495L17.6724 36.9545Z" fill="#E7CEBC"/>
<path fill-rule="evenodd" clip-rule="evenodd" d="M15.3638 35.3221L15.2638 35.3213C15.0559 35.3177 15.1417 35.6322 15.319 35.5277L15.4077 35.4754C15.4865 35.429 15.4589 35.3258 15.3638 35.3221Z" fill="#E7CEBC"/>
<path fill-rule="evenodd" clip-rule="evenodd" d="M12.7016 39.0939C12.4952 39.1492 12.5714 39.4362 12.7827 39.378C12.9891 39.3227 12.9129 39.0358 12.7016 39.0939Z" fill="#E7CEBC"/>
<path fill-rule="evenodd" clip-rule="evenodd" d="M12.288 37.6059C12.288 37.6059 12.3034 37.6433 12.3101 37.6659C12.4004 37.898 12.7778 37.7951 12.7326 37.5495C12.7289 37.5319 12.7271 37.5063 12.7233 37.4887C12.6802 37.2353 12.1947 37.3688 12.288 37.6059Z" fill="#E7CEBC"/>
<path fill-rule="evenodd" clip-rule="evenodd" d="M9.71967 35.0703C9.55358 35.1151 9.61554 35.3441 9.78163 35.2993C9.94772 35.2545 9.88575 35.0255 9.71967 35.0703Z" fill="#E7CEBC"/>
<path fill-rule="evenodd" clip-rule="evenodd" d="M11.321 33.2039C11.0595 33.2784 11.1578 33.6253 11.4172 33.5587C11.6787 33.4843 11.5804 33.1373 11.321 33.2039Z" fill="#E7CEBC"/>
<path fill-rule="evenodd" clip-rule="evenodd" d="M21.2578 35.4575C21.132 35.4918 21.1797 35.6628 21.3055 35.6285C21.4313 35.5942 21.3836 35.4231 21.2578 35.4575Z" fill="#E7CEBC"/>
<path fill-rule="evenodd" clip-rule="evenodd" d="M23.1869 34.5877C23.1419 34.5678 23.1037 34.5704 23.0498 34.569C22.8555 34.5773 22.9308 34.8515 23.1012 34.7577C23.1456 34.7316 23.1801 34.7112 23.2108 34.6732C23.2316 34.641 23.2211 34.6007 23.184 34.5828L23.1869 34.5877Z" fill="#E7CEBC"/>
</g>
</svg>
