<svg viewBox="0 0 40 36" fill="none" xmlns="http://www.w3.org/2000/svg">
<path d="M29.8541 12.1527C28.6479 10.2419 25.4455 9.64773 23.3782 9.44847C20.3645 9.16026 17.4219 9.05708 14.3334 9.06064C10.8784 9.06064 7.3843 9.45559 4.14993 10.6938C2.93659 11.16 1.371 11.9 0.748323 13.1098C0.150552 14.2733 0.5206 15.3906 0.730531 16.5292L1.11837 18.0841C1.11125 18.0308 1.11125 17.9845 1.11125 17.9418C3.24259 27.7232 15.9274 26.8764 23.2323 24.1188C25.9543 23.0905 28.0572 21.6565 29.3773 18.9594C29.8932 17.9062 30.3771 16.4581 30.5444 15.2803C30.5942 14.9209 30.5657 14.2164 30.5657 14.2164C30.491 13.4799 30.2384 12.7504 29.8576 12.1527H29.8541Z" fill="#BD5A37"/>
<path d="M29.3064 14.338C29.3171 13.6229 28.6304 13.1959 27.9828 13.171C28.2568 11.7121 26.3318 12.5839 26.04 11.705C25.8194 11.0396 26.6627 11.0681 26.2002 10.3778C25.9191 9.95794 25.3818 9.84052 25.09 9.44912C24.7164 8.94742 24.7911 8.76952 24.0795 8.59161C23.5849 8.47063 23.133 8.72682 22.9089 8.12549C22.7167 7.61311 23.0939 7.19681 22.6598 6.64173C22.3716 6.27524 21.8699 6.02261 21.45 5.85182C20.7989 5.5814 20.3327 5.56361 19.7385 5.96568C19.1479 6.3642 18.7494 6.97976 17.931 6.66664C17.3297 6.43536 17.2051 5.93722 16.4508 5.94789C15.7961 5.95501 15.4367 6.29659 14.8354 6.31794C14.5828 6.32862 14.3266 6.1258 14.017 6.31438C13.7715 6.46383 13.8391 6.91215 13.5722 7.0189C13.1951 7.1719 12.6756 6.59904 12.1703 6.56701C10.6652 6.4745 9.64402 7.75188 8.96085 8.89405C7.58384 8.51333 6.3883 8.68056 5.49164 10.0718C5.05399 10.7514 5.28171 10.9969 5.33865 11.705C5.42404 12.7155 5.1892 12.3846 4.54162 12.4807C4.1858 12.5341 3.23577 12.623 2.98314 12.8721C2.73763 13.114 2.99737 13.4165 2.83014 13.6549C2.65935 13.8933 2.49212 13.8292 2.28218 13.9644C1.73779 14.3131 1.41043 14.2989 1.34639 15.1315C1.3108 15.6119 1.36062 16.3484 1.65951 16.6864L2.28218 18.0883C2.36758 19.5507 4.0328 21.3974 5.23902 22.077C6.41677 22.7389 7.84003 23.0377 9.15655 23.2868C11.8003 23.7885 14.6931 24.1977 17.3795 23.8383C20.2651 23.4541 23.5885 22.3937 26.1397 20.9669C27.7835 20.0453 28.9399 19.0526 29.5804 17.2522C29.8615 16.4694 30.5269 14.6761 29.3029 14.3416L29.3064 14.338Z" fill="#F1F1E4"/>
<path d="M30.5623 14.2168C30.2385 15.117 29.5838 15.665 28.9789 16.2236C28.1819 16.9637 27.3528 17.5081 26.3672 18.0027C23.8409 19.2694 20.9196 19.7142 18.1585 19.9526C14.4153 20.2763 10.7255 20.0486 7.20648 18.8922C4.79404 18.0988 2.42431 16.9174 0.502902 15.2985C-0.00235751 16.6292 0.64167 19.1235 0.858718 20.4898C1.32128 23.4324 2.52038 26.7664 4.65528 28.848C5.14986 29.3283 5.65156 29.7446 6.1675 30.104C6.52331 35.516 16.1339 35.1495 19.4359 35.0214C21.7736 34.9324 23.9227 33.7582 24.6415 32.673C25.1147 31.7336 25.1681 30.8903 25.1147 30.0755C26.6696 28.9654 27.9684 27.5065 28.8259 25.7808C30.1495 23.1158 30.089 20.2977 30.4555 17.4156C30.5801 16.43 30.6085 15.2415 30.5694 14.2168H30.5623Z" fill="#F47845"/>
<path d="M28.8191 25.7808C30.1427 23.1158 30.0822 20.2977 30.4487 17.4156C30.5733 16.43 30.6017 15.2415 30.5626 14.2168C29.8865 15.2949 29.5485 15.7432 28.9436 16.3019C28.1466 17.042 27.3531 17.5081 26.3675 18.0027C25.9797 18.1984 25.5812 18.3727 25.1791 18.5293C24.9941 19.3299 24.8339 20.134 24.6454 20.8848C23.7629 24.4145 21.7632 28.0758 18.3011 29.5881C17.7923 29.8122 14.9209 30.0186 15.1806 30.7196C15.3016 31.0469 16.2089 31.1323 16.4331 31.57C16.6679 32.0325 16.547 32.9185 16.4545 33.4202C16.3655 33.897 16.0595 34.5375 16.2196 35.0712C17.5041 35.0925 18.6427 35.0498 19.4291 35.0214C21.7668 34.9324 23.9159 33.7582 24.6347 32.673C25.1079 31.7336 25.1613 30.8903 25.1079 30.0755C26.6628 28.9654 27.9616 27.5065 28.8191 25.7808Z" fill="#E16B41"/>
<path opacity="0.1" d="M8.51598 20.5438C7.94312 20.1311 7.30977 19.8429 6.66218 19.5369C5.97546 19.2131 4.11454 17.9713 3.51677 18.7861C0.958448 19.5475 3.21432 24.0415 4.25686 25.5501C4.908 26.4931 7.34891 28.4856 8.40212 26.9058C8.77929 26.3436 8.63696 25.4327 8.69033 24.7923C8.75082 24.0379 8.7437 23.2729 8.86112 22.5293C8.99989 21.6504 9.34148 21.138 8.51242 20.5438H8.51598Z" fill="white"/>
<path d="M8.53402 14.5872C8.09637 14.1922 7.84018 14.7544 7.40964 14.5872C6.93284 14.4057 7.32425 14.0179 7.58043 13.8257C7.81527 13.6478 8.44863 13.5696 7.75834 13.139C7.51639 12.986 6.77629 13.0572 6.5201 13.1248C5.97214 13.2671 5.46332 13.6229 5.53093 14.2278C4.8869 14.3381 4.23576 13.7759 3.63799 14.2349C2.90857 14.7971 3.70915 15.5337 3.83369 15.064C4.61648 14.9466 4.55955 15.6333 5.18935 15.8717C5.56296 16.014 5.90098 15.8041 6.24256 16.1172C6.53077 16.3805 6.61973 16.7719 6.60194 17.1526C7.12499 16.3556 8.14618 16.6616 8.63365 15.7578C8.81867 15.4127 8.87916 14.9039 8.53046 14.5907L8.53402 14.5872Z" fill="white"/>
<path d="M13.1835 10.5703C13.0341 10.5525 12.3046 10.7944 12.1339 10.6806C11.6891 10.3852 11.9524 9.3427 12.3794 9.16124C12.1089 8.80898 11.4187 8.841 11.0842 9.10075C10.8992 9.24308 10.7284 9.52417 10.8671 9.63803C10.248 9.50994 9.37272 9.25019 8.87458 9.44589C8.66109 9.53129 8.61127 9.79815 8.4049 9.87643C8.23411 9.93692 8.07755 9.8444 7.93878 9.87287C7.53671 9.95471 7.15954 9.93336 7.24494 10.5525C7.4015 10.5418 7.60431 10.5987 7.75732 10.5738C7.39794 10.7482 6.52975 10.9368 6.49061 11.4954C6.45859 11.9437 7.00298 12.2177 7.29475 11.8441H6.88557C7.45487 11.627 8.89237 11.0471 8.61839 12.2462C9.2553 11.6946 9.68584 13.0467 8.64329 13.3741C9.03825 13.7335 9.37628 13.2567 9.74633 13.8829C9.93135 14.1925 10.1875 14.7333 9.95626 14.986C10.5113 14.3206 12.1659 14.7653 11.7745 13.3029C11.6322 12.7763 10.9632 12.5557 11.7282 12.1465C12.4719 11.748 12.5893 12.3387 13.1159 12.4454C13.9556 12.6091 14.2972 10.6984 13.1835 10.5703Z" fill="white"/>
<path d="M13.2591 7.93271C12.8037 7.28512 11.9284 6.68023 11.2595 7.34916C11.0709 7.54131 10.74 7.90068 10.6154 8.12129C10.4233 8.46287 10.5122 9.01439 11.0246 8.57317L10.7898 8.51624C11.2096 8.09994 11.3093 8.28852 11.7256 8.22803C12.0707 8.17822 12.4443 7.8224 12.761 8.23515C12.9603 8.4949 12.6151 9.31683 13.1702 9.20297C13.7075 9.09267 13.4406 8.18889 13.2556 7.92915L13.2591 7.93271Z" fill="white"/>
<path d="M21.5358 7.87634C21.4148 7.41022 20.9238 7.03661 20.4256 7.23231C19.9417 7.4209 19.9844 8.04713 19.3155 7.95106C19.0664 7.91548 18.8529 7.63083 18.6145 7.58101C18.2765 7.51341 18.2587 7.65929 17.9741 7.70199C17.2696 7.80162 17.4724 7.49206 16.8639 7.12913C16.3444 6.81957 14.0814 7.00815 14.4693 8.05425C14.5155 8.17878 14.6223 8.23927 14.7575 8.26774C14.6757 8.38516 14.6152 8.50969 14.5867 8.63067C14.423 9.3423 15.1275 9.16084 15.1311 9.68389C15.1311 9.96142 14.7717 9.96854 14.9354 10.2817C15.0279 10.456 15.43 10.4453 15.5688 10.6268C15.8605 11.0146 15.7431 11.6729 15.3944 11.9433C14.971 12.2707 14.4444 12.1639 14.4123 12.8933C14.3732 13.7438 15.2877 13.6512 15.8321 13.2456C16.5437 12.7154 16.4014 11.5697 17.145 11.1534C17.6574 10.8688 18.4188 11.2175 18.8956 10.9542C19.5432 10.5948 19.5005 9.68744 19.2123 9.17151C19.8599 8.86195 20.3616 9.71591 20.9558 9.56647C21.4789 9.43482 21.6639 8.34602 21.5393 7.87278L21.5358 7.87634Z" fill="white"/>
<path d="M17.6281 13.8284C17.3398 13.156 16.4147 13.4406 15.9877 13.8284C15.4362 14.3337 15.575 14.7856 14.7032 14.5401C14.0521 14.3586 13.7034 14.0811 13.8778 13.373C13.6429 13.2378 13.4508 13.3196 13.2978 13.4762C12.8993 13.4335 12.3371 13.8356 12.483 14.2981C12.6075 14.6931 13.1946 14.565 12.7783 15.0062C12.2908 15.5221 10.7359 14.9279 10.8426 15.8139C10.7252 15.5755 10.1025 16.1662 9.9958 16.4117C10.0563 16.4223 10.131 16.4508 10.2022 16.4615C9.86771 17.0059 9.37668 17.5787 10.3374 17.6214C11.0312 17.6499 11.4404 16.9774 12.1343 17.0948C12.885 17.2229 12.6182 17.9346 13.1092 18.2192C13.5575 18.479 14.166 17.9879 14.3083 17.5787C14.5218 16.9525 13.7568 16.4046 14.2585 15.8673C15.0306 15.0382 15.1231 16.433 15.6319 16.5718C15.9379 16.6572 16.276 16.312 16.5713 16.2765C16.8702 16.2373 17.0267 16.4223 17.2545 16.2231C17.4893 16.0167 17.4964 15.4083 17.3719 14.9635C17.5925 14.6788 17.7277 14.074 17.6245 13.8249L17.6281 13.8284Z" fill="white"/>
<path d="M22.8157 9.43819C22.0721 9.39193 21.7696 9.51647 21.517 10.2637C21.2751 10.132 20.6808 10.0537 20.4247 10.2103C19.9407 10.5092 20.4104 10.7725 20.414 11.1924C20.0439 11.2991 17.8236 11.7368 18.5353 12.3737C18.2577 12.3416 17.3682 12.3915 17.2686 12.7153C17.0693 13.3557 18.0158 13.0817 18.2648 13.2419C18.7381 13.5514 18.3182 14.0247 18.4961 14.473C18.6705 14.9035 19.2327 15.053 19.6561 14.9854C19.7806 14.6331 19.7842 14.2061 19.4924 13.9428C19.4924 12.8327 19.955 12.8113 20.6737 12.3666C20.9797 12.178 20.9406 11.9289 21.4209 12.0143C21.7447 12.0712 21.9191 12.3167 22.1646 12.5018C22.3283 12.6227 22.4065 12.975 22.6343 12.7651C22.8833 12.5373 22.3745 11.5517 22.3496 11.324C22.2464 10.3562 23.3032 9.70505 24.0362 10.3775C24.1821 9.51647 23.5167 9.48088 22.8193 9.43819H22.8157Z" fill="white"/>
<path d="M19.1976 19.0241L19.2545 18.8498C19.1869 18.8249 19.1229 18.7999 19.0659 18.7715C19.041 18.8604 19.0731 18.9494 19.1976 19.0241Z" fill="white"/>
<path d="M20.5455 17.4438C20.2003 17.3549 18.3785 17.6751 19.1969 16.8069C19.7093 16.2625 20.7127 16.3408 21.3389 16.387C21.193 16.1985 20.9831 15.9174 20.7625 15.8248C20.3782 15.6647 20.2572 15.9102 19.9014 15.9458C19.3286 16.0028 18.8162 15.5402 18.2149 15.8818C18.3109 16.2625 18.5209 16.4119 18.2825 16.7002C18.0405 16.9955 17.7381 16.8069 17.4498 16.9208C16.7204 17.2054 17.2897 17.9775 16.2223 17.7213C14.1372 17.2196 15.073 20.0448 16.5141 18.7817C16.8912 19.2407 17.5068 18.618 17.916 18.4935C18.4746 18.3262 18.6881 18.5824 19.0688 18.7674C19.1115 18.6109 19.3214 18.4579 19.4922 18.3938C19.8125 18.2693 20.1718 18.5077 20.4387 18.4828C21.2464 18.4152 21.346 17.6502 20.5455 17.4438Z" fill="white"/>
<path opacity="0.1" d="M36.3584 4.14016C35.1166 3.81636 37.0843 2.40021 37.408 2.17249C37.7461 1.9341 39.518 0.2582 39.6853 1.16553C39.7636 1.58539 39.2263 1.82023 38.9701 2.02661C38.5787 2.33972 38.415 2.61015 38.2407 3.0478C37.9667 3.73808 37.376 4.83044 36.4189 4.31806C35.814 3.99427 35.9243 3.33601 36.5363 3.03357L36.3619 4.14371L36.3584 4.14016Z" fill="white"/>
</svg>
