<svg viewBox="0 0 60 59" fill="none" xmlns="http://www.w3.org/2000/svg">
<path d="M34.0504 28.4317C34.3354 30.2364 36.8462 42.2207 35.6109 46.7794C35.1818 48.3587 34.6746 50.8444 33.2918 51.9542C30.8245 53.9314 28.0976 52.1002 26.4526 49.799C23.1268 45.1619 21.8974 40.0827 20.1125 34.6679C18.136 28.6449 16.8881 22.3978 16.1353 16.1038C15.8561 13.7305 15.6568 11.2593 16.4681 9.01254C17.2793 6.76579 19.3733 4.81164 21.7589 4.92737C23.4345 5.00298 25.2345 6.56658 26.2502 7.90567C28.7746 11.2557 33.2496 23.3611 34.0504 28.4317Z" fill="#203C1F"/>
<mask id="mask0_1232_20117" style="mask-type:luminance" maskUnits="userSpaceOnUse" x="15" y="4" width="21" height="49">
<path d="M34.0504 28.4327C34.3354 30.2373 36.8462 42.2217 35.6109 46.7804C35.1818 48.3597 34.6746 50.8454 33.2918 51.9552C30.8245 53.9324 28.0976 52.1012 26.4526 49.7999C23.1268 45.1629 21.8974 40.0836 20.1125 34.6689C18.136 28.6459 16.8881 22.3988 16.1353 16.1047C15.8561 13.7314 15.6568 11.2603 16.4681 9.01351C17.2793 6.76677 19.3733 4.81261 21.7589 4.92835C23.4345 5.00396 25.2345 6.56755 26.2502 7.90664C28.7746 11.2567 33.2496 23.3621 34.0504 28.4327Z" fill="white"/>
</mask>
<g mask="url(#mask0_1232_20117)">
<g style="mix-blend-mode:multiply" opacity="0.27">
<path d="M17.1487 0.751183C12.6779 2.23149 12.5265 8.08355 12.3028 11.9823C11.967 17.9083 12.6309 23.7991 13.4657 29.6584C14.2649 35.292 15.7974 40.8265 17.2575 46.3169C18.7579 51.9669 21.3541 58.1899 27.5592 59.64C29.5426 60.1048 31.622 58.982 32.5247 57.2184C34.9817 52.4392 32.3297 48.9181 30.6268 44.5005C28.7659 39.6553 27.1555 34.6455 25.763 29.6469C24.4046 24.7687 23.1107 19.8854 21.9593 14.9498C20.9726 10.707 21.0755 5.94781 19.4005 1.89769C19.0277 1.0011 18.1148 0.439888 17.1404 0.762519L17.1487 0.751183Z" fill="#203C1F"/>
</g>
<g style="mix-blend-mode:multiply" opacity="0.08">
<path d="M14.5539 0.968955C10.0832 2.44926 9.93175 8.30133 9.70807 12.2001C9.37228 18.1261 10.0362 24.0169 10.871 29.8761C11.6702 35.5098 13.2026 41.0442 14.6628 46.5347C16.1632 52.1847 18.7593 58.4076 24.9645 59.8578C26.9478 60.3226 29.0273 59.1997 29.9299 57.4362C32.3869 52.6569 29.735 49.1359 28.0321 44.7183C26.1712 39.8731 24.5608 34.8632 23.1683 29.8647C21.8098 24.9865 20.5159 20.1032 19.3646 15.1676C18.3779 10.9248 18.4808 6.16559 16.8058 2.11547C16.433 1.21888 15.5201 0.657661 14.5457 0.980292L14.5539 0.968955Z" fill="#203C1F"/>
</g>
<g style="mix-blend-mode:multiply" opacity="0.08">
<path d="M12.6408 1.84103C8.17011 3.32133 8.01866 9.1734 7.79498 13.0721C7.45919 18.9981 8.1231 24.889 8.95792 30.7482C9.75711 36.3818 11.2895 41.9163 12.7497 47.4068C14.2501 53.0568 16.8463 59.2797 23.0514 60.7298C25.0348 61.1947 27.1142 60.0718 28.0169 58.3082C30.4738 53.529 27.8219 50.0079 26.119 45.5903C24.2581 40.7451 22.6477 35.7353 21.2552 30.7368C19.8968 25.8585 18.6029 20.9753 17.4515 16.0396C16.4648 11.7969 16.5677 7.03766 14.8927 2.98754C14.5199 2.09095 13.607 1.52973 12.6326 1.85236L12.6408 1.84103Z" fill="#203C1F"/>
</g>
<g style="mix-blend-mode:screen" opacity="0.06">
<path d="M38.452 55.829C42.9037 54.2914 42.9735 48.432 43.1481 44.5409C43.408 38.6116 42.6656 32.733 41.7565 26.8803C40.8788 21.2589 39.2833 15.7393 37.7463 10.2709C36.1689 4.6429 33.4876 -1.54667 27.2695 -2.91942C25.281 -3.35328 23.216 -2.20253 22.3345 -0.43223C19.9369 4.37293 22.639 7.86109 24.395 12.2654C26.323 17.0901 27.9949 22.0752 29.4504 27.0589C30.8718 31.9223 32.2329 36.7851 33.4374 41.7074C34.4773 45.9369 34.4405 50.7009 36.1671 54.7279C36.5497 55.6229 37.475 56.1671 38.4479 55.8347L38.452 55.829Z" fill="#CAE08D"/>
</g>
<g style="mix-blend-mode:screen" opacity="0.06">
<path d="M40.8563 54.9511C45.308 53.4135 45.3778 47.554 45.5524 43.6629C45.8123 37.7337 45.0699 31.8551 44.1608 26.0024C43.2831 20.381 41.6876 14.8614 40.1506 9.39294C38.5732 3.76497 35.8919 -2.4246 29.6738 -3.79735C27.6853 -4.2312 25.6203 -3.08046 24.7388 -1.31016C22.3412 3.495 25.0433 6.98316 26.7993 11.3874C28.7273 16.2121 30.3992 21.1973 31.8547 26.181C33.2761 31.0444 34.6372 35.9072 35.8417 40.8295C36.8816 45.059 36.8448 49.8229 38.5714 53.8499C38.954 54.745 39.8793 55.2892 40.8522 54.9568L40.8563 54.9511Z" fill="#CAE08D"/>
</g>
</g>
<g opacity="0.09">
<path d="M22.1479 7.26998C22.563 10.1849 24.1131 13.3802 25.3616 16.0346C26.9901 19.5041 27.8007 23.4276 28.8535 27.1023C29.8071 30.4358 30.122 34.2757 30.535 37.7185C30.9098 40.8558 30.5617 44.603 31.771 47.55C32.1453 48.4564 33.5715 48.7668 34.0141 47.7181C35.2008 44.9204 34.6365 41.4108 34.398 38.4684C34.0955 34.8023 33.3427 31.0859 32.6715 27.4723C32.0153 23.9217 30.7064 20.2165 29.2699 16.913C27.659 13.2046 25.1681 10.2262 22.8259 7.04377C22.6209 6.76418 22.0901 6.872 22.1479 7.26998Z" fill="#CAE08D"/>
</g>
<g opacity="0.26">
<path d="M31.7467 30.8414C31.9904 31.7481 32.1344 32.7557 32.5305 33.6085C32.6756 33.9225 33.085 33.7783 33.0804 33.4625C33.0691 32.4995 32.531 31.5433 32.181 30.6632C32.07 30.374 31.6723 30.5616 31.7467 30.8414Z" fill="white"/>
</g>
<g opacity="0.26">
<path d="M33.1443 36.7635C33.3451 38.5762 33.3374 40.4365 33.2067 42.2506C33.0868 43.9425 32.5808 45.5437 32.417 47.2123C32.369 47.672 32.9525 47.8976 33.2339 47.5473C35.429 44.8337 34.5483 39.67 33.5879 36.6441C33.5068 36.3854 33.1139 36.5069 33.1443 36.7635Z" fill="white"/>
</g>
<path d="M29.8227 47.0486C29.8227 47.0486 29.8 47.0321 29.7887 47.0238C29.0962 46.5538 28.7931 47.9125 29.5852 47.8041L29.6244 47.798C29.9792 47.7528 30.132 47.2567 29.8227 47.0486Z" fill="#203C1F"/>
<path d="M28.5965 44.6969C28.5965 44.6969 28.6011 44.7264 28.6027 44.7362C28.6414 44.9814 28.9801 45.0894 29.133 44.8797C29.1412 44.8683 29.1495 44.857 29.1577 44.8456C29.513 44.3582 28.5066 44.1281 28.5965 44.6969Z" fill="#203C1F"/>
<path d="M25.8144 41.619C25.8144 41.619 25.8273 41.6371 25.8345 41.651C25.8794 41.7445 25.9703 41.8108 26.0782 41.7939L26.1076 41.7894C26.3488 41.7568 26.434 41.437 26.2352 41.2922C26.025 41.139 25.6744 41.3695 25.8144 41.619Z" fill="#203C1F"/>
<path d="M31.1631 38.1576C31.1631 38.1576 31.1198 38.1694 31.1002 38.1724C30.5043 38.3457 30.9292 39.3497 31.46 39.051C31.4781 39.0381 31.5019 39.0294 31.5158 39.0222C32.0425 38.7291 31.7394 37.9874 31.159 38.1633L31.1631 38.1576Z" fill="#203C1F"/>
<path d="M28.413 37.8383C28.9785 38.2677 29.6399 37.3959 29.0745 36.9665C28.5091 36.537 27.8476 37.4088 28.413 37.8383Z" fill="#203C1F"/>
<path d="M25.2761 37.9896C25.7904 38.3818 26.3981 37.5836 25.8839 37.1915C25.3696 36.7993 24.7618 37.5974 25.2761 37.9896Z" fill="#203C1F"/>
<path d="M22.8961 36.0644C23.2209 36.0842 23.3702 35.6288 23.0423 35.494C22.6339 35.3265 22.4743 36.0347 22.8961 36.0644Z" fill="#203C1F"/>
<path d="M25.436 34.4184C25.8594 34.7444 26.3583 34.0838 25.9349 33.7579C25.5114 33.4319 25.0126 34.0925 25.436 34.4184Z" fill="#203C1F"/>
<path d="M22.1569 30.8737C22.6996 31.2866 23.3404 30.4431 22.7977 30.0302C22.255 29.6173 21.6142 30.4608 22.1569 30.8737Z" fill="#203C1F"/>
<path d="M22.147 33.6448C22.5348 33.9361 22.9882 33.3379 22.6004 33.0466C22.2126 32.7553 21.7593 33.3535 22.147 33.6448Z" fill="#203C1F"/>
<path d="M27.3204 29.9938C27.9199 30.4481 28.6185 29.5253 28.019 29.071C27.4195 28.6167 26.7209 29.5395 27.3204 29.9938Z" fill="#203C1F"/>
<path d="M22.4531 25.969C23.0696 26.4357 23.789 25.4845 23.1724 25.0178C22.5559 24.5511 21.8366 25.5023 22.4531 25.969Z" fill="#203C1F"/>
<path d="M20.5487 27.4009C21.1399 27.1983 20.8817 26.2637 20.2621 26.3502C19.4798 26.457 19.7813 27.6662 20.5487 27.4009Z" fill="#203C1F"/>
<path d="M23.0204 28.2217C23.4309 28.5295 23.9049 27.903 23.4944 27.5951C23.0839 27.2873 22.6099 27.9138 23.0204 28.2217Z" fill="#203C1F"/>
<path d="M20.1299 21.4109C20.1299 21.4109 20.1459 21.4486 20.1588 21.4667C20.2383 21.6202 20.4226 21.7371 20.5997 21.6493C20.8089 21.5413 20.8316 21.3669 20.7624 21.1516C20.6256 20.7308 19.9274 21.0204 20.1299 21.4109Z" fill="#203C1F"/>
<path d="M21.2909 17.7537C21.2909 17.7537 21.3528 17.7289 21.3242 17.708C21.2956 17.6872 21.2623 17.7329 21.2909 17.7537Z" fill="#203C1F"/>
<path d="M21.0708 17.8531C21.3564 18.0699 21.6941 17.6304 21.4085 17.4136C21.123 17.1968 20.7853 17.6363 21.0708 17.8531Z" fill="#203C1F"/>
<path d="M27.4057 18.1837C27.7083 18.4129 28.0667 17.9451 27.7641 17.7158C27.4615 17.4866 27.1031 17.9545 27.4057 18.1837Z" fill="#203C1F"/>
<path d="M29.6779 20.9843C30.0502 20.7002 29.7151 20.0741 29.2612 20.2553C28.6901 20.49 29.1889 21.3569 29.6779 20.9843Z" fill="#203C1F"/>
<path d="M28.9195 25.8909C29.3073 26.1822 29.7607 25.584 29.3729 25.2927C28.9851 25.0014 28.5317 25.5996 28.9195 25.8909Z" fill="#203C1F"/>
<path d="M31.2279 28.1635C31.5589 28.4134 31.9503 27.9002 31.6194 27.6503C31.2884 27.4004 30.897 27.9136 31.2279 28.1635Z" fill="#203C1F"/>
<path d="M25.8679 12.87C25.8679 12.87 25.8204 12.8875 25.7966 12.8962C25.6262 12.9629 25.5797 13.146 25.6257 13.3097C25.6345 13.3335 25.6391 13.3629 25.6479 13.3866C25.7486 13.7377 26.2619 13.6779 26.3811 13.383C26.5113 13.0612 26.1808 12.7509 25.8622 12.8659L25.8679 12.87Z" fill="#203C1F"/>
<path d="M25.0016 9.6087C25.4178 9.92071 25.9099 9.28129 25.4881 8.96515C25.076 8.64747 24.5798 9.29256 25.0016 9.6087Z" fill="#203C1F"/>
<path d="M22.3956 11.6326C22.3956 11.6326 22.3832 11.6496 22.3692 11.6568C22.032 11.9405 22.0837 12.4902 22.5076 12.6603C22.9739 12.8439 23.4655 12.3603 23.2662 11.8939C23.2548 11.8856 23.2574 11.8702 23.2502 11.8562C23.1149 11.5407 22.6785 11.3875 22.3997 11.6269L22.3956 11.6326Z" fill="#203C1F"/>
<path d="M23.2568 7.2527C23.2568 7.2527 23.2769 7.28473 23.2898 7.30282C23.3962 7.46713 23.6451 7.48363 23.7881 7.3709C23.9188 7.27518 23.9461 7.13023 23.9115 6.97484C23.7737 6.38834 22.9304 6.74581 23.2511 7.24856L23.2568 7.2527Z" fill="#203C1F"/>
<path d="M19.8131 7.94517C20.2422 8.27527 20.7591 7.60185 20.3202 7.27328C19.8911 6.94319 19.3742 7.61661 19.8131 7.94517Z" fill="#203C1F"/>
<path d="M20.0148 10.3404C20.1909 10.4687 20.3948 10.2008 20.2172 10.0627C20.0411 9.93432 19.8372 10.2023 20.0148 10.3404Z" fill="#203C1F"/>
<path d="M17.1733 11.4115C17.5042 11.6615 17.8957 11.1483 17.5647 10.8984C17.2337 10.6484 16.8423 11.1616 17.1733 11.4115Z" fill="#203C1F"/>
<path d="M19.6206 13.507C19.9629 13.7652 20.3626 13.2407 20.0244 12.9768C19.682 12.7186 19.2823 13.2432 19.6206 13.507Z" fill="#203C1F"/>
<path d="M17.9109 15.7679C17.9109 15.7679 17.9367 15.8041 17.9439 15.818C18.1778 16.1534 18.7489 15.9187 18.6756 15.5181C18.6725 15.4985 18.6694 15.4789 18.6663 15.4593C18.5383 14.7758 17.5205 15.2057 17.9166 15.772L17.9109 15.7679Z" fill="#203C1F"/>
<path d="M18.7473 17.4968C18.7473 17.4968 18.7029 17.5338 18.675 17.5482C18.3693 17.7767 18.6528 18.235 19.0008 18.1155C19.0287 18.1011 19.0581 18.0965 19.086 18.0821C19.5471 17.9148 19.1558 17.1869 18.7473 17.4968Z" fill="#203C1F"/>
<path d="M17.7573 20.2029C18.2432 20.5744 18.8221 19.816 18.3362 19.4445C17.8503 19.073 17.2714 19.8315 17.7573 20.2029Z" fill="#203C1F"/>
<g opacity="0.17">
<path d="M25.5896 37.9412C25.9149 38.187 26.2939 37.6908 25.9686 37.4451C25.6433 37.1993 25.2643 37.6955 25.5896 37.9412Z" fill="#CAE08D"/>
</g>
<g opacity="0.17">
<path d="M27.5068 41.075C27.5641 41.1167 27.6265 41.031 27.5693 40.9893C27.5121 40.9476 27.4496 41.0333 27.5068 41.075Z" fill="#CAE08D"/>
</g>
<g opacity="0.17">
<path d="M27.528 43.8498C27.8817 44.1162 28.2938 43.5747 27.9401 43.3082C27.5864 43.0418 27.1743 43.5833 27.528 43.8498Z" fill="#CAE08D"/>
</g>
<g opacity="0.17">
<path d="M27.6117 46.0271C27.6117 46.0271 27.6426 46.0323 27.6623 46.0293C27.7805 46.046 27.9003 45.8816 27.8048 45.786C27.7934 45.7777 27.7764 45.7653 27.7692 45.7513C27.5352 45.5114 27.3189 45.9873 27.6117 46.0271Z" fill="#CAE08D"/>
</g>
<g opacity="0.17">
<path d="M22.776 30.4653C22.776 30.4653 22.7631 30.4472 22.7559 30.4333C22.6697 30.301 22.4812 30.3806 22.4621 30.5142C22.4538 30.5256 22.461 30.5395 22.4528 30.5508C22.4347 30.6592 22.5524 30.7363 22.6516 30.6957C22.6893 30.6798 22.7172 30.6654 22.7492 30.6454C22.8132 30.6052 22.8091 30.5154 22.7745 30.4555L22.776 30.4653Z" fill="#CAE08D"/>
</g>
<g opacity="0.17">
<path d="M22.8864 25.9474C23.2401 26.2139 23.6522 25.6724 23.2985 25.4059C22.9448 25.1394 22.5327 25.6809 22.8864 25.9474Z" fill="#CAE08D"/>
</g>
<g opacity="0.17">
<path d="M30.2591 28.9323C30.4579 29.0772 30.6825 28.7809 30.4878 28.6304C30.2932 28.4798 30.0644 28.7818 30.2591 28.9323Z" fill="#CAE08D"/>
</g>
<g opacity="0.17">
<path d="M29.0864 33.8586C29.0864 33.8586 29.091 33.888 29.0983 33.902C29.1267 34.0182 29.2346 34.0968 29.3575 34.0475C29.3714 34.0403 29.3812 34.0388 29.3952 34.0316C29.9523 33.8041 28.9522 33.3268 29.0905 33.8529L29.0864 33.8586Z" fill="#CAE08D"/>
</g>
<g opacity="0.17">
<path d="M28.677 37.0592C28.9512 37.2677 29.2806 36.8395 29.0065 36.631C28.7323 36.4225 28.4028 36.8507 28.677 37.0592Z" fill="#CAE08D"/>
</g>
<g opacity="0.17">
<path d="M26.7404 26.8029C26.8256 26.865 26.9206 26.7346 26.8354 26.6725C26.7502 26.6105 26.6552 26.7408 26.7404 26.8029Z" fill="#CAE08D"/>
</g>
<g opacity="0.17">
<path d="M26.6098 26.9945C26.8824 27.1932 27.1897 26.7835 26.9268 26.5833C26.6542 26.3846 26.3469 26.7942 26.6098 26.9945Z" fill="#CAE08D"/>
</g>
<g opacity="0.17">
<path d="M27.4879 30.6715C27.9681 31.0388 28.5289 30.2933 28.0544 29.9301C27.5742 29.5627 27.0134 30.3083 27.4879 30.6715Z" fill="#CAE08D"/>
</g>
<g opacity="0.17">
<path d="M25.487 19.6574C25.8407 19.9238 26.2528 19.3823 25.8991 19.1158C25.5454 18.8494 25.1333 19.3909 25.487 19.6574Z" fill="#CAE08D"/>
</g>
<g opacity="0.17">
<path d="M22.0933 20.6392C22.5508 20.9899 23.0966 20.2768 22.6391 19.9261C22.1816 19.5753 21.6358 20.2884 22.0933 20.6392Z" fill="#CAE08D"/>
</g>
<path d="M37.471 24.1571C36.036 24.0139 34.0821 23.2581 32.9342 22.3868C31.7864 21.5155 30.8234 19.8416 30.5792 18.4225C30.4641 17.7571 30.633 15.9621 32.921 13.9325C34.1288 12.86 35.9924 12.7255 37.6061 12.8861C38.7555 13.0035 39.8424 13.4572 40.9098 13.914C41.8583 14.3189 43.1513 15.3133 43.6924 16.1937C45.101 18.4615 45.2935 20.0946 43.874 21.6723C42.4488 23.246 39.5953 24.3688 37.4751 24.1514L37.471 24.1571Z" fill="#CAE08D"/>
<path d="M35.9294 53.9212C38.2221 54.594 40.726 53.1991 42.0454 51.2098C43.3647 49.2206 44.1663 44.3977 44.456 42.0313C45.2317 35.7403 45.5092 29.3812 45.0188 23.0613C44.9424 22.0683 44.883 21.0877 44.8154 20.1185C44.5934 20.6857 44.2711 21.2233 43.8647 21.6735C42.2944 23.4104 39.7725 24.0545 37.4344 23.8258C35.8517 23.6704 34.2902 23.1399 33.0231 22.1817C31.7616 21.2276 30.8167 19.8272 30.541 18.2724C30.1882 21.7993 30.0617 24.9443 29.9857 25.8002C29.5565 30.9117 30.6198 46.1111 32.2737 49.9636C32.9341 51.5037 34.3168 53.4489 35.9294 53.9212Z" fill="#265529"/>
<mask id="mask1_1232_20117" style="mask-type:luminance" maskUnits="userSpaceOnUse" x="29" y="18" width="17" height="37">
<path d="M35.9304 53.9202C38.2231 54.5931 40.727 53.1981 42.0463 51.2088C43.3657 49.2196 44.1672 44.3968 44.457 42.0303C45.2327 35.7393 45.5102 29.3802 45.0198 23.0604C44.9434 22.0674 44.884 21.0868 44.8164 20.1175C44.5943 20.6847 44.2721 21.2223 43.8657 21.6725C42.2954 23.4094 39.7735 24.0535 37.4354 23.8249C35.8527 23.6695 34.2912 23.1389 33.0241 22.1807C31.7626 21.2266 30.8177 19.8262 30.542 18.2714C30.1892 21.7983 30.0626 24.9433 29.9867 25.7992C29.5575 30.9107 30.6208 46.1102 32.2746 49.9626C32.935 51.5027 34.3178 53.4479 35.9304 53.9202Z" fill="white"/>
</mask>
<g mask="url(#mask1_1232_20117)">
<g style="mix-blend-mode:screen" opacity="0.08">
<path d="M37.638 55.8852C35.3237 53.0702 35.8825 49.5112 35.3115 45.9272C34.6527 41.8193 34.7101 37.5998 34.7293 33.4566C34.7496 29.2881 34.7972 25.1655 34.5112 20.9995C34.3094 18.0665 34.374 13.479 30.2849 13.6839C29.1381 13.742 27.9504 14.6556 27.5559 15.722C26.1755 19.3939 27.0904 23.5323 27.2731 27.3627C27.4729 31.5874 27.3974 35.8197 27.816 40.0304C28.2192 44.0475 29.2524 47.9163 31.0281 51.5538C32.0447 53.6313 33.8922 57.2777 36.52 57.4311C36.9362 57.4567 37.2326 57.1693 37.2166 56.7498L37.6282 55.8868L37.638 55.8852Z" fill="#A6D05E"/>
</g>
<g style="mix-blend-mode:screen" opacity="0.08">
<path d="M34.8919 55.1079C32.5776 52.2929 33.1364 48.7339 32.5654 45.1499C31.9066 41.042 31.964 36.8224 31.9832 32.6792C32.0035 28.5107 32.0511 24.3882 31.7651 20.2222C31.5633 17.2891 31.6279 12.7017 27.5388 12.9066C26.392 12.9647 25.2043 13.8783 24.8098 14.9446C23.4294 18.6166 24.3443 22.7549 24.527 26.5853C24.7268 30.81 24.6513 35.0424 25.0699 39.2531C25.4731 43.2702 26.5063 47.1389 28.282 50.7764C29.2986 52.854 31.1461 56.5004 33.7739 56.6537C34.1901 56.6794 34.4865 56.392 34.4705 55.9724L34.8821 55.1094L34.8919 55.1079Z" fill="#A6D05E"/>
</g>
<g style="mix-blend-mode:multiply" opacity="0.16">
<path d="M39.0115 57.4242C44.4417 53.7444 45.0843 43.9368 45.604 37.9973C45.95 34.1096 45.9191 30.1903 45.8464 26.2925C45.7634 22.3612 46.0243 18.316 45.6634 14.4078C45.2654 10.0733 38.927 10.1664 38.2319 14.2943C36.995 21.6118 38.4623 29.5029 38.1456 36.9182C38.0004 40.3274 38.353 44.4378 37.8814 47.8174C37.4316 51.0479 37.5586 52.8068 36.8733 54.642C36.5666 55.4686 38.3619 57.862 39.0157 57.4185L39.0115 57.4242Z" fill="#265529"/>
</g>
<g style="mix-blend-mode:multiply" opacity="0.16">
<path d="M42.2859 56.0365C47.7161 52.3567 48.3588 42.5491 48.8784 36.6096C49.2244 32.7219 49.1936 28.8026 49.1208 24.9048C49.0378 20.9735 49.2987 16.9283 48.9378 13.0201C48.5398 8.68563 42.2014 8.7787 41.5063 12.9066C40.2694 20.2241 41.7367 28.1152 41.42 35.5305C41.2748 38.9397 41.6274 43.0501 41.1559 46.4297C40.706 49.6603 40.833 51.4192 40.1477 53.2544C39.841 54.0809 41.6363 56.4743 42.2901 56.0308L42.2859 56.0365Z" fill="#265529"/>
</g>
<g style="mix-blend-mode:multiply" opacity="0.16">
<path d="M43.7674 54.6947C49.1976 51.0149 49.8402 41.2073 50.3598 35.2678C50.7017 31.3858 50.675 27.4608 50.6023 23.563C50.5193 19.6317 50.7801 15.5865 50.4193 11.6783C50.0213 7.34384 43.6829 7.4369 42.9877 11.5648C41.7508 18.8823 43.2182 26.7734 42.9014 34.1887C42.7563 37.5979 43.1088 41.7083 42.6373 45.0879C42.1875 48.3184 42.3144 50.0774 41.6292 51.9126C41.3224 52.7391 43.1178 55.1325 43.7715 54.689L43.7674 54.6947Z" fill="#265529"/>
</g>
</g>
<g style="mix-blend-mode:screen" opacity="0.17">
<path d="M38.1462 52.3603C38.357 48.4435 37.6455 43.4293 37.2527 39.5412C36.8051 35.0838 36.7634 31.2867 36.6994 26.9353C36.6649 24.5842 33.0277 22.4627 32.1869 25.8596C30.9708 30.7621 31.3884 36.7165 32.5403 41.3053C33.497 45.1357 33.911 49.8898 36.4767 53.0876C36.9074 53.6185 38.1018 53.1611 38.1462 52.3603Z" fill="#A6D05E"/>
</g>
<g opacity="0.66">
<path d="M33.5912 43.8244C33.3651 40.9605 33.2593 38.1582 33.3828 35.28C33.4887 32.8316 33.9566 30.3519 33.5219 27.9174C33.3845 27.1751 32.4112 27.186 32.2418 27.8958C31.6216 30.5248 31.732 33.3565 31.7056 36.0537C31.6802 38.7257 31.9667 41.4948 33.0593 43.9575C33.1858 44.2493 33.6211 44.1413 33.5968 43.8285L33.5912 43.8244Z" fill="white"/>
</g>
<mask id="mask2_1232_20117" style="mask-type:luminance" maskUnits="userSpaceOnUse" x="30" y="12" width="15" height="13">
<path d="M37.47 24.1561C36.035 24.0129 34.0811 23.2571 32.9333 22.3858C31.7854 21.5145 30.8224 19.8406 30.5782 18.4215C30.4631 17.7561 30.632 15.9612 32.9201 13.9315C34.1279 12.8591 35.9914 12.7245 37.6051 12.8851C38.7545 13.0025 39.8415 13.4562 40.9088 13.913C41.8573 14.3179 43.1503 15.3123 43.6914 16.1928C45.1 18.4605 45.2926 20.0936 43.873 21.6714C42.4478 23.245 39.5944 24.3678 37.4742 24.1505L37.47 24.1561Z" fill="white"/>
</mask>
<g mask="url(#mask2_1232_20117)">
<path d="M43.4189 18.2848C43.9617 16.6929 42.2665 15.0929 41.1573 14.1803C39.5917 12.8917 37.4282 12.3043 35.4314 12.4546C30.8527 12.8061 30.0843 18.3473 32.1212 21.5069C34.246 24.8087 40.3727 25.6983 43.25 22.9437C44.6519 21.6049 44.9334 19.918 44.4036 18.0912C43.8992 16.3609 41.7811 14.3746 39.9026 14.7326C39.1166 14.8801 38.6467 15.5965 38.9152 16.3736C39.1558 17.0697 41.467 19.0059 40.5654 19.7895C39.2977 20.8964 36.6302 20.0458 35.7571 18.8453C34.8839 17.6448 35.7019 16.8089 36.9241 16.9099C37.9888 17.0003 39.0908 17.2306 40.1028 17.5603C40.9879 17.8495 41.6963 18.5481 42.5896 18.7305C42.9067 18.7967 43.2996 18.5797 43.4117 18.2708L43.4189 18.2848Z" fill="#C2DC85"/>
<path d="M43.7903 15.8306C41.3655 12.857 36.5257 10.8224 32.9658 13.0099C29.5701 15.0915 28.4479 18.8388 31.5331 21.8251C34.3091 24.5078 38.598 26.6183 42.2492 24.2456C46.2692 21.6297 45.9977 17.6825 42.4493 14.7231C42.1023 14.4355 41.5612 14.7962 41.9484 15.0524C43.4309 16.0374 43.5223 16.5206 43.9715 17.36C45.2236 19.6873 43.3383 22.3576 41.2047 23.1372C36.4525 24.8723 34.5255 23.1728 32.7554 21.6397C28.9989 18.3811 31.7058 13.975 35.0545 13.187C38.1078 12.4701 41.273 14.4994 43.5915 16.5449C43.9075 16.8273 44.0836 16.1919 43.796 15.8348L43.7903 15.8306Z" fill="#4E9743"/>
</g>
<path d="M41.5613 18.8668C42.0436 18.038 41.4617 16.9629 40.8601 16.3683C40.0618 15.5782 39.0968 15.1004 38.0114 14.8475C36.7695 14.5586 35.1713 14.9733 34.3002 15.918C33.2535 17.0558 33.3774 18.6997 34.1013 19.9737C35.4237 22.3 38.4206 23.2953 40.6922 21.7657C42.6869 20.4249 42.891 16.7202 40.0159 16.3692C39.2883 16.2815 38.789 17.0979 39.2165 17.7046C39.7659 18.4782 40.0922 19.0806 39.2128 19.7502C38.1625 20.5469 36.867 19.5679 36.2933 18.6725C35.5012 17.4443 37.1428 17.2087 37.9834 17.344C38.8958 17.4883 40.3138 18.0009 40.7743 18.8487C40.9592 19.1917 41.3625 19.1992 41.5556 18.8626L41.5613 18.8668Z" fill="#DDE9A1"/>
<path d="M37.8053 17.5171C37.2967 17.129 36.927 16.6339 36.5681 16.112C36.2165 15.604 35.9635 15.0204 35.4704 14.635C35.2132 14.4389 34.8131 14.6419 34.86 14.9712C35.0423 16.2844 36.3967 17.4451 37.5709 17.9103C37.8125 18.0084 38.0212 17.6744 37.8095 17.5114L37.8053 17.5171Z" fill="#EBF0BC"/>
<path d="M38.5149 18.4772C39.0483 19.0221 39.8368 18.8591 40.5092 18.7242C41.278 18.5643 42.3273 18.3656 42.7022 17.5887C42.9026 17.1706 42.5081 16.805 42.1161 16.8057C41.4784 16.8096 40.8061 17.3264 40.2164 17.5388C39.6226 17.7569 39.0251 17.8249 38.5196 18.2202C38.4251 18.2902 38.438 18.4037 38.5149 18.4772Z" fill="#EBF0BC"/>
<path d="M37.6678 18.6843C37.2759 19.0669 36.9862 19.6195 36.6314 20.0466C36.2932 20.451 35.8481 21.0379 36.0262 21.593C36.0587 21.7035 36.1837 21.7946 36.2963 21.8072C36.997 21.8839 37.566 21.127 37.9141 20.6256C38.2869 20.0902 38.6169 19.3152 38.258 18.6979C38.1212 18.4679 37.8201 18.5349 37.6678 18.6843Z" fill="#EBF0BC"/>
<path d="M40.7417 19.4069C40.4546 19.3713 40.1814 19.233 39.8959 19.3026C39.6341 19.3634 39.5344 19.6553 39.7451 19.8436C40.0213 20.097 40.3998 20.0431 40.7417 19.9798C41.0541 19.921 41.0907 19.4531 40.7473 19.4111L40.7417 19.4069Z" fill="#BBD073"/>
<path d="M38.4936 20.1887C38.4048 20.5493 38.4631 20.9823 38.6211 21.3145C38.7647 21.6187 39.2263 21.6774 39.3673 21.3289C39.5449 20.8942 39.4954 20.3894 39.2145 20.0111C38.9852 19.7052 38.5675 19.8607 38.4895 20.1944L38.4936 20.1887Z" fill="#BBD073"/>
<path d="M39.7787 20.8486C39.8014 21.0561 39.8169 21.2496 39.9666 21.4021C40.1422 21.5908 40.4117 21.579 40.5445 21.3372C40.6798 21.08 40.5791 20.8244 40.4185 20.6032C40.2078 20.3195 39.7539 20.5007 39.7885 20.847L39.7787 20.8486Z" fill="#BBD073"/>
<path d="M40.071 15.7579C39.6672 15.8107 39.3858 15.8747 39.078 16.1537C38.7439 16.457 38.9381 16.9544 39.3889 16.9444C39.8102 16.9391 40.0539 16.7956 40.3746 16.5346C40.6896 16.2695 40.5197 15.703 40.071 15.7579Z" fill="#BBD073"/>
<path d="M38.4659 16.4186C38.1757 16.1724 38.0652 15.8228 37.7487 15.6008C37.5499 15.4559 37.2246 15.592 37.268 15.8666C37.348 16.3415 37.6258 16.7002 38.0301 16.9688C38.4003 17.2126 38.8103 16.7217 38.4659 16.4186Z" fill="#BBD073"/>
<path d="M38.7702 14.7855C38.5068 14.6457 38.3075 14.4657 37.9967 14.5342C37.7488 14.5879 37.518 14.8449 37.6414 15.1171C37.8226 15.5009 38.1422 15.5516 38.5311 15.6267C39.0495 15.7268 39.192 15.0062 38.766 14.7912L38.7702 14.7855Z" fill="#BBD073"/>
<path d="M36.4073 18.5045C35.9684 18.5578 35.7179 18.627 35.499 19.0228C35.373 19.2435 35.6121 19.4524 35.8171 19.4456C36.178 19.4396 36.3386 19.2789 36.6422 19.101C36.936 18.9246 36.7228 18.4654 36.4073 18.5045Z" fill="#BBD073"/>
<path d="M35.4721 17.5439C35.3161 17.4476 35.202 17.3297 35.0972 17.1752C34.8545 16.8161 34.3025 16.8217 34.0433 17.1535C33.7701 17.4925 33.9111 18.0031 34.3056 18.1778C34.6675 18.3375 34.9965 18.3516 35.3698 18.2331C35.6481 18.1496 35.7287 17.7049 35.4762 17.5382L35.4721 17.5439Z" fill="#BBD073"/>
<path d="M34.2921 18.758C33.9358 18.9843 33.7674 19.2869 33.8929 19.6995C33.9564 19.9107 34.2605 20.0542 34.4655 19.9519C34.8182 19.7664 34.8864 19.5296 34.9752 19.1691C35.0692 18.7776 34.5802 18.5775 34.2921 18.758Z" fill="#BBD073"/>
<g style="mix-blend-mode:screen" opacity="0.17">
<path d="M42.5698 24.7754C42.4278 24.9583 42.7092 25.1808 42.8513 24.9979C42.9933 24.815 42.7119 24.5925 42.5698 24.7754Z" fill="#FFF5CC"/>
</g>
<g style="mix-blend-mode:screen" opacity="0.17">
<path d="M41.2021 29.706C40.8588 30.1414 41.531 30.6748 41.8801 30.2435C42.2235 29.8082 41.5512 29.2748 41.2021 29.706Z" fill="#FFF5CC"/>
</g>
<g style="mix-blend-mode:screen" opacity="0.17">
<path d="M41.5251 33.8815C41.5251 33.8815 41.4998 33.8805 41.49 33.882C41.4296 33.8814 41.3759 33.955 41.395 34.0124C41.3965 34.0222 41.3996 34.0418 41.4012 34.0516C41.4802 34.4563 41.9449 33.8664 41.5349 33.88L41.5251 33.8815Z" fill="#FFF5CC"/>
</g>
<g style="mix-blend-mode:screen" opacity="0.17">
<path d="M42.589 37.6233C42.589 37.6233 42.5838 37.6543 42.5812 37.6698C42.5544 37.8498 42.7434 37.9962 42.9138 37.9295C42.9277 37.9223 42.9416 37.9151 42.9613 37.912C43.4947 37.6933 42.6845 37.0507 42.5988 37.6218L42.589 37.6233Z" fill="#FFF5CC"/>
</g>
<g style="mix-blend-mode:screen" opacity="0.17">
<path d="M41.7306 44.6617C41.521 44.9255 41.9289 45.2489 42.1385 44.9851C42.3482 44.7213 41.9403 44.3979 41.7306 44.6617Z" fill="#FFF5CC"/>
</g>
<g style="mix-blend-mode:screen" opacity="0.17">
<path d="M39.3155 40.9326C39.2065 41.0701 39.4182 41.2331 39.5231 41.1012C39.6279 40.9693 39.4203 40.8007 39.3155 40.9326Z" fill="#FFF5CC"/>
</g>
<g style="mix-blend-mode:screen" opacity="0.17">
<path d="M41.2308 42.1018C41.017 42.3712 41.4378 42.7127 41.6558 42.4375C41.8695 42.1681 41.4487 41.8266 41.2308 42.1018Z" fill="#FFF5CC"/>
</g>
<g style="mix-blend-mode:screen" opacity="0.17">
<path d="M43.1154 40.1002C42.9057 40.364 43.3136 40.6873 43.5233 40.4235C43.7329 40.1598 43.325 39.8364 43.1154 40.1002Z" fill="#FFF5CC"/>
</g>
<g style="mix-blend-mode:screen" opacity="0.17">
<path d="M39.5265 50.1902C39.5265 50.1902 39.5213 50.2212 39.5187 50.2367C39.4971 50.3858 39.6463 50.5032 39.7888 50.4508C39.8027 50.4436 39.8167 50.4365 39.8363 50.4334C40.2804 50.2537 39.6081 49.7203 39.5322 50.1944L39.5265 50.1902Z" fill="#FFF5CC"/>
</g>
<g style="mix-blend-mode:screen" opacity="0.17">
<path d="M41.3346 50.0852C41.252 50.1985 41.4182 50.3284 41.5065 50.2192C41.5892 50.1058 41.4229 49.9759 41.3346 50.0852Z" fill="#FFF5CC"/>
</g>
<g style="mix-blend-mode:screen" opacity="0.17">
<path d="M38.5496 45.1469C38.3952 45.3468 38.7009 45.5956 38.8595 45.3901C39.018 45.1845 38.7082 44.9413 38.5496 45.1469Z" fill="#FFF5CC"/>
</g>
<g style="mix-blend-mode:screen" opacity="0.17">
<path d="M38.7292 33.2666C38.7199 33.3032 38.7065 33.3455 38.6972 33.3821C38.6063 33.6978 39.0829 33.8195 39.1232 33.5017L39.1397 33.3835C39.1728 33.1473 38.7974 33.0299 38.7292 33.2666Z" fill="#FFF5CC"/>
</g>
<g style="mix-blend-mode:screen" opacity="0.17">
<path d="M37.7124 26.7968C37.511 27.0493 37.9076 27.3643 38.109 27.1119C38.3103 26.8594 37.9138 26.5443 37.7124 26.7968Z" fill="#FFF5CC"/>
</g>
<g style="mix-blend-mode:screen" opacity="0.17">
<path d="M43.7661 28.2765L43.7408 28.2754C43.5426 28.2611 43.4155 28.507 43.5875 28.641C43.7594 28.775 43.9618 28.5927 43.9071 28.4053C43.9014 28.4012 43.904 28.3857 43.8983 28.3815C43.8849 28.3284 43.8224 28.2828 43.7677 28.2863L43.7661 28.2765Z" fill="#FFF5CC"/>
</g>
<g style="mix-blend-mode:screen" opacity="0.17">
<path d="M35.1914 27.7977C35.0024 28.0332 35.3706 28.3276 35.5539 28.088C35.7429 27.8525 35.3747 27.5582 35.1914 27.7977Z" fill="#FFF5CC"/>
</g>
<g style="mix-blend-mode:screen" opacity="0.17">
<path d="M31.7316 23.9304C31.5814 24.1247 31.8741 24.3554 32.0301 24.1653C32.1803 23.971 31.8876 23.7403 31.7316 23.9304Z" fill="#FFF5CC"/>
</g>
<g style="mix-blend-mode:screen" opacity="0.17">
<path d="M34.6406 32.7441C34.3303 33.1341 34.9386 33.6122 35.2448 33.2278C35.5551 32.8378 34.9469 32.3597 34.6406 32.7441Z" fill="#FFF5CC"/>
</g>
<g style="mix-blend-mode:screen" opacity="0.17">
<path d="M35.838 38.45C35.7843 38.5237 35.8938 38.6121 35.9516 38.5328C36.0053 38.4591 35.8959 38.3706 35.838 38.45Z" fill="#FFF5CC"/>
</g>
<g style="mix-blend-mode:screen" opacity="0.17">
<path d="M39.0617 38.1442C38.852 38.4079 39.2599 38.7313 39.4696 38.4675C39.6792 38.2037 39.2713 37.8804 39.0617 38.1442Z" fill="#FFF5CC"/>
</g>
<g style="mix-blend-mode:screen" opacity="0.17">
<path d="M35.7561 43.9084C35.4664 44.2701 36.0292 44.715 36.3189 44.3534C36.6086 43.9917 36.0458 43.5468 35.7561 43.9084Z" fill="#FFF5CC"/>
</g>
<g style="mix-blend-mode:screen" opacity="0.17">
<path d="M34.5137 47.5341C34.3247 47.7695 34.6929 48.0639 34.8762 47.8243C35.0652 47.5888 34.697 47.2945 34.5137 47.5341Z" fill="#FFF5CC"/>
</g>
<g style="mix-blend-mode:screen" opacity="0.17">
<path d="M35.7459 51.0693C35.7459 51.0693 35.7449 51.0946 35.7464 51.1044C35.751 51.2293 35.8946 51.3426 36.0165 51.3186C36.0263 51.3171 36.0459 51.314 36.0557 51.3125C36.2855 51.2717 36.395 50.9783 36.1987 50.8179C36.0025 50.6575 35.7381 50.8294 35.75 51.0637L35.7459 51.0693Z" fill="#FFF5CC"/>
</g>
<path d="M41.7293 29.9858C41.7293 29.9858 41.7323 30.005 41.746 29.998C41.754 29.9869 41.7429 29.9788 41.7293 29.9858Z" fill="#203C1F"/>
<path d="M41.7472 32.8613C41.7472 32.8613 41.7588 32.9036 41.7749 32.8815C41.787 32.8649 41.7633 32.8392 41.7472 32.8613Z" fill="#203C1F"/>
<path d="M41.7127 33.8862C41.7127 33.8862 41.7157 33.9054 41.7294 33.8984C41.7374 33.8873 41.7263 33.8792 41.7127 33.8862Z" fill="#203C1F"/>
<path d="M42.7544 37.3017C42.4234 37.72 43.0673 38.2327 43.404 37.8185C43.735 37.4002 43.0911 36.8875 42.7544 37.3017Z" fill="#203C1F"/>
<path d="M43.5012 40.4056L43.5265 40.4067C43.8105 40.4227 44.0021 40.0763 43.7506 39.8844C43.4992 39.6924 43.2136 39.953 43.2864 40.223C43.2921 40.2271 43.2895 40.2426 43.2952 40.2468C43.3174 40.3237 43.4098 40.3997 43.4955 40.4015L43.5012 40.4056Z" fill="#203C1F"/>
<path d="M40.4577 35.9069C40.6194 36.1028 40.9612 35.944 40.8646 35.6827C40.7376 35.3558 40.246 35.6484 40.4577 35.9069Z" fill="#203C1F"/>
<path d="M41.7168 30.1929L41.7622 30.226C42.1645 30.5452 42.6499 29.927 42.2533 29.6119C42.2363 29.5995 42.2249 29.5912 42.2079 29.5788C41.8056 29.2596 41.3202 29.8778 41.7168 30.1929Z" fill="#203C1F"/>
<path d="M41.7761 27.1035C41.9491 27.3077 42.3048 27.1417 42.1969 26.8722C42.0627 26.5313 41.553 26.8368 41.7761 27.1035Z" fill="#203C1F"/>
<path d="M39.7214 43.2066C39.5448 43.425 39.8887 43.693 40.0555 43.4761C40.2223 43.2592 39.8882 42.9896 39.7214 43.2066Z" fill="#203C1F"/>
<path d="M40.5829 46.0813C40.2942 46.3222 40.5291 46.8233 40.9076 46.6739C41.391 46.488 40.9505 45.7678 40.5829 46.0813Z" fill="#203C1F"/>
<path d="M42.3952 32.2585C42.2573 32.4357 42.5274 32.6499 42.6709 32.4768C42.8088 32.2996 42.5388 32.0854 42.3952 32.2585Z" fill="#203C1F"/>
<path d="M40.1912 26.451C40.1045 26.57 40.278 26.7138 40.3745 26.5933C40.4613 26.4742 40.2878 26.3304 40.1912 26.451Z" fill="#203C1F"/>
<path d="M40.2381 26.4954C40.1965 26.5525 40.2782 26.6208 40.324 26.5579C40.3698 26.4951 40.2839 26.4325 40.2381 26.4954Z" fill="#203C1F"/>
<path d="M39.9019 25.0337C39.6205 25.3841 40.172 25.8207 40.4534 25.4704C40.7348 25.12 40.1834 24.6834 39.9019 25.0337Z" fill="#203C1F"/>
<path d="M44.0187 25.8652C44.1964 25.717 44.0554 25.3972 43.8137 25.4902C43.5106 25.6077 43.7884 26.0619 44.0187 25.8652Z" fill="#203C1F"/>
<path d="M43.0709 23.8374C43.0709 23.8374 43.0699 23.8626 43.0673 23.8781C43.0508 24.1872 43.421 24.5265 43.7066 24.2659C43.7148 24.2546 43.7231 24.2432 43.737 24.236C44.3913 23.6367 43.1056 23.1335 43.0709 23.8374Z" fill="#203C1F"/>
<path d="M42.3119 34.8538C41.9767 35.2778 42.6377 35.8029 42.9728 35.3789C43.3079 34.9549 42.647 34.4297 42.3119 34.8538Z" fill="#203C1F"/>
<path d="M38.7632 30.7743C38.5618 31.0268 38.9583 31.3419 39.1597 31.0894C39.3611 30.8369 38.9646 30.5219 38.7632 30.7743Z" fill="#203C1F"/>
<path d="M38.2739 28.855C38.2739 28.855 38.2543 28.8581 38.2501 28.8638C38.197 28.8771 38.1515 28.9394 38.1551 28.9941L38.1541 29.0194C38.1401 29.2175 38.3865 29.345 38.5202 29.1734C38.6539 29.0018 38.4712 28.7992 38.2837 28.8535L38.2739 28.855Z" fill="#203C1F"/>
<path d="M39.2293 28.4147C38.9866 28.7238 39.4642 29.1066 39.7069 28.7975C39.9496 28.4884 39.472 28.1055 39.2293 28.4147Z" fill="#203C1F"/>
<path d="M36.3375 24.8659C36.1155 25.1467 36.5518 25.4907 36.7738 25.2099C36.9959 24.9291 36.5596 24.5851 36.3375 24.8659Z" fill="#203C1F"/>
<path d="M30.8493 21.9782C30.7993 22.0467 30.8966 22.1176 30.9523 22.0533C31.0022 21.9847 30.9049 21.9138 30.8493 21.9782Z" fill="#203C1F"/>
<path d="M31.1599 21.9682C31.1599 21.9682 31.1289 21.963 31.1134 21.9604C31.0613 21.9484 31.0158 22.0108 31.0391 22.0624C31.0463 22.0764 31.0535 22.0903 31.0566 22.1099C31.1382 22.3083 31.3727 22.0105 31.1615 21.978L31.1599 21.9682Z" fill="#203C1F"/>
</svg>
