<svg  viewBox="0 0 26 21" fill="none" xmlns="http://www.w3.org/2000/svg">
<path d="M18.5398 1.01631C18.1756 1.00519 17.8087 1.04967 17.4556 1.16086C16.6439 1.41383 15.935 1.92812 15.3373 2.50634C13.7361 4.04919 12.7187 6.1508 12.1015 8.23018C11.5733 10.0149 11.337 11.8913 11.4594 13.7483C11.5761 15.5386 12.4546 17.1954 13.7834 18.3546C17.2749 21.3986 23.0599 20.2644 24.9642 15.9389C25.2672 15.2467 25.4507 14.5044 25.5007 13.7483C25.6647 11.2353 25.1838 8.6694 24.1719 6.35095C23.3852 4.54679 22.2065 2.63977 20.4385 1.58897C19.8658 1.24704 19.2042 1.03854 18.537 1.01908L18.5398 1.01631Z" fill="#FED4B0"/>
<path d="M18.4482 20.1094C16.7191 20.1094 15.0428 19.5061 13.7585 18.3858C12.3852 17.1877 11.5318 15.4975 11.4206 13.7489C11.301 11.9253 11.5179 10.0628 12.0655 8.21689C12.7827 5.79281 13.8752 3.86077 15.3124 2.47359C16.0213 1.78973 16.7219 1.34494 17.4474 1.11977C17.7949 1.01135 18.1646 0.964099 18.5455 0.975219C19.2043 0.994678 19.8687 1.19483 20.4664 1.55066C21.9564 2.43745 23.2185 4.04424 24.2165 6.33211C25.2478 8.69504 25.7093 11.2609 25.5481 13.7489C25.498 14.5106 25.3173 15.2528 25.0088 15.9534C24.1164 17.9799 22.3234 19.4283 20.0828 19.9287C19.5435 20.0482 18.9958 20.1094 18.4537 20.1094H18.4482ZM18.4315 1.05583C18.0979 1.05583 17.7727 1.10309 17.4669 1.20039C16.7524 1.42278 16.0658 1.85923 15.3653 2.53475C13.9392 3.91081 12.855 5.83173 12.1406 8.24191C11.5985 10.0767 11.3816 11.9281 11.4984 13.7434C11.6096 15.4697 12.4519 17.1404 13.8085 18.3219C15.4792 19.7785 17.8144 20.3484 20.055 19.848C22.2678 19.3532 24.0414 17.9216 24.9226 15.92C25.2284 15.2278 25.4063 14.4939 25.4563 13.7434C25.6176 11.2692 25.1589 8.71727 24.1331 6.36269C23.1435 4.0915 21.8925 2.49583 20.4164 1.62016C19.8298 1.26989 19.1793 1.07529 18.5344 1.05583C18.4982 1.05583 18.4649 1.05583 18.4287 1.05583H18.4315Z" fill="#B17C4B"/>
<g style="mix-blend-mode:multiply" opacity="0.63">
<path d="M24.1747 6.34524C23.388 4.54108 22.2093 2.63407 20.4413 1.58326C19.8686 1.24133 19.207 1.03284 18.5398 1.01338C18.1756 1.00226 17.8087 1.04673 17.4556 1.15793C16.6439 1.4109 15.935 1.92519 15.3373 2.50341C13.7361 4.04626 12.7187 6.14787 12.1015 8.22724C11.5733 10.0119 11.337 11.8884 11.4594 13.7454C11.5761 15.5356 12.4546 17.1925 13.7834 18.3517C17.2749 21.3957 23.0599 20.2615 24.9642 15.9359C25.2672 15.2437 25.4507 14.5015 25.5007 13.7454C25.6647 11.2323 25.1866 8.66647 24.1719 6.34803L24.1747 6.34524ZM24.5666 11.199C24.5249 11.7828 24.3637 12.3554 24.0968 12.8892C22.4261 16.2278 17.3472 17.1007 14.2838 14.7517C13.1162 13.8566 12.3434 12.5778 12.2433 11.199C12.1377 9.76731 12.3434 8.32176 12.8076 6.94292C13.3469 5.33892 14.2421 3.71823 15.6459 2.52843C16.1713 2.08364 16.7912 1.68611 17.5057 1.49152C17.817 1.40534 18.1367 1.37198 18.4564 1.38032C19.043 1.397 19.624 1.55546 20.1271 1.81955C21.6783 2.63128 22.7124 4.10185 23.4019 5.49181C24.2914 7.27929 24.7112 9.25859 24.5666 11.199Z" fill="#FCC59C"/>
</g>
<g style="mix-blend-mode:multiply" opacity="0.63">
<path d="M13.5757 16.6531C13.559 16.6197 13.5339 16.589 13.506 16.564C13.481 16.5417 13.4503 16.5222 13.4169 16.5138C13.3752 16.5055 13.3306 16.5222 13.3055 16.5556C13.2888 16.5612 13.2749 16.5751 13.2665 16.589C13.2331 16.6392 13.2387 16.7088 13.2498 16.7645C13.261 16.8202 13.2833 16.8787 13.3278 16.9149C13.3946 16.9706 13.4949 16.9316 13.5506 16.8759C13.5812 16.8452 13.6007 16.8007 13.6035 16.7589C13.6035 16.7199 13.5952 16.6837 13.5784 16.6503L13.5757 16.6531Z" fill="#FCC59C"/>
</g>
<g style="mix-blend-mode:multiply" opacity="0.63">
<path d="M15.5158 14.9463C15.4461 14.9463 15.3737 14.9936 15.3515 15.0605C15.332 15.1217 15.3682 15.1802 15.435 15.1802C15.5018 15.1802 15.577 15.1329 15.5993 15.066C15.6188 15.0048 15.5826 14.9463 15.5158 14.9463Z" fill="#FCC59C"/>
</g>
<g style="mix-blend-mode:multiply" opacity="0.63">
<path d="M16.2808 18.249C16.2753 18.2295 16.2669 18.21 16.2558 18.1905C16.2502 18.1794 16.2418 18.1683 16.2335 18.1599C16.2196 18.146 16.2056 18.1321 16.1889 18.1209C16.1611 18.107 16.1388 18.0986 16.1054 18.0986C16.0915 18.0986 16.0747 18.0986 16.0608 18.1014C16.0497 18.1014 16.0385 18.107 16.0274 18.1098C15.9968 18.1181 15.9689 18.1321 15.9439 18.1515C15.9216 18.1683 15.9021 18.185 15.8854 18.2045C15.8742 18.2128 15.8659 18.2239 15.8575 18.2351C15.8603 18.2295 15.8659 18.2239 15.8687 18.2184C15.8603 18.2267 15.8547 18.2379 15.8492 18.2518C15.8436 18.2629 15.8353 18.2769 15.8297 18.288C15.8213 18.3075 15.8185 18.327 15.813 18.3493C15.8074 18.3883 15.8185 18.4245 15.8353 18.4607C15.8492 18.4857 15.8715 18.5108 15.8937 18.5275C15.9049 18.5359 15.9188 18.5414 15.9327 18.5498C15.9466 18.5637 15.9606 18.5748 15.9773 18.586C15.9912 18.5943 16.0051 18.5999 16.0218 18.6055C16.0469 18.611 16.0692 18.611 16.0942 18.6055C16.1221 18.5999 16.1472 18.5888 16.1722 18.5721C16.1973 18.5553 16.2168 18.5331 16.2335 18.508C16.2474 18.4913 16.2558 18.4718 16.2641 18.4523C16.2697 18.4384 16.2753 18.4217 16.278 18.405C16.2836 18.3743 16.292 18.3437 16.292 18.3103C16.292 18.288 16.292 18.2657 16.2836 18.2462L16.2808 18.249Z" fill="#FCC59C"/>
</g>
<g style="mix-blend-mode:multiply" opacity="0.63">
<path d="M17.8484 19.0283C17.7398 19.0283 17.6395 19.2205 17.7816 19.2205C17.8902 19.2205 17.9904 19.0283 17.8484 19.0283Z" fill="#FCC59C"/>
</g>
<g style="mix-blend-mode:multiply" opacity="0.63">
<path d="M15.1042 17.3848C14.9928 17.3848 14.887 17.5825 15.0374 17.5825C15.1488 17.5825 15.2546 17.3848 15.1042 17.3848Z" fill="#FCC59C"/>
</g>
<g style="mix-blend-mode:multiply" opacity="0.63">
<path d="M24.7501 13.8963C24.7362 13.8101 24.6834 13.7267 24.6111 13.6794C24.5027 13.6099 24.3526 13.6099 24.2386 13.6627C24.1497 13.7044 24.0718 13.7739 24.0385 13.8712C24.0218 13.9129 24.019 13.9658 24.0301 14.013C24.0134 14.0519 24.0023 14.0909 23.9995 14.1325C23.994 14.2271 24.0329 14.3188 24.108 14.3744C24.1858 14.43 24.2942 14.4383 24.386 14.4133C24.5111 14.38 24.6139 14.3077 24.689 14.202C24.7501 14.1159 24.7696 14.0019 24.7529 13.899L24.7501 13.8963Z" fill="#FCC59C"/>
</g>
<g style="mix-blend-mode:multiply" opacity="0.63">
<path d="M22.9076 15.0225C22.7879 15.0225 22.6737 15.2369 22.8352 15.2369C22.955 15.2369 23.0692 15.0225 22.9076 15.0225Z" fill="#FCC59C"/>
</g>
<g style="mix-blend-mode:multiply" opacity="0.63">
<path d="M21.0178 15.9812C21.0122 15.945 20.9955 15.9116 20.9816 15.8809C20.9705 15.8642 20.9538 15.8503 20.9343 15.8447C20.9148 15.8336 20.8953 15.828 20.873 15.8308C20.8479 15.8308 20.8229 15.8336 20.7978 15.8391C20.7727 15.8447 20.7449 15.8531 20.7226 15.8614C20.6892 15.8726 20.6613 15.8893 20.6307 15.9088C20.5695 15.9477 20.511 16.0118 20.4887 16.0814C20.4776 16.1176 20.472 16.1594 20.4831 16.1984C20.4915 16.2318 20.5138 16.2764 20.5472 16.2959C20.5778 16.3126 20.6084 16.3265 20.6446 16.3265C20.6641 16.3265 20.6864 16.3265 20.7087 16.3209C20.7421 16.3154 20.7727 16.2986 20.8034 16.2791C20.8953 16.2597 20.9733 16.1928 21.0095 16.1037C21.0095 16.1009 21.0095 16.0981 21.0122 16.0953C21.0178 16.0786 21.0206 16.0619 21.0234 16.0452C21.0234 16.0257 21.0234 16.0035 21.0206 15.984L21.0178 15.9812Z" fill="#FCC59C"/>
</g>
<g style="mix-blend-mode:multiply" opacity="0.63">
<path d="M18.5489 15.2948C18.5489 15.2948 18.5434 15.2781 18.5378 15.2697C18.5378 15.2697 18.5211 15.253 18.5183 15.2502C18.5044 15.2391 18.4821 15.2363 18.4654 15.2363C18.4403 15.2363 18.4236 15.2419 18.4013 15.2502C18.4125 15.2475 18.4208 15.2447 18.432 15.2391C18.418 15.2391 18.4041 15.2447 18.393 15.2502C18.3818 15.2558 18.3707 15.2614 18.3596 15.2697C18.3596 15.2697 18.3596 15.2697 18.3568 15.2697C18.354 15.2697 18.3512 15.2753 18.3456 15.2781C18.3317 15.2781 18.315 15.2837 18.3011 15.292C18.2788 15.3087 18.2593 15.3394 18.2732 15.3672C18.2732 15.3672 18.2732 15.3672 18.2732 15.3644C18.2732 15.37 18.276 15.3756 18.2788 15.3811C18.2788 15.3895 18.2732 15.3978 18.2732 15.4062C18.2732 15.409 18.2732 15.4118 18.2732 15.4146C18.2732 15.4257 18.2732 15.434 18.2732 15.448C18.2816 15.4842 18.3178 15.5037 18.354 15.5037C18.3985 15.5037 18.4403 15.4814 18.471 15.4508C18.4765 15.4452 18.4793 15.4396 18.4821 15.434C18.4821 15.434 18.4849 15.4313 18.4877 15.4285C18.5016 15.4146 18.5127 15.3978 18.5239 15.3839C18.5322 15.37 18.5406 15.3561 18.5461 15.3394C18.5517 15.3227 18.5545 15.3032 18.5489 15.2837V15.2948Z" fill="#FCC59C"/>
</g>
<g style="mix-blend-mode:multiply" opacity="0.63">
<path d="M19.2857 18.2912C19.2802 18.2661 19.2718 18.241 19.2663 18.216C19.2635 18.1993 19.2551 18.1853 19.2412 18.1742C19.2301 18.1603 19.2161 18.1519 19.1994 18.1491C19.1883 18.1491 19.1744 18.1463 19.1632 18.1436C19.1354 18.1436 19.1103 18.1491 19.0852 18.1603C19.0852 18.1603 19.0852 18.1603 19.0825 18.1603C19.0685 18.1686 19.0546 18.177 19.0407 18.1853C19.0379 18.1853 19.0323 18.1909 19.0295 18.1937C19.0295 18.1937 19.0295 18.1937 19.0268 18.1937C19.0156 18.1992 19.0045 18.2048 18.9933 18.2132C18.9738 18.2271 18.9571 18.241 18.9432 18.2605C18.9321 18.2717 18.9265 18.2828 18.9209 18.2967C18.9126 18.3079 18.9098 18.3218 18.907 18.3329C18.9014 18.3441 18.9014 18.358 18.907 18.3691C18.907 18.3858 18.9126 18.4025 18.9237 18.4192C18.9293 18.4276 18.9349 18.436 18.9376 18.4471L18.9237 18.4137C18.9321 18.436 18.9432 18.4555 18.9544 18.4749C18.9655 18.4944 18.985 18.5056 19.0017 18.5195C19.0212 18.5306 19.0407 18.5362 19.063 18.5362C19.0741 18.5446 19.088 18.5501 19.1047 18.5501C19.1159 18.5529 19.127 18.5529 19.1382 18.5501C19.1576 18.5501 19.1744 18.5446 19.1911 18.5362C19.2161 18.5251 19.2356 18.5084 19.2551 18.4917C19.269 18.4777 19.2774 18.4638 19.2857 18.4471C19.2941 18.4332 19.2997 18.4165 19.2997 18.3998C19.2997 18.3636 19.2997 18.3246 19.2913 18.2884L19.2857 18.2912Z" fill="#FCC59C"/>
</g>
<g style="mix-blend-mode:multiply" opacity="0.63">
<path d="M18.3317 19.3809C18.2092 19.3809 18.095 19.5981 18.2565 19.5981C18.379 19.5981 18.4932 19.3809 18.3317 19.3809Z" fill="#FCC59C"/>
</g>
<g style="mix-blend-mode:multiply" opacity="0.63">
<path d="M21.6706 18.5887C21.6706 18.5887 21.6706 18.5804 21.6678 18.5776C21.6678 18.5692 21.6623 18.5609 21.6623 18.5525C21.6623 18.5442 21.6567 18.533 21.6539 18.5247C21.6483 18.508 21.6428 18.494 21.6344 18.4773C21.6288 18.469 21.6205 18.4606 21.6093 18.455C21.6093 18.455 21.5898 18.4439 21.5787 18.4411C21.5787 18.4411 21.5453 18.4355 21.5425 18.4355C21.5425 18.4355 21.5174 18.4355 21.5035 18.4383L21.4645 18.4523C21.4367 18.4634 21.4283 18.4718 21.4088 18.4885C21.3893 18.5052 21.381 18.5107 21.3671 18.5358C21.3671 18.5358 21.3671 18.5358 21.3671 18.5414C21.3615 18.5525 21.3559 18.5664 21.3504 18.5776C21.3504 18.5776 21.3504 18.5776 21.3504 18.5804C21.3504 18.5859 21.3476 18.5915 21.3448 18.5971C21.342 18.611 21.3392 18.6249 21.3364 18.6361C21.3364 18.6361 21.3364 18.6388 21.3364 18.6416C21.3364 18.6416 21.3364 18.6472 21.3364 18.65L21.3392 18.6862L21.3531 18.7168L21.3782 18.7419L21.4088 18.7558C21.4116 18.7558 21.4422 18.7614 21.445 18.7614C21.445 18.7614 21.459 18.7614 21.4701 18.7614C21.484 18.7642 21.4952 18.7642 21.5091 18.7614C21.5147 18.7614 21.5202 18.7614 21.5258 18.7614C21.5509 18.7558 21.5731 18.7447 21.5954 18.7307C21.6121 18.7196 21.626 18.7057 21.6372 18.6918C21.6483 18.6778 21.6567 18.6639 21.6623 18.6472C21.6706 18.6277 21.6706 18.6082 21.665 18.5859L21.6706 18.5887Z" fill="#FCC59C"/>
</g>
<g style="mix-blend-mode:multiply" opacity="0.63">
<path d="M22.7852 17.2568C22.7127 17.2568 22.6459 17.3849 22.7406 17.3849C22.813 17.3849 22.8798 17.2568 22.7852 17.2568Z" fill="#FCC59C"/>
</g>
<g style="mix-blend-mode:multiply" opacity="0.63">
<path d="M23.2358 7.48242C23.1662 7.48242 23.091 7.53255 23.0687 7.59939C23.0492 7.66065 23.0854 7.71913 23.1523 7.71913C23.2191 7.71913 23.2971 7.669 23.3194 7.60217C23.3389 7.5409 23.3027 7.48242 23.2358 7.48242Z" fill="#FCC59C"/>
</g>
<g style="mix-blend-mode:multiply" opacity="0.63">
<path d="M23.911 8.2168C23.7829 8.2168 23.6632 8.44515 23.833 8.44515C23.9611 8.44515 24.0809 8.2168 23.911 8.2168Z" fill="#FCC59C"/>
</g>
<g style="mix-blend-mode:multiply" opacity="0.63">
<path d="M20.1278 2.02637C20.0498 2.02637 19.9663 2.08206 19.944 2.15725C19.9217 2.22688 19.9635 2.29093 20.0387 2.29093C20.1138 2.29093 20.2002 2.23523 20.2225 2.16004C20.2447 2.09042 20.203 2.02637 20.1278 2.02637Z" fill="#FCC59C"/>
</g>
<g style="mix-blend-mode:multiply" opacity="0.63">
<path d="M13.2054 6.69898C13.2054 6.69898 13.1943 6.67671 13.1831 6.66835C13.172 6.66 13.1581 6.65722 13.1469 6.65443C13.133 6.65165 13.1191 6.65165 13.1024 6.65443C13.0912 6.65722 13.0829 6.66 13.0717 6.66557C13.0495 6.67392 13.0327 6.68785 13.016 6.70456C13.0105 6.71291 13.0021 6.72127 12.9965 6.72962C12.9854 6.74633 12.9798 6.76304 12.9771 6.78253V6.81038C12.9771 6.81038 12.9771 6.83545 12.9854 6.84659C12.9882 6.85773 12.9965 6.86886 13.0077 6.87722C13.0188 6.88557 13.0327 6.88835 13.0439 6.89114C13.0578 6.89392 13.0717 6.89392 13.0884 6.89114C13.0996 6.88835 13.1079 6.88557 13.1191 6.88C13.1414 6.87165 13.1581 6.85772 13.1748 6.84101L13.1943 6.81595C13.2054 6.79924 13.211 6.78253 13.2138 6.76304V6.73519C13.2138 6.73519 13.2138 6.71012 13.2054 6.69898Z" fill="#FCC59C"/>
</g>
<g style="mix-blend-mode:multiply" opacity="0.63">
<path d="M12.116 10.0849C12.116 10.0849 12.1104 10.0682 12.1021 10.0626C12.0965 10.057 12.0882 10.0515 12.0798 10.0487H12.0687C12.0687 10.0487 12.0659 10.0487 12.0631 10.0487C12.0575 10.0487 12.0464 10.0459 12.0436 10.0459C12.0352 10.0459 12.0297 10.0459 12.0213 10.0459C12.013 10.0459 12.0074 10.0487 11.999 10.0543C11.9851 10.0598 11.9712 10.071 11.9601 10.0821C11.9489 10.0932 11.9433 10.1044 11.9378 10.1183C11.9322 10.1294 11.9322 10.1434 11.9378 10.1545C11.9406 10.1657 11.9489 10.1768 11.9573 10.1824C11.9573 10.1824 11.9628 10.1851 11.9656 10.1851C11.974 10.1907 11.9823 10.1935 11.9935 10.1907H12.0157C12.0157 10.1907 12.0157 10.1907 12.0185 10.1907C12.0185 10.1907 12.0213 10.1907 12.0241 10.1907H12.0352C12.0352 10.1907 12.0492 10.1851 12.0547 10.1824C12.0659 10.1768 12.0742 10.1712 12.0826 10.1629C12.0882 10.1573 12.0937 10.1545 12.0993 10.1462C12.1076 10.1378 12.1104 10.1294 12.116 10.1183C12.116 10.1127 12.116 10.1072 12.1188 10.0988C12.1188 10.0932 12.1188 10.0877 12.1188 10.0821L12.116 10.0849Z" fill="#FCC59C"/>
</g>
<g style="mix-blend-mode:multiply" opacity="0.63">
<path d="M12.544 9.97949C12.48 9.97949 12.4187 10.0965 12.505 10.0965C12.5691 10.0965 12.6303 9.97949 12.544 9.97949Z" fill="#FCC59C"/>
</g>
<g style="mix-blend-mode:multiply" opacity="0.63">
<path d="M12.0159 13.4658C11.9101 13.4658 11.8126 13.6524 11.9518 13.6524C12.0576 13.6524 12.1551 13.4658 12.0159 13.4658Z" fill="#FCC59C"/>
</g>
<g style="mix-blend-mode:multiply" opacity="0.63">
<path d="M12.5689 14.8164C12.4965 14.8164 12.4157 14.8665 12.3935 14.9389C12.3712 15.003 12.4102 15.067 12.4826 15.067C12.555 15.067 12.6357 15.0169 12.658 14.9445C12.6803 14.8805 12.6413 14.8164 12.5689 14.8164Z" fill="#FCC59C"/>
</g>
<g style="mix-blend-mode:screen" opacity="0.39">
<path d="M18.7956 1.98436C18.5232 1.59795 18.0728 1.47286 17.6281 1.5924C16.8858 1.79533 16.1992 2.40413 15.6321 2.89895C14.9371 3.50497 14.3672 4.27223 13.903 5.06728C13.4165 5.90126 13.0384 6.81029 12.8327 7.75546C12.7382 8.18635 12.6715 8.62557 12.6631 9.06758C12.6548 9.42341 12.6937 9.82094 12.9217 10.11C13.183 10.4381 13.6278 10.5576 14.0308 10.5465C14.4645 10.5354 14.8871 10.4019 15.2818 10.2268C16.0407 9.88487 16.7218 9.36503 17.2611 8.73399C18.3369 7.47191 18.9096 5.78728 19.1042 4.15825C19.1876 3.46606 19.2182 2.59594 18.804 1.99548C18.804 1.9927 18.7984 1.98992 18.7984 1.98714L18.7956 1.98436Z" fill="#FED4B0"/>
</g>
<path d="M15.5629 3.25245L15.8937 2.06543C15.8937 2.06543 17.7395 4.58125 16.5386 11.4226C15.7686 15.8065 12.3354 19.3426 7.75687 19.5928C6.53371 19.6595 5.29109 19.4427 4.19858 18.8672C3.82608 18.6698 2.5501 17.8081 2.56956 17.3577C2.57512 17.1882 3.49527 17.7024 3.55643 17.5468C3.95673 16.5238 4.63503 15.5953 5.27997 14.7168C7.11193 12.2232 9.20521 9.9159 11.3124 7.65306C12.6801 6.18526 14.0673 4.73971 15.4878 3.32473C15.5045 3.30805 15.5545 3.27469 15.5629 3.24967V3.25245Z" fill="#F2F2F2"/>
<path d="M10.4645 19.0778C9.60833 19.3975 8.70208 19.5866 7.75969 19.6366C6.45869 19.7061 5.21885 19.4559 4.17916 18.9055C3.83723 18.7248 2.50565 17.8463 2.52511 17.3543C2.52511 17.3293 2.53901 17.307 2.55847 17.2931C2.62519 17.2486 2.78364 17.3015 3.0533 17.4015C3.20897 17.4599 3.47306 17.5544 3.51754 17.5266C3.92063 16.4925 4.62395 15.5362 5.24387 14.6911C7.12587 12.128 9.25806 9.7957 11.2818 7.62459C12.7496 6.04838 14.1173 4.63063 15.4573 3.29349C15.4628 3.28793 15.4712 3.27959 15.4823 3.27125C15.4934 3.26291 15.5156 3.24345 15.5212 3.23511L15.877 1.96191L15.9326 2.03697C15.9521 2.06199 16.4024 2.69025 16.7138 4.16638C16.9973 5.52576 17.2086 7.8859 16.5859 11.4275C16.2051 13.6042 15.1459 15.6141 13.6114 17.0874C12.6857 17.9742 11.6238 18.6442 10.4673 19.0751L10.4645 19.0778ZM2.61407 17.3682C2.61407 17.7907 3.84279 18.6275 4.21808 18.8276C5.24387 19.3697 6.46703 19.6171 7.75135 19.5476C9.94192 19.4281 11.9462 18.5552 13.5419 17.0263C15.0653 15.5668 16.1133 13.5736 16.4914 11.4164C17.1085 7.89424 16.9028 5.548 16.622 4.19696C16.3774 3.03218 16.0383 2.39002 15.9076 2.17596C15.6268 3.17673 15.6046 3.25735 15.6018 3.26569C15.5935 3.29349 15.5685 3.31573 15.5323 3.34353C15.524 3.34909 15.5184 3.35465 15.5156 3.35743C14.1757 4.69456 12.8108 6.10954 11.3402 7.68575C9.31922 9.85408 7.18703 12.1864 5.31059 14.7439C4.69344 15.5835 3.99291 16.537 3.5926 17.5628C3.54812 17.6768 3.35353 17.6128 3.01438 17.4877C2.87538 17.4349 2.66689 17.3598 2.60851 17.3682H2.61407Z" fill="#DCDDDE"/>
<g style="mix-blend-mode:multiply">
<path d="M5.69137 19.1055C6.46975 19.2194 7.25646 19.2083 8.02928 19.0526C8.89383 18.8775 9.72502 18.5384 10.4978 18.1186C11.8322 17.393 13.0053 16.4201 13.9894 15.2636C14.9679 14.1127 15.7574 12.8034 16.3384 11.4107C16.4635 11.1104 16.5803 10.8046 16.6859 10.4989C17.5699 4.35525 15.8936 2.06738 15.8936 2.06738L15.5628 3.25441C15.5573 3.27665 15.5045 3.31279 15.4878 3.32947C14.0672 4.74444 12.6801 6.19277 11.3124 7.65779C9.20518 9.92064 7.10913 12.2252 5.27994 14.7215C4.63501 15.6 3.95671 16.5285 3.5564 17.5515C3.49524 17.7072 2.57787 17.1929 2.56953 17.3625C2.55841 17.6377 3.02544 18.063 3.47856 18.3994C4.15964 18.7802 4.94636 18.9998 5.69137 19.1082V19.1055Z" fill="#F2F2F2"/>
</g>
<path d="M1.78316 9.83159C1.49961 10.5544 1.28556 11.3133 1.15768 12.1056C0.940846 13.4371 1.01868 14.8382 1.54965 16.078C2.40308 18.0629 4.47689 19.1387 6.59241 19.1054C10.943 19.0331 14.0398 15.1468 15.4381 11.3828C16.0914 9.62309 16.4611 7.76055 16.5445 5.88411C16.6112 4.34682 16.5695 2.4537 15.3297 1.33895C15.3158 1.32783 15.3019 1.31393 15.288 1.30281C15.2741 1.28891 15.2602 1.27502 15.2463 1.2639C14.265 0.382663 12.7888 0.493861 11.6074 0.813551C9.79209 1.30282 8.1297 2.35084 6.68414 3.5323C4.58531 5.24751 2.76169 7.33523 1.78038 9.83159H1.78316Z" fill="white"/>
<path d="M9.03825 18.6829C8.24598 18.9776 7.42312 19.1361 6.59193 19.15C4.31796 19.1889 2.32199 17.988 1.50747 16.0948C1.00987 14.9412 0.873651 13.5596 1.11272 12.0973C1.23782 11.3245 1.44909 10.5573 1.74098 9.81503C2.62222 7.56886 4.27904 5.44222 6.65865 3.49629C8.37107 2.09521 9.98621 1.20564 11.5986 0.769193C12.7105 0.468963 14.2534 0.304949 15.2792 1.23066C15.2875 1.239 15.2986 1.24734 15.307 1.25846L15.332 1.2807C15.332 1.2807 15.3514 1.29738 15.3626 1.30572C16.5746 2.39822 16.6636 4.23296 16.5913 5.88701C16.5079 7.79125 16.1326 9.64545 15.4821 11.3996C14.7204 13.4456 13.5389 15.3165 12.1545 16.6592C11.1982 17.5877 10.1474 18.2687 9.04103 18.6802L9.03825 18.6829ZM1.82438 9.84839C1.53527 10.5851 1.324 11.3468 1.20168 12.114C0.968168 13.5596 1.1016 14.9245 1.59087 16.0615C2.39148 17.9213 4.3541 19.0972 6.58915 19.061C9.48026 19.0138 13.311 16.9677 15.3931 11.369C16.0409 9.62599 16.4134 7.78013 16.4968 5.88423C16.6246 2.97644 15.963 1.9729 15.2986 1.37522C15.2903 1.36688 15.2819 1.36132 15.2708 1.35298L15.2402 1.32518C15.2402 1.32518 15.2236 1.3085 15.2152 1.30016C14.22 0.402246 12.7105 0.56626 11.618 0.860931C10.0196 1.29182 8.41555 2.17861 6.71147 3.56857C4.34298 5.50339 2.70005 7.6189 1.8216 9.85117L1.82438 9.84839Z" fill="#DCDDDE"/>
<g style="mix-blend-mode:multiply">
<path d="M16.3768 5.96723C16.1544 6.7317 15.8125 7.50452 15.2593 8.09108C15.0147 8.34961 14.7284 8.56922 14.3948 8.70544C14.0918 8.83053 13.7387 8.89725 13.419 8.80273C13.1132 8.711 12.8658 8.49973 12.6573 8.26621C12.421 7.99934 12.2264 7.69633 12.0263 7.40166C11.8345 7.11811 11.6399 6.82622 11.3897 6.58993C11.1006 6.31749 10.7058 6.14236 10.3278 6.03394C9.4215 5.77541 8.44019 5.90607 7.58954 6.28413C7.14475 6.48151 6.74167 6.75672 6.35248 7.04583C5.96885 7.33216 5.6019 7.6463 5.26831 7.991C4.59557 8.68876 4.06739 9.51161 3.68654 10.4012C3.28623 11.3436 3.07218 12.3638 3.14724 13.3868C3.18894 13.9623 3.31125 14.5182 3.53087 15.0548C3.75326 15.5941 4.03959 16.1139 4.19249 16.6782C4.20361 16.7199 4.18137 16.7616 4.13689 16.7672C4.05905 16.7783 3.97843 16.7839 3.89781 16.7866C3.32237 16.8117 2.76361 16.6365 2.31049 16.2779C1.84902 15.911 1.52099 15.3967 1.27914 14.8657C1.2152 14.7239 1.15682 14.5822 1.104 14.4348C1.17906 14.9992 1.32084 15.5551 1.54601 16.0805C2.39944 18.0654 4.47326 19.1412 6.58877 19.1079C10.9393 19.0356 14.0362 15.1493 15.4344 11.3853C16.0877 9.62559 16.4575 7.76305 16.5409 5.88661C16.552 5.65588 16.5575 5.41959 16.5603 5.17773C16.5103 5.44461 16.4491 5.7087 16.3741 5.96723H16.3768Z" fill="#F2F2F2"/>
</g>
<g style="mix-blend-mode:multiply">
<path d="M11.908 13.6499C13.4646 10.8544 13.0148 7.63527 10.9035 6.45964C8.79219 5.28401 5.81879 6.59711 4.26224 9.39254C2.70568 12.188 3.15542 15.4071 5.26674 16.5828C7.37807 17.7584 10.3515 16.4453 11.908 13.6499Z" fill="#DBDDDD"/>
</g>
<path d="M11.6655 13.5147C13.1354 10.8748 12.71 7.83447 10.7154 6.72382C8.72075 5.61317 5.91218 6.85281 4.44227 9.49263C2.97236 12.1325 3.39773 15.1728 5.39235 16.2835C7.38698 17.3941 10.1955 16.1545 11.6655 13.5147Z" fill="#F47822"/>
<path d="M8.46797 16.4676C7.36156 16.879 6.27184 16.8345 5.36837 16.3314C3.35571 15.2111 2.92205 12.1365 4.40096 9.4761C5.87987 6.8185 8.72372 5.56753 10.7364 6.69062C12.749 7.81092 13.1827 10.8855 11.7038 13.5459C10.9866 14.8302 9.93576 15.831 8.74318 16.3564C8.65144 16.3981 8.55971 16.4342 8.46797 16.4676ZM7.66736 6.64337C6.44141 7.09927 5.26829 8.10838 4.48157 9.52058C3.0249 12.1337 3.44467 15.1527 5.41285 16.2507C6.36358 16.7817 7.53392 16.7873 8.70704 16.2702C9.88295 15.7504 10.9199 14.7663 11.6259 13.4986C13.0826 10.8855 12.6629 7.86652 10.6947 6.76846C9.78843 6.26529 8.70982 6.2514 7.66736 6.64058V6.64337Z" fill="#AB5526"/>
<g style="mix-blend-mode:screen" opacity="0.6">
<path d="M10.1254 7.03499C11.8045 7.96904 12.1631 10.5293 10.926 12.7533C9.68898 14.9744 7.32328 16.0197 5.64421 15.0828C3.96514 14.1488 3.60654 11.5885 4.8436 9.36456C6.08066 7.14341 8.44636 6.09816 10.1254 7.03499Z" fill="#F47822"/>
</g>
<g style="mix-blend-mode:screen" opacity="0.6">
<path d="M9.43287 7.10446C9.166 6.81813 8.72399 6.83759 8.35983 6.9182C7.91504 7.01828 7.48693 7.21565 7.08941 7.43805C6.72524 7.64376 6.39721 7.8745 6.10532 8.17195C5.86346 8.41658 5.64107 8.68067 5.44092 8.95866C5.89682 8.52221 6.43613 8.17472 7.00323 7.89951C7.77326 7.527 8.5989 7.28516 9.43287 7.10446Z" fill="#F47822"/>
</g>
</svg>
