<svg viewBox="0 0 74 51" fill="none" xmlns="http://www.w3.org/2000/svg">
<path d="M69.543 34.9824C69.543 34.9824 68.8556 35.6026 67.7807 36.2752C66.7058 36.9479 65.2496 37.6755 63.7064 37.8957C63.4694 37.9292 63.2982 38.0873 63.223 38.2823C63.1478 38.4774 63.1685 38.7094 63.3216 38.8934C64.314 40.0916 64.9075 41.6099 65.2522 42.8302C65.597 44.0505 65.6899 44.9716 65.6899 44.9716C61.3039 43.1622 56.815 40.7438 53.4498 37.374C53.4485 37.3772 55.3714 32.3922 55.3701 32.3954C60.119 32.1591 65.0641 33.376 69.5417 34.9856L69.543 34.9824Z" fill="url(#paint0_linear_1263_16051)"/>
<mask id="mask0_1263_16051" style="mask-type:luminance" maskUnits="userSpaceOnUse" x="53" y="32" width="17" height="13">
<path d="M69.5435 34.9834C69.5435 34.9834 68.8561 35.6035 67.7812 36.2762C66.7062 36.9489 65.2501 37.6765 63.7069 37.8967C63.4699 37.9302 63.2987 38.0882 63.2235 38.2833C63.1482 38.4783 63.1689 38.7104 63.3221 38.8944C64.3145 40.0926 64.908 41.6109 65.2527 42.8312C65.5975 44.0514 65.6904 44.9725 65.6904 44.9725C61.3044 43.1632 56.8155 40.7448 53.4503 37.375C53.449 37.3782 55.3719 32.3932 55.3706 32.3964C60.1195 32.1601 65.0646 33.377 69.5422 34.9866L69.5435 34.9834Z" fill="white"/>
</mask>
<g mask="url(#mask0_1263_16051)">
<g style="mix-blend-mode:screen">
<path d="M52.8898 35.9017C53.6126 36.8563 54.7285 37.801 55.6664 38.6073C57.098 39.8097 58.6803 40.9453 60.2199 41.9726C61.7536 42.9389 63.4807 43.9467 65.0917 44.8363C65.7676 45.1888 66.5182 45.7281 67.1025 46.0894C68.7378 47.1353 68.7841 47.0723 67.2188 45.9212C65.3817 44.5036 63.1661 43.3147 61.2324 42.0142C59.5519 40.9141 57.9188 39.8912 56.3095 38.6827C55.1524 37.8543 53.962 36.7597 52.8842 35.9068L52.8898 35.9017Z" fill="#141315"/>
<path d="M60.2723 41.8947C61.1757 42.4379 63.0415 43.591 63.8185 43.8907C62.0083 42.5459 59.2791 40.8982 57.3245 39.6042C55.957 38.7975 60.1067 41.8382 60.2723 41.8947Z" fill="#1F1D20"/>
<path d="M60.3115 41.8326C62.884 43.3722 60.5363 41.6879 59.5528 41.1616C58.6645 40.6647 60.1106 41.6963 60.3115 41.8326Z" fill="#323033"/>
<path d="M53.0993 35.2278C53.8548 36.1547 55.0021 37.0564 55.9676 37.8292C57.4418 38.9782 59.0628 40.0516 60.6322 41.0206C62.1957 41.9286 63.9563 42.8685 65.5972 43.6998C66.2829 44.0268 67.0523 44.5366 67.6516 44.878C69.318 45.8623 69.3643 45.7994 67.7628 44.7041C66.0475 43.4658 63.9836 42.4456 62.168 41.3339C60.3033 40.2069 58.5002 39.1771 56.7079 37.9384C55.4874 37.1407 54.2343 36.066 53.0993 35.2278Z" fill="#141315"/>
<path d="M60.6787 40.9379C61.5989 41.4471 63.5026 42.5304 64.2887 42.7969C63.6249 42.28 61.7394 41.2258 60.8551 40.6423C59.7204 40.0319 58.4413 39.1675 57.3498 38.6069C58.2663 39.4306 59.5994 40.2314 60.6799 40.9347L60.6787 40.9379Z" fill="#1F1D20"/>
<path d="M60.7169 40.8762C63.3385 42.3172 60.9378 40.7227 59.9363 40.2335C59.0313 39.7705 60.5091 40.7483 60.7169 40.8762Z" fill="#323033"/>
<path d="M53.2591 34.642C54.0555 35.5296 55.2466 36.3747 56.249 37.0993C57.7745 38.1726 59.4436 39.169 61.059 40.0567C62.6643 40.8852 64.4678 41.7425 66.1451 42.4887C66.8444 42.7805 67.6394 43.2524 68.2511 43.5618C69.9647 44.4616 70.0079 44.3974 68.3526 43.3843C66.4061 42.1265 64.1052 41.1398 62.0736 40.0072C60.309 39.0584 58.6033 38.1764 56.8984 37.111C55.6789 36.3872 54.4013 35.3948 53.2604 34.6388L53.2591 34.642Z" fill="#141315"/>
<path d="M61.1004 39.9772C62.0456 40.441 63.9971 41.4288 64.7936 41.6589C64.1053 41.1767 62.172 40.2179 61.2609 39.6755C60.1008 39.1215 58.7785 38.3212 57.6629 37.8138C58.6183 38.5937 59.9881 39.3278 61.0972 39.976L61.1004 39.9772Z" fill="#1F1D20"/>
<path d="M61.1339 39.9098C63.8201 41.2214 61.3476 39.7461 60.3232 39.3069C59.3977 38.8874 60.9224 39.7915 61.1339 39.9098Z" fill="#323033"/>
<path d="M53.2679 34.3803C54.1448 35.1924 55.407 35.9291 56.4682 36.5588C58.0848 37.491 59.8404 38.3298 61.5311 39.0701C63.207 39.7533 65.0803 40.4391 66.8201 41.0331C67.544 41.2609 68.3783 41.6598 69.0153 41.9129C70.8047 42.6545 70.8414 42.5879 69.0989 41.7247C67.0451 40.6497 64.6596 39.8728 62.5324 38.931C60.6865 38.1456 58.905 37.4217 57.1124 36.5171C55.8313 35.9054 54.4699 35.035 53.2634 34.3823L53.2679 34.3803Z" fill="#141315"/>
<path d="M61.5674 38.9859C62.549 39.3646 64.5861 40.1687 65.4034 40.326C64.3803 39.7881 62.2092 38.9029 60.975 38.3791C60.0184 38.0211 58.8478 37.4373 57.9467 37.1449C58.9672 37.8323 60.4004 38.4403 61.5674 38.9859Z" fill="#1F1D20"/>
<path d="M61.5973 38.9161C64.3937 39.9801 61.7936 38.7311 60.7353 38.389C59.7765 38.0559 61.3739 38.819 61.5973 38.9161Z" fill="#323033"/>
<path d="M53.9626 33.1245C55.3384 33.2144 56.9523 33.2014 58.3648 33.3679C60.3719 33.5544 62.2638 33.8874 64.2497 34.2053C66.5559 34.5402 68.9959 35.1471 71.3092 35.3305C73.2388 35.5275 73.2544 35.449 71.3359 35.1277C70.6572 35.0018 69.74 34.8942 69.0045 34.706C67.2133 34.2832 65.2537 33.8689 63.4715 33.5562C61.6441 33.2847 59.7091 33.0636 57.8376 32.9919C56.6012 32.9595 55.1355 32.912 53.9633 33.1321L53.9626 33.1245Z" fill="#141315"/>
<path d="M63.4034 33.978C64.1119 34.0456 69.7078 35.0323 66.2328 34.2135C64.0537 33.7109 61.6125 33.2689 59.4066 33.2739C60.6014 33.5474 62.1463 33.7135 63.4034 33.978Z" fill="#1F1D20"/>
<path d="M63.4132 33.9048C64.2922 34.0162 64.7434 34.0653 64.7481 34.0341C64.7126 33.9359 62.5587 33.5202 62.1066 33.6066C62.4003 33.7309 63.0117 33.8124 63.4132 33.9048Z" fill="#323033"/>
<path d="M53.6631 33.7651C55.0702 33.9075 56.716 33.9546 58.1572 34.1799C60.3171 34.4657 62.3446 34.9135 64.4832 35.3307C66.575 35.7262 68.7894 36.3563 70.892 36.5906C72.8098 36.8565 72.8285 36.7792 70.9264 36.3871C70.2563 36.2388 69.345 36.0967 68.613 35.8805C66.8389 35.3945 64.8999 34.9074 63.1348 34.5314C61.3225 34.1923 59.3993 33.9023 57.5353 33.7637C56.3009 33.688 54.8422 33.5845 53.6631 33.7651Z" fill="#141315"/>
<path d="M63.0477 34.9573C63.7496 35.0517 69.3014 36.2382 65.8605 35.293C63.7046 34.7112 61.2859 34.1823 59.0848 34.1083C60.27 34.4258 61.797 34.6476 63.0489 34.9541L63.0477 34.9573Z" fill="#1F1D20"/>
<path d="M63.0644 34.8855C66.0107 35.4085 63.2231 34.6455 62.1088 34.5537C61.0974 34.4427 62.8263 34.8267 63.0644 34.8855Z" fill="#323033"/>
<path d="M53.3886 34.3057C54.7462 34.5098 56.3548 34.6344 57.7445 34.9169C59.7232 35.2725 61.5763 35.7632 63.5241 36.2463C65.7888 36.7746 68.1607 37.5867 70.4445 37.9607C72.3449 38.3191 72.3669 38.243 70.4885 37.7609C69.8243 37.5782 68.9214 37.3952 68.2074 37.1418C66.4622 36.5715 64.5514 35.9924 62.8055 35.5284C61.0124 35.1012 59.1066 34.7187 57.2555 34.4896C56.0293 34.3545 54.5748 34.1828 53.3899 34.3025L53.3886 34.3057Z" fill="#141315"/>
<path d="M62.698 35.9505C63.7266 36.1599 65.8266 36.7532 66.6476 36.8532C66.7313 36.8267 65.3356 36.3692 64.9108 36.242C62.9761 35.639 60.7727 35.0756 58.785 34.915C59.9512 35.2914 61.4664 35.582 62.7012 35.9517L62.698 35.9505Z" fill="#1F1D20"/>
<path d="M62.7144 35.8797C65.628 36.5444 62.8846 35.6478 61.7773 35.4999C60.7747 35.3372 62.4812 35.8081 62.7144 35.8797Z" fill="#323033"/>
<path d="M53.2197 34.5062C54.5553 34.834 56.1453 35.1021 57.5053 35.5091C59.4442 36.044 61.2472 36.7027 63.1424 37.3603C65.3511 38.091 67.6404 39.1173 69.8841 39.6999C71.7484 40.228 71.7756 40.1577 69.9485 39.5044C69.3033 39.2628 68.4205 38.9994 67.7311 38.6821C66.0431 37.9539 64.1913 37.2028 62.4938 36.5848C60.7439 35.998 58.8799 35.4406 57.056 35.0456C55.8469 34.7996 54.4136 34.4966 53.2217 34.5107L53.2197 34.5062Z" fill="#141315"/>
<path d="M62.3479 36.9917C63.0313 37.1818 68.359 39.1303 65.0873 37.7177C63.0328 36.8444 60.7143 35.9795 58.5425 35.6009C59.6724 36.0809 61.1518 36.5119 62.3479 36.9917Z" fill="#1F1D20"/>
<path d="M62.3748 36.9201C65.2198 37.8485 62.5649 36.7033 61.4761 36.4596C60.4929 36.2089 62.149 36.8293 62.3748 36.9201Z" fill="#323033"/>
<path d="M54.2323 34.8223C57.4029 36.4017 64.0282 38.9572 67.4381 39.9162C64.2675 38.3369 57.6422 35.7813 54.2323 34.8223Z" fill="#141315"/>
<path d="M60.7703 37.5274C64.4193 38.8284 64.4711 38.6941 60.8936 37.2076C57.2446 35.9066 57.1928 36.0409 60.7703 37.5274Z" fill="#1F1D20"/>
<path d="M60.797 37.462C62.0579 37.8785 62.0801 37.821 60.8673 37.2797C59.6064 36.8631 59.5842 36.9207 60.797 37.462Z" fill="#323033"/>
</g>
<path style="mix-blend-mode:screen" d="M59.3729 36.2805C46.4262 16.6881 40.2794 -2.06833 45.6437 -5.61312C51.0081 -9.15791 65.8522 3.85127 78.799 23.4437C91.7458 43.0361 97.8925 61.7926 92.5282 65.3374C87.1638 68.8822 72.3197 55.873 59.3729 36.2805Z" fill="url(#paint1_radial_1263_16051)"/>
</g>
<path d="M25.5838 11.2236C27.5006 9.92061 29.4271 8.78299 31.3841 8.20443C31.7344 8.79137 32.4028 9.21081 33.4303 9.44187C33.9701 10.3186 34.833 10.7764 35.8163 11.0271C36.1834 11.7895 36.9782 12.2907 38.0073 12.651C38.3764 13.4178 39.0778 13.9896 40.0838 14.3813C40.4179 15.2007 41.0726 15.7985 41.9425 16.2479C42.2903 17.0507 42.8682 17.6666 43.7296 18.0429C44.0294 18.9226 44.5831 19.544 45.3261 19.9701C45.5272 20.8485 46.0421 21.5136 46.8391 21.99C46.9912 22.9192 47.4556 23.62 48.2871 24.0546C48.4651 25.0122 48.9381 25.6905 49.7009 26.084C50.9375 28.1919 52.4803 29.9918 54.2393 31.5739L25.5902 11.2261L25.5838 11.2236Z" fill="url(#paint2_linear_1263_16051)"/>
<mask id="mask1_1263_16051" style="mask-type:luminance" maskUnits="userSpaceOnUse" x="25" y="8" width="30" height="24">
<path d="M25.5848 11.2236C27.5016 9.92061 29.4281 8.78299 31.3851 8.20443C31.7354 8.79137 32.4037 9.21081 33.4313 9.44187C33.971 10.3186 34.834 10.7764 35.8173 11.0271C36.1844 11.7895 36.9791 12.2907 38.0083 12.651C38.3774 13.4178 39.0788 13.9896 40.0848 14.3813C40.4189 15.2007 41.0736 15.7985 41.9434 16.2479C42.2913 17.0507 42.8692 17.6666 43.7305 18.0429C44.0304 18.9226 44.5841 19.544 45.327 19.9701C45.5282 20.8485 46.0431 21.5136 46.8401 21.99C46.9922 22.9192 47.4566 23.62 48.2881 24.0546C48.466 25.0122 48.939 25.6905 49.7019 26.084C50.9385 28.1919 52.4813 29.9918 54.2403 31.5739L25.5912 11.2261L25.5848 11.2236Z" fill="white"/>
</mask>
<g mask="url(#mask1_1263_16051)">
<g style="mix-blend-mode:multiply">
<path d="M25.0177 13.8999C25.0644 13.9694 26.615 13.0063 28.2108 12.1452C29.0087 11.7146 29.8157 11.2986 30.4321 11.0148C30.7383 10.8684 30.9933 10.7501 31.175 10.6695C31.3611 10.587 31.4586 10.5438 31.4586 10.5438C31.4586 10.5438 31.5541 10.4962 31.7382 10.4092C31.9078 10.3314 32.1616 10.2163 32.4831 10.0684C33.1042 9.80109 33.9374 9.45028 34.7977 9.17233C35.6559 8.88995 36.5255 8.64498 37.1927 8.50562C37.8572 8.35421 38.3056 8.27738 38.3012 8.23161C38.2963 8.19666 37.8362 8.19917 37.1543 8.28143C36.4697 8.35163 35.567 8.53972 34.6763 8.77286C33.7856 9.006 32.9201 9.32602 32.272 9.56825C31.937 9.7035 31.6761 9.80856 31.5001 9.88393C31.3095 9.96839 31.2121 10.0116 31.2121 10.0116C31.2121 10.0116 31.1133 10.058 30.9267 10.1513C30.7458 10.2395 30.4903 10.3687 30.1855 10.5303C29.574 10.8491 28.7771 11.3057 27.9995 11.7882C26.4413 12.752 24.9706 13.8413 25.0153 13.9063L25.0177 13.8999Z" fill="#D7D6D6"/>
<path d="M31.4173 10.451C32.8631 9.71201 34.2551 9.19836 34.23 9.12993C34.2094 9.05954 32.7625 9.44912 31.2545 10.1017C29.7863 10.832 28.5304 11.6406 28.5655 11.7019C28.6026 11.7676 29.9212 11.0824 31.4129 10.453L31.4173 10.451Z" fill="#838385"/>
<path d="M31.3844 10.3762C31.9851 10.0569 32.2918 9.89969 32.2761 9.86424C32.2655 9.83446 31.9293 9.92517 31.2916 10.1787C30.6845 10.4956 30.3966 10.6894 30.4136 10.7217C30.4305 10.7539 30.751 10.6278 31.3844 10.3762Z" fill="#838385"/>
</g>
<g style="mix-blend-mode:multiply">
<path d="M27.1425 15.6194C27.1892 15.6888 28.7398 14.7258 30.3355 13.8647C31.1334 13.4341 31.9404 13.0181 32.5568 12.7342C32.863 12.5879 33.1181 12.4695 33.3029 12.3902C33.489 12.3077 33.5865 12.2645 33.5865 12.2645C33.5865 12.2645 33.682 12.2169 33.8662 12.1299C34.0358 12.0521 34.2896 11.937 34.6111 11.7891C35.2321 11.5218 36.0654 11.171 36.9256 10.893C37.7839 10.6106 38.6534 10.3657 39.3206 10.2263C39.9851 10.0749 40.4335 9.99808 40.4291 9.95231C40.4242 9.91736 39.9641 9.91987 39.2822 10.0021C38.5976 10.0723 37.6949 10.2604 36.8042 10.4936C35.9135 10.7267 35.048 11.0467 34.3999 11.2889C34.0649 11.4242 33.804 11.5293 33.628 11.6046C33.4375 11.6891 33.34 11.7323 33.34 11.7323C33.34 11.7323 33.2413 11.7787 33.0547 11.872C32.8737 11.9602 32.6182 12.0894 32.3134 12.251C31.7019 12.5698 30.905 13.0264 30.1275 13.5089C28.5692 14.4727 27.0985 15.562 27.1432 15.627L27.1425 15.6194Z" fill="#D7D6D6"/>
<path d="M33.5418 12.1707C34.9876 11.4317 36.3796 10.9181 36.3546 10.8497C36.334 10.7793 34.887 11.1688 33.379 11.8214C31.9108 12.5518 30.6549 13.3603 30.6901 13.4216C30.7271 13.4874 32.0457 12.8021 33.5374 12.1727L33.5418 12.1707Z" fill="#838385"/>
<path d="M33.5059 12.0939C34.1066 11.7746 34.4134 11.6175 34.3977 11.582C34.3871 11.5522 34.0509 11.6429 33.4131 11.8965C32.8061 12.2133 32.5182 12.4072 32.5352 12.4394C32.5521 12.4717 32.8726 12.3455 33.5059 12.0939Z" fill="#838385"/>
</g>
<g style="mix-blend-mode:multiply">
<path d="M29.2684 17.3352C29.3151 17.4047 30.8657 16.4416 32.4615 15.5805C33.2594 15.1499 34.0664 14.7339 34.6828 14.45C34.989 14.3037 35.244 14.1853 35.4289 14.106C35.615 14.0236 35.7125 13.9803 35.7125 13.9803C35.7125 13.9803 35.808 13.9327 35.9921 13.8458C36.1617 13.7679 36.4155 13.6528 36.737 13.505C37.3581 13.2376 38.1913 12.8868 39.0516 12.6089C39.9098 12.3265 40.7794 12.0815 41.4466 11.9421C42.1111 11.7907 42.5595 11.7139 42.5551 11.6681C42.5502 11.6332 42.0901 11.6357 41.4082 11.718C40.7236 11.7882 39.8209 11.9762 38.9302 12.2094C38.0395 12.4425 37.174 12.7625 36.5259 13.0048C36.1909 13.14 35.93 13.2451 35.754 13.3205C35.5634 13.4049 35.466 13.4481 35.466 13.4481C35.466 13.4481 35.3672 13.4945 35.1806 13.5879C34.9997 13.676 34.7442 13.8052 34.4394 13.9668C33.8279 14.2856 33.031 14.7422 32.2534 15.2247C30.6952 16.1885 29.2245 17.2779 29.2692 17.3429L29.2684 17.3352Z" fill="#D7D6D6"/>
<path d="M35.6678 13.8865C37.1104 13.1463 38.5056 12.6339 38.4805 12.5655C38.4599 12.4951 37.013 12.8847 35.505 13.5372C34.0368 14.2676 32.7809 15.0761 32.816 15.1374C32.8531 15.2032 34.1717 14.5179 35.6634 13.8885L35.6678 13.8865Z" fill="#838385"/>
<path d="M35.6314 13.8098C36.2321 13.4905 36.5389 13.3333 36.5232 13.2978C36.5126 13.2681 36.1764 13.3588 35.5386 13.6123C34.9315 13.9291 34.6437 14.123 34.6575 14.154C34.6744 14.1863 34.9949 14.0601 35.6282 13.8085L35.6314 13.8098Z" fill="#838385"/>
</g>
<g style="mix-blend-mode:multiply">
<path d="M31.3905 19.054C31.4372 19.1234 32.9878 18.1604 34.5836 17.2992C35.3815 16.8687 36.1884 16.4526 36.8048 16.1688C37.1111 16.0224 37.3661 15.9041 37.551 15.8248C37.7371 15.7423 37.8346 15.6991 37.8346 15.6991C37.8346 15.6991 37.9301 15.6514 38.1142 15.5645C38.2838 15.4867 38.5376 15.3715 38.8591 15.2237C39.4802 14.9564 40.3134 14.6055 41.1736 14.3276C42.0319 14.0452 42.9015 13.8003 43.5687 13.6609C44.2332 13.5095 44.6816 13.4326 44.6772 13.3869C44.6723 13.3519 44.2122 13.3544 43.5303 13.4367C42.8457 13.5069 41.9429 13.695 41.0522 13.9281C40.1615 14.1613 39.2961 14.4813 38.648 14.7235C38.313 14.8588 38.052 14.9638 37.876 15.0392C37.6855 15.1237 37.588 15.1669 37.588 15.1669C37.588 15.1669 37.4893 15.2133 37.3027 15.3066C37.1218 15.3948 36.8662 15.5239 36.5615 15.6856C35.95 16.0043 35.153 16.461 34.3755 16.9435C32.8173 17.9073 31.3465 18.9966 31.3912 19.0616L31.3905 19.054Z" fill="#D7D6D6"/>
<path d="M37.7904 15.6053C39.2362 14.8663 40.6281 14.3527 40.6031 14.2842C40.5825 14.2138 39.1355 14.6034 37.6276 15.256C36.1594 15.9863 34.9035 16.7949 34.9386 16.8562C34.9757 16.9219 36.2942 16.2367 37.7859 15.6073L37.7904 15.6053Z" fill="#838385"/>
<path d="M37.7569 15.5305C38.3576 15.2112 38.6644 15.054 38.6486 15.0185C38.6381 14.9888 38.3019 15.0795 37.6641 15.333C37.057 15.6499 36.7692 15.8437 36.7861 15.876C36.8031 15.9082 37.1236 15.782 37.7569 15.5305Z" fill="#838385"/>
</g>
<g style="mix-blend-mode:multiply">
<path d="M33.5155 20.7698C33.5622 20.8392 35.1128 19.8762 36.7086 19.0151C37.5065 18.5845 38.3134 18.1685 38.9298 17.8846C39.2361 17.7383 39.4911 17.6199 39.676 17.5406C39.8621 17.4581 39.9596 17.4149 39.9596 17.4149C39.9596 17.4149 40.0551 17.3673 40.2392 17.2803C40.4088 17.2025 40.6626 17.0873 40.9841 16.9395C41.6052 16.6722 42.4384 16.3214 43.2986 16.0434C44.1569 15.761 45.0265 15.5161 45.6937 15.3767C46.3582 15.2253 46.8066 15.1485 46.8022 15.1027C46.7973 15.0678 46.3372 15.0703 45.6553 15.1525C44.9707 15.2227 44.0679 15.4108 43.1772 15.644C42.2865 15.8771 41.4211 16.1971 40.773 16.4393C40.438 16.5746 40.177 16.6797 40.001 16.755C39.8105 16.8395 39.713 16.8827 39.713 16.8827C39.713 16.8827 39.6143 16.9291 39.4277 17.0224C39.2468 17.1106 38.9912 17.2398 38.6865 17.4014C38.075 17.7202 37.278 18.1768 36.5005 18.6593C34.9423 19.6231 33.4715 20.7124 33.5163 20.7774L33.5155 20.7698Z" fill="#D7D6D6"/>
<path d="M39.9154 17.3211C41.3612 16.5821 42.7531 16.0685 42.7281 16C42.7075 15.9297 41.2605 16.3192 39.7526 16.9718C38.2844 17.7021 37.0285 18.5107 37.0636 18.572C37.1007 18.6377 38.4192 17.9525 39.9109 17.3231L39.9154 17.3211Z" fill="#838385"/>
<path d="M39.8819 17.2463C40.4826 16.927 40.7894 16.7698 40.7736 16.7344C40.7631 16.7046 40.4269 16.7953 39.7891 17.0488C39.182 17.3657 38.8942 17.5595 38.9111 17.5918C38.9281 17.624 39.2486 17.4979 39.8819 17.2463Z" fill="#838385"/>
</g>
<g style="mix-blend-mode:multiply">
<path d="M35.64 22.4895C35.6867 22.559 37.2373 21.5959 38.8331 20.7348C39.631 20.3042 40.438 19.8882 41.0544 19.6043C41.3606 19.458 41.6156 19.3396 41.8005 19.2603C41.9866 19.1778 42.0841 19.1346 42.0841 19.1346C42.0841 19.1346 42.1796 19.087 42.3637 19.0001C42.5333 18.9222 42.7871 18.8071 43.1086 18.6593C43.7297 18.3919 44.5629 18.0411 45.4232 17.7631C46.2814 17.4808 47.151 17.2358 47.8182 17.0964C48.4827 16.945 48.9311 16.8682 48.9267 16.8224C48.9218 16.7875 48.4617 16.79 47.7798 16.8722C47.0952 16.9424 46.1925 17.1305 45.3018 17.3637C44.411 17.5968 43.5456 17.9168 42.8975 18.1591C42.5625 18.2943 42.3016 18.3994 42.1256 18.4747C41.935 18.5592 41.8375 18.6024 41.8375 18.6024C41.8375 18.6024 41.7388 18.6488 41.5522 18.7421C41.3713 18.8303 41.1158 18.9595 40.811 19.1211C40.1995 19.4399 39.4025 19.8965 38.625 20.379C37.0668 21.3428 35.596 22.4321 35.6408 22.4972L35.64 22.4895Z" fill="#D7D6D6"/>
<path d="M42.0394 19.0408C43.4852 18.3018 44.8771 17.7882 44.8521 17.7198C44.8315 17.6494 43.3846 18.039 41.8766 18.6915C40.4084 19.4219 39.1525 20.2304 39.1876 20.2917C39.2247 20.3575 40.5432 19.6722 42.035 19.0428L42.0394 19.0408Z" fill="#838385"/>
<path d="M42.003 18.964C42.6037 18.6448 42.9104 18.4876 42.8947 18.4521C42.8842 18.4223 42.548 18.5131 41.9102 18.7666C41.3031 19.0834 41.0153 19.2773 41.0322 19.3096C41.0492 19.3418 41.3697 19.2156 42.003 18.964Z" fill="#838385"/>
</g>
<g style="mix-blend-mode:multiply">
<path d="M37.766 24.2102C37.8127 24.2797 39.3633 23.3166 40.9591 22.4555C41.7569 22.0249 42.5639 21.6089 43.1803 21.325C43.4866 21.1787 43.7416 21.0603 43.9265 20.981C44.1126 20.8985 44.21 20.8553 44.21 20.8553C44.21 20.8553 44.3056 20.8077 44.4897 20.7208C44.6593 20.6429 44.9131 20.5278 45.2346 20.38C45.8557 20.1126 46.6889 19.7618 47.5491 19.4838C48.4074 19.2015 49.277 18.9565 49.9442 18.8171C50.6087 18.6657 51.057 18.5889 51.0527 18.5431C51.0478 18.5082 50.5876 18.5107 49.9057 18.5929C49.2211 18.6631 48.3184 18.8512 47.4277 19.0844C46.537 19.3175 45.6716 19.6375 45.0235 19.8798C44.6885 20.015 44.4275 20.1201 44.2515 20.1955C44.061 20.2799 43.9635 20.3231 43.9635 20.3231C43.9635 20.3231 43.8648 20.3695 43.6782 20.4629C43.4973 20.551 43.2417 20.6802 42.937 20.8418C42.3254 21.1606 41.5285 21.6172 40.751 22.0997C39.1928 23.0635 37.722 24.1529 37.7667 24.2179L37.766 24.2102Z" fill="#D7D6D6"/>
<path d="M44.1654 20.7615C45.608 20.0213 47.0031 19.5089 46.9781 19.4405C46.9575 19.3701 45.5106 19.7597 44.0026 20.4122C42.5344 21.1426 41.2785 21.9511 41.3136 22.0124C41.3507 22.0782 42.6692 21.3929 44.1609 20.7635L44.1654 20.7615Z" fill="#838385"/>
<path d="M44.129 20.6847C44.7297 20.3655 45.0364 20.2083 45.0207 20.1728C45.0102 20.1431 44.674 20.2338 44.0362 20.4873C43.4291 20.8041 43.1413 20.998 43.155 21.029C43.172 21.0613 43.4925 20.9351 44.1258 20.6835L44.129 20.6847Z" fill="#838385"/>
</g>
<g style="mix-blend-mode:multiply">
<path d="M39.891 25.9251C39.9377 25.9945 41.4883 25.0315 43.0841 24.1703C43.882 23.7398 44.6889 23.3237 45.3053 23.0399C45.6116 22.8935 45.8666 22.7752 46.0515 22.6959C46.2376 22.6134 46.335 22.5702 46.335 22.5702C46.335 22.5702 46.4306 22.5225 46.6147 22.4356C46.7843 22.3578 47.0381 22.2426 47.3596 22.0948C47.9807 21.8275 48.8139 21.4766 49.6741 21.1987C50.5324 20.9163 51.402 20.6713 52.0692 20.532C52.7337 20.3806 53.182 20.3037 53.1777 20.258C53.1728 20.223 52.7126 20.2255 52.0307 20.3078C51.3461 20.378 50.4434 20.5661 49.5527 20.7992C48.662 21.0324 47.7966 21.3524 47.1485 21.5946C46.8135 21.7299 46.5525 21.8349 46.3765 21.9103C46.186 21.9948 46.0885 22.038 46.0885 22.038C46.0885 22.038 45.9898 22.0844 45.8032 22.1777C45.6223 22.2659 45.3667 22.395 45.062 22.5566C44.4504 22.8754 43.6535 23.3321 42.876 23.8146C41.3178 24.7784 39.847 25.8677 39.8917 25.9327L39.891 25.9251Z" fill="#D7D6D6"/>
<path d="M46.2879 22.4744C47.7305 21.7342 49.1257 21.2218 49.1007 21.1534C49.0801 21.083 47.6331 21.4726 46.1251 22.1251C44.6569 22.8555 43.401 23.664 43.4361 23.7253C43.4732 23.7911 44.7918 23.1058 46.2835 22.4764L46.2879 22.4744Z" fill="#838385"/>
<path d="M46.254 22.3996C46.8547 22.0803 47.1614 21.9231 47.1457 21.8877C47.1352 21.8579 46.799 21.9486 46.1612 22.2022C45.5541 22.519 45.2663 22.7129 45.28 22.7439C45.297 22.7761 45.6175 22.65 46.2508 22.3984L46.254 22.3996Z" fill="#838385"/>
</g>
<g style="mix-blend-mode:multiply">
<path d="M42.0136 27.6438C42.0602 27.7133 43.6109 26.7502 45.2066 25.8891C46.0045 25.4585 46.8115 25.0425 47.4279 24.7586C47.7341 24.6123 47.9892 24.4939 48.174 24.4146C48.3601 24.3321 48.4576 24.2889 48.4576 24.2889C48.4576 24.2889 48.5531 24.2413 48.7373 24.1544C48.9069 24.0765 49.1607 23.9614 49.4821 23.8136C50.1032 23.5462 50.9365 23.1954 51.7967 22.9174C52.655 22.6351 53.5245 22.3901 54.1917 22.2507C54.8562 22.0993 55.3046 22.0225 55.3002 21.9767C55.2953 21.9418 54.8352 21.9443 54.1533 22.0265C53.4687 22.0967 52.566 22.2848 51.6753 22.518C50.7846 22.7511 49.9191 23.0711 49.271 23.3134C48.936 23.4486 48.6751 23.5537 48.4991 23.629C48.3086 23.7135 48.2111 23.7567 48.2111 23.7567C48.2111 23.7567 48.1124 23.8031 47.9258 23.8964C47.7416 23.9834 47.4893 24.1138 47.1845 24.2754C46.573 24.5942 45.7761 25.0508 44.9986 25.5333C43.4403 26.4971 41.9696 27.5864 42.0143 27.6514L42.0136 27.6438Z" fill="#D7D6D6"/>
<path d="M48.4129 24.1942C49.8587 23.4552 51.2507 22.9415 51.2257 22.8731C51.2051 22.8027 49.7581 23.1923 48.2501 23.8448C46.7819 24.5752 45.526 25.3837 45.5611 25.445C45.5982 25.5108 46.9168 24.8256 48.4085 24.1961L48.4129 24.1942Z" fill="#838385"/>
<path d="M48.379 24.1193C48.9797 23.8 49.2864 23.6429 49.2707 23.6074C49.2602 23.5776 48.924 23.6683 48.2862 23.9219C47.6791 24.2387 47.3913 24.4326 47.405 24.4636C47.422 24.4958 47.7424 24.3697 48.3758 24.1181L48.379 24.1193Z" fill="#838385"/>
</g>
<g style="mix-blend-mode:multiply">
<path d="M44.1398 29.3609C44.1865 29.4303 45.7371 28.4673 47.3329 27.6061C48.1308 27.1756 48.9377 26.7595 49.5541 26.4757C49.8604 26.3293 50.1154 26.211 50.2971 26.1305C50.4832 26.048 50.5807 26.0047 50.5807 26.0047C50.5807 26.0047 50.6762 25.9571 50.8603 25.8702C51.0299 25.7923 51.2837 25.6772 51.6052 25.5294C52.2263 25.262 53.0595 24.9112 53.9197 24.6333C54.778 24.3509 55.6476 24.1059 56.3148 23.9666C56.9793 23.8151 57.4277 23.7383 57.4233 23.6925C57.4184 23.6576 56.9583 23.6601 56.2763 23.7424C55.5918 23.8126 54.689 24.0007 53.7983 24.2338C52.9076 24.4669 52.0422 24.787 51.3941 25.0292C51.0591 25.1644 50.7981 25.2695 50.6221 25.3449C50.4316 25.4293 50.3341 25.4725 50.3341 25.4725C50.3341 25.4725 50.2354 25.5189 50.0488 25.6123C49.8679 25.7004 49.6123 25.8296 49.3076 25.9912C48.696 26.31 47.8991 26.7667 47.1216 27.2492C45.5634 28.2129 44.0926 29.3023 44.1373 29.3673L44.1398 29.3609Z" fill="#D7D6D6"/>
<path d="M50.5394 25.9119C51.9852 25.1729 53.3771 24.6593 53.3521 24.5909C53.3315 24.5205 51.8846 24.9101 50.3766 25.5626C48.9084 26.293 47.6525 27.1015 47.6876 27.1628C47.7247 27.2286 49.0432 26.5433 50.535 25.9139L50.5394 25.9119Z" fill="#838385"/>
<path d="M50.5059 25.8371C51.1066 25.5178 51.4134 25.3606 51.3977 25.3252C51.3871 25.2954 51.0509 25.3861 50.4131 25.6397C49.806 25.9565 49.5182 26.1504 49.5352 26.1826C49.5521 26.2149 49.8726 26.0887 50.5059 25.8371Z" fill="#838385"/>
</g>
<path style="mix-blend-mode:screen" d="M10.013 -1.1878C11.1291 -4.37073 21.4572 -3.64673 33.0815 0.42928C44.7058 4.50529 53.2243 10.3898 52.1082 13.5727C50.9922 16.7557 40.6641 16.0317 29.0398 11.9557C17.4155 7.87965 8.89694 1.99512 10.013 -1.1878Z" fill="url(#paint3_radial_1263_16051)"/>
<path style="mix-blend-mode:screen" d="M29.2859 9.60558C45.7573 19.9372 59.6448 27.4539 60.309 26.3988C60.9699 25.3423 48.1546 16.1124 31.6865 5.78196C15.2151 -4.54969 1.32754 -12.0664 0.663398 -11.0112C0.00245149 -9.9548 12.8177 -0.724844 29.2859 9.60558Z" fill="url(#paint4_radial_1263_16051)"/>
</g>
<path d="M29.1 14.354C40.7871 18.8621 49.4476 29.3877 56.4161 32.5678C57.8089 33.2042 58.4665 34.8134 57.9152 36.2427C57.3959 37.5888 55.9656 38.3448 54.5627 38.0204C44.5386 35.7149 37.3888 40.4138 21.174 34.1594C10.5902 30.0769 3.83607 18.7512 4.95598 15.8478C6.07589 12.9445 18.5929 10.3011 29.1032 14.3553L29.1 14.354Z" fill="url(#paint5_linear_1263_16051)"/>
<mask id="mask2_1263_16051" style="mask-type:luminance" maskUnits="userSpaceOnUse" x="4" y="12" width="55" height="27">
<path d="M29.1005 14.3521C40.7875 18.8601 49.4481 29.3857 56.4166 32.5659C57.8094 33.2023 58.467 34.8114 57.9157 36.2407C57.3964 37.5869 55.9661 38.3428 54.5632 38.0184C44.5391 35.713 37.3893 40.4119 21.1745 34.1574C10.5907 30.0749 3.83655 18.7492 4.95647 15.8459C6.07638 12.9425 18.5934 10.2992 29.1037 14.3533L29.1005 14.3521Z" fill="white"/>
</mask>
<g mask="url(#mask2_1263_16051)">
<g style="mix-blend-mode:screen">
<path d="M9.79845 4.78913C13.2066 15.6947 13.9952 27.1731 14.5523 38.518L14.8769 38.5147C15.1076 27.1173 14.1864 15.4115 10.1051 4.67968L9.79969 4.78593L9.79845 4.78913Z" fill="#080808"/>
<path d="M9.88722 4.75737C13.4972 15.6159 14.3265 27.1504 14.6472 38.518L14.7764 38.5164C14.7692 27.1265 13.8885 15.5061 10.0108 4.71319L9.88845 4.75417L9.88722 4.75737Z" fill="#1C1C1C"/>
</g>
<g style="mix-blend-mode:screen">
<path d="M7.18077 3.77741C10.5889 14.683 11.3775 26.1613 11.9346 37.5063L12.2592 37.503C12.49 26.1056 11.5687 14.3998 7.48746 3.66796L7.182 3.77421L7.18077 3.77741Z" fill="#080808"/>
<path d="M7.26955 3.74565C10.8795 14.6042 11.7088 26.1387 12.0295 37.5063L12.1587 37.5047C12.1515 26.1147 11.2708 14.4943 7.3931 3.70147L7.27078 3.74245L7.26955 3.74565Z" fill="#1C1C1C"/>
</g>
<g style="mix-blend-mode:screen">
<path d="M12.4176 5.79987C15.8257 16.7055 16.6143 28.1838 17.1714 39.5288L17.496 39.5254C17.7268 28.128 16.8056 16.4222 12.7243 5.69043L12.4188 5.79667L12.4176 5.79987Z" fill="#080808"/>
<path d="M12.5069 5.76811C16.1168 16.6267 16.9462 28.1611 17.2668 39.5288L17.396 39.5272C17.3888 28.1372 16.5081 16.5168 12.6304 5.72394L12.5081 5.76491L12.5069 5.76811Z" fill="#1C1C1C"/>
</g>
<g style="mix-blend-mode:screen">
<path d="M15.0333 6.80768C18.4415 17.7133 19.23 29.1916 19.7872 40.5366L20.1117 40.5332C20.3425 29.1358 19.4213 17.43 15.34 6.69824L15.0346 6.80449L15.0333 6.80768Z" fill="#080808"/>
<path d="M15.126 6.7769C18.7359 17.6354 19.5653 29.1699 19.886 40.5376L20.0151 40.536C20.008 29.146 19.1273 17.5256 15.2496 6.73273L15.1272 6.7737L15.126 6.7769Z" fill="#1C1C1C"/>
</g>
<g style="mix-blend-mode:screen">
<path d="M17.6525 7.81842C21.0606 18.724 21.8492 30.2023 22.4063 41.5473L22.7309 41.544C22.9616 30.1466 22.0404 18.4408 17.9591 7.70898L17.6537 7.81523L17.6525 7.81842Z" fill="#080808"/>
<path d="M17.7446 7.78861C21.3546 18.6472 22.184 30.1816 22.5046 41.5493L22.6338 41.5477C22.6266 30.1577 21.7459 18.5373 17.8682 7.74445L17.7459 7.78542L17.7446 7.78861Z" fill="#1C1C1C"/>
</g>
<g style="mix-blend-mode:screen">
<path d="M20.2706 8.82721C23.6788 19.7328 24.4673 31.2111 25.0245 42.5561L25.349 42.5528C25.5798 31.1554 24.6586 19.4496 20.5773 8.71777L20.2719 8.82402L20.2706 8.82721Z" fill="#080808"/>
<path d="M20.3594 8.79545C23.9693 19.654 24.7987 31.1885 25.1194 42.5561L25.2485 42.5545C25.2414 31.1645 24.3607 19.5441 20.4829 8.75128L20.3606 8.79226L20.3594 8.79545Z" fill="#1C1C1C"/>
</g>
<g style="mix-blend-mode:screen">
<path d="M22.8893 9.83796C26.2974 20.7435 27.086 32.2219 27.6431 43.5669L27.9677 43.5635C28.1985 32.1661 27.2772 20.4603 23.196 9.72851L22.8905 9.83476L22.8893 9.83796Z" fill="#080808"/>
<path d="M22.978 9.80619C26.588 20.6647 27.4173 32.1992 27.738 43.5669L27.8672 43.5653C27.86 32.1753 26.9793 20.5549 23.1016 9.76202L22.9793 9.803L22.978 9.80619Z" fill="#1C1C1C"/>
</g>
<g style="mix-blend-mode:screen">
<path d="M25.5084 10.8467C28.9166 21.7523 29.7051 33.2307 30.2623 44.5757L30.5868 44.5723C30.8176 33.1749 29.8964 21.4691 25.8151 10.7373L25.5096 10.8435L25.5084 10.8467Z" fill="#080808"/>
<path d="M25.5977 10.815C29.2076 21.6735 30.037 33.208 30.3576 44.5756L30.4868 44.574C30.4797 33.1841 29.599 21.5637 25.7212 10.7708L25.5989 10.8118L25.5977 10.815Z" fill="#1C1C1C"/>
</g>
<g style="mix-blend-mode:screen">
<path d="M28.1236 11.8575C31.5318 22.7631 32.3204 34.2414 32.8775 45.5864L33.2021 45.583C33.4328 34.1857 32.5116 22.4798 28.4303 11.748L28.1249 11.8543L28.1236 11.8575Z" fill="#080808"/>
<path d="M28.2158 11.8267C31.8258 22.6852 32.6551 34.2197 32.9758 45.5874L33.105 45.5858C33.0978 34.1958 32.2171 22.5754 28.3394 11.7825L28.2171 11.8235L28.2158 11.8267Z" fill="#1C1C1C"/>
</g>
<g style="mix-blend-mode:screen">
<path d="M30.7423 12.8673C34.1504 23.7728 34.939 35.2512 35.4962 46.5962L35.8207 46.5928C36.0515 35.1954 35.1303 23.4896 31.049 12.7578L30.7435 12.8641L30.7423 12.8673Z" fill="#080808"/>
<path d="M30.835 12.8365C34.4449 23.695 35.2743 35.2295 35.5949 46.5971L35.7241 46.5955C35.717 35.2056 34.8363 23.5852 30.9585 12.7923L30.8362 12.8333L30.835 12.8365Z" fill="#1C1C1C"/>
</g>
<g style="mix-blend-mode:screen">
<path d="M33.361 13.878C36.7691 24.7836 37.5577 36.2619 38.1148 47.6069L38.4394 47.6035C38.6701 36.2062 37.7489 24.5003 33.6676 13.7686L33.3622 13.8748L33.361 13.878Z" fill="#080808"/>
<path d="M33.4526 13.8472C37.0626 24.7058 37.892 36.2402 38.2126 47.6079L38.3418 47.6063C38.3346 36.2163 37.4539 24.5959 33.5762 13.803L33.4539 13.844L33.4526 13.8472Z" fill="#1C1C1C"/>
</g>
<g style="mix-blend-mode:screen">
<path d="M35.9806 14.8878C39.3887 25.7934 40.1773 37.2717 40.7344 48.6167L41.059 48.6133C41.2898 37.2159 40.3686 25.5101 36.2873 14.7783L35.9818 14.8846L35.9806 14.8878Z" fill="#080808"/>
<path d="M36.0694 14.856C39.6793 25.7145 40.5087 37.249 40.8293 48.6167L40.9585 48.6151C40.9513 37.2251 40.0706 25.6047 36.1929 14.8118L36.0706 14.8528L36.0694 14.856Z" fill="#1C1C1C"/>
</g>
<g style="mix-blend-mode:screen">
<path d="M38.5997 15.8975C42.0079 26.8031 42.7964 38.2815 43.3536 49.6264L43.6781 49.6231C43.9089 38.2257 42.9877 26.5199 38.9064 15.7881L38.601 15.8943L38.5997 15.8975Z" fill="#080808"/>
<path d="M38.6885 15.8658C42.2984 26.7243 43.1278 38.2588 43.4485 49.6264L43.5776 49.6248C43.5705 38.2349 42.6898 26.6145 38.8121 15.8216L38.6897 15.8626L38.6885 15.8658Z" fill="#1C1C1C"/>
</g>
<g style="mix-blend-mode:screen">
<path d="M41.2145 16.9053C44.6226 27.8109 45.4112 39.2893 45.9683 50.6343L46.2929 50.6309C46.5236 39.2335 45.6024 27.5277 41.5212 16.7959L41.2157 16.9021L41.2145 16.9053Z" fill="#080808"/>
<path d="M41.3071 16.8746C44.9171 27.7331 45.7464 39.2676 46.0671 50.6352L46.1963 50.6336C46.1891 39.2436 45.3084 27.6232 41.4307 16.8304L41.3084 16.8714L41.3071 16.8746Z" fill="#1C1C1C"/>
</g>
<g style="mix-blend-mode:screen">
<path d="M43.8336 17.9171C47.2418 28.8226 48.0303 40.301 48.5875 51.646L48.912 51.6426C49.1428 40.2452 48.2216 28.5394 44.1403 17.8076L43.8348 17.9139L43.8336 17.9171Z" fill="#080808"/>
<path d="M43.9263 17.8863C47.5362 28.7448 48.3656 40.2793 48.6863 51.6469L48.8154 51.6453C48.8083 40.2554 47.9276 28.635 44.0498 17.8421L43.9275 17.8831L43.9263 17.8863Z" fill="#1C1C1C"/>
</g>
<g style="mix-blend-mode:screen">
<path d="M46.4518 18.9278C49.8599 29.8334 50.6485 41.3117 51.2056 52.6567L51.5302 52.6533C51.761 41.256 50.8397 29.5501 46.7585 18.8184L46.453 18.9246L46.4518 18.9278Z" fill="#080808"/>
<path d="M46.5435 18.897C50.1534 29.7556 50.9828 41.29 51.3034 52.6577L51.4326 52.6561C51.4255 41.2661 50.5448 29.6457 46.667 18.8528L46.5447 18.8938L46.5435 18.897Z" fill="#1C1C1C"/>
</g>
<g style="mix-blend-mode:screen">
<path d="M49.0709 19.9356C52.4791 30.8412 53.2676 42.3195 53.8248 53.6645L54.1493 53.6612C54.3801 42.2638 53.4589 30.558 49.3776 19.8262L49.0721 19.9324L49.0709 19.9356Z" fill="#080808"/>
<path d="M49.1597 19.9039C52.7696 30.7624 53.599 42.2969 53.9197 53.6645L54.0488 53.6629C54.0417 42.2729 53.161 30.6525 49.2832 19.8597L49.1609 19.9007L49.1597 19.9039Z" fill="#1C1C1C"/>
</g>
<g style="mix-blend-mode:screen">
<path d="M51.6901 20.9473C55.0982 31.8529 55.8868 43.3313 56.4439 54.6762L56.7685 54.6729C56.9992 43.2755 56.078 31.5697 51.9967 20.8379L51.6913 20.9441L51.6901 20.9473Z" fill="#080808"/>
<path d="M51.7788 20.9156C55.3888 31.7741 56.2181 43.3086 56.5388 54.6762L56.668 54.6746C56.6608 43.2847 55.7801 31.6643 51.9024 20.8714L51.7801 20.9124L51.7788 20.9156Z" fill="#1C1C1C"/>
</g>
<g style="mix-blend-mode:screen">
<path d="M69.8728 27.7374C59.6399 32.9441 51.0984 41.0035 43.6156 49.6036L43.8538 49.824C51.8884 41.7932 60.1809 33.8176 70.0266 28.0244L69.8716 27.7406L69.8728 27.7374Z" fill="#080808"/>
<path d="M69.918 27.8207C59.7969 33.2138 51.3388 41.2283 43.6866 49.6675L43.7813 49.7554C51.6527 41.5477 60.0131 33.558 69.9799 27.9364L69.9168 27.8239L69.918 27.8207Z" fill="#1C1C1C"/>
</g>
<g style="mix-blend-mode:screen">
<path d="M72.4915 28.7462C62.2586 33.9529 53.717 42.0123 46.2342 50.6124L46.4724 50.8328C54.5071 42.8019 62.7995 34.8264 72.6452 29.0332L72.4902 28.7494L72.4915 28.7462Z" fill="#080808"/>
<path d="M72.5367 28.8285C62.4155 34.2216 53.9574 42.2361 46.3053 50.6753L46.3999 50.7632C54.2714 42.5555 62.6317 34.5658 72.5986 28.9442L72.5354 28.8317L72.5367 28.8285Z" fill="#1C1C1C"/>
</g>
<g style="mix-blend-mode:screen">
<path d="M67.2546 26.7266C57.0217 31.9334 48.4802 39.9928 40.9974 48.5929L41.2356 48.8133C49.2703 40.7824 57.5627 32.8069 67.4084 27.0137L67.2534 26.7298L67.2546 26.7266Z" fill="#080808"/>
<path d="M67.2998 26.8099C57.1787 32.203 48.7206 40.2175 41.0685 48.6567L41.1631 48.7447C49.0345 40.537 57.3949 32.5472 67.3617 26.9256L67.2986 26.8131L67.2998 26.8099Z" fill="#1C1C1C"/>
</g>
<g style="mix-blend-mode:screen">
<path d="M64.6355 25.7159C54.4026 30.9226 45.8611 38.982 38.3782 47.5821L38.6165 47.8026C46.6511 39.7717 54.9436 31.7961 64.7893 26.0029L64.6343 25.7191L64.6355 25.7159Z" fill="#080808"/>
<path d="M64.6841 25.8002C54.563 31.1933 46.1049 39.2078 38.4527 47.647L38.5474 47.7349C46.4188 39.5272 54.7792 31.5375 64.746 25.9159L64.6829 25.8034L64.6841 25.8002Z" fill="#1C1C1C"/>
</g>
<g style="mix-blend-mode:screen">
<path d="M62.0164 24.7071C51.7835 29.9138 43.2419 37.9733 35.7591 46.5733L35.9973 46.7938C44.032 38.7629 52.3244 30.7874 62.1701 24.9941L62.0151 24.7103L62.0164 24.7071Z" fill="#080808"/>
<path d="M62.0645 24.7914C51.9434 30.1845 43.4853 38.199 35.8331 46.6382L35.9277 46.7261C43.7992 38.5184 52.1596 30.5287 62.1264 24.9071L62.0633 24.7946L62.0645 24.7914Z" fill="#1C1C1C"/>
</g>
<g style="mix-blend-mode:screen">
<path d="M59.3972 23.6954C49.1643 28.9021 40.6228 36.9615 33.14 45.5616L33.3782 45.7821C41.4128 37.7512 49.7053 29.7756 59.551 23.9824L59.396 23.6986L59.3972 23.6954Z" fill="#080808"/>
<path d="M59.4458 23.7797C49.3247 29.1728 40.8666 37.1873 33.2144 45.6265L33.3091 45.7144C41.1805 37.5067 49.5409 29.517 59.5077 23.8954L59.4446 23.7829L59.4458 23.7797Z" fill="#1C1C1C"/>
</g>
<g style="mix-blend-mode:screen">
<path d="M56.782 22.6866C46.5491 27.8933 38.0075 35.9527 30.5247 44.5528L30.7629 44.7733C38.7976 36.7424 47.0901 28.7669 56.9357 22.9736L56.7808 22.6898L56.782 22.6866Z" fill="#080808"/>
<path d="M56.8272 22.7699C46.7061 28.163 38.248 36.1775 30.5958 44.6167L30.6904 44.7046C38.5619 36.4969 46.9223 28.5072 56.8891 22.8856L56.826 22.7731L56.8272 22.7699Z" fill="#1C1C1C"/>
</g>
<g style="mix-blend-mode:screen">
<path d="M54.1628 21.6768C43.93 26.8836 35.3884 34.943 27.9056 43.543L28.1438 43.7635C36.1785 35.7326 44.4709 27.7571 54.3166 21.9639L54.1616 21.68L54.1628 21.6768Z" fill="#080808"/>
<path d="M54.2081 21.7601C44.0869 27.1532 35.6288 35.1677 27.9767 43.6069L28.0713 43.6949C35.9427 35.4872 44.3031 27.4974 54.2699 21.8758L54.2068 21.7633L54.2081 21.7601Z" fill="#1C1C1C"/>
</g>
<g style="mix-blend-mode:screen">
<path d="M51.5452 20.6671C41.3123 25.8738 32.7707 33.9332 25.2879 42.5333L25.5261 42.7537C33.5608 34.7228 41.8532 26.7473 51.6989 20.9541L51.5439 20.6703L51.5452 20.6671Z" fill="#080808"/>
<path d="M51.5938 20.7513C41.4727 26.1444 33.0146 34.1589 25.3624 42.5982L25.457 42.6861C33.3285 34.4784 41.6889 26.4886 51.6557 20.867L51.5926 20.7545L51.5938 20.7513Z" fill="#1C1C1C"/>
</g>
<g style="mix-blend-mode:screen">
<path d="M48.925 19.6563C38.6922 24.863 30.1506 32.9225 22.6678 41.5225L22.906 41.743C30.9407 33.7121 39.2331 25.7366 49.0788 19.9434L48.9238 19.6595L48.925 19.6563Z" fill="#080808"/>
<path d="M48.9732 19.7406C38.8521 25.1337 30.394 33.1482 22.7418 41.5874L22.8364 41.6753C30.7079 33.4676 39.0683 25.4779 49.0351 19.8563L48.972 19.7438L48.9732 19.7406Z" fill="#1C1C1C"/>
</g>
<g style="mix-blend-mode:screen">
<path d="M46.3064 18.6465C36.0735 23.8533 27.532 31.9127 20.0491 40.5128L20.2874 40.7332C28.322 32.7023 36.6145 24.7268 46.4602 18.9336L46.3052 18.6497L46.3064 18.6465Z" fill="#080808"/>
<path d="M46.355 18.7308C36.2339 24.1239 27.7758 32.1384 20.1236 40.5776L20.2183 40.6656C28.0897 32.4579 36.4501 24.4681 46.4169 18.8465L46.3538 18.734L46.355 18.7308Z" fill="#1C1C1C"/>
</g>
<g style="mix-blend-mode:screen">
<path d="M43.6907 17.6368C33.4578 22.8435 24.9162 30.9029 17.4334 39.503L17.6716 39.7235C25.7063 31.6926 33.9988 23.717 43.8444 17.9238L43.6894 17.64L43.6907 17.6368Z" fill="#080808"/>
<path d="M43.7354 17.7201C33.6143 23.1132 25.1562 31.1277 17.504 39.5669L17.5986 39.6548C25.4701 31.4471 33.8305 23.4574 43.7973 17.8358L43.7342 17.7233L43.7354 17.7201Z" fill="#1C1C1C"/>
</g>
<g style="mix-blend-mode:screen">
<path d="M41.073 16.629C30.8401 21.8357 22.2986 29.8951 14.8157 38.4952L15.054 38.7156C23.0886 30.6848 31.3811 22.7092 41.2268 16.916L41.0718 16.6322L41.073 16.629Z" fill="#080808"/>
<path d="M41.1182 16.7123C30.9971 22.1054 22.539 30.1199 14.8868 38.5591L14.9815 38.647C22.8529 30.4393 31.2133 22.4496 41.1801 16.828L41.117 16.7155L41.1182 16.7123Z" fill="#1C1C1C"/>
</g>
<g style="mix-blend-mode:screen">
<path d="M38.4534 15.6173C28.2205 20.824 19.6789 28.8834 12.1961 37.4835L12.4343 37.7039C20.469 29.673 28.7614 21.6975 38.6071 15.9043L38.4521 15.6204L38.4534 15.6173Z" fill="#080808"/>
<path d="M38.4986 15.7006C28.3775 21.0937 19.9194 29.1082 12.2672 37.5474L12.3618 37.6353C20.2333 29.4276 28.5937 21.4379 38.5605 15.8163L38.4973 15.7038L38.4986 15.7006Z" fill="#1C1C1C"/>
</g>
<g style="mix-blend-mode:screen">
<path d="M35.8347 14.6075C25.6018 19.8142 17.0603 27.8736 9.57747 36.4737L9.81568 36.6942C17.8503 28.6633 26.1428 20.6878 35.9885 14.8945L35.8335 14.6107L35.8347 14.6075Z" fill="#080808"/>
<path d="M35.8829 14.6918C25.7617 20.0849 17.3036 28.0994 9.65146 36.5386L9.7461 36.6265C17.6175 28.4188 25.9779 20.4291 35.9448 14.8075L35.8816 14.695L35.8829 14.6918Z" fill="#1C1C1C"/>
</g>
<g style="mix-blend-mode:screen">
<path d="M33.2161 13.5958C22.9832 18.8025 14.4416 26.8619 6.95881 35.462L7.19703 35.6824C15.2317 27.6516 23.5241 19.676 33.3698 13.8828L33.2148 13.599L33.2161 13.5958Z" fill="#080808"/>
<path d="M33.2647 13.6801C23.1436 19.0732 14.6855 27.0876 7.03329 35.5269L7.12794 35.6148C14.9994 27.4071 23.3598 19.4174 33.3266 13.7958L33.2635 13.6832L33.2647 13.6801Z" fill="#1C1C1C"/>
</g>
<g style="mix-blend-mode:screen">
<path d="M30.5999 12.588C20.367 17.7947 11.8254 25.8541 4.3426 34.4542L4.58082 34.6746C12.6155 26.6437 20.9079 18.6682 30.7536 12.875L30.5986 12.5911L30.5999 12.588Z" fill="#080808"/>
<path d="M30.6451 12.6713C20.524 18.0644 12.0658 26.0789 4.41366 34.5181L4.50831 34.606C12.3798 26.3983 20.7401 18.4086 30.707 12.787L30.6438 12.6745L30.6451 12.6713Z" fill="#1C1C1C"/>
</g>
<g style="mix-blend-mode:screen">
<path d="M27.9817 11.5792C17.7488 16.7859 9.20725 24.8453 1.72444 33.4454L1.96266 33.6658C9.99731 25.635 18.2898 17.6594 28.1354 11.8662L27.9805 11.5824L27.9817 11.5792Z" fill="#080808"/>
<path d="M28.0269 11.6625C17.9058 17.0556 9.44769 25.0701 1.79551 33.5093L1.89015 33.5972C9.76159 25.3895 18.122 17.3998 28.0888 11.7782L28.0257 11.6657L28.0269 11.6625Z" fill="#1C1C1C"/>
</g>
</g>
<path d="M30.2153 11.4634C42.772 16.3069 49.4467 29.3908 56.4151 32.571C57.8079 33.2074 58.4655 34.8165 57.9142 36.2458C57.395 37.592 33.1073 18.155 21.7618 18.7707C13.1257 19.2378 8.70353 24.1219 8.70353 24.1219C5.99633 20.3888 4.47941 17.0744 4.95056 15.8529C6.07048 12.9496 17.6701 6.62805 30.214 11.4666L30.2153 11.4634Z" fill="url(#paint6_linear_1263_16051)"/>
<mask id="mask3_1263_16051" style="mask-type:luminance" maskUnits="userSpaceOnUse" x="4" y="9" width="55" height="28">
<path d="M30.2162 11.4624C42.773 16.3059 49.4476 29.3898 56.4161 32.57C57.8089 33.2064 58.4665 34.8155 57.9152 36.2448C57.3959 37.591 33.1083 18.1541 21.7628 18.7698C13.1267 19.2368 8.7045 24.1209 8.7045 24.1209C5.99731 20.3878 4.48039 17.0734 4.95154 15.852C6.07145 12.9486 17.671 6.62708 30.215 11.4656L30.2162 11.4624Z" fill="white"/>
</mask>
<g mask="url(#mask3_1263_16051)">
<path d="M29.101 14.354C40.788 18.8621 49.4486 29.3877 56.4171 32.5678C57.8099 33.2042 58.4675 34.8134 57.9162 36.2427C57.3969 37.5888 33.4793 17.1926 22.1338 17.8083C13.4977 18.2753 8.70548 24.1187 8.70548 24.1187C5.99829 20.3856 4.48136 17.0713 4.95252 15.8498C6.07243 12.9464 18.5894 10.3031 29.0998 14.3572L29.101 14.354Z" fill="url(#paint7_linear_1263_16051)"/>
<path d="M29.101 14.354C40.788 18.8621 49.4486 29.3877 56.4171 32.5678C57.8099 33.2042 58.4675 34.8134 57.9162 36.2427C57.3969 37.5888 33.874 16.1694 22.5284 16.7851C13.8924 17.2521 8.70548 24.1187 8.70548 24.1187C5.99829 20.3856 4.48136 17.0713 4.95252 15.8498C6.07243 12.9464 18.5894 10.3031 29.0998 14.3572L29.101 14.354Z" fill="url(#paint8_linear_1263_16051)"/>
<g opacity="0.3">
<g style="mix-blend-mode:screen">
<path d="M11.7613 -0.297782C15.1695 10.6078 15.958 22.0861 16.5152 33.4311L16.8397 33.4278C17.0705 22.0304 16.1493 10.3246 12.068 -0.407229L11.7626 -0.300983L11.7613 -0.297782Z" fill="#080808"/>
<path d="M11.8516 -0.332477C15.4615 10.5261 16.2909 22.0605 16.6115 33.4282L16.7407 33.4266C16.7336 22.0366 15.8529 10.4162 11.9751 -0.376651L11.8528 -0.335673L11.8516 -0.332477Z" fill="#1C1C1C"/>
</g>
<g style="mix-blend-mode:screen">
<path d="M9.14268 -1.30755C12.5508 9.59804 13.3394 21.0764 13.8965 32.4214L14.2211 32.418C14.4519 21.0206 13.5307 9.31479 9.44938 -1.417L9.14392 -1.31075L9.14268 -1.30755Z" fill="#080808"/>
<path d="M9.23341 -1.34127C12.8434 9.51728 13.6727 21.0517 13.9934 32.4194L14.1226 32.4178C14.1154 21.0278 13.2347 9.40742 9.35697 -1.38544L9.23465 -1.34446L9.23341 -1.34127Z" fill="#1C1C1C"/>
</g>
<g style="mix-blend-mode:screen">
<path d="M14.3795 0.71296C17.7876 11.6186 18.5762 23.0969 19.1334 34.4419L19.4579 34.4385C19.6887 23.0411 18.7675 11.3353 14.6862 0.603513L14.3807 0.709759L14.3795 0.71296Z" fill="#080808"/>
<path d="M14.4702 0.678267C18.0802 11.5368 18.9095 23.0713 19.2302 34.4389L19.3594 34.4373C19.3522 23.0474 18.4715 11.427 14.5938 0.634094L14.4715 0.675071L14.4702 0.678267Z" fill="#1C1C1C"/>
</g>
<g style="mix-blend-mode:screen">
<path d="M16.9962 1.72175C20.4044 12.6273 21.1929 24.1057 21.7501 35.4507L22.0746 35.4473C22.3054 24.0499 21.3842 12.3441 17.3029 1.6123L16.9974 1.71855L16.9962 1.72175Z" fill="#080808"/>
<path d="M17.0899 1.68901C20.6998 12.5475 21.5292 24.082 21.8498 35.4497L21.979 35.4481C21.9718 24.0581 21.0911 12.4377 17.2134 1.64484L17.0911 1.68581L17.0899 1.68901Z" fill="#1C1C1C"/>
</g>
<g style="mix-blend-mode:screen">
<path d="M19.6144 2.73346C23.0225 13.6391 23.8111 25.1174 24.3682 36.4624L24.6928 36.459C24.9235 25.0616 24.0023 13.3558 19.9211 2.62402L19.6156 2.73026L19.6144 2.73346Z" fill="#080808"/>
<path d="M19.708 2.69975C23.318 13.5583 24.1473 25.0928 24.468 36.4604L24.5972 36.4588C24.59 25.0688 23.7093 13.4484 19.8316 2.65558L19.7093 2.69655L19.708 2.69975Z" fill="#1C1C1C"/>
</g>
<g style="mix-blend-mode:screen">
<path d="M22.2335 3.74323C25.6417 14.6488 26.4302 26.1272 26.9874 37.4721L27.3119 37.4688C27.5427 26.0714 26.6215 14.3656 22.5402 3.63379L22.2347 3.74003L22.2335 3.74323Z" fill="#080808"/>
<path d="M22.3237 3.70854C25.9337 14.5671 26.763 26.1016 27.0837 37.4692L27.2129 37.4676C27.2057 26.0776 26.325 14.4572 22.4473 3.66437L22.325 3.70534L22.3237 3.70854Z" fill="#1C1C1C"/>
</g>
<g style="mix-blend-mode:screen">
<path d="M24.8522 4.75202C28.2603 15.6576 29.0489 27.1359 29.606 38.4809L29.9306 38.4776C30.1613 27.0802 29.2401 15.3744 25.1589 4.64257L24.8534 4.74882L24.8522 4.75202Z" fill="#080808"/>
<path d="M24.9424 4.71733C28.5524 15.5759 29.3817 27.1103 29.7024 38.478L29.8315 38.4764C29.8244 27.0864 28.9437 15.466 25.066 4.67316L24.9436 4.71413L24.9424 4.71733Z" fill="#1C1C1C"/>
</g>
<g style="mix-blend-mode:screen">
<path d="M27.4708 5.76276C30.879 16.6684 31.6675 28.1467 32.2247 39.4917L32.5492 39.4883C32.78 28.0909 31.8588 16.3851 27.7775 5.65332L27.4721 5.75956L27.4708 5.76276Z" fill="#080808"/>
<path d="M27.561 5.72905C31.171 16.5876 32.0004 28.1221 32.321 39.4897L32.4502 39.4881C32.443 28.0981 31.5623 16.4777 27.6846 5.68487L27.5623 5.72585L27.561 5.72905Z" fill="#1C1C1C"/>
</g>
<g style="mix-blend-mode:screen">
<path d="M30.0865 6.77058C33.4947 17.6762 34.2832 29.1545 34.8404 40.4995L35.1649 40.4961C35.3957 29.0987 34.4745 17.3929 30.3932 6.66113L30.0878 6.76738L30.0865 6.77058Z" fill="#080808"/>
<path d="M30.1802 6.73784C33.7901 17.5964 34.6195 29.1309 34.9402 40.4985L35.0693 40.4969C35.0622 29.1069 34.1815 17.4865 30.3038 6.69366L30.1814 6.73464L30.1802 6.73784Z" fill="#1C1C1C"/>
</g>
<g style="mix-blend-mode:screen">
<path d="M32.7047 7.7823C36.1128 18.6879 36.9014 30.1662 37.4586 41.5112L37.7831 41.5078C38.0139 30.1105 37.0927 18.4046 33.0114 7.67285L32.7059 7.7791L32.7047 7.7823Z" fill="#080808"/>
<path d="M32.7984 7.74955C36.4083 18.6081 37.2377 30.1426 37.5583 41.5102L37.6875 41.5086C37.6803 30.1186 36.7996 18.4982 32.9219 7.70538L32.7996 7.74636L32.7984 7.74955Z" fill="#1C1C1C"/>
</g>
<g style="mix-blend-mode:screen">
<path d="M35.3234 8.79402C38.7315 19.6996 39.5201 31.1779 40.0772 42.5229L40.4018 42.5196C40.6325 31.1222 39.7113 19.4164 35.63 8.68457L35.3246 8.79082L35.3234 8.79402Z" fill="#080808"/>
<path d="M35.417 8.76127C39.027 19.6198 39.8563 31.1543 40.177 42.5219L40.3062 42.5203C40.299 31.1304 39.4183 19.51 35.5406 8.7171L35.4182 8.75808L35.417 8.76127Z" fill="#1C1C1C"/>
</g>
<g style="mix-blend-mode:screen">
<path d="M37.9425 9.80085C41.3506 20.7064 42.1392 32.1848 42.6963 43.5298L43.0209 43.5264C43.2517 32.129 42.3305 20.4232 38.2492 9.6914L37.9437 9.79765L37.9425 9.80085Z" fill="#080808"/>
<path d="M38.0332 9.76616C41.6432 20.6247 42.4725 32.1592 42.7932 43.5268L42.9224 43.5252C42.9152 32.1352 42.0345 20.5148 38.1568 9.72198L38.0345 9.76296L38.0332 9.76616Z" fill="#1C1C1C"/>
</g>
<g style="mix-blend-mode:screen">
<path d="M40.5621 10.8126C43.9703 21.7182 44.7588 33.1965 45.316 44.5415L45.6405 44.5381C45.8713 33.1407 44.9501 21.4349 40.8688 10.7031L40.5634 10.8094L40.5621 10.8126Z" fill="#080808"/>
<path d="M40.6524 10.7779C44.2623 21.6364 45.0917 33.1709 45.4123 44.5385L45.5415 44.5369C45.5343 33.147 44.6536 21.5266 40.7759 10.7337L40.6536 10.7747L40.6524 10.7779Z" fill="#1C1C1C"/>
</g>
<g style="mix-blend-mode:screen">
<path d="M43.1769 11.8214C46.585 22.727 47.3736 34.2053 47.9307 45.5503L48.2553 45.5469C48.4861 34.1495 47.5648 22.4437 43.4836 11.7119L43.1781 11.8182L43.1769 11.8214Z" fill="#080808"/>
<path d="M43.2705 11.7886C46.8805 22.6472 47.7098 34.1816 48.0305 45.5493L48.1597 45.5477C48.1525 34.1577 47.2718 22.5373 43.3941 11.7444L43.2718 11.7854L43.2705 11.7886Z" fill="#1C1C1C"/>
</g>
<g style="mix-blend-mode:screen">
<path d="M45.7965 12.8311C49.2046 23.7367 49.9932 35.215 50.5504 46.56L50.8749 46.5567C51.1057 35.1593 50.1845 23.4535 46.1032 12.7217L45.7977 12.8279L45.7965 12.8311Z" fill="#080808"/>
<path d="M45.8901 12.7984C49.5001 23.6569 50.3295 35.1914 50.6501 46.559L50.7793 46.5574C50.7721 35.1675 49.8914 23.5471 46.0137 12.7542L45.8914 12.7952L45.8901 12.7984Z" fill="#1C1C1C"/>
</g>
<g style="mix-blend-mode:screen">
<path d="M48.4142 13.8419C51.8223 24.7475 52.6109 36.2258 53.168 47.5708L53.4926 47.5674C53.7234 36.17 52.8021 24.4642 48.7209 13.7324L48.4154 13.8387L48.4142 13.8419Z" fill="#080808"/>
<path d="M48.5078 13.8091C52.1178 24.6677 52.9471 36.2021 53.2678 47.5698L53.397 47.5682C53.3898 36.1782 52.5091 24.5578 48.6314 13.765L48.5091 13.8059L48.5078 13.8091Z" fill="#1C1C1C"/>
</g>
<g style="mix-blend-mode:screen">
<path d="M51.0333 14.8516C54.4415 25.7572 55.23 37.2356 55.7872 48.5805L56.1117 48.5772C56.3425 37.1798 55.4213 25.474 51.34 14.7422L51.0346 14.8484L51.0333 14.8516Z" fill="#080808"/>
<path d="M51.124 14.8179C54.734 25.6765 55.5633 37.2109 55.884 48.5786L56.0132 48.577C56.006 37.187 55.1253 25.5666 51.2476 14.7737L51.1253 14.8147L51.124 14.8179Z" fill="#1C1C1C"/>
</g>
<g style="mix-blend-mode:screen">
<path d="M53.6529 15.8614C57.0611 26.767 57.8496 38.2453 58.4068 49.5903L58.7313 49.5869C58.9621 38.1896 58.0409 26.4837 53.9596 15.752L53.6542 15.8582L53.6529 15.8614Z" fill="#080808"/>
<path d="M53.7432 15.8267C57.3531 26.6852 58.1825 38.2197 58.5031 49.5874L58.6323 49.5858C58.6252 38.1958 57.7445 26.5754 53.8667 15.7825L53.7444 15.8235L53.7432 15.8267Z" fill="#1C1C1C"/>
</g>
<g style="mix-blend-mode:screen">
<path d="M71.8367 22.6465C61.6038 27.8533 53.0622 35.9127 45.5794 44.5128L45.8176 44.7332C53.8523 36.7023 62.1447 28.7268 71.9904 22.9336L71.8354 22.6497L71.8367 22.6465Z" fill="#080808"/>
<path d="M71.8809 22.7328C61.7598 28.1259 53.3017 36.1404 45.6495 44.5796L45.7442 44.6675C53.6156 36.4598 61.976 28.4701 71.9428 22.8485L71.8797 22.736L71.8809 22.7328Z" fill="#1C1C1C"/>
</g>
<g style="mix-blend-mode:screen">
<path d="M74.4553 23.6583C64.2224 28.865 55.6809 36.9244 48.1981 45.5245L48.4363 45.7449C56.4709 37.7141 64.7634 29.7385 74.6091 23.9453L74.4541 23.6615L74.4553 23.6583Z" fill="#080808"/>
<path d="M74.4986 23.7445C64.3775 29.1376 55.9194 37.1521 48.2672 45.5913L48.3618 45.6793C56.2333 37.4715 64.5937 29.4818 74.5605 23.8602L74.4973 23.7477L74.4986 23.7445Z" fill="#1C1C1C"/>
</g>
<g style="mix-blend-mode:screen">
<path d="M69.2175 21.6378C58.9846 26.8445 50.4431 34.9039 42.9603 43.504L43.1985 43.7244C51.2331 35.6936 59.5256 27.718 69.3713 21.9248L69.2163 21.641L69.2175 21.6378Z" fill="#080808"/>
<path d="M69.2608 21.724C59.1397 27.1171 50.6816 35.1316 43.0294 43.5708L43.124 43.6587C50.9955 35.451 59.3559 27.4613 69.3227 21.8397L69.2596 21.7272L69.2608 21.724Z" fill="#1C1C1C"/>
</g>
<g style="mix-blend-mode:screen">
<path d="M66.5989 20.628C56.366 25.8347 47.8244 33.8942 40.3416 42.4942L40.5798 42.7147C48.6145 34.6838 56.907 26.7083 66.7526 20.915L66.5976 20.6312L66.5989 20.628Z" fill="#080808"/>
<path d="M66.6456 20.7152C56.5244 26.1083 48.0663 34.1228 40.4142 42.562L40.5088 42.65C48.3802 34.4422 56.7406 26.4525 66.7074 20.8309L66.6443 20.7184L66.6456 20.7152Z" fill="#1C1C1C"/>
</g>
<g style="mix-blend-mode:screen">
<path d="M63.9797 19.6182C53.7468 24.825 45.2053 32.8844 37.7225 41.4845L37.9607 41.7049C45.9953 33.674 54.2878 25.6985 64.1335 19.9053L63.9785 19.6214L63.9797 19.6182Z" fill="#080808"/>
<path d="M64.0264 19.7054C53.9053 25.0985 45.4472 33.113 37.795 41.5523L37.8897 41.6402C45.7611 33.4325 54.1215 25.4427 64.0883 19.8211L64.0252 19.7086L64.0264 19.7054Z" fill="#1C1C1C"/>
</g>
<g style="mix-blend-mode:screen">
<path d="M61.3616 18.6075C51.1287 23.8142 42.5871 31.8737 35.1043 40.4737L35.3425 40.6942C43.3772 32.6633 51.6697 24.6878 61.5153 18.8945L61.3603 18.6107L61.3616 18.6075Z" fill="#080808"/>
<path d="M61.4087 18.6947C51.2876 24.0878 42.8295 32.1023 35.1773 40.5415L35.272 40.6294C43.1434 32.4217 51.5038 24.432 61.4706 18.8104L61.4075 18.6979L61.4087 18.6947Z" fill="#1C1C1C"/>
</g>
<g style="mix-blend-mode:screen">
<path d="M58.7459 17.5997C48.513 22.8064 39.9714 30.8658 32.4886 39.4659L32.7268 39.6864C40.7615 31.6555 49.0539 23.6799 58.8996 17.8867L58.7446 17.6029L58.7459 17.5997Z" fill="#080808"/>
<path d="M58.7901 17.6859C48.669 23.079 40.2109 31.0935 32.5587 39.5327L32.6533 39.6207C40.5248 31.4129 48.8852 23.4232 58.852 17.8016L58.7888 17.6891L58.7901 17.6859Z" fill="#1C1C1C"/>
</g>
<g style="mix-blend-mode:screen">
<path d="M56.1267 16.5889C45.8938 21.7957 37.3523 29.8551 29.8695 38.4552L30.1077 38.6756C38.1423 30.6447 46.4348 22.6692 56.2805 16.876L56.1255 16.5921L56.1267 16.5889Z" fill="#080808"/>
<path d="M56.1709 16.6761C46.0498 22.0693 37.5917 30.0837 29.9395 38.523L30.0342 38.6109C37.9056 30.4032 46.266 22.4134 56.2328 16.7919L56.1697 16.6793L56.1709 16.6761Z" fill="#1C1C1C"/>
</g>
<g style="mix-blend-mode:screen">
<path d="M53.5081 15.5792C43.2752 20.7859 34.7336 28.8453 27.2508 37.4454L27.489 37.6658C35.5237 29.635 43.8161 21.6594 53.6618 15.8662L53.5068 15.5824L53.5081 15.5792Z" fill="#080808"/>
<path d="M53.5547 15.6664C43.4336 21.0595 34.9755 29.074 27.3233 37.5132L27.418 37.6011C35.2894 29.3934 43.6498 21.4037 53.6166 15.7821L53.5535 15.6696L53.5547 15.6664Z" fill="#1C1C1C"/>
</g>
<g style="mix-blend-mode:screen">
<path d="M50.8884 14.5674C40.6555 19.7742 32.114 27.8336 24.6312 36.4337L24.8694 36.6541C32.904 28.6232 41.1965 20.6477 51.0422 14.8545L50.8872 14.5706L50.8884 14.5674Z" fill="#080808"/>
<path d="M50.9351 14.6547C40.814 20.0478 32.3559 28.0623 24.7037 36.5015L24.7984 36.5894C32.6698 28.3817 41.0302 20.392 50.997 14.7704L50.9339 14.6579L50.9351 14.6547Z" fill="#1C1C1C"/>
</g>
<g style="mix-blend-mode:screen">
<path d="M48.2708 13.5587C38.0379 18.7654 29.4963 26.8248 22.0135 35.4249L22.2517 35.6453C30.2864 27.6145 38.5788 19.6389 48.4245 13.8457L48.2695 13.5619L48.2708 13.5587Z" fill="#080808"/>
<path d="M48.3179 13.6459C38.1968 19.039 29.7387 27.0535 22.0865 35.4927L22.1812 35.5806C30.0526 27.3729 38.413 19.3832 48.3798 13.7616L48.3167 13.6491L48.3179 13.6459Z" fill="#1C1C1C"/>
</g>
<g style="mix-blend-mode:screen">
<path d="M45.655 12.5499C35.4221 17.7566 26.8806 25.816 19.3978 34.4161L19.636 34.6366C27.6706 26.6057 35.9631 18.6301 45.8088 12.8369L45.6538 12.5531L45.655 12.5499Z" fill="#080808"/>
<path d="M45.6993 12.6371C35.5781 18.0302 27.12 26.0447 19.4679 34.4839L19.5625 34.5718C27.434 26.3641 35.7943 18.3744 45.7612 12.7528L45.698 12.6403L45.6993 12.6371Z" fill="#1C1C1C"/>
</g>
<g style="mix-blend-mode:screen">
<path d="M43.0359 11.5381C32.803 16.7449 24.2614 24.8043 16.7786 33.4044L17.0168 33.6248C25.0515 25.5939 33.344 17.6184 43.1896 11.8252L43.0347 11.5414L43.0359 11.5381Z" fill="#080808"/>
<path d="M43.0791 11.6244C32.958 17.0175 24.4999 25.032 16.8477 33.4712L16.9424 33.5591C24.8138 25.3514 33.1742 17.3617 43.141 11.7401L43.0779 11.6276L43.0791 11.6244Z" fill="#1C1C1C"/>
</g>
<g style="mix-blend-mode:screen">
<path d="M40.4172 10.5284C30.1843 15.7351 21.6428 23.7946 14.16 32.3946L14.3982 32.6151C22.4328 24.5842 30.7253 16.6087 40.571 10.8154L40.416 10.5316L40.4172 10.5284Z" fill="#080808"/>
<path d="M40.4605 10.6156C30.3394 16.0087 21.8813 24.0232 14.2291 32.4624L14.3237 32.5503C22.1952 24.3426 30.5556 16.3529 40.5224 10.7313L40.4593 10.6188L40.4605 10.6156Z" fill="#1C1C1C"/>
</g>
<g style="mix-blend-mode:screen">
<path d="M37.7981 9.5196C27.5652 14.7263 19.0237 22.7858 11.5408 31.3858L11.7791 31.6063C19.8137 23.5754 28.1062 15.5999 37.9518 9.80665L37.7969 9.5228L37.7981 9.5196Z" fill="#080808"/>
<path d="M37.8443 9.60779C27.7232 15.0009 19.2651 23.0154 11.6129 31.4546L11.7075 31.5425C19.579 23.3348 27.9394 15.3451 37.9062 9.72349L37.843 9.61099L37.8443 9.60779Z" fill="#1C1C1C"/>
</g>
<g style="mix-blend-mode:screen">
<path d="M35.1804 8.50788C24.9475 13.7146 16.406 21.774 8.92317 30.3741L9.16138 30.5946C17.196 22.5637 25.4885 14.5881 35.3342 8.79493L35.1792 8.51108L35.1804 8.50788Z" fill="#080808"/>
<path d="M35.2271 8.59509C25.106 13.9882 16.6479 22.0027 8.99569 30.4419L9.09034 30.5298C16.9618 22.3221 25.3222 14.3324 35.289 8.7108L35.2259 8.59829L35.2271 8.59509Z" fill="#1C1C1C"/>
</g>
<g style="mix-blend-mode:screen">
<path d="M32.5642 7.50104C22.3313 12.7078 13.7898 20.7672 6.30696 29.3673L6.54518 29.5877C14.5798 21.5568 22.8723 13.5813 32.718 7.78809L32.563 7.50424L32.5642 7.50104Z" fill="#080808"/>
<path d="M32.6075 7.58728C22.4864 12.9804 14.0282 20.9949 6.37607 29.4341L6.47071 29.522C14.3422 21.3143 22.7025 13.3246 32.6694 7.70299L32.6062 7.59048L32.6075 7.58728Z" fill="#1C1C1C"/>
</g>
<g style="mix-blend-mode:screen">
<path d="M29.9451 6.48932C19.7122 11.6961 11.1706 19.7555 3.68782 28.3556L3.92603 28.576C11.9607 20.5451 20.2531 12.5696 30.0988 6.77638L29.9438 6.49252L29.9451 6.48932Z" fill="#080808"/>
<path d="M29.9883 6.57556C19.8672 11.9687 11.4091 19.9832 3.75693 28.4224L3.85157 28.5103C11.723 20.3026 20.0834 12.3129 30.0502 6.69127L29.9871 6.57876L29.9883 6.57556Z" fill="#1C1C1C"/>
</g>
</g>
</g>
<mask id="mask4_1263_16051" style="mask-type:luminance" maskUnits="userSpaceOnUse" x="4" y="9" width="55" height="30">
<path d="M30.2162 11.4624C42.773 16.3059 49.4476 29.3898 56.4161 32.57C57.8089 33.2064 58.4665 34.8155 57.9152 36.2448C57.3959 37.591 55.9656 38.347 54.5627 38.0225C44.5386 35.7171 37.3888 40.416 21.174 34.1615C10.5902 30.079 3.83606 18.7534 4.95597 15.85C6.07589 12.9466 17.6755 6.62511 30.2194 11.4637L30.2162 11.4624Z" fill="white"/>
</mask>
<g mask="url(#mask4_1263_16051)">
<g style="mix-blend-mode:multiply">
<path opacity="0.04" d="M18.534 8.39087C22.5977 15.4352 17.669 25.7368 9.14452 28.1239C5.70266 21.8006 4.2408 16.7626 4.97073 15.1084C5.83999 13.1405 10.9113 10.3067 18.534 8.39087Z" fill="url(#paint9_linear_1263_16051)"/>
<path opacity="0.08" d="M18.4693 8.4252C22.5072 15.4412 17.6007 25.6852 9.12197 28.068C5.69581 21.7801 4.23861 16.7586 4.96927 15.112C5.83483 13.1537 10.884 10.3297 18.4693 8.4252Z" fill="url(#paint10_linear_1263_16051)"/>
<path opacity="0.12" d="M18.4056 8.45503C22.4157 15.4383 17.5346 25.626 9.10485 28.0056C5.69245 21.7487 4.24506 16.7494 4.96883 15.1111C5.83192 13.1593 10.8608 10.3495 18.4056 8.45503Z" fill="url(#paint11_linear_1263_16051)"/>
<path opacity="0.15" d="M18.3421 8.48889C22.3232 15.4426 17.4676 25.574 9.0836 27.9492C5.68814 21.7246 4.24737 16.7462 4.96867 15.1143C5.82806 13.172 10.8348 10.3721 18.3421 8.48889Z" fill="url(#paint12_linear_1263_16051)"/>
<path opacity="0.19" d="M18.2786 8.5194C22.232 15.4404 17.4037 25.5199 9.06348 27.8862C5.68497 21.6939 4.24641 16.7384 4.96647 15.1097C5.82339 13.1738 10.81 10.3881 18.2754 8.51817L18.2786 8.5194Z" fill="url(#paint13_linear_1263_16051)"/>
<path opacity="0.23" d="M18.2136 8.55361C22.1411 15.4463 17.335 25.4682 9.04382 27.8314C5.68226 21.6713 4.25031 16.7367 4.96791 15.1144C5.82237 13.1849 10.7856 10.4123 18.2136 8.55361Z" fill="url(#paint14_linear_1263_16051)"/>
<path opacity="0.27" d="M18.1512 8.58454C22.0509 15.4444 17.269 25.4132 9.02478 27.7689C5.68016 21.641 4.25485 16.7274 4.96555 15.1134C5.8163 13.1935 10.7573 10.4307 18.148 8.5833L18.1512 8.58454Z" fill="url(#paint15_linear_1263_16051)"/>
<path opacity="0.31" d="M18.0894 8.61925C21.9601 15.4496 17.2036 25.3621 9.00838 27.7146C5.68071 21.619 4.25882 16.725 4.97025 15.1187C5.81534 13.2039 10.7394 10.4566 18.0894 8.61925Z" fill="url(#paint16_linear_1263_16051)"/>
<path opacity="0.35" d="M18.0257 8.65045C21.8687 15.448 17.1376 25.3042 8.9881 27.6523C5.67418 21.5877 4.26087 16.7191 4.97107 15.116C5.81246 13.2108 10.7144 10.4733 18.027 8.64725L18.0257 8.65045Z" fill="url(#paint17_linear_1263_16051)"/>
<path opacity="0.38" d="M17.9613 8.68353C21.7784 15.4528 17.0695 25.2514 8.96581 27.5951C5.66883 21.5628 4.26214 16.7151 4.96544 15.1203C5.80437 13.2216 10.6861 10.4983 17.9568 8.68549L17.9613 8.68353Z" fill="url(#paint18_linear_1263_16051)"/>
<path opacity="0.42" d="M17.8985 8.71434C21.6879 15.4509 17.0031 25.1963 8.94965 27.5337C5.66963 21.5336 4.26637 16.7056 4.9704 15.1185C5.80686 13.2261 10.6652 10.5158 17.9017 8.71557L17.8985 8.71434Z" fill="url(#paint19_linear_1263_16051)"/>
<path opacity="0.46" d="M17.834 8.74875C21.5944 15.4557 16.9382 25.1461 8.92733 27.4778C5.66302 21.5132 4.26761 16.7029 4.96598 15.121C5.79874 13.2382 10.6349 10.5377 17.834 8.74875Z" fill="url(#paint20_linear_1263_16051)"/>
<path opacity="0.5" d="M17.771 8.77983C21.5037 15.4541 16.8716 25.0913 8.91092 27.4167C5.66356 21.4843 4.27355 16.6981 4.97069 15.1194C5.80098 13.243 10.6169 10.5568 17.7755 8.77787L17.771 8.77983Z" fill="url(#paint21_linear_1263_16051)"/>
<path opacity="0.54" d="M17.7066 8.81292C21.4134 15.4588 16.8036 25.0385 8.88863 27.3595C5.6582 21.4594 4.27162 16.6929 4.96505 15.1237C5.79165 13.257 10.5855 10.5806 17.7053 8.81611L17.7066 8.81292Z" fill="url(#paint22_linear_1263_16051)"/>
<path opacity="0.58" d="M17.6422 8.84677C21.3212 15.4599 16.7356 24.9865 8.86762 27.2999C5.65095 21.4308 4.27419 16.6865 4.96515 15.1237C5.78928 13.2633 10.5629 10.6012 17.6422 8.84677Z" fill="url(#paint23_linear_1263_16051)"/>
<path opacity="0.62" d="M17.5785 8.87855C21.2285 15.4621 16.6695 24.9292 8.84927 27.2427C5.64955 21.4058 4.27621 16.6812 4.9647 15.1248C5.78636 13.2708 10.5366 10.6217 17.5785 8.87855Z" fill="url(#paint24_linear_1263_16051)"/>
<path opacity="0.65" d="M17.5138 8.91073C21.1361 15.4616 16.6012 24.8755 8.82802 27.1814C5.64524 21.3768 4.27728 16.6762 4.96455 15.1231C5.77931 13.2774 10.5106 10.6394 17.515 8.90752L17.5138 8.91073Z" fill="url(#paint25_linear_1263_16051)"/>
<path opacity="0.69" d="M17.4513 8.94283C21.049 15.4621 16.5351 24.8217 8.80766 27.1232C5.64183 21.3509 4.28051 16.6713 4.96407 15.1277C5.77637 13.2884 10.4875 10.6646 17.4501 8.94603L17.4513 8.94283Z" fill="url(#paint26_linear_1263_16051)"/>
<path opacity="0.73" d="M17.3865 8.97615C20.9552 15.4659 16.4699 24.7704 8.78947 27.0643C5.64058 21.3242 4.28268 16.6643 4.96378 15.1271C5.77238 13.2975 10.4613 10.6835 17.3865 8.97615Z" fill="url(#paint27_linear_1263_16051)"/>
<path opacity="0.77" d="M17.3231 9.00708C20.864 15.4641 16.4029 24.7154 8.76821 27.005C5.63628 21.2971 4.285 16.6581 4.96363 15.1273C5.76976 13.3041 10.4385 10.7043 17.3231 9.00708Z" fill="url(#paint28_linear_1263_16051)"/>
<path opacity="0.81" d="M17.2584 9.04082C20.7703 15.4683 16.3346 24.6633 8.75011 26.9465C5.63192 21.2696 4.28923 16.656 4.9622 15.1304C5.76586 13.3135 10.4112 10.7268 17.2584 9.04082Z" fill="url(#paint29_linear_1263_16051)"/>
<path opacity="0.85" d="M17.1956 9.07124C20.6829 15.4672 16.2694 24.6046 8.72951 26.8866C5.62826 21.2421 4.289 16.6481 4.9627 15.1301C5.76266 13.3228 10.3859 10.7459 17.1944 9.07443L17.1956 9.07124Z" fill="url(#paint30_linear_1263_16051)"/>
<path opacity="0.88" d="M17.1303 9.10607C20.5886 15.4724 16.2004 24.5536 8.70752 26.828C5.62199 21.2189 4.29059 16.6426 4.95863 15.1298C5.75612 13.3289 10.3591 10.7663 17.1271 9.10483L17.1303 9.10607Z" fill="url(#paint31_linear_1263_16051)"/>
<path opacity="0.92" d="M17.0675 9.1359C20.4981 15.4695 16.1341 24.4975 8.69015 26.7688C5.62157 21.1919 4.29678 16.6366 4.96235 15.1302C5.75614 13.3389 10.337 10.7861 17.0675 9.1359Z" fill="url(#paint32_linear_1263_16051)"/>
<path opacity="0.96" d="M17.0021 9.17073C20.4037 15.4748 16.0651 24.4465 8.66817 26.7102C5.61653 21.1655 4.29394 16.6331 4.95704 15.1331C5.74517 13.347 10.309 10.8096 16.9989 9.16949L17.0021 9.17073Z" fill="url(#paint33_linear_1263_16051)"/>
<path d="M16.939 9.20062C20.3159 15.4732 16.0015 24.3918 8.65037 26.6511C5.61568 21.1387 4.29971 16.6272 4.96034 15.1335C5.746 13.3538 10.2865 10.8295 16.9377 9.20381L16.939 9.20062Z" fill="url(#paint34_linear_1263_16051)"/>
</g>
<path d="M16.9394 9.20015C20.446 15.7174 15.7324 24.471 8.65075 26.6506C5.61606 21.1382 4.30009 16.6267 4.96073 15.133C5.74639 13.3533 10.2869 10.829 16.9381 9.20335L16.9394 9.20015Z" fill="url(#paint35_linear_1263_16051)"/>
<g style="mix-blend-mode:multiply">
<path opacity="0.1" d="M16.0702 9.12872C17.4003 11.7943 17.6052 15.1867 16.2682 18.6528C14.8522 22.3236 12.1122 25.0465 8.97978 26.4536C5.76598 21.177 4.28315 16.9648 4.8653 15.4555C5.55476 13.6681 9.71609 11.1078 16.0702 9.12872Z" fill="url(#paint36_linear_1263_16051)"/>
<path opacity="0.13" d="M16.0361 9.14928C17.3623 11.806 17.5644 15.1863 16.2312 18.6428C14.8202 22.3008 12.0871 25.0154 8.96987 26.421C5.76712 21.1634 4.28697 16.9632 4.8679 15.4572C5.55489 13.6762 9.70737 11.1197 16.0393 9.15052L16.0361 9.14928Z" fill="url(#paint37_linear_1263_16051)"/>
<path opacity="0.17" d="M16.0001 9.16887C17.3179 11.8187 17.5206 15.1882 16.1922 18.6319C14.7849 22.2803 12.0631 24.9845 8.95356 26.3895C5.75867 21.1495 4.28565 16.9595 4.86411 15.4598C5.54987 13.682 9.68782 11.1347 15.9989 9.17207L16.0001 9.16887Z" fill="url(#paint38_linear_1263_16051)"/>
<path opacity="0.2" d="M15.965 9.19138C17.2789 11.8323 17.4776 15.1929 16.1542 18.6239C14.7519 22.2595 12.0401 24.9566 8.93946 26.3576C5.75562 21.1366 4.28531 16.9587 4.86376 15.459C5.54706 13.6876 9.67491 11.1473 15.965 9.19138Z" fill="url(#paint39_linear_1263_16051)"/>
<path opacity="0.24" d="M15.928 9.20998C17.2367 11.8453 17.4328 15.1938 16.1143 18.612C14.7169 22.2348 12.0165 24.9216 8.92662 26.3231C5.75064 21.1198 4.2862 16.9551 4.86343 15.4587C5.54549 13.6905 9.66324 11.1574 15.9312 9.21121L15.928 9.20998Z" fill="url(#paint40_linear_1263_16051)"/>
<path opacity="0.27" d="M15.8949 9.23054C17.1965 11.8558 17.393 15.1935 16.0782 18.602C14.6858 22.2121 11.9923 24.8905 8.91448 26.2893C5.75079 21.1018 4.28905 16.9492 4.86381 15.4591C5.54464 13.6941 9.64786 11.1701 15.8949 9.23054Z" fill="url(#paint41_linear_1263_16051)"/>
<path opacity="0.31" d="M15.8618 9.25012C17.1582 11.8697 17.3521 15.1953 16.041 18.5943C14.6534 22.1915 11.97 24.8628 8.9011 26.2577C5.74846 21.0892 4.28942 16.9486 4.86295 15.4617C5.54131 13.7031 9.63444 11.1862 15.8606 9.25332L15.8618 9.25012Z" fill="url(#paint42_linear_1263_16051)"/>
<path opacity="0.34" d="M15.8258 9.26873C17.1182 11.8794 17.3082 15.1962 16.002 18.5824C14.6182 22.17 11.9461 24.831 8.88922 26.2232C5.74444 21.0724 4.29253 16.9419 4.86359 15.4614C5.54072 13.706 9.61932 11.1982 15.8245 9.27192L15.8258 9.26873Z" fill="url(#paint43_linear_1263_16051)"/>
<path opacity="0.38" d="M15.7907 9.28929C17.0748 11.8931 17.2665 15.1958 15.964 18.5724C14.5851 22.1473 11.9232 24.8011 8.87514 26.1894C5.74141 21.0576 4.29219 16.9391 4.86201 15.4619C5.53667 13.7128 9.60642 11.2089 15.7895 9.29248L15.7907 9.28929Z" fill="url(#paint44_linear_1263_16051)"/>
<path opacity="0.41" d="M15.7586 9.30984C17.0387 11.9048 17.2265 15.1987 15.929 18.5625C14.555 22.1246 11.9031 24.7713 8.86397 26.1556C5.74253 21.0395 4.29477 16.9363 4.86459 15.4591C5.53802 13.7132 9.59324 11.2184 15.7586 9.30984Z" fill="url(#paint45_linear_1263_16051)"/>
<path opacity="0.45" d="M15.7206 9.32845C16.9924 11.9165 17.1807 15.1995 15.8881 18.5506C14.519 22.0998 11.8741 24.7382 8.85015 26.1211C5.73656 21.0227 4.29273 16.9284 4.86009 15.4575C5.53105 13.7181 9.57618 11.2304 15.7174 9.32722L15.7206 9.32845Z" fill="url(#paint46_linear_1263_16051)"/>
<path opacity="0.48" d="M15.6865 9.35194C16.9544 11.9311 17.1399 15.2021 15.8511 18.5436C14.4869 22.08 11.8521 24.7113 8.83702 26.0902C5.7345 21.0108 4.29336 16.9285 4.85949 15.4609C5.52921 13.7246 9.56301 11.2473 15.6833 9.3507L15.6865 9.35194Z" fill="url(#paint47_linear_1263_16051)"/>
<path opacity="0.52" d="M15.6495 9.37054C16.9122 11.944 17.0951 15.203 15.8111 18.5316C14.4507 22.0585 11.8272 24.6795 8.82418 26.0557C5.72951 20.994 4.29426 16.925 4.85915 15.4606C5.52641 13.7307 9.54815 11.2561 15.6495 9.37054Z" fill="url(#paint48_linear_1263_16051)"/>
<path opacity="0.55" d="M15.6164 9.3911C16.872 11.9545 17.0541 15.2058 15.7751 18.5217C14.4196 22.0358 11.8062 24.6496 8.81204 26.0219C5.72842 20.9792 4.29711 16.9191 4.85953 15.461C5.52556 13.7343 9.53596 11.27 15.6132 9.38987L15.6164 9.3911Z" fill="url(#paint49_linear_1263_16051)"/>
<path opacity="0.58" d="M15.5833 9.41068C16.8337 11.9684 17.0131 15.2077 15.7391 18.5108C14.3885 22.0121 11.7852 24.6187 8.79989 25.9871C5.72856 20.9601 4.29871 16.9153 4.8599 15.4604C5.52346 13.7401 9.52057 11.2817 15.5801 9.40945L15.5833 9.41068Z" fill="url(#paint50_linear_1263_16051)"/>
<path opacity="0.62" d="M15.546 9.43099C16.7925 11.9799 16.9724 15.2083 15.7008 18.505C14.3552 21.9935 11.7587 24.5918 8.78875 25.9587C5.72527 20.9495 4.30255 16.9147 4.86127 15.4662C5.5236 13.7492 9.50939 11.3011 15.5448 9.43418L15.546 9.43099Z" fill="url(#paint51_linear_1263_16051)"/>
<path opacity="0.65" d="M15.5119 9.44959C16.7501 11.9916 16.9305 15.2092 15.6638 18.4931C14.3231 21.9688 11.7368 24.56 8.77562 25.923C5.7232 20.9327 4.30318 16.91 4.8619 15.4615C5.52176 13.7508 9.49868 11.3067 15.5119 9.44959Z" fill="url(#paint52_linear_1263_16051)"/>
<path opacity="0.69" d="M15.4759 9.46917C16.7101 12.0023 16.8866 15.211 15.6248 18.4821C14.2879 21.9483 11.7128 24.5291 8.76055 25.8882C5.71919 20.9169 4.30185 16.9062 4.85934 15.4609C5.51797 13.7535 9.48037 11.3184 15.4759 9.46917Z" fill="url(#paint53_linear_1263_16051)"/>
<path opacity="0.72" d="M15.4418 9.49266C16.6708 12.0201 16.8459 15.2136 15.5878 18.4751C14.2558 21.9285 11.6909 24.5022 8.75064 25.8586C5.71836 20.9018 4.30692 16.9044 4.86194 15.4655C5.5181 13.7644 9.47041 11.3365 15.4418 9.49266Z" fill="url(#paint54_linear_1263_16051)"/>
<path opacity="0.76" d="M15.4077 9.51224C16.6296 12.0296 16.8039 15.2155 15.5508 18.4642C14.2237 21.9047 11.6657 24.4701 8.73751 25.8238C5.71629 20.8859 4.30755 16.9007 4.86134 15.465C5.51626 13.7671 9.45404 11.3482 15.4077 9.51224Z" fill="url(#paint55_linear_1263_16051)"/>
<path opacity="0.79" d="M15.3717 9.53085C16.5884 12.0425 16.7601 15.2164 15.5119 18.4523C14.1897 21.88 11.6417 24.4383 8.72245 25.788C5.70908 20.8679 4.30746 16.8927 4.85878 15.4634C5.51247 13.7687 9.44015 11.357 15.3685 9.52961L15.3717 9.53085Z" fill="url(#paint56_linear_1263_16051)"/>
<path opacity="0.83" d="M15.3376 9.55141C16.5472 12.053 16.7193 15.216 15.4749 18.4423C14.1564 21.8605 11.6198 24.4084 8.71252 25.7555C5.71021 20.8543 4.31129 16.8912 4.86138 15.4651C5.51261 13.7768 9.427 11.3709 15.3376 9.55141Z" fill="url(#paint57_linear_1263_16051)"/>
<path opacity="0.86" d="M15.3042 9.57223C16.5099 12.065 16.6781 15.2191 15.4386 18.4326C14.125 21.838 11.5985 24.3788 8.70013 25.7219C5.70887 20.8397 4.31264 16.8887 4.86273 15.4626C5.51272 13.7774 9.41578 11.3819 15.3054 9.56903L15.3042 9.57223Z" fill="url(#paint58_linear_1263_16051)"/>
<path opacity="0.9" d="M15.2675 9.59057C16.468 12.0777 16.6335 15.2197 15.3977 18.4236C14.089 21.8162 11.5726 24.3499 8.68631 25.6903C5.70414 20.8227 4.3138 16.8849 4.86143 15.4652C5.50895 13.7865 9.40192 11.3981 15.2675 9.59057Z" fill="url(#paint59_linear_1263_16051)"/>
<path opacity="0.93" d="M15.2343 9.61015C16.4278 12.0871 16.5925 15.2216 15.3616 18.4127C14.0579 21.7925 11.5484 24.3178 8.67416 25.6556C5.70305 20.8068 4.31541 16.8811 4.8618 15.4646C5.50809 13.7891 9.38776 11.4066 15.2343 9.61015Z" fill="url(#paint60_linear_1263_16051)"/>
<path opacity="0.97" d="M15.1954 9.63266C16.3836 12.104 16.547 15.2232 15.3197 18.4047C14.021 21.7717 11.5216 24.2899 8.65616 25.6237C5.69611 20.794 4.31239 16.8771 4.85631 15.467C5.50013 13.7979 9.36971 11.4225 15.1954 9.63266Z" fill="url(#paint61_linear_1263_16051)"/>
<path d="M15.1623 9.65225C16.3466 12.1147 16.506 15.225 15.2837 18.3938C13.9887 21.7512 11.5006 24.2591 8.64723 25.5902C5.69502 20.7781 4.3172 16.8746 4.85989 15.4677C5.50248 13.8017 9.35753 11.4355 15.1623 9.65225Z" fill="url(#paint62_linear_1263_16051)"/>
</g>
<path d="M15.1632 9.65323C16.3476 12.1157 16.507 15.226 15.2847 18.3948C13.9896 21.7522 11.5015 24.26 8.6482 25.5912C5.696 20.7791 4.31818 16.8756 4.86086 15.4686C5.50346 13.8027 9.35851 11.4364 15.1632 9.65323Z" fill="url(#paint63_linear_1263_16051)"/>
<path d="M10.2922 17.6051C9.31744 17.2291 8.83202 16.1341 9.20803 15.1592C9.58404 14.1844 10.6791 13.699 11.6539 14.075C12.6287 14.451 13.1141 15.5461 12.7381 16.5209C12.3621 17.4957 11.2671 17.9811 10.2922 17.6051Z" fill="url(#paint64_linear_1263_16051)"/>
<path d="M10.4433 17.2147C9.6839 16.9217 9.30575 16.0687 9.59866 15.3094C9.89157 14.55 10.7446 14.1719 11.504 14.4648C12.2633 14.7577 12.6415 15.6107 12.3486 16.3701C12.0556 17.1294 11.2026 17.5076 10.4433 17.2147Z" fill="url(#paint65_linear_1263_16051)"/>
<path d="M10.6945 16.563C10.2954 16.4091 10.0966 15.9607 10.2506 15.5616C10.4045 15.1625 10.8529 14.9638 11.252 15.1177C11.6511 15.2717 11.8498 15.72 11.6959 16.1191C11.5419 16.5182 11.0936 16.717 10.6945 16.563Z" fill="#1B1817"/>
<path d="M10.5217 14.8201C10.3001 14.9183 10.2002 15.1773 10.2984 15.3989C10.3967 15.6204 10.6557 15.7203 10.8772 15.6221C11.0987 15.5239 11.1986 15.2649 11.1004 15.0434C11.0022 14.8218 10.7432 14.7219 10.5217 14.8201Z" fill="white"/>
<path style="mix-blend-mode:screen" d="M10.1743 16.5901C9.41848 16.2985 9.0421 15.4495 9.33365 14.6936C9.62519 13.9378 10.4743 13.5614 11.2301 13.853C11.9859 14.1445 12.3623 14.9936 12.0707 15.7494C11.7792 16.5052 10.9301 16.8816 10.1743 16.5901Z" fill="url(#paint66_radial_1263_16051)"/>
<path style="mix-blend-mode:screen" opacity="0.5" d="M9.53066 18.4756C9.21731 18.3548 8.92491 18.1795 8.59698 18.1155C7.96153 17.9916 6.46394 18.3506 6.27994 18.5515C6.0319 18.8231 6.1053 19.2518 6.20757 19.5962C6.51096 20.6095 7.98024 24.0855 9.00835 24.0008C12.7965 23.6841 15.4732 16.9256 14.4308 16.5235C13.3884 16.1214 12.6977 19.7119 9.53066 18.4756Z" fill="url(#paint67_linear_1263_16051)"/>
<path style="mix-blend-mode:screen" opacity="0.5" d="M8.82999 23.3293C8.17541 23.1503 6.09493 19.4018 6.64204 19.0215C7.18915 18.6411 8.44229 20.6966 11.838 21.0257C13.3113 21.1679 9.69219 23.5701 8.82876 23.3325L8.82999 23.3293Z" fill="url(#paint68_linear_1263_16051)"/>
<path style="mix-blend-mode:screen" opacity="0.5" d="M12.6644 13.388C11.6884 13.2613 10.6383 13.1649 9.77471 13.6325C8.72965 14.1992 8.2479 15.4386 7.32028 16.1864C6.64975 16.7249 6.12216 16.5214 5.96795 16.1974C5.85033 15.95 5.95986 15.647 6.13993 15.4373C7.40929 13.9653 9.99321 12.3613 13.6648 11.9373C14.2342 11.8704 15.1924 12.3098 14.7085 13.0121C14.3096 13.5892 13.2413 13.4636 12.6612 13.3868L12.6644 13.388Z" fill="url(#paint69_linear_1263_16051)"/>
<path style="mix-blend-mode:screen" opacity="0.5" d="M41.4267 36.005C38.4726 36.3974 35.1457 36.8516 32.5371 35.2246C29.6566 33.4265 27.42 28.2257 18.6463 25.5356C17.6183 25.2199 16.9619 24.941 17.006 23.8744C17.0706 22.2023 17.9397 20.4253 19.6741 19.9189C28.7692 17.2524 52.1708 33.6917 52.8321 35.2435C53.6698 37.2049 47.0838 35.2522 41.4267 36.005Z" fill="url(#paint70_linear_1263_16051)"/>
<path style="mix-blend-mode:screen" opacity="0.5" d="M26.9402 16.9659C20.7039 15.2399 19.5403 16.2567 19.0816 15.0366C18.6273 13.8145 20.5983 12.7234 24.339 13.5676C35.7705 16.1477 47.6092 27.4621 52.4846 31.2307C54.8442 33.0556 56.7834 34.2848 56.6804 34.7042C56.4191 35.7531 38.4531 20.1542 26.9402 16.9659Z" fill="url(#paint71_linear_1263_16051)"/>
<path style="mix-blend-mode:multiply" d="M42.4698 36.6471C44.055 25.0939 54.7058 17.0134 66.259 18.5986C77.8121 20.1839 85.8926 30.8347 84.3074 42.3878C82.7221 53.941 72.0713 62.0215 60.5182 60.4363C48.9651 58.851 40.8845 48.2002 42.4698 36.6471Z" fill="url(#paint72_radial_1263_16051)"/>
<path style="mix-blend-mode:screen" d="M-13.9855 -2.50739C-12.2301 -9.34769 4.56216 -10.9487 23.521 -6.08334C42.4799 -1.21798 56.426 8.27132 54.6706 15.1116C52.9152 21.9519 36.123 23.5529 17.1641 18.6876C-1.79472 13.8222 -15.7409 4.3329 -13.9855 -2.50739Z" fill="url(#paint73_radial_1263_16051)"/>
<path style="mix-blend-mode:screen" d="M-12.704 8.13218C-12.9324 2.62894 -0.751818 -2.34561 14.5022 -2.9788C29.7562 -3.61198 42.3072 0.33598 42.5356 5.83922C42.764 11.3425 30.5834 16.317 15.3294 16.9502C0.0754231 17.5834 -12.4756 13.6354 -12.704 8.13218Z" fill="url(#paint74_radial_1263_16051)"/>
<path style="mix-blend-mode:screen" d="M60.4304 37.0768C43.1955 27.7994 31.9374 15.2378 35.2846 9.01947C38.6318 2.80118 55.3169 5.28102 72.5518 14.5584C89.7867 23.8357 101.045 36.3974 97.6976 42.6157C94.3504 48.8339 77.6653 46.3541 60.4304 37.0768Z" fill="url(#paint75_radial_1263_16051)"/>
</g>
<path d="M15.7653 25.4607C15.7859 25.5311 16.4014 27.6493 16.3808 27.5789C16.6587 28.5346 17.1278 29.4135 17.7494 30.1638C18.3709 30.9141 19.1424 31.5423 20.0295 31.9947C23.1187 33.5757 27.3089 35.2544 30.774 35.118C27.4618 30.6299 15.871 25.5199 15.7621 25.4595L15.7653 25.4607Z" fill="url(#paint76_linear_1263_16051)"/>
<mask id="mask5_1263_16051" style="mask-type:luminance" maskUnits="userSpaceOnUse" x="15" y="25" width="16" height="11">
<path d="M15.7648 25.4617C15.7854 25.5321 16.4009 27.6502 16.3803 27.5799C16.6582 28.5356 17.1273 29.4144 17.7489 30.1648C18.3704 30.9151 19.1419 31.5433 20.029 31.9957C23.1182 33.5766 27.3084 35.2554 30.7735 35.119C27.4613 30.6309 15.8705 25.5209 15.7616 25.4605L15.7648 25.4617Z" fill="white"/>
</mask>
<g mask="url(#mask5_1263_16051)">
<g style="mix-blend-mode:screen">
<path d="M11.3095 24.3464C17.8291 27.3093 24.911 31.0144 31.051 34.7236C31.6099 35.0457 31.6294 35.0238 31.0909 34.6581C25.1244 30.6707 18.0452 26.816 11.3063 24.3452L11.3095 24.3464Z" fill="#141315"/>
<path d="M21.5773 29.316C22.1366 29.5611 27.0101 32.2491 25.5661 31.3358C23.1764 29.8557 20.0012 28.1167 17.2826 27.0129C17.3605 27.0871 17.8281 27.3225 18.044 27.4389C19.224 28.0556 20.3764 28.6581 21.5773 29.316Z" fill="#1F1D20"/>
<path d="M21.6007 29.2658C21.9381 29.429 23.7381 30.3621 22.7102 29.7415C22.0074 29.3161 20.9386 28.7349 20.209 28.4645C20.5282 28.6941 21.1179 28.9841 21.5995 29.269L21.6007 29.2658Z" fill="#323033"/>
<path d="M9.61942 24.8926C15.1096 27.7817 26.3676 33.1638 32.0624 35.6176C26.5723 32.7285 15.3142 27.3464 9.61942 24.8926Z" fill="#141315"/>
<path d="M20.7902 30.3647C26.9573 33.2321 27.0039 33.1399 20.8982 30.1419C14.7311 27.2745 14.6845 27.3668 20.7902 30.3647Z" fill="#1F1D20"/>
<path d="M20.8123 30.317C22.9353 31.2792 22.9545 31.2388 20.8724 30.1896C18.7494 29.2274 18.7302 29.2678 20.8123 30.317Z" fill="#323033"/>
<path d="M9.40174 25.4538C15.8543 30.0475 23.2389 33.3772 30.8446 35.5909C32.2121 35.9788 32.3277 35.9647 30.8789 35.483C23.3604 33.0053 16.1299 29.5808 9.40174 25.4538Z" fill="#141315"/>
<path d="M20.2467 31.614C21.1249 32.0703 28.0554 34.7584 23.7288 32.9095C21.0863 31.78 18.1141 30.3433 15.5366 29.1214C15.8565 29.3586 16.3958 29.6364 16.9373 29.9372C18.0017 30.5204 19.1409 31.081 20.2499 31.6153L20.2467 31.614Z" fill="#1F1D20"/>
<path d="M20.2683 31.5661C20.6119 31.7133 22.1789 32.3839 21.8063 32.1594C21.0735 31.7738 19.586 31.0972 18.8203 30.7872C18.4088 30.6541 19.9353 31.4009 20.2715 31.5673L20.2683 31.5661Z" fill="#323033"/>
</g>
</g>
<defs>
<linearGradient id="paint0_linear_1263_16051" x1="67.6164" y1="39.977" x2="54.4106" y2="34.8831" gradientUnits="userSpaceOnUse">
<stop stop-color="#746F75"/>
<stop offset="0.5" stop-color="#373037"/>
<stop offset="1" stop-color="#231D21"/>
</linearGradient>
<radialGradient id="paint1_radial_1263_16051" cx="0" cy="0" r="1" gradientUnits="userSpaceOnUse" gradientTransform="translate(72.2409 27.7816) rotate(146.533) scale(11.4807 42.5209)">
<stop stop-color="#6D3729"/>
<stop offset="1" stop-color="#010101"/>
</radialGradient>
<linearGradient id="paint2_linear_1263_16051" x1="56.675" y1="25.2403" x2="24.9042" y2="12.9854" gradientUnits="userSpaceOnUse">
<stop stop-color="#373037"/>
<stop offset="1" stop-color="#746F75"/>
</linearGradient>
<radialGradient id="paint3_radial_1263_16051" cx="0" cy="0" r="1" gradientUnits="userSpaceOnUse" gradientTransform="translate(28.8731 12.3384) rotate(109.313) scale(6.02209 22.304)">
<stop stop-color="#6D3729"/>
<stop offset="1" stop-color="#010101"/>
</radialGradient>
<radialGradient id="paint4_radial_1263_16051" cx="0" cy="0" r="1" gradientUnits="userSpaceOnUse" gradientTransform="translate(28.6389 9.28912) rotate(122.093) scale(2.23075 35.2458)">
<stop stop-color="#6D3729"/>
<stop offset="1" stop-color="#010101"/>
</radialGradient>
<linearGradient id="paint5_linear_1263_16051" x1="57.6944" y1="36.815" x2="4.7431" y2="16.3902" gradientUnits="userSpaceOnUse">
<stop stop-color="#C9C4CC"/>
<stop offset="0.25" stop-color="#DFD8E0"/>
<stop offset="0.7" stop-color="#A29EA7"/>
</linearGradient>
<linearGradient id="paint6_linear_1263_16051" x1="59.1303" y1="33.093" x2="6.17902" y2="12.6682" gradientUnits="userSpaceOnUse">
<stop stop-color="#746F75"/>
<stop offset="1" stop-color="#373037"/>
</linearGradient>
<linearGradient id="paint7_linear_1263_16051" x1="58.5736" y1="34.5384" x2="5.62225" y2="14.1135" gradientUnits="userSpaceOnUse">
<stop stop-color="#524C53"/>
<stop offset="1" stop-color="#373037"/>
</linearGradient>
<linearGradient id="paint8_linear_1263_16051" x1="58.5736" y1="34.5384" x2="5.62225" y2="14.1135" gradientUnits="userSpaceOnUse">
<stop stop-color="#373037"/>
<stop offset="0.5" stop-color="#3F383B"/>
<stop offset="1" stop-color="#484142"/>
</linearGradient>
<linearGradient id="paint9_linear_1263_16051" x1="7.42601" y1="27.3669" x2="16.2634" y2="7.38949" gradientUnits="userSpaceOnUse">
<stop stop-color="#F8F7F7"/>
<stop offset="1" stop-color="white"/>
</linearGradient>
<linearGradient id="paint10_linear_1263_16051" x1="7.40934" y1="27.3113" x2="16.2065" y2="7.42482" gradientUnits="userSpaceOnUse">
<stop stop-color="#F3F2F2"/>
<stop offset="1" stop-color="white"/>
</linearGradient>
<linearGradient id="paint11_linear_1263_16051" x1="7.39244" y1="27.2545" x2="16.1494" y2="7.45886" gradientUnits="userSpaceOnUse">
<stop stop-color="#EFEDEE"/>
<stop offset="1" stop-color="white"/>
</linearGradient>
<linearGradient id="paint12_linear_1263_16051" x1="7.38159" y1="27.1967" x2="16.0969" y2="7.4951" gradientUnits="userSpaceOnUse">
<stop stop-color="#EBE8E9"/>
<stop offset="1" stop-color="white"/>
</linearGradient>
<linearGradient id="paint13_linear_1263_16051" x1="7.36489" y1="27.1405" x2="16.0386" y2="7.53295" gradientUnits="userSpaceOnUse">
<stop stop-color="#E7E4E5"/>
<stop offset="1" stop-color="white"/>
</linearGradient>
<linearGradient id="paint14_linear_1263_16051" x1="7.34931" y1="27.0817" x2="15.9815" y2="7.56816" gradientUnits="userSpaceOnUse">
<stop stop-color="#E2E0E1"/>
<stop offset="1" stop-color="white"/>
</linearGradient>
<linearGradient id="paint15_linear_1263_16051" x1="7.33682" y1="27.0273" x2="15.9288" y2="7.60468" gradientUnits="userSpaceOnUse">
<stop stop-color="#DEDBDD"/>
<stop offset="1" stop-color="white"/>
</linearGradient>
<linearGradient id="paint16_linear_1263_16051" x1="7.32129" y1="26.9678" x2="15.8717" y2="7.63916" gradientUnits="userSpaceOnUse">
<stop stop-color="#DAD7D9"/>
<stop offset="1" stop-color="white"/>
</linearGradient>
<linearGradient id="paint17_linear_1263_16051" x1="7.30443" y1="26.9123" x2="15.8146" y2="7.67455" gradientUnits="userSpaceOnUse">
<stop stop-color="#D6D3D5"/>
<stop offset="1" stop-color="white"/>
</linearGradient>
<linearGradient id="paint18_linear_1263_16051" x1="7.29115" y1="26.8569" x2="15.7611" y2="7.71003" gradientUnits="userSpaceOnUse">
<stop stop-color="#D2CFD2"/>
<stop offset="1" stop-color="white"/>
</linearGradient>
<linearGradient id="paint19_linear_1263_16051" x1="7.27661" y1="26.7979" x2="15.7036" y2="7.74817" gradientUnits="userSpaceOnUse">
<stop stop-color="#CFCBCE"/>
<stop offset="1" stop-color="white"/>
</linearGradient>
<linearGradient id="paint20_linear_1263_16051" x1="7.26017" y1="26.7424" x2="15.6469" y2="7.78359" gradientUnits="userSpaceOnUse">
<stop stop-color="#CBC7CA"/>
<stop offset="1" stop-color="white"/>
</linearGradient>
<linearGradient id="paint21_linear_1263_16051" x1="7.24851" y1="26.685" x2="15.5937" y2="7.82025" gradientUnits="userSpaceOnUse">
<stop stop-color="#C7C3C7"/>
<stop offset="1" stop-color="white"/>
</linearGradient>
<linearGradient id="paint22_linear_1263_16051" x1="7.23209" y1="26.6282" x2="15.537" y2="7.85434" gradientUnits="userSpaceOnUse">
<stop stop-color="#C4BFC3"/>
<stop offset="1" stop-color="white"/>
</linearGradient>
<linearGradient id="paint23_linear_1263_16051" x1="7.21713" y1="26.569" x2="15.4805" y2="7.88919" gradientUnits="userSpaceOnUse">
<stop stop-color="#C0BCC0"/>
<stop offset="1" stop-color="white"/>
</linearGradient>
<linearGradient id="paint24_linear_1263_16051" x1="7.20336" y1="26.5155" x2="15.4265" y2="7.92657" gradientUnits="userSpaceOnUse">
<stop stop-color="#BDB8BD"/>
<stop offset="1" stop-color="white"/>
</linearGradient>
<linearGradient id="paint25_linear_1263_16051" x1="7.18675" y1="26.4578" x2="15.3683" y2="7.96287" gradientUnits="userSpaceOnUse">
<stop stop-color="#B9B4B9"/>
<stop offset="1" stop-color="white"/>
</linearGradient>
<linearGradient id="paint26_linear_1263_16051" x1="7.17244" y1="26.4001" x2="15.3124" y2="7.99918" gradientUnits="userSpaceOnUse">
<stop stop-color="#B5B1B6"/>
<stop offset="1" stop-color="white"/>
</linearGradient>
<linearGradient id="paint27_linear_1263_16051" x1="7.15883" y1="26.3449" x2="15.2586" y2="8.03489" gradientUnits="userSpaceOnUse">
<stop stop-color="#B2ADB3"/>
<stop offset="1" stop-color="white"/>
</linearGradient>
<linearGradient id="paint28_linear_1263_16051" x1="7.14361" y1="26.286" x2="15.2018" y2="8.07002" gradientUnits="userSpaceOnUse">
<stop stop-color="#AFA9AF"/>
<stop offset="1" stop-color="white"/>
</linearGradient>
<linearGradient id="paint29_linear_1263_16051" x1="7.12697" y1="26.2299" x2="15.1449" y2="8.10476" gradientUnits="userSpaceOnUse">
<stop stop-color="#ABA6AC"/>
<stop offset="1" stop-color="white"/>
</linearGradient>
<linearGradient id="paint30_linear_1263_16051" x1="7.11415" y1="26.175" x2="15.0919" y2="8.14076" gradientUnits="userSpaceOnUse">
<stop stop-color="#A8A3A9"/>
<stop offset="1" stop-color="white"/>
</linearGradient>
<linearGradient id="paint31_linear_1263_16051" x1="7.09821" y1="26.1168" x2="15.033" y2="8.17973" gradientUnits="userSpaceOnUse">
<stop stop-color="#A49FA6"/>
<stop offset="1" stop-color="white"/>
</linearGradient>
<linearGradient id="paint32_linear_1263_16051" x1="7.08228" y1="26.0599" x2="14.9768" y2="8.21376" gradientUnits="userSpaceOnUse">
<stop stop-color="#A19CA3"/>
<stop offset="1" stop-color="white"/>
</linearGradient>
<linearGradient id="paint33_linear_1263_16051" x1="7.06948" y1="26.0031" x2="14.9224" y2="8.25098" gradientUnits="userSpaceOnUse">
<stop stop-color="#9E99A0"/>
<stop offset="1" stop-color="white"/>
</linearGradient>
<linearGradient id="paint34_linear_1263_16051" x1="7.05313" y1="25.9463" x2="14.8659" y2="8.28508" gradientUnits="userSpaceOnUse">
<stop stop-color="#9B959D"/>
<stop offset="1" stop-color="white"/>
</linearGradient>
<linearGradient id="paint35_linear_1263_16051" x1="7.05978" y1="25.9486" x2="14.8725" y2="8.28738" gradientUnits="userSpaceOnUse">
<stop stop-color="#C3BDC5"/>
<stop offset="0.7" stop-color="#908D99"/>
<stop offset="1" stop-color="#6F6A6F"/>
</linearGradient>
<linearGradient id="paint36_linear_1263_16051" x1="7.20515" y1="25.7691" x2="13.9407" y2="8.30729" gradientUnits="userSpaceOnUse">
<stop stop-color="white"/>
<stop offset="1" stop-color="white"/>
</linearGradient>
<linearGradient id="paint37_linear_1263_16051" x1="7.19399" y1="25.7397" x2="13.9098" y2="8.32908" gradientUnits="userSpaceOnUse">
<stop stop-color="#F8F7F7"/>
<stop offset="1" stop-color="white"/>
</linearGradient>
<linearGradient id="paint38_linear_1263_16051" x1="7.18852" y1="25.7086" x2="13.8833" y2="8.35237" gradientUnits="userSpaceOnUse">
<stop stop-color="#F3F2F2"/>
<stop offset="1" stop-color="white"/>
</linearGradient>
<linearGradient id="paint39_linear_1263_16051" x1="7.17885" y1="25.6748" x2="13.8515" y2="8.37611" gradientUnits="userSpaceOnUse">
<stop stop-color="#EFEDEE"/>
<stop offset="1" stop-color="white"/>
</linearGradient>
<linearGradient id="paint40_linear_1263_16051" x1="7.16797" y1="25.6447" x2="13.8208" y2="8.39718" gradientUnits="userSpaceOnUse">
<stop stop-color="#EBE8E9"/>
<stop offset="1" stop-color="white"/>
</linearGradient>
<linearGradient id="paint41_linear_1263_16051" x1="7.16222" y1="25.6134" x2="13.7941" y2="8.42021" gradientUnits="userSpaceOnUse">
<stop stop-color="#E7E4E5"/>
<stop offset="1" stop-color="white"/>
</linearGradient>
<linearGradient id="paint42_linear_1263_16051" x1="7.15328" y1="25.5799" x2="13.7642" y2="8.44102" gradientUnits="userSpaceOnUse">
<stop stop-color="#E2E0E1"/>
<stop offset="1" stop-color="white"/>
</linearGradient>
<linearGradient id="paint43_linear_1263_16051" x1="7.1446" y1="25.5466" x2="13.7346" y2="8.46209" gradientUnits="userSpaceOnUse">
<stop stop-color="#DEDBDD"/>
<stop offset="1" stop-color="white"/>
</linearGradient>
<linearGradient id="paint44_linear_1263_16051" x1="7.13567" y1="25.5184" x2="13.7059" y2="8.48512" gradientUnits="userSpaceOnUse">
<stop stop-color="#DAD7D9"/>
<stop offset="1" stop-color="white"/>
</linearGradient>
<linearGradient id="paint45_linear_1263_16051" x1="7.1277" y1="25.4859" x2="13.677" y2="8.50691" gradientUnits="userSpaceOnUse">
<stop stop-color="#D6D3D5"/>
<stop offset="1" stop-color="white"/>
</linearGradient>
<linearGradient id="paint46_linear_1263_16051" x1="7.11708" y1="25.4526" x2="13.6454" y2="8.52798" gradientUnits="userSpaceOnUse">
<stop stop-color="#D2CFD2"/>
<stop offset="1" stop-color="white"/>
</linearGradient>
<linearGradient id="paint47_linear_1263_16051" x1="7.10716" y1="25.4229" x2="13.6145" y2="8.55271" gradientUnits="userSpaceOnUse">
<stop stop-color="#CFCBCE"/>
<stop offset="1" stop-color="white"/>
</linearGradient>
<linearGradient id="paint48_linear_1263_16051" x1="7.1007" y1="25.3909" x2="13.5871" y2="8.57501" gradientUnits="userSpaceOnUse">
<stop stop-color="#CBC7CA"/>
<stop offset="1" stop-color="white"/>
</linearGradient>
<linearGradient id="paint49_linear_1263_16051" x1="7.09176" y1="25.3583" x2="13.5572" y2="8.5968" gradientUnits="userSpaceOnUse">
<stop stop-color="#C7C3C7"/>
<stop offset="1" stop-color="white"/>
</linearGradient>
<linearGradient id="paint50_linear_1263_16051" x1="7.08281" y1="25.3248" x2="13.5272" y2="8.61762" gradientUnits="userSpaceOnUse">
<stop stop-color="#C4BFC3"/>
<stop offset="1" stop-color="white"/>
</linearGradient>
<linearGradient id="paint51_linear_1263_16051" x1="7.07486" y1="25.2976" x2="13.4996" y2="8.64162" gradientUnits="userSpaceOnUse">
<stop stop-color="#C0BCC0"/>
<stop offset="1" stop-color="white"/>
</linearGradient>
<linearGradient id="paint52_linear_1263_16051" x1="7.06494" y1="25.2631" x2="13.4687" y2="8.66146" gradientUnits="userSpaceOnUse">
<stop stop-color="#BDB8BD"/>
<stop offset="1" stop-color="white"/>
</linearGradient>
<linearGradient id="paint53_linear_1263_16051" x1="7.05626" y1="25.2308" x2="13.439" y2="8.68351" gradientUnits="userSpaceOnUse">
<stop stop-color="#B9B4B9"/>
<stop offset="1" stop-color="white"/>
</linearGradient>
<linearGradient id="paint54_linear_1263_16051" x1="7.04954" y1="25.2024" x2="13.4113" y2="8.70946" gradientUnits="userSpaceOnUse">
<stop stop-color="#B5B1B6"/>
<stop offset="1" stop-color="white"/>
</linearGradient>
<linearGradient id="paint55_linear_1263_16051" x1="7.03962" y1="25.1689" x2="13.3804" y2="8.73028" gradientUnits="userSpaceOnUse">
<stop stop-color="#B2ADB3"/>
<stop offset="1" stop-color="white"/>
</linearGradient>
<linearGradient id="paint56_linear_1263_16051" x1="7.03095" y1="25.1356" x2="13.3508" y2="8.75135" gradientUnits="userSpaceOnUse">
<stop stop-color="#AFA9AF"/>
<stop offset="1" stop-color="white"/>
</linearGradient>
<linearGradient id="paint57_linear_1263_16051" x1="7.02299" y1="25.1074" x2="13.3231" y2="8.77438" gradientUnits="userSpaceOnUse">
<stop stop-color="#ABA6AC"/>
<stop offset="1" stop-color="white"/>
</linearGradient>
<linearGradient id="paint58_linear_1263_16051" x1="7.01379" y1="25.0751" x2="13.2929" y2="8.79644" gradientUnits="userSpaceOnUse">
<stop stop-color="#A8A3A9"/>
<stop offset="1" stop-color="white"/>
</linearGradient>
<linearGradient id="paint59_linear_1263_16051" x1="7.0044" y1="25.0416" x2="13.2626" y2="8.81724" gradientUnits="userSpaceOnUse">
<stop stop-color="#A49FA6"/>
<stop offset="1" stop-color="white"/>
</linearGradient>
<linearGradient id="paint60_linear_1263_16051" x1="6.99865" y1="25.0093" x2="13.2359" y2="8.83929" gradientUnits="userSpaceOnUse">
<stop stop-color="#A19CA3"/>
<stop offset="1" stop-color="white"/>
</linearGradient>
<linearGradient id="paint61_linear_1263_16051" x1="6.98704" y1="24.9799" x2="13.2033" y2="8.86427" gradientUnits="userSpaceOnUse">
<stop stop-color="#9E99A0"/>
<stop offset="1" stop-color="white"/>
</linearGradient>
<linearGradient id="paint62_linear_1263_16051" x1="6.9781" y1="24.9464" x2="13.1734" y2="8.88508" gradientUnits="userSpaceOnUse">
<stop stop-color="#9B959D"/>
<stop offset="1" stop-color="white"/>
</linearGradient>
<linearGradient id="paint63_linear_1263_16051" x1="6.97908" y1="24.9473" x2="13.1744" y2="8.88606" gradientUnits="userSpaceOnUse">
<stop stop-color="#C3BDC5"/>
<stop offset="0.5" stop-color="#6F6A6F"/>
<stop offset="1" stop-color="#423B3E"/>
</linearGradient>
<linearGradient id="paint64_linear_1263_16051" x1="11.7391" y1="17.5681" x2="10.207" y2="14.112" gradientUnits="userSpaceOnUse">
<stop stop-color="#373037"/>
<stop offset="1" stop-color="#746F75"/>
</linearGradient>
<linearGradient id="paint65_linear_1263_16051" x1="11.5707" y1="17.1867" x2="10.3797" y2="14.4939" gradientUnits="userSpaceOnUse">
<stop stop-color="#362111"/>
<stop offset="1" stop-color="#90614F"/>
</linearGradient>
<radialGradient id="paint66_radial_1263_16051" cx="0" cy="0" r="1" gradientUnits="userSpaceOnUse" gradientTransform="translate(10.7022 15.2215) rotate(-158.907) scale(1.46683)">
<stop stop-color="#6D3729"/>
<stop offset="1" stop-color="#010101"/>
</radialGradient>
<linearGradient id="paint67_linear_1263_16051" x1="13.26" y1="20.9856" x2="6.49814" y2="17.9477" gradientUnits="userSpaceOnUse">
<stop stop-color="#0D0D0D"/>
<stop offset="1" stop-color="#424042"/>
</linearGradient>
<linearGradient id="paint68_linear_1263_16051" x1="11.8214" y1="22.4539" x2="6.09985" y2="20.5879" gradientUnits="userSpaceOnUse">
<stop stop-color="#0D0D0D"/>
<stop offset="1" stop-color="#938E94"/>
</linearGradient>
<linearGradient id="paint69_linear_1263_16051" x1="14.3485" y1="15.0861" x2="6.42283" y2="13.4559" gradientUnits="userSpaceOnUse">
<stop stop-color="#0D0D0D"/>
<stop offset="1" stop-color="#434144"/>
</linearGradient>
<linearGradient id="paint70_linear_1263_16051" x1="52.7868" y1="35.8121" x2="16.7496" y2="23.4506" gradientUnits="userSpaceOnUse">
<stop stop-color="#0D0D0D"/>
<stop offset="0.57" stop-color="#938E94"/>
<stop offset="1" stop-color="#E9E1EB"/>
</linearGradient>
<linearGradient id="paint71_linear_1263_16051" x1="58.1691" y1="30.8448" x2="18.6091" y2="15.5853" gradientUnits="userSpaceOnUse">
<stop stop-color="#0D0D0D"/>
<stop offset="1" stop-color="#424042"/>
</linearGradient>
<radialGradient id="paint72_radial_1263_16051" cx="0" cy="0" r="1" gradientUnits="userSpaceOnUse" gradientTransform="translate(63.3909 39.5201) rotate(-158.907) scale(21.1148)">
<stop stop-color="#4A484A"/>
<stop offset="1" stop-color="white"/>
</radialGradient>
<radialGradient id="paint73_radial_1263_16051" cx="0" cy="0" r="1" gradientUnits="userSpaceOnUse" gradientTransform="translate(20.6574 6.60465) rotate(-165.607) scale(35.4694 12.7188)">
<stop stop-color="#6D3729"/>
<stop offset="1" stop-color="#010101"/>
</radialGradient>
<radialGradient id="paint74_radial_1263_16051" cx="0" cy="0" r="1" gradientUnits="userSpaceOnUse" gradientTransform="translate(15.379 7.77835) rotate(177.623) scale(27.6657 9.92054)">
<stop stop-color="#6D3729"/>
<stop offset="1" stop-color="#010101"/>
</radialGradient>
<radialGradient id="paint75_radial_1263_16051" cx="0" cy="0" r="1" gradientUnits="userSpaceOnUse" gradientTransform="translate(67.4612 24.714) rotate(-151.707) scale(35.4694 12.7188)">
<stop stop-color="#6D3729"/>
<stop offset="1" stop-color="#010101"/>
</radialGradient>
<linearGradient id="paint76_linear_1263_16051" x1="31.215" y1="33.9841" x2="14.9044" y2="27.6926" gradientUnits="userSpaceOnUse">
<stop stop-color="#746F75"/>
<stop offset="1" stop-color="#373037"/>
</linearGradient>
</defs>
</svg>
