<svg viewBox="0 0 53 46" fill="none" xmlns="http://www.w3.org/2000/svg">
<path d="M43.4033 17.4662C40.8974 15.8012 38.3915 14.1362 35.88 12.4683C34.7072 11.6852 33.523 10.9103 32.2891 10.2293C27.3092 7.48178 23.5419 8.28166 21.0182 9.44953C20.1468 9.85115 18.1877 11.8268 17.5256 12.5159C16.9006 13.1751 15.4377 15.8869 15.0527 16.7084C14.506 17.8757 13.7845 18.9718 13.4072 20.2074C12.0138 24.7165 12.5703 32.4773 31.3331 40.9393C32.6362 41.5296 35.9133 42.5137 37.2828 41.4918C39.461 39.8655 39.0168 38.8032 40.3805 38.0469C40.8794 37.7735 41.4367 37.6441 41.9784 37.464C43.262 37.033 44.4526 36.2558 45.244 35.1614C46.0355 34.067 46.3866 32.6266 46.0544 31.3125C45.8994 30.7215 45.6124 30.1525 45.6315 29.5404C45.6656 28.3777 46.7454 27.5419 47.1975 26.473C47.6142 25.4844 47.4628 24.3509 47.3014 23.2898C47.1476 22.268 46.9859 21.2209 46.4879 20.3141C45.804 19.0756 44.5846 18.2467 43.4062 17.4607L43.4033 17.4662Z" fill="#CC2027"/>
<mask id="mask0_1232_20123" style="mask-type:luminance" maskUnits="userSpaceOnUse" x="12" y="8" width="36" height="34">
<path d="M43.4033 17.4662C40.8974 15.8012 38.3915 14.1362 35.88 12.4683C34.7072 11.6852 33.523 10.9103 32.2891 10.2293C27.3092 7.48178 23.5419 8.28166 21.0182 9.44953C20.1468 9.85115 18.1877 11.8268 17.5256 12.5159C16.9006 13.1751 15.4377 15.8869 15.0527 16.7084C14.506 17.8757 13.7845 18.9718 13.4072 20.2074C12.0138 24.7165 12.5703 32.4773 31.3331 40.9393C32.6362 41.5296 35.9133 42.5137 37.2828 41.4918C39.461 39.8655 39.0168 38.8032 40.3805 38.0469C40.8794 37.7735 41.4367 37.6441 41.9784 37.464C43.262 37.033 44.4526 36.2558 45.244 35.1614C46.0355 34.067 46.3866 32.6266 46.0544 31.3125C45.8994 30.7215 45.6124 30.1525 45.6315 29.5404C45.6656 28.3777 46.7454 27.5419 47.1975 26.473C47.6142 25.4844 47.4628 24.3509 47.3014 23.2898C47.1476 22.268 46.9859 21.2209 46.4879 20.3141C45.804 19.0756 44.5846 18.2467 43.4062 17.4607L43.4033 17.4662Z" fill="white"/>
</mask>
<g mask="url(#mask0_1232_20123)">
<g style="mix-blend-mode:multiply" opacity="0.2">
<path d="M51.054 20.7499C51.6458 15.3854 28.8363 4.52815 24.7623 5.01028C21.9659 5.34098 15.0752 6.56726 13.6285 8.92705C12.2545 11.1627 8.67133 19.3425 7.40763 21.5304C6.82824 22.5319 15.0566 32.3714 14.2217 33.1458C12.9923 34.2913 26.3916 51.9145 29.1535 53.1492C31.6157 54.2538 34.2102 51.5325 33.7029 49.1431C33.0409 46.0283 31.2625 43.3765 31.2428 40.2127C31.2354 38.6463 31.5283 37.5568 32.284 36.4364C33.4596 34.6827 35.4227 33.289 36.8189 31.6943C38.1231 30.2066 38.9637 28.2827 39.3787 26.3599C39.7499 24.6402 39.4773 22.5304 40.432 21.0204C41.1749 19.8438 42.9165 19.7257 44.135 19.833C45.9909 19.9946 47.3163 20.9715 48.8879 21.8311C49.8287 22.3429 50.9284 21.8712 51.0566 20.7583L51.054 20.7499Z" fill="#AC1F23"/>
</g>
<g style="mix-blend-mode:multiply" opacity="0.2">
<path d="M41.0997 12.755C40.6895 7.36951 16.2674 0.926631 12.3564 2.14543C9.67184 2.98783 3.12856 5.47261 2.14456 8.05597C1.21377 10.5119 -0.793017 19.2075 -1.62983 21.5929C-2.01516 22.683 7.89433 30.831 7.22437 31.7493C6.2311 33.1046 22.6602 47.9468 25.6017 48.6545C28.2285 49.2875 30.2724 46.1336 29.3282 43.8736C28.105 40.9357 25.8591 38.6587 25.253 35.5453C24.9537 34.0083 25.0403 32.8804 25.5774 31.6373C26.4043 29.6991 28.0754 27.96 29.1517 26.1396C30.1582 24.4378 30.6264 22.3876 30.681 20.4227C30.7255 18.6644 30.0673 16.6406 30.7257 14.9809C31.2387 13.6897 32.9259 13.2459 34.1439 13.1266C35.996 12.9469 37.4812 13.6619 39.1829 14.2086C40.2007 14.5348 41.1983 13.8677 41.1137 12.7553L41.0997 12.755Z" fill="#AC1F23"/>
</g>
<g style="mix-blend-mode:multiply" opacity="0.2">
<path d="M36.9863 8.79717C36.5255 2.78399 9.25263 -4.41748 4.88197 -3.05298C1.88448 -2.11453 -5.42129 0.659782 -6.52405 3.54798C-7.56481 6.29221 -9.80699 16.0086 -10.7395 18.6687C-11.164 19.8865 -0.0994117 28.985 -0.855819 30.0131C-1.96736 31.525 16.3865 48.0995 19.665 48.8935C22.5954 49.5952 24.8797 46.0806 23.8239 43.5495C22.4571 40.267 19.9482 37.7237 19.2718 34.2478C18.9345 32.528 19.0378 31.2747 19.6314 29.8847C20.5586 27.7167 22.4218 25.7752 23.6261 23.7397C24.7518 21.8394 25.2701 19.547 25.3297 17.3584C25.3843 15.3935 24.6475 13.13 25.3801 11.2763C25.9525 9.83268 27.8368 9.33766 29.1951 9.20772C31.2663 9.00243 32.9204 9.79972 34.825 10.4184C35.9622 10.7866 37.0736 10.0383 36.9807 8.79423L36.9863 8.79717Z" fill="#AC1F23"/>
</g>
</g>
<path d="M15.2698 16.633C15.296 16.972 15.0932 17.2749 14.9354 17.5732C14.5117 18.3742 14.3684 19.4085 14.8812 20.1535C15.3725 20.8588 16.3247 21.108 17.1854 21.0613C19.6612 20.9216 21.5909 18.8809 22.8947 16.7778C23.5366 15.7386 24.116 14.4826 23.7046 13.3317C23.3379 12.3105 22.218 11.6685 21.1313 11.6735C20.0447 11.6784 19.0131 12.2356 18.2485 12.9978C18.0194 13.2301 17.7925 13.4848 17.474 13.578C17.1048 13.6866 16.7049 13.5317 16.353 13.3667C15.4328 12.9365 14.545 12.4315 13.7008 11.8577C12.6468 11.1446 11.5572 10.0167 11.8812 8.78812C11.9638 8.47123 12.1382 8.1817 12.1958 7.85862C12.2533 7.53555 12.136 7.14119 11.8303 7.03603C11.5829 6.95463 11.3253 7.07996 11.0986 7.20043C10.5005 7.52744 9.89395 7.85705 9.4184 8.34081C8.94839 8.82749 8.61692 9.50765 8.71405 10.1812C8.77706 10.6246 9.01477 11.0191 9.2388 11.3992C10.2761 13.1216 11.4977 14.991 13.4467 15.4988C14.1873 15.6926 15.197 15.8733 15.2558 16.6326L15.2698 16.633Z" fill="#5D6F31"/>
<g style="mix-blend-mode:screen" opacity="0.33">
<path d="M26.1158 13.2345C27.7006 14.5113 29.5817 15.4286 31.2848 16.5487C33.0321 17.6922 34.6976 18.9905 36.3494 20.2744C38.0068 21.5612 39.6525 22.8701 41.1633 24.3269C42.5014 25.6145 45.8486 27.0953 46.7199 24.417C47.4774 22.0744 45.7035 20.4855 44.0932 19.0963C42.3014 17.5546 40.3327 16.2939 38.3035 15.1073C34.9778 13.1571 30.5021 10.5279 26.5021 11.339C25.543 11.5316 25.4363 12.6842 26.1269 13.2404L26.1158 13.2345Z" fill="#EF4025"/>
</g>
<g style="mix-blend-mode:screen" opacity="0.44">
<path d="M24.0319 18.6448C24.5077 20.3035 25.772 21.3824 27.0184 22.5084C28.4516 23.8039 29.9309 25.039 31.4101 26.274C32.7878 27.4199 34.0364 28.7026 35.2278 30.0399C36.5039 31.4715 37.3689 33.1311 38.5257 34.641C41.1713 38.0909 46.5054 34.316 44.726 30.5678C42.9815 26.8875 39.2398 23.996 35.9515 21.7474C34.1888 20.5392 32.3195 19.4655 30.3759 18.5858C28.6847 17.8184 26.9607 16.8852 25.0513 17.1195C24.3859 17.1988 23.8388 18.0053 24.026 18.6558L24.0319 18.6448Z" fill="#EF4025"/>
</g>
<g style="mix-blend-mode:multiply" opacity="0.18">
<path d="M35.6276 39.1033C34.832 37.8481 33.7408 37.0447 32.6023 36.103C31.2546 34.9942 29.9441 33.8554 28.51 32.8564C27.0648 31.8515 25.6333 30.8609 24.6348 29.4135C22.0731 25.711 19.9816 23.5441 17.9604 24.5253C15.6111 25.6581 15.7077 28.6364 17.5791 30.1213C19.7505 31.8427 21.9726 34.5665 24.5785 36.2703C26.1932 37.3296 27.9697 38.2976 29.7098 39.1333C31.3529 39.9247 32.8601 40.2766 34.637 40.5873C35.3623 40.7164 36.0253 39.7309 35.6246 39.1088L35.6276 39.1033Z" fill="#B92025"/>
</g>
<mask id="mask1_1232_20123" style="mask-type:luminance" maskUnits="userSpaceOnUse" x="12" y="8" width="36" height="34">
<path d="M43.4033 17.4662C40.8974 15.8012 38.3915 14.1362 35.88 12.4683C34.7072 11.6852 33.523 10.9103 32.2891 10.2293C27.3092 7.48178 23.5419 8.28166 21.0182 9.44953C20.1468 9.85115 18.1877 11.8268 17.5256 12.5159C16.9006 13.1751 15.4377 15.8869 15.0527 16.7084C14.506 17.8757 13.7845 18.9718 13.4072 20.2074C12.0138 24.7165 12.5703 32.4773 31.3331 40.9393C32.6362 41.5296 35.9133 42.5137 37.2828 41.4918C39.461 39.8655 39.0168 38.8032 40.3805 38.0469C40.8794 37.7735 41.4367 37.6441 41.9784 37.464C43.262 37.033 44.4526 36.2558 45.244 35.1614C46.0355 34.067 46.3866 32.6266 46.0544 31.3125C45.8994 30.7215 45.6124 30.1525 45.6315 29.5404C45.6656 28.3777 46.7454 27.5419 47.1975 26.473C47.6142 25.4844 47.4628 24.3509 47.3014 23.2898C47.1476 22.268 46.9859 21.2209 46.4879 20.3141C45.804 19.0756 44.5846 18.2467 43.4062 17.4607L43.4033 17.4662Z" fill="white"/>
</mask>
<g mask="url(#mask1_1232_20123)">
<g style="mix-blend-mode:multiply" opacity="0.42">
<path d="M26.3988 14.3319C27.0028 15.1322 27.8234 15.5097 28.6311 16.0855C29.7809 16.8987 30.9193 17.7201 32.0863 18.5142C34.3929 20.0738 36.6527 21.7218 38.8177 23.4822C40.9139 25.185 42.8079 27.0424 44.7604 28.9096C46.4719 30.5362 47.1226 32.8955 48.5405 34.7556C49.2644 35.7041 50.6745 34.8734 50.7245 33.8817C50.8539 31.32 50.1653 29.1528 48.4782 27.1856C46.6001 24.9901 43.8568 23.8005 41.5605 22.1545C39.1981 20.4593 36.9186 18.6878 34.3999 17.2211C31.8979 15.7631 29.4516 14.6953 26.7334 13.7664C26.372 13.646 26.2137 14.0925 26.3959 14.3374L26.3988 14.3319Z" fill="#B92025"/>
</g>
<g style="mix-blend-mode:multiply" opacity="0.42">
<path d="M21.8605 22.805C25.1162 27.419 28.7692 31.5362 32.8499 35.4342C36.5879 39.0025 40.5488 42.4977 46.0904 41.4911C47.6031 41.2165 47.7705 39.0921 46.5375 38.3691C44.8704 37.3953 43.0472 37.0247 41.2438 36.3889C39.0348 35.6092 37.041 33.5788 35.2442 32.1404C31.0838 28.8083 26.5417 25.8894 22.6832 22.2008C22.2772 21.8164 21.5101 22.3156 21.8576 22.8105L21.8605 22.805Z" fill="#B92025"/>
</g>
</g>
<g opacity="0.29">
<path d="M17.3603 28.4993C17.2315 26.8544 16.991 25.1929 17.6055 23.616C18.2914 21.8507 15.3422 20.9835 14.7303 22.8233C14.0853 24.7658 14.63 27.2317 15.744 28.9028C16.175 29.5479 17.4321 29.4351 17.3603 28.4993Z" fill="#E02826"/>
</g>
<g opacity="0.23">
<path d="M38.9337 18.7504C39.869 19.5138 40.7717 20.352 41.6209 21.2113C42.007 21.6064 42.4114 22.0608 42.7292 22.5046C43.0796 22.994 43.2743 23.5636 43.8594 23.8237C44.2641 24.0095 44.7204 24.0176 45.064 23.6761C46.2293 22.5179 45.1109 20.6677 44.128 19.7801C42.8431 18.6196 41.3091 17.9566 39.6463 17.5507C39.0057 17.3956 38.3451 18.2693 38.9393 18.7534L38.9337 18.7504Z" fill="white"/>
</g>
<g opacity="0.23">
<path d="M33.7151 23.8728C34.6176 24.725 35.5461 25.5414 36.4599 26.3854C37.4178 27.2668 38.3622 28.3745 39.5221 28.981C40.1588 29.3178 41.151 28.768 40.8689 27.9753C39.9752 25.4592 36.9921 23.7186 34.7238 22.5822C33.9234 22.18 33.0075 23.2015 33.7151 23.8728Z" fill="white"/>
</g>
<g opacity="0.23">
<path d="M41.5994 30.5606C41.5994 30.5606 41.5675 30.6074 41.5474 30.6321C41.6107 30.5525 41.6712 30.4784 41.729 30.3958C41.614 30.533 41.4963 30.6616 41.395 30.813C41.1084 31.2342 41.1303 31.8892 41.3844 32.3064C41.6328 32.7206 42.0497 32.9906 42.5369 32.9938C43.0156 32.9996 43.4638 32.7418 43.708 32.3336C44.1764 31.542 43.8062 30.5543 42.9853 30.1908C42.7329 30.0785 42.5047 30.0143 42.2288 30.0805C41.9445 30.1492 41.767 30.324 41.5968 30.5521L41.5994 30.5606Z" fill="white"/>
</g>
<path d="M44.4876 21.8584C44.4397 22.123 44.3668 22.3813 44.3079 22.6401C44.2205 23.0463 44.1649 23.4058 44.534 23.6859C44.7047 23.8186 44.9389 23.7375 45.0872 23.6179C45.3609 23.3951 45.2964 23.0216 45.2836 22.7108C45.2732 22.4225 45.24 22.1504 45.1622 21.8688C45.074 21.5535 44.5516 21.4963 44.4876 21.8584Z" fill="white"/>
<mask id="mask2_1232_20123" style="mask-type:luminance" maskUnits="userSpaceOnUse" x="8" y="7" width="16" height="15">
<path d="M15.2698 16.633C15.296 16.972 15.0932 17.2749 14.9354 17.5732C14.5117 18.3742 14.3684 19.4085 14.8812 20.1535C15.3725 20.8588 16.3247 21.108 17.1854 21.0613C19.6612 20.9216 21.5909 18.8809 22.8947 16.7778C23.5366 15.7386 24.116 14.4826 23.7046 13.3317C23.3379 12.3105 22.218 11.6685 21.1313 11.6735C20.0447 11.6784 19.0131 12.2356 18.2485 12.9978C18.0194 13.2301 17.7925 13.4848 17.474 13.578C17.1048 13.6866 16.7049 13.5317 16.353 13.3667C15.4328 12.9365 14.545 12.4315 13.7008 11.8577C12.6468 11.1446 11.5572 10.0167 11.8812 8.78812C11.9638 8.47123 12.1382 8.1817 12.1958 7.85862C12.2533 7.53555 12.136 7.14119 11.8303 7.03603C11.5829 6.95463 11.3253 7.07996 11.0986 7.20043C10.5005 7.52744 9.89395 7.85705 9.4184 8.34081C8.94839 8.82749 8.61692 9.50765 8.71405 10.1812C8.77706 10.6246 9.01477 11.0191 9.2388 11.3992C10.2761 13.1216 11.4977 14.991 13.4467 15.4988C14.1873 15.6926 15.197 15.8733 15.2558 16.6326L15.2698 16.633Z" fill="white"/>
</mask>
<g mask="url(#mask2_1232_20123)">
<g opacity="0.36">
<path d="M17.0292 14.9689C14.9894 14.3918 13.5269 13.6606 12.0551 12.0901C11.5653 11.5694 11.086 11.0825 10.7559 10.4342C10.2353 9.40932 11.7686 8.45285 12.3635 7.89082C13.2129 7.08871 12.1624 5.71283 11.1506 6.25936C8.2395 7.85154 7.8077 10.6634 9.95614 13.0443C11.3857 14.6278 15.0684 17.9122 17.2094 15.6864C17.433 15.4512 17.3437 15.0575 17.0237 14.966L17.0292 14.9689Z" fill="#323C19"/>
</g>
<g opacity="0.2">
<path d="M16.8365 17.7019C16.072 18.7186 15.4712 20.0552 15.4372 21.3382C15.4272 21.6652 15.8773 21.6983 15.9788 21.4126C16.4138 20.2286 16.5885 19.0413 17.2983 17.9674C17.4896 17.6726 17.0386 17.427 16.8394 17.6963L16.8365 17.7019Z" fill="#323C19"/>
</g>
<g opacity="0.2">
<path d="M17.8436 18.0366C17.2764 19.1224 17.1046 20.5587 17.4256 21.7466C17.5138 22.062 17.9687 22.0057 17.9843 21.6816C18.0525 20.4945 17.9044 19.3415 18.1406 18.1584C18.1752 17.9858 17.9316 17.8569 17.8381 18.0337L17.8436 18.0366Z" fill="#323C19"/>
</g>
<g opacity="0.2">
<path d="M19.2573 18.5509C19.3648 19.7673 19.9652 20.8556 20.669 21.8289C20.8157 22.0338 21.2211 21.9371 21.1238 21.6523C20.7505 20.5499 19.9387 19.6467 19.6559 18.5072C19.6019 18.2878 19.2372 18.3211 19.2573 18.5509Z" fill="#323C19"/>
</g>
<g opacity="0.2">
<path d="M20.0464 17.7948C20.8712 18.9947 22.2685 19.3804 23.6365 19.5667C23.9464 19.6104 24.075 19.1128 23.7979 18.9804C22.6673 18.4389 21.4408 18.186 20.4128 17.4371C20.2089 17.2869 19.9056 17.5789 20.0494 17.7893L20.0464 17.7948Z" fill="#323C19"/>
</g>
<g opacity="0.2">
<path d="M20.0456 16.3514C21.6237 16.4085 23.357 16.4133 24.7772 15.6304C25.0182 15.4963 24.8706 15.0788 24.5971 15.1674C23.099 15.6688 21.6339 15.9472 20.05 16.0215C19.8398 16.0305 19.833 16.338 20.0456 16.3514Z" fill="#323C19"/>
</g>
<g opacity="0.2">
<path d="M20.1584 15.4005C21.9184 14.5781 23.9213 13.6579 24.351 11.5732C24.4138 11.2671 23.9846 11.0471 23.8239 11.3509C22.9001 13.1106 21.6225 14.0256 19.932 14.9979C19.6683 15.1483 19.8894 15.5339 20.1555 15.406L20.1584 15.4005Z" fill="#323C19"/>
</g>
<g opacity="0.2">
<path d="M20.2985 14.5339C21.3976 13.2063 22.3882 11.8425 22.876 10.1704C22.9369 9.94805 22.6097 9.80323 22.4986 10.0132C21.7184 11.4882 20.9585 12.9245 19.9737 14.2772C19.8379 14.467 20.1516 14.7178 20.304 14.5368L20.2985 14.5339Z" fill="#323C19"/>
</g>
<g opacity="0.2">
<path d="M19.2818 14.6335C20.4378 13.5199 20.1547 11.8853 20.3658 10.4415C20.4187 10.0736 19.932 9.92218 19.8036 10.2855C19.3381 11.5806 19.5563 13.1101 18.902 14.3336C18.7734 14.5767 19.0787 14.8301 19.2818 14.6335Z" fill="#323C19"/>
</g>
</g>
<path d="M11.4887 9.83925C12.0436 12.3529 15.1273 13.8498 17.2995 14.6454C17.9217 14.8756 18.216 13.8505 17.5737 13.6451C16.431 13.2739 15.6212 12.9162 14.6509 12.2191C13.5868 11.4582 12.3144 10.9972 11.7203 9.74965C11.656 9.61667 11.4609 9.70433 11.4887 9.83925Z" fill="#7B913E"/>
<g opacity="0.55">
<path d="M10.9794 8.40296C10.3531 9.37259 9.66344 10.1673 10.4347 11.2541C11.2982 12.4745 12.7205 13.8844 14.0026 14.6616C14.0857 14.7056 14.1526 14.5925 14.0698 14.5346C13.0722 13.8088 12.2386 12.88 11.353 12.0227C11.068 11.7446 10.7741 11.4831 10.4975 11.2024C9.61253 10.3171 10.6741 9.16765 11.1093 8.47876C11.1616 8.3933 11.0317 8.31749 10.9738 8.40002L10.9794 8.40296Z" fill="#7B913E"/>
</g>
<g opacity="0.55">
<path d="M14.3833 14.7993C14.6283 14.9925 14.8268 15.2601 15.1237 15.3819C15.1736 15.4082 15.2203 15.3198 15.1734 15.2879C14.9369 15.0921 14.6575 14.9373 14.3921 14.7827C14.381 14.7769 14.3752 14.7879 14.3833 14.7993Z" fill="#7B913E"/>
</g>
<g opacity="0.55">
<path d="M10.7149 12.5332C11.2809 13.4054 12.1912 14.0283 13.0205 14.6438C13.1032 14.7017 13.19 14.5779 13.1271 14.5093C12.4324 13.76 11.4877 13.2956 10.9133 12.4261C10.8347 12.3067 10.6363 12.4139 10.7149 12.5332Z" fill="#7B913E"/>
</g>
<g opacity="0.55">
<path d="M20.7038 15.6818C21.5349 15.5841 22.5761 15.7319 23.3091 15.2571C23.4596 15.16 23.3719 14.9509 23.1978 14.972C22.7933 15.0267 22.3935 15.1263 21.989 15.181C21.5312 15.2428 21.0821 15.2881 20.6345 15.3977C20.4458 15.4464 20.5242 15.6999 20.7038 15.6818Z" fill="#7B913E"/>
</g>
<g opacity="0.55">
<path d="M21.4531 13.8233C21.9179 13.5742 22.3867 13.398 22.7155 12.9639C22.8019 12.854 22.6251 12.7463 22.5337 12.8253C22.1517 13.1323 21.7508 13.408 21.3661 13.7065C21.3034 13.7582 21.3822 13.8636 21.4531 13.8233Z" fill="#7B913E"/>
</g>
<g opacity="0.55">
<path d="M20.1862 13.6339C20.3914 13.2192 20.675 12.8036 20.7161 12.3375C20.727 12.2231 20.5434 12.1684 20.4934 12.2763C20.2996 12.6828 20.1635 13.1411 20.0501 13.5831C20.0287 13.6637 20.1424 13.7167 20.1833 13.6394L20.1862 13.6339Z" fill="#7B913E"/>
</g>
<g opacity="0.55">
<path d="M18.9619 13.9265C19.0263 13.6707 19.1692 13.414 19.1416 13.1448C19.1347 13.0776 19.035 13.0248 18.9996 13.1051C18.885 13.3485 18.8395 13.6355 18.8112 13.9034C18.8009 13.9898 18.9405 14.0071 18.9619 13.9265Z" fill="#7B913E"/>
</g>
<g opacity="0.55">
<path d="M20.0853 16.8111C20.3834 17.0112 20.6931 17.1891 21.0057 17.3616C21.0777 17.3997 21.1582 17.3009 21.095 17.2462C20.8204 17.002 20.4935 16.8432 20.1815 16.6428C20.0766 16.5731 19.972 16.7441 20.0824 16.8166L20.0853 16.8111Z" fill="#7B913E"/>
</g>
<g opacity="0.55">
<path d="M18.5408 18.0307C18.2547 18.8126 18.1844 19.7088 18.3091 20.5312C18.3383 20.7305 18.6419 20.679 18.6488 20.4918C18.6833 19.6899 18.6391 18.9029 18.9109 18.1346C18.9946 17.896 18.6215 17.7977 18.5408 18.0307Z" fill="#7B913E"/>
</g>
<g opacity="0.55">
<path d="M16.7267 19.2768C16.6112 19.5621 16.4905 19.8306 16.4612 20.1403C16.448 20.2323 16.601 20.2779 16.6393 20.1921C16.7574 19.9152 16.8645 19.6325 16.98 19.3471C17.0423 19.1892 16.7917 19.1273 16.7323 19.2797L16.7267 19.2768Z" fill="#7B913E"/>
</g>
<g opacity="0.55">
<path d="M16.3135 17.2051C15.8023 17.7831 15.2158 18.3425 15.0947 19.134C15.0618 19.3569 15.3401 19.4335 15.4287 19.2258C15.7013 18.5498 16.1009 17.9552 16.5256 17.3667C16.6123 17.2429 16.4169 17.0901 16.3135 17.2051Z" fill="#7B913E"/>
</g>
<g opacity="0.22">
<path d="M25.3627 34.4519C21.9572 32.4383 18.0722 28.9337 18.4641 24.6301C18.7228 21.7974 13.8246 21.8152 14.125 24.569C14.73 30.1353 19.5589 34.7755 25.095 35.4133C25.6285 35.4763 25.7773 34.6995 25.3627 34.4519Z" fill="#EF4025"/>
</g>
</svg>
