<svg viewBox="0 0 28 32" fill="none" xmlns="http://www.w3.org/2000/svg">
<path d="M5.54003 7.68365C3.54254 7.46306 3.43531 8.91523 2.61425 10.346C2.1639 11.1272 0.926187 11.6449 0.656586 12.6774C0.359413 13.8171 1.27544 13.719 1.41331 14.6596C1.53279 15.4867 0.583061 16.4273 0.457451 17.2453C0.307333 18.2164 0.714798 18.4033 1.0181 19.2183C1.51747 20.5601 1.96476 22.1594 2.20373 23.5778C2.32015 24.2733 2.27726 24.886 2.40287 25.56C2.66634 26.9754 2.88386 26.4485 3.79376 27.1745C4.43712 27.6862 4.51065 28.5961 5.21529 29.0893C5.46957 29.2639 6.03941 29.2946 6.37641 29.4784C6.75937 29.6867 6.90336 30.0789 7.36597 30.2688C8.09205 30.566 8.58836 30.2443 9.34202 30.4588C9.75561 30.5752 9.85365 31.0133 10.3285 31.1205C10.7329 31.2124 11.1894 30.9214 11.5172 30.9581C12.4486 31.0592 12.9694 31.7761 14.0416 31.7087C15.2916 31.6321 15.3896 30.808 16.2659 30.3362C17.9355 32.3613 19.3448 30.2688 20.5917 29.316C21.5169 28.6083 23.5818 28.158 23.444 26.5863C24.6235 26.2095 26.2227 24.4693 25.5089 23.1887C26.2043 22.9069 25.855 22.4994 26.2043 21.9725C26.2288 21.9388 27.3838 20.6919 27.347 21.1698C27.4543 19.8004 27.7606 18.9027 27.5247 17.4812C27.3256 16.271 27.3716 14.9996 27.1234 13.9212C26.9947 13.3667 26.9396 12.659 26.7864 12.083C26.5352 11.1456 25.8183 11.2865 25.4353 10.5022C25.1504 9.91705 25.2821 9.36252 24.9513 8.76204C24.6081 8.14013 24.1026 8.01452 24.1762 7.1567C23.6094 7.10768 23.0181 7.1475 22.4513 7.09542C22.4912 6.89629 22.3533 6.56235 22.3901 6.36322C21.0666 6.46432 20.941 4.87122 19.5899 4.40249C18.7443 4.10838 17.62 4.37491 16.6274 4.20948C16.0759 4.11757 15.5612 3.76219 14.9332 4.00115C14.5563 4.14514 14.204 4.87429 13.9528 4.95701C13.3768 5.14389 12.8958 4.63838 12.3505 4.62919C11.7163 4.61388 11.5846 4.85284 11.0546 5.00602C10.932 5.04279 8.08899 6.13037 8.48726 6.2713C7.88985 6.06297 7.17908 5.75662 6.56329 6.06911C6.26918 6.21923 5.56455 7.69283 5.5431 7.68977L5.54003 7.68365Z" fill="#592616"/>
<path d="M5.54003 4.70807C3.54254 4.48749 3.43531 5.93965 2.61425 7.37037C2.1639 8.15467 0.926187 8.66935 0.656586 9.7018C0.359413 10.8415 1.27544 10.7434 1.41331 11.684C1.53279 12.5112 0.583061 13.4517 0.457451 14.2697C0.307333 15.2409 0.714798 15.4278 1.0181 16.2427C1.51747 17.5846 1.96476 19.1838 2.20373 20.6022C2.32015 21.2977 2.27726 21.9104 2.40287 22.5844C2.66634 23.9998 2.88386 23.4729 3.79376 24.199C4.43712 24.7106 4.51065 25.6205 5.21529 26.1137C5.46957 26.2884 6.03941 26.319 6.37641 26.5028C6.75937 26.7111 6.90336 27.1033 7.36597 27.2932C8.09205 27.5904 8.58836 27.2687 9.34202 27.4832C9.75561 27.5996 9.85365 28.0377 10.3285 28.1449C10.7329 28.2368 11.1894 27.9458 11.5172 27.9826C12.4486 28.0837 12.9694 28.8006 14.0416 28.7362C15.2916 28.6596 15.3896 27.8355 16.2659 27.3637C17.9355 29.3888 19.3448 27.2963 20.5917 26.3435C21.5169 25.6358 23.5818 25.1855 23.444 23.6138C24.6235 23.237 26.2227 21.4968 25.5089 20.2162C26.2043 19.9344 25.855 19.5269 26.2043 19C26.2288 18.9663 27.3838 17.7194 27.347 18.1973C27.4543 16.8248 27.7606 15.9302 27.5247 14.5087C27.3256 13.2985 27.3716 12.0271 27.1234 10.9456C26.9947 10.3911 26.9396 9.68342 26.7864 9.10745C26.5352 8.16998 25.8183 8.31091 25.4353 7.52661C25.1504 6.94146 25.2821 6.38694 24.9513 5.78647C24.6081 5.16455 24.1026 5.03894 24.1762 4.18112C23.6094 4.1321 23.0181 4.17193 22.4513 4.11984C22.4912 3.92071 22.3533 3.58677 22.3901 3.38764C21.0666 3.48874 20.941 1.89564 19.5899 1.4269C18.7443 1.13279 17.62 1.4024 16.6274 1.2339C16.0759 1.14199 15.5612 0.786599 14.9332 1.02556C14.5563 1.16955 14.204 1.8987 13.9528 1.98142C13.3768 2.1683 12.8958 1.6628 12.3505 1.65055C11.7163 1.63523 11.5846 1.8742 11.0546 2.02738C10.932 2.06414 8.08899 3.15173 8.48726 3.29266C7.88985 3.08127 7.17908 2.77797 6.56329 3.09046C6.26918 3.24058 5.56455 4.71419 5.5431 4.71112L5.54003 4.70807Z" fill="#7B4020"/>
<path d="M15.8797 2.16852C16.6211 1.74574 17.9201 1.43325 17.6934 2.93137C18.591 2.962 20.1474 3.20404 20.0524 4.54591C19.9513 5.946 17.2308 5.44049 18.444 4.17827C18.0151 4.06492 17.5372 3.86578 17.0715 3.93624C16.3913 4.03734 16.3086 4.72667 15.5151 4.51528C15.3466 3.89336 15.9165 3.63907 16.0544 3.19178C15.3895 3.09374 14.7278 3.20403 14.1243 3.32658C14.0323 2.93443 14.2621 2.95894 14.495 2.76287L15.8828 2.16852H15.8797Z" fill="#592616"/>
<path d="M23.3425 9.36326C23.4252 9.35407 23.5172 9.33568 23.6183 9.30811C25.049 8.92209 23.0484 7.12986 22.2427 7.31062C22.4357 7.96011 22.3438 9.47049 23.3456 9.36019L23.3425 9.36326Z" fill="#592616"/>
<path d="M18.6581 7.35194C19.2188 7.23246 19.7948 7.87889 20.2022 7.68282C20.7506 7.41934 20.4228 6.67794 20.6219 6.32868C20.7904 6.03457 22.4142 5.10629 21.2285 4.86733C20.6832 4.75704 19.3567 6.20001 18.7593 6.46655C18.2017 6.71777 16.2624 6.80661 16.5657 7.67056C17.0375 9.02469 18.1189 7.47142 18.6581 7.35194Z" fill="#592616"/>
<path d="M8.82713 7.43871C9.09979 8.80815 5.7788 9.01954 5.02821 9.55262C4.30825 10.0642 4.61768 11.0752 4.55028 11.8503C4.23779 11.9361 3.73229 11.9361 3.4198 11.8503C3.22985 11.161 3.17777 10.8179 3.40142 10.0949C3.54541 9.63227 4.03865 9.01647 3.94981 8.54161C2.9388 8.33328 3.47801 7.56124 3.99576 7.16297C5.16301 6.26839 5.31006 7.68992 6.30575 7.82166C7.19114 7.94114 7.46687 7.1691 6.87559 6.40625C7.34126 6.41544 8.71378 6.86886 8.82713 7.43257V7.43871Z" fill="#592616"/>
<path d="M9.14216 3.95161C9.17586 3.82294 9.16667 3.70038 9.11152 3.5809C7.209 3.40934 9.68442 5.09128 9.75182 5.18012C10.0245 5.55082 9.73038 6.23709 10.1195 6.4975C10.9681 7.07346 10.9313 5.99505 11.1243 5.73464C11.4215 5.33637 10.9987 4.75121 11.927 4.93197C12.313 5.00856 12.4754 5.51406 12.6592 5.78366C12.8859 6.11454 12.8737 6.80386 13.2934 6.93866C13.8234 7.10716 14.2676 6.6231 14.3289 6.16049C15.0489 6.09309 16.0844 6.35657 16.4551 5.57534C15.0795 5.42828 14.0532 5.77141 13.5477 4.58884C13.2536 3.89952 14.3841 3.83826 13.1004 3.55027C12.6562 3.45224 11.9301 3.80455 11.351 3.72184C11.4062 3.46449 11.2346 3.04783 11.2928 2.79049C10.8149 2.61586 10.7261 2.83338 10.53 3.15506L9.14216 3.94854V3.95161Z" fill="#592616"/>
<path d="M23.4126 12.2789C23.6944 12.0583 23.9211 11.85 24.3776 11.85C24.2949 10.9891 21.5101 11.611 22.7692 13.3205C23.0603 13.7157 23.624 14.4265 23.9579 14.7084C24.3746 15.0607 25.7593 15.7224 25.361 14.2978C24.7361 14.1906 24.2152 13.8046 24.4389 13.1091C24.5492 13.0877 24.6564 13.0632 24.7667 13.0417C24.9138 12.671 24.8004 12.475 24.6013 12.282H23.4126V12.2789Z" fill="#592616"/>
<path d="M25.9101 11.216C25.9591 11.2895 26.005 11.3692 26.0418 11.455C27.0099 10.8821 25.7998 10.3276 25.2422 10.5267C25.4689 10.732 25.7354 10.9587 25.9101 11.2191V11.216Z" fill="#592616"/>
<path d="M20.0122 10.2662C18.8358 10.1559 16.6882 11.9298 18.655 12.0799C19.4056 12.1381 19.8805 11.4028 20.4442 11.0965C21.011 10.787 21.7034 10.6032 22.3958 10.6584C22.0159 10.6277 21.3112 8.75583 20.9405 8.54444C19.5864 7.7724 20.049 9.42983 20.0122 10.2662Z" fill="#592616"/>
<path d="M17.6655 8.51166C16.4584 8.28801 16.0142 9.10907 15.0399 9.45832C14.7305 9.56861 12.0222 9.02022 12.7361 10.31C13.2507 11.2444 15.1165 9.8229 15.6802 9.69729C16.8444 9.43688 17.886 9.56249 18.8572 8.71079L17.6685 8.51166H17.6655Z" fill="#592616"/>
<path d="M14.89 7.12274C14.4182 7.33413 14.023 7.72628 13.5757 7.9101C14.3569 8.47381 16.5811 7.59761 15.6804 6.72754L14.8869 7.12274H14.89Z" fill="#592616"/>
<path d="M11.9183 6.13184C11.0114 6.88856 10.7142 7.67591 9.76758 8.36217C10.6499 9.7163 12.4299 7.59013 12.3135 6.52705L11.9183 6.13184Z" fill="#592616"/>
<path d="M6.42154 6.16738C6.68808 6.04483 6.96381 5.83038 7.1415 5.62205C6.62987 5.4658 5.90378 5.54546 5.65869 5.99888C5.86089 6.2164 6.14581 6.29298 6.4246 6.16738H6.42154Z" fill="#592616"/>
<path d="M7.95062 10.0972C4.79507 9.59785 4.67865 14.3128 7.72085 14.0309C7.80663 13.3171 6.96719 13.0107 7.15407 12.2724C7.35015 11.4851 8.09767 11.5433 8.60011 12.0671C9.07191 12.5604 8.62462 13.4672 8.93099 13.8716C9.23735 14.273 10.2392 14.5885 10.5854 13.9176C11.0173 13.0751 8.88503 12.2663 10.7202 11.4759C10.8795 11.4085 12.6839 11.8833 11.8751 10.7314C11.5443 10.2627 10.4689 10.5108 9.9573 10.4587C10.0186 9.99918 10.3249 9.59171 10.5057 9.13523C10.0278 8.97898 9.54984 9.05252 9.33538 9.50287L7.94755 10.0972H7.95062Z" fill="#592616"/>
<path d="M13.9002 12.0803C13.1986 11.3941 11.2317 12.1906 11.5258 13.2629C11.6668 13.7745 13.2813 15.0888 13.8726 15.0214C13.7684 14.4393 13.2905 13.9308 13.3334 13.2966C14.0288 13.1036 16.2959 14.5251 16.25 12.9014C13.1557 13.3763 18.7346 9.49155 14.8897 10.6925L13.9002 12.0803Z" fill="#592616"/>
<path d="M15.12 15.2228C17.0777 15.2779 17.9386 16.773 20.0127 16.6106C20.1812 15.8815 19.6236 15.3729 18.9159 15.4066C19.354 15.2963 19.835 15.2933 20.2118 15.0053C19.8932 14.7296 19.9391 14.4722 19.8779 14.0923C21.327 14.2149 22.1725 12.3031 20.8276 11.8528C20.3435 11.6904 19.1548 12.0489 18.778 12.392C18.0397 13.0629 18.6616 13.5317 18.3706 14.1934C18.0029 15.0267 17.6628 14.7234 16.7039 14.6131C16.4037 14.5794 15.8093 14.3466 15.5214 14.512C15.4723 14.5396 14.7769 15.2197 15.1231 15.2289L15.12 15.2228Z" fill="#592616"/>
<path d="M24.6352 19.5828C25.974 19.9719 25.4992 18.6055 25.5972 18.0173C25.6615 17.6343 25.5788 17.6313 25.7412 17.187C25.9403 16.6417 26.6419 16.9419 26.3601 16.078C26.259 15.7624 24.3227 16.4119 24.1818 16.3905C23.5538 16.2986 23.2351 15.646 22.5029 15.8482C22.699 16.6601 23.6702 16.9603 24.1144 17.6435C24.5157 18.2562 24.5709 18.8628 24.6383 19.5859L24.6352 19.5828Z" fill="#592616"/>
<path d="M2.20324 13.268C2.28902 13.0812 1.79578 13.9635 1.79884 14.0493C1.82948 14.7692 2.20937 14.5272 2.40238 14.999C2.62909 15.5505 2.5525 15.4708 2.58926 16.0345C2.62296 16.537 2.48203 17.1527 2.63828 17.6307C2.92626 18.4977 4.11189 19.2176 4.39068 18.032C4.60514 17.116 3.33066 16.5278 3.62477 15.4861C4.61739 14.7692 5.11676 16.3164 6.33303 16.0161C6.6639 14.0493 3.26326 14.757 3.58801 12.6768L2.20018 13.2711L2.20324 13.268Z" fill="#592616"/>
<path d="M5.60378 17.6584C5.57621 17.8698 5.56089 17.977 5.60684 18.1915C6.74039 18.553 6.61478 19.178 5.76309 19.6069C4.90527 20.0419 4.09647 19.9133 3.22027 19.8428C3.10998 21.3562 3.15899 23.5743 5.14423 23.4089C4.98799 25.1398 7.37456 25.8874 6.80779 23.9266C6.51062 22.8911 5.5517 21.4972 4.99105 20.6393C6.35131 20.2196 6.33599 21.825 7.39908 21.9475C8.85124 22.1129 8.44071 20.2656 7.36844 19.9684C7.98117 19.42 8.27221 19.2638 7.7759 18.4611C8.74708 18.17 9.31385 19.2944 10.3279 19.0248C12.0589 18.5683 10.5424 17.9403 10.1257 17.2877C9.27096 15.9397 10.622 16.7761 11.1796 16.148C12.1569 15.0482 9.8408 14.6315 9.10246 15.0206C7.81573 15.6977 9.12697 16.485 8.45297 17.2356C8.03019 17.7044 6.20119 17.7044 5.60378 17.6615V17.6584Z" fill="#592616"/>
<path d="M13.9222 18.5815C14.6482 17.9871 15.215 19.1911 15.3651 17.7175C15.3682 17.6777 14.927 16.3144 14.8351 16.2378C14.253 15.7721 12.5588 16.1826 12.1514 16.6605C12.7396 17.0067 15.1844 17.5521 13.9222 18.5784V18.5815Z" fill="#592616"/>
<path d="M21.0353 16.2433C21.066 16.853 21.1671 17.4351 20.5881 17.7843C19.6414 18.3572 20.0305 17.5025 19.4086 17.2635C18.6672 16.9786 16.3265 16.8652 16.5042 17.7996C17.0495 17.7475 18.8755 18.0968 19.2584 18.4124C19.9355 18.9761 19.623 21.0532 21.2008 20.5722C21.1671 20.174 21.2651 19.8216 21.0537 19.4417C21.2866 19.3621 21.5623 19.3805 21.7921 19.4479C22.0555 20.2077 22.5059 21.9018 23.5812 21.5648C23.8263 20.4221 23.0022 19.7941 22.7969 18.829C22.6652 18.2102 23.0788 18.1121 22.6683 17.4259C22.4109 16.9908 21.9116 16.8407 21.6297 16.4394L21.0353 16.2402V16.2433Z" fill="#592616"/>
<path d="M13.3029 17.8269C11.2318 17.352 12.9291 19.1014 12.5247 19.6712C11.8476 20.624 9.41205 19.2208 9.36303 20.768C9.86853 20.8936 11.0664 20.9763 10.9439 21.7912C10.8213 22.6123 9.47025 22.2201 9.18227 22.6245C8.45312 23.6478 11.1185 24.1594 10.9561 22.018C11.9824 21.7453 13.0915 22.6429 14.271 22.5541C14.3384 21.5768 12.8403 21.5461 12.3899 20.7894C12.7392 20.7128 14.0627 20.5934 14.3077 20.3697C14.9205 19.806 14.6907 19.181 13.9033 19.0156L13.309 17.8269H13.3029Z" fill="#592616"/>
<path d="M18.8632 23.3869C20.2112 22.8416 16.2806 21.1167 18.4374 20.0843C16.9423 19.3092 16.6635 20.9084 15.7261 21.2944C16.2254 21.8397 18.0238 23.7269 18.8663 23.3869H18.8632Z" fill="#592616"/>
<path d="M20.0706 25.1284C21.0142 25.447 21.149 24.5279 21.6698 24.0806C21.8658 23.9121 22.8768 23.5077 22.8707 23.2228C22.8615 22.6009 21.3849 22.3711 20.9866 22.4722C21.2929 22.9715 21.3818 23.5506 21.0877 24.099C21.057 24.1572 19.899 25.0701 20.0706 25.1284Z" fill="#592616"/>
<path d="M15.6833 22.5851C15.5761 23.5256 16.3512 23.2928 16.8781 23.5716C17.3469 23.8197 17.8248 24.4172 18.4283 24.3988C18.7562 25.4557 17.3591 25.471 17.8371 26.7149C16.4799 27.1683 17.065 25.9398 16.2869 25.5936C15.1257 25.0789 15.2023 26.4698 14.8439 26.9018C14.2587 27.6125 13.9187 27.5942 12.9077 27.5421C12.2919 27.5084 10.708 27.3307 11.9058 26.5403C12.445 26.1849 13.9125 27.0059 14.3537 26.4085C14.948 25.5997 13.3703 25.4772 14.2403 24.7113C14.6662 24.3375 16.2348 25.2505 16.054 24.169C15.9591 23.6083 13.6583 23.3204 15.089 22.582H15.6833V22.5851Z" fill="#592616"/>
<path d="M11.719 23.3789C10.6989 23.5964 11.1921 24.3409 10.7417 24.7759C10.0861 25.4132 9.8441 24.8954 9.14559 24.9598C8.6983 25.0026 7.55556 25.1129 7.99059 25.9156C8.23569 26.366 9.27426 26.1423 9.70011 26.1883C9.83491 26.6785 9.99422 26.7796 10.4997 26.7183C10.5304 25.5847 11.3851 25.4346 12.1572 25.0057C12.7729 24.6656 12.7852 24.8127 13.1191 24.1632C13.2693 23.8752 12.7576 23.431 13.3275 22.9745C13.3275 22.8305 13.2509 22.7662 13.1038 22.7815L11.716 23.3759L11.719 23.3789Z" fill="#592616"/>
<path opacity="0.2" d="M15.1959 3.85702C14.5372 3.92748 13.1065 4.35332 12.9441 5.10698C12.8614 5.49606 13.1953 5.96173 13.5139 6.18844C14.2615 6.71845 14.2829 6.27116 14.9109 6.05364C15.4593 5.86676 16.0506 5.37045 16.3447 6.167C16.6021 6.86551 16.02 6.7736 15.6401 7.16575C15.2142 7.60385 14.5739 7.7509 15.0212 8.58421C15.2633 9.03457 16.0445 9.36238 16.4887 9.17856C17.3894 8.81092 17.0341 7.26072 18.5414 7.64367C20.3887 8.11241 18.9396 9.84031 18.2779 8.97024C18.4004 8.91815 18.5107 8.93653 18.6088 9.02538C18.6915 9.58603 18.2748 9.9506 17.7755 10.1191C17.0095 10.3826 16.8227 9.72695 16.4703 9.73001C15.3797 9.74227 15.3 11.5314 14.001 10.3703C13.422 9.85256 13.4159 7.93166 12.5611 7.88264C10.9956 7.79379 12.2211 9.72083 12.4723 10.1467C12.8461 10.787 12.7296 10.7717 12.7572 11.5958C12.7725 12.0523 12.6561 12.5976 13.0942 12.9744C14.3227 14.0314 14.8956 12.1901 15.827 12.0523C16.8686 11.8991 17.4599 13.8904 18.3974 12.9989C18.9887 12.4352 18.2258 12.0645 19.2429 11.7765C19.8342 11.608 20.5419 11.9328 21.1393 12.0063C21.8869 8.2901 25.6582 12.8672 23.7649 14.9443C22.8672 15.9308 22.6681 15.122 22.0155 14.7115C21.1485 14.1631 21.6571 14.3439 20.7196 14.7881C20.3336 14.9688 19.9843 15.4008 19.439 15.2844C18.7283 15.1312 18.8018 14.5644 18.1676 14.2366C16.4949 13.3727 17.0739 15.5693 17.6835 16.3046C18.0573 16.7519 18.4372 17.2819 19.0132 17.5454C19.8863 17.9467 19.7239 17.6097 20.5909 17.2543C21.651 16.8223 23.9701 16.8928 23.4953 18.5012C22.9683 20.2935 21.2496 19.0466 20.113 18.9638C19.7944 19.5429 20.1804 20.1127 20.355 20.6733C20.5511 21.3075 20.5389 21.4301 20.5971 22.1133C20.689 23.1886 21.7276 24.5029 23.0602 23.6053C24.0559 22.9343 23.0939 22.3645 23.2318 21.7609C23.3972 21.0379 23.4738 21.3964 24.3531 21.1819C26.0595 20.7653 25.6551 19.9748 25.358 18.5135C25.1098 17.3064 25.7348 16.1361 26.0687 15.0056C26.3445 14.0651 26.0718 13.1276 25.6582 12.086C25.5112 11.7122 25.0914 11.0167 24.8555 10.7073C24.4481 10.1773 24.0958 10.1344 23.6362 9.68713C23.1307 9.19694 22.7508 7.9531 21.988 7.77847C21.121 7.57934 21.1822 8.47698 20.4807 7.70801C19.9506 7.12592 20.1283 5.97705 19.5524 5.31837C18.7252 4.3717 16.4336 3.71915 15.202 3.85088L15.1959 3.85702Z" fill="#FEDCBC"/>
<path opacity="0.2" d="M20.3952 2.91618C20.2879 2.78445 20.1838 2.65271 20.0888 2.52097C19.3658 1.52222 18.2874 1.26488 17.0803 1.16685C15.4504 1.03205 15.1502 2.51791 13.7011 2.56387C12.4236 2.60676 11.6362 1.90212 10.2821 2.51485C9.73369 2.763 9.3201 3.18578 8.75026 3.36041C8.12834 3.55342 7.51867 3.03873 7.3226 3.91493C5.07695 3.75563 5.14129 6.30763 5.11678 7.80576C5.10146 8.76468 4.66948 8.82595 4.24364 9.53978C3.90357 10.1096 3.62172 11.093 3.43177 11.7211C2.93546 13.3632 2.9661 14.9379 2.79454 16.5862C2.64748 17.9893 2.82211 20.3299 4.44584 20.9549C4.97891 20.3912 4.90538 19.7019 5.8306 19.9592C6.14003 20.045 6.70987 20.8967 6.90901 21.1632C7.67185 22.1834 8.03949 23.559 9.33235 23.9389C10.7906 24.3678 11.8262 23.9083 11.8599 22.3213C11.9058 20.2809 10.0186 21.0407 8.76251 20.1155C7.5585 19.2301 8.00886 18.0598 7.61977 16.8864C7.19086 15.5813 6.39738 14.3742 7.66267 13.1916C8.40713 12.4962 10.0921 12.4594 10.6068 13.5838C10.8458 14.1046 10.4445 14.5121 10.7723 15.0697C10.999 15.4587 11.9701 15.9642 12.347 16.0929C12.8525 15.2902 13.6245 14.8092 14.4609 15.6609C15.1594 16.3748 14.7121 17.0089 14.5988 17.9188C15.527 18.1976 16.7525 18.8594 16.296 20.0389C16.1581 20.3943 15.4719 21.1479 15.2268 21.3501C15.0706 21.4788 15.0859 21.8526 14.8438 22.0088C14.5957 22.1681 14.1637 21.7055 13.9156 21.874C11.6822 23.3966 15.092 27.2109 16.4829 23.9512C17.1079 24.0461 17.7206 24.8641 17.4786 25.4523C17.1017 25.4707 17.1048 25.6484 16.8781 25.7465C18.1342 26.9443 20.5238 25.1613 21.8626 24.7324C23.6518 24.1625 24.3381 23.3262 24.9048 21.5217C27.7295 22.1313 26.2559 17.3735 26.6205 16.0899C27.0954 14.4202 27.3404 14.1107 26.936 12.3185C26.8104 11.764 26.9851 10.8449 26.7921 10.2873C26.5592 9.61637 25.4502 8.26531 24.8558 7.66483C24.3503 7.15627 23.998 6.93262 23.5691 6.36891C23.1126 5.7715 22.9717 5.0301 22.4325 4.57974C21.9576 4.18453 21.5011 4.28563 21.0447 3.69741C20.8394 3.43087 20.6127 3.17046 20.3982 2.91005L20.3952 2.91618Z" fill="#FEDCBC"/>
<path opacity="0.2" d="M14.0654 27.6983C12.5366 27.8637 10.7413 27.4807 9.23096 27.1897C7.76348 26.9078 5.815 26.096 5.04296 24.7633C4.68452 24.1414 4.62324 23.2927 4.26479 22.6708C3.78074 21.8375 3.25379 21.8712 2.61962 21.3198C1.58717 20.4221 1.627 18.5563 1.60249 17.3401C1.57492 15.9216 1.78631 14.3101 2.18765 13.002C2.65638 11.464 2.12944 10.0057 3.0424 8.71593C3.41004 8.19817 3.65207 7.97759 3.9615 7.42001C4.35977 6.70311 4.32301 6.43045 5.03377 5.8698C5.9835 5.12534 8.01163 4.0163 9.28917 4.70256C11.2775 5.7687 8.36395 6.8226 7.74816 7.4966C6.75554 8.58113 7.19058 10.643 7.3744 11.9634C8.60598 12.3065 9.31674 10.9064 10.4135 10.7686C11.4889 10.6307 10.9619 11.0872 11.0845 11.8225C11.1335 12.1196 10.8149 12.1227 11.0201 12.5363C11.1151 12.7293 11.6696 12.9621 11.8442 13.0969C12.1077 13.2991 12.3957 13.1705 12.6193 13.4401C12.7787 13.6331 12.6592 13.9303 12.8614 14.1202C13.5109 14.736 13.6457 14.5552 14.6322 14.6471C15.4379 14.7237 15.2265 14.2458 15.7044 15.168C15.9986 15.7409 16.115 16.2984 15.6278 16.7794C16.5408 17.5974 17.6499 17.6189 17.8429 19.0741C18.0267 20.4681 17.1658 21.1329 16.501 22.052C15.732 23.1181 16.2283 24.3742 17.6223 23.7645C18.9151 23.1978 19.148 22.0428 20.0763 24.0433C20.8115 25.6303 20.0946 26.1358 18.6792 26.5892C17.9133 26.8343 17.2393 27.3153 16.4795 27.539C15.7044 27.7657 14.8711 27.6125 14.0746 27.6983H14.0654Z" fill="#FEDCBC"/>
<mask id="mask0_1263_15573" style="mask-type:luminance" maskUnits="userSpaceOnUse" x="0" y="0" width="28" height="29">
<path d="M5.54003 4.70807C3.54254 4.48749 3.43531 5.93965 2.61425 7.37037C2.1639 8.15467 0.926187 8.66935 0.656586 9.7018C0.359413 10.8415 1.27544 10.7434 1.41331 11.684C1.53279 12.5112 0.583061 13.4517 0.457451 14.2697C0.307333 15.2409 0.714798 15.4278 1.0181 16.2427C1.51747 17.5846 1.96476 19.1838 2.20373 20.6022C2.32015 21.2977 2.27726 21.9104 2.40287 22.5844C2.66634 23.9998 2.88386 23.4729 3.79376 24.199C4.43712 24.7106 4.51065 25.6205 5.21529 26.1137C5.46957 26.2884 6.03941 26.319 6.37641 26.5028C6.75937 26.7111 6.90336 27.1033 7.36597 27.2932C8.09205 27.5904 8.58836 27.2687 9.34202 27.4832C9.75561 27.5996 9.85365 28.0377 10.3285 28.1449C10.7329 28.2368 11.1894 27.9458 11.5172 27.9826C12.4486 28.0837 12.9694 28.8006 14.0416 28.7362C15.2916 28.6596 15.3896 27.8355 16.2659 27.3637C17.9355 29.3888 19.3448 27.2963 20.5917 26.3435C21.5169 25.6358 23.5818 25.1855 23.444 23.6138C24.6235 23.237 26.2227 21.4968 25.5089 20.2162C26.2043 19.9344 25.855 19.5269 26.2043 19C26.2288 18.9663 27.3838 17.7194 27.347 18.1973C27.4543 16.8248 27.7606 15.9302 27.5247 14.5087C27.3256 13.2985 27.3716 12.0271 27.1234 10.9456C26.9947 10.3911 26.9396 9.68342 26.7864 9.10745C26.5352 8.16998 25.8183 8.31091 25.4353 7.52661C25.1504 6.94146 25.2821 6.38694 24.9513 5.78647C24.6081 5.16455 24.1026 5.03894 24.1762 4.18112C23.6094 4.1321 23.0181 4.17193 22.4513 4.11984C22.4912 3.92071 22.3533 3.58677 22.3901 3.38764C21.0666 3.48874 20.941 1.89564 19.5899 1.4269C18.7443 1.13279 17.62 1.4024 16.6274 1.2339C16.0759 1.14199 15.5612 0.786599 14.9332 1.02556C14.5563 1.16955 14.204 1.8987 13.9528 1.98142C13.3768 2.1683 12.8958 1.6628 12.3505 1.65055C11.7163 1.63523 11.5846 1.8742 11.0546 2.02738C10.932 2.06414 8.08899 3.15173 8.48726 3.29266C7.88985 3.08127 7.17908 2.77797 6.56329 3.09046C6.26918 3.24058 5.56455 4.71419 5.5431 4.71112L5.54003 4.70807Z" fill="white"/>
</mask>
<g mask="url(#mask0_1263_15573)">
<g style="mix-blend-mode:multiply" opacity="0.7">
<path d="M19.0876 17.6515L19.0968 17.5596C19.0846 17.5933 19.0846 17.6239 19.0876 17.6515Z" fill="#9E3C4B"/>
<path d="M18.7192 17.9408L18.7836 18.0327C18.7591 17.9714 18.7376 17.9316 18.7192 17.9408Z" fill="#9E3C4B"/>
<path d="M14.1943 25.7291C14.4057 25.821 14.706 25.9925 14.5252 25.8118L14.3353 25.6494C14.3199 25.726 14.2648 25.7383 14.1943 25.7291Z" fill="#9E3C4B"/>
<path d="M16.7096 21.4362C16.6882 21.4239 16.6637 21.4117 16.6392 21.3994C16.679 21.4791 16.7157 21.5526 16.7494 21.62C16.7372 21.5649 16.7249 21.5036 16.7096 21.4392V21.4362Z" fill="#9E3C4B"/>
<path d="M16.0757 20.6221L16.2748 20.6619C16.2166 20.6374 16.1523 20.6251 16.0757 20.6221Z" fill="#9E3C4B"/>
<path d="M20.8796 15.8094L20.7785 15.5674C20.6866 15.644 20.8091 15.7083 20.8796 15.8094Z" fill="#9E3C4B"/>
<path d="M11.2313 28.4466C11.3538 28.4619 11.4304 28.4466 11.4764 28.416C11.3079 28.3792 11.1026 28.2812 11.2313 28.4466Z" fill="#9E3C4B"/>
<path d="M20.6586 19.7859C20.6586 19.7276 20.6372 19.6786 20.6035 19.6357C20.6004 19.694 20.6127 19.746 20.6586 19.7859Z" fill="#9E3C4B"/>
<path d="M11.6419 28.2564C11.6143 28.2472 11.5959 28.2503 11.5714 28.2441C11.5591 28.3146 11.5408 28.3789 11.4795 28.4188C11.6051 28.4463 11.7093 28.4372 11.6449 28.2564H11.6419Z" fill="#9E3C4B"/>
<path d="M10.9979 26.7272C10.9979 26.7272 10.9979 26.7272 11.0009 26.7242C10.9561 26.7033 10.965 26.7063 10.9979 26.7272Z" fill="#9E3C4B"/>
<path d="M24.792 13.8201C24.792 13.8201 24.8072 13.8262 24.8164 13.8323C24.8042 13.7135 24.792 13.7439 24.792 13.8201Z" fill="#9E3C4B"/>
<path d="M13.5908 22.7675C13.5908 22.7675 13.5908 22.7761 13.5937 22.7789C13.5965 22.7789 13.6023 22.7789 13.6051 22.7789L13.5908 22.7646V22.7675Z" fill="#9E3C4B"/>
<path d="M13.6243 22.4816C13.7653 22.7726 13.7009 22.7818 13.606 22.7787L14.1452 23.2597L13.6274 22.4785L13.6243 22.4816Z" fill="#9E3C4B"/>
<g style="mix-blend-mode:multiply" opacity="0.8">
<path d="M19.8959 16.8752L19.6355 16.8017C19.5405 16.4003 19.7243 16.4126 19.4119 16.2625C19.8959 16.8752 19.0075 16.7067 19.4946 17.3164L19.3108 17.2551C19.3383 17.2428 19.3108 17.203 19.3383 17.1907C18.9462 17.0314 19.5895 17.7146 19.3261 17.7943C19.2188 17.8065 19.0994 17.7575 19.084 17.6503L19.0595 17.923C19.0075 17.9475 18.9309 17.8372 18.9829 17.8096L18.7961 18.0516L18.7838 18.0332C18.8298 18.1527 18.8788 18.3611 18.8972 18.453C18.7685 18.4162 18.8727 18.3641 18.7961 18.3029V18.5541C18.6122 18.4438 18.5877 18.2048 18.6919 18.1527C18.07 17.6595 18.7164 18.3917 18.168 18.263L18.2232 18.0853C17.8586 17.8157 17.8708 18.0149 17.5553 17.923C17.6809 18.0057 18.2752 18.2201 18.2661 18.4836C18.1895 18.4714 18.1221 18.4928 18.1496 18.6766C17.9689 18.4683 17.9413 18.5816 17.8616 18.6705L17.6288 18.3856C17.6012 18.5479 17.7299 18.6858 17.782 18.8574C17.6503 18.9248 17.4419 18.7287 17.2612 18.5694C17.0498 18.6736 17.6778 18.8114 17.5185 19.0412C17.2826 19.0596 17.2826 19.2587 17.255 19.5743C17.0712 19.5651 17.1264 19.3904 17.0191 19.3414L17.1233 19.6386C17.0957 19.6508 17.0437 19.5773 17.0191 19.5406C17.0191 19.6907 17.255 19.8224 17.203 20.0001C17.4389 20.331 16.5749 19.7642 16.7312 20.2391C16.627 20.1931 16.5994 20.0553 16.4953 19.9572C16.4953 20.3586 16.4708 20.2728 16.5749 20.7201L16.2777 20.6618C16.5627 20.7783 16.6484 21.1367 16.7128 21.44C16.8384 21.5074 16.9456 21.5687 17.0038 21.5932L16.9548 21.8996C16.8935 21.8751 16.8261 21.7648 16.7557 21.6238C16.7649 21.6575 16.7741 21.6912 16.7832 21.7188C16.627 21.6729 16.5198 21.486 16.4309 21.293C16.5014 21.3267 16.5749 21.3665 16.6484 21.4063C16.5443 21.2011 16.4248 20.9774 16.2716 20.8242C16.2869 20.8671 16.29 20.9131 16.2777 20.9498C16.2502 20.8947 16.2226 20.8457 16.192 20.8242C16.1583 20.7997 16.192 20.8794 16.2257 20.9743L15.9132 20.7047L16.0112 20.8365L15.6037 20.8549C15.7079 21.3144 15.9653 21.8996 15.8121 22.2641C15.6773 21.9823 15.4996 21.8873 15.2637 21.6177C15.5884 21.8322 15.3648 21.3113 15.5547 21.2439C15.4567 21.2807 15.3587 21.1398 15.3372 21.0785L15.3188 21.5564C15.1289 21.3359 15.1197 21.44 14.9757 21.4094C15.4077 21.7954 15.0462 21.8597 15.0645 22.0803C14.9297 21.9425 14.8225 21.774 14.9757 21.6974C14.5499 21.4982 15.2514 22.356 14.8746 22.2029C14.9022 22.1722 14.9389 22.1784 14.8838 22.0956C14.9297 22.2856 14.6663 22.3407 14.5958 22.1784L14.6234 22.1477C14.3814 22.2764 14.0168 22.6931 14.317 23.0791C14.2741 23.0331 13.9463 22.6195 13.8912 22.5368L14.6479 24.0717C14.3967 23.7347 13.6001 23.1066 13.6062 22.7788C13.5174 22.7788 13.4132 22.7788 13.4132 22.981C13.4868 22.9963 13.9034 23.3548 13.885 23.4253C13.45 23.1894 13.6338 23.318 13.2141 23.1587C13.3244 23.1802 13.7135 23.7132 13.6246 23.7684C13.5695 23.6857 13.1773 23.2966 13.159 23.22L13.4071 23.8695C13.3765 23.7408 13.0456 23.459 12.8802 23.364C12.9843 23.4375 12.7086 23.5049 12.7025 23.5999L12.8832 23.6367C12.6044 23.7623 13.2907 24.4975 13.0579 24.6691C12.9935 24.5496 12.5615 24.0104 12.3992 24.0502C12.5738 24.3382 13.2662 25.4166 13.257 25.7751L13.0916 25.6709L13.0977 25.9589C12.8434 25.5147 12.3777 24.5159 12.2368 24.0901C12.056 24.0533 12.0622 23.9461 11.9549 24.0717C11.7926 23.9828 11.8355 23.8143 11.8661 23.7745L11.5107 23.9491C11.7864 24.2187 11.5628 24.4301 11.7956 24.6538L11.8232 24.0809C12.0989 24.3535 12.3961 25.0429 12.1571 25.1777C12.004 25.1133 11.7221 24.6415 11.6302 24.5527C11.6945 24.6722 11.6179 24.9111 11.5352 24.859L11.477 24.6293C11.2687 24.6293 11.6516 25.1685 11.2687 25.0245C11.2074 25.049 10.7938 24.7916 10.9409 24.9632C11.3177 25.2144 12.2674 26.1917 12.4482 26.4766C12.4114 26.4705 11.9243 26.3909 11.7221 26.2836C11.4096 26.1029 11.2656 25.5821 10.9991 25.4258C11.0696 25.5055 11.1186 25.6372 11.1308 25.6832C11.0205 25.6617 10.9256 25.4289 10.8551 25.5606C11.1094 25.8609 10.6253 25.7352 11.0359 25.8455C11.0144 26.0232 10.8735 25.8884 10.7693 26.014C10.9807 26.1611 11.2595 26.7371 11.2381 26.9117C11.1737 26.8351 11.0634 26.7616 11.0113 26.7309C10.7846 26.8994 10.5487 26.8749 10.3588 27.0557C10.2761 27.0036 10.1045 27.0097 10.0279 26.8504C10.0494 26.927 10.1168 27.0465 10.0647 27.1108C9.71542 26.9791 10.1597 26.9454 9.78895 26.7371C9.93907 26.9086 9.85635 27.1078 9.87167 27.2916C10.1413 27.5183 10.1106 27.1537 10.0953 26.9699C10.4323 27.3161 10.6437 27.8216 10.6039 28.1739C10.5334 28.4098 10.319 28.0146 10.3373 28.0912C9.98502 28.3148 10.6805 28.9368 10.1964 28.9276C9.88392 28.802 9.76138 28.4956 9.58368 28.3577C9.62658 28.1494 9.91456 28.3056 9.99115 28.2137H9.78282C9.75219 28.1004 9.78282 27.9625 9.89005 27.9809C9.61432 27.8614 9.36004 28.4282 8.95564 28.4711C8.98934 28.5844 8.99547 28.7284 9.11495 28.7836L9.15478 28.6825C9.3968 28.7958 9.26507 29.0593 9.43663 29.0532C9.4642 29.2707 9.55305 29.5709 9.32328 29.6046L9.04755 29.381C9.12414 29.4515 9.28345 29.4423 9.24362 29.3289C9.29877 29.4943 8.70442 29.1972 8.97096 29.5832L9.2375 29.6628C9.26813 29.8834 9.41825 30.2633 9.22218 30.3031C9.52241 30.4931 9.22218 30.248 9.59288 30.4502C9.16397 30.1653 9.90843 30.1653 9.41212 29.9079C9.83184 30.1561 9.70317 29.9018 10.0984 30.0734C10.0126 29.9937 9.9023 29.957 10.0402 29.8987C10.0218 29.8712 10.0003 29.8283 9.99115 29.8038C9.99421 29.8038 9.99728 29.8038 10.0034 29.8038C9.99728 29.8038 9.99421 29.8007 9.98809 29.8007C9.9789 29.7823 9.97583 29.7823 9.98196 29.8007C9.92069 29.7884 9.85942 29.7639 9.80733 29.7241C9.66641 29.4851 9.83184 29.335 9.78589 29.1849C9.88392 29.1665 9.85635 29.3044 9.97583 29.3595L9.90843 29.1359C10.0984 29.3105 10.368 29.286 10.3343 29.5311L10.466 29.4147C10.6406 29.4453 10.7816 29.3871 10.7663 29.2492C10.8643 29.2309 10.7142 28.9 10.8061 29.093L10.8919 28.7866L10.9409 28.8326C11.1584 28.6672 11.042 28.1371 11.5904 28.2536C11.6088 28.1433 11.6241 28.0207 11.7834 27.9686L11.958 28.1096C11.9886 27.9717 12.3655 28.0268 12.2429 27.8246C12.7515 28.1708 12.7423 27.5244 12.9659 27.4631L12.7699 27.2456C12.8832 27.1598 12.9261 27.0067 12.9751 26.8014L12.7913 26.6206C12.7576 26.3633 13.2018 26.4858 13.3581 26.302C13.4132 26.3847 13.352 26.4093 13.2784 26.3939C13.885 26.6206 13.4347 25.6709 13.9126 25.8026C13.8973 25.6893 13.9524 25.6801 14.029 25.6985C14.0229 25.7046 14.0229 25.7107 14.029 25.7199C14.0352 25.7199 14.0443 25.7107 14.0505 25.7046C14.1026 25.7169 14.1577 25.7353 14.2098 25.7444C14.1485 25.7169 14.0934 25.6954 14.0597 25.6954C14.0934 25.6587 14.1271 25.5821 14.1363 25.484L14.3476 25.6648C14.3476 25.6648 14.3538 25.6556 14.3568 25.6464C14.4794 25.6709 14.3109 25.5116 14.1393 25.386C14.1363 25.3278 14.124 25.2634 14.0995 25.196C14.4457 25.484 14.1393 24.954 14.5253 25.2481C14.4059 25.0429 14.6816 24.8652 14.3814 24.4792C14.4242 24.5251 14.461 24.5312 14.4365 24.5619C14.5376 24.5466 14.6356 24.5312 14.5958 24.3781L14.8593 24.614L14.6755 24.1422C14.9022 24.2249 15.0186 24.2861 15.1197 24.5588C15.0339 24.0717 15.1718 24.2984 15.0615 23.8419L15.2085 24.0165C15.2606 23.9553 15.1534 23.6458 15.3158 23.75C15.7416 23.9491 16.0143 23.1924 16.6301 23.1863C16.1154 22.7482 16.9916 23.266 16.6576 22.8677C16.7832 22.9688 16.8905 22.9902 16.9272 23.1434C17.0008 22.8707 17.3592 23.0944 17.1876 22.6594C17.3133 22.7605 17.3041 22.8677 17.3837 22.9198C17.3745 22.883 17.347 22.7666 17.4297 22.8217C17.5093 22.8769 17.494 22.9443 17.5093 23.0209C17.6717 22.8401 17.3653 22.4602 17.0743 22.1048C17.3102 22.1876 17.3347 22.1232 17.203 21.8383C17.3347 21.921 17.491 21.9945 17.4144 22.1324C17.491 22.0926 17.9444 21.9578 17.7085 21.6759C17.7912 21.728 17.8157 21.6177 17.8034 21.5718C17.9597 21.4645 17.9934 21.4768 18.1098 21.3297L18.0301 21.3175C17.7942 20.9345 18.0822 21.1398 18.1588 21.0019L18.1864 21.0387C18.6551 21.054 18.1987 20.8273 18.6919 20.8794L18.4989 20.6833C18.1343 20.2146 18.9554 20.7507 18.9554 20.4505L18.7991 20.3769C18.747 20.1533 19.5528 20.7905 19.6815 20.7752C19.7335 20.7997 19.709 20.861 19.709 20.9131C20.1502 20.9958 19.5007 20.6159 19.6049 20.4168C19.7611 20.5393 19.8898 20.8242 20.0215 20.7599C20.1778 20.8334 19.9204 20.0154 20.3095 20.1717C20.1808 20.0859 20.0522 20.0001 20.0522 19.85C20.1318 19.7121 20.7262 20.0185 20.524 19.5712C20.5638 19.5896 20.5944 19.6141 20.622 19.6447C20.6312 19.4793 20.7752 19.2495 20.6618 19.0106C21.3573 19.6723 20.91 18.1987 21.4706 18.8727L21.7096 18.6123L21.7586 18.6858C21.97 18.5878 21.8965 18.3764 21.8229 18.1619C21.8995 18.1742 21.924 18.263 21.9485 18.2998C22.3131 18.2263 22.3162 18.1772 22.2488 17.6656L22.451 17.8678C22.405 17.6901 23.1005 17.9138 23.1403 17.4542C23.1587 17.4818 23.1893 17.5278 23.1924 17.5768C23.2629 17.0866 24.3596 17.6472 23.8143 16.7588L23.8419 16.4095C23.5508 16.5382 23.5968 16.0296 23.3915 15.9745C23.4497 15.8519 23.8327 16.0235 23.75 16.1583L23.6979 16.1307C23.992 16.5872 24.1176 16.0419 24.3413 16.336C24.571 16.1338 24.8498 16.0051 25.1286 15.8826C25.4074 15.76 25.6831 15.6436 25.916 15.4843L25.6096 15.1902L25.7812 15.0891C25.8823 15.135 26.0354 15.3066 25.9129 15.3801C26.1182 15.5241 25.9803 15.0799 25.9282 15.0033C26.2499 14.9727 26.1396 15.4598 26.2131 15.4138L26.2867 15.3189L26.2376 15.2944C26.207 15.1013 26.1059 14.9512 26.253 14.8654C26.3908 14.8654 26.4521 15.0401 26.495 15.0278C26.5134 15.0523 26.5318 15.0554 26.5532 14.9972L26.7738 14.8746L26.495 14.6694C26.4858 14.4733 26.6941 14.5438 26.3755 14.3109C26.8596 14.6755 27.2487 13.9249 27.4386 14.0076C27.4202 13.7196 27.5489 13.6369 27.7205 13.5511C27.6408 13.5236 27.4018 13.2356 27.5611 13.1774C27.9594 13.8391 27.9992 13.2754 28.4251 13.6522C28.2719 13.5358 28.3516 13.45 28.4159 13.3551C28.4802 13.2601 28.5262 13.1529 28.3025 12.9936C28.4496 12.969 28.4741 13.2233 28.661 13.3152C28.7069 13.1008 28.8816 13.0426 29.0746 12.9966C29.1726 12.9752 29.2737 12.9537 29.3687 12.9231C29.4637 12.8925 29.5525 12.8496 29.6199 12.776C29.5709 12.6872 29.43 12.5953 29.4177 12.4237L29.8681 12.7331C29.9048 12.6504 29.6107 12.2031 29.9201 12.4207C29.8589 12.3594 29.7639 12.2705 29.7884 12.2123C30.0182 12.2062 30.202 12.1388 30.3674 12.0346C30.5329 11.9335 30.6799 11.7957 30.8392 11.6762C30.9955 11.5598 31.1609 11.4525 31.357 11.4035C31.455 11.3759 31.5592 11.3698 31.6726 11.3851C31.7859 11.4005 31.9085 11.4342 32.0433 11.4954C31.8656 11.3668 31.9146 11.3177 31.982 11.2779C31.9146 11.2595 31.8717 11.0543 31.8012 10.9378C31.8012 10.9378 31.9146 10.9869 32.0279 11.0359C32.0831 11.0604 32.1413 11.0849 32.1811 11.1063C32.2209 11.1278 32.2485 11.1401 32.2485 11.1401C32.1934 10.9562 32.2638 10.9164 32.3343 10.8827C32.4048 10.8459 32.4722 10.8122 32.417 10.6407L32.3527 10.7418C32.3282 10.5181 32.1934 10.3159 32.0341 10.1107C31.8748 9.9054 31.6848 9.69402 31.5806 9.43973C31.5929 9.56841 31.5531 9.60211 31.4918 9.59292C31.4275 9.58372 31.3386 9.5347 31.2498 9.49488C31.0721 9.41216 30.8883 9.36314 30.925 9.73691C30.8178 9.66644 30.8883 9.55615 30.8025 9.45811C30.8484 9.70014 30.7994 9.77979 30.6095 9.75835L30.5972 9.70014C30.4226 9.83187 30.2663 9.87171 30.0917 9.89009C29.9171 9.91153 29.7149 9.90846 29.4698 9.96974L29.6414 10.1842C29.5341 10.2087 29.4729 10.1474 29.3932 10.1137C29.5066 10.5273 29.6536 9.97893 29.7976 10.4262C29.3932 10.0249 29.1757 10.7969 28.7621 10.319C28.6273 10.4048 28.9704 10.558 28.8356 10.6437L28.71 10.5243L28.7958 10.7295C28.6886 10.7571 28.5293 10.607 28.4465 10.4875C28.4772 10.4875 28.4864 10.414 28.5017 10.3895C28.278 10.2975 28.2168 10.656 28.1432 10.6284H28.3301C28.0513 10.9991 27.4937 11.1186 27.3467 11.6364L27.4447 11.7252C27.3191 12.099 27.1567 11.7558 26.9362 12.0438L26.93 12.0132C26.9484 12.1572 26.9086 12.2644 26.8228 12.3073C26.8075 12.1357 26.5195 12.1664 26.5164 11.9642C26.3878 12.3716 26.495 12.2246 26.593 12.7423L26.4245 12.6014C26.4766 12.8005 26.5318 12.8894 26.4245 13.0334C26.4307 12.8036 26.1457 12.8373 26.1274 12.5493C25.5606 12.39 25.9742 13.2478 25.435 12.7975C25.6525 13.3704 25.8823 12.8741 25.8823 13.0303C26.06 13.1406 26.0355 13.4654 25.9068 13.4837C25.8087 13.5419 25.2971 12.9936 25.0735 13.1804C25.098 13.1651 25.0735 13.1284 25.098 13.113C24.9203 13.0579 25.052 13.4041 24.7977 13.2907C24.954 13.6185 24.6476 13.3796 24.905 13.7533L25.052 13.5083C25.003 13.6951 25.2144 14.2037 24.859 14.1486C24.8192 14.0628 24.8039 13.9249 24.8039 13.8391C24.6629 13.7778 24.7457 13.9954 24.6017 13.931C24.3413 13.5573 24.8008 13.6584 24.7181 13.2815C24.5404 13.1774 24.6721 13.7288 24.4393 13.2877C24.7273 13.8575 24.1605 13.398 24.2984 13.8973L24.1421 13.6737C24.1421 13.7258 24.1728 13.8667 24.1237 13.8973L23.9889 13.5542C24.0471 13.8912 23.5845 13.5358 23.5631 13.7595C23.8112 13.5573 23.8204 13.9739 24.0502 14.0474C23.9644 14.5775 23.4344 13.6247 23.1648 14.0015C23.1893 13.9341 23.4436 13.9923 23.4467 14.1486C23.3456 14.1547 23.1924 14.1424 23.0637 14.0628C22.8676 14.2864 23.272 14.2558 23.2782 14.4641C22.9933 14.265 23.2506 14.6602 23.2138 14.8225L23.0392 14.605C22.6685 14.6724 23.3303 15.1136 22.9626 15.132L22.8217 14.7521L22.7604 14.9267L22.5889 14.6602C22.6011 14.9482 22.5215 14.9359 22.3346 14.9696C22.4878 15.0983 22.6317 15.3771 22.5215 15.4751C22.3407 15.4108 22.402 15.2361 22.261 15.3954C22.1875 15.23 22.0956 15.0278 22.3254 15.1718C22.2764 15.0952 22.2519 15.0064 22.2059 14.9328C22.0037 14.8532 21.9639 15.0676 21.9087 15.1197C21.9394 15.1105 21.9761 15.0983 22.0129 15.1197L22.019 15.6099C21.9179 15.5578 21.8934 15.469 21.872 15.3832C21.8444 15.4445 21.8903 15.5701 21.8352 15.6467C21.7126 15.4567 21.5625 15.279 21.5932 15.1167L21.5258 15.4935C21.4492 15.4291 21.2408 15.3771 21.2163 15.2913C21.008 15.2913 21.1857 15.8795 20.913 15.8764C20.9314 15.9163 20.9406 15.9622 20.9284 16.0174C20.7415 16.1062 20.429 16.0051 20.4443 16.3942L20.0828 16.1706C20.0001 16.3605 20.5485 16.4463 20.4075 16.7588C20.3218 16.9977 20.1257 16.5474 19.9939 16.5076C20.0399 16.7343 20.1594 17.1724 19.7979 17.0498C19.7979 16.9487 19.8775 16.961 19.9051 16.8966L19.8959 16.8752ZM18.2722 18.4867C18.2691 18.4131 18.217 18.2201 18.3488 18.3243C18.5173 18.597 18.3886 18.5081 18.2722 18.4867ZM16.1062 21.2623C16.0694 21.1704 16.1368 21.1704 16.2502 21.2133C16.2349 21.2593 16.192 21.2807 16.1062 21.2623ZM10.4323 29.1941C10.4323 29.1941 10.4323 29.188 10.4262 29.1818C10.5702 29.191 10.515 29.1818 10.4323 29.1941ZM10.2056 29.2492C10.2179 29.2921 10.2454 29.3166 10.2791 29.3381C10.2393 29.2799 10.2699 29.2431 10.319 29.2217C10.2577 29.1788 10.2025 29.1635 10.2056 29.2492ZM26.4276 14.9175L26.3541 14.8838C26.3755 14.7674 26.4 14.8379 26.4276 14.9175Z" fill="#695644"/>
</g>
<path d="M16.1489 20.7168C16.1888 20.7444 16.2255 20.7811 16.2623 20.8179C16.2439 20.7719 16.2102 20.7321 16.1489 20.7168Z" fill="#9E3C4B"/>
<path d="M20.8976 15.8558C20.8976 15.8558 20.9007 15.8558 20.9038 15.8558C20.8976 15.8403 20.8883 15.8249 20.876 15.8125L20.8945 15.8589L20.8976 15.8558Z" fill="#9E3C4B"/>
<path d="M10.8311 25.3741C10.8893 25.3741 10.9413 25.3956 10.9904 25.4231C10.9444 25.3711 10.8923 25.3435 10.8311 25.3741Z" fill="#9E3C4B"/>
<path d="M10.2607 27.864L10.3159 27.6955C10.2577 27.6128 10.1872 27.6005 10.1719 27.671C10.1933 27.7476 10.178 27.815 10.2607 27.8671V27.864Z" fill="#9E3C4B"/>
<path d="M9.36272 27.6345C9.43625 27.6467 9.4822 27.6896 9.56492 27.7417L9.31982 27.4844L9.36272 27.6345Z" fill="#9E3C4B"/>
<path d="M9.63894 27.2518C9.58073 27.1691 9.6083 26.8872 9.47656 27.0434C9.53477 27.1262 9.47656 27.2947 9.63894 27.2518Z" fill="#9E3C4B"/>
<path d="M11.6827 25.9141L11.6582 25.9447L12.0626 26.3675L11.6827 25.9141Z" fill="#9E3C4B"/>
<path d="M12.274 23.4434C12.0411 23.4709 12.4854 23.7405 12.2433 23.7283C12.3046 23.86 12.4425 23.7375 12.4915 23.857C12.4762 23.6731 12.5773 23.6915 12.274 23.4434Z" fill="#9E3C4B"/>
<path d="M12.4883 23.8555C12.4883 23.8861 12.4944 23.9198 12.5067 23.9596C12.5067 23.9106 12.4975 23.88 12.4883 23.8555Z" fill="#9E3C4B"/>
<path d="M17.5249 18.1369L17.577 18.2104C17.6536 18.2717 17.6811 18.2594 17.7332 18.2318L17.5249 18.1338V18.1369Z" fill="#9E3C4B"/>
<path d="M18.9709 17.2705L18.9434 17.2858L19.2007 17.5064L18.9709 17.2705Z" fill="#9E3C4B"/>
<path d="M19.7617 16.0459C19.7096 16.0704 19.7034 16.1715 19.6514 16.1991C19.7065 16.0735 20.0435 16.3615 19.7617 16.0459Z" fill="#9E3C4B"/>
</g>
<g style="mix-blend-mode:multiply" opacity="0.7">
<path d="M1.2752 27.809C1.22618 27.8366 1.42839 27.9684 1.45902 28.0021C1.46821 27.904 1.22618 27.7723 1.2752 27.809Z" fill="#9E3C4B"/>
<path d="M1.38784 26.8136L1.45217 26.8871L1.35107 26.6328L1.38784 26.8136Z" fill="#9E3C4B"/>
<path d="M1.92394 26.2017C1.56549 25.9873 1.77382 26.4652 1.57162 26.4805L1.48584 26.4376L1.69417 26.7011C1.76463 26.5357 1.7585 26.2201 1.92394 26.2017Z" fill="#9E3C4B"/>
<path d="M2.87126 26.473C2.73646 26.3873 2.83143 26.3137 2.76709 26.5129C2.78854 26.5159 2.79773 26.5221 2.80998 26.5251C2.81917 26.5098 2.83449 26.4945 2.87126 26.47V26.473Z" fill="#9E3C4B"/>
<path d="M2.80977 26.5264C2.76101 26.5965 2.94385 26.5751 2.80977 26.5264V26.5264Z" fill="#9E3C4B"/>
<path d="M3.00586 26.1758L3.03649 26.3535C3.12228 26.3994 3.20499 26.3412 3.2295 26.4147C3.25095 26.2769 3.16517 26.2309 3.00586 26.1758Z" fill="#9E3C4B"/>
<path d="M2.8584 25.8936L2.86453 25.9763C2.90129 25.9947 2.92273 25.9916 2.8584 25.8936Z" fill="#9E3C4B"/>
<path d="M2.87434 26.1539L2.86515 25.9762C2.80388 25.9425 2.70584 25.8537 2.85902 26.0498C2.77631 25.9609 2.84677 26.059 2.87434 26.1539Z" fill="#9E3C4B"/>
<path d="M2.77933 26.1646C2.66904 26.1523 2.57407 26.1738 2.5465 25.9961C2.44233 26.1952 2.67823 26.3637 2.77933 26.1646Z" fill="#9E3C4B"/>
<path d="M1.6368 25.8874L1.48975 25.8721L1.54183 26.0191C1.51425 25.9456 1.73484 25.9701 1.6368 25.8874Z" fill="#9E3C4B"/>
<path d="M3.63684 25.8047C3.57863 25.7404 3.44076 25.673 3.35498 25.6025L3.37029 25.7312C3.44382 25.7404 3.5388 25.719 3.63684 25.8047Z" fill="#9E3C4B"/>
<path d="M3.35517 25.6061L3.33066 25.4131C3.24181 25.4835 3.27858 25.5448 3.35517 25.6061Z" fill="#9E3C4B"/>
<path d="M2.53711 25.5737L2.62902 25.9353L2.56162 25.54L2.53711 25.5737Z" fill="#9E3C4B"/>
<path d="M3.97071 25.4687L4.07181 25.6586L3.93701 25.3584L3.97071 25.4687Z" fill="#9E3C4B"/>
<path d="M4.16357 25.2141C4.24936 25.3673 4.41786 25.3581 4.45462 25.4684C4.49138 25.3856 4.4393 25.2325 4.39335 25.0977C4.39335 25.1988 4.32901 25.2386 4.16357 25.2141Z" fill="#9E3C4B"/>
<path d="M4.33594 24.8896C4.339 24.9417 4.36657 25.0183 4.39415 25.101C4.39415 25.0459 4.37883 24.9816 4.33594 24.8896Z" fill="#9E3C4B"/>
<path d="M3.5083 25.2885C3.55426 25.316 3.66761 25.3987 3.75646 25.3896L3.54506 25.2578C3.54506 25.2578 3.52056 25.2793 3.5083 25.2915V25.2885Z" fill="#9E3C4B"/>
<path d="M3.53857 25.247H3.5447C3.58453 25.2163 3.61517 25.1918 3.62742 25.1826C3.61517 25.1918 3.59066 25.2102 3.53857 25.247Z" fill="#9E3C4B"/>
<path d="M3.49899 25.2936C3.49899 25.2936 3.50503 25.2876 3.50805 25.2845C3.48693 25.2725 3.4809 25.2695 3.49899 25.2936Z" fill="#9E3C4B"/>
<path d="M2.92355 25.4802C2.87147 25.3331 2.87147 25.1187 2.61719 25.085C2.70297 25.2381 2.85002 25.2565 2.92355 25.4802Z" fill="#9E3C4B"/>
<path d="M3.23574 25.1289L3.104 25.1871C3.15302 25.23 3.23881 25.276 3.26331 25.3495L3.23574 25.1289Z" fill="#9E3C4B"/>
<path d="M3.22314 25.0273L3.2354 25.1284L3.28442 25.107L3.22314 25.0273Z" fill="#9E3C4B"/>
<path d="M4.0107 24.8919C3.97394 24.7755 4.0107 24.7234 4.04746 24.6621C3.95862 24.6836 3.88509 24.7234 3.83301 24.7755C3.88203 24.8367 3.95861 24.9562 4.00763 24.8919H4.0107Z" fill="#9E3C4B"/>
<path d="M3.76547 25.0518C3.76547 25.0518 3.76547 25.0398 3.76547 25.0337C3.74436 25.0247 3.73531 25.0247 3.76547 25.0518Z" fill="#9E3C4B"/>
<path d="M4.53766 24.1601C4.53766 24.1601 4.51328 24.1449 4.49805 24.1357C4.50719 24.1479 4.51633 24.1571 4.52547 24.1662L4.53766 24.1571V24.1601Z" fill="#9E3C4B"/>
<path d="M3.79313 24.7552C3.7196 24.7644 3.73798 24.8318 3.77168 24.9053C3.78394 24.8563 3.80232 24.8134 3.83602 24.7767C3.81457 24.7491 3.79619 24.7338 3.79313 24.7552Z" fill="#9E3C4B"/>
<path d="M4.3881 24.6689C4.32989 24.6536 4.27474 24.6505 4.22266 24.6475C4.29925 24.6812 4.42792 24.721 4.3881 24.6689Z" fill="#9E3C4B"/>
<path d="M3.82715 25.0635C3.82715 25.0635 3.82715 25.0724 3.82715 25.0784C3.87797 25.1023 3.85705 25.0844 3.82715 25.0635Z" fill="#9E3C4B"/>
<path d="M3.82715 25.0646C3.82103 25.0186 3.79346 24.9604 3.77201 24.9053C3.76282 24.9451 3.75976 24.9849 3.76588 25.0309C3.78426 25.037 3.80571 25.0493 3.82715 25.0615V25.0646Z" fill="#9E3C4B"/>
<path d="M3.56349 22.9045C3.71668 23.0699 3.76263 23.3273 3.49609 23.2507C3.52673 23.4621 4.12414 23.9247 4.50097 24.1361C4.43357 24.0656 4.36617 24.0013 4.36311 23.8113C4.24362 23.7592 3.94951 23.8205 3.88211 23.5938C3.92194 23.3855 4.04142 23.5479 4.18848 23.5693C3.93419 23.4222 4.05368 23.1189 3.72893 22.8555L3.72281 23.0699C3.67379 23.027 3.64009 22.9137 3.56962 22.9045H3.56349Z" fill="#9E3C4B"/>
<path d="M4.30842 24.3018L4.29004 24.36C4.3605 24.3416 4.45854 24.3753 4.64236 24.4397C4.62398 24.2987 4.57802 24.2252 4.529 24.167L4.32068 24.3386L4.30842 24.3018Z" fill="#9E3C4B"/>
<path d="M4.11773 24.5375C3.96761 24.3353 3.986 24.1668 3.73784 24.0381C3.63674 24.1637 3.8083 24.2617 3.8175 24.4057C3.9523 24.179 3.86345 24.5558 4.09629 24.5191C4.09016 24.5834 4.06871 24.6263 4.04727 24.6631C4.10241 24.6508 4.16062 24.6447 4.22189 24.6447C4.21577 24.6447 4.21271 24.6416 4.20658 24.6386C4.17594 24.6263 4.16062 24.614 4.18207 24.6171C4.18207 24.614 4.18207 24.611 4.18207 24.6079C4.15756 24.5834 4.13918 24.5589 4.12386 24.5344C4.21271 24.516 4.17901 24.5712 4.18207 24.6079C4.19126 24.6171 4.19739 24.6263 4.20658 24.6355L4.28929 24.3567C4.22496 24.372 4.18513 24.4272 4.1208 24.5313L4.11773 24.5375Z" fill="#9E3C4B"/>
<path d="M2.32275 24.6187C2.34439 24.6279 2.35676 24.6403 2.37221 24.6527C2.35985 24.6187 2.35057 24.6001 2.32275 24.6187Z" fill="#9E3C4B"/>
<path d="M2.50345 24.6436C2.5157 24.6803 2.57698 24.76 2.51571 24.7875C2.4238 24.7753 2.42993 24.7048 2.36865 24.6527C2.3901 24.7232 2.40848 24.8672 2.57698 24.8672L2.56473 24.8304C2.69953 24.8121 3.01508 24.9254 3.02733 24.9622C2.84658 24.8304 2.71178 24.7416 2.50345 24.6436Z" fill="#9E3C4B"/>
<path d="M3.27251 24.537L3.33378 24.2949L3.104 24.2275L3.20204 24.3133C3.08256 24.3685 3.21429 24.4573 3.27557 24.537H3.27251Z" fill="#9E3C4B"/>
<path d="M4.64507 24.228L4.8105 24.4332L4.63281 24.084L4.64507 24.228Z" fill="#9E3C4B"/>
<path d="M4.81641 24.0068L4.97266 24.1753L4.9267 24.0252L4.81641 24.0068Z" fill="#9E3C4B"/>
<path d="M14.6448 11.1251L14.654 11.0332C14.6417 11.0669 14.6417 11.0975 14.6448 11.1251Z" fill="#9E3C4B"/>
<path d="M14.2769 11.4144L14.3412 11.5063C14.3167 11.445 14.2952 11.4052 14.2769 11.4144Z" fill="#9E3C4B"/>
<path d="M9.75146 19.2027C9.96592 19.2946 10.2631 19.4662 10.0823 19.2854L9.89239 19.123C9.87401 19.1996 9.82193 19.2119 9.75146 19.2027Z" fill="#9E3C4B"/>
<path d="M12.2672 14.9148C12.2458 14.9026 12.2213 14.8903 12.1968 14.875C12.2366 14.9547 12.2734 15.0282 12.3071 15.0956C12.2948 15.0404 12.2826 14.9792 12.2672 14.9148Z" fill="#9E3C4B"/>
<path d="M11.6333 14.0967L11.8324 14.1365C11.7742 14.112 11.7099 14.0997 11.6333 14.0967Z" fill="#9E3C4B"/>
<path d="M16.4372 9.28709L16.3361 9.04199C16.2442 9.11858 16.3668 9.18293 16.4372 9.28709Z" fill="#9E3C4B"/>
<path d="M6.78928 21.9241C6.91489 21.9395 6.98841 21.9241 7.03743 21.8935C6.86893 21.8567 6.66367 21.7587 6.78928 21.9241Z" fill="#9E3C4B"/>
<path d="M16.2163 13.2605C16.2163 13.1992 16.1979 13.1502 16.1611 13.1104C16.1611 13.1686 16.1703 13.2206 16.2163 13.2605Z" fill="#9E3C4B"/>
<path d="M7.20046 21.73C7.17289 21.7208 7.15451 21.7208 7.13 21.7178C7.11774 21.7882 7.09936 21.8526 7.03809 21.8924C7.1637 21.92 7.2648 21.9108 7.20353 21.7331L7.20046 21.73Z" fill="#9E3C4B"/>
<path d="M24.0376 3.84378C24.0376 3.84378 24.0585 3.84976 24.0705 3.85574C24.0555 3.82585 24.0466 3.83182 24.0376 3.84378Z" fill="#9E3C4B"/>
<path d="M27.6004 4.67871C27.5851 4.7031 27.5516 4.72138 27.5181 4.74272C27.5425 4.74882 27.5668 4.73358 27.6004 4.67871Z" fill="#9E3C4B"/>
<path d="M5.68613 23.2881C5.65666 23.3382 5.69792 23.3146 5.68613 23.2881V23.2881Z" fill="#9E3C4B"/>
<path d="M4.7858 22.7936C4.77354 22.766 4.75516 22.7323 4.71533 22.6895C4.75516 22.7354 4.77661 22.7691 4.7858 22.7936Z" fill="#9E3C4B"/>
<path d="M6.55309 20.2018C6.55309 20.2018 6.55309 20.2018 6.55608 20.1989C6.51123 20.1779 6.5202 20.1809 6.55309 20.2018Z" fill="#9E3C4B"/>
<path d="M5.54297 23.2683C5.57973 23.2744 5.61649 23.2744 5.65019 23.2683C5.62875 23.2621 5.59505 23.2621 5.54297 23.2683Z" fill="#9E3C4B"/>
<path d="M5.63444 23.3457C5.61311 23.3518 5.59483 23.3579 5.57959 23.364C5.60397 23.3975 5.6253 23.4127 5.63444 23.3457Z" fill="#9E3C4B"/>
<path d="M5.73646 23.2207C5.71482 23.2485 5.68391 23.2609 5.6499 23.2702C5.67154 23.2733 5.68391 23.2794 5.687 23.2887C5.69627 23.2733 5.71173 23.2516 5.73646 23.2207Z" fill="#9E3C4B"/>
<path d="M20.3491 7.29455C20.3491 7.29455 20.3644 7.30064 20.3735 7.30369C20.3613 7.18482 20.3491 7.2153 20.3491 7.29455Z" fill="#9E3C4B"/>
<path d="M9.14551 16.2402C9.14551 16.2402 9.14551 16.2488 9.14837 16.2516C9.15123 16.2516 9.15695 16.2516 9.15981 16.2516L9.14551 16.2373V16.2402Z" fill="#9E3C4B"/>
<path d="M9.18244 15.9581C9.32337 16.2492 9.25904 16.2584 9.16406 16.2553L9.7002 16.7363L9.18244 15.9551V15.9581Z" fill="#9E3C4B"/>
<g style="mix-blend-mode:multiply" opacity="0.8">
<path d="M15.4534 10.3494L15.193 10.2758C15.098 9.8745 15.2818 9.88676 14.9693 9.73664C15.4534 10.3494 14.5649 10.1809 15.052 10.7936L14.8682 10.7323C14.8958 10.7201 14.8682 10.6802 14.8958 10.668C14.5067 10.5087 15.147 11.1949 14.8835 11.2715C14.7794 11.2838 14.6568 11.2348 14.6446 11.1275L14.6201 11.4002C14.568 11.4247 14.4883 11.3144 14.5435 11.2868L14.3566 11.5289L14.3443 11.5105C14.3903 11.633 14.4393 11.8383 14.4577 11.9302C14.326 11.8934 14.4332 11.8414 14.3535 11.7801V12.0313C14.1697 11.921 14.1452 11.682 14.2494 11.63C13.6275 11.1367 14.2708 11.8689 13.7255 11.7403L13.7806 11.5626C13.4161 11.293 13.4283 11.4921 13.1128 11.4002C13.2384 11.4829 13.8327 11.6974 13.8235 11.9639C13.7469 11.9516 13.6795 11.9731 13.7071 12.1538C13.5264 11.9455 13.4988 12.0558 13.4191 12.1477L13.1863 11.8628C13.1587 12.0252 13.2874 12.163 13.3395 12.3377C13.2077 12.4051 12.9994 12.209 12.8187 12.0497C12.6073 12.1569 13.2353 12.2917 13.0791 12.5215C12.8432 12.5399 12.8401 12.739 12.8156 13.0546C12.6318 13.0454 12.6839 12.8707 12.5797 12.8217L12.6839 13.1189C12.6563 13.1311 12.6042 13.0576 12.5797 13.0209C12.5797 13.171 12.8156 13.3027 12.7635 13.4804C12.9994 13.8113 12.1324 13.2445 12.2917 13.7194C12.1875 13.6734 12.16 13.5356 12.0558 13.4375C12.0558 13.8389 12.0282 13.7531 12.1355 14.2004L11.8383 14.1421C12.1232 14.2586 12.209 14.6201 12.2733 14.9203C12.3989 14.9877 12.5062 15.049 12.5644 15.0735L12.5154 15.3799C12.4541 15.3554 12.3867 15.2451 12.3162 15.1011C12.3254 15.1348 12.3315 15.1685 12.3407 15.196C12.1845 15.1501 12.0773 14.9632 11.9884 14.7702C12.0589 14.8039 12.1324 14.8437 12.2059 14.8836C12.1018 14.6783 11.9823 14.4546 11.8291 14.3015C11.8444 14.3444 11.8475 14.3903 11.8352 14.4271C11.8076 14.3719 11.777 14.3229 11.7494 14.3015C11.7188 14.277 11.7494 14.3566 11.7862 14.4516L11.4737 14.182L11.5717 14.3137L11.1643 14.3321C11.2684 14.7916 11.5258 15.3768 11.3726 15.7414C11.2378 15.4595 11.0601 15.3645 10.8242 15.0949C11.149 15.3094 10.9253 14.7886 11.1153 14.7212C11.0172 14.7549 10.9192 14.617 10.8977 14.5557L10.8763 15.0337C10.6864 14.8131 10.6772 14.9173 10.5332 14.8866C10.9651 15.2726 10.6036 15.337 10.622 15.5576C10.4872 15.4197 10.38 15.2512 10.5332 15.1746C10.1073 14.9755 10.8089 15.8333 10.4321 15.6801C10.4596 15.6495 10.4964 15.6556 10.4413 15.5729C10.4872 15.7628 10.2237 15.818 10.1533 15.6556L10.1809 15.625C9.93577 15.7536 9.57426 16.1703 9.87449 16.5563C9.82854 16.5134 9.50379 16.0968 9.44865 16.014L10.2054 17.5489C9.95415 17.2119 9.16066 16.5839 9.16372 16.2591C9.07488 16.2591 8.97071 16.2591 8.97071 16.4613C9.04424 16.4766 9.4609 16.8351 9.44252 16.9025C9.00748 16.6697 9.18823 16.7953 8.77158 16.636C8.88187 16.6574 9.27095 17.1905 9.18211 17.2456C9.12696 17.1629 8.73482 16.7738 8.71644 16.6972L8.96459 17.3467C8.93395 17.2181 8.60308 16.9362 8.43764 16.8412C8.54181 16.9147 8.26608 16.9822 8.25995 17.0771L8.44071 17.1139C8.16191 17.2395 8.84817 17.9748 8.61533 18.1463C8.54794 18.0238 8.11902 17.4877 7.95665 17.5275C8.13128 17.8155 8.82366 18.8939 8.81447 19.2523L8.64903 19.1451L8.65516 19.4361C8.40088 18.9919 7.9352 17.9932 7.79428 17.5673C7.61352 17.5305 7.61965 17.4264 7.51242 17.5489C7.35005 17.457 7.39294 17.2916 7.42358 17.2518L7.06819 17.4264C7.34392 17.696 7.12027 17.9074 7.35311 18.131L7.38069 17.5581C7.65641 17.8308 7.95359 18.5201 7.71462 18.6518C7.56144 18.5875 7.28265 18.1157 7.18768 18.0269C7.25508 18.1494 7.17542 18.3853 7.0927 18.3363L7.03449 18.1065C6.82617 18.1065 7.20912 18.6457 6.82616 18.5017C6.76489 18.5262 6.3513 18.2689 6.49836 18.4404C6.87518 18.6917 7.82491 19.669 8.00567 19.9539C7.9689 19.9478 7.48179 19.8681 7.27959 19.7609C6.96709 19.5801 6.8231 19.0593 6.55657 18.9031C6.62703 18.9827 6.67605 19.1144 6.68524 19.1604C6.57495 19.139 6.47997 18.9061 6.40951 19.0379C6.66379 19.3381 6.17974 19.2125 6.59027 19.3228C6.56882 19.5005 6.42789 19.3657 6.32373 19.4913C6.53512 19.6383 6.81391 20.2143 6.79246 20.3889C6.72813 20.3123 6.61784 20.2388 6.56576 20.2082C6.33905 20.3767 6.10315 20.3522 5.9132 20.5329C5.83048 20.4808 5.65892 20.487 5.58233 20.3307C5.60377 20.4073 5.67117 20.5268 5.61909 20.5881C5.26984 20.4563 5.711 20.4226 5.34336 20.2143C5.49348 20.3859 5.41076 20.585 5.42608 20.7688C5.69568 20.9955 5.66504 20.631 5.64973 20.4471C5.98673 20.7933 6.19812 21.2988 6.15829 21.6511C6.08783 21.8901 5.87337 21.4918 5.89482 21.5684C5.5425 21.7921 6.23794 22.414 5.75389 22.4048C5.4414 22.2792 5.31579 21.9728 5.14116 21.835C5.18405 21.6266 5.47203 21.7829 5.54862 21.691H5.3403C5.30966 21.5776 5.3403 21.4397 5.44752 21.4581C5.1718 21.3386 4.91752 21.9054 4.51312 21.9452C4.54682 22.0586 4.55294 22.2026 4.67242 22.2577L4.71225 22.1566C4.95428 22.27 4.82254 22.5335 4.99411 22.5273C5.02168 22.7449 5.11053 23.0451 4.88075 23.0788L4.60502 22.8552C4.68161 22.9256 4.84092 22.9164 4.8011 22.8031C4.85624 22.9685 4.25883 22.6713 4.52537 23.0574L4.7919 23.137C4.82254 23.3576 4.97266 23.7375 4.77659 23.7773C5.07683 23.9673 4.77659 23.7222 5.14729 23.9244C4.71531 23.6394 5.45978 23.6395 4.96653 23.379C5.38625 23.6272 5.25452 23.3729 5.64973 23.5445C5.56394 23.4648 5.45365 23.4281 5.59152 23.3698C5.57313 23.3423 5.55169 23.2994 5.53943 23.2749C5.54556 23.2749 5.54556 23.2749 5.55169 23.2749C5.54556 23.2749 5.5425 23.2749 5.53637 23.2718C5.52718 23.2565 5.52718 23.2534 5.53024 23.2718C5.47203 23.2596 5.4077 23.235 5.35562 23.1952C5.21775 22.9593 5.38012 22.8092 5.33723 22.656C5.43527 22.6376 5.4077 22.7755 5.52718 22.8306L5.46284 22.6039C5.65279 22.7786 5.91933 22.754 5.88869 22.9991L6.02043 22.8858C6.19506 22.9164 6.33598 22.8582 6.32066 22.7203C6.4187 22.702 6.26858 22.3711 6.35743 22.5641L6.44321 22.2577L6.48917 22.3006C6.70668 22.1352 6.59333 21.6052 7.13866 21.7216C7.1601 21.6113 7.17236 21.4888 7.33167 21.4367L7.50629 21.5776C7.53693 21.4398 7.91376 21.4949 7.79121 21.2927C8.29978 21.6389 8.29059 20.9925 8.51423 20.9312L8.31816 20.7137C8.43152 20.6279 8.47441 20.4747 8.52342 20.2694L8.3396 20.0887C8.3059 19.8313 8.75013 19.9539 8.90638 19.7701C8.96153 19.8528 8.90025 19.8773 8.82673 19.862C9.43333 20.0887 8.98297 19.139 9.4609 19.2707C9.44558 19.1573 9.50073 19.1481 9.57732 19.1665C9.57425 19.1696 9.57119 19.1788 9.57732 19.188C9.58345 19.188 9.59263 19.1788 9.59876 19.1727C9.65084 19.1849 9.70599 19.2033 9.75807 19.2125C9.6968 19.1849 9.64165 19.1635 9.60795 19.1635C9.64165 19.1267 9.67535 19.0501 9.68454 18.9521L9.89594 19.1328C9.89594 19.1328 9.90206 19.1236 9.90206 19.1144C10.0246 19.139 9.85611 18.9796 9.68454 18.854C9.68148 18.7958 9.66923 18.7315 9.64472 18.6641C9.99091 18.9521 9.68761 18.4221 10.0706 18.7162C9.94802 18.5109 10.2268 18.3332 9.92657 17.9472C9.97253 17.9932 10.0093 17.9993 9.98172 18.0299C10.0798 18.0146 10.1809 17.9993 10.141 17.8461L10.4045 18.082L10.2176 17.6102C10.4443 17.6929 10.5607 17.7542 10.6618 18.0269C10.5761 17.5397 10.7139 17.7664 10.6036 17.31L10.7476 17.4846C10.8028 17.4233 10.6925 17.1139 10.8549 17.218C11.2807 17.4172 11.5534 16.6605 12.1692 16.6543C11.6545 16.2162 12.5276 16.734 12.1967 16.3357C12.3223 16.4368 12.4296 16.4583 12.4663 16.6114C12.5399 16.3388 12.8983 16.5624 12.7298 16.1274C12.8554 16.2285 12.8462 16.3357 12.9259 16.3878C12.9167 16.351 12.8891 16.2346 12.9718 16.2898C13.0515 16.3449 13.0331 16.4123 13.0515 16.4889C13.2139 16.3081 12.9075 15.9283 12.6165 15.5729C12.8524 15.6556 12.8769 15.5913 12.7451 15.3094C12.8769 15.3952 13.0331 15.4656 12.9565 15.6035C13.0331 15.5637 13.4896 15.4289 13.2506 15.147C13.3333 15.1991 13.3579 15.0888 13.3456 15.0429C13.5018 14.9356 13.5355 14.9479 13.652 14.8008L13.5754 14.7886C13.3395 14.4056 13.6244 14.6109 13.704 14.473L13.7316 14.5098C14.2004 14.5251 13.7439 14.2953 14.2371 14.3505L14.041 14.1544C13.6765 13.6857 14.4975 14.2218 14.4975 13.9216L14.3413 13.848C14.2892 13.6244 15.0949 14.2616 15.2236 14.2463C15.2757 14.2708 15.2481 14.3321 15.2481 14.3842C15.6893 14.4669 15.0398 14.087 15.144 13.8879C15.3002 14.0104 15.4289 14.2953 15.5606 14.231C15.7169 14.3045 15.4595 13.4865 15.8486 13.6428C15.7199 13.557 15.5912 13.4681 15.5912 13.3211C15.6709 13.1832 16.2653 13.4896 16.0631 13.0423C16.1029 13.0607 16.1335 13.0852 16.1611 13.1128C16.1703 12.9473 16.3143 12.7176 16.2009 12.4786C16.8964 13.1403 16.446 11.6667 17.0097 12.3407L17.2487 12.0803L17.2977 12.1538C17.5091 12.0558 17.4356 11.8444 17.362 11.63C17.4386 11.6422 17.4631 11.7311 17.4876 11.7678C17.8522 11.6943 17.8553 11.6453 17.7879 11.1337L17.9901 11.3359C17.9441 11.1582 18.6396 11.3818 18.6794 10.9223C18.6978 10.9498 18.7284 10.9958 18.7315 11.0448C18.8019 10.5546 19.8987 11.1153 19.3534 10.2268L19.381 9.87756C19.0869 10.0062 19.1359 9.49767 18.9276 9.44252C18.9858 9.31998 19.3687 9.49154 19.286 9.62634L19.237 9.59877C19.5311 10.0553 19.6567 9.50992 19.8803 9.80403C20.1071 9.60183 20.3889 9.47316 20.6646 9.35062C20.9434 9.22807 21.2192 9.11165 21.452 8.95234L21.1456 8.65823L21.3172 8.55713C21.4183 8.60309 21.5715 8.77465 21.4489 8.84817C21.6511 8.99216 21.5163 8.54794 21.4643 8.47135C21.7859 8.44071 21.6756 8.92783 21.7492 8.88188L21.8227 8.78691L21.7737 8.76239C21.743 8.56938 21.6389 8.41927 21.789 8.33348C21.9238 8.33348 21.9881 8.50811 22.0341 8.49279C22.0525 8.5173 22.0709 8.52037 22.0923 8.46216L22.3129 8.33961L22.0341 8.13435C22.0249 7.93828 22.2332 8.00874 21.9146 7.7759C22.3987 8.14047 22.7877 7.38988 22.9777 7.4726C22.9593 7.18462 23.088 7.1019 23.2595 7.01612C23.1799 6.98548 22.9409 6.70057 23.1002 6.64236C23.4985 7.3041 23.5383 6.74039 23.9642 7.11722C23.811 7.0008 23.8907 6.91502 23.955 6.82004C24.0193 6.72507 24.0653 6.62091 23.8416 6.45854C23.9887 6.43096 24.0132 6.69137 24.2001 6.78021C24.246 6.56576 24.4207 6.50449 24.6137 6.4616C24.7117 6.44016 24.8128 6.42177 24.9078 6.38807C25.0028 6.35743 25.0916 6.31455 25.159 6.24102C25.11 6.15217 24.9691 6.06026 24.9568 5.88869L25.4072 6.19812C25.4439 6.11541 25.1498 5.66812 25.4592 5.88564C25.3949 5.82436 25.2999 5.73246 25.3275 5.67731C25.5573 5.67118 25.7411 5.60378 25.9065 5.49961C26.072 5.39851 26.219 5.26065 26.3783 5.14117C26.5346 5.02475 26.7 4.91752 26.8961 4.8685C26.9941 4.84093 27.0983 4.8348 27.2116 4.85012C27.325 4.86544 27.4475 4.89914 27.5823 4.96041C27.4047 4.83174 27.4537 4.78272 27.5211 4.74289C27.4567 4.72451 27.4108 4.51925 27.3403 4.39977C27.3403 4.39977 27.4537 4.44879 27.567 4.49781C27.6222 4.52231 27.6773 4.54682 27.7202 4.56826C27.76 4.58971 27.7876 4.60197 27.7876 4.60197C27.7325 4.41815 27.8029 4.38139 27.8765 4.34462C27.9469 4.30786 28.0143 4.27722 27.9592 4.10259L27.8948 4.20369C27.8703 3.98004 27.7355 3.77784 27.5762 3.57258C27.4169 3.36732 27.227 3.15592 27.1228 2.90164C27.1351 3.03031 27.0983 3.06401 27.034 3.05482C26.9696 3.04563 26.8808 2.99662 26.7919 2.95679C26.6142 2.87408 26.4304 2.82505 26.4672 3.19881C26.36 3.12835 26.4304 3.01807 26.3446 2.92003C26.3906 3.16206 26.3416 3.24171 26.1516 3.22333L26.1394 3.16205C25.9647 3.29379 25.8085 3.33361 25.6339 3.352C25.4592 3.37038 25.2601 3.37038 25.015 3.43165L25.1866 3.64611C25.0794 3.67062 25.0181 3.60935 24.9415 3.57565C25.0548 3.98924 25.2019 3.44084 25.3428 3.88813C24.9415 3.4868 24.7209 4.25884 24.3073 3.78091C24.1725 3.86363 24.5156 4.01988 24.3808 4.10566L24.2552 3.98617L24.341 4.19144C24.2338 4.21901 24.0745 4.06889 23.9918 3.94941C24.0224 3.94941 24.0316 3.87588 24.0469 3.85137C23.8233 3.7564 23.762 4.11791 23.6885 4.09034H23.8753C23.5965 4.46104 23.039 4.58052 22.895 5.09828L22.993 5.18713C22.8705 5.56089 22.705 5.21776 22.4875 5.50574L22.4814 5.47511C22.4998 5.6191 22.463 5.72632 22.3772 5.76922C22.3619 5.59765 22.0739 5.62829 22.0678 5.42609C21.9391 5.83355 22.0463 5.68649 22.1444 6.20425L21.9789 6.06332C22.031 6.26552 22.0862 6.35131 21.9789 6.4953C21.9851 6.26552 21.6971 6.29923 21.6848 6.01125C21.115 5.85194 21.5317 6.70976 20.9925 6.2594C21.21 6.8323 21.4397 6.33599 21.4397 6.49223C21.6174 6.60252 21.5929 6.92727 21.4673 6.94565C21.3693 7.00386 20.8577 6.45854 20.634 6.64236C20.6585 6.62704 20.634 6.59027 20.6585 6.57496C20.4808 6.51981 20.6126 6.866 20.3583 6.75264C20.5145 7.08045 20.2051 6.84149 20.4655 7.21526L20.6126 6.97016C20.5635 7.15704 20.7749 7.66561 20.4226 7.61047C20.3828 7.52469 20.3675 7.38682 20.3675 7.30104C20.2265 7.23976 20.3093 7.45728 20.1653 7.39294C19.9049 7.01918 20.3613 7.11722 20.2817 6.74345C20.104 6.63929 20.2357 7.19075 20.0029 6.74959C20.2909 7.31942 19.7241 6.85987 19.862 7.35925L19.7057 7.1356C19.7057 7.18768 19.7364 7.33167 19.6843 7.35925L19.5495 7.01612C19.6077 7.35312 19.1451 6.99773 19.1236 7.22138C19.3718 7.01612 19.381 7.43584 19.6108 7.50936C19.525 8.03937 18.995 7.08658 18.7254 7.46034C18.7499 7.39294 19.0041 7.45116 19.0072 7.6074C18.9061 7.61353 18.7529 7.60127 18.6243 7.52162C18.4282 7.74833 18.8326 7.71463 18.8387 7.92296C18.5538 7.72382 18.8111 8.11903 18.7744 8.28141L18.6028 8.06388C18.2321 8.13128 18.8939 8.57245 18.5262 8.59083L18.3853 8.21094L18.324 8.38557L18.1525 8.11903C18.1647 8.40701 18.0851 8.39476 17.9012 8.42846C18.0544 8.55713 18.1984 8.83592 18.0881 8.93396C17.9074 8.86656 17.9686 8.69193 17.8277 8.85431C17.7572 8.68887 17.6592 8.48667 17.892 8.63066C17.843 8.55407 17.8185 8.46522 17.7726 8.39169C17.5704 8.31204 17.5305 8.52649 17.4754 8.57857C17.506 8.56938 17.5397 8.55713 17.5796 8.57857L17.5857 9.06876C17.4846 9.01974 17.4601 8.92783 17.4386 8.84205C17.408 8.90332 17.457 9.02893 17.4019 9.10552C17.2763 8.91557 17.1261 8.73789 17.1598 8.57551L17.0924 8.95234C17.0158 8.888 16.8075 8.83593 16.783 8.75014C16.5747 8.75014 16.7524 9.33836 16.4797 9.33529C16.4981 9.37512 16.5073 9.42108 16.492 9.47623C16.3051 9.56507 15.9926 9.46397 16.0079 9.85305L15.6464 9.62941C15.5606 9.81935 16.1121 9.90513 15.9711 10.2176C15.8854 10.4566 15.6893 10.0062 15.5575 9.96641C15.6035 10.1931 15.723 10.6312 15.3615 10.5087C15.3615 10.4076 15.4411 10.4198 15.4687 10.3555L15.4534 10.3494ZM13.8297 11.9608C13.8235 11.8873 13.7745 11.6943 13.9062 11.7985C14.0747 12.0711 13.9461 11.9823 13.8297 11.9608ZM11.6637 14.7365C11.6269 14.6477 11.6943 14.6476 11.8077 14.6875C11.7923 14.7334 11.7494 14.7549 11.6637 14.7365ZM5.98979 22.6683C5.98979 22.6683 5.98979 22.6591 5.98366 22.656C6.12765 22.6652 6.07557 22.656 5.98979 22.6683ZM5.76308 22.7234C5.77534 22.7663 5.80291 22.7908 5.83661 22.8123C5.79984 22.7541 5.82742 22.7173 5.87644 22.6958C5.81516 22.653 5.76308 22.6376 5.76308 22.7234ZM21.9851 8.39169L21.9085 8.358C21.9299 8.24158 21.9544 8.31204 21.9851 8.39169Z" fill="#695644"/>
</g>
<path d="M11.7065 14.1934C11.7464 14.2209 11.7831 14.2577 11.8199 14.2945C11.8015 14.2485 11.7678 14.2087 11.7065 14.1934Z" fill="#9E3C4B"/>
<path d="M16.4556 9.33234C16.4556 9.33234 16.4586 9.33234 16.4648 9.33234C16.4556 9.31689 16.4463 9.30143 16.437 9.28906L16.4556 9.33543V9.33234Z" fill="#9E3C4B"/>
<path d="M6.38818 18.8487C6.44639 18.8487 6.49847 18.8702 6.54443 18.8977C6.49847 18.8457 6.44639 18.8181 6.38818 18.8487Z" fill="#9E3C4B"/>
<path d="M5.34306 23.8108L5.37983 23.6699C5.34613 23.7251 5.28792 23.6975 5.23584 23.6883C5.28486 23.7312 5.36757 23.7802 5.34306 23.8108Z" fill="#9E3C4B"/>
<path d="M3.33364 23.407C3.34589 23.4437 3.30913 23.4376 3.32139 23.4774L3.41636 23.5632C3.46844 23.4989 3.43167 23.3855 3.33364 23.407Z" fill="#9E3C4B"/>
<path d="M4.60517 23.2453C4.4336 23.0891 4.43054 23.2024 4.3999 23.2974C4.3999 23.2943 4.40603 23.2882 4.41216 23.2852C4.62661 23.5333 4.61742 23.3893 4.60823 23.2453H4.60517Z" fill="#9E3C4B"/>
<path d="M4.39108 23.3164C4.37883 23.344 4.36351 23.3685 4.33594 23.3807C4.42172 23.4818 4.37883 23.3746 4.39108 23.3164Z" fill="#9E3C4B"/>
<path d="M5.69036 23.0136C5.61683 23.0013 5.8803 23.2434 5.79758 23.1943C5.97221 23.4394 5.7455 22.7379 5.69036 23.0136Z" fill="#9E3C4B"/>
<path d="M4.00781 22.7568L4.23452 22.9376L4.10585 22.7354L4.00781 22.7568Z" fill="#9E3C4B"/>
<path d="M4.6637 22.3955L4.50439 22.4415C4.54116 22.4721 4.54729 22.5058 4.54729 22.5395C4.61469 22.4813 4.72497 22.4537 4.6637 22.3955Z" fill="#9E3C4B"/>
<path d="M4.54699 22.5391C4.51023 22.5666 4.48265 22.6034 4.49797 22.6555C4.51329 22.6371 4.54393 22.5911 4.54699 22.5391Z" fill="#9E3C4B"/>
<path d="M4.0874 22.5538L4.16093 22.566L4.24671 22.5078L4.0874 22.5538Z" fill="#9E3C4B"/>
<path d="M5.81882 21.3386L5.87397 21.1701C5.81576 21.0874 5.7453 21.0752 5.72998 21.1456C5.75143 21.2222 5.73304 21.2896 5.81882 21.3417V21.3386Z" fill="#9E3C4B"/>
<path d="M4.92034 21.112C4.99386 21.1243 5.03982 21.1672 5.12253 21.2193L4.87744 20.9619L4.92034 21.112Z" fill="#9E3C4B"/>
<path d="M5.19655 20.7254C5.13834 20.6427 5.16285 20.3608 5.03418 20.5171C5.09239 20.5998 5.03418 20.7683 5.19655 20.7254Z" fill="#9E3C4B"/>
<path d="M7.23997 19.3896L7.2124 19.4203L7.61987 19.84L7.23997 19.3896Z" fill="#9E3C4B"/>
<path d="M7.82818 16.918C7.59534 16.9455 8.03958 17.2121 7.79755 17.2029C7.85882 17.3346 7.99668 17.2121 8.0457 17.3316C8.03038 17.1477 8.13148 17.1661 7.82818 16.921V16.918Z" fill="#9E3C4B"/>
<path d="M8.04541 17.3311C8.04541 17.3617 8.05154 17.3954 8.06379 17.4352C8.06379 17.3862 8.0546 17.3556 8.04541 17.3311Z" fill="#9E3C4B"/>
<path d="M13.082 11.6123L13.1341 11.6858C13.2107 11.7471 13.2383 11.7348 13.2904 11.7073L13.082 11.6123Z" fill="#9E3C4B"/>
<path d="M14.525 10.7471L14.5005 10.7593L14.7578 10.983L14.525 10.7471Z" fill="#9E3C4B"/>
<path d="M15.3188 9.52246C15.2667 9.54697 15.2636 9.64807 15.2085 9.67564C15.2636 9.55003 15.5976 9.83802 15.3188 9.52246Z" fill="#9E3C4B"/>
</g>
<g style="mix-blend-mode:multiply" opacity="0.7">
<path d="M8.47729 5.77258L8.48648 5.68066C8.47423 5.71436 8.47422 5.74501 8.47729 5.77258Z" fill="#9E3C4B"/>
<path d="M8.11279 6.06284L8.17713 6.15475C8.15262 6.09348 8.13117 6.05365 8.11279 6.06284Z" fill="#9E3C4B"/>
<path d="M3.58496 13.8492C3.79635 13.9411 4.09659 14.1127 3.91583 13.9319L3.72589 13.7695C3.7075 13.8461 3.65236 13.8584 3.58496 13.8492Z" fill="#9E3C4B"/>
<path d="M6.10318 9.56131C6.07867 9.54906 6.05722 9.5368 6.03271 9.52148C6.07254 9.60114 6.10931 9.67467 6.14301 9.74207C6.13075 9.68692 6.1185 9.62565 6.10318 9.56131Z" fill="#9E3C4B"/>
<path d="M5.46973 8.74609L5.66886 8.78592C5.61065 8.76141 5.54632 8.74916 5.46973 8.74609Z" fill="#9E3C4B"/>
<path d="M10.2697 3.93357L10.1686 3.68848C10.0767 3.76507 10.1993 3.82941 10.2697 3.93357Z" fill="#9E3C4B"/>
<path d="M0.622284 16.5706C0.747893 16.5859 0.821425 16.5706 0.870443 16.54C0.701942 16.5032 0.496674 16.4052 0.622284 16.5706Z" fill="#9E3C4B"/>
<path d="M10.0492 7.90598C10.0492 7.84778 10.0278 7.79569 9.9941 7.75586C9.99103 7.81407 10.0033 7.86616 10.0492 7.90598Z" fill="#9E3C4B"/>
<path d="M1.03604 16.3775C1.00847 16.3683 0.990087 16.3714 0.965578 16.3652C0.953323 16.4357 0.934942 16.5 0.870605 16.5399C0.996215 16.5674 1.10038 16.5582 1.03604 16.3805V16.3775Z" fill="#9E3C4B"/>
<path d="M14.1816 1.94103C14.1816 1.94103 14.1969 1.94713 14.206 1.95018C14.1908 1.8313 14.1816 1.86178 14.1816 1.94103Z" fill="#9E3C4B"/>
<path d="M2.98193 10.8886C2.98193 10.8886 2.98479 10.8972 2.98479 10.9C2.98765 10.9 2.99337 10.9 2.99623 10.9L2.98193 10.8857V10.8886Z" fill="#9E3C4B"/>
<path d="M3.01497 10.6046C3.1559 10.8957 3.09155 10.9049 2.99658 10.9018L3.53272 11.3828L3.01497 10.6016V10.6046Z" fill="#9E3C4B"/>
<g style="mix-blend-mode:multiply" opacity="0.8">
<path d="M9.28959 4.99585L9.02918 4.92232C8.93421 4.52098 9.11803 4.53324 8.80554 4.38312C9.28959 4.99585 8.40114 4.82734 8.88826 5.44007L8.70444 5.37881C8.73201 5.36655 8.70444 5.32672 8.73201 5.31446C8.33986 5.15515 8.98629 5.83835 8.71976 5.918C8.61559 5.93025 8.49305 5.88124 8.48079 5.77401L8.45628 6.04668C8.4042 6.07119 8.32761 5.9609 8.37969 5.93332L8.19281 6.17535L8.18056 6.15696C8.22651 6.27645 8.27553 6.48477 8.29391 6.57668C8.16524 6.53992 8.2694 6.4909 8.19281 6.42657V6.67779C8.00899 6.5675 7.98448 6.32853 8.08865 6.27645C7.46673 5.7832 8.11315 6.51541 7.56476 6.38674L7.61684 6.20905C7.25227 5.93945 7.26452 6.13859 6.95203 6.04668C7.07764 6.1294 7.67199 6.34385 7.6628 6.60732C7.58621 6.59507 7.51881 6.61651 7.54638 6.80033C7.36563 6.592 7.33805 6.7023 7.2584 6.79421L7.02556 6.50928C6.99799 6.67165 7.12666 6.80952 7.17874 6.98415C7.04701 7.05155 6.83868 6.85548 6.65793 6.69617C6.44654 6.8034 7.07458 6.9382 6.91833 7.16797C6.68243 7.18635 6.67937 7.38549 6.65486 7.70104C6.47104 7.69185 6.52619 7.51722 6.41896 7.4682L6.52312 7.76538C6.49555 7.77763 6.44347 7.70411 6.41896 7.66735C6.41896 7.81747 6.65486 7.9492 6.60278 8.12689C6.83868 8.45777 5.97473 7.89099 6.13098 8.36586C6.02682 8.3199 5.99924 8.18203 5.89508 8.084C5.89508 8.48534 5.87057 8.39955 5.97473 8.84684L5.67756 8.78863C5.96248 8.90505 6.04826 9.26656 6.1126 9.5668C6.23821 9.6342 6.34543 9.69547 6.40364 9.71998L6.35462 10.0263C6.29335 10.0018 6.22595 9.88848 6.15549 9.74755C6.16468 9.78125 6.1708 9.81495 6.17999 9.84253C6.02681 9.79657 5.91652 9.60969 5.82768 9.41668C5.89814 9.45038 5.97167 9.49021 6.0452 9.53004C5.94103 9.32477 5.82155 9.10113 5.66837 8.94795C5.68368 8.99084 5.68675 9.03679 5.67449 9.07356C5.64692 9.01841 5.61935 8.96939 5.58871 8.94795C5.55808 8.92344 5.58871 9.00309 5.62241 9.09806L5.30992 8.82846L5.40796 8.9602L5.00049 8.97859C5.10466 9.43813 5.362 10.0233 5.20882 10.3879C5.07402 10.106 4.89327 10.008 4.66043 9.74143C4.98518 9.95588 4.76153 9.43507 4.95147 9.36767C4.85344 9.40443 4.7554 9.2635 4.73396 9.20223L4.71251 9.68015C4.52256 9.45957 4.51338 9.56374 4.36938 9.5331C4.80136 9.91912 4.43985 9.98346 4.45823 10.204C4.32343 10.0662 4.2162 9.89768 4.36938 9.82109C3.94354 9.61889 4.64511 10.4798 4.26828 10.3266C4.29586 10.2959 4.33262 10.3021 4.27747 10.2194C4.32343 10.4093 4.05995 10.4644 3.98949 10.3021L4.01706 10.2714C3.77197 10.4001 3.41046 10.8168 3.7107 11.2028C3.66781 11.1568 3.34 10.7432 3.28485 10.6605L4.04157 12.1954C3.79035 11.8584 2.99381 11.2304 2.99994 10.9026C2.91109 10.9026 2.80692 10.9025 2.80692 11.1047C2.88045 11.1201 3.29711 11.4785 3.27873 11.5459C2.84369 11.3131 3.02751 11.4387 2.60779 11.2794C2.71808 11.3008 3.10716 11.837 3.01832 11.889C2.96317 11.8063 2.57102 11.4172 2.55264 11.3407L2.8008 11.9901C2.77016 11.8615 2.43622 11.5796 2.27079 11.4846C2.37495 11.5612 2.09922 11.6256 2.0931 11.7205L2.27385 11.7573C1.99506 11.8829 2.68132 12.6182 2.44848 12.7897C2.38414 12.6672 1.95217 12.128 1.7898 12.1709C1.96749 12.4589 2.65681 13.5373 2.64761 13.8957L2.48218 13.7916L2.48831 14.0795C2.23403 13.6353 1.76835 12.6366 1.62743 12.2138C1.44667 12.177 1.45279 12.0698 1.34557 12.1954C1.18319 12.1035 1.22609 11.9381 1.25672 11.8982L0.901339 12.0729C1.17707 12.3425 0.953423 12.5539 1.18626 12.7775L1.21383 12.2046C1.48956 12.4773 1.7898 13.1666 1.54777 13.3014C1.39152 13.234 1.1158 12.7652 1.02389 12.6764C1.08822 12.7959 1.01163 13.0348 0.931977 12.9858L0.873767 12.7561C0.665439 12.753 1.04839 13.2953 0.662375 13.1513C0.601102 13.1758 0.187513 12.9184 0.334567 13.09C0.711396 13.3412 1.66112 14.3185 1.84188 14.6034C1.80512 14.5973 1.31799 14.5176 1.11579 14.4104C0.803301 14.2297 0.65931 13.7088 0.392773 13.5526C0.463237 13.6323 0.512257 13.764 0.524512 13.8099C0.414221 13.7885 0.31925 13.5557 0.248786 13.6874C0.500005 13.9876 0.0190114 13.862 0.42954 13.9723C0.408094 14.15 0.270227 14.0152 0.162999 14.1408C0.374391 14.2879 0.653187 14.8638 0.631741 15.0385C0.567405 14.9619 0.457112 14.8883 0.40503 14.8577C0.17832 15.0262 -0.0545181 15.0017 -0.247528 15.1825C-0.330246 15.1304 -0.501809 15.1365 -0.581464 14.9772C-0.560018 15.0538 -0.49262 15.1733 -0.544701 15.2376C-0.893957 15.1028 -0.45279 15.0722 -0.820427 14.8638C-0.670309 15.0354 -0.753028 15.2345 -0.734646 15.4184C-0.465045 15.6451 -0.495681 15.2805 -0.514063 15.0967C-0.177062 15.4459 0.0343301 15.9484 -0.00549722 16.3007C-0.075961 16.5397 -0.290419 16.1414 -0.272037 16.218C-0.624356 16.4416 0.0710933 17.0635 -0.412962 17.0543C-0.725454 16.9287 -0.848 16.6193 -1.02569 16.4845C-0.9828 16.2762 -0.694817 16.4324 -0.618226 16.3405H-0.826556C-0.857192 16.2272 -0.826554 16.0893 -0.719327 16.1077C-0.995054 15.9882 -1.24934 16.555 -1.65374 16.5948C-1.62004 16.7082 -1.61391 16.8521 -1.49443 16.9073L-1.4546 16.8062C-1.21258 16.9195 -1.34431 17.183 -1.17275 17.1769C-1.14518 17.3944 -1.05633 17.6946 -1.2861 17.7283L-1.56183 17.5047C-1.48524 17.5752 -1.32593 17.566 -1.36576 17.4526C-1.31061 17.618 -1.90496 17.3209 -1.63842 17.7069L-1.37188 17.7866C-1.34125 18.0071 -1.19113 18.387 -1.3872 18.4269C-1.08697 18.6168 -1.3872 18.3717 -1.0165 18.5739C-1.44847 18.289 -0.704008 18.289 -1.19725 18.0286C-0.777535 18.2767 -0.906211 18.0225 -0.511001 18.194C-0.596783 18.1144 -0.707075 18.0776 -0.569211 18.0194C-0.587593 17.9918 -0.609035 17.9489 -0.618226 17.9244C-0.612099 17.9244 -0.609037 17.9244 -0.605973 17.9244C-0.612101 17.9244 -0.615165 17.9244 -0.621292 17.9214C-0.630483 17.906 -0.63048 17.903 -0.627416 17.9214C-0.685626 17.9091 -0.749964 17.8846 -0.802046 17.8448C-0.942974 17.6058 -0.777535 17.4557 -0.823489 17.3056C-0.725453 17.2872 -0.753027 17.425 -0.633545 17.4802L-0.700945 17.2565C-0.511 17.4312 -0.244463 17.4067 -0.275099 17.6518L-0.143365 17.5353C0.0312628 17.566 0.172192 17.5078 0.159938 17.3699C0.257974 17.3515 0.107854 17.0206 0.1967 17.2136L0.282481 16.9073L0.328439 16.9502C0.545957 16.7847 0.432601 16.2547 0.97793 16.3711C0.996311 16.2609 1.01163 16.1383 1.17094 16.0862L1.34557 16.2272C1.3762 16.0893 1.75303 16.1444 1.63049 15.9422C2.13905 16.2884 2.12986 15.642 2.35657 15.5807L2.1605 15.3632C2.27385 15.2774 2.31674 15.1242 2.36576 14.919L2.18194 14.7382C2.14824 14.4809 2.59247 14.6034 2.74871 14.4196C2.80386 14.5023 2.74259 14.5268 2.66906 14.5115C3.27566 14.7382 2.82224 13.7885 3.30323 13.9202C3.28791 13.8069 3.34306 13.7977 3.41965 13.8161C3.41659 13.8191 3.41353 13.8283 3.41965 13.8375C3.42578 13.8375 3.43497 13.8283 3.4411 13.8222C3.49318 13.8345 3.54833 13.8528 3.60041 13.862C3.53913 13.8345 3.48399 13.813 3.45029 13.813C3.48399 13.7732 3.51769 13.6997 3.52688 13.6016L3.73827 13.7824C3.73827 13.7824 3.7444 13.7732 3.7444 13.764C3.86694 13.7885 3.69845 13.6261 3.52688 13.5005C3.52688 13.4423 3.51156 13.378 3.48705 13.3106C3.83325 13.5986 3.52994 13.0685 3.9129 13.3627C3.79342 13.1574 4.06915 12.9797 3.76891 12.5937C3.81486 12.6396 3.85163 12.6458 3.82406 12.6764C3.92209 12.6611 4.02319 12.6458 3.98336 12.4926L4.24684 12.7285L4.06302 12.2567C4.28973 12.3394 4.40615 12.4007 4.50725 12.6733C4.42147 12.1862 4.55933 12.4129 4.44904 11.9564L4.59303 12.1311C4.64511 12.0698 4.53789 11.7604 4.70026 11.8645C5.1261 12.0637 5.40183 11.307 6.01456 11.3008C5.49987 10.8627 6.373 11.3805 6.04213 10.9822C6.16774 11.0833 6.27497 11.1047 6.31173 11.2579C6.3822 10.9853 6.74371 11.2089 6.57214 10.7739C6.69775 10.875 6.68856 10.9822 6.76822 11.0343C6.75903 10.9975 6.73145 10.8811 6.81417 10.9362C6.89382 10.9914 6.87544 11.0588 6.89382 11.1354C7.0562 10.9546 6.74983 10.5747 6.45879 10.2194C6.69469 10.3021 6.7192 10.2377 6.58746 9.95282C6.7192 10.0386 6.87544 10.1091 6.79885 10.2469C6.87544 10.2071 7.32886 10.0723 7.09296 9.79045C7.17262 9.84253 7.20019 9.73224 7.18793 9.68629C7.34418 9.57906 7.37788 9.59131 7.4943 9.44426L7.41771 9.432C7.17874 9.04904 7.46979 9.25431 7.54638 9.11644L7.57395 9.15321C8.04269 9.16852 7.58621 8.94182 8.07946 8.9939L7.88338 8.79782C7.51881 8.32909 8.33986 8.86523 8.33986 8.56499L8.18362 8.49146C8.13154 8.26781 8.93728 8.90506 9.06595 8.88974C9.11803 8.91425 9.09352 8.97551 9.09352 9.0276C9.53469 9.11031 8.88519 8.73042 8.98936 8.53129C9.1456 8.65383 9.27427 8.93875 9.40295 8.87441C9.55919 8.94794 9.30185 8.12689 9.69093 8.2862C9.56226 8.20042 9.43052 8.11463 9.43359 7.96451C9.51324 7.82665 10.1076 8.13302 9.90539 7.68573C9.94521 7.70411 9.97891 7.72862 10.0034 7.75925C10.0126 7.59382 10.1566 7.36404 10.0432 7.12508C10.7387 7.78682 10.2914 6.31322 10.852 6.98722L11.091 6.72681L11.14 6.80033C11.3514 6.70229 11.2779 6.48784 11.2044 6.27645C11.284 6.2887 11.3055 6.37755 11.333 6.41431C11.6976 6.34078 11.7007 6.29177 11.6333 5.78014L11.8355 5.98234C11.7865 5.80465 12.485 6.0283 12.5248 5.56875C12.5432 5.59632 12.5738 5.64227 12.5769 5.68823C12.6473 5.19804 13.7441 5.7587 13.1988 4.87024L13.2264 4.52098C12.9323 4.64965 12.9813 4.14109 12.776 4.08595C12.8342 3.96034 13.2172 4.13496 13.1345 4.26976L13.0854 4.24525C13.3796 4.70174 13.5052 4.15641 13.7257 4.44746C13.9555 4.24525 14.2343 4.11658 14.5131 3.99403C14.7919 3.87149 15.0676 3.75507 15.3005 3.59576L14.9941 3.30166L15.1657 3.20055C15.2668 3.2465 15.4199 3.42114 15.2974 3.4916C15.4996 3.63559 15.3648 3.19136 15.3127 3.11477C15.6375 3.08413 15.5241 3.57125 15.5976 3.5253L15.6712 3.43032L15.6191 3.40582C15.5884 3.21281 15.4873 3.06268 15.6344 2.9769C15.7723 2.9769 15.8335 3.15153 15.8764 3.13927C15.8948 3.16378 15.9132 3.16685 15.9346 3.10864L16.1552 2.98609L15.8764 2.78083C15.8672 2.58476 16.0756 2.65522 15.7569 2.42238C16.241 2.78696 16.6301 2.03637 16.82 2.11908C16.8016 1.8311 16.9303 1.74839 17.1019 1.6626C17.0222 1.63503 16.7833 1.34705 16.9426 1.28884C17.3408 1.95059 17.3807 1.38687 17.8065 1.7637C17.6533 1.64728 17.733 1.5615 17.7973 1.46653C17.8617 1.37155 17.9076 1.26433 17.684 1.10502C17.831 1.08051 17.8555 1.33479 18.0424 1.4267C18.0884 1.21224 18.263 1.15098 18.4591 1.10809C18.5571 1.08664 18.6582 1.06519 18.7532 1.03455C18.8482 1.00392 18.937 0.961031 19.0044 0.887504C18.9554 0.798658 18.8145 0.706741 18.8022 0.535177L19.2526 0.844608C19.2893 0.76189 18.9952 0.314601 19.3046 0.53212C19.2403 0.470847 19.1484 0.382004 19.1729 0.323794C19.3996 0.317667 19.5865 0.250262 19.7519 0.146098C19.9174 0.0449977 20.0644 -0.0928612 20.2207 -0.212343C20.3769 -0.328762 20.5454 -0.435994 20.7384 -0.485012C20.8365 -0.512585 20.9406 -0.518711 21.054 -0.503393C21.1673 -0.488075 21.2929 -0.454379 21.4247 -0.393106C21.247 -0.521779 21.296 -0.570795 21.3634 -0.610622C21.296 -0.629004 21.2501 -0.834264 21.1827 -0.950682C21.1827 -0.950682 21.296 -0.901671 21.4094 -0.852653C21.4645 -0.828144 21.5197 -0.803631 21.5625 -0.782186C21.6024 -0.76074 21.633 -0.748481 21.633 -0.748481C21.5748 -0.932299 21.6483 -0.972135 21.7188 -1.00583C21.7893 -1.0426 21.8567 -1.07323 21.8015 -1.24786L21.7372 -1.14676C21.7127 -1.37041 21.5779 -1.57261 21.4186 -1.77787C21.2592 -1.98313 21.0693 -2.19453 20.9682 -2.44881C20.9805 -2.32014 20.9406 -2.28644 20.8794 -2.29563C20.815 -2.30482 20.7262 -2.35383 20.6373 -2.39672C20.4596 -2.47944 20.2758 -2.52847 20.3126 -2.1547C20.2054 -2.22516 20.2758 -2.33545 20.19 -2.43348C20.236 -2.19146 20.1839 -2.11181 19.997 -2.13325L19.9848 -2.19452C19.8101 -2.06278 19.6539 -2.02296 19.4793 -2.00458C19.3046 -1.98619 19.1055 -1.9862 18.8604 -1.92493L19.032 -1.71047C18.9248 -1.68596 18.8604 -1.74724 18.7838 -1.78094C18.8972 -1.36734 19.0442 -1.91573 19.1882 -1.46844C18.7838 -1.86978 18.5663 -1.09468 18.1527 -1.57567C18.0179 -1.48989 18.361 -1.3367 18.2262 -1.25092L18.1006 -1.3704L18.1864 -1.16514C18.0792 -1.13757 17.9199 -1.28769 17.8372 -1.40717C17.8678 -1.40717 17.877 -1.48069 17.8923 -1.5052C17.6687 -1.60017 17.6104 -1.23866 17.5339 -1.26624H17.7207C17.4419 -0.895536 16.8844 -0.776061 16.7404 -0.258305L16.8384 -0.169457C16.7128 0.204308 16.5504 -0.138824 16.3298 0.152222L16.3207 0.121593C16.339 0.265584 16.3023 0.372809 16.2165 0.4157C16.2012 0.241072 15.9132 0.274774 15.9101 0.0725734C15.7784 0.480038 15.8887 0.332986 15.9867 0.850741L15.8213 0.709807C15.8734 0.912008 15.9285 0.997791 15.8213 1.14178C15.8274 0.912009 15.5425 0.945713 15.5241 0.65773C14.9543 0.498421 15.3709 1.35624 14.8317 0.905885C15.0492 1.47879 15.279 0.982469 15.279 1.13872C15.4567 1.24901 15.4322 1.57376 15.3066 1.59214C15.2055 1.65035 14.6969 1.10502 14.4733 1.28884C14.4978 1.27352 14.4733 1.23676 14.4978 1.22144C14.3201 1.16629 14.4518 1.51248 14.1976 1.39913C14.3538 1.72694 14.0474 1.48798 14.3048 1.86174L14.4518 1.61665C14.4028 1.80353 14.6142 2.3121 14.2619 2.25695C14.2221 2.17423 14.2067 2.0333 14.2067 1.94752C14.0689 1.88625 14.1485 2.10376 14.0076 2.03943C13.7472 1.66566 14.2037 1.7637 14.124 1.38994C13.9433 1.28577 14.0811 1.83723 13.8452 1.39607C14.1332 1.96591 13.5695 1.50636 13.7043 2.00573L13.5481 1.78208C13.5481 1.83416 13.5756 1.97509 13.5266 2.00573L13.3918 1.6626C13.45 1.99961 12.9874 1.64422 12.966 1.86786C13.2141 1.6626 13.2233 2.08232 13.4531 2.15585C13.3673 2.68586 12.8373 1.73307 12.5677 2.10989C12.5922 2.04249 12.8465 2.10071 12.8495 2.25695C12.7484 2.26308 12.5953 2.25083 12.4666 2.17117C12.2705 2.39482 12.6749 2.36418 12.681 2.57251C12.3961 2.37337 12.6535 2.76858 12.6198 2.93095L12.4482 2.71343C12.0775 2.78083 12.7393 3.222 12.3716 3.24038L12.2307 2.86049L12.1725 3.03511L12.0009 2.76858C12.0132 3.05656 11.9335 3.04431 11.7497 3.07801C11.9029 3.20668 12.0469 3.48547 11.9396 3.58351C11.7589 3.51917 11.8171 3.34148 11.6792 3.50385C11.6088 3.33841 11.5107 3.13622 11.7436 3.28021C11.6946 3.20362 11.67 3.11477 11.6241 3.04124C11.4219 2.96159 11.3821 3.17604 11.3269 3.22812C11.3545 3.21893 11.3913 3.20668 11.4311 3.22812L11.4372 3.71831C11.3361 3.66622 11.3116 3.57738 11.2902 3.4916C11.2595 3.55287 11.3085 3.67848 11.2534 3.75507C11.1308 3.56512 10.9777 3.38744 11.0114 3.22506L10.944 3.60189C10.8674 3.53755 10.659 3.48853 10.6345 3.39969C10.4262 3.39969 10.607 3.98791 10.3312 3.98484C10.3496 4.02467 10.3588 4.07062 10.3465 4.12577C10.1597 4.21461 9.84718 4.11352 9.86249 4.5026L9.50099 4.27895C9.41827 4.46583 9.96666 4.55468 9.82573 4.86717C9.73995 5.10614 9.54387 4.65272 9.41214 4.61595C9.45809 4.84266 9.57757 5.28077 9.21607 5.15516C9.21607 5.05406 9.29572 5.06631 9.32636 5.00504L9.28959 4.99585ZM7.66586 6.60732C7.6628 6.53379 7.61072 6.34078 7.74245 6.44495C7.91095 6.71761 7.78228 6.62877 7.66586 6.60732ZM5.49987 9.38298C5.46311 9.29413 5.5305 9.29413 5.64386 9.33396C5.62854 9.37992 5.58565 9.40136 5.49987 9.38298ZM-0.173998 17.3148C-0.173998 17.3148 -0.174 17.3056 -0.180127 17.3025C-0.0361359 17.3117 -0.0882164 17.3025 -0.173998 17.3148ZM-0.40071 17.3699C-0.388455 17.4128 -0.357817 17.4373 -0.327181 17.4587C-0.367008 17.4005 -0.339434 17.3638 -0.287352 17.3423C-0.348625 17.2994 -0.40071 17.2841 -0.40071 17.3699ZM15.8213 3.03818L15.7478 3.00448C15.7692 2.88806 15.7937 2.95852 15.8213 3.03818Z" fill="#695644"/>
</g>
<path d="M5.53955 8.8418C5.57938 8.86937 5.61615 8.90613 5.65291 8.94289C5.63453 8.89694 5.60082 8.85712 5.53955 8.8418Z" fill="#9E3C4B"/>
<path d="M10.2881 3.97981C10.2881 3.97981 10.2912 3.97981 10.2943 3.97981C10.2881 3.96435 10.2788 3.94889 10.2695 3.93652L10.2881 3.98289V3.97981Z" fill="#9E3C4B"/>
<path d="M1.07236 14.0371L1.04785 14.0677L1.45532 14.4875L1.07236 14.0371Z" fill="#9E3C4B"/>
<path d="M1.66426 11.5645C1.43142 11.592 1.87871 11.8586 1.63362 11.8494C1.69489 11.9811 1.83276 11.8586 1.88177 11.978C1.86646 11.7942 1.9645 11.8126 1.66426 11.5675V11.5645Z" fill="#9E3C4B"/>
<path d="M1.87842 11.9785C1.87842 12.0092 1.88454 12.0429 1.8968 12.0827C1.8968 12.0337 1.88761 12.003 1.87842 11.9785Z" fill="#9E3C4B"/>
<path d="M6.91504 6.25879L6.96712 6.33231C7.04678 6.39359 7.07129 6.38133 7.12643 6.35376L6.9181 6.25879H6.91504Z" fill="#9E3C4B"/>
<path d="M8.36107 5.39453L8.3335 5.40679L8.59084 5.63043L8.36107 5.39453Z" fill="#9E3C4B"/>
<path d="M9.1518 4.16895C9.09971 4.19345 9.09665 4.29455 9.0415 4.32213C9.09665 4.19652 9.43059 4.4845 9.1518 4.16895Z" fill="#9E3C4B"/>
</g>
</g>
</svg>
