<svg viewBox="0 0 33 28" fill="none" xmlns="http://www.w3.org/2000/svg">
<path d="M30.2911 22.3539C33.4254 18.6363 33.2569 16.0049 32.4961 13.6462C32.4824 13.6098 32.4642 13.5735 32.4369 13.5371C32.1863 13.7916 32.0086 14.1915 32.0724 14.8233C32.2409 16.5457 31.9038 16.8184 30.2091 19.9906C28.5143 23.1629 23.9357 24.0718 21.4802 24.1627C19.0246 24.2536 15.2069 25.1626 12.4962 24.8899C9.78546 24.6172 7.66703 22.2585 4.86977 21.0814C2.58732 20.1179 1.32082 16.1413 0.933579 14.7051C0.892577 15.5141 0.915352 16.5276 1.14314 17.541C1.65339 19.8089 4.19552 24.7944 10.806 26.5169C17.4164 28.2394 27.1612 26.0624 30.2956 22.3448L30.2911 22.3539Z" fill="#BF5A27"/>
<path d="M1.13889 13.0471C1.13889 13.0471 0.628638 15.1604 1.13889 17.2737C1.64913 19.387 4.19126 24.0363 10.8017 25.6451C17.4122 27.2494 27.157 25.2224 30.2914 21.7548C33.4258 18.2872 33.2572 15.8375 32.4964 13.6379C31.7356 11.4382 1.13889 13.0471 1.13889 13.0471Z" fill="#FAB25B"/>
<path d="M30.2911 21.754C33.4254 18.2864 33.2569 15.8368 32.4961 13.6371C32.4824 13.6053 32.4642 13.5689 32.4369 13.5371C32.1863 13.7734 32.0086 14.1461 32.0724 14.7369C32.2409 16.3412 31.9038 16.5957 30.2091 19.5543C28.5143 22.513 23.9357 23.3583 21.4802 23.4447C19.0246 23.531 15.2069 24.3763 12.4962 24.1218C9.78546 23.8673 7.66703 21.6722 4.86977 20.5724C2.58732 19.6771 1.32082 15.964 0.933579 14.6278C0.892577 15.3823 0.915352 16.3276 1.14314 17.2729C1.65339 19.3862 4.19552 24.0355 10.806 25.6443C17.4164 27.2486 27.1612 25.2216 30.2956 21.754H30.2911Z" fill="#F68A48"/>
<path d="M1.13926 13.334C1.13926 13.334 0.715576 6.84414 5.8864 3.64464C11.0572 0.445138 19.613 0.61785 23.007 1.65405C26.3966 2.69025 31.3988 5.46254 32.5833 11.3434C33.7678 17.2289 24.7018 21.2919 21.8225 21.7282C18.9433 22.1599 13.5173 23.8051 7.24857 20.7783C2.67456 18.5696 1.57207 14.9792 1.14838 13.3386L1.13926 13.334Z" fill="#C96328"/>
<path d="M1.13926 13.0472C1.13926 13.0472 0.715576 6.70729 5.8864 3.5805C11.0572 0.453717 19.613 0.621873 23.007 1.63535C26.3966 2.64883 31.3988 5.35295 32.5833 11.1021C33.7678 16.8512 24.7018 20.8233 21.8225 21.2459C18.9433 21.6686 13.5173 23.2729 7.24857 20.3143C2.67456 18.1555 1.57207 14.6515 1.14838 13.0427L1.13926 13.0472Z" fill="#E97325"/>
<path d="M16.4786 8.57025C12.2052 8.0567 4.52872 11.6152 4.87041 14.8238C5.20754 18.0369 20.8886 22.5999 26.2279 16.5145C31.5673 10.429 19.1938 14.4875 19.8726 11.697C20.5514 8.90655 18.6016 8.82476 16.4831 8.57025H16.4786Z" fill="#F78F35"/>
<path d="M8.94768 17.1285C8.94768 17.1285 8.61054 16.3604 9.22557 15.9014C9.22557 15.9014 9.80872 16.5149 8.94768 17.1285Z" fill="#F8AD73"/>
<path d="M9.83544 16.67C9.83544 16.67 9.5302 15.752 10.2637 15.4111C10.2637 15.4111 10.6008 16.1474 9.83544 16.67Z" fill="#F89A53"/>
<path d="M9.43956 15.4738C9.43956 15.4738 8.73341 15.2921 8.82452 14.4922C8.82452 14.4922 9.47145 14.524 9.43956 15.4738Z" fill="#F89A53"/>
<path d="M9.83548 15.1052C9.83548 15.1052 9.49836 14.4008 10.1407 14.0645C10.1407 14.0645 10.4778 14.5553 9.83548 15.1052Z" fill="#F8AD73"/>
<path d="M10.5738 14.8604C10.5738 14.8604 10.4508 15.7784 11.28 15.8738C11.28 15.8738 11.4349 15.1694 10.5738 14.8604Z" fill="#F8AD73"/>
<path d="M10.6059 16.2373C10.6059 16.2373 10.1139 17.0054 11.0069 17.4008C11.0069 17.4008 11.344 16.6963 10.6059 16.2373Z" fill="#F8AD73"/>
<path d="M7.82222 14.873C7.82222 14.873 7.2163 15.4457 7.69466 16.0547C7.69466 16.0547 8.20491 15.6729 7.82222 14.873Z" fill="#F8AD73"/>
<path d="M8.36453 16.9728C8.36453 16.9728 8.15041 16.1456 7.22559 16.4501C7.22559 16.4501 7.25748 17.0955 8.36453 16.9728Z" fill="#F89A53"/>
<path d="M11.3306 11.7236C11.3306 11.7236 12.137 11.9509 12.1051 12.7144C12.1051 12.7144 11.2577 12.7735 11.3306 11.7236Z" fill="#F8AD73"/>
<path d="M11.1161 12.707C11.1161 12.707 12.0227 13.057 11.8131 13.8387C11.8131 13.8387 11.0295 13.6296 11.1161 12.707Z" fill="#F89A53"/>
<path d="M12.2959 13.1561C12.2959 13.1561 12.8882 12.7289 13.444 13.3061C13.444 13.3061 13.0112 13.7833 12.2959 13.1561Z" fill="#F89A53"/>
<path d="M12.3281 13.6973C12.3281 13.6973 13.0889 13.8836 12.9386 14.5971C12.9386 14.5971 12.3463 14.5471 12.3281 13.6973Z" fill="#F8AD73"/>
<path d="M12.0455 14.4189C12.0455 14.4189 11.4122 13.7417 10.8154 14.3189C10.8154 14.3189 11.2619 14.887 12.0455 14.4189Z" fill="#F8AD73"/>
<path d="M10.9618 13.5702C10.9618 13.5702 10.6794 12.7067 9.80469 13.1385C9.80469 13.1385 10.1373 13.8475 10.9618 13.5702Z" fill="#F8AD73"/>
<path d="M13.8267 12.2705C13.8267 12.2705 13.772 11.4707 13.0294 11.457C13.0294 11.457 13.0021 12.0706 13.8267 12.2705Z" fill="#F8AD73"/>
<path d="M11.8174 11.3748C11.8174 11.3748 12.5964 11.7338 12.9427 10.8294C12.9427 10.8294 12.4233 10.4431 11.8174 11.3748Z" fill="#F89A53"/>
<path d="M8.7517 13.2111C8.7517 13.2111 8.12756 12.6521 8.49658 11.9795C8.49658 11.9795 9.28017 12.2976 8.7517 13.2111Z" fill="#F8AD73"/>
<path d="M9.37542 12.4241C9.37542 12.4241 8.71483 11.7151 9.24786 11.1016C9.24786 11.1016 9.85833 11.6333 9.37542 12.4241Z" fill="#F89A53"/>
<path d="M8.51465 11.5018C8.51465 11.5018 7.79484 11.6245 7.54883 10.861C7.54883 10.861 8.15019 10.6247 8.51465 11.5018Z" fill="#F89A53"/>
<path d="M8.72432 11.0019C8.72432 11.0019 8.12296 10.4974 8.57399 9.9248C8.57399 9.9248 9.08423 10.2338 8.72432 11.0019Z" fill="#F38E4D"/>
<path d="M9.29883 10.475C9.29883 10.475 9.56761 11.3612 10.3603 11.1067C10.3603 11.1067 10.21 10.4023 9.29883 10.475Z" fill="#F8AD73"/>
<path d="M9.89463 11.7158C9.89463 11.7158 9.76252 12.6157 10.742 12.6111C10.742 12.6111 10.7557 11.8294 9.89463 11.7158Z" fill="#F38E4D"/>
<path d="M6.75155 11.625C6.75155 11.625 6.44631 12.3658 7.11146 12.7067C7.11146 12.7067 7.40758 12.1704 6.75155 11.625Z" fill="#F38E4D"/>
<path d="M8.16007 13.3099C8.16007 13.3099 7.62249 12.6464 6.90723 13.3054C6.90723 13.3054 7.20335 13.878 8.16007 13.3099Z" fill="#F89A53"/>
<path d="M11.9541 15.343C11.9541 15.343 12.5691 14.7749 13.2069 15.2021C13.2069 15.2021 12.8151 15.952 11.9541 15.343Z" fill="#F8AD73"/>
<path d="M5.48076 14.4648C5.48076 14.4648 6.25069 15.1147 5.77688 15.8146C5.77688 15.8146 5.07985 15.342 5.48076 14.4648Z" fill="#F89A53"/>
<path d="M5.99984 14.3462C5.99984 14.3462 5.94518 13.619 6.72877 13.4463C6.72877 13.4463 6.911 14.0644 5.99984 14.3462Z" fill="#F89A53"/>
<path d="M6.47852 14.6017C6.47852 14.6017 7.03433 14.0518 7.56736 14.5517C7.56736 14.5517 7.212 15.0289 6.47852 14.6017Z" fill="#F8AD73"/>
<path d="M6.95224 15.2197C6.95224 15.2197 6.04108 15.4061 6.22332 16.215C6.22332 16.215 6.94313 16.1287 6.95224 15.2197Z" fill="#F8AD73"/>
<path d="M9.15756 13.5511C9.15756 13.5511 8.26918 13.3375 8.18262 14.3101C8.18262 14.3101 8.96166 14.401 9.15756 13.5511Z" fill="#F8AD73"/>
<path d="M6.04098 12.5837C6.04098 12.5837 5.32571 12.2155 4.9248 12.8382C4.9248 12.8382 5.43506 13.1836 6.04098 12.5837Z" fill="#F8AD73"/>
<path d="M4.77954 14.6831C4.77954 14.6831 5.4948 14.2104 4.90255 13.4424C4.90255 13.4424 4.30118 13.6833 4.77954 14.6831Z" fill="#F89A53"/>
<path d="M10.9613 12.0057C10.9613 12.0057 10.5285 11.2876 11.0798 10.7559C11.0798 10.7559 11.7358 11.2876 10.9613 12.0057Z" fill="#F8AD73"/>
<path d="M9.29802 19.2051C9.29802 19.2051 8.87432 18.3325 9.56224 17.9053C9.56224 17.9053 9.99049 18.5915 9.29802 19.2051Z" fill="#F89A53"/>
<path d="M8.74716 18.0686C8.74716 18.0686 8.02278 17.9777 8.01367 17.1733C8.01367 17.1733 8.65605 17.1233 8.74716 18.0686Z" fill="#F89A53"/>
<path d="M9.79981 17.3184C9.79981 17.3184 9.79525 18.2455 10.629 18.2318C10.629 18.2318 10.6927 17.5138 9.79981 17.3184Z" fill="#F8AD73"/>
<path d="M14.6153 13.9922C14.6153 13.9922 14.2235 14.8148 15.162 15.0966C15.162 15.0966 15.408 14.3558 14.6153 13.9922Z" fill="#F8AD73"/>
<path d="M7.07105 17.6826C7.07105 17.6826 6.54257 18.328 7.09382 18.8688C7.09382 18.8688 7.55396 18.4234 7.07105 17.6826Z" fill="#F8AD73"/>
<path d="M13.3118 16.6195C13.3118 16.6195 12.9929 15.8242 12.1182 16.2468C12.1182 16.2468 12.2321 16.8831 13.3118 16.6195Z" fill="#F89A53"/>
<path d="M11.2256 17.6232C11.2256 17.6232 11.7632 16.9824 12.4511 17.3278C12.4511 17.3278 12.1595 18.1231 11.2256 17.6232Z" fill="#F8AD73"/>
<path d="M4.07324 15.1367C4.07324 15.1367 5.08464 15.1822 5.13475 16.0229C5.13475 16.0229 4.29192 16.0775 4.07324 15.1367Z" fill="#F89A53"/>
<path d="M5.19381 17.3915C5.19381 17.3915 5.04347 16.678 5.79973 16.4053C5.79973 16.4053 6.05941 16.9961 5.19381 17.3915Z" fill="#F89A53"/>
<path d="M5.7041 17.5827C5.7041 17.5827 6.187 16.9691 6.7747 17.3964C6.7747 17.3964 6.48314 17.9145 5.7041 17.5827Z" fill="#F8AD73"/>
<path d="M14.1772 13.583C14.1772 13.583 13.2979 13.8829 13.5803 14.6646C13.5803 14.6646 14.2819 14.4874 14.1772 13.583Z" fill="#F8AD73"/>
<path d="M9.56697 10.1378C9.56697 10.1378 8.9155 9.96965 9.00206 9.2334C9.00206 9.2334 9.59431 9.26066 9.56697 10.1378Z" fill="#F89A53"/>
<path d="M9.93645 9.8027C9.93645 9.8027 9.62666 9.15279 10.2189 8.84375C10.2189 8.84375 10.5287 9.29369 9.93645 9.8027Z" fill="#F8AD73"/>
<path d="M10.6105 9.57422C10.6105 9.57422 10.4966 10.4195 11.262 10.5059C11.262 10.5059 11.4032 9.85599 10.6105 9.57422Z" fill="#F38E4D"/>
<path d="M11.1113 7.59277C11.1113 7.59277 11.945 7.91091 11.7537 8.63352C11.7537 8.63352 11.0339 8.44264 11.1113 7.59277Z" fill="#F89A53"/>
<path d="M3.30371 12.1472C3.30371 12.1472 3.84585 11.7564 4.36066 12.2836C4.36066 12.2836 3.95974 12.7244 3.30371 12.1472Z" fill="#F89A53"/>
<path d="M12.2236 8.50586C12.2236 8.50586 12.9252 8.67856 12.784 9.33301C12.784 9.33301 12.2373 9.28756 12.2236 8.50586Z" fill="#F8AD73"/>
<path d="M11.9684 9.17398C11.9684 9.17398 11.3852 8.5468 10.834 9.08308C10.834 9.08308 11.244 9.60573 11.9684 9.17398Z" fill="#F8AD73"/>
<path d="M10.9658 8.38811C10.9658 8.38811 10.7061 7.59278 9.9043 7.98817C9.9043 7.98817 10.2095 8.63807 10.9658 8.38811Z" fill="#F8AD73"/>
<path d="M15.0198 13.2977C15.0198 13.2977 14.4457 12.7841 14.7829 12.166C14.7829 12.166 15.5072 12.4569 15.0198 13.2977Z" fill="#F8AD73"/>
<path d="M6.63295 10.2793C6.63295 10.2793 6.35504 10.961 6.96096 11.2746C6.96096 11.2746 7.23431 10.7792 6.63295 10.2793Z" fill="#F5823C"/>
<path d="M8.38699 8.15197C8.38699 8.15197 7.89041 7.53842 7.23438 8.14742C7.23438 8.14742 7.50772 8.67462 8.38699 8.15197Z" fill="#F89A53"/>
<path d="M11.8818 10.0193C11.8818 10.0193 12.4468 9.49663 13.0344 9.89202C13.0344 9.89202 12.6745 10.5828 11.8818 10.0193Z" fill="#F38E4D"/>
<path d="M5.06618 10.252C5.06618 10.252 5.01607 9.58387 5.73588 9.4248C5.73588 9.4248 5.90444 9.9929 5.06618 10.252Z" fill="#F89A53"/>
<path d="M6.84277 9.33888C6.84277 9.33888 7.35757 8.83443 7.84504 9.29345C7.84504 9.29345 7.51703 9.73428 6.84277 9.33888Z" fill="#F5823C"/>
<path d="M9.30765 8.37462C9.30765 8.37462 8.49216 8.1792 8.41016 9.06997C8.41016 9.06997 9.12542 9.15177 9.30765 8.37462Z" fill="#F8AD73"/>
<path d="M4.95677 12.0333C4.95677 12.0333 5.61281 11.597 5.07067 10.8926C5.07067 10.8926 4.51942 11.1107 4.95677 12.0333Z" fill="#F89A53"/>
<path d="M13.6352 10.252C13.6352 10.252 13.2753 11.0064 14.1363 11.27C14.1363 11.27 14.3641 10.5883 13.6352 10.252Z" fill="#F8AD73"/>
<path d="M3.74025 12.9053C3.74025 12.9053 2.92932 13.178 3.19356 13.9006C3.19356 13.9006 3.84047 13.737 3.74025 12.9053Z" fill="#F8AD73"/>
<path d="M14.2595 16.5421C14.2595 16.5421 14.9064 15.9831 14.223 15.2969C14.223 15.2969 13.6581 15.6105 14.2595 16.5421Z" fill="#F89A53"/>
<path d="M7.92188 19.1182C7.92188 19.1182 8.90136 19.1636 8.95603 19.9771C8.95603 19.9771 8.14055 20.0271 7.92188 19.1182Z" fill="#F89A53"/>
<path d="M8.73351 6.83008C8.73351 6.83008 9.54444 7.13912 9.35765 7.83901C9.35765 7.83901 8.65606 7.65268 8.73351 6.83008Z" fill="#F89A53"/>
<path d="M10.2461 18.8503C10.2461 18.8503 10.7746 18.4686 11.2711 18.9867C11.2711 18.9867 10.8839 19.4139 10.2461 18.8503Z" fill="#F89A53"/>
<path d="M15.0342 15.8105C15.0342 15.8105 15.713 15.9787 15.5809 16.615C15.5809 16.615 15.0478 16.5695 15.0342 15.8105Z" fill="#F8AD73"/>
<path d="M13.3254 18.2502C13.3254 18.2502 12.7651 17.7503 13.0976 17.1504C13.0976 17.1504 13.7992 17.4322 13.3254 18.2502Z" fill="#F8AD73"/>
<path d="M4.22346 17.0691C4.22346 17.0691 3.50819 16.7556 3.64031 16.0557C3.64031 16.0557 4.42847 16.1102 4.22346 17.0691Z" fill="#F8AD73"/>
<path d="M18.7061 13.5877C18.7061 13.5877 19.4304 13.1651 19.9589 13.7241C19.9589 13.7241 19.4122 14.3694 18.7061 13.5877Z" fill="#F8AD73"/>
<path d="M19.2617 14.4242C19.2617 14.4242 20.141 14.0152 20.5601 14.7105C20.5601 14.7105 19.8631 15.1286 19.2617 14.4242Z" fill="#F89A53"/>
<path d="M20.4102 13.8919C20.4102 13.8919 20.5149 13.1693 21.3168 13.1738C21.3168 13.1738 21.3578 13.8147 20.4102 13.8919Z" fill="#F89A53"/>
<path d="M20.8203 14.2473C20.8203 14.2473 21.4855 13.8338 21.8909 14.4337C21.8909 14.4337 21.4399 14.8245 20.8203 14.2473Z" fill="#F8AD73"/>
<path d="M21.1481 14.9522C21.1481 14.9522 20.2188 14.934 20.2188 15.7657C20.2188 15.7657 20.9386 15.8384 21.1481 14.9522Z" fill="#F8AD73"/>
<path d="M19.7763 15.1375C19.7763 15.1375 18.9563 14.7376 18.6602 15.6647C18.6602 15.6647 19.3982 15.9192 19.7763 15.1375Z" fill="#F8AD73"/>
<path d="M20.8248 12.2243C20.8248 12.2243 20.187 11.688 19.6357 12.2289C19.6357 12.2289 20.0731 12.6924 20.8248 12.2243Z" fill="#F8AD73"/>
<path d="M18.7928 12.9928C18.7928 12.9928 19.5946 12.6883 19.1846 11.8066C19.1846 11.8066 18.5468 11.9112 18.7928 12.9928Z" fill="#F89A53"/>
<path d="M24.3553 15.3467C24.3553 15.3467 24.2186 16.1738 23.4533 16.2238C23.4533 16.2238 23.2984 15.3921 24.3553 15.3467Z" fill="#F8AD73"/>
<path d="M23.3574 15.2461C23.3574 15.2461 23.1114 16.1823 22.3096 16.0642C22.3096 16.0642 22.428 15.2643 23.3574 15.2461Z" fill="#F89A53"/>
<path d="M23.0381 16.4697C23.0381 16.4697 23.5301 17.0106 23.0153 17.6241C23.0153 17.6241 22.4914 17.2469 23.0381 16.4697Z" fill="#F89A53"/>
<path d="M22.501 16.5605C22.501 16.5605 22.4008 17.3331 21.6719 17.265C21.6719 17.265 21.6582 16.6696 22.501 16.5605Z" fill="#F8AD73"/>
<path d="M21.7493 16.3605C21.7493 16.3605 22.3553 15.6561 21.7083 15.1289C21.7083 15.1289 21.1935 15.6379 21.7493 16.3605Z" fill="#F8AD73"/>
<path d="M22.4781 15.1875C22.4781 15.1875 23.3073 14.8148 22.7788 13.9922C22.7788 13.9922 22.1091 14.4012 22.4781 15.1875Z" fill="#F8AD73"/>
<path d="M24.0908 17.8827C24.0908 17.8827 24.8835 17.7372 24.8152 17.001C24.8152 17.001 24.2002 17.0419 24.0908 17.8827Z" fill="#F8AD73"/>
<path d="M24.7604 15.7959C24.7604 15.7959 24.4871 16.6049 25.4301 16.8503C25.4301 16.8503 25.7582 16.2958 24.7604 15.7959Z" fill="#F89A53"/>
<path d="M22.5879 12.9601C22.5879 12.9601 23.0753 12.2784 23.7861 12.5693C23.7861 12.5693 23.5583 13.3828 22.5879 12.9601Z" fill="#F8AD73"/>
<path d="M23.4395 13.4875C23.4395 13.4875 24.0727 12.7512 24.7424 13.2102C24.7424 13.2102 24.2823 13.8783 23.4395 13.4875Z" fill="#F89A53"/>
<path d="M24.2637 12.533C24.2637 12.533 24.0587 11.8331 24.7921 11.5059C24.7921 11.5059 25.0974 12.0739 24.2637 12.533Z" fill="#F89A53"/>
<path d="M24.7881 12.6873C24.7881 12.6873 25.2209 12.0374 25.8405 12.4146C25.8405 12.4146 25.5899 12.9554 24.7881 12.6873Z" fill="#F38E4D"/>
<path d="M25.3759 13.1924C25.3759 13.1924 24.5194 13.5605 24.8656 14.3149C24.8656 14.3149 25.549 14.0832 25.3759 13.1924Z" fill="#F8AD73"/>
<path d="M24.2046 13.9288C24.2046 13.9288 23.2934 13.9015 23.4073 14.8696C23.4073 14.8696 24.1864 14.7968 24.2046 13.9288Z" fill="#F38E4D"/>
<path d="M23.9411 10.7981C23.9411 10.7981 23.1666 10.5799 22.9023 11.2752C22.9023 11.2752 23.4718 11.507 23.9411 10.7981Z" fill="#F38E4D"/>
<path d="M22.4241 12.3833C22.4241 12.3833 23.0255 11.7743 22.292 11.1426C22.292 11.1426 21.7544 11.4971 22.4241 12.3833Z" fill="#F89A53"/>
<path d="M20.8203 16.3691C20.8203 16.3691 21.4536 16.9145 21.0982 17.5962C21.0982 17.5962 20.3055 17.2917 20.8203 16.3691Z" fill="#F8AD73"/>
<path d="M20.9752 9.85729C20.9752 9.85729 20.4102 10.6935 19.6631 10.3027C19.6631 10.3027 20.0549 9.55734 20.9752 9.85729Z" fill="#F89A53"/>
<path d="M21.1475 10.3601C21.1475 10.3601 21.8627 10.2238 22.127 10.9828C22.127 10.9828 21.5301 11.2327 21.1475 10.3601Z" fill="#F89A53"/>
<path d="M20.9472 10.8604C20.9472 10.8604 21.5577 11.3512 21.1203 11.9329C21.1203 11.9329 20.6055 11.633 20.9472 10.8604Z" fill="#F8AD73"/>
<path d="M20.3867 11.4016C20.3867 11.4016 20.0997 10.5199 19.3115 10.7926C19.3115 10.7926 19.4755 11.497 20.3867 11.4016Z" fill="#F8AD73"/>
<path d="M22.2917 13.4007C22.2917 13.4007 22.4056 12.4963 21.4307 12.519C21.4307 12.519 21.4307 13.3007 22.2917 13.4007Z" fill="#F8AD73"/>
<path d="M22.9114 10.2011C22.9114 10.2011 23.203 9.45125 22.5333 9.12402C22.5333 9.12402 22.2463 9.66486 22.9114 10.2011Z" fill="#F8AD73"/>
<path d="M20.6787 9.18333C20.6787 9.18333 21.23 9.83778 21.9316 9.16516C21.9316 9.16516 21.6263 8.59706 20.6787 9.18333Z" fill="#F89A53"/>
<path d="M24.0361 15.0144C24.0361 15.0144 24.7013 14.5054 25.2935 14.9916C25.2935 14.9916 24.8334 15.7006 24.0361 15.0144Z" fill="#F8AD73"/>
<path d="M16.6748 14.1695C16.6748 14.1695 17.4994 13.656 18.0005 14.2877C18.0005 14.2877 17.3627 14.7876 16.6748 14.1695Z" fill="#F89A53"/>
<path d="M17.7451 13.5019C17.7451 13.5019 17.7542 12.7748 18.556 12.6748C18.556 12.6748 18.6791 13.3065 17.7451 13.5019Z" fill="#F89A53"/>
<path d="M18.6106 14.4561C18.6106 14.4561 17.6858 14.556 17.7951 15.3786C17.7951 15.3786 18.5195 15.3605 18.6106 14.4561Z" fill="#F8AD73"/>
<path d="M22.4596 18.8603C22.4596 18.8603 21.5986 18.5649 21.4209 19.5238C21.4209 19.5238 22.1863 19.6829 22.4596 18.8603Z" fill="#F8AD73"/>
<path d="M17.9456 11.7928C17.9456 11.7928 17.244 11.3384 16.7656 11.9474C16.7656 11.9474 17.2576 12.3518 17.9456 11.7928Z" fill="#F8AD73"/>
<path d="M19.7039 17.8599C19.7039 17.8599 20.4602 17.4554 19.9408 16.6328C19.9408 16.6328 19.3212 16.8146 19.7039 17.8599Z" fill="#F89A53"/>
<path d="M18.4689 15.9053C18.4689 15.9053 19.1705 16.3688 18.9017 17.0869C18.9017 17.0869 18.0771 16.8869 18.4689 15.9053Z" fill="#F8AD73"/>
<path d="M20.1454 8.53809C20.1454 8.53809 20.2138 9.54246 19.3846 9.69244C19.3846 9.69244 19.2388 8.86531 20.1454 8.53809Z" fill="#F89A53"/>
<path d="M18.0273 9.9023C18.0273 9.9023 18.7198 9.67506 19.0752 10.3931C19.0752 10.3931 18.5148 10.7158 18.0273 9.9023Z" fill="#F89A53"/>
<path d="M17.8904 10.4248C17.8904 10.4248 18.5555 10.8338 18.1956 11.4656C18.1956 11.4656 17.6444 11.2338 17.8904 10.4248Z" fill="#F8AD73"/>
<path d="M22.8251 18.3778C22.8251 18.3778 22.4288 17.5371 21.6816 17.9097C21.6816 17.9097 21.9368 18.5869 22.8251 18.3778Z" fill="#F8AD73"/>
<path d="M25.7363 13.4246C25.7363 13.4246 25.832 12.7611 26.57 12.7656C26.57 12.7656 26.6065 13.3565 25.7363 13.4246Z" fill="#F89A53"/>
<path d="M26.1143 13.7521C26.1143 13.7521 26.7247 13.3704 27.1029 13.9248C27.1029 13.9248 26.6883 14.2839 26.1143 13.7521Z" fill="#F8AD73"/>
<path d="M26.4151 14.3975C26.4151 14.3975 25.5586 14.3793 25.5586 15.1474C25.5586 15.1474 26.2192 15.2156 26.4151 14.3975Z" fill="#F38E4D"/>
<path d="M28.4463 14.6748C28.4463 14.6748 28.2185 15.5383 27.4805 15.4292C27.4805 15.4292 27.5898 14.693 28.4463 14.6748Z" fill="#F89A53"/>
<path d="M23.0391 7.43848C23.0391 7.43848 23.4901 7.93385 23.0208 8.50195C23.0208 8.50195 22.5379 8.15655 23.0391 7.43848Z" fill="#F89A53"/>
<path d="M27.6632 15.8779C27.6632 15.8779 27.5675 16.5915 26.9024 16.5278C26.9024 16.5278 26.8887 15.9825 27.6632 15.8779Z" fill="#F8AD73"/>
<path d="M26.97 15.6971C26.97 15.6971 27.5258 15.0517 26.9336 14.5654C26.9336 14.5654 26.4598 15.0335 26.97 15.6971Z" fill="#F8AD73"/>
<path d="M27.64 14.6184C27.64 14.6184 28.4054 14.273 27.9179 13.5186C27.9179 13.5186 27.3029 13.8912 27.64 14.6184Z" fill="#F8AD73"/>
<path d="M23.1982 19.1825C23.1982 19.1825 23.6447 18.5554 24.3007 18.8235C24.3007 18.8235 24.0912 19.5734 23.1982 19.1825Z" fill="#F8AD73"/>
<path d="M25.2712 10.5337C25.2712 10.5337 24.5605 10.3337 24.3145 10.97C24.3145 10.97 24.8384 11.1836 25.2712 10.5337Z" fill="#F5823C"/>
<path d="M27.5848 12.0382C27.5848 12.0382 28.1406 11.4792 27.4618 10.8975C27.4618 10.8975 26.9652 11.2247 27.5848 12.0382Z" fill="#F89A53"/>
<path d="M26.1142 15.7051C26.1142 15.7051 26.6973 16.2095 26.3693 16.8322C26.3693 16.8322 25.6404 16.5549 26.1142 15.7051Z" fill="#F38E4D"/>
<path d="M25.1211 8.97878C25.1211 8.97878 25.7817 8.85152 26.0186 9.55141C26.0186 9.55141 25.4719 9.77865 25.1211 8.97878Z" fill="#F89A53"/>
<path d="M26.2327 10.6387C26.2327 10.6387 26.7931 11.0931 26.3921 11.6249C26.3921 11.6249 25.9184 11.3522 26.2327 10.6387Z" fill="#F5823C"/>
<path d="M27.4675 12.9745C27.4675 12.9745 27.5723 12.1428 26.6748 12.1655C26.6748 12.1655 26.6748 12.8836 27.4675 12.9745Z" fill="#F8AD73"/>
<path d="M23.3398 9.06615C23.3398 9.06615 23.8455 9.6706 24.4925 9.05252C24.4925 9.05252 24.21 8.52987 23.3398 9.06615Z" fill="#F89A53"/>
<path d="M26.0817 17.4734C26.0817 17.4734 25.289 17.2007 25.125 18.0824C25.125 18.0824 25.8312 18.2278 26.0817 17.4734Z" fill="#F8AD73"/>
<path d="M22.3327 7.96194C22.3327 7.96194 21.9682 7.18934 21.2803 7.53019C21.2803 7.53019 21.5126 8.15282 22.3327 7.96194Z" fill="#F8AD73"/>
<path d="M19.8818 18.7915C19.8818 18.7915 20.5105 19.3732 21.121 18.6143C21.121 18.6143 20.7474 18.0916 19.8818 18.7915Z" fill="#F89A53"/>
<path d="M16.6058 12.7979C16.6058 12.7979 16.6741 13.775 15.8677 13.9159C15.8677 13.9159 15.7265 13.1114 16.6058 12.7979Z" fill="#F89A53"/>
<path d="M28.9427 12.2295C28.9427 12.2295 28.724 13.0657 28.0088 12.9612C28.0088 12.9612 28.1136 12.2477 28.9427 12.2295Z" fill="#F89A53"/>
<path d="M17.1346 15.0693C17.1346 15.0693 17.5719 15.5511 17.1163 16.101C17.1163 16.101 16.6471 15.7647 17.1346 15.0693Z" fill="#F89A53"/>
<path d="M20.7019 19.4775C20.7019 19.4775 20.6108 20.1683 19.9639 20.1093C19.9639 20.1093 19.9502 19.5775 20.7019 19.4775Z" fill="#F8AD73"/>
<path d="M18.0732 18.0547C18.0732 18.0547 18.506 17.4457 19.1439 17.7048C19.1439 17.7048 18.9388 18.432 18.0732 18.0547Z" fill="#F8AD73"/>
<path d="M18.2373 8.89775C18.2373 8.89775 18.4697 8.15242 19.1849 8.20695C19.1849 8.20695 19.2168 8.99319 18.2373 8.89775Z" fill="#F8AD73"/>
<path d="M22.6783 2.69357C22.6783 2.69357 22.045 3.24349 21.4209 2.79356C21.4209 2.79356 21.8355 2.05731 22.6783 2.69357Z" fill="#F8AD73"/>
<path d="M21.9768 1.98053C21.9768 1.98053 21.1886 2.54407 20.6465 1.93962C20.6465 1.93962 21.2524 1.39881 21.9768 1.98053Z" fill="#F89A53"/>
<path d="M20.9476 2.71191C20.9476 2.71191 20.9795 3.43907 20.1913 3.58905C20.1913 3.58905 20.0319 2.96642 20.9476 2.71191Z" fill="#F89A53"/>
<path d="M20.4785 2.44363C20.4785 2.44363 19.9045 2.97537 19.3896 2.45726C19.3896 2.45726 19.7587 1.98916 20.4785 2.44363Z" fill="#F8AD73"/>
<path d="M29.8771 7.27479C29.8771 7.27479 29.8999 6.34766 29.0662 6.34766C29.0662 6.34766 28.9887 7.06573 29.8771 7.27479Z" fill="#F8AD73"/>
<path d="M3.59473 10.8833C3.59473 10.8833 3.94552 11.6377 4.67445 11.3787C4.67445 11.3787 4.47399 10.7742 3.59473 10.8833Z" fill="#F8AD73"/>
<path d="M29.5717 9.47464C29.5717 9.47464 28.6332 9.22468 28.7562 8.4248C28.7562 8.4248 29.5581 8.54751 29.5717 9.47464Z" fill="#F89A53"/>
<path d="M28.2602 8.62013C28.2602 8.62013 27.4857 8.5156 27.5541 7.79298C27.5541 7.79298 28.1509 7.77935 28.2602 8.62013Z" fill="#F8AD73"/>
<path d="M28.46 7.86944C28.46 7.86944 29.1615 8.47843 29.6946 7.83307C29.6946 7.83307 29.1889 7.31952 28.46 7.86944Z" fill="#F8AD73"/>
<path d="M29.6348 8.60248C29.6348 8.60248 30.0083 9.43417 30.8284 8.90698C30.8284 8.90698 30.4229 8.2389 29.6348 8.60248Z" fill="#F8AD73"/>
<path d="M2.20946 10.0752C2.20946 10.0752 1.40763 10.3751 1.80854 11.2568C1.80854 11.2568 2.44636 11.1614 2.20946 10.0752Z" fill="#F89A53"/>
<path d="M28.4556 6.94264C28.4556 6.94264 27.9044 7.57436 27.2256 7.21533C27.2256 7.21533 27.5308 6.42908 28.4556 6.94264Z" fill="#F8AD73"/>
<path d="M2.75636 9.20215C2.75636 9.20215 2.27344 9.97475 3.16638 10.3611C3.16638 10.3611 3.49895 9.65208 2.75636 9.20215Z" fill="#F8AD73"/>
<path d="M4.3641 5.73438C4.3641 5.73438 4.8789 6.55698 4.24109 7.0569C4.24109 7.0569 3.73996 6.42063 4.3641 5.73438Z" fill="#F89A53"/>
<path d="M5.0293 6.80176C5.0293 6.80176 5.75823 6.81539 5.85845 7.61072C5.85845 7.61072 5.2252 7.73343 5.0293 6.80176Z" fill="#F89A53"/>
<path d="M4.06838 7.66226C4.06838 7.66226 3.97271 6.73966 3.14355 6.84419C3.14355 6.84419 3.15722 7.56682 4.06838 7.66226Z" fill="#F8AD73"/>
<path d="M25.959 8.57005C25.959 8.57005 26.2597 7.71109 25.2984 7.5293C25.2984 7.5293 25.1344 8.29282 25.959 8.57005Z" fill="#F8AD73"/>
<path d="M26.9658 5.82511C26.9658 5.82511 27.3667 6.57953 28.1913 6.06598C28.1913 6.06598 28.0091 5.44789 26.9658 5.82511Z" fill="#F89A53"/>
<path d="M26.4331 8.93404C26.4331 8.93404 27.2759 8.54319 26.9069 7.79785C26.9069 7.79785 26.2281 8.04781 26.4331 8.93404Z" fill="#F8AD73"/>
<path d="M26.032 5.99805C26.032 5.99805 25.4488 6.62522 26.2051 7.23422C26.2051 7.23422 26.7336 6.86155 26.032 5.99805Z" fill="#F89A53"/>
<path d="M5.74084 5.67093C5.74084 5.67093 4.76135 5.73456 4.62012 4.93014C4.62012 4.93014 5.42649 4.78925 5.74084 5.67093Z" fill="#F89A53"/>
<path d="M25.3399 6.81209C25.3399 6.81209 24.6474 6.71666 24.7112 6.07131C24.7112 6.07131 25.2442 6.05766 25.3399 6.81209Z" fill="#F8AD73"/>
<path d="M26.7742 4.19824C26.7742 4.19824 27.3846 4.63454 27.1204 5.26626C27.1204 5.26626 26.3915 5.06174 26.7742 4.19824Z" fill="#F8AD73"/>
<path d="M11.2715 6.55256C11.2715 6.55256 11.9959 6.1299 12.5243 6.6889C12.5243 6.6889 11.9776 7.33426 11.2715 6.55256Z" fill="#F8AD73"/>
<path d="M13.6402 20.378C13.6402 20.378 13.0479 21.146 12.3555 20.7234C12.3555 20.7234 12.7792 20.0326 13.6402 20.378Z" fill="#F89A53"/>
<path d="M12.9746 6.85285C12.9746 6.85285 13.0794 6.13024 13.8812 6.13479C13.8812 6.13479 13.9222 6.77559 12.9746 6.85285Z" fill="#F89A53"/>
<path d="M10.902 20.8412C10.902 20.8412 11.7357 20.4277 11.3485 19.6914C11.3485 19.6914 10.6788 19.9596 10.902 20.8412Z" fill="#F8AD73"/>
<path d="M17.8135 20.9953C17.8135 20.9953 18.7246 20.9726 18.5561 20.0137C18.5561 20.0137 17.7816 20.1273 17.8135 20.9953Z" fill="#F8AD73"/>
<path d="M13.3893 5.18916C13.3893 5.18916 12.7514 4.65287 12.2002 5.1937C12.2002 5.1937 12.6376 5.65727 13.3893 5.18916Z" fill="#F8AD73"/>
<path d="M11.3572 5.95767C11.3572 5.95767 12.1591 5.65317 11.749 4.77148C11.749 4.77148 11.1112 4.87148 11.3572 5.95767Z" fill="#F89A53"/>
<path d="M15.6258 9.47945C15.6258 9.47945 15.3616 8.68412 16.0176 8.28418C16.0176 8.28418 16.5416 8.95226 15.6258 9.47945Z" fill="#F8AD73"/>
<path d="M16.5602 9.10636C16.5602 9.10636 16.3415 8.16106 17.1069 7.89746C17.1069 7.89746 17.3711 8.66098 16.5602 9.10636Z" fill="#F89A53"/>
<path d="M16.2735 7.87995C16.2735 7.87995 15.5856 7.62999 15.7541 6.84375C15.7541 6.84375 16.3919 6.93464 16.2735 7.87995Z" fill="#F89A53"/>
<path d="M14.7384 20.9953C14.7384 20.9953 14.4696 20.2636 15.1439 19.9863C15.1439 19.9863 15.4355 20.509 14.7384 20.9953Z" fill="#F8AD73"/>
<path d="M17.4675 7.37988C17.4675 7.37988 17.258 8.28429 18.0734 8.45245C18.0734 8.45245 18.2921 7.76619 17.4675 7.37988Z" fill="#F8AD73"/>
<path d="M17.3623 8.75684C17.3623 8.75684 16.7974 9.47491 17.6493 9.95211C17.6493 9.95211 18.0548 9.28403 17.3623 8.75684Z" fill="#F8AD73"/>
<path d="M14.6837 7.11133C14.6837 7.11133 14.0505 7.60672 14.4514 8.22935C14.4514 8.22935 14.9753 7.9112 14.6837 7.11133Z" fill="#F8AD73"/>
<path d="M15.0613 9.27545C15.0613 9.27545 14.9246 8.43013 13.9815 8.64828C13.9815 8.64828 13.9496 9.29363 15.0613 9.27545Z" fill="#F89A53"/>
<path d="M15.1523 5.92596C15.1523 5.92596 15.6398 5.24424 16.3505 5.53511C16.3505 5.53511 16.1227 6.34862 15.1523 5.92596Z" fill="#F8AD73"/>
<path d="M16.0049 6.45231C16.0049 6.45231 16.6381 5.71606 17.3078 6.17508C17.3078 6.17508 16.8477 6.84316 16.0049 6.45231Z" fill="#F89A53"/>
<path d="M16.8291 5.49782C16.8291 5.49782 16.6241 4.79792 17.3576 4.4707C17.3576 4.4707 17.6628 5.0388 16.8291 5.49782Z" fill="#F89A53"/>
<path d="M17.3486 5.64823C17.3486 5.64823 17.7814 4.99833 18.401 5.37554C18.401 5.37554 18.1505 5.91637 17.3486 5.64823Z" fill="#F38E4D"/>
<path d="M15.7218 11.8615C15.7218 11.8615 16.3095 11.1434 15.6489 10.6299C15.6489 10.6299 15.1478 11.148 15.7218 11.8615Z" fill="#F8AD73"/>
<path d="M16.4187 10.6705C16.4187 10.6705 17.2387 10.2751 16.692 9.4707C16.692 9.4707 16.036 9.89337 16.4187 10.6705Z" fill="#F38E4D"/>
<path d="M16.5055 3.76192C16.5055 3.76192 15.731 3.54377 15.4668 4.23911C15.4668 4.23911 16.0363 4.4709 16.5055 3.76192Z" fill="#F38E4D"/>
<path d="M14.9837 5.34326C14.9837 5.34326 15.5851 4.73426 14.8516 4.10254C14.8516 4.10254 14.314 4.45703 14.9837 5.34326Z" fill="#F89A53"/>
<path d="M16.3145 20.387C16.3145 20.387 15.499 20.1961 15.499 19.428C15.499 19.428 16.3418 19.3326 16.3145 20.387Z" fill="#F8AD73"/>
<path d="M13.5357 2.82116C13.5357 2.82116 12.9708 3.6574 12.2236 3.26655C12.2236 3.26655 12.6154 2.52121 13.5357 2.82116Z" fill="#F89A53"/>
<path d="M13.7129 3.32105C13.7129 3.32105 14.4281 3.1847 14.6924 3.94368C14.6924 3.94368 14.0956 4.19364 13.7129 3.32105Z" fill="#F89A53"/>
<path d="M13.5126 3.8252C13.5126 3.8252 14.1231 4.31602 13.6857 4.89775C13.6857 4.89775 13.1709 4.5978 13.5126 3.8252Z" fill="#F8AD73"/>
<path d="M12.9521 4.3625C12.9521 4.3625 12.6651 3.48082 11.877 3.75351C11.877 3.75351 12.041 4.45794 12.9521 4.3625Z" fill="#F8AD73"/>
<path d="M14.8562 6.3616C14.8562 6.3616 14.9701 5.45719 13.9951 5.47991C13.9951 5.47991 13.9951 6.26161 14.8562 6.3616Z" fill="#F8AD73"/>
<path d="M15.4758 3.16206C15.4758 3.16206 15.7674 2.41218 15.0977 2.08496C15.0977 2.08496 14.8107 2.62578 15.4758 3.16206Z" fill="#F8AD73"/>
<path d="M13.2441 2.14915C13.2441 2.14915 13.7954 2.80359 14.497 2.13097C14.497 2.13097 14.1917 1.56288 13.2441 2.14915Z" fill="#F89A53"/>
<path d="M16.0641 9.62932C16.0641 9.62932 15.7087 10.3883 14.957 10.2292C14.957 10.2292 15.0345 9.38845 16.0641 9.62932Z" fill="#F8AD73"/>
<path d="M29.2617 11.6979C29.2617 11.6979 30.0863 11.1843 30.5875 11.816C30.5875 11.816 29.9496 12.3159 29.2617 11.6979Z" fill="#F89A53"/>
<path d="M10.3096 6.46094C10.3096 6.46094 10.3187 5.73377 11.1205 5.63379C11.1205 5.63379 11.2435 6.26551 10.3096 6.46094Z" fill="#F89A53"/>
<path d="M19.0979 20.4277C19.0979 20.4277 19.8724 19.9141 19.394 19.2324C19.394 19.2324 18.7608 19.5824 19.0979 20.4277Z" fill="#F8AD73"/>
<path d="M13.7041 18.9372C13.7041 18.9372 14.6061 18.8008 14.3191 17.8691C14.3191 17.8691 13.5674 18.0827 13.7041 18.9372Z" fill="#F8AD73"/>
<path d="M10.5061 4.75671C10.5061 4.75671 9.80453 4.30223 9.32617 4.91123C9.32617 4.91123 9.8182 5.31571 10.5061 4.75671Z" fill="#F8AD73"/>
<path d="M16.6152 18.5469C16.6152 18.5469 16.1323 19.2559 16.9752 19.7421C16.9752 19.7421 17.4398 19.2922 16.6152 18.5469Z" fill="#F89A53"/>
<path d="M18.6149 19.7091C18.6149 19.7091 17.7812 19.6227 17.6855 18.8637C17.6855 18.8637 18.5101 18.6592 18.6149 19.7091Z" fill="#F8AD73"/>
<path d="M9.72257 3.33984C9.72257 3.33984 9.79091 4.34424 8.96176 4.49421C8.96176 4.49421 8.81597 3.66707 9.72257 3.33984Z" fill="#F89A53"/>
<path d="M10.5918 2.86226C10.5918 2.86226 11.2843 2.63503 11.6396 3.3531C11.6396 3.3531 11.0793 3.67577 10.5918 2.86226Z" fill="#F89A53"/>
<path d="M10.4558 3.38867C10.4558 3.38867 11.1209 3.7977 10.761 4.42942C10.761 4.42942 10.2098 4.19764 10.4558 3.38867Z" fill="#F8AD73"/>
<path d="M13.6084 19.5281C13.6084 19.5281 14.3464 20.0917 14.8385 19.4145C14.8385 19.4145 14.3009 18.9328 13.6084 19.5281Z" fill="#F8AD73"/>
<path d="M18.3008 6.3885C18.3008 6.3885 18.3964 5.72497 19.1345 5.72952C19.1345 5.72952 19.1709 6.32032 18.3008 6.3885Z" fill="#F89A53"/>
<path d="M18.6787 6.71112C18.6787 6.71112 19.2892 6.32937 19.6673 6.88383C19.6673 6.88383 19.2527 7.24286 18.6787 6.71112Z" fill="#F8AD73"/>
<path d="M22.8565 4.18851C22.8565 4.18851 22 4.17033 22 4.93839C22 4.93839 22.6606 5.00657 22.8565 4.18851Z" fill="#F38E4D"/>
<path d="M24.8877 4.46191C24.8877 4.46191 24.6599 5.32542 23.9219 5.21634C23.9219 5.21634 24.0312 4.48009 24.8877 4.46191Z" fill="#F89A53"/>
<path d="M7.9131 6.10742C7.9131 6.10742 8.36413 6.6028 7.89488 7.17089C7.89488 7.17089 7.41196 6.82549 7.9131 6.10742Z" fill="#F89A53"/>
<path d="M24.1007 5.6709C24.1007 5.6709 24.005 6.38442 23.3399 6.32079C23.3399 6.32079 23.3262 5.77543 24.1007 5.6709Z" fill="#F8AD73"/>
<path d="M23.4075 5.48906C23.4075 5.48906 23.9633 4.84371 23.3711 4.35742C23.3711 4.35742 22.8973 4.82553 23.4075 5.48906Z" fill="#F8AD73"/>
<path d="M20.2055 7.57931C20.2055 7.57931 20.9708 7.23392 20.4834 6.47949C20.4834 6.47949 19.8683 6.85215 20.2055 7.57931Z" fill="#F8AD73"/>
<path d="M12.9017 18.9922C12.9017 18.9922 12.797 19.7557 12.0908 19.8193C12.0908 19.8193 11.9314 19.0604 12.9017 18.9922Z" fill="#F8AD73"/>
<path d="M17.8356 3.49366C17.8356 3.49366 17.1249 3.29368 16.8789 3.92995C16.8789 3.92995 17.4028 4.14356 17.8356 3.49366Z" fill="#F5823C"/>
<path d="M20.1502 4.99816C20.1502 4.99816 20.706 4.43915 20.0272 3.85742C20.0272 3.85742 19.5306 4.18465 20.1502 4.99816Z" fill="#F89A53"/>
<path d="M22.5556 5.49805C22.5556 5.49805 23.1387 6.0025 22.8107 6.62513C22.8107 6.62513 22.0818 6.34791 22.5556 5.49805Z" fill="#F38E4D"/>
<path d="M17.6855 1.93971C17.6855 1.93971 18.3461 1.81246 18.583 2.51235C18.583 2.51235 18.0363 2.73959 17.6855 1.93971Z" fill="#F89A53"/>
<path d="M18.7923 3.59863C18.7923 3.59863 19.3526 4.0531 18.9517 4.58483C18.9517 4.58483 18.4779 4.31216 18.7923 3.59863Z" fill="#F5823C"/>
<path d="M20.032 5.93442C20.032 5.93442 20.1367 5.10273 19.2393 5.12546C19.2393 5.12546 19.2393 5.84353 20.032 5.93442Z" fill="#F8AD73"/>
<path d="M15.8994 2.03002C15.8994 2.03002 16.4051 2.63447 17.052 2.01639C17.052 2.01639 16.7696 1.49374 15.8994 2.03002Z" fill="#F89A53"/>
<path d="M13.1114 8.39671C13.1114 8.39671 13.9405 8.26945 13.6763 7.41504C13.6763 7.41504 12.9838 7.61046 13.1114 8.39671Z" fill="#F8AD73"/>
<path d="M9.8727 6.31156C9.8727 6.31156 9.50824 5.53895 8.82031 5.8798C8.82031 5.8798 9.05266 6.50244 9.8727 6.31156Z" fill="#F8AD73"/>
<path d="M16.0228 17.8049C16.0228 17.8049 15.1936 17.5822 15.0068 18.5321C15.0068 18.5321 15.5809 18.8229 16.0228 17.8049Z" fill="#F89A53"/>
<path d="M29.1937 10.3242C29.1937 10.3242 29.262 11.3013 28.4556 11.4422C28.4556 11.4422 28.3144 10.6378 29.1937 10.3242Z" fill="#F89A53"/>
<path d="M21.5033 5.18848C21.5033 5.18848 21.2846 6.0247 20.5693 5.92017C20.5693 5.92017 20.6741 5.20666 21.5033 5.18848Z" fill="#F89A53"/>
<path d="M29.7225 12.5977C29.7225 12.5977 30.1598 13.0794 29.7042 13.6293C29.7042 13.6293 29.235 13.293 29.7225 12.5977Z" fill="#F89A53"/>
<path d="M14.9791 17.5727C14.9791 17.5727 14.7377 16.9183 15.3436 16.6729C15.3436 16.6729 15.6033 17.1364 14.9791 17.5727Z" fill="#F8AD73"/>
<path d="M17.9679 17.624C17.9679 17.624 17.8677 18.3648 17.1843 18.4284C17.1843 18.4284 17.0294 17.6876 17.9679 17.624Z" fill="#F8AD73"/>
<path d="M5.90918 8.26592C5.90918 8.26592 6.14153 7.52058 6.85679 7.57512C6.85679 7.57512 6.88867 8.36135 5.90918 8.26592Z" fill="#F8AD73"/>
<path d="M7.05266 3.97168C7.05266 3.97168 7.12099 4.97607 6.29184 5.12605C6.29184 5.12605 6.14606 4.2989 7.05266 3.97168Z" fill="#F89A53"/>
<path d="M4.95216 7.80176C4.95216 7.80176 5.40319 8.29713 4.93395 8.86523C4.93395 8.86523 4.45102 8.51983 4.95216 7.80176Z" fill="#F89A53"/>
<path d="M7.20278 6.9434C7.20278 6.9434 6.83831 6.17078 6.15039 6.51164C6.15039 6.51164 6.38273 7.13427 7.20278 6.9434Z" fill="#F8AD73"/>
<path d="M3.23926 8.89775C3.23926 8.89775 3.4716 8.15242 4.18686 8.20695C4.18686 8.20695 4.21875 8.99319 3.23926 8.89775Z" fill="#F8AD73"/>
</svg>
