<svg viewBox="0 0 33 38" fill="none" xmlns="http://www.w3.org/2000/svg">
<path d="M10.7887 31.5275C8.83531 29.2501 7.78224 26.2935 7.43686 23.3145C7.09149 20.3355 7.41613 17.3074 7.96906 14.356C8.6159 10.8921 9.62003 7.40356 11.711 4.56578C12.5078 3.48433 13.542 2.4588 14.8622 2.19366C15.5143 2.06246 16.178 2.13931 16.7999 2.36589C17.5991 2.66127 18.3209 3.20927 18.8282 3.8947C19.3677 4.61914 19.6988 5.47872 19.8595 6.37648C19.9681 6.97897 20.0029 7.60307 19.9784 8.21572C19.9729 8.36177 19.9634 8.50597 19.9478 8.65247C19.8323 10.0165 19.4522 11.3522 19.0734 12.6736C18.4797 14.736 17.8662 16.8093 17.6747 18.9463C17.4852 21.0792 17.7415 23.311 18.7992 25.176C19.3213 26.0956 20.0184 26.8999 20.6741 27.7304C21.0587 28.2129 21.4319 28.7101 21.7458 29.2403C22.6016 30.6792 22.9534 32.6516 21.8996 33.9554C21.7963 34.0877 21.682 34.2003 21.5594 34.3092C20.7923 34.9782 19.6902 35.2313 18.6528 35.2607C15.6493 35.3379 12.736 33.8072 10.7786 31.528L10.7887 31.5275Z" fill="#D85F27"/>
<path d="M10.7885 31.5275C8.8352 29.2501 7.78213 26.2934 7.43675 23.3144C7.09138 20.3354 7.41602 17.3074 7.96895 14.356C8.61579 10.892 9.61992 7.40354 11.7109 4.56576C12.5077 3.48431 13.5419 2.45878 14.8621 2.19363C15.5142 2.06244 16.1779 2.13929 16.7998 2.36586C16.3194 2.44462 15.8534 2.61385 15.448 2.86938C14.1179 3.71411 13.3521 5.20519 12.7508 6.66038C11.0718 10.7549 10.2348 15.1935 10.3044 19.6189C10.364 23.2529 11.0891 27.0042 13.2012 29.9608C15.1134 32.6208 18.3359 34.4916 21.5611 34.305C20.794 34.9741 19.6919 35.2272 18.6545 35.2566C15.651 35.3338 12.7378 33.8031 10.7803 31.5238L10.7885 31.5275Z" fill="#B54C26"/>
<path d="M18.2731 28.1442C15.018 26.4469 13.1113 22.76 12.8763 19.0976C12.6372 15.4334 13.8658 11.807 15.6191 8.58175C16.2987 7.32951 17.3217 5.97243 18.7468 6.0062C19.1624 6.01749 19.5413 6.15601 19.8675 6.37997L19.9558 8.65596C19.8403 10.02 19.4602 11.3557 19.0815 12.6771C18.4877 14.7395 17.8742 16.8128 17.6828 18.9498C17.4932 21.0826 17.7496 23.3145 18.8072 25.1795C19.3293 26.0991 20.0264 26.9034 20.6821 27.7339C20.4352 28.134 20.0643 28.4345 19.5991 28.4903C19.138 28.5479 18.6819 28.3603 18.2731 28.1442Z" fill="#E87625"/>
<path d="M18.9157 7.48654C17.4803 8.02224 16.0229 8.563 14.7801 9.45637C15.5784 9.687 16.4528 9.63471 17.2178 9.31609C17.9827 8.99747 18.6383 8.41252 19.0384 7.68947C19.0779 7.62286 19.1012 7.51447 19.0328 7.47914C18.9956 7.46262 18.9556 7.47458 18.9198 7.48837L18.9157 7.48654Z" fill="#81311A"/>
<path d="M18.2205 14.2057C18.068 14.1479 17.9073 14.2646 17.7824 14.3676C16.43 15.4745 14.6392 16.0306 12.8971 15.8859C13.1214 16.2725 13.5555 16.5097 13.9983 16.5825C14.4392 16.6594 14.8938 16.594 15.3287 16.4951C16.0161 16.34 16.6897 16.1045 17.3234 15.7919C17.8344 15.5437 18.3793 15.1522 18.408 14.5859C18.4153 14.4357 18.3647 14.2598 18.2246 14.2076L18.2205 14.2057Z" fill="#81311A"/>
<path d="M17.3139 23.5713C17.5072 23.4146 17.6954 23.2359 17.7757 22.9993C17.8559 22.7628 17.7772 22.4606 17.5517 22.3556C16.1552 23.5618 14.3282 24.2552 12.4829 24.2873C13.2207 24.7434 14.1416 24.8651 14.9948 24.7045C15.848 24.5438 16.6405 24.1186 17.3098 23.5695L17.3139 23.5713Z" fill="#81311A"/>
<path d="M19.2042 29.7046C19.6268 29.0757 19.9833 28.3283 19.8379 27.5858C19.5014 28.9012 18.5063 30.0283 17.239 30.5198C16.8629 30.6646 16.4253 30.7921 16.2454 31.1527C16.7911 31.3949 17.4483 31.2857 17.9648 30.9806C18.4813 30.6754 18.8747 30.2017 19.2042 29.7046Z" fill="#81311A"/>
</svg>
