<svg viewBox="0 0 75 76" fill="none" xmlns="http://www.w3.org/2000/svg">
<path d="M55.2062 46.1217C54.8839 45.7695 54.2597 45.3333 53.6671 44.8724C53.8034 44.7312 53.9146 44.5327 54.0035 44.2647C54.0136 44.2221 53.9856 44.177 53.9429 44.1669C52.8723 43.9592 52.5183 42.5144 51.2626 42.3272C50.3235 42.1891 49.5464 42.7828 49.5233 43.7534C49.5016 44.8271 50.1792 45.719 50.903 46.442C51.3511 46.8881 52.4558 47.5789 52.8953 48.2798C52.3765 47.9969 52.0262 47.8179 51.5863 47.4187C50.8925 46.7863 50.0576 45.9343 49.0364 46.008C48.6175 46.0376 48.2446 46.3092 48.0764 46.6676C47.2434 46.516 46.4441 47.2585 46.6565 48.2397C46.7651 48.7341 46.958 49.1713 47.2053 49.5957C46.4964 49.6275 45.843 50.1604 45.6711 50.9161C45.2341 50.6139 44.6945 50.4738 44.2021 50.5695C44.1907 50.509 44.1867 50.4439 44.1692 50.3819C44.0233 49.7182 43.7154 49.3052 43.2486 48.8291C41.873 47.4321 39.2316 48.9729 39.9502 50.8634C40.5631 52.4656 40.6676 53.7682 42.3631 54.6819C43.1221 55.0922 43.9712 55.0935 44.6916 54.7947C45.5941 55.1425 46.6103 54.9263 47.4118 54.3385C48.2619 54.8537 49.5201 54.6754 49.6659 53.4576C49.6892 53.3861 49.7186 53.316 49.7419 53.2444C50.0439 53.2193 50.2992 53.119 50.5129 52.9768C50.8087 53.0595 51.1393 53.0219 51.4337 52.8923C52.3137 52.4899 52.6268 51.9537 52.614 51.3535C53.8198 51.7793 55.1469 51.4182 55.8682 50.1885C56.7039 48.774 56.2505 47.2864 55.1987 46.1263L55.2062 46.1217Z" fill="#618A3C"/>
<path d="M52.0106 14.5325C51.6134 14.0342 51.6382 13.3016 51.4931 12.6895C51.2613 11.7358 50.5568 10.9852 49.7003 10.5519C49.0563 10.2266 48.2825 10.1789 47.5819 10.3667C47.311 9.33319 46.6011 8.63271 45.5064 8.33589C43.4985 7.79149 42.2717 9.14589 41.3248 10.6498C41.0068 10.3886 40.6698 10.1806 40.2678 10.1115C39.123 9.91838 38.2164 10.2696 37.5045 11.1868C36.9942 11.8498 36.2202 15.4301 37.9891 15.0512C38.1178 15.0238 38.2204 14.971 38.3136 14.9031C38.5706 15.1499 38.8937 15.3353 39.2913 15.4227C39.8969 15.6106 40.5036 15.7665 41.1042 15.9211C41.6226 16.2874 42.2167 16.5239 42.837 16.6767C43.3816 17.2868 43.8178 18.0833 44.1903 18.6592C44.8312 19.6516 46.2959 20.1256 47.3294 19.3999C48.1087 18.8517 48.5713 18.582 49.5294 18.6668C50.6563 18.7722 51.332 18.0904 51.5616 17.2263C52.3376 16.5554 52.729 15.4148 52.0181 14.5279L52.0106 14.5325ZM44.7597 12.1281C44.7597 12.1281 44.7353 12.1224 44.7231 12.1195C44.7801 12.0687 44.7819 12.0884 44.7597 12.1281Z" fill="#618A3C"/>
<path d="M22.3237 37.5087C20.6754 35.386 18.3802 33.2776 15.8291 32.3353C14.6506 31.9032 13.0051 32.1956 12.1511 33.1692C11.0314 32.8151 10.0433 34.3029 11.173 35.1602C11.2497 35.2168 11.3082 35.2691 11.3605 35.32C11.3687 35.4761 11.3892 35.635 11.4307 35.7861C11.0327 36.1096 9.4858 36.0656 9.06735 36.121C8.19099 36.2353 7.68675 36.7906 7.46108 37.6106C7.36565 37.9606 7.61087 38.2303 7.91779 38.3477C8.57429 38.5925 9.21397 38.6086 9.86262 38.6139C9.82172 38.7327 9.79302 38.8544 9.7765 38.9789C9.29454 39.2762 8.7803 39.5465 8.60816 39.7307C8.21295 40.1511 8.36274 40.7708 8.81485 41.0637C9.47992 41.4903 10.0698 41.5267 10.6836 41.434C10.4899 42.2552 10.3883 43.1495 10.6757 43.731C11.0898 44.5672 12.247 46.0988 13.1803 46.3704C14.0526 46.6276 14.7963 46.4756 15.6401 46.1995C16.4067 45.9501 17.0094 46.3685 17.7455 46.5486C19.2895 46.9322 20.227 45.6315 19.8977 44.3273C21.5284 44.5066 23.0596 43.635 23.582 41.8575C24.0405 40.2961 23.2533 38.7234 22.3162 37.5134L22.3237 37.5087ZM9.31135 37.2959C9.22171 37.294 9.1335 37.2861 9.04386 37.2842C9.15073 37.2131 9.27444 37.1524 9.40748 37.1067C9.36121 37.1664 9.33323 37.2304 9.31135 37.2959Z" fill="#7C9D3E"/>
<path d="M67.5392 35.6629C66.9782 35.1773 66.4955 35.0955 67.2601 34.5824C67.8651 34.1729 68.4546 33.8561 68.7502 33.1489C69.3779 31.6338 68.1354 30.0821 66.7865 29.5262C66.4581 29.3909 66.1164 29.2846 65.7776 29.1661C65.7058 29.1428 65.6252 29.1302 65.5416 29.1297C65.5746 29.099 65.6062 29.0743 65.6331 29.0421C66.3223 28.9029 67.0326 28.8651 67.7153 28.6987C68.7886 28.4318 69.9133 27.0468 68.8094 26.08C68.2974 25.6317 67.6875 25.353 67.0206 25.2342C66.7496 25.183 66.4641 25.1928 66.1909 25.2053C66.3516 24.6332 65.9111 23.9642 65.3399 23.8487C63.8823 23.5626 62.5015 23.7697 61.0489 23.9535C60.7244 23.9925 60.4081 24.1876 60.2051 24.4479C59.6722 24.5791 59.1473 24.7313 58.6148 24.8882C58.6142 24.0726 57.9538 23.2168 57.1546 23.086C55.1922 22.7578 53.4215 23.5537 52.4166 24.9219C50.3182 25.0882 49.7305 27.197 50.101 28.954C50.4632 30.6641 52.3195 31.0058 53.6291 30.3644C54.0908 31.2439 55.114 32.0889 55.7464 32.6812C56.5251 33.4172 57.4741 34.1677 58.5039 34.6033C58.5436 34.7347 58.5985 34.8568 58.682 34.9664C59.2542 35.705 59.9318 36.0511 60.8289 36.0124C60.7042 36.1049 60.5915 36.2004 60.503 36.2758C59.0972 37.543 58.6815 40.341 60.9583 41.0002C62.5123 41.4504 64.0019 40.4277 64.9882 39.2477C65.071 39.3057 65.1538 39.3638 65.2366 39.4219C66.1046 40.0248 67.9343 40.4244 68.4896 39.162C69.0714 37.8416 68.5937 36.5666 67.5421 35.6507L67.5392 35.6629Z" fill="#7C9D3E"/>
<path d="M61.2153 20.1396C60.7439 19.5468 60.0924 19.0078 59.4069 18.6406C59.4352 18.6023 59.4589 18.5565 59.4765 18.5093C59.4707 18.5336 59.4722 18.5275 59.4991 18.4954C59.6346 18.3026 59.6039 18.0513 59.5644 17.8365C59.5526 17.7503 59.5197 17.6719 59.4716 17.6027C59.4795 17.6238 59.1468 17.1793 59.3867 17.4992C59.1777 17.2123 58.8202 17.0637 58.4878 17.1908C58.438 16.9928 58.3623 16.7952 58.2505 16.6147C57.3278 15.1255 55.8655 15.4868 54.7595 16.356C54.7459 16.2501 54.7323 16.1441 54.7126 16.0367C54.6875 15.9794 54.6624 15.9221 54.6359 15.8709C54.4893 15.7015 54.4753 15.6789 54.6 15.8047C54.5398 15.5144 54.1831 15.4174 53.9432 15.5341C53.9098 15.5391 53.869 15.5487 53.8084 15.5601C53.7026 15.5994 53.6075 15.6476 53.5204 15.7169C53.2855 15.867 53.0467 16.0611 52.8365 16.2426C52.4539 16.5826 52.1078 17.0403 52.0145 17.5449C51.7853 17.6706 51.5609 17.8038 51.3503 17.9596C51.1579 17.5482 50.8843 17.2076 50.571 16.8447C49.7561 15.9075 48.6572 15.5198 47.6254 16.3744C46.9046 16.9749 46.1137 16.4543 45.2901 16.3178C45.2718 16.3135 45.2535 16.3092 45.2367 16.2988C45.0581 16.0191 44.8588 15.773 44.6154 15.5229C44.258 15.156 43.6817 15.2255 43.3339 15.5544C43.2094 15.6727 43.0986 15.7879 42.9878 15.903C42.9042 15.9026 42.8268 15.9035 42.7418 15.9092C39.9615 16.0751 40.0777 20.3278 42.4983 20.4045C42.5578 20.9708 42.7682 21.4699 43.0384 22.0153C43.1729 22.291 43.2772 22.4761 43.3614 22.6373C43.2387 23.2119 42.937 23.8086 42.781 24.2791C42.3638 25.5291 42.0979 26.847 42.3802 28.1593C43.1076 31.5673 47.7345 31.5931 48.6455 28.2506C48.7018 28.0392 48.7459 27.8248 48.7703 27.6123C49.6948 27.2396 50.5483 26.5677 51.2465 25.9812C51.32 25.915 51.3935 25.8489 51.4671 25.7828C51.8399 25.9478 52.2394 26.0549 52.6862 26.0704C53.4915 26.0935 54.2829 25.8757 54.9979 25.5178C55.1338 25.46 55.259 25.3932 55.3795 25.3189C55.9359 25.5786 56.4723 25.596 56.9321 25.4476C57.8212 25.8244 59.0024 25.6728 59.411 24.6776C59.5785 24.2676 59.7069 23.7778 59.7819 23.269C59.8741 23.2329 59.9663 23.1969 60.0584 23.1608C61.2862 22.6479 62.2094 21.408 61.2171 20.1593L61.2153 20.1396Z" fill="#55813A"/>
<path d="M59.4697 17.583C59.4697 17.583 59.4683 17.5889 59.4729 17.5962C59.4729 17.5962 59.4729 17.5962 59.4697 17.583Z" fill="#55813A"/>
<path d="M43.9874 23.0939C43.6508 20.5936 46.5527 18.0035 45.6115 15.7201C45.7446 15.2378 45.6077 14.6725 45.081 14.3685C44.0506 13.7721 43.4506 12.1151 42.0027 12.3065C41.0005 12.436 39.9691 13.2072 39.2264 13.9823C39.0113 13.3665 39.019 12.7069 38.6964 12.1107C37.9217 10.6757 36.5259 10.3464 35.0367 10.6307C34.9457 10.4166 34.8198 10.2135 34.7066 10.0391C34.1696 9.20604 32.9949 9.27562 32.4988 10.0961C32.4171 10.2245 32.3507 10.3694 32.2951 10.5232C32.2385 10.4906 32.1818 10.4579 32.1191 10.4239C31.9341 10.3353 31.7702 10.2388 31.563 10.1899C31.1485 10.0921 30.8171 10.1873 30.4596 10.3662C29.8697 10.6573 29.6795 11.5178 29.7766 12.17C29.7418 12.1811 29.7146 12.1875 29.6784 12.2046C29.2932 12.3642 28.7822 12.7573 28.2712 13.0413C27.8006 11.7359 26.852 10.4654 26.1225 9.65753C25.8525 9.35624 25.5517 9.13116 25.2366 8.96689C24.8839 8.1709 23.8789 7.54848 23.0754 7.32678C22.4655 7.15719 21.6407 7.59829 21.5542 8.26496C21.5169 8.53228 21.4856 8.80102 21.4619 9.06513C21.4759 9.19685 21.4837 9.32713 21.4991 9.45277C21.1667 9.47066 20.4446 9.20397 20.1979 9.1586C19.7777 9.08514 19.2233 9.3075 19.1662 9.7949C19.0621 10.618 19.3493 11.1737 19.9193 11.7577C20.7804 12.6352 20.7588 13.0539 19.5863 13.3872C18.4334 13.7188 17.0514 14.6128 17.5783 15.4884C17.0769 16.2499 16.801 17.1736 16.826 18.1042C16.7959 18.1228 16.7779 18.1443 16.7417 18.1614C16.1206 18.5029 16.5623 19.1401 17.0194 19.2479C17.0384 19.3038 17.0452 19.3567 17.0656 19.4065C17.2409 19.8909 17.8275 20.0229 18.2137 19.8315C19.2419 20.7099 21.1201 20.6586 22.0085 19.3206C22.299 19.3442 22.9056 19.5002 23.204 19.5449C24.114 19.6698 25.0193 19.8962 25.892 20.1792C27.0455 20.5541 28.2162 20.856 29.3825 21.1762C28.8579 23.5631 31.4143 25.2194 33.4615 24.0971C34.0148 23.7974 34.476 23.4247 34.8712 23.0042C35.043 23.0126 35.2162 23.015 35.3908 23.0112C35.4302 23.0077 35.4636 23.0027 35.503 22.9992C35.3845 24.3197 35.3534 25.5966 35.6555 26.9072C35.998 28.4008 37.3784 29.4778 38.8915 29.5009C39.045 29.505 39.1967 29.4894 39.3422 29.4724C39.7631 30.1432 40.2668 30.7629 40.83 31.2939C41.3932 31.8249 42.432 32.0315 43.0904 31.5319C46.1852 29.1606 44.3885 26.1938 43.9706 23.0835L43.9874 23.0939ZM41.4686 17.6515C41.3976 17.7888 41.3266 17.9262 41.2617 18.065C41.2262 18.1337 41.1968 18.2038 41.1674 18.2739C41.0017 18.1577 40.8242 18.0645 40.6382 18.0078C40.6159 17.9383 40.5937 17.8688 40.5715 17.7994C40.867 17.7471 41.1685 17.6962 41.4733 17.659L41.4686 17.6515ZM22.2388 18.9447C22.2772 18.8639 22.3109 18.7755 22.3385 18.6857C22.3155 18.783 22.2833 18.8653 22.2388 18.9447Z" fill="#7C9D3E"/>
<path d="M62.2671 39.7614C63.1045 39.3489 63.9049 38.3563 64.3206 37.7672C65.2639 36.4422 63.8241 35.0173 62.84 33.9246C63.2968 33.7884 63.4371 33.1665 62.9807 32.8919C62.5458 32.6352 62.1152 32.4694 61.6014 32.438C61.2016 32.4143 60.8097 32.4117 60.4073 32.426C59.6314 32.4419 59.5253 32.128 58.9276 31.9612C58.4687 31.8337 58.0223 31.7348 57.5597 31.677C57.8262 31.3931 58.1827 30.9186 58.5183 30.8051C59.12 30.6004 59.3374 29.9517 59.0474 29.4081C58.7746 28.9007 58.3039 28.6869 57.7908 28.4887C57.632 28.4256 57.1386 28.3348 56.7424 28.2414C56.6725 28.1285 56.6011 28.0218 56.5162 27.9183L56.3907 27.6318C56.4119 27.5148 56.3165 27.4281 56.2014 27.4523C56.1666 27.4634 56.1272 27.4669 56.0938 27.4719C56.0616 27.445 56.0354 27.4196 56.0031 27.3927C55.6665 27.1013 55.2272 27.1903 54.9876 27.5512C54.9758 27.5741 54.964 27.597 54.9536 27.6138C54.6115 27.7 54.2289 27.9308 53.866 28.0507C53.7387 28.072 53.6053 28.0919 53.4766 28.1193C53.4127 28.1171 53.3489 28.1149 53.2894 28.0944C52.8792 27.9784 52.0383 28.2423 51.3362 28.3271C51.2968 28.1123 51.2377 27.8993 51.1674 27.6515C50.9367 26.8843 51.934 25.9574 52.474 25.5775C53.1629 25.0851 52.9354 23.7856 51.954 23.8816C51.0909 23.9669 50.5376 24.3757 49.8659 24.9043C49.053 25.5409 48.0246 25.5358 47.1636 26.1032C46.2663 26.6877 46.1618 27.8125 45.2155 28.3598C44.1787 28.9628 43.9921 27.9812 43.5017 27.2234C42.5273 25.7349 41.0077 25.6846 39.7855 26.9373C39.438 27.292 39.2773 27.7549 39.2278 28.2377C38.8813 28.6696 38.6288 29.1944 38.4674 29.715C38.284 30.301 38.1656 30.8574 38.1336 31.4021C37.9504 31.3332 37.7794 31.2671 37.6403 31.2022C36.9049 30.8553 35.7585 31.3233 35.8931 32.2797C35.9673 32.8109 36.0938 33.2839 36.2845 33.7848C36.3773 34.0186 36.3593 34.3675 36.6322 34.3292C36.4063 34.3593 36.1746 34.3047 35.9523 34.2651C34.9079 34.0828 33.5632 34.1637 33.0148 35.2608C32.4796 36.3289 32.7426 37.5596 33.2717 38.5899C33.3527 38.7374 33.4262 38.8896 33.4997 39.0418C33.5269 39.2537 33.5373 39.3461 33.5423 39.3794C33.5387 39.34 33.5194 39.2584 33.5058 39.2616C33.0055 39.3362 32.5222 39.4212 32.051 39.6182C31.3926 39.8995 31.0407 40.5999 31.4311 41.2635C31.6659 41.6593 31.9459 42.0271 32.2033 42.4089C32.2467 42.4706 31.4412 43.3208 31.1894 43.5696C30.2423 44.502 29.7372 45.879 30.2121 47.1661C30.2186 47.1933 30.2279 47.2084 30.2419 47.231C30.0597 47.3485 29.8947 47.5022 29.7481 47.6602C29.299 48.1451 29.1978 48.8468 29.2217 49.4817C29.2417 50.0515 29.5012 50.588 29.736 51.0928C28.9568 51.4227 28.3479 51.5487 27.8813 52.4083C27.5538 53.0052 27.496 53.6594 27.5884 54.3041C27.4205 54.7975 27.4147 55.3676 27.3978 55.903C27.3635 57.2755 27.3338 58.6555 27.2296 60.0244C27.1276 61.3295 26.8793 62.6002 26.7148 63.897C26.5996 64.7945 26.6869 65.8425 27.5897 66.3253C29.1734 67.1677 30.2963 65.5448 31.0631 64.4222C31.5559 63.6972 31.9781 62.9171 32.307 62.0957C32.7208 61.9237 33.1142 61.7018 33.2914 61.3327C33.4345 61.0261 33.502 60.3036 33.7896 60.121C34.2594 59.8209 34.6851 59.6259 34.9957 59.1277C35.1115 58.9367 35.2076 58.7475 35.2855 58.554C35.3816 58.3647 35.4412 58.1669 35.4717 57.9558C35.5578 57.5908 35.6088 57.2111 35.649 56.8225C35.677 56.5401 35.7172 56.2606 35.7757 55.9855C35.9525 56.0272 36.3906 56.0792 36.3526 56.0767C36.8854 56.1639 37.4323 55.9461 37.7289 55.5345C37.9117 55.5777 38.0946 55.6208 38.2803 55.6518C38.8938 55.7516 39.6171 55.4406 39.7338 54.7554C39.7524 54.6763 39.7514 54.599 39.7625 54.5246C40.4486 55.38 41.983 54.9586 41.918 53.7617C41.899 53.3784 41.818 53.0125 41.7385 52.6406C42.002 52.8055 42.2333 52.9436 42.5341 53.0595C43.3143 53.3528 44.3301 53.4383 44.9903 52.8492C45.4794 52.849 45.9169 52.522 46.0694 52.0122C46.0895 51.927 46.1081 51.848 46.1253 51.775C46.9117 51.9605 47.8192 51.7958 48.3436 51.1554C49.5134 49.7426 48.0761 48.498 47.5152 47.2483C47.5152 47.2483 47.5152 47.2483 47.5166 47.2422C47.8383 47.1062 48.503 47.2888 48.8092 47.3546C49.152 47.4291 49.5123 48.0021 49.7812 48.2261C50.282 48.6396 50.8675 48.8035 51.5062 48.7422C52.2237 48.674 52.7541 48.1441 52.747 47.4104C52.7378 46.6313 52.4747 45.9463 52.0768 45.2873C51.7474 44.7473 50.9396 44.1072 50.8609 43.4593C50.8304 43.2338 51.014 43.1102 51.2668 43.0478C52.161 43.7853 53.4127 43.7981 54.082 44.8615C54.7466 45.9173 55.2391 47.0481 56.5604 47.3663C57.2979 47.5403 58.0507 46.9409 58.0128 46.1743C57.987 45.7379 57.8171 45.4217 57.7007 45.0154C57.6376 44.8464 57.5759 44.6713 57.5128 44.5023C57.4813 44.4178 57.4487 44.3652 57.4315 44.329C57.4684 44.3634 57.5405 44.4125 57.6688 44.4685C58.5458 44.8424 59.2901 45.2877 60.2608 44.9645C60.8263 44.7769 61.2245 44.0167 60.8161 43.4837C60.7573 43.4057 60.6096 43.2681 60.4526 43.1154C60.8166 43.0729 61.2576 43.1127 61.4713 43.0797C62.1092 42.9669 62.5284 42.6356 62.8688 42.093C63.1066 41.7125 63.0307 41.0524 62.6607 40.7661C62.4319 40.5901 62.2215 40.4184 62.0168 40.2224C62.0376 40.1888 62.0645 40.1566 62.0896 40.1048C62.1624 39.9871 62.2338 39.8755 62.3051 39.7639L62.2671 39.7614Z" fill="#8AAC3E"/>
<path d="M41.5385 42.4991C42.2009 42.0646 42.7209 41.2241 42.3862 40.4067C41.7055 38.7371 40.223 37.7387 38.9772 36.5008C39.1131 36.443 39.2905 36.427 39.5674 36.4538C40.1773 36.5143 40.7288 36.5224 41.3351 36.4343C42.0673 36.3309 42.9681 36.0041 42.9252 35.095C42.9127 34.848 42.846 34.6396 42.764 34.4148C42.6564 34.1069 43.4278 33.3193 43.5466 33.0069C43.9634 31.9494 43.6499 30.7967 42.9727 29.9305C42.6866 29.5612 42.3384 29.3185 41.9641 29.0504C41.5898 28.7823 40.4091 28.8504 40.1972 28.5757C39.5953 27.7723 38.9979 27.5222 37.9929 27.4456C37.4622 27.4038 36.9319 27.3879 36.4023 27.3143C36.3019 27.3034 36.2073 27.2682 36.1187 27.2345C36.3791 26.6217 36.5986 26.0185 36.745 25.3981C37.0057 25.2477 37.2432 25.0597 37.4089 24.7392C37.7593 24.0449 37.3449 23.2921 36.9753 22.7041C36.876 22.5522 36.7599 22.39 36.6347 22.2384C36.4731 21.7508 36.2451 21.2989 35.9544 20.9221C35.9698 20.8294 35.9806 20.7292 35.9717 20.6307C35.7702 18.2394 32.6262 18.3644 31.48 19.8406C30.7516 20.7732 30.6029 22.549 29.0759 21.4117C28.9393 21.3088 28.8041 21.1999 28.669 21.0909C28.6134 21.0264 28.5639 20.9634 28.5069 20.905C28.2416 20.6112 27.9462 20.336 27.6268 20.0809C27.6322 19.9216 27.6903 19.7298 27.5871 19.4037C27.3678 18.6969 26.9756 17.9045 26.2474 17.6363C25.4063 17.3287 24.6529 17.5491 23.8647 17.6713C23.6156 17.2273 23.2248 16.8653 22.6974 16.6189C22.303 16.4359 21.7547 16.4414 21.4621 16.809C21.0783 17.29 20.9822 17.8067 20.3564 18.0315C19.835 18.2231 19.333 18.4964 18.8335 18.7317C18.2916 18.9827 18.0667 19.4176 18.0007 19.9158C16.5321 19.3766 15.1446 18.33 13.8764 20.1049C13.4622 20.6878 11.8619 20.2974 11.1214 20.6813C10.3358 21.0931 10.1961 22.094 10.2645 22.8679C10.2992 23.2935 8.7393 23.9593 8.60903 24.6477C8.43462 25.5505 8.67226 26.1524 9.37246 26.7029C9.36959 26.7151 9.37891 26.7301 9.37604 26.7423C9.33372 26.758 9.39358 26.9134 9.46742 27.0913C9.50075 27.1955 9.53408 27.2997 9.57494 27.3992C9.58461 27.44 9.58819 27.4794 9.58245 27.5037C9.51642 27.8927 9.3984 28.1474 9.47542 28.5573C9.66853 29.5661 10.5656 29.8548 11.4571 29.622C11.6009 29.5853 11.7138 29.5157 11.8128 29.4234C11.825 29.4263 11.8311 29.4278 11.8433 29.4306C12.1237 29.4968 12.4062 29.4993 12.6809 29.4806C11.9513 31.2092 12.7212 32.8549 14.6283 33.581C15.6559 33.9712 17.0228 33.7415 18.033 33.4147C18.2417 33.3484 18.4453 33.2487 18.6612 33.152C18.3643 33.5378 18.1178 33.9549 17.9614 34.3996C17.7786 34.4656 17.5943 34.5377 17.3949 34.6191C16.4159 35.0045 16.363 36.1286 17.1837 36.714C17.6899 37.0775 18.2999 37.1379 18.9084 37.0952C19.1769 37.0751 19.4466 37.0232 19.7162 36.9712C19.7119 37.0986 19.7334 37.2257 19.7699 37.3435C20.1674 38.5225 20.9257 38.8812 21.8203 38.9896C21.9303 39.8053 21.7092 41.0696 21.6503 41.6464C21.6316 41.8347 21.5993 42.0261 21.567 42.2175C21.3932 41.8362 21.2089 41.4717 21.0157 41.1178C20.4096 40.0052 18.8412 39.725 17.8095 40.3613C16.6875 41.0534 16.4409 42.4528 17.0546 43.5608C17.212 43.8484 17.4027 44.131 17.5963 44.4014C16.215 45.0194 15.8342 47.1514 17.4149 48.1152C17.6311 48.2625 17.8649 48.3626 18.1209 48.423C17.4755 48.2129 19.0933 48.7745 18.663 48.6344C18.7118 48.6459 18.7591 48.6635 18.8065 48.6811C18.7688 48.7043 18.7265 48.72 18.6888 48.7432C17.8723 49.2312 17.4992 50.2669 17.7773 51.1609C18.078 52.1501 18.9224 52.5805 19.8819 52.6592C19.9511 52.7205 20.0188 52.7879 20.0866 52.8552C20.0805 52.8538 20.1407 52.9258 20.221 53.0218C21.4069 54.6501 21.5672 56.807 21.7204 58.776C21.8087 59.9013 21.8226 61.0155 22.0504 62.1223C22.2787 63.255 22.8774 63.9356 23.5065 64.8418C23.6026 64.9801 23.775 65.04 23.9296 65.0123C23.9715 65.08 24.0074 65.1462 24.0568 65.2093C24.2178 65.427 24.4663 65.4921 24.7152 65.3646C25.7239 64.8256 26.221 63.9733 26.5998 62.9132C27.1716 61.308 27.8521 59.8696 28.6913 58.3852C29.0873 57.6888 29.5235 57.0404 30.0026 56.4278C31.0984 56.2562 32.1311 55.9155 32.8312 55.1303C33.811 54.0323 33.4655 53.0967 33.0909 52.0387C33.7737 51.5448 34.2088 50.8191 34.0512 49.8508C33.9419 49.1958 33.6117 48.6042 33.1267 48.2328C33.1554 48.2203 33.1841 48.2078 33.2127 48.1953C33.8356 47.8736 34.3255 47.1608 35.1258 47.2597C35.5701 47.3132 36.2005 47.3142 36.5917 47.0469C37.0536 46.7257 37.3068 46.4708 37.6163 46.0044C37.7174 45.8485 39.716 46.1595 40.0348 46.1449C40.5752 46.1182 41.0561 45.7437 41.1763 45.207C41.3715 44.3797 40.8041 42.9937 41.5493 42.5081L41.5385 42.4991ZM12.5173 25.2103C12.437 25.2235 12.4521 25.2142 12.5173 25.2103V25.2103ZM20.5732 36.8845C20.5732 36.8845 20.5919 36.9146 20.6012 36.9296C20.58 36.9375 20.5635 36.9528 20.5287 36.9639L20.5732 36.8845ZM19.7958 52.5876C19.7958 52.5876 19.7837 52.5847 19.7851 52.5786C19.7851 52.5786 19.7973 52.5815 19.8019 52.589L19.7958 52.5876Z" fill="#B1CB49"/>
<path d="M41.8241 16.3605C41.0173 16.671 40.3342 17.1391 39.8536 17.8669C39.3461 18.6269 39.035 19.6451 39.3404 20.5327C39.5809 21.2316 40.1215 21.7765 40.853 21.9491C41.5113 22.1044 42.3973 21.9218 42.8392 21.3582C43.1437 20.9677 43.3761 20.6373 43.474 20.1403C43.5423 19.4693 43.5516 19.3752 43.4974 19.8504C43.5067 19.7563 43.5222 19.6636 43.5437 19.5724C43.5731 19.3931 43.6147 19.2167 43.6549 19.0464C43.7145 18.8485 43.6998 18.8836 43.6108 19.1515C43.463 19.3414 43.4526 19.3582 43.5904 19.2109C44.1233 18.6432 44.2192 17.7732 43.8105 17.1053C43.4237 16.481 42.5463 16.0814 41.8241 16.3605Z" fill="#7C9D3E"/>
<path d="M50.6553 19.1052C51.1917 19.2317 51.7489 18.888 51.8752 18.3528C52.0015 17.8175 51.6567 17.2609 51.1203 17.1344C50.5839 17.0078 50.0266 17.3515 49.9003 17.8868C49.774 18.422 50.1189 18.9786 50.6553 19.1052Z" fill="#55813A"/>
<path d="M28.4374 11.9816C27.9959 12.3527 27.7828 12.8739 27.7831 13.4454C27.7776 14.0413 28.2573 14.5719 28.8181 14.7042C29.3789 14.8366 30.0451 14.5764 30.3066 14.0409C30.5563 13.5283 30.6048 12.9682 30.3757 12.439C30.2094 12.053 29.9638 11.7575 29.5372 11.6568C29.1105 11.5561 28.7587 11.7107 28.4374 11.9816Z" fill="#7C9D3E"/>
<path d="M26.0488 66.6939C27.9034 65.8151 28.8706 62.6978 29.4729 60.8814C30.227 58.6128 30.3415 55.7823 29.6645 53.4971C29.0223 51.3099 26.0296 52.0486 25.926 54.1239C25.8756 55.101 26.1465 56.0254 26.0478 57.0166C25.9242 58.1947 25.781 59.3746 25.461 60.5127C24.9698 62.2397 23.3642 64.1084 24.099 65.9577C24.4388 66.8085 25.2505 67.077 26.0548 66.6953L26.0488 66.6939Z" fill="#C8DB5E"/>
<path d="M27.9066 56.0095C27.9066 56.0095 27.9611 55.9966 27.9837 55.9827C28.4739 55.8415 28.735 55.3894 28.7526 54.9056C28.7768 54.0123 28.5342 53.1588 28.4339 52.2746C28.3254 51.3436 28.7849 50.2962 29.0784 49.4343C29.7618 47.438 30.6182 46.3173 30.1037 44.1346C29.8406 43.013 29.6938 42.0537 30.0124 40.9216C30.2876 39.9463 30.8603 39.0733 31.1889 38.117C31.4576 37.3327 31.5671 36.5687 31.682 35.7546C31.8536 34.5365 33.8447 34.3064 33.7746 35.7219C34.1189 35.3536 34.4556 34.99 34.7999 34.6217C34.1157 34.685 33.75 34.9262 33.2303 35.3558C32.7753 35.7301 32.7084 36.6133 33.0504 37.0729C34.0255 38.3946 36.3599 39.9278 38.1098 39.1656C38.4828 39.0032 38.8349 38.8744 39.1519 38.6217C40.2697 37.7296 38.8167 38.6517 39.7114 38.1051C40.4494 37.65 40.6442 36.9061 40.4661 36.1064C40.254 35.1509 39.1407 34.7148 38.2751 34.9472C37.9255 35.0381 37.1355 35.5773 37.1416 35.5788C36.4004 35.6928 35.3244 35.0986 34.5858 34.9565C34.9353 35.5205 35.2895 36.0921 35.639 36.6562C35.629 36.4805 35.6771 36.3313 35.78 36.195C36.0551 35.7655 35.8766 35.2675 35.5801 34.915C34.3573 33.4706 33.0335 33.1903 31.1986 33.849C30.5108 34.0913 30.2522 34.7238 30.085 35.3778C29.7337 36.7847 29.3879 38.0323 28.7835 39.3666C28.2644 40.5028 28.0251 41.6535 27.9585 42.89C27.9118 43.688 28.054 44.4215 27.9209 45.2313C27.796 45.9788 27.2723 46.78 26.952 47.4557C25.6887 50.1371 25.4237 52.8422 26.7546 55.5193C26.9295 55.8688 27.3555 56.0271 27.7201 56.0361C27.7901 56.0398 27.8553 56.0359 27.9188 56.0124L27.9066 56.0095Z" fill="#C8DB5E"/>
<path d="M33.1491 36.5191C33.1412 36.0613 32.9889 35.6979 32.691 35.3515C32.2619 34.8521 31.6814 34.7216 31.056 34.863C30.635 34.9563 30.3528 35.4162 30.372 35.8253C30.3917 36.3693 30.8466 36.7592 31.3813 36.757C32.1924 36.7557 32.9942 36.4119 33.6658 35.9925C34.1492 35.6891 34.3372 35.0015 34.0146 34.5144C33.6687 33.9897 33.1133 33.5889 32.4546 33.6261C31.4832 33.6795 30.8427 34.4851 31.067 35.4435C31.1573 35.8244 31.5606 36.2149 31.9579 36.2766C32.3932 36.3407 32.6657 36.2766 33.058 36.0866C33.289 35.9806 32.8142 36.1383 32.7945 36.14C32.8476 36.1333 33.1183 36.1586 32.8565 36.1226L32.3247 34.3404C32.2469 34.4247 32.2469 34.4247 32.3355 34.3493C32.2813 34.3879 32.2271 34.4265 32.1744 34.459C32.06 34.5348 31.9349 34.6016 31.8112 34.6623C31.9213 34.6048 31.6057 34.7422 31.5648 34.7518C31.5028 34.7693 31.4469 34.7882 31.3848 34.8057C31.1155 34.8834 31.5609 34.7959 31.3167 34.8217L31.6359 36.7143C31.7463 36.6825 31.7538 36.6779 31.6585 36.7003C31.7707 36.6883 31.8783 36.6687 31.9887 36.637C32.0841 36.6146 32.0992 36.6053 32.031 36.6213C32.0963 36.6174 32.1554 36.6121 32.2193 36.6143C32.4774 36.611 32.7464 36.6167 33.002 36.6513C33.0827 36.664 33.1594 36.6114 33.1612 36.522L33.1491 36.5191Z" fill="#C8DB5E"/>
<path d="M31.9465 35.369C30.6789 35.7506 30.1803 37.1548 29.9657 38.337C29.8185 39.1243 29.7704 39.9284 29.7175 40.725C29.6061 42.3426 29.2817 43.7173 28.6569 45.2202C28.1877 46.336 27.4543 47.3444 27.0414 48.4671C26.6285 49.5897 26.9711 50.5375 27.4547 51.5698C27.9773 52.682 27.0761 53.0922 26.8432 54.161C26.5849 55.3651 26.6191 56.4199 26.8936 57.6019C27.0162 58.1189 27.5809 58.3163 28.0488 58.2149C28.8908 58.0282 29.409 57.6047 29.7963 56.8356C30.0137 56.4053 30.069 55.8982 30.172 55.4345C30.2997 54.8931 30.7071 54.3664 30.9141 53.8437C31.303 52.8503 31.2895 51.871 30.9081 50.8692C30.4859 49.7679 30.0568 49.4868 30.4747 48.2883C31.1979 46.205 31.2751 43.4235 31.3299 41.2275C31.3592 39.9309 31.0559 36.8798 32.2519 36.0382C32.5843 35.802 32.3657 35.256 31.9512 35.3765L31.9465 35.369Z" fill="#C8DB5E"/>
<path d="M46.4323 36.731C45.8058 37.5592 45.8211 38.3398 45.8715 39.3534C45.9658 41.3535 45.4726 42.7076 44.3037 44.3069C43.372 45.5832 42.3449 46.3362 40.8668 46.8735C39.9101 47.2193 39.2485 47.7053 38.6614 48.53C38.3648 48.9416 38.2255 49.5317 38.0863 50.0125C37.8643 50.7628 37.0632 51.049 36.4733 51.4492C35.1715 52.33 35.1889 53.7018 34.1983 54.7909C33.1569 55.9322 32.4155 57.4653 31.5475 58.7439C30.8851 59.7242 30.0799 60.8185 30.4261 62.0239C30.5075 62.3064 30.8818 62.4653 31.136 62.2877C32.228 61.5051 32.6295 59.8853 33.4745 58.8133C33.888 58.288 34.1914 57.711 34.5099 57.1248C34.9439 56.3218 35.6382 55.7792 36.1568 55.0539C36.6008 54.4267 37.01 53.8105 37.6802 53.3971C38.23 53.0581 38.812 52.855 39.3244 52.4558C40.2486 51.7299 40.242 50.2579 41.1238 49.6569C42.0598 49.0172 43.3001 48.8604 44.2569 48.1872C45.4033 47.3917 46.2254 46.1987 47.0119 45.0743C47.9533 43.7296 48.2211 42.2131 48.202 40.6033C48.1885 39.4057 47.3565 38.2141 47.3943 37.0992C47.4123 36.6411 46.7203 36.3559 46.4309 36.7371L46.4323 36.731Z" fill="#A2BB41"/>
<path d="M27.3873 35.5446C27.0872 33.053 25.5289 30.5213 22.704 30.8757C21.4304 31.0376 20.3933 31.8331 19.4229 32.6187C18.5335 33.3336 17.5481 33.9101 16.7774 34.7493C17.0868 34.6104 17.4038 34.4669 17.7133 34.328C17.6344 34.335 17.557 34.336 17.4842 34.3446C16.0183 34.4482 15.7057 36.6733 17.2302 36.9752C18.0664 37.1404 18.653 37.3815 19.4885 36.9494C20.3843 36.4801 21.151 35.7941 21.9414 35.1715C22.7049 34.5811 23.1177 34.2226 24.0955 34.3056C24.5684 34.3465 25.154 34.2921 25.5501 34.6039C25.9355 34.9067 26.3205 35.5113 26.6945 35.8628C26.9422 36.0946 27.4396 35.923 27.3934 35.5461L27.3873 35.5446Z" fill="#A2BB41"/>
<path d="M28.8132 29.1764C28.8467 28.6256 29.4757 27.8686 29.6135 27.2847C29.7714 26.6156 29.7263 25.661 29.346 25.064C28.5032 23.7543 26.9317 23.2422 25.4131 23.7058C24.0669 24.1202 23.6769 26.0188 22.0147 24.9909C20.6559 24.1501 19.7034 22.5962 18.3378 21.7024C18.565 22.212 18.7923 22.7215 19.0195 23.2311C19.1046 22.6796 19.7009 22.5249 20.0344 22.1477C20.4548 21.6754 20.841 21.1565 21.128 20.5949C21.5465 19.7754 21.6244 19.4727 22.4807 19.0069C23.0505 18.6919 23.3998 18.3569 23.5047 17.6946C23.6274 16.9016 23.1037 16.1487 22.2488 16.1718C20.9795 16.2062 19.4966 17.8276 19.1177 18.9968C18.8612 19.7839 17.9393 20.2278 17.3268 20.7511C16.6332 21.3452 16.3304 22.0828 16.2819 22.9704C16.2474 23.553 16.7844 24.1677 17.3477 24.2621C18.6511 24.4926 19.8044 25.4133 20.2847 26.6504C20.694 27.6973 21.9787 28.0069 22.9884 28.091C24.275 28.2019 25.4741 27.8106 26.2584 26.7499C26.9503 25.8087 27.1351 27.3164 27.2418 27.7911C27.402 28.5031 27.7645 28.7941 28.1764 29.3665C28.3807 29.6459 28.7784 29.5149 28.7935 29.1782L28.8132 29.1764Z" fill="#A2BB41"/>
<path d="M18.7942 20.8867C18.7942 20.8867 18.8186 20.8924 18.8308 20.8953C19.1478 20.9701 19.4827 20.9143 19.7613 20.7424C20.0625 20.5566 20.2003 20.3002 20.3143 19.9804C20.3172 19.9682 20.3201 19.956 20.3244 19.9378C20.4661 19.5281 20.26 19.0107 19.9599 18.728C19.5444 18.3346 18.8979 18.2655 18.4145 18.5689C18.0304 18.8057 17.798 19.2453 17.8148 19.6924C17.8377 20.25 18.2456 20.7572 18.7957 20.8806L18.7942 20.8867Z" fill="#A2BB41"/>
<path d="M26.7012 19.2011C25.9901 19.515 25.6838 20.2132 25.8658 20.969C26.0686 21.8002 27.0363 22.1441 27.7854 22.1604C28.112 22.1668 28.4498 21.9896 28.6715 21.7594C29.0143 21.3972 29.0599 20.9585 28.97 20.4942C28.8786 20.036 28.5693 19.6291 28.2445 19.3148C28.129 19.2041 27.9985 19.1027 27.8755 18.9966C27.811 18.9429 27.7526 18.8905 27.6895 18.8307C27.5772 18.7336 27.4622 18.6486 27.3395 18.5683C27.223 18.4895 27.2492 18.5149 27.427 18.6339C26.9495 18.258 26.3493 18.1292 25.8009 18.4622C25.1834 18.843 24.9778 19.6871 25.3675 20.2991C25.6346 20.7218 26.0013 20.9945 26.4151 21.2591C26.4595 21.2889 26.504 21.3186 26.5485 21.3484C26.7876 21.5075 26.2996 21.1484 26.5209 21.329C26.5961 21.3917 26.7507 21.5823 26.5126 21.2821C26.6704 21.4863 26.4205 20.9907 26.5029 21.2413C26.8978 20.6859 27.2927 20.1305 27.6876 19.5751C27.6345 19.5819 27.5753 19.5872 27.5237 19.5878C27.7413 19.6199 27.7869 19.6178 27.6513 19.5923C27.8668 19.6881 27.9156 19.6996 27.8008 19.6404C28.0687 19.7871 27.9944 19.8017 27.9109 19.6921C27.8217 19.6068 27.7234 19.5322 27.6223 19.4698C27.76 19.5409 27.8647 19.6426 27.9439 19.7705C27.888 19.6802 27.9084 19.73 28.0052 19.9198C27.9643 19.8202 27.9249 19.7146 27.8704 19.6183C27.6665 19.2555 27.1025 19.0004 26.7055 19.1829L26.7012 19.2011Z" fill="#A2BB41"/>
<path d="M10.0432 22.5209C9.93884 22.8816 9.76778 23.0339 9.82652 23.4394C9.90139 23.913 10.2248 24.2333 10.6156 24.4861C11.1351 24.8205 12.8181 25.1599 12.9747 25.7234C13.4607 27.4819 16.2936 25.7295 14.5354 24.4542C13.8757 23.9775 13.1325 23.7186 12.3462 23.5331C11.7427 23.3907 10.5903 23.0931 10.2706 22.4847C10.2175 22.3823 10.0662 22.4236 10.0371 22.5195L10.0432 22.5209Z" fill="#A2BB41"/>
<path d="M32.2661 29.9787C33.1285 29.5143 33.5023 28.6393 34.5328 28.4715C35.6695 28.2902 36.521 29.3452 37.498 29.7041C38.3331 30.0103 39.7218 29.9335 40.3833 30.539C40.5632 30.7035 40.6833 31.0401 40.7955 31.2463C40.9073 31.4268 40.9966 31.6213 41.0586 31.8221C41.1586 32.353 41.406 32.1224 41.8009 31.1304C39.9339 31.1073 40.0449 33.991 41.9106 34.0202C45.7465 34.0713 43.4648 28.5242 41.0137 27.8945C39.971 27.6228 38.8688 27.6581 37.9047 27.1352C36.9682 26.6317 36.0844 25.9865 34.9624 26.0236C33.0039 26.088 31.4318 27.0784 30.979 29.0521C30.7996 29.8124 31.6238 30.328 32.2722 29.9801L32.2661 29.9787Z" fill="#A2BB41"/>
<path d="M34.3257 31.9937C34.6875 32.124 34.9658 31.9264 35.2992 31.9858C35.59 32.0352 35.8822 32.4059 36.0822 32.5944C36.7082 33.1595 37.7121 33.9229 38.5459 33.2528C38.8478 33.0094 39.0512 32.6657 38.9211 32.2625C38.7405 31.719 38.317 31.4136 37.8527 31.1179C37.4437 30.8608 37.0866 30.5197 36.6728 30.2551C35.7733 29.6768 33.8894 29.6433 33.7091 31.007C33.646 31.493 33.8664 31.8404 34.3243 31.9998L34.3257 31.9937Z" fill="#A2BB41"/>
<path d="M39.0092 42.6912C39.1658 43.0364 39.1607 43.3306 38.9889 43.6497C38.9771 43.6725 39.1876 43.6259 39.0201 43.5992C38.6731 43.543 38.3292 43.3913 37.9907 43.2985C37.1887 43.0708 36.2675 43.2387 35.6044 43.7308C35.254 43.9885 35.0378 44.2778 34.7921 44.6372C34.7254 44.7563 34.6587 44.8754 34.5981 44.9959C34.357 45.472 35.1965 44.7776 34.5134 45.0274C32.9159 45.6072 33.2153 48.1565 35.0257 48.0379C35.6525 47.9995 36.3363 47.8013 36.7624 47.3046C36.9388 47.1022 37.0923 46.888 37.2412 46.6663C37.3111 46.5608 37.6941 46.0283 37.4266 46.2349C37.1605 46.4354 37.5944 46.3965 37.7973 46.4636C38.0964 46.5598 38.4101 46.621 38.7246 46.6246C39.3581 46.6392 39.9498 46.477 40.4874 46.1351C41.3864 45.5703 42.0048 44.2585 41.6851 43.2134C41.3719 42.1956 40.3881 41.5653 39.3593 41.7528C38.9154 41.8343 38.8543 42.3657 39.0016 42.6959L39.0092 42.6912Z" fill="#A2BB41"/>
<path d="M17.7634 40.7157C17.2191 40.4589 16.5873 40.9005 16.4477 41.4648C16.2209 42.4259 16.6916 43.2946 17.357 43.9654C18.1579 44.7708 19.1338 45.2708 20.0911 45.8498C21.4406 46.6755 20.8831 48.5474 22.5579 49.0582C23.5784 49.3696 24.1544 48.1827 23.7623 47.3903C23.425 46.7199 23.2175 45.9903 22.8515 45.3324C22.364 44.4532 21.3023 43.9074 20.4429 43.4863C19.8495 43.1921 19.3182 42.8805 18.8066 42.458C18.5316 42.2326 18.258 42.0011 17.9859 41.7635C17.5894 41.4259 17.7468 41.2769 17.815 40.8242C17.8251 40.7816 17.8093 40.7394 17.7695 40.7172L17.7634 40.7157Z" fill="#A2BB41"/>
<path d="M46.4095 32.8734C47.8005 34.6143 50.325 35.287 52.0894 33.6999C52.4405 33.3846 52.7189 32.9687 53.033 32.619C53.8127 31.7691 54.5293 32.5225 55.415 32.5325C56.0758 32.5407 56.6133 32.4171 57.2014 32.1063C57.5453 31.9306 57.8889 31.4017 58.2199 31.2807C58.8729 31.0495 59.2165 30.5205 59.2482 29.8409C59.2766 29.1477 58.9468 28.5819 58.414 28.1672C56.0528 26.3386 54.445 30.5891 56.8972 30.9686C56.533 30.5487 56.4706 30.5404 56.7143 30.9255C56.7571 30.4989 56.7998 30.0723 56.8501 29.6411C55.7214 31.1792 53.79 30.1199 52.3061 31.1182C51.7553 31.4891 51.3762 32.0868 50.9332 32.573C49.947 33.6439 48.1109 32.7804 47.1328 32.1258C46.7098 31.8462 46.1091 32.4557 46.4321 32.8595L46.4095 32.8734Z" fill="#9ABF3C"/>
<path d="M50.3878 31.1472C50.4385 30.4142 50.1159 29.3814 50.741 28.8867C51.082 28.614 51.3575 28.3194 51.5694 27.9392C51.7994 27.5375 51.974 27.0971 52.1412 26.6614C52.2277 26.4313 52.308 26.1999 52.3898 25.9623C52.4393 25.807 52.4827 25.6503 52.514 25.4907C52.613 25.1802 52.5463 25.1901 52.3124 25.5267C53.4259 24.8711 52.9252 23.4751 51.9159 23.0893C51.5021 22.9339 51.0249 23.0203 50.6838 23.293C50.0017 23.8384 49.7828 25.0389 50.7444 25.4906C51.0915 25.656 51.4117 25.7444 51.8 25.7076C51.5153 25.4413 51.2292 25.1812 50.9446 24.9149C50.8695 25.9696 50.3899 27.2114 49.5851 27.8948C48.3705 28.9246 48.8913 30.4537 49.9123 31.3625C50.1152 31.5388 50.3759 31.3884 50.3953 31.1425L50.3878 31.1472Z" fill="#9ABF3C"/>
<path d="M56.9111 34.863C57.0144 34.8617 57.3891 34.8281 57.0416 34.8553C56.9853 34.8484 56.9351 34.843 56.8788 34.8361C56.9763 34.8592 56.929 34.8416 56.7505 34.7802C56.7917 34.7963 56.8315 34.8186 56.8638 34.8455C57.0262 34.948 56.6117 34.6319 56.8179 34.8218C56.9287 34.925 57.2423 35.3136 56.8605 34.8318C57.1835 35.2355 57.5112 35.5376 58.0426 35.6309C58.74 35.7569 59.4382 35.4978 59.7893 34.8551C60.1182 34.252 60.0187 33.4194 59.4913 32.9547C58.9639 32.4899 58.368 32.3429 57.681 32.5275C57.4342 32.5913 57.2004 32.7095 56.982 32.8442C56.5015 33.1354 56.2003 33.5395 56.1457 34.0981C56.1216 34.3364 56.336 34.6824 56.5604 34.7674C56.678 34.8145 56.782 34.8647 56.9111 34.863Z" fill="#9ABF3C"/>
<path d="M61.2685 33.3557C61.5011 34.5792 61.1479 36.5122 62.5348 37.1798C62.9797 37.3939 62.6001 36.9576 62.4552 37.1353C62.2999 37.3298 62.0349 37.3893 61.8079 37.4513C61.2406 37.6193 60.5877 37.523 60.0649 37.2841C58.4891 36.572 57.3335 38.688 58.7848 39.6277C60.5886 40.7917 64.0503 40.2472 64.8804 38.0928C65.1473 37.3981 65.1535 36.7446 64.9341 36.0378C64.8435 35.7403 64.6416 35.5321 64.429 35.315C64.2921 35.1864 64.1404 35.0928 63.9604 35.0375C63.7876 34.9518 63.7732 35.0126 63.9159 35.2261C64.0011 34.0197 63.7145 32.5072 62.4047 32.1404C61.6377 31.9273 61.1363 32.6888 61.2685 33.3557Z" fill="#9ABF3C"/>
<path d="M54.2721 41.1629C54.4495 41.4744 54.6732 41.7263 54.9123 41.9946C55.2794 42.4023 55.2238 42.7745 55.3883 43.2499C55.6238 43.9155 56.2781 44.4423 56.8499 44.8277C58.0596 45.6461 60.0923 46.0037 60.8878 44.432C61.7512 42.7093 59.0869 41.2651 58.2601 42.9964C58.1966 43.1292 57.7831 43.8728 58.1532 43.395C58.5248 42.9112 58.8234 43.3091 58.3042 43.1096C57.8689 42.9362 57.49 42.6606 57.1619 42.3328C56.375 41.5499 55.7731 40.6373 54.503 40.7293C54.2875 40.7427 54.1616 40.9763 54.2721 41.1629Z" fill="#9ABF3C"/>
<path d="M49.7367 42.4429C49.4709 43.215 49.5998 44.3049 49.894 45.0486C50.0481 45.4317 50.2776 45.7684 50.5056 46.1112C50.5862 46.2329 50.6594 46.3593 50.7113 46.4936C50.7859 46.2865 50.862 46.0732 50.9366 45.8661C50.7727 45.988 50.6182 46.1249 50.4697 46.2632C49.8848 46.8059 49.97 47.8084 50.5224 48.3305C51.1473 48.9274 51.9839 48.7909 52.5935 48.2798C53.6597 47.3883 53.3387 45.8036 52.5901 44.8307C52.2205 44.3518 51.8692 43.9864 51.6276 43.4285C51.3939 42.8917 50.9451 42.1758 50.3212 42.0928C50.0412 42.0524 49.8364 42.1839 49.7489 42.4458L49.7367 42.4429Z" fill="#9ABF3C"/>
<path d="M45.7437 48.2365C45.9199 47.5717 45.6974 48.4053 45.6454 48.5985C45.8693 47.7588 45.4998 49.0522 45.559 48.8286C45.5303 48.9502 45.5152 49.0687 45.4865 49.1903C45.3684 49.7725 45.0657 50.2918 45.1076 50.9053C45.2324 52.6942 47.4727 53.1265 48.3991 51.682C48.7039 51.2081 48.7098 50.638 48.7601 50.0976C48.7981 49.6635 48.8136 49.2433 48.709 48.8141C48.6054 48.353 48.1893 47.6897 47.74 47.4938C46.9698 47.158 46.0042 47.2962 45.7498 48.2379L45.7437 48.2365Z" fill="#9ABF3C"/>
<path d="M41.2462 51.4003C40.946 51.7725 40.8484 52.1861 40.9505 52.6533C41.0254 53.0177 41.342 53.3942 41.6618 53.566C42.0106 53.7511 42.4298 53.7472 42.7687 53.5382C43.0699 53.3525 43.3543 52.938 43.2884 52.5628C43.2501 52.3162 43.221 52.1937 43.1131 51.9692C43.0927 51.9195 43.0648 51.8743 43.0443 51.8246C43.082 51.9105 43.1243 52.0039 43.1619 52.0899C43.1132 51.9692 43.0673 51.8364 42.9884 51.7343C42.8368 51.5316 42.7385 51.457 42.5345 51.3126C42.6112 51.3692 42.688 51.4258 42.7647 51.4825C42.6496 51.3975 42.5464 51.2897 42.4133 51.2262C42.0358 51.0536 41.5255 51.0616 41.2447 51.4064L41.2462 51.4003Z" fill="#9ABF3C"/>
<path d="M22.0176 50.7235C22.3042 49.5903 21.2477 48.8594 20.3441 48.4343C19.0631 47.8366 17.4028 48.2733 17.1204 49.8248C16.8591 51.2594 18.2713 52.3375 19.4698 51.3488C19.8618 51.0239 19.8648 50.4659 19.8494 50.0128C19.8601 50.2401 19.8318 50.2784 19.6349 50.5401C19.3516 50.7045 19.7482 50.3871 19.6349 50.5401C19.2792 50.7387 19.7697 50.5142 19.9046 50.4882C19.5926 50.5558 19.9533 50.4997 20.0247 50.4973C20.1401 50.4988 20.1401 50.4988 20.0078 50.4869C20.0627 50.4998 20.1236 50.5142 20.1785 50.5271C20.3234 50.5677 20.1111 50.4855 20.342 50.5978C20.5439 50.6968 20.3969 50.6108 20.4937 50.6914C20.7149 50.872 20.868 50.9595 20.939 51.0405C21.277 51.4349 21.9096 51.1539 22.0251 50.7188L22.0176 50.7235Z" fill="#9ABF3C"/>
<path d="M25.6438 48.0086C27.6077 47.8941 28.8966 46.9588 28.3307 44.8026C28.2379 44.4596 28.0174 44.1122 27.8386 43.8067C27.6454 43.3437 27.4657 43.4234 27.301 44.0395C27.5366 43.941 27.769 43.8288 27.9953 43.7153C28.7315 43.3496 29.4434 42.5415 29.6342 41.7325C29.8251 40.9235 29.3032 40.1903 28.7923 39.601C28.6697 39.4115 28.5518 39.2296 28.4292 39.0401C27.9146 39.1756 27.8479 39.1855 28.2319 39.0578C28.7307 38.8801 29.089 38.5344 29.4577 38.1719C30.2911 37.3668 30.3415 36.1715 31.3513 35.4915C32.7374 34.5535 33.2215 36.0741 34.5063 35.947C34.8219 35.9187 35.0804 35.7229 35.1611 35.408C35.6638 33.414 32.7406 32.1399 31.1302 32.5561C29.9845 32.8573 28.8478 33.5844 28.2502 34.6442C27.9626 35.1543 27.7588 35.6905 27.5063 36.2153C27.2775 36.6943 26.6184 36.8149 26.2669 37.2136C25.5683 37.9927 25.6445 39.2243 26.0743 40.1027C26.3306 40.6255 26.627 41.0872 26.9662 41.5589C27.3363 40.8628 27.2568 40.6 26.7397 40.7734C26.3757 40.8159 25.9124 40.925 25.6055 41.1351C24.6652 41.7929 24.2079 42.6675 24.2952 43.8247C24.3936 45.1258 26.4039 46.178 25.3639 47.4224C25.1756 47.6477 25.3039 48.0311 25.6302 48.0118L25.6438 48.0086Z" fill="#9ABF3C"/>
<path d="M32.5953 40.9089C32.5413 40.5109 32.7772 40.329 32.8974 40.0106C32.9555 39.8188 33.0351 39.6449 33.1406 39.4708C32.4855 39.4382 32.3496 39.496 32.7239 39.655C33.3223 39.9824 33.8734 40.4014 34.4793 40.7242C35.9436 41.4999 37.5762 41.2622 38.8166 40.2321C39.2251 39.8918 39.289 39.2391 39.1625 38.7662C39.017 38.2374 38.6065 37.8773 38.0762 37.7521C37.3813 37.5882 36.9051 38.0794 36.2571 38.1256C35.2237 38.1964 34.1987 37.4408 33.2381 37.1757C32.1022 36.8627 31.3358 37.6836 30.9861 38.6477C30.796 39.1808 30.9884 39.8106 31.2454 40.2758C31.4558 40.6657 32.0378 40.7902 32.3784 41.0375C32.4659 41.1031 32.6043 41.0073 32.5892 40.9075L32.5953 40.9089Z" fill="#9ABF3C"/>
<path d="M33.8299 35.6522C35.4056 37.0193 37.8131 36.7975 39.0769 35.1501C39.7275 34.3018 40.1508 33.3807 39.9125 32.2906C39.5689 30.7198 37.6721 30.3043 36.4192 30.9783C35.6593 31.3898 35.3389 32.393 35.5898 33.1842C35.86 34.0571 36.6334 34.5157 37.5133 34.5499C37.7216 34.567 37.9278 34.5386 38.1304 34.4708C37.7596 34.5695 37.3914 34.5212 37.0332 34.3211C36.514 34.0124 36.247 33.5897 36.2245 33.0579C36.2431 33.1971 36.1853 33.5238 36.2575 32.918C36.2442 33.0561 36.2051 33.1946 36.1613 33.3255C36.0986 33.5098 36.1222 33.464 36.2173 33.1975C36.1732 33.3026 36.1244 33.4003 36.0756 33.4979C36.0164 33.6124 35.7374 33.9768 36.0584 33.5709C36.0225 33.6138 35.9881 33.6507 35.9461 33.6921C36.3162 33.3235 35.42 34.0946 35.5746 33.9577C35.2203 34.2593 34.7071 34.4978 34.2432 34.5553C33.7383 34.6224 33.3764 35.2562 33.8299 35.6522Z" fill="#9ABF3C"/>
<path d="M18.8369 29.6235C18.7715 28.1825 16.8601 27.6929 15.6821 27.8581C14.9302 27.9632 14.2564 28.3372 13.8199 28.9598C13.726 29.0853 13.6366 29.2184 13.5642 29.3618C13.2421 29.7995 13.5139 29.793 14.3767 29.3545C13.9906 29.1092 13.5478 28.9406 13.1189 28.7944C10.5585 27.9463 10.1045 32.7066 12.7731 32.3602C14.0543 32.1937 14.9654 31.9592 15.6555 30.78C15.9582 30.2606 16.0282 30.0459 16.7195 30.1705C17.2935 30.2739 17.7496 30.5228 18.3391 30.3151C18.6339 30.2113 18.8458 29.9402 18.8308 29.622L18.8369 29.6235Z" fill="#9ABF3C"/>
<path d="M51.7853 18.0502C52.3834 17.806 52.4266 17.1869 52.2958 16.6231C52.1815 16.153 51.8819 15.132 51.1952 15.3424C50.4812 15.5592 50.7744 16.553 50.9209 17.05C51.0195 17.3686 51.1399 17.6218 51.3561 17.8783C51.421 17.9578 51.6766 18.1016 51.7899 18.0577L51.7853 18.0502Z" fill="#618A3C"/>
<path d="M28.4411 18.3467C28.4299 18.9669 28.3853 19.5921 28.4849 20.2064C28.6232 21.093 29.2961 22.0866 30.2986 21.8736C30.7727 21.7736 30.9732 21.2237 30.8672 20.8005C30.7819 20.4529 30.5413 20.2998 30.3169 20.1056C30.1139 19.9293 29.9497 19.6979 29.7723 19.4955C29.4314 19.1133 29.1998 18.622 28.9356 18.1872C28.7865 17.9465 28.4419 18.0707 28.4364 18.3391L28.4411 18.3467Z" fill="#618A3C"/>
<path d="M28.983 19.9509C29.4417 19.5069 29.7824 19.0992 29.9195 18.4638C30.0465 17.8709 31.2008 17.7515 31.6723 17.5802C32.3056 17.3508 32.7564 16.9948 32.9537 16.3222C33.203 15.4563 32.4652 14.7107 31.8647 14.2287C30.5683 13.1779 28.7766 15.099 30.0873 16.0889C30.273 16.2291 30.515 16.3761 30.6574 16.5638C31.0268 15.707 31.0136 15.4085 30.6087 15.679C30.5001 15.7304 30.3929 15.7757 30.2842 15.8272C29.7377 16.0707 29.2902 16.3311 28.857 16.749C28.4582 17.1301 28.2451 17.7605 28.2389 18.3048C28.2345 18.978 28.6084 19.3295 28.8475 19.9253C28.8726 19.9826 28.9396 19.9985 28.9816 19.957L28.983 19.9509Z" fill="#618A3C"/>
<path d="M33.7213 17.8139C34.0013 17.8543 34.2653 17.7175 34.5113 17.6022C34.8673 17.4293 35.051 16.9782 35.1981 16.6277C35.3774 16.1948 35.2993 15.7076 34.8555 15.4616C34.4102 15.2217 33.6675 15.451 33.6054 16.0143C33.5609 16.4212 33.416 16.8172 33.5066 17.2239C33.5389 17.3599 33.5097 17.7833 33.7152 17.8125L33.7213 17.8139Z" fill="#618A3C"/>
<path d="M28.8885 14.0791C28.6496 14.2731 28.4431 14.4941 28.2612 14.7466C28.2508 14.7634 28.2785 14.7827 28.2903 14.7598C28.4646 14.512 28.6712 14.291 28.91 14.097C28.9265 14.0816 28.8989 14.0622 28.8838 14.0715L28.8885 14.0791Z" fill="#618A3C"/>
<path d="M28.5246 14.6923C27.8663 13.9911 27.7258 13.714 27.8773 12.6902C28.0485 11.5555 27.7278 10.4331 26.9821 9.55724C25.9848 8.38439 23.2653 6.79234 21.8459 7.95361C21.233 8.45114 21.6211 9.6151 22.373 9.7283C22.3913 9.73261 22.4096 9.73693 22.4279 9.74125C23.0747 9.83608 23.7084 9.41408 23.682 8.70792C23.6863 8.68967 23.6784 8.66855 23.6827 8.6503C23.5123 8.96328 23.3466 9.28378 23.1763 9.59675L23.3057 9.51172C23.0375 9.55759 22.7632 9.60203 22.4964 9.64183C23.3103 9.84672 23.7872 10.1711 24.4024 10.7273C25.213 11.4643 25.1038 12.2541 25.0854 13.2322C25.0587 14.6001 25.8257 16.3672 27.3743 16.5399C27.9387 16.6025 28.3238 16.4429 28.6531 15.9748C28.6739 15.9411 28.6933 15.9136 28.7202 15.8814C28.9823 15.5066 28.8142 14.9918 28.5307 14.6937L28.5246 14.6923Z" fill="#618A3C"/>
<path d="M23.7275 8.07812C23.605 7.56118 23.0037 7.3551 22.5196 7.49773C21.9523 7.66569 21.6101 8.18856 21.4458 8.72129C21.2948 9.22505 21.6762 9.68107 22.1309 9.82687C22.346 9.8969 22.5737 9.88641 22.7824 9.82007C23.3737 9.6321 23.6431 8.79026 23.1269 8.36022C23.0193 8.27062 22.9074 8.19927 22.782 8.13113C22.9271 8.30666 23.0709 8.48828 23.2222 8.66525C23.2698 8.92693 23.2415 8.74687 23.2423 8.68925C23.2387 8.54072 23.1935 8.89607 23.2512 8.67853C23.29 8.5143 23.1702 8.85846 23.2441 8.70894C23.3018 8.60056 23.1182 8.83335 23.2606 8.69357C23.2874 8.66138 23.319 8.63672 23.3459 8.60453C23.3954 8.55842 23.3864 8.56916 23.3144 8.62921C23.3369 8.61527 23.3595 8.60134 23.3882 8.58885C23.4546 8.55313 23.5087 8.51453 23.5596 8.46233C23.636 8.38403 23.5324 8.46874 23.6002 8.42694C23.716 8.3451 23.7644 8.22169 23.7322 8.08565L23.7275 8.07812Z" fill="#618A3C"/>
<path d="M23.2464 8.04719C23.2378 7.42873 22.5699 7.23258 22.0571 7.27855C21.7552 7.30363 21.3963 7.37948 21.1434 7.551C20.8756 7.73181 20.6665 7.9907 20.5918 8.307C20.51 8.65372 20.6129 8.95411 20.757 9.27065C20.9685 9.73794 21.616 9.8843 22.0685 9.76633C22.3984 9.67721 22.5914 9.45946 22.7639 9.19194C22.9737 8.87543 22.9042 8.46091 22.7343 8.1447C22.6454 7.97603 22.6916 8.13464 22.8777 8.62803C22.8544 8.3721 22.7967 8.26215 22.6902 8.03155C22.749 8.2188 22.8017 8.4046 22.8605 8.59185C22.8587 8.57216 22.8569 8.55248 22.8551 8.53279C22.7511 8.81005 22.647 9.08731 22.543 9.36457C22.7298 9.14538 22.8382 8.95903 22.9164 8.6821C22.9336 8.6091 23.0193 8.43671 22.9017 8.71717C22.9268 8.6653 22.9519 8.61342 22.9831 8.56299C22.8823 8.7447 22.9368 8.62271 22.9892 8.56443C22.7869 8.76714 23.1613 8.3803 23.1656 8.36205C23.2083 8.26296 23.0609 8.47861 23.1222 8.4096C23.2166 8.30985 23.2603 8.17891 23.26 8.04398L23.2464 8.04719Z" fill="#618A3C"/>
<path d="M19.5357 10.8703C19.6155 11.8138 19.7986 12.5377 20.4045 13.2971C20.6579 13.6138 20.9559 13.851 21.3094 14.0436C21.4747 14.1339 21.6776 14.2011 21.8547 14.2686C22.2226 14.4003 21.7361 13.5985 21.6884 14.1009C21.5505 15.5581 24.1626 15.5323 23.9929 14.0154C23.8701 12.9269 23.2352 12.3725 22.1688 12.2557C21.6668 12.2015 21.3897 12.0398 21.0157 11.6883C20.6049 11.3024 20.2259 11.0267 19.7225 10.7603C19.6429 10.7158 19.5253 10.7779 19.5343 10.8764L19.5357 10.8703Z" fill="#618A3C"/>
<path d="M17.4713 15.6677C17.4652 15.7754 17.4577 15.8892 17.4515 15.9969C17.4353 16.3656 17.6268 16.5905 17.9075 16.7916C18.1054 16.9346 18.4299 16.8956 18.6196 16.7734C18.9058 16.5969 19.0016 16.2728 18.9274 15.9599C18.8407 15.6184 18.5947 15.4062 18.2581 15.3332C18.1179 15.3001 17.9673 15.2838 17.8185 15.2873C17.6058 15.2885 17.4792 15.4705 17.4652 15.6662L17.4713 15.6677Z" fill="#618A3C"/>
<path d="M40.2452 15.635C40.7103 15.4365 41.2066 15.2968 41.7136 15.2751C41.8305 15.2706 42.0811 15.3811 41.9108 15.2575C41.7036 15.0994 42.1915 15.5677 42.0818 15.4327C42.2009 15.5827 42.2765 15.7804 42.3593 15.9476C43.0447 17.2973 45.3149 16.2662 44.7716 14.8601C44.2834 13.6019 43.1383 12.7281 41.7935 13.3547C40.9394 13.7568 40.5233 14.6475 40.0599 15.4115C39.9885 15.5231 40.1154 15.6943 40.2438 15.6411L40.2452 15.635Z" fill="#618A3C"/>
<path d="M43.1143 29C44.4133 29.6853 43.973 31.3602 43.6774 32.5041C43.3035 33.9249 42.8699 34.5354 41.5062 34.997C40.5491 35.317 39.8936 36.1319 40.0809 37.165C40.1748 37.6945 40.4214 38.1765 40.8064 38.5627C41.0237 38.7874 41.2514 38.9952 41.4761 39.2152C41.1097 38.859 41.3252 39.2823 41.3326 39.7143C41.3686 41.2254 43.4866 41.7123 44.1975 40.3903C45.1053 38.6973 44.1126 37.4228 42.6129 36.6066C42.1339 36.3459 42.1839 37.1154 42.6845 36.8483C43.06 36.6479 43.3598 36.4682 43.6718 36.1822C44.0903 35.7994 44.2858 35.107 44.4824 34.6012C45.1475 32.928 45.8986 28.8992 43.1914 28.6458C42.9967 28.6255 42.9522 28.9232 43.1068 29.0046L43.1143 29Z" fill="#618A3C"/>
<path d="M22.5175 42.1716C23.4339 40.7696 21.7607 39.052 20.8296 38.1709C19.4261 36.838 17.5204 35.9967 15.6532 36.8468C14.4049 37.4192 15.1085 39.5373 16.4309 39.387C17.5622 39.2558 18.5465 39.366 19.5923 39.8696C20.6504 40.3761 20.932 41.5278 21.6824 42.302C21.9351 42.5672 22.3375 42.4438 22.5175 42.1716Z" fill="#618A3C"/>
<path d="M10.7381 42.6742C11.3535 42.4662 11.6881 42.2754 12.3102 42.2296C13.1553 42.1657 14.6549 42.0829 15.043 41.1471C15.3884 40.3103 14.7725 39.4843 13.8503 39.6841C13.6943 39.7179 13.5569 39.7818 13.4321 39.8744C13.4246 39.8791 13.1442 40.0312 13.3102 39.9548C13.0671 40.058 12.8035 40.1114 12.5475 40.1601C12.034 40.2637 11.5166 40.4113 11.0397 40.6327C10.5764 40.8509 10.0273 41.3506 10.1187 41.918C10.1599 42.1525 10.3752 42.794 10.7396 42.6681L10.7381 42.6742Z" fill="#618A3C"/>
<path d="M14.0383 45.3794C14.3976 45.4385 14.7515 45.4385 15.0642 45.2041C15.2536 45.0561 15.4702 44.9017 15.5627 44.6731C15.7098 44.3225 15.7529 43.9217 15.522 43.5912C15.071 42.9389 14.0788 43.0259 13.704 43.7144C13.6226 43.8686 13.5089 43.9959 13.4795 44.1752C13.4623 44.2482 13.4572 44.324 13.4339 44.3956C13.3134 44.7974 13.6181 45.3059 14.0397 45.3733L14.0383 45.3794Z" fill="#618A3C"/>
<path d="M45.3574 27.7573C46.2227 26.9533 46.3982 26.0187 46.2016 24.8614C46.0414 23.931 46.0183 23.1293 46.2425 22.2062C46.3573 21.7195 46.3872 21.0202 45.8684 20.7373C44.4543 19.967 44.1169 22.3789 44.1644 23.1863C44.2034 23.9211 44.4593 24.6365 44.6966 25.3218C44.9403 26.0343 44.7627 26.8143 44.8457 27.5531C44.8737 27.8165 45.1684 27.931 45.3649 27.7526L45.3574 27.7573Z" fill="#40642F"/>
<path d="M47.6822 24.6972C48.2065 24.1659 48.5771 23.3864 48.6611 22.6485C48.7623 21.7285 47.5859 21.4509 47.2652 22.3192C47.0091 23.0229 46.9921 23.8858 47.2251 24.5893C47.2885 24.7841 47.5384 24.843 47.6822 24.6972Z" fill="#40642F"/>
<path d="M54.755 24.0354C56.6641 23.5805 57.8571 20.8696 57.4788 19.0915C57.128 17.4419 54.746 17.7468 54.3603 19.1905C54.1726 19.9039 54.1066 20.6203 53.8321 21.3197C53.5301 22.1089 53.4461 22.956 53.8802 23.707C54.059 24.0125 54.4219 24.1109 54.755 24.0354Z" fill="#4B7738"/>
<path d="M48.4762 18.984C48.6924 18.6947 48.9331 18.5203 49.2827 18.4294C49.6595 18.3321 49.4666 18.3315 49.7161 18.6922C50.2478 19.4662 50.8182 20.076 51.8376 19.8734C52.6677 19.7097 52.75 18.6246 52.2567 18.0973C52.061 17.8905 51.867 17.8127 51.6253 17.6914C51.4694 17.6161 51.3285 17.4223 51.1994 17.3148C50.7921 16.9683 50.203 16.8742 49.6892 16.8429C48.6235 16.7777 47.9883 17.8607 47.957 18.7844C47.9498 19.0332 48.3241 19.1921 48.4762 18.984Z" fill="#4B7738"/>
<path d="M46.7114 25.02C46.8502 24.4042 47.4975 23.7607 47.7874 23.1869C48.0743 22.6253 48.116 21.9031 48.1 21.2893C48.0828 20.7074 47.6713 20.2699 47.5939 19.7251C47.538 19.3074 48.0642 18.6866 48.2815 18.3655C49.2674 16.9414 47.075 15.57 45.9371 16.6565C44.9161 17.6292 44.5792 19.1936 44.8299 20.5306C44.984 21.3504 45.6222 21.8092 45.692 22.6861C45.7653 23.6024 46.2672 24.2024 46.6156 25.0167C46.6314 25.0589 46.6952 25.0611 46.7067 25.0125L46.7114 25.02Z" fill="#4B7738"/>
<path d="M48.469 21.088C48.5123 21.1496 48.5496 21.2097 48.5869 21.2699C48.6055 21.3 48.6227 21.3362 48.6399 21.3723C48.5898 21.2578 48.607 21.2939 48.6855 21.4794C48.788 21.6449 48.9737 21.785 49.1627 21.8296C49.2663 21.854 49.3527 21.8423 49.4484 21.8456C49.7052 21.8484 49.8938 21.6489 49.9666 21.4221C50.0757 21.069 49.9549 20.6809 49.6197 20.4926C49.4437 20.3933 49.2558 20.3168 49.0636 20.2586C48.609 20.1128 48.1918 20.7079 48.4614 21.0926L48.469 21.088Z" fill="#4B7738"/>
<path d="M47.1025 17.3615C47.6504 17.0028 48.0445 17.2691 48.5912 17.488C49.161 17.7188 49.6582 18.093 50.2398 18.3008C50.5604 18.415 51.0061 18.1349 51.0531 17.7992C51.2014 16.6527 50.2248 15.7737 49.1416 15.6465C48.1086 15.5248 47.2411 16.1742 46.8393 17.1132C46.7687 17.2763 46.9325 17.4819 47.1071 17.369L47.1025 17.3615Z" fill="#4B7738"/>
<path d="M56.8066 24.834C57.6932 25.467 59.0777 24.7534 59.8746 24.2672C61.0239 23.5687 61.5239 22.2676 61.2556 20.9778C61.1495 20.4455 60.5432 20.0969 60.0377 20.1125C59.3241 20.1368 58.9038 20.7183 58.8567 21.3814C58.8401 21.6151 58.8967 21.9752 58.7565 22.1604C58.5209 22.4773 58.1436 22.658 57.8058 22.8351C57.2314 23.1426 55.8371 24.1429 56.8005 24.8325L56.8066 24.834Z" fill="#4B7738"/>
<path d="M33.65 52.4203C34.4454 52.1584 34.6933 51.517 34.8798 50.7262C35.0707 49.9172 34.5771 49.2549 34.5026 48.4796C34.2552 48.7102 34.281 48.819 34.5786 48.8122C34.7371 48.8496 34.8927 48.8991 35.0483 48.9487C35.4097 49.0532 35.7855 49.097 36.152 49.0165C37.0441 48.8353 37.5537 48.2299 38.2297 47.6831C39.0108 47.0454 37.9604 45.8793 37.1467 46.3551C36.8182 46.5473 36.5299 46.7875 36.22 47.0098C35.8726 47.2553 35.3831 47.0114 35.0235 46.9266C34.3652 46.7712 33.5803 46.7979 33.0832 47.3228C32.5353 47.8998 32.6793 48.5438 32.9965 49.1902C33.1607 49.5307 33.3912 49.8356 33.5464 50.1868C33.7816 50.7175 33.212 51.495 33.1822 52.0851C33.1717 52.3202 33.446 52.4941 33.6561 52.4217L33.65 52.4203Z" fill="#7C9D3E"/>
<path d="M39.6181 13.9841C38.4614 13.8139 37.9392 14.6089 38.1882 15.7079C38.3341 16.3716 38.7765 16.842 39.2447 17.3121C39.676 17.7478 40.1119 17.9727 39.9508 18.6282C39.6868 19.7474 41.4878 20.1595 41.688 19.0381C41.847 18.1188 41.6241 17.3727 40.929 16.7463C40.5414 16.398 40.0986 16.1202 39.7111 15.7719C39.0973 15.2097 38.8948 14.7316 39.6461 14.1383C39.6941 14.0983 39.6974 14.0027 39.6228 13.9916L39.6181 13.9841Z" fill="#8AAC3E"/>
<path d="M43.095 18.2273C43.0254 18.4677 43.0063 18.7394 42.9184 18.9755C42.7879 19.3107 42.6401 19.7189 42.6587 20.0765C42.7073 20.8521 43.7113 21.0697 44.1033 20.4173C44.5161 19.7313 44.4367 18.3769 43.634 17.9884C43.4152 17.879 43.1646 17.9869 43.095 18.2273Z" fill="#8AAC3E"/>
<path d="M35.4272 11.7819C35.5595 11.903 35.6868 11.9908 35.8635 12.0326C36.0159 12.0685 36.1708 12.0665 36.3236 12.0191C36.2827 12.0287 36.0059 12.0019 36.1826 12.0436C35.9571 11.9904 36.1981 12.0601 36.2701 12.1092C36.0295 11.9561 36.4788 12.3704 36.3164 12.1587C36.3859 12.2457 36.4404 12.3421 36.4935 12.4445C36.3859 12.2457 36.5397 12.6031 36.5619 12.6725C36.5841 12.742 36.6386 13.0566 36.6046 12.7918C36.6225 12.9886 36.6837 13.1379 36.7242 13.3209C36.8794 13.9996 37.8081 14.1545 38.2542 13.6819C39.5761 12.2793 37.4889 9.72551 35.8039 10.3489C35.4306 10.4856 35.1753 10.8042 35.187 11.2179C35.1884 11.4302 35.2687 11.6353 35.4272 11.7819Z" fill="#8AAC3E"/>
<path d="M59.6131 26.4661C59.8695 26.4431 60.0721 26.5936 60.3241 26.5889C60.649 26.5756 60.9714 26.4912 61.2962 26.4779C61.9141 26.4503 63.0425 26.5496 63.3185 27.1798C63.7074 28.0678 65.0942 28.8446 66.0125 28.4705C66.2331 28.3812 66.3145 28.1179 66.1388 27.9352C65.4964 27.2763 63.8003 27.5375 63.8134 26.282C63.8196 25.7377 63.2119 25.2861 62.7307 25.1982C61.4898 24.976 59.9587 24.9744 59.474 26.292C59.4403 26.3804 59.5342 26.4732 59.6192 26.4675L59.6131 26.4661Z" fill="#8AAC3E"/>
<path d="M55.3202 25.979C56.8674 25.612 59.0786 26.2493 60.2643 24.988C60.4185 24.8253 60.2962 24.5524 60.07 24.5568C59.2654 24.5853 58.4854 24.7545 57.6901 24.9071C56.7872 25.0794 55.9797 25.2292 55.2449 25.8071C55.1592 25.8704 55.2112 26.0046 55.3202 25.979Z" fill="#8AAC3E"/>
<path d="M63.0108 29.1102C63.3893 29.6875 63.935 30.0475 64.6001 30.2558C65.5886 30.5661 66.4694 29.9969 67.4471 30.4074C67.5816 30.4648 67.7074 30.3404 67.6358 30.2079C67.364 29.6686 66.8771 29.6051 66.3027 29.5851C65.1524 29.5513 64.3023 29.3636 63.2489 28.8646C63.0976 28.7968 62.919 28.9537 63.0169 29.1116L63.0108 29.1102Z" fill="#8AAC3E"/>
<path d="M65.3556 26.1254C65.5033 26.6997 65.8252 27.0261 66.3781 27.2464C66.9005 27.4596 67.5215 27.6639 67.8934 27.0967C68.2431 26.5692 67.3127 26.1762 66.9803 26.085C66.6845 26.0023 66.4296 25.9101 66.1208 25.8822C65.8759 25.8565 65.6687 25.9167 65.4385 25.9652C65.3703 25.9812 65.3381 26.0635 65.3556 26.1254Z" fill="#8AAC3E"/>
<path d="M66.1699 32.9307C66.1604 33.6798 65.8641 34.5538 66.1444 35.2749C66.4358 36.0308 67.3971 35.8017 67.4704 35.0548C67.506 34.6586 67.3809 34.1796 67.2709 33.8005C67.1419 33.3655 66.949 33.0375 66.6016 32.7372C66.431 32.5877 66.1713 32.7063 66.1699 32.9307Z" fill="#8AAC3E"/>
<path d="M54.8391 27.4455C55.6143 27.2688 56.7205 26.9711 57.0363 27.9511C57.1649 28.3603 57.4123 28.6755 57.7425 28.9396C58.1172 29.2335 58.6095 29.2469 59.0659 29.3033C59.6411 29.3748 58.624 30.631 58.53 30.8656C58.295 31.4523 58.8944 32.2937 59.5349 31.8155C60.87 30.8206 61.5485 28.0268 59.2056 27.8657C58.6613 27.8272 58.2784 27.8139 57.9421 27.33C57.7686 27.0836 57.5374 26.8364 57.2384 26.7401C56.3642 26.4633 55.491 26.8095 54.8029 27.3534C54.7623 27.3888 54.786 27.4522 54.8405 27.4394L54.8391 27.4455Z" fill="#618A3C"/>
<path d="M51.6017 28.1269C52.1522 27.8393 52.5227 27.4965 52.891 26.9991C53.1804 26.6179 53.585 26.1033 53.3943 25.6024C53.366 25.5315 53.2939 25.4824 53.2168 25.5091C52.8026 25.6554 52.6215 26.0686 52.4153 26.4245C52.105 26.9485 51.7442 27.4413 51.4218 27.9624C51.349 28.08 51.4978 28.1858 51.6003 28.1329L51.6017 28.1269Z" fill="#618A3C"/>
<path d="M59.9308 32.2107C60.7343 32.7599 61.7534 32.5316 62.676 32.6851C63.5741 32.8328 64.3937 33.5592 65.2891 33.2824C65.5175 33.2143 65.6628 32.9532 65.5868 32.7298C65.2374 31.7291 63.9078 31.5823 62.9687 31.4442C61.9598 31.3024 60.6291 31.1875 59.8993 32.0171C59.8394 32.08 59.8634 32.1691 59.9294 32.2168L59.9308 32.2107Z" fill="#618A3C"/>
<path d="M61.9395 30.7324C63.0825 30.9058 64.3048 31.5345 65.4436 31.3987C65.5831 31.3802 65.6954 31.259 65.6463 31.1126C65.18 29.6798 63.0156 30.0167 61.928 30.4536C61.8072 30.5021 61.7842 30.7086 61.9395 30.7324Z" fill="#618A3C"/>
<path d="M64.9822 36.8698C64.9557 37.0369 64.9112 37.2255 64.9696 37.387C65.0377 37.5893 65.0983 37.7962 65.2012 37.9874C65.4008 38.3685 65.6402 38.8809 66.1121 38.9537C66.4104 38.9984 66.7418 38.9032 66.8881 38.6102C67.1718 38.035 66.8105 37.603 66.4523 37.1846C66.2007 36.8876 65.8181 36.6818 65.4463 36.5941C65.2573 36.5495 65.0221 36.6738 64.9869 36.8774L64.9822 36.8698Z" fill="#618A3C"/>
<path d="M41.8111 44.914C42.125 44.211 43.1825 43.7927 43.7312 43.2672C44.4283 42.6034 45.1007 42.0171 45.6778 41.235C46.2861 40.4025 46.41 39.2502 46.4435 38.2628C46.4791 37.2117 46.1505 36.0682 46.9868 35.2509C47.4064 34.8362 47.171 34.0615 46.5937 33.9445C44.2724 33.4739 43.7915 36.1666 43.7543 37.8787C43.7235 39.3997 43.4064 40.3074 42.4643 41.4914C41.4773 42.729 41.6967 43.3266 41.4616 44.7865C41.4278 44.9841 41.7215 45.1304 41.8158 44.9215L41.8111 44.914Z" fill="#7C9D3E"/>
<path d="M47.6622 42.9417C48.6625 41.6752 49.0801 39.9051 50.3697 38.9122C51.6202 37.9487 53.3041 37.7938 54.8233 37.8183C56.0159 37.8365 55.942 35.9953 54.7555 35.9787C52.9096 35.9477 51.0539 36.5308 49.5929 37.6502C47.8267 38.9993 47.8583 40.8561 47.4525 42.8216C47.4252 42.9372 47.5862 43.0458 47.6698 42.9371L47.6622 42.9417Z" fill="#7C9D3E"/>
<path d="M48.7746 37.1111C49.3075 36.6525 50.0394 36.4142 50.6623 36.0925C51.2852 35.7707 52.06 35.7865 52.6367 35.4153C53.2463 35.0133 53.0524 34.1713 52.3995 33.9659C51.568 33.6991 50.4976 34.2813 49.8095 34.7161C49.0008 35.2252 48.7163 36.0764 48.4042 36.9082C48.3178 37.1382 48.6351 37.2387 48.7807 37.1126L48.7746 37.1111Z" fill="#7C9D3E"/>
<path d="M50.6187 40.3397C51.2007 40.0275 51.726 40.1193 52.3499 40.0931C52.9556 40.0627 53.5507 40.3765 54.1431 40.1567C54.5738 39.995 54.6599 39.5209 54.3728 39.1834C53.8619 38.5941 52.8167 38.6878 52.1164 38.7923C51.3888 38.9032 50.7347 39.4937 50.371 40.1078C50.276 40.2652 50.471 40.4204 50.6187 40.3397Z" fill="#7C9D3E"/>
<g style="mix-blend-mode:screen" opacity="0.26">
<path d="M27.2775 58.6738C29.0702 57.485 29.1914 55.2533 29.1566 53.2737C29.1175 51.0941 28.884 48.9199 28.813 46.7391C28.7773 45.6905 29.4463 44.4099 29.9068 43.3306C30.5794 41.762 31.2857 40.1049 31.1752 38.3643C31.0321 36.1345 29.2892 35.4214 28.1481 33.8487C27.5165 32.9804 25.8879 30.8559 25.9314 30.0443L25.5324 31.7353C25.7408 31.2065 26.4623 30.6576 26.9085 29.9666C27.4647 29.109 27.7238 28.0656 27.5762 27.0547C27.2234 24.5956 25.0167 23.1759 22.7342 24.4225C21.8191 24.9193 21.2846 26.2573 21.6702 27.2408C22.0559 28.2244 22.6826 28.7319 23.7235 28.9839C23.1896 28.6011 22.6558 28.2183 22.1219 27.8355C22.1799 26.0897 22.236 25.525 22.2854 26.1338C21.8722 26.4666 21.4358 26.7617 21.0212 27.1005C20.2703 27.7196 19.4677 28.776 19.3219 29.7754C18.9805 32.1222 19.7096 33.9959 20.9865 35.9474C22.1921 37.7923 23.2865 39.399 25.1896 40.6058C24.7924 40.2167 24.5128 39.7654 24.3343 39.2674C24.2661 39.7201 24.1279 40.1691 24.0095 40.6163C23.7566 41.552 23.4563 42.47 23.2156 43.4085C22.5432 46.0945 23.2847 48.6518 23.8038 51.2787C24.0521 52.5445 24.2276 53.8188 24.4759 55.0846C24.587 55.6502 24.6417 56.2089 24.7998 56.7664C24.8779 57.0352 25.0462 58.2308 25.0514 57.5C25.0343 58.5812 26.3803 59.2583 27.2578 58.6756L27.2775 58.6738Z" fill="#BECE60"/>
</g>
<g style="mix-blend-mode:screen" opacity="0.26">
<path d="M27.4918 32.1857C28.6723 31.546 30.0933 31.3868 30.792 30.0619C31.5589 28.6119 31.9295 27.0683 32.2127 25.4591C32.386 24.479 32.5776 23.5032 32.8729 22.5519C33.0286 22.0556 33.2402 21.5405 33.5673 21.1361C33.766 20.894 34.1722 20.9449 34.4369 20.7505C34.679 20.57 34.8554 20.2585 34.7343 19.9538C34.3594 18.9792 33.3227 19.0364 32.5532 19.5162C31.5939 20.1182 31.1545 21.4079 30.7839 22.4057C30.371 23.5284 30.1076 24.6991 29.7969 25.8523C29.4615 27.0831 29.2013 28.2675 28.6615 29.4372C28.3193 30.1784 27.4325 30.8553 26.8662 31.4281C26.4602 31.8396 27.0048 32.4497 27.4857 32.1843L27.4918 32.1857Z" fill="#BECE60"/>
</g>
<g style="mix-blend-mode:screen" opacity="0.26">
<path d="M33.8829 24.9537C33.9267 24.8228 33.8962 24.8156 33.8008 24.9472C33.8955 24.8732 33.8112 24.9304 33.9292 24.894C34.0321 24.8669 34.1243 24.8309 34.2132 24.7812C34.1982 24.7905 34.4832 24.6459 34.361 24.7005C34.8684 24.4863 35.3811 24.3312 35.6749 23.8226C36.059 23.1491 35.5019 22.4012 34.7848 22.3861C34.1573 22.3729 33.5509 22.8976 33.1944 23.3721C32.7992 23.9018 32.8439 24.5031 33.0496 25.1039C33.2112 25.5915 33.8531 25.4347 33.8876 24.9613L33.8829 24.9537Z" fill="#BECE60"/>
</g>
<g style="mix-blend-mode:screen" opacity="0.26">
<path d="M31.3939 33.0226C32.9204 32.6893 34.0407 31.6501 35.308 30.8061C35.7505 30.5124 36.3222 29.9987 36.8694 29.9159C37.5377 29.8103 38.2613 30.071 38.9318 30.12C40.7078 30.2565 40.7849 27.5842 39.2234 27.1387C36.0578 26.2376 31.3282 29.1286 30.5306 32.2089C30.3907 32.7474 30.917 33.1348 31.4061 33.0255L31.3939 33.0226Z" fill="#BECE60"/>
</g>
<g style="mix-blend-mode:screen" opacity="0.26">
<path d="M24.687 22.9124C24.5444 22.2623 24.7836 21.6573 25.0032 21.0542C25.2123 20.4678 25.7818 19.9087 25.8661 19.3057C25.9103 18.9822 25.7042 18.6831 25.3549 18.6906C24.4833 18.7033 23.9563 19.8183 23.7185 20.5263C23.4397 21.3531 23.422 22.3828 23.7718 23.1909C24.0134 23.7488 24.8138 23.5202 24.687 22.9124Z" fill="#BECE60"/>
</g>
<g style="mix-blend-mode:screen" opacity="0.26">
<path d="M22.9715 23.0662C22.8072 21.2808 22.7175 19.2883 21.9218 17.6429C21.6232 17.0266 20.6743 17.5027 20.856 18.1235C21.3559 19.7954 21.8006 21.6469 22.7022 23.1439C22.7768 23.2643 22.9826 23.2101 22.9654 23.0648L22.9715 23.0662Z" fill="#BECE60"/>
</g>
<g style="mix-blend-mode:screen" opacity="0.26">
<path d="M20.7993 23.4593C20.6356 22.7079 20.5826 21.9505 20.431 21.202C20.2874 20.4746 19.4962 19.3825 18.646 19.5222C17.7958 19.662 17.5407 20.8796 18.4901 21.1101C18.8193 21.1877 18.739 21.0917 18.9681 21.2935C19.2033 21.4967 19.3847 21.7642 19.5883 21.9921C20.0156 22.4717 20.2608 22.9598 20.4604 23.5592C20.5318 23.7751 20.8387 23.6741 20.7932 23.4579L20.7993 23.4593Z" fill="#BECE60"/>
</g>
<g style="mix-blend-mode:screen" opacity="0.26">
<path d="M29.6558 65.1229C30.1296 64.233 30.9533 63.4962 31.4666 62.6027C32.1459 61.4145 32.6022 60.1352 33.3228 58.9631C34.4059 57.2088 36.4701 55.7694 36.6239 53.5904C36.6483 53.2686 36.2514 53.0144 35.9689 53.1211C33.9636 53.8745 32.6355 56.2581 31.5842 58.0135C30.9368 59.0937 30.6132 60.3016 30.2835 61.5081C29.919 62.8348 29.1763 63.6099 29.1499 65.0035C29.1444 65.2719 29.5374 65.3518 29.6558 65.1229Z" fill="#BECE60"/>
</g>
<g style="mix-blend-mode:screen" opacity="0.26">
<path d="M40.6408 52.4389C42.8235 54.5335 47.0321 51.7508 47.9349 49.5879C48.1157 49.149 48.219 48.711 48.4411 48.2882C48.7459 47.7052 48.9033 48.1019 49.4321 48.3423C50.1048 48.6551 50.9011 48.6889 51.5982 48.4617C52.9939 48.0011 53.3279 46.5581 53.3937 45.2701C53.4236 44.6799 53.3728 44.0772 53.351 43.4877C53.3432 43.1391 53.5129 42.2288 53.3698 42.4262C52.9298 43.0094 52.2329 42.0359 53.0925 43.0286C53.5339 43.5308 53.9106 44.0885 54.343 44.6015C55.041 45.434 55.8423 46.156 56.9951 46.1519C58.6233 46.1508 59.2167 44.3452 58.9648 43.04C58.7588 41.9768 57.1134 41.6142 56.4535 42.4474C56.3086 42.6251 56.1684 42.8104 56.0403 42.9985C55.5579 43.8158 56.7203 42.4076 57.3484 42.909C57.0566 42.6732 56.8017 42.3626 56.5622 42.0685C55.9796 41.3467 55.4326 40.5563 54.7181 39.9574C52.834 38.3699 50.5182 39.8398 50.1654 42.0168C50.0017 43.0377 50.089 44.0858 50.0849 45.1122C50.0801 46.1963 49.831 45.0973 50.6288 45.2341C49.7686 45.089 48.986 44.397 48.0497 44.7925C46.4081 45.4776 45.8417 46.487 45.6285 48.2089C45.5014 49.2385 44.9043 49.8874 44.0486 50.4047C43.5003 50.7377 42.0874 51.7079 41.4865 51.3092C40.7967 50.8511 40.0776 51.9079 40.6502 52.4539L40.6408 52.4389Z" fill="#BECE60"/>
</g>
<g style="mix-blend-mode:screen" opacity="0.26">
<path d="M52.4562 41.9858C53.7294 42.1257 54.1417 42.9422 54.414 44.0788C54.6473 45.0264 55.1451 46.2163 56.327 46.1163C57.0111 46.053 57.3798 45.363 57.0526 44.7592C56.85 44.3903 56.5998 44.0873 56.4439 43.6845C56.2346 43.1535 56.0722 42.6143 55.7829 42.1222C55.0786 40.935 53.6196 40.7642 52.4265 41.1569C52.0561 41.2814 52.0044 41.937 52.4562 41.9858Z" fill="#BECE60"/>
</g>
<g style="mix-blend-mode:screen" opacity="0.26">
<path d="M24.0122 42.9806C24.0971 42.9749 24.1821 42.9693 24.2671 42.9637C24.4765 42.9489 24.6953 42.8399 24.7867 42.6432C25.234 41.702 25.2718 40.8056 25.3899 39.7867C25.5235 38.6753 26.0812 37.7024 26.1399 36.5539C26.1769 35.8242 25.684 35.1043 25.304 34.533C24.4587 33.2612 24.3557 31.6251 24.5162 30.154C24.5636 29.7349 24.4557 29.2921 24.0413 29.0851C23.8563 28.9965 23.7494 28.9585 23.5414 28.9672C23.1316 28.9861 22.7074 29.2841 22.6388 29.711C22.427 30.9903 22.5481 32.1682 22.8297 33.4291C23.1375 34.8245 24.5199 35.9469 24.277 37.3858C24.1729 37.9905 23.0078 43.0647 24.0107 42.9867L24.0122 42.9806Z" fill="#BECE60"/>
</g>
<g style="mix-blend-mode:screen" opacity="0.26">
<path d="M27.9633 54.7335C28.3561 53.4777 28.8842 51.7851 28.1339 50.5742C28.022 50.3937 27.7718 50.4181 27.6677 50.5862C26.9425 51.7508 27.1043 53.4649 27.3802 54.7501C27.4469 55.0676 27.8833 54.9908 27.9633 54.7335Z" fill="#BECE60"/>
</g>
<g style="mix-blend-mode:screen" opacity="0.26">
<path d="M30.1523 30.0769C31.1313 29.2548 31.6564 28.2293 31.9112 26.9859C32.1387 25.858 32.8508 24.1767 32.4877 23.07C32.4243 22.8752 32.2224 22.7762 32.0302 22.8272C30.9376 23.1217 30.7667 24.3913 30.6267 25.3664C30.4128 26.8185 30.452 28.4524 29.6966 29.7447C29.523 30.0441 29.9257 30.2739 30.1584 30.0784L30.1523 30.0769Z" fill="#BECE60"/>
</g>
<g style="mix-blend-mode:screen" opacity="0.26">
<path d="M48.5628 37.9794C50.1582 37.3541 51.0939 35.9246 52.1196 34.6319C52.8527 33.7068 53.6599 32.8763 54.4776 32.029C54.7846 31.7097 55.1231 31.4749 55.4996 31.2427C55.6277 31.1637 55.8477 32.1403 55.9344 32.3727C56.7437 34.5607 59.9778 33.59 59.4087 31.311C59.0504 29.8844 58.525 28.566 57.1141 27.9185C55.6681 27.2562 54.0971 27.8873 52.9571 28.8191C51.5796 29.9389 50.7027 31.4465 49.9086 33.0121C49.1632 34.4801 49.0392 36.1783 48.2692 37.6148C48.1684 37.7965 48.3498 38.064 48.5689 37.9808L48.5628 37.9794Z" fill="#BECE60"/>
</g>
<g style="mix-blend-mode:screen" opacity="0.26">
<path d="M60.1432 34.9059C60.2396 34.9608 60.2059 34.94 60.0511 34.8328C59.9507 34.6036 59.8457 34.3669 59.7453 34.1378C59.7546 34.3711 59.8198 34.5856 59.9456 34.7887C59.8467 34.5534 59.8216 34.4961 59.8675 34.6289C59.7499 34.2545 59.827 34.3369 59.8338 34.499C59.8434 34.7581 59.871 34.9958 59.9337 35.2482C59.7951 34.6632 59.9154 35.2439 59.9194 35.4182C59.9172 35.4819 59.9165 35.5395 59.9279 35.6C59.9544 35.7604 59.981 35.9207 60.0075 36.0811C59.9512 35.7468 59.9426 35.6741 59.9695 35.8602C60.0404 36.3778 60.2221 36.8895 60.61 37.2635C61.4934 38.1013 63.007 37.8227 63.4926 36.6915C64.0153 35.4856 63.482 33.7095 62.2852 33.0547C61.4251 32.582 60.2518 32.6455 59.7744 33.6053C59.5424 34.0706 59.6853 34.6373 60.1522 34.8952L60.1432 34.9059Z" fill="#BECE60"/>
</g>
<g style="mix-blend-mode:screen" opacity="0.26">
<path d="M50.018 40.2938C51.1197 39.3337 52.4798 38.7235 53.6776 37.9016C54.8513 37.0998 56.2917 37.0222 57.0789 35.7311C57.5097 35.0236 57.0678 33.8149 56.1778 33.7141C54.5593 33.5376 52.9703 34.5176 51.7571 35.5413C50.4463 36.6512 49.8211 38.1283 49.1511 39.659C48.9007 40.2292 49.5496 40.697 50.018 40.2938Z" fill="#BECE60"/>
</g>
<g style="mix-blend-mode:screen" opacity="0.26">
<path d="M48.5471 33.5762C49.1799 31.8761 49.5703 30.1125 50.2246 28.4303C50.6748 27.2587 51.7263 25.9657 52.4579 24.9375C53.6189 23.3171 50.0112 21.9714 50.0076 24.3593C50.0068 24.9628 49.4333 25.5659 49.1163 26.0369C48.6504 26.7297 48.3799 27.4942 48.1539 28.2885C47.667 29.9973 47.6284 31.7155 47.4854 33.4669C47.4322 34.1286 48.3627 34.0849 48.5546 33.5715L48.5471 33.5762Z" fill="#BECE60"/>
</g>
</svg>
