<svg viewBox="0 0 39 87" fill="none" xmlns="http://www.w3.org/2000/svg">
<path d="M0.600586 86.3267H10.2199V19.4633L0.600586 11.875V86.3267Z" fill="#77BAE6"/>
<path d="M38.42 18.0693L10.2197 19.464V86.2899H38.77L38.42 18.0693Z" fill="#5E99A8"/>
<path d="M0.600586 11.875L10.2199 19.4633L8.1783 8.49707L0.600586 11.875Z" fill="#5E99A8"/>
<path d="M31.3621 0.395508L8.14111 1.00533L8.17824 8.49819L31.8393 8.37623L31.3621 0.395508Z" fill="#5E99A8"/>
<path d="M31.7704 7.49023L8.17822 8.49777L10.2198 19.464L38.4201 18.0693L31.7704 7.49023Z" fill="#77BAE6"/>
<path d="M36.8823 42.0278C36.8982 42.5899 36.458 43.0565 35.8959 43.0724L14.4196 43.714C13.8575 43.73 13.3908 43.2898 13.3749 42.7277C13.359 42.1656 13.7991 41.699 14.3612 41.6831L35.8376 41.0414C36.3997 41.0255 36.8663 41.4657 36.8823 42.0278Z" fill="white"/>
<path d="M22.305 26.9092C21.8649 28.0917 19.7225 31.056 22.8088 30.7749C24.9352 30.584 23.1747 27.7841 22.4005 27.1001L22.305 26.9092Z" fill="white"/>
<path d="M35.647 66.6421V66.6687C35.1751 66.3452 34.9364 64.5581 34.0296 65.1786C33.86 65.0354 33.6956 64.9134 33.6478 64.8763C33.3085 64.6006 32.9479 64.3619 32.582 64.1233C32.3062 63.943 32.0517 63.6938 31.7813 63.4976C31.7441 63.3332 31.6964 63.1953 31.6487 63.0999C30.9593 61.7689 29.3526 61.6469 27.995 61.7901C26.7171 61.9226 22.6286 61.9333 22.6233 61.5939C22.6127 61.0636 22.5491 60.475 22.4218 59.897C22.7612 59.6955 23.0635 59.4091 23.318 59.0008C23.774 58.2796 24.1611 56.7047 23.3604 56.1055C23.1801 57.0441 22.4961 57.6645 21.6105 57.9986C21.1757 57.4312 20.3378 57.1448 19.5477 57.2244C18.8477 57.2933 18.1212 57.3463 17.6493 57.7865C16.6736 57.4365 16.2493 56.9963 15.9577 56.1055C15.3797 57.1554 15.6607 59.2129 16.8008 59.5735C16.6471 61.6787 16.2387 63.8794 17.8614 64.2294C19.028 64.4839 19.606 64.3885 19.606 64.3885C19.7545 64.9983 20.0302 70.5556 20.2636 71.0488C20.4863 71.5101 22.0082 71.5207 22.565 71.1442C23.0316 70.8261 22.4165 67.4959 22.8832 67.5701C24.1611 67.7663 28.6579 67.427 29.3897 67.7716C29.6124 67.8777 29.5063 70.6192 29.6336 70.9904C30.1957 71.1654 31.4737 71.1654 32.0252 70.9321C32.0676 69.8981 32.1366 66.5255 31.935 64.5051C32.4812 64.9452 33.1918 65.3536 33.7115 65.5975C33.6372 65.8679 33.7592 66.1596 34.0137 66.3187C34.3955 66.5626 34.8675 66.4778 35.2705 66.5732C35.419 66.605 35.5728 66.674 35.7159 66.727C35.7 66.6952 35.6788 66.6793 35.6576 66.658L35.647 66.6421Z" fill="white"/>
<path d="M16.2759 39.5456C16.61 39.4926 17.4107 39.4926 18.0365 39.4926H19.728C19.728 38.7343 19.7387 37.6791 19.7174 37.1117C19.6962 35.9185 19.5637 35.4625 18.5031 35.4625H17.5327C16.8858 35.4625 16.4615 35.4413 16.2971 35.3989L16.4986 34.4072C16.7214 34.4496 17.2092 34.4496 17.9251 34.4496H18.8054C20.3962 34.4496 20.5765 35.1867 20.5765 36.7086V38.5434C20.5765 38.7767 20.5553 39.3017 20.5341 39.4926H21.3454L21.1545 40.5054H17.5274C17.0501 40.5054 16.3449 40.5054 16.0903 40.5373L16.2812 39.5456H16.2759Z" fill="white"/>
<path d="M22.5751 39.4669C24.0545 39.0215 25.2159 37.8655 25.2159 36.2958C25.2159 35.5959 24.9348 35.458 24.3462 35.458H21.6948V33.8566C21.6948 33.1778 21.663 32.3665 21.541 32.0854L22.4425 31.9316C22.5114 32.0748 22.5539 32.8331 22.5539 33.6551V34.4452H24.7015C25.8363 34.4452 26.1067 35.0126 26.1067 36.0042C26.1067 38.5071 24.1341 40.2146 22.3789 40.6017L22.5804 39.4669H22.5751Z" fill="white"/>
<path d="M27.7192 36.9953C27.7192 36.2476 27.751 35.6696 27.8094 35.4469C27.6079 35.4363 27.0723 35.4044 26.998 35.3938L27.1889 34.3916C27.4223 34.4499 27.9791 34.4499 28.7374 34.4499H30.7524C32.3804 34.4499 32.6879 34.9537 32.6879 36.7991V40.5057H31.8183V37.1225C31.8183 35.8976 31.7069 35.4628 30.6464 35.4628H28.5783V40.5057H27.7192V37.0006V36.9953Z" fill="white"/>
</svg>
