<svg viewBox="0 0 37 24" fill="none" xmlns="http://www.w3.org/2000/svg">
<path d="M22.8496 11.649C23.4557 13.6461 23.0037 15.8439 21.6375 17.563C21.2933 17.9953 20.8259 18.4329 20.2044 18.4843C19.8397 18.5152 19.475 18.4071 19.1309 18.3042C17.9495 17.9439 16.7681 17.5836 15.5868 17.2233C14.8574 17.002 14.1075 16.7704 13.5374 16.3329C12.5306 15.5608 12.2943 14.3306 12.1813 13.1983C12.0478 11.8446 12.0735 10.3211 13.2189 9.35344C16.1107 8.89535 19.1977 9.31226 21.7659 10.5115C22.0586 10.6505 22.3514 10.7998 22.5466 11.0262C22.7058 11.2115 22.7829 11.4329 22.8496 11.649Z" fill="#D0BFA5"/>
<mask id="mask0_1234_14289" style="mask-type:luminance" maskUnits="userSpaceOnUse" x="12" y="9" width="12" height="10">
<path d="M22.8496 11.86C23.4557 13.857 23.0037 16.0548 21.6375 17.7739C21.2933 18.2063 20.8259 18.6438 20.2044 18.6953C19.8397 18.7261 19.475 18.6181 19.1309 18.5151C17.9495 18.1548 16.7681 17.7945 15.5868 17.4342C14.8574 17.2129 14.1075 16.9813 13.5374 16.5438C12.5306 15.7717 12.2943 14.5416 12.1813 13.4092C12.0478 12.0556 12.0735 10.532 13.2189 9.56438C16.1107 9.10629 19.1977 9.5232 21.7659 10.7225C22.0586 10.8614 22.3514 11.0107 22.5466 11.2372C22.7058 11.4225 22.7829 11.6438 22.8496 11.86Z" fill="white"/>
</mask>
<g mask="url(#mask0_1234_14289)">
<g style="mix-blend-mode:multiply" opacity="0.24">
<path d="M7.89674 10.5525C6.40205 13.5584 11.3176 16.0547 13.7214 17.4032C15.7708 18.5562 17.7894 19.6062 20.0649 20.4349C22.7204 21.3974 26.4545 22.8488 29.1666 21.3716C30.7486 20.5121 31.0927 18.7518 29.7521 17.5885C28.0622 16.1165 25.3759 16.1422 23.1416 15.5863C21.0716 15.0716 19.1146 14.2996 17.2142 13.4554C16.1612 12.9871 15.0826 12.565 14.045 12.0657C13.403 11.7621 11.3895 10.9077 11.2868 10.5525C10.8296 9.01354 8.50797 9.32751 7.89674 10.5525Z" fill="#C1B19A"/>
</g>
<g style="mix-blend-mode:multiply" opacity="0.24">
<path d="M6.6233 12.1795C5.12861 15.1853 10.0441 17.6817 12.448 19.0302C14.4974 20.1831 16.516 21.2331 18.7914 22.0618C21.447 23.0243 25.1811 24.4758 27.8931 22.9986C29.4751 22.139 29.8193 20.3787 28.4787 19.2155C26.7888 17.7434 24.1025 17.7692 21.8681 17.2133C19.7982 16.6986 17.8412 15.9265 15.9407 15.0824C14.8878 14.614 13.8091 14.192 12.7716 13.6927C12.1295 13.389 10.1161 12.5346 10.0133 12.1795C9.55618 10.6405 7.23453 10.9545 6.6233 12.1795Z" fill="#C1B19A"/>
</g>
</g>
<g opacity="0.46">
<path d="M13.6148 11.0158C14.8732 11.1959 16.1779 11.5356 17.3438 11.968C18.5149 12.4055 19.3933 13.1363 20.4154 13.754C21.0523 14.14 22.0745 13.6253 22.018 12.9922C21.7663 10.2077 16.2549 9.38414 13.6199 9.8834C12.9625 10.0069 12.9214 10.9128 13.6199 11.0158H13.6148Z" fill="#EDE5D2"/>
</g>
<path d="M3.30564 3.42904C4.65138 1.89007 6.44912 0.680509 8.46772 0.38198C11.2003 -0.0246381 13.8918 0.263597 16.2699 1.66874C16.5986 1.86433 16.9274 2.07021 17.1945 2.34301C17.9957 3.1511 18.1909 4.3761 18.2063 5.5136C18.2628 10.2232 15.936 14.6496 13.0699 18.3864C12.6796 18.896 12.207 19.3386 11.791 19.8327C10.2552 21.6651 8.78104 21.2636 8.54477 21.2173C3.75251 20.2857 2.03181 17.3107 1.25622 15.8746C0.131346 13.7798 -0.690479 7.99963 3.29537 3.43419L3.30564 3.42904Z" fill="#EDE5D2"/>
<mask id="mask1_1234_14289" style="mask-type:luminance" maskUnits="userSpaceOnUse" x="0" y="0" width="19" height="22">
<path d="M3.30564 3.42904C4.65138 1.89007 6.44912 0.680509 8.46772 0.38198C11.2003 -0.0246381 13.8918 0.263597 16.2699 1.66874C16.5986 1.86433 16.9274 2.07021 17.1945 2.34301C17.9957 3.1511 18.1909 4.3761 18.2063 5.5136C18.2628 10.2232 15.936 14.6496 13.0699 18.3864C12.6796 18.896 12.207 19.3386 11.791 19.8327C10.2552 21.6651 8.78104 21.2636 8.54477 21.2173C3.75251 20.2857 2.03181 17.3107 1.25622 15.8746C0.131346 13.7798 -0.690479 7.99963 3.29537 3.43419L3.30564 3.42904Z" fill="white"/>
</mask>
<g mask="url(#mask1_1234_14289)">
<g style="mix-blend-mode:multiply" opacity="0.47">
<path d="M8.29836 -1.88813C5.51443 -3.0771 0.388301 0.20672 -0.361614 2.57437C-1.10126 4.91113 -2.0669 13.3677 -0.644116 15.4266C1.01494 17.8251 5.30384 22.3494 7.95422 23.3376C10.2707 24.2023 15.6177 15.4111 18.1037 15.1435C19.9426 14.9479 20.9339 12.5185 19.1002 11.4582C17.3076 10.4236 15.325 10.156 13.3474 9.62069C11.2415 9.04422 9.66978 8.48319 7.87717 7.20157C8.20076 7.43319 7.65631 6.99569 7.64603 6.99054C7.4868 6.84643 7.32758 6.70745 7.19917 6.5376C4.14301 2.56922 8.29836 -1.88813 8.29836 -1.88813Z" fill="#E7DBC6"/>
</g>
<g style="mix-blend-mode:multiply" opacity="0.47">
<path d="M6.2849 -0.498305C2.9822 -1.9086 -3.09416 1.98258 -3.97762 4.78772C-4.85081 7.55684 -6.00137 17.5782 -4.31149 20.023C-2.34939 22.8642 2.74079 28.2274 5.87913 29.401C8.6271 30.4252 14.9654 20.0076 17.9086 19.6885C20.0915 19.4568 21.2626 16.5796 19.0899 15.3238C16.9635 14.0988 14.611 13.7796 12.2688 13.1414C9.77252 12.462 7.90801 11.7929 5.78667 10.2745C6.1719 10.5524 5.52472 10.0326 5.51444 10.0274C5.3244 9.85758 5.13949 9.68772 4.98539 9.49214C1.36423 4.78772 6.29004 -0.493158 6.29004 -0.493158L6.2849 -0.498305Z" fill="#E7DBC6"/>
</g>
<g style="mix-blend-mode:multiply" opacity="0.47">
<path d="M3.67553 2.88812C0.377959 1.47782 -5.70354 5.37415 -6.587 8.17929C-7.46019 10.9484 -8.61074 20.9697 -6.92087 23.4146C-4.95876 26.2558 0.131412 31.619 3.26975 32.7925C6.01773 33.8168 12.356 23.3991 15.2992 23.08C17.4822 22.8484 18.6533 19.9712 16.4806 18.7153C14.3541 17.4903 12.0016 17.1712 9.65943 16.533C7.16314 15.8536 5.29863 15.1844 3.1773 13.6661C3.56253 13.944 2.91534 13.4241 2.90507 13.419C2.71502 13.2491 2.53011 13.0793 2.37602 12.8837C-1.24514 8.17929 3.68066 2.89841 3.68066 2.89841L3.67553 2.88812Z" fill="#E7DBC6"/>
</g>
</g>
<path opacity="0.41" d="M15.566 11.9987C14.6158 9.52301 12.1195 9.01345 9.7516 8.73037C9.70537 8.72522 9.56155 8.70463 9.45883 8.69434C9.21742 8.65831 8.98114 8.61713 8.73973 8.57595C7.91791 8.44728 7.09608 8.37522 6.26399 8.33404C4.91825 8.27228 3.05374 8.23625 1.89291 9.00316C1.256 9.42522 1.28168 10.259 1.89291 10.6862C2.78151 11.3039 3.60333 11.659 4.49706 12.2458C5.64248 12.9973 7.15258 13.8517 8.37504 14.5054C10.0238 15.3907 11.9294 15.5296 13.8248 15.0664C15.0472 14.7679 16.0437 13.2443 15.566 11.9987Z" fill="#F1E1CA"/>
<g style="mix-blend-mode:screen" opacity="0.4">
<path d="M2.69944 7.4336C3.4699 7.11449 4.09141 6.62551 4.9081 6.3939C5.79669 6.14169 6.71097 6.01816 7.63039 5.93066C9.6079 5.75051 11.8474 5.60125 13.7478 6.24463C16.7629 7.2586 18.1497 2.16816 15.0525 1.49904C12.4124 0.92772 9.41786 1.41669 6.85479 2.21963C5.05705 2.78066 1.63621 4.44831 1.88276 6.81081C1.91871 7.1814 2.27312 7.6086 2.69944 7.4336Z" fill="#F1E1CA"/>
</g>
<path d="M33.5643 20.4091C34.0677 20.2392 34.5043 19.9201 34.9203 19.5907C35.4186 19.1944 35.9014 18.7517 36.1993 18.1856C36.6205 17.3826 36.6256 16.4253 36.5075 15.5297C35.999 11.6951 34.4786 9.07526 31.52 6.59953C30.7496 5.951 29.9277 5.34365 28.9826 4.9885C27.2979 4.36056 24.4061 3.9385 22.7162 4.54585C21.7403 4.89585 20.785 5.36938 20.0607 6.1157C19.0489 7.1657 18.602 8.70982 18.792 10.1613C18.9821 11.6128 19.7731 12.951 20.8825 13.9032C21.011 14.0113 21.1496 14.1297 21.201 14.2892C21.2935 14.5929 21.0315 14.8863 20.7952 15.0973C19.9118 15.8848 19.0232 16.6723 18.1397 17.4598C17.9959 17.5885 17.8418 17.7326 17.8058 17.9231C17.7545 18.1958 17.9599 18.4378 18.1551 18.6334C19.9272 20.4142 22.0023 22.6789 24.401 23.4304C24.7092 23.5282 25.2999 23.4561 25.531 23.0238C25.9984 22.1436 27.6266 19.7657 28.618 19.6731C29.2343 19.6164 29.8353 19.8738 30.4157 20.0951C31.4224 20.476 32.5473 20.7642 33.5643 20.4142V20.4091Z" fill="#ECE8E0"/>
<path d="M22.0999 11.5049C21.73 10.5527 22.1101 9.97624 23.1066 9.85272C23.6048 9.79095 24.0517 9.81669 24.5294 9.96595C25.079 10.141 25.418 10.563 26.0395 10.6299C26.5172 10.6814 26.8151 10.2079 26.8562 9.80639C26.9692 8.75124 25.7621 8.17992 24.9197 7.97919C24.0414 7.7733 23.0758 7.84022 22.2539 8.2108C21.5811 8.51448 20.9236 9.03948 20.7747 9.80125C20.6154 10.6351 21.1445 11.2939 21.7968 11.7417C21.9406 11.8395 22.1666 11.6799 22.0999 11.5101V11.5049Z" fill="#D6BD9F"/>
<path d="M30.0097 17.2387C30.775 18.3401 32.1721 17.9438 32.9683 17.0688C34.0418 15.8901 33.7336 14.0166 32.8091 12.8688C32.0078 11.8754 30.395 13.1416 31.0524 14.2019C31.3452 14.6754 31.6945 15.1696 31.6071 15.7563C31.5147 16.3997 31.0781 16.9401 30.3693 16.7651C30.1176 16.7034 29.8351 16.9968 30.0046 17.2387H30.0097Z" fill="#D6BD9F"/>
<mask id="mask2_1234_14289" style="mask-type:luminance" maskUnits="userSpaceOnUse" x="17" y="4" width="20" height="20">
<path d="M33.5643 20.4091C34.0677 20.2392 34.5043 19.9201 34.9203 19.5907C35.4186 19.1944 35.9014 18.7517 36.1993 18.1856C36.6205 17.3826 36.6256 16.4253 36.5075 15.5297C35.999 11.6951 34.4786 9.07526 31.52 6.59953C30.7496 5.951 29.9277 5.34365 28.9826 4.9885C27.2979 4.36056 24.4061 3.9385 22.7162 4.54585C21.7403 4.89585 20.785 5.36938 20.0607 6.1157C19.0489 7.1657 18.602 8.70982 18.792 10.1613C18.9821 11.6128 19.7731 12.951 20.8825 13.9032C21.011 14.0113 21.1496 14.1297 21.201 14.2892C21.2935 14.5929 21.0315 14.8863 20.7952 15.0973C19.9118 15.8848 19.0232 16.6723 18.1397 17.4598C17.9959 17.5885 17.8418 17.7326 17.8058 17.9231C17.7545 18.1958 17.9599 18.4378 18.1551 18.6334C19.9272 20.4142 22.0023 22.6789 24.401 23.4304C24.7092 23.5282 25.2999 23.4561 25.531 23.0238C25.9984 22.1436 27.6266 19.7657 28.618 19.6731C29.2343 19.6164 29.8353 19.8738 30.4157 20.0951C31.4224 20.476 32.5473 20.7642 33.5643 20.4142V20.4091Z" fill="white"/>
</mask>
<g mask="url(#mask2_1234_14289)">
<path d="M36.6411 16.3995C36.148 17.4598 35.47 18.6848 34.4427 19.3024C33.0148 20.1568 31.3557 19.4105 29.9997 18.798C28.6386 18.1855 27.6575 18.3811 26.6097 19.4723C26.0498 20.059 25.6954 20.7951 25.3102 21.5002C24.8993 22.2465 24.2777 23.0237 24.3599 23.909C24.4318 24.7326 25.228 25.2627 25.9984 24.8561C26.7843 24.434 27.1079 23.5642 27.5342 22.8179C27.9246 22.1385 28.2482 21.5002 28.8389 20.9804C29.0392 20.862 28.957 20.8671 28.5872 20.9907C28.731 21.037 28.8748 21.0885 29.0135 21.1451C29.3987 21.2943 29.7686 21.4282 30.1743 21.5105C30.9448 21.6701 31.7153 21.6649 32.4857 21.5208C33.7955 21.2737 35.0591 20.8568 35.9117 19.7657C36.6308 18.8443 37.0931 17.7171 37.2163 16.5539C37.2472 16.2554 36.7695 16.1318 36.6462 16.3995H36.6411Z" fill="#D6BD9F"/>
<path d="M16.4139 18.2778C16.4447 18.2418 16.4755 18.2109 16.5063 18.1748C16.2598 18.1388 16.0133 18.1079 15.7667 18.0719C16.0903 18.7616 17.0508 19.2248 17.6466 19.6829C18.4685 20.3109 19.3314 20.8822 20.1018 21.5719C20.6925 22.1021 21.3962 22.8587 21.6427 23.6307C21.7455 23.9498 21.6222 24.3513 21.7249 24.6859C21.8842 25.2006 22.105 25.5712 22.5827 25.8388C23.4199 26.3072 24.3496 25.8697 24.6527 24.9947C24.9249 24.2072 24.5962 23.0748 24.2777 22.3388C23.836 21.3094 22.7573 20.3829 21.879 19.7344C20.8877 19.0035 19.8039 18.4322 18.6842 17.9226C17.8007 17.5212 16.7272 16.8212 15.8386 17.5109C15.6126 17.6859 15.6742 18.1337 15.9311 18.2521C15.9824 18.2778 16.0338 18.2984 16.0852 18.3241C16.1879 18.3704 16.3214 18.3807 16.4036 18.2829L16.4139 18.2778Z" fill="#D6BD9F"/>
</g>
<path d="M29.4239 10.1102C28.7253 10.5323 28.2631 11.1808 27.7391 11.7933C27.1125 12.5242 26.4756 13.2448 25.813 13.9396C25.4175 14.3565 25.0271 14.7426 24.5751 15.0977C24.3851 15.247 24.195 15.3962 23.9998 15.5455C23.8098 15.6896 23.8149 15.6845 24.0255 15.5301C23.8252 15.6793 23.6197 15.8286 23.4297 15.9882C22.5822 16.6984 22.6798 18.119 23.404 18.8602C24.195 19.6683 25.4586 19.6323 26.2701 18.8859C27.0714 18.1448 27.7905 17.2801 28.4069 16.3845C28.9513 15.5918 29.4907 14.7837 29.9324 13.9293C30.3947 13.0337 30.9391 11.958 30.8107 10.9234C30.7285 10.2698 30.0762 9.72418 29.4239 10.1205V10.1102Z" fill="#FAF6EE"/>
<path d="M23.9437 12.4364C23.9231 13.1981 22.9626 12.8996 22.4849 12.7658C21.7915 12.5702 21.3652 11.8702 21.0416 11.2731C20.1838 9.68268 20.4612 7.88121 22.3411 7.30989C23.5738 6.93415 25.0428 7.2018 26.2704 7.48489C27.534 7.77827 28.7411 8.31871 29.6297 9.24518C30.1279 9.76503 31.1911 9.56944 31.3247 8.80253C31.8332 5.94077 28.3969 5.21503 26.1831 5.05547C23.9231 4.89591 21.4268 5.47753 19.891 7.27386C18.3193 9.11136 18.9203 12.39 20.8618 13.7386C21.6888 14.315 22.7161 14.4952 23.692 14.243C24.6628 13.9908 24.9093 13.1261 24.4676 12.2974C24.3289 12.04 23.9488 12.1636 23.9437 12.4364Z" fill="#FAF6EE"/>
<path d="M27.2619 7.32039C27.416 8.90569 28.0632 10.352 28.0067 11.9682C27.9553 13.43 30.3438 13.7851 30.5852 12.3079C30.9293 10.2182 30.2462 8.17995 28.8799 6.58951C27.9399 5.49319 26.4298 6.66672 26.6507 7.87113C26.8305 8.85937 27.5033 9.64687 27.9656 10.5064C28.3097 11.1498 28.1197 11.6233 28.4227 12.2976C28.5871 11.6851 28.7566 11.0675 28.921 10.455C28.9158 10.455 28.9107 10.4601 28.9056 10.4652C28.1813 10.8616 27.9861 11.9836 28.6179 12.5601C28.6179 12.5601 28.6282 12.5704 28.6333 12.5704C29.1881 13.0748 29.9842 13.1108 30.5389 12.5858C31.2529 11.9116 30.9704 10.8822 30.7444 10.0535C30.4516 8.9829 29.4038 8.23657 29.2137 7.17113L26.9845 8.45275C27.8064 9.43069 28.1197 10.7123 28.0016 11.9682C28.8593 11.8498 29.7222 11.7366 30.58 11.6182C30.1897 9.9351 29.3113 8.0101 27.8937 6.94981C27.642 6.76451 27.226 7.01157 27.2568 7.31525L27.2619 7.32039Z" fill="#FAF6EE"/>
<path d="M35.475 16.5691C36.6153 14.7419 35.511 12.3331 34.571 10.6448C33.9906 9.60514 33.1996 8.7147 32.3367 7.90146C31.4276 7.04705 30.2154 6.09485 28.9056 6.13087C28.4022 6.14632 27.9194 6.48602 27.7859 6.98014C27.6009 7.6544 28.0786 8.0919 28.5512 8.46249C28.9929 8.80735 29.6298 8.99264 30.1126 9.29117C30.6982 9.65661 31.2067 10.1353 31.6998 10.614C33.3332 12.1993 34.7765 13.9904 34.8176 16.3838C34.8227 16.7338 35.285 16.8522 35.4648 16.5588L35.475 16.5691Z" fill="#FAF6EE"/>
<path d="M34.2057 11.8647C33.8924 10.7015 32.7265 10.1198 31.6889 9.70808C31.1701 9.50219 30.3175 9.57425 29.8449 9.88822C29.1772 10.336 28.9666 10.7787 28.7149 11.5147C28.4735 12.2198 29.3005 12.6985 29.8758 12.4154C30.2713 12.2198 30.9339 11.9162 31.4013 11.8956C32.0176 11.8647 32.8651 12.1941 33.3993 12.4823C33.8154 12.7037 34.3341 12.3485 34.2057 11.8698V11.8647Z" fill="#FAF6EE"/>
<path d="M29.3417 13.0696C29.8399 12.7351 30.3124 12.3645 30.8518 12.102C31.4116 11.824 32.0691 11.9321 32.67 11.9682C33.9233 12.0402 33.9079 9.92992 32.6598 10.0277C31.7917 10.0946 30.9545 10.1409 30.2662 10.7432C29.6755 11.263 29.3263 11.9887 28.9256 12.6527C28.7715 12.9049 29.0848 13.2498 29.3417 13.0748V13.0696Z" fill="#FAF6EE"/>
<path d="M22.089 7.27925C23.5066 7.15057 24.8678 7.49542 26.0697 8.2469C26.6501 8.60719 27.174 9.06528 27.6312 9.56969C28.0832 10.069 28.3503 10.7278 29.0026 11.0212C29.5368 11.2579 30.1429 11.0881 30.3226 10.4859C30.8671 8.65351 28.4633 7.07851 27.061 6.50719C25.4379 5.84322 23.4553 5.82778 21.9657 6.80572C21.7705 6.93439 21.8168 7.31013 22.0941 7.28439L22.089 7.27925Z" fill="#FAF6EE"/>
<path d="M27.1793 13.95C28.2271 13.5383 29.1927 12.3647 29.5215 11.289C29.9272 9.97651 29.8399 7.8868 28.1809 7.52136C27.7443 7.42357 27.1947 7.65004 27.1022 8.13901C27.0098 8.63827 27.0817 9.02945 27.282 9.48754C27.4566 9.88901 27.4053 10.3728 27.4053 10.8052C27.4053 11.7265 27.3693 12.7611 26.9019 13.5794C26.8043 13.7544 26.9687 14.0324 27.1793 13.9449V13.95Z" fill="#FAF6EE"/>
<path d="M25.5309 10.5368C25.7672 10.6038 26.0035 10.5729 26.2449 10.6038C26.173 10.4802 26.1011 10.3567 26.0343 10.2332C26.0189 10.264 25.9983 10.3207 25.9675 10.3413C25.9059 10.3876 25.9778 10.331 26.0086 10.3413C26.0651 10.3567 26.0805 10.3979 26.0394 10.331C25.9675 10.2229 25.8494 10.1663 25.721 10.1971C25.5874 10.2332 25.4641 10.403 25.5206 10.542C25.6182 10.7788 25.7929 10.9229 26.06 10.8765C26.2757 10.8354 26.4144 10.6089 26.4811 10.4185C26.5479 10.2383 26.3476 10.0736 26.1781 10.1148C25.9624 10.1714 25.7466 10.2229 25.5309 10.2795C25.4025 10.3104 25.4076 10.4957 25.5309 10.5317V10.5368Z" fill="#95877B"/>
<path d="M31.1089 13.5324C31.0524 13.6096 30.9703 13.6457 30.9189 13.728C30.7802 13.9596 31.0627 14.2787 31.299 14.114C31.3914 14.0523 31.4634 13.9493 31.4634 13.8309C31.4634 13.6868 31.3606 13.5376 31.2168 13.5015C31.0781 13.4655 30.924 13.5221 30.8521 13.6508C30.811 13.728 30.8008 13.8052 30.7956 13.8927C30.7751 14.2015 31.2117 14.2942 31.3606 14.0471C31.376 14.0162 31.4017 13.9699 31.4069 13.9442C31.4223 13.8618 31.4377 13.9133 31.3452 14.0214C31.299 14.0471 31.2528 14.0729 31.2065 14.0986C31.2065 14.0986 31.2065 14.0986 31.2117 14.0986C31.1603 14.0986 31.1038 14.0986 31.0524 14.0986C30.9959 14.0729 30.9805 14.0677 31.0165 14.0832C30.9703 14.0008 30.9189 13.9133 30.8727 13.8309C30.8727 13.8721 30.8727 13.8618 30.8829 13.7949C31.0627 13.7949 31.2425 13.7949 31.4223 13.7949C31.4171 13.7589 31.3863 13.728 31.3812 13.6971C31.376 13.6508 31.3658 13.6096 31.3555 13.5633C31.3247 13.4295 31.1603 13.4346 31.0935 13.5273L31.1089 13.5324Z" fill="#95877B"/>
<path d="M25.0176 13.6301C23.8979 14.6029 22.9374 15.7353 21.8382 16.7287C21.7252 16.8316 21.8793 17.0426 22.0025 16.95C23.2096 16.0595 24.1033 14.8345 25.1768 13.7948C25.2847 13.6919 25.1255 13.5323 25.0125 13.6301H25.0176Z" fill="#F2E9DD"/>
<path d="M25.3765 14.1295C24.4982 15.3184 23.2911 16.178 22.3923 17.3464C22.2947 17.4699 22.495 17.614 22.6029 17.5111C23.6507 16.492 24.8218 15.5243 25.5409 14.2324C25.6025 14.1192 25.4484 14.0317 25.3714 14.1346L25.3765 14.1295Z" fill="#F2E9DD"/>
<path d="M27.5084 16.0594C26.5222 17.6447 25.007 19.1168 24.4779 20.944C24.4368 21.0778 24.6474 21.1705 24.7091 21.0418C25.5463 19.3021 26.702 17.8146 27.6317 16.1315C27.6779 16.0543 27.5598 15.9822 27.5084 16.0594Z" fill="#F2E9DD"/>
<path d="M26.8042 16.0749C25.7667 17.3154 24.6983 18.7051 24.1538 20.244C24.0973 20.4087 24.3439 20.5014 24.4261 20.3573C25.2633 18.9521 25.9927 17.5212 26.9737 16.2087C27.0456 16.111 26.8813 15.9823 26.8042 16.0749Z" fill="#F2E9DD"/>
<path d="M25.4283 13.7285C26.2758 12.9513 26.9795 11.8395 27.0822 10.6711C27.0925 10.5527 26.9178 10.5116 26.8613 10.6094C26.6456 11.0057 26.5275 11.4329 26.3734 11.855C26.1371 12.5035 25.757 13.08 25.2896 13.5895C25.2074 13.6822 25.3307 13.816 25.4283 13.7285Z" fill="#F2E9DD"/>
<path d="M27.4472 10.7431C27.2417 12.1791 26.4148 13.2703 25.4543 14.3048C25.3618 14.4026 25.5005 14.5416 25.5981 14.4541C26.6921 13.4659 27.4729 12.2563 27.6424 10.7688C27.6526 10.6556 27.4626 10.6298 27.4472 10.7431Z" fill="#F2E9DD"/>
<path d="M20.9184 10.5625C20.7438 9.8676 21.3088 9.10584 21.7197 8.59628C22.2128 7.98893 22.8343 7.86025 23.5791 7.86025C24.3033 7.86025 25.0224 7.95804 25.6953 8.25143C26.0856 8.42642 26.3579 8.72495 26.5684 9.08525C26.815 9.50216 26.4914 9.93966 26.3476 10.3102C26.2808 10.4801 26.5171 10.6705 26.666 10.5573C27.5546 9.88304 27.8371 9.16245 27.1129 8.19995C26.363 7.20142 24.9864 6.95437 23.8153 6.94922C22.8394 6.94922 21.8943 7.20657 21.3036 8.03525C20.7746 8.77643 20.2918 9.74407 20.7284 10.6345C20.7797 10.7426 20.9441 10.6654 20.9133 10.5573L20.9184 10.5625Z" fill="#F2E9DD"/>
<path d="M31.587 17.9795C33.7751 18.0413 34.561 15.6993 34.4377 13.8567C34.3709 12.8736 33.6159 11.7721 32.6348 11.4891C31.6024 11.1905 30.7241 11.9729 30.5649 12.9971C30.5135 13.3214 30.8474 13.5324 31.1093 13.3163C31.664 12.8582 31.8438 12.0552 32.7016 12.5854C33.4258 13.0332 33.5645 13.8258 33.5491 14.6082C33.5286 15.9516 33.0714 17.6038 31.5665 17.8611C31.4945 17.8714 31.5151 17.9795 31.5819 17.9795H31.587Z" fill="#F2E9DD"/>
<path d="M19.1467 17.4032C19.9531 16.9863 20.6876 16.4922 21.4016 15.9311C21.4786 15.8694 21.381 15.7407 21.2988 15.7922C20.5592 16.2914 19.835 16.8164 19.0799 17.2797C19.0029 17.326 19.0696 17.4444 19.1518 17.4032H19.1467Z" fill="#F2E9DD"/>
<path d="M20.071 16.8216C20.6309 16.3223 21.1753 15.8128 21.6941 15.2723C21.7609 15.2003 21.6581 15.0973 21.5914 15.1642C21.052 15.6841 20.5487 16.2348 20.035 16.7856C20.0145 16.8113 20.0453 16.8422 20.071 16.8216Z" fill="#D6BD9F"/>
<path d="M24.9451 17.8252C24.4417 18.7104 23.8459 19.5391 23.399 20.4502C23.3682 20.5119 23.4555 20.5685 23.4966 20.5068C24.0205 19.6369 24.5393 18.7619 24.9708 17.8406C24.981 17.82 24.9554 17.8046 24.94 17.8252H24.9451Z" fill="#D6BD9F"/>
<path d="M21.3699 15.8596C20.7073 16.4979 20.055 17.0743 19.3 17.5993C19.2383 17.6457 19.2897 17.7383 19.3616 17.7023C20.1834 17.3265 20.8255 16.5648 21.4213 15.9163C21.4521 15.8802 21.4059 15.8288 21.3699 15.8648V15.8596Z" fill="#D6BD9F"/>
<path d="M22.4749 15.6691C21.8277 16.5132 20.8518 17.0588 20.256 17.9338C20.1943 18.0265 20.3279 18.1294 20.4101 18.0522C21.1651 17.3265 22.0024 16.6059 22.6136 15.7463C22.6752 15.6588 22.5365 15.5816 22.4749 15.664V15.6691Z" fill="#FAF6EE"/>
<path d="M22.2329 16.6986C21.8014 17.1773 21.0977 17.4861 20.8923 18.1347C20.8666 18.217 20.9847 18.2633 21.0258 18.1913C21.37 17.6354 21.935 17.2906 22.3048 16.7553C22.3356 16.7089 22.2688 16.6575 22.2329 16.6986Z" fill="#FAF6EE"/>
<path d="M22.1669 17.5889C21.8279 17.8926 21.4838 18.1911 21.2321 18.5771C21.2013 18.6235 21.2732 18.6852 21.3143 18.6389C21.607 18.2992 21.9306 17.9852 22.2542 17.6764C22.3107 17.6249 22.2285 17.5374 22.172 17.5889H22.1669Z" fill="#FAF6EE"/>
<path d="M24.5393 16.6571C24.9913 16.1063 25.5614 15.7563 25.9723 15.1541C26.4551 14.4387 26.7531 13.5534 26.9585 12.7299C27.3026 11.335 27.5543 9.95561 26.9739 8.60193C26.4603 7.40267 25.1505 6.85708 24.0102 6.45561C22.7775 6.02325 21.329 6.2909 20.6253 7.45414C20.4712 7.71149 20.7897 8.07693 21.0516 7.88649C22.8032 6.63061 25.7052 7.64458 26.2497 9.71369C26.5322 10.7946 26.0083 12.3696 25.6847 13.4041C25.4895 14.0269 25.2378 14.6394 24.9656 15.2313C24.7601 15.674 24.4057 16.0137 24.2157 16.4718C24.1438 16.6519 24.4211 16.8115 24.5444 16.6622L24.5393 16.6571Z" fill="#FAF6EE"/>
<path d="M26.1578 7.10888C27.0053 7.9427 27.1851 9.2552 27.1542 10.3927C27.1337 11.314 27.2621 12.6934 26.5584 13.3934C26.8461 13.5633 27.1388 13.7331 27.4265 13.903C27.8579 11.628 28.4281 9.12138 27.3135 6.94932C27.0001 6.34197 26.091 6.87211 26.3992 7.47432C27.37 9.35814 26.7896 11.6589 26.4197 13.6302C26.3273 14.1192 26.9026 14.5309 27.2878 14.1398C28.2277 13.1978 28.161 11.6228 28.1302 10.3876C28.0993 9.02873 27.6422 7.50006 26.43 6.74859C26.2091 6.60961 25.9677 6.92358 26.1526 7.10373L26.1578 7.10888Z" fill="#FAF6EE"/>
<path d="M26.1211 7.26355C26.0646 7.26355 25.9978 7.20693 26.044 7.26355C26.0697 7.29443 26.0954 7.32532 26.1211 7.3562C26.1981 7.44884 26.3009 7.5312 26.383 7.6187C26.4652 7.70105 26.5423 7.7834 26.6245 7.8709C26.6604 7.90693 26.6964 7.94811 26.7323 7.98414C26.7426 7.99958 26.8453 8.1334 26.7991 8.06134C27.0354 7.92237 27.2768 7.78855 27.5131 7.64958C27.3898 7.41282 27.1278 7.29443 26.9018 7.16576L26.7786 8.06134C26.9121 8.02531 26.984 7.95326 27.097 7.88634C27.3179 7.75252 27.2973 7.46429 27.097 7.32531C27.0405 7.28414 27.0611 7.32531 26.9994 7.24296C26.8351 7.03193 26.4806 7.06281 26.306 7.23781C26.1005 7.43855 26.1005 7.88634 26.3985 8.00987C26.6347 8.11281 26.8916 8.27752 27.1535 8.26208C27.5233 8.24664 27.7596 7.67017 27.359 7.49517C27.1176 7.38708 26.9018 7.1812 26.6861 7.03193C26.5115 6.9084 26.2803 6.73855 26.0492 6.77973C25.7667 6.82605 25.8437 7.2584 26.116 7.26355H26.1211Z" fill="#FAF6EE"/>
<path d="M33.7949 18.51C34.9455 17.9233 35.793 16.585 35.7365 15.2674C35.7262 15.0718 35.4745 14.9997 35.3718 15.1696C35.1098 15.5865 35.0174 16.0549 34.889 16.5233C34.6835 17.249 34.2726 17.8306 33.6511 18.2527C33.497 18.3608 33.6254 18.5975 33.7949 18.51Z" fill="#FAF6EE"/>
<path d="M33.9907 18.1239C34.8536 16.9297 35.2697 15.9724 35.0488 14.4746C34.8742 13.3011 34.5814 11.9937 33.3281 11.5459C32.2443 11.1599 31.1811 11.3709 30.2822 12.0864C29.4604 12.7452 28.5307 13.6974 28.0428 14.6393C27.8527 15.0047 28.2225 15.3856 28.5923 15.2003C29.9586 14.5106 30.4569 12.5187 32.1724 12.39C33.3641 12.3025 33.8315 13.3114 34.0986 14.2841C34.4684 15.6327 34.4119 16.7341 33.7544 17.9797C33.6671 18.1393 33.888 18.2628 33.9958 18.1239H33.9907Z" fill="#FAF6EE"/>
<path d="M28.4224 15.7715C29.3418 14.9634 30.1071 13.9906 31.119 13.2855C31.7508 12.8428 32.4185 12.7193 33.153 12.9355C33.718 13.1002 34.1803 13.5428 34.7299 13.7641C35.0483 13.8928 35.2538 13.4862 35.1357 13.2391C34.4679 11.8391 32.6137 11.5252 31.309 12.0811C29.8195 12.7141 29.1312 14.4024 28.2529 15.6377C28.1758 15.7458 28.3351 15.8487 28.4224 15.7715Z" fill="#FAF6EE"/>
<path d="M32.0696 12.3954C32.6243 12.7402 33.2509 12.9616 33.8211 13.2858C34.4118 13.6204 34.8895 14.1763 35.5366 14.3925C35.7678 14.4697 35.9681 14.1866 35.85 13.9858C35.2285 12.9358 33.3331 12.1123 32.1466 12.1123C31.9925 12.1123 31.9463 12.3182 32.0696 12.3954Z" fill="#FAF6EE"/>
<path d="M29.3984 15.833C27.5904 17.4749 29.8144 19.122 31.4581 19.5183C32.7113 19.8169 33.7181 19.1786 34.5142 18.2624C35.5312 17.0992 35.7778 15.9205 35.634 14.4176C35.5929 13.9647 35.0689 13.8257 34.8019 14.1911C34.3242 14.8499 34.5399 15.5602 34.3344 16.3066C34.1187 17.0992 33.2815 18.108 32.5162 18.4117C31.8433 18.6794 30.9804 18.3705 30.3537 18.0977C29.3984 17.6757 29.0902 16.9602 29.6552 16.0389C29.7579 15.8691 29.5319 15.7044 29.3932 15.833H29.3984Z" fill="#FAF6EE"/>
</svg>
