<svg viewBox="0 0 38 33" fill="none" xmlns="http://www.w3.org/2000/svg">
<path d="M7.78964 6.54946C7.36354 5.89334 6.94875 5.32018 6.3228 4.83375C5.82129 4.44536 5.11238 3.80055 4.42986 3.98155C4.28657 4.01926 4.24887 4.17009 4.30543 4.29075C4.55053 4.83375 5.29338 5.05623 5.7685 5.36543C6.39068 5.77645 7.04679 6.20255 7.61241 6.68521C7.70668 6.7644 7.8726 6.66258 7.79718 6.54569L7.78964 6.54946Z" fill="#686B2D"/>
<path d="M5.06338 22.7114C7.88771 25.8826 12.5484 26.8479 16.7604 26.3125C18.3969 26.1051 20.0447 25.6827 21.4211 24.774C22.3223 24.1782 23.0765 23.3939 23.8268 22.6133C24.8827 21.516 25.9536 20.3923 26.6021 19.0122C27.1791 17.7867 27.3865 16.4217 27.4279 15.068C27.5411 11.4216 26.4287 7.70737 24.1134 4.88682C21.7982 2.06627 18.2574 0.226119 14.611 0.211036C10.1351 0.192182 5.93067 2.89207 3.38915 6.57613C1.73 8.9819 0.670411 11.8967 0.915513 14.8078C1.09651 16.9835 1.99773 19.0612 3.28734 20.8184C3.94346 21.7083 4.32808 21.8818 5.06338 22.7076V22.7114Z" fill="#EA7224"/>
<mask id="mask0_1235_16512" style="mask-type:luminance" maskUnits="userSpaceOnUse" x="0" y="0" width="28" height="27">
<path d="M5.06387 22.7114C7.8882 25.8826 12.5489 26.8479 16.7609 26.3125C18.3974 26.1051 20.0452 25.6827 21.4216 24.774C22.3228 24.1782 23.0769 23.3939 23.8273 22.6133C24.8832 21.516 25.9541 20.3923 26.6026 19.0122C27.1796 17.7867 27.387 16.4217 27.4284 15.068C27.5416 11.4216 26.4292 7.70737 24.1139 4.88682C21.7986 2.06627 18.2579 0.226119 14.6115 0.211036C10.1356 0.192182 5.93115 2.89207 3.38964 6.57613C1.73049 8.9819 0.6709 11.8967 0.916001 14.8078C1.097 16.9835 1.99822 19.0612 3.28783 20.8184C3.94395 21.7083 4.32857 21.8818 5.06387 22.7076V22.7114Z" fill="white"/>
</mask>
<g mask="url(#mask0_1235_16512)">
<g style="mix-blend-mode:screen" opacity="0.14">
<path d="M9.57336 0.857725C9.99569 1.13676 10.5764 1.16316 11.0591 1.27628C11.7076 1.42334 12.3449 1.43089 12.9897 1.6232C14.1209 1.96634 15.2371 2.5395 16.3796 3.13906C16.9679 3.44826 17.5184 3.80649 18.069 4.17602C18.1708 4.2439 18.4687 4.51163 18.0576 4.16094C18.1444 4.23636 18.2349 4.30423 18.3216 4.38342C18.5818 4.61344 18.8231 4.86231 19.0607 5.11495C19.4302 5.51466 19.7696 5.94453 20.1316 6.35177C20.5426 6.81935 20.0637 6.31029 20.0675 6.24996C20.0675 6.29521 20.2937 6.55917 20.339 6.62327C20.5162 6.87591 20.6859 7.1361 20.848 7.40005C21.1535 7.90157 21.4061 8.42194 21.6625 8.94985C21.8699 9.37218 21.4325 8.32389 21.5833 8.76508C21.621 8.87443 21.6663 8.98001 21.704 9.08937C21.8247 9.41742 21.9378 9.74548 22.0396 10.0811C22.1188 10.3413 22.1904 10.6052 22.2545 10.8692C22.3186 11.1369 22.3224 11.612 22.4506 11.8496C22.4468 11.842 22.3752 11.0992 22.4054 11.5102C22.4167 11.6799 22.4393 11.8458 22.4506 12.0155C22.477 12.3963 22.4883 12.7772 22.4846 13.1543C22.4846 13.4522 22.4657 13.7463 22.4431 14.0442C22.4318 14.1724 22.4205 14.2968 22.4091 14.425C22.345 15.1716 22.4242 14.1724 22.4431 14.1762C22.4695 14.1799 22.0585 15.9899 22.017 16.1596C21.9416 16.4462 21.8586 16.7328 21.7681 17.0118C21.7153 17.1739 21.6588 17.3323 21.6022 17.4907C21.5532 17.6227 21.3382 18.1468 21.5607 17.6264C21.7681 17.1325 21.5909 17.5435 21.5494 17.6377C21.3759 18.0186 21.2289 18.3957 21.0743 18.7765C21.112 18.6823 21.4438 17.996 21.1422 18.5767C21.063 18.7275 20.9913 18.8821 20.9121 19.0329C20.2258 20.3376 19.4604 21.665 18.5931 22.8565C18.4046 23.1129 18.6157 22.8264 18.6459 22.7887C18.4234 23.0752 18.1934 23.3543 17.9898 23.6559C17.7824 23.9614 17.5938 24.2781 17.3864 24.5873C16.9792 25.1944 16.6323 25.8241 16.2741 26.4614C15.6293 27.5926 16.6888 28.7955 17.8842 28.5542C19.4868 28.2299 21.0592 27.7623 22.4695 26.9101C23.8722 26.0617 25.3164 25.168 26.3685 23.886C27.6769 22.2909 28.6159 20.6544 29.2607 18.686C29.781 17.091 29.9884 15.3413 29.9432 13.6671C29.8527 10.3639 28.8685 7.0833 26.8813 4.42112C24.8451 1.6873 22.2508 -0.186783 19.0418 -1.34442C17.2545 -1.98922 15.2899 -2.31728 13.3856 -2.21924C12.4844 -2.17022 11.3569 -2.09103 10.5764 -1.58575C9.93913 -1.17473 9.26793 -0.545007 9.21137 0.235547C9.19251 0.499502 9.36597 0.725749 9.57336 0.865268V0.857725Z" fill="#F9B93B"/>
</g>
<g style="mix-blend-mode:multiply" opacity="0.2">
<path d="M9.39255 -0.228512C8.39329 -1.37483 6.48905 -0.277532 5.47847 0.325794C4.3774 0.989454 3.35552 1.9133 2.50709 2.87862C0.61038 5.03551 -0.826291 7.75802 -1.3806 10.5861C-2.62873 16.9361 0.731046 23.6595 5.7198 27.5132C7.14139 28.6143 8.78546 29.4702 10.5351 29.9303C11.425 30.1641 12.3715 30.3111 13.2916 30.2621C13.8609 30.2319 14.4303 30.149 14.9318 29.8624C15.1279 29.7493 15.3466 29.5909 15.5088 29.4325C15.5427 29.3948 15.5767 29.3609 15.6106 29.3232C15.965 28.882 15.9952 28.8292 15.7049 29.1723C16.3572 28.7576 16.5156 27.8413 15.95 27.2756C15.9726 27.3209 15.9952 27.3624 16.0178 27.4076C16.1536 27.6829 16.1159 27.5773 15.9009 27.1022C15.8595 27.023 15.8331 26.9476 15.784 26.8722C15.5088 26.4385 15.1732 26.1029 14.7471 25.8163C14.2531 25.4807 13.7365 25.1791 13.2312 24.8623C12.7486 24.5607 12.2848 24.2326 11.8172 23.9046C11.4363 23.6331 12.1679 24.2288 11.836 23.9121C11.7418 23.8216 11.6362 23.7462 11.5419 23.6595C11.2817 23.4294 11.0291 23.1919 10.7689 22.9619C9.84882 22.1323 9.07204 21.2084 8.28771 20.2582C8.06524 19.9905 7.77866 19.719 8.18967 20.1564C7.98228 19.9377 7.82013 19.6549 7.65045 19.4098C7.30354 18.9045 6.97548 18.3841 6.66627 17.8524C6.3533 17.3094 6.07049 16.7514 5.78014 16.1971C5.6557 15.9595 5.55012 15.7106 5.42568 15.4731C5.19566 15.0357 5.61422 16.0161 5.45585 15.5485C5.39929 15.3788 5.32764 15.2129 5.27108 15.0394C5.06746 14.4436 4.90531 13.8365 4.79219 13.2219C4.77333 13.1201 4.70169 12.9278 4.72431 12.826C4.72431 12.8448 4.77711 13.4142 4.75448 13.0183C4.7394 12.743 4.69792 12.464 4.66021 12.1887C4.59611 11.7136 4.58479 11.6231 4.62627 11.9172C4.65267 12.1171 4.65644 12.1246 4.63759 11.9361C4.6225 11.3516 4.56217 10.7784 4.58102 10.194C4.59234 9.88475 4.62627 9.57932 4.64513 9.27011C4.66775 8.95336 4.64513 9.27388 4.63382 9.33044C4.67152 9.10797 4.70923 8.88549 4.75825 8.66679C4.8676 8.14265 5.03729 7.63359 5.23337 7.13585C5.08631 7.5167 5.36912 6.84549 5.42191 6.74368C5.56143 6.46087 5.70849 6.18561 5.86686 5.91411C6.49659 4.83566 7.04335 4.23234 7.92572 3.30472C8.78169 2.40727 10.5879 1.14028 9.40387 -0.2172L9.39255 -0.228512Z" fill="#EA7224"/>
</g>
</g>
<mask id="mask1_1235_16512" style="mask-type:luminance" maskUnits="userSpaceOnUse" x="0" y="0" width="28" height="27">
<path d="M5.06387 22.7114C7.8882 25.8826 12.5489 26.8479 16.7609 26.3125C18.3974 26.1051 20.0452 25.6827 21.4216 24.774C22.3228 24.1782 23.0769 23.3939 23.8273 22.6133C24.8832 21.516 25.9541 20.3923 26.6026 19.0122C27.1796 17.7867 27.387 16.4217 27.4284 15.068C27.5416 11.4216 26.4292 7.70737 24.1139 4.88682C21.7986 2.06627 18.2579 0.226119 14.6115 0.211036C10.1356 0.192182 5.93115 2.89207 3.38964 6.57613C1.73049 8.9819 0.6709 11.8967 0.916001 14.8078C1.097 16.9835 1.99822 19.0612 3.28783 20.8184C3.94395 21.7083 4.32857 21.8818 5.06387 22.7076V22.7114Z" fill="white"/>
</mask>
<g mask="url(#mask1_1235_16512)">
<g style="mix-blend-mode:multiply" opacity="0.25">
<path d="M29.7728 13.1338C29.7011 12.885 29.5767 12.6436 29.4636 12.4136C29.358 12.1987 29.3881 12.0328 29.3768 12.2967C29.3278 11.9196 29.2034 11.5614 29.0111 11.2635C29.0261 10.7205 28.7999 10.1775 28.3361 9.83438C27.597 9.28007 26.7335 9.40451 26.0434 9.97013C24.8896 10.9166 23.6905 11.799 22.4461 12.6172C21.3827 13.3186 20.2704 14.0954 19.0298 14.4498C16.7107 15.1097 13.992 14.7553 11.7635 13.9106C9.59902 13.0886 7.72871 11.5614 6.67289 9.48747C6.44664 9.03874 6.24679 8.55608 6.08842 8.05834C6.00546 7.38714 5.90365 6.72348 5.73773 6.06736C5.70379 5.93916 5.66986 5.81849 5.63969 5.69782C5.62084 5.32828 5.62838 4.95875 5.67363 4.60429C5.70002 4.41198 5.87725 3.11483 5.98283 3.08466C6.85389 2.83956 6.72191 1.38404 5.76036 1.45568C5.13063 1.50093 4.68945 1.8667 4.35385 2.34559C3.41115 2.1118 2.61175 2.70004 2.28746 3.55601C2.24598 3.66537 2.21581 3.77095 2.18565 3.8803C1.95563 4.62315 1.77086 5.38107 1.63511 6.14655C0.797995 6.11638 0.00989908 6.62921 -0.22389 7.47387C-1.12888 10.7545 -0.962965 14.3933 0.126794 17.606C0.692412 19.2651 1.47674 20.9431 2.53633 22.3911C2.57027 22.7418 2.71733 23.0887 2.96997 23.3715C4.65174 25.2494 6.39008 27.6024 8.98438 28.1906C11.3864 28.7374 14.1541 28.3565 16.5297 27.8361C21.1829 26.818 25.5495 24.1295 27.8383 19.8458C28.5058 18.5977 28.9997 17.2402 29.2599 15.845C29.4862 15.4868 29.6747 15.1173 29.7841 14.7326C29.9349 14.216 29.9236 13.6542 29.7728 13.1414V13.1338Z" fill="#EA7224"/>
</g>
<g style="mix-blend-mode:multiply" opacity="0.14">
<path d="M31.5075 18.6723C31.4208 18.4121 31.27 18.1557 31.1305 17.9106C31.0023 17.6844 31.04 17.5109 31.0286 17.7899C30.9683 17.3902 30.8213 17.0132 30.5837 16.7002C30.6026 16.127 30.3273 15.5576 29.7692 15.1919C28.8755 14.6074 27.831 14.7356 26.9977 15.3352C25.6025 16.3307 24.1507 17.262 22.6462 18.1255C21.3603 18.8646 20.0142 19.6829 18.5172 20.0562C15.7117 20.75 12.4273 20.3805 9.73122 19.4868C7.11429 18.6195 4.85181 17.0132 3.57729 14.8261C3.30202 14.3548 3.06446 13.8419 2.86838 13.3178C2.77034 12.6089 2.6459 11.9113 2.44605 11.2175C2.40834 11.0855 2.36686 10.9535 2.32538 10.8253C2.30276 10.4369 2.3103 10.0447 2.36686 9.67143C2.39703 9.46781 2.61196 8.10278 2.74017 8.06885C3.79599 7.80866 3.63385 6.27395 2.47244 6.34937C1.71074 6.39839 1.17529 6.783 0.771816 7.28829C-0.370734 7.04319 -1.33229 7.6616 -1.72445 8.56282C-1.77347 8.67594 -1.81118 8.78907 -1.84888 8.90596C-2.12792 9.68652 -2.3504 10.4859 -2.51254 11.2966C-3.52689 11.2627 -4.47713 11.8019 -4.75994 12.6956C-5.85347 16.1534 -5.65738 19.9883 -4.33384 23.3745C-3.65132 25.1241 -2.70108 26.8889 -1.42279 28.4198C-1.38508 28.7893 -1.20408 29.1551 -0.898645 29.453C1.13381 31.4327 3.23791 33.9101 6.37521 34.5323C9.27872 35.1092 12.6272 34.7057 15.5005 34.159C21.1266 33.0843 26.4094 30.2486 29.1734 25.7388C29.9804 24.4228 30.5762 22.9936 30.8891 21.5193C31.1606 21.1422 31.3869 20.7538 31.5226 20.3465C31.7036 19.8036 31.6885 19.2078 31.5075 18.6685V18.6723Z" fill="#EA7224"/>
</g>
<g style="mix-blend-mode:multiply" opacity="0.14">
<path d="M33.1104 20.0789C32.9935 19.8301 32.8163 19.5925 32.6504 19.3663C32.4958 19.1551 32.5146 18.9779 32.5335 19.2569C32.4279 18.8685 32.2394 18.5103 31.9679 18.2237C31.9226 17.6505 31.5833 17.1151 30.9837 16.821C30.0297 16.3421 29.0078 16.591 28.2461 17.281C26.9753 18.4311 25.6405 19.5209 24.2415 20.5503C23.0462 21.4327 21.8056 22.398 20.3576 22.941C17.6502 23.9515 14.3432 23.9591 11.5641 23.3784C8.86423 22.8165 5.4215 21.1235 3.90187 19.0948C3.57381 18.6574 -0.815388 11.2628 -0.992616 12.1791C-1.68644 15.7388 -3.66611 25.6333 -1.96548 28.846C-1.08689 30.5052 0.0556643 32.153 1.50365 33.5256C1.58661 33.8913 1.80531 34.2307 2.14091 34.4909C4.3883 36.2255 6.75636 38.4465 9.94645 38.7067C12.899 38.948 16.1758 38.1674 18.97 37.2926C24.4376 35.5844 29.3585 32.1643 31.5908 27.3641C32.2394 25.9651 32.6692 24.4757 32.8163 22.9787C33.0426 22.5752 33.2235 22.1604 33.314 21.7419C33.4347 21.18 33.3518 20.5918 33.1104 20.0752V20.0789Z" fill="#EA7224"/>
</g>
</g>
<g style="mix-blend-mode:screen" opacity="0.11">
<path d="M25.8253 13.975C25.6217 9.3407 23.4233 4.57818 19.0982 2.45146C18.3742 2.097 17.4919 1.7614 16.5982 1.59549C16.108 1.43334 15.5876 1.36547 15.0258 1.44089C14.611 1.49368 14.2452 1.62565 13.9285 1.82174C13.3138 2.12717 12.8199 2.66639 12.5446 3.53368C12.1411 4.78558 12.5936 6.06011 13.3968 7.03297C13.7475 7.4553 14.166 7.80598 14.5808 8.16421C15.2181 9.17101 15.8139 10.2042 16.3531 11.2676C16.8508 12.248 16.9564 13.0851 16.8961 14.1824C16.8282 15.4154 16.7151 16.7013 17.1261 17.8929C18.0235 20.4909 20.8177 21.5731 23.2649 20.3024C25.6028 19.0844 25.9309 16.3506 25.8253 13.9788V13.975Z" fill="white"/>
</g>
<g style="mix-blend-mode:screen" opacity="0.11">
<path d="M19.5918 7.58605C19.6144 7.5672 19.6333 7.55212 19.6559 7.53326C19.7653 7.43145 19.8407 7.31079 19.8859 7.17504C19.9576 7.04306 19.9877 6.89977 19.984 6.74517C19.9727 6.46236 19.8822 6.14561 19.6559 5.9533C19.6333 5.93445 19.6144 5.91936 19.5918 5.90051C19.5126 5.84018 19.4297 5.77607 19.3505 5.71197C19.2562 5.67049 19.1619 5.63278 19.0639 5.5913C18.9055 5.54228 18.7472 5.53474 18.5888 5.56868C18.4794 5.56868 18.3814 5.59507 18.2871 5.65163C18.1853 5.6818 18.0986 5.73082 18.0232 5.80624C17.9327 5.85903 17.861 5.93067 17.8082 6.02117C17.7328 6.09659 17.6838 6.18332 17.6536 6.28513C17.5782 6.42842 17.5443 6.57925 17.5518 6.74517C17.5669 6.85075 17.582 6.95633 17.5933 7.06191C17.6348 7.15618 17.6725 7.25045 17.714 7.34849C17.7781 7.42768 17.8384 7.51064 17.9025 7.58982L18.1438 7.77836C18.2381 7.81984 18.3324 7.85755 18.4304 7.89903C18.5888 7.94805 18.7472 7.95559 18.9055 7.92165C19.0149 7.92165 19.1129 7.89526 19.2072 7.8387C19.3542 7.78967 19.4825 7.70672 19.5918 7.5936V7.58605Z" fill="white"/>
</g>
<g style="mix-blend-mode:screen" opacity="0.11">
<path d="M21.0788 9.70383C21.3804 9.70383 21.6934 9.57185 21.9083 9.36069C22.0215 9.25511 22.1044 9.1269 22.1497 8.98361C22.2213 8.84409 22.2552 8.69326 22.2515 8.53111C22.2364 8.22945 22.1384 7.91271 21.9083 7.70154C21.6783 7.49038 21.3955 7.3584 21.0788 7.3584C20.7771 7.3584 20.4641 7.49038 20.2492 7.70154C20.1361 7.80712 20.0531 7.93533 20.0079 8.07862C19.9362 8.21814 19.9023 8.36897 19.906 8.53111C19.9211 8.83278 20.0192 9.14952 20.2492 9.36069C20.4792 9.57185 20.762 9.70383 21.0788 9.70383Z" fill="white"/>
</g>
<g style="mix-blend-mode:screen" opacity="0.11">
<path d="M20.2974 7.35961C20.3577 7.37093 20.4142 7.38224 20.4784 7.38978C20.599 7.41618 20.7159 7.41241 20.8366 7.3747C20.8479 7.3747 20.8592 7.36716 20.8705 7.36716C20.7913 7.37847 20.7159 7.38978 20.6367 7.39732C20.6556 7.39732 20.6744 7.39732 20.6933 7.39732C20.9497 7.42372 21.2061 7.2578 21.3569 7.06549C21.5115 6.86564 21.5983 6.57906 21.5078 6.33019C21.4399 6.14542 21.3683 6.01721 21.2325 5.87015C21.1232 5.75326 20.9648 5.67784 20.814 5.63637C20.6518 5.58734 20.4557 5.59489 20.2974 5.64768C20.1088 5.71178 19.958 5.80982 19.8373 5.96442C19.7204 6.11525 19.6375 6.30756 19.645 6.50364C19.6525 6.66202 19.694 6.81285 19.7657 6.95237C19.8222 7.05418 19.8976 7.13714 19.9957 7.20124C20.0824 7.28043 20.1805 7.33322 20.2974 7.35961Z" fill="white"/>
</g>
<g style="mix-blend-mode:screen" opacity="0.11">
<path d="M18.2652 8.7324C18.1747 8.89077 18.1483 9.03029 18.1332 9.21129C18.1181 9.4036 18.2312 9.66001 18.3707 9.78822C18.5065 9.91265 18.6573 9.98807 18.8383 10.0107C19.0118 10.0333 19.2079 10.0107 19.3587 9.91266C19.5397 9.79576 19.6717 9.63361 19.732 9.42622C19.732 9.42245 19.732 9.41491 19.7358 9.41114C19.7094 9.47524 19.6792 9.54312 19.6528 9.60722C19.6566 9.59591 19.6604 9.5846 19.6679 9.57706C19.6264 9.63362 19.5812 9.68641 19.5397 9.74297C19.5435 9.7392 19.5472 9.73543 19.551 9.72788C19.7018 9.5582 19.781 9.37343 19.7923 9.14719C19.8036 8.89077 19.6641 8.65321 19.468 8.50238C19.287 8.36286 19.0872 8.31007 18.8609 8.34024C18.6121 8.37417 18.3858 8.50992 18.2614 8.7324H18.2652Z" fill="white"/>
</g>
<g style="mix-blend-mode:screen" opacity="0.11">
<path d="M19.8937 10.563C19.8484 10.7892 19.8334 11.023 19.9125 11.2417C19.9465 11.3398 19.988 11.4529 20.0521 11.5396C20.1727 11.7131 20.3311 11.8677 20.5423 11.9167C20.6215 11.9356 20.712 11.9393 20.7949 11.9469C20.727 11.9393 20.6554 11.928 20.5875 11.9205C20.5951 11.9205 20.6026 11.9242 20.6101 11.928C20.8741 11.9997 21.1645 11.928 21.3605 11.7319C21.5604 11.5321 21.6207 11.253 21.5566 10.9815C21.5566 10.974 21.5566 10.9665 21.5528 10.9589C21.5604 11.0268 21.5717 11.0984 21.5792 11.1663C21.5792 11.1588 21.5792 11.155 21.5792 11.1475C21.5679 11.2191 21.5604 11.2907 21.5491 11.3624C21.6471 11.106 21.5415 10.8722 21.4359 10.6459C21.4623 10.71 21.4925 10.7779 21.5189 10.842C21.5038 10.8005 21.4925 10.7628 21.485 10.7176C21.4963 10.7892 21.5038 10.8646 21.5151 10.9363C21.5151 10.9024 21.5151 10.8684 21.5151 10.8345C21.5038 10.9061 21.4963 10.9815 21.485 11.0532C21.485 11.0381 21.4925 11.0193 21.4963 11.0042C21.5491 10.793 21.5227 10.5554 21.4133 10.3631C21.3115 10.1897 21.1154 10.0275 20.9156 9.98228C20.7044 9.93326 20.4631 9.94457 20.2745 10.0652C20.1011 10.1784 19.9352 10.3518 19.8937 10.563Z" fill="white"/>
</g>
<g style="mix-blend-mode:screen" opacity="0.11">
<path d="M22.7638 12.0287C22.7638 12.0287 22.7713 12.0324 22.7751 12.0362C22.9825 12.187 23.3671 12.187 23.5783 12.0362C23.5783 12.0362 23.5858 12.0324 23.5896 12.0287C23.7442 11.9193 23.8498 11.8099 23.9214 11.6403C23.993 11.4743 24.0119 11.2858 23.9629 11.1086C23.9139 10.9351 23.8083 10.7918 23.6688 10.6863C23.533 10.5807 23.352 10.5015 23.1748 10.5128C22.8467 10.5279 22.5601 10.7089 22.4282 11.0143C22.3565 11.1802 22.3377 11.3688 22.3867 11.546C22.4131 11.6101 22.4432 11.6742 22.4696 11.7421C22.5413 11.8665 22.6393 11.9608 22.7638 12.0362V12.0287Z" fill="white"/>
</g>
<g style="mix-blend-mode:screen" opacity="0.11">
<path d="M22.4769 9.602C23.6571 9.602 23.6609 7.76562 22.4769 7.76562C21.2929 7.76562 21.2929 9.602 22.4769 9.602Z" fill="white"/>
</g>
<g style="mix-blend-mode:screen" opacity="0.11">
<path d="M20.3875 8.14769C20.2857 8.24573 20.1688 8.34377 20.1047 8.47198C20.0255 8.62658 19.9916 8.77741 20.0142 8.95464C20.0368 9.11301 20.1009 9.27516 20.2216 9.38828C20.3196 9.47501 20.429 9.54288 20.5534 9.58059C20.742 9.64092 20.9644 9.59567 21.1341 9.50517C21.2661 9.4373 21.3604 9.32418 21.4546 9.2186C21.5904 9.07154 21.6771 8.88677 21.6771 8.68314C21.6771 8.49838 21.5942 8.27589 21.4546 8.14769C21.3114 8.01571 21.119 7.91767 20.9192 7.92521C20.7156 7.93275 20.5346 8.0044 20.3837 8.14769H20.3875Z" fill="white"/>
</g>
<g style="mix-blend-mode:screen" opacity="0.11">
<path d="M18.71 8.42028C18.7364 8.41651 18.759 8.41274 18.7854 8.4052C19.0229 8.3524 19.219 8.13747 19.2831 7.90745C19.3548 7.64726 19.268 7.40971 19.0984 7.21362C19.0795 7.191 19.0607 7.17214 19.0418 7.15329C18.8608 6.95721 18.5591 6.88934 18.3065 6.95721C18.0501 7.02886 17.8465 7.23248 17.7786 7.48512C17.7069 7.74531 17.7824 8.03189 17.9747 8.22043C18.0689 8.31469 18.1821 8.3788 18.3103 8.41651C18.446 8.45422 18.578 8.45422 18.7137 8.41651L18.71 8.42028Z" fill="white"/>
</g>
<g style="mix-blend-mode:screen" opacity="0.11">
<path d="M18.8225 7.33059C19.8821 7.33059 19.8821 5.68652 18.8225 5.68652C17.7629 5.68652 17.7629 7.33059 18.8225 7.33059Z" fill="white"/>
</g>
<g style="mix-blend-mode:screen" opacity="0.11">
<path d="M19.2118 5.88313C19.9056 5.88313 19.9056 4.80469 19.2118 4.80469C18.5179 4.80469 18.5179 5.88313 19.2118 5.88313Z" fill="white"/>
</g>
<g style="mix-blend-mode:screen" opacity="0.11">
<path d="M20.2181 5.36941C20.2445 5.37695 20.2709 5.38827 20.3011 5.39581C20.5726 5.48254 20.8667 5.31662 20.9723 5.06775C21.0213 4.95462 21.0402 4.81888 21.0024 4.69821C20.9534 4.55115 20.8667 4.44934 20.7423 4.35884C20.7196 4.34376 20.6932 4.3249 20.6706 4.30982C20.5462 4.21932 20.3652 4.21932 20.2219 4.24949C20.0484 4.29097 19.9127 4.42671 19.8448 4.58509C19.7053 4.91315 19.8901 5.26383 20.2219 5.37318L20.2181 5.36941Z" fill="white"/>
</g>
<g style="mix-blend-mode:screen" opacity="0.11">
<path d="M22.2436 7.39127C22.5038 7.39127 22.7527 7.16502 22.7376 6.89729C22.7263 6.62957 22.5189 6.40332 22.2436 6.40332C21.9835 6.40332 21.7346 6.62957 21.7497 6.89729C21.761 7.16502 21.9684 7.39127 22.2436 7.39127Z" fill="white"/>
</g>
<g style="mix-blend-mode:screen" opacity="0.11">
<path d="M20.4558 8.21648C20.6368 8.21648 20.8216 8.13729 20.9498 8.01285C21.078 7.88842 21.161 7.69234 21.1534 7.51888C21.1459 7.33788 21.0856 7.14935 20.9498 7.02491C20.8141 6.90047 20.6444 6.82129 20.4558 6.82129C20.2748 6.82129 20.0901 6.90047 19.9619 7.02491C19.8412 7.14557 19.7507 7.34543 19.7583 7.51888C19.7658 7.69988 19.8261 7.88842 19.9619 8.01285C20.0976 8.13729 20.2673 8.21648 20.4558 8.21648Z" fill="white"/>
</g>
<g style="mix-blend-mode:screen" opacity="0.11">
<path d="M19.4223 9.90608C19.4864 9.82689 19.5505 9.75148 19.6146 9.67229C19.6788 9.5931 19.724 9.51014 19.724 9.40456C19.724 9.31029 19.6825 9.20094 19.6146 9.13684C19.4525 8.98601 19.2413 9.00109 19.0792 9.13684C19 9.20094 18.9246 9.26504 18.8454 9.32915C18.6795 9.4649 18.6946 9.76656 18.8454 9.90608C18.9962 10.0418 19.2791 10.0833 19.4223 9.90608Z" fill="white"/>
</g>
<g style="mix-blend-mode:screen" opacity="0.11">
<path d="M17.2688 10.1619C17.5554 10.1619 17.8269 9.90924 17.8156 9.61512C17.8005 9.321 17.5742 9.06836 17.2688 9.06836C16.9822 9.06836 16.7107 9.321 16.722 9.61512C16.7371 9.90924 16.9634 10.1619 17.2688 10.1619Z" fill="white"/>
</g>
<g style="mix-blend-mode:screen" opacity="0.11">
<path d="M16.1837 5.7725C16.1837 5.7725 16.1497 5.7725 16.1309 5.77627C15.931 5.7989 15.7613 5.84415 15.6143 5.99121C15.4861 6.11942 15.3918 6.32681 15.3993 6.50781C15.4069 6.69635 15.471 6.89242 15.6143 7.0244C15.6633 7.06211 15.7123 7.09982 15.7613 7.13753C15.8745 7.2054 15.9989 7.23557 16.1309 7.23557C16.1497 7.23557 16.1648 7.23557 16.1837 7.23934C16.3609 7.25819 16.5834 7.14507 16.704 7.0244C16.8322 6.8962 16.9265 6.6888 16.919 6.50403C16.9114 6.31549 16.8473 6.11564 16.704 5.98367C16.5683 5.85923 16.376 5.74987 16.1837 5.76873V5.7725Z" fill="white"/>
</g>
<g style="mix-blend-mode:screen" opacity="0.11">
<path d="M15.0519 5.07213C15.0218 5.05705 14.9878 5.04196 14.9577 5.02688C14.7842 4.94392 14.6145 5.10984 14.6975 5.28706C14.7126 5.31723 14.7276 5.35117 14.7427 5.38133C14.8068 5.51331 14.9991 5.52463 15.0972 5.42659C15.1952 5.32855 15.1839 5.13624 15.0519 5.07213Z" fill="white"/>
</g>
<g style="mix-blend-mode:screen" opacity="0.11">
<path d="M19.9122 11.8333C20.1045 11.8333 20.3044 11.7504 20.4363 11.6146C20.5683 11.4789 20.6626 11.2753 20.655 11.0905C20.6362 10.687 20.327 10.3477 19.9122 10.3477C19.7199 10.3477 19.52 10.4306 19.3881 10.5664C19.2599 10.6946 19.1618 10.9057 19.1694 11.0905C19.1882 11.494 19.4974 11.8333 19.9122 11.8333Z" fill="white"/>
</g>
<g style="mix-blend-mode:screen" opacity="0.11">
<path d="M21.5567 11.312C21.583 11.2668 21.6057 11.2178 21.6321 11.1725C21.749 10.9538 21.5152 10.7276 21.3002 10.8407L21.1607 10.9161C20.9948 11.0028 20.9722 11.2442 21.1004 11.3724C21.2286 11.5006 21.4699 11.4817 21.5567 11.312Z" fill="white"/>
</g>
<g style="mix-blend-mode:screen" opacity="0.11">
<path d="M21.6811 10.6453C21.715 10.6679 21.749 10.6868 21.7829 10.7132C21.7376 10.6793 21.6962 10.6453 21.6509 10.6114C21.6848 10.6378 21.7188 10.6679 21.749 10.6981C21.8583 10.7961 21.9714 10.8452 22.1034 10.898C22.0544 10.8753 22.0054 10.8565 21.9526 10.8339C21.9677 10.8414 21.979 10.8452 21.9941 10.8527C22.0921 10.898 22.1901 10.9357 22.2995 10.9357C22.4352 10.9357 22.5597 10.8866 22.6653 10.8075C22.8613 10.6566 22.9405 10.4115 22.884 10.1702C22.8425 10.008 22.7671 9.8459 22.6351 9.74032C22.537 9.66114 22.4428 9.58572 22.3297 9.52539C22.1788 9.4462 21.9978 9.41227 21.8319 9.46129C21.6811 9.50277 21.5189 9.61966 21.4435 9.75918C21.2776 10.0722 21.3643 10.4605 21.6773 10.6453H21.6811Z" fill="white"/>
</g>
<g style="mix-blend-mode:screen" opacity="0.11">
<path d="M22.24 13.8153C22.2136 13.9774 22.2061 14.083 22.24 14.2451C22.2777 14.4186 22.3833 14.5807 22.5417 14.6637C22.8546 14.8258 23.2317 14.6863 23.3373 14.3394C23.375 14.2074 23.3524 14.0868 23.3298 13.9548C23.3373 14.0038 23.3448 14.0528 23.3486 14.1056C23.3486 14.0754 23.3486 14.0453 23.3486 14.0113L23.3298 14.1622C23.3298 14.1622 23.3335 14.132 23.3373 14.1169C23.3712 13.9699 23.3562 13.8115 23.2807 13.6795C23.2129 13.5626 23.0771 13.4495 22.9414 13.4193C22.7943 13.3854 22.6322 13.3929 22.504 13.4759C22.3871 13.5513 22.2664 13.672 22.2438 13.8153H22.24Z" fill="white"/>
</g>
<g style="mix-blend-mode:screen" opacity="0.11">
<path d="M20.3653 16.5197C20.3389 16.531 20.3162 16.5423 20.2898 16.5499C20.188 16.6102 20.1088 16.6894 20.0485 16.7912C19.9882 16.8968 19.958 17.0099 19.958 17.1306C19.9655 17.3078 20.0259 17.4775 20.1541 17.6057C20.2748 17.7263 20.4558 17.8018 20.6292 17.8018C20.7499 17.8018 20.863 17.7716 20.9686 17.7113C21.0704 17.6509 21.1496 17.5717 21.2099 17.4699C21.2212 17.4435 21.2325 17.4209 21.2401 17.3945C21.2627 17.3417 21.2816 17.2927 21.3042 17.2399C21.3306 17.1532 21.3343 17.0702 21.3155 16.9835C21.2966 16.8478 21.2438 16.7082 21.1383 16.614C21.0553 16.5385 20.961 16.482 20.8555 16.448C20.682 16.3915 20.5199 16.448 20.3615 16.5122L20.3653 16.5197Z" fill="white"/>
</g>
<g style="mix-blend-mode:screen" opacity="0.11">
<path d="M22.4352 18.7296C22.4465 18.7899 22.4616 18.8352 22.488 18.8993C22.5521 19.0501 22.6426 19.1331 22.7746 19.2273C22.9405 19.348 23.2535 19.348 23.4232 19.2273C23.5514 19.1331 23.6456 19.0501 23.7097 18.8993C23.7361 18.8389 23.7475 18.7937 23.7625 18.7296C23.8116 18.492 23.7739 18.2356 23.5853 18.0622C23.4496 17.9377 23.2874 17.8623 23.1027 17.8623C22.9254 17.8623 22.7444 17.9377 22.62 18.0622C22.439 18.2432 22.3937 18.4845 22.4428 18.7296H22.4352Z" fill="white"/>
</g>
<path d="M15.4105 12.9326C15.4105 12.9326 12.9708 16.6469 13.0198 20.2593C13.0537 22.9516 15.0598 27.7933 17.7747 29.4902C20.4897 31.1833 23.759 32.9744 27.8126 31.9864C31.8662 30.9985 38.3029 24.7427 37.281 22.9026C36.2592 21.0624 15.4105 12.9326 15.4105 12.9326Z" fill="#F47922"/>
<mask id="mask2_1235_16512" style="mask-type:luminance" maskUnits="userSpaceOnUse" x="13" y="12" width="25" height="21">
<path d="M15.4105 12.9346C15.4105 12.9346 12.9708 16.6488 13.0198 20.2612C13.0537 22.9536 15.0598 27.7953 17.7747 29.4921C20.4897 31.1852 23.759 32.9763 27.8126 31.9884C31.8662 31.0004 38.3029 24.7447 37.281 22.9045C36.2592 21.0644 15.4105 12.9346 15.4105 12.9346Z" fill="white"/>
</mask>
<g mask="url(#mask2_1235_16512)">
<path d="M21.0137 20.6683C20.6932 21.0567 18.5174 24.3562 18.0122 26.283C17.5031 28.2099 18.8983 32.3917 18.8983 32.3917C18.8983 32.3917 6.70732 25.9965 6.51124 25.6986C6.31516 25.4007 7.65002 17.3048 8.04218 16.4752C8.43435 15.6456 13.2421 10.0762 13.2421 10.0762L16.7489 10.3854L21.0099 20.6646L21.0137 20.6683Z" fill="#F26522"/>
<path d="M31.1458 25.9546C31.1458 25.9546 27.2921 30.0535 25.467 31.7579C23.642 33.4661 21.8169 33.7941 21.8169 33.7941C21.8169 33.7941 27.639 37.5913 29.004 36.1433C30.3691 34.6916 36.2138 27.5459 36.2138 27.5459L37.756 24.1484L31.1458 25.9546Z" fill="#F89922"/>
</g>
<g style="mix-blend-mode:multiply" opacity="0.36">
<path d="M34.6603 25.8561C34.3096 26.1653 34.0268 28.3298 30.0523 29.1518C26.0742 29.9738 19.3848 26.5273 17.7973 25.1661C16.2098 23.8048 12.4993 18.9292 14.1622 16.1312C15.8289 13.3333 34.6603 25.8561 34.6603 25.8561Z" fill="#F36B21"/>
</g>
<path d="M37.4393 23.617C36.8813 26.5431 34.2907 28.2249 30.8744 28.8584C29.7469 29.0658 28.5968 29.0394 27.3412 28.7716C25.6707 28.4172 23.7212 27.7196 22.1525 26.9051C20.4142 26.0039 18.6872 24.9217 17.0092 23.3794C13.5325 20.1855 13.7588 16.6485 14.5544 14.42C15.1502 12.7458 16.4549 10.4154 21.6774 10.3061C24.5432 10.2457 27.2205 10.8114 30.2296 12.4064C33.0614 13.911 35.4559 16.0942 36.5306 18.3454C37.2772 19.9103 37.7108 22.218 37.4431 23.6207L37.4393 23.617Z" fill="#F78F2E"/>
<path d="M36.8399 23.1792C36.7079 25.1627 36.0556 26.3882 33.3859 27.5533C32.5224 27.9304 31.3119 28.2547 30.2184 28.3037C29.2267 28.3452 28.3745 28.2886 27.3224 28.134C24.2379 27.6891 21.21 25.9922 18.6873 24.039C17.2205 22.9039 16.4211 21.6332 15.9271 20.7735C15.2672 19.6158 15.0146 18.4393 14.8675 17.2968C14.7732 16.5539 14.7204 15.8149 14.8109 15.1135C15.1579 12.3834 18.7175 10.9204 22.3073 10.8035C25.3654 10.7017 28.2425 11.7839 31.0631 13.5448C31.9831 14.1218 35.0186 16.4785 35.9274 18.7976C36.4968 20.2455 36.9304 21.8104 36.8399 23.183V23.1792Z" fill="#F99D20"/>
<path d="M36.4214 23.0698C36.3083 24.9477 35.6937 26.0978 33.1446 27.18C32.3188 27.5307 31.1649 27.8286 30.1167 27.8663C29.1664 27.9002 28.3519 27.8361 27.3414 27.6853C24.3851 27.2403 21.4702 25.6151 19.0418 23.7486C17.6316 22.6626 16.8548 21.4597 16.3759 20.6414C15.7349 19.5403 15.4822 18.428 15.3352 17.3457C15.2371 16.6406 15.1843 15.943 15.2635 15.2831C15.5765 12.7039 18.974 11.3464 22.4092 11.2597C25.3353 11.1843 28.0993 12.2288 30.8143 13.9143C31.7004 14.4649 34.6265 16.7198 35.5127 18.9182C36.067 20.2907 36.4968 21.7727 36.4177 23.0698H36.4214Z" fill="#FFF5F2"/>
<path d="M27.3563 16.8241C27.8993 15.8135 28.4423 14.7992 28.9815 13.7886C29.0117 13.7321 29.0418 13.6642 29.0003 13.5963C28.9664 13.5397 28.8872 13.4945 28.8156 13.453C26.9339 12.4198 24.5998 11.956 22.7182 12.2388C22.4542 12.2803 22.1714 12.3557 22.1337 12.5518C22.1073 12.6762 22.1941 12.8195 22.277 12.9553C23.0576 14.177 24.1737 15.3422 24.7959 16.579C24.9995 16.9862 25.5576 18.3286 26.4588 18.2645C26.9415 18.2306 27.2054 17.0956 27.3525 16.8203L27.3563 16.8241Z" fill="#F99D20"/>
<path d="M24.1848 16.5012C23.2648 15.2644 22.3447 14.0238 21.4246 12.787C21.3718 12.7154 21.3115 12.64 21.2172 12.6022C21.138 12.5683 21.0589 12.5758 20.9872 12.5796C19.1207 12.7493 17.7217 13.7033 17.322 15.0721C17.2654 15.2644 17.2428 15.4982 17.4464 15.6981C17.5746 15.8263 17.767 15.9055 17.948 15.9771C19.6033 16.6257 21.3228 17.0254 22.9367 17.7833C23.4684 18.0322 25.1728 18.9259 25.4443 18.3376C25.5914 18.0209 24.4299 16.8368 24.1811 16.5012H24.1848Z" fill="#F99D20"/>
<path d="M22.1454 18.0123C20.5315 17.3826 18.9138 16.7491 17.2999 16.1194C17.2094 16.0854 17.1076 16.0477 17.0322 16.0666C16.9681 16.0816 16.9455 16.1382 16.9229 16.1872C16.3874 17.5032 16.8248 19.2906 18.0692 20.863C18.2426 21.0817 18.4764 21.3268 18.7592 21.3947C18.9402 21.4399 19.0948 21.3985 19.2381 21.357C20.5315 20.9648 21.5986 20.2898 22.9863 20.0259C23.4426 19.9392 25.0037 19.7506 24.5059 19.0116C24.2382 18.6156 22.5828 18.1857 22.1492 18.0123H22.1454Z" fill="#F99D20"/>
<path d="M30.1812 21.0486C31.7309 21.7085 33.2807 22.3646 34.8343 23.0245C34.921 23.0622 35.0191 23.0999 35.087 23.0773C35.1435 23.0585 35.1661 23.0019 35.1812 22.9453C35.596 21.5313 35.2416 19.5479 33.9746 17.8812C33.7973 17.6474 33.5862 17.3382 33.3184 17.2665C33.1488 17.2213 32.6586 17.3872 32.5304 17.4324C31.3501 17.8661 30.5507 18.6089 29.2686 18.9068C28.8463 19.0049 27.4021 19.2236 27.9149 20.0079C28.1902 20.4302 29.7626 20.8714 30.1812 21.0486Z" fill="#F99D20"/>
<path d="M28.3175 22.5038C29.2112 23.7482 30.1049 24.9925 30.9985 26.2369C31.0476 26.3085 31.1079 26.384 31.2022 26.4254C31.2814 26.4594 31.3605 26.4556 31.4322 26.4481C33.3138 26.3048 34.7467 25.3809 35.1841 24.0272C35.2445 23.8387 35.2746 23.6049 35.0748 23.4013C34.9466 23.2731 34.758 23.1901 34.577 23.1147C32.9292 22.4472 31.2059 22.0211 29.6034 21.2444C29.0754 20.988 27.3824 20.0792 27.092 20.6561C26.9374 20.9691 28.0762 22.1644 28.3175 22.5V22.5038Z" fill="#F99D20"/>
<path d="M25.0677 22.251C24.4342 23.2427 23.8007 24.2307 23.171 25.2224C23.1333 25.279 23.0993 25.3431 23.137 25.4109C23.1672 25.4675 23.2426 25.509 23.318 25.5467C25.1808 26.5271 27.5489 26.9532 29.5097 26.6515C29.7849 26.6101 30.0828 26.5309 30.1356 26.3423C30.1696 26.2217 30.0942 26.0821 30.015 25.9539C29.2985 24.7774 28.2352 23.6575 27.6846 22.4622C27.5036 22.07 27.0285 20.7691 26.0971 20.8407C25.5956 20.8784 25.2411 21.9871 25.0715 22.2548L25.0677 22.251Z" fill="#F99D20"/>
<path d="M27.3906 20.012C27.6093 19.7933 26.9004 18.7148 26.052 18.5451C25.2036 18.3755 24.9132 18.8393 25.1621 19.4426C25.411 20.0459 26.6478 20.7473 27.3869 20.012H27.3906Z" fill="white"/>
<path d="M32.843 16.6357C32.8468 16.1983 29.9282 13.8642 29.6982 13.9924C29.4681 14.1206 26.8437 18.1553 27.0398 18.3137C27.2358 18.4721 27.1001 19.1885 28.1182 18.9623C29.1401 18.7361 32.8392 17.1297 32.843 16.6357Z" fill="#F99D20"/>
<path d="M22.5673 25.1628C22.8728 25.193 25.5953 20.8452 25.4294 20.6303C25.2597 20.4154 24.9844 19.6424 24.2416 20.0685C23.4987 20.4946 22.6503 20.4983 21.6171 20.8867C20.5839 21.2789 19.0643 21.7729 19.1812 22.1688C19.2981 22.5647 21.964 25.1025 22.5673 25.1628Z" fill="#F99D20"/>
<mask id="mask3_1235_16512" style="mask-type:luminance" maskUnits="userSpaceOnUse" x="22" y="12" width="8" height="7">
<path d="M27.3563 16.8241C27.8993 15.8135 28.4423 14.7992 28.9815 13.7886C29.0117 13.7321 29.0418 13.6642 29.0003 13.5963C28.9664 13.5397 28.8872 13.4945 28.8156 13.453C26.9339 12.4198 24.5998 11.956 22.7182 12.2388C22.4542 12.2803 22.1714 12.3557 22.1337 12.5518C22.1073 12.6762 22.1941 12.8195 22.277 12.9553C23.0576 14.177 24.1737 15.3422 24.7959 16.579C24.9995 16.9862 25.5576 18.3286 26.4588 18.2645C26.9415 18.2306 27.2054 17.0956 27.3525 16.8203L27.3563 16.8241Z" fill="white"/>
</mask>
<g mask="url(#mask3_1235_16512)">
<path d="M25.6327 17.9747C26.3566 17.8013 26.466 17.0434 26.696 16.4287C26.9072 15.8669 27.1259 15.305 27.3521 14.7469C27.469 14.4604 27.7292 14.0569 27.7594 13.7477C27.9932 13.5705 27.9705 13.4762 27.6877 13.4649C27.5143 13.4045 27.337 13.3518 27.1598 13.3065C26.6055 13.1557 26.0361 13.0425 25.4667 12.9634C24.8408 12.8766 24.2111 12.8314 23.5813 12.8465C23.3664 12.8502 22.8272 12.7635 22.8159 13.1104C22.8159 13.2122 23.242 13.6421 23.3136 13.7175C23.9886 14.4264 25.4856 16.9189 25.5422 17.8956C25.5535 18.0954 24.2639 16.1195 24.147 15.9649C23.5323 15.1467 22.8951 14.5773 22.1597 13.8684C21.7223 13.4423 21.4772 12.8879 21.8505 12.3223C22.3332 11.5908 23.3476 11.6775 24.1055 11.7039C25.15 11.7416 26.187 11.8887 27.1975 12.1564C27.782 12.311 28.7549 12.4354 28.9811 13.1029C29.2338 13.857 28.4155 15.0599 28.1289 15.7198C27.8838 16.2854 26.6809 19.6942 25.5346 18.2689C25.463 18.1784 25.512 18.0049 25.6289 17.9785L25.6327 17.9747Z" fill="#F78F2E"/>
</g>
<mask id="mask4_1235_16512" style="mask-type:luminance" maskUnits="userSpaceOnUse" x="17" y="12" width="9" height="7">
<path d="M24.1853 16.5012C23.2653 15.2644 22.3452 14.0238 21.4251 12.787C21.3723 12.7154 21.312 12.64 21.2177 12.6022C21.1385 12.5683 21.0593 12.5758 20.9877 12.5796C19.1212 12.7493 17.7222 13.7033 17.3225 15.0721C17.2659 15.2644 17.2433 15.4982 17.4469 15.6981C17.5751 15.8263 17.7674 15.9055 17.9484 15.9771C19.6038 16.6257 21.3233 17.0254 22.9372 17.7833C23.4689 18.0322 25.1733 18.9259 25.4448 18.3376C25.5918 18.0209 24.4304 16.8368 24.1816 16.5012H24.1853Z" fill="white"/>
</mask>
<g mask="url(#mask4_1235_16512)">
<path d="M25.1285 18.2586C24.2385 17.6289 23.326 16.705 22.6133 15.8755C22.2023 15.3966 21.8705 14.8573 21.5085 14.3445C21.3652 14.1447 21.0108 13.5602 20.8109 13.4697C20.4904 13.3264 20.2264 13.5376 19.9436 13.7186C19.5477 13.9712 18.7822 14.4991 18.5974 14.9592C18.4202 15.4003 18.654 15.3777 19.0688 15.5474C19.3818 15.6756 19.8984 15.9132 20.2227 16.0074C21.3614 16.343 24.5478 17.5836 25.4226 18.4245C25.7016 18.696 25.1775 18.5904 24.8192 18.5716C23.7483 18.515 21.0598 17.3159 20.0417 17.0067C19.3214 16.788 18.243 16.7314 17.6623 16.2073C16.5047 15.159 18.1223 13.6658 18.9557 13.0549C19.4383 12.7004 20.1661 12.2404 20.7996 12.3158C21.5047 12.3988 21.9912 13.2548 22.3456 13.7789C22.9112 14.6235 23.4429 15.423 24.1631 16.1469C24.725 16.7126 25.3358 17.2631 25.5131 18.0663C25.5621 18.285 25.2755 18.3642 25.1322 18.2624L25.1285 18.2586Z" fill="#F78F2E"/>
</g>
<mask id="mask5_1235_16512" style="mask-type:luminance" maskUnits="userSpaceOnUse" x="16" y="16" width="9" height="6">
<path d="M22.1454 18.0133C20.5315 17.3835 18.9138 16.7501 17.2999 16.1203C17.2094 16.0864 17.1076 16.0487 17.0322 16.0675C16.9681 16.0826 16.9455 16.1392 16.9229 16.1882C16.3874 17.5042 16.8248 19.2916 18.0692 20.864C18.2426 21.0827 18.4764 21.3278 18.7592 21.3957C18.9402 21.4409 19.0948 21.3994 19.2381 21.358C20.5315 20.9658 21.5986 20.2908 22.9863 20.0269C23.4426 19.9401 25.0037 19.7516 24.5059 19.0125C24.2382 18.6166 22.5828 18.1867 22.1492 18.0133H22.1454Z" fill="white"/>
</mask>
<g mask="url(#mask5_1235_16512)">
<path d="M23.7137 18.6174C23.725 18.5834 23.7363 18.5495 23.7476 18.5193C23.7815 18.4137 23.9097 18.376 24.0078 18.3836C24.8751 18.4778 24.645 19.4281 24.1473 19.8391C23.6269 20.2652 22.918 20.5367 22.3185 20.8384C21.6171 21.1928 20.9082 21.6378 20.1691 21.9055C19.0228 22.3241 17.9481 21.5887 17.2731 20.6951C16.6359 19.8504 15.893 18.1158 16.2173 17.0563C16.3342 16.6716 16.7339 15.514 16.9941 15.8609C17.4655 16.4831 17.4843 18.3798 17.7747 19.1C17.9519 19.5412 18.1781 19.9484 18.5137 20.2878C19.0228 20.7969 19.4527 20.9175 20.1239 20.6574C20.9572 20.3368 21.7528 19.8919 22.5711 19.5299C22.9369 19.3677 23.7325 19.1754 23.7514 18.7229C23.7514 18.6777 23.7023 18.6702 23.7212 18.6098L23.7137 18.6174Z" fill="#F78F2E"/>
</g>
<mask id="mask6_1235_16512" style="mask-type:luminance" maskUnits="userSpaceOnUse" x="27" y="17" width="9" height="7">
<path d="M30.1807 21.0496C31.7305 21.7095 33.2803 22.3656 34.8338 23.0255C34.9205 23.0632 35.0186 23.1009 35.0865 23.0783C35.143 23.0594 35.1657 23.0029 35.1807 22.9463C35.5955 21.5323 35.2411 19.5488 33.9741 17.8821C33.7969 17.6484 33.5857 17.3392 33.318 17.2675C33.1483 17.2223 32.6581 17.3882 32.5299 17.4334C31.3496 17.8671 30.5502 18.6099 29.2681 18.9078C28.8458 19.0058 27.4016 19.2246 27.9144 20.0089C28.1897 20.4312 29.7621 20.8724 30.1807 21.0496Z" fill="white"/>
</mask>
<g mask="url(#mask6_1235_16512)">
<path d="M33.45 17.2621C34.6453 17.5374 35.2034 19.1626 35.407 20.2259C35.5579 21.0178 35.8558 23.2501 34.5926 23.2577C33.8195 23.2577 32.9409 22.726 32.2697 22.4017C31.3271 21.9492 30.358 21.7116 29.3549 21.4401C28.7026 21.2629 27.9597 21.0593 27.6166 20.4145C27.3376 19.8903 27.4017 19.3172 27.9183 18.9967C28.1973 18.8232 28.6008 18.9778 28.6234 19.3323C28.6875 20.4748 30.5427 20.686 31.3949 20.9763C31.9304 21.1611 32.398 21.4024 32.8957 21.6626C33.1295 21.7833 34.1287 22.2886 34.404 22.2018C34.996 22.0133 34.5171 20.0789 34.3701 19.6339C34.1061 18.8421 33.5103 18.1859 33.3331 17.3715C33.318 17.3074 33.3934 17.247 33.4538 17.2621H33.45Z" fill="#F78F2E"/>
</g>
<mask id="mask7_1235_16512" style="mask-type:luminance" maskUnits="userSpaceOnUse" x="27" y="20" width="9" height="7">
<path d="M28.3175 22.5038C29.2112 23.7482 30.1049 24.9925 30.9985 26.2369C31.0476 26.3085 31.1079 26.384 31.2022 26.4254C31.2814 26.4594 31.3605 26.4556 31.4322 26.4481C33.3138 26.3048 34.7467 25.3809 35.1841 24.0272C35.2445 23.8387 35.2746 23.6049 35.0748 23.4013C34.9466 23.2731 34.758 23.1901 34.577 23.1147C32.9292 22.4472 31.2059 22.0211 29.6034 21.2444C29.0754 20.988 27.3824 20.0792 27.092 20.6561C26.9374 20.9691 28.0762 22.1644 28.3175 22.5V22.5038Z" fill="white"/>
</mask>
<g mask="url(#mask7_1235_16512)">
<path d="M34.5022 22.9748C34.9358 23.1634 35.4637 23.0729 35.6711 23.6008C35.8672 24.1023 35.4147 24.6868 35.1432 25.0676C34.4607 26.0103 32.9486 27.3716 31.6666 26.9078C30.9463 26.6476 30.3845 25.9952 29.8943 25.4371C29.257 24.7132 28.6499 23.9628 28.0315 23.2199C27.5715 22.6694 26.9606 22.0811 26.9644 21.3081C26.9644 20.7387 27.2434 20.3504 27.7902 20.2599C28.0013 20.2259 28.0127 20.3692 27.9485 20.5841C27.6431 21.5985 28.7932 22.4054 29.3928 23.1106C30.0828 23.9175 30.7314 24.8414 31.5572 25.5201C32.4546 26.2592 33.5444 25.3542 34.2194 24.6679C34.3777 24.5095 34.6115 24.3021 34.7096 24.091C34.8566 23.778 34.8529 23.7742 34.7397 23.5518C34.6342 23.3406 34.1025 23.1219 34.0271 22.8579C33.9969 22.7486 34.3966 22.9296 34.5022 22.9748Z" fill="#F78F2E"/>
</g>
<mask id="mask8_1235_16512" style="mask-type:luminance" maskUnits="userSpaceOnUse" x="23" y="20" width="8" height="7">
<path d="M25.0677 22.252C24.4342 23.2437 23.8007 24.2317 23.171 25.2234C23.1333 25.2799 23.0993 25.344 23.137 25.4119C23.1672 25.4685 23.2426 25.51 23.318 25.5477C25.1808 26.5281 27.5489 26.9542 29.5097 26.6525C29.7849 26.611 30.0828 26.5318 30.1356 26.3433C30.1696 26.2226 30.0942 26.0831 30.015 25.9549C29.2985 24.7784 28.2352 23.6585 27.6846 22.4632C27.5036 22.071 27.0285 20.7701 26.0971 20.8417C25.5956 20.8794 25.2411 21.988 25.0715 22.2558L25.0677 22.252Z" fill="white"/>
</mask>
<g mask="url(#mask8_1235_16512)">
<path d="M26.5981 21.2978C26.0702 21.0226 25.1463 23.4095 24.9804 23.7375C24.8333 24.0241 24.592 24.3786 24.4902 24.6878C24.2564 24.9178 24.2677 25.1516 24.5204 25.3854C24.7466 25.4344 24.9766 25.457 25.2066 25.4608C25.8967 25.4947 26.4925 25.555 27.1675 25.7285C27.5596 25.8265 27.9405 25.9397 28.3477 25.9661C28.7814 25.9962 29.4412 25.8605 29.6524 25.7926C29.6675 25.7888 29.6826 25.7813 29.6977 25.7775C29.9842 25.687 30.2708 25.8265 30.3839 26.1018C30.3953 26.1282 30.4066 26.1508 30.4141 26.1772C30.5235 26.4412 30.3575 26.8296 30.071 26.9012C29.4375 27.0634 28.8078 27.1463 28.1516 27.0898C27.4201 27.0257 26.7414 26.7315 26.0136 26.6373C25.1312 26.5204 23.3552 26.7353 23.0422 25.5324C22.8989 24.9857 23.4042 24.3522 23.6569 23.8959C24.1131 23.0663 24.5656 22.2179 25.0747 21.4185C25.4932 20.7661 26.2926 20.1213 26.9186 20.9283C27.0732 21.1281 26.8205 21.4147 26.6018 21.3016L26.5981 21.2978Z" fill="#F78F2E"/>
</g>
<mask id="mask9_1235_16512" style="mask-type:luminance" maskUnits="userSpaceOnUse" x="27" y="13" width="6" height="7">
<path d="M32.8427 16.6377C32.8464 16.2003 29.9278 13.8661 29.6978 13.9943C29.4678 14.1226 27.0055 18.0668 27.0394 18.3157C27.0922 18.7041 27.0997 19.1905 28.1179 18.9643C29.1397 18.738 32.8389 17.1316 32.8427 16.6377Z" fill="white"/>
</mask>
<g mask="url(#mask9_1235_16512)">
<path d="M31.9902 15.4225C31.5264 15.3848 31.1832 15.1284 30.7684 14.9361C30.5045 14.8117 29.9766 14.5025 29.6787 14.6948C29.5316 14.789 29.4562 15.2076 29.3846 15.366C29.1395 15.8976 28.7662 16.3162 28.4683 16.8177C28.0686 17.4889 27.3672 17.9226 27.8008 18.7597C27.9818 19.1066 27.9667 19.6232 27.5897 19.4912C26.926 19.2574 26.696 18.5033 26.8883 17.8585C27.0655 17.2627 27.5406 16.7197 27.8461 16.1842C28.1628 15.6262 28.4155 15.0341 28.7209 14.4685C29.015 13.9255 29.3996 13.5447 30.052 13.7181C30.7873 13.9142 31.8657 14.5779 32.0467 15.3584C32.0543 15.3924 32.0317 15.4225 31.994 15.4188L31.9902 15.4225Z" fill="#F78F2E"/>
</g>
<mask id="mask10_1235_16512" style="mask-type:luminance" maskUnits="userSpaceOnUse" x="19" y="19" width="7" height="7">
<path d="M22.5673 25.1618C22.8728 25.192 25.5953 20.8443 25.4294 20.6293C25.2597 20.4144 24.9844 19.6414 24.2416 20.0675C23.4987 20.4936 22.6503 20.4974 21.6171 20.8857C20.5839 21.2779 19.0643 21.7719 19.1812 22.1678C19.2981 22.5637 21.964 25.1015 22.5673 25.1618Z" fill="white"/>
</mask>
<g mask="url(#mask10_1235_16512)">
<path d="M24.8493 19.9895C25.5205 19.4163 25.8108 20.4156 25.7128 20.9322C25.479 22.1841 24.8078 23.485 23.9895 24.4541C23.3975 25.1555 22.666 25.5288 21.8138 25.0348C20.9767 24.5521 19.2874 23.1494 19.3213 22.1011C19.3288 21.8937 19.491 21.6637 19.7323 21.724C20.3093 21.8711 20.5355 22.267 20.9239 22.7007C21.2293 23.0401 22.2022 24.2806 22.7716 24.1147C23.3334 23.9488 25.4224 20.4194 24.8681 20.2082C24.7701 20.1705 24.7852 20.046 24.8493 19.9895Z" fill="#F78F2E"/>
</g>
<g style="mix-blend-mode:soft-light" opacity="0.41">
<path d="M23.7435 14.7513C25.5798 12.5491 29.3393 14.1253 30.9645 15.7807C32.9216 17.7755 34.313 21.4972 32.2315 23.903C31.7225 24.4912 30.9155 25.0418 30.0972 24.8985C29.3506 24.7665 28.785 24.1481 28.7209 23.3939C28.6681 22.7982 29.0037 22.2401 29.147 21.6745C29.2752 21.1579 29.2827 20.6564 29.1621 20.136C28.9019 19.0311 28.1666 18.0545 27.3031 17.3494C26.3302 16.55 25.0255 16.4029 23.9584 15.7694C23.5926 15.5545 23.4531 15.102 23.7435 14.7513Z" fill="white"/>
</g>
<g opacity="0.32">
<path d="M29.2532 26.1042C28.6499 25.6027 28.1748 24.841 27.9146 24.1057C27.8844 24.0228 28.0013 23.9662 28.0541 24.0341C28.5179 24.6638 28.9855 25.3501 29.3324 26.0515C29.355 26.0967 29.2871 26.1344 29.2532 26.1042Z" fill="white"/>
</g>
<g opacity="0.34">
<path d="M28.284 26.2526C28.0842 25.9698 27.9484 25.653 27.8353 25.3288C27.7222 25.0082 27.594 24.6651 27.5977 24.3182C27.5977 24.2541 27.6882 24.2051 27.7259 24.2729C27.8956 24.5708 27.9748 24.9177 28.0729 25.2458C28.1709 25.5739 28.2727 25.9019 28.318 26.2413C28.318 26.2601 28.2953 26.2677 28.2878 26.2526H28.284Z" fill="white"/>
</g>
<g opacity="0.43">
<path d="M26.244 23.039C26.1233 23.7026 26.0366 24.3889 25.6746 24.9772C25.6293 25.0488 25.4936 25.0262 25.5162 24.9281C25.667 24.272 25.9951 23.6725 26.1836 23.0314C26.1949 22.9975 26.2477 23.005 26.2402 23.0428L26.244 23.039Z" fill="white"/>
</g>
<path d="M23.1369 21.8472C22.6919 22.3185 22.2055 22.8728 21.5833 23.1028C21.5192 23.1255 21.4551 23.0387 21.5041 22.9897C21.9755 22.5297 22.5901 22.2243 23.0916 21.7982C23.118 21.7755 23.1595 21.8208 23.1331 21.8434L23.1369 21.8472Z" fill="white"/>
<g opacity="0.32">
<path d="M22.6462 21.4946C22.2126 21.8 21.7299 22.1205 21.2096 22.245C21.1718 22.2525 21.1379 22.2035 21.1756 22.1809C21.6357 21.9056 22.1522 21.7208 22.6236 21.4569C22.6462 21.4418 22.6726 21.4757 22.65 21.4946H22.6462Z" fill="white"/>
</g>
<g opacity="0.34">
<path d="M21.2438 19.2612C20.599 19.4648 19.9165 19.759 19.234 19.7967C19.1548 19.8004 19.1397 19.7024 19.2076 19.6685C19.8185 19.3706 20.5613 19.2914 21.2212 19.1519C21.2853 19.1368 21.3041 19.2424 21.2438 19.2612Z" fill="white"/>
</g>
<g opacity="0.32">
<path d="M20.6702 18.5803C20.0933 18.6934 19.3882 18.6934 18.8301 18.4936C18.7698 18.471 18.7886 18.3691 18.8527 18.3691C19.4523 18.3767 20.0744 18.4747 20.6702 18.5388C20.6966 18.5388 20.6929 18.5765 20.6702 18.5841V18.5803Z" fill="white"/>
</g>
<path d="M19.9201 18.0091C19.592 17.9563 19.2715 17.9111 18.951 17.8243C18.9133 17.813 18.9246 17.764 18.9623 17.7678C19.2941 17.7829 19.6146 17.8357 19.9427 17.8847C20.0219 17.896 20.003 18.0204 19.9201 18.0091Z" fill="white"/>
<path d="M22.16 15.5588C22.0092 15.1403 21.5454 14.7708 21.2362 14.454C20.9798 14.19 20.712 13.9336 20.4971 13.6357C20.4707 13.598 20.516 13.5377 20.5574 13.5641C20.9421 13.813 21.255 14.1599 21.5529 14.5068C21.8169 14.8122 22.1374 15.1365 22.1676 15.5551H22.1638L22.16 15.5588Z" fill="white"/>
<g opacity="0.32">
<path d="M21.3795 15.5099C21.0741 15.2686 20.6782 15.065 20.4293 14.7596C20.3916 14.7105 20.4519 14.6615 20.5009 14.6766C20.8818 14.8048 21.1797 15.1668 21.4361 15.4572C21.4663 15.4911 21.4097 15.5363 21.3795 15.5099Z" fill="white"/>
</g>
<path d="M25.8891 16.074C25.8891 15.8025 25.8627 15.5272 25.8174 15.2595C25.7722 14.9956 25.6892 14.7241 25.6968 14.4563C25.6968 14.3885 25.7797 14.3508 25.825 14.4111C26.1606 14.8598 26.0927 15.5612 26.0324 16.0816C26.0211 16.1645 25.8853 16.157 25.8891 16.074Z" fill="white"/>
<g opacity="0.32">
<path d="M31.4362 16.0382C31.3117 16.2946 31.1006 16.4492 30.863 16.6C30.5915 16.7735 30.3426 16.9846 30.0523 17.1279C29.9354 17.1883 29.8675 17.0261 29.9241 16.9431C30.0938 16.6943 30.3426 16.5397 30.6066 16.4002C30.8668 16.2606 31.1722 16.2003 31.4022 16.0118C31.4211 15.9967 31.4437 16.0193 31.4362 16.0382Z" fill="white"/>
</g>
<path d="M33.0762 18.7781C32.4767 19.0458 31.7376 19.2834 31.0777 19.3211C31.0174 19.3211 31.0061 19.2457 31.0551 19.2231C31.6433 18.9365 32.4088 18.7781 33.0612 18.7178C33.0989 18.7178 33.1064 18.7668 33.0762 18.7781Z" fill="white"/>
<g opacity="0.34">
<path d="M32.1943 19.5257C31.5533 19.7746 30.7765 20.0347 30.0789 19.9028C30.0299 19.8952 30.0186 19.8198 30.0714 19.8047C30.7501 19.6162 31.4967 19.635 32.1905 19.5068C32.2019 19.5068 32.2056 19.5219 32.1943 19.5257Z" fill="white"/>
</g>
<g opacity="0.34">
<path d="M33.0619 24.5847C32.3228 24.3056 31.4782 23.7702 30.9918 23.148C30.9427 23.0877 31.0219 22.9934 31.0936 23.0311C31.4367 23.2196 31.7421 23.4798 32.0551 23.7174C32.4096 23.9813 32.7791 24.2227 33.1185 24.5055C33.1637 24.5432 33.1185 24.6111 33.0619 24.5922V24.5847Z" fill="white"/>
</g>
<path d="M32.5752 25.109C32.1604 24.8714 31.625 24.5849 31.3648 24.1738C31.3346 24.1248 31.3874 24.0532 31.4402 24.0833C31.6476 24.1965 31.8173 24.3775 31.9983 24.5283C32.2057 24.698 32.413 24.8639 32.6355 25.0147C32.6883 25.0487 32.628 25.1392 32.5752 25.109Z" fill="white"/>
</svg>
