<svg width="38" height="30" viewBox="0 0 38 30" fill="none" xmlns="http://www.w3.org/2000/svg">
<path d="M16.7215 11.6846C7.93783 11.7112 1.26473 13.2099 0.892281 15.1918C0.728224 16.0653 2.11162 18.1626 2.94964 20.7431C4.27095 24.8179 6.55887 28.977 16.1939 29.2297H17.6659C27.5004 29.0568 29.8105 24.8534 31.1407 20.7431C31.9787 18.1626 33.3621 16.0653 33.1981 15.1918C32.8345 13.2498 26.4363 11.7777 17.932 11.689" fill="#203A53"/>
<path d="M33.252 15.032C33.252 17.6879 25.9981 19.8428 17.0459 19.8428C8.09379 19.8428 0.839844 17.6879 0.839844 15.032C0.839844 12.3761 8.09379 10.2256 17.0459 10.2256C25.9981 10.2256 33.252 12.3805 33.252 15.032Z" fill="#19334B"/>
<path d="M32.2896 15.019C32.2896 17.3247 25.4658 19.1914 17.0457 19.1914C8.62561 19.1914 1.80176 17.3247 1.80176 15.019C1.80176 12.7134 8.62561 10.8467 17.0457 10.8467C25.4658 10.8467 32.2896 12.7134 32.2896 15.019Z" fill="#D4D9D2"/>
<mask id="mask0_1263_16918" style="mask-type:luminance" maskUnits="userSpaceOnUse" x="1" y="0" width="37" height="20">
<path d="M31.9974 16.0188C29.8824 17.6416 25.5105 19.1979 17.1392 19.1979C8.76788 19.1979 1.88195 16.9987 1.88195 14.3339C1.88195 13.9437 1.74893 10.5162 1.69572 9.78462C0.906476 -1.41554 19.9237 -0.555356 26.9515 0.743792C43.3172 3.76331 36.4091 12.6357 31.9929 16.0188H31.9974Z" fill="white"/>
</mask>
<g mask="url(#mask0_1263_16918)">
<path d="M25.4132 6.22278C25.4132 6.22278 28.3441 5.61532 29.488 4.87042C30.632 4.12552 30.7428 4.38268 30.7428 4.83938C30.7428 5.29608 28.3042 6.3957 26.4197 6.52428C24.5353 6.65287 25.4132 6.22278 25.4132 6.22278Z" fill="#FDE788"/>
<path d="M26.5533 9.82811C26.5533 9.82811 29.9231 9.4734 31.7853 10.675C33.6476 11.8766 33.9225 12.4796 33.9225 12.4796C33.9225 12.4796 34.2728 12.6215 34.4413 12.3688C34.6142 12.116 34.5078 11.9431 34.0289 11.38C33.55 10.8125 29.8255 7.51802 25.999 9.75274L26.5533 9.82368V9.82811Z" fill="#FDE788"/>
<g style="mix-blend-mode:multiply">
<path d="M30.6409 4.44389C30.6808 4.60351 30.5211 4.78974 30.3128 4.93162C30.0733 5.09124 29.8117 5.19766 29.5412 5.30407C29.1067 5.477 28.6722 5.64549 28.2332 5.80511C27.8741 5.93813 27.5105 6.08002 27.1336 6.17313C26.974 6.21303 26.7213 6.26624 26.6148 6.10662C26.5749 6.04454 26.6015 5.98247 26.6592 5.92039C25.9542 6.10662 25.4132 6.21747 25.4132 6.21747C25.4132 6.21747 24.5353 6.64756 26.4197 6.51898C28.3042 6.39039 30.7428 5.28634 30.7428 4.83408C30.7428 4.65672 30.7251 4.5104 30.6364 4.43945L30.6409 4.44389Z" fill="#FBDB92"/>
<path d="M34.0279 11.379C33.5491 10.8115 29.8245 7.51705 25.998 9.75176L26.5523 9.8227C26.5523 9.8227 29.9221 9.46799 31.7844 10.6696C33.6466 11.8712 33.9215 12.4742 33.9215 12.4742C33.9215 12.4742 34.2718 12.6161 34.4403 12.3634C34.6132 12.1106 34.5068 11.9377 34.0279 11.3746V11.379ZM33.9127 12.1683C33.722 12.0264 33.6023 11.8313 33.4382 11.6672C33.2476 11.481 33.0303 11.3081 32.8042 11.1529C32.3076 10.8115 31.7977 10.4656 31.2301 10.2173C30.7911 10.0222 30.3433 9.89365 29.8689 9.78723C29.7314 9.75619 29.5674 9.72072 29.4299 9.65865C29.2215 9.58771 29.0176 9.48572 29.1683 9.36601C29.3324 9.23742 29.594 9.31723 29.7846 9.36157C30.1571 9.44138 30.5162 9.5611 30.8621 9.69855C31.5981 9.99563 32.3297 10.3326 32.9416 10.8026C33.3761 11.1396 33.9304 11.6007 34.0058 12.1328C34.0102 12.1816 33.9437 12.1904 33.9127 12.1683Z" fill="#FBDB92"/>
</g>
<path d="M4.11774 18.2649C4.26406 19.2847 5.72726 19.9188 7.96198 19.6261C9.21678 19.4621 10.4051 19.0364 11.2076 18.6905L10.4361 18.4866C9.7932 18.8014 8.97292 19.1251 8.1083 19.2404C6.2283 19.4887 4.63651 18.9965 4.80057 17.8791C4.84934 17.5599 4.98679 17.2894 5.14641 17.0766L4.77396 16.9746C4.44142 17.2096 4.02462 17.6353 4.11774 18.2649Z" fill="#FDE788"/>
<path d="M28.2067 19.9853C26.5174 22.1801 20.3542 21.9584 17.6849 21.1159C14.9137 20.2425 15.3216 19.87 13.0825 19.5108C10.8478 19.1561 8.36918 20.4021 6.3739 20.6459C4.37862 20.8898 3.34107 20.2558 3.21249 18.9788C3.11938 18.0521 3.99287 17.2628 4.4806 16.8992L3.93079 16.7529C3.93079 16.7529 2.37891 17.285 2.37891 18.7925C2.37891 20.3001 3.84654 21.2711 6.14777 21.1958C8.44899 21.1248 10.8034 19.5419 12.8829 20.0075C14.9625 20.4686 16.2084 22.0958 20.8375 22.3131C25.4665 22.5304 29.1245 20.9297 29.4837 19.9808H28.1978L28.2067 19.9853Z" fill="#FDE788"/>
<path d="M3.08793 16.4473C3.08793 16.4473 2.01934 16.4606 0.578308 16.8596C-0.862727 17.2587 -1.01348 17.6843 -0.889331 17.8573C-0.889331 17.8573 -0.836124 18.0258 -0.680935 18.0036C-0.530181 17.9814 2.10359 16.9483 3.51802 17.0325C3.51802 17.0325 3.86387 17.0813 3.86387 16.8995C3.86387 16.7177 3.08793 16.4517 3.08793 16.4517V16.4473Z" fill="#FDE788"/>
<g style="mix-blend-mode:multiply">
<path d="M10.4361 18.4817C9.7932 18.7965 8.97292 19.1202 8.1083 19.2355C6.2283 19.4838 4.63651 18.9916 4.80057 17.8743C4.84934 17.555 4.98679 17.2845 5.14641 17.0717L4.77396 16.9697C4.44142 17.2047 4.02462 17.6304 4.11774 18.26C4.26406 19.2798 5.72726 19.9139 7.96198 19.6212C9.21678 19.4572 10.4051 19.0315 11.2076 18.6857L10.4361 18.4817ZM6.00217 19.5281C5.60311 19.5281 5.22623 19.3818 4.92915 19.1468C4.76066 19.0537 4.60547 18.9428 4.47689 18.801C4.22415 18.526 4.09113 18.0161 4.25962 17.6792C4.31283 17.5727 4.41481 17.5683 4.50793 17.6437C4.62764 17.7457 4.61877 17.9851 4.64981 18.1181C4.80057 18.7389 5.47009 19.1069 6.02877 19.4306C6.07311 19.4572 6.05981 19.5193 6.00217 19.5193V19.5281Z" fill="#FBDB92"/>
<path d="M28.2077 19.9843C26.5183 22.1791 20.3551 21.9574 17.6859 21.115C14.9147 20.2415 15.3226 19.869 13.0834 19.5099C10.8487 19.1552 8.37015 20.4011 6.37488 20.645C4.3796 20.8888 3.34205 20.2548 3.21347 18.9778C3.12035 18.0511 3.99384 17.2619 4.48158 16.8983L3.93177 16.752C3.93177 16.752 2.37988 17.284 2.37988 18.7916C2.37988 20.2991 3.84752 21.2702 6.14874 21.1948C8.44997 21.1238 10.8044 19.5409 12.8839 20.0065C14.9634 20.4676 16.2094 22.0949 20.8384 22.3121C25.4675 22.5294 29.1255 20.9287 29.4846 19.9799H28.1988L28.2077 19.9843ZM7.90016 20.645C7.90016 20.645 7.88242 20.6849 7.86025 20.707C7.75384 20.8401 7.41242 20.8755 7.24393 20.9243C6.66752 21.0839 6.0645 21.1371 5.46148 21.1017C4.40177 21.044 3.05828 20.5341 2.7213 19.5675C2.62375 19.2926 2.56611 18.929 2.60601 18.6408C2.64592 18.3482 2.71243 18.0467 2.83658 17.7673C2.88535 17.6609 3.32875 16.9426 3.53715 17.2929C3.60365 17.4082 3.53715 17.5412 3.45733 17.6299C3.11149 18.0378 2.96516 18.7162 3.05384 19.2084C3.16026 19.7936 3.58148 20.2858 4.19337 20.5297C4.54365 20.6716 4.93827 20.7425 5.31959 20.7913C5.8295 20.8534 6.34384 20.7824 6.84487 20.6982C7.10648 20.6538 7.36808 20.6095 7.62968 20.5785C7.7494 20.5607 7.92676 20.5474 7.90016 20.6405V20.645ZM24.1595 22.0284C23.889 22.1924 23.5343 22.1924 23.215 22.1924C22.7317 22.1924 22.2529 22.2501 21.7696 22.2501C20.6079 22.2501 19.4373 22.1525 18.3155 21.882C17.4952 21.6869 16.675 21.4608 15.8857 21.1815C15.6019 21.0795 15.0521 20.9243 14.7905 20.6627C14.6619 20.6006 14.5467 20.5297 14.4846 20.4321C14.3737 20.2636 14.724 20.2282 14.8304 20.237C15.2827 20.2902 15.6817 20.5563 16.0675 20.7514C16.6661 21.0529 17.3445 21.2569 18.0051 21.4253C18.719 21.6071 19.4595 21.7623 20.1955 21.8333C20.9271 21.9042 21.6631 21.8953 22.4036 21.9042C22.9712 21.9131 23.5919 21.7934 24.1417 21.9397C24.1905 21.953 24.1949 22.0062 24.155 22.0284H24.1595Z" fill="#FBDB92"/>
<path d="M3.08872 16.4463C3.08872 16.4463 2.81381 16.4463 2.36155 16.5039C2.56108 16.5217 2.75174 16.5616 2.87589 16.6503C3.03551 16.7611 2.78277 16.8808 2.68966 16.903C2.40145 16.9695 2.09994 16.9961 1.80287 17.0227C1.36834 17.0626 1.00919 17.1735 0.605702 17.3419C0.375136 17.4395 0.14457 17.5415 -0.0948631 17.6257C-0.263353 17.6878 -0.449579 17.7676 -0.64024 17.7587C-0.879673 17.7454 -0.799862 17.5592 -0.649107 17.373C-0.946182 17.5858 -0.963918 17.7632 -0.892975 17.8607C-0.892975 17.8607 -0.839767 18.0292 -0.684579 18.007C-0.533825 17.9849 2.09994 16.9518 3.51438 17.036C3.51438 17.036 3.86022 17.0848 3.86022 16.903C3.86022 16.7212 3.08428 16.4552 3.08428 16.4552L3.08872 16.4463Z" fill="#FBDB92"/>
</g>
<path d="M31.9577 14.9534C31.9577 14.9534 32.1794 14.7095 31.9577 14.2972C31.9577 14.2972 32.0419 13.8848 31.9311 13.8095C31.9311 13.8095 32.0419 13.2729 31.8202 13.202C31.8202 13.202 32.3745 12.6655 32.206 11.9649C32.0375 11.2599 30.6275 10.4574 28.1046 11.5038C28.1046 11.5038 28.1401 11.4816 28.1933 11.4373C25.4309 12.497 23.5376 14.6209 23.5376 14.6209C16.9222 17.0196 8.90113 13.0025 7.57095 11.8363C6.24076 10.6702 4.6534 10.7013 4.6534 10.7013C4.6534 10.7013 3.48727 10.7013 3.43407 11.8408C3.38086 12.9803 4.95935 14.5854 4.95935 14.5854C4.95935 14.5854 4.57359 14.4391 4.04595 13.9292C3.51831 13.4193 3.29661 13.1045 2.99067 13.5168C2.99067 13.5168 2.52067 13.4193 2.43643 14.0755C2.35218 14.7317 2.63152 15.215 2.63152 15.215C2.63152 15.215 2.29897 14.9224 2.18813 15.3613C2.07728 15.8003 2.68916 16.4299 2.87982 16.5984C3.07492 16.7669 7.53547 19.3918 11.6679 19.6578C11.6679 19.6578 17.268 20.8727 20.0924 20.753C20.0924 20.753 20.3718 21.192 21.1477 21.1166C21.1477 21.1166 21.1477 21.5068 22.7838 21.4093C24.42 21.3117 25.1959 20.9481 25.1959 20.9481C25.1959 20.9481 29.7141 20.4382 31.1285 19.4406C32.543 18.4429 31.3502 17.1349 31.3502 17.1349C31.3502 17.1349 32.4853 15.8003 31.9577 14.949V14.9534Z" fill="#FDEAAE"/>
<g style="mix-blend-mode:multiply">
<path d="M31.9577 14.9535C31.9577 14.9535 32.1794 14.7096 31.9577 14.2973C31.9577 14.2973 32.0419 13.8849 31.9311 13.8095C31.9311 13.8095 32.0419 13.273 31.8202 13.2021C31.8202 13.2021 32.3745 12.6656 32.206 11.965C32.1173 11.5881 31.6695 11.1846 30.8847 11.0472C31.3857 11.2024 32.0552 11.5526 31.7005 12.0714C31.6739 12.1069 31.6163 12.098 31.5985 12.0581C31.3502 11.3975 30.2063 11.4861 29.6077 11.6192C28.9515 11.7655 28.3041 12.0005 27.7055 12.2843C26.5084 12.8474 25.4531 13.6233 24.6151 14.5589C24.3668 14.8382 24.1938 15.1663 23.9588 15.4545C23.848 15.5875 23.6352 15.8979 23.4046 15.7427C23.1918 15.6009 23.3248 15.1752 23.3913 14.9934C23.4534 14.8249 23.5376 14.6653 23.6352 14.5145C23.5731 14.581 23.5376 14.6209 23.5376 14.6209C22.673 14.9358 21.7862 15.1353 20.8905 15.2506C20.8285 15.2594 20.7708 15.2639 20.7088 15.2727C20.6733 15.2727 20.6422 15.2816 20.6068 15.286C20.5491 15.2905 20.4959 15.2993 20.4383 15.3038C20.3984 15.3038 20.3585 15.3126 20.323 15.3126C20.2698 15.3171 20.221 15.3215 20.1678 15.3259C20.1235 15.3259 20.0836 15.3304 20.0392 15.3348C19.9904 15.3348 19.9461 15.3392 19.8973 15.3437C19.8486 15.3437 19.8042 15.3481 19.7554 15.3525C19.7111 15.3525 19.6712 15.3525 19.6269 15.357C19.5737 15.357 19.5249 15.357 19.4717 15.3614C19.4318 15.3614 19.3919 15.3614 19.3564 15.3614C19.3032 15.3614 19.2455 15.3614 19.1923 15.3614C13.8051 15.4279 8.62179 12.7454 7.57538 11.8276C6.24519 10.6614 4.65784 10.6925 4.65784 10.6925C4.65784 10.6925 3.49171 10.6925 3.4385 11.832C3.40746 12.5193 3.96171 13.3661 4.40954 13.9381C4.40954 13.9381 4.40954 13.9381 4.40954 13.9426C4.52039 14.08 4.62237 14.2042 4.70661 14.3017C4.70661 14.3017 4.70661 14.3017 4.71105 14.3061C4.72435 14.3194 4.73321 14.3327 4.74652 14.346C4.74652 14.3505 4.75538 14.3549 4.75982 14.3593C4.76869 14.3682 4.77755 14.3815 4.78642 14.3904C4.79086 14.3948 4.79972 14.4037 4.80416 14.4081C4.81303 14.417 4.81746 14.4214 4.82633 14.4303C4.8352 14.4392 4.83963 14.448 4.8485 14.4525C4.8485 14.4525 4.85737 14.4613 4.85737 14.4658C4.92387 14.5367 4.95935 14.5766 4.95935 14.5766C4.95935 14.5766 4.57359 14.4303 4.04595 13.9204C3.51831 13.4105 3.29661 13.0957 2.99067 13.508C2.99067 13.508 2.52067 13.4105 2.43643 14.0667C2.35218 14.7229 2.63152 15.2062 2.63152 15.2062C2.63152 15.2062 2.29897 14.9136 2.18813 15.3525C2.07728 15.7915 2.68916 16.4211 2.87982 16.5896C3.07492 16.7581 7.53547 19.383 11.6679 19.649C11.6679 19.649 17.268 20.864 20.0924 20.7442C20.0924 20.7442 20.3718 21.1832 21.1477 21.1078C21.1477 21.1078 21.1477 21.498 22.7838 21.4005C24.42 21.3029 25.1959 20.9393 25.1959 20.9393C25.1959 20.9393 29.7141 20.4294 31.1285 19.4318C32.543 18.4341 31.3502 17.1261 31.3502 17.1261C31.3502 17.1261 32.4853 15.7915 31.9577 14.9402V14.9535ZM28.8805 12.3685C29.4126 11.9916 31.47 11.7522 31.0443 12.803C31.031 12.8385 30.9822 12.8518 30.9512 12.8252C30.4812 12.4261 29.8782 12.4394 29.2752 12.435C29.1554 12.4439 29.0401 12.4483 28.9204 12.4483C28.8761 12.4483 28.8406 12.3907 28.8805 12.3641V12.3685ZM26.0073 14.5323C26.6591 13.6632 27.6035 12.803 28.8318 12.6478C28.8318 12.6478 28.8406 12.6478 28.8451 12.6478C29.2663 12.5592 29.7008 12.5592 30.1043 12.701C30.5211 12.8518 30.7783 13.3085 30.4723 13.6366C30.4546 13.6588 30.4147 13.6543 30.3925 13.6366C29.7718 13.0912 28.8539 13.171 28.0957 13.4326C27.3508 13.6898 26.6502 14.0889 26.0916 14.5899C26.0472 14.6298 25.9674 14.5766 26.0029 14.5323H26.0073ZM25.9541 15.1796C26.3044 14.5411 27.1025 13.9736 27.874 13.7652C27.8873 13.7652 27.8962 13.7652 27.9095 13.7652C28.2066 13.6543 28.5169 13.5834 28.8318 13.5834C29.1776 13.5834 29.6653 13.61 29.8205 13.9292C29.8338 13.9559 29.825 13.9958 29.7895 14.0002C29.0934 14.1066 28.3928 14.1243 27.7321 14.3593C27.1202 14.581 26.5616 14.8914 26.0339 15.2417C25.9852 15.2727 25.9364 15.2151 25.9586 15.1752L25.9541 15.1796ZM17.6449 15.6762C17.8843 15.6275 18.8155 15.7161 18.9041 15.7117C19.3919 15.694 19.8796 15.6452 20.3673 15.5831C20.7753 15.5299 21.161 15.4412 21.5556 15.3348C21.7773 15.2772 22.3094 15.02 22.5267 15.2195C22.7617 15.4368 22.2296 15.6895 22.0434 15.7693C21.3827 16.0442 20.66 16.1595 19.9417 16.1728C19.2855 16.1861 18.4297 16.2881 17.8267 15.9822C17.7779 15.9556 17.4542 15.7161 17.6493 15.6762H17.6449ZM15.357 16.1595C15.8536 16.1728 16.3413 16.3147 16.8335 16.3857C17.4143 16.4699 18.004 16.5364 18.5938 16.532C19.7155 16.5275 21.2364 16.3857 22.4557 16.1906C22.5178 16.1817 22.0123 16.399 21.9547 16.4167C21.9281 16.4256 21.8971 16.43 21.866 16.4389C22.8637 16.2349 23.8524 16.0043 24.8323 15.756C26.6946 15.2816 28.65 14.9269 30.2595 13.9292C30.4768 13.7918 31.0753 13.3174 31.3547 13.5834C31.9754 14.182 28.5347 15.2639 28.0602 15.4146C27.2444 15.6674 26.4241 15.8979 25.595 16.1019C24.2692 16.4344 22.9169 16.6827 21.5601 16.8911C20.8994 16.9931 20.2343 17.0818 19.5692 17.1705C19.0105 17.2458 17.5207 17.339 17.8533 17.0907C18.1326 17.0197 18.9529 16.9798 19.3342 16.9222C19.8929 16.8379 20.4427 16.7271 20.9925 16.6162C19.3608 16.8512 17.2059 17.0862 15.6629 16.43C15.6407 16.4211 15.6319 16.4034 15.6363 16.3857C15.5343 16.3458 15.4323 16.3058 15.3304 16.2526C15.286 16.2305 15.3038 16.1595 15.357 16.164V16.1595ZM6.70632 13.3617C6.45802 13.14 6.23189 12.905 6.05453 12.6567C5.89048 12.4217 5.81067 12.1645 6.22302 12.2887C6.62651 12.4128 7.02114 12.7099 7.33151 12.9626C8.33359 13.7741 9.23368 14.6742 10.3067 15.4146C10.5683 15.5964 10.8388 15.7782 11.1358 15.9157C11.393 16.0354 12.2532 16.4344 11.8985 16.3591C11.8275 16.4167 11.6058 16.328 11.4728 16.2925C11.2733 16.2393 11.0826 16.1551 10.892 16.0753C9.34453 15.4146 7.91236 14.4392 6.70632 13.3661V13.3617ZM10.2757 16.4655C9.8899 16.4655 9.23368 16.2792 8.86566 16.1817C8.4134 16.062 7.96113 15.8758 7.52217 15.7028C7.10538 15.5432 6.64868 15.4235 6.28953 15.1708C6.05453 15.0067 5.8151 14.6076 6.33387 14.6387C6.86595 14.6697 7.29604 14.9712 7.69953 15.2417C8.08528 15.5033 8.52425 15.6895 8.96764 15.8625C9.15387 15.9334 9.34009 16.0043 9.52188 16.0797C9.67707 16.1418 9.98302 16.3502 10.1426 16.3502C10.1382 16.3502 10.2757 16.4655 10.2712 16.4655H10.2757ZM10.9851 15.1929C10.9541 15.153 11.0161 15.0998 11.0605 15.1264C12.7498 16.1728 14.8648 16.4078 16.8113 16.8867C16.8601 16.9 16.8689 16.9709 16.8113 16.9798C15.9245 17.1084 14.9136 17.0064 14.049 16.7936C13.6322 16.6916 13.2375 16.5408 12.8651 16.3679C12.1557 16.1462 11.4196 15.7427 10.9851 15.1974V15.1929ZM16.7803 17.7779C17.268 17.7424 17.7557 17.7912 18.2435 17.7868C18.7711 17.7824 19.3032 17.7336 19.8308 17.6848C20.9393 17.5828 22.0567 17.4808 23.1519 17.3212C24.216 17.166 25.2757 16.9665 26.3177 16.7271C27.1868 16.5275 28.0115 16.1595 28.9204 16.093C28.9692 16.093 28.9914 16.1462 28.9603 16.1773C28.6322 16.461 28.1312 16.6118 27.7188 16.7758C27.2355 16.9665 26.7478 17.1439 26.2423 17.2813C25.1737 17.574 24.0874 17.7957 22.9834 17.9508C21.9946 18.0883 21.0014 18.2524 20.0038 18.3233C19.1081 18.3898 18.1903 18.3765 17.3345 18.1149C17.1217 18.0661 16.9177 17.9908 16.7404 17.8622C16.7005 17.8311 16.7404 17.7824 16.7803 17.7779ZM4.48935 11.832C4.26322 12.2266 4.6135 12.6478 4.45388 13.038C3.77548 12.6523 3.51388 11.628 4.18784 11.1137C4.99038 10.4974 6.29397 11.1226 6.96349 11.5748C8.06311 12.3242 8.95877 13.1178 10.1825 13.7076C10.8875 14.049 11.6147 14.3283 12.3685 14.5766C12.7454 14.7008 13.1223 14.8205 13.4947 14.9491C13.7253 15.0289 14.3815 15.1796 14.4657 15.3747C14.4923 15.4368 13.0824 15.3348 12.9715 15.3126C12.4261 15.2151 11.8941 15.0466 11.3886 14.8426C10.3688 14.4347 9.43764 13.8716 8.55528 13.273C8.10745 12.9671 7.66849 12.6523 7.2384 12.3286C6.795 11.996 6.33831 11.6591 5.76189 11.526C5.30963 11.4196 4.74208 11.4063 4.49378 11.8276L4.48935 11.832ZM4.92387 12.1601C4.92387 12.1601 4.92831 12.1601 4.93274 12.1601C5.22538 12.067 5.74859 12.8385 5.89491 12.9981C6.51566 13.6854 7.2384 14.3771 8.06311 14.9092C8.32915 15.051 8.59962 15.1974 8.86123 15.3437C8.9233 15.3792 8.87009 15.4545 8.80359 15.4279C8.32472 15.2151 7.79264 15.0466 7.33595 14.8027C6.46689 14.3416 5.57123 13.7829 5.03916 12.9893C4.94604 12.8518 4.62237 12.2798 4.91944 12.1645L4.92387 12.1601ZM3.49171 13.814C3.72227 13.8805 3.9085 14.1199 4.08142 14.3017C4.75095 14.785 5.47812 15.2018 6.25406 15.5388C7.22066 15.96 8.22717 16.226 9.26028 16.4876C10.3865 16.7758 11.495 17.0685 12.6656 17.1882C13.7164 17.2991 14.7806 17.3611 15.8403 17.3611C15.9112 17.3611 15.9112 17.4498 15.8403 17.4587C14.0578 17.7247 12.7276 17.5074 11.1891 17.2902C10.9274 17.2547 10.6658 17.2104 10.4042 17.1616C10.3954 17.1616 10.3865 17.1616 10.3776 17.1616C8.59519 16.8778 6.68859 16.5675 5.15887 15.6674C4.64897 15.3658 4.1302 15.051 3.7001 14.6609C3.54492 14.5234 3.22567 14.2352 3.30105 14.0091C3.30105 14.0002 3.29661 13.9913 3.29218 13.9869C3.26114 13.8805 3.36756 13.7741 3.49614 13.814H3.49171ZM7.44236 17.1572C7.89906 17.4232 8.40009 17.6316 8.86566 17.8843C8.91887 17.9109 8.8834 17.9908 8.82132 17.973C8.22717 17.8001 7.63302 17.5917 7.09208 17.3079C7.07878 17.3079 7.06547 17.3079 7.05217 17.3035C6.75066 17.1439 6.31614 16.931 6.30283 16.5808C6.30283 16.5497 6.33831 16.5231 6.37378 16.532C6.7817 16.6606 7.08321 16.9443 7.44236 17.1527V17.1572ZM6.9768 18.3942C6.60434 18.31 6.24963 18.1814 5.91265 18.0262C5.22095 17.7735 4.55142 17.4808 3.9218 17.1173C3.39859 16.8158 2.51624 16.3325 2.50294 15.7073C2.50294 15.6718 2.53841 15.6541 2.57388 15.6585C2.58275 15.6585 2.59161 15.6585 2.60048 15.6629C2.61378 15.6496 2.63595 15.6496 2.65812 15.6629C2.81775 15.7605 2.91086 15.9024 3.03944 16.0265C3.18576 16.1684 3.33209 16.3014 3.49614 16.4256C3.83756 16.6872 4.20114 16.9222 4.56472 17.1527C5.00812 17.4321 5.46925 17.7114 5.95699 17.9331C6.30283 18.0617 6.64868 18.1814 7.0034 18.2923C7.06991 18.3144 7.0433 18.4031 6.97236 18.3854L6.9768 18.3942ZM12.599 19.6269C11.8231 19.5382 11.0649 19.3121 10.3244 19.1037C9.65934 18.913 9.13613 18.8243 8.48877 18.5893C7.32264 18.1681 6.49349 17.7158 5.57123 17.2503C4.95935 16.8823 4.38293 16.461 3.85529 16.0487C3.35426 15.6541 2.79558 15.1974 2.65812 14.5899C2.63595 14.4791 2.60935 14.1554 2.82661 14.1687C3.01284 14.1776 3.1769 14.4347 3.26558 14.5544C3.4252 14.7628 3.55822 14.989 3.73114 15.1885C4.11246 15.6408 4.54699 16.062 5.02586 16.4389C5.54906 16.8512 6.11217 17.2148 6.71076 17.5385C7.16746 17.7114 7.58425 17.9508 8.04094 18.1193C9.33122 18.6026 10.6747 18.9263 12.0093 19.2988C12.2 19.352 12.7276 19.4229 12.8562 19.5781C12.8784 19.6047 12.8828 19.618 12.8784 19.6313C12.8562 19.6712 12.6833 19.6313 12.6079 19.6224L12.599 19.6269ZM11.934 18.4652C11.3398 18.341 10.7545 18.1903 10.1781 18.0085C10.1692 18.0307 10.1471 18.0484 10.116 18.0351C9.37556 17.7824 8.62179 17.5474 7.96113 17.1572C7.91236 17.1261 7.9434 17.0508 8.00547 17.0685C8.6484 17.2591 9.26028 17.4498 9.92981 17.5518C11.1403 17.7424 12.3286 18.0129 13.5124 18.31C13.9558 18.4208 14.4214 18.4563 14.8648 18.576C15.0732 18.6337 16.1639 18.9485 15.388 19.0106C14.8958 19.046 14.417 18.9352 13.9425 18.8598C13.2686 18.7534 12.599 18.6026 11.9295 18.4652H11.934ZM19.9018 20.3319C19.5382 20.4073 19.1657 20.425 18.7977 20.425C18.106 20.4649 17.3922 20.3674 16.7182 20.2875C16.0841 20.2166 15.4545 20.1102 14.8515 19.9328C14.6697 19.8885 14.4879 19.8353 14.315 19.7599C14.315 19.7599 14.3106 19.7599 14.3061 19.7555C14.2973 19.7555 14.2884 19.751 14.2795 19.7466C14.2263 19.7289 14.2573 19.6535 14.3061 19.6579C15.2506 19.6845 16.1551 19.924 17.0906 20.0259C18.0218 20.1279 18.9573 20.1412 19.8885 20.2432C19.9461 20.2476 19.9683 20.3274 19.9018 20.3407V20.3319ZM17.5207 19.7023C16.7758 19.6668 15.9556 19.6446 15.2949 19.3076C15.2373 19.2766 15.2772 19.2101 15.3392 19.219C16.195 19.3608 17.1217 19.2278 17.9819 19.1835C18.8509 19.1391 19.7111 19.0726 20.5757 18.9884C21.5911 18.8953 22.6065 18.7933 23.613 18.6603C24.4244 18.5228 25.2358 18.3765 26.0428 18.2124C26.1049 18.1991 26.1403 18.2745 26.0871 18.3011C25.2846 18.6913 24.4421 19.0327 23.5598 19.2633C22.6464 19.5027 21.7197 19.618 20.7708 19.6757C19.6889 19.7422 18.6071 19.7555 17.5207 19.7023ZM24.522 20.6467C24.0608 20.7708 23.5908 20.8906 23.1164 20.9925C22.9346 21.0324 22.7173 21.0812 22.5134 21.0768C22.2252 21.1256 21.9237 21.1389 21.6665 20.9925C21.6266 20.9704 21.631 20.9172 21.6798 20.9039C23.4489 20.456 25.2136 19.8796 26.8187 19.0771C27.5858 18.6913 28.2908 18.2435 29.0047 17.7868C29.5146 17.4631 30.0245 17.1306 30.459 16.7359C30.459 16.7226 30.459 16.7049 30.4723 16.6916C30.6896 16.4965 30.8669 16.2748 31.1019 16.093C31.1507 16.0575 31.2172 16.1019 31.1906 16.1507C31.1906 16.1507 31.1906 16.1551 31.1862 16.1595C31.1862 16.1595 31.1862 16.1595 31.1906 16.1684C31.3059 16.3945 31.1418 16.6606 31.0088 16.8557C30.8137 17.1394 30.5787 17.4055 30.3216 17.6449C29.5634 18.3499 28.65 18.9529 27.7011 19.4407C26.7035 19.9506 25.6349 20.3496 24.5308 20.6511L24.522 20.6467ZM30.4856 19.3697C29.9225 19.6624 29.3106 19.8308 28.681 19.9816C28.2997 20.0747 27.7853 20.2742 27.3952 20.1146C27.3464 20.0969 27.3685 20.0392 27.4085 20.0259C28.2376 19.7377 29.1111 19.5338 29.8915 19.1391C30.1531 19.0061 30.4368 18.8864 30.6452 18.6958C30.7472 18.6026 30.8403 18.4874 30.8669 18.3543C30.9024 18.1947 30.8093 18.0307 30.8448 17.8755C30.8714 17.7602 30.9379 17.6804 31.0133 17.5873C31.031 17.5651 31.062 17.5518 31.0886 17.5695C31.9444 18.0839 31.1152 19.0372 30.4812 19.3697H30.4856ZM31.5852 15.3038C31.3281 15.8758 30.6807 16.2039 30.2107 16.6251C29.8826 16.9222 29.355 17.2148 28.9914 17.4764C28.0869 18.1326 27.1025 18.7002 26.0605 19.1702C24.9698 19.6579 23.8524 20.1057 22.6863 20.4294C22.2828 20.5403 21.8793 20.6733 21.467 20.7575C21.1477 20.8196 20.7886 20.8817 20.4826 20.7487C20.4383 20.7309 20.4516 20.6689 20.4959 20.66C21.5024 20.425 22.5444 20.2565 23.511 19.9018C24.4421 19.5604 25.3334 19.1214 26.198 18.6647C27.3907 18.0395 28.6677 17.3744 29.7097 16.5541C30.2018 16.1684 30.6807 15.6629 31.0753 15.1974C31.1773 15.0776 31.3635 14.7318 31.5675 14.7495C31.603 14.7495 31.6251 14.7673 31.6296 14.7939C31.6784 14.9712 31.6562 15.1397 31.5852 15.2993V15.3038Z" fill="#FBDB92"/>
</g>
<path d="M7.57529 11.836C8.90548 13.0021 16.9265 17.0193 23.542 14.6205C23.542 14.6205 25.4308 12.4967 28.1976 11.4369C28.4725 11.233 29.2662 10.5634 28.9647 9.89836C28.641 9.18449 28.3218 9.14458 28.2553 9.14458C28.3927 9.14015 29.7007 9.08251 30.0155 8.85194C30.3481 8.60808 30.153 8.29326 29.9889 8.17355C29.9889 8.17355 30.6806 8.00506 30.5166 7.73459C30.3481 7.46855 29.5189 7.17591 27.7986 7.32223C27.7986 7.32223 28.1045 7.30006 28.1045 6.76355C28.1045 6.22704 27.2443 6.49751 26.7477 6.44874C24.4465 6.47091 22.367 8.05383 21.7329 8.68345C21.0944 9.31307 20.7087 10.191 18.9617 10.2398C17.2147 10.2885 16.3856 9.31751 16.3856 9.31751C14.8071 9.29534 13.3926 8.87855 11.1757 8.44402C8.95868 8.00506 6.40916 8.59034 6.40916 8.59034C6.21407 8.62581 6.04114 8.64798 5.88595 8.66128C5.26077 8.83864 3.94388 9.25543 3.0837 9.90279C1.91757 10.7763 2.1969 11.8227 2.6403 11.6276C3.0837 11.4325 4.08133 10.0003 4.91492 9.80524C4.91492 9.80524 4.60897 10.1954 4.99916 10.3151C4.99916 10.3151 4.66662 10.4836 4.66662 10.7053C4.66662 10.7053 6.25397 10.6743 7.58416 11.8404L7.57529 11.836Z" fill="#FDE788"/>
<g style="mix-blend-mode:multiply">
<path d="M30.5172 7.73791C30.3487 7.47187 29.5195 7.17923 27.7991 7.32555C27.7991 7.32555 28.1051 7.30338 28.1051 6.76687C28.1051 6.41659 27.7326 6.41216 27.3336 6.43433C27.3247 6.44763 27.3114 6.4565 27.2892 6.4565C27.2848 6.4565 27.2804 6.4565 27.2759 6.4565C27.3557 6.48753 27.4311 6.52301 27.4888 6.58065C27.6439 6.72253 27.4755 6.89546 27.3203 6.9531C27.0099 7.06395 26.633 7.07725 26.3005 7.11272C25.6487 7.17923 24.9924 7.19253 24.3495 7.31225C24.2874 7.32555 24.2564 7.25461 24.3052 7.22357C24.988 6.81565 25.7728 6.58508 26.5754 6.45206C24.3407 6.54961 22.3454 8.06602 21.7246 8.68234C21.0861 9.31196 20.7004 10.1899 18.9534 10.2387C17.2064 10.2874 16.3773 9.3164 16.3773 9.3164C14.7988 9.29423 13.3844 8.87744 11.1674 8.44291C8.9504 8.00395 6.40087 8.58923 6.40087 8.58923C6.25012 8.61583 6.11267 8.63357 5.98852 8.64687C6.11267 8.64244 6.23238 8.65574 6.34767 8.70008C6.38757 8.71781 6.38314 8.76659 6.34767 8.78432C5.56729 9.19225 4.7071 9.44498 3.96663 9.91055C3.2705 10.3495 2.65862 10.8727 2.39258 11.5999C2.45909 11.6531 2.54333 11.6664 2.63645 11.6265C3.07984 11.4314 4.07748 9.99923 4.91106 9.80413C4.91106 9.80413 4.60512 10.1943 4.99531 10.314C4.99531 10.314 4.66276 10.4825 4.66276 10.7042C4.66276 10.7042 6.25012 10.6732 7.5803 11.8393C8.91049 13.0054 16.9315 17.0226 23.547 14.6238C23.547 14.6238 25.4358 12.5 28.2026 11.4403C28.4775 11.2363 29.2712 10.5668 28.9697 9.90168C28.646 9.18781 28.3268 9.14791 28.2603 9.14791C28.3977 9.14347 29.7057 9.08583 30.0205 8.85526C30.3531 8.6114 30.158 8.29659 29.9939 8.17687C29.9939 8.17687 30.6856 8.00838 30.5216 7.73791H30.5172ZM23.0282 7.98178C23.1169 7.90196 23.2144 7.83546 23.3253 7.78225C23.3253 7.77781 23.3341 7.76895 23.3386 7.76451C23.5869 7.6448 23.9017 7.56055 24.1766 7.66697C24.2032 7.67583 24.1988 7.7113 24.1766 7.72017C23.8485 7.91083 23.4361 7.94187 23.0637 8.03055C23.0282 8.03942 23.0016 7.99951 23.0282 7.97734V7.98178ZM22.1325 8.64244C22.7577 8.17244 23.6578 8.09263 24.4338 7.96404C25.3782 7.80885 26.3049 7.60489 27.2493 7.45857C27.2538 7.45414 27.2626 7.4497 27.2759 7.4497C27.3868 7.43197 27.4976 7.41866 27.6085 7.4098C27.6661 7.40093 27.7193 7.39206 27.777 7.38763C27.7903 7.38763 27.7991 7.38763 27.8124 7.39206C28.043 7.37432 28.278 7.36546 28.5086 7.37432C28.8189 7.38763 29.2535 7.41866 29.4308 7.6847C29.4486 7.7113 29.4308 7.75121 29.3998 7.75564C28.8101 7.87093 28.1982 7.85763 27.5996 7.91083C26.9079 7.97291 26.2162 8.06602 25.5378 8.19904C24.9392 8.31876 24.3584 8.48281 23.7642 8.61583C23.2366 8.73555 22.7045 8.81536 22.1636 8.72668C22.1237 8.72225 22.1104 8.66904 22.137 8.64687L22.1325 8.64244ZM22.0128 10.4825C22.0128 10.4825 22.0261 10.4692 22.035 10.4737C22.8065 10.5446 23.4805 10.4027 24.2254 10.2165C24.6067 10.1234 25.019 9.92385 25.4403 9.71545C25.5467 9.66224 25.7418 9.69328 25.7063 9.91055C25.662 10.181 25.3605 10.3495 25.1964 10.4382C24.9038 10.5934 24.5978 10.6998 24.2874 10.7486C23.8662 10.8195 23.4361 10.8372 23.0149 10.7885C22.6824 10.7486 22.3232 10.7353 22.0084 10.5801C21.9685 10.5623 21.9818 10.487 22.0128 10.4825ZM19.4988 10.9614C19.951 11.019 20.3944 11.121 20.8511 11.1565C21.2413 11.192 21.6404 11.1875 22.035 11.1742C22.6957 11.1521 23.3696 11.1343 24.0258 11.0634C25.019 10.957 26.1807 10.6909 26.7173 9.88838C26.7705 9.71102 26.8724 9.578 27.0321 9.78196C27.1961 9.99036 26.9301 10.3805 26.7926 10.5446C26.3803 11.0279 25.5777 11.223 24.9348 11.3383C23.8751 11.5289 22.7932 11.5511 21.7158 11.4846C21.1881 11.4536 20.6605 11.4137 20.1373 11.325C19.8845 11.2806 19.583 11.2452 19.4367 11.0368C19.4101 10.9969 19.4544 10.9614 19.4988 10.9658V10.9614ZM17.1 10.1766C17.3084 10.1633 17.5833 10.1367 17.7651 10.2564C17.805 10.283 17.8006 10.3273 17.7518 10.3451C17.0911 10.5801 16.3773 10.6244 15.6811 10.7486C15.1712 10.8417 14.5815 10.9437 14.1248 10.6643C14.0849 10.6377 14.0938 10.5889 14.1381 10.5756C14.8786 10.3229 15.6944 10.2874 16.4881 10.2475C16.6921 10.2165 16.896 10.1899 17.1 10.1766ZM14.7101 9.3696C15.1624 9.39621 16.5103 9.51149 16.3241 9.75092C16.1822 9.92828 15.4107 9.96375 15.189 10.0037C14.781 10.079 14.3687 10.1677 13.9563 10.2254C13.7036 10.2608 12.3158 10.518 12.7946 9.91055C13.1715 9.43168 13.9741 9.36517 14.5771 9.36517C14.5993 9.36517 14.6436 9.36517 14.7101 9.3696ZM7.82861 8.69121C8.06361 8.46064 8.47596 8.43404 8.80408 8.39413C9.34058 8.32762 9.88153 8.32762 10.418 8.39413C11.3536 8.51385 12.3335 8.78432 13.0917 9.29866C13.136 9.32526 13.1227 9.38734 13.0651 9.38734C12.1961 9.41838 11.4157 9.15677 10.5865 8.98828C9.73077 8.81093 8.86172 8.75328 7.98823 8.77545C7.97493 8.78876 7.95719 8.79319 7.93502 8.78876C7.90842 8.78876 7.88625 8.77989 7.85964 8.77102C7.81974 8.75772 7.80644 8.71781 7.83304 8.69121H7.82861ZM5.2037 10.0524C5.18597 10.0613 5.1638 10.0702 5.14606 10.079C5.11946 10.0923 5.09729 10.0835 5.07955 10.0702C5.04852 10.0702 5.01305 10.0391 5.02635 10.0081C5.28352 9.41394 6.22795 9.27206 6.85757 9.22328C7.86408 9.15234 8.9504 9.34743 9.85492 9.73319C9.9037 9.75536 9.88153 9.8263 9.82832 9.82187C8.272 9.71989 6.65804 9.37847 5.20814 10.0436L5.2037 10.0524ZM5.27021 10.518C5.24361 10.5047 5.23918 10.4737 5.25248 10.4515C5.25248 10.4426 5.26135 10.4382 5.26578 10.4338C5.26578 10.4249 5.27465 10.416 5.27908 10.4116C5.31455 10.3672 5.35446 10.3406 5.42097 10.3052C5.44757 10.2919 5.47418 10.3007 5.48748 10.3185C6.69795 9.81743 8.06361 9.84847 9.36275 10.0391C10.1343 10.15 10.888 10.3185 11.6462 10.4781C12.165 10.5845 12.7015 10.6555 13.207 10.7973C14.2135 10.9969 15.1845 11.356 16.0802 11.7905C16.6788 12.0832 17.2552 12.4024 17.8626 12.6773C18.3238 12.8857 18.7938 13.0808 19.2549 13.2892C19.5742 13.3912 19.8978 13.4887 20.2304 13.5597C20.594 13.6395 20.962 13.7104 21.3167 13.8257C21.361 13.839 21.3743 13.91 21.3167 13.9188C19.6894 14.1272 18.0888 13.4444 16.8606 12.5798C16.5857 12.3847 16.3152 12.1896 16.0093 12.03C15.353 11.693 14.6392 11.458 13.912 11.2673C13.1316 11.0589 12.3069 10.9038 11.5044 10.7929C9.96134 10.5756 8.48927 10.4382 6.92408 10.62C6.37427 10.6821 5.78012 10.7441 5.27021 10.5136V10.518ZM21.2591 14.4598C20.1417 14.6327 18.3459 14.6194 17.7385 13.5952C17.7119 13.5508 17.7651 13.5065 17.8139 13.5287C18.4302 13.777 19.0465 14.0031 19.7072 14.1139C20.2259 14.1849 20.7491 14.2425 21.2546 14.3622C21.3034 14.3755 21.3123 14.4465 21.2546 14.4553L21.2591 14.4598ZM14.0051 14.1671C12.9365 14.0208 11.1629 13.9543 10.7506 12.868C10.7328 12.8237 10.7905 12.7971 10.8304 12.8148C11.2516 12.9921 11.6507 13.2094 12.0941 13.3424C12.1295 13.3513 12.1384 13.3823 12.1295 13.4045C12.7547 13.6439 13.4065 13.8346 14.0361 14.0696C14.0361 14.0696 14.045 14.0696 14.0494 14.074C14.1115 14.0962 14.0627 14.1716 14.0051 14.1627V14.1671ZM11.6595 12.8591C12.3823 12.5931 13.3533 12.9256 13.7568 13.4976C13.7834 13.5331 13.7391 13.5819 13.6947 13.5686C13.4376 13.4887 13.176 13.4045 12.9188 13.3203C12.901 13.338 12.8789 13.3469 12.8478 13.3336C12.4621 13.1784 12.0586 13.0764 11.6595 12.9478C11.6063 12.9301 11.6108 12.8724 11.6595 12.8547V12.8591ZM15.0027 14.5928C14.9673 14.6283 14.9096 14.5972 14.9096 14.5573C14.7855 13.0675 13.1405 12.6241 11.695 12.4556C10.8969 12.4024 10.0944 12.531 9.29624 12.4335C9.2519 12.429 9.24304 12.3625 9.28294 12.3448C10.0323 12.0566 10.8792 11.9901 11.6861 12.0477C12.3645 12.0965 13.074 12.2029 13.6947 12.4601C14.5416 12.8104 15.9206 13.7149 15.0027 14.5928ZM17.1621 14.5928C17.0911 14.8189 17.1443 15.0229 16.8251 14.9963C16.395 14.9608 16.4127 14.2159 16.3329 13.9321C16.0492 12.9478 15.4461 12.5621 14.3909 12.1852C13.3178 11.7994 12.0453 11.6265 10.888 11.5245C10.1609 11.458 9.42483 11.4536 8.69766 11.4935C8.54247 11.5023 6.8354 11.5422 7.3453 11.2939C7.84634 11.0501 8.36955 11.0501 9.06568 11.0501C9.84162 11.0501 10.591 11.1875 11.3625 11.223C12.0896 11.2585 12.8124 11.3383 13.5307 11.458C14.351 11.5954 15.1978 11.9103 15.894 12.3182C16.732 12.8015 17.4769 13.6439 17.1709 14.6017L17.1621 14.5928ZM22.4873 14.6637C22.4917 14.6903 22.4828 14.7258 22.4474 14.7746C22.2789 15.0052 21.5739 15.0273 21.2945 15.0672C20.8334 15.1382 20.359 15.1559 19.8934 15.1825C19.1884 15.2224 18.2484 15.3333 17.6587 14.9076C17.6454 14.8987 17.6365 14.8721 17.6454 14.8588C17.8316 14.4598 18.714 14.6637 19.0687 14.7125C19.7914 14.8056 20.5275 14.7746 21.2458 14.7081C21.5074 14.6815 21.769 14.677 22.0261 14.6504C22.1769 14.6327 22.4562 14.5618 22.4828 14.6726L22.4873 14.6637ZM25.489 12.5621C25.2053 12.7527 24.9126 12.9478 24.5801 13.072C24.2697 13.1872 23.9593 13.236 23.6268 13.2582C22.7976 13.3203 21.9862 13.307 21.1704 13.1651C20.3545 13.0232 19.5608 12.7926 18.7849 12.5221C18.2972 12.3537 17.6676 12.2517 17.2907 11.9058C17.2508 11.8704 17.2907 11.8127 17.3439 11.826C17.805 11.9147 18.244 12.0654 18.6918 12.1985C18.7273 12.2073 18.7361 12.2384 18.7273 12.2605C19.6673 12.5133 20.6339 12.6862 21.6049 12.7837C22.8819 12.9123 24.2342 12.899 25.4447 12.4734C25.5068 12.4512 25.5334 12.531 25.489 12.5621ZM28.2691 10.4027C28.1361 10.784 27.839 11.0634 27.4843 11.3072C27.0808 11.5866 26.664 11.8038 26.1852 11.9679C25.7551 12.1142 25.294 12.296 24.824 12.3093C24.7574 12.3226 24.6909 12.3315 24.6244 12.3404C23.4184 12.5177 22.1148 12.4911 20.9132 12.3093C19.8491 12.1497 18.5898 12.0078 17.6986 11.4225C17.5434 11.3205 17.069 11.0323 17.3439 10.8461C17.5434 10.7131 17.8848 10.9082 18.0533 10.9969C18.3149 11.1343 18.5721 11.2452 18.8647 11.3205C19.1529 11.3959 19.419 11.5289 19.7072 11.6043C20.5718 11.8304 21.5029 11.897 22.403 11.9502C23.2322 11.9989 24.0436 11.9856 24.8506 11.7994C25.4979 11.6531 26.1142 11.4358 26.7173 11.1875C26.8059 11.1299 26.8902 11.0678 26.97 11.0102C27.2626 10.7929 27.5641 10.5357 27.7459 10.2298C27.7459 10.2254 27.7459 10.2165 27.7459 10.2121C27.8346 9.99923 27.8523 9.77309 27.9588 9.56913C27.9721 9.54696 28.012 9.53809 28.0341 9.5514C28.3179 9.74206 28.3534 10.1101 28.2558 10.3938L28.2691 10.4027ZM28.0519 8.8464C27.4577 8.92621 26.868 9.05479 26.2783 9.15677C25.6974 9.25875 25.1166 9.3563 24.5357 9.44941C23.9194 9.5514 23.3031 9.64451 22.6868 9.75092C22.1724 9.8396 21.6537 9.92828 21.126 9.95045C21.0684 9.95045 21.0418 9.91055 21.0906 9.88838C21.4896 9.69772 21.9419 9.55583 22.4074 9.43611C22.9174 9.30309 23.4273 9.17008 23.9505 9.0681C24.5313 8.95281 25.1255 8.86413 25.7063 8.74885C25.9768 8.69564 26.2428 8.64244 26.5177 8.5981C26.5266 8.5981 26.531 8.59366 26.5443 8.58923C27.1473 8.50498 27.7504 8.39413 28.3578 8.34979C28.6194 8.33206 28.8855 8.31876 29.1426 8.33206C29.2535 8.33649 29.3865 8.34093 29.4574 8.39857C29.7501 8.64687 28.2292 8.82423 28.0563 8.8464H28.0519Z" fill="#FBDB92"/>
</g>
<path d="M11.1675 8.44429C13.3844 8.88325 14.7989 9.2956 16.3774 9.31777C16.3774 9.31777 17.2109 10.2888 18.9535 10.24C20.7005 10.1913 21.0862 9.31777 21.7247 8.68372C22.3632 8.0541 24.4427 6.47118 26.7395 6.44901C26.7395 6.44901 26.407 5.9125 25.2719 5.9125C25.2719 5.9125 25.6044 5.61986 25.1078 5.10995C24.6068 4.60005 23.0549 4.48033 21.7823 5.01241C21.7823 5.01241 22.4474 3.9926 24.4693 3.84628C26.4912 3.69996 26.7439 4.13892 27.0454 3.86845C27.3514 3.60241 26.6863 3.11467 25.467 3.19005C24.2476 3.26099 21.4764 3.86845 19.9245 5.49571C19.9245 5.49571 18.3372 4.40052 15.1092 4.86608C15.1092 4.86608 12.4134 3.27873 10.5644 3.11911C8.71548 2.95505 8.49378 3.44279 8.79086 3.63788C8.79086 3.63788 8.86623 3.70439 9.38944 3.65562C9.91708 3.60684 12.2449 3.70439 13.2159 5.26071C13.2159 5.26071 12.1075 4.36061 10.693 4.55571C9.27859 4.7508 8.3652 5.40703 7.6735 6.37806C7.6735 6.37806 6.20586 6.23174 5.65162 6.69287C5.09737 7.15401 5.45652 7.44665 5.87331 7.46882C5.87331 7.46882 5.40331 7.78363 5.37228 8.07627C5.34567 8.36891 5.56737 8.564 6.23246 8.564C6.23246 8.564 6.09501 8.59504 5.87775 8.65712C6.03294 8.64381 6.20586 8.62164 6.40095 8.58617C6.40095 8.58617 8.95048 8.00532 11.1675 8.43985V8.44429Z" fill="#FDEAAE"/>
<g style="mix-blend-mode:multiply">
<path d="M26.5128 3.28764C26.5261 3.32311 26.535 3.36301 26.535 3.40735C26.535 3.69556 26.065 3.59801 25.8611 3.58915C25.1472 3.54481 24.42 3.55811 23.7283 3.73547C22.6065 4.02367 21.7641 4.69763 20.8285 5.26961C20.629 5.39377 20.3408 5.60216 20.0792 5.58443C19.9994 5.57999 19.9595 5.54452 19.9417 5.49575L19.9329 5.50461C19.9329 5.50461 18.3455 4.40943 15.1176 4.87499C15.1176 4.87499 13.6012 3.98377 12.067 3.46943C12.2 3.5315 12.3331 3.59358 12.4616 3.66009C13.0381 3.9616 13.5347 4.32962 14.0623 4.68877C14.3815 4.90603 14.7318 5.07452 15.0688 5.26961C15.2728 5.3849 15.5078 5.46914 15.6763 5.62876C15.7073 5.6598 15.6851 5.71301 15.6364 5.71301C14.9048 5.69527 14.2663 5.31839 13.7032 4.93707C13.0735 4.51141 12.4794 4.01481 11.7433 3.7266C11.2999 3.54924 10.8432 3.45613 10.3511 3.45169C9.99636 3.45169 9.61061 3.5182 9.26476 3.47386C9.1007 3.45169 8.90118 3.38518 8.8125 3.29207C8.63514 3.41179 8.66174 3.55811 8.79476 3.64679C8.79476 3.64679 8.87014 3.7133 9.39335 3.66452C9.92099 3.61575 12.2488 3.7133 13.2198 5.26961C13.2198 5.26961 12.1114 4.36952 10.6969 4.56462C9.2825 4.75971 8.3691 5.41594 7.67741 6.38697C7.67741 6.38697 6.20977 6.24065 5.65552 6.70178C5.10128 7.16291 5.46043 7.45555 5.87722 7.47772C5.87722 7.47772 5.40722 7.79253 5.37618 8.08518C5.34958 8.37782 5.57128 8.57291 6.23637 8.57291C6.23637 8.57291 6.09892 8.60395 5.88165 8.66602C6.03684 8.65272 6.20977 8.63055 6.40486 8.59508C6.40486 8.59508 8.95438 8.01423 11.1714 8.44876C13.3883 8.88772 14.8028 9.30008 16.3813 9.32225C16.3813 9.32225 17.2148 10.2933 18.9574 10.2445C20.7044 10.1957 21.0901 9.32225 21.7286 8.68819C22.3671 8.05857 24.4466 6.47565 26.7434 6.45348C26.7434 6.45348 26.4109 5.91697 25.2758 5.91697C25.2758 5.91697 25.6083 5.62433 25.1117 5.11443C24.6107 4.60452 23.0588 4.4848 21.7862 5.01688C21.7862 5.01688 22.4513 3.99707 24.4732 3.85075C26.4951 3.70443 26.7478 4.14339 27.0494 3.87292C27.2489 3.69556 27.0272 3.42952 26.5084 3.2832L26.5128 3.28764ZM16.4478 4.91046C16.9976 4.75971 17.5873 4.84839 18.1327 4.95924C18.647 5.06565 19.2013 5.16763 19.6358 5.44697C19.6624 5.46471 19.6713 5.48688 19.6579 5.51348C19.4496 5.87263 18.8687 5.75735 18.514 5.66424C17.8179 5.47358 17.1572 5.20311 16.4611 5.01245C16.4478 5.01245 16.4433 5.00358 16.4345 4.99471C16.399 4.97697 16.3946 4.91933 16.4478 4.90603V4.91046ZM21.2409 6.75942C20.7354 6.94121 20.1368 7.12744 19.5914 6.97669C19.5427 6.96338 19.5382 6.91461 19.5781 6.88801C19.7333 6.78603 19.9063 6.71065 20.0792 6.64414C20.261 6.55103 20.4383 6.44905 20.6201 6.35593C21.0946 6.1165 21.5734 5.8815 22.0789 5.69084C22.6908 5.46027 23.8879 5.04792 24.2737 5.78839C24.2959 5.82829 24.2604 5.8682 24.2116 5.85933C23.4756 5.74848 22.7662 6.20074 22.1055 6.41357C22.0656 6.42688 22.0212 6.43574 21.9813 6.44905C21.7375 6.55989 21.4936 6.66631 21.2409 6.75942ZM21.968 6.92348C21.9015 7.12301 21.7419 7.27376 21.5912 7.42895C21.3872 7.63735 21.1655 7.94772 20.8108 7.92999C20.6201 7.92112 20.1058 7.83244 20.1324 7.59301C20.1191 7.48216 20.3984 7.35801 20.4915 7.30923C20.9172 7.0964 21.4271 6.91018 21.9148 6.86584C21.9503 6.86584 21.9769 6.90131 21.968 6.92791V6.92348ZM20.4117 8.7547C20.1679 8.79904 20.0127 8.59065 19.8885 8.43546C19.7023 8.20046 19.556 7.94329 19.3609 7.71272C19.0372 7.3314 18.7224 6.91905 18.3189 6.5998C17.7868 6.18301 17.0907 5.97018 16.5364 5.57999C16.4921 5.54895 16.5364 5.48244 16.5897 5.50018C16.9621 5.62876 17.3833 5.67754 17.738 5.83716C18.31 6.09433 18.7889 6.52442 19.219 6.93235C19.3697 7.07867 20.9305 8.65272 20.4117 8.75027V8.7547ZM16.4522 7.89895C16.9887 7.88121 17.4853 8.08518 18.0041 8.17829C18.3366 8.23593 18.678 8.19159 19.0106 8.26697C19.1791 8.30687 19.7378 8.65716 19.2855 8.72366C19.0195 8.76357 18.6559 8.64385 18.3854 8.62612C17.809 8.59065 17.3434 8.52857 16.8468 8.2581C16.7493 8.20489 16.3458 8.06744 16.3591 7.94329C16.3591 7.91225 16.399 7.89895 16.4522 7.89895ZM15.4812 7.01216C15.4679 6.97669 15.5033 6.95008 15.5388 6.95452C15.6364 6.78603 16.4877 7.06537 16.563 7.0831C17.0419 7.21612 17.5297 7.35801 17.9997 7.50876C18.248 7.58857 18.5982 7.65065 18.7446 7.85904C18.7712 7.89895 18.7268 7.93886 18.6825 7.92999C17.9464 7.81914 17.1971 7.73489 16.4788 7.5664C16.1064 7.47772 15.6319 7.36244 15.4856 7.00772L15.4812 7.01216ZM17.3656 8.77687C17.5474 8.7148 17.7336 8.79461 17.9065 8.83895C18.1327 8.89659 18.3632 8.90989 18.5982 8.90102C18.9707 8.88772 19.3476 8.85668 19.72 8.89216C19.7644 8.89216 19.7998 8.94536 19.7599 8.9764C19.2146 9.38432 18.4519 9.33112 17.84 9.08281C17.8179 9.07395 17.268 8.81234 17.3479 8.78131C17.3523 8.78131 17.3567 8.78131 17.3656 8.77687ZM18.5938 6.09876C18.2923 6.05442 18.0174 5.84603 17.778 5.69084C17.7469 5.6731 17.7514 5.63763 17.7647 5.6199C17.7647 5.59329 17.7913 5.55782 17.8356 5.56669C18.075 5.6066 18.3145 5.6465 18.5495 5.70858C18.6736 5.74405 18.9352 5.80612 18.9396 5.95688C18.9441 6.10763 18.718 6.1165 18.5938 6.09876ZM14.2618 5.76178C14.2618 5.76178 14.2751 5.73075 14.2884 5.71301C14.4436 5.52678 14.9979 5.78395 15.1708 5.84159C15.6053 5.97905 16.0354 6.11207 16.4832 6.21405C16.7759 6.28056 17.0774 6.3249 17.3523 6.44018C17.4942 6.49782 17.6361 6.5732 17.7336 6.67961C17.8267 6.77716 17.8489 6.87914 17.6804 6.95008C17.5119 7.02103 17.3213 6.91905 17.1749 6.87471C16.3458 6.62197 15.4413 6.69291 14.7141 6.19188C14.6032 6.1165 14.2175 5.93471 14.2618 5.76622V5.76178ZM13.9515 7.64178C13.9825 7.67725 13.9559 7.73933 13.8982 7.72159C13.579 7.63291 13.3085 7.46442 13.0115 7.32697C12.6745 7.17178 12.2976 7.06093 11.9384 6.94565C11.5571 6.8215 11.1714 6.72839 10.7723 6.66631C10.5728 6.63527 10.3555 6.66631 10.1604 6.62197C10.1382 6.61754 10.1249 6.60423 10.1205 6.5865C10.1028 6.56876 10.0939 6.54216 10.1205 6.51999C10.5816 6.15197 11.4463 6.31159 11.9828 6.43131C12.8297 6.61754 13.4194 7.03876 13.9515 7.64178ZM10.0363 6.1298C9.72589 6.28499 9.38448 6.48452 9.03419 6.3382C8.98986 6.38254 8.91448 6.31603 8.95882 6.26725C9.69485 5.46914 11.0295 5.50018 12.0227 5.8682C12.0892 5.89037 12.067 5.97461 11.9916 5.96131C11.3443 5.85933 10.6216 5.83716 10.0363 6.13424V6.1298ZM8.32476 5.74848C8.74155 5.26075 9.42438 4.98584 10.085 4.85282C11.0383 4.66216 12.5858 4.67546 13.1312 5.53122C13.1533 5.56669 13.1179 5.6199 13.0691 5.60216C12.2133 5.29622 11.2778 5.03461 10.3555 5.26518C9.59287 5.45584 9.00316 5.89924 8.37354 6.29829C8.37797 6.32046 8.3691 6.34263 8.33363 6.34707C7.83259 6.40914 8.18731 5.91254 8.33363 5.74405L8.32476 5.74848ZM5.64222 7.24716C5.5092 7.09197 5.59345 6.92348 5.72647 6.79933C6.10779 6.36037 6.9458 6.49782 7.49561 6.52442C8.35137 6.56433 9.35787 6.54216 10.0806 7.00772C10.1249 7.03433 10.1116 7.0964 10.054 7.0964C8.91891 7.14074 7.67741 6.94565 6.57778 7.26489C6.32505 7.34027 5.85062 7.48659 5.64665 7.24272L5.64222 7.24716ZM14.3815 8.83008C13.5036 8.71036 12.7055 8.40885 11.8586 8.19602C11.2778 8.0497 10.6792 7.97433 10.0806 7.90338C9.0874 7.84574 8.08976 7.89452 7.13646 8.15612C6.78175 8.25366 6.11665 8.4798 5.77524 8.24036C5.35401 7.94329 5.85505 7.64621 6.16099 7.50876C6.17429 7.50433 6.18316 7.50433 6.19646 7.50876C6.9325 7.13631 7.92571 7.16735 8.73269 7.19395C9.09184 7.20725 9.45099 7.25603 9.80127 7.3181C11.433 7.48659 12.976 8.07631 14.4215 8.7414C14.4835 8.768 14.4348 8.83895 14.3771 8.83008H14.3815ZM25.4177 6.23178C25.462 6.24952 25.4443 6.31159 25.4044 6.32046C24.6772 6.50669 23.919 6.66188 23.2938 7.0565C22.6331 7.47329 22.0745 8.04527 21.5379 8.57734C21.1699 8.94093 20.7842 9.30008 20.3319 9.58829C19.9994 9.80112 19.6003 10.0051 19.1791 9.98291C16.8823 10.2889 15.1974 7.54867 13.9825 6.19188C13.9825 6.19188 13.9825 6.19188 13.9825 6.18744C13.9204 6.1564 13.9781 6.07216 14.0401 6.1032C14.5323 6.3515 14.8781 6.73282 15.2284 7.11414C15.6186 7.53537 16.062 7.90338 16.5098 8.27584C16.9577 8.64829 17.3789 9.09612 17.9021 9.38876C18.2613 9.58829 18.6293 9.67696 19.015 9.65036C19.2678 9.58829 19.5205 9.51291 19.7333 9.37546C20.0703 9.15819 20.3807 8.90546 20.6689 8.64829C21.2054 8.16942 21.6621 7.62848 22.2385 7.18508C22.7174 6.81263 23.2539 6.48452 23.8613 6.30716C24.3491 6.16527 24.9299 6.04556 25.4221 6.23178H25.4177ZM22.0124 5.01245C22.7706 4.77301 23.7461 4.61339 24.4555 5.03462C24.5087 5.06565 24.4732 5.1366 24.4111 5.12329C23.0987 4.86612 21.8971 5.42924 20.7975 5.99235C20.3452 6.22291 19.3919 6.96338 18.9263 6.41801C18.8776 6.40471 18.8643 6.33376 18.9263 6.3249C19.5028 6.24065 19.9772 5.92584 20.4649 5.66424C20.9527 5.40707 21.4759 5.18094 22.0124 5.01245Z" fill="#FBDB92"/>
</g>
<path d="M11.4381 11.9372L9.89956 11.5869L8.83984 12.7752L10.3917 13.2319L11.4381 11.9372Z" fill="#F19B9A"/>
<path d="M8.83984 12.7754L8.87088 13.6622L10.3784 14.0391L10.3917 13.2321L8.83984 12.7754Z" fill="#F3AAA1"/>
<path d="M11.4376 11.9375L10.3912 13.2322L10.3779 14.0392L11.5308 12.7622L11.4376 11.9375Z" fill="#ED7E8A"/>
<path d="M29.8341 9.70703L29.8252 10.2125L30.3307 10.7934L31.1864 10.248L31.2308 9.90213L30.4681 10.4165L29.8341 9.70703Z" fill="#F19B9A"/>
<path d="M29.834 9.70683L30.468 10.4163L31.2307 9.90192L30.4769 9.29004L29.834 9.70683Z" fill="#F19B9A"/>
<path d="M29.8341 9.70703L29.8252 10.2125L30.3307 10.7934L30.4681 10.4165L29.8341 9.70703Z" fill="#F3AAA1"/>
<path d="M30.4675 10.4167L30.3301 10.7936L31.1858 10.2482L31.2302 9.90234L30.4675 10.4167Z" fill="#ED7E8A"/>
<path d="M19.8004 14.1104L19.7383 14.8375L20.3989 15.711L21.6848 15.0016L21.7868 14.5138L20.6339 15.1878L19.8004 14.1104Z" fill="#F19B9A"/>
<path d="M19.7998 14.1093L20.6334 15.1868L21.7862 14.5128L20.7708 13.5684L19.7998 14.1093Z" fill="#F19B9A"/>
<path d="M19.8004 14.1104L19.7383 14.8375L20.3989 15.711L20.6339 15.1878L19.8004 14.1104Z" fill="#F3AAA1"/>
<path d="M20.6334 15.1876L20.3984 15.7108L21.6843 15.0014L21.7863 14.5137L20.6334 15.1876Z" fill="#ED7E8A"/>
<path d="M23.1255 10.3691L23.1211 10.9677L23.7241 11.655L24.7351 10.9988L24.7838 10.5953L23.8837 11.2072L23.1255 10.3691Z" fill="#F19B9A"/>
<path d="M23.125 10.3677L23.8832 11.2057L24.7833 10.5938L23.8832 9.87109L23.125 10.3677Z" fill="#F19B9A"/>
<path d="M23.1255 10.3691L23.1211 10.9677L23.7241 11.655L23.8837 11.2072L23.1255 10.3691Z" fill="#F3AAA1"/>
<path d="M23.8833 11.2066L23.7236 11.6544L24.7346 10.9982L24.7833 10.5947L23.8833 11.2066Z" fill="#ED7E8A"/>
<path d="M12.0805 6.86523L12.0849 7.5924L11.3489 8.43042L10.1207 7.63231L10.0586 7.14014L11.1582 7.88504L12.0805 6.86523Z" fill="#F19B9A"/>
<path d="M12.0805 6.86571L11.1582 7.88552L10.0586 7.14062L11.1538 6.2627L12.0805 6.86571Z" fill="#F19B9A"/>
<path d="M12.0805 6.86523L12.0849 7.5924L11.3489 8.43042L11.1582 7.88504L12.0805 6.86523Z" fill="#F3AAA1"/>
<path d="M11.1582 7.88455L11.3489 8.42993L10.1207 7.63182L10.0586 7.13965L11.1582 7.88455Z" fill="#ED7E8A"/>
<path d="M8.51501 10.4082L8.2002 10.7008L8.4618 10.8294L8.71897 10.5235L8.51501 10.4082Z" fill="#899037"/>
<path d="M4.44976 12.0674L4.05957 12.1605L4.09948 12.36L4.44532 12.258L4.44976 12.0674Z" fill="#899037"/>
<path d="M7.67767 14.3188L7.69098 13.9641L7.46484 13.9375L7.46928 14.2612L7.67767 14.3188Z" fill="#899037"/>
<path d="M22.0609 13.082L21.7461 13.3747L22.0033 13.5033L22.2649 13.1973L22.0609 13.082Z" fill="#899037"/>
<path d="M17.9957 14.7354L17.6055 14.8285L17.6454 15.028L17.9912 14.926L17.9957 14.7354Z" fill="#899037"/>
<path d="M21.2187 16.9926L21.2364 16.6379L21.0059 16.6113L21.0147 16.9306L21.2187 16.9926Z" fill="#899037"/>
<path d="M14.8158 15.835L14.501 16.1276L14.7626 16.2562L15.0197 15.9502L14.8158 15.835Z" fill="#899037"/>
<path d="M10.7505 17.4893L10.3604 17.5824L10.4003 17.7819L10.7461 17.6799L10.7505 17.4893Z" fill="#899037"/>
<path d="M8.44026 15.9512L8.12988 16.2394L8.38705 16.368L8.64422 16.062L8.44026 15.9512Z" fill="#899037"/>
<path d="M4.37456 17.6045L3.98438 17.6976L4.02428 17.8971L4.37456 17.7952V17.6045Z" fill="#899037"/>
<path d="M25.9193 17.25L25.6045 17.5426L25.8617 17.6712L26.1233 17.3608L25.9193 17.25Z" fill="#899037"/>
<path d="M21.8482 18.9023L21.458 18.9955L21.4979 19.195L21.8482 19.093V18.9023Z" fill="#899037"/>
<path d="M33.8685 15.1396L33.5537 15.4323L33.8153 15.5609L34.0725 15.2549L33.8685 15.1396Z" fill="#899037"/>
<path d="M29.8033 16.792L29.4131 16.8851L29.453 17.0846L29.7988 16.9827L29.8033 16.792Z" fill="#899037"/>
<path d="M33.0312 19.0449L33.0445 18.6901L32.8184 18.668L32.8228 18.9872L33.0312 19.0449Z" fill="#899037"/>
<path d="M29.5948 9.75195L29.3066 10.018L29.5461 10.1377L29.7811 9.85393L29.5948 9.75195Z" fill="#899037"/>
<path d="M25.8836 11.2637L25.5244 11.3479L25.5599 11.5297L25.8791 11.4366L25.8836 11.2637Z" fill="#899037"/>
<path d="M28.8269 13.321L28.8402 12.9973L28.6318 12.9707L28.6363 13.2633L28.8269 13.321Z" fill="#899037"/>
<path d="M17.7335 8.66602L17.4453 8.93205L17.6803 9.05177L17.9197 8.768L17.7335 8.66602Z" fill="#899037"/>
<path d="M14.0178 10.1768L13.6631 10.261L13.6986 10.4428L14.0178 10.3497V10.1768Z" fill="#899037"/>
<path d="M16.9666 12.235L16.9799 11.9114L16.7715 11.8848L16.7759 12.1818L16.9666 12.235Z" fill="#899037"/>
<path d="M22.1507 5.45898L21.8359 5.75163L22.0931 5.88021L22.3503 5.56983L22.1507 5.45898Z" fill="#899037"/>
<path d="M18.0796 7.11426L17.6895 7.20737L17.7294 7.4069L18.0796 7.30492V7.11426Z" fill="#899037"/>
<path d="M21.3076 9.36614L21.3209 9.01143L21.0947 8.98926L21.0992 9.3085L21.3076 9.36614Z" fill="#899037"/>
<path d="M12.5013 4.87402L12.1865 5.16666L12.4481 5.29525L12.7053 4.98931L12.5013 4.87402Z" fill="#899037"/>
<path d="M8.43511 6.5332L8.04492 6.62632L8.08483 6.82584L8.43068 6.72386L8.43511 6.5332Z" fill="#899037"/>
<path d="M11.664 8.78562L11.6773 8.4309L11.4512 8.4043L11.4556 8.72798L11.664 8.78562Z" fill="#899037"/>
<path d="M9.20263 9.01615C8.97649 9.00728 8.7947 9.10483 8.64395 9.24228C8.63065 9.25115 8.63065 9.26889 8.63951 9.27776C8.63065 9.29549 8.62621 9.31766 8.63065 9.34427C8.63951 9.41077 8.74593 9.41521 8.80357 9.39304C8.84791 9.3753 8.88782 9.35313 8.92772 9.32653C8.98093 9.29106 9.05631 9.28662 9.12281 9.27332C9.22036 9.25559 9.31791 9.24672 9.35781 9.15361C9.39772 9.05606 9.30017 9.01615 9.20706 9.01172L9.20263 9.01615Z" fill="#FDFADF"/>
<path d="M10.6745 10.1592C10.8962 10.137 11.0647 10.0173 11.1888 9.86213C11.1977 9.84883 11.1977 9.83553 11.1888 9.82666C11.1933 9.80449 11.1888 9.78232 11.1888 9.76015C11.1667 9.69364 11.0602 9.70251 11.0115 9.73355C10.9671 9.75572 10.9317 9.78232 10.9006 9.81336C10.8518 9.8577 10.7809 9.871 10.7188 9.88874C10.6257 9.91534 10.5282 9.93751 10.506 10.0351C10.4838 10.137 10.5858 10.1636 10.6789 10.1548L10.6745 10.1592Z" fill="#FDFADF"/>
<path d="M10.732 8.69144C10.7142 8.84219 10.7852 8.97521 10.896 9.08163C10.9049 9.09049 10.9182 9.09049 10.9271 9.08606C10.9448 9.09049 10.9625 9.09493 10.9847 9.09493C11.0423 9.09493 11.0557 9.01955 11.0423 8.98408C11.029 8.95304 11.0113 8.922 10.9891 8.8954C10.9625 8.85549 10.9625 8.80672 10.9537 8.76238C10.9448 8.69587 10.9448 8.62936 10.8606 8.59389C10.7763 8.55842 10.7364 8.62493 10.7275 8.687L10.732 8.69144Z" fill="#FDFADF"/>
<path d="M9.45095 10.7938C9.62388 10.7761 9.75246 10.683 9.85001 10.5632C9.85888 10.5544 9.85888 10.5411 9.85001 10.5366C9.85001 10.5189 9.85001 10.5056 9.85001 10.4834C9.83227 10.4347 9.75246 10.4391 9.71256 10.4613C9.68152 10.479 9.65048 10.5012 9.62388 10.5233C9.58841 10.5544 9.53076 10.5677 9.48199 10.581C9.41105 10.6031 9.33567 10.6209 9.31793 10.6963C9.3002 10.7761 9.38001 10.7938 9.45095 10.7894V10.7938Z" fill="#FDFADF"/>
<path d="M6.80419 6.76773C6.57806 6.7633 6.39626 6.85641 6.24551 6.99386C6.23221 7.00273 6.23221 7.02047 6.24108 7.02933C6.23221 7.04707 6.22777 7.06924 6.23221 7.09584C6.24108 7.16235 6.34749 7.16679 6.40513 7.14905C6.44947 7.13131 6.48938 7.10914 6.52928 7.08254C6.58249 7.04707 6.65787 7.04264 6.72438 7.02933C6.82192 7.0116 6.91947 7.00273 6.95938 6.90962C6.99928 6.81207 6.90174 6.77216 6.80862 6.76773H6.80419Z" fill="#FDFADF"/>
<path d="M8.27117 7.90725C8.49287 7.88508 8.66136 7.76537 8.78551 7.61018C8.79438 7.59688 8.79438 7.58357 8.78551 7.57471C8.78994 7.55254 8.78994 7.53037 8.78551 7.5082C8.76334 7.44169 8.65692 7.45056 8.60815 7.48159C8.56381 7.50376 8.52834 7.53037 8.4973 7.5614C8.44853 7.60574 8.37759 7.61905 8.31551 7.63678C8.2224 7.66339 8.12485 7.68555 8.10268 7.78754C8.08051 7.88952 8.18249 7.91612 8.2756 7.90725H8.27117Z" fill="#FDFADF"/>
<path d="M8.33353 6.43993C8.31137 6.59069 8.38674 6.72371 8.49759 6.83012C8.50646 6.83899 8.51976 6.84342 8.52863 6.83456C8.54636 6.83899 8.5641 6.84342 8.58627 6.84342C8.64391 6.84342 8.65721 6.76805 8.64391 6.73258C8.63061 6.70154 8.61287 6.6705 8.5907 6.6439C8.5641 6.60399 8.5641 6.55522 8.55523 6.51088C8.54636 6.44437 8.54636 6.37786 8.46212 6.34682C8.37787 6.31135 8.33797 6.37786 8.3291 6.43993H8.33353Z" fill="#FDFADF"/>
<path d="M7.05252 8.54185C7.22544 8.52411 7.35402 8.431 7.45157 8.31128C7.46044 8.30242 7.46044 8.28911 7.45157 8.28468C7.45157 8.26694 7.45157 8.25364 7.45157 8.23147C7.43384 8.1827 7.35402 8.18713 7.31412 8.2093C7.28308 8.22704 7.25204 8.24921 7.22544 8.27138C7.18997 8.30685 7.13233 8.31572 7.08355 8.32902C7.01261 8.35119 6.93723 8.36893 6.9195 8.4443C6.90176 8.52411 6.98157 8.54185 7.05252 8.53742V8.54185Z" fill="#FDFADF"/>
<path d="M4.30809 13.0337C4.0864 13.0293 3.90017 13.1268 3.74942 13.2599C3.73611 13.2687 3.73611 13.2865 3.74498 13.2953C3.73611 13.3131 3.73168 13.3352 3.73611 13.3618C3.74498 13.4284 3.8514 13.4328 3.90904 13.4106C3.95338 13.3929 3.99328 13.3707 4.03319 13.3441C4.0864 13.3086 4.16177 13.3042 4.22828 13.2909C4.32583 13.2732 4.42338 13.2643 4.46328 13.1712C4.50319 13.0736 4.40564 13.0337 4.31253 13.0293L4.30809 13.0337Z" fill="#FDFADF"/>
<path d="M5.77996 14.1767C6.00166 14.1545 6.17015 14.0348 6.2943 13.8796C6.30317 13.8663 6.30317 13.853 6.2943 13.8441C6.29873 13.822 6.2943 13.8042 6.2943 13.7776C6.27213 13.7111 6.16571 13.7244 6.11694 13.7466C6.0726 13.7688 6.04156 13.7998 6.00609 13.8308C5.95732 13.8752 5.88638 13.8885 5.8243 13.9062C5.73119 13.9328 5.63364 13.955 5.61147 14.0525C5.5893 14.1545 5.69128 14.1811 5.78439 14.1723L5.77996 14.1767Z" fill="#FDFADF"/>
<path d="M5.83767 12.7085C5.81994 12.8592 5.89088 12.9923 6.00173 13.0987C6.0106 13.1075 6.0239 13.112 6.03277 13.1031C6.0505 13.112 6.06824 13.112 6.09041 13.112C6.14805 13.112 6.16135 13.0366 6.14805 13.0011C6.13475 12.9701 6.11701 12.9391 6.09928 12.9125C6.07267 12.8725 6.07267 12.8238 6.0638 12.7794C6.05494 12.7129 6.05494 12.6464 5.97069 12.6154C5.88645 12.5799 5.84654 12.6464 5.83767 12.7085Z" fill="#FDFADF"/>
<path d="M4.56033 14.8065C4.73325 14.7888 4.86184 14.6956 4.95938 14.5759C4.96825 14.5671 4.96825 14.5538 4.95938 14.5493C4.95938 14.5316 4.95938 14.5183 4.95938 14.4961C4.94165 14.4473 4.86184 14.4518 4.82193 14.474C4.79089 14.4917 4.75986 14.5139 4.73325 14.536C4.69778 14.5671 4.64014 14.5804 4.59137 14.5937C4.52042 14.6158 4.44505 14.6336 4.42731 14.709C4.40957 14.7888 4.48939 14.8065 4.56033 14.8021V14.8065Z" fill="#FDFADF"/>
<path d="M11.0515 10.7236C10.9008 10.7236 10.7766 10.7857 10.6746 10.8788C10.6658 10.8877 10.6658 10.8966 10.6746 10.901C10.6702 10.9143 10.6658 10.9276 10.6702 10.9453C10.6791 10.9897 10.75 10.9941 10.7855 10.9808C10.8165 10.9675 10.8431 10.9542 10.8697 10.9365C10.9052 10.9099 10.9584 10.9099 11.0027 10.901C11.0692 10.8921 11.1358 10.8833 11.1624 10.8212C11.189 10.7547 11.1224 10.7281 11.0604 10.7281L11.0515 10.7236Z" fill="#FDFADF"/>
<path d="M12.0492 11.5C12.1999 11.4867 12.3152 11.4025 12.3994 11.3005C12.4039 11.2916 12.4039 11.2827 12.3994 11.2739C12.3994 11.2606 12.3994 11.2473 12.3994 11.2295C12.3861 11.1852 12.3152 11.1941 12.2797 11.2118C12.2487 11.2251 12.2265 11.2473 12.2043 11.265C12.1733 11.296 12.1245 11.3049 12.0802 11.3182C12.0181 11.3359 11.9516 11.3537 11.9383 11.4202C11.9206 11.4911 11.9915 11.5089 12.058 11.5H12.0492Z" fill="#FDFADF"/>
<path d="M12.0891 10.5065C12.0758 10.6085 12.1246 10.6971 12.1999 10.7725C12.2044 10.7769 12.2132 10.7814 12.2221 10.7725C12.2354 10.7769 12.2443 10.7814 12.262 10.7769C12.3019 10.7769 12.3108 10.7282 12.2975 10.7016C12.2886 10.6794 12.2753 10.6617 12.262 10.6439C12.2443 10.6173 12.2443 10.5819 12.2399 10.5552C12.2354 10.5109 12.231 10.4666 12.1778 10.4444C12.1201 10.4222 12.0935 10.4666 12.0891 10.5065Z" fill="#FDFADF"/>
<path d="M11.2205 11.9246C11.3358 11.9113 11.4245 11.8492 11.491 11.7694C11.4954 11.765 11.4954 11.7561 11.491 11.7517C11.491 11.7428 11.491 11.7295 11.491 11.7162C11.4777 11.6807 11.4245 11.6852 11.3979 11.7029C11.3757 11.7162 11.358 11.7295 11.3402 11.7472C11.3136 11.7694 11.2781 11.7783 11.2427 11.7871C11.1939 11.8004 11.1451 11.8137 11.1318 11.867C11.1185 11.9202 11.1762 11.9335 11.2205 11.929V11.9246Z" fill="#FDFADF"/>
<path d="M20.9624 14.4381C20.7407 14.4292 20.5545 14.5267 20.4037 14.6642C20.3904 14.6731 20.3904 14.6908 20.3993 14.6997C20.3904 14.7174 20.386 14.7396 20.3904 14.7662C20.3993 14.8327 20.5057 14.8371 20.5633 14.8194C20.6077 14.8016 20.6476 14.7795 20.6875 14.7529C20.7407 14.7174 20.8161 14.713 20.8826 14.6997C20.9801 14.6819 21.0777 14.6731 21.1176 14.5799C21.1575 14.4824 21.0599 14.4425 20.9668 14.4381H20.9624Z" fill="#FDFADF"/>
<path d="M22.4294 15.5781C22.6511 15.5559 22.8196 15.4362 22.9437 15.281C22.9526 15.2677 22.9526 15.2544 22.9437 15.2455C22.9481 15.2233 22.9437 15.2012 22.9437 15.179C22.9215 15.1125 22.8151 15.1258 22.7664 15.148C22.722 15.1701 22.6865 15.2012 22.6555 15.2322C22.6067 15.2765 22.5358 15.2898 22.4737 15.3076C22.3806 15.3342 22.2831 15.3564 22.2609 15.4539C22.2387 15.5559 22.3407 15.5825 22.4338 15.5736L22.4294 15.5781Z" fill="#FDFADF"/>
<path d="M22.4917 14.1147C22.4696 14.2655 22.5449 14.3985 22.6558 14.5049C22.6647 14.5138 22.678 14.5182 22.6868 14.5094C22.7046 14.5138 22.7223 14.5182 22.7445 14.5182C22.8021 14.5182 22.8154 14.4429 22.7977 14.4074C22.7844 14.3763 22.7666 14.3453 22.7489 14.3187C22.7223 14.2788 22.7223 14.23 22.7134 14.1857C22.7046 14.1192 22.7046 14.0527 22.6203 14.0216C22.5361 13.9862 22.4962 14.0527 22.4873 14.1147H22.4917Z" fill="#FDFADF"/>
<path d="M21.2097 16.2108C21.3827 16.1931 21.5113 16.0999 21.6088 15.9802C21.6177 15.9714 21.6177 15.9581 21.6088 15.9536C21.6088 15.9359 21.6088 15.9226 21.6088 15.9004C21.5911 15.8516 21.5113 15.8561 21.4713 15.8782C21.4403 15.896 21.4093 15.9182 21.3827 15.9403C21.3472 15.9714 21.2896 15.9847 21.2408 15.998C21.1698 16.0201 21.0945 16.0379 21.0767 16.1132C21.059 16.1931 21.1388 16.2108 21.2097 16.2064V16.2108Z" fill="#FDFADF"/>
<path d="M15.0375 16.5581C14.7937 16.5493 14.5897 16.6557 14.4301 16.8064C14.4168 16.8197 14.4168 16.833 14.4256 16.8463C14.4168 16.8685 14.4123 16.8907 14.4168 16.9173C14.4301 16.9882 14.5454 16.9927 14.603 16.9705C14.6518 16.9528 14.6961 16.9261 14.7405 16.8995C14.7981 16.8596 14.8779 16.8552 14.9533 16.8419C15.0597 16.8242 15.1661 16.8153 15.2105 16.7133C15.2548 16.6069 15.1439 16.5626 15.0464 16.5626L15.0375 16.5581Z" fill="#FDFADF"/>
<path d="M16.6383 17.8042C16.8822 17.782 17.064 17.649 17.2015 17.4805C17.2103 17.4672 17.2103 17.4495 17.2015 17.4406C17.2059 17.4184 17.2059 17.3963 17.2015 17.3697C17.1793 17.2987 17.064 17.3076 17.0064 17.3386C16.962 17.3652 16.9221 17.3963 16.8822 17.4273C16.829 17.4761 16.7536 17.4894 16.6827 17.5115C16.5807 17.5426 16.4743 17.5647 16.4521 17.6712C16.4255 17.782 16.5408 17.813 16.6428 17.7997L16.6383 17.8042Z" fill="#FDFADF"/>
<path d="M16.701 16.2038C16.6788 16.3678 16.7586 16.5097 16.8827 16.6294C16.8916 16.6383 16.9049 16.6427 16.9182 16.6383C16.936 16.6472 16.9581 16.6516 16.9803 16.6472C17.0468 16.6472 17.0557 16.5674 17.0424 16.523C17.0291 16.4875 17.0113 16.4565 16.9847 16.4255C16.9537 16.3811 16.9537 16.3279 16.9493 16.2791C16.9404 16.2082 16.9404 16.1328 16.8517 16.0974C16.7586 16.0619 16.7143 16.1328 16.7054 16.1993L16.701 16.2038Z" fill="#FDFADF"/>
<path d="M15.3083 18.4911C15.4945 18.4734 15.6364 18.3714 15.7428 18.2428C15.7517 18.234 15.7517 18.2207 15.7428 18.2118C15.7428 18.1941 15.7428 18.1763 15.7428 18.1586C15.7251 18.1054 15.6364 18.1098 15.5921 18.1364C15.5566 18.1541 15.5256 18.1807 15.499 18.2074C15.4591 18.2428 15.397 18.2561 15.3438 18.2739C15.264 18.296 15.1841 18.3138 15.1664 18.398C15.1442 18.4823 15.2374 18.5044 15.3127 18.5L15.3083 18.4911Z" fill="#FDFADF"/>
<path d="M8.6538 17.7945C8.4321 17.7856 8.24587 17.8876 8.09512 18.0206C8.08182 18.0295 8.08182 18.0472 8.09069 18.0561C8.08182 18.0738 8.07738 18.096 8.08182 18.1226C8.09069 18.1891 8.1971 18.1935 8.25474 18.1758C8.29908 18.1581 8.33899 18.1359 8.37889 18.1093C8.4321 18.0738 8.50748 18.0694 8.57399 18.0561C8.67153 18.0384 8.76908 18.0295 8.80899 17.9364C8.84889 17.8388 8.75135 17.7989 8.65823 17.7945H8.6538Z" fill="#FDFADF"/>
<path d="M10.1208 18.9377C10.3425 18.9155 10.511 18.7958 10.6351 18.6406C10.644 18.6273 10.644 18.614 10.6351 18.6051C10.6396 18.583 10.6351 18.5608 10.6351 18.5386C10.6129 18.4721 10.5065 18.4854 10.4578 18.512C10.4134 18.5342 10.3779 18.5608 10.3469 18.5918C10.2981 18.6362 10.2272 18.6495 10.1651 18.6672C10.072 18.6938 9.97446 18.716 9.95229 18.8135C9.93012 18.9155 10.0321 18.9421 10.1252 18.9333L10.1208 18.9377Z" fill="#FDFADF"/>
<path d="M10.1822 17.4712C10.1644 17.6219 10.2354 17.755 10.3462 17.8614C10.3551 17.8702 10.3684 17.8702 10.3773 17.8658C10.395 17.8702 10.4127 17.8747 10.4349 17.8747C10.4925 17.8747 10.5058 17.7993 10.4881 17.7638C10.4748 17.7328 10.4571 17.7017 10.4393 17.6751C10.4127 17.6352 10.4127 17.5865 10.4039 17.5421C10.395 17.4756 10.395 17.4091 10.3108 17.3781C10.2265 17.3426 10.1866 17.4091 10.1777 17.4712H10.1822Z" fill="#FDFADF"/>
<path d="M24.1367 9.51677C23.9416 9.51233 23.782 9.59658 23.6534 9.71186C23.6445 9.72073 23.6401 9.73403 23.6489 9.7429C23.6401 9.76064 23.6401 9.77837 23.6445 9.80054C23.6534 9.85818 23.7465 9.86262 23.7908 9.84488C23.8307 9.83158 23.8662 9.80941 23.8972 9.78724C23.946 9.7562 24.0081 9.75177 24.0657 9.7429C24.15 9.7296 24.2342 9.72073 24.2697 9.64092C24.3052 9.55667 24.2165 9.5212 24.1367 9.5212V9.51677Z" fill="#FDFADF"/>
<path d="M25.409 10.5057C25.5996 10.4879 25.7459 10.3815 25.8568 10.2485C25.8657 10.2396 25.8657 10.2263 25.8568 10.2175C25.8568 10.1997 25.8568 10.182 25.8568 10.1598C25.8391 10.1022 25.7459 10.111 25.7016 10.1332C25.6661 10.151 25.6351 10.1776 25.6041 10.2042C25.5641 10.2396 25.5021 10.2529 25.4444 10.2707C25.3646 10.2973 25.2804 10.315 25.2582 10.3993C25.236 10.4879 25.3291 10.5101 25.409 10.5012V10.5057Z" fill="#FDFADF"/>
<path d="M25.4576 9.23307C25.4398 9.36166 25.5063 9.47694 25.5994 9.57005C25.6083 9.57892 25.6172 9.57892 25.626 9.57449C25.6394 9.57892 25.6571 9.58336 25.6748 9.58336C25.728 9.58336 25.7369 9.52128 25.7236 9.48581C25.7147 9.45921 25.697 9.4326 25.6793 9.41043C25.6527 9.37496 25.6527 9.33506 25.6482 9.29515C25.6394 9.23751 25.6394 9.17987 25.5684 9.15326C25.4975 9.12222 25.462 9.17987 25.4531 9.23307H25.4576Z" fill="#FDFADF"/>
<path d="M24.3495 11.0512C24.5002 11.0379 24.6111 10.9581 24.6953 10.8517C24.6998 10.8428 24.6998 10.834 24.6953 10.8295C24.6953 10.8162 24.6953 10.8029 24.6953 10.7852C24.682 10.7409 24.6111 10.7497 24.5756 10.7675C24.549 10.7808 24.5224 10.8029 24.5002 10.8207C24.4692 10.8473 24.4204 10.8606 24.3761 10.8739C24.314 10.8916 24.2475 10.9093 24.2342 10.9714C24.2165 11.0424 24.2874 11.0557 24.3495 11.0512Z" fill="#FDFADF"/>
<path d="M18.1684 11.2378C17.9467 11.229 17.7605 11.3265 17.6098 11.464C17.5965 11.4728 17.5965 11.4906 17.6053 11.4994C17.5965 11.5172 17.592 11.5393 17.5965 11.5659C17.6053 11.6325 17.7117 11.6369 17.7694 11.6147C17.8137 11.597 17.8536 11.5748 17.8935 11.5482C17.9467 11.5127 18.0221 11.5083 18.0886 11.495C18.1862 11.4773 18.2837 11.4684 18.3236 11.3753C18.3635 11.2777 18.2616 11.2378 18.1729 11.2334L18.1684 11.2378Z" fill="#FDFADF"/>
<path d="M19.6403 12.3768C19.862 12.3546 20.0305 12.2349 20.1547 12.0797C20.1635 12.0664 20.1635 12.0531 20.1547 12.0442C20.1591 12.022 20.1547 11.9999 20.1547 11.9777C20.1325 11.9112 20.0261 11.9201 19.9773 11.9467C19.933 11.9688 19.9019 11.9954 19.8664 12.0309C19.8177 12.0752 19.7467 12.0886 19.6847 12.1063C19.5915 12.1329 19.494 12.1551 19.4718 12.2526C19.4497 12.3546 19.5516 12.3812 19.6447 12.3723L19.6403 12.3768Z" fill="#FDFADF"/>
<path d="M19.6982 10.9092C19.676 11.06 19.7514 11.193 19.8623 11.2994C19.8711 11.3083 19.8844 11.3083 19.8933 11.3038C19.911 11.3083 19.9288 11.3127 19.9509 11.3127C20.0086 11.3127 20.0219 11.2373 20.0086 11.2019C19.9953 11.1708 19.9776 11.1398 19.9598 11.1132C19.9332 11.0733 19.9332 11.0245 19.9243 10.9802C19.9155 10.9136 19.9155 10.8471 19.8357 10.8117C19.7514 10.7762 19.7115 10.8427 19.7026 10.9048L19.6982 10.9092Z" fill="#FDFADF"/>
<path d="M18.4168 13.0106C18.5897 12.9929 18.7183 12.8998 18.8158 12.78C18.8247 12.7712 18.8247 12.7579 18.8158 12.7534C18.8158 12.7357 18.8158 12.7224 18.8158 12.7002C18.7981 12.6514 18.7183 12.6559 18.6784 12.6781C18.6473 12.6958 18.6163 12.718 18.5897 12.7401C18.5542 12.7756 18.4966 12.7845 18.4478 12.7978C18.3769 12.8199 18.3015 12.8377 18.2838 12.9131C18.266 12.9929 18.3458 13.0106 18.4168 13.0062V13.0106Z" fill="#FDFADF"/>
<path d="M14.6206 9.48591C14.3989 9.47704 14.2127 9.57459 14.0619 9.71204C14.0486 9.72091 14.0486 9.73865 14.0575 9.74751C14.0486 9.76525 14.0442 9.78742 14.0486 9.81402C14.0575 9.88053 14.1639 9.88497 14.2215 9.86723C14.2659 9.8495 14.3058 9.82733 14.3457 9.80072C14.3989 9.76525 14.4743 9.76082 14.5408 9.74751C14.6383 9.72978 14.7359 9.72091 14.7758 9.6278C14.8157 9.53025 14.7181 9.49034 14.625 9.48591H14.6206Z" fill="#FDFADF"/>
<path d="M16.0886 10.6289C16.3103 10.6068 16.4787 10.487 16.6029 10.3319C16.6118 10.3186 16.6118 10.3053 16.6029 10.2964C16.6073 10.2742 16.6029 10.252 16.6029 10.2299C16.5807 10.1634 16.4743 10.1722 16.4255 10.2033C16.3812 10.2254 16.3457 10.252 16.3147 10.2875C16.2659 10.3319 16.195 10.3452 16.1329 10.3629C16.0398 10.3895 15.9422 10.4117 15.9201 10.5092C15.8979 10.6112 15.9999 10.6378 16.093 10.6289H16.0886Z" fill="#FDFADF"/>
<path d="M16.1509 9.16214C16.1332 9.3129 16.2041 9.44591 16.315 9.55233C16.3238 9.5612 16.3371 9.5612 16.346 9.55676C16.3637 9.5612 16.3815 9.56563 16.4037 9.56563C16.4613 9.56563 16.4746 9.49025 16.4613 9.45478C16.448 9.42374 16.4303 9.39271 16.4081 9.3661C16.3815 9.3262 16.3815 9.27742 16.3726 9.23308C16.3637 9.16658 16.3637 9.10007 16.2795 9.06459C16.1953 9.02912 16.1554 9.09563 16.1465 9.15771L16.1509 9.16214Z" fill="#FDFADF"/>
<path d="M14.8689 11.2591C15.0418 11.2414 15.1704 11.1482 15.268 11.0285C15.2768 11.0197 15.2768 11.0064 15.268 11.0019C15.268 10.9842 15.268 10.9709 15.268 10.9532C15.2502 10.9044 15.1704 10.9088 15.1305 10.931C15.0995 10.9487 15.0684 10.9709 15.0418 10.9931C15.0064 11.0241 14.9487 11.0374 14.9 11.0507C14.829 11.0729 14.7536 11.0906 14.7359 11.166C14.7182 11.2458 14.798 11.2635 14.8689 11.2591Z" fill="#FDFADF"/>
<path d="M22.1059 6.81599C21.8842 6.80712 21.698 6.90467 21.5473 7.04212C21.534 7.05099 21.534 7.06872 21.5428 7.07759C21.534 7.09533 21.5295 7.1175 21.534 7.1441C21.5428 7.21061 21.6492 7.21504 21.7069 7.19731C21.7512 7.17957 21.7911 7.1574 21.831 7.1308C21.8842 7.09533 21.9596 7.09089 22.0261 7.07759C22.1237 7.05986 22.2212 7.05099 22.2611 6.95788C22.301 6.86033 22.2035 6.82042 22.1104 6.81599H22.1059Z" fill="#FDFADF"/>
<path d="M23.5729 7.95684C23.7946 7.93467 23.9631 7.81495 24.0873 7.65976C24.0961 7.64646 24.0961 7.63316 24.0873 7.62429C24.0917 7.60212 24.0873 7.57995 24.0873 7.55778C24.0651 7.49127 23.9587 7.50014 23.9099 7.52674C23.8656 7.54891 23.8345 7.57995 23.7991 7.61099C23.7503 7.65533 23.6793 7.66863 23.6173 7.68636C23.5242 7.71297 23.4266 7.73514 23.4044 7.83268C23.3823 7.93467 23.4842 7.96127 23.5774 7.9524L23.5729 7.95684Z" fill="#FDFADF"/>
<path d="M23.6353 6.48831C23.6176 6.63907 23.6885 6.77209 23.7993 6.8785C23.8082 6.88737 23.8215 6.88737 23.8304 6.88294C23.8481 6.88737 23.8659 6.8918 23.888 6.8918C23.9457 6.8918 23.959 6.81643 23.9412 6.78095C23.9279 6.74992 23.9102 6.71888 23.8925 6.69228C23.8659 6.65237 23.8659 6.6036 23.857 6.55926C23.8481 6.49275 23.8481 6.42624 23.7639 6.39077C23.6796 6.35529 23.6397 6.4218 23.6309 6.48388L23.6353 6.48831Z" fill="#FDFADF"/>
<path d="M22.3533 8.59068C22.5262 8.57294 22.6548 8.47983 22.7524 8.36011C22.7612 8.35124 22.7612 8.33794 22.7524 8.33351C22.7524 8.31577 22.7524 8.30247 22.7524 8.2803C22.7346 8.23153 22.6548 8.23596 22.6149 8.25813C22.5839 8.27587 22.5528 8.29804 22.5262 8.32021C22.4907 8.35568 22.4331 8.36455 22.3843 8.37785C22.3134 8.40002 22.238 8.41775 22.2203 8.49313C22.2025 8.57294 22.2824 8.59068 22.3533 8.58624V8.59068Z" fill="#FDFADF"/>
<path d="M25.2632 12.5015C25.0415 12.4926 24.8552 12.5902 24.7045 12.7276C24.6912 12.7365 24.6912 12.7542 24.7001 12.7631C24.6912 12.7808 24.6868 12.803 24.6912 12.8296C24.7001 12.8961 24.8065 12.9006 24.8641 12.8784C24.9085 12.8607 24.9484 12.8385 24.9883 12.8119C25.0415 12.7764 25.1169 12.772 25.1834 12.7587C25.2809 12.7409 25.3785 12.7321 25.4184 12.639C25.4583 12.5414 25.3607 12.5015 25.2676 12.4971L25.2632 12.5015Z" fill="#FDFADF"/>
<path d="M26.7341 13.6406C26.9558 13.6184 27.1242 13.4987 27.2484 13.3435C27.2573 13.3302 27.2573 13.3169 27.2484 13.308C27.2528 13.2858 27.2484 13.2637 27.2484 13.2415C27.2262 13.175 27.1198 13.1883 27.071 13.2105C27.0267 13.2326 26.9957 13.2637 26.9602 13.2947C26.9114 13.339 26.8405 13.3523 26.7784 13.3701C26.6853 13.3967 26.5877 13.4189 26.5656 13.5164C26.5434 13.6184 26.6454 13.645 26.7385 13.6361L26.7341 13.6406Z" fill="#FDFADF"/>
<path d="M26.7928 12.1724C26.775 12.3231 26.846 12.4561 26.9568 12.5625C26.9657 12.5714 26.979 12.5758 26.9878 12.567C27.0056 12.5714 27.0233 12.5758 27.0455 12.5758C27.1031 12.5758 27.1164 12.5005 27.1031 12.465C27.0898 12.434 27.0721 12.4029 27.0544 12.3763C27.0277 12.3364 27.0278 12.2876 27.0189 12.2433C27.01 12.1768 27.01 12.1103 26.9302 12.0792C26.846 12.0438 26.8061 12.1103 26.7972 12.1724H26.7928Z" fill="#FDFADF"/>
<path d="M25.5154 14.2743C25.6883 14.2565 25.8169 14.1634 25.9145 14.0437C25.9233 14.0348 25.9233 14.0215 25.9145 14.0171C25.9145 13.9994 25.9145 13.9861 25.9145 13.9639C25.8967 13.9151 25.8169 13.9196 25.777 13.9417C25.746 13.9595 25.7149 13.9816 25.6883 14.0038C25.6529 14.0348 25.5952 14.0481 25.5464 14.0614C25.4755 14.0836 25.4001 14.1013 25.3824 14.1767C25.3647 14.2565 25.4445 14.2743 25.5154 14.2698V14.2743Z" fill="#FDFADF"/>
<path d="M22.146 19.1207C21.9243 19.1118 21.7381 19.2094 21.5873 19.3468C21.574 19.3557 21.574 19.3734 21.5829 19.3823C21.574 19.4 21.5696 19.4222 21.574 19.4488C21.5829 19.5153 21.6893 19.5197 21.7469 19.502C21.7913 19.4843 21.8312 19.4621 21.8711 19.4355C21.9243 19.4 21.9997 19.3956 22.0662 19.3823C22.1637 19.3645 22.2613 19.3557 22.3012 19.2626C22.3411 19.165 22.2435 19.1251 22.1504 19.1207H22.146Z" fill="#FDFADF"/>
<path d="M23.6756 18.7974C23.6578 18.9481 23.7288 19.0811 23.8396 19.1875C23.8485 19.1964 23.8618 19.2008 23.8707 19.192C23.8884 19.1964 23.9061 19.2008 23.9283 19.2008C23.9859 19.2008 23.9992 19.1255 23.9815 19.09C23.9682 19.059 23.9505 19.0279 23.9327 19.0013C23.9061 18.9614 23.9061 18.9126 23.8973 18.8683C23.8884 18.8018 23.8884 18.7353 23.8086 18.7042C23.7243 18.6688 23.6844 18.7353 23.6756 18.7974Z" fill="#FDFADF"/>
<path d="M27.1958 15.897C26.9697 15.8881 26.7879 15.9857 26.6371 16.1231C26.6238 16.132 26.6238 16.1497 26.6327 16.1586C26.6238 16.1764 26.6194 16.1985 26.6238 16.2251C26.6327 16.2916 26.7391 16.2961 26.7967 16.2739C26.8411 16.2562 26.881 16.234 26.9209 16.2074C26.9741 16.1719 27.0495 16.1675 27.116 16.1542C27.2135 16.1364 27.3111 16.1276 27.351 16.0345C27.3909 15.9369 27.2933 15.897 27.2002 15.8926L27.1958 15.897Z" fill="#FDFADF"/>
<path d="M28.6638 17.0408C28.8854 17.0186 29.0539 16.8989 29.1781 16.7437C29.187 16.7304 29.187 16.7171 29.1781 16.7083C29.1825 16.6861 29.1825 16.6639 29.1781 16.6418C29.1559 16.5753 29.0495 16.5841 29.0007 16.6107C28.9564 16.6329 28.9209 16.6639 28.8899 16.695C28.8411 16.7393 28.7702 16.7526 28.7081 16.7703C28.615 16.797 28.5174 16.8191 28.4953 16.9167C28.4731 17.0186 28.5751 17.0453 28.6682 17.0364L28.6638 17.0408Z" fill="#FDFADF"/>
<path d="M28.7251 15.5733C28.703 15.724 28.7783 15.857 28.8892 15.9635C28.8981 15.9723 28.9114 15.9723 28.9202 15.9679C28.938 15.9723 28.9557 15.9768 28.9779 15.9768C29.0355 15.9768 29.0488 15.9014 29.0355 15.8659C29.0222 15.8349 29.0045 15.8083 28.9823 15.7772C28.9557 15.7373 28.9557 15.6886 28.9468 15.6442C28.938 15.5777 28.938 15.5112 28.8537 15.4757C28.7695 15.4403 28.7296 15.5068 28.7207 15.5688L28.7251 15.5733Z" fill="#FDFADF"/>
<path d="M27.4441 17.6717C27.617 17.654 27.7456 17.5609 27.8432 17.4412C27.852 17.4323 27.852 17.419 27.8432 17.4146C27.8432 17.3968 27.8432 17.3835 27.8432 17.3614C27.8254 17.3126 27.7456 17.317 27.7057 17.3392C27.6747 17.3569 27.6481 17.3791 27.617 17.4013C27.5816 17.4323 27.5239 17.4456 27.4752 17.4589C27.4042 17.4811 27.3288 17.4988 27.3111 17.5742C27.2934 17.654 27.3732 17.6717 27.4441 17.6673V17.6717Z" fill="#FDFADF"/>
<g style="mix-blend-mode:multiply">
<path d="M17.3394 4.56934C17.2463 4.58707 17.1531 4.60924 17.06 4.62698C15.8318 4.88858 14.4706 5.08367 13.3798 5.66452C13.2202 6.29414 13.1094 6.85282 13.1094 6.85282C13.1094 6.85282 15.6101 6.83065 16.6122 6.98584C17.6143 7.1366 17.3216 6.30745 17.2551 5.99264C17.2551 5.99264 17.5522 6.2232 17.5965 6.40056C17.5965 6.40056 18.2395 5.75764 17.5433 5.11915C17.5433 5.11915 18.0931 5.32311 18.2616 5.4783C18.2616 5.4783 18.0976 4.7733 17.3349 4.57377L17.3394 4.56934Z" fill="#E0CBBB"/>
</g>
<g style="mix-blend-mode:multiply">
<path d="M20.2613 4.63412C19.6893 4.55874 19.1173 4.39469 18.532 4.40799C18.3192 4.41242 18.1152 4.43459 17.9068 4.46563C17.9113 4.4878 17.9157 4.50997 17.9246 4.53214C17.9246 4.53214 17.561 5.67167 19.4055 6.42544L19.2237 5.99978C19.2237 5.99978 19.9199 6.3678 20.5628 6.37666L20.2302 5.9377C20.2302 5.9377 21.0993 6.42987 21.454 6.25695C21.6801 6.1461 22.2699 5.35242 22.7576 4.78044C21.924 4.78044 21.086 4.7494 20.2613 4.63855V4.63412Z" fill="#E0CBBB"/>
</g>
<path d="M17.1664 4.21821C17.1664 4.21821 17.3703 3.89453 17.2772 3.55755L16.7983 3.96991C16.7983 3.96991 16.6786 3.39349 16.2441 3.18066L16.3461 3.61963C16.3461 3.61963 14.5149 3.23387 14.0626 3.61963C13.6103 4.00538 13.1182 6.53273 13.1182 6.53273C13.1182 6.53273 15.6189 6.51056 16.621 6.66575C17.6231 6.81651 17.3304 5.98736 17.2639 5.67255C17.2639 5.67255 17.561 5.90311 17.6053 6.08047C17.6053 6.08047 18.2482 5.43755 17.5521 4.79906C17.5521 4.79906 18.1019 5.00302 18.2704 5.15821C18.2704 5.15821 18.0842 4.35123 17.1664 4.21821Z" fill="#6AB445"/>
<path d="M17.5517 4.80358C17.5517 4.80358 18.1015 5.00755 18.27 5.16273C18.27 5.16273 18.0837 4.35575 17.1659 4.22274C17.1659 4.22274 17.1659 4.22274 17.1659 4.21387C16.6959 4.24934 16.2126 4.28038 15.7692 4.4267C15.3303 4.56858 14.9135 4.78141 14.541 5.02971C13.969 5.41103 13.4281 5.89434 13.1266 6.47075C13.1177 6.51509 13.1133 6.54169 13.1133 6.54169C13.1133 6.54169 15.614 6.51952 16.6161 6.67471C17.6182 6.82547 17.3255 5.99632 17.259 5.68151C17.259 5.68151 17.5561 5.91207 17.6004 6.08943C17.6004 6.08943 18.2434 5.44651 17.5472 4.80802L17.5517 4.80358Z" fill="#419F47"/>
<g style="mix-blend-mode:screen">
<path d="M14.7145 3.58017C14.7145 3.58017 14.1514 3.50479 13.9563 3.89055C13.7612 4.27187 13.269 6.00554 13.2735 6.03215C13.2779 6.05875 14.0184 3.7664 14.7145 3.58017Z" fill="#89BE40"/>
</g>
<path d="M18.8022 3.15851C18.8022 3.15851 18.5938 2.67964 18.6914 2.41804C18.6914 2.41804 17.5341 2.93238 17.9287 4.22266C17.9287 4.22266 17.5651 5.36219 19.4097 6.11596L19.2279 5.6903C19.2279 5.6903 19.924 6.05832 20.5669 6.06719L20.2344 5.62822C20.2344 5.62822 21.1034 6.12039 21.4581 5.94747C21.8129 5.77454 23.0366 3.95662 23.4002 3.88568C23.4002 3.88568 21.6931 2.25842 20.1501 2.65747L20.2477 2.24512C20.2477 2.24512 19.1303 2.28502 18.8066 3.16295L18.8022 3.15851Z" fill="#6AB445"/>
<path d="M20.5938 3.62899C19.6849 3.6822 18.7271 3.80635 17.9201 4.19654C17.9201 4.2054 17.9201 4.20984 17.9246 4.2187C17.9246 4.2187 17.561 5.35823 19.4055 6.112L19.2237 5.68634C19.2237 5.68634 19.9199 6.05436 20.5628 6.06323L20.2302 5.62427C20.2302 5.62427 21.0993 6.11644 21.454 5.94351C21.7954 5.77502 22.9527 4.07238 23.3562 3.89503C22.4472 3.71323 21.5471 3.57578 20.5938 3.63342V3.62899Z" fill="#419F47"/>
<g style="mix-blend-mode:screen">
<path d="M18.5891 2.52832C18.5891 2.52832 17.6669 3.087 17.9861 4.0403C17.9861 4.0403 18.0349 3.1269 18.5758 2.74115L18.5891 2.52832Z" fill="#89BE40"/>
</g>
</g>
</svg>
