<svg viewBox="0 0 33 40" fill="none" xmlns="http://www.w3.org/2000/svg">
<path d="M17.4578 7.16745C16.9397 8.52781 16.683 10.0233 16.8812 11.4783C16.9578 12.0323 17.2415 12.7125 17.1334 13.2756C16.9983 13.9828 16.5523 14.4918 16.6514 15.2711C16.7821 16.2981 18.192 17.0323 18.9307 16.0639C19.2776 15.6089 19.6289 15.154 19.9848 14.699C20.8271 14.1404 21.7551 13.6675 22.5388 13.1404C23.8947 12.2305 25.1785 11.0233 25.7731 9.46926C26.2686 8.17646 26.1965 6.83862 25.9938 5.49177C25.8001 4.21249 25.5208 2.9287 25.9037 1.65843C26.201 0.662934 25.0028 0.198969 24.2731 0.545817C21.3767 1.93321 18.6424 4.08186 17.4623 7.16294L17.4578 7.16745Z" fill="#2B6532"/>
<mask id="mask0_1234_16510" style="mask-type:luminance" maskUnits="userSpaceOnUse" x="16" y="0" width="11" height="17">
<path d="M17.4587 7.1655C16.9407 8.52586 16.684 10.0214 16.8822 11.4763C16.9587 12.0304 17.2425 12.7106 17.1344 13.2736C16.9993 13.9808 16.5533 14.4898 16.6524 15.2691C16.7831 16.2961 18.193 17.0304 18.9317 16.0619C19.2786 15.607 19.6299 15.152 19.9858 14.697C20.8281 14.1385 21.756 13.6655 22.5398 13.1385C23.8957 12.2286 25.1795 11.0214 25.7741 9.4673C26.2696 8.17451 26.1975 6.83667 25.9948 5.48982C25.8011 4.21054 25.5218 2.92675 25.9047 1.65648C26.202 0.660981 25.0038 0.197016 24.2741 0.543864C21.3777 1.93125 18.6434 4.07991 17.4632 7.16099L17.4587 7.1655Z" fill="white"/>
</mask>
<g mask="url(#mask0_1234_16510)">
<g style="mix-blend-mode:multiply" opacity="0.55">
<path d="M28.8057 2.41361C28.5849 1.81902 28.148 1.37307 27.63 1.09829C27.7516 0.521716 27.7966 -0.0593664 27.702 -0.631439C27.648 -0.960269 27.2471 -1.03685 26.9993 -0.915224C25.5759 -0.230538 24.5264 1.53523 23.6885 2.83703C22.684 4.4001 21.648 5.94515 20.6525 7.51272C19.6975 9.01722 18.7246 10.5127 17.7651 12.0172C16.7471 13.6073 15.7426 15.0443 15.5804 16.9767C15.4408 18.6208 17.9047 19.6974 18.9678 18.3821C19.8191 17.328 20.5849 16.2199 21.3011 15.0848C21.5309 15.1389 21.7651 15.1569 22.0038 15.1434C23.0174 15.5848 24.2921 15.4271 25.0624 14.2244C25.5083 13.5353 25.8912 12.8235 26.2291 12.0893C27.1795 11.0127 27.8552 9.58029 28.3237 8.35056C29.0309 6.49019 29.5354 4.35505 28.8102 2.42262L28.8057 2.41361Z" fill="#F7BF4E"/>
</g>
</g>
<path d="M16.6611 14.6124C17.3368 12.9412 17.6882 11.5358 17.1702 9.73398C16.7873 8.39164 15.7242 6.4592 14.1251 6.4502C13.6701 6.4502 13.4449 6.86011 13.508 7.26101C13.6746 8.3556 14.7242 9.38714 15.1972 10.3871C15.7242 11.5088 16.1837 13.1709 15.9494 14.4097C15.8593 14.8826 16.4855 15.0448 16.6611 14.6079V14.6124Z" fill="#3C1410"/>
<path d="M7.43111 12.1528C6.26895 12.5852 5.26895 13.378 4.41759 14.2789C1.60678 17.2564 0.30047 21.5312 0.714885 25.6077C1.1293 29.6843 3.19237 33.5222 6.19237 36.315C7.25994 37.3105 8.44913 38.1843 9.79148 38.7564C11.814 39.6168 14.0572 39.7429 16.2509 39.8555C19.3275 40.0177 22.5573 40.1483 25.332 38.806C28.0302 37.4996 29.9537 34.9096 30.9402 32.0807C31.9221 29.2519 32.6924 25.4366 32.4942 22.4501C32.2645 19.0357 31.7239 16.4546 29.3996 13.9411C28.1113 12.5537 25.3906 11.4005 23.5032 11.2744C21.6158 11.1483 20.7555 12.0717 19.1609 12.6573C15.4311 14.0311 11.3365 10.6933 7.42661 12.1483L7.43111 12.1528Z" fill="#F68B27"/>
<mask id="mask1_1234_16510" style="mask-type:luminance" maskUnits="userSpaceOnUse" x="0" y="11" width="33" height="29">
<path d="M7.43111 12.1547C6.26895 12.5871 5.26895 13.3799 4.41759 14.2808C1.60678 17.2583 0.30047 21.5331 0.714885 25.6097C1.1293 29.6863 3.19237 33.5241 6.19237 36.3169C7.25994 37.3124 8.44913 38.1863 9.79148 38.7584C11.814 39.6187 14.0572 39.7448 16.2509 39.8575C19.3275 40.0196 22.5573 40.1503 25.332 38.8079C28.0302 37.5016 29.9537 34.9115 30.9402 32.0827C31.9221 29.2538 32.6924 25.4385 32.4942 22.452C32.2645 19.0376 31.7239 16.4565 29.3996 13.943C28.1113 12.5556 25.3906 11.4025 23.5032 11.2763C21.6158 11.1502 20.7555 12.0736 19.1609 12.6592C15.4311 14.0331 11.3365 10.6953 7.42661 12.1502L7.43111 12.1547Z" fill="white"/>
</mask>
<g mask="url(#mask1_1234_16510)">
<g style="mix-blend-mode:multiply" opacity="0.21">
<path d="M35.2559 28.231C35.0757 26.6454 33.3054 25.6905 32.0306 26.8932C30.4631 28.3752 28.2919 29.1184 26.1342 28.8752C24.2739 28.6635 22.3009 27.5959 21.9585 25.6274C21.8189 24.8391 20.8054 24.3211 20.0757 24.5599C15.3144 26.1229 9.39997 25.1364 6.936 20.3166C4.71978 15.9878 7.51708 10.722 12.2198 9.74902C12.8684 9.61388 12.6342 8.74451 12.0756 8.68145C9.46753 8.37965 7.16122 9.5328 5.59365 11.5283C5.58014 11.5148 5.56212 11.5013 5.54861 11.4923C4.58014 10.767 3.45851 10.9292 2.55311 11.6724C1.13869 12.8301 0.332382 14.2445 -0.036988 15.7761C-0.820773 16.0914 -1.47393 16.731 -1.65861 17.5824C-2.15861 19.8571 -2.66312 22.2175 -2.45141 24.5599C-2.42438 24.8662 -2.38384 25.1635 -2.33429 25.4653C-1.91987 32.713 3.23779 38.632 10.1702 40.8302C14.9766 42.3572 20.0261 41.9112 24.6928 40.2581C26.0216 40.132 27.3189 39.8482 28.5441 39.2716C30.1252 38.5283 31.4225 37.2716 32.6342 36.0419C33.2604 35.4067 33.4541 34.6139 33.355 33.8572C34.7198 32.3752 35.5036 30.4022 35.2604 28.231H35.2559Z" fill="#F68B27"/>
</g>
<g style="mix-blend-mode:multiply" opacity="0.21">
<path d="M33.7785 29.6235C33.283 28.1055 31.0443 27.3532 30.3506 28.9658C28.6253 32.9703 22.819 31.3082 22.0848 29.4523C21.792 28.7091 20.6884 28.4028 20.0262 28.7857C15.6794 31.2812 7.83251 31.8127 4.44511 27.592C1.40006 23.7992 -1.56391 15.4748 2.84601 13.5739C3.45412 13.3127 3.05322 12.5063 2.49015 12.5559C-0.122464 12.7856 -0.244086 15.7 -1.37472 17.9703C-1.39274 17.9613 -3.70355 34.2181 -3.59544 34.5019C-1.72607 41.5154 4.52169 46.2722 11.7514 47.0289C16.7695 47.5515 21.6253 46.0965 25.8596 43.5379C27.1343 43.146 28.3461 42.61 29.4316 41.7947C30.8325 40.7496 31.8461 39.2541 32.783 37.8037C33.265 37.0559 33.2965 36.2406 33.0488 35.5199C34.0848 33.7947 34.4587 31.7046 33.7785 29.628V29.6235Z" fill="#F68B27"/>
</g>
<g style="mix-blend-mode:multiply" opacity="0.21">
<path d="M33.3416 31.7773C32.747 30.5025 30.7155 30.0881 30.2785 31.5701C29.2019 35.2503 23.9542 34.4169 23.1163 32.8719C22.7785 32.2548 21.7875 32.1061 21.247 32.507C17.7154 35.1467 8.21092 36.2953 4.80551 32.971C1.74694 29.9845 -3.37018 23.1106 0.273968 20.9845C0.778473 20.6917 0.341535 20.034 -0.144952 20.1331C-2.40171 20.6106 -1.71703 24.2187 -2.46478 26.3178C-2.48279 26.3133 1.11181 39.7728 1.23793 40.007C3.61632 45.9305 9.57579 49.417 15.9677 49.3043C20.4001 49.2278 24.4857 47.4395 27.9091 44.7548C28.9812 44.2773 29.9812 43.6782 30.8416 42.8539C31.9497 41.7908 32.6794 40.3809 33.3416 39.016C33.6839 38.3133 33.6254 37.5971 33.3281 36.9935C34.0488 35.3764 34.1524 33.5115 33.3371 31.7728L33.3416 31.7773Z" fill="#F68B27"/>
</g>
</g>
<mask id="mask2_1234_16510" style="mask-type:luminance" maskUnits="userSpaceOnUse" x="0" y="11" width="33" height="29">
<path d="M7.43111 12.1547C6.26895 12.5871 5.26895 13.3799 4.41759 14.2808C1.60678 17.2583 0.30047 21.5331 0.714885 25.6097C1.1293 29.6863 3.19237 33.5241 6.19237 36.3169C7.25994 37.3124 8.44913 38.1863 9.79148 38.7584C11.814 39.6187 14.0572 39.7448 16.2509 39.8575C19.3275 40.0196 22.5573 40.1503 25.332 38.8079C28.0302 37.5016 29.9537 34.9115 30.9402 32.0827C31.9221 29.2538 32.6924 25.4385 32.4942 22.452C32.2645 19.0376 31.7239 16.4565 29.3996 13.943C28.1113 12.5556 25.3906 11.4025 23.5032 11.2763C21.6158 11.1502 20.7555 12.0736 19.1609 12.6592C15.4311 14.0331 11.3365 10.6953 7.42661 12.1502L7.43111 12.1547Z" fill="white"/>
</mask>
<g mask="url(#mask2_1234_16510)">
<g opacity="0.4">
<path d="M17.6701 12.4551C18.3142 12.9866 18.9494 12.8334 19.7241 12.8019C20.5079 12.7659 21.2692 12.8289 22.0304 13.0226C23.4178 13.383 24.8142 13.9911 25.9178 14.9145C28.526 17.0857 29.3773 20.829 29.4899 24.0632C29.562 26.0857 29.4269 28.1037 28.7872 30.0362C28.1971 31.82 27.1115 33.4416 26.062 34.9866C25.098 36.4056 24.0214 37.802 22.4223 38.5362C20.7467 39.3065 18.9719 39.2524 17.2422 39.7029C15.9629 40.0362 15.6926 41.5857 16.5034 42.5002C17.7872 43.9506 20.2331 44.4101 22.071 44.2119C24.3277 43.9686 26.3007 42.9056 27.9494 41.3605C29.4944 39.9146 30.7016 38.0632 31.8188 36.2794C32.9359 34.4911 33.9043 32.5542 34.4179 30.4956C36.3052 22.9326 34.4224 12.6578 26.4088 9.4956C24.589 8.77938 22.5395 8.5947 20.6431 9.16677C19.7467 9.43704 18.8367 9.84695 18.1295 10.4731C17.6791 10.874 16.9944 11.9055 17.6701 12.4596V12.4551Z" fill="#FCB037"/>
</g>
<g style="mix-blend-mode:multiply" opacity="0.37">
<path d="M12.0798 11.0996C11.9491 10.8204 11.7239 10.1086 11.1699 9.75279C10.4176 9.27081 9.53022 9.09063 8.64283 9.08613C6.80049 9.07261 5.1158 9.78883 3.71039 10.951C0.881557 13.2888 -0.339166 17.2843 -0.636464 20.8114C-1.19502 27.469 2.07976 35.1673 7.33202 39.3294C9.03472 40.6808 10.9582 41.6267 13.0437 42.2348C14.0708 42.5366 15.1834 42.7213 16.2555 42.6808C16.814 42.6583 17.4537 42.6357 17.9942 42.5006C18.5077 42.3745 18.841 42.0637 19.287 41.8204C20.1203 41.37 20.1654 40.2483 19.5753 39.5997C19.787 40.0997 19.769 40.0546 19.5212 39.4646C19.3816 39.2168 19.1924 39.0141 18.9582 38.861C18.6158 38.5637 18.2555 38.379 17.8591 38.1853C16.9582 37.7438 16.0347 37.3835 15.0798 37.0772C13.5437 36.5907 12.0753 36.0952 10.8095 35.0546C8.28247 32.9781 6.45814 29.7708 5.52571 26.6717C4.60679 23.6087 4.46264 20.1852 5.58427 17.1492C6.07526 15.8114 6.94913 14.5456 8.16535 13.7708C8.82301 13.3519 9.44463 13.0501 10.1834 12.8023C10.5482 12.6807 10.9807 12.5816 11.3095 12.3789C11.4672 12.2708 11.6113 12.1492 11.7509 12.0186C11.9401 11.7303 11.9852 11.6942 11.8816 11.906C12.1879 11.7618 12.2149 11.3699 12.0933 11.1041L12.0798 11.0996Z" fill="#F68B27"/>
</g>
<path d="M21.2016 32.2708C22.7917 29.9105 22.8367 26.7978 22.5709 24.0501C22.2827 21.0591 21.3637 18.1897 19.9043 15.5636C18.5754 13.1672 16.7286 11.023 14.607 9.30232C12.4673 7.56808 9.71507 5.8834 6.94029 5.4915C6.4538 5.42394 5.91326 5.55457 5.59794 5.96448C4.67452 7.16268 5.80065 8.05007 6.87272 8.50953C8.13849 9.05457 9.39525 9.55908 10.5844 10.2573C12.8772 11.6041 14.9223 13.3969 16.4989 15.5366C18.1881 17.8294 19.3322 20.487 19.8953 23.2753C20.4854 26.1807 19.9809 29.0501 20.2556 31.96C20.2962 32.3789 20.9178 32.6762 21.1926 32.2663L21.2016 32.2708Z" fill="#FAA33B"/>
</g>
<g style="mix-blend-mode:lighten" opacity="0.13">
<path d="M11.3503 16.955C9.43592 18.0316 8.68366 20.3199 8.7242 22.4054C8.73321 22.7478 8.76024 23.0901 8.80979 23.4325C8.67916 25.0541 8.86384 26.6622 9.90889 28.0226C11.1521 29.6352 13.3008 30.446 15.2197 29.5721C17.2918 28.6262 18.0936 26.3784 18.0621 24.2298C18.0125 20.982 15.8278 14.4415 11.3503 16.9595V16.955Z" fill="#FCB037"/>
</g>
<g style="mix-blend-mode:lighten" opacity="0.13">
<path d="M21.913 14.6841C21.431 16.1976 22.6607 17.8598 23.4535 19.0535C24.2643 20.2697 24.8769 21.4679 25.0886 22.9363C25.5391 26.0535 24.3499 29.1931 23.3229 32.076C22.8229 33.4859 23.8904 35.112 25.2598 35.4859C26.7913 35.9048 28.1697 34.9679 28.6697 33.549C30.1067 29.4769 31.2914 25.2337 30.3004 20.9093C29.8274 18.8372 28.7103 16.8778 27.1247 15.4589C26.0391 14.4904 22.7057 12.1931 21.913 14.6841Z" fill="#FCB037"/>
</g>
<g opacity="0.14">
<path d="M24.7555 16.8468C24.7825 16.8468 24.8095 16.8468 24.8365 16.8468C24.5933 16.7071 24.3501 16.5675 24.1068 16.4278C24.3681 16.7747 24.6293 17.6305 24.8456 18.1351C25.1474 18.8287 25.3726 19.5179 25.5708 20.2477C25.9852 21.7837 25.7735 23.7657 26.6293 25.1125C27.6113 26.6621 29.5528 26.4909 30.5663 25.1125C32.323 22.7251 30.3275 18.7612 28.6023 16.9188C27.796 16.0585 26.6834 15.2071 25.4852 15.0179C24.7059 14.8918 23.796 15.4053 24.0483 16.3017C24.1338 16.599 24.4402 16.8603 24.76 16.8468H24.7555Z" fill="white"/>
</g>
<g opacity="0.57">
<path d="M23.4 3.47163C22.1522 4.69235 21.1928 6.04371 20.2828 7.5347C19.5351 8.75993 18.2558 10.2779 18.0621 11.7104C18.0396 11.8725 18.2648 11.9852 18.3909 11.8996C18.945 11.5122 19.2018 10.9942 19.5666 10.4266C20.0891 9.6293 20.6207 8.83651 21.1477 8.03921C22.0982 6.60227 22.9405 5.17434 23.5801 3.57974C23.6207 3.47614 23.472 3.40406 23.4 3.47163Z" fill="#3C823E"/>
</g>
</svg>
