<svg viewBox="0 0 24 36" fill="none" xmlns="http://www.w3.org/2000/svg">
<path d="M10.2508 9.60132C10.3364 8.60582 10.6066 7.69591 10.476 6.67338C10.3634 5.7905 9.9715 4.93464 9.55708 4.15536C8.72825 2.61031 7.43996 1.07427 5.84086 0.290488C4.87239 -0.182486 4.04806 1.17788 4.985 1.74995C6.43995 2.64184 7.63365 3.66437 8.50753 5.15536C8.976 5.95266 9.27329 6.72744 9.34987 7.65537C9.41744 8.47969 9.51203 9.04726 10.0886 9.66438C10.1472 9.72744 10.2463 9.67339 10.2508 9.59681V9.60132Z" fill="#745334"/>
<path d="M10.1613 7.74138C9.828 6.67381 9.36854 5.63777 8.77845 4.68732C8.19286 3.74588 7.49467 2.84948 6.69286 2.07921C6.17935 1.58371 5.41358 0.890018 4.6343 0.754883C4.49916 1.08822 4.57123 1.49813 4.98565 1.75038C6.44061 2.64227 7.63431 3.6648 8.50818 5.15579C8.97665 5.95309 9.27395 6.72787 9.35052 7.6558C9.41809 8.48012 9.51269 9.04769 10.0893 9.66481C10.1478 9.72787 10.2469 9.67382 10.2514 9.59724C10.283 9.22787 10.3415 8.87201 10.3911 8.51616C10.328 8.24589 10.2379 7.98012 10.1613 7.73688V7.74138Z" fill="#67472C"/>
<path d="M6.45822 9.74047C6.01678 10.3576 5.75551 11.0783 5.46272 11.7765C4.23299 14.745 2.44019 17.4612 1.26452 20.4522C0.0888379 23.4432 -0.411164 26.9252 1.00325 29.8126C1.6519 31.1414 2.66992 32.263 3.78704 33.227C4.63389 33.9612 5.56182 34.6189 6.59786 35.0468C7.85011 35.5648 9.22849 35.7315 10.5844 35.6865C13.8546 35.5829 17.769 34.727 19.9627 32.2946C20.9537 31.1955 21.9853 29.9657 22.5078 28.5828C23.3096 26.4747 23.4312 25.5648 23.5258 24.29C23.67 22.3261 23.1474 21.4027 22.3321 20.0693C21.0483 17.9657 18.679 16.754 17.197 14.781C16.3186 13.6098 15.7871 12.2225 15.0303 10.9702C14.251 9.68642 12.8771 8.17741 11.2961 7.95218C9.58886 7.71344 7.48525 8.29903 6.45822 9.73146V9.74047Z" fill="#A5B739"/>
<mask id="mask0_1234_16511" style="mask-type:luminance" maskUnits="userSpaceOnUse" x="0" y="7" width="24" height="29">
<path d="M6.45773 9.74047C6.01629 10.3576 5.75502 11.0783 5.46223 11.7765C4.2325 14.745 2.4397 17.4612 1.26403 20.4522C0.0883496 23.4432 -0.411652 26.9252 1.00276 29.8126C1.65141 31.1414 2.66943 32.263 3.78655 33.227C4.6334 33.9612 5.56133 34.6189 6.59737 35.0468C7.84962 35.5648 9.22801 35.7315 10.5839 35.6865C13.8541 35.5829 17.7686 34.727 19.9623 32.2946C20.9532 31.1955 21.9848 29.9657 22.5073 28.5828C23.3091 26.4747 23.4307 25.5648 23.5253 24.29C23.6695 22.3261 23.1469 21.4027 22.3316 20.0693C21.0478 17.9657 18.6785 16.754 17.1965 14.781C16.3181 13.6098 15.7866 12.2225 15.0298 10.9702C14.2505 9.68642 12.8767 8.17741 11.2956 7.95218C9.58837 7.71344 7.48476 8.29903 6.45773 9.73146V9.74047Z" fill="white"/>
</mask>
<g mask="url(#mask0_1234_16511)">
<path d="M8.56157 8.10026C9.07509 8.42909 9.60662 8.51017 10.1787 8.71287C10.7418 8.91558 11.2778 9.23089 11.7327 9.61377C12.7373 10.4561 13.1246 11.4381 13.3724 12.6904C13.6472 14.0732 13.8364 15.5237 14.5886 16.7489C15.467 18.1769 16.9219 18.8345 18.1877 19.8435C19.1742 20.6273 20.0436 21.5642 20.6292 22.6859C21.2418 23.8706 21.2643 25.2534 20.9174 26.5733C20.2418 29.1543 18.4715 31.4201 16.3859 33.0372C15.8634 33.4426 15.2823 33.7895 14.6562 34.0012C13.8319 34.285 12.967 34.303 12.1156 34.4742C11.3994 34.6183 10.5075 34.8706 10.2508 35.6499C10.003 36.3841 10.7733 36.821 11.3589 37.0237C13.1517 37.6454 14.931 37.7264 16.6697 36.9156C18.0616 36.267 19.2913 35.2039 20.3544 34.1093C22.5841 31.821 24.2418 28.9156 24.5796 25.7084C24.913 22.5372 23.2598 19.6228 20.9039 17.6138C20.2418 17.0462 19.5301 16.5417 18.8048 16.0597C18.1967 15.6588 17.6832 15.2805 17.3904 14.6273C16.8048 13.33 16.7283 11.6453 16.0796 10.2669C15.3994 8.82098 14.1021 7.67683 12.6336 7.08674C11.3949 6.59125 9.49401 6.22188 8.45797 7.27143C8.21022 7.52368 8.27779 7.92458 8.56608 8.10476L8.56157 8.10026Z" fill="#B2BC35"/>
<path d="M11.003 7.98332C10.9355 6.72205 9.33637 6.60944 8.38592 6.87521C7.11565 7.23557 6.10214 8.39323 5.55258 9.54188C4.38141 11.9833 3.976 14.8212 2.48501 17.114C1.82735 18.1275 0.90843 18.9293 0.300321 19.9923C-0.316797 21.0734 -0.776258 22.2851 -0.98797 23.5149C-1.42941 26.0824 -1.06004 28.6861 0.232753 30.9698C0.876898 32.105 1.74176 33.1545 2.74627 33.9879C3.84537 34.9023 6.28231 38.6681 7.74628 37.7536C8.30484 37.4068 10.2823 37.1455 10.1472 36.5149C9.88592 35.3032 7.60213 33.7581 6.72826 33.096C6.11564 32.6275 4.00303 30.4158 3.56609 29.7581C2.56609 28.2446 2.11113 26.4969 2.32284 24.659C2.42645 23.7716 2.71024 22.8392 3.12915 22.0374C3.61114 21.114 4.29131 20.4113 4.92645 19.605C6.42645 17.6995 7.21475 15.1365 7.97151 12.8572C8.30484 11.8572 8.45799 10.5914 9.10214 9.72656C9.38592 9.34368 9.81385 9.04638 10.2283 8.82566C10.503 8.68152 11.0346 8.37071 11.0121 7.97431L11.003 7.98332Z" fill="#9FA838"/>
</g>
<mask id="mask1_1234_16511" style="mask-type:luminance" maskUnits="userSpaceOnUse" x="0" y="7" width="24" height="29">
<path d="M6.45773 9.74047C6.01629 10.3576 5.75502 11.0783 5.46223 11.7765C4.2325 14.745 2.4397 17.4612 1.26403 20.4522C0.0883496 23.4432 -0.411652 26.9252 1.00276 29.8126C1.65141 31.1414 2.66943 32.263 3.78655 33.227C4.6334 33.9612 5.56133 34.6189 6.59737 35.0468C7.84962 35.5648 9.22801 35.7315 10.5839 35.6865C13.8541 35.5829 17.7686 34.727 19.9623 32.2946C20.9532 31.1955 21.9848 29.9657 22.5073 28.5828C23.3091 26.4747 23.4307 25.5648 23.5253 24.29C23.6695 22.3261 23.1469 21.4027 22.3316 20.0693C21.0478 17.9657 18.6785 16.754 17.1965 14.781C16.3181 13.6098 15.7866 12.2225 15.0298 10.9702C14.2505 9.68642 12.8767 8.17741 11.2956 7.95218C9.58837 7.71344 7.48476 8.29903 6.45773 9.73146V9.74047Z" fill="white"/>
</mask>
<g mask="url(#mask1_1234_16511)">
<g style="mix-blend-mode:multiply" opacity="0.14">
<path d="M17.2684 13.9395C17.0882 13.3764 16.6197 12.8989 16.0161 12.7593C16.0026 12.6827 15.9846 12.6106 15.9621 12.5386C15.9891 12.5115 16.0161 12.4845 16.0431 12.4575C16.5251 11.8854 16.9035 11.2773 17.0071 10.5251C17.1242 9.68271 16.8765 8.85838 16.0206 8.51153C15.5747 8.33135 15.1422 8.34487 14.7548 8.49802C14.2413 8.06108 13.6602 7.72324 13.0026 7.54757C11.7053 7.20072 10.0341 7.29982 8.73682 7.57009C8.15123 7.69171 7.61519 7.94397 7.05213 8.14667C6.07465 7.91694 5.08816 8.25027 4.38095 8.95748C3.63771 9.70073 3.05212 10.7413 3.65122 11.7638C3.66924 11.7953 3.69176 11.8224 3.70978 11.8494C3.6332 12.0025 3.55663 12.1557 3.47555 12.3043C3.33591 12.2278 3.19176 12.1557 3.04311 12.0971C1.86743 11.6061 0.628697 13.1016 1.04762 14.2052C0.799869 14.5656 0.705272 15.0115 0.876443 15.471C1.19626 16.3224 1.80888 16.9079 2.57465 17.3134C2.70077 17.444 2.8314 17.5746 2.96654 17.6962C3.35392 18.0386 3.76384 18.3269 4.20528 18.5656C4.55212 18.8584 4.97555 19.0926 5.41699 19.2458C6.94853 19.7863 8.65573 20.1107 10.2774 20.0836C13.4801 20.0251 16.6017 18.9079 18.8765 16.6152C20.1422 15.3404 18.6783 13.5386 17.2684 13.9395Z" fill="#9DA037"/>
</g>
</g>
<mask id="mask2_1234_16511" style="mask-type:luminance" maskUnits="userSpaceOnUse" x="0" y="7" width="24" height="29">
<path d="M6.45773 9.74047C6.01629 10.3576 5.75502 11.0783 5.46223 11.7765C4.2325 14.745 2.4397 17.4612 1.26403 20.4522C0.0883496 23.4432 -0.411652 26.9252 1.00276 29.8126C1.65141 31.1414 2.66943 32.263 3.78655 33.227C4.6334 33.9612 5.56133 34.6189 6.59737 35.0468C7.84962 35.5648 9.22801 35.7315 10.5839 35.6865C13.8541 35.5829 17.7686 34.727 19.9623 32.2946C20.9532 31.1955 21.9848 29.9657 22.5073 28.5828C23.3091 26.4747 23.4307 25.5648 23.5253 24.29C23.6695 22.3261 23.1469 21.4027 22.3316 20.0693C21.0478 17.9657 18.6785 16.754 17.1965 14.781C16.3181 13.6098 15.7866 12.2225 15.0298 10.9702C14.2505 9.68642 12.8767 8.17741 11.2956 7.95218C9.58837 7.71344 7.48476 8.29903 6.45773 9.73146V9.74047Z" fill="white"/>
</mask>
<g mask="url(#mask2_1234_16511)">
<path opacity="0.38" d="M25.3314 22.2498C23.1242 25.7272 19.444 28.1777 15.3675 28.8354C10.7819 29.5741 6.79086 27.0786 4.55663 23.1822C3.42149 21.2002 2.8314 18.8894 2.6287 16.6281C2.57014 15.9615 1.69176 15.8218 1.46203 16.4705C1.32239 16.8669 1.21428 17.2678 1.13319 17.6732C0.957519 17.6371 0.777342 17.6281 0.601666 17.6552C-0.227165 17.7813 -0.731669 18.4164 -0.794732 19.2362C-1.17311 24.1101 -1.16411 29.8534 3.06113 33.1912C6.7323 36.0921 11.9846 36.1687 16.4035 35.1101C19.7594 34.7002 23.1648 33.7273 25.435 31.0651C25.9125 30.5065 26.0702 29.7543 25.7278 29.1146C26.9936 27.4705 27.854 25.511 28.2774 23.493C28.6513 21.7182 26.3314 20.6642 25.3269 22.2498H25.3314Z" fill="#9DA037"/>
<path opacity="0.38" d="M24.4171 24.9528C22.0702 28.6465 18.1603 31.2501 13.836 31.9483C8.96662 32.7366 4.72337 30.0789 2.35399 25.9438C1.14678 23.8357 0.52516 21.3852 0.308944 18.9798C0.245881 18.2726 -0.686553 18.124 -0.929797 18.8132C-1.07845 19.2366 -1.19106 19.66 -1.27664 20.0924C-1.46583 20.0564 -1.65502 20.0474 -1.84421 20.0744C-2.72259 20.205 -3.25863 20.8807 -3.3262 21.7546C-3.7271 26.9303 -3.71809 33.0294 0.768403 36.5744C4.66931 39.6555 10.2459 39.7366 14.9396 38.6105C18.5027 38.178 22.1198 37.142 24.5342 34.3177C25.0387 33.7231 25.2099 32.9258 24.845 32.2456C26.1874 30.5024 27.1063 28.4168 27.5522 26.2771C27.9486 24.3897 25.4847 23.2726 24.4171 24.9573V24.9528Z" fill="#9DA037"/>
<path opacity="0.38" d="M23.9352 27.1364C21.5883 30.8301 17.6784 33.4337 13.3541 34.1319C8.48468 34.9202 4.24143 32.2625 1.87206 28.1274C0.664846 26.0193 0.0432267 23.5688 -0.17299 21.1634C-0.236053 20.4562 -1.16849 20.3076 -1.41173 20.9967C-1.56038 21.4202 -1.67299 21.8436 -1.75858 22.276C-1.94777 22.24 -2.13696 22.231 -2.32615 22.258C-3.20453 22.3886 -3.74056 23.0643 -3.80813 23.9382C-4.20903 29.1139 -4.20003 35.213 0.286469 38.758C4.18738 41.8391 9.76396 41.9202 14.4577 40.7941C18.0207 40.3616 21.6379 39.3256 24.0523 36.5013C24.5568 35.9067 24.728 35.1094 24.3631 34.4292C25.7054 32.686 26.6244 30.6004 27.0703 28.4607C27.4667 26.5733 25.0027 25.4562 23.9352 27.1409V27.1364Z" fill="#9DA037"/>
</g>
<g style="mix-blend-mode:screen" opacity="0.09">
<path d="M20.3186 21.5245C19.724 20.3983 18.8501 19.4659 17.9221 18.5875C17.1699 17.7272 16.4447 16.8443 15.9176 15.8172C15.4492 14.9118 15.2465 13.8893 14.7825 12.9749C14.1384 11.7046 12.6879 10.8398 11.3275 11.6776C8.8906 13.1776 10.4221 16.3443 11.5348 18.1416C12.1248 19.092 12.8005 19.9749 13.5933 20.7632C14.314 21.4794 15.0528 22.1416 15.4852 23.083C16.287 24.8398 15.5753 27.7227 18.0438 28.3533C18.4807 28.4659 18.8546 28.4659 19.1834 28.3803C20.251 28.3308 21.3186 27.7317 21.733 26.556C22.3186 24.8893 21.3591 23.011 20.3276 21.5245H20.3186Z" fill="white"/>
</g>
<g style="mix-blend-mode:screen" opacity="0.07">
<path d="M20.3141 20.2546C18.4357 18.9258 15.7285 19.0834 13.5664 20.1645C13.1339 20.2771 12.7105 20.4708 12.3321 20.7321C10.9042 21.7141 9.92222 23.4393 9.44475 25.0699C8.56637 28.0609 9.23754 32.0429 12.2646 33.5699C15.7826 35.3492 20.1294 32.8943 22.224 29.9708C24.4222 26.9078 23.2961 22.3627 20.3141 20.2546Z" fill="white"/>
</g>
<g style="mix-blend-mode:screen" opacity="0.08">
<path d="M20.6336 21.5702C19.4219 20.7143 17.6787 20.8134 16.2913 21.5116C16.012 21.5837 15.7417 21.7098 15.4985 21.8765C14.5796 22.5071 13.9489 23.6197 13.6381 24.6693C13.0706 26.5972 13.503 29.1603 15.4534 30.1422C17.7192 31.2864 20.5165 29.7098 21.8679 27.8269C23.2823 25.8539 22.5571 22.926 20.6381 21.5702H20.6336Z" fill="white"/>
</g>
<path d="M16.8589 20.4528C17.1788 20.9483 17.5526 21.4077 17.8725 21.9032C18.1878 22.3897 18.377 22.9122 18.5797 23.4528C18.7869 24.0068 19.6382 24.1059 19.8049 23.4528C20.2238 21.8311 18.5887 20.3672 17.0977 20.1465C16.931 20.1194 16.7508 20.2861 16.8589 20.4573V20.4528Z" fill="white"/>
</svg>
