<svg width="148" height="157" viewBox="0 0 148 157" fill="none" xmlns="http://www.w3.org/2000/svg">
<path d="M95.1619 62.1601C105.076 79.5207 98.9749 101.669 81.5346 111.629C64.0944 121.589 41.918 115.589 32.0036 98.2287C22.0893 80.8682 28.1906 58.7195 45.6309 48.7596C63.0712 38.7998 85.2476 44.7996 95.1619 62.1601Z" fill="#EAEAEA"/>
<path d="M81.0919 110.95C64.0013 120.711 41.618 113.735 31.4272 97.1747C31.6135 97.5274 31.8047 97.8799 32.0035 98.228C41.9179 115.589 64.0943 121.588 81.5345 111.629C98.9748 101.669 105.076 79.52 95.1618 62.1594C94.9619 61.8094 94.7566 61.4675 94.5475 61.1278C103.633 78.3218 98.1824 101.19 81.0938 110.949L81.0919 110.95Z" fill="#D3D3D3"/>
<path d="M89.2252 58.5257C101.131 72.5307 99.3659 93.5608 85.2773 105.497C71.1886 117.434 50.1166 115.752 38.2112 101.747C26.3057 87.7419 28.0704 66.7118 42.1591 54.7753C56.2478 42.8388 77.3198 44.5207 89.2252 58.5257Z" stroke="#424E8E"/>
<path d="M45.72 49.732C63.0006 39.8634 85.2913 45.6925 95.3331 62.6892C95.2453 62.5311 95.1584 62.37 95.0687 62.213C85.1563 44.8513 62.9798 38.8516 45.5396 48.8114C28.0993 58.7712 21.998 80.9199 31.9123 98.2805C32.0031 98.4394 32.0966 98.5943 32.1881 98.7502C22.6538 81.4637 28.4375 59.6018 45.72 49.732Z" fill="#FCFCFC"/>
<path d="M117.074 95.0304C117.076 94.2356 117.805 93.9577 117.805 93.9577C117.805 93.9577 118.191 83.9868 118.142 83.2426C118.044 81.8036 117.112 81.3906 117.112 81.3906L120.429 81.515C120.429 81.515 119.518 82.0922 119.485 83.2635C119.378 87.071 119.446 94.0282 119.446 94.0282C119.446 94.0282 120.217 94.4344 120.216 95.0364L117.074 95.0304Z" fill="#EAEAEA"/>
<path d="M118.848 81.814C120.793 81.8442 123.996 80.1587 124.056 76.3334C124.132 71.4479 121.024 67.147 119.077 67.1167C117.13 67.0864 113.892 71.2886 113.816 76.1742C113.756 79.9995 116.903 81.7837 118.848 81.814Z" fill="#EAEAEA"/>
<g style="mix-blend-mode:multiply">
<path d="M114.588 76.7255C114.641 73.3457 116.042 70.2761 117.55 68.56C118.205 67.8139 118.334 67.2418 117.926 67.4904C116.068 68.6205 113.878 72.1663 113.816 76.1737C113.784 78.2213 114.671 79.6854 115.802 80.6071C115.066 79.6551 114.563 78.3683 114.588 76.7255Z" fill="#DCDDDE"/>
</g>
<g style="mix-blend-mode:soft-light">
<path d="M123.473 75.076C123.535 71.0922 120.766 67.5829 119.034 67.5559C118.188 67.5428 120.127 68.9419 121.405 71.1791C122.744 73.5222 123.448 76.6738 123.473 75.076Z" fill="white"/>
</g>
<path d="M120.229 94.9534C121.025 102.395 120.812 117.609 120.795 118.74C120.772 120.239 119.625 121.436 118.233 121.415C116.841 121.393 115.735 120.161 115.758 118.662C115.775 117.531 116.036 102.318 117.061 94.9042L120.229 94.9534Z" fill="#424E8E"/>
<g style="mix-blend-mode:multiply">
<path d="M118.073 98.1614C118.047 99.8621 118.085 103.085 117.86 104.778C117.473 107.703 117.151 110.663 117.202 113.622C117.247 116.299 117.592 118.973 118.415 121.405C118.355 121.408 118.297 121.414 118.235 121.413C116.845 121.391 115.736 120.159 115.759 118.66C115.777 117.529 116.037 102.316 117.063 94.9022L119.612 94.9419C119.65 95.2981 118.118 95.2443 118.073 98.1614Z" fill="#E5CFCB"/>
</g>
<g style="mix-blend-mode:multiply">
<path d="M116.184 115.885C116.382 117.682 116.819 119.488 117.39 121.241C116.421 120.851 115.739 119.84 115.758 118.662C115.763 118.283 115.867 116.318 116.039 113.593C116.055 114.364 116.099 115.13 116.184 115.885Z" fill="#E5CFCB"/>
</g>
<g style="mix-blend-mode:soft-light">
<path d="M120.437 115.729C120.503 111.473 119.787 105.061 119.073 105.049C118.358 105.038 117.724 108.48 117.658 112.733C117.591 116.987 118.117 120.447 118.833 120.458C119.55 120.469 120.371 119.983 120.437 115.727L120.437 115.729Z" fill="#FFF9BA"/>
</g>
<path d="M55.4282 30.0908L56.4531 33.4724C56.4531 33.4724 54.6892 32.9254 53.5968 33.243C50.0516 34.2702 43.6501 36.3902 43.6501 36.3902C43.6501 36.3902 43.5037 37.2216 42.9486 37.3988C42.1501 37.652 41.2973 37.2089 41.043 36.4068C40.7888 35.6047 41.228 34.7498 42.0264 34.4965C42.7613 34.2626 43.2313 34.8532 43.2313 34.8532C43.2313 34.8532 52.5479 32.2634 53.2192 31.997C54.5201 31.4813 55.4282 30.0908 55.4282 30.0908Z" fill="#EAEAEA"/>
<g style="mix-blend-mode:multiply">
<path d="M45.1135 34.6398C47.0823 33.9352 49.9632 33.3746 51.9836 32.8478C52.9502 32.5953 53.9159 32.2959 54.5509 31.4738C54.7951 31.157 55.0593 30.7733 55.2217 30.3711C54.885 30.8037 54.1537 31.6257 53.2187 31.9968C52.5473 32.2632 43.2307 34.8529 43.2307 34.8529C43.2307 34.8529 42.7607 34.2623 42.0259 34.4963C41.2274 34.7495 40.7882 35.6044 41.0425 36.4065C41.2292 36.9931 41.7349 37.384 42.3066 37.4535C42.1782 35.6194 43.6804 35.1551 45.1141 34.6419L45.1135 34.6398Z" fill="#DEDFE0"/>
</g>
<path d="M70.2375 29.7915L60.7234 32.6749C60.459 32.7551 60.1882 32.637 60.1189 32.4084C60.0496 32.1798 60.2093 31.9313 60.4738 31.8511L69.9879 28.9677C70.5578 28.795 70.2443 27.8197 69.6908 27.9874L60.1767 30.8709C59.9122 30.951 59.6414 30.833 59.5721 30.6044C59.5029 30.3758 59.599 30.6929 59.5303 30.4664C59.4617 30.2398 59.6208 29.9893 59.8852 29.9091L69.3993 27.0257C69.9344 26.8635 69.6721 25.8727 69.1022 26.0454L59.5881 28.9288C59.3237 29.009 59.0522 28.8889 58.9836 28.6623C58.9149 28.4358 59.074 28.1852 59.3384 28.1051L68.8525 25.2216C69.5086 25.0228 69.1645 23.9466 68.5249 24.1404L59.1379 26.9853C55.659 28.0397 56.016 29.8158 53.969 32.0866C53.397 32.26 53.5699 32.8304 54.1419 32.6571C57.1058 33.4116 57.6993 34.7719 61.1782 33.7176L70.5652 30.8727C70.9383 30.7596 70.791 29.6237 70.2375 29.7915Z" fill="#EAEAEA"/>
<path d="M43.0886 37.3969C36.2431 40.4227 21.6888 44.8585 20.6064 45.1865C19.1714 45.6214 17.6819 44.8946 17.2787 43.5642C16.8755 42.2338 17.7108 40.8024 19.1459 40.3675C20.2283 40.0394 34.7964 35.649 42.1698 34.3655L43.0886 37.3969Z" fill="#424E8E"/>
<g style="mix-blend-mode:multiply">
<path d="M39.3753 36.3202C37.7476 36.8135 34.6906 37.8344 33.0089 38.135C30.1032 38.6581 27.1882 39.2537 24.3852 40.2044C21.8497 41.0628 19.4077 42.2076 17.3423 43.7308C17.3207 43.6743 17.2991 43.6179 17.2817 43.5603C16.8785 42.2299 17.7138 40.7985 19.1488 40.3635C20.2312 40.0355 34.7993 35.6451 42.1727 34.3616L42.9124 36.802C42.5845 36.9463 42.1688 35.4713 39.3767 36.3175L39.3753 36.3202Z" fill="#E5CFCB"/>
</g>
<g style="mix-blend-mode:multiply">
<path d="M21.9191 39.9243C20.2688 40.6606 18.6816 41.6273 17.1864 42.7055C17.2624 41.6639 18.0176 40.7065 19.1451 40.3648C19.5079 40.2548 21.4111 39.7545 24.0582 39.0871C23.3283 39.3376 22.6127 39.6129 21.9191 39.9243Z" fill="#E5CFCB"/>
</g>
<g style="mix-blend-mode:soft-light">
<path d="M23.3649 43.9272C27.4383 42.6927 33.3251 40.0563 33.1179 39.3726C32.9107 38.6889 29.4396 39.1337 25.3683 40.3676C21.297 41.6015 18.1629 43.1585 18.3701 43.8422C18.5774 44.5259 19.2916 45.1617 23.3649 43.9272Z" fill="#FFF9BA"/>
</g>
</svg>
