<svg width="332" height="224" viewBox="0 0 332 224" fill="none" xmlns="http://www.w3.org/2000/svg">
<rect x="0.757812" y="0.183594" width="330.439" height="223.551" fill="white"/>
<rect x="0.757812" y="28.4521" width="14.5" height="330.439" transform="rotate(-90 0.757812 28.4521)" fill="#D84949" fill-opacity="0.15"/>
<rect x="0.757812" y="57.1123" width="14.5" height="330.439" transform="rotate(-90 0.757812 57.1123)" fill="#D84949" fill-opacity="0.15"/>
<rect x="0.757812" y="85.7734" width="14.5" height="330.439" transform="rotate(-90 0.757812 85.7734)" fill="#D84949" fill-opacity="0.15"/>
<rect x="0.757812" y="114.434" width="14.5" height="330.439" transform="rotate(-90 0.757812 114.434)" fill="#D84949" fill-opacity="0.15"/>
<rect x="0.757812" y="143.094" width="14.5" height="330.439" transform="rotate(-90 0.757812 143.094)" fill="#D84949" fill-opacity="0.15"/>
<rect x="0.757812" y="171.754" width="14.5" height="330.439" transform="rotate(-90 0.757812 171.754)" fill="#D84949" fill-opacity="0.15"/>
<rect x="0.757812" y="200.415" width="14.5" height="330.439" transform="rotate(-90 0.757812 200.415)" fill="#D84949" fill-opacity="0.15"/>
<rect x="0.757812" y="223.736" width="9.1607" height="330.439" transform="rotate(-90 0.757812 223.736)" fill="#D84949" fill-opacity="0.15"/>
<rect x="16.4727" y="0.18457" width="14.2643" height="223.551" fill="#D84949" fill-opacity="0.15"/>
<rect x="46.5479" y="0.18457" width="14.2643" height="223.551" fill="#D84949" fill-opacity="0.15"/>
<rect x="76.623" y="0.18457" width="14.2643" height="223.551" fill="#D84949" fill-opacity="0.15"/>
<rect x="106.697" y="0.18457" width="14.2643" height="223.551" fill="#D84949" fill-opacity="0.15"/>
<rect x="136.772" y="0.18457" width="14.2643" height="223.551" fill="#D84949" fill-opacity="0.15"/>
<rect x="166.848" y="0.18457" width="14.2643" height="223.551" fill="#D84949" fill-opacity="0.15"/>
<rect x="196.923" y="0.18457" width="14.2643" height="223.551" fill="#D84949" fill-opacity="0.15"/>
<rect x="226.998" y="0.18457" width="14.2643" height="223.551" fill="#D84949" fill-opacity="0.15"/>
<rect x="257.073" y="0.18457" width="14.2643" height="223.551" fill="#D84949" fill-opacity="0.15"/>
<rect x="287.148" y="0.18457" width="14.2643" height="223.551" fill="#D84949" fill-opacity="0.15"/>
<rect x="317.223" y="0.18457" width="14.2643" height="223.551" fill="#D84949" fill-opacity="0.15"/>
<g filter="url(#filter0_d_1265_14310)">
<path d="M266.203 111.914C266.203 167.156 221.213 211.94 165.718 211.94C110.223 211.94 65.2324 167.156 65.2324 111.914C65.2324 56.6722 110.223 11.8877 165.718 11.8877C221.213 11.8877 266.203 56.6722 266.203 111.914Z" fill="#EAEAEA"/>
<path d="M165.585 209.706C111.202 209.706 67.0528 162.296 65.2929 108.596C65.2566 109.697 65.2324 110.805 65.2324 111.913C65.2324 167.155 110.223 211.939 165.718 211.939C221.213 211.939 266.203 167.155 266.203 111.913C266.203 110.799 266.179 109.697 266.143 108.596C264.383 162.302 219.967 209.706 165.591 209.706H165.585Z" fill="#D3D3D3"/>
<path d="M257.805 94.8968C267.272 145.297 233.901 193.798 183.264 203.222C132.627 212.646 83.9061 179.423 74.4397 129.023C64.9734 78.6225 98.3445 30.1222 148.982 20.6982C199.619 11.2741 248.339 44.4963 257.805 94.8968Z" stroke="#424E8E"/>
<path d="M164.598 14.344C219.586 14.344 265.084 58.8756 265.888 113.419C265.894 112.919 265.906 112.414 265.906 111.914C265.912 56.6722 220.922 11.8877 165.427 11.8877C109.932 11.8877 64.9414 56.6722 64.9414 111.914C64.9414 112.42 64.9535 112.919 64.9595 113.419C65.77 58.8756 109.605 14.344 164.598 14.344Z" fill="#FCFCFC"/>
<path d="M280.623 114.14C280.594 111.944 282.597 111.145 282.597 111.145C282.597 111.145 283.234 83.5806 283.067 81.5267C282.734 77.555 280.142 76.4541 280.142 76.4541L289.311 76.6553C289.311 76.6553 286.819 78.289 286.778 81.5267C286.647 92.0506 287.134 111.27 287.134 111.27C287.134 111.27 289.281 112.359 289.305 114.022L280.623 114.14Z" fill="#EAEAEA"/>
<path d="M284.958 77.5497C290.333 77.5497 299.11 72.7553 299.11 62.184C299.11 48.6828 290.339 36.9336 284.958 36.9336C279.577 36.9336 270.812 48.6828 270.812 62.184C270.812 72.7553 279.583 77.5497 284.958 77.5497Z" fill="#EAEAEA"/>
<g style="mix-blend-mode:multiply">
<path d="M272.97 63.6751C272.97 54.3349 276.711 45.7938 280.802 40.9876C282.579 38.8982 282.912 37.3119 281.795 38.0163C276.711 41.2185 270.812 51.1091 270.812 62.1835C270.812 67.8421 273.327 71.8492 276.491 74.347C274.415 71.7486 272.97 68.2149 272.97 63.6751Z" fill="#DCDDDE"/>
</g>
<g style="mix-blend-mode:soft-light">
<path d="M297.445 58.7337C297.445 47.7244 289.644 38.1475 284.857 38.1475C282.52 38.1475 287.937 41.9297 291.564 48.0558C295.364 54.472 297.445 63.1493 297.445 58.7337Z" fill="white"/>
</g>
<path d="M289.335 113.792C291.856 134.319 291.921 176.362 291.921 179.487C291.921 183.63 288.806 186.986 284.958 186.986C281.111 186.986 278.001 183.63 278.001 179.487C278.001 176.362 278.067 134.319 280.582 113.792H289.335Z" fill="#424E8E"/>
<g style="mix-blend-mode:multiply">
<path d="M283.519 122.747C283.519 127.447 283.763 136.349 283.216 141.037C282.27 149.134 281.509 157.326 281.777 165.5C282.015 172.893 283.085 180.268 285.463 186.951C285.297 186.963 285.136 186.98 284.964 186.98C281.123 186.98 278.007 183.624 278.007 179.481C278.007 176.356 278.072 134.313 280.587 113.786H287.634C287.753 114.769 283.519 114.686 283.519 122.747Z" fill="#E5CFCB"/>
</g>
<g style="mix-blend-mode:multiply">
<path d="M279.06 171.797C279.684 176.751 280.969 181.723 282.622 186.541C279.928 185.505 278.001 182.741 278.001 179.486C278.001 178.438 278.204 173.005 278.56 165.47C278.638 167.601 278.792 169.714 279.06 171.797Z" fill="#E5CFCB"/>
</g>
<g style="mix-blend-mode:soft-light">
<path d="M290.803 171.182C290.803 159.421 288.55 141.735 286.576 141.735C284.602 141.735 282.996 151.271 282.996 163.026C282.996 174.781 284.596 184.317 286.576 184.317C288.556 184.317 290.803 182.937 290.803 171.176V171.182Z" fill="#FFF9BA"/>
</g>
<path d="M41.374 76.5225H51.1376C51.1376 76.5225 48.2775 80.7486 48.2418 83.8916C48.117 94.09 48.5927 112.717 48.5927 112.717C48.5927 112.717 50.6738 113.771 50.6976 115.381C50.7273 117.695 48.8721 119.595 46.5472 119.625C44.2222 119.654 42.3135 117.807 42.2838 115.493C42.2541 113.362 44.1925 112.593 44.1925 112.593C44.1925 112.593 44.8109 85.8804 44.6444 83.8916C44.3233 80.0383 41.374 76.5225 41.374 76.5225Z" fill="#EAEAEA"/>
<g style="mix-blend-mode:multiply">
<path d="M45.1383 107.443C44.8529 101.672 45.6794 93.6047 45.9054 87.8396C46.0124 85.0814 45.9946 82.2876 44.3296 79.9496C43.6875 79.0499 42.8847 78.0437 41.9512 77.292C42.8253 78.5291 44.4129 81.1216 44.6448 83.8917C44.8113 85.8804 44.1929 112.593 44.1929 112.593C44.1929 112.593 42.2544 113.362 42.2842 115.493C42.3139 117.807 44.2226 119.654 46.5476 119.625C48.2482 119.601 49.6871 118.577 50.3293 117.121C45.3762 115.99 45.3524 111.646 45.1443 107.443H45.1383Z" fill="#DEDFE0"/>
</g>
<path d="M52.452 37.1197V64.5897C52.452 65.3532 51.9228 65.9747 51.2628 65.9747C50.6028 65.9747 50.0736 65.3532 50.0736 64.5897V37.1197C50.0736 35.4742 47.2432 35.5215 47.2432 37.1197V64.5897C47.2432 65.3532 46.714 65.9747 46.0539 65.9747C45.3939 65.9747 46.3096 65.9747 45.6556 65.9747C45.0015 65.9747 44.4663 65.3532 44.4663 64.5897V37.1197C44.4663 35.5748 41.6359 35.4742 41.6359 37.1197V64.5897C41.6359 65.3532 41.1008 65.9747 40.4467 65.9747C39.7926 65.9747 39.2575 65.3532 39.2575 64.5897V37.1197C39.2575 35.2256 36.1357 35.2729 36.1357 37.1197V64.2227C36.1357 74.2672 41.1186 74.7466 45.4831 81.9796C45.4831 83.631 47.1302 83.631 47.1302 81.9796C51.5006 74.7466 55.5738 74.2672 55.5738 64.2227V37.1197C55.5738 36.0424 52.452 35.5215 52.452 37.1197Z" fill="#EAEAEA"/>
<path d="M50.8041 115.008C53.3193 135.535 53.3847 177.577 53.3847 180.703C53.3847 184.846 50.2689 188.202 46.4277 188.202C42.5865 188.202 39.4707 184.846 39.4707 180.703C39.4707 177.577 39.5361 135.535 42.0513 115.008H50.8041Z" fill="#424E8E"/>
<g style="mix-blend-mode:multiply">
<path d="M44.9839 123.964C44.9839 128.664 45.2336 137.566 44.6806 142.254C43.7352 150.357 42.9741 158.543 43.2416 166.717C43.4795 174.11 44.5498 181.485 46.9223 188.168C46.7558 188.179 46.5893 188.191 46.4228 188.191C42.5816 188.191 39.4658 184.835 39.4658 180.692C39.4658 177.567 39.5312 135.524 42.0465 114.997H49.0927C49.2116 115.98 44.9779 115.897 44.9779 123.958L44.9839 123.964Z" fill="#E5CFCB"/>
</g>
<g style="mix-blend-mode:multiply">
<path d="M40.5242 173.015C41.1486 177.969 42.433 182.941 44.086 187.759C41.3924 186.723 39.4658 183.959 39.4658 180.704C39.4658 179.656 39.668 174.222 40.0248 166.688C40.1021 168.818 40.2567 170.931 40.5242 173.015Z" fill="#E5CFCB"/>
</g>
<g style="mix-blend-mode:soft-light">
<path d="M52.2673 172.398C52.2673 160.637 50.0137 142.957 48.0396 142.957C46.0654 142.957 44.46 152.493 44.46 164.248C44.46 176.003 46.0654 185.538 48.0396 185.538C50.0137 185.538 52.2673 184.159 52.2673 172.398Z" fill="#FFF9BA"/>
</g>
</g>
<defs>
<filter id="filter0_d_1265_14310" x="35.1357" y="11.8877" width="266.974" height="204.053" filterUnits="userSpaceOnUse" color-interpolation-filters="sRGB">
<feFlood flood-opacity="0" result="BackgroundImageFix"/>
<feColorMatrix in="SourceAlpha" type="matrix" values="0 0 0 0 0 0 0 0 0 0 0 0 0 0 0 0 0 0 127 0" result="hardAlpha"/>
<feOffset dx="1" dy="2"/>
<feGaussianBlur stdDeviation="1"/>
<feComposite in2="hardAlpha" operator="out"/>
<feColorMatrix type="matrix" values="0 0 0 0 0 0 0 0 0 0 0 0 0 0 0 0 0 0 0.5 0"/>
<feBlend mode="normal" in2="BackgroundImageFix" result="effect1_dropShadow_1265_14310"/>
<feBlend mode="normal" in="SourceGraphic" in2="effect1_dropShadow_1265_14310" result="shape"/>
</filter>
</defs>
</svg>
