<svg width="332" height="61" viewBox="0 0 332 61" fill="none" xmlns="http://www.w3.org/2000/svg">
<g filter="url(#filter0_d_1280_14287)">
<path d="M24.0512 39.9268H11.9355V50.8482H24.0512V39.9268Z" fill="#C18E59"/>
<path d="M24.0504 51.1972H11.9347C11.9347 51.1972 11.5059 51.0581 11.5059 50.9189V39.9279C11.5059 39.9279 11.7203 39.5801 11.9347 39.5801H24.0504C24.0504 39.5801 24.5865 39.7192 24.5865 39.9279V50.8494C24.5865 50.8494 24.3721 51.1276 24.0504 51.1276V51.1972ZM12.3636 50.5711H23.5143V40.2757H12.3636V50.5711Z" fill="#A57D4F"/>
<g style="mix-blend-mode:multiply" opacity="0.4">
<path d="M24.0512 39.9258H11.9355V48.0647H24.0512V39.9258Z" fill="#C18E59"/>
</g>
<path d="M318.624 39.9268H306.509V50.8482H318.624V39.9268Z" fill="#C18E59"/>
<path d="M318.734 51.1972H306.618C306.618 51.1972 306.189 51.0581 306.189 50.9189V39.9279C306.189 39.9279 306.403 39.5801 306.618 39.5801H318.734C318.734 39.5801 319.162 39.7192 319.162 39.9279V50.8494C319.162 50.8494 318.948 51.1276 318.734 51.1276V51.1972ZM307.047 50.5711H318.197V40.2757H307.047V50.5711Z" fill="#A57D4F"/>
<g style="mix-blend-mode:multiply" opacity="0.4">
<path d="M318.624 39.9258H306.509V48.0647H318.624V39.9258Z" fill="#C18E59"/>
</g>
<path d="M329.16 36.4482H3.22559V41.3177H329.16V36.4482Z" fill="#966E43"/>
<path d="M329.163 41.6654H3.22884C3.22884 41.6654 2.49805 41.5263 2.49805 41.3176V36.4482C2.49805 36.4482 2.79036 36.1699 3.22884 36.1699H329.163C329.163 36.1699 329.748 36.309 329.748 36.4482V41.3176C329.748 41.3176 329.456 41.6654 329.163 41.6654ZM3.81348 41.0394H328.433V36.796H3.81348V41.0394Z" fill="#8A6941"/>
<path d="M329.16 40.2734H3.22559V45.1429H329.16V40.2734Z" fill="#C18E59"/>
<path d="M329.163 45.4223H3.22884C3.22884 45.4223 2.49805 45.2831 2.49805 45.0745V40.205C2.49805 40.205 2.79036 39.9268 3.22884 39.9268H329.163C329.163 39.9268 329.748 40.0659 329.748 40.205V45.0745C329.748 45.0745 329.456 45.4223 329.163 45.4223ZM3.81348 44.7962H328.433V40.5528H3.81348V44.7962Z" fill="#A57D4F"/>
<g style="mix-blend-mode:screen">
<path d="M329.16 40.2734H3.22559V41.3865H329.16V40.2734Z" fill="#C18E59"/>
</g>
</g>
<g filter="url(#filter1_d_1280_14287)">
<rect x="35.793" y="58.8789" width="18.5513" height="61.0386" transform="rotate(-90 35.793 58.8789)" fill="#F19420"/>
<rect x="36.293" y="58.3789" width="17.5513" height="60.0386" transform="rotate(-90 36.293 58.3789)" stroke="#F9B868"/>
</g>
<path d="M52.918 54.5723V47.1484C53.2031 47.0859 53.6387 47.0293 54.2246 46.9785C54.8145 46.9238 55.375 46.8965 55.9062 46.8965C56.9922 46.8965 57.7715 47.0723 58.2441 47.4238C58.7207 47.7754 58.959 48.3398 58.959 49.1172V54.5723H52.918ZM57.166 53.207V49.1172C57.166 48.7617 57.0273 48.5293 56.75 48.4199C56.5078 48.3223 56.1504 48.2734 55.6777 48.2734C55.4082 48.2734 55.0859 48.2871 54.7109 48.3145V53.207H57.166ZM60.7285 52.0176V47.0137H62.5156V50.5059L61.3262 52.0176H60.7285ZM64.2207 47.002C64.5527 46.9316 64.9082 46.8965 65.2871 46.8965C65.666 46.8965 65.9883 46.9375 66.2539 47.0195C66.5234 47.0977 66.7422 47.2051 66.9102 47.3418C67.0781 47.4785 67.2129 47.6504 67.3145 47.8574C67.4941 48.2168 67.584 48.6816 67.584 49.252V52.3281C67.584 52.6953 67.5586 53.0664 67.5078 53.4414C67.4609 53.8125 67.4141 54.0938 67.3672 54.2852L67.291 54.5723H63.875V53.207H65.6914C65.7617 52.9062 65.7969 52.457 65.7969 51.8594V49.252C65.7969 48.8027 65.6875 48.5156 65.4688 48.3906C65.3711 48.3359 65.25 48.3086 65.1055 48.3086C64.8086 48.3086 64.5137 48.3418 64.2207 48.4082V47.002ZM70.7715 54.2676C70.6348 54.373 70.4512 54.4707 70.2207 54.5605C69.9902 54.6465 69.7734 54.6895 69.5703 54.6895C69.3672 54.6895 69.1445 54.668 68.9023 54.625L69.0312 52.9668C69.0391 52.9746 69.0879 52.9863 69.1777 53.002C69.2715 53.0137 69.3633 53.0195 69.4531 53.0195C69.5469 53.0195 69.668 53.0176 69.8164 53.0137C69.9688 53.0059 70.1543 52.9668 70.373 52.8965C70.6816 52.7988 70.9258 52.6133 71.1055 52.3398C71.2852 52.0664 71.375 51.748 71.375 51.3848V49.252C71.375 48.8027 71.2656 48.5156 71.0469 48.3906C70.9492 48.3359 70.8242 48.3086 70.6719 48.3086C70.3398 48.3086 70.0469 48.3418 69.793 48.4082L69.6582 48.4434V47.0312C70.002 46.9414 70.3906 46.8965 70.8242 46.8965C71.2578 46.8965 71.6133 46.9375 71.8906 47.0195C72.168 47.1016 72.3867 47.209 72.5469 47.3418C72.7109 47.4707 72.8398 47.6426 72.9336 47.8574C73.0273 48.0684 73.0879 48.2812 73.1152 48.4961C73.1465 48.707 73.1621 48.959 73.1621 49.252V54.5723H71.8086L71.5449 53.4707H71.457C71.3984 53.5879 71.3047 53.7227 71.1758 53.875C71.0469 54.0273 70.9121 54.1582 70.7715 54.2676ZM80.3633 47.0137V48.3086C80.1992 48.3711 80.0273 48.4629 79.8477 48.584C79.6523 48.7285 79.5176 48.9004 79.4434 49.0996C79.3691 49.2988 79.332 49.5586 79.332 49.8789V54.5723H77.5449V49.8379C77.5449 49.623 77.5742 49.4277 77.6328 49.252C77.6953 49.0762 77.7695 48.9395 77.8555 48.8418C78.0312 48.6387 78.1914 48.5098 78.3359 48.4551L78.4297 48.4199V48.3789H74.3223V47.0137H80.3633Z" fill="white"/>
<circle cx="38.0391" cy="42.6602" r="0.59375" fill="#181818"/>
<circle cx="94.4141" cy="42.6602" r="0.59375" fill="#181818"/>
<g filter="url(#filter2_d_1280_14287)">
<rect x="204.405" y="58.8789" width="18.5513" height="61.0386" transform="rotate(-90 204.405 58.8789)" fill="#8113B5"/>
<rect x="204.905" y="58.3789" width="17.5513" height="60.0386" transform="rotate(-90 204.905 58.3789)" stroke="#A24ECA"/>
</g>
<path d="M215.096 54.5723V47.1484C215.381 47.0859 215.816 47.0293 216.402 46.9785C216.992 46.9238 217.553 46.8965 218.084 46.8965C219.17 46.8965 219.949 47.0723 220.422 47.4238C220.898 47.7754 221.137 48.3398 221.137 49.1172V54.5723H215.096ZM219.344 53.207V49.1172C219.344 48.7617 219.205 48.5293 218.928 48.4199C218.686 48.3223 218.328 48.2734 217.855 48.2734C217.586 48.2734 217.264 48.2871 216.889 48.3145V53.207H219.344ZM222.906 52.0176V47.0137H224.693V50.5059L223.504 52.0176H222.906ZM226.398 47.002C226.73 46.9316 227.086 46.8965 227.465 46.8965C227.844 46.8965 228.166 46.9375 228.432 47.0195C228.701 47.0977 228.92 47.2051 229.088 47.3418C229.256 47.4785 229.391 47.6504 229.492 47.8574C229.672 48.2168 229.762 48.6816 229.762 49.252V52.3281C229.762 52.6953 229.736 53.0664 229.686 53.4414C229.639 53.8125 229.592 54.0938 229.545 54.2852L229.469 54.5723H226.053V53.207H227.869C227.939 52.9062 227.975 52.457 227.975 51.8594V49.252C227.975 48.8027 227.865 48.5156 227.646 48.3906C227.549 48.3359 227.428 48.3086 227.283 48.3086C226.986 48.3086 226.691 48.3418 226.398 48.4082V47.002ZM233.395 54.5723H231.607V47.0137H233.395V54.5723ZM237.068 46.8965C238.338 46.8965 239.178 47.1406 239.588 47.6289C239.807 47.8906 239.947 48.1777 240.01 48.4902C240.08 48.8223 240.115 49.2031 240.115 49.6328V53.207H240.982V54.5723H234.936V53.207H238.328V49.627C238.328 48.7246 237.832 48.2734 236.84 48.2734C236.336 48.2734 235.797 48.3086 235.223 48.3789L234.936 48.4141V47.002C235.51 46.9316 236.221 46.8965 237.068 46.8965ZM243.461 47.0137H247.439V48.1738L246.414 51.7656L245.781 54.5723H244.041L244.674 51.7656L245.641 48.3789H241.674V45.4551H243.461V47.0137ZM248.74 54.5723V47.1484C249.025 47.0859 249.461 47.0293 250.047 46.9785C250.637 46.9238 251.174 46.8965 251.658 46.8965C252.143 46.8965 252.549 46.9238 252.877 46.9785C253.205 47.0332 253.48 47.1172 253.703 47.2305C253.926 47.3438 254.107 47.4746 254.248 47.623C254.393 47.7676 254.504 47.9492 254.582 48.168C254.66 48.3867 254.713 48.6094 254.74 48.8359C254.768 49.0586 254.781 49.3242 254.781 49.6328V54.5723H252.988V49.627C252.988 48.7246 252.492 48.2734 251.5 48.2734C251.23 48.2734 250.908 48.2871 250.533 48.3145V54.5723H248.74Z" fill="white"/>
<circle cx="206.651" cy="42.6602" r="0.59375" fill="#181818"/>
<circle cx="263.026" cy="42.6602" r="0.59375" fill="#181818"/>
<path d="M13.0291 16.7266L13.3565 26.2816L11.5674 31.1874L13.7002 36.3145L114.775 36.4472L116.433 28.9056L111.275 11.1836L13.0291 16.7266Z" fill="#E0BD9D"/>
<path d="M13.3567 26.2823C13.3567 26.2823 47.4644 31.8873 63.7394 32.1041C80.0145 32.3209 106.395 30.374 106.395 30.374C106.395 30.374 102.178 36.4642 102.611 36.448C103.043 36.4332 114.776 36.448 114.776 36.448L116.435 28.9049L113.177 17.7112L13.0293 16.1152L13.3567 26.2823Z" fill="#C4A58C"/>
<path d="M10.1547 1.63955C10.1547 1.63955 24.0417 11.8229 54.335 11.4704C84.6298 11.1178 113.475 0.163086 113.475 0.163086L118.712 17.8202C118.712 17.8202 108.057 29.5036 73.8963 29.1687C39.7356 28.8339 10.7048 23.3101 10.1547 22.2142C9.60451 21.1183 10.1547 1.63955 10.1547 1.63955Z" fill="#EBCFA8"/>
<path opacity="0.21" d="M15.0335 11.2178C15.4672 11.4656 15.92 11.8181 15.9628 12.3152C16.0321 13.0954 15.1235 13.5365 14.5969 14.1161C13.5586 15.2563 14.0778 17.2107 15.2592 18.2019C16.4407 19.193 18.044 19.4762 19.5662 19.724C28.6949 21.2094 37.8251 22.6932 46.9538 24.1785C54.342 25.3806 62.6816 26.3615 68.6243 21.8112C68.8972 21.6032 69.176 21.3613 69.263 21.0294C69.4724 20.2255 68.496 19.6591 67.698 19.4246C56.761 16.2195 44.9965 17.3773 33.85 14.9967C33.0033 14.8153 32.1228 14.5955 31.4738 14.0232C31.0888 13.684 30.81 13.2415 30.4324 12.8948C29.8469 12.355 29.071 12.0821 28.3173 11.8225C24.0089 10.3372 19.6916 8.5097 15.3197 7.25596C14.091 6.90344 12.7709 6.17775 12.1204 7.74123C11.2989 9.71477 13.9244 10.3874 15.0335 11.2193V11.2178Z" fill="white"/>
<path opacity="0.21" d="M83.2483 12.4097C82.1775 12.7489 80.8559 13.541 81.1892 14.6133C83.8619 15.8907 86.98 14.7254 89.8636 14.0514C96.9716 12.3876 104.841 13.78 111.332 10.4421C112.354 9.91549 113.462 8.93167 113.123 7.83428C113.014 7.48175 112.764 7.19118 112.505 6.92863C109.189 3.59073 103.416 6.67641 99.4791 7.7089C94.0305 9.13817 88.6187 10.7046 83.2513 12.4097H83.2483Z" fill="white"/>
<path d="M11.5674 31.1875L37.4608 33.1876L12.7621 34.0593L11.5674 31.1875Z" fill="#C4A58C"/>
<path d="M151.527 17.5147L151.812 27.0697L150.254 31.9755L152.111 37.1025L240.132 37.2353L241.576 29.6937L237.084 11.9717L151.527 17.5147Z" fill="#E0BD9D"/>
<path d="M151.813 27.0704C151.813 27.0704 181.515 32.6754 195.688 32.8922C209.861 33.109 232.834 31.162 232.834 31.162C232.834 31.162 229.162 37.2523 229.539 37.236C229.916 37.2213 240.133 37.236 240.133 37.236L241.578 29.693L238.74 18.4993L151.527 16.9033L151.813 27.0704Z" fill="#C4A58C"/>
<path d="M149.023 2.42764C149.023 2.42764 161.117 12.611 187.498 12.2584C213.88 11.9059 238.999 0.951172 238.999 0.951172L243.561 18.6083C243.561 18.6083 234.281 30.2917 204.533 29.9568C174.784 29.622 149.503 24.0982 149.023 23.0023C148.544 21.9063 149.023 2.42764 149.023 2.42764Z" fill="#EBCFA8"/>
<path opacity="0.21" d="M153.273 12.0059C153.65 12.2537 154.045 12.6062 154.082 13.1033C154.142 13.8835 153.351 14.3246 152.893 14.9042C151.988 16.0444 152.44 17.9988 153.469 18.9899C154.498 19.9811 155.894 20.2643 157.22 20.5121C165.17 21.9974 173.121 23.4813 181.07 24.9666C187.504 26.1687 194.767 27.1496 199.942 22.5992C200.18 22.3913 200.423 22.1494 200.498 21.8175C200.681 21.0136 199.83 20.4472 199.135 20.2127C189.611 17.0076 179.366 18.1654 169.659 15.7848C168.922 15.6034 168.155 15.3836 167.59 14.8113C167.254 14.4721 167.012 14.0296 166.683 13.6829C166.173 13.1431 165.497 12.8702 164.841 12.6106C161.089 11.1253 157.329 9.29779 153.522 8.04405C152.452 7.69153 151.302 6.96583 150.736 8.52932C150.021 10.5029 152.307 11.1755 153.273 12.0073V12.0059Z" fill="white"/>
<path opacity="0.21" d="M212.676 13.1978C211.744 13.537 210.593 14.3291 210.883 15.4014C213.211 16.6788 215.926 15.5135 218.437 14.8394C224.627 13.1757 231.48 14.568 237.133 11.2301C238.023 10.7036 238.988 9.71975 238.692 8.62236C238.597 8.26984 238.38 7.97927 238.154 7.71672C235.267 4.37882 230.239 7.4645 226.811 8.49699C222.066 9.92625 217.353 11.4927 212.679 13.1978H212.676Z" fill="white"/>
<path d="M150.254 31.9756L172.803 33.9757L151.294 34.8474L150.254 31.9756Z" fill="#C4A58C"/>
<defs>
<filter id="filter0_d_1280_14287" x="0.498047" y="36.1699" width="331.25" height="21.0273" filterUnits="userSpaceOnUse" color-interpolation-filters="sRGB">
<feFlood flood-opacity="0" result="BackgroundImageFix"/>
<feColorMatrix in="SourceAlpha" type="matrix" values="0 0 0 0 0 0 0 0 0 0 0 0 0 0 0 0 0 0 127 0" result="hardAlpha"/>
<feOffset dy="4"/>
<feGaussianBlur stdDeviation="1"/>
<feComposite in2="hardAlpha" operator="out"/>
<feColorMatrix type="matrix" values="0 0 0 0 0 0 0 0 0 0 0 0 0 0 0 0 0 0 0.25 0"/>
<feBlend mode="normal" in2="BackgroundImageFix" result="effect1_dropShadow_1280_14287"/>
<feBlend mode="normal" in="SourceGraphic" in2="effect1_dropShadow_1280_14287" result="shape"/>
</filter>
<filter id="filter1_d_1280_14287" x="34.793" y="40.3281" width="63.0391" height="20.5508" filterUnits="userSpaceOnUse" color-interpolation-filters="sRGB">
<feFlood flood-opacity="0" result="BackgroundImageFix"/>
<feColorMatrix in="SourceAlpha" type="matrix" values="0 0 0 0 0 0 0 0 0 0 0 0 0 0 0 0 0 0 127 0" result="hardAlpha"/>
<feOffset dy="1"/>
<feGaussianBlur stdDeviation="0.5"/>
<feComposite in2="hardAlpha" operator="out"/>
<feColorMatrix type="matrix" values="0 0 0 0 0 0 0 0 0 0 0 0 0 0 0 0 0 0 0.4 0"/>
<feBlend mode="normal" in2="BackgroundImageFix" result="effect1_dropShadow_1280_14287"/>
<feBlend mode="normal" in="SourceGraphic" in2="effect1_dropShadow_1280_14287" result="shape"/>
</filter>
<filter id="filter2_d_1280_14287" x="203.405" y="40.3281" width="63.0386" height="20.5508" filterUnits="userSpaceOnUse" color-interpolation-filters="sRGB">
<feFlood flood-opacity="0" result="BackgroundImageFix"/>
<feColorMatrix in="SourceAlpha" type="matrix" values="0 0 0 0 0 0 0 0 0 0 0 0 0 0 0 0 0 0 127 0" result="hardAlpha"/>
<feOffset dy="1"/>
<feGaussianBlur stdDeviation="0.5"/>
<feComposite in2="hardAlpha" operator="out"/>
<feColorMatrix type="matrix" values="0 0 0 0 0 0 0 0 0 0 0 0 0 0 0 0 0 0 0.4 0"/>
<feBlend mode="normal" in2="BackgroundImageFix" result="effect1_dropShadow_1280_14287"/>
<feBlend mode="normal" in="SourceGraphic" in2="effect1_dropShadow_1280_14287" result="shape"/>
</filter>
</defs>
</svg>
