<svg width="35" height="31" viewBox="0 0 35 31" fill="none" xmlns="http://www.w3.org/2000/svg">
<path d="M3.55167 6.45795C5.48764 7.30044 7.48064 8.4373 8.99049 9.93829C9.81581 10.7585 10.4786 11.6736 11.0583 12.6791C11.7445 13.87 12.3347 15.3149 13.5066 16.1205C14.3802 16.724 16.1437 16.3456 15.9118 14.9665C15.6415 13.3744 14.7269 11.9397 13.7868 10.6528C12.8963 9.42941 11.892 8.37155 10.6228 7.53958C8.48439 6.12617 6.08983 5.50719 3.58384 6.08122C3.41412 6.11772 3.40214 6.3892 3.55167 6.45795Z" fill="#94C658"/>
<mask id="mask0_1235_16513" style="mask-type:luminance" maskUnits="userSpaceOnUse" x="3" y="5" width="13" height="12">
<path d="M3.55167 6.45795C5.48764 7.30044 7.48064 8.4373 8.99049 9.93829C9.81581 10.7585 10.4786 11.6736 11.0583 12.6791C11.7445 13.87 12.3347 15.3149 13.5066 16.1205C14.3802 16.724 16.1437 16.3456 15.9118 14.9665C15.6415 13.3744 14.7269 11.9397 13.7868 10.6528C12.8963 9.42941 11.892 8.37155 10.6228 7.53958C8.48439 6.12617 6.08983 5.50719 3.58384 6.08122C3.41412 6.11772 3.40214 6.3892 3.55167 6.45795Z" fill="white"/>
</mask>
<g mask="url(#mask0_1235_16513)">
<path d="M2.06096 6.24565C4.406 6.85851 6.88698 6.71957 9.13539 7.76586C9.71232 8.03824 10.2699 8.35133 10.7674 8.7432C11.1472 9.04151 11.4793 9.43451 11.9032 9.66644C12.4209 9.95306 13.2852 10.1675 13.3794 9.34595C13.4991 8.31916 12.4315 7.54083 11.7031 7.04142C10.7896 6.41141 9.79768 5.95129 8.74583 5.62744C7.59756 5.27013 6.39651 5.10743 5.19738 5.04553C4.15479 4.99578 2.82123 4.91727 1.93975 5.59856C1.70128 5.7846 1.75489 6.16475 2.06096 6.24565Z" fill="#A4CF5F"/>
<path d="M0.587182 6.72403C1.58583 6.95511 2.62003 7.30552 3.60112 7.62063C4.61671 7.94719 5.59623 8.39141 6.50516 8.94184C7.49375 9.5452 8.45858 10.2247 9.22738 11.0954C9.83853 11.7886 10.5084 12.7046 11.5015 12.8057C11.6925 12.8293 12.2945 13.2484 12.3472 13.0538C12.6674 11.9153 11.3528 10.2876 10.6478 9.48221C9.74077 8.45075 8.67409 7.66533 7.46792 7.02073C6.37678 6.43343 5.20982 5.99479 3.9734 5.82772C2.70161 5.65628 1.74512 5.83984 0.552 6.25277C0.326636 6.33268 0.343042 6.66513 0.573903 6.7152L0.587182 6.72403Z" fill="#80AF4D"/>
</g>
<path d="M13.4098 1.42585C12.5434 2.1018 12.2166 3.58427 11.9405 4.59891C11.5341 6.08592 11.5363 7.58029 11.5563 9.10558C11.5882 10.9412 11.8888 12.7526 12.749 14.396C13.5514 15.9246 15.1782 17.5837 17.0499 17.3767C18.8632 17.1768 19.6029 15.0845 18.3109 13.7972C17.5307 13.0184 16.4789 12.752 15.7782 11.8538C14.9835 10.8434 14.5429 9.46726 14.183 8.25196C13.8693 7.18602 13.4646 6.15912 13.1959 5.0772C13.0438 4.44785 12.9437 3.7459 13.0586 3.10642C13.1621 2.55892 13.4382 2.06865 13.5347 1.52028C13.5434 1.44952 13.4593 1.37449 13.3957 1.4241L13.4098 1.42585Z" fill="#C0D06E"/>
<mask id="mask1_1235_16513" style="mask-type:luminance" maskUnits="userSpaceOnUse" x="11" y="1" width="8" height="17">
<path d="M13.4093 1.42682C12.5429 2.10278 12.2161 3.58525 11.94 4.59989C11.5337 6.0869 11.5359 7.58127 11.5558 9.10656C11.5877 10.9422 11.8883 12.7536 12.7485 14.397C13.551 15.9256 15.1778 17.5847 17.0494 17.3777C18.8627 17.1778 19.6024 15.0855 18.3104 13.7981C17.5302 13.0194 16.4784 12.753 15.7777 11.8548C14.983 10.8444 14.5424 9.46824 14.1825 8.25293C13.8688 7.187 13.4641 6.1601 13.1954 5.07818C13.0433 4.44882 12.9432 3.74688 13.0581 3.1074C13.1617 2.5599 13.4377 2.06963 13.5342 1.52125C13.5429 1.4505 13.4588 1.37546 13.3952 1.42508L13.4093 1.42682Z" fill="white"/>
</mask>
<g mask="url(#mask1_1235_16513)">
<path d="M16.1989 12.1719C15.9729 10.0465 15.2297 7.97931 14.7271 5.88439C14.4859 4.87052 14.3802 3.92365 14.6572 2.90194C14.8991 1.99081 15.538 1.17902 15.4783 0.209087C15.4412 -0.362965 14.8165 -0.655618 14.3421 -0.362235C13.456 0.181996 13.112 1.39658 12.8499 2.35548C12.5421 3.50987 12.5685 4.63371 12.8267 5.80054C13.1151 7.12913 13.522 8.42925 14.05 9.67968C14.5185 10.7719 14.8993 11.7599 15.9568 12.3287C16.0648 12.3852 16.2123 12.2956 16.1989 12.1719Z" fill="#AEBA55"/>
<g opacity="0.56">
<path d="M14.0007 14.7306C14.0044 13.5961 13.4758 12.5251 13.14 11.4637C12.7544 10.2236 12.4881 8.94807 12.396 7.65809C12.321 6.57854 12.3752 5.50057 12.592 4.44269C12.8132 3.34944 13.3539 2.40338 13.6565 1.34892C13.8879 0.522691 12.7438 0.0150587 12.2097 0.617131C10.6975 2.33391 10.4394 5.41234 10.5585 7.58917C10.6313 8.97733 10.9207 10.3563 11.347 11.6732C11.7299 12.877 12.2015 14.2929 13.2285 15.1093C13.5489 15.3644 13.9996 15.1471 14.0069 14.7385L14.0007 14.7306Z" fill="#94C653"/>
</g>
</g>
<path d="M28.5492 16.1673C28.8285 16.0581 29.098 15.9118 29.2913 15.6843C29.6188 15.3009 29.679 14.7552 29.6411 14.2477C29.6042 13.7906 29.4965 13.3248 29.2103 12.9662C28.8542 12.5343 28.2969 12.3362 27.7555 12.1832C26.908 11.9492 26.3752 12.1923 25.7819 12.8086C25.3705 13.2318 24.9547 13.748 24.9999 14.3713C25.135 16.0688 27.1785 16.6804 28.543 16.1593L28.5492 16.1673Z" fill="#333547"/>
<g style="mix-blend-mode:screen" opacity="0.28">
<path d="M27.786 15.1893C27.9671 15.1183 28.1368 15.0243 28.2621 14.8818C28.4722 14.6348 28.508 14.2872 28.4836 13.961C28.462 13.671 28.3917 13.3678 28.2039 13.1435C27.9797 12.8644 27.6144 12.7402 27.2747 12.6408C26.7333 12.4877 26.3904 12.6465 26.0117 13.0379C25.7486 13.3071 25.4776 13.64 25.5144 14.0396C25.6027 15.128 26.912 15.5196 27.7869 15.1823L27.786 15.1893Z" fill="#515471"/>
</g>
<g style="mix-blend-mode:screen" opacity="0.28">
<path d="M27.2962 14.4467C27.3873 14.4077 27.4791 14.3616 27.5462 14.2837C27.6557 14.1535 27.6775 13.9766 27.6623 13.8095C27.6523 13.6575 27.6141 13.5019 27.521 13.3827C27.4023 13.2387 27.2166 13.1727 27.0361 13.1216C26.7512 13.0434 26.5763 13.1223 26.3785 13.3278C26.239 13.4686 26.1031 13.6385 26.1202 13.849C26.1652 14.4148 26.8438 14.6207 27.2971 14.4397L27.2962 14.4467Z" fill="#515471"/>
</g>
<path d="M25.8401 15.0641C26.1343 14.9496 26.4268 14.7918 26.636 14.5518C26.9811 14.1419 27.0457 13.5609 27.0042 13.0242C26.9708 12.5388 26.8525 12.0429 26.5469 11.6676C26.173 11.2048 25.5741 10.9943 25.0044 10.8378C24.1012 10.5897 23.5375 10.8505 22.9044 11.4978C22.4683 11.9468 22.0199 12.4948 22.0739 13.1623C22.218 14.9615 24.3854 15.6171 25.8401 15.0641Z" fill="#333547"/>
<g style="mix-blend-mode:screen" opacity="0.28">
<path d="M25.035 14.0241C25.2232 13.954 25.4088 13.8476 25.5429 13.6918C25.7689 13.4324 25.8082 13.0565 25.7785 12.7152C25.7524 12.4031 25.6838 12.0858 25.4836 11.8456C25.24 11.5497 24.8614 11.4167 24.4934 11.3138C23.9166 11.1564 23.5517 11.3196 23.1482 11.7367C22.8683 12.0254 22.5806 12.3777 22.6139 12.8057C22.7084 13.9595 24.0929 14.3819 25.0279 14.0232L25.035 14.0241Z" fill="#515471"/>
</g>
<g style="mix-blend-mode:screen" opacity="0.28">
<path d="M24.5072 13.2334C24.6053 13.1952 24.7051 13.1429 24.7722 13.065C24.8896 12.9287 24.9062 12.7368 24.8926 12.5555C24.8835 12.3964 24.84 12.2258 24.7399 12.1057C24.615 11.9537 24.415 11.886 24.2284 11.827C23.9294 11.747 23.7394 11.8312 23.5328 12.05C23.3853 12.197 23.2406 12.3802 23.256 12.6048C23.3037 13.2069 24.0238 13.4251 24.5072 13.2334Z" fill="#515471"/>
</g>
<path d="M29.1315 23.6664C29.4108 23.5572 29.6802 23.4109 29.8806 23.1843C30.2081 22.8009 30.2683 22.2552 30.2304 21.7477C30.1935 21.2906 30.0858 20.8248 29.7997 20.4662C29.4436 20.0344 28.8862 19.8362 28.3448 19.6832C27.4974 19.4492 26.9646 19.6923 26.3712 20.3086C25.9598 20.7318 25.5441 21.248 25.5892 21.8713C25.7244 23.5688 27.7679 24.1804 29.1324 23.6593L29.1315 23.6664Z" fill="#333547"/>
<g style="mix-blend-mode:screen" opacity="0.28">
<path d="M28.3685 22.6884C28.5497 22.6174 28.7193 22.5234 28.8447 22.3808C29.0547 22.1338 29.0905 21.7862 29.0661 21.46C29.0445 21.17 28.9742 20.8668 28.7864 20.6425C28.5623 20.3634 28.1969 20.2392 27.8572 20.1398C27.3158 19.9868 26.973 20.1456 26.5942 20.5369C26.3311 20.8061 26.0601 21.139 26.097 21.5386C26.1852 22.627 27.4945 23.0186 28.3694 22.6813L28.3685 22.6884Z" fill="#515471"/>
</g>
<g style="mix-blend-mode:screen" opacity="0.28">
<path d="M27.8787 21.9389C27.9698 21.8999 28.0617 21.8538 28.1288 21.7759C28.2382 21.6457 28.2601 21.4688 28.2448 21.3017C28.2348 21.1497 28.1966 20.9941 28.1036 20.8749C27.9849 20.7309 27.7991 20.6648 27.6186 20.6138C27.3338 20.5355 27.1588 20.6145 26.961 20.8199C26.8215 20.9607 26.6856 21.1307 26.7027 21.3411C26.7478 21.907 27.4263 22.1129 27.8796 21.9319L27.8787 21.9389Z" fill="#515471"/>
</g>
<path d="M23.7514 20.9905C24.0306 20.8813 24.3001 20.7351 24.4934 20.5075C24.8209 20.1242 24.8811 19.5785 24.8432 19.071C24.8063 18.6139 24.6986 18.1481 24.4125 17.7895C24.0564 17.3576 23.499 17.1595 22.9576 17.0064C22.1102 16.7724 21.5773 17.0155 20.984 17.6318C20.5726 18.0551 20.1569 18.5712 20.202 19.1945C20.3371 20.8921 22.3806 21.5036 23.7451 20.9826L23.7514 20.9905Z" fill="#333547"/>
<g style="mix-blend-mode:screen" opacity="0.28">
<path d="M22.9881 20.0126C23.1693 19.9416 23.3389 19.8476 23.4643 19.705C23.6744 19.458 23.7101 19.1105 23.6858 18.7842C23.6641 18.4942 23.5938 18.191 23.406 17.9667C23.1819 17.6876 22.8165 17.5635 22.4768 17.464C21.9354 17.311 21.5926 17.4698 21.2138 17.8612C20.9507 18.1304 20.6797 18.4632 20.7166 18.8629C20.8048 19.9512 22.1141 20.3428 22.989 20.0055L22.9881 20.0126Z" fill="#515471"/>
</g>
<g style="mix-blend-mode:screen" opacity="0.28">
<path d="M22.4974 19.27C22.5884 19.2309 22.6803 19.1848 22.7474 19.1069C22.8569 18.9768 22.8787 18.7999 22.8634 18.6328C22.8535 18.4807 22.8152 18.3251 22.7222 18.2059C22.6035 18.062 22.4177 17.9959 22.2373 17.9449C21.9524 17.8666 21.7774 17.9456 21.5797 18.151C21.4402 18.2918 21.3043 18.4618 21.3214 18.6722C21.3664 19.238 22.0449 19.444 22.4983 19.2629L22.4974 19.27Z" fill="#515471"/>
</g>
<path d="M20.4184 14.0639C20.7499 13.9396 21.0741 13.757 21.308 13.4914C21.6947 13.0363 21.768 12.3845 21.7202 11.7824C21.6796 11.2386 21.5471 10.6835 21.2042 10.2605C20.787 9.74205 20.1191 9.50871 19.4795 9.33634C18.4728 9.05398 17.8401 9.34936 17.1329 10.0737C16.6394 10.5802 16.1477 11.1875 16.2063 11.9346C16.3667 13.9514 18.7906 14.6817 20.4193 14.0568L20.4184 14.0639Z" fill="#333547"/>
<g style="mix-blend-mode:screen" opacity="0.28">
<path d="M19.5138 12.8964C19.725 12.8147 19.9327 12.7039 20.0836 12.5286C20.3352 12.2364 20.3797 11.8181 20.3481 11.4335C20.3193 11.0851 20.241 10.7307 20.016 10.4586C19.7476 10.131 19.3212 9.97775 18.9116 9.86252C18.2658 9.6822 17.862 9.86937 17.4091 10.3378C17.0965 10.6584 16.7752 11.0497 16.8166 11.5289C16.9158 12.8197 18.4736 13.2923 19.5147 12.8893L19.5138 12.8964Z" fill="#515471"/>
</g>
<g style="mix-blend-mode:screen" opacity="0.28">
<path d="M18.9276 12.0044C19.0408 11.9609 19.1485 11.9024 19.2245 11.8112C19.3507 11.6616 19.3778 11.4422 19.3589 11.246C19.3454 11.0647 19.3036 10.88 19.1911 10.744C19.0538 10.5762 18.8264 10.4978 18.6185 10.4362C18.285 10.3447 18.072 10.4405 17.8407 10.6849C17.6765 10.8514 17.515 11.0541 17.5339 11.3079C17.588 11.9754 18.3912 12.2183 18.9338 12.0123L18.9276 12.0044Z" fill="#515471"/>
</g>
<path d="M22.0858 24.1185C22.3651 24.0093 22.6346 23.863 22.8279 23.6355C23.1554 23.2521 23.2156 22.7064 23.1777 22.1989C23.1408 21.7418 23.0331 21.276 22.747 20.9174C22.3908 20.4855 21.8335 20.2874 21.2921 20.1343C20.4446 19.9004 19.9118 20.1434 19.3185 20.7597C18.9071 21.183 18.4914 21.6991 18.5365 22.3225C18.6716 24.02 20.7151 24.6316 22.0796 24.1105L22.0858 24.1185Z" fill="#333547"/>
<g style="mix-blend-mode:screen" opacity="0.28">
<path d="M21.3304 23.1415C21.5116 23.0705 21.6812 22.9765 21.8066 22.8339C22.0167 22.5869 22.0524 22.2394 22.028 21.9131C22.0064 21.6231 21.9361 21.3199 21.7483 21.0956C21.5242 20.8165 21.1588 20.6924 20.8191 20.593C20.2777 20.4399 19.9349 20.5987 19.5561 20.9901C19.293 21.2593 19.022 21.5921 19.0589 21.9918C19.1471 23.0801 20.4564 23.4717 21.3313 23.1344L21.3304 23.1415Z" fill="#515471"/>
</g>
<g style="mix-blend-mode:screen" opacity="0.28">
<path d="M20.8329 22.3969C20.9239 22.3579 21.0158 22.3118 21.0829 22.2339C21.1923 22.1037 21.2142 21.9268 21.1989 21.7597C21.1889 21.6077 21.1507 21.4521 21.0577 21.3329C20.939 21.1889 20.7532 21.1229 20.5727 21.0718C20.2879 20.9936 20.1129 21.0725 19.9151 21.2779C19.7756 21.4187 19.6397 21.5887 19.6568 21.7991C19.7019 22.365 20.3804 22.5709 20.8337 22.3899L20.8329 22.3969Z" fill="#515471"/>
</g>
<path d="M24.8542 16.7086C25.1485 16.5941 25.4409 16.4363 25.6502 16.1964C25.9953 15.7864 26.0599 15.2054 26.0184 14.6687C25.985 14.1833 25.8666 13.6874 25.561 13.3121C25.1872 12.8493 24.5882 12.6388 24.0186 12.4823C23.1154 12.2342 22.5516 12.495 21.9186 13.1424C21.4824 13.5913 21.034 14.1393 21.0881 14.8069C21.2322 16.6061 23.3996 17.2616 24.8542 16.7086Z" fill="#333547"/>
<g style="mix-blend-mode:screen" opacity="0.28">
<path d="M24.0501 15.6687C24.2384 15.5985 24.4239 15.4921 24.5581 15.3363C24.7841 15.0769 24.8233 14.701 24.7936 14.3598C24.7675 14.0477 24.699 13.7303 24.4988 13.4901C24.2552 13.1942 23.8765 13.0613 23.5085 12.9583C22.9318 12.8009 22.5668 12.9642 22.1633 13.3812C21.8834 13.6699 21.5957 14.0223 21.629 14.4502C21.7236 15.604 23.108 16.0264 24.043 15.6678L24.0501 15.6687Z" fill="#515471"/>
</g>
<g style="mix-blend-mode:screen" opacity="0.28">
<path d="M23.5233 14.8701C23.6214 14.832 23.7213 14.7796 23.7883 14.7017C23.9057 14.5654 23.9223 14.3735 23.9087 14.1922C23.8997 14.0331 23.8561 13.8625 23.756 13.7424C23.6311 13.5905 23.4311 13.5227 23.2445 13.4637C22.9455 13.3837 22.7555 13.468 22.5489 13.6867C22.4014 13.8337 22.2567 14.0169 22.2721 14.2415C22.3198 14.8436 23.0399 15.0618 23.5233 14.8701Z" fill="#515471"/>
</g>
<path d="M26.9206 26.4465C27.1515 26.554 27.401 26.6279 27.6547 26.609C28.0827 26.5756 28.4483 26.2904 28.7255 25.9654C28.9771 25.6733 29.1994 25.3272 29.2395 24.9443C29.2972 24.4773 29.0737 24.0187 28.8449 23.6026C28.4805 22.947 28.0134 22.7744 27.2936 22.786C26.7905 22.7885 26.2309 22.8415 25.8857 23.2514C24.9465 24.3422 25.7906 25.9406 26.9197 26.4535L26.9206 26.4465Z" fill="#333547"/>
<g style="mix-blend-mode:screen" opacity="0.28">
<path d="M27.0564 25.4001C27.2059 25.4689 27.3651 25.5173 27.5322 25.502C27.8081 25.4786 28.0386 25.2988 28.2222 25.0916C28.3891 24.9039 28.524 24.6835 28.5546 24.4359C28.5922 24.1316 28.4485 23.8409 28.3014 23.5785C28.0655 23.1615 27.77 23.0532 27.3032 23.053C26.9795 23.0561 26.6232 23.0911 26.3972 23.3505C25.7934 24.0517 26.3352 25.074 27.0626 25.4081L27.0564 25.4001Z" fill="#515471"/>
</g>
<g style="mix-blend-mode:screen" opacity="0.28">
<path d="M27.2127 24.6576C27.2871 24.6955 27.3702 24.7202 27.4577 24.7094C27.6027 24.6986 27.722 24.6056 27.8147 24.4949C27.8985 24.3975 27.97 24.2843 27.9857 24.1569C28.0049 24.0012 27.9304 23.8484 27.8542 23.7097C27.7301 23.4932 27.5788 23.4386 27.3347 23.4372C27.1694 23.4383 26.9802 23.4581 26.8628 23.5944C26.5521 23.9583 26.8314 24.4884 27.2057 24.6568L27.2127 24.6576Z" fill="#515471"/>
</g>
<path d="M25.8044 27.6877C26.0386 27.5945 26.2692 27.4722 26.4369 27.2774C26.7141 26.9524 26.7647 26.4846 26.7305 26.0638C26.699 25.6792 26.6117 25.2805 26.3619 24.9767C26.0625 24.6093 25.5874 24.4428 25.1292 24.3144C24.4065 24.1174 23.9576 24.3206 23.4552 24.8404C23.1021 25.199 22.7534 25.6372 22.7958 26.1668C22.9128 27.6035 24.6441 28.1262 25.8053 27.6806L25.8044 27.6877Z" fill="#272839"/>
<g style="mix-blend-mode:screen" opacity="0.28">
<path d="M25.167 26.8543C25.3181 26.794 25.4648 26.7115 25.5734 26.5885C25.7499 26.3804 25.7866 26.0832 25.7632 25.8074C25.7434 25.5607 25.6891 25.3026 25.5261 25.1101C25.333 24.8707 25.0295 24.7686 24.7376 24.6894C24.2723 24.5601 23.9895 24.6976 23.6611 25.0306C23.4386 25.2617 23.21 25.5423 23.2397 25.8836C23.3127 26.8049 24.4202 27.1428 25.167 26.8543Z" fill="#434664"/>
</g>
<g style="mix-blend-mode:screen" opacity="0.28">
<path d="M24.7436 26.2204C24.8196 26.1867 24.8965 26.1459 24.9548 26.0812C25.0474 25.9706 25.0658 25.822 25.055 25.677C25.0424 25.5461 25.0157 25.4135 24.9342 25.3173C24.8341 25.1972 24.6757 25.1417 24.5236 25.0942C24.2803 25.0282 24.1354 25.0965 23.9632 25.2692C23.8475 25.3914 23.7293 25.5348 23.7437 25.709C23.778 26.1873 24.3601 26.3598 24.7445 26.2133L24.7436 26.2204Z" fill="#434664"/>
</g>
<path d="M26.0261 25.0793C26.2603 24.9861 26.4909 24.8638 26.6586 24.669C26.9358 24.344 26.9864 23.8762 26.9522 23.4554C26.9207 23.0708 26.8334 22.6721 26.5836 22.3683C26.2842 22.0009 25.8091 21.8344 25.3509 21.706C24.6282 21.509 24.1793 21.7122 23.6769 22.232C23.3237 22.5906 22.9751 23.0288 23.0174 23.5584C23.1345 24.9951 24.8657 25.5178 26.027 25.0722L26.0261 25.0793Z" fill="#292A46"/>
<g style="mix-blend-mode:screen" opacity="0.28">
<path d="M25.3823 24.2449C25.5334 24.1846 25.6801 24.1021 25.7887 23.9791C25.9652 23.771 26.0019 23.4739 25.9785 23.198C25.9587 22.9513 25.9044 22.6932 25.7414 22.5007C25.5483 22.2613 25.2449 22.1592 24.9529 22.0801C24.4876 21.9508 24.2049 22.0882 23.8764 22.4212C23.6539 22.6523 23.4253 22.933 23.455 23.2742C23.528 24.1955 24.6356 24.5334 25.3823 24.2449Z" fill="#404470"/>
</g>
<g style="mix-blend-mode:screen" opacity="0.28">
<path d="M24.9575 23.611C25.0335 23.5773 25.1104 23.5365 25.1686 23.4719C25.2613 23.3612 25.2797 23.2126 25.2688 23.0676C25.2563 22.9368 25.2295 22.8042 25.148 22.7079C25.0479 22.5878 24.8896 22.5323 24.7374 22.4848C24.4942 22.4188 24.3492 22.4871 24.1771 22.6598C24.0614 22.782 23.9431 22.9254 23.9575 23.0996C23.9919 23.5779 24.5739 23.7504 24.9584 23.6039L24.9575 23.611Z" fill="#404470"/>
</g>
<path d="M4.53595 12.9144C6.34735 13.8349 8.42398 14.1201 10.3631 14.7044C11.3327 14.9966 12.2714 15.3639 13.2198 15.7109C14.2576 16.0905 15.2973 16.5709 16.4056 16.2049C17.102 15.9749 17.4014 15.1211 16.9955 14.5107C15.8523 12.7749 12.7176 12.7397 10.8462 12.4798C8.79783 12.1981 6.59202 11.8539 4.57772 12.4599C4.36913 12.5203 4.35278 12.8272 4.54214 12.9224L4.53595 12.9144Z" fill="#C0D06E"/>
<mask id="mask2_1235_16513" style="mask-type:luminance" maskUnits="userSpaceOnUse" x="4" y="12" width="14" height="5">
<path d="M4.53399 12.9135C6.3454 13.8339 8.42202 14.1192 10.3611 14.7034C11.3307 14.9956 12.2694 15.3629 13.2178 15.7099C14.2556 16.0895 15.2953 16.5699 16.4036 16.204C17.1001 15.9739 17.3995 15.1202 16.9936 14.5097C15.8503 12.7739 12.7156 12.7387 10.8442 12.4789C8.79588 12.1971 6.59007 11.8529 4.57577 12.4589C4.36717 12.5193 4.35082 12.8262 4.54019 12.9214L4.53399 12.9135Z" fill="white"/>
</mask>
<g mask="url(#mask2_1235_16513)">
<path d="M1.90417 12.6471C3.88394 12.6115 5.79183 12.4018 7.77893 12.5394C8.69068 12.6018 9.61396 12.6871 10.5152 12.8343C11.4439 12.9921 12.3641 13.3931 13.3041 13.4014C14.0212 13.411 14.369 12.398 13.8139 11.9487C12.3373 10.7607 9.66768 10.7399 7.85055 10.7381C6.80184 10.7379 5.71863 10.7262 4.67541 10.856C3.46422 11.0081 2.66818 11.4629 1.76119 12.2344C1.60047 12.3726 1.66012 12.6457 1.89797 12.6392L1.90417 12.6471Z" fill="#D0DC78"/>
<path d="M2.37968 12.9851C2.56212 13.7762 3.73678 14.0363 4.40202 14.2333C5.51754 14.5651 6.64887 14.8269 7.75557 15.1719C8.83484 15.5063 9.91499 15.8337 10.9802 16.2238C12.0109 16.6025 13.0833 17.051 14.2051 16.8663C14.5278 16.8128 14.7554 16.4818 14.556 16.177C13.886 15.1461 12.6925 14.6898 11.5795 14.2794C10.3568 13.8267 9.11647 13.4005 7.85595 13.0796C7.34732 12.9522 2.07437 11.6185 2.38588 12.9931L2.37968 12.9851Z" fill="#94C653"/>
</g>
<path d="M30.8161 24.2697C31.0503 24.1765 31.2809 24.0542 31.4487 23.8594C31.7258 23.5345 31.7764 23.0666 31.7422 22.6458C31.7107 22.2612 31.6234 21.8625 31.3736 21.5587C31.0742 21.1913 30.5991 21.0249 30.1409 20.8965C29.4182 20.6994 28.9693 20.9026 28.4669 21.4224C28.1138 21.781 27.7651 22.2192 27.8075 22.7488C27.9245 24.1856 29.6558 24.7083 30.817 24.2627L30.8161 24.2697Z" fill="#333547"/>
<g style="mix-blend-mode:screen" opacity="0.28">
<path d="M30.1724 23.4354C30.3235 23.375 30.4701 23.2926 30.5787 23.1695C30.7553 22.9614 30.792 22.6643 30.7686 22.3884C30.7488 22.1418 30.6944 21.8836 30.5315 21.6911C30.3383 21.4518 30.0349 21.3496 29.743 21.2705C29.2777 21.1412 28.9949 21.2787 28.6665 21.6116C28.444 21.8427 28.2154 22.1234 28.2451 22.4647C28.318 23.3859 29.4256 23.7239 30.1724 23.4354Z" fill="#515471"/>
</g>
<g style="mix-blend-mode:screen" opacity="0.28">
<path d="M29.7553 22.8024C29.8313 22.7687 29.9082 22.7279 29.9665 22.6633C30.0592 22.5526 30.0775 22.404 30.0667 22.259C30.0541 22.1282 30.0274 21.9956 29.9459 21.8993C29.8458 21.7792 29.6874 21.7237 29.5353 21.6762C29.292 21.6102 29.1471 21.6785 28.9749 21.8512C28.8593 21.9734 28.741 22.1168 28.7554 22.291C28.7897 22.7693 29.3718 22.9418 29.7562 22.7953L29.7553 22.8024Z" fill="#515471"/>
</g>
<path d="M27.8856 22.5862C28.1649 22.4771 28.4344 22.3308 28.6277 22.1032C28.9552 21.7199 29.0154 21.1742 28.9775 20.6667C28.9406 20.2096 28.8329 19.7438 28.5468 19.3852C28.1907 18.9533 27.6333 18.7552 27.0919 18.6021C26.2445 18.3681 25.7116 18.6112 25.1183 19.2275C24.7069 19.6508 24.2912 20.1669 24.3363 20.7903C24.4714 22.4878 26.5149 23.0993 27.8794 22.5783L27.8856 22.5862Z" fill="#333547"/>
<g style="mix-blend-mode:screen" opacity="0.28">
<path d="M27.1224 21.6083C27.3036 21.5373 27.4732 21.4433 27.5986 21.3007C27.8086 21.0537 27.8444 20.7062 27.82 20.3799C27.7984 20.0899 27.7281 19.7867 27.5403 19.5624C27.3162 19.2833 26.9508 19.1592 26.6111 19.0597C26.0697 18.9067 25.7269 19.0655 25.3481 19.4569C25.085 19.7261 24.814 20.0589 24.8509 20.4586C24.9391 21.5469 26.2484 21.9385 27.1233 21.6012L27.1224 21.6083Z" fill="#515471"/>
</g>
<g style="mix-blend-mode:screen" opacity="0.28">
<path d="M26.6336 20.8579C26.7247 20.8188 26.8165 20.7727 26.8836 20.6948C26.9931 20.5647 27.0149 20.3878 26.9997 20.2207C26.9897 20.0686 26.9515 19.913 26.8584 19.7938C26.7397 19.6498 26.5539 19.5838 26.3735 19.5328C26.0886 19.4545 25.9137 19.5334 25.7159 19.7389C25.5764 19.8797 25.4405 20.0497 25.4576 20.2601C25.5026 20.8259 26.1812 21.0318 26.6345 20.8508L26.6336 20.8579Z" fill="#515471"/>
</g>
<path d="M31.1757 20.722C31.4549 20.6128 31.7244 20.4665 31.9177 20.239C32.2452 19.8556 32.3054 19.3099 32.2675 18.8024C32.2306 18.3453 32.1229 17.8795 31.8368 17.5209C31.4807 17.089 30.9233 16.8909 30.382 16.7378C29.5345 16.5039 29.0017 16.747 28.4084 17.3633C27.9969 17.7865 27.5812 18.3027 27.6263 18.926C27.7615 20.6235 29.805 21.2351 31.1695 20.714L31.1757 20.722Z" fill="#272839"/>
<g style="mix-blend-mode:screen" opacity="0.28">
<path d="M30.4207 19.745C30.6019 19.674 30.7716 19.58 30.8969 19.4375C31.107 19.1904 31.1427 18.8429 31.1184 18.5166C31.0967 18.2266 31.0264 17.9234 30.8386 17.6991C30.6145 17.42 30.2491 17.2959 29.9094 17.1965C29.3681 17.0434 29.0252 17.2022 28.6464 17.5936C28.3833 17.8628 28.1124 18.1957 28.1492 18.5953C28.2375 19.6837 29.5467 20.0752 30.4216 19.7379L30.4207 19.745Z" fill="#434664"/>
</g>
<g style="mix-blend-mode:screen" opacity="0.28">
<path d="M29.9232 19.0014C30.0142 18.9624 30.1061 18.9163 30.1732 18.8384C30.2826 18.7082 30.3045 18.5313 30.2892 18.3642C30.2793 18.2122 30.241 18.0566 30.148 17.9374C30.0293 17.7934 29.8435 17.7274 29.663 17.6763C29.3782 17.5981 29.2032 17.677 29.0055 17.8824C28.866 18.0232 28.73 18.1932 28.7471 18.4036C28.7922 18.9695 29.4707 19.1754 29.9241 18.9944L29.9232 19.0014Z" fill="#434664"/>
</g>
<path d="M28.3358 19.2366C28.6151 19.1274 28.8846 18.9811 29.0779 18.7536C29.4054 18.3702 29.4656 17.8246 29.4277 17.3171C29.3908 16.86 29.2831 16.3941 28.997 16.0356C28.6408 15.6037 28.0835 15.4056 27.5421 15.2525C26.6946 15.0185 26.1618 15.2616 25.5685 15.8779C25.1571 16.3012 24.7414 16.8173 24.7865 17.4406C24.9216 19.1382 26.9651 19.7497 28.3296 19.2287L28.3358 19.2366Z" fill="#292A46"/>
<g style="mix-blend-mode:screen" opacity="0.28">
<path d="M27.5736 18.2518C27.7547 18.1808 27.9244 18.0868 28.0497 17.9443C28.2598 17.6973 28.2956 17.3497 28.2712 17.0235C28.2496 16.7335 28.1793 16.4303 27.9915 16.206C27.7674 15.9269 27.402 15.8027 27.0623 15.7033C26.5209 15.5502 26.178 15.709 25.7993 16.1004C25.5362 16.3696 25.2652 16.7025 25.302 17.1021C25.3903 18.1905 26.6996 18.5821 27.5745 18.2448L27.5736 18.2518Z" fill="#404470"/>
</g>
<g style="mix-blend-mode:screen" opacity="0.28">
<path d="M27.0833 17.5092C27.1744 17.4702 27.2663 17.4241 27.3333 17.3462C27.4428 17.216 27.4646 17.0391 27.4494 16.872C27.4394 16.72 27.4012 16.5644 27.3081 16.4452C27.1894 16.3012 27.0037 16.2352 26.8232 16.1841C26.5383 16.1059 26.3634 16.1848 26.1656 16.3903C26.0261 16.5311 25.8902 16.701 25.9073 16.9115C25.9523 17.4773 26.6309 17.6832 27.0842 17.5022L27.0833 17.5092Z" fill="#404470"/>
</g>
<path d="M30.9271 17.2073C31.2064 17.0981 31.4759 16.9519 31.6692 16.7243C31.9967 16.341 32.0569 15.7953 32.019 15.2878C31.9821 14.8307 31.8744 14.3649 31.5883 14.0063C31.2322 13.5744 30.6748 13.3763 30.1334 13.2232C29.286 12.9892 28.7531 13.2323 28.1598 13.8486C27.7484 14.2719 27.3327 14.788 27.3778 15.4113C27.5129 17.1089 29.5564 17.7204 30.9209 17.1994L30.9271 17.2073Z" fill="#333547"/>
<g style="mix-blend-mode:screen" opacity="0.28">
<path d="M30.1639 16.2303C30.3451 16.1593 30.5147 16.0654 30.6401 15.9228C30.8502 15.6758 30.8859 15.3282 30.8615 15.002C30.8399 14.712 30.7696 14.4088 30.5818 14.1845C30.3577 13.9054 29.9923 13.7812 29.6526 13.6818C29.1112 13.5288 28.7684 13.6875 28.3896 14.0789C28.1265 14.3481 27.8555 14.681 27.8924 15.0806C27.9806 16.169 29.2899 16.5606 30.1648 16.2233L30.1639 16.2303Z" fill="#515471"/>
</g>
<g style="mix-blend-mode:screen" opacity="0.28">
<path d="M29.6751 15.4809C29.7662 15.4419 29.8581 15.3958 29.9251 15.3179C30.0346 15.1877 30.0564 15.0108 30.0412 14.8437C30.0312 14.6916 29.993 14.5361 29.8999 14.4168C29.7812 14.2729 29.5954 14.2068 29.415 14.1558C29.1301 14.0775 28.9552 14.1565 28.7574 14.3619C28.6179 14.5027 28.482 14.6727 28.4991 14.8831C28.5441 15.449 29.2227 15.6549 29.676 15.4738L29.6751 15.4809Z" fill="#515471"/>
</g>
<path d="M18.0611 10.9357C18.3254 10.8318 18.5789 10.6979 18.7634 10.4837C19.0733 10.1269 19.1229 9.60862 19.0877 9.13737C19.0544 8.70945 18.9503 8.27279 18.6828 7.93805C18.3523 7.5309 17.8224 7.34333 17.3217 7.20966C16.5229 6.98889 16.0272 7.22218 15.4683 7.79246C15.0816 8.19005 14.6915 8.67342 14.7339 9.2605C14.8609 10.8493 16.7788 11.431 18.0611 10.9357Z" fill="#333547"/>
<g style="mix-blend-mode:screen" opacity="0.28">
<path d="M17.3484 10.0134C17.5145 9.94773 17.6833 9.86082 17.7936 9.7236C17.9878 9.48899 18.028 9.16353 18.001 8.8585C17.9776 8.58265 17.9118 8.30156 17.7443 8.08694C17.5326 7.82374 17.1947 7.71017 16.8682 7.61958C16.3543 7.47709 16.0415 7.62521 15.6795 7.99713C15.4323 8.25392 15.179 8.56024 15.2113 8.93777C15.2933 9.96072 16.5194 10.3276 17.3413 10.0125L17.3484 10.0134Z" fill="#515471"/>
</g>
<g style="mix-blend-mode:screen" opacity="0.28">
<path d="M16.8891 9.31065C16.9792 9.27869 17.0641 9.2317 17.1232 9.15999C17.2238 9.04312 17.2457 8.86624 17.2287 8.71329C17.2178 8.56829 17.1849 8.42774 17.091 8.31558C16.9785 8.17957 16.806 8.12236 16.6397 8.07308C16.3761 7.99743 16.2082 8.07726 16.0263 8.27029C15.8948 8.40489 15.7677 8.56159 15.7865 8.75786C15.8289 9.28746 16.4658 9.48106 16.8953 9.31861L16.8891 9.31065Z" fill="#515471"/>
</g>
<path d="M11.899 18.9523C12.1632 18.8484 12.4168 18.7145 12.6013 18.5003C12.9112 18.1435 12.9608 17.6252 12.9256 17.154C12.8923 16.726 12.7882 16.2894 12.5206 15.9546C12.1902 15.5475 11.6603 15.3599 11.1596 15.2263C10.3608 15.0055 9.86509 15.2388 9.3062 15.8091C8.91949 16.2067 8.52936 16.69 8.57178 17.2771C8.6988 18.8659 10.6167 19.4476 11.899 18.9523Z" fill="#272839"/>
<g style="mix-blend-mode:screen" opacity="0.28">
<path d="M11.1863 18.0378C11.3524 17.9721 11.5212 17.8852 11.6315 17.748C11.8257 17.5134 11.8659 17.1879 11.8389 16.8829C11.8155 16.6071 11.7497 16.326 11.5822 16.1114C11.3705 15.8482 11.0326 15.7346 10.7061 15.644C10.1922 15.5015 9.87938 15.6496 9.51738 16.0215C9.27017 16.2783 9.01684 16.5847 9.04923 16.9622C9.1312 17.9851 10.3573 18.3521 11.1792 18.0369L11.1863 18.0378Z" fill="#434664"/>
</g>
<g style="mix-blend-mode:screen" opacity="0.28">
<path d="M10.7265 17.3351C10.8166 17.3031 10.9015 17.2561 10.9606 17.1844C11.0612 17.0675 11.0831 16.8907 11.0661 16.7377C11.0552 16.5927 11.0223 16.4522 10.9284 16.34C10.8159 16.204 10.6443 16.1397 10.4771 16.0975C10.2135 16.0218 10.0456 16.1017 9.86371 16.2947C9.73216 16.4293 9.60506 16.586 9.62391 16.7823C9.66625 17.3119 10.3032 17.5055 10.7327 17.343L10.7265 17.3351Z" fill="#434664"/>
</g>
<path d="M12.2564 22.1642C12.5207 22.0603 12.7742 21.9264 12.9587 21.7122C13.2686 21.3554 13.3182 20.8371 13.283 20.3659C13.2497 19.938 13.1456 19.5013 12.8781 19.1666C12.5476 18.7594 12.0177 18.5719 11.517 18.4382C10.7182 18.2174 10.2225 18.4507 9.66362 19.021C9.27691 19.4186 8.88678 19.9019 8.9292 20.489C9.05622 22.0778 10.9741 22.6595 12.2564 22.1642Z" fill="#333547"/>
<g style="mix-blend-mode:screen" opacity="0.28">
<path d="M11.5525 21.2439C11.7186 21.1782 11.8874 21.0913 11.9977 20.9541C12.1919 20.7195 12.2321 20.394 12.2051 20.089C12.1817 19.8131 12.1159 19.532 11.9484 19.3174C11.7367 19.0542 11.3988 18.9406 11.0723 18.85C10.5584 18.7076 10.2456 18.8557 9.88359 19.2276C9.63638 19.4844 9.38305 19.7907 9.41544 20.1682C9.49741 21.1912 10.7235 21.5581 11.5454 21.243L11.5525 21.2439Z" fill="#515471"/>
</g>
<g style="mix-blend-mode:screen" opacity="0.28">
<path d="M11.0839 20.547C11.1741 20.515 11.2589 20.468 11.318 20.3963C11.4187 20.2794 11.4405 20.1026 11.4235 19.9496C11.4126 19.8046 11.3797 19.6641 11.2858 19.5519C11.1733 19.4159 11.0008 19.3587 10.8345 19.3094C10.5709 19.2338 10.403 19.3136 10.2211 19.5066C10.0896 19.6412 9.96248 19.7979 9.98134 19.9942C10.0237 20.5238 10.6606 20.7174 11.0901 20.5549L11.0839 20.547Z" fill="#515471"/>
</g>
<path d="M26.6526 16.0485C26.9468 15.934 27.2393 15.7761 27.4485 15.5362C27.7936 15.1263 27.8582 14.5452 27.8167 14.0086C27.7833 13.5232 27.665 13.0273 27.3594 12.6519C26.9855 12.1891 26.3866 11.9787 25.8169 11.8221C24.9137 11.5741 24.35 11.8349 23.7169 12.4822C23.2808 12.9312 22.8324 13.4792 22.8864 14.1467C23.0305 15.9459 25.1979 16.6015 26.6526 16.0485Z" fill="#333547"/>
<g style="mix-blend-mode:screen" opacity="0.28">
<path d="M25.8402 15.0056C26.0284 14.9354 26.2139 14.8291 26.3481 14.6732C26.5741 14.4138 26.6133 14.0379 26.5837 13.6967C26.5575 13.3846 26.489 13.0672 26.2888 12.827C26.0452 12.5312 25.6665 12.3982 25.2985 12.2953C24.7218 12.1378 24.3568 12.3011 23.9533 12.7182C23.6735 13.0068 23.3857 13.3592 23.4191 13.7871C23.5136 14.9409 24.8981 15.3633 25.8331 15.0047L25.8402 15.0056Z" fill="#515471"/>
</g>
<g style="mix-blend-mode:screen" opacity="0.28">
<path d="M25.3212 14.2178C25.4193 14.1796 25.5191 14.1273 25.5862 14.0494C25.7036 13.913 25.7201 13.7211 25.7066 13.5399C25.6975 13.3807 25.6539 13.2101 25.5538 13.09C25.4289 12.9381 25.229 12.8703 25.0423 12.8114C24.7433 12.7313 24.5533 12.8156 24.3468 13.0343C24.1993 13.1813 24.0546 13.3646 24.0699 13.5892C24.1177 14.1913 24.8378 14.4095 25.3212 14.2178Z" fill="#515471"/>
</g>
<path d="M28.9065 13.8541C29.2007 13.7396 29.4932 13.5818 29.7024 13.3419C30.0475 12.9319 30.1121 12.3509 30.0707 11.8142C30.0372 11.3288 29.9189 10.8329 29.6133 10.4576C29.2394 9.99479 28.6405 9.78434 28.0708 9.62778C27.1676 9.37976 26.6039 9.64055 25.9708 10.2879C25.5347 10.7368 25.0863 11.2848 25.1403 11.9524C25.2844 13.7516 27.4518 14.4072 28.9065 13.8541Z" fill="#333547"/>
<g style="mix-blend-mode:screen" opacity="0.28">
<path d="M28.1014 12.8142C28.2896 12.744 28.4752 12.6376 28.6093 12.4818C28.8353 12.2224 28.8746 11.8465 28.8449 11.5053C28.8188 11.1932 28.7502 10.8758 28.55 10.6356C28.3064 10.3397 27.9278 10.2068 27.5598 10.1039C26.983 9.94643 26.6181 10.1097 26.2146 10.5267C25.9347 10.8154 25.647 11.1678 25.6803 11.5957C25.7748 12.7495 27.1593 13.1719 28.0943 12.8133L28.1014 12.8142Z" fill="#6E74B5"/>
</g>
<g style="mix-blend-mode:screen" opacity="0.28">
<path d="M27.5746 12.0166C27.6727 11.9784 27.7725 11.9261 27.8396 11.8482C27.957 11.7119 27.9735 11.52 27.96 11.3387C27.9509 11.1796 27.9073 11.009 27.8072 10.8889C27.6823 10.737 27.4824 10.6692 27.2957 10.6102C26.9968 10.5302 26.8068 10.6145 26.6002 10.8332C26.4527 10.9802 26.308 11.1634 26.3233 11.388C26.3711 11.9901 27.0912 12.2083 27.5746 12.0166Z" fill="#6E74B5"/>
</g>
<path d="M25.6513 20.0257C25.9305 19.9165 26.2 19.7702 26.3933 19.5427C26.7208 19.1593 26.781 18.6136 26.7431 18.1061C26.7062 17.649 26.5985 17.1832 26.3124 16.8246C25.9563 16.3928 25.3989 16.1946 24.8575 16.0416C24.0101 15.8076 23.4772 16.0507 22.8839 16.667C22.4725 17.0902 22.0568 17.6064 22.1019 18.2297C22.237 19.9272 24.2806 20.5388 25.6451 20.0177L25.6513 20.0257Z" fill="#474860"/>
<g style="mix-blend-mode:screen" opacity="0.28">
<path d="M24.8895 19.0477C25.0707 18.9767 25.2403 18.8827 25.3657 18.7402C25.5757 18.4932 25.6115 18.1456 25.5871 17.8194C25.5655 17.5294 25.4952 17.2262 25.3074 17.0019C25.0833 16.7228 24.7179 16.5986 24.3782 16.4992C23.8368 16.3461 23.4939 16.5049 23.1152 16.8963C22.8521 17.1655 22.5811 17.4984 22.618 17.898C22.7062 18.9864 24.0155 19.378 24.8904 19.0407L24.8895 19.0477Z" fill="#63668A"/>
</g>
<g style="mix-blend-mode:screen" opacity="0.28">
<path d="M24.3993 18.2983C24.4903 18.2593 24.5822 18.2131 24.6493 18.1352C24.7587 18.0051 24.7806 17.8282 24.7653 17.6611C24.7553 17.509 24.7171 17.3535 24.6241 17.2342C24.5054 17.0903 24.3196 17.0242 24.1391 16.9732C23.8543 16.8949 23.6793 16.9739 23.4815 17.1793C23.342 17.3201 23.2061 17.4901 23.2232 17.7005C23.2683 18.2664 23.9468 18.4723 24.4001 18.2912L24.3993 18.2983Z" fill="#63668A"/>
</g>
<path d="M24.2562 23.179C24.5355 23.0698 24.805 22.9235 24.9983 22.696C25.3258 22.3126 25.386 21.767 25.3481 21.2595C25.3112 20.8024 25.2035 20.3365 24.9174 19.9779C24.5613 19.5461 24.0039 19.3479 23.4625 19.1949C22.6151 18.9609 22.0822 19.204 21.4889 19.8203C21.0775 20.2436 20.6618 20.7597 20.7069 21.383C20.842 23.0806 22.8855 23.6921 24.25 23.1711L24.2562 23.179Z" fill="#3C3E5D"/>
<g style="mix-blend-mode:screen" opacity="0.28">
<path d="M23.5008 22.202C23.682 22.131 23.8516 22.037 23.977 21.8945C24.1871 21.6475 24.2228 21.2999 24.1985 20.9737C24.1768 20.6837 24.1065 20.3805 23.9187 20.1561C23.6946 19.8771 23.3292 19.7529 22.9895 19.6535C22.4481 19.5004 22.1053 19.6592 21.7265 20.0506C21.4634 20.3198 21.1924 20.6527 21.2293 21.0523C21.3175 22.1407 22.6268 22.5322 23.5017 22.1949L23.5008 22.202Z" fill="#555A88"/>
</g>
<g style="mix-blend-mode:screen" opacity="0.28">
<path d="M23.0033 21.4585C23.0943 21.4194 23.1862 21.3733 23.2533 21.2954C23.3627 21.1652 23.3846 20.9884 23.3693 20.8213C23.3593 20.6692 23.3211 20.5136 23.2281 20.3944C23.1094 20.2504 22.9236 20.1844 22.7431 20.1334C22.4583 20.0551 22.2833 20.134 22.0855 20.3395C21.946 20.4803 21.8101 20.6503 21.8272 20.8607C21.8723 21.4265 22.5508 21.6324 23.0041 21.4514L23.0033 21.4585Z" fill="#555A88"/>
</g>
<path d="M22.891 29.0013C23.1703 28.8921 23.4397 28.7458 23.6331 28.5183C23.9605 28.1349 24.0208 27.5892 23.9829 27.0817C23.946 26.6246 23.8383 26.1588 23.5521 25.8002C23.196 25.3683 22.6387 25.1702 22.0973 25.0171C21.2498 24.7832 20.717 25.0263 20.1237 25.6426C19.7123 26.0658 19.2965 26.582 19.3417 27.2053C19.4768 28.9028 21.5203 29.5144 22.8848 28.9933L22.891 29.0013Z" fill="#333547"/>
<g style="mix-blend-mode:screen" opacity="0.28">
<path d="M22.1346 28.0243C22.3158 27.9533 22.4854 27.8593 22.6108 27.7168C22.8209 27.4697 22.8566 27.1222 22.8323 26.7959C22.8106 26.5059 22.7403 26.2027 22.5525 25.9784C22.3284 25.6993 21.963 25.5752 21.6233 25.4758C21.0819 25.3227 20.7391 25.4815 20.3603 25.8729C20.0972 26.1421 19.8262 26.475 19.8631 26.8746C19.9513 27.963 21.2606 28.3545 22.1355 28.0172L22.1346 28.0243Z" fill="#515471"/>
</g>
<g style="mix-blend-mode:screen" opacity="0.28">
<path d="M21.639 27.2739C21.73 27.2348 21.8219 27.1887 21.889 27.1108C21.9985 26.9807 22.0203 26.8038 22.005 26.6367C21.9951 26.4846 21.9568 26.3291 21.8638 26.2098C21.7451 26.0659 21.5593 25.9998 21.3789 25.9488C21.094 25.8705 20.9191 25.9495 20.7213 26.1549C20.5818 26.2957 20.4459 26.4657 20.463 26.6761C20.508 27.242 21.1865 27.4479 21.6399 27.2668L21.639 27.2739Z" fill="#515471"/>
</g>
<path d="M22.6757 26.4397C22.9549 26.3306 23.2244 26.1843 23.4177 25.9567C23.7452 25.5734 23.8054 25.0277 23.7675 24.5202C23.7306 24.0631 23.6229 23.5973 23.3368 23.2387C22.9807 22.8068 22.4233 22.6087 21.8819 22.4556C21.0345 22.2217 20.5016 22.4647 19.9083 23.081C19.4969 23.5043 19.0812 24.0204 19.1263 24.6438C19.2615 26.3413 21.305 26.9529 22.6695 26.4318L22.6757 26.4397Z" fill="#333547"/>
<g style="mix-blend-mode:screen" opacity="0.28">
<path d="M21.9124 25.4608C22.0936 25.3898 22.2633 25.2958 22.3886 25.1533C22.5987 24.9063 22.6344 24.5587 22.6101 24.2325C22.5884 23.9425 22.5181 23.6393 22.3303 23.4149C22.1062 23.1359 21.7408 23.0117 21.4011 22.9123C20.8598 22.7592 20.5169 22.918 20.1381 23.3094C19.875 23.5786 19.6041 23.9115 19.6409 24.3111C19.7292 25.3995 21.0384 25.791 21.9133 25.4537L21.9124 25.4608Z" fill="#515471"/>
</g>
<g style="mix-blend-mode:screen" opacity="0.28">
<path d="M21.4237 24.7114C21.5147 24.6723 21.6066 24.6262 21.6737 24.5483C21.7831 24.4182 21.805 24.2413 21.7897 24.0742C21.7798 23.9221 21.7415 23.7665 21.6485 23.6473C21.5298 23.5033 21.344 23.4373 21.1635 23.3863C20.8787 23.308 20.7037 23.387 20.506 23.5924C20.3665 23.7332 20.2305 23.9032 20.2476 24.1136C20.2927 24.6795 20.9712 24.8854 21.4246 24.7043L21.4237 24.7114Z" fill="#515471"/>
</g>
<path d="M22.881 19.0803C23.2054 18.9551 23.5208 18.7857 23.7476 18.5192C24.1255 18.0775 24.197 17.4398 24.1537 16.8598C24.1114 16.3302 23.9912 15.791 23.6546 15.3759C23.2498 14.8734 22.5951 14.6488 21.9705 14.4711C20.9842 14.1985 20.3745 14.4823 19.6832 15.1943C19.2055 15.6884 18.7227 16.2824 18.7839 17.0083C18.9371 18.9667 21.3053 19.683 22.8881 19.0811L22.881 19.0803Z" fill="#333547"/>
<g style="mix-blend-mode:screen" opacity="0.28">
<path d="M22.001 17.944C22.2123 17.8623 22.4119 17.7577 22.5558 17.5815C22.7994 17.2955 22.8422 16.8914 22.8169 16.5147C22.7943 16.1743 22.708 15.8261 22.4962 15.5629C22.234 15.2432 21.8218 15.0917 21.4184 14.9844C20.7859 14.8129 20.3971 14.9947 19.953 15.4499C19.6484 15.7642 19.3359 16.1423 19.3711 16.6135C19.4676 17.8681 20.9838 18.3284 22.0019 17.9369L22.001 17.944Z" fill="#515471"/>
</g>
<g style="mix-blend-mode:screen" opacity="0.28">
<path d="M21.4323 17.0839C21.5384 17.0396 21.6453 16.9881 21.7212 16.8969C21.8474 16.7473 21.8728 16.5421 21.8539 16.3458C21.8395 16.1717 21.7977 15.9869 21.6852 15.8509C21.5479 15.6831 21.3346 15.6065 21.1259 15.552C20.7995 15.4614 20.5936 15.5581 20.364 15.7883C20.2077 15.9486 20.0462 16.1513 20.0669 16.3909C20.1156 17.0434 20.9047 17.2846 21.4332 17.0769L21.4323 17.0839Z" fill="#515471"/>
</g>
<path d="M16.9126 14.5282C17.252 14.3977 17.5753 14.2221 17.8101 13.9495C18.2047 13.4882 18.2718 12.8284 18.2312 12.2272C18.1915 11.6764 18.0598 11.1142 17.7099 10.6903C17.2855 10.171 16.6114 9.92968 15.9656 9.74936C14.9448 9.46525 14.3121 9.76063 13.589 10.4974C13.0946 11.011 12.595 11.6245 12.6527 12.3787C12.8104 14.4166 15.2688 15.1584 16.9126 14.5282Z" fill="#292A46"/>
<g style="mix-blend-mode:screen" opacity="0.28">
<path d="M16.0027 13.3533C16.221 13.2725 16.4295 13.1546 16.5805 12.9793C16.8329 12.6801 16.8774 12.2618 16.8467 11.8701C16.8179 11.5217 16.7334 11.1593 16.5164 10.8811C16.2418 10.5455 15.8153 10.3923 15.3978 10.2832C14.745 10.102 14.334 10.2883 13.8732 10.763C13.5527 11.0897 13.2305 11.4881 13.2719 11.9673C13.3764 13.2732 14.9484 13.7475 16.0036 13.3462L16.0027 13.3533Z" fill="#404470"/>
</g>
<g style="mix-blend-mode:screen" opacity="0.28">
<path d="M15.4105 12.4551C15.5236 12.4116 15.6314 12.3531 15.7073 12.2619C15.8415 12.1061 15.8606 11.893 15.8497 11.6905C15.8362 11.5092 15.7944 11.3245 15.6757 11.1805C15.5322 11.0048 15.3119 10.9273 15.096 10.8719C14.7555 10.7796 14.5425 10.8754 14.3041 11.1189C14.1399 11.2854 13.9704 11.4943 13.9894 11.748C14.0425 12.4226 14.8591 12.6743 15.4096 12.4622L15.4105 12.4551Z" fill="#404470"/>
</g>
<path d="M21.3464 11.7866C21.6628 11.6676 21.964 11.4965 22.1821 11.2433C22.5511 10.8148 22.6129 10.1975 22.575 9.63252C22.5379 9.11794 22.416 8.59288 22.0918 8.19368C21.6923 7.70617 21.0659 7.48514 20.4617 7.31714C19.5099 7.05592 18.9161 7.32738 18.2424 8.01278C17.7816 8.48741 17.3076 9.06818 17.3643 9.77195C17.5174 11.6729 19.8095 12.3654 21.3473 11.7795L21.3464 11.7866Z" fill="#333547"/>
<g style="mix-blend-mode:screen" opacity="0.28">
<path d="M20.4981 10.6901C20.7014 10.6147 20.894 10.5092 21.037 10.3401C21.2727 10.0603 21.3137 9.67029 21.2866 9.30779C21.2622 8.98154 21.1822 8.64123 20.9766 8.38598C20.7206 8.07422 20.3216 7.93156 19.9324 7.82602C19.3211 7.65715 18.9403 7.83279 18.5121 8.27555C18.2154 8.5837 17.9118 8.94846 17.9487 9.40556C18.0425 10.6239 19.5172 11.0718 20.4981 10.6901Z" fill="#6E74B5"/>
</g>
<g style="mix-blend-mode:screen" opacity="0.28">
<path d="M19.9407 9.84579C20.0458 9.8085 20.1466 9.74911 20.2216 9.665C20.347 9.52245 20.3652 9.31639 20.3526 9.12806C20.3373 8.96097 20.3017 8.78417 20.1892 8.64816C20.058 8.48831 19.8448 8.41169 19.6431 8.35805C19.3238 8.26833 19.1259 8.35881 18.9034 8.58992C18.7471 8.7502 18.5944 8.93966 18.616 9.17218C18.6673 9.80346 19.429 10.034 19.9415 9.83872L19.9407 9.84579Z" fill="#6E74B5"/>
</g>
<path d="M25.5802 11.8859C25.9046 11.7608 26.22 11.5914 26.4469 11.3249C26.8247 10.8831 26.8962 10.2455 26.8529 9.66548C26.8106 9.13588 26.6904 8.59666 26.3538 8.18156C25.949 7.67902 25.2943 7.4545 24.6698 7.2768C23.6834 7.00414 23.0737 7.288 22.3824 7.99995C21.9048 8.49406 21.4219 9.08809 21.4831 9.81397C21.6363 11.7723 24.0045 12.4886 25.5873 11.8868L25.5802 11.8859Z" fill="#292A46"/>
<g style="mix-blend-mode:screen" opacity="0.28">
<path d="M24.7064 10.7581C24.9176 10.6765 25.1182 10.5647 25.2612 10.3956C25.5048 10.1097 25.5475 9.70551 25.5222 9.32886C25.4996 8.98846 25.4133 8.64019 25.2016 8.37699C24.9394 8.05728 24.52 7.90493 24.1238 7.79852C23.4913 7.62702 23.1025 7.80886 22.6584 8.26402C22.3538 8.57837 22.0413 8.95641 22.0765 9.42766C22.1729 10.6823 23.6892 11.1425 24.7064 10.7581Z" fill="#404470"/>
</g>
<g style="mix-blend-mode:screen" opacity="0.28">
<path d="M24.1311 9.88863C24.2371 9.84426 24.344 9.79281 24.4199 9.70162C24.5462 9.552 24.5715 9.34682 24.5527 9.15055C24.5382 8.97637 24.4964 8.79162 24.3839 8.65562C24.2466 8.48781 24.0334 8.4112 23.8246 8.35669C23.4982 8.26609 23.2923 8.36277 23.0628 8.59301C22.9065 8.75329 22.745 8.95602 22.7657 9.19562C22.8144 9.84812 23.6035 10.0892 24.1319 9.88155L24.1311 9.88863Z" fill="#404470"/>
</g>
<path d="M22.6557 14.6205C22.9872 14.4963 23.3114 14.3136 23.5453 14.048C23.932 13.5929 24.0053 12.9411 23.9575 12.339C23.917 11.7953 23.7844 11.2402 23.4415 10.8171C23.0243 10.2987 22.3564 10.0654 21.7168 9.89298C20.7101 9.61062 20.0774 9.906 19.3702 10.6304C18.8767 11.1369 18.385 11.7442 18.4436 12.4913C18.604 14.508 21.0279 15.2384 22.6566 14.6135L22.6557 14.6205Z" fill="#494A63"/>
<g style="mix-blend-mode:screen" opacity="0.28">
<path d="M21.7496 13.4598C21.9609 13.3782 22.1685 13.2673 22.3194 13.092C22.571 12.7999 22.6155 12.3816 22.584 11.997C22.5552 11.6486 22.4768 11.2941 22.2518 11.0221C21.9834 10.6945 21.557 10.5412 21.1474 10.426C20.5017 10.2457 20.0978 10.4328 19.6449 10.9013C19.3324 11.2218 19.0111 11.6131 19.0525 12.0923C19.1516 13.3832 20.7095 13.8557 21.7505 13.4528L21.7496 13.4598Z" fill="#65688C"/>
</g>
<g style="mix-blend-mode:screen" opacity="0.28">
<path d="M21.164 12.5679C21.2771 12.5244 21.3849 12.4659 21.4608 12.3747C21.587 12.225 21.6141 12.0057 21.5952 11.8094C21.5817 11.6282 21.5399 11.4434 21.4274 11.3074C21.2901 11.1396 21.0627 11.0613 20.8548 10.9997C20.5213 10.9082 20.3084 11.004 20.077 11.2484C19.9128 11.4149 19.7513 11.6176 19.7703 11.8714C19.8243 12.5389 20.6275 12.7818 21.1702 12.5758L21.164 12.5679Z" fill="#65688C"/>
</g>
<path d="M19.4109 17.6309C19.7424 17.5067 20.0657 17.3311 20.2935 17.0575C20.6801 16.6025 20.7525 15.9577 20.7048 15.3556C20.6633 14.819 20.5378 14.2647 20.195 13.8417C19.7769 13.3303 19.1089 13.097 18.4773 12.9184C17.4698 12.6431 16.845 12.9323 16.1378 13.6567C15.6451 14.1561 15.1535 14.7634 15.2121 15.5105C15.3733 17.5202 17.7902 18.2496 19.4109 17.6309Z" fill="#575978"/>
<g style="mix-blend-mode:screen" opacity="0.28">
<path d="M18.5125 16.4716C18.7237 16.3899 18.9314 16.2791 19.0823 16.1038C19.3339 15.8116 19.3775 15.4004 19.346 15.0158C19.3172 14.6674 19.2389 14.3129 19.0209 14.0418C18.7525 13.7141 18.3261 13.5609 17.9156 13.4528C17.2699 13.2724 16.866 13.4596 16.4131 13.928C16.1006 14.2486 15.7864 14.6408 15.8207 15.1191C15.9207 16.4029 17.4715 16.8746 18.5116 16.4787L18.5125 16.4716Z" fill="#7478A2"/>
</g>
<g style="mix-blend-mode:screen" opacity="0.28">
<path d="M17.9248 15.5876C18.0379 15.5441 18.1386 15.4847 18.2216 15.3944C18.3479 15.2448 18.3749 15.0255 18.3561 14.8292C18.3426 14.648 18.3007 14.4632 18.1882 14.3272C18.0509 14.1594 17.8306 14.0819 17.6157 14.0194C17.2822 13.928 17.0692 14.0238 16.8379 14.2682C16.6737 14.4347 16.5122 14.6374 16.532 14.8841C16.586 15.5516 17.3893 15.7945 17.9248 15.5876Z" fill="#7478A2"/>
</g>
<path d="M14.8577 17.0479C15.1891 16.9237 15.5125 16.7481 15.7402 16.4745C16.1269 16.0195 16.1993 15.3747 16.1516 14.7726C16.1101 14.236 15.9846 13.6817 15.6418 13.2587C15.2237 12.7473 14.5557 12.514 13.9241 12.3354C12.9165 12.0601 12.2918 12.3493 11.5846 13.0737C11.0919 13.5731 10.6003 14.1804 10.6589 14.9275C10.8201 16.9372 13.2369 17.6666 14.8577 17.0479Z" fill="#333547"/>
<g style="mix-blend-mode:screen" opacity="0.28">
<path d="M13.9588 15.8876C14.17 15.8059 14.3777 15.6951 14.5286 15.5198C14.7802 15.2276 14.8238 14.8164 14.7923 14.4318C14.7635 14.0834 14.6851 13.729 14.4672 13.4578C14.1988 13.1302 13.7724 12.9769 13.3619 12.8688C12.7162 12.6885 12.3123 12.8756 11.8594 13.3441C11.5469 13.6646 11.2326 14.0568 11.267 14.5351C11.367 15.8189 12.9178 16.2906 13.9579 15.8947L13.9588 15.8876Z" fill="#515471"/>
</g>
<g style="mix-blend-mode:screen" opacity="0.28">
<path d="M13.3716 15.0046C13.4847 14.9611 13.5854 14.9017 13.6684 14.8114C13.7946 14.6618 13.8217 14.4425 13.8029 14.2462C13.7893 14.0649 13.7475 13.8802 13.635 13.7442C13.4977 13.5764 13.2774 13.4989 13.0624 13.4364C12.7289 13.345 12.516 13.4408 12.2847 13.6852C12.1205 13.8516 11.9589 14.0544 11.9787 14.3011C12.0328 14.9686 12.836 15.2114 13.3716 15.0046Z" fill="#515471"/>
</g>
<path d="M15.2026 26.2336C15.489 26.1253 15.7743 25.9666 15.9685 25.732C16.3048 25.3354 16.3668 24.7756 16.3307 24.2539C16.2955 23.7827 16.1825 23.3018 15.8831 22.9344C15.5216 22.4875 14.943 22.2867 14.3875 22.1319C13.5126 21.8874 12.971 22.1437 12.3547 22.7716C11.9274 23.2073 11.5028 23.7367 11.5524 24.3821C11.6885 26.13 13.7939 26.7636 15.2035 26.2266L15.2026 26.2336Z" fill="#292A46"/>
<g style="mix-blend-mode:screen" opacity="0.28">
<path d="M14.4211 25.2325C14.6022 25.1615 14.7869 25.0622 14.9131 24.9126C15.1312 24.6594 15.1687 24.2977 15.1452 23.9643C15.1253 23.6602 15.0479 23.3561 14.8619 23.1177C14.6315 22.8306 14.26 22.6985 13.9052 22.6044C13.3426 22.4487 12.9918 22.6137 12.6042 23.0184C12.3323 23.3009 12.0534 23.64 12.0885 24.0537C12.1803 25.1713 13.5232 25.5814 14.4282 25.2334L14.4211 25.2325Z" fill="#404470"/>
</g>
<g style="mix-blend-mode:screen" opacity="0.28">
<path d="M13.9124 24.459C14.0104 24.4208 14.1023 24.3747 14.1694 24.2968C14.2789 24.1666 14.3025 23.9756 14.2872 23.8085C14.2781 23.6494 14.2399 23.4938 14.1398 23.3737C14.022 23.2226 13.8291 23.1557 13.6415 23.1038C13.3496 23.0247 13.1667 23.1098 12.9619 23.3144C12.8215 23.4623 12.6776 23.6385 12.6947 23.8489C12.738 24.4289 13.4378 24.6374 13.9124 24.459Z" fill="#404470"/>
</g>
<path d="M20.6163 22.054C20.9707 21.9182 21.3099 21.7302 21.5536 21.4443C21.9649 20.9635 22.0355 20.2755 21.9913 19.6451C21.9471 19.0721 21.8118 18.4808 21.4495 18.041C21.0066 17.4978 20.298 17.2451 19.6239 17.0613C18.5544 16.764 17.8908 17.0771 17.1421 17.8466C16.6238 18.3788 16.0986 19.025 16.1591 19.8155C16.3267 21.948 18.8957 22.725 20.6154 22.0611L20.6163 22.054Z" fill="#333547"/>
<g style="mix-blend-mode:screen" opacity="0.28">
<path d="M19.6624 20.8225C19.8886 20.7356 20.1042 20.6185 20.264 20.4299C20.5252 20.1174 20.5723 19.6779 20.5434 19.2721C20.5173 18.9025 20.4274 18.525 20.1962 18.2451C19.9092 17.8936 19.4615 17.7377 19.0237 17.619C18.3363 17.4264 17.9166 17.6259 17.4319 18.1192C17.0955 18.4583 16.7636 18.8771 16.8024 19.3775C16.914 20.7417 18.555 21.2389 19.6562 20.8146L19.6624 20.8225Z" fill="#515471"/>
</g>
<g style="mix-blend-mode:screen" opacity="0.28">
<path d="M19.0397 19.8847C19.1528 19.8412 19.2686 19.7765 19.3524 19.6791C19.4875 19.5162 19.5154 19.2898 19.4983 19.0794C19.4857 18.891 19.4385 18.6913 19.3198 18.5473C19.1701 18.3636 18.9357 18.2844 18.7136 18.221C18.3598 18.1199 18.138 18.229 17.8917 18.4787C17.7186 18.6584 17.5421 18.8665 17.5663 19.1353C17.6222 19.8461 18.4741 20.1022 19.0468 19.8856L19.0397 19.8847Z" fill="#515471"/>
</g>
<path d="M19.1432 25.0412C19.4676 24.916 19.783 24.7467 20.0099 24.4802C20.3877 24.0384 20.4592 23.4008 20.4159 22.8207C20.3736 22.2911 20.2534 21.7519 19.9168 21.3368C19.512 20.8343 18.8573 20.6098 18.2328 20.4321C17.2464 20.1594 16.6367 20.4433 15.9454 21.1552C15.4677 21.6493 14.9849 22.2434 15.0461 22.9692C15.1993 24.9276 17.5675 25.6439 19.1503 25.0421L19.1432 25.0412Z" fill="#474860"/>
<g style="mix-blend-mode:screen" opacity="0.28">
<path d="M18.2691 23.9127C18.4803 23.8311 18.6809 23.7194 18.8239 23.5503C19.0675 23.2643 19.1102 22.8601 19.0849 22.4835C19.0623 22.1431 18.976 21.7948 18.7643 21.5316C18.5021 21.2119 18.0828 21.0596 17.6865 20.9531C17.054 20.7816 16.6652 20.9635 16.2211 21.4186C15.9165 21.733 15.604 22.111 15.6392 22.5823C15.7356 23.8369 17.2519 24.2971 18.27 23.9057L18.2691 23.9127Z" fill="#63668A"/>
</g>
<g style="mix-blend-mode:screen" opacity="0.28">
<path d="M17.6936 23.0439C17.7996 22.9995 17.9065 22.9481 17.9824 22.8569C18.1087 22.7073 18.134 22.5021 18.1151 22.3058C18.1007 22.1316 18.0589 21.9469 17.9464 21.8109C17.8091 21.6431 17.5959 21.5665 17.3871 21.512C17.0607 21.4214 16.8548 21.518 16.6253 21.7483C16.469 21.9086 16.3075 22.1113 16.3282 22.3509C16.3769 23.0034 17.166 23.2445 17.6944 23.0368L17.6936 23.0439Z" fill="#63668A"/>
</g>
<path d="M19.3837 27.7354C19.6621 27.6333 19.9325 27.48 20.1178 27.2586C20.4444 26.8823 20.4976 26.3358 20.465 25.8433C20.4343 25.3942 20.3266 24.9283 20.0396 24.5768C19.6906 24.1458 19.1323 23.9548 18.6051 23.8035C17.7647 23.5704 17.239 23.8143 16.6545 24.4173C16.2439 24.8335 15.8361 25.3435 15.8813 25.9668C16.012 27.6422 18.0342 28.2512 19.3837 27.7354Z" fill="#333547"/>
<g style="mix-blend-mode:screen" opacity="0.28">
<path d="M18.6352 26.7668C18.8155 26.7029 18.986 26.6018 19.1113 26.4593C19.3205 26.2194 19.3563 25.8718 19.331 25.5526C19.3094 25.2626 19.2382 24.9665 19.0575 24.7431C18.8325 24.471 18.4751 24.3407 18.1345 24.2484C17.5923 24.1024 17.2644 24.2558 16.8865 24.6402C16.6234 24.9093 16.3604 25.236 16.3902 25.6348C16.4731 26.7081 17.7682 27.0979 18.6352 26.7668Z" fill="#515471"/>
</g>
<g style="mix-blend-mode:screen" opacity="0.28">
<path d="M18.1497 26.031C18.2399 25.9991 18.3326 25.9459 18.3918 25.8742C18.5003 25.7511 18.516 25.5663 18.5078 25.4C18.4978 25.248 18.4587 25.0995 18.3657 24.9802C18.247 24.8363 18.0683 24.7711 17.8869 24.7272C17.6092 24.6498 17.4342 24.7287 17.2364 24.9341C17.0969 25.0749 16.961 25.2449 16.979 25.4483C17.0249 26.0071 17.6964 26.2121 18.1418 26.0372L18.1497 26.031Z" fill="#515471"/>
</g>
<path d="M15.8836 20.0766C16.2229 19.9461 16.5463 19.7706 16.782 19.4908C17.1765 19.0295 17.2507 18.3707 17.2039 17.7615C17.1641 17.2107 17.0324 16.6485 16.6834 16.2175C16.2591 15.6982 15.5849 15.4569 14.9321 15.2757C13.9042 14.9907 13.2715 15.2861 12.5484 16.0229C12.0469 16.5356 11.5465 17.1562 11.6112 17.9112C11.7752 19.9571 14.2336 20.6989 15.8844 20.0695L15.8836 20.0766Z" fill="#474860"/>
<g style="mix-blend-mode:screen" opacity="0.28">
<path d="M14.9649 18.8994C15.1832 18.8186 15.3917 18.7007 15.5427 18.5254C15.7951 18.2262 15.8396 17.8078 15.809 17.4162C15.7811 17.0607 15.6965 16.6983 15.4786 16.4272C15.204 16.0916 14.7705 15.9375 14.3538 15.8214C13.6939 15.6393 13.2892 15.8335 12.8292 16.3011C12.5087 16.6279 12.1865 17.0262 12.2271 17.5125C12.3307 18.8255 13.9097 19.3006 14.9658 18.8923L14.9649 18.8994Z" fill="#63668A"/>
</g>
<g style="mix-blend-mode:screen" opacity="0.28">
<path d="M14.3722 18.0008C14.4853 17.9573 14.5931 17.8988 14.669 17.8076C14.8032 17.6517 14.8232 17.4315 14.8114 17.2361C14.7979 17.0549 14.7569 16.8631 14.6374 16.7262C14.4939 16.5504 14.2736 16.4729 14.0586 16.4105C13.718 16.3181 13.5051 16.4139 13.2667 16.6575C13.1016 16.831 12.933 17.0329 12.9519 17.2866C13.0042 17.9683 13.8216 18.2129 14.3722 18.0008Z" fill="#63668A"/>
</g>
<path d="M15.5128 23.4853C15.8442 23.361 16.1675 23.1855 16.3953 22.9119C16.7819 22.4569 16.8543 21.8121 16.8066 21.21C16.7651 20.6734 16.6405 20.1121 16.2968 19.6961C15.8787 19.1847 15.2107 18.9514 14.5721 18.7719C13.5645 18.4966 12.9398 18.7858 12.2325 19.5102C11.7399 20.0096 11.2474 20.624 11.3068 21.364C11.4681 23.3737 13.8849 24.1032 15.5057 23.4845L15.5128 23.4853Z" fill="#333547"/>
<g style="mix-blend-mode:screen" opacity="0.28">
<path d="M14.6141 22.3261C14.8253 22.2444 15.0329 22.1336 15.1839 21.9583C15.4355 21.6661 15.4791 21.2549 15.4476 20.8703C15.4187 20.5219 15.3404 20.1674 15.1225 19.8963C14.8541 19.5686 14.4276 19.4154 14.0172 19.3073C13.3714 19.1269 12.9676 19.3141 12.5147 19.7825C12.2021 20.1031 11.8879 20.4953 11.9222 20.9736C12.0223 22.2574 13.573 22.729 14.6132 22.3331L14.6141 22.3261Z" fill="#6E74B5"/>
</g>
<g style="mix-blend-mode:screen" opacity="0.28">
<path d="M14.0269 21.4343C14.14 21.3908 14.2478 21.3323 14.3237 21.2411C14.4499 21.0915 14.477 20.8722 14.4581 20.6759C14.4446 20.4946 14.4028 20.3099 14.2903 20.1739C14.153 20.0061 13.9327 19.9286 13.7177 19.8661C13.3842 19.7747 13.1713 19.8705 12.94 20.1149C12.7757 20.2813 12.6142 20.4841 12.634 20.7307C12.6881 21.3983 13.4913 21.6411 14.0339 21.4352L14.0269 21.4343Z" fill="#6E74B5"/>
</g>
<mask id="mask3_1235_16513" style="mask-type:luminance" maskUnits="userSpaceOnUse" x="8" y="7" width="25" height="23">
<path d="M31.5896 14.0073C31.2335 13.5755 30.6761 13.3773 30.1347 13.2243C30.0303 13.197 29.926 13.1698 29.8269 13.1575C30.0615 12.7699 30.1086 12.2729 30.0725 11.8087C30.0391 11.3233 29.9207 10.8274 29.6151 10.452C29.2413 9.98926 28.6423 9.7788 28.0727 9.62225C27.5861 9.49033 27.2042 9.50061 26.8489 9.6435C26.8057 9.12097 26.6776 8.58796 26.3542 8.18168C25.9494 7.67915 25.2947 7.45463 24.6702 7.27693C23.6838 7.00426 23.0741 7.28813 22.3828 8.00008C22.3007 8.08332 22.2177 8.17363 22.1427 8.25774C22.1241 8.23389 22.1125 8.21092 22.0939 8.18708C21.6944 7.69956 21.0681 7.47854 20.4639 7.31053C19.6447 7.08007 19.0844 7.25509 18.5201 7.75287C18.1969 7.46154 17.7554 7.31364 17.3246 7.19579C16.5258 6.97502 16.0301 7.2083 15.4712 7.77857C15.0845 8.17617 14.6944 8.65955 14.7368 9.24662C14.7468 9.3987 14.7788 9.54632 14.8197 9.68066C14.3751 9.79097 13.9961 10.0674 13.5856 10.4836C13.1 10.9839 12.6163 11.585 12.6483 12.3145C12.2736 12.4406 11.9327 12.7002 11.5786 13.0659C11.0859 13.5653 10.5943 14.1727 10.6529 14.9198C10.6583 14.9923 10.6708 15.0656 10.6833 15.139C10.1474 15.1159 9.74452 15.3535 9.30836 15.8024C8.92165 16.2 8.53152 16.6834 8.57395 17.2705C8.63436 18.0609 9.14183 18.6049 9.78951 18.886C9.74889 18.9241 9.7074 18.9692 9.66678 19.0073C9.28007 19.4049 8.88994 19.8883 8.93237 20.4753C9.04044 21.8104 10.4004 22.4309 11.594 22.3053C11.7412 22.5677 11.936 22.793 12.1644 22.9792C11.814 23.3741 11.5122 23.8396 11.5528 24.3834C11.6889 26.1313 13.7944 26.7649 15.2039 26.2279C15.4531 26.1293 15.6917 26.0008 15.8868 25.8166C15.8807 25.8661 15.8755 25.9085 15.8835 25.9598C16.0142 27.6353 18.0365 28.2442 19.386 27.7284C19.4089 27.7169 19.431 27.7125 19.4469 27.7001C19.9025 29.0134 21.6646 29.4609 22.8859 28.994C23.1652 28.8848 23.4346 28.7385 23.628 28.5109C23.8301 28.2701 23.9322 27.9667 23.9715 27.6483C24.5537 27.8782 25.2417 27.8914 25.8002 27.673C26.0344 27.5798 26.265 27.4575 26.4327 27.2627C26.6507 27.0095 26.7281 26.6742 26.7338 26.3373C26.7939 26.3735 26.855 26.4026 26.909 26.4308C27.1399 26.5383 27.3894 26.6122 27.6431 26.5933C28.0711 26.56 28.4367 26.2747 28.7139 25.9498C28.9655 25.6576 29.1878 25.3115 29.2279 24.9286C29.2541 24.7163 29.2158 24.5033 29.1554 24.2947C29.695 24.4619 30.2998 24.4504 30.7982 24.2534C31.0324 24.1602 31.263 24.0378 31.4307 23.843C31.7079 23.5181 31.7585 23.0503 31.7243 22.6294C31.6928 22.2448 31.6055 21.8461 31.3557 21.5423C31.0687 21.1908 30.6157 21.02 30.1716 20.8933C30.5165 20.8928 30.8551 20.8268 31.1564 20.7132C31.4357 20.604 31.7052 20.4577 31.8985 20.2302C32.226 19.8468 32.2862 19.3012 32.2483 18.7937C32.2114 18.3366 32.1037 17.8707 31.8176 17.5122C31.6554 17.3125 31.4439 17.1643 31.2147 17.0426C31.3764 16.9548 31.5265 16.8441 31.6519 16.7015C31.9794 16.3182 32.0396 15.7725 32.0017 15.265C31.9648 14.8079 31.8571 14.3421 31.571 13.9835L31.5896 14.0073ZM17.2526 17.7246C17.2526 17.7246 17.2199 17.7565 17.2032 17.776C17.2032 17.776 17.2032 17.7759 17.204 17.7689C17.2066 17.7476 17.2013 17.7326 17.1969 17.7105C17.2181 17.7131 17.2393 17.7158 17.2526 17.7246Z" fill="white"/>
</mask>
<g mask="url(#mask3_1235_16513)">
<g style="mix-blend-mode:multiply" opacity="0.24">
<path d="M32.4588 18.3522C28.667 19.4498 24.6165 20.142 20.6858 19.3979C18.6921 19.0224 16.7749 18.3187 15.3509 16.8211C14.6707 16.105 14.1858 15.2621 13.6788 14.4237C13.3269 13.8415 12.3673 12.5378 12.8244 11.8616C13.2108 11.2915 12.4644 10.6463 11.9059 10.8646C10.9743 9.9163 9.17291 9.7872 8.60122 11.2753C7.93528 13.0032 7.66284 14.7438 7.83868 16.4608C7.22319 17.0241 7.00339 17.8733 7.22661 18.7413C8.718 24.5212 13.2286 29.3522 19.1196 30.6832C22.1872 31.3781 25.2902 30.9137 28.2306 29.9049C29.7825 29.3782 31.512 28.694 31.9612 26.9177C32.0483 26.5621 32.0743 26.2349 32.0553 25.9237C32.3584 25.7959 32.6553 25.6602 32.946 25.5165C33.25 25.3817 33.5433 25.2168 33.8277 25.0077C33.8507 24.9961 33.8737 24.9846 33.8904 24.9651C34.0415 24.8473 34.1934 24.7224 34.34 24.5825C35.1735 23.766 35.1181 22.7607 34.6165 21.9948C34.8485 21.6283 35.0283 21.2196 35.1496 20.7605C35.554 19.1726 33.9199 17.9221 32.4597 18.3451L32.4588 18.3522ZM27.736 27.2794C27.736 27.2794 27.7767 27.2988 27.7962 27.3156C27.782 27.3138 27.7608 27.3112 27.7466 27.3095C27.7466 27.3095 27.7484 27.2953 27.7422 27.2874L27.736 27.2794Z" fill="#6E74B5"/>
</g>
<g style="mix-blend-mode:multiply" opacity="0.24">
<path d="M31.9002 22.1843C27.6337 23.4029 23.0668 24.1462 18.6105 23.1792C16.3506 22.6917 14.167 21.8187 12.5223 20.0137C11.7385 19.1483 11.1737 18.1375 10.5868 17.1312C10.1773 16.4342 9.06437 14.8601 9.5637 14.0741C9.99069 13.4086 9.12474 12.6264 8.50525 12.8731C7.42567 11.727 5.39516 11.5337 4.77525 13.296C4.05671 15.3335 3.7874 17.3977 4.01677 19.4373C3.33244 20.0927 3.10136 21.0913 3.37524 22.1308C5.18129 29.027 10.3795 34.8624 17.0722 36.5654C20.5548 37.448 24.0548 36.968 27.3629 35.8322C29.1101 35.2363 31.0446 34.4624 31.5119 32.3652C31.6068 31.9459 31.6266 31.5533 31.5924 31.1899C31.9335 31.0452 32.2614 30.8918 32.5909 30.7242C32.9338 30.5654 33.266 30.3766 33.5751 30.1418C33.599 30.1232 33.622 30.1117 33.6449 30.1001C33.8198 29.9637 33.9814 29.8184 34.1456 29.652C35.0674 28.7027 34.9852 27.5073 34.402 26.5877C34.656 26.1593 34.8516 25.6807 34.9772 25.1287C35.4033 23.2491 33.5292 21.7318 31.8913 22.1976L31.9002 22.1843ZM26.7454 32.6887C26.7454 32.6887 26.7924 32.7161 26.8118 32.7329C26.7906 32.7302 26.7703 32.7205 26.749 32.7179C26.7499 32.7108 26.7437 32.7029 26.7375 32.6949L26.7454 32.6887Z" fill="#6E74B5"/>
</g>
</g>
<g style="mix-blend-mode:screen" opacity="0.19">
<path d="M26.8717 11.3703C24.6988 9.36366 21.4546 8.23748 18.5298 9.06148C17.0493 9.47484 15.8548 10.7711 16.1225 12.3845C16.3875 14.0191 17.953 14.8373 19.4652 14.981C20.2603 15.0577 20.9988 15.1848 21.6519 15.5384C22.3049 16.9982 23.2279 18.1322 24.2678 19.3669C24.9003 20.1202 25.5343 20.7444 26.5558 20.849C27.7541 20.9755 28.823 20.2886 29.3556 19.2338C30.7724 16.4278 28.9347 13.2773 26.8717 11.3703Z" fill="#6E74B5"/>
</g>
<g style="mix-blend-mode:screen" opacity="0.19">
<path d="M24.151 11.9314C23.1779 11.0283 21.7244 10.5255 20.4145 10.8953C19.7524 11.0793 19.2139 11.6593 19.3326 12.3851C19.4504 13.1179 20.1521 13.4847 20.8269 13.5465C21.1815 13.5832 21.5132 13.6313 21.8088 13.7971C22.1015 14.451 22.5134 14.9544 22.9829 15.5152C23.2646 15.8517 23.5533 16.1316 24.007 16.1804C24.5456 16.2398 25.0217 15.9322 25.2606 15.4517C25.8972 14.1943 25.0728 12.7851 24.151 11.9314Z" fill="#6E74B5"/>
</g>
<path d="M20.7606 11.0606C21.0738 11.1423 21.4242 11.3293 21.6218 11.5907C21.7884 11.8124 21.9597 12.2861 22.3177 12.1795C22.4299 12.1431 22.5209 12.0466 22.5419 11.9342C22.6516 11.3947 22.3432 10.9256 21.8275 10.7398C21.4214 10.5962 21.0112 10.6605 20.7517 11.0164C20.742 11.0367 20.7465 11.0588 20.7677 11.0614L20.7606 11.0606Z" fill="white"/>
<path d="M18.8506 14.6022C19.532 14.3775 19.1882 13.3222 18.5068 13.5469C17.8254 13.7716 18.1692 14.8269 18.8506 14.6022Z" fill="white"/>
<path d="M16.6026 11.8695C16.8721 11.7807 16.738 11.3547 16.4605 11.4497C16.1909 11.5386 16.325 11.9646 16.6026 11.8695Z" fill="white"/>
</svg>
