<svg width="35" height="30" viewBox="0 0 35 30" fill="none" xmlns="http://www.w3.org/2000/svg">
<path d="M23.9961 27.7362C23.4169 28.5955 20.8865 29.0107 17.8335 29.0107C14.7806 29.0107 12.3036 28.6168 11.671 27.7787C11.5702 27.6451 9.91289 20.5313 10.7386 20.214C11.8911 19.7707 15.7909 25.4857 17.8192 25.4857C20.5867 25.4857 23.6066 20.8725 24.4534 21.6119C24.6719 21.8025 24.0774 27.6162 23.997 27.737L23.9961 27.7362Z" fill="#35322F"/>
<path d="M17.4447 8.40918C8.2055 8.43981 1.18843 10.0198 0.797186 12.1162C0.625274 13.0394 2.07848 15.2541 2.95921 17.9836C4.34976 22.2905 6.75314 26.6842 16.89 26.9496L18.4381 26.9547C28.7799 26.7667 31.2104 22.3245 32.6119 17.9836C33.4927 15.255 34.9459 13.0394 34.774 12.1162C34.3912 10.064 27.6629 8.50703 18.7167 8.41258" fill="#44413D"/>
<path d="M34.8281 11.9455C34.8281 14.7524 27.1971 17.0267 17.7851 17.0267C8.37309 17.0267 0.741211 14.7516 0.741211 11.9455C0.741211 9.1395 8.3714 6.86523 17.7851 6.86523C27.1987 6.86523 34.8281 9.1395 34.8281 11.9455Z" fill="#4A4A4A"/>
<path d="M33.8172 11.9322C33.8172 14.369 26.6384 16.3429 17.7845 16.3429C8.93064 16.3429 1.75098 14.369 1.75098 11.9322C1.75098 9.49541 8.92894 7.52148 17.7837 7.52148C26.6384 7.52148 33.8164 9.49626 33.8164 11.9322H33.8172Z" fill="#D4D8D1"/>
<mask id="mask0_1263_16870" style="mask-type:luminance" maskUnits="userSpaceOnUse" x="1" y="0" width="33" height="17">
<path d="M33.8175 12.1952C33.8175 14.4848 26.6819 16.3396 17.8814 16.3396C9.08082 16.3396 1.8351 14.455 1.8351 12.1655C1.8351 11.8319 1.69452 8.88806 1.64033 8.26015C0.807864 -1.35678 9.87009 0.850269 17.3885 0.850269C26.189 0.850269 33.8167 9.90651 33.8167 12.1952H33.8175Z" fill="white"/>
</mask>
<g mask="url(#mask0_1263_16870)">
<path d="M26.9274 15.6211C25.5174 15.9555 23.9727 15.9648 22.5009 16.0925C20.8901 16.232 19.2752 16.3596 17.6585 16.34C15.2678 16.312 12.8196 16.0754 10.4746 15.6492C9.34577 15.4433 8.21352 15.2501 7.09736 14.9711C6.41395 14.8 5.91176 14.5167 5.20294 14.6333C4.46194 14.7558 3.881 14.9183 3.09257 14.863C3.31529 14.7022 3.22892 14.3253 3.00111 14.1713C2.77331 14.0173 2.47606 14.0215 2.19998 14.0309C2.07295 14.0352 1.94508 14.0394 1.81805 14.0445C1.69272 14.0488 1.55044 14.0462 1.46576 13.9552C1.30655 13.7825 1.5081 13.5212 1.69441 13.3775C1.51572 13.3596 1.33788 13.3417 1.15919 13.3239C1.09907 13.3179 1.03301 13.3085 0.99321 13.2643C0.795893 13.0414 1.59871 12.8193 1.53351 12.5181C1.50725 12.3982 1.06689 12.1625 0.970345 12.0672C1.25828 12.0136 1.58347 12.0093 1.88665 11.9932C1.37684 12.0204 1.4666 10.8794 2.59547 11.5107C2.60139 11.2155 2.60647 10.9194 2.6124 10.6242C2.84952 10.5561 3.09596 10.5195 3.34239 10.517C3.29243 10.3672 3.24247 10.2115 3.25856 10.0541C3.27465 9.89671 3.37627 9.7376 3.53294 9.70357C3.68961 9.67039 3.86999 9.82184 3.82256 9.97243C3.82172 9.72399 3.82002 9.47555 3.81918 9.22711C3.82087 9.5317 4.99292 9.10118 5.10132 9.01355C5.31896 8.83828 5.71698 7.77899 6.17937 8.59409C5.76017 7.85472 6.97626 7.9364 7.24302 7.99766C7.05163 7.93044 7.03131 7.61819 7.16426 7.45568C7.29722 7.29317 7.51148 7.24552 7.71049 7.21744C7.5174 7.13917 7.49538 6.815 7.64782 6.66441C7.80025 6.51466 8.04754 6.52742 8.22538 6.63973C8.40322 6.75204 8.52516 6.94348 8.63102 7.13406C8.77414 6.87541 9.09595 6.78693 9.37033 6.84563C9.64471 6.90434 9.88268 7.07961 10.113 7.25148C10.0334 6.94603 10.2655 6.59379 10.5593 6.57422C10.4238 6.45085 10.2282 6.4568 10.0529 6.42787C9.8776 6.39895 9.67689 6.28493 9.67689 6.0935C9.67689 5.85612 9.95974 5.76508 10.1791 5.74551C10.0876 5.54556 10.3146 5.31414 10.5195 5.34136C10.7245 5.36774 10.8803 5.54982 11.0031 5.72849C11.1259 5.90802 11.247 6.10541 11.4358 6.19475C11.3562 5.95226 11.2758 5.68425 11.363 5.44431C11.4502 5.20438 11.789 5.0742 11.9304 5.28181C11.7619 5.21119 11.7136 4.96019 11.7864 4.78152C11.8584 4.60284 12.0125 4.47947 12.159 4.36546C12.2268 4.31271 12.2988 4.25911 12.3818 4.25145C12.6367 4.23018 12.7222 4.6105 12.7129 4.88617C13.0194 4.67601 13.4928 4.88447 13.575 5.26479C13.9357 4.97125 14.4862 4.99082 14.8283 5.30988C14.7657 5.10143 14.941 4.88192 15.1383 4.83172C15.3356 4.78152 15.5405 4.85129 15.7336 4.91935C15.6955 4.69133 15.7336 4.45054 15.8361 4.24805C16.0309 4.45735 16.2248 4.66751 16.4196 4.87681C16.5085 4.74323 16.6042 4.60369 16.7448 4.54073C16.8853 4.47777 17.0818 4.52882 17.1275 4.68537C17.4095 4.57051 17.7254 4.5535 18.0167 4.63858C18.0244 4.87341 17.9685 5.11079 17.8584 5.31329C17.9397 5.16269 18.6934 4.97976 18.8585 4.95424C19.2159 4.89978 19.2904 4.94573 19.6266 5.15418C19.5843 4.97295 19.7206 4.76876 19.8934 4.75344C20.0661 4.73813 20.2313 4.9151 20.2177 5.10143C20.3625 5.01464 20.4015 4.81555 20.4811 4.65985C20.5607 4.50415 20.7767 4.38248 20.88 4.52201C20.9164 4.57136 20.924 4.63773 20.9299 4.69984C20.9494 4.90319 20.9697 5.10568 20.9892 5.30903C21.2441 4.86405 21.8462 4.90234 22.3239 4.99508C22.4102 5.01209 22.5042 5.03336 22.5601 5.10568C22.5339 5.01805 22.5364 4.9202 22.5686 4.83427C22.9116 4.82151 23.2571 4.93892 23.5306 5.16184C23.44 4.98997 23.5721 4.75684 23.7491 4.70409C23.9261 4.65134 24.115 4.73387 24.2649 4.84873C24.6061 5.10994 24.8179 5.55577 24.817 6.00586C25.0186 5.83314 25.2692 5.67744 25.5208 5.7353C25.7731 5.79315 25.9433 6.17858 25.7486 6.36066C26.0661 6.31642 26.3888 6.2509 26.7064 6.23984C26.7097 6.55124 26.9748 6.5572 27.1476 6.73162C26.9926 6.57507 27.6193 6.4585 27.715 6.49849C27.9741 6.6074 28.0537 6.94348 28.1943 7.16469C28.5415 7.70923 28.9819 7.74666 29.5755 7.91853C29.6797 7.94916 29.7991 7.99255 29.8363 8.10231C29.9159 8.33714 29.5391 8.50986 29.5662 8.7583C30.0887 8.57027 30.7103 9.09182 30.6688 9.68315C30.8204 9.4211 31.2049 9.39217 31.4208 9.59637C31.6368 9.79972 31.6791 10.1664 31.5614 10.448C31.774 10.2677 32.1144 10.3715 32.2702 10.6089C32.4269 10.8462 32.4303 11.167 32.36 11.4486C32.5937 11.4171 32.8588 11.4461 33.0146 11.6358C33.1704 11.8255 33.1052 12.2033 32.8723 12.2365C33.4897 12.2084 34.1096 12.559 34.4382 13.1222C34.1883 13.1716 33.9394 13.2209 33.6895 13.2694C34.0232 13.2039 33.256 14.629 33.167 14.7328C32.7351 15.2348 32.0729 15.4714 31.5207 15.0119C31.4521 14.9549 31.3852 14.8868 31.2997 14.869C31.1075 14.8281 30.9237 15.0604 30.7366 14.9974C30.6315 14.9626 30.5502 14.8383 30.441 14.8519C30.3749 14.8605 30.3258 14.9175 30.2784 14.9677C29.661 15.6339 28.677 15.6373 27.8047 15.5973C27.466 15.7053 27.2695 15.5403 26.9248 15.6219L26.9274 15.6211Z" fill="#F4F4F4"/>
<path d="M28.246 10.0497C28.6906 9.30186 29.1504 9.43374 29.28 10.271L29.2063 10.248C29.2791 10.1706 29.4062 10.0353 29.5179 10.1314C29.6729 10.3322 29.523 10.8674 29.3731 11.0529L29.3545 10.9729C29.9117 11.2145 30.303 11.7182 29.8381 12.2721C29.7102 12.4099 29.606 12.2126 29.5256 12.1334C29.4155 12.0296 29.1987 11.9513 29.0869 12.09C29.0141 12.1794 28.9514 12.2815 28.8735 12.3683C28.9861 12.2406 29.0302 12.0092 29.2224 11.9769C29.3469 11.9709 29.4748 12.0049 29.5645 12.0917C29.6094 12.1334 29.6467 12.1819 29.6856 12.2194C29.7737 12.3181 29.8338 12.1504 29.8736 12.0824C29.9863 11.8816 29.9905 11.6485 29.8508 11.4638C29.7212 11.2834 29.5222 11.155 29.3147 11.0665C29.2834 11.0537 29.274 11.012 29.2961 10.9865C29.4087 10.8427 29.4595 10.6334 29.4832 10.4505C29.49 10.3722 29.4985 10.2539 29.4544 10.1952C29.446 10.1876 29.44 10.1859 29.4239 10.1884C29.363 10.2037 29.3139 10.2599 29.2681 10.3058C29.252 10.3237 29.2241 10.3246 29.2071 10.3075C29.1631 10.1748 29.1614 10.0225 29.1047 9.89234C28.8938 9.32824 28.4678 9.72983 28.2451 10.0497H28.246Z" fill="#DDD9C7"/>
<path d="M27.752 11.1121C28.1584 11.506 28.4625 11.529 28.6039 10.9189C28.6141 11.0304 28.6073 11.1461 28.5649 11.2567C28.3803 11.7068 27.8951 11.4448 27.752 11.1121Z" fill="#DDD9C7"/>
<path d="M30.9824 12.7548C31.1569 12.5914 31.383 12.525 31.4313 12.2715C31.5405 12.5463 31.217 12.7377 30.9824 12.7548Z" fill="#DDD9C7"/>
<path d="M25.1504 13.3342C25.2478 13.0322 25.75 12.086 26.0785 12.6552C26.3233 13.1998 25.7576 13.8643 25.3748 14.2038C25.6704 13.8379 26.1954 13.1913 25.9913 12.7003C25.7703 12.2494 25.263 13.1351 25.1512 13.3342H25.1504Z" fill="#DDD9C7"/>
<path d="M24.6118 12.561C24.3645 12.4597 24.2019 12.207 24.1299 11.9552C24.1231 11.9314 24.1342 11.9067 24.1553 11.8965C24.29 11.8293 24.4407 11.8191 24.5796 11.8395C24.7193 11.8599 24.8523 11.9092 24.97 11.9816C24.7176 11.9229 24.4365 11.8735 24.2002 11.9875L24.2256 11.9288C24.2934 12.1687 24.4111 12.3942 24.6109 12.5618L24.6118 12.561Z" fill="#DDD9C7"/>
<path d="M21.9658 10.5815C22.1869 10.5466 22.6086 10.2616 22.778 10.4964C22.9321 10.7389 22.8296 11.0707 22.8991 11.3251L22.8288 11.3081C23.1404 11.0018 23.513 10.8699 23.596 11.4306L23.4978 11.4264C23.5232 11.3209 23.5579 11.2162 23.6096 11.1175C23.7942 10.7431 24.1685 10.7576 24.4776 10.9669L24.4259 11.0307C24.1219 10.7151 24.2684 10.1901 24.7122 10.1305C24.8401 10.1161 24.9671 10.1629 25.0611 10.2428C24.7477 10.0012 24.2811 10.2871 24.3311 10.67C24.3446 10.7848 24.4065 10.8878 24.4861 10.9729C24.5013 10.9899 24.5005 11.0163 24.4844 11.0316C24.4708 11.0443 24.4497 11.046 24.4344 11.0367C24.166 10.8657 23.8492 10.8333 23.696 11.1626C23.6502 11.2511 23.6214 11.3498 23.596 11.4485C23.5892 11.4757 23.5621 11.4919 23.535 11.4851C23.5156 11.48 23.5012 11.4629 23.4978 11.4442C23.4597 11.1575 23.336 11.0426 23.0752 11.2222C23.0091 11.2655 22.9465 11.3174 22.8872 11.3728C22.8652 11.394 22.8262 11.383 22.8186 11.354C22.7619 11.1481 22.8186 10.921 22.7898 10.7142C22.778 10.6198 22.7534 10.5143 22.6679 10.4675C22.4324 10.4062 22.1996 10.5577 21.9658 10.5815Z" fill="#DDD9C7"/>
<path d="M26.1372 11.3043C26.0779 11.163 26.0881 10.9971 26.1491 10.8559C26.1584 10.8355 26.1804 10.827 26.2007 10.8329C26.542 10.9206 26.5835 11.3281 26.7207 11.5944C26.5013 11.4021 26.4683 11.0269 26.177 10.9197L26.2287 10.8967C26.1643 11.015 26.1321 11.1579 26.1372 11.3051V11.3043Z" fill="#DDD9C7"/>
<path d="M26.1816 7.97209C26.948 7.20549 26.7846 8.08951 26.8219 8.6417L26.7499 8.59915C26.9209 8.50812 27.0979 8.31072 27.3257 8.3371C27.6467 8.42814 27.5874 9.06116 27.573 9.32491C27.54 9.08413 27.5603 8.22819 27.1411 8.46813C27.0166 8.52939 26.9209 8.62043 26.7948 8.68934C26.7702 8.7021 26.7406 8.69275 26.7279 8.66807C26.6974 8.40942 26.738 8.13715 26.7177 7.88105C26.7118 7.82235 26.6974 7.75853 26.6601 7.73897C26.6212 7.71855 26.5568 7.74152 26.5026 7.76704C26.39 7.81979 26.2866 7.89807 26.1825 7.97209H26.1816Z" fill="#DDD9C7"/>
<path d="M28.3358 8.21326C28.6127 8.03884 29.0252 8.13583 28.9743 8.52551C28.9616 8.62421 28.9244 8.71354 28.8736 8.79267C28.8846 8.69823 28.8981 8.60889 28.8956 8.52211C28.8956 8.19454 28.5899 8.18433 28.335 8.21326H28.3358Z" fill="#DDD9C7"/>
<path d="M29.0078 9.08354C29.1755 8.90232 29.3787 8.81553 29.5913 8.69727C29.4761 8.91848 29.239 9.02739 29.0078 9.08354Z" fill="#DDD9C7"/>
<path d="M30.3096 10.2912C30.7872 10.0556 30.8837 10.7456 30.8566 11.0757L30.794 11.0238C31.264 10.8843 31.6027 10.7873 31.7001 11.4016C31.5104 10.8511 31.2699 10.9915 30.8194 11.1217C30.7872 11.131 30.7542 11.1038 30.7567 11.0698C30.7694 10.766 30.7694 10.1534 30.3096 10.2904V10.2912Z" fill="#DDD9C7"/>
<path d="M5.00892 11.0635C4.78196 11.0286 4.00454 10.787 4.15105 10.467C4.44237 10.0671 4.88866 10.4279 5.14272 10.6729C5.29346 10.8082 5.51111 11.0499 5.68725 11.1375L5.62374 11.203C5.54498 11.0243 5.49163 10.8159 5.5526 10.621C5.57801 10.5172 5.69911 10.3939 5.81936 10.467C6.01583 10.6074 6.02261 10.8874 6.04293 11.1043L6.00059 11.0788C6.07681 11.0482 6.16573 11.0371 6.24618 11.066C6.40708 11.1222 6.48499 11.3196 6.42232 11.4727C6.39353 11.5484 6.3334 11.6055 6.2665 11.6429C6.39607 11.5604 6.45959 11.3893 6.3876 11.2507C6.32409 11.112 6.15641 11.0694 6.02515 11.1341C6.0099 11.1409 5.99212 11.1341 5.98535 11.1188C5.96756 10.9707 5.9176 10.5223 5.72282 10.5368C5.5399 10.6551 5.6339 10.9946 5.71266 11.1622C5.73383 11.2013 5.6881 11.2481 5.64914 11.2277C5.43743 11.1273 5.24604 10.895 5.07921 10.7419C4.86157 10.53 4.4754 10.1795 4.21118 10.5002C4.09939 10.7368 4.83023 11.0209 5.01061 11.0635H5.00892Z" fill="#DDD9C7"/>
<path d="M4.91902 12.0301C4.80638 12.1059 4.11196 12.5109 4.36094 12.6453C4.38295 12.6589 4.40836 12.6683 4.43207 12.6742C4.55995 12.6827 4.67343 12.6053 4.78098 12.5364C4.91986 12.4411 5.05028 12.3288 5.18832 12.2224C5.08077 12.3577 4.96475 12.4879 4.8284 12.5994C4.71492 12.6904 4.57519 12.7865 4.41852 12.7721C4.32537 12.75 4.23475 12.7091 4.2085 12.6002C4.18987 12.3245 4.70307 12.1025 4.91902 12.0293V12.0301Z" fill="#DDD9C7"/>
<path d="M10.4365 9.80742C10.4967 9.09443 10.9938 9.06805 11.2927 9.67299C11.3588 9.80742 11.4062 9.95036 11.424 10.0976C11.3655 9.96227 11.3003 9.83295 11.2241 9.71213C10.8845 9.18887 10.6423 9.21695 10.4365 9.80742Z" fill="#DDD9C7"/>
<path d="M10.3467 5.79785C10.5973 5.93143 10.8937 6.11691 10.9302 6.42576C10.7633 6.17902 10.5101 6.04289 10.3467 5.79785Z" fill="#DDD9C7"/>
<path d="M11.4234 7.77901C11.5225 7.6667 11.6453 7.57821 11.7605 7.48547C11.774 7.47441 11.7944 7.48292 11.7969 7.49908C11.8689 7.71604 11.8926 7.99512 12.0433 8.16869C12.0755 8.19506 12.1213 8.184 12.1712 8.15762C12.327 8.06744 12.4566 7.9313 12.5913 7.80964C12.6175 7.78326 12.6666 7.79772 12.6742 7.83431C12.7352 8.05978 12.7928 8.52008 13.1163 8.37714C13.2349 8.31077 13.3229 8.1806 13.3958 8.05382C13.4644 7.92535 13.5372 7.78326 13.5304 7.63351C13.5584 7.78496 13.4949 7.93811 13.4381 8.07595C13.3704 8.21208 13.2941 8.35076 13.1527 8.4435C12.7606 8.64685 12.6378 8.1321 12.576 7.85813L12.659 7.88281C12.5675 7.96874 12.4752 8.05382 12.3762 8.13295C12.1763 8.30056 11.9764 8.36268 11.879 8.06148C11.8189 7.88025 11.7867 7.69392 11.7495 7.50929L11.7859 7.52291C11.6606 7.60288 11.5352 7.68116 11.4209 7.7773L11.4234 7.77901Z" fill="#DDD9C7"/>
<path d="M12.8135 6.13574C12.993 6.25231 13.1793 6.24465 13.3826 6.23274L13.3605 6.25486C13.3775 6.21997 13.3893 6.18084 13.397 6.13659C13.4181 6.17658 13.4258 6.22423 13.4198 6.27102C13.419 6.28294 13.408 6.28889 13.3978 6.29315C13.2073 6.37908 12.9041 6.35441 12.8135 6.13659V6.13574Z" fill="#DDD9C7"/>
<path d="M15.5955 12.3689C15.1865 12.374 14.6708 12.357 14.4091 12.728L14.4023 12.6761C14.614 12.8369 14.8994 12.8547 15.1484 12.9466C15.1687 12.9534 15.1806 12.973 15.1789 12.9934C15.1586 13.3763 14.8605 13.6775 14.8698 14.0535L14.8325 14.0102C15.0993 14.0638 15.3017 13.8323 15.5269 13.7149C15.5464 13.7039 15.5718 13.7149 15.5769 13.7362C15.7251 14.3513 15.8326 14.2994 16.2231 13.8664C15.853 14.3735 15.6836 14.3862 15.5091 13.7558L15.56 13.777C15.3381 13.914 15.1077 14.1616 14.8147 14.1003C14.7936 14.0961 14.7783 14.0782 14.7775 14.0578C14.7554 13.6749 15.0527 13.3525 15.084 12.9883L15.1145 13.036C14.9926 12.99 14.8596 12.9602 14.7283 12.9202C14.5979 12.8803 14.4599 12.8335 14.349 12.7356C14.3337 12.722 14.332 12.6999 14.343 12.6837C14.4108 12.5876 14.5056 12.5135 14.6081 12.4633C14.9147 12.3162 15.2669 12.3383 15.5938 12.3698L15.5955 12.3689Z" fill="#DDD9C7"/>
<path d="M10.751 12.9971C10.9618 12.8354 11.1778 12.6729 11.4259 12.5708C11.5098 12.5385 11.5995 12.5078 11.702 12.5189C11.8129 12.5257 11.9027 12.6414 11.8765 12.7546C11.8333 13.0209 11.6571 13.2464 11.5758 13.4923L11.5064 13.4361C11.6808 13.357 11.7884 13.1034 12.0094 13.1009C12.0297 13.0992 12.0484 13.1128 12.0543 13.1307C12.1322 13.3604 12.1068 13.6148 12.0026 13.8258L11.9772 13.7841C12.2812 13.7917 12.2321 14.1576 12.1424 14.3507C12.194 14.1721 12.2414 13.8402 11.9755 13.8428C11.9594 13.8428 11.9467 13.8292 11.9467 13.813C12.0331 13.6063 12.045 13.368 11.9696 13.1604L12.0162 13.1902C11.8062 13.2166 11.741 13.4472 11.5453 13.528C11.5089 13.5459 11.4666 13.5084 11.4784 13.4701C11.5352 13.2855 11.6317 13.1485 11.7045 12.9792C11.7528 12.8592 11.8807 12.6414 11.6901 12.598C11.6165 12.5844 11.5301 12.6057 11.4496 12.6321C11.2024 12.7197 10.9788 12.8635 10.7518 12.9971H10.751Z" fill="#DDD9C7"/>
<path d="M6.3986 9.03418C6.14454 9.08778 5.93198 9.31836 5.85407 9.55744L5.83629 9.51064C5.94807 9.5719 6.07595 9.57786 6.19874 9.54468C6.32323 9.51405 6.44094 9.45024 6.56035 9.38727C6.58914 9.37196 6.6264 9.38983 6.63233 9.42131C6.68314 9.65358 6.5468 9.86459 6.58321 10.0867L6.55019 10.0552C6.79493 10.0901 7.06931 9.9735 7.2065 9.75909C7.0981 10.0092 6.80933 10.1547 6.54002 10.1335C6.52393 10.1318 6.51123 10.1198 6.507 10.1045C6.4782 9.98881 6.49599 9.86544 6.51801 9.75313C6.53918 9.64337 6.55696 9.54042 6.53494 9.44173L6.60693 9.47576C6.37235 9.60764 6.05139 9.74632 5.79564 9.57956C5.7787 9.5702 5.77108 9.54978 5.77785 9.53277C5.88202 9.27667 6.11829 9.05035 6.3986 9.03418Z" fill="#DDD9C7"/>
<path d="M2.45104 12.1759C2.60178 12.0543 2.83552 12.073 2.9202 12.2687C3.0015 12.4431 2.95408 12.6618 2.81519 12.7919L2.80503 12.7137C3.03114 12.8524 2.99642 13.1638 2.94476 13.3841C2.9329 13.2182 2.93799 13.0446 2.85838 12.8991C2.83382 12.8549 2.7991 12.8217 2.75676 12.7988C2.72796 12.7834 2.72288 12.7426 2.7466 12.7205C2.98626 12.4695 2.84144 12.016 2.4502 12.1759H2.45104Z" fill="#DDD9C7"/>
<path d="M19.8563 6.57088C19.9673 6.35562 20.1815 6.39646 20.3052 6.57514C20.4152 6.72744 20.4559 6.91717 20.45 7.1001L20.3704 7.05926C20.5406 6.92228 20.7768 6.69681 21.0157 6.81933C21.2358 6.93249 21.2723 7.2992 21.0665 7.44043C21.1495 7.3596 21.1656 7.23879 21.1478 7.13499C21.13 7.02948 21.069 6.93419 20.9784 6.8959C20.7743 6.81252 20.5905 7.02268 20.4313 7.13754C20.4 7.16391 20.3492 7.13754 20.3517 7.0967C20.3873 6.83294 20.1671 6.21694 19.8555 6.57174L19.8563 6.57088Z" fill="#DDD9C7"/>
<path d="M19.0496 10.9179C17.997 10.5477 18.7219 9.9845 19.4586 10.3036C19.479 10.3121 19.4883 10.335 19.4798 10.3555C19.4747 10.3682 19.4637 10.3767 19.451 10.3793C19.3189 10.4184 19.1563 10.3623 19.0877 10.238C19.0157 10.1198 19.0005 9.98365 19.0098 9.85517C19.0115 9.8339 19.0276 9.81688 19.0479 9.81433C19.2444 9.77774 19.4011 9.92749 19.5272 9.88835C19.639 9.85687 19.7567 9.7871 19.8787 9.75988C19.9795 9.7284 20.0929 9.79476 20.1378 9.8875C20.2657 10.1087 20.0108 10.5648 20.391 10.5699L20.347 10.6073C20.386 10.4371 20.3953 10.2125 20.5663 10.1189C20.6053 10.0951 20.6502 10.0721 20.7035 10.0679C20.7594 10.0636 20.8102 10.0951 20.8433 10.1189C20.9119 10.1734 20.9813 10.1768 21.0617 10.1487C21.3446 10.0628 21.7299 9.66629 22.0111 9.95216C21.7147 9.69266 21.37 10.107 21.0804 10.2032C20.9957 10.2414 20.8797 10.2329 20.8077 10.1751C20.7349 10.1198 20.6773 10.1342 20.607 10.1827C20.5858 10.1981 20.5579 10.2159 20.5409 10.2355C20.4749 10.3495 20.4571 10.4916 20.4334 10.6218C20.43 10.6439 20.4105 10.6592 20.3893 10.6584C20.148 10.6618 20.0641 10.4907 20.0785 10.2789C20.076 10.1385 20.12 9.94451 19.9854 9.86708C19.9566 9.85092 19.9354 9.85007 19.8999 9.85942C19.7796 9.8892 19.678 9.94876 19.5509 9.9845C19.4476 10.01 19.357 9.97003 19.2816 9.94366C19.2054 9.91473 19.1334 9.89431 19.0632 9.90707L19.1013 9.86623C19.0911 9.98024 19.1055 10.1011 19.1614 10.1938C19.2173 10.2925 19.3248 10.3265 19.4332 10.3027L19.4256 10.3793C18.7456 10.0755 18.0884 10.512 19.0496 10.9196V10.9179Z" fill="#DDD9C7"/>
<path d="M14.5184 10.6287C14.5777 10.7044 14.62 10.7954 14.692 10.8584C14.6962 10.8618 14.6962 10.8677 14.6928 10.8711C14.5522 10.866 14.4777 10.7086 14.4151 10.6023C14.4091 10.5938 14.4125 10.581 14.4218 10.5759C14.6064 10.4764 14.83 10.4908 15.0248 10.5512C15.2204 10.6116 15.4008 10.7129 15.5634 10.8371L15.5109 10.8958C15.3932 10.781 15.2899 10.6542 15.2009 10.5146C15.1857 10.4925 15.1959 10.4602 15.2213 10.4508C15.3305 10.4074 15.4465 10.3683 15.5727 10.376C15.8937 10.393 16.0148 10.7435 16.2646 10.8763C16.3061 10.9001 16.3611 10.9213 16.4052 10.929C16.5432 10.9392 16.6491 10.7852 16.7973 10.7895C17.1978 10.866 16.9844 11.3961 17.0759 11.6599L17.0302 11.6326C17.5518 11.5663 17.5933 11.1426 17.9202 11.8224C18.0836 12.1491 18.2759 12.1976 18.4512 11.8436C18.4935 11.7637 18.5257 11.6786 18.557 11.5935C18.5037 11.7671 18.452 11.9517 18.3123 12.0793C18.1345 12.2316 17.949 12.0002 17.8719 11.8488C17.805 11.7518 17.6983 11.4599 17.5535 11.5186C17.4011 11.5986 17.2241 11.6982 17.0429 11.7177C17.0225 11.7211 17.0039 11.7092 16.9971 11.6905C16.9235 11.4718 17.0031 11.2208 16.9362 11.0098C16.9057 10.9171 16.8184 10.855 16.7329 10.8992C16.688 10.9171 16.6414 10.9511 16.5881 10.9801C16.2841 11.1562 16.0173 10.7954 15.8369 10.604C15.6803 10.4287 15.4575 10.4423 15.2577 10.5308L15.278 10.467C15.361 10.6006 15.4618 10.7248 15.5702 10.8397C15.6049 10.8746 15.5524 10.929 15.5168 10.8975C15.3652 10.7742 15.1942 10.6712 15.0096 10.6074C14.8266 10.5453 14.62 10.5249 14.443 10.6074L14.4506 10.581C14.5099 10.6933 14.5565 10.8201 14.6911 10.8541L14.6827 10.8694C14.6107 10.7997 14.5768 10.7061 14.5218 10.6261L14.5184 10.6287Z" fill="#DDD9C7"/>
<path d="M16.2684 8.01984C16.7257 7.59527 16.8138 8.17299 16.9078 8.52268L16.8197 8.50566C16.8748 8.43759 16.9434 8.37548 17.0281 8.3406C17.3295 8.21127 17.5429 8.51417 17.4794 8.79324C17.465 8.41377 17.1492 8.24786 16.8985 8.56777C16.8748 8.6001 16.8206 8.58904 16.8104 8.55076C16.741 8.35506 16.7477 8.11173 16.6089 7.95432C16.5022 7.882 16.3743 7.96879 16.2676 8.01984H16.2684Z" fill="#DDD9C7"/>
<path d="M23.8941 8.50359C23.6807 8.50784 23.4927 8.60398 23.3487 8.74182L23.3572 8.68056C23.4723 8.85328 23.817 8.88731 23.8001 9.15617C23.7874 9.31698 23.8128 9.37569 23.9838 9.42078C23.7975 9.42844 23.7272 9.3391 23.7238 9.16043C23.6968 8.92219 23.3775 8.93496 23.275 8.72906C23.2632 8.70949 23.2682 8.68481 23.2852 8.67035C23.4478 8.52741 23.6824 8.44318 23.8941 8.50274V8.50359Z" fill="#DDD9C7"/>
<path d="M20.4403 14.6872C20.3938 14.1886 20.9324 13.5709 21.2288 14.2609L21.1602 14.2669C21.2525 13.8253 21.5726 13.9785 21.7716 14.249L21.6903 14.2771C21.6827 13.9759 21.8927 13.6917 22.1772 13.6015C22.2941 13.5692 22.2831 13.9512 22.2865 14.021C22.2865 14.1478 22.2797 14.272 22.2941 14.3903L22.2213 14.3588C22.4584 14.1665 22.7717 14.1571 23.058 14.1172C23.2426 14.0874 23.4035 13.924 23.6042 13.9436C23.8989 13.9572 24.1665 14.1197 24.3875 14.3018C24.0962 14.1035 23.6838 13.8781 23.3451 14.0721C23.2655 14.1197 23.1731 14.1733 23.0732 14.1912C22.7963 14.2465 22.5033 14.2456 22.2763 14.4345C22.2492 14.4558 22.2069 14.4371 22.2035 14.403C22.1696 14.1554 22.2221 13.9002 22.1451 13.6662L22.2077 13.6977C22.0858 13.736 21.9765 13.8143 21.8995 13.9172C21.8224 14.0202 21.7792 14.1478 21.7801 14.2771C21.7818 14.3196 21.7233 14.3392 21.6988 14.3052C21.6276 14.2141 21.5379 14.1112 21.4286 14.078C21.3067 14.0431 21.2559 14.1861 21.2296 14.2839C21.2254 14.3043 21.2042 14.3162 21.1847 14.3111C21.1737 14.3077 21.1652 14.3001 21.161 14.2899C21.1204 14.1895 21.067 14.0882 20.9789 14.0355C20.658 13.9002 20.4353 14.4303 20.4386 14.6881L20.4403 14.6872Z" fill="#DDD9C7"/>
<path d="M27.7969 13.5287C28.089 13.487 28.5921 13.5168 28.5794 13.9158C28.5794 13.9269 28.5701 13.9354 28.5599 13.9354C28.5065 13.9363 28.4701 13.915 28.4252 13.915C28.4659 13.8929 28.5184 13.9005 28.5514 13.8869L28.5311 13.9133C28.4507 13.5832 28.0518 13.63 27.7969 13.5279V13.5287Z" fill="#DDD9C7"/>
<path d="M18.6005 13.8662C18.2253 14.352 18.4582 14.4303 18.9596 14.4941C18.8639 14.5222 18.7631 14.5333 18.6606 14.5248C18.1787 14.4771 18.2499 14.0696 18.6005 13.8662Z" fill="#DDD9C7"/>
<path d="M7.25072 11.9812C7.25919 11.8544 7.39976 11.7957 7.50986 11.7812C7.64789 12.011 7.65467 12.3334 7.76391 12.5742L7.70463 12.5878C7.68516 12.3368 7.69786 12.0416 7.90703 11.8621C7.92482 11.8476 7.95022 11.8493 7.96547 11.8663C8.04676 11.9548 8.07302 12.0646 8.11282 12.153C8.14923 12.2441 8.20428 12.2892 8.30251 12.2688L8.26441 12.3113C8.27711 12.0926 8.15855 11.8884 8.14923 11.6638C8.14669 11.64 8.16194 11.6179 8.1848 11.6136C8.25001 11.5974 8.32115 11.5881 8.3872 11.5932C8.85636 11.6817 8.97577 12.29 9.05029 12.6848L8.99186 12.6525C9.16377 12.5768 9.27555 12.3921 9.33653 12.2169C9.34076 12.2041 9.35262 12.1956 9.36532 12.1956C9.46694 12.193 9.56941 12.1896 9.67273 12.1922C10.1063 12.1956 10.3079 12.3709 9.98692 12.7546C10.401 12.1726 9.76419 12.2356 9.36702 12.2602L9.39666 12.2381C9.33399 12.4372 9.2222 12.6355 9.02488 12.7308C9.00033 12.7427 8.96984 12.7256 8.96645 12.6984C8.89532 12.3385 8.75643 11.6681 8.29489 11.6936L8.21275 11.7098L8.24832 11.6596C8.25763 11.8791 8.3745 12.0884 8.35587 12.3198C8.35417 12.3411 8.33808 12.3581 8.31776 12.3615C8.26187 12.3709 8.19412 12.3709 8.13568 12.3334C7.99765 12.2347 8.00442 12.0322 7.9011 11.9267L7.95954 11.931C7.77408 12.0833 7.7546 12.3572 7.76476 12.5861C7.76899 12.621 7.71649 12.6329 7.70548 12.5997C7.60386 12.3343 7.60132 12.0535 7.49885 11.7999L7.5107 11.8068C7.404 11.8161 7.26681 11.8604 7.24902 11.9837L7.25072 11.9812Z" fill="#DDD9C7"/>
<path d="M9.04528 8.98655C8.7726 9.03845 8.30344 9.01292 8.26956 9.37793L8.25601 9.35325C8.34493 9.40175 8.45079 9.3975 8.54987 9.36772C8.6498 9.33879 8.74634 9.29114 8.85051 9.25371C8.87337 9.2452 8.89878 9.26307 8.89962 9.28774C8.90979 9.44004 8.88692 9.59659 8.9064 9.73017C8.91825 9.79654 8.95213 9.83227 9.01818 9.84078C9.23837 9.87822 9.40266 9.71826 9.5517 9.56426C9.65587 9.45791 9.74563 9.34389 9.85827 9.23244L9.84218 9.27753C9.83201 9.195 9.85319 9.12098 9.85319 9.04525C9.85319 9.01888 9.87182 8.99761 9.89722 8.99505C10.2368 8.96187 10.5891 8.83169 10.7949 8.54752L10.8169 8.61473C10.5739 8.53476 10.3046 8.49647 10.0903 8.33821C10.0649 8.32035 10.0793 8.27695 10.1089 8.2778C10.2614 8.27355 10.413 8.19868 10.4968 8.0685L10.5002 8.10083C10.2885 7.87621 9.9565 7.83197 9.67619 7.73242C9.97259 7.8124 10.3029 7.83963 10.5383 8.06425C10.5468 8.07275 10.5476 8.08637 10.5417 8.09658C10.4528 8.24462 10.2842 8.33566 10.114 8.34587L10.1318 8.28461C10.3418 8.42925 10.6043 8.45222 10.8449 8.5322C10.8728 8.54071 10.8838 8.57559 10.8669 8.59942C10.6484 8.90912 10.2707 9.05631 9.90823 9.0946L9.95227 9.0444C9.95396 9.12013 9.93533 9.19585 9.94211 9.26477C9.9438 9.28178 9.93787 9.29795 9.92686 9.30901C9.82524 9.40686 9.72785 9.52682 9.62115 9.63403C9.48988 9.7608 9.33322 9.92671 9.12658 9.93437C9.04274 9.93948 8.94789 9.93777 8.88099 9.87056C8.75396 9.7123 8.84458 9.47577 8.82679 9.29199L8.87591 9.32603C8.72517 9.37367 8.56681 9.45876 8.39913 9.4511C8.3407 9.4477 8.28311 9.43153 8.2323 9.4026C8.22298 9.3975 8.21875 9.38729 8.21875 9.37793C8.22383 9.29029 8.26448 9.20181 8.33308 9.1482C8.53717 8.99165 8.80816 9.01207 9.04782 8.98995L9.04528 8.98655Z" fill="#DDD9C7"/>
<path d="M8.95627 8.30957C8.89953 8.43805 8.88175 8.56992 8.83433 8.70436L8.81231 8.6448C8.91393 8.69415 9.01555 8.67117 9.10617 8.60736C9.19932 8.54355 9.27893 8.45166 9.36022 8.35722C9.32381 8.47974 9.2586 8.59375 9.16037 8.67883C9.05959 8.77412 8.88598 8.8039 8.76573 8.72648C8.74541 8.71457 8.73778 8.68989 8.7471 8.66947C8.80299 8.54695 8.85126 8.40316 8.95627 8.30957Z" fill="#DDD9C7"/>
<path d="M14.4731 8.98633C14.2935 9.11821 14.1665 9.34283 14.4553 9.43472C14.6763 9.49427 14.8626 9.3207 14.9668 9.13182C14.9278 9.46194 14.5196 9.70103 14.2597 9.42876C14.1038 9.24498 14.2884 9.03738 14.4739 8.98718L14.4731 8.98633Z" fill="#DDD9C7"/>
<path d="M15.9985 5.26648C16.0112 5.4409 16.0188 5.61532 16.029 5.78974L16.0053 5.76676C16.1535 5.75826 16.3008 5.71231 16.4262 5.63659C16.4431 5.62638 16.4643 5.63148 16.4744 5.6485C16.4922 5.75996 16.4897 5.87652 16.5049 5.98798C16.5473 6.44743 16.7387 6.43892 17.0884 6.22791C17.1189 6.2092 17.1147 6.2143 17.1198 6.20154C17.1291 6.15474 17.1096 6.09689 17.1257 6.03988C17.1519 5.92842 17.2976 5.91906 17.3789 5.91651C17.4941 5.92076 17.5804 5.88078 17.6888 5.8595C17.8489 5.83738 17.9852 5.79399 18.02 5.61702L18.0411 5.6536C17.9387 5.61617 17.8311 5.59319 17.7227 5.57703C17.6135 5.56171 17.5025 5.55916 17.3924 5.57022C17.3806 5.56682 17.3687 5.55916 17.3594 5.5498C17.3315 5.51832 17.367 5.48003 17.3899 5.45876C17.3755 5.47578 17.3611 5.4945 17.3577 5.51577C17.3543 5.53789 17.3747 5.55065 17.395 5.55576C17.5974 5.51322 17.8506 5.52768 18.0606 5.59319C18.0759 5.59745 18.0852 5.61361 18.0818 5.62893C18.0699 5.68508 18.0513 5.74294 18.0149 5.79314C17.9446 5.89354 17.815 5.91991 17.7075 5.94374C17.6042 5.97011 17.4898 6.01436 17.3848 6.01095C17.1604 6.02627 17.2366 6.05009 17.2163 6.22621C17.2121 6.24578 17.2002 6.26875 17.1833 6.28492C17.074 6.36149 16.9665 6.41595 16.8335 6.45338C16.5193 6.53591 16.4355 6.23983 16.4202 5.99649C16.4109 5.88673 16.4101 5.77697 16.4092 5.66807L16.4626 5.69785C16.3212 5.77272 16.1636 5.81526 16.0036 5.81356C15.9917 5.81356 15.9824 5.80335 15.9824 5.79144C15.9883 5.61617 15.9909 5.4409 15.9994 5.26562L15.9985 5.26648Z" fill="#DDD9C7"/>
<path d="M18.6912 7.3916C18.604 7.60346 18.471 7.7983 18.427 8.02292L18.3914 7.96421C18.6658 8.04504 18.9258 7.92082 19.1841 7.82638C19.0697 7.91316 18.9503 7.99399 18.8098 8.04504C18.6692 8.09609 18.5083 8.10375 18.3643 8.0595C18.3389 8.05185 18.3245 8.02632 18.3304 8.00165C18.3829 7.76256 18.5388 7.57283 18.6912 7.3916Z" fill="#DDD9C7"/>
<path d="M23.1312 6.1354C23.4309 6.12264 23.8662 6.30132 23.8137 6.66887C23.7663 6.96837 23.4648 6.97517 23.3556 6.70801L23.4411 6.71397C23.3386 6.86967 23.3403 7.08408 23.4978 7.19894C23.5334 7.22447 23.5165 7.28402 23.4741 7.28828C23.2565 7.31721 23.0329 7.28913 22.828 7.21596L22.8788 7.153C23.2311 7.80729 22.4274 7.47036 22.1895 7.24659C22.2877 7.31806 22.8365 7.58777 22.8949 7.42781C22.9017 7.35209 22.8441 7.26446 22.8051 7.19724C22.7933 7.17682 22.8 7.15044 22.8204 7.13853C22.8314 7.13173 22.8449 7.13088 22.8559 7.13513C23.0516 7.19809 23.2599 7.21766 23.4614 7.19043L23.4377 7.27977C23.3928 7.24574 23.3522 7.20234 23.3225 7.15215C23.2319 7.00155 23.2683 6.8016 23.3581 6.66377C23.3767 6.63144 23.4284 6.63484 23.4428 6.66973C23.4809 6.75991 23.5656 6.86201 23.6621 6.79139C23.7417 6.73099 23.7629 6.59485 23.7299 6.48935C23.6367 6.27069 23.3581 6.16008 23.1303 6.13711L23.1312 6.1354Z" fill="#DDD9C7"/>
<path d="M25.8236 6.95703C25.5755 7.11529 25.3096 7.16804 25.1055 7.39181C25.1825 7.08551 25.5433 6.9715 25.8236 6.95703Z" fill="#DDD9C7"/>
</g>
</svg>
