<svg viewBox="0 0 38 59" fill="none" xmlns="http://www.w3.org/2000/svg">
<path d="M20.3786 52.8315L18.6669 9.19054C17.3413 8.96561 15.1684 7.45357 14.849 5.03169C14.5722 2.92596 16.3693 0.544416 19.0128 1.32696C20.0554 1.6356 19.9608 2.49737 18.984 2.22565C17.5456 1.82776 15.7539 2.7175 15.8707 4.93983C16.015 7.69371 19.8566 8.53085 19.8566 8.53085L21.2496 49.3942L20.3786 52.8315Z" fill="#9E8D7F"/>
<path d="M20.6645 51.7138L18.9829 8.83186C17.6572 8.60693 15.4844 7.09489 15.165 4.673C15.0463 3.76556 15.3123 2.80799 15.8653 2.07146C15.1025 2.83311 14.7103 3.96963 14.8491 5.03308C15.1652 7.45401 17.3413 8.967 18.6669 9.19193L20.3786 52.8329L20.6613 51.7128L20.6645 51.7138Z" fill="#E7CEBA"/>
<path d="M19.3 1.86638C18.3521 1.60321 17.2517 1.90206 16.646 2.76953C17.2761 2.18494 18.1846 2.00377 18.9873 2.22741C19.5355 2.37923 19.8091 2.1741 19.7546 1.91023C19.6345 1.92702 19.4838 1.91731 19.3 1.86638Z" fill="#E7CEBA"/>
<path d="M23.5773 14.3991C24.2153 14.9194 24.5342 15.7047 24.7378 16.5256C24.8224 16.8647 24.8871 17.2118 24.945 17.5465C24.9751 17.7159 24.9976 17.911 24.8885 18.0322C24.809 18.1239 24.6838 18.1461 24.5853 18.2077C24.2751 18.395 24.2624 18.8623 24.0118 19.1196C23.8196 19.3209 23.5182 19.3608 23.2376 19.3893C22.554 19.4591 21.8619 19.4985 21.171 19.5103C19.8601 19.5305 18.5468 19.4523 17.2406 19.268C16.9523 19.228 16.6477 19.1727 16.4313 18.9726C16.2281 18.7868 16.1402 18.5061 16.0697 18.2375C15.9868 17.9164 15.8203 17.7833 15.7669 17.457C15.7551 17.3907 15.6913 17.0403 15.6827 16.975C15.6261 16.5534 15.7681 16.2152 15.9472 15.846C16.0906 15.55 16.335 15.3257 16.5774 15.1079C16.9895 14.7414 17.4066 14.3694 17.9025 14.1323C18.62 13.783 19.4441 13.7338 20.2554 13.7158C20.3327 13.7142 20.4067 13.7117 20.4839 13.7102C21.5545 13.6886 22.7236 13.6997 23.5815 14.3968L23.5773 14.3991Z" fill="#DF5426"/>
<path d="M24.7387 16.5221C24.7528 16.5332 24.7702 16.5454 24.7843 16.5565C24.8961 16.6385 25.0102 16.7246 25.0863 16.8448C25.3335 17.2355 25.0523 17.714 24.9026 18.1373C24.7227 18.6388 24.7385 19.1983 24.6623 19.727C24.5818 20.258 24.3669 20.819 23.8996 21.054C23.6456 21.1812 23.3486 21.1944 23.0627 21.1936C22.2663 21.1846 21.4669 21.0561 20.6976 20.8144C20.3071 20.6954 19.9198 20.5423 19.5483 20.3591C18.9746 20.0811 18.4241 19.7367 17.8159 19.5636C17.2837 19.4165 16.6737 19.379 16.2994 18.9577C16.2158 18.8631 16.1506 18.7531 16.0887 18.6441C15.8267 18.1618 15.6711 17.5679 15.8362 17.0689C15.8552 17.0048 15.8838 16.9435 15.9115 16.8854C16.0818 16.5694 16.3835 16.3517 16.6773 16.149C17.7331 15.4113 18.8673 14.6444 20.1555 14.5478C20.2241 14.5401 20.2907 14.5389 20.3615 14.5355C21.9663 14.5011 23.424 15.5293 24.7419 16.523L24.7387 16.5221Z" fill="#D54627"/>
<path d="M16.5036 19.0219C16.42 18.9274 16.3548 18.8174 16.2929 18.7083C16.0309 18.226 15.8753 17.6321 16.0404 17.1332C16.0594 17.069 16.088 17.0077 16.1157 16.9496C16.286 16.6336 16.5877 16.4159 16.8815 16.2132C17.9373 15.4755 19.0715 14.7087 20.3597 14.612C20.4283 14.6044 20.4949 14.6032 20.5658 14.5997C20.9487 14.5909 21.3232 14.646 21.6886 14.7437C21.2551 14.6049 20.8132 14.5299 20.3572 14.538C20.2874 14.5382 20.2198 14.5426 20.1512 14.5503C18.863 14.6469 17.7288 15.4138 16.6729 16.1515C16.3792 16.3542 16.0784 16.5687 15.9072 16.8879C15.8753 16.9482 15.8499 17.0105 15.8319 17.0714C15.6667 17.5704 15.8192 18.1633 16.0844 18.6466C16.1454 18.7588 16.2115 18.8656 16.2951 18.9602C16.5152 19.2068 16.8166 19.3204 17.1338 19.4038C16.8951 19.3262 16.6732 19.2152 16.5036 19.0219Z" fill="#F36F40"/>
<path d="M19.7522 20.4226C19.1785 20.1446 18.6279 19.8002 18.0197 19.6271C17.9972 19.6205 17.9716 19.6129 17.9491 19.6062C18.5058 19.7885 19.0171 20.1003 19.5478 20.3586C19.9202 20.5386 20.3043 20.6907 20.697 20.814C20.7484 20.8292 20.7997 20.8444 20.851 20.8596C20.4776 20.742 20.1117 20.5988 19.7586 20.4245L19.7522 20.4226Z" fill="#F36F40"/>
<g style="mix-blend-mode:multiply">
<path d="M23.5763 14.3983C24.2144 14.9187 24.5332 15.7039 24.7368 16.5249C24.751 16.536 24.7683 16.5482 24.7825 16.5593C24.8943 16.6413 25.0084 16.7274 25.0844 16.8476C25.3317 17.2383 25.0504 17.7168 24.9007 18.1401C24.7208 18.6416 24.7367 19.2011 24.6604 19.7298C24.58 20.2608 24.3651 20.8218 23.8977 21.0568C23.6437 21.184 23.3467 21.1972 23.0609 21.1963C22.2645 21.1874 21.4651 21.0589 20.6957 20.8172C20.8996 20.3996 21.0692 19.9682 21.1691 19.5128L21.1719 19.5032C21.3314 18.7758 21.3109 17.9846 21.0068 17.291C20.9254 17.1063 20.8219 16.9257 20.7635 16.7339C20.6546 16.3946 20.6824 16.0295 20.6071 15.6827C20.5295 15.3318 20.3511 15.0033 20.098 14.7504C20.117 14.6862 20.1379 14.6157 20.1569 14.5515C20.2229 14.2814 20.2577 13.9987 20.2567 13.7192C20.3339 13.7176 20.408 13.7151 20.4852 13.7136C21.5558 13.692 22.7249 13.7031 23.5828 14.4002L23.5763 14.3983Z" fill="#ECC39F"/>
</g>
<path d="M23.3659 17.0226C23.6387 17.1383 23.9437 17.1099 24.2333 17.1573C24.7697 17.2428 25.2462 17.5897 25.6428 17.9828C25.9615 18.2969 26.2535 18.666 26.3551 19.1008C26.5332 19.8549 26.1065 20.6009 26.1516 21.3679C26.175 21.8075 26.3516 22.2715 26.1765 22.6628C26.1136 22.8047 26.0118 22.9246 25.9777 23.075C25.9739 23.0879 25.9701 23.1007 25.9727 23.1154C25.9552 23.2219 25.9674 23.3337 25.9659 23.4449C25.9572 23.875 25.6801 24.257 25.312 24.4516C24.9406 24.6453 24.4978 24.6677 24.0809 24.5792C23.8997 24.543 23.7187 24.4824 23.5345 24.4802C23.1306 24.4654 22.7745 24.7019 22.441 24.9207C21.887 25.2836 21.3105 25.6398 20.7055 25.9038C20.2559 26.1022 19.7867 26.2494 19.2988 26.3179C19.0766 26.3498 18.8462 26.3618 18.6328 26.2812C18.3722 26.1831 18.174 25.957 17.9308 25.8117C17.5698 25.5932 17.1381 25.5666 16.7346 25.4681C16.3269 25.3718 15.8941 25.16 15.7472 24.7605C15.7135 24.6738 15.6965 24.5781 15.6776 24.4887C15.6557 24.3741 15.637 24.2604 15.6142 24.1489C15.5652 23.8902 15.5184 23.6356 15.4726 23.3778C15.3372 22.6329 15.2084 21.8306 15.5386 21.1746C15.6229 21.0077 15.7352 20.8525 15.7893 20.6696C15.8985 20.3007 15.7465 19.9068 15.6531 19.5267C15.5434 19.072 15.5263 18.5994 15.5977 18.146C15.6222 17.9928 15.6623 17.8337 15.759 17.7192C15.8426 17.6253 15.9571 17.5685 16.0675 17.5139C16.3071 17.3999 16.5522 17.2911 16.7986 17.1895C17.0657 17.0767 17.3342 16.9713 17.604 16.8732C17.8581 16.7809 18.1187 16.6905 18.3837 16.6085C18.9023 16.448 19.4289 16.3073 19.9618 16.1929C19.9839 16.1889 20.006 16.185 20.029 16.1779C20.9077 15.9914 21.9155 15.8989 22.6505 16.4689C22.8887 16.6545 23.0899 16.906 23.3659 17.0226Z" fill="#A45B38"/>
<path d="M21.359 18.9794C21.4752 19.0347 21.5946 19.091 21.7108 19.1464C22.5221 19.5296 23.3333 19.9128 24.1413 20.295C24.365 20.3996 24.5975 20.5103 24.7523 20.7062C24.9426 20.9474 24.9874 21.2677 25.0871 21.5555C25.2688 22.0733 25.6443 22.502 25.9063 22.9843C25.9289 23.0259 25.9515 23.0675 25.9699 23.1113C26.1889 23.5739 26.2778 24.1341 25.9905 24.5271C25.7306 24.8863 25.1844 25.1049 25.2036 25.5468C25.2007 25.5564 25.2024 25.5743 25.205 25.5891C25.2219 25.7441 25.3167 25.8838 25.364 26.0304C25.5041 26.4766 25.2132 26.9523 24.816 27.1627C24.4187 27.3731 23.9489 27.3806 23.498 27.3832C22.7562 27.3904 22.0015 27.3938 21.2671 27.2462C20.8951 27.1709 20.5175 27.0557 20.1449 26.9942C19.965 26.9654 19.7887 26.9481 19.6089 26.9542C19.3804 26.9598 19.1543 27.0046 18.9278 27.0038C18.572 27.0032 18.2173 26.9051 17.8708 26.8025C17.2901 26.6306 16.6609 26.4339 16.2813 25.9482C16.2214 25.8677 16.1666 25.7817 16.1192 25.6944C15.918 25.3487 15.7685 24.9695 15.6812 24.5807C15.65 24.4389 15.6279 24.2893 15.622 24.1445C15.6026 23.7619 15.6871 23.3822 15.9696 23.1587C16.052 23.0924 16.1509 23.0414 16.2256 22.9658C16.3625 22.8215 16.3944 22.6076 16.4354 22.4103C16.6251 21.4511 17.0899 20.5175 17.9008 20.0178C18.187 19.8409 18.507 19.7262 18.7941 19.5461C19.275 19.2418 19.6763 18.7465 20.2372 18.6787C20.252 18.6761 20.2667 18.6735 20.2814 18.6709C20.654 18.6381 21.0228 18.8066 21.3683 18.9717L21.359 18.9794Z" fill="#C56D41"/>
<path d="M23.365 17.0223C23.6378 17.138 23.9428 17.1096 24.2324 17.157C24.7688 17.2425 25.2453 17.5894 25.6419 17.9825C25.9606 18.2966 26.2527 18.6657 26.3542 19.1005C26.5323 19.8546 26.1056 20.6006 26.1507 21.3676C26.1741 21.8072 26.3507 22.2712 26.1756 22.6625C26.1127 22.8044 26.0109 22.9243 25.9768 23.0747C25.973 23.0876 25.9692 23.1004 25.9718 23.1151C26.1908 23.5777 26.2797 24.1379 25.9924 24.5309C25.7325 24.8901 25.1863 25.1087 25.2055 25.5506C25.0863 25.5642 24.9678 25.564 24.8498 25.55C24.9275 25.1578 25.2275 24.8279 25.3134 24.4555C25.3326 24.367 25.3431 24.2724 25.3325 24.1785C25.3053 23.9053 25.131 23.6688 24.9658 23.4489C24.8428 23.2869 24.6992 23.1118 24.5014 23.0846C24.6186 22.889 24.803 22.7377 25.0142 22.6607C25.2239 22.1645 25.0698 21.5536 24.7464 21.1019C24.422 20.6535 23.9517 20.3328 23.4767 20.0631C22.8948 19.7304 22.283 19.4516 21.655 19.2273C21.6241 19.1902 21.6612 19.1593 21.7137 19.147C21.7432 19.1417 21.7749 19.1406 21.7996 19.1515C22.7504 19.4992 23.7012 19.847 24.6521 20.1947C24.6559 19.9342 24.4836 19.6913 24.2658 19.543C24.047 19.398 23.7907 19.3326 23.5408 19.2691C23.8508 19.1061 24.2685 19.4043 24.5852 19.2538C24.8059 19.1446 24.8789 18.8627 24.9084 18.6097C24.914 18.5555 24.9173 18.4972 24.8902 18.4473C24.8621 18.4006 24.8105 18.3749 24.762 18.35C24.1343 18.0421 23.5057 17.7374 22.8781 17.4295C22.6617 17.3236 22.4316 17.2171 22.1938 17.2304C21.933 17.2509 21.7122 17.4193 21.5071 17.5819C21.7018 17.3011 21.5295 16.8698 21.2381 16.6753C20.9477 16.4777 20.5839 16.4572 20.2429 16.454C19.6211 16.4444 18.989 16.4701 18.3892 16.6101C18.9318 16.4392 19.4796 16.2978 20.0345 16.1795C20.9132 15.993 21.9211 15.9005 22.6561 16.4705C22.8942 16.6561 23.0954 16.9076 23.3714 17.0242L23.365 17.0223Z" fill="#79462D"/>
<g style="mix-blend-mode:multiply">
<path d="M23.3653 17.0217C23.6381 17.1373 23.9431 17.109 24.2326 17.1563C24.7691 17.2418 25.2456 17.5888 25.6422 17.9818C25.9609 18.296 26.2529 18.6651 26.3545 19.0999C26.5325 19.8539 26.1058 20.5999 26.1509 21.367C26.1743 21.8066 26.351 22.2706 26.1759 22.6619C26.1129 22.8038 26.0111 22.9237 25.9771 23.0741C25.9733 23.0869 25.9695 23.0997 25.9721 23.1145C26.1911 23.5771 26.2799 24.1372 25.9926 24.5302C25.7328 24.8895 25.1865 25.1081 25.2058 25.5499C25.2029 25.5596 25.2046 25.5775 25.2072 25.5922C25.2241 25.7473 25.3189 25.887 25.3662 26.0336C25.5062 26.4798 25.2154 26.9555 24.8181 27.1659C24.4209 27.3763 23.9511 27.3837 23.5002 27.3864C22.7584 27.3935 22.0037 27.3969 21.2693 27.2493C20.8973 27.1741 20.5197 27.0588 20.1471 26.9974C20.3791 26.6613 20.5678 26.295 20.7112 25.9048C21.3323 24.2428 21.1336 22.2265 20.1042 20.718C20.1766 20.6975 20.248 20.6803 20.3162 20.6621C20.3931 20.4022 20.471 20.1392 20.5543 19.8812C20.6282 19.6553 20.7081 19.4208 20.6745 19.1805C20.6442 18.9413 20.458 18.6978 20.2218 18.6941C20.2228 18.6909 20.2247 18.6845 20.2288 18.6822C20.4202 18.3306 20.6121 17.9652 20.6715 17.5641C20.7296 17.1556 20.6228 16.6913 20.3004 16.4249C20.1969 16.3385 20.073 16.2739 19.9611 16.1919C19.9832 16.188 20.0053 16.1841 20.0284 16.1769C20.9071 15.9904 21.9149 15.898 22.6499 16.468C22.888 16.6536 23.0893 16.9051 23.3653 17.0217Z" fill="#E6D1C9"/>
</g>
<path d="M25.6567 24.9336C25.7417 25.7543 25.5409 26.5742 25.607 27.3998C25.6098 27.4494 25.6157 27.5 25.6217 27.5506C25.6249 27.5516 25.623 27.558 25.6221 27.5612C25.6323 27.6445 25.6448 27.732 25.6573 27.8194C25.6977 28.107 25.7424 28.3924 25.7236 28.6799C25.7033 29.0194 25.5927 29.346 25.4158 29.6251C25.2469 29.8892 25.0183 30.1076 24.7503 30.2586C23.4799 29.8825 22.1738 29.6738 20.8649 29.6283C20.3434 29.61 19.8185 29.6151 19.2989 29.6497C18.833 29.6793 18.3573 29.7304 17.9031 29.6029C17.2522 29.4207 16.7964 28.9683 16.4915 28.4069C16.1405 27.7657 15.9829 26.9898 15.9407 26.3073C15.9074 25.795 15.941 25.2572 16.1846 24.8233C16.3543 24.5211 16.6162 24.2846 16.8721 24.0568C17.2716 23.6971 17.6735 23.3415 18.0753 22.9859C18.3836 22.7108 18.6918 22.4357 19.0336 22.2123C19.3878 21.9822 19.7756 21.8039 20.1793 21.6896C20.736 21.5299 21.3261 21.4813 21.9045 21.5548C23.6429 21.7763 25.4604 23.0506 25.6544 24.9294L25.6567 24.9336Z" fill="#D7C45B"/>
<path d="M22.1643 23.4018C22.3696 23.4625 22.5406 23.6039 22.7052 23.7433C23.0604 24.0404 23.4146 24.3406 23.7721 24.6419C24.0402 24.8678 24.3083 25.0937 24.5355 25.3633C24.8586 25.7451 25.0859 26.2032 25.3004 26.6575C25.4341 26.9483 25.5669 27.2423 25.6292 27.5504C25.6324 27.5513 25.6305 27.5577 25.6296 27.5609C25.6459 27.6355 25.659 27.7092 25.6637 27.7874C25.6641 27.798 25.6645 27.8085 25.6648 27.8191C25.6946 28.2606 25.561 28.6886 25.4879 29.124C25.4606 29.2869 25.441 29.4591 25.4234 29.6249C25.3809 29.9333 25.333 30.2366 25.1971 30.507C24.7486 31.421 23.6684 31.0977 22.894 30.8615C22.0938 30.6176 21.2601 30.5697 20.4327 30.4888C20.0567 30.4507 19.6825 30.4063 19.3127 30.3352C18.3641 30.1451 16.8865 29.4669 16.4972 28.4131C16.403 28.1654 16.3706 27.8976 16.4202 27.6122C16.5021 27.1235 16.7745 26.6982 17.0422 26.289C17.2847 25.9176 17.5324 25.5408 17.8054 25.1959C18.0836 24.8456 18.3936 24.5291 18.7564 24.2702C19.2195 23.9432 19.7472 23.74 20.2964 23.606C20.7257 23.4993 21.1703 23.4355 21.6101 23.3877C21.7946 23.3656 21.9888 23.3463 22.1684 23.3995L22.1643 23.4018Z" fill="#F7DFAF"/>
<path d="M17.2113 25.2232C17.287 25.1444 17.4178 25.1622 17.5225 25.1269C17.7212 25.0567 17.7719 24.803 17.8487 24.6024C17.9891 24.2462 18.2935 23.9839 18.632 23.8189C18.9778 23.6526 20.622 23.5322 20.335 22.875C20.2603 22.7029 20.0706 22.6013 19.8869 22.5853C18.9175 22.5007 17.8892 23.4874 17.2856 24.1356C17.2029 24.2263 17.1202 24.317 17.0176 24.3808C16.945 24.4256 16.8592 24.456 16.7866 24.5009C16.6498 24.586 16.5465 24.7228 16.5054 24.8852C16.6604 25.2102 16.8717 25.51 17.1249 25.7629C17.2493 25.6253 17.0846 25.3567 17.2123 25.22L17.2113 25.2232Z" fill="#E3D060"/>
<g style="mix-blend-mode:multiply">
<path d="M25.657 24.9353C25.742 25.756 25.5412 26.5759 25.6073 27.4015C25.6101 27.4511 25.616 27.5017 25.622 27.5523C25.6252 27.5533 25.6233 27.5597 25.6223 27.5629C25.6386 27.6375 25.6517 27.7112 25.6565 27.7893C25.6569 27.7999 25.6572 27.8105 25.6576 27.8211C25.698 28.1087 25.7427 28.3941 25.7239 28.6816C25.7036 29.0211 25.593 29.3477 25.4161 29.6268C25.3737 29.9353 25.3258 30.2386 25.1899 30.5089C24.7414 31.4229 23.6612 31.0997 22.8867 30.8634C22.0866 30.6196 21.2529 30.5717 20.4255 30.4908C20.6027 30.2222 20.7506 29.9345 20.862 29.629C21.0096 29.2366 21.1004 28.8238 21.1273 28.4026C21.1487 28.0949 21.136 27.7841 21.1233 27.4733C21.1014 26.9225 21.0557 26.3227 20.6933 25.9084C20.4578 25.6433 20.0843 25.4315 20.0766 25.0803C20.0731 24.9153 20.1587 24.7557 20.135 24.5882C20.1196 24.4754 20.0548 24.376 20.0352 24.2655C19.9888 24.0215 20.1498 23.8075 20.2923 23.6089C20.2993 23.597 20.3095 23.5861 20.3166 23.5742C20.6217 23.1446 20.8027 22.5213 20.488 22.0757C20.3946 21.9434 20.2605 21.8304 20.1818 21.6955C20.7385 21.5358 21.3287 21.4872 21.9071 21.5607C23.6454 21.7822 25.463 23.0564 25.657 24.9353Z" fill="#E6DEC8"/>
</g>
<path d="M25.4357 25.5397C25.339 26.1845 25.5031 26.8088 25.7486 27.4293C26.1795 28.5199 26.8609 29.6009 26.827 30.7528C26.7842 32.2056 25.6064 33.4027 25.6229 34.8556C25.6287 35.2133 25.7034 35.5738 25.6678 35.9297C25.64 36.2006 25.5224 36.4798 25.3128 36.6341C25.253 36.6827 25.1801 36.7169 25.1013 36.7355C24.8714 36.793 24.6356 36.7058 24.4084 36.6246C23.9027 36.4469 23.3862 36.294 22.8599 36.1976C22.1547 36.0691 21.4403 36.0425 20.734 35.9416C20.4521 35.9035 20.1709 35.8517 19.8948 35.7944C19.2793 35.6575 18.6749 35.4716 18.0856 35.2344C17.8173 35.1271 17.5583 35.012 17.2966 34.8822C16.9618 34.7168 16.6185 34.5209 16.3911 34.2164C16.2182 33.9872 16.1252 33.712 16.0354 33.4376C15.8555 32.8785 15.6996 32.3089 15.5617 31.7377C15.3332 30.7768 15.1743 29.7458 15.5088 28.8399C15.6833 28.3682 15.9859 27.9588 16.3153 27.5888C17.2086 26.5866 18.3609 25.853 19.6197 25.4196C19.7766 25.3614 19.9369 25.3146 20.0973 25.2679C21.8296 24.7793 23.7267 24.8419 25.4376 25.5333L25.4357 25.5397Z" fill="#A45B38"/>
<path d="M24.4217 28.1423C25.2016 30.9063 25.5041 33.7978 25.3112 36.6298C25.2934 36.9141 25.2681 37.1997 25.2406 37.4812C25.2028 37.8329 25.1111 38.2489 24.7833 38.3542C24.5791 38.4194 24.3538 38.3317 24.1519 38.2476C22.6212 37.5956 21.1201 36.879 19.6495 36.0948C19.1213 35.8163 18.5992 35.5291 18.0799 35.2324C17.8587 35.1075 17.6384 34.9795 17.4181 34.8515C17.2376 34.7422 17.0352 34.6125 16.9825 34.4015C16.9396 34.2283 17.0139 34.048 17.0068 33.8714C16.9896 33.4581 16.5602 33.1879 16.3905 32.8062C16.0569 32.0828 16.7416 31.2667 16.5481 30.4941C17.6197 30.1274 18.6961 29.7796 19.7775 29.4507C21.3175 28.975 22.8663 28.5402 24.4249 28.1432L24.4217 28.1423Z" fill="#C56D41"/>
<path d="M25.4357 25.5391C25.3391 26.1839 25.5032 26.8082 25.7487 27.4287C25.7981 27.7922 25.9308 28.1455 26.1338 28.4499C25.7566 27.944 25.2507 27.4488 24.6782 27.5794C25.0815 28.763 25.4419 29.9618 25.754 31.1708C25.5893 31.1848 25.4256 31.1957 25.2619 31.2065C25.3228 31.5665 25.385 31.9338 25.446 32.2938C25.3643 32.2278 25.2785 32.164 25.1969 32.098C25.1262 32.0421 25.0577 31.9905 24.987 31.9347C25.1357 33.3185 24.5294 34.7302 23.4468 35.5228C24.2414 34.6065 24.3161 33.1876 23.8791 32.0115C23.6215 31.3141 22.9561 30.5798 22.2901 30.8258C22.4857 30.601 22.2602 30.1958 21.9639 30.136C21.6685 30.073 21.3865 30.2477 21.1677 30.4447C20.9512 30.6457 20.755 30.8842 20.4895 31.015C20.5297 30.7024 20.5689 30.393 20.6059 30.0794C20.0063 29.8182 19.3477 29.721 18.7092 29.7797C18.1127 29.8264 17.5337 30.0144 17.032 30.33C16.9262 30.3928 16.8207 30.4663 16.7216 30.5416C16.7349 30.4967 16.7537 30.4569 16.7734 30.4139C17.0911 29.7648 17.9664 29.6017 18.6992 29.4836C19.9226 29.2875 21.1721 28.9211 22.0431 28.0415C22.0468 27.4633 22.5214 26.9444 23.0824 26.9116C22.4762 26.5786 21.7837 26.4189 21.1118 26.4608C21.3944 26.2723 21.6255 25.9988 21.7682 25.6816C21.2453 25.3733 20.6751 25.2603 20.089 25.2718C21.8213 24.7831 23.7184 24.8458 25.4293 25.5372L25.4357 25.5391Z" fill="#813F21"/>
<g style="mix-blend-mode:multiply">
<path d="M25.4358 25.5397C25.3391 26.1845 25.5033 26.8088 25.7488 27.4293C26.1796 28.5199 26.861 29.6009 26.8271 30.7528C26.7843 32.2056 25.6065 33.4027 25.623 34.8556C25.6288 35.2132 25.7035 35.5738 25.668 35.9297C25.6401 36.2006 25.5225 36.4798 25.3129 36.6341C25.295 36.9184 25.2698 37.204 25.2423 37.4855C25.2045 37.8372 25.1127 38.2531 24.785 38.3585C24.5807 38.4237 24.3555 38.336 24.1536 38.2518C22.6229 37.5998 21.1218 36.8833 19.6512 36.099C19.7335 35.9978 19.8116 35.8988 19.8907 35.7966C20.6048 34.8461 21.0807 33.7099 21.2709 32.5135C21.3423 32.0601 21.372 31.5944 21.2563 31.1484C21.0654 30.3905 20.434 29.7535 19.6959 29.5594C19.7233 29.5257 19.7507 29.4919 19.7782 29.4582C20.2731 28.7882 20.3595 27.8717 20.4256 27.012C20.4457 26.7318 20.4642 26.4337 20.3453 26.1752C20.2413 25.949 20.0461 25.7831 19.8587 25.6264C19.7812 25.5581 19.6987 25.4953 19.6212 25.427C19.778 25.3687 19.9384 25.322 20.0988 25.2753C21.831 24.7866 23.7281 24.8492 25.439 25.5407L25.4358 25.5397Z" fill="#E6D1C9"/>
</g>
<path d="M24.6263 31.7999C25.0552 31.9897 25.2244 32.5143 25.3404 32.9709C25.4318 33.3224 25.519 33.6762 25.6103 34.0277C25.6626 34.2282 25.714 34.4318 25.7221 34.6401C25.7303 34.8483 25.6925 35.0465 25.6314 35.2413C25.5507 35.514 25.4163 35.7673 25.283 36.0174C25.1926 36.1931 25.099 36.3677 25.0055 36.5424C24.9469 36.6577 24.8861 36.7688 24.7929 36.8598C24.676 36.9717 24.5233 37.0277 24.3707 37.0837C23.5696 37.3735 22.7579 37.6636 21.908 37.7295C21.7898 37.7399 21.6703 37.7429 21.5517 37.7427C20.314 37.7392 19.1247 37.1952 17.9762 36.6668C17.4824 36.4369 16.9682 36.1939 16.5477 35.8461C16.368 35.6987 16.2078 35.5327 16.069 35.3416C15.9634 35.1916 15.873 35.0253 15.8426 34.8453C15.8192 34.6884 15.8414 34.531 15.8668 34.3745C16.0157 33.459 16.3129 32.4549 17.1152 32.0433C17.4814 31.8552 17.912 31.8151 18.2637 31.6052C18.5438 31.4369 18.7979 31.1562 19.1277 31.1736C19.3101 31.1822 19.4765 31.2803 19.644 31.3509C19.7214 31.3842 19.8048 31.4089 19.8859 31.4295C20.9043 31.6786 22.0143 31.0407 23.0451 31.3423C23.3627 31.4363 23.6579 31.6179 23.984 31.683C24.1982 31.7255 24.4235 31.7189 24.6244 31.8063L24.6263 31.7999Z" fill="#DF5426"/>
<path d="M24.4979 32.9516C24.7726 33.155 25.0295 33.3951 25.1985 33.6964C25.3595 33.9778 25.4328 34.2961 25.506 34.6143C25.5532 34.8202 25.5995 35.0293 25.6311 35.241C25.7177 35.797 25.7143 36.3508 25.4114 36.7846C25.2441 37.0316 24.9877 37.2139 24.8743 37.4909C24.7501 37.7926 24.8034 38.1782 24.5893 38.4184C24.4476 38.5789 24.227 38.6287 24.0179 38.675C23.6868 38.7444 23.3515 38.8161 23.0226 38.8898C22.7546 38.9465 22.4866 39.0033 22.2094 39.0084C22.1184 39.0094 22.0261 39.003 21.937 38.9976C21.6459 38.9672 21.3617 38.8901 21.0761 38.8056C19.8676 38.4443 18.6945 37.94 17.5869 37.3086C17.1896 37.0828 16.7604 36.7883 16.653 36.3378C16.6172 36.1876 16.6215 36.0318 16.5649 35.893C16.559 35.8773 16.5523 35.8648 16.5423 35.8514C16.4774 35.717 16.3732 35.6094 16.2926 35.4809C15.9535 34.9408 16.2054 34.2548 16.4636 33.6892C16.5316 33.5418 16.6006 33.3913 16.6979 33.263C16.791 33.1371 16.9114 33.0367 17.0422 32.9602C17.6907 32.573 18.5567 32.7595 19.2323 32.4222C19.3583 32.3618 19.473 32.2806 19.6017 32.235C19.6248 32.2278 19.6446 32.2197 19.6635 32.2149C19.8188 32.1736 19.9838 32.1701 20.1488 32.1666C20.5974 32.1599 21.0502 32.1508 21.4998 32.1409C21.9061 32.1355 22.3144 32.1238 22.7168 32.1906C23.3533 32.2918 23.9683 32.5715 24.495 32.9612L24.4979 32.9516Z" fill="#D54627"/>
<path d="M17.7969 37.3635C17.3996 37.1377 16.9704 36.8432 16.863 36.3927C16.8272 36.2425 16.8314 36.0867 16.7749 35.9479C16.769 35.9322 16.7623 35.9197 16.7523 35.9063C16.6874 35.7719 16.5831 35.6643 16.5026 35.5358C16.1635 34.9957 16.4154 34.3097 16.6736 33.7441C16.7416 33.5967 16.8106 33.4462 16.9079 33.3179C17.001 33.192 17.1214 33.0916 17.2522 33.0151C17.9007 32.6279 18.7667 32.8144 19.4422 32.4771C19.5683 32.4167 19.683 32.3355 19.8117 32.2899C19.8348 32.2827 19.8546 32.2746 19.8735 32.2698C20.0288 32.2285 20.1938 32.225 20.3588 32.2215C20.8074 32.2148 21.2602 32.2057 21.7098 32.1958C22.1161 32.1904 22.5244 32.1787 22.9268 32.2455C23.0502 32.2646 23.1676 32.2923 23.2873 32.3243C23.0999 32.2618 22.9119 32.2132 22.7183 32.1837C22.3149 32.1202 21.9076 32.1287 21.5013 32.134C21.0526 32.1408 20.5999 32.1498 20.1503 32.1598C19.9853 32.1633 19.8202 32.1668 19.665 32.208C19.6429 32.212 19.623 32.22 19.6032 32.2281C19.4736 32.277 19.3598 32.355 19.2337 32.4154C18.5613 32.7537 17.6922 32.5661 17.0437 32.9534C16.9119 33.033 16.7915 33.1335 16.6993 33.2562C16.5989 33.3835 16.5331 33.535 16.465 33.6823C16.2069 34.2479 15.9549 34.934 16.294 35.474C16.3756 35.5994 16.4788 35.7102 16.5437 35.8445C16.5505 35.857 16.5605 35.8704 16.5663 35.8861C16.622 36.0282 16.6209 36.1849 16.6545 36.3309C16.7619 36.7814 17.1879 37.075 17.5883 37.3017C18.6959 37.9332 19.8691 38.4375 21.0776 38.7987C21.1353 38.8158 21.1899 38.832 21.2476 38.849C20.0529 38.4884 18.8926 37.9879 17.7969 37.3635Z" fill="#F36F40"/>
<g style="mix-blend-mode:multiply">
<path d="M24.6255 31.7996C25.0543 31.9893 25.2235 32.514 25.3396 32.9705C25.4309 33.3221 25.5181 33.6759 25.6094 34.0274C25.6617 34.2278 25.7131 34.4315 25.7213 34.6397C25.7294 34.848 25.6917 35.0462 25.6305 35.2409C25.7171 35.7969 25.7137 36.3507 25.4109 36.7845C25.2435 37.0315 24.9872 37.2138 24.8738 37.4908C24.7496 37.7925 24.8029 38.1782 24.5887 38.4183C24.447 38.5788 24.2264 38.6286 24.0173 38.6749C23.6862 38.7443 23.3509 38.816 23.0221 38.8897C22.7541 38.9464 22.4861 39.0032 22.2089 39.0083C22.1179 39.0093 22.0255 39.0029 21.9364 38.9975C21.9602 38.5753 21.9532 38.1511 21.9071 37.7292C21.8828 37.4812 21.8447 37.2327 21.7919 36.9867C21.464 35.3718 20.6121 33.853 19.4053 32.7317C19.5011 32.5611 19.5905 32.3887 19.6681 32.2093C19.7739 31.958 19.8549 31.6959 19.886 31.4259C20.9044 31.675 22.0144 31.0371 23.0452 31.3388C23.3628 31.4328 23.6579 31.6144 23.9841 31.6795C24.1983 31.722 24.4236 31.7154 24.6245 31.8028L24.6255 31.7996Z" fill="#ECC39F"/>
</g>
<path d="M23.6405 34.1493C23.9438 34.3507 24.2525 34.5572 24.4874 34.8361C24.7215 35.1183 24.875 35.4952 24.8129 35.8467C25.4066 35.8096 25.9742 36.4382 25.8931 37.0422C25.8657 37.2644 25.7629 37.4818 25.7981 37.705C25.8242 37.8523 25.9071 37.985 25.948 38.1297C26.0055 38.3596 25.9362 38.5938 25.8684 38.811C25.7541 39.1854 25.6296 39.5707 25.4617 39.9258C25.4251 40.0022 25.3843 40.0808 25.3414 40.1553C25.1637 40.4726 24.9414 40.7522 24.6444 40.9539C24.2553 41.2191 23.776 41.3179 23.3408 41.5032C22.7127 41.7743 22.1776 42.2265 21.5824 42.5633C20.9905 42.901 20.276 43.1221 19.6186 42.9031L19.6025 42.8983C19.3176 42.8 19.0564 42.6215 18.7753 42.5104C18.3064 42.3262 17.7805 42.3346 17.3079 42.1632C17.2277 42.1395 17.1513 42.1029 17.0758 42.0631C16.4593 41.7411 16.112 41.0521 15.8923 40.3799C15.761 39.9747 15.663 39.5514 15.6964 39.1321C15.7124 38.9484 15.755 38.7691 15.7319 38.5878C15.7003 38.2819 15.4942 38.0115 15.4553 37.7069C15.4112 37.3728 15.5709 37.0572 15.697 36.7491C15.8189 36.4432 15.9038 36.0741 15.731 35.7856C15.731 35.7856 15.7302 35.7842 15.7287 35.7815C16.1534 35.7258 16.5279 35.4981 16.9066 35.3032C17.64 34.9236 18.4267 34.6471 19.2414 34.4765C19.4578 34.4289 19.6747 34.3919 19.8928 34.3623C20.4565 34.2849 21.0358 34.261 21.5568 34.0454C21.8752 33.9128 22.1712 33.7143 22.522 33.6961C22.9248 33.6792 23.3012 33.9163 23.6456 34.1438L23.6405 34.1493Z" fill="#A45B38"/>
<path d="M24.6242 37.0059C24.6684 37.6819 24.815 38.3534 25.0632 38.9886C25.1851 39.3074 25.3321 39.6125 25.4624 39.9268C25.5804 40.2234 25.6828 40.5259 25.7326 40.8407C25.8331 41.4915 25.6246 42.2428 25.0491 42.5016C24.8958 42.5714 24.719 42.6028 24.5948 42.7161C24.5271 42.7798 24.478 42.863 24.4277 42.9388C23.9226 43.7139 23.075 44.1608 22.2593 44.5823C21.966 44.7363 21.6621 44.8906 21.3267 44.9274C20.8837 44.9742 20.4546 44.8088 20.05 44.5843C19.8795 44.4885 19.7118 44.383 19.5506 44.2795C19.0019 43.9286 18.4337 43.5615 18.0763 43.0126C17.9612 42.8355 17.8689 42.6406 17.72 42.4954C17.5993 42.3724 17.4494 42.2897 17.3144 42.1799C17.3144 42.1799 17.3112 42.179 17.3089 42.1748C16.9814 41.9139 16.7653 41.5359 16.5602 41.1681C16.3424 40.7721 16.1152 40.349 16.1351 39.9047C16.1498 39.6195 16.2654 39.3467 16.2419 39.0606C16.2051 38.631 15.872 38.1415 16.1461 37.8284C16.2144 37.7509 16.3091 37.7022 16.4028 37.6567C16.9569 37.388 17.5141 37.1203 18.0682 36.8516C18.2963 36.7412 18.5286 36.6285 18.776 36.5587C19.1419 36.4542 19.5281 36.4464 19.9136 36.4523C19.9306 36.4539 19.9485 36.4522 19.9655 36.4538C21.5279 36.4801 23.0915 36.6673 24.6297 37.011L24.6242 37.0059Z" fill="#C56D41"/>
<path d="M23.641 34.1492C23.9442 34.3506 24.253 34.5572 24.4879 34.8361C24.7219 35.1182 24.8755 35.4951 24.8133 35.8466C25.407 35.8095 25.9746 36.4381 25.8935 37.0422C25.8629 37.2634 25.7634 37.4817 25.7985 37.7049C25.8247 37.8522 25.9075 37.9849 25.9484 38.1296C26.006 38.3595 25.9367 38.5937 25.8689 38.8109C25.7299 39.2687 25.5755 39.7429 25.3418 40.1553C25.2188 39.899 25.1095 39.6434 25.0768 39.365C25.0701 39.2932 25.0644 39.2183 25.094 39.1538C25.1302 39.0668 25.2088 39.0133 25.2701 38.9477C25.4901 38.7232 25.5362 38.367 25.5136 38.0428C25.4919 37.7153 25.4131 37.3919 25.4392 37.0682C25.4455 36.9409 25.467 36.7973 25.3936 36.6918C25.3459 36.6288 25.2705 36.589 25.2018 36.5617C24.4969 36.2554 23.7172 36.1432 22.9699 36.2395C23.3961 36.0726 24.0045 36.2806 24.2527 35.89C24.4187 35.6356 24.2834 35.2675 24.0631 35.0453C23.5269 34.4992 22.6798 34.5555 21.9472 34.6492C21.6647 34.6842 21.2974 34.8407 21.3663 35.1263C20.9968 34.8424 20.3801 35.1693 20.4055 35.6374C19.3485 34.9058 17.8864 34.8708 16.849 35.5581C16.732 35.6351 16.6227 35.7214 16.4899 35.7693C16.2547 35.8567 15.9895 35.8096 15.7318 35.7961C15.7318 35.7961 15.731 35.7947 15.7295 35.792C16.1543 35.7363 16.5287 35.5086 16.9074 35.3137C17.8376 34.8354 18.8504 34.5141 19.8936 34.3728C20.4574 34.2954 21.0367 34.2715 21.5576 34.0559C21.876 33.9233 22.172 33.7248 22.5229 33.7066C22.9256 33.6897 23.3021 33.9268 23.6464 34.1543L23.641 34.1492Z" fill="#79462D"/>
<g style="mix-blend-mode:multiply">
<path d="M23.6412 34.1496C23.9445 34.351 24.2532 34.5575 24.4882 34.8364C24.7222 35.1185 24.8758 35.4955 24.8136 35.8469C25.4073 35.8098 25.9749 36.4385 25.8938 37.0425C25.8664 37.2647 25.7637 37.482 25.7988 37.7053C25.825 37.8526 25.9078 37.9853 25.9487 38.13C26.0063 38.3599 25.9369 38.5941 25.8692 38.8113C25.7548 39.1857 25.6303 39.571 25.4624 39.926C25.5804 40.2227 25.6828 40.5252 25.7327 40.84C25.8331 41.4908 25.6247 42.2421 25.0491 42.5009C24.8958 42.5707 24.7191 42.6021 24.5948 42.7154C24.5271 42.7791 24.4781 42.8622 24.4277 42.938C23.9226 43.7132 23.075 44.1601 22.2593 44.5816C21.966 44.7356 21.6622 44.8898 21.3268 44.9266C20.8837 44.9734 20.4547 44.8081 20.0501 44.5836C19.9372 44.2222 19.8368 43.854 19.7512 43.4833C19.7066 43.2921 19.6662 43.0987 19.6183 42.9066C19.5315 42.5634 19.4217 42.2273 19.2379 41.9286C19.0858 41.6882 18.8921 41.4703 18.7838 41.2115C18.5843 40.7302 18.7471 40.1329 19.1566 39.8459C19.2755 39.7624 19.4195 39.7004 19.5098 39.5841C19.6032 39.4687 19.6249 39.2657 19.5031 39.1704C20.0298 38.5935 20.4513 37.9123 20.7331 37.1722C20.7624 37.0971 20.7912 37.0115 20.7589 36.9321C20.7333 36.8652 20.6671 36.8177 20.6086 36.7795C20.388 36.6409 20.1556 36.5302 19.9114 36.4475C19.8921 36.4418 19.8729 36.4361 19.8504 36.4294C20.1168 36.107 20.3983 35.6984 20.251 35.2884C20.1856 35.1085 20.0463 34.9661 19.8962 34.8484C19.6951 34.6911 19.4706 34.5654 19.2328 34.4845C19.4493 34.4369 19.6661 34.3999 19.8843 34.3703C20.448 34.2929 21.0273 34.269 21.5482 34.0534C21.8666 33.9208 22.1626 33.7223 22.5135 33.7041C22.9163 33.6872 23.2927 33.9243 23.6371 34.1518L23.6412 34.1496Z" fill="#E6D1C9"/>
</g>
<path d="M25.8477 43.1745C25.7882 43.6349 25.722 44.1177 25.4497 44.4837C25.0945 44.9648 24.4747 45.1372 23.8899 45.2502C22.3419 45.5526 20.7466 45.6491 19.1621 45.5325C18.1816 45.4621 17.0748 45.2286 16.5249 44.375C16.0879 43.6943 16.1421 42.8276 16.2168 42.0332C16.307 41.0445 16.5024 40.2196 17.0638 39.4193C17.1477 39.301 17.2325 39.1796 17.3469 39.0878C17.4478 39.0061 17.5678 38.9543 17.6878 38.9026C17.8807 38.8167 18.0727 38.7339 18.2656 38.648C18.3856 38.5963 18.5066 38.5414 18.6314 38.5085C18.771 38.4731 18.9168 38.4639 19.0594 38.4538C19.3192 38.4365 19.5822 38.4201 19.8421 38.4028C20.1051 38.3865 20.3691 38.367 20.6324 38.4205C20.9063 38.4736 21.1625 38.5983 21.4316 38.6675C21.7103 38.7396 21.9956 38.7542 22.2793 38.7859C22.6641 38.83 23.0489 38.909 23.4252 39.0169C23.5696 39.0597 23.7162 39.1065 23.8482 39.191C23.9597 39.2624 24.0571 39.3575 24.1574 39.443C24.5599 39.7925 24.9859 39.9918 25.3173 40.4284C25.601 40.802 25.8124 41.231 25.8917 41.6941C25.9762 42.1866 25.9149 42.6884 25.8523 43.1828L25.8477 43.1745Z" fill="#5C1919"/>
<path d="M22.0754 39.886C22.2853 39.9901 22.4778 40.1413 22.7001 40.2036C22.9074 40.2579 23.13 40.2366 23.3236 40.3253C23.5881 40.4455 23.7426 40.725 23.9972 40.8667C24.2702 41.0173 24.4987 41.2001 24.7204 41.4297C25.1778 41.9 25.5363 42.4807 25.6505 43.1321C25.828 44.1826 25.3715 45.2652 24.6128 45.9304C24.1192 46.36 23.5145 46.6346 22.8735 46.7728C22.4152 46.871 21.9388 46.9009 21.4699 46.8702C20.3377 46.7933 19.238 46.3945 18.2008 45.9025C17.6165 45.6249 17.0263 45.2966 16.642 44.7677C16.2742 44.254 16.1642 43.6946 16.2031 43.1269C16.2284 42.782 16.3067 42.4352 16.4169 42.098C16.5392 41.7085 16.7038 41.3176 17.0095 41.0627C17.2463 40.8641 17.5412 40.7874 17.7963 40.6326C18.0908 40.4511 18.2882 40.1851 18.6223 40.0467C18.8405 39.9578 19.0759 39.9053 19.2864 39.8071C19.4239 39.7432 19.5525 39.6626 19.6972 39.6217C19.8723 39.5723 20.0579 39.5819 20.2435 39.5915C20.5416 39.6099 20.8378 39.6348 21.1311 39.6693C21.4562 39.7027 21.7848 39.7477 22.0799 39.8943L22.0754 39.886Z" fill="#F6CFAF"/>
<path d="M18.8315 39.2921C18.8186 39.0999 18.6149 38.9628 18.4274 38.9596C18.2399 38.9565 18.0695 39.0491 17.9064 39.1404C17.7765 39.2136 17.6467 39.2868 17.5168 39.36C17.3579 39.4491 17.1989 39.5381 17.0754 39.6725C16.9519 39.8069 16.8692 39.9918 16.8978 40.1782C16.9181 40.3098 17.0084 40.4412 17.1344 40.4751C17.2477 40.5051 17.3644 40.4524 17.4665 40.4024C17.8526 40.2061 18.2215 39.9734 18.5651 39.7087C18.7003 39.6057 18.8417 39.4696 18.8305 39.2953L18.8315 39.2921Z" fill="#9D5252"/>
<path d="M19.8924 39.1846C19.9137 39.1595 19.8902 39.1211 19.8997 39.089C19.9054 39.0698 19.923 39.0575 19.9341 39.0434C19.9894 38.9865 19.9922 38.8826 19.9372 38.821C19.8986 38.7747 19.8418 38.7544 19.785 38.734L19.621 38.675C19.5395 38.6439 19.457 38.616 19.3698 38.6042C19.2858 38.5933 19.1951 38.6048 19.1216 38.6528C19.0781 38.6818 19.0437 38.7275 19.0359 38.7775C19.0334 38.7977 19.0364 38.823 19.0371 38.8441C19.0636 39.002 19.1891 39.1439 19.3399 39.1885C19.4233 39.2132 19.5111 39.2113 19.5957 39.2084C19.6729 39.2068 19.7543 39.203 19.8315 39.2014C19.8495 39.1998 19.8706 39.1991 19.885 39.1859L19.8924 39.1846Z" fill="#9D5252"/>
<path d="M22.0755 39.8869C22.2854 39.9909 22.4779 40.1421 22.7002 40.2044C22.9075 40.2588 23.1301 40.2375 23.3237 40.3262C23.5882 40.4463 23.7427 40.7259 23.9974 40.8675C24.2703 41.0181 24.4988 41.2009 24.7205 41.4305C25.1779 41.9009 25.5364 42.4816 25.6506 43.133C25.8281 44.1835 25.3716 45.2661 24.6129 45.9312C24.1193 46.3609 23.5146 46.6355 22.8736 46.7737C23.2743 45.856 23.4199 44.8104 23.2742 43.7938C23.0824 42.4495 22.3868 41.1689 21.3635 40.2763C21.1356 40.0797 20.8956 39.9005 20.6186 39.7871C20.3265 39.6657 20.013 39.6287 19.6992 39.6161C19.8743 39.5668 20.0599 39.5763 20.2423 39.585C20.5404 39.6034 20.8366 39.6283 21.1299 39.6628C21.455 39.6962 21.7836 39.7412 22.0787 39.8878L22.0755 39.8869Z" fill="#D4AF8F"/>
<path d="M23.672 42.3548C24.6708 43.0238 25.7863 43.8879 25.824 45.0924C25.8519 46.0707 25.1258 46.8851 25.0073 47.8514C24.9449 48.3214 25.0354 48.8053 25.0231 49.2832C25.0139 49.762 24.8757 50.2759 24.4896 50.5314C24.4863 50.5305 24.4799 50.5286 24.4758 50.5308C24.3921 50.5305 24.3104 50.5237 24.2299 50.5244C22.2345 50.464 20.2204 50.3842 18.2872 49.8189C17.7354 49.6556 17.1712 49.4397 16.7159 49.0921C16.5028 48.9278 16.3121 48.7353 16.1625 48.5096C15.8748 48.0789 15.7531 47.5823 15.707 47.0662C15.6697 46.6853 15.6744 46.2924 15.6849 45.9152C15.7014 45.3409 15.7171 44.7454 15.8638 44.2026C15.9226 43.9688 16.007 43.7425 16.1258 43.53C16.1777 43.4372 16.235 43.3495 16.2979 43.2669C16.7934 42.5831 17.5901 42.1665 18.3521 41.7849C18.9631 41.4773 19.6003 41.1634 20.2794 41.0853C20.3627 41.0751 20.445 41.0681 20.5296 41.0652C21.6623 41.0341 22.7153 41.7087 23.6826 42.3545L23.672 42.3548Z" fill="#A45B38"/>
<path d="M22.4424 44.3733C22.8922 44.5867 23.1708 45.06 23.4009 45.5085C24.1398 46.9729 24.2187 48.9223 24.4884 50.5339C23.5434 51.1683 22.9819 51.3441 21.9444 51.8081C21.5335 51.9935 21.099 52.1649 20.6568 52.2678C20.0709 52.4084 19.4717 52.4404 18.8954 52.2419C17.8413 51.8775 17.1419 50.8575 16.5541 49.8844C16.0306 49.0246 15.5135 48.0132 15.6994 47.0668C15.7167 46.9847 15.7382 46.9003 15.7652 46.8211C16.0626 45.9461 16.9437 45.4567 17.7879 45.1274C18.4595 44.8622 19.1564 44.6532 19.868 44.501C19.868 44.501 19.8712 44.5019 19.8744 44.5029C20.3304 44.4006 20.7893 44.3236 21.2544 44.2729C21.652 44.2266 22.0746 44.2016 22.4438 44.3807L22.4424 44.3733Z" fill="#C56D41"/>
<path d="M23.6716 42.3548C24.6704 43.0238 25.7858 43.8878 25.8236 45.0923C25.8515 46.0706 25.1254 46.885 25.0068 47.8513C24.9445 48.3214 25.035 48.8053 25.0226 49.2831C25.0135 49.7619 24.8753 50.2758 24.4891 50.5314C24.4859 50.5304 24.4795 50.5285 24.4754 50.5308C24.713 49.6102 24.3882 48.5266 24.7603 47.6353C24.8934 47.3153 25.1163 47.0219 25.1362 46.6719C25.1593 46.3228 24.8171 45.911 24.5087 46.0569C24.481 45.8324 24.5599 45.601 24.7212 45.4569C24.6057 45.4227 24.4902 45.3885 24.3779 45.3553C24.634 45.1031 24.7499 44.7117 24.6771 44.3447C24.1507 44.3668 23.6329 44.4892 23.1543 44.7034C23.4527 44.4498 23.7533 44.2003 24.0507 43.9499C24.1124 43.8949 24.1782 43.8376 24.1987 43.7565C24.2272 43.6602 24.1781 43.555 24.1307 43.4677C23.3958 42.1196 21.7682 41.4529 20.2961 41.5579C18.8198 41.6652 17.4849 42.4145 16.32 43.3084C16.311 43.2918 16.302 43.2751 16.2961 43.2594C16.7916 42.5757 17.5884 42.159 18.3504 41.7775C19.0352 41.4324 19.7495 41.0821 20.5269 41.061C21.6597 41.0299 22.7126 41.7045 23.6799 42.3502L23.6716 42.3548Z" fill="#79462D"/>
<path d="M20.8432 44.3201C20.3546 44.3324 19.9996 45.0718 19.5561 45.3208C19.1508 45.5463 18.6427 45.4831 18.197 45.6094C17.5417 45.7957 17.0782 46.3598 16.6539 46.8972C17.4482 47.2196 18.2435 47.5387 19.0378 47.8611C18.2196 47.9259 17.3904 47.8863 16.5756 47.7393C16.6294 48.2647 17.0675 48.6945 17.5537 48.8907C18.0399 49.087 18.5693 49.0902 19.085 49.0928C18.3167 49.4132 17.3864 49.3262 16.6572 48.8661C16.6726 48.9439 16.6921 49.0195 16.7116 49.0951C17.0033 50.1724 17.8217 51.109 18.8422 51.5158C18.7831 51.5506 18.7217 51.5813 18.6625 51.6161C18.9292 51.6462 19.1937 51.6722 19.4614 51.6991C19.2071 51.8157 18.9518 51.9355 18.7006 52.0531C19.4308 52.2622 20.2174 52.2334 20.9135 51.9684C20.8476 52.085 20.762 52.1853 20.6579 52.2661C20.0719 52.4067 19.4728 52.4387 18.8965 52.2401C17.8424 51.8758 17.143 50.8557 16.5552 49.8827C16.0316 49.0229 15.5145 48.0114 15.7005 47.0651C15.6632 46.6842 15.6679 46.2913 15.6783 45.914C15.6948 45.3397 15.7106 44.7442 15.8573 44.2014C15.9158 44.5223 15.9744 44.8432 16.032 45.1673C15.8438 45.3315 16.0445 45.6909 16.2978 45.731C16.5511 45.7711 16.7787 45.6152 16.9932 45.4798C17.851 44.9277 18.8432 44.5934 19.8681 44.5025C19.8681 44.5025 19.8713 44.5034 19.8745 44.5044C20.1827 44.477 20.5359 44.3093 20.8446 44.3274L20.8432 44.3201Z" fill="#A75129"/>
<g style="mix-blend-mode:multiply">
<path d="M23.6715 42.3551C24.6703 43.0241 25.7858 43.8881 25.8235 45.0926C25.8514 46.0709 25.1254 46.8853 25.0068 47.8516C24.9444 48.3217 25.0349 48.8056 25.0226 49.2834C25.0134 49.7622 24.8753 50.2761 24.4891 50.5317C24.4859 50.5307 24.4795 50.5288 24.4753 50.5311C23.7073 50.6736 23.5245 48.6864 23.484 48.2104C23.4163 47.4017 23.3291 46.5176 22.7741 45.9171C22.6872 45.8216 22.5901 45.7371 22.5064 45.6425C22.4315 45.554 22.3657 45.4578 22.2875 45.3683C22.173 45.2367 22.0297 45.1315 21.8928 45.0282C21.6071 44.8145 21.3182 44.5999 21.0325 44.3862C21.2073 44.2321 21.1925 43.952 21.1663 43.7105C21.1101 43.2402 21.1225 42.7031 20.9687 42.2563C20.9159 42.1046 20.4691 41.0442 20.2767 41.0814C20.3599 41.0712 20.4423 41.0642 20.5269 41.0613C21.6596 41.0302 22.7126 41.7048 23.6798 42.3505L23.6715 42.3551Z" fill="#E6D1C9"/>
</g>
<path d="M20.5148 47.9634C20.7467 47.9343 21.1308 47.9922 21.2213 48.2877L21.4725 54.9358L20.6015 58.3731L20.1993 48.1805C20.2552 48.0505 20.3745 47.9777 20.518 47.9643L20.5148 47.9634Z" fill="#9E8D7F"/>
<path d="M20.5148 47.9634L20.91 57.2013L20.6015 58.3731L20.1993 48.1805C20.2552 48.0505 20.3745 47.9777 20.518 47.9643L20.5148 47.9634Z" fill="#E7CEBA"/>
</svg>
