<svg viewBox="0 0 56 55" fill="none" xmlns="http://www.w3.org/2000/svg">
<path d="M42.3924 41.7357C46.2451 41.7843 48.3763 39.9717 50.3188 35.8147C50.9466 34.4702 51.0142 33.2336 50.809 32.1615C47.8257 28.2406 37.6931 26.9391 32.148 28.2678C22.599 30.5536 20.4691 33.919 13.9185 31.5453C8.32158 29.5165 7.65819 23.5273 6.87345 22.5094C6.09157 21.4942 7.40723 19.3625 7.02518 19.1223C6.64314 18.8822 7.51917 16.3547 7.51917 16.3547L7.39713 16.3227C5.84168 17.8078 6.61244 19.1763 5.95576 20.6454C5.25955 22.193 4.39399 23.4896 7.92554 29.8813C11.4571 36.273 21.3147 38.4115 23.6749 38.6733C26.0351 38.9351 38.5343 41.6874 42.3869 41.736L42.3924 41.7357Z" fill="#9A5123"/>
<path d="M48.5871 28.3139C48.8083 28.5131 52.2331 31.695 50.4042 35.7258C48.5753 39.7567 46.5163 41.489 42.7281 41.3687C38.9426 41.2456 26.6085 38.3099 24.2819 38.0109C21.9552 37.7118 12.2292 35.4271 8.63575 29.1042C5.04228 22.7813 5.86655 21.5305 6.52147 20.0288C7.1764 18.527 6.25774 17.1032 8.1206 15.5887C9.98088 14.0771 15.013 11.0358 23.3917 11.6043C31.7676 12.1701 40.622 17.116 45.0537 22.0399C49.2965 26.7574 48.5925 28.3136 48.5925 28.3136L48.5871 28.3139Z" fill="#C98D3A"/>
<path d="M10.802 17.7072C10.6703 17.189 18.9464 14.9302 27.069 15.6676C35.1916 16.405 40.5453 18.3342 43.9478 21.1017C47.353 23.8663 48.7286 27.9953 48.7286 27.9953C48.7286 27.9953 44.1181 25.2406 40.5635 24.5315C37.009 23.8223 27.5429 21.0814 23.7788 19.8827C19.667 18.5733 10.934 18.2308 10.8023 17.7126L10.802 17.7072Z" fill="#DCA457"/>
<path d="M48.3581 27.7242C47.4327 27.192 43.5086 24.9981 40.3962 24.3757C36.8416 23.6666 27.3755 20.9256 23.6115 19.7269C19.9976 18.5752 12.7672 17.8522 10.9734 17.3427C10.7086 17.4519 10.5686 17.5439 10.5888 17.6139C10.7205 18.1321 19.5277 18.8891 23.6395 20.1985C27.401 21.4 36.8697 24.1382 40.4242 24.8473C43.9788 25.5564 48.5893 28.3111 48.5893 28.3111C48.5893 28.3111 48.5173 28.0906 48.3636 27.7239L48.3581 27.7242Z" fill="#9A5123"/>
<path d="M10.586 17.6109C10.586 17.6109 15.3436 15.0075 24.9489 15.2998C34.5681 15.5942 39.0181 17.8049 41.7 19.3215C44.379 20.8356 48.78 25.5969 48.5865 28.3081L43.0759 22.9475L28.8944 18.4004L19.3632 16.8411L10.5857 17.6055L10.586 17.6109Z" fill="#E3B676"/>
<path d="M43.8063 21.4205C40.4012 18.6559 35.053 16.7264 26.9275 15.9864C19.1044 15.2746 11.0762 16.9575 10.6075 17.5475L10.5834 17.6089C10.5834 17.6089 16.0055 17.9078 17.9766 17.4924C19.9477 17.0769 24.2807 18.5855 26.5851 18.4701C28.8866 18.3521 33.7869 21.565 36.7843 21.6738C39.7816 21.7827 45.599 25.5254 46.6619 26.7833C47.0968 27.2941 47.4927 27.6402 47.8116 27.8754C48.2936 28.1432 48.5817 28.3144 48.5817 28.3144C48.5817 28.3144 47.206 24.1854 43.8009 21.4208L43.8063 21.4205Z" fill="#AD6B29"/>
<path opacity="0.57" d="M18.6982 12.7556C17.7754 12.2725 14.4416 12.6184 14.7235 14.0502C15.0055 15.4821 18.4438 14.893 18.8951 14.3859C19.3464 13.8789 19.6969 13.2758 18.6982 12.7556Z" fill="#E3B676"/>
<path d="M42.7255 41.366C46.511 41.4891 48.57 39.7568 50.4015 35.7231C50.9906 34.4216 51.035 33.2108 50.8143 32.1559C47.8078 28.2608 37.8249 26.7931 32.401 27.987C23.0611 30.0406 21.0345 33.2914 14.5509 30.8432C9.01076 28.7513 8.24673 22.8739 7.45424 21.8646C6.66721 20.8551 7.91834 18.7951 7.53888 18.5521C7.15942 18.309 7.97094 15.8532 7.97094 15.8532L7.8489 15.8212C6.34764 17.2461 7.13388 18.5974 6.51591 20.0235C5.86099 21.5253 5.03672 22.776 8.63019 29.0989C12.2237 35.4218 21.9522 37.7037 24.2763 38.0056C26.603 38.3046 38.937 41.2404 42.7226 41.3635L42.7255 41.366Z" fill="#BB7830"/>
<path d="M10.7059 20.1995C10.2761 20.3418 10.018 21.9518 11.181 21.8156C12.3466 21.6766 11.5496 19.9211 10.7059 20.1995Z" fill="#AD6B29"/>
<path d="M13.803 25.4628C13.5945 26.2144 15.3047 25.7768 15.1157 25.1603C14.9267 24.5439 13.9997 24.7473 13.803 25.4628Z" fill="#AD6B29"/>
<path d="M10.5862 25.2389C10.2323 25.5223 10.6533 26.4877 11.1027 26.1502C11.5551 25.8153 11.1079 24.8212 10.5862 25.2389Z" fill="#AD6B29"/>
<path d="M10.5981 14.8824C10.1731 15.0135 10.1712 15.6917 10.5654 15.7508C10.9622 15.807 11.2168 14.6921 10.5981 14.8824Z" fill="#E3B676"/>
<path d="M17.9768 27.5926C17.5045 28.1172 19.5674 28.1372 19.3062 27.601C19.0424 27.0678 18.4929 27.0194 17.9768 27.5926Z" fill="#E3B676"/>
<path d="M21.6094 24.9967C21.0334 24.9142 22.685 23.6402 22.8705 24.2431C23.056 24.846 21.9952 25.0535 21.6094 24.9967Z" fill="#E3B676"/>
<path d="M35.9156 18.8305C35.6405 18.7489 35.3795 18.929 35.4437 19.1582C35.5051 19.3847 35.6428 19.0468 35.8211 19.3111C35.9994 19.5753 36.1878 18.9095 35.9156 18.8305Z" fill="#C98D3A"/>
<path d="M33.9389 19.165C33.7779 19.1186 33.8921 19.6158 34.0893 19.674C34.2837 19.7297 34.0946 19.2117 33.9389 19.165Z" fill="#BB7830"/>
<path d="M34.9626 21.5188C34.9626 21.5188 34.6006 21.7534 34.795 21.809C34.9894 21.8647 35.196 21.5889 34.9626 21.5188Z" fill="#BB7830"/>
<path d="M35.6963 22.1943C35.5019 22.1387 35.5443 22.5712 35.6637 22.6061C35.7803 22.6384 35.8907 22.25 35.6963 22.1943Z" fill="#BB7830"/>
<path d="M34.8938 22.2127C34.7887 22.1388 34.6866 22.7838 34.92 22.8538C35.1535 22.9239 35.1041 22.3605 34.8938 22.2127Z" fill="#BB7830"/>
<path d="M37.2417 19.3349C37.1052 19.4403 37.1545 19.6455 37.3346 19.7402C37.5201 19.8346 37.0803 20.0458 37.2098 20.1676C37.3394 20.2895 37.8053 20.0031 37.7827 19.7856C37.7601 19.568 37.3992 19.2119 37.2388 19.3323L37.2417 19.3349Z" fill="#BB7830"/>
<path d="M37.9916 22.7297C37.7639 22.6648 37.7647 23.0859 37.9911 23.025C38.2175 22.9642 38.2639 22.8087 37.9916 22.7297Z" fill="#BB7830"/>
<path d="M33.4064 21.3636C33.3805 21.5426 33.873 21.4982 33.8301 21.361C33.7843 21.2211 33.446 21.0826 33.4064 21.3636Z" fill="#BB7830"/>
<path d="M35.9751 20.3533C35.9751 20.3533 36.8701 20.3183 36.6819 20.6834C36.4911 21.0514 35.9751 20.3533 35.9751 20.3533Z" fill="#C98D3A"/>
<path d="M39.3833 23.1732C39.3919 22.9267 38.9275 23.2922 38.9707 23.4349C39.0165 23.5748 39.376 23.3431 39.3833 23.1732Z" fill="#BB7830"/>
<path d="M38.5843 24.0364C38.5304 24.3564 38.9896 23.9446 38.9896 23.9446C38.9896 23.9446 38.6442 23.6752 38.5843 24.0364Z" fill="#BB7830"/>
<path d="M40.0707 23.708C39.9626 23.8858 40.4433 24.028 40.448 23.8609C40.4527 23.6939 40.3094 23.3158 40.0707 23.708Z" fill="#BB7830"/>
<path d="M26.4395 19.5791C26.3259 19.6533 26.5512 20.0792 26.711 19.9999C26.8705 19.9152 26.6484 19.4454 26.4395 19.5791Z" fill="#AD6B29"/>
<path d="M30.2116 19.7528C30.1446 19.625 29.825 19.7836 29.934 19.9284C30.0375 20.0734 30.2844 19.8858 30.2116 19.7528Z" fill="#AD6B29"/>
<path d="M30.4501 20.4288C30.4568 20.248 30.0057 20.4024 29.9756 20.5051C29.9456 20.6078 30.4364 20.8369 30.4501 20.4288Z" fill="#AD6B29"/>
<path d="M26.9179 19.2159C26.8836 19.3926 27.3209 19.4905 27.3052 19.2999C27.2895 19.1094 26.9801 18.8983 26.9179 19.2159Z" fill="#AD6B29"/>
<path d="M27.329 20.1573C27.4863 20.1329 27.2851 20.5123 27.1748 20.4441C27.0617 20.3734 27.1881 20.181 27.329 20.1573Z" fill="#AD6B29"/>
<path d="M28.0379 20.5775C27.9855 20.6704 28.3415 20.9338 28.3952 20.7642C28.449 20.5947 28.125 20.4172 28.0379 20.5775Z" fill="#AD6B29"/>
<path d="M31.0135 20.6819C31.0102 20.57 30.6053 20.6673 30.5522 20.9516L31.0135 20.6819Z" fill="#AD6B29"/>
<path d="M30.9703 21.4173C30.8823 21.5093 31.5058 21.5102 31.3661 21.3533C31.2264 21.1964 31.079 21.3024 30.9703 21.4173Z" fill="#AD6B29"/>
<path d="M28.2595 19.8574C28.0894 19.9481 27.6952 19.3805 27.9276 19.2264C28.1628 19.0749 28.4353 19.1594 28.406 19.3769C28.3766 19.5944 28.528 19.7151 28.2566 19.8548L28.2595 19.8574Z" fill="#AD6B29"/>
<path d="M29.2489 21.0293C29.3813 20.8475 29.2801 20.4399 29.0804 20.4884L29.2489 21.0293Z" fill="#AD6B29"/>
<path d="M31.7307 21.8783C31.6238 22.0779 32.1298 21.9262 32.0687 21.7571C32.0077 21.5879 31.8178 21.718 31.7307 21.8783Z" fill="#AD6B29"/>
<path d="M23.8473 18.7771C23.7205 18.8602 23.9733 19.3421 24.1515 19.2482C24.3297 19.1543 24.0825 18.6257 23.8473 18.7771Z" fill="#AD6B29"/>
<path d="M24.4939 17.0546C24.4269 16.9268 24.1072 17.0853 24.2162 17.2301C24.3197 17.3752 24.5666 17.1875 24.4939 17.0546Z" fill="#C98D3A"/>
<path d="M26.4335 17.3263C26.4402 17.1455 25.9891 17.2998 25.959 17.4025C25.929 17.5052 26.4198 17.7344 26.4335 17.3263Z" fill="#C98D3A"/>
<path d="M32.4696 17.753C32.4354 17.9297 32.8726 18.0276 32.8569 17.837C32.8412 17.6465 32.5319 17.4354 32.4696 17.753Z" fill="#C98D3A"/>
<path d="M21.1162 18.3623C21.2924 18.3341 21.0692 18.7611 20.942 18.6829C20.8147 18.6047 20.9589 18.3867 21.1162 18.3623Z" fill="#AD6B29"/>
<path d="M21.6669 18.6458C21.6144 18.7387 21.9704 19.0021 22.0242 18.8326C22.0779 18.663 21.7539 18.4855 21.6669 18.6458Z" fill="#AD6B29"/>
<path d="M24.7643 19.4351C24.6869 19.5211 25.2417 19.5173 25.1167 19.3788C24.9917 19.2403 24.8626 19.3317 24.7643 19.4351Z" fill="#AD6B29"/>
<path d="M25.1905 19.0361C25.273 19.0947 25.6134 19.0691 25.4818 18.961C25.3503 18.8529 25.1905 19.0361 25.1905 19.0361Z" fill="#AD6B29"/>
<path d="M30.7219 17.8561C30.5713 17.954 30.8699 18.5238 31.0827 18.4145C31.2956 18.3051 30.9993 17.6751 30.7219 17.8561Z" fill="#C98D3A"/>
<path d="M31.9069 18.6262C32.1155 18.5909 31.8503 19.0993 31.7003 19.0059C31.5504 18.9124 31.7198 18.6549 31.9069 18.6262Z" fill="#C98D3A"/>
<path d="M28.4919 17.6695C28.3858 17.7816 29.1267 17.7792 28.9609 17.5935C28.7951 17.4079 28.6241 17.5343 28.4919 17.6695Z" fill="#C98D3A"/>
<path d="M29.0615 17.1354C29.1723 17.2144 29.627 17.1775 29.4497 17.0334C29.2725 16.8894 29.0615 17.1354 29.0615 17.1354Z" fill="#C98D3A"/>
<path d="M27.6198 17.4189C27.4497 17.5096 27.0556 16.942 27.2879 16.7879C27.5231 16.6364 27.7957 16.7209 27.7663 16.9384C27.737 17.1559 27.8884 17.2766 27.617 17.4163L27.6198 17.4189Z" fill="#C98D3A"/>
<path d="M32.7342 21.4102C32.8666 21.2284 32.7655 20.8207 32.5657 20.8693L32.7342 21.4102Z" fill="#AD6B29"/>
<path d="M25.3596 19.9466C25.2527 20.1462 25.7587 19.9945 25.6976 19.8254C25.6366 19.6563 25.4467 19.7863 25.3596 19.9466Z" fill="#AD6B29"/>
<path d="M28.8615 38.2467C28.765 38.793 29.9631 38.1902 30.1766 37.7855C30.39 37.3809 29.0438 37.212 28.8615 38.2467Z" fill="#AD6B29"/>
<path d="M31.8016 37.3084C31.8016 37.3084 32.9912 35.987 33.1805 36.6089C33.3723 37.2279 32.1069 37.1369 31.8016 37.3084Z" fill="#DCA457"/>
<path d="M36.5691 36.67C36.1811 36.9797 38.9347 38.2029 39.1481 37.7983C39.3615 37.3936 37.6261 35.8312 36.5691 36.67Z" fill="#AD6B29"/>
<path d="M36.0823 39.3726C36.1346 39.6844 34.8505 39.9088 34.7446 39.3619C34.636 38.8179 35.9678 38.6676 36.0823 39.3726Z" fill="#DCA457"/>
<path d="M32.566 38.3439C32.5248 38.7999 33.7651 38.6761 33.6677 38.2874C33.5702 37.8987 32.6182 37.7889 32.566 38.3439Z" fill="#AD6B29"/>
<path d="M35.073 36.6672C35.073 36.6672 34.1902 36.3188 33.8908 36.6513C33.5915 36.9838 34.3298 37.4927 35.073 36.6672Z" fill="#AD6B29"/>
<path d="M39.3741 39.0442C38.8661 39.3601 38.8398 40.805 39.45 40.4566C40.0631 40.1107 40.0592 38.6126 39.3741 39.0442Z" fill="#DCA457"/>
<path d="M18.2117 20.2935C17.9769 20.5543 18.8063 21.1297 19.0223 20.7222C19.2357 20.3176 18.5111 19.961 18.2117 20.2935Z" fill="#AD6B29"/>
<path d="M21.5771 22.6855C21.0973 22.2535 20.0392 22.3077 20.2941 22.8278C20.549 23.3479 21.5771 22.6855 21.5771 22.6855Z" fill="#E3B676"/>
<path d="M15.0195 20.6844C14.7743 20.5985 14.0923 21.2405 14.6714 21.5853C15.2505 21.9302 15.5017 20.8538 15.0195 20.6844Z" fill="#AD6B29"/>
<path d="M14.8028 23.687C14.4454 23.9568 15.3774 24.3547 15.5065 24.009C15.6356 23.6634 15.1419 23.4317 14.8028 23.687Z" fill="#AD6B29"/>
<path d="M13.4138 22.4557C13.1514 22.4582 13.0079 23.0452 13.3309 23.0505C13.6538 23.0558 13.799 22.4496 13.4138 22.4557Z" fill="#AD6B29"/>
<path d="M15.9597 26.1182C15.5617 26.1906 16.4951 26.9219 16.5619 26.5877C16.6287 26.2534 16.3957 26.0385 15.9597 26.1182Z" fill="#AD6B29"/>
<path d="M18.5318 26.2538C18.2916 26.0064 19.5248 26.0061 19.396 26.3572C19.2643 26.7057 18.6939 26.4205 18.5318 26.2538Z" fill="#AD6B29"/>
<path d="M18.6246 22.8869C18.4269 22.9217 18.6043 23.4758 18.8419 23.3679C19.0794 23.26 18.8737 22.8413 18.6246 22.8869Z" fill="#AD6B29"/>
<path d="M17.4041 22.82C17.3348 22.4462 16.818 22.0899 16.7512 22.4242C16.6844 22.7584 17.4041 22.82 17.4041 22.82Z" fill="#E3B676"/>
<path d="M15.2028 28.6345C15.7839 28.4051 14.6809 27.5212 14.3779 27.9386C14.0749 28.356 14.651 28.8487 15.2028 28.6345Z" fill="#AD6B29"/>
<path d="M24.037 22.1962C24.3781 22.2854 24.7829 21.5756 24.3605 21.4496C23.9381 21.3237 23.5322 22.0635 24.037 22.1962Z" fill="#AD6B29"/>
<path d="M30.1906 24.3056C30.7375 24.3569 29.782 23.0607 29.5772 23.4731C29.3669 23.8858 29.5944 24.2514 30.1906 24.3056Z" fill="#AD6B29"/>
<path d="M26.8763 23.19C27.1007 23.5995 25.4878 23.149 25.7859 22.7428C26.084 22.3365 26.7276 22.916 26.8763 23.19Z" fill="#E3B676"/>
<path d="M22.9437 28.363C23.2239 28.3869 23.1943 27.5819 22.831 27.6388C22.4676 27.6957 22.592 28.3318 22.9437 28.363Z" fill="#DCA457"/>
<path d="M25.4102 24.9575C25.3639 25.4712 25.9103 26.124 26.1206 25.7113C26.3308 25.2986 25.4102 24.9575 25.4102 24.9575Z" fill="#E3B676"/>
<path d="M24.7486 24.0971C25.0819 24.1949 24.896 23.4307 24.6213 23.5104C24.3467 23.59 24.4318 24.004 24.7486 24.0971Z" fill="#AD6B29"/>
<path d="M32.3668 25.3673C32.6056 25.5874 32.6258 24.6404 32.3805 24.7569C32.1352 24.8733 32.1076 25.1235 32.3668 25.3673Z" fill="#AD6B29"/>
<path d="M28.7766 25.6797C28.7361 25.9443 28.1589 25.1755 28.4361 25.0929C28.7162 25.013 28.8026 25.5007 28.7766 25.6797Z" fill="#E3B676"/>
<path d="M27.5686 24.9298C27.6893 25.0384 27.9562 24.6611 27.7703 24.5613C27.5845 24.4614 27.4189 24.7898 27.5686 24.9298Z" fill="#AD6B29"/>
<path d="M24.3916 25.8985C24.1849 26.1223 24.2064 26.6243 24.4517 26.5078C24.697 26.3913 24.3916 25.8985 24.3916 25.8985Z" fill="#AD6B29"/>
<path d="M41.9469 26.9806C41.8736 27.7554 43.4781 27.0307 43.1876 26.4577C42.8971 25.8848 42.0167 26.2443 41.9469 26.9806Z" fill="#AD6B29"/>
<path d="M10.4663 23.3781C10.0938 23.9768 12.1264 23.6375 11.778 23.1577C11.4267 22.6754 10.877 22.7255 10.4663 23.3781Z" fill="#E3B676"/>
<path d="M39.8767 28.4951C39.2787 28.5121 40.725 26.9288 41.0213 27.5069C41.3175 28.085 40.2779 28.4828 39.8767 28.4951Z" fill="#E3B676"/>
<path d="M35.7792 24.818C35.5929 25.1173 36.5097 25.5379 36.6504 25.1041C36.7912 24.6704 36.0133 24.4423 35.7792 24.818Z" fill="#AD6B29"/>
<path d="M39.5596 26.5709C38.9966 26.2197 37.9351 26.4628 38.2835 26.9425C38.6348 27.4248 39.5596 26.5709 39.5596 26.5709Z" fill="#E3B676"/>
<path d="M33.0076 28.7521C32.7025 29.0794 33.6885 29.3132 33.7564 28.9488C33.8244 28.5844 33.2972 28.442 33.0076 28.7521Z" fill="#DCA457"/>
<path d="M34.5642 30.9473C34.1834 31.0871 35.228 31.6487 35.2397 31.3064C35.2489 30.9669 34.9826 30.7946 34.5642 30.9473Z" fill="#DCA457"/>
<path d="M37.1227 30.641C36.8438 30.4366 38.0575 30.2267 37.9896 30.5911C37.9217 30.9555 37.3103 30.7735 37.1227 30.641Z" fill="#DCA457"/>
<path d="M36.6321 27.3026C36.4444 27.3724 36.7125 27.8836 36.9288 27.7358C37.1451 27.588 36.8705 27.2111 36.6321 27.3026Z" fill="#DCA457"/>
<path d="M35.4208 27.4467C35.2895 27.0898 34.7177 26.8293 34.7086 27.1688C34.6995 27.5083 35.4208 27.4467 35.4208 27.4467Z" fill="#E3B676"/>
<path d="M30.337 27.4892C30.856 27.1728 29.6502 26.5128 29.4308 26.9588C29.2088 27.4076 29.8444 27.7879 30.337 27.4892Z" fill="#AD6B29"/>
<path d="M21.6865 14.7924C21.1933 14.7219 22.6059 13.6325 22.7649 14.1492C22.9239 14.666 22.0147 14.8439 21.6865 14.7924Z" fill="#E3B676"/>
<path d="M21.6599 12.8116C21.249 12.4417 20.3437 12.4881 20.5618 12.9335C20.7798 13.3789 21.6599 12.8116 21.6599 12.8116Z" fill="#E3B676"/>
<path d="M23.7652 12.3919C24.0592 12.4698 24.4039 11.8615 24.0427 11.7543C23.6814 11.647 23.3325 12.2774 23.7652 12.3919Z" fill="#AD6B29"/>
<path d="M29.0387 14.2019C29.5087 14.2462 28.6917 13.137 28.5109 13.488C28.333 13.8416 28.5248 14.1544 29.0387 14.2019Z" fill="#AD6B29"/>
<path d="M26.2012 13.2456C26.3922 13.5939 25.0128 13.2135 25.2673 12.8615C25.5221 12.5148 26.0738 13.0115 26.2012 13.2456Z" fill="#E3B676"/>
<path d="M24.9417 14.7594C24.9026 15.2016 25.3699 15.7572 25.5507 15.4062C25.7286 15.0526 24.9417 14.7594 24.9417 14.7594Z" fill="#E3B676"/>
<path d="M24.3743 14.0205C24.6632 14.1041 24.4994 13.4481 24.2653 13.5175C24.0282 13.5843 24.1021 13.9415 24.3743 14.0205Z" fill="#AD6B29"/>
<path d="M30.903 15.1068C31.1099 15.2931 31.124 14.4858 30.9105 14.5842C30.6999 14.6853 30.6786 14.8996 30.903 15.1068Z" fill="#AD6B29"/>
<path d="M27.8246 15.3766C27.7875 15.6027 27.2928 14.9446 27.5324 14.8749C27.772 14.8052 27.8465 15.2251 27.8246 15.3766Z" fill="#E3B676"/>
<path d="M32.9484 14.9446C32.787 15.199 33.5748 15.5605 33.697 15.1879C33.8192 14.8153 33.1524 14.6198 32.9484 14.9446Z" fill="#AD6B29"/>
<path d="M14.0085 15.2319C14.4534 14.963 13.4194 14.3954 13.2321 14.7769C13.0421 15.1612 13.5873 15.4859 14.0085 15.2319Z" fill="#AD6B29"/>
<path d="M41.8342 31.9549C42.1147 31.9323 41.9465 31.1425 41.5972 31.2589C41.2509 31.3778 41.4803 31.9839 41.8342 31.9549Z" fill="#DCA457"/>
<path d="M43.8365 28.194C43.8813 28.7221 44.5487 29.2866 44.6883 28.8311C44.8279 28.3755 43.8365 28.194 43.8365 28.194Z" fill="#E3B676"/>
<path d="M42.8311 29.2764C42.6671 29.5336 42.7727 30.023 42.9939 29.8641C43.215 29.7051 42.8311 29.2764 42.8311 29.2764Z" fill="#AD6B29"/>
</svg>
