<svg viewBox="0 0 29 51" fill="none" xmlns="http://www.w3.org/2000/svg">
<path d="M14.9366 49.2994C15.3276 49.2335 15.6891 49.0834 15.9988 48.8448C17.3025 47.843 17.0822 45.3102 17.6155 43.8894C18.1868 42.3699 19.45 41.1758 20.2611 39.7958C20.4041 39.5612 20.5258 39.3178 20.6351 39.0673C21.205 37.7182 22.2785 36.8555 22.5091 35.3335C22.778 33.5701 22.4369 31.9079 22.3962 30.125C22.3577 28.5178 22.45 27.0193 22.7673 25.4083C23.0845 23.7974 23.6765 22.7107 24.2923 21.2692C24.4377 20.9291 24.5875 20.5898 24.7293 20.2443C25.7881 17.7237 26.7258 15.0456 26.3106 12.2854C26.2662 11.9955 26.2281 11.6975 26.1908 11.3951C25.9136 9.12775 25.7557 6.69945 24.1271 4.90352C23.7711 4.51071 23.3319 4.16605 22.8431 3.86235C21.8815 3.2673 20.7316 2.85643 19.718 2.66603C18.5535 2.44592 17.7442 2.64613 17.1452 3.15972C16.5143 3.6947 16.1248 4.57226 15.7892 5.66788C15.5186 6.57347 15.6375 7.46816 15.5098 8.37422C15.4324 8.90757 15.3399 9.44718 15.2333 9.9886C14.7676 12.4001 14.0385 14.8381 13.0215 17.0996C12.4179 18.4559 11.7076 19.7451 10.8977 20.9317C8.89441 23.8471 7.33783 27.2332 6.65437 30.7036C6.33711 32.3145 5.96331 34.0019 5.88206 35.6317C5.84457 36.4541 5.93745 37.2699 5.99395 38.0832C6.02806 38.5187 6.04441 38.9506 6.01907 39.3836C5.93918 41.1703 5.70664 42.632 6.55324 44.2555C7.03585 45.1757 7.82797 46.3736 8.63447 47.0303C9.90869 48.0741 12.8559 49.7056 14.9304 49.3074L14.9366 49.2994Z" fill="#B2512E"/>
<path d="M23.184 20.1564C23.6987 20.2347 24.2249 20.3015 24.7348 20.2405C25.7936 17.7199 26.7313 15.0418 26.316 12.2816C26.2717 11.9917 26.2336 11.6937 26.1963 11.3914C25.8662 10.7501 25.4688 10.1463 24.9582 9.64927C23.7804 8.51376 22.1432 8.02537 20.6404 7.36983C20.1145 7.13719 19.57 6.88244 18.9943 6.87971C18.0593 6.87536 17.2692 7.54031 16.6325 8.22167C16.124 8.76694 15.661 9.36263 15.2441 9.98125C14.1719 11.5634 13.409 13.3539 13.0188 15.2179C12.8876 15.8374 12.8009 16.5119 13.0279 17.0913C13.0458 17.141 13.0681 17.1915 13.0913 17.2375C13.5357 18.141 14.6305 18.4811 15.614 18.707C18.1128 19.2914 20.6414 19.7709 23.1804 20.1511L23.184 20.1564Z" fill="#C85B33"/>
<path d="M13.1316 41.7472C14.1015 37.9691 16.964 34.9278 17.539 31.0718C17.8965 28.6713 17.3118 26.2327 17.7811 23.8496C18.2837 21.2978 19.9149 19.1711 20.6501 16.679C21.7699 12.8889 20.6689 8.90567 19.5733 5.26929C19.2499 4.19602 18.7922 2.98565 17.8317 2.75962C17.1313 2.59403 16.3822 3.05041 15.874 3.68793C15.3658 4.32545 15.0506 5.13004 14.7274 5.9054C12.2495 11.8161 8.64485 17.0577 6.11276 22.9392C4.99121 25.5443 4.07596 28.319 3.91668 31.1643C3.71413 34.6741 4.6652 38.0376 5.60443 41.2975C6.05882 42.876 6.5471 44.5165 7.58733 45.6249C8.62756 46.7334 10.3913 47.1176 11.5474 45.9991C12.5955 44.9839 12.7483 43.2484 13.1351 41.7525L13.1316 41.7472Z" fill="#D77749"/>
<g style="mix-blend-mode:multiply">
<path d="M6.54936 23.0194C5.49438 25.6376 4.61906 28.4202 4.41541 31.2567C4.1596 34.756 4.9376 38.0855 5.70376 41.3113C5.84296 41.8919 5.98485 42.4822 6.15505 43.0459C5.95023 42.4708 5.77639 41.8788 5.60612 41.292C4.66689 38.0322 3.71581 34.6686 3.91837 31.1588C4.08208 28.3144 4.99734 25.5397 6.11445 22.9338C7.97694 18.603 10.4215 14.6173 12.5683 10.4578C10.5635 14.6453 8.3009 18.6668 6.54493 23.0185L6.54936 23.0194Z" fill="#BF8E7D"/>
<path d="M10.8964 45.8647C11.8514 44.8312 12.0263 43.1 12.3998 41.6015C13.3476 37.819 15.9615 34.7288 16.5542 30.8763C16.9251 28.4784 16.4558 26.0625 16.9251 23.6794C17.4277 21.1276 18.9258 18.9748 19.6343 16.4774C20.7142 12.6794 19.8173 8.73637 18.917 5.13846C18.6638 4.12973 18.3039 3.00778 17.5394 2.72351C17.636 2.72411 17.731 2.7336 17.8277 2.75726C18.7882 2.98329 19.2451 4.1981 19.5693 5.26693C20.6649 8.9033 21.7615 12.8856 20.6461 16.6767C19.9119 19.1643 18.2797 21.2954 17.7772 23.8472C17.3079 26.2303 17.8925 28.6689 17.535 31.0695C16.96 34.9254 14.1011 37.972 13.1276 41.7449C12.74 43.2451 12.5916 44.9815 11.5399 45.9915C10.8561 46.6543 9.95437 46.7856 9.11897 46.5565C9.74276 46.6195 10.3773 46.4171 10.8919 45.8639L10.8964 45.8647Z" fill="#BF8E7D"/>
</g>
<path d="M14.9367 49.2995C15.3277 49.2336 15.6892 49.0835 15.999 48.8448C17.3027 47.8431 17.0823 45.3103 17.6157 43.8894C18.2882 42.1133 19.9022 40.7762 20.6352 39.0673C21.2052 37.7182 22.2786 36.8555 22.5092 35.3335C22.7781 33.5702 22.437 31.9079 22.3963 30.1251C22.3579 28.5178 22.4501 27.0193 22.7674 25.4084C23.0847 23.7974 23.6767 22.7108 24.2925 21.2693C25.5057 18.4564 26.7821 15.4163 26.3151 12.2863C25.9378 9.77796 25.9765 6.93659 24.1316 4.90445C23.7757 4.51164 23.3364 4.16699 22.8477 3.86328C25.8292 8.43349 26.4334 14.4948 24.3593 19.5491C23.2513 22.249 22.0523 25.0601 21.9722 27.9717C21.8903 30.8921 22.0455 33.8961 21.0228 36.6313C20.1321 39.0005 18.4046 40.9838 17.4286 43.3178C16.871 44.6509 16.5612 46.0836 16.0125 47.4184C15.7395 48.0792 15.3848 48.7331 14.9367 49.2995Z" fill="#6C311C"/>
<path d="M12.4066 13.9261C12.9825 12.1725 13.601 10.4365 14.2585 8.71277C14.6317 7.73058 15.1474 6.63355 16.156 6.3343C17.1832 6.03411 18.2916 6.77332 18.7513 7.73974C19.2109 8.70617 19.169 9.83197 19.0648 10.8994C18.9554 11.9935 18.7821 13.0842 18.552 14.1591C18.4767 14.5177 18.3917 14.879 18.2597 15.2217C18.1373 15.5388 17.9723 15.8382 17.8118 16.1385C17.1492 17.3495 16.4857 18.565 15.8275 19.7768C15.6043 20.1847 15.2287 20.6639 14.7812 20.5251C14.3772 20.3994 14.2958 19.8763 14.2502 19.4524C14.1115 18.1435 13.6155 16.8703 12.8326 15.8125C12.5886 15.4833 12.3011 15.1408 12.2617 14.732C12.2326 14.4589 12.3231 14.1863 12.4066 13.9261Z" fill="#C97045"/>
<path d="M13.998 30.8671C13.0816 30.5575 12.1644 30.2524 11.248 29.9429C10.8245 29.7995 10.3876 29.6536 9.93792 29.6664C9.13252 29.683 8.42612 30.18 7.67922 30.4847C6.93233 30.7894 5.92387 30.8305 5.46951 30.1648C4.93943 29.3919 5.55828 28.3798 6.0678 27.595C7.83391 24.8772 8.42122 21.5907 9.33815 18.4797C9.52876 17.8396 9.76448 17.1576 10.3035 16.7613C10.8426 16.365 11.777 16.466 11.9988 17.0952C12.158 17.5506 11.896 18.0384 11.8886 18.521C11.8816 19.165 12.3259 19.7181 12.746 20.2065C13.564 21.1559 14.4735 22.1556 15.7028 22.3977C15.6318 23.5777 14.7742 24.5613 14.476 25.7012C14.0321 27.3932 14.8344 29.3353 13.9935 30.8662L13.998 30.8671Z" fill="#C97045"/>
<path d="M13.8627 32.3022C13.9795 32.505 13.9767 32.7533 13.9534 32.9885C13.7001 35.5156 11.0027 37.3677 11.0048 39.9082C11.0066 40.7891 11.3146 41.7764 10.7889 42.4796C10.5247 42.8378 10.095 43.0298 9.67769 43.1827C9.20009 43.3607 8.71085 43.504 8.21442 43.6137C8.39789 42.3544 8.0987 41.0646 8.21916 39.7976C8.36105 38.2812 9.087 36.889 9.79977 35.5404C9.09864 34.8168 7.87946 35.2959 6.896 35.0929C5.67821 34.8393 4.94095 33.2927 5.50452 32.1866C6.38814 32.8263 7.58116 32.1991 8.59748 31.8138C10.0568 31.2622 11.7201 31.2671 13.1791 31.8172C13.4447 31.9202 13.7227 32.0533 13.8627 32.3022Z" fill="#C97045"/>
<path d="M6.38741 29.4612C6.56281 28.4769 7.10401 27.9059 7.35025 28.0834C7.77747 27.3654 8.10069 27.4798 8.49874 27.0972C8.88973 26.727 9.25529 25.854 9.64635 25.5069C10.0587 25.1455 10.3832 25.4169 10.7787 25.0476C11.2254 24.6285 11.5503 24.1024 11.9742 23.7756C12.8672 23.0801 13.7558 22.3838 14.623 21.6787C14.9752 21.3885 15.5472 20.427 15.8751 20.3303C16.1738 20.2416 16.1736 20.7809 16.3812 20.8034C16.5756 20.8232 16.9024 20.3574 17.1108 20.3293C16.9846 21.1573 16.3499 21.6178 16.0546 21.9468C15.5312 22.5214 15.447 22.2467 14.9279 22.4948C14.5665 22.668 14.073 23.4882 13.682 23.8353C13.3077 24.1673 12.9976 24.2675 12.6469 24.4797C11.8624 24.9521 11.1886 26.0088 10.4352 26.5105C10.1059 26.7314 9.68559 26.7823 9.38329 27.1469C8.94665 27.6787 8.74656 28.4137 8.24105 28.4525C8.00157 29.3642 7.35977 29.5098 7.01853 29.6039C6.76701 30.3427 6.41508 30.4209 6.23291 30.0116C6.24488 29.8572 6.36301 29.6085 6.3936 29.4532L6.38741 29.4612Z" fill="#642A18"/>
<path d="M5.33452 35.113C5.15121 34.6159 5.88193 33.3399 6.20428 33.1545C6.7046 32.8612 6.94662 33.7156 7.58202 32.9003C8.09282 32.2494 8.54672 30.9512 9.08025 30.4893C9.57398 30.0656 9.96338 30.359 10.4748 29.9157C10.9756 29.4796 11.4171 28.8059 11.9202 28.5454C12.4534 28.2723 12.8731 28.2951 13.4493 27.5695C14.3234 26.4785 15.3224 25.9469 16.1643 25.979C15.7871 26.5132 15.2848 26.7232 14.9063 26.8423C14.5219 28.2326 13.157 28.9134 12.5913 29.3045C11.7653 29.8702 11.0056 30.6379 10.1914 31.5655C9.70335 32.1241 9.37043 31.7312 8.92901 32.1468C8.4531 32.597 8.09817 33.4629 7.57774 33.8583C7.07325 34.243 6.82695 34.3466 6.35695 34.3924C5.85944 34.4373 5.52292 34.9288 5.02078 35.208L5.33364 35.1175L5.33452 35.113Z" fill="#642A18"/>
<path d="M5.5526 39.079C5.71819 38.3786 7.13175 37.3339 7.57485 36.8864C8.34075 36.1107 9.0845 36.2433 9.82245 35.9138C10.5808 35.5745 11.4657 34.2644 12.2257 33.5658C13.0422 32.8138 13.5917 32.3412 14.3603 32.4879C13.9907 32.2815 12.679 33.8856 12.2405 34.3801C11.5774 35.1254 10.7484 36.783 10.0795 36.762C9.78995 37.5301 9.20993 37.2684 8.91825 37.3216C8.36944 37.4163 8.11602 37.8136 7.57765 38.4405C7.08789 39.0079 5.09798 41.0363 5.55617 39.0843L5.5526 39.079Z" fill="#81311A"/>
<path d="M8.38369 22.6035C9.94333 20.5596 11.4663 20.5276 12.9995 18.5476C13.4502 17.9679 13.6256 17.8965 14.0797 17.5571C14.5125 17.2321 14.9368 16.4352 15.3617 16.1039C15.705 15.835 16.0866 15.8871 16.4698 15.5569C16.7971 15.2756 17.0601 14.8065 17.3776 14.786C17.4344 14.4976 17.4877 13.9226 17.4841 13.613C16.8066 13.9636 15.9956 15.4128 15.2679 15.9011C14.5136 16.4071 13.695 16.4441 12.9199 17.1259C12.7695 17.2576 12.5875 17.8073 12.3955 17.9631C12.1813 18.1376 11.9607 17.9235 11.7534 18.0164C11.3433 18.203 10.8908 18.7916 10.4618 19.1911C9.65323 19.9493 8.82016 20.8086 8.16792 22.5288C8.27443 22.854 8.18749 22.8507 8.38013 22.5982L8.38369 22.6035Z" fill="#7B2F18"/>
<path d="M12.1215 14.7643C12.0627 14.6882 11.9637 14.8162 12.0005 14.6529C12.6949 14.3102 13.4356 14.0135 14.0881 13.5566C14.767 13.0818 15.0004 12.5054 15.5617 11.8322C16.0328 11.2658 16.6275 11.0786 17.1737 10.6929C17.4525 10.4943 17.5719 10.3565 17.7353 10.1351C17.8723 9.95462 17.779 9.60894 18.1075 9.41548C18.1075 9.41548 17.9953 9.25968 17.9971 9.27387C17.3596 9.65541 16.9702 10.2748 16.3193 10.6537C15.6525 11.0434 15.1412 11.5328 14.5316 12.0535C13.8184 12.6552 11.2284 13.3299 11.2432 14.7527C11.7523 15.0005 12.0246 14.7176 12.4817 14.4803L12.1259 14.7652L12.1215 14.7643Z" fill="#81311A"/>
<path d="M17.65 6.47189C17.2297 6.54587 16.557 7.33998 16.0095 7.56868C15.6028 7.73753 15.4193 7.77977 15.0457 8.01505C14.6189 8.28597 14.4396 8.54109 13.9387 8.6499C15.0015 7.46698 16.1825 6.38573 17.65 6.47189Z" fill="#74301C"/>
<path d="M6.67013 42.8172C7.28314 42.2326 8.24714 41.5511 8.97379 41.3024C9.74563 41.0349 10.6543 40.845 11.3586 40.5458C10.9173 40.7032 10.7274 41.2697 10.3407 41.5716C9.95921 41.8698 9.49297 41.9901 9.0543 42.1342C8.14597 42.4394 7.44723 43.1316 6.50291 42.964C6.47937 42.8026 6.58521 42.8972 6.671 42.8127L6.67013 42.8172Z" fill="#81311A"/>
</svg>
