<svg viewBox="0 0 36 36" fill="none" xmlns="http://www.w3.org/2000/svg">
<mask id="mask0_1232_20118" style="mask-type:luminance" maskUnits="userSpaceOnUse" x="1" y="7" width="34" height="28">
<path d="M6.61505 12.5571C5.61189 13.2248 4.74969 14.0884 4.04708 15.0648C2.17712 17.6622 1.2936 20.9848 1.76058 24.1454C2.22806 27.3122 4.0801 30.2705 6.80111 31.9697C8.07582 32.7665 9.50392 33.2755 10.9593 33.6506C16.1449 34.9754 21.7696 34.5231 26.6709 32.372C27.7156 31.9142 28.7415 31.3764 29.6206 30.6494C31.3377 29.23 32.408 27.1717 33.1935 25.0854C33.6355 23.9099 34.006 22.7024 34.2044 21.4645C34.3518 20.5377 34.4036 19.5933 34.355 18.6505C34.1585 14.61 31.7267 10.8256 28.0882 9.04142C24.3713 7.21943 14.5544 7.241 6.60256 12.5581L6.61505 12.5571Z" fill="white"/>
</mask>
<g mask="url(#mask0_1232_20118)">
<g opacity="0.2">
<path d="M22.7689 6.24132C23.0243 3.88308 20.1624 3.35458 18.4486 3.45096C14.8839 3.65445 4.22557 9.54676 2.20107 12.2565C-1.52419 17.2368 0.359419 24.4555 2.27538 30.0793C4.29736 36.0145 14.5598 37.0301 20.439 39.1908C25.5878 41.0888 32.3369 40.6364 36.8408 37.4194C39.8338 35.2859 38.9815 30.7324 35.0871 30.4163C33.2031 30.2627 35.834 27.7563 33.9506 27.7719C32.3497 27.7842 26.3228 28.4749 23.7008 27.7208C16.9337 25.7737 16.7181 21.0074 16.57 19.5959C16.3827 17.8428 16.3684 15.7313 17.1077 14.1C17.9592 12.2155 19.1909 10.6146 20.7366 9.25255C21.3124 8.74363 21.9697 8.07162 22.3057 7.38712C22.7605 6.45512 21.3551 8.24505 22.3008 7.32482C22.6098 7.01856 22.7324 6.65792 22.7747 6.2346L22.7689 6.24132Z" fill="#BA1E4D"/>
</g>
<g opacity="0.26">
<path d="M20.739 6.23144C20.9944 3.87319 14.1924 4.77488 12.4792 4.87749C8.91443 5.08099 -1.74388 10.9733 -3.76837 13.683C-7.49363 18.6634 -5.61002 25.882 -3.69405 31.5058C-1.67207 37.441 8.59033 38.4566 14.4695 40.6173C19.6184 42.5154 26.3675 42.0629 30.8713 38.8459C33.8643 36.7124 37.6586 29.8021 33.7647 29.4922C31.8807 29.3386 25.9368 30.8503 24.0471 30.7849C15.4873 30.495 12.6723 27.192 11.9063 25.5907C11.4028 24.533 10.7491 22.4402 10.5943 21.023C10.407 19.2698 10.5985 15.2114 11.5013 13.6614C14.152 9.07847 18.8396 7.32655 18.8881 6.90274L20.739 6.23144Z" fill="#BB2025"/>
</g>
<g opacity="0.26">
<path d="M16.282 7.55761C16.5373 5.19937 9.7354 6.10105 8.02218 6.20366C4.45739 6.40716 -6.20091 12.2995 -8.2254 15.0092C-11.9507 19.9895 -10.067 27.2082 -8.15108 32.832C-6.12911 38.7672 4.1333 39.7828 10.0125 41.9435C15.1613 43.8416 21.9104 43.3891 26.4143 40.1721C29.4073 38.0386 28.555 33.4851 24.6606 33.169C22.7766 33.0154 20.9586 33.0635 19.069 33.0796C17.4681 33.0919 15.256 32.9201 14.3681 32.7325C12.529 32.3497 11.8826 32.0366 10.2473 30.8857C9.33009 30.2427 8.2143 28.5057 7.45458 26.9039C6.95099 25.8462 6.29736 23.7534 6.14258 22.3362C5.95525 20.583 6.14677 16.5246 7.04953 14.9746C9.70025 10.3917 14.3878 8.63977 14.4363 8.21596L16.2873 7.54466L16.282 7.55761Z" fill="#BB2025"/>
</g>
<g opacity="0.26">
<path d="M14.0447 7.70703C14.3 5.34878 7.4981 6.25047 5.78487 6.35308C2.22009 6.55657 -8.43821 12.4489 -10.4627 15.1586C-14.188 20.139 -12.3044 27.3576 -10.3884 32.9814C-8.36641 38.9166 1.89599 39.9322 7.7752 42.0929C12.924 43.991 19.6731 43.5385 24.177 40.3215C27.17 38.188 26.3177 33.6345 22.4233 33.3184C20.5393 33.1648 18.7213 33.2129 16.8317 33.229C15.2308 33.2413 13.0187 33.0695 12.1308 32.8819C10.2917 32.4991 9.6453 32.1861 8.00995 31.0351C7.09278 30.3921 5.97699 28.6551 5.21727 27.0533C4.71369 25.9956 4.06006 23.9028 3.90528 22.4856C3.71794 20.7324 3.90947 16.674 4.81223 15.124C7.46294 10.5411 12.1505 8.78919 12.199 8.36538L14.0499 7.69407L14.0447 7.70703Z" fill="#BB2025"/>
</g>
<path d="M6.61505 12.5571C5.61189 13.2248 4.74969 14.0884 4.04708 15.0648C2.17712 17.6622 1.2936 20.9848 1.76058 24.1454C2.22806 27.3122 4.0801 30.2705 6.80111 31.9697C8.07582 32.7665 9.50392 33.2755 10.9593 33.6506C16.1449 34.9754 21.7696 34.5231 26.6709 32.372C27.7156 31.9142 28.7415 31.3764 29.6206 30.6494C31.3377 29.23 32.408 27.1717 33.1935 25.0854C33.6355 23.9099 34.006 22.7024 34.2044 21.4645C34.3518 20.5377 34.4036 19.5933 34.355 18.6505C34.1585 14.61 31.7267 10.8256 28.0882 9.04142C24.3713 7.21943 14.5544 7.241 6.60256 12.5581L6.61505 12.5571Z" fill="#E83425"/>
</g>
<g style="mix-blend-mode:screen" opacity="0.29">
<path d="M14.6383 15.0519C15.092 15.311 16.7852 15.8369 17.7353 16.2578C19.1938 16.9149 20.3099 17.6112 21.5008 18.6214C22.12 19.1497 22.4412 20.6856 22.3584 21.3941C22.1513 23.0841 21.0555 25.1382 21.3994 27.3681C21.7158 29.4058 23.2116 30.7808 25.3236 30.716C30.206 30.5725 32.2222 25.5878 32.2008 21.3768C32.1823 17.6859 30.3357 13.9938 27.338 11.8084C24.7931 9.95119 20.7147 8.72794 17.6046 9.68575C16.4575 10.0387 14.5408 10.7528 14.0796 12.005C13.696 13.0443 13.5059 14.3882 14.6373 15.0394L14.6383 15.0519Z" fill="#F36F2E"/>
</g>
<g opacity="0.49">
<path d="M19.7649 15.8731C21.049 16.0673 22.1095 16.4545 23.4446 16.2561C25.0775 16.0093 27.1165 15.5741 28.0895 14.1189C28.7594 13.1262 29.106 12.096 28.6796 10.9007C28.1916 9.55971 26.8062 8.63366 25.3659 8.77136C23.8506 8.91491 22.9581 9.71188 21.7629 10.4949C21.1596 10.8931 20.242 11.6106 19.4536 11.8916C17.5657 12.5721 17.7049 15.5577 19.7649 15.8731Z" fill="#F36F2E"/>
</g>
<g opacity="0.49">
<path d="M4.28135 20.8701C2.79762 23.5062 3.97689 27.5012 5.90871 29.6321C8.10216 32.0559 12.1104 33.667 15.2341 32.0812C16.9259 31.2218 17.18 29.0893 15.443 28.0842C13.7454 27.1011 11.7314 27.1332 9.96579 26.3246C8.21939 25.5208 6.56782 22.7161 6.08508 20.961C5.84684 20.0832 4.66199 20.1946 4.2876 20.8696L4.28135 20.8701Z" fill="#B42024"/>
</g>
<path d="M25.291 17.2029C26.185 17.3085 27.0653 17.1582 27.9171 16.8847C29.2342 16.4557 30.6093 15.0819 30.2911 13.5835C30.0516 12.4487 29.2932 11.5865 28.0362 11.6597C26.6856 11.7402 25.9177 12.6842 25.3107 13.7597C25.1564 14.0351 25.0222 14.3277 24.8678 14.603C25.0563 14.2811 24.8103 14.6702 24.7762 14.7168C24.7024 14.8166 24.6083 14.8992 24.5205 14.9812C23.7758 15.6601 24.3461 17.0887 25.2972 17.2024L25.291 17.2029Z" fill="#F8A38A"/>
<path d="M4.01334 12.0584C5.1102 11.8661 6.14286 11.8167 7.24973 11.9934C8.28022 12.1573 9.19 12.6253 10.2597 12.6483C11.7949 12.6787 13.9381 12.6929 14.9127 11.3379C15.2757 10.8393 15.2587 10.22 14.7914 9.78641C13.2883 8.3994 11.3602 9.6096 9.74554 10.2499C8.61821 10.6954 7.20451 10.6116 6.01838 10.8673C5.24619 11.0342 4.58997 11.399 3.91649 11.7839C3.79025 11.8565 3.87071 12.0821 4.01285 12.0522L4.01334 12.0584Z" fill="#506A31"/>
<path d="M8.74021 4.94455C7.71016 8.241 10.9996 9.65759 12.9849 11.5084C14.4552 12.8791 16.4082 10.2189 14.5453 9.12961C13.683 8.62656 12.7877 8.18252 11.8559 7.83536C10.7233 7.40987 9.61076 6.43742 9.7222 5.13106C9.77241 4.48771 8.93743 4.33359 8.74645 4.94406L8.74021 4.94455Z" fill="#506A31"/>
<path d="M23.6867 5.53005C19.4174 4.11485 16.8589 8.18905 13.246 9.22379C11.4333 9.74165 12.658 12.6299 14.4961 11.6336C16.0447 10.7916 17.2727 9.7051 18.6245 8.59638C20.189 7.31432 22.0325 7.27049 23.7612 6.40187C24.1784 6.19372 24.1317 5.67706 23.693 5.52956L23.6867 5.53005Z" fill="#506A31"/>
<path d="M22.4657 8.62916C20.9966 10.1671 18.9439 10.8291 16.8474 10.4476C15.7323 10.2464 13.2253 9.27642 12.3809 10.5273C11.4572 11.8909 13.3809 13.596 14.3597 12.2156C14.3708 12.1959 14.388 12.1757 14.3991 12.1561C14.1029 12.3046 13.8072 12.4594 13.511 12.6079C15.7806 12.2299 17.8152 13.0236 20.0743 12.2703C21.617 11.7547 22.816 10.5388 23.138 8.95272C23.2197 8.5514 22.7205 8.35222 22.459 8.62341L22.4657 8.62916Z" fill="#506A31"/>
<path d="M9.16718 16.1073C10.2397 16.0862 11.2003 15.5973 12.1066 15.0563C12.5986 14.7608 13.0541 14.3992 13.4831 14.0209C13.9121 13.6426 14.289 13.0802 14.7493 12.781C15.7894 12.1041 15.6128 10.488 14.5291 9.96465C13.3406 9.38681 12.185 10.3548 12.1791 11.5651C12.1731 13.0952 10.3681 14.9164 8.99244 15.3186C8.52571 15.4554 8.72241 16.1233 9.16142 16.1141L9.16718 16.1073Z" fill="#506A31"/>
<path d="M15.706 1.80312C13.4678 4.10953 13.238 7.43745 13.6486 10.4395C13.8941 12.2132 16.5907 11.3504 15.6902 9.71564C14.5404 7.62398 15.7053 4.20415 16.3 2.08893C16.3981 1.73647 15.9209 1.57944 15.706 1.80312Z" fill="#435727"/>
<path d="M15.1687 3.60089C14.474 3.47341 13.7841 3.80945 13.4697 4.44837C13.1932 5.00912 13.2894 5.59713 13.6003 6.11822C14.3798 7.41134 16.5529 6.60201 16.375 5.1302C16.3628 4.97443 16.3262 4.82684 16.2828 4.67352C16.2231 4.55281 16.1639 4.43833 16.0979 4.31811C16.3312 5.05213 16.375 5.1302 16.2279 4.53363C16.028 4.06655 15.6846 3.6922 15.1619 3.59515L15.1687 3.60089Z" fill="#435727"/>
<path d="M9.72662 8.39582C10.3875 9.61672 11.925 10.4807 13.2793 10.6883C13.5843 10.7334 13.6924 10.3488 13.4415 10.1929C12.287 9.48701 10.9035 9.30681 9.98244 8.21282C9.85114 8.0601 9.63083 8.21524 9.72613 8.38958L9.72662 8.39582Z" fill="#435727"/>
<path d="M23.0697 6.39991C20.9865 5.94844 18.1916 7.40193 16.9152 8.99371C16.7037 9.261 17.0158 9.55632 17.2932 9.40924C18.1439 8.96033 18.9151 8.37972 19.7504 7.8944C20.8266 7.2774 21.9488 7.00786 23.0814 6.54944C23.1544 6.51866 23.1466 6.41897 23.0697 6.39991Z" fill="#435727"/>
<path d="M15.5317 12.0229C17.3666 13.315 20.143 12.5902 21.503 10.9417C21.6982 10.707 21.4039 10.3978 21.1524 10.5554C19.3269 11.7136 17.7699 12.2867 15.5964 11.8862C15.5263 11.8729 15.4654 11.978 15.5317 12.0229Z" fill="#435727"/>
<path d="M11.4036 14.1766C12.0405 13.3243 13.1933 12.4819 13.095 11.3048C13.077 11.0743 12.7719 11.0292 12.6617 11.2259C12.4033 11.6974 12.2352 12.1995 11.9576 12.6663C11.6911 13.1135 11.4389 13.5845 11.2247 14.0589C11.1763 14.163 11.3297 14.2764 11.4036 14.1766Z" fill="#435727"/>
<path d="M8.08225 10.913C8.84143 11.142 9.46345 11.1435 10.2433 10.9947C10.5776 10.931 10.8959 10.8246 11.222 10.7364C11.8059 10.5717 12.3741 10.6087 12.9629 10.5063C13.2294 10.4604 13.3856 10.047 13.0747 9.92708C11.425 9.31634 9.73937 10.8962 8.08654 10.8876C8.06781 10.889 8.06976 10.9139 8.08849 10.9125L8.08225 10.913Z" fill="#435727"/>
<path d="M6.11365 11.5998C6.77988 11.6042 7.43516 11.7096 8.09611 11.7269C8.25991 11.7329 8.25916 11.4822 8.11165 11.4436C7.45247 11.2883 6.75844 11.33 6.10245 11.4565C6.01601 11.4758 6.01902 11.5947 6.11365 11.5998Z" fill="#698338"/>
<path d="M7.30781 11.2108C7.6157 11.2118 7.95247 11.2607 8.24778 11.1811C8.3832 11.1455 8.36566 10.9212 8.22635 10.907C7.91602 10.8748 7.59719 10.975 7.2932 11.0238C7.17554 11.0456 7.18821 11.2076 7.30732 11.2045L7.30781 11.2108Z" fill="#698338"/>
<path d="M8.84464 11.6559C9.40061 11.857 10.0895 11.9912 10.6503 11.7718C10.815 11.7088 10.7965 11.472 10.6235 11.4291C10.0604 11.2976 9.45595 11.5204 8.87568 11.4905C8.79354 11.4844 8.7668 11.6244 8.84416 11.6497L8.84464 11.6559Z" fill="#698338"/>
<path d="M9.35999 6.35641C9.23101 7.43846 10.6666 8.60507 11.6327 8.74894C11.8743 8.78647 12.0987 8.44294 11.8598 8.27982C11.4887 8.03301 11.1014 7.81881 10.7188 7.58544C10.2828 7.31235 9.61134 6.91976 9.51755 6.3629C9.50497 6.28239 9.37142 6.26148 9.36624 6.35592L9.35999 6.35641Z" fill="#698338"/>
<path d="M15.8443 9.3529C16.1309 8.76002 16.8641 8.49583 17.3545 8.10016C17.5316 7.95466 17.3872 7.71519 17.1774 7.76295C16.5229 7.90816 15.7955 8.64833 15.7612 9.33432C15.7646 9.37793 15.828 9.38551 15.8438 9.34666L15.8443 9.3529Z" fill="#698338"/>
<path d="M14.595 5.90208C15.3201 6.17763 15.9915 5.20362 15.61 4.58149C15.4449 4.31857 15.0742 4.39771 14.9419 4.63373C14.7818 4.91581 14.9995 5.45044 14.6144 5.58712C14.4862 5.63476 14.4523 5.84428 14.6013 5.90159L14.595 5.90208Z" fill="#506A31"/>
<path d="M14.4417 7.48243C13.7586 8.30691 14.2631 9.77826 14.8777 10.4887C15.0576 10.7003 15.397 10.5422 15.3184 10.2599C15.1902 9.82488 15.0312 9.39849 14.903 8.96343C14.7656 8.49147 14.7487 8.03516 14.6795 7.5516C14.6645 7.43994 14.5218 7.38214 14.4412 7.47621L14.4417 7.48243Z" fill="#506A31"/>
<path d="M15.36 3.72366C15.3499 3.75579 15.3399 3.78793 15.3365 3.8258C15.3169 3.89629 15.448 3.88604 15.4177 3.81945C15.4028 3.78927 15.3879 3.75909 15.3787 3.7222C15.3782 3.71597 15.3657 3.71694 15.3662 3.72318L15.36 3.72366Z" fill="#506A31"/>
<path d="M15.2927 3.91047C15.6071 3.75424 15.7891 3.26985 15.9679 2.9863C16.0854 2.80159 15.8186 2.60304 15.6516 2.7164C15.3358 2.93543 14.9944 3.4699 15.1884 3.8622C15.2038 3.89861 15.2499 3.92635 15.2864 3.91096L15.2927 3.91047Z" fill="#506A31"/>
<path d="M28.287 14.0718C29.105 14.0079 29.7324 13.2755 29.6686 12.4593C29.6048 11.6431 28.8711 11.0171 28.0532 11.0811C27.2353 11.145 26.6078 11.8774 26.6716 12.6936C26.7354 13.5099 27.4691 14.1358 28.287 14.0718Z" fill="white"/>
</svg>
