<svg viewBox="0 0 245 61" fill="none" xmlns="http://www.w3.org/2000/svg">
<g filter="url(#filter0_d_1280_14286)">
<path d="M26.3628 39.5938H14.2471V50.5152H26.3628V39.5938Z" fill="#C18E59"/>
<path d="M26.3624 50.8642H14.2467C14.2467 50.8642 13.8179 50.725 13.8179 50.5859V39.5949C13.8179 39.5949 14.0323 39.2471 14.2467 39.2471H26.3624C26.3624 39.2471 26.8985 39.3862 26.8985 39.5949V50.5164C26.8985 50.5164 26.6841 50.7946 26.3624 50.7946V50.8642ZM14.6756 50.2381H25.8263V39.9427H14.6756V50.2381Z" fill="#A57D4F"/>
<g style="mix-blend-mode:multiply" opacity="0.4">
<path d="M26.3628 39.5928H14.2471V47.7317H26.3628V39.5928Z" fill="#C18E59"/>
</g>
<path d="M230.936 39.5938H218.821V50.5152H230.936V39.5938Z" fill="#C18E59"/>
<path d="M231.046 50.8642H218.93C218.93 50.8642 218.501 50.725 218.501 50.5859V39.5949C218.501 39.5949 218.715 39.2471 218.93 39.2471H231.046C231.046 39.2471 231.474 39.3862 231.474 39.5949V50.5164C231.474 50.5164 231.26 50.7946 231.046 50.7946V50.8642ZM219.359 50.2381H230.509V39.9427H219.359V50.2381Z" fill="#A57D4F"/>
<g style="mix-blend-mode:multiply" opacity="0.4">
<path d="M230.936 39.5928H218.821V47.7317H230.936V39.5928Z" fill="#C18E59"/>
</g>
<path d="M242.193 36.1152H3.0957V40.9847H242.193V36.1152Z" fill="#966E43"/>
<path d="M242.195 41.3324H3.0981C3.0981 41.3324 2.56201 41.1933 2.56201 40.9846V36.1152C2.56201 36.1152 2.77645 35.8369 3.0981 35.8369H242.195C242.195 35.8369 242.624 35.976 242.624 36.1152V40.9846C242.624 40.9846 242.41 41.3324 242.195 41.3324ZM3.52698 40.7064H241.659V36.463H3.52698V40.7064Z" fill="#8A6941"/>
<path d="M242.193 39.9404H3.0957V44.8099H242.193V39.9404Z" fill="#C18E59"/>
<path d="M242.195 45.0893H3.0981C3.0981 45.0893 2.56201 44.9501 2.56201 44.7414V39.872C2.56201 39.872 2.77645 39.5938 3.0981 39.5938H242.195C242.195 39.5938 242.624 39.7329 242.624 39.872V44.7414C242.624 44.7414 242.41 45.0893 242.195 45.0893ZM3.52698 44.4632H241.659V40.2198H3.52698V44.4632Z" fill="#A57D4F"/>
<g style="mix-blend-mode:screen">
<path d="M242.193 39.9404H3.0957V41.0534H242.193V39.9404Z" fill="#C18E59"/>
</g>
</g>
<path d="M9.10332 16.6495L9.43076 26.2044L7.6416 31.1102L9.77444 36.2373L110.85 36.3701L112.507 28.8284L107.349 11.1064L9.10332 16.6495Z" fill="#E0BD9D"/>
<path d="M9.43096 26.2052C9.43096 26.2052 43.5386 31.8101 59.8136 32.027C76.0887 32.2438 102.469 30.2968 102.469 30.2968C102.469 30.2968 98.2518 36.387 98.6855 36.3708C99.1177 36.3561 110.85 36.3708 110.85 36.3708L112.509 28.8277L109.251 17.634L9.10352 16.0381L9.43096 26.2052Z" fill="#C4A58C"/>
<path d="M6.22841 1.5624C6.22841 1.5624 20.1154 11.7457 50.4088 11.3932C80.7036 11.0407 109.548 0.0859375 109.548 0.0859375L114.786 17.743C114.786 17.743 104.131 29.4264 69.9701 29.0916C35.8093 28.7568 6.77858 23.2329 6.22841 22.137C5.67824 21.0411 6.22841 1.5624 6.22841 1.5624Z" fill="#EBCFA8"/>
<path opacity="0.21" d="M11.1078 11.1406C11.5414 11.3884 11.9942 11.741 12.037 12.238C12.1063 13.0183 11.1977 13.4593 10.6712 14.039C9.63277 15.1792 10.152 17.1335 11.3334 18.1247C12.5149 19.1159 14.1182 19.3991 15.6404 19.6469C24.7691 21.1322 33.8993 22.6161 43.028 24.1014C50.4162 25.3035 58.7558 26.2843 64.6985 21.734C64.9714 21.526 65.2502 21.2841 65.3372 20.9523C65.5467 20.1484 64.5702 19.582 63.7723 19.3475C52.8352 16.1423 41.0707 17.3002 29.9242 14.9196C29.0776 14.7381 28.197 14.5184 27.548 13.9461C27.163 13.6068 26.8842 13.1643 26.5066 12.8177C25.9211 12.2779 25.1452 12.005 24.3915 11.7454C20.0831 10.2601 15.7658 8.43256 11.3939 7.17881C10.1652 6.82629 8.84513 6.1006 8.19466 7.66409C7.37309 9.63762 9.99857 10.3102 11.1078 11.1421V11.1406Z" fill="white"/>
<path opacity="0.21" d="M79.3215 12.3325C78.2507 12.6718 76.9291 13.4639 77.2625 14.5362C79.9351 15.8135 83.0533 14.6483 85.9369 13.9742C93.0448 12.3104 100.914 13.7028 107.405 10.3649C108.427 9.83834 109.535 8.85452 109.196 7.75713C109.087 7.4046 108.838 7.11403 108.578 6.85148C105.262 3.51358 99.4891 6.59926 95.5523 7.63175C90.1037 9.06102 84.692 10.6275 79.3245 12.3325H79.3215Z" fill="white"/>
<path d="M7.6416 31.1104L33.535 33.1104L8.83634 33.9822L7.6416 31.1104Z" fill="#C4A58C"/>
<g filter="url(#filter1_d_1280_14286)">
<rect x="38.0718" y="58.1445" width="18.5513" height="44.627" transform="rotate(-90 38.0718 58.1445)" fill="#33794D"/>
<rect x="38.5718" y="57.6445" width="17.5513" height="43.627" transform="rotate(-90 38.5718 57.6445)" stroke="#2D9051"/>
</g>
<path d="M48.438 52.5098C48.27 52.6465 48.0513 52.7559 47.7817 52.8379C47.5161 52.916 47.2192 52.9551 46.8911 52.9551C46.563 52.9551 46.27 52.9023 46.0122 52.7969V51.4375C46.2739 51.5078 46.479 51.543 46.6274 51.543C46.7759 51.543 46.897 51.5156 46.9907 51.4609C47.0884 51.4062 47.1606 51.3301 47.2075 51.2324C47.2856 51.0566 47.3247 50.8457 47.3247 50.5996V46.6855L46.4751 46.7676V45.4141C47.6743 45.2461 48.8677 45.1621 50.0552 45.1621C50.9341 45.1621 51.5923 45.2734 52.0298 45.4961C52.2524 45.6094 52.4341 45.7402 52.5747 45.8887C52.7192 46.0332 52.8306 46.2148 52.9087 46.4336C52.9868 46.6523 53.0396 46.875 53.0669 47.1016C53.0942 47.3242 53.1079 47.5898 53.1079 47.8984V52.8379H51.3091V47.8926C51.3091 46.9902 50.8149 46.5391 49.8267 46.5391C49.6079 46.5391 49.3696 46.5449 49.1118 46.5566V50.5996C49.1118 51.5059 48.8872 52.1426 48.438 52.5098ZM56.7407 52.8379H54.9536V45.2793H56.7407V52.8379ZM63.1216 52.6387V52.8379H61.3462V52.6387C61.3462 52.3223 61.397 51.8867 61.4985 51.332C61.6001 50.7734 61.7251 50.2891 61.8735 49.8789L63.0454 46.6445H58.6216V45.2793H65.0024V46.3574L63.731 49.8086C63.3247 50.9102 63.1216 51.8535 63.1216 52.6387ZM60.2856 55.7266H58.6274V48.3145H60.2856V55.7266ZM65.6118 45.2852C66.3423 45.2031 66.9888 45.1621 67.5513 45.1621C68.1177 45.1621 68.5649 45.1895 68.8931 45.2441C69.2212 45.2988 69.4966 45.3828 69.7192 45.4961C69.9419 45.6094 70.1235 45.7402 70.2642 45.8887C70.4087 46.0332 70.52 46.2148 70.5981 46.4336C70.6763 46.6523 70.729 46.875 70.7563 47.1016C70.7837 47.3242 70.7974 47.5898 70.7974 47.8984V52.8379H69.0044V47.8926C69.0044 46.9902 68.5083 46.5391 67.5161 46.5391C67.0161 46.5391 66.3813 46.5801 65.6118 46.6621V45.2852ZM72.561 50.2832V45.2793H74.3481V48.7715L73.1587 50.2832H72.561Z" fill="white"/>
<circle cx="40.3433" cy="41.9258" r="0.59375" fill="#181818"/>
<circle cx="80.2808" cy="41.9258" r="0.59375" fill="#181818"/>
<g filter="url(#filter2_d_1280_14286)">
<rect x="160.572" y="58.1445" width="18.5513" height="44.627" transform="rotate(-90 160.572 58.1445)" fill="#C53939"/>
<rect x="161.072" y="57.6445" width="17.5513" height="43.627" transform="rotate(-90 161.072 57.6445)" stroke="#DF5454"/>
</g>
<path d="M171.055 53.5098C170.887 53.6465 170.668 53.7559 170.399 53.8379C170.133 53.916 169.836 53.9551 169.508 53.9551C169.18 53.9551 168.887 53.9023 168.629 53.7969V52.4375C168.891 52.5078 169.096 52.543 169.245 52.543C169.393 52.543 169.514 52.5156 169.608 52.4609C169.706 52.4062 169.778 52.3301 169.825 52.2324C169.903 52.0566 169.942 51.8457 169.942 51.5996V47.6855L169.092 47.7676V46.4141C170.292 46.2461 171.485 46.1621 172.672 46.1621C173.551 46.1621 174.209 46.2734 174.647 46.4961C174.87 46.6094 175.051 46.7402 175.192 46.8887C175.336 47.0332 175.448 47.2148 175.526 47.4336C175.604 47.6523 175.657 47.875 175.684 48.1016C175.711 48.3242 175.725 48.5898 175.725 48.8984V53.8379H173.926V48.8926C173.926 47.9902 173.432 47.5391 172.444 47.5391C172.225 47.5391 171.987 47.5449 171.729 47.5566V51.5996C171.729 52.5059 171.504 53.1426 171.055 53.5098ZM179.358 53.8379H177.571V46.2793H179.358V53.8379ZM180.553 46.2852C181.284 46.2031 181.93 46.1621 182.493 46.1621C183.059 46.1621 183.506 46.1895 183.834 46.2441C184.163 46.2988 184.438 46.3828 184.661 46.4961C184.883 46.6094 185.065 46.7402 185.206 46.8887C185.35 47.0332 185.461 47.2148 185.54 47.4336C185.618 47.6523 185.67 47.875 185.698 48.1016C185.725 48.3242 185.739 48.5898 185.739 48.8984V53.8379H183.946V48.8926C183.946 47.9902 183.45 47.5391 182.458 47.5391C181.958 47.5391 181.323 47.5801 180.553 47.6621V46.2852ZM187.502 51.2832V46.2793H189.29V49.7715L188.1 51.2832H187.502ZM190.649 48.8398C190.649 48.4375 190.713 48.0781 190.842 47.7617C190.975 47.4453 191.145 47.1895 191.352 46.9941C191.563 46.7988 191.809 46.6367 192.09 46.5078C192.598 46.2773 193.178 46.1621 193.831 46.1621C194.147 46.1621 194.442 46.1914 194.715 46.25C194.993 46.3086 195.276 46.4258 195.565 46.6016C195.854 46.7734 196.1 46.998 196.303 47.2754C196.51 47.5527 196.678 47.9297 196.807 48.4062C196.94 48.8789 197.006 49.3848 197.006 49.9238C197.006 50.4629 196.977 50.9199 196.918 51.2949C196.86 51.666 196.778 51.9844 196.672 52.25C196.571 52.5156 196.442 52.75 196.286 52.9531C196.129 53.1562 195.963 53.3203 195.788 53.4453C195.612 53.5703 195.415 53.6719 195.196 53.75C194.809 53.8867 194.358 53.9551 193.842 53.9551C193.331 53.9551 192.846 53.9414 192.389 53.9141C191.936 53.8867 191.606 53.8594 191.399 53.832L191.094 53.791V52.4785C191.993 52.5488 192.905 52.584 193.831 52.584C194.17 52.584 194.45 52.4863 194.668 52.291C194.833 52.1426 194.963 51.8906 195.061 51.5352C195.127 51.293 195.165 51.0352 195.172 50.7617C195.18 50.4883 195.184 50.252 195.184 50.0527C195.184 49.8535 195.182 49.6875 195.178 49.5547C195.174 49.418 195.163 49.2559 195.143 49.0684C195.124 48.877 195.096 48.7188 195.061 48.5938C195.026 48.4688 194.975 48.3379 194.909 48.2012C194.842 48.0605 194.762 47.9512 194.668 47.873C194.446 47.6816 194.167 47.5859 193.831 47.5859C193.584 47.5859 193.37 47.623 193.186 47.6973C193.006 47.7676 192.872 47.8496 192.782 47.9434C192.696 48.0371 192.625 48.1465 192.571 48.2715C192.5 48.4473 192.465 48.625 192.465 48.8047C192.465 48.9805 192.502 49.1465 192.577 49.3027C192.655 49.459 192.75 49.5801 192.864 49.666C193.079 49.8301 193.276 49.9297 193.456 49.9648L193.678 50.0059L193.379 51.3418L193.069 51.3008C192.526 51.2305 192.116 51.1309 191.838 51.002C191.045 50.6387 190.649 49.918 190.649 48.8398Z" fill="white"/>
<circle cx="162.843" cy="41.9258" r="0.59375" fill="#181818"/>
<circle cx="202.781" cy="41.9258" r="0.59375" fill="#181818"/>
<path d="M131.604 16.6495L131.931 26.2044L130.142 31.1102L132.275 36.2373L233.35 36.3701L235.008 28.8284L229.85 11.1064L131.604 16.6495Z" fill="#E0BD9D"/>
<path d="M131.931 26.2052C131.931 26.2052 166.039 31.8101 182.314 32.027C198.589 32.2438 224.969 30.2968 224.969 30.2968C224.969 30.2968 220.752 36.387 221.186 36.3708C221.618 36.3561 233.35 36.3708 233.35 36.3708L235.01 28.8277L231.751 17.634L131.604 16.0381L131.931 26.2052Z" fill="#C4A58C"/>
<path d="M128.729 1.5624C128.729 1.5624 142.616 11.7457 172.909 11.3932C203.204 11.0407 232.049 0.0859375 232.049 0.0859375L237.287 17.743C237.287 17.743 226.631 29.4264 192.471 29.0916C158.31 28.7568 129.279 23.2329 128.729 22.137C128.179 21.0411 128.729 1.5624 128.729 1.5624Z" fill="#EBCFA8"/>
<path opacity="0.21" d="M133.608 11.1406C134.042 11.3884 134.495 11.741 134.537 12.238C134.607 13.0183 133.698 13.4593 133.172 14.039C132.133 15.1792 132.652 17.1335 133.834 18.1247C135.015 19.1159 136.619 19.3991 138.141 19.6469C147.27 21.1322 156.4 22.6161 165.528 24.1014C172.917 25.3035 181.256 26.2843 187.199 21.734C187.472 21.526 187.751 21.2841 187.838 20.9523C188.047 20.1484 187.071 19.582 186.273 19.3475C175.336 16.1423 163.571 17.3002 152.425 14.9196C151.578 14.7381 150.697 14.5184 150.048 13.9461C149.664 13.6068 149.385 13.1643 149.007 12.8177C148.422 12.2779 147.646 12.005 146.892 11.7454C142.584 10.2601 138.266 8.43256 133.894 7.17881C132.666 6.82629 131.346 6.1006 130.695 7.66409C129.874 9.63762 132.499 10.3102 133.608 11.1421V11.1406Z" fill="white"/>
<path opacity="0.21" d="M201.822 12.3325C200.751 12.6718 199.43 13.4639 199.763 14.5362C202.436 15.8135 205.554 14.6483 208.437 13.9742C215.545 12.3104 223.414 13.7028 229.906 10.3649C230.928 9.83834 232.036 8.85452 231.696 7.75713C231.587 7.4046 231.338 7.11403 231.078 6.85148C227.763 3.51358 221.99 6.59926 218.053 7.63175C212.604 9.06102 207.192 10.6275 201.825 12.3325H201.822Z" fill="white"/>
<path d="M130.142 31.1104L156.036 33.1104L131.337 33.9822L130.142 31.1104Z" fill="#C4A58C"/>
<defs>
<filter id="filter0_d_1280_14286" x="0.562012" y="35.8369" width="244.062" height="21.0273" filterUnits="userSpaceOnUse" color-interpolation-filters="sRGB">
<feFlood flood-opacity="0" result="BackgroundImageFix"/>
<feColorMatrix in="SourceAlpha" type="matrix" values="0 0 0 0 0 0 0 0 0 0 0 0 0 0 0 0 0 0 127 0" result="hardAlpha"/>
<feOffset dy="4"/>
<feGaussianBlur stdDeviation="1"/>
<feComposite in2="hardAlpha" operator="out"/>
<feColorMatrix type="matrix" values="0 0 0 0 0 0 0 0 0 0 0 0 0 0 0 0 0 0 0.25 0"/>
<feBlend mode="normal" in2="BackgroundImageFix" result="effect1_dropShadow_1280_14286"/>
<feBlend mode="normal" in="SourceGraphic" in2="effect1_dropShadow_1280_14286" result="shape"/>
</filter>
<filter id="filter1_d_1280_14286" x="37.0718" y="39.5938" width="46.627" height="20.5508" filterUnits="userSpaceOnUse" color-interpolation-filters="sRGB">
<feFlood flood-opacity="0" result="BackgroundImageFix"/>
<feColorMatrix in="SourceAlpha" type="matrix" values="0 0 0 0 0 0 0 0 0 0 0 0 0 0 0 0 0 0 127 0" result="hardAlpha"/>
<feOffset dy="1"/>
<feGaussianBlur stdDeviation="0.5"/>
<feComposite in2="hardAlpha" operator="out"/>
<feColorMatrix type="matrix" values="0 0 0 0 0 0 0 0 0 0 0 0 0 0 0 0 0 0 0.4 0"/>
<feBlend mode="normal" in2="BackgroundImageFix" result="effect1_dropShadow_1280_14286"/>
<feBlend mode="normal" in="SourceGraphic" in2="effect1_dropShadow_1280_14286" result="shape"/>
</filter>
<filter id="filter2_d_1280_14286" x="159.572" y="39.5938" width="46.627" height="20.5508" filterUnits="userSpaceOnUse" color-interpolation-filters="sRGB">
<feFlood flood-opacity="0" result="BackgroundImageFix"/>
<feColorMatrix in="SourceAlpha" type="matrix" values="0 0 0 0 0 0 0 0 0 0 0 0 0 0 0 0 0 0 127 0" result="hardAlpha"/>
<feOffset dy="1"/>
<feGaussianBlur stdDeviation="0.5"/>
<feComposite in2="hardAlpha" operator="out"/>
<feColorMatrix type="matrix" values="0 0 0 0 0 0 0 0 0 0 0 0 0 0 0 0 0 0 0.4 0"/>
<feBlend mode="normal" in2="BackgroundImageFix" result="effect1_dropShadow_1280_14286"/>
<feBlend mode="normal" in="SourceGraphic" in2="effect1_dropShadow_1280_14286" result="shape"/>
</filter>
</defs>
</svg>
