<svg viewBox="0 0 42 63" fill="none" xmlns="http://www.w3.org/2000/svg">
<path d="M41.5677 60.7184C30.4412 65.8357 16.2966 61.1689 8.85492 51.4388C1.42224 41.7088 -1.37065 29.4922 2.43128 17.8611C3.65655 14.1223 7.02603 9.07707 9.7108 6.21211C12.0172 3.75257 14.9272 1.96873 17.8012 0.211914C25.7293 20.6991 33.6395 40.2403 41.5677 60.7184Z" fill="#E93127"/>
<mask id="mask0_1293_15709" style="mask-type:luminance" maskUnits="userSpaceOnUse" x="0" y="0" width="42" height="63">
<path d="M41.5677 60.7184C30.4412 65.8357 16.2966 61.1689 8.85492 51.4388C1.42224 41.7088 -1.37065 29.4922 2.43128 17.8611C3.65655 14.1223 7.02603 9.07707 9.7108 6.21211C12.0172 3.75257 14.9272 1.96873 17.8012 0.211914C25.7293 20.6991 33.6395 40.2403 41.5677 60.7184Z" fill="white"/>
</mask>
<g mask="url(#mask0_1293_15709)">
<path d="M18.323 0.978516C15.1607 1.28483 15.5301 2.19477 13.1967 4.23088C10.7101 6.40212 7.47576 9.91575 5.70994 12.7086C2.26838 18.1593 2.25937 20.2764 1.95305 26.7091C1.28637 40.4393 6.52978 53.4397 19.5032 59.2777C23.152 60.9264 26.116 61.8184 30.1342 61.7643C34.0172 61.7193 38.1164 63.2058 40.5669 59.9174C41.3688 58.8453 42.8193 58.2056 41.5039 57.8813C38.1975 57.0615 34.8821 58.8813 31.5847 59.1786C28.6476 59.4489 25.7286 58.7642 22.9898 57.7101C17.1247 55.4668 12.9354 51.2955 9.79115 45.935C3.92609 35.9076 3.61978 23.4477 8.9623 13.1681C10.3407 10.5104 14.0706 5.16784 19.2059 2.29387C19.8726 1.91548 18.314 0.987525 18.314 0.987525L18.323 0.978516Z" fill="#EFF6E7"/>
<path d="M41.4411 58.7914C39.8284 59.404 42.2159 58.7103 40.5581 59.1698C38.9094 59.6383 37.6571 60.4131 35.9814 60.6924C32.8732 61.2059 30.3686 60.8816 27.2154 60.6023C21.098 60.0617 14.8996 56.7463 11.332 51.7912C9.41297 49.1244 8.01653 46.5748 6.80928 43.5296C5.57501 40.4214 4.59299 37.07 3.79116 33.8086C2.83618 29.9166 3.08844 25.8354 3.68305 22.4118C4.5029 17.6639 6.40386 13.1683 9.21477 9.25823C11.6833 5.82569 14.1338 3.87067 18.3682 1.63636C19.7196 0.915616 19.17 1.60032 18.3862 0.447132C17.4313 -0.931292 17.5033 0.528215 16.1519 1.23995C11.0617 4.60943 9.51207 5.40225 4.43983 12.1052C3.1515 15.4296 2.29562 17.8531 1.51181 21.3307C0.682951 25.0335 0.241495 26.5111 0.520784 30.34C0.800072 34.187 1.91723 39.5655 3.85423 42.962C11.4941 60.0077 22.8008 61.7555 29.8911 62.9087C37.9635 63.278 42.8375 60.2419 41.5852 60.7194L41.4591 58.7914H41.4411Z" fill="#387847"/>
<path opacity="0.65" d="M34.1527 37.5832C32.477 34.9254 31.513 31.7812 30.4048 28.8532C29.2516 25.772 20.5396 3.62709 20.4045 3.66313C17.8999 4.75326 17.99 5.51004 16.2242 9.27593C14.2602 13.4653 12.7106 17.9609 12.4943 22.6007C12.0439 32.5019 19.0171 41.1689 26.3326 47.07C30.6571 50.5476 34.1978 53.2864 39.7475 53.3765C41.198 53.4035 34.9996 38.9165 34.1527 37.5742V37.5832Z" fill="#F0504E"/>
</g>
<path d="M24.8643 43.7004C24.2607 43.8716 23.7652 44.3941 23.3508 44.8536C22.7922 45.4662 22.2156 46.268 22.3237 47.1329C22.4679 48.3222 23.6391 48.7997 24.6391 48.2591C25.3779 47.8537 25.6932 46.8446 25.8193 46.0518C25.9184 45.4482 25.9995 44.6824 25.7202 44.1148C25.549 43.7815 25.2608 43.5923 24.8734 43.7004H24.8643Z" fill="#DA1F26"/>
<path d="M28.0982 46.4025C27.909 46.6638 27.7108 46.853 27.4856 47.0872C27.2333 47.3575 27.1072 47.7269 26.99 48.0692C26.6477 49.0152 26.5486 50.2135 27.6207 50.736C28.0622 50.9522 28.5937 50.8621 28.9901 50.5828C29.5307 50.2135 29.6568 49.5558 29.6568 48.9431C29.6568 48.2044 29.5847 47.5377 29.2334 46.88L29.3955 47.3395C29.3865 47.1683 29.3775 46.9971 29.3775 46.8169C29.3595 46.2133 28.4766 45.871 28.0982 46.3935V46.4025Z" fill="#DA1F26"/>
<path d="M31.5129 47.9443C30.9994 48.2867 30.8192 48.8813 30.7561 49.4669C30.657 50.2957 30.8372 50.9985 31.4318 51.6111C31.8823 52.0796 32.8553 51.9895 33.2337 51.476C33.7923 50.7102 33.8013 49.8363 33.4319 48.9894C33.1346 48.2957 32.3418 47.4218 31.5129 47.9623V47.9443Z" fill="#DA1F26"/>
<path d="M21.3597 40.836C20.8642 40.9171 20.3146 40.9621 19.8461 41.1243C19.5758 41.2144 19.2785 41.3495 19.0443 41.5117C18.6569 41.782 18.5127 42.1153 18.3686 42.5477C18.1524 43.1964 18.765 43.9081 19.3686 44.0343C20.6209 44.2865 21.4137 43.1604 22.0984 42.3135C22.5399 41.7639 22.1615 40.7008 21.3597 40.836Z" fill="#DA1F26"/>
<path d="M18.7562 36.8527C18.1435 36.7086 17.657 36.6005 17.0174 36.7356C16.2606 36.8888 15.6029 37.087 15.0713 37.6726C14.6029 38.2041 14.5758 39.051 14.9632 39.6276C15.3867 40.2402 16.1254 40.4204 16.8101 40.2312C17.8192 39.97 18.558 38.9789 19.2607 38.3213C19.7922 37.8258 19.3418 36.9879 18.7471 36.8437L18.7562 36.8527Z" fill="#DA1F26"/>
<path d="M17.2243 32.3668C15.7648 31.7812 13.5305 31.7632 12.7016 33.3488C12.3322 34.0426 12.6656 35.0786 13.4134 35.394C14.7467 35.9435 16.2333 35.1237 17.3955 34.457C18.1613 34.0155 18.0532 32.7002 17.2423 32.3758H17.2333L17.2243 32.3668Z" fill="#DA1F26"/>
<path d="M15.0709 27.8081C14.4313 27.3306 13.7916 26.9342 12.9988 26.808C11.9808 26.6459 10.8366 26.5828 10.1338 27.4837C9.57527 28.1955 9.59329 29.2676 10.323 29.8712C11.5123 30.8622 13.3412 30.1775 14.6926 29.8442C15.5575 29.637 15.7737 28.3216 15.08 27.8081H15.0709Z" fill="#DA1F26"/>
<path d="M13.6567 23.1588C12.8008 22.4831 11.8549 21.2939 10.6026 21.3299C9.52145 21.3569 8.9899 22.6543 9.55749 23.4921C10.2963 24.6003 12.026 24.5462 13.1702 24.6183C13.909 24.6633 14.1973 23.5732 13.6567 23.1498V23.1588Z" fill="#DA1F26"/>
<path d="M14.5845 18.1678C14.3863 18.0146 14.1881 17.7714 14.0079 17.5822C14.125 17.7534 14.2422 17.9245 14.3503 18.0957C14.2872 17.9606 14.2241 17.8254 14.1521 17.6993C13.9178 17.438 13.8548 17.375 13.9809 17.5011C13.8367 17.3389 13.7016 17.1768 13.5484 17.0236C13.2241 16.6993 13.7196 17.2398 13.4403 16.9065C13.2602 16.6903 13.089 16.456 12.8547 16.2849C12.143 15.7803 11.0889 15.7173 10.5033 16.474C9.93572 17.1948 9.98076 18.2038 10.6835 18.8255C11.1069 19.1949 11.6475 19.375 12.179 19.5372C12.6655 19.6904 13.125 19.7174 13.6205 19.6093C13.4133 19.6273 13.2061 19.6363 13.0079 19.6543C13.3863 19.6814 13.7196 19.6543 14.089 19.6543C14.8278 19.6543 15.1431 18.6093 14.5845 18.1678Z" fill="#DA1F26"/>
<path d="M15.3681 14.3931C15.1609 14.0598 15.0528 13.7084 14.8366 13.3661C14.7645 13.258 14.6654 12.9967 14.5663 12.9336C14.6023 12.9967 14.6383 13.0598 14.6744 13.1228C14.6564 13.0417 14.6203 12.9607 14.5663 12.8886C14.4762 12.7084 14.35 12.5552 14.2059 12.4201C13.6113 11.8976 12.413 12.0237 12.1157 12.8616C12.1157 12.8796 12.0977 12.8886 12.0977 12.9066C11.9446 13.339 11.8635 13.9066 12.2058 14.294C12.6383 14.7805 13.0257 14.9157 13.6293 15.0959C14.0347 15.222 14.35 15.231 14.7374 15.3391C15.296 15.5103 15.6114 14.7986 15.3681 14.3841V14.3931Z" fill="#DA1F26"/>
<path d="M17.7471 12.1681C18.0624 10.6815 16.9813 9.16795 15.8552 8.30306C15.1614 7.77151 14.1524 7.78953 13.5668 8.48325C13.0082 9.14093 13.0623 10.222 13.747 10.7716C14.693 11.5374 15.7561 12.4473 16.9723 12.6906C17.3237 12.7627 17.6841 12.5194 17.7471 12.1681Z" fill="#DA1F26"/>
<path d="M24.7919 50.0972C24.7919 50.0972 24.7018 50.1242 24.6657 50.1423C24.8369 50.1333 25.0081 50.1152 25.1702 50.1062C24.4135 50.0522 23.8999 50.4576 23.3594 50.9351C22.6747 51.5387 22.0891 52.3586 22.1521 53.3135C22.2242 54.4037 23.6116 55.2145 24.5306 54.4667C25.1793 53.9352 25.4676 53.2415 25.6658 52.4486C25.8099 51.8811 26.0892 51.3765 25.9 50.7459C25.909 50.9171 25.927 51.0882 25.936 51.2504C25.945 51.2054 25.9541 51.1603 25.9631 51.1153C26.1072 50.4666 25.4135 49.8269 24.7828 50.0882H24.7919V50.0972Z" fill="#DA1F26"/>
<path d="M27.1617 51.9254C27.0085 52.0876 26.9004 52.2858 26.8103 52.484C26.7202 52.6281 26.6662 52.7813 26.6301 52.9435C26.5761 53.1146 26.5761 53.1237 26.6301 52.9795C26.3869 53.6552 26.2608 54.0967 26.4319 54.8354C26.7022 55.9976 28.3419 56.1328 29.0356 55.3219C29.8194 54.403 29.6933 52.6011 28.7653 51.8083C28.2878 51.3939 27.5761 51.484 27.1617 51.9344V51.9254Z" fill="#DA1F26"/>
<path d="M31.5494 52.9163C31.3421 53.3577 31.1259 53.9253 31.1079 54.5199C31.0899 55.2407 31.234 55.8804 31.8016 56.3669C32.4953 56.9885 33.5674 56.6912 33.9729 55.9164C34.5585 54.8263 33.8467 53.61 33.3512 52.7812C32.9368 52.1055 31.8737 52.2406 31.5584 52.9163H31.5494Z" fill="#DA1F26"/>
<path d="M25.17 39.0789C24.9357 39.178 24.7015 39.2771 24.4943 39.4212C24.3321 39.5474 24.17 39.6915 24.0168 39.8357C23.7826 40.0339 23.6024 40.2321 23.4312 40.4843C23.1699 40.8897 23.1879 41.2771 23.278 41.7276C23.3771 42.2141 23.9357 42.4574 24.3772 42.4574C25.0889 42.4574 25.5574 41.9168 25.8727 41.3492C26.0979 40.9438 26.2871 40.5834 26.3682 40.124C26.4853 39.4663 25.8277 38.8086 25.161 39.0789H25.17Z" fill="#DA1F26"/>
<path d="M18.2965 46.5557C18.5217 46.3575 18.5488 46.3124 18.3866 46.4386C18.2965 46.4836 18.2154 46.5377 18.1253 46.5827C17.9361 46.6908 17.765 46.799 17.6028 46.9341C17.1433 47.2855 16.6478 47.6188 16.4496 48.1864C16.2694 48.7089 16.2604 49.2405 16.6658 49.6729C17.0532 50.0873 17.5668 50.1955 18.1073 50.0513C18.81 49.8711 19.3506 49.2315 19.765 48.6639C20.1254 48.1684 20.4858 47.6008 20.4137 46.9611C20.3056 45.907 18.765 45.4746 18.3055 46.5467L18.2965 46.5557Z" fill="#DA1F26"/>
<path d="M12.2148 36.2492C11.7103 35.9969 11.0255 36.033 10.485 36.1591C9.74623 36.3393 9.15161 36.7087 8.98044 37.5105C8.86332 38.0691 9.17864 38.7177 9.70118 38.961C10.4399 39.2943 11.0346 39.0331 11.6742 38.6367C12.0796 38.3844 12.449 38.0511 12.7103 37.6637C13.0256 37.1772 12.6833 36.4925 12.2238 36.2582L12.2148 36.2492Z" fill="#DA1F26"/>
<path d="M17.4407 10.9794C17.2785 10.5199 17.0983 10.0965 16.7469 9.76311C16.2965 9.33066 15.7379 8.91624 15.0802 9.11444C14.5577 9.28562 14.1973 9.81717 14.3505 10.3757C14.6117 11.2857 15.7559 11.565 16.5487 11.8623C17.0533 12.0515 17.6118 11.4659 17.4407 10.9794Z" fill="#471212"/>
<g opacity="0.16">
<path d="M16.1256 10.67C16.0806 10.5529 16.0355 10.4357 15.9455 10.3457C15.8283 10.2285 15.6752 10.1204 15.504 10.1745C15.3689 10.2195 15.2607 10.3637 15.3058 10.5168C15.3779 10.7601 15.6842 10.8322 15.8914 10.9132C16.0265 10.9583 16.1797 10.8141 16.1256 10.679V10.67Z" fill="white"/>
</g>
<path d="M15.0808 14.5197C14.9186 14.0603 14.7384 13.6368 14.3871 13.3035C13.9366 12.871 13.387 12.4476 12.7204 12.6548C12.1978 12.826 11.8374 13.3575 11.9906 13.9161C12.2519 14.8261 13.3961 15.1053 14.1889 15.4026C14.6934 15.5918 15.252 15.0062 15.0808 14.5197Z" fill="#471212"/>
<path d="M14.278 18.3753C14.0257 17.9068 13.7555 17.4653 13.305 17.15C12.7284 16.7536 12.0437 16.3842 11.35 16.7356C10.8004 17.0059 10.4941 17.6726 10.7644 18.2582C11.2058 19.2131 12.5302 19.3303 13.4491 19.5195C14.0438 19.6456 14.5573 18.9068 14.278 18.3843V18.3753Z" fill="#471212"/>
<g opacity="0.39">
<path d="M12.7648 18.2662C12.6927 18.1401 12.6296 18.023 12.5035 17.9419C12.3503 17.8338 12.1702 17.7347 11.99 17.8338C11.8458 17.9059 11.7647 18.077 11.8368 18.2392C11.9539 18.4915 12.3053 18.5275 12.5576 18.5726C12.7107 18.6086 12.8549 18.4104 12.7828 18.2753H12.7738L12.7648 18.2662Z" fill="white"/>
</g>
<path d="M13.4681 23.5547C13.1798 23.1043 12.8644 22.6898 12.3869 22.4286C11.7743 22.0772 11.0626 21.7709 10.4049 22.1763C9.87334 22.4916 9.63009 23.1763 9.95442 23.7439C10.477 24.6539 11.8103 24.6539 12.7383 24.762C13.3419 24.834 13.7834 24.0502 13.4681 23.5547Z" fill="#471212"/>
<g opacity="0.38">
<path d="M11.9532 23.5732C11.8812 23.4561 11.7911 23.339 11.6649 23.2759C11.5028 23.1858 11.3136 23.1048 11.1424 23.2129C11.0072 23.303 10.9442 23.4832 11.0253 23.6273C11.1604 23.8706 11.5118 23.8615 11.764 23.8976C11.9262 23.9156 12.0433 23.7084 11.9532 23.5732Z" fill="white"/>
</g>
<path d="M14.5215 28.2401C14.1161 27.8798 13.7017 27.5825 13.1701 27.4563C12.4854 27.2942 11.7196 27.1951 11.1971 27.7626C10.7826 28.2221 10.7376 28.9429 11.1971 29.3933C11.9539 30.1321 13.2242 29.7627 14.1521 29.6096C14.7467 29.5105 14.954 28.6366 14.5215 28.2492V28.2401Z" fill="#471212"/>
<g opacity="0.39">
<path d="M13.071 28.6899C12.9629 28.5998 12.8548 28.5187 12.7106 28.4827C12.5304 28.4376 12.3232 28.4196 12.1881 28.5637C12.08 28.6809 12.0619 28.8791 12.1881 28.9962C12.3953 29.1854 12.7286 29.0863 12.9719 29.0502C13.134 29.0232 13.1881 28.789 13.071 28.6899Z" fill="white"/>
</g>
<path d="M16.7287 32.799C16.2062 32.6638 15.7017 32.5647 15.1701 32.6818C14.4854 32.835 13.7557 33.0873 13.5304 33.826C13.3593 34.4116 13.6295 35.0873 14.2512 35.2945C15.2512 35.6279 16.2332 34.7269 16.999 34.1774C17.4945 33.826 17.2963 32.9431 16.7287 32.799Z" fill="#471212"/>
<path d="M12.656 36.7628C12.1334 36.6277 11.6289 36.5286 11.0974 36.6457C10.4127 36.7989 9.68292 37.0511 9.45768 37.7899C9.28651 38.3755 9.55679 39.0512 10.1784 39.2584C11.1785 39.5917 12.1605 38.6908 12.9263 38.1412C13.4218 37.7899 13.2236 36.907 12.656 36.7628Z" fill="#471212"/>
<g opacity="0.38">
<path d="M11.5485 37.7892C11.4044 37.7532 11.2783 37.7261 11.1341 37.7532C10.9539 37.7892 10.7557 37.8613 10.7017 38.0595C10.6566 38.2217 10.7287 38.3928 10.8909 38.4469C11.1611 38.528 11.4134 38.2937 11.6206 38.1496C11.7467 38.0595 11.7017 37.8252 11.5485 37.7802V37.7892Z" fill="white"/>
</g>
<path d="M17.9451 36.8715C17.4045 36.8445 16.891 36.8625 16.3955 37.0968C15.7648 37.3851 15.0981 37.7905 15.0351 38.5563C14.99 39.1689 15.4045 39.7635 16.0441 39.8266C17.0982 39.9347 17.855 38.8536 18.4856 38.1509C18.8911 37.7094 18.5127 36.8896 17.9271 36.8535L17.9451 36.8715Z" fill="#471212"/>
<g opacity="0.16">
<path d="M17.0799 38.1221C16.9357 38.1221 16.8006 38.1221 16.6654 38.1851C16.4942 38.2572 16.3231 38.3653 16.305 38.5725C16.287 38.7347 16.4042 38.8879 16.5753 38.9149C16.8546 38.9419 17.0528 38.6626 17.224 38.4734C17.3321 38.3563 17.233 38.1311 17.0708 38.1311L17.0799 38.1221Z" fill="white"/>
</g>
<path d="M21.261 41.3129C20.7204 41.2859 20.2069 41.3039 19.7114 41.5382C19.0808 41.8265 18.4141 42.2319 18.351 42.9977C18.306 43.6103 18.7204 44.2049 19.36 44.268C20.4141 44.3761 21.1709 43.295 21.8016 42.5923C22.207 42.1508 21.8286 41.331 21.243 41.2949L21.261 41.3129Z" fill="#471212"/>
<g opacity="0.16">
<path d="M20.4046 42.5645C20.2604 42.5645 20.1253 42.5645 19.9901 42.6275C19.819 42.6996 19.6478 42.8077 19.6298 43.0149C19.6117 43.1771 19.7289 43.3302 19.9 43.3573C20.1793 43.3843 20.3775 43.105 20.5487 42.9158C20.6568 42.7987 20.5577 42.5735 20.3955 42.5735L20.4046 42.5645Z" fill="white"/>
</g>
<path d="M25.1884 39.5737C24.7109 39.6908 24.2514 39.844 23.873 40.1773C23.3775 40.6008 22.9 41.1323 23.0442 41.8351C23.1703 42.3936 23.6838 42.8081 24.2784 42.709C25.2424 42.5288 25.6388 41.3756 26.0172 40.5918C26.2605 40.0872 25.7109 39.4566 25.1884 39.5827V39.5737Z" fill="#471212"/>
<path d="M18.9276 46.8354C18.4501 46.9526 17.9907 47.1057 17.6123 47.4391C17.1168 47.8625 16.6393 48.394 16.7834 49.0968C16.9096 49.6553 17.4231 50.0698 18.0177 49.9707C18.9817 49.7905 19.3781 48.6373 19.7565 47.8535C19.9997 47.349 19.4502 46.7183 18.9276 46.8444V46.8354Z" fill="#471212"/>
<g opacity="0.39">
<path d="M18.4949 48.1788C18.3688 48.2058 18.2426 48.2508 18.1435 48.3409C18.0174 48.458 17.8823 48.5932 17.9273 48.7734C17.9634 48.9175 18.0985 49.0346 18.2517 49.0076C18.5039 48.9626 18.612 48.6472 18.7111 48.449C18.7742 48.3139 18.63 48.1517 18.4859 48.1788H18.4949Z" fill="white"/>
</g>
<path d="M24.5396 44.6454C24.0982 44.8616 23.6838 45.1139 23.3865 45.5283C23.0081 46.0508 22.6477 46.6815 22.954 47.3301C23.1973 47.8437 23.8009 48.141 24.3505 47.8977C25.2514 47.5103 25.3775 46.2851 25.5667 45.4382C25.6928 44.8886 25.0171 44.4021 24.5306 44.6454H24.5396Z" fill="#471212"/>
<g opacity="0.39">
<path d="M24.4225 46.0425C24.3054 46.0965 24.1973 46.1686 24.1162 46.2767C24.0171 46.4209 23.918 46.583 23.9991 46.7542C24.0622 46.8893 24.2243 46.9704 24.3685 46.9074C24.6027 46.7992 24.6388 46.4749 24.6928 46.2497C24.7199 46.1055 24.5487 45.9704 24.4225 46.0425Z" fill="white"/>
</g>
<path d="M17.5845 25.4565C17.3863 25.1502 17.17 24.8619 16.8457 24.6817C16.4223 24.4475 15.9448 24.2223 15.4853 24.5015C15.1249 24.7178 14.9538 25.1863 15.179 25.5737C15.5304 26.2043 16.4403 26.2043 17.08 26.2854C17.4854 26.3394 17.8007 25.7989 17.5845 25.4655V25.4565Z" fill="#471212"/>
<path d="M16.549 25.4741C16.495 25.3931 16.4409 25.321 16.3598 25.2669C16.2517 25.2039 16.1166 25.1498 15.9995 25.2219C15.9094 25.2759 15.8643 25.4021 15.9184 25.5102C16.0175 25.6723 16.2517 25.6723 16.4229 25.6994C16.531 25.7084 16.6121 25.5732 16.558 25.4831L16.549 25.4741Z" fill="white"/>
<path d="M29.0895 47.16C28.648 47.3762 28.2336 47.6285 27.9363 48.0429C27.5579 48.5655 27.1975 49.1961 27.5038 49.8448C27.7471 50.3583 28.3507 50.6556 28.9003 50.4124C29.8012 50.025 29.9273 48.7997 30.1165 47.9528C30.2426 47.4033 29.5669 46.9168 29.0804 47.16H29.0895Z" fill="#471212"/>
<g opacity="0.51">
<path d="M28.9543 48.5552C28.8372 48.6092 28.7291 48.6813 28.648 48.7894C28.5489 48.9335 28.4498 49.0957 28.5308 49.2669C28.5939 49.402 28.7561 49.4831 28.9002 49.4201C29.1345 49.3119 29.1705 48.9876 29.2246 48.7624C29.2516 48.6182 29.0804 48.4831 28.9543 48.5552Z" fill="white"/>
</g>
<path d="M31.9721 53.0515C31.7288 53.484 31.5396 53.9254 31.5306 54.43C31.5216 55.0786 31.5757 55.7904 32.1973 56.1507C32.6928 56.439 33.3595 56.3309 33.6658 55.8264C34.1794 54.9885 33.5937 53.9254 33.2694 53.1146C33.0532 52.5921 32.2243 52.583 31.9721 53.0515Z" fill="#471212"/>
<path d="M32.6664 54.2673C32.6034 54.3844 32.5583 54.5015 32.5493 54.6366C32.5493 54.8078 32.5673 54.997 32.7295 55.0961C32.8556 55.1682 33.0358 55.1412 33.1259 55.006C33.2611 54.7808 33.0989 54.5015 33.0178 54.2853C32.9637 54.1411 32.7475 54.1411 32.6664 54.2673Z" fill="white"/>
</svg>
