<svg viewBox="0 0 19 21" fill="none" xmlns="http://www.w3.org/2000/svg">
<path d="M15.9495 3.52574C14.7076 3.51054 13.4783 3.62966 12.2465 3.68795C9.78042 3.80201 7.30923 3.79694 4.83044 3.79694C3.93828 3.79694 3.06386 3.74371 2.1793 3.74371C1.75096 3.74371 1.31755 3.72851 0.886675 3.74371C0.681376 3.75132 -0.0485752 3.81215 0.0781525 3.85017V3.95662C0.0730834 4.64855 0.146585 5.46468 0.623081 5.97666C1.03621 9.64415 2.2528 18.4948 3.09427 19.1918C5.30187 21.0218 12.5684 21.1308 14.4871 19.1132C15.212 18.3503 16.3424 10.1916 16.7378 6.29347C17.1712 5.99693 17.1027 5.50523 17.1991 4.87159C17.3765 3.68795 17.0445 3.53842 15.9495 3.52574Z" fill="#D7D6D6"/>
<path d="M8.37135 0.724486C3.89787 0.772643 -0.0281561 2.07033 0.0808297 3.73807C0.187281 5.40581 2.77253 7.23829 8.47781 7.23829C14.8649 7.23829 16.8976 6.22954 17.1992 3.93576C17.4679 1.89038 13.3239 0.668726 8.37135 0.724486Z" fill="#EE6B60"/>
<path d="M16.611 7.47852C11.7168 8.91561 6.32325 9.08035 4.67579 8.09948L4.71128 8.24395C5.21565 8.58611 6.20666 8.79141 6.86565 8.92575C9.22025 9.40478 11.6179 9.57459 13.9294 10.0435C13.9928 11.2854 13.899 12.5654 13.7926 13.8048C13.676 15.1481 13.3541 16.5826 13.0398 17.8651C12.685 19.3073 10.8069 19.6216 9.56495 19.6216C7.89468 19.6216 6.11796 19.6596 4.52372 19.2008C4.07511 19.0716 3.297 18.5621 2.76221 18.5596C2.8788 18.884 2.99032 19.102 3.0993 19.1907C5.3069 21.0206 12.5735 21.1296 14.4921 19.1121C15.1511 18.4202 16.1421 11.6428 16.6161 7.47852H16.611Z" fill="#C2C1C1"/>
<path d="M17.7287 6.52889C17.2801 5.79133 17.7743 4.27567 16.6971 3.97406C16.1649 3.82452 15.5414 3.94618 15.1536 4.33397C14.9407 4.54687 14.3172 6.07774 14.9736 5.91299L15.0801 6.09294C15.6833 6.03972 16.0939 6.57198 16.2283 7.06368C16.3778 7.60861 16.7453 8.0851 17.2319 8.39939C17.7312 8.72381 18.2483 8.6934 18.3725 8.03188C18.4916 7.39317 18.0227 7.02313 17.7262 6.53142L17.7287 6.52889Z" fill="#EE6B60"/>
<path opacity="0.3" d="M3.16811 8.1985C2.81581 8.07937 2.39 7.99066 2.12387 8.1402C2.05544 8.13513 2.00982 8.18582 1.97941 8.272C1.91351 8.36578 1.87549 8.49757 1.87549 8.67246C1.87549 8.86762 1.90844 9.07292 1.96166 9.27061C1.99461 9.60264 2.04277 9.89411 2.05291 9.96508C2.19231 10.913 2.44576 11.8837 2.59277 12.8443C2.7347 13.772 2.77272 14.692 2.87917 15.6247C2.95014 16.2432 3.18078 17.8957 4.06281 17.8222C5.16027 17.731 4.49622 15.4042 4.49622 14.7098C4.49622 13.4197 4.88907 12.307 5.17041 11.0727C5.48976 9.666 4.41004 8.61163 3.16811 8.19343V8.1985Z" fill="white"/>
<path d="M14.4519 12.0977C15.7952 14.1811 15.4175 16.817 13.6104 17.9804C11.8033 19.1462 9.31941 18.1578 7.58071 16.3912C5.67726 14.4573 5.91551 11.3474 7.72518 10.1815C9.53232 9.01564 13.1086 10.0117 14.4519 12.0977Z" fill="white"/>
<path d="M14.4512 12.0967C14.2966 11.8559 14.1243 11.6354 13.9418 11.4326C13.9215 12.2259 13.8607 13.0243 13.7923 13.805C13.6757 15.1483 13.3538 16.5828 13.0395 17.8653C12.9964 18.0427 12.928 18.2049 12.8418 18.3494C13.1079 18.2607 13.3664 18.139 13.6123 17.9819C15.4194 16.816 15.7971 14.1826 14.4538 12.0992L14.4512 12.0967Z" fill="#DDDDDD"/>
<path d="M9.77259 10.7833C9.81821 10.7225 9.87904 10.7022 9.94494 10.7148C10.0337 10.7326 10.0869 10.8213 10.0691 10.9024C10.0615 10.9354 10.0413 10.9658 10.0032 11.0063L9.68135 11.3662L9.63826 11.5766C9.61545 11.6856 9.53941 11.7388 9.43803 11.7185C9.33665 11.6983 9.28849 11.6172 9.3113 11.5082L9.35439 11.2978L9.20232 10.839C9.18458 10.7858 9.17697 10.7529 9.18458 10.7174C9.20232 10.6363 9.28342 10.5755 9.37467 10.5957C9.44057 10.6084 9.48619 10.654 9.50647 10.7275L9.5825 11.0291L9.77259 10.7833Z" fill="#EE6B60"/>
<path d="M10.8249 11.0016C11.0834 11.103 11.2608 11.3692 11.1265 11.7113C10.9871 12.0636 10.6829 12.1244 10.4219 12.0205C10.1608 11.9166 9.98085 11.6657 10.1203 11.3109C10.2546 10.9712 10.5663 10.8977 10.8249 11.0016ZM10.7285 11.245C10.5993 11.1943 10.4928 11.2779 10.432 11.4351C10.3686 11.5922 10.3889 11.7265 10.5182 11.7772C10.6474 11.8279 10.7539 11.7443 10.8147 11.5871C10.8781 11.43 10.8578 11.2957 10.7285 11.245Z" fill="#EE6B60"/>
<path d="M11.7624 12.2896C11.7193 12.2617 11.699 12.2035 11.732 12.1502C11.77 12.0919 11.8258 12.0742 11.8866 12.1122L12.0691 12.2263C12.1527 12.2795 12.1654 12.3682 12.1198 12.4442L11.9626 12.6977C11.9271 12.7535 11.8689 12.8016 11.7903 12.7535C11.732 12.718 11.7218 12.6546 11.7497 12.6064L11.7649 12.5811C11.6762 12.6242 11.5394 12.5938 11.4405 12.5329C11.2428 12.4088 11.073 12.1553 11.296 11.7979C11.5039 11.4634 11.8334 11.4862 12.0311 11.6104C12.3175 11.7878 12.3073 11.9804 12.2642 12.0488C12.2288 12.1046 12.1401 12.1452 12.0513 12.0894C11.9601 12.0336 12.0285 11.917 11.9043 11.8385C11.808 11.7802 11.6889 11.8005 11.5774 11.9804C11.4836 12.13 11.4659 12.2516 11.6078 12.3403C11.6965 12.3935 11.7675 12.3885 11.8308 12.3327L11.7624 12.2896Z" fill="#EE6B60"/>
<path d="M13.1182 12.6699C13.1917 12.5862 13.2855 12.5761 13.364 12.6445C13.4426 12.713 13.4451 12.8067 13.3691 12.8904L13.0523 13.2503C12.8419 13.4885 12.6062 13.4302 12.3908 13.2402C12.1753 13.0501 12.0891 12.8219 12.2995 12.5837L12.6163 12.2238C12.6898 12.1402 12.7836 12.13 12.8622 12.1985C12.9408 12.2669 12.9433 12.3607 12.8673 12.4443L12.553 12.8017C12.482 12.8828 12.4719 12.9715 12.5606 13.0475C12.6493 13.1261 12.7329 13.1058 12.8064 13.0247L13.1207 12.6673L13.1182 12.6699Z" fill="#EE6B60"/>
<path d="M13.549 13.1328C13.6554 13.0441 13.7416 13.0517 13.8328 13.1632L14.0685 13.4496C14.2308 13.6473 14.2003 13.8222 14.0761 13.9236C13.9697 14.0098 13.8506 14.0047 13.7492 13.9185C13.81 14.0072 13.8303 14.0858 13.7543 14.1669L13.6934 14.2303C13.6605 14.2683 13.6225 14.3063 13.5895 14.3342C13.5287 14.3849 13.44 14.3545 13.3943 14.3013C13.331 14.2252 13.3158 14.1416 13.3867 14.0681L13.4831 13.9667C13.5414 13.9059 13.5236 13.845 13.4729 13.7842L13.3893 13.6828L13.222 13.8222C13.1358 13.8932 13.0497 13.8881 12.9838 13.807C12.9179 13.7259 12.928 13.6423 13.0142 13.5713L13.5464 13.1303L13.549 13.1328ZM13.6655 13.6778C13.7289 13.7538 13.7771 13.7639 13.8303 13.7183C13.8861 13.6727 13.8835 13.622 13.8227 13.5485L13.7162 13.4192L13.5591 13.5485L13.6655 13.6778Z" fill="#EE6B60"/>
<path d="M14.2593 14.1493C14.2111 14.0682 14.2365 14.0048 14.3024 13.9617C14.3708 13.9212 14.4392 13.9263 14.495 14.0175L14.8676 14.6283C14.9233 14.7196 14.898 14.7829 14.8296 14.826C14.7611 14.8666 14.6927 14.8615 14.642 14.7804L14.5356 14.6081L14.0109 14.9274C13.9146 14.9857 13.8234 14.968 13.7701 14.8792C13.7169 14.7905 13.7422 14.7018 13.836 14.6435L14.3607 14.3242L14.2542 14.1518L14.2593 14.1493Z" fill="#EE6B60"/>
<path d="M12.0892 13.8584C11.856 13.4224 11.2554 13.0245 10.756 13.2273C10.4063 13.3692 10.1123 13.6455 9.79799 13.8609C9.542 13.8254 9.19223 13.9927 9.03255 14.1473C8.69039 14.4768 8.58647 15.004 8.7132 15.4551C8.97933 16.3904 9.88163 16.986 10.7408 17.3003C11.0399 17.4093 11.5316 17.4828 11.851 17.3637C12.406 17.1558 12.406 16.6641 12.4238 16.2611C12.4593 15.4932 12.4567 14.5528 12.0867 13.8584H12.0892Z" fill="#ED4C49"/>
<path d="M9.07871 14.6821C9.08378 14.8393 9.12433 15.0065 9.16488 15.1586C9.18009 15.2118 9.24092 15.3208 9.27894 15.2169C9.29414 15.1764 9.22825 15.1586 9.21304 15.1992C9.24599 15.2042 9.25359 15.1992 9.23838 15.1764C9.23078 15.1586 9.22825 15.1409 9.22318 15.1231C9.21304 15.0826 9.2029 15.042 9.1953 15.0015C9.17249 14.8976 9.14714 14.7911 9.1446 14.6847C9.1446 14.6416 9.07617 14.6416 9.07617 14.6847L9.07871 14.6821Z" fill="#EBCF49"/>
<path d="M9.52466 14.5475C9.57282 14.5779 9.60577 14.6413 9.63365 14.6869C9.65139 14.7148 9.6666 14.7401 9.6818 14.768C9.68687 14.7781 9.69194 14.7857 9.69701 14.7959C9.69954 14.8009 9.69954 14.8136 9.70208 14.8035C9.70715 14.7933 9.71222 14.7832 9.71982 14.7756C9.73249 14.7756 9.74263 14.7756 9.7553 14.7756C9.72236 14.7452 9.67673 14.7933 9.70715 14.8237C9.73249 14.8466 9.76798 14.8389 9.77051 14.8009C9.77305 14.7756 9.74517 14.7376 9.73249 14.7173C9.68941 14.6387 9.63618 14.5373 9.55761 14.4866C9.52213 14.4638 9.48664 14.5221 9.52466 14.5449V14.5475Z" fill="#EBCF49"/>
<path d="M10.2315 14.3148C10.2874 14.3707 10.3585 14.4139 10.4271 14.4546C10.4652 14.4774 10.4983 14.419 10.4602 14.3961C10.3966 14.358 10.3306 14.3174 10.2772 14.2666C10.2467 14.2361 10.1985 14.2843 10.229 14.3148H10.2315Z" fill="#EBCF49"/>
<path d="M10.7361 14.0108C10.8375 14.0691 10.9313 14.1324 11.0402 14.1755C11.0808 14.1907 11.0985 14.1273 11.058 14.1096C10.9566 14.0691 10.8654 14.0057 10.769 13.9525C10.731 13.9297 10.6981 13.9879 10.7361 14.0108Z" fill="#EBCF49"/>
<path d="M11.3594 13.5701C11.4023 13.5701 11.4023 13.502 11.3594 13.502C11.3164 13.502 11.3164 13.5701 11.3594 13.5701Z" fill="#EBCF49"/>
<path d="M11.3411 13.5676C11.4148 13.6133 11.4682 13.687 11.5444 13.7302C11.5825 13.7505 11.6155 13.6921 11.5774 13.6717C11.5469 13.6539 11.5215 13.626 11.4936 13.6031C11.4555 13.5701 11.4173 13.5371 11.3742 13.5091C11.336 13.4863 11.303 13.5447 11.3411 13.5676Z" fill="#EBCF49"/>
<path d="M9.06514 15.6989C9.09809 15.7952 9.13864 15.9067 9.20961 15.9828C9.24003 16.0157 9.28565 15.9676 9.25777 15.9346C9.19694 15.8687 9.16145 15.7648 9.13104 15.6812C9.11583 15.6406 9.05247 15.6583 9.06514 15.6989Z" fill="#EBCF49"/>
<path d="M9.64583 15.506C9.6814 15.5746 9.73222 15.633 9.78557 15.6889C9.81606 15.7194 9.86434 15.6711 9.83385 15.6406C9.78303 15.5898 9.7373 15.5365 9.70427 15.473C9.68394 15.4348 9.62551 15.4679 9.64583 15.506Z" fill="#EBCF49"/>
<path d="M10.3658 15.1615C10.4268 15.225 10.4928 15.3089 10.5817 15.3317C10.6249 15.3419 10.6427 15.2784 10.5995 15.2657C10.5233 15.2479 10.4649 15.1666 10.4115 15.1132C10.381 15.0827 10.3327 15.131 10.3632 15.1615H10.3658Z" fill="#EBCF49"/>
<path d="M10.9921 14.872C11.0378 14.933 11.0785 14.9991 11.1318 15.055C11.1623 15.0855 11.2106 15.0397 11.1801 15.0067C11.1318 14.9559 11.0937 14.8949 11.0505 14.839C11.0251 14.8034 10.9667 14.839 10.9921 14.872Z" fill="#EBCF49"/>
<path d="M11.5317 14.6445C11.5621 14.6902 11.6003 14.7309 11.6257 14.7792C11.646 14.8173 11.7044 14.7842 11.6841 14.7461C11.6587 14.6979 11.6206 14.6572 11.5901 14.6115C11.5647 14.5759 11.5062 14.6115 11.5317 14.6445Z" fill="#EBCF49"/>
<path d="M11.9573 14.4079C11.9852 14.4789 12.0334 14.5498 12.0359 14.6284C12.0359 14.6715 12.1043 14.6715 12.1043 14.6284C12.1018 14.5422 12.0537 14.4687 12.0232 14.3901C12.008 14.3496 11.9421 14.3673 11.9573 14.4079Z" fill="#EBCF49"/>
<path d="M9.81308 16.4283C9.88152 16.512 9.97783 16.5779 10.0767 16.621C10.1147 16.6387 10.1502 16.5804 10.1096 16.5627C10.0158 16.5196 9.92714 16.4588 9.86124 16.3802C9.83336 16.3472 9.7852 16.3954 9.81308 16.4283Z" fill="#EBCF49"/>
<path d="M10.4523 16.2034C10.5107 16.2466 10.5666 16.3025 10.6352 16.3279C10.6759 16.3431 10.6937 16.2771 10.653 16.2618C10.592 16.2389 10.5361 16.183 10.4853 16.1449C10.4497 16.1195 10.4167 16.178 10.4523 16.2034Z" fill="#EBCF49"/>
<path d="M11.0882 15.8557C11.134 15.9294 11.1873 15.998 11.2407 16.064C11.2686 16.0971 11.3143 16.0488 11.2889 16.0157C11.2381 15.9522 11.1873 15.8887 11.1467 15.8201C11.1238 15.782 11.0654 15.8176 11.0882 15.8531V15.8557Z" fill="#EBCF49"/>
<path d="M11.709 15.576C11.7519 15.576 11.7519 15.5078 11.709 15.5078C11.666 15.5078 11.666 15.576 11.709 15.576Z" fill="#EBCF49"/>
<path d="M11.6791 15.5593C11.7298 15.6252 11.7551 15.6987 11.7703 15.7798C11.7779 15.8229 11.8438 15.8051 11.8362 15.7621C11.821 15.6759 11.7932 15.5948 11.7374 15.5263C11.712 15.4934 11.6538 15.5263 11.6791 15.5593Z" fill="#EBCF49"/>
<path d="M12.1732 15.3229C12.1985 15.3888 12.1985 15.4649 12.1858 15.5333C12.1782 15.5764 12.2441 15.5941 12.2517 15.551C12.2669 15.4699 12.2669 15.3838 12.2391 15.3052C12.2239 15.2646 12.158 15.2824 12.1732 15.3229Z" fill="#EBCF49"/>
<path d="M10.6673 17.0244C10.756 17.0751 10.8624 17.1207 10.9663 17.1233C11.0094 17.1233 11.0094 17.0574 10.9663 17.0548C10.8751 17.0523 10.7788 17.0118 10.7002 16.9661C10.6622 16.9433 10.6292 17.0016 10.6673 17.0244Z" fill="#EBCF49"/>
<path d="M11.1187 16.7106C11.1796 16.7815 11.2708 16.8348 11.3621 16.855C11.4052 16.8652 11.4229 16.7993 11.3798 16.7891C11.2987 16.7714 11.2201 16.7258 11.1669 16.6624C11.139 16.6295 11.0909 16.6776 11.1187 16.7106Z" fill="#EBCF49"/>
<path d="M11.6259 16.5019C11.6615 16.5527 11.6792 16.6086 11.7072 16.6645C11.725 16.7026 11.7834 16.6696 11.7656 16.6315C11.7402 16.5756 11.7199 16.5197 11.6843 16.4689C11.6589 16.4333 11.6005 16.4689 11.6259 16.5019Z" fill="#EBCF49"/>
<path d="M12.2139 16.1823C12.2292 16.2433 12.2368 16.3042 12.2267 16.3677C12.219 16.4109 12.2851 16.4287 12.2927 16.3855C12.3054 16.3119 12.2978 16.2382 12.28 16.1645C12.2698 16.1213 12.2038 16.1391 12.2139 16.1823Z" fill="#EBCF49"/>
<path d="M11.4834 17.204C11.5696 17.2369 11.6684 17.2699 11.7622 17.2597C11.8053 17.2547 11.8053 17.1862 11.7622 17.1913C11.6735 17.2014 11.5823 17.171 11.5011 17.1381C11.4606 17.1229 11.4429 17.1862 11.4834 17.204Z" fill="#EBCF49"/>
<path d="M11.7397 17.0336C11.7778 17.0691 11.8312 17.12 11.8845 17.125C11.9277 17.1276 11.9277 17.0615 11.8845 17.0564C11.8744 17.0564 11.849 17.0361 11.8388 17.0285C11.821 17.0158 11.8032 17.0005 11.788 16.9853C11.7575 16.9548 11.7092 17.0031 11.7397 17.0336Z" fill="#EBCF49"/>
<path d="M12.1396 16.8006C12.1826 16.8006 12.1826 16.7324 12.1396 16.7324C12.0967 16.7324 12.0967 16.8006 12.1396 16.8006Z" fill="#EBCF49"/>
<path d="M12.107 16.775C12.1172 16.836 12.1197 16.8995 12.107 16.9605C12.0969 17.0037 12.1629 17.0215 12.1731 16.9783C12.1883 16.9046 12.1858 16.8309 12.1731 16.7573C12.1655 16.7141 12.0994 16.7319 12.107 16.775Z" fill="#EBCF49"/>
<path d="M9.83637 13.333C9.70711 13.2038 9.6184 12.9301 9.53983 12.7577C9.37762 12.8059 9.08361 12.9453 8.96702 13.0745C9.2002 13.2241 9.44859 13.4116 9.62094 13.6271C9.15965 13.5409 8.61472 13.8881 8.27002 14.1669C8.5108 14.1644 8.75159 14.1695 8.99237 14.1492C9.19006 14.1314 9.56518 14.0985 9.71978 13.9768L9.62854 14.0072C9.87946 13.9135 10.1202 13.7462 10.3154 13.551C10.432 13.4319 10.5511 13.2976 10.6373 13.1582C10.7209 13.0238 10.7184 12.7983 10.8451 12.6994C10.4143 12.6918 9.97324 12.9123 9.83891 13.3305L9.83637 13.333Z" fill="#55B748"/>
<g opacity="0.5">
<path d="M1.59668 4.07998C1.64737 4.98735 2.70935 5.365 3.44437 5.58297C4.52155 5.90232 5.68745 6.09495 6.80265 6.2014C8.40196 6.35347 9.99872 6.24449 11.5904 6.07974C12.7335 5.96315 13.9729 5.82375 14.9614 5.19265C15.4125 4.90371 15.7978 4.45509 15.9321 3.9279C16.0538 3.45141 15.8409 3.00026 15.5164 2.66316C14.6243 1.73552 13.0959 1.51501 11.892 1.35533C10.346 1.15257 8.79735 1.221 7.2462 1.28183C5.98146 1.32999 4.63814 1.39842 3.46465 1.91294C2.79299 2.20694 2.14161 2.65809 1.86281 3.3627C1.95152 3.37537 2.04023 3.38551 2.1264 3.39818V3.2968C2.1264 3.12445 1.85774 3.12445 1.85774 3.2968V3.39818C1.85774 3.5604 2.06811 3.568 2.12133 3.43367C2.38493 2.77215 3.07179 2.35648 3.70543 2.10303C4.32639 1.85464 4.99805 1.73552 5.65957 1.65948C6.31095 1.58344 6.9674 1.56063 7.62385 1.53782C8.38675 1.50994 9.14965 1.47192 9.91508 1.4846C10.7616 1.4998 11.6082 1.56824 12.4446 1.70764C13.1492 1.82423 13.8538 1.9839 14.5026 2.29312C14.9969 2.52883 15.5418 2.88874 15.6812 3.45394C15.8307 4.0597 15.2858 4.65279 14.827 4.95947C13.9019 5.58043 12.6676 5.69702 11.5904 5.81108C10.1305 5.96315 8.67315 6.05946 7.20818 5.96568C6.09044 5.89472 4.9651 5.69195 3.87778 5.42329C3.21119 5.25854 1.91603 4.94679 1.86788 4.08251C1.85774 3.91016 1.58908 3.91016 1.59921 4.08251L1.59668 4.07998Z" fill="white"/>
</g>
<path opacity="0.1" d="M11.3212 1.70201C10.7307 1.23818 9.60534 1.35224 8.90073 1.35224C6.91618 1.35224 4.76181 1.48657 2.87864 2.14302C2.28302 2.35085 1.55053 2.73357 1.23878 3.29878C1.23878 3.29878 1.23878 3.30384 1.23624 3.30384C1.03855 3.52182 0.919425 3.80315 0.942236 4.15039C0.987858 4.82965 1.7609 5.08057 2.33371 5.29094C3.01043 5.53679 3.77333 5.69393 4.48808 5.51398C5.63623 5.2225 4.62241 4.72573 4.74407 3.97043C4.8936 3.05546 6.73116 2.9921 7.40281 2.92873C8.43691 2.83242 9.4558 2.7285 10.4899 2.67781C10.9664 2.655 12.0385 2.25961 11.3238 1.69947L11.3212 1.70201Z" fill="white"/>
</svg>
