<svg width="303" height="154" viewBox="0 0 303 154" fill="none" xmlns="http://www.w3.org/2000/svg">
<path d="M12.2621 151.598C-0.827955 153.821 -5.64078 136.923 18.6803 110.837C23.1989 105.991 30.3839 98.3531 37.9512 88.8597C45.5185 79.3663 59.8083 58.8676 51.3886 42.0281C45.1869 29.6247 28.1124 28.4034 20.2554 40.4912C17.3407 44.9753 16.2809 51.3533 16.9325 56.4218C17.9547 64.3722 22.1695 69.5415 28.0649 74.5157C40.5478 85.0481 59.072 85.2348 74.2664 80.3189C90.0688 73.6444 91.4254 69.87 98.5193 63.1934C105.613 56.5169 108.15 51.964 116.843 47.5162C127.568 42.0281 144.157 45.9171 155.92 63.1934C163.68 72.8937 169.814 80.3636 178.989 88.8597C188.165 97.3558 195.545 102.082 205.064 106.841C217.335 112.977 224.84 114.308 235.955 114.308C247.071 114.308 260.747 106.841 267.169 91.3846" stroke="black" stroke-linecap="round"/>
<path d="M7.09732 149.493L13.2055 148.509L13.2051 153.7L7.09704 153.006L7.09732 149.493Z" fill="#414042"/>
<path d="M10.9316 149.526L10.9312 153.442L13.2051 153.7L13.2055 148.509L7.09732 149.493L7.09726 150.144L10.9316 149.526Z" fill="black"/>
<path d="M117.05 59.4008C117.05 59.4008 114.085 57.5867 115.256 54.8008C116.425 52.0078 119.897 53.0194 121.047 54.5482C122.197 56.0771 123.015 58.545 120.37 60.7466C117.725 62.9483 113.319 62.8152 111.496 59.6331C109.673 56.4509 110.118 54.2651 112.184 51.5678C114.291 48.8165 116.545 44.9768 116.284 43.4398C116.121 42.4781 115.471 41.1973 115.016 40.3808C114.914 40.1914 114.714 40.0754 114.497 40.0839C114.286 40.0836 114.087 40.2089 113.993 40.395C113.389 41.6032 112.708 44.1489 114.477 48.1351C117.057 53.9491 119.098 55.9148 121.012 61.2892C122.927 66.6635 119.714 67.371 119.714 67.371C119.714 67.371 116.329 68.5978 115.606 65.4757C114.954 62.6706 117.92 62.6049 118.697 63.5792C119.611 64.7281 119.089 65.9338 118.068 66.1893C118.068 66.1893 119.706 66.3307 120.247 65.2418C120.598 64.5179 121.504 63.985 118.181 57.0763C114.851 50.1692 112.382 45.7583 112.445 42.7405C112.477 41.2013 112.973 40.084 113.456 39.3469C113.648 39.057 113.977 38.8737 114.328 38.8592C114.679 38.8447 115.017 39.0067 115.238 39.2843C116.235 40.5665 117.743 42.9478 117.738 45.6512C117.731 48.5816 113.905 52.3107 113.289 53.6347C112.843 54.6054 111.809 56.9923 115.037 59.173C118.265 61.3536 120.824 58.7022 120.62 56.783C120.416 54.8639 118.485 54.1582 117.542 54.4647C116.6 54.7711 115.149 56.039 117.052 59.408L117.05 59.4008Z" fill="white"/>
<path d="M187.656 89.9761C187.144 90.789 185.87 90.8947 184.816 90.2151C183.759 89.5343 183.322 88.3241 183.835 87.5112C184.348 86.6983 185.621 86.5926 186.675 87.2721C187.733 87.953 188.169 89.1631 187.656 89.9761Z" fill="white"/>
<path d="M191.651 81.1596L186.53 89.2666L187.641 89.9838L192.762 81.8767L191.651 81.1596Z" fill="white"/>
<path d="M225.799 114.17C225.477 115.083 224.259 115.492 223.082 115.085C221.902 114.678 221.212 113.607 221.533 112.693C221.855 111.78 223.073 111.372 224.25 111.779C225.43 112.186 226.121 113.257 225.799 114.17Z" fill="white"/>
<path d="M227.762 104.643L224.546 113.751L225.786 114.181L229.002 105.073L227.762 104.643Z" fill="white"/>
<path d="M79.3536 84.7807C79.4872 85.7339 78.5845 86.6368 77.3427 86.7965C76.0973 86.9578 74.9842 86.3127 74.8505 85.3595C74.7169 84.4063 75.6197 83.5034 76.8614 83.3436C78.1069 83.1824 79.22 83.8274 79.3536 84.7807Z" fill="white"/>
<path d="M76.7125 75.4515L78.0381 84.9636L79.3477 84.7957L78.0221 75.2836L76.7125 75.4515Z" fill="white"/>
<path d="M213.93 104.775C213.273 105.549 211.923 105.474 210.915 104.603C209.908 103.732 209.627 102.401 210.284 101.627C210.942 100.852 212.292 100.928 213.299 101.799C214.307 102.67 214.588 104.001 213.93 104.775Z" fill="white"/>
<path d="M219.414 96.1371L212.853 103.864L213.912 104.779L220.473 97.0518L219.414 96.1371Z" fill="white"/>
<path d="M216.381 102.953C217.079 103.067 217.861 103.037 218.41 102.697C218.679 102.526 218.856 102.27 218.96 101.984L219.019 101.758C219.037 101.683 219.032 101.595 219.043 101.516C219.046 101.432 219.064 101.358 219.056 101.273L219.037 101.019C219.031 100.862 219.004 100.664 218.984 100.474C218.96 100.284 218.945 100.09 218.93 99.8926C218.899 99.5056 218.884 99.1121 218.886 98.7162C218.892 98.3206 218.918 97.9189 218.98 97.5087C219.009 97.3034 219.055 97.0956 219.108 96.8846C219.137 96.7793 219.17 96.6704 219.211 96.5622C219.232 96.5081 219.256 96.4504 219.281 96.3928C219.315 96.3239 219.326 96.2889 219.399 96.1758L220.521 97.0098C220.544 96.9719 220.508 97.0205 220.499 97.0357C220.485 97.0624 220.467 97.0887 220.452 97.1193C220.419 97.1802 220.389 97.2494 220.355 97.3222C220.295 97.4686 220.243 97.6237 220.197 97.7874C220.106 98.111 220.037 98.4605 219.987 98.812C219.941 99.1677 219.907 99.5246 219.892 99.8913C219.884 100.075 219.877 100.258 219.877 100.438C219.874 100.622 219.875 100.798 219.864 101.017L219.846 101.327C219.841 101.431 219.808 101.54 219.792 101.642C219.767 101.748 219.754 101.851 219.717 101.955L219.592 102.26C219.396 102.657 219.069 102.999 218.676 103.178C218.286 103.365 217.869 103.406 217.477 103.397C217.08 103.383 216.7 103.323 216.324 103.204L216.389 102.95L216.381 102.953Z" fill="white"/>
<path d="M69.3748 77.6218C69.2208 78.6354 68.0401 79.301 66.7346 79.1054C65.4291 78.9099 64.4995 77.9309 64.6535 76.9173C64.8076 75.9037 65.9883 75.2381 67.2938 75.4337C68.5993 75.6292 69.5289 76.6082 69.3748 77.6218Z" fill="white"/>
<path d="M69.5259 67.3169L67.9912 77.4304L69.3628 77.6352L70.8975 67.5217L69.5259 67.3169Z" fill="white"/>
<path d="M70.5028 74.749C71.1525 74.4683 71.7982 74.0199 72.0863 73.4336C72.225 73.1431 72.2417 72.8306 72.1806 72.5312L72.1127 72.3068C72.0895 72.2339 72.0397 72.1611 72.0077 72.0882C71.9668 72.0154 71.9436 71.9424 71.8921 71.875L71.7447 71.6692C71.6576 71.5396 71.5316 71.3855 71.4162 71.2347C71.2972 71.0858 71.1836 70.9297 71.0681 70.7701C70.8408 70.4579 70.624 70.1313 70.4196 69.7939C70.2187 69.4547 70.0319 69.0993 69.8716 68.7169C69.7896 68.5266 69.72 68.3255 69.6557 68.1172C69.6253 68.0122 69.5966 67.9017 69.575 67.7877C69.5643 67.7306 69.5552 67.6682 69.5462 67.6058C69.5388 67.5291 69.5299 67.4935 69.533 67.3578L70.916 67.4598C70.9158 67.4152 70.9107 67.4759 70.9108 67.4938C70.9126 67.5241 70.911 67.5563 70.9146 67.5902C70.9184 67.6598 70.9292 67.7346 70.9383 67.8149C70.9636 67.9718 70.9995 68.1321 71.046 68.296C71.1372 68.6201 71.2603 68.9546 71.401 69.28C71.547 69.6072 71.7037 69.929 71.8815 70.2487C71.9704 70.4086 72.0594 70.5685 72.1536 70.7212C72.246 70.8793 72.3384 71.0284 72.4434 71.2203L72.5892 71.4939C72.639 71.5845 72.6677 71.695 72.7069 71.791C72.7408 71.8943 72.7836 71.9885 72.8069 72.0972L72.8592 72.4234C72.8995 72.8676 72.8003 73.3344 72.561 73.6989C72.3288 74.0687 71.9972 74.3287 71.6602 74.5334C71.3178 74.7364 70.9647 74.8913 70.5849 74.9928L70.5081 74.7418L70.5028 74.749Z" fill="white"/>
<path d="M103.041 63.4518C103.608 64.2975 103.169 65.5734 102.056 66.3015C100.943 67.0296 99.5856 66.9327 99.0192 66.0871C98.4529 65.2414 98.8922 63.9655 100.005 63.2374C101.118 62.5092 102.475 62.6062 103.041 63.4518Z" fill="white"/>
<path d="M96.2186 55.8L101.872 64.2361L103.041 63.4706L97.3872 55.0345L96.2186 55.8Z" fill="white"/>
<path d="M101.955 60.5946C102.255 59.9552 102.438 59.1956 102.26 58.5736C102.169 58.2681 101.971 58.0279 101.724 57.8493L101.522 57.7302C101.455 57.6922 101.369 57.6721 101.295 57.6401C101.216 57.614 101.149 57.576 101.065 57.561L100.816 57.5086C100.663 57.4718 100.465 57.4429 100.277 57.4095C100.087 57.3798 99.8965 57.3413 99.7023 57.3013C99.3213 57.2243 98.9386 57.1296 98.5579 57.0188C98.1787 56.9043 97.7991 56.7686 97.4212 56.5954C97.2316 56.5106 97.0439 56.4097 96.8554 56.3C96.7618 56.2433 96.6659 56.1815 96.573 56.1123C96.5265 56.0777 96.4777 56.038 96.4289 55.9983C96.3717 55.947 96.341 55.9269 96.252 55.8253L97.36 54.977C97.3299 54.9444 97.3669 54.9923 97.379 55.0053C97.4008 55.0263 97.4212 55.051 97.4467 55.0734C97.4964 55.1219 97.5549 55.1695 97.6158 55.2222C97.7404 55.3203 97.8753 55.4139 98.0205 55.5029C98.3071 55.6796 98.6248 55.8426 98.9496 55.9871C99.2795 56.1294 99.6138 56.2607 99.9627 56.3763C100.137 56.4341 100.312 56.4919 100.485 56.5409C100.661 56.5951 100.831 56.6427 101.039 56.7132L101.333 56.8164C101.431 56.8496 101.527 56.9114 101.621 56.9556C101.716 57.0086 101.811 57.0491 101.902 57.1132L102.161 57.3174C102.49 57.616 102.73 58.0243 102.795 58.4512C102.87 58.8772 102.796 59.289 102.68 59.664C102.559 60.0413 102.398 60.3905 102.181 60.7185L101.954 60.5858L101.955 60.5946Z" fill="white"/>
<path d="M190.837 103.735C190.256 104.466 189.027 104.44 188.087 103.679C187.15 102.919 186.857 101.709 187.441 100.98C188.021 100.249 189.25 100.275 190.19 101.036C191.127 101.796 191.42 103.006 190.837 103.735Z" fill="white"/>
<path d="M195.622 95.6538L189.84 102.931L190.825 103.731L196.607 96.4539L195.622 95.6538Z" fill="white"/>
<path d="M195.878 107.869C195.298 108.601 194.069 108.575 193.129 107.813C192.192 107.054 191.899 105.844 192.483 105.115C193.066 104.386 194.292 104.409 195.232 105.171C196.169 105.931 196.462 107.14 195.878 107.869Z" fill="white"/>
<path d="M200.665 99.7836L194.883 107.061L195.868 107.861L201.65 100.584L200.665 99.7836Z" fill="white"/>
<path d="M196.114 96.0492L195.084 97.3452L200.146 101.456L201.176 100.16L196.114 96.0492Z" fill="white"/>
<path d="M194.654 97.8919L194.021 98.6895L199.083 102.8L199.716 102.003L194.654 97.8919Z" fill="white"/>
<path d="M87.4446 67.1197C87.9573 67.6185 87.848 68.5697 87.2008 69.247C86.5554 69.9218 85.6153 70.0676 85.1044 69.5663C84.5917 69.0675 84.701 68.1164 85.3482 67.4391C85.9936 66.7643 86.9337 66.6185 87.4446 67.1197Z" fill="white"/>
<path d="M81.659 62.8672L86.7617 67.8384L87.4414 67.1286L82.3388 62.1574L81.659 62.8672Z" fill="white"/>
<path d="M90.9534 63.4894C91.4661 63.9882 91.3568 64.9393 90.7096 65.6166C90.0642 66.2914 89.1241 66.4372 88.6132 65.936C88.1024 65.4347 88.2098 64.486 88.857 63.8087C89.5024 63.1339 90.4425 62.9881 90.9534 63.4894Z" fill="white"/>
<path d="M85.1649 59.2366L90.2676 64.2078L90.9473 63.4979L85.8446 58.5268L85.1649 59.2366Z" fill="white"/>
<path d="M81.9956 62.5122L82.9043 63.3975L86.3965 59.7508L85.4878 58.8655L81.9956 62.5122Z" fill="white"/>
<path d="M83.2885 63.768L83.8477 64.3127L87.3398 60.6661L86.7806 60.1213L83.2885 63.768Z" fill="white"/>
<path d="M240.473 105.428C240.622 106.343 239.771 107.244 238.569 107.445C237.371 107.644 236.276 107.067 236.13 106.151C235.981 105.236 236.833 104.334 238.034 104.134C239.232 103.934 240.328 104.512 240.473 105.428Z" fill="white"/>
<path d="M237.723 96.532L239.202 105.644L240.463 105.435L238.983 96.323L237.723 96.532Z" fill="white"/>
<path d="M246.955 104.385C247.104 105.299 246.252 106.201 245.051 106.402C243.853 106.601 242.757 106.023 242.612 105.107C242.466 104.191 243.314 103.291 244.516 103.09C245.714 102.891 246.809 103.469 246.955 104.385Z" fill="white"/>
<path d="M244.201 95.4851L245.681 104.597L246.941 104.388L245.462 95.2761L244.201 95.4851Z" fill="white"/>
<path d="M238.349 96.4248L238.612 98.0474L245.09 96.9735L244.826 95.3509L238.349 96.4248Z" fill="white"/>
<path d="M238.726 98.729L238.888 99.7275L245.365 98.6537L245.203 97.6552L238.726 98.729Z" fill="white"/>
<g clip-path="url(#clip0_809_10965)">
<path d="M222.323 33.1032L219.603 30.8646C230.319 17.8216 248.549 17.4795 261.018 23.8824C275.817 31.4845 286.03 51.3533 277.647 68.8183L274.453 67.3242C281.934 51.7329 272.682 33.9237 259.342 27.0737C248.412 21.4591 231.722 21.6641 222.323 33.1032Z" fill="#433345"/>
<path d="M220.496 31.5996L222.325 33.1049C231.724 21.6658 248.413 21.4607 259.345 27.0732C272.686 33.9232 281.937 51.7325 274.454 67.3259L276.262 68.1722C283.299 51.2399 273.738 32.7868 259.803 25.7283C248.187 19.8472 231.314 20.1505 220.496 31.5996Z" fill="#322633"/>
<path d="M216.108 30.8228C216.108 30.8228 223.157 25.9091 224.259 26.4052C225.362 26.9012 227.531 28.4215 227.531 28.4215L224.088 33.7443C224.088 33.7443 218.34 34.6376 216.11 30.8244L216.108 30.8228Z" fill="#FCC34B"/>
<path d="M279.623 70.2067C279.623 70.2067 280.871 61.7054 279.933 60.9393C278.995 60.1732 276.667 58.9145 276.667 58.9145L273.444 64.3735C273.444 64.3735 275.215 69.914 279.623 70.2067Z" fill="#FCC34B"/>
<path d="M279.986 67.2975C280.262 64.7564 280.506 61.4083 279.933 60.9393C278.995 60.1732 276.667 58.9145 276.667 58.9145C276.667 58.9145 276.539 64.0153 279.986 67.2975Z" fill="#FEB61D"/>
<path d="M218.545 31.2444C205.11 25.916 193.869 51.0719 208.507 57.5153C223.141 63.9592 218.545 31.2444 218.545 31.2444Z" fill="url(#paint0_linear_809_10965)"/>
<path opacity="0.2" d="M214.463 31.3623C210.802 30.6119 204.452 36.7447 204.645 39.9146C205.11 47.5298 218.651 32.2202 214.463 31.3623Z" fill="white"/>
<path opacity="0.5" d="M211.358 34.6067C210.262 35.5589 209.096 36.0073 208.753 35.614C208.411 35.2187 209.02 34.1293 210.115 33.177C211.21 32.2248 212.377 31.7765 212.72 32.1697C213.061 32.565 212.453 33.6545 211.358 34.6067Z" fill="white"/>
<path d="M209.7 51.1999C202.292 45.3312 202.864 40.6308 203.585 38.6868C200.254 45.3077 200.691 54.0771 208.503 57.5157C210.512 58.4011 212.156 58.5441 213.502 58.1376C213.499 55.8322 212.502 53.4232 209.697 51.2003L209.7 51.1999Z" fill="#E02E73"/>
<path d="M224.482 33.1659C215.175 21.0818 196.251 54.5208 211.125 61.2115C225.999 67.9022 224.482 33.1659 224.482 33.1659Z" fill="#433345"/>
<path d="M219.616 59.4914C225.323 52.4141 224.483 33.1638 224.483 33.1638C224.248 32.8591 224.006 32.5896 223.758 32.3399C221.658 33.6793 206.276 43.4891 209.872 55.8294C211.167 60.2736 215.386 60.8486 219.616 59.4876L219.616 59.4914Z" fill="#322633"/>
<path d="M211.126 61.2115C212.396 61.7814 213.544 62.0464 214.586 62.0603C215.102 56.0416 215.027 50.6341 212.989 51.1306C208.525 52.2154 206.1 47.7315 206.1 47.7315L205.931 48.1626C204.951 53.7031 206.132 58.9638 211.125 61.2077L211.126 61.2115Z" fill="#322633"/>
<path d="M278.701 68.4555C289.859 77.6432 273.264 99.6382 260.55 89.9395C247.839 80.2387 278.701 68.4555 278.701 68.4555Z" fill="url(#paint1_linear_809_10965)"/>
<path opacity="0.2" d="M280.571 72.088C282.994 74.9297 280.696 83.4545 277.825 84.8165C270.934 88.0903 277.794 68.835 280.571 72.088Z" fill="white"/>
<path opacity="0.5" d="M279.23 76.3731C278.926 77.7915 279.095 79.0314 279.607 79.1407C280.119 79.2501 280.78 78.1888 281.084 76.7704C281.388 75.352 281.219 74.1121 280.707 74.0028C280.195 73.8934 279.534 74.9548 279.23 76.3731Z" fill="white"/>
<path d="M265.501 85.8411C274.219 89.4912 278.056 86.72 279.412 85.1498C275.225 91.2644 267.336 95.1194 260.549 89.9416C258.802 88.6102 257.884 87.2376 257.588 85.8636C259.607 84.75 262.2 84.4611 265.499 85.8432L265.501 85.8411Z" fill="#E02E73"/>
<path d="M274.151 64.1881C289.228 66.4995 269.095 99.2219 256.049 89.4327C243.004 79.6434 274.151 64.1881 274.151 64.1881Z" fill="#433345"/>
<path d="M253.099 80.7728C256.538 72.3571 273.798 63.7906 273.798 63.7906C274.18 63.8485 274.532 63.9309 274.868 64.0286C274.711 66.5155 273.555 84.7202 261.011 87.5337C256.495 88.5464 253.951 85.1319 253.099 80.7728Z" fill="#322633"/>
<path d="M256.051 89.4305C254.937 88.5936 254.152 87.7156 253.635 86.8096C258.654 83.4487 263.423 80.9031 263.976 82.9272C265.181 87.3591 270.279 87.3174 270.279 87.3174L269.983 87.6756C265.606 91.2107 260.43 92.7186 256.051 89.4305Z" fill="#322633"/>
<path d="M220.729 27.8553L220.788 27.9668C220.788 27.9668 220.956 32.0229 227.533 28.4195C227.533 28.4195 225.366 26.9008 224.262 26.4031C223.803 26.1957 222.311 26.9312 220.731 27.8532L220.729 27.8553Z" fill="#FEB61D"/>
</g>
<defs>
<linearGradient id="paint0_linear_809_10965" x1="217.728" y1="31.3734" x2="207.255" y2="46.3911" gradientUnits="userSpaceOnUse">
<stop offset="0.333333" stop-color="#FCC34B"/>
<stop offset="1" stop-color="#E93C83"/>
</linearGradient>
<linearGradient id="paint1_linear_809_10965" x1="279.92" y1="69.415" x2="272.859" y2="85.0718" gradientUnits="userSpaceOnUse">
<stop offset="0.333333" stop-color="#FCC34B"/>
<stop offset="1" stop-color="#E93C83"/>
</linearGradient>
<clipPath id="clip0_809_10965">
<rect width="88.7393" height="61.098" fill="white" transform="translate(232.854 0.917725) rotate(38.2236)"/>
</clipPath>
</defs>
</svg>
