<svg width="149" height="130" viewBox="0 0 149 130" fill="none" xmlns="http://www.w3.org/2000/svg">
<path d="M24.3663 33.6653C24.3663 33.6653 23.8051 28.8886 27.8371 27.7804C31.8755 26.6642 33.743 31.306 33.0632 33.8648C32.3833 36.4235 30.3975 39.4233 25.7407 38.4282C21.0839 37.4331 17.4614 32.5256 19.3648 27.8213C21.2682 23.1171 24.0271 21.7325 28.7281 21.6738C33.5226 21.6134 39.628 20.7835 41.0764 19.1844C41.9834 18.1848 42.8215 16.3831 43.321 15.1902C43.4391 14.9163 43.3947 14.6 43.2 14.3712C43.0196 14.1411 42.7138 14.0325 42.4309 14.0893C40.5998 14.465 37.2475 15.9003 34.4236 21.2338C30.3035 29.0114 29.9096 32.9123 25.6996 39.5909C21.4897 46.2696 17.972 43.3777 17.972 43.3777C17.972 43.3777 13.7437 40.7448 16.5223 37.2886C19.0168 34.1808 21.6239 37.3512 21.2282 39.0295C20.7598 41.0065 19.0019 41.4698 17.8504 40.5766C17.8504 40.5766 19.0978 42.4806 20.7446 42.1375C21.832 41.9001 23.1869 42.4308 27.8622 32.9083C32.5297 23.3792 35.2182 16.9221 38.5548 14.4098C40.2568 13.1285 41.8967 12.7132 43.1121 12.6089C43.5913 12.5694 44.0716 12.7702 44.3878 13.1401C44.704 13.51 44.8169 14.0164 44.7036 14.4939C44.161 16.6749 42.8592 20.3511 39.9139 22.6576C36.7201 25.156 29.3912 24.1815 27.4241 24.6434C25.9865 24.9879 22.5056 25.9038 22.8932 31.2806C23.2807 36.6573 28.3534 37.1745 30.2669 35.3114C32.1803 33.4482 31.2967 30.7435 30.1576 29.9803C29.0185 29.2171 26.3985 28.7226 24.3599 33.6732L24.3663 33.6653Z" fill="white"/>
<path d="M126.392 51.5601C125.234 52.2135 123.613 51.5056 122.776 49.9857C121.935 48.4619 122.199 46.7015 123.357 46.0481C124.515 45.3947 126.136 46.1026 126.973 47.6225C127.814 49.1464 127.55 50.9067 126.392 51.5601Z" fill="white"/>
<path d="M137.049 43.447L125.487 49.9569L126.369 51.5601L137.931 45.0502L137.049 43.447Z" fill="white"/>
<path d="M63.1208 18.1756C63.4444 19.4755 62.3475 20.8756 60.6784 21.3009C59.0044 21.7288 57.3913 21.0168 57.0677 19.7169C56.7441 18.417 57.841 17.0169 59.5101 16.5916C61.1841 16.1637 62.7972 16.8757 63.1208 18.1756Z" fill="white"/>
<path d="M58.1366 5.67231L61.3545 18.6453L63.1149 18.1976L59.897 5.22461L58.1366 5.67231Z" fill="white"/>
<path d="M20.9779 96.8297C22.0264 96.0082 23.7338 96.4625 24.7867 97.8383C25.8439 99.2174 25.844 100.998 24.7955 101.819C23.7471 102.641 22.0397 102.186 20.9867 100.81C19.9295 99.4313 19.9294 97.6511 20.9779 96.8297Z" fill="white"/>
<path d="M11.6412 106.465L22.1094 98.2777L20.9996 96.8264L10.5315 105.014L11.6412 106.465Z" fill="white"/>
<path d="M132.39 75.2588C131.093 75.8011 129.476 74.8619 128.779 73.1552C128.083 71.4485 128.571 69.6306 129.868 69.0883C131.165 68.5461 132.782 69.4853 133.478 71.192C134.175 72.8987 133.687 74.7166 132.39 75.2588Z" fill="white"/>
<path d="M144.572 68.0452L131.632 73.4595L132.365 75.2522L145.305 69.8379L144.572 68.0452Z" fill="white"/>
<path d="M136.555 74.5499C137.345 75.1282 138.328 75.5812 139.22 75.5062C139.658 75.4643 140.037 75.2601 140.344 74.972L140.559 74.7296C140.628 74.6494 140.678 74.5375 140.741 74.4467C140.797 74.3454 140.866 74.2651 140.908 74.155L141.045 73.8305C141.135 73.6331 141.227 73.3713 141.321 73.1246C141.411 72.8751 141.514 72.6267 141.619 72.3737C141.824 71.8769 142.053 71.3825 142.303 70.8952C142.558 70.4108 142.842 69.9317 143.177 69.465C143.342 69.2301 143.528 69.0023 143.726 68.7757C143.828 68.6638 143.937 68.5502 144.055 68.4425C144.115 68.3886 144.181 68.333 144.248 68.2774C144.333 68.2136 144.368 68.1773 144.529 68.0836L145.39 69.8163C145.443 69.7841 145.368 69.8215 145.347 69.8344C145.313 69.8584 145.274 69.8795 145.237 69.9082C145.158 69.9626 145.078 70.0293 144.99 70.0978C144.824 70.2407 144.662 70.3988 144.503 70.5721C144.188 70.9141 143.883 71.3018 143.601 71.7041C143.321 72.1141 143.055 72.5328 142.807 72.9756C142.682 73.197 142.558 73.4184 142.446 73.641C142.326 73.8654 142.217 74.0833 142.067 74.3468L141.849 74.7182C141.778 74.8429 141.669 74.9565 141.585 75.0725C141.488 75.1872 141.408 75.3061 141.297 75.4121L140.952 75.709C140.46 76.076 139.842 76.2918 139.245 76.2662C138.647 76.2529 138.108 76.0416 137.629 75.784C137.148 75.5189 136.716 75.2063 136.328 74.8234L136.568 74.5511L136.555 74.5499Z" fill="white"/>
<path d="M87.858 17.3997C87.9628 18.8145 86.5754 20.0765 84.754 20.2154C82.9327 20.3542 81.3767 19.3203 81.272 17.9055C81.1672 16.4907 82.5546 15.2287 84.376 15.0898C86.1973 14.951 87.7533 15.9849 87.858 17.3997Z" fill="white"/>
<path d="M84.8821 3.45266L85.9312 17.5686L87.8446 17.4218L86.7955 3.30587L84.8821 3.45266Z" fill="white"/>
<path d="M88.4926 13.177C89.2825 12.598 90.0152 11.7939 90.2229 10.9142C90.3205 10.4796 90.2466 10.0529 90.0719 9.66784L89.9111 9.38616C89.8572 9.29486 89.7677 9.21207 89.702 9.1236C89.6243 9.03797 89.5705 8.94667 89.4802 8.87165L89.2179 8.63952C89.0605 8.49161 88.843 8.32248 88.6408 8.15476C88.4344 7.99057 88.2329 7.81506 88.028 7.63531C87.625 7.28429 87.2319 6.91061 86.8521 6.51854C86.4765 6.12293 86.1149 5.70114 85.7807 5.23475C85.6114 5.00332 85.4555 4.7535 85.3045 4.49235C85.2311 4.36 85.1584 4.21987 85.0941 4.07266C85.0619 3.99905 85.0305 3.91766 84.999 3.83627C84.9655 3.73507 84.9424 3.68977 84.9048 3.50576L86.8018 3.21687C86.7878 3.15672 86.7997 3.24023 86.8053 3.26429C86.8171 3.30464 86.8248 3.34852 86.8402 3.39311C86.8667 3.48582 86.9045 3.58349 86.9415 3.68894C87.0239 3.89277 87.1218 4.09802 87.235 4.30467C87.4581 4.71374 87.7273 5.12704 88.0175 5.52266C88.3154 5.91898 88.6259 6.30469 88.9644 6.68119C89.1337 6.86944 89.3029 7.05769 89.4771 7.23462C89.6506 7.41933 89.8213 7.59202 90.022 7.81849L90.3032 8.14262C90.3983 8.24948 90.471 8.38961 90.5535 8.50709C90.6311 8.6359 90.7178 8.74985 90.7828 8.88927L90.954 9.3132C91.1454 9.89991 91.1555 10.5602 90.9451 11.1258C90.746 11.6962 90.3789 12.1492 89.9874 12.5293C89.5881 12.9087 89.1596 13.2265 88.6785 13.4806L88.4975 13.1657L88.4926 13.177Z" fill="white"/>
<path d="M15.6559 81.0066C16.8288 80.2269 18.5923 80.8409 19.5945 82.3841C20.5968 83.9272 20.4562 85.8053 19.2833 86.585C18.1104 87.3647 16.347 86.7507 15.3447 85.2075C14.3425 83.6644 14.4831 81.7863 15.6559 81.0066Z" fill="white"/>
<path d="M5.03551 90.4119L16.7358 82.6292L15.6821 81.0084L3.98179 88.7912L5.03551 90.4119Z" fill="white"/>
<path d="M11.6972 82.4969C10.8138 82.0795 9.76353 81.8221 8.90204 82.0656C8.47893 82.1904 8.14563 82.463 7.89728 82.8045L7.73154 83.0835C7.67866 83.1754 7.65042 83.2948 7.60575 83.3959C7.56929 83.5061 7.5164 83.5981 7.49523 83.7143L7.42153 84.059C7.36984 84.27 7.32894 84.5445 7.2818 84.8047C7.23976 85.067 7.18555 85.3304 7.12936 85.5989C7.02093 86.1257 6.88816 86.6548 6.73303 87.181C6.5728 87.7053 6.38314 88.2299 6.14168 88.7519C6.02349 89.014 5.88295 89.2732 5.73023 89.5335C5.65133 89.6627 5.56534 89.7951 5.46917 89.9234C5.42108 89.9876 5.36592 90.0549 5.31076 90.1223C5.23947 90.2011 5.21146 90.2435 5.07056 90.3661L3.90189 88.8289C3.85662 88.8705 3.92311 88.8194 3.94122 88.8028C3.97036 88.7727 4.0046 88.7446 4.03572 88.7094C4.10305 88.6409 4.16924 88.5601 4.24251 88.4761C4.37886 88.3042 4.50897 88.118 4.63285 87.9175C4.87862 87.5217 5.10569 87.0829 5.30728 86.6342C5.50575 86.1783 5.68894 85.7164 5.8506 85.2342C5.93143 84.9931 6.01226 84.752 6.08092 84.512C6.15666 84.269 6.22334 84.0342 6.32198 83.7467L6.46613 83.3406C6.51249 83.2046 6.59846 83.0723 6.6601 82.9423C6.73392 82.8111 6.79046 82.6791 6.87956 82.5539L7.16328 82.1966C7.57801 81.7425 8.14424 81.4129 8.73522 81.3243C9.32506 81.2233 9.89461 81.328 10.413 81.4896C10.9344 81.6584 11.4169 81.883 11.8697 82.185L11.685 82.498L11.6972 82.4969Z" fill="white"/>
<path d="M108.104 27.7667C107.301 28.7784 105.6 28.7433 104.299 27.6893C103.003 26.6382 102.597 24.9641 103.404 23.9553C104.207 22.9436 105.908 22.9787 107.209 24.0327C108.505 25.0838 108.911 26.7579 108.104 27.7667Z" fill="white"/>
<path d="M114.724 16.5846L106.723 26.6548L108.087 27.762L116.087 17.6918L114.724 16.5846Z" fill="white"/>
<path d="M115.081 33.4884C114.278 34.5001 112.577 34.4649 111.276 33.4109C109.98 32.3599 109.575 30.6858 110.382 29.677C111.189 28.6682 112.886 28.7004 114.187 29.7544C115.483 30.8054 115.888 32.4796 115.081 33.4884Z" fill="white"/>
<path d="M121.703 22.2993L113.702 32.3695L115.066 33.4767L123.067 23.4066L121.703 22.2993Z" fill="white"/>
<path d="M115.406 17.132L113.981 18.9253L120.986 24.6137L122.41 22.8204L115.406 17.132Z" fill="white"/>
<path d="M113.385 19.6816L112.508 20.7852L119.513 26.4736L120.39 25.37L113.385 19.6816Z" fill="white"/>
<path d="M17.6578 64.486C18.9185 64.722 19.6915 66.2543 19.3874 67.9123C19.0837 69.5648 17.8166 70.7191 16.5563 70.4776C15.2956 70.2417 14.5227 68.7093 14.8267 67.0513C15.1304 65.3989 16.3975 64.2446 17.6578 64.486Z" fill="white"/>
<path d="M4.78616 63.8834L17.3398 66.2422L17.6607 64.5031L5.10697 62.1443L4.78616 63.8834Z" fill="white"/>
<path d="M19.3478 55.5593C20.6085 55.7952 21.3814 57.3275 21.0774 58.9855C20.7737 60.638 19.5065 61.7923 18.2462 61.5508C16.9859 61.3094 16.2126 59.7826 16.5166 58.1246C16.8203 56.4721 18.0875 55.3178 19.3478 55.5593Z" fill="white"/>
<path d="M6.47073 54.9592L19.0244 57.318L19.3452 55.5789L6.79154 53.2201L6.47073 54.9592Z" fill="white"/>
<path d="M4.94166 63.0168L7.17725 63.4369L8.82544 54.5022L6.58986 54.0822L4.94166 63.0168Z" fill="white"/>
<path d="M8.11791 63.6097L9.49365 63.8682L11.1418 54.9335L9.7661 54.675L8.11791 63.6097Z" fill="white"/>
<path d="M127.682 94.4088C126.541 93.8182 126.234 92.1261 126.994 90.6248C127.752 89.1288 129.292 88.3887 130.432 88.9845C131.573 89.5751 131.88 91.2672 131.12 92.7685C130.362 94.2645 128.821 95.0046 127.682 94.4088Z" fill="white"/>
<path d="M139.842 98.7071L128.482 92.8171L127.683 94.3913L139.043 100.281L139.842 98.7071Z" fill="white"/>
<path d="M123.538 102.476C122.397 101.886 122.09 100.193 122.85 98.6922C123.608 97.1961 125.149 96.4561 126.288 97.0519C127.427 97.6477 127.736 99.3346 126.976 100.836C126.218 102.332 124.678 103.072 123.538 102.476Z" fill="white"/>
<path d="M135.706 106.774L124.346 100.884L123.547 102.458L134.907 108.348L135.706 106.774Z" fill="white"/>
<path d="M139.448 99.4929L137.425 98.444L133.32 106.531L135.343 107.58L139.448 99.4929Z" fill="white"/>
<path d="M136.573 98.0066L135.328 97.3611L131.223 105.448L132.468 106.094L136.573 98.0066Z" fill="white"/>
</svg>
