<svg width="360" height="259" viewBox="0 0 360 259" fill="none" xmlns="http://www.w3.org/2000/svg">
<path d="M28.0551 106.528C28.0551 106.528 24.6076 105.828 24.758 102.773C24.9044 99.7116 28.5563 99.4737 30.1792 100.53C31.8021 101.587 33.4332 103.652 31.6786 106.66C29.9239 109.669 25.6866 111.066 22.8522 108.669C20.0178 106.273 19.6855 104.04 20.718 100.759C21.7706 97.4139 22.5878 92.9819 21.8073 91.6103C21.3198 90.7518 20.2591 89.7581 19.5442 89.1386C19.3808 88.994 19.1509 88.9526 18.9475 89.0357C18.7464 89.1085 18.6011 89.2962 18.576 89.5058C18.419 90.864 18.651 93.5212 21.7126 96.7012C26.1765 101.34 28.7973 102.504 32.4772 106.954C36.157 111.405 33.3443 113.189 33.3443 113.189C33.3443 113.189 30.5494 115.526 28.782 112.806C27.192 110.363 29.9903 109.275 31.0662 109.934C32.333 110.71 32.2536 112.038 31.3701 112.634C31.3701 112.634 32.978 112.202 33.1155 110.979C33.1988 110.169 33.8769 109.349 28.3271 103.926C22.771 98.5071 18.8978 95.1646 17.9138 92.2725C17.4119 90.7972 17.4977 89.5628 17.7028 88.6944C17.7847 88.3524 18.0339 88.0645 18.3632 87.9292C18.6924 87.794 19.0701 87.8311 19.376 88.0188C20.7677 88.8939 23.0251 90.6378 23.9554 93.2111C24.9623 96.0008 22.612 100.871 22.4839 102.344C22.3951 103.421 22.2368 106.049 26.0616 107.007C29.8863 107.966 31.4038 104.559 30.546 102.804C29.6882 101.049 27.6069 101.045 26.8165 101.663C26.0261 102.28 25.0843 103.988 28.0591 106.534L28.0551 106.528Z" fill="#141E4C"/>
<path d="M31.0513 54.5738C31.4374 55.7611 30.4847 57.1211 28.9304 57.609C27.3716 58.0996 25.8006 57.5298 25.4145 56.3424C25.0284 55.155 25.981 53.7951 27.5354 53.3072C29.0941 52.8165 30.6652 53.3864 31.0513 54.5738Z" fill="#141E4C"/>
<path d="M25.5647 43.2578L29.4072 55.1084L31.0466 54.5945L27.2041 42.744L25.5647 43.2578Z" fill="#141E4C"/>
<path d="M47.3892 142.011C47.7633 143.065 49.1777 143.51 50.5423 143.008C51.9115 142.506 52.7117 141.244 52.3377 140.19C51.9637 139.137 50.5492 138.692 49.1846 139.194C47.8154 139.696 47.0152 140.958 47.3892 142.011Z" fill="#141E4C"/>
<path d="M45.1023 130.985L48.8428 141.493L47.4039 142.023L43.6634 131.515L45.1023 130.985Z" fill="#141E4C"/>
<path d="M37.524 80.4258C36.679 81.778 34.5665 81.9689 32.8029 80.8458C31.0394 79.7226 30.2994 77.72 31.1444 76.3678C31.9895 75.0155 34.102 74.8247 35.8655 75.9478C37.6291 77.071 38.369 79.0735 37.524 80.4258Z" fill="#141E4C"/>
<path d="M44.0701 65.7626L35.6426 79.2571L37.4959 80.4361L45.9234 66.9416L44.0701 65.7626Z" fill="#141E4C"/>
<path d="M40.9147 77.0389C42.0247 77.0565 43.2318 76.8312 44.0076 76.1774C44.3863 75.851 44.6023 75.4141 44.6981 74.9459L44.7379 74.5807C44.7493 74.4612 44.7222 74.3248 44.7207 74.1997C44.7065 74.069 44.7178 73.9494 44.6849 73.8197L44.5986 73.4297C44.5526 73.188 44.4655 72.8857 44.3915 72.5953C44.3114 72.3052 44.2433 72.0082 44.1748 71.705C44.0386 71.1111 43.9264 70.5033 43.8387 69.8881C43.7573 69.2725 43.7061 68.6429 43.7096 67.9916C43.7083 67.6661 43.7314 67.3331 43.7665 66.9932C43.7872 66.8231 43.8137 66.6464 43.8527 66.4691C43.8721 66.3805 43.8974 66.2853 43.9227 66.19C43.9593 66.0755 43.9682 66.0186 44.0561 65.8263L45.9889 66.8655C46.0161 66.8015 45.9714 66.8852 45.9605 66.9108C45.9446 66.9555 45.9224 67.0004 45.9069 67.0513C45.8695 67.1534 45.8392 67.2677 45.803 67.3885C45.7431 67.6295 45.6963 67.8824 45.6628 68.1471C45.5953 68.6702 45.5674 69.2288 45.5705 69.7858C45.5802 70.3488 45.6086 70.9107 45.6687 71.4836C45.6988 71.77 45.7289 72.0564 45.771 72.336C45.8073 72.6221 45.849 72.8954 45.8826 73.238L45.9249 73.7241C45.9411 73.886 45.9146 74.0627 45.9122 74.2256C45.8977 74.3954 45.9015 74.558 45.8684 74.7287L45.7435 75.2298C45.5288 75.892 45.0988 76.4965 44.5296 76.8641C43.9673 77.2438 43.3292 77.4021 42.7171 77.4776C42.0985 77.5473 41.4938 77.541 40.8834 77.4412L40.9267 77.032L40.9147 77.0389Z" fill="#141E4C"/>
<path d="M59.6152 173.747C59.1508 175.075 57.3763 175.648 55.6481 175.023C53.9199 174.398 52.9002 172.817 53.3646 171.49C53.829 170.162 55.6036 169.588 57.3317 170.213C59.0599 170.839 60.0796 172.419 59.6152 173.747Z" fill="#141E4C"/>
<path d="M62.4079 159.856L57.7783 173.105L59.5942 173.761L64.2238 160.512L62.4079 159.856Z" fill="#141E4C"/>
<path d="M61.871 170.175C62.8261 169.975 63.8177 169.547 64.3572 168.834C64.619 168.479 64.7202 168.061 64.7123 167.64L64.6762 167.318C64.6629 167.213 64.6135 167.1 64.5881 166.993C64.5507 166.883 64.5374 166.778 64.4843 166.673L64.3353 166.354C64.2493 166.155 64.1164 165.911 63.9972 165.676C63.8727 165.441 63.7571 165.199 63.6401 164.951C63.409 164.466 63.1959 163.965 63.0024 163.452C62.8141 162.938 62.6491 162.406 62.5268 161.845C62.463 161.565 62.4188 161.274 62.3835 160.974C62.3685 160.824 62.3573 160.667 62.3565 160.506C62.3562 160.426 62.3595 160.339 62.3629 160.253C62.3722 160.147 62.369 160.096 62.4073 159.914L64.2644 160.434C64.2754 160.373 64.2532 160.454 64.2488 160.478C64.2437 160.52 64.2334 160.563 64.2298 160.61C64.2175 160.705 64.2135 160.809 64.2057 160.92C64.2007 161.139 64.2092 161.366 64.2314 161.6C64.2742 162.064 64.3577 162.55 64.4675 163.029C64.5842 163.511 64.7166 163.99 64.8784 164.471C64.9593 164.712 65.0402 164.953 65.1301 165.185C65.2162 165.424 65.3046 165.652 65.3993 165.94L65.5291 166.35C65.5741 166.487 65.5854 166.644 65.6146 166.785C65.6349 166.933 65.6694 167.073 65.6739 167.226L65.6632 167.682C65.6065 168.293 65.3541 168.897 64.9368 169.324C64.5278 169.76 64.0111 170.019 63.5008 170.203C62.9838 170.383 62.4642 170.495 61.9216 170.527L61.88 170.166L61.871 170.175Z" fill="#141E4C"/>
<path d="M34.5949 171.261C35.5566 172.45 35.0766 174.407 33.5229 175.637C31.9738 176.863 29.9347 176.9 28.9776 175.706C28.0159 174.518 28.4959 172.561 30.0496 171.33C31.5987 170.104 33.6378 170.068 34.5949 171.261Z" fill="#141E4C"/>
<path d="M23.3845 160.724L32.9536 172.569L34.585 171.28L25.0159 159.435L23.3845 160.724Z" fill="#141E4C"/>
<path d="M43.0075 164.677C43.9692 165.866 43.4892 167.822 41.9355 169.053C40.3864 170.279 38.3473 170.315 37.3902 169.122C36.4331 167.929 36.9085 165.977 38.4622 164.746C40.0113 163.52 42.0504 163.484 43.0075 164.677Z" fill="#141E4C"/>
<path d="M31.7897 154.136L41.3589 165.981L42.9903 164.692L33.4212 152.847L31.7897 154.136Z" fill="#141E4C"/>
<path d="M24.1924 160.078L25.8965 162.187L34.278 155.563L32.5739 153.453L24.1924 160.078Z" fill="#141E4C"/>
<path d="M26.6169 163.071L27.6655 164.369L36.047 157.744L34.9983 156.446L26.6169 163.071Z" fill="#141E4C"/>
<path d="M65.7113 198.405C65.6242 199.34 64.5614 200.013 63.3349 199.91C62.1125 199.807 61.1878 198.966 61.279 198.03C61.3661 197.094 62.4289 196.421 63.6554 196.524C64.8778 196.628 65.8024 197.469 65.7113 198.405Z" fill="#141E4C"/>
<path d="M65.2871 188.981L64.4131 198.3L65.6997 198.409L66.5737 189.09L65.2871 188.981Z" fill="#141E4C"/>
<path d="M72.3182 198.999C72.2311 199.935 71.1683 200.607 69.9418 200.504C68.7194 200.401 67.7948 199.56 67.8859 198.624C67.9771 197.688 69.0358 197.015 70.2623 197.118C71.4847 197.222 72.4094 198.063 72.3182 198.999Z" fill="#141E4C"/>
<path d="M71.8916 189.57L71.0176 198.889L72.3042 198.998L73.1782 189.679L71.8916 189.57Z" fill="#141E4C"/>
<path d="M65.9276 189.032L65.772 190.691L72.3818 191.254L72.5375 189.595L65.9276 189.032Z" fill="#141E4C"/>
<path d="M65.7096 191.389L65.6138 192.411L72.2236 192.973L72.3194 191.952L65.7096 191.389Z" fill="#141E4C"/>
<path d="M340.1 64.9211C339.851 65.7155 338.808 66.0863 337.775 65.7507C336.738 65.415 336.105 64.4983 336.354 63.7039C336.603 62.9095 337.646 62.5387 338.679 62.8742C339.716 63.2099 340.349 64.1267 340.1 64.9211Z" fill="#141E4C"/>
<path d="M341.491 56.6523L339 64.5764L340.089 64.9307L342.581 57.0066L341.491 56.6523Z" fill="#141E4C"/>
<path d="M346.954 106.432C346.171 107.822 344.069 108.108 342.257 107.066C340.444 106.024 339.614 104.058 340.396 102.668C341.179 101.279 343.281 100.992 345.094 102.034C346.906 103.076 347.736 105.043 346.954 106.432Z" fill="#141E4C"/>
<path d="M352.827 91.487L345.021 105.35L346.926 106.444L354.732 92.5806L352.827 91.487Z" fill="#141E4C"/>
<path d="M350.187 102.895C351.297 102.862 352.492 102.582 353.238 101.894C353.601 101.551 353.797 101.104 353.871 100.632L353.895 100.266C353.901 100.146 353.867 100.011 353.86 99.8857C353.84 99.7558 353.846 99.6358 353.807 99.5077L353.703 99.1221C353.646 98.8826 353.546 98.5847 353.458 98.2979C353.365 98.0118 353.284 97.7182 353.202 97.4184C353.038 96.8313 352.899 96.2292 352.783 95.6186C352.674 95.0074 352.594 94.3807 352.568 93.7299C352.552 93.4049 352.56 93.0712 352.58 92.73C352.593 92.5591 352.611 92.3814 352.642 92.2026C352.657 92.1131 352.678 92.0168 352.699 91.9206C352.73 91.8044 352.737 91.7473 352.816 91.5511L354.794 92.5015C354.818 92.4363 354.777 92.522 354.768 92.548C354.754 92.5934 354.734 92.6393 354.72 92.6908C354.688 92.7945 354.663 92.9101 354.632 93.0324C354.583 93.2759 354.548 93.5306 354.526 93.7965C354.483 94.3222 354.48 94.8815 354.509 95.4378C354.544 95.9997 354.598 96.5598 354.684 97.1294C354.727 97.4141 354.77 97.6989 354.825 97.9762C354.874 98.2604 354.928 98.5315 354.977 98.8722L355.042 99.3559C355.065 99.5169 355.047 99.6946 355.052 99.8575C355.045 100.028 355.056 100.19 355.031 100.362L354.929 100.868C354.744 101.54 354.342 102.163 353.79 102.556C353.246 102.961 352.616 103.148 352.008 103.251C351.393 103.349 350.788 103.37 350.174 103.298L350.199 102.887L350.187 102.895Z" fill="#141E4C"/>
<path d="M332.275 85.2091C331.646 86.2276 330.053 86.3941 328.712 85.5825C327.375 84.773 326.796 83.29 327.43 82.2737C328.058 81.2552 329.652 81.0887 330.993 81.9003C332.33 82.7098 332.909 84.1928 332.275 85.2091Z" fill="#141E4C"/>
<path d="M337.123 74.2158L330.853 84.3547L332.259 85.2077L338.529 75.0688L337.123 74.2158Z" fill="#141E4C"/>
<path d="M339.478 89.6254C338.849 90.6439 337.255 90.8103 335.914 89.9987C334.578 89.1892 333.999 87.7063 334.632 86.6899C335.266 85.6736 336.855 85.505 338.196 86.3166C339.532 87.1261 340.111 88.6091 339.478 89.6254Z" fill="#141E4C"/>
<path d="M344.326 78.625L338.056 88.7639L339.462 89.6169L345.732 79.478L344.326 78.625Z" fill="#141E4C"/>
<path d="M337.825 74.6366L336.708 76.4421L343.932 80.8243L345.049 79.0187L337.825 74.6366Z" fill="#141E4C"/>
<path d="M336.242 77.2031L335.555 78.3142L342.779 82.6964L343.466 81.5853L336.242 77.2031Z" fill="#141E4C"/>
<path d="M147.387 239.762L105.351 220.475C105.351 220.475 98.0871 216.885 93.7669 223.94C89.9569 230.165 92.5269 234.392 96.3124 236.881C100.098 239.37 126.901 252.219 129.407 252.333C134.541 252.566 137.534 248.881 138.64 245.68C139.748 242.48 139.357 239.097 139.357 239.097L137.541 238.723C137.541 238.723 137.754 243.189 136.459 245.333C135.163 247.478 132.984 250.03 129.623 249.261C126.262 248.493 103.149 237.29 99.7948 235.361C94.267 232.182 94.9239 228.768 96.041 226.125C97.1582 223.481 99.9711 221.92 103.558 222.796C107.145 223.672 146.472 241.397 146.472 241.397L147.387 239.762Z" fill="#FCA61B"/>
<path d="M139.424 240.737C139.424 240.737 139.957 235.158 138.6 232.41C137.263 229.704 134.475 226.861 126.706 223.168C118.938 219.477 105.037 211.493 102.118 209.275C97.7586 205.962 95.8551 203.711 96.1465 200.641C96.8379 193.379 95.5052 189.812 94.2942 188.859C92.0846 187.119 86.9638 190.207 80.954 202.117C73.8215 216.255 71.8716 224.712 76.2459 225.963C79.6357 226.932 82.0059 224.008 85.0631 220.768C87.8396 217.827 91.8988 216.84 95.8059 217.04C103.484 217.435 110.121 219.151 117.102 222.469C124.127 225.808 132.998 229.834 135.245 231.919C138.598 235.03 137.543 238.722 137.543 238.722L139.426 240.736L139.424 240.737Z" fill="#FCA61B"/>
<path d="M148.194 238.767L147.772 238.566C147.4 238.389 146.952 238.549 146.775 238.921L145.572 241.454C145.395 241.826 145.554 242.273 145.926 242.45L146.348 242.651C146.721 242.828 147.168 242.669 147.345 242.296L148.549 239.764C148.726 239.391 148.566 238.944 148.194 238.767Z" fill="#FCA61B"/>
<path d="M146.722 242.258C147.127 242.25 147.97 241.934 149.222 242.405C150.255 242.793 150.812 243.466 150.812 243.466L151.868 241.384C151.868 241.384 150.582 241.426 149.9 241.19C148.931 240.856 148.159 239.569 148.159 239.569L146.722 242.258Z" fill="#FCA61B"/>
<path d="M133.57 223.71L134.583 224.191L130.088 233.648L129.075 233.167L133.57 223.71Z" fill="#FCA61B"/>
<path d="M94.4423 191.798C94.7916 193.007 93.1812 204.262 89.0328 211.239C84.9056 218.18 79.2276 225.554 76.5248 224.27C74.4549 223.286 76.8625 212.856 80.8223 204.991C88.1685 190.402 93.2286 187.598 94.4411 191.797L94.4423 191.798Z" fill="#D88A19"/>
<path d="M84.139 214.539C84.9504 210.68 86.02 207.773 88.6254 204.037C89.6353 202.589 91.2878 200.818 93.1542 200.482C92.2671 204.193 90.7632 208.431 88.7918 211.747C87.2431 214.352 85.3558 216.969 83.609 219.215C83.6081 217.693 83.8421 215.959 84.1402 214.54L84.139 214.539Z" fill="#B77116"/>
<path d="M137.857 224.098C137.727 224.082 134.429 224.631 134.429 224.631L133.343 224.207L131.927 221.28L132.262 220.381C132.262 220.381 132.9 218.844 135.978 220.306C138.493 221.502 138.47 223.193 138.47 223.193L137.856 224.097L137.857 224.098Z" fill="#FCA61B"/>
<path d="M138.47 223.194C138.11 223.759 136.395 223.777 134.952 222.948C132.17 221.349 132.263 220.381 132.263 220.381L131.928 221.281C131.928 221.281 132.755 222.639 134.707 223.659C135.813 224.238 137.857 224.098 137.857 224.098L138.471 223.195L138.47 223.194Z" fill="#D88A19"/>
<path d="M126.644 220.374L127.657 220.855L123.162 230.313L122.149 229.831L126.644 220.374Z" fill="#FCA61B"/>
<path d="M130.931 220.762C130.801 220.746 127.503 221.295 127.503 221.295L126.417 220.871L125.002 217.944L125.336 217.045C125.336 217.045 125.974 215.508 129.052 216.97C131.568 218.166 131.544 219.858 131.544 219.858L130.93 220.762L130.931 220.762Z" fill="#FCA61B"/>
<path d="M131.545 219.857C131.185 220.422 129.47 220.439 128.027 219.611C125.244 218.012 125.337 217.044 125.337 217.044L125.002 217.943C125.002 217.943 125.829 219.302 127.782 220.322C128.888 220.9 130.932 220.761 130.932 220.761L131.546 219.857L131.545 219.857Z" fill="#D88A19"/>
<path d="M120.231 217.51L121.244 217.991L116.749 227.449L115.736 226.967L120.231 217.51Z" fill="#FCA61B"/>
<path d="M124.518 217.897C124.387 217.881 121.089 218.429 121.089 218.429L120.003 218.005L118.588 215.079L118.923 214.18C118.923 214.18 119.561 212.643 122.638 214.105C125.154 215.301 125.13 216.992 125.13 216.992L124.516 217.896L124.518 217.897Z" fill="#FCA61B"/>
<path d="M125.132 216.993C124.771 217.557 123.058 217.575 121.614 216.747C118.832 215.148 118.925 214.18 118.925 214.18L118.59 215.079C118.59 215.079 119.417 216.438 121.369 217.458C122.475 218.036 124.519 217.897 124.519 217.897L125.133 216.993L125.132 216.993Z" fill="#D88A19"/>
<path d="M132.003 229.735L130.97 229.199L130.437 230.417L131.59 230.413L132.003 229.735Z" fill="#D88A19"/>
<path d="M125.15 226.247L124.12 225.804L123.567 226.968L124.792 226.905L125.15 226.247Z" fill="#D88A19"/>
<path d="M118.772 223.217L117.758 222.735L117.153 224.103L118.434 224.022L118.772 223.217Z" fill="#D88A19"/>
<path d="M137.716 237.47L137.372 235.184L136.022 234.543L135.974 236.693L137.716 237.47Z" fill="#D88A19"/>
<path d="M146.557 239.38L145.753 241.072L144.701 240.601L146.109 239.175L146.557 239.38Z" fill="#D88A19"/>
<path opacity="0.4" d="M135.756 229.679C135.756 229.679 134.325 228.3 133.034 227.419C129.699 225.144 117.993 219.719 113.737 217.351C109.48 214.984 105.404 213.082 103.418 211.619C100.25 209.285 98.7065 207.448 98.7065 207.448L98.4541 210.156C98.4541 210.156 99.1726 211.258 105.116 214.288C111.058 217.32 127.778 225.265 127.778 225.265C131.999 227.271 135.319 230.161 135.319 230.161L135.755 229.677L135.756 229.679Z" fill="#F9E130"/>
<path opacity="0.4" d="M146.392 241.566C146.303 241.753 146.382 241.976 146.57 242.064C146.756 242.153 146.979 242.074 147.067 241.886L148.164 239.578C148.253 239.391 148.174 239.168 147.986 239.08C147.8 238.991 147.577 239.07 147.489 239.258L146.392 241.566Z" fill="#F9E130"/>
<path opacity="0.4" d="M95.2815 195.055C95.2815 195.055 94.5189 201.938 92.8454 205.697C88.7631 214.867 83.5055 220.995 83.5055 220.995C83.5055 220.995 89.0968 216.199 90.9255 214.239C92.7543 212.278 94.6725 207.808 94.9484 204.902C95.2256 201.997 95.2815 195.055 95.2815 195.055Z" fill="#F9E130"/>
<path opacity="0.4" d="M99.7186 236.811L127.729 250.315L126.347 248.734L98.1817 235.221L99.7186 236.811Z" fill="#F9E130"/>
<path d="M307.239 3.42362C311.503 9.45945 314.301 16.2676 318.993 22.0497C319.727 22.9101 319.537 24.1425 318.616 24.7774C317.812 25.3312 316.764 25.1604 316.152 24.4073C311.32 18.7402 305.133 14.7456 299.973 9.45215C298.425 7.74821 298.966 4.78283 300.48 3.26602C302.033 1.70819 304.998 1.47538 306.721 2.87858C306.913 3.03568 307.096 3.23285 307.239 3.42362Z" fill="#884F13"/>
<path d="M306.72 2.88003C304.998 1.47758 302.032 1.70963 300.479 3.26745C299.575 4.17483 299.018 5.59984 299.046 6.96243C299.29 6.4071 299.622 5.90369 300.023 5.50134C301.576 3.94351 304.541 3.71071 306.264 5.11391C306.456 5.271 306.639 5.46817 306.782 5.65894C311.046 11.696 313.844 18.503 318.536 24.2851C318.635 24.4011 318.716 24.5236 318.782 24.6509C319.557 23.9886 319.679 22.8556 318.993 22.0512C314.3 16.2691 311.501 9.46139 307.238 3.42506C307.094 3.23555 306.913 3.03712 306.72 2.88003Z" fill="#60350F"/>
<path d="M303.996 6.9073C305.077 7.81562 306.927 11.4211 306.123 12.2104C305.318 13.0002 301.778 10.6819 300.922 9.21415C299.804 7.29886 301.807 5.0674 303.997 6.90605L303.996 6.9073Z" fill="#A8662A"/>
<path d="M335.72 29.5519L331.153 24.9949C327.647 20.782 321.853 19.8188 317.642 23.3127C313.431 26.8086 313.318 32.6743 316.822 36.8878L320.471 42.2079C322.017 44.0674 325.663 55.287 325.663 55.287L336.652 46.1673L347.641 37.0475C347.641 37.0475 337.266 31.4107 335.72 29.5532L335.72 29.5519Z" fill="#F9BE62"/>
<path d="M335.721 29.5519L331.153 24.9949C327.648 20.7819 321.853 19.8188 317.642 23.3126C317.398 23.5156 317.167 23.7269 316.95 23.9446C321.079 21.1368 326.411 22.2217 329.712 26.1895L334.279 30.7465C335.826 32.6061 346.201 38.2408 346.201 38.2408L347.642 37.0442C347.642 37.0442 337.266 31.4074 335.72 29.5499L335.721 29.5519Z" fill="#D88A0E"/>
<path d="M347.902 37.3585C346.272 35.3987 340.03 37.8936 333.961 42.931C327.892 47.9683 324.294 53.6406 325.925 55.6004C327.555 57.5602 333.797 55.0653 339.866 50.028C345.935 44.9906 349.533 39.3183 347.902 37.3585Z" fill="#D88A0E"/>
<path d="M325.663 53.4102C328.403 53.25 332.996 50.9145 337.497 47.1797C341.996 43.4453 345.137 39.362 345.797 36.7016C343.057 36.8617 338.463 39.1973 333.963 42.9321C329.464 46.6664 326.322 50.7498 325.663 53.4102Z" fill="#BC740D"/>
<path d="M336.439 30.2196C336.123 29.9643 335.876 29.7383 335.72 29.5517L332.89 26.7289C326.998 29.48 321.998 33.6298 318.21 38.9127L320.47 42.2077C320.625 42.3954 320.803 42.6794 320.996 43.0357C324.735 37.2119 330.022 32.8249 336.439 30.2196Z" fill="#D88A0E"/>
<path d="M331.131 27.6066L334.279 30.7475C334.355 30.838 334.452 30.9393 334.568 31.0468C335.18 30.7549 335.804 30.4785 336.439 30.2207C336.291 30.1008 336.159 29.9887 336.044 29.8833C336.034 29.8739 336.024 29.8646 336.015 29.8572C335.996 29.8393 335.978 29.8233 335.96 29.8054C335.944 29.791 335.929 29.7746 335.914 29.7609C335.9 29.7472 335.886 29.7336 335.873 29.7187C335.854 29.7007 335.838 29.6823 335.821 29.6651C335.812 29.6545 335.801 29.6444 335.792 29.6337C335.765 29.6059 335.742 29.5784 335.72 29.5529L332.89 26.73C332.294 27.0081 331.707 27.3013 331.131 27.6079L331.131 27.6066Z" fill="#BC740D"/>
<path d="M316.108 33.2939C317.511 36.1514 321.4 39.5087 323.112 43.325C323.783 44.8182 324.906 49.4341 325.55 49.9146C326.194 50.3951 326.95 49.4021 326.831 47.7949C326.713 46.1877 324.423 41.3857 322.851 38.9106C321.281 36.4363 318.304 33.5451 317.707 31.8472C317.11 30.1493 317.562 28.3109 316.533 27.2148C315.952 26.5954 314.707 30.4371 316.109 33.2947L316.108 33.2939Z" fill="#FFD9A6"/>
<path d="M319.202 37.5921C320.197 38.811 321.234 40.0945 322.086 41.4411C322.5 40.8703 322.93 40.3159 323.375 39.7772C323.194 39.4661 323.019 39.1751 322.851 38.9111C322.238 37.9449 321.41 36.9161 320.594 35.9186C320.116 36.4613 319.652 37.0189 319.202 37.5921Z" fill="#E5AE6C"/>
<path d="M329.056 47.7374L330.214 49.8697C330.561 50.5054 330.745 51.2239 330.694 51.9449C330.671 52.2841 330.748 52.6346 330.942 52.9522C331.389 53.6829 332.331 53.9687 333.108 53.6093C334.007 53.193 334.354 52.1136 333.887 51.2559C333.731 50.9697 333.506 50.7467 333.244 50.594C332.614 50.2301 332.093 49.7019 331.746 49.0622L330.282 46.3708C329.848 46.8298 329.438 47.2881 329.056 47.7395L329.056 47.7374Z" fill="#F9BE62"/>
<path d="M329.833 46.8549L330.978 48.9637C331.325 49.6034 331.846 50.1316 332.476 50.4955C332.739 50.647 332.964 50.87 333.12 51.1561C333.586 52.013 333.238 53.0925 332.341 53.5096C332.169 53.5896 331.988 53.6353 331.807 53.6546C332.219 53.8066 332.689 53.803 333.108 53.608C334.007 53.1917 334.355 52.1122 333.888 51.2546C333.732 50.9684 333.507 50.7454 333.245 50.5927C332.615 50.2288 332.094 49.7006 331.746 49.0609L330.283 46.3694C330.13 46.5328 329.981 46.6938 329.834 46.8557L329.833 46.8549Z" fill="#A5630C"/>
<path d="M331.604 51.5182C331.985 51.4765 332.139 51.7717 332.182 52.1545C332.225 52.5372 332.14 52.8583 331.759 52.9C331.378 52.9418 331.033 52.667 330.991 52.285C330.949 51.9043 331.223 51.5599 331.606 51.519L331.604 51.5182Z" fill="#FFD9A6"/>
</svg>
