<svg width="221" height="120" viewBox="0 0 221 120" fill="none" xmlns="http://www.w3.org/2000/svg">
<path d="M57.0118 119.129C55.5364 119.147 54.3245 117.963 54.3069 116.488L54.2749 113.815L59.6208 113.751L59.6528 116.424C59.6704 117.899 58.4872 119.111 57.0118 119.129Z" fill="#828483"/>
<path d="M80.9371 118.842C79.4617 118.86 78.2498 117.677 78.2322 116.201L78.2002 113.528L83.5461 113.464L83.5781 116.137C83.5957 117.613 82.4125 118.825 80.9371 118.842Z" fill="#828483"/>
<path d="M49.1541 45.954L85.9526 45.5137C89.5293 45.4709 92.4638 48.3391 92.5065 51.9126L93.1919 109.188C93.2346 112.761 90.3665 115.699 86.793 115.742L49.9945 116.182C46.421 116.225 43.4834 113.36 43.4406 109.783L42.7552 52.5079C42.7125 48.9344 45.5806 45.9968 49.1541 45.954Z" fill="#892E60"/>
<path d="M51.8367 45.9218L83.2702 45.5456C86.8469 45.5028 89.7813 48.371 89.8241 51.9445L90.5094 109.22C90.5522 112.793 87.684 115.731 84.1105 115.774L52.6771 116.15C49.1036 116.192 46.166 113.324 46.1232 109.751L45.4378 52.4757C45.3951 48.9021 48.2632 45.9645 51.8367 45.9218Z" fill="url(#paint0_linear_762_10520)"/>
<path d="M80.217 45.611C79.9613 45.5949 79.7057 45.5884 79.4471 45.5915L54.8924 45.8853L48.3909 116.201L80.2874 115.819C80.5461 115.816 88.1464 115.716 88.3985 115.694L80.217 45.611Z" fill="#F9FBFC"/>
<path d="M78.6462 45.6296C78.4224 45.6131 78.1988 45.6062 77.972 45.6089L56.4607 45.8663L50.8694 116.171L78.8124 115.837C79.0391 115.834 85.6974 115.745 85.9207 115.723L78.6462 45.6296Z" fill="#181923"/>
<path d="M67.8877 73.5869C72.4998 73.5317 76.194 69.7481 76.1388 65.136C76.0836 60.5239 72.3 56.8297 67.6879 56.8849C63.0758 56.9401 59.3817 60.7237 59.4368 65.3358C59.492 69.9479 63.2756 73.642 67.8877 73.5869Z" fill="#B3B3B3"/>
<path d="M67.8652 71.6869C71.4279 71.6443 74.2815 68.7216 74.2389 65.1589C74.1962 61.5962 71.2735 58.7426 67.7108 58.7852C64.1481 58.8279 61.2946 61.7506 61.3372 65.3133C61.3798 68.876 64.3025 71.7295 67.8652 71.6869Z" fill="#434040"/>
<path d="M67.8196 67.9056C69.294 67.8879 70.475 66.6783 70.4574 65.2039C70.4397 63.7294 69.2302 62.5484 67.7557 62.5661C66.2812 62.5837 65.1002 63.7933 65.1179 65.2678C65.1355 66.7422 66.3451 67.9232 67.8196 67.9056Z" fill="black"/>
<path d="M67.705 58.2998C67.9555 58.2968 68.1561 58.0914 68.1531 57.8409C68.1501 57.5905 67.9446 57.3899 67.6942 57.3929C67.4437 57.3959 67.2432 57.6013 67.2461 57.8518C67.2491 58.1022 67.4546 58.3028 67.705 58.2998Z" fill="#434040"/>
<path d="M73.2734 60.2646C73.0998 60.4423 72.8124 60.4458 72.6315 60.2723C72.4537 60.0987 72.4503 59.8113 72.6238 59.6304C72.7973 59.4494 73.0848 59.4492 73.2657 59.6227C73.4466 59.7962 73.4469 60.0837 73.2734 60.2646Z" fill="#434040"/>
<path d="M75.1826 65.6009C75.433 65.5979 75.6336 65.3924 75.6306 65.142C75.6276 64.8915 75.4222 64.6909 75.1717 64.6939C74.9213 64.6969 74.7207 64.9024 74.7237 65.1528C74.7267 65.4033 74.9321 65.6039 75.1826 65.6009Z" fill="#434040"/>
<path d="M72.7599 70.7214C72.5821 70.5478 72.5787 70.2604 72.7522 70.0795C72.9257 69.9018 73.2132 69.8983 73.3941 70.0718C73.5718 70.2454 73.5753 70.5328 73.4018 70.7137C73.2282 70.8914 72.9408 70.8949 72.7599 70.7214Z" fill="#434040"/>
<path d="M67.8813 73.0795C68.1318 73.0765 68.3324 72.871 68.3294 72.6206C68.3264 72.3702 68.1209 72.1696 67.8705 72.1726C67.62 72.1755 67.4194 72.381 67.4224 72.6315C67.4254 72.8819 67.6309 73.0825 67.8813 73.0795Z" fill="#434040"/>
<path d="M62.2998 70.2077C62.4734 70.0299 62.7608 70.0265 62.9417 70.2C63.1194 70.3735 63.1229 70.6609 62.9494 70.8419C62.7758 71.0196 62.4884 71.0231 62.3075 70.8496C62.1297 70.676 62.1263 70.3886 62.2998 70.2077Z" fill="#434040"/>
<path d="M60.3927 64.8712C60.6418 64.8682 60.8486 65.0669 60.8516 65.3192C60.8546 65.5715 60.6558 65.7751 60.4035 65.7781C60.1513 65.7811 59.9477 65.5823 59.9446 65.3301C59.9416 65.0778 60.1404 64.8742 60.3927 64.8712Z" fill="#434040"/>
<path d="M62.8162 59.7477C62.994 59.9213 62.9974 60.2087 62.8239 60.3896C62.6504 60.5705 62.3629 60.5708 62.182 60.3973C62.0043 60.2237 62.0008 59.9363 62.1743 59.7554C62.3479 59.5777 62.6353 59.5742 62.8162 59.7477Z" fill="#434040"/>
<path d="M80.8755 98.3908C81.9444 91.3686 77.1183 84.8097 70.0962 83.7408C63.0741 82.672 56.5151 87.4981 55.4463 94.5202C54.3774 101.542 59.2035 108.101 66.2256 109.17C73.2477 110.239 79.8067 105.413 80.8755 98.3908Z" fill="#B3B3B3"/>
<path d="M75.2717 103.396C79.1064 99.4681 79.0311 93.1757 75.1036 89.341C71.176 85.5064 64.8836 85.5817 61.0489 89.5092C57.2143 93.4367 57.2896 99.7292 61.2171 103.564C65.1446 107.398 71.4371 107.323 75.2717 103.396Z" fill="#434040"/>
<path d="M74.2865 97.3748C74.7973 93.9912 72.4684 90.8343 69.0849 90.3235C65.7014 89.8128 62.5445 92.1416 62.0337 95.5251C61.5229 98.9086 63.8518 102.066 67.2353 102.576C70.6188 103.087 73.7757 100.758 74.2865 97.3748Z" fill="black"/>
<path d="M71.2957 99.5136C72.9863 97.782 72.9531 95.0078 71.2215 93.3172C69.49 91.6266 66.7158 91.6598 65.0252 93.3914C63.3346 95.1229 63.3678 97.8971 65.0993 99.5877C66.8309 101.278 69.6051 101.245 71.2957 99.5136Z" fill="#434040"/>
<path d="M68.0344 85.7672C68.4189 85.7626 68.7268 85.4472 68.7222 85.0627C68.7176 84.6782 68.4022 84.3702 68.0177 84.3748C67.6332 84.3794 67.3253 84.6949 67.3299 85.0794C67.3345 85.4638 67.6499 85.7718 68.0344 85.7672Z" fill="#434040"/>
<path d="M76.6109 88.798C76.3427 89.0726 75.8988 89.078 75.6241 88.8098C75.3494 88.5416 75.3441 88.0977 75.6123 87.823C75.8805 87.5483 76.3244 87.543 76.5991 87.8112C76.8738 88.0794 76.8791 88.5233 76.6109 88.798Z" fill="#434040"/>
<path d="M79.5515 97.0161C79.1651 97.0207 78.8515 96.7115 78.847 96.3283C78.8424 95.945 79.1516 95.6283 79.5348 95.6237C79.918 95.6192 80.2347 95.9284 80.2393 96.3116C80.2439 96.6948 79.9347 97.0115 79.5515 97.0161Z" fill="#434040"/>
<path d="M75.8162 104.905C75.5415 104.637 75.5362 104.193 75.8044 103.918C76.0726 103.644 76.5165 103.638 76.7912 103.907C77.0659 104.175 77.0712 104.619 76.803 104.893C76.5348 105.168 76.0909 105.173 75.8162 104.905Z" fill="#434040"/>
<path d="M68.3066 108.531C68.6911 108.526 68.999 108.211 68.9944 107.826C68.9898 107.442 68.6744 107.134 68.2899 107.138C67.9054 107.143 67.5975 107.458 67.6021 107.843C67.6067 108.227 67.9221 108.535 68.3066 108.531Z" fill="#434040"/>
<path d="M59.7097 104.111C59.9779 103.836 60.4218 103.831 60.6965 104.099C60.9712 104.367 60.9765 104.811 60.7083 105.086C60.4401 105.36 59.9962 105.366 59.7215 105.098C59.4468 104.829 59.4415 104.386 59.7097 104.111Z" fill="#434040"/>
<path d="M56.7714 95.8929C57.1578 95.8883 57.4713 96.1975 57.4759 96.5808C57.4805 96.964 57.1713 97.2807 56.788 97.2853C56.4048 97.2899 56.0881 96.9806 56.0835 96.5974C56.0789 96.2142 56.3882 95.8975 56.7714 95.8929Z" fill="#434040"/>
<path d="M60.5038 88.0035C60.7785 88.2717 60.7838 88.7156 60.5157 88.9903C60.2475 89.265 59.8036 89.2703 59.5289 89.0021C59.2542 88.7339 59.2489 88.2901 59.5171 88.0154C59.7853 87.7407 60.2291 87.7354 60.5038 88.0035Z" fill="#434040"/>
<path d="M114.577 119.29C113.487 119.29 112.603 118.406 112.603 117.316V115.342H116.551V117.316C116.551 118.406 115.666 119.29 114.577 119.29Z" fill="#828483"/>
<path d="M132.245 119.29C131.156 119.29 130.271 118.406 130.271 117.316V115.342H134.219V117.316C134.219 118.406 133.335 119.29 132.245 119.29Z" fill="#828483"/>
<path d="M109.422 65.1906H136.597C139.238 65.1906 141.379 67.3343 141.379 69.9732V112.269C141.379 114.908 139.235 117.052 136.597 117.052H109.422C106.783 117.052 104.639 114.911 104.639 112.269V69.9732C104.639 67.3343 106.783 65.1906 109.422 65.1906Z" fill="#892E60"/>
<path d="M111.403 65.1906H134.616C137.257 65.1906 139.398 67.3343 139.398 69.9732V112.269C139.398 114.908 137.255 117.052 134.616 117.052H111.403C108.764 117.052 106.62 114.908 106.62 112.269V69.9732C106.62 67.3343 108.764 65.1906 111.403 65.1906Z" fill="url(#paint1_linear_762_10520)"/>
<path d="M132.361 65.2118C132.172 65.1976 131.984 65.1906 131.793 65.1906H113.66L108.238 117.052H131.793C131.984 117.052 137.597 117.045 137.783 117.031L132.361 65.2118Z" fill="#F9FBFC"/>
<path d="M131.201 65.2118C131.036 65.1976 130.87 65.1906 130.703 65.1906H114.817L110.068 117.052H130.703C130.87 117.052 135.788 117.045 135.953 117.031L131.201 65.2118Z" fill="#181923"/>
<path d="M123.01 85.7598C126.416 85.7598 129.177 82.9988 129.177 79.5929C129.177 76.1869 126.416 73.4259 123.01 73.4259C119.604 73.4259 116.843 76.1869 116.843 79.5929C116.843 82.9988 119.604 85.7598 123.01 85.7598Z" fill="#B3B3B3"/>
<path d="M123.01 84.357C125.641 84.357 127.774 82.2242 127.774 79.5932C127.774 76.9623 125.641 74.8295 123.01 74.8295C120.379 74.8295 118.247 76.9623 118.247 79.5932C118.247 82.2242 120.379 84.357 123.01 84.357Z" fill="#434040"/>
<path d="M123.01 81.5647C124.099 81.5647 124.981 80.682 124.981 79.5931C124.981 78.5043 124.099 77.6216 123.01 77.6216C121.921 77.6216 121.038 78.5043 121.038 79.5931C121.038 80.682 121.921 81.5647 123.01 81.5647Z" fill="black"/>
<path d="M123.01 74.4709C123.195 74.4709 123.345 74.321 123.345 74.136C123.345 73.9511 123.195 73.8011 123.01 73.8011C122.825 73.8011 122.675 73.9511 122.675 74.136C122.675 74.321 122.825 74.4709 123.01 74.4709Z" fill="#434040"/>
<path d="M127.104 75.9709C126.974 76.1006 126.762 76.1006 126.63 75.9709C126.5 75.8412 126.5 75.6289 126.63 75.4968C126.76 75.3648 126.972 75.3671 127.104 75.4968C127.236 75.6266 127.234 75.8388 127.104 75.9709Z" fill="#434040"/>
<path d="M128.467 79.9281C128.652 79.9281 128.802 79.7781 128.802 79.5932C128.802 79.4082 128.652 79.2583 128.467 79.2583C128.282 79.2583 128.133 79.4082 128.133 79.5932C128.133 79.7781 128.282 79.9281 128.467 79.9281Z" fill="#434040"/>
<path d="M126.633 83.6871C126.503 83.5574 126.503 83.3452 126.633 83.2131C126.762 83.0834 126.975 83.0834 127.107 83.2131C127.236 83.3428 127.236 83.5551 127.107 83.6871C126.977 83.8169 126.765 83.8169 126.633 83.6871Z" fill="#434040"/>
<path d="M123.01 85.3852C123.195 85.3852 123.345 85.2353 123.345 85.0503C123.345 84.8654 123.195 84.7155 123.01 84.7155C122.825 84.7155 122.675 84.8654 122.675 85.0503C122.675 85.2353 122.825 85.3852 123.01 85.3852Z" fill="#434040"/>
<path d="M118.914 83.2154C119.043 83.0857 119.256 83.0857 119.388 83.2154C119.517 83.3452 119.517 83.5574 119.388 83.6895C119.258 83.8192 119.046 83.8192 118.914 83.6895C118.784 83.5598 118.784 83.3475 118.914 83.2154Z" fill="#434040"/>
<path d="M117.553 79.2583C117.737 79.2583 117.888 79.4069 117.888 79.5932C117.888 79.7795 117.739 79.9281 117.553 79.9281C117.367 79.9281 117.218 79.7795 117.218 79.5932C117.218 79.4069 117.367 79.2583 117.553 79.2583Z" fill="#434040"/>
<path d="M119.388 75.4968C119.517 75.6265 119.517 75.8388 119.388 75.9708C119.258 76.1029 119.046 76.1005 118.914 75.9708C118.784 75.8411 118.784 75.6289 118.914 75.4968C119.043 75.3671 119.256 75.3671 119.388 75.4968Z" fill="#434040"/>
<path d="M132.38 104.188C133.232 99.0129 129.726 94.1273 124.551 93.2761C119.375 92.4249 114.49 95.9304 113.638 101.106C112.787 106.281 116.293 111.167 121.468 112.018C126.644 112.869 131.529 109.364 132.38 104.188Z" fill="#B3B3B3"/>
<path d="M128.198 107.835C131.064 104.969 131.064 100.322 128.198 97.4559C125.332 94.5898 120.685 94.5898 117.819 97.4559C114.953 100.322 114.953 104.969 117.819 107.835C120.685 110.701 125.332 110.701 128.198 107.835Z" fill="#434040"/>
<path d="M127.524 103.38C127.931 100.886 126.239 98.5349 123.745 98.1279C121.252 97.7209 118.9 99.4125 118.493 101.906C118.086 104.4 119.778 106.752 122.271 107.159C124.765 107.566 127.117 105.874 127.524 103.38Z" fill="black"/>
<path d="M125.297 104.933C126.561 103.669 126.561 101.621 125.297 100.357C124.034 99.0935 121.985 99.0935 120.721 100.357C119.458 101.621 119.458 103.669 120.721 104.933C121.985 106.197 124.033 106.197 125.297 104.933Z" fill="#434040"/>
<path d="M123.01 94.7544C123.294 94.7544 123.524 94.5242 123.524 94.2403C123.524 93.9564 123.294 93.7262 123.01 93.7262C122.726 93.7262 122.496 93.9564 122.496 94.2403C122.496 94.5242 122.726 94.7544 123.01 94.7544Z" fill="#434040"/>
<path d="M129.316 97.068C129.116 97.2685 128.788 97.2685 128.588 97.068C128.387 96.8676 128.387 96.5398 128.588 96.3393C128.788 96.1389 129.116 96.1389 129.316 96.3393C129.517 96.5398 129.517 96.8676 129.316 97.068Z" fill="#434040"/>
<path d="M131.415 103.162C131.13 103.162 130.901 102.931 130.901 102.648C130.901 102.365 131.132 102.134 131.415 102.134C131.698 102.134 131.929 102.365 131.929 102.648C131.929 102.931 131.698 103.162 131.415 103.162Z" fill="#434040"/>
<path d="M128.588 108.954C128.387 108.754 128.387 108.426 128.588 108.225C128.788 108.025 129.116 108.025 129.316 108.225C129.517 108.426 129.517 108.754 129.316 108.954C129.116 109.154 128.788 109.154 128.588 108.954Z" fill="#434040"/>
<path d="M123.01 111.564C123.294 111.564 123.524 111.334 123.524 111.05C123.524 110.766 123.294 110.536 123.01 110.536C122.726 110.536 122.496 110.766 122.496 111.05C122.496 111.334 122.726 111.564 123.01 111.564Z" fill="#434040"/>
<path d="M116.701 108.225C116.902 108.025 117.229 108.025 117.43 108.225C117.63 108.426 117.63 108.754 117.43 108.954C117.229 109.154 116.902 109.154 116.701 108.954C116.501 108.754 116.501 108.426 116.701 108.225Z" fill="#434040"/>
<path d="M114.605 102.131C114.891 102.131 115.119 102.362 115.119 102.645C115.119 102.928 114.888 103.159 114.605 103.159C114.322 103.159 114.091 102.928 114.091 102.645C114.091 102.362 114.322 102.131 114.605 102.131Z" fill="#434040"/>
<path d="M117.43 96.3393C117.63 96.5398 117.63 96.8676 117.43 97.068C117.229 97.2685 116.902 97.2685 116.701 97.068C116.501 96.8676 116.501 96.5398 116.701 96.3393C116.902 96.1389 117.229 96.1389 117.43 96.3393Z" fill="#434040"/>
<path d="M27.6879 42.4617C27.6879 42.4617 24.3436 41.3703 24.8435 38.3529C25.3402 35.3287 28.9953 35.5114 30.4862 36.7472C31.9771 37.983 33.3606 40.2213 31.2723 43.0089C29.184 45.7965 24.8145 46.698 22.2738 43.9919C19.733 41.2859 19.6592 39.0293 21.0612 35.8893C22.4907 32.6867 23.811 28.3776 23.193 26.9256C22.8072 26.0168 21.8676 24.9079 21.2284 24.2105C21.0827 24.0481 20.8591 23.9807 20.6475 24.0398C20.4393 24.0891 20.2735 24.2589 20.2245 24.4642C19.9127 25.7954 19.8384 28.4617 22.5148 31.972C26.4171 37.0922 28.887 38.5496 32.0319 43.3926C35.1769 48.2356 32.1781 49.6854 32.1781 49.6854C32.1781 49.6854 29.1334 51.6864 27.6898 48.7817C26.3905 46.1725 29.2951 45.4128 30.2885 46.1901C31.4578 47.1071 31.2266 48.4166 30.2805 48.9075C30.2805 48.9075 31.9274 48.6628 32.2043 47.4639C32.3799 46.6689 33.1477 45.9318 28.2568 39.908C23.3591 33.8874 19.8949 30.1226 19.2492 27.1366C18.92 25.6136 19.1468 24.3971 19.4502 23.558C19.5708 23.2277 19.8514 22.9702 20.194 22.8736C20.5366 22.777 20.9075 22.8573 21.1898 23.0789C22.4719 24.1078 24.5143 26.0992 25.1433 28.7622C25.8235 31.6491 22.9299 36.2176 22.6336 37.6655C22.4218 38.7259 21.9631 41.3183 25.6526 42.7091C29.3422 44.0998 31.2406 40.8895 30.5898 39.0476C29.939 37.2058 27.8718 36.9635 27.0158 37.4861C26.1598 38.0087 25.0283 39.5971 27.6912 42.4684L27.6879 42.4617Z" fill="white"/>
<path d="M152.406 59.8651C151.887 60.6879 150.598 60.7948 149.532 60.107C148.461 59.4179 148.02 58.1931 148.538 57.3703C149.057 56.5475 150.346 56.4405 151.413 57.1283C152.483 57.8174 152.925 59.0423 152.406 59.8651Z" fill="white"/>
<path d="M156.45 50.9418L151.267 59.1472L152.391 59.8731L157.574 51.6676L156.45 50.9418Z" fill="white"/>
<path d="M185.935 99.6069C186.172 100.558 185.37 101.582 184.149 101.893C182.924 102.206 181.744 101.685 181.508 100.734C181.271 99.7835 182.073 98.7593 183.294 98.4483C184.519 98.1353 185.698 98.6561 185.935 99.6069Z" fill="white"/>
<path d="M182.29 90.4615L184.643 99.9504L185.931 99.623L183.577 90.134L182.29 90.4615Z" fill="white"/>
<path d="M45.6575 33.172C46.0803 34.0497 45.4885 35.1985 44.3407 35.7355C43.1899 36.2751 41.9179 35.9965 41.4951 35.1188C41.0722 34.2412 41.6641 33.0923 42.8118 32.5553C43.9627 32.0158 45.2347 32.2943 45.6575 33.172Z" fill="white"/>
<path d="M40.2339 24.9933L44.4456 33.7542L45.6562 33.1883L41.4446 24.4275L40.2339 24.9933Z" fill="white"/>
<path d="M163.09 105.942C163.841 106.644 163.701 108.005 162.772 108.982C161.843 109.959 160.484 110.18 159.732 109.477C158.981 108.775 159.122 107.415 160.051 106.437C160.98 105.46 162.339 105.24 163.09 105.942Z" fill="white"/>
<path d="M154.62 99.9845L162.118 106.988L163.093 105.961L155.595 98.9574L154.62 99.9845Z" fill="white"/>
<path d="M161.366 103.377C161.514 102.676 161.521 101.885 161.203 101.313C161.044 101.033 160.794 100.842 160.509 100.723L160.283 100.653C160.209 100.631 160.119 100.631 160.04 100.617C159.955 100.609 159.881 100.587 159.795 100.592L159.538 100.599C159.379 100.598 159.177 100.616 158.984 100.626C158.79 100.641 158.594 100.648 158.394 100.653C158.001 100.666 157.602 100.662 157.202 100.641C156.802 100.617 156.398 100.571 155.986 100.488C155.78 100.449 155.572 100.393 155.361 100.329C155.256 100.295 155.147 100.256 155.04 100.21C154.986 100.186 154.929 100.158 154.872 100.131C154.804 100.093 154.769 100.081 154.658 100.001L155.555 98.9066C155.518 98.8815 155.565 98.9201 155.58 98.9301C155.607 98.9458 155.632 98.9653 155.663 98.9815C155.723 99.0177 155.791 99.0511 155.863 99.0889C156.008 99.1567 156.162 99.2175 156.326 99.2715C156.649 99.379 156.999 99.4657 157.352 99.5327C157.709 99.5962 158.068 99.6478 158.438 99.6806C158.623 99.697 158.808 99.7134 158.99 99.7213C159.176 99.7337 159.354 99.7411 159.575 99.7623L159.888 99.7956C159.992 99.8054 160.101 99.8441 160.204 99.8657C160.309 99.8959 160.413 99.9136 160.517 99.9557L160.818 100.097C161.211 100.315 161.54 100.662 161.703 101.067C161.873 101.47 161.895 101.893 161.867 102.29C161.834 102.69 161.755 103.072 161.617 103.446L161.363 103.368L161.366 103.377Z" fill="white"/>
<path d="M8.57762 11.196C8.42167 12.2219 7.22664 12.8956 5.90531 12.6977C4.58398 12.4997 3.64305 11.5088 3.79901 10.4829C3.95496 9.45706 5.14999 8.78338 6.47132 8.98132C7.79265 9.17925 8.73358 10.1702 8.57762 11.196Z" fill="white"/>
<path d="M8.7293 0.766044L7.17603 11.0023L8.5643 11.2096L10.1176 0.973308L8.7293 0.766044Z" fill="white"/>
<path d="M9.71856 8.2883C10.3762 8.00423 11.0297 7.55036 11.3213 6.95693C11.4617 6.66297 11.4786 6.34662 11.4167 6.04361L11.348 5.81654C11.3245 5.74266 11.2742 5.66903 11.2417 5.59523C11.2003 5.52152 11.1768 5.44764 11.1247 5.37944L10.9755 5.17115C10.8874 5.04003 10.7598 4.88396 10.643 4.73141C10.5226 4.58069 10.4076 4.4227 10.2907 4.26111C10.0606 3.94513 9.84125 3.61459 9.63435 3.27311C9.43102 2.92979 9.24196 2.57009 9.07965 2.18304C8.99671 1.99044 8.92626 1.78688 8.86115 1.57605C8.83039 1.46972 8.80139 1.35794 8.77954 1.24249C8.76862 1.18477 8.75947 1.12161 8.75031 1.05845C8.7429 0.980815 8.73384 0.944755 8.73697 0.807403L10.1367 0.910687C10.1366 0.865516 10.1314 0.926998 10.1315 0.945066C10.1334 0.975766 10.1317 1.00831 10.1354 1.04261C10.1392 1.11304 10.1502 1.18883 10.1594 1.27006C10.1849 1.42884 10.2213 1.59115 10.2683 1.75696C10.3606 2.085 10.4852 2.42359 10.6277 2.75299C10.7755 3.08416 10.934 3.40981 11.114 3.73346C11.204 3.89528 11.294 4.0571 11.3893 4.21166C11.4829 4.37164 11.5765 4.5226 11.6827 4.71681L11.8303 4.99376C11.8807 5.08547 11.9097 5.19724 11.9494 5.29446C11.9837 5.39895 12.027 5.49434 12.0506 5.60436L12.1036 5.93454C12.1444 6.3841 12.0439 6.85658 11.8017 7.22552C11.5667 7.59982 11.2311 7.86297 10.89 8.07016C10.5435 8.27559 10.1861 8.43233 9.80167 8.53511L9.7239 8.28102L9.71856 8.2883Z" fill="white"/>
<path d="M31.4968 80.0734C31.8623 81.0365 31.1379 82.1944 29.8745 82.6584C28.6111 83.1225 27.2946 82.7171 26.9291 81.7539C26.5636 80.7908 27.288 79.6329 28.5514 79.1689C29.8148 78.7048 31.1313 79.1102 31.4968 80.0734Z" fill="white"/>
<path d="M26.5149 70.971L30.1643 80.5798L31.4913 80.0917L27.842 70.4829L26.5149 70.971Z" fill="white"/>
<path d="M31.0773 77.0081C31.5185 76.4459 31.8727 75.7387 31.839 75.0848C31.8188 74.7627 31.6785 74.4808 31.4753 74.2482L31.3033 74.0846C31.2463 74.032 31.1658 73.9924 31.1009 73.9442C31.0282 73.9002 30.9712 73.8476 30.8918 73.8136L30.6579 73.705C30.5159 73.6339 30.3267 73.5601 30.1488 73.4842C29.9686 73.4116 29.7896 73.3302 29.6072 73.2465C29.2491 73.0835 28.8934 72.9029 28.5433 72.7068C28.1954 72.5073 27.8521 72.2868 27.519 72.0298C27.3513 71.9029 27.1893 71.7606 27.0285 71.6094C26.9492 71.5321 26.8687 71.4493 26.7928 71.3598C26.7549 71.3151 26.7158 71.2648 26.6768 71.2146C26.6322 71.1509 26.6065 71.124 26.5419 71.0036L27.828 70.4199C27.8058 70.3809 27.8314 70.4366 27.8403 70.4522C27.857 70.4779 27.8715 70.5069 27.8915 70.5348C27.9295 70.5939 27.9763 70.6543 28.0243 70.7202C28.1247 70.8453 28.2364 70.9684 28.3593 71.0893C28.6016 71.3289 28.8777 71.5621 29.1649 71.7788C29.4578 71.9944 29.7575 72.2001 30.0751 72.3938C30.2339 72.4906 30.3927 72.5874 30.5527 72.6753C30.7137 72.7689 30.8703 72.8546 31.0593 72.9716L31.3255 73.1404C31.4149 73.1955 31.4953 73.2784 31.5781 73.3435C31.6596 73.4174 31.7446 73.4792 31.8194 73.5631L32.0281 73.8235C32.2846 74.193 32.4276 74.6504 32.3948 75.0862C32.3709 75.5233 32.2038 75.9125 32.0043 76.2559C31.7992 76.6004 31.5606 76.9079 31.2717 77.1818L31.0784 76.9992L31.0773 77.0081Z" fill="white"/>
<path d="M160.934 80.8553C160.347 81.5953 159.103 81.5696 158.151 80.7987C157.203 80.0299 156.907 78.8054 157.497 78.0675C158.084 77.3275 159.329 77.3532 160.28 78.1241C161.228 78.8929 161.525 80.1174 160.934 80.8553Z" fill="white"/>
<path d="M165.777 72.6763L159.925 80.042L160.922 80.8519L166.774 73.4861L165.777 72.6763Z" fill="white"/>
<path d="M166.038 85.0402C165.451 85.7803 164.207 85.7545 163.255 84.9836C162.307 84.2148 162.01 82.9903 162.601 82.2525C163.191 81.5146 164.432 81.5381 165.384 82.3091C166.332 83.0778 166.628 84.3024 166.038 85.0402Z" fill="white"/>
<path d="M170.881 76.8562L165.029 84.2219L166.027 85.0318L171.879 77.6661L170.881 76.8562Z" fill="white"/>
<path d="M166.276 73.0765L165.233 74.3882L170.357 78.5489L171.399 77.2372L166.276 73.0765Z" fill="white"/>
<path d="M164.798 74.9416L164.156 75.7488L169.28 79.9095L169.921 79.1023L164.798 74.9416Z" fill="white"/>
<path d="M12.2875 65.22C12.4379 66.1477 11.5778 67.0657 10.3647 67.2734C9.15543 67.4801 8.04938 66.8977 7.90289 65.9689C7.75253 65.0412 8.61261 64.1233 9.82574 63.9155C11.035 63.7089 12.141 64.2912 12.2875 65.22Z" fill="white"/>
<path d="M9.51314 56.2038L11.0042 65.444L12.2771 65.2273L10.7861 55.9872L9.51314 56.2038Z" fill="white"/>
<path d="M18.8322 64.1381C18.9826 65.0658 18.1225 65.9838 16.9093 66.1915C15.7001 66.3982 14.5941 65.8158 14.4476 64.887C14.3011 63.9582 15.1573 63.0414 16.3704 62.8336C17.5797 62.627 18.6857 63.2093 18.8322 64.1381Z" fill="white"/>
<path d="M16.0544 55.1176L17.5454 64.3578L18.8184 64.1412L17.3273 54.901L16.0544 55.1176Z" fill="white"/>
<path d="M10.1461 56.0925L10.4116 57.738L16.9514 56.6251L16.6859 54.9796L10.1461 56.0925Z" fill="white"/>
<path d="M10.5265 58.4294L10.6899 59.442L17.2297 58.3291L17.0663 57.3164L10.5265 58.4294Z" fill="white"/>
<path d="M212.503 110.457C212.654 111.383 211.792 112.296 210.576 112.499C209.364 112.7 208.255 112.116 208.107 111.189C207.956 110.263 208.818 109.35 210.035 109.147C211.247 108.945 212.356 109.53 212.503 110.457Z" fill="white"/>
<path d="M209.718 101.453L211.216 110.675L212.492 110.464L210.994 101.242L209.718 101.453Z" fill="white"/>
<path d="M219.064 109.401C219.215 110.327 218.353 111.24 217.137 111.442C215.924 111.644 214.815 111.059 214.668 110.132C214.521 109.205 215.379 108.294 216.595 108.091C217.808 107.889 218.917 108.474 219.064 109.401Z" fill="white"/>
<path d="M216.276 100.394L217.773 109.616L219.05 109.404L217.552 100.182L216.276 100.394Z" fill="white"/>
<path d="M210.353 101.345L210.62 102.987L217.176 101.9L216.909 100.258L210.353 101.345Z" fill="white"/>
<path d="M210.735 103.677L210.899 104.688L217.455 103.601L217.291 102.59L210.735 103.677Z" fill="white"/>
<defs>
<linearGradient id="paint0_linear_762_10520" x1="67.5535" y1="45.7337" x2="68.3938" y2="115.962" gradientUnits="userSpaceOnUse">
<stop offset="0.229167" stop-color="#FCC34B"/>
<stop offset="1" stop-color="#E93C83"/>
</linearGradient>
<linearGradient id="paint1_linear_762_10520" x1="123.009" y1="65.1906" x2="123.009" y2="117.052" gradientUnits="userSpaceOnUse">
<stop offset="0.229167" stop-color="#FCC34B"/>
<stop offset="1" stop-color="#E93C83"/>
</linearGradient>
</defs>
</svg>
