<svg width="130" height="81" viewBox="0 0 130 81" fill="none" xmlns="http://www.w3.org/2000/svg">
<path d="M27.1073 78.4751C26.9592 78.222 23.4926 72.184 26.8271 66.3398C28.8486 62.793 27.0393 60.5866 22.9922 57.7554C16.9637 53.5324 14.8661 40.5628 13.6131 32.8127C13.5291 32.2947 13.449 31.8044 13.3729 31.3457C11.6957 21.2074 15.4705 16.4387 19.1413 12.7653C25.6502 6.24887 47.3186 0.946381 67.4419 0.946381C76.5407 0.946381 84.6469 1.99423 91.5321 4.06224C99.1779 6.35563 105.587 11.7253 109.117 18.7914C113.293 27.1583 116.127 38.305 117.536 51.9231C117.788 54.3628 116.979 56.8064 115.314 58.6253C113.641 60.4561 111.251 61.5079 108.761 61.5079C108.501 61.5079 108.241 61.496 107.981 61.4762C99.386 60.7368 86.5883 59.855 74.4071 59.855C62.2259 59.855 53.0189 60.9503 47.4908 62.5557C28.8326 67.9689 28.7286 80.5549 28.7125 80.9424L27.1033 78.4711L27.1073 78.4751Z" fill="#5E4545"/>
<path d="M14.7179 31.1283C13.1928 21.9112 16.2831 17.5419 20.11 13.7064C28.3002 5.50947 66.1448 -2.14969 91.1357 5.34735C98.4573 7.54584 104.51 12.6071 107.892 19.3845C111.143 25.897 114.533 36.1777 116.175 52.0615C116.651 56.6601 112.752 60.5391 108.093 60.1397C92.3407 58.7835 60.7087 56.8064 47.0584 61.2825C28.5084 67.3639 28.2802 77.8029 28.2802 77.8029C28.2802 77.8029 25.0177 72.2473 28.008 67.0041C30.9982 61.7609 26.9752 58.8982 23.7768 56.6601C17.8243 52.4925 15.8708 38.1113 14.7139 31.1322L14.7179 31.1283Z" fill="#FFFDFD"/>
<path d="M21.0231 7.65652C21.0231 7.65652 8.15733 10.4205 9.97471 25.6162C9.97471 25.6162 10.8153 12.9076 21.0231 7.65652Z" fill="#5E4545"/>
<path d="M120.162 48.0796C120.162 48.0796 121.903 62.2275 111.279 63.8171C111.279 63.8171 123.717 63.8527 120.162 48.0796Z" fill="#5E4545"/>
<path d="M42.174 30.0796V24.2588C42.174 23.7637 42.0619 23.3977 41.8376 23.1607C41.6175 22.9237 41.2853 22.7735 40.841 22.71C40.7394 22.6888 40.6083 22.6719 40.4474 22.6592C40.2909 22.6465 40.111 22.6402 39.9079 22.6402C39.6413 22.6402 39.2901 22.6529 38.8542 22.6783C38.4225 22.7036 37.8872 22.7438 37.2482 22.7989V21.9102C37.4471 21.889 37.6418 21.8721 37.8322 21.8594C38.0226 21.8467 38.2067 21.834 38.3845 21.8213C38.723 21.8002 39.0256 21.7853 39.2922 21.7769C39.563 21.7642 39.8 21.7578 40.0031 21.7578C40.4813 21.7578 40.8685 21.779 41.1647 21.8213C41.4652 21.8636 41.7466 21.9398 42.009 22.0498C42.2713 22.1599 42.4893 22.2995 42.6628 22.4688C42.8363 22.6381 42.9738 22.856 43.0754 23.1226C43.1389 23.2919 43.1833 23.4675 43.2087 23.6494C43.2383 23.8314 43.2531 24.0345 43.2531 24.2588V30.0796H42.174ZM37.2482 30.0796V25.0078H38.3146V30.0796H37.2482ZM45.0432 30.0796V29.21H47.7092C47.7599 28.9772 47.7959 28.7487 47.8171 28.5244C47.8425 28.3002 47.8552 28.078 47.8552 27.8579V23.8335C47.8552 23.6304 47.8298 23.4484 47.779 23.2876C47.7282 23.1226 47.652 22.9872 47.5505 22.8814C47.4701 22.8094 47.377 22.7523 47.2712 22.71C47.1696 22.6677 47.0511 22.6465 46.9157 22.6465C46.7464 22.6465 46.5729 22.6571 46.3952 22.6783C46.2175 22.6952 46.0334 22.7206 45.843 22.7544V21.8531C46.0038 21.8192 46.1773 21.7959 46.3635 21.7832C46.5539 21.7663 46.7591 21.7578 46.9792 21.7578C47.2246 21.7578 47.4383 21.7811 47.6203 21.8277C47.8023 21.8742 47.961 21.9398 48.0964 22.0244C48.2233 22.1048 48.3334 22.2043 48.4265 22.3228C48.5238 22.4413 48.6042 22.5682 48.6677 22.7036C48.7523 22.8518 48.8158 23.021 48.8581 23.2115C48.9046 23.4019 48.9279 23.6092 48.9279 23.8335V27.8579C48.9279 28.0695 48.9173 28.2959 48.8962 28.5371C48.875 28.7741 48.8496 29.0026 48.82 29.2227C48.7904 29.4385 48.7608 29.6162 48.7311 29.7559L48.674 30.0796H45.0432ZM51.0099 30.0796V21.9102C51.065 21.9017 51.1517 21.8933 51.2702 21.8848C51.3887 21.8763 51.5389 21.8636 51.7209 21.8467C52.1144 21.8171 52.4805 21.7959 52.819 21.7832C53.1576 21.7663 53.4665 21.7578 53.7458 21.7578C54.2324 21.7578 54.626 21.779 54.9265 21.8213C55.2269 21.8636 55.5083 21.9377 55.7707 22.0435C56.0331 22.1535 56.251 22.2932 56.4245 22.4624C56.598 22.6275 56.7355 22.8454 56.8371 23.1162C56.9006 23.2813 56.945 23.4569 56.9704 23.6431C57 23.8251 57.0148 24.0303 57.0148 24.2588V30.0796H55.9357V24.2588C55.9357 23.751 55.8194 23.3765 55.5866 23.1353C55.3539 22.8941 55.0069 22.7438 54.5456 22.6846C54.4483 22.6719 54.3255 22.6613 54.1774 22.6529C54.0335 22.6444 53.8664 22.6402 53.676 22.6402C53.4813 22.6402 53.2507 22.6465 52.9841 22.6592C52.7175 22.6719 52.4149 22.6909 52.0764 22.7163V30.0796H51.0099ZM58.9128 30.105C58.8281 30.105 58.7372 30.0965 58.6398 30.0796C58.5425 30.0627 58.4346 30.0373 58.3161 30.0034V29.1783C58.4769 29.2036 58.6483 29.2163 58.8303 29.2163C59.1349 29.2163 59.3656 29.1169 59.5222 28.918C59.6787 28.7191 59.757 28.4123 59.757 27.9976V22.7354C59.6047 22.7438 59.4523 22.7544 59.3 22.7671C59.1476 22.7798 58.9953 22.7904 58.843 22.7989V21.9102C59.2704 21.8763 59.666 21.8488 60.03 21.8277C60.3939 21.8023 60.7282 21.7853 61.0329 21.7769C61.3376 21.7642 61.6127 21.7578 61.8581 21.7578C62.2474 21.7578 62.5733 21.7684 62.8356 21.7896C63.098 21.8107 63.3244 21.8467 63.5148 21.8975C63.7095 21.9483 63.8957 22.0139 64.0734 22.0943C64.3189 22.2085 64.5199 22.3482 64.6765 22.5132C64.8373 22.6783 64.9663 22.892 65.0637 23.1543C65.1187 23.3024 65.1589 23.4675 65.1843 23.6494C65.2097 23.8272 65.2224 24.0218 65.2224 24.2334V30.0796H64.1559V24.2588C64.1559 23.7552 64.0396 23.385 63.8068 23.148C63.5741 22.9068 63.2292 22.7544 62.7722 22.6909C62.5775 22.6571 62.3151 22.6402 61.985 22.6402C61.8285 22.6402 61.6529 22.6444 61.4582 22.6529C61.2678 22.6571 61.0583 22.6656 60.8298 22.6783V27.9976C60.8298 28.2303 60.8128 28.444 60.779 28.6387C60.7494 28.8334 60.6965 29.0111 60.6203 29.1719C60.5103 29.4173 60.3622 29.612 60.176 29.7559C60.0236 29.8744 59.8417 29.9632 59.6301 30.0225C59.4227 30.0775 59.1836 30.105 58.9128 30.105ZM70.8019 30.0796V21.8848H71.8683V30.0796H70.8019ZM77.3908 30.0796V24.2588C77.3908 23.7595 77.2766 23.3913 77.048 23.1543C76.8195 22.9131 76.4789 22.7608 76.0261 22.6973C75.9245 22.6761 75.8124 22.6613 75.6896 22.6529C75.5711 22.6444 75.4442 22.6402 75.3088 22.6402C75.1437 22.6402 74.9385 22.6444 74.6931 22.6529C74.4476 22.6571 74.1979 22.6677 73.944 22.6846C73.6901 22.6973 73.4658 22.71 73.2712 22.7227V21.834C73.6478 21.8086 73.9927 21.7896 74.3058 21.7769C74.619 21.7642 74.9046 21.7578 75.1628 21.7578C75.6706 21.7578 76.0747 21.779 76.3752 21.8213C76.6756 21.8636 76.9571 21.9398 77.2194 22.0498C77.4818 22.1599 77.6997 22.2995 77.8732 22.4688C78.0467 22.6338 78.1864 22.8518 78.2922 23.1226C78.3514 23.2919 78.3937 23.4675 78.4191 23.6494C78.4488 23.8314 78.4636 24.0345 78.4636 24.2588V30.0796H77.3908ZM80.6027 30.0796V21.9102C80.6577 21.9017 80.7445 21.8933 80.863 21.8848C80.9815 21.8763 81.1317 21.8636 81.3137 21.8467C81.7072 21.8171 82.0733 21.7959 82.4118 21.7832C82.7503 21.7663 83.0593 21.7578 83.3386 21.7578C83.8252 21.7578 84.2188 21.779 84.5192 21.8213C84.8197 21.8636 85.1011 21.9377 85.3635 22.0435C85.6258 22.1535 85.8438 22.2932 86.0173 22.4624C86.1908 22.6275 86.3283 22.8454 86.4299 23.1162C86.4933 23.2813 86.5378 23.4569 86.5632 23.6431C86.5928 23.8251 86.6076 24.0303 86.6076 24.2588V30.0796H85.5285V24.2588C85.5285 23.751 85.4121 23.3765 85.1794 23.1353C84.9466 22.8941 84.5996 22.7438 84.1384 22.6846C84.041 22.6719 83.9183 22.6613 83.7702 22.6529C83.6263 22.6444 83.4592 22.6402 83.2687 22.6402C83.0741 22.6402 82.8434 22.6465 82.5768 22.6592C82.3102 22.6719 82.0077 22.6909 81.6691 22.7163V30.0796H80.6027ZM88.1818 30.0796V29.21H92.1682V24.2588C92.1682 23.7595 92.0539 23.3913 91.8254 23.1543C91.5969 22.9173 91.2604 22.7671 90.8161 22.7036C90.7103 22.6825 90.5897 22.6677 90.4543 22.6592C90.3189 22.6465 90.1644 22.6402 89.9909 22.6402C89.792 22.6402 89.5445 22.6486 89.2482 22.6656C88.952 22.6783 88.5944 22.6994 88.1755 22.729V21.8467C88.4886 21.8171 88.7975 21.7959 89.1022 21.7832C89.4112 21.7663 89.718 21.7578 90.0226 21.7578C90.4458 21.7578 90.7992 21.7769 91.0827 21.815C91.3705 21.8488 91.6434 21.9123 91.9016 22.0054C92.1639 22.1027 92.3819 22.2276 92.5554 22.3799C92.7289 22.5323 92.8685 22.7269 92.9743 22.9639C93.042 23.0782 93.0949 23.2009 93.133 23.3321C93.1711 23.4632 93.1986 23.6029 93.2155 23.751C93.2324 23.8991 93.2409 24.0599 93.2409 24.2334V29.21H94.1804V30.0796H88.1818ZM26.9587 45.5025H26.2668L25.9748 38.7993H27.2507L26.9587 45.5025ZM25.8478 47.4195C25.8478 47.1232 25.9198 46.9138 26.0637 46.791C26.2075 46.6641 26.3874 46.6006 26.6032 46.6006C26.8148 46.6006 26.9925 46.6641 27.1364 46.791C27.2845 46.9138 27.3586 47.1232 27.3586 47.4195C27.3586 47.7115 27.2845 47.9252 27.1364 48.0606C26.9925 48.1918 26.8148 48.2574 26.6032 48.2574C26.3874 48.2574 26.2075 48.1918 26.0637 48.0606C25.9198 47.9252 25.8478 47.7115 25.8478 47.4195ZM32.6271 51.2027V43.5093C32.6271 43.1158 32.5933 42.7624 32.5256 42.4492C32.4621 42.1319 32.3584 41.8505 32.2145 41.605C32.1426 41.4738 32.058 41.3575 31.9606 41.2559C31.8633 41.1501 31.7575 41.0591 31.6432 40.9829C31.3089 40.7544 30.8752 40.6402 30.342 40.6402C30.1473 40.6402 29.9632 40.6507 29.7897 40.6719C29.6162 40.6888 29.4491 40.7142 29.2883 40.7481C29.1909 40.765 29.0661 40.7946 28.9138 40.8369C28.7614 40.8793 28.6408 40.911 28.5519 40.9322V40.0181C28.6577 39.9842 28.7805 39.9525 28.9201 39.9229C29.0598 39.8933 29.2163 39.8658 29.3898 39.8404C29.5676 39.815 29.7538 39.7959 29.9484 39.7832C30.1431 39.7705 30.3462 39.7642 30.5578 39.7642C30.9894 39.7642 31.3957 39.8382 31.7766 39.9864C32.1574 40.1302 32.4663 40.3186 32.7033 40.5513C32.826 40.674 32.9361 40.8073 33.0334 40.9512C33.1307 41.0909 33.2175 41.2432 33.2936 41.4082C33.4333 41.7045 33.537 42.0282 33.6047 42.3794C33.6766 42.7307 33.7126 43.1073 33.7126 43.5093V51.2027H32.6271ZM39.1462 48.0796V42.2588C39.1462 41.7595 39.0319 41.3913 38.8034 41.1543C38.5749 40.9131 38.2342 40.7608 37.7814 40.6973C37.6799 40.6761 37.5677 40.6613 37.445 40.6529C37.3265 40.6444 37.1996 40.6402 37.0641 40.6402C36.8991 40.6402 36.6939 40.6444 36.4484 40.6529C36.203 40.6571 35.9533 40.6677 35.6994 40.6846C35.4455 40.6973 35.2212 40.71 35.0266 40.7227V39.834C35.4032 39.8086 35.7481 39.7896 36.0612 39.7769C36.3744 39.7642 36.66 39.7578 36.9182 39.7578C37.426 39.7578 37.8301 39.779 38.1306 39.8213C38.431 39.8636 38.7124 39.9398 38.9748 40.0498C39.2372 40.1599 39.4551 40.2995 39.6286 40.4688C39.8021 40.6338 39.9418 40.8518 40.0475 41.1226C40.1068 41.2919 40.1491 41.4675 40.1745 41.6494C40.2041 41.8314 40.2189 42.0345 40.2189 42.2588V48.0796H39.1462ZM45.1701 48.0796V42.3985C45.1701 42.17 45.1976 41.9605 45.2526 41.7701C45.3076 41.5754 45.3753 41.4188 45.4557 41.3003C45.5446 41.1649 45.6293 41.057 45.7097 40.9766C45.7901 40.892 45.8853 40.8179 45.9953 40.7544H41.5266V39.8848H47.5314V40.6656C47.3198 40.7417 47.1252 40.8327 46.9474 40.9385C46.7697 41.0443 46.628 41.1776 46.5222 41.3384C46.336 41.6008 46.2429 41.9584 46.2429 42.4112V48.0796H45.1701ZM50.737 48.0796L51.34 44.9439L52.5461 40.7671H48.1535V38.1455H49.2199V39.8531H53.5998V40.7608L52.4128 44.8994L51.8098 48.0796H50.737ZM58.2018 48.0796V45.1978C58.2018 44.9354 58.2145 44.6942 58.2399 44.4742C58.2696 44.2499 58.3182 44.0383 58.3859 43.8394C58.4579 43.6405 58.5637 43.4458 58.7033 43.2554C58.8218 43.0777 58.9763 42.9274 59.1667 42.8047C59.3613 42.682 59.5941 42.5889 59.8649 42.5254L58.2463 39.8848H59.4142L62.2707 44.6075C62.3299 44.5863 62.3849 44.563 62.4357 44.5376C62.4865 44.5122 62.5331 44.4826 62.5754 44.4488C62.8124 44.3049 62.9795 44.1145 63.0768 43.8775C63.1784 43.6405 63.2292 43.3083 63.2292 42.8809V39.8848H64.2766V42.8809C64.2766 43.2406 64.249 43.558 64.194 43.833C64.139 44.1039 64.0502 44.3451 63.9274 44.5567C63.8259 44.7344 63.6756 44.9016 63.4767 45.0581C63.2779 45.2105 63.0409 45.3247 62.7658 45.4009L64.4035 48.0796H63.2292L60.36 43.3252C60.2077 43.3337 60.0363 43.3951 59.8459 43.5093C59.6597 43.6236 59.5158 43.8119 59.4142 44.0742C59.3085 44.3535 59.2556 44.7281 59.2556 45.1978V48.0796H58.2018ZM65.654 48.0796V47.21H69.5705L70.3766 47.2227L68.4279 44.3916L65.6286 39.8848H66.7902L69.0373 43.5982L69.3864 44.1377C69.725 43.7992 69.9916 43.4162 70.1862 42.9888C70.3851 42.5572 70.5099 42.0811 70.5607 41.5606L70.7194 39.8848H71.7287L71.5764 41.5034C71.5594 41.6727 71.5383 41.8356 71.5129 41.9922C71.4875 42.1488 71.4557 42.3011 71.4177 42.4492C71.3796 42.5931 71.3351 42.7349 71.2844 42.8745C71.2293 43.0438 71.1616 43.2067 71.0812 43.3633C71.0051 43.5199 70.9204 43.6765 70.8273 43.833C70.7046 44.0362 70.5692 44.2308 70.4211 44.417C70.273 44.599 70.1122 44.7683 69.9387 44.9248L71.6843 47.4449V48.0796H65.654ZM73.1188 48.0796V47.21H75.7849C75.8356 46.9772 75.8716 46.7487 75.8928 46.5244C75.9182 46.3002 75.9308 46.078 75.9308 45.8579V41.8335C75.9308 41.6304 75.9055 41.4484 75.8547 41.2876C75.8039 41.1226 75.7277 40.9872 75.6262 40.8814C75.5458 40.8094 75.4527 40.7523 75.3469 40.71C75.2453 40.6677 75.1268 40.6465 74.9914 40.6465C74.8221 40.6465 74.6486 40.6571 74.4709 40.6783C74.2932 40.6952 74.1091 40.7206 73.9186 40.7544V39.8531C74.0794 39.8192 74.253 39.7959 74.4391 39.7832C74.6296 39.7663 74.8348 39.7578 75.0549 39.7578C75.3003 39.7578 75.514 39.7811 75.696 39.8277C75.878 39.8742 76.0366 39.9398 76.1721 40.0244C76.299 40.1048 76.409 40.2043 76.5021 40.3228C76.5995 40.4413 76.6799 40.5682 76.7433 40.7036C76.828 40.8518 76.8915 41.021 76.9338 41.2115C76.9803 41.4019 77.0036 41.6092 77.0036 41.8335V45.8579C77.0036 46.0695 76.993 46.2959 76.9719 46.5371C76.9507 46.7741 76.9253 47.0026 76.8957 47.2227C76.8661 47.4385 76.8364 47.6162 76.8068 47.7559L76.7497 48.0796H73.1188ZM82.4626 48.0796V39.8848H83.529V48.0796H82.4626ZM85.3698 48.0796V45.1978C85.3698 44.9354 85.3825 44.6942 85.4079 44.4742C85.4375 44.2499 85.4862 44.0383 85.5539 43.8394C85.6258 43.6405 85.7316 43.4458 85.8713 43.2554C85.9898 43.0777 86.1442 42.9274 86.3347 42.8047C86.5293 42.682 86.7621 42.5889 87.0329 42.5254L85.4142 39.8848H86.5822L89.4387 44.6075C89.4979 44.5863 89.5529 44.563 89.6037 44.5376C89.6545 44.5122 89.701 44.4826 89.7433 44.4488C89.9803 44.3049 90.1475 44.1145 90.2448 43.8775C90.3464 43.6405 90.3972 43.3083 90.3972 42.8809V39.8848H91.4445V42.8809C91.4445 43.2406 91.417 43.558 91.362 43.833C91.307 44.1039 91.2181 44.3451 91.0954 44.5567C90.9938 44.7344 90.8436 44.9016 90.6447 45.0581C90.4458 45.2105 90.2088 45.3247 89.9338 45.4009L91.5715 48.0796H90.3972L87.528 43.3252C87.3757 43.3337 87.2043 43.3951 87.0139 43.5093C86.8277 43.6236 86.6838 43.8119 86.5822 44.0742C86.4764 44.3535 86.4235 44.7281 86.4235 45.1978V48.0796H85.3698ZM93.4059 48.0796V39.8848H94.4724V48.0796H93.4059ZM96.1227 48.0796V47.21H100.109V42.2588C100.109 41.7595 99.9948 41.3913 99.7663 41.1543C99.5378 40.9173 99.2014 40.7671 98.757 40.7036C98.6512 40.6825 98.5306 40.6677 98.3952 40.6592C98.2598 40.6465 98.1053 40.6402 97.9318 40.6402C97.7329 40.6402 97.4854 40.6486 97.1891 40.6656C96.8929 40.6783 96.5353 40.6994 96.1164 40.729V39.8467C96.4295 39.8171 96.7385 39.7959 97.0432 39.7832C97.3521 39.7663 97.6589 39.7578 97.9636 39.7578C98.3867 39.7578 98.7401 39.7769 99.0236 39.815C99.3114 39.8488 99.5843 39.9123 99.8425 40.0054C100.105 40.1027 100.323 40.2276 100.496 40.3799C100.67 40.5323 100.809 40.7269 100.915 40.9639C100.983 41.0782 101.036 41.2009 101.074 41.3321C101.112 41.4632 101.14 41.6029 101.156 41.751C101.173 41.8991 101.182 42.0599 101.182 42.2334V47.21H102.121V48.0796H96.1227ZM103.511 48.0796V39.8848H104.578V48.0796H103.511Z" fill="#141E4C"/>
</svg>
