<svg width="120" height="140" viewBox="0 0 120 140" fill="none" xmlns="http://www.w3.org/2000/svg">
<path d="M64.2999 111.037C59.2168 109.806 54.4853 106.316 52.9614 101.658C50.1642 102.933 46.1047 104.608 43.1178 103.883C40.1308 103.159 38.4541 101.69 38.424 98.6176C35.8335 99.3166 33.1942 100.018 30.5152 99.9018C27.9445 99.7903 25.0947 98.7548 23.4594 96.671C22.947 96.0212 22.6099 95.1911 22.7198 94.3688C20.744 95.8692 18.0331 96.3373 15.6 96.187C14.1997 96.1007 12.7654 95.7684 11.6523 94.9131C10.5394 94.0613 9.81315 92.6028 10.1174 91.2328C10.6536 88.8386 13.632 88.0841 16.0663 87.7947C20.5705 87.256 25.0747 86.7174 29.5789 86.1787C42.0723 84.6865 54.6492 83.1898 67.2081 83.9239C68.2372 83.9845 69.4405 84.172 69.9111 85.0858C70.3469 85.935 69.8671 87.0212 69.0905 87.5788C68.314 88.1364 67.3348 88.2929 66.3898 88.4372C72.1135 88.127 77.8337 87.8171 83.5572 87.5034C88.1361 87.2539 92.7149 87.0044 97.2971 86.8176C102.112 86.6183 107.033 86.4973 111.635 87.9285C112.529 88.2056 113.527 88.6727 113.743 89.5825C113.95 90.4613 113.271 91.3522 112.438 91.6999C111.605 92.0476 110.67 91.9889 109.77 91.9249C112.055 91.9121 113.034 95.3182 111.597 97.0937C110.159 98.8692 107.524 99.1344 105.282 98.7018C103.04 98.2692 100.909 97.29 98.6362 97.0788C97.1531 100.305 93.9212 102.796 90.3715 103.173C88.2548 103.397 80.6997 102.464 79.9316 99.8212C81.3988 104.859 78.0324 108.565 73.1913 110.584C70.5114 111.703 67.3434 111.776 64.2999 111.037Z" fill="white"/>
<path d="M23.4551 96.6712C22.9426 96.0214 22.6055 95.1913 22.7155 94.369C20.7397 95.8694 18.0288 96.3375 15.5957 96.1872C14.1954 96.1009 12.7611 95.7686 11.648 94.9133C10.5351 94.0615 9.80883 92.603 10.1131 91.233C10.6493 88.8388 13.6277 88.0843 16.0619 87.7949C20.5662 87.2562 25.0704 86.7176 29.5746 86.1789C42.068 84.6867 54.6448 83.19 67.2037 83.9241C68.2329 83.9847 69.4362 84.1722 69.9068 85.086C70.3426 85.9352 69.8627 87.0214 69.0862 87.579C68.3132 88.1364 67.3305 88.2931 66.3855 88.4374C72.1092 88.1272 77.8294 87.8173 83.5529 87.5037C88.1317 87.2542 92.7106 87.0047 97.2928 86.8178C102.108 86.6186 107.029 86.4975 111.63 87.9287C112.524 88.2059 113.523 88.6729 113.738 89.5827C113.945 90.4615 113.267 91.3524 112.434 91.7001C111.601 92.0478 110.666 91.9891 109.766 91.9251C112.051 91.9123 113.03 95.3184 111.592 97.0939C110.155 98.8694 107.52 99.1346 105.278 98.702C103.036 98.2695 100.904 97.2902 98.6319 97.079C98.0124 98.4274 97.0857 99.6419 95.9588 100.633C94.3938 97.9002 92.0056 95.6329 89.163 94.2726C85.2213 92.3877 79.9627 92.4534 75.9347 94.1428C77.765 95.7591 79.209 97.8566 80.0627 100.139C80.0083 100.033 79.9608 99.9278 79.9271 99.818C80.4725 101.684 80.3106 102.645 79.7166 104.474C78.8766 101.988 77.8258 100.596 76.0798 98.6609C73.7889 96.1233 70.1561 94.5361 66.8868 95.5293C65.4135 95.9772 64.1192 96.9041 63.0361 97.9979C59.6478 101.422 58.3071 104.899 59.9036 109.347C56.6709 107.607 54.0232 104.92 52.9569 101.655C52.7974 98.4461 54.0728 97.1606 56.3199 94.8537C51.2154 93.5468 45.3462 93.9415 40.4573 95.9137C41.8351 93.8622 43.8898 92.2704 46.2226 91.449C41.1181 89.9432 35.4765 90.3537 30.643 92.5812C29.2975 93.2003 27.9068 94.087 27.4903 95.5118C27.0712 96.9542 27.8315 98.5296 28.9752 99.5019C29.0958 99.6036 29.2194 99.6983 29.3464 99.7893C27.1165 99.4572 24.8437 98.447 23.4516 96.6714L23.4551 96.6712Z" fill="#F5FBFF"/>
<path d="M109.773 91.9248C112.057 91.9119 113.037 95.3181 111.599 97.0936C110.161 98.8691 107.527 99.1342 105.285 98.7016C106.019 98.6628 106.929 98.5203 107.554 98.1383C108.179 97.7527 108.676 97.1053 108.734 96.3729C108.766 95.9804 108.679 95.5873 108.537 95.2179C107.903 93.5801 106.283 92.5109 104.608 91.9889C102.096 91.2078 99.3973 91.4414 96.7755 91.6815C101.088 90.8739 105.388 91.9511 109.773 91.9248Z" fill="#DFF2FD"/>
<path d="M69.093 87.5821C69.866 87.0248 70.3492 85.9349 69.9135 85.0891C69.4429 84.1754 68.2361 83.9881 67.2105 83.9272C54.6481 83.1934 42.0747 84.6898 29.5814 86.182C25.0771 86.7207 20.5729 87.2594 16.0687 87.798C13.6345 88.0875 10.6528 88.8456 10.1199 91.2361C9.8156 92.6062 10.5417 94.0612 11.6548 94.9164C11.1056 93.9685 11.4703 92.7523 12.1763 91.9158C12.8822 91.0794 13.91 90.5888 14.9331 90.2066C19.5995 88.4485 24.7041 88.3735 29.6876 88.3189C28.1123 88.6187 26.7118 89.7153 26.0352 91.1713C32.1916 88.0293 39.2882 87.4196 46.1782 86.8627C50.3651 86.5258 54.6081 86.1929 58.7468 86.9228C56.7859 86.9918 54.8516 87.6944 53.307 88.9033C58.5729 87.5252 63.7685 86.4684 69.0966 87.5854L69.093 87.5821Z" fill="#DFF2FD"/>
<path d="M66.3922 88.4405C72.1159 88.1303 77.8361 87.8204 83.5596 87.5067C88.1384 87.2572 92.7173 87.0077 97.2995 86.8209C102.115 86.6216 107.035 86.5006 111.637 87.9318C112.531 88.2089 113.529 88.676 113.745 89.5858C113.952 90.4646 113.273 91.3554 112.44 91.7031C112.424 91.0026 111.784 90.4503 111.17 90.1095C110.555 89.7687 109.847 89.6491 109.155 89.5498C101.321 88.4293 93.3574 88.8825 85.457 89.3359C82.3782 89.5129 79.0973 89.76 76.6383 91.6245C73.5522 89.621 70.0671 88.3191 66.3924 88.4439L66.3922 88.4405Z" fill="#DFF2FD"/>
<path d="M40.3351 27.9999L32.1201 33.5806L38.1038 42.3889L46.3188 36.8082L40.3351 27.9999Z" fill="#393D47"/>
<path d="M41.8834 32.6902C41.768 32.6376 41.6516 32.5845 41.5512 32.5074C41.4259 32.411 41.3311 32.2815 41.2404 32.1521C40.8159 31.5476 40.3876 30.8656 39.6869 30.6279C38.9677 30.3838 38.1847 30.6859 37.494 31.0065C36.7326 31.36 35.9759 31.7474 35.3394 32.2948C34.9993 32.5874 34.6909 32.9326 34.5242 33.3485C34.3409 33.8056 34.3415 34.3139 34.3872 34.8032C34.5031 36.0403 34.9669 37.3456 36.0206 38.0033C36.4988 38.3018 37.0576 38.4409 37.6088 38.5628C38.0079 38.6511 38.423 38.7389 38.7485 38.9851C39.4335 39.5029 39.5809 40.4725 39.7808 41.2502L42.9561 39.0931C42.8789 38.8315 42.8016 38.5698 42.7243 38.3082C43.3095 38.0695 43.8482 37.7169 44.3013 37.2763C44.4213 37.1596 44.5409 37.0261 44.5671 36.861C44.6247 36.4967 44.23 36.247 44.0165 35.9471C43.7767 35.61 43.7432 35.135 43.4295 34.8651C43.3596 34.8048 43.276 34.7554 43.23 34.6754C43.0691 34.3956 43.4764 34.103 43.4918 33.7801C43.5063 33.4773 43.1856 33.2827 42.9097 33.1571C42.5676 33.0015 42.2255 32.8458 41.8836 32.6902L41.8834 32.6902Z" fill="#62797F"/>
<path d="M40.392 37.8919C40.4874 38.0157 40.5811 38.1582 40.7304 38.2051C40.9224 38.2654 41.1205 38.1441 41.2857 38.0281C41.5475 37.8441 41.8118 37.6569 42.1097 37.5406C42.6901 37.3141 43.3687 37.3674 43.9017 37.0448C44.0011 36.9846 44.102 36.8959 44.1045 36.7801C44.1058 36.7218 44.0811 36.6664 44.0557 36.614C43.9719 36.4418 43.8725 36.2774 43.7593 36.123C43.6905 36.0294 43.6165 35.939 43.5597 35.8378C43.4987 35.7291 43.459 35.6098 43.4056 35.4971C43.1548 34.9673 42.6333 34.6274 42.1368 34.315C42.0244 34.2442 41.9066 34.1716 41.774 34.1593C41.6675 34.1494 41.5617 34.1796 41.4589 34.2095C41.2569 34.2682 41.055 34.3269 40.8531 34.3856C40.666 34.44 40.4768 34.4952 40.3071 34.5909C40.2782 34.6073 40.2482 34.6265 40.2344 34.6567C40.2189 34.691 40.2277 34.731 40.2399 34.7665C40.2828 34.8913 40.3621 34.9995 40.4305 35.1123C40.7121 35.5778 40.7999 36.1983 40.5135 36.6632C40.4625 36.7459 40.3938 36.8268 40.2995 36.8499C40.1974 36.8749 40.0938 36.8265 39.9968 36.7864C39.6986 36.6632 39.3713 36.6099 39.0488 36.6321C38.9012 36.6423 38.717 36.7077 38.7127 36.8552C38.7053 37.1105 39.351 37.1359 39.5286 37.2151C39.8661 37.3658 40.1667 37.599 40.3921 37.8917L40.392 37.8919Z" fill="#93B5B6"/>
<path d="M42.0859 35.7096C41.9022 35.9246 41.7136 36.1482 41.633 36.4188C42.0169 35.9262 42.4138 35.422 42.9504 35.102C43.0078 35.0678 43.0761 35.0068 43.0442 34.9483C43.035 34.9316 43.0188 34.9198 43.0025 34.9096C42.9233 34.8601 42.8616 34.8262 42.7907 34.8876C42.7031 34.9636 42.6308 35.0732 42.5552 35.1614C42.3986 35.344 42.2423 35.5268 42.086 35.7096L42.0859 35.7096Z" fill="#A6CBCC"/>
<path d="M42.096 36.6067C42.1408 36.6083 42.1833 36.5885 42.2239 36.5693C42.6815 36.3512 43.139 36.1332 43.5966 35.9151C43.5749 35.8678 43.5533 35.8203 43.5317 35.773C43.5282 35.7655 43.5239 35.7571 43.5161 35.7545C43.508 35.7519 43.4995 35.7563 43.4923 35.7606C43.0865 35.9968 42.6805 36.2329 42.2747 36.4691C42.2248 36.4982 42.1732 36.5277 42.1159 36.5349C41.9982 36.5497 41.8951 36.4698 41.8096 36.4001C41.8758 36.469 41.9966 36.6033 42.0961 36.6068L42.096 36.6067Z" fill="#A6CBCC"/>
<path d="M42.4182 35.8745C42.2385 36.0164 42.0846 36.1875 41.9316 36.3578C42.308 35.9752 42.7631 35.6705 43.2602 35.4684C43.3073 35.4492 43.3571 35.4293 43.3893 35.39C43.4554 35.3093 43.4036 35.2326 43.3158 35.2743C43.2174 35.321 43.1247 35.4189 43.0312 35.4784C42.826 35.6092 42.6097 35.7234 42.4183 35.8745L42.4182 35.8745Z" fill="#62797F"/>
<path d="M41.754 36.2237C41.784 36.2567 41.8142 36.2898 41.8442 36.3229C41.8566 36.3365 41.8706 36.3511 41.8889 36.3534C41.9058 36.3555 41.9221 36.3466 41.9361 36.3368C41.9523 36.3254 41.9674 36.3122 41.981 36.2977C42.0091 36.2676 42.0314 36.2251 42.0174 36.1866C42.0129 36.1741 42.0048 36.1632 41.9967 36.1525C41.9697 36.1167 41.9416 36.0819 41.9122 36.0479C41.9087 36.0438 41.9048 36.0395 41.8995 36.0384C41.8926 36.037 41.8858 36.0413 41.8803 36.046C41.8333 36.0857 41.8161 36.1528 41.7684 36.1917L41.7839 36.1588C41.7874 36.1609 41.7892 36.1657 41.7878 36.1696L41.7539 36.2239L41.754 36.2237Z" fill="#A6CBCC"/>
<path d="M42.1027 36.1496C42.1275 36.1472 42.1478 36.1298 42.1665 36.1131C42.1919 36.0904 42.2196 36.0625 42.2173 36.0287C42.2154 36.0012 42.1945 35.9796 42.1747 35.9607C42.1376 35.9248 42.1004 35.889 42.0633 35.8532C42.1096 35.8496 42.1521 35.879 42.1845 35.912C42.2171 35.9452 42.2447 35.984 42.2843 36.0085C42.3551 35.9614 42.4193 35.9044 42.4746 35.8399C42.4366 35.7756 42.3867 35.7183 42.3282 35.6717C42.3139 35.6604 42.2987 35.6491 42.2897 35.6332C42.2807 35.6172 42.2802 35.5949 42.2938 35.5825C42.2963 35.5803 42.2993 35.5783 42.3028 35.578C42.3082 35.5777 42.3129 35.5814 42.317 35.585C42.382 35.6424 42.4413 35.7064 42.4934 35.7757C42.5029 35.7883 42.5136 35.8021 42.5293 35.8046C42.5441 35.807 42.5582 35.7983 42.5708 35.7901C42.605 35.7678 42.6392 35.7453 42.6733 35.723C42.6324 35.6479 42.5908 35.5718 42.5318 35.51C42.5119 35.489 42.4893 35.4687 42.48 35.4412C42.4706 35.4138 42.4815 35.3768 42.5097 35.3698C42.5413 35.3618 42.5673 35.3935 42.5843 35.421L42.7093 35.6244C42.7186 35.6395 42.7292 35.6556 42.7461 35.6613C42.7641 35.6673 42.7836 35.6592 42.8003 35.6498C42.8717 35.61 42.926 35.5459 42.9788 35.4833C42.9841 35.4771 42.9895 35.4704 42.9903 35.4622C42.991 35.4542 42.9872 35.4467 42.9835 35.4396C42.9333 35.3489 42.8635 35.2691 42.7801 35.2073C42.7718 35.2012 42.7625 35.1934 42.763 35.1831C42.7633 35.1798 42.7645 35.1766 42.7659 35.1737C42.7836 35.1389 42.8352 35.1346 42.8684 35.1548C42.9017 35.175 42.921 35.2113 42.9388 35.246C42.9665 35.3004 42.9942 35.3547 43.0221 35.4089C43.0328 35.4298 43.0444 35.4518 43.0646 35.4638C43.1066 35.489 43.1595 35.4596 43.1996 35.431C43.227 35.4114 43.2547 35.3917 43.2822 35.3721C43.2906 35.3661 43.2994 35.3596 43.3032 35.35C43.3069 35.3403 43.3047 35.3296 43.302 35.3196C43.2861 35.2611 43.2543 35.2084 43.2197 35.1587C43.1747 35.0942 43.1242 35.0336 43.0688 34.9777C43.0472 34.956 43.0223 34.9338 42.9918 34.9321C42.9736 34.9311 42.9559 34.9376 42.9392 34.9452C42.8327 34.9934 42.7527 35.0846 42.6742 35.1711C42.4687 35.3975 42.2485 35.6101 42.0332 35.8274C41.9914 35.8695 41.8858 35.9758 41.9444 36.0334C41.9686 36.0572 41.9964 36.0773 42.0205 36.103C42.0423 36.1263 42.0677 36.1528 42.1028 36.1494L42.1027 36.1496Z" fill="#A6CBCC"/>
<path d="M42.1725 36.3982C42.1868 36.4249 42.1981 36.455 42.2222 36.4733C42.2461 36.4917 42.2889 36.4899 42.2998 36.4615C42.2619 36.4276 42.2276 36.3898 42.1975 36.3489C42.178 36.3225 42.1595 36.2911 42.1656 36.2588C42.1721 36.2243 42.2044 36.2011 42.2351 36.184C42.2638 36.1681 42.296 36.1537 42.3283 36.1586C42.3679 36.1646 42.3976 36.1975 42.4193 36.2309C42.441 36.2644 42.4593 36.3016 42.491 36.326C42.5227 36.3503 42.5738 36.3561 42.5999 36.3256C42.5257 36.2333 42.4482 36.1436 42.3676 36.0568C42.416 35.9816 42.4929 35.9249 42.579 35.9009C42.5889 35.8982 42.5992 35.8958 42.6091 35.8984C42.6199 35.9012 42.6282 35.9093 42.6361 35.9172C42.7144 35.9967 42.7861 36.0826 42.8503 36.1739C42.9009 36.1581 42.9469 36.1277 42.9813 36.0874C42.89 36.0548 42.8079 35.9969 42.7467 35.9221C42.7303 35.9021 42.715 35.8797 42.7122 35.8541C42.7058 35.7961 42.7634 35.7521 42.8164 35.7272C42.8693 35.7024 42.925 35.6833 42.9819 35.6705C43.0049 35.6654 43.0295 35.6613 43.0514 35.6696C43.0713 35.677 43.0863 35.6935 43.0987 35.7107C43.1626 35.7993 43.1792 35.9207 43.2616 35.9925C43.302 36.0026 43.3374 35.9543 43.3322 35.913C43.327 35.8718 43.2968 35.839 43.2694 35.8079C43.2376 35.7719 43.2068 35.7336 43.1896 35.6887C43.1724 35.6438 43.1703 35.5908 43.1944 35.5491C43.2109 35.5206 43.2377 35.4998 43.2639 35.4798C43.3031 35.4498 43.3553 35.4187 43.3977 35.4434C43.4187 35.4556 43.4303 35.4784 43.4408 35.5002C43.4842 35.5909 43.5232 35.6837 43.5573 35.7784C43.5709 35.8163 43.5814 35.8645 43.5518 35.8919C43.5342 35.9082 43.5084 35.9106 43.4853 35.9167C43.4387 35.9291 43.3989 35.9586 43.3589 35.9853C43.2875 36.0328 43.2114 36.0726 43.135 36.1115C42.9076 36.2275 42.6768 36.3368 42.4428 36.439C42.3539 36.4779 41.9612 36.684 41.9705 36.4351C41.9754 36.3063 42.1181 36.296 42.1726 36.3982L42.1725 36.3982Z" fill="#A6CBCC"/>
<path d="M40.8032 37.4349C40.8359 37.4767 40.8706 37.5248 40.9229 37.5338C40.9889 37.5452 41.0451 37.4897 41.0961 37.4461C41.236 37.3265 41.4183 37.2711 41.5951 37.2205C42.1438 37.0637 42.7101 36.9235 43.2782 36.9694C42.5553 36.8449 41.7945 36.9432 41.1252 37.2473C41.0762 37.2697 41.0253 37.2935 40.9715 37.2916C40.9216 37.2898 40.8757 37.2661 40.8307 37.2443C40.5719 37.1196 40.2859 37.0507 39.998 37.0437C40.3019 37.0511 40.6142 37.1945 40.803 37.4349L40.8032 37.4349Z" fill="#A6CBCC"/>
<path d="M39.4231 38.2799C39.4685 38.3892 39.5106 38.5181 39.4517 38.6213C39.3784 38.7494 39.1759 38.7836 39.145 38.9278C39.2551 38.9735 39.3488 38.8306 39.4623 38.7936C39.5669 38.7595 39.6828 38.8255 39.7417 38.9178C39.8005 39.0103 39.8156 39.1231 39.8294 39.232C40.2157 39.1164 40.5882 38.9541 40.9359 38.7497C41.0368 38.6905 41.1446 38.6151 41.1669 38.5005C41.1916 38.3728 41.1001 38.2548 41.0122 38.1592C40.7157 37.8373 40.3919 37.5404 40.0453 37.2731C39.9282 37.1827 39.8061 37.0944 39.666 37.0462C39.4228 36.9626 39.0398 37.0605 39.0366 37.3698C39.0337 37.6603 39.3149 38.0194 39.4232 38.28L39.4231 38.2799Z" fill="#93B5B6"/>
<path d="M38.377 35.7143C38.3998 35.6988 38.4079 35.664 38.391 35.6413C38.374 35.6184 38.3424 35.6108 38.318 35.6274C38.2952 35.6429 38.287 35.6777 38.304 35.7004C38.321 35.7232 38.3526 35.7308 38.377 35.7143Z" fill="#93B5B6"/>
<path d="M41.5136 32.9383C41.4644 32.8858 41.449 32.8111 41.4293 32.7419C41.2821 32.2274 40.8163 31.8799 40.379 31.5713C40.1482 31.4085 39.9128 31.2432 39.6435 31.1571C39.4413 31.0924 39.2262 31.0748 39.0137 31.0811C38.0152 31.1107 37.1076 31.6482 36.2758 32.2038C35.8979 32.4562 35.5207 32.7195 35.2212 33.0612C35.0407 33.2673 34.8884 33.5046 34.8201 33.7695C34.6868 34.2861 34.885 34.8227 35.0799 35.3181C35.2208 35.6762 35.3617 36.0343 35.5027 36.3924C35.6632 36.8003 35.8437 37.2336 36.2096 37.4755C36.4643 37.6438 36.7772 37.6963 37.0814 37.7282C37.7189 37.7953 38.3644 37.7898 39.0013 37.7117C39.0881 37.701 39.1806 37.6863 39.2445 37.6266C39.35 37.528 39.3299 37.3609 39.3348 37.2169C39.3445 36.9231 39.491 36.6509 39.6566 36.4072C39.8982 36.0512 40.1887 35.7283 40.5174 35.4502C40.5796 35.3975 40.6555 35.3432 40.7352 35.3596C40.839 35.381 40.887 35.509 40.9855 35.5475C41.0795 35.5844 41.1827 35.5287 41.2676 35.4734C41.5655 35.2791 41.8495 35.0636 42.1168 34.8291C42.2252 34.734 42.3355 34.6285 42.3748 34.4901C42.4484 34.231 42.2532 33.9844 42.1245 33.7485C41.9738 33.4725 41.9624 33.1967 41.9185 32.901C41.7806 32.9009 41.6477 33.0818 41.5134 32.9381L41.5136 32.9383Z" fill="#A6CBCC"/>
<path opacity="0.32" d="M35.2262 33.838C35.2097 33.9436 35.2139 34.0513 35.222 34.1577C35.2557 34.6005 35.3569 35.0378 35.5209 35.4499C35.5782 35.5938 35.6456 35.7382 35.7573 35.8455C35.8691 35.9527 36.0344 36.0162 36.1828 35.97C36.3795 35.9087 36.4773 35.6862 36.5048 35.4823C36.5182 35.3826 36.521 35.281 36.5054 35.1818C36.4729 34.9747 36.3639 34.7894 36.2637 34.6056C36.1314 34.3628 36.0089 34.1048 35.995 33.8284C35.9827 33.5861 36.0556 33.3451 36.166 33.1284C36.2765 32.9113 36.4298 32.7269 36.5643 32.5259C36.3083 32.6465 36.0742 32.8623 35.8391 33.0227C35.5523 33.2183 35.282 33.4799 35.2261 33.8382L35.2262 33.838Z" fill="white"/>
<path opacity="0.32" d="M41.3136 34.3659C41.1423 34.5167 40.8835 34.5992 40.8156 34.8167C40.7588 34.9993 40.8758 35.1976 41.0345 35.3037C41.062 35.3221 41.0938 35.3391 41.1264 35.334C41.1671 35.3276 41.1943 35.2901 41.2165 35.2554C41.3841 34.9938 41.5303 34.7184 41.653 34.4332C41.6774 34.3762 41.7013 34.3179 41.7082 34.2565C41.7342 34.0261 41.5366 33.8392 41.5521 33.6095C41.5547 33.8892 41.5432 34.164 41.3137 34.3658L41.3136 34.3659Z" fill="white"/>
<path d="M39.8233 39.528C39.8517 39.6024 39.8874 39.6779 39.8826 39.7575C39.8814 39.7778 39.8771 39.7989 39.8642 39.8148C39.8459 39.8369 39.8154 39.8437 39.7876 39.8509C39.7392 39.8633 39.6922 39.8813 39.6479 39.9043C39.6322 39.9124 39.6159 39.922 39.608 39.9378C39.6 39.9537 39.602 39.9724 39.6043 39.99C39.6121 40.0476 39.6308 40.1148 39.6859 40.1334C39.736 40.1502 39.7875 40.1172 39.8326 40.0896C39.8776 40.0619 39.9387 40.0392 39.9798 40.0722C40.0201 40.1045 40.0128 40.1687 40.0398 40.2128C40.0675 40.2581 40.128 40.2741 40.1808 40.2654C40.2335 40.2568 40.2806 40.2285 40.327 40.2021C40.6849 39.9988 41.0827 39.8781 41.4604 39.7144C41.5088 39.6934 41.5616 39.6669 41.5796 39.6173C41.5887 39.5922 41.5872 39.5647 41.5848 39.5381C41.5618 39.2764 41.4684 39.0268 41.376 38.7809C41.3551 38.7253 41.3217 38.66 41.2622 38.6577C41.2221 38.6561 41.188 38.685 41.1582 38.7119C41.0894 38.7737 41.0191 38.8336 40.9471 38.8918C40.843 38.976 40.7329 39.0575 40.6052 39.0975C40.5338 39.1198 40.4589 39.1284 40.3854 39.142C40.2961 39.1585 40.2081 39.1825 40.1226 39.2137C40.0545 39.2385 39.9812 39.2928 39.9071 39.2794C39.8563 39.2703 39.8256 39.2482 39.8011 39.309C39.7731 39.3784 39.7982 39.4621 39.8234 39.5281L39.8233 39.528Z" fill="#93B5B6"/>
<path d="M41.8617 39.8362C41.8206 39.7814 41.762 39.7418 41.6944 39.7379C41.6252 39.7341 41.5595 39.7669 41.4986 39.8004C41.3231 39.8973 41.1542 40.0075 40.9701 40.0871C40.7058 40.2013 40.4068 40.2545 40.187 40.4408C40.1256 40.4928 40.1282 40.5867 40.1383 40.6663C40.1505 40.7625 40.1664 40.8583 40.1845 40.9536C40.1857 40.96 40.1868 40.9665 40.1879 40.9731L41.8616 39.8361L41.8617 39.8362Z" fill="#93B5B6"/>
<path d="M40.8019 32.6698C40.7279 32.609 40.6188 32.5649 40.5382 32.6175C40.498 32.6437 40.4744 32.6882 40.4526 32.7309C40.3845 32.864 40.3163 32.9969 40.2482 33.1299C40.2137 33.1973 40.1788 33.2657 40.1646 33.3399C40.1311 33.5143 40.2155 33.6874 40.301 33.8426C40.3946 34.0128 40.4925 34.1807 40.5944 34.346C40.6223 34.3913 40.6547 34.4396 40.7054 34.4559C40.7353 34.4655 40.7678 34.4626 40.7984 34.4557C41.0037 34.4096 41.1328 34.2116 41.2397 34.0304C41.286 33.9519 41.3329 33.8722 41.3576 33.7845C41.4214 33.5578 41.3089 33.3649 41.1702 33.1963C41.034 33.0306 40.9693 32.8073 40.8021 32.6699L40.8019 32.6698Z" fill="#62797F"/>
<path d="M24.9295 35.6522L24.8955 40.0659L31.0197 40.1129L31.0536 35.6992L24.9295 35.6522Z" fill="#393D47"/>
<path d="M29.9498 38.9836C30.1163 38.9774 30.2547 38.846 30.4182 38.8129C30.513 38.7936 30.6108 38.8086 30.7064 38.8235C30.8139 38.8403 30.9213 38.8571 31.0289 38.8738L31.0421 37.1491C30.8724 37.1793 30.6969 37.2112 30.532 37.1618C30.4452 37.1359 30.3651 37.0881 30.2768 37.0681C30.1854 37.0475 30.0903 37.0577 29.9971 37.0663C29.1838 37.142 28.3593 37.0908 27.5607 36.9151C26.9863 36.7888 26.3676 36.6023 25.8327 36.852C25.7683 36.8821 25.7057 36.9184 25.6367 36.9347C25.4869 36.9701 25.309 36.9124 25.1893 37.0117C25.0472 37.1295 25.1045 37.3608 25.1742 37.5341C25.2273 37.6661 25.2804 37.7981 25.3334 37.93C25.3748 38.0329 25.4192 38.1401 25.5023 38.2114C25.5361 38.2403 25.575 38.2622 25.6086 38.2914C25.7206 38.3888 25.7603 38.556 25.8781 38.6461C25.9439 38.6965 26.0264 38.7164 26.1064 38.7353C26.6755 38.8691 27.2564 39.0038 27.8375 38.9475C28.4239 38.8906 29.0329 38.6439 29.5804 38.8669C29.7011 38.9161 29.8199 38.9884 29.9497 38.9836H29.9498Z" fill="#60747B"/>
<path d="M25.6006 38.3961C25.5371 38.3808 25.4711 38.3561 25.4319 38.3024C25.3967 38.2543 25.3895 38.186 25.4138 38.1312C25.3229 38.1207 25.2339 38.072 25.1866 37.9915C25.1394 37.911 25.1419 37.7986 25.2032 37.7288C25.155 37.7165 25.1159 37.676 25.0995 37.628C25.0832 37.5798 25.0884 37.5254 25.109 37.4791C25.1187 37.4573 25.1322 37.4365 25.1517 37.4236C25.168 37.4129 25.1873 37.4083 25.2061 37.4043C25.2727 37.3904 25.3403 37.3814 25.4081 37.3775C25.5177 37.3712 25.6331 37.3796 25.7274 37.4376C25.7925 37.4775 25.8434 37.5388 25.8811 37.6064C25.9188 37.674 25.9439 37.7483 25.9658 37.8229C26.0172 37.998 26.0512 38.1892 25.9915 38.3617C25.9732 38.4148 25.9376 38.471 25.8831 38.4763C25.8434 38.4803 25.8002 38.4536 25.7627 38.441C25.709 38.4227 25.6556 38.4096 25.6005 38.3962L25.6006 38.3961Z" fill="#60747B"/>
<path d="M25.9732 36.9886C25.9965 37.024 25.9949 37.0706 25.9884 37.1128C25.982 37.155 25.9717 37.1983 25.9808 37.2401C25.9899 37.2819 26.0266 37.3213 26.0677 37.3148C26.1144 37.3074 26.1356 37.2507 26.1739 37.2222C26.2082 37.1967 26.2537 37.1958 26.2961 37.1959L26.5537 37.1964C26.5713 37.1964 26.5898 37.1967 26.6051 37.2059C26.6241 37.2171 26.6345 37.2399 26.6533 37.2513C26.6842 37.27 26.7267 37.2487 26.7431 37.2158C26.7594 37.183 26.7563 37.1436 26.7495 37.1074C26.7374 37.0434 26.7152 36.9771 26.734 36.915C26.7427 36.886 26.7594 36.8524 26.7414 36.8283C26.7338 36.8181 26.7214 36.8129 26.7091 36.8103C26.6672 36.8017 26.6212 36.8224 26.599 36.8599C26.5893 36.8763 26.5837 36.8955 26.571 36.9096C26.5513 36.9315 26.5197 36.9358 26.4909 36.9388C26.4108 36.9471 26.3308 36.9553 26.2507 36.9636C26.1946 36.9693 26.137 36.9758 26.0808 36.9678C26.0594 36.9648 26.0187 36.9437 25.999 36.9479C25.9655 36.9551 25.9805 36.9743 25.9623 36.9833C25.9013 37.0135 25.8346 36.9552 25.7795 37.0328C25.7673 37.0501 25.7577 37.0696 25.7427 37.0843C25.715 37.1112 25.6742 37.1169 25.6362 37.1211C25.5908 37.1262 25.5455 37.1313 25.5001 37.1364C25.4817 37.1384 25.4624 37.1408 25.4468 37.1511C25.4126 37.1736 25.4012 37.2481 25.4148 37.2861C25.4359 37.345 25.5115 37.3606 25.5656 37.3501C25.6406 37.3355 25.7083 37.2698 25.7826 37.2878C25.8176 37.2962 25.8517 37.3231 25.8858 37.3114C25.9068 37.3042 25.9212 37.2832 25.927 37.2611C25.9327 37.239 25.9313 37.2158 25.9299 37.193C25.9273 37.1519 25.9246 37.1107 25.922 37.0696C25.9206 37.0484 25.9187 37.0256 25.9068 37.0086L25.9731 36.9888L25.9732 36.9886Z" fill="#A5CBCC"/>
<path d="M26.8376 37.1549C26.8455 37.2032 26.865 37.2512 26.9011 37.2833C26.9371 37.3154 26.9913 37.3282 27.034 37.3063C27.0527 37.2967 27.068 37.2814 27.086 37.2705C27.1409 37.2371 27.2101 37.2488 27.2722 37.2635C27.5815 37.3372 27.8794 37.4606 28.152 37.6279C28.1667 37.6369 28.1827 37.6464 28.1997 37.6445C28.2272 37.6414 28.2429 37.6114 28.2538 37.5851C28.2967 37.4814 28.3397 37.3778 28.3827 37.2741C28.3854 37.2675 28.3882 37.2609 28.3888 37.2538C28.3924 37.2149 28.3402 37.2013 28.3023 37.2018C28.1442 37.2035 27.986 37.1955 27.8288 37.1777C27.7281 37.1663 27.6274 37.1508 27.5306 37.1197C27.401 37.0779 27.2813 37.0088 27.1665 36.9341C27.1054 36.8944 27.0403 36.8515 26.968 36.8536C26.827 36.8577 26.8207 37.0491 26.8377 37.1548L26.8376 37.1549Z" fill="#A5CBCC"/>
<path d="M25.3869 37.6419C25.393 37.642 25.3996 37.6419 25.4047 37.6385C25.4097 37.6352 25.4124 37.6295 25.4146 37.6239C25.4245 37.6 25.4304 37.5744 25.4322 37.5486C25.4332 37.5317 25.4317 37.5126 25.4192 37.5015C25.4095 37.4928 25.3955 37.4915 25.3827 37.4908C25.3362 37.4888 25.2895 37.492 25.2438 37.5004C25.1942 37.5096 25.1403 37.5517 25.1866 37.5999C25.2257 37.6404 25.3355 37.6409 25.3869 37.6419Z" fill="#A5CBCC"/>
<path d="M25.4705 37.6662C25.4832 37.6755 25.501 37.6729 25.515 37.666C25.529 37.6591 25.5412 37.6484 25.5553 37.6417C25.5737 37.6329 25.5945 37.6311 25.6147 37.6312C25.6682 37.6315 25.7217 37.6448 25.7695 37.6696C25.7883 37.6793 25.8088 37.6912 25.8289 37.6852C25.8566 37.677 25.8653 37.6415 25.8684 37.6119C25.8718 37.5815 25.8741 37.5494 25.8617 37.5216C25.8493 37.4938 25.817 37.473 25.7894 37.4846C25.7757 37.4904 25.7658 37.5028 25.7537 37.5117C25.721 37.5359 25.6763 37.5323 25.6371 37.5228C25.6017 37.5142 25.5673 37.5017 25.5345 37.4856C25.5209 37.4789 25.5052 37.4714 25.4912 37.4772C25.4717 37.4852 25.469 37.5118 25.4694 37.5334C25.4698 37.5551 25.4538 37.6544 25.4706 37.666L25.4705 37.6662Z" fill="#A5CBCC"/>
<path d="M25.9117 37.6069C25.9068 37.6233 25.8992 37.6393 25.8994 37.6564C25.8997 37.6915 25.9394 37.7195 25.9712 37.7072C25.9874 37.701 25.9997 37.6871 26.0149 37.6789C26.0306 37.6705 26.0486 37.6685 26.0662 37.6669C26.1172 37.6621 26.1683 37.6595 26.2194 37.6589C26.2554 37.6586 26.293 37.6597 26.3247 37.6772C26.3548 37.6938 26.3797 37.7249 26.4137 37.726C26.441 37.727 26.4656 37.7072 26.4791 37.6827C26.4926 37.6584 26.497 37.63 26.5013 37.6023C26.504 37.5836 26.5069 37.5649 26.5097 37.5463C26.5122 37.5298 26.514 37.5107 26.5031 37.4984C26.4874 37.4809 26.4581 37.4906 26.4414 37.5072C26.4248 37.5238 26.4127 37.5462 26.3919 37.5568C26.3732 37.5661 26.3513 37.5638 26.3307 37.5612C26.2648 37.5532 26.1989 37.5452 26.133 37.5372C26.11 37.5344 26.0855 37.531 26.0678 37.5156C26.0498 37.5 26.0414 37.4743 26.0217 37.4611C26.0051 37.4501 25.9841 37.45 25.9644 37.4507C25.8666 37.4541 25.9303 37.5436 25.9117 37.6069Z" fill="#A5CBCC"/>
<path d="M26.5775 37.7247C26.588 37.7471 26.6193 37.7493 26.6415 37.7394C26.6638 37.7295 26.6819 37.7114 26.7045 37.7024C26.7292 37.6926 26.7565 37.6945 26.7828 37.6965C27.0631 37.7183 27.3435 37.7401 27.6239 37.7619C27.7702 37.7733 27.9177 37.7849 28.0583 37.8282C28.1265 37.8493 28.1924 37.8777 28.2549 37.9128C28.2659 37.8616 28.2712 37.8089 28.2702 37.7564C28.27 37.7457 28.2694 37.7348 28.2649 37.7251C28.2488 37.6907 28.2003 37.6975 28.1641 37.7066C28.0142 37.7439 27.8571 37.7231 27.7043 37.7009C27.4903 37.6698 27.2766 37.6365 27.0632 37.6009C26.9541 37.5827 26.8441 37.5637 26.7412 37.5219C26.7091 37.5089 26.6763 37.4934 26.6418 37.4947C26.6072 37.4961 26.5705 37.5211 26.5694 37.5567C26.5684 37.5904 26.5918 37.6188 26.5924 37.6523C26.5929 37.6744 26.5658 37.7002 26.5774 37.7247H26.5775Z" fill="#A5CBCC"/>
<path d="M25.3974 38.0183C25.4057 38.0195 25.4145 38.0203 25.4223 38.0172C25.4287 38.0146 25.4339 38.0098 25.4381 38.0043C25.4575 37.9788 25.4538 37.94 25.4349 37.9143C25.416 37.8886 25.3849 37.8747 25.3538 37.8703C25.3228 37.8659 25.2912 37.87 25.26 37.874C25.2526 37.875 25.2449 37.8761 25.2386 37.8805C25.1568 37.9389 25.3654 38.0139 25.3974 38.0184V38.0183Z" fill="#A5CBCC"/>
<path d="M25.5102 38.0577C25.521 38.0563 25.5286 38.0465 25.5366 38.039C25.5554 38.0212 25.5827 38.0134 25.6078 38.0187C25.6372 38.0249 25.6605 38.0468 25.685 38.0643C25.7097 38.0818 25.7413 38.0958 25.7689 38.0838C25.789 38.0751 25.8019 38.0542 25.8085 38.0328C25.8149 38.0113 25.8163 37.9886 25.8203 37.9666C25.8218 37.9589 25.8236 37.9509 25.822 37.9432C25.8175 37.9223 25.7905 37.9155 25.7706 37.9217C25.7507 37.9279 25.7341 37.9425 25.7143 37.9492C25.682 37.9602 25.6465 37.9486 25.6167 37.9317C25.5869 37.9148 25.56 37.8924 25.5285 37.8794C25.5121 37.8727 25.4906 37.8697 25.4792 37.8836C25.4751 37.8887 25.4731 37.8952 25.4717 37.9017C25.4663 37.9264 25.4699 38.0628 25.5103 38.0579L25.5102 38.0577Z" fill="#A5CBCC"/>
<path d="M25.9271 38.1054C25.9423 38.1142 25.9642 38.1172 25.9752 38.1032C25.9801 38.097 25.9817 38.0887 25.9857 38.0817C25.9962 38.0639 26.0195 38.0604 26.0397 38.0587C26.1019 38.0536 26.164 38.0486 26.2263 38.0435C26.2648 38.0403 26.3066 38.038 26.3389 38.0599C26.3704 38.0813 26.3953 38.1256 26.4323 38.118C26.468 38.1107 26.4759 38.0636 26.4871 38.0281C26.496 38.0002 26.5116 37.9739 26.5126 37.9445C26.5136 37.9152 26.4907 37.8819 26.4628 37.8879C26.4449 37.8918 26.4337 37.9093 26.4191 37.9204C26.3868 37.9451 26.342 37.9369 26.3023 37.9302C26.2517 37.9217 26.2004 37.9175 26.149 37.9176C26.0838 37.9178 26.0121 37.9231 25.9606 37.8818C25.8708 37.8099 25.8529 38.0534 25.9271 38.1052V38.1054Z" fill="#A5CBCC"/>
<path d="M26.5613 38.1002C26.5631 38.1378 26.5815 38.1869 26.6178 38.1812C26.6456 38.1769 26.657 38.1426 26.6781 38.1237C26.7005 38.1037 26.7326 38.1019 26.7621 38.1016C27.1691 38.0975 27.575 38.2021 27.9803 38.1623C28.0144 38.159 28.0488 38.1546 28.0828 38.1589C28.1412 38.1662 28.1964 38.1989 28.2551 38.195C28.2674 38.1942 28.2808 38.1909 28.288 38.1807C28.2945 38.1715 28.2942 38.159 28.2936 38.1476C28.2913 38.1043 28.2885 38.0593 28.2682 38.0214C28.2478 37.9835 28.2042 37.955 28.1638 37.9672C28.1429 37.9735 28.1262 37.9893 28.1069 37.9994C28.0761 38.0154 28.0403 38.0162 28.0058 38.0165C27.6676 38.0198 27.3292 38.002 26.9931 37.9633C26.8911 37.9515 26.7856 37.9365 26.6995 37.8792C26.6839 37.8689 26.6686 37.857 26.6504 37.8528C26.5408 37.8279 26.5586 38.0438 26.5613 38.1002V38.1002Z" fill="#A5CBCC"/>
<path d="M25.6707 38.3468C25.6859 38.3499 25.7029 38.3522 25.716 38.3436C25.7324 38.333 25.7361 38.3085 25.7284 38.2902C25.7208 38.2719 25.7047 38.2588 25.6881 38.2484C25.6462 38.2226 25.5967 38.21 25.5478 38.2128C25.5013 38.2154 25.4726 38.2477 25.508 38.2862C25.5409 38.322 25.6258 38.3375 25.6707 38.3468Z" fill="#A5CBCC"/>
<path d="M25.7741 38.3531C25.7897 38.3722 25.8189 38.3617 25.8425 38.3559C25.9107 38.3394 25.9786 38.3788 26.0382 38.4167C26.072 38.3822 26.0864 38.3287 26.0745 38.2812C26.073 38.2752 26.071 38.2691 26.0672 38.2643C26.0582 38.253 26.0414 38.2519 26.0278 38.2562C26.0142 38.2606 26.0023 38.2692 25.9891 38.2745C25.957 38.2871 25.9206 38.2792 25.8894 38.2648C25.858 38.2503 25.8298 38.2297 25.7986 38.2153C25.7877 38.2103 25.775 38.2061 25.7643 38.2115C25.7532 38.2171 25.7486 38.2315 25.7503 38.244C25.753 38.263 25.7644 38.3411 25.7742 38.3531L25.7741 38.3531Z" fill="#A5CBCC"/>
<path d="M26.1487 38.4106C26.1564 38.4232 26.1732 38.4312 26.1858 38.4238C26.1929 38.4197 26.197 38.4119 26.2028 38.4062C26.2155 38.3936 26.2346 38.3916 26.2521 38.3904C26.3132 38.3859 26.3744 38.3813 26.4356 38.3768C26.5028 38.3719 26.5727 38.3673 26.6352 38.3931C26.6679 38.4067 26.6982 38.4285 26.7332 38.4332C26.7429 38.4344 26.7537 38.434 26.761 38.4274C26.769 38.42 26.7699 38.4076 26.7701 38.3965C26.7707 38.3691 26.7701 38.3416 26.7684 38.3142C26.767 38.2899 26.7642 38.2643 26.7503 38.2445C26.7364 38.2248 26.7075 38.2142 26.6883 38.2283C26.6762 38.2371 26.6705 38.2531 26.6586 38.2621C26.6483 38.2697 26.635 38.2711 26.6224 38.2722C26.5335 38.2793 26.4442 38.281 26.3551 38.2772C26.3165 38.2756 26.2762 38.2723 26.243 38.2521C26.2239 38.2404 26.2066 38.223 26.1845 38.2207C26.1113 38.2133 26.1252 38.3725 26.1488 38.4109L26.1487 38.4106Z" fill="#A5CBCC"/>
<path d="M26.913 38.4186C26.9316 38.391 26.9689 38.3865 27.0015 38.3854C27.4305 38.3694 27.8665 38.4781 28.2853 38.3815C28.3228 38.3729 28.3676 38.3538 28.3702 38.3142C28.3721 38.286 28.3487 38.2614 28.3226 38.2526C28.2964 38.2439 28.268 38.2474 28.2408 38.2508C27.995 38.2811 27.7472 38.2927 27.4998 38.2857C27.3742 38.2822 27.2488 38.2738 27.1238 38.2607C27.0557 38.2536 26.8389 38.1854 26.794 38.2547C26.7579 38.3102 26.8549 38.5046 26.913 38.4186Z" fill="#A5CBCC"/>
<path d="M26.0048 38.6236C26.022 38.6333 26.043 38.6424 26.0603 38.6329C26.069 38.6281 26.075 38.6193 26.0788 38.6099C26.0969 38.565 26.0652 38.5122 26.0225 38.4912C25.9923 38.4763 25.8602 38.4478 25.8555 38.503C25.852 38.5454 25.9748 38.6068 26.0047 38.6236H26.0048Z" fill="#A5CBCC"/>
<path d="M26.2418 38.639C26.2721 38.6247 26.3073 38.6341 26.3397 38.6414C26.3824 38.651 26.4258 38.6569 26.4693 38.6588C26.475 38.6591 26.4812 38.6592 26.4859 38.6558C26.4911 38.652 26.493 38.6451 26.4943 38.6387C26.4997 38.6135 26.502 38.5854 26.4887 38.5634C26.4689 38.5306 26.425 38.5261 26.3875 38.5266C26.3316 38.5272 26.2747 38.5309 26.2203 38.5171C26.2048 38.5132 26.1893 38.5078 26.1732 38.5081C26.1572 38.5083 26.14 38.5156 26.1332 38.5306C26.1255 38.5477 26.1515 38.6334 26.1637 38.6472C26.1918 38.679 26.2059 38.656 26.2418 38.639Z" fill="#A5CBCC"/>
<path d="M26.5924 38.6986C26.6159 38.6954 26.6272 38.665 26.6495 38.6565C26.6591 38.6528 26.6698 38.6537 26.6801 38.6546C26.7401 38.66 26.8 38.6654 26.86 38.6708C26.8889 38.6734 26.9224 38.6743 26.9418 38.6522C26.955 38.6373 26.9578 38.6157 26.9575 38.5957C26.9572 38.5788 26.9547 38.5612 26.9451 38.5475C26.9356 38.5337 26.9173 38.5253 26.9022 38.5318C26.8959 38.5345 26.8908 38.5395 26.8851 38.5433C26.8615 38.5594 26.8304 38.5559 26.8024 38.5518C26.7328 38.5415 26.6632 38.5314 26.5936 38.5212C26.502 38.5078 26.5339 38.7065 26.5924 38.6986Z" fill="#A5CBCC"/>
<path d="M27.0804 38.6942C27.1009 38.7198 27.1399 38.733 27.1662 38.7137C27.1813 38.7025 27.1891 38.6834 27.2039 38.6718C27.2295 38.6516 27.2659 38.6603 27.2974 38.6676C27.3882 38.6886 27.482 38.6897 27.575 38.6907C27.8911 38.6941 28.213 38.6968 28.5159 38.6037C28.5369 38.5972 28.5588 38.5896 28.5731 38.5725C28.5982 38.5425 28.588 38.4924 28.5587 38.4667C28.5293 38.4411 28.4872 38.4363 28.4492 38.4428C28.4113 38.4494 28.3757 38.4658 28.3393 38.4785C28.2716 38.5021 28.2005 38.5131 28.1295 38.5215C27.8676 38.5525 27.602 38.5495 27.3409 38.5127C27.2675 38.5024 27.1939 38.4893 27.1198 38.4902C26.9892 38.492 27.0197 38.6184 27.0803 38.694L27.0804 38.6942Z" fill="#A5CBCC"/>
<path d="M25.9033 37.0084C25.9179 37.0221 25.9266 37.0454 25.9461 37.0489C25.9537 37.0502 25.9614 37.0482 25.9687 37.0456C25.973 37.0442 25.9773 37.0425 25.9805 37.0392C25.9877 37.0319 25.9863 37.0196 25.9826 37.0099C25.9789 37.0003 25.9733 36.9908 25.9736 36.9804C25.974 36.964 25.9888 36.9518 25.9939 36.9362C26.0001 36.9177 25.9898 36.895 25.9719 36.888C25.9624 36.8842 25.9518 36.8846 25.9416 36.8851C25.9008 36.8872 25.856 36.8925 25.8278 36.923C25.7738 36.9812 25.878 36.9846 25.9033 37.0084Z" fill="#60747B"/>
<path d="M25.1976 37.3428C25.2337 37.3617 25.2746 37.371 25.315 37.3696C25.331 37.369 25.3473 37.3666 25.3614 37.3589C25.3755 37.3512 25.3871 37.3372 25.389 37.3209C25.3915 37.2986 25.3762 37.2782 25.3739 37.256C25.3712 37.2292 25.3871 37.1996 25.3734 37.1768C25.3614 37.157 25.3345 37.1552 25.3118 37.1556C25.2863 37.156 25.2607 37.1564 25.2352 37.1568C25.2084 37.1573 25.1793 37.1586 25.159 37.1764C25.0923 37.2348 25.1338 37.3094 25.1976 37.3428Z" fill="#A5CBCC"/>
<path d="M28.1753 37.6507C28.1513 37.7389 28.1594 37.8329 28.1748 37.9231C28.1861 37.9898 28.2015 38.0562 28.2299 38.1173C28.2575 38.1768 28.2967 38.2297 28.3357 38.2822C28.3979 38.3658 28.46 38.4495 28.5222 38.5331C28.5395 38.5564 28.5574 38.5802 28.5819 38.5952C28.6062 38.6099 28.6348 38.6146 28.6627 38.6183C28.73 38.6273 28.8044 38.6304 28.8597 38.5898C28.9172 38.5476 28.9383 38.467 28.9286 38.3951C28.9206 38.3358 28.8942 38.2793 28.8541 38.2358C28.7849 38.1608 28.6836 38.1297 28.5925 38.086C28.5013 38.0422 28.4089 37.9705 28.397 37.8678C28.3908 37.8153 28.4072 37.7628 28.427 37.714C28.4468 37.6651 28.4705 37.6173 28.48 37.5653C28.4896 37.5133 28.4829 37.4548 28.4482 37.4158C28.3279 37.2808 28.1997 37.5606 28.1753 37.6508V37.6507Z" fill="#93B5B7"/>
<path d="M28.5881 37.9898C28.6512 38.0178 28.7221 38.0179 28.7908 38.0174C28.8088 38.0173 28.8274 38.0171 28.8444 38.0107C28.8745 37.9992 28.8947 37.9701 28.9102 37.941C28.9505 37.8651 28.9718 37.7785 28.9712 37.6921C28.9712 37.6714 28.9697 37.6502 28.9613 37.6313C28.9535 37.6137 28.9401 37.5992 28.926 37.5863C28.8784 37.543 28.8191 37.5135 28.7566 37.502C28.7225 37.4957 28.6855 37.4953 28.6553 37.5127C28.6311 37.5267 28.614 37.5506 28.5987 37.5744C28.5176 37.7001 28.3957 37.9044 28.5882 37.9898L28.5881 37.9898Z" fill="#A5CBCC"/>
<path d="M28.5095 37.4473C28.5341 37.4807 28.5728 37.5028 28.6134 37.5069C28.6484 37.5104 28.6832 37.5011 28.7172 37.4918C28.7648 37.4789 28.8125 37.4658 28.8601 37.4529C28.8842 37.4464 28.9098 37.4388 28.926 37.4193C28.9552 37.3839 28.9385 37.3288 28.9125 37.2907C28.9005 37.2731 28.8865 37.2565 28.8689 37.2449C28.8327 37.2211 28.7868 37.2216 28.7438 37.2229C28.6566 37.2256 28.5693 37.2283 28.4821 37.2309C28.3289 37.2356 28.4733 37.398 28.5096 37.4471L28.5095 37.4473Z" fill="#93B5B7"/>
<path d="M28.8895 38.1166C28.8833 38.1545 28.8942 38.1929 28.9049 38.2297C28.9254 38.2999 28.9459 38.3702 28.9664 38.4405C28.9812 38.491 28.9977 38.5445 29.037 38.5785C29.0925 38.6266 29.1737 38.6202 29.2457 38.6112C29.2604 38.6094 29.2765 38.6068 29.2862 38.5954C29.2933 38.587 29.2956 38.5755 29.2975 38.5647C29.3203 38.4287 29.3147 38.2896 29.3091 38.1518C29.3056 38.0687 29.3022 37.9855 29.2989 37.9025C29.2952 37.8124 29.2811 37.705 29.2022 37.6656C29.1492 37.6392 29.0815 37.6573 29.0404 37.7005C28.9861 37.7576 28.9919 37.8268 28.9807 37.8985C28.9681 37.9796 28.9025 38.0373 28.8895 38.1166Z" fill="#93B5B7"/>
<path d="M29.1985 37.6508C29.2146 37.6487 29.2311 37.6464 29.2456 37.639C29.2802 37.6213 29.2957 37.5795 29.304 37.5407C29.3128 37.4989 29.3169 37.456 29.316 37.4132C29.3157 37.4003 29.3149 37.3873 29.3106 37.3751C29.3032 37.3535 29.2854 37.3371 29.2657 37.3263C29.143 37.2587 28.9271 37.2656 28.899 37.4366C28.8896 37.494 28.9062 37.5454 28.9558 37.5754C29.031 37.6208 29.1093 37.6627 29.1985 37.6508V37.6508Z" fill="#93B5B7"/>
<path d="M29.3383 37.9868C29.3493 38.152 29.3605 38.3173 29.3716 38.4825C29.3732 38.5067 29.3759 38.5332 29.393 38.5499C29.4125 38.5688 29.4447 38.5671 29.4679 38.5532C29.491 38.5393 29.5071 38.5157 29.5216 38.4927C29.6085 38.3549 29.6732 38.2026 29.7126 38.0435C29.7203 38.0123 29.7271 37.9801 29.723 37.9483C29.7198 37.9225 29.7095 37.8982 29.6994 37.8744C29.6737 37.8136 29.648 37.7529 29.6222 37.6921C29.5875 37.6102 29.5528 37.5282 29.5181 37.4463C29.4939 37.3892 29.4449 37.3111 29.3742 37.3543C29.3278 37.3826 29.3415 37.427 29.343 37.4744C29.3483 37.6451 29.3268 37.814 29.3385 37.9868H29.3383Z" fill="#A5CBCC"/>
<path d="M30.3603 38.6569C30.5844 38.6836 30.8076 38.7176 31.0297 38.7585L31.032 38.4597C30.8424 38.4384 30.6547 38.3961 30.4764 38.3259C30.3713 38.2846 30.281 38.2311 30.1939 38.1722C30.3163 38.1304 30.4506 38.1239 30.5808 38.1186C30.732 38.1124 30.8834 38.1063 31.0347 38.1028L31.0403 37.3807C30.8806 37.3726 30.7206 37.3692 30.5606 37.3709C30.4383 37.3722 30.3135 37.3761 30.1964 37.3394C30.0561 37.2955 29.9116 37.1943 29.7763 37.2524C29.7536 37.2622 29.7318 37.2773 29.7209 37.2999C29.7101 37.3224 29.7115 37.3489 29.7132 37.3739C29.7293 37.5538 29.7437 37.7301 29.7679 37.9082C29.7726 37.9425 29.773 37.9766 29.7701 38.0104C29.7585 38.0361 29.7536 38.0685 29.7551 38.1021C29.7288 38.2138 29.6773 38.3227 29.6399 38.4288C29.6019 38.5371 29.5758 38.6845 29.6711 38.7447C29.7639 38.8032 29.8757 38.72 29.9769 38.6786C30.0971 38.6294 30.2318 38.6416 30.3603 38.6569Z" fill="#A5CBCC"/>
<path opacity="0.32" d="M29.8814 38.0266C29.9311 38.0925 30.0266 38.1013 30.1049 38.0795C30.1831 38.0577 30.2532 38.012 30.3306 37.9868C30.5065 37.9296 30.7014 37.9832 30.8795 37.934C30.6375 37.8961 30.3901 37.8944 30.1475 37.929C30.0928 37.9368 30.0213 37.9372 30.001 37.8844C29.9842 37.8406 30.0179 37.7953 30.0296 37.7499C30.0491 37.6744 30.0071 37.5982 29.9668 37.532C29.9543 37.5114 29.9411 37.4901 29.9213 37.477C29.9014 37.4639 29.8728 37.4613 29.8555 37.4778C29.8365 37.496 29.8386 37.527 29.8423 37.5535C29.8544 37.6401 29.875 37.729 29.8678 37.8161C29.8615 37.8917 29.8285 37.9572 29.8814 38.0267V38.0266Z" fill="white"/>
<path opacity="0.32" d="M29.7087 38.6509C29.7434 38.6692 29.7862 38.6613 29.8217 38.6448C29.8573 38.6282 29.8891 38.6039 29.925 38.5881C29.9765 38.5655 30.0336 38.5617 30.0896 38.5598C30.3716 38.5503 30.6548 38.5823 30.928 38.6547C30.7063 38.557 30.4693 38.5024 30.2339 38.4484C30.1437 38.4276 30.0461 38.4076 29.962 38.4469C29.9356 38.4592 29.9116 38.4771 29.884 38.486C29.8564 38.495 29.8223 38.4927 29.8035 38.4701C29.7723 38.4324 29.8038 38.3723 29.7875 38.3257C29.7937 38.3436 29.6841 38.5342 29.6767 38.5712C29.6685 38.5787 29.671 38.631 29.7087 38.651V38.6509Z" fill="white"/>
<path opacity="0.32" d="M26.8816 37.1607C26.8876 37.1874 26.8944 37.2149 26.9112 37.2363C26.9279 37.2577 26.9573 37.271 26.9819 37.2604C27.0086 37.2488 27.019 37.2156 27.0409 37.1961C27.0625 37.1769 27.0931 37.173 27.1216 37.1734C27.1886 37.1742 27.254 37.1938 27.318 37.2139C27.4375 37.2515 27.5562 37.2917 27.6749 37.332C27.8387 37.3876 28.0026 37.443 28.1664 37.4986C28.0425 37.4437 27.9186 37.3887 27.7946 37.3338C27.6359 37.2634 27.4767 37.1928 27.3106 37.1431C27.2227 37.1168 27.1282 37.0935 27.0646 37.0259C27.0465 37.0067 27.0315 36.9844 27.0123 36.9665C26.8814 36.8445 26.8645 37.0857 26.8815 37.1609L26.8816 37.1607Z" fill="white"/>
<path d="M90.3704 40.9792H86.0762V46.7084H90.3704V40.9792Z" fill="#393D47"/>
<path d="M90.0368 41.273C90.0466 41.1709 90.0526 41.0733 90.0555 40.9792H88.3545C88.5291 41.3937 88.5751 42.5264 88.5747 42.6885C88.5742 42.8607 88.6007 43.5563 88.5976 43.7353C88.5937 43.9585 88.4845 44.1677 88.443 44.3876C88.3875 44.6817 88.4546 44.9821 88.494 45.2785C88.54 45.6238 88.5484 45.9734 88.5191 46.3202C88.5086 46.4435 88.492 46.5707 88.4249 46.6774C88.4184 46.6879 88.4113 46.6981 88.4043 46.7084H89.1405C89.1697 46.4556 89.2251 46.1846 89.2585 46.0964C89.5998 45.1955 89.7575 44.9239 89.8039 44.4652C89.836 44.1472 89.7285 43.8285 89.7426 43.5094C89.7651 42.9997 89.9789 41.8793 90.0368 41.2729V41.273Z" fill="#60747B"/>
<path d="M88.0011 46.6774C87.9341 46.5707 87.9175 46.4435 87.907 46.3202C87.8777 45.9734 87.8861 45.6238 87.9321 45.2785C87.9715 44.9821 88.0385 44.6817 87.9831 44.3876C87.9416 44.1677 87.8324 43.9585 87.8285 43.7353C87.8253 43.5563 87.8519 42.8607 87.8514 42.6885C87.851 42.5264 87.8969 41.3937 88.0716 40.9792H86.3906C86.3946 41.0733 86.4012 41.1709 86.4109 41.273C86.4689 41.8794 86.661 42.9998 86.6835 43.5094C86.6976 43.8286 86.6116 44.146 86.6222 44.4653C86.639 44.9676 86.8263 45.1956 87.1676 46.0965C87.2015 46.186 87.2711 46.4578 87.3116 46.7085H88.0218C88.0148 46.6982 88.0078 46.6879 88.0011 46.6775V46.6774Z" fill="#60747B"/>
<path d="M87.1417 43.5529C87.131 43.5625 87.1199 43.5725 87.1148 43.586C87.1107 43.5971 87.1111 43.6094 87.1118 43.6213C87.1146 43.6644 87.1223 43.7074 87.1348 43.7492C87.1444 43.7811 87.1574 43.8133 87.1813 43.8369C87.2115 43.8666 87.2579 43.8784 87.2974 43.8665C87.3369 43.8546 87.3679 43.8195 87.3749 43.7786C87.3783 43.7585 87.3763 43.7378 87.3749 43.7174C87.3716 43.671 87.3707 43.6236 87.3547 43.5796C87.3487 43.5632 87.3404 43.5471 87.3276 43.5352C87.3108 43.5195 87.2876 43.5123 87.265 43.5109C87.2159 43.5079 87.1774 43.5212 87.1417 43.553L87.1417 43.5529Z" fill="#A5CBCC"/>
<path d="M89.5431 43.1396C89.5112 43.0579 89.5069 42.9691 89.505 42.8819C89.4988 42.5953 89.5145 42.3087 89.5303 42.0225C89.5494 41.6748 89.5685 41.327 89.5876 40.9792H89.2867C89.2799 41.4279 89.2731 41.8765 89.2663 42.3251C89.2636 42.5002 89.261 42.6754 89.2453 42.8498C89.235 42.9661 89.1921 43.0816 89.1235 43.1781C89.0668 43.2581 88.951 43.317 88.9043 43.4026C88.8577 43.4883 88.8529 43.645 89.0349 43.644C89.053 43.6439 89.0716 43.6453 89.0879 43.638C89.158 43.6067 89.1426 43.5011 89.1971 43.4486C89.2428 43.4047 89.3241 43.4156 89.3739 43.4552C89.4237 43.4949 89.4496 43.5548 89.4737 43.6124C89.5355 43.656 89.669 43.6251 89.701 43.5583C89.733 43.4914 89.7127 43.4004 89.681 43.3334C89.6493 43.2664 89.57 43.2084 89.5431 43.1396Z" fill="#A5CBCC"/>
<path d="M87.4058 43.2057C87.3374 43.109 87.2948 42.9935 87.2846 42.8772C87.2694 42.7027 87.2671 42.5275 87.2647 42.3524C87.2587 41.8947 87.2526 41.4369 87.2465 40.9792H86.9445C86.9446 40.9809 86.9447 40.9824 86.9448 40.984C86.9636 41.3391 86.9824 41.6943 87.0013 42.0494C87.0164 42.3356 87.0317 42.6223 87.0248 42.9089C87.0227 42.996 87.0183 43.0849 86.9862 43.1665C86.9592 43.2353 86.8797 43.2932 86.8479 43.3601C86.8161 43.427 86.7956 43.5181 86.8276 43.585C86.8595 43.6519 86.9929 43.6831 87.0548 43.6395C87.079 43.582 87.105 43.522 87.1549 43.4824C87.2047 43.4429 87.2861 43.4321 87.3317 43.4761C87.3861 43.5286 87.3706 43.6342 87.4406 43.6657C87.4569 43.673 87.4755 43.6715 87.4936 43.6717C87.6755 43.673 87.6711 43.5163 87.6246 43.4305C87.5781 43.3447 87.4624 43.2857 87.4058 43.2056L87.4058 43.2057Z" fill="#A5CBCC"/>
<path d="M89.0823 46.7083C89.1035 46.2538 89.1599 45.8005 89.2514 45.354C89.284 45.1944 89.3212 45.0353 89.3416 44.8737C89.356 44.7588 89.3619 44.6431 89.3744 44.528C89.3875 44.4068 89.3973 44.2682 89.4462 44.1551C89.4677 44.1053 89.52 44.0287 89.487 43.9751C89.3743 44.0696 89.3104 44.1675 89.3013 44.3179C89.2685 44.8616 89.1917 45.4023 89.0976 45.9394C89.0815 46.0315 89.0648 46.1235 89.0534 46.2162C89.0331 46.3795 89.0289 46.5439 89.0306 46.7083H89.0824H89.0823Z" fill="#93B5B7"/>
<path d="M89.484 43.6932C89.4087 43.6877 89.3767 43.9092 89.2512 43.9139C89.1952 43.916 89.1383 43.8989 89.1059 43.8526C89.0734 43.8062 89.1062 43.7274 89.06 43.6957C89.0137 43.664 88.9174 43.6486 88.8909 43.6998C88.8377 43.7626 88.952 44.0165 88.9795 44.1598C89.0265 44.4046 89.0071 44.6582 88.9826 44.9076C88.9356 45.388 88.8706 45.867 88.7878 46.3429C88.7689 46.4519 88.7485 46.5621 88.7022 46.6625C88.6954 46.6773 88.6879 46.6927 88.6807 46.7083H88.9958C89.0172 45.8801 89.1127 45.0527 89.281 44.24C89.2908 44.1928 89.3013 44.1444 89.3267 44.1036C89.3545 44.0589 89.3899 44.0188 89.4342 43.9895C89.6141 43.8705 89.6713 43.7067 89.484 43.6932V43.6932Z" fill="#A5CBCC"/>
<path d="M87.8279 46.7082C87.8251 46.7024 87.8224 46.6965 87.8197 46.6907C87.7736 46.5902 87.7535 46.48 87.7347 46.371C87.6529 45.8949 87.5888 45.4158 87.5426 44.9353C87.5187 44.6859 87.4998 44.4322 87.5472 44.1876C87.5749 44.0443 87.6897 43.7906 87.6367 43.7277C87.6104 43.6765 87.5139 43.6917 87.4676 43.7233C87.4214 43.755 87.454 43.8338 87.4214 43.8801C87.3889 43.9264 87.3319 43.9433 87.2759 43.9412C87.1505 43.9363 87.1189 43.7147 87.0436 43.7201C86.8563 43.7334 86.9131 43.8974 87.0928 44.0166C87.1371 44.046 87.1725 44.086 87.2001 44.1308C87.2254 44.1717 87.2359 44.2201 87.2455 44.2673C87.4104 45.0713 87.5042 45.8894 87.5255 46.7083H87.8278L87.8279 46.7082Z" fill="#A5CBCC"/>
<path d="M87.1505 44.5551C87.1627 44.6702 87.1684 44.7859 87.1827 44.9008C87.2027 45.0625 87.2396 45.2215 87.272 45.3813C87.3607 45.8188 87.4159 46.2629 87.4371 46.7082H87.4905C87.4917 46.553 87.4872 46.3979 87.4684 46.2437C87.457 46.151 87.4406 46.059 87.4246 45.9669C87.3315 45.4296 87.2558 44.8888 87.224 44.3451C87.2152 44.1946 87.1515 44.0967 87.039 44.002C87.006 44.0555 87.058 44.1322 87.0795 44.1821C87.1281 44.2952 87.1377 44.4338 87.1506 44.555L87.1505 44.5551Z" fill="#93B5B7"/>
<path d="M89.2449 43.4767C89.2051 43.4873 89.1892 43.5309 89.1792 43.5685C89.164 43.6256 89.1489 43.6826 89.1337 43.7397C89.1301 43.7532 89.1265 43.7676 89.131 43.7809C89.1346 43.7916 89.143 43.8003 89.1512 43.8086C89.1705 43.8281 89.1918 43.8486 89.2196 43.8535C89.265 43.8615 89.3048 43.8254 89.3318 43.7905C89.349 43.7683 89.3648 43.7452 89.3797 43.7215C89.4 43.6892 89.419 43.6546 89.4209 43.6172C89.424 43.5539 89.3149 43.4581 89.2449 43.4767Z" fill="#A5CBCC"/>
<path opacity="0.32" d="M86.9651 43.4844C86.9987 43.4973 87.0447 43.5004 87.0644 43.4718C87.072 43.4608 87.0739 43.4471 87.0801 43.4352C87.0959 43.4053 87.1351 43.3941 87.1704 43.389C87.2599 43.3761 87.3524 43.3828 87.4386 43.4086C87.4115 43.336 87.3306 43.2844 87.2485 43.2871C87.2031 43.2887 87.1578 43.3051 87.1131 43.2973C87.0943 43.294 87.0765 43.2864 87.0577 43.2827C87.0164 43.2746 86.9734 43.2857 86.9351 43.3025C86.9103 43.3133 86.886 43.3272 86.8699 43.3479C86.8186 43.4139 86.9072 43.4623 86.9651 43.4844Z" fill="white"/>
<path opacity="0.32" d="M88.9403 43.4895C88.9525 43.5189 88.9942 43.5234 89.028 43.5229C89.0611 43.5226 89.1004 43.5188 89.1166 43.4918C89.1243 43.4789 89.1248 43.4635 89.1265 43.4488C89.132 43.4032 89.1542 43.3574 89.195 43.3319C89.2576 43.2928 89.341 43.3113 89.4132 43.3312C89.4564 43.3431 89.4995 43.355 89.5428 43.3668C89.492 43.331 89.4412 43.2952 89.3904 43.2593C89.3674 43.243 89.3438 43.2265 89.3165 43.2177C89.248 43.1957 89.1711 43.2281 89.1211 43.277C89.0835 43.3137 89.0564 43.359 89.0149 43.3923C88.985 43.4164 88.9201 43.4407 88.9404 43.4896L88.9403 43.4895Z" fill="white"/>
<path opacity="0.32" d="M88.923 43.7908C88.9309 43.8055 88.9427 43.8179 88.9531 43.8311C88.9727 43.856 88.9869 43.8842 89.001 43.9122C89.0333 43.9761 89.0654 44.04 89.0976 44.1039C89.0644 44.0058 89.0452 43.9036 89.0406 43.8008C89.0356 43.6863 88.8782 43.7065 88.9231 43.7908H88.923Z" fill="white"/>
<path opacity="0.32" d="M87.2289 44.0316C87.2059 43.9933 87.1698 43.9637 87.1407 43.9291C87.1117 43.8948 87.0901 43.8104 87.0559 43.7869C87.0295 43.7688 86.9577 43.7968 86.958 43.8329C86.9582 43.8596 87.0601 43.9182 87.0835 43.935C87.1184 43.9601 87.2083 43.9973 87.2289 44.0316V44.0316Z" fill="white"/>
<path opacity="0.32" d="M87.1774 43.572C87.1574 43.5858 87.1484 43.6102 87.1484 43.6334C87.1485 43.6566 87.1563 43.6791 87.1641 43.7011C87.1746 43.7312 87.1851 43.7612 87.1956 43.7912C87.1907 43.751 87.1925 43.7102 87.2009 43.6705C87.2031 43.6605 87.2057 43.6503 87.2117 43.6418C87.2318 43.6132 87.2744 43.6107 87.2881 43.5769C87.2578 43.5568 87.2092 43.5505 87.1774 43.5721V43.572Z" fill="white"/>
<path opacity="0.32" d="M89.2514 43.5238C89.2459 43.5273 89.2435 43.5334 89.2414 43.5392C89.2215 43.5929 89.2018 43.6466 89.1819 43.7003C89.1716 43.7282 89.1612 43.7576 89.1664 43.7867C89.1896 43.7629 89.2093 43.7364 89.225 43.7079C89.235 43.6898 89.244 43.6702 89.2611 43.6574C89.2781 43.6447 89.3065 43.6424 89.3197 43.6586C89.3241 43.664 89.3265 43.6708 89.3322 43.6748C89.346 43.6842 89.3648 43.6697 89.3704 43.6547C89.3849 43.616 89.2913 43.4986 89.2514 43.5238L89.2514 43.5238Z" fill="white"/>
<path opacity="0.32" d="M87.1335 42.6794C87.1407 42.844 87.145 43.0195 87.0534 43.1603C87.046 43.1718 87.038 43.187 87.047 43.1975C87.0507 43.2019 87.0564 43.2041 87.0619 43.206C87.1055 43.2214 87.1518 43.2302 87.1984 43.2321C87.2048 43.2323 87.2122 43.232 87.216 43.2272C87.2187 43.2238 87.2186 43.2192 87.2184 43.2151C87.2085 42.9928 87.1986 42.7706 87.1886 42.5483C87.1692 42.1123 87.1498 41.6759 87.1021 41.2418C87.0971 41.1961 87.0916 41.1498 87.0744 41.1067C87.0713 41.1733 87.0683 41.2398 87.0652 41.3064C87.0647 41.3173 87.0676 41.325 87.079 41.3259C87.0535 41.4176 87.0844 41.5514 87.0886 41.6476C87.0936 41.7629 87.0986 41.8783 87.1036 41.9936C87.1136 42.2222 87.1235 42.4507 87.1335 42.6794V42.6794Z" fill="white"/>
<path opacity="0.32" d="M89.3655 42.5491C89.3814 42.3319 89.3788 42.1119 89.4295 41.8994C89.442 42.2229 89.3396 42.5473 89.3877 42.8679C89.3938 42.9089 89.451 43.0941 89.4074 43.1218C89.3705 43.1452 89.2653 43.1521 89.2502 43.127C89.2093 43.0591 89.3064 42.9245 89.3227 42.8543C89.346 42.754 89.358 42.6515 89.3655 42.5492V42.5491Z" fill="white"/>
<path d="M40.6554 66.921L46.3454 65.6953L43.2821 51.4744C43.2821 51.4744 41.4139 48.6594 38.73 48.2723C36.046 47.8853 28.6912 49.4664 28.6912 49.4664L33.1841 68.5304L40.6554 66.921Z" fill="#1A6C80"/>
<path d="M40.6559 66.9207L24.9752 70.2985L21.8788 55.924C21.8788 55.924 21.9022 50.924 29.0599 49.3821C34.6469 48.1786 37.4175 52.6573 37.4175 52.6573L40.6559 66.9207Z" fill="#D9E8F4"/>
<path d="M40.1623 51.3927L40.0666 51.4133C39.4109 51.5545 38.9931 52.2009 39.1342 52.8557L41.9853 66.0914L44.4573 65.5589L41.6062 52.3233C41.4651 51.6684 40.8183 51.2514 40.1626 51.3926L40.1623 51.3927Z" fill="#D9E8F4"/>
<path d="M32.0534 66.5189C28.8691 67.2048 25.5725 64.4406 24.6903 60.3448C23.808 56.2491 25.6741 52.3727 28.8584 51.6868C32.0427 51.0009 35.3392 53.7651 36.2215 57.8609C37.1038 61.9566 35.2377 65.833 32.0534 66.5189Z" fill="#1A6C80"/>
<path d="M31.3761 63.6006C29.3223 64.043 27.1961 62.2602 26.6271 59.6186C26.058 56.977 27.2617 54.4769 29.3155 54.0345C31.3693 53.592 33.4955 55.3748 34.0645 58.0165C34.6335 60.6581 33.4299 63.1582 31.3761 63.6006Z" fill="#D9E8F4"/>
<path d="M30.933 54.1133C32.3968 54.5755 33.6682 56.0586 34.0888 58.0111C34.5094 59.9635 33.9614 61.8385 32.8177 62.8624C31.3536 62.4002 30.0825 60.9171 29.6619 58.9647C29.2413 57.0122 29.7894 55.1372 30.933 54.1133Z" fill="#CCD9E2"/>
<path d="M26.7764 64.9164L3.20497 69.9939C3.20497 69.9939 3.10255 71.1679 5.5447 71.6212C10.8566 72.607 32.3323 65.0824 32.3323 65.0824L26.7767 64.9166L26.7764 64.9164Z" fill="#CCD9E2"/>
<path d="M32.0518 63.78L8.48032 68.8576C8.48032 68.8576 8.39232 69.96 10.8201 70.4848C13.2477 71.0094 32.3323 65.0824 32.3323 65.0824L32.0518 63.7803L32.0518 63.78Z" fill="#D9E8F4"/>
<path d="M32.332 65.0823L33.0796 68.5528L13.724 72.7222L13.704 70.4716L32.332 65.0823Z" fill="#707578"/>
<path d="M13.7242 72.7222L18.5234 71.6884L18.4414 69.4512L13.7059 70.6447L13.7242 72.7222Z" fill="#B5C0C6"/>
<path d="M32.7287 66.9229L18.233 70.2979L18.3596 69.9081L32.6514 66.5637L32.7287 66.9229Z" fill="#B5C0C6"/>
<path d="M45.818 63.5541L40.1918 64.766L40.6559 66.9209L46.6702 65.6253L46.2896 63.8581C46.2435 63.6441 46.0322 63.5079 45.818 63.5541Z" fill="#676D70"/>
<path opacity="0.38" d="M34.2923 54.474C34.5448 54.8208 34.7704 55.2061 34.8168 55.6324C34.8305 55.7589 34.8216 55.9027 34.7283 55.9892C34.6339 56.0765 34.4816 56.0724 34.3677 56.0129C34.2542 55.9533 34.1712 55.8493 34.095 55.7463C33.6218 55.106 33.269 54.3758 32.7306 53.7891C32.3053 53.3259 31.7707 52.9638 31.1825 52.7406C31.0519 52.6912 30.8912 52.6072 30.9083 52.4687C30.9275 52.3138 31.1418 52.2874 31.2957 52.3148C32.5397 52.5356 33.5724 53.4863 34.2923 54.474Z" fill="white"/>
<path opacity="0.38" d="M30.4667 52.3941C30.4234 52.44 30.3537 52.4467 30.2907 52.4506C29.9367 52.4722 29.5824 52.4937 29.2284 52.5153C29.1567 52.5196 29.0828 52.5237 29.0145 52.5012C28.9461 52.4788 28.8839 52.4229 28.8761 52.3514C28.8685 52.2816 28.9146 52.2147 28.9743 52.1774C29.0339 52.1401 29.1049 52.1271 29.1745 52.1154C29.4734 52.066 29.8616 51.9739 30.1632 52.0328C30.2933 52.0582 30.6307 52.2204 30.4667 52.3941Z" fill="white"/>
<path d="M36.4037 52.9349L37.042 52.7974L37.2325 53.6816L36.5942 53.8191L36.4037 52.9349Z" fill="#1A6B80"/>
<path d="M35.3031 53.1722L35.9414 53.0347L36.1319 53.9189L35.4936 54.0564L35.3031 53.1722Z" fill="#1A6B80"/>
<path d="M36.6996 54.3055L37.3379 54.168L37.5284 55.0522L36.8901 55.1897L36.6996 54.3055Z" fill="#1A6B80"/>
<path d="M40.0868 64.7886L32.6152 66.398L33.0794 68.5529L41.0111 66.8443L40.6459 65.149C40.5913 64.8955 40.3409 64.7341 40.0871 64.7888L40.0868 64.7886Z" fill="#878E91"/>
<path d="M36.1821 57.6804L38.4463 57.1926L38.5791 57.809L36.3149 58.2967L36.1821 57.6804Z" fill="#878E91"/>
<path d="M22.8453 60.4166L24.623 60.0337L24.7558 60.6501L22.9781 61.033L22.8453 60.4166Z" fill="#878E91"/>
<path d="M96.0915 52.4942C95.9454 52.4609 95.7953 52.3981 95.642 52.3064C95.1646 52.0198 94.7556 51.0279 95.8379 45.8554C96.4228 43.0602 97.184 40.3298 97.1916 40.3027L97.7448 40.4574C97.7372 40.4846 96.9804 43.1989 96.3994 45.9754C95.2945 51.2571 95.8682 51.7732 95.9375 51.8145C96.1331 51.9317 96.2961 51.9716 96.4367 51.9365C96.7381 51.8608 96.9949 51.431 97.2435 51.0152C97.3892 50.7713 97.54 50.5189 97.7129 50.3138C98.4414 49.4498 100.38 50.1045 100.599 50.1822L100.407 50.7229C99.7256 50.4821 98.5107 50.2587 98.1522 50.6834C98.0092 50.853 97.8769 51.0747 97.7367 51.3091C97.4282 51.8255 97.1093 52.3593 96.5768 52.4928C96.4209 52.5318 96.2587 52.5321 96.0912 52.4938L96.0915 52.4942Z" fill="#D9E8F4"/>
<path d="M106.008 41.6892L97.0742 39.6509L96.8605 40.5876L105.794 42.6259L106.008 41.6892Z" fill="#D9E8F4"/>
<path d="M106.294 41.2722L102.39 40.3813L96.0303 68.2542L99.9346 69.145L106.294 41.2722Z" fill="#CCD9E2"/>
<path d="M115.537 59.7324L86.3916 53.0828L86.2229 53.8222L115.368 60.4718L115.537 59.7324Z" fill="#9FA9AD"/>
<path d="M114.404 60.2522L87.2744 54.0625L86.7134 56.5215L113.843 62.7112L114.404 60.2522Z" fill="#808789"/>
<path d="M89.8783 54.6566L87.2744 54.0625L86.7133 56.522L89.3172 57.1161L89.8783 54.6566Z" fill="#9FA9AD"/>
<path d="M114.404 60.2523L111.8 59.6582L111.239 62.1177L113.843 62.7118L114.404 60.2523Z" fill="#9FA9AD"/>
<path d="M85.915 56.3389L114.539 62.8696L113.078 69.2734C112.944 69.8605 112.358 70.2283 111.77 70.0942L85.2764 64.0495C84.6885 63.9154 84.32 63.3298 84.454 62.7427L85.915 56.3389Z" fill="#D9E8F4"/>
<path d="M111.705 70.0797L85.2754 64.0496L84.8957 65.7139L111.326 71.7441L111.705 70.0797Z" fill="#9FA9AD"/>
<path d="M107.109 58.5878L94.7344 55.7644L94.1733 58.2234L106.548 61.0468L107.109 58.5878Z" fill="#CCD9E2"/>
<path d="M100.743 42.0758L107.042 43.513C107.632 43.6476 108.002 44.2351 107.868 44.8241L107.141 48.0072C107.007 48.5963 106.419 48.9653 105.829 48.8307L99.5302 47.3935C98.9404 47.259 98.5707 46.6715 98.705 46.0824L99.4313 42.8993C99.5657 42.3103 100.154 41.9413 100.743 42.0758Z" fill="#D9E8F4"/>
<path d="M106.028 44.2553L101.336 43.1849C100.929 43.0919 100.523 43.3464 100.431 43.7531L99.9758 45.7463C99.883 46.1531 100.138 46.5582 100.545 46.6511L105.237 47.7216C105.644 47.8145 106.05 47.5601 106.142 47.1533L106.597 45.1601C106.69 44.7533 106.435 44.3482 106.028 44.2553Z" fill="#808789"/>
<path d="M100.276 46.3355L100.731 44.3427C100.824 43.9359 101.229 43.6815 101.637 43.7745L106.328 44.8448C106.441 44.8705 106.542 44.92 106.627 44.9868C106.624 44.6448 106.387 44.3372 106.039 44.2577L101.347 43.1874C100.94 43.0945 100.534 43.3488 100.441 43.7559L99.9866 45.7488C99.9194 46.0431 100.034 46.3367 100.258 46.5116C100.257 46.4537 100.263 46.3947 100.277 46.3359L100.276 46.3355Z" fill="#707677"/>
<path d="M105.188 48.6195L100.201 47.4817L99.8155 49.1719L104.802 50.3096L105.188 48.6195Z" fill="#D9E8F4"/>
<path d="M102.309 49.7404L101.084 49.4609L101.113 51.7165L101.821 51.878L102.529 52.0396L103.534 50.0199L102.309 49.7404Z" fill="#F2F0E2"/>
<path d="M101.439 48.719C101.388 48.9451 101.162 49.0865 100.936 49.0348C100.71 48.9832 100.568 48.758 100.619 48.5319C100.671 48.3059 100.896 48.1644 101.123 48.2161C101.349 48.2677 101.491 48.4929 101.439 48.719Z" fill="#CCD9E2"/>
<path d="M102.631 48.5601L102.194 48.4604L102.095 48.8967L102.532 48.9963L102.631 48.5601Z" fill="#8CCDDD"/>
<path d="M103.429 48.7422L102.992 48.6426L102.893 49.0788L103.329 49.1784L103.429 48.7422Z" fill="#8CCDDD"/>
<path d="M104.35 48.9524L103.913 48.8528L103.814 49.289L104.25 49.3886L104.35 48.9524Z" fill="#8CCDDD"/>
<path d="M100.527 48.5595C100.546 48.5591 101.589 48.4956 101.589 48.4956L100.565 48.7706L100.528 48.5595L100.527 48.5595Z" fill="#8CCDDD"/>
<path d="M100.201 47.4817L105.188 48.6195L105.12 48.9189L100.167 47.6314L100.201 47.4817Z" fill="#CCD9E2"/>
<path d="M102.539 52.0414L101.113 51.7161L101.012 52.1609L102.438 52.4862L102.539 52.0414Z" fill="#8CCDDD"/>
<path d="M101.084 49.4609L103.534 50.0199L103.282 50.5256L101.086 49.6385L101.084 49.4609Z" fill="#C0CACC"/>
<path d="M114.317 63.8403L85.6934 57.3096L85.6086 57.6809L114.232 64.2116L114.317 63.8403Z" fill="#707070"/>
<path opacity="0.52" d="M102.602 45.366C102.797 45.3583 102.996 45.3289 103.183 45.3855C103.215 45.3953 103.25 45.411 103.262 45.4426C103.3 45.5419 103.079 45.5871 103.102 45.6909C103.107 45.7194 103.132 45.7404 103.152 45.7612C103.217 45.8284 103.255 45.9281 103.228 46.0173C103.201 46.1066 103.097 46.1719 103.009 46.1381C102.898 46.0952 102.878 45.9406 102.785 45.8668C102.744 45.8351 102.693 45.8208 102.644 45.8075C101.976 45.6253 101.298 45.4641 100.636 45.2598C100.403 45.1878 100.552 45.0622 100.726 45.0175C100.969 44.9551 101.278 45.1459 101.511 45.2121C101.866 45.3128 102.233 45.3801 102.602 45.3656L102.602 45.366Z" fill="#D9E8F4"/>
<path opacity="0.52" d="M103.677 45.5389C103.641 45.5805 103.643 45.6425 103.656 45.696C103.668 45.7495 103.688 45.8026 103.683 45.8571C103.675 45.936 103.615 45.9989 103.586 46.0724C103.556 46.146 103.583 46.2575 103.662 46.2595C103.727 46.2609 103.764 46.1895 103.812 46.1452C103.898 46.0641 104.032 46.0702 104.15 46.0833C104.733 46.1477 105.309 46.2595 105.874 46.4174C105.894 46.423 105.916 46.4287 105.936 46.4218C106.002 46.3984 105.961 46.2955 105.984 46.2289C105.992 46.2046 106.011 46.1841 106.013 46.1584C106.019 46.0982 105.94 46.0717 105.879 46.0656C105.485 46.0254 105.094 45.9531 104.712 45.8503C104.52 45.7989 104.331 45.7397 104.145 45.6729C104.061 45.6426 103.748 45.4558 103.677 45.5392L103.677 45.5389Z" fill="#D9E8F4"/>
<path opacity="0.52" d="M104.139 46.327C104.734 46.4247 105.328 46.5223 105.923 46.62C105.88 46.6859 105.782 46.6754 105.706 46.658C105.053 46.5083 104.394 46.4561 103.737 46.3468C103.816 46.2315 104.028 46.3091 104.139 46.3274L104.139 46.327Z" fill="#D9E8F4"/>
<path opacity="0.52" d="M103.371 45.5518C103.311 45.5661 103.237 45.5994 103.243 45.6606C103.246 45.6909 103.269 45.7146 103.286 45.7397C103.315 45.7811 103.327 45.8313 103.353 45.8739C103.38 45.9165 103.428 45.9535 103.477 45.9407C103.546 45.9226 103.555 45.8294 103.551 45.7577C103.548 45.7187 103.545 45.6799 103.542 45.6409C103.541 45.6245 103.54 45.6078 103.535 45.5924C103.516 45.5397 103.441 45.5171 103.396 45.5498L103.372 45.5516L103.371 45.5518Z" fill="#D9E8F4"/>
<path opacity="0.68" d="M99.9 42.788C99.6935 43.2465 99.5678 43.7413 99.5308 44.2425C99.5262 44.3039 99.5236 44.3685 99.5491 44.4247C99.5746 44.4809 99.6375 44.5252 99.6972 44.5085C99.7305 44.4994 99.7566 44.4734 99.7792 44.4466C99.98 44.2109 100.017 43.883 100.077 43.5792C100.137 43.2757 100.254 42.9453 100.531 42.8085C100.756 42.6975 101.022 42.7451 101.273 42.7499C101.329 42.751 101.389 42.749 101.437 42.7209C101.486 42.6927 101.519 42.6297 101.496 42.5784C101.477 42.5365 101.43 42.5166 101.387 42.5016C100.939 42.3501 100.132 42.2725 99.8997 42.7876L99.9 42.788Z" fill="white"/>
<path opacity="0.68" d="M101.83 42.6525C101.784 42.6865 101.769 42.7545 101.795 42.8048C101.825 42.8609 101.891 42.8842 101.952 42.9024C102.218 42.9812 102.487 43.049 102.759 43.1053C102.825 43.1192 102.895 43.132 102.96 43.113C103.025 43.0939 103.083 43.0319 103.074 42.9649C103.061 42.8798 102.961 42.8427 102.877 42.8245C102.676 42.7805 102.475 42.743 102.273 42.7116C102.178 42.6969 101.907 42.5946 101.829 42.6531L101.83 42.6525Z" fill="white"/>
<path opacity="0.68" d="M101.394 50.2726C101.404 50.6329 101.414 50.9936 101.423 51.3538C101.425 51.4231 101.427 51.496 101.465 51.5542C101.502 51.6127 101.586 51.647 101.643 51.6072C101.681 51.5798 101.694 51.529 101.705 51.4829C101.785 51.1112 101.852 50.7366 101.907 50.3602C101.957 50.0136 101.383 49.8275 101.394 50.2725L101.394 50.2726Z" fill="white"/>
<path d="M46.3193 60.0453C46.1835 60.0453 45.9836 60.0019 45.7965 59.7955C45.2524 59.194 45.0286 57.4128 45.113 54.3493C45.1735 52.1333 45.3845 50.0535 45.3869 50.0327L45.8124 50.0761C45.5801 52.3501 45.1809 58.4772 46.1145 59.5085C46.2025 59.6056 46.2734 59.6172 46.3193 59.6172C46.3975 59.6172 46.4568 59.5916 46.5112 59.5348C46.8518 59.1794 46.7968 57.9013 46.7607 57.0556C46.7369 56.5042 46.7185 56.0688 46.7778 55.827C47.0407 54.7596 48.9098 54.7285 49.1219 54.7285V55.1559C48.6383 55.1559 47.3489 55.2964 47.1936 55.929C47.1483 56.1122 47.1679 56.5616 47.1887 57.0373C47.2351 58.1181 47.2877 59.343 46.8206 59.8303C46.6867 59.9702 46.5131 60.044 46.3199 60.0446L46.3193 60.0453Z" fill="#9FA9AD"/>
<path d="M48.038 44.3154C48.038 44.3154 47.4021 43.9765 46.85 43.8006C46.3004 43.6254 45.6028 43.6284 45.5973 43.6284C45.5918 43.6284 44.8942 43.626 44.3445 43.8012C43.7925 43.9771 43.1572 44.3166 43.1572 44.3166V45.6765C43.1572 45.6765 44.0939 45.8169 44.3109 46.2517C44.5286 46.6865 44.3611 49.7146 44.4699 50.0004C44.5787 50.2862 45.5985 50.3704 45.5985 50.3704V45.4103L45.5997 50.3704C45.5997 50.3704 46.6195 50.2855 46.7284 49.9998C46.8366 49.714 46.6679 46.6859 46.8849 46.2511C47.1019 45.8163 48.0386 45.6753 48.0386 45.6753V44.3154H48.038Z" fill="#D9E8F4"/>
<path d="M46.7115 44.4301C47.1707 44.4954 47.62 44.6334 48.0376 44.8361V44.3147C48.0376 44.3147 47.4018 43.9758 46.8497 43.7999C46.3 43.6246 45.6018 43.6277 45.5963 43.6277C45.5908 43.6277 44.8932 43.6253 44.3436 43.8005C43.7915 43.9764 43.1562 44.3159 43.1562 44.3159V44.816C43.251 44.7604 43.3409 44.7042 43.3965 44.6841C43.8563 44.5149 44.3515 44.4704 44.8364 44.4325C45.4612 44.3843 46.0915 44.3409 46.7115 44.4294V44.4301Z" fill="#CCD9E2"/>
<path d="M46.8857 47.1401H44.3105V48.6881H46.8857V47.1401Z" fill="#115B6C"/>
<path d="M48.6657 46.2527H43.9727V46.8847H48.6657V46.2527Z" fill="#CCD9E2"/>
<path d="M65.1211 30.0801L70.8902 33.6994C70.8902 33.6994 68.6293 39.2567 68.6611 39.1089C68.6922 38.9606 70.8902 39.112 70.8902 39.112L73.3498 34.4419L68.8512 29.6814L65.1211 30.0807V30.0801Z" fill="#9FA9AD"/>
<path d="M71.6794 64.8076H47.8809V47.6427C47.8809 46.0355 48.9043 44.6017 50.4389 44.0583L66.5088 38.3684C69.0265 37.4769 77.8404 38.2011 77.8404 38.2011L71.6794 64.8076Z" fill="#D9E8F4"/>
<path d="M82.2384 63.7463H81.6221V67.5048H82.2384V63.7463Z" fill="#808789"/>
<path d="M83.8403 67.241C83.8403 68.2943 82.9855 69.148 81.9309 69.148C80.8762 69.148 80.0215 68.2943 80.0215 67.241C80.0215 66.1876 80.8762 65.334 81.9309 65.334C82.9855 65.334 83.8403 66.1876 83.8403 67.241Z" fill="#B5C0C6"/>
<path d="M81.9306 69.2682C80.8117 69.2682 79.9014 68.359 79.9014 67.2415C79.9014 66.1241 80.8117 65.2148 81.9306 65.2148C83.0494 65.2148 83.9598 66.1241 83.9598 67.2415C83.9598 68.359 83.0494 69.2682 81.9306 69.2682ZM81.9306 65.6166C81.0337 65.6166 80.3037 66.3457 80.3037 67.2415C80.3037 68.1373 81.0337 68.8664 81.9306 68.8664C82.8275 68.8664 83.5575 68.1373 83.5575 67.2415C83.5575 66.3457 82.8275 65.6166 81.9306 65.6166Z" fill="#676D70"/>
<path d="M82.6827 67.2408C82.6827 67.6554 82.3459 67.9919 81.9307 67.9919C81.5156 67.9919 81.1787 67.6554 81.1787 67.2408C81.1787 66.8262 81.5156 66.4897 81.9307 66.4897C82.3459 66.4897 82.6827 66.8262 82.6827 67.2408Z" fill="#9DA6AA"/>
<path d="M59.9903 60.5793H59.374V67.3916H59.9903V60.5793Z" fill="#808789"/>
<path d="M61.5922 67.1284C61.5922 68.1818 60.7375 69.0355 59.6828 69.0355C58.6282 69.0355 57.7734 68.1818 57.7734 67.1284C57.7734 66.0751 58.6282 65.2214 59.6828 65.2214C60.7375 65.2214 61.5922 66.0751 61.5922 67.1284Z" fill="#B5C0C6"/>
<path d="M59.6825 69.1552C58.5637 69.1552 57.6533 68.246 57.6533 67.1285C57.6533 66.011 58.5637 65.1018 59.6825 65.1018C60.8014 65.1018 61.7118 66.011 61.7118 67.1285C61.7118 68.246 60.8014 69.1552 59.6825 69.1552ZM59.6825 65.503C58.7856 65.503 58.0556 66.2321 58.0556 67.1279C58.0556 68.0237 58.7856 68.7528 59.6825 68.7528C60.5795 68.7528 61.3095 68.0237 61.3095 67.1279C61.3095 66.2321 60.5795 65.503 59.6825 65.503Z" fill="#676D70"/>
<path d="M60.4347 67.1285C60.4347 67.5431 60.0978 67.8796 59.6827 67.8796C59.2675 67.8796 58.9307 67.5431 58.9307 67.1285C58.9307 66.7139 59.2675 66.3774 59.6827 66.3774C60.0978 66.3774 60.4347 66.7139 60.4347 67.1285Z" fill="#9DA6AA"/>
<path d="M49.1221 63.4343H48.5059V67.3924H49.1221V63.4343Z" fill="#808789"/>
<path d="M50.7231 67.1284C50.7231 68.1818 49.8683 69.0355 48.8137 69.0355C47.759 69.0355 46.9043 68.1818 46.9043 67.1284C46.9043 66.0751 47.759 65.2214 48.8137 65.2214C49.8683 65.2214 50.7231 66.0751 50.7231 67.1284Z" fill="#B5C0C6"/>
<path d="M48.8134 69.1552C47.6946 69.1552 46.7842 68.246 46.7842 67.1285C46.7842 66.011 47.6946 65.1018 48.8134 65.1018C49.9323 65.1018 50.8426 66.011 50.8426 67.1285C50.8426 68.246 49.9323 69.1552 48.8134 69.1552ZM48.8134 65.503C47.9165 65.503 47.1865 66.2321 47.1865 67.1279C47.1865 68.0237 47.9165 68.7528 48.8134 68.7528C49.7103 68.7528 50.4403 68.0237 50.4403 67.1279C50.4403 66.2321 49.7103 65.503 48.8134 65.503Z" fill="#676D70"/>
<path d="M49.5646 67.1285C49.5646 67.5431 49.2277 67.8796 48.8126 67.8796C48.3974 67.8796 48.0605 67.5431 48.0605 67.1285C48.0605 66.7139 48.3974 66.3774 48.8126 66.3774C49.2277 66.3774 49.5646 66.7139 49.5646 67.1285Z" fill="#9DA6AA"/>
<path d="M72.6407 61.187H72.0244V67.9992H72.6407V61.187Z" fill="#808789"/>
<path d="M74.2426 67.7361C74.2426 68.7894 73.3879 69.6431 72.3332 69.6431C71.2786 69.6431 70.4238 68.7894 70.4238 67.7361C70.4238 66.6828 71.2786 65.8291 72.3332 65.8291C73.3879 65.8291 74.2426 66.6828 74.2426 67.7361Z" fill="#B5C0C6"/>
<path d="M72.3329 69.7629C71.2141 69.7629 70.3037 68.8536 70.3037 67.7362C70.3037 66.6187 71.2141 65.7095 72.3329 65.7095C73.4518 65.7095 74.3621 66.6187 74.3621 67.7362C74.3621 68.8536 73.4518 69.7629 72.3329 69.7629ZM72.3329 66.1113C71.436 66.1113 70.706 66.8404 70.706 67.7362C70.706 68.632 71.436 69.3611 72.3329 69.3611C73.2298 69.3611 73.9599 68.632 73.9599 67.7362C73.9599 66.8404 73.2298 66.1113 72.3329 66.1113Z" fill="#676D70"/>
<path d="M73.0851 67.7362C73.0851 68.1508 72.7482 68.4873 72.3331 68.4873C71.9179 68.4873 71.5811 68.1508 71.5811 67.7362C71.5811 67.3216 71.9179 66.9851 72.3331 66.9851C72.7482 66.9851 73.0851 67.3216 73.0851 67.7362Z" fill="#9DA6AA"/>
<path d="M80.9771 64.8076H57.4922V47.6427C57.4922 46.0355 58.5022 44.6017 60.016 44.0583L75.8738 38.3684C78.3585 37.4769 80.9764 39.3161 80.9764 41.9528V64.8082L80.9771 64.8076Z" fill="#CCD9E2"/>
<path d="M83.4285 63.0227H47.3789V64.8076H83.4285V63.0227Z" fill="#9FA9AD"/>
<path d="M83.4288 63.0227H58.1201V64.8076H83.4288V63.0227Z" fill="#808789"/>
<path d="M80.9775 50.6023H74.2423C73.4812 50.6023 72.8643 49.9862 72.8643 49.226C72.8643 48.4657 73.4812 47.8496 74.2423 47.8496H80.9775V50.6023Z" fill="#115B6C"/>
<path d="M80.9775 54.4871H74.2423C73.4812 54.4871 72.8643 53.871 72.8643 53.1107C72.8643 52.3505 73.4812 51.7344 74.2423 51.7344H80.9775V54.4871Z" fill="#115B6C"/>
<path d="M80.9775 58.9925H74.2423C73.4812 58.9925 72.8643 58.3764 72.8643 57.6161C72.8643 56.8559 73.4812 56.2397 74.2423 56.2397H80.9775V58.9925Z" fill="#115B6C"/>
<path d="M53.3447 38.9698L53.4682 42.9853L60.4345 43.2186L68.3502 40.2979L67.8323 36.1072L53.3447 38.9698Z" fill="#9FA9AD"/>
<path d="M72.4333 31.6489L68.9202 37.3138L61.1738 40.2979L61.7143 41.5766L69.9748 38.5283L73.6603 32.8403L72.4333 31.6489Z" fill="#CCD9E2"/>
<path d="M72.433 31.6489H58.7176L55.5323 36.0113L46.5723 40.1147L61.1736 40.2979L68.9199 37.3138L72.433 31.6489Z" fill="#D9E8F4"/>
<path d="M61.7141 40.1147H46.5723V41.5766H61.7141V40.1147Z" fill="#B5C0C6"/>
<path d="M54.6309 37.1966L55.4966 36.6128H56.2761L55.4538 37.1966H54.6309Z" fill="#9FA9AD"/>
<path d="M56.1025 37.1966L56.9683 36.6128H57.7472L56.9249 37.1966H56.1025Z" fill="#9FA9AD"/>
<path d="M57.3428 37.1966L58.2091 36.6128H58.988L58.1657 37.1966H57.3428Z" fill="#9FA9AD"/>
<path d="M58.9014 37.1966L59.7671 36.6128H60.5466L59.7243 37.1966H58.9014Z" fill="#9FA9AD"/>
<path d="M60.5469 37.1966L61.4126 36.6128H62.1915L61.3692 37.1966H60.5469Z" fill="#9FA9AD"/>
<path d="M62.376 37.1966L63.2417 36.6128H64.0206L63.1983 37.1966H62.376Z" fill="#9FA9AD"/>
<path d="M64.4219 37.1966L65.2876 36.6128H66.0665L65.2442 37.1966H64.4219Z" fill="#9FA9AD"/>
<path d="M52.2266 38.1406L53.0923 37.5569H53.8718L53.0489 38.1406H52.2266Z" fill="#9FA9AD"/>
<path d="M53.6982 38.1406L54.5646 37.5569H55.3435L54.5212 38.1406H53.6982Z" fill="#9FA9AD"/>
<path d="M54.9385 38.1406L55.8042 37.5569H56.5837L55.7614 38.1406H54.9385Z" fill="#9FA9AD"/>
<path d="M56.4971 38.1406L57.3628 37.5569H58.1423L57.3194 38.1406H56.4971Z" fill="#9FA9AD"/>
<path d="M58.1426 38.1406L59.0083 37.5569H59.7872L58.9649 38.1406H58.1426Z" fill="#9FA9AD"/>
<path d="M59.9717 38.1406L60.8374 37.5569H61.6163L60.794 38.1406H59.9717Z" fill="#9FA9AD"/>
<path d="M62.0176 38.1406L62.8833 37.5569H63.6622L62.8399 38.1406H62.0176Z" fill="#9FA9AD"/>
<path d="M50.1797 39.2036L51.0454 38.6199H51.825L51.002 39.2036H50.1797Z" fill="#9FA9AD"/>
<path d="M51.6514 39.2036L52.5177 38.6199H53.2966L52.4743 39.2036H51.6514Z" fill="#9FA9AD"/>
<path d="M52.8916 39.2036L53.7573 38.6199H54.5369L53.7145 39.2036H52.8916Z" fill="#9FA9AD"/>
<path d="M54.4502 39.2036L55.3159 38.6199H56.0955L55.2731 39.2036H54.4502Z" fill="#9FA9AD"/>
<path d="M56.0957 39.2036L56.9614 38.6199H57.7404L56.918 39.2036H56.0957Z" fill="#9FA9AD"/>
<path d="M57.9248 39.2036L58.7905 38.6199H59.5694L58.7471 39.2036H57.9248Z" fill="#9FA9AD"/>
<path d="M59.9717 39.2036L60.8374 38.6199H61.6163L60.794 39.2036H59.9717Z" fill="#9FA9AD"/>
<path d="M57.1221 35.5063C57.1465 35.4074 59.1219 32.3994 59.1219 32.3994H70.6773L59.5701 32.7444L57.1221 35.5063Z" fill="#9FA9AD"/>
<path d="M68.3797 34.7662C68.0728 35.2969 67.5366 35.5619 67.1826 35.3573C66.8286 35.1528 66.7901 34.5574 67.0964 34.0262C67.4033 33.4955 67.9389 33.2305 68.2935 33.4351C68.6475 33.6396 68.686 34.235 68.3797 34.7662Z" fill="#115B6C"/>
<path d="M66.0257 33.8388C65.8679 34.1117 65.5922 34.2479 65.4094 34.1428C65.2272 34.0378 65.2076 33.7313 65.3654 33.4577C65.5231 33.1848 65.7989 33.0486 65.981 33.1536C66.1632 33.2587 66.1834 33.5652 66.0251 33.8381L66.0257 33.8388Z" fill="#9FA9AD"/>
<path d="M65.4091 35.1742C65.2514 35.4472 64.9756 35.5833 64.7934 35.4783C64.6112 35.3733 64.5911 35.0667 64.7494 34.7932C64.9071 34.5202 65.1829 34.384 65.3651 34.4891C65.5473 34.5941 65.5675 34.9006 65.4091 35.1736V35.1742Z" fill="#9FA9AD"/>
<path d="M78.9405 18.0764H55.8555V30.4545H78.9405V18.0764Z" fill="#CCD9E2"/>
<path d="M77.8588 19.0901H56.9375V29.4415H77.8588V19.0901Z" fill="#808789"/>
<path d="M58.3327 20.1129H77.8783V19.0901H56.957V29.4415H58.3327V20.1129Z" fill="#6E7475"/>
<path opacity="0.07" d="M56.957 26.8757L63.1988 19.0901H65.1216L56.957 29.4415V26.8757Z" fill="white"/>
<path opacity="0.07" d="M62.0176 29.4415L70.6767 19.0901H72.8643L67.4168 29.4415H62.0176Z" fill="white"/>
<path opacity="0.07" d="M71.9297 29.4415L77.859 21.6138V23.326L74.6058 29.4415H71.9297Z" fill="white"/>
<path d="M101.541 32.1755H88.6807V37.4999H101.541V32.1755Z" fill="#393D47"/>
<path d="M100.005 33.6429C99.8255 33.1898 99.9336 32.7366 100.101 32.1902H96.2926C96.2118 32.4336 96.1438 32.6835 96.0661 32.9224C96.017 33.0733 95.9665 33.2271 95.8764 33.3541C95.7046 33.5962 95.4199 33.703 95.1556 33.8106C93.6298 34.4311 92.2607 35.4701 90.6951 35.9617C90.5344 36.0121 90.3684 36.057 90.2015 36.042C90.0619 36.0294 89.9161 35.9761 89.7863 36.0331C89.5496 36.1373 89.5582 36.5174 89.6937 36.7515C89.8756 37.0657 90.2124 37.2683 90.5557 37.2699C90.7757 37.271 90.9894 37.1958 91.2075 37.1644C91.6449 37.1017 92.0852 37.217 92.5254 37.2498C93.6812 37.336 94.8188 36.8543 95.977 36.8842C97.1758 36.9152 98.785 37.4593 99.5201 37.132C100.425 36.729 100.645 35.2127 100.422 34.5328C100.319 34.2193 100.126 33.9488 100.005 33.6431L100.005 33.6429Z" fill="#62797F"/>
<path d="M92.9052 36.6197C93.0412 36.5976 93.1724 36.5424 93.3098 36.5342C93.3348 36.5328 93.3618 36.5335 93.3819 36.5493C93.4009 36.5643 93.4098 36.5894 93.425 36.6085C93.4574 36.6495 93.5147 36.6578 93.5629 36.6439C93.6111 36.63 93.6527 36.5978 93.694 36.5675C94.2104 36.1877 94.8578 36.0209 95.4773 36.1078C95.6601 36.1335 95.841 36.1804 96.0253 36.1861C96.2097 36.1916 96.4038 36.1508 96.5442 36.0218C96.6015 35.9691 96.651 35.8917 96.6369 35.8119C96.6306 35.777 96.6126 35.7455 96.5905 35.7191C96.4657 35.571 96.2497 35.5955 96.0662 35.5661C95.8527 35.5319 95.6608 35.4118 95.4586 35.3304C95.0482 35.1652 94.5923 35.162 94.1636 35.2589C93.7348 35.356 93.3298 35.5491 92.9421 35.7692C92.8229 35.8369 92.7011 35.9108 92.6223 36.0287C92.5503 36.1364 92.4962 36.3466 92.5359 36.48C92.5823 36.6363 92.779 36.6398 92.9052 36.6193V36.6197Z" fill="#93B5B7"/>
<path d="M96.6459 33.6345C96.5186 33.6755 96.3544 33.6662 96.288 33.7902C96.2668 33.8298 96.2607 33.8766 96.2582 33.9222C96.2416 34.2276 96.3794 34.5376 96.6107 34.7143C96.6054 34.5362 96.7114 34.3601 96.8645 34.2933C97.0177 34.2265 97.2073 34.2732 97.3183 34.4052C97.349 34.4417 97.3743 34.4843 97.4109 34.5139C97.5121 34.5959 97.6615 34.5499 97.7597 34.4642C97.8581 34.3783 97.9279 34.2593 98.0257 34.1729C98.1496 34.0635 98.3168 34.0133 98.4753 34.0379C98.5335 34.0469 98.5963 34.0648 98.6485 34.0354C98.742 33.9828 98.7243 33.8333 98.6845 33.728C98.5776 33.4446 98.4027 33.1829 98.1588 33.0266C97.8856 32.8515 97.5384 32.8292 97.2769 33.0334C97.053 33.2082 96.9235 33.5451 96.6459 33.6347V33.6345Z" fill="#93B5B7"/>
<path d="M97.0368 35.3021C96.9924 35.3881 96.8988 35.4423 96.8749 35.5373C96.8621 35.5884 96.8722 35.6431 96.8901 35.6924C96.9845 35.9529 97.2674 36.0709 97.5255 36.0969C97.7837 36.1231 98.0507 36.0885 98.297 36.1756C98.4227 36.22 98.5491 36.3105 98.5778 36.4496C98.5883 36.5009 98.5846 36.5547 98.5953 36.6061C98.631 36.7783 98.8236 36.8685 98.9844 36.8364C99.1452 36.8045 99.278 36.6848 99.3966 36.5631C99.6286 36.3249 99.8387 36.0618 100.023 35.7789C100.125 35.6221 100.223 35.427 100.16 35.2476C100.127 35.153 100.054 35.0794 100.025 34.9834C99.9935 34.8802 100.017 34.7619 99.9742 34.6639C99.9472 34.603 99.8974 34.5576 99.846 34.5189C99.5363 34.285 99.1435 34.2308 98.7681 34.1836C98.5533 34.1565 98.3138 34.1364 98.143 34.2795C98.0323 34.3721 97.9705 34.5189 97.8634 34.616C97.5964 34.8578 97.3995 34.57 97.1323 34.6245C96.8037 34.6915 97.1557 35.0723 97.037 35.3019L97.0368 35.3021Z" fill="#A1C5C6"/>
<path d="M95.5069 34.2148C95.5012 34.2768 95.5196 34.3382 95.5392 34.3968C95.6858 34.8333 95.9635 35.2636 96.38 35.3803C96.5281 35.4218 96.6988 35.4156 96.818 35.3121C96.9372 35.2084 96.9704 34.988 96.8557 34.8788C96.7546 34.7827 96.5943 34.8066 96.4801 34.7298C96.4107 34.6831 96.3659 34.6046 96.3278 34.5265C96.2372 34.3398 96.1993 33.8975 95.9926 33.8244C95.8036 33.7576 95.5251 34.0181 95.5073 34.2149L95.5069 34.2148Z" fill="#A1C5C6"/>
<path d="M95.1072 34.2141C94.9473 34.2346 94.7847 34.2918 94.6717 34.4156C94.6119 34.481 94.5688 34.5617 94.5164 34.6339C94.4002 34.7939 94.2401 34.9097 94.0764 35.0105C93.6699 35.261 93.2235 35.4363 92.763 35.5263C92.6091 35.5562 92.4515 35.5776 92.3089 35.6462C92.2375 35.6806 92.1673 35.7304 92.1343 35.8069C92.0861 35.9186 92.1298 36.0492 92.175 36.1625C92.2268 36.2925 92.2825 36.4249 92.3753 36.5249C92.4681 36.6248 92.6071 36.687 92.7324 36.6458C92.877 36.5984 92.9574 36.4383 93.0537 36.3127C93.2697 36.0315 93.6124 35.8949 93.9491 35.8575C94.2857 35.8201 94.6247 35.8696 94.9621 35.8967C95.2996 35.9239 95.6477 35.9273 95.966 35.8031C96.0524 35.7695 96.1446 35.7157 96.1691 35.6202C96.1916 35.5323 96.1464 35.4388 96.0836 35.3779C96.0208 35.3171 95.9419 35.2799 95.8699 35.2323C95.7098 35.1263 95.582 34.9644 95.5108 34.7768C95.4571 34.6355 95.4733 34.4436 95.4155 34.3144C95.3653 34.2025 95.2073 34.2011 95.1072 34.2139V34.2141Z" fill="#A1C5C6"/>
<path d="M91.8813 35.8875C91.7389 35.877 91.5937 35.9083 91.4659 35.9769C91.3817 36.0222 91.3055 36.0828 91.2223 36.13C91.077 36.2121 90.911 36.2511 90.7473 36.2417C90.7361 36.241 90.7243 36.2402 90.7136 36.2442C90.6695 36.2606 90.68 36.3304 90.6991 36.3764C90.7394 36.4733 90.7796 36.5702 90.82 36.6671C90.8314 36.6946 90.8432 36.7225 90.863 36.7436C90.8994 36.782 90.9561 36.7893 91.0061 36.7786C91.0561 36.768 91.102 36.7419 91.1493 36.7216C91.2858 36.6628 91.4392 36.6507 91.5821 36.6873C91.6903 36.7149 91.7944 36.7697 91.9056 36.771C92.0168 36.7722 92.1421 36.6917 92.141 36.5716C92.1401 36.4574 92.0312 36.3787 92.0007 36.2693C91.9859 36.2164 91.9905 36.1595 91.9954 36.1045C92.0052 35.9903 92.0171 35.896 91.8818 35.8875H91.8813Z" fill="#A1C5C6"/>
<path d="M90.2676 36.3929C90.1878 36.3975 90.1069 36.3744 90.0396 36.3279C89.9497 36.3917 89.9347 36.526 89.9379 36.6422C89.939 36.6819 89.9415 36.7225 89.9557 36.759C89.97 36.7956 89.9984 36.828 90.0346 36.8353C90.0619 36.8408 90.0903 36.8317 90.118 36.8351C90.1612 36.8404 90.1956 36.8747 90.2297 36.9039C90.3256 36.9857 90.4513 37.0387 90.5705 37.0099C90.6897 36.981 90.7904 36.8506 90.7652 36.7214C90.7488 36.637 90.6571 36.457 90.5921 36.4004C90.5011 36.3208 90.3713 36.3869 90.2674 36.3929H90.2676Z" fill="#A1C5C6"/>
<path d="M96.8402 32.1752C96.7547 32.4428 96.7485 32.8453 96.8913 32.9967C96.918 33.0252 96.9512 33.048 96.988 33.0561C97.0849 33.0773 97.1719 32.9965 97.2549 32.9388C97.5765 32.7152 98.0117 32.8066 98.3434 33.0124C98.3689 33.0283 98.3967 33.0452 98.4256 33.0402C98.4713 33.0324 98.4935 32.9764 98.5051 32.9281C98.5649 32.6808 98.5626 32.4116 98.4751 32.175H96.84L96.8402 32.1752Z" fill="#A1C5C6"/>
<path opacity="0.32" d="M97.36 35.376C97.4138 35.3979 97.4727 35.4013 97.53 35.3981C97.7795 35.3839 98.0207 35.2444 98.1695 35.0276C98.2795 34.8676 98.3404 34.6705 98.4655 34.5242C98.5203 34.4601 98.5912 34.3701 98.5431 34.3001C98.4973 34.233 98.3964 34.2745 98.3427 34.3345C98.2044 34.489 98.144 34.738 97.958 34.8146C97.8288 34.8679 97.6283 34.8608 97.4918 34.8471C97.4179 34.8398 97.2776 34.7624 97.2074 34.7943C96.9793 34.898 97.2044 35.3117 97.36 35.376Z" fill="white"/>
<path opacity="0.32" d="M93.5041 35.3822C93.0439 35.5187 92.5606 35.6099 92.1562 35.8834C92.9436 35.6569 93.7363 35.4526 94.5333 35.2703C94.5831 35.2589 94.6347 35.2477 94.6845 35.2595C94.7345 35.2712 94.777 35.3051 94.8193 35.3361C95.0299 35.4903 95.2728 35.5928 95.5245 35.6336C95.4105 35.5411 95.2966 35.4488 95.1825 35.3564C95.0553 35.253 94.9201 35.1379 94.8775 34.9723C94.8195 34.7465 94.9628 34.6147 95.0942 34.4825C94.8569 34.271 94.6406 34.7341 94.5049 34.8639C94.2251 35.1322 93.8597 35.2767 93.5039 35.3824L93.5041 35.3822Z" fill="white"/>
<path opacity="0.32" d="M90.7982 36.4551C90.7728 36.4632 90.7421 36.4788 90.7432 36.5073C90.9851 36.5608 91.2239 36.417 91.4688 36.3844C91.5559 36.3728 91.6535 36.3791 91.7176 36.4437C91.739 36.4653 91.7587 36.4943 91.7879 36.4979C91.8336 36.5034 91.8615 36.4443 91.8674 36.3949C91.8783 36.3053 91.8597 36.1163 91.7783 36.0605C91.6748 35.9894 91.6007 36.1106 91.5034 36.1724C91.2864 36.3099 91.0379 36.3794 90.7983 36.4551H90.7982Z" fill="white"/>
<path opacity="0.32" d="M99.6173 35.8808C99.8245 35.5679 99.9122 35.1658 99.8559 34.7861C99.9936 35.0518 99.9505 35.3872 99.8404 35.6677C99.6575 36.1332 99.2658 36.5291 98.7992 36.5745C98.7403 36.5802 98.6614 36.5629 98.6562 36.4993C98.6575 36.5161 99.1203 36.3409 99.1693 36.3115C99.3451 36.2054 99.5 36.058 99.6173 35.8809V35.8808Z" fill="white"/>
<path d="M22.8799 90.5338C20.8928 90.5338 19.0963 89.5317 18.187 87.9151C15.8553 83.7675 14.0515 77.4109 13.8975 74.302C13.8901 74.1045 13.8828 73.9144 13.8828 73.7461C13.9048 72.2831 14.2641 70.8421 16.7425 70.2715C32.097 66.7311 48.1846 64.9316 64.5656 64.9316C79.7514 64.9316 94.5852 66.4897 108.664 69.5547C109.749 69.7887 111.56 70.5495 111.546 72.9927C111.582 75.7138 110.475 80.8416 107.234 87.1982C106.405 88.8222 104.616 89.8389 102.563 89.8536L22.8799 90.5338Z" fill="#068389"/>
<path d="M108.443 70.4617C78.8488 64.1636 46.2042 64.5732 16.9691 71.1566C15.1727 71.559 14.938 72.3709 14.916 73.5559C14.916 73.7022 14.916 73.8632 14.9307 74.0314C15.0847 76.9501 16.8591 82.9995 19.0883 86.8691C19.8582 88.2004 21.3834 88.9173 22.9232 88.9099L102.562 88.2516C104.073 88.237 105.62 87.5494 106.317 86.2107C109.279 80.5271 110.548 75.5675 110.511 72.8683C110.511 72.5319 110.643 70.9299 108.45 70.4617H108.443Z" fill="url(#paint0_linear_923_15816)"/>
<path opacity="0.11" d="M14.9312 73.183C15.0851 76.2698 16.8596 82.6631 19.0887 86.7521C19.8587 88.1566 21.3838 88.9173 22.9237 88.91L102.563 88.2151C104.073 88.2005 105.621 87.4763 106.317 86.0572C106.552 85.5817 106.772 85.1136 106.984 84.6454C42.2744 90.1536 21.5818 79.0934 14.9898 71.9102C14.9458 72.1515 14.9312 72.4076 14.9238 72.6855C14.9238 72.8392 14.9238 73.0074 14.9385 73.183H14.9312Z" fill="#965F0F"/>
<path d="M20.6277 82.1072C21.6928 82.1072 22.5562 81.2458 22.5562 80.1833C22.5562 79.1208 21.6928 78.2595 20.6277 78.2595C19.5626 78.2595 18.6992 79.1208 18.6992 80.1833C18.6992 81.2458 19.5626 82.1072 20.6277 82.1072Z" fill="url(#paint1_linear_923_15816)"/>
<path d="M20.3427 82.1583C19.1988 82.1583 18.2676 81.2293 18.2676 80.0882C18.2676 78.9471 19.1988 78.0181 20.3427 78.0181C21.4866 78.0181 22.4178 78.9471 22.4178 80.0882C22.4178 81.2293 21.4866 82.1583 20.3427 82.1583Z" fill="#068389"/>
<path d="M20.4451 82.0195C21.5101 82.0195 22.3735 81.1582 22.3735 80.0957C22.3735 79.0332 21.5101 78.1719 20.4451 78.1719C19.38 78.1719 18.5166 79.0332 18.5166 80.0957C18.5166 81.1582 19.38 82.0195 20.4451 82.0195Z" fill="url(#paint2_radial_923_15816)"/>
<path d="M105.4 82.1072C106.465 82.1072 107.329 81.2458 107.329 80.1833C107.329 79.1208 106.465 78.2595 105.4 78.2595C104.335 78.2595 103.472 79.1208 103.472 80.1833C103.472 81.2458 104.335 82.1072 105.4 82.1072Z" fill="url(#paint3_linear_923_15816)"/>
<path d="M105.115 82.1583C103.971 82.1583 103.04 81.2293 103.04 80.0882C103.04 78.9471 103.971 78.0181 105.115 78.0181C106.259 78.0181 107.19 78.9471 107.19 80.0882C107.19 81.2293 106.259 82.1583 105.115 82.1583Z" fill="#068389"/>
<path d="M105.218 82.0195C106.283 82.0195 107.146 81.1582 107.146 80.0957C107.146 79.0332 106.283 78.1719 105.218 78.1719C104.152 78.1719 103.289 79.0332 103.289 80.0957C103.289 81.1582 104.152 82.0195 105.218 82.0195Z" fill="url(#paint4_radial_923_15816)"/>
<path d="M108.443 70.4617C78.8488 64.1636 46.2042 64.5732 16.9691 71.1566C15.1727 71.559 14.938 72.3709 14.916 73.5559C14.916 73.5559 15.0847 72.7659 17.4091 72.0564C27.2348 69.0573 69.6024 62.3056 107.497 71.1566C108.876 71.4785 109.58 71.7272 110.496 72.861C110.496 72.5245 110.628 70.9226 108.436 70.4544L108.443 70.4617Z" fill="url(#paint5_linear_923_15816)"/>
<ellipse cx="62.27" cy="117.721" rx="11.686" ry="0.402872" fill="#F9F9F9"/>
<ellipse cx="62.2698" cy="121.4" rx="7.13409" ry="0.245945" fill="#F9F9F9"/>
<path d="M32.1289 82.7798C32.0156 82.7798 31.9004 82.7681 31.7832 82.7446C31.6699 82.7212 31.5488 82.686 31.4199 82.6392V81.6138C31.6035 81.645 31.7871 81.6606 31.9707 81.6606C32.2285 81.6606 32.418 81.5825 32.5391 81.4263C32.6641 81.27 32.7266 81.0239 32.7266 80.688V76.2524C32.5859 76.2603 32.4453 76.27 32.3047 76.2817C32.168 76.2935 32.0293 76.3032 31.8887 76.311V75.2095C32.2988 75.1704 32.6836 75.1392 33.043 75.1157C33.4062 75.0923 33.7461 75.0747 34.0625 75.063C34.3828 75.0513 34.6797 75.0454 34.9531 75.0454C35.3203 75.0454 35.6348 75.0591 35.8965 75.0864C36.1621 75.1099 36.3926 75.1509 36.5879 75.2095C36.7832 75.2642 36.9609 75.3364 37.1211 75.4263C37.3281 75.5396 37.4961 75.6724 37.625 75.8247C37.7578 75.9731 37.8652 76.1626 37.9473 76.3931C37.998 76.5376 38.0352 76.7017 38.0586 76.8853C38.082 77.0649 38.0938 77.2642 38.0938 77.4829V82.7329H36.7168V77.5298C36.7168 77.1235 36.627 76.8169 36.4473 76.6099C36.2676 76.4028 36.002 76.2681 35.6504 76.2056C35.4785 76.1665 35.252 76.147 34.9707 76.147C34.8418 76.147 34.7051 76.1489 34.5605 76.1528C34.416 76.1567 34.2637 76.1626 34.1035 76.1704V80.688C34.1035 80.9263 34.0859 81.1431 34.0508 81.3384C34.0195 81.5337 33.9629 81.7153 33.8809 81.8833C33.7793 82.1021 33.6406 82.2798 33.4648 82.4165C33.3047 82.5376 33.1133 82.6294 32.8906 82.6919C32.6719 82.7505 32.418 82.7798 32.1289 82.7798ZM40.0918 82.7329V75.1626H41.4688V82.7329H40.0918ZM43.0508 82.7329L43.5488 77.354C43.5605 77.2563 43.5684 77.1704 43.5723 77.0962C43.5762 77.022 43.5781 76.9478 43.5781 76.8735C43.5781 76.7407 43.5703 76.6138 43.5547 76.4927C43.543 76.3716 43.5215 76.2427 43.4902 76.106C43.4785 76.0513 43.459 75.979 43.4316 75.8892C43.4043 75.7993 43.377 75.7114 43.3496 75.6255C43.3262 75.5356 43.3066 75.4692 43.291 75.4263C43.2754 75.3755 43.2578 75.3286 43.2383 75.2856C43.2227 75.2388 43.207 75.1899 43.1914 75.1392H44.4629C44.5293 75.2837 44.5859 75.4224 44.6328 75.5552C44.6797 75.688 44.7148 75.8169 44.7383 75.9419H44.8145C44.8691 75.8638 44.9727 75.7661 45.125 75.6489C45.2812 75.5317 45.4336 75.4341 45.582 75.356C45.7383 75.2778 45.9395 75.2075 46.1855 75.145C46.4316 75.0786 46.6973 75.0454 46.9824 75.0454C47.2754 75.0454 47.5391 75.0864 47.7734 75.1685C48.0117 75.2466 48.2188 75.356 48.3945 75.4966C48.5078 75.5903 48.6074 75.6938 48.6934 75.8071C48.7832 75.9165 48.8613 76.0356 48.9277 76.1646C49.041 76.3989 49.125 76.6665 49.1797 76.9673C49.2383 77.2681 49.2676 77.6021 49.2676 77.9692V82.7329H46.3555V81.6372H47.8789V77.9692C47.8789 77.6997 47.8535 77.4614 47.8027 77.2544C47.752 77.0474 47.6777 76.8755 47.5801 76.7388C47.5176 76.6294 47.4414 76.5317 47.3516 76.4458C47.2617 76.356 47.1523 76.2876 47.0234 76.2407C46.8945 76.1899 46.7402 76.1646 46.5605 76.1646C46.3379 76.1646 46.1309 76.1978 45.9395 76.2642C45.748 76.3306 45.5898 76.4106 45.4648 76.5044C45.3477 76.5942 45.2422 76.6938 45.1484 76.8032C45.0547 76.9087 44.9785 77.0181 44.9199 77.1313L44.4102 82.7329H43.0508ZM51.2305 80.0786V75.1626H52.6074V78.9829L51.7344 80.0786H51.2305ZM57.0371 82.7329V77.6821C57.0371 77.4946 57.0586 77.3208 57.1016 77.1606C57.1445 76.9966 57.1992 76.8599 57.2656 76.7505C57.3359 76.6372 57.4062 76.5415 57.4766 76.4634C57.5508 76.3853 57.6348 76.3149 57.7285 76.2524H53.7559V75.1626H59.5449V76.147C59.3535 76.2212 59.1816 76.3032 59.0293 76.3931C58.877 76.4829 58.7559 76.5942 58.666 76.7271C58.498 76.9536 58.4141 77.2778 58.4141 77.6997V82.7329H57.0371ZM65.1992 82.7329V77.5298C65.1992 77.1392 65.1172 76.8442 64.9531 76.645C64.7891 76.4419 64.543 76.3071 64.2148 76.2407C64.1211 76.2095 64.0039 76.186 63.8633 76.1704C63.7266 76.1509 63.5703 76.1411 63.3945 76.1411C63.1094 76.1411 62.7598 76.1548 62.3457 76.1821C61.9316 76.2095 61.416 76.2524 60.7988 76.311V75.2095C60.9941 75.1821 61.1875 75.1606 61.3789 75.145C61.5703 75.1294 61.7598 75.1157 61.9473 75.104C62.248 75.0845 62.5293 75.0708 62.791 75.063C63.0566 75.0513 63.3008 75.0454 63.5234 75.0454C63.9727 75.0454 64.3457 75.0688 64.6426 75.1157C64.9395 75.1587 65.207 75.2329 65.4453 75.3384C65.6836 75.4478 65.8809 75.5806 66.0371 75.7368C66.1973 75.8931 66.3223 76.0923 66.4121 76.3345C66.4746 76.5142 66.5195 76.6978 66.5469 76.8853C66.5742 77.0728 66.5879 77.2876 66.5879 77.5298V82.7329H65.1992ZM60.7988 82.7329V78.1274H62.1758V82.7329H60.7988ZM71.6035 82.7329V75.2095C71.6855 75.1938 71.791 75.1802 71.9199 75.1685C72.0488 75.1567 72.1973 75.145 72.3652 75.1333C72.7207 75.1021 73.0605 75.0806 73.3848 75.0688C73.709 75.0532 74.0195 75.0454 74.3164 75.0454C74.7852 75.0454 75.1738 75.0708 75.4824 75.1216C75.791 75.1685 76.0703 75.2505 76.3203 75.3677C76.5273 75.4614 76.7031 75.5786 76.8477 75.7192C76.9922 75.8599 77.1094 76.0376 77.1992 76.2524C77.2656 76.4048 77.3145 76.5728 77.3457 76.7563C77.377 76.9399 77.3926 77.1411 77.3926 77.3599V82.7329H71.6035ZM72.9863 81.6372H76.0098V77.3306C76.0098 77.1235 75.9824 76.9497 75.9277 76.8091C75.873 76.6685 75.791 76.5532 75.6816 76.4634C75.5957 76.3892 75.4922 76.3306 75.3711 76.2876C75.2539 76.2446 75.1211 76.2134 74.9727 76.1938C74.8828 76.1743 74.7734 76.1626 74.6445 76.1587C74.5195 76.1509 74.373 76.147 74.2051 76.147C74.0488 76.147 73.8672 76.1528 73.6602 76.1646C73.457 76.1724 73.2324 76.1841 72.9863 76.1997V81.6372ZM81.0312 82.7329L81.623 79.8325L82.6602 76.2583H78.6992V73.5864H80.0762V75.1392H84.0488V76.147L82.9824 79.8325L82.4023 82.7329H81.0312ZM85.4902 82.7329V75.1626H86.8672V82.7329H85.4902ZM88.2383 83.0786V81.9595L89.7148 81.7427C89.8203 81.7231 89.9258 81.7036 90.0312 81.6841C90.1406 81.6606 90.25 81.6353 90.3594 81.6079L88.6367 75.1626H90.0078L90.9102 78.52L91.5137 81.1743C91.7988 81.0142 92.0508 80.8052 92.2695 80.5474C92.4922 80.2896 92.6738 79.9888 92.8145 79.645C92.9551 79.2974 93.0469 78.9165 93.0898 78.5024L93.4004 75.1626H94.7422L94.4316 78.4497C94.4043 78.7466 94.3555 79.0298 94.2852 79.2993C94.2188 79.5649 94.1309 79.8169 94.0215 80.0552C93.9121 80.2935 93.7832 80.5161 93.6348 80.7231C93.3262 81.2661 92.8945 81.7114 92.3398 82.0591C91.7891 82.4028 91.123 82.6353 90.3418 82.7563C89.9629 82.8149 89.5977 82.8696 89.2461 82.9204C88.8984 82.9751 88.5625 83.0278 88.2383 83.0786Z" fill="#292A2C"/>
<defs>
<linearGradient id="paint0_linear_923_15816" x1="14.9233" y1="77.4402" x2="110.504" y2="77.4402" gradientUnits="userSpaceOnUse">
<stop stop-color="#16BFBF"/>
<stop offset="0.08" stop-color="#1FC2C2"/>
<stop offset="0.21" stop-color="#38CBCA"/>
<stop offset="0.37" stop-color="#60D9D7"/>
<stop offset="0.53" stop-color="#8FEAE7"/>
<stop offset="0.65" stop-color="#73E0DD"/>
<stop offset="0.91" stop-color="#2EC7C7"/>
<stop offset="1" stop-color="#16BFBF"/>
</linearGradient>
<linearGradient id="paint1_linear_923_15816" x1="21.3389" y1="76.226" x2="20.0471" y2="83.4469" gradientUnits="userSpaceOnUse">
<stop offset="0.49" stop-color="white" stop-opacity="0"/>
<stop offset="1" stop-color="white" stop-opacity="0.8"/>
</linearGradient>
<radialGradient id="paint2_radial_923_15816" cx="0" cy="0" r="1" gradientUnits="userSpaceOnUse" gradientTransform="translate(14.7697 73.9512) scale(12.5021 12.4719)">
<stop offset="0.56" stop-color="#8FEAE7" stop-opacity="0.87"/>
<stop offset="0.59" stop-color="#88E5E2" stop-opacity="0.88"/>
<stop offset="0.63" stop-color="#76D7D6" stop-opacity="0.89"/>
<stop offset="0.67" stop-color="#58C1C1" stop-opacity="0.92"/>
<stop offset="0.71" stop-color="#2FA2A5" stop-opacity="0.96"/>
<stop offset="0.75" stop-color="#068389"/>
<stop offset="0.84" stop-color="#08848A"/>
<stop offset="0.88" stop-color="#118B90" stop-opacity="0.99"/>
<stop offset="0.91" stop-color="#20979B" stop-opacity="0.97"/>
<stop offset="0.94" stop-color="#36A7AA" stop-opacity="0.95"/>
<stop offset="0.96" stop-color="#52BCBD" stop-opacity="0.93"/>
<stop offset="0.99" stop-color="#75D6D5" stop-opacity="0.89"/>
<stop offset="1" stop-color="#8FEAE7" stop-opacity="0.87"/>
</radialGradient>
<linearGradient id="paint3_linear_923_15816" x1="106.111" y1="76.226" x2="104.82" y2="83.4469" gradientUnits="userSpaceOnUse">
<stop offset="0.49" stop-color="white" stop-opacity="0"/>
<stop offset="1" stop-color="white" stop-opacity="0.8"/>
</linearGradient>
<radialGradient id="paint4_radial_923_15816" cx="0" cy="0" r="1" gradientUnits="userSpaceOnUse" gradientTransform="translate(99.5421 73.9512) scale(12.5021 12.4719)">
<stop offset="0.56" stop-color="#8FEAE7" stop-opacity="0.87"/>
<stop offset="0.59" stop-color="#88E5E2" stop-opacity="0.88"/>
<stop offset="0.63" stop-color="#76D7D6" stop-opacity="0.89"/>
<stop offset="0.67" stop-color="#58C1C1" stop-opacity="0.92"/>
<stop offset="0.71" stop-color="#2FA2A5" stop-opacity="0.96"/>
<stop offset="0.75" stop-color="#068389"/>
<stop offset="0.84" stop-color="#08848A"/>
<stop offset="0.88" stop-color="#118B90" stop-opacity="0.99"/>
<stop offset="0.91" stop-color="#20979B" stop-opacity="0.97"/>
<stop offset="0.94" stop-color="#36A7AA" stop-opacity="0.95"/>
<stop offset="0.96" stop-color="#52BCBD" stop-opacity="0.93"/>
<stop offset="0.99" stop-color="#75D6D5" stop-opacity="0.89"/>
<stop offset="1" stop-color="#8FEAE7" stop-opacity="0.87"/>
</radialGradient>
<linearGradient id="paint5_linear_923_15816" x1="14.9233" y1="69.7668" x2="110.504" y2="69.7668" gradientUnits="userSpaceOnUse">
<stop offset="0.03" stop-color="white" stop-opacity="0.5"/>
<stop offset="0.49" stop-color="white" stop-opacity="0"/>
<stop offset="1" stop-color="white" stop-opacity="0.5"/>
</linearGradient>
</defs>
</svg>
