<?xml version="1.0" encoding="UTF-8"?>
<svg id="Layer_1"
    xmlns="http://www.w3.org/2000/svg" width="55.2mm" height="11.3mm"
    xmlns:xlink="http://www.w3.org/1999/xlink" viewBox="0 0 156.48 32.04">
    <defs>
        <linearGradient id="linear-gradient" x1="85.79" y1="28.92" x2="85.64" y2="-3.86" gradientTransform="translate(0 32.63) scale(1 -1)" gradientUnits="userSpaceOnUse">
            <stop offset=".23" stop-color="#ffd900"/>
            <stop offset=".95" stop-color="#e83c83"/>
        </linearGradient>
        <linearGradient id="linear-gradient-2" x1="16.56" y1="7.79" x2="17.11" y2="27.36" gradientUnits="userSpaceOnUse">
            <stop offset=".23" stop-color="#ffd900"/>
            <stop offset=".95" stop-color="#ffc200"/>
        </linearGradient>
        <linearGradient id="linear-gradient-3" x1="-221.83" y1="-190.34" x2="-225.09" y2="-197.88" gradientTransform="translate(36.28 303.38) rotate(44.81)" gradientUnits="userSpaceOnUse">
            <stop offset=".09" stop-color="#fff"/>
            <stop offset="1" stop-color="#fff" stop-opacity=".1"/>
        </linearGradient>
        <linearGradient id="linear-gradient-4" x1="30.05" y1="15.06" x2="23.77" y2="10.3" gradientUnits="userSpaceOnUse">
            <stop offset=".23" stop-color="#fff"/>
            <stop offset="1" stop-color="#fff" stop-opacity=".1"/>
        </linearGradient>
    </defs>
    <g id="background">
        <rect x="14.94" y="6.75" width="141.54" height="23.25" rx="10.41" ry="10.41" fill="#8a2e60"/>
        <rect x="16.03" y="7.88" width="139.35" height="20.99" rx="9.3" ry="9.3" fill="#f6ef8f"/>
        <rect x="17.12" y="9.02" width="137.17" height="18.72" rx="8.19" ry="8.19" fill="url(#linear-gradient)"/>
    </g>
    <g id="uncompletedStars">
        <g>
            <path d="m143.97,23.56c-.06,0-.12-.02-.17-.05l-2.98-1.62h-.04l-3.02,1.53c-.05.03-.11.04-.17.04-.11,0-.21-.05-.28-.13-.07-.08-.1-.19-.08-.3l.62-3.33s0-.03,0-.04l-2.39-2.4c-.1-.1-.13-.24-.09-.38s.16-.23.3-.25l3.36-.44s.03,0,.04-.03l1.54-3.02c.06-.12.19-.2.33-.2s.27.08.33.21l1.46,3.06s.02.02.04.03l3.34.53c.14.02.25.12.29.25s0,.28-.1.37l-2.46,2.33s-.02.03,0,.04l.52,3.35c.02.11,0,.21-.08.29s-.17.13-.28.13h0v.03Z" fill="#962363" stroke="#962363" stroke-miterlimit="10" stroke-width=".28"/>
            <path d="m143.97,23.22h0l-2.97-1.62c-.06-.03-.12-.05-.19-.05-.06,0-.12,0-.18.04l-3.02,1.53h0s-.02,0-.02,0v-.02l.62-3.33c.02-.13-.02-.25-.11-.35l-2.39-2.4v-.03s0-.02.02-.02l3.36-.44c.13-.02.24-.1.3-.21l1.54-3.01s0,0,.02,0,.02,0,.02,0l1.46,3.06c.05.12.16.2.29.22l3.35.54s.02,0,.02.02v.03l-2.58,2.29c-.09.09-.14.22-.12.34l.65,3.38v.02h-.02l-.03.02Z" fill="#962363"/>
            <path d="m143.97,23.22h0l-2.97-1.62c-.06-.03-.12-.05-.19-.05-.06,0-.12,0-.18.04l-3.02,1.53h0s-.02,0-.02,0v-.02l.62-3.33c.02-.13-.02-.25-.11-.35l-2.39-2.4v-.03s0-.02.02-.02l3.36-.44c.13-.02.24-.1.3-.21l1.54-3.01s0,0,.02,0,.02,0,.02,0l1.46,3.06c.05.12.16.2.29.22l3.35.54s.02,0,.02.02v.03l-2.58,2.29c-.09.09-.14.22-.12.34l.65,3.38v.02h-.02l-.03.02Z" fill="#962363"/>
            <path d="m143.55,16.69l-1-.16c-.06,0-.11-.05-.14-.11l-1.33-2.87c-.07-.15-.27-.15-.34,0l-1.4,2.83c-.03.06-.08.1-.14.1l-3.06.41c-.15.02-.22.22-.11.33l2.13,2.02c1.71-.2,3.91-.9,5.39-2.54h0Z" fill="#962363" isolation="isolate" opacity=".29"/>
            <path d="m143.47,19.53l2.25-2.18c.11-.11.05-.31-.1-.33l-2.06-.34-1-.16c-.06,0-.11-.05-.14-.11l-1.33-2.87c-.07-.15-.27-.15-.34,0l-1.41,2.82c-.03.06-.08.1-.14.1l-1.94.26c1.83,2.11,4.23,4.37,6.46,4.9l-.29-1.93c0-.06,0-.13.06-.17h-.02Z" fill="#962363" isolation="isolate" opacity=".26"/>
            <path d="m140.47,15.46c-.12.25-.49.84-.62.78s.03-.74.15-1,.32-.41.45-.35.13.32,0,.57h.01Z" fill="#962363" isolation="isolate" opacity=".79"/>
            <path d="m144.4,16.96c.46.08.82.11.8.25s-.42.18-.88.1-1.05-.14-.79-.4c.1-.1.41-.03.87.05Z" fill="#962363" isolation="isolate" opacity=".79"/>
        </g>
        <g>
            <path d="m129.79,23.56c-.06,0-.12-.02-.17-.05l-2.98-1.62h-.04l-3.02,1.53c-.05.03-.11.04-.17.04-.11,0-.21-.05-.28-.13-.07-.08-.1-.19-.08-.3l.62-3.33s0-.03,0-.04l-2.39-2.4c-.1-.1-.13-.24-.09-.38s.16-.23.3-.25l3.36-.44s.03,0,.04-.03l1.54-3.02c.06-.12.19-.2.33-.2s.27.08.33.21l1.46,3.06s.02.02.04.03l3.34.53c.14.02.25.12.29.25s0,.28-.1.37l-2.46,2.33s-.02.03,0,.04l.52,3.35c.02.11,0,.21-.08.29s-.17.13-.28.13h0v.03Z" fill="#962363" stroke="#962363" stroke-miterlimit="10" stroke-width=".28"/>
            <path d="m129.79,23.22h0l-2.97-1.62c-.06-.03-.12-.05-.19-.05-.06,0-.12,0-.18.04l-3.02,1.53h0s-.02,0-.02,0v-.02l.62-3.33c.02-.13-.02-.25-.11-.35l-2.39-2.4v-.03s0-.02.02-.02l3.36-.44c.13-.02.24-.1.3-.21l1.54-3.01s0,0,.02,0,.02,0,.02,0l1.46,3.06c.05.12.16.2.29.22l3.35.54s.02,0,.02.02v.03l-2.58,2.29c-.09.09-.14.22-.12.34l.65,3.38v.02h-.02l-.03.02Z" fill="#962363"/>
            <path d="m129.79,23.22h0l-2.97-1.62c-.06-.03-.12-.05-.19-.05-.06,0-.12,0-.18.04l-3.02,1.53h0s-.02,0-.02,0v-.02l.62-3.33c.02-.13-.02-.25-.11-.35l-2.39-2.4v-.03s0-.02.02-.02l3.36-.44c.13-.02.24-.1.3-.21l1.54-3.01s0,0,.02,0,.02,0,.02,0l1.46,3.06c.05.12.16.2.29.22l3.35.54s.02,0,.02.02v.03l-2.58,2.29c-.09.09-.14.22-.12.34l.65,3.38v.02h-.02l-.03.02Z" fill="#962363"/>
            <path d="m129.37,16.69l-1-.16c-.06,0-.11-.05-.14-.11l-1.33-2.87c-.07-.15-.27-.15-.34,0l-1.4,2.83c-.03.06-.08.1-.14.1l-3.06.41c-.15.02-.22.22-.11.33l2.13,2.02c1.71-.2,3.91-.9,5.39-2.54h0Z" fill="#962363" isolation="isolate" opacity=".29"/>
            <path d="m129.29,19.53l2.25-2.18c.11-.11.05-.31-.1-.33l-2.06-.34-1-.16c-.06,0-.11-.05-.14-.11l-1.33-2.87c-.07-.15-.27-.15-.34,0l-1.41,2.82c-.03.06-.08.1-.14.1l-1.94.26c1.83,2.11,4.23,4.37,6.46,4.9l-.29-1.93c0-.06,0-.13.06-.17h-.02Z" fill="#962363" isolation="isolate" opacity=".26"/>
            <path d="m126.29,15.46c-.12.25-.49.84-.62.78s.03-.74.15-1,.32-.41.45-.35.13.32,0,.57h.01Z" fill="#962363" isolation="isolate" opacity=".79"/>
            <path d="m130.22,16.96c.46.08.82.11.8.25s-.42.18-.88.1-1.05-.14-.79-.4c.1-.1.41-.03.87.05Z" fill="#962363" isolation="isolate" opacity=".79"/>
        </g>
        <g>
            <path d="m115.62,23.56c-.06,0-.12-.02-.17-.05l-2.98-1.62h-.04l-3.02,1.53c-.05.03-.11.04-.17.04-.11,0-.21-.05-.28-.13-.07-.08-.1-.19-.08-.3l.62-3.33s0-.03,0-.04l-2.39-2.4c-.1-.1-.13-.24-.09-.38s.16-.23.3-.25l3.36-.44s.03,0,.04-.03l1.54-3.02c.06-.12.19-.2.33-.2s.27.08.33.21l1.46,3.06s.02.02.04.03l3.34.53c.14.02.25.12.29.25s0,.28-.1.37l-2.46,2.33s-.02.03,0,.04l.52,3.35c.02.11,0,.21-.08.29s-.17.13-.28.13h0v.03Z" fill="#962363" stroke="#962363" stroke-miterlimit="10" stroke-width=".28"/>
            <path d="m115.62,23.22h0l-2.97-1.62c-.06-.03-.12-.05-.19-.05-.06,0-.12,0-.18.04l-3.02,1.53h0s-.02,0-.02,0v-.02l.62-3.33c.02-.13-.02-.25-.11-.35l-2.39-2.4v-.03s0-.02.02-.02l3.36-.44c.13-.02.24-.1.3-.21l1.54-3.01s0,0,.02,0,.02,0,.02,0l1.46,3.06c.05.12.16.2.29.22l3.35.54s.02,0,.02.02v.03l-2.58,2.29c-.09.09-.14.22-.12.34l.65,3.38v.02h-.02l-.03.02Z" fill="#962363"/>
            <path d="m115.62,23.22h0l-2.97-1.62c-.06-.03-.12-.05-.19-.05-.06,0-.12,0-.18.04l-3.02,1.53h0s-.02,0-.02,0v-.02l.62-3.33c.02-.13-.02-.25-.11-.35l-2.39-2.4v-.03s0-.02.02-.02l3.36-.44c.13-.02.24-.1.3-.21l1.54-3.01s0,0,.02,0,.02,0,.02,0l1.46,3.06c.05.12.16.2.29.22l3.35.54s.02,0,.02.02v.03l-2.58,2.29c-.09.09-.14.22-.12.34l.65,3.38v.02h-.02l-.03.02Z" fill="#962363"/>
            <path d="m115.2,16.69l-1-.16c-.06,0-.11-.05-.14-.11l-1.33-2.87c-.07-.15-.27-.15-.34,0l-1.4,2.83c-.03.06-.08.1-.14.1l-3.06.41c-.15.02-.22.22-.11.33l2.13,2.02c1.71-.2,3.91-.9,5.39-2.54h0Z" fill="#962363" isolation="isolate" opacity=".29"/>
            <path d="m115.12,19.53l2.25-2.18c.11-.11.05-.31-.1-.33l-2.06-.34-1-.16c-.06,0-.11-.05-.14-.11l-1.33-2.87c-.07-.15-.27-.15-.34,0l-1.41,2.82c-.03.06-.08.1-.14.1l-1.94.26c1.83,2.11,4.23,4.37,6.46,4.9l-.29-1.93c0-.06,0-.13.06-.17h-.02Z" fill="#962363" isolation="isolate" opacity=".26"/>
            <path d="m112.12,15.46c-.12.25-.49.84-.62.78s.03-.74.15-1,.32-.41.45-.35.13.32,0,.57h.01Z" fill="#962363" isolation="isolate" opacity=".79"/>
            <path d="m116.05,16.96c.46.08.82.11.8.25s-.42.18-.88.1-1.05-.14-.79-.4c.1-.1.41-.03.87.05Z" fill="#962363" isolation="isolate" opacity=".79"/>
        </g>
        <g>
            <path d="m101.44,23.56c-.06,0-.12-.02-.17-.05l-2.98-1.62h-.04l-3.02,1.53c-.05.03-.11.04-.17.04-.11,0-.21-.05-.28-.13-.07-.08-.1-.19-.08-.3l.62-3.33s0-.03,0-.04l-2.39-2.4c-.1-.1-.13-.24-.09-.38s.16-.23.3-.25l3.36-.44s.03,0,.04-.03l1.54-3.02c.06-.12.19-.2.33-.2s.27.08.33.21l1.46,3.06s.02.02.04.03l3.34.53c.14.02.25.12.29.25s0,.28-.1.37l-2.46,2.33s-.02.03,0,.04l.52,3.35c.02.11,0,.21-.08.29s-.17.13-.28.13h0v.03Z" fill="#962363" stroke="#962363" stroke-miterlimit="10" stroke-width=".28"/>
            <path d="m101.44,23.22h0l-2.97-1.62c-.06-.03-.12-.05-.19-.05-.06,0-.12,0-.18.04l-3.02,1.53h0s-.02,0-.02,0v-.02l.62-3.33c.02-.13-.02-.25-.11-.35l-2.39-2.4v-.03s0-.02.02-.02l3.36-.44c.13-.02.24-.1.3-.21l1.54-3.01s0,0,.02,0,.02,0,.02,0l1.46,3.06c.05.12.16.2.29.22l3.35.54s.02,0,.02.02v.03l-2.58,2.29c-.09.09-.14.22-.12.34l.65,3.38v.02h-.02l-.03.02Z" fill="#962363"/>
            <path d="m101.44,23.22h0l-2.97-1.62c-.06-.03-.12-.05-.19-.05-.06,0-.12,0-.18.04l-3.02,1.53h0s-.02,0-.02,0v-.02l.62-3.33c.02-.13-.02-.25-.11-.35l-2.39-2.4v-.03s0-.02.02-.02l3.36-.44c.13-.02.24-.1.3-.21l1.54-3.01s0,0,.02,0,.02,0,.02,0l1.46,3.06c.05.12.16.2.29.22l3.35.54s.02,0,.02.02v.03l-2.58,2.29c-.09.09-.14.22-.12.34l.65,3.38v.02h-.02l-.03.02Z" fill="#962363"/>
            <path d="m101.02,16.69l-1-.16c-.06,0-.11-.05-.14-.11l-1.33-2.87c-.07-.15-.27-.15-.34,0l-1.4,2.83c-.03.06-.08.1-.14.1l-3.06.41c-.15.02-.22.22-.11.33l2.13,2.02c1.71-.2,3.91-.9,5.39-2.54h0Z" fill="#962363" isolation="isolate" opacity=".29"/>
            <path d="m100.94,19.53l2.25-2.18c.11-.11.05-.31-.1-.33l-2.06-.34-1-.16c-.06,0-.11-.05-.14-.11l-1.33-2.87c-.07-.15-.27-.15-.34,0l-1.41,2.82c-.03.06-.08.1-.14.1l-1.94.26c1.83,2.11,4.23,4.37,6.46,4.9l-.29-1.93c0-.06,0-.13.06-.17h-.02Z" fill="#962363" isolation="isolate" opacity=".26"/>
            <path d="m97.94,15.46c-.12.25-.49.84-.62.78s.03-.74.15-1,.32-.41.45-.35.13.32,0,.57h.01Z" fill="#962363" isolation="isolate" opacity=".79"/>
            <path d="m101.87,16.96c.46.08.82.11.8.25s-.42.18-.88.1-1.05-.14-.79-.4c.1-.1.41-.03.87.05Z" fill="#962363" isolation="isolate" opacity=".79"/>
        </g>
        <g>
            <path d="m87.26,23.56c-.06,0-.12-.02-.17-.05l-2.98-1.62h-.04l-3.02,1.53c-.05.03-.11.04-.17.04-.11,0-.21-.05-.28-.13s-.1-.19-.08-.3l.62-3.33s0-.03-.01-.04l-2.39-2.4c-.1-.1-.13-.24-.09-.38s.16-.23.3-.25l3.36-.44s.03,0,.04-.03l1.54-3.02c.06-.12.19-.2.33-.2s.27.08.33.21l1.46,3.06s.02.02.04.03l3.34.53c.14.02.25.12.29.25s0,.28-.1.37l-2.46,2.33s-.02.03-.01.04l.52,3.35c.02.11-.01.21-.08.29s-.17.13-.28.13h0v.03Z" fill="#962363" stroke="#962363" stroke-miterlimit="10" stroke-width=".28"/>
            <path d="m87.26,23.22h-.01l-2.97-1.62c-.06-.03-.12-.05-.19-.05-.06,0-.12,0-.18.04l-3.02,1.53h-.01s-.02,0-.02,0v-.02l.62-3.33c.02-.13-.02-.25-.11-.35l-2.39-2.4v-.03s0-.02.02-.02l3.36-.44c.13-.02.24-.1.3-.21l1.54-3.01s.01,0,.02,0,.02,0,.02,0l1.46,3.06c.05.12.16.2.29.22l3.35.54s.02,0,.02.02v.03l-2.58,2.29c-.09.09-.14.22-.12.34l.65,3.38v.02h-.02l-.03.02Z" fill="#962363"/>
            <path d="m87.26,23.22h-.01l-2.97-1.62c-.06-.03-.12-.05-.19-.05-.06,0-.12,0-.18.04l-3.02,1.53h-.01s-.02,0-.02,0v-.02l.62-3.33c.02-.13-.02-.25-.11-.35l-2.39-2.4v-.03s0-.02.02-.02l3.36-.44c.13-.02.24-.1.3-.21l1.54-3.01s.01,0,.02,0,.02,0,.02,0l1.46,3.06c.05.12.16.2.29.22l3.35.54s.02,0,.02.02v.03l-2.58,2.29c-.09.09-.14.22-.12.34l.65,3.38v.02h-.02l-.03.02Z" fill="#962363"/>
            <path d="m86.84,16.69l-1-.16c-.06,0-.11-.05-.14-.11l-1.33-2.87c-.07-.15-.27-.15-.34,0l-1.4,2.83c-.03.06-.08.1-.14.1l-3.06.41c-.15.02-.22.22-.11.33l2.13,2.02c1.71-.2,3.91-.9,5.39-2.54h0Z" fill="#962363" isolation="isolate" opacity=".29"/>
            <path d="m86.76,19.53l2.25-2.18c.11-.11.05-.31-.1-.33l-2.06-.34-1-.16c-.06,0-.11-.05-.14-.11l-1.33-2.87c-.07-.15-.27-.15-.34,0l-1.41,2.82c-.03.06-.08.1-.14.1l-1.94.26c1.83,2.11,4.23,4.37,6.46,4.9l-.29-1.93c0-.06.01-.13.06-.17h-.02Z" fill="#962363" isolation="isolate" opacity=".26"/>
            <path d="m83.76,15.46c-.12.25-.49.84-.62.78s.03-.74.15-1,.32-.41.45-.35.13.32.01.57h.01Z" fill="#962363" isolation="isolate" opacity=".79"/>
            <path d="m87.69,16.96c.46.08.82.11.8.25s-.42.18-.88.1-1.05-.14-.79-.4c.1-.1.41-.03.87.05Z" fill="#962363" isolation="isolate" opacity=".79"/>
        </g>
        <g>
            <path d="m73.08,23.56c-.06,0-.12-.02-.17-.05l-2.98-1.62h-.04l-3.02,1.53c-.05.03-.11.04-.17.04-.11,0-.21-.05-.28-.13s-.1-.19-.08-.3l.62-3.33s0-.03-.01-.04l-2.39-2.4c-.1-.1-.13-.24-.09-.38s.16-.23.3-.25l3.36-.44s.03,0,.04-.03l1.54-3.02c.06-.12.19-.2.33-.2s.27.08.33.21l1.46,3.06s.02.02.04.03l3.34.53c.14.02.25.12.29.25s0,.28-.1.37l-2.46,2.33s-.02.03-.01.04l.52,3.35c.02.11-.01.21-.08.29s-.17.13-.28.13h0v.03Z" fill="#962363" stroke="#962363" stroke-miterlimit="10" stroke-width=".28"/>
            <path d="m73.08,23.22h-.01l-2.97-1.62c-.06-.03-.12-.05-.19-.05-.06,0-.12,0-.18.04l-3.02,1.53h-.01s-.02,0-.02,0v-.02l.62-3.33c.02-.13-.02-.25-.11-.35l-2.39-2.4v-.03s0-.02.02-.02l3.36-.44c.13-.02.24-.1.3-.21l1.54-3.01s.01,0,.02,0,.02,0,.02,0l1.46,3.06c.05.12.16.2.29.22l3.35.54s.02,0,.02.02v.03l-2.58,2.29c-.09.09-.14.22-.12.34l.65,3.38v.02h-.02l-.03.02Z" fill="#962363"/>
            <path d="m73.08,23.22h-.01l-2.97-1.62c-.06-.03-.12-.05-.19-.05-.06,0-.12,0-.18.04l-3.02,1.53h-.01s-.02,0-.02,0v-.02l.62-3.33c.02-.13-.02-.25-.11-.35l-2.39-2.4v-.03s0-.02.02-.02l3.36-.44c.13-.02.24-.1.3-.21l1.54-3.01s.01,0,.02,0,.02,0,.02,0l1.46,3.06c.05.12.16.2.29.22l3.35.54s.02,0,.02.02v.03l-2.58,2.29c-.09.09-.14.22-.12.34l.65,3.38v.02h-.02l-.03.02Z" fill="#962363"/>
            <path d="m72.66,16.69l-1-.16c-.06,0-.11-.05-.14-.11l-1.33-2.87c-.07-.15-.27-.15-.34,0l-1.4,2.83c-.03.06-.08.1-.14.1l-3.06.41c-.15.02-.22.22-.11.33l2.13,2.02c1.71-.2,3.91-.9,5.39-2.54h0Z" fill="#962363" isolation="isolate" opacity=".29"/>
            <path d="m72.58,19.53l2.25-2.18c.11-.11.05-.31-.1-.33l-2.06-.34-1-.16c-.06,0-.11-.05-.14-.11l-1.33-2.87c-.07-.15-.27-.15-.34,0l-1.41,2.82c-.03.06-.08.1-.14.1l-1.94.26c1.83,2.11,4.23,4.37,6.46,4.9l-.29-1.93c0-.06.01-.13.06-.17h-.02Z" fill="#962363" isolation="isolate" opacity=".26"/>
            <path d="m69.58,15.46c-.12.25-.49.84-.62.78s.03-.74.15-1,.32-.41.45-.35.13.32.01.57h.01Z" fill="#962363" isolation="isolate" opacity=".79"/>
            <path d="m73.51,16.96c.46.08.82.11.8.25s-.42.18-.88.1-1.05-.14-.79-.4c.1-.1.41-.03.87.05Z" fill="#962363" isolation="isolate" opacity=".79"/>
        </g>
        <g>
            <path d="m58.9,23.56c-.06,0-.12-.02-.17-.05l-2.98-1.62h-.04l-3.02,1.53c-.05.03-.11.04-.17.04-.11,0-.21-.05-.28-.13s-.1-.19-.08-.3l.62-3.33s0-.03-.01-.04l-2.39-2.4c-.1-.1-.13-.24-.09-.38s.16-.23.3-.25l3.36-.44s.03,0,.04-.03l1.54-3.02c.06-.12.19-.2.33-.2s.27.08.33.21l1.46,3.06s.02.02.04.03l3.34.53c.14.02.25.12.29.25s0,.28-.1.37l-2.46,2.33s-.02.03-.01.04l.52,3.35c.02.11-.01.21-.08.29s-.17.13-.28.13h0v.03Z" fill="#962363" stroke="#962363" stroke-miterlimit="10" stroke-width=".28"/>
            <path d="m58.9,23.22h-.01l-2.97-1.62c-.06-.03-.12-.05-.19-.05-.06,0-.12,0-.18.04l-3.02,1.53h-.01s-.02,0-.02,0v-.02l.62-3.33c.02-.13-.02-.25-.11-.35l-2.39-2.4v-.03s0-.02.02-.02l3.36-.44c.13-.02.24-.1.3-.21l1.54-3.01s.01,0,.02,0,.02,0,.02,0l1.46,3.06c.05.12.16.2.29.22l3.35.54s.02,0,.02.02v.03l-2.58,2.29c-.09.09-.14.22-.12.34l.65,3.38v.02h-.02l-.03.02Z" fill="#962363"/>
            <path d="m58.9,23.22h-.01l-2.97-1.62c-.06-.03-.12-.05-.19-.05-.06,0-.12,0-.18.04l-3.02,1.53h-.01s-.02,0-.02,0v-.02l.62-3.33c.02-.13-.02-.25-.11-.35l-2.39-2.4v-.03s0-.02.02-.02l3.36-.44c.13-.02.24-.1.3-.21l1.54-3.01s.01,0,.02,0,.02,0,.02,0l1.46,3.06c.05.12.16.2.29.22l3.35.54s.02,0,.02.02v.03l-2.58,2.29c-.09.09-.14.22-.12.34l.65,3.38v.02h-.02l-.03.02Z" fill="#962363"/>
            <path d="m58.48,16.69l-1-.16c-.06,0-.11-.05-.14-.11l-1.33-2.87c-.07-.15-.27-.15-.34,0l-1.4,2.83c-.03.06-.08.1-.14.1l-3.06.41c-.15.02-.22.22-.11.33l2.13,2.02c1.71-.2,3.91-.9,5.39-2.54h0Z" fill="#962363" isolation="isolate" opacity=".29"/>
            <path d="m58.4,19.53l2.25-2.18c.11-.11.05-.31-.1-.33l-2.06-.34-1-.16c-.06,0-.11-.05-.14-.11l-1.33-2.87c-.07-.15-.27-.15-.34,0l-1.41,2.82c-.03.06-.08.1-.14.1l-1.94.26c1.83,2.11,4.23,4.37,6.46,4.9l-.29-1.93c0-.06.01-.13.06-.17h-.02Z" fill="#962363" isolation="isolate" opacity=".26"/>
            <path d="m55.4,15.46c-.12.25-.49.84-.62.78s.03-.74.15-1,.32-.41.45-.35.13.32.01.57h.01Z" fill="#962363" isolation="isolate" opacity=".79"/>
            <path d="m59.33,16.96c.46.08.82.11.8.25s-.42.18-.88.1-1.05-.14-.79-.4c.1-.1.41-.03.87.05Z" fill="#962363" isolation="isolate" opacity=".79"/>
        </g>
        <g>
            <path d="m44.72,23.56c-.06,0-.12-.02-.17-.05l-2.98-1.62h-.04l-3.02,1.53c-.05.03-.11.04-.17.04-.11,0-.21-.05-.28-.13s-.1-.19-.08-.3l.62-3.33s0-.03-.01-.04l-2.39-2.4c-.1-.1-.13-.24-.09-.38s.16-.23.3-.25l3.36-.44s.03,0,.04-.03l1.54-3.02c.06-.12.19-.2.33-.2s.27.08.33.21l1.46,3.06s.02.02.04.03l3.34.53c.14.02.25.12.29.25s0,.28-.1.37l-2.46,2.33s-.02.03-.01.04l.52,3.35c.02.11-.01.21-.08.29s-.17.13-.28.13h0v.03Z" fill="#962363" stroke="#962363" stroke-miterlimit="10" stroke-width=".28"/>
            <path d="m44.72,23.22h-.01l-2.97-1.62c-.06-.03-.12-.05-.19-.05-.06,0-.12,0-.18.04l-3.02,1.53h-.01s-.02,0-.02,0v-.02l.62-3.33c.02-.13-.02-.25-.11-.35l-2.39-2.4v-.03s0-.02.02-.02l3.36-.44c.13-.02.24-.1.3-.21l1.54-3.01s.01,0,.02,0,.02,0,.02,0l1.46,3.06c.05.12.16.2.29.22l3.35.54s.02,0,.02.02v.03l-2.58,2.29c-.09.09-.14.22-.12.34l.65,3.38v.02h-.02l-.03.02Z" fill="#962363"/>
            <path d="m44.72,23.22h-.01l-2.97-1.62c-.06-.03-.12-.05-.19-.05-.06,0-.12,0-.18.04l-3.02,1.53h-.01s-.02,0-.02,0v-.02l.62-3.33c.02-.13-.02-.25-.11-.35l-2.39-2.4v-.03s0-.02.02-.02l3.36-.44c.13-.02.24-.1.3-.21l1.54-3.01s.01,0,.02,0,.02,0,.02,0l1.46,3.06c.05.12.16.2.29.22l3.35.54s.02,0,.02.02v.03l-2.58,2.29c-.09.09-.14.22-.12.34l.65,3.38v.02h-.02l-.03.02Z" fill="#962363"/>
            <path d="m44.3,16.69l-1-.16c-.06,0-.11-.05-.14-.11l-1.33-2.87c-.07-.15-.27-.15-.34,0l-1.4,2.83c-.03.06-.08.1-.14.1l-3.06.41c-.15.02-.22.22-.11.33l2.13,2.02c1.71-.2,3.91-.9,5.39-2.54h0Z" fill="#962363" isolation="isolate" opacity=".29"/>
            <path d="m44.22,19.53l2.25-2.18c.11-.11.05-.31-.1-.33l-2.06-.34-1-.16c-.06,0-.11-.05-.14-.11l-1.33-2.87c-.07-.15-.27-.15-.34,0l-1.41,2.82c-.03.06-.08.1-.14.1l-1.94.26c1.83,2.11,4.23,4.37,6.46,4.9l-.29-1.93c0-.06.01-.13.06-.17h-.02Z" fill="#962363" isolation="isolate" opacity=".26"/>
            <path d="m41.22,15.46c-.12.25-.49.84-.62.78s.03-.74.15-1,.32-.41.45-.35.13.32.01.57h.01Z" fill="#962363" isolation="isolate" opacity=".79"/>
            <path d="m45.16,16.96c.46.08.82.11.8.25s-.42.18-.88.1-1.05-.14-.79-.4c.1-.1.41-.03.87.05Z" fill="#962363" isolation="isolate" opacity=".79"/>
        </g>
    </g>
    <g id="bigStar">
        <path d="m25.83,31.61c-.18,0-.36-.05-.51-.13l-8.76-4.76s-.04-.02-.07-.02c-.02,0-.04,0-.06.02l-8.89,4.51c-.15.08-.32.12-.49.12-.32,0-.62-.14-.83-.39-.2-.25-.29-.57-.23-.88l1.83-9.8s0-.09-.04-.12L.74,13.08c-.29-.29-.39-.72-.26-1.11s.47-.67.88-.72l9.88-1.29s.09-.03.11-.08L15.89,1.01c.19-.36.55-.59.96-.59s.79.24.97.61l4.28,9s.06.07.1.08l9.84,1.57c.41.07.74.35.86.75s.01.82-.29,1.1l-7.24,6.86s-.05.08-.04.12l1.54,9.85c.05.31-.04.63-.24.87-.21.24-.51.38-.82.38h0Z" fill="#e19a00" stroke="#942362" stroke-miterlimit="10" stroke-width=".85"/>
        <path d="m25.83,30.61s-.02,0-.04-.01l-8.76-4.76c-.17-.09-.36-.14-.55-.14-.18,0-.36.04-.52.12l-8.89,4.51s-.03,0-.03,0c-.03,0-.05-.02-.06-.03-.01-.02-.02-.04-.01-.06l1.83-9.8c.07-.37-.05-.75-.31-1.02L1.45,12.37s-.03-.05-.02-.08c0-.03.03-.04.06-.05l9.88-1.29c.38-.05.7-.28.87-.62L16.79,1.47s.04-.04.06-.04c.03,0,.05.01.07.04l4.28,9c.16.34.48.58.85.64l9.85,1.57s.05.02.06.05c0,.03,0,.05-.02.07l-7.59,6.75c-.27.26-.4.64-.34,1.01l1.9,9.95s0,.04-.01.06c-.02.02-.04.03-.06.03Z" fill="#fff"/>
        <path d="m25.83,30.61s-.02,0-.04-.01l-8.76-4.76c-.17-.09-.36-.14-.55-.14-.18,0-.36.04-.52.12l-8.89,4.51s-.03,0-.03,0c-.03,0-.05-.02-.06-.03-.01-.02-.02-.04-.01-.06l1.83-9.8c.07-.37-.05-.75-.31-1.02L1.45,12.37s-.03-.05-.02-.08c0-.03.03-.04.06-.05l9.88-1.29c.38-.05.7-.28.87-.62L16.79,1.47s.04-.04.06-.04c.03,0,.05.01.07.04l4.28,9c.16.34.48.58.85.64l9.85,1.57s.05.02.06.05c0,.03,0,.05-.02.07l-7.59,6.75c-.27.26-.4.64-.34,1.01l1.9,9.95s0,.04-.01.06c-.02.02-.04.03-.06.03Z" fill="url(#linear-gradient-2)"/>
        <path d="m25.06,11.24l-3.11-.51c-.19-.03-.35-.16-.44-.34L17.37,1.43c-.21-.45-.83-.46-1.05-.02l-4.38,8.83c-.09.18-.26.3-.45.32l-9.55,1.29c-.48.07-.68.67-.34,1.03l6.63,6.29c5.33-.61,12.2-2.8,16.83-7.94Z" fill="#f9eec3" opacity=".29"/>
        <path d="m24.8,20.12l7.01-6.81c.36-.34.17-.96-.31-1.04l-6.42-1.05-3.12-.51c-.19-.03-.36-.16-.44-.34L17.37,1.43c-.21-.45-.84-.46-1.06-.02l-4.4,8.82c-.09.18-.26.3-.45.32l-6.06.81c5.72,6.6,13.19,13.64,20.14,15.3l-.92-6.01c-.03-.2.04-.4.18-.53Z" fill="#f9eec3" opacity=".26"/>
        <path d="m15.53,7.77c-.36.75-1.44,2.46-1.81,2.28s.09-2.18.45-2.93.95-1.21,1.33-1.03.39.93.03,1.68Z" fill="url(#linear-gradient-3)" opacity=".79"/>
        <path d="m27.1,12.2c1.36.25,2.42.33,2.35.74s-1.23.54-2.59.3-3.1-.41-2.32-1.19c.29-.29,1.21-.1,2.56.15Z" fill="url(#linear-gradient-4)" opacity=".79"/>
    </g>
</svg>