<svg width="120" height="140" viewBox="0 0 120 140" fill="none" xmlns="http://www.w3.org/2000/svg">
<path d="M91.4981 49.9299C92.3997 50.1669 92.9585 51.0092 92.7477 51.8084L80.998 96.3301C80.7871 97.1293 79.8849 97.5849 78.9834 97.3457L69.0991 94.7379C68.1975 94.5009 67.6386 93.6586 67.8495 92.8594L79.5992 48.3376C79.81 47.5385 80.7123 47.0829 81.6137 47.3221L91.4981 49.9299Z" fill="#485770"/>
<path d="M79.5992 48.3375L67.8495 92.8592C67.6387 93.6584 68.1977 94.4985 69.0991 94.7377L69.9266 94.9569C69.9266 94.9569 68.9162 93.9718 69.9269 90.1413C70.9375 86.313 80.6341 49.572 80.6341 49.572C80.6341 49.572 81.1035 48.096 82.4412 47.5411L81.6138 47.3219C80.7122 47.0849 79.81 47.5383 79.5992 48.3375Z" fill="#485770"/>
<path d="M72.651 85.9785L72.2529 87.4863L79.8347 89.4878L80.2327 87.98L72.651 85.9785Z" fill="#F7F5F3"/>
<path d="M73.0807 84.3469L72.6826 85.8547L80.2644 87.8562L80.6624 86.3484L73.0807 84.3469Z" fill="#F7F5F3"/>
<path d="M73.5123 82.7207L73.1143 84.2285L80.696 86.23L81.0941 84.7222L73.5123 82.7207Z" fill="#F7F5F3"/>
<path d="M73.942 81.0911L73.5439 82.5989L81.1257 84.6003L81.5238 83.0925L73.942 81.0911Z" fill="#F7F5F3"/>
<path d="M74.3726 79.4665L73.9746 80.9744L81.5564 82.9758L81.9544 81.468L74.3726 79.4665Z" fill="#F7F5F3"/>
<path d="M74.8037 77.8351L74.4062 79.3408L81.988 81.3423L82.3855 79.8366L74.8037 77.8351Z" fill="#F7F5F3"/>
<path d="M75.2285 76.2075L74.8311 77.7131L82.4128 79.7146L82.8103 78.2089L75.2285 76.2075Z" fill="#F7F5F3"/>
<path d="M75.6602 74.5805L75.2627 76.0862L82.8445 78.0876L83.2419 76.582L75.6602 74.5805Z" fill="#F7F5F3"/>
<path d="M76.0924 72.9495L75.6943 74.4573L83.2761 76.4587L83.6741 74.9509L76.0924 72.9495Z" fill="#F7F5F3"/>
<path d="M76.523 71.3203L76.125 72.8281L83.7068 74.8296L84.1048 73.3218L76.523 71.3203Z" fill="#F7F5F3"/>
<path d="M76.9512 69.6935L76.5537 71.1992L84.1355 73.2007L84.533 71.695L76.9512 69.6935Z" fill="#F7F5F3"/>
<path d="M77.3814 68.0618L76.9834 69.5696L84.5652 71.571L84.9632 70.0632L77.3814 68.0618Z" fill="#F7F5F3"/>
<path d="M77.8121 66.4348L77.4141 67.9426L84.9958 69.9441L85.3939 68.4363L77.8121 66.4348Z" fill="#F7F5F3"/>
<path d="M78.2422 64.8078L77.8447 66.3135L85.4265 68.3149L85.824 66.8093L78.2422 64.8078Z" fill="#F7F5F3"/>
<path d="M78.6709 63.1806L78.2734 64.6863L85.8552 66.6877L86.2527 65.1821L78.6709 63.1806Z" fill="#F7F5F3"/>
<path d="M79.1012 61.5469L78.7031 63.0547L86.2849 65.0562L86.6829 63.5483L79.1012 61.5469Z" fill="#F7F5F3"/>
<path d="M79.4981 60.0434L79.1006 61.5491L86.6823 63.5505L87.0798 62.0449L79.4981 60.0434Z" fill="#F7F5F3"/>
<path d="M79.9283 58.4094L79.5303 59.9172L87.112 61.9187L87.5101 60.4109L79.9283 58.4094Z" fill="#F7F5F3"/>
<path d="M80.356 56.7822L79.958 58.29L87.5398 60.2915L87.9378 58.7837L80.356 56.7822Z" fill="#F7F5F3"/>
<path d="M80.7871 55.1552L80.3896 56.6609L87.9714 58.6624L88.3689 57.1567L80.7871 55.1552Z" fill="#F7F5F3"/>
<path d="M81.2149 53.5283L80.8174 55.0339L88.3992 57.0354L88.7966 55.5297L81.2149 53.5283Z" fill="#F7F5F3"/>
<path d="M81.6475 51.8967L81.25 53.4023L88.8318 55.4038L89.2292 53.8981L81.6475 51.8967Z" fill="#F7F5F3"/>
<path d="M82.0781 50.27L81.6807 51.7756L89.2624 53.7771L89.6599 52.2714L82.0781 50.27Z" fill="#F7F5F3"/>
<path d="M72.7549 85.5865L72.5215 86.4707L77.2478 87.7184L77.4812 86.8342L72.7549 85.5865Z" fill="#485770"/>
<path d="M73.2783 83.596L73.0449 84.4802L77.7712 85.7279L78.0047 84.8437L73.2783 83.596Z" fill="#485770"/>
<path d="M74.0586 80.6473L73.8252 81.5315L78.5515 82.7792L78.7849 81.895L74.0586 80.6473Z" fill="#485770"/>
<path d="M74.5518 78.7755L74.3184 79.6597L79.0447 80.9073L79.2781 80.0232L74.5518 78.7755Z" fill="#485770"/>
<path d="M74.9981 77.089L74.7646 77.9731L79.491 79.2208L79.7244 78.3366L74.9981 77.089Z" fill="#485770"/>
<path d="M75.835 73.9115L75.6016 74.7957L80.3279 76.0433L80.5613 75.1591L75.835 73.9115Z" fill="#485770"/>
<path d="M76.2783 72.2472L76.0449 73.1313L80.7712 74.379L81.0047 73.4948L76.2783 72.2472Z" fill="#485770"/>
<path d="M77.0996 69.1258L76.8662 70.01L81.5925 71.2577L81.8259 70.3735L77.0996 69.1258Z" fill="#485770"/>
<path d="M77.5674 67.3643L77.334 68.2485L82.0603 69.4962L82.2937 68.612L77.5674 67.3643Z" fill="#485770"/>
<path d="M78.3584 64.3641L78.125 65.2483L82.8513 66.496L83.0847 65.6118L78.3584 64.3641Z" fill="#485770"/>
<path d="M78.876 62.4032L78.6426 63.2874L83.3689 64.535L83.6023 63.6508L78.876 62.4032Z" fill="#485770"/>
<path d="M79.6152 59.5975L79.3818 60.4817L84.1082 61.7294L84.3416 60.8452L79.6152 59.5975Z" fill="#485770"/>
<path d="M80.4512 56.4354L80.2178 57.3196L84.9441 58.5673L85.1775 57.6831L80.4512 56.4354Z" fill="#485770"/>
<path d="M80.9365 54.5926L80.7031 55.4768L85.4295 56.7245L85.6629 55.8403L80.9365 54.5926Z" fill="#485770"/>
<path d="M81.3936 52.8563L81.1602 53.7405L85.8865 54.9882L86.1199 54.104L81.3936 52.8563Z" fill="#485770"/>
<path d="M71.6516 91.7428L71.3438 92.9089L75.3568 93.9683L75.6646 92.8022L71.6516 91.7428Z" fill="#F7F5F3"/>
<path d="M72.2737 89.3945L71.9658 90.5605L75.9788 91.6199L76.2866 90.4538L72.2737 89.3945Z" fill="#F7F5F3"/>
<path d="M77.4868 93.3165C77.8374 93.4089 78.0562 93.7366 77.973 94.0458C77.8918 94.3572 77.5402 94.5325 77.1896 94.4401C76.839 94.3476 76.6224 94.02 76.7034 93.7108C76.7846 93.3993 77.1362 93.224 77.4868 93.3165Z" fill="#545453"/>
<path d="M78.1128 90.9473C78.4634 91.0398 78.6822 91.3675 78.599 91.6766C78.5178 91.9881 78.1662 92.1634 77.8156 92.0709C77.465 91.9785 77.2484 91.6509 77.3294 91.3416C77.4106 91.0302 77.7622 90.8549 78.1128 90.9473Z" fill="#545453"/>
<path d="M83.5144 46.045C83.6129 45.5154 83.5779 45.0212 83.3817 44.6088C82.7127 43.2013 80.4465 43.2712 78.3201 44.7644C76.1937 46.2576 75.011 48.608 75.68 50.0155C75.8866 50.4511 76.2465 50.7445 76.708 50.8986C76.7029 50.893 74.9173 48.7804 78.8189 46.0415C82.7114 43.3085 83.5081 46.0239 83.5146 46.0433L83.5144 46.045Z" fill="#9E3E0E"/>
<path d="M75.9641 49.3351C75.9309 48.1325 77.1912 46.4681 78.9311 45.246C80.6711 44.0238 83.1686 43.8148 83.5144 46.045C83.6129 45.5154 83.5779 45.0212 83.3817 44.6088C82.7127 43.2013 80.4465 43.2712 78.3201 44.7644C76.1937 46.2576 75.011 48.608 75.68 50.0155C75.8866 50.4511 76.2465 50.7445 76.708 50.8986C76.708 50.8986 75.9975 50.536 75.9643 49.3334L75.9641 49.3351Z" fill="#D17519"/>
<path d="M75.5376 50.6734L76.4203 52.5309C76.4203 52.5309 78.513 53.7304 81.5616 51.5899C84.6087 49.451 84.7039 46.3508 84.7039 46.3508L83.7826 44.4126C83.7826 44.4126 85.0109 47.2007 80.8611 50.1161C77.0363 52.8018 75.5376 50.6734 75.5376 50.6734Z" fill="#9E3E0E"/>
<path d="M81.5618 51.5901C84.6089 49.4511 84.704 46.3509 84.704 46.3509L83.7828 44.4128C83.7828 44.4128 84.2017 45.3647 83.7239 46.7349L83.7247 46.7402C82.7705 51.3374 76.4204 52.531 76.4204 52.531C76.4204 52.531 78.5131 53.7306 81.5618 51.5901Z" fill="#D17519"/>
<path d="M78.1992 44.5133C75.8666 46.1501 74.5852 48.7609 75.3372 50.3423C76.0892 51.9237 78.5895 51.8785 80.922 50.2417C83.2546 48.605 84.5361 45.9941 83.7841 44.4128C83.0321 42.8314 80.5318 42.8766 78.1992 44.5133ZM80.7408 49.8633C78.6144 51.3565 76.3483 51.4264 75.6792 50.0189C75.0102 48.6115 76.1915 46.2609 78.3193 44.7678C80.4457 43.2746 82.7119 43.2048 83.3809 44.6122C84.05 46.0197 82.8686 48.3702 80.7408 49.8633Z" fill="#E9EBE5"/>
<path d="M80.1605 51.4289C80.1605 51.4289 81.3282 50.9556 82.0867 50.0765C82.0867 50.0765 82.2849 50.6594 81.412 51.271C80.5389 51.8843 80.1605 51.4289 80.1605 51.4289Z" fill="white"/>
<path d="M80.1605 51.4289C80.1605 51.4289 80.441 52.2862 81.4989 51.5425C82.5567 50.8004 82.0867 50.0765 82.0867 50.0765C82.0867 50.0765 82.2265 50.6993 81.412 51.271C80.5975 51.8428 80.1605 51.4289 80.1605 51.4289Z" fill="#485770"/>
<path d="M76.6935 51.8918C76.6935 51.8918 77.8877 52.1435 78.8953 51.7964C78.8953 51.7964 78.8287 52.4298 77.8302 52.473C76.8332 52.5163 76.6937 51.8901 76.6937 51.8901L76.6935 51.8918Z" fill="white"/>
<path d="M76.6935 51.8918C76.6935 51.8918 76.5846 52.8188 77.7937 52.7655C79.0027 52.7138 78.8953 51.7964 78.8953 51.7964C78.8953 51.7964 78.7613 52.433 77.8302 52.473C76.9005 52.5131 76.6937 51.8901 76.6937 51.8901L76.6935 51.8918Z" fill="#485770"/>
<path d="M84.3903 46.4881C84.3903 46.4881 83.9726 47.8698 83.2217 48.7583C83.2217 48.7583 83.7078 49.0036 84.2366 47.9759C84.7656 46.9466 84.3903 46.4881 84.3903 46.4881Z" fill="white"/>
<path d="M84.3899 46.4882C84.3899 46.4882 85.1048 46.8359 84.463 48.0833C83.8213 49.3308 83.2227 48.7585 83.2227 48.7585C83.2227 48.7585 83.7446 48.9343 84.2376 47.9762C84.7307 47.0163 84.3913 46.4883 84.3913 46.4883L84.3899 46.4882Z" fill="#485770"/>
<path d="M77.598 46.0393C77.598 46.0393 78.7657 45.566 79.5242 44.6868C79.5242 44.6868 79.7224 45.2698 78.8495 45.8814C77.9764 46.4947 77.598 46.0393 77.598 46.0393Z" fill="white"/>
<path d="M77.598 46.0393C77.598 46.0393 77.8785 46.8966 78.9364 46.1528C79.9942 45.4108 79.5242 44.6868 79.5242 44.6868C79.5242 44.6868 79.664 45.3096 78.8495 45.8814C78.035 46.4532 77.598 46.0393 77.598 46.0393Z" fill="#485770"/>
<path d="M75.8346 49.6128C75.8346 49.6128 76.4779 48.3503 76.5778 47.1157C76.5778 47.1157 77.0546 47.3821 76.7188 48.5136C76.3817 49.6448 75.8348 49.6111 75.8348 49.6111L75.8346 49.6128Z" fill="white"/>
<path d="M75.8348 49.6129C75.8348 49.6129 76.5283 50.0146 76.9363 48.6438C77.3444 47.273 76.5778 47.1174 76.5778 47.1174C76.5778 47.1174 77.0324 47.4599 76.7188 48.5153C76.4053 49.5707 75.8348 49.6129 75.8348 49.6129Z" fill="#485770"/>
<path d="M82.9996 44.5806C82.9996 44.5806 81.7783 44.6276 80.8496 44.116C80.8496 44.116 80.8013 44.7513 81.7758 44.9628C82.7504 45.1744 82.9996 44.5806 82.9996 44.5806Z" fill="white"/>
<path d="M83.0004 44.5807C83.0004 44.5807 82.941 45.5113 81.7587 45.2558C80.5777 45.0004 80.849 44.116 80.849 44.116C80.849 44.116 80.8661 44.7667 81.7752 44.9628C82.6844 45.159 82.999 44.5806 82.999 44.5806L83.0004 44.5807Z" fill="#485770"/>
<path d="M36.7589 47.0671C35.3909 46.9786 34.8094 48.0698 34.8094 48.0698C34.8094 48.0698 34.2278 49.1609 35.0616 50.2476C35.8969 51.3349 37.1317 51.3288 38.0176 51.2074C38.9035 51.086 39.8395 51.0861 40.6682 51.6724C41.4976 52.2572 44.7068 54.5404 45.2004 53.6154C45.6939 52.6904 42.0106 51.2952 41.0639 50.9321C40.1172 50.5689 39.5965 49.7916 39.2025 48.9872C38.8101 48.1836 38.1275 47.154 36.7596 47.0655L36.7589 47.0671Z" fill="#FFCF06"/>
<path d="M36.4907 47.0654C35.3165 47.1239 34.8102 48.0699 34.8102 48.0699C34.8102 48.0699 34.3069 49.0133 34.9082 50.0214C35.6279 48.9779 36.1567 47.8643 36.49 47.067L36.4907 47.0654Z" fill="#FFCF06"/>
<path d="M37.7902 47.3571C37.4987 47.2004 37.1573 47.0941 36.7592 47.0673C36.6437 47.0595 36.5334 47.0614 36.4298 47.0699C35.8901 48.3016 35.2434 49.3687 34.8678 49.9516C34.9218 50.0502 34.9853 50.149 35.0619 50.2478C35.3131 50.5741 35.5987 50.8019 35.9019 50.9579C36.8452 49.6383 37.4788 48.1694 37.7909 47.3555L37.7902 47.3571Z" fill="#A3DDEF"/>
<path d="M35.8492 50.9313C36.4182 51.2424 37.0475 51.2888 37.6011 51.2518C38.2889 50.2872 38.7428 49.3623 39.0287 48.658C38.7506 48.1655 38.3559 47.6496 37.7647 47.3421C36.9271 49.456 36.2102 50.4931 35.8492 50.9313Z" fill="#D17519"/>
<path opacity="0.2" d="M36.7599 47.0675C35.7907 47.0041 35.2175 47.5328 34.9642 47.8472C36.3515 47.6609 39.4338 50.0031 39.862 50.6258C40.2902 51.2485 42.6197 52.1291 43.5323 52.5853C44.445 53.0415 45.0059 53.7907 45.0059 53.7907C45.0908 53.7553 45.1566 53.6985 45.2014 53.6158C45.695 52.6908 42.0117 51.2956 41.065 50.9324C40.1182 50.5693 39.5976 49.7919 39.2036 48.9876C38.8112 48.184 38.1286 47.1544 36.7606 47.0659L36.7599 47.0675Z" fill="#181817"/>
<path d="M42.0662 44.1957C41.1457 43.1795 39.9689 43.5577 39.9689 43.5577C39.9689 43.5577 38.7921 43.9359 38.6348 45.297C38.4775 46.6582 39.3682 47.5145 40.0886 48.0451C40.809 48.5757 41.4799 49.2267 41.6693 50.2228C41.8563 51.2199 42.5728 55.0925 43.5704 54.7717C44.568 54.4509 42.8952 50.8865 42.4678 49.966C42.0404 49.0455 42.207 48.1261 42.4842 47.2746C42.7607 46.4248 42.9874 45.2103 42.0685 44.1948L42.0662 44.1957Z" fill="#FFCF06"/>
<path d="M41.8733 44.0074C40.9897 43.2316 39.9684 43.5592 39.9684 43.5592C39.9684 43.5592 38.951 43.8867 38.6803 45.0276C39.924 44.78 41.0782 44.3487 41.8733 44.0074Z" fill="#FFCF06"/>
<path d="M42.6046 45.1219C42.5041 44.8053 42.3338 44.4929 42.0658 44.1972C41.9876 44.1109 41.9085 44.0356 41.8275 43.9689C40.5838 44.477 39.3746 44.7941 38.6999 44.951C38.6706 45.0593 38.6473 45.1757 38.6321 45.2994C38.5842 45.7073 38.6324 46.0713 38.7418 46.3936C40.3382 46.1023 41.8151 45.4901 42.6046 45.1219Z" fill="#A3DDEF"/>
<path d="M38.7226 46.3363C38.9143 46.956 39.3335 47.4277 39.756 47.7857C40.9209 47.5723 41.8912 47.2228 42.5858 46.9177C42.7288 46.3713 42.8052 45.7246 42.5941 45.0928C40.5208 46.0275 39.2855 46.2731 38.721 46.3356L38.7226 46.3363Z" fill="#D17519"/>
<path opacity="0.2" d="M42.0666 44.1958C41.415 43.4776 40.6349 43.4574 40.2351 43.5054C41.3606 44.3375 41.9445 48.1629 41.8181 48.9089C41.6917 49.655 42.7513 51.9081 43.0887 52.8713C43.4262 53.8344 43.3074 54.7611 43.3067 54.7627C43.392 54.7973 43.4785 54.8022 43.5685 54.7727C44.5661 54.4519 42.8932 50.8875 42.4659 49.967C42.0385 49.0466 42.2051 48.1271 42.4823 47.2757C42.7587 46.4258 42.9854 45.2113 42.0666 44.1958Z" fill="#181817"/>
<path d="M75.6763 37.7234C75.7525 38.1282 75.3883 38.5348 74.8632 38.633C74.3381 38.7313 73.8502 38.484 73.7757 38.0791C73.6995 37.6743 74.0637 37.2677 74.5888 37.1695C75.1139 37.0712 75.6018 37.3185 75.6763 37.7234Z" fill="#2F93CA"/>
<path d="M74.92 33.6882L74.3672 33.7917L75.122 37.821L75.6747 37.7174L74.92 33.6882Z" fill="#2F93CA"/>
<path d="M25.1853 52.18C25.1853 52.18 23.8727 51.5089 24.2875 50.2827C24.7014 49.0534 26.2053 49.3656 26.739 49.9772C27.2727 50.5889 27.6929 51.6118 26.6349 52.6396C25.5769 53.6674 23.702 53.7613 22.8338 52.4687C21.9656 51.176 22.09 50.2301 22.8875 49.011C23.7006 47.7676 24.5445 46.0556 24.3879 45.4101C24.2903 45.0062 23.9766 44.483 23.7593 44.1509C23.71 44.0737 23.6219 44.0312 23.53 44.0422C23.4403 44.0493 23.3598 44.1094 23.3253 44.1919C23.1045 44.727 22.8905 45.8342 23.7597 47.471C25.027 49.8585 25.9516 50.6257 26.9237 52.8487C27.8958 55.0716 26.552 55.4827 26.552 55.4827C26.552 55.4827 25.1512 56.1207 24.7518 54.816C24.3921 53.6439 25.6494 53.5146 26.0081 53.9029C26.4303 54.3608 26.2444 54.8921 25.8181 55.0357C25.8181 55.0357 26.5182 55.04 26.7155 54.5578C26.843 54.2376 27.2122 53.9798 25.5968 51.1516C23.9784 48.3244 22.7998 46.5306 22.7371 45.2435C22.7051 44.587 22.8828 44.0943 23.0663 43.7639C23.1391 43.634 23.2732 43.5447 23.422 43.5265C23.5708 43.5083 23.7191 43.5658 23.8211 43.6764C24.2823 44.1883 24.9929 45.1507 25.0708 46.302C25.1547 47.55 23.6402 49.2685 23.4178 49.8533C23.2571 50.2819 22.8886 51.3335 24.3239 52.1518C25.7591 52.97 26.7674 51.7536 26.6239 50.9434C26.4804 50.1332 25.6394 49.8987 25.2484 50.0614C24.8573 50.2241 24.2787 50.8135 25.1862 52.183L25.1853 52.18Z" fill="#2F93CA"/>
<path d="M103.164 75.9733C102.988 76.3461 102.455 76.4622 101.972 76.2342C101.489 76.0063 101.238 75.52 101.415 75.1483C101.59 74.7755 102.124 74.6594 102.607 74.8873C103.09 75.1153 103.34 75.6015 103.164 75.9733Z" fill="#2F93CA"/>
<path d="M104.914 72.2599L104.405 72.02L102.657 75.7277L103.165 75.9676L104.914 72.2599Z" fill="#2F93CA"/>
<path d="M41.2022 37.3102C41.1005 37.7082 40.5974 37.9234 40.0808 37.7912C39.5625 37.6591 39.2271 37.2289 39.3287 36.8308C39.4303 36.4327 39.9334 36.2176 40.4501 36.3497C40.9684 36.4818 41.3038 36.9121 41.2022 37.3102Z" fill="#2F93CA"/>
<path d="M41.6697 33.2045L40.6523 37.1755L41.1971 37.3151L42.2145 33.3441L41.6697 33.2045Z" fill="#2F93CA"/>
<path d="M9.68798 74.9679C9.98856 75.2556 9.92891 75.8067 9.55485 76.1987C9.17964 76.5895 8.63202 76.6728 8.33144 76.385C8.03087 76.0972 8.09052 75.5462 8.46459 75.1541C8.83866 74.7621 9.38741 74.6801 9.68798 74.9679Z" fill="#2F93CA"/>
<path d="M6.68479 72.1069L6.29102 72.5178L9.29123 75.3926L9.685 74.9816L6.68479 72.1069Z" fill="#2F93CA"/>
<path d="M9.00078 73.9202C9.0622 73.6367 9.06554 73.3166 8.93965 73.0834C8.87482 72.9685 8.77691 72.8903 8.66191 72.8412L8.5711 72.8113C8.54163 72.8014 8.50562 72.8019 8.47363 72.7943C8.44026 72.7902 8.40953 72.7814 8.37466 72.7832L8.27142 72.785C8.2067 72.7841 8.12726 72.7896 8.04781 72.7951C7.96837 72.8006 7.89031 72.8025 7.81111 72.8032C7.6526 72.807 7.49332 72.8024 7.33189 72.7929C7.17059 72.781 7.00853 72.7606 6.84368 72.7245C6.76183 72.7071 6.67782 72.6847 6.59293 72.6564C6.55049 72.6422 6.50816 72.6256 6.46357 72.6065C6.44241 72.5982 6.41911 72.585 6.39568 72.5742C6.36885 72.5596 6.35474 72.5541 6.30976 72.5194L6.67308 72.08C6.65922 72.0697 6.67648 72.0838 6.68215 72.0901C6.69261 72.0966 6.70181 72.1043 6.71579 72.1122C6.73897 72.1278 6.7682 72.1425 6.79629 72.1559C6.8536 72.1841 6.91583 72.2101 6.98183 72.2327C7.11256 72.279 7.2511 72.3138 7.39353 72.3427C7.53608 72.3693 7.68116 72.3935 7.82911 72.4084C7.90303 72.417 7.97707 72.4232 8.05237 72.4283C8.12641 72.4345 8.19943 72.4371 8.28758 72.4489L8.41401 72.4626C8.45581 72.4659 8.49926 72.4838 8.5407 72.4943C8.58201 72.5072 8.62483 72.5142 8.66589 72.532L8.78758 72.591C8.94492 72.6795 9.07778 72.8243 9.1424 72.9895C9.20942 73.1549 9.21739 73.3257 9.20671 73.4858C9.19353 73.6483 9.16044 73.8013 9.10456 73.9543L9.00317 73.9203L9.00078 73.9202Z" fill="#2F93CA"/>
<path d="M99.9827 60.8196C99.709 61.1574 99.1311 61.1439 98.6914 60.7876C98.2517 60.4313 98.1183 59.8698 98.392 59.5319C98.6656 59.1941 99.2435 59.2076 99.6832 59.5639C100.123 59.9202 100.256 60.4817 99.9827 60.8196Z" fill="#2F93CA"/>
<path d="M102.243 57.0756L99.5137 60.4473L99.9758 60.8214L102.705 57.4497L102.243 57.0756Z" fill="#2F93CA"/>
<path d="M101.013 60.0124C101.313 60.0512 101.647 60.0277 101.879 59.8756C101.992 59.7994 102.065 59.6885 102.106 59.5655L102.129 59.4685C102.136 59.4367 102.134 59.3992 102.137 59.3654C102.138 59.3298 102.145 59.298 102.14 59.2621L102.13 59.1545C102.126 59.0881 102.112 59.0041 102.102 58.9237C102.09 58.8432 102.081 58.7612 102.073 58.6775C102.056 58.5136 102.046 58.3466 102.042 58.1784C102.041 58.0103 102.048 57.8393 102.071 57.6642C102.081 57.5766 102.099 57.4877 102.119 57.3974C102.131 57.3522 102.144 57.3055 102.16 57.259C102.168 57.2358 102.178 57.2109 102.188 57.1861C102.202 57.1564 102.206 57.1414 102.237 57.0923L102.725 57.4313C102.734 57.4149 102.72 57.436 102.716 57.4426C102.71 57.4541 102.702 57.4655 102.697 57.4787C102.683 57.5051 102.671 57.5349 102.657 57.5663C102.633 57.6293 102.612 57.6958 102.594 57.766C102.558 57.9047 102.532 58.0541 102.514 58.2041C102.498 58.3558 102.487 58.5079 102.484 58.6638C102.483 58.7418 102.482 58.8198 102.484 58.8963C102.484 58.9744 102.486 59.0492 102.484 59.1424L102.479 59.2745C102.478 59.3185 102.465 59.3653 102.459 59.409C102.449 59.4542 102.445 59.4981 102.43 59.543L102.38 59.674C102.3 59.8455 102.163 59.995 101.997 60.0764C101.832 60.1613 101.654 60.1843 101.486 60.1858C101.316 60.1855 101.153 60.1653 100.991 60.1197L101.017 60.0109L101.013 60.0124Z" fill="#2F93CA"/>
<path d="M50.6078 27.79C50.8296 28.164 50.6162 28.7012 50.1293 28.9898C49.6425 29.2784 49.0696 29.2085 48.8479 28.8345C48.6261 28.4606 48.8394 27.9234 49.3263 27.6348C49.8131 27.3462 50.386 27.4161 50.6078 27.79Z" fill="#2F93CA"/>
<path d="M47.8819 24.3706L50.0957 28.1013L50.607 27.7979L48.3932 24.0672L47.8819 24.3706Z" fill="#2F93CA"/>
<path d="M50.2085 26.5436C50.349 26.276 50.4429 25.9545 50.3808 25.6845C50.3487 25.5518 50.2701 25.4448 50.1691 25.3631L50.0861 25.3079C50.0587 25.2902 50.0226 25.2798 49.9923 25.2646C49.9591 25.2517 49.9317 25.2341 49.8964 25.2259L49.7919 25.1982C49.7281 25.1793 49.6446 25.1628 49.5657 25.1445C49.486 25.1278 49.4061 25.1074 49.3248 25.0862C49.1651 25.0453 49.005 24.9967 48.8461 24.9413C48.688 24.8844 48.5301 24.8183 48.3738 24.7363C48.2953 24.696 48.2179 24.6489 48.1404 24.598C48.102 24.5717 48.0628 24.5432 48.0249 24.5117C48.0059 24.4959 47.9861 24.4779 47.9663 24.4599C47.9432 24.4367 47.9306 24.4274 47.8951 24.3821L48.3825 24.0419C48.3704 24.0273 48.3851 24.0486 48.3899 24.0545C48.3987 24.0639 48.4068 24.0749 48.4172 24.085C48.4371 24.1068 48.4609 24.1284 48.4856 24.1523C48.5362 24.1969 48.5914 24.2398 48.651 24.281C48.7686 24.3626 48.8996 24.439 49.0341 24.5077C49.1708 24.5755 49.3096 24.6387 49.4548 24.6955C49.5275 24.7239 49.6001 24.7523 49.6726 24.7769C49.7459 24.8038 49.8168 24.8277 49.9034 24.8623L50.0256 24.9126C50.0666 24.9289 50.1058 24.9573 50.1448 24.9782C50.1839 25.0029 50.2235 25.0223 50.2605 25.0516L50.3658 25.1444C50.4988 25.2792 50.5916 25.4591 50.6102 25.6432C50.6326 25.8272 50.5923 26.002 50.5354 26.1602C50.4762 26.3193 50.4005 26.4654 50.3015 26.6013L50.2083 26.5398L50.2085 26.5436Z" fill="#2F93CA"/>
<path d="M96.7972 47.6093C96.961 47.9712 96.7127 48.4364 96.2421 48.6497C95.773 48.8621 95.2585 48.7422 95.0961 48.3794C94.9322 48.0174 95.1805 47.5523 95.6511 47.339C96.1202 47.1266 96.6347 47.2465 96.7972 47.6093Z" fill="#2F93CA"/>
<path d="M94.6701 44.2306L96.2998 47.8364L96.7937 47.6132L95.164 44.0074L94.6701 44.2306Z" fill="#2F93CA"/>
<path d="M99.3401 46.4741C99.504 46.836 99.2557 47.3011 98.7851 47.5144C98.316 47.7268 97.8015 47.6069 97.639 47.2441C97.4766 46.8813 97.7235 46.417 98.194 46.2037C98.6632 45.9913 99.1777 46.1112 99.3401 46.4741Z" fill="#2F93CA"/>
<path d="M97.2111 43.0944L98.8408 46.7002L99.3348 46.4769L97.705 42.8711L97.2111 43.0944Z" fill="#2F93CA"/>
<path d="M94.9149 44.1181L95.2051 44.7603L97.7427 43.6133L97.4525 42.9712L94.9149 44.1181Z" fill="#2F93CA"/>
<path d="M95.3282 45.0296L95.5068 45.4248L98.0445 44.2779L97.8659 43.8827L95.3282 45.0296Z" fill="#2F93CA"/>
<path d="M10.0121 61.0468C9.84935 61.3556 9.39351 61.434 8.99263 61.2229C8.59176 61.0119 8.39871 60.5911 8.56142 60.2823C8.72413 59.9735 9.17998 59.8951 9.58086 60.1061C9.98173 60.3172 10.1748 60.738 10.0121 61.0468Z" fill="#2F93CA"/>
<path d="M11.6319 57.9689L11.2109 57.7471L9.59051 60.8221L10.0114 61.0439L11.6319 57.9689Z" fill="#2F93CA"/>
<path d="M12.1712 62.1972C12.0085 62.506 11.5527 62.5844 11.1518 62.3733C10.7509 62.1623 10.5579 61.7415 10.7206 61.4327C10.8833 61.1239 11.3392 61.0455 11.74 61.2565C12.1409 61.4676 12.3339 61.8884 12.1712 62.1972Z" fill="#2F93CA"/>
<path d="M13.791 59.1178L13.3701 58.896L11.7497 61.9711L12.1706 62.1929L13.791 59.1178Z" fill="#2F93CA"/>
<path d="M13.5867 58.9957L11.4229 57.8555L11.134 58.4037L13.2978 59.544L13.5867 58.9957Z" fill="#2F93CA"/>
<path d="M13.1766 59.7746L11.0127 58.6343L10.8347 58.972L12.9986 60.1123L13.1766 59.7746Z" fill="#2F93CA"/>
<path d="M21.5578 57.8471C21.5578 57.8471 18.1306 58.4157 17.612 59.3774C17.0934 60.3391 20.0434 71.8812 20.339 73.0525C20.6347 74.2237 21.2908 76.1348 19.8998 76.5208C18.5089 76.9068 17.3083 75.1681 16.669 73.3222C16.0296 71.4763 14.9595 71.3656 14.2144 71.2774C13.0013 71.1341 12.8904 70.2024 12.321 70.2771C11.6475 70.3655 11.235 70.9918 11.8929 73.8715C12.5437 76.7195 13.6278 77.725 14.1154 77.4634C14.6031 77.2018 14.3974 76.25 15.1874 76.5003C15.5831 76.6256 17.2937 80.0615 18.8684 80.7967C20.3595 81.4927 22.6769 80.6649 22.9735 78.6862C23.2699 76.7077 21.9906 72.7389 21.1771 69.5179C20.3636 66.2968 18.1516 60.2794 18.9723 59.6912C19.7929 59.1029 21.8064 58.7688 21.8064 58.7688L21.5583 57.847L21.5578 57.8471Z" fill="#FCA61B"/>
<path d="M17.4835 63.8448L17.5195 63.9893L18.8686 63.653L18.8326 63.5085L17.4835 63.8448Z" fill="#FCA61B"/>
<path d="M17.4246 64.413C17.4259 64.3958 17.5843 63.981 17.5843 63.981L17.5577 63.8283L17.2141 63.567L17.0884 63.587C17.0884 63.587 16.8716 63.6295 16.981 64.0688C17.0705 64.4276 17.2911 64.469 17.2911 64.469L17.4251 64.413L17.4246 64.413Z" fill="#FCA61B"/>
<path d="M17.2905 64.4693C17.3734 64.4373 17.421 64.2147 17.3513 64.0049C17.2166 63.6008 17.0882 63.5872 17.0882 63.5872L17.2139 63.5672C17.2139 63.5672 17.3689 63.7104 17.4503 63.9917C17.4964 64.1509 17.4244 64.4132 17.4244 64.4132L17.2905 64.4693Z" fill="#D88A19"/>
<path d="M17.7814 65.1546L17.8174 65.2991L19.1665 64.9628L19.1305 64.8183L17.7814 65.1546Z" fill="#FCA61B"/>
<path d="M17.7214 65.7226C17.7228 65.7054 17.8812 65.2905 17.8812 65.2905L17.8545 65.1378L17.5109 64.8765L17.3852 64.8966C17.3852 64.8966 17.1685 64.9391 17.2779 65.3784C17.3674 65.7372 17.588 65.7786 17.588 65.7786L17.7219 65.7225L17.7214 65.7226Z" fill="#FCA61B"/>
<path d="M17.5874 65.7788C17.6702 65.7469 17.7178 65.5243 17.648 65.3147C17.5132 64.9106 17.3849 64.8971 17.3849 64.8971L17.5106 64.877C17.5106 64.877 17.6656 65.0202 17.7472 65.3013C17.7933 65.4604 17.7213 65.7228 17.7213 65.7228L17.5874 65.7788Z" fill="#D88A19"/>
<path d="M18.0451 66.5828L18.0811 66.7273L19.4301 66.391L19.3941 66.2466L18.0451 66.5828Z" fill="#FCA61B"/>
<path d="M17.988 67.1506C17.9894 67.1334 18.1478 66.7185 18.1478 66.7185L18.1211 66.5658L17.7775 66.3045L17.6518 66.3246C17.6518 66.3246 17.4351 66.3671 17.5445 66.8064C17.634 67.1652 17.8546 67.2066 17.8546 67.2066L17.9885 67.1505L17.988 67.1506Z" fill="#FCA61B"/>
<path d="M17.854 67.2068C17.9368 67.1749 17.9845 66.9523 17.9146 66.7427C17.7798 66.3386 17.6515 66.325 17.6515 66.325L17.7772 66.305C17.7772 66.305 17.9322 66.4482 18.0138 66.7292C18.0599 66.8884 17.9879 67.1508 17.9879 67.1508L17.854 67.2068Z" fill="#D88A19"/>
<path d="M18.3761 68.0223L18.4121 68.1667L19.7612 67.8305L19.7252 67.686L18.3761 68.0223Z" fill="#FCA61B"/>
<path d="M18.3171 68.5905C18.3185 68.5733 18.4769 68.1584 18.4769 68.1584L18.4502 68.0058L18.1066 67.7445L17.9809 67.7645C17.9809 67.7645 17.7642 67.807 17.8736 68.2463C17.9631 68.6051 18.1837 68.6465 18.1837 68.6465L18.3176 68.5904L18.3171 68.5905Z" fill="#FCA61B"/>
<path d="M18.1831 68.6463C18.2659 68.6143 18.3136 68.3917 18.2439 68.1819C18.1091 67.7778 17.9808 67.7642 17.9808 67.7642L18.1065 67.7442C18.1065 67.7442 18.2615 67.8874 18.3431 68.1684C18.3892 68.3276 18.3172 68.5899 18.3172 68.5899L18.1833 68.646L18.1831 68.6463Z" fill="#D88A19"/>
<path d="M22.0089 58.6987C22.0338 58.7976 21.9739 58.8981 21.8752 58.9227C21.7763 58.9477 21.6758 58.8878 21.6512 58.7891L21.4047 57.813C21.3798 57.7141 21.4397 57.6137 21.5384 57.589C21.6373 57.5641 21.7378 57.6239 21.7624 57.7226L22.0089 58.6987Z" fill="#FCA61B"/>
<path d="M21.6476 57.8397L22.5551 57.6564C22.5551 57.6564 22.8452 57.9521 23.1345 57.9407C23.424 57.929 24.8302 57.5889 24.8302 57.5889L24.9686 57.8925L21.8557 58.6636L21.6475 57.8392L21.6476 57.8397Z" fill="#FCA61B"/>
<path d="M11.986 70.777C11.908 70.9855 11.7148 71.8956 12.2656 74.2141C12.6176 75.6955 13.5208 77.0969 13.868 77.1323C14.2153 77.1678 14.2711 75.295 13.885 73.6805C13.4771 71.9746 12.2272 70.1324 11.9861 70.7775L11.986 70.777Z" fill="#D88A19"/>
<path d="M13.1446 71.8221C13.1149 71.8489 12.8616 71.9838 12.8283 72.3782C12.7074 73.8104 13.4296 74.8742 13.7957 75.1894C13.8937 75.2738 14.0157 75.3486 14.1431 75.3871C14.1083 74.8603 14.0281 74.2768 13.8959 73.7233C13.737 73.0586 13.4501 72.3728 13.1448 71.8218L13.1446 71.8221Z" fill="#B77116"/>
<path d="M20.8453 70.5574C20.9047 70.7931 20.7621 71.0322 20.5264 71.0917C20.2907 71.1511 20.0516 71.0085 19.9922 70.7728C19.9328 70.5372 20.0754 70.298 20.3111 70.2386C20.5467 70.1792 20.7859 70.3217 20.8453 70.5574Z" fill="#D88A19"/>
<path d="M20.2593 70.7355C20.2199 70.5796 20.3142 70.4216 20.4702 70.3821C20.5212 70.3693 20.5724 70.3709 20.6195 70.3842C20.5506 70.328 20.4572 70.3041 20.3647 70.3273C20.2088 70.3667 20.1145 70.5247 20.1539 70.6807C20.1802 70.7854 20.2608 70.8623 20.3579 70.8894C20.311 70.8511 20.2755 70.7986 20.2595 70.7353L20.2593 70.7355Z" fill="#FCA61B"/>
<path d="M21.3316 72.0266C21.391 72.2623 21.2484 72.5015 21.0127 72.5609C20.7771 72.6203 20.5379 72.4777 20.4785 72.2421C20.4191 72.0064 20.5617 71.7673 20.7974 71.7078C21.0331 71.6484 21.2722 71.791 21.3316 72.0266Z" fill="#D88A19"/>
<path d="M20.7447 72.205C20.7052 72.049 20.7997 71.8908 20.9555 71.8516C21.0065 71.8388 21.0578 71.8404 21.1048 71.8537C21.036 71.7975 20.9425 71.7736 20.8501 71.7968C20.6941 71.8362 20.5998 71.9942 20.6393 72.1502C20.6656 72.2549 20.7461 72.3318 20.8433 72.3589C20.7964 72.3206 20.7608 72.268 20.7447 72.205Z" fill="#FCA61B"/>
<path d="M21.7759 73.576C21.8353 73.8116 21.6927 74.0508 21.4571 74.1102C21.2214 74.1696 20.9823 74.0271 20.9229 73.7914C20.8635 73.5557 21.0061 73.3166 21.2417 73.2571C21.4774 73.1977 21.7165 73.3403 21.7759 73.576Z" fill="#D88A19"/>
<path d="M21.19 73.7541C21.1506 73.5981 21.2448 73.4401 21.4008 73.4007C21.4518 73.3879 21.5031 73.3895 21.5502 73.4028C21.4813 73.3466 21.3879 73.3227 21.2954 73.3459C21.1394 73.3853 21.0451 73.5433 21.0846 73.6993C21.1109 73.804 21.1914 73.8809 21.2886 73.908C21.2417 73.8697 21.2061 73.8171 21.1902 73.7538L21.19 73.7541Z" fill="#FCA61B"/>
<path opacity="0.4" d="M18.2956 62.7788C18.2956 62.7788 17.6545 59.8013 17.8806 59.3993C18.1831 58.8613 21.2739 58.0341 21.2739 58.0341L21.3452 58.3162C21.3452 58.3162 18.4329 59.029 18.1683 59.5342C17.9896 59.8751 18.8295 63.7053 18.8295 63.7053L18.2953 62.7786L18.2956 62.7788Z" fill="#F9E130"/>
<path opacity="0.4" d="M19.0151 77.5966C19.0801 77.5801 19.8112 77.8887 20.3395 77.7236C21.4945 77.3625 21.1469 75.0736 21.1469 75.0736L21.6748 75.7016C21.6748 75.7016 22.0481 77.5456 21.1007 78.3621C20.153 79.1784 18.5821 77.9833 18.5821 77.9833L19.0152 77.5971L19.0151 77.5966Z" fill="#F9E130"/>
<path d="M14.1718 71.9658C14.1022 71.8792 13.8899 71.6245 13.8167 71.785C13.7631 71.903 13.9226 72.1315 13.9686 72.203L13.9851 72.268C14.2447 72.7884 14.4122 73.5301 14.5201 74.1231C14.6236 74.6933 14.6114 75.2207 14.775 75.7804C15.015 75.5798 14.9588 74.8071 14.9306 74.4456C14.8965 74.0096 14.8176 73.5831 14.7072 73.147C14.6008 72.7255 14.4284 72.2842 14.1718 71.9658Z" fill="#D88A19"/>
<path d="M21.7789 57.806C21.782 57.8178 21.987 58.6295 21.987 58.6295L22.3495 58.5378L21.9592 57.7731L21.7789 57.806Z" fill="#D88A19"/>
<path d="M45.4894 72.8324L43.3331 63.704L23.208 68.458L25.3643 77.5864C25.7527 79.2306 30.5729 79.4997 36.1299 78.1871C41.687 76.8744 45.8772 74.4768 45.4888 72.8325L45.4894 72.8324Z" fill="#485770"/>
<path d="M40.0648 64.4762C40.0648 64.4762 43.6144 74.4809 32.3675 76.8645C29.7386 77.4215 27.3006 77.7497 25.3966 77.6883C25.9589 79.2412 30.6915 79.4719 36.1312 78.1869C41.571 76.9019 45.8785 74.4766 45.4901 72.8324L43.3338 63.704L40.0648 64.4762Z" fill="#313F56"/>
<path d="M43.7067 63.2869C44.2281 65.4942 40.5619 68.5778 34.215 70.0771C27.8681 71.5764 23.1379 70.4734 22.7148 68.2456C22.3732 66.4438 25.9795 63.5841 32.3264 62.0848C38.6733 60.5856 43.307 61.5978 43.7061 63.287L43.7067 63.2869Z" fill="#281F1F"/>
<path d="M25.4734 73.4778C25.8966 75.2693 26.1848 76.8939 25.9449 76.9506C25.7051 77.0072 25.2832 75.4135 24.8602 73.6227C24.4372 71.8318 24.1729 70.5208 24.4127 70.4642C24.6525 70.4075 25.0504 71.6869 25.4734 73.4778Z" fill="#2E3C54"/>
<path d="M34.0971 69.58C39.6543 68.2673 43.7893 65.6366 43.3328 63.7041C42.8764 61.7717 38.0013 61.2693 32.4441 62.5821C26.8869 63.8948 22.7519 66.5255 23.2084 68.458C23.6648 70.3904 28.5399 70.8927 34.0971 69.58Z" fill="#E8DCBA"/>
<path d="M33.7701 68.1341C29.0909 69.2394 24.8369 69.2177 22.7139 68.2461C22.7139 68.2461 22.9742 69.3481 23.1174 69.9542C23.1775 70.209 23.3626 70.4157 23.6093 70.5047C25.8387 71.3116 29.8641 71.2689 34.265 70.2293C38.6659 69.1897 42.2849 67.4266 43.9176 65.7075C44.0977 65.5177 44.1715 65.2505 44.1112 64.995C43.9682 64.3896 43.7077 63.2869 43.7077 63.2869C42.2445 65.1057 38.4493 67.0288 33.7701 68.1341Z" fill="#281F1F"/>
<path d="M43.5095 63.5173C43.5983 63.8933 43.7286 64.4447 43.8156 64.8129C43.8757 65.0677 43.8027 65.3354 43.6219 65.5253C41.9893 67.2445 38.3703 69.0076 33.9694 70.0472C29.5684 71.0868 25.5622 71.129 23.3295 70.3285C23.4081 70.4049 23.5018 70.4667 23.6086 70.5048C25.8379 71.3116 29.8633 71.269 34.2642 70.2294C38.6652 69.1898 42.2842 67.4266 43.9168 65.7075C44.097 65.5177 44.1708 65.2505 44.1104 64.995C43.9674 64.3896 43.7069 63.2869 43.7069 63.2869C43.6452 63.3635 43.5794 63.4402 43.5095 63.5173Z" fill="#110D0D"/>
<path d="M23.2949 70.1758C23.1952 69.7535 23.0386 69.0907 22.9527 68.7271C22.9278 68.6215 23.0314 68.5302 23.1324 68.5704C25.3255 69.4395 29.4392 69.4207 33.9476 68.3557C38.4561 67.2907 42.259 65.4091 43.7876 63.6251C43.7399 63.4231 43.7077 63.2869 43.7077 63.2869C42.2445 65.1057 38.4493 67.0288 33.7701 68.1341C29.0909 69.2395 24.8369 69.2177 22.7139 68.2461C22.7139 68.2461 22.9742 69.3481 23.1174 69.9542C23.1554 70.1152 23.243 70.2562 23.3648 70.3609C23.3339 70.3028 23.3103 70.241 23.2949 70.1758Z" fill="#5B4C4C"/>
<path d="M35.7642 76.5796C31.5028 77.5862 27.5936 77.6579 25.3269 76.9286C25.0595 76.8425 24.8 77.0779 24.8645 77.3509L25.1621 78.6107C25.1887 78.7234 25.2677 78.8162 25.3745 78.8605C27.5496 79.7579 31.7035 79.7496 36.2595 78.6734C40.8156 77.5971 44.534 75.7451 46.0777 73.97C46.1534 73.8826 46.1825 73.7642 46.1559 73.6515L45.8583 72.3918C45.7938 72.1187 45.4564 72.0243 45.2558 72.221C43.5544 73.8876 40.0264 75.5728 35.7656 76.5793L35.7642 76.5796Z" fill="#281F1F"/>
<path d="M35.7642 76.5796C31.5028 77.5862 27.5936 77.6579 25.3269 76.9286C25.0595 76.8425 24.8 77.0779 24.8645 77.3509L25.1621 78.6107C25.1887 78.7234 25.2677 78.8162 25.3745 78.8605C27.5496 79.7579 31.7035 79.7496 36.2595 78.6734C40.8156 77.5971 44.534 75.7451 46.0777 73.97C46.1534 73.8826 46.1825 73.7642 46.1559 73.6515L45.8583 72.3918C45.7938 72.1187 45.4564 72.0243 45.2558 72.221C43.5544 73.8876 40.0264 75.5728 35.7656 76.5793L35.7642 76.5796Z" fill="#281F1F"/>
<path d="M45.3031 72.1823L45.5639 73.2863C45.5905 73.399 45.5614 73.5173 45.4857 73.6047C43.9421 75.3806 40.2236 77.2319 35.6675 78.3081C31.3689 79.3235 27.4283 79.3874 25.1705 78.6375C25.2025 78.738 25.2763 78.8203 25.3745 78.8604C27.5496 79.7579 31.7035 79.7496 36.2595 78.6733C40.8155 77.5971 44.534 75.7451 46.0777 73.9699C46.1534 73.8825 46.1825 73.7642 46.1559 73.6515L45.8583 72.3917C45.7986 72.1389 45.5054 72.0395 45.303 72.1816L45.3031 72.1823Z" fill="#110D0D"/>
<path d="M25.1149 77.6517C25.0504 77.3786 25.31 77.1432 25.5773 77.2294C27.8447 77.9584 31.7539 77.8868 36.0147 76.8803C40.2755 75.8739 43.8042 74.1885 45.505 72.5221C45.6078 72.4214 45.7473 72.3974 45.8669 72.4345L45.857 72.3928C45.7925 72.1197 45.4551 72.0254 45.2545 72.222C43.5531 73.8886 40.0251 75.5738 35.7642 76.5803C31.5034 77.5868 27.5936 77.6586 25.3269 76.9294C25.0595 76.8432 24.8 77.0786 24.8645 77.3517L25.1621 78.6114C25.1887 78.7241 25.2677 78.8169 25.3745 78.8612C25.3837 78.8652 25.3942 78.8689 25.4033 78.8723L25.1149 77.6517Z" fill="#5B4C4C"/>
<path d="M43.7064 63.2869C43.3074 61.5977 38.6736 60.5855 32.3267 62.0848C25.9798 63.584 22.3804 66.4379 22.714 68.2403L22.7132 68.246C22.7132 68.246 22.714 68.2465 22.7148 68.247C22.7266 68.3082 22.7423 68.3691 22.7606 68.4288C22.752 68.3751 22.7467 68.3206 22.7445 68.2647C22.8188 68.3084 23.0073 68.4132 23.0895 68.4C23.0895 68.4 22.667 67.7677 23.2754 66.9235C24.4511 65.2917 27.6322 63.4194 32.3772 62.2985C37.1222 61.1776 40.9389 61.4891 42.6974 62.4264C42.9966 62.5863 43.2652 62.8201 43.3804 63.139C43.432 63.2816 43.4887 63.4691 43.4131 63.6445C43.4131 63.6445 43.7188 63.3742 43.7303 63.4086C43.7234 63.3676 43.7158 63.3267 43.7063 63.2863L43.7064 63.2869Z" fill="#5B4C4C"/>
<path d="M24.239 66.7716C24.0357 66.4962 26.9344 64.1918 29.1797 63.9449C29.9791 63.8572 28.3828 64.5501 26.8349 65.4717C25.6321 66.1879 24.4711 67.0869 24.239 66.7716Z" fill="#F9EED4"/>
<g filter="url(#filter0_i_923_15367)">
<path d="M29.9349 65.7968C30.0051 65.8787 30.1607 65.8619 30.285 65.7584L41.8772 56.1315C42.1564 55.8918 42.2528 55.5461 42.0928 55.3594C41.9328 55.1728 41.5764 55.2158 41.2968 55.4556L30.0258 65.4564C29.9051 65.5637 29.8645 65.7145 29.9349 65.7968Z" fill="#F9BE69"/>
<path d="M30.0256 65.4564C29.9049 65.5638 29.8643 65.7146 29.9347 65.7969C29.9368 65.7994 29.9393 65.8018 29.9416 65.8037L41.0997 55.9036C41.3788 55.6639 41.7353 55.6209 41.8957 55.8074C41.9494 55.8699 41.9734 55.9501 41.9726 56.0384C42.1764 55.8089 42.233 55.5233 42.0928 55.3599C41.9328 55.1733 41.5764 55.2163 41.2968 55.4561L30.0256 65.4564Z" fill="#D69A4C"/>
<path d="M35.8126 60.7222C38.8821 58.0869 41.2422 55.8015 41.5572 56.1687C41.7217 56.3603 39.0655 58.3007 35.9959 60.936C35.0437 61.7534 34.1148 62.4846 33.3239 63.149C31.5659 64.6259 30.3768 65.6366 30.3222 65.5729C30.288 65.5328 32.7428 63.358 35.8123 60.7227L35.8126 60.7222Z" fill="#FFDCAE"/>
</g>
<g filter="url(#filter1_i_923_15367)">
<path d="M34.1845 66.9002C34.1913 67.0135 34.0618 67.1146 33.8923 67.1274L18.1081 68.3529C17.722 68.3766 17.3964 68.1866 17.3804 67.9288C17.3648 67.6708 17.6645 67.4424 18.0506 67.4188L33.8667 66.7099C34.0363 66.7025 34.1771 66.7865 34.1845 66.9002Z" fill="#F9BE69"/>
<path d="M33.8667 66.7099C34.0363 66.7025 34.1771 66.7865 34.1845 66.9002C34.1845 66.9036 34.1845 66.907 34.1844 66.9105L18.5271 67.612C18.1409 67.6356 17.8408 67.8641 17.8569 68.1219C17.862 68.2083 17.9031 68.2865 17.9681 68.352C17.6461 68.3283 17.3948 68.1547 17.3808 67.9286C17.3653 67.6707 17.6649 67.4423 18.0511 67.4187L33.8667 66.7099Z" fill="#D69A4C"/>
<path d="M26.0394 67.3754C21.7969 67.6353 18.3455 67.6395 18.3761 68.1463C18.3921 68.411 21.8149 67.9299 26.0571 67.6706C27.3732 67.5901 28.6086 67.4617 29.6909 67.3836C32.097 67.2107 33.7327 67.1022 33.7272 67.0145C33.7239 66.9591 30.2816 67.1162 26.039 67.3756L26.0394 67.3754Z" fill="#FFDCAE"/>
</g>
<path d="M64.369 16.1627L64.3672 16.5137L62.8939 16.5061L62.8957 16.1551L64.369 16.1627Z" fill="#635144"/>
<path d="M64.6981 13.2245L64.6963 13.5754L63.223 13.5679L63.2248 13.2169L64.6981 13.2245Z" fill="#635144"/>
<path d="M64.7157 10.2857L64.7139 10.6367L63.2405 10.6292L63.2423 10.2782L64.7157 10.2857Z" fill="#635144"/>
<path d="M46.5525 57.1901C49.2535 55.1413 49.6226 51.5305 48.6532 49.946C47.6839 48.3615 44.765 45.7802 46.6376 40.6574C48.6326 35.2001 57.3147 33.9021 57.3147 33.9021C57.3147 33.9021 65.9835 35.2899 67.9217 40.7681C69.7413 45.9107 66.7959 48.4614 65.8107 50.0355C64.8255 51.6096 65.1568 55.224 67.8366 57.3008C69.8886 58.8915 73.9976 60.5218 73.1997 70.2095C72.298 81.1613 57.0738 80.5892 57.0738 80.5892C57.0738 80.5892 41.8446 81.0037 41.0565 70.0437C40.3594 60.3482 44.4846 58.7601 46.553 57.1907L46.5525 57.1901Z" fill="#AA6933"/>
<path d="M50.0334 57.2082C52.5813 55.1586 52.9302 51.5475 52.0167 49.9636C51.1033 48.3798 48.3515 45.7986 50.1191 40.675C52.0017 35.2169 60.1903 33.9168 60.1903 33.9168C60.1903 33.9168 68.365 35.3017 70.1909 40.7791C71.9054 45.9209 69.1271 48.4729 68.1973 50.0471C67.2674 51.6212 67.5791 55.2359 70.1058 57.3118C72.041 58.9015 75.9146 60.5312 75.1597 70.2192C74.3062 81.171 59.9489 80.6033 59.9489 80.6033C59.9489 80.6033 45.5871 81.0226 44.8466 70.0621C44.1919 60.3663 48.0824 58.7771 50.034 57.2077L50.0334 57.2082Z" fill="#D38240"/>
<path d="M56.6755 51.0002L62.6421 51.0309L61.6116 17.0691L57.9461 17.05L56.6755 51.0002Z" fill="#42362E"/>
<path d="M57.49 51.0041L63.4566 51.0348L62.426 17.073L58.7605 17.0539L57.49 51.0041Z" fill="#635144"/>
<path d="M55.3565 56.8463C55.3422 59.6539 57.4412 61.9408 60.0453 61.9539C62.6494 61.9671 64.7726 59.7021 64.7874 56.8951C64.8016 54.0876 62.7026 51.8007 60.0985 51.7876C57.4945 51.7744 55.3713 54.0394 55.3565 56.8463Z" fill="#E8B128"/>
<path d="M56.3618 56.8569C56.35 59.1278 58.0111 60.9781 60.0718 60.9894C62.1327 60.9995 63.8128 59.1675 63.8247 56.8955C63.8364 54.6245 62.1753 52.7743 60.1146 52.763C58.0538 52.7529 56.3736 54.5848 56.3618 56.8569Z" fill="#42362E"/>
<path d="M55.3652 67.649L63.3126 67.6903L63.9255 66.9692L56.4439 66.0419L55.5195 66.4819L55.3652 67.649Z" fill="#42362E"/>
<path d="M56.4398 66.8485L63.9259 66.9692L63.9306 66.0811L56.4443 66.042L56.4398 66.8485Z" fill="#635144"/>
<path d="M58.5536 6.70761L62.8699 6.76587L63.6736 8.85405L62.8029 19.8511L58.2224 19.8276L57.7065 8.93233L58.5536 6.70761Z" fill="#D38240"/>
<path d="M57.598 6.70184L58.5549 6.70754L57.7077 8.93225L58.2236 19.8276L57.5345 19.8237L56.8933 8.81875L57.598 6.70184Z" fill="#AA6933"/>
<path d="M57.5897 16.1273L57.5879 16.4783L56.1146 16.4707L56.1164 16.1197L57.5897 16.1273Z" fill="#635144"/>
<path d="M57.4168 13.0992L57.415 13.4502L55.9417 13.4426L55.9435 13.0916L57.4168 13.0992Z" fill="#635144"/>
<path d="M57.4344 10.0719L57.4326 10.4229L55.9593 10.4153L55.9611 10.0643L57.4344 10.0719Z" fill="#635144"/>
<path d="M55.3549 16.7684C55.3528 17.0864 55.6095 17.3451 55.9275 17.3471C56.2455 17.3492 56.5048 17.092 56.5062 16.7745L56.5112 15.8204C56.5132 15.5024 56.2561 15.2431 55.9386 15.2417C55.6206 15.2396 55.3612 15.4968 55.3598 15.8143L55.3549 16.7684Z" fill="#42362E"/>
<path d="M55.14 13.7398C55.138 14.0578 55.3951 14.3172 55.7126 14.3186C56.0306 14.3206 56.29 14.0635 56.2914 13.746L56.2963 12.7919C56.2984 12.4739 56.0412 12.2145 55.7237 12.2131C55.4057 12.2111 55.1464 12.4682 55.145 12.7857L55.14 13.7398Z" fill="#42362E"/>
<path d="M55.1556 10.7132C55.1536 11.0312 55.4108 11.2905 55.7283 11.292C56.0463 11.294 56.3056 11.0368 56.307 10.7194L56.312 9.76526C56.314 9.44725 56.0568 9.1879 55.7394 9.18648C55.4214 9.18446 55.162 9.4416 55.1606 9.75909L55.1556 10.7132Z" fill="#42362E"/>
<path d="M63.7943 16.8118C63.7923 17.1298 64.0489 17.3886 64.3669 17.3906C64.6849 17.3926 64.9443 17.1355 64.9457 16.818L64.9506 15.8639C64.9527 15.5459 64.6955 15.2865 64.378 15.2851C64.06 15.2831 63.8007 15.5402 63.7993 15.8577L63.7943 16.8118Z" fill="#42362E"/>
<path d="M63.8549 13.7852C63.8528 14.1032 64.11 14.3626 64.4275 14.364C64.7455 14.366 65.0048 14.1089 65.0062 13.7914L65.0112 12.8373C65.0132 12.5193 64.7566 12.2605 64.4386 12.2585C64.1206 12.2565 63.8612 12.5136 63.8598 12.8311L63.8549 13.7852Z" fill="#42362E"/>
<path d="M64.141 10.7593C64.139 11.0773 64.3956 11.3361 64.7136 11.3381C65.0316 11.3401 65.291 11.083 65.2924 10.7655L65.2973 9.8114C65.2993 9.49339 65.0422 9.23405 64.7247 9.23263C64.4067 9.23061 64.1474 9.48774 64.1459 9.80523L64.141 10.7593Z" fill="#42362E"/>
<path d="M57.6347 46.9699C57.6344 47.0912 57.7319 47.1905 57.8532 47.1907L62.8355 47.2166C62.9568 47.2169 63.056 47.1194 63.0563 46.9981C63.0566 46.8768 62.9591 46.7775 62.8378 46.7773L57.8555 46.7514C57.7342 46.7511 57.635 46.8486 57.6347 46.9699Z" fill="#897062"/>
<path d="M57.8135 41.2009C57.8132 41.3222 57.9012 41.4213 58.0102 41.4218L62.4945 41.4451C62.6035 41.4456 62.6927 41.3474 62.6935 41.2267C62.6937 41.1054 62.6058 41.0063 62.4968 41.0058L58.0125 40.9825C57.9035 40.982 57.8143 41.0802 57.8135 41.2009Z" fill="#897062"/>
<path d="M58.1152 35.4338C58.1149 35.5551 58.1973 35.6538 58.3007 35.6539L62.5352 35.6755C62.6381 35.6762 62.7222 35.5782 62.7225 35.4569C62.7228 35.3356 62.6404 35.2369 62.5369 35.2367L58.3024 35.2151C58.1996 35.2145 58.1155 35.3124 58.1152 35.4338Z" fill="#897062"/>
<path d="M58.3061 29.6655C58.3059 29.7868 58.3855 29.8858 58.485 29.8862L62.5713 29.9068C62.6708 29.9072 62.7522 29.8096 62.7525 29.6883C62.7527 29.5669 62.6731 29.4679 62.5736 29.4675L58.4872 29.4469C58.3878 29.4465 58.3064 29.5441 58.3061 29.6655Z" fill="#897062"/>
<path d="M58.5722 23.8972C58.572 24.0185 58.6449 24.1171 58.7354 24.1179L62.4679 24.1373C62.5591 24.1376 62.6331 24.0401 62.6334 23.9187C62.6337 23.7974 62.5608 23.6988 62.4702 23.698L58.7377 23.6786C58.6466 23.6782 58.5725 23.7758 58.5722 23.8972Z" fill="#897062"/>
<path d="M63.0179 67.1561C63.0179 67.1561 63.0201 67.1562 63.0207 67.1557C63.0935 67.1542 63.1514 67.0946 63.1499 67.0218L62.3578 16.4778C62.3563 16.405 62.2973 16.3466 62.2245 16.3481C62.1517 16.3496 62.0937 16.4092 62.0953 16.482L62.8868 67.0265C62.8878 67.0987 62.9463 67.1554 63.0179 67.1561Z" fill="#EED2A0"/>
<path d="M61.636 66.9518C61.636 66.9518 61.636 66.9518 61.6366 66.9513C61.7093 66.9509 61.7678 66.8919 61.7674 66.8191L61.6024 14.2819C61.6025 14.2098 61.5435 14.1513 61.472 14.1507C61.472 14.1507 61.472 14.1507 61.4714 14.1512C61.3986 14.1516 61.3402 14.2106 61.3406 14.2833L61.5056 66.8206C61.5055 66.8927 61.5645 66.9512 61.636 66.9518Z" fill="#EED2A0"/>
<path d="M60.5177 66.9457C60.5904 66.9453 60.6494 66.8869 60.649 66.8142L60.6688 12.2599C60.6689 12.1878 60.6105 12.1288 60.5379 12.1281C60.4652 12.1285 60.4062 12.1869 60.4066 12.2596L60.3879 66.814C60.3878 66.8861 60.4462 66.9451 60.5188 66.9458L60.5177 66.9457Z" fill="#EED2A0"/>
<path d="M59.2027 66.8729C59.2754 66.8736 59.3343 66.8152 59.3351 66.7426L59.8233 10.5454C59.824 10.4728 59.7651 10.4132 59.6925 10.4125C59.6198 10.4118 59.5609 10.4702 59.5601 10.5428L59.0725 66.7395C59.0718 66.8121 59.1307 66.8717 59.2033 66.8724L59.2027 66.8729Z" fill="#EED2A0"/>
<path d="M57.9524 66.8664C58.0245 66.8665 58.084 66.8087 58.0847 66.7361L58.8418 9.22454C58.8425 9.15191 58.7847 9.09243 58.7115 9.09112C58.7115 9.09112 58.7115 9.09112 58.7109 9.09163C58.6388 9.09152 58.5793 9.14933 58.5786 9.22197L57.8209 66.734C57.8202 66.8066 57.878 66.8661 57.9512 66.8674C57.9512 66.8674 57.9512 66.8674 57.9518 66.8669L57.9524 66.8664Z" fill="#EED2A0"/>
<path d="M61.767 16.5749C61.7659 16.7867 61.9369 16.9599 62.1487 16.9611C62.3605 16.9622 62.5338 16.7912 62.5344 16.5788C62.5356 16.3669 62.3645 16.1937 62.1527 16.1926C61.9409 16.1914 61.7676 16.3624 61.7665 16.5743L61.767 16.5749Z" fill="#7C4028"/>
<path d="M61.9899 16.5664C61.9891 16.6944 62.0929 16.7997 62.2215 16.7999C62.3495 16.8006 62.4541 16.6974 62.455 16.5683C62.4558 16.4392 62.3525 16.3357 62.2234 16.3348C62.0954 16.3341 61.9901 16.4378 61.9899 16.5664Z" fill="#E8B128"/>
<path d="M61.018 14.2904C61.0168 14.5023 61.1879 14.6755 61.3997 14.6767C61.6115 14.6778 61.7848 14.5068 61.7854 14.2944C61.7865 14.0825 61.6155 13.9093 61.4037 13.9081C61.1918 13.907 61.0186 14.078 61.018 14.2904Z" fill="#7C4028"/>
<path d="M61.2407 14.282C61.24 14.41 61.3437 14.5152 61.4717 14.516C61.5997 14.5167 61.705 14.413 61.7052 14.2844C61.706 14.1564 61.6027 14.0518 61.4736 14.0509C61.3456 14.0502 61.2404 14.1539 61.2401 14.2825L61.2407 14.282Z" fill="#E8B128"/>
<path d="M60.1488 12.1578C60.1476 12.3696 60.3187 12.5429 60.5305 12.544C60.7423 12.5452 60.9156 12.3742 60.9167 12.1623C60.9179 11.9505 60.7468 11.7772 60.535 11.7761C60.3232 11.775 60.1499 11.946 60.1493 12.1584L60.1488 12.1578Z" fill="#7C4028"/>
<path d="M60.3706 12.1492C60.3699 12.2772 60.4731 12.3818 60.6016 12.3832C60.7296 12.3839 60.8343 12.2807 60.8351 12.1516C60.8358 12.0236 60.7326 11.9189 60.6035 11.9181C60.4755 11.9174 60.3709 12.0206 60.37 12.1497L60.3706 12.1492Z" fill="#E8B128"/>
<path d="M59.3021 10.4427C59.301 10.6546 59.472 10.8278 59.6838 10.8289C59.8956 10.8301 60.0689 10.6591 60.07 10.4472C60.0712 10.2354 59.9002 10.0622 59.6883 10.061C59.4765 10.0599 59.3032 10.2309 59.3021 10.4427Z" fill="#7C4028"/>
<path d="M59.5239 10.4338C59.5232 10.5618 59.6269 10.6671 59.7549 10.6678C59.8829 10.6686 59.9882 10.5648 59.9884 10.4363C59.9892 10.3083 59.8859 10.2036 59.7568 10.2028C59.6288 10.202 59.5242 10.3053 59.5233 10.4344L59.5239 10.4338Z" fill="#E8B128"/>
<path d="M58.2992 9.2313C58.298 9.44313 58.4691 9.61638 58.6809 9.61752C58.8927 9.61867 59.066 9.44764 59.0671 9.23581C59.0683 9.02398 58.8972 8.85073 58.6854 8.84959C58.4736 8.84844 58.3003 9.01947 58.2992 9.2313Z" fill="#7C4028"/>
<path d="M58.5214 9.22197C58.5206 9.34996 58.6239 9.45461 58.753 9.45544C58.881 9.45619 58.9862 9.35245 58.9865 9.22386C58.9872 9.09587 58.884 8.99121 58.7549 8.99038C58.6269 8.98963 58.5216 9.09338 58.5214 9.22197Z" fill="#E8B128"/>
<path opacity="0.3" d="M57.6515 74.1037C58.3505 71.8393 63.1804 71.847 65.0364 71.3114C67.7933 70.5157 68.6923 68.8181 69.4721 66.2676C69.874 64.9538 68.8712 63.6499 68.3717 62.6424C67.948 61.7863 66.3917 61.0853 66.6748 60.0018C66.8202 59.4458 67.2274 59.0834 67.4699 58.9526C69.5155 57.8445 72.3953 60.8866 73.2402 62.9308C74.1055 65.025 74.5116 69.0317 73.8554 71.2287C72.5606 75.5646 66.9652 78.1973 62.8266 78.7366C58.9413 79.2431 56.7692 76.9622 57.6515 74.1037Z" fill="#E8B128"/>
<path d="M86.8259 82.7973L93.3921 71.7528C93.3921 71.7528 94.4861 69.7854 96.5875 70.7166C98.4411 71.5384 98.5206 72.9103 98.048 74.0769C97.5755 75.2434 93.4759 82.4116 92.921 82.8333C91.7839 83.6968 90.5179 83.3269 89.7599 82.7698C89.0016 82.2129 88.557 81.3778 88.557 81.3778L88.9132 81.0057C88.9132 81.0057 89.5692 82.0603 90.2037 82.346C90.8386 82.6319 91.7396 82.8713 92.3866 82.1651C93.0336 81.4589 96.5496 75.2496 97.012 74.279C97.774 72.6798 97.085 72.003 96.4123 71.575C95.7397 71.1469 94.8502 71.2341 94.1685 72.0004C93.4867 72.7668 87.2934 83.0266 87.2934 83.0266L86.8259 82.7973Z" fill="#FCA61B"/>
<path d="M88.8014 81.7631C88.8014 81.7631 87.7989 80.572 87.6753 79.7293C87.5539 78.8998 87.7427 77.8096 88.9359 75.7391C90.1292 73.6692 92.047 69.6497 92.3643 68.682C92.838 67.2363 92.9179 66.4213 92.3668 65.7655C91.0624 64.2142 90.8041 63.1884 90.9305 62.7793C91.161 62.0327 92.8193 61.9306 96.0731 63.7048C99.9353 65.8113 101.716 67.437 100.913 68.4134C100.291 69.17 99.2878 68.8755 98.0776 68.6175C96.9786 68.3834 95.8947 68.7983 95.0331 69.4609C93.34 70.7631 92.0934 72.203 91.0211 74.0634C89.9421 75.9355 88.5494 78.2562 88.3648 79.0877C88.0894 80.328 88.9132 81.0056 88.9132 81.0056L88.8008 81.7633L88.8014 81.7631Z" fill="#FCA61B"/>
<path d="M86.4856 82.6969L86.5504 82.5844C86.6076 82.4852 86.735 82.451 86.8343 82.5082L87.5092 82.8972C87.6084 82.9544 87.6426 83.0818 87.5854 83.181L87.5206 83.2935C87.4634 83.3927 87.336 83.4269 87.2368 83.3698L86.5619 82.9807C86.4626 82.9235 86.4284 82.7961 86.4856 82.6969Z" fill="#FCA61B"/>
<path d="M87.3727 83.263C87.2789 83.3249 87.0363 83.3859 86.8244 83.6911C86.6496 83.9429 86.6284 84.1846 86.6284 84.1846L86.0584 83.8754C86.0584 83.8754 86.3589 83.6818 86.4776 83.5203C86.6463 83.2912 86.6198 82.875 86.6198 82.875L87.3727 83.263Z" fill="#FCA61B"/>
<path d="M87.4515 76.9464L87.2959 77.2163L89.8161 78.669L89.9717 78.3991L87.4515 76.9464Z" fill="#FCA61B"/>
<path d="M91.361 63.4748C91.472 63.8063 93.6167 66.1253 95.6664 67.0656C97.7054 68.001 100.168 68.7907 100.583 68.0706C100.901 67.5189 98.704 65.5143 96.5572 64.3411C92.575 62.1653 90.9756 62.323 91.3612 63.4745L91.361 63.4748Z" fill="#D88A19"/>
<path d="M97.306 67.0476C96.5114 66.2934 95.808 65.7977 94.6226 65.3547C94.1632 65.183 93.5058 65.0389 93.0262 65.2568C93.8146 65.9651 94.8274 66.6966 95.8015 67.1436C96.5668 67.4948 97.4113 67.7952 98.1652 68.033C97.9251 67.6848 97.598 67.3253 97.3058 67.0479L97.306 67.0476Z" fill="#B77116"/>
<path d="M86.5336 77.7116C86.5609 77.6874 87.4014 77.2923 87.4014 77.2923L87.5828 77.0239L87.4444 76.1314L87.2259 75.9787C87.2259 75.9787 86.8375 75.728 86.3647 76.5482C85.9783 77.2186 86.2507 77.6015 86.2507 77.6015L86.5338 77.7113L86.5336 77.7116Z" fill="#FCA61B"/>
<path d="M86.2511 77.6019C86.4226 77.6743 86.8173 77.4077 87.0165 76.9905C87.4003 76.1858 87.2262 75.9791 87.2262 75.9791L87.4448 76.1318C87.4448 76.1318 87.4701 76.5729 87.1848 77.1144C87.0233 77.4211 86.5339 77.712 86.5339 77.712L86.2509 77.6022L86.2511 77.6019Z" fill="#D88A19"/>
<path d="M88.5091 75.0905L88.3535 75.3604L90.8738 76.813L91.0293 76.5431L88.5091 75.0905Z" fill="#FCA61B"/>
<path d="M87.5902 75.8559C87.6175 75.8317 88.458 75.4366 88.458 75.4366L88.6394 75.1682L88.5011 74.2757L88.2825 74.123C88.2825 74.123 87.8941 73.8723 87.4213 74.6925C87.035 75.3629 87.3074 75.7458 87.3074 75.7458L87.5904 75.8556L87.5902 75.8559Z" fill="#FCA61B"/>
<path d="M87.3058 75.7459C87.4773 75.8184 87.872 75.5517 88.0712 75.1345C88.455 74.3298 88.2809 74.1231 88.2809 74.1231L88.4995 74.2759C88.4995 74.2759 88.5248 74.717 88.2395 75.2584C88.0779 75.5651 87.5886 75.856 87.5886 75.856L87.3056 75.7463L87.3058 75.7459Z" fill="#D88A19"/>
<path d="M89.5228 73.4235L89.3672 73.6934L91.8874 75.146L92.043 74.8761L89.5228 73.4235Z" fill="#FCA61B"/>
<path d="M88.6039 74.1889C88.6312 74.1647 89.4717 73.7696 89.4717 73.7696L89.6531 73.5012L89.5147 72.6087L89.2962 72.456C89.2962 72.456 88.9078 72.2053 88.435 73.0255C88.0486 73.6959 88.321 74.0788 88.321 74.0788L88.6041 74.1886L88.6039 74.1889Z" fill="#FCA61B"/>
<path d="M88.3204 74.0787C88.4921 74.1508 88.8867 73.8845 89.0858 73.4673C89.4696 72.6626 89.2956 72.4559 89.2956 72.4559L89.5141 72.6086C89.5141 72.6086 89.5394 73.0497 89.2541 73.5912C89.0926 73.8979 88.6032 74.1888 88.6032 74.1888L88.3202 74.079L88.3204 74.0787Z" fill="#D88A19"/>
<path d="M88.7616 78.0764L88.9133 77.7908L89.2273 77.9853L88.9632 78.1661L88.7616 78.0764Z" fill="#D88A19"/>
<path d="M89.7779 76.1973L89.9436 75.9335L90.2536 76.1121L89.9637 76.2911L89.7779 76.1973Z" fill="#D88A19"/>
<path d="M90.7581 74.4975L90.9137 74.2273L91.268 74.4447L90.9623 74.6283L90.7581 74.4975Z" fill="#D88A19"/>
<path d="M88.6767 80.7465L88.3945 80.1698L88.6018 79.81L88.9523 80.2939L88.6767 80.7465Z" fill="#D88A19"/>
<path d="M86.9566 82.5789L87.4073 82.8387L87.5735 82.565L87.0266 82.4611L86.9566 82.5789Z" fill="#D88A19"/>
<path opacity="0.4" d="M87.8939 78.6563C87.8939 78.6563 88.0033 78.1152 88.1595 77.71C88.5628 76.6634 90.3827 73.5754 90.9822 72.3622C91.5817 71.1491 92.2133 70.0709 92.4363 69.423C92.7925 68.3894 92.8552 67.7257 92.8552 67.7257L93.3405 68.3051C93.3405 68.3051 93.35 68.6703 92.4696 70.3012C91.5896 71.9324 89.0212 76.3878 89.0212 76.3878C88.3726 77.5127 88.0698 78.6974 88.0698 78.6974L87.8938 78.6558L87.8939 78.6563Z" fill="#F9E130"/>
<path opacity="0.4" d="M87.3386 83.0524C87.3884 83.0811 87.4055 83.1446 87.3766 83.1943C87.3479 83.2441 87.2844 83.2612 87.2347 83.2323L86.6198 82.8776C86.5699 82.849 86.5528 82.7855 86.5817 82.7358C86.6104 82.6859 86.6739 82.6689 86.7236 82.6978L87.3386 83.0524Z" fill="#F9E130"/>
<path opacity="0.4" d="M91.6828 64.3517C91.6828 64.3517 92.9436 65.8049 93.9196 66.4003C96.3003 67.8524 98.4695 68.4234 98.4695 68.4234C98.4695 68.4234 96.4343 68.2096 95.7067 68.05C94.9791 67.8904 93.835 67.1712 93.3133 66.5505C92.7914 65.9301 91.6828 64.3517 91.6828 64.3517Z" fill="#F9E130"/>
<path opacity="0.4" d="M97.259 74.5982L92.9866 82.1067L93.0529 81.5271L97.3594 73.9921L97.259 74.5982Z" fill="#F9E130"/>
<path d="M56.9445 120.151C61.9688 118.699 66.5432 115.006 67.862 110.285C70.7123 111.437 74.8411 112.933 77.7935 112.078C80.7459 111.224 82.3568 109.683 82.2526 106.612C84.8712 107.197 87.5386 107.783 90.21 107.549C92.7733 107.326 95.5751 106.166 97.1177 104.013C97.6013 103.342 97.9017 102.498 97.7559 101.681C99.7954 103.093 102.524 103.443 104.948 103.186C106.344 103.039 107.762 102.644 108.837 101.741C109.911 100.841 110.573 99.3522 110.209 97.9968C109.569 95.6283 106.56 95.0048 104.116 94.8221C99.5922 94.4809 95.0688 94.1397 90.5453 93.7985C77.9986 92.8539 65.3684 91.9086 52.8535 93.1911C51.8281 93.2967 50.6341 93.5366 50.2039 94.47C49.8057 95.3376 50.3325 96.4017 51.1327 96.9248C51.9328 97.4479 52.918 97.5615 53.8683 97.6643C48.1366 97.6047 42.4083 97.5451 36.6766 97.4821C32.0912 97.433 27.5058 97.384 22.9198 97.3976C18.1004 97.4091 13.1792 97.5033 8.64457 99.1343C7.76353 99.4503 6.78661 99.9606 6.61091 100.879C6.44247 101.766 7.15939 102.626 8.0068 102.937C8.8542 103.248 9.78554 103.149 10.682 103.045C8.39878 103.133 7.56915 106.578 9.08322 108.289C10.5973 110 13.2408 110.15 15.4619 109.62C17.683 109.089 19.7697 108.018 22.0307 107.708C23.6534 110.866 26.9911 113.214 30.5539 113.435C32.6784 113.566 40.1855 112.303 40.8373 109.63C39.5918 114.727 43.117 118.282 48.0417 120.087C50.768 121.088 53.9362 121.023 56.9445 120.151Z" fill="white"/>
<path d="M97.1219 104.013C97.6054 103.342 97.9059 102.498 97.7601 101.681C99.7996 103.094 102.528 103.443 104.953 103.186C106.348 103.039 107.766 102.644 108.841 101.741C109.915 100.841 110.577 99.3523 110.213 97.9969C109.573 95.6285 106.564 95.005 104.12 94.8222C99.5964 94.481 95.0729 94.1398 90.5494 93.7986C78.0028 92.8541 65.3725 91.9088 52.8577 93.1912C51.8322 93.2968 50.6383 93.5367 50.2081 94.4702C49.8098 95.3377 50.3367 96.4019 51.1368 96.9249C51.9335 97.448 52.9221 97.5616 53.8725 97.6644C48.1407 97.6048 42.4125 97.5453 36.6807 97.4822C32.0954 97.4331 27.51 97.3841 22.924 97.3977C18.1046 97.4092 13.1833 97.5035 8.64871 99.1345C7.76767 99.4505 6.79076 99.9607 6.61507 100.879C6.44663 101.766 7.16354 102.626 8.01095 102.937C8.85836 103.248 9.78968 103.149 10.6862 103.046C8.40293 103.133 7.57331 106.578 9.08738 108.289C10.6014 110 13.2449 110.15 15.4661 109.62C17.6872 109.09 19.7739 108.018 22.0348 107.708C22.7127 109.028 23.6916 110.201 24.8607 111.142C26.3047 108.343 28.5915 105.973 31.372 104.49C35.2275 102.435 40.4839 102.27 44.5819 103.782C42.824 105.477 41.4731 107.635 40.72 109.953C40.7698 109.845 40.8126 109.737 40.8415 109.626C40.3781 111.514 40.5819 112.467 41.2554 114.268C41.9859 111.748 42.9748 110.311 44.6345 108.302C46.8122 105.667 50.3722 103.922 53.6818 104.771C55.1732 105.154 56.5068 106.024 57.6367 107.069C61.1715 110.342 62.663 113.757 61.2625 118.271C64.416 116.39 66.9437 113.591 67.8662 110.282C67.8852 107.069 66.5549 105.841 64.209 103.634C69.2515 102.106 75.1323 102.243 80.1028 104C78.6366 102.011 76.5142 100.51 74.1478 99.7915C79.1816 98.064 84.8357 98.2274 89.762 100.242C91.1333 100.801 92.5614 101.626 93.0399 103.031C93.5216 104.454 92.8309 106.061 91.7308 107.083C91.6148 107.19 91.4954 107.29 91.3725 107.386C93.5858 106.957 95.8122 105.848 97.1254 104.013L97.1219 104.013Z" fill="#F5FBFF"/>
<path d="M10.6792 103.046C8.39597 103.133 7.56634 106.578 9.08041 108.289C10.5945 110 13.238 110.15 15.4591 109.62C14.7239 109.613 13.8084 109.51 13.167 109.156C12.5256 108.798 12.0016 108.173 11.9108 107.444C11.8621 107.053 11.9319 106.657 12.0573 106.281C12.6197 104.617 14.1913 103.478 15.8415 102.884C18.3169 101.994 21.0234 102.109 23.6532 102.234C19.31 101.616 15.061 102.88 10.6792 103.046Z" fill="#DFF2FD"/>
<path d="M51.1295 96.9284C50.3329 96.4054 49.8025 95.3377 50.2008 94.4736C50.631 93.5402 51.8284 93.3003 52.8504 93.1947C65.3687 91.9122 77.9955 92.8575 90.5421 93.8021C95.0656 94.1433 99.5891 94.4845 104.113 94.8257C106.557 95.0084 109.569 95.6354 110.206 98.0004C110.57 99.3558 109.908 100.841 108.834 101.744C109.341 100.773 108.923 99.5742 108.181 98.7694C107.439 97.9646 106.391 97.5193 105.352 97.1822C100.614 95.6299 95.5106 95.7782 90.5295 95.9415C92.1164 96.1721 93.5635 97.2064 94.3031 98.6315C88.0152 95.7616 80.8987 95.4628 73.9909 95.2078C69.7933 95.0542 65.5398 94.9072 61.437 95.8173C63.399 95.8005 65.3622 96.4179 66.9582 97.5581C61.6371 96.4116 56.4003 95.5829 51.126 96.9319L51.1295 96.9284Z" fill="#DFF2FD"/>
<path d="M53.8657 97.6678C48.134 97.6082 42.4057 97.5487 36.674 97.4856C32.0886 97.4366 27.5032 97.3875 22.9172 97.4011C18.0978 97.4127 13.1766 97.5069 8.64196 99.1379C7.76092 99.4539 6.78399 99.9641 6.6083 100.882C6.43986 101.77 7.15678 102.63 8.00418 102.941C7.98971 102.24 8.60486 101.66 9.20411 101.293C9.80336 100.926 10.5052 100.775 11.1928 100.646C18.9701 99.1839 26.9456 99.2885 34.8584 99.396C37.9419 99.4382 41.2305 99.5416 43.7687 101.297C46.7642 99.1603 50.189 97.7073 53.8657 97.6713L53.8657 97.6678Z" fill="#DFF2FD"/>
<ellipse cx="58.3862" cy="127.759" rx="11.686" ry="0.402872" fill="#F9F9F9"/>
<ellipse cx="58.386" cy="131.438" rx="7.13409" ry="0.245945" fill="#F9F9F9"/>
<path d="M18.5518 100.572C16.5646 100.572 14.7682 99.5701 13.8589 97.9537C11.5272 93.8065 9.72334 87.4503 9.56935 84.3418C9.56202 84.1443 9.55469 83.9541 9.55469 83.7859C9.57669 82.323 9.93598 80.8821 12.4144 80.3116C27.7688 76.7715 43.8565 74.9722 60.2375 74.9722C75.4233 74.9722 90.2571 76.5301 104.336 79.5948C105.421 79.8289 107.232 80.5895 107.217 83.0325C107.254 85.7534 106.147 90.8807 102.906 97.2369C102.077 98.8606 100.288 99.8773 98.235 99.8919L18.5518 100.572Z" fill="#A16CD3"/>
<path d="M104.115 80.5019C74.5207 74.2043 41.876 74.6139 12.641 81.1967C10.8445 81.599 10.6099 82.4109 10.5879 83.5958C10.5879 83.7421 10.5879 83.903 10.6026 84.0712C10.7565 86.9896 12.531 93.0386 14.7601 96.9078C15.5301 98.239 17.0552 98.9558 18.5951 98.9485L98.2343 98.2902C99.7448 98.2756 101.292 97.588 101.989 96.2495C104.951 90.5663 106.219 85.6072 106.183 82.9083C106.183 82.5718 106.315 80.97 104.122 80.5019H104.115Z" fill="url(#paint0_linear_923_15367)"/>
<path opacity="0.09" d="M10.603 84.0711C10.757 86.9895 12.5315 93.0384 14.7606 96.9077C15.5305 98.2389 17.0557 98.9557 18.5956 98.9484L98.2348 98.2901C99.7453 98.2755 101.292 97.5879 101.989 96.2494C102.224 95.7959 102.444 95.3571 102.656 94.9182C37.9462 100.133 17.2537 89.6666 10.6617 82.8716C10.6177 83.0983 10.603 83.3397 10.5957 83.6103C10.5957 83.7566 10.5957 83.9175 10.6104 84.0858L10.603 84.0711Z" fill="#580087"/>
<path d="M16.2996 92.1461C17.3646 92.1461 18.228 91.2849 18.228 90.2225C18.228 89.1601 17.3646 88.2988 16.2996 88.2988C15.2345 88.2988 14.3711 89.1601 14.3711 90.2225C14.3711 91.2849 15.2345 92.1461 16.2996 92.1461Z" fill="url(#paint1_linear_923_15367)"/>
<path d="M16.0146 92.1973C14.8707 92.1973 13.9395 91.2683 13.9395 90.1273C13.9395 88.9863 14.8707 88.0574 16.0146 88.0574C17.1585 88.0574 18.0897 88.9863 18.0897 90.1273C18.0897 91.2683 17.1585 92.1973 16.0146 92.1973Z" fill="#6D458D"/>
<path d="M16.1179 92.0583C17.183 92.0583 18.0464 91.197 18.0464 90.1346C18.0464 89.0722 17.183 88.2109 16.1179 88.2109C15.0529 88.2109 14.1895 89.0722 14.1895 90.1346C14.1895 91.197 15.0529 92.0583 16.1179 92.0583Z" fill="url(#paint2_radial_923_15367)"/>
<path d="M101.073 92.1461C102.138 92.1461 103.001 91.2849 103.001 90.2225C103.001 89.1601 102.138 88.2988 101.073 88.2988C100.008 88.2988 99.1445 89.1601 99.1445 90.2225C99.1445 91.2849 100.008 92.1461 101.073 92.1461Z" fill="url(#paint3_linear_923_15367)"/>
<path d="M100.787 92.1973C99.6432 92.1973 98.7119 91.2683 98.7119 90.1273C98.7119 88.9863 99.6432 88.0574 100.787 88.0574C101.931 88.0574 102.862 88.9863 102.862 90.1273C102.862 91.2683 101.931 92.1973 100.787 92.1973Z" fill="#6D458D"/>
<path d="M100.889 92.0583C101.954 92.0583 102.818 91.197 102.818 90.1346C102.818 89.0722 101.954 88.2109 100.889 88.2109C99.8243 88.2109 98.9609 89.0722 98.9609 90.1346C98.9609 91.197 99.8243 92.0583 100.889 92.0583Z" fill="url(#paint4_radial_923_15367)"/>
<path d="M104.115 80.5019C74.5207 74.2043 41.876 74.6139 12.641 81.1967C10.8445 81.599 10.6099 82.4109 10.5879 83.5958C10.5879 83.5958 10.7565 82.8059 13.081 82.0964C22.9066 79.0975 65.2743 72.3464 103.169 81.1967C104.548 81.5186 105.252 81.7672 106.168 82.901C106.168 82.5645 106.3 80.9627 104.108 80.4946L104.115 80.5019Z" fill="url(#paint5_linear_923_15367)"/>
<path d="M29.4941 92.793V87.5898C29.4941 87.1992 29.4121 86.9043 29.248 86.7051C29.084 86.502 28.8379 86.3672 28.5098 86.3008C28.416 86.2695 28.2988 86.2461 28.1582 86.2305C28.0215 86.2109 27.8652 86.2012 27.6895 86.2012C27.4043 86.2012 27.0547 86.2148 26.6406 86.2422C26.2266 86.2695 25.7109 86.3125 25.0938 86.3711V85.2695C25.2891 85.2422 25.4824 85.2207 25.6738 85.2051C25.8652 85.1895 26.0547 85.1758 26.2422 85.1641C26.543 85.1445 26.8242 85.1309 27.0859 85.123C27.3516 85.1113 27.5957 85.1055 27.8184 85.1055C28.2676 85.1055 28.6406 85.1289 28.9375 85.1758C29.2344 85.2188 29.502 85.293 29.7402 85.3984C29.9785 85.5078 30.1758 85.6406 30.332 85.7969C30.4922 85.9531 30.6172 86.1523 30.707 86.3945C30.7695 86.5742 30.8145 86.7578 30.8418 86.9453C30.8691 87.1328 30.8828 87.3477 30.8828 87.5898V92.793H29.4941ZM25.0938 92.793V88.1875H26.4707V92.793H25.0938ZM35.7871 92.793C35.7871 92.7539 35.7871 92.7168 35.7871 92.6816C35.7871 92.6465 35.7871 92.6094 35.7871 92.5703C35.7871 92.3828 35.8164 92.1367 35.875 91.832C35.9336 91.5273 36 91.2129 36.0742 90.8887C36.0977 90.7832 36.1289 90.6523 36.168 90.4961C36.2109 90.3398 36.2559 90.1758 36.3027 90.0039C36.3535 89.8281 36.4043 89.6621 36.4551 89.5059L37.4805 86.3125H32.8047V85.2227H38.9629V86.1074L37.8555 89.5293C37.8203 89.623 37.7773 89.752 37.7266 89.916C37.6797 90.0801 37.6328 90.2461 37.5859 90.4141C37.5391 90.5781 37.5 90.7188 37.4688 90.8359C37.4414 90.9414 37.4102 91.0723 37.375 91.2285C37.3398 91.3848 37.3047 91.5488 37.2695 91.7207C37.2383 91.8887 37.2109 92.0488 37.1875 92.2012C37.168 92.3535 37.1582 92.4766 37.1582 92.5703V92.793H35.7871ZM32.8047 95.6758V88.2871H34.1875V95.6758H32.8047ZM40.1465 90.1387V85.2227H41.5234V89.043L40.6504 90.1387H40.1465ZM43.498 92.793V89.0254C43.498 88.6621 43.5312 88.3203 43.5977 88C43.668 87.6797 43.7637 87.4004 43.8848 87.1621C43.9824 86.9824 44.084 86.8223 44.1895 86.6816C44.2949 86.5371 44.4082 86.4141 44.5293 86.3125H42.9238V85.2227H45.8535V86.2246C45.7559 86.2988 45.6641 86.3906 45.5781 86.5C45.4961 86.6055 45.4199 86.7188 45.3496 86.8398C45.2793 86.9609 45.2188 87.082 45.168 87.2031C45.1016 87.3711 45.0469 87.5547 45.0039 87.7539C44.9648 87.9492 44.9355 88.1309 44.916 88.2988C44.9043 88.4004 44.8945 88.5117 44.8867 88.6328C44.8789 88.7539 44.875 88.8848 44.875 89.0254V92.793H43.498ZM47.0547 92.793V85.2227H48.4316V92.793H47.0547ZM50.0137 92.793L50.5117 87.4141C50.5234 87.3164 50.5312 87.2305 50.5352 87.1562C50.5391 87.082 50.541 87.0078 50.541 86.9336C50.541 86.8008 50.5332 86.6738 50.5176 86.5527C50.5059 86.4316 50.4844 86.3027 50.4531 86.166C50.4414 86.1113 50.4219 86.0391 50.3945 85.9492C50.3672 85.8594 50.3398 85.7715 50.3125 85.6855C50.2891 85.5957 50.2695 85.5293 50.2539 85.4863C50.2383 85.4355 50.2207 85.3887 50.2012 85.3457C50.1855 85.2988 50.1699 85.25 50.1543 85.1992H51.4258C51.4922 85.3438 51.5488 85.4824 51.5957 85.6152C51.6426 85.748 51.6777 85.877 51.7012 86.002H51.7773C51.832 85.9238 51.9355 85.8262 52.0879 85.709C52.2441 85.5918 52.3965 85.4941 52.5449 85.416C52.7012 85.3379 52.9023 85.2676 53.1484 85.2051C53.3945 85.1387 53.6602 85.1055 53.9453 85.1055C54.2383 85.1055 54.502 85.1465 54.7363 85.2285C54.9746 85.3066 55.1816 85.416 55.3574 85.5566C55.4707 85.6504 55.5703 85.7539 55.6562 85.8672C55.7461 85.9766 55.8242 86.0957 55.8906 86.2246C56.0039 86.459 56.0879 86.7266 56.1426 87.0273C56.2012 87.3281 56.2305 87.6621 56.2305 88.0293V92.793H53.3184V91.6973H54.8418V88.0293C54.8418 87.7598 54.8164 87.5215 54.7656 87.3145C54.7148 87.1074 54.6406 86.9355 54.543 86.7988C54.4805 86.6895 54.4043 86.5918 54.3145 86.5059C54.2246 86.416 54.1152 86.3477 53.9863 86.3008C53.8574 86.25 53.7031 86.2246 53.5234 86.2246C53.3008 86.2246 53.0938 86.2578 52.9023 86.3242C52.7109 86.3906 52.5527 86.4707 52.4277 86.5645C52.3105 86.6543 52.2051 86.7539 52.1113 86.8633C52.0176 86.9688 51.9414 87.0781 51.8828 87.1914L51.373 92.793H50.0137ZM62.6699 92.793V87.5898C62.6699 87.1992 62.5879 86.9043 62.4238 86.7051C62.2598 86.502 62.0137 86.3672 61.6855 86.3008C61.5918 86.2695 61.4746 86.2461 61.334 86.2305C61.1973 86.2109 61.041 86.2012 60.8652 86.2012C60.5801 86.2012 60.2305 86.2148 59.8164 86.2422C59.4023 86.2695 58.8867 86.3125 58.2695 86.3711V85.2695C58.4648 85.2422 58.6582 85.2207 58.8496 85.2051C59.041 85.1895 59.2305 85.1758 59.418 85.1641C59.7188 85.1445 60 85.1309 60.2617 85.123C60.5273 85.1113 60.7715 85.1055 60.9941 85.1055C61.4434 85.1055 61.8164 85.1289 62.1133 85.1758C62.4102 85.2188 62.6777 85.293 62.916 85.3984C63.1543 85.5078 63.3516 85.6406 63.5078 85.7969C63.668 85.9531 63.793 86.1523 63.8828 86.3945C63.9453 86.5742 63.9902 86.7578 64.0176 86.9453C64.0449 87.1328 64.0586 87.3477 64.0586 87.5898V92.793H62.6699ZM58.2695 92.793V88.1875H59.6465V92.793H58.2695ZM69.0742 92.793V85.2695C69.1562 85.2539 69.2617 85.2402 69.3906 85.2285C69.5195 85.2168 69.668 85.2051 69.8359 85.1934C70.1914 85.1621 70.5312 85.1406 70.8555 85.1289C71.1797 85.1133 71.4902 85.1055 71.7871 85.1055C72.2559 85.1055 72.6445 85.1309 72.9531 85.1816C73.2617 85.2285 73.541 85.3105 73.791 85.4277C73.998 85.5215 74.1738 85.6387 74.3184 85.7793C74.4629 85.9199 74.5801 86.0977 74.6699 86.3125C74.7363 86.4648 74.7852 86.6328 74.8164 86.8164C74.8477 87 74.8633 87.2012 74.8633 87.4199V92.793H69.0742ZM70.457 91.6973H73.4805V87.3906C73.4805 87.1836 73.4531 87.0098 73.3984 86.8691C73.3438 86.7285 73.2617 86.6133 73.1523 86.5234C73.0664 86.4492 72.9629 86.3906 72.8418 86.3477C72.7246 86.3047 72.5918 86.2734 72.4434 86.2539C72.3535 86.2344 72.2441 86.2227 72.1152 86.2188C71.9902 86.2109 71.8438 86.207 71.6758 86.207C71.5195 86.207 71.3379 86.2129 71.1309 86.2246C70.9277 86.2324 70.7031 86.2441 70.457 86.2598V91.6973ZM78.502 92.793L79.0938 89.8926L80.1309 86.3184H76.1699V83.6465H77.5469V85.1992H81.5195V86.207L80.4531 89.8926L79.873 92.793H78.502ZM82.9609 92.793V85.2227H84.3379V92.793H82.9609ZM85.709 93.1387V92.0195L87.1855 91.8027C87.291 91.7832 87.3965 91.7637 87.502 91.7441C87.6113 91.7207 87.7207 91.6953 87.8301 91.668L86.1074 85.2227H87.4785L88.3809 88.5801L88.9844 91.2344C89.2695 91.0742 89.5215 90.8652 89.7402 90.6074C89.9629 90.3496 90.1445 90.0488 90.2852 89.7051C90.4258 89.3574 90.5176 88.9766 90.5605 88.5625L90.8711 85.2227H92.2129L91.9023 88.5098C91.875 88.8066 91.8262 89.0898 91.7559 89.3594C91.6895 89.625 91.6016 89.877 91.4922 90.1152C91.3828 90.3535 91.2539 90.5762 91.1055 90.7832C90.7969 91.3262 90.3652 91.7715 89.8105 92.1191C89.2598 92.4629 88.5938 92.6953 87.8125 92.8164C87.4336 92.875 87.0684 92.9297 86.7168 92.9805C86.3691 93.0352 86.0332 93.0879 85.709 93.1387Z" fill="#292A2C"/>
<defs>
<filter id="filter0_i_923_15367" x="29.9004" y="55.2434" width="12.2695" height="14.6052" filterUnits="userSpaceOnUse" color-interpolation-filters="sRGB">
<feFlood flood-opacity="0" result="BackgroundImageFix"/>
<feBlend mode="normal" in="SourceGraphic" in2="BackgroundImageFix" result="shape"/>
<feColorMatrix in="SourceAlpha" type="matrix" values="0 0 0 0 0 0 0 0 0 0 0 0 0 0 0 0 0 0 127 0" result="hardAlpha"/>
<feOffset dy="4"/>
<feGaussianBlur stdDeviation="2"/>
<feComposite in2="hardAlpha" operator="arithmetic" k2="-1" k3="1"/>
<feColorMatrix type="matrix" values="0 0 0 0 0 0 0 0 0 0 0 0 0 0 0 0 0 0 0.25 0"/>
<feBlend mode="normal" in2="shape" result="effect1_innerShadow_923_15367"/>
</filter>
<filter id="filter1_i_923_15367" x="17.3799" y="66.7095" width="16.8047" height="5.64551" filterUnits="userSpaceOnUse" color-interpolation-filters="sRGB">
<feFlood flood-opacity="0" result="BackgroundImageFix"/>
<feBlend mode="normal" in="SourceGraphic" in2="BackgroundImageFix" result="shape"/>
<feColorMatrix in="SourceAlpha" type="matrix" values="0 0 0 0 0 0 0 0 0 0 0 0 0 0 0 0 0 0 127 0" result="hardAlpha"/>
<feOffset dy="4"/>
<feGaussianBlur stdDeviation="2"/>
<feComposite in2="hardAlpha" operator="arithmetic" k2="-1" k3="1"/>
<feColorMatrix type="matrix" values="0 0 0 0 0 0 0 0 0 0 0 0 0 0 0 0 0 0 0.25 0"/>
<feBlend mode="normal" in2="shape" result="effect1_innerShadow_923_15367"/>
</filter>
<linearGradient id="paint0_linear_923_15367" x1="10.5952" y1="87.4724" x2="106.175" y2="87.4724" gradientUnits="userSpaceOnUse">
<stop stop-color="#C890FC"/>
<stop offset="0.16" stop-color="#CC99FC"/>
<stop offset="0.41" stop-color="#D8B1FE"/>
<stop offset="0.53" stop-color="#DFC0FF"/>
<stop offset="0.81" stop-color="#D1A4FD"/>
<stop offset="1" stop-color="#C890FC"/>
</linearGradient>
<linearGradient id="paint1_linear_923_15367" x1="17.0108" y1="86.2655" x2="15.7192" y2="93.4858" gradientUnits="userSpaceOnUse">
<stop offset="0.49" stop-color="white" stop-opacity="0"/>
<stop offset="1" stop-color="white" stop-opacity="0.8"/>
</linearGradient>
<radialGradient id="paint2_radial_923_15367" cx="0" cy="0" r="1" gradientUnits="userSpaceOnUse" gradientTransform="translate(10.4425 83.9906) scale(12.5021 12.4709)">
<stop offset="0.56" stop-color="#E8D2FF" stop-opacity="0.87"/>
<stop offset="0.6" stop-color="#E2CAFB" stop-opacity="0.88"/>
<stop offset="0.65" stop-color="#D4B5F2" stop-opacity="0.91"/>
<stop offset="0.71" stop-color="#BB92E3" stop-opacity="0.95"/>
<stop offset="0.75" stop-color="#A16CD3"/>
<stop offset="0.84" stop-color="#A26ED3"/>
<stop offset="0.89" stop-color="#A879D5" stop-opacity="0.99"/>
<stop offset="0.92" stop-color="#B38AD9" stop-opacity="0.97"/>
<stop offset="0.95" stop-color="#C2A3DE" stop-opacity="0.94"/>
<stop offset="0.98" stop-color="#D5C3E5" stop-opacity="0.9"/>
<stop offset="1" stop-color="#E8E3EC" stop-opacity="0.87"/>
</radialGradient>
<linearGradient id="paint3_linear_923_15367" x1="101.784" y1="86.2655" x2="100.493" y2="93.4858" gradientUnits="userSpaceOnUse">
<stop offset="0.49" stop-color="white" stop-opacity="0"/>
<stop offset="1" stop-color="white" stop-opacity="0.8"/>
</linearGradient>
<radialGradient id="paint4_radial_923_15367" cx="0" cy="0" r="1" gradientUnits="userSpaceOnUse" gradientTransform="translate(95.214 83.9906) scale(12.5021 12.4709)">
<stop offset="0.56" stop-color="#E8D2FF" stop-opacity="0.87"/>
<stop offset="0.6" stop-color="#E2CAFB" stop-opacity="0.88"/>
<stop offset="0.65" stop-color="#D4B5F2" stop-opacity="0.91"/>
<stop offset="0.71" stop-color="#BB92E3" stop-opacity="0.95"/>
<stop offset="0.75" stop-color="#A16CD3"/>
<stop offset="0.84" stop-color="#A26ED3"/>
<stop offset="0.89" stop-color="#A879D5" stop-opacity="0.99"/>
<stop offset="0.92" stop-color="#B38AD9" stop-opacity="0.97"/>
<stop offset="0.95" stop-color="#C2A3DE" stop-opacity="0.94"/>
<stop offset="0.98" stop-color="#D5C3E5" stop-opacity="0.9"/>
<stop offset="1" stop-color="#E8E3EC" stop-opacity="0.87"/>
</radialGradient>
<linearGradient id="paint5_linear_923_15367" x1="10.5952" y1="79.7997" x2="106.175" y2="79.7997" gradientUnits="userSpaceOnUse">
<stop offset="0.03" stop-color="white" stop-opacity="0.5"/>
<stop offset="0.49" stop-color="white" stop-opacity="0"/>
<stop offset="1" stop-color="white" stop-opacity="0.5"/>
</linearGradient>
</defs>
</svg>
