<?xml version="1.0" encoding="UTF-8"?><svg id="Layer_2" xmlns="http://www.w3.org/2000/svg" width="4mm" height="3.84mm" xmlns:xlink="http://www.w3.org/1999/xlink" viewBox="0 0 11.34 10.88"><defs><linearGradient id="linear-gradient" x1="5.63" y1="2.64" x2="5.81" y2="9.29" gradientUnits="userSpaceOnUse"><stop offset=".23" stop-color="#ffd900"/><stop offset=".95" stop-color="#fdc200"/></linearGradient><linearGradient id="linear-gradient-2" x1="-234.59" y1="-289.51" x2="-235.7" y2="-292.08" gradientTransform="translate(-33.18 374.8) rotate(44.81)" gradientUnits="userSpaceOnUse"><stop offset=".09" stop-color="#fff"/><stop offset="1" stop-color="#fff" stop-opacity=".1"/></linearGradient><linearGradient id="linear-gradient-3" x1="10.21" y1="5.11" x2="8.07" y2="3.5" gradientUnits="userSpaceOnUse"><stop offset=".23" stop-color="#fff"/><stop offset="1" stop-color="#fff" stop-opacity=".1"/></linearGradient></defs><g id="Layer_1-2"><g><path d="m8.77,10.74c-.06,0-.12-.02-.17-.05l-2.98-1.62s-.01,0-.02,0c0,0-.01,0-.02,0l-3.02,1.53c-.05.03-.11.04-.17.04-.11,0-.21-.05-.28-.13-.07-.08-.1-.19-.08-.3l.62-3.33s0-.03-.01-.04L.25,4.44c-.1-.1-.13-.24-.09-.38s.16-.23.3-.25l3.36-.44s.03-.01.04-.03L5.4.34c.06-.12.19-.2.33-.2s.27.08.33.21l1.46,3.06s.02.02.04.03l3.34.53c.14.02.25.12.29.25s0,.28-.1.37l-2.46,2.33s-.02.03-.01.04l.52,3.35c.02.11-.01.21-.08.29-.07.08-.17.13-.28.13h0Z" fill="#e09d00" stroke="#962363" stroke-miterlimit="10" stroke-width=".28"/><path d="m8.77,10.4s0,0-.01,0l-2.97-1.62c-.06-.03-.12-.05-.19-.05-.06,0-.12.01-.18.04l-3.02,1.53s0,0-.01,0c0,0-.02,0-.02-.01,0,0,0-.01,0-.02l.62-3.33c.02-.13-.02-.25-.11-.35L.49,4.2s0-.02,0-.03c0,0,0-.02.02-.02l3.36-.44c.13-.02.24-.1.3-.21L5.7.5s.01-.01.02-.01c.01,0,.02,0,.02.01l1.46,3.06c.05.12.16.2.29.22l3.35.54s.02,0,.02.02c0,0,0,.02,0,.03l-2.58,2.29c-.09.09-.14.22-.12.34l.65,3.38s0,.01,0,.02c0,0-.01,0-.02,0Z" fill="#fff"/><path d="m8.77,10.4s0,0-.01,0l-2.97-1.62c-.06-.03-.12-.05-.19-.05-.06,0-.12.01-.18.04l-3.02,1.53s0,0-.01,0c0,0-.02,0-.02-.01,0,0,0-.01,0-.02l.62-3.33c.02-.13-.02-.25-.11-.35L.49,4.2s0-.02,0-.03c0,0,0-.02.02-.02l3.36-.44c.13-.02.24-.1.3-.21L5.7.5s.01-.01.02-.01c.01,0,.02,0,.02.01l1.46,3.06c.05.12.16.2.29.22l3.35.54s.02,0,.02.02c0,0,0,.02,0,.03l-2.58,2.29c-.09.09-.14.22-.12.34l.65,3.38s0,.01,0,.02c0,0-.01,0-.02,0Z" fill="url(#linear-gradient)"/><path d="m8.35,3.87l-1-.16c-.06-.01-.11-.05-.14-.11l-1.33-2.87c-.07-.15-.27-.15-.34,0l-1.4,2.83c-.03.06-.08.1-.14.1l-3.06.41c-.15.02-.22.22-.11.33l2.13,2.02c1.71-.2,3.91-.9,5.39-2.54Z" fill="#faf0c5" opacity=".29"/><path d="m8.27,6.71l2.25-2.18c.11-.11.05-.31-.1-.33l-2.06-.34-1-.16c-.06-.01-.11-.05-.14-.11l-1.33-2.87c-.07-.15-.27-.15-.34,0l-1.41,2.82c-.03.06-.08.1-.14.1l-1.94.26c1.83,2.11,4.23,4.37,6.46,4.9l-.29-1.93c0-.06.01-.13.06-.17Z" fill="#faf0c5" opacity=".26"/><path d="m5.27,2.64c-.12.25-.49.84-.62.78s.03-.74.15-1,.32-.41.45-.35.13.32.01.57Z" fill="url(#linear-gradient-2)" opacity=".79"/><path d="m9.2,4.14c.46.08.82.11.8.25s-.42.18-.88.1-1.05-.14-.79-.4c.1-.1.41-.03.87.05Z" fill="url(#linear-gradient-3)" opacity=".79"/></g></g></svg>