<svg width="394" height="824" viewBox="0 0 394 824" fill="none" xmlns="http://www.w3.org/2000/svg">
<path d="M0.900391 0.394775H393.9V823.116H0.900391V0.394775Z" fill="url(#paint0_linear_1160_18358)"/>
<g filter="url(#filter0_d_1160_18358)">
<path d="M28.338 433.751L28.7068 427.183L30.4772 433.509L36.8725 433.895L30.7132 435.706L30.337 442.274L28.574 435.956L22.1787 435.569L28.338 433.751Z" fill="white"/>
</g>
<g filter="url(#filter1_d_1160_18358)">
<path d="M361.401 140.857L361.769 134.289L363.54 140.615L369.935 141.001L363.776 142.812L363.4 149.38L361.637 143.062L355.241 142.675L361.401 140.857Z" fill="white"/>
</g>
<g filter="url(#filter2_d_1160_18358)">
<path d="M327.294 663.851L327.663 657.283L329.433 663.608L335.829 663.995L329.669 665.805L329.293 672.374L327.53 666.055L321.135 665.669L327.294 663.851Z" fill="white"/>
</g>
<g filter="url(#filter3_d_1160_18358)">
<path d="M46.838 740.66L47.2068 734.092L48.9772 740.418L55.3725 740.804L49.2132 742.615L48.837 749.183L47.074 742.865L40.6787 742.478L46.838 740.66Z" fill="white"/>
</g>
<g filter="url(#filter4_d_1160_18358)">
<path d="M46.2755 104.692L46.6443 98.124L48.4147 104.45L54.81 104.836L48.6507 106.647L48.2745 113.215L46.5115 106.897L40.1162 106.51L46.2755 104.692Z" fill="white"/>
</g>
<defs>
<filter id="filter0_d_1160_18358" x="12.1787" y="417.183" width="34.6934" height="35.0909" filterUnits="userSpaceOnUse" color-interpolation-filters="sRGB">
<feFlood flood-opacity="0" result="BackgroundImageFix"/>
<feColorMatrix in="SourceAlpha" type="matrix" values="0 0 0 0 0 0 0 0 0 0 0 0 0 0 0 0 0 0 127 0" result="hardAlpha"/>
<feOffset/>
<feGaussianBlur stdDeviation="5"/>
<feColorMatrix type="matrix" values="0 0 0 0 1 0 0 0 0 1 0 0 0 0 1 0 0 0 0.75 0"/>
<feBlend mode="normal" in2="BackgroundImageFix" result="effect1_dropShadow_1160_18358"/>
<feBlend mode="normal" in="SourceGraphic" in2="effect1_dropShadow_1160_18358" result="shape"/>
</filter>
<filter id="filter1_d_1160_18358" x="345.241" y="124.289" width="34.6934" height="35.0909" filterUnits="userSpaceOnUse" color-interpolation-filters="sRGB">
<feFlood flood-opacity="0" result="BackgroundImageFix"/>
<feColorMatrix in="SourceAlpha" type="matrix" values="0 0 0 0 0 0 0 0 0 0 0 0 0 0 0 0 0 0 127 0" result="hardAlpha"/>
<feOffset/>
<feGaussianBlur stdDeviation="5"/>
<feColorMatrix type="matrix" values="0 0 0 0 1 0 0 0 0 1 0 0 0 0 1 0 0 0 0.75 0"/>
<feBlend mode="normal" in2="BackgroundImageFix" result="effect1_dropShadow_1160_18358"/>
<feBlend mode="normal" in="SourceGraphic" in2="effect1_dropShadow_1160_18358" result="shape"/>
</filter>
<filter id="filter2_d_1160_18358" x="311.135" y="647.283" width="34.6934" height="35.0909" filterUnits="userSpaceOnUse" color-interpolation-filters="sRGB">
<feFlood flood-opacity="0" result="BackgroundImageFix"/>
<feColorMatrix in="SourceAlpha" type="matrix" values="0 0 0 0 0 0 0 0 0 0 0 0 0 0 0 0 0 0 127 0" result="hardAlpha"/>
<feOffset/>
<feGaussianBlur stdDeviation="5"/>
<feColorMatrix type="matrix" values="0 0 0 0 1 0 0 0 0 1 0 0 0 0 1 0 0 0 0.75 0"/>
<feBlend mode="normal" in2="BackgroundImageFix" result="effect1_dropShadow_1160_18358"/>
<feBlend mode="normal" in="SourceGraphic" in2="effect1_dropShadow_1160_18358" result="shape"/>
</filter>
<filter id="filter3_d_1160_18358" x="30.6787" y="724.092" width="34.6934" height="35.0909" filterUnits="userSpaceOnUse" color-interpolation-filters="sRGB">
<feFlood flood-opacity="0" result="BackgroundImageFix"/>
<feColorMatrix in="SourceAlpha" type="matrix" values="0 0 0 0 0 0 0 0 0 0 0 0 0 0 0 0 0 0 127 0" result="hardAlpha"/>
<feOffset/>
<feGaussianBlur stdDeviation="5"/>
<feColorMatrix type="matrix" values="0 0 0 0 1 0 0 0 0 1 0 0 0 0 1 0 0 0 0.75 0"/>
<feBlend mode="normal" in2="BackgroundImageFix" result="effect1_dropShadow_1160_18358"/>
<feBlend mode="normal" in="SourceGraphic" in2="effect1_dropShadow_1160_18358" result="shape"/>
</filter>
<filter id="filter4_d_1160_18358" x="30.1162" y="88.124" width="34.6934" height="35.0909" filterUnits="userSpaceOnUse" color-interpolation-filters="sRGB">
<feFlood flood-opacity="0" result="BackgroundImageFix"/>
<feColorMatrix in="SourceAlpha" type="matrix" values="0 0 0 0 0 0 0 0 0 0 0 0 0 0 0 0 0 0 127 0" result="hardAlpha"/>
<feOffset/>
<feGaussianBlur stdDeviation="5"/>
<feColorMatrix type="matrix" values="0 0 0 0 1 0 0 0 0 1 0 0 0 0 1 0 0 0 0.75 0"/>
<feBlend mode="normal" in2="BackgroundImageFix" result="effect1_dropShadow_1160_18358"/>
<feBlend mode="normal" in="SourceGraphic" in2="effect1_dropShadow_1160_18358" result="shape"/>
</filter>
<linearGradient id="paint0_linear_1160_18358" x1="185.763" y1="914.907" x2="172.39" y2="-160.649" gradientUnits="userSpaceOnUse">
<stop stop-color="#B1E5F3"/>
<stop offset="0.489583" stop-color="#AFD6FF"/>
<stop offset="1" stop-color="#B4CCFF"/>
</linearGradient>
</defs>
</svg>
