<svg width="394" height="800" viewBox="0 0 394 800" fill="none" xmlns="http://www.w3.org/2000/svg">
<rect x="0.926758" y="0.394775" width="393" height="798.978" fill="url(#paint0_linear_952_11156)"/>
<g filter="url(#filter0_d_952_11156)">
<path d="M62.232 157.939L53.6975 139.956L67.5639 154.197L85.1138 145.959L71.3734 159.691L79.8884 177.686L66.0525 163.454L48.5026 171.692L62.232 157.939Z" fill="#FFBD00"/>
</g>
<g filter="url(#filter1_d_952_11156)">
<path d="M56.4492 552.254L49.6212 537.6L60.8008 549.245L75.1006 542.656L63.8631 553.729L70.6751 568.392L59.5203 556.755L45.2205 563.344L56.4492 552.254Z" fill="#FFBD00"/>
</g>
<g filter="url(#filter2_d_952_11156)">
<path d="M304.459 643.422L313.708 634.442L307.865 645.911L316.572 654.956L305.289 649.392L296.029 658.362L301.873 646.913L293.166 637.868L304.459 643.422Z" fill="#FFBD00"/>
</g>
<g filter="url(#filter3_d_952_11156)">
<path d="M262.009 76.1527L262.498 67.5104L264.842 75.8337L273.312 76.3421L265.155 78.7245L264.657 87.3668L262.322 79.0534L253.853 78.5451L262.009 76.1527Z" fill="#FFBD00"/>
</g>
<g filter="url(#filter4_d_952_11156)">
<path d="M351.972 216.422L352.614 204.986L355.696 216L366.831 216.673L356.107 219.825L355.452 231.261L352.383 220.26L341.248 219.588L351.972 216.422Z" fill="#FFBD00"/>
</g>
<g filter="url(#filter5_d_952_11156)">
<path d="M320.532 485.701L321.8 463.127L327.884 484.868L349.864 486.196L328.695 492.419L327.403 514.992L321.344 493.278L299.364 491.95L320.532 485.701Z" fill="#FFBD00"/>
</g>
<g filter="url(#filter6_d_952_11156)">
<path d="M38.802 742L39.3519 732.206L41.9915 741.638L51.5273 742.214L42.3435 744.914L41.7826 754.708L39.1539 745.287L29.6182 744.711L38.802 742Z" fill="#FFBD00"/>
</g>
<g filter="url(#filter7_d_952_11156)">
<path d="M28.3644 421.245L28.7332 414.866L30.5035 421.009L36.8989 421.385L30.7396 423.143L30.3634 429.522L28.6004 423.386L22.2051 423.011L28.3644 421.245Z" fill="white"/>
</g>
<g filter="url(#filter8_d_952_11156)">
<path d="M361.427 136.803L361.796 130.425L363.567 136.568L369.962 136.943L363.803 138.701L363.426 145.08L361.663 138.944L355.268 138.569L361.427 136.803Z" fill="white"/>
</g>
<g filter="url(#filter9_d_952_11156)">
<path d="M327.32 644.704L327.689 638.325L329.46 644.469L335.855 644.844L329.696 646.602L329.319 652.981L327.556 646.845L321.161 646.47L327.32 644.704Z" fill="white"/>
</g>
<g filter="url(#filter10_d_952_11156)">
<path d="M198.376 507.894L198.744 501.515L200.515 507.658L206.91 508.033L200.751 509.792L200.375 516.17L198.612 510.035L192.216 509.659L198.376 507.894Z" fill="white"/>
</g>
<g filter="url(#filter11_d_952_11156)">
<path d="M70.4132 652.098L70.782 645.719L72.5524 651.862L78.9477 652.238L72.7884 653.996L72.4122 660.375L70.6492 654.239L64.2539 653.864L70.4132 652.098Z" fill="white"/>
</g>
<g filter="url(#filter12_d_952_11156)">
<path d="M190.354 208.572L190.723 202.194L192.493 208.337L198.889 208.712L192.729 210.47L192.353 216.849L190.59 210.713L184.195 210.338L190.354 208.572Z" fill="white"/>
</g>
<g filter="url(#filter13_d_952_11156)">
<path d="M46.3028 101.682L46.6717 95.3037L48.442 101.447L54.8373 101.822L48.678 103.58L48.3018 109.959L46.5389 103.823L40.1436 103.448L46.3028 101.682Z" fill="white"/>
</g>
<defs>
<filter id="filter0_d_952_11156" x="18.2437" y="109.696" width="97.1292" height="98.2485" filterUnits="userSpaceOnUse" color-interpolation-filters="sRGB">
<feFlood flood-opacity="0" result="BackgroundImageFix"/>
<feColorMatrix in="SourceAlpha" type="matrix" values="0 0 0 0 0 0 0 0 0 0 0 0 0 0 0 0 0 0 127 0" result="hardAlpha"/>
<feOffset/>
<feGaussianBlur stdDeviation="15.1296"/>
<feColorMatrix type="matrix" values="0 0 0 0 1 0 0 0 0 1 0 0 0 0 1 0 0 0 0.75 0"/>
<feBlend mode="normal" in2="BackgroundImageFix" result="effect1_dropShadow_952_11156"/>
<feBlend mode="normal" in="SourceGraphic" in2="effect1_dropShadow_952_11156" result="shape"/>
</filter>
<filter id="filter1_d_952_11156" x="20.646" y="513.026" width="79.0292" height="79.9407" filterUnits="userSpaceOnUse" color-interpolation-filters="sRGB">
<feFlood flood-opacity="0" result="BackgroundImageFix"/>
<feColorMatrix in="SourceAlpha" type="matrix" values="0 0 0 0 0 0 0 0 0 0 0 0 0 0 0 0 0 0 127 0" result="hardAlpha"/>
<feOffset/>
<feGaussianBlur stdDeviation="12.2873"/>
<feColorMatrix type="matrix" values="0 0 0 0 1 0 0 0 0 1 0 0 0 0 1 0 0 0 0.75 0"/>
<feBlend mode="normal" in2="BackgroundImageFix" result="effect1_dropShadow_952_11156"/>
<feBlend mode="normal" in="SourceGraphic" in2="effect1_dropShadow_952_11156" result="shape"/>
</filter>
<filter id="filter2_d_952_11156" x="273.57" y="614.846" width="62.5981" height="63.1121" filterUnits="userSpaceOnUse" color-interpolation-filters="sRGB">
<feFlood flood-opacity="0" result="BackgroundImageFix"/>
<feColorMatrix in="SourceAlpha" type="matrix" values="0 0 0 0 0 0 0 0 0 0 0 0 0 0 0 0 0 0 127 0" result="hardAlpha"/>
<feOffset/>
<feGaussianBlur stdDeviation="9.79796"/>
<feColorMatrix type="matrix" values="0 0 0 0 1 0 0 0 0 1 0 0 0 0 1 0 0 0 0.75 0"/>
<feBlend mode="normal" in2="BackgroundImageFix" result="effect1_dropShadow_952_11156"/>
<feBlend mode="normal" in="SourceGraphic" in2="effect1_dropShadow_952_11156" result="shape"/>
</filter>
<filter id="filter3_d_952_11156" x="234.257" y="47.9145" width="58.6513" height="59.0483" filterUnits="userSpaceOnUse" color-interpolation-filters="sRGB">
<feFlood flood-opacity="0" result="BackgroundImageFix"/>
<feColorMatrix in="SourceAlpha" type="matrix" values="0 0 0 0 0 0 0 0 0 0 0 0 0 0 0 0 0 0 127 0" result="hardAlpha"/>
<feOffset/>
<feGaussianBlur stdDeviation="9.79796"/>
<feColorMatrix type="matrix" values="0 0 0 0 1 0 0 0 0 1 0 0 0 0 1 0 0 0 0.75 0"/>
<feBlend mode="normal" in2="BackgroundImageFix" result="effect1_dropShadow_952_11156"/>
<feBlend mode="normal" in="SourceGraphic" in2="effect1_dropShadow_952_11156" result="shape"/>
</filter>
<filter id="filter4_d_952_11156" x="323.836" y="187.575" width="60.4066" height="61.0979" filterUnits="userSpaceOnUse" color-interpolation-filters="sRGB">
<feFlood flood-opacity="0" result="BackgroundImageFix"/>
<feColorMatrix in="SourceAlpha" type="matrix" values="0 0 0 0 0 0 0 0 0 0 0 0 0 0 0 0 0 0 127 0" result="hardAlpha"/>
<feOffset/>
<feGaussianBlur stdDeviation="8.70566"/>
<feColorMatrix type="matrix" values="0 0 0 0 1 0 0 0 0 1 0 0 0 0 1 0 0 0 0.75 0"/>
<feBlend mode="normal" in2="BackgroundImageFix" result="effect1_dropShadow_952_11156"/>
<feBlend mode="normal" in="SourceGraphic" in2="effect1_dropShadow_952_11156" result="shape"/>
</filter>
<filter id="filter5_d_952_11156" x="264.995" y="428.759" width="119.237" height="120.602" filterUnits="userSpaceOnUse" color-interpolation-filters="sRGB">
<feFlood flood-opacity="0" result="BackgroundImageFix"/>
<feColorMatrix in="SourceAlpha" type="matrix" values="0 0 0 0 0 0 0 0 0 0 0 0 0 0 0 0 0 0 127 0" result="hardAlpha"/>
<feOffset/>
<feGaussianBlur stdDeviation="17.1842"/>
<feColorMatrix type="matrix" values="0 0 0 0 1 0 0 0 0 1 0 0 0 0 1 0 0 0 0.75 0"/>
<feBlend mode="normal" in2="BackgroundImageFix" result="effect1_dropShadow_952_11156"/>
<feBlend mode="normal" in="SourceGraphic" in2="effect1_dropShadow_952_11156" result="shape"/>
</filter>
<filter id="filter6_d_952_11156" x="14.7077" y="717.296" width="51.7301" height="52.3222" filterUnits="userSpaceOnUse" color-interpolation-filters="sRGB">
<feFlood flood-opacity="0" result="BackgroundImageFix"/>
<feColorMatrix in="SourceAlpha" type="matrix" values="0 0 0 0 0 0 0 0 0 0 0 0 0 0 0 0 0 0 127 0" result="hardAlpha"/>
<feOffset/>
<feGaussianBlur stdDeviation="7.45524"/>
<feColorMatrix type="matrix" values="0 0 0 0 1 0 0 0 0 1 0 0 0 0 1 0 0 0 0.75 0"/>
<feBlend mode="normal" in2="BackgroundImageFix" result="effect1_dropShadow_952_11156"/>
<feBlend mode="normal" in="SourceGraphic" in2="effect1_dropShadow_952_11156" result="shape"/>
</filter>
<filter id="filter7_d_952_11156" x="12.2051" y="404.866" width="34.6934" height="34.6554" filterUnits="userSpaceOnUse" color-interpolation-filters="sRGB">
<feFlood flood-opacity="0" result="BackgroundImageFix"/>
<feColorMatrix in="SourceAlpha" type="matrix" values="0 0 0 0 0 0 0 0 0 0 0 0 0 0 0 0 0 0 127 0" result="hardAlpha"/>
<feOffset/>
<feGaussianBlur stdDeviation="5"/>
<feColorMatrix type="matrix" values="0 0 0 0 1 0 0 0 0 1 0 0 0 0 1 0 0 0 0.75 0"/>
<feBlend mode="normal" in2="BackgroundImageFix" result="effect1_dropShadow_952_11156"/>
<feBlend mode="normal" in="SourceGraphic" in2="effect1_dropShadow_952_11156" result="shape"/>
</filter>
<filter id="filter8_d_952_11156" x="345.268" y="120.425" width="34.6938" height="34.6554" filterUnits="userSpaceOnUse" color-interpolation-filters="sRGB">
<feFlood flood-opacity="0" result="BackgroundImageFix"/>
<feColorMatrix in="SourceAlpha" type="matrix" values="0 0 0 0 0 0 0 0 0 0 0 0 0 0 0 0 0 0 127 0" result="hardAlpha"/>
<feOffset/>
<feGaussianBlur stdDeviation="5"/>
<feColorMatrix type="matrix" values="0 0 0 0 1 0 0 0 0 1 0 0 0 0 1 0 0 0 0.75 0"/>
<feBlend mode="normal" in2="BackgroundImageFix" result="effect1_dropShadow_952_11156"/>
<feBlend mode="normal" in="SourceGraphic" in2="effect1_dropShadow_952_11156" result="shape"/>
</filter>
<filter id="filter9_d_952_11156" x="311.161" y="628.325" width="34.6938" height="34.6554" filterUnits="userSpaceOnUse" color-interpolation-filters="sRGB">
<feFlood flood-opacity="0" result="BackgroundImageFix"/>
<feColorMatrix in="SourceAlpha" type="matrix" values="0 0 0 0 0 0 0 0 0 0 0 0 0 0 0 0 0 0 127 0" result="hardAlpha"/>
<feOffset/>
<feGaussianBlur stdDeviation="5"/>
<feColorMatrix type="matrix" values="0 0 0 0 1 0 0 0 0 1 0 0 0 0 1 0 0 0 0.75 0"/>
<feBlend mode="normal" in2="BackgroundImageFix" result="effect1_dropShadow_952_11156"/>
<feBlend mode="normal" in="SourceGraphic" in2="effect1_dropShadow_952_11156" result="shape"/>
</filter>
<filter id="filter10_d_952_11156" x="182.216" y="491.515" width="34.6938" height="34.6554" filterUnits="userSpaceOnUse" color-interpolation-filters="sRGB">
<feFlood flood-opacity="0" result="BackgroundImageFix"/>
<feColorMatrix in="SourceAlpha" type="matrix" values="0 0 0 0 0 0 0 0 0 0 0 0 0 0 0 0 0 0 127 0" result="hardAlpha"/>
<feOffset/>
<feGaussianBlur stdDeviation="5"/>
<feColorMatrix type="matrix" values="0 0 0 0 1 0 0 0 0 1 0 0 0 0 1 0 0 0 0.75 0"/>
<feBlend mode="normal" in2="BackgroundImageFix" result="effect1_dropShadow_952_11156"/>
<feBlend mode="normal" in="SourceGraphic" in2="effect1_dropShadow_952_11156" result="shape"/>
</filter>
<filter id="filter11_d_952_11156" x="54.2539" y="635.719" width="34.6938" height="34.6554" filterUnits="userSpaceOnUse" color-interpolation-filters="sRGB">
<feFlood flood-opacity="0" result="BackgroundImageFix"/>
<feColorMatrix in="SourceAlpha" type="matrix" values="0 0 0 0 0 0 0 0 0 0 0 0 0 0 0 0 0 0 127 0" result="hardAlpha"/>
<feOffset/>
<feGaussianBlur stdDeviation="5"/>
<feColorMatrix type="matrix" values="0 0 0 0 1 0 0 0 0 1 0 0 0 0 1 0 0 0 0.75 0"/>
<feBlend mode="normal" in2="BackgroundImageFix" result="effect1_dropShadow_952_11156"/>
<feBlend mode="normal" in="SourceGraphic" in2="effect1_dropShadow_952_11156" result="shape"/>
</filter>
<filter id="filter12_d_952_11156" x="174.195" y="192.194" width="34.6938" height="34.6554" filterUnits="userSpaceOnUse" color-interpolation-filters="sRGB">
<feFlood flood-opacity="0" result="BackgroundImageFix"/>
<feColorMatrix in="SourceAlpha" type="matrix" values="0 0 0 0 0 0 0 0 0 0 0 0 0 0 0 0 0 0 127 0" result="hardAlpha"/>
<feOffset/>
<feGaussianBlur stdDeviation="5"/>
<feColorMatrix type="matrix" values="0 0 0 0 1 0 0 0 0 1 0 0 0 0 1 0 0 0 0.75 0"/>
<feBlend mode="normal" in2="BackgroundImageFix" result="effect1_dropShadow_952_11156"/>
<feBlend mode="normal" in="SourceGraphic" in2="effect1_dropShadow_952_11156" result="shape"/>
</filter>
<filter id="filter13_d_952_11156" x="30.1436" y="85.3037" width="34.6934" height="34.6554" filterUnits="userSpaceOnUse" color-interpolation-filters="sRGB">
<feFlood flood-opacity="0" result="BackgroundImageFix"/>
<feColorMatrix in="SourceAlpha" type="matrix" values="0 0 0 0 0 0 0 0 0 0 0 0 0 0 0 0 0 0 127 0" result="hardAlpha"/>
<feOffset/>
<feGaussianBlur stdDeviation="5"/>
<feColorMatrix type="matrix" values="0 0 0 0 1 0 0 0 0 1 0 0 0 0 1 0 0 0 0.75 0"/>
<feBlend mode="normal" in2="BackgroundImageFix" result="effect1_dropShadow_952_11156"/>
<feBlend mode="normal" in="SourceGraphic" in2="effect1_dropShadow_952_11156" result="shape"/>
</filter>
<linearGradient id="paint0_linear_952_11156" x1="185.79" y1="888.515" x2="173.177" y2="-156.01" gradientUnits="userSpaceOnUse">
<stop stop-color="#B1E5F3"/>
<stop offset="0.489583" stop-color="#AFD6FF"/>
<stop offset="1" stop-color="#B4CCFF"/>
</linearGradient>
</defs>
</svg>
