<svg width="394" height="793" viewBox="0 0 394 793" fill="none" xmlns="http://www.w3.org/2000/svg">
<path d="M393.963 0.483154H0.952637V792.883H393.963V0.483154Z" fill="url(#paint0_linear_923_15119)"/>
<g opacity="0.3">
<path d="M29.8493 525.548C31.7693 521.478 37.5593 519.858 41.3093 522.338C43.4793 519.498 47.2793 518.018 50.7893 518.628C54.2993 519.238 57.3793 521.938 58.4493 525.338C60.3493 525.018 62.5092 525.948 63.2092 527.738C63.9092 529.528 62.5593 531.918 60.6393 531.908C60.0093 531.908 59.3693 531.668 58.7593 531.828C58.2693 531.958 57.8893 532.328 57.4993 532.658C52.6793 536.788 44.4593 535.978 40.5393 530.988C37.7693 533.408 33.1693 533.338 30.4693 530.848C30.8293 531.188 26.6893 532.048 26.2193 531.968C24.7093 531.728 22.7992 530.818 22.5492 529.128C22.0192 525.598 27.3893 523.848 29.8493 525.538V525.548Z" fill="white"/>
<path d="M22.5492 529.138C22.7992 530.828 24.6993 531.738 26.2193 531.978C26.6893 532.048 30.8393 531.188 30.4693 530.858C33.1793 533.348 37.7693 533.408 40.5393 530.988C44.4593 535.978 52.6793 536.788 57.4993 532.658C57.8793 532.328 58.2693 531.958 58.7593 531.828C59.3693 531.668 60.0093 531.898 60.6393 531.908C62.5593 531.928 63.9093 529.538 63.2093 527.748C62.5093 525.958 60.3493 525.028 58.4493 525.348C58.1193 524.278 57.5793 523.288 56.8993 522.398C57.0793 524.408 56.4393 526.498 55.1093 528.008C54.3993 528.818 53.5093 529.468 52.4993 529.838C51.0393 530.368 49.4393 530.278 47.8993 530.088C46.8693 529.958 45.8193 529.788 44.8993 529.298C43.9793 528.808 43.1992 527.958 43.0492 526.928C42.9192 526.058 43.2393 525.178 43.6693 524.398C44.3193 523.208 45.2092 522.158 46.2692 521.318C43.4392 521.798 40.9293 523.888 39.9493 526.588C39.8093 526.968 39.6893 527.378 39.3993 527.658C39.1593 527.888 38.8193 527.998 38.4993 528.088C36.9193 528.538 35.2693 528.728 33.6193 528.658C32.2393 528.598 30.6993 528.248 29.9693 527.078C29.4793 527.788 28.7693 528.408 27.9193 528.538C27.0693 528.668 26.0893 528.168 25.9093 527.318C25.7693 526.658 26.1393 525.958 26.6593 525.528C26.8493 525.378 27.5293 525.138 27.9193 524.888C25.3293 524.668 22.1193 526.348 22.5393 529.108L22.5492 529.138Z" fill="#F5FBFF"/>
<path d="M40.5494 530.988C44.4694 535.978 52.6894 536.788 57.5094 532.658C57.8894 532.328 58.2794 531.958 58.7694 531.828C59.3794 531.668 60.0194 531.898 60.6494 531.908C62.5694 531.928 63.9194 529.538 63.2194 527.748C62.9194 528.988 61.8094 530.058 60.6294 530.558C59.4594 531.058 58.0494 530.978 56.9494 530.328C56.5594 531.618 55.4494 532.608 54.2094 533.138C52.9694 533.668 51.5894 533.788 50.2294 533.808C49.2894 533.818 48.3494 533.788 47.4294 533.588C45.8594 533.238 44.4394 532.418 43.0794 531.558C41.9694 530.858 40.7794 529.998 40.5394 528.708C40.4994 529.388 40.5894 530.318 40.5394 530.998L40.5494 530.988Z" fill="#DFF2FD"/>
<path d="M40.5492 530.988C37.7792 533.408 33.1792 533.338 30.4792 530.858C30.8392 531.188 26.6992 532.058 26.2292 531.978C24.7192 531.738 22.8192 530.828 22.5592 529.138C22.1492 526.378 25.3492 524.698 27.9392 524.918C26.6592 525.238 25.3492 525.728 24.6792 526.858C23.9992 527.988 24.1392 529.648 25.2192 530.408C25.9292 530.908 26.8692 530.918 27.7292 530.788C28.7592 530.628 29.8592 530.208 30.3392 529.288C31.5692 530.608 33.3692 531.298 35.1692 531.488C36.9692 531.678 38.7892 531.348 40.5592 530.998L40.5492 530.988Z" fill="#DFF2FD"/>
</g>
<g opacity="0.2">
<path d="M137.166 340.008C140.094 333.795 148.937 331.322 154.662 335.118C157.971 330.789 163.775 328.524 169.136 329.46C174.497 330.397 179.19 334.507 180.828 339.7C183.721 339.218 187.024 340.631 188.09 343.367C189.15 346.104 187.103 349.749 184.164 349.726C183.2 349.721 182.224 349.356 181.293 349.609C180.547 349.805 179.959 350.366 179.375 350.87C172.018 357.173 159.474 355.934 153.496 348.313C149.268 351.997 142.253 351.902 138.125 348.106C138.681 348.616 132.355 349.934 131.637 349.822C129.327 349.463 126.422 348.061 126.035 345.493C125.228 340.109 133.421 337.44 137.178 340.008V340.019L137.166 340.008Z" fill="white"/>
<path d="M126.03 345.493C126.417 348.066 129.316 349.463 131.632 349.822C132.35 349.934 138.675 348.616 138.12 348.106C142.247 351.902 149.262 351.997 153.491 348.313C159.474 355.928 172.018 357.168 179.37 350.87C179.953 350.366 180.542 349.81 181.288 349.609C182.219 349.362 183.194 349.721 184.159 349.732C187.092 349.76 189.144 346.109 188.084 343.373C187.024 340.636 183.716 339.229 180.822 339.705C180.312 338.079 179.499 336.56 178.462 335.208C178.736 338.275 177.761 341.455 175.731 343.777C174.648 345.01 173.286 346.014 171.749 346.575C169.523 347.382 167.078 347.248 164.728 346.962C163.153 346.765 161.554 346.502 160.152 345.756C158.751 345.01 157.562 343.715 157.321 342.145C157.119 340.81 157.618 339.47 158.263 338.287C159.25 336.475 160.612 334.866 162.233 333.587C157.909 334.316 154.085 337.507 152.593 341.629C152.38 342.212 152.195 342.835 151.752 343.261C151.382 343.608 150.872 343.777 150.384 343.917C147.973 344.601 145.449 344.898 142.943 344.792C140.834 344.707 138.49 344.175 137.369 342.386C136.623 343.468 135.54 344.416 134.239 344.612C132.938 344.808 131.447 344.046 131.172 342.756C130.953 341.741 131.52 340.687 132.327 340.031C132.613 339.795 133.662 339.431 134.245 339.055C130.292 338.724 125.391 341.276 126.03 345.493Z" fill="#F5FBFF"/>
<path d="M153.496 348.313C159.479 355.928 172.024 357.168 179.375 350.87C179.959 350.366 180.547 349.81 181.293 349.609C182.224 349.362 183.2 349.721 184.164 349.732C187.097 349.76 189.15 346.109 188.09 343.373C187.635 345.268 185.931 346.9 184.142 347.663C182.353 348.431 180.205 348.296 178.523 347.321C177.923 349.295 176.235 350.803 174.334 351.611C172.433 352.412 170.33 352.597 168.267 352.626C166.837 352.648 165.395 352.592 163.999 352.283C161.599 351.756 159.434 350.489 157.36 349.182C155.666 348.117 153.849 346.794 153.485 344.831C153.423 345.868 153.558 347.281 153.496 348.319V348.313Z" fill="#DFF2FD"/>
<path d="M153.496 348.313C149.268 351.997 142.252 351.902 138.125 348.106C138.68 348.616 132.355 349.934 131.637 349.822C129.327 349.463 126.422 348.061 126.035 345.493C125.401 341.276 130.297 338.724 134.25 339.055C132.299 339.543 130.297 340.283 129.271 342.01C128.239 343.737 128.441 346.278 130.089 347.427C131.172 348.184 132.607 348.212 133.914 348.01C135.49 347.775 137.172 347.13 137.901 345.717C139.779 347.736 142.527 348.784 145.269 349.07C148.012 349.356 150.799 348.857 153.501 348.319L153.496 348.313Z" fill="#DFF2FD"/>
</g>
<g opacity="0.3">
<path d="M393.903 783.384C393.903 783.384 393.834 783.414 393.794 783.424C393.834 783.394 393.863 783.364 393.903 783.334L393.834 741.328C385.172 734.368 372.099 732.881 362.434 738.592C357.775 741.348 353.762 745.971 353.504 751.402C353.583 749.805 346.52 748.886 345.437 749.046C343.312 749.356 340.451 750.863 338.534 751.842C322.948 759.79 324.249 783.434 339.02 791.661C339.02 791.661 339.04 791.661 339.05 791.661C339.05 791.661 339.03 791.661 339.01 791.661C332.683 789.504 325.968 788.496 319.282 788.706C315.051 788.836 310.69 789.515 307.154 791.841C307.044 791.911 306.945 791.991 306.846 792.061L393.903 792.031V783.394V783.384Z" fill="white"/>
<path d="M339.051 791.671C339.051 791.671 339.031 791.671 339.021 791.671C339.031 791.671 339.041 791.681 339.061 791.691L339.051 791.671Z" fill="white"/>
<path d="M393.804 783.434C393.863 783.384 393.903 783.334 393.963 783.294L393.943 776.115C388.976 781.706 381.784 785.461 374.344 785.261C373.261 776.934 367.897 769.275 360.447 765.451C364.48 768.556 364.589 775.296 361.132 779.03C357.676 782.775 351.646 783.424 347.077 781.197C342.507 778.97 339.408 774.318 338.206 769.365C336.428 761.996 338.931 755.796 342.765 749.835C341.255 750.444 339.716 751.243 338.534 751.852C322.948 759.81 324.249 783.484 339.06 791.691C337.471 791.152 335.862 790.683 334.232 790.283C331.978 790.882 329.613 791.382 327.239 791.881L393.963 792.001L393.943 783.364C393.893 783.384 393.834 783.404 393.784 783.424L393.804 783.434Z" fill="#F5FBFF"/>
<path d="M339.06 791.681C324.259 783.464 322.938 759.79 338.534 751.842C339.716 751.243 341.255 750.434 342.765 749.825C334.968 753.639 330.925 762.685 330.795 771.402C330.726 775.915 331.501 780.708 334.431 784.123C337.073 787.198 341.176 788.746 345.209 788.995C349.252 789.245 353.265 788.316 357.139 787.138C352.56 791.482 344.573 794.747 339.05 791.681H339.06Z" fill="#DFF2FD"/>
</g>
<g opacity="0.25">
<path d="M262.273 610.274C260.236 608.836 257.425 608.587 255.17 609.635C255.329 605.361 254.276 600.828 251.296 597.763C248.316 594.698 243.131 593.649 239.674 596.155C236.754 591.003 230.764 587.758 224.873 588.148C218.983 588.537 213.469 592.531 211.244 598.023C201.529 595.027 191.546 601.407 188.407 610.733C185.934 610.444 183.331 610.184 181.056 611.213C178.791 612.241 177.133 615.057 178.245 617.293C178.613 618.022 179.219 618.601 179.854 619.111C184.473 622.815 190.741 623.504 196.632 623.923C200.536 624.203 204.489 624.432 208.334 623.714C212.178 622.995 215.963 621.227 218.396 618.152C220.085 620.708 223.522 621.257 226.562 621.547C235.75 622.415 245.128 623.005 254.266 621.317C257.395 620.738 261.429 620.558 263.783 618.112C266.395 615.396 265.094 612.251 262.283 610.274H262.273Z" fill="white"/>
<path d="M188.397 610.753C185.924 610.464 183.321 610.204 181.046 611.233C178.782 612.261 177.123 615.077 178.235 617.313C178.603 618.042 179.209 618.621 179.845 619.13C184.464 622.845 190.732 623.524 196.622 623.943C200.526 624.223 204.48 624.452 208.324 623.733C212.168 623.015 215.953 621.247 218.387 618.172C220.075 620.728 223.512 621.277 226.552 621.567C235.741 622.435 245.118 623.025 254.257 621.337C257.386 620.758 261.419 620.578 263.773 618.132C266.386 615.416 265.084 612.271 262.273 610.294C260.237 608.856 257.425 608.606 255.171 609.655C255.3 606.22 254.644 602.636 252.846 599.77C253.353 601.517 253.412 603.374 252.806 605.072C251.475 608.786 247.522 610.114 244.184 608.337C241.274 606.789 239.396 603.594 239.068 600.299C238.353 606.679 232.909 612.201 226.572 612.98C220.234 613.749 213.629 609.695 211.423 603.664C210.877 606.769 208.88 609.585 206.129 611.113C203.377 612.63 199.94 612.83 197.03 611.632C195.549 611.013 194.139 609.984 193.533 608.487C192.679 606.38 193.602 603.964 194.894 602.086C195.242 601.587 195.609 601.118 196.006 600.659C192.54 603.075 189.808 606.629 188.407 610.763L188.397 610.753Z" fill="#F5FBFF"/>
<path d="M218.376 618.162C220.065 620.718 223.502 621.267 226.542 621.557C235.73 622.425 245.108 623.015 254.246 621.327C257.376 620.748 261.409 620.568 263.763 618.122C266.375 615.406 265.074 612.261 262.263 610.284C262.839 612.82 260.971 615.456 258.617 616.554C256.263 617.643 253.561 617.593 250.988 617.433C252.697 616.445 253.978 614.747 254.445 612.82C249.935 617.313 242.346 618.242 236.893 614.977C236.068 616.634 234.36 617.653 232.661 618.362C228.062 620.299 222.797 620.488 218.386 618.162H218.376Z" fill="#DFF2FD"/>
<path d="M178.235 617.313C178.603 618.042 179.209 618.621 179.845 619.13C184.464 622.845 190.732 623.524 196.622 623.943C200.526 624.223 204.48 624.452 208.324 623.733C212.168 623.015 215.953 621.247 218.387 618.172C215.744 617.123 213.231 614.757 212.099 612.131C212.635 614.298 211.225 616.594 209.298 617.703C207.37 618.811 205.036 618.961 202.821 618.881C198.331 618.721 193.563 617.553 190.543 614.208C191.636 617.104 194.258 619.22 197.149 620.289C200.039 621.347 203.188 621.477 206.268 621.317C205.205 622.026 203.904 622.246 202.632 622.386C194.497 623.294 185.288 621.517 178.245 617.313H178.235Z" fill="#DFF2FD"/>
</g>
<g opacity="0.2">
<path d="M261.837 433.443C252.36 429.429 250.056 415.2 258.976 409.389C260.069 408.68 261.698 407.582 262.969 407.252C263.615 407.083 267.946 407.183 267.996 408.151C267.807 404.856 269.933 401.801 272.575 399.834C279.211 394.891 289.551 396.02 294.995 402.26C300.429 408.511 300.16 418.965 294.399 424.916C296.793 423.518 300.081 423.927 302.068 425.864C304.054 427.801 304.561 431.096 303.25 433.543C306.369 431.256 311.236 431.935 313.61 434.98C318.528 433.353 323.931 433.223 328.918 434.631C330.031 434.94 331.173 435.36 331.958 436.208C332.742 437.057 333.05 438.465 332.365 439.394C331.928 439.993 331.183 440.282 330.478 440.502C327.776 441.351 324.935 441.67 322.124 441.98C308.962 443.447 295.8 444.915 282.638 446.383C281.317 446.533 279.946 446.673 278.674 446.253C277.403 445.834 276.28 444.686 276.32 443.348C274.562 445.085 272.416 446.513 270.002 447.042C267.588 447.571 264.886 447.102 263.039 445.454C255.589 448.36 247.533 449.708 239.546 449.388C238.235 449.338 236.874 449.229 235.702 448.62C234.53 448.01 233.586 446.792 233.695 445.464C233.804 444.136 234.937 443.078 236.188 442.659C237.44 442.239 238.801 442.339 240.112 442.459C239.337 439.993 240.579 437.227 242.576 435.589C244.562 433.952 247.165 433.263 249.708 432.913C253.741 432.354 257.873 432.534 261.837 433.433V433.443Z" fill="white"/>
<path d="M236.179 442.669C234.927 443.088 233.795 444.146 233.685 445.474C233.576 446.792 234.53 448.02 235.692 448.629C236.864 449.239 238.215 449.348 239.536 449.398C247.523 449.718 255.579 448.38 263.029 445.464C264.877 447.112 267.579 447.581 269.992 447.052C272.406 446.523 274.552 445.095 276.31 443.358C276.26 444.695 277.393 445.844 278.664 446.263C279.936 446.682 281.307 446.543 282.628 446.393C295.79 444.925 308.952 443.457 322.104 441.99C324.915 441.67 327.756 441.361 330.458 440.512C331.163 440.292 331.898 440.003 332.345 439.404C333.041 438.475 332.733 437.067 331.938 436.218C331.65 435.899 331.302 435.649 330.935 435.44C327.051 437.037 322.59 437.087 318.349 436.778C316.899 436.678 315.349 436.498 314.256 435.519C314.067 435.35 313.899 435.15 313.769 434.93C313.71 434.95 313.65 434.97 313.591 434.99C311.207 431.945 306.339 431.266 303.23 433.552C304.541 431.106 304.035 427.811 302.048 425.874C300.061 423.937 296.763 423.538 294.379 424.936C298.68 420.482 299.922 413.533 298.005 407.682C297.836 411.855 296.833 416.029 294.637 419.564C292.045 423.737 287.624 426.913 282.747 427.292C281.555 422.329 277.83 418.046 273.082 416.219C275.714 417.836 276.211 421.9 274.363 424.386C272.515 426.873 268.91 427.651 265.999 426.603C263.099 425.555 260.923 422.939 259.88 420.023C258.33 415.68 259.453 411.766 261.39 407.921C260.516 408.381 259.632 408.97 258.956 409.409C250.036 415.22 252.34 429.449 261.817 433.463C260.824 433.233 259.82 433.053 258.807 432.923C255.658 434.132 252.122 435.05 249.003 436.268C245.715 437.556 242.526 440.023 241.861 443.507C241.294 443.128 240.708 442.788 240.092 442.479C238.781 442.359 237.42 442.259 236.169 442.679L236.179 442.669Z" fill="#F5FBFF"/>
<path d="M261.837 433.443C252.36 429.429 250.056 415.2 258.976 409.389C259.652 408.95 260.536 408.361 261.41 407.901C256.94 410.707 255.072 416.439 255.549 421.72C255.797 424.456 256.572 427.302 258.559 429.179C260.357 430.867 262.93 431.536 265.383 431.426C267.837 431.316 270.211 430.497 272.476 429.529C269.982 432.454 265.363 434.94 261.837 433.443Z" fill="#DFF2FD"/>
<path d="M303.24 433.542C304.551 431.096 304.045 427.801 302.058 425.864C300.071 423.927 296.773 423.528 294.389 424.916C296.207 424.376 298.164 425.944 298.73 427.761C299.297 429.578 298.73 431.585 297.787 433.233C297.389 433.922 296.912 434.581 296.267 435.04C295.293 435.739 294.042 435.899 292.85 435.969C290.108 436.129 286.949 435.689 285.439 433.393C285.4 435.3 286.87 436.977 288.618 437.716C290.366 438.455 292.333 438.435 294.211 438.265C295.999 438.116 297.787 437.836 299.436 437.137C301.085 436.438 302.396 435.12 303.25 433.542H303.24Z" fill="#DFF2FD"/>
<path d="M331.958 436.208C332.743 437.057 333.051 438.465 332.365 439.394C331.928 439.993 331.183 440.282 330.478 440.502C327.776 441.351 324.935 441.67 322.124 441.98C308.962 443.447 295.8 444.915 282.648 446.383C281.317 446.533 279.946 446.673 278.684 446.253C277.413 445.834 276.29 444.686 276.33 443.348C278.575 444.596 281.088 444.626 283.651 444.446C286.75 444.236 289.879 443.897 292.8 442.848C295.73 441.81 298.472 439.983 300.111 437.337C300.568 439.344 299.783 441.57 298.184 442.848C306.975 440.792 316.114 440.871 325.064 439.733C327.667 439.404 331.243 438.745 331.948 436.198L331.958 436.208Z" fill="#DFF2FD"/>
<path d="M276.32 443.348C274.562 445.085 272.416 446.513 270.002 447.042C267.588 447.571 264.886 447.102 263.039 445.454C255.589 448.36 247.533 449.708 239.546 449.388C238.235 449.338 236.874 449.229 235.702 448.62C234.53 448.01 233.586 446.792 233.695 445.464C234.957 447.391 237.758 447.541 240.053 447.491C242.695 447.431 245.337 446.962 247.84 446.083C246.619 445.964 245.427 445.444 244.513 444.616C251.715 445.594 259.214 444.156 265.552 440.582C265.413 441.9 266.357 443.178 267.578 443.697C268.8 444.216 270.201 444.106 271.472 443.717C275.664 442.429 278.654 437.986 278.277 433.602C279.3 436.728 278.684 441.041 276.34 443.348H276.32Z" fill="#DFF2FD"/>
</g>
<g opacity="0.35">
<path d="M338.673 0.541053C334.888 0.151645 331.054 1.71926 328.779 5.46357C325.193 4.38521 321.111 5.12408 318.111 7.38065C315.111 9.63722 313.273 13.3715 313.303 17.1458C311.326 17.2157 309.29 17.3056 307.492 18.1243C305.694 18.953 304.164 20.7104 304.224 22.6974C301.889 23.1766 299.823 25.8825 301.065 27.9194C301.77 29.0677 303.25 29.527 304.591 29.487C305.932 29.4471 307.243 29.0277 308.574 28.848C311.445 28.4686 314.316 29.2374 317.177 29.6468C319.541 29.9863 322.074 29.8964 324.349 29.0677C326.107 28.4286 327.726 27.1705 328.392 25.4132C331.322 27.1705 334.958 27.1705 338.345 26.7512C340.868 26.4417 343.421 25.9125 345.597 24.5945C347.772 23.2865 349.54 21.0698 349.779 18.5337C353.285 19.1328 357.02 17.8947 359.226 15.059C360.865 12.9522 360.239 9.68714 358.123 8.10954C356.464 6.87142 354.159 7.151 352.123 7.54041C350.713 7.81 349.213 8.16945 348.189 9.1879C348.15 7.01121 346.938 4.98429 345.319 3.5365C343.392 1.80912 341.037 0.790673 338.653 0.541053H338.673Z" fill="white"/>
<path d="M338.673 0.541138C341.047 0.790758 343.401 1.79922 345.338 3.53658C346.947 4.98438 348.169 7.0113 348.209 9.18799C348.239 10.8554 347.911 12.3731 346.838 13.6412C345.765 14.9093 344.325 15.7979 342.855 16.5668C344.236 10.9253 342.746 4.66487 338.683 0.541138H338.673Z" fill="#F5FBFF"/>
<path d="M359.235 15.059C357.03 17.8847 353.295 19.1328 349.789 18.5337C349.55 21.0798 347.792 23.2865 345.607 24.5945C343.431 25.9025 340.878 26.4417 338.355 26.7512C334.968 27.1706 331.332 27.1706 328.402 25.4132C327.736 27.1706 326.117 28.4187 324.359 29.0677C322.084 29.8964 319.551 29.9863 317.187 29.6468C314.326 29.2374 311.445 28.4686 308.584 28.848C307.253 29.0278 305.952 29.4471 304.601 29.4871C303.26 29.527 301.78 29.0777 301.074 27.9194C299.833 25.8825 301.899 23.1766 304.233 22.6974C304.233 22.4677 304.243 22.2381 304.273 22.0084C305.177 21.7588 306.131 21.619 307.064 21.599C311.902 21.4593 316.581 23.6459 321.418 23.4263C322.72 23.3664 324.041 23.1267 325.183 22.4877C326.177 21.9385 327.001 21.1098 327.706 20.2012C329.027 18.4838 329.921 16.4269 330.299 14.2902C330.061 17.2956 332.832 19.8916 335.782 20.4109C338.733 20.9301 341.732 19.8617 344.424 18.5437C346.123 17.715 347.961 16.5068 348.189 14.6296C350.573 16.0175 353.981 15.688 355.679 13.5213C357.616 11.0551 356.116 9.2079 354.894 7.22092C356.076 7.21093 357.219 7.42061 358.153 8.11955C360.268 9.68717 360.894 12.9522 359.255 15.069L359.235 15.059Z" fill="#F5FBFF"/>
<path d="M328.412 25.4132C331.342 27.1705 334.978 27.1705 338.365 26.7512C340.888 26.4416 343.441 25.9125 345.617 24.5945C347.792 23.2864 349.56 21.0698 349.799 18.5337C353.305 19.1328 357.04 17.8946 359.245 15.059C356.057 16.976 352.401 17.9246 348.706 17.6151C347.812 20.5306 345.199 22.7273 342.289 23.596C339.378 24.4647 336.209 24.1152 333.329 23.1467C333.587 24.4047 334.56 25.4931 335.782 25.8925C333.289 26.3418 330.825 26.2519 328.422 25.4232L328.412 25.4132Z" fill="#DFF2FD"/>
<path d="M301.075 27.9194C301.78 29.0676 303.25 29.527 304.601 29.487C305.942 29.4471 307.253 29.0277 308.584 28.848C311.455 28.4686 314.326 29.2374 317.187 29.6468C319.551 29.9863 322.084 29.8964 324.359 29.0676C326.117 28.4286 327.736 27.1705 328.402 25.4132C325.74 27.0008 322.283 27.55 319.213 27.1705C317.465 26.9509 315.776 26.4117 314.048 26.0922C309.767 25.3134 304.979 25.9823 301.075 27.9094V27.9194Z" fill="#DFF2FD"/>
</g>
<g opacity="0.35">
<path d="M72.6032 181.047C70.7159 178.401 67.2292 177.292 63.9909 177.452C60.7525 177.612 57.6731 178.86 54.6732 180.088C56.2427 174.876 52.0706 169.314 46.9747 167.477C41.8788 165.64 36.2564 166.549 30.9519 167.637C33.0678 160.298 31.5579 148.736 23.1541 146.11C20.2038 145.191 17.0152 145.391 13.9854 145.99C14.4026 138.581 13.4292 131.811 7.80678 126.709C5.79027 124.882 3.49562 123.404 1.04204 122.246L0.952637 204.82C1.44931 204.98 1.93606 205.15 2.4526 205.27C7.47897 206.508 12.3265 204.86 17.0748 203.283C18.1973 202.903 30.048 196.144 28.6473 194.875C36.1472 201.675 46.9946 204.571 56.8586 202.384C62.5704 201.116 68.0636 198.111 71.4708 193.318C74.0039 189.733 75.1661 184.591 72.6132 181.017L72.6032 181.047Z" fill="white"/>
<path d="M7.80661 126.719C5.77023 124.872 3.44579 123.384 0.962402 122.226V127.458C1.31008 127.698 1.65775 127.927 1.98556 128.187C3.9822 129.745 5.74043 131.642 6.93246 133.888C8.27349 136.414 8.8397 139.3 8.79003 142.166C8.67083 148.306 5.6113 154.187 1.0518 158.301V162.754C1.21074 162.674 1.35974 162.595 1.50875 162.505C7.48874 159.01 13.5979 152.949 13.9952 146.01C14.4124 138.591 13.4389 131.831 7.81654 126.729L7.80661 126.719Z" fill="#F5FBFF"/>
<path d="M72.6032 181.046C70.7158 178.4 67.2291 177.292 63.9908 177.452C60.7525 177.622 57.6731 178.86 54.6731 180.088C56.2426 174.886 52.0705 169.324 46.9746 167.477C41.8787 165.63 36.2464 166.539 30.9518 167.637C33.0677 160.298 31.5578 148.736 23.154 146.11C21.4057 145.56 19.5779 145.421 17.7502 145.511C18.9819 151.741 18.376 158.521 14.8496 163.773C11.8298 168.276 6.3862 171.271 1.10156 170.982V204.88C1.54857 205.02 1.98565 205.17 2.44259 205.29C7.47889 206.528 12.3165 204.88 17.0648 203.303C18.1972 202.923 30.038 196.163 28.6373 194.895C36.1371 201.705 46.9846 204.591 56.8486 202.404C62.5604 201.136 68.0536 198.13 71.4608 193.338C74.0038 189.753 75.1561 184.611 72.6032 181.036V181.046Z" fill="#F5FBFF"/>
<path d="M28.6474 194.905C36.1472 201.715 46.9946 204.601 56.8586 202.414C62.5704 201.146 68.0636 198.14 71.4708 193.348C74.0138 189.763 75.1661 184.621 72.6132 181.046C72.643 188.026 65.8882 193.877 59.2029 195.764C52.5276 197.661 45.286 196.034 39.018 193.028C36.018 191.59 33.0976 189.783 31.0115 187.177C28.9255 184.571 27.7633 181.046 28.5977 177.811C26.1143 182.884 27.0282 189.494 28.6374 194.905H28.6474Z" fill="#DFF2FD"/>
</g>
<g opacity="0.35">
<path d="M384.372 178.804C380.776 181.23 378.66 185.464 377.994 189.777C368.399 184.106 359.18 194.2 360.432 203.786C358.882 203.277 357.194 203.247 355.614 203.636C354.164 203.996 352.803 204.704 351.72 205.733C349.445 207.88 348.452 211.304 349.217 214.34C346.773 213.062 343.436 213.891 341.856 216.167C340.277 218.444 340.664 221.868 342.701 223.736C345.363 226.172 349.575 225.583 352.932 224.255C360.998 231.993 374.905 232.512 383.508 225.383C386.488 228.019 390.113 229.786 393.948 230.715L393.997 177.476C390.888 176.358 387.153 176.917 384.362 178.804H384.372Z" fill="white"/>
<path d="M355.614 203.636C357.194 203.247 358.882 203.277 360.432 203.786C359.319 195.229 366.541 186.282 374.925 188.479C371.756 188.679 368.697 190.256 366.68 192.713C364.664 195.179 363.621 198.374 363.561 201.559C363.541 202.797 363.67 204.055 364.137 205.204C365.359 208.239 368.578 209.897 371.617 211.085C368.736 211.744 365.826 210.206 363.462 208.429C361.098 206.651 358.465 204.415 355.624 203.626L355.614 203.636Z" fill="#DFF2FD"/>
<path d="M384.372 178.794C380.776 181.22 378.66 185.454 377.994 189.767C377.547 192.653 380.339 195.129 382.901 196.517C385.464 197.895 388.514 198.194 391.385 197.775C388.554 197.485 386.249 195.159 385.146 192.513C383.736 189.138 384.004 185.034 386.09 182.039C387.689 179.742 390.878 178.594 393.868 178.574V177.426C390.789 176.378 387.123 176.947 384.372 178.804V178.794Z" fill="#F5FBFF"/>
<path d="M387.292 200.601C383.468 203.197 377.736 202.927 374.657 199.482C371.458 195.918 373.047 192.313 374.806 188.739C374.855 188.649 374.885 188.559 374.925 188.469C366.541 186.273 359.329 195.229 360.432 203.776C358.882 203.277 357.203 203.237 355.624 203.626C354.174 203.986 352.813 204.694 351.73 205.723C349.455 207.87 348.462 211.294 349.227 214.33C346.783 213.052 343.445 213.881 341.866 216.157C340.287 218.434 340.674 221.868 342.71 223.726C345.373 226.162 349.584 225.573 352.942 224.245C361.008 231.993 374.915 232.502 383.517 225.363C386.477 227.979 390.064 229.736 393.878 230.675V207.39C391.265 205.593 388.991 203.277 387.292 200.591V200.601Z" fill="#F5FBFF"/>
<path d="M360.431 203.786L360.421 203.776V203.786H360.431Z" fill="#F5FBFF"/>
<path d="M383.279 220.79C384.491 217.146 385.027 213.272 384.858 209.427C382.007 215.308 376.117 219.582 369.66 220.461C363.213 221.329 356.399 218.783 352.098 213.871C352.028 216.007 352.644 218.164 353.846 219.921C349.912 222.757 343.237 220.83 341.836 216.167C340.257 218.444 340.644 221.868 342.681 223.736C345.343 226.172 349.555 225.583 352.912 224.255C360.978 231.993 374.885 232.512 383.487 225.383C386.448 227.999 390.034 229.756 393.848 230.695V227.42C389.905 226.032 386.249 223.815 383.259 220.79H383.279Z" fill="#DFF2FD"/>
</g>
<g opacity="0.35">
<path d="M175.87 49.3948C173.02 48.4564 169.695 49.6253 167.795 51.9633C165.993 49.4442 162.602 48.1765 159.605 48.9174C156.607 49.6418 154.167 52.3255 153.708 55.3878C152.136 54.9268 150.416 54.7786 148.876 55.3219C147.336 55.8653 146.01 57.2153 145.797 58.8453C144.65 58.5983 143.471 58.3678 142.308 58.5325C141.145 58.6971 139.982 59.3392 139.523 60.4258C138.835 62.0393 140.047 63.9821 141.685 64.5748C143.323 65.1675 145.158 64.723 146.73 63.9656C148.155 65.7932 150.35 67.0115 152.643 67.2585C154.937 67.5054 157.328 66.781 159.113 65.2992C160.997 67.4396 163.847 68.6909 166.681 68.6415C169.531 68.5921 172.315 67.242 174.133 65.0523C176.066 66.567 180.505 68.378 182.585 66.2048C183.47 65.2992 183.716 63.8339 183.191 62.6814C184.469 62.6814 185.697 61.8582 186.189 60.6728C186.664 59.4874 186.353 58.0221 185.419 57.133C183.552 55.3549 181.553 56.5732 180.194 58.1702C180.21 54.6304 179.883 50.6626 175.87 49.3948Z" fill="white"/>
<path d="M153.708 55.3878C152.136 54.9268 150.416 54.7787 148.876 55.322C147.336 55.8653 146.01 57.2154 145.797 58.8453C144.65 58.5984 143.471 58.3679 142.308 58.5325C141.145 58.6971 139.982 59.3392 139.523 60.4259C138.835 62.0394 140.047 63.9821 141.685 64.5749C143.323 65.1676 145.158 64.723 146.73 63.9657C148.155 65.7932 150.35 67.0116 152.643 67.2585C154.937 67.5055 157.328 66.7811 159.113 65.2993C160.997 67.4396 163.847 68.6909 166.681 68.6415C169.531 68.5921 172.315 67.2421 174.133 65.0523C176.066 66.567 180.505 68.3781 182.585 66.2048C183.47 65.2993 183.716 63.834 183.191 62.6815C184.469 62.6815 185.697 61.8583 186.189 60.6728C186.664 59.4874 186.353 58.0221 185.419 57.133C183.552 55.3549 181.553 56.5733 180.194 58.1703C180.194 55.4372 180.014 52.4243 178.065 50.6297C178.245 52.6219 177.884 54.6634 176.82 56.3263C175.575 58.2526 173.249 59.5368 170.989 59.2075C170.088 59.0758 169.203 58.6807 168.646 57.9727C167.909 57.0343 167.942 55.6842 167.205 54.7787C166.615 54.0542 165.6 53.725 164.813 53.2969C165.714 53.7908 166.091 54.9598 165.862 55.9476C165.616 56.9355 164.863 57.7422 163.962 58.2361C162.651 58.9606 160.981 59.0758 159.605 58.4666C158.229 57.8575 157.164 56.5239 156.951 55.0256C156.706 53.3957 157.443 51.7163 158.556 50.5144C159.212 49.8065 159.998 49.2302 160.833 48.7198C160.424 48.7528 160.031 48.8022 159.637 48.901C156.64 49.6254 154.199 52.309 153.741 55.3714L153.708 55.3878Z" fill="#F5FBFF"/>
<path d="M174.133 65.0359C176.066 66.5506 180.505 68.3616 182.585 66.1883C183.47 65.2828 183.715 63.8175 183.191 62.665C184.469 62.665 185.697 61.8418 186.172 60.6564C186.647 59.471 186.336 58.0056 185.402 57.1166C185.517 57.9892 185.321 58.763 184.911 59.5368C184.502 60.3106 183.715 60.9198 182.847 60.9857C181.979 61.0351 181.062 60.4588 180.865 59.6027C180.603 60.1131 180.865 60.7387 181.193 61.1832C181.537 61.6442 181.963 62.0558 182.127 62.5992C182.356 63.4388 181.832 64.3279 181.111 64.7889C180.374 65.2499 179.489 65.3322 178.638 65.3816C177.032 65.4475 175.657 65.5792 174.133 65.0359Z" fill="#DFF2FD"/>
<path d="M166.681 68.6251C163.831 68.6744 160.997 67.4232 159.113 65.2828C157.328 66.7646 154.937 67.489 152.644 67.2421C150.35 66.9951 148.156 65.7768 146.73 63.9492C145.174 64.723 143.324 65.1676 141.686 64.5584C140.048 63.9657 138.852 62.0064 139.523 60.4094C139.589 61.8089 141.03 62.9284 142.357 63.3071C143.7 63.6858 145.125 63.4553 146.485 63.126C146.19 62.3028 146.124 61.3973 146.288 60.5247C147.337 61.99 148.581 63.4059 150.268 64.0151C151.268 64.3608 152.332 64.4102 153.397 64.4267C154.691 64.4267 156.001 64.4267 157.23 64.048C158.458 63.6693 159.638 62.8791 160.178 61.6936C159.359 63.4553 161.882 65.7603 163.077 66.6164C164.289 67.489 165.665 68.1147 167.025 68.7074" fill="#DFF2FD"/>
</g>
<g opacity="0.25">
<path d="M65.5942 791.509C73.3225 785.049 74.9913 772.428 69.21 764.151C63.4287 755.883 51.0416 753.187 42.3795 758.31C38.9326 760.347 35.9625 763.771 35.7638 767.795C35.8234 766.617 30.5884 765.938 29.7838 766.048C28.2044 766.278 26.0885 767.396 24.678 768.125C15.4 772.858 14.0292 784.829 19.6118 792.617H74.3456C72.1305 790.361 68.4849 790.201 65.5942 791.509Z" fill="white"/>
<path d="M40.9094 778.209C43.8994 780.506 43.9689 785.498 41.416 788.264C38.8532 791.03 34.393 791.519 31.0057 789.872C27.6283 788.224 25.3237 784.779 24.4396 781.105C23.1284 775.643 24.976 771.05 27.817 766.647C26.7044 767.096 25.5621 767.685 24.6879 768.135C15.5193 772.808 14.2577 784.829 19.6119 792.617H51.1608C50.2867 786.547 46.353 780.995 40.9193 778.199L40.9094 778.209Z" fill="#F5FBFF"/>
<path d="M65.5942 791.519C71.3755 786.687 73.7595 778.419 72.19 771.1C71.445 776.133 69.6967 781.055 66.5875 785.049C63.5876 788.903 59.197 791.789 54.4487 792.627H73.69C71.4549 790.85 68.2166 790.351 65.5942 791.519Z" fill="#F5FBFF"/>
<path d="M18.9562 782.613C19.0555 776.163 22.0455 769.463 27.8169 766.637C26.7044 767.086 25.562 767.675 24.6879 768.125C15.5192 772.798 14.2477 784.819 19.6118 792.618H22.2243C22.0257 792.428 21.827 792.238 21.6482 792.028C19.4827 789.502 18.9065 785.958 18.9562 782.613Z" fill="#DFF2FD"/>
<path d="M65.5845 791.509C66.7765 791.29 67.9387 791.779 68.8427 792.628H73.6902C71.4552 790.84 68.2069 790.331 65.5845 791.509Z" fill="#DFF2FD"/>
</g>
<path d="M31.3426 470.953L31.7126 464.383L33.4826 470.713L39.8826 471.103L33.7226 472.913L33.3426 479.483L31.5826 473.163L25.1826 472.773L31.3426 470.953Z" fill="white"/>
<path d="M328.213 175.923L328.583 169.353L330.353 175.683L336.753 176.073L330.593 177.883L330.213 184.453L328.453 178.133L322.053 177.743L328.213 175.923Z" fill="white"/>
<path d="M368.223 704.943L368.593 698.373L370.363 704.703L376.763 705.093L370.603 706.903L370.223 713.473L368.463 707.153L362.073 706.763L368.233 704.943H368.223Z" fill="white"/>
<mask id="mask0_923_15119" style="mask-type:luminance" maskUnits="userSpaceOnUse" x="139" y="551" width="29" height="30">
<path d="M167.95 551.71H139.95V580.71H167.95V551.71Z" fill="white"/>
</mask>
<g mask="url(#mask0_923_15119)">
<path d="M153 565.51L153.28 560.5L154.62 565.33L159.46 565.63L154.8 567.01L154.52 572.02L153.19 567.2L148.35 566.9L153.01 565.51H153Z" fill="white"/>
</g>
<path d="M116.062 761.143L121.582 750.553L119.772 762.343L130.032 767.753L118.512 766.153L112.982 776.743L114.802 764.973L104.542 759.563L116.062 761.153V761.143Z" fill="white"/>
<path d="M112.082 217.713L112.342 213.043L113.582 217.533L118.072 217.803L113.742 219.093L113.482 223.763L112.242 219.273L107.752 219.003L112.082 217.713Z" fill="white"/>
<path d="M50.2225 82.8332L50.5925 76.2632L52.3625 82.5932L58.7625 82.9832L52.6025 84.7932L52.2225 91.3632L50.4625 85.0432L44.0625 84.6532L50.2225 82.8332Z" fill="white"/>
<defs>
<linearGradient id="paint0_linear_923_15119" x1="203.413" y1="881.213" x2="190.388" y2="-155" gradientUnits="userSpaceOnUse">
<stop stop-color="#B1E5F3"/>
<stop offset="0.49" stop-color="#AFD6FF"/>
<stop offset="1" stop-color="#B4CCFF"/>
</linearGradient>
</defs>
</svg>
