<svg width="394" height="794" viewBox="0 0 394 794" fill="none" xmlns="http://www.w3.org/2000/svg">
<path d="M393.034 0.983154H0.0239258V793.383H393.034V0.983154Z" fill="url(#paint0_linear_923_15201)"/>
<g opacity="0.35">
<path d="M393.338 780.042C393.338 780.042 393.235 780.086 393.176 780.101C393.235 780.057 393.279 780.012 393.338 779.968L393.235 717.735C380.336 707.424 360.868 705.22 346.475 713.681C339.537 717.764 333.561 724.613 333.176 732.66C333.294 730.294 322.777 728.933 321.164 729.169C317.999 729.628 313.738 731.862 310.883 733.311C287.673 745.086 289.611 780.116 311.608 792.305C311.608 792.305 311.638 792.305 311.653 792.305C311.653 792.305 311.623 792.305 311.593 792.305C302.17 789.11 292.17 787.616 282.215 787.926C275.913 788.119 269.419 789.125 264.153 792.571C263.99 792.675 263.842 792.793 263.694 792.897L393.338 792.852V780.057V780.042Z" fill="white"/>
<path d="M311.653 792.32C311.653 792.32 311.623 792.32 311.608 792.32C311.623 792.32 311.638 792.335 311.668 792.349L311.653 792.32Z" fill="white"/>
<path d="M392.855 780.691C392.943 780.617 393.002 780.543 393.091 780.484L393.062 769.848C385.665 778.132 374.955 783.694 363.875 783.398C362.263 771.061 354.275 759.715 343.18 754.049C349.186 758.65 349.349 768.635 344.201 774.167C339.053 779.715 330.074 780.676 323.269 777.377C316.465 774.079 311.849 767.185 310.059 759.848C307.411 748.931 311.139 739.745 316.849 730.913C314.601 731.816 312.308 732.999 310.547 733.901C287.338 745.691 289.275 780.765 311.331 792.925C308.965 792.126 306.568 791.431 304.142 790.839C300.784 791.726 297.264 792.466 293.728 793.206L393.091 793.383L393.062 780.587C392.988 780.617 392.899 780.647 392.825 780.676L392.855 780.691Z" fill="#F5FBFF"/>
<path d="M311.027 791.602C288.986 779.428 287.019 744.354 310.243 732.579C312.004 731.692 314.297 730.493 316.545 729.591C304.933 735.242 298.912 748.644 298.72 761.558C298.616 768.245 299.77 775.345 304.134 780.404C308.069 784.96 314.178 787.253 320.184 787.623C326.205 787.993 332.181 786.617 337.95 784.872C331.131 791.307 319.237 796.144 311.013 791.602H311.027Z" fill="#DFF2FD"/>
</g>
<g opacity="0.25">
<path d="M339.765 631.623C337.715 630.183 334.885 629.933 332.615 630.983C332.775 626.703 331.715 622.163 328.715 619.093C325.715 616.023 320.495 614.973 317.015 617.483C314.075 612.323 308.045 609.073 302.115 609.463C296.185 609.853 290.635 613.853 288.395 619.353C278.615 616.353 268.565 622.743 265.405 632.083C262.915 631.793 260.295 631.533 258.005 632.563C255.725 633.593 254.055 636.413 255.175 638.653C255.545 639.383 256.155 639.963 256.795 640.473C261.445 644.183 267.755 644.873 273.685 645.293C277.615 645.573 281.595 645.803 285.465 645.083C289.335 644.363 293.145 642.593 295.595 639.513C297.295 642.073 300.755 642.623 303.815 642.913C313.065 643.783 322.505 644.373 331.705 642.683C334.855 642.103 338.915 641.923 341.285 639.473C343.915 636.753 342.605 633.603 339.775 631.623H339.765Z" fill="white"/>
<path d="M265.395 632.103C262.905 631.813 260.285 631.553 257.995 632.583C255.715 633.613 254.045 636.433 255.165 638.673C255.535 639.403 256.145 639.983 256.785 640.493C261.435 644.213 267.745 644.893 273.675 645.313C277.605 645.593 281.585 645.823 285.455 645.103C289.325 644.383 293.135 642.613 295.585 639.533C297.285 642.093 300.745 642.643 303.805 642.933C313.055 643.803 322.495 644.393 331.695 642.703C334.845 642.123 338.905 641.943 341.275 639.493C343.905 636.773 342.595 633.623 339.765 631.643C337.715 630.203 334.885 629.953 332.615 631.003C332.745 627.563 332.085 623.973 330.275 621.103C330.785 622.853 330.845 624.713 330.235 626.413C328.895 630.133 324.915 631.463 321.555 629.683C318.625 628.133 316.735 624.933 316.405 621.633C315.685 628.023 310.205 633.553 303.825 634.333C297.445 635.103 290.795 631.043 288.575 625.003C288.025 628.113 286.015 630.933 283.245 632.463C280.475 633.983 277.015 634.183 274.085 632.983C272.595 632.363 271.175 631.333 270.565 629.833C269.705 627.723 270.635 625.303 271.935 623.423C272.285 622.923 272.655 622.453 273.055 621.993C269.565 624.413 266.815 627.973 265.405 632.113L265.395 632.103Z" fill="#F5FBFF"/>
<path d="M295.575 639.523C297.275 642.083 300.735 642.633 303.795 642.923C313.045 643.793 322.485 644.383 331.685 642.693C334.835 642.113 338.895 641.933 341.265 639.483C343.895 636.763 342.585 633.613 339.755 631.633C340.335 634.173 338.455 636.813 336.085 637.913C333.715 639.003 330.995 638.953 328.405 638.793C330.125 637.803 331.415 636.103 331.885 634.173C327.345 638.673 319.705 639.603 314.215 636.333C313.385 637.993 311.665 639.013 309.955 639.723C305.325 641.663 300.025 641.853 295.585 639.523H295.575Z" fill="#DFF2FD"/>
<path d="M255.166 638.673C255.536 639.403 256.146 639.983 256.786 640.493C261.436 644.213 267.746 644.893 273.676 645.313C277.606 645.593 281.586 645.823 285.456 645.103C289.326 644.383 293.136 642.613 295.586 639.533C292.926 638.483 290.396 636.113 289.256 633.483C289.796 635.653 288.376 637.953 286.436 639.063C284.496 640.173 282.146 640.323 279.916 640.243C275.396 640.083 270.596 638.913 267.556 635.563C268.656 638.463 271.296 640.583 274.206 641.653C277.116 642.713 280.286 642.843 283.386 642.683C282.316 643.393 281.006 643.613 279.726 643.753C271.536 644.663 262.266 642.883 255.176 638.673H255.166Z" fill="#DFF2FD"/>
</g>
<g opacity="0.25">
<path d="M217.841 380.549C214.26 378.536 213.984 372.813 217.786 370.921C218.252 370.691 218.948 370.33 219.467 370.258C219.731 370.22 221.446 370.455 221.422 370.84C221.495 369.53 222.477 368.419 223.614 367.762C226.47 366.11 230.524 367.022 232.405 369.733C234.281 372.446 233.704 376.563 231.15 378.653C232.163 378.209 233.45 378.519 234.151 379.374C234.853 380.228 234.906 381.553 234.276 382.459C235.617 381.697 237.518 382.185 238.324 383.495C240.349 383.075 242.5 383.267 244.416 384.049C244.844 384.221 245.278 384.438 245.552 384.809C245.825 385.18 245.884 385.749 245.57 386.085C245.37 386.302 245.061 386.383 244.771 386.438C243.661 386.651 242.518 386.649 241.389 386.644C236.098 386.629 230.807 386.614 225.517 386.599C224.985 386.599 224.435 386.592 223.949 386.369C223.463 386.146 223.069 385.642 223.145 385.115C222.369 385.722 221.453 386.189 220.471 386.289C219.489 386.389 218.438 386.082 217.778 385.347C214.69 386.158 211.432 386.327 208.276 385.84C207.758 385.761 207.222 385.656 206.785 385.363C206.347 385.069 206.027 384.546 206.13 384.026C206.233 383.506 206.73 383.14 207.246 383.031C207.761 382.921 208.297 383.022 208.812 383.129C208.615 382.12 209.233 381.084 210.099 380.527C210.961 379.97 212.025 379.816 213.05 379.793C214.676 379.754 216.309 380.012 217.841 380.546L217.841 380.549Z" fill="white"/>
<path d="M207.241 383.034C206.725 383.143 206.228 383.51 206.125 384.03C206.022 384.545 206.346 385.073 206.78 385.366C207.218 385.66 207.749 385.764 208.271 385.843C211.427 386.33 214.685 386.166 217.774 385.351C218.433 386.085 219.484 386.392 220.466 386.292C221.448 386.192 222.364 385.726 223.14 385.119C223.061 385.645 223.458 386.15 223.944 386.373C224.43 386.596 224.981 386.602 225.512 386.603C230.802 386.618 236.093 386.633 241.38 386.647C242.51 386.648 243.652 386.654 244.763 386.441C245.052 386.386 245.357 386.305 245.562 386.088C245.879 385.753 245.82 385.183 245.543 384.812C245.443 384.673 245.316 384.559 245.18 384.459C243.566 384.915 241.793 384.733 240.124 384.419C239.552 384.314 238.945 384.173 238.556 383.737C238.488 383.662 238.43 383.575 238.389 383.483C238.364 383.488 238.34 383.493 238.315 383.498C237.506 382.188 235.604 381.7 234.267 382.462C234.897 381.556 234.844 380.232 234.143 379.377C233.441 378.522 232.15 378.215 231.141 378.66C233.048 377.095 233.853 374.407 233.355 372.01C233.101 373.65 232.515 375.253 231.485 376.55C230.268 378.081 228.371 379.135 226.417 379.065C226.167 377.051 224.881 375.191 223.078 374.255C224.051 375.013 224.065 376.64 223.22 377.539C222.375 378.437 220.908 378.582 219.8 378.036C218.696 377.491 217.95 376.36 217.667 375.161C217.247 373.376 217.868 371.881 218.81 370.451C218.442 370.592 218.065 370.785 217.777 370.928C213.975 372.82 214.25 378.543 217.832 380.557C217.448 380.421 217.058 380.305 216.661 380.208C215.357 380.543 213.912 380.746 212.619 381.086C211.256 381.446 209.879 382.276 209.459 383.622C209.251 383.447 209.034 383.286 208.803 383.136C208.288 383.029 207.752 382.929 207.236 383.038L207.241 383.034Z" fill="#F5FBFF"/>
<path d="M217.841 380.551C214.259 378.537 213.983 372.813 217.786 370.921C218.074 370.778 218.451 370.585 218.819 370.444C216.918 371.35 215.919 373.529 215.871 375.637C215.847 376.728 216.027 377.887 216.731 378.719C217.369 379.466 218.36 379.847 219.339 379.914C220.318 379.982 221.298 379.765 222.24 379.485C221.119 380.528 219.173 381.301 217.841 380.551Z" fill="#DFF2FD"/>
<path d="M234.272 382.459C234.902 381.552 234.849 380.228 234.148 379.373C233.446 378.519 232.155 378.212 231.146 378.652C231.892 378.521 232.598 379.229 232.741 379.972C232.884 380.716 232.569 381.483 232.121 382.091C231.932 382.345 231.713 382.584 231.436 382.736C231.018 382.968 230.514 382.975 230.038 382.948C228.942 382.888 227.708 382.571 227.212 381.596C227.11 382.348 227.619 383.076 228.279 383.447C228.94 383.818 229.722 383.899 230.475 383.917C231.192 383.938 231.914 383.909 232.6 383.707C233.286 383.506 233.866 383.044 234.276 382.46L234.272 382.459Z" fill="#DFF2FD"/>
<path d="M245.551 384.809C245.824 385.18 245.883 385.749 245.57 386.085C245.369 386.302 245.06 386.383 244.771 386.438C243.66 386.651 242.518 386.649 241.388 386.644C236.097 386.629 230.807 386.614 225.52 386.6C224.985 386.599 224.434 386.592 223.952 386.37C223.466 386.147 223.073 385.642 223.148 385.116C223.983 385.71 224.98 385.835 226.005 385.88C227.245 385.937 228.502 385.945 229.709 385.663C230.919 385.385 232.089 384.787 232.858 383.816C232.95 384.629 232.538 385.473 231.846 385.906C235.428 385.49 239.052 385.935 242.656 385.89C243.704 385.877 245.153 385.778 245.548 384.805L245.551 384.809Z" fill="#DFF2FD"/>
<path d="M223.145 385.115C222.369 385.722 221.453 386.189 220.471 386.289C219.489 386.389 218.438 386.081 217.778 385.347C214.69 386.158 211.432 386.327 208.276 385.84C207.758 385.761 207.222 385.656 206.784 385.363C206.346 385.069 206.027 384.545 206.13 384.026C206.544 384.844 207.649 385.03 208.562 385.114C209.614 385.209 210.684 385.143 211.717 384.909C211.237 384.807 210.787 384.548 210.462 384.179C213.277 384.891 216.318 384.662 218.995 383.537C218.88 384.051 219.198 384.598 219.659 384.858C220.121 385.119 220.682 385.138 221.204 385.042C222.926 384.723 224.312 383.103 224.36 381.355C224.625 382.635 224.187 384.311 223.153 385.116L223.145 385.115Z" fill="#DFF2FD"/>
</g>
<g opacity="0.35">
<path d="M338.671 12.9137C334.861 12.5237 331.001 14.0937 328.711 17.8437C325.101 16.7637 320.991 17.5037 317.971 19.7637C314.951 22.0237 313.101 25.7637 313.131 29.5437C311.141 29.6137 309.091 29.7037 307.281 30.5237C305.471 31.3537 303.931 33.1137 303.991 35.1037C301.641 35.5837 299.561 38.2937 300.811 40.3337C301.521 41.4837 303.011 41.9437 304.361 41.9037C305.711 41.8637 307.031 41.4437 308.371 41.2637C311.261 40.8837 314.151 41.6537 317.031 42.0637C319.411 42.4037 321.961 42.3137 324.251 41.4837C326.021 40.8437 327.651 39.5837 328.321 37.8237C331.271 39.5837 334.931 39.5837 338.341 39.1637C340.881 38.8537 343.451 38.3237 345.641 37.0037C347.831 35.6937 349.611 33.4737 349.851 30.9337C353.381 31.5337 357.141 30.2937 359.361 27.4537C361.011 25.3437 360.381 22.0737 358.251 20.4937C356.581 19.2537 354.261 19.5337 352.211 19.9237C350.791 20.1937 349.281 20.5537 348.251 21.5737C348.211 19.3937 346.991 17.3637 345.361 15.9137C343.421 14.1837 341.051 13.1637 338.651 12.9137H338.671Z" fill="white"/>
<path d="M338.671 12.9137C341.061 13.1637 343.431 14.1737 345.381 15.9137C347.001 17.3637 348.231 19.3937 348.271 21.5737C348.301 23.2437 347.971 24.7637 346.891 26.0337C345.811 27.3037 344.361 28.1937 342.881 28.9637C344.271 23.3137 342.771 17.0437 338.681 12.9137H338.671Z" fill="#F5FBFF"/>
<path d="M359.372 27.4537C357.152 30.2837 353.392 31.5337 349.862 30.9337C349.622 33.4837 347.852 35.6937 345.652 37.0037C343.462 38.3137 340.892 38.8537 338.352 39.1637C334.942 39.5837 331.282 39.5837 328.332 37.8237C327.662 39.5837 326.032 40.8337 324.262 41.4837C321.972 42.3137 319.422 42.4037 317.042 42.0637C314.162 41.6537 311.262 40.8837 308.382 41.2637C307.042 41.4437 305.732 41.8637 304.372 41.9037C303.022 41.9437 301.532 41.4937 300.822 40.3337C299.572 38.2937 301.652 35.5837 304.002 35.1037C304.002 34.8737 304.012 34.6437 304.042 34.4137C304.952 34.1637 305.912 34.0237 306.852 34.0037C311.722 33.8637 316.432 36.0537 321.302 35.8337C322.612 35.7737 323.942 35.5337 325.092 34.8937C326.092 34.3437 326.922 33.5137 327.632 32.6037C328.962 30.8837 329.862 28.8237 330.242 26.6837C330.002 29.6937 332.792 32.2937 335.762 32.8137C338.732 33.3337 341.752 32.2637 344.462 30.9437C346.172 30.1137 348.022 28.9037 348.252 27.0237C350.652 28.4137 354.082 28.0837 355.792 25.9137C357.742 23.4437 356.232 21.5937 355.002 19.6037C356.192 19.5937 357.342 19.8037 358.282 20.5037C360.412 22.0737 361.042 25.3437 359.392 27.4637L359.372 27.4537Z" fill="#F5FBFF"/>
<path d="M328.341 37.8237C331.291 39.5837 334.951 39.5837 338.361 39.1637C340.901 38.8537 343.471 38.3237 345.661 37.0037C347.851 35.6937 349.631 33.4737 349.871 30.9337C353.401 31.5337 357.161 30.2937 359.381 27.4537C356.171 29.3737 352.491 30.3237 348.771 30.0137C347.871 32.9337 345.241 35.1337 342.311 36.0037C339.381 36.8737 336.191 36.5237 333.291 35.5537C333.551 36.8137 334.531 37.9037 335.761 38.3037C333.251 38.7537 330.771 38.6637 328.351 37.8337L328.341 37.8237Z" fill="#DFF2FD"/>
<path d="M300.821 40.3337C301.531 41.4837 303.011 41.9437 304.371 41.9037C305.721 41.8637 307.041 41.4437 308.381 41.2637C311.271 40.8837 314.161 41.6537 317.041 42.0637C319.421 42.4037 321.971 42.3137 324.261 41.4837C326.031 40.8437 327.661 39.5837 328.331 37.8237C325.651 39.4137 322.171 39.9637 319.081 39.5837C317.321 39.3637 315.621 38.8237 313.881 38.5037C309.571 37.7237 304.751 38.3937 300.821 40.3237V40.3337Z" fill="#DFF2FD"/>
</g>
<g opacity="0.35">
<path d="M38.3065 503.366C41.8571 495.84 52.5644 492.844 59.4991 497.43C63.512 492.178 70.5393 489.441 77.0302 490.569C83.5211 491.697 89.2169 496.69 91.1956 502.978C94.7092 502.386 98.7036 504.106 99.9981 507.416C101.293 510.726 98.7961 515.146 95.2455 515.128C94.0804 515.128 92.8969 514.684 91.7689 514.98C90.8627 515.22 90.16 515.904 89.4388 516.515C80.5253 524.152 65.3243 522.654 58.0752 513.426C52.9527 517.901 44.4461 517.772 39.4531 513.167C40.1188 513.796 32.4628 515.386 31.5937 515.239C28.8013 514.795 25.2692 513.112 24.8068 509.987C23.8267 503.459 33.7573 500.222 38.3065 503.348V503.366Z" fill="white"/>
<path d="M24.8072 510.005C25.2695 513.131 28.7831 514.813 31.594 515.257C32.4632 515.387 40.1376 513.796 39.4534 513.186C44.4649 517.791 52.9531 517.902 58.0755 513.426C65.3247 522.654 80.5256 524.152 89.4391 516.515C90.1418 515.904 90.8631 515.22 91.7692 514.98C92.8973 514.684 94.0808 515.109 95.2458 515.128C98.7964 515.165 101.293 510.745 99.9984 507.435C98.7039 504.125 94.7095 502.405 91.1959 502.996C90.5857 501.018 89.587 499.187 88.3295 497.541C88.6624 501.258 87.4789 505.123 85.0194 507.916C83.7064 509.414 82.0605 510.615 80.1928 511.3C77.4928 512.28 74.534 512.113 71.6861 511.762C69.7814 511.522 67.8396 511.207 66.1383 510.301C64.437 509.395 62.9946 507.823 62.7172 505.918C62.4768 504.31 63.0686 502.682 63.8638 501.24C65.0658 499.039 66.7116 497.097 68.6718 495.544C63.4384 496.432 58.7968 500.297 56.9845 505.29C56.7256 505.992 56.5036 506.751 55.9673 507.268C55.5235 507.694 54.8948 507.897 54.303 508.063C51.3812 508.896 48.3299 509.247 45.2786 509.118C42.7266 509.007 39.8787 508.359 38.5288 506.196C37.6226 507.509 36.3097 508.655 34.7378 508.896C33.1659 509.136 31.3536 508.211 31.0208 506.64C30.7619 505.419 31.4461 504.125 32.4077 503.329C32.7591 503.052 34.0166 502.608 34.7378 502.146C29.9482 501.739 24.012 504.846 24.7887 509.95L24.8072 510.005Z" fill="#F5FBFF"/>
<path d="M58.0942 513.426C65.3433 522.654 80.5443 524.152 89.4578 516.515C90.1605 515.904 90.8817 515.22 91.7878 514.98C92.9159 514.684 94.0994 515.109 95.2644 515.128C98.815 515.165 101.312 510.745 100.017 507.435C99.4623 509.728 97.4096 511.706 95.2275 512.631C93.0638 513.556 90.4564 513.408 88.4222 512.206C87.701 514.591 85.6482 516.422 83.3552 517.402C81.0621 518.382 78.5101 518.604 75.9951 518.641C74.2568 518.66 72.5185 518.604 70.8171 518.234C67.9138 517.587 65.2878 516.071 62.7728 514.48C60.7201 513.186 58.5195 511.595 58.0757 509.21C58.0017 510.467 58.1682 512.187 58.0757 513.445L58.0942 513.426Z" fill="#DFF2FD"/>
<path d="M58.0942 513.426C52.9717 517.901 44.4651 517.772 39.4721 513.186C40.1378 513.796 32.4818 515.405 31.6127 515.257C28.8203 514.813 25.3067 513.13 24.8259 510.005C24.0677 504.901 29.9853 501.794 34.7749 502.201C32.4079 502.793 29.9853 503.699 28.7463 505.788C27.4888 507.878 27.7477 510.948 29.7449 512.353C31.0579 513.278 32.7962 513.297 34.3866 513.056C36.2913 512.76 38.3255 511.984 39.2132 510.282C41.4878 512.723 44.8165 513.999 48.1451 514.351C51.4738 514.702 54.8395 514.092 58.1127 513.444L58.0942 513.426Z" fill="#DFF2FD"/>
</g>
<g opacity="0.35">
<path d="M52.6903 154.315C51.303 152.38 48.7401 151.569 46.3598 151.686C43.9795 151.803 41.716 152.716 39.5109 153.614C40.6646 149.802 37.5979 145.735 33.8522 144.392C30.1065 143.049 25.9738 143.713 22.0747 144.509C23.63 139.142 22.5201 130.687 16.343 128.767C14.1744 128.095 11.8306 128.241 9.60361 128.679C9.91028 123.261 9.19472 118.311 5.06202 114.58C3.5798 113.243 1.89313 112.163 0.0896401 111.316L0.0239258 171.7C0.389005 171.817 0.746783 171.941 1.12647 172.029C4.82107 172.934 8.38425 171.729 11.8744 170.576C12.6995 170.298 21.4103 165.355 20.3808 164.428C25.8935 169.4 33.8668 171.517 41.1173 169.918C45.3157 168.991 49.3535 166.793 51.8579 163.289C53.7198 160.667 54.5741 156.907 52.6976 154.293L52.6903 154.315Z" fill="white"/>
<path d="M5.06205 114.587C3.56522 113.236 1.85665 112.148 0.03125 111.301V115.127C0.286806 115.303 0.542361 115.47 0.783314 115.66C2.25093 116.799 3.54332 118.187 4.41951 119.83C5.40522 121.677 5.82141 123.787 5.7849 125.883C5.69728 130.373 3.44839 134.674 0.0969643 137.682V140.938C0.21379 140.88 0.323314 140.822 0.432838 140.756C4.8284 138.2 9.31887 133.768 9.61094 128.694C9.9176 123.269 9.20205 118.325 5.06935 114.594L5.06205 114.587Z" fill="#F5FBFF"/>
<path d="M52.6901 154.315C51.3028 152.38 48.74 151.57 46.3597 151.686C43.9794 151.811 41.7159 152.716 39.5108 153.614C40.6644 149.81 37.5978 145.743 33.852 144.392C30.1063 143.041 25.9663 143.706 22.0746 144.509C23.6298 139.142 22.52 130.687 16.3428 128.767C15.0578 128.365 13.7143 128.263 12.3708 128.329C13.2762 132.885 12.8308 137.843 10.2387 141.683C8.01902 144.976 4.01775 147.167 0.133301 146.955V171.744C0.461872 171.846 0.783142 171.956 1.11902 172.043C4.82092 172.949 8.3768 171.744 11.867 170.59C12.6993 170.313 21.4028 165.37 20.3733 164.442C25.886 169.422 33.8593 171.532 41.1098 169.933C45.3082 169.006 49.346 166.808 51.8505 163.303C53.7197 160.682 54.5667 156.922 52.6901 154.308V154.315Z" fill="#F5FBFF"/>
<path d="M20.3808 164.45C25.8935 169.429 33.8668 171.539 41.1173 169.94C45.3157 169.013 49.3535 166.815 51.8579 163.31C53.7271 160.689 54.5741 156.929 52.6976 154.315C52.7195 159.419 47.7544 163.697 42.8405 165.077C37.9338 166.465 32.6109 165.275 28.0036 163.077C25.7985 162.025 23.6519 160.704 22.1185 158.798C20.5852 156.892 19.7309 154.315 20.3443 151.949C18.5189 155.658 19.1906 160.492 20.3735 164.45H20.3808Z" fill="#DFF2FD"/>
</g>
<g opacity="0.35">
<path d="M383.344 360.564C379.724 362.994 377.594 367.234 376.924 371.554C367.264 365.874 357.984 375.984 359.244 385.584C357.684 385.074 355.984 385.044 354.394 385.434C352.934 385.794 351.564 386.504 350.474 387.534C348.184 389.684 347.184 393.114 347.954 396.154C345.494 394.874 342.134 395.704 340.544 397.984C338.954 400.264 339.344 403.694 341.394 405.564C344.074 408.004 348.314 407.414 351.694 406.084C359.814 413.834 373.814 414.354 382.474 407.214C385.474 409.854 389.124 411.624 392.984 412.554L393.034 359.234C389.904 358.114 386.144 358.674 383.334 360.564H383.344Z" fill="white"/>
<path d="M354.395 385.434C355.985 385.044 357.685 385.074 359.245 385.584C358.125 377.014 365.395 368.054 373.835 370.254C370.645 370.454 367.565 372.034 365.535 374.494C363.505 376.964 362.455 380.164 362.395 383.354C362.375 384.594 362.505 385.854 362.975 387.004C364.205 390.044 367.445 391.704 370.505 392.894C367.605 393.554 364.675 392.014 362.295 390.234C359.915 388.454 357.265 386.214 354.405 385.424L354.395 385.434Z" fill="#DFF2FD"/>
<path d="M383.344 360.554C379.724 362.984 377.594 367.224 376.924 371.544C376.474 374.434 379.284 376.914 381.864 378.304C384.444 379.684 387.514 379.984 390.404 379.564C387.554 379.274 385.234 376.944 384.124 374.294C382.704 370.914 382.974 366.804 385.074 363.804C386.684 361.504 389.894 360.354 392.904 360.334V359.184C389.804 358.134 386.114 358.704 383.344 360.564V360.554Z" fill="#F5FBFF"/>
<path d="M386.284 382.394C382.434 384.994 376.664 384.724 373.564 381.274C370.344 377.704 371.944 374.094 373.714 370.514C373.764 370.424 373.794 370.334 373.834 370.244C365.394 368.044 358.134 377.014 359.244 385.574C357.684 385.074 355.994 385.034 354.404 385.424C352.944 385.784 351.574 386.494 350.484 387.524C348.194 389.674 347.194 393.104 347.964 396.144C345.504 394.864 342.144 395.694 340.554 397.974C338.964 400.254 339.354 403.694 341.404 405.554C344.084 407.994 348.324 407.404 351.704 406.074C359.824 413.834 373.824 414.344 382.484 407.194C385.464 409.814 389.074 411.574 392.914 412.514V389.194C390.284 387.394 387.994 385.074 386.284 382.384V382.394Z" fill="#F5FBFF"/>
<path d="M359.244 385.584L359.234 385.574V385.584H359.244Z" fill="#F5FBFF"/>
<path d="M382.244 402.614C383.464 398.964 384.004 395.084 383.834 391.234C380.964 397.124 375.034 401.404 368.534 402.284C362.044 403.154 355.184 400.604 350.854 395.684C350.784 397.824 351.404 399.984 352.614 401.744C348.654 404.584 341.934 402.654 340.524 397.984C338.934 400.264 339.324 403.694 341.374 405.564C344.054 408.004 348.294 407.414 351.674 406.084C359.794 413.834 373.794 414.354 382.454 407.214C385.434 409.834 389.044 411.594 392.884 412.534V409.254C388.914 407.864 385.234 405.644 382.224 402.614H382.244Z" fill="#DFF2FD"/>
</g>
<g opacity="0.35">
<path d="M187.113 52.3343C183.554 51.1683 179.401 52.6207 177.029 55.5255C174.778 52.3957 170.544 50.8206 166.8 51.7411C163.057 52.6412 160.009 55.9755 159.436 59.7804C157.472 59.2076 155.325 59.0235 153.402 59.6986C151.479 60.3736 149.822 62.051 149.556 64.0762C148.124 63.7694 146.651 63.483 145.199 63.6875C143.746 63.8921 142.294 64.6899 141.721 66.04C140.862 68.0447 142.376 70.4585 144.421 71.195C146.467 71.9314 148.758 71.3791 150.722 70.4381C152.502 72.7087 155.243 74.2225 158.107 74.5293C160.97 74.8362 163.957 73.9361 166.187 72.095C168.539 74.7543 172.099 76.309 175.638 76.2476C179.197 76.1863 182.674 74.5089 184.945 71.7882C187.359 73.6702 192.903 75.9203 195.501 73.2201C196.605 72.095 196.912 70.2744 196.257 68.8425C197.853 68.8425 199.387 67.8197 200.001 66.3468C200.594 64.874 200.205 63.0534 199.039 61.9488C196.707 59.7395 194.212 61.2532 192.514 63.2375C192.534 58.8394 192.125 53.9095 187.113 52.3343Z" fill="white"/>
<path d="M159.436 59.7804C157.472 59.2076 155.325 59.0235 153.402 59.6985C151.479 60.3736 149.822 62.051 149.556 64.0762C148.124 63.7693 146.651 63.4829 145.199 63.6875C143.746 63.8921 142.294 64.6899 141.721 66.04C140.862 68.0447 142.376 70.4585 144.421 71.1949C146.467 71.9314 148.758 71.379 150.722 70.438C152.502 72.7087 155.243 74.2224 158.107 74.5293C160.97 74.8361 163.957 73.9361 166.187 72.095C168.539 74.7543 172.099 76.309 175.638 76.2476C179.197 76.1862 182.674 74.5088 184.945 71.7882C187.359 73.6701 192.903 75.9203 195.501 73.2201C196.605 72.095 196.912 70.2744 196.257 68.8425C197.853 68.8425 199.387 67.8197 200.001 66.3468C200.594 64.874 200.205 63.0534 199.039 61.9487C196.707 59.7395 194.212 61.2532 192.514 63.2375C192.514 59.8417 192.289 56.0983 189.855 53.8685C190.08 56.3437 189.63 58.8803 188.3 60.9464C186.745 63.3397 183.841 64.9353 181.018 64.5262C179.892 64.3626 178.788 63.8716 178.092 62.992C177.172 61.826 177.213 60.1486 176.292 59.0235C175.556 58.1234 174.287 57.7143 173.306 57.1824C174.431 57.7961 174.901 59.2485 174.615 60.4759C174.308 61.7033 173.367 62.7056 172.242 63.3193C170.605 64.2194 168.519 64.3626 166.8 63.6057C165.082 62.8488 163.752 61.1918 163.487 59.3303C163.18 57.3052 164.1 55.2186 165.491 53.7253C166.31 52.8457 167.291 52.1297 168.335 51.4956C167.823 51.5365 167.332 51.5979 166.841 51.7206C163.098 52.6207 160.05 55.9551 159.477 59.7599L159.436 59.7804Z" fill="#F5FBFF"/>
<path d="M184.945 71.7678C187.359 73.6498 192.902 75.8999 195.5 73.1997C196.605 72.0746 196.912 70.254 196.257 68.8221C197.853 68.8221 199.387 67.7993 199.98 66.3264C200.573 64.8536 200.185 63.033 199.019 61.9283C199.162 63.0125 198.916 63.974 198.405 64.9354C197.894 65.8969 196.912 66.6537 195.828 66.7356C194.743 66.7969 193.598 66.081 193.352 65.0172C193.025 65.6514 193.352 66.4287 193.761 66.981C194.191 67.5538 194.723 68.0652 194.927 68.7403C195.214 69.7835 194.559 70.8882 193.659 71.4609C192.739 72.0337 191.634 72.136 190.57 72.1974C188.566 72.2792 186.847 72.4428 184.945 71.7678Z" fill="#DFF2FD"/>
<path d="M175.638 76.2273C172.078 76.2887 168.539 74.734 166.187 72.0747C163.957 73.9157 160.97 74.8158 158.107 74.509C155.243 74.2021 152.502 72.6884 150.722 70.4177C148.779 71.3792 146.467 71.9315 144.421 71.1746C142.376 70.4382 140.883 68.0039 141.721 66.0197C141.803 67.7584 143.603 69.1495 145.26 69.6199C146.938 70.0904 148.717 69.8041 150.415 69.3949C150.047 68.3721 149.965 67.247 150.17 66.1628C151.479 67.9834 153.033 69.7427 155.14 70.4996C156.388 70.9291 157.718 70.9905 159.048 71.011C160.664 71.011 162.3 71.011 163.834 70.5405C165.369 70.07 166.841 69.0881 167.516 67.6152C166.494 69.8041 169.644 72.6679 171.137 73.7316C172.651 74.8158 174.369 75.5932 176.067 76.3296" fill="#DFF2FD"/>
</g>
<g opacity="0.35">
<path d="M74.8084 791.698C84.337 783.774 86.3947 768.293 79.2665 758.14C72.1384 747.999 56.8656 744.692 46.1856 750.975C41.9357 753.473 38.2737 757.674 38.0287 762.61C38.1022 761.165 31.6477 760.332 30.6556 760.467C28.7083 760.748 26.0995 762.12 24.3603 763.014C12.9211 768.82 11.2309 783.505 18.1141 793.058H85.5986C82.8673 790.29 78.3724 790.094 74.8084 791.698Z" fill="white"/>
<path d="M44.3732 775.384C48.0598 778.201 48.1455 784.325 44.9979 787.718C41.838 791.11 36.3388 791.71 32.1624 789.69C27.9982 787.669 25.1567 783.443 24.0667 778.936C22.45 772.237 24.728 766.603 28.2309 761.202C26.8591 761.753 25.4506 762.475 24.3729 763.026C13.0683 768.758 11.5128 783.505 18.1143 793.058H57.0128C55.935 785.611 51.085 778.801 44.3855 775.372L44.3732 775.384Z" fill="#F5FBFF"/>
<path d="M74.8087 791.71C81.9369 785.782 84.8763 775.641 82.9412 766.664C82.0226 772.837 79.867 778.875 76.0335 783.774C72.3347 788.501 66.9213 792.041 61.0669 793.07H84.7906C82.0349 790.89 78.0421 790.277 74.8087 791.71Z" fill="#F5FBFF"/>
<path d="M17.3054 780.786C17.4279 772.874 21.1145 764.655 28.2303 761.189C26.8586 761.74 25.4501 762.463 24.3723 763.014C13.0678 768.746 11.5001 783.492 18.1138 793.058H21.3349C21.09 792.825 20.845 792.592 20.6245 792.335C17.9546 789.236 17.2442 784.889 17.3054 780.786Z" fill="#DFF2FD"/>
<path d="M74.7959 791.698C76.2656 791.429 77.6986 792.029 78.8131 793.07H84.79C82.0342 790.878 78.0293 790.253 74.7959 791.698Z" fill="#DFF2FD"/>
</g>
<path d="M44.4536 444.954L49.7486 434.74L48.0385 446.103L57.9665 451.308L46.8458 449.784L41.5348 459.99L43.2537 448.65L33.3257 443.445L44.4536 444.954Z" fill="white"/>
<path d="M366.869 59.0837L369.749 53.1673L368.935 59.6895L374.687 62.5228L368.306 61.8113L365.416 67.7239L366.236 61.2147L360.484 58.3814L366.869 59.0837Z" fill="white"/>
<path d="M365.967 691.444L366.337 684.874L368.107 691.204L374.507 691.594L368.347 693.404L367.967 699.974L366.207 693.654L359.817 693.264L365.977 691.444H365.967Z" fill="white"/>
<path d="M97.7579 564.7L98.0379 559.69L99.3779 564.52L104.218 564.82L99.5579 566.2L99.2779 571.21L97.9479 566.39L93.1079 566.09L97.7679 564.7H97.7579Z" fill="white"/>
<path d="M113.807 761.643L119.327 751.054L117.517 762.844L127.777 768.254L116.257 766.654L110.727 777.244L112.547 765.474L102.287 760.064L113.807 761.654V761.643Z" fill="white"/>
<path d="M351.796 67.3682L351.987 63.9285L352.901 67.2357L356.208 67.4345L353.018 68.3847L352.827 71.8245L351.914 68.5173L348.606 68.3184L351.796 67.3682Z" fill="white"/>
<path d="M47.9666 83.3332L48.3366 76.7632L50.1066 83.0932L56.5066 83.4832L50.3466 85.2932L49.9666 91.8632L48.2066 85.5432L41.8066 85.1532L47.9666 83.3332Z" fill="white"/>
<defs>
<linearGradient id="paint0_linear_923_15201" x1="202.484" y1="881.713" x2="189.46" y2="-154.5" gradientUnits="userSpaceOnUse">
<stop stop-color="#B1E5F3"/>
<stop offset="0.49" stop-color="#AFD6FF"/>
<stop offset="1" stop-color="#B4CCFF"/>
</linearGradient>
</defs>
</svg>
