<svg width="102" height="144" viewBox="0 0 102 144" fill="none" xmlns="http://www.w3.org/2000/svg">
<path d="M51.3832 118.732C30.8365 118.732 12.401 105.678 5.53232 86.2615C3.65903 80.9688 2.70752 75.5273 2.70752 70.0561C2.70752 64.5849 3.59956 59.4706 5.35391 54.3265L5.50258 53.9102C12.3713 34.5232 30.8068 21.4102 51.3832 21.4102C56.7355 21.4102 62.058 22.3319 67.2318 24.116C70.9189 25.3946 74.5168 27.149 77.8768 29.3196C91.7629 38.3589 100.029 53.5831 100.029 70.0561C100.029 71.5726 99.94 73.1485 99.7913 74.8137C97.3531 99.8503 76.5388 118.732 51.3535 118.732H51.3832Z" fill="#181C36"/>
<path d="M51.3831 116.204C31.9069 116.204 14.4229 103.835 7.91099 85.4288C6.1269 80.4037 5.23486 75.2299 5.23486 70.056C5.23486 64.8822 6.06743 60.0354 7.73258 55.1589L7.85152 54.8318C14.3931 36.3369 31.8771 23.9375 51.3831 23.9375C56.4677 23.9375 61.5226 24.7998 66.4289 26.4947C69.9376 27.7138 73.3273 29.3789 76.5089 31.4306C89.6517 39.9942 97.5313 54.4156 97.5313 70.056C97.5313 71.513 97.4421 72.9997 97.2935 74.546C95.0039 98.2742 75.2601 116.175 51.3831 116.175V116.204Z" fill="#3D4787"/>
<path d="M75.1405 33.572C72.1968 31.6393 68.9855 30.0633 65.6254 28.9037C61.1652 27.3575 56.4077 26.4952 51.4123 26.4952C32.382 26.4654 16.2658 38.6567 10.2892 55.6352C10.2594 55.7541 10.2 55.8731 10.1405 55.992C8.62402 60.4225 7.76172 65.1503 7.76172 70.0862C7.76172 75.0222 8.68349 80.0474 10.2892 84.5968C16.2658 101.516 32.382 113.677 51.3528 113.677C74.0106 113.677 92.5948 96.4014 94.7357 74.3383C94.8844 72.9408 94.9438 71.5135 94.9438 70.0862C94.9438 54.7729 87.0344 41.3328 75.0811 33.572H75.1405Z" fill="#2A3069"/>
<path d="M91.6399 121.669L87.2805 121.493C61.7078 120.453 36.0982 120.35 10.5141 121.171C5.77999 121.142 1.96501 117.262 1.99422 112.506L2.03947 105.139C2.06503 100.978 3.5908 98.5074 8.40371 97.1134C9.62838 96.7611 10.8832 96.5654 12.1531 96.4559C14.1397 96.296 17.9337 95.983 22.4132 95.6194C41.6091 94.0556 60.9036 94.1741 80.0789 95.9735L90.4057 96.9443C91.6742 97.0616 92.9344 97.2649 94.1548 97.6165C99.1062 99.0314 100.344 101.581 100.319 105.75L100.273 113.118C100.244 117.873 96.3817 121.706 91.6477 121.677L91.6399 121.669Z" fill="#2A3069"/>
<path fill-rule="evenodd" clip-rule="evenodd" d="M91.8424 119.675C95.3802 119.6 98.2512 116.703 98.2733 113.106L98.3186 105.738C98.3304 103.814 98.0395 102.627 97.4591 101.79C96.8948 100.975 95.8354 100.177 93.6053 99.5396L93.601 99.5383C92.5333 99.2307 91.4031 99.0451 90.2216 98.9358L90.2186 98.9355L79.892 97.9648C79.8919 97.9648 79.8921 97.9648 79.892 97.9648C60.833 96.1763 41.6551 96.0585 22.5756 97.6128C20.2965 97.7978 18.1912 97.97 16.4121 98.1155C14.7024 98.2553 13.2935 98.3706 12.3194 98.449C11.1405 98.5509 10.0224 98.729 8.9582 99.035C6.78244 99.6654 5.65412 100.453 5.02498 101.29C4.3979 102.124 4.05084 103.293 4.03943 105.151L3.99418 112.519C3.97178 116.166 6.88606 119.129 10.4907 119.17C36.109 118.35 61.7532 118.453 87.3609 119.495C87.3606 119.495 87.3612 119.495 87.3609 119.495L91.8424 119.675ZM12.1531 96.4559C10.8832 96.5654 9.62838 96.7611 8.40371 97.1134C3.5908 98.5074 2.06503 100.978 2.03947 105.139L1.99422 112.506C1.96501 117.262 5.77999 121.142 10.5141 121.171C36.0982 120.35 61.7078 120.453 87.2805 121.493L91.6399 121.669L91.6477 121.677C96.3817 121.706 100.244 117.873 100.273 113.118L100.319 105.75C100.344 101.581 99.1062 99.0314 94.1548 97.6165C92.9344 97.2649 91.6742 97.0616 90.4057 96.9443L80.0789 95.9735C60.9036 94.1741 41.6091 94.0556 22.4132 95.6194C20.1304 95.8047 18.0255 95.9768 16.2472 96.1223C14.5361 96.2622 13.1273 96.3775 12.1531 96.4559Z" fill="#181C36"/>
<path d="M36.7715 113.025V105.861C36.7715 105.251 36.6335 104.801 36.3574 104.509C36.0866 104.218 35.6777 104.033 35.1309 103.955C35.0059 103.929 34.8444 103.908 34.6465 103.892C34.4538 103.876 34.2324 103.869 33.9824 103.869C33.6543 103.869 33.222 103.884 32.6855 103.916C32.1543 103.947 31.4954 103.996 30.709 104.064V102.97C30.9538 102.944 31.1934 102.923 31.4277 102.908C31.6621 102.892 31.8887 102.876 32.1074 102.861C32.5241 102.835 32.8965 102.817 33.2246 102.806C33.5579 102.791 33.8496 102.783 34.0996 102.783C34.6882 102.783 35.1647 102.809 35.5293 102.861C35.8991 102.913 36.2454 103.007 36.5684 103.142C36.8913 103.278 37.1595 103.449 37.373 103.658C37.5866 103.866 37.7559 104.134 37.8809 104.462C37.959 104.671 38.0137 104.887 38.0449 105.111C38.0814 105.335 38.0996 105.585 38.0996 105.861V113.025H36.7715ZM30.709 113.025V106.783H32.0215V113.025H30.709ZM40.0371 113.025V111.955H44.9434V105.861C44.9434 105.246 44.8027 104.793 44.5215 104.501C44.2402 104.21 43.8262 104.025 43.2793 103.947C43.1491 103.921 43.0007 103.903 42.834 103.892C42.6673 103.876 42.4772 103.869 42.2637 103.869C42.0189 103.869 41.7142 103.879 41.3496 103.9C40.985 103.916 40.5449 103.942 40.0293 103.978V102.892C40.4147 102.856 40.7949 102.83 41.1699 102.814C41.5501 102.793 41.9277 102.783 42.3027 102.783C42.8236 102.783 43.2585 102.806 43.6074 102.853C43.9616 102.895 44.2975 102.973 44.6152 103.087C44.9382 103.207 45.2064 103.361 45.4199 103.548C45.6335 103.736 45.8053 103.975 45.9355 104.267C46.0189 104.408 46.084 104.559 46.1309 104.72C46.1777 104.882 46.2116 105.054 46.2324 105.236C46.2533 105.418 46.2637 105.616 46.2637 105.83V111.955H47.4199V113.025H40.0371ZM50.7871 113.181C50.3079 113.181 49.8678 113.158 49.4668 113.111C49.0658 113.069 48.6803 113.004 48.3105 112.916V111.72C48.4824 111.778 48.6986 111.835 48.959 111.892C49.2246 111.944 49.5059 111.988 49.8027 112.025C50.1048 112.056 50.3965 112.072 50.6777 112.072C51.0163 112.072 51.3184 112.025 51.584 111.931C51.8548 111.837 52.0814 111.715 52.2637 111.564C52.4408 111.418 52.5944 111.246 52.7246 111.048C52.86 110.85 52.9642 110.65 53.0371 110.447C53.1152 110.238 53.1829 109.991 53.2402 109.705C53.3027 109.413 53.334 109.106 53.334 108.783V107.4C53.334 106.827 53.2741 106.311 53.1543 105.853C53.0345 105.395 52.847 105.012 52.5918 104.705C52.3574 104.429 52.0632 104.22 51.709 104.08C51.36 103.939 50.9642 103.869 50.5215 103.869C50.2142 103.869 49.9043 103.892 49.5918 103.939C49.2845 103.981 48.9694 104.046 48.6465 104.134C48.5632 104.16 48.4928 104.181 48.4355 104.197C48.3783 104.212 48.3366 104.223 48.3105 104.228V103.103C48.4772 103.046 48.6335 103.001 48.7793 102.97C48.9251 102.939 49.0996 102.908 49.3027 102.876C49.5163 102.845 49.7454 102.824 49.9902 102.814C50.2402 102.798 50.5033 102.791 50.7793 102.791C51.3105 102.791 51.8105 102.882 52.2793 103.064C52.7533 103.241 53.1361 103.473 53.4277 103.759C53.5736 103.91 53.7064 104.074 53.8262 104.251C53.946 104.423 54.0553 104.611 54.1543 104.814C54.2689 105.059 54.3626 105.319 54.4355 105.595C54.5137 105.866 54.571 106.153 54.6074 106.455C54.6439 106.751 54.6621 107.067 54.6621 107.4V108.783C54.6621 109.231 54.6257 109.645 54.5527 110.025C54.485 110.405 54.3809 110.759 54.2402 111.087C54.1204 111.363 53.9746 111.611 53.8027 111.83C53.6309 112.043 53.4251 112.231 53.1855 112.392C52.8262 112.715 52.4303 112.926 51.998 113.025C51.5658 113.129 51.1621 113.181 50.7871 113.181ZM60.9277 113.025V105.861C60.9277 105.246 60.7871 104.793 60.5059 104.501C60.2246 104.205 59.8053 104.017 59.248 103.939C59.123 103.913 58.985 103.895 58.834 103.884C58.6882 103.874 58.5319 103.869 58.3652 103.869C58.1621 103.869 57.9095 103.874 57.6074 103.884C57.3053 103.889 56.998 103.903 56.6855 103.923C56.373 103.939 56.097 103.955 55.8574 103.97V102.876C56.321 102.845 56.7454 102.822 57.1309 102.806C57.5163 102.791 57.8678 102.783 58.1855 102.783C58.8105 102.783 59.3079 102.809 59.6777 102.861C60.0475 102.913 60.3939 103.007 60.7168 103.142C61.0397 103.278 61.3079 103.449 61.5215 103.658C61.735 103.861 61.9069 104.129 62.0371 104.462C62.11 104.671 62.1621 104.887 62.1934 105.111C62.2298 105.335 62.248 105.585 62.248 105.861V113.025H60.9277ZM70.9434 113.025V105.861C70.9434 105.251 70.8053 104.801 70.5293 104.509C70.2585 104.218 69.8496 104.033 69.3027 103.955C69.1777 103.929 69.0163 103.908 68.8184 103.892C68.6257 103.876 68.4043 103.869 68.1543 103.869C67.8262 103.869 67.3939 103.884 66.8574 103.916C66.3262 103.947 65.6673 103.996 64.8809 104.064V102.97C65.1257 102.944 65.3652 102.923 65.5996 102.908C65.834 102.892 66.0605 102.876 66.2793 102.861C66.696 102.835 67.0684 102.817 67.3965 102.806C67.7298 102.791 68.0215 102.783 68.2715 102.783C68.86 102.783 69.3366 102.809 69.7012 102.861C70.071 102.913 70.4173 103.007 70.7402 103.142C71.0632 103.278 71.3314 103.449 71.5449 103.658C71.7585 103.866 71.9277 104.134 72.0527 104.462C72.1309 104.671 72.1855 104.887 72.2168 105.111C72.2533 105.335 72.2715 105.585 72.2715 105.861V113.025H70.9434ZM64.8809 113.025V106.783H66.1934V113.025H64.8809Z" fill="white"/>
<g clip-path="url(#clip0_1135_31344)">
<path d="M72.513 81.4856H72.413C72.213 81.3856 72.013 81.3856 71.713 81.3856C71.113 81.3856 70.613 81.5856 70.613 81.8856V82.0856L69.013 82.5856V81.3856V76.7856V72.2856L72.913 71.0856V66.4856V61.8856V57.2856L76.213 56.1856V51.5856L72.513 49.3856V48.0856L68.813 45.8856H68.713C68.613 45.8856 68.513 45.7856 68.413 45.7856V44.7856L61.213 47.0856L57.413 44.9856V49.5856C57.213 49.5856 57.113 49.4856 56.913 49.4856C56.313 49.4856 55.813 49.6856 55.813 49.9856V50.0856L54.313 50.5856V55.1856L58.013 57.3856L65.213 55.0856V56.2856H64.913C64.713 56.2856 64.613 56.1856 64.413 56.1856C63.813 56.1856 63.313 56.3856 63.313 56.6856V56.7856L61.913 57.2856V61.8856V66.4856V70.9856L61.113 71.1856C60.913 71.1856 60.813 71.0856 60.613 71.0856C60.013 71.0856 59.513 71.2856 59.513 71.5856V71.6856L58.013 72.1856V76.7856V81.3856V85.9856V90.5856L61.713 92.7856L68.913 90.4856L76.113 88.1856V83.5856L72.513 81.4856Z" fill="black"/>
<path d="M68.3131 44.8859L64.6131 42.6859H64.5131C64.3131 42.5859 64.1131 42.5859 63.8131 42.5859C63.2131 42.5859 62.7131 42.7859 62.7131 43.0859V43.2859L60.5131 43.9859C60.3131 43.9859 60.2131 43.8859 60.0131 43.8859C59.4131 43.8859 58.9131 44.0859 58.9131 44.3859V44.4859L57.4131 44.9859L61.1131 47.1859L68.3131 44.8859Z" fill="black"/>
<path d="M33.113 51.0857V55.3857V59.6857L39.813 61.7857L43.313 59.7857V55.4857V54.3857L43.513 54.4857L47.013 52.3857V51.2857L47.213 51.3857L50.713 49.2857V48.1857L51.513 48.4857V44.0857L55.013 42.0857L53.613 41.5857V41.4857C53.613 41.2857 53.213 41.0857 52.613 41.0857C52.413 41.0857 52.313 41.0857 52.113 41.1857L50.013 40.4857V40.2857C50.013 40.0857 49.613 39.8857 49.013 39.8857C48.713 39.8857 48.513 39.8857 48.313 39.9857H48.213L44.713 41.9857V42.7857C44.413 42.7857 44.213 42.7857 44.013 42.8857H43.913L40.413 44.8857V45.8857H40.313H40.213L36.813 47.9857L30.113 45.8857V50.1857L33.113 51.0857Z" fill="black"/>
<path d="M40.2131 45.8855L38.8131 45.3855C38.8131 45.1855 38.4131 44.9855 37.8131 44.9855C37.6131 44.9855 37.5131 44.9855 37.3131 45.0855L35.2131 44.3855V44.0855C35.2131 43.8855 34.8131 43.6855 34.2131 43.6855C33.9131 43.6855 33.7131 43.6855 33.5131 43.7855H33.4131L29.9131 45.8855L36.8131 47.9855L40.2131 45.8855Z" fill="black"/>
<path d="M50.0129 86.4859L53.5129 84.3859V80.0859L50.0129 82.1859V86.4859Z" fill="black"/>
<path d="M50.0131 82.1855L53.5131 80.0855L52.1131 79.5855V79.4855C52.1131 79.2855 51.7131 79.0855 51.1131 79.0855C50.9131 79.0855 50.8131 79.0855 50.6131 79.1855L48.5131 78.4855V78.2855C48.5131 78.0855 48.1131 77.8855 47.5131 77.8855C47.2131 77.8855 47.0131 77.8855 46.8131 77.9855H46.7131L45.3131 77.5855V77.4855C45.3131 77.2855 44.9131 77.0855 44.3131 77.0855C44.1131 77.0855 44.0131 77.0855 43.8131 77.1855L43.2131 76.9855V72.7855V72.6855V68.4855V64.1855V59.8855L39.9131 61.7855L33.2131 59.6855V63.9855V68.2855V72.4855V72.5855V73.7855L29.9131 75.7855V79.9855L36.6131 82.0855L43.3131 84.1855L50.0131 86.2855V82.1855Z" fill="black"/>
<path d="M51.5129 48.3859L55.0129 46.3859V42.0859L51.5129 44.0859V48.3859Z" fill="black"/>
<path d="M22.813 79.3856L26.713 77.0856V72.1856L25.113 71.6856V71.5856C25.113 71.2856 24.613 71.0856 24.013 71.0856C23.813 71.0856 23.613 71.0856 23.513 71.1856L21.213 70.4856V70.2856C21.213 69.9856 20.713 69.7856 20.113 69.7856C19.813 69.7856 19.513 69.8856 19.313 69.8856H19.213L15.313 72.1856V76.9856L22.813 79.3856Z" fill="black"/>
<path d="M79.313 79.6855V84.5855L86.913 86.9855L90.813 84.6855V79.7855L86.913 82.1855L79.313 79.6855Z" fill="black"/>
<path d="M90.813 79.7856L89.213 79.2856V79.1856C89.213 78.8856 88.713 78.6856 88.113 78.6856C87.913 78.6856 87.713 78.6856 87.613 78.7856L85.213 77.9856V77.7856C85.213 77.4856 84.713 77.2856 84.113 77.2856C83.813 77.2856 83.513 77.3856 83.313 77.3856H83.213L79.313 79.6856L86.913 82.0856L90.813 79.7856Z" fill="black"/>
<path d="M20.0129 85.6859V90.5859L23.9129 92.8859L31.5129 90.4859V85.5859L23.9129 88.0859L20.0129 85.6859Z" fill="black"/>
<path d="M27.513 83.2855C27.313 83.1855 27.013 83.1855 26.713 83.1855C26.113 83.1855 25.613 83.3855 25.613 83.6855V83.8855L23.313 84.5855C23.113 84.5855 23.013 84.4855 22.813 84.4855C22.213 84.4855 21.713 84.6855 21.713 84.9855V85.0855L20.113 85.5855L23.913 88.0855L31.513 85.6855L27.613 83.3855L27.513 83.2855Z" fill="black"/>
</g>
<path d="M63.345 86.3756L67.0568 88.5772V83.976L63.345 81.7798V86.3756Z" fill="#2586B7"/>
<path d="M67.0569 88.5771L74.2718 86.2755V81.6743L67.0569 83.9758V88.5771Z" fill="#2586B7"/>
<path d="M67.0568 83.9763L74.2717 81.6748L70.5599 79.4785L63.345 81.78L67.0568 83.9763Z" fill="#7ACCF4"/>
<path d="M72.6491 81.043H70.5417V81.6764H72.6491V81.043Z" fill="#2586B7"/>
<path d="M70.5417 81.6764C70.5417 81.9377 71.0137 82.1501 71.5945 82.1501C72.1753 82.1501 72.6472 81.9377 72.6472 81.6764C72.6472 81.415 72.1753 81.2026 71.5945 81.2026C71.0137 81.2026 70.5417 81.415 70.5417 81.6764Z" fill="#2586B7"/>
<path d="M70.5417 81.0431C70.5417 81.3044 71.0137 81.5168 71.5945 81.5168C72.1753 81.5168 72.6472 81.3044 72.6472 81.0431C72.6472 80.7817 72.1753 80.5693 71.5945 80.5693C71.0137 80.5693 70.5417 80.7817 70.5417 81.0431Z" fill="#7ACCF4"/>
<path d="M70.7543 79.8579H68.647V80.4914H70.7543V79.8579Z" fill="#2586B7"/>
<path d="M68.647 80.4913C68.647 80.7527 69.1189 80.965 69.6997 80.965C70.2805 80.965 70.7525 80.7527 70.7525 80.4913C70.7525 80.2299 70.2805 80.0176 69.6997 80.0176C69.1189 80.0176 68.647 80.2299 68.647 80.4913Z" fill="#2586B7"/>
<path d="M68.647 79.858C68.647 80.1194 69.1189 80.3317 69.6997 80.3317C70.2805 80.3317 70.7525 80.1194 70.7525 79.858C70.7525 79.5966 70.2805 79.3843 69.6997 79.3843C69.1189 79.3843 68.647 79.5966 68.647 79.858Z" fill="#7ACCF4"/>
<path d="M68.7975 82.3027H66.6902V82.9362H68.7975V82.3027Z" fill="#2586B7"/>
<path d="M66.6902 82.9361C66.6902 83.1975 67.1621 83.4099 67.7429 83.4099C68.3238 83.4099 68.7957 83.1975 68.7957 82.9361C68.7957 82.6748 68.3238 82.4624 67.7429 82.4624C67.1621 82.4624 66.6902 82.6748 66.6902 82.9361Z" fill="#2586B7"/>
<path d="M66.6902 82.3023C66.6902 82.5637 67.1621 82.7761 67.7429 82.7761C68.3238 82.7761 68.7957 82.5637 68.7957 82.3023C68.7957 82.041 68.3238 81.8286 67.7429 81.8286C67.1621 81.8286 66.6902 82.041 66.6902 82.3023Z" fill="#7ACCF4"/>
<path d="M66.9713 81.1992H64.864V81.8327H66.9713V81.1992Z" fill="#2586B7"/>
<path d="M64.864 81.8326C64.864 82.094 65.3359 82.3064 65.9168 82.3064C66.4976 82.3064 66.9695 82.094 66.9695 81.8326C66.9695 81.5713 66.4976 81.3589 65.9168 81.3589C65.3359 81.3589 64.864 81.5713 64.864 81.8326Z" fill="#2586B7"/>
<path d="M64.864 81.1988C64.864 81.4602 65.3359 81.6726 65.9168 81.6726C66.4976 81.6726 66.9695 81.4602 66.9695 81.1988C66.9695 80.9375 66.4976 80.7251 65.9168 80.7251C65.3359 80.7251 64.864 80.9375 64.864 81.1988Z" fill="#7ACCF4"/>
<path d="M56.1389 88.6842L59.8507 90.884V86.2846L56.1389 84.0884V88.6842Z" fill="#EFBB3A"/>
<path d="M59.8508 90.8843L67.0658 88.5846V83.9834L59.8508 86.2849V90.8843Z" fill="#CE9411"/>
<path d="M59.8507 86.2849L67.0657 83.9834L63.3538 81.7871L56.1389 84.0886L59.8507 86.2849Z" fill="#FFD473"/>
<path d="M65.4432 83.3516H63.3359V83.985H65.4432V83.3516Z" fill="#CE9411"/>
<path d="M63.3359 83.9855C63.3359 84.2468 63.8079 84.4592 64.3887 84.4592C64.9695 84.4592 65.4414 84.2468 65.4414 83.9855C65.4414 83.7241 64.9695 83.5117 64.3887 83.5117C63.8079 83.5117 63.3359 83.7241 63.3359 83.9855Z" fill="#CE9411"/>
<path d="M63.3359 83.3517C63.3359 83.613 63.8079 83.8254 64.3887 83.8254C64.9695 83.8254 65.4414 83.613 65.4414 83.3517C65.4414 83.0903 64.9695 82.8779 64.3887 82.8779C63.8079 82.8779 63.3359 83.0903 63.3359 83.3517Z" fill="#FFD473"/>
<path d="M63.5482 82.1665H61.4409V82.8H63.5482V82.1665Z" fill="#CE9411"/>
<path d="M61.4409 82.7999C61.4409 83.0613 61.9128 83.2736 62.4937 83.2736C63.0745 83.2736 63.5464 83.0613 63.5464 82.7999C63.5464 82.5385 63.0745 82.3262 62.4937 82.3262C61.9128 82.3262 61.4409 82.5385 61.4409 82.7999Z" fill="#CE9411"/>
<path d="M61.4409 82.1661C61.4409 82.4275 61.9128 82.6399 62.4937 82.6399C63.0745 82.6399 63.5464 82.4275 63.5464 82.1661C63.5464 81.9047 63.0745 81.6924 62.4937 81.6924C61.9128 81.6924 61.4409 81.9047 61.4409 82.1661Z" fill="#FFD473"/>
<path d="M61.5917 84.6113H59.4844V85.2448H61.5917V84.6113Z" fill="#CE9411"/>
<path d="M59.4844 85.2447C59.4844 85.5061 59.9563 85.7185 60.5371 85.7185C61.1179 85.7185 61.5899 85.5061 61.5899 85.2447C61.5899 84.9834 61.1179 84.771 60.5371 84.771C59.9563 84.771 59.4844 84.9834 59.4844 85.2447Z" fill="#CE9411"/>
<path d="M59.4844 84.6109C59.4844 84.8723 59.9563 85.0847 60.5371 85.0847C61.1179 85.0847 61.5899 84.8723 61.5899 84.6109C61.5899 84.3496 61.1179 84.1372 60.5371 84.1372C59.9563 84.1372 59.4844 84.3496 59.4844 84.6109Z" fill="#FFD473"/>
<path d="M59.7655 83.5078H57.6582V84.1413H59.7655V83.5078Z" fill="#CE9411"/>
<path d="M57.6582 84.1412C57.6582 84.4026 58.1301 84.615 58.7109 84.615C59.2918 84.615 59.7637 84.4026 59.7637 84.1412C59.7637 83.8798 59.2918 83.6675 58.7109 83.6675C58.1301 83.6675 57.6582 83.8798 57.6582 84.1412Z" fill="#CE9411"/>
<path d="M57.6582 83.5079C57.6582 83.7693 58.1301 83.9816 58.7109 83.9816C59.2918 83.9816 59.7637 83.7693 59.7637 83.5079C59.7637 83.2465 59.2918 83.0342 58.7109 83.0342C58.1301 83.0342 57.6582 83.2465 57.6582 83.5079Z" fill="#FFD473"/>
<path d="M56.1482 84.067L59.86 86.2687V81.6674L56.1482 79.4712V84.067Z" fill="#EFBB3A"/>
<path d="M59.8599 86.2685L67.0748 83.9669V79.3657L59.8599 81.6672V86.2685Z" fill="#CE9411"/>
<path d="M59.86 81.6672L67.075 79.3657L63.3631 77.1694L56.1482 79.471L59.86 81.6672Z" fill="#FFD473"/>
<path d="M65.4523 78.7344H63.345V79.3678H65.4523V78.7344Z" fill="#CE9411"/>
<path d="M63.345 79.3678C63.345 79.6291 63.8169 79.8415 64.3977 79.8415C64.9785 79.8415 65.4505 79.6291 65.4505 79.3678C65.4505 79.1064 64.9785 78.894 64.3977 78.894C63.8169 78.894 63.345 79.1064 63.345 79.3678Z" fill="#CE9411"/>
<path d="M63.345 78.734C63.345 78.9954 63.8169 79.2077 64.3977 79.2077C64.9785 79.2077 65.4505 78.9954 65.4505 78.734C65.4505 78.4726 64.9785 78.2603 64.3977 78.2603C63.8169 78.2603 63.345 78.4726 63.345 78.734Z" fill="#FFD473"/>
<path d="M63.5573 77.5488H61.45V78.1823H63.5573V77.5488Z" fill="#CE9411"/>
<path d="M61.45 78.1822C61.45 78.4436 61.9219 78.656 62.5027 78.656C63.0835 78.656 63.5554 78.4436 63.5554 78.1822C63.5554 77.9209 63.0835 77.7085 62.5027 77.7085C61.9219 77.7085 61.45 77.9209 61.45 78.1822Z" fill="#CE9411"/>
<path d="M61.45 77.5489C61.45 77.8103 61.9219 78.0227 62.5027 78.0227C63.0835 78.0227 63.5554 77.8103 63.5554 77.5489C63.5554 77.2876 63.0835 77.0752 62.5027 77.0752C61.9219 77.0752 61.45 77.2876 61.45 77.5489Z" fill="#FFD473"/>
<path d="M61.601 79.9937H59.4937V80.6271H61.601V79.9937Z" fill="#CE9411"/>
<path d="M59.4937 80.6271C59.4937 80.8884 59.9656 81.1008 60.5464 81.1008C61.1272 81.1008 61.5991 80.8884 61.5991 80.6271C61.5991 80.3657 61.1272 80.1533 60.5464 80.1533C59.9656 80.1533 59.4937 80.3657 59.4937 80.6271Z" fill="#CE9411"/>
<path d="M59.4937 79.9938C59.4937 80.2551 59.9656 80.4675 60.5464 80.4675C61.1272 80.4675 61.5991 80.2551 61.5991 79.9938C61.5991 79.7324 61.1272 79.52 60.5464 79.52C59.9656 79.52 59.4937 79.7324 59.4937 79.9938Z" fill="#FFD473"/>
<path d="M59.7748 78.8901H57.6675V79.5236H59.7748V78.8901Z" fill="#CE9411"/>
<path d="M57.6675 79.524C57.6675 79.7854 58.1394 79.9978 58.7202 79.9978C59.301 79.9978 59.773 79.7854 59.773 79.524C59.773 79.2627 59.301 79.0503 58.7202 79.0503C58.1394 79.0503 57.6675 79.2627 57.6675 79.524Z" fill="#CE9411"/>
<path d="M57.6675 78.8902C57.6675 79.1516 58.1394 79.364 58.7202 79.364C59.301 79.364 59.773 79.1516 59.773 78.8902C59.773 78.6289 59.301 78.4165 58.7202 78.4165C58.1394 78.4165 57.6675 78.6289 57.6675 78.8902Z" fill="#FFD473"/>
<path d="M56.1482 79.4639L59.86 81.6638V77.0644L56.1482 74.8682V79.4639Z" fill="#53A2D3"/>
<path d="M59.8599 81.6636L67.0748 79.3639V74.7627L59.8599 77.0642V81.6636Z" fill="#2586B7"/>
<path d="M59.86 77.0642L67.075 74.7626L63.3631 72.5664L56.1482 74.8679L59.86 77.0642Z" fill="#7ACCF4"/>
<path d="M65.4523 74.1313H63.345V74.7648H65.4523V74.1313Z" fill="#2586B7"/>
<path d="M63.345 74.7648C63.345 75.0261 63.8169 75.2385 64.3977 75.2385C64.9785 75.2385 65.4505 75.0261 65.4505 74.7648C65.4505 74.5034 64.9785 74.291 64.3977 74.291C63.8169 74.291 63.345 74.5034 63.345 74.7648Z" fill="#2586B7"/>
<path d="M63.345 74.131C63.345 74.3923 63.8169 74.6047 64.3977 74.6047C64.9785 74.6047 65.4505 74.3923 65.4505 74.131C65.4505 73.8696 64.9785 73.6572 64.3977 73.6572C63.8169 73.6572 63.345 73.8696 63.345 74.131Z" fill="#7ACCF4"/>
<path d="M63.5573 72.9458H61.45V73.5793H63.5573V72.9458Z" fill="#2586B7"/>
<path d="M61.45 73.5792C61.45 73.8406 61.9219 74.0529 62.5027 74.0529C63.0835 74.0529 63.5554 73.8406 63.5554 73.5792C63.5554 73.3178 63.0835 73.1055 62.5027 73.1055C61.9219 73.1055 61.45 73.3178 61.45 73.5792Z" fill="#2586B7"/>
<path d="M61.45 72.9459C61.45 73.2073 61.9219 73.4196 62.5027 73.4196C63.0835 73.4196 63.5554 73.2073 63.5554 72.9459C63.5554 72.6845 63.0835 72.4722 62.5027 72.4722C61.9219 72.4722 61.45 72.6845 61.45 72.9459Z" fill="#7ACCF4"/>
<path d="M61.601 75.3892H59.4937V76.0226H61.601V75.3892Z" fill="#2586B7"/>
<path d="M59.4937 76.024C59.4937 76.2854 59.9656 76.4978 60.5464 76.4978C61.1272 76.4978 61.5991 76.2854 61.5991 76.024C61.5991 75.7627 61.1272 75.5503 60.5464 75.5503C59.9656 75.5503 59.4937 75.7627 59.4937 76.024Z" fill="#2586B7"/>
<path d="M59.4937 75.3893C59.4937 75.6506 59.9656 75.863 60.5464 75.863C61.1272 75.863 61.5991 75.6506 61.5991 75.3893C61.5991 75.1279 61.1272 74.9155 60.5464 74.9155C59.9656 74.9155 59.4937 75.1279 59.4937 75.3893Z" fill="#7ACCF4"/>
<path d="M59.7748 74.2871H57.6675V74.9206H59.7748V74.2871Z" fill="#2586B7"/>
<path d="M57.6675 74.9205C57.6675 75.1819 58.1394 75.3942 58.7202 75.3942C59.301 75.3942 59.773 75.1819 59.773 74.9205C59.773 74.6591 59.301 74.4468 58.7202 74.4468C58.1394 74.4468 57.6675 74.6591 57.6675 74.9205Z" fill="#2586B7"/>
<path d="M57.6675 74.2872C57.6675 74.5486 58.1394 74.7609 58.7202 74.7609C59.301 74.7609 59.773 74.5486 59.773 74.2872C59.773 74.0258 59.301 73.8135 58.7202 73.8135C58.1394 73.8135 57.6675 74.0258 57.6675 74.2872Z" fill="#7ACCF4"/>
<path d="M56.1284 74.8682L59.8402 77.0681V72.4687L56.1284 70.2725V74.8682Z" fill="#F7EDEF"/>
<path d="M59.8398 77.0679L67.0548 74.7682V70.167L59.8398 72.4685V77.0679Z" fill="#E2D7DA"/>
<path d="M59.8402 72.4685L67.0552 70.1669L63.3433 67.9707L56.1284 70.2722L59.8402 72.4685Z" fill="white"/>
<path d="M65.4323 69.5352H63.325V70.1686H65.4323V69.5352Z" fill="#E2D7DA"/>
<path d="M63.325 70.1686C63.325 70.4299 63.7969 70.6423 64.3777 70.6423C64.9585 70.6423 65.4304 70.4299 65.4304 70.1686C65.4304 69.9072 64.9585 69.6948 64.3777 69.6948C63.7969 69.6948 63.325 69.9072 63.325 70.1686Z" fill="#E2D7DA"/>
<path d="M63.325 69.5357C63.325 69.7971 63.7969 70.0095 64.3777 70.0095C64.9585 70.0095 65.4304 69.7971 65.4304 69.5357C65.4304 69.2744 64.9585 69.062 64.3777 69.062C63.7969 69.062 63.325 69.2744 63.325 69.5357Z" fill="white"/>
<path d="M63.5372 68.3501H61.4299V68.9836H63.5372V68.3501Z" fill="#E2D7DA"/>
<path d="M61.4299 68.984C61.4299 69.2454 61.9019 69.4577 62.4827 69.4577C63.0635 69.4577 63.5354 69.2454 63.5354 68.984C63.5354 68.7226 63.0635 68.5103 62.4827 68.5103C61.9019 68.5103 61.4299 68.7226 61.4299 68.984Z" fill="#E2D7DA"/>
<path d="M61.4299 68.3502C61.4299 68.6116 61.9019 68.8239 62.4827 68.8239C63.0635 68.8239 63.5354 68.6116 63.5354 68.3502C63.5354 68.0888 63.0635 67.8765 62.4827 67.8765C61.9019 67.8765 61.4299 68.0888 61.4299 68.3502Z" fill="white"/>
<path d="M61.5809 70.7935H59.4736V71.4269H61.5809V70.7935Z" fill="#E2D7DA"/>
<path d="M59.4736 71.4283C59.4736 71.6897 59.9456 71.9021 60.5264 71.9021C61.1072 71.9021 61.5791 71.6897 61.5791 71.4283C61.5791 71.167 61.1072 70.9546 60.5264 70.9546C59.9456 70.9546 59.4736 71.167 59.4736 71.4283Z" fill="#E2D7DA"/>
<path d="M59.4736 70.7931C59.4736 71.0544 59.9456 71.2668 60.5264 71.2668C61.1072 71.2668 61.5791 71.0544 61.5791 70.7931C61.5791 70.5317 61.1072 70.3193 60.5264 70.3193C59.9456 70.3193 59.4736 70.5317 59.4736 70.7931Z" fill="white"/>
<path d="M59.7548 69.6914H57.6475V70.3249H59.7548V69.6914Z" fill="#E2D7DA"/>
<path d="M57.6475 70.3248C57.6475 70.5862 58.1194 70.7985 58.7002 70.7985C59.281 70.7985 59.7529 70.5862 59.7529 70.3248C59.7529 70.0634 59.281 69.8511 58.7002 69.8511C58.1194 69.8511 57.6475 70.0634 57.6475 70.3248Z" fill="#E2D7DA"/>
<path d="M57.6475 69.6915C57.6475 69.9529 58.1194 70.1652 58.7002 70.1652C59.281 70.1652 59.7529 69.9529 59.7529 69.6915C59.7529 69.4301 59.281 69.2178 58.7002 69.2178C58.1194 69.2178 57.6475 69.4301 57.6475 69.6915Z" fill="white"/>
<path d="M59.9888 69.0723L63.7006 71.274V66.6728L59.9888 64.4766V69.0723Z" fill="#71AA2E"/>
<path d="M63.7007 71.2743L70.9156 68.9728V64.3716L63.7007 66.6731V71.2743Z" fill="#58871B"/>
<path d="M63.7006 66.6731L70.9155 64.3715L67.2037 62.1753L59.9888 64.4768L63.7006 66.6731Z" fill="#AADD68"/>
<path d="M69.2931 63.7397H67.1858V64.3732H69.2931V63.7397Z" fill="#58871B"/>
<path d="M67.1858 64.3731C67.1858 64.6345 67.6577 64.8469 68.2385 64.8469C68.8194 64.8469 69.2913 64.6345 69.2913 64.3731C69.2913 64.1118 68.8194 63.8994 68.2385 63.8994C67.6577 63.8994 67.1858 64.1118 67.1858 64.3731Z" fill="#58871B"/>
<path d="M67.1858 63.7398C67.1858 64.0012 67.6577 64.2136 68.2385 64.2136C68.8194 64.2136 69.2913 64.0012 69.2913 63.7398C69.2913 63.4785 68.8194 63.2661 68.2385 63.2661C67.6577 63.2661 67.1858 63.4785 67.1858 63.7398Z" fill="#AADD68"/>
<path d="M67.3961 62.5547H65.2888V63.1881H67.3961V62.5547Z" fill="#58871B"/>
<path d="M65.2888 63.1881C65.2888 63.4495 65.7607 63.6618 66.3416 63.6618C66.9224 63.6618 67.3943 63.4495 67.3943 63.1881C67.3943 62.9267 66.9224 62.7144 66.3416 62.7144C65.7607 62.7144 65.2888 62.9267 65.2888 63.1881Z" fill="#58871B"/>
<path d="M65.2888 62.5543C65.2888 62.8157 65.7607 63.028 66.3416 63.028C66.9224 63.028 67.3943 62.8157 67.3943 62.5543C67.3943 62.2929 66.9224 62.0806 66.3416 62.0806C65.7607 62.0806 65.2888 62.2929 65.2888 62.5543Z" fill="#AADD68"/>
<path d="M65.4415 64.9995H63.3342V65.633H65.4415V64.9995Z" fill="#58871B"/>
<path d="M63.3342 65.6329C63.3342 65.8943 63.8061 66.1066 64.387 66.1066C64.9678 66.1066 65.4397 65.8943 65.4397 65.6329C65.4397 65.3715 64.9678 65.1592 64.387 65.1592C63.8061 65.1592 63.3342 65.3715 63.3342 65.6329Z" fill="#58871B"/>
<path d="M63.3342 64.9996C63.3342 65.261 63.8061 65.4733 64.387 65.4733C64.9678 65.4733 65.4397 65.261 65.4397 64.9996C65.4397 64.7382 64.9678 64.5259 64.387 64.5259C63.8061 64.5259 63.3342 64.7382 63.3342 64.9996Z" fill="#AADD68"/>
<path d="M63.6154 63.896H61.5081V64.5295H63.6154V63.896Z" fill="#58871B"/>
<path d="M61.5081 64.5294C61.5081 64.7908 61.98 65.0031 62.5608 65.0031C63.1416 65.0031 63.6135 64.7908 63.6135 64.5294C63.6135 64.268 63.1416 64.0557 62.5608 64.0557C61.98 64.0557 61.5081 64.268 61.5081 64.5294Z" fill="#58871B"/>
<path d="M61.5081 63.8961C61.5081 64.1575 61.98 64.3698 62.5608 64.3698C63.1416 64.3698 63.6135 64.1575 63.6135 63.8961C63.6135 63.6347 63.1416 63.4224 62.5608 63.4224C61.98 63.4224 61.5081 63.6347 61.5081 63.8961Z" fill="#AADD68"/>
<path d="M59.969 64.4766L63.6808 66.6783V62.0771L59.969 59.8809V64.4766Z" fill="#EFBB3A"/>
<path d="M63.6809 66.6786L70.8958 64.3771V59.7759L63.6809 62.0774V66.6786Z" fill="#CE9411"/>
<path d="M63.6808 62.0773L70.8958 59.7758L67.1839 57.5796L59.969 59.8811L63.6808 62.0773Z" fill="#FFD473"/>
<path d="M69.2731 59.144H67.1658V59.7775H69.2731V59.144Z" fill="#CE9411"/>
<path d="M67.1658 59.7779C67.1658 60.0393 67.6377 60.2517 68.2185 60.2517C68.7993 60.2517 69.2713 60.0393 69.2713 59.7779C69.2713 59.5166 68.7993 59.3042 68.2185 59.3042C67.6377 59.3042 67.1658 59.5166 67.1658 59.7779Z" fill="#CE9411"/>
<path d="M67.1658 59.1441C67.1658 59.4055 67.6377 59.6179 68.2185 59.6179C68.7993 59.6179 69.2713 59.4055 69.2713 59.1441C69.2713 58.8828 68.7993 58.6704 68.2185 58.6704C67.6377 58.6704 67.1658 58.8828 67.1658 59.1441Z" fill="#FFD473"/>
<path d="M67.3763 57.9585H65.269V58.592H67.3763V57.9585Z" fill="#CE9411"/>
<path d="M65.269 58.5924C65.269 58.8538 65.741 59.0661 66.3218 59.0661C66.9026 59.0661 67.3745 58.8538 67.3745 58.5924C67.3745 58.331 66.9026 58.1187 66.3218 58.1187C65.741 58.1187 65.269 58.331 65.269 58.5924Z" fill="#CE9411"/>
<path d="M65.269 57.9591C65.269 58.2205 65.741 58.4328 66.3218 58.4328C66.9026 58.4328 67.3745 58.2205 67.3745 57.9591C67.3745 57.6977 66.9026 57.4854 66.3218 57.4854C65.741 57.4854 65.269 57.6977 65.269 57.9591Z" fill="#FFD473"/>
<path d="M65.4213 60.4033H63.314V61.0368H65.4213V60.4033Z" fill="#CE9411"/>
<path d="M63.314 61.0372C63.314 61.2986 63.7859 61.5109 64.3667 61.5109C64.9475 61.5109 65.4195 61.2986 65.4195 61.0372C65.4195 60.7758 64.9475 60.5635 64.3667 60.5635C63.7859 60.5635 63.314 60.7758 63.314 61.0372Z" fill="#CE9411"/>
<path d="M63.314 60.4034C63.314 60.6648 63.7859 60.8772 64.3667 60.8772C64.9475 60.8772 65.4195 60.6648 65.4195 60.4034C65.4195 60.1421 64.9475 59.9297 64.3667 59.9297C63.7859 59.9297 63.314 60.1421 63.314 60.4034Z" fill="#FFD473"/>
<path d="M63.5956 59.3003H61.4883V59.9338H63.5956V59.3003Z" fill="#CE9411"/>
<path d="M61.4883 59.9337C61.4883 60.1951 61.9602 60.4074 62.541 60.4074C63.1218 60.4074 63.5938 60.1951 63.5938 59.9337C63.5938 59.6723 63.1218 59.46 62.541 59.46C61.9602 59.46 61.4883 59.6723 61.4883 59.9337Z" fill="#CE9411"/>
<path d="M61.4883 59.2999C61.4883 59.5613 61.9602 59.7736 62.541 59.7736C63.1218 59.7736 63.5938 59.5613 63.5938 59.2999C63.5938 59.0385 63.1218 58.8262 62.541 58.8262C61.9602 58.8262 61.4883 59.0385 61.4883 59.2999Z" fill="#FFD473"/>
<path d="M59.958 59.8936L63.6698 62.0935V57.4941L59.958 55.2979V59.8936Z" fill="#D33346"/>
<path d="M63.6699 62.0933L70.8849 59.7936V55.1924L63.6699 57.4939V62.0933Z" fill="#A82642"/>
<path d="M63.6698 57.4939L70.8848 55.1923L67.1729 52.9961L59.958 55.2976L63.6698 57.4939Z" fill="#E54C66"/>
<path d="M69.2621 54.561H67.1548V55.1945H69.2621V54.561Z" fill="#9B1B31"/>
<path d="M67.1548 55.1944C67.1548 55.4558 67.6267 55.6682 68.2075 55.6682C68.7884 55.6682 69.2603 55.4558 69.2603 55.1944C69.2603 54.9331 68.7884 54.7207 68.2075 54.7207C67.6267 54.7207 67.1548 54.9331 67.1548 55.1944Z" fill="#9B1B31"/>
<path d="M67.1548 54.5611C67.1548 54.8225 67.6267 55.0349 68.2075 55.0349C68.7884 55.0349 69.2603 54.8225 69.2603 54.5611C69.2603 54.2998 68.7884 54.0874 68.2075 54.0874C67.6267 54.0874 67.1548 54.2998 67.1548 54.5611Z" fill="#E54C66"/>
<path d="M67.3671 53.376H65.2598V54.0094H67.3671V53.376Z" fill="#9B1B31"/>
<path d="M65.2598 54.0089C65.2598 54.2703 65.7317 54.4826 66.3125 54.4826C66.8933 54.4826 67.3653 54.2703 67.3653 54.0089C67.3653 53.7475 66.8933 53.5352 66.3125 53.5352C65.7317 53.5352 65.2598 53.7475 65.2598 54.0089Z" fill="#9B1B31"/>
<path d="M65.2598 53.3756C65.2598 53.637 65.7317 53.8493 66.3125 53.8493C66.8933 53.8493 67.3653 53.637 67.3653 53.3756C67.3653 53.1142 66.8933 52.9019 66.3125 52.9019C65.7317 52.9019 65.2598 53.1142 65.2598 53.3756Z" fill="#E54C66"/>
<path d="M65.4105 55.8208H63.3032V56.4543H65.4105V55.8208Z" fill="#9B1B31"/>
<path d="M63.3032 56.4542C63.3032 56.7156 63.7751 56.9279 64.356 56.9279C64.9368 56.9279 65.4087 56.7156 65.4087 56.4542C65.4087 56.1928 64.9368 55.9805 64.356 55.9805C63.7751 55.9805 63.3032 56.1928 63.3032 56.4542Z" fill="#9B1B31"/>
<path d="M63.3032 55.8204C63.3032 56.0818 63.7751 56.2941 64.356 56.2941C64.9368 56.2941 65.4087 56.0818 65.4087 55.8204C65.4087 55.559 64.9368 55.3467 64.356 55.3467C63.7751 55.3467 63.3032 55.559 63.3032 55.8204Z" fill="#E54C66"/>
<path d="M63.5846 54.7168H61.4773V55.3503H63.5846V54.7168Z" fill="#9B1B31"/>
<path d="M61.4773 55.3507C61.4773 55.6121 61.9492 55.8244 62.53 55.8244C63.1109 55.8244 63.5828 55.6121 63.5828 55.3507C63.5828 55.0893 63.1109 54.877 62.53 54.877C61.9492 54.877 61.4773 55.0893 61.4773 55.3507Z" fill="#9B1B31"/>
<path d="M61.4773 54.7169C61.4773 54.9783 61.9492 55.1906 62.53 55.1906C63.1109 55.1906 63.5828 54.9783 63.5828 54.7169C63.5828 54.4555 63.1109 54.2432 62.53 54.2432C61.9492 54.2432 61.4773 54.4555 61.4773 54.7169Z" fill="#E54C66"/>
<path d="M63.3032 54.2506L67.0151 56.4504V51.851L63.3032 49.6548V54.2506Z" fill="#F7EDEF"/>
<path d="M67.0149 56.4507L74.2298 54.151V49.5498L67.0149 51.8513V56.4507Z" fill="#E2D7DA"/>
<path d="M67.0151 51.8508L74.23 49.5493L70.5181 47.353L63.3032 49.6545L67.0151 51.8508Z" fill="white"/>
<path d="M72.6073 48.918H70.5V49.5514H72.6073V48.918Z" fill="#E2D7DA"/>
<path d="M70.5 49.5514C70.5 49.8127 70.9719 50.0251 71.5527 50.0251C72.1336 50.0251 72.6055 49.8127 72.6055 49.5514C72.6055 49.29 72.1336 49.0776 71.5527 49.0776C70.9719 49.0776 70.5 49.29 70.5 49.5514Z" fill="#E2D7DA"/>
<path d="M70.5 48.9181C70.5 49.1794 70.9719 49.3918 71.5527 49.3918C72.1336 49.3918 72.6055 49.1794 72.6055 48.9181C72.6055 48.6567 72.1336 48.4443 71.5527 48.4443C70.9719 48.4443 70.5 48.6567 70.5 48.9181Z" fill="white"/>
<path d="M70.7123 47.7329H68.605V48.3664H70.7123V47.7329Z" fill="#E2D7DA"/>
<path d="M68.605 48.3658C68.605 48.6272 69.0769 48.8396 69.6577 48.8396C70.2385 48.8396 70.7105 48.6272 70.7105 48.3658C70.7105 48.1045 70.2385 47.8921 69.6577 47.8921C69.0769 47.8921 68.605 48.1045 68.605 48.3658Z" fill="#E2D7DA"/>
<path d="M68.605 47.7325C68.605 47.9939 69.0769 48.2063 69.6577 48.2063C70.2385 48.2063 70.7105 47.9939 70.7105 47.7325C70.7105 47.4712 70.2385 47.2588 69.6577 47.2588C69.0769 47.2588 68.605 47.4712 68.605 47.7325Z" fill="white"/>
<path d="M68.7577 50.1777H66.6504V50.8112H68.7577V50.1777Z" fill="#E2D7DA"/>
<path d="M66.6504 50.8111C66.6504 51.0725 67.1223 51.2849 67.7031 51.2849C68.284 51.2849 68.7559 51.0725 68.7559 50.8111C68.7559 50.5498 68.284 50.3374 67.7031 50.3374C67.1223 50.3374 66.6504 50.5498 66.6504 50.8111Z" fill="#E2D7DA"/>
<path d="M66.6504 50.1773C66.6504 50.4387 67.1223 50.6511 67.7031 50.6511C68.284 50.6511 68.7559 50.4387 68.7559 50.1773C68.7559 49.916 68.284 49.7036 67.7031 49.7036C67.1223 49.7036 66.6504 49.916 66.6504 50.1773Z" fill="white"/>
<path d="M66.9315 49.0737H64.8242V49.7072H66.9315V49.0737Z" fill="#E2D7DA"/>
<path d="M64.8242 49.7076C64.8242 49.969 65.2961 50.1814 65.877 50.1814C66.4578 50.1814 66.9297 49.969 66.9297 49.7076C66.9297 49.4463 66.4578 49.2339 65.877 49.2339C65.2961 49.2339 64.8242 49.4463 64.8242 49.7076Z" fill="#E2D7DA"/>
<path d="M64.8242 49.0738C64.8242 49.3352 65.2961 49.5476 65.877 49.5476C66.4578 49.5476 66.9297 49.3352 66.9297 49.0738C66.9297 48.8125 66.4578 48.6001 65.877 48.6001C65.2961 48.6001 64.8242 48.8125 64.8242 49.0738Z" fill="white"/>
<path d="M59.5732 50.8399L63.2851 53.0398V48.4404L59.5732 46.2441V50.8399Z" fill="#58871B"/>
<path d="M63.2849 53.0401L70.4998 50.7404V46.1392L63.2849 48.4407V53.0401Z" fill="#58871B"/>
<path d="M63.2851 48.4406L70.5 46.1391L66.7882 43.9429L59.5732 46.2444L63.2851 48.4406Z" fill="#AADD68"/>
<path d="M68.8773 45.5073H66.77V46.1408H68.8773V45.5073Z" fill="#58871B"/>
<path d="M66.77 46.1412C66.77 46.4026 67.2419 46.615 67.8228 46.615C68.4036 46.615 68.8755 46.4026 68.8755 46.1412C68.8755 45.8798 68.4036 45.6675 67.8228 45.6675C67.2419 45.6675 66.77 45.8798 66.77 46.1412Z" fill="#58871B"/>
<path d="M66.77 45.5074C66.77 45.7688 67.2419 45.9812 67.8228 45.9812C68.4036 45.9812 68.8755 45.7688 68.8755 45.5074C68.8755 45.2461 68.4036 45.0337 67.8228 45.0337C67.2419 45.0337 66.77 45.2461 66.77 45.5074Z" fill="#AADD68"/>
<path d="M66.9823 44.3223H64.875V44.9557H66.9823V44.3223Z" fill="#58871B"/>
<path d="M65.9277 45.4294C66.5092 45.4294 66.9805 45.2173 66.9805 44.9557C66.9805 44.694 66.5092 44.4819 65.9277 44.4819C65.3463 44.4819 64.875 44.694 64.875 44.9557C64.875 45.2173 65.3463 45.4294 65.9277 45.4294Z" fill="#58871B"/>
<path d="M64.875 44.3219C64.875 44.5833 65.3469 44.7956 65.9277 44.7956C66.5086 44.7956 66.9805 44.5833 66.9805 44.3219C66.9805 44.0605 66.5086 43.8481 65.9277 43.8481C65.3469 43.8481 64.875 44.0605 64.875 44.3219Z" fill="#AADD68"/>
<path d="M65.0258 46.7671H62.9185V47.4006H65.0258V46.7671Z" fill="#58871B"/>
<path d="M62.9185 47.4005C62.9185 47.6619 63.3904 47.8742 63.9712 47.8742C64.552 47.8742 65.0239 47.6619 65.0239 47.4005C65.0239 47.1391 64.552 46.9268 63.9712 46.9268C63.3904 46.9268 62.9185 47.1391 62.9185 47.4005Z" fill="#58871B"/>
<path d="M62.9185 46.7672C62.9185 47.0286 63.3904 47.2409 63.9712 47.2409C64.552 47.2409 65.0239 47.0286 65.0239 46.7672C65.0239 46.5058 64.552 46.2935 63.9712 46.2935C63.3904 46.2935 62.9185 46.5058 62.9185 46.7672Z" fill="#AADD68"/>
<path d="M63.1996 45.6636H61.0923V46.297H63.1996V45.6636Z" fill="#58871B"/>
<path d="M61.0923 46.297C61.0923 46.5583 61.5642 46.7707 62.145 46.7707C62.7259 46.7707 63.1978 46.5583 63.1978 46.297C63.1978 46.0356 62.7259 45.8232 62.145 45.8232C61.5642 45.8232 61.0923 46.0356 61.0923 46.297Z" fill="#58871B"/>
<path d="M61.0923 45.6637C61.0923 45.925 61.5642 46.1374 62.145 46.1374C62.7259 46.1374 63.1978 45.925 63.1978 45.6637C63.1978 45.4023 62.7259 45.1899 62.145 45.1899C61.5642 45.1899 61.0923 45.4023 61.0923 45.6637Z" fill="#AADD68"/>
<path d="M52.3765 53.147L56.0883 55.3469V50.7475L52.3765 48.5513V53.147Z" fill="#EFBB3A"/>
<path d="M56.0881 55.3467L63.3031 53.047V48.4458L56.0881 50.7473V55.3467Z" fill="#CE9411"/>
<path d="M56.0883 50.7473L63.3032 48.4458L59.5914 46.2495L52.3765 48.551L56.0883 50.7473Z" fill="#FFD473"/>
<path d="M61.6805 47.8145H59.5732V48.4479H61.6805V47.8145Z" fill="#CE9411"/>
<path d="M59.5732 48.4479C59.5732 48.7092 60.0452 48.9216 60.626 48.9216C61.2068 48.9216 61.6787 48.7092 61.6787 48.4479C61.6787 48.1865 61.2068 47.9741 60.626 47.9741C60.0452 47.9741 59.5732 48.1865 59.5732 48.4479Z" fill="#CE9411"/>
<path d="M59.5732 47.8141C59.5732 48.0754 60.0452 48.2878 60.626 48.2878C61.2068 48.2878 61.6787 48.0754 61.6787 47.8141C61.6787 47.5527 61.2068 47.3403 60.626 47.3403C60.0452 47.3403 59.5732 47.5527 59.5732 47.8141Z" fill="#FFD473"/>
<path d="M59.7855 46.6289H57.6782V47.2624H59.7855V46.6289Z" fill="#CE9411"/>
<path d="M57.6782 47.2623C57.6782 47.5237 58.1501 47.736 58.731 47.736C59.3118 47.736 59.7837 47.5237 59.7837 47.2623C59.7837 47.0009 59.3118 46.7886 58.731 46.7886C58.1501 46.7886 57.6782 47.0009 57.6782 47.2623Z" fill="#CE9411"/>
<path d="M57.6782 46.629C57.6782 46.8904 58.1501 47.1027 58.731 47.1027C59.3118 47.1027 59.7837 46.8904 59.7837 46.629C59.7837 46.3676 59.3118 46.1553 58.731 46.1553C58.1501 46.1553 57.6782 46.3676 57.6782 46.629Z" fill="#FFD473"/>
<path d="M57.829 49.0737H55.7217V49.7072H57.829V49.0737Z" fill="#CE9411"/>
<path d="M55.7217 49.7076C55.7217 49.969 56.1936 50.1814 56.7744 50.1814C57.3552 50.1814 57.8272 49.969 57.8272 49.7076C57.8272 49.4463 57.3552 49.2339 56.7744 49.2339C56.1936 49.2339 55.7217 49.4463 55.7217 49.7076Z" fill="#CE9411"/>
<path d="M55.7217 49.0738C55.7217 49.3352 56.1936 49.5476 56.7744 49.5476C57.3552 49.5476 57.8272 49.3352 57.8272 49.0738C57.8272 48.8125 57.3552 48.6001 56.7744 48.6001C56.1936 48.6001 55.7217 48.8125 55.7217 49.0738Z" fill="#FFD473"/>
<path d="M56.0031 47.9702H53.8958V48.6037H56.0031V47.9702Z" fill="#CE9411"/>
<path d="M53.8958 48.6036C53.8958 48.865 54.3677 49.0774 54.9485 49.0774C55.5293 49.0774 56.0012 48.865 56.0012 48.6036C56.0012 48.3422 55.5293 48.1299 54.9485 48.1299C54.3677 48.1299 53.8958 48.3422 53.8958 48.6036Z" fill="#CE9411"/>
<path d="M53.8958 47.9703C53.8958 48.2317 54.3677 48.4441 54.9485 48.4441C55.5293 48.4441 56.0012 48.2317 56.0012 47.9703C56.0012 47.7089 55.5293 47.4966 54.9485 47.4966C54.3677 47.4966 53.8958 47.7089 53.8958 47.9703Z" fill="#FFD473"/>
<path d="M55.4675 47.5821L59.1794 49.782V45.1826L55.4675 42.9863V47.5821Z" fill="#53A2D3"/>
<path d="M59.1792 49.7818L66.3941 47.4821V42.8809L59.1792 45.1824V49.7818Z" fill="#2586B7"/>
<path d="M59.1794 45.1823L66.3943 42.8808L62.6825 40.6846L55.4675 42.9861L59.1794 45.1823Z" fill="#7ACCF4"/>
<path d="M64.7714 42.249H62.6641V42.8825H64.7714V42.249Z" fill="#2586B7"/>
<path d="M62.6641 42.8829C62.6641 43.1443 63.136 43.3566 63.7168 43.3566C64.2976 43.3566 64.7696 43.1443 64.7696 42.8829C64.7696 42.6215 64.2976 42.4092 63.7168 42.4092C63.136 42.4092 62.6641 42.6215 62.6641 42.8829Z" fill="#2586B7"/>
<path d="M62.6641 42.2491C62.6641 42.5105 63.136 42.7229 63.7168 42.7229C64.2976 42.7229 64.7696 42.5105 64.7696 42.2491C64.7696 41.9878 64.2976 41.7754 63.7168 41.7754C63.136 41.7754 62.6641 41.9878 62.6641 42.2491Z" fill="#7ACCF4"/>
<path d="M62.8768 41.064H60.7695V41.6974H62.8768V41.064Z" fill="#2586B7"/>
<path d="M60.7695 41.6974C60.7695 41.9587 61.2415 42.1711 61.8223 42.1711C62.4031 42.1711 62.875 41.9587 62.875 41.6974C62.875 41.436 62.4031 41.2236 61.8223 41.2236C61.2415 41.2236 60.7695 41.436 60.7695 41.6974Z" fill="#2586B7"/>
<path d="M60.7695 41.0641C60.7695 41.3254 61.2415 41.5378 61.8223 41.5378C62.4031 41.5378 62.875 41.3254 62.875 41.0641C62.875 40.8027 62.4031 40.5903 61.8223 40.5903C61.2415 40.5903 60.7695 40.8027 60.7695 41.0641Z" fill="#7ACCF4"/>
<path d="M60.9218 43.5073H58.8145V44.1408H60.9218V43.5073Z" fill="#2586B7"/>
<path d="M58.8145 44.1407C58.8145 44.4021 59.2864 44.6145 59.8672 44.6145C60.448 44.6145 60.9199 44.4021 60.9199 44.1407C60.9199 43.8794 60.448 43.667 59.8672 43.667C59.2864 43.667 58.8145 43.8794 58.8145 44.1407Z" fill="#2586B7"/>
<path d="M58.8145 43.5069C58.8145 43.7683 59.2864 43.9807 59.8672 43.9807C60.448 43.9807 60.9199 43.7683 60.9199 43.5069C60.9199 43.2456 60.448 43.0332 59.8672 43.0332C59.2864 43.0332 58.8145 43.2456 58.8145 43.5069Z" fill="#7ACCF4"/>
<path d="M59.0958 42.4053H56.9885V43.0387H59.0958V42.4053Z" fill="#2586B7"/>
<path d="M56.9885 43.0392C56.9885 43.3005 57.4604 43.5129 58.0413 43.5129C58.6221 43.5129 59.094 43.3005 59.094 43.0392C59.094 42.7778 58.6221 42.5654 58.0413 42.5654C57.4604 42.5654 56.9885 42.7778 56.9885 43.0392Z" fill="#2586B7"/>
<path d="M56.9885 42.4054C56.9885 42.6667 57.4604 42.8791 58.0413 42.8791C58.6221 42.8791 59.094 42.6667 59.094 42.4054C59.094 42.144 58.6221 41.9316 58.0413 41.9316C57.4604 41.9316 56.9885 42.144 56.9885 42.4054Z" fill="#7ACCF4"/>
<path d="M38.1046 78.113L34.6399 80.1664V75.8733L38.1046 73.8232V78.113Z" fill="#2586B7"/>
<path d="M34.6398 80.1666L27.9053 78.02V73.7251L34.6398 75.8734V80.1666Z" fill="#53A2D3"/>
<path d="M34.6398 75.8736L27.9053 73.7253L31.37 71.6753L38.1046 73.8236L34.6398 75.8736Z" fill="#7ACCF4"/>
<path d="M31.3872 73.1357H29.4202V73.727H31.3872V73.1357Z" fill="#2586B7"/>
<path d="M31.3869 73.7269C31.3869 73.9708 30.9464 74.1691 30.4043 74.1691C29.8621 74.1691 29.4216 73.9708 29.4216 73.7269C29.4216 73.4829 29.8621 73.2847 30.4043 73.2847C30.9464 73.2847 31.3869 73.4829 31.3869 73.7269Z" fill="#2586B7"/>
<path d="M31.3869 73.1356C31.3869 73.3795 30.9464 73.5777 30.4043 73.5777C29.8621 73.5777 29.4216 73.3795 29.4216 73.1356C29.4216 72.8916 29.8621 72.6934 30.4043 72.6934C30.9464 72.6934 31.3869 72.8916 31.3869 73.1356Z" fill="#7ACCF4"/>
<path d="M33.1574 72.0293H31.1904V72.6206H33.1574V72.0293Z" fill="#2586B7"/>
<path d="M33.1557 72.6204C33.1557 72.8644 32.7152 73.0626 32.1731 73.0626C31.6309 73.0626 31.1904 72.8644 31.1904 72.6204C31.1904 72.3764 31.6309 72.1782 32.1731 72.1782C32.7152 72.1782 33.1557 72.3764 33.1557 72.6204Z" fill="#2586B7"/>
<path d="M33.1557 72.0291C33.1557 72.2731 32.7152 72.4713 32.1731 72.4713C31.6309 72.4713 31.1904 72.2731 31.1904 72.0291C31.1904 71.7851 31.6309 71.5869 32.1731 71.5869C32.7152 71.5869 33.1557 71.7851 33.1557 72.0291Z" fill="#7ACCF4"/>
<path d="M34.9819 74.3096H33.0149V74.9009H34.9819V74.3096Z" fill="#2586B7"/>
<path d="M34.9819 74.9007C34.9819 75.1447 34.5414 75.3429 33.9993 75.3429C33.4571 75.3429 33.0166 75.1447 33.0166 74.9007C33.0166 74.6567 33.4571 74.4585 33.9993 74.4585C34.5414 74.4585 34.9819 74.6567 34.9819 74.9007Z" fill="#2586B7"/>
<path d="M34.9819 74.3099C34.9819 74.5538 34.5414 74.7521 33.9993 74.7521C33.4571 74.7521 33.0166 74.5538 33.0166 74.3099C33.0166 74.0659 33.4571 73.8677 33.9993 73.8677C34.5414 73.8677 34.9819 74.0659 34.9819 74.3099Z" fill="#7ACCF4"/>
<path d="M36.6862 73.2812H34.7192V73.8725H36.6862V73.2812Z" fill="#2586B7"/>
<path d="M36.6865 73.8724C36.6865 74.1163 36.246 74.3146 35.7038 74.3146C35.1617 74.3146 34.7212 74.1163 34.7212 73.8724C34.7212 73.6284 35.1617 73.4302 35.7038 73.4302C36.246 73.4302 36.6865 73.6284 36.6865 73.8724Z" fill="#2586B7"/>
<path d="M36.6865 73.2816C36.6865 73.5255 36.246 73.7237 35.7038 73.7237C35.1617 73.7237 34.7212 73.5255 34.7212 73.2816C34.7212 73.0376 35.1617 72.8394 35.7038 72.8394C36.246 72.8394 36.6865 73.0376 36.6865 73.2816Z" fill="#7ACCF4"/>
<path d="M44.839 80.2634L41.3743 82.3168V78.0237L44.839 75.9736V80.2634Z" fill="#A82642"/>
<path d="M41.3745 82.317L34.6399 80.1704V75.8755L41.3745 78.0238V82.317Z" fill="#D33346"/>
<path d="M41.3745 78.023L34.6399 75.8747L38.1046 73.8247L44.8392 75.973L41.3745 78.023Z" fill="#E54C66"/>
<path d="M38.1233 75.2852H36.1562V75.8764H38.1233V75.2852Z" fill="#9B1B31"/>
<path d="M38.1216 75.8768C38.1216 76.1207 37.6811 76.319 37.1389 76.319C36.5968 76.319 36.1562 76.1207 36.1562 75.8768C36.1562 75.6328 36.5968 75.4346 37.1389 75.4346C37.6811 75.4346 38.1216 75.6328 38.1216 75.8768Z" fill="#9B1B31"/>
<path d="M38.1216 75.2855C38.1216 75.5294 37.6811 75.7277 37.1389 75.7277C36.5968 75.7277 36.1562 75.5294 36.1562 75.2855C36.1562 75.0415 36.5968 74.8433 37.1389 74.8433C37.6811 74.8433 38.1216 75.0415 38.1216 75.2855Z" fill="#E54C66"/>
<path d="M39.8921 74.1792H37.925V74.7705H39.8921V74.1792Z" fill="#9B1B31"/>
<path d="M39.8918 74.7708C39.8918 75.0148 39.4513 75.213 38.9092 75.213C38.367 75.213 37.9265 75.0148 37.9265 74.7708C37.9265 74.5268 38.367 74.3286 38.9092 74.3286C39.4513 74.3286 39.8918 74.5268 39.8918 74.7708Z" fill="#9B1B31"/>
<path d="M39.8918 74.179C39.8918 74.423 39.4513 74.6212 38.9092 74.6212C38.367 74.6212 37.9265 74.423 37.9265 74.179C37.9265 73.935 38.367 73.7368 38.9092 73.7368C39.4513 73.7368 39.8918 73.935 39.8918 74.179Z" fill="#E54C66"/>
<path d="M41.7168 76.4614H39.7498V77.0527H41.7168V76.4614Z" fill="#9B1B31"/>
<path d="M41.7168 77.0525C41.7168 77.2965 41.2763 77.4947 40.7341 77.4947C40.192 77.4947 39.7515 77.2965 39.7515 77.0525C39.7515 76.8086 40.192 76.6104 40.7341 76.6104C41.2763 76.6104 41.7168 76.8086 41.7168 77.0525Z" fill="#9B1B31"/>
<path d="M41.7168 76.4612C41.7168 76.7052 41.2763 76.9034 40.7341 76.9034C40.192 76.9034 39.7515 76.7052 39.7515 76.4612C39.7515 76.2173 40.192 76.019 40.7341 76.019C41.2763 76.019 41.7168 76.2173 41.7168 76.4612Z" fill="#E54C66"/>
<path d="M43.4211 75.4312H41.4541V76.0224H43.4211V75.4312Z" fill="#9B1B31"/>
<path d="M43.4211 76.0228C43.4211 76.2667 42.9806 76.465 42.4385 76.465C41.8963 76.465 41.4558 76.2667 41.4558 76.0228C41.4558 75.7788 41.8963 75.5806 42.4385 75.5806C42.9806 75.5806 43.4211 75.7788 43.4211 76.0228Z" fill="#9B1B31"/>
<path d="M43.4211 75.431C43.4211 75.6749 42.9806 75.8732 42.4385 75.8732C41.8963 75.8732 41.4558 75.6749 41.4558 75.431C41.4558 75.187 41.8963 74.9888 42.4385 74.9888C42.9806 74.9888 43.4211 75.187 43.4211 75.431Z" fill="#E54C66"/>
<path d="M41.4015 74.8601L37.9368 76.9135V72.6203L41.4015 70.5703V74.8601Z" fill="#A82642"/>
<path d="M37.937 76.9136L31.2024 74.767V70.4722L37.937 72.6205V76.9136Z" fill="#D33346"/>
<path d="M37.937 72.6207L31.2024 70.4724L34.6671 68.4224L41.4017 70.5706L37.937 72.6207Z" fill="#E54C66"/>
<path d="M34.6838 69.8823H32.7168V70.4736H34.6838V69.8823Z" fill="#9B1B31"/>
<path d="M34.6841 70.4739C34.6841 70.7179 34.2436 70.9161 33.7014 70.9161C33.1593 70.9161 32.7188 70.7179 32.7188 70.4739C32.7188 70.23 33.1593 70.0317 33.7014 70.0317C34.2436 70.0317 34.6841 70.23 34.6841 70.4739Z" fill="#9B1B31"/>
<path d="M34.6841 69.8826C34.6841 70.1266 34.2436 70.3248 33.7014 70.3248C33.1593 70.3248 32.7188 70.1266 32.7188 69.8826C32.7188 69.6387 33.1593 69.4404 33.7014 69.4404C34.2436 69.4404 34.6841 69.6387 34.6841 69.8826Z" fill="#E54C66"/>
<path d="M36.4543 68.7764H34.4873V69.3677H36.4543V68.7764Z" fill="#9B1B31"/>
<path d="M36.4546 69.3675C36.4546 69.6115 36.0141 69.8097 35.4719 69.8097C34.9298 69.8097 34.4893 69.6115 34.4893 69.3675C34.4893 69.1235 34.9298 68.9253 35.4719 68.9253C36.0141 68.9253 36.4546 69.1235 36.4546 69.3675Z" fill="#9B1B31"/>
<path d="M36.4546 68.7762C36.4546 69.0201 36.0141 69.2184 35.4719 69.2184C34.9298 69.2184 34.4893 69.0201 34.4893 68.7762C34.4893 68.5322 34.9298 68.334 35.4719 68.334C36.0141 68.334 36.4546 68.5322 36.4546 68.7762Z" fill="#E54C66"/>
<path d="M38.279 71.0566H36.312V71.6479H38.279V71.0566Z" fill="#9B1B31"/>
<path d="M38.279 71.6497C38.279 71.8937 37.8385 72.0919 37.2964 72.0919C36.7542 72.0919 36.3137 71.8937 36.3137 71.6497C36.3137 71.4057 36.7542 71.2075 37.2964 71.2075C37.8385 71.2075 38.279 71.4057 38.279 71.6497Z" fill="#9B1B31"/>
<path d="M38.279 71.0569C38.279 71.3009 37.8385 71.4991 37.2964 71.4991C36.7542 71.4991 36.3137 71.3009 36.3137 71.0569C36.3137 70.813 36.7542 70.6147 37.2964 70.6147C37.8385 70.6147 38.279 70.813 38.279 71.0569Z" fill="#E54C66"/>
<path d="M39.9834 70.0283H38.0164V70.6196H39.9834V70.0283Z" fill="#9B1B31"/>
<path d="M39.9836 70.6194C39.9836 70.8634 39.5431 71.0616 39.001 71.0616C38.4588 71.0616 38.0183 70.8634 38.0183 70.6194C38.0183 70.3755 38.4588 70.1772 39.001 70.1772C39.5431 70.1772 39.9836 70.3755 39.9836 70.6194Z" fill="#9B1B31"/>
<path d="M39.9836 70.0281C39.9836 70.2721 39.5431 70.4703 39.001 70.4703C38.4588 70.4703 38.0183 70.2721 38.0183 70.0281C38.0183 69.7842 38.4588 69.5859 39.001 69.5859C39.5431 69.5859 39.9836 69.7842 39.9836 70.0281Z" fill="#E54C66"/>
<path d="M41.4015 70.6365L37.9368 72.6899V68.3967L41.4015 66.3467V70.6365Z" fill="#CE9411"/>
<path d="M37.937 72.69L31.2024 70.5434V66.2485L37.937 68.3968V72.69Z" fill="#EFBB3A"/>
<path d="M37.937 68.3965L31.2024 66.2483L34.6671 64.1982L41.4017 66.3465L37.937 68.3965Z" fill="#FFD473"/>
<path d="M34.6838 65.6587H32.7168V66.25H34.6838V65.6587Z" fill="#CE9411"/>
<path d="M34.6841 66.2503C34.6841 66.4943 34.2436 66.6925 33.7014 66.6925C33.1593 66.6925 32.7188 66.4943 32.7188 66.2503C32.7188 66.0063 33.1593 65.8081 33.7014 65.8081C34.2436 65.8081 34.6841 66.0063 34.6841 66.2503Z" fill="#CE9411"/>
<path d="M34.6841 65.659C34.6841 65.903 34.2436 66.1012 33.7014 66.1012C33.1593 66.1012 32.7188 65.903 32.7188 65.659C32.7188 65.415 33.1593 65.2168 33.7014 65.2168C34.2436 65.2168 34.6841 65.415 34.6841 65.659Z" fill="#FFD473"/>
<path d="M36.4543 64.5522H34.4873V65.1435H36.4543V64.5522Z" fill="#CE9411"/>
<path d="M36.4546 65.1439C36.4546 65.3878 36.0141 65.586 35.4719 65.586C34.9298 65.586 34.4893 65.3878 34.4893 65.1439C34.4893 64.8999 34.9298 64.7017 35.4719 64.7017C36.0141 64.7017 36.4546 64.8999 36.4546 65.1439Z" fill="#CE9411"/>
<path d="M36.4546 64.5525C36.4546 64.7965 36.0141 64.9947 35.4719 64.9947C34.9298 64.9947 34.4893 64.7965 34.4893 64.5525C34.4893 64.3086 34.9298 64.1104 35.4719 64.1104C36.0141 64.1104 36.4546 64.3086 36.4546 64.5525Z" fill="#FFD473"/>
<path d="M38.279 66.835H36.312V67.4262H38.279V66.835Z" fill="#CE9411"/>
<path d="M38.279 67.4261C38.279 67.6701 37.8385 67.8683 37.2964 67.8683C36.7542 67.8683 36.3137 67.6701 36.3137 67.4261C36.3137 67.1821 36.7542 66.9839 37.2964 66.9839C37.8385 66.9839 38.279 67.1821 38.279 67.4261Z" fill="#CE9411"/>
<path d="M38.279 66.8343C38.279 67.0783 37.8385 67.2765 37.2964 67.2765C36.7542 67.2765 36.3137 67.0783 36.3137 66.8343C36.3137 66.5903 36.7542 66.3921 37.2964 66.3921C37.8385 66.3921 38.279 66.5903 38.279 66.8343Z" fill="#FFD473"/>
<path d="M39.9834 65.8047H38.0164V66.396H39.9834V65.8047Z" fill="#CE9411"/>
<path d="M39.9836 66.3958C39.9836 66.6398 39.5431 66.838 39.001 66.838C38.4588 66.838 38.0183 66.6398 38.0183 66.3958C38.0183 66.1518 38.4588 65.9536 39.001 65.9536C39.5431 65.9536 39.9836 66.1518 39.9836 66.3958Z" fill="#CE9411"/>
<path d="M39.9836 65.8045C39.9836 66.0485 39.5431 66.2467 39.001 66.2467C38.4588 66.2467 38.0183 66.0485 38.0183 65.8045C38.0183 65.5605 38.4588 65.3623 39.001 65.3623C39.5431 65.3623 39.9836 65.5605 39.9836 65.8045Z" fill="#FFD473"/>
<path d="M41.4068 66.3518L37.9421 68.4069V64.112L41.4068 62.062V66.3518Z" fill="#2586B7"/>
<path d="M37.9418 68.4068L31.2073 66.2585V61.9653L37.9418 64.1119V68.4068Z" fill="#53A2D3"/>
<path d="M37.9418 64.1119L31.2073 61.9653L34.672 59.9136L41.4066 62.0619L37.9418 64.1119Z" fill="#7ACCF4"/>
<path d="M34.6889 61.374H32.7219V61.9653H34.6889V61.374Z" fill="#2586B7"/>
<path d="M34.6892 61.9656C34.6892 62.2096 34.2487 62.4078 33.7065 62.4078C33.1644 62.4078 32.7239 62.2096 32.7239 61.9656C32.7239 61.7217 33.1644 61.5234 33.7065 61.5234C34.2487 61.5234 34.6892 61.7217 34.6892 61.9656Z" fill="#2586B7"/>
<path d="M34.6892 61.3743C34.6892 61.6183 34.2487 61.8165 33.7065 61.8165C33.1644 61.8165 32.7239 61.6183 32.7239 61.3743C32.7239 61.1304 33.1644 60.9321 33.7065 60.9321C34.2487 60.9321 34.6892 61.1304 34.6892 61.3743Z" fill="#7ACCF4"/>
<path d="M36.4594 60.2681H34.4924V60.8594H36.4594V60.2681Z" fill="#2586B7"/>
<path d="M36.4577 60.8607C36.4577 61.1046 36.0172 61.3028 35.4751 61.3028C34.9329 61.3028 34.4924 61.1046 34.4924 60.8607C34.4924 60.6167 34.9329 60.4185 35.4751 60.4185C36.0172 60.4185 36.4577 60.6167 36.4577 60.8607Z" fill="#2586B7"/>
<path d="M36.4577 60.2679C36.4577 60.5118 36.0172 60.7101 35.4751 60.7101C34.9329 60.7101 34.4924 60.5118 34.4924 60.2679C34.4924 60.0239 34.9329 59.8257 35.4751 59.8257C36.0172 59.8257 36.4577 60.0239 36.4577 60.2679Z" fill="#7ACCF4"/>
<path d="M38.2844 62.5498H36.3174V63.1411H38.2844V62.5498Z" fill="#2586B7"/>
<path d="M38.2842 63.1409C38.2842 63.3849 37.8437 63.5831 37.3015 63.5831C36.7593 63.5831 36.3188 63.3849 36.3188 63.1409C36.3188 62.897 36.7593 62.6987 37.3015 62.6987C37.8437 62.6987 38.2842 62.897 38.2842 63.1409Z" fill="#2586B7"/>
<path d="M38.2842 62.5501C38.2842 62.7941 37.8437 62.9923 37.3015 62.9923C36.7593 62.9923 36.3188 62.7941 36.3188 62.5501C36.3188 62.3061 36.7593 62.1079 37.3015 62.1079C37.8437 62.1079 38.2842 62.3061 38.2842 62.5501Z" fill="#7ACCF4"/>
<path d="M39.9887 61.52H38.0217V62.1113H39.9887V61.52Z" fill="#2586B7"/>
<path d="M39.9885 62.1131C39.9885 62.3571 39.548 62.5553 39.0058 62.5553C38.4637 62.5553 38.0232 62.3571 38.0232 62.1131C38.0232 61.8691 38.4637 61.6709 39.0058 61.6709C39.548 61.6709 39.9885 61.8691 39.9885 62.1131Z" fill="#2586B7"/>
<path d="M39.9885 61.5198C39.9885 61.7638 39.548 61.962 39.0058 61.962C38.4637 61.962 38.0232 61.7638 38.0232 61.5198C38.0232 61.2759 38.4637 61.0776 39.0058 61.0776C39.548 61.0776 39.9885 61.2759 39.9885 61.5198Z" fill="#7ACCF4"/>
<path d="M41.4169 62.0618L37.9521 64.1169V59.822L41.4169 57.772V62.0618Z" fill="#58871B"/>
<path d="M37.9523 64.1173L31.2178 61.969V57.6758L37.9523 59.8224V64.1173Z" fill="#71AA2E"/>
<path d="M37.9523 59.8223L31.2178 57.6757L34.6825 55.624L41.4171 57.7723L37.9523 59.8223Z" fill="#AADD68"/>
<path d="M34.6992 57.0845H32.7322V57.6758H34.6992V57.0845Z" fill="#58871B"/>
<path d="M34.6992 57.6756C34.6992 57.9196 34.2587 58.1178 33.7165 58.1178C33.1744 58.1178 32.7339 57.9196 32.7339 57.6756C32.7339 57.4316 33.1744 57.2334 33.7165 57.2334C34.2587 57.2334 34.6992 57.4316 34.6992 57.6756Z" fill="#58871B"/>
<path d="M34.6992 57.0843C34.6992 57.3283 34.2587 57.5265 33.7165 57.5265C33.1744 57.5265 32.7339 57.3283 32.7339 57.0843C32.7339 56.8403 33.1744 56.6421 33.7165 56.6421C34.2587 56.6421 34.6992 56.8403 34.6992 57.0843Z" fill="#AADD68"/>
<path d="M36.468 55.978H34.501V56.5693H36.468V55.978Z" fill="#58871B"/>
<path d="M36.468 56.5706C36.468 56.8146 36.0275 57.0128 35.4853 57.0128C34.9432 57.0128 34.5027 56.8146 34.5027 56.5706C34.5027 56.3266 34.9432 56.1284 35.4853 56.1284C36.0275 56.1284 36.468 56.3266 36.468 56.5706Z" fill="#58871B"/>
<path d="M36.468 55.9783C36.468 56.2223 36.0275 56.4205 35.4853 56.4205C34.9432 56.4205 34.5027 56.2223 34.5027 55.9783C34.5027 55.7344 34.9432 55.5361 35.4853 55.5361C36.0275 55.5361 36.468 55.7344 36.468 55.9783Z" fill="#AADD68"/>
<path d="M38.2944 58.2603H36.3274V58.8515H38.2944V58.2603Z" fill="#58871B"/>
<path d="M38.2944 58.8514C38.2944 59.0953 37.8539 59.2936 37.3118 59.2936C36.7696 59.2936 36.3291 59.0953 36.3291 58.8514C36.3291 58.6074 36.7696 58.4092 37.3118 58.4092C37.8539 58.4092 38.2944 58.6074 38.2944 58.8514Z" fill="#58871B"/>
<path d="M38.2944 58.2601C38.2944 58.504 37.8539 58.7023 37.3118 58.7023C36.7696 58.7023 36.3291 58.504 36.3291 58.2601C36.3291 58.0161 36.7696 57.8179 37.3118 57.8179C37.8539 57.8179 38.2944 58.0161 38.2944 58.2601Z" fill="#AADD68"/>
<path d="M39.9987 57.23H38.0317V57.8213H39.9987V57.23Z" fill="#58871B"/>
<path d="M39.9988 57.8231C39.9988 58.067 39.5583 58.2652 39.0161 58.2652C38.4739 58.2652 38.0334 58.067 38.0334 57.8231C38.0334 57.5791 38.4739 57.3809 39.0161 57.3809C39.5583 57.3809 39.9988 57.5791 39.9988 57.8231Z" fill="#58871B"/>
<path d="M39.9988 57.2303C39.9988 57.4743 39.5583 57.6725 39.0161 57.6725C38.4739 57.6725 38.0334 57.4743 38.0334 57.2303C38.0334 56.9863 38.4739 56.7881 39.0161 56.7881C39.5583 56.7881 39.9988 56.9863 39.9988 57.2303Z" fill="#AADD68"/>
<path d="M41.4169 57.7673L37.9521 59.8207V55.5276L41.4169 53.4775V57.7673Z" fill="#E2D7DA"/>
<path d="M37.9523 59.8204L31.2178 57.6738V53.3789L37.9523 55.5272V59.8204Z" fill="#F7EDEF"/>
<path d="M37.9523 55.5274L31.2178 53.3791L34.6825 51.3291L41.4171 53.4774L37.9523 55.5274Z" fill="white"/>
<path d="M34.6992 52.7896H32.7322V53.3808H34.6992V52.7896Z" fill="#E2D7DA"/>
<path d="M34.6992 53.3807C34.6992 53.6246 34.2587 53.8229 33.7165 53.8229C33.1744 53.8229 32.7339 53.6246 32.7339 53.3807C32.7339 53.1367 33.1744 52.9385 33.7165 52.9385C34.2587 52.9385 34.6992 53.1367 34.6992 53.3807Z" fill="#E2D7DA"/>
<path d="M34.6992 52.7894C34.6992 53.0333 34.2587 53.2316 33.7165 53.2316C33.1744 53.2316 32.7339 53.0333 32.7339 52.7894C32.7339 52.5454 33.1744 52.3472 33.7165 52.3472C34.2587 52.3472 34.6992 52.5454 34.6992 52.7894Z" fill="white"/>
<path d="M36.468 51.6831H34.501V52.2744H36.468V51.6831Z" fill="#E2D7DA"/>
<path d="M36.468 52.2747C36.468 52.5187 36.0275 52.7169 35.4853 52.7169C34.9432 52.7169 34.5027 52.5187 34.5027 52.2747C34.5027 52.0307 34.9432 51.8325 35.4853 51.8325C36.0275 51.8325 36.468 52.0307 36.468 52.2747Z" fill="#E2D7DA"/>
<path d="M36.468 51.6834C36.468 51.9274 36.0275 52.1256 35.4853 52.1256C34.9432 52.1256 34.5027 51.9274 34.5027 51.6834C34.5027 51.4394 34.9432 51.2412 35.4853 51.2412C36.0275 51.2412 36.468 51.4394 36.468 51.6834Z" fill="white"/>
<path d="M38.2944 53.9653H36.3274V54.5566H38.2944V53.9653Z" fill="#E2D7DA"/>
<path d="M38.2944 54.5565C38.2944 54.8004 37.8539 54.9986 37.3118 54.9986C36.7696 54.9986 36.3291 54.8004 36.3291 54.5565C36.3291 54.3125 36.7696 54.1143 37.3118 54.1143C37.8539 54.1143 38.2944 54.3125 38.2944 54.5565Z" fill="#E2D7DA"/>
<path d="M38.2944 53.9651C38.2944 54.2091 37.8539 54.4073 37.3118 54.4073C36.7696 54.4073 36.3291 54.2091 36.3291 53.9651C36.3291 53.7212 36.7696 53.5229 37.3118 53.5229C37.8539 53.5229 38.2944 53.7212 38.2944 53.9651Z" fill="white"/>
<path d="M39.9987 52.9351H38.0317V53.5263H39.9987V52.9351Z" fill="#E2D7DA"/>
<path d="M39.9988 53.5267C39.9988 53.7706 39.5583 53.9689 39.0161 53.9689C38.4739 53.9689 38.0334 53.7706 38.0334 53.5267C38.0334 53.2827 38.4739 53.0845 39.0161 53.0845C39.5583 53.0845 39.9988 53.2827 39.9988 53.5267Z" fill="#E2D7DA"/>
<path d="M39.9988 52.9354C39.9988 53.1793 39.5583 53.3776 39.0161 53.3776C38.4739 53.3776 38.0334 53.1793 38.0334 52.9354C38.0334 52.6914 38.4739 52.4932 39.0161 52.4932C39.5583 52.4932 39.9988 52.6914 39.9988 52.9354Z" fill="white"/>
<path d="M41.4169 53.4773L37.9521 55.5307V51.2375L41.4169 49.1875V53.4773Z" fill="#A82642"/>
<path d="M37.9523 55.5308L31.2178 53.3842V49.0894L37.9523 51.2376V55.5308Z" fill="#D33346"/>
<path d="M37.9523 51.2374L31.2178 49.0891L34.6825 47.0391L41.4171 49.1873L37.9523 51.2374Z" fill="#E54C66"/>
<path d="M34.6992 48.4995H32.7322V49.0908H34.6992V48.4995Z" fill="#9B1B31"/>
<path d="M34.6992 49.0911C34.6992 49.3351 34.2587 49.5333 33.7165 49.5333C33.1744 49.5333 32.7339 49.3351 32.7339 49.0911C32.7339 48.8472 33.1744 48.6489 33.7165 48.6489C34.2587 48.6489 34.6992 48.8472 34.6992 49.0911Z" fill="#9B1B31"/>
<path d="M34.6992 48.4998C34.6992 48.7438 34.2587 48.942 33.7165 48.942C33.1744 48.942 32.7339 48.7438 32.7339 48.4998C32.7339 48.2558 33.1744 48.0576 33.7165 48.0576C34.2587 48.0576 34.6992 48.2558 34.6992 48.4998Z" fill="#E54C66"/>
<path d="M36.468 47.3931H34.501V47.9844H36.468V47.3931Z" fill="#9B1B31"/>
<path d="M36.468 47.9847C36.468 48.2286 36.0275 48.4269 35.4853 48.4269C34.9432 48.4269 34.5027 48.2286 34.5027 47.9847C34.5027 47.7407 34.9432 47.5425 35.4853 47.5425C36.0275 47.5425 36.468 47.7407 36.468 47.9847Z" fill="#9B1B31"/>
<path d="M36.468 47.3934C36.468 47.6373 36.0275 47.8356 35.4853 47.8356C34.9432 47.8356 34.5027 47.6373 34.5027 47.3934C34.5027 47.1494 34.9432 46.9512 35.4853 46.9512C36.0275 46.9512 36.468 47.1494 36.468 47.3934Z" fill="#E54C66"/>
<path d="M38.2944 49.6753H36.3274V50.2666H38.2944V49.6753Z" fill="#9B1B31"/>
<path d="M38.2944 50.2669C38.2944 50.5109 37.8539 50.7091 37.3118 50.7091C36.7696 50.7091 36.3291 50.5109 36.3291 50.2669C36.3291 50.0229 36.7696 49.8247 37.3118 49.8247C37.8539 49.8247 38.2944 50.0229 38.2944 50.2669Z" fill="#9B1B31"/>
<path d="M38.2944 49.6756C38.2944 49.9196 37.8539 50.1178 37.3118 50.1178C36.7696 50.1178 36.3291 49.9196 36.3291 49.6756C36.3291 49.4316 36.7696 49.2334 37.3118 49.2334C37.8539 49.2334 38.2944 49.4316 38.2944 49.6756Z" fill="#E54C66"/>
<path d="M39.9987 48.6455H38.0317V49.2368H39.9987V48.6455Z" fill="#9B1B31"/>
<path d="M39.9988 49.2366C39.9988 49.4806 39.5583 49.6788 39.0161 49.6788C38.4739 49.6788 38.0334 49.4806 38.0334 49.2366C38.0334 48.9927 38.4739 48.7944 39.0161 48.7944C39.5583 48.7944 39.9988 48.9927 39.9988 49.2366Z" fill="#9B1B31"/>
<path d="M39.9988 48.6453C39.9988 48.8893 39.5583 49.0875 39.0161 49.0875C38.4739 49.0875 38.0334 48.8893 38.0334 48.6453C38.0334 48.4014 38.4739 48.2031 39.0161 48.2031C39.5583 48.2031 39.9988 48.4014 39.9988 48.6453Z" fill="#E54C66"/>
<path d="M38.3487 48.1965L34.884 50.2499V45.9568L38.3487 43.9067V48.1965Z" fill="#A82642"/>
<path d="M34.8837 50.2501L28.1492 48.1035V43.8086L34.8837 45.9569V50.2501Z" fill="#D33346"/>
<path d="M34.8837 45.9566L28.1492 43.8083L31.6139 41.7583L38.3484 43.9066L34.8837 45.9566Z" fill="#E54C66"/>
<path d="M31.6308 43.2188H29.6638V43.81H31.6308V43.2188Z" fill="#9B1B31"/>
<path d="M31.6308 43.8104C31.6308 44.0543 31.1903 44.2526 30.6482 44.2526C30.106 44.2526 29.6655 44.0543 29.6655 43.8104C29.6655 43.5664 30.106 43.3682 30.6482 43.3682C31.1903 43.3682 31.6308 43.5664 31.6308 43.8104Z" fill="#9B1B31"/>
<path d="M31.6308 43.2186C31.6308 43.4625 31.1903 43.6608 30.6482 43.6608C30.106 43.6608 29.6655 43.4625 29.6655 43.2186C29.6655 42.9746 30.106 42.7764 30.6482 42.7764C31.1903 42.7764 31.6308 42.9746 31.6308 43.2186Z" fill="#E54C66"/>
<path d="M33.3996 42.1123H31.4326V42.7036H33.3996V42.1123Z" fill="#9B1B31"/>
<path d="M33.3999 42.7039C33.3999 42.9479 32.9594 43.1461 32.4172 43.1461C31.8751 43.1461 31.4346 42.9479 31.4346 42.7039C31.4346 42.4599 31.8751 42.2617 32.4172 42.2617C32.9594 42.2617 33.3999 42.4599 33.3999 42.7039Z" fill="#9B1B31"/>
<path d="M33.3999 42.1126C33.3999 42.3566 32.9594 42.5548 32.4172 42.5548C31.8751 42.5548 31.4346 42.3566 31.4346 42.1126C31.4346 41.8686 31.8751 41.6704 32.4172 41.6704C32.9594 41.6704 33.3999 41.8686 33.3999 42.1126Z" fill="#E54C66"/>
<path d="M35.226 44.3945H33.259V44.9858H35.226V44.3945Z" fill="#9B1B31"/>
<path d="M35.2243 44.9857C35.2243 45.2296 34.7838 45.4278 34.2417 45.4278C33.6995 45.4278 33.259 45.2296 33.259 44.9857C33.259 44.7417 33.6995 44.5435 34.2417 44.5435C34.7838 44.5435 35.2243 44.7417 35.2243 44.9857Z" fill="#9B1B31"/>
<path d="M35.2243 44.3943C35.2243 44.6383 34.7838 44.8365 34.2417 44.8365C33.6995 44.8365 33.259 44.6383 33.259 44.3943C33.259 44.1504 33.6995 43.9521 34.2417 43.9521C34.7838 43.9521 35.2243 44.1504 35.2243 44.3943Z" fill="#E54C66"/>
<path d="M36.9304 43.3643H34.9634V43.9555H36.9304V43.3643Z" fill="#9B1B31"/>
<path d="M36.9287 43.9559C36.9287 44.1998 36.4882 44.3981 35.946 44.3981C35.4039 44.3981 34.9634 44.1998 34.9634 43.9559C34.9634 43.7119 35.4039 43.5137 35.946 43.5137C36.4882 43.5137 36.9287 43.7119 36.9287 43.9559Z" fill="#9B1B31"/>
<path d="M36.9287 43.3646C36.9287 43.6085 36.4882 43.8068 35.946 43.8068C35.4039 43.8068 34.9634 43.6085 34.9634 43.3646C34.9634 43.1206 35.4039 42.9224 35.946 42.9224C36.4882 42.9224 36.9287 43.1206 36.9287 43.3646Z" fill="#E54C66"/>
<path d="M45.1087 50.3518L41.644 52.4052V48.112L45.1087 46.062V50.3518Z" fill="#CE9411"/>
<path d="M41.6437 52.4053L34.9075 50.2587V45.9639L41.6437 48.1122V52.4053Z" fill="#EFBB3A"/>
<path d="M41.6437 48.1119L34.9075 45.9636L38.3739 43.9136L45.1084 46.0619L41.6437 48.1119Z" fill="#FFD473"/>
<path d="M38.3908 45.374H36.4238V45.9653H38.3908V45.374Z" fill="#CE9411"/>
<path d="M38.3911 45.9651C38.3911 46.2091 37.9506 46.4073 37.4084 46.4073C36.8663 46.4073 36.4258 46.2091 36.4258 45.9651C36.4258 45.7212 36.8663 45.5229 37.4084 45.5229C37.9506 45.5229 38.3911 45.7212 38.3911 45.9651Z" fill="#CE9411"/>
<path d="M38.3911 45.3738C38.3911 45.6178 37.9506 45.816 37.4084 45.816C36.8663 45.816 36.4258 45.6178 36.4258 45.3738C36.4258 45.1299 36.8663 44.9316 37.4084 44.9316C37.9506 44.9316 38.3911 45.1299 38.3911 45.3738Z" fill="#FFD473"/>
<path d="M40.1599 44.2676H38.1929V44.8589H40.1599V44.2676Z" fill="#CE9411"/>
<path d="M40.1596 44.8592C40.1596 45.1032 39.7191 45.3014 39.177 45.3014C38.6348 45.3014 38.1943 45.1032 38.1943 44.8592C38.1943 44.6152 38.6348 44.417 39.177 44.417C39.7191 44.417 40.1596 44.6152 40.1596 44.8592Z" fill="#CE9411"/>
<path d="M40.1596 44.2674C40.1596 44.5114 39.7191 44.7096 39.177 44.7096C38.6348 44.7096 38.1943 44.5114 38.1943 44.2674C38.1943 44.0234 38.6348 43.8252 39.177 43.8252C39.7191 43.8252 40.1596 44.0234 40.1596 44.2674Z" fill="#FFD473"/>
<path d="M41.9841 46.5493H40.0171V47.1406H41.9841V46.5493Z" fill="#CE9411"/>
<path d="M41.9846 47.1409C41.9846 47.3849 41.5441 47.5831 41.0019 47.5831C40.4598 47.5831 40.0193 47.3849 40.0193 47.1409C40.0193 46.897 40.4598 46.6987 41.0019 46.6987C41.5441 46.6987 41.9846 46.897 41.9846 47.1409Z" fill="#CE9411"/>
<path d="M41.9846 46.5496C41.9846 46.7936 41.5441 46.9918 41.0019 46.9918C40.4598 46.9918 40.0193 46.7936 40.0193 46.5496C40.0193 46.3056 40.4598 46.1074 41.0019 46.1074C41.5441 46.1074 41.9846 46.3056 41.9846 46.5496Z" fill="#FFD473"/>
<path d="M43.6884 45.5195H41.7214V46.1108H43.6884V45.5195Z" fill="#CE9411"/>
<path d="M43.6889 46.1107C43.6889 46.3546 43.2484 46.5528 42.7063 46.5528C42.1641 46.5528 41.7236 46.3546 41.7236 46.1107C41.7236 45.8667 42.1641 45.6685 42.7063 45.6685C43.2484 45.6685 43.6889 45.8667 43.6889 46.1107Z" fill="#CE9411"/>
<path d="M43.6889 45.5193C43.6889 45.7633 43.2484 45.9615 42.7063 45.9615C42.1641 45.9615 41.7236 45.7633 41.7236 45.5193C41.7236 45.2754 42.1641 45.0771 42.7063 45.0771C43.2484 45.0771 43.6889 45.2754 43.6889 45.5193Z" fill="#FFD473"/>
<path d="M51.5755 82.4031L48.1091 84.4565V80.1633L51.5755 78.1133V82.4031Z" fill="#CE9411"/>
<path d="M48.1088 84.4566L41.3743 82.31V78.0151L48.1088 80.1634V84.4566Z" fill="#EFBB3A"/>
<path d="M48.1088 80.1632L41.3743 78.0149L44.839 75.9648L51.5752 78.1131L48.1088 80.1632Z" fill="#FFD473"/>
<path d="M44.8579 77.4253H42.8909V78.0166H44.8579V77.4253Z" fill="#CE9411"/>
<path d="M44.8576 78.0164C44.8576 78.2604 44.4171 78.4586 43.875 78.4586C43.3328 78.4586 42.8923 78.2604 42.8923 78.0164C42.8923 77.7724 43.3328 77.5742 43.875 77.5742C44.4171 77.5742 44.8576 77.7724 44.8576 78.0164Z" fill="#CE9411"/>
<path d="M44.8576 77.4256C44.8576 77.6696 44.4171 77.8678 43.875 77.8678C43.3328 77.8678 42.8923 77.6696 42.8923 77.4256C42.8923 77.1816 43.3328 76.9834 43.875 76.9834C44.4171 76.9834 44.8576 77.1816 44.8576 77.4256Z" fill="#FFD473"/>
<path d="M46.6267 76.3188H44.6597V76.9101H46.6267V76.3188Z" fill="#CE9411"/>
<path d="M46.6264 76.9105C46.6264 77.1544 46.1859 77.3527 45.6438 77.3527C45.1016 77.3527 44.6611 77.1544 44.6611 76.9105C44.6611 76.6665 45.1016 76.4683 45.6438 76.4683C46.1859 76.4683 46.6264 76.6665 46.6264 76.9105Z" fill="#CE9411"/>
<path d="M46.6264 76.3191C46.6264 76.5631 46.1859 76.7613 45.6438 76.7613C45.1016 76.7613 44.6611 76.5631 44.6611 76.3191C44.6611 76.0752 45.1016 75.877 45.6438 75.877C46.1859 75.877 46.6264 76.0752 46.6264 76.3191Z" fill="#FFD473"/>
<path d="M48.4514 78.5996H46.4844V79.1909H48.4514V78.5996Z" fill="#CE9411"/>
<path d="M48.4511 79.1907C48.4511 79.4347 48.0106 79.6329 47.4685 79.6329C46.9263 79.6329 46.4858 79.4347 46.4858 79.1907C46.4858 78.9468 46.9263 78.7485 47.4685 78.7485C48.0106 78.7485 48.4511 78.9468 48.4511 79.1907Z" fill="#CE9411"/>
<path d="M48.4511 78.5994C48.4511 78.8434 48.0106 79.0416 47.4685 79.0416C46.9263 79.0416 46.4858 78.8434 46.4858 78.5994C46.4858 78.3555 46.9263 78.1572 47.4685 78.1572C48.0106 78.1572 48.4511 78.3555 48.4511 78.5994Z" fill="#FFD473"/>
<path d="M50.1557 77.5713H48.1887V78.1626H50.1557V77.5713Z" fill="#CE9411"/>
<path d="M50.1555 78.1619C50.1555 78.4059 49.715 78.6041 49.1728 78.6041C48.6307 78.6041 48.1902 78.4059 48.1902 78.1619C48.1902 77.918 48.6307 77.7197 49.1728 77.7197C49.715 77.7197 50.1555 77.918 50.1555 78.1619Z" fill="#CE9411"/>
<path d="M50.1555 77.5711C50.1555 77.8151 49.715 78.0133 49.1728 78.0133C48.6307 78.0133 48.1902 77.8151 48.1902 77.5711C48.1902 77.3271 48.6307 77.1289 49.1728 77.1289C49.715 77.1289 50.1555 77.3271 50.1555 77.5711Z" fill="#FFD473"/>
<path d="M48.7884 47.3137L45.3237 49.3671V45.0739L48.7884 43.0239V47.3137Z" fill="#2586B7"/>
<path d="M45.3237 49.3668L38.5891 47.2202V42.9253L45.3237 45.0736V49.3668Z" fill="#53A2D3"/>
<path d="M45.3237 45.0738L38.5891 42.9255L42.0538 40.8755L48.7884 43.0238L45.3237 45.0738Z" fill="#7ACCF4"/>
<path d="M42.0705 42.3359H40.1035V42.9272H42.0705V42.3359Z" fill="#2586B7"/>
<path d="M42.071 42.9275C42.071 43.1715 41.6305 43.3697 41.0884 43.3697C40.5462 43.3697 40.1057 43.1715 40.1057 42.9275C40.1057 42.6836 40.5462 42.4854 41.0884 42.4854C41.6305 42.4854 42.071 42.6836 42.071 42.9275Z" fill="#2586B7"/>
<path d="M42.071 42.3362C42.071 42.5802 41.6305 42.7784 41.0884 42.7784C40.5462 42.7784 40.1057 42.5802 40.1057 42.3362C40.1057 42.0923 40.5462 41.894 41.0884 41.894C41.6305 41.894 42.071 42.0923 42.071 42.3362Z" fill="#7ACCF4"/>
<path d="M43.841 41.2295H41.874V41.8208H43.841V41.2295Z" fill="#2586B7"/>
<path d="M43.8393 41.8211C43.8393 42.0651 43.3988 42.2633 42.8567 42.2633C42.3145 42.2633 41.874 42.0651 41.874 41.8211C41.874 41.5771 42.3145 41.3789 42.8567 41.3789C43.3988 41.3789 43.8393 41.5771 43.8393 41.8211Z" fill="#2586B7"/>
<path d="M43.8393 41.2298C43.8393 41.4738 43.3988 41.672 42.8567 41.672C42.3145 41.672 41.874 41.4738 41.874 41.2298C41.874 40.9858 42.3145 40.7876 42.8567 40.7876C43.3988 40.7876 43.8393 40.9858 43.8393 41.2298Z" fill="#7ACCF4"/>
<path d="M45.666 43.5122H43.699V44.1035H45.666V43.5122Z" fill="#2586B7"/>
<path d="M45.6657 44.1033C45.6657 44.3473 45.2252 44.5455 44.6831 44.5455C44.1409 44.5455 43.7004 44.3473 43.7004 44.1033C43.7004 43.8594 44.1409 43.6611 44.6831 43.6611C45.2252 43.6611 45.6657 43.8594 45.6657 44.1033Z" fill="#2586B7"/>
<path d="M45.6657 43.5115C45.6657 43.7555 45.2252 43.9537 44.6831 43.9537C44.1409 43.9537 43.7004 43.7555 43.7004 43.5115C43.7004 43.2676 44.1409 43.0693 44.6831 43.0693C45.2252 43.0693 45.6657 43.2676 45.6657 43.5115Z" fill="#7ACCF4"/>
<path d="M47.3706 42.4814H45.4036V43.0727H47.3706V42.4814Z" fill="#2586B7"/>
<path d="M47.3703 43.0731C47.3703 43.317 46.9298 43.5152 46.3877 43.5152C45.8455 43.5152 45.405 43.317 45.405 43.0731C45.405 42.8291 45.8455 42.6309 46.3877 42.6309C46.9298 42.6309 47.3703 42.8291 47.3703 43.0731Z" fill="#2586B7"/>
<path d="M47.3703 42.4822C47.3703 42.7262 46.9298 42.9244 46.3877 42.9244C45.8455 42.9244 45.405 42.7262 45.405 42.4822C45.405 42.2383 45.8455 42.04 46.3877 42.04C46.9298 42.04 47.3703 42.2383 47.3703 42.4822Z" fill="#7ACCF4"/>
<path d="M53.0563 44.364L49.5916 46.4174V42.1242L53.0563 40.0742V44.364Z" fill="#A82642"/>
<path d="M49.5915 46.4175L42.8569 44.271V39.9761L49.5915 42.1244V46.4175Z" fill="#D33346"/>
<path d="M49.5915 42.1246L42.8569 39.9763L46.3216 37.9263L53.0562 40.0746L49.5915 42.1246Z" fill="#E54C66"/>
<path d="M46.3386 39.3867H44.3716V39.978H46.3386V39.3867Z" fill="#9B1B31"/>
<path d="M46.3384 39.9778C46.3384 40.2218 45.8979 40.42 45.3557 40.42C44.8135 40.42 44.373 40.2218 44.373 39.9778C44.373 39.7339 44.8135 39.5356 45.3557 39.5356C45.8979 39.5356 46.3384 39.7339 46.3384 39.9778Z" fill="#9B1B31"/>
<path d="M46.3384 39.3865C46.3384 39.6305 45.8979 39.8287 45.3557 39.8287C44.8135 39.8287 44.373 39.6305 44.373 39.3865C44.373 39.1426 44.8135 38.9443 45.3557 38.9443C45.8979 38.9443 46.3384 39.1426 46.3384 39.3865Z" fill="#E54C66"/>
<path d="M48.1091 38.2798H46.1421V38.8711H48.1091V38.2798Z" fill="#9B1B31"/>
<path d="M48.1074 38.8714C48.1074 39.1154 47.6669 39.3136 47.1247 39.3136C46.5826 39.3136 46.1421 39.1154 46.1421 38.8714C46.1421 38.6274 46.5826 38.4292 47.1247 38.4292C47.6669 38.4292 48.1074 38.6274 48.1074 38.8714Z" fill="#9B1B31"/>
<path d="M48.1074 38.2801C48.1074 38.5241 47.6669 38.7223 47.1247 38.7223C46.5826 38.7223 46.1421 38.5241 46.1421 38.2801C46.1421 38.0361 46.5826 37.8379 47.1247 37.8379C47.6669 37.8379 48.1074 38.0361 48.1074 38.2801Z" fill="#E54C66"/>
<path d="M49.9338 40.5605H47.9668V41.1518H49.9338V40.5605Z" fill="#9B1B31"/>
<path d="M49.9336 41.1517C49.9336 41.3956 49.4931 41.5939 48.9509 41.5939C48.4088 41.5939 47.9683 41.3956 47.9683 41.1517C47.9683 40.9077 48.4088 40.7095 48.9509 40.7095C49.4931 40.7095 49.9336 40.9077 49.9336 41.1517Z" fill="#9B1B31"/>
<path d="M49.9336 40.5604C49.9336 40.8043 49.4931 41.0026 48.9509 41.0026C48.4088 41.0026 47.9683 40.8043 47.9683 40.5604C47.9683 40.3164 48.4088 40.1182 48.9509 40.1182C49.4931 40.1182 49.9336 40.3164 49.9336 40.5604Z" fill="#E54C66"/>
<path d="M51.6381 39.5322H49.6711V40.1235H51.6381V39.5322Z" fill="#9B1B31"/>
<path d="M51.6379 40.1233C51.6379 40.3673 51.1974 40.5655 50.6553 40.5655C50.1131 40.5655 49.6726 40.3673 49.6726 40.1233C49.6726 39.8794 50.1131 39.6812 50.6553 39.6812C51.1974 39.6812 51.6379 39.8794 51.6379 40.1233Z" fill="#9B1B31"/>
<path d="M51.6379 39.5325C51.6379 39.7765 51.1974 39.9747 50.6553 39.9747C50.1131 39.9747 49.6726 39.7765 49.6726 39.5325C49.6726 39.2886 50.1131 39.0903 50.6553 39.0903C51.1974 39.0903 51.6379 39.2886 51.6379 39.5325Z" fill="#E54C66"/>
<path d="M24.8203 75.1005L20.8945 77.4271V72.5626L24.8203 70.2397V75.1005Z" fill="#CE9411"/>
<path d="M20.8945 77.4272L13.2637 74.9949V70.1284L20.8945 72.5626V77.4272Z" fill="#EFBB3A"/>
<path d="M20.8945 72.5627L13.2637 70.1285L17.1895 67.8057L24.8203 70.2399L20.8945 72.5627Z" fill="#FFD473"/>
<path d="M17.2088 69.46H14.98V70.1299H17.2088V69.46Z" fill="#CE9411"/>
<path d="M17.2086 70.1304C17.2086 70.4069 16.7094 70.6315 16.0951 70.6315C15.4808 70.6315 14.9817 70.4069 14.9817 70.1304C14.9817 69.854 15.4808 69.6294 16.0951 69.6294C16.7094 69.6294 17.2086 69.854 17.2086 70.1304Z" fill="#CE9411"/>
<path d="M17.2086 69.46C17.2086 69.7365 16.7094 69.9611 16.0951 69.9611C15.4808 69.9611 14.9817 69.7365 14.9817 69.46C14.9817 69.1836 15.4808 68.959 16.0951 68.959C16.7094 68.959 17.2086 69.1836 17.2086 69.46Z" fill="#FFD473"/>
<path d="M19.2149 68.2065H16.9861V68.8765H19.2149V68.2065Z" fill="#CE9411"/>
<path d="M19.2129 68.8765C19.2129 69.153 18.7138 69.3776 18.0995 69.3776C17.4852 69.3776 16.9861 69.153 16.9861 68.8765C16.9861 68.6001 17.4852 68.3755 18.0995 68.3755C18.7138 68.3755 19.2129 68.6001 19.2129 68.8765Z" fill="#CE9411"/>
<path d="M19.2129 68.2066C19.2129 68.483 18.7138 68.7077 18.0995 68.7077C17.4852 68.7077 16.9861 68.483 16.9861 68.2066C16.9861 67.9302 17.4852 67.7056 18.0995 67.7056C18.7138 67.7056 19.2129 67.9302 19.2129 68.2066Z" fill="#FFD473"/>
<path d="M21.2823 70.7905H19.0535V71.4605H21.2823V70.7905Z" fill="#CE9411"/>
<path d="M21.2823 71.4605C21.2823 71.737 20.7832 71.9616 20.1689 71.9616C19.5545 71.9616 19.0554 71.737 19.0554 71.4605C19.0554 71.1841 19.5545 70.9595 20.1689 70.9595C20.7832 70.9595 21.2823 71.1841 21.2823 71.4605Z" fill="#CE9411"/>
<path d="M21.2823 70.7906C21.2823 71.067 20.7832 71.2916 20.1689 71.2916C19.5545 71.2916 19.0554 71.067 19.0554 70.7906C19.0554 70.5142 19.5545 70.2896 20.1689 70.2896C20.7832 70.2896 21.2823 70.5142 21.2823 70.7906Z" fill="#FFD473"/>
<path d="M23.2136 69.6255H20.9849V70.2955H23.2136V69.6255Z" fill="#CE9411"/>
<path d="M23.2134 70.2955C23.2134 70.5719 22.7143 70.7965 22.1 70.7965C21.4857 70.7965 20.9866 70.5719 20.9866 70.2955C20.9866 70.019 21.4857 69.7944 22.1 69.7944C22.7143 69.7944 23.2134 70.019 23.2134 70.2955Z" fill="#CE9411"/>
<path d="M23.2134 69.6251C23.2134 69.9015 22.7143 70.1261 22.1 70.1261C21.4857 70.1261 20.9866 69.9015 20.9866 69.6251C20.9866 69.3486 21.4857 69.124 22.1 69.124C22.7143 69.124 23.2134 69.3486 23.2134 69.6251Z" fill="#FFD473"/>
<path d="M88.9131 82.6879L84.9873 85.0145V80.15L88.9131 77.8271V82.6879Z" fill="#A82642"/>
<path d="M84.9873 85.0146L77.3564 82.5823V77.7158L84.9873 80.15V85.0146Z" fill="#D33346"/>
<path d="M84.9873 80.1496L77.3564 77.7154L81.2823 75.3926L88.9131 77.8268L84.9873 80.1496Z" fill="#E54C66"/>
<path d="M81.3015 77.0474H79.0728V77.7173H81.3015V77.0474Z" fill="#9B1B31"/>
<path d="M81.3016 77.7174C81.3016 77.9938 80.8024 78.2184 80.1881 78.2184C79.5738 78.2184 79.0747 77.9938 79.0747 77.7174C79.0747 77.4409 79.5738 77.2163 80.1881 77.2163C80.8024 77.2163 81.3016 77.4409 81.3016 77.7174Z" fill="#9B1B31"/>
<path d="M81.3016 77.0474C81.3016 77.3239 80.8024 77.5485 80.1881 77.5485C79.5738 77.5485 79.0747 77.3239 79.0747 77.0474C79.0747 76.771 79.5738 76.5464 80.1881 76.5464C80.8024 76.5464 81.3016 76.771 81.3016 77.0474Z" fill="#E54C66"/>
<path d="M83.3076 75.7939H81.0789V76.4639H83.3076V75.7939Z" fill="#9B1B31"/>
<path d="M83.3057 76.4639C83.3057 76.7404 82.8066 76.965 82.1923 76.965C81.578 76.965 81.0789 76.7404 81.0789 76.4639C81.0789 76.1875 81.578 75.9629 82.1923 75.9629C82.8066 75.9629 83.3057 76.1875 83.3057 76.4639Z" fill="#9B1B31"/>
<path d="M83.3057 75.794C83.3057 76.0705 82.8066 76.2951 82.1923 76.2951C81.578 76.2951 81.0789 76.0705 81.0789 75.794C81.0789 75.5176 81.578 75.293 82.1923 75.293C82.8066 75.293 83.3057 75.5176 83.3057 75.794Z" fill="#E54C66"/>
<path d="M85.375 78.3779H83.1462V79.0479H85.375V78.3779Z" fill="#9B1B31"/>
<path d="M85.3751 79.0479C85.3751 79.3244 84.8759 79.549 84.2616 79.549C83.6473 79.549 83.1482 79.3244 83.1482 79.0479C83.1482 78.7715 83.6473 78.5469 84.2616 78.5469C84.8759 78.5469 85.3751 78.7715 85.3751 79.0479Z" fill="#9B1B31"/>
<path d="M85.3751 78.378C85.3751 78.6544 84.8759 78.879 84.2616 78.879C83.6473 78.879 83.1482 78.6544 83.1482 78.378C83.1482 78.1016 83.6473 77.877 84.2616 77.877C84.8759 77.877 85.3751 78.1016 85.3751 78.378Z" fill="#E54C66"/>
<path d="M87.3064 77.2129H85.0776V77.8829H87.3064V77.2129Z" fill="#9B1B31"/>
<path d="M87.3065 77.8829C87.3065 78.1593 86.8073 78.3839 86.193 78.3839C85.5787 78.3839 85.0796 78.1593 85.0796 77.8829C85.0796 77.6064 85.5787 77.3818 86.193 77.3818C86.8073 77.3818 87.3065 77.6064 87.3065 77.8829Z" fill="#9B1B31"/>
<path d="M87.3065 77.2125C87.3065 77.4889 86.8073 77.7135 86.193 77.7135C85.5787 77.7135 85.0796 77.4889 85.0796 77.2125C85.0796 76.936 85.5787 76.7114 86.193 76.7114C86.8073 76.7114 87.3065 76.936 87.3065 77.2125Z" fill="#E54C66"/>
<path d="M18.0669 88.5975L21.9927 90.9242V86.0597L18.0669 83.7368V88.5975Z" fill="#53A2D3"/>
<path d="M21.9927 90.9242L29.6235 88.492V83.6255L21.9927 86.0597V90.9242Z" fill="#2586B7"/>
<path d="M21.9927 86.0593L29.6236 83.6251L25.6977 81.3022L18.0669 83.7364L21.9927 86.0593Z" fill="#7ACCF4"/>
<path d="M27.9073 82.957H25.6785V83.627H27.9073V82.957Z" fill="#2586B7"/>
<path d="M25.6785 83.627C25.6785 83.9035 26.1776 84.1281 26.7919 84.1281C27.4062 84.1281 27.9053 83.9035 27.9053 83.627C27.9053 83.3506 27.4062 83.126 26.7919 83.126C26.1776 83.126 25.6785 83.3506 25.6785 83.627Z" fill="#2586B7"/>
<path d="M25.6785 82.9571C25.6785 83.2335 26.1776 83.4581 26.7919 83.4581C27.4062 83.4581 27.9053 83.2335 27.9053 82.9571C27.9053 82.6807 27.4062 82.4561 26.7919 82.4561C26.1776 82.4561 25.6785 82.6807 25.6785 82.9571Z" fill="#7ACCF4"/>
<path d="M25.9031 81.7036H23.6743V82.3736H25.9031V81.7036Z" fill="#2586B7"/>
<path d="M23.6743 82.3736C23.6743 82.65 24.1734 82.8746 24.7877 82.8746C25.4021 82.8746 25.9012 82.65 25.9012 82.3736C25.9012 82.0972 25.4021 81.8726 24.7877 81.8726C24.1734 81.8726 23.6743 82.0972 23.6743 82.3736Z" fill="#2586B7"/>
<path d="M23.6743 81.7037C23.6743 81.9801 24.1734 82.2047 24.7877 82.2047C25.4021 82.2047 25.9012 81.9801 25.9012 81.7037C25.9012 81.4272 25.4021 81.2026 24.7877 81.2026C24.1734 81.2026 23.6743 81.4272 23.6743 81.7037Z" fill="#7ACCF4"/>
<path d="M23.8338 84.2876H21.605V84.9576H23.8338V84.2876Z" fill="#2586B7"/>
<path d="M21.605 84.9576C21.605 85.234 22.1041 85.4586 22.7184 85.4586C23.3327 85.4586 23.8318 85.234 23.8318 84.9576C23.8318 84.6811 23.3327 84.4565 22.7184 84.4565C22.1041 84.4565 21.605 84.6811 21.605 84.9576Z" fill="#2586B7"/>
<path d="M21.605 84.2877C21.605 84.5641 22.1041 84.7887 22.7184 84.7887C23.3327 84.7887 23.8318 84.5641 23.8318 84.2877C23.8318 84.0112 23.3327 83.7866 22.7184 83.7866C22.1041 83.7866 21.605 84.0112 21.605 84.2877Z" fill="#7ACCF4"/>
<path d="M21.9024 83.1221H19.6736V83.792H21.9024V83.1221Z" fill="#2586B7"/>
<path d="M19.6736 83.7921C19.6736 84.0685 20.1727 84.2931 20.787 84.2931C21.4013 84.2931 21.9004 84.0685 21.9004 83.7921C21.9004 83.5156 21.4013 83.291 20.787 83.291C20.1727 83.291 19.6736 83.5156 19.6736 83.7921Z" fill="#2586B7"/>
<path d="M19.6736 83.1221C19.6736 83.3986 20.1727 83.6232 20.787 83.6232C21.4013 83.6232 21.9004 83.3986 21.9004 83.1221C21.9004 82.8457 21.4013 82.6211 20.787 82.6211C20.1727 82.6211 19.6736 82.8457 19.6736 83.1221Z" fill="#7ACCF4"/>
<defs>
<clipPath id="clip0_1135_31344">
<rect width="76" height="54" fill="white" transform="translate(14.9131 38.9858)"/>
</clipPath>
</defs>
</svg>
