<svg width="102" height="144" viewBox="0 0 102 144" fill="none" xmlns="http://www.w3.org/2000/svg">
<path d="M51.3986 119.285C30.8519 119.285 12.4164 106.232 5.5477 86.8148C3.67441 81.522 2.7229 76.0805 2.7229 70.6093C2.7229 65.1382 3.61494 60.0238 5.36929 54.8797L5.51796 54.4634C12.3867 35.0764 30.8222 21.9634 51.3986 21.9634C56.7508 21.9634 62.0734 22.8852 67.2472 24.6692C70.9343 25.9478 74.5322 27.7022 77.8922 29.8728C91.7783 38.9122 100.045 54.1363 100.045 70.6093C100.045 72.1258 99.9553 73.7017 99.8067 75.3669C97.3684 100.404 76.5542 119.285 51.3689 119.285H51.3986Z" fill="#181C36"/>
<path d="M51.3985 116.757C31.9223 116.757 14.4383 104.388 7.92637 85.9821C6.14228 80.9569 5.25024 75.7831 5.25024 70.6092C5.25024 65.4354 6.08282 60.5886 7.74796 55.7122L7.8669 55.3851C14.4085 36.8901 31.8925 24.4907 51.3985 24.4907C56.4831 24.4907 61.538 25.353 66.4442 27.0479C69.9529 28.267 73.3427 29.9322 76.5243 31.9839C89.667 40.5475 97.5467 54.9688 97.5467 70.6092C97.5467 72.0662 97.4575 73.553 97.3089 75.0992C95.0193 98.8275 75.2754 116.728 51.3985 116.728V116.757Z" fill="#3D4787"/>
<path d="M75.1559 34.1253C72.2122 32.1925 69.0008 30.6166 65.6408 29.4569C61.1806 27.9107 56.4231 27.0484 51.4276 27.0484C32.3974 27.0187 16.2812 39.2099 10.3045 56.1884C10.2748 56.3073 10.2153 56.4263 10.1559 56.5452C8.63941 60.9757 7.7771 65.7035 7.7771 70.6395C7.7771 75.5754 8.69887 80.6006 10.3045 85.15C16.2812 102.069 32.3974 114.231 51.3682 114.231C74.026 114.231 92.6102 96.9547 94.7511 74.8915C94.8998 73.494 94.9592 72.0667 94.9592 70.6395C94.9592 55.3261 87.0498 41.886 75.0965 34.1253H75.1559Z" fill="#2A3069"/>
<path d="M39 54.0002C39 54.5002 39.1 54.9002 39.2 55.3002C39.2 55.5002 39.3 55.6002 39.3 55.8002C39.3 56.0002 39.4 56.1002 39.4 56.3002C39.6 56.9002 39.8 57.5002 40.1 58.1002C40.2 58.4002 40.4 58.7002 40.5 58.9002C40.6 59.0002 40.6 59.2002 40.7 59.3002C40.8 59.5002 40.9 59.6002 41 59.8002C43.4 63.7002 47.7 66.2002 52.6 66.2002C56.4 66.2002 59.8 64.7002 62.2 62.2002C64.7 59.7002 66.2 56.3002 66.2 52.6002C66.2 48.8002 64.6 45.3002 62.1 42.8002C61.9 42.6002 61.6 42.4002 61.4 42.2002C61.3 42.2002 61.3 42.1002 61.2 42.1002C60.9 41.9002 60.6 41.6002 60.3 41.4002C60.2 41.4002 60.2 41.3002 60.1 41.3002C60 41.2002 59.7 41.0002 59.4 40.8002C58.9 40.5002 58.4 40.2002 57.9 40.0002C57.8 40.0002 57.7 39.9002 57.5 39.9002C56.8 39.6002 56.1 39.4002 55.3 39.2002C54 39.0002 52.6 38.9002 51.2 39.1002C51.1 39.1002 50.9 39.1002 50.8 39.2002C50.5 39.2002 50.2 39.3002 49.9 39.3002C49.6 39.3002 49.4 39.4002 49.2 39.5002C49 39.5002 48.8 39.6002 48.7 39.6002C48.4 39.7002 48.2 39.8002 47.9 39.9002C47.7 39.9002 47.6 40.0002 47.4 40.0002C47.1 40.1002 46.9 40.2002 46.7 40.3002C46.5 40.4002 46.4 40.4002 46.2 40.5002C46 40.6002 45.8 40.7002 45.6 40.9002C45.4 41.0002 45.2 41.1002 45.1 41.2002C44.9 41.3002 44.8 41.4002 44.6 41.5002C44.4 41.6002 44.2 41.8002 44 42.0002C43.9 42.1002 43.8 42.2002 43.6 42.3002C43.4 42.5002 43.2 42.7002 43 42.9002C42.9 43.0002 42.8 43.1002 42.7 43.2002C42.5 43.4002 42.3 43.6002 42.1 43.9002C42 44.0002 41.9 44.2002 41.8 44.3002C41.6 44.5002 41.5 44.7002 41.3 45.0002C41.1 45.2002 41 45.5002 40.9 45.7002C40.8 45.8002 40.7 46.0002 40.7 46.1002C40.4 46.7002 40.1 47.3002 39.9 47.9002C39.8 48.1002 39.7 48.3002 39.7 48.5002C39.6 48.7002 39.6 48.8002 39.6 49.0002C39.5 49.2002 39.5 49.5002 39.4 49.7002C39.4 49.8002 39.3 50.0002 39.3 50.1002C39.2 50.4002 39.2 50.7002 39.2 51.0002C39.2 51.1002 39.2 51.3002 39.2 51.4002C39.2 51.7002 39.2 52.1002 39.1 52.4002C39.1 52.5002 39.1 52.5002 39.1 52.6002V52.7002C39 53.1002 39 53.6002 39 54.0002Z" fill="black"/>
<path d="M54 73.7C54 73.6 54 73.6 54 73.7C54 73.6 54 73.6 54 73.6C54 73.6 53.9 73.5 53.9 73.4C53.9 73.4 53.9 73.4 53.9 73.3C53.8 73.2 53.8001 73.2 53.7001 73.1C53.7001 73.1 53.7 73.1 53.6 73C53.5 72.9 53.4001 72.8 53.2001 72.7C52.3001 72.1 50.8 71.2 48.8 70.6C48.7 70.6 48.6 70.6 48.5 70.5C48.2 70.4 47.8 70.3 47.5 70.3C47.3 70.3 47.2 70.2 47 70.2C46.6 70.1 46.2 70.1 45.9 70.1C45.8 70.1 45.7 70.1 45.6 70.1C43.1 69.9 40.3 70.3 37.1 71.7C32.6 73.7 29.8 76.7 28.2 79.7C27.9 80.3 27.6 80.8 27.3 81.5C26.9 82.4 26.7 83.3 26.5 84.1C26.5 84.2 26.5 84.2 26.5 84.3C26.5 84.4 26.5 84.5 26.5 84.5C26.4 84.8 26.4 85.1 26.4 85.4C26.4 85.7 26.4 85.9 26.3 86.2C26.3 86.3 26.3 86.3 26.3 86.4C26.3 86.9 26.3 87.3 26.4 87.6V87.7C26.4 87.8 26.5 87.9 26.5 87.9C26.5 87.9 26.5 88 26.6 88C27 88.6 29 90.1 32.2 90.8C32.6 90.9 33 91 33.5 91H33.6C34 91.1 34.5 91.1 35 91.1C37.6 91.2 40.7 90.6 44.1 88.9C47.8001 87 50.2 84.5 51.8 82.1C52.1 81.6 52.4 81.1 52.6 80.6C52.6 80.5 52.7001 80.5 52.7001 80.4C52.8001 80.2 52.9 80 52.9 79.9C52.9 79.8 53 79.8 53 79.7C53.1 79.5 53.2001 79.3 53.2001 79.1V79C54.0001 76.4 54.1 74.3 54 73.7Z" fill="black"/>
<path d="M84.8001 75.5003C84.8001 75.4003 84.7001 75.3003 84.7001 75.2003C84.6001 75.0003 84.5001 74.8003 84.4001 74.6003C84.4001 74.5003 84.4001 74.5003 84.3001 74.4003C83.7001 73.1003 82.9001 71.9003 81.9001 70.8003C81.8001 70.7003 81.7001 70.6003 81.6001 70.5003C81.6001 70.4003 81.5001 70.4003 81.5001 70.3003C81.4001 70.2003 81.4001 70.2003 81.3001 70.1003C81.1001 69.9003 80.9001 69.7003 80.6001 69.5003C80.5001 69.4003 80.3001 69.3003 80.2001 69.2003C80.0001 69.0003 79.8001 68.9003 79.6001 68.8003C79.4001 68.7003 79.3001 68.6003 79.1001 68.5003C78.9001 68.4003 78.8001 68.3003 78.6001 68.2003C78.4001 68.1003 78.2001 67.9003 77.9001 67.8003C77.9001 67.8003 77.8001 67.8003 77.8001 67.7003C77.7001 67.7003 77.6001 67.6003 77.5001 67.6003C77.2001 67.5003 76.9001 67.3003 76.7001 67.2003C76.5001 67.1003 76.4001 67.1003 76.2001 67.0003C76.0001 66.9003 75.7001 66.8003 75.5001 66.8003C75.3001 66.7003 75.1001 66.7003 74.9001 66.7003C74.8001 66.7003 74.7001 66.7003 74.6001 66.6003C74.5001 66.6003 74.3001 66.5003 74.2001 66.5003C74.1001 66.5003 74.0001 66.5003 73.8001 66.4003H73.7001C73.6001 66.4003 73.5001 66.4003 73.4001 66.4003C73.2001 66.4003 73.0001 66.4003 72.9001 66.3003C72.6001 66.3003 72.4001 66.3003 72.1001 66.3003C71.9001 66.3003 71.7001 66.3003 71.6001 66.3003C71.3001 66.3003 71.1001 66.3003 70.9001 66.3003C70.7001 66.3003 70.5001 66.3003 70.3001 66.4003C70.1001 66.4003 69.9001 66.5003 69.6001 66.5003C69.4001 66.5003 69.2001 66.6003 68.9001 66.6003C68.7001 66.6003 68.5001 66.7003 68.3001 66.7003C68.1001 66.8003 67.8001 66.8003 67.6001 66.9003C67.4001 67.0003 67.3001 67.0003 67.1001 67.1003C66.9001 67.2003 66.6001 67.3003 66.4001 67.4003C66.2001 67.5003 66.1001 67.6003 65.9001 67.6003C65.7001 67.7003 65.5001 67.8003 65.2001 67.9003C65.0001 68.0003 64.8001 68.1003 64.7001 68.2003C64.5001 68.3003 64.3001 68.4003 64.1001 68.6003C63.9001 68.7003 63.7001 68.9003 63.5001 69.1003C63.4001 69.2003 63.2001 69.3003 63.1001 69.4003L63.0001 69.5003C63.0001 69.5003 63.0001 69.5003 62.9001 69.6003C62.7001 69.7003 62.6001 69.9003 62.4001 70.0003C62.3001 70.1003 62.2001 70.1003 62.2001 70.2003C62.2001 70.2003 62.2001 70.3003 62.1001 70.3003C61.9001 70.5003 61.7001 70.7003 61.5001 71.0003C61.4001 71.1003 61.3001 71.2003 61.2001 71.4003C61.0001 71.6003 60.9001 71.8003 60.8001 72.0003C60.7001 72.2003 60.5001 72.4003 60.4001 72.6003C60.3001 72.7003 60.2001 72.9003 60.1001 73.1003C60.0001 73.4003 59.8001 73.6003 59.7001 73.9003C59.7001 73.9003 59.7001 74.0003 59.6001 74.0003C59.5001 74.2003 59.5001 74.3003 59.4001 74.5003C59.3001 74.7003 59.2001 74.9003 59.1001 75.1003C59.1001 75.2003 59.1001 75.2003 59.0001 75.3003C58.9001 75.5003 58.9001 75.7003 58.8001 75.8003C58.8001 75.9003 58.7001 76.0003 58.7001 76.0003C58.7001 76.1003 58.6001 76.1003 58.6001 76.2003C58.5001 76.6003 58.4001 77.0003 58.3001 77.4003C58.3001 77.5003 58.3001 77.5003 58.3001 77.6003C58.2001 78.0003 58.2001 78.3003 58.1001 78.7003C58.1001 78.8003 58.1001 78.9003 58.1001 79.0003C58.1001 79.3003 58.1001 79.6003 58.1001 79.9003C58.1001 80.0003 58.1001 80.1003 58.1001 80.3003C58.1001 80.6003 58.1001 80.8003 58.1001 81.1003C58.1001 81.2003 58.1001 81.2003 58.1001 81.3003C58.1001 81.4003 58.1001 81.5003 58.1001 81.6003C58.1001 81.7003 58.1001 81.8003 58.1001 82.0003V82.1003C58.1001 82.2003 58.1001 82.3003 58.2001 82.4003C58.2001 82.6003 58.3001 82.7003 58.3001 82.9003V83.0003C58.8001 85.5003 60.1001 87.8003 62.0001 89.8003C62.1001 89.9003 62.2001 89.9003 62.2001 90.0003C62.5001 90.3003 62.8001 90.6003 63.1001 90.8003L63.2001 90.9003C66.7001 93.6003 71.2001 94.4003 75.3001 93.2003C75.6001 93.1003 75.8001 93.0003 76.1001 92.9003C76.2001 92.9003 76.3001 92.8003 76.4001 92.8003C78.1001 92.1003 79.7001 91.1003 81.1001 89.7003C82.2001 88.6003 83.1001 87.3003 83.8001 85.9003C83.9001 85.7003 84.0001 85.5003 84.0001 85.4003C85.8001 82.2003 85.9001 78.7003 84.8001 75.5003Z" fill="black"/>
<path d="M50.5931 64.2805C58.1271 64.2805 64.2346 58.173 64.2346 50.639C64.2346 43.1051 58.1271 36.9976 50.5931 36.9976C43.0592 36.9976 36.9517 43.1051 36.9517 50.639C36.9517 58.173 43.0592 64.2805 50.5931 64.2805Z" fill="#CBC8BD"/>
<path d="M60.0995 40.8507C58.9249 39.7098 57.5249 38.7618 55.9271 38.0833C48.9928 35.1373 40.9838 38.3705 38.0378 45.3047C36.7811 48.2623 36.6494 51.4156 37.4491 54.2877C38.6237 55.4286 40.0236 56.3766 41.6215 57.0551C48.5557 60.0011 56.5648 56.768 59.5108 49.8337C60.7675 46.8761 60.8992 43.7229 60.0995 40.8507Z" fill="#E3E5D7"/>
<path d="M43.6951 45.3613C43.6951 45.3613 43.2955 48.7736 43.7937 50.6525L49.5375 52.1049C49.5375 52.1049 52.4207 48.0802 52.7304 46.915C52.7304 46.915 49.1726 42.9334 48.8287 42.7256C48.8287 42.7256 45.0036 43.8797 43.6945 45.3613H43.6951Z" fill="#2E2E2E"/>
<path d="M37.5425 46.7612C37.5425 46.7612 39.4148 44.0985 40.2272 43.6405C40.2272 43.6405 41.2783 40.8758 41.97 40.1196C41.97 40.1196 38.6641 42.6677 37.5425 46.7612Z" fill="#2E2E2E"/>
<path d="M37.2259 52.7407C37.2259 52.7407 39.7084 54.166 40.5373 54.3948C40.5373 54.3948 42.5882 58.7248 43.2921 59.3939C43.2921 59.3939 42.5193 60.4858 41.5945 60.7724C41.5945 60.7724 37.7495 57.9035 37.2253 52.7407H37.2259Z" fill="#2E2E2E"/>
<path d="M51.8297 57.0312L48.812 60.9368C48.812 60.9368 50.3933 63.0291 52.2596 63.1426C54.1258 63.2562 57.6263 60.9765 57.6263 60.9765C57.6263 60.9765 57.962 58.5872 57.1892 57.2087C57.1892 57.2087 52.6145 57.3647 51.8297 57.0312Z" fill="#2E2E2E"/>
<path d="M58.0823 46.9655C58.0823 46.9655 60.0654 51.0194 60.293 52.2275C60.293 52.2275 63.314 51.6582 63.5521 51.3886C63.7902 51.1191 63.5984 47.2091 62.9971 45.7182C62.3957 44.2273 59.8317 43.1382 59.8317 43.1382L58.0823 46.965V46.9655Z" fill="#2E2E2E"/>
<path d="M47.3652 37.5954C47.3652 37.5954 50.1145 38.393 50.7279 38.8389C50.7279 38.8389 54.8997 38.7584 56.1476 39.1651C56.1476 39.1651 56.3543 38.3885 55.9277 38.0837C55.5011 37.779 50.0566 36.6391 47.3658 37.5954H47.3652Z" fill="#2E2E2E"/>
<path d="M49.5898 52.081L49.4868 52.1289L51.7786 57.0548L51.8815 57.0069L49.5898 52.081Z" fill="#2E2E2E"/>
<path d="M52.7323 46.8591L52.7312 46.9727L58.0828 47.0231L58.0839 46.9096L52.7323 46.8591Z" fill="#2E2E2E"/>
<path d="M57.2227 57.254L57.156 57.1619C59.2604 55.6319 60.2293 52.246 60.2387 52.2124L60.3484 52.2433C60.339 52.2774 59.359 55.7013 57.2232 57.2545L57.2227 57.254Z" fill="#2E2E2E"/>
<path d="M57.6283 61.0325L57.625 60.919C57.641 60.919 59.246 60.8611 60.1962 60.1826L60.2623 60.2752C59.284 60.9741 57.6956 61.0309 57.6289 61.0325H57.6283Z" fill="#2E2E2E"/>
<path d="M48.8046 60.9926C46.31 60.6674 43.3006 59.4587 43.2703 59.4466L43.3127 59.3413C43.3425 59.3534 46.3392 60.5566 48.8189 60.8802L48.804 60.9932L48.8046 60.9926Z" fill="#2E2E2E"/>
<path d="M51.1395 64.1325L51.1025 64.025C51.7981 63.7858 52.2071 63.1194 52.2115 63.1128L52.309 63.1718C52.2914 63.2004 51.8742 63.8806 51.14 64.1325H51.1395Z" fill="#2E2E2E"/>
<path d="M40.5837 54.4265L40.49 54.3625C40.5082 54.3361 42.31 51.7092 43.7595 50.6074L43.8284 50.6978C42.3932 51.7886 40.6019 54.4006 40.5837 54.4265Z" fill="#2E2E2E"/>
<path d="M43.667 45.4105C42.8337 44.9348 40.2288 43.7041 40.2024 43.6919L40.2509 43.5889C40.2774 43.601 42.886 44.8334 43.7233 45.3113L43.667 45.4099V45.4105Z" fill="#2E2E2E"/>
<path d="M48.885 42.7362L48.7737 42.7141C48.9864 41.6338 50.6102 38.9237 50.6791 38.8091L50.7766 38.8675C50.7601 38.8956 49.0939 41.6752 48.885 42.7362Z" fill="#2E2E2E"/>
<path d="M59.7781 43.1591C59.1812 41.575 56.1426 39.2337 56.1123 39.2105L56.1818 39.1201C56.308 39.2166 59.2766 41.505 59.8851 43.1189L59.7787 43.1591H59.7781Z" fill="#2E2E2E"/>
<g opacity="0.56">
<path d="M48.3063 48.0815C51.0225 47.011 52.5433 44.4149 51.703 42.283C50.8628 40.151 47.9798 39.2905 45.2636 40.361C42.5474 41.4315 41.0266 44.0276 41.8668 46.1596C42.7071 48.2915 45.5901 49.152 48.3063 48.0815Z" fill="white"/>
</g>
<path d="M24.3313 85.9259C23.2209 84.3972 24.7388 74.2056 34.934 69.74C44.7385 65.4455 51.6433 70.8187 51.9557 71.5387C52.2682 72.2581 52.0301 81.6276 41.8493 86.8742C32.0649 91.9167 25.1815 87.0967 24.3312 85.9264L24.3313 85.9259Z" fill="#D8491D"/>
<path d="M50.0871 76.2935C51.5773 73.715 51.9643 71.7841 51.9802 71.7032L51.9894 71.6584C51.9788 71.6061 51.9677 71.5652 51.9559 71.5376C51.9548 71.5354 51.9538 71.5332 51.9527 71.5309L51.8854 71.4904C51.8399 71.4634 50.7492 70.825 48.3333 70.8046C46.1333 70.786 42.3523 71.3011 36.833 73.8631C31.3103 76.4264 28.2016 79.5073 26.5657 81.6407C24.7839 83.9644 24.3211 85.6609 24.3023 85.7322L24.2747 85.8359C24.2926 85.8682 24.3114 85.8982 24.3309 85.9253C24.3325 85.9271 24.334 85.9294 24.3356 85.9318L24.4119 85.9677C24.474 85.9966 25.606 86.5212 27.4807 86.9106C28.1029 87.0399 28.8068 87.1545 29.5809 87.2311C31.4032 87.4115 33.2335 87.3413 35.0201 87.0223C37.2532 86.6235 39.4241 85.8336 41.4723 84.6732C46.1053 82.0489 48.7141 78.6681 50.0865 76.2939L50.0871 76.2935ZM41.2733 84.3204C36.7325 86.892 32.4396 87.1042 29.6378 86.8291C27.0896 86.5791 25.2782 85.8923 24.7459 85.6709C24.9054 85.195 25.4678 83.7384 26.8875 81.8876C28.4958 79.7906 31.5561 76.7599 37.0043 74.2312C42.4259 71.7146 46.1302 71.1991 48.2827 71.2099C50.1516 71.2195 51.2033 71.616 51.549 71.7746C51.429 72.2728 50.9617 73.9718 49.7365 76.0908C48.3891 78.4215 45.8271 81.7413 41.2733 84.3204Z" fill="#F97C5F"/>
<path d="M31.1679 77.7692C31.0804 77.751 30.9998 77.6996 30.9464 77.6188C30.8395 77.4572 30.8842 77.2398 31.0458 77.1329C31.0778 77.1115 34.2811 75.0002 36.7593 73.7355C39.2448 72.4667 43.3235 71.1342 43.4957 71.0777C43.6798 71.0176 43.878 71.1185 43.938 71.303C43.998 71.487 43.8972 71.6852 43.7127 71.7452C43.6713 71.7587 39.5135 73.1169 37.0778 74.3604C34.6344 75.6078 31.4641 77.6978 31.4322 77.7187C31.3508 77.7726 31.2558 77.7879 31.1673 77.7696L31.1679 77.7692Z" fill="#2E2E2E"/>
<path d="M31.804 78.7095C31.7049 78.689 31.6156 78.6263 31.5649 78.53L30.5027 76.5207C30.4124 76.3495 30.4775 76.1373 30.6488 76.0465C30.8201 75.9562 31.0323 76.0213 31.1231 76.1927L32.1853 78.2019C32.2761 78.3733 32.2105 78.5853 32.0391 78.6761C31.9642 78.7157 31.8809 78.7255 31.804 78.7095Z" fill="#2E2E2E"/>
<path d="M33.4839 77.6764C33.3892 77.6568 33.303 77.5982 33.2511 77.5077L32.0095 75.3478C31.913 75.1798 31.9706 74.9656 32.1387 74.8686C32.3067 74.7721 32.5209 74.8296 32.6179 74.9977L33.8595 77.1576C33.956 77.3256 33.8985 77.5399 33.7304 77.6369C33.6529 77.6815 33.5653 77.6928 33.4845 77.6761L33.4839 77.6764Z" fill="#2E2E2E"/>
<path d="M35.3138 76.4634C35.2239 76.4448 35.1413 76.391 35.0885 76.3068L33.866 74.3666C33.7626 74.2026 33.8116 73.9861 33.976 73.8828C34.14 73.7795 34.3565 73.8284 34.4598 73.9929L35.6823 75.9331C35.7857 76.097 35.7367 76.3135 35.5723 76.4168C35.4921 76.4674 35.3999 76.4813 35.3138 76.4634Z" fill="#2E2E2E"/>
<path d="M36.844 75.609C36.745 75.5884 36.6557 75.5257 36.6049 75.4294L35.5427 73.4201C35.4524 73.2489 35.5175 73.0367 35.6889 72.9459C35.8601 72.8556 36.0723 72.9207 36.1631 73.0921L37.2253 75.1013C37.3161 75.2727 37.2505 75.4848 37.0792 75.5756C37.0042 75.6152 36.9209 75.6249 36.844 75.609Z" fill="#2E2E2E"/>
<path d="M38.8131 74.7166C38.7155 74.6963 38.6275 74.6349 38.5762 74.541L37.4542 72.4817C37.3616 72.3115 37.4245 72.0984 37.5942 72.0057C37.7644 71.9132 37.9777 71.9755 38.0702 72.1457L39.1922 74.205C39.2848 74.3752 39.2219 74.5884 39.0522 74.681C38.9764 74.7225 38.8915 74.7329 38.8131 74.7166Z" fill="#2E2E2E"/>
<path d="M40.5217 74.0127C40.4279 73.9932 40.3426 73.9358 40.2903 73.8468L39.1182 71.8473C39.0201 71.6799 39.0762 71.4654 39.2435 71.3672C39.4109 71.2691 39.6255 71.3252 39.7236 71.4925L40.8957 73.492C40.9938 73.6594 40.9377 73.8739 40.7704 73.9721C40.6921 74.018 40.6039 74.0298 40.5217 74.0127Z" fill="#2E2E2E"/>
<path d="M42.231 73.3082C42.1411 73.2895 42.0585 73.2357 42.0058 73.1515L40.7833 71.2113C40.6799 71.0474 40.7289 70.8308 40.8933 70.7276C41.0572 70.6242 41.2737 70.6732 41.377 70.8376L42.5995 72.7778C42.7029 72.9417 42.6539 73.1583 42.4895 73.2615C42.4093 73.3121 42.3171 73.326 42.231 73.3082Z" fill="#2E2E2E"/>
<path d="M43.9492 72.7145C43.8617 72.6963 43.7811 72.645 43.728 72.5647L42.5153 70.7344C42.4084 70.5727 42.4526 70.3552 42.6138 70.2482C42.7754 70.1414 42.9929 70.1856 43.0999 70.3467L44.3126 72.1771C44.4195 72.3387 44.3753 72.5562 44.2142 72.6632C44.1328 72.717 44.0372 72.7328 43.9492 72.7145Z" fill="#2E2E2E"/>
<path d="M32.737 89.1213C32.2001 87.8401 30.6442 84.3033 29.7568 82.5921C28.8235 80.7927 27.1784 78.3344 26.4012 77.0805C25.8171 77.9944 25.5146 78.6152 25.147 79.4958C25.5935 80.3359 26.3792 81.7952 27.3415 83.4983C28.4016 85.3732 29.3973 87.5964 29.902 88.7666C30.7637 88.9601 31.7112 89.0902 32.737 89.1213Z" fill="#E7E8E9"/>
<path d="M43.4668 68.1264C44.3151 69.1011 45.7187 70.8914 46.9826 73.3278C48.8492 76.9266 49.4301 79.7532 49.4301 79.7532L49.505 80.0617C50.177 79 50.6787 77.9537 51.0498 76.9764C50.6125 75.8268 49.9664 74.248 49.2007 72.7453C48.4938 71.358 47.5447 69.8759 46.7253 68.6779C45.7525 68.4061 44.6615 68.2035 43.4677 68.1266L43.4668 68.1264Z" fill="#E7E8E9"/>
<path opacity="0.28" d="M51.9559 71.5382C51.8996 71.4086 51.6294 71.1278 51.1665 70.7798C50.207 74.1697 47.5523 79.3431 41.3697 82.5292C32.6374 87.0295 26.2161 83.6742 24.3317 82.0689C24.3268 82.0659 24.3219 82.0629 24.3171 82.0594C23.8837 83.9525 23.962 85.4178 24.3309 85.9258C25.1813 87.0961 32.0646 91.9161 41.849 86.8736C52.0299 81.627 52.2679 72.2575 51.9555 71.5381L51.9559 71.5382Z" fill="#2E2E2E"/>
<path d="M79.5295 87.605C84.8568 82.2776 84.8568 73.6403 79.5295 68.313C74.2022 62.9857 65.5649 62.9857 60.2375 68.313C54.9102 73.6403 54.9102 82.2776 60.2375 87.605C65.5649 92.9323 74.2022 92.9323 79.5295 87.605Z" fill="#E27023"/>
<path d="M79.9431 68.7407C78.8369 67.5331 77.4942 66.5058 75.9388 65.7352C69.1875 62.3907 61.0037 65.1526 57.6592 71.9034C56.2328 74.7827 55.9181 77.9227 56.5492 80.8373C57.6554 82.0449 58.998 83.0723 60.5534 83.8428C67.3047 87.1873 75.4885 84.4254 78.833 77.6747C80.2594 74.7954 80.5741 71.6553 79.9431 68.7407Z" fill="#FC8230"/>
<path d="M82.1985 83.8238C82.2828 83.6475 82.3627 83.47 82.4388 83.2914C80.4849 82.9166 71.5499 81.0988 64.9391 78.0343C65.6341 76.4271 67.5473 72.5204 72.9642 71.0488C78.2168 69.6213 82.2266 73.0033 82.7717 73.4932C82.6466 73.1322 82.5066 72.7762 82.3517 72.4267C81.8512 72.063 81.1501 71.6132 80.2787 71.2064C78.59 70.4177 75.9245 69.6549 72.8148 70.4998C67.1565 72.0371 65.1535 76.1063 64.4243 77.7913C63.1869 77.1993 62.1546 76.6559 61.2937 76.1615C62.1348 73.6823 63.4416 71.4495 65.2841 69.3132C67.8686 66.317 71.665 65.0493 73.0094 64.6773C72.6092 64.583 72.2079 64.5075 71.8056 64.4502C70.0093 65.0664 67.0506 66.3947 64.8542 68.9417C63.0172 71.072 61.6751 73.3626 60.8015 75.8727C60.0315 75.4124 59.4158 74.9996 58.9242 74.6347C59.6936 72.5122 61.1917 67.6856 61.2066 67.6365L61.0253 67.5803C60.8379 67.7401 60.6538 67.9055 60.4741 68.0763C60.0596 69.4003 59.0614 72.5601 58.4518 74.2693C57.7348 73.6889 57.3666 73.2601 57.1797 72.9895C57.0965 73.2017 57.0188 73.415 56.9471 73.6288C57.215 73.948 57.6218 74.3509 58.2413 74.8364C57.6609 76.3285 56.8049 77.9732 56.2764 78.9421C56.3006 79.2695 56.3359 79.5953 56.3833 79.9193C56.7201 79.3268 57.9282 77.1585 58.712 75.1909C59.2235 75.5618 59.8502 75.9741 60.6174 76.4271C60.2602 77.5537 59.9946 78.7239 59.8182 79.9436C59.4743 82.3252 59.3414 85.3555 60.2779 87.649C60.6841 88.0513 61.1184 88.4305 61.5797 88.7838C59.8601 86.6354 59.9714 82.8593 60.3804 80.0246C60.5474 78.8688 60.7899 77.7692 61.114 76.7148C61.9782 77.2059 63.0023 77.7411 64.2154 78.3204C63.6703 80.045 63.5838 84.7338 66.4857 87.7873C68.6457 90.0598 71.9015 90.8237 73.625 91.0767C74.0246 90.9626 74.4192 90.8298 74.8067 90.6798C74.756 90.6776 69.7315 90.3778 66.8974 87.396C64.232 84.5911 64.2568 80.185 64.7335 78.5646C71.2566 81.5806 79.9844 83.3928 82.1985 83.8227V83.8238Z" fill="#933E28"/>
<path opacity="0.17" d="M65.9715 73.4998C68.5566 71.9825 69.905 69.4795 68.9832 67.9091C68.0615 66.3386 65.2187 66.2955 62.6336 67.8128C60.0485 69.3301 58.7001 71.8331 59.6218 73.4036C60.5436 74.974 63.3864 75.0171 65.9715 73.4998Z" fill="white"/>
<path opacity="0.57" d="M82.6196 76.0151C82.9244 78.4452 82.543 80.9894 81.3745 83.3485C78.2064 89.7437 70.4536 92.3595 64.0589 89.1914C62.5124 88.4253 61.1868 87.3907 60.1104 86.1727C60.1104 86.1727 66.8324 90.3985 74.3493 87.0915C82.1302 83.6681 82.6202 76.0151 82.6202 76.0151H82.6196Z" fill="#A54E13"/>
<path d="M91.8601 122.223L87.5007 122.047C61.928 121.006 36.3184 120.904 10.7343 121.724C6.00021 121.695 2.18523 117.816 2.21443 113.06L2.25968 105.692C2.28524 101.531 3.81102 99.0611 8.62393 97.6671C9.84859 97.3148 11.1034 97.1191 12.3733 97.0096C14.3599 96.8497 18.1539 96.5367 22.6335 96.1731C41.8293 94.6093 61.1239 94.7278 80.2991 96.5273L90.626 97.498C91.8945 97.6153 93.1546 97.8186 94.375 98.1702C99.3264 99.5851 100.564 102.135 100.539 106.304L100.494 113.672C100.464 118.427 96.602 122.26 91.8679 122.23L91.8601 122.223Z" fill="#2A3069"/>
<path fill-rule="evenodd" clip-rule="evenodd" d="M92.0626 120.229C95.6004 120.154 98.4715 117.257 98.4935 113.659L98.5388 106.291C98.5506 104.368 98.2597 103.181 97.6793 102.343C97.115 101.529 96.0556 100.731 93.8255 100.093L93.8212 100.092C92.7535 99.7844 91.6233 99.5988 90.4418 99.4895L90.4388 99.4892L80.1122 98.5185C80.1121 98.5185 80.1123 98.5185 80.1122 98.5185C61.0532 96.73 41.8754 96.6122 22.7959 98.1665C20.5167 98.3515 18.4114 98.5237 16.6323 98.6692C14.9226 98.809 13.5137 98.9243 12.5397 99.0027C11.3607 99.1046 10.2426 99.2827 9.17842 99.5887C7.00265 100.219 5.87433 101.007 5.2452 101.844C4.61811 102.678 4.27105 103.847 4.25965 105.705L4.2144 113.072C4.192 116.72 7.10628 119.683 10.7109 119.724C36.3292 118.903 61.9734 119.006 87.5811 120.049C87.5808 120.049 87.5814 120.049 87.5811 120.049L92.0626 120.229ZM12.3733 97.0096C11.1034 97.1191 9.84859 97.3148 8.62393 97.6671C3.81102 99.0611 2.28524 101.531 2.25968 105.692L2.21443 113.06C2.18523 117.816 6.00021 121.695 10.7343 121.724C36.3184 120.904 61.928 121.006 87.5007 122.047L91.8601 122.223L91.8679 122.23C96.602 122.26 100.464 118.427 100.494 113.672L100.539 106.304C100.564 102.135 99.3264 99.5851 94.375 98.1702C93.1546 97.8186 91.8945 97.6153 90.626 97.498L80.2991 96.5273C61.1239 94.7278 41.8293 94.6093 22.6335 96.1731C20.3506 96.3584 18.2458 96.5305 16.4675 96.676C14.7563 96.816 13.3475 96.9312 12.3733 97.0096Z" fill="#181C36"/>
<path d="M42.8521 113.535V106.371C42.8521 105.757 42.7114 105.303 42.4302 105.012C42.1489 104.715 41.7297 104.527 41.1724 104.449C41.0474 104.423 40.9093 104.405 40.7583 104.395C40.6125 104.384 40.4562 104.379 40.2896 104.379C40.0864 104.379 39.8338 104.384 39.5317 104.395C39.2297 104.4 38.9224 104.413 38.6099 104.434C38.2974 104.449 38.0213 104.465 37.7817 104.48V103.387C38.2453 103.355 38.6698 103.332 39.0552 103.316C39.4406 103.301 39.7922 103.293 40.1099 103.293C40.7349 103.293 41.2323 103.319 41.6021 103.371C41.9718 103.423 42.3182 103.517 42.6411 103.652C42.964 103.788 43.2323 103.96 43.4458 104.168C43.6593 104.371 43.8312 104.639 43.9614 104.973C44.0343 105.181 44.0864 105.397 44.1177 105.621C44.1541 105.845 44.1724 106.095 44.1724 106.371V113.535H42.8521Z" fill="white"/>
<path d="M46.8052 113.535V103.449H48.1177V113.535H46.8052Z" fill="white"/>
<path d="M54.3286 113.535V106.543C54.3286 106.262 54.3625 106.004 54.4302 105.77C54.4979 105.53 54.5812 105.337 54.6802 105.191C54.7896 105.025 54.8937 104.892 54.9927 104.793C55.0916 104.689 55.2088 104.598 55.3442 104.52H49.8442V103.449H57.2349V104.41C56.9744 104.504 56.7349 104.616 56.5161 104.746C56.2974 104.876 56.1229 105.04 55.9927 105.238C55.7635 105.561 55.6489 106.001 55.6489 106.559V113.535H54.3286Z" fill="white"/>
<path d="M60.6021 113.691C60.1229 113.691 59.6828 113.668 59.2817 113.621C58.8807 113.579 58.4953 113.514 58.1255 113.426V112.23C58.2974 112.288 58.5135 112.345 58.7739 112.402C59.0396 112.454 59.3208 112.499 59.6177 112.535C59.9198 112.566 60.2114 112.582 60.4927 112.582C60.8312 112.582 61.1333 112.535 61.3989 112.441C61.6698 112.348 61.8963 112.225 62.0786 112.074C62.2557 111.928 62.4093 111.757 62.5396 111.559C62.675 111.361 62.7791 111.16 62.8521 110.957C62.9302 110.749 62.9979 110.501 63.0552 110.215C63.1177 109.923 63.1489 109.616 63.1489 109.293V107.91C63.1489 107.337 63.089 106.822 62.9692 106.363C62.8494 105.905 62.6619 105.522 62.4067 105.215C62.1724 104.939 61.8781 104.73 61.5239 104.59C61.175 104.449 60.7791 104.379 60.3364 104.379C60.0291 104.379 59.7192 104.402 59.4067 104.449C59.0994 104.491 58.7843 104.556 58.4614 104.645C58.3781 104.671 58.3078 104.691 58.2505 104.707C58.1932 104.723 58.1515 104.733 58.1255 104.738V103.613C58.2922 103.556 58.4484 103.512 58.5942 103.48C58.7401 103.449 58.9146 103.418 59.1177 103.387C59.3312 103.355 59.5604 103.335 59.8052 103.324C60.0552 103.309 60.3182 103.301 60.5942 103.301C61.1255 103.301 61.6255 103.392 62.0942 103.574C62.5682 103.751 62.951 103.983 63.2427 104.27C63.3885 104.421 63.5213 104.585 63.6411 104.762C63.7609 104.934 63.8703 105.121 63.9692 105.324C64.0838 105.569 64.1776 105.829 64.2505 106.105C64.3286 106.376 64.3859 106.663 64.4224 106.965C64.4588 107.262 64.4771 107.577 64.4771 107.91V109.293C64.4771 109.741 64.4406 110.155 64.3677 110.535C64.3 110.915 64.1958 111.27 64.0552 111.598C63.9354 111.874 63.7896 112.121 63.6177 112.34C63.4458 112.553 63.2401 112.741 63.0005 112.902C62.6411 113.225 62.2453 113.436 61.813 113.535C61.3807 113.639 60.9771 113.691 60.6021 113.691Z" fill="white"/>
</svg>
