<svg width="102" height="144" viewBox="0 0 102 144" fill="none" xmlns="http://www.w3.org/2000/svg">
<path d="M51.2841 119.286C30.7374 119.286 12.3019 106.232 5.43319 86.8152C3.55991 81.5225 2.6084 76.081 2.6084 70.6098C2.6084 65.1386 3.50044 60.0243 5.25479 54.8802L5.40346 54.4639C12.2722 35.0769 30.7077 21.9639 51.2841 21.9639C56.6363 21.9639 61.9589 22.8856 67.1327 24.6697C70.8198 25.9483 74.4177 27.7027 77.7777 29.8733C91.6638 38.9126 99.9301 54.1368 99.9301 70.6098C99.9301 72.1263 99.8408 73.7022 99.6922 75.3674C97.2539 100.404 76.4397 119.286 51.2544 119.286H51.2841Z" fill="#181C36"/>
<path d="M51.284 116.758C31.8078 116.758 14.3238 104.388 7.81186 85.9826C6.02778 80.9574 5.13574 75.7836 5.13574 70.6097C5.13574 65.4359 5.96831 60.5891 7.63346 55.7126L7.7524 55.3856C14.294 36.8906 31.778 24.4912 51.284 24.4912C56.3686 24.4912 61.4235 25.3535 66.3297 27.0484C69.8384 28.2675 73.2282 29.9327 76.4098 31.9844C89.5525 40.5479 97.4322 54.9693 97.4322 70.6097C97.4322 72.0667 97.343 73.5535 97.1944 75.0997C94.9048 98.8279 75.1609 116.728 51.284 116.728V116.758Z" fill="#3D4787"/>
<path d="M75.0414 34.1257C72.0977 32.193 68.8863 30.617 65.5263 29.4574C61.0661 27.9112 56.3086 27.0489 51.3131 27.0489C32.2829 27.0191 16.1667 39.2104 10.19 56.1889C10.1603 56.3078 10.1008 56.4268 10.0414 56.5457C8.5249 60.9762 7.6626 65.704 7.6626 70.6399C7.6626 75.5759 8.58437 80.6011 10.19 85.1505C16.1667 102.07 32.2829 114.231 51.2537 114.231C73.9115 114.231 92.4957 96.9552 94.6366 74.892C94.7853 73.4945 94.8447 72.0672 94.8447 70.6399C94.8447 55.3266 86.9353 41.8865 74.9819 34.1257H75.0414Z" fill="#2A3069"/>
<path d="M91.7459 122.223L87.3864 122.047C61.8138 121.006 36.2042 120.904 10.62 121.724C5.88595 121.695 2.07097 117.816 2.10018 113.06L2.14543 105.692C2.17098 101.531 3.69676 99.0611 8.50967 97.6671C9.73434 97.3148 10.9892 97.1191 12.2591 97.0096C14.2456 96.8497 18.0397 96.5367 22.5192 96.1731C41.7151 94.6093 61.0096 94.7278 80.1848 96.5273L90.5117 97.498C91.7802 97.6153 93.0404 97.8186 94.2607 98.1702C99.2121 99.5851 100.45 102.135 100.425 106.304L100.379 113.672C100.35 118.427 96.4877 122.26 91.7536 122.23L91.7459 122.223Z" fill="#2A3069"/>
<path fill-rule="evenodd" clip-rule="evenodd" d="M91.9483 120.229C95.4862 120.154 98.3572 117.257 98.3793 113.659L98.4245 106.291C98.4364 104.368 98.1455 103.181 97.565 102.343C97.0007 101.529 95.9414 100.731 93.7112 100.093L93.7069 100.092C92.6393 99.7844 91.509 99.5988 90.3275 99.4895L90.3245 99.4892L79.9979 98.5185C79.9978 98.5185 79.998 98.5185 79.9979 98.5185C60.939 96.73 41.7611 96.6122 22.6816 98.1665C20.4025 98.3515 18.2971 98.5237 16.518 98.6692C14.8084 98.809 13.3994 98.9243 12.4254 99.0027C11.2464 99.1046 10.1283 99.2827 9.06416 99.5887C6.8884 100.219 5.76007 101.007 5.13094 101.844C4.50385 102.678 4.1568 103.847 4.14539 105.705L4.10014 113.072C4.07774 116.72 6.99202 119.683 10.5966 119.724C36.215 118.903 61.8592 119.006 87.4668 120.049C87.4665 120.049 87.4671 120.049 87.4668 120.049L91.9483 120.229ZM12.2591 97.0096C10.9892 97.1191 9.73434 97.3148 8.50967 97.6671C3.69676 99.0611 2.17098 101.531 2.14543 105.692L2.10018 113.06C2.07097 117.816 5.88595 121.695 10.62 121.724C36.2042 120.904 61.8138 121.006 87.3864 122.047L91.7459 122.223L91.7536 122.23C96.4877 122.26 100.35 118.427 100.379 113.672L100.425 106.304C100.45 102.135 99.2121 99.5851 94.2607 98.1702C93.0404 97.8186 91.7802 97.6153 90.5117 97.498L80.1848 96.5273C61.0096 94.7278 41.7151 94.6093 22.5192 96.1731C20.2363 96.3584 18.1315 96.5305 16.3532 96.676C14.6421 96.816 13.2332 96.9312 12.2591 97.0096Z" fill="#181C36"/>
<path d="M31.105 113.535V109.988C31.105 109.665 31.1206 109.368 31.1519 109.098C31.1883 108.822 31.2482 108.561 31.3315 108.316C31.4201 108.072 31.5503 107.832 31.7222 107.598C31.868 107.379 32.0581 107.194 32.2925 107.043C32.5321 106.892 32.8185 106.777 33.1519 106.699L31.1597 103.449H32.5972L36.1128 109.262C36.1857 109.236 36.2534 109.207 36.3159 109.176C36.3784 109.145 36.4357 109.108 36.4878 109.066C36.7795 108.889 36.9852 108.655 37.105 108.363C37.23 108.072 37.2925 107.663 37.2925 107.137V103.449H38.5815V107.137C38.5815 107.579 38.5477 107.97 38.48 108.309C38.4123 108.642 38.3029 108.939 38.1519 109.199C38.0269 109.418 37.842 109.624 37.5972 109.816C37.3524 110.004 37.0607 110.145 36.7222 110.238L38.7378 113.535H37.2925L33.7612 107.684C33.5737 107.694 33.3628 107.77 33.1284 107.91C32.8993 108.051 32.7222 108.283 32.5972 108.605C32.467 108.949 32.4019 109.41 32.4019 109.988V113.535H31.105Z" fill="white"/>
<path d="M44.4175 113.691C43.6883 113.691 43.0607 113.546 42.5347 113.254C42.1545 113.051 41.8237 112.775 41.5425 112.426C41.2664 112.077 41.0425 111.652 40.8706 111.152C40.7456 110.788 40.6493 110.382 40.5815 109.934C40.519 109.486 40.4878 108.999 40.4878 108.473C40.4878 107.858 40.5347 107.303 40.6284 106.809C40.7274 106.309 40.8732 105.866 41.0659 105.48C41.2638 105.095 41.5086 104.767 41.8003 104.496L41.8237 104.473L40.6284 104.527V103.418C41.1076 103.392 41.5659 103.371 42.0034 103.355C42.4409 103.335 42.8602 103.319 43.2612 103.309C43.6675 103.298 44.0529 103.293 44.4175 103.293C44.8446 103.293 45.2404 103.345 45.605 103.449C45.9748 103.553 46.3081 103.712 46.605 103.926C46.881 104.108 47.1258 104.337 47.3394 104.613C47.5529 104.884 47.7326 105.199 47.8784 105.559C48.0399 105.944 48.1597 106.379 48.2378 106.863C48.3211 107.348 48.3628 107.884 48.3628 108.473C48.3628 108.931 48.3368 109.361 48.2847 109.762C48.2378 110.158 48.1649 110.525 48.0659 110.863C47.9045 111.415 47.6805 111.889 47.394 112.285C47.1128 112.676 46.7743 112.986 46.3784 113.215C45.8263 113.533 45.1727 113.691 44.4175 113.691ZM44.4175 112.59C44.8237 112.59 45.1805 112.517 45.4878 112.371C45.7951 112.225 46.0451 112.022 46.2378 111.762C46.4305 111.512 46.5815 111.21 46.6909 110.855C46.8055 110.496 46.8836 110.111 46.9253 109.699C46.9722 109.288 46.9956 108.879 46.9956 108.473C46.9956 107.488 46.8993 106.715 46.7065 106.152C46.5138 105.585 46.256 105.163 45.9331 104.887C45.7508 104.725 45.5321 104.6 45.2769 104.512C45.0216 104.423 44.7534 104.379 44.4722 104.379C44.2013 104.379 43.9644 104.382 43.7612 104.387C43.5633 104.392 43.3602 104.405 43.1519 104.426C42.7039 104.884 42.3732 105.441 42.1597 106.098C41.9513 106.749 41.8472 107.54 41.8472 108.473C41.8472 109.243 41.9097 109.905 42.0347 110.457C42.1597 111.004 42.3498 111.439 42.605 111.762C42.7977 112.022 43.0451 112.225 43.3472 112.371C43.6545 112.517 44.0112 112.59 44.4175 112.59Z" fill="white"/>
<path d="M53.894 113.691C53.5763 113.691 53.2664 113.686 52.9644 113.676C52.6675 113.665 52.3914 113.65 52.1362 113.629C51.881 113.608 51.6571 113.585 51.4644 113.559L51.144 113.52V112.449C51.6128 112.501 52.0763 112.54 52.5347 112.566C52.9982 112.592 53.4591 112.605 53.9175 112.605C54.3029 112.605 54.644 112.54 54.9409 112.41C55.2378 112.28 55.4826 112.105 55.6753 111.887C55.8784 111.658 56.0399 111.366 56.1597 111.012C56.2847 110.658 56.3706 110.288 56.4175 109.902C56.4435 109.668 56.4618 109.441 56.4722 109.223C56.4826 108.999 56.4878 108.754 56.4878 108.488C56.4878 108.025 56.467 107.611 56.4253 107.246C56.3836 106.876 56.3081 106.517 56.1987 106.168C56.0894 105.814 55.9409 105.509 55.7534 105.254C55.5711 104.993 55.3315 104.788 55.0347 104.637C54.8732 104.559 54.7013 104.499 54.519 104.457C54.342 104.415 54.1519 104.395 53.9487 104.395C53.5477 104.395 53.1909 104.449 52.8784 104.559C52.5711 104.668 52.3237 104.809 52.1362 104.98C51.8862 105.204 51.6883 105.483 51.5425 105.816C51.3966 106.145 51.3237 106.483 51.3237 106.832C51.3237 107.212 51.3836 107.559 51.5034 107.871C51.6284 108.184 51.7951 108.439 52.0034 108.637C52.1753 108.793 52.3654 108.915 52.5737 109.004C52.7821 109.087 53.0086 109.132 53.2534 109.137L53.4878 109.168L53.2769 110.152L53.0737 110.137C52.7873 110.132 52.5164 110.098 52.2612 110.035C52.0112 109.967 51.7795 109.871 51.5659 109.746C51.368 109.632 51.1857 109.496 51.019 109.34C50.8524 109.178 50.7091 108.999 50.5894 108.801C50.4227 108.54 50.2951 108.246 50.2065 107.918C50.1232 107.585 50.0815 107.228 50.0815 106.848C50.0815 106.285 50.1831 105.777 50.3862 105.324C50.5946 104.871 50.868 104.507 51.2065 104.23C51.5815 103.913 52.0008 103.678 52.4644 103.527C52.9279 103.371 53.4123 103.293 53.9175 103.293C54.3498 103.293 54.7482 103.342 55.1128 103.441C55.4774 103.54 55.8055 103.686 56.0972 103.879C56.3315 104.035 56.5451 104.228 56.7378 104.457C56.9357 104.686 57.105 104.947 57.2456 105.238C57.4435 105.65 57.5946 106.126 57.6987 106.668C57.8029 107.204 57.855 107.811 57.855 108.488C57.855 109.217 57.7951 109.866 57.6753 110.434C57.5607 110.996 57.3966 111.48 57.1831 111.887C57.0112 112.194 56.8081 112.46 56.5737 112.684C56.3394 112.908 56.0868 113.087 55.8159 113.223C55.5503 113.379 55.256 113.496 54.9331 113.574C54.6154 113.652 54.269 113.691 53.894 113.691Z" fill="white"/>
<path d="M60.0894 113.535V103.449H61.4019V113.535H60.0894Z" fill="white"/>
<path d="M68.0972 113.535C68.0972 113.499 68.0972 113.465 68.0972 113.434C68.0972 113.397 68.0972 113.361 68.0972 113.324C68.0972 113.059 68.1414 112.712 68.23 112.285C68.3237 111.853 68.4253 111.413 68.5347 110.965C68.5607 110.85 68.6024 110.686 68.6597 110.473C68.717 110.254 68.7821 110.017 68.855 109.762C68.9279 109.507 68.9982 109.262 69.0659 109.027L70.4253 104.52H64.1519V103.449H71.8081V104.387L70.4019 109.043C70.3706 109.126 70.3237 109.277 70.2612 109.496C70.1987 109.715 70.1336 109.941 70.0659 110.176C70.0034 110.405 69.9539 110.587 69.9175 110.723C69.8758 110.858 69.8263 111.046 69.769 111.285C69.7118 111.52 69.6545 111.77 69.5972 112.035C69.5399 112.301 69.493 112.551 69.4565 112.785C69.4201 113.02 69.4019 113.199 69.4019 113.324V113.535H68.0972ZM64.1519 117.379V107.566H65.4722V117.379H64.1519Z" fill="white"/>
<g clip-path="url(#clip0_1135_31161)">
<path d="M89.0356 66.8155L51.3356 44.9155L13.5356 66.8155V67.6155L51.3356 89.4155L89.0356 67.6155V66.8155Z" fill="black"/>
<path d="M75.3357 78.0157L76.9357 78.9157L78.6357 78.0157L76.9357 77.1157L75.3357 78.0157Z" fill="black"/>
<path d="M75.3357 78.0156V79.9156L76.9357 80.8156L78.6357 79.9156V78.0156L76.9357 79.0156L75.3357 78.0156Z" fill="black"/>
<path d="M81.1356 77.9155L79.5356 78.8155V80.7155L81.1356 81.6155L82.7356 80.7155V78.8155L81.1356 77.9155Z" fill="black"/>
</g>
<path d="M51.2704 41.9468L13.5022 63.7518L51.2704 85.5569L89.0366 63.7518L51.2704 41.9468Z" fill="#FEFEFE"/>
<path d="M51.2703 83.6635L16.782 63.7517L51.2703 43.8398L85.7566 63.7517L51.2703 83.6635Z" fill="#9FD1FC"/>
<path d="M63.0284 51.6376C62.6666 51.7061 62.3282 51.8371 62.1092 52.019C61.9078 52.1853 61.8158 52.3808 61.7572 52.5803C61.6418 52.9773 61.6007 53.3724 61.2271 53.7245C60.9553 53.9826 60.6326 54.2212 60.3177 54.4598C59.6762 54.9507 58.9232 55.4808 58.7061 56.0988C58.6083 56.3765 58.6709 56.6581 58.9193 56.9046C59.2811 57.2625 59.9305 57.4737 60.4859 57.7201C60.7695 57.8453 61.0433 57.9802 61.2721 58.1387C61.5538 58.3342 61.7748 58.5552 61.9742 58.7802C62.4299 59.2984 63.091 59.7268 63.6699 60.1962C63.9535 60.4269 64.2058 60.6714 64.3916 60.9335C64.507 61.0978 64.5911 61.2679 64.6869 61.4342C64.8747 61.7647 65.082 62.0913 65.3245 62.4081C65.5905 62.7582 65.8917 63.1024 66.2789 63.4134C66.5919 63.6657 67.0006 63.9278 67.5228 64.0295C68.135 64.1468 68.6826 63.9786 69.1363 63.7459C69.7622 63.4252 70.2707 63.0183 70.6892 62.6018C71.1704 62.1226 71.4657 61.5828 71.8979 61.0899C72.3164 60.6127 72.8641 60.1766 73.6405 59.8754C74.4033 59.5781 75.2775 59.3904 76.0285 59.0794C76.3512 58.9464 76.6309 58.7899 76.8578 58.6139L64.6459 51.5633C64.0982 51.5418 63.5447 51.5379 63.0245 51.6357L63.0284 51.6376Z" fill="#FEC461"/>
<path d="M44.0595 78.166C43.9695 77.7025 43.549 77.2742 43.195 76.8635C42.9642 76.5975 42.7373 76.3296 42.5359 76.0538C42.2875 75.7174 42.133 75.3673 42.045 75.0055C41.8651 74.2662 41.9218 73.5132 41.6988 72.7759C41.4974 72.1149 41.0612 71.4479 39.9504 71.1409C39.035 70.8886 37.977 70.8807 37.0206 70.7008C35.9077 70.4915 35.0081 70.0437 34.128 69.6154C33.1677 69.1499 32.2074 68.6551 31.0672 68.3402C30.5411 68.1955 29.9563 68.0898 29.3696 68.0898C28.8024 68.0898 28.2548 68.1915 27.7365 68.3148C26.9933 68.4908 26.2579 68.702 25.4736 68.7626L43.5705 79.2104C43.9167 78.8956 44.1377 78.5435 44.0634 78.1602L44.0595 78.166Z" fill="#FEC461"/>
<path d="M42.5846 50.8356C43.007 50.5872 43.3786 50.3115 43.7287 50.0279C44.4171 49.4724 45.0156 48.8837 45.6649 48.3146C46.2008 47.8433 47.0261 47.4756 47.3997 46.9456C47.6031 46.6561 47.5444 46.3491 47.4545 46.042L28.7043 56.8673C28.8354 56.881 28.9684 56.8907 29.1033 56.8888C30.1125 56.877 30.7814 56.4468 31.5148 56.1065C31.8747 55.9402 32.2384 55.815 32.6844 55.7427C33.1479 55.6684 33.6271 55.6292 34.0945 55.5608C34.6167 55.4845 35.0724 55.3594 35.487 55.1599C35.931 54.9467 36.3123 54.6944 36.6585 54.4284C37.3352 53.9101 37.8711 53.3312 38.628 52.8501C39.4181 52.3474 40.3667 51.9446 41.2722 51.5162C41.726 51.3011 42.1719 51.0781 42.5826 50.8356H42.5846Z" fill="#FEC461"/>
<path d="M60.8442 76.1537C60.5782 76.3121 60.365 76.4979 60.1675 76.6915C59.7822 77.071 59.481 77.4876 59.1329 77.8846C58.8454 78.2112 58.2899 78.4244 58.153 78.8175C58.0787 79.0307 58.2234 79.2888 58.3955 79.5489L70.2437 72.7076C70.1322 72.6822 70.0207 72.6607 69.9112 72.6489C69.0917 72.5512 68.683 72.8328 68.1921 73.0303C67.9515 73.1281 67.6953 73.1907 67.353 73.2024C66.999 73.2142 66.6196 73.1946 66.2617 73.2024C65.8608 73.2103 65.5283 73.2631 65.2525 73.3804C64.9592 73.5075 64.7284 73.6738 64.5289 73.8518C64.1416 74.2018 63.8893 74.6184 63.4239 74.9313C62.9388 75.256 62.2934 75.4848 61.693 75.7391C61.3918 75.8662 61.0984 76.0012 60.8403 76.1557L60.8442 76.1537Z" fill="#FEC461"/>
<path d="M46.1345 77.6281C43.6272 76.1808 43.6272 73.8241 46.1345 72.3768L58.808 65.0602C59.7741 64.5028 59.7741 63.5953 58.808 63.0379C57.8418 62.4805 56.2713 62.4805 55.3052 63.0379L45.272 68.831C42.7647 70.2782 38.6849 70.2782 36.1756 68.831C33.6683 67.3837 33.6683 65.027 36.1756 63.5797L53.6075 53.5152C54.5737 52.9578 54.5737 52.0503 53.6075 51.4929C52.6414 50.9355 51.0689 50.9355 50.1047 51.4929L26.8817 64.8998L24.085 63.2863L47.3079 49.8794C49.8153 48.4321 53.895 48.4321 56.4043 49.8794C58.9116 51.3267 58.9116 53.6834 56.4043 55.1307L38.9724 65.1952C38.0062 65.7526 38.0062 66.66 38.9724 67.2174C39.9386 67.7748 41.511 67.7748 42.4752 67.2174L52.5084 61.4244C55.0157 59.9771 59.0955 59.9771 61.6028 61.4244C64.1101 62.8717 64.1101 65.2284 61.6028 66.6757L48.9293 73.9923C47.9631 74.5497 47.9631 75.4572 48.9293 76.0146C49.8955 76.572 51.4679 76.572 52.4321 76.0146L75.6551 62.6077L78.4519 64.2212L55.2289 77.6281C52.7216 79.0754 48.6418 79.0754 46.1325 77.6281H46.1345Z" fill="white"/>
<path d="M26.1191 67.3247L19.884 63.7241L22.3679 62.2905L28.601 65.8911L26.1191 67.3247Z" fill="#E53E3E"/>
<path d="M80.173 65.2129L73.938 61.6143L76.4218 60.1787L82.6549 63.7793L80.173 65.2129Z" fill="#E53E3E"/>
<path d="M21.6325 63.6285C21.6383 63.7048 21.6892 63.8045 21.7987 63.8671C21.9043 63.9278 22.0236 63.9336 22.1018 63.8886C22.3228 63.7615 21.7342 63.474 22.096 63.2647C22.3013 63.1454 22.6045 63.1689 22.8313 63.298C22.9526 63.3684 23.0406 63.4662 23.0484 63.5679L22.7825 63.6129C22.7766 63.5425 22.7199 63.4584 22.6279 63.4056C22.5204 63.3449 22.3991 63.3332 22.317 63.3801C22.0999 63.5053 22.7003 63.7869 22.3287 64.0001C22.139 64.1096 21.8456 64.1194 21.5972 63.9747C21.4525 63.8906 21.3586 63.7732 21.3586 63.652L21.6325 63.6266V63.6285Z" fill="white"/>
<path d="M23.463 63.8945L23.0797 63.6735L23.2616 63.5679L24.2355 64.1311L24.0537 64.2367L23.6723 64.0157L22.6885 64.5829L22.4792 64.4617L23.463 63.8945Z" fill="white"/>
<path d="M24.5876 64.3345L24.8105 64.4636L24.0537 65.373L23.8366 65.2478L24.0361 65.017L23.6273 64.7804L23.2303 64.8958L23.0132 64.7706L24.5876 64.3345ZM24.1554 64.886L24.3646 64.6454C24.4096 64.5965 24.4996 64.5144 24.4996 64.5144H24.4957C24.4957 64.5144 24.3549 64.5633 24.2688 64.5907L23.8522 64.71L24.1554 64.886Z" fill="white"/>
<path d="M25.3739 64.7886L25.7572 65.0096C25.8726 65.0761 25.9176 65.1132 25.9469 65.1543C26.0174 65.2521 25.9821 65.3616 25.8257 65.4516C25.6868 65.5318 25.4834 65.565 25.3113 65.522H25.3074C25.3074 65.522 25.3035 65.5435 25.2839 65.5807L25.0903 65.9699L24.8517 65.833L25.0571 65.4496L24.8537 65.3323L24.4195 65.5826L24.2083 65.4614L25.3739 64.7886ZM25.2292 65.3362C25.3426 65.4007 25.4834 65.4007 25.5988 65.3362C25.6731 65.2932 25.7044 65.2443 25.6653 65.1915C25.6497 65.166 25.6203 65.1426 25.5577 65.1054L25.4032 65.0154L25.0395 65.2267L25.2292 65.3362Z" fill="white"/>
<path d="M26.4925 65.645L26.1092 65.424L26.2911 65.3184L27.2651 65.8816L27.0832 65.9872L26.7018 65.7662L25.7181 66.3334L25.5088 66.2122L26.4925 65.645Z" fill="white"/>
<path d="M80.1496 64.4562L79.4807 64.0689L79.6626 63.9633L80.1203 64.2273L80.4508 64.0376L80.0655 63.8147L80.2474 63.7091L80.6327 63.932L81.104 63.6602L81.3152 63.7814L80.1496 64.4542V64.4562Z" fill="white"/>
<path d="M79.2928 63.961L79.0815 63.8398L80.2472 63.167L80.4584 63.2883L79.2928 63.961Z" fill="white"/>
<path d="M78.7979 63.676L78.5867 63.5547L78.8175 62.9113C78.8429 62.8467 78.9016 62.7509 78.9016 62.7509H78.8977C78.8977 62.7509 78.7979 62.8193 78.7295 62.8604L78.0567 63.2496L77.8474 63.1284L79.0131 62.4556L79.2223 62.5768L78.9935 63.2183C78.9681 63.2829 78.9094 63.3787 78.9094 63.3787H78.9133C78.9133 63.3787 79.0131 63.3102 79.0815 63.2692L79.7523 62.8819L79.9636 63.0032L78.7979 63.676Z" fill="white"/>
<path d="M77.5618 62.9615L77.3506 62.8403L78.5162 62.1675L78.7275 62.2887L77.5618 62.9615Z" fill="white"/>
<path d="M77.9043 62.1579C77.8984 62.0817 77.8476 61.9819 77.738 61.9193C77.6324 61.8587 77.5131 61.8528 77.4349 61.8978C77.2139 62.0249 77.8026 62.3124 77.4407 62.5217C77.2354 62.641 76.9322 62.6175 76.7054 62.4885C76.5841 62.4181 76.4961 62.3203 76.4883 62.2186L76.7543 62.1736C76.7601 62.244 76.8169 62.3261 76.9088 62.3809C77.0163 62.4415 77.1376 62.4533 77.2197 62.4063C77.4368 62.2811 76.8364 61.9995 77.208 61.7863C77.3977 61.6768 77.6911 61.667 77.9395 61.8118C78.0842 61.8959 78.1781 62.0132 78.1781 62.1345L77.9043 62.1599V62.1579Z" fill="white"/>
<path d="M76.1539 62.1501L75.9427 62.0288L76.4375 61.7433L75.9035 61.4362L75.4087 61.7218L75.1995 61.6005L76.3651 60.9277L76.5744 61.049L76.0854 61.3306L76.6194 61.6377L77.1083 61.3561L77.3195 61.4773L76.1539 62.1501Z" fill="white"/>
<path d="M30.6386 63.6891L26.3594 61.2189L26.5471 61.1113L30.8244 63.5815L30.6386 63.6891Z" fill="#9FD1FC"/>
<path d="M33.6567 61.9464L29.3774 59.4762L29.5652 59.3687L33.8425 61.8388L33.6567 61.9464Z" fill="#9FD1FC"/>
<path d="M36.6743 60.2037L32.395 57.7335L32.5828 57.626L36.8601 60.0961L36.6743 60.2037Z" fill="#9FD1FC"/>
<path d="M39.6921 58.4615L35.4148 55.9914L35.6006 55.8838L39.8799 58.3539L39.6921 58.4615Z" fill="#9FD1FC"/>
<path d="M42.7099 56.7208L38.4326 54.2487L38.6184 54.1411L42.8977 56.6113L42.7099 56.7208Z" fill="#9FD1FC"/>
<path d="M45.7277 54.9781L41.4504 52.508L41.6362 52.4004L45.9155 54.8705L45.7277 54.9781Z" fill="#9FD1FC"/>
<path d="M48.7473 53.2354L44.468 50.7653L44.6538 50.6577L48.9331 53.1279L48.7473 53.2354Z" fill="#9FD1FC"/>
<path d="M50.8516 51.6418L49.0601 48.6475L49.3084 48.5986L51.1019 51.5929L50.8516 51.6418Z" fill="#9FD1FC"/>
<path d="M56.7876 63.0671L54.9941 60.0728L55.2425 60.022L57.036 63.0182L56.7876 63.0671Z" fill="#9FD1FC"/>
<path d="M32.6514 65.9069L32.6905 65.7563L38.8043 66.2649L38.7671 66.4154L32.6514 65.9069Z" fill="#9FD1FC"/>
<path d="M39.8916 65.5475L35.6123 63.0773L35.7981 62.9697L40.0774 65.4399L39.8916 65.5475Z" fill="#9FD1FC"/>
<path d="M42.9094 63.8048L38.6301 61.3346L38.8159 61.2271L43.0952 63.6972L42.9094 63.8048Z" fill="#9FD1FC"/>
<path d="M45.9272 62.0621L41.6479 59.5919L41.8357 59.4844L46.113 61.9545L45.9272 62.0621Z" fill="#9FD1FC"/>
<path d="M48.945 60.3194L44.6658 57.8493L44.8535 57.7417L49.1308 60.2119L48.945 60.3194Z" fill="#9FD1FC"/>
<path d="M51.9624 58.5767L47.6851 56.1066L47.8709 55.999L52.1482 58.4692L51.9624 58.5767Z" fill="#9FD1FC"/>
<path d="M54.9804 56.8341L50.7031 54.3639L50.8889 54.2563L55.1682 56.7265L54.9804 56.8341Z" fill="#9FD1FC"/>
<path d="M41.3293 70.9179L40.4492 67.3858L40.7113 67.3643L41.5914 70.8964L41.3293 70.9179Z" fill="#9FD1FC"/>
<path d="M46.2324 69.2086L41.9551 66.7384L42.1409 66.6309L46.4201 69.101L46.2324 69.2086Z" fill="#9FD1FC"/>
<path d="M49.2502 67.4659L44.9729 64.9958L45.1587 64.8882L49.438 67.3583L49.2502 67.4659Z" fill="#9FD1FC"/>
<path d="M52.2678 65.7232L47.9905 63.2531L48.1763 63.1455L52.4555 65.6157L52.2678 65.7232Z" fill="#9FD1FC"/>
<path d="M55.2876 63.9806L51.0083 61.5104L51.1941 61.4028L55.4734 63.873L55.2876 63.9806Z" fill="#9FD1FC"/>
<path d="M58.8901 64.2819L58.9762 64.1372L64.1629 65.1738L64.0769 65.3165L58.8901 64.2819Z" fill="#9FD1FC"/>
<path d="M52.5319 72.8443L48.2546 70.3742L48.4404 70.2666L52.7197 72.7368L52.5319 72.8443Z" fill="#9FD1FC"/>
<path d="M55.5498 71.1017L51.2725 68.6334L51.4583 68.5239L55.7375 70.9941L55.5498 71.1017Z" fill="#9FD1FC"/>
<path d="M49.5805 74.5499L45.3032 72.0797L45.489 71.9722L49.7683 74.4404L49.5805 74.5499Z" fill="#9FD1FC"/>
<path d="M58.5673 69.3609L54.29 66.8908L54.4758 66.7832L58.7551 69.2534L58.5673 69.3609Z" fill="#9FD1FC"/>
<path d="M61.5871 67.6183L57.3079 65.1481L57.4937 65.0405L61.7729 67.5107L61.5871 67.6183Z" fill="#9FD1FC"/>
<path d="M58.9118 76.5289L54.6345 74.0587L54.8203 73.9512L59.0976 76.4213L58.9118 76.5289Z" fill="#9FD1FC"/>
<path d="M61.9294 74.7862L57.6521 72.3161L57.8379 72.2085L62.1152 74.6787L61.9294 74.7862Z" fill="#9FD1FC"/>
<path d="M55.9602 78.2325L51.6829 75.7624L51.8687 75.6548L56.1479 78.1249L55.9602 78.2325Z" fill="#9FD1FC"/>
<path d="M64.9472 73.0435L60.6699 70.5734L60.8557 70.4658L65.135 72.936L64.9472 73.0435Z" fill="#9FD1FC"/>
<path d="M67.9648 71.3009L63.6875 68.8307L63.8733 68.7231L68.1526 71.1933L67.9648 71.3009Z" fill="#9FD1FC"/>
<path d="M70.9826 69.5587L66.7053 67.0885L66.8911 66.981L71.1704 69.4511L70.9826 69.5587Z" fill="#9FD1FC"/>
<path d="M74.0024 67.816L69.7231 65.3459L69.9089 65.2383L74.1882 67.7084L74.0024 67.816Z" fill="#9FD1FC"/>
<path d="M77.0202 66.0733L72.741 63.6032L72.9268 63.4956L77.206 65.9658L77.0202 66.0733Z" fill="#9FD1FC"/>
<path d="M53.4607 53.1477L53.5467 53.0049L58.7335 54.0395L58.6474 54.1842L53.4607 53.1477Z" fill="#9FD1FC"/>
<path d="M53.1675 51.8528L52.9797 51.7452L56.8346 49.5195L57.0223 49.6271L53.1675 51.8528Z" fill="#9FD1FC"/>
<path d="M58.3718 63.3547L58.186 63.2472L62.0409 61.0215L62.2267 61.1291L58.3718 63.3547Z" fill="#9FD1FC"/>
<path d="M35.2385 69.457L35.0527 69.3495L39.2166 66.9458L39.4024 67.0534L35.2385 69.457Z" fill="#9FD1FC"/>
<path d="M42.7705 74.5969L42.8077 74.4463L48.9234 74.9548L48.8862 75.1054L42.7705 74.5969Z" fill="#9FD1FC"/>
<path d="M51.4485 79.6074L50.5684 76.0772L50.8304 76.0557L51.7105 79.5859L51.4485 79.6074Z" fill="#9FD1FC"/>
<path d="M45.3582 78.1484L45.1724 78.0409L49.3362 75.6353L49.522 75.7428L45.3582 78.1484Z" fill="#9FD1FC"/>
<path d="M52.1719 47.0395C52.0155 46.9495 51.9294 46.8243 51.9314 46.6972C51.7104 46.6972 51.4952 46.6483 51.3388 46.5583C51.149 46.4488 51.1119 46.2963 51.106 46.2102C50.9574 46.2063 50.6894 46.1828 50.5056 46.0772C50.3198 45.9697 50.2337 45.8151 50.2768 45.6626L50.4723 45.6802C50.4391 45.7956 50.5056 45.9129 50.6464 45.9951C50.8439 46.1085 51.1979 46.0948 51.2019 46.0948L51.3172 46.089L51.3075 46.1555C51.3075 46.1555 51.2781 46.3569 51.4815 46.4742C51.6243 46.5564 51.8277 46.5936 52.0272 46.574L52.1621 46.5603L52.1406 46.6385C52.1074 46.7539 52.1739 46.8713 52.3147 46.9534C52.4555 47.0356 52.6609 47.0727 52.8604 47.0532L52.8916 47.1666C52.6296 47.192 52.3597 47.1412 52.1739 47.0336L52.1719 47.0395Z" fill="#61A5E2"/>
<path d="M53.2399 46.9045C53.0834 46.8146 52.9974 46.6894 52.9993 46.5623C52.7783 46.5623 52.5632 46.5134 52.4067 46.4234C52.2209 46.3158 52.1349 46.1613 52.1779 46.0088L52.3735 46.0264C52.3402 46.1418 52.4067 46.2591 52.5475 46.3413C52.6903 46.4234 52.8937 46.4606 53.0932 46.441L53.2281 46.4273L53.2066 46.5056C53.1734 46.6209 53.2379 46.7383 53.3807 46.8204C53.5235 46.9026 53.7269 46.9397 53.9264 46.9202L53.9577 47.0336C53.6956 47.059 53.4257 47.0082 53.2399 46.9006V46.9045Z" fill="#61A5E2"/>
<path d="M56.856 58.434C56.6995 58.344 56.6135 58.2189 56.6154 58.0917C56.3944 58.0917 56.1793 58.0428 56.0228 57.9529C55.8331 57.8434 55.796 57.6888 55.7901 57.6047C55.6415 57.6008 55.3735 57.5774 55.1897 57.4718C55.0039 57.3642 54.9178 57.2097 54.9608 57.0571L55.1564 57.0747C55.1232 57.1901 55.1877 57.3075 55.3305 57.3896C55.528 57.503 55.882 57.4894 55.8859 57.4894L56.0013 57.4835L55.9915 57.55C55.9915 57.55 55.9622 57.7514 56.1656 57.8688C56.3084 57.9509 56.5118 57.9881 56.7113 57.9685L56.8462 57.9548L56.8247 58.0331C56.7915 58.1504 56.854 58.2658 56.9988 58.3479C57.1415 58.4301 57.345 58.4672 57.5444 58.4477L57.5757 58.5611C57.3137 58.5866 57.0438 58.5357 56.858 58.4281L56.856 58.434Z" fill="#61A5E2"/>
<path d="M42.5809 59.0639C42.4244 58.9739 42.3383 58.8487 42.3403 58.7216C42.1193 58.7216 41.9042 58.6747 41.7477 58.5828C41.558 58.4732 41.5208 58.3187 41.515 58.2346C41.3663 58.2307 41.0984 58.2072 40.9145 58.1016C40.7287 57.9941 40.6427 57.8396 40.6857 57.687L40.8813 57.7046C40.848 57.82 40.9126 57.9374 41.0553 58.0195C41.2529 58.1329 41.6069 58.1192 41.6108 58.1192L41.7281 58.1134L41.7164 58.1799C41.7164 58.1799 41.6871 58.3813 41.8905 58.4987C42.0313 58.5808 42.2366 58.618 42.4361 58.5984L42.5711 58.5847L42.5496 58.6629C42.5163 58.7783 42.5828 58.8957 42.7236 58.9778C42.8664 59.06 43.0698 59.0971 43.2693 59.0776L43.3006 59.191C43.0385 59.2164 42.7686 59.1656 42.5828 59.058L42.5809 59.0639Z" fill="#61A5E2"/>
<path d="M31.5481 65.5707C31.3917 65.4808 31.3056 65.3556 31.3076 65.2285C31.0866 65.2285 30.8714 65.1796 30.713 65.0896C30.5233 64.9801 30.4862 64.8256 30.4803 64.7415C30.3316 64.7376 30.0637 64.7141 29.8799 64.6085C29.6941 64.5009 29.608 64.3464 29.651 64.1938L29.8466 64.2114C29.8134 64.3268 29.8779 64.4442 30.0207 64.5263C30.2182 64.6398 30.5722 64.6261 30.5761 64.6261L30.6935 64.6202L30.6817 64.6867C30.6817 64.6867 30.6524 64.8882 30.8558 65.0055C30.9966 65.0876 31.202 65.1248 31.4015 65.1052L31.5364 65.0916L31.5149 65.1698C31.4816 65.2852 31.5481 65.4025 31.689 65.4847C31.8317 65.5668 32.0351 65.604 32.2346 65.5844L32.2659 65.6978C32.0038 65.7233 31.7339 65.6724 31.5481 65.5649V65.5707Z" fill="#61A5E2"/>
<path d="M70.5213 71.747C70.3648 71.657 70.2788 71.5319 70.2807 71.4047C70.0597 71.4047 69.8446 71.3558 69.6881 71.2659C69.4984 71.1563 69.4612 71.0038 69.4554 70.9177C69.3067 70.9138 69.0388 70.8904 68.855 70.7847C68.6692 70.6772 68.5831 70.5227 68.6261 70.3701L68.8217 70.3877C68.7885 70.5031 68.855 70.6205 68.9958 70.7026C69.1913 70.816 69.5473 70.8023 69.5512 70.8023L69.6666 70.7984L69.6568 70.8649C69.6568 70.8649 69.6275 71.0664 69.8309 71.1837C69.9737 71.2659 70.1771 71.303 70.3766 71.2835L70.5115 71.2698L70.49 71.348C70.4567 71.4634 70.5232 71.5807 70.6641 71.6629C70.8068 71.745 71.0102 71.7822 71.2097 71.7626L71.241 71.8761C70.9789 71.9015 70.709 71.8506 70.5232 71.7431L70.5213 71.747Z" fill="#61A5E2"/>
<path d="M52.97 81.4418C52.8136 81.3518 52.7275 81.2267 52.7295 81.0996C52.5085 81.0996 52.2933 81.0507 52.1349 80.9607C51.9452 80.8512 51.908 80.6967 51.9022 80.6126C51.7535 80.6087 51.4856 80.5852 51.3017 80.4796C51.1159 80.372 51.0299 80.2175 51.0729 80.0649L51.2685 80.0825C51.2352 80.1979 51.2998 80.3153 51.4426 80.3974C51.6401 80.5109 51.9941 80.4972 51.998 80.4972L52.1153 80.4913L52.1036 80.5578C52.1036 80.5578 52.0743 80.7592 52.2777 80.8766C52.4185 80.9587 52.6238 80.9959 52.8233 80.9763L52.9583 80.9626L52.9368 81.0409C52.9035 81.1563 52.97 81.2736 53.1108 81.3558C53.2556 81.4379 53.4531 81.4751 53.6565 81.4555L53.6878 81.5689C53.4257 81.5944 53.1558 81.5435 52.97 81.4359V81.4418Z" fill="#61A5E2"/>
<path d="M52.0018 67.8881C51.8453 67.7981 51.7592 67.673 51.7612 67.5458C51.5402 67.5458 51.3251 67.4989 51.1666 67.407C50.9769 67.2975 50.9398 67.1429 50.9339 67.0588C50.7853 67.0549 50.5173 67.0315 50.3335 66.9259C50.1477 66.8183 50.0616 66.6638 50.1046 66.5112L50.3002 66.5288C50.267 66.6442 50.3315 66.7616 50.4743 66.8437C50.6718 66.9572 51.0258 66.9435 51.0297 66.9435L51.1471 66.9376L51.1353 67.0041C51.1353 67.0041 51.106 67.2055 51.3094 67.3229C51.4541 67.405 51.6517 67.4422 51.8551 67.4226L51.99 67.4109L51.9685 67.4891C51.9353 67.6045 52.0018 67.7219 52.1426 67.804C52.2834 67.8861 52.4887 67.9233 52.6882 67.9037L52.7195 68.0172C52.4575 68.0426 52.1876 67.9918 52.0018 67.8842V67.8881Z" fill="#61A5E2"/>
<path d="M52.9834 74.7416C52.827 74.6517 52.7409 74.5265 52.7429 74.3994C52.5219 74.3994 52.3067 74.3505 52.1503 74.2605C51.9606 74.151 51.9234 73.9984 51.9175 73.9124C51.7689 73.9085 51.501 73.885 51.3171 73.7794C51.1313 73.6718 51.0453 73.5173 51.0883 73.3647L51.2839 73.3823C51.2506 73.4977 51.3171 73.6151 51.4579 73.6972C51.6555 73.8107 52.0095 73.797 52.0134 73.797L52.1288 73.7911L52.119 73.8576C52.119 73.8576 52.0897 74.059 52.2931 74.1764C52.4339 74.2585 52.6392 74.2957 52.8387 74.2761L52.9737 74.2625L52.9522 74.3407C52.9189 74.4561 52.9854 74.5734 53.1262 74.6556C53.267 74.7377 53.4724 74.7749 53.6719 74.7553L53.7032 74.8687C53.4411 74.8942 53.1712 74.8433 52.9854 74.7358L52.9834 74.7416Z" fill="#61A5E2"/>
<path d="M50.5899 81.3735C50.4334 81.2835 50.3474 81.1583 50.3493 81.0312C50.1283 81.0312 49.9132 80.9823 49.7567 80.8923C49.567 80.7828 49.5299 80.6283 49.524 80.5442C49.3753 80.5403 49.1074 80.5168 48.9236 80.4112C48.7378 80.3036 48.6517 80.1491 48.6947 79.9966L48.8903 80.0142C48.8571 80.1296 48.9236 80.2469 49.0644 80.3291C49.2619 80.4425 49.6159 80.4288 49.6198 80.4288L49.7352 80.4229L49.7254 80.4894C49.7254 80.4894 49.6961 80.6909 49.8995 80.8082C50.0403 80.8904 50.2457 80.9275 50.4452 80.908L50.5801 80.8943L50.5586 80.9725C50.5253 81.0879 50.5899 81.2053 50.7327 81.2874C50.8735 81.3695 51.0788 81.4067 51.2783 81.3871L51.3096 81.5006C51.0475 81.526 50.7776 81.4752 50.5918 81.3676L50.5899 81.3735Z" fill="#61A5E2"/>
<path d="M32.0628 67.1449C31.9063 67.055 31.8203 66.9298 31.8222 66.8027C31.6012 66.8027 31.3861 66.7538 31.2296 66.6638C31.0399 66.5543 31.0028 66.3998 30.9969 66.3157C30.8482 66.3118 30.5803 66.2883 30.3965 66.1827C30.2107 66.0751 30.1246 65.9206 30.1676 65.7681L30.3632 65.7857C30.33 65.9011 30.3965 66.0184 30.5373 66.1005C30.7329 66.214 31.0888 66.2003 31.0927 66.2003L31.2081 66.1964L31.1983 66.2629C31.1983 66.2629 31.169 66.4643 31.3724 66.5817C31.5152 66.6638 31.7186 66.701 31.9181 66.6814L32.053 66.6677L32.0315 66.746C31.9982 66.8633 32.0628 66.9787 32.2056 67.0608C32.3483 67.143 32.5517 67.1801 32.7512 67.1606L32.7825 67.274C32.5204 67.2994 32.2505 67.2486 32.0647 67.141L32.0628 67.1449Z" fill="#61A5E2"/>
<path d="M57.9242 58.2991C57.7677 58.2091 57.6817 58.0839 57.6836 57.9568C57.4626 57.9568 57.2475 57.9079 57.091 57.8179C56.9052 57.7104 56.8192 57.5559 56.8622 57.4033L57.0578 57.4209C57.0245 57.5363 57.0891 57.6537 57.2319 57.7358C57.3727 57.8179 57.578 57.8551 57.7775 57.8355L57.9125 57.8219L57.891 57.9001C57.8577 58.0155 57.9242 58.1328 58.065 58.215C58.2097 58.2971 58.4073 58.3343 58.6107 58.3147L58.642 58.4282C58.3799 58.4536 58.11 58.4027 57.9242 58.2952V58.2991Z" fill="#61A5E2"/>
<path d="M29.2033 59.2908C29.0468 59.2008 28.9607 59.0756 28.9627 58.9485C28.7417 58.9485 28.5266 58.8996 28.3701 58.8096C28.1843 58.7021 28.0982 58.5476 28.1413 58.395L28.3368 58.4126C28.3036 58.528 28.3701 58.6454 28.5109 58.7275C28.6556 58.8096 28.8532 58.8468 29.0566 58.8272L29.1915 58.8136L29.17 58.8918C29.1368 59.0072 29.2033 59.1245 29.3441 59.2067C29.4868 59.2888 29.6902 59.326 29.8897 59.3064L29.921 59.4199C29.659 59.4453 29.3891 59.3944 29.2033 59.2869V59.2908Z" fill="#61A5E2"/>
<path d="M51.4796 60.1101C51.3232 60.0201 51.2371 59.895 51.2391 59.7678C51.0181 59.7678 50.8029 59.7189 50.6465 59.629C50.4607 59.5214 50.3746 59.3669 50.4176 59.2144L50.6132 59.232C50.58 59.3473 50.6445 59.4647 50.7873 59.5468C50.9301 59.629 51.1335 59.6661 51.3329 59.6466L51.4679 59.6329L51.4464 59.7111C51.4131 59.8265 51.4796 59.9439 51.6204 60.026C51.7613 60.1081 51.9666 60.1453 52.1661 60.1258L52.1974 60.2392C51.9353 60.2646 51.6654 60.2138 51.4796 60.1062V60.1101Z" fill="#61A5E2"/>
<path d="M50.8478 68.5535C50.6913 68.4635 50.6053 68.3383 50.6072 68.2112C50.3862 68.2112 50.1711 68.1643 50.0146 68.0723C49.8288 67.9648 49.7428 67.8103 49.7858 67.6577L49.9814 67.6753C49.9481 67.7907 50.0146 67.9081 50.1554 67.9902C50.3002 68.0723 50.4977 68.1095 50.7011 68.0899L50.8361 68.0763L50.8145 68.1545C50.7813 68.2699 50.8478 68.3872 50.9886 68.4694C51.1314 68.5515 51.3348 68.5887 51.5343 68.5691L51.5656 68.6825C51.3035 68.708 51.0355 68.6571 50.8478 68.5496V68.5535Z" fill="#61A5E2"/>
<path d="M43.8561 72.1086C43.6996 72.0187 43.6136 71.8935 43.6155 71.7664C43.3945 71.7664 43.1794 71.7194 43.021 71.6275C42.8352 71.5199 42.7491 71.3654 42.7921 71.2129L42.9877 71.2305C42.9545 71.3478 43.0171 71.4632 43.1618 71.5454C43.3026 71.6275 43.508 71.6647 43.7075 71.6451L43.8424 71.6314L43.8209 71.7097C43.7876 71.825 43.8541 71.9424 43.995 72.0245C44.1397 72.1067 44.3372 72.1438 44.5406 72.1243L44.5719 72.2377C44.3098 72.2631 44.0399 72.2123 43.8541 72.1047L43.8561 72.1086Z" fill="#61A5E2"/>
<path d="M67.2843 66.0032C67.1279 65.9132 67.0418 65.788 67.0438 65.6609C66.8228 65.6609 66.6076 65.612 66.4492 65.522C66.2634 65.4145 66.1773 65.26 66.2204 65.1074L66.4159 65.125C66.3827 65.2404 66.4492 65.3578 66.59 65.4399C66.7347 65.522 66.9323 65.5592 67.1357 65.5397L67.2706 65.526L67.2491 65.6042C67.2159 65.7196 67.2824 65.8369 67.4232 65.9191C67.566 66.0012 67.7694 66.0384 67.9688 66.0188L68.0001 66.1323C67.7381 66.1577 67.4682 66.1068 67.2824 65.9993L67.2843 66.0032Z" fill="#61A5E2"/>
<path d="M42.3012 57.781C42.1447 57.691 42.0586 57.5659 42.0606 57.4387C41.8396 57.4387 41.6245 57.3918 41.466 57.2999C41.2802 57.1923 41.1942 57.0378 41.2372 56.8853L41.4328 56.9029C41.3995 57.0182 41.466 57.1356 41.6069 57.2177C41.7477 57.2999 41.953 57.337 42.1525 57.3175L42.2875 57.3038L42.266 57.382C42.2327 57.4994 42.2953 57.6148 42.44 57.6969C42.5808 57.779 42.7862 57.8162 42.9857 57.7967L43.017 57.9101C42.7549 57.9355 42.485 57.8847 42.2992 57.7771L42.3012 57.781Z" fill="#61A5E2"/>
<path d="M54.8651 79.8401C54.7087 79.7501 54.6226 79.6249 54.6246 79.4978C54.4036 79.4978 54.1884 79.4489 54.03 79.359C53.8442 79.2514 53.7582 79.0969 53.8012 78.9443L53.9968 78.9619C53.9635 79.0793 54.0261 79.1947 54.1708 79.2768C54.3116 79.359 54.517 79.3961 54.7165 79.3766L54.8514 79.3629L54.8299 79.4411C54.7967 79.5565 54.8632 79.6738 55.004 79.756C55.1468 79.8381 55.3502 79.8753 55.5496 79.8557L55.5809 79.9692C55.3189 79.9946 55.049 79.9437 54.8632 79.8362L54.8651 79.8401Z" fill="#61A5E2"/>
<path d="M55.3268 73.5525C55.1703 73.4625 55.0843 73.3374 55.0862 73.2102C54.8652 73.2102 54.6501 73.1633 54.4917 73.0714C54.3059 72.9638 54.2198 72.8093 54.2628 72.6567L54.4584 72.6743C54.4252 72.7917 54.4878 72.9071 54.6325 72.9892C54.7733 73.0714 54.9787 73.1085 55.1782 73.089L55.3131 73.0753L55.2916 73.1535C55.2583 73.2689 55.3248 73.3862 55.4657 73.4684C55.6104 73.5505 55.8079 73.5877 56.0113 73.5681L56.0426 73.6816C55.7805 73.707 55.5106 73.6561 55.3248 73.5486L55.3268 73.5525Z" fill="#61A5E2"/>
<path d="M60.8204 50.595C60.664 50.505 60.5779 50.3798 60.5799 50.2527C60.3589 50.2527 60.1437 50.2038 59.9853 50.1138C59.7995 50.0063 59.7135 49.8518 59.7565 49.6992L59.9521 49.7168C59.9188 49.8322 59.9853 49.9496 60.1261 50.0317C60.267 50.1138 60.4723 50.151 60.6718 50.1314L60.8068 50.1178L60.7852 50.196C60.752 50.3133 60.8146 50.4287 60.9593 50.5109C61.1001 50.593 61.3055 50.6302 61.505 50.6106L61.5363 50.7241C61.2742 50.7495 61.0043 50.6986 60.8185 50.5911L60.8204 50.595Z" fill="#61A5E2"/>
<path d="M26.3226 60.4895C26.1662 60.3995 26.0801 60.2744 26.0821 60.1472C25.8611 60.1472 25.6459 60.0983 25.4895 60.0084C25.3037 59.9008 25.2176 59.7463 25.2607 59.5938L25.4562 59.6114C25.423 59.7267 25.4895 59.8441 25.6303 59.9262C25.7731 60.0084 25.9765 60.0455 26.176 60.026L26.3109 60.0123L26.2894 60.0905C26.2561 60.2059 26.3226 60.3233 26.4635 60.4054C26.6062 60.4875 26.8096 60.5247 27.0091 60.5051L27.0404 60.6186C26.7783 60.644 26.5104 60.5932 26.3226 60.4856V60.4895Z" fill="#61A5E2"/>
<path d="M44.8964 54.4969L42.1016 52.8834L45.3051 51.0332L48.1019 52.6467L44.8964 54.4969Z" fill="#BCA0FD"/>
<path d="M45.4247 68.741L42.6279 67.1275L45.8335 65.2773L48.6283 66.8909L45.4247 68.741Z" fill="#46C4D1"/>
<path d="M54.7419 70.6361L51.9353 69.0147L55.1408 67.1665L57.9454 68.7859L54.7419 70.6361Z" fill="#BCA0FD"/>
<path d="M68.1333 68.5632L67.6502 69.1108L68.4032 69.547L67.3509 69.4511L66.8679 69.9987L66.7016 69.3905L65.6494 69.2947L66.598 69.015L66.4317 68.4087L67.1847 68.8429L68.1333 68.5632Z" fill="#FEC461"/>
<path d="M33.9677 59.1931L33.4827 59.7427L34.2376 60.1768L33.1854 60.081L32.7004 60.6286L32.5341 60.0204L31.4819 59.9245L32.4324 59.6449L32.2642 59.0386L33.0172 59.4728L33.9677 59.1931Z" fill="#FEC461"/>
<path d="M49.6668 58.0859H48.5891V58.1622H49.6668V58.0859Z" fill="#989899"/>
<path d="M48.0279 58.784C47.3962 58.784 46.8838 58.4887 46.8838 58.123C46.8838 57.7572 47.3962 57.4619 48.0279 57.4619C48.6596 57.4619 49.1721 57.7572 49.1721 58.123C49.1721 58.4887 48.6596 58.784 48.0279 58.784Z" fill="#394851"/>
<path d="M50.1867 58.1249L49.8816 58.1679L50.0127 58.3341L49.7623 58.2246L49.6196 58.385L49.6117 58.2051L49.3047 58.2403L49.5452 58.1249L49.3047 58.0075L49.6117 58.0447L49.6196 57.8628L49.7623 58.0251L50.0127 57.9136L49.8816 58.0799L50.1867 58.1249Z" fill="#FEC461"/>
<path d="M56.5508 75.9482H55.4731V76.0245H56.5508V75.9482Z" fill="#989899"/>
<path d="M54.9142 76.6463C54.2824 76.6463 53.77 76.351 53.77 75.9853C53.77 75.6195 54.2824 75.3242 54.9142 75.3242C55.5459 75.3242 56.0583 75.6195 56.0583 75.9853C56.0583 76.351 55.5459 76.6463 54.9142 76.6463Z" fill="#394851"/>
<path d="M57.0732 75.9852L56.7681 76.0302L56.8972 76.1964L56.6469 76.085L56.5041 76.2473L56.4963 76.0654L56.1892 76.1026L56.4298 75.9852L56.1892 75.8698L56.4963 75.905L56.5041 75.7251L56.6469 75.8855L56.8972 75.7759L56.7681 75.9422L57.0732 75.9852Z" fill="#FEC461"/>
<path d="M51.8804 62.8208H51.5283V64.1801H51.8804V62.8208Z" fill="#E53E3E"/>
<path d="M52.8799 63.3999H50.5251V63.6033H52.8799V63.3999Z" fill="#E53E3E"/>
<path d="M46.4534 75.1499H46.1013V76.5092H46.4534V75.1499Z" fill="#E53E3E"/>
<path d="M47.4546 75.729H45.0999V75.9324H47.4546V75.729Z" fill="#E53E3E"/>
<path d="M56.1558 68.1893L56.2927 68.2675C56.4081 68.334 56.4061 68.4416 56.2868 68.5061L54.9236 69.2552C54.8102 69.3178 54.6303 69.3158 54.5188 69.2532L54.4484 69.2122C54.3369 69.1476 54.3349 69.044 54.4425 68.9775L55.7392 68.1912C55.8507 68.1228 56.0384 68.1228 56.1538 68.1893H56.1558ZM54.1315 69.3725L54.243 69.4371C54.3564 69.5016 54.3564 69.6092 54.243 69.6737C54.1296 69.7383 53.9457 69.7383 53.8323 69.6737L53.7208 69.6092C53.6074 69.5446 53.6074 69.4371 53.7208 69.3725C53.8343 69.308 54.0181 69.308 54.1315 69.3725Z" fill="white"/>
<path d="M41.0456 64.7846L36.9326 62.4102L37.6621 61.9878L41.7751 64.3621L41.0456 64.7846Z" fill="#394851"/>
<path d="M36.5491 62.6314L36.1443 62.3968L37.7304 61.4814L38.1353 61.7161L36.5491 62.6314Z" fill="#394851"/>
<path d="M41.067 65.2403L40.6621 65.0056L42.2483 64.0903L42.6531 64.3231L41.067 65.2403Z" fill="#394851"/>
<path d="M68.3716 57.6539C68.3716 57.6539 69.2165 54.73 68.1585 54.1198C67.1004 53.5096 62.0369 53.9966 62.0369 53.9966L68.3736 57.6539H68.3716Z" fill="#F2A846"/>
<path d="M69.5588 59.0636C69.5588 59.0636 70.2746 56.5856 69.3769 56.0693C68.4792 55.551 64.1902 55.9656 64.1902 55.9656L69.5588 59.0655V59.0636Z" fill="#F9B653"/>
<path d="M37.4608 73.7325C37.4608 73.7325 38.3057 70.8086 37.2476 70.1984C36.1895 69.5882 31.126 70.0752 31.126 70.0752L37.4627 73.7325H37.4608Z" fill="#F2A846"/>
<path d="M38.6477 75.1441C38.6477 75.1441 39.3635 72.6662 38.4658 72.1498C37.5681 71.6316 33.2791 72.0462 33.2791 72.0462L38.6477 75.1461V75.1441Z" fill="#F9B653"/>
<path d="M68.9821 62.6077C68.9821 62.6077 69.4495 60.9902 68.8647 60.6519C68.2799 60.3135 65.4792 60.5834 65.4792 60.5834L68.984 62.6057L68.9821 62.6077Z" fill="#F9B653"/>
<path d="M89.0365 63.7515L51.2703 85.5565V86.3897L89.0365 64.5846V63.7515Z" fill="#FCEADE"/>
<path d="M13.5022 63.7515V64.5846L51.2704 86.3897V85.5565L13.5022 63.7515Z" fill="#F4D4BD"/>
<path d="M76.948 75.9498L75.3306 75.0169L76.948 74.082L78.5654 75.0169L76.948 75.9498Z" fill="#46C4D1"/>
<path d="M77.1023 74.3775C77.0143 74.3266 76.8715 74.3266 76.7835 74.3775C76.6955 74.4283 76.6955 74.5105 76.7835 74.5613C76.8715 74.6122 77.0143 74.6122 77.1023 74.5613C77.1903 74.5105 77.1903 74.4283 77.1023 74.3775Z" fill="white"/>
<path d="M76.1595 74.9234C76.0714 74.8725 75.9287 74.8725 75.8407 74.9234C75.7527 74.9742 75.7527 75.0564 75.8407 75.1072C75.9287 75.1581 76.0714 75.1581 76.1595 75.1072C76.2475 75.0564 76.2475 74.9742 76.1595 74.9234Z" fill="white"/>
<path d="M77.7362 75.1111C77.8242 75.162 77.967 75.162 78.055 75.1111C78.143 75.0603 78.143 74.9781 78.055 74.9273C77.967 74.8764 77.8242 74.8764 77.7362 74.9273C77.6482 74.9781 77.6482 75.0603 77.7362 75.1111Z" fill="white"/>
<path d="M77.1101 75.4712C77.0221 75.4204 76.8794 75.4204 76.7913 75.4712C76.7033 75.5221 76.7033 75.6042 76.7913 75.6551C76.8794 75.7059 77.0221 75.7059 77.1101 75.6551C77.1982 75.6042 77.1982 75.5221 77.1101 75.4712Z" fill="white"/>
<path d="M77.1062 74.9253C77.0182 74.8745 76.8755 74.8745 76.7874 74.9253C76.6994 74.9762 76.6994 75.0583 76.7874 75.1092C76.8755 75.16 77.0182 75.16 77.1062 75.1092C77.1942 75.0583 77.1942 74.9762 77.1062 74.9253Z" fill="white"/>
<path d="M78.5654 76.8849L76.948 77.8178V75.95L78.5654 75.0171V76.8849Z" fill="#35B1B7"/>
<path d="M77.2802 75.9637C77.1922 76.0146 77.1218 76.1378 77.1218 76.2395C77.1218 76.3412 77.1922 76.3822 77.2802 76.3314C77.3683 76.2805 77.4387 76.1573 77.4387 76.0556C77.4387 75.9539 77.3683 75.9129 77.2802 75.9637Z" fill="#CFDAE2"/>
<path d="M77.2802 77.0531C77.1922 77.1039 77.1218 77.2271 77.1218 77.3288C77.1218 77.4305 77.1922 77.4716 77.2802 77.4207C77.3683 77.3699 77.4387 77.2467 77.4387 77.145C77.4387 77.0433 77.3683 77.0022 77.2802 77.0531Z" fill="#CFDAE2"/>
<path d="M78.2309 75.7821C78.3189 75.7312 78.3893 75.608 78.3893 75.5063C78.3893 75.4046 78.3189 75.3635 78.2309 75.4144C78.1429 75.4652 78.0725 75.5885 78.0725 75.6902C78.0725 75.7919 78.1429 75.8329 78.2309 75.7821Z" fill="#CFDAE2"/>
<path d="M78.2309 76.5033C78.1429 76.5541 78.0725 76.6773 78.0725 76.779C78.0725 76.8807 78.1429 76.9218 78.2309 76.8709C78.3189 76.8201 78.3893 76.6969 78.3893 76.5952C78.3893 76.4935 78.3189 76.4524 78.2309 76.5033Z" fill="#CFDAE2"/>
<path d="M75.3306 76.8849L76.948 77.8178V75.95L75.3306 75.0171V76.8849Z" fill="#2BA3A3"/>
<path d="M76.6135 75.9637C76.7015 76.0146 76.7719 76.1378 76.7719 76.2395C76.7719 76.3412 76.7015 76.3822 76.6135 76.3314C76.5255 76.2805 76.4551 76.1573 76.4551 76.0556C76.4551 75.9539 76.5255 75.9129 76.6135 75.9637Z" fill="#B2CACC"/>
<path d="M76.6135 77.0531C76.7015 77.1039 76.7719 77.2271 76.7719 77.3288C76.7719 77.4305 76.7015 77.4716 76.6135 77.4207C76.5255 77.3699 76.4551 77.2467 76.4551 77.145C76.4551 77.0433 76.5255 77.0022 76.6135 77.0531Z" fill="#B2CACC"/>
<path d="M76.6135 76.5077C76.7015 76.5585 76.7719 76.6817 76.7719 76.7834C76.7719 76.8851 76.7015 76.9262 76.6135 76.8753C76.5255 76.8245 76.4551 76.7013 76.4551 76.5996C76.4551 76.4979 76.5255 76.4568 76.6135 76.5077Z" fill="#B2CACC"/>
<path d="M75.6628 75.7821C75.5748 75.7312 75.5044 75.608 75.5044 75.5063C75.5044 75.4046 75.5748 75.3635 75.6628 75.4144C75.7508 75.4652 75.8212 75.5885 75.8212 75.6902C75.8212 75.7919 75.7508 75.8329 75.6628 75.7821Z" fill="#B2CACC"/>
<path d="M75.6628 76.5033C75.7508 76.5541 75.8212 76.6773 75.8212 76.779C75.8212 76.8807 75.7508 76.9218 75.6628 76.8709C75.5748 76.8201 75.5044 76.6969 75.5044 76.5952C75.5044 76.4935 75.5748 76.4524 75.6628 76.5033Z" fill="#B2CACC"/>
<path d="M75.6628 75.9598C75.7508 76.0107 75.8212 76.1339 75.8212 76.2356C75.8212 76.3373 75.7508 76.3783 75.6628 76.3275C75.5748 76.2766 75.5044 76.1534 75.5044 76.0517C75.5044 75.95 75.5748 75.9089 75.6628 75.9598Z" fill="#B2CACC"/>
<path d="M81.1372 76.756L79.5198 75.8231L81.1372 74.8882L82.7546 75.8231L81.1372 76.756Z" fill="#E53E3E"/>
<path d="M80.3489 75.7291C80.2609 75.6782 80.1181 75.6782 80.0301 75.7291C79.9421 75.7799 79.9421 75.862 80.0301 75.9129C80.1181 75.9638 80.2609 75.9638 80.3489 75.9129C80.4369 75.862 80.4369 75.7799 80.3489 75.7291Z" fill="white"/>
<path d="M81.9254 75.9168C82.0134 75.9677 82.1562 75.9677 82.2442 75.9168C82.3322 75.866 82.3322 75.7838 82.2442 75.733C82.1562 75.6821 82.0134 75.6821 81.9254 75.733C81.8374 75.7838 81.8374 75.866 81.9254 75.9168Z" fill="white"/>
<path d="M81.2957 75.731C81.2077 75.6802 81.0649 75.6802 80.9769 75.731C80.8889 75.7819 80.8889 75.864 80.9769 75.9149C81.0649 75.9657 81.2077 75.9657 81.2957 75.9149C81.3837 75.864 81.3837 75.7819 81.2957 75.731Z" fill="white"/>
<path d="M82.7546 77.6905L81.1372 78.6254V76.7576L82.7546 75.8228V77.6905Z" fill="#CE3030"/>
<path d="M81.945 77.0394C81.857 77.0902 81.7866 77.2135 81.7866 77.3152C81.7866 77.4169 81.857 77.4579 81.945 77.4071C82.0331 77.3562 82.1035 77.233 82.1035 77.1313C82.1035 77.0296 82.0331 76.9885 81.945 77.0394Z" fill="#E5CFD5"/>
<path d="M79.5198 77.6905L81.1372 78.6234V76.7557L79.5198 75.8228V77.6905Z" fill="#B22020"/>
<path d="M80.8027 76.7694C80.8907 76.8202 80.9611 76.9434 80.9611 77.0451C80.9611 77.1468 80.8907 77.1879 80.8027 77.1371C80.7147 77.0862 80.6443 76.963 80.6443 76.8613C80.6443 76.7596 80.7147 76.7185 80.8027 76.7694Z" fill="#CCB0B9"/>
<path d="M80.8027 77.8587C80.8907 77.9096 80.9611 78.0328 80.9611 78.1345C80.9611 78.2362 80.8907 78.2773 80.8027 78.2264C80.7147 78.1756 80.6443 78.0523 80.6443 77.9506C80.6443 77.8489 80.7147 77.8079 80.8027 77.8587Z" fill="#CCB0B9"/>
<path d="M79.8523 76.5877C79.7643 76.5369 79.6938 76.4137 79.6938 76.312C79.6938 76.2103 79.7643 76.1692 79.8523 76.2201C79.9403 76.2709 80.0107 76.3941 80.0107 76.4958C80.0107 76.5975 79.9403 76.6386 79.8523 76.5877Z" fill="#CCB0B9"/>
<path d="M79.8523 77.3094C79.9403 77.3603 80.0107 77.4835 80.0107 77.5852C80.0107 77.6869 79.9403 77.7279 79.8523 77.6771C79.7643 77.6262 79.6938 77.503 79.6938 77.4013C79.6938 77.2996 79.7643 77.2586 79.8523 77.3094Z" fill="#CCB0B9"/>
<path d="M80.3274 77.0394C80.4154 77.0902 80.4858 77.2135 80.4858 77.3152C80.4858 77.4169 80.4154 77.4579 80.3274 77.4071C80.2394 77.3562 80.1689 77.233 80.1689 77.1313C80.1689 77.0296 80.2394 76.9885 80.3274 77.0394Z" fill="#CCB0B9"/>
<path d="M37.5564 57.8374C37.0166 58.1288 35.9312 58.2755 35.3914 57.9821C34.8516 57.6907 34.9983 57.2096 35.5381 56.9162C36.0779 56.6229 37.0147 56.486 37.5545 56.7774C38.0943 57.0707 38.0943 57.544 37.5545 57.8354L37.5564 57.8374Z" fill="#D6E5F2"/>
<path d="M38.2352 56.5898L35.1372 56.6094C35.1372 56.6094 35.1411 56.9947 35.1411 57.2235C35.1411 57.4523 35.2917 57.6812 35.5949 57.8552C36.1992 58.2034 37.179 58.2034 37.7834 57.8552C38.0865 57.6812 38.2371 57.4523 38.2371 57.2235C38.2371 56.9947 38.2371 56.5898 38.2371 56.5898H38.2352Z" fill="#C62A2A"/>
<path d="M38.2351 56.5898L37.3647 56.5957V58.0273C37.5153 57.9843 37.6581 57.9276 37.7833 57.8552C38.0864 57.6812 38.237 57.4523 38.237 57.2235C38.237 56.9947 38.237 56.5898 38.237 56.5898H38.2351Z" fill="#D83535"/>
<path d="M37.7834 57.2526C37.179 57.6007 36.1992 57.6007 35.5949 57.2526C34.9905 56.9044 34.9905 56.3373 35.5949 55.9891C36.1992 55.641 37.179 55.641 37.7834 55.9891C38.3877 56.3373 38.3877 56.9044 37.7834 57.2526Z" fill="#E53E3E"/>
<path d="M37.3802 57.0766C36.9108 57.3152 36.1481 57.3152 35.6787 57.0766C35.2093 56.8361 35.2093 56.4488 35.6787 56.2083C36.1481 55.9696 36.9108 55.9696 37.3802 56.2083C37.8496 56.4469 37.8496 56.8361 37.3802 57.0766Z" fill="#C62A2A"/>
<path d="M37.7402 56.5152C37.7402 56.877 37.261 57.1704 36.6704 57.1704C36.0798 57.1704 35.6006 56.877 35.6006 56.5152C35.6006 56.1534 36.0798 53.9336 36.6704 53.9336C37.261 53.9336 37.7402 56.1534 37.7402 56.5152Z" fill="#E53E3E"/>
<path d="M36.6702 56.1867C37.0888 56.1867 37.4506 56.0381 37.6266 55.8249C37.5914 55.6704 37.5484 55.5002 37.4995 55.3301C37.3039 55.4787 37.0066 55.5746 36.6702 55.5746C36.3339 55.5746 36.0366 55.4787 35.841 55.3301C35.7921 55.5002 35.7491 55.6684 35.7139 55.8249C35.8899 56.04 36.2517 56.1867 36.6702 56.1867Z" fill="#FEC461"/>
<path d="M37.2121 54.5306C37.0536 54.1864 36.8679 53.936 36.6703 53.936C36.4571 53.936 36.2381 54.2177 36.021 54.7848C36.3417 54.9843 36.9813 54.8142 37.2121 54.5306Z" fill="#D32F2F"/>
<path d="M37.5116 53.7912C37.5116 54.2567 37.1341 54.6322 36.6706 54.6322C36.2071 54.6322 35.8296 54.2547 35.8296 53.7912C35.8296 53.3277 36.2071 52.9502 36.6706 52.9502C37.1341 52.9502 37.5116 53.3277 37.5116 53.7912Z" fill="#E53E3E"/>
<path d="M61.5537 65.6469C61.014 65.9403 59.9285 66.085 59.3887 65.7916C58.8489 65.5002 58.9956 65.0191 59.5354 64.7257C60.0752 64.4343 61.012 64.2955 61.5518 64.5869C62.0916 64.8803 62.0916 65.3535 61.5518 65.645L61.5537 65.6469Z" fill="#D6E5F2"/>
<path d="M62.2347 64.3994L59.1367 64.419C59.1367 64.419 59.1406 64.8043 59.1406 65.0331C59.1406 65.2619 59.2912 65.4907 59.5944 65.6648C60.1987 66.0129 61.1786 66.0129 61.7829 65.6648C62.086 65.4907 62.2366 65.2619 62.2366 65.0331C62.2366 64.8043 62.2366 64.3994 62.2366 64.3994H62.2347Z" fill="#2BA3A3"/>
<path d="M62.2343 64.3994L61.364 64.4053V65.8369C61.5146 65.7939 61.6574 65.7372 61.7826 65.6648C62.0857 65.4907 62.2363 65.2619 62.2363 65.0331C62.2363 64.8043 62.2363 64.3994 62.2363 64.3994H62.2343Z" fill="#35B1B7"/>
<path d="M61.7807 65.0621C61.1764 65.4103 60.1965 65.4103 59.5922 65.0621C58.9878 64.714 58.9878 64.1468 59.5922 63.7987C60.1965 63.4506 61.1764 63.4506 61.7807 63.7987C62.385 64.1468 62.385 64.714 61.7807 65.0621Z" fill="#46C4D1"/>
<path d="M61.3797 64.8859C60.9104 65.1246 60.1476 65.1246 59.6782 64.8859C59.2088 64.6473 59.2088 64.2581 59.6782 64.0176C60.1476 63.777 60.9104 63.779 61.3797 64.0176C61.8491 64.2562 61.8491 64.6454 61.3797 64.8859Z" fill="#2BA3A3"/>
<path d="M61.7397 64.3248C61.7397 64.6866 61.2606 64.98 60.6699 64.98C60.0793 64.98 59.6001 64.6866 59.6001 64.3248C59.6001 63.963 60.0793 61.7432 60.6699 61.7432C61.2606 61.7432 61.7397 63.963 61.7397 64.3248Z" fill="#46C4D1"/>
<path d="M60.6698 63.9963C61.0883 63.9963 61.4501 63.8476 61.6261 63.6345C61.5909 63.48 61.5479 63.3098 61.499 63.1396C61.3034 63.2883 61.0062 63.3841 60.6698 63.3841C60.3334 63.3841 60.0361 63.2883 59.8405 63.1396C59.7916 63.3098 59.7486 63.478 59.7134 63.6345C59.8894 63.8496 60.2512 63.9963 60.6698 63.9963Z" fill="#FEC461"/>
<path d="M61.2116 62.3397C61.0532 61.9955 60.8674 61.7451 60.6698 61.7451C60.4566 61.7451 60.2376 62.0267 60.0205 62.5939C60.3413 62.7934 60.9808 62.6233 61.2116 62.3397Z" fill="#2BA3A3"/>
<path d="M61.5108 61.6003C61.5108 62.0657 61.1334 62.4413 60.6698 62.4413C60.2063 62.4413 59.8289 62.0638 59.8289 61.6003C59.8289 61.1367 60.2063 60.7593 60.6698 60.7593C61.1334 60.7593 61.5108 61.1367 61.5108 61.6003Z" fill="#46C4D1"/>
<defs>
<clipPath id="clip0_1135_31161">
<rect width="77" height="46" fill="white" transform="translate(13.0356 44.0156)"/>
</clipPath>
</defs>
</svg>
