<?xml version="1.0" encoding="UTF-8"?><svg id="Layer_2" xmlns="http://www.w3.org/2000/svg" width="350.56" height="135.16" viewBox="0 0 350.56 135.16"><g id="_תפוס_את_החפרפרת"><path d="m66.6,17.51c-4.87,10.26-9.23,20.5-18.45,22.96-1.88.5-5.46,1.3-10.33,3.52-2.2,1-4.67,2.58-7.67,5.39-9.87,9.26-4.55,20.25-22.76,34.59-15.64,12.31-4.08,19.76,12.62,20.89,4.12.28,8.1,1.92,11.09,4.77,3.83,3.65,13.45,7.43,37.55,3.24,9.52-1.66,19.27,1.72,25.62,9.01.09.11.19.22.28.32,8.84,10.35,36.96,5.26,40.67,5.33,3.38.06,2.31.66,10.76,3.54,33.45,11.4,45.33-5.03,75.78-2.05,8.73.86,30.42-.22,41.59-16.76.04-.06.08-.11.13-.16.84-.76,8.7-7.12,25.87,1.89,16.54,8.68,28.75-6.29,30.86-9.11.21-.28.53-.42.88-.39,4.31.43,32.2,2.69,29.26-10.75,0,0,.68-5.23-16.39-14.79-11.38-6.37-12.95-16.89-12.73-23.2.21-5.91-1.99-11.72-6.42-15.63-3.11-2.75-7.42-5.08-13.24-5.54-.11,0-.22-.04-.32-.08-.72-.34-3.58-1.94-4.35-6.3-1.63-9.19-7.35-17.13-15.91-20.86C272.42,3.62,261.55.19,250.3,0c-.69-.01-1.18.68-.94,1.34,1.02,2.77,2.84,9.09-.48,11.7-23.59,18.55-26.46-2.69-40.85,8.47-13.3,10.32-37.61,24.44-64.2-1.82,0,0-6.65-6.65-20.61,1.33-2.9,1.66-4.46,1.92-6.56,1.45-6.93-1.54-4.49-13.38-12.02-18.54-10.44-7.16-31.19-.85-38.03,13.58Z" fill="#9b6449"/><path d="m8.23,97.51c-1.27.02-2.53-.59-3.11-1.72-1.81-3.51,3.65-8.73,9.26-12.92,5.9-4.4,7.96-9.9,11.13-16.55,2.84-5.96,5.99-14.75,13.64-18.03,5.47-2.34,12.96-5.61,14.68-10.72-1.68,1.31-3.55,2.31-5.69,2.89-1.88.5-5.46,1.3-10.33,3.52-2.2,1-4.67,2.58-7.67,5.39-9.87,9.26-4.55,20.25-22.76,34.59-15.64,12.32-4.07,19.76,12.63,20.9,4.13.28,8.09,1.91,11.08,4.77.58.55,1.3,1.11,2.17,1.64-1.59-3.24-3.09-7.88-5.51-9.79-7.92-6.25-15.4-4.04-19.52-3.97Z" fill="#82502e"/><ellipse cx="30.95" cy="85" rx="2.17" ry="1.19" fill="#774c2f"/><ellipse cx="55.7" cy="85.18" rx="2.5" ry="1.38" transform="translate(-25.21 23.44) rotate(-19.47)" fill="#774c2f"/><ellipse cx="98.89" cy="101.02" rx=".74" ry=".79" transform="translate(-38.92 69.54) rotate(-32.74)" fill="#774c2f"/><ellipse cx="141.19" cy="46.07" rx=".74" ry=".79" transform="translate(-2.48 83.68) rotate(-32.74)" fill="#774c2f"/><ellipse cx="71.93" cy="83.15" rx=".74" ry=".79" transform="translate(-33.54 52.11) rotate(-32.74)" fill="#774c2f"/><ellipse cx="57.51" cy="97.57" rx=".74" ry=".79" transform="translate(-43.63 46.61) rotate(-32.74)" fill="#774c2f"/><ellipse cx="22.68" cy="99.5" rx="1.02" ry="1.86" transform="translate(-74.83 69.39) rotate(-60)" fill="#774c2f"/><circle cx="97.22" cy="78.21" r="3.05" fill="#774c2f"/><circle cx="97.22" cy="35.2" r="3.05" fill="#774c2f"/><ellipse cx="208.32" cy="38.36" rx="3.05" ry="4.38" transform="translate(70.94 199.59) rotate(-60)" fill="#774c2f"/><ellipse cx="76.64" cy="36.36" rx="3.05" ry="4.38" transform="translate(6.83 84.56) rotate(-60)" fill="#774c2f"/><ellipse cx="147.55" cy="107.27" rx="3.05" ry="4.38" transform="translate(-19.12 181.42) rotate(-60)" fill="#774c2f"/><ellipse cx="82.28" cy="93.58" rx="2.17" ry="1.19" fill="#774c2f"/><ellipse cx="132.78" cy="88.67" rx="2.17" ry="1.19" fill="#774c2f"/><ellipse cx="108.54" cy="93.58" rx="2.5" ry="1.38" transform="translate(-24.98 41.53) rotate(-19.47)" fill="#774c2f"/><ellipse cx="53.84" cy="76.87" rx="2.5" ry="1.38" transform="translate(-22.54 22.34) rotate(-19.47)" fill="#774c2f"/><ellipse cx="134.95" cy="72.69" rx=".74" ry=".79" transform="translate(-17.87 84.54) rotate(-32.74)" fill="#774c2f"/><ellipse cx="135.26" cy="65.21" rx=".48" ry=".51" transform="translate(-1.81 126.53) rotate(-49.84)" fill="#774c2f"/><ellipse cx="98.47" cy="42.95" rx="1.02" ry="1.86" transform="translate(12.04 106.75) rotate(-60)" fill="#774c2f"/><ellipse cx="125.85" cy="54.11" rx="1.86" ry="1.02" transform="translate(-6.42 89.77) rotate(-38.35)" fill="#774c2f"/><ellipse cx="77.87" cy="73.86" rx=".74" ry=".79" transform="translate(-27.58 53.85) rotate(-32.74)" fill="#774c2f"/><ellipse cx="111.8" cy="71.91" rx=".74" ry=".79" transform="translate(-21.13 71.89) rotate(-32.74)" fill="#774c2f"/><ellipse cx="185.96" cy="48.63" rx="1.31" ry=".72" transform="translate(10.64 127.43) rotate(-38.86)" fill="#774c2f"/><ellipse cx="191.31" cy="62.58" rx=".83" ry="1.51" transform="translate(94.91 239.28) rotate(-79.5)" fill="#774c2f"/><ellipse cx="190.33" cy="83.74" rx=".48" ry=".45" transform="translate(11 188.99) rotate(-54.16)" fill="#774c2f"/><ellipse cx="169.01" cy="67.36" rx=".48" ry=".45" transform="translate(15.45 164.92) rotate(-54.16)" fill="#774c2f"/><ellipse cx="232.12" cy="101.99" rx=".48" ry=".45" transform="translate(13.53 230.43) rotate(-54.16)" fill="#774c2f"/><ellipse cx="196.03" cy="71.25" rx=".48" ry=".45" transform="translate(23.49 188.43) rotate(-54.16)" fill="#774c2f"/><ellipse cx="184.75" cy="66.32" rx=".48" ry=".45" transform="translate(22.81 177.25) rotate(-54.16)" fill="#774c2f"/><ellipse cx="179.76" cy="124.88" rx=".48" ry=".45" transform="translate(-26.73 197.47) rotate(-54.16)" fill="#774c2f"/><ellipse cx="175.99" cy="47.18" rx="1.12" ry=".62" fill="#774c2f"/><circle cx="204.37" cy="84.37" r="1.84" fill="#774c2f"/><ellipse cx="198.67" cy="115.05" rx="2.64" ry="1.84" transform="translate(-10.09 19.52) rotate(-5.49)" fill="#774c2f"/><ellipse cx="169.47" cy="87.47" rx=".72" ry="1.31" transform="translate(-20.24 67.92) rotate(-21.42)" fill="#774c2f"/><ellipse cx="206.34" cy="106.65" rx="1.31" ry=".72" transform="translate(-11.63 26.41) rotate(-7.12)" fill="#774c2f"/><ellipse cx="186.56" cy="106.65" rx="1.31" ry=".72" transform="translate(-11.79 23.96) rotate(-7.12)" fill="#774c2f"/><circle cx="166.06" cy="117.77" r="2.31" fill="#774c2f"/><ellipse cx="216.22" cy="112.35" rx=".83" ry="1.51" transform="translate(-20.79 168.94) rotate(-40.89)" fill="#774c2f"/><ellipse cx="215.79" cy="104.35" rx=".48" ry=".45" transform="translate(4.84 218.18) rotate(-54.16)" fill="#774c2f"/><ellipse cx="220.06" cy="102.88" rx=".31" ry=".29" transform="translate(51.93 278.21) rotate(-71.26)" fill="#774c2f"/><ellipse cx="217.46" cy="77.91" rx=".62" ry="1.12" transform="translate(85.98 267.83) rotate(-75.01)" fill="#774c2f"/><ellipse cx="222.57" cy="97.21" rx="1.51" ry="2" transform="translate(62.7 280.04) rotate(-72.43)" fill="#774c2f"/><ellipse cx="202.55" cy="72.54" rx=".48" ry=".45" transform="translate(25.14 194.26) rotate(-54.16)" fill="#774c2f"/><ellipse cx="181" cy="94.56" rx=".48" ry=".45" transform="translate(-1.64 185.91) rotate(-54.16)" fill="#774c2f"/><ellipse cx="211.13" cy="91.17" rx=".48" ry=".45" transform="translate(13.6 208.93) rotate(-54.16)" fill="#774c2f"/><ellipse cx="262.04" cy="11.13" rx="2.5" ry="1.38" transform="translate(199.92 265.94) rotate(-78.73)" fill="#774c2f"/><ellipse cx="280.78" cy="40.81" rx=".74" ry=".79" transform="translate(127.04 279.28) rotate(-65.46)" fill="#774c2f"/><ellipse cx="235.51" cy="101.32" rx=".74" ry=".79" transform="translate(45.53 273.48) rotate(-65.46)" fill="#774c2f"/><ellipse cx="262.33" cy="27.48" rx=".74" ry=".79" transform="translate(128.38 254.71) rotate(-65.46)" fill="#774c2f"/><ellipse cx="274.55" cy="11.15" rx=".74" ry=".79" transform="translate(150.38 256.27) rotate(-65.46)" fill="#774c2f"/><circle cx="261.06" cy="53.22" r="3.05" fill="#774c2f"/><ellipse cx="294.41" cy="92.75" rx="3.05" ry="4.38" transform="translate(5.69 201.93) rotate(-38.2)" fill="#774c2f"/><ellipse cx="274.14" cy="36.24" rx="1.19" ry="2.17" transform="translate(-2.37 39.48) rotate(-8.2)" fill="#774c2f"/><ellipse cx="276.48" cy="86.92" rx="1.19" ry="2.17" transform="translate(-9.57 40.33) rotate(-8.2)" fill="#774c2f"/><ellipse cx="277.89" cy="62.23" rx="2.5" ry="1.38" transform="translate(162.56 322.6) rotate(-78.73)" fill="#774c2f"/><ellipse cx="266.91" cy="103.23" rx="2.5" ry="1.38" transform="translate(113.52 344.83) rotate(-78.73)" fill="#774c2f"/><ellipse cx="260.97" cy="91.35" rx=".74" ry=".79" transform="translate(69.48 290.81) rotate(-65.46)" fill="#774c2f"/><ellipse cx="253.62" cy="92.72" rx=".48" ry=".51" transform="translate(15.81 220.66) rotate(-48.36)" fill="#774c2f"/><ellipse cx="236.91" cy="54.63" rx="1.02" ry="1.86" transform="translate(16.95 158.21) rotate(-38.2)" fill="#774c2f"/><ellipse cx="241.29" cy="84.99" rx="1.86" ry="1.02" transform="translate(46.59 250.94) rotate(-59.85)" fill="#774c2f"/><ellipse cx="253.99" cy="34.69" rx=".74" ry=".79" transform="translate(116.95 251.33) rotate(-65.46)" fill="#774c2f"/><ellipse cx="256.9" cy="68.55" rx=".74" ry=".79" transform="translate(87.85 273.77) rotate(-65.46)" fill="#774c2f"/><path d="m97.67,52.33c-19.01,14.21-20.08,44.15-19.04,60.63,5.07.96,9.82,3.32,13.65,6.89-15.02-12.22,5.39-67.52,5.39-67.52Z" fill="#82502e"/><path d="m350.34,93.76s.68-5.23-16.39-14.79c-11.38-6.37-12.95-16.89-12.73-23.2.21-5.91-1.99-11.72-6.42-15.63-3.11-2.75-7.42-5.08-13.24-5.54-.11,0-.22-.04-.32-.08-.72-.34-3.58-1.94-4.35-6.3-1.39-7.85-5.78-14.78-12.36-18.96,3.86,6.56,7.03,14.07,7.07,21.06.02,4.02,1.8,7.9,5.14,10.13,2.32,1.55,5.32,2.58,8.91,1.76,9.14-2.08,10.25,21.02,10.25,21.02,0,0,.04,16.48,25.18,27.7,7.97,3.56,5.21,8.39-2.27,13.34,6.98-1.11,12.96-3.92,11.52-10.51Z" fill="#82502e"/><path d="m247.69,73.07s15.16,19.27,16.27,38.66c.57-.42,1.59-1.05,3.1-1.58,1.3-8.97-.95-22.73-19.37-37.09Z" fill="#82502e"/><path d="m132.29,91.83c1.78,4.36.23,10.61-7.04,10.95-13.5.62-19.1-3.5-19.34-7.52s4.15-8.49,11.41-8.93c7.26-.44,13.45,1.78,14.97,5.5Z" fill="#d1ad82"/><path d="m125.25,102.78c7.27-.34,8.82-6.58,7.04-10.95-.2-.5-.5-.97-.86-1.41-1.87,3.65-9.7,10.04-13.36,7.62-4.23-2.79-9.23-1.62-12.12-2.5.48,3.92,6.12,7.85,19.3,7.24Z" fill="#b5926d"/><path d="m125.25,102.78c6.07-.28,8.15-4.69,7.63-8.67-4.22,7.95-10.7,8.14-22.38,6.59,3.11,1.49,7.92,2.39,14.75,2.08Z" fill="#937257"/><path d="m109.69,92.96s.84-4.23,9.05-4.34c0,0-6.88,1.3-9.05,4.34Z" fill="#d3c4b6"/><path d="m60.77,86.08c.97,2.39.13,5.8-3.85,5.99-7.38.34-10.44-1.92-10.58-4.11s1.39-6.52,6.24-4.88c3.77,1.27,7.36.97,8.19,3.01Z" fill="#c4b29f"/><path d="m56.92,92.07c3.27-.15,4.42-2.48,4.19-4.64-2.87.87-3.8.55-7.75,1.46-5.3,1.23-7.48-2.85-7.01-1.16,0,.07,0,.15,0,.22.13,2.19,3.2,4.45,10.58,4.11Z" fill="#ad9f92"/><path d="m56.92,92.07c3.32-.15,4.46-2.56,4.17-4.74-1.76,1.61-5.85,4.45-12.24,3.61,1.7.81,4.33,1.31,8.07,1.14Z" fill="#a09287"/><path d="m48.41,86.7s.46-2.31,4.95-2.37c0,0-3.77.71-4.95,2.37Z" fill="#d3c4b6"/><path d="m305.78,80.21c.97,2.39.13,5.8-3.85,5.99-7.38.34-10.44-1.92-10.58-4.11s1.39-6.52,6.24-4.88c3.77,1.27,7.36.97,8.19,3.01Z" fill="#c4b29f"/><path d="m301.93,86.2c3.27-.15,4.42-2.48,4.19-4.64-2.87.87-3.8.55-7.75,1.46-5.3,1.23-7.48-2.85-7.01-1.16,0,.07,0,.15,0,.22.13,2.19,3.2,4.45,10.58,4.11Z" fill="#ad9f92"/><path d="m301.93,86.2c3.32-.15,4.46-2.56,4.17-4.74-1.76,1.61-5.85,4.45-12.24,3.61,1.7.81,4.33,1.31,8.07,1.14Z" fill="#a09287"/><path d="m293.42,80.82s.46-2.31,4.95-2.37c0,0-3.77.71-4.95,2.37Z" fill="#d3c4b6"/><path d="m80.84,71.24c.59,1.35.21,3.33-1.95,3.54-4.01.37-5.73-.85-5.86-2.11s.59-2.16,3.27-2.96c1.91-.57,4.03.38,4.53,1.54Z" fill="#c4b29f"/><path d="m78.9,74.77c1.8-.17,2.36-1.58,2.15-2.83-.92.97-3.07,2.7-6.57,2.37.95.43,2.39.65,4.42.46Z" fill="#ad9f92"/><path d="m74.13,71.88s.19-1.34,2.63-1.48c0,0-2.03.5-2.63,1.48Z" fill="#d3c4b6"/><path d="m225.26,104.97c.38.86.14,2.13-1.24,2.26-2.56.24-3.67-.55-3.75-1.35s.38-1.38,2.09-1.89c1.22-.36,2.58.25,2.9.98Z" fill="#c4b29f"/><path d="m224.01,107.23c1.15-.11,1.51-1.01,1.38-1.81-.59.62-1.97,1.73-4.2,1.51.61.27,1.53.42,2.83.29Z" fill="#ad9f92"/><path d="m220.96,105.38s.12-.86,1.68-.95c0,0-1.3.32-1.68.95Z" fill="#d3c4b6"/><path d="m147.76,58.61c.78,1.79.28,4.42-2.58,4.68-5.31.49-7.6-1.13-7.77-2.8s.78-2.86,4.34-3.92c2.53-.75,5.34.51,6.01,2.03Z" fill="#c4b29f"/><path d="m145.18,63.3c2.39-.22,3.13-2.09,2.85-3.75-1.21,1.28-4.07,3.58-8.71,3.14,1.26.57,3.17.86,5.86.61Z" fill="#ad9f92"/><path d="m138.86,59.47s.26-1.78,3.49-1.97c0,0-2.69.66-3.49,1.97Z" fill="#d3c4b6"/><path d="m245.21,90.43c2.76,2.86,3.93,8.22-.87,10.72-8.9,4.64-15.56,3.08-15.74.07-.49-7.8-.22-7.91,4.54-10.49s9.72-2.74,12.08-.3Z" fill="#d1ad82"/><path d="m244.34,101.15c4.01-2.09,3.84-6.17,2.07-9.12-1.12,3.29-4.34,9.65-12.78,12.03,2.63.21,6.2-.56,10.71-2.91Z" fill="#b5926d"/><path d="m230.33,98.26s-.93-3.56,4.57-6.17c0,0-4.19,3.13-4.57,6.17Z" fill="#d3c4b6"/><path d="m189.34,99.8c.62,2.18-.22,5.2-3.31,5.17-5.73-.05-8.64-2.6-7.95-4.18,1.77-4.09,2.54-2.34,5.09-4.07,1.79-1.22,5.64,1.22,6.17,3.08Z" fill="#d1ad82"/><path d="m186.03,104.97c2.58.02,3.59-2.08,3.49-4.04-1.45,1.36-4.77,3.7-9.66,2.64,1.27.81,3.28,1.38,6.18,1.4Z" fill="#b5926d"/><path d="m179.46,100.01c-.4.07-.45-1.89,3.96-1.89,0,0-2.95.45-3.96,1.89Z" fill="#d3c4b6"/><path d="m177.34,105.04c.23.8-.08,1.92-1.22,1.91-2.11-.02-3.1-.93-2.94-1.54.45-1.67.92-1.38,1.88-1.5.79-.1,2.08.45,2.28,1.14Z" fill="#d1ad82"/><path d="m176.12,106.95c.95,0,1.32-.77,1.29-1.49-.53.5-1.76,1.37-3.57.98.47.3,1.21.51,2.28.52Z" fill="#b5926d"/><path d="m173.69,105.12c-.15.02-.17-.7,1.46-.7,0,0-1.09.17-1.46.7Z" fill="#d3c4b6"/><path d="m182.72,106.9c.15.53-.05,1.27-.81,1.26-1.4-.01-2.05-.61-1.94-1.02.3-1.11.61-.92,1.24-.99.52-.07,1.38.3,1.51.75Z" fill="#d1ad82"/><path d="m181.91,108.16c.63,0,.88-.51.85-.99-.35.33-1.17.91-2.36.65.31.2.8.34,1.51.34Z" fill="#b5926d"/><path d="m180.3,106.95c-.1.02-.11-.46.97-.46,0,0-.72.11-.97.46Z" fill="#d3c4b6"/><path d="m280.85,34.33c1.39,3.4.18,8.26-5.48,8.52-10.51.49-14.87-2.73-15.06-5.85-.19-3.13-1.98-3.77,8.88-6.96,5.44-1.59,10.47,1.39,11.66,4.28Z" fill="#d1ad82"/><path d="m275.37,42.85c5.66-.26,6.87-5.13,5.48-8.52-.16-.39-.39-.76-.67-1.1-1.45,2.84-7.55,7.81-10.4,5.93-3.29-2.18-7.19-1.26-9.44-1.94.38,3.05,4.76,6.11,15.03,5.64Z" fill="#b5926d"/><path d="m275.37,42.85c4.73-.22,6.34-3.65,5.94-6.75-3.28,6.19-8.33,6.34-17.43,5.14,2.43,1.16,6.16,1.86,11.49,1.62Z" fill="#937257"/><path d="m263.25,35.2s.66-3.29,7.04-3.38c0,0-5.36,1.01-7.04,3.38Z" fill="#d3c4b6"/><path d="m169.47,50.55s36.67,15.08,15.28,30.99c0,0-6.71,1.78,0-8.99s-15.28-21.99-15.28-21.99Z" fill="#82502e"/><path d="m84.45,39.5s-7.41,9.19,0,8.3c0,0-4.16-.27,0-8.3Z" fill="#935932"/><path d="m196.03,125.24c-14.45,8.65-40.21,6.47-47.94,1.98-11.24-6.53-11.75-5.35-19.6-3.36-2.2.56-14.86,2.68-24.49,3.51,11.82,2.99,28.43.12,31.22.17,3.38.06,2.31.66,10.76,3.54,33.45,11.4,45.33-5.03,75.78-2.05,3.47.34,8.99.37,15.07-.75-12.31-3.11-26.55-11.58-40.81-3.05Z" fill="#82502e"/></g></svg>