<svg width="87" height="87" viewBox="0 0 87 87" fill="none" xmlns="http://www.w3.org/2000/svg">
<path d="M72.944 0.897949H14.6092C6.9814 0.897949 0.797852 7.0815 0.797852 14.7093V73.0441C0.797852 80.6719 6.9814 86.8555 14.6092 86.8555H72.944C80.5718 86.8555 86.7554 80.6719 86.7554 73.0441V14.7093C86.7554 7.0815 80.5718 0.897949 72.944 0.897949Z" fill="#AC4781"/>
<path d="M71.8467 2.52539H15.7064C8.37144 2.52539 2.42529 8.47153 2.42529 15.8065V71.9468C2.42529 79.2817 8.37144 85.2279 15.7064 85.2279H71.8467C79.1816 85.2279 85.1278 79.2817 85.1278 71.9468V15.8065C85.1278 8.47153 79.1816 2.52539 71.8467 2.52539Z" fill="white"/>
<g clip-path="url(#clip0_2376_15641)">
<path d="M61.6646 62.8643L57.9646 58.0643L58.5646 57.4643L60.6646 55.3643L59.6646 54.2643L31.2646 26.0643L32.7646 24.5643L31.9646 23.7643L31.4646 23.2643L27.8646 26.7643L26.6646 27.9643L17.5646 18.8643L18.5646 17.8643L19.7646 16.6643L17.4646 14.3643L12.1646 19.6643L14.4646 21.9643L16.6646 19.7643L25.7646 28.8643L20.9646 33.6643L22.2646 34.9643L24.5646 32.6643L23.7646 33.4643L53.0646 62.8643L55.7646 60.1643L60.5646 63.8643L61.6646 62.8643ZM29.2646 28.1643L45.0646 44.0643L43.8646 45.1643L28.0646 29.3643L29.2646 28.1643ZM27.0646 30.2643L42.8646 46.1643L40.4646 48.5643L38.8646 46.7643L40.5646 45.0643L39.7646 44.2643L38.0646 45.9643L33.8646 41.7643L35.5646 40.0643L34.7646 39.2643L33.0646 40.9643L28.8646 36.7643L30.5646 35.0643L29.7646 34.2643L27.8646 35.8643L24.6646 32.6643L27.0646 30.2643Z" fill="#1D1D1B" fill-opacity="0.12"/>
<path d="M61.3647 63.1641L60.8647 63.6641L75.1647 77.5641L61.3647 63.1641Z" fill="#1D1D1B" fill-opacity="0.12"/>
</g>
<path d="M43.252 44.3124L16.3501 17.3447L17.3179 16.3793L44.2198 43.347L43.252 44.3124Z" fill="#F1EEDB"/>
<path d="M43.1777 48.9866L40.6567 46.4595L46.3681 40.762L48.889 43.2891L43.1777 48.9866Z" fill="#A18D81"/>
<path d="M14.5787 19.9301L12.2544 17.6001L17.5834 12.2841L19.9077 14.614L14.5787 19.9301Z" fill="#A18D81"/>
<path d="M60.6576 61.9341L61.7968 60.7949L57.2485 54.9892L54.8604 57.3688L60.6576 61.9341Z" fill="#0593A1"/>
<path d="M24.8271 30.5849L52.8009 58.6262L58.5138 52.9302L30.54 24.8889L31.4345 23.9944L60.7331 53.369L53.2313 60.854L23.9326 31.4794L24.8271 30.5849Z" fill="#F1EEDB"/>
<path d="M75.2985 75.4697L61.4931 61.0989L60.9614 61.6305L75.2985 75.4697Z" fill="#A18D81"/>
<path d="M22.4303 32.976L21.0894 31.6318L31.5921 21.1548L32.933 22.499L22.4303 32.976Z" fill="#F1EEDB"/>
<path d="M48.7434 55.1932L47.915 54.3628L49.8865 52.3961L50.7149 53.2265L48.7434 55.1932Z" fill="#F1EEDB"/>
<path d="M43.6931 50.117L42.8647 49.2866L44.8362 47.3199L45.6646 48.1504L43.6931 50.117Z" fill="#F1EEDB"/>
<path d="M38.636 45.0555L37.8076 44.2251L39.7791 42.2584L40.6075 43.0888L38.636 45.0555Z" fill="#F1EEDB"/>
<path d="M33.5852 39.9876L32.7568 39.1572L34.7283 37.1905L35.5567 38.021L33.5852 39.9876Z" fill="#F1EEDB"/>
<path d="M28.5281 34.9261L27.6997 34.0957L29.6712 32.129L30.4996 32.9594L28.5281 34.9261Z" fill="#F1EEDB"/>
<path opacity="0.3" d="M52.806 58.6308L43.1812 48.9824L48.8925 43.285L58.5174 52.9334L52.806 58.6308Z" fill="#06AABA"/>
<path opacity="0.15" d="M56.8433 57.2591L58.0669 56.0355L61.7967 60.7949L60.6575 61.9341L60.2778 61.6303L56.8433 57.2591Z" fill="#1D1D1B"/>
<path opacity="0.05" d="M28.0171 24.7201L31.5866 21.1506L32.9368 22.5007L31.4347 24.0028L60.7333 53.3689L58.6743 55.4448L28.0171 24.7201Z" fill="#1D1D1B"/>
<path opacity="0.15" d="M18.686 15.8364L16.3589 13.5093L17.5761 12.292L19.9033 14.6191L18.686 15.8364Z" fill="#1D1D1B"/>
<path d="M43.252 44.3124L16.3501 17.3447L17.3179 16.3793L44.2198 43.347L43.252 44.3124Z" fill="#F1EEDB"/>
<path d="M43.1777 48.9866L40.6567 46.4595L46.3681 40.762L48.889 43.2891L43.1777 48.9866Z" fill="#A18D81"/>
<path d="M14.5787 19.9301L12.2544 17.6001L17.5834 12.2841L19.9077 14.614L14.5787 19.9301Z" fill="#A18D81"/>
<path d="M60.6576 61.9341L61.7968 60.7949L57.2485 54.9892L54.8604 57.3688L60.6576 61.9341Z" fill="#0593A1"/>
<path d="M24.8271 30.5849L52.8009 58.6262L58.5138 52.9302L30.54 24.8889L31.4345 23.9944L60.7331 53.369L53.2313 60.854L23.9326 31.4794L24.8271 30.5849Z" fill="#F1EEDB"/>
<path d="M75.2985 75.4697L61.4931 61.0989L60.9614 61.6305L75.2985 75.4697Z" fill="#A18D81"/>
<path d="M22.4303 32.976L21.0894 31.6318L31.5921 21.1548L32.933 22.499L22.4303 32.976Z" fill="#F1EEDB"/>
<path d="M48.7434 55.1932L47.915 54.3628L49.8865 52.3961L50.7149 53.2265L48.7434 55.1932Z" fill="#F1EEDB"/>
<path d="M43.6931 50.117L42.8647 49.2866L44.8362 47.3199L45.6646 48.1504L43.6931 50.117Z" fill="#F1EEDB"/>
<path d="M38.636 45.0555L37.8076 44.2251L39.7791 42.2584L40.6075 43.0888L38.636 45.0555Z" fill="#F1EEDB"/>
<path d="M33.5852 39.9876L32.7568 39.1572L34.7283 37.1905L35.5567 38.021L33.5852 39.9876Z" fill="#F1EEDB"/>
<path d="M28.5281 34.9261L27.6997 34.0957L29.6712 32.129L30.4996 32.9594L28.5281 34.9261Z" fill="#F1EEDB"/>
<path opacity="0.3" d="M52.806 58.6308L43.1812 48.9824L48.8925 43.285L58.5174 52.9334L52.806 58.6308Z" fill="#06AABA"/>
<path opacity="0.15" d="M56.8433 57.2591L58.0669 56.0355L61.7967 60.7949L60.6575 61.9341L60.2778 61.6303L56.8433 57.2591Z" fill="#1D1D1B"/>
<path opacity="0.05" d="M28.0171 24.7201L31.5866 21.1506L32.9368 22.5007L31.4347 24.0028L60.7333 53.3689L58.6743 55.4448L28.0171 24.7201Z" fill="#1D1D1B"/>
<path opacity="0.15" d="M18.686 15.8364L16.3589 13.5093L17.5761 12.292L19.9033 14.6191L18.686 15.8364Z" fill="#1D1D1B"/>
<defs>
<clipPath id="clip0_2376_15641">
<rect width="64" height="64" fill="white" transform="translate(11.8647 14.0645)"/>
</clipPath>
</defs>
</svg>
