<svg width="87" height="87" viewBox="0 0 87 87" fill="none" xmlns="http://www.w3.org/2000/svg">
<path d="M72.7272 0.858887H14.3924C6.7646 0.858887 0.581055 7.04243 0.581055 14.6702V73.0051C0.581055 80.6329 6.7646 86.8164 14.3924 86.8164H72.7272C80.355 86.8164 86.5386 80.6329 86.5386 73.0051V14.6702C86.5386 7.04243 80.355 0.858887 72.7272 0.858887Z" fill="#AC4781"/>
<path d="M71.6299 2.48633H15.4896C8.15464 2.48633 2.2085 8.43247 2.2085 15.7674V71.9077C2.2085 79.2427 8.15464 85.1888 15.4896 85.1888H71.6299C78.9648 85.1888 84.911 79.2427 84.911 71.9077V15.7674C84.911 8.43247 78.9648 2.48633 71.6299 2.48633Z" fill="white"/>
<g clip-path="url(#clip0_2376_15773)">
<path d="M76.9129 37.0274C74.6129 36.4274 72.3129 36.1274 69.9129 35.8274C69.8129 35.7274 69.7129 35.7274 69.5129 35.6274C66.1129 35.1274 62.9129 33.8274 59.9129 32.0274C57.3129 30.5274 55.2129 28.4274 52.9129 26.5274C50.7129 24.7274 48.3129 23.7274 45.4129 23.6274C43.0129 23.6274 40.9129 24.2274 38.8129 25.2274C33.4129 27.6274 27.8129 28.5274 22.0129 27.5274C21.9129 27.5274 21.8129 27.5274 21.7129 27.5274C19.7129 27.1274 17.7129 26.9274 15.8129 26.5274C12.9129 25.9274 9.81294 28.0274 9.31294 31.2274C9.11294 32.4274 8.91294 33.7274 8.61294 34.9274C8.21294 36.8274 8.11294 38.7274 8.51294 40.6274C9.21294 44.2274 10.8129 47.2274 13.6129 49.5274C15.6129 51.2274 17.9129 52.2274 20.4129 52.7274C20.6129 52.8274 20.8129 52.8274 21.1129 52.9274C21.3129 53.2274 21.5129 53.5274 21.6129 53.8274C22.8129 56.5274 24.6129 58.9274 26.7129 61.0274C28.8129 63.1274 31.3129 64.8274 34.0129 65.9274C36.6129 67.0274 39.2129 67.8274 42.1129 67.9274C42.4129 68.0274 42.7129 68.1274 43.0129 68.1274C46.0129 68.2274 48.9129 67.8274 51.7129 66.9274C55.5129 65.6274 58.9129 63.5274 61.8129 60.6274C62.2129 60.2274 62.6129 60.1274 63.3129 60.1274C64.4129 60.2274 65.5129 60.6274 66.7129 60.2274C67.1129 60.1274 67.5129 60.3274 67.9129 60.0274C71.0129 59.6274 73.6129 58.2274 75.9129 56.0274C76.4129 55.8274 76.6129 55.3274 76.9129 54.9274C78.1129 53.5274 79.0129 51.8274 79.6129 50.0274C80.3129 47.9274 80.5129 45.7274 80.9129 43.5274C81.2129 40.6274 79.5129 37.7274 76.9129 37.0274ZM19.1129 49.8274C14.6129 48.4274 10.9129 43.4274 10.9129 38.7274C10.9129 36.4274 11.4129 34.2274 11.8129 31.9274C12.0129 29.8274 13.5129 28.7274 15.6129 29.0274C17.0129 29.2274 18.3129 29.5274 19.7129 29.7274C20.0129 29.8274 20.4129 29.8274 20.7129 29.6274C20.7129 29.7274 20.8129 29.8274 20.9129 29.9274C20.9129 29.9274 20.9129 29.9274 21.0129 29.9274C21.0129 30.1274 21.0129 30.3274 21.0129 30.5274L20.9129 30.6274C20.8129 30.7274 20.8129 30.9274 20.8129 31.0274C20.8129 31.2274 20.8129 31.3274 20.8129 31.5274C20.7129 31.9274 20.7129 32.3274 20.6129 32.7274C20.4129 32.8274 20.4129 33.0274 20.4129 33.2274C20.2129 34.4274 20.0129 35.6274 19.7129 36.7274C19.7129 36.8274 19.7129 36.8274 19.7129 36.9274C19.7129 37.0274 19.7129 37.1274 19.7129 37.2274C19.6129 37.4274 19.5129 37.6274 19.5129 37.9274C19.4129 38.6274 19.3129 39.2274 19.2129 39.9274C19.2129 40.2274 19.1129 40.5274 19.1129 40.8274C19.0129 41.9274 18.9129 43.1274 19.1129 44.2274C19.0129 44.4274 19.0129 44.6274 19.0129 44.8274C19.0129 46.3274 19.3129 47.8274 19.7129 49.3274C19.8129 49.6274 19.8129 49.8274 20.0129 50.0274C19.7129 49.9274 19.4129 49.9274 19.1129 49.8274ZM19.6129 43.1274C19.6129 43.1274 19.6129 43.2274 19.7129 43.2274H19.6129C19.6129 43.2274 19.6129 43.1274 19.6129 43.1274ZM71.1129 38.5274C72.5129 38.7274 73.9129 39.0274 75.3129 39.2274C77.5129 39.6274 78.6129 41.1274 78.2129 43.2274C78.0129 44.5274 77.8129 45.8274 77.6129 47.1274C76.6129 53.4274 71.6129 57.7274 65.2129 57.7274C64.9129 57.7274 64.6129 57.8274 64.4129 57.5274C64.5129 57.4274 64.5129 57.3274 64.6129 57.2274C64.8129 56.5274 65.3129 56.0274 65.6129 55.4274C66.9129 53.0274 68.0129 50.4274 68.4129 47.6274C68.6129 47.1274 68.7129 46.5274 68.7129 45.9274C68.7129 45.8274 68.7129 45.7274 68.7129 45.6274C68.9129 45.4274 68.8129 45.2274 68.9129 44.9274C69.1129 43.7274 69.3129 42.5274 69.6129 41.4274C69.6129 41.2274 69.6129 41.1274 69.6129 40.9274C69.8129 40.5274 69.8129 40.1274 69.8129 39.7274C70.0129 39.5274 70.0129 39.3274 70.0129 39.1274C70.3129 38.8274 70.3129 38.5274 70.3129 38.2274C70.5129 38.4274 70.8129 38.5274 71.1129 38.5274Z" fill="black" fill-opacity="0.12"/>
</g>
<path d="M20.7805 25.5657C20.8922 25.5657 21.0039 25.5657 21.1173 25.5657C21.7625 26.3011 22.6662 26.2658 23.5081 26.3179C28.5848 26.6336 33.4515 25.8075 38.1014 23.6666C39.8403 22.8657 41.6626 22.2445 43.6132 22.1605C44.1218 22.1437 44.6319 22.132 45.1404 22.1689C48.3799 22.5517 51.0358 24.0881 53.3065 26.38C53.62 26.7125 53.9067 27.0735 54.3219 27.2934C54.6586 27.4748 54.9504 27.7149 55.2172 27.9886C55.5323 28.316 55.8324 28.6636 56.2825 28.8197C59.2519 31.0999 62.508 32.7874 66.1392 33.726C66.8978 33.9224 67.6547 34.0114 68.4266 34.045C68.7317 34.3506 68.8434 34.7435 68.8501 35.1532C68.8551 35.4773 68.9435 35.7342 69.1802 35.9474C69.2286 36.0213 69.2602 36.0985 69.2803 36.1842C69.3303 36.5603 69.2769 36.9028 68.9835 37.1731C68.8951 37.2084 68.8084 37.2034 68.7234 37.1597C68.3383 36.7215 67.8431 36.525 67.2779 36.4108C61.8161 35.3178 57.0595 32.8243 52.883 29.1287C51.6593 28.0457 50.4556 26.9257 49.0584 26.0408C47.1144 24.8084 45.0387 24.3483 42.7796 24.7765C41.1608 25.0838 39.6336 25.6899 38.1247 26.3213C35.2638 27.5168 32.3278 28.4235 29.2401 28.7307C26.3958 29.0145 23.5481 29.0665 20.7339 28.4134C20.4221 28.2841 20.192 28.0255 19.8936 27.8744C19.7902 27.7938 19.7218 27.6947 19.7302 27.5571C20.0203 26.8619 19.9453 25.9703 20.7822 25.5673L20.7805 25.5657Z" fill="#EDF4FF"/>
<path d="M69.1189 36.1271C69.1206 36.075 69.1206 36.0213 69.1189 35.9693C69.0039 35.2859 69.1189 34.579 68.9055 33.9057C68.9222 33.8671 68.9389 33.8284 68.9556 33.7915C71.2947 34.1324 73.6505 34.4228 75.9379 35.0122C78.4938 35.6721 80.2327 38.5937 79.7509 41.391C79.3758 43.5705 79.1673 45.7835 78.4838 47.9075C77.8969 49.7327 77.01 51.3815 75.7712 52.8255C75.4511 53.1983 75.2477 53.6919 74.7725 53.9236C74.2073 54.1302 73.8272 54.5919 73.3704 54.9496C71.5481 56.3751 69.4991 57.3103 67.2433 57.7838C67.0783 57.8191 66.9149 57.8392 66.7848 57.9585C66.398 58.034 65.9712 57.8174 65.6161 58.1213C64.4907 58.5092 63.3603 58.1717 62.2566 58.0424C61.6164 57.9685 61.2313 58.0726 60.8028 58.5092C57.9535 61.4106 54.5874 63.4944 50.7394 64.7621C47.9084 65.6957 44.9875 66.0818 42.0098 65.9979C41.7114 65.9895 41.4146 65.8938 41.1162 65.8384C40.9878 65.6906 40.9678 65.5311 41.0578 65.3565C41.4479 65.0694 41.9081 65.1197 42.3432 65.1315C45.5226 65.2238 48.6087 64.6815 51.5613 63.5414C54.0572 62.5776 56.378 61.2495 58.4003 59.4495C58.7955 59.0969 59.2906 58.8383 59.5941 58.4085C60.4694 57.1659 61.7114 57.0534 63.0152 57.2818C65.1476 57.6562 67.1583 57.1727 69.129 56.4876C71.1546 55.7841 72.9419 54.5684 74.4091 53.0556C75.9162 51.5024 77.0683 49.6151 77.6552 47.4642C78.1187 45.7667 78.6588 44.0792 78.7539 42.3095C78.8322 40.8503 79.064 39.366 78.2154 37.9926C77.3534 36.5989 76.028 35.9508 74.5508 35.578C73.342 35.2725 72.0983 35.1012 70.8629 34.9114C70.5911 34.8695 70.2393 34.7889 70.211 35.1919C70.1843 35.5646 70.5444 35.5915 70.8145 35.6167C72.1433 35.7376 73.4254 36.1305 74.7525 36.2816C76.4631 36.4763 77.5635 37.4838 78.1587 39.0991C78.4238 39.8194 78.3637 40.5649 78.217 41.2516C77.8536 42.9492 77.7402 44.6854 77.3834 46.3812C76.7999 49.1534 75.3677 51.4134 73.3237 53.3343C70.9179 55.5943 67.9802 56.543 64.8108 56.9544C64.1423 57.0417 63.472 57.0266 62.8852 56.6152C62.3933 56.2693 62.1549 55.8395 62.5251 55.2635C62.8018 54.8337 62.7835 54.199 63.3903 53.9992C63.4737 53.9958 63.5521 54.011 63.6254 54.0496C63.9372 54.5986 63.3603 54.9899 63.377 55.4835C63.5771 55.8596 63.9272 55.685 64.2223 55.7186C70.5444 55.6984 75.5728 51.3916 76.5931 45.1303C76.8032 43.8357 77.035 42.5429 77.235 41.2466C77.5751 39.0554 76.4848 37.5577 74.2974 37.2C72.9019 36.9717 71.5081 36.7299 70.111 36.4999C69.7575 36.4411 69.3924 36.3991 69.1173 36.1221L69.1189 36.1271Z" fill="#C3DDFF"/>
<path d="M20.1223 50.8958C19.8989 50.8421 19.6738 50.7867 19.4504 50.733C19.1203 50.3921 18.6751 50.3182 18.2483 50.2007C11.9462 48.4645 7.43966 42.5156 7.58138 35.9588C7.63639 33.4502 7.97651 30.945 8.74177 28.5456C9.6304 25.7584 11.9212 24.3614 14.8155 24.7341C16.2993 24.9256 17.7682 25.2311 19.247 25.4595C19.8288 25.5502 20.164 25.7533 20.0106 26.4485C19.8672 27.0916 19.6321 27.4643 18.8902 27.3098C17.3697 26.9925 15.8242 26.8196 14.2936 26.5509C12.378 26.2151 10.6024 27.5348 10.3256 29.4574C10.0872 31.1163 9.74377 32.7584 9.50036 34.414C8.94684 38.1701 9.97218 41.4628 12.3697 44.3844C13.8852 46.233 15.7658 47.4688 17.9782 48.2832C18.4384 48.4528 18.8385 48.263 19.2637 48.3185C19.7555 49.1076 20.2323 49.9018 20.1223 50.8942V50.8958Z" fill="#DBEAFF"/>
<path d="M68.4503 34.1219C67.2815 34.4846 66.2378 33.9406 65.1658 33.6467C61.813 32.7283 58.842 31.0609 56.1161 28.9184C55.7426 28.6867 55.4959 28.3039 55.1157 28.0789C54.8373 27.8556 54.5606 27.6306 54.2821 27.4073C53.9087 27.1756 53.6619 26.7927 53.2818 26.5677C52.1931 25.6778 51.1644 24.7275 49.929 24.0071C48.5869 23.2247 47.2047 22.6807 45.6676 22.5211C45.5358 22.5077 45.4108 22.4238 45.2824 22.3717C44.7272 22.229 44.172 22.229 43.6152 22.3717C40.5292 22.5396 37.8849 24.1263 35.059 25.1136C31.201 26.4619 27.2363 26.7188 23.2116 26.5593C22.7732 26.5425 22.338 26.4535 21.9029 26.3897C21.4277 26.3209 21.1676 26.0405 21.1143 25.5603C26.9679 26.5325 32.5498 25.6023 37.96 23.2264C40.0373 22.3146 42.1764 21.6363 44.5272 21.6665C47.4198 21.7034 49.8373 22.7596 52.0314 24.5461C54.3288 26.4166 56.4512 28.5188 59.0021 30.0568C61.9697 31.8467 65.1525 33.0893 68.5886 33.6232C68.7153 33.6434 68.8304 33.7307 68.9504 33.7878H68.9538C68.8354 33.9758 68.762 34.2361 68.4469 34.1202L68.4503 34.1219Z" fill="#EDF4FF"/>
<path d="M19.2835 48.3877C18.5183 48.9486 17.8064 48.4868 17.1312 48.2114C14.647 47.2006 12.7063 45.4947 11.2392 43.2582C9.16012 40.0914 8.66662 36.6476 9.51358 32.9621C9.79867 31.7229 9.95873 30.4502 10.1088 29.1858C10.3005 27.5756 12.4562 25.9737 14.1001 26.2575C15.7557 26.5446 17.4212 26.7763 19.0668 27.1088C19.6703 27.2314 19.737 26.9375 19.777 26.5178C19.8121 26.1551 20.0805 25.7773 19.3319 25.6816C17.6413 25.465 15.9774 24.9613 14.2735 24.9159C11.616 24.8454 9.63028 26.1652 8.90837 28.7291C8.39653 30.5492 8.15145 32.3979 7.92804 34.2667C7.72631 35.9458 7.73464 37.5946 8.12811 39.2334C9.06843 43.149 11.2225 46.2335 14.587 48.3877C15.8057 49.1685 17.1678 49.7579 18.6133 50.0668C18.9951 50.1474 19.3936 50.2263 19.4486 50.7334C16.9061 50.2331 14.6336 49.2021 12.6263 47.5046C9.83035 45.1404 8.19647 42.1416 7.51123 38.5803C7.14444 36.6711 7.26615 34.7654 7.62627 32.8647C7.85802 31.639 8.08143 30.4115 8.27816 29.1791C8.79 25.9821 11.9444 23.9253 14.8487 24.5197C16.8144 24.9226 18.8201 25.1191 20.7807 25.5657C20.4756 26.0543 20.0988 26.5094 20.1055 27.139C20.1088 27.3556 19.9654 27.4899 19.7804 27.5823C19.4703 27.8694 19.1068 27.7771 18.7534 27.7183C17.3846 27.4933 16.0191 27.2498 14.6486 27.0349C12.5279 26.7025 11.0124 27.7519 10.699 29.8675C10.3639 32.1259 9.78867 34.3439 9.82202 36.6661C9.89037 41.4095 13.5416 46.4098 18.0598 47.7984C18.4082 47.9059 18.765 47.9461 19.1252 47.9764C19.3369 48.0536 19.4069 48.1846 19.2835 48.3911V48.3877Z" fill="#DCEAFF"/>
<path d="M19.2836 48.3875C19.2836 48.2498 19.2586 48.1239 19.1285 48.0466C18.8518 47.8569 18.7918 47.5463 18.7184 47.2541C18.34 45.7698 18.0165 44.2771 18.0549 42.7307C18.0649 42.3932 18.2049 42.096 18.3433 41.7954C18.4483 41.5671 18.3883 41.1456 18.7501 41.2061C19.0885 41.2631 19.1202 41.6292 19.0802 41.9482C18.9018 42.3075 18.9135 42.6534 18.9835 43.0614C19.1736 44.178 19.2786 45.308 19.5554 46.4129C19.8721 47.6823 20.2589 48.9248 20.7374 50.1388C20.8691 50.6945 21.1559 51.1848 21.406 51.6885C22.2829 53.6027 23.6084 55.2112 24.8655 56.8651C25.5857 57.8105 26.4227 58.6399 27.353 59.3737C28.1049 59.9412 28.7952 60.5876 29.6004 61.0847C32.8265 63.2456 36.3327 64.6275 40.214 64.9667C40.4641 64.9885 40.7042 65.0439 40.9309 65.1564C41.0093 65.2001 41.0726 65.2605 41.1193 65.3361V65.8364C38.2767 65.7978 35.6225 64.9398 33.0399 63.8535C30.2823 62.6932 27.8215 61.0225 25.7024 58.917C23.6084 56.8366 21.8311 54.4909 20.6174 51.7574C20.484 51.4551 20.2906 51.1815 20.1239 50.8943C19.8438 50.0582 19.5654 49.222 19.2853 48.3858L19.2836 48.3875Z" fill="#C4DDFF"/>
<path d="M66.7847 57.9582C67.1715 57.4293 67.8134 57.4562 68.3402 57.3235C70.3425 56.8198 72.0498 55.7905 73.6203 54.4976C73.9704 54.2105 74.2855 53.9083 74.7724 53.9234C72.5333 56.1196 69.9257 57.5754 66.7847 57.9582Z" fill="#C5DEFF"/>
<path d="M65.6177 58.1212C65.9411 57.5923 66.3629 57.7719 66.7864 57.9583C66.4313 58.2639 66.0078 58.0691 65.6177 58.1212Z" fill="#C5DEFF"/>
<path d="M20.6176 28.2489C22.1348 28.5713 23.6886 28.5377 25.2191 28.7257C26.4596 28.8785 27.71 28.6435 28.9421 28.5394C31.3095 28.3395 33.6286 27.7922 35.8677 26.9526C37.735 26.2525 39.5706 25.4683 41.4713 24.8571C43.9471 24.0613 46.3313 24.2577 48.612 25.4851C49.9608 26.2105 51.0762 27.2649 52.2199 28.2707C54.6424 30.4048 57.1933 32.3576 60.1043 33.7697C62.5534 34.9585 65.126 35.8047 67.8052 36.2866C68.3404 36.3823 68.6655 36.614 68.7839 37.1413C68.5188 37.4015 68.2203 37.2857 67.9219 37.2286C62.5251 36.1993 57.6601 34.0283 53.4253 30.4636C52.0215 29.2815 50.6794 28.0272 49.1972 26.9342C46.6364 25.0452 43.9171 24.8689 40.9928 25.9435C38.4153 26.8905 35.9061 28.0423 33.2135 28.6636C31.2362 29.1203 29.2505 29.4209 27.2131 29.5132C24.7356 29.6274 22.2998 29.3957 19.8657 29.0246C19.6606 28.8819 19.7523 28.7257 19.8457 28.5696C20.0691 28.3798 20.2775 28.1565 20.6176 28.2455V28.2489Z" fill="#EDF4FF"/>
<path d="M19.7873 29.4223C19.7873 29.256 19.7873 29.0881 19.7873 28.9219C21.7096 29.0848 23.6303 29.2728 25.5543 29.4021C26.713 29.4793 27.88 29.3148 29.0271 29.204C30.9711 29.0176 32.8901 28.5878 34.7707 28.0135C36.8397 27.3822 38.8287 26.5376 40.8394 25.7619C44.3873 24.3917 47.4883 25.0499 50.316 27.5182C53.2403 30.0721 56.1613 32.6444 59.7058 34.3268C62.5951 35.6986 65.6211 36.6524 68.7839 37.1443C68.8389 37.1443 68.8939 37.1443 68.9473 37.1477C68.9272 37.3794 69.0273 37.6413 68.7855 37.8176C68.4688 37.9486 68.257 37.6363 67.9736 37.6212C67.9002 37.6044 67.8285 37.5826 67.7569 37.5607C67.2617 37.4801 66.7765 37.3257 66.2647 37.3559C64.4791 37.0419 62.8102 36.3585 61.1396 35.6919C57.43 34.211 54.269 31.8821 51.3396 29.2006C49.5807 27.5904 47.6817 26.2186 45.2809 25.74C44.384 25.4781 43.5187 25.6309 42.6634 25.9365C39.8558 26.7979 37.1498 27.9615 34.3489 28.8279C32.3749 29.439 30.3309 29.8874 28.2268 29.8303C27.5666 29.8504 26.9014 29.7413 26.2528 29.9394C25.6293 30.0351 25.0007 29.9764 24.3755 29.9982C23.1568 29.9646 21.9364 29.926 20.7476 29.6137C20.4459 29.4592 20.0941 29.5549 19.7856 29.4256L19.7873 29.4223Z" fill="#DDEBFF"/>
<path d="M68.4504 34.122C68.6188 34.0112 68.7888 33.9004 68.9572 33.7896C69.3574 34.4897 69.4207 35.2151 69.1173 35.969C68.8439 35.9757 68.5438 35.9186 68.6338 35.5811C68.7772 35.0505 68.4471 34.614 68.4487 34.1237L68.4504 34.122Z" fill="#EDF4FF"/>
<path d="M19.9504 28.583C19.9504 28.3042 19.9504 28.0238 19.9487 27.7451C20.2888 27.7552 20.4706 27.9785 20.6173 28.2472C20.3855 28.3412 20.2405 28.6082 19.9504 28.583Z" fill="#EDF4FF"/>
<path d="M43.6167 22.3737C44.1719 22.1118 44.7271 22.1118 45.2839 22.3737H43.6167Z" fill="#EDF4FF"/>
<path d="M55.1172 28.0806C55.614 28.1628 55.8508 28.5591 56.1175 28.9201C55.6174 28.8412 55.3873 28.4382 55.1172 28.0806Z" fill="#EDF4FF"/>
<path d="M53.2832 26.5698C53.78 26.6521 54.0168 27.0484 54.2835 27.4094C53.7834 27.3304 53.5533 26.9275 53.2832 26.5698Z" fill="#EDF4FF"/>
<path d="M20.6175 50.2345C19.6321 48.3774 19.302 46.3172 18.8902 44.2956C18.7869 43.7868 18.8419 43.2243 18.6552 42.7004C18.5501 42.4066 18.6502 42.1531 18.9519 42.0103C19.1453 42.1497 19.212 42.3713 19.287 42.5762C20.4141 45.6774 22.293 48.2666 24.6288 50.5468C24.7672 50.6828 24.9039 50.8221 25.019 50.98C25.3374 51.4719 25.6992 51.9152 26.2677 52.1318C27.8116 53.1057 29.2787 54.192 30.911 55.0383C33.1901 56.2187 35.5742 57.0649 38.0434 57.7047C38.3118 57.7735 38.5836 57.8272 38.8303 57.9616C40.3025 58.3948 41.8196 58.5308 43.3385 58.645C44.8523 58.7877 46.3678 58.7726 47.88 58.6517C49.2688 58.5392 50.6526 58.378 52.0148 58.0673C52.3632 57.9884 52.7083 57.9146 53.0168 57.7215C54.784 57.1993 56.4879 56.4974 58.1885 55.7922C60.0691 55.0383 61.6597 53.8361 63.1585 52.4978C63.5937 52.11 63.9721 51.6583 64.4089 51.2688C64.549 51.1428 64.7157 50.9716 64.9174 51.0891C65.1325 51.215 65.0625 51.4551 64.9675 51.613C64.4673 52.4424 64.1739 53.4012 63.4519 54.093C62.8751 54.4724 62.8668 55.1877 62.5316 55.7133C62.3949 55.9282 62.6383 56.2456 62.8868 56.3967C63.2669 56.6284 63.6604 56.8198 64.1355 56.7812C66.0662 56.6267 67.9168 56.212 69.7207 55.4547C71.1579 54.8502 72.36 53.9486 73.4853 52.9311C74.6007 51.9236 75.3943 50.6458 76.1246 49.3261C77.2433 47.3028 77.3883 45.0663 77.6751 42.8482C77.7751 42.0725 78.0019 41.3253 78.0519 40.5243C78.1769 38.496 76.8965 36.7246 74.8291 36.503C73.417 36.3518 72.0632 35.8834 70.636 35.8296C70.401 35.8213 69.7991 35.8783 69.8875 35.2101C69.9742 34.5502 70.3643 34.5619 70.8361 34.6644C72.3933 35.0052 74.0005 35.106 75.516 35.6399C77.1049 36.199 78.3086 37.2149 78.8471 38.8553C79.0522 39.48 78.9989 40.1751 79.0239 40.8467C79.0689 42.0439 78.8471 43.1807 78.6454 44.3275C78.352 45.9965 77.8501 47.605 77.2383 49.1901C76.6564 50.6979 75.6877 51.9807 74.6724 53.1275C73.6704 54.2558 72.35 55.1844 70.9695 55.8929C69.6424 56.573 68.2719 57.2161 66.7614 57.3621C65.526 57.483 64.3156 57.9112 63.0285 57.4914C62.4499 57.3034 61.7614 57.4545 61.1245 57.4511C60.8427 57.4511 60.671 57.6409 60.4993 57.8222C59.2589 59.1436 57.8584 60.2921 56.3612 61.2828C54.754 62.3473 53.0318 63.2204 51.2061 63.8954C49.1404 64.6577 47.0031 65.0557 44.8423 65.2991C43.6153 65.4368 42.3615 65.331 41.1211 65.3361H40.9544C40.8126 65.195 40.6476 65.0993 40.4442 65.0859C36.4078 64.824 32.8166 63.3061 29.4538 61.1401C28.6085 60.7404 27.9266 60.1293 27.2864 59.461C26.3894 58.6869 25.5558 57.8474 24.7856 56.944C23.3884 55.3674 22.083 53.7269 21.286 51.7406C21.0976 51.2218 20.8226 50.7415 20.6191 50.2294L20.6175 50.2345Z" fill="#C3DDFF"/>
<path d="M38.6167 58.1227C37.6731 57.8423 36.7261 57.5703 35.7841 57.2832C32.7964 56.3731 30.0438 54.9761 27.4763 53.198C27.0228 52.8823 26.5693 52.5667 26.1158 52.2493C25.6673 51.9169 25.2789 51.5256 24.9488 51.074C22.2128 48.6796 20.2172 45.7714 18.9768 42.3411C18.9401 42.2403 18.9567 42.1211 18.9484 42.0103C18.9317 41.8726 18.9317 41.7316 18.8951 41.5989C18.8684 41.4999 18.795 41.4126 18.615 41.0969C18.73 41.839 18.2415 42.1799 18.2782 42.6887C17.9547 41.3739 18.1165 40.0441 18.1898 38.7227C18.2065 38.4272 18.2749 38.1216 18.2882 37.8177C18.7333 37.68 18.8917 37.7774 18.9517 38.412C19.0551 39.5051 19.3069 40.5579 19.607 41.609C20.3739 44.3006 21.786 46.6278 23.6383 48.6746C28.5417 54.0913 34.7521 56.8785 41.8928 57.7584C47.0096 58.388 51.9796 57.8255 56.7195 55.7502C61.0176 53.868 64.5155 51.0572 66.5745 46.6748C66.7579 46.2852 66.8196 45.711 67.4531 45.7043C67.058 48.4949 65.9793 51.032 64.6488 53.4818C64.3204 54.0879 63.7635 54.5547 63.6068 55.2582C63.5085 55.4648 63.4351 55.7049 63.1233 55.6192C63.0917 55.0467 63.6052 54.6554 63.6185 54.098C64.2721 52.7346 65.1407 51.4786 65.5358 50.1404C63.5785 52.4945 61.151 54.4976 58.285 55.945C56.5978 56.6586 54.9622 57.5233 53.1183 57.792C52.2013 58.336 51.141 58.3125 50.1439 58.5391C49.397 58.7087 48.6284 58.7104 47.8665 58.7658C46.361 58.8162 44.8572 58.8246 43.3517 58.7625C41.7478 58.7507 40.1889 58.3914 38.6167 58.1278V58.1227Z" fill="#C4DEFF"/>
<path d="M58.2834 55.94C58.7736 55.3288 59.5472 55.171 60.1657 54.7596C62.3314 53.319 64.2404 51.6147 65.8076 49.4604C65.7526 50.478 64.6255 52.832 63.6169 54.0947H63.4502C63.9403 53.1443 64.4322 52.194 64.9223 51.2436C63.9086 51.9455 63.1667 52.9277 62.1714 53.6162C60.926 54.4775 59.7639 55.4816 58.2817 55.94H58.2834Z" fill="#C3DDFF"/>
<path d="M29.4504 61.1436C30.1123 61.3014 30.6025 61.7749 31.1793 62.0889C34.062 63.6605 37.0963 64.7586 40.3924 65.0021C40.6425 65.0205 40.9093 64.9819 40.9493 65.3396C39.6755 65.128 38.3934 64.9954 37.1313 64.6864C34.4171 64.0215 31.9179 62.8881 29.5904 61.3467C29.5271 61.3047 29.4954 61.2124 29.4487 61.1436H29.4504Z" fill="#C3DDFF"/>
<path d="M24.7837 56.9473C25.6857 57.7163 26.5193 58.5558 27.2845 59.4642C26.2492 58.8295 25.4156 57.99 24.7837 56.9473Z" fill="#C3DDFF"/>
<path d="M20.6172 50.2344C20.9673 50.681 21.2491 51.1579 21.2841 51.7455C20.934 51.2989 20.6522 50.8221 20.6172 50.2344Z" fill="#C3DDFF"/>
<path d="M18.6216 35.8014C18.5882 35.5563 18.6733 35.3413 18.7866 35.1331C19 35.0593 19.1751 35.1583 19.3168 35.2926C21.1208 37.0103 23.3999 37.8499 25.664 38.6642C32.3412 41.067 39.2585 42.4657 46.2609 43.4714C50.0139 44.0104 53.7801 44.3664 57.5764 44.5225C60.1956 44.63 62.7682 44.546 65.3424 44.1296C65.9759 44.0272 66.5594 43.7653 67.153 43.5252C67.3647 43.4395 67.6915 43.1961 67.7882 43.688C67.7865 43.7988 67.7832 43.9113 67.7815 44.0222C67.4914 44.3949 67.158 44.7341 66.9896 45.1925C64.8855 50.9148 60.4991 54.1739 55.0639 56.1938C50.7508 57.7973 46.2776 58.1634 41.7077 57.5606C37.0962 56.9511 32.7847 55.5188 28.895 52.9431C24.0951 49.7629 20.5356 45.629 19.3435 39.7791C19.1601 38.8775 19.0367 37.9624 19.0584 37.0338C19.0684 36.5771 18.9333 36.1523 18.6249 35.798L18.6216 35.8014Z" fill="#DBEAFF"/>
<path d="M18.7849 34.626C19.0083 33.4506 19.23 32.2753 19.4534 31.0999C19.5235 31.0462 19.6001 31.0361 19.6818 31.0714C19.8319 31.1587 19.9386 31.2913 20.047 31.4223C20.5055 31.8169 21.094 31.7967 21.6275 31.8555C27.2244 32.47 32.6846 31.9143 37.9547 29.8322C39.2184 29.3318 40.4955 28.8634 41.756 28.3563C44.3652 27.3102 46.6009 27.9197 48.665 29.7432C50.8074 31.6339 52.9614 33.5128 55.3822 35.0642C59.0385 37.4049 63.0031 38.8875 67.2446 39.68C67.5347 39.7337 67.7898 39.7438 68.0365 39.5725C68.1015 39.5121 68.1732 39.4651 68.2516 39.4265C68.3833 39.3845 68.505 39.3962 68.6134 39.4903C68.3916 40.6656 68.1716 41.8427 67.9498 43.018C67.8665 43.0768 67.7731 43.1087 67.6714 43.1154C66.6877 43.379 65.7758 43.8811 64.7404 43.9852C63.8601 44.0741 62.9915 44.2622 62.0995 44.2588C59.1885 44.2471 56.2725 44.3462 53.3699 44.0741C50.5056 43.8055 47.6496 43.4495 44.8037 43.0163C44.0101 42.8954 43.2165 42.7779 42.4162 42.7258C39.3785 42.0022 36.2841 41.5354 33.2664 40.7093C29.4218 39.6582 25.5605 38.6574 21.9793 36.8239C21.109 36.3789 20.2737 35.8886 19.6152 35.1549C19.3767 34.8896 19.0233 34.8594 18.7832 34.6243L18.7849 34.626Z" fill="#EDF4FF"/>
<path d="M18.6216 35.801C19.1985 35.9001 19.2818 36.3551 19.2768 36.8101C19.2502 39.28 19.862 41.6022 20.8624 43.8337C21.5043 45.2676 22.4346 46.5169 23.3949 47.7426C25.5406 50.4828 28.2565 52.533 31.2926 54.1382C34.2702 55.7132 37.4713 56.729 40.7874 57.2428C42.7431 57.545 44.7404 57.7432 46.7361 57.6156C51.5011 57.3117 56.0126 56.1749 60.0373 53.4649C62.6582 51.7002 64.8239 49.5191 66.166 46.5991C66.4094 46.0686 66.5945 45.5128 66.8262 44.9755C67.0163 44.5356 67.2397 44.1124 67.7816 44.0234C67.7349 44.5943 67.6965 45.1669 67.4564 45.7008C67.2247 45.7881 67.133 45.9947 67.0413 46.1995C64.1403 52.6018 58.8102 55.777 52.338 57.4477C50.0272 58.0437 47.6514 58.3057 45.2973 58.2469C40.9175 58.1361 36.6644 57.2865 32.618 55.458C29.0235 53.8343 25.8924 51.5961 23.3065 48.6325C20.7923 45.7495 19.1285 42.4317 18.7667 38.5379C18.7417 38.2709 18.88 37.7622 18.2915 37.8159C18.4015 37.1443 18.5132 36.4709 18.6233 35.7993L18.6216 35.801Z" fill="#DBEAFF"/>
<path d="M19.6168 31.1014C19.5618 31.1014 19.5067 31.1014 19.4534 31.0997C19.4567 30.915 19.4201 30.7185 19.6151 30.5976C19.7918 30.5002 19.9719 30.5422 20.1536 30.5741C21.369 30.821 22.6145 30.831 23.8365 31.0241C25.282 31.0795 26.7259 31.093 28.168 30.967C32.3844 30.732 36.3408 29.4861 40.1921 27.8238C40.9823 27.4829 41.8126 27.2361 42.6362 26.9859C44.6802 26.368 46.5359 26.8617 48.2415 28.037C49.8253 29.1284 51.1958 30.4902 52.6746 31.7125C55.6206 34.1472 58.86 36.0597 62.4663 37.324C62.9881 37.6263 63.5783 37.7035 64.1502 37.8412C65.0255 38.1098 65.9158 38.3113 66.8094 38.5044C67.3829 38.7663 68.0631 38.6287 68.61 38.9913C68.61 39.1576 68.61 39.3255 68.61 39.4917C68.5 39.4917 68.3899 39.4934 68.2816 39.4951C67.3662 39.668 66.5293 39.2852 65.6757 39.0871C60.1605 37.8126 55.3205 35.2168 51.0691 31.4674C49.967 30.4952 48.875 29.5062 47.6663 28.66C46.039 27.5199 44.2901 27.3503 42.4378 27.9111C40.9773 28.3544 39.5535 28.9102 38.1464 29.4928C33.4148 31.4523 28.4831 32.1038 23.4097 31.7999C22.4477 31.7428 21.4824 31.6319 20.5238 31.4859C20.1786 31.4338 19.8952 31.2827 19.6151 31.103L19.6168 31.1014Z" fill="#DDEBFF"/>
<path d="M67.7832 43.0178C67.8382 43.0178 67.8932 43.0178 67.9482 43.0178C67.9266 43.2495 68.0283 43.5114 67.7865 43.6911C67.7165 43.5887 67.6164 43.5299 67.5047 43.5853C64.7405 44.9252 61.7595 44.9319 58.8168 44.8312C55.1039 44.7036 51.3976 44.4081 47.7031 43.9043C42.9748 43.2596 38.2882 42.42 33.655 41.3018C29.5686 40.3161 25.5406 39.1072 21.7343 37.2669C20.6322 36.7347 19.6769 35.9741 18.7866 35.1345C18.7866 35.022 18.7866 34.9095 18.7866 34.797C19.0384 34.6425 19.2885 34.6912 19.4618 34.8944C20.8773 36.5567 22.8597 37.2502 24.787 37.999C30.0688 40.0509 35.5723 41.2833 41.1158 42.3478C41.551 42.4318 41.9695 42.5879 42.4179 42.6064C46.0442 43.142 49.6721 43.6777 53.3233 44.0034C56.4427 44.2821 59.5787 44.2922 62.7031 44.1596C64.3087 44.0907 65.9676 43.9497 67.398 43.0127C67.5164 42.9355 67.6581 42.9238 67.7865 43.0195L67.7832 43.0178Z" fill="#EBF3FF"/>
<path d="M68.6136 38.99C67.9817 39 67.3499 39.0101 66.7847 38.6542C66.8947 38.5114 67.0548 38.4896 67.2181 38.4812C67.8639 38.4476 68.1084 38.1135 67.9517 37.4788C68.3035 37.4083 68.5236 37.6652 68.787 37.8163C68.7703 38.2142 68.852 38.6256 68.6136 38.99Z" fill="#DCEAFF"/>
<path d="M42.2831 42.6822C40.0523 42.3229 37.8433 41.8528 35.6408 41.344C31.6245 40.4188 27.6465 39.3593 23.8235 37.7944C22.4947 37.2504 21.2076 36.6057 20.0272 35.7628C19.5971 35.4572 19.5221 34.6898 18.7852 34.7939C18.7852 34.7385 18.7852 34.6814 18.7852 34.626C19.2236 34.5773 19.5204 34.7301 19.8488 35.076C21.1243 36.4226 22.8332 37.0792 24.5004 37.7306C28.3367 39.2317 32.3081 40.2862 36.3227 41.2013C38.3067 41.6546 40.3391 41.883 42.2831 42.5127C42.3381 42.5496 42.3564 42.5865 42.3381 42.6252C42.3198 42.6621 42.3014 42.6806 42.2831 42.6806V42.6822Z" fill="#EDF4FF"/>
<path d="M19.9503 30.7654C19.8386 30.7083 19.7269 30.6529 19.6152 30.5958C19.6736 30.2046 19.7303 29.8134 19.7886 29.4205C20.0654 29.3012 20.3421 29.1031 20.6189 29.4205C20.3021 29.8201 20.2521 30.3557 19.952 30.7637L19.9503 30.7654Z" fill="#DCEAFF"/>
<path d="M19.9507 30.7656C20.0207 30.2418 19.894 29.6188 20.6176 29.4224C21.8363 29.5701 23.0484 29.8018 24.2838 29.7582C25.4492 30.0067 26.6113 29.7078 27.7733 29.7431C27.94 29.6793 28.1368 29.7179 28.2835 29.5903C31.5113 29.55 34.5456 28.65 37.5099 27.4578C39.1805 26.7862 40.9061 26.2825 42.6167 25.7301C43.5537 25.5538 44.489 25.3305 45.4493 25.5622C45.7244 25.8577 46.1262 25.7771 46.458 25.8577C48.487 26.353 50.0075 27.6845 51.4497 29.0412C55.5594 32.9065 60.3093 35.5661 65.7061 37.089C65.8895 37.1411 66.0896 37.126 66.283 37.1428C66.8249 37.3207 67.3967 37.3526 67.9502 37.4786C68.3404 37.7271 68.5021 38.0243 68.2637 38.4927C68.0436 38.9259 67.7552 38.7664 67.4351 38.6842C67.2283 38.6321 67.0016 38.6606 66.7832 38.6523C65.8562 38.5784 64.9676 38.3584 64.1173 37.9806C63.5704 37.7858 62.9936 37.6868 62.45 37.4769C59.7224 36.6558 57.2733 35.2823 54.9242 33.6889C52.56 32.0837 50.5727 30.0134 48.2753 28.3293C46.4746 27.0095 44.509 26.5192 42.3499 27.3C40.0358 28.1362 37.7534 29.0698 35.4159 29.8321C33.1085 30.5843 30.736 31.1082 28.2835 31.0998C27.1665 31.2811 26.0394 31.13 24.919 31.1871C24.5406 31.2055 24.1504 31.0947 23.7836 31.2677C22.5165 31.0208 21.2094 31.0779 19.9507 30.7639V30.7656Z" fill="#DBEAFF"/>
<path d="M27.9499 29.7582C26.7278 30.0352 25.5058 30.0352 24.2837 29.7582H26.2844C26.8396 29.6255 27.3947 29.6255 27.9516 29.7582H27.9499Z" fill="#DCEAFF"/>
<path d="M45.4508 25.5622C44.4971 25.4564 43.5652 25.725 42.6182 25.7301C43.5451 25.3775 44.4838 25.2062 45.4508 25.5622Z" fill="#DCEAFF"/>
<path d="M27.9499 29.7582H26.2827C26.9246 29.4073 27.6182 29.676 28.2834 29.5903C28.2117 29.7263 28.0867 29.7549 27.9499 29.7582Z" fill="#DCEBFF"/>
<path d="M67.9499 37.4786C67.3697 37.4937 66.7979 37.4635 66.2827 37.1428C66.8629 37.1327 67.4214 37.2268 67.9499 37.4786Z" fill="#DCEAFF"/>
<path d="M47.9501 58.6266C49.719 58.6418 51.4196 58.2253 53.1168 57.7871C53.0885 58.2052 52.7284 58.128 52.4916 58.18C50.9961 58.5125 49.4989 58.8567 47.9501 58.7946C47.9284 58.766 47.9084 58.7391 47.8867 58.7106C47.9084 58.6821 47.9284 58.6552 47.9501 58.6266Z" fill="#C3DDFF"/>
<path d="M38.6167 58.123C40.1889 58.1382 41.6961 58.7645 43.2833 58.6268C43.3049 58.6553 43.325 58.6822 43.3466 58.7107C43.325 58.7393 43.3049 58.7661 43.2833 58.7947C41.6911 58.8333 40.1389 58.5831 38.6167 58.123Z" fill="#C3DDFF"/>
<path d="M47.95 58.7946C47.1931 59.1489 46.3928 58.944 45.6159 58.944C44.8389 58.944 44.0387 59.1489 43.2817 58.7946C44.8373 58.6603 46.3928 58.6603 47.9483 58.7946H47.95Z" fill="#C3DDFF"/>
<path d="M24.9507 51.0742C25.4058 51.3983 25.796 51.7895 26.1177 52.2496C25.5342 52.0531 25.1457 51.6619 24.9507 51.0742Z" fill="#C3DDFF"/>
<path d="M47.9498 58.7944H43.2832V58.6265H47.9498V58.7944Z" fill="#C4DDFF"/>
<path d="M19.6172 31.1016C22.5949 31.6977 25.6175 31.7565 28.6186 31.5667C31.8763 31.3602 35.0324 30.5257 38.0718 29.2849C39.3255 28.7727 40.6159 28.3479 41.878 27.8576C44.6223 26.7898 46.9464 27.5521 49.0555 29.4377C51.8047 31.8958 54.6173 34.2818 57.9101 35.9877C61.0695 37.6248 64.4073 38.7565 67.9218 39.3325C68.0485 39.3526 68.1636 39.4382 68.2853 39.4937C68.2853 39.5491 68.2853 39.6062 68.2853 39.6616C67.6818 40.0058 67.0849 39.7237 66.508 39.6011C61.0162 38.4442 56.0878 36.1086 51.7814 32.4583C50.5543 31.419 49.3222 30.383 48.0918 29.3487C46.1612 27.7233 44.0788 27.5487 41.7963 28.4084C39.3072 29.3453 36.858 30.388 34.2855 31.0932C30.3892 32.1594 26.4362 32.371 22.4381 31.9798C21.5378 31.8925 20.5992 31.963 19.7856 31.4374L19.6189 31.1016H19.6172Z" fill="#EBF3FF"/>
<path d="M19.7837 31.4371C21.0741 31.7612 22.3896 31.9392 23.715 31.9291C25.0071 31.919 26.2859 32.0533 27.5897 31.9862C30.0655 31.8602 32.4596 31.4186 34.8404 30.7806C37.2563 30.1342 39.5337 29.1015 41.8628 28.225C44.5404 27.2176 46.7528 27.8708 48.8185 29.6942C51.2276 31.8216 53.6535 33.9322 56.4427 35.5727C59.6555 37.4616 63.0967 38.7142 66.7212 39.4984C67.2381 39.6109 67.7532 39.6948 68.2834 39.6612C68.0417 39.9349 67.7499 40.029 67.3881 39.9584C63.9519 39.2902 60.6292 38.2626 57.5381 36.5902C55.0006 35.2167 52.6431 33.5695 50.5091 31.6017C49.5537 30.7202 48.5317 29.9075 47.4964 29.1233C45.7925 27.8321 43.9035 27.7717 41.9812 28.5021C39.4187 29.476 36.8895 30.5422 34.2402 31.2558C32.0778 31.8384 29.8804 32.238 27.6363 32.2733C25.3406 32.3102 23.0465 32.317 20.7674 31.9492C20.3689 31.8854 20.0021 31.8216 19.7837 31.4388V31.4371Z" fill="#EDF4FF"/>
<path d="M42.2832 42.6821V42.5142C44.2155 42.5864 46.1062 42.9977 48.0185 43.2328C49.2189 43.3806 50.4176 43.5619 51.6214 43.6828C54.9558 44.0153 58.302 44.0656 61.6514 44.0304C63.2903 44.0136 64.8892 43.7751 66.4697 43.3419C66.9032 43.2227 67.2083 42.5343 67.7852 43.0179C65.6594 44.2218 63.327 44.3578 60.9679 44.3611C60.496 44.3611 60.0242 44.3561 59.5524 44.3611C56.1779 44.4014 52.8268 44.116 49.4756 43.7164C47.2882 43.4561 45.1142 43.0968 42.9268 42.8399C42.71 42.8147 42.4983 42.7358 42.2849 42.6804L42.2832 42.6821Z" fill="#EDF4FF"/>
<path d="M23.7832 31.2695C24.2884 30.9337 24.8519 31.1318 25.3871 31.1117C26.3507 31.0764 27.3177 31.1016 28.2831 31.1016C28.0663 31.3585 27.7712 31.2645 27.5045 31.2662C26.264 31.2746 25.0236 31.2695 23.7832 31.2695Z" fill="#DCEAFF"/>
<path d="M62.4497 37.4785C63.0549 37.4785 63.6034 37.6716 64.1169 37.9822C63.5284 37.9268 62.9282 37.9084 62.4497 37.4785Z" fill="#DCEAFF"/>
<defs>
<clipPath id="clip0_2376_15773">
<rect width="73" height="46" fill="white" transform="translate(8.01318 23.0273)"/>
</clipPath>
</defs>
</svg>
