<svg width="374" height="196" viewBox="0 0 374 196" fill="none" xmlns="http://www.w3.org/2000/svg">
<path d="M36.5757 93.6744C29.7231 86.2382 23.0294 85.2121 17.1244 87.8035C15.4067 88.5572 13.8442 89.6424 12.5363 90.9901C8.04601 95.6186 6.67024 102.249 11.2456 111.267C15.9046 120.449 19.728 125.246 26.313 132.237C29.1625 135.262 33.5074 136.438 37.4569 135.146C39.7915 134.384 42.0454 133.277 44.1518 131.814C46.2583 130.351 48.2372 128.476 49.8059 126.455C52.3405 123.191 52.757 118.75 50.9259 115.045C46.6916 106.474 43.5305 101.226 36.5725 93.6738L36.5757 93.6744Z" fill="#6E6F77"/>
<path opacity="0.44" d="M21.0691 86.6574C20.1662 86.7867 19.2765 87.007 18.4023 87.3056C15.7543 88.2132 13.3984 89.8495 11.6233 92.0138C7.88129 96.5787 6.99744 102.893 11.2457 111.267C11.7433 112.248 12.2305 113.178 12.7137 114.066C4.2975 98.6089 14.1378 90.3175 21.0691 86.6574Z" fill="#AFAFC1"/>
<path opacity="0.12" d="M38.3626 102.885C36.6442 100.411 33.4036 99.4366 29.9146 99.994C27.4958 99.558 25.0898 99.9611 23.1165 101.332C21.1432 102.702 19.9253 104.816 19.4893 107.235C17.7486 110.309 17.5291 113.685 19.2488 116.161C20.1438 117.449 21.4536 118.33 22.995 118.8C27.0675 123.535 33.301 125.047 37.5421 122.102C41.7831 119.156 42.5411 112.785 39.5278 107.317C39.6258 105.709 39.2576 104.174 38.3626 102.885Z" fill="#1E1E21"/>
<path d="M38.9373 103.713C37.2189 101.238 33.9783 100.264 30.4893 100.821C28.0705 100.385 25.6645 100.788 23.6912 102.159C21.7179 103.529 20.5 105.643 20.064 108.062C18.3233 111.137 18.1038 114.512 19.8235 116.988C20.7185 118.276 22.0283 119.157 23.5697 119.627C27.6422 124.362 33.8757 125.874 38.1168 122.929C42.3578 119.983 43.1158 113.612 40.1025 108.145C40.2005 106.536 39.8323 105.001 38.9373 103.713Z" fill="#E1AC91"/>
<path d="M30.4933 100.822C28.0744 100.386 25.6684 100.789 23.6951 102.16C21.7218 103.53 20.5039 105.644 20.0679 108.063C18.3273 111.138 18.1077 114.513 19.8274 116.989C20.4241 117.848 21.2048 118.523 22.1132 119.019C20.6741 117.207 17.6699 114.575 20.5186 108.676C20.5186 108.676 21.804 100.662 30.2261 101.466C30.2261 101.466 33.1614 100.977 35.8768 101.315C34.3062 100.679 32.4379 100.511 30.4914 100.823L30.4933 100.822Z" fill="#F4C3AE"/>
<path opacity="0.21" d="M36.3794 93.4583C36.3794 93.4583 36.3812 93.457 36.3775 93.4596C40.8588 102.726 40.9462 109.678 38.3339 115.013C36.8588 118.025 33.9213 120.065 30.5833 120.396C24.671 120.979 18.1873 118.47 11.07 111.037C11.0643 111.041 11.0718 111.035 11.0681 111.038C15.7906 120.396 19.6246 125.215 26.2768 132.279C29.1102 135.286 33.4213 136.448 37.3547 135.182C39.7273 134.418 42.0177 133.3 44.1579 131.814C46.2981 130.327 48.2626 128.459 49.8368 126.426C52.3545 123.173 52.7728 118.759 50.9502 115.07C46.6679 106.402 43.4892 101.133 36.3831 93.4557L36.3794 93.4583Z" fill="#1E1E21"/>
<path d="M11.7204 104.868C11.7204 104.868 8.42966 99.4657 15.2295 100.376C15.2295 100.376 10.4963 99.935 11.7204 104.868Z" fill="#262325"/>
<path d="M30.4139 91.8846C30.4139 91.8846 26.5004 86.9144 24.9794 93.6042C24.9794 93.6042 26.2185 89.0149 30.4139 91.8846Z" fill="#262325"/>
<path d="M32.5296 102.541C30.6847 114.442 21.1738 110.428 21.1738 110.428" stroke="#262325" stroke-width="0.258643" stroke-linecap="round" stroke-linejoin="round"/>
<path d="M14.9672 106.172C14.9672 106.172 15.801 103.85 18.2666 103.881C18.2666 103.881 16.5901 101.739 13.5919 104.745C13.5919 104.745 16.2797 102.505 17.6922 103.726C17.6922 103.726 15.5621 103.782 14.9672 106.172Z" fill="#262325" stroke="#262325" stroke-width="0.175878" stroke-linecap="round" stroke-linejoin="round"/>
<path d="M30.5009 95.3832C30.5009 95.3832 28.0334 95.3536 27.2015 97.6748C27.2015 97.6748 25.7801 95.3559 29.6433 93.5959C29.6433 93.5959 26.6064 95.3326 27.2574 97.0827C27.2574 97.0827 28.0534 95.1061 30.5009 95.3832Z" fill="#262325" stroke="#262325" stroke-width="0.175878" stroke-linecap="round" stroke-linejoin="round"/>
<path d="M22.3013 124.591C21.033 125.755 19.9633 127.566 22.9143 130.794C22.9143 130.794 25.9271 133.843 30.4165 133.989C30.4165 133.989 27.4164 132.208 26.463 130.979C26.463 130.979 31.0544 133.154 31.7949 132.022L31.7535 132.006C29.9367 131.316 28.2863 130.249 26.9126 128.876C26.9126 128.876 31.3012 130.911 32.4402 130.145L28.1172 126.827C28.1172 126.827 30.7348 128.418 31.8202 127.631C31.8202 127.631 30.099 126.802 28.3445 124.756C27.6991 124.003 27.2865 123.789 26.5599 123.596C24.8026 123.131 23.396 123.588 22.3026 124.592L22.3013 124.591Z" fill="#E1AC91"/>
<path d="M26.7589 131.113C27.7843 131.568 31.1695 132.979 31.7949 132.022L31.7534 132.006C30.273 131.444 28.9074 130.627 27.707 129.603C26.6171 129.888 26.6764 130.742 26.7589 131.113Z" fill="white"/>
<path d="M28.3137 126.938C28.9417 127.286 30.9121 128.286 31.8179 127.629C31.8179 127.629 30.65 127.064 29.2551 125.72C28.3725 125.966 28.2895 126.599 28.3137 126.938Z" fill="white"/>
<path d="M26.043 132.9C27.2346 133.463 28.7203 133.933 30.4167 133.989C30.4167 133.989 28.1458 132.641 26.9289 131.482C25.9058 131.75 25.9265 132.472 26.0411 132.902L26.043 132.9Z" fill="white"/>
<path d="M26.9287 131.481C26.8304 131.507 26.7429 131.538 26.6631 131.571C27.2545 132.086 28.8635 133.446 29.9756 133.958C30.1215 133.968 30.2668 133.981 30.4171 133.985C30.4171 133.985 28.1462 132.637 26.9293 131.478L26.9287 131.481Z" fill="#F2F2F4"/>
<path d="M27.7076 129.604C27.6439 129.62 27.5847 129.639 27.5269 129.66C28.071 130.191 30.2118 132.16 31.7955 132.022L31.7541 132.007C30.2736 131.445 28.908 130.627 27.7076 129.604Z" fill="#F2F2F4"/>
<path d="M27.3914 129.088C28.5175 129.568 31.321 130.674 32.3364 130.203C31.0783 129.809 28.9501 127.869 28.387 127.343C27.2421 127.668 27.3255 128.717 27.3933 129.087L27.3914 129.088Z" fill="white"/>
<path d="M28.7007 127.275C28.5844 127.292 28.4816 127.316 28.3833 127.342C28.9464 127.869 31.0765 129.807 32.3327 130.202C32.3703 130.184 32.4048 130.166 32.4386 130.142L28.6994 127.273L28.7007 127.275Z" fill="#F2F2F4"/>
<path d="M29.2565 125.721C29.1323 125.755 29.0243 125.799 28.9302 125.848C29.4201 126.433 30.6822 127.786 31.773 127.659C31.788 127.649 31.8011 127.64 31.8161 127.629C31.8161 127.629 30.6482 127.065 29.2533 125.721L29.2565 125.721Z" fill="#F2F2F4"/>
<path opacity="0.43" d="M21.7608 125.158C20.805 126.328 20.4031 128.048 22.9141 130.794C22.9141 130.794 24.7919 132.693 27.7918 133.565C22.5147 130.379 21.0419 128.591 21.7608 125.158Z" fill="#CC9987"/>
<path d="M45.0122 108.817C46.5463 108.035 48.6165 107.665 50.6109 111.557C50.6109 111.557 52.4157 115.445 50.9853 119.703C50.9853 119.703 50.3636 116.27 49.5453 114.947C49.5453 114.947 49.98 120.009 48.661 120.308L48.6608 120.264C48.6485 118.32 48.2248 116.401 47.4176 114.634C47.4176 114.634 47.7921 119.457 46.6765 120.257L45.0771 115.048C45.0771 115.048 45.6538 118.056 44.5372 118.798C44.5372 118.798 44.3615 116.896 43.0572 114.538C42.5769 113.67 42.5206 113.209 42.5931 112.46C42.7716 110.651 43.6909 109.493 45.0135 108.819L45.0122 108.817Z" fill="#E1AC91"/>
<path d="M49.5679 115.271C49.6368 116.391 49.7769 120.056 48.6616 120.307L48.6614 120.263C48.6515 118.679 48.3626 117.114 47.8225 115.632C48.4695 114.71 49.2491 115.064 49.5679 115.271Z" fill="white"/>
<path d="M45.1142 115.269C45.2209 115.979 45.4698 118.175 44.5379 118.794C44.5379 118.794 44.4164 117.502 43.6441 115.726C44.1829 114.985 44.805 115.128 45.1142 115.269Z" fill="white"/>
<path d="M51.4951 115.223C51.6063 116.536 51.5276 118.092 50.9881 119.701C50.9881 119.701 50.518 117.103 49.8563 115.558C50.4651 114.693 51.1348 114.964 51.497 115.222L51.4951 115.223Z" fill="white"/>
<path d="M49.8535 115.559C49.9128 115.476 49.9716 115.404 50.0306 115.341C50.3068 116.075 51.0193 118.058 51.111 119.279C51.0693 119.419 51.0308 119.56 50.9822 119.702C50.9822 119.702 50.512 117.103 49.8504 115.558L49.8535 115.559Z" fill="#F2F2F4"/>
<path d="M47.8225 115.633C47.8601 115.579 47.8985 115.53 47.9381 115.483C48.2459 116.179 49.3438 118.872 48.6616 120.308L48.6614 120.264C48.6515 118.68 48.3626 117.115 47.8225 115.633Z" fill="#F2F2F4"/>
<path d="M47.4497 115.156C47.5066 116.379 47.564 119.392 46.7674 120.179C46.8374 118.862 45.7633 116.191 45.4666 115.479C46.1712 114.52 47.1249 114.965 47.4478 115.157L47.4497 115.156Z" fill="white"/>
<path d="M45.2945 115.751C45.3509 115.648 45.4094 115.56 45.4686 115.477C45.7653 116.189 46.8375 118.861 46.7694 120.176C46.7396 120.205 46.7103 120.231 46.6765 120.255L45.2932 115.749L45.2945 115.751Z" fill="#F2F2F4"/>
<path d="M43.6432 115.729C43.7178 115.624 43.7972 115.539 43.8757 115.467C44.2531 116.131 45.0802 117.786 44.5807 118.764C44.5657 118.774 44.5526 118.783 44.5376 118.794C44.5376 118.794 44.4161 117.502 43.6437 115.726L43.6432 115.729Z" fill="#F2F2F4"/>
<path opacity="0.43" d="M45.7329 108.509C47.163 108.022 48.9145 108.245 50.6115 111.557C50.6115 111.557 51.7352 113.98 51.5051 117.096C50.3621 111.038 49.2007 109.034 45.7329 108.509Z" fill="#CC9987"/>
<path d="M28.8559 109.733C27.7277 110.503 26.3373 111.08 24.7246 111.16C24.7246 111.16 25.9038 111.136 27.0016 111.5C27.6736 111.722 28.5545 112.006 29.3571 111.968C29.6666 111.954 29.9624 111.851 30.21 111.679C30.4576 111.507 30.6564 111.269 30.7789 110.981C31.0943 110.242 31.1362 109.318 31.162 108.61C31.2027 107.456 31.6386 106.358 31.6386 106.358C31.0004 107.841 29.9748 108.942 28.8596 109.731L28.8559 109.733Z" fill="#262325"/>
<path d="M20.9391 109.682C20.9391 109.682 21.3951 110.683 20.8272 111.222C20.8272 111.222 21.5997 110.713 20.9391 109.682Z" fill="#262325" stroke="#262325" stroke-width="0.182085" stroke-linecap="round" stroke-linejoin="round"/>
<path d="M32.0376 101.973C32.0376 101.973 32.8162 102.75 33.5197 102.406C33.5197 102.406 32.7732 102.952 32.0376 101.973Z" fill="#FFA9B1" stroke="#262325" stroke-width="0.182085" stroke-linecap="round" stroke-linejoin="round"/>
<path d="M26.6807 111.094C26.6807 111.094 28.8786 111.008 30.8692 108.185C30.8692 108.185 31.7152 113.486 26.6807 111.094Z" fill="#441E1C"/>
<path d="M30.9141 109.283C30.5655 109.369 29.8932 110.114 29.5451 110.526C29.4143 110.677 29.2571 110.803 29.0724 110.882C28.5434 111.104 28.4066 111.408 28.4129 111.673C30.419 111.984 30.8553 110.419 30.9141 109.283Z" fill="#EFB9B6"/>
<path d="M29.5451 110.526C29.4143 110.677 29.2571 110.803 29.0724 110.882C28.5434 111.104 28.4066 111.408 28.4129 111.673C28.8468 111.742 29.2068 111.72 29.506 111.634C29.8331 111.084 30.2196 110.36 30.873 109.72C30.8949 109.571 30.9067 109.424 30.9141 109.283C30.5655 109.369 29.8932 110.114 29.5451 110.526Z" fill="#DBAAA9"/>
<path d="M20.6364 104.198C20.4306 102.672 21.1651 100.955 22.3555 100.059C24.2679 98.6168 26.5733 98.4531 27.6953 100.285C28.8173 102.116 27.6083 103.863 25.7376 105.201C24.5963 106.016 22.1434 107.116 21.1259 105.551C20.8603 105.14 20.702 104.68 20.6377 104.199L20.6364 104.198Z" fill="#686463"/>
<path d="M20.5725 104.105C20.3666 102.58 21.1011 100.863 22.2916 99.9667C24.2039 98.5245 26.5093 98.3608 27.6314 100.192C28.7534 102.024 27.5443 103.77 25.6737 105.109C24.5324 105.923 22.0794 107.024 21.062 105.459C20.7963 105.048 20.638 104.588 20.5738 104.107L20.5725 104.105Z" fill="#FF5263"/>
<path d="M25.9361 98.9363C27.5397 99.8079 27.7739 103.388 23.6946 105.017C22.2108 105.611 20.9602 104.775 20.5845 104.174C20.6552 104.628 20.8074 105.068 21.06 105.459C22.0756 107.026 24.5317 105.926 25.6717 105.109C27.5423 103.771 28.7495 102.026 27.6294 100.193C27.2044 99.5013 26.6132 99.0945 25.9348 98.9344L25.9361 98.9363Z" fill="#FC2951"/>
<path d="M25.2389 99.3353C25.2736 99.4252 25.153 99.5117 24.9702 99.5247C24.7874 99.5377 24.6127 99.4783 24.5786 99.3852C24.5459 99.294 24.6659 99.2106 24.8487 99.1977C25.0302 99.1828 25.2061 99.2441 25.2389 99.3353Z" fill="#F77C90"/>
<path d="M21.0004 102.151C21.0004 102.151 22.0508 100.193 24.1972 99.6641C24.9394 99.5157 22.5498 98.8814 21.0004 102.151Z" fill="#F77C90"/>
<path d="M43.0367 117.318C42.5745 116.504 42.0481 115.738 41.3711 115.088C40.8355 114.573 40.2218 114.582 39.5912 114.903C38.1361 115.638 37.1058 117.194 36.6889 118.751C36.3628 118.694 36.0157 118.963 35.7661 119.164C35.6469 119.261 35.5392 119.358 35.4428 119.455C35.2278 119.638 35.057 119.885 34.9525 120.155C34.6683 119.966 34.2768 120.071 33.9622 120.114C33.4541 120.183 32.9432 120.296 32.4382 120.394C31.4661 120.58 30.5195 120.87 29.7597 121.526C29.1482 122.051 28.9634 122.693 29.2853 123.429C29.6642 124.295 30.2067 125.172 30.766 125.929C31.3135 126.669 32.0045 127.224 32.866 127.551C33.6725 127.856 34.58 128.002 35.2782 127.405C35.9197 126.86 36.2251 125.866 36.4669 125.089C36.6072 124.639 36.6933 124.17 36.742 123.7C36.7942 123.183 36.7195 122.687 36.709 122.171C36.7776 122.146 36.8454 122.115 36.9131 122.077C37.3072 121.848 37.6134 121.524 37.7951 121.153C37.8011 121.165 37.8095 121.173 37.8253 121.176C39.5726 121.442 41.3153 121.669 42.9304 120.784C43.4658 120.49 43.8799 120.077 43.9656 119.456C44.0694 118.689 43.3873 117.931 43.0385 117.316L43.0367 117.318Z" fill="#E09B00"/>
<path d="M36.6231 123.252C36.6139 123.703 36.5135 124.151 36.3925 124.585C36.19 125.327 35.8686 126.081 35.4649 126.737C34.9057 127.645 33.9841 127.587 33.0746 127.335C32.2804 127.116 31.6648 126.626 31.138 126.008C30.5774 125.349 30.211 124.569 29.8019 123.816C29.6654 123.563 29.5295 123.315 29.4325 123.044C29.2417 122.509 29.5621 122.097 29.9304 121.747C30.5645 121.142 31.4855 120.903 32.3117 120.707C32.757 120.604 33.2065 120.523 33.6484 120.41C34.0614 120.304 34.5053 120.163 34.9361 120.194C34.841 120.458 34.8121 120.736 34.8645 120.992C34.5218 121.127 34.1513 121.298 33.8608 121.517C33.6466 121.677 33.4368 121.839 33.2291 122.008C33.1349 122.085 32.6773 122.475 32.6788 122.421C32.6786 122.413 32.6698 122.416 32.6706 122.421C32.6666 122.443 32.6639 122.468 32.6598 122.49C32.6587 122.496 32.6658 122.502 32.6708 122.502C32.8089 122.464 32.9061 122.38 33.0177 122.289C33.2617 122.091 33.5355 121.929 33.795 121.754C34.1253 121.533 34.6255 121.453 34.9134 121.167C34.9147 121.168 34.916 121.17 34.9154 121.174C35.012 121.421 35.1556 121.643 35.3288 121.821C34.9511 122.05 34.6988 122.703 34.519 123.045C34.1878 123.681 33.9062 124.396 33.73 125.092C33.7253 125.109 33.7456 125.114 33.7517 125.099C33.9762 124.481 34.2967 123.878 34.603 123.298C34.7479 123.022 34.919 122.756 35.0876 122.494C35.2082 122.308 35.3911 122.167 35.5035 121.98C35.8147 122.22 36.1924 122.328 36.5913 122.217C36.5828 122.565 36.6273 122.91 36.6206 123.256L36.6231 123.252Z" fill="#FFDE55"/>
<path d="M36.9467 121.781C36.2961 122.242 35.6687 121.818 35.2813 121.265C35.0559 120.94 34.9887 120.603 35.1119 120.22C35.1442 120.123 35.191 120.018 35.2505 119.916C35.3379 119.813 35.436 119.714 35.5357 119.626C36.0866 119.254 36.7352 119.023 37.2659 119.355C37.2676 119.41 37.3144 119.441 37.359 119.421C37.4452 119.489 37.5291 119.57 37.6057 119.673C38.2169 120.468 37.6342 121.298 36.9442 121.786L36.9467 121.781Z" fill="#FFDE55"/>
<path d="M37.6087 119.667C37.5302 119.566 37.4482 119.484 37.362 119.416C37.3174 119.436 37.2706 119.404 37.2689 119.35C36.9401 119.145 36.5673 119.156 36.1985 119.282C36.4246 119.247 36.6462 119.274 36.8499 119.399C36.8515 119.445 36.8912 119.471 36.9283 119.456C37.0003 119.512 37.0713 119.582 37.1363 119.667C37.6513 120.341 37.1593 121.041 36.5787 121.45C36.0281 121.838 35.5 121.482 35.1731 121.011C35.1445 120.97 35.119 120.929 35.0973 120.886C35.1352 121.013 35.1977 121.139 35.2824 121.261C35.6692 121.818 36.2973 122.238 36.9478 121.777C37.6359 121.291 38.2186 120.461 37.6093 119.664L37.6087 119.667Z" fill="#FCCE0B"/>
<path d="M43.7118 119.121C43.9219 119.912 43.1774 120.402 42.571 120.698C41.0734 121.432 39.4384 121.071 37.8469 121.062C37.845 121.063 37.8399 121.064 37.8367 121.063C37.9477 120.803 37.9981 120.523 37.9743 120.237C37.9743 120.237 37.9743 120.237 37.9775 120.237C38.2712 120.256 38.5497 120.076 38.8309 120.009C39.2963 119.894 39.7968 119.93 40.2713 119.865C40.2814 119.863 40.2843 119.847 40.2729 119.847C39.7894 119.871 39.3069 119.789 38.8234 119.814C38.6595 119.822 38.507 119.867 38.3534 119.918C38.2225 119.961 38.0652 119.951 37.9454 120.015C37.9189 119.888 37.8778 119.761 37.8203 119.634C37.7462 119.472 37.6436 119.34 37.52 119.234C37.5977 119.122 37.667 119.001 37.7536 118.894C37.9214 118.691 38.1122 118.497 38.3065 118.321C38.7617 117.907 39.2742 117.54 39.7108 117.112C39.7164 117.108 39.7124 117.094 39.703 117.101C39.1978 117.518 38.6132 117.858 38.0899 118.257C37.8389 118.448 37.4836 118.753 37.3385 119.085C37.1767 118.908 36.9728 118.747 36.7761 118.764C37.0531 118.238 37.2968 117.696 37.6147 117.189C38.0291 116.528 38.5794 116.015 39.197 115.547C39.8428 115.06 40.498 114.802 41.1702 115.37C41.7697 115.877 42.2377 116.566 42.6575 117.223C43.0363 117.816 43.5326 118.431 43.7155 119.119L43.7118 119.121Z" fill="#FFDE55"/>
<path d="M40.102 116.119C40.3018 115.981 40.3513 115.706 40.2125 115.506C40.0737 115.306 39.7991 115.257 39.5992 115.396C39.3993 115.534 39.3498 115.809 39.4887 116.009C39.6275 116.209 39.9021 116.258 40.102 116.119Z" fill="#F41C2C"/>
<path d="M38.2154 117.658C38.4403 117.566 38.5475 117.308 38.4552 117.083C38.3629 116.858 38.105 116.751 37.88 116.843C37.8674 116.849 37.8562 116.857 37.8418 116.864C37.7621 116.97 37.685 117.079 37.6118 117.194C37.6018 117.267 37.609 117.346 37.6401 117.418C37.7325 117.643 37.9904 117.751 38.2154 117.658Z" fill="#1B8C1B"/>
<path d="M40.1156 118.168C40.3155 118.029 40.365 117.754 40.2262 117.554C40.0874 117.355 39.8128 117.305 39.6129 117.444C39.413 117.583 39.3635 117.857 39.5023 118.057C39.6412 118.257 39.9158 118.307 40.1156 118.168Z" fill="#CF4CD6"/>
<path d="M36.1752 120.393C36.3751 120.254 36.4246 119.979 36.2858 119.78C36.1469 119.58 35.8724 119.53 35.6725 119.669C35.4726 119.808 35.4231 120.082 35.5619 120.282C35.7007 120.482 35.9753 120.532 36.1752 120.393Z" fill="#F41C2C"/>
<path d="M37.8605 120.29C37.7439 120.218 37.5966 120.198 37.4583 120.255C37.2333 120.348 37.1261 120.606 37.2185 120.831C37.2882 120.999 37.4516 121.102 37.622 121.104C37.787 120.853 37.8812 120.576 37.8586 120.292L37.8605 120.29Z" fill="#1B8C1B"/>
<path d="M35.6791 121.697C35.8496 121.834 36.0383 121.934 36.2391 121.967C36.237 121.96 36.2356 121.95 36.2317 121.944C36.1414 121.726 35.8981 121.62 35.6772 121.698L35.6791 121.697Z" fill="#CF4CD6"/>
<path d="M39.4723 120.011C39.527 119.99 39.5757 119.956 39.6155 119.917C39.4283 119.927 39.241 119.938 39.0566 119.969C39.1766 120.049 39.3303 120.071 39.4736 120.013L39.4723 120.011Z" fill="#F6BFC1"/>
<path d="M39.712 119.435C39.6196 119.21 39.3617 119.103 39.1367 119.195C38.9118 119.287 38.8046 119.545 38.8969 119.77C38.9023 119.786 38.9127 119.801 38.9199 119.815C39.1719 119.81 39.4236 119.824 39.6753 119.838C39.7491 119.72 39.7691 119.573 39.712 119.435Z" fill="#4D4DE8"/>
<path d="M37.3575 119.046C37.3457 119.049 37.3338 119.051 37.3214 119.057C37.3177 119.06 37.3158 119.061 37.314 119.062C37.3204 119.072 37.3306 119.078 37.337 119.088C37.3443 119.074 37.3516 119.061 37.3588 119.048L37.3575 119.046Z" fill="#F6BFC1"/>
<path d="M37.8955 119.296C37.8464 119.177 37.7517 119.092 37.6394 119.051C37.5988 119.112 37.5581 119.174 37.5175 119.236C37.6398 119.34 37.7405 119.473 37.8177 119.636C37.8309 119.663 37.8378 119.689 37.8491 119.717C37.9329 119.598 37.9546 119.441 37.8968 119.297L37.8955 119.296Z" fill="#F6BFC1"/>
<path d="M42.0194 118.464C42.2193 118.325 42.2688 118.05 42.13 117.85C41.9912 117.651 41.7166 117.601 41.5167 117.74C41.3168 117.879 41.2673 118.153 41.4062 118.353C41.545 118.553 41.8196 118.603 42.0194 118.464Z" fill="#4D4DE8"/>
<path d="M43.4036 118.39C43.3531 118.498 43.3448 118.626 43.3939 118.745C43.4451 118.87 43.5506 118.958 43.6717 118.997C43.6044 118.788 43.5125 118.587 43.4036 118.39Z" fill="#F6BFC1"/>
<path d="M42.9675 120.48C43.1947 120.339 43.4081 120.166 43.5549 119.961C43.4522 119.921 43.3349 119.917 43.2249 119.963C43.0194 120.047 42.9135 120.271 42.9675 120.48Z" fill="#F6BFC1"/>
<path d="M41.5493 116.285C41.6416 116.51 41.8996 116.617 42.1245 116.525C42.1403 116.519 42.1534 116.51 42.1665 116.501C41.9987 116.267 41.8201 116.038 41.6273 115.825C41.5201 115.947 41.4816 116.123 41.548 116.283L41.5493 116.285Z" fill="#CF4CD6"/>
<path d="M41.6108 120.42C41.8106 120.281 41.8601 120.007 41.7213 119.807C41.5825 119.607 41.3079 119.558 41.108 119.696C40.9081 119.835 40.8586 120.11 40.9975 120.31C41.1363 120.51 41.4109 120.559 41.6108 120.42Z" fill="#F41C2C"/>
<path d="M38.5007 120.886C38.4052 120.925 38.3336 120.994 38.2877 121.076C38.5482 121.087 38.8082 121.101 39.0694 121.117C38.9741 120.899 38.7219 120.796 38.5007 120.886Z" fill="#F6BFC1"/>
<path d="M30.3036 122.805C30.5035 122.667 30.553 122.392 30.4142 122.192C30.2754 121.992 30.0008 121.943 29.8009 122.082C29.601 122.22 29.5515 122.495 29.6903 122.695C29.8292 122.895 30.1037 122.944 30.3036 122.805Z" fill="#F41C2C"/>
<path d="M32.3109 123.769C32.5108 123.631 32.5603 123.356 32.4215 123.156C32.2827 122.956 32.0081 122.907 31.8082 123.046C31.6083 123.184 31.5588 123.459 31.6977 123.659C31.8365 123.859 32.1111 123.908 32.3109 123.769Z" fill="#1B8C1B"/>
<path d="M34.0531 126.177C34.253 126.038 34.3025 125.764 34.1637 125.564C34.0249 125.364 33.7503 125.314 33.5504 125.453C33.3505 125.592 33.301 125.867 33.4398 126.067C33.5787 126.266 33.8533 126.316 34.0531 126.177Z" fill="#F41C2C"/>
<path d="M32.6864 121.7C32.8863 121.561 32.9358 121.287 32.797 121.087C32.6582 120.887 32.3836 120.837 32.1837 120.976C31.9838 121.115 31.9343 121.39 32.0731 121.589C32.212 121.789 32.4866 121.839 32.6864 121.7Z" fill="#CF4CD6"/>
<path d="M36.1156 123.471C36.3155 123.332 36.365 123.057 36.2262 122.857C36.0874 122.657 35.8128 122.608 35.6129 122.747C35.413 122.886 35.3635 123.16 35.5023 123.36C35.6412 123.56 35.9158 123.609 36.1156 123.471Z" fill="#4D4DE8"/>
<path d="M31.8715 125.87C32.0714 125.732 32.1209 125.457 31.9821 125.257C31.8432 125.057 31.5686 125.008 31.3688 125.147C31.1689 125.285 31.1194 125.56 31.2582 125.76C31.397 125.96 31.6716 126.009 31.8715 125.87Z" fill="#4D4DE8"/>
<path d="M34.684 122.446C34.8839 122.307 34.9334 122.033 34.7945 121.833C34.6557 121.633 34.3811 121.583 34.1813 121.722C33.9814 121.861 33.9319 122.136 34.0707 122.336C34.2095 122.535 34.4841 122.585 34.684 122.446Z" fill="#1B8C1B"/>
<path d="M33.6421 123.281C33.4172 123.373 33.31 123.631 33.4023 123.856C33.4946 124.081 33.7525 124.188 33.9775 124.096C34.0095 124.082 34.0408 124.063 34.069 124.043C34.1239 123.902 34.1839 123.761 34.2434 123.622C34.2382 123.587 34.2294 123.554 34.2174 123.521C34.125 123.296 33.8671 123.188 33.6421 123.281Z" fill="#F41C2C"/>
<path d="M35.7964 124.46C35.5714 124.553 35.4643 124.811 35.5566 125.036C35.6489 125.261 35.9068 125.368 36.1318 125.275C36.1494 125.269 36.1644 125.258 36.1788 125.251C36.2469 125.065 36.3091 124.874 36.3625 124.687C36.2653 124.471 36.0145 124.37 35.7946 124.462L35.7964 124.46Z" fill="#1B8C1B"/>
<path d="M34.0753 126.87C33.8503 126.963 33.7431 127.221 33.8354 127.446C33.8414 127.458 33.8492 127.47 33.8551 127.482C34.1381 127.505 34.412 127.487 34.6637 127.401C34.6904 127.308 34.6891 127.206 34.6505 127.11C34.5582 126.885 34.3003 126.778 34.0753 126.87Z" fill="#CF4CD6"/>
<path d="M34.0726 120.733C34.1649 120.958 34.4228 121.065 34.6478 120.973C34.7295 120.938 34.7968 120.883 34.8437 120.814C34.8346 120.673 34.8477 120.528 34.8817 120.385C34.8441 120.303 34.7871 120.237 34.7147 120.192C34.5261 120.201 34.3342 120.237 34.1457 120.282C34.0435 120.403 34.0075 120.575 34.0726 120.733Z" fill="#4D4DE8"/>
<path d="M35.507 121.978C35.3946 122.164 35.2117 122.305 35.0911 122.492C34.9225 122.754 34.7514 123.02 34.6065 123.296C34.2983 123.877 33.9784 124.477 33.7552 125.096C33.7491 125.112 33.7288 125.106 33.7335 125.089C33.9084 124.392 34.1913 123.679 34.5225 123.043C34.701 122.699 34.9546 122.047 35.3323 121.818C35.1591 121.641 35.0174 121.417 34.9189 121.171C34.9176 121.169 34.9163 121.167 34.9169 121.164C34.629 121.45 34.1288 121.531 33.7985 121.752C33.5376 121.925 33.2633 122.09 33.0212 122.286C32.9096 122.378 32.8142 122.461 32.6743 122.499C32.6674 122.501 32.6616 122.497 32.6633 122.488C32.6674 122.465 32.6701 122.441 32.6741 122.419C32.6752 122.413 32.6834 122.412 32.6823 122.419C32.6821 122.475 33.1384 122.083 33.2326 122.006C33.4403 121.837 33.6514 121.676 33.8643 121.514C34.1529 121.297 34.5253 121.125 34.868 120.99C34.8156 120.734 34.8445 120.455 34.9396 120.192C34.5107 120.159 34.0649 120.302 33.6519 120.408C33.21 120.52 32.7592 120.6 32.3152 120.705C31.4858 120.9 30.568 121.14 29.9339 121.744C29.5637 122.096 29.2452 122.506 29.436 123.041C29.533 123.313 29.6689 123.561 29.8055 123.813C30.2145 124.567 30.5809 125.346 31.1415 126.005C31.6683 126.624 32.2826 127.112 33.0781 127.332C33.9876 127.585 34.9111 127.641 35.4684 126.734C35.8721 126.079 36.1916 125.326 36.396 124.583C36.5151 124.15 36.6174 123.701 36.6266 123.25C36.6333 122.903 36.5887 122.558 36.5973 122.211C36.2016 122.321 35.8206 122.213 35.5095 121.973L35.507 121.978ZM35.9774 122.891C36.2326 123.651 35.1634 127.753 33.1428 127.201C31.1208 126.648 29.9991 123.968 29.6776 123.021C29.3561 122.074 30.6959 121.34 32.6962 120.721C35.1103 119.973 34.2933 121.055 33.5029 121.699C32.7125 122.342 31.6331 123.114 32.6717 122.596C33.7103 122.077 35.1644 121.621 34.3111 123.087C33.4591 124.554 33.4189 126.598 33.7997 125.341C34.1806 124.084 35.6154 121.814 35.9792 122.89L35.9774 122.891Z" fill="#FCCE0B"/>
<path d="M42.6536 117.226C42.2338 116.57 41.7676 115.879 41.1663 115.373C40.4941 114.806 39.8389 115.063 39.1931 115.551C38.5755 116.019 38.0271 116.53 37.6108 117.192C37.2929 117.699 37.0492 118.241 36.7722 118.767C36.9676 118.748 37.1728 118.911 37.3346 119.088C37.481 118.759 37.8363 118.453 38.086 118.261C38.6093 117.861 39.1939 117.522 39.6991 117.104C39.7066 117.099 39.7125 117.111 39.7069 117.115C39.2716 117.545 38.7578 117.911 38.3026 118.324C38.1083 118.501 37.9175 118.695 37.7497 118.897C37.6612 119.006 37.5925 119.123 37.5161 119.237C37.6384 119.342 37.7392 119.475 37.8164 119.638C37.8739 119.765 37.915 119.892 37.9415 120.018C38.0613 119.954 38.2186 119.965 38.3495 119.921C38.505 119.869 38.6556 119.825 38.8195 119.817C39.3049 119.791 39.7841 119.873 40.269 119.85C40.2791 119.849 40.2775 119.867 40.2674 119.868C39.7942 119.935 39.2924 119.897 38.827 120.012C38.547 120.081 38.2686 120.261 37.9736 120.24C37.9736 120.24 37.9736 120.24 37.9704 120.24C37.9911 120.526 37.9438 120.806 37.8328 121.067C37.8347 121.065 37.8385 121.063 37.8429 121.065C39.4345 121.075 41.0714 121.434 42.5671 120.701C43.1735 120.405 43.918 119.916 43.7078 119.125C43.525 118.437 43.0305 117.821 42.6499 117.229L42.6536 117.226ZM42.8263 120.137C41.3914 121.07 38.9984 120.863 38.7066 120.507C38.5691 120.341 38.4108 120.045 39.2785 120.002C40.1462 119.958 41.449 119.704 40.5956 119.768C39.7422 119.832 37.9194 119.558 38.3343 118.658C38.7266 117.802 40.5838 116.52 39.8218 116.997C39.0586 117.471 36.8977 118.936 37.2519 118.072C37.9249 116.423 39.9541 114.26 41.2192 115.754C42.4829 117.245 44.2662 119.204 42.8326 120.138L42.8263 120.137Z" fill="#FCCE0B"/>
<path d="M363.339 164.693C367.593 155.52 365.984 148.942 361.333 144.475C359.98 143.175 358.38 142.146 356.635 141.452C350.642 139.071 343.988 140.334 337.403 148.007C330.698 155.821 327.726 161.187 323.782 169.944C322.074 173.733 322.648 178.198 325.351 181.354C326.947 183.22 328.831 184.88 330.988 186.268C333.145 187.655 335.634 188.768 338.101 189.445C342.086 190.54 346.349 189.228 349.074 186.12C355.376 178.932 359.018 174.006 363.339 164.69L363.339 164.693Z" fill="#6E6F77"/>
<path opacity="0.44" d="M363.899 147.682C363.434 146.897 362.891 146.159 362.281 145.465C360.43 143.365 358.018 141.813 355.34 140.999C349.691 139.285 343.519 140.881 337.403 148.007C336.687 148.842 336.014 149.647 335.378 150.433C346.446 136.749 357.868 142.675 363.899 147.682Z" fill="#AFAFC1"/>
<path opacity="0.12" d="M355.51 169.864C357.139 167.33 356.802 163.963 354.954 160.952C354.432 158.55 353.141 156.481 351.12 155.181C349.1 153.881 346.681 153.563 344.279 154.084C340.772 153.651 337.569 154.737 335.938 157.273C335.09 158.592 334.776 160.139 334.931 161.743C332.111 167.316 333.095 173.654 337.438 176.448C341.78 179.242 347.958 177.508 351.859 172.634C353.383 172.11 354.661 171.183 355.51 169.864Z" fill="#1E1E21"/>
<path d="M354.965 170.711C356.595 168.178 356.258 164.81 354.409 161.799C353.888 159.397 352.596 157.328 350.576 156.028C348.555 154.728 346.136 154.41 343.734 154.932C340.228 154.498 337.025 155.585 335.394 158.12C334.545 159.439 334.231 160.986 334.386 162.59C331.567 168.163 332.551 174.501 336.893 177.295C341.236 180.089 347.413 178.355 351.315 173.481C352.839 172.957 354.116 172.03 354.965 170.711Z" fill="#E1AC91"/>
<path d="M354.41 161.803C353.889 159.401 352.597 157.332 350.576 156.032C348.556 154.732 346.137 154.414 343.735 154.935C340.228 154.502 337.026 155.588 335.395 158.124C334.829 159.003 334.502 159.983 334.392 161.012C335.516 158.99 336.801 155.208 343.341 155.586C343.341 155.586 351.238 153.712 353.712 161.802C353.712 161.802 355.287 164.328 356.011 166.967C355.999 165.272 355.44 163.482 354.408 161.802L354.41 161.803Z" fill="#F4C3AE"/>
<path opacity="0.21" d="M363.464 164.429C363.464 164.429 363.465 164.43 363.462 164.428C356.61 172.11 350.219 174.847 344.291 174.471C340.944 174.259 337.936 172.324 336.355 169.365C333.557 164.125 333.399 157.174 337.548 147.757C337.543 147.753 337.55 147.758 337.547 147.755C330.703 155.695 327.714 161.08 323.728 169.926C322.033 173.693 322.605 178.122 325.279 181.273C326.891 183.173 328.799 184.863 330.991 186.273C333.182 187.683 335.659 188.784 338.139 189.462C342.107 190.546 346.346 189.246 349.059 186.152C355.433 178.883 359.088 173.932 363.467 164.432L363.464 164.429Z" fill="#1E1E21"/>
<path d="M343.498 146.001C343.498 146.001 347.233 140.896 348.99 147.528C348.99 147.528 347.589 142.985 343.498 146.001Z" fill="#262325"/>
<path d="M362.639 158.315C362.639 158.315 365.737 152.799 358.973 153.95C358.973 153.95 363.688 153.342 362.639 158.315Z" fill="#262325"/>
<path d="M353.599 164.342C341.897 167.184 341.972 156.861 341.972 156.861" stroke="#262325" stroke-width="0.258643" stroke-linecap="round" stroke-linejoin="round"/>
<path d="M343.533 149.5C343.533 149.5 345.998 149.383 346.912 151.673C346.912 151.673 348.25 149.306 344.327 147.683C344.327 147.683 347.424 149.311 346.835 151.083C346.835 151.083 345.969 149.136 343.533 149.5Z" fill="#262325" stroke="#262325" stroke-width="0.175878" stroke-linecap="round" stroke-linejoin="round"/>
<path d="M359.439 159.732C359.439 159.732 358.523 157.441 356.06 157.559C356.06 157.559 357.66 155.359 360.763 158.257C360.763 158.257 357.997 156.114 356.629 157.384C356.629 157.384 358.759 157.364 359.439 159.732Z" fill="#262325" stroke="#262325" stroke-width="0.175878" stroke-linecap="round" stroke-linejoin="round"/>
<path d="M329.315 163.315C327.754 162.588 325.672 162.291 323.817 166.251C323.817 166.251 322.15 170.2 323.73 174.405C323.73 174.405 324.23 170.952 325.001 169.601C325.001 169.601 324.746 174.675 326.075 174.927L326.073 174.883C326.017 172.94 326.372 171.008 327.117 169.213C327.117 169.213 326.913 174.047 328.056 174.806L329.47 169.544C329.47 169.544 329 172.571 330.143 173.273C330.143 173.273 330.251 171.366 331.471 168.962C331.92 168.078 331.96 167.615 331.861 166.87C331.619 165.069 330.659 163.943 329.314 163.317L329.315 163.315Z" fill="#E1AC91"/>
<path d="M324.991 169.926C324.961 171.048 324.951 174.716 326.074 174.928L326.073 174.884C326.027 173.301 326.26 171.726 326.748 170.226C326.068 169.327 325.302 169.709 324.991 169.926Z" fill="white"/>
<path d="M329.442 169.768C329.361 170.481 329.19 172.684 330.143 173.27C330.143 173.27 330.219 171.975 330.928 170.173C330.363 169.451 329.747 169.616 329.442 169.768Z" fill="white"/>
<path d="M323.065 169.948C323 171.264 323.134 172.816 323.73 174.406C323.73 174.406 324.108 171.792 324.715 170.224C324.076 169.381 323.416 169.677 323.063 169.947L323.065 169.948Z" fill="white"/>
<path d="M324.715 170.224C324.653 170.144 324.592 170.074 324.531 170.013C324.281 170.757 323.639 172.763 323.59 173.987C323.637 174.125 323.68 174.264 323.734 174.405C323.734 174.405 324.112 171.791 324.719 170.224L324.715 170.224Z" fill="#F2F2F4"/>
<path d="M326.748 170.226C326.708 170.174 326.668 170.126 326.627 170.081C326.344 170.786 325.342 173.517 326.074 174.928L326.073 174.884C326.027 173.301 326.26 171.727 326.748 170.226Z" fill="#F2F2F4"/>
<path d="M327.103 169.737C327.089 170.961 327.139 173.974 327.963 174.733C327.846 173.419 328.825 170.712 329.096 169.99C328.358 169.056 327.421 169.534 327.105 169.738L327.103 169.737Z" fill="white"/>
<path d="M329.279 170.254C329.219 170.153 329.158 170.068 329.096 169.987C328.824 170.708 327.847 173.417 327.962 174.729C327.993 174.757 328.023 174.782 328.057 174.804L329.281 170.252L329.279 170.254Z" fill="#F2F2F4"/>
<path d="M330.928 170.174C330.849 170.072 330.767 169.989 330.686 169.921C330.332 170.597 329.564 172.281 330.098 173.24C330.113 173.25 330.127 173.259 330.142 173.269C330.142 173.269 330.218 171.974 330.927 170.171L330.928 170.174Z" fill="#F2F2F4"/>
<path opacity="0.43" d="M328.584 163.032C327.137 162.596 325.395 162.882 323.816 166.252C323.816 166.252 322.779 168.712 323.119 171.818C324.047 165.724 325.137 163.68 328.584 163.032Z" fill="#CC9987"/>
<path d="M352.569 178.276C353.878 179.395 355.011 181.166 352.176 184.497C352.176 184.497 349.273 187.65 344.792 187.955C344.792 187.955 347.727 186.069 348.636 184.807C348.636 184.807 344.125 187.143 343.345 186.038L343.385 186.021C345.177 185.267 346.788 184.142 348.113 182.721C348.113 182.721 343.799 184.91 342.633 184.185L346.836 180.716C346.836 180.716 344.277 182.399 343.164 181.65C343.164 181.65 344.855 180.761 346.536 178.655C347.154 177.879 347.559 177.651 348.278 177.432C350.018 176.906 351.44 177.313 352.568 178.278L352.569 178.276Z" fill="#E1AC91"/>
<path d="M348.346 184.952C347.337 185.443 344.004 186.973 343.345 186.039L343.386 186.021C344.846 185.407 346.181 184.542 347.345 183.477C348.444 183.722 348.415 184.578 348.346 184.952Z" fill="white"/>
<path d="M346.645 180.835C346.03 181.204 344.096 182.273 343.168 181.649C343.168 181.649 344.315 181.043 345.661 179.651C346.552 179.865 346.658 180.495 346.645 180.835Z" fill="white"/>
<path d="M349.126 186.714C347.955 187.319 346.487 187.841 344.794 187.957C344.794 187.957 347.016 186.53 348.191 185.328C349.223 185.56 349.228 186.283 349.128 186.716L349.126 186.714Z" fill="white"/>
<path d="M348.189 185.325C348.288 185.349 348.376 185.376 348.457 185.406C347.884 185.942 346.324 187.358 345.231 187.909C345.086 187.924 344.941 187.942 344.791 187.952C344.791 187.952 347.013 186.524 348.188 185.322L348.189 185.325Z" fill="#F2F2F4"/>
<path d="M347.344 183.477C347.409 183.491 347.468 183.508 347.527 183.527C347.002 184.077 344.932 186.121 343.344 186.039L343.385 186.022C344.845 185.407 346.181 184.542 347.344 183.477Z" fill="#F2F2F4"/>
<path d="M347.642 182.95C346.534 183.47 343.771 184.674 342.74 184.239C343.983 183.801 346.041 181.787 346.586 181.241C347.741 181.526 347.695 182.577 347.64 182.949L347.642 182.95Z" fill="white"/>
<path d="M346.27 181.186C346.386 181.198 346.49 181.219 346.589 181.242C346.045 181.788 343.985 183.8 342.743 184.24C342.705 184.223 342.67 184.206 342.635 184.184L346.271 181.184L346.27 181.186Z" fill="#F2F2F4"/>
<path d="M345.659 179.651C345.784 179.68 345.893 179.721 345.989 179.766C345.52 180.369 344.307 181.765 343.212 181.677C343.197 181.667 343.183 181.659 343.168 181.649C343.168 181.649 344.315 181.043 345.662 179.651L345.659 179.651Z" fill="#F2F2F4"/>
<path opacity="0.43" d="M353.129 178.824C354.126 179.959 354.588 181.663 352.176 184.497C352.176 184.497 350.366 186.461 347.399 187.439C352.56 184.068 353.969 182.229 353.129 178.824Z" fill="#CC9987"/>
<path d="M345.549 163.695C344.406 162.947 343.343 161.882 342.652 160.422C342.652 160.422 343.125 161.503 343.208 162.656C343.259 163.363 343.334 164.285 343.675 165.012C343.807 165.293 344.015 165.527 344.268 165.69C344.522 165.853 344.818 165.946 345.131 165.949C345.934 165.958 346.805 165.644 347.468 165.397C348.551 164.994 349.732 164.977 349.732 164.977C348.117 164.954 346.707 164.427 345.553 163.698L345.549 163.695Z" fill="#262325"/>
<path d="M342.572 156.359C342.572 156.359 341.821 157.163 341.106 156.844C341.106 156.844 341.871 157.364 342.572 156.359Z" fill="#262325" stroke="#262325" stroke-width="0.182085" stroke-linecap="round" stroke-linejoin="round"/>
<path d="M353.936 163.67C353.936 163.67 353.516 164.687 354.102 165.205C354.102 165.205 353.312 164.724 353.936 163.67Z" fill="#FFA9B1" stroke="#262325" stroke-width="0.182085" stroke-linecap="round" stroke-linejoin="round"/>
<path d="M343.461 162.205C343.461 162.205 344.38 164.203 347.75 164.964C347.75 164.964 343.174 167.771 343.461 162.205Z" fill="#441E1C"/>
<path d="M346.752 165.425C346.539 165.136 345.594 164.799 345.08 164.634C344.89 164.572 344.714 164.475 344.571 164.334C344.163 163.93 343.83 163.92 343.587 164.027C344.067 165.999 345.68 165.805 346.752 165.425Z" fill="#EFB9B6"/>
<path d="M345.08 164.634C344.89 164.572 344.714 164.475 344.571 164.334C344.163 163.93 343.83 163.92 343.587 164.027C343.69 164.454 343.848 164.778 344.041 165.022C344.674 165.114 345.491 165.195 346.332 165.554C346.478 165.517 346.619 165.472 346.752 165.425C346.539 165.136 345.594 164.799 345.08 164.634Z" fill="#DBAAA9"/>
<path d="M347.524 153.984C348.855 153.211 350.722 153.234 352.005 153.991C354.069 155.208 355.101 157.276 353.837 159.012C352.573 160.749 350.497 160.299 348.546 159.082C347.357 158.338 345.403 156.492 346.46 154.954C346.738 154.551 347.103 154.229 347.523 153.986L347.524 153.984Z" fill="#686463"/>
<path d="M347.585 153.89C348.916 153.117 350.783 153.14 352.066 153.897C354.13 155.113 355.162 157.181 353.898 158.918C352.634 160.655 350.558 160.205 348.607 158.987C347.418 158.244 345.464 156.398 346.521 154.859C346.799 154.457 347.164 154.135 347.584 153.892L347.585 153.89Z" fill="#FF5263"/>
<path d="M354.411 156.871C354.218 158.686 351 160.27 347.935 157.123C346.819 155.979 347.114 154.504 347.526 153.927C347.133 154.166 346.785 154.474 346.52 154.857C345.46 156.394 347.415 158.244 348.606 158.985C350.557 160.203 352.631 160.652 353.897 158.916C354.374 158.259 354.524 157.557 354.412 156.869L354.411 156.871Z" fill="#FC2951"/>
<path d="M353.776 156.38C353.706 156.446 353.58 156.368 353.498 156.204C353.417 156.04 353.405 155.856 353.478 155.789C353.549 155.723 353.672 155.802 353.754 155.966C353.837 156.128 353.848 156.314 353.776 156.38Z" fill="#F77C90"/>
<path d="M349.554 153.539C349.554 153.539 351.765 153.761 353.074 155.542C353.495 156.172 353.168 153.721 349.554 153.539Z" fill="#F77C90"/>
<path d="M343.958 179.698C344.534 178.96 345.04 178.181 345.383 177.307C345.654 176.615 345.411 176.051 344.873 175.591C343.638 174.528 341.807 174.17 340.208 174.38C340.136 174.056 339.755 173.838 339.474 173.685C339.339 173.611 339.208 173.549 339.081 173.497C338.83 173.368 338.537 173.305 338.248 173.311C338.314 172.976 338.067 172.655 337.907 172.38C337.649 171.937 337.349 171.508 337.066 171.079C336.523 170.252 335.893 169.488 334.997 169.036C334.278 168.672 333.613 168.747 333.056 169.325C332.401 170.006 331.798 170.843 331.312 171.649C330.837 172.438 330.588 173.288 330.615 174.209C330.642 175.071 330.854 175.965 331.672 176.383C332.421 176.767 333.456 176.67 334.266 176.596C334.736 176.554 335.202 176.454 335.655 176.319C336.153 176.17 336.583 175.912 337.055 175.705C337.105 175.759 337.159 175.81 337.221 175.857C337.583 176.134 337.999 176.293 338.411 176.319C338.402 176.33 338.398 176.341 338.401 176.356C338.823 178.073 339.279 179.77 340.715 180.924C341.191 181.307 341.73 181.532 342.337 181.373C343.086 181.176 343.526 180.256 343.96 179.699L343.958 179.698Z" fill="#E09B00"/>
<path d="M336.024 176.038C335.604 176.202 335.151 176.281 334.704 176.335C333.941 176.431 333.121 176.422 332.361 176.3C331.308 176.13 331.009 175.256 330.895 174.319C330.794 173.502 331.011 172.746 331.382 172.022C331.776 171.253 332.357 170.616 332.897 169.95C333.078 169.727 333.255 169.507 333.469 169.314C333.891 168.933 334.393 169.072 334.858 169.278C335.659 169.633 336.232 170.393 336.728 171.082C336.994 171.454 337.241 171.838 337.514 172.204C337.769 172.545 338.07 172.901 338.205 173.311C337.925 173.324 337.657 173.404 337.441 173.55C337.185 173.285 336.885 173.008 336.572 172.823C336.343 172.686 336.112 172.554 335.877 172.427C335.77 172.369 335.234 172.095 335.285 172.076C335.292 172.073 335.286 172.066 335.282 172.068C335.259 172.073 335.236 172.08 335.214 172.085C335.208 172.086 335.205 172.095 335.207 172.099C335.295 172.213 335.41 172.27 335.537 172.338C335.812 172.489 336.067 172.679 336.328 172.853C336.658 173.073 336.924 173.505 337.298 173.662C337.297 173.664 337.295 173.665 337.292 173.666C337.101 173.85 336.95 174.068 336.852 174.295C336.496 174.034 335.796 174.05 335.411 174.015C334.697 173.952 333.928 173.965 333.219 174.068C333.201 174.07 333.204 174.091 333.22 174.09C333.877 174.062 334.557 174.128 335.21 174.189C335.52 174.218 335.831 174.274 336.138 174.33C336.356 174.37 336.556 174.485 336.772 174.518C336.669 174.897 336.714 175.287 336.968 175.614C336.643 175.739 336.342 175.911 336.019 176.038L336.024 176.038Z" fill="#FFDE55"/>
<path d="M337.507 175.776C336.833 175.35 336.984 174.609 337.348 174.039C337.561 173.707 337.847 173.516 338.248 173.484C338.351 173.476 338.465 173.48 338.583 173.495C338.711 173.537 338.84 173.59 338.96 173.648C339.513 174.015 339.975 174.527 339.871 175.144C339.821 175.166 339.81 175.221 339.845 175.255C339.815 175.361 339.773 175.469 339.707 175.579C339.205 176.448 338.216 176.227 337.502 175.775L337.507 175.776Z" fill="#FFDE55"/>
<path d="M339.713 175.58C339.776 175.468 339.821 175.361 339.851 175.256C339.816 175.222 339.827 175.167 339.876 175.144C339.94 174.762 339.787 174.422 339.53 174.129C339.649 174.325 339.709 174.54 339.671 174.776C339.629 174.795 339.621 174.842 339.648 174.87C339.624 174.958 339.587 175.05 339.532 175.143C339.107 175.877 338.272 175.689 337.672 175.309C337.103 174.948 337.23 174.324 337.54 173.843C337.567 173.8 337.595 173.761 337.627 173.725C337.525 173.808 337.432 173.914 337.352 174.039C336.985 174.609 336.837 175.35 337.51 175.775C338.223 176.225 339.212 176.447 339.716 175.579L339.713 175.58Z" fill="#FCCE0B"/>
<path d="M342.55 181.011C341.899 181.507 341.162 181.006 340.657 180.559C339.406 179.456 339.115 177.807 338.515 176.333C338.513 176.331 338.511 176.327 338.51 176.324C338.793 176.327 339.071 176.266 339.327 176.135C339.327 176.135 339.327 176.135 339.327 176.138C339.423 176.417 339.695 176.605 339.865 176.839C340.148 177.226 340.306 177.702 340.548 178.116C340.553 178.124 340.569 178.121 340.565 178.11C340.358 177.673 340.249 177.196 340.042 176.758C339.972 176.61 339.872 176.486 339.766 176.363C339.676 176.259 339.625 176.11 339.521 176.023C339.627 175.951 339.729 175.864 339.824 175.763C339.946 175.632 340.029 175.487 340.08 175.332C340.213 175.361 340.351 175.379 340.483 175.418C340.735 175.496 340.987 175.598 341.224 175.71C341.78 175.973 342.315 176.306 342.878 176.546C342.884 176.549 342.895 176.54 342.885 176.534C342.306 176.227 341.769 175.816 341.2 175.485C340.928 175.326 340.51 175.115 340.148 175.107C340.25 174.89 340.321 174.64 340.23 174.465C340.822 174.52 341.416 174.538 342.006 174.638C342.775 174.769 343.459 175.081 344.127 175.473C344.824 175.884 345.313 176.391 345.045 177.229C344.806 177.976 344.347 178.672 343.901 179.311C343.497 179.888 343.119 180.582 342.553 181.013L342.55 181.011Z" fill="#FFDE55"/>
<path d="M343.945 176.528C344.15 176.66 344.422 176.6 344.554 176.396C344.686 176.191 344.627 175.918 344.422 175.787C344.217 175.655 343.945 175.714 343.813 175.919C343.681 176.124 343.74 176.396 343.945 176.528Z" fill="#F41C2C"/>
<path d="M341.802 175.372C341.973 175.545 342.252 175.546 342.425 175.374C342.598 175.203 342.598 174.924 342.427 174.751C342.417 174.742 342.405 174.734 342.393 174.724C342.265 174.69 342.135 174.661 342.001 174.637C341.929 174.656 341.859 174.693 341.804 174.749C341.631 174.921 341.631 175.2 341.802 175.372Z" fill="#1B8C1B"/>
<path d="M342.057 177.323C342.262 177.455 342.534 177.395 342.666 177.191C342.798 176.986 342.738 176.713 342.534 176.582C342.329 176.45 342.056 176.509 341.925 176.714C341.793 176.919 341.852 177.191 342.057 177.323Z" fill="#CF4CD6"/>
<path d="M338.495 174.532C338.7 174.664 338.973 174.604 339.104 174.4C339.236 174.195 339.177 173.922 338.972 173.791C338.767 173.659 338.495 173.718 338.363 173.923C338.231 174.127 338.291 174.4 338.495 174.532Z" fill="#F41C2C"/>
<path d="M339.234 176.05C339.255 175.915 339.218 175.771 339.112 175.665C338.941 175.492 338.661 175.492 338.489 175.663C338.36 175.792 338.327 175.983 338.391 176.14C338.686 176.197 338.977 176.178 339.232 176.049L339.234 176.05Z" fill="#1B8C1B"/>
<path d="M337.101 174.572C337.039 174.782 337.019 174.994 337.065 175.192C337.071 175.188 337.079 175.182 337.083 175.177C337.25 175.01 337.255 174.744 337.099 174.57L337.101 174.572Z" fill="#CF4CD6"/>
<path d="M340.108 177.433C340.148 177.475 340.198 177.507 340.249 177.529C340.168 177.36 340.087 177.191 339.988 177.033C339.959 177.174 339.998 177.325 340.106 177.435L340.108 177.433Z" fill="#F6BFC1"/>
<path d="M340.732 177.434C340.905 177.263 340.905 176.984 340.734 176.811C340.562 176.639 340.283 176.638 340.111 176.809C340.098 176.82 340.088 176.836 340.078 176.848C340.179 177.079 340.262 177.317 340.345 177.555C340.482 177.578 340.626 177.54 340.732 177.434Z" fill="#4D4DE8"/>
<path d="M340.191 175.11C340.184 175.1 340.177 175.09 340.167 175.081C340.163 175.079 340.161 175.077 340.159 175.076C340.153 175.086 340.151 175.098 340.145 175.107C340.16 175.109 340.175 175.11 340.19 175.112L340.191 175.11Z" fill="#F6BFC1"/>
<path d="M340.166 175.703C340.257 175.612 340.299 175.492 340.294 175.373C340.222 175.359 340.15 175.345 340.077 175.331C340.028 175.483 339.943 175.627 339.822 175.761C339.802 175.783 339.781 175.8 339.759 175.821C339.901 175.853 340.055 175.813 340.165 175.705L340.166 175.703Z" fill="#F6BFC1"/>
<path d="M342.511 179.195C342.716 179.327 342.988 179.268 343.12 179.063C343.252 178.859 343.192 178.586 342.988 178.454C342.783 178.323 342.51 178.382 342.379 178.586C342.247 178.791 342.306 179.064 342.511 179.195Z" fill="#4D4DE8"/>
<path d="M343.108 180.447C342.989 180.441 342.868 180.482 342.777 180.573C342.68 180.669 342.639 180.8 342.65 180.926C342.817 180.784 342.967 180.623 343.108 180.447Z" fill="#F6BFC1"/>
<path d="M341.009 180.843C341.226 180.999 341.468 181.13 341.713 181.187C341.711 181.077 341.671 180.967 341.586 180.883C341.43 180.725 341.183 180.712 341.009 180.843Z" fill="#F6BFC1"/>
<path d="M344.345 177.929C344.172 178.1 344.171 178.379 344.343 178.552C344.354 178.564 344.367 178.573 344.381 178.582C344.532 178.337 344.676 178.085 344.799 177.825C344.646 177.772 344.468 177.804 344.346 177.927L344.345 177.929Z" fill="#CF4CD6"/>
<path d="M340.547 179.566C340.751 179.698 341.024 179.639 341.156 179.434C341.287 179.229 341.228 178.957 341.023 178.825C340.819 178.693 340.546 178.752 340.414 178.957C340.283 179.162 340.342 179.434 340.547 179.566Z" fill="#F41C2C"/>
<path d="M338.928 176.87C338.856 176.796 338.764 176.757 338.671 176.746C338.761 176.991 338.847 177.236 338.932 177.484C339.096 177.312 339.095 177.04 338.928 176.87Z" fill="#F6BFC1"/>
<path d="M334.022 170.028C334.227 170.16 334.499 170.1 334.631 169.896C334.763 169.691 334.704 169.418 334.499 169.287C334.294 169.155 334.022 169.214 333.89 169.419C333.758 169.624 333.818 169.896 334.022 170.028Z" fill="#F41C2C"/>
<path d="M333.898 172.251C334.103 172.383 334.375 172.324 334.507 172.119C334.639 171.914 334.58 171.642 334.375 171.51C334.17 171.378 333.898 171.437 333.766 171.642C333.634 171.847 333.693 172.119 333.898 172.251Z" fill="#1B8C1B"/>
<path d="M332.339 174.781C332.543 174.913 332.816 174.854 332.948 174.649C333.079 174.445 333.02 174.172 332.815 174.04C332.611 173.908 332.338 173.968 332.206 174.172C332.075 174.377 332.134 174.65 332.339 174.781Z" fill="#F41C2C"/>
<path d="M335.954 171.808C336.159 171.939 336.432 171.88 336.563 171.676C336.695 171.471 336.636 171.198 336.431 171.067C336.226 170.935 335.954 170.994 335.822 171.199C335.69 171.403 335.75 171.676 335.954 171.808Z" fill="#CF4CD6"/>
<path d="M335.628 175.653C335.833 175.785 336.105 175.725 336.237 175.521C336.369 175.316 336.31 175.043 336.105 174.912C335.9 174.78 335.628 174.839 335.496 175.044C335.364 175.249 335.423 175.521 335.628 175.653Z" fill="#4D4DE8"/>
<path d="M331.789 172.648C331.993 172.78 332.266 172.721 332.398 172.516C332.529 172.311 332.47 172.039 332.266 171.907C332.061 171.775 331.788 171.834 331.657 172.039C331.525 172.244 331.584 172.516 331.789 172.648Z" fill="#4D4DE8"/>
<path d="M336.028 173.939C336.232 174.07 336.505 174.011 336.637 173.806C336.768 173.602 336.709 173.329 336.504 173.197C336.3 173.066 336.027 173.125 335.895 173.33C335.764 173.534 335.823 173.807 336.028 173.939Z" fill="#1B8C1B"/>
<path d="M334.859 173.295C334.688 173.122 334.408 173.122 334.236 173.293C334.063 173.464 334.062 173.743 334.234 173.916C334.259 173.94 334.288 173.962 334.317 173.981C334.468 173.977 334.622 173.979 334.773 173.981C334.804 173.962 334.831 173.942 334.857 173.918C335.03 173.747 335.03 173.467 334.859 173.295Z" fill="#F41C2C"/>
<path d="M334.592 175.736C334.42 175.563 334.141 175.563 333.969 175.734C333.796 175.905 333.795 176.185 333.967 176.357C333.98 176.371 333.995 176.381 334.007 176.392C334.205 176.383 334.405 176.368 334.599 176.346C334.761 176.173 334.758 175.903 334.59 175.735L334.592 175.736Z" fill="#1B8C1B"/>
<path d="M331.707 175.067C331.536 174.894 331.256 174.894 331.084 175.065C331.074 175.075 331.067 175.087 331.058 175.097C331.144 175.367 331.266 175.614 331.441 175.813C331.538 175.802 331.631 175.762 331.705 175.69C331.878 175.519 331.878 175.239 331.707 175.067Z" fill="#CF4CD6"/>
<path d="M337.378 172.719C337.205 172.89 337.205 173.17 337.376 173.342C337.439 173.405 337.516 173.446 337.597 173.463C337.724 173.401 337.863 173.357 338.008 173.334C338.07 173.268 338.109 173.19 338.123 173.106C338.042 172.935 337.936 172.771 337.823 172.614C337.672 172.566 337.499 172.599 337.378 172.719Z" fill="#4D4DE8"/>
<path d="M336.775 174.52C336.56 174.488 336.359 174.373 336.141 174.332C335.835 174.277 335.523 174.22 335.213 174.192C334.558 174.129 333.881 174.063 333.224 174.093C333.207 174.093 333.204 174.072 333.222 174.07C333.933 173.966 334.7 173.954 335.415 174.017C335.801 174.051 336.5 174.036 336.856 174.298C336.953 174.07 337.106 173.854 337.296 173.669C337.297 173.667 337.298 173.665 337.301 173.664C336.927 173.507 336.661 173.076 336.331 172.855C336.071 172.68 335.814 172.49 335.54 172.341C335.413 172.273 335.3 172.216 335.211 172.102C335.206 172.096 335.208 172.089 335.217 172.087C335.239 172.082 335.263 172.076 335.285 172.071C335.291 172.07 335.294 172.077 335.288 172.078C335.237 172.1 335.773 172.371 335.88 172.429C336.116 172.557 336.345 172.69 336.576 172.825C336.886 173.009 337.188 173.287 337.444 173.552C337.66 173.406 337.929 173.326 338.208 173.314C338.075 172.905 337.773 172.547 337.517 172.206C337.244 171.841 336.999 171.454 336.731 171.084C336.234 170.392 335.662 169.636 334.861 169.281C334.395 169.073 333.894 168.936 333.472 169.316C333.258 169.51 333.081 169.73 332.9 169.953C332.36 170.618 331.78 171.255 331.385 172.025C331.015 172.748 330.798 173.502 330.899 174.322C331.013 175.259 331.313 176.134 332.364 176.302C333.125 176.425 333.943 176.432 334.707 176.337C335.153 176.282 335.607 176.205 336.027 176.041C336.35 175.915 336.652 175.742 336.976 175.617C336.723 175.293 336.677 174.9 336.78 174.521L336.775 174.52ZM336.11 175.304C335.506 175.83 331.307 176.409 331.044 174.331C330.783 172.251 332.831 170.191 333.584 169.532C334.336 168.873 335.526 169.831 336.862 171.443C338.476 173.388 337.164 173.046 336.267 172.562C335.37 172.077 334.245 171.375 335.121 172.136C335.996 172.898 336.974 174.067 335.293 173.839C333.612 173.612 331.707 174.356 333.015 174.228C334.322 174.099 336.968 174.558 336.112 175.305L336.11 175.304Z" fill="#FCCE0B"/>
<path d="M343.897 179.309C344.343 178.67 344.804 177.975 345.041 177.226C345.309 176.388 344.82 175.881 344.123 175.471C343.454 175.079 342.772 174.767 342.002 174.636C341.411 174.536 340.818 174.517 340.226 174.462C340.318 174.636 340.245 174.888 340.144 175.105C340.504 175.114 340.922 175.326 341.196 175.483C341.765 175.814 342.302 176.224 342.881 176.532C342.888 176.537 342.879 176.547 342.873 176.543C342.31 176.305 341.776 175.97 341.22 175.707C340.982 175.595 340.73 175.493 340.479 175.416C340.344 175.375 340.21 175.357 340.075 175.33C340.026 175.482 339.941 175.626 339.82 175.76C339.725 175.862 339.623 175.948 339.516 176.021C339.621 176.107 339.672 176.257 339.762 176.361C339.87 176.485 339.967 176.607 340.038 176.756C340.247 177.194 340.355 177.668 340.561 178.108C340.566 178.117 340.549 178.122 340.544 178.113C340.301 177.702 340.144 177.223 339.86 176.837C339.689 176.605 339.417 176.416 339.323 176.136C339.323 176.136 339.323 176.136 339.322 176.132C339.066 176.261 338.789 176.324 338.506 176.321C338.508 176.323 338.511 176.325 338.511 176.33C339.11 177.805 339.404 179.454 340.653 180.557C341.158 181.004 341.895 181.505 342.545 181.008C343.111 180.577 343.491 179.884 343.893 179.306L343.897 179.309ZM341.273 180.581C339.862 179.611 339.139 177.321 339.357 176.915C339.457 176.724 339.67 176.465 340.042 177.25C340.414 178.035 341.147 179.142 340.762 178.378C340.376 177.614 339.933 175.825 340.923 175.864C341.865 175.9 343.758 177.126 343.027 176.604C342.297 176.08 340.118 174.643 341.051 174.64C342.832 174.632 345.606 175.681 344.71 177.421C343.814 179.158 342.685 181.555 341.274 180.587L341.273 180.581Z" fill="#FCCE0B"/>
<path d="M276.244 13.9889C275.122 5.6059 271.031 1.68871 265.743 0.627478C264.205 0.318688 262.614 0.311462 261.071 0.606258C255.773 1.61941 251.647 5.49929 250.449 13.8718C249.23 22.397 249.545 27.5176 250.697 35.4671C251.195 38.9077 253.606 41.7991 256.931 42.8113C258.896 43.4105 260.971 43.7351 263.116 43.7448C265.261 43.7546 267.516 43.421 269.561 42.7904C272.864 41.772 275.282 38.9311 275.808 35.5143C277.024 27.6118 277.38 22.5 276.242 13.987L276.244 13.9889Z" fill="#6E6F77"/>
<path opacity="0.44" d="M268.995 1.73718C268.314 1.39217 267.599 1.11577 266.857 0.900376C264.608 0.250261 262.209 0.239365 259.954 0.869024C255.199 2.19791 251.562 6.0972 250.449 13.8722C250.319 14.7827 250.206 15.6533 250.111 16.4933C251.77 1.86716 262.491 0.914927 268.995 1.73718Z" fill="#AFAFC1"/>
<path opacity="0.12" d="M273.044 21.1545C273.056 18.635 271.305 16.4113 268.648 15.1175C267.201 13.6573 265.36 12.7779 263.35 12.7688C261.341 12.7597 259.492 13.6223 258.031 15.0693C255.363 16.3389 253.592 18.5447 253.58 21.0661C253.574 22.3783 254.048 23.6106 254.878 24.6726C255.393 29.8705 258.935 33.8999 263.254 33.9195C267.573 33.9391 271.152 29.9402 271.714 24.7491C272.553 23.6946 273.038 22.4667 273.044 21.1545Z" fill="#1E1E21"/>
<path d="M273.04 21.9972C273.052 19.4778 271.301 17.2541 268.644 15.9603C267.197 14.5001 265.356 13.6207 263.346 13.6116C261.337 13.6025 259.488 14.4651 258.028 15.9121C255.359 17.1817 253.588 19.3875 253.576 21.9088C253.57 23.2211 254.044 24.4534 254.874 25.5154C255.389 30.7133 258.931 34.7426 263.25 34.7622C267.569 34.7819 271.148 30.783 271.71 25.5918C272.549 24.5374 273.034 23.3095 273.04 21.9972Z" fill="#E1AC91"/>
<path d="M268.646 15.9627C267.199 14.5025 265.358 13.6232 263.348 13.614C261.339 13.6049 259.49 14.4675 258.029 15.9145C255.361 17.1841 253.59 19.3899 253.578 21.9113C253.574 22.7861 253.784 23.6237 254.169 24.3991C254.053 22.4674 253.26 19.2223 258.044 16.5507C258.044 16.5507 262.773 11.6802 268.154 16.2757C268.154 16.2757 270.399 17.3498 272.096 18.8857C271.326 17.696 270.127 16.6839 268.644 15.9627L268.646 15.9627Z" fill="#F4C3AE"/>
<path opacity="0.21" d="M276.213 13.747C276.213 13.747 276.215 13.747 276.211 13.747C274.83 22.2447 271.551 27.0472 267.2 29.4457C264.743 30.8003 261.752 30.7867 259.308 29.4099C254.979 26.9701 251.744 22.138 250.44 13.63C250.434 13.6299 250.442 13.63 250.438 13.6299C249.178 22.3059 249.489 27.4475 250.652 35.4792C251.148 38.8987 253.542 41.7653 256.844 42.7869C258.835 43.4034 260.941 43.7377 263.12 43.7476C265.3 43.7575 267.542 43.4219 269.596 42.7856C272.882 41.7672 275.289 38.9453 275.812 35.5438C277.042 27.5516 277.396 22.4168 276.217 13.747L276.213 13.747Z" fill="#1E1E21"/>
<path d="M253.848 9.71808C253.848 9.71808 254.189 4.43806 258.408 8.32719C258.408 8.32719 255.378 5.75192 253.848 9.71808Z" fill="#262325"/>
<path d="M272.884 9.80468C272.884 9.80468 272.591 4.52178 268.337 8.37242C268.337 8.37242 271.389 5.82477 272.884 9.80468Z" fill="#262325"/>
<path d="M269.215 18.1179C262.236 25.3811 257.651 18.0654 257.651 18.0654" stroke="#262325" stroke-width="0.258643" stroke-linecap="round" stroke-linejoin="round"/>
<path d="M255.445 12.1703C255.445 12.1703 257.131 10.9803 258.805 12.1856C258.805 12.1856 258.685 9.9139 255.189 10.5322C255.189 10.5322 258.105 10.2895 258.486 11.804C258.486 11.804 257 10.8193 255.445 12.1703Z" fill="#262325" stroke="#262325" stroke-width="0.175878" stroke-linecap="round" stroke-linejoin="round"/>
<path d="M271.263 12.242C271.263 12.242 269.588 11.0368 267.903 12.2268C267.903 12.2268 268.043 9.95624 271.534 10.6063C271.534 10.6063 268.62 10.3371 268.226 11.8481C268.226 11.8481 269.72 10.8769 271.263 12.242Z" fill="#262325" stroke="#262325" stroke-width="0.175878" stroke-linecap="round" stroke-linejoin="round"/>
<path d="M251.622 28.3047C250.194 28.493 248.592 29.2192 249.063 32.8469C249.063 32.8469 249.662 36.3814 252.666 38.6376C252.666 38.6376 251.467 35.977 251.404 34.6779C251.404 34.6779 253.503 38.3721 254.554 37.9528L254.533 37.9221C253.62 36.5771 253.003 35.0538 252.722 33.4537C252.722 33.4537 254.75 36.9547 255.897 36.9771L254.53 32.6291C254.53 32.6291 255.559 34.9756 256.68 34.9578C256.68 34.9578 255.9 33.5636 255.681 31.3201C255.6 30.4946 255.42 30.1499 255.016 29.6687C254.035 28.5067 252.853 28.1441 251.622 28.3066L251.622 28.3047Z" fill="#E1AC91"/>
<path d="M251.542 34.912C252.026 35.7164 253.666 38.3083 254.554 37.9533L254.533 37.9226C253.79 36.8266 253.247 35.6112 252.916 34.3337C252.034 34.005 251.664 34.6184 251.542 34.912Z" fill="white"/>
<path d="M254.612 32.8001C254.875 33.3398 255.744 34.9708 256.68 34.956C256.68 34.956 256.152 34.0083 255.842 32.418C255.119 32.1627 254.758 32.5563 254.612 32.8001Z" fill="white"/>
<path d="M250.194 35.7927C250.74 36.7502 251.531 37.7853 252.666 38.6386C252.666 38.6386 251.758 36.625 251.482 35.2465C250.652 34.939 250.32 35.4437 250.192 35.7927L250.194 35.7927Z" fill="white"/>
<path d="M251.482 35.2457C251.402 35.2166 251.327 35.1953 251.257 35.1797C251.414 35.8165 251.863 37.5205 252.379 38.4053C252.474 38.4821 252.567 38.5609 252.668 38.6358C252.668 38.6358 251.76 36.6222 251.484 35.2438L251.482 35.2457Z" fill="#F2F2F4"/>
<path d="M252.917 34.3341C252.865 34.3147 252.816 34.2992 252.766 34.2856C252.884 34.9108 253.404 37.2875 254.555 37.9536L254.534 37.923C253.79 36.827 253.247 35.6116 252.917 34.3341Z" fill="#F2F2F4"/>
<path d="M252.948 33.8292C253.488 34.6988 254.877 36.8025 255.799 36.9671C255.127 36.093 254.601 33.7431 254.468 33.1121C253.528 32.785 253.081 33.5433 252.95 33.8292L252.948 33.8292Z" fill="white"/>
<path d="M254.715 33.2165C254.627 33.1722 254.545 33.1394 254.465 33.1104C254.598 33.7413 255.126 36.0913 255.796 36.9653C255.831 36.9712 255.863 36.9752 255.898 36.9754L254.715 33.2146L254.715 33.2165Z" fill="#F2F2F4"/>
<path d="M255.842 32.4192C255.741 32.3824 255.645 32.361 255.558 32.3491C255.612 32.9853 255.827 34.5178 256.634 34.9549C256.65 34.955 256.663 34.9551 256.678 34.9551C256.678 34.9551 256.15 34.0075 255.84 32.4172L255.842 32.4192Z" fill="#F2F2F4"/>
<path opacity="0.43" d="M250.979 28.4338C249.763 28.7759 248.662 29.7604 249.062 32.8471C249.062 32.8471 249.436 35.0493 251.072 37.0872C248.988 32.3712 248.838 30.4393 250.979 28.4338Z" fill="#CC9987"/>
<path d="M274.749 28.4101C276.175 28.6114 277.771 29.3521 277.267 32.9753C277.267 32.9753 276.636 36.5043 273.612 38.7331C273.612 38.7331 274.835 36.0836 274.91 34.785C274.91 34.785 272.777 38.46 271.73 38.0312L271.751 38.0007C272.676 36.664 273.307 35.1464 273.603 33.5489C273.603 33.5489 271.543 37.0313 270.395 37.0433L271.802 32.7079C271.802 32.7079 270.752 35.045 269.631 35.017C269.631 35.017 270.424 33.63 270.664 31.3886C270.751 30.5638 270.934 30.2208 271.343 29.7432C272.334 28.5901 273.52 28.2383 274.749 28.412L274.749 28.4101Z" fill="#E1AC91"/>
<path d="M274.77 35.0175C274.279 35.8176 272.615 38.3944 271.73 38.0313L271.751 38.0008C272.505 36.9117 273.059 35.7012 273.401 34.4268C274.287 34.1061 274.651 34.7228 274.77 35.0175Z" fill="white"/>
<path d="M271.72 32.8769C271.452 33.4142 270.568 35.0372 269.633 35.0139C269.633 35.0139 270.17 34.0711 270.494 32.4837C271.219 32.2349 271.576 32.6318 271.72 32.8769Z" fill="white"/>
<path d="M276.112 35.9099C275.558 36.8625 274.757 37.8903 273.615 38.7332C273.615 38.7332 274.541 36.728 274.829 35.3521C275.662 35.0521 275.99 35.5598 276.114 35.9099L276.112 35.9099Z" fill="white"/>
<path d="M274.827 35.3516C274.907 35.3234 274.982 35.3027 275.052 35.2877C274.889 35.9231 274.425 37.6229 273.901 38.503C273.805 38.579 273.711 38.6569 273.61 38.7309C273.61 38.7309 274.536 36.7256 274.825 35.3497L274.827 35.3516Z" fill="#F2F2F4"/>
<path d="M273.4 34.4268C273.452 34.408 273.501 34.3929 273.551 34.3798C273.428 35.0038 272.886 37.3757 271.729 38.0314L271.751 38.0009C272.504 36.9117 273.058 35.7013 273.4 34.4268Z" fill="#F2F2F4"/>
<path d="M273.374 33.9218C272.826 34.7865 271.418 36.8774 270.495 37.0337C271.175 36.1658 271.722 33.8207 271.861 33.191C272.804 32.8724 273.244 33.6347 273.372 33.9218L273.374 33.9218Z" fill="white"/>
<path d="M271.613 33.2936C271.701 33.2501 271.783 33.218 271.863 33.1897C271.725 33.8194 271.176 36.1645 270.497 37.0324C270.463 37.038 270.43 37.0417 270.396 37.0415L271.613 33.2917L271.613 33.2936Z" fill="#F2F2F4"/>
<path d="M270.492 32.4857C270.593 32.4499 270.689 32.4293 270.777 32.4182C270.717 33.0539 270.488 34.5844 269.677 35.0142C269.661 35.0141 269.648 35.014 269.633 35.014C269.633 35.014 270.17 34.0711 270.494 32.4838L270.492 32.4857Z" fill="#F2F2F4"/>
<path opacity="0.43" d="M275.391 28.545C276.604 28.8982 277.696 29.8926 277.267 32.9756C277.267 32.9756 276.873 35.1743 275.219 37.1972C277.346 32.5003 277.513 30.5699 275.391 28.545Z" fill="#CC9987"/>
<path d="M263.245 21.2788C262.103 21.2641 260.874 20.9911 259.731 20.2715C259.731 20.2715 260.55 20.8215 261.127 21.5977C261.481 22.0731 261.948 22.6902 262.515 23.05C262.734 23.1886 262.986 23.2604 263.238 23.2615C263.49 23.2627 263.741 23.195 263.963 23.0566C264.534 22.702 265.007 22.0891 265.364 21.617C265.946 20.846 266.772 20.3035 266.772 20.3035C265.623 21.0126 264.391 21.2745 263.249 21.2788L263.245 21.2788Z" fill="#262325"/>
<path d="M257.849 17.4412C257.849 17.4412 257.68 18.3456 257.033 18.442C257.033 18.442 257.806 18.4646 257.849 17.4412Z" fill="#262325" stroke="#262325" stroke-width="0.182085" stroke-linecap="round" stroke-linejoin="round"/>
<path d="M269.151 17.4927C269.151 17.4927 269.311 18.3986 269.958 18.5008C269.958 18.5008 269.184 18.5164 269.151 17.4927Z" fill="#FFA9B1" stroke="#262325" stroke-width="0.182085" stroke-linecap="round" stroke-linejoin="round"/>
<path d="M261.103 21.1655C261.103 21.1655 262.649 22.162 265.368 21.1849C265.368 21.1849 263.401 25.2217 261.103 21.1655Z" fill="#441E1C"/>
<path d="M264.871 21.9585C264.591 21.8503 263.773 22.0375 263.337 22.152C263.174 22.1933 263.006 22.204 262.842 22.1689C262.373 22.0674 262.134 22.2096 262.011 22.3942C263.235 23.5704 264.285 22.7082 264.871 21.9585Z" fill="#EFB9B6"/>
<path d="M263.337 22.152C263.174 22.1933 263.006 22.204 262.842 22.1689C262.373 22.0674 262.134 22.2096 262.011 22.3942C262.275 22.6494 262.532 22.8072 262.778 22.8923C263.266 22.673 263.878 22.3626 264.633 22.2381C264.72 22.1468 264.798 22.0517 264.871 21.9585C264.591 21.8503 263.773 22.0375 263.337 22.152Z" fill="#DBAAA9"/>
<path d="M260.275 13.5408C260.867 12.3973 262.194 11.5744 263.44 11.5323C265.442 11.4631 267.099 12.4581 266.988 14.2513C266.877 16.0444 265.21 16.6595 263.287 16.6775C262.114 16.6875 259.906 16.2629 259.96 14.7026C259.976 14.2939 260.088 13.9028 260.275 13.5427L260.275 13.5408Z" fill="#686463"/>
<path d="M260.276 13.447C260.867 12.3036 262.195 11.4806 263.44 11.4385C265.442 11.3693 267.1 12.3644 266.988 14.1575C266.877 15.9506 265.211 16.5658 263.287 16.5838C262.114 16.5937 259.906 16.1692 259.961 14.6089C259.976 14.2002 260.089 13.8091 260.276 13.4489L260.276 13.447Z" fill="#FF5263"/>
<path d="M266.431 12.4829C267.111 13.8499 265.552 16.4138 261.976 15.5705C260.675 15.2647 260.22 14.0917 260.251 13.4997C260.081 13.8447 259.974 14.2186 259.959 14.6082C259.903 16.1685 262.113 16.595 263.285 16.5831C265.209 16.5651 266.874 15.9499 266.987 14.1568C267.028 13.4789 266.819 12.9164 266.431 12.481L266.431 12.4829Z" fill="#FC2951"/>
<path d="M265.762 12.4212C265.743 12.4994 265.618 12.5008 265.487 12.4219C265.356 12.343 265.265 12.2184 265.286 12.1383C265.307 12.0601 265.43 12.0607 265.561 12.1396C265.692 12.2166 265.783 12.343 265.762 12.4212Z" fill="#F77C90"/>
<path d="M261.507 12.3142C261.507 12.3142 263.167 11.4774 264.891 12.1462C265.47 12.4009 264.139 10.819 261.507 12.3142Z" fill="#F77C90"/>
<path d="M269.314 33.2827C269.388 32.5037 269.396 31.7263 269.244 30.9558C269.125 30.3459 268.7 30.0575 268.114 29.9746C266.765 29.7794 265.312 30.3496 264.279 31.216C264.083 31.0202 263.716 31.0377 263.448 31.0556C263.32 31.0645 263.2 31.0793 263.087 31.0998C262.852 31.1216 262.617 31.2084 262.416 31.3431C262.312 31.0771 261.993 30.9611 261.757 30.8397C261.376 30.6431 260.972 30.4751 260.579 30.2995C259.824 29.9599 259.036 29.7041 258.201 29.7882C257.531 29.8539 257.095 30.2053 256.962 30.8637C256.806 31.6385 256.756 32.4998 256.776 33.2869C256.795 34.0567 257.002 34.7683 257.435 35.4063C257.841 36.0022 258.392 36.5376 259.157 36.4647C259.858 36.3991 260.544 35.8655 261.083 35.4496C261.395 35.2084 261.679 34.9289 261.938 34.6302C262.223 34.3011 262.41 33.9256 262.65 33.5676C262.709 33.5831 262.77 33.5949 262.835 33.6009C263.215 33.6332 263.58 33.5585 263.883 33.3917C263.881 33.4032 263.883 33.4127 263.892 33.4223C264.961 34.4434 266.045 35.4359 267.577 35.6052C268.084 35.661 268.566 35.5772 268.923 35.193C269.363 34.7174 269.26 33.8708 269.316 33.2827L269.314 33.2827Z" fill="#E09B00"/>
<path d="M262.072 34.266C261.849 34.5706 261.565 34.8291 261.274 35.0684C260.779 35.4788 260.197 35.841 259.606 36.0962C258.786 36.4496 258.183 35.9674 257.682 35.3577C257.243 34.8266 257.056 34.1954 256.993 33.519C256.925 32.7985 257.049 32.0885 257.13 31.3764C257.158 31.1377 257.184 30.9029 257.248 30.6702C257.374 30.2123 257.791 30.0843 258.212 30.0213C258.936 29.9119 259.682 30.1903 260.342 30.4531C260.696 30.5961 261.043 30.7562 261.4 30.8915C261.734 31.0172 262.106 31.1335 262.385 31.3621C262.194 31.4968 262.04 31.6738 261.953 31.8739C261.654 31.8019 261.318 31.7411 261.014 31.7512C260.79 31.7579 260.569 31.7683 260.345 31.7845C260.244 31.7917 259.743 31.8391 259.77 31.8029C259.774 31.7972 259.766 31.7952 259.764 31.799C259.751 31.8123 259.738 31.8276 259.724 31.8409C259.72 31.8447 259.722 31.8523 259.726 31.8543C259.839 31.8949 259.946 31.8839 260.066 31.8749C260.328 31.857 260.593 31.8773 260.855 31.8823C261.187 31.8895 261.568 32.0747 261.903 32.017C261.903 32.0189 261.903 32.0208 261.901 32.0227C261.848 32.2383 261.84 32.4598 261.873 32.6644C261.505 32.6398 261.018 32.9661 260.731 33.1138C260.199 33.3903 259.662 33.745 259.208 34.1364C259.196 34.1459 259.207 34.1594 259.219 34.1518C259.669 33.8367 260.179 33.5774 260.667 33.3274C260.898 33.2081 261.143 33.108 261.385 33.0098C261.557 32.9399 261.75 32.9312 261.916 32.8575C262.014 33.1712 262.221 33.4262 262.547 33.5423C262.374 33.7764 262.239 34.0337 262.068 34.2679L262.072 34.266Z" fill="#FFDE55"/>
<path d="M263 33.4145C262.334 33.4172 262.107 32.8261 262.108 32.2608C262.109 31.9304 262.225 31.6674 262.493 31.4643C262.562 31.4131 262.645 31.3638 262.735 31.3222C262.844 31.294 262.958 31.2736 263.069 31.2607C263.625 31.2709 264.18 31.4242 264.384 31.9064C264.359 31.9445 264.376 31.9885 264.416 31.9963C264.442 32.0843 264.461 32.1798 264.464 32.2868C264.5 33.1253 263.703 33.4138 262.996 33.4164L263 33.4145Z" fill="#FFDE55"/>
<path d="M264.468 32.2848C264.463 32.1778 264.446 32.0822 264.42 31.9943C264.38 31.9864 264.363 31.9424 264.388 31.9044C264.261 31.6059 264.001 31.4347 263.688 31.3436C263.859 31.4284 263.998 31.5531 264.077 31.7368C264.056 31.7692 264.071 31.8055 264.104 31.8133C264.126 31.886 264.141 31.9682 264.145 32.0579C264.174 32.7666 263.501 33.0098 262.907 33.011C262.343 33.0122 262.153 32.5149 262.155 32.0355C262.155 31.9935 262.157 31.9534 262.163 31.9134C262.128 32.0182 262.111 32.1346 262.11 32.2588C262.107 32.8259 262.336 33.4151 263.002 33.4124C263.707 33.4099 264.505 33.1213 264.47 32.2829L264.468 32.2848Z" fill="#FCCE0B"/>
<path d="M268.91 34.8418C268.674 35.4844 267.929 35.4619 267.372 35.3734C265.993 35.1571 265.047 34.1251 263.962 33.3542C263.96 33.3542 263.956 33.3523 263.954 33.3504C264.155 33.2252 264.324 33.0579 264.445 32.8502C264.445 32.8502 264.445 32.8502 264.447 32.8521C264.639 33.0058 264.916 33.0166 265.141 33.1055C265.515 33.2505 265.84 33.5156 266.197 33.6986C266.204 33.7025 266.214 33.693 266.206 33.6872C265.864 33.4717 265.573 33.1839 265.23 32.9684C265.114 32.8953 264.988 32.8527 264.858 32.8139C264.747 32.7809 264.645 32.6983 264.532 32.6844C264.574 32.5853 264.607 32.4785 264.629 32.364C264.656 32.217 264.649 32.0775 264.616 31.9456C264.723 31.906 264.828 31.8568 264.939 31.8248C265.151 31.7666 265.375 31.7255 265.593 31.6979C266.103 31.6333 266.63 31.6281 267.135 31.5444C267.141 31.5445 267.145 31.533 267.135 31.533C266.589 31.5763 266.025 31.5279 265.475 31.5503C265.211 31.5605 264.822 31.5989 264.563 31.7562C264.537 31.5575 264.475 31.349 264.332 31.2662C264.774 31.039 265.202 30.785 265.663 30.5903C266.264 30.3371 266.887 30.2501 267.534 30.2263C268.211 30.2027 268.783 30.3409 268.971 31.0523C269.138 31.6872 269.127 32.3844 269.099 33.0356C269.074 33.6238 269.119 34.283 268.914 34.8418L268.91 34.8418Z" fill="#FFDE55"/>
<path d="M267.88 31.0527C268.083 31.0537 268.249 30.8894 268.25 30.6859C268.251 30.4823 268.087 30.3166 267.883 30.3156C267.68 30.3147 267.514 30.479 267.513 30.6825C267.512 30.8861 267.676 31.0518 267.88 31.0527Z" fill="#F41C2C"/>
<path d="M265.849 31.2002C266.047 31.245 266.244 31.1198 266.289 30.9214C266.334 30.723 266.209 30.5258 266.01 30.481C265.999 30.479 265.988 30.4789 265.974 30.477C265.869 30.5109 265.764 30.5486 265.659 30.592C265.616 30.6377 265.584 30.6948 265.57 30.7597C265.525 30.9581 265.65 31.1553 265.849 31.2002Z" fill="#1B8C1B"/>
<path d="M266.905 32.4614C267.109 32.4624 267.275 32.2981 267.275 32.0946C267.276 31.891 267.112 31.7253 266.909 31.7243C266.705 31.7234 266.539 31.8877 266.538 32.0912C266.537 32.2948 266.702 32.4605 266.905 32.4614Z" fill="#CF4CD6"/>
<path d="M263.139 32.0928C263.342 32.0937 263.508 31.9295 263.509 31.7259C263.51 31.5224 263.346 31.3566 263.142 31.3557C262.938 31.3548 262.773 31.519 262.772 31.7226C262.771 31.9261 262.935 32.0919 263.139 32.0928Z" fill="#F41C2C"/>
<path d="M264.342 32.8322C264.296 32.727 264.205 32.6426 264.083 32.6153C263.885 32.5704 263.687 32.6956 263.642 32.894C263.609 33.0428 263.672 33.192 263.788 33.2747C264.021 33.1821 264.218 33.0379 264.34 32.8322L264.342 32.8322Z" fill="#1B8C1B"/>
<path d="M262.172 32.7476C262.223 32.9235 262.304 33.0824 262.426 33.2013C262.428 33.1956 262.432 33.188 262.432 33.1822C262.475 32.9896 262.359 32.8 262.17 32.7476L262.172 32.7476Z" fill="#CF4CD6"/>
<path d="M265.58 33.415C265.628 33.4266 265.677 33.4269 265.723 33.4194C265.59 33.3367 265.456 33.254 265.315 33.1865C265.359 33.2994 265.454 33.3877 265.58 33.4169L265.58 33.415Z" fill="#F6BFC1"/>
<path d="M266.02 33.1358C266.065 32.9374 265.94 32.7401 265.742 32.6953C265.543 32.6505 265.346 32.7756 265.301 32.974C265.297 32.9874 265.297 33.0027 265.295 33.016C265.471 33.1333 265.636 33.2639 265.802 33.3945C265.909 33.3492 265.993 33.2579 266.02 33.1358Z" fill="#4D4DE8"/>
<path d="M264.594 31.7386C264.585 31.7348 264.576 31.731 264.564 31.729C264.56 31.729 264.559 31.729 264.557 31.729C264.557 31.7385 264.56 31.7479 264.56 31.7574C264.572 31.7518 264.583 31.7461 264.594 31.7405L264.594 31.7386Z" fill="#F6BFC1"/>
<path d="M264.843 32.1683C264.866 32.0633 264.842 31.9601 264.785 31.8777C264.728 31.9004 264.67 31.9231 264.613 31.9457C264.647 32.0757 264.652 32.2151 264.626 32.364C264.622 32.3888 264.615 32.4098 264.609 32.4346C264.724 32.3931 264.814 32.2961 264.843 32.1702L264.843 32.1683Z" fill="#F6BFC1"/>
<path d="M268.067 33.5786C268.27 33.5796 268.436 33.4153 268.437 33.2117C268.438 33.0082 268.274 32.8424 268.07 32.8415C267.867 32.8406 267.701 33.0048 267.7 33.2084C267.699 33.4119 267.863 33.5777 268.067 33.5786Z" fill="#4D4DE8"/>
<path d="M269.05 34.1932C268.964 34.2425 268.897 34.3262 268.873 34.4311C268.848 34.5418 268.878 34.6527 268.943 34.737C268.997 34.5615 269.03 34.3803 269.05 34.1932Z" fill="#F6BFC1"/>
<path d="M267.748 35.415C267.971 35.4274 268.201 35.4113 268.399 35.3415C268.348 35.2649 268.27 35.2054 268.173 35.1839C267.992 35.143 267.812 35.2453 267.748 35.415Z" fill="#F6BFC1"/>
<path d="M268.791 31.8609C268.746 32.0593 268.871 32.2565 269.07 32.3014C269.083 32.3052 269.097 32.3053 269.11 32.3054C269.107 32.0647 269.095 31.8222 269.066 31.5833C268.934 31.6152 268.822 31.7178 268.791 31.859L268.791 31.8609Z" fill="#CF4CD6"/>
<path d="M266.848 34.7227C267.051 34.7236 267.217 34.5593 267.218 34.3558C267.219 34.1522 267.055 33.9865 266.851 33.9856C266.647 33.9846 266.482 34.1489 266.481 34.3524C266.48 34.556 266.644 34.7217 266.848 34.7227Z" fill="#F41C2C"/>
<path d="M264.494 33.5474C264.41 33.5279 264.328 33.5409 264.257 33.575C264.43 33.7075 264.602 33.842 264.773 33.9784C264.812 33.7837 264.689 33.5922 264.494 33.5474Z" fill="#F6BFC1"/>
<path d="M257.959 30.9258C258.163 30.9267 258.329 30.7625 258.33 30.5589C258.331 30.3554 258.166 30.1896 257.963 30.1887C257.759 30.1878 257.593 30.352 257.593 30.5556C257.592 30.7591 257.756 30.9249 257.959 30.9258Z" fill="#F41C2C"/>
<path d="M258.871 32.5493C259.075 32.5503 259.24 32.386 259.241 32.1824C259.242 31.9789 259.078 31.8131 258.874 31.8122C258.671 31.8113 258.505 31.9756 258.504 32.1791C258.503 32.3826 258.668 32.5484 258.871 32.5493Z" fill="#1B8C1B"/>
<path d="M258.908 35.0352C259.111 35.0361 259.277 34.8718 259.278 34.6683C259.279 34.4647 259.115 34.299 258.911 34.2981C258.707 34.2971 258.542 34.4614 258.541 34.6649C258.54 34.8685 258.704 35.0342 258.908 35.0352Z" fill="#F41C2C"/>
<path d="M260.122 31.313C260.325 31.3139 260.491 31.1497 260.492 30.9461C260.493 30.7426 260.328 30.5768 260.125 30.5759C259.921 30.575 259.756 30.7392 259.755 30.9428C259.754 31.1463 259.918 31.3121 260.122 31.313Z" fill="#CF4CD6"/>
<path d="M261.62 34.1719C261.823 34.1728 261.989 34.0086 261.99 33.805C261.991 33.6015 261.826 33.4357 261.623 33.4348C261.419 33.4339 261.254 33.5981 261.253 33.8017C261.252 34.0052 261.416 34.171 261.62 34.1719Z" fill="#4D4DE8"/>
<path d="M257.561 33.7774C257.764 33.7783 257.93 33.614 257.931 33.4105C257.932 33.2069 257.767 33.0412 257.564 33.0402C257.36 33.0393 257.195 33.2036 257.194 33.4071C257.193 33.6107 257.357 33.7764 257.561 33.7774Z" fill="#4D4DE8"/>
<path d="M261.131 32.7832C261.335 32.7841 261.501 32.6199 261.502 32.4163C261.502 32.2128 261.338 32.047 261.135 32.0461C260.931 32.0452 260.765 32.2094 260.764 32.413C260.764 32.6165 260.928 32.7823 261.131 32.7832Z" fill="#1B8C1B"/>
<path d="M260.017 32.854C259.819 32.8092 259.622 32.9343 259.577 33.1327C259.532 33.3311 259.657 33.5284 259.855 33.5732C259.884 33.5791 259.915 33.5811 259.943 33.5813C260.049 33.5111 260.158 33.4428 260.265 33.3765C260.279 33.3498 260.288 33.3231 260.296 33.2945C260.341 33.0961 260.216 32.8989 260.017 32.854Z" fill="#F41C2C"/>
<path d="M260.926 34.6963C260.728 34.6515 260.53 34.7766 260.485 34.975C260.441 35.1734 260.566 35.3707 260.764 35.4155C260.779 35.4194 260.795 35.4195 260.808 35.4214C260.944 35.3266 261.078 35.226 261.205 35.1234C261.242 34.9288 261.119 34.7392 260.924 34.6963L260.926 34.6963Z" fill="#1B8C1B"/>
<path d="M258.59 35.52C258.392 35.4752 258.194 35.6003 258.149 35.7987C258.148 35.8102 258.147 35.8216 258.146 35.8331C258.328 35.9848 258.524 36.1041 258.738 36.1662C258.801 36.1149 258.849 36.0444 258.869 35.9605C258.914 35.7621 258.788 35.5648 258.59 35.52Z" fill="#CF4CD6"/>
<path d="M261.536 31.316C261.491 31.5144 261.616 31.7117 261.815 31.7565C261.887 31.7721 261.96 31.7667 262.025 31.7422C262.086 31.6413 262.165 31.5481 262.257 31.4664C262.271 31.3919 262.263 31.3193 262.235 31.2543C262.102 31.1697 261.953 31.1021 261.802 31.0423C261.674 31.0761 261.567 31.1768 261.536 31.316Z" fill="#4D4DE8"/>
<path d="M261.92 32.8581C261.753 32.9318 261.56 32.9405 261.388 33.0104C261.147 33.1086 260.902 33.2088 260.67 33.328C260.18 33.578 259.673 33.8354 259.222 34.1524C259.211 34.16 259.199 34.1465 259.211 34.1371C259.665 33.7437 260.202 33.3909 260.734 33.1144C261.021 32.9648 261.508 32.6404 261.877 32.665C261.843 32.4604 261.854 32.2389 261.904 32.0233C261.904 32.0214 261.904 32.0195 261.906 32.0176C261.572 32.0753 261.191 31.8902 260.858 31.8829C260.597 31.876 260.329 31.8576 260.069 31.8755C259.949 31.8845 259.844 31.8955 259.729 31.8549C259.724 31.8529 259.722 31.8472 259.728 31.8415C259.741 31.8282 259.754 31.813 259.768 31.7996C259.772 31.7958 259.777 31.7997 259.774 31.8035C259.747 31.8416 260.247 31.7923 260.349 31.7851C260.572 31.7689 260.794 31.7604 261.017 31.7518C261.319 31.7417 261.657 31.8025 261.957 31.8745C262.043 31.6744 262.197 31.4974 262.389 31.3627C262.111 31.1341 261.737 31.0178 261.403 30.8921C261.047 30.7568 260.7 30.5948 260.345 30.4537C259.684 30.189 258.94 29.9125 258.215 30.0219C257.793 30.0849 257.378 30.2129 257.252 30.6708C257.188 30.9035 257.162 31.1384 257.134 31.377C257.052 32.0891 256.929 32.7991 256.996 33.5196C257.06 34.196 257.246 34.8253 257.685 35.3583C258.186 35.9681 258.792 36.4502 259.609 36.0968C260.2 35.8416 260.781 35.4794 261.277 35.069C261.567 34.8297 261.853 34.5712 262.076 34.2666C262.247 34.0324 262.382 33.7752 262.555 33.541C262.23 33.4268 262.021 33.1699 261.923 32.8562L261.92 32.8581ZM261.803 33.7095C261.613 34.3523 258.911 36.6475 257.792 35.2996C256.673 33.9498 257.192 31.5759 257.427 30.7728C257.662 29.9697 258.931 30.1111 260.598 30.6478C262.611 31.2949 261.532 31.6434 260.681 31.7045C259.831 31.7656 258.721 31.7758 259.681 31.9196C260.642 32.0634 261.857 32.449 260.568 33.043C259.28 33.6388 258.271 35.0191 259.136 34.3411C260 33.6631 262.073 32.7977 261.805 33.7095L261.803 33.7095Z" fill="#FCCE0B"/>
<path d="M269.096 33.0356C269.123 32.3844 269.136 31.6872 268.967 31.0523C268.779 30.3409 268.207 30.2027 267.531 30.2263C266.883 30.2501 266.262 30.3371 265.659 30.5903C265.198 30.785 264.77 31.039 264.328 31.2662C264.471 31.3471 264.533 31.5575 264.559 31.7562C264.818 31.6008 265.207 31.5624 265.471 31.5503C266.021 31.5279 266.585 31.5763 267.131 31.533C267.139 31.533 267.137 31.5445 267.131 31.5444C266.626 31.63 266.099 31.6333 265.589 31.6979C265.371 31.7255 265.147 31.7666 264.935 31.8248C264.822 31.8568 264.719 31.904 264.612 31.9456C264.645 32.0756 264.651 32.2151 264.625 32.364C264.603 32.4785 264.571 32.5853 264.528 32.6844C264.641 32.6983 264.743 32.7809 264.854 32.8139C264.986 32.8527 265.11 32.8953 265.226 32.9684C265.571 33.1839 265.86 33.4698 266.203 33.6872C266.21 33.6911 266.201 33.7025 266.193 33.6986C265.837 33.5175 265.511 33.2505 265.137 33.1055C264.912 33.0185 264.635 33.0077 264.443 32.8521C264.443 32.8521 264.443 32.8521 264.441 32.8502C264.318 33.056 264.151 33.2252 263.95 33.3504C263.952 33.3504 263.956 33.3504 263.958 33.3542C265.043 34.1251 265.991 35.1571 267.368 35.3734C267.925 35.4619 268.67 35.4844 268.906 34.8418C269.111 34.283 269.068 33.6238 269.092 33.0356L269.096 33.0356ZM267.816 35.1119C266.385 35.0615 264.846 33.7708 264.817 33.3868C264.803 33.2071 264.836 32.9284 265.452 33.3152C266.067 33.7019 267.081 34.1535 266.466 33.7877C265.85 33.422 264.734 32.3587 265.45 31.9417C266.13 31.5437 268.017 31.558 267.267 31.5183C266.516 31.4767 264.333 31.4419 264.99 31.0209C266.243 30.2148 268.671 29.7081 268.821 31.3382C268.97 32.9663 269.25 35.1642 267.82 35.1157L267.816 35.1119Z" fill="#FCCE0B"/>
</svg>
