<?xml version="1.0" encoding="UTF-8"?><svg id="Layer_2" xmlns="http://www.w3.org/2000/svg" width="148.6" height="226.98" viewBox="0 0 148.6 226.98"><g id="_תפוס_את_החפרפרת"><path d="m142.32,70.88C136.25,27.02,114.74,6.61,87.03,1.18c-8.06-1.58-16.39-1.58-24.46,0C34.86,6.61,13.35,27.02,7.28,70.88c-6.18,44.66-4.41,71.46,1.81,113.05,2.69,18,15.38,33.08,32.81,38.3,10.3,3.09,21.17,4.74,32.4,4.74s23.03-1.8,33.72-5.15c17.27-5.41,29.86-20.34,32.53-38.24,6.18-41.4,7.92-68.17,1.76-112.71Z" fill="#6e6f77"/><path d="m104.08,6.91c-3.57-1.79-7.32-3.22-11.21-4.33-11.79-3.35-24.35-3.35-36.14,0C31.87,9.65,12.92,30.15,7.28,70.88c-.66,4.77-1.23,9.33-1.71,13.73C13.91,8,70.01,2.76,104.08,6.91Z" fill="#afafc1" opacity=".44"/><path d="m125.74,108.47c0-13.19-9.22-24.79-23.16-31.5-7.61-7.61-17.27-12.17-27.79-12.17s-20.18,4.56-27.79,12.17c-13.94,6.71-23.16,18.3-23.16,31.5,0,6.87,2.51,13.31,6.88,18.85,2.82,27.2,21.46,48.21,44.07,48.21s41.25-21.02,44.07-48.21c4.37-5.54,6.88-11.98,6.88-18.85Z" fill="#1e1e21" opacity=".12"/><path d="m125.74,112.88c0-13.19-9.22-24.79-23.16-31.5-7.61-7.61-17.27-12.17-27.79-12.17s-20.18,4.56-27.79,12.17c-13.94,6.71-23.16,18.3-23.16,31.5,0,6.87,2.51,13.31,6.88,18.85,2.82,27.2,21.46,48.21,44.07,48.21s41.25-21.02,44.07-48.21c4.37-5.54,6.88-11.98,6.88-18.85Z" fill="#e1ac91"/><path d="m102.59,81.39c-7.61-7.61-17.27-12.17-27.79-12.17s-20.18,4.56-27.79,12.17c-13.94,6.71-23.16,18.3-23.16,31.5,0,4.58,1.12,8.96,3.15,13.01-.65-10.11-4.88-27.08,20.1-41.18,0,0,24.64-25.61,52.92-1.68,0,0,11.78,5.57,20.7,13.57-4.06-6.21-10.36-11.48-18.14-15.22Z" fill="#f4c3ae"/><path d="m142.15,69.61s.01,0-.01,0c-7.03,44.52-24.08,69.74-46.8,82.4-12.83,7.15-28.49,7.15-41.32,0-22.72-12.67-39.77-37.89-46.8-82.4-.03,0,.01,0-.01,0-6.39,45.45-4.64,72.36,1.64,114.38,2.68,17.89,15.28,32.84,32.59,38.11,10.44,3.18,21.47,4.88,32.88,4.88s23.14-1.81,33.88-5.19c17.18-5.41,29.71-20.24,32.37-38.06,6.25-41.87,7.98-68.76,1.6-114.12Z" fill="#1e1e21" opacity=".21"/><path d="m24.97,49.05s1.66-27.65,23.84-7.39c0,0-15.92-13.41-23.84,7.39Z" fill="#262325"/><path d="m124.63,49.05s-1.66-27.65-23.84-7.39c0,0,15.92-13.41,23.84,7.39Z" fill="#262325"/><path d="m105.62,92.66c-36.36,38.19-60.54,0-60.54,0" fill="none" stroke="#262325" stroke-linecap="round" stroke-linejoin="round" stroke-width="1.25"/><path d="m33.39,61.85s8.8-6.27,17.59,0c0,0-.68-11.89-18.97-8.57,0,0,15.26-1.34,17.29,6.58,0,0-7.8-5.12-15.91,1.99Z" fill="#262325" stroke="#262325" stroke-linecap="round" stroke-linejoin="round" stroke-width=".85"/><path d="m116.2,61.85s-8.8-6.27-17.59,0c0,0,.68-11.89,18.97-8.57,0,0-15.26-1.34-17.29,6.58,0,0,7.8-5.12,15.91,1.99Z" fill="#262325" stroke="#262325" stroke-linecap="round" stroke-linejoin="round" stroke-width=".85"/><path d="m13.76,146.41c-7.47,1.02-15.84,4.86-13.29,23.84,0,0,3.22,18.49,19,30.23,0,0-6.34-13.9-6.7-20.7,0,0,11.08,19.29,16.57,17.07l-.11-.16c-4.81-7.02-8.08-14.98-9.59-23.35h0s10.7,18.28,16.71,18.37l-7.26-22.73s5.44,12.26,11.31,12.14c0,0-4.12-7.28-5.32-19.02-.44-4.32-1.39-6.12-3.52-8.63-5.16-6.06-11.36-7.93-17.8-7.05Z" fill="#e1ac91"/><path d="m13.5,181c2.55,4.2,11.2,17.73,15.84,15.85l-.11-.16c-3.92-5.72-6.79-12.07-8.55-18.75-4.63-1.7-6.55,1.52-7.18,3.06Z" fill="#fff"/><path d="m29.52,169.87c1.39,2.82,5.98,11.34,10.88,11.24,0,0-2.79-4.95-4.45-13.27-3.79-1.32-5.67.75-6.43,2.03Z" fill="#fff"/><path d="m6.46,185.64c2.88,5,7.05,10.4,13.01,14.84,0,0-4.8-10.52-6.28-17.73-4.35-1.59-6.08,1.06-6.74,2.89Z" fill="#fff"/><path d="m13.19,182.75c-.42-.15-.81-.26-1.18-.34.84,3.33,3.23,12.24,5.95,16.86.5.4.99.81,1.52,1.2,0,0-4.8-10.52-6.28-17.73Z" fill="#f2f2f4"/><path d="m20.68,177.94c-.27-.1-.53-.18-.79-.25.63,3.27,3.41,15.7,9.45,19.16l-.11-.16c-3.92-5.72-6.79-12.07-8.55-18.75Z" fill="#f2f2f4"/><path d="m20.83,175.3c2.85,4.54,10.17,15.52,15,16.36-3.54-4.56-6.35-16.85-7.06-20.15-4.93-1.69-7.25,2.29-7.93,3.79Z" fill="#fff"/><path d="m30.07,172.05c-.46-.23-.89-.4-1.31-.55.71,3.3,3.53,15.59,7.06,20.15.18.03.35.05.53.05l-6.28-19.66Z" fill="#f2f2f4"/><path d="m35.95,167.85c-.53-.19-1.03-.3-1.49-.36.3,3.33,1.46,11.35,5.7,13.62.08,0,.15,0,.23,0,0,0-2.79-4.95-4.45-13.27Z" fill="#f2f2f4"/><path d="m10.4,147.1c-6.36,1.82-12.1,7-9.93,23.15,0,0,2.01,11.52,10.62,22.15-11.02-24.64-11.85-34.75-.69-45.3Z" fill="#cc9987" opacity=".43"/><path d="m134.84,146.41c7.47,1.02,15.84,4.86,13.29,23.84,0,0-3.22,18.49-19,30.23,0,0,6.34-13.9,6.7-20.7,0,0-11.08,19.29-16.57,17.07l.11-.16c4.81-7.02,8.08-14.98,9.59-23.35h0s-10.7,18.28-16.71,18.37l7.26-22.73s-5.44,12.26-11.31,12.14c0,0,4.12-7.28,5.32-19.02.44-4.32,1.39-6.12,3.52-8.63,5.16-6.06,11.36-7.93,17.8-7.05Z" fill="#e1ac91"/><path d="m135.1,181c-2.55,4.2-11.2,17.73-15.84,15.85l.11-.16c3.92-5.72,6.79-12.07,8.55-18.75,4.63-1.7,6.55,1.52,7.18,3.06Z" fill="#fff"/><path d="m119.09,169.87c-1.39,2.82-5.98,11.34-10.88,11.24,0,0,2.79-4.95,4.45-13.27,3.79-1.32,5.67.75,6.43,2.03Z" fill="#fff"/><path d="m142.15,185.64c-2.88,5-7.05,10.4-13.01,14.84,0,0,4.8-10.52,6.28-17.73,4.35-1.59,6.08,1.06,6.74,2.89Z" fill="#fff"/><path d="m135.41,182.75c.42-.15.81-.26,1.18-.34-.84,3.33-3.23,12.24-5.95,16.86-.5.4-.99.81-1.52,1.2,0,0,4.8-10.52,6.28-17.73Z" fill="#f2f2f4"/><path d="m127.92,177.94c.27-.1.53-.18.79-.25-.63,3.27-3.41,15.7-9.45,19.16l.11-.16c3.92-5.72,6.79-12.07,8.55-18.75Z" fill="#f2f2f4"/><path d="m127.77,175.3c-2.85,4.54-10.17,15.52-15,16.36,3.54-4.56,6.35-16.85,7.06-20.15,4.93-1.69,7.25,2.29,7.93,3.79Z" fill="#fff"/><path d="m118.53,172.05c.46-.23.89-.4,1.31-.55-.71,3.3-3.53,15.59-7.06,20.15-.18.03-.35.05-.53.05l6.28-19.66Z" fill="#f2f2f4"/><path d="m112.65,167.85c.53-.19,1.03-.3,1.49-.36-.3,3.33-1.46,11.35-5.7,13.62-.08,0-.15,0-.23,0,0,0,2.79-4.95,4.45-13.27Z" fill="#f2f2f4"/><path d="m138.2,147.1c6.36,1.82,12.1,7,9.93,23.15,0,0-2.01,11.52-10.62,22.15,11.02-24.64,11.85-34.75.69-45.3Z" fill="#cc9987" opacity=".43"/><path d="m74.44,109.35c-5.98-.05-12.42-1.45-18.42-5.19,0,0,4.3,2.86,7.34,6.91,1.86,2.48,4.32,5.7,7.3,7.57,1.15.72,2.47,1.09,3.79,1.09s2.63-.36,3.79-1.09c2.98-1.87,5.44-5.09,7.3-7.57,3.03-4.05,7.34-6.91,7.34-6.91-6,3.74-12.44,5.14-18.42,5.19Z" fill="#262325"/><path d="m46.1,89.39s-.86,4.74-4.25,5.26c0,0,4.05.1,4.25-5.26Z" fill="#262325" stroke="#262325" stroke-linecap="round" stroke-linejoin="round" stroke-width=".88"/><path d="m105.27,89.39s.86,4.74,4.25,5.26c0,0-4.05.1-4.25-5.26Z" fill="#ffa9b1" stroke="#262325" stroke-linecap="round" stroke-linejoin="round" stroke-width=".88"/><path d="m63.22,108.81s8.12,5.18,22.33,0c0,0-10.2,21.18-22.33,0Z" fill="#441e1c"/><path d="m82.97,112.87c-1.47-.56-5.75.44-8.03,1.05-.85.22-1.73.28-2.59.1-2.46-.52-3.71.23-4.35,1.2,6.44,6.13,11.92,1.59,14.97-2.35Z" fill="#efb9b6"/><path d="m74.94,113.92c-.85.22-1.73.28-2.59.1-2.46-.52-3.71.23-4.35,1.2,1.39,1.33,2.74,2.15,4.03,2.59,2.55-1.16,5.75-2.8,9.7-3.47.45-.48.86-.98,1.24-1.47-1.47-.56-5.75.44-8.03,1.05Z" fill="#dbaaa9"/><path d="m59.65,71.21c2.97-5.8,9.67-10,15.98-10.24,10.14-.4,18.55,4.6,18.03,13.69-.52,9.08-8.95,12.24-18.69,12.37-5.94.08-17.13-2.02-16.89-9.92.07-2.07.63-4.05,1.57-5.88h0Z" fill="#676463"/><path d="m59.65,70.74c2.97-5.8,9.67-10,15.98-10.24,10.14-.4,18.55,4.6,18.03,13.69-.52,9.08-8.95,12.24-18.69,12.37-5.94.08-17.13-2.02-16.89-9.92.07-2.07.63-4.05,1.57-5.88h0Z" fill="#eb5f67"/><path d="m90.8,65.72c3.47,6.91-4.36,19.93-22.49,15.74-6.6-1.52-8.93-7.45-8.78-10.45-.85,1.75-1.38,3.65-1.45,5.62-.25,7.9,10.95,10.01,16.89,9.92,9.74-.14,18.16-3.29,18.69-12.37.19-3.43-.88-6.28-2.85-8.47h0Z" fill="#e74256"/><path d="m87.41,65.42c-.1.4-.73.41-1.39,0-.67-.4-1.13-1.03-1.03-1.43.11-.4.73-.4,1.39,0,.67.39,1.13,1.03,1.03,1.42Z" fill="#e78290"/><path d="m65.86,64.97s8.39-4.28,17.13-.93c2.94,1.28-3.84-6.7-17.13.93Z" fill="#e78290"/><path d="m106.32,170.98c.36-3.95.38-7.88-.41-11.78-.62-3.09-2.78-4.54-5.75-4.94-6.84-.96-14.18,1.96-19.39,6.37-1-.99-2.85-.89-4.21-.79-.65.05-1.26.13-1.83.23-1.19.12-2.38.56-3.4,1.25-.53-1.34-2.15-1.92-3.35-2.53-1.93-.99-3.99-1.83-5.98-2.71-3.83-1.7-7.83-2.98-12.05-2.53-3.4.35-5.59,2.14-6.25,5.47-.77,3.93-1.01,8.29-.89,12.27.12,3.9,1.18,7.5,3.39,10.72,2.07,3.01,4.88,5.71,8.74,5.32,3.55-.35,7.01-3.07,9.73-5.18,1.58-1.23,3.01-2.65,4.31-4.17,1.43-1.67,2.37-3.58,3.58-5.4.3.08.61.14.94.16,1.92.15,3.77-.23,5.3-1.08,0,.06,0,.11.05.16,5.44,5.15,10.95,10.15,18.71,10.97,2.57.27,5.01-.16,6.81-2.12,2.21-2.42,1.67-6.7,1.94-9.68h0Z" fill="#d59c36"/><path d="m69.67,176.12c-1.12,1.55-2.55,2.86-4.02,4.08-2.5,2.09-5.44,3.94-8.42,5.24-4.14,1.81-7.21-.62-9.76-3.69-2.23-2.68-3.19-5.87-3.53-9.3-.36-3.65.25-7.24.65-10.85.14-1.21.26-2.4.58-3.58.63-2.32,2.74-2.98,4.87-3.31,3.67-.57,7.45.82,10.79,2.14,1.8.72,3.56,1.52,5.37,2.2,1.69.63,3.58,1.21,5,2.36-.97.69-1.74,1.59-2.18,2.6-1.52-.36-3.22-.66-4.76-.6-1.13.04-2.25.1-3.39.18-.51.04-3.05.29-2.91.11.02-.03-.02-.04-.03-.02-.07.07-.14.15-.2.21-.02.02,0,.06,0,.07.57.2,1.11.15,1.72.1,1.33-.1,2.67,0,3.99.02,1.68.03,3.62.96,5.31.66,0,0,0,.02,0,.03-.26,1.09-.3,2.21-.13,3.25-1.87-.12-4.32,1.55-5.77,2.3-2.69,1.41-5.4,3.22-7.69,5.21-.06.05,0,.12.06.08,2.27-1.61,4.85-2.93,7.31-4.21,1.17-.61,2.41-1.12,3.63-1.63.87-.36,1.85-.41,2.69-.78.5,1.59,1.56,2.87,3.21,3.45-.87,1.19-1.55,2.5-2.41,3.69h.02Z" fill="#f9dd6d"/><path d="m74.35,171.79c-3.38.03-4.54-2.96-4.55-5.82,0-1.67.58-3.01,1.93-4.04.35-.26.76-.51,1.22-.73.55-.15,1.13-.25,1.69-.32,2.81.04,5.63.8,6.67,3.24-.13.19-.04.42.16.45.14.44.23.93.25,1.47.2,4.25-3.83,5.73-7.41,5.76h.02Z" fill="#f9dd6d"/><path d="m81.76,166.04c-.03-.54-.12-1.03-.25-1.47-.2-.04-.29-.26-.16-.45-.65-1.51-1.97-2.37-3.56-2.82.87.43,1.58,1.05,1.98,1.98-.11.16-.03.35.14.39.12.37.19.78.21,1.24.16,3.59-3.24,4.84-6.25,4.86-2.85.02-3.83-2.5-3.83-4.92,0-.21,0-.42.04-.62-.17.53-.26,1.12-.26,1.75,0,2.87,1.17,5.85,4.55,5.82,3.57-.03,7.6-1.51,7.41-5.76h0Z" fill="#f4cd48"/><path d="m104.31,178.88c-1.18,3.26-4.95,3.16-7.78,2.73-6.98-1.06-11.8-6.27-17.31-10.15,0,0-.03,0-.04-.02,1.02-.64,1.87-1.49,2.48-2.54h0c.98.78,2.38.83,3.52,1.28,1.9.73,3.55,2.06,5.36,2.98.04.02.09-.03.05-.06-1.74-1.08-3.22-2.53-4.96-3.62-.59-.37-1.23-.58-1.89-.77-.56-.16-1.08-.58-1.65-.65.21-.5.38-1.04.48-1.63.14-.74.1-1.45-.08-2.12.54-.2,1.07-.45,1.63-.62,1.07-.3,2.21-.51,3.31-.66,2.58-.34,5.25-.38,7.81-.81.03,0,.05-.06,0-.06-2.77.23-5.62,0-8.41.13-1.33.06-3.31.26-4.61,1.06-.14-1.01-.45-2.06-1.18-2.48,2.23-1.16,4.39-2.46,6.72-3.45,3.04-1.3,6.19-1.75,9.47-1.89,3.42-.14,6.33.55,7.29,4.15.86,3.21.82,6.74.7,10.04-.12,2.98.13,6.32-.9,9.15h-.02Z" fill="#f9dd6d"/><path d="m99,159.72c1.03,0,1.87-.84,1.87-1.87s-.84-1.87-1.87-1.87-1.87.84-1.87,1.87.84,1.87,1.87,1.87Z" fill="#e03938"/><path d="m88.72,160.51c1.01.22,2-.42,2.22-1.42.22-1.01-.42-2-1.42-2.22-.06,0-.12,0-.18-.02-.53.17-1.06.37-1.6.59-.21.23-.38.52-.44.85-.22,1.01.42,2,1.42,2.22Z" fill="#438830"/><path d="m94.1,166.88c1.03,0,1.87-.84,1.87-1.87s-.84-1.87-1.87-1.87-1.87.84-1.87,1.87.84,1.87,1.87,1.87Z" fill="#bf59cf"/><path d="m75.02,165.1c1.03,0,1.87-.84,1.87-1.87s-.84-1.87-1.87-1.87-1.87.84-1.87,1.87.84,1.87,1.87,1.87Z" fill="#e03938"/><path d="m81.13,168.81c-.23-.53-.7-.96-1.32-1.09-1.01-.22-2,.42-2.22,1.42-.16.75.15,1.51.74,1.92,1.18-.47,2.18-1.21,2.79-2.25h0Z" fill="#438830"/><path d="m70.14,168.44c.26.89.68,1.69,1.3,2.29,0-.03.03-.07.03-.1.21-.98-.38-1.93-1.33-2.2h0Z" fill="#bf59cf"/><path d="m87.41,171.73c.24.06.49.06.73.02-.68-.42-1.35-.83-2.07-1.17.22.57.71,1.02,1.34,1.16h0Z" fill="#edc0c1"/><path d="m89.63,170.31c.22-1.01-.42-2-1.42-2.22-1.01-.22-2,.42-2.22,1.42-.02.07-.02.15-.03.21.89.59,1.73,1.25,2.57,1.91.54-.23.97-.7,1.1-1.32Z" fill="#4b52de"/><path d="m82.39,163.27s-.1-.04-.16-.05h-.04s.02.1.02.15c.06-.03.12-.06.18-.09h0Z" fill="#edc0c1"/><path d="m83.65,165.44c.12-.53,0-1.05-.3-1.47-.29.12-.58.23-.87.35.17.66.2,1.36.08,2.12-.02.13-.06.23-.09.36.58-.21,1.03-.71,1.18-1.34h0Z" fill="#edc0c1"/><path d="m100.01,172.51c1.03,0,1.87-.84,1.87-1.87s-.84-1.87-1.87-1.87-1.87.84-1.87,1.87.84,1.87,1.87,1.87Z" fill="#4b52de"/><path d="m105,175.59c-.44.25-.77.68-.89,1.21-.13.56.03,1.12.36,1.55.27-.89.44-1.81.53-2.76Z" fill="#edc0c1"/><path d="m98.43,181.81c1.13.06,2.29-.03,3.3-.39-.26-.39-.66-.69-1.15-.79-.92-.2-1.83.32-2.15,1.18Z" fill="#edc0c1"/><path d="m103.64,163.79c-.22,1.01.42,2,1.42,2.22.07.02.14.02.2.02-.02-1.22-.09-2.45-.24-3.66-.67.16-1.23.69-1.38,1.4h0Z" fill="#bf59cf"/><path d="m93.86,178.33c1.03,0,1.87-.84,1.87-1.87s-.84-1.87-1.87-1.87-1.87.84-1.87,1.87.84,1.87,1.87,1.87Z" fill="#e03938"/><path d="m81.91,172.43c-.43-.1-.84-.03-1.2.15.88.67,1.75,1.34,2.62,2.03.19-.99-.44-1.95-1.42-2.18Z" fill="#edc0c1"/><path d="m48.76,159.3c1.03,0,1.87-.84,1.87-1.87s-.84-1.87-1.87-1.87-1.87.84-1.87,1.87.84,1.87,1.87,1.87Z" fill="#e03938"/><path d="m53.42,167.51c1.03,0,1.87-.84,1.87-1.87s-.84-1.87-1.87-1.87-1.87.84-1.87,1.87.84,1.87,1.87,1.87Z" fill="#438830"/><path d="m53.66,180.09c1.03,0,1.87-.84,1.87-1.87s-.84-1.87-1.87-1.87-1.87.84-1.87,1.87.84,1.87,1.87,1.87Z" fill="#e03938"/><path d="m59.72,161.22c1.03,0,1.87-.84,1.87-1.87s-.84-1.87-1.87-1.87-1.87.84-1.87,1.87.84,1.87,1.87,1.87Z" fill="#bf59cf"/><path d="m67.37,175.66c1.03,0,1.87-.84,1.87-1.87s-.84-1.87-1.87-1.87-1.87.84-1.87,1.87.84,1.87,1.87,1.87Z" fill="#4b52de"/><path d="m46.81,173.76c1.03,0,1.87-.84,1.87-1.87s-.84-1.87-1.87-1.87-1.87.84-1.87,1.87.84,1.87,1.87,1.87Z" fill="#4b52de"/><path d="m64.87,168.64c1.03,0,1.87-.84,1.87-1.87s-.84-1.87-1.87-1.87-1.87.84-1.87,1.87.84,1.87,1.87,1.87Z" fill="#438830"/><path d="m59.23,169.03c-1.01-.22-2,.42-2.22,1.42-.22,1.01.42,2,1.42,2.22.15.03.3.04.44.04.53-.36,1.08-.71,1.62-1.04.07-.14.12-.27.15-.42.22-1.01-.42-2-1.42-2.22Z" fill="#e03938"/><path d="m63.87,178.33c-1.01-.22-2,.42-2.22,1.42-.22,1.01.42,2,1.42,2.22.08.02.15.02.22.03.69-.48,1.36-1,2-1.52.18-.99-.44-1.94-1.43-2.16h0Z" fill="#438830"/><path d="m52.06,182.56c-1.01-.22-2,.42-2.22,1.42,0,.06,0,.12-.02.17.93.76,1.92,1.36,3.01,1.67.32-.26.56-.62.66-1.04.22-1.01-.42-2-1.42-2.22Z" fill="#bf59cf"/><path d="m66.88,161.2c-.22,1.01.42,2,1.42,2.22.37.08.74.05,1.06-.08.31-.51.71-.99,1.17-1.4.07-.38.03-.74-.12-1.07-.68-.43-1.43-.76-2.2-1.06-.65.17-1.19.69-1.34,1.39Z" fill="#4b52de"/><path d="m68.86,169c-.84.38-1.82.43-2.69.78-1.22.5-2.46,1.02-3.63,1.63-2.48,1.28-5.04,2.59-7.31,4.21-.06.04-.12-.03-.06-.08,2.29-2,5-3.8,7.69-5.21,1.45-.76,3.91-2.42,5.77-2.3-.17-1.03-.13-2.16.13-3.25,0,0,0-.02,0-.03-1.69.3-3.63-.63-5.31-.66-1.33-.03-2.68-.12-3.99-.02-.61.05-1.14.11-1.72-.1-.03,0-.04-.04,0-.07.07-.07.14-.15.2-.21.02-.02.05,0,.03.02-.14.19,2.4-.07,2.91-.11,1.13-.09,2.25-.14,3.39-.18,1.53-.06,3.24.24,4.76.6.44-1.02,1.21-1.92,2.18-2.6-1.41-1.15-3.31-1.73-5-2.36-1.81-.68-3.57-1.49-5.37-2.2-3.36-1.33-7.13-2.71-10.79-2.14-2.14.33-4.24.99-4.87,3.31-.32,1.18-.44,2.37-.58,3.58-.4,3.61-1.01,7.21-.65,10.85.34,3.42,1.3,6.61,3.53,9.3,2.55,3.08,5.63,5.5,9.76,3.69,2.99-1.31,5.92-3.15,8.43-5.24,1.46-1.22,2.9-2.53,4.02-4.08.86-1.19,1.54-2.5,2.41-3.69-1.64-.57-2.71-1.87-3.21-3.45h-.02Zm-.57,4.31c-.95,3.26-14.58,14.94-20.27,8.14-5.7-6.81-3.12-18.84-1.95-22.91,1.17-4.07,7.6-3.39,16.06-.71,10.2,3.23,4.75,5.02.44,5.35-4.3.33-9.92.41-5.06,1.11,4.87.71,11.03,2.63,4.52,5.67-6.51,3.05-11.59,10.06-7.23,6.61,4.36-3.45,14.84-7.88,13.5-3.26h0Z" fill="#f4cd48"/><path d="m105.21,169.73c.13-3.3.17-6.83-.7-10.04-.97-3.6-3.87-4.28-7.29-4.15-3.28.14-6.42.59-9.47,1.89-2.33,1-4.49,2.29-6.72,3.45.73.41,1.04,1.47,1.18,2.48,1.31-.79,3.28-1,4.61-1.06,2.79-.13,5.64.11,8.41-.13.04,0,.03.06,0,.06-2.55.44-5.22.47-7.81.81-1.1.15-2.23.36-3.31.66-.57.16-1.09.41-1.63.62.17.66.2,1.36.08,2.12-.11.58-.27,1.12-.48,1.63.57.07,1.09.48,1.65.65.67.19,1.3.41,1.89.77,1.75,1.08,3.22,2.52,4.96,3.62.04.02,0,.08-.05.06-1.81-.91-3.46-2.25-5.36-2.98-1.14-.44-2.54-.48-3.52-1.27h0c-.62,1.04-1.46,1.9-2.48,2.53,0,0,.03,0,.04.02,5.51,3.88,10.34,9.08,17.31,10.15,2.82.44,6.6.53,7.78-2.73,1.03-2.83.79-6.17.9-9.15h.02Zm-6.43,10.54c-7.24-.22-15.07-6.72-15.22-8.67-.08-.91.09-2.32,3.21-.38,3.12,1.94,8.27,4.21,5.15,2.37-3.12-1.84-8.8-7.2-5.18-9.32,3.43-2.03,12.99-2,9.19-2.19-3.8-.19-14.86-.32-11.54-2.47,6.33-4.11,18.61-6.73,19.4,1.52.79,8.24,2.26,19.36-4.98,19.15l-.02-.02Z" fill="#f4cd48"/></g></svg>