<svg width="112" height="117" viewBox="0 0 112 117" fill="none" xmlns="http://www.w3.org/2000/svg">
<path d="M89.2995 37.6413C86.3165 16.0584 75.7465 6.01492 62.1297 3.34289C58.1689 2.56539 54.0755 2.56539 50.1098 3.34289C36.493 6.01492 25.9229 16.0584 22.94 37.6413C19.9032 59.618 20.7729 72.8059 23.8295 93.2719C25.1514 102.129 31.3873 109.55 39.9525 112.119C45.0139 113.639 50.3554 114.451 55.8739 114.451C61.3924 114.451 67.1912 113.566 72.4442 111.917C80.9308 109.255 87.1175 101.908 88.4296 93.0997C91.4664 72.7272 92.3214 59.554 89.2945 37.6366L89.2995 37.6413Z" fill="#6E6F77"/>
<path opacity="0.44" d="M70.5089 6.16203C68.7546 5.28119 66.9119 4.5775 65.0003 4.03129C59.2065 2.3828 53.0344 2.3828 47.2409 4.03129C35.0245 7.51036 25.7124 17.5982 22.9409 37.6408C22.6165 39.9881 22.3365 42.232 22.1006 44.3972C26.1989 6.69841 53.7668 4.11987 70.5089 6.16203Z" fill="#AFAFC1"/>
<path opacity="0.12" d="M81.1522 56.139C81.1522 49.6484 76.6217 43.9401 69.7713 40.6382C66.0318 36.8933 61.2849 34.6494 56.1151 34.6494C50.9456 34.6494 46.1987 36.8933 42.459 40.6382C35.6089 43.9401 31.0781 49.6434 31.0781 56.139C31.0781 59.5195 32.3115 62.6886 34.459 65.4147C35.8447 78.7994 45.0046 89.1382 56.1151 89.1382C67.2259 89.1382 76.3857 78.7947 77.7714 65.4147C79.919 62.6886 81.1522 59.5195 81.1522 56.139Z" fill="#1E1E21"/>
<path d="M81.1522 58.3079C81.1522 51.8173 76.6217 46.109 69.7713 42.8071C66.0318 39.0625 61.2849 36.8184 56.1151 36.8184C50.9456 36.8184 46.1987 39.0625 42.459 42.8071C35.6089 46.109 31.0781 51.8123 31.0781 58.3079C31.0781 61.6885 32.3115 64.8576 34.459 67.5836C35.8447 80.9686 45.0046 91.3074 56.1151 91.3074C67.2259 91.3074 76.3857 80.9637 77.7714 67.5836C79.919 64.8576 81.1522 61.6885 81.1522 58.3079Z" fill="#E1AC91"/>
<path d="M69.7773 42.814C66.0376 39.0691 61.2906 36.8252 56.1211 36.8252C50.9514 36.8252 46.2044 39.0691 42.465 42.814C35.6147 46.1158 31.084 51.8189 31.084 58.3145C31.084 60.5683 31.6344 62.7238 32.6319 64.7167C32.3125 59.7416 30.2339 51.3908 42.5091 44.4525C42.5091 44.4525 54.6175 31.85 68.5143 43.6258C68.5143 43.6258 74.3031 46.3668 78.6865 50.3035C76.6914 47.2476 73.5956 44.6543 69.7723 42.814H69.7773Z" fill="#F4C3AE"/>
<path opacity="0.21" d="M89.2169 37.0166C89.2169 37.0166 89.2219 37.0166 89.212 37.0166C85.7575 58.9243 77.3789 71.3349 66.2144 77.5647C59.9095 81.083 52.2142 81.083 45.9093 77.5647C34.7447 71.33 26.3662 58.9194 22.9116 37.0166C22.8969 37.0166 22.9165 37.0166 22.9067 37.0166C19.7666 59.382 20.6266 72.624 23.7126 93.3017C25.0296 102.105 31.2213 109.462 39.7276 112.055C44.8577 113.62 50.2781 114.456 55.885 114.456C61.492 114.456 67.256 113.566 72.5336 111.903C80.9761 109.24 87.1333 101.943 88.4404 93.1737C91.5117 72.5699 92.3618 59.3378 89.2268 37.0166H89.2169Z" fill="#1E1E21"/>
<path d="M31.6348 26.9002C31.6348 26.9002 32.4505 13.294 43.3499 23.2637C43.3499 23.2637 35.5267 16.6648 31.6348 26.9002Z" fill="#262325"/>
<path d="M80.6066 26.9002C80.6066 26.9002 79.791 13.294 68.8916 23.2637C68.8916 23.2637 76.7148 16.6648 80.6066 26.9002Z" fill="#262325"/>
<path d="M71.2642 48.3594C53.3967 67.1524 41.5146 48.3594 41.5146 48.3594" stroke="#262325" stroke-width="0.278129" stroke-linecap="round" stroke-linejoin="round"/>
<path d="M35.7709 33.1985C35.7709 33.1985 40.0953 30.1133 44.4147 33.1985C44.4147 33.1985 44.0807 27.3477 35.0928 28.9813C35.0928 28.9813 42.5916 28.3218 43.5892 32.2194C43.5892 32.2194 39.7563 29.6998 35.7709 33.1985Z" fill="#262325" stroke="#262325" stroke-width="0.189128" stroke-linecap="round" stroke-linejoin="round"/>
<path d="M76.4641 33.1985C76.4641 33.1985 72.14 30.1133 67.8203 33.1985C67.8203 33.1985 68.1547 27.3477 77.1424 28.9813C77.1424 28.9813 69.6434 28.3218 68.6459 32.2194C68.6459 32.2194 72.479 29.6998 76.4641 33.1985Z" fill="#262325" stroke="#262325" stroke-width="0.189128" stroke-linecap="round" stroke-linejoin="round"/>
<path d="M26.1247 74.8082C22.454 75.31 18.3409 77.1997 19.594 86.5395C19.594 86.5395 21.1763 95.6383 28.9307 101.415C28.9307 101.415 25.8152 94.5753 25.6382 91.2292C25.6382 91.2292 31.083 100.721 33.7808 99.6291L33.7268 99.5502C31.3631 96.0959 29.7562 92.1788 29.0142 88.0601C29.0142 88.0601 34.2723 97.0554 37.2256 97.0996L33.658 85.9145C33.658 85.9145 36.3312 91.9475 39.2158 91.8884C39.2158 91.8884 37.1912 88.3061 36.6015 82.529C36.3853 80.4033 35.9185 79.5175 34.8718 78.2823C32.3361 75.3003 29.2894 74.38 26.1247 74.8131V74.8082Z" fill="#E1AC91"/>
<path d="M25.998 91.8301C27.2511 93.8968 31.5018 100.555 33.7819 99.6296L33.7279 99.551C31.8015 96.7363 30.3912 93.6113 29.5263 90.3244C27.2511 89.4877 26.3077 91.0721 25.998 91.8301Z" fill="white"/>
<path d="M33.8691 86.353C34.5522 87.7406 36.8077 91.9332 39.2156 91.8841C39.2156 91.8841 37.8445 89.4484 37.0289 85.354C35.1664 84.7045 34.2426 85.7231 33.8691 86.353Z" fill="white"/>
<path d="M22.5381 94.1134C23.9534 96.5739 26.0025 99.231 28.9313 101.416C28.9313 101.416 26.5726 96.2391 25.8453 92.6913C23.7077 91.9087 22.8575 93.213 22.5332 94.1134H22.5381Z" fill="white"/>
<path d="M25.8445 92.6917C25.6381 92.6177 25.4465 92.5636 25.2646 92.5244C25.6774 94.1629 26.8519 98.5474 28.1885 100.821C28.4342 101.018 28.675 101.219 28.9355 101.412C28.9355 101.412 26.5767 96.2346 25.8494 92.6867L25.8445 92.6917Z" fill="#F2F2F4"/>
<path d="M29.5269 90.3243C29.3942 90.2751 29.2664 90.2357 29.1387 90.2012C29.4483 91.8104 30.8144 97.927 33.7825 99.6296L33.7284 99.5509C31.8021 96.7362 30.3918 93.6115 29.5269 90.3243Z" fill="#F2F2F4"/>
<path d="M29.5986 89.024C30.9991 91.2582 34.5962 96.6612 36.9697 97.0745C35.2301 94.8306 33.8493 88.7828 33.5004 87.1589C31.0778 86.3275 29.9377 88.2859 29.6035 89.024H29.5986Z" fill="white"/>
<path d="M34.1398 87.4258C33.9138 87.3126 33.7025 87.229 33.4961 87.1553C33.845 88.7792 35.2308 94.8267 36.9654 97.0709C37.0538 97.0855 37.1374 97.0954 37.2258 97.0954L34.1398 87.4208V87.4258Z" fill="#F2F2F4"/>
<path d="M37.0291 85.3586C36.7686 85.2653 36.5229 85.2112 36.2969 85.1816C36.4443 86.8202 37.0143 90.7668 39.0977 91.8837C39.1372 91.8837 39.1716 91.8837 39.211 91.8837C39.211 91.8837 37.8399 89.448 37.0241 85.3539L37.0291 85.3586Z" fill="#F2F2F4"/>
<path opacity="0.43" d="M24.4736 75.1484C21.3482 76.0439 18.5276 78.593 19.5939 86.5402C19.5939 86.5402 20.5816 92.2091 24.8126 97.4399C19.3974 85.3149 18.9895 80.34 24.4736 75.1484Z" fill="#CC9987"/>
<path d="M85.6243 74.8082C89.2951 75.31 93.408 77.1997 92.1549 86.5395C92.1549 86.5395 90.5727 95.6383 82.8184 101.415C82.8184 101.415 85.9338 94.5753 86.1108 91.2292C86.1108 91.2292 80.6659 100.721 77.9682 99.6291L78.0222 99.5502C80.3859 96.0959 81.9929 92.1788 82.7347 88.0601C82.7347 88.0601 77.4767 97.0554 74.5234 97.0996L78.0911 85.9145C78.0911 85.9145 75.4178 91.9475 72.5332 91.8884C72.5332 91.8884 74.5578 88.3061 75.1475 82.529C75.3638 80.4033 75.8305 79.5175 76.8771 78.2823C79.4128 75.3003 82.4596 74.38 85.6243 74.8131V74.8082Z" fill="#E1AC91"/>
<path d="M85.7525 91.8301C84.4994 93.8968 80.2489 100.555 77.9688 99.6296L78.0228 99.551C79.949 96.7363 81.3595 93.6113 82.2242 90.3244C84.4994 89.4877 85.443 91.0721 85.7525 91.8301Z" fill="white"/>
<path d="M77.8846 86.353C77.2015 87.7406 74.9459 91.9332 72.5381 91.8841C72.5381 91.8841 73.9089 89.4484 74.7248 85.354C76.5871 84.7045 77.5111 85.7231 77.8846 86.353Z" fill="white"/>
<path d="M89.2164 94.1134C87.8012 96.5739 85.752 99.231 82.8232 101.416C82.8232 101.416 85.182 96.2391 85.9091 92.6913C88.0468 91.9087 88.8969 93.213 89.2213 94.1134H89.2164Z" fill="white"/>
<path d="M85.9043 92.6917C86.1108 92.6177 86.3024 92.5636 86.484 92.5244C86.0714 94.1629 84.8968 98.5474 83.5602 100.821C83.3146 101.018 83.0737 101.219 82.8135 101.412C82.8135 101.412 85.1722 96.2346 85.8994 92.6867L85.9043 92.6917Z" fill="#F2F2F4"/>
<path d="M82.2242 90.3243C82.3568 90.2751 82.4847 90.2357 82.6126 90.2012C82.3028 91.8104 80.9367 97.927 77.9688 99.6296L78.0228 99.5509C79.949 96.7362 81.3595 93.6115 82.2242 90.3243Z" fill="#F2F2F4"/>
<path d="M82.1501 89.024C80.7498 91.2582 77.1526 96.6612 74.7793 97.0745C76.5187 94.8306 77.8996 88.7828 78.2486 87.1589C80.671 86.3275 81.8111 88.2859 82.1454 89.024H82.1501Z" fill="white"/>
<path d="M77.6096 87.4258C77.8356 87.3126 78.0468 87.229 78.2532 87.1553C77.9043 88.7792 76.5186 94.8267 74.7839 97.0709C74.6954 97.0855 74.6119 97.0954 74.5234 97.0954L77.6096 87.4208V87.4258Z" fill="#F2F2F4"/>
<path d="M74.7198 85.3586C74.9803 85.2653 75.2259 85.2112 75.452 85.1816C75.3045 86.8202 74.7345 90.7668 72.6511 91.8837C72.6117 91.8837 72.5772 91.8837 72.5381 91.8837C72.5381 91.8837 73.9089 89.448 74.7248 85.3539L74.7198 85.3586Z" fill="#F2F2F4"/>
<path opacity="0.43" d="M87.2736 75.1484C90.3992 76.0439 93.2196 78.593 92.1534 86.5402C92.1534 86.5402 91.1657 92.2091 86.9346 97.4399C92.3499 85.3149 92.7579 80.34 87.2736 75.1484Z" fill="#CC9987"/>
<path d="M55.9433 56.5724C53.0047 56.5478 49.8399 55.8589 46.8916 54.0186C46.8916 54.0186 49.0047 55.426 50.4985 57.419C51.4125 58.6393 52.6215 60.2237 54.0857 61.144C54.6508 61.4984 55.2994 61.6803 55.9483 61.6803C56.5969 61.6803 57.2405 61.5031 57.8106 61.144C59.2751 60.2237 60.4838 58.6393 61.3979 57.419C62.8869 55.426 65.0047 54.0186 65.0047 54.0186C62.0564 55.8589 58.8917 56.5478 55.953 56.5724H55.9433Z" fill="#262325"/>
<path d="M42.0163 46.75C42.0163 46.75 41.5937 49.0825 39.9277 49.3383C39.9277 49.3383 41.9179 49.3875 42.0163 46.75Z" fill="#262325" stroke="#262325" stroke-width="0.195803" stroke-linecap="round" stroke-linejoin="round"/>
<path d="M71.0928 46.75C71.0928 46.75 71.5156 49.0825 73.1813 49.3383C73.1813 49.3383 71.1912 49.3875 71.0928 46.75Z" fill="#FFA9B1" stroke="#262325" stroke-width="0.195803" stroke-linecap="round" stroke-linejoin="round"/>
<path d="M50.4297 56.3076C50.4297 56.3076 54.42 58.8565 61.4029 56.3076C61.4029 56.3076 56.3906 66.73 50.4297 56.3076Z" fill="#441E1C"/>
<path d="M60.1355 58.3047C59.4133 58.0289 57.3101 58.5211 56.1896 58.8214C55.772 58.9296 55.3395 58.9591 54.9169 58.8705C53.708 58.6147 53.0938 58.9837 52.7793 59.461C55.944 62.4774 58.6368 60.2435 60.1355 58.3047Z" fill="#EFB9B6"/>
<path d="M56.1896 58.8214C55.772 58.9296 55.3395 58.9591 54.9169 58.8705C53.708 58.6147 53.0938 58.9837 52.7793 59.461C53.4624 60.1154 54.1258 60.519 54.7596 60.7354C56.0127 60.1646 57.5852 59.3577 59.5263 59.0279C59.7474 58.7919 59.9489 58.5457 60.1355 58.3047C59.4133 58.0289 57.3101 58.5211 56.1896 58.8214Z" fill="#DBAAA9"/>
<path d="M48.2121 36.6725C49.7207 33.7201 53.1263 31.5844 56.3302 31.4613C61.4801 31.2596 65.7554 33.8037 65.49 38.4245C65.2245 43.0452 60.9445 44.6495 55.9961 44.7183C52.9789 44.7577 47.2933 43.6898 47.416 39.6694C47.4505 38.6163 47.7355 37.6077 48.2121 36.6775V36.6725Z" fill="#686463"/>
<path d="M48.2121 36.4294C49.7207 33.4769 53.1263 31.3413 56.3302 31.2182C61.4801 31.0164 65.7554 33.5606 65.49 38.1811C65.2245 42.8018 60.9445 44.4061 55.9961 44.4751C52.9789 44.5143 47.2933 43.4466 47.416 39.4262C47.4505 38.3732 47.7355 37.3643 48.2121 36.4343V36.4294Z" fill="#FF5263"/>
<path d="M64.0376 33.8761C65.8017 37.3896 61.8213 44.013 52.6122 41.8823C49.2609 41.1097 48.0767 38.0933 48.1503 36.5679C47.7181 37.4584 47.4477 38.4231 47.4132 39.4268C47.2856 43.4471 52.9761 44.5201 55.9933 44.4756C60.9418 44.4069 65.2168 42.8026 65.4872 38.1819C65.5853 36.4349 65.0401 34.9882 64.0376 33.8711V33.8761Z" fill="#FC2951"/>
<path d="M62.3163 33.7242C62.2673 33.9259 61.9478 33.9309 61.6088 33.7291C61.2697 33.5273 61.0338 33.2077 61.0878 33.0009C61.1418 32.7992 61.4563 32.7992 61.7954 33.0009C62.1344 33.1978 62.3704 33.5224 62.3163 33.7242Z" fill="#F77C90"/>
<path d="M51.3682 33.4987C51.3682 33.4987 55.6288 31.3236 60.0712 33.0261C61.5649 33.6759 58.1202 29.616 51.3682 33.4987Z" fill="#F77C90"/>
<path d="M71.6978 87.4257C71.8795 85.4178 71.8894 83.415 71.4914 81.4319C71.1769 79.8622 70.0812 79.1241 68.5725 78.9173C65.0983 78.4301 61.3685 79.9163 58.7198 82.1601C58.2137 81.6583 57.2702 81.7074 56.5821 81.7566C56.253 81.7814 55.9435 81.8206 55.6535 81.8747C55.049 81.9338 54.4445 82.1601 53.9285 82.5096C53.6583 81.8256 52.8377 81.5302 52.2283 81.2202C51.2456 80.7184 50.2037 80.2903 49.1915 79.8426C47.2454 78.9764 45.2161 78.3269 43.0685 78.5532C41.3438 78.7304 40.2282 79.6408 39.8941 81.3384C39.5008 83.3363 39.3831 85.5556 39.4421 87.583C39.5008 89.566 40.0414 91.3967 41.1619 93.0354C42.2135 94.5658 43.6385 95.9387 45.6042 95.7419C47.4077 95.5647 49.1669 94.1818 50.5477 93.1042C51.3487 92.4793 52.0759 91.756 52.7393 90.9834C53.4668 90.1321 53.9434 89.1627 54.5575 88.2375C54.7099 88.277 54.8671 88.3065 55.0341 88.3211C56.0121 88.3998 56.9507 88.203 57.7272 87.7699C57.7222 87.7994 57.7272 87.8243 57.7517 87.8488C60.5134 90.4667 63.3143 93.0106 67.2555 93.4291C68.5626 93.5668 69.8009 93.3454 70.7149 92.3514C71.8404 91.1212 71.565 88.9411 71.7028 87.4257H71.6978Z" fill="#E09B00"/>
<path d="M53.0786 90.0435C52.5086 90.831 51.7814 91.5002 51.0344 92.1201C49.7667 93.1831 48.2727 94.123 46.7542 94.7874C44.651 95.7074 43.0933 94.4725 41.7961 92.9076C40.6609 91.5446 40.1744 89.9207 40.0024 88.1787C39.8205 86.3235 40.1301 84.4928 40.3315 82.6575C40.4004 82.0422 40.4644 81.4369 40.6265 80.8365C40.946 79.6557 42.0171 79.3211 43.0982 79.1538C44.9608 78.8635 46.882 79.572 48.5822 80.2411C49.4963 80.6055 50.3908 81.0137 51.3095 81.3582C52.1695 81.6781 53.1277 81.9735 53.8501 82.559C53.3587 82.9084 52.9656 83.3661 52.7445 83.8828C51.973 83.7006 51.108 83.548 50.3268 83.5775C49.7518 83.5974 49.1818 83.6267 48.6068 83.6711C48.3465 83.6907 47.059 83.8188 47.1276 83.7252C47.1376 83.7106 47.118 83.7056 47.113 83.7153C47.0786 83.7498 47.0441 83.7892 47.0097 83.8237C47 83.8334 47.005 83.8533 47.0146 83.858C47.3046 83.9615 47.5797 83.9319 47.8895 83.9074C48.5627 83.858 49.2457 83.9074 49.9189 83.917C50.7739 83.9319 51.7569 84.4042 52.6166 84.2519C52.6166 84.2519 52.6166 84.2615 52.6119 84.2665C52.4791 84.8227 52.4595 85.3933 52.548 85.9199C51.5995 85.8608 50.3513 86.7072 49.6143 87.0911C48.2481 87.8096 46.8721 88.7296 45.7075 89.7435C45.678 89.7681 45.7075 89.8026 45.737 89.7827C46.892 88.9659 48.1991 88.2918 49.4522 87.6423C50.0467 87.3321 50.6758 87.0715 51.2949 86.8156C51.737 86.6335 52.2335 86.6089 52.661 86.417C52.9165 87.2239 53.4521 87.8784 54.2925 88.1737C53.8501 88.779 53.5061 89.4432 53.0689 90.0485L53.0786 90.0435Z" fill="#FFDE55"/>
<path d="M55.4552 87.84C53.7401 87.8547 53.1505 86.334 53.1455 84.8774C53.1455 84.0261 53.4404 83.3471 54.1285 82.8207C54.3054 82.6876 54.5166 82.5598 54.7476 82.4516C55.0276 82.3777 55.3226 82.3236 55.6076 82.2891C57.0376 82.3089 58.4674 82.6976 58.9983 83.9375C58.9344 84.0361 58.9785 84.1492 59.0818 84.1688C59.1505 84.3952 59.1998 84.6414 59.2095 84.9169C59.3128 87.0771 57.2637 87.8301 55.4455 87.8447L55.4552 87.84Z" fill="#FFDE55"/>
<path d="M59.221 84.9115C59.2064 84.6357 59.1623 84.3898 59.0934 84.1634C58.9903 84.1438 58.9459 84.0306 59.0099 83.9321C58.6805 83.1645 58.0073 82.7264 57.2014 82.4951C57.6438 82.7118 58.0024 83.0317 58.2088 83.504C58.1548 83.5876 58.1942 83.6812 58.2777 83.7008C58.3367 83.8879 58.3759 84.0994 58.3858 84.3307C58.4693 86.1564 56.7396 86.7912 55.2112 86.8009C53.7615 86.8108 53.2654 85.5314 53.2654 84.2962C53.2654 84.188 53.2703 84.0848 53.2849 83.9813C53.1965 84.252 53.1523 84.5521 53.1523 84.872C53.1523 86.3336 53.7469 87.8493 55.462 87.8344C57.2752 87.8197 59.3244 87.0667 59.226 84.9065L59.221 84.9115Z" fill="#FCCE0B"/>
<path d="M70.6758 91.4465C70.0763 93.1049 68.16 93.0557 66.725 92.8341C63.1771 92.2928 60.7299 89.6454 57.9288 87.6723C57.9288 87.6723 57.9141 87.6673 57.9092 87.6624C58.4252 87.3375 58.8577 86.9047 59.1672 86.3681C59.1672 86.3681 59.1672 86.3681 59.1722 86.373C59.6684 86.7667 60.3809 86.7915 60.9609 87.0178C61.924 87.3869 62.7642 88.0659 63.6832 88.5333C63.7028 88.5432 63.7275 88.5186 63.7077 88.504C62.8232 87.9528 62.0715 87.2146 61.1869 86.6634C60.887 86.4765 60.5628 86.3681 60.2287 86.2698C59.9437 86.1862 59.6783 85.9745 59.3883 85.94C59.4964 85.6841 59.5799 85.4086 59.6339 85.1135C59.7028 84.7345 59.6832 84.3751 59.5948 84.0356C59.8699 83.9324 60.1403 83.8043 60.4253 83.7207C60.9705 83.5683 61.5455 83.4601 62.1059 83.3861C63.4177 83.2139 64.7742 83.1943 66.0714 82.9729C66.0863 82.9729 66.0959 82.9434 66.0714 82.9434C64.6661 83.0615 63.2165 82.9434 61.8011 83.0071C61.123 83.0367 60.1204 83.1402 59.4572 83.5484C59.3883 83.0367 59.2262 82.5003 58.8577 82.2889C59.9928 81.6982 61.0885 81.039 62.273 80.532C63.8158 79.8725 65.4178 79.6415 67.0838 79.5725C68.8232 79.5035 70.2976 79.8529 70.7888 81.6835C71.2263 83.3174 71.2067 85.1133 71.1428 86.7915C71.0838 88.3069 71.2067 90.0048 70.6857 91.4465H70.6758Z" fill="#FFDE55"/>
<path d="M67.9824 81.6972C68.5064 81.6972 68.9309 81.2721 68.9309 80.7477C68.9309 80.223 68.5064 79.7979 67.9824 79.7979C67.4587 79.7979 67.0342 80.223 67.0342 80.7477C67.0342 81.2721 67.4587 81.6972 67.9824 81.6972Z" fill="#F41C2C"/>
<path d="M62.7596 82.1012C63.2706 82.2144 63.7767 81.8897 63.8898 81.378C64.0028 80.8662 63.6786 80.3592 63.1675 80.246C63.138 80.2413 63.1086 80.2413 63.0741 80.2363C62.8037 80.3249 62.5336 80.4232 62.2632 80.5364C62.1551 80.6545 62.0716 80.8022 62.0371 80.9695C61.9241 81.4812 62.2485 81.988 62.7596 82.1012Z" fill="#1B8C1B"/>
<path d="M65.4922 85.3388C66.0161 85.3388 66.4407 84.9137 66.4407 84.3893C66.4407 83.8646 66.0161 83.4395 65.4922 83.4395C64.9685 83.4395 64.5439 83.8646 64.5439 84.3893C64.5439 84.9137 64.9685 85.3388 65.4922 85.3388Z" fill="#CF4CD6"/>
<path d="M55.7969 84.4345C56.3208 84.4345 56.7454 84.0094 56.7454 83.4847C56.7454 82.9603 56.3208 82.5352 55.7969 82.5352C55.2732 82.5352 54.8486 82.9603 54.8486 83.4847C54.8486 84.0094 55.2732 84.4345 55.7969 84.4345Z" fill="#F41C2C"/>
<path d="M58.9013 86.3236C58.7835 86.053 58.5476 85.8364 58.2331 85.7676C57.722 85.6545 57.2159 85.9791 57.1029 86.4909C57.0194 86.8748 57.1815 87.2587 57.4811 87.4702C58.0807 87.2292 58.5868 86.8552 58.8966 86.3236H58.9013Z" fill="#1B8C1B"/>
<path d="M53.3204 86.1318C53.453 86.5845 53.6644 86.993 53.9789 87.2981C53.9839 87.2832 53.9935 87.2636 53.9935 87.2489C54.1016 86.7518 53.8019 86.2646 53.3154 86.1318H53.3204Z" fill="#CF4CD6"/>
<path d="M62.0913 87.8094C62.2142 87.8389 62.3418 87.8389 62.4598 87.819C62.1158 87.6076 61.772 87.3959 61.4082 87.2236C61.5212 87.514 61.7671 87.7404 62.0913 87.8141V87.8094Z" fill="#F6BFC1"/>
<path d="M63.222 87.0859C63.335 86.5741 63.0106 86.0673 62.4995 85.9542C61.9885 85.841 61.4824 86.1656 61.3694 86.6774C61.3595 86.7119 61.3594 86.7513 61.3545 86.7858C61.8068 87.0859 62.2343 87.4204 62.6619 87.7553C62.937 87.6371 63.1531 87.4008 63.222 87.0859Z" fill="#4D4DE8"/>
<path d="M59.5405 83.5031C59.516 83.4934 59.4915 83.4835 59.462 83.4785C59.452 83.4785 59.4424 83.4785 59.4424 83.4785C59.4424 83.5031 59.452 83.5279 59.452 83.5525C59.4815 83.5376 59.511 83.5229 59.5405 83.5081V83.5031Z" fill="#F6BFC1"/>
<path d="M60.1835 84.6062C60.2425 84.3357 60.1786 84.0699 60.0311 83.8584C59.8836 83.9175 59.7364 83.9763 59.5889 84.0354C59.6774 84.3702 59.692 84.7293 59.6281 85.1132C59.6184 85.177 59.5986 85.2311 59.584 85.2952C59.8789 85.1869 60.1097 84.936 60.1835 84.6111V84.6062Z" fill="#F6BFC1"/>
<path d="M68.4944 88.2031C69.0181 88.2031 69.4426 87.7779 69.4426 87.2535C69.4426 86.7289 69.0181 86.3037 68.4944 86.3037C67.9705 86.3037 67.5459 86.7289 67.5459 87.2535C67.5459 87.7779 67.9705 88.2031 68.4944 88.2031Z" fill="#4D4DE8"/>
<path d="M71.0289 89.7734C70.8078 89.9013 70.6358 90.1179 70.5769 90.3884C70.5129 90.6739 70.5915 90.9593 70.7585 91.1757C70.8963 90.723 70.9799 90.2557 71.0289 89.7734Z" fill="#F6BFC1"/>
<path d="M67.6924 92.9371C68.2674 92.9664 68.857 92.9223 69.368 92.7401C69.2355 92.5433 69.034 92.3909 68.7831 92.3368C68.3165 92.2333 67.8545 92.4991 67.6924 92.9371Z" fill="#F6BFC1"/>
<path d="M70.336 83.77C70.2229 84.2818 70.5471 84.7888 71.0582 84.902C71.0926 84.9117 71.1271 84.9117 71.1615 84.9117C71.1516 84.2917 71.1172 83.6668 71.0386 83.0518C70.6995 83.1354 70.4145 83.401 70.336 83.7653V83.77Z" fill="#CF4CD6"/>
<path d="M65.3691 91.165C65.8931 91.165 66.3176 90.7399 66.3176 90.2152C66.3176 89.6908 65.8931 89.2656 65.3691 89.2656C64.8455 89.2656 64.4209 89.6908 64.4209 90.2152C64.4209 90.7399 64.8455 91.165 65.3691 91.165Z" fill="#F41C2C"/>
<path d="M59.2999 88.1651C59.0838 88.1159 58.8723 88.1504 58.6904 88.2388C59.1378 88.5785 59.5799 88.9228 60.0223 89.2722C60.1205 88.7704 59.801 88.2782 59.2999 88.1651Z" fill="#F6BFC1"/>
<path d="M42.4592 81.4863C42.9829 81.4863 43.4075 81.0611 43.4075 80.5365C43.4075 80.0121 42.9829 79.5869 42.4592 79.5869C41.9353 79.5869 41.5107 80.0121 41.5107 80.5365C41.5107 81.0611 41.9353 81.4863 42.4592 81.4863Z" fill="#F41C2C"/>
<path d="M44.8235 85.6591C45.3472 85.6591 45.7717 85.234 45.7717 84.7096C45.7717 84.1849 45.3472 83.7598 44.8235 83.7598C44.2996 83.7598 43.875 84.1849 43.875 84.7096C43.875 85.234 44.2996 85.6591 44.8235 85.6591Z" fill="#1B8C1B"/>
<path d="M44.9465 92.0615C45.4702 92.0615 45.895 91.6363 45.895 91.1119C45.895 90.5872 45.4702 90.1621 44.9465 90.1621C44.4228 90.1621 43.998 90.5872 43.998 91.1119C43.998 91.6363 44.4228 92.0615 44.9465 92.0615Z" fill="#F41C2C"/>
<path d="M48.0266 82.4602C48.5503 82.4602 48.9749 82.035 48.9749 81.5104C48.9749 80.9859 48.5503 80.5605 48.0266 80.5605C47.5027 80.5605 47.0781 80.9859 47.0781 81.5104C47.0781 82.035 47.5027 82.4602 48.0266 82.4602Z" fill="#CF4CD6"/>
<path d="M51.9141 89.8076C52.438 89.8076 52.8626 89.3824 52.8626 88.858C52.8626 88.3334 52.438 87.9082 51.9141 87.9082C51.3904 87.9082 50.9658 88.3334 50.9658 88.858C50.9658 89.3824 51.3904 89.8076 51.9141 89.8076Z" fill="#4D4DE8"/>
<path d="M41.4661 88.8388C41.9898 88.8388 42.4146 88.4137 42.4146 87.889C42.4146 87.3646 41.9898 86.9395 41.4661 86.9395C40.9421 86.9395 40.5176 87.3646 40.5176 87.889C40.5176 88.4137 40.9421 88.8388 41.4661 88.8388Z" fill="#4D4DE8"/>
<path d="M50.6406 86.2346C51.1646 86.2346 51.5891 85.8092 51.5891 85.2848C51.5891 84.7604 51.1646 84.335 50.6406 84.335C50.1169 84.335 49.6924 84.7604 49.6924 85.2848C49.6924 85.8092 50.1169 86.2346 50.6406 86.2346Z" fill="#1B8C1B"/>
<path d="M47.7767 86.4317C47.2656 86.3185 46.7595 86.6432 46.6465 87.1549C46.5335 87.6667 46.8577 88.1735 47.3687 88.2866C47.4426 88.3015 47.5211 88.3065 47.5948 88.3065C47.8652 88.1243 48.1452 87.9471 48.4203 87.7749C48.4548 87.7061 48.4793 87.6371 48.4991 87.5634C48.6121 87.0517 48.2877 86.5449 47.7767 86.4317Z" fill="#F41C2C"/>
<path d="M50.1343 91.1661C49.6233 91.0529 49.1169 91.3775 49.0039 91.8893C48.8909 92.4011 49.2153 92.9081 49.7264 93.0213C49.7658 93.031 49.8049 93.0309 49.8394 93.0359C50.1884 92.79 50.5324 92.5291 50.8565 92.2633C50.95 91.7615 50.6305 91.2743 50.1294 91.1661H50.1343Z" fill="#1B8C1B"/>
<path d="M44.1362 93.3155C43.6251 93.2023 43.119 93.5269 43.006 94.0387C43.0011 94.0682 43.0011 94.0978 42.9961 94.1273C43.468 94.5162 43.9741 94.8212 44.5245 94.9786C44.6866 94.8458 44.8096 94.6639 44.8586 94.4472C44.9717 93.9355 44.6472 93.4287 44.1362 93.3155Z" fill="#CF4CD6"/>
<path d="M51.6631 82.4508C51.5501 82.9625 51.8743 83.4696 52.3853 83.5827C52.5722 83.622 52.7588 83.6073 52.9259 83.5433C53.0833 83.2824 53.2847 83.0414 53.5207 82.8297C53.5549 82.6379 53.5353 82.4508 53.4617 82.2835C53.1177 82.0671 52.7343 81.8948 52.3462 81.7422C52.0168 81.8308 51.7417 82.0916 51.6631 82.4508Z" fill="#4D4DE8"/>
<path d="M52.6698 86.4174C52.2423 86.6092 51.7458 86.6338 51.3037 86.8159C50.6846 87.0718 50.0555 87.3327 49.461 87.6426C48.2029 88.2922 46.9007 88.9615 45.7458 89.7833C45.7163 89.8029 45.6868 89.7684 45.7163 89.7438C46.8809 88.7252 48.2569 87.8099 49.623 87.0914C50.3601 86.7028 51.6083 85.8612 52.5568 85.9202C52.4683 85.3938 52.4928 84.823 52.6207 84.2668C52.6207 84.2618 52.6207 84.2571 52.6254 84.2522C51.7657 84.4045 50.7827 83.9322 49.9276 83.9176C49.2545 83.9027 48.5665 83.8585 47.8983 83.9077C47.5888 83.9323 47.3184 83.9618 47.0234 83.8585C47.0088 83.8536 47.0038 83.8387 47.0187 83.824C47.0529 83.7895 47.0874 83.7501 47.1218 83.7158C47.1317 83.7059 47.1464 83.7158 47.1364 83.7255C47.0678 83.824 48.3553 83.6913 48.6156 83.6714C49.1906 83.6272 49.7606 83.6027 50.3356 83.5778C51.1121 83.5486 51.9818 83.7009 52.7533 83.8831C52.9744 83.3664 53.3675 82.9087 53.8589 82.5593C53.1414 81.9738 52.1783 81.6785 51.3183 81.3586C50.3995 81.0141 49.5051 80.6008 48.591 80.2417C46.8859 79.5674 44.9695 78.8638 43.107 79.1542C42.021 79.3214 40.9547 79.656 40.6353 80.8371C40.4732 81.4375 40.4092 82.0426 40.3403 82.6578C40.1388 84.4932 39.8293 86.3238 40.0112 88.179C40.1832 89.921 40.6697 91.5399 41.8048 92.9079C43.102 94.4728 44.6647 95.708 46.7632 94.7877C48.2815 94.1233 49.7705 93.1834 51.0432 92.1207C51.7852 91.5005 52.5174 90.8314 53.0874 90.0441C53.5248 89.4388 53.8688 88.7744 54.311 88.1691C53.4758 87.8789 52.9352 87.2195 52.6797 86.4124L52.6698 86.4174ZM52.3798 88.6121C51.8982 90.2705 44.9743 96.2148 42.0799 92.7553C39.1856 89.2911 40.4928 83.1696 41.0873 81.098C41.6819 79.0261 44.9497 79.3755 49.2446 80.7386C54.429 82.3821 51.6576 83.2927 49.4706 83.46C47.2839 83.6272 44.429 83.6664 46.9007 84.0258C49.3725 84.3849 52.5027 85.3643 49.1955 86.9095C45.8883 88.4594 43.3085 92.0271 45.5247 90.2705C47.7409 88.5135 53.0629 86.2598 52.3848 88.6121H52.3798Z" fill="#FCCE0B"/>
<path d="M71.134 86.7915C71.1979 85.1133 71.2224 83.3174 70.78 81.6835C70.2888 79.8529 68.8144 79.5035 67.075 79.5725C65.409 79.6415 63.8119 79.8725 62.2642 80.532C61.0797 81.039 59.984 81.6982 58.8489 82.2889C59.2174 82.4954 59.3795 83.0367 59.4484 83.5484C60.1116 83.1451 61.1142 83.0416 61.7923 83.0071C63.2075 82.9434 64.6573 83.0615 66.0626 82.9434C66.0822 82.9434 66.0775 82.9729 66.0626 82.9729C64.7654 83.1992 63.409 83.2139 62.0971 83.3861C61.5367 83.4601 60.9617 83.5683 60.4165 83.7207C60.1265 83.8043 59.8611 83.9274 59.586 84.0356C59.6744 84.3704 59.6891 84.7295 59.6251 85.1135C59.5711 85.4086 59.4876 85.6841 59.3795 85.94C59.6695 85.9745 59.9349 86.1862 60.22 86.2698C60.559 86.3681 60.8782 86.4765 61.1781 86.6634C62.0676 87.2146 62.8144 87.9478 63.6989 88.504C63.7188 88.5137 63.694 88.5432 63.6744 88.5333C62.7554 88.0709 61.9152 87.3869 60.9521 87.0178C60.3721 86.7962 59.6596 86.7716 59.1634 86.373C59.1634 86.373 59.1634 86.373 59.1584 86.3681C58.8439 86.8997 58.4164 87.3375 57.9004 87.6624C57.9053 87.6624 57.9153 87.6624 57.92 87.6723C60.7211 89.6454 63.1732 92.2928 66.7162 92.8341C68.1512 93.0557 70.0675 93.1049 70.667 91.4465C71.188 90.0048 71.07 88.3069 71.1241 86.7915H71.134ZM67.8662 92.1551C64.1854 92.0419 60.21 88.735 60.1315 87.746C60.0921 87.2834 60.1756 86.5651 61.7628 87.5542C63.35 88.5432 65.9645 89.6948 64.377 88.7599C62.7898 87.8247 59.9054 85.0986 61.7432 84.016C63.4878 82.9826 68.3428 82.9974 66.4116 82.9039C64.4804 82.8056 58.8635 82.7416 60.5491 81.649C63.7629 79.5578 70.0038 78.2241 70.4065 82.4217C70.8095 86.6143 71.5565 92.2732 67.8758 92.165L67.8662 92.1551Z" fill="#FCCE0B"/>
</svg>
