<svg width="86" height="87" viewBox="0 0 86 87" fill="none" xmlns="http://www.w3.org/2000/svg">
<path d="M72.1608 0.747559H13.826C6.19819 0.747559 0.0146484 6.93111 0.0146484 14.5589V72.8937C0.0146484 80.5215 6.19819 86.7051 13.826 86.7051H72.1608C79.7886 86.7051 85.9722 80.5215 85.9722 72.8937V14.5589C85.9722 6.93111 79.7886 0.747559 72.1608 0.747559Z" fill="#AC4781"/>
<path d="M71.0635 2.375H14.9232C7.58823 2.375 1.64209 8.32114 1.64209 15.6561V71.7964C1.64209 79.1313 7.58823 85.0775 14.9232 85.0775H71.0635C78.3984 85.0775 84.3445 79.1313 84.3445 71.7964V15.6561C84.3445 8.32114 78.3984 2.375 71.0635 2.375Z" fill="white"/>
<g clip-path="url(#clip0_1135_30017)">
<path fill-rule="evenodd" clip-rule="evenodd" d="M35.5778 36.2445C36.778 37.594 38.2226 38.5414 39.9135 39.0855C40.4264 39.2243 40.9552 39.3336 41.4998 39.4134C42.1237 39.4046 42.7402 39.4046 43.3504 39.4134C48.0743 38.6113 50.8417 35.7516 51.6518 30.8355C51.7977 28.6555 51.3388 26.6339 50.277 24.7708C50.0317 24.372 49.7504 24.0081 49.431 23.6781C47.4916 21.4194 45.0593 20.3267 42.1343 20.3999C41.6996 20.4032 41.2597 20.4032 40.8124 20.3999C35.8665 21.7943 33.3105 25.1271 33.1455 30.3984C33.2862 32.197 33.8509 33.8175 34.8375 35.261C35.0469 35.6227 35.2944 35.9505 35.5778 36.2445Z" fill="black" fill-opacity="0.12"/>
<path fill-rule="evenodd" clip-rule="evenodd" d="M30.2372 35.37C29.6831 34.3527 28.89 33.6063 27.8579 33.1299C27.0743 32.9136 26.334 33.0043 25.6371 33.4031C25.3495 33.496 25.0671 33.6238 24.7911 33.7856L23.3635 35.2607C21.8999 37.5937 21.0359 40.143 20.7726 42.9098C20.6447 43.36 20.5738 43.8332 20.5611 44.3304C20.4955 44.6407 20.4247 44.9499 20.3496 45.2592C20.3983 46.141 20.3983 47.0152 20.3496 47.8817C20.4469 48.4663 20.5526 49.0487 20.6669 49.6301C20.632 49.6661 20.596 49.7033 20.5611 49.7393C20.7144 49.9535 20.7504 50.1721 20.6669 50.395C20.9799 51.5533 21.3849 52.6274 21.883 53.6185C22.2087 54.0818 22.5788 54.4829 22.9934 54.8205C23.556 55.3876 24.2433 55.6422 25.0555 55.5854C25.9385 55.4783 26.6967 55.168 27.3291 54.6566C27.8018 54.0949 28.2777 53.53 28.7567 52.9629C30.3134 50.2147 31.1943 47.2283 31.4005 44.0025C31.7442 41.027 31.3571 38.1499 30.2372 35.37Z" fill="black" fill-opacity="0.12"/>
<path fill-rule="evenodd" clip-rule="evenodd" d="M65.505 37.9929C65.0926 37.5601 64.6347 37.1777 64.1303 36.8455C60.5951 34.9201 57.2111 35.1026 53.9783 37.3919C50.7127 39.9838 47.4345 42.5517 44.1435 45.0956C40.6569 47.8077 37.1672 50.522 33.6742 53.2364C32.4729 54.3324 31.6089 55.6611 31.0834 57.2248C30.2321 59.867 30.4964 62.4175 31.8765 64.8739C32.4803 65.8836 33.2206 66.7763 34.0972 67.5511C37.5077 69.8567 40.9276 70.0021 44.355 67.9882C47.8321 65.2509 51.3218 62.5377 54.8243 59.8474C58.24 57.2073 61.66 54.5673 65.082 51.9251C66.6122 50.6018 67.6169 48.9452 68.0959 46.9532C68.8309 43.4314 67.9669 40.4449 65.505 37.9929Z" fill="black" fill-opacity="0.12"/>
</g>
<path opacity="0.995" fill-rule="evenodd" clip-rule="evenodd" d="M40.6836 18.9937C42.5649 19.759 44.1225 20.9601 45.3564 22.5971C45.6135 22.9741 45.8104 23.3745 45.9473 23.7983C41.8108 26.965 37.6571 30.1136 33.4863 33.2437C33.3085 33.4013 33.2369 33.6016 33.2715 33.8442C32.269 32.4019 31.696 30.7821 31.5527 28.985C31.7203 23.7177 34.3164 20.3872 39.3408 18.9937C39.7949 18.9966 40.2425 18.9966 40.6836 18.9937Z" fill="#FFCF38"/>
<path opacity="0.999" fill-rule="evenodd" clip-rule="evenodd" d="M48.0957 22.2696C47.9827 22.2532 47.8753 22.2714 47.7734 22.3242C47.1615 22.8165 46.5527 23.3078 45.9473 23.7983C45.8104 23.3745 45.6135 22.9741 45.3564 22.5971C44.1225 20.9602 42.5649 19.759 40.6836 18.9937C43.6545 18.9204 46.1252 20.0123 48.0957 22.2696Z" fill="#FFAF46"/>
<path fill-rule="evenodd" clip-rule="evenodd" d="M48.0958 22.2695C48.4198 22.5993 48.7063 22.9632 48.9552 23.3614C48.1008 23.9388 47.2773 24.5576 46.4845 25.2177C42.5326 28.1604 38.5937 31.127 34.6681 34.1172C34.4189 34.3318 34.2041 34.5685 34.0236 34.8269C33.7352 34.5332 33.4845 34.2056 33.2716 33.8442C33.237 33.6015 33.3087 33.4013 33.4865 33.2436C37.6572 30.1135 41.8109 26.965 45.9474 23.7982C46.5528 23.3077 47.1616 22.8164 47.7736 22.3241C47.8754 22.2713 47.9828 22.2531 48.0958 22.2695Z" fill="#FF9622"/>
<path fill-rule="evenodd" clip-rule="evenodd" d="M48.9551 23.3618C50.0339 25.2236 50.4994 27.2437 50.3516 29.4222C49.5288 34.3351 46.718 37.1924 41.9189 37.994C41.2996 37.9854 40.673 37.9854 40.0391 37.994C39.4861 37.9143 38.9489 37.8051 38.4277 37.6664C38.4158 37.599 38.38 37.5444 38.3203 37.5026C44.1319 36.4049 47.0144 32.856 46.9678 26.8561C46.9438 26.2561 46.7827 25.7102 46.4844 25.2181C47.2771 24.558 48.1006 23.9392 48.9551 23.3618Z" fill="#FFAE46"/>
<path opacity="0.998" fill-rule="evenodd" clip-rule="evenodd" d="M46.4844 25.2178C46.7827 25.7099 46.9438 26.2558 46.9678 26.8557C47.0144 32.8557 44.1319 36.4045 38.3203 37.5023C38.38 37.5441 38.4158 37.5987 38.4277 37.6661C36.7103 37.1217 35.2421 36.1754 34.0234 34.827C34.2039 34.5685 34.4188 34.3319 34.668 34.1172C38.5936 31.127 42.5324 28.1605 46.4844 25.2178Z" fill="#FFCF38"/>
<path opacity="0.998" fill-rule="evenodd" clip-rule="evenodd" d="M21.2402 53.3903C22.568 52.6045 23.5885 51.5126 24.3018 50.1144C25.3114 48.1561 25.938 46.0814 26.1816 43.8903C23.7124 43.5525 21.2417 43.225 18.7695 42.9075C18.7829 42.4108 18.8545 41.9376 18.9844 41.488C21.4907 41.8156 23.9972 42.1432 26.5039 42.4707C26.8984 39.3577 26.4865 36.3729 25.2686 33.5167C25.0597 33.1225 24.8091 32.7586 24.5166 32.4248C24.3628 32.213 24.1658 32.0675 23.9258 31.988C24.6334 31.5894 25.3854 31.4983 26.1816 31.715C27.2302 32.1911 28.0358 32.9372 28.5986 33.9535C29.7358 36.7311 30.1297 39.6065 29.7803 42.5799C29.571 45.8034 28.6759 48.788 27.0947 51.534C26.6082 52.1009 26.1248 52.6651 25.6445 53.2265C25.002 53.7381 24.2322 54.0475 23.335 54.1546C22.51 54.212 21.8118 53.9572 21.2402 53.3903Z" fill="#DD7917"/>
<path opacity="0.991" fill-rule="evenodd" clip-rule="evenodd" d="M23.9258 31.9883C24.1658 32.0678 24.3628 32.2133 24.5166 32.4251C24.8091 32.7589 25.0597 33.1228 25.2686 33.517C26.4865 36.3732 26.8984 39.358 26.5039 42.471C23.9972 42.1435 21.4907 41.8159 18.9844 41.4883C19.2523 38.7239 20.1296 36.1759 21.6162 33.8446C22.1025 33.3503 22.5859 32.8589 23.0664 32.3705C23.3468 32.2087 23.6332 32.0813 23.9258 31.9883Z" fill="#FE9421"/>
<path opacity="0.997" fill-rule="evenodd" clip-rule="evenodd" d="M64.4238 36.5743C66.0934 40.794 65.3414 44.4884 62.168 47.6576C58.672 50.3566 55.163 53.0319 51.6406 55.6835C51.6049 55.6835 51.569 55.6835 51.5332 55.6835C48.6384 51.6488 45.7021 47.6449 42.7246 43.672C46.0679 41.1295 49.398 38.5634 52.7148 35.9737C55.9984 33.6856 59.4359 33.5037 63.0273 35.4277C63.5396 35.7597 64.0052 36.1419 64.4238 36.5743Z" fill="#F8F0EE"/>
<path opacity="0.999" fill-rule="evenodd" clip-rule="evenodd" d="M64.4238 36.5742C66.925 39.0242 67.8024 42.0089 67.0557 45.5282C66.5686 47.5185 65.5481 49.1747 63.9941 50.4966C60.5176 53.1365 57.0444 55.7754 53.5742 58.4133C52.9297 57.5034 52.2852 56.5933 51.6406 55.6834C55.163 53.0318 58.672 50.3565 62.168 47.6576C65.3414 44.4884 66.0934 40.794 64.4238 36.5742Z" fill="#CDCCCC"/>
<path opacity="0.99" fill-rule="evenodd" clip-rule="evenodd" d="M18.7695 42.9077C21.2417 43.2251 23.7124 43.5527 26.1816 43.8905C25.938 46.0816 25.3114 48.1563 24.3018 50.1146C23.5885 51.5127 22.568 52.6047 21.2402 53.3905C20.8191 53.053 20.4431 52.6525 20.1123 52.1893C19.6063 51.1992 19.1946 50.1255 18.877 48.9681C18.9613 48.7451 18.9255 48.5267 18.7695 48.3129C18.8053 48.2765 18.8411 48.2401 18.877 48.2037C18.7608 47.6228 18.6533 47.0403 18.5547 46.4566C18.6044 45.5911 18.6044 44.7175 18.5547 43.8359C18.6313 43.5273 18.7029 43.2178 18.7695 42.9077Z" fill="#FE9421"/>
<path opacity="0.997" fill-rule="evenodd" clip-rule="evenodd" d="M42.7244 43.6719C45.702 47.6448 48.6382 51.6487 51.533 55.6834C48.1938 58.3102 44.8279 60.9126 41.4354 63.4908C37.6505 65.9908 33.9444 65.8633 30.3172 63.1087C30.2653 63.2122 30.2475 63.3214 30.2635 63.4362C28.8615 60.9813 28.593 58.4333 29.4578 55.7926C29.9918 54.2304 30.8691 52.9018 32.0897 51.8069C35.6378 49.0943 39.1827 46.3825 42.7244 43.6719Z" fill="#E83234"/>
<path opacity="0.999" fill-rule="evenodd" clip-rule="evenodd" d="M51.533 55.6836C51.5688 55.6836 51.6047 55.6836 51.6404 55.6836C52.285 56.5935 52.9295 57.5036 53.574 58.4135C50.0159 61.1015 46.471 63.8132 42.9393 66.5485C39.4575 68.5614 35.9841 68.4159 32.5193 66.1118C31.6288 65.3372 30.8769 64.4454 30.2635 63.4365C30.2475 63.3216 30.2653 63.2124 30.3172 63.1089C33.9444 65.8636 37.6505 65.991 41.4354 63.4911C44.8279 60.9129 48.1938 58.3104 51.533 55.6836Z" fill="#BF161C"/>
<defs>
<clipPath id="clip0_1135_30017">
<rect width="48" height="49" fill="white" transform="translate(20.3496 20.3965)"/>
</clipPath>
</defs>
</svg>
