<svg width="87" height="87" viewBox="0 0 87 87" fill="none" xmlns="http://www.w3.org/2000/svg">
<path d="M72.944 0.856445H14.6092C6.9814 0.856445 0.797852 7.03999 0.797852 14.6678V73.0026C0.797852 80.6304 6.9814 86.814 14.6092 86.814H72.944C80.5718 86.814 86.7554 80.6304 86.7554 73.0026V14.6678C86.7554 7.03999 80.5718 0.856445 72.944 0.856445Z" fill="#AC4781"/>
<path d="M71.8467 2.48389H15.7064C8.37144 2.48389 2.42529 8.43003 2.42529 15.765V71.9053C2.42529 79.2402 8.37144 85.1863 15.7064 85.1863H71.8467C79.1816 85.1863 85.1278 79.2402 85.1278 71.9053V15.765C85.1278 8.43003 79.1816 2.48389 71.8467 2.48389Z" fill="white"/>
<path d="M58.6022 24.6325L56.6704 24.9834L57.4533 29.2943L59.3852 28.9434L58.6022 24.6325Z" fill="#DCD9C8"/>
<path d="M61.15 21.5588C61.5482 23.7515 60.0955 25.8569 57.8965 26.2563C55.6976 26.6556 53.5984 25.2017 53.1991 23.0028C52.7997 20.8039 54.2536 18.7047 56.4525 18.3053C58.6515 17.906 60.7506 19.3599 61.15 21.5588Z" fill="#F1EEDB"/>
<path d="M59.3855 21.8793C59.6066 23.0968 58.7983 24.2638 57.5808 24.4849C56.3633 24.706 55.1963 23.8977 54.9752 22.6802C54.7541 21.4628 55.5624 20.2957 56.7799 20.0746C57.9973 19.8535 59.1644 20.6618 59.3855 21.8793Z" fill="#DCD9C8"/>
<path opacity="0.1" d="M60.8379 20.5763C60.7663 22.9378 59.0577 25.0126 56.6352 25.4526C55.9581 25.5756 55.2935 25.5551 54.6594 25.42C55.2968 25.9267 56.0737 26.2475 56.9049 26.3019L57.4475 29.2897L59.3794 28.9389L58.8367 25.9511C60.4846 25.2026 61.4822 23.4173 61.1437 21.5538C61.0806 21.206 60.9699 20.8796 60.8305 20.5712L60.8379 20.5763Z" fill="#1D1D1B"/>
<path d="M35.7508 49.4194L35.6266 49.4419L35.5334 49.4589L35.5023 49.4645C29.3404 50.5836 23.9079 46.0391 19.3575 35.9638L17.4307 30.6544C16.6197 28.4147 16.8393 25.9494 18.0238 23.8863C19.2083 21.8232 21.2335 20.3966 23.5753 19.9713L23.6623 19.9555L23.9229 21.3904L23.8359 21.4062C21.9165 21.7548 20.255 22.9228 19.2863 24.6195C18.3164 26.3099 18.1381 28.3314 18.799 30.1684L20.7043 35.4305C24.9223 44.7705 29.8223 49.0331 35.2451 48.0482L35.3694 48.0257L35.4687 48.0076L35.4998 48.002C40.9226 47.0171 44.0046 41.3049 44.6774 31.0188L44.6085 25.481C44.5874 23.5278 43.7097 21.6981 42.2011 20.4578C40.6988 19.2163 38.7315 18.7009 36.8121 19.0495L36.7252 19.0653L36.4646 17.6304L36.5515 17.6146C38.8933 17.1893 41.2908 17.8126 43.1314 19.3263C44.9657 20.8411 46.0393 23.078 46.0665 25.4536L46.1332 31.0496C45.4139 42.1397 41.9263 48.3042 35.7644 49.4233L35.7508 49.4194Z" fill="#F1EEDB"/>
<path d="M26.0577 18.7692C25.6353 18.8459 25.2903 19.101 25.0824 19.4404L22.753 19.8634L23.1016 21.7828L25.4372 21.3586C25.75 21.597 26.1554 21.7094 26.5716 21.6339C27.3605 21.4906 27.8903 20.7335 27.7459 19.9384C27.6015 19.1433 26.8455 18.6197 26.0504 18.7641L26.0577 18.7692Z" fill="#485678"/>
<path d="M33.7916 17.3639C34.214 17.2872 34.6268 17.4047 34.9407 17.6493L37.2701 17.2263L37.6187 19.1457L35.2831 19.5699C35.0741 19.903 34.7341 20.1508 34.3179 20.2264C33.529 20.3697 32.7668 19.8472 32.6224 19.0521C32.478 18.257 33.0016 17.501 33.7967 17.3566L33.7916 17.3639Z" fill="#485678"/>
<path d="M59.3311 27.0157L58.9274 27.089L58.0453 27.2492L56.8216 27.4715L57.6045 31.7824L58.0083 31.709L63.4551 60.852C63.6131 61.7216 63.4316 62.5951 62.9346 63.3206C62.4375 64.0462 61.6847 64.5294 60.8151 64.6873L60.2312 64.7934C58.4484 65.1171 56.7382 63.9327 56.4145 62.1499L54.6185 52.2609C54.1232 49.534 51.4956 47.7141 48.7686 48.2094L48.6879 48.224C45.961 48.7193 44.1399 51.3407 44.6363 54.0739L46.4323 63.9628C46.7561 65.7456 45.5716 67.4558 43.7889 67.7795L43.1925 67.8878C41.4098 68.2116 39.6996 67.0272 39.3758 65.2444L38.2894 59.2626C38.5204 59.0153 38.66 58.6884 38.6776 58.3258C38.8479 53.5402 39.9165 49.2845 41.8394 45.6692C42.9019 44.2058 43.652 42.9659 44.0717 41.9913L42.4704 41.3004C42.0959 42.1705 41.3932 43.3184 40.3867 44.7011C39.1644 46.3796 37.3747 47.5131 35.3435 47.882C33.3123 48.2509 31.2332 47.8265 29.5038 46.6776C28.0743 45.7309 27.014 44.9096 26.3574 44.2268L25.1013 45.4367C25.8369 46.2014 26.974 47.0921 28.477 48.0896C31.5545 50.7967 34.0451 54.4061 35.8874 58.8262C36.0251 59.1605 36.2769 59.4163 36.5801 59.5666L37.6665 65.5484C38.1618 68.2754 40.7894 70.0953 43.5163 69.6L44.1127 69.4917C46.8396 68.9965 48.6606 66.375 48.1642 63.6419L46.3682 53.7529C46.0445 51.9701 47.2289 50.26 49.0117 49.9362L49.0924 49.9215C50.8752 49.5978 52.5854 50.7822 52.9091 52.565L54.7051 62.4539C55.2004 65.1809 57.8218 67.0019 60.555 66.5055L61.1389 66.3995C62.4681 66.1581 63.6169 65.4169 64.3833 64.3023C65.151 63.194 65.4336 61.853 65.1859 60.5248L59.7414 31.3943L60.1265 31.3243L59.3435 27.0134L59.3311 27.0157ZM32.3876 49.6252C33.4582 49.7965 34.5554 49.7961 35.6486 49.5976C36.7419 49.399 37.7691 49.0136 38.7111 48.4767C37.7817 51.0967 37.2024 53.9482 36.9945 57.0081C35.7228 54.2105 34.1716 51.7459 32.3876 49.6252Z" fill="#A18D81"/>
<path opacity="0.2" d="M46.4367 63.9558C46.7605 65.7386 45.576 67.4487 43.7933 67.7725L43.1969 67.8808C41.4142 68.2046 39.704 67.0201 39.3802 65.2374L39.1275 63.846C38.5143 63.7905 37.9101 63.7141 37.3076 63.6118L37.6596 65.5499C38.1548 68.2768 40.7825 70.0967 43.5094 69.6014L44.1057 69.4931C46.8327 68.9979 48.6537 66.3764 48.1573 63.6433L48.0073 62.8172C47.4556 62.9944 46.8954 63.1603 46.3171 63.2974L46.4356 63.9496L46.4367 63.9558Z" fill="#1D1D1B"/>
<path opacity="0.2" d="M62.792 47.7678C62.4552 48.8107 62.0496 49.8276 61.5852 50.8038L63.4614 60.8515C63.6193 61.7211 63.4379 62.5946 62.9408 63.3202C62.4438 64.0457 61.691 64.5289 60.8213 64.6868L60.2374 64.7929C58.4547 65.1166 56.7445 63.9322 56.4207 62.1494L55.7495 58.4535C55.2502 58.8842 54.734 59.2924 54.1947 59.6791L54.699 62.4557C55.1942 65.1826 57.8157 67.0037 60.5488 66.5073L61.1327 66.4012C62.462 66.1598 63.6107 65.4186 64.3772 64.3041C65.1448 63.1958 65.4274 61.8547 65.1798 60.5266L62.7982 47.7667L62.792 47.7678Z" fill="#1D1D1B"/>
<path d="M66.9105 61.7892L61.4724 32.6998L61.8177 32.6134L61.0408 28.2975L60.7819 28.3838L60.6092 27.2617C61.2135 27.0027 61.6451 26.5711 62.0766 26.1395C62.0766 26.1395 62.0766 26.0532 62.163 26.0532C62.2493 25.8806 62.3356 25.7942 62.4219 25.6216C62.4219 25.5353 62.5082 25.5353 62.5082 25.449C62.5946 25.2763 62.5946 25.19 62.6809 25.0174C62.6809 24.9311 62.7672 24.8447 62.7672 24.7584C62.7672 24.5858 62.8535 24.4995 62.8535 24.3268C62.8535 24.2405 62.8535 24.1542 62.8535 24.0679C62.8535 23.8952 62.8535 23.8089 62.8535 23.6363C62.8535 23.55 62.8535 23.3773 62.8535 23.291C62.8535 23.2047 62.8535 23.032 62.8535 22.9457C62.8535 22.8594 62.8535 22.8594 62.8535 22.7731C62.8535 22.6004 62.7672 22.4278 62.6809 22.2552C62.6809 22.1689 62.5946 22.0825 62.5946 21.9962L62.5946 21.9099C61.8177 20.2698 60.0913 19.234 58.1923 19.5793C56.0343 20.0109 54.5669 22.0825 54.9122 24.2405C55.2575 26.0532 56.7249 27.348 58.5376 27.5206L58.6239 27.5206L58.8828 28.7291L58.6239 28.8154L59.4008 33.1314L59.746 33.045L65.1841 62.2208C65.3568 63.084 65.1841 63.9472 64.6662 64.7241C64.1483 65.4146 63.4577 65.9325 62.5082 66.1052L61.904 66.1915C61.6451 66.1915 61.4724 66.2778 61.2135 66.2778C59.6597 66.2778 58.3649 65.1557 58.0197 63.6019L57.3291 59.8902L56.207 53.6753C55.689 50.913 53.0995 49.1003 50.3373 49.6183L50.251 49.6183C47.4888 50.1362 45.6761 52.7257 46.194 55.4879L48.0067 65.4146C48.1793 66.2778 47.9203 67.141 47.4887 67.8316C46.9708 68.5221 46.2803 69.04 45.4171 69.2127L44.8129 69.299C43.0002 69.6442 41.3601 68.4358 41.0148 66.6231L40.7559 65.242L39.8927 60.6671C40.1516 60.4081 40.238 60.0629 40.238 59.7176C40.4106 54.97 41.4464 50.7404 43.3454 47.115C43.777 46.5971 44.2086 45.9929 44.5539 45.3886C44.9855 44.6981 45.4171 44.0075 45.5897 43.4033L45.5034 43.317C46.6256 40.4685 47.4024 36.8431 47.6614 32.4408L47.5751 26.8301C47.5751 24.4131 46.4529 22.2552 44.6402 20.7014C43.0002 19.3203 40.9285 18.7161 38.8569 18.8887L39.0295 18.5435L36.6989 18.9751C36.3536 18.7161 36.0083 18.6298 35.5767 18.7161C34.7999 18.8887 34.282 19.5793 34.3683 20.4425C34.5409 21.2193 35.3178 21.7373 36.0947 21.6509C36.5262 21.5646 36.8715 21.3057 37.0442 20.9604L39.3748 20.5288L39.3748 20.3562C41.0148 20.2698 42.6549 20.7877 43.9497 21.8236C45.4171 23.032 46.3666 24.9311 46.3666 26.8301L46.4529 32.3545C46.194 36.5841 45.5034 40.0369 44.3813 42.7128L44.2086 42.6264C43.8634 43.4896 43.1728 44.6118 42.137 45.9929C40.9285 47.6329 39.1158 48.8414 37.1305 49.1867C35.0588 49.5319 32.9872 49.1003 31.2608 47.9782C29.7934 47.0287 28.7575 46.2518 28.1533 45.5613L28.067 45.6476C26.0817 43.5759 24.269 40.5548 22.5426 36.7567L20.6436 31.4913C19.8667 29.5923 20.0393 27.6069 21.0752 25.8806C21.9384 24.4131 23.2331 23.3773 24.8732 22.8594L24.8732 23.032L27.2038 22.6004C27.5491 22.8594 27.8944 22.9457 28.326 22.8594C29.1028 22.6868 29.6207 21.9962 29.5344 21.133C29.4481 20.2698 28.6712 19.8382 27.808 19.9246C27.3764 20.0109 27.0312 20.2698 26.8585 20.6151L24.5279 21.133L24.6142 21.392C22.6289 21.9962 20.9025 23.291 19.8667 25.1037C18.6582 27.1753 18.4856 29.5923 19.2625 31.8366L21.1615 37.1883C22.9742 41.159 24.9595 44.3528 27.0312 46.5971L26.9449 46.6834C27.4628 47.2013 28.1533 47.8056 29.0165 48.4098C29.4481 48.7551 29.7934 49.014 30.225 49.273C30.225 49.273 30.225 49.273 30.3113 49.273C33.4188 51.9489 35.922 55.5743 37.7347 59.9765C37.9074 60.3218 38.1663 60.5808 38.4253 60.7534L39.2021 64.8104L39.5474 66.7094C40.0653 69.4716 42.6549 71.2843 45.4171 70.7664L46.0213 70.6801C48.7835 70.1622 50.5962 67.5726 50.0783 64.8104L48.2656 54.8837C47.9203 53.071 49.1288 51.431 50.9415 51.0857L51.0278 51.0857C52.8405 50.7404 54.4806 51.9489 54.8259 53.7616L56.1206 60.8397L56.6386 63.6019C57.1565 66.3641 59.746 68.1768 62.5082 67.6589L63.1125 67.5726C63.4577 67.4863 63.803 67.4 64.062 67.3136C65.0115 66.9684 65.7884 66.3641 66.3926 65.5009C66.9105 64.4651 67.1695 63.1703 66.9105 61.7892ZM34.1093 50.913C35.1451 51.0857 36.2673 51.0857 37.3894 50.913C38.5116 50.7404 39.5474 50.3088 40.4106 49.7909C39.4611 52.3805 38.9432 55.229 38.6842 58.3365C37.4758 55.4879 35.922 53.071 34.1093 50.913Z" fill="#1D1D1B" fill-opacity="0.12"/>
<path d="M58.6013 24.6325L56.6694 24.9834L57.4524 29.2943L59.3842 28.9434L58.6013 24.6325Z" fill="#DCD9C8"/>
<path d="M61.149 21.5588C61.5473 23.7515 60.0945 25.8569 57.8956 26.2563C55.6966 26.6556 53.5974 25.2017 53.1981 23.0028C52.7987 20.8039 54.2526 18.7047 56.4515 18.3053C58.6505 17.906 60.7497 19.3599 61.149 21.5588Z" fill="#F1EEDB"/>
<path d="M59.3845 21.8793C59.6056 23.0968 58.7973 24.2638 57.5799 24.4849C56.3624 24.706 55.1953 23.8977 54.9742 22.6802C54.7531 21.4628 55.5614 20.2957 56.7789 20.0746C57.9964 19.8535 59.1634 20.6618 59.3845 21.8793Z" fill="#DCD9C8"/>
<path opacity="0.1" d="M60.8369 20.5768C60.7653 22.9383 59.0567 25.0131 56.6342 25.4531C55.9571 25.576 55.2925 25.5556 54.6584 25.4205C55.2958 25.9271 56.0727 26.248 56.9039 26.3024L57.4466 29.2902L59.3784 28.9394L58.8358 25.9516C60.4836 25.2031 61.4812 23.4178 61.1428 21.5543C61.0796 21.2064 60.969 20.88 60.8296 20.5717L60.8369 20.5768Z" fill="#1D1D1B"/>
<path d="M35.7498 49.4194L35.6256 49.4419L35.5324 49.4589L35.5014 49.4645C29.3394 50.5836 23.9069 46.0391 19.3565 35.9638L17.4297 30.6544C16.6187 28.4147 16.8383 25.9494 18.0228 23.8863C19.2074 21.8232 21.2326 20.3966 23.5744 19.9713L23.6613 19.9555L23.9219 21.3904L23.835 21.4062C21.9156 21.7548 20.2541 22.9228 19.2853 24.6195C18.3154 26.3099 18.1371 28.3314 18.798 30.1684L20.7033 35.4305C24.9213 44.7705 29.8214 49.0331 35.2441 48.0482L35.3684 48.0257L35.4678 48.0076L35.4988 48.002C40.9216 47.0171 44.0036 41.3049 44.6765 31.0188L44.6075 25.481C44.5864 23.5278 43.7087 21.6981 42.2002 20.4578C40.6978 19.2163 38.7306 18.7009 36.8112 19.0495L36.7242 19.0653L36.4636 17.6304L36.5506 17.6146C38.8924 17.1893 41.2899 17.8126 43.1304 19.3263C44.9647 20.8411 46.0383 23.078 46.0655 25.4536L46.1322 31.0496C45.4129 42.1397 41.9254 48.3042 35.7634 49.4233L35.7498 49.4194Z" fill="#F1EEDB"/>
<path d="M26.0568 18.7687C25.6344 18.8454 25.2893 19.1005 25.0814 19.4399L22.7521 19.8629L23.1007 21.7823L25.4362 21.3582C25.749 21.5965 26.1544 21.709 26.5706 21.6334C27.3595 21.4901 27.8893 20.733 27.7449 19.9379C27.6005 19.1428 26.8445 18.6192 26.0494 18.7636L26.0568 18.7687Z" fill="#485678"/>
<path d="M33.7907 17.3644C34.213 17.2877 34.6258 17.4052 34.9397 17.6498L37.2691 17.2268L37.6177 19.1462L35.2821 19.5703C35.0731 19.9035 34.7331 20.1513 34.3169 20.2269C33.5281 20.3701 32.7658 19.8477 32.6214 19.0526C32.477 18.2575 33.0006 17.5015 33.7957 17.3571L33.7907 17.3644Z" fill="#485678"/>
<path d="M59.3297 27.0157L58.9259 27.089L58.0438 27.2492L56.8201 27.4715L57.6031 31.7824L58.0068 31.709L63.4536 60.852C63.6116 61.7216 63.4302 62.5951 62.9331 63.3206C62.436 64.0462 61.6832 64.5294 60.8136 64.6873L60.2297 64.7934C58.447 65.1171 56.7368 63.9327 56.413 62.1499L54.617 52.2609C54.1217 49.534 51.4941 47.7141 48.7672 48.2094L48.6864 48.224C45.9595 48.7193 44.1385 51.3407 44.6348 54.0739L46.4308 63.9628C46.7546 65.7456 45.5701 67.4558 43.7874 67.7795L43.1911 67.8878C41.4083 68.2116 39.6982 67.0272 39.3744 65.2444L38.288 59.2626C38.519 59.0153 38.6585 58.6884 38.6761 58.3258C38.8464 53.5402 39.9151 49.2845 41.8379 45.6692C42.9004 44.2058 43.6505 42.9659 44.0703 41.9913L42.469 41.3004C42.0944 42.1705 41.3917 43.3184 40.3852 44.7011C39.1629 46.3796 37.3732 47.5131 35.342 47.882C33.3108 48.2509 31.2318 47.8265 29.5024 46.6776C28.0728 45.7309 27.0125 44.9096 26.3559 44.2268L25.0998 45.4367C25.8354 46.2014 26.9725 47.0921 28.4755 48.0896C31.553 50.7967 34.0437 54.4061 35.8859 58.8262C36.0236 59.1605 36.2754 59.4163 36.5786 59.5666L37.665 65.5484C38.1603 68.2754 40.7879 70.0953 43.5149 69.6L44.1112 69.4917C46.8381 68.9965 48.6591 66.375 48.1628 63.6419L46.3668 53.7529C46.043 51.9701 47.2275 50.26 49.0102 49.9362L49.091 49.9215C50.8737 49.5978 52.5839 50.7822 52.9077 52.565L54.7037 62.4539C55.1989 65.1809 57.8204 67.0019 60.5535 66.5055L61.1374 66.3995C62.4667 66.1581 63.6154 65.4169 64.3819 64.3023C65.1495 63.194 65.4321 61.853 65.1845 60.5248L59.7399 31.3943L60.125 31.3243L59.3421 27.0134L59.3297 27.0157ZM32.3862 49.6252C33.4568 49.7965 34.5539 49.7961 35.6472 49.5976C36.7404 49.399 37.7677 49.0136 38.7096 48.4767C37.7802 51.0967 37.2009 53.9482 36.9931 57.0081C35.7214 54.2105 34.1701 51.7459 32.3862 49.6252Z" fill="#EB5468"/>
<path opacity="0.2" d="M46.4357 63.9558C46.7595 65.7386 45.575 67.4487 43.7923 67.7725L43.196 67.8808C41.4132 68.2046 39.703 67.0201 39.3793 65.2374L39.1266 63.846C38.5133 63.7905 37.9091 63.7141 37.3066 63.6118L37.6586 65.5499C38.1539 68.2768 40.7815 70.0967 43.5084 69.6014L44.1048 69.4931C46.8317 68.9979 48.6527 66.3764 48.1563 63.6433L48.0063 62.8172C47.4546 62.9944 46.8944 63.1603 46.3161 63.2974L46.4346 63.9496L46.4357 63.9558Z" fill="#1D1D1B"/>
<path opacity="0.2" d="M62.791 47.7678C62.4542 48.8107 62.0486 49.8276 61.5843 50.8038L63.4604 60.8515C63.6183 61.7211 63.4369 62.5946 62.9399 63.3202C62.4428 64.0457 61.69 64.5289 60.8203 64.6868L60.2365 64.7929C58.4537 65.1166 56.7435 63.9322 56.4197 62.1494L55.7485 58.4535C55.2492 58.8842 54.7331 59.2924 54.1937 59.6791L54.698 62.4557C55.1932 65.1826 57.8147 67.0037 60.5478 66.5073L61.1317 66.4012C62.461 66.1598 63.6097 65.4186 64.3762 64.3041C65.1438 63.1958 65.4264 61.8547 65.1788 60.5266L62.7972 47.7667L62.791 47.7678Z" fill="#1D1D1B"/>
</svg>
