<svg width="86" height="87" viewBox="0 0 86 87" fill="none" xmlns="http://www.w3.org/2000/svg">
<path d="M72.1608 0.897949H13.826C6.19819 0.897949 0.0146484 7.0815 0.0146484 14.7093V73.0441C0.0146484 80.6719 6.19819 86.8555 13.826 86.8555H72.1608C79.7886 86.8555 85.9722 80.6719 85.9722 73.0441V14.7093C85.9722 7.0815 79.7886 0.897949 72.1608 0.897949Z" fill="#AC4781"/>
<path d="M71.0635 2.52539H14.9232C7.58823 2.52539 1.64209 8.47153 1.64209 15.8065V71.9468C1.64209 79.2817 7.58823 85.2279 14.9232 85.2279H71.0635C78.3984 85.2279 84.3445 79.2817 84.3445 71.9468V15.8065C84.3445 8.47153 78.3984 2.52539 71.0635 2.52539Z" fill="white"/>
<path d="M59.967 24.5222C59.967 24.4222 59.967 24.3222 59.867 24.2222C59.867 24.1222 59.767 24.1222 59.767 24.0222C59.767 23.9222 59.667 23.9222 59.667 23.8222C59.667 23.7222 59.567 23.7222 59.567 23.6222C59.467 23.5222 59.467 23.5222 59.367 23.4222L59.267 23.3222C57.867 21.9222 54.467 20.7222 52.467 20.0222C49.967 19.1222 45.367 17.3222 43.967 18.5222L43.867 18.6222C43.867 18.6222 43.867 18.6222 43.767 18.7222C43.667 18.8222 43.667 18.9222 43.567 19.0222C43.467 19.4222 43.467 19.7222 43.567 20.0222C44.167 21.3222 46.967 22.3222 51.067 23.9222C52.567 24.4222 53.767 24.9222 54.967 25.3222C53.867 24.9222 52.567 24.4222 51.067 23.9222C48.167 22.8222 45.967 22.0222 44.667 21.2222C44.667 21.3222 44.567 21.4222 44.567 21.5222C44.467 21.7222 44.467 21.9222 44.367 22.1222C44.267 22.2222 44.267 22.4222 44.167 22.5222C44.167 22.6222 44.067 22.7222 44.067 22.7222C43.967 22.8222 43.967 23.0222 43.867 23.2222C43.867 23.3222 43.767 23.4222 43.767 23.4222C43.767 23.5222 43.667 23.6222 43.667 23.7222C43.567 23.8222 43.567 24.0222 43.467 24.2222C40.767 30.8222 35.867 43.1222 32.667 51.6222C32.167 52.8222 31.767 54.0222 31.467 55.0222C31.367 55.4222 31.267 55.7222 31.167 56.0222C27.967 66.4222 34.467 68.1222 34.467 68.1222C34.467 68.1222 40.867 71.3222 45.367 60.2222C45.367 60.2222 45.367 60.2222 45.367 60.1222C48.267 52.8222 52.867 39.9222 55.667 31.7222C55.667 31.6222 55.767 31.5222 55.767 31.3222C55.867 31.0222 55.967 30.8222 56.067 30.5222C56.267 29.8222 56.567 29.2222 56.767 28.6222C56.767 28.5222 56.867 28.3222 56.867 28.2222C57.067 27.6222 57.267 27.1222 57.367 26.6222C57.467 26.4222 57.467 26.3222 57.567 26.1222C57.567 26.0222 57.667 26.0222 57.667 25.9222C57.467 25.9222 57.267 25.8222 57.067 25.8222C56.967 25.8222 56.967 25.8222 56.867 25.7222C58.467 26.1222 59.567 25.9222 59.867 24.9222C59.967 24.9222 59.967 24.7222 59.967 24.6222V24.5222ZM55.467 25.4222C55.667 25.5222 55.867 25.5222 56.067 25.6222C55.867 25.6222 55.667 25.5222 55.467 25.4222Z" fill="black" fill-opacity="0.12"/>
<path opacity="0.3" d="M43.3424 59.9118C38.9076 71.0831 32.4585 67.8582 32.4585 67.8582C32.4585 67.8582 25.4819 66.0404 29.5008 54.7141C32.4236 46.4712 38.4418 31.4553 41.5053 23.8759C41.5674 23.7211 41.6289 23.5711 41.6896 23.4258C41.7351 23.3168 41.7799 23.2126 41.82 23.1076C41.8565 23.0262 41.8835 22.9434 41.92 22.8621C41.9829 22.7026 42.0457 22.5431 42.1072 22.3931C42.1437 22.3117 42.17 22.2337 42.2058 22.157C42.2611 22.0157 42.3211 21.8751 42.3742 21.748C42.4591 21.5388 42.5364 21.3477 42.6075 21.1654C42.6545 21.0469 42.7055 20.934 42.7463 20.8243C44.0114 21.6828 46.2411 22.485 49.1051 23.5623C51.9644 24.6388 54.1754 25.501 55.6922 25.6879C55.672 25.7573 55.6471 25.8259 55.6174 25.8939C55.5702 26.046 55.5106 26.2157 55.451 26.3853C55.2937 26.8491 55.1081 27.3714 54.9092 27.9496C54.8649 28.0829 54.8157 28.2155 54.7699 28.3582C54.5634 28.9546 54.3389 29.6061 54.0992 30.294C54.0064 30.5552 53.9137 30.8163 53.8242 31.0876C53.8227 31.0971 53.8199 31.116 53.8083 31.1287C53.766 31.2478 53.7278 31.3724 53.6808 31.4908C50.8247 39.6763 46.2362 52.6544 43.3511 59.918L43.3424 59.9118Z" fill="#06A6DD"/>
<g style="mix-blend-mode:multiply" opacity="0.2">
<path d="M48.0691 47.2967C47.1131 49.5852 45.7259 51.6923 43.9002 53.3803C43.6081 53.6498 43.2888 53.8765 42.956 54.0964C41.623 54.9563 40.4684 55.6597 38.8639 55.923C36.5108 56.314 34.2391 55.5972 32.5297 53.9758C31.7236 53.2111 31.1281 52.2998 30.7378 51.3086C30.2868 52.5293 29.8668 53.6727 29.5019 54.7086C25.487 66.0403 32.4589 67.8574 32.4589 67.8574C32.4589 67.8574 38.9033 71.0816 43.3428 59.911C44.6707 56.5732 46.3556 52.0294 48.0691 47.2967Z" fill="#F0294D"/>
</g>
<g style="mix-blend-mode:multiply" opacity="0.3">
<path d="M53.6748 31.49C53.4652 31.2167 53.2494 30.9522 53.0188 30.6902C51.4614 28.609 49.5035 27.0658 47.1642 26.0634C45.4289 24.9307 43.5408 24.1996 41.5087 23.8765C41.5708 23.7218 41.6322 23.5717 41.6929 23.4264C41.7385 23.3175 41.7833 23.2132 41.8234 23.1082C41.8599 23.0269 41.8869 22.9441 41.9234 22.8627C41.9863 22.7032 42.0491 22.5438 42.1106 22.3937C42.1471 22.3124 42.1734 22.2343 42.2092 22.1576C42.2645 22.0163 42.3244 21.8758 42.3776 21.7486C42.4625 21.5394 42.5398 21.3483 42.6109 21.166C42.6579 21.0476 42.7088 20.9346 42.7496 20.8249C44.0147 21.6834 46.2445 22.4857 49.1085 23.5629C51.9678 24.6395 54.1788 25.5016 55.6956 25.6886C55.6754 25.7579 55.6505 25.8266 55.6208 25.8945C55.5681 26.0507 55.514 26.2163 55.4544 26.3859C55.2971 26.8497 55.1115 27.372 54.9126 27.9502C54.8682 28.0835 54.8191 28.2161 54.7733 28.3588C54.5668 28.9552 54.3423 29.6068 54.1026 30.2947C54.0145 30.5565 53.9218 30.8177 53.8276 31.0883C53.8261 31.0977 53.8232 31.1166 53.8117 31.1293C53.7694 31.2484 53.7265 31.3723 53.6882 31.4969L53.6748 31.49Z" fill="#F0294D"/>
</g>
<path d="M39.163 32.7429C36.2985 39.9662 32.83 48.8457 30.8389 54.4199C27.022 65.1153 32.9371 66.5787 32.9371 66.5787C32.9371 66.5787 38.3509 69.3712 42.5244 58.8072C44.6986 53.2995 47.9343 44.3315 50.5337 37.01L39.1638 32.7382L39.163 32.7429Z" fill="#F0294D"/>
<g style="mix-blend-mode:multiply" opacity="0.2">
<path d="M42.5776 58.0566C41.5451 59.6719 39.6715 60.5945 37.8585 60.9903C35.911 61.414 33.896 60.7554 32.281 59.6892C31.3641 59.0816 30.5895 58.1092 30.0506 57.0471C28.0285 65.369 32.9431 66.5839 32.9431 66.5839C32.9431 66.5839 38.3569 69.3763 42.5304 58.8124C42.7507 58.2519 42.987 57.6504 43.2268 57.0253C43.0151 57.3698 42.7987 57.7135 42.5776 58.0566Z" fill="#F0294D"/>
</g>
<path d="M39.1655 32.7432C38.2977 35.0547 49.5362 39.6832 50.5354 37.0149C51.5394 34.3474 40.0333 30.4316 39.1655 32.7432Z" fill="#FF5775"/>
<path opacity="0.3" d="M50.534 19.7521C47.7521 18.7066 42.4503 16.6072 41.7027 18.6038C40.9552 20.6004 44.0497 21.6547 49.1061 23.5575C54.1632 25.4556 57.1898 26.7024 57.9373 24.7058C58.6848 22.7092 53.3159 20.7975 50.534 19.7521Z" fill="#06A6DD"/>
<path d="M50.1446 20.784C47.9791 19.9722 43.8376 18.3725 43.5541 19.1262C43.2706 19.8799 45.6652 20.741 49.6033 22.218C53.5413 23.695 55.9103 24.6295 56.1938 23.8758C56.4773 23.1221 52.3101 21.5958 50.1446 20.784Z" fill="#1A1A1A"/>
<g style="mix-blend-mode:multiply" opacity="0.2">
<path d="M57.3246 23.0683C57.163 23.6232 56.74 24.1191 56.257 24.3741C55.1229 24.9744 53.7656 24.5316 52.6664 24.075C51.463 23.5735 50.2299 23.1399 49.0098 22.6842C47.5341 22.1317 46.0022 21.6624 44.6146 20.9108C43.4763 20.2985 42.444 19.6878 42.064 18.3746C42.0417 18.2987 42.0289 18.2244 42.0207 18.1507C41.882 18.2696 41.7726 18.4172 41.7015 18.5996C40.9539 20.5962 44.0484 21.6505 49.1048 23.5533C54.1619 25.4514 57.1885 26.6982 57.936 24.7015C58.1462 24.1444 57.8769 23.5964 57.3246 23.0683Z" fill="#F0294D"/>
</g>
<g style="mix-blend-mode:overlay">
<path d="M39.9659 44.7877C41.5272 39.945 42.9352 33.3455 41.7429 32.9616C40.5506 32.5777 37.2137 38.5559 35.6524 43.3986C34.0911 48.2413 34.9015 50.122 36.0938 50.5059C37.2862 50.8899 38.4086 49.6359 39.9652 44.7925L39.9659 44.7877Z" fill="#F1E3C8"/>
</g>
<g style="mix-blend-mode:overlay">
<path d="M44.9388 28.8975C45.624 26.7707 45.1008 26.4642 44.1569 26.1615C43.213 25.8588 42.2086 25.6676 41.5234 27.7944C40.8382 29.9212 41.6466 30.8939 42.5905 31.1966C43.5344 31.4993 44.2536 31.0243 44.9395 28.8928L44.9388 28.8975Z" fill="#F1E3C8"/>
</g>
</svg>
