<svg width="102" height="144" viewBox="0 0 102 144" fill="none" xmlns="http://www.w3.org/2000/svg">
<path d="M51.1828 118.728C30.6361 118.728 12.2006 105.674 5.33188 86.2576C3.45859 80.9648 2.50708 75.5234 2.50708 70.0522C2.50708 64.581 3.39912 59.4667 5.15347 54.3226L5.30214 53.9063C12.1709 34.5193 30.6064 21.4062 51.1828 21.4062C56.535 21.4062 61.8575 22.328 67.0314 24.1121C70.7185 25.3907 74.3164 27.145 77.6764 29.3157C91.5625 38.355 99.8287 53.5792 99.8287 70.0522C99.8287 71.5687 99.7395 73.1446 99.5909 74.8098C97.1526 99.8464 76.3383 118.728 51.153 118.728H51.1828Z" fill="#181C36"/>
<path d="M51.1827 116.2C31.7064 116.2 14.2224 103.831 7.71055 85.4249C5.92646 80.3998 5.03442 75.2259 5.03442 70.0521C5.03442 64.8783 5.867 60.0315 7.53214 55.155L7.65108 54.8279C14.1927 36.333 31.6767 23.9336 51.1827 23.9336C56.2673 23.9336 61.3222 24.7959 66.2284 26.4908C69.7371 27.7099 73.1269 29.375 76.3085 31.4267C89.4512 39.9903 97.3309 54.4117 97.3309 70.0521C97.3309 71.5091 97.2417 72.9958 97.093 74.542C94.8035 98.2703 75.0596 116.171 51.1827 116.171V116.2Z" fill="#3D4787"/>
<path d="M74.9401 33.5681C71.9964 31.6354 68.785 30.0594 65.425 28.8998C60.9648 27.3536 56.2072 26.4913 51.2118 26.4913C32.1816 26.4615 16.0654 38.6528 10.0887 55.6313C10.059 55.7502 9.99952 55.8691 9.94005 55.9881C8.42359 60.4186 7.56128 65.1464 7.56128 70.0823C7.56128 75.0183 8.48305 80.0435 10.0887 84.5929C16.0654 101.512 32.1816 113.673 51.1523 113.673C73.8102 113.673 92.3944 96.3975 94.5353 74.3344C94.6839 72.9369 94.7434 71.5096 94.7434 70.0823C94.7434 54.769 86.834 41.3289 74.8806 33.5681H74.9401Z" fill="#2A3069"/>
<path d="M91.6443 121.665L87.2849 121.49C61.7122 120.449 36.1026 120.346 10.5185 121.167C5.78439 121.138 1.96941 117.258 1.99861 112.503L2.04386 105.135C2.06942 100.974 3.5952 98.5035 8.40811 97.1094C9.63277 96.7572 10.8876 96.5615 12.1575 96.452C14.1441 96.2921 17.9381 95.9791 22.4176 95.6155C41.6135 94.0517 60.908 94.1702 80.0832 95.9696L90.4101 96.9404C91.6786 97.0577 92.9388 97.261 94.1592 97.6126C99.1106 99.0275 100.349 101.577 100.323 105.746L100.278 113.114C100.248 117.869 96.3861 121.702 91.652 121.673L91.6443 121.665Z" fill="#2A3069"/>
<path fill-rule="evenodd" clip-rule="evenodd" d="M91.8467 119.671C95.3846 119.596 98.2556 116.7 98.2777 113.102L98.323 105.734C98.3348 103.811 98.0439 102.623 97.4635 101.786C96.8992 100.971 95.8398 100.173 93.6097 99.5357L93.6054 99.5344C92.5377 99.2268 91.4075 99.0411 90.226 98.9319L90.223 98.9316L79.8964 97.9609C79.8963 97.9609 79.8965 97.9609 79.8964 97.9609C60.8374 96.1724 41.6595 96.0546 22.58 97.6089C20.3009 97.7939 18.1956 97.9661 16.4165 98.1116C14.7068 98.2514 13.2978 98.3667 12.3238 98.4451C11.1449 98.547 10.0268 98.7251 8.9626 99.031C6.78683 99.6615 5.65851 100.449 5.02937 101.286C4.40229 102.12 4.05523 103.289 4.04383 105.147L3.99858 112.515C3.97618 116.162 6.89046 119.125 10.4951 119.166C36.1134 118.346 61.7576 118.449 87.3653 119.491C87.365 119.491 87.3656 119.491 87.3653 119.491L91.8467 119.671ZM12.1575 96.452C10.8876 96.5615 9.63277 96.7572 8.40811 97.1094C3.5952 98.5035 2.06942 100.974 2.04386 105.135L1.99861 112.503C1.96941 117.258 5.78439 121.138 10.5185 121.167C36.1026 120.346 61.7122 120.449 87.2849 121.49L91.6443 121.665L91.652 121.673C96.3861 121.702 100.248 117.869 100.278 113.114L100.323 105.746C100.349 101.577 99.1106 99.0275 94.1592 97.6126C92.9388 97.261 91.6786 97.0577 90.4101 96.9404L80.0832 95.9696C60.908 94.1702 41.6135 94.0517 22.4176 95.6155C20.1348 95.8008 18.0299 95.9729 16.2516 96.1184C14.5405 96.2583 13.1317 96.3736 12.1575 96.452Z" fill="#181C36"/>
<path d="M31.98 112.978V111.907H36.8862V105.813C36.8862 105.199 36.7456 104.746 36.4644 104.454C36.1831 104.162 35.769 103.978 35.2222 103.899C35.092 103.873 34.9435 103.855 34.7769 103.845C34.6102 103.829 34.4201 103.821 34.2065 103.821C33.9618 103.821 33.6571 103.832 33.2925 103.853C32.9279 103.868 32.4878 103.894 31.9722 103.931V102.845C32.3576 102.808 32.7378 102.782 33.1128 102.767C33.493 102.746 33.8706 102.735 34.2456 102.735C34.7664 102.735 35.2013 102.759 35.5503 102.806C35.9045 102.847 36.2404 102.925 36.5581 103.04C36.881 103.16 37.1493 103.313 37.3628 103.501C37.5763 103.688 37.7482 103.928 37.8784 104.22C37.9618 104.36 38.0269 104.511 38.0737 104.673C38.1206 104.834 38.1545 105.006 38.1753 105.188C38.1961 105.371 38.2065 105.569 38.2065 105.782V111.907H39.3628V112.978H31.98Z" fill="white"/>
<path d="M41.1987 112.978L40.3472 102.892H41.605L42.0815 108.649C42.4305 108.566 42.7638 108.451 43.0815 108.306C43.3993 108.155 43.6623 107.957 43.8706 107.712C44.1154 107.415 44.2977 107.053 44.4175 106.626C44.5425 106.199 44.6284 105.743 44.6753 105.259L44.894 102.892H46.1206L45.9019 105.251C45.8341 105.949 45.7222 106.548 45.5659 107.048C45.4097 107.543 45.1727 107.975 44.855 108.345C44.5633 108.699 44.2039 108.98 43.7769 109.188C43.355 109.397 42.8394 109.553 42.23 109.657C42.2196 109.657 42.2091 109.66 42.1987 109.665C42.1883 109.665 42.1805 109.665 42.1753 109.665L42.3628 111.915H44.5425C45.2612 111.915 45.9279 111.722 46.5425 111.337C47.1571 110.946 47.6649 110.399 48.0659 109.696C48.4618 108.983 48.7039 108.175 48.7925 107.274L49.2065 102.892H50.4409L50.019 107.29C49.9618 107.889 49.8472 108.451 49.6753 108.978C49.5034 109.498 49.2795 109.985 49.0034 110.438C48.7222 110.897 48.3966 111.3 48.0269 111.649C47.6571 111.998 47.217 112.282 46.7065 112.501C46.3732 112.673 46.0164 112.795 45.6362 112.868C45.2612 112.941 44.8706 112.978 44.4644 112.978H41.1987Z" fill="white"/>
<path d="M52.3862 112.978V102.923C52.4539 102.912 52.5607 102.902 52.7065 102.892C52.8524 102.881 53.0373 102.866 53.2612 102.845C53.7456 102.808 54.1961 102.782 54.6128 102.767C55.0295 102.746 55.4097 102.735 55.7534 102.735C56.3524 102.735 56.8368 102.761 57.2065 102.813C57.5763 102.866 57.9227 102.957 58.2456 103.087C58.5685 103.222 58.8368 103.394 59.0503 103.603C59.2638 103.806 59.4331 104.074 59.5581 104.407C59.6362 104.61 59.6909 104.826 59.7222 105.056C59.7586 105.28 59.7769 105.532 59.7769 105.813V112.978H58.4487V105.813C58.4487 105.188 58.3055 104.728 58.019 104.431C57.7326 104.134 57.3055 103.949 56.7378 103.876C56.618 103.86 56.467 103.847 56.2847 103.837C56.1076 103.826 55.9019 103.821 55.6675 103.821C55.4279 103.821 55.144 103.829 54.8159 103.845C54.4878 103.86 54.1154 103.884 53.6987 103.915V112.978H52.3862Z" fill="white"/>
<path d="M61.8394 112.978L62.5425 105.47C62.5529 105.371 62.5581 105.285 62.5581 105.212C62.5633 105.134 62.5659 105.058 62.5659 104.985C62.5659 104.829 62.5555 104.683 62.5347 104.548C62.519 104.407 62.4904 104.248 62.4487 104.071C62.4383 104.019 62.4123 103.933 62.3706 103.813C62.3289 103.688 62.2873 103.569 62.2456 103.454C62.2091 103.334 62.1857 103.256 62.1753 103.22C62.1545 103.157 62.131 103.097 62.105 103.04C62.0841 102.978 62.0633 102.915 62.0425 102.853H63.3159C63.4097 103.061 63.4878 103.256 63.5503 103.438C63.6128 103.616 63.6597 103.782 63.6909 103.938H63.7925C63.8602 103.834 63.993 103.704 64.1909 103.548C64.394 103.392 64.5972 103.261 64.8003 103.157C65.0034 103.048 65.2716 102.951 65.605 102.868C65.9383 102.78 66.2951 102.735 66.6753 102.735C67.0243 102.735 67.342 102.78 67.6284 102.868C67.9149 102.957 68.1701 103.079 68.394 103.235C68.5503 103.35 68.6909 103.48 68.8159 103.626C68.9461 103.767 69.0581 103.92 69.1519 104.087C69.3081 104.379 69.4253 104.715 69.5034 105.095C69.5868 105.47 69.6284 105.886 69.6284 106.345V112.978H66.1831V111.907H68.3081V106.345C68.3081 105.944 68.2638 105.59 68.1753 105.282C68.0868 104.97 67.9539 104.712 67.7769 104.509C67.6727 104.373 67.5503 104.256 67.4097 104.157C67.2743 104.053 67.1154 103.975 66.9331 103.923C66.756 103.866 66.5529 103.837 66.3237 103.837C65.9904 103.837 65.6753 103.886 65.3784 103.985C65.0815 104.084 64.842 104.199 64.6597 104.329C64.4878 104.454 64.3315 104.595 64.1909 104.751C64.0555 104.902 63.9461 105.063 63.8628 105.235L63.144 112.978H61.8394Z" fill="white"/>
<g clip-path="url(#clip0_1160_18391)">
<path d="M80.7804 42.8021C80.7804 42.1021 80.2804 41.5021 79.5804 41.3021C73.3804 40.0021 66.2804 39.2021 58.8804 38.9021C59.3804 38.5021 59.7804 37.9021 59.7804 37.2021C59.7804 36.1021 58.8804 35.2021 57.7804 35.2021H55.4804C54.3804 32.9021 50.7804 32.9021 49.6804 35.2021H47.3804C45.1804 35.2021 44.8804 37.9021 46.2804 38.9021C38.9804 39.2021 31.7804 40.0021 25.6804 41.3021C24.9804 41.4021 24.4804 42.1021 24.4804 42.8021V70.002C24.4804 71.002 25.3804 71.702 26.2804 71.502C32.6804 70.302 39.7804 69.502 47.2804 69.202L47.8804 71.9021C48.1804 73.5021 48.5804 75.2021 48.8804 76.6021L41.3804 80.302C41.0804 79.602 40.6804 79.0021 40.1804 78.6021C40.1804 78.6021 40.1804 78.502 40.2804 78.502C40.3804 78.002 40.7804 77.202 40.0804 77.002L36.6804 76.1021C36.0804 75.9021 35.9804 76.6021 35.7804 77.1021C35.2804 77.1021 34.6804 77.102 33.9804 77.202C32.7804 77.302 30.5804 76.702 29.5804 76.002C29.0804 75.602 28.5804 75.3021 28.0804 75.1021C28.1804 74.6021 28.4804 74.002 27.7804 73.802L24.3804 72.9021C23.6804 72.7021 23.5804 73.6021 23.4804 74.1021C20.7804 75.0021 17.7804 78.602 16.3804 82.002C16.3804 81.902 16.3804 81.902 16.3804 81.802C16.0804 82.702 15.8804 83.502 15.7804 84.202C15.4804 86.102 15.8804 87.702 17.2804 88.502C17.9804 88.902 18.8804 89.002 19.7804 88.702C20.9804 88.502 22.3804 87.702 23.7804 86.302C23.9804 86.102 24.1804 86.002 24.3804 86.002C25.0804 85.902 25.5804 86.4021 26.1804 86.9021C26.5804 87.3021 27.0804 87.802 27.5804 88.002C27.8804 88.102 28.1804 88.202 28.4804 88.202C28.5804 88.202 28.5804 88.202 28.6804 88.202C28.6804 88.202 28.7804 88.302 28.8804 88.302C29.3804 88.702 29.8804 88.702 30.3804 88.702C30.8804 88.702 31.3804 88.602 32.0804 88.302C32.5804 88.202 32.9804 88.202 33.3804 88.302C33.4804 88.402 33.6804 88.5021 33.7804 88.6021C33.8804 88.7021 33.8804 88.702 33.9804 88.802C34.0804 88.902 34.0804 89.002 34.1804 89.202C34.2804 89.602 34.3804 89.902 34.5804 90.202C34.5804 90.202 34.5804 90.302 34.6804 90.302C35.3804 92.102 36.3804 93.302 37.3804 93.802C37.4804 93.802 37.4804 93.9021 37.5804 93.9021C37.9804 94.1021 38.3804 94.202 38.8804 94.202C39.9804 94.202 40.9804 93.4021 41.7804 92.1021C41.7804 92.0021 41.8804 92.0021 41.8804 91.9021C41.8804 91.8021 41.9804 91.802 41.9804 91.702C42.7804 90.202 43.2804 88.1021 42.9804 85.6021C42.8804 84.7021 42.7804 83.9021 42.5804 83.1021H66.7804C67.4804 83.1021 67.6804 82.2021 67.0804 81.9021L56.5804 76.6021C57.0804 74.2021 57.7804 71.2021 58.1804 69.1021C88.7804 70.0021 79.2804 81.2021 80.7804 42.8021Z" fill="black"/>
</g>
<path d="M65.6843 81.3625H37.7422C37.0489 81.3625 36.8283 80.4277 37.4484 80.1181L51.4194 73.1383C51.6041 73.0463 51.8218 73.0463 52.0064 73.1383L65.9775 80.1181C66.5975 80.4277 66.3769 81.3625 65.6836 81.3625H65.6843Z" fill="#120237"/>
<path d="M57.3941 65.9185C56.8301 68.4876 55.473 74.6484 54.8932 77.2794H48.5349C47.9501 74.6261 46.6022 68.5085 46.0339 65.9185H57.3949H57.3941Z" fill="#120237"/>
<path d="M57.3941 65.9185L56.4659 70.1379C53.342 70.0417 50.0853 70.0417 46.9607 70.1379L46.0325 65.9185H57.3934H57.3941Z" fill="#06001E"/>
<path d="M79.8825 41.0571C78.2775 81.5945 88.9652 66.9358 51.7133 67.3138C42.2269 67.3138 33.267 68.1838 25.3454 69.7249C24.4114 69.9067 23.5442 69.1947 23.5442 68.2427V41.0571C23.5442 40.3351 24.055 39.7158 24.7627 39.5735C40.6175 36.2392 62.8099 36.2392 78.664 39.5735C79.3724 39.715 79.8825 40.3344 79.8825 41.0564V41.0571Z" fill="#120237"/>
<path d="M77.8815 41.458V67.6492C61.4612 64.5527 42.277 64.4938 25.5449 67.6492V41.458C41.5981 38.2601 61.8283 38.2601 77.8815 41.458Z" fill="#53A2D3"/>
<path d="M56.8926 33.5452H46.534C43.9066 33.589 43.9015 37.5031 46.534 37.5477H56.8926C57.9976 37.5477 58.8935 36.6517 58.8935 35.546C58.8935 34.4411 57.9976 33.5444 56.8926 33.5444V33.5452Z" fill="#91287E"/>
<path d="M54.958 34.9683C54.8862 39.1777 48.6248 39.177 48.5537 34.9683C48.6256 30.7589 54.8869 30.7596 54.958 34.9683Z" fill="#91287E"/>
<path d="M54.0547 34.9685C54.0029 37.9911 49.5076 37.9903 49.4565 34.9685C49.5083 31.9467 54.0036 31.9467 54.0547 34.9685Z" fill="#FFCAED"/>
<path d="M52.6999 34.9683C52.6941 36.2033 50.8168 36.2033 50.811 34.9683C50.8168 33.7332 52.6941 33.7332 52.6999 34.9683Z" fill="#120237"/>
<path d="M58.9209 52.5303C58.7736 61.1633 45.932 61.1618 45.7861 52.5303C45.9334 43.8974 58.7751 43.8988 58.9209 52.5303Z" fill="#FE7F6F"/>
<path d="M56.0505 52.5304L50.157 56.9201V48.1406L56.0505 52.5304Z" fill="#FFF2E8"/>
<path d="M39.5419 44.3184H28.9734V45.84H39.5419V44.3184Z" fill="#FFF0E1"/>
<path d="M39.5419 48.3828H28.9734V49.9045H39.5419V48.3828Z" fill="#FFF0E1"/>
<path d="M39.5419 52.4473H28.9734V53.969H39.5419V52.4473Z" fill="#FFF0E1"/>
<path d="M39.5419 56.5117H28.9734V58.0334H39.5419V56.5117Z" fill="#FFF0E1"/>
<path d="M39.5419 60.5771H28.9734V62.0988H39.5419V60.5771Z" fill="#FFF0E1"/>
<path d="M76.3325 44.5791H64.7913V52.2666H76.3325V44.5791Z" fill="#FFF0E1"/>
<path d="M76.3325 54.8345H64.7913V62.5219H76.3325V54.8345Z" fill="#FFF0E1"/>
<g style="mix-blend-mode:multiply" opacity="0.4">
<path d="M77.8818 41.458V67.6493C65.6875 65.2992 51.1209 64.7338 38.262 65.8984C72.8369 59.2922 77.8818 41.458 77.8818 41.458Z" fill="#4A94C2"/>
</g>
<path d="M39.2005 75.2608L35.7567 74.3585C35.0258 74.17 35.0011 75.0936 34.8564 75.5473C34.7827 75.8286 34.9699 76.1217 35.2739 76.2014L38.7177 77.1036C39.0222 77.1834 39.3285 77.0196 39.4022 76.7383C39.497 76.2705 39.931 75.4562 39.2005 75.2608Z" fill="#120237"/>
<path d="M26.9634 72.0552L23.5196 71.153C22.7887 70.9645 22.764 71.8881 22.6194 72.3418C22.5457 72.6231 22.7328 72.9161 23.0368 72.9958L26.4806 73.898C26.7851 73.9778 27.0914 73.814 27.1651 73.5327C27.2599 73.065 27.694 72.2506 26.9634 72.0552Z" fill="#120237"/>
<path d="M41.8768 83.8808C41.601 79.4731 39.5225 75.8893 37.1331 75.5371L37.1333 75.5361C37.1333 75.5361 35.3334 75.2059 33.1282 75.4377C31.9316 75.5632 29.7068 74.9804 28.7255 74.2842C26.9173 73.001 25.1866 72.4062 25.1866 72.4062L25.1864 72.4071C20.1341 70.1221 11.1909 83.6748 16.3597 86.8217C18.0126 87.7925 20.5821 86.8495 22.8375 84.6745C24.7709 83.1056 25.6172 86.9663 27.8582 86.5707C29.6207 88.0152 32.2449 85.0632 33.1639 87.3794C35.7951 95.9916 42.5589 92.5354 41.8765 83.8802L41.8768 83.8808Z" fill="#91287E"/>
<path d="M37.7585 92.4279C35.8407 92.4642 34.0643 90.3817 33.1652 87.3802C32.9439 86.6436 32.0832 86.2122 31.3467 86.5034C28.8785 87.516 27.8444 86.5725 27.8591 86.5714C25.5985 86.9578 24.781 83.1051 22.8376 84.6744C17.9011 89.6173 12.9249 86.7694 15.5676 80.0752C14.8062 85.6244 19.7752 86.0577 23.472 82.2508C24.0259 81.7178 24.9875 81.7639 25.4867 82.3788C27.1669 84.4912 29.4809 85.0974 31.981 84.0803C32.7176 83.7891 33.5783 84.2205 33.7995 84.957C35.1511 90.0865 39.7022 92.147 41.7553 86.9367C41.2828 90.1146 39.7346 92.3906 37.7579 92.4283L37.7585 92.4279Z" fill="#631A57"/>
<g style="mix-blend-mode:multiply" opacity="0.4">
<path d="M35.3195 84.8632C34.5232 87.7038 30.2793 86.5914 30.978 83.7258C31.7742 80.8852 36.0181 81.9976 35.3195 84.8632Z" fill="#631A57"/>
</g>
<path d="M35.4467 84.3788C34.6504 87.2194 30.4065 86.107 31.1052 83.2414C31.9014 80.4008 36.1453 81.5132 35.4467 84.3788Z" fill="#120237"/>
<path d="M34.9586 84.2513C34.3415 86.4533 31.0515 85.5909 31.5933 83.3696C32.2103 81.1677 35.5004 82.0301 34.9586 84.2513Z" fill="#74CAFF"/>
<g style="mix-blend-mode:multiply" opacity="0.4">
<path d="M22.1283 81.4074C21.4295 84.2735 25.6737 85.3849 26.4698 82.5448C27.1687 79.6787 22.9245 78.5673 22.1283 81.4074Z" fill="#631A57"/>
</g>
<path d="M22.2553 80.9225C21.5565 83.7886 25.8006 84.9001 26.5968 82.06C27.2956 79.1939 23.0515 78.0824 22.2553 80.9225Z" fill="#120237"/>
<path d="M22.7434 81.0508C22.2015 83.2725 25.4918 84.134 26.1087 81.9325C26.6506 79.7108 23.3604 78.8493 22.7434 81.0508Z" fill="#74CAFF"/>
<path d="M28.91 77.4827L26.8105 76.9326L26.4778 78.2026L28.5773 78.7527L28.91 77.4827Z" fill="#631A57"/>
<path d="M33.4344 78.6681L31.3335 78.1177L31.0008 79.3877L33.1017 79.9381L33.4344 78.6681Z" fill="#631A57"/>
<path d="M29.0685 76.8767L26.969 76.3267L26.6363 77.5967L28.7358 78.1467L29.0685 76.8767Z" fill="#FFCAED"/>
<path d="M33.5931 78.0621L31.4922 77.5117L31.1595 78.7817L33.2603 79.3321L33.5931 78.0621Z" fill="#120237"/>
<g style="mix-blend-mode:multiply" opacity="0.4">
<path d="M38.7914 79.5684C38.4735 80.7019 36.7803 80.2578 37.059 79.1145C37.3768 77.981 39.0701 78.4251 38.7914 79.5684Z" fill="#631A57"/>
<path d="M37.8961 82.9844C37.5783 84.118 35.8851 83.6738 36.1638 82.5306C36.4816 81.397 38.1748 81.8411 37.8961 82.9844Z" fill="#631A57"/>
<path d="M38.959 82.3632C37.8255 82.0454 38.2696 80.3522 39.4129 80.6309C40.5464 80.9487 40.1023 82.6419 38.959 82.3632Z" fill="#631A57"/>
<path d="M35.5425 81.4682C34.409 81.1504 34.8531 79.4572 35.9964 79.7359C37.1299 80.0537 36.6858 81.7469 35.5425 81.4682Z" fill="#631A57"/>
</g>
<path d="M38.9183 79.0835C38.6005 80.2171 36.9073 79.773 37.186 78.6297C37.5038 77.4962 39.197 77.9403 38.9183 79.0835Z" fill="#FE7F6F"/>
<path d="M38.023 82.5C37.7052 83.6336 36.012 83.1895 36.2907 82.0462C36.6085 80.9127 38.3017 81.3568 38.023 82.5Z" fill="#FE7F6F"/>
<path d="M39.086 81.8784C37.9525 81.5606 38.3966 79.8674 39.5398 80.1461C40.6734 80.4639 40.2293 82.1571 39.086 81.8784Z" fill="#FE7F6F"/>
<path d="M35.6697 80.9834C34.5362 80.6656 34.9803 78.9723 36.1236 79.251C37.2571 79.5688 36.813 81.2621 35.6697 80.9834Z" fill="#FE7F6F"/>
<path d="M23.1068 76.1909L22.1239 76.7563L21.5449 75.7817L21.8533 74.6045L23.4152 75.0137L23.1068 76.1909Z" fill="#631A57"/>
<path d="M20.9455 78.0699L21.928 77.5044L22.5074 78.4791L22.1991 79.6558L20.6372 79.2466L20.9455 78.0699Z" fill="#631A57"/>
<path d="M22.9661 78.2115L22.4006 77.229L23.3753 76.6495L24.552 76.9578L24.1428 78.5198L22.9661 78.2115Z" fill="#631A57"/>
<path d="M21.0864 76.0495L21.6518 77.0325L20.6771 77.6115L19.5004 77.3032L19.9097 75.7412L21.0864 76.0495Z" fill="#631A57"/>
<path d="M23.2654 75.5845L22.2824 76.1499L21.7034 75.1752L22.0117 73.9985L23.5737 74.4078L23.2654 75.5845Z" fill="#120237"/>
<path d="M21.1039 77.4644L22.0864 76.8989L22.6659 77.8736L22.3576 79.0503L20.7956 78.6411L21.1039 77.4644Z" fill="#120237"/>
<path d="M23.1248 77.605L22.5592 76.6225L23.534 76.0431L24.7107 76.3514L24.3015 77.9133L23.1248 77.605Z" fill="#120237"/>
<path d="M21.2448 75.4435L21.8102 76.4265L20.8356 77.0055L19.6589 76.6972L20.0681 75.1353L21.2448 75.4435Z" fill="#120237"/>
<defs>
<clipPath id="clip0_1160_18391">
<rect width="68" height="63" fill="white" transform="translate(13.8804 32.7021)"/>
</clipPath>
</defs>
</svg>
